<?xml version="1.0" encoding="UTF-8" standalone="no"?>
<svg xmlns:ffdec="https://www.free-decompiler.com/flash" xmlns:xlink="http://www.w3.org/1999/xlink" ffdec:objectType="shape" height="6.6px" width="15.3px" xmlns="http://www.w3.org/2000/svg">
  <g transform="matrix(1.0, 0.0, 0.0, 1.0, 6.75, 3.6)">
    <path d="M3.3 -0.3 L4.3 -0.4 5.05 1.05 4.7 1.15 3.5 1.2 1.1 1.45 0.8 1.55 Q0.55 1.6 0.35 1.75 L0.15 2.15 0.05 2.7 0.05 2.85 0.05 2.9 0.0 2.9 -0.15 3.0 -0.4 2.9 -1.5 2.2 -2.65 1.05 -2.8 0.9 -3.45 0.4 -4.55 -0.3 -5.35 -0.8 -6.2 -1.5 -6.55 -1.9 -6.75 -2.2 -6.5 -3.45 -6.3 -3.6 -6.2 -3.55 -5.95 -3.0 -5.1 -2.2 -4.65 -1.95 Q-3.95 -1.55 -3.25 -1.25 L-2.1 -0.8 -0.95 -0.5 0.4 -0.3 1.85 -0.25 3.3 -0.3 M7.55 -1.5 L8.4 -1.85 8.55 -1.2 8.45 -0.9 Q8.35 -0.65 8.1 -0.75 L7.95 -0.8 7.55 -1.5 M-5.9 -2.4 L-6.25 -2.85 -6.5 -2.2 -6.3 -2.0 -6.1 -1.7 -5.4 -1.1 -4.95 -0.75 -4.3 -0.35 -4.0 -0.15 -3.85 -0.05 -3.4 0.2 -3.4 0.15 -3.35 0.2 -3.15 0.25 -3.2 0.3 -3.15 0.35 -3.05 0.3 -2.85 0.45 -2.15 1.05 -2.05 1.2 -2.0 1.2 -1.7 1.55 -1.4 1.85 -1.35 1.85 -0.6 2.35 -0.55 2.4 -0.3 2.45 -0.25 2.15 0.1 1.55 Q0.7 1.05 1.5 1.0 L1.75 1.0 2.05 1.05 2.1 1.05 3.3 1.0 3.3 0.95 3.4 0.95 3.7 0.95 4.0 0.95 4.15 0.95 4.25 0.95 4.65 0.9 4.55 0.6 4.5 0.4 4.35 0.1 3.2 0.25 3.05 0.25 2.7 0.25 1.35 0.25 1.15 0.25 0.9 0.25 0.85 0.25 -0.65 0.05 -0.75 0.0 -0.8 0.0 -0.9 0.0 -1.7 -0.25 -1.8 -0.3 -2.2 -0.45 -2.65 -0.6 -2.75 -0.65 -3.15 -0.8 -3.4 -0.9 -4.2 -1.3 -4.4 -1.4 -4.45 -1.45 -4.6 -1.5 -4.75 -1.6 -4.85 -1.55 -5.55 -2.15 -5.95 -2.55 -5.9 -2.4" fill="#81399f" fill-rule="evenodd" stroke="none"/>
    <path d="M-6.3 -2.0 L-5.9 -2.3 -5.9 -2.4 -5.95 -2.55 -5.55 -2.15 -5.65 -2.05 -5.25 -1.2 -4.6 -1.5 -4.45 -1.45 -4.95 -1.05 -5.1 -0.95 -4.95 -0.75 -5.4 -1.1 -5.8 -1.95 -6.1 -1.7 -6.3 -2.0 M-4.4 -1.4 L-4.2 -1.3 -3.85 -0.65 -3.4 -0.9 -3.15 -0.8 -3.7 -0.4 -3.4 0.15 -3.4 0.2 -3.85 -0.05 -3.95 -0.2 -4.0 -0.15 -4.3 -0.35 -4.1 -0.5 -4.35 -1.15 -4.4 -1.4 M-2.75 -0.65 L-2.65 -0.6 -2.5 -0.3 -2.3 -0.45 -2.2 -0.45 -2.2 -0.4 -2.4 -0.15 -1.85 0.8 -1.9 0.0 -1.85 0.0 -1.8 -0.3 -1.7 -0.25 -1.65 0.05 -1.7 0.1 -1.65 0.65 -0.9 0.0 -0.8 0.0 -1.35 0.7 -1.6 0.95 -1.2 1.65 -1.1 1.8 -1.1 1.75 -0.25 1.1 -0.6 0.5 -0.75 0.0 -0.65 0.05 -0.1 1.0 0.85 0.25 0.9 0.25 0.2 1.05 0.05 1.2 0.2 1.4 0.1 1.5 -0.05 1.3 -1.0 1.95 -0.6 2.35 -1.35 1.85 -1.4 1.85 -1.7 1.55 -1.9 1.15 -2.0 1.2 -2.05 1.2 -2.15 1.05 -2.0 0.95 -2.5 -0.05 -3.05 0.3 -3.15 0.35 -3.2 0.3 -3.15 0.25 -2.6 -0.25 -2.75 -0.65 M-0.55 2.4 L-0.4 2.2 -0.35 2.2 -0.25 2.15 -0.3 2.45 -0.55 2.4 M1.5 1.0 L1.15 0.25 1.35 0.25 1.75 1.0 1.5 1.0 M4.5 0.4 L4.55 0.6 4.25 0.95 4.15 0.95 4.0 0.95 4.5 0.4 M3.7 0.95 L3.4 0.95 3.05 0.25 3.2 0.25 3.7 0.95 M2.1 1.05 L2.05 1.05 2.65 0.3 2.7 0.3 2.7 0.25 2.8 0.25 2.85 0.3 2.2 0.95 2.2 1.0 2.1 1.05" fill="#be89d6" fill-rule="evenodd" stroke="none"/>
  </g>
</svg>
