<?xml version="1.0" encoding="UTF-8" standalone="no"?>
<svg xmlns:ffdec="https://www.free-decompiler.com/flash" xmlns:xlink="http://www.w3.org/1999/xlink" ffdec:objectType="shape" height="12.9px" width="16.5px" xmlns="http://www.w3.org/2000/svg">
  <g transform="matrix(1.0, 0.0, 0.0, 1.0, 10.5, 11.3)">
    <path d="M5.95 -7.2 L5.95 -7.15 5.85 -6.75 5.85 -6.45 5.8 -6.4 Q4.8 -3.1 2.6 -0.35 L2.55 -0.35 1.3 0.8 0.75 1.3 0.65 1.3 -1.05 1.35 -1.3 1.15 Q-1.65 1.35 -1.9 1.0 L-2.45 0.4 -2.45 0.25 Q-5.1 -2.25 -8.65 -1.95 -8.6 -1.75 -8.7 -1.6 L-8.8 -1.5 -9.1 -1.9 -9.2 -2.15 -9.2 -2.2 -9.3 -2.3 -9.25 -2.7 Q-10.3 -3.9 -10.2 -5.35 L-10.1 -6.2 -10.3 -6.2 -10.5 -6.35 -10.45 -7.35 -5.05 -7.5 -0.55 -8.2 Q1.55 -8.65 3.3 -10.2 L4.3 -11.2 4.9 -11.3 5.65 -8.95 5.95 -7.5 5.95 -7.45 6.0 -7.25 5.95 -7.2 M5.6 -6.35 L5.6 -6.45 5.55 -6.35 Q4.5 -5.25 3.8 -3.85 L4.2 -4.7 4.3 -5.0 4.35 -5.05 4.3 -5.0 3.45 -4.3 3.55 -3.9 3.15 -2.75 3.05 -2.7 2.9 -2.4 2.95 -2.7 3.0 -2.7 3.35 -3.95 3.35 -4.0 3.3 -3.95 3.25 -4.0 3.2 -4.0 Q3.0 -3.7 2.65 -3.75 L2.6 -3.8 Q0.8 -2.95 -1.15 -2.55 L-2.8 -2.3 -1.95 -1.05 -1.4 0.1 -1.35 0.3 -1.3 0.35 -1.35 0.35 -1.35 0.6 Q-0.75 1.45 0.2 1.2 L0.4 1.1 Q1.45 0.65 1.65 -0.7 L1.75 -1.15 1.7 -0.8 1.85 -1.25 2.5 -3.1 2.7 -3.65 2.15 -1.2 2.25 -1.3 2.25 -1.4 3.25 -2.7 3.45 -3.05 3.05 -2.15 3.05 -2.05 3.0 -2.0 2.45 -1.3 2.45 -1.2 2.35 -1.1 1.95 -0.5 1.95 -0.45 1.85 -0.3 1.85 -0.25 1.75 -0.1 1.7 0.05 2.05 -0.3 2.2 -0.3 3.5 -2.3 Q4.7 -3.9 5.5 -5.75 L5.6 -6.35 M-6.65 -5.65 L-6.65 -5.55 -6.4 -3.05 Q-4.85 -2.3 -3.05 -2.55 L0.75 -3.25 Q2.5 -3.7 3.9 -4.95 L5.5 -6.9 5.55 -7.7 5.3 -8.55 5.05 -9.55 2.7 -7.95 Q0.75 -6.75 -1.55 -6.6 L-6.7 -6.1 -6.65 -5.65 M-4.25 -5.45 L-5.2 -5.1 -5.25 -5.15 -5.25 -5.0 Q-6.05 -4.5 -6.5 -5.4 L-6.5 -5.55 -6.45 -5.7 -5.3 -5.65 -5.2 -5.45 -5.2 -5.35 -5.2 -5.25 -4.6 -5.45 -4.2 -5.5 -4.25 -5.45 M4.7 -11.05 Q2.45 -8.0 -1.45 -7.95 L-3.1 -7.45 -6.3 -7.2 -9.9 -7.3 -10.05 -7.25 -10.1 -7.2 -10.15 -6.75 -10.0 -6.55 -2.0 -6.9 0.8 -7.45 Q2.95 -7.9 4.3 -9.5 L4.65 -9.95 4.85 -10.3 4.85 -10.65 4.7 -11.05 M-7.0 -5.35 L-7.15 -6.2 -9.85 -6.25 -9.8 -5.8 -9.8 -5.3 Q-9.65 -4.1 -8.95 -3.05 -7.9 -3.4 -6.75 -3.05 L-6.8 -3.15 -6.85 -3.9 -6.85 -3.95 -7.0 -5.35 M-7.2 -5.35 L-7.35 -5.5 -8.05 -5.75 -7.5 -5.7 -7.15 -5.5 -7.1 -5.4 -7.05 -5.4 -7.15 -5.35 -7.2 -5.35 M-5.85 -5.15 L-5.65 -5.15 -5.6 -5.2 -5.55 -5.2 -5.5 -5.45 -6.2 -5.5 -6.15 -5.35 -5.95 -5.2 -5.9 -5.2 -5.85 -5.15 M-6.85 -3.95 L-6.85 -3.9 Q-7.15 -3.45 -7.8 -3.5 L-7.9 -3.55 -7.9 -3.65 -6.85 -3.95 M-5.25 -4.2 L-3.8 -4.55 -5.0 -4.1 -5.0 -4.05 -5.15 -4.05 -5.15 -3.5 -3.95 -3.2 -5.2 -3.4 Q-5.4 -3.0 -5.85 -3.1 -6.3 -3.25 -6.2 -3.75 -6.15 -4.25 -5.65 -4.35 L-5.25 -4.2 M-6.0 -3.45 L-5.75 -3.35 -5.45 -3.55 -5.4 -3.75 -5.55 -4.05 Q-6.05 -4.05 -6.0 -3.55 L-6.0 -3.45 M-5.05 -2.3 Q-6.0 -2.35 -6.65 -2.9 L-6.75 -3.0 -6.8 -2.9 Q-7.95 -3.35 -9.0 -2.65 L-9.0 -2.45 -8.8 -2.25 Q-6.3 -2.75 -4.05 -1.2 L-2.0 0.55 -1.8 0.8 -1.5 0.7 -1.5 0.5 -1.6 0.45 Q-2.3 -1.05 -3.7 -1.95 L-4.1 -2.05 -4.25 -2.25 -5.05 -2.3 M-4.2 -2.25 L-4.1 -2.15 Q-2.95 -1.65 -2.05 -0.8 L-3.0 -2.25 -4.2 -2.25" fill="#313566" fill-rule="evenodd" stroke="none"/>
    <path d="M5.55 -6.35 L5.6 -6.35 5.5 -5.75 Q4.7 -3.9 3.5 -2.3 L3.0 -2.0 3.05 -2.05 3.05 -2.15 3.45 -3.05 3.55 -3.25 3.8 -3.85 Q4.5 -5.25 5.55 -6.35 M5.05 -9.55 L5.3 -8.55 5.55 -7.7 5.5 -6.9 3.9 -4.95 Q2.5 -3.7 0.75 -3.25 L-3.05 -2.55 Q-4.85 -2.3 -6.4 -3.05 L-6.65 -5.55 -6.65 -5.65 -6.45 -5.7 -6.5 -5.55 -6.5 -5.4 Q-6.05 -4.5 -5.25 -5.0 L-5.25 -5.15 -5.2 -5.1 -4.25 -5.45 -3.2 -5.75 1.35 -6.9 Q3.75 -7.45 5.05 -9.55 M4.7 -11.05 L4.85 -10.65 4.85 -10.3 4.65 -9.95 4.3 -9.5 Q2.95 -7.9 0.8 -7.45 L-2.0 -6.9 -10.0 -6.55 -10.15 -6.75 -10.1 -7.2 -10.05 -7.25 -9.9 -7.3 -6.3 -7.2 -3.1 -7.45 -1.45 -7.95 Q2.45 -8.0 4.7 -11.05 M2.65 -3.75 L2.5 -3.1 1.85 -1.25 Q0.15 -0.35 -1.65 -0.95 L-1.95 -1.05 -2.8 -2.3 -1.15 -2.55 Q0.8 -2.95 2.6 -3.8 L2.65 -3.75 M-7.0 -5.35 L-6.85 -3.95 -7.9 -3.65 -7.9 -3.55 -7.8 -3.5 Q-7.15 -3.45 -6.85 -3.9 L-6.8 -3.15 -6.75 -3.05 Q-7.9 -3.4 -8.95 -3.05 -9.65 -4.1 -9.8 -5.3 L-9.8 -5.8 -7.9 -5.45 -7.2 -5.35 -7.15 -5.35 -7.0 -5.35 M-5.85 -5.15 L-5.9 -5.2 -5.95 -5.2 -6.15 -5.35 -6.2 -5.5 -5.5 -5.45 -5.55 -5.2 -5.6 -5.2 -5.65 -5.15 -5.85 -5.15 M-4.05 -1.2 Q-6.3 -2.75 -8.8 -2.25 L-9.0 -2.45 -9.0 -2.65 Q-7.95 -3.35 -6.8 -2.9 L-6.75 -3.0 -6.65 -2.9 Q-6.0 -2.35 -5.05 -2.3 -4.55 -1.75 -3.75 -1.3 L-3.35 -1.05 -3.95 -1.25 -4.05 -1.2 M-6.0 -3.45 L-6.0 -3.55 Q-6.05 -4.05 -5.55 -4.05 L-5.4 -3.75 -5.45 -3.55 -5.75 -3.35 -6.0 -3.45 M-5.25 -4.2 L-5.65 -4.35 Q-6.15 -4.25 -6.2 -3.75 -6.3 -3.25 -5.85 -3.1 -5.4 -3.0 -5.2 -3.4 L-3.95 -3.2 -5.15 -3.5 -5.15 -4.05 -5.0 -4.05 -5.0 -4.1 -3.8 -4.55 -5.25 -4.2" fill="#d1d6e9" fill-rule="evenodd" stroke="none"/>
    <path d="M3.8 -3.85 L3.55 -3.25 3.45 -3.05 3.25 -2.7 2.25 -1.4 2.25 -1.3 2.15 -1.2 2.7 -3.65 2.5 -3.1 2.65 -3.75 Q3.0 -3.7 3.2 -4.0 L3.25 -4.0 3.3 -3.95 3.35 -3.95 3.0 -2.7 2.95 -2.7 2.9 -2.4 3.05 -2.7 3.15 -2.75 3.55 -3.9 3.45 -4.3 4.3 -5.0 4.2 -4.7 3.8 -3.85 M3.0 -2.0 L3.5 -2.3 2.2 -0.3 2.05 -0.3 1.7 0.05 1.75 -0.1 1.85 -0.25 1.85 -0.3 1.95 -0.45 1.95 -0.5 2.35 -1.1 2.45 -1.2 2.45 -1.3 3.0 -2.0 M5.05 -9.55 Q3.75 -7.45 1.35 -6.9 L-3.2 -5.75 -4.25 -5.45 -4.2 -5.5 -4.6 -5.45 -5.2 -5.25 -5.2 -5.35 -5.2 -5.45 -5.3 -5.65 -6.45 -5.7 -6.65 -5.65 -6.7 -6.1 -1.55 -6.6 Q0.75 -6.75 2.7 -7.95 L5.05 -9.55 M-1.95 -1.05 L-1.65 -0.95 Q0.15 -0.35 1.85 -1.25 L1.7 -0.8 1.75 -1.15 1.65 -0.7 Q1.45 0.65 0.4 1.1 L0.2 1.2 Q-0.75 1.45 -1.35 0.6 L-1.35 0.35 -1.3 0.35 -1.35 0.3 -1.4 0.1 -1.95 -1.05 M-9.8 -5.8 L-9.85 -6.25 -7.15 -6.2 -7.0 -5.35 -7.15 -5.35 -7.05 -5.4 -7.1 -5.4 -7.15 -5.5 -7.5 -5.7 -8.05 -5.75 -7.35 -5.5 -7.2 -5.35 -7.9 -5.45 -9.8 -5.8 M-4.05 -1.2 L-3.95 -1.25 -3.35 -1.05 -3.75 -1.3 Q-4.55 -1.75 -5.05 -2.3 L-4.25 -2.25 -4.1 -2.05 -3.7 -1.95 Q-2.3 -1.05 -1.6 0.45 L-1.5 0.5 -1.5 0.7 -1.8 0.8 -2.0 0.55 -4.05 -1.2 M-4.2 -2.25 L-3.0 -2.25 -2.05 -0.8 Q-2.95 -1.65 -4.1 -2.15 L-4.2 -2.25" fill="#949dcb" fill-rule="evenodd" stroke="none"/>
  </g>
</svg>
