<?xml version="1.0" encoding="UTF-8" standalone="no"?>
<svg xmlns:ffdec="https://www.free-decompiler.com/flash" xmlns:xlink="http://www.w3.org/1999/xlink" ffdec:objectType="shape" height="74.95px" width="338.95px" xmlns="http://www.w3.org/2000/svg">
  <g transform="matrix(1.0, 0.0, 0.0, 1.0, 169.45, 37.45)">
    <path d="M-167.9 15.5 Q-168.65 13.5 -168.9 11.45 L-169.45 5.8 Q-169.6 1.65 -168.8 -2.25 -167.9 -7.0 -165.6 -11.15 L-163.0 -15.5 -159.8 -20.25 Q-155.2 -26.5 -150.2 -32.2 L-149.25 -33.3 -148.55 -33.9 -145.05 -35.5 -141.3 -36.7 -135.75 -37.35 Q-132.8 -37.55 -129.95 -37.3 L-127.95 -36.85 Q-125.0 -36.4 -122.35 -35.35 L-119.75 -34.2 -118.45 -33.5 -114.85 -30.95 Q-112.75 -29.4 -111.2 -27.3 L-107.85 -22.6 -123.95 -22.15 -128.6 -22.45 Q-131.35 -22.2 -133.95 -21.2 -136.7 -20.4 -139.25 -19.1 -141.5 -17.9 -143.45 -16.25 L-146.5 -13.0 -147.8 -11.1 -148.0 -9.8 -148.6 -8.95 -148.15 -8.9 -144.4 -11.55 Q-142.15 -13.2 -139.75 -14.65 L-135.35 -17.25 -134.95 -17.45 Q-135.1 -16.8 -134.55 -16.35 -134.1 -15.9 -133.5 -15.8 L-132.35 -15.9 -132.1 -16.0 -128.75 -16.4 -125.45 -16.8 -121.05 -17.55 -116.75 -18.35 -111.05 -19.25 -106.0 -20.0 -100.85 -20.45 -95.1 -20.75 -89.65 -21.0 -86.05 -20.55 -82.5 -20.1 -77.9 -19.5 -66.25 -17.2 -59.7 -15.85 -53.2 -14.7 -46.55 -13.55 -40.2 -12.25 -19.1 -7.85 -1.05 -4.35 14.2 -2.05 30.45 0.25 43.75 1.1 56.9 1.65 69.45 2.2 75.05 1.25 77.35 0.75 Q80.5 -0.15 83.7 -0.65 L85.5 -0.7 90.1 -0.15 99.0 1.0 110.15 0.3 117.2 -0.5 129.65 -1.95 137.15 -2.95 144.15 -3.65 148.7 -4.0 148.75 -3.8 148.85 -2.75 148.95 -2.6 149.05 -2.45 149.05 -2.3 149.05 -2.2 149.15 -2.05 149.2 -1.9 149.2 -1.8 149.2 -1.65 149.35 -1.5 149.4 -1.4 149.4 -1.25 149.4 -1.1 152.65 5.6 153.1 6.6 157.45 16.2 161.65 25.55 164.45 32.15 161.25 31.65 Q148.4 29.3 135.4 28.0 L108.4 25.4 81.75 23.7 Q69.65 23.45 57.6 23.6 43.75 23.8 30.05 23.45 L10.2 23.2 Q-5.45 23.15 -21.2 22.6 -36.95 21.75 -52.7 21.75 L-84.65 21.6 -116.5 19.75 Q-128.15 19.5 -139.25 23.15 -142.45 24.1 -145.75 24.65 -158.0 25.8 -166.3 17.05 L-167.9 15.5" fill="#ffffff" fill-rule="evenodd" stroke="none"/>
    <path d="M-135.35 -17.25 L-139.75 -14.65 Q-142.15 -13.2 -144.4 -11.55 L-148.15 -8.9 -148.6 -8.95 -148.0 -9.8 -147.8 -11.1 -146.5 -13.0 -143.45 -16.25 Q-141.5 -17.9 -139.25 -19.1 -136.7 -20.4 -133.95 -21.2 -131.35 -22.2 -128.6 -22.45 L-123.95 -22.15 -121.45 -20.9 -121.4 -20.8 -121.45 -20.7 -121.45 -20.5 -121.65 -20.35 -125.85 -21.2 -130.05 -21.65 -130.6 -21.6 -134.55 -20.6 Q-141.35 -18.8 -145.6 -13.45 -146.7 -12.05 -147.25 -10.4 L-139.55 -15.1 -135.35 -17.25" fill="#8189a3" fill-rule="evenodd" stroke="none"/>
    <path d="M-167.9 15.5 L-166.3 17.05 Q-158.0 25.8 -145.75 24.65 -142.45 24.1 -139.25 23.15 -128.15 19.5 -116.5 19.75 L-84.65 21.6 -52.7 21.75 Q-36.95 21.75 -21.2 22.6 -5.45 23.15 10.2 23.2 L30.05 23.45 Q43.75 23.8 57.6 23.6 69.65 23.45 81.75 23.7 L108.4 25.4 135.4 28.0 Q148.4 29.3 161.25 31.65 L164.45 32.15 165.55 34.85 Q166.35 35.35 166.8 36.15 L167.4 36.35 168.35 37.05 168.95 37.1 169.1 37.25 169.25 37.4 169.5 37.45 167.4 37.5 Q152.2 37.5 137.15 34.8 122.45 31.95 107.65 29.85 L90.05 27.95 65.3 26.6 34.95 27.6 6.15 29.4 -25.15 31.45 -53.3 32.75 -82.55 33.65 -98.7 34.25 -130.1 31.85 -145.4 30.25 Q-150.45 29.75 -155.2 28.15 -164.6 24.9 -167.9 15.5 M-132.35 -15.9 L-133.5 -15.8 Q-134.1 -15.9 -134.55 -16.35 -135.1 -16.8 -134.95 -17.45 L-135.35 -17.25 -139.55 -15.1 -147.25 -10.4 Q-146.7 -12.05 -145.6 -13.45 -141.35 -18.8 -134.55 -20.6 L-130.6 -21.6 -130.05 -21.65 -125.85 -21.2 -121.65 -20.35 -121.45 -20.5 -121.45 -20.7 -121.4 -20.8 -121.45 -20.9 -123.95 -22.15 -107.85 -22.6 -107.0 -20.55 -121.3 -18.7 -124.5 -18.1 -127.8 -17.55 -128.8 -17.3 -131.45 -17.05 -133.6 -16.85 -133.05 -16.15 -132.35 -16.0 -132.35 -15.9 M-126.6 -18.85 Q-127.05 -19.2 -127.65 -19.2 L-132.3 -18.45 -130.05 -18.9 -126.55 -18.75 -126.6 -18.85" fill="#dbdce6" fill-rule="evenodd" stroke="none"/>
  </g>
</svg>
