<?xml version="1.0" encoding="UTF-8" standalone="no"?>
<svg xmlns:ffdec="https://www.free-decompiler.com/flash" xmlns:xlink="http://www.w3.org/1999/xlink" ffdec:objectType="shape" height="146.5px" width="144.25px" xmlns="http://www.w3.org/2000/svg">
  <g transform="matrix(1.0, 0.0, 0.0, 1.0, 72.15, 73.25)">
    <path d="M9.05 -54.25 L9.1 -55.95 6.4 -57.25 7.55 -58.1 -0.65 -58.8 0.8 -57.05 1.6 -55.9 1.65 -55.85 1.7 -55.75 1.95 -55.35 3.3 -52.25 2.2 -54.3 2.1 -54.5 0.5 -56.6 -1.6 -58.75 -1.9 -58.95 -10.3 -58.95 -7.55 -58.1 -7.2 -57.95 -4.5 -56.65 -4.15 -56.4 -2.75 -55.5 -4.0 -56.25 -5.6 -57.0 -6.15 -57.2 -10.8 -58.9 -10.85 -58.9 -13.2 -58.35 -13.6 -58.25 -15.8 -57.7 -16.3 -57.55 -19.7 -56.65 -24.05 -55.2 -28.8 -53.25 -21.95 -54.4 -18.2 -54.3 -15.1 -54.25 -18.3 -54.25 -20.05 -54.25 -22.5 -54.0 -24.95 -53.45 -29.15 -52.35 Q-34.2 -50.65 -38.2 -46.7 L-38.65 -46.2 -39.1 -45.7 -40.15 -44.65 -41.35 -43.4 -41.75 -43.0 -42.15 -42.55 -42.85 -41.85 -41.6 -42.85 Q-35.65 -47.25 -28.5 -49.1 L-27.6 -49.4 -23.05 -50.45 -22.95 -50.4 -13.95 -51.45 -3.25 -51.0 -12.05 -51.1 -20.95 -50.2 -26.1 -49.1 -28.95 -48.2 -31.9 -47.2 Q-35.1 -45.9 -38.05 -44.15 L-42.05 -41.25 -45.45 -38.0 -31.0 -37.3 Q-32.75 -36.7 -34.75 -36.45 L-36.25 -36.45 -39.65 -36.5 -46.55 -36.8 -61.8 -38.15 -67.45 -39.05 -68.05 -38.85 -68.85 -38.95 -69.4 -39.0 -69.5 -38.95 -69.6 -38.9 -69.7 -38.75 Q-70.1 -38.5 -70.0 -37.85 -69.5 -33.9 -68.25 -30.15 L-66.75 -26.1 -65.05 -22.2 -61.1 -14.45 Q-58.35 -9.2 -54.5 -4.7 L-53.8 -3.55 -44.65 -9.35 -42.95 -15.7 -48.9 -11.25 Q-47.15 -15.65 -44.2 -19.4 L-50.1 -18.3 -46.05 -21.35 -47.1 -21.55 -43.15 -24.8 Q-47.55 -28.05 -52.95 -29.7 -57.4 -31.15 -61.9 -32.95 L-62.2 -33.1 -65.15 -34.0 -65.2 -34.05 -65.15 -34.05 -64.95 -34.1 -64.75 -34.2 -64.25 -34.05 -64.0 -33.95 -63.9 -33.95 -63.05 -33.85 -58.1 -32.3 -49.1 -29.3 -42.55 -27.25 -40.6 -26.65 -42.0 -26.25 -42.4 -25.55 -42.0 -25.3 -45.8 -21.95 -44.6 -21.7 -48.85 -18.9 -48.75 -18.75 -46.6 -19.35 -44.15 -19.95 -43.45 -19.8 -48.15 -12.1 -42.85 -16.35 -43.75 -10.0 -40.8 -12.55 -35.1 -17.8 -30.7 -22.2 -23.2 -29.6 -22.0 -30.7 -25.1 -27.6 -29.35 -23.0 Q-32.65 -19.1 -36.45 -15.75 L-38.25 -14.05 Q-39.55 -12.85 -40.9 -11.75 L-45.4 -8.1 Q-48.95 -5.4 -53.2 -3.5 L-56.8 -1.95 -57.35 -1.75 -57.95 -1.45 -58.6 -1.2 -54.95 -1.5 -49.75 -2.55 Q-45.65 -3.65 -41.85 -5.95 L-41.65 -6.05 -41.45 -6.2 -32.9 -13.35 -31.3 -15.4 -31.2 -15.45 -30.1 -17.1 -28.5 -19.4 -26.1 -22.8 -25.4 -23.65 -25.0 -24.2 -23.8 -25.6 -23.55 -25.85 Q-20.6 -29.05 -17.35 -31.65 L-12.35 -35.55 -14.6 -33.45 -17.5 -30.65 -22.15 -25.8 Q-27.0 -20.65 -30.15 -14.45 L-33.65 -7.2 -28.6 -5.2 -27.6 -7.05 -27.6 -7.0 -24.35 -11.45 -18.45 -18.85 Q-13.4 -24.75 -7.85 -30.1 L-2.6 -35.2 -1.2 -36.55 -1.7 -36.0 -3.3 -34.35 -3.5 -34.15 -3.65 -34.0 -6.65 -30.8 -12.9 -24.05 -19.4 -16.15 -27.7 -4.8 -24.95 -3.55 -24.35 -3.25 -15.25 -14.9 -13.2 -17.45 -11.1 -19.95 -7.0 -24.85 Q-2.9 -29.65 0.65 -34.95 L3.05 -38.55 4.15 -40.25 3.2 -38.25 Q1.7 -35.4 -0.3 -32.75 L-2.05 -30.45 -4.15 -27.75 -8.35 -22.45 -18.3 -10.15 -23.8 -3.0 -20.55 -1.45 -18.9 -0.65 -9.1 -9.7 Q-5.1 -13.3 -1.65 -17.35 L0.35 -19.9 Q3.45 -24.1 5.6 -29.0 L9.25 -37.7 10.7 -41.15 9.8 -42.95 Q7.1 -46.55 3.45 -49.3 L-3.25 -53.55 Q1.85 -51.5 5.9 -47.75 L8.65 -45.0 Q10.25 -43.3 11.15 -41.3 15.05 -40.6 18.85 -39.2 24.35 -37.3 29.5 -34.35 L34.35 -31.3 Q36.2 -30.05 37.85 -28.5 40.6 -25.9 43.1 -22.9 45.1 -20.45 45.65 -17.6 L46.85 -19.55 46.85 -19.6 47.1 -20.8 47.6 -27.7 Q47.65 -29.35 46.5 -30.55 L46.1 -30.95 45.05 -31.65 41.05 -34.45 Q37.05 -37.1 32.45 -38.85 L27.8 -40.45 29.7 -40.05 31.5 -39.6 33.3 -38.95 37.7 -36.95 Q39.9 -35.75 42.15 -34.65 L42.8 -34.6 40.9 -39.1 40.6 -39.3 36.25 -41.75 Q34.5 -42.5 32.65 -42.7 L24.45 -44.0 26.8 -44.15 29.1 -44.15 31.4 -43.85 Q33.7 -43.45 35.8 -42.4 L39.9 -40.6 40.0 -40.55 39.95 -40.7 39.25 -41.95 38.95 -42.3 38.5 -42.6 38.5 -42.45 38.25 -42.0 37.75 -42.35 36.7 -43.15 35.6 -44.0 33.95 -44.9 Q30.85 -46.25 27.2 -46.0 L18.35 -45.4 Q22.3 -46.4 26.4 -46.4 L31.4 -46.25 30.2 -47.5 28.5 -48.65 26.4 -49.7 28.0 -49.3 25.6 -51.25 27.65 -53.15 Q26.05 -54.15 24.1 -54.1 L23.4 -54.0 23.05 -53.95 23.15 -54.85 24.5 -56.5 21.0 -54.75 26.25 -67.55 27.0 -69.45 26.85 -69.05 21.8 -55.9 25.4 -56.95 23.3 -54.4 25.1 -54.45 26.7 -53.9 27.8 -53.4 27.95 -53.35 26.0 -51.45 32.0 -46.5 Q33.65 -45.25 35.55 -44.3 L36.7 -43.75 36.95 -44.25 35.45 -49.25 Q32.5 -58.8 29.0 -68.0 L27.75 -71.7 27.35 -71.9 17.0 -64.45 8.8 -57.15 9.4 -56.9 Q9.65 -56.7 9.95 -56.6 L11.25 -56.45 Q16.35 -55.4 20.85 -53.0 L22.0 -52.4 19.35 -53.35 17.6 -52.75 12.9 -49.95 11.9 -49.1 11.0 -48.35 12.0 -49.45 Q13.5 -50.95 15.3 -52.1 L18.1 -53.7 16.7 -54.25 10.6 -55.85 9.55 -55.75 9.35 -53.75 9.35 -53.7 9.0 -50.25 9.0 -50.2 8.95 -50.1 9.05 -54.25 M-58.6 -1.2 L-58.65 -1.2 -58.6 -1.2 M5.1 56.85 L5.05 56.85 3.75 56.85 0.1 56.8 Q-4.75 56.45 -9.1 54.4 L-2.55 64.45 -6.7 63.05 Q-8.15 62.6 -9.35 61.8 L-11.3 60.45 -13.4 58.35 -17.0 54.45 -17.0 54.75 -17.0 61.4 -17.5 68.25 -17.85 69.8 -18.35 71.3 -22.95 52.6 -23.1 54.75 -23.7 61.45 -23.95 62.6 -25.4 67.35 -26.3 70.0 Q-27.0 71.9 -28.3 73.25 L-28.3 72.6 -28.2 65.6 Q-28.3 60.7 -29.0 55.8 L-30.0 58.85 -31.35 61.6 -32.75 63.65 -35.55 66.55 -38.5 68.7 Q-41.5 70.45 -44.6 72.0 L-39.6 62.25 -40.6 62.75 -43.3 63.9 Q-46.6 65.05 -50.15 64.95 L-48.55 63.8 -46.5 62.35 Q-44.3 60.75 -42.45 58.45 L-44.45 59.1 -48.6 60.0 -50.8 59.6 -55.35 58.5 -60.75 56.25 -59.9 56.55 -60.2 56.3 -60.1 56.3 Q-55.2 57.65 -51.05 54.4 L-49.25 52.8 -48.45 51.9 -47.2 49.95 -46.2 47.75 Q-45.2 45.25 -45.25 42.55 -45.3 40.9 -45.6 39.3 -46.6 34.25 -47.9 29.35 -49.15 24.5 -51.1 19.85 L-53.65 13.3 -55.2 8.0 -56.85 0.35 -57.15 -0.55 -61.3 -0.8 -57.0 -2.4 -56.9 -3.45 Q-56.85 -4.2 -57.25 -4.8 L-62.2 -12.6 -65.45 -18.35 -68.3 -24.45 -70.1 -29.55 Q-71.5 -34.4 -72.15 -39.65 L-70.9 -39.9 -68.4 -40.0 -62.75 -39.15 -46.7 -38.05 -46.2 -38.8 -41.6 -44.3 -36.45 -49.25 Q-33.1 -52.15 -29.2 -54.4 -25.55 -56.45 -21.55 -57.6 L-14.85 -58.9 -7.8 -59.9 -0.65 -60.0 Q3.95 -59.95 8.25 -58.65 L27.55 -73.25 28.15 -72.35 29.3 -70.25 33.75 -59.05 Q35.4 -54.7 36.65 -50.1 37.6 -46.65 38.9 -43.3 39.3 -42.25 40.0 -41.25 41.2 -39.6 42.05 -37.75 42.95 -35.85 44.1 -34.2 45.85 -31.6 48.1 -29.3 48.5 -22.8 46.8 -16.45 L46.25 -13.95 Q46.05 -12.8 46.2 -11.65 47.0 -5.2 48.4 1.2 L49.15 5.1 Q49.95 9.45 52.45 13.1 L55.45 17.0 Q57.8 19.85 60.65 22.1 L63.15 23.85 Q64.9 24.8 66.8 25.6 69.35 26.65 72.1 26.4 L67.9 28.2 66.35 28.85 61.4 29.55 59.2 29.15 Q56.45 28.65 54.0 26.8 L54.05 27.45 55.45 30.55 Q58.4 36.3 61.8 41.65 L59.65 40.8 Q58.1 40.25 56.7 39.4 L55.15 38.35 Q53.45 36.75 52.35 34.9 L55.35 47.0 48.95 36.35 48.6 37.35 47.45 40.3 Q45.25 45.15 41.8 49.2 L43.95 38.9 43.15 41.0 Q41.65 45.1 39.25 48.8 L39.7 46.15 40.15 42.4 40.45 36.35 35.85 43.0 33.25 46.45 Q31.65 48.65 29.5 50.4 L24.95 51.05 21.15 51.05 15.6 50.5 5.8 48.85 -3.9 46.75 -10.0 45.05 -3.35 50.45 -3.8 50.25 1.35 52.8 7.5 55.25 9.5 56.0 8.5 56.6 8.05 56.7 5.1 56.85 M14.3 -46.75 L16.15 -47.75 Q20.15 -49.0 24.45 -49.0 L27.3 -48.5 22.35 -48.5 Q18.5 -48.1 14.75 -46.8 L13.15 -46.2 14.3 -46.75 M27.45 50.0 L27.55 50.0 27.75 49.9 27.95 49.8 28.8 49.45 28.85 49.4 31.9 47.2 34.4 44.35 Q38.2 39.35 41.35 33.75 43.8 29.4 45.9 24.6 47.3 21.35 47.75 17.8 L48.2 11.5 Q48.25 8.0 47.9 4.55 L46.8 -4.4 45.75 -11.6 44.1 -19.0 Q43.6 -20.75 42.6 -22.2 41.4 -24.05 39.85 -25.6 L35.85 -29.0 Q32.85 -31.2 29.7 -33.0 25.65 -35.4 21.5 -37.4 L15.45 -39.8 12.4 -40.65 11.35 -40.7 6.5 -29.8 4.2 -25.3 0.6 -19.6 -1.85 -16.4 -3.65 -14.4 -5.3 -12.7 -9.2 -8.85 -12.45 -5.6 -17.35 -0.3 -17.7 0.55 -20.4 3.45 -21.2 3.45 -22.45 4.8 -22.3 5.75 -26.95 11.4 -26.4 13.7 -25.85 16.05 Q-24.6 21.0 -22.95 25.85 -22.05 28.5 -20.65 31.0 L-18.2 35.1 -16.9 36.85 -12.15 41.7 -9.95 43.3 -6.9 44.85 1.2 47.1 3.3 47.6 10.4 49.15 19.6 50.45 21.65 50.65 26.1 50.4 27.45 50.0 M-4.35 -47.6 L-7.5 -47.25 -16.1 -46.05 -24.2 -44.2 -24.3 -44.15 -22.75 -44.65 -14.65 -46.45 -6.2 -47.85 -3.45 -47.85 -1.7 -47.85 -4.35 -47.6 M49.3 15.75 Q48.65 20.8 46.65 25.45 45.9 27.1 45.45 28.85 44.95 30.7 44.85 32.65 L44.7 37.3 Q44.55 42.2 42.85 47.0 46.8 41.9 47.8 35.45 48.45 31.1 47.95 26.7 48.75 32.4 50.75 37.85 51.65 40.35 53.0 42.6 L54.45 44.8 49.65 27.5 Q51.4 32.6 55.15 36.45 L56.65 37.95 59.2 39.7 60.7 40.3 Q57.15 35.3 54.65 29.85 L52.6 25.75 51.35 23.45 51.25 23.3 51.0 22.75 50.4 21.4 Q53.0 26.2 58.1 27.9 63.6 29.75 68.8 27.45 L69.0 27.3 68.95 27.3 68.4 27.05 67.25 26.6 62.25 24.25 Q57.95 21.7 54.95 17.65 L52.25 13.8 49.8 9.85 Q49.75 12.8 49.3 15.75 M41.5 43.4 L43.4 38.35 Q44.5 34.65 44.0 30.65 L39.95 46.85 41.5 43.4 M28.6 27.45 L28.55 27.45 28.35 27.45 26.65 27.4 Q27.05 25.95 28.35 25.35 L29.4 24.65 Q30.9 23.55 31.25 21.9 L31.3 21.0 29.35 19.6 29.2 19.5 27.85 18.0 30.55 19.95 31.8 20.7 31.85 20.75 Q31.75 22.7 30.9 24.4 L30.1 25.65 28.6 27.45 M7.75 56.15 L6.3 55.4 4.25 54.7 2.55 54.05 -0.7 52.55 -2.2 51.65 Q-6.9 48.9 -10.8 44.85 L-14.1 41.25 -16.95 37.85 Q-20.4 33.7 -22.7 28.7 -24.9 23.85 -26.15 18.55 L-27.65 12.25 -33.1 24.5 -31.55 27.6 -31.0 28.75 -27.15 37.5 -25.35 42.3 -24.95 43.6 -24.55 44.9 -24.2 45.75 -22.75 50.2 -18.35 68.15 -18.1 65.9 -17.75 61.25 -17.85 56.7 Q-18.15 51.25 -19.65 45.85 -22.65 35.1 -27.1 24.85 L-28.3 22.1 Q-25.3 27.7 -22.95 33.55 L-20.35 40.55 Q-18.95 44.55 -17.85 48.7 -16.9 52.15 -15.05 55.1 L-14.95 55.2 -12.55 58.15 -11.9 58.85 -10.7 59.85 -9.2 60.85 Q-7.15 62.05 -4.95 63.1 L-7.9 58.1 Q-12.05 50.65 -15.85 43.05 L-17.7 39.25 -10.35 52.5 -6.8 54.05 -3.25 55.45 Q-0.1 56.65 3.25 56.65 L3.75 56.65 7.75 56.15 M-10.2 -56.15 L-5.3 -54.5 -18.25 -56.9 -14.2 -56.85 -12.75 -56.6 -10.45 -56.2 -10.2 -56.15 M-49.95 -1.85 L-52.1 -1.4 -53.65 -1.2 -53.8 -1.15 -54.6 -1.05 Q-53.9 6.35 -51.5 13.25 L-50.7 13.55 -50.8 9.05 -50.8 8.35 -50.8 8.15 -50.8 7.65 Q-50.95 2.75 -49.4 -1.8 L-50.05 1.75 -50.25 3.05 -50.55 6.45 -50.35 9.8 -49.15 16.35 -47.2 24.5 -44.75 34.85 Q-43.75 39.7 -44.8 44.65 -45.35 47.1 -46.25 49.4 -46.7 50.65 -47.5 51.7 L-50.3 54.75 Q-51.1 55.55 -52.1 56.15 L-52.2 56.25 -52.35 56.3 -52.5 56.4 -54.0 57.05 -54.5 57.25 -56.35 57.55 -56.65 57.55 -56.4 57.65 -55.5 57.95 Q-50.95 59.6 -46.3 58.85 -43.75 58.35 -41.75 57.05 L-37.25 54.1 Q-36.55 49.85 -36.8 45.6 L-37.45 38.6 -36.3 44.3 -36.2 44.85 Q-35.9 46.75 -35.95 48.75 L-36.4 53.4 Q-37.05 57.7 -38.55 61.75 L-38.8 62.45 -41.45 68.15 -42.2 69.45 -42.15 69.45 -42.95 70.65 -38.4 67.55 Q-33.95 64.45 -31.25 59.85 -29.8 57.4 -29.65 54.65 -29.4 48.95 -30.75 43.5 L-30.65 43.75 -30.4 44.5 -30.0 45.8 -29.6 47.2 -28.7 51.2 -28.65 51.55 -28.6 51.95 Q-27.85 56.8 -27.6 61.8 L-27.4 69.7 -27.45 71.3 -26.15 67.5 Q-24.1 61.25 -23.65 54.55 -23.35 50.65 -24.55 46.85 -28.1 35.85 -33.4 25.6 L-33.65 32.8 -34.25 30.25 -34.9 25.15 Q-35.0 23.1 -35.9 21.15 L-38.0 16.5 -38.65 14.05 Q-39.55 4.35 -35.9 -4.65 L-36.65 -5.7 -36.5 -7.2 -34.7 -7.75 -32.55 -12.55 Q-35.9 -9.2 -39.95 -6.55 -44.2 -3.75 -49.0 -2.1 L-49.3 -2.0 -49.95 -1.85 M-5.65 -42.95 L-13.0 -40.65 Q-17.7 -39.05 -22.2 -36.95 -26.2 -35.1 -30.05 -32.9 L-32.75 -31.15 -29.25 -33.8 -25.55 -36.0 -17.55 -39.9 Q-12.95 -42.15 -7.8 -42.8 L-5.65 -42.95 M-32.55 -40.8 L-36.35 -38.7 -34.4 -39.9 -31.55 -41.3 -32.55 -40.8 M-21.0 -0.65 L-26.8 -3.55 -34.55 -7.0 Q-35.2 -7.35 -35.75 -6.75 L-32.1 -1.0 -29.05 3.0 -26.35 6.05 -26.05 6.3 -26.05 6.35 -25.25 7.15 -24.65 7.15 -23.15 5.6 -23.75 5.05 -24.65 4.15 -25.35 3.45 -26.55 2.3 -29.15 -0.55 -29.45 -1.0 -29.4 -1.6 -28.5 -2.15 -22.4 1.05 -20.7 1.9 -19.85 1.9 -18.65 0.55 -20.55 -0.45 -21.0 -0.65 M-44.1 10.65 L-41.4 24.2 -41.4 24.25 -39.25 31.5 -40.3 28.7 Q-42.1 24.05 -43.45 19.2 -44.85 14.0 -44.75 8.35 L-44.45 -1.1 -44.5 4.6 -44.1 10.6 -44.1 10.65 M-21.65 2.65 L-25.9 0.4 -26.45 1.7 -23.1 4.65 -21.65 2.65 M-26.2 0.55 L-26.1 0.45 -28.3 -0.8 -26.8 1.4 -26.2 0.55 M-26.5 6.6 L-27.85 5.2 -28.35 5.1 Q-31.75 10.05 -33.2 16.05 -34.2 20.3 -34.35 24.65 L-34.35 26.95 -34.15 26.2 -33.95 25.6 Q-32.45 19.85 -29.8 14.6 -28.0 11.05 -25.3 7.85 L-26.5 6.6 M-38.05 13.4 L-37.95 14.5 -37.9 14.9 Q-37.35 17.8 -35.8 20.3 L-34.85 22.0 Q-33.65 13.7 -29.75 6.35 L-28.65 4.4 -31.3 1.6 Q-33.4 6.2 -34.8 11.05 -35.55 13.5 -35.6 16.3 L-35.65 18.65 -35.65 18.75 -35.6 19.0 Q-35.6 19.6 -35.7 19.3 L-36.15 16.85 -36.2 16.25 -36.05 15.0 -35.3 10.7 -31.8 1.0 -35.1 -3.4 -37.45 7.1 -38.05 11.7 -38.05 13.4 M-31.9 39.95 L-31.95 39.85 -33.35 36.3 Q-37.7 25.8 -39.45 14.65 L-39.55 13.2 -37.1 23.6 -35.0 30.3 -34.85 30.75 -33.8 33.9 -33.7 34.3 -33.5 34.85 -33.4 35.2 -33.25 35.65 -32.85 36.9 -32.65 37.5 -32.45 38.15 -32.0 39.45 -31.75 40.25 -31.9 39.95 M-41.7 58.35 L-43.05 59.75 -47.45 63.65 -48.2 64.3 -45.15 63.65 Q-41.95 62.75 -39.3 60.7 L-39.05 60.5 -37.55 55.55 -41.7 58.35" fill="#000000" fill-rule="evenodd" stroke="none"/>
    <path d="M0.8 -57.05 L-0.65 -58.8 7.55 -58.1 6.4 -57.25 9.1 -55.95 9.05 -54.25 7.75 -50.7 6.55 -55.6 Q5.5 -55.0 5.45 -53.0 L5.35 -51.75 0.8 -57.05 M9.35 -53.7 L9.35 -53.75 9.55 -55.75 10.6 -55.85 16.7 -54.25 18.1 -53.7 15.3 -52.1 Q13.5 -50.95 12.0 -49.45 L13.05 -53.05 9.55 -50.7 9.35 -53.7 M11.9 -49.1 L12.9 -49.95 17.6 -52.75 19.35 -53.35 22.0 -52.4 20.85 -53.0 Q16.35 -55.4 11.25 -56.45 L9.95 -56.6 Q9.65 -56.7 9.4 -56.9 L8.8 -57.15 17.0 -64.45 27.35 -71.9 27.75 -71.7 29.0 -68.0 Q32.5 -58.8 35.45 -49.25 L36.95 -44.25 33.2 -47.05 31.05 -49.25 31.9 -50.25 29.2 -52.0 30.4 -53.4 Q30.55 -54.05 29.9 -54.45 L28.7 -55.1 27.7 -55.55 28.95 -57.15 26.85 -57.55 27.8 -60.1 25.75 -59.6 26.85 -69.05 27.0 -69.45 26.85 -69.05 26.8 -69.05 26.5 -68.5 26.45 -68.05 26.25 -67.55 21.0 -54.75 24.5 -56.5 23.15 -54.85 23.05 -53.95 23.4 -54.0 24.1 -54.1 Q26.05 -54.15 27.65 -53.15 L25.6 -51.25 28.0 -49.3 26.4 -49.7 28.5 -48.65 30.2 -47.5 31.4 -46.25 26.4 -46.4 Q22.3 -46.4 18.35 -45.4 L27.2 -46.0 Q30.85 -46.25 33.95 -44.9 L35.6 -44.0 36.7 -43.15 37.75 -42.35 38.25 -42.0 38.5 -42.45 38.5 -42.6 38.95 -42.3 39.25 -41.95 39.95 -40.7 39.9 -40.6 35.8 -42.4 Q33.7 -43.45 31.4 -43.85 L29.1 -44.15 26.8 -44.15 24.45 -44.0 32.65 -42.7 Q34.5 -42.5 36.25 -41.75 L40.6 -39.3 40.9 -39.1 42.8 -34.6 42.15 -34.65 Q39.9 -35.75 37.7 -36.95 L33.3 -38.95 31.5 -39.6 29.7 -40.05 27.8 -40.45 32.45 -38.85 Q37.05 -37.1 41.05 -34.45 L45.05 -31.65 46.1 -30.95 46.5 -30.55 Q47.65 -29.35 47.6 -27.7 L47.1 -20.8 Q47.0 -22.75 45.75 -24.3 44.2 -26.3 42.25 -27.95 38.1 -31.55 33.35 -34.1 29.0 -36.35 24.2 -38.4 L15.0 -41.95 20.3 -42.05 15.0 -44.2 19.15 -45.8 19.5 -46.45 14.75 -46.8 Q18.5 -48.1 22.35 -48.5 L27.3 -48.5 24.45 -49.0 Q20.15 -49.0 16.15 -47.75 L14.3 -46.75 12.7 -46.65 15.6 -50.15 11.9 -49.1 M46.85 -19.6 L46.85 -19.55 46.8 -19.6 46.85 -19.6 M-20.55 -1.45 L-23.8 -3.0 -18.3 -10.15 -8.35 -22.45 -4.15 -27.75 -2.05 -30.45 -0.3 -32.75 Q1.7 -35.4 3.2 -38.25 L7.45 -42.65 6.95 -38.05 9.75 -40.5 Q3.85 -27.1 -5.95 -16.2 -12.85 -8.6 -20.55 -1.45 M3.05 -38.55 L0.65 -34.95 Q-2.9 -29.65 -7.0 -24.85 L-11.1 -19.95 -13.2 -17.45 -15.25 -14.9 -24.35 -3.25 -24.95 -3.55 Q-23.65 -6.75 -21.4 -9.5 -17.75 -14.1 -14.35 -18.95 L-7.3 -28.45 -4.8 -31.6 -0.85 -36.85 -1.7 -36.0 -1.2 -36.55 -2.6 -35.2 -7.85 -30.1 Q-13.4 -24.75 -18.45 -18.85 L-24.35 -11.45 -27.6 -7.0 -27.6 -7.05 -28.6 -5.2 -33.65 -7.2 -30.15 -14.45 Q-27.0 -20.65 -22.15 -25.8 L-17.5 -30.65 -14.6 -33.45 -12.35 -35.55 -17.35 -31.65 Q-20.6 -29.05 -23.55 -25.85 L-23.8 -25.6 -25.0 -24.2 -25.4 -23.65 -27.0 -21.9 -27.85 -21.0 Q-27.95 -20.5 -28.4 -20.2 L-28.4 -20.05 -28.4 -20.0 -28.45 -19.9 -30.9 -16.95 -31.0 -16.85 -32.3 -15.3 -34.45 -13.4 -36.15 -11.75 -38.3 -10.05 -42.35 -7.4 -42.95 -7.0 Q-44.55 -5.9 -46.35 -5.1 -50.45 -3.15 -54.85 -2.3 L-55.9 -2.0 -57.2 -1.75 -57.35 -1.75 -56.8 -1.95 -53.2 -3.5 Q-48.95 -5.4 -45.4 -8.1 L-40.9 -11.75 Q-39.55 -12.85 -38.25 -14.05 L-36.45 -15.75 Q-32.65 -19.1 -29.35 -23.0 L-25.1 -27.6 -22.0 -30.7 -23.2 -29.6 -30.7 -22.2 -35.1 -17.8 -40.8 -12.55 -43.75 -10.0 -42.85 -16.35 -48.15 -12.1 -43.45 -19.8 -44.15 -19.95 -46.6 -19.35 -48.75 -18.75 -48.85 -18.9 -44.6 -21.7 -45.8 -21.95 -42.0 -25.3 -42.4 -25.55 -42.0 -26.25 -40.6 -26.65 -42.55 -27.25 -49.1 -29.3 -58.1 -32.3 -63.05 -33.85 -63.9 -33.95 -64.0 -33.95 -64.25 -34.05 -64.75 -34.2 -64.95 -34.1 -65.1 -34.15 -65.15 -34.05 -65.2 -34.05 -65.15 -34.0 -65.2 -33.95 -64.55 -33.2 Q-60.15 -30.95 -56.05 -28.05 L-52.4 -25.15 -56.4 -24.9 -56.35 -24.35 -52.15 -22.3 -55.7 -20.1 -55.85 -19.4 -52.15 -19.3 -56.1 -13.4 Q-56.0 -12.85 -55.35 -13.2 L-50.95 -14.75 -53.8 -11.15 -53.4 -10.75 -51.65 -11.75 -52.2 -8.8 -50.35 -8.9 -54.5 -4.7 Q-58.35 -9.2 -61.1 -14.45 L-65.05 -22.2 -66.75 -26.1 -68.25 -30.15 Q-69.5 -33.9 -70.0 -37.85 -70.1 -38.5 -69.7 -38.75 L-69.6 -38.9 -69.5 -38.95 -69.4 -39.0 -68.85 -38.95 -68.05 -38.85 -67.45 -39.05 -61.8 -38.15 -46.55 -36.8 -39.65 -36.5 -36.25 -36.45 -34.75 -36.45 Q-32.75 -36.7 -31.0 -37.3 L-45.45 -38.0 -42.05 -41.25 -38.05 -44.15 Q-35.1 -45.9 -31.9 -47.2 L-28.95 -48.2 -26.1 -49.1 -20.95 -50.2 -12.05 -51.1 -8.9 -50.1 -13.5 -48.95 -2.2 -48.1 -3.45 -47.85 -6.2 -47.85 -14.65 -46.45 -22.75 -44.65 -24.3 -44.15 -24.2 -44.2 -16.1 -46.05 -7.5 -47.25 -4.35 -47.6 -9.0 -46.6 1.15 -46.1 -5.8 -43.25 2.8 -43.35 -4.1 -37.6 -3.75 -37.25 Q0.7 -39.1 4.65 -42.05 L3.05 -38.55 M-3.65 -34.0 L-3.5 -34.15 -3.3 -34.35 -3.65 -34.0 M-58.6 -1.2 L-58.65 -1.2 -58.6 -1.2 M-13.95 -51.45 L-22.95 -50.4 -23.05 -50.45 -27.6 -49.4 -28.5 -49.1 Q-35.65 -47.25 -41.6 -42.85 L-41.75 -43.0 -41.35 -43.4 -40.15 -44.65 -39.1 -45.7 -38.65 -46.2 -38.2 -46.7 Q-34.2 -50.65 -29.15 -52.35 L-24.95 -53.45 -22.5 -54.0 -20.05 -54.25 -18.3 -54.25 Q-18.6 -54.05 -18.3 -54.0 L-14.45 -53.2 -13.6 -53.0 Q-14.05 -52.55 -13.95 -51.45 M-18.2 -54.3 L-21.95 -54.4 -28.8 -53.25 -24.05 -55.2 -19.7 -56.65 -13.6 -54.65 -18.2 -54.3 M-16.3 -57.55 L-15.8 -57.7 -13.6 -58.25 -13.2 -58.35 -10.45 -56.7 -16.3 -57.55 M-6.15 -57.2 L-5.6 -57.0 -4.0 -56.25 -3.75 -55.9 -6.15 -57.2 M-4.15 -56.4 L-4.5 -56.65 -7.2 -57.95 -7.55 -58.1 -10.3 -58.95 -1.9 -58.95 -1.6 -58.75 0.5 -56.6 1.6 -53.55 Q-1.3 -56.4 -4.9 -58.3 L-5.1 -58.2 -5.15 -58.15 -4.15 -56.4 M68.4 27.05 Q62.9 28.05 57.85 25.35 52.65 22.55 50.0 17.2 L49.3 15.75 Q49.75 12.8 49.8 9.85 L52.25 13.8 54.95 17.65 Q57.95 21.7 62.25 24.25 L67.25 26.6 68.4 27.05 M56.65 37.95 Q53.25 33.15 51.45 27.45 50.6 24.85 50.3 22.2 L51.0 22.75 51.25 23.3 51.35 23.45 52.6 25.75 54.65 29.85 Q57.15 35.3 60.7 40.3 L59.2 39.7 56.65 37.95 M68.8 27.45 L68.95 27.3 69.0 27.3 68.8 27.45 M-16.95 37.85 L-14.1 41.25 -10.8 44.85 Q-6.9 48.9 -2.2 51.65 L-0.7 52.55 2.55 54.05 4.25 54.7 6.3 55.4 7.75 56.15 Q1.65 56.35 -3.4 53.3 L-7.7 50.2 Q-11.6 47.0 -14.1 42.75 L-16.95 37.85 M-15.85 43.05 Q-12.05 50.65 -7.9 58.1 L-4.95 63.1 Q-7.15 62.05 -9.2 60.85 L-10.7 59.85 -11.9 58.85 -12.55 58.15 Q-14.9 53.9 -15.7 48.95 -16.15 46.05 -17.0 43.25 L-17.9 39.45 -15.85 43.05 M-27.1 24.85 Q-22.65 35.1 -19.65 45.85 -18.15 51.25 -17.85 56.7 L-17.75 61.25 -18.1 65.9 -18.35 68.15 -22.75 50.2 -24.2 45.75 -24.55 44.9 -24.95 43.6 -25.35 42.3 -27.15 37.5 -31.0 28.75 -31.55 27.6 -28.55 21.7 -27.1 24.85 M-53.65 -1.2 L-52.1 -1.4 -49.95 -1.85 -50.45 -0.7 Q-51.65 2.95 -51.85 6.85 L-53.65 -1.2 M-27.4 69.7 L-27.6 61.8 Q-27.85 56.8 -28.6 51.95 L-28.65 51.55 -28.7 51.2 -29.6 47.2 -30.0 45.8 -30.4 44.5 -30.5 44.15 -31.9 39.95 -31.75 40.25 -32.0 39.45 -32.25 38.5 -32.45 38.15 -32.65 37.5 -32.85 36.9 -33.9 32.85 -33.8 33.9 -34.85 30.75 -35.0 30.3 -32.4 35.6 -30.6 39.4 Q-28.1 44.45 -26.9 49.8 -25.8 54.55 -25.9 59.35 -26.0 64.7 -27.4 69.7 M-42.15 69.45 L-42.2 69.45 -41.45 68.15 -38.8 62.45 -38.55 61.75 Q-37.05 57.7 -36.4 53.4 L-35.95 48.75 Q-35.9 46.75 -36.2 44.85 L-36.3 44.3 -36.3 44.1 Q-36.9 36.7 -39.7 29.75 L-38.45 32.1 Q-36.15 36.85 -34.3 42.1 -32.8 46.45 -32.85 51.1 -32.95 56.15 -35.15 60.75 -37.65 65.9 -42.15 69.45 M-56.4 57.65 L-56.65 57.55 -56.35 57.55 -56.4 57.55 -56.4 57.65 M-54.5 57.25 L-54.0 57.05 -52.5 56.4 -52.35 56.3 -52.2 56.25 -52.1 56.15 Q-51.1 55.55 -50.3 54.75 L-47.5 51.7 Q-46.7 50.65 -46.25 49.4 -45.35 47.1 -44.8 44.65 -43.75 39.7 -44.75 34.85 L-47.2 24.5 -49.15 16.35 -50.35 9.8 -50.55 6.45 -50.25 3.05 -50.05 1.75 -49.15 -1.45 -44.3 -2.95 -44.8 -0.5 -45.25 1.7 Q-46.15 7.45 -45.45 13.4 L-44.35 22.55 Q-43.7 27.6 -42.65 32.35 -41.5 37.75 -41.7 43.1 -41.85 48.25 -44.15 52.9 -45.2 54.95 -47.2 55.85 -50.65 57.5 -54.5 57.25 M-5.65 -42.95 L-7.8 -42.8 Q-12.95 -42.15 -17.55 -39.9 L-25.55 -36.0 -29.25 -33.8 -32.75 -31.15 -30.05 -32.9 Q-26.2 -35.1 -22.2 -36.95 -17.7 -39.05 -13.0 -40.65 L-5.65 -42.95 M-32.55 -40.8 L-31.55 -41.3 -34.4 -39.9 -36.35 -38.7 -32.55 -40.8 M-44.5 4.6 L-43.3 -3.25 -38.25 -5.1 Q-42.45 8.15 -39.65 21.95 L-39.3 23.65 Q-42.55 17.3 -44.1 10.65 L-44.1 10.6 -44.5 4.6 M-40.3 28.7 L-40.35 28.7 -40.3 28.7 M-34.35 24.65 Q-34.2 20.3 -33.2 16.05 -31.75 10.05 -28.35 5.1 L-27.85 5.2 -26.5 6.6 Q-29.8 11.35 -31.9 16.6 -33.45 20.55 -34.35 24.65 M-36.15 16.85 L-38.05 13.4 -38.05 11.7 -37.45 7.1 -35.1 -3.4 -31.8 1.0 -35.3 10.7 -36.05 15.0 -36.2 16.25 -36.15 16.85 M-33.4 35.2 L-33.5 34.85 -33.7 34.3 -33.65 34.4 Q-33.45 34.75 -33.4 35.15 L-33.4 35.2 M-37.1 23.6 L-37.1 23.55 -37.1 23.6" fill="#ffffff" fill-rule="evenodd" stroke="none"/>
    <path d="M9.05 -54.25 L8.95 -50.1 9.0 -50.2 9.0 -50.25 9.35 -53.7 9.55 -50.7 13.05 -53.05 12.0 -49.45 11.0 -48.35 11.9 -49.1 15.6 -50.15 12.7 -46.65 14.3 -46.75 13.15 -46.2 14.75 -46.8 19.5 -46.45 19.15 -45.8 15.0 -44.2 20.3 -42.05 15.0 -41.95 24.2 -38.4 Q29.0 -36.35 33.35 -34.1 38.1 -31.55 42.25 -27.95 44.2 -26.3 45.75 -24.3 47.0 -22.75 47.1 -20.8 L46.85 -19.6 46.8 -19.6 46.85 -19.55 45.65 -17.6 Q45.1 -20.45 43.1 -22.9 40.6 -25.9 37.85 -28.5 36.2 -30.05 34.35 -31.3 L29.5 -34.35 Q24.35 -37.3 18.85 -39.2 15.05 -40.6 11.15 -41.3 10.25 -43.3 8.65 -45.0 L5.9 -47.75 Q1.85 -51.5 -3.25 -53.55 L3.45 -49.3 Q7.1 -46.55 9.8 -42.95 L10.7 -41.15 9.25 -37.7 5.6 -29.0 Q3.45 -24.1 0.35 -19.9 L-1.65 -17.35 Q-5.1 -13.3 -9.1 -9.7 L-18.9 -0.65 -20.55 -1.45 Q-12.85 -8.6 -5.95 -16.2 3.85 -27.1 9.75 -40.5 L6.95 -38.05 7.45 -42.65 3.2 -38.25 4.15 -40.25 3.05 -38.55 4.65 -42.05 Q0.7 -39.1 -3.75 -37.25 L-4.1 -37.6 2.8 -43.35 -5.8 -43.25 1.15 -46.1 -9.0 -46.6 -4.35 -47.6 -1.7 -47.85 -3.45 -47.85 -2.2 -48.1 -13.5 -48.95 -8.9 -50.1 -12.05 -51.1 -3.25 -51.0 -13.95 -51.45 Q-14.05 -52.55 -13.6 -53.0 L-14.45 -53.2 -18.3 -54.0 Q-18.6 -54.05 -18.3 -54.25 L-15.1 -54.25 -18.2 -54.3 -13.6 -54.65 -19.7 -56.65 -16.3 -57.55 -10.45 -56.7 -13.2 -58.35 -10.85 -58.9 -10.8 -58.9 -6.15 -57.2 -3.75 -55.9 -4.0 -56.25 -2.75 -55.5 -4.15 -56.4 -5.15 -58.15 -5.1 -58.2 -4.9 -58.3 Q-1.3 -56.4 1.6 -53.55 L0.5 -56.6 2.1 -54.5 2.2 -54.3 3.3 -52.25 1.95 -55.35 1.7 -55.75 1.65 -55.85 1.6 -55.9 0.8 -57.05 5.35 -51.75 5.45 -53.0 Q5.5 -55.0 6.55 -55.6 L7.75 -50.7 9.05 -54.25 M36.95 -44.25 L36.7 -43.75 35.55 -44.3 Q33.65 -45.25 32.0 -46.5 L26.0 -51.45 27.95 -53.35 27.8 -53.4 26.7 -53.9 25.1 -54.45 23.3 -54.4 25.4 -56.95 21.8 -55.9 26.85 -69.05 26.45 -68.05 26.5 -68.5 26.8 -69.05 26.85 -69.05 25.75 -59.6 27.8 -60.1 26.85 -57.55 28.95 -57.15 27.7 -55.55 28.7 -55.1 29.9 -54.45 Q30.55 -54.05 30.4 -53.4 L29.2 -52.0 31.9 -50.25 31.05 -49.25 33.2 -47.05 36.95 -44.25 M-24.95 -3.55 L-27.7 -4.8 -19.4 -16.15 -12.9 -24.05 -6.65 -30.8 -3.65 -34.0 -3.3 -34.35 -1.7 -36.0 -0.85 -36.85 -4.8 -31.6 -7.3 -28.45 -14.35 -18.95 Q-17.75 -14.1 -21.4 -9.5 -23.65 -6.75 -24.95 -3.55 M-25.4 -23.65 L-26.1 -22.8 -28.5 -19.4 -30.1 -17.1 -31.2 -15.45 -31.3 -15.4 -32.9 -13.35 -41.45 -6.2 -41.65 -6.05 -41.85 -5.95 Q-45.65 -3.65 -49.75 -2.55 L-54.95 -1.5 -58.6 -1.2 -57.95 -1.45 -57.35 -1.75 -57.2 -1.75 -55.9 -2.0 -54.85 -2.3 Q-50.45 -3.15 -46.35 -5.1 -44.55 -5.9 -42.95 -7.0 L-42.35 -7.4 -38.3 -10.05 -36.15 -11.75 -34.45 -13.4 -32.3 -15.3 -31.0 -16.85 -30.9 -16.95 -28.45 -19.9 -28.4 -20.0 -28.4 -20.05 -28.4 -20.2 Q-27.95 -20.5 -27.85 -21.0 L-27.0 -21.9 -25.4 -23.65 M-64.95 -34.1 L-65.15 -34.05 -65.1 -34.15 -64.95 -34.1 M-65.15 -34.0 L-62.2 -33.1 -61.9 -32.95 Q-57.4 -31.15 -52.95 -29.7 -47.55 -28.05 -43.15 -24.8 L-47.1 -21.55 -46.05 -21.35 -50.1 -18.3 -44.2 -19.4 Q-47.15 -15.65 -48.9 -11.25 L-42.95 -15.7 -44.65 -9.35 -53.8 -3.55 -54.5 -4.7 -50.35 -8.9 -52.2 -8.8 -51.65 -11.75 -53.4 -10.75 -53.8 -11.15 -50.95 -14.75 -55.35 -13.2 Q-56.0 -12.85 -56.1 -13.4 L-52.15 -19.3 -55.85 -19.4 -55.7 -20.1 -52.15 -22.3 -56.35 -24.35 -56.4 -24.9 -52.4 -25.15 -56.05 -28.05 Q-60.15 -30.95 -64.55 -33.2 L-65.2 -33.95 -65.15 -34.0 M5.1 56.85 L8.05 56.7 8.5 56.6 7.85 56.85 5.1 56.85 M49.3 15.75 L50.0 17.2 Q52.65 22.55 57.85 25.35 62.9 28.05 68.4 27.05 L68.95 27.3 68.8 27.45 Q63.6 29.75 58.1 27.9 53.0 26.2 50.4 21.4 L51.0 22.75 50.3 22.2 Q50.6 24.85 51.45 27.45 53.25 33.15 56.65 37.95 L55.15 36.45 Q51.4 32.6 49.65 27.5 L54.45 44.8 53.0 42.6 Q51.65 40.35 50.75 37.85 48.75 32.4 47.95 26.7 48.45 31.1 47.8 35.45 46.8 41.9 42.85 47.0 44.55 42.2 44.7 37.3 L44.85 32.65 Q44.95 30.7 45.45 28.85 45.9 27.1 46.65 25.45 48.65 20.8 49.3 15.75 M41.5 43.4 L39.95 46.85 44.0 30.65 Q44.5 34.65 43.4 38.35 L41.5 43.4 M-16.95 37.85 L-14.1 42.75 Q-11.6 47.0 -7.7 50.2 L-3.4 53.3 Q1.65 56.35 7.75 56.15 L3.75 56.65 3.25 56.65 Q-0.1 56.65 -3.25 55.45 L-6.8 54.05 -10.35 52.5 -17.7 39.25 -15.85 43.05 -17.9 39.45 -17.0 43.25 Q-16.15 46.05 -15.7 48.95 -14.9 53.9 -12.55 58.15 L-14.95 55.2 -15.05 55.1 Q-16.9 52.15 -17.85 48.7 -18.95 44.55 -20.35 40.55 L-22.95 33.55 Q-25.3 27.7 -28.3 22.1 L-27.1 24.85 -28.55 21.7 -31.55 27.6 -33.1 24.5 -27.65 12.25 -26.15 18.55 Q-24.9 23.85 -22.7 28.7 -20.4 33.7 -16.95 37.85 M-10.2 -56.15 L-10.45 -56.2 -12.75 -56.6 -14.2 -56.85 -18.25 -56.9 -5.3 -54.5 -10.2 -56.15 M-53.65 -1.2 L-51.85 6.85 Q-51.65 2.95 -50.45 -0.7 L-49.95 -1.85 -49.3 -2.0 -49.0 -2.1 Q-44.2 -3.75 -39.95 -6.55 -35.9 -9.2 -32.55 -12.55 L-34.7 -7.75 -36.5 -7.2 -36.65 -5.7 -35.9 -4.65 Q-39.55 4.35 -38.65 14.05 L-38.0 16.5 -35.9 21.15 Q-35.0 23.1 -34.9 25.15 L-34.25 30.25 -33.65 32.8 -33.4 25.6 Q-28.1 35.85 -24.55 46.85 -23.35 50.65 -23.65 54.55 -24.1 61.25 -26.15 67.5 L-27.45 71.3 -27.4 69.7 Q-26.0 64.7 -25.9 59.35 -25.8 54.55 -26.9 49.8 -28.1 44.45 -30.6 39.4 L-32.4 35.6 -35.0 30.3 -37.1 23.6 -39.55 13.2 -39.45 14.65 Q-37.7 25.8 -33.35 36.3 L-31.95 39.85 -31.9 39.95 -30.5 44.15 -30.65 43.75 -30.75 43.5 Q-29.4 48.95 -29.65 54.65 -29.8 57.4 -31.25 59.85 -33.95 64.45 -38.4 67.55 L-42.95 70.65 -42.15 69.45 Q-37.65 65.9 -35.15 60.75 -32.95 56.15 -32.85 51.1 -32.8 46.45 -34.3 42.1 -36.15 36.85 -38.45 32.1 L-39.7 29.75 Q-36.9 36.7 -36.3 44.1 L-36.3 44.3 -37.45 38.6 -36.8 45.6 Q-36.55 49.85 -37.25 54.1 L-41.75 57.05 Q-43.75 58.35 -46.3 58.85 -50.95 59.6 -55.5 57.95 L-56.4 57.65 -56.4 57.55 -56.35 57.55 -54.5 57.25 Q-50.65 57.5 -47.2 55.85 -45.2 54.95 -44.15 52.9 -41.85 48.25 -41.7 43.1 -41.5 37.75 -42.65 32.35 -43.7 27.6 -44.35 22.55 L-45.45 13.4 Q-46.15 7.45 -45.25 1.7 L-44.8 -0.5 -44.3 -2.95 -49.15 -1.45 -50.05 1.75 -49.4 -1.8 Q-50.95 2.75 -50.8 7.65 L-50.8 8.15 -50.8 8.35 -50.8 9.05 -50.7 13.55 -51.5 13.25 Q-53.9 6.35 -54.6 -1.05 L-53.8 -1.15 -53.65 -1.2 M-44.1 10.65 Q-42.55 17.3 -39.3 23.65 L-39.65 21.95 Q-42.45 8.15 -38.25 -5.1 L-43.3 -3.25 -44.5 4.6 -44.45 -1.1 -44.75 8.35 Q-44.85 14.0 -43.45 19.2 -42.1 24.05 -40.3 28.7 L-39.25 31.5 -41.4 24.25 -41.4 24.2 -44.1 10.65 M-40.3 28.7 L-40.35 28.7 -40.3 28.7 M-26.2 0.55 L-26.8 1.4 -28.3 -0.8 -26.1 0.45 -26.2 0.55 M-21.65 2.65 L-23.1 4.65 -26.45 1.7 -25.9 0.4 -21.65 2.65 M-26.5 6.6 L-25.3 7.85 Q-28.0 11.05 -29.8 14.6 -32.45 19.85 -33.95 25.6 L-34.15 26.2 -34.35 26.95 -34.35 24.65 Q-33.45 20.55 -31.9 16.6 -29.8 11.35 -26.5 6.6 M-36.15 16.85 L-35.7 19.3 Q-35.6 19.6 -35.6 19.0 L-35.65 18.75 -35.65 18.65 -35.6 16.3 Q-35.55 13.5 -34.8 11.05 -33.4 6.2 -31.3 1.6 L-28.65 4.4 -29.75 6.35 Q-33.65 13.7 -34.85 22.0 L-35.8 20.3 Q-37.35 17.8 -37.9 14.9 L-37.95 14.5 -38.05 13.4 -36.15 16.85 M-32.0 39.45 L-32.45 38.15 -32.25 38.5 -32.0 39.45 M-32.85 36.9 L-33.25 35.65 -33.4 35.2 -33.4 35.15 Q-33.45 34.75 -33.65 34.4 L-33.7 34.3 -33.8 33.9 -33.9 32.85 -32.85 36.9 M-37.1 23.6 L-37.1 23.55 -37.1 23.6 M-41.7 58.35 L-37.55 55.55 -39.05 60.5 -39.3 60.7 Q-41.95 62.75 -45.15 63.65 L-48.2 64.3 -47.45 63.65 -43.05 59.75 -41.7 58.35" fill="#dbdce6" fill-rule="evenodd" stroke="none"/>
    <path d="M-1.85 -16.4 L0.6 -19.6 4.2 -25.3 6.5 -29.8 11.35 -40.7 12.4 -40.65 15.45 -39.8 21.5 -37.4 Q25.65 -35.4 29.7 -33.0 32.85 -31.2 35.85 -29.0 L39.85 -25.6 Q41.4 -24.05 42.6 -22.2 43.6 -20.75 44.1 -19.0 L45.75 -11.6 46.8 -4.4 47.9 4.55 Q48.25 8.0 48.2 11.5 L47.75 17.8 Q47.3 21.35 45.9 24.6 43.8 29.4 41.35 33.75 38.2 39.35 34.4 44.35 L31.9 47.2 28.85 49.4 28.8 49.45 27.95 49.8 27.75 49.9 27.55 50.0 27.45 50.0 18.2 48.9 Q14.1 48.5 10.15 47.5 L3.25 45.7 Q-1.35 44.35 -5.5 42.15 -9.7 39.95 -12.75 36.45 L-14.75 33.3 -16.45 29.45 -19.15 22.65 Q-20.85 18.3 -21.6 13.45 L-19.85 9.2 -18.5 6.25 -14.75 0.45 -7.6 -8.8 -4.85 -11.85 Q-3.1 -13.85 -1.9 -16.15 L-1.85 -16.4 M28.6 27.45 L28.65 27.4 29.75 26.8 30.2 26.45 31.25 25.05 32.4 23.3 33.2 21.3 33.4 20.9 33.55 20.6 Q33.65 20.3 33.35 20.2 L31.85 19.65 31.2 19.3 29.95 18.45 27.55 16.45 27.5 16.4 27.25 16.1 27.15 15.95 27.1 15.9 27.1 15.85 27.05 15.8 27.05 15.75 26.55 15.1 25.95 13.95 26.45 15.4 27.25 17.1 27.85 18.0 29.2 19.5 29.35 19.6 31.3 21.0 31.25 21.9 31.2 21.9 30.85 22.45 30.2 23.2 Q29.4 23.95 28.35 24.35 L25.4 25.6 Q24.95 25.8 24.9 26.25 24.85 26.8 25.35 27.1 L25.9 27.35 25.95 27.35 26.2 27.45 Q27.25 27.65 28.35 27.45 L28.55 27.45 28.6 27.45 M27.95 21.1 L28.0 21.15 28.0 21.1 27.95 21.1 M24.8 31.8 L24.8 31.9 24.85 31.9 25.3 31.85 24.8 31.8" fill="#ffe8df" fill-rule="evenodd" stroke="none"/>
    <path d="M-26.35 6.05 L-29.05 3.0 -32.1 -1.0 -35.75 -6.75 Q-35.2 -7.35 -34.55 -7.0 L-26.8 -3.55 -21.0 -0.65 -21.1 -0.55 -21.15 -0.45 -21.15 -0.4 -21.35 -0.15 -21.95 0.45 -22.4 1.05 -28.5 -2.15 -29.4 -1.6 -29.45 -1.0 -29.15 -0.55 -26.55 2.3 -25.35 3.45 -24.65 4.15 -25.05 4.55 -25.4 4.8 -25.75 5.2 -26.3 5.9 -26.35 6.05 M-26.05 6.35 L-26.05 6.3 -26.05 6.35" fill="#ff99cc" fill-rule="evenodd" stroke="none"/>
    <path d="M-21.0 -0.65 L-20.55 -0.45 -18.65 0.55 -19.85 1.9 -20.7 1.9 -22.4 1.05 -21.95 0.45 -21.35 -0.15 -21.15 -0.4 -21.15 -0.45 -21.1 -0.55 -21.0 -0.65 M-24.65 4.15 L-23.75 5.05 -23.15 5.6 -24.65 7.15 -25.25 7.15 -26.05 6.35 -26.05 6.3 -26.35 6.05 -26.3 5.9 -25.75 5.2 -25.4 4.8 -25.05 4.55 -24.65 4.15" fill="#d55595" fill-rule="evenodd" stroke="none"/>
    <path d="M-1.85 -16.4 L-1.9 -16.15 Q-3.1 -13.85 -4.85 -11.85 L-7.6 -8.8 -14.75 0.45 -18.5 6.25 -19.85 9.2 -21.6 13.45 Q-20.85 18.3 -19.15 22.65 L-16.45 29.45 -14.75 33.3 -12.75 36.45 Q-9.7 39.95 -5.5 42.15 -1.35 44.35 3.25 45.7 L10.15 47.5 Q14.1 48.5 18.2 48.9 L27.45 50.0 26.1 50.4 21.65 50.65 19.6 50.45 10.4 49.15 3.3 47.6 1.2 47.1 -6.9 44.85 -9.95 43.3 -12.15 41.7 -16.9 36.85 -18.2 35.1 -20.65 31.0 Q-22.05 28.5 -22.95 25.85 -24.6 21.0 -25.85 16.05 L-26.4 13.7 -26.95 11.4 -22.3 5.75 -22.45 4.8 -21.2 3.45 -20.4 3.45 -17.7 0.55 -17.35 -0.3 -12.45 -5.6 -9.2 -8.85 -5.3 -12.7 -3.65 -14.4 -1.85 -16.4 M27.85 18.0 L27.25 17.1 26.45 15.4 25.95 13.95 26.55 15.1 27.05 15.75 27.05 15.8 27.1 15.85 27.1 15.9 27.15 15.95 27.25 16.1 27.5 16.4 27.55 16.45 29.95 18.45 31.2 19.3 31.85 19.65 33.35 20.2 Q33.65 20.3 33.55 20.6 L33.4 20.9 33.2 21.3 32.4 23.3 31.25 25.05 30.2 26.45 29.75 26.8 28.65 27.4 28.6 27.45 30.1 25.65 30.9 24.4 Q31.75 22.7 31.85 20.75 L31.8 20.7 30.55 19.95 27.85 18.0 M28.35 27.45 Q27.25 27.65 26.2 27.45 L25.95 27.35 25.9 27.35 25.35 27.1 Q24.85 26.8 24.9 26.25 24.95 25.8 25.4 25.6 L28.35 24.35 Q29.4 23.95 30.2 23.2 L30.85 22.45 31.2 21.9 31.25 21.9 Q30.9 23.55 29.4 24.65 L28.35 25.35 Q27.05 25.95 26.65 27.4 L28.35 27.45 M27.95 21.1 L28.0 21.1 28.0 21.15 27.95 21.1" fill="#e3c4b3" fill-rule="evenodd" stroke="none"/>
    <path d="M10.95 -1.45 L9.85 -1.2 0.85 -0.95 -3.75 -1.2 -4.4 -1.2 -4.5 -1.2 -6.85 -1.15 -10.4 -0.85 Q-12.95 -0.6 -15.05 0.55 -20.6 3.65 -24.85 8.15 L-26.05 9.2 -25.15 8.1 -25.25 8.1 -25.15 7.9 Q-21.15 3.65 -16.55 0.25 -13.9 -1.7 -10.4 -2.05 L0.25 -3.05 Q5.3 -4.1 9.75 -2.3 L11.05 -1.45 10.95 -1.45 M30.5 -12.1 L29.9 -11.5 28.0 -9.45 27.95 -9.4 27.6 -9.05 27.35 -8.8 24.1 -6.0 23.65 -5.6 23.6 -5.6 22.65 -4.85 22.4 -4.7 Q23.85 -10.35 29.25 -13.25 32.8 -16.25 37.25 -17.25 40.75 -18.15 43.55 -15.9 L36.4 -16.1 Q33.0 -14.7 30.5 -12.1" fill="#000000" fill-rule="evenodd" stroke="none"/>
    <path d="M-4.4 -1.2 L-3.75 -1.2 0.85 -0.95 9.85 -1.2 10.95 -1.45 11.2 -0.9 Q11.4 0.1 11.0 1.05 L10.1 2.5 8.8 3.8 8.55 3.85 6.55 3.4 3.75 2.2 2.1 1.5 -2.05 0.2 -2.15 0.15 -2.8 0.05 -2.9 -0.05 -4.4 -0.45 -5.75 -0.8 -6.25 -0.9 -6.35 -0.95 -6.65 -1.0 -6.7 -1.05 -6.85 -1.15 -4.5 -1.2 -4.4 -1.15 -4.4 -1.2 M30.5 -12.1 L30.15 -11.55 28.75 -8.9 28.0 -7.6 27.6 -6.85 27.45 -6.5 26.25 -3.8 26.2 -3.6 25.75 -2.3 25.25 -1.35 Q25.1 -1.2 24.85 -1.2 24.25 -1.25 23.95 -1.8 23.15 -3.05 22.7 -4.45 L22.65 -4.85 23.6 -5.6 23.65 -5.6 24.1 -6.0 27.35 -8.8 27.6 -9.05 27.95 -9.4 28.0 -9.45 29.9 -11.5 30.5 -12.1" fill="#e3c4b3" fill-rule="evenodd" stroke="none"/>
  </g>
</svg>
