<?xml version="1.0" encoding="UTF-8" standalone="no"?>
<svg xmlns:ffdec="https://www.free-decompiler.com/flash" xmlns:xlink="http://www.w3.org/1999/xlink" ffdec:objectType="shape" height="11.45px" width="12.55px" xmlns="http://www.w3.org/2000/svg">
  <g transform="matrix(1.0, 0.0, 0.0, 1.0, 6.25, 5.7)">
    <path d="M-3.15 0.15 L-4.2 0.55 -5.5 0.75 -5.6 0.85 -5.85 0.95 -6.15 0.85 -6.25 0.65 -6.15 0.3 Q-6.0 0.15 -5.75 0.15 L-5.5 0.5 -4.45 0.25 -3.05 -0.35 -0.8 -1.45 0.2 -1.8 1.45 -2.15 Q2.55 -2.4 3.55 -3.05 L4.9 -4.4 5.35 -5.05 5.35 -5.1 5.5 -5.05 5.55 -5.0 5.4 -4.35 5.5 -4.4 5.65 -4.35 5.95 -4.3 6.0 -4.25 5.95 -3.9 5.85 -3.75 5.7 -3.65 5.55 -3.65 5.35 -3.65 5.1 -3.65 5.05 -3.6 4.95 -3.65 3.95 -2.8 2.85 -2.25 1.4 -1.8 0.75 -1.65 0.2 -1.5 -1.1 -0.95 -2.1 -0.4 -3.15 0.15" fill="#000000" fill-rule="evenodd" stroke="none"/>
    <path d="M-3.15 0.15 L-2.1 -0.4 -1.1 -0.95 0.2 -1.5 0.75 -1.65 1.4 -1.8 2.85 -2.25 3.95 -2.8 4.95 -3.65 5.05 -3.6 5.1 -3.65 5.35 -3.65 5.55 -3.65 5.7 -3.65 5.85 -3.75 5.95 -3.9 5.95 -3.8 6.15 -3.5 6.3 -2.45 6.25 -1.65 5.6 -0.45 4.45 0.45 3.05 0.9 1.6 0.95 0.45 0.9 -0.75 0.75 -1.9 0.45 -3.15 0.15 M5.95 -4.3 L5.65 -4.35 5.5 -4.4 5.4 -4.35 5.55 -5.0 5.5 -5.05 5.35 -5.1 5.35 -5.05 4.9 -4.4 3.55 -3.05 Q2.55 -2.4 1.45 -2.15 L0.2 -1.8 -0.8 -1.45 -3.05 -0.35 -2.55 -0.8 -1.5 -1.7 -0.45 -2.7 0.05 -3.1 Q0.65 -3.6 1.4 -3.8 2.1 -4.0 2.75 -4.4 L4.0 -5.25 Q4.5 -5.65 5.1 -5.7 L5.35 -5.65 5.95 -4.75 5.95 -4.3" fill="#ffffff" fill-rule="evenodd" stroke="none"/>
    <path d="M3.75 2.5 Q5.4 2.9 4.9 4.6 L4.65 5.0 Q3.15 6.7 2.25 4.6 2.15 4.3 2.2 4.0 2.45 2.75 3.75 2.5" fill="#e3c4b3" fill-rule="evenodd" stroke="none"/>
  </g>
</svg>
