<?xml version="1.0" encoding="UTF-8" standalone="no"?>
<svg xmlns:ffdec="https://www.free-decompiler.com/flash" xmlns:xlink="http://www.w3.org/1999/xlink" ffdec:objectType="shape" height="40.7px" width="73.05px" xmlns="http://www.w3.org/2000/svg">
  <g transform="matrix(1.0, 0.0, 0.0, 1.0, 36.5, 20.35)">
    <path d="M14.55 -9.8 L14.45 -9.6 Q14.2 -10.6 14.35 -11.55 L14.6 -13.05 Q14.8 -14.05 15.35 -14.85 L16.1 -16.0 16.85 -16.95 16.85 -17.0 Q20.65 -21.3 26.45 -20.05 28.95 -19.5 31.05 -17.05 L32.25 -15.35 30.95 -17.0 Q28.9 -19.1 26.0 -19.6 L23.55 -19.7 Q19.65 -19.3 17.05 -16.65 L15.95 -15.1 15.4 -14.05 14.7 -12.35 14.65 -12.2 Q14.4 -11.2 14.5 -10.35 L14.55 -9.8 M-9.2 -5.3 L-9.25 -5.35 -9.25 -5.4 -9.6 -5.85 -10.05 -6.3 -10.0 -6.3 -10.9 -7.05 -11.8 -7.55 -14.9 -8.15 -15.3 -8.15 -15.6 -8.1 Q-23.55 -7.35 -28.65 -0.85 -30.7 1.65 -32.1 4.55 L-33.3 7.45 -33.7 8.75 -33.45 7.35 -33.15 6.15 Q-31.7 1.0 -27.65 -3.0 -21.35 -9.35 -12.65 -8.45 -10.25 -7.9 -8.6 -6.25 L-8.55 -6.25 -8.05 -5.65 -7.8 -5.45 -7.75 -5.4 -10.75 -7.25 -8.4 -5.25 -8.25 -4.85 -8.3 -4.85 -8.3 -4.75 -8.2 -4.65 -8.15 -4.6 -8.1 -4.5 -8.15 -4.35 -8.2 -4.3 -8.3 -4.3 -8.45 -4.5 -8.5 -4.55 -8.6 -4.6 -8.7 -4.75 -9.1 -5.2 -9.15 -5.2 -9.2 -5.3" fill="#7b5840" fill-rule="evenodd" stroke="none"/>
    <path d="M14.55 -9.8 L14.5 -10.35 Q14.4 -11.2 14.65 -12.2 L14.7 -12.35 15.4 -14.05 15.95 -15.1 17.05 -16.65 Q19.65 -19.3 23.55 -19.7 L26.0 -19.6 Q28.9 -19.1 30.95 -17.0 L30.95 -16.95 31.0 -16.9 30.9 -16.8 30.6 -16.9 30.5 -17.0 30.0 -17.15 29.9 -17.2 30.05 -17.0 30.2 -16.8 31.25 -15.75 31.45 -15.35 Q32.3 -14.6 32.65 -13.5 L32.9 -12.8 31.6 -13.5 31.35 -14.0 32.05 -14.3 Q31.05 -14.85 30.1 -15.85 L29.6 -16.4 Q27.6 -18.2 25.0 -18.65 20.2 -19.3 17.3 -15.8 L16.85 -15.25 16.1 -14.0 15.5 -12.8 15.1 -11.5 14.85 -10.2 14.8 -9.2 14.8 -8.85 14.85 -8.6 14.75 -8.6 14.6 -8.6 14.6 -8.95 14.55 -9.8 M33.0 -12.45 L33.15 -11.65 33.25 -11.15 32.5 -11.4 32.15 -12.4 33.0 -12.45 M33.4 -10.35 L33.4 -10.3 33.55 -9.55 33.55 -9.25 Q33.1 -9.5 32.8 -10.0 L32.8 -10.2 33.4 -10.35 M30.55 -0.65 L30.75 -0.1 30.75 0.25 30.25 1.45 29.75 2.35 28.3 4.15 28.05 4.35 27.9 4.45 27.3 4.05 27.7 3.55 28.75 2.75 29.2 2.45 28.75 2.1 29.05 1.45 Q29.2 1.15 29.5 0.95 L29.8 0.75 30.0 0.5 29.4 0.55 29.65 0.15 29.95 -0.2 30.55 -0.65 M27.85 4.5 L25.7 5.75 25.6 5.8 Q24.25 6.45 22.75 6.55 L21.7 6.55 21.15 6.4 Q20.3 6.15 19.7 5.65 L18.1 3.75 18.1 3.5 18.35 3.2 18.75 3.85 18.85 4.45 19.05 4.45 19.1 4.35 19.8 4.8 19.8 5.25 19.85 5.3 20.0 5.4 20.25 5.15 20.3 5.1 21.05 5.4 21.4 6.05 21.6 5.5 22.7 5.6 23.25 6.2 23.3 6.15 23.4 6.0 23.4 5.6 25.4 5.75 25.7 5.75 25.65 5.6 25.55 5.55 25.8 5.25 26.05 4.95 26.75 4.5 27.85 4.5 M-33.3 7.45 L-32.1 4.55 Q-30.7 1.65 -28.65 -0.85 -23.55 -7.35 -15.6 -8.1 L-15.3 -8.15 -14.9 -8.15 -11.8 -7.55 -10.9 -7.05 -10.0 -6.3 -10.05 -6.3 -9.6 -5.85 -9.25 -5.4 -9.25 -5.35 -9.2 -5.3 -9.8 -5.45 -9.9 -5.4 -10.0 -5.35 -10.35 -5.65 -10.4 -5.95 Q-10.9 -6.5 -12.75 -6.65 -21.55 -7.7 -27.15 -0.4 L-28.45 1.85 -28.75 2.5 -30.2 4.8 -31.55 6.35 -30.0 5.6 -30.8 6.9 -30.9 7.05 -31.15 7.35 -31.15 7.4 -32.1 8.8 -32.05 7.8 -31.65 5.7 -31.55 5.25 -31.2 4.5 -31.55 4.8 Q-32.45 5.8 -32.8 7.0 L-33.3 7.45 M-8.7 -4.75 L-8.6 -4.6 -8.5 -4.55 -8.45 -4.5 -8.3 -4.3 -8.2 -4.3 -8.15 -4.35 -8.1 -4.5 -8.15 -4.6 -8.2 -4.65 -8.25 -4.85 -8.4 -5.25 -10.75 -7.25 -7.75 -5.4 -7.5 -4.55 -7.55 -3.35 Q-8.0 -3.45 -8.4 -3.65 L-9.15 -4.5 -8.7 -4.75 M-7.8 -5.45 L-8.05 -5.65 -8.55 -6.25 -7.8 -5.45 M-33.15 6.15 L-33.45 7.35 -33.5 7.3 -33.55 7.25 -33.4 6.95 -33.35 6.85 -33.25 6.25 -33.15 6.15 M-9.15 12.7 L-8.85 12.9 -9.05 12.9 -9.15 12.7 M-8.7 13.4 Q-8.7 14.35 -9.3 15.2 L-9.65 15.65 -10.1 16.05 -11.9 17.55 -12.65 18.15 -13.75 18.75 -16.45 19.9 -16.65 19.9 -19.6 20.3 -21.1 20.35 -21.35 20.3 -23.1 19.7 -23.75 19.3 -24.2 18.8 Q-24.55 18.5 -24.4 18.15 L-23.8 18.0 -23.0 18.3 -23.1 18.45 -22.9 18.5 -23.1 19.15 -22.15 18.8 -21.25 18.95 -21.35 19.75 -20.25 19.15 -19.2 19.25 -18.95 20.05 -18.4 19.25 -17.05 19.1 -16.5 19.8 -16.15 19.15 -15.05 18.55 -14.15 18.9 -14.1 18.8 -14.15 18.6 Q-13.55 17.25 -12.0 17.5 L-11.45 16.8 -10.1 16.05 -10.7 15.45 Q-9.95 14.3 -9.0 13.65 L-8.7 13.4 M-31.55 11.55 L-31.75 11.0 -31.15 10.85 -31.0 10.75 -31.55 11.55 M-31.95 10.35 L-31.95 10.3 -32.1 9.0 -30.7 8.4 -30.8 9.0 -31.95 10.35" fill="#e2e7f1" fill-rule="evenodd" stroke="none"/>
    <path d="M32.9 -12.8 L33.5 -12.5 33.0 -12.45 32.15 -12.4 32.5 -11.4 33.25 -11.15 34.65 -10.75 33.8 -10.35 33.4 -10.35 32.8 -10.2 32.8 -10.0 Q33.1 -9.5 33.55 -9.25 L35.0 -9.1 36.55 -9.15 32.05 -5.75 33.35 -5.5 31.15 -4.3 30.8 -4.55 30.8 -4.6 31.15 -5.65 31.25 -6.2 31.35 -7.1 31.2 -8.5 Q30.35 -13.05 26.9 -15.8 L26.1 -16.4 23.85 -16.1 24.95 -12.45 25.25 -11.45 26.45 -6.65 Q27.05 -3.2 27.15 0.4 L27.15 0.45 27.2 0.1 27.25 0.0 27.3 0.4 28.4 -0.45 28.4 -0.5 29.15 -1.1 29.3 -1.2 30.75 -0.75 30.55 -0.65 29.95 -0.2 29.65 0.15 29.4 0.55 30.0 0.5 29.8 0.75 29.5 0.95 Q29.2 1.15 29.05 1.45 L28.75 2.1 29.2 2.45 28.75 2.75 27.7 3.55 27.3 4.05 27.9 4.45 27.85 4.5 26.75 4.5 26.05 4.95 25.8 5.25 25.55 5.55 25.65 5.6 25.7 5.75 25.4 5.75 23.4 5.6 23.4 6.0 23.3 6.15 23.25 6.2 22.7 5.6 21.6 5.5 21.4 6.05 21.05 5.4 20.3 5.1 20.25 5.15 20.0 5.4 19.85 5.3 19.8 5.25 19.8 4.8 19.1 4.35 19.05 4.45 18.85 4.45 18.75 3.85 18.35 3.2 18.25 3.05 18.3 2.65 18.35 2.65 18.45 2.6 18.55 2.55 18.95 2.85 18.65 2.6 18.6 2.55 18.75 2.4 18.75 2.35 17.7 -0.1 17.0 -2.5 16.5 -4.8 16.1 -7.3 16.0 -8.85 16.0 -9.45 Q15.45 -9.3 15.8 -8.55 16.05 -8.05 15.55 -7.9 L15.4 -7.95 Q15.15 -7.6 15.2 -7.3 L15.25 -6.9 15.15 -7.1 14.85 -8.6 14.8 -8.85 14.8 -9.2 14.85 -10.2 15.1 -11.5 15.5 -12.8 16.1 -14.0 16.85 -15.25 17.3 -15.8 Q20.2 -19.3 25.0 -18.65 27.6 -18.2 29.6 -16.4 L30.1 -15.85 Q31.05 -14.85 32.05 -14.3 L31.35 -14.0 31.6 -13.5 32.9 -12.8 M19.2 -7.5 L18.6 -11.15 17.5 -11.45 17.2 -11.1 17.05 -10.75 16.9 -10.3 17.1 -9.1 16.9 -8.9 16.75 -9.0 17.0 -6.0 17.05 -5.5 17.6 -3.4 Q17.85 -2.45 18.25 -1.45 L19.0 0.5 Q19.65 2.35 21.2 3.3 21.9 3.8 22.65 3.6 L23.45 3.55 23.7 3.3 24.2 2.95 25.0 2.0 Q26.05 0.5 26.1 -1.6 L26.1 -3.25 Q25.95 -7.5 24.8 -11.55 L23.7 -14.15 23.25 -14.8 22.15 -14.7 21.55 -14.7 20.8 -14.8 19.85 -14.0 20.6 -13.3 19.0 -13.2 18.4 -12.2 18.75 -11.6 19.55 -12.95 20.3 -12.65 21.65 -8.65 21.95 -7.2 22.1 -5.3 21.9 -2.55 21.8 -1.5 21.3 -1.5 Q20.3 -2.95 20.0 -4.75 L19.9 -5.15 19.3 -7.3 19.2 -7.5 M19.65 -11.55 Q18.85 -10.9 19.2 -9.95 L20.05 -9.45 Q20.75 -10.25 20.35 -11.1 L19.65 -11.55 M-32.1 8.8 L-31.15 7.4 -31.15 7.35 -30.9 7.05 -30.8 6.9 -30.0 5.6 -31.55 6.35 -30.2 4.8 -28.75 2.5 -28.45 1.85 -27.15 -0.4 Q-21.55 -7.7 -12.75 -6.65 -10.9 -6.5 -10.4 -5.95 L-10.35 -5.65 -10.0 -5.35 -9.9 -5.4 -9.8 -5.45 -9.2 -5.3 -9.15 -5.2 -9.1 -5.2 -8.7 -4.75 -9.15 -4.5 -8.4 -3.65 Q-8.0 -3.45 -7.55 -3.35 L-5.9 -3.55 -5.4 -3.7 -5.4 -3.5 -7.55 -2.1 -7.4 -1.6 -7.4 -1.15 -7.4 -1.05 -9.5 -2.45 -10.45 -2.9 -12.75 -3.6 -15.35 -3.4 -15.2 -3.05 -14.95 -2.3 -13.75 0.75 Q-13.05 2.75 -12.65 4.8 L-12.45 5.65 -12.4 6.15 -11.9 8.9 -11.75 11.55 -11.8 12.4 Q-12.0 13.65 -11.55 13.6 L-10.35 12.5 -9.65 12.4 -9.45 12.45 -9.35 12.5 -9.15 12.7 -9.05 12.9 -8.85 12.9 -8.1 12.95 -8.7 13.4 -9.0 13.65 Q-9.95 14.3 -10.7 15.45 L-10.1 16.05 -11.45 16.8 -12.0 17.5 Q-13.55 17.25 -14.15 18.6 L-14.1 18.8 -14.15 18.9 -15.05 18.55 -16.15 19.15 -16.5 19.8 -17.05 19.1 -18.4 19.25 -18.95 20.05 -19.2 19.25 -20.25 19.15 -21.35 19.75 -21.25 18.95 -22.15 18.8 -23.1 19.15 -22.9 18.5 -22.85 18.35 -23.0 18.3 -23.8 18.0 -24.4 18.15 -24.65 18.25 -24.0 17.6 -23.7 17.3 -23.75 17.25 -24.75 15.2 -24.95 14.7 -25.45 13.65 -25.5 13.5 -26.9 9.45 -27.3 7.9 -27.55 7.25 -27.9 6.3 -28.25 7.55 -28.4 8.85 Q-28.5 10.8 -28.1 12.8 L-27.6 14.9 -27.55 14.9 -27.5 15.15 -27.45 15.25 -28.15 14.85 -29.2 15.55 -29.95 15.6 -29.5 14.45 -35.45 14.9 -36.4 14.85 -36.5 14.8 -36.4 14.8 Q-33.5 13.9 -31.55 11.55 L-31.0 10.75 -31.15 10.85 -31.75 11.0 -32.7 11.25 -31.95 10.35 -30.8 9.0 -30.7 8.4 -32.1 9.0 -32.3 9.1 -32.1 8.8 M-8.2 -4.65 L-8.3 -4.75 -8.3 -4.85 -8.25 -4.85 -8.2 -4.65 M-7.75 -5.4 L-7.7 -5.35 -7.75 -5.4 M-19.8 -3.0 L-23.1 -0.8 -22.25 -0.7 Q-21.15 -0.3 -20.75 0.8 -19.95 2.9 -19.45 5.0 -19.15 6.3 -19.0 7.7 L-18.9 10.5 -19.1 12.7 -20.0 11.55 Q-21.85 8.95 -22.8 6.1 -23.6 3.7 -23.65 1.3 L-23.65 -0.5 -23.65 -0.55 -24.55 0.55 -26.1 2.7 -26.3 3.15 -26.35 5.6 -26.55 5.65 -26.35 5.9 -26.3 6.8 Q-26.2 8.6 -25.6 10.4 L-24.15 13.85 -22.3 16.55 Q-21.2 17.9 -19.4 17.95 L-17.2 17.5 Q-15.65 16.85 -14.7 15.25 L-14.2 14.1 Q-13.85 12.6 -13.8 11.05 L-13.9 7.4 -14.1 5.5 Q-14.3 4.3 -14.65 3.15 L-16.0 -0.7 Q-16.6 -2.2 -17.7 -3.5 L-19.4 -3.15 -19.8 -3.0 M-22.4 3.35 Q-21.35 3.3 -21.3 2.3 -21.25 0.85 -22.65 0.8 -23.85 1.3 -23.4 2.6 -23.2 3.35 -22.4 3.35 M-20.0 18.3 L-19.65 18.3 -20.0 18.3" fill="#000000" fill-rule="evenodd" stroke="none"/>
    <path d="M17.05 -10.75 L17.2 -11.1 17.5 -11.45 18.6 -11.15 19.2 -7.5 18.1 -8.35 18.6 -9.2 18.7 -9.35 17.05 -10.75 M19.3 -7.3 L19.9 -5.15 20.0 -4.75 Q20.3 -2.95 21.3 -1.5 L21.8 -1.5 21.9 -2.55 22.1 -5.3 21.95 -7.2 21.65 -8.65 20.3 -12.65 19.55 -12.95 18.75 -11.6 18.4 -12.2 19.0 -13.2 20.6 -13.3 19.85 -14.0 20.8 -14.8 21.55 -14.7 Q21.1 -14.05 21.15 -13.15 L21.2 -12.95 21.75 -13.8 22.15 -14.7 23.25 -14.8 23.7 -14.15 24.8 -11.55 Q25.95 -7.5 26.1 -3.25 L26.1 -1.6 Q26.05 0.5 25.0 2.0 L24.2 2.95 23.7 3.3 23.45 3.55 22.65 3.6 Q21.9 3.8 21.2 3.3 19.65 2.35 19.0 0.5 L18.25 -1.45 Q17.85 -2.45 17.6 -3.4 L17.05 -5.5 19.35 -5.4 Q19.4 -5.85 18.8 -5.8 L17.8 -5.95 19.3 -7.3 M17.0 -6.0 L16.75 -9.0 16.9 -8.9 17.1 -9.1 16.9 -10.3 18.0 -9.35 16.8 -8.45 18.6 -7.4 17.0 -6.0 M21.65 -11.75 L22.85 -12.45 Q21.85 -11.35 22.05 -9.95 22.9 -9.8 23.55 -10.3 22.7 -9.45 22.65 -8.35 23.3 -8.15 23.55 -8.95 L24.05 -9.95 24.25 -10.15 24.15 -10.9 22.65 -10.7 23.8 -13.1 Q23.25 -13.9 22.35 -12.7 L21.6 -11.75 21.65 -11.75 M24.65 -8.25 L24.15 -8.35 23.7 -8.25 23.0 -7.8 22.85 -7.6 Q23.6 -7.2 24.55 -8.15 L24.65 -8.25 M24.85 -5.55 L23.1 -5.05 22.85 -3.1 22.15 -0.25 Q22.0 0.25 21.5 0.0 L21.35 -0.1 20.6 -1.3 19.1 -4.2 18.2 -3.7 Q18.25 -3.15 18.45 -2.65 19.05 -1.05 19.75 0.25 L20.9 1.95 21.85 2.8 23.35 2.6 Q24.25 1.9 24.45 1.0 L24.7 -0.2 Q25.5 -2.85 24.85 -5.55 M24.6 -6.45 Q23.65 -7.15 23.15 -6.25 L23.15 -6.05 23.35 -5.95 23.65 -6.1 Q24.3 -5.95 24.6 -6.45 M-19.8 -3.0 L-20.2 -0.75 -20.15 0.1 -18.35 -0.75 -19.15 1.35 -17.4 -1.3 -19.7 -0.9 -19.4 -3.15 -17.7 -3.5 Q-16.6 -2.2 -16.0 -0.7 L-14.65 3.15 Q-14.3 4.3 -14.1 5.5 L-13.9 7.4 -13.8 11.05 Q-13.85 12.6 -14.2 14.1 L-14.7 15.25 Q-15.65 16.85 -17.2 17.5 L-19.4 17.95 Q-21.2 17.9 -22.3 16.55 L-24.15 13.85 -25.6 10.4 Q-26.2 8.6 -26.3 6.8 L-26.35 5.9 Q-25.6 6.7 -24.35 7.15 L-25.25 8.05 -25.3 8.45 -23.65 7.15 -23.9 6.7 Q-24.4 6.0 -25.35 5.85 L-24.55 5.05 -24.65 5.0 -24.95 5.05 -26.35 5.6 -26.3 3.15 -24.45 4.0 -26.1 2.7 -24.55 0.55 -23.65 -0.55 -23.65 -0.5 -23.65 1.3 Q-23.6 3.7 -22.8 6.1 -21.85 8.95 -20.0 11.55 L-19.1 12.7 -18.9 10.5 -19.0 7.7 Q-19.15 6.3 -19.45 5.0 -19.95 2.9 -20.75 0.8 -21.15 -0.3 -22.25 -0.7 L-23.1 -0.8 -19.8 -3.0 M-25.1 9.9 L-25.1 9.95 -23.5 13.25 -23.0 14.1 -21.2 16.1 -20.55 16.8 -19.25 17.1 Q-17.7 17.3 -16.45 16.15 -15.65 15.35 -15.35 14.25 L-14.9 12.2 Q-14.45 9.45 -14.85 6.8 L-17.5 7.2 -17.35 9.2 Q-17.25 11.6 -18.1 13.65 L-18.85 14.2 -19.6 13.75 -21.3 12.25 Q-22.7 10.8 -23.3 9.05 L-25.1 9.8 -25.1 9.9 M-17.2 4.1 L-17.55 4.05 -16.1 2.0 -17.9 1.95 -16.95 2.0 -18.5 4.4 -18.05 4.85 -15.85 5.0 -16.45 5.35 -17.3 6.2 -17.25 6.4 -16.9 6.3 -15.45 5.3 -15.1 5.0 Q-15.95 4.0 -17.2 4.1" fill="#8189a3" fill-rule="evenodd" stroke="none"/>
    <path d="M17.05 -10.75 L18.7 -9.35 18.6 -9.2 18.1 -8.35 19.2 -7.5 19.3 -7.3 17.8 -5.95 18.8 -5.8 Q19.4 -5.85 19.35 -5.4 L17.05 -5.5 17.0 -6.0 18.6 -7.4 16.8 -8.45 18.0 -9.35 16.9 -10.3 17.05 -10.75 M21.55 -14.7 L22.15 -14.7 21.75 -13.8 21.2 -12.95 21.15 -13.15 Q21.1 -14.05 21.55 -14.7 M21.65 -11.75 L21.6 -11.75 22.35 -12.7 Q23.25 -13.9 23.8 -13.1 L22.65 -10.7 24.15 -10.9 24.25 -10.15 24.05 -9.95 23.55 -8.95 Q23.3 -8.15 22.65 -8.35 22.7 -9.45 23.55 -10.3 22.9 -9.8 22.05 -9.95 21.85 -11.35 22.85 -12.45 L21.65 -11.75 M24.65 -8.25 L24.55 -8.15 Q23.6 -7.2 22.85 -7.6 L23.0 -7.8 23.7 -8.25 24.15 -8.35 24.65 -8.25 M24.6 -6.45 Q24.3 -5.95 23.65 -6.1 L23.35 -5.95 23.15 -6.05 23.15 -6.25 Q23.65 -7.15 24.6 -6.45 M-19.4 -3.15 L-19.7 -0.9 -17.4 -1.3 -19.15 1.35 -18.35 -0.75 -20.15 0.1 -20.2 -0.75 -19.8 -3.0 -19.4 -3.15 M-26.1 2.7 L-24.45 4.0 -26.3 3.15 -26.1 2.7 M-26.35 5.6 L-24.95 5.05 -24.65 5.0 -24.55 5.05 -25.35 5.85 Q-24.4 6.0 -23.9 6.7 L-23.65 7.15 -25.3 8.45 -25.25 8.05 -24.35 7.15 Q-25.6 6.7 -26.35 5.9 L-26.55 5.65 -26.35 5.6 M-17.2 4.1 Q-15.95 4.0 -15.1 5.0 L-15.45 5.3 -16.9 6.3 -17.25 6.4 -17.3 6.2 -16.45 5.35 -15.85 5.0 -18.05 4.85 -18.5 4.4 -16.95 2.0 -17.9 1.95 -16.1 2.0 -17.55 4.05 -17.2 4.1" fill="#535b6f" fill-rule="evenodd" stroke="none"/>
    <path d="M30.8 -4.55 L30.4 -3.55 29.25 -1.3 29.15 -1.1 28.4 -0.5 28.35 -0.5 28.4 -0.45 27.3 0.4 27.25 0.0 27.25 -0.05 27.25 -0.4 27.2 0.1 27.15 0.45 27.15 0.4 Q27.05 -3.2 26.45 -6.65 L25.25 -11.45 24.95 -12.45 23.85 -16.1 26.1 -16.4 26.9 -15.8 Q30.35 -13.05 31.2 -8.5 L31.35 -7.1 31.15 -7.15 31.15 -7.1 31.0 -6.15 31.0 -6.05 31.15 -5.65 30.8 -4.6 30.8 -4.55 M18.3 2.65 L17.8 1.95 Q17.0 0.7 16.65 -0.85 L15.85 -3.9 15.25 -6.9 15.2 -7.3 Q15.15 -7.6 15.4 -7.95 L15.55 -7.9 Q16.05 -8.05 15.8 -8.55 15.45 -9.3 16.0 -9.45 L15.9 -9.2 Q15.8 -9.0 16.0 -8.85 L16.1 -7.3 16.5 -4.8 17.0 -2.5 17.7 -0.1 18.75 2.35 18.75 2.4 18.6 2.55 18.55 2.55 18.45 2.6 18.35 2.65 18.3 2.65 M19.65 -11.55 L20.35 -11.1 Q20.75 -10.25 20.05 -9.45 L19.2 -9.95 Q18.85 -10.9 19.65 -11.55 M-9.5 -2.45 L-8.7 0.35 -8.35 3.25 -8.2 4.7 Q-8.1 5.2 -8.15 5.8 L-8.15 6.9 -8.4 9.1 -8.75 10.55 -8.8 10.85 -9.1 11.75 -9.45 12.45 -9.65 12.4 -10.35 12.5 -11.55 13.6 Q-12.0 13.65 -11.8 12.4 L-11.75 11.55 -11.9 8.9 -12.4 6.15 -12.45 5.65 -12.65 4.8 Q-13.05 2.75 -13.75 0.75 L-14.95 -2.3 -15.2 -3.05 -15.35 -3.4 -12.75 -3.6 -10.45 -2.9 -9.5 -2.45 M-24.0 17.6 L-24.05 17.55 -24.6 17.25 -25.45 16.75 -26.1 16.4 -27.55 14.9 -27.6 14.9 -28.1 12.8 Q-28.5 10.8 -28.4 8.85 L-28.25 7.55 -27.9 6.3 -27.55 7.25 -27.3 7.9 -26.9 9.45 -25.5 13.5 -25.45 13.65 -24.95 14.7 -24.75 15.2 -23.75 17.25 -23.7 17.3 -24.0 17.6 M-22.4 3.35 Q-23.2 3.35 -23.4 2.6 -23.85 1.3 -22.65 0.8 -21.25 0.85 -21.3 2.3 -21.35 3.3 -22.4 3.35" fill="#ffffff" fill-rule="evenodd" stroke="none"/>
    <path d="M24.85 -5.55 Q25.5 -2.85 24.7 -0.2 L24.45 1.0 Q24.25 1.9 23.35 2.6 L21.85 2.8 20.9 1.95 19.75 0.25 Q19.05 -1.05 18.45 -2.65 18.25 -3.15 18.2 -3.7 L19.1 -4.2 20.6 -1.3 21.35 -0.1 21.5 0.0 Q22.0 0.25 22.15 -0.25 L22.85 -3.1 23.1 -5.05 24.85 -5.55 M-25.1 9.9 L-25.1 9.8 -23.3 9.05 Q-22.7 10.8 -21.3 12.25 L-19.6 13.75 -18.85 14.2 -18.1 13.65 Q-17.25 11.6 -17.35 9.2 L-17.5 7.2 -14.85 6.8 Q-14.45 9.45 -14.9 12.2 L-15.35 14.25 Q-15.65 15.35 -16.45 16.15 -17.7 17.3 -19.25 17.1 L-20.55 16.8 -21.2 16.1 -23.0 14.1 -23.5 13.25 -25.1 9.95 -25.1 9.9" fill="#dbdce6" fill-rule="evenodd" stroke="none"/>
    <path d="M-8.3 -4.85 L-8.25 -4.85 -8.3 -4.85" fill="#2e3d5c" fill-rule="evenodd" stroke="none"/>
  </g>
</svg>
