<?xml version="1.0" encoding="UTF-8" standalone="no"?>
<svg xmlns:ffdec="https://www.free-decompiler.com/flash" xmlns:xlink="http://www.w3.org/1999/xlink" ffdec:objectType="shape" height="31.65px" width="72.2px" xmlns="http://www.w3.org/2000/svg">
  <g transform="matrix(1.0, 0.0, 0.0, 1.0, 36.1, 15.8)">
    <path d="M32.2 -9.9 L31.5 -10.1 Q30.85 -10.5 30.8 -11.3 30.7 -12.95 29.1 -13.35 L28.45 -13.5 Q25.35 -14.15 22.35 -12.8 L21.8 -12.7 Q18.55 -11.8 16.45 -9.25 L15.8 -8.25 15.8 -8.15 15.75 -7.95 15.7 -7.75 15.6 -7.55 15.6 -7.35 15.5 -6.85 15.4 -6.45 15.35 -6.35 15.4 -6.25 15.5 -6.0 15.4 -5.7 15.3 -5.5 Q14.8 -5.3 14.5 -5.75 L14.25 -6.55 14.25 -6.95 14.3 -7.05 14.35 -7.15 Q14.2 -9.15 15.45 -10.8 16.9 -12.75 19.05 -13.65 21.95 -14.95 25.0 -15.6 28.5 -16.3 31.45 -14.4 32.75 -13.55 33.05 -12.0 L33.3 -11.15 Q33.4 -10.55 33.1 -10.05 32.8 -9.45 32.25 -9.9 L32.2 -9.9 M-6.65 -0.65 Q-5.85 0.15 -6.2 1.25 -6.6 2.4 -7.6 2.85 -8.3 3.2 -8.8 2.6 -9.25 2.0 -9.0 1.45 L-9.5 0.55 -9.8 0.05 Q-12.8 -1.1 -16.1 -0.95 -20.95 -0.65 -25.05 1.8 -27.25 3.1 -28.85 5.1 L-29.4 5.75 -31.05 7.8 -31.3 7.9 -31.75 7.8 -31.85 7.9 -32.0 7.95 -32.05 7.95 -32.15 8.0 -32.35 7.95 -32.5 7.8 -32.55 7.75 -32.6 7.65 -32.25 7.0 -32.05 6.45 Q-31.4 4.65 -30.0 3.2 L-27.4 0.9 Q-25.35 -0.9 -22.85 -2.2 -20.4 -3.4 -17.8 -3.9 -14.0 -4.45 -10.5 -3.05 -8.3 -2.2 -6.65 -0.65" fill="#e2e7f1" fill-rule="evenodd" stroke="none"/>
    <path d="M32.15 -11.5 L32.25 -11.4 32.45 -11.1 32.6 -10.85 32.25 -10.8 31.35 -11.25 32.15 -11.5 M32.9 -10.45 L32.9 -10.4 33.15 -10.0 33.15 -9.85 Q32.7 -9.9 32.35 -10.1 L32.35 -10.2 32.9 -10.45 M28.95 -5.15 L29.15 -4.6 29.15 -4.25 28.65 -3.05 28.15 -2.15 26.7 -0.35 26.45 -0.15 26.3 -0.05 25.7 -0.45 26.1 -0.95 27.15 -1.75 27.6 -2.05 27.15 -2.4 27.45 -3.05 27.9 -3.55 28.2 -3.75 28.4 -4.0 27.8 -3.95 28.05 -4.35 28.35 -4.7 28.95 -5.15 M26.25 0.0 L24.1 1.25 24.0 1.3 Q22.65 1.95 21.15 2.05 L20.1 2.05 19.55 1.9 18.1 1.15 16.5 -0.75 16.5 -1.0 16.75 -1.3 17.15 -0.65 17.25 -0.05 17.45 -0.05 17.5 -0.15 18.2 0.3 18.2 0.75 18.25 0.8 18.4 0.9 18.65 0.65 18.7 0.6 19.45 0.9 19.8 1.55 20.0 1.0 21.1 1.1 21.65 1.7 21.7 1.65 21.8 1.5 21.8 1.1 23.8 1.25 24.1 1.25 24.05 1.1 23.95 1.05 24.2 0.75 24.45 0.45 25.15 0.0 26.25 0.0 M15.0 -4.6 L14.75 -5.25 Q14.4 -6.0 14.55 -6.6 14.95 -8.45 16.2 -9.7 18.7 -12.1 21.95 -13.1 25.7 -14.4 29.5 -13.55 29.8 -13.2 29.05 -13.4 L28.5 -13.35 Q30.65 -13.0 32.0 -11.65 L30.35 -11.95 30.95 -12.3 28.3 -12.8 24.8 -13.0 Q20.95 -12.85 17.8 -10.6 14.75 -8.3 15.0 -4.6 M-9.95 -0.8 L-10.8 -1.15 -12.6 -1.6 -13.25 -1.65 -11.5 -2.1 -10.45 -2.25 -10.05 -2.35 -10.0 -1.6 -9.95 -0.8 M-33.1 9.05 L-33.3 9.6 -33.2 9.25 -33.15 9.1 -33.1 9.05 M-33.25 10.0 L-32.05 7.9 Q-30.65 5.75 -28.6 3.95 -23.5 -0.8 -15.55 -1.35 L-15.25 -1.35 -14.85 -1.35 -11.75 -0.9 -11.3 -0.75 -9.2 0.7 -11.75 -0.2 -12.7 -0.25 -14.35 -0.35 -15.95 -0.35 -17.1 -0.25 Q-22.95 0.35 -27.1 4.3 L-28.4 5.95 -28.7 6.4 -30.15 8.05 -31.5 9.2 -29.95 8.65 -30.75 9.6 -30.85 9.7 -31.1 9.95 -32.05 11.0 -32.0 10.25 -31.6 8.75 -31.5 8.4 -31.15 7.85 -31.5 8.05 Q-32.4 8.8 -32.75 9.65 L-33.25 10.0 M-8.65 1.1 L-8.15 1.2 -8.15 1.15 -8.2 1.05 -10.7 -0.7 -7.7 0.65 -7.5 2.15 -8.95 1.45 -9.0 1.35 -8.65 1.1 M-10.75 8.2 L-10.45 8.4 -10.65 8.4 -10.75 8.2 M-10.3 8.9 Q-10.3 9.85 -10.9 10.7 L-11.25 11.15 -11.7 11.55 -13.5 13.05 -14.25 13.65 -15.35 14.25 -18.05 15.4 -18.25 15.4 -21.2 15.8 -22.7 15.85 -22.95 15.8 Q-23.9 15.6 -24.7 15.2 L-25.35 14.8 -25.8 14.3 -26.0 14.05 -26.0 13.65 -25.4 13.5 -24.6 13.8 -24.7 13.95 -24.5 14.0 -24.7 14.65 -23.75 14.3 -22.85 14.45 -22.95 15.25 -21.85 14.65 -20.8 14.75 -20.55 15.55 -20.0 14.75 -18.65 14.6 -18.1 15.3 -17.75 14.65 -16.65 14.05 -15.75 14.4 -15.7 14.3 -15.75 14.1 Q-15.15 12.75 -13.6 13.0 L-13.05 12.3 -11.7 11.55 -12.3 10.95 Q-11.55 9.8 -10.6 9.15 L-10.3 8.9 M-31.5 13.0 L-31.7 12.6 -31.1 12.5 -30.95 12.4 -31.5 13.0 M-31.9 12.1 L-32.05 11.15 -30.65 10.7 -30.75 11.15 -31.9 12.15 -31.9 12.1" fill="#e2e7f1" fill-rule="evenodd" stroke="none"/>
    <path d="M32.15 -11.5 L31.35 -11.25 32.25 -10.8 32.6 -10.85 34.0 -11.0 33.25 -10.55 32.9 -10.45 32.35 -10.2 32.35 -10.1 Q32.7 -9.9 33.15 -9.85 L34.6 -10.15 36.1 -10.6 34.5 -9.3 32.75 -8.75 32.35 -8.65 31.8 -8.1 31.05 -7.55 Q30.6 -7.15 30.3 -7.55 L30.6 -8.05 30.65 -8.75 30.7 -8.8 30.7 -9.1 30.2 -9.55 Q29.35 -10.25 28.25 -10.45 L27.8 -10.2 26.1 -10.65 26.4 -10.6 25.6 -10.75 25.6 -10.6 25.4 -10.3 Q25.25 -7.5 25.45 -4.65 L25.65 -4.1 27.95 -5.65 29.15 -5.25 28.95 -5.15 28.35 -4.7 28.05 -4.35 27.8 -3.95 28.4 -4.0 28.2 -3.75 27.9 -3.55 27.45 -3.05 27.15 -2.4 27.6 -2.05 27.15 -1.75 26.1 -0.95 25.7 -0.45 26.3 -0.05 26.25 0.0 25.15 0.0 24.45 0.45 24.2 0.75 23.95 1.05 24.05 1.1 24.1 1.25 23.8 1.25 21.8 1.1 21.8 1.5 21.7 1.65 21.65 1.7 21.1 1.1 20.0 1.0 19.8 1.55 19.45 0.9 18.7 0.6 18.65 0.65 18.4 0.9 18.25 0.8 18.2 0.75 18.2 0.3 17.5 -0.15 17.45 -0.05 17.25 -0.05 17.15 -0.65 16.75 -1.3 16.65 -1.45 16.7 -1.85 16.95 -1.95 17.15 -1.8 17.0 -1.95 17.05 -2.05 15.85 -4.35 15.75 -4.2 15.8 -4.1 15.45 -4.15 15.35 -4.3 15.0 -4.6 Q14.75 -8.3 17.8 -10.6 20.95 -12.85 24.8 -13.0 L28.3 -12.8 30.95 -12.3 30.35 -11.95 32.0 -11.65 32.65 -11.65 32.15 -11.5 M24.25 -10.4 L24.2 -10.6 24.15 -10.65 23.5 -10.6 23.8 -9.95 22.1 -10.1 21.3 -9.75 21.25 -9.65 21.55 -8.85 21.45 -8.8 20.8 -8.8 20.75 -8.85 20.7 -8.85 20.6 -8.9 20.2 -9.2 20.2 -8.6 20.25 -7.45 20.0 -6.1 19.8 -6.05 19.05 -8.05 18.2 -7.65 18.8 -7.3 18.7 -7.1 17.5 -6.9 17.1 -6.4 16.95 -6.15 17.25 -5.5 17.15 -5.05 17.45 -4.35 17.35 -4.25 17.4 -4.0 Q18.0 -2.2 19.65 -1.3 L22.1 -1.2 Q23.7 -2.2 24.2 -4.15 24.65 -5.9 24.55 -7.75 L24.3 -10.35 24.25 -10.4 M-9.2 0.7 L-8.65 1.1 -9.0 1.35 -8.95 1.45 -7.5 2.15 -5.35 1.9 -7.4 3.2 -7.35 3.45 -7.3 3.55 -7.4 3.7 -7.8 3.75 Q-9.1 4.1 -9.85 3.3 -9.85 2.85 -10.45 2.55 L-11.95 2.25 -13.05 2.15 -13.9 2.15 -13.5 4.4 -13.35 7.05 -13.4 7.9 Q-13.6 9.15 -13.15 9.1 L-11.95 8.0 -11.65 7.95 -11.05 7.95 -10.8 8.15 -10.75 8.2 -10.65 8.4 -10.45 8.4 -9.7 8.45 -10.3 8.9 -10.6 9.15 Q-11.55 9.8 -12.3 10.95 L-11.7 11.55 -13.05 12.3 -13.6 13.0 Q-15.15 12.75 -15.75 14.1 L-15.7 14.3 -15.75 14.4 -16.65 14.05 -17.75 14.65 -18.1 15.3 -18.65 14.6 -20.0 14.75 -20.55 15.55 -20.8 14.75 -21.85 14.65 -22.95 15.25 -22.85 14.45 -23.75 14.3 -24.7 14.65 -24.5 14.0 -24.45 13.85 -24.6 13.8 -25.4 13.5 -26.0 13.65 -26.15 13.7 -25.6 13.1 -25.55 12.8 -26.35 10.7 -27.0 9.2 -28.7 12.0 -27.7 12.85 -27.65 12.9 -28.45 13.3 Q-29.4 13.1 -30.25 13.8 L-30.85 14.0 -33.05 14.75 -35.2 15.15 -35.35 15.2 -35.55 15.35 -36.1 15.3 Q-33.35 14.6 -31.5 13.0 L-30.95 12.4 -31.1 12.5 -31.7 12.6 -32.65 12.75 -31.9 12.1 -31.9 12.15 -30.75 11.15 -30.65 10.7 -32.05 11.15 -32.25 11.2 -32.05 11.0 -31.1 9.95 -30.85 9.7 -30.75 9.6 -29.95 8.65 -31.5 9.2 -30.15 8.05 -28.7 6.4 -28.4 5.95 -27.1 4.3 Q-22.95 0.35 -17.1 -0.25 L-15.95 -0.35 -14.35 -0.35 -12.7 -0.25 -11.75 -0.2 -9.2 0.7 M-25.75 7.5 L-25.8 7.5 -26.3 8.2 -25.75 9.3 -25.1 10.45 -23.9 12.05 Q-22.8 13.4 -21.0 13.45 L-18.8 13.0 Q-17.25 12.35 -16.3 10.75 L-15.8 9.6 Q-15.45 8.1 -15.4 6.55 L-15.5 2.9 -15.55 2.25 -16.3 2.35 -16.45 2.35 -17.6 2.6 Q-18.35 2.75 -19.05 3.05 L-19.4 3.15 -20.55 3.7 Q-20.45 4.85 -20.5 6.0 L-20.7 8.2 -21.6 7.05 -22.95 4.9 -23.75 5.45 -24.25 5.95 -24.3 6.0 -24.65 6.35 -25.75 7.5 M-21.25 13.8 L-21.6 13.8 -21.25 13.8" fill="#000000" fill-rule="evenodd" stroke="none"/>
    <path d="M14.75 -5.25 Q14.1 -5.6 14.35 -7.05 14.5 -7.9 15.05 -8.75 17.15 -11.85 20.8 -13.05 L24.7 -14.05 Q28.1 -14.45 31.05 -12.95 L29.5 -13.55 Q25.7 -14.4 21.95 -13.1 18.7 -12.1 16.2 -9.7 14.95 -8.45 14.55 -6.6 14.4 -6.0 14.75 -5.25 M-9.95 -0.8 L-8.5 0.0 -7.75 0.6 -7.7 0.65 -10.7 -0.7 -8.2 1.05 -8.15 1.15 -8.15 1.2 -8.65 1.1 -9.2 0.7 -11.3 -0.75 -11.75 -0.9 -14.85 -1.35 -15.25 -1.35 -15.55 -1.35 Q-23.5 -0.8 -28.6 3.95 -30.65 5.75 -32.05 7.9 L-33.25 10.0 -33.65 10.95 -33.5 10.2 -33.45 10.05 -33.3 9.6 -33.1 9.05 Q-31.65 5.3 -27.6 2.4 -21.55 -2.1 -13.25 -1.65 L-12.6 -1.6 -10.8 -1.15 -9.95 -0.8" fill="#7b5840" fill-rule="evenodd" stroke="none"/>
    <path d="M30.3 -7.55 L27.95 -5.65 25.65 -4.1 25.45 -4.65 Q25.25 -7.5 25.4 -10.3 L25.6 -10.6 25.95 -10.65 26.1 -10.65 27.8 -10.2 28.25 -10.45 Q29.35 -10.25 30.2 -9.55 L30.7 -9.1 30.7 -8.8 30.65 -8.8 30.65 -8.75 30.6 -8.05 30.3 -7.55 M16.7 -1.85 L15.45 -4.15 15.8 -4.1 15.75 -4.2 15.85 -4.35 17.05 -2.05 17.0 -1.95 16.95 -1.95 16.7 -1.85 M-9.85 3.3 L-10.05 4.55 Q-10.35 6.35 -11.05 7.95 L-11.65 7.95 -11.95 8.0 -13.15 9.1 Q-13.6 9.15 -13.4 7.9 L-13.35 7.05 -13.5 4.4 -13.9 2.15 -13.05 2.15 -11.95 2.25 -10.45 2.55 Q-9.85 2.85 -9.85 3.3 M-25.6 13.1 L-27.7 12.85 -28.7 12.0 -27.0 9.2 -26.35 10.7 -25.55 12.8 -25.6 13.1" fill="#ffffff" fill-rule="evenodd" stroke="none"/>
    <path d="M21.55 -8.85 L21.25 -9.65 21.3 -9.75 22.1 -10.1 23.8 -9.95 23.5 -10.6 24.15 -10.65 24.2 -10.6 24.25 -10.4 24.25 -10.35 24.3 -10.35 24.55 -7.75 Q24.65 -5.9 24.2 -4.15 23.7 -2.2 22.1 -1.2 L19.65 -1.3 Q18.0 -2.2 17.4 -4.0 L17.35 -4.25 17.45 -4.35 17.15 -5.05 17.25 -5.5 16.95 -6.15 18.15 -5.9 17.15 -5.05 18.2 -5.0 18.1 -4.8 Q18.75 -3.0 20.25 -1.7 L21.75 -1.9 Q22.6 -2.45 22.85 -3.5 L23.25 -5.8 23.35 -8.15 23.1 -9.3 21.55 -8.85 M17.1 -6.4 L17.5 -6.9 18.7 -7.1 18.8 -7.3 18.2 -7.65 19.05 -8.05 19.8 -6.05 20.0 -6.1 20.25 -7.45 20.2 -8.6 20.2 -9.2 20.6 -8.9 20.7 -8.85 20.75 -8.85 20.8 -8.8 21.45 -8.8 20.35 -4.4 20.15 -4.35 19.9 -4.5 19.0 -5.8 18.9 -5.95 18.5 -5.35 18.75 -5.95 17.1 -6.4 M-16.45 2.35 L-16.3 2.35 -15.55 2.25 -15.5 2.9 -15.4 6.55 Q-15.45 8.1 -15.8 9.6 L-16.3 10.75 Q-17.25 12.35 -18.8 13.0 L-21.0 13.45 Q-22.8 13.4 -23.9 12.05 L-25.1 10.45 -25.75 9.3 -26.3 8.2 -25.8 7.5 -25.75 7.5 -25.1 8.75 -24.6 9.6 -22.8 11.6 -22.15 12.3 Q-21.55 12.7 -20.85 12.6 -19.3 12.8 -18.05 11.65 -17.25 10.85 -16.95 9.75 L-16.5 7.7 Q-16.05 4.95 -16.45 2.35 M-24.25 5.95 L-23.75 5.45 -22.95 4.9 -21.6 7.05 -20.7 8.2 -20.5 6.0 Q-20.45 4.85 -20.55 3.7 L-19.4 3.15 -19.05 3.05 -18.95 4.7 Q-18.85 7.1 -19.7 9.15 L-20.45 9.7 -21.2 9.25 -22.9 7.75 -24.25 5.95" fill="#8189a3" fill-rule="evenodd" stroke="none"/>
    <path d="M16.95 -6.15 L17.1 -6.4 18.75 -5.95 18.5 -5.35 18.2 -5.0 17.15 -5.05 18.15 -5.9 16.95 -6.15" fill="#535b6f" fill-rule="evenodd" stroke="none"/>
    <path d="M21.45 -8.8 L21.55 -8.85 23.1 -9.3 23.35 -8.15 23.25 -5.8 22.85 -3.5 Q22.6 -2.45 21.75 -1.9 L20.25 -1.7 Q18.75 -3.0 18.1 -4.8 L18.2 -5.0 18.5 -5.35 18.9 -5.95 19.0 -5.8 19.9 -4.5 20.15 -4.35 20.35 -4.4 21.45 -8.8 M-25.75 7.5 L-24.65 6.35 -24.3 6.0 -24.25 5.95 -22.9 7.75 -21.2 9.25 -20.45 9.7 -19.7 9.15 Q-18.85 7.1 -18.95 4.7 L-19.05 3.05 Q-18.35 2.75 -17.6 2.6 L-16.45 2.35 Q-16.05 4.95 -16.5 7.7 L-16.95 9.75 Q-17.25 10.85 -18.05 11.65 -19.3 12.8 -20.85 12.6 -21.55 12.7 -22.15 12.3 L-22.8 11.6 -24.6 9.6 -25.1 8.75 -25.75 7.5" fill="#dbdce6" fill-rule="evenodd" stroke="none"/>
  </g>
</svg>
