<?xml version="1.0" encoding="UTF-8" standalone="no"?>
<svg xmlns:ffdec="https://www.free-decompiler.com/flash" xmlns:xlink="http://www.w3.org/1999/xlink" ffdec:objectType="shape" height="25.85px" width="70.4px" xmlns="http://www.w3.org/2000/svg">
  <g transform="matrix(1.0, 0.0, 0.0, 1.0, 35.2, 12.9)">
    <path d="M30.55 -5.9 L30.35 -5.9 29.5 -5.6 28.85 -4.85 29.4 -4.7 29.7 -4.6 29.7 -4.55 29.65 -4.3 29.2 -4.1 28.8 -4.15 28.45 -4.15 27.85 -3.95 27.65 -3.85 27.9 -3.45 27.9 -3.3 27.7 -3.3 26.35 -3.3 25.15 -2.7 25.2 -2.6 25.2 -2.4 25.05 -2.25 24.9 -2.15 24.05 -2.5 22.85 -2.2 23.0 -1.45 21.9 -2.0 20.65 -1.9 20.45 -1.3 19.95 -1.9 19.35 -1.95 19.15 -1.65 19.1 -1.55 18.85 -1.45 18.55 -1.55 18.55 -1.6 18.5 -1.7 18.55 -1.9 17.95 -2.1 17.55 -1.9 17.45 -1.85 17.4 -1.9 17.35 -2.0 17.4 -2.3 17.35 -2.35 16.85 -2.45 16.55 -2.25 16.35 -2.3 16.05 -3.05 15.5 -3.1 15.45 -3.3 15.85 -4.0 16.0 -4.15 16.95 -5.0 Q21.0 -4.25 24.65 -5.8 27.95 -7.1 29.85 -10.0 L30.15 -10.25 30.45 -10.45 30.85 -10.65 31.25 -10.7 31.55 -10.8 31.85 -10.8 31.75 -10.05 32.35 -10.15 32.45 -10.2 33.95 -10.55 35.0 -11.05 35.2 -10.85 32.35 -9.25 31.35 -8.7 31.1 -7.85 31.8 -7.8 32.05 -7.8 32.05 -7.7 32.0 -7.7 31.55 -7.35 31.3 -7.25 30.7 -7.05 30.25 -6.45 30.95 -6.4 31.1 -6.4 31.1 -6.35 30.8 -6.0 30.55 -5.9 M-6.85 4.35 L-9.5 4.95 -10.0 5.4 -9.25 5.4 -9.15 5.45 -9.1 5.5 -9.1 5.55 -9.05 5.6 -9.05 5.65 -9.05 5.75 -9.15 5.8 -9.2 5.9 -9.25 5.95 -9.3 6.05 -9.4 6.15 -10.65 5.95 -11.3 6.5 -11.25 6.5 -10.35 6.6 -10.3 6.7 -10.25 6.95 -12.0 7.05 -12.6 7.7 -12.55 7.85 -12.0 8.55 -11.95 8.6 -12.1 8.8 -12.2 8.8 -12.45 8.8 -12.5 8.8 -13.05 8.6 -13.85 8.35 -14.55 8.95 -13.8 9.55 -13.75 9.6 -13.85 9.7 -13.85 9.85 -14.25 9.8 -14.6 9.8 -15.45 9.4 -16.5 10.0 -16.35 10.45 -16.65 10.8 -16.7 10.85 -17.0 10.75 -18.2 10.7 -18.4 11.5 -18.5 11.7 -18.75 11.6 -19.15 11.05 -20.25 11.4 -20.65 12.45 -20.7 12.55 -20.8 12.5 -21.35 12.2 -21.5 11.95 -22.3 11.75 -23.2 12.65 -23.35 12.4 -23.65 11.95 -23.85 11.85 -24.2 12.15 -24.95 12.8 -25.0 12.85 -25.3 12.95 -25.7 12.85 -25.7 12.8 -25.75 11.75 -26.4 11.8 -27.85 12.4 -28.3 12.6 -28.6 12.4 -28.75 12.2 -28.75 12.15 -28.8 12.0 -28.75 11.65 -28.55 11.2 -29.75 11.7 -31.95 12.5 -32.75 12.7 -33.55 12.75 -35.1 12.7 -35.2 12.65 -35.0 12.65 -33.4 12.0 Q-32.1 11.55 -31.25 10.6 L-30.75 9.85 -31.85 9.85 -32.55 9.8 -32.05 9.5 -31.2 8.9 -31.5 8.35 -32.3 8.3 -32.45 8.3 -32.3 8.25 Q-30.55 7.5 -28.7 7.85 L-25.35 8.6 -20.85 7.75 Q-18.4 7.25 -16.2 6.1 -13.15 4.55 -10.15 2.35 L-10.05 2.35 -8.8 2.65 -8.45 2.9 Q-7.9 3.25 -7.3 3.55 L-6.4 3.8 -6.3 3.85 -6.35 3.9 -6.35 4.0 -6.4 4.1 -6.5 4.15 -6.85 4.35" fill="#000000" fill-rule="evenodd" stroke="none"/>
    <path d="M29.4 -4.7 L28.85 -4.85 29.5 -5.6 30.35 -5.9 30.55 -5.9 29.85 -5.2 29.4 -4.7 M30.95 -6.4 L30.25 -6.45 30.7 -7.05 31.3 -7.25 31.55 -7.35 30.95 -6.4 M31.8 -7.8 L31.1 -7.85 31.35 -8.7 32.35 -9.25 31.9 -8.05 31.8 -7.8 M32.45 -10.2 L32.35 -10.15 31.75 -10.05 31.85 -10.8 31.55 -10.8 31.25 -10.7 30.85 -10.65 30.45 -10.45 30.15 -10.25 29.85 -10.0 Q27.95 -7.1 24.65 -5.8 21.0 -4.25 16.95 -5.0 L16.0 -4.15 15.85 -4.0 15.45 -3.3 15.5 -3.1 16.05 -3.05 16.35 -2.3 16.55 -2.25 16.85 -2.45 17.35 -2.35 17.4 -2.3 17.35 -2.0 17.4 -1.9 17.45 -1.85 17.55 -1.9 17.95 -2.1 18.55 -1.9 18.5 -1.7 18.55 -1.6 18.55 -1.55 18.85 -1.45 19.1 -1.55 19.15 -1.65 19.35 -1.95 19.95 -1.9 20.45 -1.3 20.65 -1.9 21.9 -2.0 23.0 -1.45 22.85 -2.2 24.05 -2.5 24.9 -2.15 25.05 -2.25 25.2 -2.4 25.2 -2.6 25.15 -2.7 26.35 -3.3 27.7 -3.3 25.65 -2.3 25.4 -2.2 25.2 -2.15 Q23.85 -1.5 22.35 -1.3 L20.7 -1.25 19.35 -1.35 18.2 -1.55 17.0 -1.75 Q16.4 -1.8 15.95 -2.25 L15.6 -2.7 Q14.75 -3.25 14.6 -4.25 L14.6 -4.3 14.65 -4.35 14.4 -4.8 Q14.25 -6.2 15.65 -6.95 17.85 -8.15 20.35 -8.4 22.85 -8.65 25.05 -10.0 L28.45 -12.1 Q29.55 -12.75 30.8 -12.9 32.4 -12.8 32.35 -11.25 L32.25 -10.75 32.35 -10.6 32.45 -10.2 M27.9 -3.45 L27.65 -3.85 27.85 -3.95 28.45 -4.15 28.8 -4.15 28.5 -3.9 27.9 -3.45 M26.55 -9.15 L26.25 -8.9 Q23.6 -7.2 20.25 -6.75 18.7 -6.85 17.1 -6.2 L15.45 -5.25 Q14.2 -4.4 15.4 -5.05 L15.6 -5.25 15.05 -4.0 15.1 -4.0 Q15.4 -4.05 15.55 -4.55 15.8 -5.55 16.95 -5.9 20.4 -6.05 23.6 -7.25 27.0 -8.55 29.75 -10.9 L28.75 -10.35 26.55 -9.15 M-12.0 8.55 L-12.55 7.85 -12.6 7.7 -12.0 7.05 -10.25 6.95 -10.3 6.7 -10.35 6.6 -11.25 6.5 -11.3 6.5 -10.65 5.95 -9.4 6.15 -9.3 6.05 -9.25 5.95 -9.2 5.9 -9.15 5.8 -9.05 5.75 -9.05 5.65 -9.05 5.6 -9.1 5.55 -9.1 5.5 -9.15 5.45 -9.25 5.4 -10.0 5.4 -9.5 4.95 -6.85 4.35 -7.3 4.65 -7.45 4.8 -8.6 5.8 -9.55 6.65 -10.8 7.7 -12.0 8.55 M-6.4 3.8 L-7.3 3.55 Q-7.9 3.25 -8.45 2.9 L-8.8 2.65 -10.05 2.35 -10.15 2.35 Q-13.15 4.55 -16.2 6.1 -18.4 7.25 -20.85 7.75 L-25.35 8.6 -28.7 7.85 Q-30.55 7.5 -32.3 8.25 L-32.85 7.8 Q-33.15 7.5 -33.0 7.05 -32.7 6.25 -32.05 5.85 L-31.85 5.4 -31.4 5.1 -27.35 4.6 Q-21.05 4.55 -15.45 1.75 -13.05 0.6 -10.6 -0.25 -8.2 -0.55 -6.65 1.4 -5.65 2.6 -6.4 3.8 M-32.3 8.3 L-31.5 8.35 -31.2 8.9 -32.05 9.5 -32.35 8.75 -32.3 8.3 M-31.85 9.85 L-30.75 9.85 -31.25 10.6 -31.4 10.45 -31.85 9.85 M-29.75 11.7 L-28.55 11.2 -28.75 11.65 -28.8 12.0 -28.75 12.15 -29.75 11.7 M-27.85 12.4 L-26.4 11.8 -25.75 11.75 -25.7 12.8 -27.4 12.5 -27.85 12.4 M-24.95 12.8 L-24.2 12.15 -23.85 11.85 -23.65 11.95 -23.35 12.4 -23.2 12.65 -22.3 11.75 -21.5 11.95 -21.35 12.2 -20.8 12.5 -20.9 12.55 -22.25 12.8 -24.95 12.8 M-20.65 12.45 L-20.25 11.4 -19.15 11.05 -18.75 11.6 -18.5 11.7 -18.4 11.5 -18.2 10.7 -17.0 10.75 -16.7 10.85 -16.65 10.8 -16.35 10.45 -16.5 10.0 -15.45 9.4 -14.6 9.8 -14.25 9.8 -14.7 10.05 -17.4 11.35 -20.2 12.35 -20.65 12.45 M-13.8 9.55 L-14.55 8.95 -13.85 8.35 -13.05 8.6 -12.5 8.8 -12.45 8.8 -13.8 9.55 M-12.4 2.5 Q-17.5 5.15 -23.1 6.3 -25.6 6.7 -28.2 6.4 L-31.65 6.7 -27.55 6.9 Q-21.75 7.0 -16.65 4.6 L-11.8 2.3 -12.4 2.5 M-7.65 1.15 L-10.8 2.0 -9.1 1.6 -7.4 2.75 -8.65 1.55 -6.95 1.4 Q-6.95 1.35 -7.65 1.15" fill="#e2e7f1" fill-rule="evenodd" stroke="none"/>
    <path d="M26.55 -9.15 L28.75 -10.35 29.75 -10.9 Q27.0 -8.55 23.6 -7.25 20.4 -6.05 16.95 -5.9 15.8 -5.55 15.55 -4.55 15.4 -4.05 15.1 -4.0 L15.05 -4.0 15.6 -5.25 15.4 -5.05 Q14.2 -4.4 15.45 -5.25 L17.1 -6.2 Q18.7 -6.85 20.25 -6.75 23.6 -7.2 26.25 -8.9 L26.55 -9.15 M-12.4 2.5 L-11.8 2.3 -16.65 4.6 Q-21.75 7.0 -27.55 6.9 L-31.65 6.7 -28.2 6.4 Q-25.6 6.7 -23.1 6.3 -17.5 5.15 -12.4 2.5 M-7.65 1.15 Q-6.95 1.35 -6.95 1.4 L-8.65 1.55 -7.4 2.75 -9.1 1.6 -10.8 2.0 -7.65 1.15" fill="#7b5840" fill-rule="evenodd" stroke="none"/>
  </g>
</svg>
