<?xml version="1.0" encoding="UTF-8" standalone="no"?>
<svg xmlns:ffdec="https://www.free-decompiler.com/flash" xmlns:xlink="http://www.w3.org/1999/xlink" ffdec:objectType="shape" height="14.1px" width="12.25px" xmlns="http://www.w3.org/2000/svg">
  <g transform="matrix(1.0, 0.0, 0.0, 1.0, 6.1, 7.05)">
    <path d="M-3.8 0.0 L-5.45 -0.55 -5.5 -0.5 -5.6 -0.45 -5.75 -0.45 -5.9 -0.45 -6.05 -0.5 -6.1 -0.8 -6.0 -1.05 -5.8 -1.15 -5.65 -1.2 -5.35 -0.9 -4.55 -1.05 Q-3.7 -1.3 -2.9 -1.7 L-1.8 -2.25 -0.15 -3.0 0.95 -3.35 2.15 -3.7 Q2.95 -3.95 3.7 -4.4 L4.9 -5.55 5.25 -6.1 5.45 -6.4 5.45 -6.45 5.65 -6.35 5.5 -5.7 5.6 -5.75 6.1 -5.7 Q6.25 -5.4 6.0 -5.15 L5.75 -4.8 5.55 -4.6 5.4 -4.15 4.95 -2.7 4.7 -1.7 Q4.45 -0.85 3.65 -0.4 L3.05 -0.15 1.55 0.3 -0.2 0.4 -1.8 0.35 -2.25 0.25 -3.25 0.1 -3.35 0.05 -3.75 -0.05 -3.8 0.0 M5.15 -5.05 L4.05 -4.15 4.65 -3.45 4.65 -3.4 4.9 -3.35 5.2 -4.75 5.25 -4.95 5.15 -5.05 M-3.9 -0.4 L-3.75 -0.3 -2.9 -0.2 -2.9 -0.15 -2.8 -0.15 Q-2.55 -0.75 -2.55 -1.35 L-2.55 -1.4 -4.35 -0.75 -4.2 -0.5 -3.9 -0.4 M-2.35 0.0 L0.45 0.15 2.25 -0.1 3.45 -0.5 3.85 -0.8 4.45 -1.55 4.85 -3.1 4.4 -3.25 4.4 -3.3 4.35 -3.35 4.3 -3.35 4.1 -3.7 3.85 -4.05 2.6 -3.5 0.6 -2.95 0.0 -2.75 -1.45 -2.0 -2.15 -1.7 -2.6 -0.15 -2.35 0.0" fill="#000000" fill-rule="evenodd" stroke="none"/>
    <path d="M-3.8 0.0 L-3.75 -0.05 -3.35 0.05 -3.25 0.15 -3.25 0.1 -2.25 0.25 -1.8 0.35 -0.2 0.4 1.55 0.3 3.05 -0.15 3.65 -0.4 Q4.45 -0.85 4.7 -1.7 L4.95 -2.7 5.4 -4.15 5.55 -4.6 5.75 -4.8 5.7 -4.35 5.55 -2.85 Q5.55 -2.2 5.7 -1.55 L5.9 -0.7 5.95 0.65 Q5.75 1.65 4.95 2.3 L4.05 2.75 3.3 2.9 2.15 2.95 0.05 2.3 -1.9 1.3 -2.1 1.15 -2.35 1.0 -3.8 0.0 M6.1 -5.7 L5.6 -5.75 5.5 -5.7 5.65 -6.35 5.45 -6.45 5.45 -6.4 5.25 -6.1 4.9 -5.55 3.7 -4.4 Q2.95 -3.95 2.15 -3.7 L0.95 -3.35 -0.15 -3.0 -1.8 -2.25 -2.9 -1.7 -1.9 -2.6 -0.85 -3.55 -0.05 -4.3 1.2 -5.05 2.05 -5.35 2.7 -5.65 4.1 -6.6 Q4.65 -7.05 5.35 -7.05 L5.6 -6.9 6.0 -6.35 6.1 -5.7 M5.15 -5.05 L5.25 -4.95 5.2 -4.75 4.9 -3.35 4.65 -3.4 4.65 -3.45 4.05 -4.15 5.15 -5.05 M-3.9 -0.4 L-4.2 -0.5 -4.35 -0.75 -2.55 -1.4 -2.55 -1.35 Q-2.55 -0.75 -2.8 -0.15 L-2.9 -0.15 -2.9 -0.2 -3.75 -0.3 -3.9 -0.4" fill="#ffffff" fill-rule="evenodd" stroke="none"/>
    <path d="M-2.35 0.0 L-2.6 -0.15 -2.15 -1.7 -1.45 -2.0 0.0 -2.75 0.6 -2.95 2.6 -3.5 3.85 -4.05 4.1 -3.7 4.3 -3.35 4.35 -3.35 4.4 -3.3 4.4 -3.25 4.85 -3.1 4.45 -1.55 3.85 -0.8 3.45 -0.5 2.25 -0.1 0.45 0.15 -2.35 0.0" fill="#990000" fill-rule="evenodd" stroke="none"/>
    <path d="M3.4 3.8 Q3.75 3.85 4.1 4.05 L4.5 4.5 Q4.75 5.05 4.6 5.7 L4.45 6.1 4.1 6.5 Q3.75 6.9 3.25 7.0 L2.55 6.85 2.1 6.35 Q1.6 5.55 2.05 4.75 2.5 3.95 3.4 3.8" fill="#e3c4b3" fill-rule="evenodd" stroke="none"/>
  </g>
</svg>
