<?xml version="1.0" encoding="UTF-8" standalone="no"?>
<svg xmlns:ffdec="https://www.free-decompiler.com/flash" xmlns:xlink="http://www.w3.org/1999/xlink" ffdec:objectType="shape" height="15.8px" width="12.25px" xmlns="http://www.w3.org/2000/svg">
  <g transform="matrix(1.0, 0.0, 0.0, 1.0, 6.1, 7.9)">
    <path d="M-3.75 0.05 L-4.95 -0.75 -5.5 -1.35 -6.05 -1.35 -6.1 -1.7 -6.0 -1.9 -5.8 -2.0 -5.65 -2.05 -5.35 -1.75 -4.55 -1.9 Q-3.7 -2.15 -2.9 -2.55 L-1.8 -3.1 -0.15 -3.85 0.95 -4.2 2.15 -4.55 Q2.95 -4.8 3.7 -5.25 L4.9 -6.4 5.25 -6.95 5.45 -7.25 5.45 -7.3 5.65 -7.2 5.5 -6.55 5.6 -6.6 6.1 -6.55 Q6.25 -6.25 6.0 -6.0 L5.75 -5.65 5.5 -5.65 5.15 -3.75 4.95 -2.5 4.6 -1.35 3.85 0.0 Q3.35 0.6 2.6 0.85 L1.45 1.1 0.15 1.2 -0.65 1.1 -0.55 1.1 -1.95 0.8 -3.2 0.35 -3.75 0.05 M5.2 -5.75 L5.25 -5.8 5.15 -5.9 4.25 -5.15 4.1 -5.05 4.95 -4.1 5.2 -5.65 5.2 -5.75 M-2.55 -2.25 L-4.3 -1.6 -4.1 -1.4 -3.35 -0.85 -3.05 -0.9 -2.65 -1.7 -2.65 -1.75 -2.65 -1.85 -2.55 -2.15 -2.55 -2.25 M-2.15 -2.55 L-2.55 -1.2 -2.65 -1.2 -2.95 -0.7 -3.5 -0.65 -4.4 -1.25 -4.65 -1.4 -5.3 -1.35 Q-4.1 -0.2 -2.55 0.4 L0.45 0.95 2.9 0.4 3.75 -0.3 4.15 -1.0 4.75 -2.8 4.9 -3.8 3.95 -4.8 3.9 -4.85 3.8 -4.9 3.8 -4.85 2.6 -4.35 0.6 -3.8 0.0 -3.6 -1.45 -2.85 -2.15 -2.55" fill="#000000" fill-rule="evenodd" stroke="none"/>
    <path d="M-3.75 0.05 L-3.2 0.35 -1.95 0.8 -0.55 1.1 -0.65 1.1 0.15 1.2 1.45 1.1 2.6 0.85 Q3.35 0.6 3.85 0.0 L4.6 -1.35 4.95 -2.5 5.15 -3.75 5.1 -2.3 5.15 -1.3 5.3 -0.25 5.2 1.3 4.4 2.6 Q3.85 3.1 3.15 3.4 L1.75 3.75 0.25 3.45 -0.7 2.85 -1.95 1.95 -3.05 1.0 -3.55 0.45 -3.75 0.1 -3.75 0.05 M6.1 -6.55 L5.6 -6.6 5.5 -6.55 5.65 -7.2 5.45 -7.3 5.45 -7.25 5.25 -6.95 4.9 -6.4 3.7 -5.25 Q2.95 -4.8 2.15 -4.55 L0.95 -4.2 -0.15 -3.85 -1.8 -3.1 -2.9 -2.55 -1.9 -3.45 -0.85 -4.4 -0.05 -5.15 1.2 -5.9 2.05 -6.2 2.7 -6.5 4.1 -7.45 Q4.65 -7.9 5.35 -7.9 L5.6 -7.75 6.0 -7.2 6.1 -6.55 M5.2 -5.75 L5.2 -5.65 4.95 -4.1 4.1 -5.05 4.25 -5.15 5.15 -5.9 5.25 -5.8 5.2 -5.75 M-2.55 -2.25 L-2.55 -2.15 -2.65 -1.85 -2.65 -1.75 -2.65 -1.7 -3.05 -0.9 -3.35 -0.85 -4.1 -1.4 -4.3 -1.6 -2.55 -2.25" fill="#ffffff" fill-rule="evenodd" stroke="none"/>
    <path d="M-2.15 -2.55 L-1.45 -2.85 0.0 -3.6 0.6 -3.8 2.6 -4.35 3.8 -4.85 3.8 -4.9 3.9 -4.85 3.95 -4.8 4.9 -3.8 4.75 -2.8 4.15 -1.0 3.75 -0.3 2.9 0.4 0.45 0.95 -2.55 0.4 Q-4.1 -0.2 -5.3 -1.35 L-4.65 -1.4 -4.4 -1.25 -3.5 -0.65 -2.95 -0.7 -2.65 -1.2 -2.55 -1.2 -2.15 -2.55" fill="#990000" fill-rule="evenodd" stroke="none"/>
    <path d="M1.5 6.95 Q1.25 6.2 1.65 5.55 2.1 4.85 2.9 4.7 L3.5 4.9 Q4.2 5.3 4.2 6.1 L4.1 6.6 3.25 7.7 2.1 7.75 Q1.65 7.4 1.5 6.95" fill="#e3c4b3" fill-rule="evenodd" stroke="none"/>
  </g>
</svg>
