<?xml version="1.0" encoding="UTF-8" standalone="no"?>
<svg xmlns:ffdec="https://www.free-decompiler.com/flash" xmlns:xlink="http://www.w3.org/1999/xlink" ffdec:objectType="shape" height="113.35px" width="133.05px" xmlns="http://www.w3.org/2000/svg">
  <g transform="matrix(1.0, 0.0, 0.0, 1.0, 66.5, 56.8)">
    <path d="M-48.65 55.25 Q-51.75 56.15 -54.85 56.45 L-60.8 56.25 Q-62.45 56.0 -63.9 55.3 L-65.95 54.15 -66.4 50.4 -66.45 46.5 Q-66.2 42.05 -65.35 37.7 -64.5 33.35 -63.0 29.2 -62.25 27.1 -61.05 25.25 -59.65 23.05 -58.05 21.05 L-53.35 15.25 -48.7 9.5 -43.85 3.95 -36.55 -3.8 Q-32.9 -7.65 -29.45 -11.85 L-24.3 -18.1 -20.55 -22.95 -16.85 -28.0 -7.95 -40.6 -2.6 -47.9 -0.7 -50.35 1.95 -52.95 Q3.6 -54.25 5.5 -55.3 8.2 -56.65 11.1 -56.6 L11.95 -56.55 Q23.7 -55.65 34.85 -52.4 L37.1 -51.85 Q41.9 -51.05 46.25 -49.5 L47.15 -48.95 49.05 -46.95 50.9 -44.8 50.95 -44.8 51.0 -44.75 51.8 -43.9 53.85 -41.55 54.1 -41.2 54.8 -40.45 54.95 -40.25 55.0 -40.25 56.0 -39.2 59.1 -36.45 61.85 -34.3 65.55 -31.3 65.6 -31.2 65.45 -30.6 65.15 -30.15 64.8 -29.95 64.15 -29.65 62.55 -29.4 61.05 -29.8 59.75 -30.25 58.7 -30.85 58.4 -31.05 Q53.95 -34.55 49.7 -38.15 L46.75 -40.7 45.8 -41.45 44.9 -40.95 Q44.85 -40.7 44.95 -40.35 L46.45 -34.45 46.6 -33.9 Q46.75 -32.75 47.05 -31.6 L47.8 -28.75 48.3 -26.65 48.7 -25.2 49.3 -22.9 49.35 -22.7 49.85 -20.5 50.45 -17.85 50.5 -17.65 50.6 -16.9 50.5 -16.25 50.4 -16.15 48.9 -15.15 48.75 -15.1 47.75 -15.1 47.75 -15.05 46.4 -12.8 45.85 -12.7 Q44.7 -12.65 43.75 -13.3 L43.3 -13.55 43.05 -13.9 Q42.05 -15.0 41.35 -16.3 L40.9 -17.2 40.8 -17.45 39.5 -20.1 38.85 -21.45 37.6 -24.1 36.9 -25.8 36.5 -26.85 36.0 -28.25 35.35 -30.05 34.45 -32.95 33.75 -36.75 Q33.9 -34.1 33.55 -31.5 L33.2 -29.6 32.8 -28.25 32.5 -27.45 32.35 -27.1 32.25 -26.9 29.45 -21.95 27.55 -19.0 27.4 -18.9 27.35 -18.85 27.1 -18.7 Q26.3 -18.2 25.25 -18.05 L24.7 -18.05 24.6 -18.1 24.25 -18.55 24.05 -19.0 23.8 -19.8 Q23.65 -20.55 23.75 -21.25 23.9 -22.75 24.45 -24.1 25.0 -25.45 25.85 -26.7 L27.3 -29.25 27.65 -30.05 Q28.15 -31.1 28.0 -32.15 L27.8 -33.25 27.7 -33.65 27.7 -33.7 27.45 -34.4 26.7 -37.25 26.7 -37.3 26.3 -37.55 Q24.45 -36.8 22.85 -35.7 L20.3 -33.4 Q19.15 -31.85 17.3 -30.95 15.25 -29.95 13.05 -30.05 L13.0 -30.05 Q11.5 -30.15 10.6 -31.3 L9.45 -29.2 8.65 -27.85 0.95 -14.1 -2.3 -7.65 -3.0 -6.2 -6.8 1.7 -7.3 2.85 -19.9 30.3 -20.55 31.55 -21.8 34.1 -22.5 35.3 -23.25 36.6 -24.8 39.0 -26.35 41.25 -26.85 41.95 -26.95 42.1 -31.25 46.4 Q-32.8 47.9 -34.65 49.15 -38.2 51.5 -41.95 53.05 L-38.2 51.05 Q-30.9 46.55 -25.95 39.15 -23.85 36.05 -22.35 32.55 -7.1 -3.05 12.75 -36.6 13.55 -36.95 14.2 -37.5 15.75 -38.7 16.75 -40.2 14.65 -35.5 10.9 -31.7 17.9 -29.75 22.0 -36.2 L19.95 -36.3 26.7 -38.2 24.85 -39.2 25.85 -39.0 Q36.35 -37.8 46.55 -41.95 L48.35 -43.7 46.7 -41.7 Q52.5 -35.6 59.35 -30.85 61.6 -29.35 63.85 -30.05 L65.1 -30.55 65.15 -30.6 65.3 -31.0 65.25 -31.3 65.0 -31.45 64.8 -31.6 61.55 -34.2 Q57.15 -37.4 53.5 -41.45 L48.0 -47.55 46.9 -48.4 46.4 -48.7 Q42.4 -50.3 38.1 -51.25 L34.55 -52.05 Q23.75 -54.7 12.55 -55.95 L11.25 -55.95 7.4 -55.3 5.7 -54.65 Q3.1 -53.25 1.1 -50.95 L-2.0 -47.2 -6.7 -40.2 -10.65 -34.6 -15.5 -27.85 -19.0 -23.1 -24.6 -15.85 Q-27.35 -12.25 -30.5 -8.8 L-34.0 -5.05 -39.75 1.35 -44.45 6.45 -49.05 11.65 -53.7 16.8 -56.2 20.0 Q-58.55 23.5 -60.45 27.25 -62.25 30.9 -63.5 34.85 -64.35 37.4 -64.75 40.2 -65.5 45.1 -65.35 50.1 L-65.3 50.7 -64.75 53.75 -64.25 54.15 -62.05 55.1 Q-55.1 56.55 -48.65 55.25 M40.1 -38.4 L41.1 -33.95 42.75 -27.45 44.65 -20.9 45.35 -18.75 Q46.1 -16.7 48.4 -15.85 L49.3 -16.1 49.4 -16.15 49.45 -16.2 50.2 -17.1 44.35 -40.55 39.95 -39.55 40.1 -38.4 M34.35 -38.15 Q34.4 -37.2 34.6 -36.25 L36.25 -29.75 Q37.55 -25.35 39.6 -21.05 40.9 -18.0 42.7 -15.1 43.65 -13.45 45.55 -13.5 L46.2 -14.05 46.95 -15.5 Q44.85 -18.5 43.75 -21.9 40.95 -30.5 38.65 -39.25 L34.35 -38.15 M26.7 -27.2 L26.6 -27.1 26.55 -27.0 26.45 -26.85 Q24.5 -24.05 24.2 -20.45 L24.25 -19.75 Q24.3 -19.3 24.6 -18.9 L24.7 -18.75 24.95 -18.5 26.8 -19.05 27.75 -20.6 28.45 -21.6 Q31.2 -25.05 32.45 -29.1 L32.6 -29.65 32.95 -31.8 32.95 -34.85 32.8 -36.95 32.1 -37.85 27.5 -37.55 27.95 -35.65 Q28.0 -34.95 28.2 -34.3 L28.7 -32.25 28.5 -31.05 28.35 -30.4 27.3 -28.15 27.0 -27.65 26.8 -27.4 26.45 -26.95 26.7 -27.2" fill="#000000" fill-rule="evenodd" stroke="none"/>
    <path d="M-65.3 50.7 L-65.35 50.1 Q-65.5 45.1 -64.75 40.2 -64.35 37.4 -63.5 34.85 -62.25 30.9 -60.45 27.25 -58.55 23.5 -56.2 20.0 L-53.7 16.8 -49.05 11.65 -44.45 6.45 -39.75 1.35 -34.0 -5.05 -30.5 -8.8 Q-27.35 -12.25 -24.6 -15.85 L-19.0 -23.1 -15.5 -27.85 -10.65 -34.6 -6.7 -40.2 -2.0 -47.2 1.1 -50.95 Q3.1 -53.25 5.7 -54.65 L7.4 -55.3 11.25 -55.95 12.55 -55.95 Q23.75 -54.7 34.55 -52.05 L38.1 -51.25 Q42.4 -50.3 46.4 -48.7 L46.9 -48.4 48.0 -47.55 53.5 -41.45 Q57.15 -37.4 61.55 -34.2 L64.8 -31.6 65.0 -31.45 65.25 -31.3 65.3 -31.0 65.15 -30.6 65.1 -30.55 64.85 -30.6 Q60.2 -31.4 56.55 -35.35 L53.8 -37.75 Q50.4 -40.0 48.95 -43.5 L49.05 -43.9 44.65 -43.5 40.55 -43.1 Q30.3 -41.85 21.15 -45.75 20.1 -46.15 19.4 -46.75 L18.4 -47.55 Q15.95 -45.5 14.6 -42.1 13.9 -40.4 12.4 -38.9 6.2 -32.55 2.4 -24.3 L-0.8 -17.75 Q-7.85 -4.35 -16.15 8.2 L-29.95 29.2 Q-38.4 42.15 -51.25 50.6 -53.65 52.2 -56.3 52.75 -61.65 54.0 -65.3 50.7" fill="#ffe8df" fill-rule="evenodd" stroke="none"/>
    <path d="M-48.65 55.25 Q-55.1 56.55 -62.05 55.1 L-64.25 54.15 -64.75 53.75 -65.3 50.7 Q-61.65 54.0 -56.3 52.75 -53.65 52.2 -51.25 50.6 -38.4 42.15 -29.95 29.2 L-16.15 8.2 Q-7.85 -4.35 -0.8 -17.75 L2.4 -24.3 Q6.2 -32.55 12.4 -38.9 13.9 -40.4 14.6 -42.1 15.95 -45.5 18.4 -47.55 L19.4 -46.75 Q20.1 -46.15 21.15 -45.75 30.3 -41.85 40.55 -43.1 L44.65 -43.5 49.05 -43.9 48.95 -43.5 Q50.4 -40.0 53.8 -37.75 L56.55 -35.35 Q60.2 -31.4 64.85 -30.6 L65.1 -30.55 63.85 -30.05 Q61.6 -29.35 59.35 -30.85 52.5 -35.6 46.7 -41.7 L48.35 -43.7 46.55 -41.95 Q36.35 -37.8 25.85 -39.0 L24.85 -39.2 26.7 -38.2 19.95 -36.3 22.0 -36.2 Q17.9 -29.75 10.9 -31.7 14.65 -35.5 16.75 -40.2 15.75 -38.7 14.2 -37.5 13.55 -36.95 12.75 -36.6 -7.1 -3.05 -22.35 32.55 -23.85 36.05 -25.95 39.15 -30.9 46.55 -38.2 51.05 L-41.95 53.05 -42.6 53.3 -48.25 55.15 -48.55 55.25 -48.65 55.25 M34.35 -38.15 L38.65 -39.25 Q40.95 -30.5 43.75 -21.9 44.85 -18.5 46.95 -15.5 L46.2 -14.05 45.55 -13.5 Q43.65 -13.45 42.7 -15.1 40.9 -18.0 39.6 -21.05 37.55 -25.35 36.25 -29.75 L34.6 -36.25 Q34.4 -37.2 34.35 -38.15 M40.1 -38.4 L39.95 -39.55 44.35 -40.55 50.2 -17.1 49.45 -16.2 49.4 -16.15 49.3 -16.1 48.4 -15.85 Q46.1 -16.7 45.35 -18.75 L44.65 -20.9 42.75 -27.45 41.1 -33.95 40.1 -38.4 M27.0 -27.65 L27.3 -28.15 28.35 -30.4 28.5 -31.05 28.7 -32.25 28.2 -34.3 Q28.0 -34.95 27.95 -35.65 L27.5 -37.55 32.1 -37.85 32.8 -36.95 32.95 -34.85 32.95 -31.8 32.6 -29.65 32.45 -29.1 Q31.2 -25.05 28.45 -21.6 L27.75 -20.6 26.8 -19.05 24.95 -18.5 24.7 -18.75 24.6 -18.9 Q24.3 -19.3 24.25 -19.75 L24.2 -20.45 Q24.5 -24.05 26.45 -26.85 L26.55 -27.0 26.6 -27.1 26.7 -27.2 27.0 -27.65" fill="#e3c4b3" fill-rule="evenodd" stroke="none"/>
    <path d="M9.45 -29.2 L10.6 -31.3 Q11.5 -30.15 13.0 -30.05 L13.05 -30.05 12.85 -29.95 9.5 -28.75 9.45 -29.2 M24.05 -19.0 L24.25 -18.55 24.6 -18.1 24.7 -18.05 25.25 -18.05 Q26.3 -18.2 27.1 -18.7 25.8 -17.2 23.9 -16.35 L23.85 -17.7 24.05 -19.0 M45.85 -12.7 L46.4 -12.8 47.75 -15.05 47.75 -15.0 Q47.9 -13.25 47.65 -11.45 L46.8 -11.75 Q46.05 -12.15 45.85 -12.7 M48.9 -15.15 L50.4 -16.15 50.5 -16.25 50.6 -16.9 51.05 -14.2 Q51.15 -13.75 50.55 -13.35 49.25 -14.0 48.9 -15.15 M64.8 -29.95 L65.15 -30.15 65.45 -30.6 65.6 -31.2 Q66.4 -30.75 66.55 -29.8 L64.8 -29.95" fill="#ef89c5" fill-rule="evenodd" stroke="none"/>
    <path d="M-17.75 20.9 L-19.55 21.95 -20.45 21.5 -20.8 20.25 Q-22.7 20.65 -24.25 19.35 -25.95 17.95 -25.9 15.8 L-27.25 15.5 -28.45 13.4 Q-31.4 14.15 -33.6 11.65 -34.55 10.5 -34.65 9.15 L-36.85 8.55 -37.2 7.75 -39.3 8.65 Q-41.1 9.5 -42.45 8.25 -44.05 6.85 -43.25 4.95 L-44.95 6.0 -45.55 6.15 -46.1 6.2 -46.5 6.05 -44.95 4.75 -43.0 2.75 -28.0 -14.4 Q-17.95 -25.95 -9.6 -38.65 L-7.65 -41.8 Q-5.85 -44.7 -3.2 -47.05 L-3.2 -47.3 0.5 -51.75 Q4.0 -56.2 9.6 -56.8 18.3 -56.4 26.9 -54.25 20.6 -54.25 14.5 -51.95 11.8 -50.85 10.7 -48.35 L14.45 -42.8 15.45 -42.05 15.75 -41.55 15.8 -41.0 15.75 -39.95 16.1 -37.4 14.0 -35.35 Q11.45 -32.4 9.4 -29.05 L6.9 -24.85 4.65 -20.75 3.1 -17.95 Q-6.5 -0.2 -14.35 18.4 L-14.5 18.85 Q-15.1 21.45 -15.3 24.15 -15.45 26.05 -16.35 27.1 L-17.2 26.35 Q-18.45 24.55 -18.05 22.35 L-17.6 21.05 -17.2 22.85 -16.75 25.95 -16.1 22.25 -17.2 22.85 -15.05 19.1 -15.95 17.45 Q-17.6 14.5 -20.3 12.3 L-23.85 9.15 Q-31.35 2.7 -41.25 1.7 L-43.55 4.3 -42.25 4.2 Q-44.0 8.25 -39.7 8.25 -38.9 7.95 -38.25 7.45 -37.3 6.65 -36.45 6.75 L-36.0 8.3 -33.75 7.85 -33.9 9.2 Q-33.4 12.25 -30.15 12.85 L-29.05 12.5 -27.5 12.4 -27.1 14.65 -25.95 14.95 -25.0 14.3 -25.0 15.05 -25.0 15.4 Q-25.2 17.55 -23.65 18.85 L-23.55 18.9 -21.25 19.5 -19.95 18.55 -19.65 21.05 -17.75 20.9 M33.2 -37.55 Q33.3 -38.15 34.0 -38.5 37.0 -39.85 39.95 -39.2 L40.85 -34.4 Q37.95 -31.95 34.15 -33.15 L33.2 -37.55 M22.75 -54.5 L21.15 -54.75 Q14.6 -56.3 7.8 -55.85 5.85 -55.3 4.05 -54.0 0.1 -51.1 -2.05 -47.6 2.85 -49.6 8.15 -48.7 L8.5 -48.9 8.65 -49.0 8.7 -49.0 9.05 -48.85 Q14.55 -54.35 22.75 -54.5 M34.5 -37.65 L34.95 -33.65 Q38.1 -32.65 40.3 -34.9 L39.3 -38.75 34.5 -37.65 M34.95 -34.85 L39.6 -35.6 39.6 -35.55 Q37.55 -33.45 34.95 -34.85 M37.5 -36.35 Q35.65 -35.85 34.7 -36.75 L39.1 -37.65 Q39.3 -36.65 37.5 -36.35 M39.6 -35.1 L39.6 -35.3 Q39.85 -36.1 39.6 -35.1 M10.75 -44.0 L10.75 -44.05 10.9 -44.35 11.2 -44.5 11.45 -44.45 11.55 -44.35 11.65 -44.05 11.55 -43.7 11.2 -43.6 Q11.0 -43.6 10.9 -43.7 L10.75 -44.0 M10.15 -45.45 L10.25 -45.2 10.15 -44.9 9.85 -44.8 9.6 -44.9 9.45 -45.2 9.6 -45.45 9.85 -45.6 10.15 -45.45 M14.3 -41.8 L12.6 -44.65 11.0 -45.95 10.75 -46.9 8.4 -47.85 8.1 -48.4 3.7 -48.55 -0.6 -47.75 -2.05 -47.2 -3.9 -45.65 -4.0 -45.55 -4.1 -45.4 -4.4 -45.0 -4.75 -44.45 Q-5.95 -42.25 -7.6 -40.2 L-10.1 -36.7 -13.0 -32.05 -9.9 -34.95 -10.2 -31.9 -5.3 -35.35 -5.4 -34.2 -3.7 -35.2 -4.65 -30.35 -3.5 -29.8 1.35 -33.0 0.8 -31.05 2.5 -31.6 1.1 -25.85 1.6 -25.5 Q2.1 -25.6 2.5 -25.9 L5.2 -27.95 5.3 -25.95 5.75 -26.3 5.1 -23.2 Q9.5 -31.65 15.6 -38.55 L14.3 -41.8 M2.05 -26.1 L1.9 -26.2 1.8 -26.5 1.9 -26.75 2.15 -26.9 2.4 -26.75 2.5 -26.6 2.5 -26.5 2.4 -26.2 Q2.3 -26.1 2.15 -26.1 L2.05 -26.1 M3.2 -27.5 L2.75 -27.2 2.3 -27.65 2.15 -27.85 3.15 -29.95 3.6 -31.2 3.65 -31.45 Q3.9 -32.45 3.75 -30.95 L3.35 -29.6 4.1 -29.6 3.9 -29.05 4.5 -29.2 6.05 -29.7 3.2 -27.5 M5.25 -30.2 L5.05 -30.15 4.8 -30.25 4.7 -30.45 5.1 -30.95 5.35 -30.8 5.45 -30.55 5.45 -30.45 5.25 -30.2 M13.65 -40.35 L13.55 -40.65 13.65 -40.95 13.7 -40.95 13.85 -40.9 Q14.35 -40.5 13.75 -40.25 L13.65 -40.35 M12.9 -42.15 L13.25 -42.0 13.4 -41.65 13.25 -41.3 12.9 -41.15 Q12.7 -41.15 12.55 -41.3 L12.4 -41.65 12.55 -42.0 Q12.7 -42.15 12.9 -42.15 M14.85 -38.2 L14.6 -38.3 14.45 -38.6 14.6 -38.85 14.85 -39.0 15.15 -38.85 15.25 -38.6 15.15 -38.3 14.85 -38.2 M2.25 -33.05 L2.4 -33.35 2.65 -33.5 2.95 -33.35 3.05 -33.05 2.95 -32.7 2.65 -32.6 2.4 -32.7 2.25 -33.05 M2.1 -47.45 L2.2 -47.2 2.1 -46.9 1.75 -46.8 Q1.55 -46.8 1.45 -46.9 L1.3 -47.2 1.45 -47.45 1.75 -47.6 2.1 -47.45 M3.35 -47.7 L3.6 -47.85 3.9 -47.7 4.0 -47.45 3.9 -47.15 3.6 -47.05 Q3.45 -47.05 3.35 -47.15 L3.2 -47.45 3.35 -47.7 M6.3 -47.55 L6.4 -47.25 6.3 -46.9 6.0 -46.8 Q5.85 -46.8 5.75 -46.9 L5.6 -47.25 5.75 -47.55 6.0 -47.7 6.3 -47.55 M8.3 -46.75 L8.45 -46.45 8.3 -46.1 7.95 -46.0 7.6 -46.1 Q7.45 -46.25 7.45 -46.45 L7.6 -46.75 7.95 -46.9 8.3 -46.75 M0.8 -30.2 L0.15 -30.8 0.1 -30.95 -1.05 -30.35 Q-1.75 -30.0 -2.5 -29.6 L-3.8 -29.1 -4.7 -29.75 Q-6.15 -31.65 -5.1 -33.5 L-6.05 -34.15 -6.2 -34.1 -7.6 -32.65 Q-8.9 -31.05 -10.6 -31.45 L-10.85 -33.3 -13.2 -31.15 -13.6 -31.2 -13.75 -31.35 -13.8 -31.5 -27.3 -13.35 -40.45 1.1 Q-35.75 1.7 -31.65 3.8 -25.75 6.95 -20.75 11.35 -17.65 14.1 -15.25 16.95 L4.35 -21.8 5.05 -25.05 4.6 -25.75 4.65 -26.75 1.75 -24.8 0.6 -25.3 0.8 -30.2 M6.0 -28.25 L6.1 -28.5 6.35 -28.6 6.6 -28.5 6.7 -28.25 6.6 -28.0 6.35 -27.9 6.1 -28.0 6.0 -28.25 M-9.25 -33.2 L-9.25 -33.75 -8.55 -33.75 -8.55 -33.2 -9.25 -33.2 M-10.0 -36.0 L-10.1 -36.3 -10.0 -36.55 -9.75 -36.7 -9.5 -36.55 -9.4 -36.3 -9.5 -36.0 -9.75 -35.9 -10.0 -36.0 M-7.15 -36.15 L-6.45 -36.65 -6.1 -36.95 Q-4.1 -38.1 -4.55 -36.75 L-8.2 -34.15 -9.2 -34.55 -8.3 -36.5 -8.2 -36.45 -8.05 -36.25 -7.15 -36.15 M-1.2 -34.05 L-0.8 -33.8 1.5 -34.2 -2.6 -31.55 -2.0 -32.85 -3.65 -32.05 -2.45 -34.3 Q-1.85 -35.25 -2.7 -35.5 L-2.3 -35.85 Q-1.25 -34.65 -2.35 -33.45 L-1.2 -34.05 M-2.95 -31.3 L-2.85 -31.05 -2.95 -30.8 -3.25 -30.7 -3.5 -30.8 -3.65 -31.05 -3.5 -31.3 -3.25 -31.4 -2.95 -31.3 M-3.35 -36.2 L-3.45 -35.85 Q-3.6 -35.7 -3.8 -35.7 -4.0 -35.7 -4.1 -35.85 L-4.25 -36.2 -4.1 -36.55 -3.8 -36.7 -3.45 -36.55 -3.35 -36.2 M-0.25 -35.35 L-0.15 -35.05 -0.25 -34.7 -0.6 -34.6 -0.9 -34.7 -1.05 -35.05 -0.9 -35.35 -0.6 -35.5 -0.25 -35.35 M-6.7 -37.7 L-6.6 -37.35 -6.7 -37.0 Q-6.85 -36.85 -7.05 -36.85 -7.25 -36.85 -7.35 -37.0 L-7.5 -37.35 -7.35 -37.7 -7.05 -37.85 -6.7 -37.7 M-1.15 -47.15 L-0.9 -47.25 -0.65 -47.15 -0.55 -46.9 -0.65 -46.65 Q-0.75 -46.55 -0.9 -46.55 L-1.15 -46.65 -1.25 -46.9 -1.15 -47.15 M-18.4 16.45 L-17.25 16.6 -18.8 16.95 -18.9 15.7 -18.15 15.65 -18.4 16.45 M-19.15 17.95 L-19.4 18.05 -19.65 17.95 -19.75 17.7 -19.65 17.45 -19.4 17.35 -19.15 17.45 -19.05 17.7 -19.15 17.95 M-16.0 17.8 L-16.0 19.1 -16.75 19.1 -16.75 17.8 -16.0 17.8 M-16.95 20.2 L-16.7 20.1 -16.45 20.2 -16.35 20.45 -16.45 20.7 -16.7 20.8 -16.95 20.7 -17.05 20.45 -16.95 20.2 M-18.15 19.85 L-18.6 20.05 -19.0 19.85 -19.2 19.25 -19.0 18.7 -18.6 18.45 -18.15 18.7 Q-18.0 18.9 -18.0 19.25 L-18.15 19.85 M-23.2 18.0 L-22.85 15.6 -24.35 15.35 -21.75 14.1 -21.45 14.55 -21.05 15.6 -20.7 18.15 -21.9 16.9 -22.4 17.7 -23.2 18.0 M-32.0 9.8 L-31.9 10.1 -32.0 10.45 -32.3 10.55 -32.55 10.45 -32.7 10.1 -32.55 9.8 -32.3 9.65 Q-32.15 9.65 -32.0 9.8 M-32.3 6.95 L-32.2 7.25 -32.3 7.6 -32.6 7.7 -32.85 7.6 -33.0 7.25 -32.85 6.95 Q-32.75 6.8 -32.6 6.8 -32.45 6.8 -32.3 6.95 M-38.45 6.5 L-38.45 7.05 -39.05 7.05 -39.05 6.5 -38.45 6.5 M-37.65 3.3 Q-38.65 3.6 -39.25 2.85 L-40.5 3.15 -41.1 2.95 -41.2 2.75 -41.1 2.5 -37.3 3.0 Q-36.95 3.55 -37.65 3.3 M-36.35 3.3 L-36.25 4.05 Q-34.75 3.45 -34.75 4.3 L-36.65 4.65 -36.85 3.75 -36.35 3.3 M-37.0 5.2 L-36.9 5.15 Q-36.45 5.9 -37.0 5.2 M-39.3 3.5 L-38.85 4.2 Q-37.7 3.1 -38.0 4.5 L-37.7 6.4 -38.7 5.4 -40.35 7.35 -41.2 7.3 -40.3 5.0 -42.25 4.75 -39.3 3.5 M-34.9 5.5 Q-34.6 5.5 -34.4 5.75 L-34.2 6.25 -34.4 6.8 -34.9 7.0 Q-35.2 7.0 -35.4 6.8 L-35.6 6.25 -35.4 5.75 Q-35.2 5.5 -34.9 5.5 M-33.3 5.2 L-33.0 4.45 -32.35 5.75 -30.7 5.7 -32.05 6.45 -33.15 5.95 -33.3 5.2 M-22.75 11.35 Q-22.25 11.6 -22.4 12.0 L-22.45 12.5 -21.3 12.55 -22.75 13.05 -22.95 11.5 -22.75 11.35 M-24.25 11.05 L-24.1 10.75 -23.75 10.6 Q-23.55 10.6 -23.4 10.75 L-23.25 11.05 -23.4 11.4 -23.75 11.5 -24.1 11.4 -24.25 11.05 M-26.9 9.95 L-26.3 8.3 -26.35 9.75 -24.95 9.9 -26.9 9.95 M-26.2 12.3 Q-26.0 12.05 -25.7 12.05 -25.4 12.05 -25.15 12.3 L-24.95 12.85 -25.15 13.45 -25.7 13.65 -26.2 13.45 -26.45 12.85 -26.2 12.3 M-27.2 11.0 L-26.95 11.1 -26.85 11.35 -26.95 11.6 -27.2 11.7 -27.45 11.6 -27.55 11.35 -27.45 11.1 -27.2 11.0 M-29.55 11.9 L-29.8 12.0 -30.05 11.9 -30.15 11.65 -30.05 11.4 -29.8 11.3 -29.55 11.4 -29.45 11.65 -29.55 11.9 M-30.15 7.95 L-28.8 8.65 -28.35 10.65 -29.45 10.7 -31.45 11.1 -30.55 9.15 -32.4 8.6 -30.15 7.95 M-24.05 16.25 Q-24.5 17.05 -24.15 16.1 L-24.05 16.25 M-23.6 13.55 L-23.5 13.8 -23.6 14.1 -23.85 14.2 -24.1 14.1 -24.2 13.8 -24.1 13.55 -23.85 13.4 Q-23.7 13.4 -23.6 13.55 M-22.05 18.1 L-21.8 18.0 -21.55 18.1 -21.45 18.35 -21.55 18.6 -21.8 18.7 -22.05 18.6 -22.15 18.35 -22.05 18.1 M-41.3 3.35 L-41.3 3.45 Q-42.1 3.1 -41.3 3.35 M-41.65 6.0 L-41.55 6.1 Q-41.95 7.15 -41.65 6.0" fill="#8189a3" fill-rule="evenodd" stroke="none"/>
    <path d="M-23.55 18.9 L-23.65 18.85 Q-25.2 17.55 -25.0 15.4 L-25.0 15.05 -25.0 14.3 -25.95 14.95 -27.1 14.65 -27.5 12.4 -29.05 12.5 -30.15 12.85 Q-33.4 12.25 -33.9 9.2 L-33.75 7.85 -36.0 8.3 -36.45 6.75 Q-37.3 6.65 -38.25 7.45 -38.9 7.95 -39.7 8.25 -44.0 8.25 -42.25 4.2 L-43.55 4.3 -41.25 1.7 Q-31.35 2.7 -23.85 9.15 L-20.3 12.3 -21.45 14.55 -21.75 14.1 -24.35 15.35 -22.85 15.6 -23.2 18.0 -23.55 18.9 M10.15 -45.45 L9.85 -45.6 9.6 -45.45 9.45 -45.2 9.6 -44.9 9.85 -44.8 10.15 -44.9 10.25 -45.2 10.15 -45.45 M10.75 -44.0 L10.9 -43.7 Q11.0 -43.6 11.2 -43.6 L11.55 -43.7 11.65 -44.05 11.55 -44.35 11.45 -44.45 11.2 -44.5 10.9 -44.35 10.75 -44.05 10.75 -44.0 M1.6 -25.5 L1.1 -25.85 2.5 -31.6 0.8 -31.05 1.35 -33.0 -3.5 -29.8 -4.65 -30.35 -3.7 -35.2 -5.4 -34.2 -5.3 -35.35 -10.2 -31.9 -9.9 -34.95 -13.0 -32.05 -10.1 -36.7 -7.6 -40.2 Q-5.95 -42.25 -4.75 -44.45 L-4.4 -45.0 -4.1 -45.4 -4.0 -45.55 -3.9 -45.65 -2.05 -47.2 -0.6 -47.75 3.7 -48.55 8.1 -48.4 8.4 -47.85 10.75 -46.9 11.0 -45.95 12.6 -44.65 14.3 -41.8 13.85 -40.9 13.7 -40.95 13.65 -40.95 13.55 -40.65 13.65 -40.35 Q12.8 -38.45 11.4 -37.05 8.05 -33.95 5.45 -30.45 L5.45 -30.55 5.35 -30.8 5.1 -30.95 4.7 -30.45 4.8 -30.25 5.05 -30.15 5.25 -30.2 4.5 -29.2 3.9 -29.05 4.1 -29.6 3.35 -29.6 3.75 -30.95 Q3.9 -32.45 3.65 -31.45 L3.6 -31.2 3.15 -29.95 2.15 -27.85 2.3 -27.65 2.75 -27.2 3.2 -27.5 2.5 -26.6 2.4 -26.75 2.15 -26.9 1.9 -26.75 1.8 -26.5 1.9 -26.2 2.05 -26.1 1.6 -25.5 M12.9 -42.15 Q12.7 -42.15 12.55 -42.0 L12.4 -41.65 12.55 -41.3 Q12.7 -41.15 12.9 -41.15 L13.25 -41.3 13.4 -41.65 13.25 -42.0 12.9 -42.15 M8.3 -46.75 L7.95 -46.9 7.6 -46.75 7.45 -46.45 Q7.45 -46.25 7.6 -46.1 L7.95 -46.0 8.3 -46.1 8.45 -46.45 8.3 -46.75 M6.3 -47.55 L6.0 -47.7 5.75 -47.55 5.6 -47.25 5.75 -46.9 Q5.85 -46.8 6.0 -46.8 L6.3 -46.9 6.4 -47.25 6.3 -47.55 M3.35 -47.7 L3.2 -47.45 3.35 -47.15 Q3.45 -47.05 3.6 -47.05 L3.9 -47.15 4.0 -47.45 3.9 -47.7 3.6 -47.85 3.35 -47.7 M2.1 -47.45 L1.75 -47.6 1.45 -47.45 1.3 -47.2 1.45 -46.9 Q1.55 -46.8 1.75 -46.8 L2.1 -46.9 2.2 -47.2 2.1 -47.45 M2.25 -33.05 L2.4 -32.7 2.65 -32.6 2.95 -32.7 3.05 -33.05 2.95 -33.35 2.65 -33.5 2.4 -33.35 2.25 -33.05 M-1.15 -47.15 L-1.25 -46.9 -1.15 -46.65 -0.9 -46.55 Q-0.75 -46.55 -0.65 -46.65 L-0.55 -46.9 -0.65 -47.15 -0.9 -47.25 -1.15 -47.15 M-6.7 -37.7 L-7.05 -37.85 -7.35 -37.7 -7.5 -37.35 -7.35 -37.0 Q-7.25 -36.85 -7.05 -36.85 -6.85 -36.85 -6.7 -37.0 L-6.6 -37.35 -6.7 -37.7 M-0.25 -35.35 L-0.6 -35.5 -0.9 -35.35 -1.05 -35.05 -0.9 -34.7 -0.6 -34.6 -0.25 -34.7 -0.15 -35.05 -0.25 -35.35 M-3.35 -36.2 L-3.45 -36.55 -3.8 -36.7 -4.1 -36.55 -4.25 -36.2 -4.1 -35.85 Q-4.0 -35.7 -3.8 -35.7 -3.6 -35.7 -3.45 -35.85 L-3.35 -36.2 M-2.95 -31.3 L-3.25 -31.4 -3.5 -31.3 -3.65 -31.05 -3.5 -30.8 -3.25 -30.7 -2.95 -30.8 -2.85 -31.05 -2.95 -31.3 M-1.2 -34.05 L-2.35 -33.45 Q-1.25 -34.65 -2.3 -35.85 L-2.7 -35.5 Q-1.85 -35.25 -2.45 -34.3 L-3.65 -32.05 -2.0 -32.85 -2.6 -31.55 1.5 -34.2 -0.8 -33.8 -1.2 -34.05 M-7.15 -36.15 L-8.05 -36.25 -8.2 -36.45 -8.3 -36.5 -9.2 -34.55 -8.2 -34.15 -4.55 -36.75 Q-4.1 -38.1 -6.1 -36.95 L-6.45 -36.65 -7.15 -36.15 M-10.0 -36.0 L-9.75 -35.9 -9.5 -36.0 -9.4 -36.3 -9.5 -36.55 -9.75 -36.7 -10.0 -36.55 -10.1 -36.3 -10.0 -36.0 M-9.25 -33.2 L-8.55 -33.2 -8.55 -33.75 -9.25 -33.75 -9.25 -33.2 M-30.15 7.95 L-32.4 8.6 -30.55 9.15 -31.45 11.1 -29.45 10.7 -28.35 10.65 -28.8 8.65 -30.15 7.95 M-29.55 11.9 L-29.45 11.65 -29.55 11.4 -29.8 11.3 -30.05 11.4 -30.15 11.65 -30.05 11.9 -29.8 12.0 -29.55 11.9 M-27.2 11.0 L-27.45 11.1 -27.55 11.35 -27.45 11.6 -27.2 11.7 -26.95 11.6 -26.85 11.35 -26.95 11.1 -27.2 11.0 M-26.2 12.3 L-26.45 12.85 -26.2 13.45 -25.7 13.65 -25.15 13.45 -24.95 12.85 -25.15 12.3 Q-25.4 12.05 -25.7 12.05 -26.0 12.05 -26.2 12.3 M-26.9 9.95 L-24.95 9.9 -26.35 9.75 -26.3 8.3 -26.9 9.95 M-24.25 11.05 L-24.1 11.4 -23.75 11.5 -23.4 11.4 -23.25 11.05 -23.4 10.75 Q-23.55 10.6 -23.75 10.6 L-24.1 10.75 -24.25 11.05 M-22.75 11.35 L-22.95 11.5 -22.75 13.05 -21.3 12.55 -22.45 12.5 -22.4 12.0 Q-22.25 11.6 -22.75 11.35 M-33.3 5.2 L-33.15 5.95 -32.05 6.45 -30.7 5.7 -32.35 5.75 -33.0 4.45 -33.3 5.2 M-34.9 5.5 Q-35.2 5.5 -35.4 5.75 L-35.6 6.25 -35.4 6.8 Q-35.2 7.0 -34.9 7.0 L-34.4 6.8 -34.2 6.25 -34.4 5.75 Q-34.6 5.5 -34.9 5.5 M-39.3 3.5 L-42.25 4.75 -40.3 5.0 -41.2 7.3 -40.35 7.35 -38.7 5.4 -37.7 6.4 -38.0 4.5 Q-37.7 3.1 -38.85 4.2 L-39.3 3.5 M-37.0 5.2 Q-36.45 5.9 -36.9 5.15 L-37.0 5.2 M-36.35 3.3 L-36.85 3.75 -36.65 4.65 -34.75 4.3 Q-34.75 3.45 -36.25 4.05 L-36.35 3.3 M-37.65 3.3 Q-36.95 3.55 -37.3 3.0 L-41.1 2.5 -41.2 2.75 -41.1 2.95 -40.5 3.15 -39.25 2.85 Q-38.65 3.6 -37.65 3.3 M-38.45 6.5 L-39.05 6.5 -39.05 7.05 -38.45 7.05 -38.45 6.5 M-32.3 6.95 Q-32.45 6.8 -32.6 6.8 -32.75 6.8 -32.85 6.95 L-33.0 7.25 -32.85 7.6 -32.6 7.7 -32.3 7.6 -32.2 7.25 -32.3 6.95 M-32.0 9.8 Q-32.15 9.65 -32.3 9.65 L-32.55 9.8 -32.7 10.1 -32.55 10.45 -32.3 10.55 -32.0 10.45 -31.9 10.1 -32.0 9.8 M-23.6 13.55 Q-23.7 13.4 -23.85 13.4 L-24.1 13.55 -24.2 13.8 -24.1 14.1 -23.85 14.2 -23.6 14.1 -23.5 13.8 -23.6 13.55 M-24.05 16.25 L-24.15 16.1 Q-24.5 17.05 -24.05 16.25 M-41.65 6.0 Q-41.95 7.15 -41.55 6.1 L-41.65 6.0 M-41.3 3.35 Q-42.1 3.1 -41.3 3.45 L-41.3 3.35" fill="#ffffff" fill-rule="evenodd" stroke="none"/>
    <path d="M-17.75 20.9 L-19.65 21.05 -19.95 18.55 -21.25 19.5 -23.55 18.9 -23.2 18.0 -22.4 17.7 -21.9 16.9 -20.7 18.15 -21.05 15.6 -21.45 14.55 -20.3 12.3 Q-17.6 14.5 -15.95 17.45 L-15.05 19.1 -17.2 22.85 -16.1 22.25 -16.75 25.95 -17.2 22.85 -17.6 21.05 -17.75 20.9 M34.5 -37.65 L39.3 -38.75 40.3 -34.9 Q38.1 -32.65 34.95 -33.65 L34.5 -37.65 M39.6 -35.1 Q39.85 -36.1 39.6 -35.3 L39.6 -35.1 M37.5 -36.35 Q39.3 -36.65 39.1 -37.65 L34.7 -36.75 Q35.65 -35.85 37.5 -36.35 M34.95 -34.85 Q37.55 -33.45 39.6 -35.55 L39.6 -35.6 34.95 -34.85 M1.6 -25.5 L2.05 -26.1 2.15 -26.1 Q2.3 -26.1 2.4 -26.2 L2.5 -26.5 2.5 -26.6 3.2 -27.5 6.05 -29.7 4.5 -29.2 5.25 -30.2 5.45 -30.45 Q8.05 -33.95 11.4 -37.05 12.8 -38.45 13.65 -40.35 L13.75 -40.25 Q14.35 -40.5 13.85 -40.9 L14.3 -41.8 15.6 -38.55 Q9.5 -31.65 5.1 -23.2 L5.75 -26.3 5.3 -25.95 5.2 -27.95 2.5 -25.9 Q2.1 -25.6 1.6 -25.5 M14.85 -38.2 L15.15 -38.3 15.25 -38.6 15.15 -38.85 14.85 -39.0 14.6 -38.85 14.45 -38.6 14.6 -38.3 14.85 -38.2 M6.0 -28.25 L6.1 -28.0 6.35 -27.9 6.6 -28.0 6.7 -28.25 6.6 -28.5 6.35 -28.6 6.1 -28.5 6.0 -28.25 M-18.15 19.85 L-18.0 19.25 Q-18.0 18.9 -18.15 18.7 L-18.6 18.45 -19.0 18.7 -19.2 19.25 -19.0 19.85 -18.6 20.05 -18.15 19.85 M-16.95 20.2 L-17.05 20.45 -16.95 20.7 -16.7 20.8 -16.45 20.7 -16.35 20.45 -16.45 20.2 -16.7 20.1 -16.95 20.2 M-16.0 17.8 L-16.75 17.8 -16.75 19.1 -16.0 19.1 -16.0 17.8 M-19.15 17.95 L-19.05 17.7 -19.15 17.45 -19.4 17.35 -19.65 17.45 -19.75 17.7 -19.65 17.95 -19.4 18.05 -19.15 17.95 M-18.4 16.45 L-18.15 15.65 -18.9 15.7 -18.8 16.95 -17.25 16.6 -18.4 16.45 M-22.05 18.1 L-22.15 18.35 -22.05 18.6 -21.8 18.7 -21.55 18.6 -21.45 18.35 -21.55 18.1 -21.8 18.0 -22.05 18.1" fill="#dbdce6" fill-rule="evenodd" stroke="none"/>
  </g>
</svg>
