<?xml version="1.0" encoding="UTF-8" standalone="no"?>
<svg xmlns:ffdec="https://www.free-decompiler.com/flash" xmlns:xlink="http://www.w3.org/1999/xlink" ffdec:objectType="shape" height="8.6px" width="15.3px" xmlns="http://www.w3.org/2000/svg">
  <g transform="matrix(1.0, 0.0, 0.0, 1.0, 9.25, 7.25)">
    <path d="M1.8 -2.9 L2.05 -2.95 1.8 -2.9 M4.5 -3.05 L4.45 -3.1 4.5 -3.1 4.5 -3.05" fill="#666666" fill-rule="evenodd" stroke="none"/>
    <path d="M1.8 -2.9 L0.15 -2.85 -0.75 -3.0 -0.85 -3.15 -0.6 -3.15 0.35 -3.45 0.85 -3.6 1.95 -4.0 2.7 -4.35 3.65 -4.8 3.95 -4.7 4.05 -4.5 4.5 -3.1 4.45 -3.1 4.5 -3.05 4.65 -2.3 4.65 -2.05 Q4.25 -1.25 3.55 -1.15 L2.25 -0.7 1.55 -0.5 0.3 -0.3 -1.2 0.15 -1.4 0.25 -1.6 0.1 -1.7 -0.25 -1.8 -0.45 -2.1 -1.6 -2.6 -2.75 -2.5 -2.85 -2.05 -2.95 -1.9 -2.95 0.05 -2.65 1.8 -2.9 2.05 -2.95 1.8 -2.9" fill="#ff0000" fill-rule="evenodd" stroke="none"/>
    <path d="M4.25 -4.7 L4.2 -4.75 4.2 -4.65 4.45 -4.0 4.6 -3.55 4.75 -3.65 5.7 -4.7 5.7 -6.6 5.15 -5.8 4.4 -4.8 4.25 -4.7 M5.75 -7.25 L5.9 -7.15 6.05 -4.3 6.0 -4.25 Q5.65 -3.65 4.9 -3.1 L4.8 -3.0 5.0 -2.0 3.5 -0.9 2.3 -0.45 2.2 -0.4 2.0 -0.2 1.1 0.95 0.8 1.15 -0.7 1.3 -1.2 1.15 -1.8 0.75 -2.55 -0.65 -9.0 -1.1 Q-9.45 -1.9 -9.1 -2.75 -9.2 -3.3 -8.55 -3.1 L-5.55 -2.6 -3.05 -2.75 -2.95 -2.75 -2.85 -2.85 -2.65 -3.0 -2.0 -3.15 -0.65 -3.3 0.8 -3.7 Q1.75 -4.05 2.6 -4.5 L3.6 -4.95 3.75 -5.05 3.95 -5.05 4.0 -5.1 4.3 -5.3 Q5.1 -5.8 5.4 -6.9 L5.45 -7.05 5.5 -7.15 5.55 -7.2 5.6 -7.25 5.65 -7.25 5.75 -7.25 M4.5 -3.1 L4.05 -4.5 3.95 -4.7 3.65 -4.8 2.7 -4.35 1.95 -4.0 0.85 -3.6 0.35 -3.45 -0.6 -3.15 -0.85 -3.15 -0.75 -3.0 0.15 -2.85 1.8 -2.9 0.05 -2.65 -1.9 -2.95 -2.05 -2.95 -2.5 -2.85 -2.6 -2.75 -2.1 -1.6 -1.8 -0.45 -1.7 -0.25 -1.6 0.1 -1.4 0.25 -1.2 0.15 0.3 -0.3 1.55 -0.5 2.25 -0.7 3.55 -1.15 Q4.25 -1.25 4.65 -2.05 L4.65 -2.3 4.5 -3.05 4.5 -3.1 M1.0 -0.1 L-0.5 0.05 -0.9 0.25 -1.3 0.45 -1.35 0.5 -1.25 0.6 0.75 0.8 0.8 0.75 1.35 0.4 1.8 -0.25 1.0 -0.1 M-8.65 -1.5 L-2.25 -1.25 -2.6 -2.0 -2.75 -2.4 -3.35 -2.4 -8.65 -2.15 -8.65 -1.5" fill="#65012f" fill-rule="evenodd" stroke="none"/>
    <path d="M4.25 -4.7 L4.4 -4.8 5.15 -5.8 5.7 -6.6 5.7 -4.7 4.75 -3.65 4.6 -3.55 4.45 -4.0 4.2 -4.65 4.25 -4.7 M-8.65 -1.5 L-8.65 -2.15 -3.35 -2.4 -2.75 -2.4 -2.6 -2.0 -2.25 -1.25 -8.65 -1.5 M1.0 -0.1 L1.8 -0.25 1.35 0.4 0.8 0.75 0.75 0.8 -1.25 0.6 -1.35 0.5 -1.3 0.45 -0.9 0.25 -0.5 0.05 1.0 -0.1" fill="#cc0000" fill-rule="evenodd" stroke="none"/>
  </g>
</svg>
