<?xml version="1.0" encoding="UTF-8" standalone="no"?>
<svg xmlns:ffdec="https://www.free-decompiler.com/flash" xmlns:xlink="http://www.w3.org/1999/xlink" ffdec:objectType="shape" height="72.9px" width="63.2px" xmlns="http://www.w3.org/2000/svg">
  <g transform="matrix(1.0, 0.0, 0.0, 1.0, 31.6, 36.45)">
    <path d="M30.0 -35.25 L31.6 -35.0 Q23.4 -34.85 17.9 -29.35 L17.55 -29.5 17.5 -29.5 17.35 -29.4 17.0 -29.2 Q11.7 -30.1 6.8 -28.1 8.95 -31.6 12.9 -34.5 14.7 -35.8 16.65 -36.35 23.45 -36.8 30.0 -35.25 M9.0 -11.3 L9.65 -10.7 9.45 -5.8 10.6 -5.3 13.5 -7.25 13.45 -6.25 13.9 -5.55 13.2 -2.3 -6.4 36.45 Q-8.8 33.6 -11.9 30.85 -16.9 26.45 -22.8 23.3 -26.9 21.2 -31.6 20.6 L-18.45 6.15 -5.0 -11.9 -4.9 -11.85 -4.75 -11.7 -4.35 -11.65 -2.0 -13.8 -1.75 -11.95 Q-0.05 -11.55 1.25 -13.15 L2.65 -14.6 2.8 -14.65 3.75 -14.0 Q2.7 -12.15 4.15 -10.25 4.45 -9.85 5.05 -9.6 L6.35 -10.1 7.8 -10.85 8.95 -11.45 9.0 -11.3" fill="#ffffff" fill-rule="evenodd" stroke="none"/>
  </g>
</svg>
