<?xml version="1.0" encoding="UTF-8" standalone="no"?>
<svg xmlns:ffdec="https://www.free-decompiler.com/flash" xmlns:xlink="http://www.w3.org/1999/xlink" ffdec:objectType="shape" height="10.05px" width="15.6px" xmlns="http://www.w3.org/2000/svg">
  <g transform="matrix(1.0, 0.0, 0.0, 1.0, 9.65, 8.45)">
    <path d="M-1.35 0.6 L-1.25 0.65 -1.35 0.6" fill="#313566" fill-rule="evenodd" stroke="none"/>
    <path d="M-0.7 -1.75 L-0.75 -1.75 -0.7 -1.75" fill="#8993c5" fill-rule="evenodd" stroke="none"/>
    <path d="M1.0 -5.1 Q1.0 -4.8 0.7 -4.75 -0.65 -4.85 0.45 -5.55 1.0 -5.55 1.0 -5.1" fill="#b0ba69" fill-rule="evenodd" stroke="none"/>
    <path d="M3.45 -5.7 L4.2 -6.0 4.35 -6.1 5.45 -7.1 5.15 -8.0 4.3 -7.2 3.4 -6.7 Q2.25 -6.1 0.95 -5.75 L1.2 -5.5 1.25 -5.45 1.25 -4.95 2.05 -5.1 2.6 -5.25 3.45 -5.7 M5.5 -6.6 L5.5 -6.7 5.25 -6.55 4.35 -6.0 3.35 -5.45 2.5 -5.15 2.45 -5.1 2.0 -4.95 1.15 -4.75 0.35 -4.45 0.2 -4.45 0.3 -3.7 0.45 -2.3 0.5 -2.0 0.35 -1.9 0.3 -2.25 0.15 -3.7 0.05 -4.4 -0.05 -4.5 -0.2 -4.5 -0.35 -4.45 -0.4 -4.5 -2.7 -4.15 -4.55 -4.0 -5.8 -3.9 -6.7 -3.85 -7.5 -3.85 -8.05 -3.9 -8.25 -3.95 -8.7 -3.95 -8.6 -3.05 Q-8.45 -2.2 -8.45 -1.2 L-6.1 -1.1 -5.05 -0.9 -3.45 -0.35 -2.7 0.0 -1.7 0.7 -1.65 0.75 -1.15 0.95 -1.1 0.9 -1.2 0.7 -0.95 0.85 0.05 -0.55 1.05 -1.65 0.1 -0.3 0.0 -0.2 -0.65 0.95 -0.65 1.0 -0.7 1.05 -0.5 1.1 0.3 1.25 1.3 1.0 1.8 0.6 1.85 0.5 2.15 0.15 2.3 -0.1 2.4 -0.55 1.7 -1.05 1.6 -1.15 1.2 -1.45 1.4 -1.5 1.7 -1.4 1.9 -1.3 2.5 -0.8 2.65 -1.05 3.55 -1.95 3.9 -2.25 4.5 -2.85 5.0 -3.25 4.55 -2.8 3.95 -2.2 2.55 -0.8 2.55 -0.7 2.6 -0.6 3.9 -1.9 4.9 -2.85 5.8 -3.9 5.7 -4.0 5.2 -3.5 5.7 -4.05 5.65 -4.2 5.65 -4.35 5.7 -4.9 5.65 -5.45 5.5 -6.6 M5.4 -8.35 L5.5 -8.05 5.95 -5.15 5.95 -3.8 5.3 -3.1 4.25 -1.85 3.05 -0.75 2.7 -0.4 2.7 -0.35 1.9 0.7 0.85 1.4 0.15 1.6 -0.8 1.4 -0.95 1.35 -1.4 1.1 -1.65 0.95 -1.7 0.9 -2.35 0.55 -2.35 0.5 Q-2.9 0.25 -3.4 -0.05 L-4.65 -0.5 -6.2 -0.75 -7.8 -0.75 -8.0 -0.75 -8.35 -0.7 -8.7 -0.6 -8.95 -0.4 -9.05 -0.5 -9.05 -1.4 -9.1 -2.75 -9.2 -3.85 -9.25 -3.9 -9.35 -4.05 -9.6 -4.6 -9.65 -5.15 -9.45 -5.3 -9.35 -5.2 -9.35 -5.3 -8.45 -5.1 -6.65 -4.95 -0.65 -5.6 Q2.2 -6.05 4.35 -7.5 L5.35 -8.45 5.4 -8.35 M1.0 -5.1 Q1.0 -5.55 0.45 -5.55 -0.65 -4.85 0.7 -4.75 1.0 -4.8 1.0 -5.1 M0.8 -3.8 L0.8 -4.5 0.95 -4.6 1.1 -3.95 1.25 -2.5 1.3 -1.75 1.25 -1.65 1.15 -1.65 1.0 -1.75 0.95 -2.0 0.8 -3.8 M-0.8 -0.2 L0.25 -1.45 -0.55 -0.25 -1.25 0.6 -1.3 0.55 -0.8 -0.2 M-7.35 -2.55 L-7.3 -2.3 -7.05 -1.7 -6.9 -1.65 -5.35 -1.3 -6.85 -1.55 -8.05 -1.7 -7.4 -1.7 -7.45 -2.4 -7.45 -2.5 -7.7 -3.8 -7.35 -2.55 M-7.25 -4.05 L-6.85 -4.0 -5.65 -4.05 -4.5 -4.15 -2.4 -4.3 -0.3 -4.7 -0.15 -5.4 -0.05 -5.5 -1.4 -5.2 -4.15 -4.9 -6.85 -4.8 -7.85 -4.85 -8.35 -4.9 -8.55 -4.95 -9.1 -5.0 -9.1 -4.85 Q-9.05 -4.1 -8.35 -4.05 L-7.25 -4.05 M-4.5 -1.05 L-4.6 -1.1 -4.5 -1.05 -3.55 -0.75 -2.1 -0.1 -1.35 0.6 -2.2 0.0 -3.55 -0.65 -4.5 -1.05" fill="#254e29" fill-rule="evenodd" stroke="none"/>
    <path d="M3.4 -6.7 L3.25 -6.1 3.15 -6.05 2.6 -5.25 2.05 -5.1 2.05 -5.55 1.75 -5.8 1.2 -5.5 0.95 -5.75 Q2.25 -6.1 3.4 -6.7 M3.35 -4.6 L3.55 -4.75 4.35 -5.45 5.5 -6.6 5.65 -5.45 5.7 -4.9 5.6 -4.8 4.4 -4.6 4.0 -4.1 3.8 -4.05 Q2.75 -3.85 2.95 -3.1 L2.85 -3.05 2.0 -2.2 1.95 -2.35 1.45 -2.65 1.25 -2.5 1.1 -3.95 1.35 -4.15 2.0 -4.95 2.45 -5.1 2.5 -5.15 2.25 -4.8 Q1.4 -4.0 1.95 -3.4 L2.1 -3.5 3.35 -4.6 M4.9 -2.85 L3.9 -1.9 3.95 -2.2 4.55 -2.8 4.9 -2.85 M4.5 -2.85 L3.9 -2.25 3.65 -2.4 3.2 -2.25 3.3 -2.3 3.65 -2.9 4.25 -3.1 4.55 -3.35 4.5 -2.85 M1.9 -1.3 L1.7 -1.4 1.85 -1.65 2.15 -1.5 1.9 -1.3 M1.6 -1.15 L1.7 -1.05 Q1.5 -0.65 1.6 -0.25 L1.65 -0.05 1.55 0.0 Q0.9 0.6 1.3 1.0 L0.3 1.25 Q1.1 0.5 0.35 -0.25 L0.55 -0.25 Q1.4 -0.4 1.6 -1.15 M0.0 -0.2 L0.1 -0.3 0.2 -0.25 0.0 -0.2 M0.05 -0.55 L-0.95 0.85 -1.2 0.7 -1.1 0.9 -1.15 0.95 -1.65 0.75 -1.7 0.7 -2.7 0.0 -2.2 0.0 -1.35 0.6 -1.25 0.65 -1.35 0.6 -2.1 -0.1 -1.65 -0.45 -1.55 -0.35 Q-1.3 -0.05 -0.8 -0.2 L-1.3 0.55 -1.25 0.6 -0.55 -0.25 0.15 -0.75 0.05 -0.55 M-3.45 -0.35 L-5.05 -0.9 Q-4.9 -0.9 -4.75 -1.05 L-4.5 -1.05 -4.3 -1.25 Q-3.85 -0.9 -3.6 -1.05 L-3.4 -1.25 -3.55 -0.75 -4.5 -1.05 -3.55 -0.65 -3.45 -0.35 M-6.1 -1.1 L-8.45 -1.2 Q-8.45 -2.2 -8.6 -3.05 L-8.4 -2.9 -8.2 -2.95 -7.95 -2.7 -7.6 -2.5 -7.45 -2.5 -7.45 -2.4 -7.4 -1.7 -8.05 -1.7 -6.85 -1.55 -6.1 -1.1 M-8.25 -3.95 L-8.05 -3.9 -7.8 -3.85 -8.15 -3.4 -8.25 -3.95 M-6.7 -3.85 L-5.8 -3.9 -6.2 -3.05 -5.95 -2.75 -6.15 -2.65 -6.7 -2.15 -6.9 -1.65 -7.05 -1.7 -7.3 -2.3 -7.35 -2.55 Q-6.7 -3.1 -6.65 -3.75 L-6.7 -3.85 M-2.7 -4.15 L-0.4 -4.5 -0.35 -4.45 -0.2 -4.5 -0.2 -4.1 Q-2.2 -4.25 -2.1 -2.65 -2.1 -2.45 -1.8 -2.5 -0.9 -2.75 -0.35 -3.45 L-0.15 -3.9 -0.05 -3.75 0.15 -3.7 0.3 -2.25 0.1 -2.2 -0.7 -1.75 -0.75 -1.75 -0.8 -1.7 -0.7 -1.95 -0.85 -2.15 -0.9 -2.2 -1.1 -2.15 -3.05 -1.55 -2.95 -1.7 -3.05 -2.0 -3.25 -2.05 Q-2.45 -2.35 -2.5 -3.1 -2.55 -3.4 -2.8 -3.35 -4.45 -3.25 -3.95 -2.05 L-4.1 -1.9 Q-4.15 -2.35 -4.5 -2.6 -4.85 -2.9 -5.35 -2.9 L-5.25 -2.95 Q-4.7 -3.35 -4.55 -3.9 L-2.8 -4.05 -2.7 -4.15 M0.45 -2.3 L0.3 -3.7 0.8 -3.8 0.95 -2.0 0.95 -1.9 0.8 -2.2 0.45 -2.3 M-6.85 -4.0 L-7.15 -4.1 -7.05 -4.15 Q-6.75 -4.45 -6.85 -4.8 L-4.15 -4.9 -4.25 -4.8 -4.65 -4.4 -4.75 -4.4 Q-5.3 -4.4 -5.65 -4.05 L-6.85 -4.0 M-8.55 -4.95 Q-8.75 -4.8 -8.55 -4.35 L-8.35 -4.05 Q-9.05 -4.1 -9.1 -4.85 L-9.1 -5.0 -8.55 -4.95 M-1.4 -5.2 L-0.05 -5.5 -0.15 -5.4 -0.3 -4.7 -2.4 -4.3 -1.4 -5.15 -1.4 -5.2" fill="#649b6a" fill-rule="evenodd" stroke="none"/>
    <path d="M3.4 -6.7 L4.3 -7.2 5.15 -8.0 5.45 -7.1 4.35 -6.1 4.2 -6.0 3.45 -5.7 3.5 -5.75 3.25 -6.1 3.4 -6.7 M3.35 -5.45 L4.35 -6.0 5.25 -6.55 5.5 -6.7 5.5 -6.6 4.35 -5.45 3.55 -4.75 3.35 -4.6 3.4 -4.9 3.25 -5.2 3.35 -5.45 M3.9 -1.9 L2.6 -0.6 2.55 -0.7 2.55 -0.8 3.95 -2.2 3.9 -1.9 M3.9 -2.25 L3.55 -1.95 2.65 -1.05 2.5 -0.8 1.9 -1.3 2.15 -1.5 2.25 -1.5 Q2.85 -1.7 3.2 -2.25 L3.65 -2.4 3.9 -2.25 M1.7 -1.05 L2.4 -0.55 2.3 -0.1 2.05 0.0 2.0 -0.05 1.65 -0.05 1.6 -0.25 Q1.5 -0.65 1.7 -1.05 M0.3 1.25 L-0.5 1.1 -0.7 1.05 -0.65 1.0 -0.65 0.95 0.0 -0.2 0.2 -0.25 0.35 -0.25 Q1.1 0.5 0.3 1.25 M-5.05 -0.9 L-6.1 -1.1 -6.85 -1.55 -5.35 -1.3 -6.9 -1.65 -6.7 -2.15 -6.15 -2.65 -5.95 -2.75 -5.8 -2.75 -5.35 -2.9 Q-4.85 -2.9 -4.5 -2.6 -4.15 -2.35 -4.1 -1.9 L-4.15 -1.85 -4.25 -1.65 -4.3 -1.25 -4.5 -1.05 -4.75 -1.05 Q-4.9 -0.9 -5.05 -0.9 M-8.6 -3.05 L-8.7 -3.95 -8.25 -3.95 -8.15 -3.4 -8.2 -2.95 -8.4 -2.9 -8.6 -3.05 M-4.55 -4.0 L-2.7 -4.15 -2.8 -4.05 -4.55 -3.9 -4.55 -4.0 M0.3 -2.25 L0.35 -1.9 0.5 -2.0 0.45 -2.3 0.8 -2.2 0.95 -1.9 0.15 -0.75 -0.55 -0.25 0.25 -1.45 -0.8 -0.2 Q-1.3 -0.05 -1.55 -0.35 L-1.65 -0.45 -0.8 -1.7 -0.75 -1.75 -0.7 -1.75 0.1 -2.2 0.3 -2.25 M4.55 -3.35 L4.25 -3.1 3.65 -2.9 3.6 -2.95 2.95 -3.1 Q2.75 -3.85 3.8 -4.05 L4.0 -4.1 4.4 -4.6 5.6 -4.8 5.55 -4.25 4.55 -3.35 M-4.65 -4.4 L-4.25 -4.8 -4.15 -4.9 -1.4 -5.2 -1.4 -5.15 -2.4 -4.3 -4.5 -4.15 -4.55 -4.3 -4.65 -4.4 M-3.95 -2.05 Q-4.45 -3.25 -2.8 -3.35 -2.55 -3.4 -2.5 -3.1 -2.45 -2.35 -3.25 -2.05 L-3.8 -2.1 -3.95 -2.05 M-4.5 -1.05 L-4.6 -1.1 -4.5 -1.05" fill="#416345" fill-rule="evenodd" stroke="none"/>
    <path d="M5.7 -4.9 L5.65 -4.35 5.65 -4.2 5.55 -4.25 5.6 -4.8 5.7 -4.9 M1.7 -1.4 L1.4 -1.5 1.2 -1.45 1.6 -1.15 Q1.4 -0.4 0.55 -0.25 L0.35 -0.25 0.2 -0.25 0.1 -0.3 1.05 -1.65 0.05 -0.55 0.15 -0.75 0.95 -1.9 0.95 -2.0 1.0 -1.75 1.15 -1.65 1.25 -1.65 1.3 -1.75 1.25 -2.5 1.45 -2.65 1.95 -2.35 2.0 -2.2 1.95 -1.8 1.85 -1.65 1.7 -1.4 M2.3 -0.1 L2.15 0.15 1.85 0.5 1.8 0.6 2.05 0.0 2.3 -0.1 M-8.05 -3.9 L-7.5 -3.85 -7.8 -3.85 -8.05 -3.9 M-7.15 -4.1 L-7.25 -4.05 -8.35 -4.05 -8.55 -4.35 Q-8.75 -4.8 -8.55 -4.95 L-8.35 -4.9 -7.85 -4.85 -6.85 -4.8 Q-6.75 -4.45 -7.05 -4.15 L-7.15 -4.1 M-0.2 -4.1 L-0.15 -3.9 -0.35 -3.45 Q-0.9 -2.75 -1.8 -2.5 -2.1 -2.45 -2.1 -2.65 -2.2 -4.25 -0.2 -4.1 M-3.25 -2.05 L-3.05 -2.0 -2.95 -1.7 -3.05 -1.55 -3.4 -1.25 -3.6 -1.05 Q-3.85 -0.9 -4.3 -1.25 L-4.25 -1.65 -4.15 -1.85 -4.1 -1.9 -3.95 -2.05 -3.8 -2.1 -3.25 -2.05" fill="#b1cdb3" fill-rule="evenodd" stroke="none"/>
    <path d="M3.25 -6.1 L3.5 -5.75 3.45 -5.7 2.6 -5.25 3.15 -6.05 3.25 -6.1 M2.05 -5.1 L1.25 -4.95 1.25 -5.45 1.2 -5.5 1.75 -5.8 2.05 -5.55 2.05 -5.1 M3.35 -5.45 L3.25 -5.2 3.4 -4.9 3.35 -4.6 2.1 -3.5 1.95 -3.4 Q1.4 -4.0 2.25 -4.8 L2.5 -5.15 3.35 -5.45 M5.65 -4.2 L5.7 -4.05 5.2 -3.5 5.7 -4.0 5.8 -3.9 4.9 -2.85 4.55 -2.8 5.0 -3.25 4.5 -2.85 4.55 -3.35 5.55 -4.25 5.65 -4.2 M1.8 0.6 L1.3 1.0 Q0.9 0.6 1.55 0.0 L1.65 -0.05 2.0 -0.05 2.05 0.0 1.8 0.6 M-2.7 0.0 L-3.45 -0.35 -3.55 -0.65 -2.2 0.0 -2.7 0.0 M-7.5 -3.85 L-6.7 -3.85 -6.65 -3.75 Q-6.7 -3.1 -7.35 -2.55 L-7.7 -3.8 -7.45 -2.5 -7.6 -2.5 -7.95 -2.7 -8.2 -2.95 -8.15 -3.4 -7.8 -3.85 -7.5 -3.85 M-5.8 -3.9 L-4.55 -4.0 -4.55 -3.9 Q-4.7 -3.35 -5.25 -2.95 L-5.35 -2.9 -5.8 -2.75 -5.95 -2.75 -6.2 -3.05 -5.8 -3.9 M-0.2 -4.5 L-0.05 -4.5 0.05 -4.4 0.15 -3.7 -0.05 -3.75 -0.15 -3.9 -0.2 -4.1 -0.2 -4.5 M0.3 -3.7 L0.2 -4.45 0.35 -4.45 1.15 -4.75 2.0 -4.95 1.35 -4.15 1.1 -3.95 0.95 -4.6 0.8 -4.5 0.8 -3.8 0.3 -3.7 M2.95 -3.1 L3.6 -2.95 3.65 -2.9 3.3 -2.3 3.2 -2.25 Q2.85 -1.7 2.25 -1.5 L2.15 -1.5 1.85 -1.65 1.95 -1.8 2.0 -2.2 2.85 -3.05 2.95 -3.1 M-0.8 -1.7 L-1.65 -0.45 -2.1 -0.1 -3.55 -0.75 -3.4 -1.25 -3.05 -1.55 -1.1 -2.15 -0.9 -2.2 -0.85 -2.15 -0.7 -1.95 -0.8 -1.7 M-7.25 -4.05 L-7.15 -4.1 -6.85 -4.0 -7.25 -4.05 M-5.65 -4.05 Q-5.3 -4.4 -4.75 -4.4 L-4.65 -4.4 -4.55 -4.3 -4.5 -4.15 -5.65 -4.05" fill="#233625" fill-rule="evenodd" stroke="none"/>
  </g>
</svg>
