<?xml version="1.0" encoding="UTF-8" standalone="no"?>
<svg xmlns:ffdec="https://www.free-decompiler.com/flash" xmlns:xlink="http://www.w3.org/1999/xlink" ffdec:objectType="shape" height="12.4px" width="17.15px" xmlns="http://www.w3.org/2000/svg">
  <g transform="matrix(1.0, 0.0, 0.0, 1.0, 10.6, 10.95)">
    <path d="M5.6 -5.15 L5.25 -6.8 5.2 -7.45 5.2 -8.15 4.8 -8.8 5.3 -8.4 4.8 -9.05 4.4 -9.0 3.5 -8.7 1.5 -7.7 1.25 -7.65 1.25 -7.45 1.8 -6.35 1.45 -5.8 1.95 -3.4 1.65 -2.5 1.75 -2.35 Q2.3 -1.7 2.8 -2.5 L3.0 -2.85 3.1 -2.9 4.0 -3.7 Q3.75 -4.85 4.25 -4.0 L4.25 -3.9 4.35 -3.6 3.85 -3.1 2.9 -2.15 1.7 -0.8 1.55 -0.65 Q0.85 -0.85 1.55 -1.45 L1.55 -1.95 1.5 -2.25 1.65 -2.5 1.6 -4.2 1.1 -5.3 0.95 -5.5 0.95 -5.55 0.3 -7.2 -0.05 -5.3 -0.2 -5.35 -1.3 -5.5 -0.6 -6.95 -1.2 -6.5 -1.15 -6.45 -8.8 -5.9 -9.1 -6.25 -9.15 -6.35 -8.85 -6.3 -8.65 -6.15 -7.75 -6.25 -7.95 -6.4 -8.0 -6.55 -7.65 -6.45 -7.35 -6.25 -4.4 -6.4 -4.4 -6.45 Q-4.8 -6.65 -4.5 -6.7 L-4.1 -6.5 -3.1 -6.7 Q-3.15 -7.35 -2.6 -6.75 L-1.65 -6.9 -1.95 -7.25 -1.3 -7.05 -1.2 -7.0 -1.0 -7.1 -0.9 -7.25 Q-0.75 -7.3 -0.7 -7.5 L-0.6 -7.6 Q-0.05 -8.15 -0.95 -8.0 L-2.4 -7.9 Q-2.7 -7.75 -3.05 -7.7 L-4.65 -7.5 -6.4 -7.4 -7.35 -7.25 -8.7 -6.9 -9.85 -6.8 Q-10.25 -6.4 -9.8 -6.1 L-9.8 -6.05 -9.75 -5.55 -9.65 -4.55 -9.6 -4.65 -9.55 -4.45 -9.4 -3.5 -9.3 -3.2 -9.3 -3.15 -9.4 -2.4 -9.15 -1.5 -9.0 -1.55 -9.2 -2.45 -8.85 -2.1 -8.45 -1.6 -8.3 -1.7 -8.25 -1.8 -8.2 -2.1 -7.9 -2.55 -7.95 -2.0 Q-7.75 -1.15 -7.2 -1.25 L-6.25 -1.4 -6.15 -2.65 -6.0 -3.75 -6.2 -4.35 -5.9 -4.95 -6.1 -5.8 -5.7 -5.0 -5.9 -4.25 -5.7 -3.6 -5.95 -3.0 -5.95 -1.65 -5.95 -1.35 -5.35 -1.25 -5.2 -1.75 -5.1 -1.5 -4.95 -1.2 -4.6 -0.9 Q-4.2 -0.5 -3.95 -1.05 L-3.75 -1.15 -3.65 -1.05 Q-3.55 -0.2 -3.3 -0.7 L-3.15 -1.0 -2.8 -1.1 -2.85 -1.0 -2.75 -0.4 -1.85 0.1 -1.7 -0.4 -1.6 0.0 -1.45 0.5 Q-0.4 1.0 0.3 0.8 L1.25 -0.1 1.25 -0.2 1.25 -0.25 1.35 -0.3 1.4 -0.35 1.45 -0.4 1.5 -0.4 1.45 0.0 1.8 -0.45 2.0 -0.7 2.1 -0.7 2.1 -0.65 2.45 -0.85 2.7 -1.5 2.7 -1.3 2.65 -1.1 2.65 -1.05 2.9 -1.1 3.1 -1.3 3.55 -2.5 3.55 -2.35 3.55 -2.15 4.2 -2.5 4.45 -3.15 4.45 -2.95 Q4.4 -2.55 4.6 -2.8 L5.2 -3.75 5.35 -3.55 5.45 -3.55 5.45 -3.65 5.5 -4.0 5.6 -4.25 5.65 -4.4 5.8 -4.4 5.95 -4.35 6.0 -4.85 5.6 -5.15 M2.7 -3.0 L2.7 -3.9 2.85 -3.45 2.95 -2.85 2.65 -2.8 2.7 -3.0 M5.05 -4.65 L5.15 -5.0 5.3 -4.9 Q5.8 -4.9 5.55 -4.45 5.3 -4.0 5.1 -4.3 5.0 -4.45 5.05 -4.65 M5.45 -9.55 L5.55 -9.2 5.95 -7.45 6.05 -5.4 6.55 -4.9 6.4 -4.05 4.1 -1.8 2.4 -0.3 0.95 1.2 0.7 1.2 -0.8 1.4 -1.5 1.2 -2.9 1.4 -4.15 0.95 -5.75 0.5 -7.55 -0.05 -9.6 -0.4 -10.0 -5.6 -10.15 -5.75 -10.6 -6.4 -10.45 -7.25 -8.6 -7.3 -7.05 -7.5 -5.15 -7.5 -3.25 -7.9 -1.75 -8.25 -0.55 -8.6 0.8 -9.0 2.5 -9.7 3.85 -10.4 4.8 -10.95 5.4 -10.4 5.45 -9.55 M5.0 -10.05 L3.6 -9.95 2.1 -9.05 0.75 -8.2 0.95 -7.7 1.45 -7.9 1.6 -8.05 1.7 -8.3 2.45 -8.3 2.65 -8.6 2.75 -8.7 2.75 -8.6 Q2.75 -8.3 2.95 -8.55 L3.1 -8.7 4.65 -9.5 Q5.1 -9.8 5.0 -10.05 M0.95 -6.65 L1.15 -5.9 1.3 -6.65 0.7 -7.35 0.95 -6.65 M0.25 -7.65 Q0.8 -7.75 0.3 -7.85 0.15 -7.95 0.1 -7.65 L0.25 -7.65 M4.65 -7.95 Q5.05 -7.5 4.7 -6.85 L4.45 -7.05 4.25 -8.25 4.65 -7.95 M3.6 -6.6 L3.5 -8.05 3.8 -7.35 3.65 -6.75 3.6 -6.6 M4.8 -6.45 Q5.6 -5.95 5.1 -5.3 L4.8 -5.05 Q4.55 -5.7 4.75 -6.35 L4.8 -6.45 M2.65 -6.9 Q2.85 -6.2 2.65 -5.7 L2.45 -7.2 Q2.35 -7.75 2.65 -6.9 M4.0 -5.55 L3.85 -4.95 3.8 -5.95 4.0 -5.55 M2.75 -5.7 L3.0 -5.15 2.95 -4.7 2.65 -4.35 2.65 -5.15 2.75 -5.7 M0.35 -5.7 L0.5 -5.5 0.6 -5.35 0.75 -4.15 0.6 -4.3 0.75 -3.75 1.0 -2.5 1.0 -2.45 Q0.4 -2.65 0.85 -1.75 L0.95 -1.4 0.85 -0.45 0.8 -0.2 0.65 -0.25 0.75 -1.3 Q0.3 -2.15 0.25 -3.15 L0.2 -4.15 0.35 -5.7 M-5.15 -5.75 L-4.95 -4.45 -4.8 -4.15 -5.0 -3.4 -4.9 -2.85 Q-5.35 -2.6 -5.3 -2.15 L-5.45 -2.35 Q-4.95 -3.4 -5.4 -4.5 L-5.45 -4.9 -5.15 -5.75 M-7.05 -5.1 L-6.95 -4.55 -7.35 -4.7 -7.6 -5.15 -7.1 -5.75 -7.05 -5.1 M-7.15 -3.15 L-7.3 -3.3 -7.3 -3.8 -7.2 -4.05 -7.15 -3.15 M-7.95 -5.7 Q-7.7 -5.45 -7.8 -4.95 L-7.95 -4.45 -8.3 -4.4 -8.3 -4.6 -8.0 -4.95 -7.95 -5.7 M-9.15 -5.7 L-8.9 -4.45 Q-9.1 -4.15 -9.15 -4.8 L-9.15 -5.7 M-9.0 -3.15 L-9.15 -3.9 Q-8.9 -3.75 -8.9 -3.1 L-9.0 -3.15 M-7.9 -3.45 L-8.0 -2.95 -8.05 -3.85 -7.9 -3.45 M-8.65 -0.9 Q-7.85 -0.25 -7.65 -0.6 -8.05 -1.45 -9.2 -0.9 -9.1 -0.5 -8.7 -0.8 L-8.65 -0.9 M-7.35 -2.8 L-6.9 -1.85 Q-7.5 -1.8 -7.45 -2.45 L-7.35 -2.8 M-6.4 -0.3 L-6.6 -0.75 -6.55 -0.85 -7.6 -1.0 -7.3 -0.7 -6.4 -0.3 M-5.85 -0.3 L-5.05 0.15 -5.25 -0.4 -4.8 0.2 -4.0 0.45 -4.2 0.0 -4.2 -0.05 -3.65 0.55 -2.9 0.45 -2.35 0.85 -1.85 0.85 -2.2 0.4 -6.55 -0.85 -5.85 -0.3 M-0.85 -1.1 L-0.95 -2.35 -1.1 -3.35 -0.85 -4.0 -1.15 -5.05 -1.1 -5.1 -0.55 -4.1 -0.75 -3.5 -0.65 -3.1 -0.35 -2.4 -0.75 -1.85 -0.6 -1.1 -0.35 -0.2 -0.85 -1.1 M-0.2 -5.7 L0.15 -7.15 -0.3 -7.05 -0.9 -5.65 -0.2 -5.7 M-1.8 -6.05 L-1.45 -5.65 -1.45 -5.25 -1.75 -4.2 -1.4 -3.35 -1.8 -2.65 -1.85 -2.65 -1.7 -3.4 -1.85 -5.1 -1.8 -6.05 M-3.0 -5.75 L-3.15 -4.8 -2.8 -4.15 -2.85 -4.05 -2.95 -3.5 -2.9 -2.75 -3.3 -3.5 -3.0 -4.25 -3.3 -4.75 -3.0 -5.75 M-3.55 -5.4 L-3.45 -4.8 -3.8 -4.35 -3.8 -4.4 -3.7 -5.35 -3.7 -5.8 -3.55 -5.4 M-4.0 -3.8 Q-4.15 -4.65 -3.8 -3.85 L-3.7 -3.0 -3.75 -2.8 Q-4.1 -2.85 -3.95 -3.55 L-4.0 -3.8 M-3.1 -2.0 L-2.9 -1.3 -2.95 -1.35 Q-3.2 -1.65 -3.1 -2.25 L-2.95 -2.5 -3.1 -2.0 M-4.25 -2.25 L-4.2 -2.45 Q-3.8 -2.8 -3.75 -2.0 L-4.05 -1.6 Q-4.25 -1.65 -4.25 -2.25 M-1.85 -1.15 L-1.6 -1.95 -1.8 -2.4 -1.4 -1.75 -1.55 -1.15 -1.9 -1.1 -1.85 -1.15 M-0.55 0.55 Q-0.8 0.8 -0.7 0.35 L-0.55 0.0 Q0.0 0.0 -0.55 0.55" fill="#6a713e" fill-rule="evenodd" stroke="none"/>
    <path d="M1.75 -2.35 L1.65 -2.5 1.95 -3.4 1.45 -5.8 1.8 -6.35 1.25 -7.45 1.25 -7.65 1.5 -7.7 3.5 -8.7 4.4 -9.0 4.8 -9.05 5.3 -8.4 4.8 -8.8 5.2 -8.15 5.2 -7.45 5.25 -6.8 5.6 -5.15 5.3 -4.9 5.15 -5.0 5.05 -4.65 4.25 -3.9 4.25 -4.0 Q3.75 -4.85 4.0 -3.7 L3.1 -2.9 3.0 -2.85 2.95 -2.85 2.85 -3.45 2.7 -3.9 2.7 -3.0 2.45 -3.1 Q1.75 -3.0 1.75 -2.35 M-2.85 -1.0 L-2.8 -1.1 -3.15 -1.0 -3.65 -1.05 -3.75 -1.15 -3.95 -1.05 -4.95 -1.2 -5.1 -1.5 -5.2 -1.75 -5.35 -1.25 -5.95 -1.35 -5.95 -1.65 -5.95 -3.0 -5.7 -3.6 -5.9 -4.25 -5.7 -5.0 -6.1 -5.8 -5.9 -4.95 -6.2 -4.35 -6.0 -3.75 -6.15 -2.65 -6.25 -1.4 -7.2 -1.25 Q-7.75 -1.15 -7.95 -2.0 L-7.9 -2.55 -8.2 -2.1 -8.25 -1.8 -8.3 -1.7 -8.45 -1.6 -8.85 -2.1 -9.2 -2.45 -9.0 -1.55 -9.15 -1.5 -9.4 -2.4 -9.3 -3.15 -9.3 -3.2 -9.4 -3.5 -9.55 -4.45 -9.6 -4.65 -9.65 -4.55 -9.75 -5.55 -9.8 -6.05 -9.8 -6.1 Q-10.25 -6.4 -9.85 -6.8 L-8.7 -6.9 -7.35 -7.25 -6.4 -7.4 -4.65 -7.5 -3.05 -7.7 Q-2.7 -7.75 -2.4 -7.9 L-0.95 -8.0 Q-0.05 -8.15 -0.6 -7.6 L-0.7 -7.5 Q-0.75 -7.3 -0.9 -7.25 L-1.0 -7.1 -1.2 -7.0 -1.3 -7.05 -1.95 -7.25 -1.65 -6.9 -2.6 -6.75 Q-3.15 -7.35 -3.1 -6.7 L-4.1 -6.5 -4.5 -6.7 Q-4.8 -6.65 -4.4 -6.45 L-4.4 -6.4 -7.35 -6.25 -7.65 -6.45 -8.0 -6.55 -7.95 -6.4 -7.75 -6.25 -8.65 -6.15 -8.85 -6.3 -9.15 -6.35 -9.1 -6.25 -8.8 -5.9 -1.15 -6.45 -1.2 -6.5 -0.6 -6.95 -1.3 -5.5 -0.2 -5.35 -0.05 -5.3 0.35 -5.7 0.2 -4.15 0.25 -3.15 Q0.3 -2.15 0.75 -1.3 L-0.6 -1.1 -0.75 -1.85 -0.35 -2.4 -0.65 -3.1 -0.75 -3.5 -0.55 -4.1 -1.1 -5.1 -1.15 -5.05 -0.85 -4.0 -1.1 -3.35 -0.95 -2.35 -0.85 -1.1 -1.55 -1.15 -1.4 -1.75 -1.8 -2.4 -1.6 -1.95 -1.85 -1.15 -2.85 -1.0 M0.95 -5.55 L0.95 -5.5 0.9 -5.55 0.95 -5.55 M1.1 -5.3 L1.6 -4.2 1.65 -2.5 1.5 -2.25 1.55 -1.95 0.95 -1.4 0.85 -1.75 Q0.4 -2.65 1.0 -2.45 L1.0 -2.5 0.75 -3.75 0.6 -4.3 0.75 -4.15 0.6 -5.35 1.1 -5.3 M5.0 -10.05 Q5.1 -9.8 4.65 -9.5 L3.1 -8.7 2.95 -8.55 Q2.75 -8.3 2.75 -8.6 L2.75 -8.7 2.65 -8.6 2.45 -8.3 1.7 -8.3 1.6 -8.05 1.45 -7.9 0.95 -7.7 0.75 -8.2 2.1 -9.05 3.6 -9.95 5.0 -10.05 M2.75 -5.7 L2.65 -5.15 2.65 -4.35 2.95 -4.7 3.0 -5.15 2.75 -5.7 M4.0 -5.55 L3.8 -5.95 3.85 -4.95 4.0 -5.55 M2.65 -6.9 Q2.35 -7.75 2.45 -7.2 L2.65 -5.7 Q2.85 -6.2 2.65 -6.9 M4.8 -6.45 L4.75 -6.35 Q4.55 -5.7 4.8 -5.05 L5.1 -5.3 Q5.6 -5.95 4.8 -6.45 M3.6 -6.6 L3.65 -6.75 3.8 -7.35 3.5 -8.05 3.6 -6.6 M4.65 -7.95 L4.25 -8.25 4.45 -7.05 4.7 -6.85 Q5.05 -7.5 4.65 -7.95 M-7.9 -3.45 L-8.05 -3.85 -8.0 -2.95 -7.9 -3.45 M-9.0 -3.15 L-8.9 -3.1 Q-8.9 -3.75 -9.15 -3.9 L-9.0 -3.15 M-9.15 -5.7 L-9.15 -4.8 Q-9.1 -4.15 -8.9 -4.45 L-9.15 -5.7 M-7.95 -5.7 L-8.0 -4.95 -8.3 -4.6 -8.3 -4.4 -7.95 -4.45 -7.8 -4.95 Q-7.7 -5.45 -7.95 -5.7 M-7.15 -3.15 L-7.2 -4.05 -7.3 -3.8 -7.3 -3.3 -7.15 -3.15 M-7.05 -5.1 L-7.1 -5.75 -7.6 -5.15 -7.35 -4.7 -6.95 -4.55 -7.05 -5.1 M-5.15 -5.75 L-5.45 -4.9 -5.4 -4.5 Q-4.95 -3.4 -5.45 -2.35 L-5.3 -2.15 Q-5.35 -2.6 -4.9 -2.85 L-5.0 -3.4 -4.8 -4.15 -4.95 -4.45 -5.15 -5.75 M-7.35 -2.8 L-7.45 -2.45 Q-7.5 -1.8 -6.9 -1.85 L-7.35 -2.8 M-4.25 -2.25 Q-4.25 -1.65 -4.05 -1.6 L-3.75 -2.0 Q-3.8 -2.8 -4.2 -2.45 L-4.25 -2.25 M-3.1 -2.0 L-2.95 -2.5 -3.1 -2.25 Q-3.2 -1.65 -2.95 -1.35 L-2.9 -1.3 -3.1 -2.0 M-4.0 -3.8 L-3.95 -3.55 Q-4.1 -2.85 -3.75 -2.8 L-3.7 -3.0 -3.8 -3.85 Q-4.15 -4.65 -4.0 -3.8 M-3.55 -5.4 L-3.7 -5.8 -3.7 -5.35 -3.8 -4.4 -3.8 -4.35 -3.45 -4.8 -3.55 -5.4 M-3.0 -5.75 L-3.3 -4.75 -3.0 -4.25 -3.3 -3.5 -2.9 -2.75 -2.95 -3.5 -2.85 -4.05 -2.8 -4.15 -3.15 -4.8 -3.0 -5.75 M-1.8 -6.05 L-1.85 -5.1 -1.7 -3.4 -1.85 -2.65 -1.8 -2.65 -1.4 -3.35 -1.75 -4.2 -1.45 -5.25 -1.45 -5.65 -1.8 -6.05" fill="#ffffcc" fill-rule="evenodd" stroke="none"/>
    <path d="M1.75 -2.35 Q1.75 -3.0 2.45 -3.1 L2.7 -3.0 2.65 -2.8 2.95 -2.85 3.0 -2.85 2.8 -2.5 Q2.3 -1.7 1.75 -2.35 M4.25 -3.9 L5.05 -4.65 Q5.0 -4.45 5.1 -4.3 5.3 -4.0 5.55 -4.45 5.8 -4.9 5.3 -4.9 L5.6 -5.15 6.0 -4.85 5.95 -4.35 5.8 -4.4 5.65 -4.4 5.6 -4.25 5.5 -4.0 5.45 -3.65 5.45 -3.55 5.35 -3.55 5.2 -3.75 4.6 -2.8 Q4.4 -2.55 4.45 -2.95 L4.45 -3.15 4.2 -2.5 3.55 -2.15 3.55 -2.35 3.55 -2.5 3.1 -1.3 2.9 -1.1 2.65 -1.05 2.65 -1.1 2.7 -1.3 2.7 -1.5 2.45 -0.85 2.1 -0.65 2.1 -0.7 2.0 -0.7 1.8 -0.45 1.45 0.0 1.5 -0.4 1.45 -0.4 1.4 -0.35 1.35 -0.3 1.25 -0.25 1.25 -0.2 1.25 -0.1 0.3 0.8 Q-0.4 1.0 -1.45 0.5 L-1.6 0.0 -1.7 -0.4 -1.85 0.1 -2.75 -0.4 -2.85 -1.0 -1.85 -1.15 -1.9 -1.1 -1.55 -1.15 -0.85 -1.1 -0.35 -0.2 -0.6 -1.1 0.75 -1.3 0.65 -0.25 0.8 -0.2 0.85 -0.45 0.95 -1.4 1.55 -1.95 1.55 -1.45 Q0.85 -0.85 1.55 -0.65 L1.7 -0.8 2.9 -2.15 3.85 -3.1 4.35 -3.6 4.25 -3.9 M-3.15 -1.0 L-3.3 -0.7 Q-3.55 -0.2 -3.65 -1.05 L-3.15 -1.0 M-3.95 -1.05 Q-4.2 -0.5 -4.6 -0.9 L-4.95 -1.2 -3.95 -1.05 M-0.05 -5.3 L0.3 -7.2 0.95 -5.55 0.9 -5.55 0.95 -5.5 1.1 -5.3 0.6 -5.35 0.5 -5.5 0.35 -5.7 -0.05 -5.3 M0.25 -7.65 L0.1 -7.65 Q0.15 -7.95 0.3 -7.85 0.8 -7.75 0.25 -7.65 M0.95 -6.65 L0.7 -7.35 1.3 -6.65 1.15 -5.9 0.95 -6.65 M-8.65 -0.9 L-8.7 -0.8 Q-9.1 -0.5 -9.2 -0.9 -8.05 -1.45 -7.65 -0.6 -7.85 -0.25 -8.65 -0.9 M-5.85 -0.3 L-6.55 -0.85 -2.2 0.4 -1.85 0.85 -2.35 0.85 -2.9 0.45 -3.65 0.55 -4.2 -0.05 -4.2 0.0 -4.0 0.45 -4.8 0.2 -5.25 -0.4 -5.05 0.15 -5.85 -0.3 M-6.4 -0.3 L-7.3 -0.7 -7.6 -1.0 -6.55 -0.85 -6.6 -0.75 -6.4 -0.3 M-0.2 -5.7 L-0.9 -5.65 -0.3 -7.05 0.15 -7.15 -0.2 -5.7 M-0.55 0.55 Q0.0 0.0 -0.55 0.0 L-0.7 0.35 Q-0.8 0.8 -0.55 0.55" fill="#c6c18e" fill-rule="evenodd" stroke="none"/>
  </g>
</svg>
