<?xml version="1.0" encoding="UTF-8" standalone="no"?>
<svg xmlns:ffdec="https://www.free-decompiler.com/flash" xmlns:xlink="http://www.w3.org/1999/xlink" ffdec:objectType="shape" height="59.7px" width="59.95px" xmlns="http://www.w3.org/2000/svg">
  <g transform="matrix(1.0, 0.0, 0.0, 1.0, 29.95, 29.85)">
    <path d="M12.5 -27.45 Q17.15 -25.35 20.45 -22.05 L14.85 -13.65 Q17.05 -11.3 18.25 -8.45 L28.2 -10.7 Q30.0 -5.75 30.0 -1.15 L20.0 0.9 Q20.0 4.05 18.9 6.85 L27.45 12.35 Q25.25 17.15 21.75 20.5 L13.6 14.75 Q11.25 17.0 8.5 18.3 L10.85 28.0 Q5.85 29.95 0.75 29.85 L-0.95 19.85 Q-4.15 19.95 -6.8 18.8 L-12.45 27.35 Q-17.25 25.15 -20.45 21.75 L-15.0 13.4 Q-17.1 11.15 -18.25 8.35 L-28.2 10.45 Q-30.0 5.6 -29.95 0.95 L-20.0 -1.05 Q-20.0 -4.2 -18.95 -6.9 L-27.25 -12.7 Q-25.6 -16.9 -22.1 -20.5 L-13.5 -14.75 Q-11.2 -17.15 -8.35 -18.2 L-10.25 -28.3 Q-6.2 -30.05 -1.2 -29.85 L0.85 -20.1 Q4.15 -20.05 7.05 -18.85 L12.45 -27.45 12.5 -27.45 M7.1 -7.1 L7.05 -7.15 Q4.15 -10.05 0.0 -10.05 -4.15 -10.05 -7.1 -7.15 -10.0 -4.2 -10.0 -0.05 -10.0 4.1 -7.1 7.0 L-7.05 7.05 Q-4.15 9.95 0.0 9.95 4.15 9.95 7.05 7.0 10.0 4.1 10.0 -0.05 10.0 -4.2 7.1 -7.1" fill="#000000" fill-rule="evenodd" stroke="none"/>
  </g>
</svg>
