<?xml version="1.0" encoding="UTF-8" standalone="no"?>
<svg xmlns:ffdec="https://www.free-decompiler.com/flash" xmlns:xlink="http://www.w3.org/1999/xlink" ffdec:objectType="shape" height="80.2px" width="186.3px" xmlns="http://www.w3.org/2000/svg">
  <g transform="matrix(1.0, 0.0, 0.0, 1.0, 93.3, 40.35)">
    <path d="M-62.15 -34.75 L-61.5 -34.9 Q-60.8 -35.15 -60.15 -35.55 -56.15 -38.05 -52.0 -40.15 L-51.1 -40.35 Q-48.6 -40.55 -46.75 -38.8 L-45.65 -37.6 -42.05 -32.0 -38.55 -26.7 Q-34.95 -25.7 -31.55 -24.05 -25.2 -21.1 -18.55 -18.8 L-14.4 -17.2 -10.55 -15.65 -10.4 -15.6 Q-9.5 -15.2 -8.7 -14.6 L-7.75 -13.75 Q-6.7 -12.55 -6.25 -11.0 -5.45 -8.45 -6.45 -5.8 -7.2 -3.9 -8.2 -2.15 -4.1 -3.4 0.15 -3.6 L3.6 -3.45 Q4.65 -3.3 5.55 -2.6 L6.9 -1.1 20.55 -22.95 Q22.0 -26.45 25.65 -27.6 L29.05 -27.9 31.3 -27.25 32.35 -26.65 Q37.95 -22.9 43.7 -19.3 45.8 -17.95 47.85 -16.7 48.35 -17.35 48.5 -18.4 L49.15 -21.0 Q49.65 -22.45 50.5 -23.7 L51.35 -24.75 Q54.25 -27.2 58.0 -26.55 L58.95 -26.35 67.55 -23.95 70.05 -23.3 88.3 -17.95 Q90.0 -17.5 91.15 -16.15 92.7 -14.3 92.95 -11.95 93.15 -10.15 92.6 -8.35 L91.45 -4.45 Q90.7 -1.55 89.55 1.25 L89.1 1.85 84.65 5.8 80.7 9.25 80.35 9.5 85.1 24.6 86.2 28.15 Q86.9 30.55 86.1 32.95 L85.4 34.3 84.8 35.0 82.7 36.5 81.8 36.9 73.75 39.5 Q70.6 40.4 67.7 38.9 L66.55 38.1 Q64.75 36.4 64.0 34.05 62.75 30.35 61.75 26.55 L61.25 25.45 Q59.7 26.45 58.45 27.65 L53.55 31.65 Q51.95 32.75 50.0 32.85 L47.8 32.55 46.35 31.9 45.85 31.55 45.4 31.45 40.55 25.95 40.35 25.9 39.15 27.65 35.3 33.3 Q34.15 34.8 32.5 35.6 30.85 36.3 29.0 36.05 L28.0 35.75 26.6 35.3 25.7 34.9 17.85 29.55 17.25 28.9 16.3 27.65 Q13.4 32.4 10.05 36.75 8.7 38.5 6.5 38.6 L4.75 38.4 3.95 38.1 1.4 36.95 -1.85 35.25 -5.8 32.35 -6.3 31.75 Q-7.85 29.1 -6.85 26.3 L-6.05 24.15 -6.55 24.05 -9.2 24.45 Q-9.4 26.2 -10.25 27.85 L-11.3 30.3 -13.3 34.6 Q-14.0 35.75 -15.1 36.55 L-16.15 37.15 -17.3 37.5 -18.25 37.7 -21.9 37.4 -25.8 35.85 -38.8 30.6 Q-43.75 28.65 -48.55 26.4 L-48.8 26.3 -49.05 26.65 Q-48.25 29.5 -48.75 32.4 L-49.1 33.5 Q-50.05 35.5 -52.0 36.55 -53.75 37.4 -55.6 37.85 L-57.55 38.35 -61.45 39.2 -63.7 39.5 -64.25 39.5 Q-66.2 39.5 -67.8 38.2 -70.3 36.2 -70.95 33.1 -71.55 30.35 -72.45 27.75 L-76.3 28.55 -76.5 28.7 Q-78.75 28.85 -80.75 27.8 -82.05 27.2 -82.8 26.0 -83.7 24.6 -84.1 23.05 L-86.3 15.45 Q-88.35 14.9 -89.4 13.05 L-89.95 12.1 Q-90.85 10.45 -91.35 8.5 L-92.9 2.5 -93.25 0.5 Q-93.35 -0.55 -93.1 -1.55 -92.5 -3.7 -90.55 -4.75 L-87.6 -6.1 -82.6 -7.95 Q-84.1 -11.9 -84.3 -16.0 -84.35 -17.35 -83.8 -18.55 -82.7 -20.8 -80.45 -21.7 L-77.95 -22.7 -75.0 -23.65 -73.7 -24.05 Q-74.25 -26.6 -72.35 -28.4 -68.2 -32.4 -62.7 -34.6 L-62.15 -34.75" fill="#000000" fill-rule="evenodd" stroke="none"/>
    <path d="M-48.5 -35.8 L-48.4 -35.7 -41.25 -25.0 -40.75 -23.8 -40.45 -23.85 -39.6 -23.9 -11.15 -12.4 -10.4 -11.75 Q-8.95 -10.2 -9.35 -8.1 L-13.65 1.85 -7.45 1.2 Q-7.2 1.0 -6.95 0.9 -6.2 0.45 -5.35 0.25 L1.65 -0.65 2.05 -0.6 Q4.7 -0.1 5.2 2.65 L6.65 9.6 10.5 4.1 Q9.35 2.35 9.9 0.5 L24.05 -22.85 Q25.7 -25.25 28.65 -24.9 L29.25 -24.65 29.4 -24.55 49.65 -11.85 51.9 -19.9 Q52.65 -22.75 55.5 -23.55 L56.15 -23.55 87.75 -14.75 89.1 -13.65 Q89.95 -12.75 89.8 -11.65 L89.5 -10.1 Q88.65 -5.5 87.05 -1.15 L86.7 -0.65 76.95 7.85 76.6 8.1 83.15 28.8 83.25 29.2 Q83.55 31.4 82.15 32.95 L82.0 33.1 71.4 36.75 69.7 36.4 Q68.3 35.9 67.8 34.6 L67.75 34.55 62.9 19.95 52.75 28.55 52.6 28.7 Q51.15 30.0 49.25 29.75 48.5 29.65 48.0 29.2 L47.6 28.85 41.75 22.5 40.6 20.75 40.3 20.2 32.85 31.6 Q31.45 32.9 29.4 32.75 L28.35 32.5 19.95 27.3 Q18.4 25.65 18.7 23.2 L18.95 22.45 34.25 -1.75 31.7 -3.35 24.4 8.05 22.2 10.15 Q22.4 11.45 21.9 12.6 L7.9 34.6 7.9 34.65 Q6.7 36.25 4.65 35.55 L3.95 35.3 -2.75 31.25 Q-3.65 30.35 -4.05 29.05 -4.35 28.2 -4.05 27.3 L-3.95 27.05 -1.0 21.65 -1.25 21.55 -1.55 21.55 Q-3.7 21.95 -5.4 20.65 L-12.25 22.05 Q-12.1 22.8 -12.2 23.6 L-12.3 24.15 -16.0 33.2 Q-17.1 34.35 -18.9 34.6 L-20.05 34.5 -48.15 23.0 -49.15 21.95 -49.2 21.85 Q-49.75 20.45 -49.55 19.05 L-49.4 18.1 -54.2 19.45 -51.45 29.9 -51.4 31.05 Q-51.4 31.85 -51.8 32.55 -52.45 33.65 -53.5 34.15 L-63.6 36.5 -64.7 36.25 Q-66.45 35.8 -67.15 34.2 L-67.2 34.0 -70.6 23.8 -77.05 25.25 -77.6 25.2 Q-79.9 25.0 -80.7 22.9 L-80.8 22.65 -83.4 13.95 -83.55 12.65 Q-86.35 12.55 -87.35 10.2 L-89.95 1.3 Q-90.4 -0.55 -89.2 -2.15 L-88.7 -2.55 -88.5 -2.65 -78.85 -5.95 -81.05 -14.7 -81.1 -15.8 Q-81.15 -17.9 -79.25 -18.7 L-69.9 -21.85 -70.5 -23.5 Q-70.9 -25.3 -69.9 -26.5 L-63.2 -31.1 -61.7 -31.8 -60.0 -31.6 -59.85 -32.05 -59.35 -32.45 -52.8 -36.4 -51.65 -36.9 Q-49.7 -37.6 -48.5 -35.8 M55.65 -6.75 L55.5 -3.85 55.0 -2.65 44.8 13.15 65.1 -4.1 55.65 -6.75 M-44.9 -18.2 L-45.1 -18.05 -48.45 -16.0 -48.6 -15.9 -49.4 -15.7 -51.25 -15.55 -54.95 -12.7 -52.85 -13.15 -51.95 -13.3 Q-48.7 -14.0 -47.65 -11.05 L-45.0 -3.05 -44.85 -3.6 Q-44.2 -5.25 -43.0 -6.45 L-42.15 -7.2 Q-44.45 -7.9 -45.95 -9.65 L-46.35 -10.4 Q-46.7 -11.7 -46.5 -12.9 L-44.75 -18.1 -44.8 -18.25 -44.9 -18.2 M-18.05 13.45 L-18.75 15.15 -20.05 16.75 -17.15 18.0 -18.05 13.45 M-46.25 10.35 L-44.55 8.35 -44.8 8.2 Q-48.3 6.5 -47.3 2.75 L-48.55 3.1 -46.25 10.35 M-62.2 -10.55 L-62.95 -11.25 -62.7 -10.45 -62.2 -10.55" fill="#ffffff" fill-rule="evenodd" stroke="none"/>
    <path d="M88.7 -11.65 L88.35 -9.65 86.6 -3.2 86.1 -1.85 85.25 -0.75 Q83.45 0.55 81.8 2.05 L75.2 7.6 75.25 7.75 75.55 8.8 81.55 27.85 Q82.15 29.15 82.0 30.6 L81.85 31.15 Q81.35 32.5 80.05 32.9 L73.45 34.95 Q69.4 36.7 68.15 32.65 L68.05 32.25 63.35 17.75 52.95 26.7 51.35 27.95 Q51.2 28.05 51.0 28.2 L50.05 28.55 Q48.5 28.55 47.55 27.3 L42.75 21.8 Q40.6 19.25 43.05 16.8 L43.2 16.6 67.6 -4.65 52.35 -9.05 52.05 -9.3 Q51.5 -9.7 51.3 -10.25 50.95 -11.4 51.45 -12.5 L53.3 -20.05 Q53.8 -21.7 55.45 -22.3 L56.1 -22.35 58.15 -21.95 85.3 -14.35 87.0 -13.85 Q88.15 -13.5 88.6 -12.35 L88.7 -11.65 M-50.25 -35.35 L-50.0 -35.15 -42.55 -24.55 -42.2 -23.75 -42.05 -22.7 Q-42.15 -21.85 -42.95 -21.4 L-49.3 -16.9 Q-50.4 -16.6 -51.35 -17.15 L-51.85 -17.55 -52.2 -16.55 -52.35 -16.3 -52.9 -15.75 -58.9 -11.9 Q-60.05 -10.9 -61.3 -11.65 L-61.65 -11.9 -61.85 -12.0 -66.2 -18.3 -63.65 -8.9 -63.4 -9.0 Q-61.65 -9.4 -60.05 -9.9 L-58.2 -10.45 -57.4 -10.65 -54.75 -11.35 -54.1 -11.55 -53.55 -11.7 -53.05 -11.85 -51.75 -12.15 -51.35 -12.2 -50.55 -12.2 -50.45 -12.2 -50.2 -12.1 Q-49.3 -11.65 -48.7 -10.85 L-48.65 -10.75 -46.1 -1.45 -46.2 -0.25 -46.95 0.7 -52.1 2.55 -52.15 2.55 -51.75 2.9 Q-50.8 2.9 -50.1 3.4 -49.45 3.9 -49.45 4.65 L-47.0 13.55 -46.95 14.45 Q-47.05 15.1 -47.5 15.6 L-47.65 15.65 -55.75 18.4 -52.6 29.8 -52.65 30.85 -52.65 31.05 -52.65 31.15 -53.25 32.2 -53.3 32.2 -63.8 35.25 -64.05 35.25 -64.2 35.25 Q-65.3 34.75 -66.05 33.95 L-66.05 33.9 -69.5 22.25 -76.8 24.1 -77.45 24.1 -77.6 24.1 -78.2 23.95 -78.5 23.85 -79.15 23.35 -79.5 22.9 -82.15 13.85 -82.15 13.75 -82.15 13.15 -82.1 13.0 Q-81.85 11.75 -81.15 11.0 L-81.3 11.0 -81.7 11.15 -83.4 11.35 -83.45 11.4 -84.25 11.4 -84.25 11.35 -84.75 11.25 -84.95 11.2 -86.0 10.3 -86.1 10.25 -88.8 -0.1 -88.8 -0.5 Q-88.35 -1.55 -87.35 -2.05 L-77.4 -5.05 -79.9 -15.3 Q-79.9 -16.35 -79.45 -17.1 -79.05 -17.85 -78.45 -17.8 L-77.1 -18.25 -69.0 -20.5 -68.35 -20.5 -68.2 -20.5 -67.75 -20.4 -67.5 -20.25 Q-67.35 -20.2 -67.45 -20.35 L-69.1 -23.25 Q-69.75 -24.7 -68.65 -25.85 L-68.35 -26.1 -62.3 -30.0 Q-61.8 -30.5 -61.15 -30.45 L-60.4 -30.3 -59.45 -29.9 -59.4 -30.1 -58.55 -31.55 -58.45 -31.65 -52.0 -35.5 -51.6 -35.6 -51.0 -35.6 -50.75 -35.55 -50.25 -35.35 M52.95 -8.25 L53.35 -7.95 54.0 -7.05 Q54.6 -5.9 54.35 -4.55 L53.8 -3.05 33.1 29.0 Q31.35 32.85 27.75 30.95 L27.4 30.75 20.35 26.05 Q19.9 25.45 19.8 24.75 19.7 24.0 19.95 23.1 L20.5 22.25 20.6 22.1 35.95 -1.8 36.05 -1.95 36.0 -2.0 31.45 -5.15 31.35 -5.1 30.8 -4.6 27.35 1.15 25.55 4.0 23.35 7.55 Q22.65 8.7 21.05 8.85 L20.9 8.85 20.15 8.85 20.5 9.15 20.8 9.5 21.15 10.4 21.05 11.35 20.45 12.8 19.85 13.85 7.95 32.3 6.9 33.75 6.4 34.15 5.75 34.35 Q4.5 34.5 3.55 33.7 L-1.75 30.5 -2.65 29.55 -2.95 28.4 Q-3.2 27.05 -2.3 26.05 L1.65 19.75 1.4 19.65 0.95 19.8 0.9 19.8 -1.8 20.2 -2.45 20.35 -3.2 20.3 -4.9 19.3 -5.05 19.1 -5.1 19.2 -5.3 19.25 -11.45 20.35 -13.5 20.55 -13.7 20.55 Q-15.45 19.85 -15.55 18.05 L-17.25 8.5 -17.4 8.6 -19.95 14.25 Q-20.25 15.05 -20.95 15.45 L-21.6 15.7 -22.3 15.65 -23.5 15.4 -23.75 15.3 -44.15 6.95 Q-45.1 6.65 -45.75 6.0 L-46.0 5.75 -46.3 4.5 -46.25 3.65 -46.15 3.3 -43.1 -4.05 -42.65 -5.0 -42.05 -5.85 -41.65 -6.2 -40.55 -6.5 -38.3 -5.85 -18.45 2.15 Q-18.0 2.35 -17.65 2.65 L-16.4 3.95 -16.1 3.75 Q-15.7 3.45 -15.0 3.45 L-8.55 2.3 -8.4 2.3 Q-7.7 2.3 -7.3 2.6 L-7.05 2.7 Q-7.05 2.3 -6.65 2.05 -6.3 1.8 -5.85 1.7 L0.95 0.55 Q2.05 0.25 3.1 0.85 L3.3 1.05 Q3.8 1.55 3.85 2.35 L5.95 13.0 6.05 12.85 10.3 6.3 10.35 6.25 10.7 5.8 Q11.45 4.85 13.05 4.8 L13.0 4.75 11.95 3.85 11.8 3.7 11.55 3.45 11.3 3.05 11.15 2.7 10.9 1.7 10.95 1.25 Q11.1 0.3 11.7 -0.4 L24.8 -21.6 25.35 -22.45 Q26.0 -23.3 27.05 -23.65 27.6 -23.85 28.2 -23.65 L28.6 -23.6 Q29.7 -23.4 30.55 -22.65 L51.9 -8.95 52.95 -8.25 M-41.1 9.45 L-40.65 9.65 -15.2 20.15 -15.0 20.25 -14.55 20.45 -13.8 21.25 -13.75 21.35 Q-13.0 22.65 -13.55 24.1 L-16.8 32.0 Q-17.4 33.55 -19.15 33.45 L-19.6 33.4 -21.25 32.85 -45.85 22.8 Q-46.75 22.55 -47.45 22.0 L-48.1 21.2 Q-48.65 19.95 -48.15 18.7 L-45.3 11.8 -44.35 10.3 Q-43.05 8.85 -41.1 9.45 M-11.35 -11.3 L-11.3 -11.2 Q-9.5 -9.3 -10.95 -6.9 L-13.95 0.1 Q-14.75 1.3 -16.15 1.45 L-17.5 1.3 -18.55 0.95 -42.65 -8.7 Q-44.05 -9.1 -44.8 -10.2 -45.9 -11.75 -45.15 -13.45 L-41.95 -20.95 Q-40.7 -23.2 -37.95 -22.25 L-37.65 -22.15 -11.35 -11.3" fill="#000000" fill-rule="evenodd" stroke="none"/>
    <path d="M79.6 1.45 L77.1 3.6 73.2 7.1 80.15 29.55 80.2 29.75 80.3 30.15 80.25 30.7 79.9 30.9 71.5 33.7 70.9 33.75 70.7 33.6 70.2 33.0 64.45 14.75 50.6 26.25 49.65 26.55 49.0 26.1 43.55 19.9 43.35 18.85 43.3 18.65 44.25 17.8 71.3 -5.35 53.45 -10.6 Q52.7 -10.7 52.8 -11.45 L52.85 -11.65 55.25 -19.8 55.65 -20.35 55.8 -20.5 56.4 -20.45 56.65 -20.4 86.35 -12.15 86.5 -12.05 86.8 -11.8 86.95 -11.35 84.5 -2.65 79.6 1.45 M-51.25 -34.15 L-51.1 -34.1 -50.6 -33.65 -43.8 -23.5 -43.7 -23.3 Q-43.6 -22.95 -43.9 -22.7 L-44.55 -22.2 -45.4 -21.6 -45.55 -21.55 -47.9 -19.95 -49.7 -18.75 -50.4 -18.55 -51.15 -19.15 -57.05 -28.3 -57.6 -29.1 -57.6 -29.85 -57.6 -30.0 -57.1 -30.35 -52.15 -33.65 -51.25 -34.15 M52.45 -6.25 L52.55 -4.85 52.55 -4.7 49.0 0.95 48.1 2.35 44.5 8.0 42.65 10.8 42.5 11.0 38.95 16.6 35.3 22.2 34.4 23.6 30.85 29.05 30.65 29.35 30.5 29.55 30.05 29.8 29.5 29.75 29.25 29.65 22.35 25.4 21.8 24.85 21.65 24.5 Q21.6 24.2 21.7 24.0 L21.95 23.4 38.6 -2.25 38.7 -2.35 38.65 -2.45 35.45 -4.65 31.05 -7.55 30.9 -7.65 30.85 -7.65 21.75 6.75 Q21.35 7.3 20.55 7.05 L20.3 7.0 13.2 2.55 Q12.25 1.95 12.8 0.95 L12.9 0.75 16.3 -4.55 19.85 -10.2 23.4 -15.85 26.45 -20.8 Q26.7 -21.4 27.25 -21.8 L27.6 -22.0 Q28.3 -21.95 28.85 -21.45 L52.4 -6.25 52.45 -6.25 M-5.1 3.4 L1.05 2.2 1.2 2.2 1.85 2.35 2.2 2.8 2.45 3.45 2.45 3.55 4.8 16.3 4.6 17.0 3.55 17.6 -2.1 18.55 -2.25 18.55 -3.05 18.55 -3.45 18.05 -3.55 17.75 -6.1 4.75 -6.0 3.8 -5.95 3.75 -5.1 3.4 M-5.4 16.35 L-5.35 16.55 -5.4 16.9 -5.5 17.25 Q-5.85 17.65 -6.5 17.75 L-12.25 18.95 -12.9 18.95 -13.1 18.9 -13.35 18.7 -13.6 18.45 -13.7 18.15 -15.8 6.25 -15.75 5.85 -15.75 5.7 -15.7 5.6 -15.7 5.55 Q-15.4 5.3 -15.0 5.2 L-14.85 5.2 -8.9 4.15 -8.0 4.15 -7.5 5.1 -7.5 5.15 -5.4 16.35 M12.2 6.8 L12.65 6.55 13.45 6.85 18.7 10.0 19.0 10.25 19.25 10.55 19.3 10.95 19.3 11.1 18.7 12.25 6.1 31.95 5.8 32.25 5.5 32.4 5.1 32.4 4.45 32.15 -0.5 29.0 -0.95 28.65 -1.1 28.45 -1.25 27.7 -1.05 27.4 11.55 7.7 12.2 6.8 M-12.45 -9.6 Q-12.25 -9.2 -12.3 -8.5 L-15.65 -0.6 -15.95 -0.2 -16.55 -0.15 -16.85 -0.25 -43.0 -11.0 -43.2 -11.15 -43.6 -11.4 -43.75 -12.3 -43.6 -12.65 -43.55 -12.9 -43.25 -13.45 -40.8 -19.55 -40.25 -20.6 -40.0 -20.75 -39.05 -20.65 -21.35 -13.45 -15.1 -10.9 -13.35 -10.15 -12.95 -10.0 -12.75 -9.8 -12.45 -9.6 M-39.8 -4.65 L-39.7 -4.65 -18.6 4.1 -18.2 4.4 -18.1 5.1 -21.4 13.4 -22.0 13.9 -22.7 13.8 -43.95 5.05 -44.25 4.7 -44.45 3.75 -41.2 -4.0 -41.2 -4.05 -40.8 -4.5 -39.85 -4.65 -39.8 -4.65 M-60.7 -28.55 L-60.45 -28.25 -53.9 -18.5 -53.7 -17.35 -53.85 -17.2 -54.0 -17.1 Q-55.15 -16.15 -56.45 -15.35 L-59.25 -13.55 Q-59.65 -13.3 -60.3 -13.35 -61.15 -13.75 -61.55 -14.6 L-62.45 -16.1 -62.6 -16.3 -63.9 -18.25 -67.5 -23.75 -67.5 -23.9 -67.45 -24.65 -62.0 -28.35 -61.5 -28.55 -60.85 -28.55 -60.7 -28.55 M-43.05 11.25 L-41.9 11.1 -16.4 21.6 -16.0 21.75 Q-15.6 21.85 -15.3 22.2 L-15.2 22.4 -15.15 23.0 -15.15 23.25 -18.45 31.0 -18.7 31.5 -19.0 31.75 -20.15 31.45 -45.35 20.95 -46.1 20.6 -46.4 20.45 -46.55 20.15 -46.55 19.7 -46.3 18.65 -45.85 17.75 -43.1 11.3 -43.05 11.25 M-50.2 -9.85 L-50.15 -9.85 -47.95 -2.05 Q-47.75 -1.4 -47.95 -0.75 L-48.0 -0.55 Q-48.45 -0.15 -49.05 -0.05 L-49.25 0.0 -61.9 3.5 -61.85 3.7 -61.4 5.2 -61.1 6.5 -61.0 6.75 -60.9 6.8 -53.5 4.7 Q-51.5 3.9 -50.85 5.7 L-50.8 5.9 -48.95 12.55 -48.9 12.85 -48.85 13.75 -49.0 14.3 -49.2 14.5 -50.0 14.85 -58.0 17.1 -58.05 17.1 -54.6 29.1 Q-54.4 29.7 -54.5 30.4 -54.7 31.1 -55.45 31.3 L-63.3 33.55 -63.85 33.6 -64.05 33.5 -64.15 33.35 -64.3 33.15 -64.45 32.9 -65.4 29.85 -68.2 19.95 -76.15 22.25 -77.55 22.4 -78.0 21.65 -78.0 21.55 -80.2 14.5 -80.35 13.95 Q-80.55 13.2 -80.1 12.55 L-79.55 12.25 -79.45 12.2 -79.15 12.1 -71.4 9.9 -71.2 9.8 -71.2 9.65 Q-71.55 7.95 -72.05 6.4 L-72.15 6.4 -82.8 9.45 -84.25 9.5 -84.25 9.4 -84.35 9.35 -84.6 8.7 -86.55 2.3 -86.95 0.15 -86.5 -0.45 -75.1 -3.75 -75.1 -3.8 -78.0 -14.6 -78.1 -14.85 -78.2 -15.75 -77.35 -16.5 -69.3 -18.65 -68.7 -18.65 -68.55 -18.65 Q-68.0 -18.05 -67.8 -17.1 L-67.75 -16.95 -64.8 -6.8 -64.75 -6.75 -52.45 -10.1 -50.3 -9.95 -50.2 -9.85" fill="#f8a831" fill-rule="evenodd" stroke="none"/>
  </g>
</svg>
