<?xml version="1.0" encoding="UTF-8" standalone="no"?>
<svg xmlns:ffdec="https://www.free-decompiler.com/flash" xmlns:xlink="http://www.w3.org/1999/xlink" ffdec:objectType="shape" height="13.8px" width="18.55px" xmlns="http://www.w3.org/2000/svg">
  <g transform="matrix(1.0, 0.0, 0.0, 1.0, 11.15, 12.15)">
    <path d="M-10.6 -3.7 L-11.0 -3.8 -11.15 -5.8 -11.15 -6.4 -10.35 -8.6 -10.3 -8.6 -10.1 -8.55 -9.65 -8.6 Q-8.7 -8.0 -7.55 -7.85 L-7.1 -7.75 -6.9 -7.75 -6.75 -7.9 -6.5 -8.05 -1.0 -8.2 -0.6 -8.5 Q0.45 -8.1 1.1 -9.05 L2.5 -9.35 Q2.4 -10.25 3.3 -10.2 L4.15 -11.35 4.05 -11.7 4.1 -12.1 4.9 -12.15 Q5.8 -11.7 6.15 -10.75 L6.25 -10.4 Q6.45 -10.0 6.1 -9.7 L7.35 -5.95 7.15 -5.45 7.4 -4.7 7.35 -4.0 Q7.4 -2.75 6.45 -2.05 L4.4 -0.65 3.65 -0.2 1.2 1.1 0.45 1.35 -0.55 1.65 -0.9 1.35 -1.8 1.5 -3.95 1.2 -4.35 0.95 -5.05 1.0 -5.6 0.6 -5.85 0.65 -6.1 0.85 -6.6 0.9 -7.9 0.3 -9.55 -0.5 -9.6 -1.35 -8.75 -0.4 -8.15 -0.45 -7.75 0.0 -7.0 0.1 -6.9 0.25 -6.45 0.6 -6.2 0.35 -6.05 0.15 -5.65 0.35 -4.05 0.45 -3.7 0.8 -2.8 0.75 -2.4 1.15 -1.1 0.8 Q-1.0 0.5 -0.55 0.95 L-0.25 1.15 Q0.4 1.15 0.8 0.65 L1.9 0.6 2.55 -0.2 Q3.7 -0.5 4.7 -1.2 L5.15 -1.6 5.9 -1.85 6.2 -2.05 6.35 -2.8 6.9 -3.25 6.95 -4.2 6.95 -4.25 6.95 -4.35 7.05 -4.85 6.7 -5.15 6.25 -5.2 6.2 -5.35 6.8 -5.5 7.0 -6.55 6.3 -7.55 6.4 -8.0 Q6.4 -8.45 5.9 -8.65 L5.95 -9.5 5.9 -9.75 5.5 -10.05 5.6 -10.95 Q5.35 -11.65 4.5 -11.55 L4.5 -10.65 4.0 -10.15 3.9 -9.5 3.2 -9.6 3.0 -9.35 2.95 -9.1 1.35 -8.6 1.05 -8.1 -2.2 -7.85 -2.55 -7.4 Q-3.35 -6.95 -3.75 -7.6 L-4.5 -7.55 -6.1 -7.85 Q-6.5 -7.9 -6.8 -7.5 L-6.9 -7.5 -9.0 -7.7 -9.6 -8.05 -10.15 -7.95 -10.3 -7.9 -10.45 -7.9 -10.75 -7.5 Q-11.1 -6.7 -10.7 -6.1 L-10.85 -5.35 -10.7 -4.95 -10.6 -3.7 M1.3 -6.6 L-0.3 -6.25 1.1 -7.15 1.3 -6.6 M2.2 -7.2 L1.8 -7.25 2.55 -7.2 2.55 -7.1 Q2.35 -7.05 2.2 -7.2 M4.6 -8.35 Q4.35 -8.0 3.95 -7.8 L3.45 -7.7 4.1 -8.6 4.75 -9.0 4.6 -8.35 M-2.0 -6.45 L-1.6 -6.55 -1.2 -6.45 -1.05 -6.2 -1.2 -5.95 -1.6 -5.85 -2.0 -5.95 -2.15 -6.2 -2.0 -6.45 M-8.5 -5.95 L-9.4 -6.3 -9.55 -6.35 -9.45 -6.35 -9.05 -6.4 Q-8.45 -6.5 -8.5 -5.95 M-7.7 -6.1 L-7.15 -6.25 Q-6.45 -5.6 -5.45 -5.95 L-4.85 -6.0 Q-4.85 -5.2 -6.1 -5.6 L-7.7 -6.1 M-2.55 -5.95 L-3.15 -5.55 -4.15 -5.75 -3.9 -6.1 -3.2 -6.35 -2.55 -5.95" fill="#666666" fill-rule="evenodd" stroke="none"/>
    <path d="M-10.15 -7.95 L-9.6 -8.05 -9.0 -7.7 -6.9 -7.5 -6.8 -7.5 Q-6.5 -7.9 -6.1 -7.85 L-4.5 -7.55 -3.75 -7.6 Q-3.35 -6.95 -2.55 -7.4 L-2.2 -7.85 1.05 -8.1 1.35 -8.6 2.95 -9.1 3.0 -9.35 3.2 -9.6 3.9 -9.5 4.0 -10.15 4.5 -10.65 4.5 -11.55 Q5.35 -11.65 5.6 -10.95 L5.5 -10.05 5.9 -9.75 5.95 -9.5 5.9 -8.65 Q6.4 -8.45 6.4 -8.0 L6.3 -7.55 6.1 -7.45 5.95 -7.2 5.9 -7.05 5.6 -6.9 5.6 -6.55 5.85 -6.4 6.25 -6.3 6.2 -5.95 6.2 -5.35 6.25 -5.2 5.55 -5.35 5.1 -5.05 4.95 -5.1 4.55 -5.6 3.35 -4.65 3.9 -3.9 3.55 -3.55 2.35 -3.5 2.8 -2.9 2.3 -2.75 1.95 -3.2 1.1 -2.9 0.95 -3.0 0.7 -3.3 0.5 -3.35 Q0.0 -2.7 0.85 -2.1 L1.05 -2.2 1.45 -2.45 1.6 -2.35 0.3 -1.85 -0.2 -2.2 -0.85 -1.85 -0.9 -1.75 -1.5 -1.7 -1.8 -1.85 -1.95 -2.15 -2.35 -2.55 -2.7 -2.25 -2.9 -1.7 -3.0 -1.7 -3.25 -1.95 -3.7 -2.0 -3.8 -2.1 -4.3 -2.35 -4.6 -1.85 -4.7 -1.95 -5.0 -2.7 -5.1 -2.65 -5.4 -2.0 -5.35 -1.8 -5.7 -2.1 -6.0 -2.65 -6.1 -2.75 -6.6 -2.95 -6.75 -2.85 -6.8 -2.55 Q-6.8 -3.1 -7.4 -3.25 L-7.75 -2.95 -8.0 -2.85 -8.1 -3.25 -8.5 -3.45 -8.6 -3.45 -8.9 -4.25 -8.15 -5.05 -8.1 -5.15 -8.5 -5.95 Q-8.45 -6.5 -9.05 -6.4 L-9.45 -6.35 Q-9.1 -7.1 -9.75 -7.6 L-10.15 -7.95 M1.3 -6.6 L1.1 -7.15 -0.3 -6.25 1.3 -6.6 M2.2 -7.2 Q2.35 -7.05 2.55 -7.1 L2.55 -7.2 1.8 -7.25 2.2 -7.2 M4.6 -8.35 L4.75 -9.0 4.1 -8.6 3.45 -7.7 3.95 -7.8 Q4.35 -8.0 4.6 -8.35 M2.15 -4.05 L2.15 -4.6 Q2.1 -5.3 1.6 -4.85 L1.45 -4.45 Q1.2 -4.1 1.5 -3.5 L1.7 -3.45 2.15 -3.85 2.15 -4.05 M0.7 -5.15 L0.9 -5.1 1.2 -5.2 1.3 -5.4 Q1.1 -6.45 0.65 -5.5 0.6 -5.35 0.7 -5.15 M5.1 -6.25 L5.0 -6.45 Q4.85 -5.8 5.1 -6.25 M4.9 -7.4 Q4.8 -7.1 5.1 -7.3 5.2 -8.1 4.9 -7.4 M-2.0 -6.45 L-2.15 -6.2 -2.0 -5.95 -1.6 -5.85 -1.2 -5.95 -1.05 -6.2 -1.2 -6.45 -1.6 -6.55 -2.0 -6.45 M-7.45 -5.5 Q-8.0 -5.3 -7.8 -4.9 L-7.7 -4.7 -7.45 -4.6 -7.25 -4.65 Q-6.8 -5.35 -7.45 -5.5 M-7.65 -4.25 L-8.0 -4.4 -8.3 -4.25 -8.45 -3.95 -8.3 -3.6 -8.0 -3.5 -7.65 -3.6 -7.55 -3.95 -7.65 -4.25 M-6.6 -3.85 L-6.5 -3.55 -6.25 -3.45 -6.0 -3.55 -5.9 -3.85 -6.0 -4.1 -6.25 -4.25 -6.5 -4.1 -6.6 -3.85 M-7.7 -6.1 L-6.1 -5.6 Q-4.85 -5.2 -4.85 -6.0 L-5.45 -5.95 Q-6.45 -5.6 -7.15 -6.25 L-7.7 -6.1 M-3.95 -3.45 L-4.1 -3.1 -3.95 -2.75 Q-3.85 -2.6 -3.7 -2.6 -3.55 -2.6 -3.4 -2.75 L-3.3 -3.1 -3.4 -3.45 -3.7 -3.6 -3.95 -3.45 M-4.85 -3.55 L-4.55 -3.95 -5.1 -3.95 -4.85 -3.55 M-0.35 -4.0 L-0.6 -3.85 -0.75 -3.6 -0.6 -3.3 -0.35 -3.2 -0.05 -3.3 0.05 -3.6 -0.05 -3.85 -0.35 -4.0 M-1.7 -3.95 Q-2.4 -3.6 -1.9 -3.6 L-1.75 -3.75 Q-1.4 -4.1 -1.7 -3.95 M-2.55 -5.95 L-3.2 -6.35 -3.9 -6.1 -4.15 -5.75 -3.15 -5.55 -2.55 -5.95 M-0.65 -2.35 L-0.55 -2.7 -0.65 -3.0 -0.95 -3.15 -1.2 -3.0 -1.35 -2.7 -1.2 -2.35 -0.95 -2.25 -0.65 -2.35" fill="#ffffff" fill-rule="evenodd" stroke="none"/>
    <path d="M-10.6 -3.7 L-10.7 -4.95 -10.85 -5.35 -10.7 -6.1 Q-11.1 -6.7 -10.75 -7.5 L-10.45 -7.9 -10.3 -7.9 -10.15 -7.95 -9.75 -7.6 Q-9.1 -7.1 -9.45 -6.35 L-9.55 -6.35 -9.4 -6.3 -8.5 -5.95 -8.1 -5.15 -8.15 -5.05 -8.9 -4.25 -8.6 -3.45 -8.5 -3.45 -8.1 -3.25 -8.0 -2.85 -7.75 -2.95 -7.4 -3.25 Q-6.8 -3.1 -6.8 -2.55 L-6.75 -2.85 -6.6 -2.95 -6.1 -2.75 -6.0 -2.65 -5.7 -2.1 -5.35 -1.8 -5.4 -2.0 -5.1 -2.65 -5.0 -2.7 -4.7 -1.95 -4.6 -1.85 -4.3 -2.35 -3.8 -2.1 -3.7 -2.0 -3.25 -1.95 -3.0 -1.7 -2.9 -1.7 -2.7 -2.25 -2.35 -2.55 -1.95 -2.15 -1.8 -1.85 -1.5 -1.7 -0.9 -1.75 -0.85 -1.85 -0.2 -2.2 0.3 -1.85 1.6 -2.35 1.45 -2.45 1.05 -2.2 0.85 -2.1 Q0.0 -2.7 0.5 -3.35 L0.7 -3.3 0.95 -3.0 1.1 -2.9 1.95 -3.2 2.3 -2.75 2.8 -2.9 2.35 -3.5 3.55 -3.55 3.9 -3.9 3.35 -4.65 4.55 -5.6 4.95 -5.1 5.1 -5.05 5.55 -5.35 6.25 -5.2 6.7 -5.15 7.05 -4.85 6.95 -4.35 6.95 -4.25 6.95 -4.2 6.9 -3.25 6.35 -2.8 6.2 -2.05 5.9 -1.85 5.15 -1.6 4.7 -1.2 Q3.7 -0.5 2.55 -0.2 L1.9 0.6 0.8 0.65 Q0.4 1.15 -0.25 1.15 L-0.55 0.95 Q-1.0 0.5 -1.1 0.8 L-2.4 1.15 -2.8 0.75 -3.7 0.8 -4.05 0.45 -5.65 0.35 -6.05 0.15 -6.2 0.35 -6.45 0.6 -6.9 0.25 -7.0 0.1 -7.75 0.0 -8.15 -0.45 -8.75 -0.4 -9.6 -1.35 -9.8 -2.8 Q-9.95 -3.5 -10.6 -3.7 M6.3 -7.55 L7.0 -6.55 6.8 -5.5 6.2 -5.35 6.2 -5.95 6.25 -6.3 5.85 -6.4 5.6 -6.55 5.6 -6.9 5.9 -7.05 5.95 -7.2 6.1 -7.45 6.3 -7.55 M0.7 -5.15 Q0.6 -5.35 0.65 -5.5 1.1 -6.45 1.3 -5.4 L1.2 -5.2 0.9 -5.1 0.7 -5.15 M2.15 -4.05 L2.15 -3.85 1.7 -3.45 1.5 -3.5 Q1.2 -4.1 1.45 -4.45 L1.6 -4.85 Q2.1 -5.3 2.15 -4.6 L2.15 -4.05 M4.9 -7.4 Q5.2 -8.1 5.1 -7.3 4.8 -7.1 4.9 -7.4 M5.1 -6.25 Q4.85 -5.8 5.0 -6.45 L5.1 -6.25 M-7.45 -5.5 Q-6.8 -5.35 -7.25 -4.65 L-7.45 -4.6 -7.7 -4.7 -7.8 -4.9 Q-8.0 -5.3 -7.45 -5.5 M-6.6 -3.85 L-6.5 -4.1 -6.25 -4.25 -6.0 -4.1 -5.9 -3.85 -6.0 -3.55 -6.25 -3.45 -6.5 -3.55 -6.6 -3.85 M-7.65 -4.25 L-7.55 -3.95 -7.65 -3.6 -8.0 -3.5 -8.3 -3.6 -8.45 -3.95 -8.3 -4.25 -8.0 -4.4 -7.65 -4.25 M-1.7 -3.95 Q-1.4 -4.1 -1.75 -3.75 L-1.9 -3.6 Q-2.4 -3.6 -1.7 -3.95 M-0.35 -4.0 L-0.05 -3.85 0.05 -3.6 -0.05 -3.3 -0.35 -3.2 -0.6 -3.3 -0.75 -3.6 -0.6 -3.85 -0.35 -4.0 M-4.85 -3.55 L-5.1 -3.95 -4.55 -3.95 -4.85 -3.55 M-3.95 -3.45 L-3.7 -3.6 -3.4 -3.45 -3.3 -3.1 -3.4 -2.75 Q-3.55 -2.6 -3.7 -2.6 -3.85 -2.6 -3.95 -2.75 L-4.1 -3.1 -3.95 -3.45 M-0.65 -2.35 L-0.95 -2.25 -1.2 -2.35 -1.35 -2.7 -1.2 -3.0 -0.95 -3.15 -0.65 -3.0 -0.55 -2.7 -0.65 -2.35" fill="#cccccc" fill-rule="evenodd" stroke="none"/>
  </g>
</svg>
