<?xml version="1.0" encoding="UTF-8" standalone="no"?>
<svg xmlns:ffdec="https://www.free-decompiler.com/flash" xmlns:xlink="http://www.w3.org/1999/xlink" ffdec:objectType="shape" height="58.3px" width="88.3px" xmlns="http://www.w3.org/2000/svg">
  <g transform="matrix(1.0, 0.0, 0.0, 1.0, 44.15, 29.15)">
    <path d="M38.5 -23.55 Q37.05 -25.0 35.0 -25.0 L-35.0 -25.0 Q-37.05 -25.0 -38.55 -23.55 -40.0 -22.05 -40.0 -20.0 L-40.0 20.0 Q-40.0 22.05 -38.55 23.5 -37.05 25.0 -35.0 25.0 L35.0 25.0 Q37.05 25.0 38.5 23.5 40.0 22.05 40.0 20.0 L40.0 -20.0 Q40.0 -22.05 38.5 -23.55 M44.15 -20.0 L44.15 20.0 Q44.15 23.75 41.5 26.4 L41.4 26.5 Q38.75 29.15 35.0 29.15 L-35.0 29.15 Q-38.75 29.2 -41.5 26.45 -44.15 23.8 -44.15 20.0 L-44.15 -20.0 Q-44.15 -23.7 -41.5 -26.4 L-41.45 -26.5 -41.4 -26.5 Q-38.7 -29.15 -35.0 -29.15 L35.0 -29.15 Q38.8 -29.15 41.45 -26.5 44.2 -23.75 44.15 -20.0" fill="#0000ff" fill-rule="evenodd" stroke="none"/>
  </g>
</svg>
