<?xml version="1.0" encoding="UTF-8" standalone="no"?>
<svg xmlns:ffdec="https://www.free-decompiler.com/flash" xmlns:xlink="http://www.w3.org/1999/xlink" ffdec:objectType="shape" height="61.6px" width="91.6px" xmlns="http://www.w3.org/2000/svg">
  <g transform="matrix(1.0, 0.0, 0.0, 1.0, 45.8, 30.8)">
    <path d="M44.15 -20.0 Q44.2 -23.75 41.45 -26.5 38.8 -29.15 35.0 -29.15 L-35.0 -29.15 Q-38.7 -29.15 -41.4 -26.5 L-41.45 -26.5 -41.5 -26.4 Q-44.15 -23.7 -44.15 -20.0 L-44.15 20.0 Q-44.15 23.8 -41.5 26.45 -38.75 29.2 -35.0 29.15 L35.0 29.15 Q38.75 29.15 41.4 26.5 L41.5 26.4 Q44.15 23.75 44.15 20.0 L44.15 -20.0 M45.8 -20.0 L45.8 20.0 Q45.8 24.4 42.7 27.55 L42.65 27.6 42.6 27.65 42.55 27.7 Q39.4 30.8 35.0 30.8 L-35.0 30.8 Q-39.4 30.8 -42.65 27.6 -45.8 24.45 -45.8 20.0 L-45.8 -20.0 Q-45.8 -24.4 -42.7 -27.55 L-42.55 -27.7 -42.55 -27.75 Q-39.35 -30.8 -35.0 -30.8 L35.0 -30.8 Q39.45 -30.8 42.6 -27.65 45.8 -24.4 45.8 -20.0" fill="#0000ff" fill-rule="evenodd" stroke="none"/>
  </g>
</svg>
