<?xml version="1.0" encoding="UTF-8" standalone="no"?>
<svg xmlns:ffdec="https://www.free-decompiler.com/flash" xmlns:xlink="http://www.w3.org/1999/xlink" ffdec:objectType="shape" height="52.0px" width="82.0px" xmlns="http://www.w3.org/2000/svg">
  <g transform="matrix(1.0, 0.0, 0.0, 1.0, 41.0, 26.0)">
    <path d="M38.5 -23.55 Q37.05 -25.0 35.0 -25.0 L-35.0 -25.0 Q-37.05 -25.0 -38.55 -23.55 -40.0 -22.05 -40.0 -20.0 L-40.0 20.0 Q-40.0 22.05 -38.55 23.5 -37.05 25.0 -35.0 25.0 L35.0 25.0 Q37.05 25.0 38.5 23.5 40.0 22.05 40.0 20.0 L40.0 -20.0 Q40.0 -22.05 38.5 -23.55 Z" fill="none" stroke="#000000" stroke-linecap="round" stroke-linejoin="round" stroke-width="2.0"/>
    <path d="M35.0 -25.0 Q37.05 -25.0 38.5 -23.55 40.0 -22.05 40.0 -20.0 L40.0 20.0 Q40.0 22.05 38.5 23.5 37.05 25.0 35.0 25.0 L-35.0 25.0 Q-37.05 25.0 -38.55 23.5 -40.0 22.05 -40.0 20.0 L-40.0 -20.0 Q-40.0 -22.05 -38.55 -23.55 -37.05 -25.0 -35.0 -25.0 L35.0 -25.0" fill="#999999" fill-rule="evenodd" stroke="none"/>
  </g>
</svg>
