<?xml version="1.0" encoding="UTF-8" standalone="no"?>
<svg xmlns:ffdec="https://www.free-decompiler.com/flash" xmlns:xlink="http://www.w3.org/1999/xlink" ffdec:objectType="shape" height="14.0px" width="18.9px" xmlns="http://www.w3.org/2000/svg">
  <g transform="matrix(1.0, 0.0, 0.0, 1.0, 11.4, 12.15)">
    <path d="M-10.8 -7.5 L-10.75 -7.5 -10.85 -6.55 -11.15 -5.7 -10.8 -7.5 M-10.75 -5.2 L-10.75 -5.15 -10.75 -5.2 M-5.6 -5.5 L-5.8 -5.5 -5.8 -5.55 -5.6 -5.5" fill="#666666" fill-rule="evenodd" stroke="none"/>
    <path d="M5.6 -10.4 L5.5 -11.2 4.5 -11.55 4.5 -10.65 4.0 -10.15 3.9 -9.5 3.2 -9.6 2.95 -9.1 Q2.15 -8.85 1.5 -8.35 L1.2 -7.9 2.5 -5.2 2.4 -5.0 Q2.25 -3.9 2.95 -3.3 L3.25 -2.9 3.3 -2.95 3.35 -2.9 3.35 -3.25 3.1 -4.55 2.95 -5.15 3.3 -5.35 2.75 -6.9 3.0 -6.7 3.2 -6.15 3.7 -4.65 3.55 -5.3 Q4.0 -5.15 3.85 -3.1 L3.9 -2.8 4.45 -1.0 4.3 -2.75 4.4 -2.75 Q4.6 -3.0 4.4 -3.5 L3.95 -4.6 Q3.8 -5.15 3.8 -5.65 3.75 -6.15 3.9 -5.65 L3.95 -5.75 4.0 -5.75 4.35 -5.3 5.9 -1.85 5.15 -4.35 4.75 -5.75 4.85 -5.65 Q5.8 -3.6 6.75 -3.1 L5.85 -4.75 Q5.2 -5.75 5.9 -6.0 L6.2 -5.0 5.95 -5.95 6.95 -4.25 5.85 -6.35 5.15 -7.5 5.25 -7.8 5.4 -7.75 5.6 -7.35 6.15 -6.4 6.15 -7.1 5.75 -7.85 5.65 -8.2 5.8 -8.4 5.9 -8.2 Q6.05 -7.75 6.05 -8.05 L5.95 -8.8 5.9 -9.75 5.6 -10.4 M-10.8 -7.5 L-10.3 -8.6 -9.65 -8.6 -6.9 -7.75 -6.5 -8.05 -1.0 -8.2 -0.6 -8.5 -0.15 -8.35 0.8 -8.7 1.1 -9.05 2.5 -9.35 2.65 -10.0 3.3 -10.2 4.05 -11.7 4.2 -11.95 4.9 -12.15 5.65 -11.5 Q6.2 -11.05 6.25 -10.4 L6.1 -9.7 7.45 -5.8 Q7.6 -5.4 7.3 -5.45 L7.45 -2.25 7.3 -2.2 7.1 -2.25 7.0 -2.3 Q6.8 -2.35 6.7 -2.2 L6.65 -1.95 6.65 -1.0 5.85 -1.55 5.85 -0.8 5.75 -0.6 5.6 -0.65 5.5 -0.75 5.4 -1.0 5.35 -1.15 5.15 -0.45 5.05 -0.15 4.9 -0.15 Q4.75 -0.15 4.7 -0.25 L4.45 -0.7 4.45 -0.65 4.35 -0.1 3.9 -0.25 3.9 -0.15 3.85 0.1 3.6 0.1 3.45 0.0 3.25 0.05 3.25 0.1 3.2 0.15 Q3.0 0.2 2.95 0.4 L2.75 1.15 2.65 1.4 1.85 1.0 1.8 0.9 1.55 1.0 1.45 1.1 1.4 1.3 0.45 1.35 0.35 1.5 0.15 1.6 -0.2 1.7 -0.4 1.85 -0.8 1.6 -0.9 1.65 -1.2 1.7 -1.45 1.45 -3.45 1.5 -3.65 1.5 -3.9 1.3 -4.0 1.25 -4.1 1.1 -5.65 1.0 -5.95 1.5 -6.2 1.2 -6.4 0.95 -6.6 0.9 -7.05 1.35 -7.55 0.8 -7.75 0.5 -7.8 0.65 -8.6 0.0 -8.6 0.05 -8.6 0.25 -8.65 0.25 -8.8 0.45 -9.0 0.4 -9.35 -0.25 -9.35 -0.15 -9.3 -0.1 -9.3 0.0 -9.4 0.15 -9.55 0.2 -9.7 0.15 -9.8 0.0 Q-9.4 -1.15 -9.75 -2.35 L-10.05 -2.95 -10.0 -3.25 -9.7 -4.65 Q-9.75 -4.25 -9.4 -3.9 L-9.6 -2.95 -8.35 -6.25 -8.5 -5.3 -8.8 -3.45 -8.9 -3.0 Q-8.95 -2.35 -9.3 -1.85 L-9.2 -0.9 -8.7 -2.75 -8.7 -0.85 -8.35 -3.85 -8.35 -4.0 -7.75 -5.55 -7.75 -5.35 -8.25 -2.55 -8.05 -3.5 -7.8 -4.0 -7.8 -4.25 -7.75 -4.2 Q-7.6 -3.05 -7.75 -1.9 L-7.75 -1.85 Q-8.05 -0.75 -7.6 -0.15 L-7.6 -0.25 -7.2 -1.95 -7.15 -2.2 Q-7.2 -3.55 -6.5 -4.7 L-6.5 -4.65 -6.45 -4.65 -6.8 0.35 -6.4 0.6 -6.35 -2.5 -6.3 -3.0 -6.15 -3.05 -6.15 -2.85 -5.7 -4.45 -5.6 -4.45 -5.45 -4.45 -6.05 -0.65 -5.6 -1.85 -5.55 -1.55 Q-5.95 -0.15 -5.15 0.4 L-5.2 -2.15 -5.0 -3.0 -4.75 -3.75 -4.65 -3.4 -4.6 -1.4 -3.85 -5.05 -4.0 -3.8 -4.0 -3.75 Q-3.85 -2.1 -3.3 -0.65 L-3.0 -3.95 -3.0 -1.7 -2.8 -4.3 Q-2.4 -4.4 -2.5 -3.55 -2.8 -1.15 -2.3 1.15 L-2.2 -1.55 -2.0 -2.45 -1.75 -3.25 -1.55 -2.85 -1.7 -0.85 -1.75 -0.35 Q-1.9 0.5 -1.5 0.95 L-1.45 -1.9 -1.35 -1.95 Q-1.1 -1.85 -1.1 -1.5 L-1.0 -0.7 -1.05 -4.4 -0.9 -5.25 -0.5 -1.5 Q-0.65 -4.6 -0.15 -7.65 L-2.2 -7.85 -2.9 -7.2 -3.75 -7.6 -6.45 -7.75 -6.9 -7.5 -9.6 -8.05 -10.45 -7.9 -10.75 -7.5 -10.8 -7.5 M-10.5 -3.7 L-10.55 -3.4 -10.95 -3.55 -11.4 -4.7 -11.15 -5.7 -10.85 -6.55 -10.75 -5.2 -10.35 -5.9 -10.35 -5.25 -10.5 -3.7 M4.85 -6.25 L5.25 -5.85 5.6 -4.95 4.85 -6.25 M1.0 -5.4 L1.15 -4.95 1.25 -5.0 1.5 -4.6 1.5 -4.55 1.55 -4.5 1.8 -2.95 2.25 -2.8 3.25 -0.5 2.05 -5.0 0.6 -6.95 0.1 -4.4 0.35 -4.0 0.6 -3.15 0.6 -4.2 0.85 -2.5 0.85 -3.2 0.95 -2.55 1.3 -1.45 1.4 -2.35 1.35 -2.25 1.2 -2.35 0.9 -4.25 1.1 -3.6 1.0 -5.4 M0.1 -4.3 L-0.05 -4.25 -0.1 -2.35 0.05 -2.1 0.1 -4.3 M-10.75 -5.2 L-10.75 -5.15 -10.75 -5.2 M-4.65 -3.95 L-4.6 -3.5 -4.7 -3.8 -4.65 -3.85 -4.65 -3.95 M-7.0 -4.9 L-6.85 -5.2 Q-6.55 -5.8 -6.85 -4.6 L-7.2 -3.1 -7.5 -2.4 -7.15 -4.55 -7.1 -4.4 -7.0 -4.9 M-5.2 -2.85 L-5.45 -2.05 -5.2 -3.6 -5.2 -2.85 M-2.35 -4.6 Q-2.25 -4.15 -2.2 -4.85 L-2.1 -5.6 -2.0 -5.35 -2.1 -3.0 -2.4 -2.3 -2.35 -4.6 M-3.55 -5.65 L-3.5 -5.7 -3.35 -5.4 -3.4 -3.55 -3.3 -3.6 -3.3 -2.25 -3.35 -2.5 Q-3.85 -4.0 -3.55 -5.65" fill="#57492d" fill-rule="evenodd" stroke="none"/>
    <path d="M2.95 -3.3 Q2.25 -3.9 2.4 -5.0 L2.5 -5.2 1.2 -7.9 1.5 -8.35 Q2.15 -8.85 2.95 -9.1 L3.2 -9.6 3.9 -9.5 4.0 -10.15 4.5 -10.65 4.5 -11.55 5.5 -11.2 5.6 -10.4 Q5.4 -10.85 5.45 -10.35 L5.55 -10.1 5.6 -9.95 5.9 -9.75 5.95 -8.8 5.1 -9.65 5.8 -8.4 5.65 -8.2 5.75 -7.85 4.75 -9.4 Q4.7 -8.5 5.25 -7.8 L5.15 -7.5 4.25 -8.95 4.2 -8.8 Q4.55 -7.2 5.8 -6.35 L5.85 -6.35 6.95 -4.25 5.95 -5.95 5.9 -6.0 Q5.2 -5.75 5.85 -4.75 L6.75 -3.1 Q5.8 -3.6 4.85 -5.65 L4.75 -5.75 4.35 -6.6 Q4.35 -5.2 5.15 -4.35 L5.9 -1.85 4.35 -5.3 3.3 -8.05 4.0 -5.75 3.95 -5.75 3.9 -5.65 Q3.75 -6.15 3.8 -5.65 3.8 -5.15 3.95 -4.6 L4.3 -3.05 4.3 -2.75 4.45 -1.0 3.9 -2.8 3.85 -3.1 Q4.0 -5.15 3.55 -5.3 L2.85 -7.7 3.0 -7.0 3.2 -6.15 3.0 -6.7 3.0 -7.0 2.35 -8.2 2.75 -6.9 3.3 -5.35 2.95 -5.15 3.1 -4.55 2.75 -4.9 2.95 -3.3 M6.15 -7.1 L6.15 -6.4 5.6 -7.35 6.05 -7.0 6.15 -7.1 M3.35 -3.25 L3.35 -2.9 3.3 -2.95 3.35 -3.25 M-10.75 -7.5 L-10.45 -7.9 -9.6 -8.05 -6.9 -7.5 -6.45 -7.75 -3.75 -7.6 -2.9 -7.2 -2.2 -7.85 -0.15 -7.65 Q-0.65 -4.6 -0.5 -1.5 L-0.9 -5.25 -0.7 -7.35 -1.05 -4.4 -1.0 -0.7 -1.1 -1.5 Q-1.1 -1.85 -1.35 -1.95 L-1.45 -1.9 -1.5 0.95 Q-1.9 0.5 -1.75 -0.35 L-1.7 -0.85 -1.55 -2.85 -1.2 -7.05 -1.75 -3.25 -2.0 -2.45 -2.1 -3.0 -2.0 -5.35 -2.1 -5.6 -2.0 -7.2 -2.35 -4.6 -2.4 -2.3 -2.3 -1.35 -2.2 -1.55 -2.3 1.15 Q-2.8 -1.15 -2.5 -3.55 -2.4 -4.4 -2.8 -4.3 L-2.3 -6.55 -3.0 -3.95 -3.3 -0.65 Q-3.85 -2.1 -4.0 -3.75 L-4.0 -3.8 -3.85 -5.05 -4.6 -1.4 -4.65 -3.4 -4.6 -3.5 -4.65 -3.95 -4.15 -6.65 -4.2 -6.85 -5.2 -3.6 -5.45 -2.05 -5.2 -2.85 -5.2 -2.15 -5.15 0.4 Q-5.95 -0.15 -5.55 -1.55 L-5.6 -1.85 -6.05 -0.65 -5.45 -4.45 -5.05 -7.15 -5.6 -5.5 -5.7 -4.45 -6.15 -2.85 -6.15 -3.05 -5.8 -5.5 -5.6 -5.5 -5.8 -5.55 -5.65 -6.95 -5.7 -6.9 Q-5.95 -7.1 -6.05 -6.35 L-6.4 -4.9 -6.5 -4.7 Q-7.2 -3.55 -7.15 -2.2 L-7.2 -1.95 -7.6 -0.25 -7.6 -0.15 Q-8.05 -0.75 -7.75 -1.85 L-7.75 -1.9 Q-7.6 -3.05 -7.75 -4.2 L-7.8 -4.25 -7.55 -6.3 -7.75 -5.55 -8.35 -4.0 -7.8 -6.75 -8.1 -6.35 Q-8.65 -5.2 -8.35 -3.85 L-8.7 -0.85 -8.7 -2.75 -9.2 -0.9 -9.3 -1.85 Q-8.95 -2.35 -8.9 -3.0 L-8.8 -3.45 -8.5 -5.3 -8.1 -6.75 -8.35 -6.25 -9.6 -2.95 -9.4 -3.9 Q-9.75 -4.25 -9.7 -4.65 L-10.0 -3.25 -10.5 -3.7 -10.35 -5.25 -9.7 -7.45 -10.35 -5.9 -10.75 -5.2 -10.85 -6.55 -10.75 -7.5 M-6.3 -3.0 L-6.35 -2.5 -6.4 0.6 -6.8 0.35 -6.45 -4.65 -6.4 -4.65 -6.35 -4.85 -6.3 -3.0 M-8.05 -3.5 L-8.25 -2.55 -7.75 -5.35 -8.05 -3.5 M5.25 -5.85 L3.7 -8.5 4.85 -6.25 5.6 -4.95 5.25 -5.85 M1.0 -5.4 Q0.8 -5.85 0.8 -5.1 L0.9 -4.25 1.2 -2.35 1.35 -2.25 1.4 -2.35 1.3 -1.45 0.95 -2.55 0.85 -3.2 0.85 -2.5 0.6 -4.2 0.7 -5.1 0.55 -5.05 0.35 -4.0 0.1 -4.4 0.6 -6.95 2.05 -5.0 3.25 -0.5 2.25 -2.8 1.8 -2.95 1.55 -4.5 1.5 -4.55 1.5 -4.6 1.25 -5.0 1.15 -4.95 1.0 -5.4 M-7.2 -3.1 L-6.85 -4.6 Q-6.55 -5.8 -6.85 -5.2 L-7.0 -4.9 -6.85 -6.75 -7.15 -4.55 -7.5 -2.4 -7.45 -1.35 -7.2 -3.1 M-7.4 -5.05 L-7.05 -7.2 -7.5 -4.9 Q-7.55 -4.3 -7.4 -5.05 M-3.35 -5.4 L-3.5 -5.7 -3.55 -5.65 Q-3.85 -4.0 -3.35 -2.5 L-3.3 -2.25 -3.3 -3.6 -2.9 -6.8 -3.35 -5.4 M-3.55 -5.65 L-3.55 -6.95 -3.75 -4.65 -3.55 -5.65" fill="#836b45" fill-rule="evenodd" stroke="none"/>
    <path d="M5.6 -10.4 L5.9 -9.75 5.6 -9.95 5.55 -10.1 5.45 -10.35 Q5.4 -10.85 5.6 -10.4 M5.95 -8.8 L6.05 -8.05 Q6.05 -7.75 5.9 -8.2 L5.8 -8.4 5.1 -9.65 5.95 -8.8 M5.75 -7.85 L6.15 -7.1 6.05 -7.0 5.6 -7.35 5.4 -7.75 5.25 -7.8 Q4.7 -8.5 4.75 -9.4 L5.75 -7.85 M5.15 -7.5 L5.85 -6.35 5.8 -6.35 Q4.55 -7.2 4.2 -8.8 L4.25 -8.95 5.15 -7.5 M5.95 -5.95 L6.2 -5.0 5.9 -6.0 5.95 -5.95 M4.75 -5.75 L5.15 -4.35 Q4.35 -5.2 4.35 -6.6 L4.75 -5.75 M4.35 -5.3 L4.0 -5.75 3.3 -8.05 4.35 -5.3 M3.95 -4.6 L4.4 -3.5 Q4.6 -3.0 4.4 -2.75 L4.3 -2.75 4.3 -3.05 3.95 -4.6 M3.55 -5.3 L3.7 -4.65 3.2 -6.15 3.0 -7.0 2.85 -7.7 3.55 -5.3 M3.0 -6.7 L2.75 -6.9 2.35 -8.2 3.0 -7.0 3.0 -6.7 M3.1 -4.55 L3.35 -3.25 3.3 -2.95 3.25 -2.9 2.95 -3.3 2.75 -4.9 3.1 -4.55 M-0.9 -5.25 L-1.05 -4.4 -0.7 -7.35 -0.9 -5.25 M-1.55 -2.85 L-1.75 -3.25 -1.2 -7.05 -1.55 -2.85 M-2.0 -2.45 L-2.2 -1.55 -2.3 -1.35 -2.4 -2.3 -2.1 -3.0 -2.0 -2.45 M-2.8 -4.3 L-3.0 -1.7 -3.0 -3.95 -2.3 -6.55 -2.8 -4.3 M-4.65 -3.4 L-4.75 -3.75 -5.0 -3.0 -5.2 -2.15 -5.2 -2.85 -5.2 -3.6 -4.2 -6.85 -4.15 -6.65 -4.65 -3.95 -4.65 -3.85 -4.7 -3.8 -4.6 -3.5 -4.65 -3.4 M-5.45 -4.45 L-5.6 -4.45 -5.7 -4.45 -5.6 -5.5 -5.05 -7.15 -5.45 -4.45 M-6.15 -3.05 L-6.3 -3.0 -6.35 -4.85 -6.4 -4.65 -6.45 -4.65 -6.5 -4.65 -6.5 -4.7 -6.4 -4.9 -6.05 -6.35 Q-5.95 -7.1 -5.7 -6.9 L-5.65 -6.95 -5.8 -5.55 -5.8 -5.5 -6.15 -3.05 M-7.8 -4.25 L-7.8 -4.0 -8.05 -3.5 -7.75 -5.35 -7.75 -5.55 -7.55 -6.3 -7.8 -4.25 M-8.35 -4.0 L-8.35 -3.85 Q-8.65 -5.2 -8.1 -6.35 L-7.8 -6.75 -8.35 -4.0 M-8.5 -5.3 L-8.35 -6.25 -8.1 -6.75 -8.5 -5.3 M4.85 -6.25 L3.7 -8.5 5.25 -5.85 4.85 -6.25 M0.9 -4.25 L0.8 -5.1 Q0.8 -5.85 1.0 -5.4 L1.1 -3.6 0.9 -4.25 M0.35 -4.0 L0.55 -5.05 0.7 -5.1 0.6 -4.2 0.6 -3.15 0.35 -4.0 M0.1 -4.3 L0.05 -2.1 -0.1 -2.35 -0.05 -4.25 0.1 -4.3 M-10.35 -5.9 L-9.7 -7.45 -10.35 -5.25 -10.35 -5.9 M-7.0 -4.9 L-7.1 -4.4 -7.15 -4.55 -6.85 -6.75 -7.0 -4.9 M-7.5 -2.4 L-7.2 -3.1 -7.45 -1.35 -7.5 -2.4 M-7.4 -5.05 Q-7.55 -4.3 -7.5 -4.9 L-7.05 -7.2 -7.4 -5.05 M-2.1 -5.6 L-2.2 -4.85 Q-2.25 -4.15 -2.35 -4.6 L-2.0 -7.2 -2.1 -5.6 M-3.35 -5.4 L-2.9 -6.8 -3.3 -3.6 -3.4 -3.55 -3.35 -5.4 M-3.55 -5.65 L-3.75 -4.65 -3.55 -6.95 -3.55 -5.65" fill="#aa8d60" fill-rule="evenodd" stroke="none"/>
  </g>
</svg>
