<?xml version="1.0" encoding="UTF-8" standalone="no"?>
<svg xmlns:ffdec="https://www.free-decompiler.com/flash" xmlns:xlink="http://www.w3.org/1999/xlink" ffdec:objectType="shape" height="13.3px" width="16.35px" xmlns="http://www.w3.org/2000/svg">
  <g transform="matrix(1.0, 0.0, 0.0, 1.0, 10.6, 11.6)">
    <path d="M5.25 -6.25 Q4.35 -6.3 4.65 -5.4 L4.85 -5.15 Q5.7 -5.05 5.55 -5.9 L5.4 -6.2 5.0 -8.0 4.25 -7.95 4.15 -8.25 4.05 -9.5 4.3 -9.7 4.55 -9.85 4.45 -10.6 3.8 -10.05 2.15 -8.85 -0.6 -7.95 -1.1 -7.5 -3.05 -7.15 -2.6 -6.95 Q-3.35 -6.95 -3.65 -6.2 L-3.7 -6.0 -3.45 -5.7 -2.9 -5.35 -2.45 -5.75 -2.1 -6.1 -2.35 -5.4 -2.55 -5.0 -2.7 -4.85 -3.45 -5.0 -3.75 -5.3 -4.0 -5.6 -3.8 -6.65 -3.55 -7.1 -3.6 -7.1 -8.4 -6.7 -8.65 -6.75 -9.0 -6.7 -10.15 -6.75 -9.85 -6.45 -9.85 -6.3 -9.6 -5.55 -9.4 -6.15 Q-9.6 -5.45 -8.9 -5.2 L-8.65 -5.1 Q-8.05 -5.2 -7.95 -5.7 L-7.9 -5.95 Q-7.85 -5.1 -8.6 -4.55 L-8.85 -4.6 -9.5 -5.05 -9.25 -4.15 -9.1 -4.1 -9.55 -3.7 Q-9.45 -3.15 -9.1 -3.25 L-8.7 -3.5 -8.8 -3.25 -9.15 -2.65 -9.15 -2.5 -8.9 -2.3 -8.0 -2.75 -7.65 -2.65 -7.45 -2.45 -7.25 -1.7 -7.55 -2.2 -8.45 -2.15 -8.35 -1.8 -8.05 -1.4 -7.35 -1.45 -7.4 -1.35 -5.8 -0.8 -5.9 -1.45 -5.8 -2.05 -5.25 -2.55 -5.1 -2.6 -4.55 -2.3 -4.25 -1.8 -4.15 -1.65 -4.85 -1.9 -5.15 -1.9 Q-5.65 -1.65 -5.35 -0.9 L-5.15 -0.7 Q-4.7 -0.5 -4.45 -0.85 L-4.1 -1.4 -4.15 -0.45 -4.25 -0.4 -0.15 1.05 0.2 0.45 0.55 0.35 1.05 0.2 Q1.55 -0.1 0.8 -0.45 L0.65 -0.7 Q0.35 -1.25 0.55 -1.6 L0.7 -1.9 Q1.0 -2.55 1.5 -2.45 L2.25 -1.65 2.15 -1.8 1.75 -2.05 Q1.1 -1.8 1.35 -1.25 1.55 -0.8 1.9 -1.05 L2.3 -1.45 2.3 -1.1 3.65 -2.4 3.6 -2.7 3.65 -3.05 4.75 -3.9 4.75 -4.05 4.8 -4.55 4.4 -4.9 4.1 -5.35 4.1 -5.7 4.35 -6.25 4.85 -6.5 5.25 -6.25 M-2.25 -1.65 L-2.0 -1.8 Q-1.6 -2.05 -1.05 -1.55 L-0.8 -1.3 -1.6 -1.4 -1.7 -0.85 -1.5 -0.35 -1.1 -0.5 -0.65 -1.0 -0.65 -0.6 -0.7 -0.1 -0.8 0.15 -1.65 0.2 -2.0 -0.1 Q-2.55 -0.7 -2.25 -1.65 M2.0 -3.05 L1.45 -3.35 1.25 -4.85 1.55 -5.3 2.05 -5.5 2.75 -4.75 Q3.3 -3.95 2.85 -3.15 L2.15 -3.05 2.0 -3.05 M5.2 -9.15 L5.65 -7.5 5.75 -5.15 5.7 -5.0 4.85 -3.15 4.6 -2.5 2.2 -0.3 1.0 1.05 0.5 1.7 0.15 1.6 -0.85 1.3 -3.6 0.45 -5.95 -0.3 -7.35 -0.75 Q-9.2 -1.15 -9.7 -3.05 L-10.0 -4.35 -10.4 -6.05 -10.6 -6.6 -10.5 -7.0 -10.3 -7.25 -9.15 -7.35 -6.7 -7.3 -3.95 -7.6 -2.9 -7.75 -1.2 -8.25 0.35 -8.9 Q1.4 -9.15 2.3 -9.65 3.45 -10.25 4.1 -11.35 L4.15 -11.55 Q4.85 -11.7 4.85 -11.0 4.9 -10.1 5.2 -9.15 M0.25 -7.55 Q-0.3 -7.6 -0.5 -7.1 -0.75 -6.55 -0.05 -6.35 L0.3 -6.45 0.7 -6.8 0.4 -5.75 -0.25 -5.65 -0.55 -5.85 Q-1.0 -6.15 -1.15 -6.75 L-1.05 -7.1 -0.65 -7.65 0.25 -7.55 M3.55 -7.5 L3.5 -7.15 3.35 -6.5 2.15 -6.45 2.0 -6.65 Q1.55 -7.3 1.7 -8.1 L2.5 -8.8 3.25 -8.25 Q2.75 -8.5 2.5 -7.9 2.3 -7.45 2.75 -7.15 L3.25 -7.35 Q3.4 -7.35 3.55 -7.5 M4.85 -8.6 Q5.6 -9.05 4.7 -9.5 3.95 -9.4 4.4 -8.8 4.65 -8.35 4.85 -8.6 M2.7 -4.55 L2.05 -5.15 Q1.25 -4.8 1.65 -4.0 L1.85 -3.75 Q2.35 -3.55 2.6 -4.25 L2.7 -4.55 M0.3 -3.95 L0.35 -3.15 Q0.35 -2.7 -0.1 -2.5 -1.0 -2.4 -1.35 -3.3 -1.6 -4.5 -0.5 -5.0 L0.25 -4.45 0.3 -3.95 M4.55 -2.85 Q4.75 -3.3 4.3 -3.4 3.55 -3.05 4.3 -2.8 L4.55 -2.85 M-5.7 -5.2 L-5.95 -4.85 -6.75 -4.95 -7.1 -5.8 -7.0 -6.1 -6.65 -6.65 Q-5.6 -6.95 -5.4 -5.7 L-5.7 -5.2 M-5.7 -6.15 L-6.3 -6.65 Q-7.2 -6.3 -6.8 -5.65 L-6.55 -5.45 Q-6.15 -5.2 -5.85 -5.8 L-5.7 -6.15 M-7.05 -3.65 Q-6.9 -3.3 -6.55 -3.45 -5.95 -3.6 -6.3 -4.15 L-6.7 -4.4 Q-7.3 -4.3 -7.05 -3.65 M-7.5 -4.45 L-7.25 -4.6 -6.95 -4.75 Q-6.0 -4.55 -5.95 -3.7 L-6.05 -3.25 -6.6 -3.15 -7.25 -3.05 -7.65 -3.8 -7.6 -4.15 -7.5 -4.45 M-0.25 -4.45 Q-0.65 -4.95 -1.1 -4.3 L-1.05 -3.8 -0.85 -3.6 Q-0.1 -3.5 -0.2 -4.25 L-0.25 -4.45 M-4.5 -4.3 L-4.2 -4.5 -3.85 -4.65 -3.1 -3.95 Q-2.6 -3.2 -3.3 -2.45 -4.25 -2.3 -4.65 -3.05 -4.75 -3.8 -4.5 -4.3 M-4.05 -3.15 L-3.75 -3.05 -3.3 -3.55 -3.25 -3.8 Q-3.65 -4.4 -4.1 -4.15 -4.8 -3.6 -4.05 -3.15" fill="#6a713e" fill-rule="evenodd" stroke="none"/>
    <path d="M5.4 -6.2 L5.25 -6.25 4.85 -6.5 4.35 -6.25 4.1 -5.7 4.1 -5.35 4.4 -4.9 4.8 -4.55 3.7 -3.5 2.5 -2.8 2.15 -3.05 2.85 -3.15 Q3.3 -3.95 2.75 -4.75 L2.05 -5.5 1.55 -5.3 1.25 -4.85 1.45 -3.35 2.0 -3.05 1.5 -2.45 Q1.0 -2.55 0.7 -1.9 L0.55 -1.6 -1.05 -1.55 Q-1.6 -2.05 -2.0 -1.8 L-2.25 -1.65 -4.25 -1.8 -4.55 -2.3 -5.1 -2.6 -5.25 -2.55 -5.8 -2.05 -7.65 -2.65 -8.0 -2.75 -9.15 -2.65 -8.8 -3.25 -8.7 -3.5 -8.8 -3.9 -9.1 -4.1 -9.25 -4.15 -9.5 -5.05 -8.85 -4.6 -8.6 -4.55 Q-7.85 -5.1 -7.9 -5.95 L-8.05 -6.45 -8.4 -6.7 -3.6 -7.1 -3.55 -7.1 -3.8 -6.65 -4.0 -5.6 -3.75 -5.3 -3.45 -5.0 -2.7 -4.85 -2.55 -5.0 -2.35 -5.4 -2.1 -6.1 -2.2 -6.55 -2.6 -6.95 -3.05 -7.15 -1.1 -7.5 -0.6 -7.95 2.15 -8.85 3.8 -10.05 4.45 -10.6 4.55 -9.85 4.3 -9.7 4.05 -9.5 4.15 -8.25 4.25 -7.95 5.0 -8.0 5.4 -6.2 M0.7 -6.8 L0.55 -7.15 0.25 -7.55 -0.65 -7.65 -1.05 -7.1 -1.15 -6.75 Q-1.0 -6.15 -0.55 -5.85 L-0.25 -5.65 0.4 -5.75 0.7 -6.8 M3.25 -8.25 L2.5 -8.8 1.7 -8.1 Q1.55 -7.3 2.0 -6.65 L2.15 -6.45 3.35 -6.5 3.5 -7.15 3.55 -7.5 3.25 -8.25 M0.3 -3.95 L0.25 -4.45 -0.5 -5.0 Q-1.6 -4.5 -1.35 -3.3 -1.0 -2.4 -0.1 -2.5 0.35 -2.7 0.35 -3.15 L0.3 -3.95 M-9.4 -6.15 L-9.6 -5.55 -9.85 -6.3 -9.85 -6.45 -10.15 -6.75 -9.0 -6.7 -9.4 -6.25 -9.4 -6.15 M-5.7 -5.2 L-5.4 -5.7 Q-5.6 -6.95 -6.65 -6.65 L-7.0 -6.1 -7.1 -5.8 -6.75 -4.95 -5.95 -4.85 -5.7 -5.2 M-7.5 -4.45 L-7.6 -4.15 -7.65 -3.8 -7.25 -3.05 -6.6 -3.15 -6.05 -3.25 -5.95 -3.7 Q-6.0 -4.55 -6.95 -4.75 L-7.25 -4.6 -7.5 -4.45 M-4.5 -4.3 Q-4.75 -3.8 -4.65 -3.05 -4.25 -2.3 -3.3 -2.45 -2.6 -3.2 -3.1 -3.95 L-3.85 -4.65 -4.2 -4.5 -4.5 -4.3" fill="#ffff99" fill-rule="evenodd" stroke="none"/>
    <path d="M-9.15 -2.65 L-8.0 -2.75 -8.9 -2.3 -9.15 -2.5 -9.15 -2.65 M-7.65 -2.65 L-5.8 -2.05 -5.9 -1.45 -5.8 -0.8 -7.4 -1.35 -7.35 -1.45 -7.25 -1.7 -7.45 -2.45 -7.65 -2.65 M-4.25 -1.8 L-2.25 -1.65 Q-2.55 -0.7 -2.0 -0.1 L-1.65 0.2 -0.8 0.15 -0.7 -0.1 -0.65 -0.6 -0.65 -1.0 -0.8 -1.3 -1.05 -1.55 0.55 -1.6 Q0.35 -1.25 0.65 -0.7 L0.8 -0.45 Q1.55 -0.1 1.05 0.2 L0.55 0.35 0.2 0.45 -0.15 1.05 -4.25 -0.4 -4.15 -0.45 -4.1 -1.4 -4.15 -1.65 -4.25 -1.8 M1.5 -2.45 L2.0 -3.05 2.15 -3.05 2.5 -2.8 3.7 -3.5 4.8 -4.55 4.75 -4.05 4.75 -3.9 3.65 -3.05 3.6 -2.7 3.65 -2.4 2.3 -1.1 2.3 -1.45 2.25 -1.65 1.5 -2.45" fill="#c7c763" fill-rule="evenodd" stroke="none"/>
    <path d="M5.25 -6.25 L5.4 -6.2 5.55 -5.9 Q5.7 -5.05 4.85 -5.15 L4.65 -5.4 Q4.35 -6.3 5.25 -6.25 M-2.6 -6.95 L-2.2 -6.55 -2.1 -6.1 -2.45 -5.75 -2.9 -5.35 -3.45 -5.7 -3.7 -6.0 -3.65 -6.2 Q-3.35 -6.95 -2.6 -6.95 M-8.4 -6.7 L-8.05 -6.45 -7.9 -5.95 -7.95 -5.7 Q-8.05 -5.2 -8.65 -5.1 L-8.9 -5.2 Q-9.6 -5.45 -9.4 -6.15 L-9.4 -6.25 -9.0 -6.7 -8.65 -6.75 -8.4 -6.7 M-9.1 -4.1 L-8.8 -3.9 -8.7 -3.5 -9.1 -3.25 Q-9.45 -3.15 -9.55 -3.7 L-9.1 -4.1 M0.7 -6.8 L0.3 -6.45 -0.05 -6.35 Q-0.75 -6.55 -0.5 -7.1 -0.3 -7.6 0.25 -7.55 L0.55 -7.15 0.7 -6.8 M3.55 -7.5 Q3.4 -7.35 3.25 -7.35 L2.75 -7.15 Q2.3 -7.45 2.5 -7.9 2.75 -8.5 3.25 -8.25 L3.55 -7.5 M2.7 -4.55 L2.6 -4.25 Q2.35 -3.55 1.85 -3.75 L1.65 -4.0 Q1.25 -4.8 2.05 -5.15 L2.7 -4.55 M4.85 -8.6 Q4.65 -8.35 4.4 -8.8 3.95 -9.4 4.7 -9.5 5.6 -9.05 4.85 -8.6 M2.3 -1.45 L1.9 -1.05 Q1.55 -0.8 1.35 -1.25 1.1 -1.8 1.75 -2.05 L2.15 -1.8 2.25 -1.65 2.3 -1.45 M-4.1 -1.4 L-4.45 -0.85 Q-4.7 -0.5 -5.15 -0.7 L-5.35 -0.9 Q-5.65 -1.65 -5.15 -1.9 L-4.85 -1.9 -4.15 -1.65 -4.1 -1.4 M4.55 -2.85 L4.3 -2.8 Q3.55 -3.05 4.3 -3.4 4.75 -3.3 4.55 -2.85 M-7.05 -3.65 Q-7.3 -4.3 -6.7 -4.4 L-6.3 -4.15 Q-5.95 -3.6 -6.55 -3.45 -6.9 -3.3 -7.05 -3.65 M-5.7 -6.15 L-5.85 -5.8 Q-6.15 -5.2 -6.55 -5.45 L-6.8 -5.65 Q-7.2 -6.3 -6.3 -6.65 L-5.7 -6.15 M-7.35 -1.45 L-8.05 -1.4 -8.35 -1.8 -8.45 -2.15 -7.55 -2.2 -7.25 -1.7 -7.35 -1.45 M-0.25 -4.45 L-0.2 -4.25 Q-0.1 -3.5 -0.85 -3.6 L-1.05 -3.8 -1.1 -4.3 Q-0.65 -4.95 -0.25 -4.45 M-4.05 -3.15 Q-4.8 -3.6 -4.1 -4.15 -3.65 -4.4 -3.25 -3.8 L-3.3 -3.55 -3.75 -3.05 -4.05 -3.15 M-0.65 -1.0 L-1.1 -0.5 -1.5 -0.35 -1.7 -0.85 -1.6 -1.4 -0.8 -1.3 -0.65 -1.0" fill="#414224" fill-rule="evenodd" stroke="none"/>
  </g>
</svg>
