<?xml version="1.0" encoding="UTF-8" standalone="no"?>
<svg xmlns:ffdec="https://www.free-decompiler.com/flash" xmlns:xlink="http://www.w3.org/1999/xlink" ffdec:objectType="shape" height="12.65px" width="16.35px" xmlns="http://www.w3.org/2000/svg">
  <g transform="matrix(1.0, 0.0, 0.0, 1.0, 10.35, 10.9)">
    <path d="M5.15 -7.6 L5.1 -7.8 4.95 -7.85 4.85 -7.8 4.8 -7.6 4.75 -7.6 3.55 -7.0 3.6 -6.9 3.5 -6.8 3.4 -6.95 1.75 -6.4 1.75 -6.15 1.75 -6.1 1.75 -6.0 1.85 -5.85 2.1 -4.05 2.1 -3.8 2.8 -3.25 3.05 -3.0 3.35 -2.6 4.25 -4.6 3.45 -6.6 3.55 -6.7 3.6 -6.65 3.65 -6.65 4.3 -4.85 4.55 -5.0 4.0 -6.7 4.1 -6.8 4.55 -5.25 5.25 -6.0 3.55 -2.55 3.75 -2.5 Q4.0 -3.4 4.5 -4.15 L5.05 -5.0 5.55 -5.65 5.15 -7.6 M5.55 -8.6 L5.6 -8.05 6.0 -5.85 4.75 -3.9 4.9 -4.05 2.8 0.2 2.5 0.75 Q1.6 1.7 0.35 1.75 L-0.8 1.35 -2.05 0.55 -2.95 -0.1 -3.35 -0.4 -4.25 -0.95 -5.15 -1.45 -5.6 -1.65 Q-6.8 -2.3 -8.05 -2.5 L-8.95 -2.5 -9.0 -2.45 -9.25 -2.5 -9.55 -5.2 -9.7 -6.0 -10.35 -7.55 -10.2 -7.8 -9.4 -8.0 -4.35 -7.8 -0.4 -8.3 1.45 -8.85 Q3.0 -9.3 4.2 -10.5 L4.3 -10.85 4.95 -10.9 5.0 -10.85 5.1 -10.7 5.45 -9.15 5.55 -8.6 M4.85 -9.85 L4.85 -9.95 4.85 -10.05 4.8 -10.15 4.75 -10.25 4.65 -10.3 4.4 -10.05 4.0 -9.7 Q3.25 -9.15 2.35 -8.85 L2.3 -8.8 0.0 -8.15 -2.1 -7.65 -4.5 -7.45 -6.8 -7.4 -9.0 -7.55 -9.3 -7.6 -9.65 -7.65 -9.75 -7.5 -9.6 -6.7 -9.4 -6.25 -9.3 -6.0 -9.25 -5.95 -9.2 -5.85 -9.05 -5.8 -8.95 -5.8 -8.75 -5.65 -8.45 -5.7 -8.9 -6.65 -8.7 -6.75 -8.15 -5.7 -7.4 -5.6 -7.75 -6.7 -7.7 -6.95 -7.55 -6.95 -7.15 -5.6 -6.85 -5.55 -6.8 -5.5 -5.95 -5.3 -6.4 -6.95 -6.35 -7.0 -6.15 -6.95 -5.6 -5.55 -5.45 -5.5 -5.1 -5.55 -4.75 -5.5 -3.45 -5.55 -3.0 -5.65 -2.75 -5.7 -1.6 -5.85 Q-0.05 -6.2 1.55 -6.7 L1.6 -6.75 1.65 -6.75 3.7 -7.55 4.05 -7.75 4.0 -9.0 4.15 -9.1 4.35 -7.8 4.6 -7.95 4.7 -7.9 4.9 -8.05 5.0 -8.05 5.0 -8.15 5.05 -8.4 4.85 -9.6 4.9 -9.75 4.85 -9.85 M2.3 -8.25 L2.55 -8.35 2.6 -7.3 2.6 -7.15 2.35 -7.35 2.3 -8.25 M3.4 -8.7 L3.55 -8.8 3.65 -7.65 3.45 -7.55 3.4 -8.7 M1.3 -7.95 L1.5 -7.15 1.65 -6.75 Q1.2 -7.15 1.2 -7.8 L1.2 -7.95 1.3 -7.95 M-0.05 -7.7 L0.4 -6.55 0.2 -6.6 -0.05 -7.05 -0.25 -7.65 -0.05 -7.7 M-1.25 -7.45 L-0.95 -6.3 -0.85 -6.25 -0.9 -6.05 -1.4 -7.45 -1.25 -7.45 M-2.45 -7.25 L-2.1 -6.3 -2.1 -6.15 -1.95 -6.0 -2.1 -5.95 -2.4 -6.5 -2.5 -6.75 -2.6 -7.05 -2.65 -7.2 -2.45 -7.25 M-3.65 -7.05 L-3.15 -5.8 -3.25 -5.7 -3.7 -7.05 -3.65 -7.05 M-5.0 -6.95 L-4.45 -5.55 -4.65 -5.7 -5.05 -6.95 -5.0 -6.95 M1.1 -6.3 L0.95 -6.25 0.95 -4.9 1.65 -5.05 1.65 -5.25 1.5 -5.75 1.25 -6.15 1.1 -6.3 M1.4 -5.2 L1.25 -5.15 1.1 -5.2 1.0 -5.35 1.1 -5.55 1.25 -5.6 1.4 -5.55 1.5 -5.35 1.4 -5.2 M0.45 -5.95 L0.55 -4.9 0.7 -5.0 0.65 -5.65 0.55 -5.9 0.45 -5.95 M0.25 -5.55 L0.15 -5.8 0.05 -5.85 -0.35 -5.8 -3.6 -5.3 -3.7 -5.15 -3.8 -5.15 -3.85 -5.15 -5.85 -5.25 -7.35 -5.35 -7.6 -5.2 -8.9 -5.4 -9.0 -5.35 -9.05 -5.0 -8.95 -4.9 -8.8 -3.5 -8.0 -3.6 -8.05 -4.8 -7.95 -4.8 -7.8 -3.55 -7.6 -3.6 -7.7 -4.85 -7.6 -4.9 -7.6 -5.05 -7.45 -4.85 -7.25 -3.55 -7.1 -3.5 -7.05 -3.45 -4.1 -2.25 -3.8 -2.1 -3.75 -4.8 -3.65 -4.85 Q-3.5 -3.65 -3.65 -2.35 L-3.7 -2.0 -3.35 -1.8 -3.3 -4.75 -3.15 -4.75 -3.1 -1.65 -1.6 -0.65 -1.1 -1.7 0.0 -3.0 0.1 -3.2 0.25 -3.5 0.55 -3.65 0.25 -5.55 M0.7 -4.55 L0.9 -3.6 1.8 -3.85 1.65 -4.7 0.7 -4.55 M2.85 -0.5 L3.0 -0.8 Q3.35 -2.0 2.55 -2.95 2.0 -3.55 1.2 -3.35 -0.1 -3.05 -0.6 -1.8 L-1.2 -0.9 -1.25 0.1 Q-1.25 0.65 -0.8 0.85 L-0.65 0.95 0.65 1.3 Q1.6 1.25 2.25 0.6 L2.85 -0.5 M-3.2 -1.3 L-5.4 -2.5 -7.6 -3.25 -7.8 -3.25 -8.85 -3.3 -8.85 -2.85 -7.05 -2.7 -6.75 -2.5 -5.65 -2.05 -4.15 -1.3 -2.75 -0.5 Q-2.1 -0.2 -1.6 0.25 L-1.6 -0.1 -1.85 -0.35 -3.2 -1.3" fill="#333333" fill-rule="evenodd" stroke="none"/>
    <path d="M5.15 -7.6 L5.55 -5.65 5.05 -5.0 4.5 -4.15 Q4.0 -3.4 3.75 -2.5 L3.55 -2.55 5.25 -6.0 4.55 -5.25 4.1 -6.8 4.45 -7.0 5.15 -7.6 M4.0 -6.7 L4.55 -5.0 4.3 -4.85 3.65 -6.65 3.6 -6.65 3.65 -6.65 4.0 -6.7 M3.45 -6.6 L4.25 -4.6 3.35 -2.6 3.05 -3.0 2.8 -3.25 2.1 -3.8 2.1 -4.05 1.85 -5.85 2.35 -5.9 2.55 -6.0 3.45 -6.6 M-9.0 -7.55 L-6.8 -7.4 -4.5 -7.45 -2.1 -7.65 0.0 -8.15 2.3 -8.8 2.35 -8.85 Q3.25 -9.15 4.0 -9.7 L4.4 -10.05 4.65 -10.3 4.75 -10.25 4.8 -10.15 4.85 -10.05 4.85 -9.95 4.85 -9.85 4.6 -10.05 4.45 -10.05 4.05 -9.55 2.85 -8.75 Q1.7 -8.3 0.5 -8.0 L-1.45 -7.6 -4.05 -7.35 -6.65 -7.35 -9.0 -7.55 M4.85 -9.6 L5.05 -8.4 5.0 -8.15 5.0 -8.05 4.9 -8.05 4.7 -7.9 4.6 -7.95 4.35 -7.8 4.15 -9.1 4.85 -9.6 M4.0 -9.0 L4.05 -7.75 3.7 -7.55 1.65 -6.75 1.6 -6.75 1.55 -6.7 Q-0.05 -6.2 -1.6 -5.85 L-2.75 -5.7 -3.0 -5.65 -3.45 -5.55 -4.75 -5.5 -5.1 -5.55 -5.45 -5.5 -5.6 -5.55 -6.15 -6.95 -5.05 -6.95 -4.65 -5.7 -4.45 -5.55 -5.0 -6.95 -3.7 -7.05 -3.25 -5.7 -3.15 -5.8 -3.65 -7.05 -2.65 -7.2 -2.6 -7.05 -2.5 -6.75 -2.4 -6.5 -2.1 -5.95 -1.95 -6.0 -2.1 -6.15 -2.1 -6.3 -2.45 -7.25 -1.4 -7.45 -0.9 -6.05 -0.85 -6.25 -0.95 -6.3 -1.25 -7.45 -0.25 -7.65 -0.05 -7.05 0.2 -6.6 0.4 -6.55 -0.05 -7.7 1.2 -7.95 1.2 -7.8 Q1.2 -7.15 1.65 -6.75 L1.5 -7.15 1.3 -7.95 2.3 -8.25 2.35 -7.35 2.6 -7.15 2.6 -7.3 2.55 -8.35 3.4 -8.7 3.45 -7.55 3.65 -7.65 3.55 -8.8 4.0 -9.0 M-6.35 -7.0 L-6.4 -6.95 -5.95 -5.3 -6.8 -5.5 -6.85 -5.55 -7.15 -5.6 -7.55 -6.95 -6.35 -7.0 M-7.7 -6.95 L-7.75 -6.7 -7.4 -5.6 -8.15 -5.7 -8.7 -6.75 -8.9 -6.65 -8.45 -5.7 -8.75 -5.65 -8.95 -5.8 -9.05 -5.8 -9.2 -5.85 -9.25 -5.95 -9.3 -6.0 -9.4 -6.25 -9.6 -6.7 -9.75 -7.5 -9.65 -7.65 -9.3 -7.6 -9.35 -7.45 -9.35 -7.3 -9.1 -7.15 -7.7 -6.95 M0.25 -5.55 L0.55 -3.65 0.25 -3.5 0.1 -3.2 0.0 -3.0 -1.1 -1.7 -1.6 -0.65 -3.1 -1.65 -3.15 -4.75 0.15 -5.35 0.25 -5.55 M-3.3 -4.75 L-3.35 -1.8 -3.7 -2.0 -3.65 -2.35 Q-3.5 -3.65 -3.65 -4.85 L-3.3 -4.75 M-3.75 -4.8 L-3.8 -2.1 -4.1 -2.25 -7.05 -3.45 -7.1 -3.5 -7.25 -3.55 -7.45 -4.85 -7.35 -4.75 -6.05 -4.65 -3.75 -4.8 M-7.7 -4.85 L-7.6 -3.6 -7.8 -3.55 -7.95 -4.8 -7.7 -4.85 M-8.05 -4.8 L-8.0 -3.6 -8.8 -3.5 -8.95 -4.9 -8.05 -4.8 M1.6 -1.25 Q2.2 -1.05 2.55 -1.5 L2.65 -2.1 Q2.45 -2.85 1.8 -3.05 L1.25 -3.05 0.7 -2.6 0.7 -2.2 Q0.9 -1.5 1.6 -1.25 M-0.6 -1.8 Q-0.1 -3.05 1.2 -3.35 2.0 -3.55 2.55 -2.95 3.35 -2.0 3.0 -0.8 L2.85 -0.5 1.75 0.0 1.15 0.15 Q0.25 0.15 -0.3 -0.55 L-0.4 -0.8 -0.6 -1.8 M-7.05 -2.7 L-8.85 -2.85 -8.85 -3.3 -7.8 -3.25 -7.6 -3.25 -5.4 -2.5 -3.2 -1.3 -3.8 -1.6 -5.95 -2.55 -7.05 -2.7" fill="#666666" fill-rule="evenodd" stroke="none"/>
    <path d="M4.85 -9.85 L4.9 -9.75 4.85 -9.6 4.15 -9.1 4.0 -9.0 3.55 -8.8 3.4 -8.7 2.55 -8.35 2.3 -8.25 1.3 -7.95 1.2 -7.95 -0.05 -7.7 -0.25 -7.65 -1.25 -7.45 -1.4 -7.45 -2.45 -7.25 -2.65 -7.2 -3.65 -7.05 -3.7 -7.05 -5.0 -6.95 -5.05 -6.95 -6.15 -6.95 -6.35 -7.0 -7.55 -6.95 -7.7 -6.95 -9.1 -7.15 -9.35 -7.3 -9.35 -7.45 -9.3 -7.6 -9.0 -7.55 -6.65 -7.35 -4.05 -7.35 -1.45 -7.6 0.5 -8.0 Q1.7 -8.3 2.85 -8.75 L4.05 -9.55 4.45 -10.05 4.6 -10.05 4.85 -9.85 M1.6 -1.25 Q0.9 -1.5 0.7 -2.2 L0.7 -2.6 1.25 -3.05 1.8 -3.05 Q2.45 -2.85 2.65 -2.1 L2.55 -1.5 Q2.2 -1.05 1.6 -1.25" fill="#999999" fill-rule="evenodd" stroke="none"/>
    <path d="M1.85 -5.85 L1.75 -6.0 1.75 -6.1 1.75 -6.15 1.75 -6.4 3.4 -6.95 3.5 -6.8 3.6 -6.9 3.55 -7.0 4.75 -7.6 4.8 -7.6 4.85 -7.8 4.95 -7.85 5.1 -7.8 5.15 -7.6 4.45 -7.0 4.1 -6.8 4.0 -6.7 3.65 -6.65 3.6 -6.65 3.55 -6.7 3.45 -6.6 2.55 -6.0 2.35 -5.9 1.85 -5.85 M0.45 -5.95 L0.55 -5.9 0.65 -5.65 0.7 -5.0 0.55 -4.9 0.45 -5.95 M-8.95 -4.9 L-9.05 -5.0 -9.0 -5.35 -8.9 -5.4 -7.6 -5.2 -7.35 -5.35 -5.85 -5.25 -3.85 -5.15 -3.8 -5.15 -3.7 -5.15 -3.6 -5.3 -0.35 -5.8 0.05 -5.85 0.15 -5.8 0.25 -5.55 0.15 -5.35 -3.15 -4.75 -3.3 -4.75 -3.65 -4.85 -3.75 -4.8 -6.05 -4.65 -7.35 -4.75 -7.45 -4.85 -7.6 -5.05 -7.6 -4.9 -7.7 -4.85 -7.95 -4.8 -8.05 -4.8 -8.95 -4.9 M0.7 -4.55 L1.65 -4.7 1.8 -3.85 0.9 -3.6 0.7 -4.55 M2.85 -0.5 L2.25 0.6 Q1.6 1.25 0.65 1.3 L-0.65 0.95 -0.8 0.85 Q-1.25 0.65 -1.25 0.1 L-1.2 -0.9 -0.6 -1.8 -0.4 -0.8 -0.3 -0.55 Q0.25 0.15 1.15 0.15 L1.75 0.0 2.85 -0.5 M-7.05 -2.7 L-5.95 -2.55 -3.8 -1.6 -3.2 -1.3 -1.85 -0.35 -1.6 -0.1 -1.6 0.25 Q-2.1 -0.2 -2.75 -0.5 L-4.15 -1.3 -5.65 -2.05 -6.75 -2.5 -7.05 -2.7" fill="#4f4f4f" fill-rule="evenodd" stroke="none"/>
  </g>
</svg>
