<?xml version="1.0" encoding="UTF-8" standalone="no"?>
<svg xmlns:ffdec="https://www.free-decompiler.com/flash" xmlns:xlink="http://www.w3.org/1999/xlink" ffdec:objectType="shape" height="12.4px" width="16.45px" xmlns="http://www.w3.org/2000/svg">
  <g transform="matrix(1.0, 0.0, 0.0, 1.0, 10.5, 10.8)">
    <path d="M5.1 -10.35 L5.3 -9.65 5.5 -9.0 5.7 -8.4 5.55 -7.65 5.35 -7.45 5.0 -7.0 4.8 -6.75 4.0 -6.05 3.5 -5.6 3.45 -5.6 3.25 -4.9 3.25 -4.7 3.25 -4.75 Q4.5 -5.3 5.3 -6.5 L5.35 -6.65 5.65 -6.45 5.8 -6.05 5.7 -5.45 5.7 -5.4 5.65 -5.35 5.65 -5.3 5.95 -4.95 5.75 -4.45 Q5.5 -3.65 4.7 -2.85 L3.15 -1.75 3.0 -1.6 Q2.6 -1.25 2.15 -1.15 L1.8 0.15 1.3 0.9 Q0.5 1.45 -0.5 1.55 L-1.1 1.6 Q-1.65 1.7 -2.0 1.35 L-1.9 1.05 -2.0 0.45 -2.1 0.4 -2.35 -0.1 -5.5 -0.25 -6.45 -0.4 -8.45 -0.9 -9.1 -1.3 -9.25 -2.15 -9.2 -2.3 -9.35 -2.5 -9.35 -3.3 -9.25 -3.5 -9.05 -3.7 -6.95 -3.05 -3.8 -2.8 -3.65 -2.9 -4.05 -3.85 -4.2 -3.8 -4.3 -3.75 -5.65 -3.6 -7.15 -3.7 -7.2 -3.75 -7.25 -3.75 -7.35 -3.8 -7.45 -3.95 -9.3 -4.15 -9.65 -4.25 -10.0 -4.7 -10.3 -6.15 -10.5 -7.4 -10.4 -7.45 -7.6 -7.2 -7.25 -7.2 -4.05 -7.45 Q-1.9 -7.55 0.15 -8.3 1.4 -8.7 2.6 -9.4 L3.25 -9.9 4.55 -10.8 4.95 -10.8 5.1 -10.35 M5.05 -7.5 L5.5 -8.1 5.55 -8.1 5.5 -8.15 5.45 -8.35 Q5.25 -8.25 5.2 -8.5 L5.15 -8.7 Q5.0 -9.1 5.0 -9.45 4.85 -9.45 4.8 -9.55 4.6 -9.85 4.8 -10.1 L4.9 -10.15 4.9 -10.2 4.9 -10.25 4.8 -10.35 4.8 -10.45 4.65 -10.6 4.3 -10.4 3.95 -10.0 3.85 -9.9 3.95 -9.8 4.0 -9.5 4.1 -9.1 4.35 -8.35 4.65 -7.55 Q4.7 -7.45 4.85 -7.4 L4.95 -7.4 5.05 -7.5 M3.65 -9.65 L3.35 -9.4 Q1.85 -8.35 0.0 -7.9 L-4.05 -6.85 -4.25 -6.8 -4.0 -4.4 -3.7 -4.4 Q-1.1 -4.35 1.2 -5.25 L3.7 -6.45 4.6 -7.1 4.7 -7.25 4.55 -7.3 4.35 -7.55 4.35 -7.75 4.15 -8.25 4.0 -8.7 3.65 -9.65 M3.05 -5.45 L3.0 -5.45 Q0.95 -4.6 -1.45 -4.3 L-3.3 -4.05 -3.5 -4.0 -3.7 -4.0 Q-2.9 -2.85 -2.4 -1.45 L-2.2 -0.95 -1.55 1.1 Q-0.35 1.25 0.8 0.65 L1.5 0.15 1.5 0.0 2.6 -3.35 3.05 -5.35 3.05 -5.45 M3.1 -3.9 L3.35 -4.0 4.7 -4.75 Q5.45 -5.15 5.5 -5.9 L4.8 -5.35 3.3 -4.35 3.05 -4.0 3.1 -3.9 M5.0 -4.55 L2.85 -3.15 2.7 -2.6 3.0 -2.8 3.25 -3.0 5.0 -4.55 M3.1 -2.0 Q4.5 -2.9 5.5 -4.25 L5.6 -4.4 5.5 -4.45 3.15 -2.4 2.4 -1.75 2.6 -1.65 3.1 -2.0 M-5.3 -6.95 L-6.95 -6.85 -7.1 -6.85 -7.3 -6.8 -7.4 -6.7 -7.35 -6.6 -7.2 -6.45 -6.95 -4.0 -4.45 -4.1 -4.55 -6.95 -5.3 -6.95 M-6.1 -6.45 L-5.65 -6.45 -5.4 -6.2 Q-5.2 -5.75 -5.55 -5.45 L-5.55 -4.5 -5.95 -4.45 -6.0 -4.5 -6.05 -5.45 -6.3 -5.65 Q-6.55 -6.15 -6.1 -6.45 M-7.75 -6.3 L-7.75 -6.45 -7.75 -6.5 -7.75 -6.8 -7.75 -6.85 -7.85 -6.95 -7.95 -6.9 -10.05 -7.15 -10.1 -7.1 -10.05 -6.95 -9.55 -4.7 -9.2 -4.5 -8.7 -4.4 -7.6 -4.4 -7.75 -6.3 M-7.95 -1.85 L-7.8 -1.8 -4.5 -1.3 -2.85 -1.2 -3.1 -1.6 -3.7 -1.6 -7.95 -1.85 M-7.65 -2.3 L-5.6 -2.1 -3.45 -2.3 -3.45 -2.5 -6.85 -2.65 Q-7.7 -2.75 -8.4 -3.15 L-8.7 -3.05 -8.7 -3.0 Q-8.45 -2.55 -7.9 -2.35 L-7.65 -2.3 M-8.1 -1.8 L-8.2 -1.85 -8.35 -1.95 -8.4 -1.95 Q-8.8 -1.5 -8.4 -1.25 L-8.0 -1.05 -6.55 -0.75 -4.0 -0.45 -2.65 -0.5 -2.6 -0.55 -2.8 -0.85 -5.1 -1.0 Q-6.65 -1.15 -8.1 -1.8" fill="#000000" fill-rule="evenodd" stroke="none"/>
    <path d="M3.65 -9.65 L4.0 -8.7 4.15 -8.25 4.35 -7.75 4.35 -7.55 4.55 -7.3 4.7 -7.25 4.6 -7.1 3.7 -6.45 1.2 -5.25 Q-1.1 -4.35 -3.7 -4.4 L-4.0 -4.4 -4.25 -6.8 -4.05 -6.85 0.0 -7.9 Q1.85 -8.35 3.35 -9.4 L3.65 -9.65 M3.05 -5.45 L3.0 -5.45 3.05 -5.45 M1.5 0.0 L-0.8 0.1 -0.85 0.05 -2.1 -3.3 -0.1 -3.9 1.95 -4.65 3.05 -5.35 2.6 -3.35 1.5 0.0 M3.1 -3.9 L3.05 -4.0 3.3 -4.35 4.8 -5.35 5.5 -5.9 Q5.45 -5.15 4.7 -4.75 L3.35 -4.0 3.1 -3.9 M3.1 -2.0 L2.6 -1.65 2.4 -1.75 3.15 -2.4 5.5 -4.45 5.6 -4.4 5.5 -4.25 Q4.5 -2.9 3.1 -2.0 M-9.2 -4.5 L-9.55 -4.7 -10.05 -6.95 -10.1 -7.1 -10.05 -7.15 -7.95 -6.9 -7.85 -6.95 -7.75 -6.85 -7.75 -6.8 -7.75 -6.5 -7.75 -6.45 -7.75 -6.3 -7.85 -6.1 -9.2 -4.5" fill="#836b45" fill-rule="evenodd" stroke="none"/>
    <path d="M3.0 -5.45 L3.05 -5.45 3.05 -5.35 1.95 -4.65 -0.1 -3.9 -2.1 -3.3 -0.85 0.05 -0.8 0.1 1.5 0.0 1.5 0.15 0.8 0.65 Q-0.35 1.25 -1.55 1.1 L-2.2 -0.95 -2.4 -1.45 Q-2.9 -2.85 -3.7 -4.0 L-3.5 -4.0 -3.3 -4.05 -1.45 -4.3 Q0.95 -4.6 3.0 -5.45 M-9.2 -4.5 L-7.85 -6.1 -7.75 -6.3 -7.6 -4.4 -8.7 -4.4 -9.2 -4.5 M-7.65 -2.3 L-7.9 -2.35 Q-8.45 -2.55 -8.7 -3.0 L-8.7 -3.05 -8.4 -3.15 Q-7.7 -2.75 -6.85 -2.65 L-3.45 -2.5 -3.45 -2.3 -5.6 -2.1 -7.65 -2.3 M-8.1 -1.8 Q-6.65 -1.15 -5.1 -1.0 L-2.8 -0.85 -2.6 -0.55 -2.65 -0.5 -4.0 -0.45 -6.55 -0.75 -8.0 -1.05 -8.4 -1.25 Q-8.8 -1.5 -8.4 -1.95 L-8.35 -1.95 -8.2 -1.85 -8.1 -1.8" fill="#594631" fill-rule="evenodd" stroke="none"/>
    <path d="M4.8 -10.35 L4.9 -10.25 4.9 -10.2 4.9 -10.15 4.8 -10.1 Q4.6 -9.85 4.8 -9.55 4.85 -9.45 5.0 -9.45 5.0 -9.1 5.15 -8.7 L5.2 -8.5 Q5.25 -8.25 5.45 -8.35 L5.5 -8.15 5.55 -8.1 5.5 -8.1 5.05 -7.5 5.0 -7.65 4.7 -8.5 4.45 -9.25 4.3 -9.65 4.25 -9.75 4.2 -9.85 4.7 -10.25 4.8 -10.35 M-5.65 -6.45 L-4.7 -6.5 -4.55 -6.75 -4.7 -6.9 -5.3 -6.95 -4.55 -6.95 -4.45 -4.1 -6.95 -4.0 -7.2 -6.45 -6.1 -6.45 Q-6.55 -6.15 -6.3 -5.65 L-6.05 -5.45 -6.0 -4.5 -5.95 -4.45 -5.55 -4.5 -5.55 -5.45 Q-5.2 -5.75 -5.4 -6.2 L-5.65 -6.45" fill="#cccccc" fill-rule="evenodd" stroke="none"/>
    <path d="M4.8 -10.35 L4.7 -10.25 4.2 -9.85 4.05 -9.8 3.95 -9.8 3.85 -9.9 3.95 -10.0 4.3 -10.4 4.65 -10.6 4.8 -10.45 4.8 -10.35 M-5.3 -6.95 L-4.7 -6.9 -4.55 -6.75 -4.7 -6.5 -5.65 -6.45 -6.1 -6.45 -7.2 -6.45 -7.35 -6.6 -7.4 -6.7 -7.3 -6.8 -7.1 -6.85 -6.95 -6.85 -5.3 -6.95" fill="#ffffff" fill-rule="evenodd" stroke="none"/>
    <path d="M4.2 -9.85 L4.25 -9.75 4.3 -9.65 4.45 -9.25 4.7 -8.5 5.0 -7.65 5.05 -7.5 4.95 -7.4 4.85 -7.4 Q4.7 -7.45 4.65 -7.55 L4.35 -8.35 4.1 -9.1 4.0 -9.5 3.95 -9.8 4.05 -9.8 4.2 -9.85" fill="#999999" fill-rule="evenodd" stroke="none"/>
  </g>
</svg>
