<?xml version="1.0" encoding="UTF-8" standalone="no"?>
<svg xmlns:ffdec="https://www.free-decompiler.com/flash" xmlns:xlink="http://www.w3.org/1999/xlink" ffdec:objectType="shape" height="15.75px" width="16.9px" xmlns="http://www.w3.org/2000/svg">
  <g transform="matrix(1.0, 0.0, 0.0, 1.0, 10.7, 14.1)">
    <path d="M-4.55 -1.75 L-9.3 -1.85 -10.45 -6.55 -10.7 -7.75 Q-10.8 -9.4 -9.75 -10.55 L-5.2 -10.8 -2.1 -11.5 Q0.6 -12.05 2.85 -13.45 L2.9 -14.05 3.35 -14.1 3.75 -13.95 4.05 -13.75 Q4.75 -12.25 4.95 -10.6 5.15 -8.55 6.2 -6.8 L6.15 -6.15 Q4.85 -5.2 4.1 -3.8 L2.35 -0.5 1.2 0.85 1.05 1.0 Q0.4 1.65 -0.6 1.65 L-2.05 0.9 -2.7 -0.55 -3.25 -0.95 -4.55 -1.75 M4.1 -11.95 L3.85 -13.25 3.6 -13.75 3.3 -13.85 3.3 -13.8 3.2 -13.25 Q1.6 -11.9 -0.45 -11.55 L-3.45 -10.7 -7.05 -10.1 -9.0 -10.15 -9.45 -10.05 Q-10.7 -9.05 -10.45 -7.25 L-10.1 -6.85 -7.2 -6.8 Q-2.0 -7.1 2.65 -9.15 L4.35 -9.95 4.4 -10.05 4.75 -10.7 4.45 -11.5 4.15 -11.75 Q4.05 -11.8 4.1 -11.95 M-7.95 -9.7 L-7.9 -9.75 -7.9 -9.7 -7.65 -8.95 -7.7 -8.85 -7.65 -8.85 -7.55 -8.5 -5.45 -8.75 -5.35 -9.95 -5.2 -8.95 -4.2 -8.8 Q-3.35 -8.85 -2.6 -9.35 L-2.7 -10.15 -2.75 -10.65 -2.65 -10.5 Q-2.15 -9.75 -2.15 -8.9 L-2.25 -7.8 -2.6 -8.95 -3.15 -8.6 -5.05 -8.45 -4.95 -7.1 -5.0 -7.1 -5.45 -8.4 -7.8 -8.3 -7.95 -7.0 -8.05 -7.15 -8.25 -8.2 -8.8 -8.2 -8.9 -8.4 -8.65 -8.55 -7.95 -9.7 M3.05 -12.45 L2.95 -12.65 3.05 -12.6 3.4 -12.3 Q4.1 -11.35 3.9 -10.15 L3.9 -9.8 3.7 -10.9 2.95 -10.65 1.9 -10.35 2.0 -9.15 1.9 -8.95 1.8 -9.1 1.45 -10.25 Q0.65 -9.65 -0.4 -9.5 L-1.55 -9.5 Q-0.15 -9.55 1.0 -10.3 L1.25 -10.85 1.15 -11.85 1.7 -10.8 2.2 -10.7 3.2 -11.2 3.35 -11.8 3.05 -12.45 M5.45 -8.15 Q5.2 -8.6 5.1 -8.25 4.9 -7.75 5.2 -7.25 L5.35 -7.2 5.45 -8.15 M5.65 -6.8 L5.45 -7.0 Q5.0 -6.85 5.15 -6.0 L5.05 -6.1 4.75 -6.9 Q4.2 -5.9 3.1 -6.0 L3.3 -5.0 3.5 -4.9 3.55 -4.9 4.0 -5.05 Q2.75 -4.55 3.1 -3.15 3.9 -4.8 5.25 -5.8 5.75 -6.2 5.7 -6.65 L5.65 -6.8 M4.95 -9.35 L4.2 -9.4 4.95 -8.65 4.95 -9.35 M1.4 -7.65 L1.4 -7.85 Q2.1 -6.0 2.25 -4.0 L2.2 -3.75 2.7 -3.4 3.1 -4.5 2.85 -4.45 Q2.6 -4.45 2.4 -4.6 L2.5 -4.55 2.95 -4.8 3.1 -5.1 3.1 -5.55 2.85 -5.85 2.75 -5.8 Q2.15 -5.7 2.25 -5.95 L2.35 -5.95 Q3.2 -6.55 2.45 -7.35 L2.0 -7.35 2.4 -7.55 2.55 -7.7 2.65 -7.65 Q3.4 -7.45 3.95 -8.05 L4.05 -8.15 4.15 -8.2 Q3.7 -7.5 2.7 -7.35 L3.15 -6.3 4.15 -6.55 Q4.6 -6.55 4.7 -7.0 L4.6 -7.7 4.4 -8.15 4.35 -8.75 3.95 -9.25 1.15 -8.05 0.7 -7.9 1.7 -4.0 1.8 -3.8 2.2 -3.75 1.8 -6.0 1.4 -7.6 1.4 -7.65 M0.65 -3.35 L1.25 -3.45 0.9 -5.25 0.3 -7.5 -0.25 -7.15 0.65 -3.35 M-0.5 -5.65 L0.45 -3.3 0.35 -4.1 Q0.15 -5.8 -0.45 -7.25 L-0.55 -7.5 -2.1 -7.0 -1.8 -6.2 -1.5 -6.2 -1.05 -6.15 -1.05 -6.1 -1.3 -5.85 -1.3 -5.75 -1.6 -5.7 -1.45 -4.95 -0.9 -4.9 -0.8 -5.0 -1.1 -7.0 -0.5 -5.65 M0.15 -3.0 Q-1.1 -2.05 -1.8 -0.75 L-1.35 0.45 -0.35 1.25 0.15 1.15 Q1.85 0.3 2.5 -1.45 L2.85 -2.55 2.65 -3.2 2.5 -3.35 0.15 -3.0 M-4.95 -6.45 L-4.85 -5.6 -2.35 -6.05 -2.25 -6.2 -2.35 -6.9 -9.7 -6.3 -9.75 -6.15 -9.55 -5.8 -8.1 -5.65 -7.6 -6.2 -7.55 -6.0 Q-7.4 -5.5 -6.85 -5.5 L-5.35 -5.5 -5.05 -6.45 -4.95 -6.45 M-7.0 -4.05 L-7.0 -3.95 -5.8 -4.05 -5.2 -4.1 -5.15 -5.45 -7.45 -5.3 -7.5 -4.75 -7.35 -4.05 -7.0 -4.05 M-1.85 -2.9 Q-1.15 -3.2 -1.5 -3.9 L-1.65 -4.15 -3.25 -4.0 -4.55 -3.7 -4.7 -3.35 -4.9 -3.45 -5.1 -3.85 -7.45 -3.55 -7.4 -3.25 Q-3.95 -3.55 -1.95 -0.95 L-0.2 -3.05 -1.2 -2.9 -1.15 -2.45 -1.25 -2.4 -1.5 -2.75 -3.15 -2.6 -3.2 -2.75 -2.7 -2.75 -1.85 -2.9 M-9.75 -4.9 L-9.55 -4.4 -8.5 -4.0 -7.8 -4.15 -7.9 -5.4 -9.6 -5.45 -9.75 -4.9 M-7.2 -3.05 L-7.65 -3.3 -7.65 -3.45 -7.75 -3.7 -8.25 -3.65 -8.85 -3.8 -8.8 -2.85 -8.75 -2.4 -6.35 -2.65 -4.45 -2.0 -3.0 -1.3 -1.95 -0.35 -2.65 -1.4 -2.95 -1.65 -4.4 -2.55 -6.0 -3.0 -7.2 -3.05 M-2.3 -4.65 L-2.0 -4.9 -1.9 -5.4 -2.25 -5.9 -2.95 -5.6 -3.3 -5.5 -4.85 -5.6 -4.7 -4.4 -4.25 -4.3 -2.95 -4.45 -2.3 -4.65 M-0.65 -3.4 L-0.55 -3.4 -0.45 -3.35 -0.8 -4.55 -1.35 -4.5 -1.3 -4.05 -1.05 -3.6 Q-0.9 -3.45 -0.65 -3.4" fill="#666666" fill-rule="evenodd" stroke="none"/>
    <path d="M-9.0 -10.15 L-7.05 -10.1 -3.45 -10.7 -0.45 -11.55 Q1.6 -11.9 3.2 -13.25 L3.3 -13.8 3.3 -13.85 3.6 -13.75 3.85 -13.25 4.1 -11.95 Q3.75 -11.8 3.55 -12.15 L3.0 -12.8 3.05 -12.6 2.95 -12.65 3.05 -12.45 3.1 -11.55 1.8 -10.95 1.1 -11.95 1.05 -10.7 -2.05 -9.8 -2.6 -10.75 -2.65 -10.5 -2.75 -10.65 -2.7 -10.15 -2.8 -9.55 -4.95 -9.1 -5.4 -10.1 -5.75 -8.95 -7.65 -8.85 -7.7 -8.85 -7.65 -8.95 -7.9 -9.7 -7.9 -9.75 -7.95 -9.7 -8.15 -9.65 -8.5 -8.85 -9.65 -8.95 -9.0 -10.15 M4.45 -11.5 L4.75 -10.7 4.3 -10.3 4.15 -11.05 4.45 -11.5 M5.35 -7.2 Q5.25 -7.6 5.3 -7.95 L5.45 -8.15 5.35 -7.2 M5.7 -6.65 L5.55 -6.5 5.65 -6.8 5.7 -6.65 M3.5 -4.9 L3.35 -5.45 4.6 -6.1 4.6 -5.85 4.05 -5.05 4.0 -5.05 3.65 -5.0 3.55 -4.9 3.5 -4.9 M3.3 -10.6 L3.4 -9.9 2.4 -9.5 2.15 -10.15 3.3 -10.6 M4.95 -8.65 Q4.8 -8.9 4.8 -9.1 L4.95 -9.35 4.95 -8.65 M1.4 -7.65 L1.4 -7.6 2.2 -3.75 1.8 -3.8 1.7 -4.0 0.7 -7.9 1.15 -8.05 1.4 -7.65 M4.15 -6.55 L3.15 -6.3 2.9 -7.0 4.25 -7.5 4.3 -6.75 4.15 -6.55 M4.05 -8.15 L3.95 -8.05 3.45 -7.75 2.85 -7.65 2.75 -7.65 2.75 -7.8 3.9 -8.65 4.05 -8.15 M1.25 -9.85 L1.35 -9.1 -1.55 -8.25 -1.7 -8.85 1.25 -9.85 M-0.45 -7.25 Q0.15 -5.8 0.35 -4.1 L0.45 -3.3 -0.5 -5.65 -0.8 -7.0 -0.45 -7.25 M-0.9 -4.9 L-1.45 -4.95 -1.6 -5.7 -1.3 -5.75 -1.15 -5.8 -0.9 -4.9 M0.15 -3.0 L2.5 -3.35 2.65 -3.2 2.85 -2.55 Q1.75 -0.85 -0.4 -0.85 L-1.15 -1.05 -1.3 -1.5 0.15 -3.0 M-2.65 -8.6 L-2.55 -8.0 -4.55 -7.55 -4.7 -8.1 -2.65 -8.6 M-7.0 -4.05 L-7.05 -5.0 -5.5 -5.15 -5.4 -5.2 -5.25 -4.15 -5.8 -4.05 -7.0 -3.95 -7.0 -4.05 M-5.35 -5.9 L-6.05 -5.6 -6.85 -5.6 -7.05 -5.6 -7.0 -5.7 -5.35 -5.9 M-7.5 -7.85 L-5.7 -7.95 -5.55 -7.35 -7.4 -7.2 -7.5 -7.85 M-1.8 -6.3 L-1.8 -6.85 -1.35 -6.85 -1.35 -6.3 -1.8 -6.3 M-2.7 -2.75 L-4.1 -3.4 -4.2 -3.55 -2.15 -3.95 -1.85 -2.9 -2.7 -2.75 M-8.8 -2.85 L-7.2 -3.05 -6.0 -3.0 -4.4 -2.55 -2.95 -1.65 -2.65 -1.4 -3.0 -1.3 -4.45 -2.0 -6.35 -2.65 -8.75 -2.4 -8.8 -2.85 M-2.3 -4.65 L-2.95 -4.45 -4.25 -4.3 -4.4 -5.25 -3.3 -5.5 -2.95 -5.6 -2.7 -5.6 -2.3 -4.65 M-0.65 -3.4 Q-0.9 -3.45 -1.05 -3.6 L-1.3 -4.05 -0.8 -4.1 -0.65 -3.4 M-4.55 -5.9 L-4.55 -6.05 -2.6 -6.55 -4.25 -5.9 -4.55 -5.9" fill="#ffffff" fill-rule="evenodd" stroke="none"/>
    <path d="M-4.55 -1.75 L-3.25 -0.95 -2.7 -0.55 -4.55 -1.75 M1.2 0.85 L2.35 -0.5 1.7 0.3 1.2 0.85 M-9.0 -10.15 L-9.65 -8.95 -8.5 -8.85 -8.15 -9.65 -7.95 -9.7 -8.65 -8.55 -8.9 -8.4 -8.8 -8.2 -8.25 -8.2 -8.05 -7.15 -7.95 -7.0 -7.8 -8.3 -5.45 -8.4 -5.0 -7.1 -4.95 -7.1 -5.05 -8.45 -3.15 -8.6 -2.6 -8.95 -2.25 -7.8 -2.15 -8.9 Q-2.15 -9.75 -2.65 -10.5 L-2.6 -10.75 -2.05 -9.8 1.05 -10.7 1.1 -11.95 1.8 -10.95 3.1 -11.55 3.05 -12.45 3.35 -11.8 3.2 -11.2 2.2 -10.7 1.7 -10.8 1.15 -11.85 1.25 -10.85 1.0 -10.3 Q-0.15 -9.55 -1.55 -9.5 L-0.4 -9.5 Q0.65 -9.65 1.45 -10.25 L1.8 -9.1 1.9 -8.95 2.0 -9.15 1.9 -10.35 2.95 -10.65 3.7 -10.9 3.9 -9.8 3.9 -10.15 Q4.1 -11.35 3.4 -12.3 L3.05 -12.6 3.0 -12.8 3.55 -12.15 Q3.75 -11.8 4.1 -11.95 4.05 -11.8 4.15 -11.75 L4.45 -11.5 4.15 -11.05 4.3 -10.3 4.75 -10.7 4.4 -10.05 4.35 -9.95 2.65 -9.15 Q-2.0 -7.1 -7.2 -6.8 L-10.1 -6.85 -10.45 -7.25 Q-10.7 -9.05 -9.45 -10.05 L-9.0 -10.15 M-7.65 -8.85 L-5.75 -8.95 -5.4 -10.1 -4.95 -9.1 -2.8 -9.55 -2.7 -10.15 -2.6 -9.35 Q-3.35 -8.85 -4.2 -8.8 L-5.2 -8.95 -5.35 -9.95 -5.45 -8.75 -7.55 -8.5 -7.65 -8.85 M5.45 -8.15 L5.3 -7.95 Q5.25 -7.6 5.35 -7.2 L5.2 -7.25 Q4.9 -7.75 5.1 -8.25 5.2 -8.6 5.45 -8.15 M5.65 -6.8 L5.55 -6.5 5.7 -6.65 Q5.75 -6.2 5.25 -5.8 3.9 -4.8 3.1 -3.15 2.75 -4.55 4.0 -5.05 L4.05 -5.05 4.6 -5.85 4.6 -6.1 3.35 -5.45 3.5 -4.9 3.3 -5.0 3.1 -6.0 Q4.2 -5.9 4.75 -6.9 L5.05 -6.1 5.15 -6.0 Q5.0 -6.85 5.45 -7.0 L5.65 -6.8 M3.3 -10.6 L2.15 -10.15 2.4 -9.5 3.4 -9.9 3.3 -10.6 M4.95 -8.65 L4.2 -9.4 4.95 -9.35 4.8 -9.1 Q4.8 -8.9 4.95 -8.65 M3.95 -8.05 Q3.4 -7.45 2.65 -7.65 L2.55 -7.7 2.4 -7.55 2.0 -7.35 2.45 -7.35 Q3.2 -6.55 2.35 -5.95 L2.25 -5.95 Q2.15 -5.7 2.75 -5.8 L2.85 -5.85 3.1 -5.55 3.1 -5.1 2.95 -4.8 2.5 -4.55 2.4 -4.6 Q2.6 -4.45 2.85 -4.45 L3.1 -4.5 2.7 -3.4 2.2 -3.75 2.25 -4.0 Q2.1 -6.0 1.4 -7.85 L1.4 -7.65 1.15 -8.05 3.95 -9.25 4.35 -8.75 4.4 -8.15 4.6 -7.7 4.7 -7.0 Q4.6 -6.55 4.15 -6.55 L4.3 -6.75 4.25 -7.5 2.9 -7.0 3.15 -6.3 2.7 -7.35 Q3.7 -7.5 4.15 -8.2 L4.05 -8.15 3.9 -8.65 2.75 -7.8 2.75 -7.65 2.85 -7.65 3.45 -7.75 3.95 -8.05 M1.4 -7.6 L1.8 -6.0 2.2 -3.75 1.4 -7.6 M1.25 -9.85 L-1.7 -8.85 -1.55 -8.25 1.35 -9.1 1.25 -9.85 M3.55 -4.9 L3.65 -5.0 4.0 -5.05 3.55 -4.9 M0.65 -3.35 L-0.25 -7.15 0.3 -7.5 0.9 -5.25 1.25 -3.45 0.65 -3.35 M-0.5 -5.65 L-1.1 -7.0 -0.8 -5.0 -0.9 -4.9 -1.15 -5.8 -1.3 -5.75 -1.3 -5.85 -1.05 -6.1 -1.05 -6.15 -1.5 -6.2 -1.8 -6.2 -2.1 -7.0 -0.55 -7.5 -0.45 -7.25 -0.8 -7.0 -0.5 -5.65 M2.85 -2.55 L2.5 -1.45 Q1.85 0.3 0.15 1.15 L-0.35 1.25 -1.35 0.45 -1.8 -0.75 Q-1.1 -2.05 0.15 -3.0 L-1.3 -1.5 -1.15 -1.05 -0.4 -0.85 Q1.75 -0.85 2.85 -2.55 M-2.65 -8.6 L-4.7 -8.1 -4.55 -7.55 -2.55 -8.0 -2.65 -8.6 M-4.95 -6.45 L-5.05 -6.45 -5.35 -5.5 -6.85 -5.5 Q-7.4 -5.5 -7.55 -6.0 L-7.6 -6.2 -8.1 -5.65 -9.55 -5.8 -9.75 -6.15 -9.7 -6.3 -2.35 -6.9 -2.25 -6.2 -2.35 -6.05 -4.85 -5.6 -4.95 -6.45 M-1.8 -6.3 L-1.35 -6.3 -1.35 -6.85 -1.8 -6.85 -1.8 -6.3 M-7.5 -7.85 L-7.4 -7.2 -5.55 -7.35 -5.7 -7.95 -7.5 -7.85 M-5.35 -5.9 L-7.0 -5.7 -7.05 -5.6 -6.85 -5.6 -6.05 -5.6 -5.35 -5.9 M-5.8 -4.05 L-5.25 -4.15 -5.4 -5.2 -5.5 -5.15 -7.05 -5.0 -7.0 -4.05 -7.35 -4.05 -7.5 -4.75 -7.45 -5.3 -5.15 -5.45 -5.2 -4.1 -5.8 -4.05 M-2.7 -2.75 L-3.2 -2.75 -3.15 -2.6 -1.5 -2.75 -1.25 -2.4 -1.15 -2.45 -1.2 -2.9 -0.2 -3.05 -1.95 -0.95 Q-3.95 -3.55 -7.4 -3.25 L-7.45 -3.55 -5.1 -3.85 -4.9 -3.45 -4.7 -3.35 -4.55 -3.7 -3.25 -4.0 -1.65 -4.15 -1.5 -3.9 Q-1.15 -3.2 -1.85 -2.9 L-2.15 -3.95 -4.2 -3.55 -4.1 -3.4 -2.7 -2.75 M-8.8 -2.85 L-8.85 -3.8 -8.25 -3.65 -7.75 -3.7 -7.65 -3.45 -7.65 -3.3 -7.2 -3.05 -8.8 -2.85 M-9.75 -4.9 L-9.6 -5.45 -7.9 -5.4 -7.8 -4.15 -8.5 -4.0 -9.55 -4.4 -9.75 -4.9 M-2.65 -1.4 L-1.95 -0.35 -3.0 -1.3 -2.65 -1.4 M-2.95 -5.6 L-2.25 -5.9 -1.9 -5.4 -2.0 -4.9 -2.3 -4.65 -2.7 -5.6 -2.95 -5.6 M-4.25 -4.3 L-4.7 -4.4 -4.85 -5.6 -3.3 -5.5 -4.4 -5.25 -4.25 -4.3 M-1.3 -4.05 L-1.35 -4.5 -0.8 -4.55 -0.45 -3.35 -0.55 -3.4 -0.65 -3.4 -0.8 -4.1 -1.3 -4.05 M-4.55 -5.9 L-4.25 -5.9 -2.6 -6.55 -4.55 -6.05 -4.55 -5.9" fill="#cccccc" fill-rule="evenodd" stroke="none"/>
  </g>
</svg>
