<?xml version="1.0" encoding="UTF-8" standalone="no"?>
<svg xmlns:ffdec="https://www.free-decompiler.com/flash" xmlns:xlink="http://www.w3.org/1999/xlink" ffdec:objectType="shape" height="7.8px" width="15.3px" xmlns="http://www.w3.org/2000/svg">
  <g transform="matrix(1.0, 0.0, 0.0, 1.0, 6.9, 4.85)">
    <path d="M1.7 -1.65 L3.15 -1.6 3.15 -1.5 3.35 -1.5 3.65 -1.0 1.05 -1.05 0.25 -1.15 0.05 -0.5 -0.15 0.15 -0.25 0.85 -0.25 1.55 -0.15 2.25 0.0 2.65 0.2 2.95 -0.65 2.75 -1.35 2.45 -2.0 2.05 -2.35 1.7 -2.65 1.25 -2.9 0.8 -3.2 0.25 -3.55 -0.65 -3.7 -1.3 -3.95 -2.3 -4.75 -2.7 -5.55 -3.15 -6.1 -3.5 -6.65 -3.95 -6.85 -4.25 -6.9 -4.5 -6.8 -4.65 -6.65 -4.85 -6.25 -4.55 -5.8 -4.0 -5.1 -3.55 -4.5 -3.2 -3.95 -2.9 -3.35 -2.7 -1.95 -2.25 0.2 -1.8 1.7 -1.65 M8.3 -2.45 Q8.55 -2.15 8.3 -1.85 L8.15 -1.7 7.65 -1.4 7.3 -2.05 Q7.8 -2.15 8.2 -2.5 L8.3 -2.45 M-3.6 -2.0 L-3.05 -0.55 -2.75 0.15 -2.25 1.0 -1.3 2.0 -0.65 2.35 -0.65 0.7 -0.45 -0.3 -0.15 -1.25 -2.85 -1.95 -2.65 -0.5 -2.35 0.2 -2.7 -0.3 -2.9 -1.15 -2.95 -2.0 -3.65 -2.2 -3.6 -2.0 M-0.85 -0.55 L-0.75 1.2 -0.8 1.25 -0.9 1.05 Q-1.15 0.05 -0.8 -0.85 L-0.7 -0.7 -0.8 -0.7 -0.85 -0.55" fill="#666666" fill-rule="evenodd" stroke="none"/>
    <path d="M-0.85 -0.55 L-0.8 -0.7 -0.7 -0.7 -0.8 -0.85 Q-1.15 0.05 -0.9 1.05 L-0.8 1.25 -0.75 1.2 -0.85 -0.55 M-3.6 -2.0 L-3.65 -2.2 -2.95 -2.0 -2.9 -1.15 -2.7 -0.3 -2.35 0.2 -2.65 -0.5 -2.85 -1.95 -0.15 -1.25 -0.45 -0.3 -0.65 0.7 -0.65 2.35 -1.3 2.0 -2.25 1.0 -2.75 0.15 -3.05 -0.55 -3.6 -2.0" fill="#ffffff" fill-rule="evenodd" stroke="none"/>
  </g>
</svg>
