<?xml version="1.0" encoding="UTF-8" standalone="no"?>
<svg xmlns:ffdec="https://www.free-decompiler.com/flash" xmlns:xlink="http://www.w3.org/1999/xlink" ffdec:objectType="shape" height="12.1px" width="19.25px" xmlns="http://www.w3.org/2000/svg">
  <g transform="matrix(1.0, 0.0, 0.0, 1.0, 11.05, 10.6)">
    <path d="M5.35 -7.45 Q6.35 -8.05 7.0 -9.05 L7.3 -9.6 6.9 -9.9 6.05 -10.3 5.7 -10.35 5.15 -10.2 5.1 -9.6 4.75 -8.85 4.45 -8.5 Q2.5 -7.15 0.0 -6.65 L-1.45 -6.45 -4.65 -6.15 -10.5 -6.4 Q-9.3 -5.65 -7.95 -5.5 L-7.1 -5.35 -7.85 -5.3 Q-5.35 -5.05 -2.85 -5.25 L1.2 -5.95 3.1 -6.45 1.4 -5.95 -2.8 -5.15 Q-5.4 -4.8 -7.75 -5.15 L-10.45 -6.05 -9.8 -3.55 -9.75 -3.3 -9.7 -3.1 -9.7 -3.05 -9.4 -2.55 Q-9.1 -2.3 -8.7 -2.15 L-7.25 -1.7 -6.5 -1.55 -5.3 -1.4 -3.9 -1.4 -2.5 -1.4 -1.45 -1.5 -0.35 -1.6 0.9 -1.85 2.0 -2.05 3.45 -2.45 4.85 -2.95 5.35 -3.2 6.2 -3.65 7.4 -4.5 7.85 -4.9 7.5 -9.4 6.65 -8.4 6.15 -7.85 5.55 -7.55 5.35 -7.45 M7.75 -9.55 L8.2 -4.85 7.85 -4.4 6.75 -3.55 Q5.65 -2.75 4.35 -2.3 L3.3 -1.95 2.8 -1.75 2.25 -1.6 1.6 0.15 1.25 1.05 1.05 1.1 -1.85 1.05 -1.85 0.85 Q-1.9 0.0 -2.3 -0.45 L-2.55 -0.9 -5.85 -1.1 Q-7.4 -1.2 -8.85 -1.75 L-9.3 -2.0 -9.5 -2.1 -9.6 -2.15 -9.6 -2.25 -9.65 -2.25 -9.7 -2.35 -9.75 -2.35 -10.05 -3.45 -10.1 -3.7 -11.0 -6.9 -11.0 -7.15 -10.3 -8.05 -9.95 -7.55 Q-8.15 -6.5 -6.1 -6.4 L0.2 -7.0 Q1.8 -7.45 3.35 -8.25 L4.45 -8.9 4.6 -9.3 4.85 -10.05 4.6 -10.5 5.8 -10.6 Q7.0 -10.45 7.75 -9.55 M1.1 -1.35 L-1.75 -0.95 -1.6 -0.65 -1.5 -0.25 Q-1.7 0.4 -1.05 0.85 L-0.8 0.9 Q0.35 1.1 1.0 0.4 L1.15 -0.1 1.75 -1.5 1.4 -1.4 1.1 -1.35 M-2.15 -0.95 L-2.2 -0.95 -2.1 -0.85 -2.15 -0.95" fill="#1c2139" fill-rule="evenodd" stroke="none"/>
    <path d="M4.45 -8.5 L5.5 -8.4 Q4.5 -7.45 3.35 -6.95 1.1 -5.9 -1.45 -6.45 L0.0 -6.65 Q2.5 -7.15 4.45 -8.5 M-4.65 -6.15 Q-4.2 -5.75 -4.7 -5.6 L-7.1 -5.35 -7.95 -5.5 Q-9.3 -5.65 -10.5 -6.4 L-4.65 -6.15 M3.1 -6.45 L4.1 -6.85 5.35 -7.45 5.55 -7.55 6.15 -7.85 6.65 -7.8 6.9 -7.15 Q7.45 -5.85 7.4 -4.5 L6.2 -3.65 5.35 -3.2 4.85 -2.95 3.45 -2.45 2.0 -2.05 0.9 -1.85 -0.35 -1.6 -1.45 -1.5 -2.5 -1.4 -3.9 -1.4 -5.3 -1.4 -6.5 -1.55 -7.25 -1.7 -8.7 -2.15 Q-9.1 -2.3 -9.4 -2.55 L-9.7 -3.05 -9.7 -3.1 -9.75 -3.3 -9.8 -3.55 -10.45 -6.05 -7.75 -5.15 Q-5.4 -4.8 -2.8 -5.15 L1.4 -5.95 3.1 -6.45" fill="#343d69" fill-rule="evenodd" stroke="none"/>
    <path d="M4.45 -8.5 L4.75 -8.85 5.1 -9.6 5.15 -10.2 5.7 -10.35 6.05 -10.3 6.9 -9.9 7.3 -9.6 7.0 -9.05 Q6.35 -8.05 5.35 -7.45 L4.1 -6.85 3.1 -6.45 1.2 -5.95 -2.85 -5.25 Q-5.35 -5.05 -7.85 -5.3 L-7.1 -5.35 -4.7 -5.6 Q-4.2 -5.75 -4.65 -6.15 L-1.45 -6.45 Q1.1 -5.9 3.35 -6.95 4.5 -7.45 5.5 -8.4 L4.45 -8.5 M6.15 -7.85 L6.65 -8.4 7.5 -9.4 7.85 -4.9 7.4 -4.5 Q7.45 -5.85 6.9 -7.15 L6.65 -7.8 6.15 -7.85" fill="#8f98c9" fill-rule="evenodd" stroke="none"/>
    <path d="M1.1 -1.35 L1.4 -1.4 1.75 -1.5 1.15 -0.1 1.0 0.4 Q0.35 1.1 -0.8 0.9 L-1.05 0.85 Q-1.7 0.4 -1.5 -0.25 L-1.6 -0.65 -1.75 -0.95 1.1 -1.35 M-2.15 -0.95 L-2.1 -0.85 -2.2 -0.95 -2.15 -0.95" fill="#282f51" fill-rule="evenodd" stroke="none"/>
  </g>
</svg>
