<?xml version="1.0" encoding="UTF-8" standalone="no"?>
<svg xmlns:ffdec="https://www.free-decompiler.com/flash" xmlns:xlink="http://www.w3.org/1999/xlink" ffdec:objectType="shape" height="15.35px" width="18.1px" xmlns="http://www.w3.org/2000/svg">
  <g transform="matrix(1.0, 0.0, 0.0, 1.0, 9.55, 9.45)">
    <path d="M4.05 5.05 L3.2 4.75 3.15 4.8 1.6 3.8 1.2 3.0 2.35 1.0 2.45 1.0 3.55 -0.1 4.75 -0.95 6.25 -1.2 7.25 0.4 7.95 1.25 7.3 1.4 6.85 1.6 Q6.1 2.05 6.05 2.8 6.25 3.0 6.55 3.05 L7.05 3.0 6.85 3.55 6.5 3.65 6.35 3.6 2.35 3.35 2.3 3.45 2.25 3.5 2.35 3.65 4.05 5.05 M5.55 -0.2 L6.1 -0.75 5.8 -0.95 Q4.8 -0.9 4.15 -0.1 L4.3 0.05 5.4 -0.55 4.9 0.15 5.05 0.3 5.9 0.1 5.5 0.6 5.65 0.8 6.5 0.8 6.5 0.6 6.1 0.4 6.4 -0.05 5.55 -0.2 M7.6 2.7 L8.2 2.3 8.25 2.25 8.05 2.95 7.15 3.4 7.35 2.9 7.6 2.7" fill="#cdb8a5" fill-rule="evenodd" stroke="none"/>
    <path d="M1.5 -0.55 L1.55 -0.9 0.0 -2.75 0.1 -2.9 1.5 -2.0 1.5 -1.9 2.25 -1.25 2.25 -1.2 3.1 -0.55 3.75 -0.55 3.85 -0.9 3.35 -3.35 3.65 -3.2 3.65 -3.15 3.7 -3.1 3.8 -2.8 3.95 -2.6 4.15 -2.15 4.95 -1.3 5.15 -1.35 5.2 -1.5 5.3 -1.55 5.35 -2.4 5.15 -5.2 5.1 -5.25 4.65 -7.4 3.8 -9.0 2.7 -6.85 4.0 -6.3 3.55 -6.4 2.0 -6.5 1.95 -6.3 0.8 -6.15 0.8 -5.95 -1.15 -5.35 -1.35 -5.3 -0.85 -4.65 -3.45 -6.75 -3.55 -6.4 -3.95 -4.7 -3.8 -2.6 -4.0 -2.5 -4.3 -2.7 -4.2 -3.0 -4.4 -3.2 -4.7 -3.1 -4.95 -3.2 -5.05 -3.05 -5.7 -3.05 -5.85 -2.9 -7.35 -2.85 -7.5 -2.7 -8.5 -2.8 -8.75 -3.0 -9.15 -2.85 -9.15 -2.7 -8.9 -2.4 -8.8 -2.15 -8.65 -0.9 -8.6 -0.55 -7.7 -0.15 -7.3 0.0 Q-6.45 0.35 -5.65 0.8 L-5.35 0.85 -5.45 0.1 -5.25 0.05 -5.45 -0.2 -5.1 -0.65 -5.45 -0.85 -4.95 -1.4 -4.85 -1.5 -4.7 -1.7 -4.6 -1.95 -4.45 -2.3 -4.85 -0.3 -4.75 -0.15 -4.65 0.0 -4.0 0.45 -3.35 0.6 -2.85 0.9 -3.45 1.4 -2.05 1.6 -1.95 1.75 -2.5 2.5 0.05 2.45 -0.35 3.05 0.9 2.55 2.8 0.0 2.5 -0.05 2.4 -0.45 Q2.0 -1.0 1.5 -0.55 M7.3 4.75 L7.35 4.95 7.25 5.05 6.2 5.65 4.95 5.9 3.65 5.5 2.0 4.45 1.5 4.1 1.35 4.05 1.3 3.95 -0.85 4.4 -0.65 3.95 -2.1 4.25 -2.8 4.25 -2.15 3.4 -3.95 3.15 -4.0 2.9 -3.6 2.6 -3.75 2.45 -5.5 2.15 -4.55 1.4 -5.1 1.35 -5.1 1.25 -5.6 1.15 -5.65 1.0 -6.3 0.8 -6.4 0.65 -7.1 0.55 -7.1 0.45 -7.15 0.4 -7.25 0.4 -7.3 0.35 -7.4 0.35 -7.7 0.4 -7.85 0.4 -7.8 0.15 -8.25 0.1 -8.35 0.0 -8.65 0.0 -9.1 -0.2 -9.3 -2.1 -9.35 -2.15 -9.4 -2.2 -9.5 -2.4 -9.5 -2.5 -9.5 -2.6 -9.45 -3.05 -9.35 -3.15 -8.95 -3.3 -8.5 -3.3 -8.35 -3.3 -7.8 -3.0 -7.8 -3.2 -7.0 -3.0 -7.05 -3.3 -6.3 -3.15 -6.25 -3.35 -5.4 -3.2 -5.4 -3.35 -5.35 -3.5 -4.8 -3.4 -4.7 -3.55 -4.25 -3.5 -4.2 -4.4 -3.9 -6.4 -3.65 -7.1 -3.5 -7.15 -2.7 -6.65 -1.75 -5.85 -1.55 -5.65 -0.45 -5.95 -0.35 -6.15 0.4 -6.15 0.4 -6.4 1.5 -6.6 1.6 -6.85 2.3 -6.8 3.35 -9.05 3.85 -9.45 4.3 -9.0 4.8 -8.05 5.2 -6.55 5.45 -6.95 5.5 -7.05 5.6 -7.1 5.65 -7.05 5.85 -6.75 5.95 -6.6 6.1 -6.05 6.55 -4.75 6.6 -3.25 6.65 -2.65 Q6.7 -1.9 7.05 -1.2 L8.45 1.4 7.95 1.25 7.25 0.4 6.25 -1.2 4.75 -0.95 3.55 -0.1 2.45 1.0 2.35 1.0 1.2 3.0 1.6 3.8 3.15 4.8 3.2 4.8 3.2 4.75 4.05 5.05 Q4.85 5.8 5.9 5.45 6.6 5.2 7.15 4.75 L7.3 4.75 M8.5 1.75 L8.1 3.0 8.05 2.95 8.25 2.25 8.5 1.75 M-2.35 -3.5 L-3.35 -2.65 -3.4 -2.8 -3.45 -3.05 Q-3.65 -3.85 -3.5 -4.65 L-3.35 -5.35 -2.4 -3.75 -2.4 -3.55 -2.35 -3.6 -2.35 -3.5 M-3.3 -4.8 L-3.3 -3.0 -2.6 -3.65 -3.3 -4.8 M5.6 -6.75 L5.55 -6.7 5.65 -6.7 5.6 -6.75 M0.3 -3.1 L-0.45 -3.45 0.2 -3.2 0.3 -3.1 M6.2 -5.7 L5.8 -6.15 5.75 -6.1 5.45 -5.65 6.4 -3.1 6.2 -5.7 M5.95 -2.2 L5.7 -3.75 5.6 -3.95 5.75 -2.75 5.65 -2.65 5.85 -1.45 5.9 -1.4 5.95 -1.5 6.3 -1.3 6.65 -1.5 Q6.9 -2.05 6.4 -2.35 L5.95 -2.2 M5.55 -0.2 L6.4 -0.05 6.1 0.4 6.5 0.6 6.5 0.8 5.65 0.8 5.5 0.6 5.9 0.1 5.05 0.3 4.9 0.15 5.4 -0.55 4.3 0.05 4.15 -0.1 Q4.8 -0.9 5.8 -0.95 L6.1 -0.75 5.55 -0.2 M7.15 3.4 L6.85 3.55 7.05 3.0 6.55 3.05 Q6.25 3.0 6.05 2.8 6.1 2.05 6.85 1.6 L7.3 1.4 Q6.45 1.8 6.25 2.65 L6.45 2.85 7.5 2.75 7.6 2.7 7.35 2.9 7.15 3.4 M2.3 3.45 L2.35 3.65 2.25 3.5 2.3 3.45 M7.2 3.75 L7.15 3.8 7.2 3.75 M7.0 3.85 L7.0 3.9 6.9 3.9 7.0 3.85 M6.25 4.85 L6.2 4.9 6.2 4.85 6.25 4.85 M5.45 5.15 L5.2 5.15 5.25 5.0 5.35 4.9 5.5 5.0 5.45 5.15 M4.95 5.05 L4.6 4.9 4.75 4.9 4.85 4.8 4.9 4.85 4.95 5.05 M4.5 4.85 L4.4 4.75 4.55 4.6 4.55 4.65 4.5 4.85 M4.15 4.5 L3.15 3.7 3.5 3.7 5.95 4.0 5.9 4.05 5.05 3.85 5.0 3.85 4.95 3.85 3.6 3.75 4.2 4.3 4.15 4.4 4.15 4.5 M5.65 4.75 L5.65 4.8 5.55 4.95 5.65 4.75" fill="#594631" fill-rule="evenodd" stroke="none"/>
    <path d="M2.5 -0.05 L2.8 0.0 0.9 2.55 -0.35 3.05 0.05 2.45 -2.5 2.5 -1.95 1.75 -2.05 1.6 -3.45 1.4 -2.85 0.9 -3.35 0.6 -4.0 0.45 -4.65 0.0 -4.75 -0.15 -4.85 -0.3 -4.45 -2.3 -4.6 -1.95 -4.7 -1.7 -4.85 -1.5 -4.95 -1.4 -5.45 -0.85 -5.1 -0.65 -5.45 -0.2 -5.25 0.05 -5.45 0.1 -5.35 0.85 -5.65 0.8 Q-6.45 0.35 -7.3 0.0 L-7.7 -0.15 -8.6 -0.55 -8.65 -0.9 -8.8 -2.15 -8.9 -2.4 -9.15 -2.7 -9.15 -2.85 -8.75 -3.0 -8.5 -2.8 -7.5 -2.7 -7.35 -2.85 -5.85 -2.9 -5.7 -3.05 -5.05 -3.05 -4.95 -3.2 -4.7 -3.1 -4.4 -3.2 -4.2 -3.0 -4.3 -2.7 -4.0 -2.5 -3.8 -2.6 -3.95 -4.7 -3.55 -6.4 -3.45 -6.75 -0.85 -4.65 -1.35 -5.3 -1.15 -5.35 0.8 -5.95 0.8 -6.15 1.95 -6.3 2.0 -6.5 3.55 -6.4 4.0 -6.3 2.7 -6.85 3.8 -9.0 4.65 -7.4 5.1 -5.25 5.15 -5.2 5.35 -2.4 5.3 -1.55 5.2 -1.5 5.15 -1.35 4.95 -1.3 4.15 -2.15 3.95 -2.6 3.8 -2.8 3.7 -3.1 3.65 -3.15 3.65 -3.2 3.35 -3.35 3.85 -0.9 3.75 -0.55 3.1 -0.55 2.25 -1.2 2.25 -1.25 1.5 -1.9 1.5 -2.0 0.1 -2.9 0.0 -2.75 1.55 -0.9 1.5 -0.55 1.4 -0.35 Q1.25 -0.05 1.5 0.1 2.15 0.6 2.5 -0.05 M-3.3 -4.8 L-2.6 -3.65 -3.3 -3.0 -3.3 -4.8 M-2.35 -3.5 L-2.35 -3.6 -2.4 -3.55 -2.4 -3.75 -3.35 -5.35 -3.5 -4.65 Q-3.65 -3.85 -3.45 -3.05 L-3.4 -2.8 -3.35 -2.65 -2.35 -3.5 M0.3 -3.1 L0.2 -3.2 -0.45 -3.45 0.3 -3.1 M6.2 -5.7 L6.4 -3.1 5.45 -5.65 5.75 -6.1 5.8 -6.15 6.2 -5.7 M5.95 -1.5 L5.9 -1.4 5.85 -1.45 5.65 -2.65 5.75 -2.75 5.6 -3.95 5.7 -3.75 5.95 -2.2 5.95 -1.5" fill="#9b7857" fill-rule="evenodd" stroke="none"/>
    <path d="M1.5 -0.55 Q2.0 -1.0 2.4 -0.45 L2.5 -0.05 Q2.15 0.6 1.5 0.1 1.25 -0.05 1.4 -0.35 L1.5 -0.55 M8.45 1.4 L8.55 1.65 8.55 1.7 8.5 1.75 8.25 2.25 8.2 2.3 7.6 2.7 7.5 2.75 6.45 2.85 6.25 2.65 Q6.45 1.8 7.3 1.4 L7.95 1.25 8.45 1.4 M7.75 3.45 L7.3 4.35 7.15 4.35 7.05 4.0 7.0 3.9 7.0 3.85 7.15 3.8 7.3 4.15 7.6 3.55 7.75 3.45 M5.95 -1.5 L5.95 -2.2 6.4 -2.35 Q6.9 -2.05 6.65 -1.5 L6.3 -1.3 5.95 -1.5 M6.8 4.55 L6.75 4.55 6.7 4.45 Q6.65 4.35 6.6 4.4 L6.9 4.05 6.8 4.55 M6.2 4.9 L6.05 4.95 6.2 4.85 6.2 4.9 M5.7 5.1 L5.45 5.15 5.5 5.0 5.35 4.9 4.95 3.85 5.0 3.85 5.05 3.85 5.6 4.8 5.9 4.05 5.95 4.0 6.1 4.05 5.65 4.75 5.55 4.95 5.65 4.8 5.7 4.8 5.7 5.1" fill="#000000" fill-rule="evenodd" stroke="none"/>
    <path d="M7.0 3.9 L7.05 4.0 6.9 4.05 6.6 4.4 6.25 4.5 6.05 4.35 5.7 4.8 5.65 4.8 5.65 4.75 6.1 4.05 6.9 3.9 7.0 3.9 M4.95 3.85 L5.35 4.9 5.25 5.0 5.15 4.75 4.9 4.85 4.85 4.8 4.75 4.7 4.55 4.65 4.55 4.6 4.4 4.15 4.2 4.3 3.6 3.75 4.95 3.85" fill="#990000" fill-rule="evenodd" stroke="none"/>
    <path d="M8.1 3.0 L8.0 3.3 7.75 3.45 7.6 3.55 7.2 3.75 7.15 3.8 7.0 3.85 6.9 3.9 6.1 4.05 5.95 4.0 3.5 3.7 3.15 3.7 4.15 4.5 Q4.1 4.6 4.2 4.7 L4.4 4.75 4.5 4.85 4.6 4.9 4.95 5.05 5.2 5.15 5.45 5.15 5.7 5.1 6.05 4.95 6.2 4.9 6.25 4.85 6.35 4.9 6.75 4.55 6.8 4.55 7.05 4.5 7.15 4.35 7.3 4.35 7.3 4.75 7.15 4.75 Q6.6 5.2 5.9 5.45 4.85 5.8 4.05 5.05 L2.35 3.65 2.3 3.45 2.35 3.35 6.35 3.6 6.5 3.65 6.85 3.55 7.15 3.4 8.05 2.95 8.1 3.0" fill="#550000" fill-rule="evenodd" stroke="none"/>
    <path d="M7.15 3.8 L7.2 3.75 7.6 3.55 7.3 4.15 7.15 3.8 M7.05 4.0 L7.15 4.35 7.05 4.5 6.8 4.55 6.9 4.05 7.05 4.0 M6.6 4.4 Q6.65 4.35 6.7 4.45 L6.75 4.55 6.35 4.9 6.25 4.85 6.2 4.85 6.05 4.95 5.7 5.1 5.7 4.8 6.05 4.35 6.25 4.5 6.6 4.4 M5.2 5.15 L4.95 5.05 4.9 4.85 5.15 4.75 5.25 5.0 5.2 5.15 M4.6 4.9 L4.5 4.85 4.55 4.65 4.75 4.7 4.85 4.8 4.75 4.9 4.6 4.9 M4.4 4.75 L4.2 4.7 Q4.1 4.6 4.15 4.5 L4.15 4.4 4.2 4.3 4.4 4.15 4.55 4.6 4.4 4.75 M5.9 4.05 L5.6 4.8 5.05 3.85 5.9 4.05" fill="#ffffff" fill-rule="evenodd" stroke="none"/>
  </g>
</svg>
