<?xml version="1.0" encoding="UTF-8" standalone="no"?>
<svg xmlns:ffdec="https://www.free-decompiler.com/flash" xmlns:xlink="http://www.w3.org/1999/xlink" ffdec:objectType="shape" height="23.5px" width="36.05px" xmlns="http://www.w3.org/2000/svg">
  <g transform="matrix(1.0, 0.0, 0.0, 1.0, 21.1, 15.2)">
    <path d="M4.95 -8.1 L5.2 -7.95 5.5 -8.1 5.95 -13.85 5.65 -14.7 5.5 -14.15 3.75 -8.85 4.95 -8.1 M-6.75 -10.45 L-7.1 -10.85 -6.9 -11.1 -1.5 -8.9 -0.25 -8.5 0.3 -8.55 2.95 -9.1 3.35 -9.4 5.7 -15.2 6.1 -14.95 6.05 -7.9 6.65 -7.45 6.9 -7.2 7.15 -6.95 Q7.5 -6.45 7.45 -5.85 L8.1 -5.15 8.55 -4.85 Q9.6 -4.15 9.5 -2.95 L10.3 -1.6 10.8 -0.8 11.55 0.05 12.2 1.45 12.35 2.05 12.35 2.15 12.35 2.5 12.35 2.65 12.25 2.95 12.2 3.15 11.9 3.7 Q11.1 5.05 10.45 6.5 L9.55 6.55 9.05 6.9 7.8 7.9 6.7 7.35 Q5.35 6.1 3.85 5.15 L4.1 4.8 5.7 5.95 6.75 6.65 6.8 6.8 7.85 7.25 9.6 5.95 10.4 5.9 Q10.8 5.1 10.65 4.15 L10.7 3.85 10.45 3.9 Q9.5 4.25 8.65 4.95 L8.75 5.2 7.95 5.15 7.55 6.55 6.75 4.85 6.5 4.75 6.3 5.6 6.05 5.65 5.65 4.35 5.65 5.0 5.35 5.25 4.9 4.05 4.9 4.6 4.7 4.7 4.6 4.55 4.5 4.4 4.45 4.3 4.55 4.2 4.6 4.15 4.75 4.5 4.9 4.0 4.75 4.0 5.25 3.65 5.3 3.6 Q6.6 3.85 7.7 4.65 L8.15 4.65 9.25 4.05 Q10.15 3.55 11.2 3.45 L11.5 3.3 Q12.25 2.55 11.9 1.6 L11.85 1.4 11.8 1.3 10.65 -0.25 10.5 -0.4 10.35 -0.25 9.9 1.5 10.15 1.95 10.05 2.3 9.75 2.25 Q9.25 1.8 8.65 1.7 L6.75 1.75 5.7 1.5 4.6 1.45 4.1 1.35 Q5.3 1.1 6.55 1.35 L8.4 1.45 9.5 1.5 9.2 1.2 7.85 0.2 6.2 0.1 3.3 0.1 3.1 0.15 2.7 0.25 2.95 -0.05 3.4 -0.2 Q5.2 -0.05 7.05 -0.15 L7.3 -0.1 Q7.05 -1.1 6.0 -1.4 L4.85 -1.5 4.7 -1.4 2.55 -1.55 3.2 -1.65 6.1 -1.55 6.2 -1.7 5.45 -2.7 4.8 -2.75 4.45 -2.75 4.35 -2.6 Q2.75 -1.9 1.1 -2.15 L0.75 -2.35 Q0.3 -2.8 0.25 -3.4 L-0.35 -3.8 0.4 -5.15 0.3 -4.05 Q1.7 -3.35 3.3 -3.3 L4.25 -3.3 3.9 -4.95 3.6 -5.45 3.65 -5.6 2.15 -8.0 3.9 -5.5 4.2 -5.45 5.7 -3.5 6.9 -5.7 6.95 -6.4 6.65 -7.0 6.05 -7.15 6.2 -7.4 5.85 -7.3 Q5.05 -7.4 4.3 -7.85 L3.85 -8.15 3.55 -8.45 3.45 -8.55 0.5 -8.1 0.8 -7.8 0.65 -7.6 0.05 -7.9 -0.2 -7.8 0.1 -7.0 0.05 -6.35 0.05 -6.15 -0.25 -5.75 -0.85 -5.55 -2.2 -5.6 -2.4 -5.65 Q-2.2 -5.1 -1.6 -4.95 L-0.95 -4.95 -0.95 -4.65 -1.1 -4.6 -1.25 -4.55 Q-2.8 -4.4 -3.25 -5.9 L-4.8 -6.35 -4.8 -6.15 -3.6 -4.95 -4.45 -5.25 -6.05 -5.1 -5.95 -4.7 -5.85 -4.65 -5.8 -4.6 -5.35 -4.35 Q-4.7 -4.45 -4.3 -3.95 L-7.0 -3.6 -6.75 -3.25 -6.65 -3.15 -6.05 -2.8 -4.25 -2.5 -6.5 -2.15 -6.65 -1.85 -6.55 -1.75 -4.4 -1.8 -5.95 -0.05 Q-4.9 0.1 -3.95 -0.6 L-5.2 1.1 -5.1 1.25 -4.9 1.25 -4.7 1.25 Q-3.85 1.0 -3.15 0.35 L-3.95 1.85 -2.75 1.05 -2.7 -2.65 -2.45 -0.55 -2.4 -0.75 Q-2.25 -2.0 -1.05 -2.2 L-0.6 -2.1 -0.35 -1.65 Q-1.25 -2.05 -1.7 -1.15 L-1.85 -0.55 Q-1.75 0.65 -0.65 1.3 L-0.65 1.55 Q-1.8 1.3 -2.3 0.25 -2.2 1.8 -0.75 2.45 L2.25 3.75 3.55 4.45 3.35 4.85 Q0.9 3.4 -1.65 2.3 L-2.1 2.15 -2.75 2.2 -2.9 1.55 -3.9 2.2 -4.1 2.1 -3.95 1.25 -4.3 1.5 -4.4 1.55 -4.5 1.55 -4.6 1.6 -4.7 1.55 -4.9 1.55 -5.45 1.3 Q-5.6 1.0 -5.35 0.75 L-5.3 0.65 -5.05 0.45 -4.85 0.25 -4.65 0.0 -4.4 -0.2 -5.0 0.05 -5.25 0.1 -5.45 0.15 -5.55 0.2 -5.65 0.2 -5.75 0.2 -6.15 0.1 -6.2 -0.35 -5.4 -0.9 -7.35 -1.5 -7.85 -1.8 -8.8 -2.7 -8.75 -2.55 -8.85 -2.55 -8.9 -2.5 -8.9 -2.45 -8.9 -2.3 -8.9 -2.25 -8.85 -2.2 -8.85 -2.15 -8.75 -1.55 -9.4 -1.85 -9.75 -2.15 -9.85 -2.45 -9.85 -2.55 -9.85 -2.75 -9.0 -1.85 -8.85 -1.9 -9.35 -3.9 -9.25 -4.0 -9.4 -4.3 -9.4 -4.35 -9.85 -5.95 -10.15 -5.45 -10.1 -5.15 -9.45 -4.35 -9.45 -4.3 -9.4 -4.3 Q-10.15 -4.4 -10.45 -5.05 L-10.5 -5.65 -10.65 -5.65 -11.05 -5.45 Q-11.35 -4.75 -10.6 -4.45 L-10.4 -4.45 -10.0 -4.35 -10.25 -4.35 -10.4 -4.3 Q-10.75 -3.95 -10.4 -3.5 L-10.65 -3.55 -10.7 -3.6 -10.95 -3.7 -11.1 -3.95 -10.95 -3.85 -10.75 -3.65 -10.8 -3.75 -10.8 -4.2 Q-11.05 -4.25 -11.2 -4.45 L-11.35 -4.6 -11.4 -4.85 -11.35 -5.4 -11.3 -5.55 -11.3 -5.6 -11.05 -5.75 -10.65 -5.8 Q-11.0 -6.1 -10.95 -6.55 -10.9 -7.3 -10.2 -7.15 L-10.1 -7.0 -10.65 -6.85 -10.65 -6.7 Q-10.7 -6.25 -10.35 -5.85 L-9.85 -6.0 -9.9 -6.2 -9.8 -6.35 -9.9 -6.8 -9.55 -6.6 -9.55 -6.55 -9.0 -6.4 -6.85 -5.85 -4.9 -5.65 -5.2 -6.25 -5.2 -6.3 -5.2 -6.4 -5.15 -6.5 -5.1 -6.6 -5.05 -6.65 -3.6 -6.4 -6.15 -9.7 -3.85 -7.5 -3.7 -7.55 -2.6 -6.5 Q-2.1 -6.1 -1.45 -6.0 -0.5 -5.95 -0.2 -6.85 L-0.45 -7.95 Q-1.1 -8.6 -2.0 -8.9 L-4.3 -9.75 -6.55 -10.65 -6.75 -10.7 -6.75 -10.45 M-10.7 -7.35 L-10.65 -7.65 -10.4 -7.6 -10.3 -7.45 -10.2 -7.2 -10.7 -7.35 M5.95 -7.0 Q5.85 -6.85 5.45 -6.85 3.9 -6.9 2.9 -8.15 L3.0 -8.2 Q4.3 -7.3 5.9 -7.0 L5.95 -7.0 M0.95 -6.9 Q1.05 -6.1 0.55 -5.5 L0.35 -5.5 0.65 -6.05 0.75 -7.2 0.95 -6.9 M4.2 -2.75 L0.35 -3.4 1.3 -2.4 3.9 -2.65 4.2 -2.75 M7.75 -4.95 Q7.1 -3.65 5.75 -3.15 L5.75 -3.05 5.65 -2.8 6.5 -1.85 7.45 -3.2 7.85 -3.7 8.2 -3.95 8.2 -3.75 7.1 -2.55 Q6.65 -1.9 7.0 -1.2 L7.6 -0.4 7.8 -0.35 Q8.6 -1.2 8.95 -2.4 L8.95 -2.6 Q9.35 -3.4 8.7 -4.15 L7.75 -4.95 M7.35 -5.2 L7.15 -5.65 Q6.95 -4.7 6.4 -3.9 L6.25 -3.65 7.05 -4.4 7.35 -5.2 M9.35 -2.25 L9.2 -2.2 8.15 0.05 9.45 1.3 10.35 -0.65 9.4 -2.25 9.35 -2.25 M-15.65 -5.5 L-15.65 -5.1 -16.05 -5.15 -17.9 -5.4 Q-18.65 -5.6 -19.3 -6.05 L-20.35 -7.25 Q-21.05 -8.45 -21.05 -9.8 L-21.05 -10.6 -20.8 -10.7 -20.7 -10.6 Q-20.4 -10.4 -20.35 -10.0 L-20.25 -9.7 Q-19.95 -8.9 -19.2 -8.35 -18.6 -7.95 -17.8 -7.85 L-15.45 -7.9 -15.5 -7.6 -15.5 -7.55 -16.2 -7.15 -15.6 -6.9 -15.7 -6.85 -15.6 -6.8 -15.55 -6.85 -15.6 -6.35 -15.65 -6.5 -15.65 -6.7 -16.2 -6.5 -16.35 -6.4 -16.35 -6.3 -16.3 -6.2 -15.65 -5.8 -16.0 -5.75 -15.85 -5.5 -15.65 -5.5 M-20.1 -8.2 L-20.25 -8.9 -20.2 -8.95 -20.75 -10.4 -20.9 -10.45 -20.9 -9.3 -20.8 -8.9 -20.6 -8.2 -20.35 -8.4 -20.5 -8.05 -19.35 -6.5 -19.35 -6.8 -19.45 -6.8 -19.6 -6.95 -19.75 -7.4 -19.45 -7.5 -19.2 -7.45 -19.35 -7.65 -19.3 -7.95 -19.15 -8.05 -19.1 -8.05 -20.1 -8.85 -19.7 -8.05 -19.8 -8.0 -19.95 -8.1 -19.95 -8.0 -19.75 -7.45 -19.8 -7.45 Q-20.15 -7.75 -20.1 -8.2 M-20.75 -9.2 L-20.7 -9.25 -20.65 -9.1 -20.8 -8.9 -20.75 -9.2 M-18.9 -7.95 L-18.85 -7.8 -19.2 -7.85 -19.05 -7.65 -18.85 -7.5 -17.8 -7.45 -17.5 -7.6 -18.9 -7.95 M-18.55 -7.05 L-18.15 -6.45 Q-18.75 -6.5 -18.8 -7.15 L-19.55 -7.25 -19.15 -6.75 -19.15 -6.35 -18.4 -5.85 -18.5 -6.4 Q-18.15 -6.25 -18.25 -5.8 L-17.4 -5.6 -17.6 -5.95 -17.85 -6.15 Q-18.15 -6.45 -17.85 -6.8 L-17.65 -6.9 -17.85 -7.1 -17.85 -7.2 -17.85 -7.3 -18.5 -7.2 -18.55 -7.05 M-17.5 -6.7 L-17.8 -6.55 -17.75 -6.45 -17.25 -6.0 -17.45 -5.95 -17.25 -5.6 -16.0 -5.55 -16.2 -5.8 -16.4 -5.9 -16.65 -6.25 -16.55 -6.55 -15.9 -6.8 -16.25 -6.9 -16.4 -7.15 -16.45 -7.25 -16.05 -7.55 -17.15 -7.55 -17.2 -7.4 -17.35 -7.45 -17.65 -7.25 -17.6 -7.1 -16.9 -6.8 -17.5 -6.7 M-10.75 -3.65 L-10.7 -3.6 -10.75 -3.65 M-7.45 -4.05 L-7.5 -4.1 -7.85 -4.4 -8.85 -4.4 -8.95 -4.55 Q-9.05 -5.0 -8.7 -5.3 L-8.7 -5.35 -8.65 -4.6 -7.65 -4.8 -7.55 -4.45 -7.15 -4.3 -7.05 -4.3 -6.95 -4.3 -6.6 -4.45 -6.3 -4.65 -6.35 -4.85 -6.1 -5.4 -7.7 -5.65 -8.0 -5.75 -8.65 -5.95 -8.9 -6.0 -9.35 -5.95 -8.85 -3.1 -7.0 -1.7 -6.95 -2.1 -6.45 -2.55 -6.65 -2.65 Q-6.85 -2.45 -7.2 -2.4 L-7.3 -2.4 -7.4 -2.4 -7.65 -2.5 -7.75 -2.55 -7.85 -2.95 -8.6 -3.1 -8.65 -3.6 -8.5 -3.85 -8.4 -4.0 -8.4 -3.25 -7.55 -3.35 -7.5 -2.7 -6.9 -2.85 -7.35 -3.75 -7.2 -3.95 -6.5 -4.1 -7.35 -4.05 -7.45 -4.05 M-6.15 -4.5 L-6.1 -4.1 -5.35 -4.0 -6.15 -4.5 M-5.15 -1.1 L-4.85 -1.45 -5.45 -1.3 -5.15 -1.1 M-0.5 0.75 L-0.7 0.35 -0.45 0.05 0.05 0.05 Q1.35 0.85 2.0 2.25 2.55 3.45 3.9 3.45 L4.35 3.45 4.05 3.8 2.6 3.45 1.85 2.9 0.3 0.95 -0.5 0.75 M11.25 1.85 L11.55 1.95 11.6 2.1 10.8 3.1 11.1 1.85 11.25 1.85 M10.85 3.85 L11.15 4.75 11.45 3.85 10.85 3.85 M9.3 3.0 L9.55 3.5 Q9.1 3.75 8.5 3.5 L8.05 3.25 8.3 2.75 9.3 3.0 M5.25 4.25 Q5.15 4.35 5.2 4.5 L5.25 4.8 5.35 4.9 5.5 4.8 5.55 4.5 5.5 4.25 5.35 4.15 5.25 4.25 M7.6 5.1 L7.0 4.9 7.45 6.0 7.6 5.1 M5.85 4.45 L6.15 5.35 6.4 4.7 5.85 4.45" fill="#152d16" fill-rule="evenodd" stroke="none"/>
    <path d="M12.2 1.45 L13.65 2.5 13.85 2.4 14.35 2.05 14.55 1.8 14.1 0.95 11.6 -2.95 9.0 -7.85 10.85 -5.15 11.7 -3.55 11.95 -3.25 14.1 0.45 14.95 2.05 14.25 2.95 14.0 3.0 13.15 2.6 12.35 2.05 12.2 1.45 M3.85 5.15 L3.6 5.6 Q2.6 8.2 -0.15 8.3 -3.15 8.3 -4.95 5.8 L-8.5 0.65 Q-8.0 0.95 -7.65 1.55 L-4.4 5.95 Q-3.25 7.25 -1.55 7.75 1.9 8.2 3.15 5.15 L3.35 4.85 3.55 4.45 2.25 3.75 -0.75 2.45 Q-2.2 1.8 -2.3 0.25 -1.8 1.3 -0.65 1.55 L-0.65 1.3 Q-1.75 0.65 -1.85 -0.55 L-1.7 -1.15 Q-1.25 -2.05 -0.35 -1.65 L-0.6 -2.1 -0.9 -2.5 -0.9 -2.8 Q-0.8 -4.3 0.4 -5.15 L-0.35 -3.8 0.25 -3.4 Q0.3 -2.8 0.75 -2.35 L1.1 -2.15 Q2.75 -1.9 4.35 -2.6 L4.45 -2.75 4.8 -2.75 Q4.15 -1.9 3.15 -2.0 L1.75 -1.85 1.0 -1.55 0.95 -1.0 1.15 -0.65 2.75 1.15 3.85 2.1 4.55 2.35 7.25 2.9 7.4 3.1 7.8 3.1 7.85 2.75 10.3 2.6 11.25 1.35 11.4 1.4 11.8 1.3 11.85 1.4 11.9 1.6 Q12.25 2.55 11.5 3.3 L11.2 3.45 Q10.15 3.55 9.25 4.05 L8.15 4.65 7.7 4.65 Q6.6 3.85 5.3 3.6 L5.25 3.65 4.75 4.0 4.6 4.15 4.55 4.2 4.45 4.3 4.5 4.4 4.6 4.55 4.7 4.7 4.9 4.6 4.9 4.05 5.35 5.25 5.65 5.0 5.65 4.35 6.05 5.65 6.3 5.6 6.5 4.75 6.75 4.85 7.55 6.55 7.95 5.15 8.75 5.2 9.05 5.35 9.5 5.0 9.7 5.05 10.1 4.65 10.4 4.7 10.65 4.15 Q10.8 5.1 10.4 5.9 L9.6 5.95 7.85 7.25 6.8 6.8 6.75 6.65 5.7 5.95 4.1 4.8 3.85 5.15 M-9.85 -2.75 L-10.0 -3.05 -10.65 -3.55 -10.4 -3.5 Q-10.75 -3.95 -10.4 -4.3 L-10.25 -4.35 -10.0 -4.35 -10.4 -4.45 -10.6 -4.45 Q-11.35 -4.75 -11.05 -5.45 L-10.45 -5.05 Q-10.15 -4.4 -9.4 -4.3 L-9.45 -4.3 -9.4 -4.3 -9.25 -4.0 -9.35 -3.9 -8.85 -1.9 -9.0 -1.85 -9.85 -2.75 M-11.1 -3.95 L-11.35 -4.6 -11.2 -4.45 Q-11.05 -4.25 -10.8 -4.2 L-10.8 -3.75 -10.75 -3.65 -10.95 -3.85 -11.1 -3.95 M-0.85 -5.55 L-0.95 -4.95 -1.6 -4.95 Q-2.2 -5.1 -2.4 -5.65 L-2.2 -5.6 -0.85 -5.55 M-0.95 -4.65 L-1.15 -4.4 Q-1.7 -3.3 -1.05 -2.2 -2.25 -2.0 -2.4 -0.75 L-2.45 -0.55 -2.7 -2.65 -2.75 1.05 -3.95 1.85 -3.15 0.35 Q-3.85 1.0 -4.7 1.25 L-4.9 1.25 -5.1 1.25 -5.2 1.1 -3.95 -0.6 Q-4.9 0.1 -5.95 -0.05 L-4.4 -1.8 -6.55 -1.75 -6.65 -1.85 -6.5 -2.15 -4.25 -2.5 -6.05 -2.8 -6.65 -3.15 -6.75 -3.25 -7.0 -3.6 -4.3 -3.95 Q-4.7 -4.45 -5.35 -4.35 L-5.8 -4.6 -5.85 -4.65 -5.95 -4.7 -6.05 -5.1 -4.45 -5.25 -3.6 -4.95 -4.8 -6.15 -4.8 -6.35 -3.25 -5.9 Q-2.8 -4.4 -1.25 -4.55 L-1.1 -4.6 -0.95 -4.65 M-15.6 -6.35 L-15.65 -5.5 -15.85 -5.5 -16.0 -5.75 -15.65 -5.8 -16.3 -6.2 -16.35 -6.3 -16.35 -6.4 -16.2 -6.5 -15.65 -6.5 -15.6 -6.35 M-20.9 -9.3 L-20.75 -9.2 -20.8 -8.9 -20.65 -9.1 -20.1 -8.2 Q-20.15 -7.75 -19.8 -7.45 L-19.75 -7.45 -19.95 -8.0 -19.45 -7.5 -19.75 -7.4 -19.6 -6.95 -19.45 -6.8 -19.35 -6.8 -19.35 -6.5 -20.5 -8.05 -20.35 -8.4 -20.6 -8.2 -20.8 -8.9 -20.9 -9.3 M-17.85 -6.8 Q-18.15 -6.45 -17.85 -6.15 L-17.6 -5.95 -17.4 -5.6 -18.25 -5.8 Q-18.15 -6.25 -18.5 -6.4 L-18.4 -5.85 -19.15 -6.35 -19.15 -6.75 -19.55 -7.25 -18.8 -7.15 Q-18.75 -6.5 -18.15 -6.45 L-18.55 -7.05 -17.85 -6.8 M-16.55 -6.55 L-16.65 -6.25 -16.4 -5.9 -16.2 -5.8 -16.0 -5.55 -17.25 -5.6 -17.45 -5.95 -17.25 -6.0 -17.75 -6.45 -17.8 -6.55 -17.5 -6.7 -16.55 -6.55 M-9.4 -4.35 L-9.4 -4.3 -9.45 -4.35 -9.4 -4.35 M-6.15 -4.5 L-5.35 -4.0 -6.1 -4.1 -6.15 -4.5 M-7.45 -4.05 L-7.35 -4.05 -6.5 -4.1 -7.2 -3.95 -7.35 -3.75 -6.9 -2.85 -7.5 -2.7 -7.55 -3.35 -8.4 -3.25 -8.4 -4.0 -8.5 -3.85 -8.65 -3.6 -8.6 -3.1 -7.85 -2.95 -7.75 -2.55 -7.65 -2.5 -7.4 -2.4 -7.3 -2.4 -7.2 -2.4 Q-6.85 -2.45 -6.65 -2.65 L-6.45 -2.55 -6.95 -2.1 -7.0 -1.7 -8.85 -3.1 -9.35 -5.95 -8.9 -6.0 -8.65 -5.95 -8.0 -5.75 -7.7 -5.65 -6.1 -5.4 -6.35 -4.85 -6.3 -4.65 -6.6 -4.45 -6.95 -4.3 -7.05 -4.3 -7.15 -4.3 -7.55 -4.45 -7.65 -4.8 -8.65 -4.6 -8.7 -5.35 -8.7 -5.3 Q-9.05 -5.0 -8.95 -4.55 L-8.85 -4.4 -7.85 -4.4 -7.5 -4.1 -7.45 -4.05 M-5.15 -1.1 L-5.45 -1.3 -4.85 -1.45 -5.15 -1.1 M-0.5 0.75 L0.3 0.95 1.85 2.9 2.6 3.45 4.05 3.8 4.35 3.45 3.9 3.45 Q2.55 3.45 2.0 2.25 1.35 0.85 0.05 0.05 L-0.45 0.05 -0.7 0.35 -0.5 0.75 M11.25 1.85 L11.1 1.85 10.8 3.1 11.6 2.1 11.55 1.95 11.25 1.85 M9.3 3.0 L8.3 2.75 8.05 3.25 8.5 3.5 Q9.1 3.75 9.55 3.5 L9.3 3.0" fill="#01653f" fill-rule="evenodd" stroke="none"/>
    <path d="M-11.3 -5.55 L-11.3 -5.6 -11.2 -6.0 -10.8 -7.2 -10.7 -7.35 -10.2 -7.2 -10.2 -7.15 Q-10.9 -7.3 -10.95 -6.55 -11.0 -6.1 -10.65 -5.8 L-11.05 -5.75 -11.3 -5.6 -11.3 -5.55 M-10.1 -7.0 L-9.9 -6.8 -9.8 -6.35 -9.9 -6.2 -9.85 -6.0 -10.35 -5.85 Q-10.7 -6.25 -10.65 -6.7 L-10.65 -6.85 -10.1 -7.0 M-0.85 -5.55 L-0.25 -5.75 0.05 -6.15 0.05 -6.35 0.1 -7.0 -0.2 -7.8 0.05 -7.9 0.65 -7.6 0.8 -7.8 0.5 -8.1 3.45 -8.55 3.55 -8.45 3.85 -8.15 4.3 -7.85 Q5.05 -7.4 5.85 -7.3 L6.2 -7.4 6.05 -7.15 6.65 -7.0 6.95 -6.4 6.9 -5.7 5.7 -3.5 4.2 -5.45 3.9 -5.5 2.15 -8.0 3.65 -5.6 3.6 -5.45 3.9 -4.95 4.25 -3.3 3.3 -3.3 Q1.7 -3.35 0.3 -4.05 L0.4 -5.15 Q-0.8 -4.3 -0.9 -2.8 L-0.9 -2.5 -0.6 -2.1 -1.05 -2.2 Q-1.7 -3.3 -1.15 -4.4 L-0.95 -4.65 -0.95 -4.95 -0.85 -5.55 M5.95 -7.0 L5.9 -7.0 Q4.3 -7.3 3.0 -8.2 L2.9 -8.15 Q3.9 -6.9 5.45 -6.85 5.85 -6.85 5.95 -7.0 M4.8 -2.75 L5.45 -2.7 6.2 -1.7 6.1 -1.55 3.2 -1.65 2.55 -1.55 4.7 -1.4 4.85 -1.5 6.0 -1.4 Q7.05 -1.1 7.3 -0.1 L7.05 -0.15 Q5.2 -0.05 3.4 -0.2 L2.95 -0.05 2.7 0.25 3.1 0.15 3.3 0.1 6.2 0.1 5.1 0.35 5.25 0.5 7.6 0.75 8.1 0.45 7.85 0.2 9.2 1.2 9.5 1.5 8.4 1.45 6.55 1.35 Q5.3 1.1 4.1 1.35 L4.6 1.45 5.7 1.5 6.75 1.75 8.65 1.7 Q9.25 1.8 9.75 2.25 L10.05 2.3 10.15 1.95 9.9 1.5 10.35 -0.25 10.5 -0.4 10.65 -0.25 11.8 1.3 11.4 1.4 11.25 1.35 10.3 2.6 7.85 2.75 7.8 3.1 7.4 3.1 7.25 2.9 4.55 2.35 3.85 2.1 2.75 1.15 1.15 -0.65 0.95 -1.0 1.0 -1.55 1.75 -1.85 3.15 -2.0 Q4.15 -1.9 4.8 -2.75 M0.95 -6.9 L0.75 -7.2 0.65 -6.05 0.35 -5.5 0.55 -5.5 Q1.05 -6.1 0.95 -6.9 M3.45 -4.35 L3.3 -4.55 Q2.65 -5.2 1.7 -5.0 L1.55 -4.7 1.95 -4.05 3.2 -4.0 3.45 -4.35 M3.2 -1.05 L4.0 -0.75 6.15 -0.6 6.25 -0.95 5.5 -1.15 3.2 -1.3 3.2 -1.05 M7.75 -4.95 L8.7 -4.15 Q9.35 -3.4 8.95 -2.6 L8.95 -2.4 Q8.6 -1.2 7.8 -0.35 L7.6 -0.4 7.0 -1.2 Q6.65 -1.9 7.1 -2.55 L8.2 -3.75 8.2 -3.95 7.85 -3.7 7.45 -3.2 6.5 -1.85 5.65 -2.8 5.75 -3.05 5.75 -3.15 Q7.1 -3.65 7.75 -4.95 M8.45 -3.4 L8.2 -3.55 Q7.4 -2.75 6.9 -1.7 L6.9 -1.6 6.9 -1.55 7.15 -1.4 8.45 -3.4 M9.35 -1.9 L9.05 -1.65 8.7 -0.85 8.35 -0.05 8.65 0.1 9.55 -1.7 9.35 -1.9 M9.4 -2.25 L10.35 -0.65 9.45 1.3 8.15 0.05 9.2 -2.2 9.35 -2.25 9.4 -2.25 M-15.5 -7.6 L-15.5 -7.55 -15.55 -6.85 -15.6 -6.8 -15.7 -6.85 -15.6 -6.9 -16.2 -7.15 -15.5 -7.55 -15.5 -7.6 M-16.2 -6.5 L-15.65 -6.7 -15.65 -6.5 -16.2 -6.5 M-20.9 -9.3 L-20.9 -10.45 -20.75 -10.4 -20.2 -8.95 -20.25 -8.9 -20.1 -8.2 -20.65 -9.1 -20.7 -9.25 -20.75 -9.2 -20.9 -9.3 M-19.95 -8.0 L-19.95 -8.1 -19.8 -8.0 -19.7 -8.05 -20.1 -8.85 -19.1 -8.05 -19.15 -8.05 -19.3 -7.95 -19.35 -7.65 -19.2 -7.45 -19.45 -7.5 -19.95 -8.0 M-18.9 -7.95 L-17.5 -7.6 -17.8 -7.45 -18.85 -7.5 -19.05 -7.65 -19.2 -7.85 -18.85 -7.8 -18.9 -7.95 M-18.55 -7.05 L-18.5 -7.2 -17.85 -7.3 -17.85 -7.2 -17.85 -7.1 -17.65 -6.9 -17.85 -6.8 -18.55 -7.05 M-17.5 -6.7 L-16.9 -6.8 -17.6 -7.1 -17.65 -7.25 -17.35 -7.45 -17.2 -7.4 -17.15 -7.55 -16.05 -7.55 -16.45 -7.25 -16.4 -7.15 -16.25 -6.9 -15.9 -6.8 -16.55 -6.55 -17.5 -6.7 M-11.05 -5.45 L-10.65 -5.65 -10.5 -5.65 -10.45 -5.05 -11.05 -5.45 M-9.45 -4.3 L-9.45 -4.35 -10.1 -5.15 -10.15 -5.45 -9.85 -5.95 -9.4 -4.35 -9.45 -4.35 -9.4 -4.3 -9.45 -4.3 M-10.75 -3.65 L-10.7 -3.6 -10.75 -3.65 M11.25 0.8 L11.0 0.65 Q10.5 0.7 10.3 1.15 10.1 1.45 10.2 1.75 L10.55 1.8 11.25 0.8 M7.65 2.15 L7.85 2.4 8.45 2.5 9.0 2.4 9.25 2.15 Q9.25 2.0 9.0 1.95 L8.45 1.85 7.85 1.95 Q7.6 2.0 7.65 2.15" fill="#3e7d40" fill-rule="evenodd" stroke="none"/>
    <path d="M6.2 0.1 L7.85 0.2 8.1 0.45 7.6 0.75 5.25 0.5 5.1 0.35 6.2 0.1 M3.45 -4.35 L3.2 -4.0 1.95 -4.05 1.55 -4.7 1.7 -5.0 Q2.65 -5.2 3.3 -4.55 L3.45 -4.35 M3.2 -1.05 L3.2 -1.3 5.5 -1.15 6.25 -0.95 6.15 -0.6 4.0 -0.75 3.2 -1.05 M8.45 -3.4 L7.15 -1.4 6.9 -1.55 6.9 -1.6 6.9 -1.7 Q7.4 -2.75 8.2 -3.55 L8.45 -3.4 M9.35 -1.9 L9.55 -1.7 8.65 0.1 8.35 -0.05 8.7 -0.85 9.05 -1.65 9.35 -1.9 M11.25 0.8 L10.55 1.8 10.2 1.75 Q10.1 1.45 10.3 1.15 10.5 0.7 11.0 0.65 L11.25 0.8 M7.65 2.15 Q7.6 2.0 7.85 1.95 L8.45 1.85 9.0 1.95 Q9.25 2.0 9.25 2.15 L9.0 2.4 8.45 2.5 7.85 2.4 7.65 2.15" fill="#89c589" fill-rule="evenodd" stroke="none"/>
    <path d="M4.95 -8.1 L3.75 -8.85 5.5 -14.15 4.95 -8.1 M-6.55 -10.65 L-4.3 -9.75 -2.0 -8.9 Q-1.1 -8.6 -0.45 -7.95 L-0.2 -6.85 -1.8 -6.9 -2.9 -7.7 -6.55 -10.65 M4.75 4.0 L4.9 4.0 4.75 4.5 4.6 4.15 4.75 4.0 M8.75 5.2 L8.65 4.95 Q9.5 4.25 10.45 3.9 L10.7 3.85 10.65 4.15 10.4 4.7 10.1 4.65 9.7 5.05 9.5 5.0 9.05 5.35 8.75 5.2 M10.85 3.85 L11.45 3.85 11.15 4.75 10.85 3.85 M5.25 4.25 L5.35 4.15 5.5 4.25 5.55 4.5 5.5 4.8 5.35 4.9 5.25 4.8 5.2 4.5 Q5.15 4.35 5.25 4.25 M5.85 4.45 L6.4 4.7 6.15 5.35 5.85 4.45 M7.6 5.1 L7.45 6.0 7.0 4.9 7.6 5.1" fill="#ffffff" fill-rule="evenodd" stroke="none"/>
    <path d="M5.5 -14.15 L5.65 -14.7 5.95 -13.85 5.5 -8.1 5.2 -7.95 4.95 -8.1 5.5 -14.15 M-6.15 -9.7 L-6.75 -10.45 -6.75 -10.7 -6.55 -10.65 -2.9 -7.7 -1.8 -6.9 -0.2 -6.85 Q-0.5 -5.95 -1.45 -6.0 -2.1 -6.1 -2.6 -6.5 L-3.7 -7.55 -3.85 -7.5 -6.15 -9.7" fill="#cccccc" fill-rule="evenodd" stroke="none"/>
    <path d="M4.2 -2.75 L3.9 -2.65 1.3 -2.4 0.35 -3.4 4.2 -2.75 M7.35 -5.2 L7.05 -4.4 6.25 -3.65 6.4 -3.9 Q6.95 -4.7 7.15 -5.65 L7.35 -5.2" fill="#ff3399" fill-rule="evenodd" stroke="none"/>
  </g>
</svg>
