<?xml version="1.0" encoding="UTF-8" standalone="no"?>
<svg xmlns:ffdec="https://www.free-decompiler.com/flash" xmlns:xlink="http://www.w3.org/1999/xlink" ffdec:objectType="shape" height="11.7px" width="18.75px" xmlns="http://www.w3.org/2000/svg">
  <g transform="matrix(1.0, 0.0, 0.0, 1.0, 10.9, 8.2)">
    <path d="M7.55 -8.2 L7.75 -7.95 7.85 -7.7 7.85 -7.1 7.45 -6.65 Q7.7 -5.8 7.05 -4.95 L6.6 -4.45 6.7 -3.65 5.9 -2.9 5.55 -2.05 5.0 -1.4 4.9 -0.85 4.85 -0.75 4.85 -0.4 Q4.85 1.2 3.7 2.35 2.55 3.5 0.95 3.5 -0.65 3.5 -1.8 2.35 L-2.55 1.3 -3.0 1.3 -3.4 1.3 -3.75 0.95 Q-4.1 1.45 -4.9 1.45 L-5.35 0.55 -6.85 0.85 -7.2 0.45 -7.6 0.4 -8.35 0.2 Q-8.6 -0.45 -8.25 -1.15 -9.75 -1.2 -10.9 -2.05 -8.35 -3.35 -5.5 -3.9 L-2.6 -2.15 -2.55 -2.1 -1.8 -3.15 Q-0.65 -4.3 0.95 -4.3 2.25 -4.3 3.3 -3.5 L3.35 -3.5 3.35 -3.4 3.35 -3.45 Q3.45 -4.9 4.0 -6.25 L4.3 -7.0 7.0 -8.0 7.55 -8.2" fill="#ffffff" fill-rule="evenodd" stroke="none"/>
  </g>
</svg>
