<?xml version="1.0" encoding="UTF-8" standalone="no"?>
<svg xmlns:ffdec="https://www.free-decompiler.com/flash" xmlns:xlink="http://www.w3.org/1999/xlink" ffdec:objectType="shape" height="9.9px" width="15.85px" xmlns="http://www.w3.org/2000/svg">
  <g transform="matrix(1.0, 0.0, 0.0, 1.0, 9.65, 8.4)">
    <path d="M5.6 -6.65 L5.35 -8.0 5.3 -7.9 5.0 -7.25 4.75 -6.85 4.35 -6.3 3.9 -5.8 3.7 -5.5 3.55 -5.3 3.55 -5.25 3.65 -5.2 3.75 -5.2 3.85 -5.35 4.55 -6.15 4.95 -6.5 5.05 -6.55 5.1 -6.5 5.25 -6.2 5.3 -6.0 5.8 -4.75 5.85 -4.75 5.9 -4.8 6.0 -4.85 5.9 -5.65 5.7 -6.5 5.6 -6.65 M5.7 -8.0 L6.1 -6.55 6.15 -5.6 6.2 -4.3 6.2 -3.2 6.15 -3.2 5.5 -4.7 5.35 -5.05 4.9 -6.15 4.85 -6.2 3.65 -4.5 3.5 -4.25 3.25 -3.75 2.95 -3.0 2.7 -2.3 2.6 -1.95 2.4 -1.45 1.45 0.35 1.4 0.4 0.75 1.15 0.7 1.25 0.6 1.3 0.45 1.35 -0.05 1.5 -0.35 1.45 -0.45 1.45 -1.0 1.2 -1.15 1.1 -1.35 0.9 -1.65 0.5 -1.7 0.45 -3.15 -3.1 -4.7 -3.15 -5.65 -3.35 -5.95 -3.15 -6.3 -2.55 -6.8 -1.55 -7.7 0.3 -7.85 0.8 -7.9 1.0 -8.6 -1.5 -9.25 -3.65 -9.55 -4.7 -9.6 -5.25 -9.65 -5.5 -8.8 -5.25 -7.9 -4.95 -7.45 -4.8 -7.0 -4.65 -5.15 -4.2 -3.25 -4.15 -2.65 -4.65 -2.05 -4.75 -0.15 -4.95 1.0 -5.25 1.55 -5.4 2.05 -5.55 2.7 -5.85 3.35 -6.3 3.75 -6.15 Q4.7 -6.95 5.15 -8.1 L5.25 -8.15 5.25 -8.25 5.4 -8.4 5.6 -8.1 5.65 -8.05 5.7 -8.0 M1.75 -1.95 L2.0 -3.1 2.15 -3.4 2.2 -3.5 2.15 -2.4 2.2 -2.2 2.25 -2.15 2.4 -2.2 2.65 -2.95 3.2 -4.5 3.4 -5.1 3.5 -5.55 3.45 -5.65 3.4 -5.75 3.3 -5.85 3.15 -5.8 2.9 -5.65 2.45 -5.4 1.2 -4.95 0.0 -4.6 -1.15 -4.35 -2.2 -4.3 -2.5 -4.15 -2.65 -3.75 -2.5 -3.3 -2.05 -2.15 -2.0 -1.9 -1.9 -1.4 -1.5 -0.15 -0.9 0.8 -0.5 1.1 0.45 1.05 0.85 0.65 Q1.6 0.0 1.75 -1.3 L1.75 -1.95 M-6.3 -3.1 L-6.05 -3.55 -5.9 -3.55 -5.85 -3.6 -5.8 -3.6 -5.75 -3.65 -3.25 -3.35 -3.6 -3.7 -6.3 -4.0 -8.2 -4.6 -8.75 -4.8 -9.25 -5.1 -9.35 -5.05 -8.85 -3.25 -8.75 -2.95 -8.55 -2.15 -8.35 -1.6 -8.05 -0.2 -7.85 -0.05 -7.8 -0.05 -7.65 -0.35 -7.6 -0.35 -6.75 -2.15 -6.35 -2.95 -6.3 -3.1" fill="#1d3d30" fill-rule="evenodd" stroke="none"/>
    <path d="M5.25 -6.2 L5.1 -6.5 5.05 -6.55 4.95 -6.5 4.55 -6.15 3.85 -5.35 3.75 -5.2 3.65 -5.2 3.55 -5.25 3.55 -5.3 3.7 -5.5 3.9 -5.8 4.35 -6.3 4.75 -6.85 5.0 -7.25 5.3 -7.9 5.35 -8.0 5.6 -6.65 5.55 -6.65 5.45 -6.6 5.4 -6.3 5.25 -6.2 M-2.05 -2.15 L-2.5 -3.3 -2.65 -3.75 -2.5 -4.15 -2.2 -4.3 -1.15 -4.35 0.0 -4.6 1.2 -4.95 2.45 -5.4 2.9 -5.65 3.15 -5.8 3.3 -5.85 3.4 -5.75 3.45 -5.65 3.5 -5.55 3.4 -5.1 3.2 -4.5 2.65 -2.95 2.4 -2.2 2.25 -2.15 2.2 -2.2 2.15 -2.4 2.2 -3.5 2.15 -3.4 2.0 -3.1 1.75 -1.95 1.5 -2.25 1.4 -2.2 Q1.15 -1.9 1.25 -1.55 L1.45 -1.5 1.5 -1.4 1.3 -1.0 1.0 -1.0 Q0.55 -0.75 0.55 -0.2 L0.2 -0.05 0.25 -0.4 -0.35 -0.85 -0.75 -0.45 -0.75 0.05 -1.1 -0.15 -1.25 -0.45 -1.2 -0.6 Q-1.1 -0.8 -1.15 -1.0 -1.2 -1.15 -1.4 -1.15 L-1.5 -1.15 -1.75 -1.8 -2.0 -2.25 -2.05 -2.15 M-6.3 -3.1 L-6.35 -3.25 -6.35 -3.3 -6.65 -3.45 -6.75 -3.45 -6.85 -3.35 Q-7.2 -3.15 -7.05 -2.75 L-7.5 -2.1 -7.7 -2.0 -7.75 -1.8 -7.8 -1.95 -7.8 -2.0 -8.05 -2.15 -8.15 -2.05 -8.5 -2.75 -8.75 -2.95 -8.85 -3.25 -9.35 -5.05 -9.25 -5.1 -8.75 -4.8 -8.2 -4.6 -6.3 -4.0 -3.6 -3.7 -3.25 -3.35 -5.75 -3.65 -5.8 -3.6 -5.85 -3.6 -5.9 -3.55 -6.05 -3.55 -6.3 -3.1 M0.8 -2.35 Q0.75 -2.15 0.95 -2.05 L1.0 -2.05 1.2 -2.15 1.15 -2.45 1.0 -2.55 0.8 -2.35 M0.45 -1.65 L0.25 -1.6 0.0 -1.25 0.0 -0.9 0.3 -0.7 0.6 -1.1 0.7 -1.4 0.6 -1.6 0.45 -1.65 M-6.75 -2.15 L-6.65 -2.45 -6.35 -2.95 -6.75 -2.15 M-8.0 -3.2 L-8.1 -3.1 -8.15 -2.65 -8.1 -2.5 -7.9 -2.25 Q-7.65 -2.3 -7.55 -2.5 L-7.6 -2.6 -7.55 -3.0 -7.6 -3.2 Q-7.65 -3.35 -7.8 -3.3 L-8.0 -3.2 M-8.4 -3.9 L-8.45 -3.85 -8.55 -3.75 Q-8.65 -3.45 -8.4 -3.25 L-8.25 -3.3 -8.2 -3.75 -8.4 -3.9 M-0.65 -0.85 L-0.4 -1.1 -0.4 -1.4 -0.65 -1.6 -0.95 -1.45 -1.1 -1.15 -0.95 -0.85 -0.65 -0.85 M-0.95 -1.8 L-0.95 -1.85 -1.05 -2.15 -1.05 -2.25 -1.2 -2.45 -1.35 -2.35 Q-1.4 -1.95 -1.05 -1.75 L-0.95 -1.8" fill="#637663" fill-rule="evenodd" stroke="none"/>
    <path d="M5.25 -6.2 L5.4 -6.3 5.45 -6.6 5.55 -6.65 5.6 -6.65 5.7 -6.5 5.9 -5.65 6.0 -4.85 5.9 -4.8 5.85 -4.75 5.8 -4.75 5.3 -6.0 5.25 -6.2 M1.75 -1.95 L1.75 -1.3 Q1.6 0.0 0.85 0.65 L0.45 1.05 -0.5 1.1 -0.9 0.8 -1.5 -0.15 -1.9 -1.4 -2.0 -1.9 -2.05 -2.15 -2.0 -2.25 -1.75 -1.8 -1.5 -1.15 -1.4 -1.15 Q-1.2 -1.15 -1.15 -1.0 -1.1 -0.8 -1.2 -0.6 L-1.25 -0.45 -1.1 -0.15 -0.75 0.05 -0.75 -0.45 -0.35 -0.85 0.25 -0.4 0.2 -0.05 0.55 -0.2 Q0.55 -0.75 1.0 -1.0 L1.3 -1.0 1.5 -1.4 1.45 -1.5 1.25 -1.55 Q1.15 -1.9 1.4 -2.2 L1.5 -2.25 1.75 -1.95 M0.45 -1.65 L0.6 -1.6 0.7 -1.4 0.6 -1.1 0.3 -0.7 0.0 -0.9 0.0 -1.25 0.25 -1.6 0.45 -1.65 M0.8 -2.35 L1.0 -2.55 1.15 -2.45 1.2 -2.15 1.0 -2.05 0.95 -2.05 Q0.75 -2.15 0.8 -2.35 M-8.75 -2.95 L-8.5 -2.75 -8.15 -2.05 -8.05 -2.15 -7.8 -2.0 -7.8 -1.95 -7.75 -1.8 -7.7 -2.0 -7.5 -2.1 -7.05 -2.75 Q-7.2 -3.15 -6.85 -3.35 L-6.75 -3.45 -6.65 -3.45 -6.35 -3.3 -6.35 -3.25 -6.3 -3.1 -6.35 -2.95 -6.65 -2.45 -6.75 -2.15 -7.6 -0.35 -7.65 -0.35 -7.8 -0.05 -7.85 -0.05 -8.05 -0.2 -8.35 -1.6 -8.55 -2.15 -8.75 -2.95 M-8.4 -3.9 L-8.2 -3.75 -8.25 -3.3 -8.4 -3.25 Q-8.65 -3.45 -8.55 -3.75 L-8.45 -3.85 -8.4 -3.9 M-8.0 -3.2 L-7.8 -3.3 Q-7.65 -3.35 -7.6 -3.2 L-7.55 -3.0 -7.6 -2.6 -7.55 -2.5 Q-7.65 -2.3 -7.9 -2.25 L-8.1 -2.5 -8.15 -2.65 -8.1 -3.1 -8.0 -3.2 M-0.95 -1.8 L-1.05 -1.75 Q-1.4 -1.95 -1.35 -2.35 L-1.2 -2.45 -1.05 -2.25 -1.05 -2.15 -0.95 -1.85 -0.95 -1.8 M-0.65 -0.85 L-0.95 -0.85 -1.1 -1.15 -0.95 -1.45 -0.65 -1.6 -0.4 -1.4 -0.4 -1.1 -0.65 -0.85" fill="#4b584b" fill-rule="evenodd" stroke="none"/>
  </g>
</svg>
