<?xml version="1.0" encoding="UTF-8" standalone="no"?>
<svg xmlns:ffdec="https://www.free-decompiler.com/flash" xmlns:xlink="http://www.w3.org/1999/xlink" ffdec:objectType="shape" height="11.35px" width="16.95px" xmlns="http://www.w3.org/2000/svg">
  <g transform="matrix(1.0, 0.0, 0.0, 1.0, 9.75, 9.8)">
    <path d="M1.7 -0.25 L1.05 1.05 Q0.55 1.55 -0.1 1.55 L-0.2 1.55 -0.25 1.55 -0.45 1.5 Q-1.25 1.3 -1.6 0.55 L-2.05 -0.4 -2.7 -1.15 -3.75 -0.9 -4.15 -0.45 -4.45 0.1 -4.15 0.85 -4.0 1.05 -4.65 0.55 -4.8 -0.1 -4.6 -0.8 -4.25 -1.3 -4.45 -1.5 -4.8 -1.45 Q-5.2 -1.45 -5.5 -1.15 L-6.1 -0.2 -6.2 0.85 -6.0 1.05 -5.8 1.25 -5.6 1.4 -6.3 0.95 -6.5 0.55 -6.6 -0.05 -6.3 -1.1 -6.1 -1.8 -6.05 -2.1 -6.25 -2.25 -6.5 -2.3 -6.8 -2.35 -7.55 -1.6 -7.85 -1.1 Q-8.3 -0.35 -8.15 0.5 L-7.9 1.05 -7.4 1.45 -8.2 0.9 -8.4 0.6 -8.55 -0.05 Q-8.7 -0.85 -8.5 -1.65 -8.2 -3.05 -7.5 -4.3 -8.7 -4.7 -9.65 -5.5 L-9.75 -5.65 -9.7 -5.8 -9.6 -5.8 Q-8.5 -5.1 -7.25 -4.6 -6.15 -6.2 -4.65 -7.45 L-2.9 -8.7 -2.9 -8.65 Q-3.7 -7.9 -4.1 -6.9 L-4.35 -5.2 -4.25 -4.8 Q-3.85 -3.95 -3.05 -3.4 L-3.0 -3.4 -2.8 -3.25 -2.75 -3.25 -2.75 -3.2 -0.05 -2.6 0.4 -2.55 Q0.8 -2.5 1.15 -2.8 L2.15 -3.75 Q3.05 -4.8 3.55 -6.15 L3.65 -6.6 Q3.7 -7.45 3.3 -8.15 2.8 -9.1 1.9 -9.6 L1.6 -9.8 Q2.6 -9.75 3.45 -9.2 L4.0 -8.85 5.05 -7.85 5.1 -9.0 5.2 -9.2 5.45 -8.4 5.45 -7.8 5.45 -7.5 6.55 -5.85 7.1 -4.45 7.15 -3.45 6.85 -2.75 6.9 -3.0 6.9 -4.15 6.65 -4.7 Q6.25 -5.15 5.65 -5.1 5.35 -4.9 5.45 -4.5 L5.6 -4.05 5.9 -3.15 5.9 -3.2 5.75 -2.1 5.6 -1.75 Q5.8 -2.5 5.5 -3.25 L5.35 -3.5 Q4.9 -4.05 4.35 -3.85 L4.15 -3.75 4.15 -2.7 4.15 -1.95 3.85 -1.3 3.75 -1.2 Q3.9 -1.85 3.65 -2.45 L3.4 -2.9 Q3.05 -2.9 2.85 -2.7 L2.45 -2.25 2.05 -1.6 2.15 -2.55 1.95 -2.2 1.3 -0.3 1.1 0.55 1.15 0.55 1.3 0.15 1.4 0.1 1.7 -0.25 M-2.1 -1.3 L-1.6 -0.05 -1.35 0.3 Q-1.0 0.7 -0.4 0.7 L-0.15 0.65 0.4 0.85 -0.55 -0.25 -1.85 -1.15 -2.0 -1.25 -2.1 -1.3" fill="#000000" fill-rule="evenodd" stroke="none"/>
    <path d="M2.05 -1.6 L1.8 -0.4 1.7 -0.25 1.4 0.1 1.3 0.15 1.15 0.55 1.1 0.55 1.3 -0.3 1.95 -2.2 2.15 -2.55 2.05 -1.6 M1.6 -0.4 L1.7 -0.45 2.0 -1.45 1.9 -1.5 1.9 -1.55 1.6 -0.4 M-2.1 -1.3 L-2.0 -1.25 -1.85 -1.15 -0.55 -0.25 0.4 0.85 -0.15 0.65 -0.4 0.7 Q-1.0 0.7 -1.35 0.3 L-1.6 -0.05 -2.1 -1.3 M-1.05 0.0 L-0.55 0.35 -0.45 0.35 -0.4 0.2 -1.5 -0.45 -1.15 -0.1 -1.05 0.0" fill="#990000" fill-rule="evenodd" stroke="none"/>
    <path d="M1.6 -0.4 L1.9 -1.55 1.9 -1.5 2.0 -1.45 1.7 -0.45 1.6 -0.4 M-1.05 0.0 L-1.15 -0.1 -1.5 -0.45 -0.4 0.2 -0.45 0.35 -0.55 0.35 -1.05 0.0" fill="#ff0000" fill-rule="evenodd" stroke="none"/>
  </g>
</svg>
