<?xml version="1.0" encoding="UTF-8" standalone="no"?>
<svg xmlns:ffdec="https://www.free-decompiler.com/flash" xmlns:xlink="http://www.w3.org/1999/xlink" ffdec:objectType="shape" height="12.45px" width="19.25px" xmlns="http://www.w3.org/2000/svg">
  <g transform="matrix(1.0, 0.0, 0.0, 1.0, 11.25, 10.7)">
    <path d="M1.0 -6.05 L2.9 -6.55 1.05 -6.0 1.0 -6.05" fill="#1c2139" fill-rule="evenodd" stroke="none"/>
    <path d="M7.55 -9.65 L8.0 -4.95 7.85 -4.75 5.7 -3.1 4.65 -0.1 Q4.3 0.85 3.4 1.25 L-1.1 1.4 -2.05 0.95 -2.05 0.7 Q-2.1 0.15 -2.3 -0.3 L-2.75 -1.0 -6.0 -1.2 Q-7.65 -1.3 -9.15 -1.95 L-9.8 -2.25 -9.8 -2.35 -9.85 -2.4 -10.95 -6.2 -11.2 -7.0 -11.2 -7.25 -10.5 -8.15 -10.15 -7.65 -8.9 -7.05 Q-6.9 -6.3 -4.7 -6.4 L0.0 -7.15 Q2.3 -7.7 4.25 -9.0 L4.5 -9.65 4.65 -10.15 4.4 -10.6 5.6 -10.7 Q6.8 -10.55 7.55 -9.65 M5.15 -7.55 L6.65 -8.9 6.8 -9.1 6.8 -9.15 7.1 -9.7 6.7 -10.0 5.85 -10.4 5.5 -10.45 4.95 -10.3 4.9 -9.7 4.9 -9.6 4.35 -8.7 4.25 -8.6 Q2.2 -7.15 -0.3 -6.75 L-1.65 -6.55 -4.85 -6.25 -10.7 -6.5 -10.6 -6.45 Q-9.25 -5.7 -7.7 -5.5 L-7.3 -5.45 -8.05 -5.4 Q-5.85 -5.15 -3.65 -5.35 L1.0 -6.05 1.05 -6.0 -3.3 -5.15 -5.75 -5.05 -5.2 -1.5 -2.45 -1.55 -0.8 -1.7 0.4 -4.5 0.55 -4.65 1.2 -4.5 1.25 -4.45 1.3 -4.6 2.05 -4.75 Q3.4 -5.0 4.45 -5.65 L4.6 -5.55 5.8 -3.65 7.2 -4.6 7.65 -5.0 7.65 -5.1 7.55 -5.05 7.5 -5.1 7.3 -5.3 7.3 -5.35 7.5 -5.6 7.6 -5.6 7.35 -9.0 7.3 -9.5 6.95 -9.05 5.95 -7.95 5.15 -7.55 M2.9 -6.55 L2.95 -6.6 3.0 -6.6 3.05 -6.6 3.3 -5.9 3.35 -5.7 2.75 -5.5 Q2.65 -6.0 2.85 -6.45 L2.9 -6.55 M7.15 -9.0 L7.2 -9.05 7.2 -9.1 7.3 -9.1 7.3 -9.05 7.35 -9.0 7.25 -8.9 7.15 -9.0 M6.7 -8.2 L6.65 -8.2 6.6 -8.3 6.65 -8.35 6.7 -8.4 6.8 -8.35 6.8 -8.3 6.8 -8.2 6.7 -8.2 M5.8 -7.7 L5.9 -7.75 6.05 -7.7 6.05 -7.6 6.05 -7.5 5.9 -7.45 5.8 -7.5 5.75 -7.6 5.8 -7.7 M5.1 -6.8 L4.95 -6.7 4.8 -6.8 4.75 -6.95 4.8 -7.1 4.95 -7.15 5.1 -7.1 5.15 -6.95 5.1 -6.8 M3.75 -6.5 L3.85 -6.55 4.0 -6.5 4.0 -6.35 4.0 -6.25 3.85 -6.2 3.75 -6.25 3.7 -6.35 3.75 -6.5 M4.35 -5.05 L4.4 -4.9 4.35 -4.75 4.2 -4.7 4.1 -4.75 Q4.0 -4.85 4.05 -4.9 L4.1 -5.05 4.2 -5.1 4.35 -5.05 M3.15 -4.8 L3.35 -4.7 3.4 -4.55 3.35 -4.35 3.15 -4.3 2.95 -4.35 2.9 -4.55 2.95 -4.7 3.15 -4.8 M3.15 -3.8 Q4.2 -3.45 3.55 -2.6 L3.5 -2.55 3.4 -0.85 2.85 -0.6 2.75 -0.55 2.75 -1.15 2.85 -2.55 Q2.25 -3.25 3.05 -3.7 L3.15 -3.8 M4.7 -4.05 L4.6 -3.95 4.45 -4.05 4.35 -4.2 4.45 -4.35 4.6 -4.45 4.7 -4.35 4.8 -4.2 4.7 -4.05 M5.0 -3.45 L5.15 -3.4 5.15 -3.3 5.15 -3.2 5.0 -3.15 4.9 -3.2 4.85 -3.3 4.9 -3.4 5.0 -3.45 M2.2 -5.65 L2.05 -5.7 1.95 -5.9 2.05 -6.05 2.2 -6.15 2.4 -6.05 2.45 -5.9 2.4 -5.7 2.2 -5.65 M0.8 -5.4 L0.7 -5.4 0.65 -5.4 0.6 -5.5 0.65 -5.6 0.7 -5.65 0.8 -5.6 0.8 -5.5 0.8 -5.4 M2.05 -4.15 L2.0 -4.0 1.85 -3.95 Q1.75 -3.95 1.75 -4.0 1.65 -4.1 1.7 -4.15 L1.75 -4.3 1.85 -4.35 2.0 -4.3 2.05 -4.15 M1.45 -3.35 L1.65 -3.25 1.45 -2.85 1.4 -2.85 1.2 -2.95 1.3 -3.25 1.4 -3.25 1.45 -3.35 M1.0 -1.75 L0.9 -1.6 0.8 -1.55 0.65 -1.6 0.6 -1.75 0.65 -1.9 0.8 -1.95 0.9 -1.9 1.0 -1.75 M0.45 -0.4 L0.95 0.7 1.05 0.7 1.3 1.25 1.45 1.15 1.35 1.05 1.55 0.8 1.8 0.95 1.7 1.15 2.4 1.0 3.85 0.45 5.45 -3.1 5.5 -3.5 4.45 -5.35 1.3 -4.35 Q0.6 -2.8 0.35 -1.2 L0.45 -0.4 M1.1 -0.85 L1.3 -0.65 1.25 -0.3 1.0 -0.3 1.0 -0.4 0.85 -0.65 1.1 -0.85 M4.3 -2.1 L4.55 -2.0 4.6 -1.9 4.45 -1.65 4.35 -1.65 4.15 -1.8 4.1 -2.0 4.3 -2.1 M3.6 -0.1 L3.75 -0.05 3.8 0.1 3.75 0.25 3.6 0.3 3.5 0.25 3.45 0.1 Q3.4 0.0 3.5 -0.05 L3.6 -0.1 M6.75 -4.85 L6.85 -4.9 7.0 -4.85 7.0 -4.75 7.0 -4.65 6.85 -4.65 6.75 -4.65 6.7 -4.75 6.75 -4.85 M6.05 -4.65 L6.2 -4.5 6.2 -4.3 6.1 -4.25 5.85 -4.5 5.95 -4.65 6.05 -4.65 M-10.15 -5.8 L-10.05 -5.85 -9.9 -5.8 -9.9 -5.7 -9.9 -5.6 -10.05 -5.55 -10.15 -5.6 -10.2 -5.7 -10.15 -5.8 M-10.65 -6.15 L-9.95 -3.3 -9.7 -2.9 -9.65 -2.95 -9.6 -3.0 -9.45 -2.9 -9.5 -2.8 -9.6 -2.75 -9.7 -2.8 Q-8.75 -2.0 -7.45 -1.75 L-5.3 -1.5 -5.8 -5.05 Q-8.15 -5.05 -10.2 -5.95 L-10.65 -6.15 M-5.15 -4.85 L-4.95 -4.75 -4.9 -4.6 -4.95 -4.4 -5.15 -4.35 -5.3 -4.4 -5.4 -4.6 -5.3 -4.75 -5.15 -4.85 M-7.35 -4.75 L-7.35 -4.7 -7.4 -4.7 -7.45 -4.7 -7.5 -4.75 -7.45 -4.75 -7.4 -4.8 -7.35 -4.75 M-6.45 -4.9 L-6.25 -4.8 -6.15 -4.6 -6.25 -4.4 Q-6.35 -4.3 -6.45 -4.3 -6.55 -4.3 -6.65 -4.4 L-6.7 -4.6 -6.65 -4.8 -6.45 -4.9 M-6.2 -3.65 L-6.25 -3.75 -6.2 -3.8 -6.15 -3.85 -6.05 -3.8 -6.05 -3.75 -6.05 -3.65 -6.15 -3.65 -6.2 -3.65 M-5.85 -3.1 L-5.8 -3.0 -5.85 -2.9 -5.95 -2.85 -6.05 -2.9 -6.15 -3.0 -6.05 -3.1 -5.95 -3.15 -5.85 -3.1 M-5.15 -3.8 L-5.0 -3.85 -4.85 -3.8 -4.8 -3.65 -4.85 -3.5 -5.0 -3.45 -5.15 -3.5 -5.2 -3.65 -5.15 -3.8 M-8.15 -5.05 L-8.1 -4.9 -8.15 -4.75 -8.3 -4.7 -8.45 -4.75 -8.5 -4.9 -8.45 -5.05 -8.3 -5.1 -8.15 -5.05 M-9.25 -5.4 L-9.1 -5.35 -9.1 -5.25 -9.1 -5.15 -9.25 -5.1 -9.35 -5.15 -9.4 -5.25 -9.35 -5.35 -9.25 -5.4 M-7.8 -2.45 L-7.7 -2.4 -7.65 -2.3 -7.7 -2.2 -7.8 -2.15 -7.9 -2.2 -8.0 -2.3 -7.9 -2.4 -7.8 -2.45 M-8.65 -2.4 L-8.8 -2.35 -8.9 -2.4 -8.95 -2.45 -8.9 -2.55 -8.8 -2.6 -8.65 -2.55 -8.65 -2.45 -8.65 -2.4 M-5.75 -2.0 L-5.65 -1.95 -5.6 -1.8 -5.65 -1.7 -5.75 -1.65 -5.85 -1.7 -5.9 -1.8 -5.85 -1.95 -5.75 -2.0 M-6.4 -2.2 L-6.4 -2.1 -6.4 -2.0 -6.55 -1.95 -6.65 -2.0 -6.7 -2.1 -6.65 -2.2 -6.55 -2.25 -6.4 -2.2 M-0.8 -5.2 L-0.8 -5.1 -0.95 -5.05 -1.05 -5.1 -1.1 -5.2 -1.05 -5.3 -0.95 -5.35 -0.8 -5.3 -0.8 -5.2 M-2.3 -4.9 L-2.35 -4.7 -2.55 -4.65 -2.7 -4.7 -2.8 -4.9 -2.7 -5.05 -2.55 -5.15 -2.35 -5.05 -2.3 -4.9 M-3.65 -4.7 L-3.8 -4.65 -3.9 -4.7 -4.0 -4.85 -3.9 -5.0 -3.8 -5.05 -3.65 -5.0 -3.6 -4.85 -3.65 -4.7 M-3.5 -2.0 L-3.5 -1.9 -3.5 -1.8 -3.65 -1.75 -3.75 -1.8 -3.8 -1.9 -3.75 -2.0 -3.65 -2.05 -3.5 -2.0 M-4.65 -2.95 L-4.6 -2.8 -4.65 -2.6 Q-4.75 -2.5 -4.85 -2.5 -5.0 -2.5 -5.05 -2.6 L-5.1 -2.8 -5.05 -2.95 -4.85 -3.05 -4.65 -2.95 M-4.55 -1.85 L-4.6 -1.7 -4.75 -1.65 -4.85 -1.7 -4.95 -1.85 -4.85 -2.0 -4.75 -2.05 -4.6 -2.0 -4.55 -1.85 M-0.75 -2.05 L-1.0 -2.3 -0.9 -2.45 -0.8 -2.45 -0.6 -2.25 -0.7 -2.1 -0.75 -2.05 M-2.25 -1.85 L-2.4 -1.8 -2.5 -1.85 -2.6 -2.0 -2.5 -2.15 -2.4 -2.2 -2.25 -2.15 -2.2 -2.0 -2.25 -1.85 M-0.6 -1.25 L-1.95 -1.0 Q-1.95 0.8 -0.15 1.2 L0.9 1.35 -0.05 -0.6 -0.15 -0.95 -0.6 -1.25" fill="#404040" fill-rule="evenodd" stroke="none"/>
    <path d="M4.25 -8.6 L4.35 -8.7 4.9 -9.6 4.9 -9.7 4.95 -10.3 5.5 -10.45 5.85 -10.4 6.7 -10.0 7.1 -9.7 6.8 -9.15 6.8 -9.1 6.65 -8.9 5.15 -7.55 3.05 -6.6 3.0 -6.6 2.95 -6.6 2.9 -6.55 1.0 -6.05 -3.65 -5.35 Q-5.85 -5.15 -8.05 -5.4 L-7.3 -5.45 -4.65 -5.8 -4.6 -5.95 -4.85 -6.25 -1.65 -6.55 Q-0.05 -6.2 1.6 -6.55 3.7 -7.0 5.3 -8.5 L4.25 -8.6 M5.95 -7.95 L6.95 -9.05 7.3 -9.5 7.35 -9.0 7.6 -5.6 7.5 -5.6 7.3 -5.35 7.3 -5.3 7.5 -5.1 7.55 -5.05 7.65 -5.1 7.65 -5.0 7.2 -4.6 Q7.25 -6.1 6.65 -7.5 L6.45 -7.9 5.95 -7.95 M4.45 -5.65 Q3.4 -5.0 2.05 -4.75 L1.3 -4.6 1.25 -4.45 1.2 -4.5 0.55 -4.65 2.3 -5.35 2.75 -5.5 3.35 -5.7 4.0 -5.85 4.45 -5.65 M7.15 -9.0 L7.25 -8.9 7.35 -9.0 7.3 -9.05 7.3 -9.1 7.2 -9.1 7.2 -9.05 7.15 -9.0 M6.7 -8.2 L6.8 -8.2 6.8 -8.3 6.8 -8.35 6.7 -8.4 6.65 -8.35 6.6 -8.3 6.65 -8.2 6.7 -8.2" fill="#cccccc" fill-rule="evenodd" stroke="none"/>
    <path d="M4.25 -8.6 L5.3 -8.5 Q3.7 -7.0 1.6 -6.55 -0.05 -6.2 -1.65 -6.55 L-0.3 -6.75 Q2.2 -7.15 4.25 -8.6 M-4.85 -6.25 L-4.6 -5.95 -4.65 -5.8 -7.3 -5.45 -7.7 -5.5 Q-9.25 -5.7 -10.6 -6.45 L-10.7 -6.5 -4.85 -6.25 M3.05 -6.6 L5.15 -7.55 5.95 -7.95 6.45 -7.9 6.65 -7.5 Q7.25 -6.1 7.2 -4.6 L5.8 -3.65 4.6 -5.55 4.45 -5.65 4.0 -5.85 3.35 -5.7 3.3 -5.9 3.05 -6.6 M0.55 -4.65 L0.4 -4.5 -0.8 -1.7 -2.45 -1.55 -5.2 -1.5 -5.75 -5.05 -3.3 -5.15 1.05 -6.0 2.9 -6.55 2.85 -6.45 Q2.65 -6.0 2.75 -5.5 L2.3 -5.35 0.55 -4.65 M5.1 -6.8 L5.15 -6.95 5.1 -7.1 4.95 -7.15 4.8 -7.1 4.75 -6.95 4.8 -6.8 4.95 -6.7 5.1 -6.8 M5.8 -7.7 L5.75 -7.6 5.8 -7.5 5.9 -7.45 6.05 -7.5 6.05 -7.6 6.05 -7.7 5.9 -7.75 5.8 -7.7 M4.35 -5.05 L4.2 -5.1 4.1 -5.05 4.05 -4.9 Q4.0 -4.85 4.1 -4.75 L4.2 -4.7 4.35 -4.75 4.4 -4.9 4.35 -5.05 M3.75 -6.5 L3.7 -6.35 3.75 -6.25 3.85 -6.2 4.0 -6.25 4.0 -6.35 4.0 -6.5 3.85 -6.55 3.75 -6.5 M3.15 -4.8 L2.95 -4.7 2.9 -4.55 2.95 -4.35 3.15 -4.3 3.35 -4.35 3.4 -4.55 3.35 -4.7 3.15 -4.8 M-2.25 -1.85 L-2.2 -2.0 -2.25 -2.15 -2.4 -2.2 -2.5 -2.15 -2.6 -2.0 -2.5 -1.85 -2.4 -1.8 -2.25 -1.85 M-0.75 -2.05 L-0.7 -2.1 -0.6 -2.25 -0.8 -2.45 -0.9 -2.45 -1.0 -2.3 -0.75 -2.05 M-4.55 -1.85 L-4.6 -2.0 -4.75 -2.05 -4.85 -2.0 -4.95 -1.85 -4.85 -1.7 -4.75 -1.65 -4.6 -1.7 -4.55 -1.85 M-4.65 -2.95 L-4.85 -3.05 -5.05 -2.95 -5.1 -2.8 -5.05 -2.6 Q-5.0 -2.5 -4.85 -2.5 -4.75 -2.5 -4.65 -2.6 L-4.6 -2.8 -4.65 -2.95 M-3.5 -2.0 L-3.65 -2.05 -3.75 -2.0 -3.8 -1.9 -3.75 -1.8 -3.65 -1.75 -3.5 -1.8 -3.5 -1.9 -3.5 -2.0 M-3.65 -4.7 L-3.6 -4.85 -3.65 -5.0 -3.8 -5.05 -3.9 -5.0 -4.0 -4.85 -3.9 -4.7 -3.8 -4.65 -3.65 -4.7 M-2.3 -4.9 L-2.35 -5.05 -2.55 -5.15 -2.7 -5.05 -2.8 -4.9 -2.7 -4.7 -2.55 -4.65 -2.35 -4.7 -2.3 -4.9 M-0.8 -5.2 L-0.8 -5.3 -0.95 -5.35 -1.05 -5.3 -1.1 -5.2 -1.05 -5.1 -0.95 -5.05 -0.8 -5.1 -0.8 -5.2 M-6.4 -2.2 L-6.55 -2.25 -6.65 -2.2 -6.7 -2.1 -6.65 -2.0 -6.55 -1.95 -6.4 -2.0 -6.4 -2.1 -6.4 -2.2 M-5.75 -2.0 L-5.85 -1.95 -5.9 -1.8 -5.85 -1.7 -5.75 -1.65 -5.65 -1.7 -5.6 -1.8 -5.65 -1.95 -5.75 -2.0 M-8.65 -2.4 L-8.65 -2.45 -8.65 -2.55 -8.8 -2.6 -8.9 -2.55 -8.95 -2.45 -8.9 -2.4 -8.8 -2.35 -8.65 -2.4 M-7.8 -2.45 L-7.9 -2.4 -8.0 -2.3 -7.9 -2.2 -7.8 -2.15 -7.7 -2.2 -7.65 -2.3 -7.7 -2.4 -7.8 -2.45 M-9.25 -5.4 L-9.35 -5.35 -9.4 -5.25 -9.35 -5.15 -9.25 -5.1 -9.1 -5.15 -9.1 -5.25 -9.1 -5.35 -9.25 -5.4 M-8.15 -5.05 L-8.3 -5.1 -8.45 -5.05 -8.5 -4.9 -8.45 -4.75 -8.3 -4.7 -8.15 -4.75 -8.1 -4.9 -8.15 -5.05 M-5.15 -3.8 L-5.2 -3.65 -5.15 -3.5 -5.0 -3.45 -4.85 -3.5 -4.8 -3.65 -4.85 -3.8 -5.0 -3.85 -5.15 -3.8 M-5.85 -3.1 L-5.95 -3.15 -6.05 -3.1 -6.15 -3.0 -6.05 -2.9 -5.95 -2.85 -5.85 -2.9 -5.8 -3.0 -5.85 -3.1 M-6.2 -3.65 L-6.15 -3.65 -6.05 -3.65 -6.05 -3.75 -6.05 -3.8 -6.15 -3.85 -6.2 -3.8 -6.25 -3.75 -6.2 -3.65 M-6.45 -4.9 L-6.65 -4.8 -6.7 -4.6 -6.65 -4.4 Q-6.55 -4.3 -6.45 -4.3 -6.35 -4.3 -6.25 -4.4 L-6.15 -4.6 -6.25 -4.8 -6.45 -4.9 M-7.35 -4.75 L-7.4 -4.8 -7.45 -4.75 -7.5 -4.75 -7.45 -4.7 -7.4 -4.7 -7.35 -4.7 -7.35 -4.75 M-5.15 -4.85 L-5.3 -4.75 -5.4 -4.6 -5.3 -4.4 -5.15 -4.35 -4.95 -4.4 -4.9 -4.6 -4.95 -4.75 -5.15 -4.85 M-10.65 -6.15 L-10.2 -5.95 Q-8.15 -5.05 -5.8 -5.05 L-5.3 -1.5 -7.45 -1.75 Q-8.75 -2.0 -9.7 -2.8 L-9.6 -2.75 -9.5 -2.8 -9.45 -2.9 -9.6 -3.0 -9.65 -2.95 -9.7 -2.9 -9.95 -3.3 -10.65 -6.15 M-10.15 -5.8 L-10.2 -5.7 -10.15 -5.6 -10.05 -5.55 -9.9 -5.6 -9.9 -5.7 -9.9 -5.8 -10.05 -5.85 -10.15 -5.8 M6.05 -4.65 L5.95 -4.65 5.85 -4.5 6.1 -4.25 6.2 -4.3 6.2 -4.5 6.05 -4.65 M6.75 -4.85 L6.7 -4.75 6.75 -4.65 6.85 -4.65 7.0 -4.65 7.0 -4.75 7.0 -4.85 6.85 -4.9 6.75 -4.85 M3.6 -0.1 L3.5 -0.05 Q3.4 0.0 3.45 0.1 L3.5 0.25 3.6 0.3 3.75 0.25 3.8 0.1 3.75 -0.05 3.6 -0.1 M4.3 -2.1 L4.1 -2.0 4.15 -1.8 4.35 -1.65 4.45 -1.65 4.6 -1.9 4.55 -2.0 4.3 -2.1 M1.1 -0.85 L0.85 -0.65 1.0 -0.4 1.0 -0.3 1.25 -0.3 1.3 -0.65 1.1 -0.85 M0.45 -0.4 L0.35 -1.2 Q0.6 -2.8 1.3 -4.35 L4.45 -5.35 5.5 -3.5 5.45 -3.1 3.85 0.45 2.4 1.0 1.7 1.15 1.8 0.95 1.55 0.8 1.35 1.05 1.45 1.15 1.3 1.25 1.05 0.7 0.95 0.7 0.45 -0.4 M1.0 -1.75 L0.9 -1.9 0.8 -1.95 0.65 -1.9 0.6 -1.75 0.65 -1.6 0.8 -1.55 0.9 -1.6 1.0 -1.75 M1.45 -3.35 L1.4 -3.25 1.3 -3.25 1.2 -2.95 1.4 -2.85 1.45 -2.85 1.65 -3.25 1.45 -3.35 M2.05 -4.15 L2.0 -4.3 1.85 -4.35 1.75 -4.3 1.7 -4.15 Q1.65 -4.1 1.75 -4.0 1.75 -3.95 1.85 -3.95 L2.0 -4.0 2.05 -4.15 M0.8 -5.4 L0.8 -5.5 0.8 -5.6 0.7 -5.65 0.65 -5.6 0.6 -5.5 0.65 -5.4 0.7 -5.4 0.8 -5.4 M2.2 -5.65 L2.4 -5.7 2.45 -5.9 2.4 -6.05 2.2 -6.15 2.05 -6.05 1.95 -5.9 2.05 -5.7 2.2 -5.65 M5.0 -3.45 L4.9 -3.4 4.85 -3.3 4.9 -3.2 5.0 -3.15 5.15 -3.2 5.15 -3.3 5.15 -3.4 5.0 -3.45 M4.7 -4.05 L4.8 -4.2 4.7 -4.35 4.6 -4.45 4.45 -4.35 4.35 -4.2 4.45 -4.05 4.6 -3.95 4.7 -4.05 M3.15 -3.8 L3.05 -3.7 Q2.25 -3.25 2.85 -2.55 L2.75 -1.15 2.75 -0.55 2.85 -0.6 3.4 -0.85 3.5 -2.55 3.55 -2.6 Q4.2 -3.45 3.15 -3.8" fill="#999999" fill-rule="evenodd" stroke="none"/>
    <path d="M-0.6 -1.25 L-0.15 -0.95 -0.05 -0.6 0.9 1.35 -0.15 1.2 Q-1.95 0.8 -1.95 -1.0 L-0.6 -1.25" fill="#666666" fill-rule="evenodd" stroke="none"/>
  </g>
</svg>
