<?xml version="1.0" encoding="UTF-8" standalone="no"?>
<svg xmlns:ffdec="https://www.free-decompiler.com/flash" xmlns:xlink="http://www.w3.org/1999/xlink" ffdec:objectType="shape" height="10.85px" width="16.25px" xmlns="http://www.w3.org/2000/svg">
  <g transform="matrix(1.0, 0.0, 0.0, 1.0, 9.85, 7.75)">
    <path d="M3.3 -3.4 L3.75 -3.55 4.95 -6.15 4.85 -6.95 5.6 -7.75 6.4 -7.1 6.25 -6.3 6.25 -6.95 5.85 -6.55 5.65 -5.7 Q5.65 -5.3 6.0 -5.6 L5.7 -4.1 Q5.55 -3.35 4.8 -2.85 L5.2 -3.65 Q5.45 -4.6 5.05 -4.3 L4.5 -3.45 3.3 -3.1 3.15 -2.7 Q3.1 -2.2 3.7 -2.35 L4.8 -2.1 4.1 -2.1 3.45 -1.6 2.2 -1.5 2.75 -1.25 3.35 -1.0 2.95 -0.4 2.8 -0.2 1.35 -0.35 1.45 0.0 Q1.5 0.5 1.1 0.35 L0.95 0.35 0.35 0.2 0.25 0.0 0.05 -0.4 -0.55 -0.35 -0.8 -0.1 -0.9 -0.6 -0.95 -0.15 -1.55 -0.75 -2.8 -0.85 Q-3.5 -1.5 -4.35 -1.9 L-4.95 -1.8 -4.4 -1.45 -5.85 -0.9 -7.35 -1.6 -7.95 -1.4 -7.55 -1.7 -6.2 -1.2 -5.65 -1.55 -5.3 -1.75 -6.15 -1.6 -7.4 -2.35 -8.8 -2.3 -9.3 -2.95 -9.65 -2.65 -9.7 -2.15 -9.35 -1.7 Q-8.9 -1.2 -8.4 -1.25 -9.25 -1.05 -9.7 -1.95 L-9.85 -2.35 Q-9.8 -3.6 -8.75 -4.3 L-8.05 -3.95 -7.8 -3.35 Q-6.05 -2.55 -4.3 -2.2 L-3.05 -1.7 -3.0 -1.5 -2.75 -2.0 -2.35 -1.95 -1.85 -2.0 -1.9 -2.45 -3.35 -2.5 Q-4.0 -3.0 -3.2 -3.35 L-2.9 -3.45 -2.2 -3.15 -1.9 -3.55 -1.9 -5.05 -1.3 -4.85 -0.8 -4.25 0.7 -4.35 1.65 -6.05 1.9 -6.05 2.05 -5.9 2.1 -5.8 2.1 -5.55 2.0 -5.6 1.3 -4.5 Q1.0 -3.9 1.0 -3.2 L1.25 -3.15 1.4 -3.4 1.6 -4.15 2.15 -3.9 3.9 -5.1 4.1 -5.15 4.05 -4.55 4.05 -4.7 Q3.1 -4.35 2.4 -3.4 2.1 -3.05 2.2 -2.8 L2.3 -2.8 3.3 -3.4 M3.85 -1.2 L3.8 -0.8 3.65 -0.95 Q3.5 -1.2 3.85 -1.2 M3.75 -0.35 L3.85 0.05 4.2 0.55 3.75 -0.05 3.75 -0.35 M3.1 0.95 L2.9 0.85 2.45 1.15 2.5 1.05 2.95 0.75 3.1 0.95 M2.3 1.25 L2.2 1.3 2.15 1.25 2.25 1.2 2.3 1.25 M0.0 2.9 L-0.05 3.1 -0.55 2.75 0.0 2.9 M-2.65 1.55 L-2.7 1.25 -2.45 0.5 -2.7 -0.05 -2.25 0.3 -2.25 0.8 -2.6 1.1 -2.65 1.55 M-0.1 -1.05 L-0.6 -0.85 -0.05 -0.9 0.35 -0.65 0.05 -1.0 Q0.35 -0.95 0.5 -1.35 0.8 -2.0 0.1 -2.1 L-0.4 -1.55 -0.1 -1.05 M0.6 -0.7 L0.55 -0.5 0.55 -0.3 0.6 0.05 0.6 -0.7 M2.25 -2.4 Q1.45 -2.0 2.25 -1.9 L2.8 -2.35 2.25 -2.4 M0.35 -3.1 L0.15 -3.45 -0.15 -3.45 Q0.0 -2.6 0.95 -2.25 L1.0 -1.45 1.1 -1.2 1.2 -1.1 1.25 -1.35 1.2 -1.7 1.2 -1.85 1.25 -2.2 1.65 -2.05 1.55 -1.05 2.0 -0.85 2.3 -1.0 1.9 -1.25 1.85 -1.95 1.35 -2.45 1.7 -3.25 1.0 -2.35 0.35 -3.1 M-1.75 -3.7 L-1.5 -3.15 -1.1 -3.1 Q-0.9 -3.2 -0.85 -3.6 L-1.6 -4.15 -1.75 -3.7 M-0.6 -2.25 L-0.4 -2.45 -1.55 -2.0 -1.65 -2.1 -1.45 -1.6 -1.0 -1.35 -1.2 -2.0 -0.6 -2.25" fill="#66ff00" fill-rule="evenodd" stroke="none"/>
    <path d="M6.25 -6.3 L6.0 -5.6 Q5.65 -5.3 5.65 -5.7 L5.85 -6.55 6.25 -6.95 6.25 -6.3 M4.8 -2.85 L3.95 -2.5 3.7 -2.35 Q3.1 -2.2 3.15 -2.7 L3.3 -3.1 4.5 -3.45 5.05 -4.3 Q5.45 -4.6 5.2 -3.65 L4.8 -2.85 M4.8 -2.1 Q5.3 -1.85 4.6 -1.35 L4.3 -1.15 3.85 -1.2 Q3.5 -1.2 3.65 -0.95 L3.8 -0.8 3.75 -0.35 3.75 -0.05 4.2 0.55 4.25 0.65 4.0 1.1 3.8 1.2 3.1 0.95 2.95 0.75 2.5 1.05 2.6 0.55 3.15 -0.4 2.95 -0.4 3.35 -1.0 2.75 -1.25 2.2 -1.5 3.45 -1.6 4.1 -2.1 4.8 -2.1 M2.2 1.3 L2.45 1.85 2.3 2.5 1.55 2.45 0.95 1.85 0.65 1.9 0.0 2.9 -0.55 2.75 -0.65 1.9 -0.65 1.75 -1.4 1.55 -1.75 1.85 -2.15 1.85 -2.6 1.6 -2.65 1.55 -2.6 1.1 -2.25 0.8 -2.25 0.3 -2.7 -0.05 -3.0 -0.4 -3.6 -0.55 -4.4 -1.45 -4.95 -1.8 -4.35 -1.9 Q-3.5 -1.5 -2.8 -0.85 L-1.55 -0.75 -0.95 -0.15 -0.95 0.0 Q-1.55 0.0 -1.15 0.65 L-0.65 1.15 Q-0.3 0.75 0.2 1.3 L0.35 1.35 -0.55 0.7 -0.8 -0.05 -0.8 -0.1 -0.55 -0.35 0.05 -0.4 0.25 0.0 0.35 0.2 0.95 0.35 1.05 0.7 Q1.25 1.0 1.1 0.35 1.5 0.5 1.45 0.0 L1.35 -0.35 2.8 -0.2 2.1 0.45 1.5 0.8 2.25 1.2 2.15 1.25 2.2 1.3 M-7.95 -1.4 L-8.4 -1.25 Q-8.9 -1.2 -9.35 -1.7 L-9.7 -2.15 -9.65 -2.65 -9.3 -2.95 -8.8 -2.3 -7.4 -2.35 -6.15 -1.6 -5.3 -1.75 -5.65 -1.55 -6.2 -1.2 -7.55 -1.7 -7.95 -1.4 M-2.75 -2.0 L-3.35 -2.5 -1.9 -2.45 -1.85 -2.0 -2.35 -1.95 -2.75 -2.0 M2.1 -5.55 L1.6 -4.15 1.4 -3.4 1.25 -3.15 1.0 -3.2 Q1.0 -3.9 1.3 -4.5 L2.0 -5.6 2.1 -5.55 M4.05 -4.55 L3.3 -3.4 2.3 -2.8 2.2 -2.8 Q2.1 -3.05 2.4 -3.4 3.1 -4.35 4.05 -4.7 L4.05 -4.55 M-0.1 -1.05 L-0.4 -1.55 0.1 -2.1 Q0.8 -2.0 0.5 -1.35 0.35 -0.95 0.05 -1.0 L-0.1 -1.05 M-1.75 -3.7 L-1.6 -4.15 -0.85 -3.6 Q-0.9 -3.2 -1.1 -3.1 L-1.5 -3.15 -1.75 -3.7" fill="#5ac701" fill-rule="evenodd" stroke="none"/>
    <path d="M0.35 -3.1 L1.0 -2.35 1.7 -3.25 1.35 -2.45 1.85 -1.95 1.9 -1.25 2.3 -1.0 2.0 -0.85 1.55 -1.05 1.65 -2.05 1.25 -2.2 1.2 -1.85 1.2 -1.7 1.25 -1.35 1.2 -1.1 1.1 -1.2 1.0 -1.45 0.95 -2.25 Q0.0 -2.6 -0.15 -3.45 L0.15 -3.45 0.35 -3.1 M2.25 -2.4 L2.8 -2.35 2.25 -1.9 Q1.45 -2.0 2.25 -2.4 M0.6 -0.7 L0.6 0.05 0.55 -0.3 0.55 -0.5 0.6 -0.7 M0.05 -1.0 L0.35 -0.65 -0.05 -0.9 -0.6 -0.85 -0.1 -1.05 0.05 -1.0 M-0.8 -0.1 L-0.8 -0.05 -0.95 0.0 -0.95 -0.15 -0.9 -0.6 -0.8 -0.1 M-0.6 -2.25 L-1.2 -2.0 -1.0 -1.35 -1.45 -1.6 -1.65 -2.1 -1.55 -2.0 -0.4 -2.45 -0.6 -2.25" fill="#ff0000" fill-rule="evenodd" stroke="none"/>
    <path d="M2.45 1.15 L2.3 1.25 2.25 1.2 1.5 0.8 2.1 0.45 2.8 -0.2 2.95 -0.4 3.15 -0.4 2.6 0.55 2.5 1.05 2.45 1.15 M1.1 0.35 Q1.25 1.0 1.05 0.7 L0.95 0.35 1.1 0.35 M-0.8 -0.05 L-0.55 0.7 0.35 1.35 0.2 1.3 Q-0.3 0.75 -0.65 1.15 L-1.15 0.65 Q-1.55 0.0 -0.95 0.0 L-0.8 -0.05" fill="#990000" fill-rule="evenodd" stroke="none"/>
  </g>
</svg>
