<?xml version="1.0" encoding="UTF-8" standalone="no"?>
<svg xmlns:ffdec="https://www.free-decompiler.com/flash" xmlns:xlink="http://www.w3.org/1999/xlink" ffdec:objectType="shape" height="9.8px" width="14.95px" xmlns="http://www.w3.org/2000/svg">
  <g transform="matrix(1.0, 0.0, 0.0, 1.0, 9.2, 8.1)">
    <path d="M5.25 -7.9 L5.2 -7.8 5.25 -7.7 5.35 -7.65 5.45 -7.7 5.5 -7.8 5.45 -7.9 5.35 -7.95 5.25 -7.9 M5.4 -8.1 L5.65 -7.95 5.75 -7.7 5.65 -7.4 5.4 -7.3 5.1 -7.4 5.0 -7.7 5.1 -7.95 5.4 -8.1 M5.3 -7.15 L5.25 -7.25 5.15 -7.3 5.0 -7.25 5.0 -7.15 5.0 -7.05 5.15 -7.0 5.25 -7.05 5.3 -7.15 M5.5 -7.0 L5.4 -6.75 Q5.3 -6.65 5.15 -6.65 L4.9 -6.75 4.8 -7.0 4.9 -7.25 5.15 -7.35 5.4 -7.25 5.5 -7.0 M4.7 -6.45 L4.6 -6.4 4.55 -6.25 4.6 -6.15 4.7 -6.1 4.8 -6.15 4.85 -6.25 4.8 -6.4 4.7 -6.45 M4.8 -6.55 L5.05 -6.45 5.15 -6.2 5.05 -5.95 4.8 -5.85 4.55 -5.95 4.45 -6.2 4.55 -6.45 4.8 -6.55 M4.4 -5.5 L4.3 -5.55 4.2 -5.5 4.15 -5.35 4.2 -5.25 4.3 -5.2 4.4 -5.25 4.45 -5.35 4.4 -5.5 M4.35 -5.6 L4.6 -5.15 4.35 -4.9 4.3 -4.9 Q4.45 -4.45 3.95 -4.35 L3.8 -4.35 Q3.45 -4.5 3.6 -4.8 3.7 -5.1 4.05 -5.05 3.9 -5.4 4.25 -5.55 L4.35 -5.6 M3.25 -4.35 L3.2 -4.25 3.25 -4.15 Q3.25 -4.1 3.35 -4.1 L3.45 -4.15 3.5 -4.25 3.45 -4.35 3.35 -4.4 3.25 -4.35 M4.0 -4.95 L3.9 -5.0 3.75 -4.95 3.7 -4.85 3.75 -4.75 3.9 -4.7 4.0 -4.75 4.05 -4.85 4.0 -4.95 M2.55 -4.15 L2.6 -4.5 2.7 -4.55 2.9 -4.3 3.05 -4.25 3.4 -4.5 3.65 -4.2 3.55 -3.85 3.3 -3.8 3.25 -3.7 3.25 -3.65 3.2 -3.45 2.9 -3.1 2.75 -3.45 1.45 -3.05 1.5 -2.45 1.35 -3.35 1.35 -3.4 1.4 -3.2 2.85 -3.55 2.9 -3.45 3.1 -3.4 3.1 -3.5 2.85 -3.8 2.9 -3.95 2.9 -4.0 2.9 -4.3 2.75 -4.4 2.6 -4.2 2.55 -4.15 M1.95 0.05 L2.0 0.3 2.4 0.4 2.35 0.5 1.95 0.85 1.85 0.85 1.9 0.75 2.05 0.65 2.15 0.7 2.2 0.65 2.25 0.55 2.3 0.5 2.15 0.35 2.05 0.4 2.0 0.35 1.95 0.05 M1.15 1.15 Q0.55 1.8 -0.25 1.65 L-0.75 1.45 Q-1.45 1.15 -1.8 0.45 -2.05 0.0 -1.85 -0.5 L-1.05 -1.7 -0.75 -1.95 -1.2 -1.2 -0.85 -0.7 0.35 0.7 0.6 0.75 0.65 0.6 0.75 0.55 0.7 0.65 Q0.65 1.1 1.15 1.15 M-0.25 -2.55 L-1.3 -2.25 -1.25 -1.95 -1.35 -1.85 -1.7 -2.15 -1.75 -2.3 -1.85 -2.4 -1.9 -2.85 -1.85 -3.1 -1.8 -3.3 -1.75 -3.3 -1.55 -3.1 -1.65 -3.2 -1.75 -3.15 -1.7 -2.85 -1.7 -2.8 Q-1.85 -2.5 -1.45 -2.35 L-1.3 -2.45 0.45 -2.9 1.1 0.35 0.9 0.4 0.85 -0.4 0.7 -1.05 0.5 -2.15 0.4 -2.7 -0.25 -2.55 M-1.45 -3.05 L-1.3 -3.05 -1.45 -3.0 -1.45 -3.05 M0.25 -3.5 L0.15 -4.6 0.4 -3.55 0.25 -3.5 M-0.2 -5.1 L-0.3 -5.2 0.1 -5.7 0.45 -5.9 0.75 -5.75 0.95 -5.8 1.1 -5.75 1.25 -5.55 1.05 -5.25 1.3 -3.85 1.25 -3.85 1.05 -4.8 1.0 -5.35 1.15 -5.5 1.0 -5.65 0.95 -5.6 0.75 -5.55 0.6 -5.65 0.25 -5.55 0.1 -5.5 -0.1 -5.35 -0.2 -5.25 -0.2 -5.1 M-7.3 -3.3 Q-7.55 -3.1 -7.75 -3.3 -8.0 -3.55 -7.7 -3.75 L-7.5 -3.9 Q-7.2 -3.75 -7.25 -3.4 L-7.3 -3.3 M-6.85 -3.4 L-6.8 -3.25 -6.6 -3.2 -6.5 -3.4 -6.6 -3.55 Q-6.3 -3.45 -6.4 -3.1 L-6.6 -2.95 Q-6.9 -3.0 -6.85 -3.25 L-6.85 -3.4 M-7.4 -3.55 L-7.35 -3.65 -7.4 -3.75 -7.5 -3.8 -7.65 -3.75 -7.7 -3.65 -7.65 -3.55 -7.5 -3.5 -7.4 -3.55 M-5.85 -3.25 L-5.6 -3.15 -5.5 -2.9 -5.6 -2.65 -5.85 -2.55 -6.05 -2.65 -6.15 -2.9 -6.05 -3.15 -5.85 -3.25 M-5.75 -3.15 L-5.9 -3.1 -5.95 -3.0 -5.9 -2.85 -5.75 -2.8 -5.65 -2.85 -5.6 -3.0 -5.65 -3.1 -5.75 -3.15 M-8.75 -4.45 Q-8.7 -4.2 -8.9 -4.1 L-8.95 -4.05 Q-9.25 -4.1 -9.2 -4.35 L-8.95 -4.65 -8.9 -4.6 -9.0 -4.45 -8.95 -4.35 Q-8.8 -4.25 -8.75 -4.45 M-7.95 -3.95 L-8.05 -3.7 -8.35 -3.6 -8.6 -3.7 -8.7 -3.95 -8.6 -4.2 -8.35 -4.35 -8.05 -4.2 -7.95 -3.95 M-8.15 -4.05 L-8.2 -4.2 -8.3 -4.25 -8.45 -4.2 -8.5 -4.05 -8.45 -3.95 -8.3 -3.9 -8.2 -3.95 -8.15 -4.05 M-5.25 -2.65 Q-5.3 -3.0 -4.95 -3.1 L-4.7 -2.85 -4.7 -2.75 -4.95 -2.45 -5.1 -2.45 -5.25 -2.65 M-2.05 -2.55 L-1.95 -2.4 -2.25 -2.0 -2.35 -1.95 Q-2.7 -2.05 -2.65 -2.35 L-2.6 -2.5 -2.25 -2.7 -2.15 -2.65 -2.3 -2.55 -2.35 -2.45 Q-2.35 -2.2 -2.1 -2.3 L-2.0 -2.4 -2.05 -2.55 M-2.85 -2.65 Q-2.7 -2.4 -2.9 -2.2 L-3.3 -2.25 -3.25 -2.75 -3.05 -2.85 -2.95 -2.75 -3.1 -2.7 -3.1 -2.5 -3.05 -2.45 Q-2.75 -2.4 -2.85 -2.65 M-3.8 -2.75 L-3.85 -2.75 -4.0 -2.7 -4.05 -2.55 -4.0 -2.4 -3.85 -2.35 -3.75 -2.4 -3.7 -2.55 -3.7 -2.65 Q-3.55 -2.5 -3.8 -2.3 L-3.9 -2.2 Q-4.2 -2.25 -4.15 -2.55 L-3.9 -2.8 -3.8 -2.75 M-4.75 -2.8 L-4.8 -2.95 -4.9 -3.0 -5.05 -2.95 -5.1 -2.8 -5.05 -2.7 -4.9 -2.65 -4.8 -2.7 -4.75 -2.8" fill="#484929" fill-rule="evenodd" stroke="none"/>
    <path d="M5.25 -7.9 L5.35 -7.95 5.45 -7.9 5.5 -7.8 5.45 -7.7 5.35 -7.65 5.25 -7.7 5.2 -7.8 5.25 -7.9 M5.3 -7.15 L5.25 -7.05 5.15 -7.0 5.0 -7.05 5.0 -7.15 5.0 -7.25 5.15 -7.3 5.25 -7.25 5.3 -7.15 M4.7 -6.45 L4.8 -6.4 4.85 -6.25 4.8 -6.15 4.7 -6.1 4.6 -6.15 4.55 -6.25 4.6 -6.4 4.7 -6.45 M4.4 -5.5 L4.45 -5.35 4.4 -5.25 4.3 -5.2 4.2 -5.25 4.15 -5.35 4.2 -5.5 4.3 -5.55 4.4 -5.5 M4.0 -4.95 L4.05 -4.85 4.0 -4.75 3.9 -4.7 3.75 -4.75 3.7 -4.85 3.75 -4.95 3.9 -5.0 4.0 -4.95 M3.25 -4.35 L3.35 -4.4 3.45 -4.35 3.5 -4.25 3.45 -4.15 3.35 -4.1 Q3.25 -4.1 3.25 -4.15 L3.2 -4.25 3.25 -4.35 M1.5 -2.45 L1.95 0.05 2.0 0.35 1.95 0.4 1.8 0.55 1.9 0.7 1.9 0.75 1.85 0.85 1.7 0.95 Q1.5 0.85 1.6 0.65 L1.65 0.6 1.65 0.55 0.85 -3.45 -1.3 -2.8 Q-1.5 -2.65 -1.65 -2.8 L-1.7 -2.8 -1.7 -2.85 -1.65 -3.05 -1.55 -3.1 -1.45 -3.05 -1.45 -3.0 -1.3 -3.05 0.25 -3.5 0.4 -3.55 0.55 -3.55 0.55 -3.65 0.6 -3.65 0.75 -3.7 0.65 -5.05 0.65 -5.15 0.45 -5.2 0.4 -5.2 0.3 -5.4 Q0.45 -5.7 0.7 -5.55 L0.75 -5.5 0.8 -5.3 1.0 -4.9 1.05 -4.8 1.25 -3.85 1.3 -3.85 2.55 -4.15 2.6 -4.2 2.75 -4.4 2.9 -4.3 2.9 -4.0 1.25 -3.6 1.3 -3.45 1.35 -3.35 1.5 -2.45 M0.95 -5.6 L1.0 -5.65 1.15 -5.5 1.0 -5.35 0.9 -5.4 0.85 -5.5 0.95 -5.6 M2.05 0.65 L2.0 0.55 2.0 0.45 2.05 0.4 2.15 0.35 2.3 0.5 2.25 0.55 2.2 0.65 2.15 0.7 2.05 0.65 M-7.4 -3.55 L-7.5 -3.5 -7.65 -3.55 -7.7 -3.65 -7.65 -3.75 -7.5 -3.8 -7.4 -3.75 -7.35 -3.65 -7.4 -3.55 M-6.6 -3.55 L-6.5 -3.4 -6.6 -3.2 -6.8 -3.25 -6.85 -3.4 -6.75 -3.5 -6.6 -3.55 M-5.75 -3.15 L-5.65 -3.1 -5.6 -3.0 -5.65 -2.85 -5.75 -2.8 -5.9 -2.85 -5.95 -3.0 -5.9 -3.1 -5.75 -3.15 M-8.75 -4.45 Q-8.8 -4.25 -8.95 -4.35 L-9.0 -4.45 -8.9 -4.6 -8.75 -4.55 -8.75 -4.45 M-8.15 -4.05 L-8.2 -3.95 -8.3 -3.9 -8.45 -3.95 -8.5 -4.05 -8.45 -4.2 -8.3 -4.25 -8.2 -4.2 -8.15 -4.05 M-2.15 -2.65 L-2.05 -2.55 -2.0 -2.4 -2.1 -2.3 Q-2.35 -2.2 -2.35 -2.45 L-2.3 -2.55 -2.15 -2.65 M-2.95 -2.75 L-2.85 -2.65 Q-2.75 -2.4 -3.05 -2.45 L-3.1 -2.5 -3.1 -2.7 -2.95 -2.75 M-3.8 -2.75 L-3.75 -2.7 -3.7 -2.65 -3.7 -2.55 -3.75 -2.4 -3.85 -2.35 -4.0 -2.4 -4.05 -2.55 -4.0 -2.7 -3.85 -2.75 -3.8 -2.75 M-4.75 -2.8 L-4.8 -2.7 -4.9 -2.65 -5.05 -2.7 -5.1 -2.8 -5.05 -2.95 -4.9 -3.0 -4.8 -2.95 -4.75 -2.8" fill="#ffffff" fill-rule="evenodd" stroke="none"/>
    <path d="M2.9 -4.0 L2.9 -3.95 2.85 -3.8 1.35 -3.4 1.35 -3.35 1.3 -3.45 2.85 -3.95 2.9 -4.0 M0.75 -5.5 L0.7 -5.55 Q0.45 -5.7 0.3 -5.4 L0.3 -5.3 0.4 -5.2 0.45 -5.2 0.6 -3.65 0.55 -3.65 0.25 -5.15 0.05 -5.35 -0.1 -5.35 0.1 -5.5 0.25 -5.55 0.6 -5.65 0.75 -5.55 0.95 -5.6 0.85 -5.5 0.75 -5.5 M1.6 1.0 L1.55 1.0 1.5 1.0 1.05 0.85 0.95 0.65 1.35 0.5 1.1 -0.8 0.65 -3.05 0.5 -3.2 -1.0 -2.8 -1.4 -2.6 -1.3 -2.45 -1.45 -2.35 Q-1.85 -2.5 -1.7 -2.8 L-1.65 -2.8 Q-1.5 -2.65 -1.3 -2.8 L0.7 -3.3 1.45 0.4 1.3 0.65 1.35 0.75 1.5 1.0 1.6 1.0 M2.05 0.4 L2.0 0.45 1.95 0.4 2.0 0.35 2.05 0.4 M-1.7 -2.85 L-1.75 -3.15 -1.65 -3.2 -1.55 -3.1 -1.65 -3.05 -1.7 -2.85" fill="#b0ba69" fill-rule="evenodd" stroke="none"/>
    <path d="M2.9 -4.0 L2.85 -3.95 1.3 -3.45 1.25 -3.6 2.9 -4.0 M0.3 -5.4 L0.4 -5.2 0.3 -5.3 0.3 -5.4 M0.45 -5.2 L0.65 -5.15 0.65 -5.05 0.75 -3.7 0.6 -3.65 0.45 -5.2 M1.0 -5.35 L1.05 -4.8 1.0 -4.9 0.8 -5.3 0.75 -5.5 0.85 -5.5 0.9 -5.4 1.0 -5.35 M1.6 1.0 L1.5 1.0 1.35 0.75 1.3 0.65 1.45 0.4 0.7 -3.3 -1.3 -2.8 0.85 -3.45 1.65 0.55 1.65 0.6 1.6 0.65 Q1.5 0.85 1.7 0.95 L1.65 1.0 1.6 1.0 M2.0 0.45 L2.0 0.55 2.05 0.65 1.9 0.75 1.9 0.7 1.8 0.55 1.95 0.4 2.0 0.45" fill="#ffff33" fill-rule="evenodd" stroke="none"/>
    <path d="M1.95 0.85 L2.0 0.95 Q1.8 1.35 1.4 1.3 L1.25 1.25 1.15 1.15 Q0.65 1.1 0.7 0.65 L0.75 0.55 0.8 0.55 0.9 0.4 1.1 0.35 0.45 -2.9 -1.3 -2.45 -1.4 -2.6 -1.0 -2.8 0.5 -3.2 0.65 -3.05 1.1 -0.8 1.35 0.5 0.95 0.65 1.05 0.85 1.5 1.0 1.55 1.0 1.6 1.0 1.65 1.0 1.7 0.95 1.85 0.85 1.95 0.85 M0.15 -4.6 L0.05 -5.05 -0.2 -5.1 -0.2 -5.25 -0.1 -5.35 0.05 -5.35 0.25 -5.15 0.55 -3.65 0.55 -3.55 0.4 -3.55 0.15 -4.6 M2.85 -3.8 L3.1 -3.5 3.1 -3.4 2.9 -3.45 2.85 -3.55 1.4 -3.2 1.35 -3.4 2.85 -3.8" fill="#000000" fill-rule="evenodd" stroke="none"/>
    <path d="M-0.75 -1.95 L-0.25 -2.55 0.4 -2.7 0.5 -2.15 0.7 -1.05 0.85 -0.4 0.9 0.4 0.8 0.55 0.75 0.55 0.65 0.6 0.6 0.75 0.35 0.7 -0.85 -0.7 -1.2 -1.2 -0.75 -1.95" fill="#6a713e" fill-rule="evenodd" stroke="none"/>
  </g>
</svg>
