<?xml version="1.0" encoding="UTF-8" standalone="no"?>
<svg xmlns:ffdec="https://www.free-decompiler.com/flash" xmlns:xlink="http://www.w3.org/1999/xlink" ffdec:objectType="shape" height="11.9px" width="33.3px" xmlns="http://www.w3.org/2000/svg">
  <g transform="matrix(1.0, 0.0, 0.0, 1.0, 19.7, 8.75)">
    <path d="M-17.5 -2.25 L-17.9 -2.35 -18.25 -2.5 -18.75 -2.8 -19.5 -3.7 Q-20.0 -4.9 -19.2 -5.8 L-18.65 -6.2 -18.2 -6.3 -17.75 -6.25 -16.85 -6.15 -16.65 -6.05 -16.45 -5.95 -16.2 -5.85 -16.25 -5.8 -16.9 -5.15 -17.35 -5.35 -17.4 -5.35 -17.95 -5.4 Q-18.6 -5.3 -18.8 -4.6 -19.0 -4.05 -18.45 -3.7 L-18.2 -3.55 -18.15 -3.55 -17.7 -3.45 -17.7 -3.1 -17.65 -2.95 -17.65 -2.8 -17.5 -2.25" fill="#ffff00" fill-rule="evenodd" stroke="none"/>
    <path d="M13.25 -1.95 L13.3 -2.0 13.3 -1.95 13.25 -1.95 M-17.7 -3.45 L-18.15 -3.55 -18.2 -3.55 -18.45 -3.7 Q-19.0 -4.05 -18.8 -4.6 -18.6 -5.3 -17.95 -5.4 L-17.4 -5.35 -17.35 -5.35 -16.9 -5.15 -17.6 -3.85 -17.65 -3.75 -17.7 -3.45" fill="#ffffff" fill-rule="evenodd" stroke="none"/>
    <path d="M-11.3 -4.75 L-11.25 -5.0 -10.95 -5.05 -10.25 -4.8 -9.95 -4.65 -9.6 -4.55 -9.55 -5.2 -9.45 -5.25 -9.25 -5.4 Q-7.75 -4.6 -5.95 -4.4 -3.7 -4.2 -1.45 -4.4 L2.35 -5.2 2.4 -5.2 3.1 -5.45 3.15 -5.5 3.2 -5.5 3.8 -5.8 4.2 -6.05 4.35 -6.15 5.05 -6.8 5.35 -7.15 5.35 -7.3 5.4 -7.3 5.4 -7.45 5.4 -7.75 5.35 -7.8 5.35 -7.9 5.3 -7.95 5.3 -8.05 5.2 -8.15 5.15 -8.55 5.1 -8.75 6.55 -8.4 Q8.4 -8.05 10.05 -7.1 L10.65 -6.6 11.8 -5.15 12.5 -4.05 13.15 -2.85 13.6 -1.7 13.5 -1.6 Q10.15 -1.0 6.85 -1.6 6.5 -1.65 6.2 -1.85 L5.7 -2.15 5.85 -4.2 5.85 -4.3 5.8 -4.35 5.7 -4.4 5.6 -4.3 5.6 -4.35 3.25 -1.35 3.15 -1.25 2.1 -0.2 1.4 0.7 3.75 -0.05 3.15 0.2 Q2.2 0.55 1.3 0.95 L0.85 1.25 0.5 1.45 0.65 1.95 0.7 2.1 0.65 2.3 -0.1 2.6 -1.3 2.85 -1.5 2.9 Q-4.0 3.3 -6.5 3.0 L-7.2 2.8 -7.4 2.7 -11.1 1.35 -11.9 0.95 -11.7 0.95 -10.9 1.25 -10.45 1.4 -10.35 1.4 -10.25 1.4 Q-10.1 1.25 -10.25 1.1 L-10.4 0.8 -10.5 0.55 -10.3 0.4 -10.2 0.6 -10.0 1.0 -9.5 1.55 -8.8 1.85 Q-9.25 1.1 -9.3 0.4 L-9.3 0.15 Q-9.35 -0.6 -9.0 -1.3 L-8.5 -1.95 Q-9.25 -0.95 -9.1 0.25 L-9.05 0.5 -8.9 1.0 -8.65 1.65 -8.15 2.15 -6.3 2.7 -4.35 2.9 -2.95 2.8 -0.2 2.5 -0.15 2.45 0.15 2.35 0.45 2.1 0.5 2.05 0.25 1.5 -0.15 1.15 Q-1.6 -0.4 -3.35 -1.6 L-3.8 -1.9 Q-4.65 -2.55 -5.65 -2.2 L-6.05 -2.0 -5.55 -2.4 -5.0 -2.5 -5.35 -2.65 -6.6 -3.0 -7.1 -2.95 -6.8 -3.1 -7.85 -3.5 -8.0 -3.45 -8.85 -3.3 -9.6 -2.65 -9.8 -2.45 -9.9 -2.75 -9.75 -2.95 -9.2 -3.35 -9.1 -3.4 -8.9 -3.5 -8.75 -3.6 -8.35 -3.7 -8.45 -3.85 -8.7 -3.9 -10.5 -4.55 -10.95 -4.75 -11.3 -4.75 M13.3 -2.0 Q12.75 -3.45 11.8 -4.7 L10.85 -5.85 Q10.05 -6.8 8.95 -7.15 L5.8 -8.35 5.45 -8.3 5.65 -7.9 5.65 -7.85 5.95 -6.4 Q6.1 -7.2 6.85 -7.45 L6.95 -7.5 7.1 -7.55 Q6.3 -7.25 5.95 -6.4 L6.05 -3.65 6.1 -3.45 6.1 -3.1 6.1 -2.9 6.2 -2.65 6.25 -2.55 Q7.15 -1.65 8.5 -1.6 L11.2 -1.55 12.2 -1.6 13.15 -1.7 13.2 -1.7 13.3 -1.9 13.3 -1.95 13.3 -2.0 M5.55 -6.95 L4.75 -6.05 3.9 -5.5 3.15 -5.2 0.45 -4.3 -3.1 -3.9 -6.8 -4.25 -8.75 -4.75 -8.8 -4.25 -7.4 -3.7 -7.35 -3.7 -6.0 -3.4 -5.1 -3.2 -6.05 -3.3 -6.6 -3.4 -6.2 -3.2 -4.4 -2.5 -4.2 -2.4 Q-2.7 -1.75 -1.55 -0.55 L-0.7 0.25 0.35 -1.1 0.0 -3.2 -1.6 -3.1 -3.35 -3.05 -4.15 -3.1 -5.1 -3.25 -4.25 -3.15 -2.9 -3.1 -1.6 -3.15 0.0 -3.3 0.15 -3.35 0.2 -3.35 0.3 -3.15 0.55 -1.15 2.05 -0.55 2.1 -0.6 3.05 -1.5 3.15 -1.55 3.2 -1.6 4.5 -3.15 4.6 -3.35 4.9 -3.75 4.95 -3.85 5.0 -3.9 5.05 -3.95 5.1 -4.05 5.75 -5.2 5.8 -5.3 5.7 -5.5 5.0 -5.1 4.7 -4.85 3.15 -4.05 1.1 -3.45 1.05 -3.45 2.0 -3.8 3.15 -4.25 4.5 -5.0 5.3 -5.55 Q5.8 -5.95 5.75 -6.6 L5.7 -6.8 5.55 -6.95 M0.1 -0.4 L-0.55 0.35 0.25 1.15 1.3 0.4 1.5 0.0 1.75 -0.45 0.55 -1.05 0.5 -0.8 0.4 -0.85 0.1 -0.4 M-16.2 -5.85 L-16.05 -5.95 -15.55 -6.1 -15.45 -6.1 -15.45 -6.0 -15.45 -4.75 -15.9 -4.1 -16.0 -3.9 -16.15 -3.4 -16.2 -2.6 -16.15 -2.35 -16.05 -2.0 -15.7 -1.3 -14.85 -0.7 -14.6 -0.25 -15.25 -0.5 -15.35 -0.55 -15.6 -0.7 -15.7 -0.75 -16.05 -1.15 -16.6 -1.25 -17.1 -1.65 -17.5 -2.25 -17.65 -2.8 -17.65 -2.95 -17.7 -3.1 -17.7 -3.45 -17.65 -3.75 -17.6 -3.85 -16.9 -5.15 -16.25 -5.8 -16.2 -5.85" fill="#525252" fill-rule="evenodd" stroke="none"/>
    <path d="M-10.05 -3.0 L-10.45 -3.35 -10.9 -3.7 -11.3 -4.75 -10.95 -4.75 -10.5 -4.55 -8.7 -3.9 Q-9.35 -3.8 -9.75 -3.3 L-9.9 -3.15 -10.05 -3.0 M-8.9 -3.5 L-9.1 -3.4 -9.2 -3.35 -8.9 -3.5" fill="#9b7857" fill-rule="evenodd" stroke="none"/>
    <path d="M-11.7 0.95 L-10.95 0.75 -10.5 0.55 -10.4 0.8 -10.25 1.1 Q-10.1 1.25 -10.25 1.4 L-10.35 1.4 -10.45 1.4 -10.9 1.25 -11.7 0.95 M-9.9 -2.75 L-10.05 -3.0 -9.9 -3.15 -9.75 -3.3 Q-9.35 -3.8 -8.7 -3.9 L-8.45 -3.85 -8.35 -3.7 -8.75 -3.6 -8.9 -3.5 -9.2 -3.35 -9.75 -2.95 -9.9 -2.75" fill="#604837" fill-rule="evenodd" stroke="none"/>
    <path d="M-9.85 -0.15 Q-9.6 -0.95 -9.7 -1.9 L-9.8 -2.45 -9.6 -2.65 -8.85 -3.3 -8.0 -3.45 -7.85 -3.5 -6.8 -3.1 -7.1 -2.95 -6.6 -3.0 -5.35 -2.65 -5.0 -2.5 -5.55 -2.4 -6.05 -2.0 -5.65 -2.2 Q-4.65 -2.55 -3.8 -1.9 L-3.35 -1.6 Q-1.6 -0.4 -0.15 1.15 L0.25 1.5 0.5 2.05 0.45 2.1 -0.4 2.1 -1.75 2.05 -2.05 2.0 -3.45 1.8 -4.85 1.65 -6.25 1.4 -6.85 1.2 -7.55 0.9 Q-8.25 0.65 -8.9 0.35 L-9.0 0.3 -9.1 0.25 Q-9.25 -0.95 -8.5 -1.95 L-9.0 -1.3 Q-9.35 -0.6 -9.3 0.15 L-9.4 0.1 -9.65 -0.05 -9.8 -0.1 -9.85 -0.15 M6.1 -3.45 L6.05 -3.65 5.95 -6.4 Q6.3 -7.25 7.1 -7.55 L6.95 -7.5 6.85 -7.45 Q6.1 -7.2 5.95 -6.4 L5.65 -7.85 5.65 -7.9 5.45 -8.3 5.8 -8.35 8.95 -7.15 Q10.05 -6.8 10.85 -5.85 L11.8 -4.7 Q12.75 -3.45 13.3 -2.0 L13.25 -1.95 12.25 -2.15 11.55 -2.2 10.25 -2.4 8.75 -2.7 7.3 -3.05 6.1 -3.45 M0.1 -0.4 L0.4 -0.85 0.5 -0.8 0.55 -1.05 1.75 -0.45 1.5 0.0 1.3 0.4 0.25 1.15 -0.55 0.35 0.1 -0.4 M5.55 -6.95 L5.7 -6.8 5.75 -6.6 Q5.8 -5.95 5.3 -5.55 L4.5 -5.0 3.15 -4.25 2.0 -3.8 1.05 -3.45 1.1 -3.45 3.15 -4.05 4.7 -4.85 5.0 -5.1 5.7 -5.5 5.8 -5.3 5.75 -5.2 5.1 -4.05 5.05 -3.95 5.0 -3.9 4.95 -3.85 4.9 -3.75 4.6 -3.35 4.5 -3.15 3.2 -1.6 3.15 -1.55 3.05 -1.5 2.1 -0.6 2.05 -0.55 0.55 -1.15 0.3 -3.15 0.2 -3.35 0.15 -3.35 0.0 -3.3 -1.6 -3.15 -2.9 -3.1 -4.25 -3.15 -5.1 -3.25 -4.15 -3.1 -3.35 -3.05 -1.6 -3.1 0.0 -3.2 0.35 -1.1 -0.7 0.25 -1.55 -0.55 Q-2.7 -1.75 -4.2 -2.4 L-4.4 -2.5 -6.2 -3.2 -6.6 -3.4 -6.05 -3.3 -5.1 -3.2 -6.0 -3.4 -7.35 -3.7 -7.4 -3.7 -8.8 -4.25 -8.75 -4.75 -6.8 -4.25 -3.1 -3.9 0.45 -4.3 3.15 -5.2 3.9 -5.5 4.75 -6.05 5.55 -6.95 M-15.45 -4.75 L-15.2 -1.95 -15.8 -2.25 -16.2 -2.6 -16.15 -3.4 -16.0 -3.9 -15.9 -4.1 -15.45 -4.75" fill="#d3d7fa" fill-rule="evenodd" stroke="none"/>
    <path d="M-10.3 0.4 L-9.85 -0.15 -9.8 -0.1 -9.65 -0.05 -9.4 0.1 -9.3 0.15 -9.3 0.4 Q-9.25 1.1 -8.8 1.85 L-9.5 1.55 -10.0 1.0 -10.2 0.6 -10.3 0.4 M6.1 -3.45 L7.3 -3.05 8.75 -2.7 10.25 -2.4 11.55 -2.2 12.25 -2.15 13.25 -1.95 13.3 -1.95 13.3 -1.9 13.2 -1.7 13.15 -1.7 12.2 -1.6 11.2 -1.55 8.5 -1.6 Q7.15 -1.65 6.25 -2.55 L6.2 -2.65 6.1 -2.9 6.1 -3.1 6.1 -3.45 M-15.2 -1.95 L-14.85 -0.7 -15.7 -1.3 -16.05 -2.0 -16.15 -2.35 -16.2 -2.6 -15.8 -2.25 -15.2 -1.95 M-9.1 0.25 L-9.0 0.3 -8.9 0.35 Q-8.25 0.65 -7.55 0.9 L-6.85 1.2 -6.25 1.4 -4.85 1.65 -3.45 1.8 -2.05 2.0 -1.75 2.05 -0.4 2.1 0.45 2.1 0.15 2.35 -0.15 2.45 -0.2 2.5 -2.95 2.8 -4.35 2.9 -6.3 2.7 -8.15 2.15 -8.65 1.65 -8.9 1.0 -9.05 0.5 -9.1 0.25" fill="#8080ce" fill-rule="evenodd" stroke="none"/>
  </g>
</svg>
