<?xml version="1.0" encoding="UTF-8" standalone="no"?>
<svg xmlns:ffdec="https://www.free-decompiler.com/flash" xmlns:xlink="http://www.w3.org/1999/xlink" ffdec:objectType="shape" height="7.25px" width="16.0px" xmlns="http://www.w3.org/2000/svg">
  <g transform="matrix(1.0, 0.0, 0.0, 1.0, 7.6, 4.25)">
    <path d="M1.55 -0.85 L1.65 -0.85 3.75 -0.75 4.25 -0.25 5.1 1.15 5.25 1.55 5.35 1.65 5.4 1.7 5.4 1.8 5.45 1.85 5.45 1.9 5.4 1.9 5.35 1.95 5.3 1.95 5.2 1.95 5.15 2.0 5.1 2.0 3.55 2.0 1.95 1.9 1.9 1.95 0.35 3.0 -0.4 2.9 -1.45 2.6 -2.6 1.9 -3.5 1.3 -4.35 0.65 Q-5.05 0.05 -5.85 -0.4 L-6.9 -1.15 -7.5 -1.7 -7.55 -1.85 -7.55 -1.95 -7.15 -2.75 -6.7 -3.8 -6.6 -3.95 -6.4 -4.25 -5.9 -3.8 -5.2 -3.2 Q-4.7 -2.8 -4.05 -2.5 L-2.85 -1.95 -1.55 -1.45 -0.35 -1.1 0.3 -1.0 1.55 -0.85 M4.8 1.15 L3.9 -0.4 3.8 -0.5 1.75 -0.6 1.15 -0.6 -0.05 -0.8 -1.2 -1.15 -2.3 -1.55 Q-3.3 -1.9 -4.2 -2.35 L-4.75 -2.65 -5.8 -3.3 -6.3 -3.65 -6.35 -3.6 -6.95 -2.2 -7.15 -1.7 -7.1 -1.65 -6.95 -1.55 -6.3 -1.05 -5.2 -0.35 -4.1 0.2 -2.9 0.7 -1.8 1.0 -0.5 1.25 0.15 1.4 1.0 1.5 1.9 1.6 4.7 1.75 4.95 1.65 4.95 1.6 4.9 1.45 4.9 1.25 4.8 1.15 M8.4 -2.05 L8.4 -0.95 8.3 -0.8 8.2 -0.8 8.05 -0.95 7.6 -1.75 8.4 -2.05 M1.65 1.85 L-1.95 1.25 -3.55 0.8 -3.5 0.85 -1.8 1.9 -0.8 2.4 0.15 2.45 0.65 2.3 1.65 1.85" fill="#57492d" fill-rule="evenodd" stroke="none"/>
    <path d="M-6.95 -2.2 L-6.35 -3.6 -6.3 -3.65 -5.8 -3.3 -4.75 -2.65 -4.2 -2.35 Q-3.3 -1.9 -2.3 -1.55 L-1.2 -1.15 -0.05 -0.8 1.15 -0.6 1.75 -0.6 3.8 -0.5 3.9 -0.4 4.8 1.15 4.4 0.85 3.15 1.0 0.8 0.65 -0.7 0.45 -1.7 0.15 -2.85 -0.25 -3.65 -0.4 -4.1 -0.6 -4.3 -0.7 Q-5.15 -1.55 -6.25 -1.75 L-6.2 -2.1 -6.5 -2.5 -6.55 -2.5 -6.95 -2.2" fill="#aca488" fill-rule="evenodd" stroke="none"/>
    <path d="M4.8 1.15 L4.9 1.25 4.9 1.45 4.95 1.6 4.95 1.65 4.7 1.75 1.9 1.6 1.0 1.5 0.15 1.4 -0.5 1.25 -1.8 1.0 -2.9 0.7 -4.1 0.2 -5.2 -0.35 -6.3 -1.05 -6.95 -1.55 -7.1 -1.65 -7.15 -1.7 -6.95 -2.2 -6.55 -2.5 -6.5 -2.5 -6.2 -2.1 -6.25 -1.75 Q-5.15 -1.55 -4.3 -0.7 L-4.1 -0.6 -3.65 -0.4 -2.85 -0.25 -1.7 0.15 -0.7 0.45 0.8 0.65 3.15 1.0 4.4 0.85 4.8 1.15 M1.65 1.85 L0.65 2.3 0.15 2.45 -0.8 2.4 -1.8 1.9 -3.5 0.85 -3.55 0.8 -1.95 1.25 1.65 1.85" fill="#796d55" fill-rule="evenodd" stroke="none"/>
  </g>
</svg>
