<?xml version="1.0" encoding="UTF-8" standalone="no"?>
<svg xmlns:ffdec="https://www.free-decompiler.com/flash" xmlns:xlink="http://www.w3.org/1999/xlink" ffdec:objectType="shape" height="10.3px" width="8.7px" xmlns="http://www.w3.org/2000/svg">
  <g transform="matrix(1.0, 0.0, 0.0, 1.0, 4.35, 5.15)">
    <path d="M3.7 2.1 L1.3 3.1 Q-0.1 2.9 -1.0 1.75 L-1.4 0.8 Q-1.65 -1.55 0.65 -2.2 2.55 -2.75 3.9 -1.65 L3.7 2.1" fill="#ffffff" fill-rule="evenodd" stroke="none"/>
    <path d="M3.7 2.1 L4.0 4.6 Q1.05 5.9 -2.0 4.15 L-3.25 3.0 Q-4.55 1.4 -4.3 -0.7 -4.1 -2.75 -2.35 -3.9 1.0 -6.15 4.35 -4.35 L3.9 -1.65 Q2.55 -2.75 0.65 -2.2 -1.65 -1.55 -1.4 0.8 L-1.0 1.75 Q-0.1 2.9 1.3 3.1 L3.7 2.1" fill="#ffff00" fill-rule="evenodd" stroke="none"/>
  </g>
</svg>
