<?xml version="1.0" encoding="UTF-8" standalone="no"?>
<svg xmlns:ffdec="https://www.free-decompiler.com/flash" xmlns:xlink="http://www.w3.org/1999/xlink" ffdec:objectType="shape" height="11.7px" width="47.7px" xmlns="http://www.w3.org/2000/svg">
  <g transform="matrix(1.0, 0.0, 0.0, 1.0, 23.85, 5.85)">
    <path d="M-16.85 -1.35 Q-17.25 -2.15 -17.1 -3.1 L-16.95 -4.05 -16.85 -4.05 -16.85 -4.0 -16.2 -3.1 -16.15 -3.2 -15.95 -3.3 -15.8 -3.3 -15.7 -3.35 -15.55 -3.4 -15.5 -3.4 -15.4 -3.4 -15.3 -3.35 Q-14.65 -2.6 -13.6 -2.45 L-11.6 -2.4 -10.05 -2.55 -9.1 -2.85 -8.75 -3.5 Q-7.5 -5.1 -5.5 -5.5 L-3.35 -5.35 -2.8 -5.05 -2.35 -4.5 -2.15 -4.3 -2.1 -4.3 -1.6 -4.4 -1.0 -4.65 -0.65 -4.8 -0.4 -5.0 -0.35 -5.05 -0.3 -5.2 0.0 -5.1 0.2 -4.9 0.3 -4.75 0.35 -4.6 0.5 -4.35 0.6 -3.9 0.65 -3.5 1.9 -3.1 5.0 -1.9 7.75 -0.7 10.1 0.65 14.45 3.2 14.85 3.45 14.9 3.5 14.95 3.65 14.95 3.7 15.0 3.7 15.05 3.7 15.2 3.75 23.8 5.5 23.85 5.55 15.15 4.55 15.0 4.5 14.95 4.5 14.55 4.75 14.5 4.8 14.05 4.85 9.35 5.6 9.05 5.65 7.5 5.85 6.4 5.85 -4.65 5.45 -4.9 5.45 -6.9 4.9 -7.2 4.7 -8.8 3.2 -9.25 2.5 -9.45 2.2 -9.6 2.05 -9.75 1.9 -9.9 1.75 -10.05 1.6 -10.25 1.45 -10.55 1.25 -10.85 1.1 -11.1 0.95 -11.35 0.8 -11.65 0.7 -11.9 0.6 -12.25 0.5 -13.25 0.3 -14.2 0.25 -14.4 0.2 -14.6 0.3 -14.65 0.35 -14.75 0.3 -15.0 0.2 -15.15 0.35 -15.5 1.7 -15.4 0.8 -15.45 -0.2 -16.05 -1.0 -16.8 -3.35 -16.9 -2.7 -16.85 -1.35 M-15.35 4.35 L-15.45 4.55 -16.55 4.45 -18.35 4.0 -19.9 3.3 -20.55 2.85 -21.45 2.05 -22.3 1.4 Q-23.4 0.5 -23.7 -0.9 -24.15 -2.85 -23.05 -4.5 L-22.45 -5.15 -21.65 -5.65 -21.5 -5.75 Q-21.05 -6.0 -21.1 -5.45 L-21.25 -3.5 -21.2 -2.1 -21.0 -0.4 -20.75 1.15 Q-20.6 2.0 -19.9 2.75 L-19.1 3.45 -16.45 3.2 -17.65 3.65 -16.85 3.95 -15.35 4.35 M0.1 -4.5 L0.05 -4.75 -0.1 -4.9 -1.6 -4.15 -1.35 -3.95 -1.1 -3.85 Q-0.3 -3.75 0.1 -4.5 M0.35 -4.25 L0.25 -4.35 -0.15 -3.75 0.4 -3.6 0.35 -4.25 M6.35 3.9 Q6.05 2.9 6.45 1.95 6.9 0.85 7.8 0.5 L8.8 0.3 8.45 0.1 Q6.7 -1.0 4.75 -1.7 L3.75 -2.05 2.4 -1.9 Q1.55 -1.6 0.8 -1.1 L0.15 -0.3 -0.4 1.45 -0.5 2.8 -0.35 3.6 -0.3 3.8 0.4 4.9 Q1.1 5.55 2.2 5.45 L6.1 5.5 6.2 5.5 7.55 5.5 6.65 4.6 6.4 4.05 6.35 3.9 M0.1 3.45 L-0.05 2.05 0.05 1.0 1.15 1.2 1.35 2.0 Q1.3 2.75 1.5 3.5 L1.5 3.65 1.55 3.75 0.35 3.9 0.1 3.45 M1.6 3.5 L1.55 3.1 Q1.4 2.1 1.7 1.35 L2.25 1.5 2.15 2.05 Q2.1 2.7 2.35 3.55 L2.35 3.6 2.3 3.85 1.8 4.0 1.6 3.5 M2.65 3.55 L2.8 1.6 4.15 1.9 4.3 3.75 4.2 3.95 Q3.75 4.35 3.55 3.65 L3.5 3.4 3.45 2.7 3.45 2.25 3.35 3.65 3.25 3.85 Q2.8 4.5 2.65 3.55 M4.4 3.75 Q4.5 2.85 4.9 2.1 L5.25 2.05 5.2 3.85 5.2 4.05 5.25 4.25 4.55 4.25 4.4 3.75 M-0.65 3.3 L-0.7 2.6 -0.6 1.2 -0.15 -0.15 0.7 -1.2 Q1.2 -1.65 1.85 -1.9 L3.15 -2.35 2.55 -2.6 0.15 -3.4 -2.2 -4.05 -4.25 -4.2 -4.9 -4.0 -6.3 -3.05 -7.4 -1.95 -7.55 -1.8 -7.9 -1.75 -8.15 -1.35 -8.15 -1.3 -8.2 -1.25 -8.5 -0.25 -8.55 -0.15 -8.6 0.25 Q-8.85 1.6 -8.25 2.85 L-7.2 4.1 -6.95 4.25 Q-5.9 4.9 -4.7 5.05 L0.55 5.4 0.1 4.9 -0.45 4.0 Q-0.45 3.55 -1.1 3.9 L-1.6 3.8 -1.7 3.2 -1.8 2.4 Q-1.9 1.55 -1.4 0.85 L-0.7 0.85 -0.8 2.2 -0.7 3.3 -0.65 3.35 -0.65 3.3 M-2.75 3.15 L-2.7 1.3 -2.6 0.8 -2.45 0.5 -2.0 0.7 -2.15 1.3 -2.1 3.2 -2.1 3.7 -2.55 3.5 -2.75 3.15 M-22.2 -5.05 Q-23.0 -4.45 -23.25 -3.3 L-23.35 -1.55 Q-23.3 -0.65 -22.75 0.05 L-22.5 0.3 -22.05 0.6 -22.55 -1.0 Q-22.8 -2.5 -22.1 -3.95 L-21.35 -5.05 -21.45 -5.4 -21.65 -5.4 -21.9 -5.25 -22.2 -5.05 M-21.3 -0.85 L-21.35 -4.3 -21.55 -4.15 -22.05 -2.95 -22.25 -1.3 -21.85 0.2 Q-21.7 0.9 -21.15 0.85 L-21.3 -0.85 M-15.5 -3.2 L-15.55 -3.15 -15.8 -3.05 -16.0 -2.7 -15.85 -2.5 -15.15 -2.1 Q-13.5 -1.45 -11.75 -1.55 L-8.7 -2.05 -9.05 -2.45 -10.85 -2.15 -13.85 -2.25 Q-14.85 -2.45 -15.5 -3.2 M-8.65 -1.9 L-11.45 -1.45 -13.1 -1.4 Q-14.8 -1.45 -16.15 -2.45 L-15.45 -0.2 -14.9 0.05 -14.4 0.05 -13.1 0.1 Q-11.8 0.25 -10.55 0.8 L-10.3 0.95 -10.15 1.05 -8.8 2.3 -8.55 2.65 -8.7 1.2 -8.6 -0.65 -8.55 -0.9 -8.25 -1.65 -8.55 -1.9 -8.65 -1.9 M-2.8 -4.45 L-2.55 -4.4 -2.7 -4.8 Q-3.45 -5.5 -4.45 -5.45 L-5.85 -5.25 Q-7.45 -4.75 -8.45 -3.5 -8.85 -3.05 -8.7 -2.5 L-8.4 -2.1 -7.7 -1.95 -6.3 -3.3 -5.2 -4.2 -3.7 -4.55 -2.8 -4.45 M14.15 4.1 L14.15 4.0 Q14.15 3.65 14.5 3.65 L14.35 3.5 14.25 3.45 10.0 0.95 9.15 0.55 8.0 0.6 7.95 0.6 7.5 0.85 Q6.35 1.65 6.4 3.05 L6.55 3.9 7.0 4.65 Q7.4 5.1 8.05 5.2 L9.5 5.25 9.55 5.25 13.95 4.55 14.4 4.45 14.15 4.1 M14.55 3.9 L14.5 3.9 14.45 3.9 14.4 4.0 14.5 4.2 14.65 4.25 14.7 4.25 14.9 4.3 15.0 4.35 15.1 4.35 22.3 5.25 15.15 3.95 14.65 3.85 14.55 3.85 14.55 3.9" fill="#000000" fill-rule="evenodd" stroke="none"/>
    <path d="M0.35 -4.25 L0.4 -3.6 -0.15 -3.75 0.25 -4.35 0.35 -4.25 M0.1 -4.5 Q-0.3 -3.75 -1.1 -3.85 L-1.35 -3.95 -1.6 -4.15 -0.1 -4.9 0.05 -4.75 0.1 -4.5 M-0.35 3.6 L-0.5 2.8 -0.4 1.45 0.15 -0.3 0.8 -1.1 Q1.55 -1.6 2.4 -1.9 L3.75 -2.05 4.75 -1.7 Q6.7 -1.0 8.45 0.1 L8.8 0.3 7.8 0.5 Q6.9 0.85 6.45 1.95 6.05 2.9 6.35 3.9 L5.6 3.8 5.2 3.85 5.25 2.05 4.9 2.1 Q4.5 2.85 4.4 3.75 L4.3 3.75 4.15 1.9 2.8 1.6 2.65 3.55 2.35 3.55 Q2.1 2.7 2.15 2.05 L2.25 1.5 1.7 1.35 Q1.4 2.1 1.55 3.1 L1.6 3.5 1.5 3.5 Q1.3 2.75 1.35 2.0 L1.15 1.2 0.05 1.0 -0.05 2.05 0.1 3.45 Q0.0 3.15 -0.35 3.45 L-0.35 3.6 M-8.2 -1.25 L-8.15 -1.3 -8.15 -1.35 -7.9 -1.75 -7.55 -1.8 -7.4 -1.95 -6.3 -3.05 -4.9 -4.0 -4.25 -4.2 -2.2 -4.05 0.15 -3.4 2.55 -2.6 3.15 -2.35 1.85 -1.9 Q1.2 -1.65 0.7 -1.2 L-0.15 -0.15 -0.6 1.2 -0.7 2.6 -0.65 3.3 -0.7 3.3 -0.8 2.2 -0.7 0.85 -1.4 0.85 Q-1.9 1.55 -1.8 2.4 L-1.7 3.2 -2.1 3.2 -2.15 1.3 -2.0 0.7 -2.45 0.5 -2.6 0.8 -2.7 1.3 -2.75 3.15 -4.65 2.7 -6.35 2.3 -7.3 2.0 -7.9 1.75 -8.0 1.65 -8.25 0.5 -8.2 -1.25 M-8.6 0.25 L-8.55 -0.15 -8.5 -0.25 -8.6 0.25 M-22.25 -1.3 L-22.05 -2.95 -21.55 -4.15 -21.35 -4.3 -21.3 -0.85 -22.25 -1.3 M-15.5 -3.2 Q-14.85 -2.45 -13.85 -2.25 L-10.85 -2.15 -9.05 -2.45 -8.7 -2.05 -11.75 -1.55 Q-13.5 -1.45 -15.15 -2.1 L-15.85 -2.5 -16.0 -2.7 -15.8 -3.05 -15.55 -3.15 -15.5 -3.2 M-10.15 1.05 L-10.3 0.95 -10.55 0.8 Q-11.8 0.25 -13.1 0.1 L-14.4 0.05 -14.9 0.05 -15.45 -0.2 -16.15 -2.45 Q-14.8 -1.45 -13.1 -1.4 L-11.45 -1.45 -8.65 -1.9 -9.35 0.55 -9.5 1.15 -10.15 1.05 M6.55 3.9 L6.4 3.05 Q6.35 1.65 7.5 0.85 L7.95 0.6 8.0 0.6 9.15 0.55 10.0 0.95 14.25 3.45 14.35 3.5 14.5 3.65 Q14.15 3.65 14.15 4.0 L14.15 4.1 11.35 4.1 8.55 4.05 6.55 3.9 M14.55 3.9 L14.55 3.85 14.65 3.85 15.15 3.95 22.3 5.25 15.1 4.35 15.0 4.35 14.9 4.3 14.7 4.25 14.65 4.25 14.5 4.2 14.4 4.0 14.45 3.9 14.5 3.9 14.55 3.9 M3.35 3.65 L3.45 2.25 3.45 2.7 3.5 3.4 3.55 3.65 3.35 3.65" fill="#ffffff" fill-rule="evenodd" stroke="none"/>
    <path d="M-21.9 -5.25 L-21.65 -5.4 -21.45 -5.4 -21.35 -5.05 -22.1 -3.95 Q-22.8 -2.5 -22.55 -1.0 L-22.05 0.6 -22.5 0.3 -22.75 0.05 Q-23.3 -0.65 -23.35 -1.55 L-23.25 -3.3 Q-23.0 -4.45 -22.2 -5.05 L-22.75 -4.25 -22.95 -3.55 -22.8 -3.3 -22.65 -3.3 -22.35 -3.7 -22.25 -4.05 -21.95 -4.5 -21.55 -5.05 -21.65 -5.3 -21.9 -5.25 M-2.7 -4.8 L-3.2 -5.05 -3.3 -5.1 -3.55 -5.25 -3.75 -5.2 -4.0 -5.35 -4.25 -5.2 -4.55 -5.35 -4.8 -5.15 -5.15 -5.3 -5.35 -5.1 -5.6 -5.15 -5.65 -5.2 -5.9 -5.1 -5.95 -4.95 -6.35 -4.9 -6.45 -4.8 -6.55 -4.55 -6.95 -4.65 -7.05 -4.6 -7.1 -4.1 -7.6 -4.15 -7.6 -3.6 -8.2 -3.6 -8.15 -3.15 -8.5 -3.1 -8.45 -2.95 -8.1 -2.8 -7.8 -2.85 -7.9 -3.35 -7.25 -3.3 -7.3 -3.85 -6.8 -3.8 -6.75 -3.8 -6.75 -4.3 -6.3 -4.15 -6.15 -4.3 -6.2 -4.6 -5.75 -4.45 -5.65 -4.5 -5.6 -4.65 -5.6 -4.75 -5.3 -4.75 Q-5.1 -4.65 -5.05 -4.9 L-4.75 -4.8 -4.5 -4.95 -4.25 -4.85 -4.0 -4.95 -3.6 -4.9 -3.2 -4.75 -2.8 -4.45 -3.7 -4.55 -5.2 -4.2 -6.3 -3.3 -7.7 -1.95 -8.4 -2.1 -8.7 -2.5 Q-8.85 -3.05 -8.45 -3.5 -7.45 -4.75 -5.85 -5.25 L-4.45 -5.45 Q-3.45 -5.5 -2.7 -4.8" fill="#666666" fill-rule="evenodd" stroke="none"/>
    <path d="M-22.2 -5.05 L-21.9 -5.25 -21.65 -5.3 -21.55 -5.05 -21.95 -4.5 -22.25 -4.05 -22.35 -3.7 -22.65 -3.3 -22.8 -3.3 -22.95 -3.55 -22.75 -4.25 -22.2 -5.05 M-2.8 -4.45 L-3.2 -4.75 -3.6 -4.9 -4.0 -4.95 -4.25 -4.85 -4.5 -4.95 -4.75 -4.8 -5.05 -4.9 Q-5.1 -4.65 -5.3 -4.75 L-5.6 -4.75 -5.6 -4.65 -5.65 -4.5 -5.75 -4.45 -6.2 -4.6 -6.15 -4.3 -6.3 -4.15 -6.75 -4.3 -6.75 -3.8 -6.8 -3.8 -7.3 -3.85 -7.25 -3.3 -7.9 -3.35 -7.8 -2.85 -8.1 -2.8 -8.45 -2.95 -8.5 -3.1 -8.15 -3.15 -8.2 -3.6 -7.6 -3.6 -7.6 -4.15 -7.1 -4.1 -7.05 -4.6 -6.95 -4.65 -6.55 -4.55 -6.45 -4.8 -6.35 -4.9 -5.95 -4.95 -5.9 -5.1 -5.65 -5.2 -5.6 -5.15 -5.35 -5.1 -5.15 -5.3 -4.8 -5.15 -4.55 -5.35 -4.25 -5.2 -4.0 -5.35 -3.75 -5.2 -3.55 -5.25 -3.3 -5.1 -3.2 -5.05 -2.7 -4.8 -2.55 -4.4 -2.8 -4.45" fill="#cccccc" fill-rule="evenodd" stroke="none"/>
    <path d="M-14.65 0.35 L-14.6 0.4 -14.6 1.15 -14.6 1.25 -14.75 2.75 -15.35 4.35 -16.85 3.95 -17.65 3.65 -16.45 3.2 Q-15.85 2.95 -15.6 2.2 L-15.55 1.95 -15.5 1.7 -15.15 0.35 -15.0 0.2 -14.75 0.3 -14.65 0.35 M-16.05 -1.0 L-16.85 -1.35 -16.9 -2.7 -16.8 -3.35 -16.05 -1.0 M-0.35 3.6 L-0.35 3.45 Q0.0 3.15 0.1 3.45 L0.35 3.9 1.55 3.75 1.5 3.65 1.5 3.5 1.6 3.5 1.8 4.0 2.3 3.85 2.35 3.6 2.35 3.55 2.65 3.55 Q2.8 4.5 3.25 3.85 L3.35 3.65 3.55 3.65 Q3.75 4.35 4.2 3.95 L4.3 3.75 4.4 3.75 4.55 4.25 5.25 4.25 5.2 4.05 5.2 3.85 5.6 3.8 6.35 3.9 6.4 4.05 6.65 4.6 7.55 5.5 6.2 5.5 6.1 5.5 2.2 5.45 Q1.1 5.55 0.4 4.9 L-0.3 3.8 -0.35 3.6 M-0.65 3.3 L-0.65 3.35 -0.7 3.3 -0.65 3.3 M-1.7 3.2 L-1.6 3.8 -1.1 3.9 Q-0.45 3.55 -0.45 4.0 L0.1 4.9 0.55 5.4 -4.7 5.05 Q-5.9 4.9 -6.95 4.25 L-7.2 4.1 -8.25 2.85 Q-8.85 1.6 -8.6 0.25 L-8.5 -0.25 -8.2 -1.25 -8.25 0.5 -8.0 1.65 -7.9 1.75 -7.3 2.0 -6.35 2.3 -4.65 2.7 -2.75 3.15 -2.55 3.5 -2.1 3.7 -2.1 3.2 -1.7 3.2 M-22.25 -1.3 L-21.3 -0.85 -21.15 0.85 Q-21.7 0.9 -21.85 0.2 L-22.25 -1.3 M-10.15 1.05 L-9.5 1.15 -9.35 0.55 -8.65 -1.9 -8.55 -1.9 -8.25 -1.65 -8.55 -0.9 -8.6 -0.65 -8.7 1.2 -8.55 2.65 -8.8 2.3 -10.15 1.05 M14.15 4.1 L14.4 4.45 13.95 4.55 9.55 5.25 9.5 5.25 8.05 5.2 Q7.4 5.1 7.0 4.65 L6.55 3.9 8.55 4.05 11.35 4.1 14.15 4.1" fill="#dbdce6" fill-rule="evenodd" stroke="none"/>
  </g>
</svg>
