<?xml version="1.0" encoding="UTF-8" standalone="no"?>
<svg xmlns:ffdec="https://www.free-decompiler.com/flash" xmlns:xlink="http://www.w3.org/1999/xlink" ffdec:objectType="shape" height="8.85px" width="17.8px" xmlns="http://www.w3.org/2000/svg">
  <g transform="matrix(1.0, 0.0, 0.0, 1.0, 8.9, 4.45)">
    <path d="M-5.05 -1.85 Q-4.5 -0.3 -2.9 0.45 1.95 2.55 7.0 2.3 L7.75 1.5 7.85 0.6 8.3 0.3 Q8.35 -1.05 7.15 -1.45 L4.55 -2.05 Q-0.35 -2.95 -5.05 -1.85 M-7.9 -2.95 Q-4.75 -4.25 -1.25 -4.4 3.9 -4.75 8.75 -3.2 L8.75 -3.05 8.6 -2.15 8.65 -1.85 8.55 -0.75 8.55 1.95 8.55 2.6 Q8.5 3.05 8.9 3.1 L8.9 4.25 Q4.8 4.75 0.9 3.65 -4.95 2.2 -8.9 -2.4 L-7.9 -2.95" fill="#ffff00" fill-rule="evenodd" stroke="none"/>
    <path d="M-5.05 -1.85 Q-0.35 -2.95 4.55 -2.05 L7.15 -1.45 Q8.35 -1.05 8.3 0.3 L7.85 0.6 7.75 1.5 7.0 2.3 Q1.95 2.55 -2.9 0.45 -4.5 -0.3 -5.05 -1.85" fill="#ffffff" fill-rule="evenodd" stroke="none"/>
  </g>
</svg>
