<?xml version="1.0" encoding="UTF-8" standalone="no"?>
<svg xmlns:ffdec="https://www.free-decompiler.com/flash" xmlns:xlink="http://www.w3.org/1999/xlink" ffdec:objectType="shape" height="17.5px" width="39.6px" xmlns="http://www.w3.org/2000/svg">
  <g transform="matrix(1.0, 0.0, 0.0, 1.0, 19.8, 8.75)">
    <path d="M-14.2 -5.45 L-13.95 -5.05 -13.7 -4.8 Q-13.25 -4.45 -12.65 -4.3 L-12.05 -4.2 -10.75 -4.1 -10.55 -4.65 -9.65 -5.05 -9.05 -4.8 -8.55 -4.4 -8.35 -4.45 -6.6 -4.9 -6.25 -5.35 Q-5.05 -6.75 -3.25 -7.25 L-0.85 -7.2 -0.25 -6.9 -0.2 -6.85 0.25 -6.4 1.05 -6.25 1.65 -6.1 1.7 -6.1 2.45 -6.3 2.95 -5.7 3.0 -5.6 4.4 -8.35 5.2 -8.75 5.65 -8.75 6.2 -8.3 6.25 -7.4 5.15 -4.8 5.25 -4.7 5.2 -4.7 8.95 -3.75 9.9 -4.3 15.95 -2.65 16.3 -2.4 15.0 -2.55 10.95 -3.65 10.6 -3.7 Q10.1 -3.75 9.75 -3.4 L9.3 -3.0 9.2 -2.85 6.05 -3.7 6.6 -2.65 10.05 -1.75 11.5 -2.8 18.25 -1.1 17.65 0.0 11.95 -1.55 11.65 -1.25 11.8 0.05 19.75 2.2 17.35 3.25 11.8 1.7 11.65 1.75 11.55 2.6 11.05 3.35 19.8 5.65 16.9 6.25 16.5 6.2 10.6 4.65 8.4 5.15 7.25 5.1 6.25 4.85 5.05 4.55 4.25 5.15 5.4 5.5 6.5 5.8 7.4 5.95 7.9 6.05 8.8 6.05 9.25 5.95 16.45 7.8 14.35 7.9 13.15 7.75 8.9 6.75 8.65 6.7 8.1 6.75 7.95 6.8 7.85 6.8 12.9 8.2 12.35 8.5 3.05 6.0 3.85 6.2 8.9 7.55 11.4 8.2 12.2 8.45 12.3 8.4 12.65 8.2 7.5 6.85 5.3 6.25 4.35 5.95 2.95 5.45 2.75 5.3 2.05 4.25 2.0 4.2 1.6 3.25 1.6 3.15 1.5 2.95 -1.75 2.05 -1.45 3.35 1.05 4.15 1.65 5.1 1.75 5.25 Q2.2 5.75 2.9 5.95 L2.1 5.75 0.1 5.45 0.1 5.5 0.5 6.0 0.65 6.65 0.65 6.8 Q0.65 7.85 -0.25 8.5 L-0.65 8.7 -0.85 8.7 -2.6 8.5 -3.95 7.7 -5.15 6.5 Q-5.6 5.85 -5.5 5.1 L-5.1 4.5 -4.8 4.35 -4.75 4.3 -4.85 4.15 -5.4 4.35 -5.9 4.5 -7.05 4.6 -6.8 3.65 -6.55 2.65 -6.55 2.5 -8.35 1.15 -8.6 1.05 -9.15 0.85 -11.0 0.35 -12.25 0.55 -12.7 0.7 -12.7 0.75 -12.85 0.7 -12.95 0.7 -13.0 0.75 -13.1 0.95 -13.75 2.7 -14.35 4.45 -14.7 5.25 -14.7 5.15 -14.75 5.1 -14.7 5.0 -14.75 4.95 -16.0 3.75 -16.5 2.75 -16.5 2.7 -17.15 2.25 -17.75 1.7 Q-20.3 -0.1 -19.7 -3.2 -19.8 -2.0 -19.3 -0.95 L-18.5 0.35 Q-16.75 2.25 -14.6 0.9 L-14.3 0.45 -14.3 0.4 -14.25 0.35 -14.2 0.25 -14.05 -0.1 Q-13.9 -0.95 -14.2 -1.85 L-14.3 -2.45 -14.9 -2.9 -15.55 -3.0 Q-15.95 -4.2 -15.45 -5.65 L-15.35 -5.4 -15.25 -5.3 -15.2 -5.25 -15.25 -5.35 -15.2 -5.45 -15.15 -5.45 -14.8 -5.1 -14.75 -5.05 -14.7 -5.0 -14.55 -5.2 -14.4 -5.35 -14.35 -5.35 -14.2 -5.45 M4.4 -5.15 L4.9 -4.9 Q5.75 -6.25 6.1 -7.8 L6.1 -8.05 5.5 -8.65 4.95 -8.55 4.65 -8.15 3.15 -5.5 3.35 -5.45 4.2 -5.2 4.4 -5.15 M2.5 -6.2 L2.45 -6.2 2.25 -6.15 2.15 -6.1 -0.6 -5.0 -0.7 -5.0 -1.0 -4.85 -1.05 -4.8 -1.5 -4.6 -1.55 -4.6 -2.15 -4.15 Q-2.3 -3.95 -1.95 -3.85 L1.1 -3.65 2.35 -4.05 2.45 -4.15 2.6 -4.25 2.65 -4.3 2.7 -4.35 3.0 -4.95 3.0 -5.05 3.0 -5.15 3.0 -5.3 2.95 -5.45 2.95 -5.55 2.55 -6.1 2.5 -6.2 M5.35 -4.35 L5.25 -4.5 5.25 -4.55 5.2 -4.6 5.15 -4.65 5.1 -4.7 4.95 -4.8 4.85 -4.85 4.4 -5.1 4.1 -5.2 3.35 -5.35 3.1 -5.4 3.1 -5.35 3.15 -5.3 Q3.25 -4.8 2.85 -4.3 L2.75 -4.15 2.45 -3.95 2.4 -3.95 Q1.25 -3.45 0.0 -3.45 -1.4 -3.5 -2.65 -4.0 L-2.1 -4.5 Q-1.8 -5.25 -1.0 -5.05 L-0.7 -5.2 -0.35 -5.55 0.35 -5.6 0.75 -5.75 0.8 -5.8 0.8 -5.85 0.9 -5.9 0.75 -5.95 0.65 -5.95 0.6 -6.0 0.55 -6.0 -0.7 -6.05 -1.05 -6.05 -1.2 -6.05 -1.95 -5.9 -2.85 -5.45 -3.95 -4.45 -5.05 -3.2 -5.2 -3.05 -5.25 -3.05 -5.4 -2.95 -5.55 -2.9 -6.05 -2.6 -5.95 -2.9 -5.9 -3.0 -6.45 -3.4 -6.6 -3.6 -6.65 -3.65 -7.35 -3.5 -6.1 -2.5 -5.5 -1.95 -6.1 -2.45 -7.45 -3.45 -7.7 -3.65 -7.9 -3.75 -7.95 -3.8 -8.15 -3.95 -8.3 -4.05 -8.55 -4.2 -8.8 -4.35 -9.4 -4.75 -9.75 -4.8 -10.55 -4.1 -10.6 -3.95 -10.6 -3.7 -10.6 -3.45 -10.5 -3.25 -10.5 -3.2 -10.25 -3.0 -10.2 -2.95 -10.1 -2.85 -5.75 0.5 -4.8 0.15 -4.55 -0.6 -4.75 -1.35 -4.3 -0.65 -4.6 0.3 -4.6 0.35 Q-5.1 0.4 -4.85 0.6 L-5.75 0.85 -6.35 0.55 -6.4 0.5 -6.6 0.35 -10.65 -2.9 -10.75 -2.95 -13.05 -3.3 -14.45 -3.9 -14.45 -3.55 -14.5 -3.25 -14.5 -3.2 Q-13.7 -2.6 -13.75 -1.65 L-13.75 -1.45 -13.75 -1.25 -13.65 -0.45 -13.4 -0.3 -13.25 -0.35 -12.95 -0.4 -12.9 -0.4 -12.85 -0.4 -12.7 -0.4 -13.05 -0.35 -13.15 -0.3 -13.2 -0.25 -13.25 -0.2 -13.3 -0.1 -13.35 -0.05 -13.35 0.1 -13.25 0.3 -13.2 0.45 -13.0 0.5 -12.6 0.4 -12.45 0.35 -12.4 0.35 -11.55 0.2 Q-9.4 0.2 -7.7 1.35 L-7.7 0.75 -7.8 0.6 -8.0 0.55 -8.85 0.25 -8.85 0.2 -8.9 0.2 -9.0 0.1 -7.2 0.55 -7.25 0.9 Q-7.35 1.45 -7.05 1.9 L-6.75 2.15 -6.7 2.2 -6.35 2.5 -6.3 2.45 -6.2 2.5 -6.15 2.55 -4.0 4.7 -4.0 4.85 -4.7 4.35 -4.9 4.5 -5.05 4.65 -5.3 5.2 -5.35 5.6 Q-5.25 6.5 -4.55 7.1 L-3.1 8.1 -1.45 8.65 Q-0.5 8.75 0.1 8.0 L0.25 7.8 0.4 7.5 0.45 7.25 0.45 7.2 0.5 7.0 0.5 6.6 0.45 6.35 0.35 6.05 0.25 5.95 -0.2 5.5 -0.65 5.15 Q-0.75 5.05 -0.8 5.05 L-1.2 4.8 -1.2 4.75 -2.5 3.6 Q-3.05 2.9 -3.0 2.0 L-2.9 1.35 Q-1.75 -0.1 -0.2 -1.05 L1.4 -1.8 3.75 -2.6 4.85 -2.95 4.9 -3.0 Q5.45 -3.4 5.4 -4.05 L5.4 -4.15 5.35 -4.3 5.35 -4.35 M0.35 -5.6 L-0.3 -5.4 -0.45 -5.3 0.35 -5.6 M1.1 -6.0 L1.0 -5.95 0.9 -5.85 0.9 -5.8 1.55 -6.0 1.5 -6.05 1.35 -6.05 1.25 -6.05 0.65 -6.25 0.45 -6.15 1.1 -6.0 M1.75 -1.85 L1.7 -1.8 1.65 -1.8 1.6 -1.8 1.45 -1.75 1.4 -1.7 1.3 -1.7 1.2 -1.65 1.15 -1.65 1.1 -1.6 -0.55 -0.75 -0.6 -0.7 -0.8 -0.55 2.2 0.15 3.75 2.65 10.35 4.45 10.35 4.35 9.5 2.25 4.4 0.65 Q3.6 -0.45 3.15 -1.7 L3.15 -1.75 2.3 -1.95 2.2 -1.95 1.8 -1.85 1.75 -1.85 M0.35 -0.2 L0.2 -0.2 -0.25 -0.3 -0.9 -0.45 -1.4 0.1 -1.5 0.2 -1.75 1.4 -1.75 1.55 -1.75 1.9 1.65 2.9 1.9 3.75 2.75 3.85 8.6 4.05 3.75 2.8 3.65 2.7 3.3 2.15 3.25 2.1 2.2 0.4 2.15 0.35 0.35 -0.2 M5.5 -3.8 L5.1 -3.0 5.05 -2.95 5.0 -2.9 5.2 -2.35 5.25 -2.3 5.85 -1.2 5.9 -1.1 11.8 0.5 11.75 0.45 11.5 -1.15 6.55 -2.55 5.5 -4.25 5.5 -3.95 5.5 -3.8 M10.0 0.15 L5.85 -1.0 5.05 -2.55 4.95 -2.7 Q4.85 -2.75 4.85 -2.75 L4.75 -2.75 2.4 -2.05 3.15 -1.9 3.2 -1.9 3.25 -1.85 Q3.55 -0.55 4.45 0.5 L4.5 0.6 8.55 1.8 8.6 1.8 8.65 1.7 8.65 1.6 8.75 1.45 Q8.85 1.1 9.1 0.9 9.55 0.4 10.2 0.6 L10.25 0.6 Q11.15 0.85 11.2 1.85 11.2 2.65 10.65 3.2 L10.6 3.2 10.6 3.25 10.2 3.4 10.1 3.4 10.15 3.55 10.2 3.75 10.4 3.65 11.05 3.15 11.4 2.5 11.55 1.8 11.5 1.7 11.5 1.5 11.35 1.05 11.1 0.7 10.75 0.4 10.35 0.25 10.0 0.15 M10.65 -3.85 L15.85 -2.5 16.15 -2.5 13.85 -3.15 12.75 -3.45 10.1 -4.15 9.85 -4.15 8.95 -3.65 5.25 -4.65 5.45 -4.45 6.0 -3.8 9.15 -3.0 9.3 -3.1 Q9.7 -3.6 10.35 -3.8 L10.65 -3.85 M17.85 -1.0 L11.65 -2.6 11.55 -2.7 10.4 -1.7 10.55 -1.65 11.55 -1.3 11.85 -1.55 11.95 -1.55 17.55 -0.2 17.95 -1.0 17.85 -1.0 M14.15 2.25 L17.3 3.1 19.3 2.2 11.8 0.2 11.85 0.35 11.9 0.65 10.9 0.4 11.35 0.9 11.6 1.65 11.8 1.65 12.55 1.8 13.25 2.0 13.85 2.2 14.15 2.25 M10.45 1.0 L10.8 1.1 Q10.65 0.85 10.25 0.75 L10.2 0.75 9.85 0.7 9.75 0.7 9.65 0.75 9.85 0.8 10.45 1.0 M10.6 1.35 L11.0 1.45 10.85 1.25 10.55 1.15 9.95 0.95 9.45 0.8 9.2 0.95 10.05 1.2 10.6 1.35 M10.65 1.4 L10.05 1.25 9.2 0.95 9.0 1.25 8.8 1.6 8.75 1.7 8.75 1.85 9.65 2.15 9.7 2.25 9.75 2.4 9.75 2.45 10.35 2.6 10.85 2.75 11.0 2.35 10.55 2.25 9.95 2.05 10.6 2.15 11.05 2.3 11.1 1.9 10.65 1.75 10.55 1.75 10.15 1.65 10.05 1.65 9.0 1.25 10.05 1.55 10.65 1.7 11.1 1.85 11.0 1.55 10.65 1.4 M9.95 2.05 L8.75 1.7 9.95 2.05 M10.05 2.95 L10.55 3.1 10.8 2.85 10.3 2.7 9.75 2.55 9.85 2.9 10.05 2.95 M12.15 3.7 L11.0 3.4 10.45 3.75 10.3 3.8 10.2 3.8 10.55 4.55 13.3 5.25 16.95 6.2 19.25 5.65 12.15 3.7 M9.85 3.0 L9.95 3.25 10.2 3.25 10.5 3.1 10.0 3.0 9.85 2.95 9.85 3.0 M9.1 6.65 L13.4 7.75 14.4 7.85 15.4 7.75 11.4 6.65 10.6 6.45 10.2 6.35 9.15 6.15 8.55 6.15 7.5 6.15 2.5 4.85 2.9 5.35 3.1 5.45 3.9 5.7 5.0 6.0 7.55 6.7 8.45 6.6 8.7 6.55 8.75 6.55 9.1 6.65 M3.85 4.15 L6.5 4.85 7.1 5.0 7.75 5.15 8.25 5.1 10.45 4.6 8.75 4.25 8.2 4.2 6.4 4.25 3.85 4.1 3.85 4.15 M2.2 3.95 L2.0 3.9 2.35 4.6 3.25 4.1 3.1 4.05 2.2 3.95 M0.35 4.45 L0.9 4.25 -1.35 3.65 -1.3 3.8 -1.05 4.25 0.35 4.45 M1.2 5.4 L1.6 5.35 1.15 5.25 0.85 5.2 0.6 5.25 0.15 5.15 0.45 5.25 0.8 5.35 1.2 5.4 M-0.9 4.45 L-0.75 4.55 -0.4 4.85 -0.15 5.0 -0.1 5.05 0.15 5.1 0.5 5.15 0.9 5.1 1.0 5.1 1.55 5.25 1.05 4.3 -0.45 4.55 -0.85 4.4 -0.9 4.4 -0.9 4.45 M-0.6 5.75 L-0.3 5.85 -0.15 5.95 0.05 6.1 0.1 6.2 0.3 6.6 0.3 6.65 -0.05 6.2 0.05 6.95 0.05 7.2 0.0 7.05 -0.1 6.65 -0.45 6.85 -0.5 7.2 Q-0.3 7.3 -0.05 7.45 L0.05 7.25 0.0 7.55 Q-0.2 7.5 -0.25 7.7 L-0.65 8.2 -0.8 8.1 -1.15 8.3 -1.55 8.25 -0.95 8.45 Q-1.65 8.5 -2.05 7.95 L-2.1 7.9 -2.1 7.85 -2.3 7.5 -2.35 7.4 -2.35 7.3 Q-2.45 6.25 -1.5 5.75 L-0.75 5.7 -0.6 5.75 M2.4 4.65 L2.4 4.7 2.7 4.8 3.6 4.9 4.0 4.8 4.65 4.5 3.35 4.1 3.3 4.1 3.2 4.2 2.4 4.65 M-2.75 2.85 L-2.75 2.95 -2.6 3.3 Q-2.1 4.1 -1.25 4.55 L-0.75 4.85 Q0.4 5.7 1.9 5.6 L1.75 5.45 Q0.0 5.6 -1.15 4.4 L-1.2 4.35 -1.25 4.3 -1.85 2.75 -1.9 1.05 -1.9 0.95 -1.85 0.8 -1.85 0.65 -1.8 0.45 -1.75 0.3 -2.7 1.45 -2.75 1.5 -2.75 1.6 -2.75 2.85 M4.75 4.5 L3.75 5.0 4.1 5.1 4.95 4.55 4.75 4.5 M-15.25 -5.3 L-15.45 -3.95 -15.4 -3.7 -15.4 -3.65 Q-15.05 -3.4 -14.7 -3.3 L-14.7 -3.4 -14.65 -3.75 -14.6 -4.1 -14.75 -4.55 -14.7 -4.75 -14.75 -4.75 -14.9 -4.9 -15.15 -5.1 -15.25 -5.3 M-10.9 -3.8 L-10.85 -3.95 -11.2 -3.95 -12.15 -4.05 -13.65 -4.5 -13.7 -4.5 -13.75 -4.55 -13.85 -4.6 -13.9 -4.6 -14.05 -4.75 -14.25 -5.1 -14.35 -5.0 -14.45 -4.9 -14.55 -4.75 -14.45 -4.25 -14.35 -4.15 -13.0 -3.45 -10.9 -3.25 -11.0 -3.6 -11.0 -3.65 -10.9 -3.8 M-13.75 -0.15 Q-13.65 0.7 -14.45 1.35 L-14.5 1.35 -14.55 1.3 -17.55 1.6 -16.95 2.2 -16.6 2.45 -16.4 2.65 -16.4 2.7 Q-16.1 3.65 -15.3 4.3 L-14.7 4.8 -14.55 4.2 -14.55 3.4 -16.2 2.75 -14.5 3.3 -14.4 3.25 -13.65 1.45 -13.4 0.6 -13.5 0.5 -13.55 0.4 -13.6 -0.25 -13.75 -0.15 M-10.4 -0.25 L-9.55 -0.05 -9.6 0.0 -9.85 -0.1 -10.4 -0.25 M-0.2 -6.2 L0.1 -6.2 -0.2 -6.7 -0.3 -6.8 Q-1.1 -7.35 -2.1 -7.2 L-3.6 -6.9 Q-5.3 -6.3 -6.3 -4.85 L-6.4 -4.7 -6.55 -4.1 -6.3 -3.45 -5.7 -3.2 -5.55 -3.2 -5.4 -3.25 -5.35 -3.25 -5.25 -3.35 -4.05 -4.6 -2.9 -5.6 -1.3 -6.3 -0.2 -6.2 M-7.75 -3.8 L-7.55 -3.65 -6.7 -3.85 -6.75 -4.1 -6.65 -4.65 -6.7 -4.7 -7.0 -4.55 -7.55 -4.4 -8.3 -4.25 -8.15 -4.1 -7.75 -3.8 M-1.1 -5.0 Q-1.5 -5.05 -1.75 -4.75 L-1.95 -4.6 -1.1 -5.0 M-1.25 5.85 L-1.05 6.5 -0.9 6.45 -0.65 5.9 -1.25 5.85 M-6.05 2.3 L-6.0 2.3 -4.35 1.85 Q-5.2 2.6 -6.15 2.35 -6.75 2.3 -6.05 2.3 M-6.65 4.25 L-5.1 3.95 -6.2 2.85 -6.65 4.25 M-0.5 6.7 L-0.1 6.6 -0.05 6.4 Q-0.25 6.0 -0.55 5.95 L-0.75 6.45 -0.65 6.6 -0.5 6.7 M-0.85 6.6 L-1.2 6.65 -1.4 6.9 -1.35 7.25 -1.1 7.5 -0.75 7.4 -0.6 7.15 -0.6 6.8 Q-0.7 6.6 -0.85 6.6 M-0.9 7.6 L-1.05 7.6 -1.3 7.55 -1.3 7.6 -1.6 8.1 -1.4 8.2 -0.8 8.05 -0.9 7.6 M-0.5 7.35 L-0.75 7.6 -0.6 8.05 -0.25 7.5 -0.5 7.35 M-1.3 6.55 L-1.15 6.5 -1.35 5.85 Q-1.85 6.0 -2.05 6.5 L-1.4 6.75 -1.3 6.55 M-1.5 7.25 L-2.1 7.5 -1.8 8.0 -1.7 8.05 -1.35 7.5 -1.5 7.25 M-1.45 6.85 L-2.1 6.55 Q-2.3 6.95 -2.15 7.45 L-1.5 7.15 -1.45 6.85" fill="#000000" fill-rule="evenodd" stroke="none"/>
    <path d="M6.1 -8.05 L6.1 -7.8 Q5.75 -6.25 4.9 -4.9 L4.4 -5.15 5.5 -6.95 6.05 -7.85 6.1 -8.05 M5.4 -4.15 L5.4 -4.05 Q5.45 -3.4 4.9 -3.0 L4.85 -2.95 3.75 -2.6 1.4 -1.8 -0.2 -1.05 Q-1.75 -0.1 -2.9 1.35 L-3.0 2.0 Q-3.05 2.9 -2.5 3.6 L-1.2 4.75 -1.2 4.8 -0.8 5.05 Q-0.75 5.05 -0.65 5.15 L-0.2 5.5 0.25 5.95 0.35 6.05 0.45 6.35 0.5 6.6 0.5 7.0 0.45 7.2 0.45 7.25 0.4 7.5 0.25 7.8 0.1 8.0 Q-0.5 8.75 -1.45 8.65 L-3.1 8.1 -4.55 7.1 Q-5.25 6.5 -5.35 5.6 L-5.05 6.05 -4.15 6.75 -2.45 7.6 -2.3 7.55 -2.3 7.5 -2.1 7.85 -2.1 7.9 -2.05 7.95 Q-1.65 8.5 -0.95 8.45 L-1.55 8.25 -1.15 8.3 -0.8 8.1 -0.65 8.2 -0.25 7.7 Q-0.2 7.5 0.0 7.55 L0.05 7.25 0.05 7.2 0.05 6.95 -0.05 6.2 0.3 6.65 0.3 6.6 0.1 6.2 0.05 6.1 -0.15 5.95 -0.3 5.85 -0.6 5.75 -0.55 5.75 -0.05 5.9 -0.05 5.85 -0.9 5.25 -1.0 5.25 -1.7 5.35 -3.3 5.2 -4.9 4.5 -4.7 4.35 -4.0 4.85 -4.0 4.7 -6.15 2.55 -6.2 2.5 -6.3 2.45 -6.35 2.5 -6.7 2.2 -6.05 2.3 Q-6.75 2.3 -6.15 2.35 -5.2 2.6 -4.35 1.85 L-1.7 -0.7 -0.95 -1.15 -0.25 -1.45 1.4 -2.15 2.9 -2.6 4.45 -3.1 Q5.05 -3.3 5.35 -3.85 L5.4 -4.15 M-12.85 -0.4 L-12.9 -0.4 -12.95 -0.4 -13.25 -0.35 -13.4 -0.3 -13.65 -0.45 -13.75 -1.25 -13.5 -0.95 -12.85 -0.4 M-14.45 -3.55 L-14.45 -3.9 -13.05 -3.3 -10.75 -2.95 -10.65 -2.9 -13.05 -2.95 -13.15 -3.0 -14.45 -3.5 -14.45 -3.55 M-6.6 0.35 L-6.4 0.5 -6.35 0.65 -6.35 0.55 -5.75 0.85 -4.85 0.6 Q-5.1 0.4 -4.6 0.35 L-4.6 0.3 -4.3 -0.65 -4.05 0.05 Q-4.4 1.45 -5.8 1.7 L-6.75 0.75 -6.6 0.35 M-4.8 0.15 L-5.75 0.5 -10.1 -2.85 -10.2 -2.95 -10.25 -3.0 -10.3 -3.1 -9.9 -3.0 -9.7 -2.85 -9.05 -2.4 -6.45 -0.65 -4.8 0.15 M-6.1 -2.5 L-7.35 -3.5 -6.65 -3.65 -6.6 -3.6 -6.45 -3.4 -5.9 -3.0 -5.95 -2.9 -6.05 -2.6 -6.1 -2.5 M-13.75 -0.15 L-13.6 -0.25 -13.55 0.4 -13.5 0.5 -13.4 0.6 -13.65 1.45 -14.4 3.25 -14.5 3.3 -16.2 2.75 -14.55 3.4 -14.55 4.2 -14.7 4.8 -15.3 4.3 Q-16.1 3.65 -16.4 2.7 L-16.4 2.65 -16.6 2.45 -16.95 2.2 -17.55 1.6 -14.55 1.3 -14.5 1.35 -14.45 1.35 Q-13.65 0.7 -13.75 -0.15 M-6.65 4.25 L-6.2 2.85 -5.1 3.95 -6.65 4.25" fill="#414756" fill-rule="evenodd" stroke="none"/>
    <path d="M-14.8 -5.1 L-14.55 -5.2 -14.7 -5.0 -14.75 -5.05 -14.8 -5.1 M-14.35 -5.35 L-14.2 -5.45 -14.35 -5.35 M4.4 -5.15 L4.2 -5.2 3.35 -5.45 3.15 -5.5 4.65 -8.15 4.95 -8.55 5.5 -8.65 6.1 -8.05 6.05 -7.85 5.5 -6.95 4.4 -5.15 M-1.0 -4.85 L-0.65 -4.95 0.4 -5.3 0.85 -5.45 1.5 -5.7 1.55 -5.65 1.6 -5.65 2.25 -4.8 2.55 -4.4 2.65 -4.3 2.6 -4.25 2.45 -4.15 2.35 -4.05 1.1 -3.65 -1.95 -3.85 Q-2.3 -3.95 -2.15 -4.15 L-1.55 -4.6 -1.5 -4.6 -1.05 -4.8 -1.0 -4.85 M3.0 -5.05 L3.0 -5.1 2.85 -5.25 2.35 -5.8 2.2 -6.0 2.5 -6.15 2.5 -6.2 2.55 -6.1 2.95 -5.55 2.95 -5.45 3.0 -5.3 3.0 -5.15 3.0 -5.05 M3.15 -5.3 L3.75 -5.1 Q3.55 -5.1 3.45 -4.9 3.3 -4.7 3.45 -4.45 L3.6 -4.3 Q3.7 -4.2 3.95 -4.15 L4.4 -4.2 4.85 -4.5 4.85 -4.75 4.95 -4.7 5.0 -4.65 5.05 -4.6 5.35 -4.35 5.35 -4.3 5.4 -4.15 5.35 -3.85 Q5.05 -3.3 4.45 -3.1 L2.9 -2.6 1.4 -2.15 -0.25 -1.45 -0.95 -1.15 -1.7 -0.7 -4.35 1.85 -6.0 2.3 -6.05 2.3 -6.7 2.2 -6.75 2.15 -7.05 1.9 Q-7.35 1.45 -7.25 0.9 L-7.2 0.55 -9.0 0.1 -9.55 -0.05 -10.4 -0.25 -10.6 -0.3 -10.9 -0.4 -11.05 -0.45 -12.55 -0.45 -12.7 -0.4 -12.85 -0.4 -13.5 -0.95 -13.75 -1.25 -13.75 -1.45 -13.75 -1.65 Q-13.7 -2.6 -14.5 -3.2 L-14.5 -3.25 -14.45 -3.55 -14.45 -3.5 -13.15 -3.0 -13.05 -2.95 -10.65 -2.9 -6.6 0.35 -6.75 0.75 -5.8 1.7 Q-4.4 1.45 -4.05 0.05 L-4.3 -0.65 -4.75 -1.35 -4.55 -0.6 -4.8 0.15 -6.45 -0.65 -9.05 -2.4 -9.7 -2.85 -9.9 -3.0 -10.3 -3.1 -10.25 -3.0 -10.5 -3.2 -10.5 -3.25 -10.6 -3.45 -10.6 -3.7 -10.6 -3.95 -10.55 -4.1 -9.75 -4.8 -9.4 -4.75 -8.8 -4.35 -8.55 -4.2 -8.3 -4.05 -8.15 -3.95 -7.95 -3.8 -7.9 -3.75 -7.7 -3.65 -7.45 -3.45 -6.1 -2.45 -5.5 -1.95 -6.1 -2.5 -6.05 -2.6 -5.55 -2.9 -5.4 -2.95 -5.25 -3.05 -5.2 -3.05 -5.05 -3.2 -3.95 -4.45 -2.85 -5.45 -1.95 -5.9 -1.2 -6.05 -1.05 -6.05 -1.3 -5.95 -1.2 -5.9 -1.05 -5.95 -0.95 -5.95 0.1 -5.9 0.4 -5.85 0.8 -5.8 0.75 -5.75 0.35 -5.6 -0.35 -5.55 -0.7 -5.2 -1.0 -5.05 Q-1.8 -5.25 -2.1 -4.5 L-2.65 -4.0 Q-1.4 -3.5 0.0 -3.45 1.25 -3.45 2.4 -3.95 L2.45 -3.95 2.75 -4.15 2.85 -4.3 Q3.25 -4.8 3.15 -5.3 M-5.35 5.6 L-5.3 5.2 -5.05 4.65 -4.9 4.5 -3.3 5.2 -1.7 5.35 -1.0 5.25 -0.9 5.25 -0.05 5.85 -0.05 5.9 -0.55 5.75 -0.6 5.75 -0.75 5.7 -1.5 5.75 Q-2.45 6.25 -2.35 7.3 L-2.35 7.4 -2.3 7.5 -2.3 7.55 -2.45 7.6 -4.15 6.75 -5.05 6.05 -5.35 5.6 M-6.4 0.5 L-6.35 0.55 -6.35 0.65 -6.4 0.5 M0.8 -5.85 L0.8 -5.8 0.8 -5.85 M-15.25 -5.3 L-15.15 -5.1 -14.9 -4.9 -14.75 -4.75 -14.7 -4.75 -14.75 -4.55 -14.6 -4.1 -14.65 -3.75 -14.7 -3.4 -14.7 -3.3 Q-15.05 -3.4 -15.4 -3.65 L-15.4 -3.7 -15.45 -3.95 -15.25 -5.3 M-0.85 6.6 Q-0.7 6.6 -0.6 6.8 L-0.6 7.15 -0.75 7.4 -1.1 7.5 -1.35 7.25 -1.4 6.9 -1.2 6.65 -0.85 6.6" fill="#59648c" fill-rule="evenodd" stroke="none"/>
    <path d="M3.05 6.0 L2.9 5.95 Q2.2 5.75 1.75 5.25 L1.65 5.1 1.05 4.15 -1.45 3.35 -1.75 2.05 -0.9 3.2 2.05 4.25 2.75 5.3 2.95 5.45 4.35 5.95 5.95 6.55 7.55 7.0 8.5 7.25 9.45 7.5 10.9 7.9 12.3 8.4 12.2 8.45 11.4 8.2 8.9 7.55 3.85 6.2 3.05 6.0 M-1.0 -4.85 L-0.7 -5.0 -0.6 -5.0 2.15 -6.1 2.25 -6.15 2.45 -6.2 2.5 -6.2 2.5 -6.15 2.2 -6.0 2.35 -5.8 2.85 -5.25 3.0 -5.1 3.0 -5.05 3.0 -4.95 2.7 -4.35 2.65 -4.3 2.55 -4.4 2.25 -4.8 1.6 -5.65 1.55 -5.65 1.5 -5.7 0.85 -5.45 0.4 -5.3 -0.65 -4.95 -1.0 -4.85 M3.15 -5.3 L3.1 -5.35 3.1 -5.4 3.35 -5.35 4.1 -5.2 4.4 -5.1 4.85 -4.85 4.95 -4.8 5.1 -4.7 5.15 -4.65 5.2 -4.6 5.25 -4.55 5.25 -4.5 5.35 -4.35 5.05 -4.6 5.0 -4.65 4.95 -4.7 4.85 -4.75 4.85 -4.5 4.4 -4.2 3.95 -4.15 Q3.7 -4.2 3.6 -4.3 L3.45 -4.45 Q3.3 -4.7 3.45 -4.9 3.55 -5.1 3.75 -5.1 L3.15 -5.3 M-1.05 -6.05 L-0.7 -6.05 0.55 -6.0 0.6 -6.0 0.65 -5.95 0.75 -5.95 0.9 -5.9 0.8 -5.85 0.8 -5.8 0.4 -5.85 0.1 -5.9 -0.95 -5.95 -1.05 -5.95 -1.2 -5.9 -1.3 -5.95 -1.05 -6.05 M10.35 4.35 L10.35 4.45 3.75 2.65 2.2 0.15 -0.8 -0.55 -0.6 -0.7 -0.55 -0.75 1.1 -1.6 1.15 -1.65 1.2 -1.65 1.3 -1.7 1.4 -1.7 1.45 -1.75 1.6 -1.8 1.65 -1.8 1.7 -1.8 1.75 -1.85 1.8 -1.85 2.2 -1.95 Q1.35 -1.65 0.6 -1.15 L-0.1 -0.65 2.3 -0.05 2.3 0.0 3.95 2.55 9.85 4.1 10.0 4.1 10.35 4.35 M5.25 -2.3 L5.2 -2.35 5.0 -2.9 5.05 -2.95 5.1 -3.0 5.5 -3.8 5.55 -3.6 Q5.65 -3.25 5.35 -2.9 L5.3 -2.85 5.4 -2.5 5.25 -2.3 M11.75 0.45 L11.8 0.5 5.9 -1.1 6.15 -1.25 8.0 -0.75 8.2 -0.7 9.35 -0.35 10.5 0.0 11.55 0.25 11.75 0.45 M5.45 -4.45 L8.9 -3.5 9.8 -4.05 10.65 -3.85 10.35 -3.8 Q9.7 -3.6 9.3 -3.1 L9.15 -3.0 6.0 -3.8 5.45 -4.45 M10.55 -1.65 L11.5 -2.5 17.55 -0.9 17.85 -1.0 17.95 -1.0 17.55 -0.2 11.95 -1.55 11.85 -1.55 11.55 -1.3 10.55 -1.65 M11.85 0.35 L13.25 1.5 13.9 2.0 14.15 2.25 13.85 2.2 13.25 2.0 12.55 1.8 11.8 1.65 11.6 1.65 11.35 0.9 10.9 0.4 11.9 0.65 11.85 0.35 M13.3 5.25 L10.55 4.55 10.2 3.8 10.3 3.8 10.45 3.75 11.0 3.4 12.15 3.7 13.35 5.15 13.3 5.15 13.3 5.25 M9.1 6.65 L8.75 6.55 8.7 6.55 8.45 6.6 7.55 6.7 5.0 6.0 3.9 5.7 3.1 5.45 2.9 5.35 2.5 4.85 7.5 6.15 8.55 6.15 9.15 6.15 10.2 6.35 10.6 6.45 9.1 6.65 M3.85 4.1 L6.4 4.25 8.2 4.2 8.75 4.25 10.45 4.6 8.25 5.1 7.75 5.15 7.1 5.0 6.5 4.85 3.85 4.15 3.85 4.1 M0.05 7.25 L-0.05 7.45 Q-0.3 7.3 -0.5 7.2 L-0.45 6.85 -0.1 6.65 0.0 7.05 0.05 7.2 0.05 7.25 M-1.25 4.3 L-1.4 4.3 -1.8 3.65 -2.0 3.05 -2.75 2.85 -2.75 1.6 -2.05 1.05 -2.0 1.1 -1.9 1.05 -1.85 2.75 -1.25 4.3 M4.75 4.5 L4.95 4.55 4.1 5.1 3.75 5.0 4.75 4.5 M-1.25 5.85 L-0.65 5.9 -0.9 6.45 -1.05 6.5 -1.25 5.85 M-0.5 6.7 L-0.65 6.6 -0.75 6.45 -0.55 5.95 Q-0.25 6.0 -0.05 6.4 L-0.1 6.6 -0.5 6.7 M-0.9 7.6 L-0.8 8.05 -1.4 8.2 -1.6 8.1 -1.3 7.6 -1.3 7.55 -1.05 7.6 -0.9 7.6 M-1.3 6.55 L-1.4 6.75 -2.05 6.5 Q-1.85 6.0 -1.35 5.85 L-1.15 6.5 -1.3 6.55 M-0.5 7.35 L-0.25 7.5 -0.6 8.05 -0.75 7.6 -0.5 7.35 M-1.45 6.85 L-1.5 7.15 -2.15 7.45 Q-2.3 6.95 -2.1 6.55 L-1.45 6.85 M-1.5 7.25 L-1.35 7.5 -1.7 8.05 -1.8 8.0 -2.1 7.5 -1.5 7.25" fill="#c2c7d3" fill-rule="evenodd" stroke="none"/>
    <path d="M0.35 -5.6 L-0.45 -5.3 -0.3 -5.4 0.35 -5.6 M1.25 -6.05 L1.35 -6.05 1.5 -6.05 1.55 -6.0 0.9 -5.8 0.9 -5.85 1.0 -5.95 1.1 -6.0 1.25 -6.05 M-1.1 -5.0 L-1.95 -4.6 -1.75 -4.75 Q-1.5 -5.05 -1.1 -5.0" fill="#947afe" fill-rule="evenodd" stroke="none"/>
    <path d="M-8.85 0.25 L-8.0 0.55 -7.8 0.6 -7.7 0.75 -7.7 1.35 Q-9.4 0.2 -11.55 0.2 L-12.4 0.35 -12.45 0.35 -12.6 0.4 -13.0 0.5 -13.2 0.45 -13.25 0.3 -13.25 0.2 -13.1 0.3 -13.0 0.0 -12.8 0.15 -12.65 0.1 -12.6 -0.05 -12.25 0.1 -12.1 0.0 -12.1 0.05 -12.0 0.05 -11.25 -0.15 -10.3 0.1 -9.35 0.25 Q-9.2 0.1 -8.95 0.45 L-8.85 0.25 M-13.35 -0.05 L-13.3 -0.1 -13.25 -0.2 -13.2 -0.25 -13.15 -0.3 -13.05 -0.35 -12.7 -0.4 -12.55 -0.45 -11.05 -0.45 -10.9 -0.4 -10.6 -0.3 -10.4 -0.25 -9.85 -0.1 -9.6 0.0 -9.85 0.05 -9.85 -0.1 -12.5 -0.2 -12.6 -0.25 -12.8 -0.15 -13.05 -0.2 -13.15 -0.1 -13.2 -0.05 -13.35 -0.05 M1.25 -6.05 L1.1 -6.0 0.45 -6.15 0.65 -6.25 1.25 -6.05 M0.35 4.45 L-1.05 4.25 -1.3 3.8 -1.35 3.65 0.9 4.25 0.35 4.45 M1.2 5.4 L0.8 5.35 0.45 5.25 0.15 5.15 0.6 5.25 0.85 5.2 1.15 5.25 1.6 5.35 1.2 5.4 M2.4 4.65 L3.2 4.2 3.3 4.1 3.35 4.1 4.65 4.5 4.0 4.8 3.6 4.9 2.7 4.8 2.4 4.7 2.4 4.65 M-10.9 -3.8 L-11.0 -3.8 -11.2 -3.7 -11.45 -3.9 -11.6 -3.7 -11.75 -3.9 -11.9 -3.85 -12.05 -3.85 -12.1 -3.9 -12.15 -3.9 -12.2 -3.85 -12.3 -3.75 -12.45 -3.95 -12.9 -3.9 -12.9 -4.1 -13.0 -4.15 -13.1 -4.15 -13.15 -4.15 -13.3 -4.1 -13.35 -4.2 -13.4 -4.25 -13.55 -4.3 -13.65 -4.3 -13.75 -4.45 -13.95 -4.55 -14.05 -4.75 -13.9 -4.6 -13.85 -4.6 -13.75 -4.55 -13.7 -4.5 -13.65 -4.5 -12.15 -4.05 -11.2 -3.95 -10.85 -3.95 -10.9 -3.8 M-14.35 -5.0 L-14.45 -4.85 -14.4 -4.75 -14.45 -4.55 -14.4 -4.45 -14.15 -4.55 -14.15 -4.3 -14.15 -4.25 -14.1 -4.25 -14.05 -4.2 -14.0 -4.2 -13.95 -4.25 -13.9 -4.25 -13.85 -4.05 -13.7 -4.05 -13.5 -4.15 -13.5 -4.0 -13.45 -3.95 -13.4 -3.9 -13.3 -3.85 -13.05 -3.95 -12.9 -3.7 -12.6 -3.85 -12.35 -3.5 -12.05 -3.7 -11.95 -3.6 -11.8 -3.7 -11.7 -3.5 -11.6 -3.55 -11.5 -3.6 -11.45 -3.75 -11.15 -3.45 -11.0 -3.6 -10.9 -3.25 -13.0 -3.45 -14.35 -4.15 -14.45 -4.25 -14.55 -4.75 -14.45 -4.9 -14.35 -5.0 M-0.2 -6.7 L-0.35 -6.8 -0.65 -6.9 -0.8 -6.9 -1.1 -7.05 -1.3 -7.0 -1.55 -7.15 -1.85 -7.0 -2.2 -7.1 -2.45 -6.9 -2.8 -7.0 -3.05 -6.8 -3.3 -6.85 -3.35 -6.85 -3.65 -6.75 -3.65 -6.55 -4.1 -6.5 -4.25 -6.4 -4.3 -6.1 -4.75 -6.2 -4.85 -6.15 -4.9 -5.6 -5.45 -5.6 -5.4 -5.0 -6.05 -4.95 -6.0 -4.5 -6.4 -4.35 -6.3 -4.2 -5.9 -4.1 -5.55 -4.15 -5.7 -4.7 -5.0 -4.65 -5.1 -5.3 -4.55 -5.25 -4.5 -5.3 -4.5 -5.85 -4.05 -5.65 -3.9 -5.9 -3.95 -6.2 -3.45 -6.05 -3.3 -6.15 -3.25 -6.25 -3.25 -6.4 -2.95 -6.4 -2.65 -6.6 -2.35 -6.45 -2.1 -6.7 -1.8 -6.6 -1.55 -6.7 -1.1 -6.7 -0.75 -6.55 -0.2 -6.2 -1.3 -6.3 -2.9 -5.6 -4.05 -4.6 -5.25 -3.35 -5.35 -3.25 -5.4 -3.25 -5.55 -3.2 -5.7 -3.2 -6.3 -3.45 -6.55 -4.1 -6.4 -4.7 -6.3 -4.85 Q-5.3 -6.3 -3.6 -6.9 L-2.1 -7.2 Q-1.1 -7.35 -0.3 -6.8 L-0.2 -6.7 M-8.15 -4.1 L-8.3 -4.25 -7.55 -4.4 -7.0 -4.55 -6.7 -4.7 -6.65 -4.65 -6.75 -4.1 -6.7 -3.85 -7.55 -3.65 -7.75 -3.8 -7.6 -4.05 -7.3 -3.95 -7.2 -4.4 -7.35 -4.15 -7.55 -4.25 -7.6 -4.25 -7.8 -4.1 -8.0 -4.05 -8.15 -4.1" fill="#333333" fill-rule="evenodd" stroke="none"/>
    <path d="M1.75 -1.85 L1.8 -1.85 1.75 -1.85 M2.2 -1.95 L2.3 -1.95 3.15 -1.75 3.15 -1.7 Q3.6 -0.45 4.4 0.65 L9.5 2.25 10.35 4.35 10.0 4.1 9.85 4.1 3.95 2.55 2.3 0.0 2.3 -0.05 -0.1 -0.65 0.6 -1.15 Q1.35 -1.65 2.2 -1.95 M5.25 -2.3 L5.4 -2.5 5.3 -2.85 5.35 -2.9 Q5.65 -3.25 5.55 -3.6 L5.5 -3.8 5.5 -3.95 5.5 -4.25 6.55 -2.55 11.5 -1.15 11.75 0.45 11.55 0.25 10.5 0.0 9.35 -0.35 8.2 -0.7 8.0 -0.75 6.15 -1.25 5.9 -1.1 5.85 -1.2 5.25 -2.3 M5.45 -4.45 L5.25 -4.65 8.95 -3.65 9.85 -4.15 10.1 -4.15 12.75 -3.45 13.85 -3.15 16.15 -2.5 15.85 -2.5 10.65 -3.85 9.8 -4.05 8.9 -3.5 5.45 -4.45 M10.55 -1.65 L10.4 -1.7 11.55 -2.7 11.65 -2.6 17.85 -1.0 17.55 -0.9 11.5 -2.5 10.55 -1.65 M11.85 0.35 L11.8 0.2 19.3 2.2 17.3 3.1 14.15 2.25 13.9 2.0 13.25 1.5 11.85 0.35 M10.6 6.45 L11.4 6.65 15.4 7.75 14.4 7.85 13.4 7.75 9.1 6.65 10.6 6.45 M12.3 8.4 L10.9 7.9 9.45 7.5 8.5 7.25 7.55 7.0 5.95 6.55 4.35 5.95 5.3 6.25 7.5 6.85 12.65 8.2 12.3 8.4 M2.05 4.25 L-0.9 3.2 -1.75 2.05 1.5 2.95 1.6 3.15 1.6 3.25 2.0 4.2 2.05 4.25" fill="#ffffff" fill-rule="evenodd" stroke="none"/>
    <path d="M0.35 -0.2 L2.15 0.35 2.2 0.4 3.25 2.1 3.3 2.15 3.65 2.7 3.75 2.8 8.6 4.05 2.75 3.85 1.9 3.75 1.65 2.9 -1.75 1.9 -1.75 1.55 -1.75 1.4 -1.5 0.2 -1.4 0.1 -0.9 -0.45 -0.25 -0.3 0.2 -0.2 0.35 -0.2 M3.2 -1.9 L3.15 -1.9 2.4 -2.05 4.75 -2.75 4.85 -2.75 Q4.85 -2.75 4.95 -2.7 L5.05 -2.55 5.85 -1.0 10.0 0.15 10.2 0.5 10.2 0.6 Q9.55 0.4 9.1 0.9 8.85 1.1 8.75 1.45 L8.1 0.85 5.7 -0.95 4.95 -2.45 3.2 -1.9 M11.55 1.8 L11.4 2.5 11.05 3.15 10.4 3.65 10.2 3.75 10.15 3.55 10.75 3.3 11.1 2.9 11.35 2.5 11.55 1.8 M2.05 1.0 L-0.35 0.35 -1.0 1.2 -1.05 1.3 2.55 1.95 2.05 1.0" fill="#912020" fill-rule="evenodd" stroke="none"/>
    <path d="M10.0 0.15 L10.35 0.25 10.75 0.4 11.1 0.7 11.35 1.05 11.5 1.5 11.5 1.7 11.55 1.8 11.35 2.5 11.1 2.9 10.75 3.3 10.15 3.55 10.1 3.4 10.2 3.4 10.6 3.25 10.6 3.2 10.65 3.2 Q11.2 2.65 11.2 1.85 11.15 0.85 10.25 0.6 L10.2 0.6 10.2 0.5 10.0 0.15 M8.75 1.45 L8.65 1.6 8.65 1.7 8.6 1.8 8.55 1.8 4.5 0.6 4.45 0.5 Q3.55 -0.55 3.25 -1.85 L3.2 -1.9 4.95 -2.45 5.7 -0.95 8.1 0.85 8.75 1.45 M2.05 1.0 L2.55 1.95 -1.05 1.3 -1.0 1.2 -0.35 0.35 2.05 1.0" fill="#d53e3e" fill-rule="evenodd" stroke="none"/>
    <path d="M-9.0 0.1 L-8.9 0.2 -8.85 0.2 -8.85 0.25 -8.95 0.45 Q-9.2 0.1 -9.35 0.25 L-10.3 0.1 -11.25 -0.15 -12.0 0.05 -12.1 0.05 -12.1 0.0 -12.25 0.1 -12.6 -0.05 -12.65 0.1 -12.8 0.15 -13.0 0.0 -13.1 0.3 -13.25 0.2 -13.25 0.3 -13.35 0.1 -13.35 -0.05 -13.2 -0.05 -13.15 -0.1 -13.05 -0.2 -12.8 -0.15 -12.6 -0.25 -12.5 -0.2 -9.85 -0.1 -9.85 0.05 -9.6 0.0 -9.55 -0.05 -9.0 0.1 M-14.05 -4.75 L-13.95 -4.55 -13.75 -4.45 -13.65 -4.3 -13.55 -4.3 -13.4 -4.25 -13.35 -4.2 -13.3 -4.1 -13.15 -4.15 -13.1 -4.15 -13.0 -4.15 -12.9 -4.1 -12.9 -3.9 -12.45 -3.95 -12.3 -3.75 -12.2 -3.85 -12.15 -3.9 -12.1 -3.9 -12.05 -3.85 -11.9 -3.85 -11.75 -3.9 -11.6 -3.7 -11.45 -3.9 -11.2 -3.7 -11.0 -3.8 -10.9 -3.8 -11.0 -3.65 -11.0 -3.6 -11.15 -3.45 -11.45 -3.75 -11.5 -3.6 -11.6 -3.55 -11.7 -3.5 -11.8 -3.7 -11.95 -3.6 -12.05 -3.7 -12.35 -3.5 -12.6 -3.85 -12.9 -3.7 -13.05 -3.95 -13.3 -3.85 -13.4 -3.9 -13.45 -3.95 -13.5 -4.0 -13.5 -4.15 -13.7 -4.05 -13.85 -4.05 -13.9 -4.25 -13.95 -4.25 -14.0 -4.2 -14.05 -4.2 -14.1 -4.25 -14.15 -4.25 -14.15 -4.3 -14.15 -4.55 -14.4 -4.45 -14.45 -4.55 -14.4 -4.75 -14.45 -4.85 -14.35 -5.0 -14.25 -5.1 -14.05 -4.75 M-0.2 -6.2 L-0.75 -6.55 -1.1 -6.7 -1.55 -6.7 -1.8 -6.6 -2.1 -6.7 -2.35 -6.45 -2.65 -6.6 -2.95 -6.4 -3.25 -6.4 -3.25 -6.25 -3.3 -6.15 -3.45 -6.05 -3.95 -6.2 -3.9 -5.9 -4.05 -5.65 -4.5 -5.85 -4.5 -5.3 -4.55 -5.25 -5.1 -5.3 -5.0 -4.65 -5.7 -4.7 -5.55 -4.15 -5.9 -4.1 -6.3 -4.2 -6.4 -4.35 -6.0 -4.5 -6.05 -4.95 -5.4 -5.0 -5.45 -5.6 -4.9 -5.6 -4.85 -6.15 -4.75 -6.2 -4.3 -6.1 -4.25 -6.4 -4.1 -6.5 -3.65 -6.55 -3.65 -6.75 -3.35 -6.85 -3.3 -6.85 -3.05 -6.8 -2.8 -7.0 -2.45 -6.9 -2.2 -7.1 -1.85 -7.0 -1.55 -7.15 -1.3 -7.0 -1.1 -7.05 -0.8 -6.9 -0.65 -6.9 -0.35 -6.8 -0.2 -6.7 0.1 -6.2 -0.2 -6.2 M-8.15 -4.1 L-8.0 -4.05 -7.8 -4.1 -7.6 -4.25 -7.55 -4.25 -7.35 -4.15 -7.2 -4.4 -7.3 -3.95 -7.6 -4.05 -7.75 -3.8 -8.15 -4.1" fill="#999999" fill-rule="evenodd" stroke="none"/>
    <path d="M2.2 3.95 L3.1 4.05 3.25 4.1 2.35 4.6 2.0 3.9 2.2 3.95 M-0.85 4.4 L-0.45 4.55 1.05 4.3 1.55 5.25 1.0 5.1 0.9 5.1 0.5 5.15 0.15 5.1 -0.1 5.05 -0.15 5.0 -0.4 4.85 -0.75 4.55 -0.9 4.45 -0.85 4.4 M-1.25 4.3 L-1.2 4.35 -1.15 4.4 Q0.0 5.6 1.75 5.45 L1.9 5.6 Q0.4 5.7 -0.75 4.85 L-1.25 4.55 Q-2.1 4.1 -2.6 3.3 L-2.75 2.95 -2.75 2.85 -2.0 3.05 -1.8 3.65 -1.4 4.3 -1.25 4.3 M-2.75 1.6 L-2.75 1.5 -2.7 1.45 -1.75 0.3 -1.8 0.45 -1.85 0.65 -1.85 0.8 -1.9 0.95 -1.9 1.05 -2.0 1.1 -2.05 1.05 -2.75 1.6" fill="#989fb4" fill-rule="evenodd" stroke="none"/>
    <path d="M10.2 0.75 L10.25 0.75 Q10.65 0.85 10.8 1.1 L10.45 1.0 10.4 0.9 10.2 0.75 M10.6 1.35 L10.55 1.15 10.85 1.25 11.0 1.45 10.6 1.35 M10.65 1.7 L10.65 1.55 10.65 1.4 11.0 1.55 11.1 1.85 10.65 1.7 M10.65 1.75 L11.1 1.9 11.05 2.3 10.6 2.15 10.65 1.75 M10.55 2.25 L11.0 2.35 10.85 2.75 10.35 2.6 10.55 2.25 M10.3 2.7 L10.8 2.85 10.55 3.1 10.05 2.95 10.1 2.9 10.3 2.7 M10.0 3.0 L10.5 3.1 10.2 3.25 9.95 3.25 9.85 3.0 10.0 3.0" fill="#fc7474" fill-rule="evenodd" stroke="none"/>
    <path d="M10.2 0.75 L10.4 0.9 10.45 1.0 9.85 0.8 9.85 0.75 9.8 0.75 9.85 0.7 10.2 0.75 M10.55 1.15 L10.6 1.35 10.05 1.2 9.95 0.95 10.55 1.15 M10.65 1.4 L10.65 1.55 10.65 1.7 10.05 1.55 10.05 1.25 10.65 1.4 M10.6 2.15 L9.95 2.05 10.55 2.25 10.35 2.6 9.75 2.45 9.75 2.4 9.95 2.05 10.05 1.8 10.05 1.65 10.15 1.65 10.55 1.75 10.65 1.75 10.6 2.15 M10.3 2.7 L10.1 2.9 10.05 2.95 9.85 2.9 9.75 2.55 10.3 2.7 M10.0 3.0 L9.85 3.0 9.85 2.95 10.0 3.0" fill="#fcc69a" fill-rule="evenodd" stroke="none"/>
    <path d="M9.85 0.8 L9.65 0.75 9.75 0.7 9.85 0.7 9.8 0.75 9.85 0.75 9.85 0.8 M9.95 0.95 L10.05 1.2 9.2 0.95 9.45 0.8 9.95 0.95 M10.05 1.25 L10.05 1.55 9.0 1.25 10.05 1.65 10.05 1.8 9.95 2.05 9.75 2.4 9.7 2.25 9.65 2.15 8.75 1.85 8.75 1.7 8.8 1.6 9.0 1.25 9.2 0.95 10.05 1.25 M9.95 2.05 L8.75 1.7 9.95 2.05" fill="#ffff99" fill-rule="evenodd" stroke="none"/>
  </g>
</svg>
