<?xml version="1.0" encoding="UTF-8" standalone="no"?>
<svg xmlns:ffdec="https://www.free-decompiler.com/flash" xmlns:xlink="http://www.w3.org/1999/xlink" ffdec:objectType="shape" height="15.5px" width="20.05px" xmlns="http://www.w3.org/2000/svg">
  <g transform="matrix(1.0, 0.0, 0.0, 1.0, 10.0, 7.75)">
    <path d="M-6.5 -3.25 L-6.1 -2.75 Q-6.0 -2.4 -6.15 -2.05 L-6.6 -0.95 -6.6 -0.9 -6.9 -0.35 -6.9 -0.3 Q-8.4 3.3 -6.1 5.35 L-5.8 5.9 -5.85 6.55 -6.3 7.0 -6.95 7.05 Q-9.0 6.65 -9.6 4.7 L-9.65 4.65 Q-10.85 0.35 -7.75 -3.1 L-7.2 -3.4 -6.5 -3.25 M-1.95 -6.1 L-2.25 -6.15 -2.6 -6.1 Q-3.3 -5.7 -3.35 -5.05 L-3.35 -4.95 Q-3.4 -2.0 -3.95 0.7 L-4.4 2.6 -4.55 3.2 -4.6 3.5 -4.45 3.8 Q-2.55 6.05 0.25 7.1 L0.75 7.05 1.1 6.75 1.15 6.25 1.05 6.15 0.75 5.8 Q-1.35 4.7 -2.8 2.95 -1.6 -0.55 -1.6 -4.2 L3.1 -5.3 3.6 -4.8 Q4.2 -4.45 4.85 -4.8 L5.05 -5.1 5.15 -5.4 5.0 -5.75 4.05 -7.1 3.7 -7.35 3.3 -7.4 -1.95 -6.1 M-6.7 -3.0 L-7.15 -3.1 -7.5 -2.85 Q-10.45 0.45 -9.3 4.6 -8.75 6.35 -6.85 6.75 L-6.45 6.7 -6.15 6.4 -6.1 6.0 -6.3 5.6 Q-8.8 3.45 -7.2 -0.45 L-7.2 -0.5 -6.9 -1.05 -6.9 -1.1 -6.45 -2.2 Q-6.35 -2.4 -6.4 -2.65 L-6.7 -3.0 M-1.9 -6.4 Q0.65 -6.9 3.2 -7.7 L3.8 -7.65 4.3 -7.3 5.3 -5.9 5.45 -5.45 5.35 -4.9 5.0 -4.55 3.4 -4.5 2.95 -4.95 -1.3 -3.9 Q-1.35 -0.45 -2.45 2.9 -1.1 4.5 0.9 5.5 L1.35 5.95 1.45 6.15 1.35 6.9 0.85 7.4 0.15 7.4 Q-2.75 6.35 -4.7 4.0 L-4.9 3.55 -4.85 3.05 -4.7 2.5 -4.7 2.55 -4.25 0.65 Q-3.75 -2.05 -3.7 -4.95 L-3.7 -5.1 Q-3.65 -5.9 -2.8 -6.35 L-2.2 -6.5 -1.9 -6.4 M7.85 1.2 L6.85 3.7 6.85 3.65 5.8 5.3 Q4.55 5.25 3.75 6.45 L3.65 6.8 3.8 7.2 4.1 7.4 4.45 7.45 7.3 6.8 7.7 6.55 Q10.85 2.4 9.1 -2.35 8.45 -4.1 7.15 -4.95 L6.75 -5.05 6.35 -4.8 6.15 -4.4 6.3 -4.0 7.1 -2.85 6.75 -2.85 6.7 -2.85 6.05 -3.8 Q5.8 -4.1 5.85 -4.4 L6.1 -5.05 Q6.3 -5.3 6.7 -5.35 L7.35 -5.2 Q8.75 -4.3 9.45 -2.45 11.2 2.45 7.95 6.75 L7.4 7.1 4.55 7.75 3.95 7.7 3.5 7.35 3.35 6.8 Q3.35 6.5 3.5 6.25 4.35 4.95 5.6 4.95 L6.6 3.5 Q7.25 2.4 7.5 1.35 L7.85 1.2 M7.95 0.2 L7.6 0.15 7.25 -1.65 7.4 -1.9 7.5 -1.95 7.95 0.2" fill="#00ff00" fill-opacity="0.32941177" fill-rule="evenodd" stroke="none"/>
    <path d="M-6.75 -2.3 L-6.75 -2.55 -6.85 -2.7 -7.1 -2.75 -7.3 -2.65 Q-10.1 0.5 -9.0 4.5 -8.5 6.1 -6.8 6.45 L-6.6 6.4 -6.45 6.25 -6.4 6.05 -6.55 5.85 Q-9.2 3.55 -7.5 -0.6 L-7.2 -1.2 -6.75 -2.3 M-6.7 -3.0 L-6.4 -2.65 Q-6.35 -2.4 -6.45 -2.2 L-6.9 -1.1 -6.9 -1.05 -7.2 -0.5 -7.2 -0.45 Q-8.8 3.45 -6.3 5.6 L-6.1 6.0 -6.15 6.4 -6.45 6.7 -6.85 6.75 Q-8.75 6.35 -9.3 4.6 -10.45 0.45 -7.5 -2.85 L-7.15 -3.1 -6.7 -3.0 M-1.95 -6.1 L3.3 -7.4 3.7 -7.35 4.05 -7.1 5.0 -5.75 5.15 -5.4 5.05 -5.1 4.85 -4.8 Q4.2 -4.45 3.6 -4.8 L3.1 -5.3 -1.6 -4.2 Q-1.6 -0.55 -2.8 2.95 -1.35 4.7 0.75 5.8 L1.05 6.15 1.15 6.25 1.1 6.75 0.75 7.05 0.25 7.1 Q-2.55 6.05 -4.45 3.8 L-4.6 3.5 -4.55 3.2 -4.4 2.6 -3.95 0.7 Q-3.4 -2.0 -3.35 -4.95 L-3.35 -5.05 Q-3.3 -5.7 -2.6 -6.1 L-2.25 -6.15 -1.95 -6.1 M-2.25 -5.85 L-2.45 -5.8 Q-3.0 -5.5 -3.05 -5.0 L-3.05 -4.95 Q-3.1 -1.95 -3.65 0.75 L-4.05 2.7 -4.25 3.25 -4.3 3.45 -4.2 3.6 Q-2.35 5.8 0.4 6.75 L0.65 6.75 0.8 6.6 0.8 6.35 0.75 6.25 0.6 6.05 Q-1.65 4.9 -3.2 3.0 -1.9 -0.65 -1.95 -4.45 L3.25 -5.65 3.75 -5.05 4.65 -5.1 4.8 -5.2 4.8 -5.4 4.75 -5.55 3.75 -6.95 3.6 -7.05 3.4 -7.05 Q0.7 -6.2 -2.05 -5.75 L-2.25 -5.85 M7.1 -2.85 L6.3 -4.0 6.15 -4.4 6.35 -4.8 6.75 -5.05 7.15 -4.95 Q8.45 -4.1 9.1 -2.35 10.85 2.4 7.7 6.55 L7.3 6.8 4.45 7.45 4.1 7.4 3.8 7.2 3.65 6.8 3.75 6.45 Q4.55 5.25 5.8 5.3 L6.85 3.65 6.85 3.7 7.85 1.2 8.2 1.05 Q7.95 2.4 7.15 3.85 L5.95 5.65 Q4.8 5.5 4.05 6.65 L4.0 6.8 4.05 7.0 4.2 7.1 4.4 7.15 7.25 6.5 7.4 6.35 Q10.45 2.35 8.8 -2.25 8.2 -3.85 7.0 -4.65 L6.75 -4.7 6.55 -4.6 6.5 -4.4 6.55 -4.2 7.5 -2.75 7.45 -2.75 7.4 -2.7 7.1 -2.85 M7.5 -1.95 L7.75 -2.25 Q8.25 -1.05 8.25 0.2 L7.95 0.2 7.5 -1.95" fill="#00ff00" fill-opacity="0.6627451" fill-rule="evenodd" stroke="none"/>
    <path d="M-6.75 -2.3 L-7.2 -1.2 -7.5 -0.6 Q-9.2 3.55 -6.55 5.85 L-6.4 6.05 -6.45 6.25 -6.6 6.4 -6.8 6.45 Q-8.5 6.1 -9.0 4.5 -10.1 0.5 -7.3 -2.65 L-7.1 -2.75 -6.85 -2.7 -6.75 -2.55 -6.75 -2.3 M-2.25 -5.85 L-2.05 -5.75 Q0.7 -6.2 3.4 -7.05 L3.6 -7.05 3.75 -6.95 4.75 -5.55 4.8 -5.4 4.8 -5.2 4.65 -5.1 3.75 -5.05 3.25 -5.65 -1.95 -4.45 Q-1.9 -0.65 -3.2 3.0 -1.65 4.9 0.6 6.05 L0.75 6.25 0.8 6.35 0.8 6.6 0.65 6.75 0.4 6.75 Q-2.35 5.8 -4.2 3.6 L-4.3 3.45 -4.25 3.25 -4.05 2.7 -3.65 0.75 Q-3.1 -1.95 -3.05 -4.95 L-3.05 -5.0 Q-3.0 -5.5 -2.45 -5.8 L-2.25 -5.85 M7.5 -2.75 L6.55 -4.2 6.5 -4.4 6.55 -4.6 6.75 -4.7 7.0 -4.65 Q8.2 -3.85 8.8 -2.25 10.45 2.35 7.4 6.35 L7.25 6.5 4.4 7.15 4.2 7.1 4.05 7.0 4.0 6.8 4.05 6.65 Q4.8 5.5 5.95 5.65 L7.15 3.85 Q7.95 2.4 8.2 1.05 L8.35 0.9 8.4 0.9 8.7 0.55 8.7 0.5 Q8.55 0.2 8.25 0.2 8.25 -1.05 7.75 -2.25 L7.5 -2.75" fill="#00ff00" fill-rule="evenodd" stroke="none"/>
  </g>
</svg>
