<?xml version="1.0" encoding="UTF-8" standalone="no"?>
<svg xmlns:ffdec="https://www.free-decompiler.com/flash" xmlns:xlink="http://www.w3.org/1999/xlink" ffdec:objectType="shape" height="16.75px" width="16.95px" xmlns="http://www.w3.org/2000/svg">
  <g transform="matrix(1.0, 0.0, 0.0, 1.0, 8.45, 8.35)">
    <path d="M-7.15 -3.0 L-7.2 -3.0 Q-8.45 -0.4 -8.05 2.5 -7.85 4.1 -6.95 5.5 L-6.9 5.55 Q-6.45 6.2 -5.95 6.25 -5.4 6.4 -4.8 5.9 L-4.65 5.65 -4.6 5.4 -4.65 5.1 -4.75 4.9 Q-4.85 4.7 -5.05 4.65 L-5.3 4.5 -5.9 3.65 -5.85 3.65 Q-6.5 1.8 -6.15 -0.2 L-5.5 -2.45 Q-4.85 -3.9 -3.6 -4.9 L-2.6 -5.6 Q-1.4 -6.4 -0.15 -6.15 L-0.05 -6.1 0.25 -5.95 Q0.4 -5.75 0.8 -5.75 L1.15 -5.85 1.35 -6.0 1.55 -6.45 1.55 -6.55 1.4 -6.95 Q0.45 -8.2 -1.2 -8.0 L-1.35 -7.95 Q-5.4 -6.75 -7.15 -3.0 M2.95 -3.75 L2.45 -3.85 2.4 -3.85 2.2 -4.5 2.3 -5.0 2.65 -5.4 3.15 -5.55 4.85 -5.65 5.4 -5.5 5.8 -5.05 Q6.75 -2.55 8.0 -0.25 L8.25 -0.05 8.5 0.45 Q8.6 1.45 8.05 2.0 L7.95 2.05 Q6.55 3.15 5.4 4.4 L2.9 7.25 2.7 7.5 2.75 7.45 2.4 7.95 2.05 8.3 1.55 8.4 Q-1.5 8.3 -4.1 6.7 L-4.55 6.15 -4.55 6.1 -4.6 6.15 Q-5.35 6.8 -6.05 6.6 -6.65 6.5 -7.2 5.7 -8.15 4.25 -8.35 2.55 -8.75 -0.45 -7.45 -3.15 -5.65 -7.0 -1.4 -8.25 L-1.25 -8.3 Q0.6 -8.55 1.7 -7.15 L1.9 -6.55 1.9 -6.45 1.6 -5.75 1.3 -5.55 0.8 -5.4 Q0.2 -5.4 -0.05 -5.75 L-0.15 -5.8 -0.2 -5.8 Q-1.35 -6.05 -2.4 -5.35 L-2.4 -5.3 -3.4 -4.65 -3.4 -4.6 Q-4.6 -3.7 -5.2 -2.3 L-5.2 -2.35 -5.85 -0.15 Q-6.2 1.75 -5.55 3.55 L-5.6 3.5 -5.1 4.25 -5.05 4.25 -4.95 4.35 Q-4.65 4.45 -4.5 4.7 L-4.45 4.8 -4.25 5.2 -3.95 4.95 -3.7 4.9 -3.05 4.95 Q-1.6 5.65 0.0 5.85 L1.05 5.95 2.95 3.45 5.6 0.85 6.0 0.7 6.1 0.9 3.35 3.45 2.35 4.8 2.1 5.15 1.7 5.65 1.2 6.3 0.0 6.2 -3.2 5.25 -3.7 5.25 -3.85 5.25 -4.15 5.6 -4.2 6.05 -3.9 6.45 Q-1.4 8.0 1.6 8.1 L1.9 8.0 2.15 7.8 2.45 7.3 2.6 7.15 3.4 6.15 2.95 6.5 5.15 4.15 7.75 1.8 7.8 1.75 Q8.25 1.3 8.15 0.5 L8.0 0.15 7.75 0.0 Q6.45 -2.4 5.5 -4.95 L5.25 -5.2 4.85 -5.35 3.15 -5.25 2.85 -5.15 2.6 -4.9 2.55 -4.55 Q2.6 -4.05 2.95 -3.75 M5.4 -0.55 L5.1 -0.65 5.05 -0.65 5.0 -0.6 3.95 -2.85 4.35 -2.75 5.4 -0.55" fill="#00ff00" fill-opacity="0.32941177" fill-rule="evenodd" stroke="none"/>
    <path d="M-7.15 -3.0 Q-5.4 -6.75 -1.35 -7.95 L-1.2 -8.0 Q0.45 -8.2 1.4 -6.95 L1.55 -6.55 1.55 -6.45 1.35 -6.0 1.15 -5.85 0.8 -5.75 Q0.4 -5.75 0.25 -5.95 L-0.05 -6.1 -0.15 -6.15 Q-1.4 -6.4 -2.6 -5.6 L-3.6 -4.9 Q-4.85 -3.9 -5.5 -2.45 L-6.15 -0.2 Q-6.5 1.8 -5.85 3.65 L-5.9 3.65 -5.3 4.5 -5.05 4.65 Q-4.85 4.7 -4.75 4.9 L-4.65 5.1 -4.6 5.4 -4.65 5.65 -4.8 5.9 Q-5.4 6.4 -5.95 6.25 -6.45 6.2 -6.9 5.55 L-6.95 5.5 Q-7.85 4.1 -8.05 2.5 -8.45 -0.4 -7.2 -3.0 L-7.15 -3.0 M6.0 0.7 L6.3 0.65 6.5 1.0 Q5.0 2.1 3.75 3.5 L2.3 5.25 2.0 5.7 1.4 6.6 0.05 6.5 Q-1.7 6.3 -3.3 5.55 L-3.55 5.55 -3.7 5.6 -3.85 5.75 -3.9 5.95 -3.75 6.15 Q-1.3 7.7 1.6 7.75 L1.75 7.75 1.9 7.6 2.2 7.1 2.25 7.05 3.5 5.6 3.5 5.55 4.9 3.95 7.55 1.55 7.55 1.5 Q7.9 1.15 7.85 0.55 L7.75 0.35 7.6 0.25 7.45 0.1 6.0 -2.85 6.0 -2.9 5.95 -3.0 5.2 -4.8 5.05 -4.95 4.9 -5.0 3.2 -4.9 3.0 -4.85 2.9 -4.75 2.85 -4.55 Q2.9 -4.05 3.4 -3.85 L4.2 -3.8 4.4 -3.4 2.95 -3.75 Q2.6 -4.05 2.55 -4.55 L2.6 -4.9 2.85 -5.15 3.15 -5.25 4.85 -5.35 5.25 -5.2 5.5 -4.95 Q6.45 -2.4 7.75 0.0 L8.0 0.15 8.15 0.5 Q8.25 1.3 7.8 1.75 L7.75 1.8 5.15 4.15 2.95 6.5 3.4 6.15 2.6 7.15 2.45 7.3 2.15 7.8 1.9 8.0 1.6 8.1 Q-1.4 8.0 -3.9 6.45 L-4.2 6.05 -4.15 5.6 -3.85 5.25 -3.7 5.25 -3.2 5.25 0.0 6.2 1.2 6.3 1.7 5.65 2.15 5.2 2.35 4.8 3.35 3.45 6.1 0.9 6.0 0.7 M5.8 -0.4 L5.4 -0.55 4.35 -2.75 4.75 -2.6 4.8 -2.55 5.8 -0.4 M-5.8 -2.55 Q-5.15 -4.1 -3.8 -5.15 L-2.75 -5.85 Q-1.45 -6.75 0.0 -6.45 L0.1 -6.4 0.5 -6.2 0.55 -6.15 0.8 -6.05 1.0 -6.1 1.15 -6.2 1.25 -6.45 1.25 -6.55 1.15 -6.75 Q0.3 -7.85 -1.15 -7.65 L-1.25 -7.65 Q-5.2 -6.45 -6.9 -2.9 -8.1 -0.35 -7.7 2.45 -7.5 4.0 -6.65 5.35 L-5.9 5.95 Q-5.45 6.05 -5.0 5.65 L-4.95 5.55 -4.9 5.4 -4.95 5.2 -5.0 5.1 -5.15 4.95 -5.5 4.75 -5.5 4.7 -6.2 3.75 Q-6.85 1.85 -6.45 -0.25 L-6.45 -0.3 -5.8 -2.55" fill="#00ff00" fill-opacity="0.6627451" fill-rule="evenodd" stroke="none"/>
    <path d="M6.3 0.65 L6.45 0.6 6.55 0.45 6.65 0.5 Q6.95 0.2 7.4 0.1 L7.3 0.0 5.8 -0.4 4.8 -2.55 4.85 -2.6 4.8 -2.65 4.85 -2.7 4.95 -2.6 5.0 -2.6 5.25 -2.55 5.45 -2.45 6.0 -2.85 7.45 0.1 7.6 0.25 7.75 0.35 7.85 0.55 Q7.9 1.15 7.55 1.5 L7.55 1.55 4.9 3.95 3.5 5.55 2.3 5.25 3.75 3.5 Q5.0 2.1 6.5 1.0 L6.3 0.65 M5.95 -3.0 L4.4 -3.4 4.2 -3.8 3.4 -3.85 Q2.9 -4.05 2.85 -4.55 L2.9 -4.75 3.0 -4.85 3.2 -4.9 4.9 -5.0 5.05 -4.95 5.2 -4.8 5.95 -3.0 M2.1 5.15 L2.35 4.8 2.15 5.2 2.1 5.15 M-5.8 -2.55 L-6.45 -0.3 -6.45 -0.25 Q-6.85 1.85 -6.2 3.75 L-5.5 4.7 -5.5 4.75 -5.15 4.95 -5.0 5.1 -4.95 5.2 -4.9 5.4 -4.95 5.55 -5.0 5.65 Q-5.45 6.05 -5.9 5.95 L-6.65 5.35 Q-7.5 4.0 -7.7 2.45 -8.1 -0.35 -6.9 -2.9 -5.2 -6.45 -1.25 -7.65 L-1.15 -7.65 Q0.3 -7.85 1.15 -6.75 L1.25 -6.55 1.25 -6.45 1.15 -6.2 1.0 -6.1 0.8 -6.05 0.55 -6.15 0.5 -6.2 0.1 -6.4 0.0 -6.45 Q-1.45 -6.75 -2.75 -5.85 L-3.8 -5.15 Q-5.15 -4.1 -5.8 -2.55 M3.5 5.6 L2.25 7.05 2.2 7.1 1.9 7.6 1.75 7.75 1.6 7.75 Q-1.3 7.7 -3.75 6.15 L-3.9 5.95 -3.85 5.75 -3.7 5.6 -3.55 5.55 -3.3 5.55 Q-1.7 6.3 0.05 6.5 L1.4 6.6 2.0 5.7 3.5 5.6" fill="#00ff00" fill-rule="evenodd" stroke="none"/>
  </g>
</svg>
