<?xml version="1.0" encoding="UTF-8" standalone="no"?>
<svg xmlns:ffdec="https://www.free-decompiler.com/flash" xmlns:xlink="http://www.w3.org/1999/xlink" ffdec:objectType="shape" height="19.65px" width="19.65px" xmlns="http://www.w3.org/2000/svg">
  <g transform="matrix(1.0, 0.0, 0.0, 1.0, 11.7, 16.1)">
    <path d="M-10.6 -3.65 L-10.9 -3.85 -10.9 -3.95 -9.95 -6.6 -9.55 -5.9 -8.55 -5.8 -8.3 -6.1 Q-7.4 -7.25 -7.75 -8.5 L-8.25 -10.25 -8.7 -11.35 -8.85 -11.65 -8.85 -11.7 -8.95 -11.85 -9.4 -12.65 -9.45 -12.7 -9.85 -13.4 -10.45 -14.2 -10.85 -14.65 -10.95 -14.65 -11.7 -15.5 -11.6 -15.7 -8.85 -15.15 -8.5 -14.8 -7.55 -14.2 -7.45 -14.1 -6.85 -13.6 -6.35 -13.25 -5.35 -12.7 -3.2 -11.75 -1.45 -11.25 -1.0 -11.45 -0.75 -11.55 0.05 -12.6 0.7 -14.0 0.75 -14.2 0.75 -14.4 0.75 -14.7 0.95 -15.35 1.05 -15.45 1.1 -15.6 Q1.75 -16.05 2.3 -15.95 L2.3 -16.0 2.35 -16.05 2.45 -16.1 2.7 -15.8 2.7 -15.85 2.8 -15.85 2.9 -15.6 3.7 -13.95 3.8 -13.5 3.85 -13.45 4.3 -12.3 4.3 -12.25 4.3 -12.2 4.35 -12.1 5.0 -10.55 5.15 -10.15 5.2 -10.0 6.35 -7.45 6.4 -7.2 6.4 -7.15 7.0 -5.55 7.3 -4.55 7.4 -4.4 7.95 -0.85 7.9 -0.8 7.1 0.2 6.4 0.85 5.5 1.6 4.5 2.1 3.7 2.55 2.0 2.85 0.5 3.25 0.85 2.9 1.8 2.6 3.6 2.1 4.65 1.8 5.0 1.4 6.65 0.1 6.85 0.3 Q7.3 0.15 7.0 -0.2 L7.45 -0.75 7.4 -0.8 7.25 -1.7 6.75 -2.05 6.65 -2.4 6.95 -2.75 7.1 -2.85 7.0 -3.6 6.9 -4.2 6.8 -4.2 6.8 -4.4 6.2 -6.25 5.75 -7.35 5.85 -7.45 5.7 -7.7 5.3 -8.9 5.05 -9.55 5.0 -9.8 5.0 -9.95 4.85 -9.95 4.15 -11.75 4.0 -12.0 Q3.55 -12.35 3.45 -12.95 L3.4 -13.05 3.35 -13.25 2.35 -15.55 2.35 -15.6 1.3 -15.25 1.25 -14.9 0.8 -13.1 0.65 -12.45 Q0.1 -12.25 0.05 -11.6 L0.1 -11.45 -0.4 -11.05 -1.2 -11.05 -2.95 -11.55 -3.95 -11.95 -4.95 -12.4 -5.95 -12.9 -6.95 -13.4 -8.3 -14.4 Q-8.7 -15.15 -9.6 -15.1 L-9.6 -14.95 -10.55 -15.0 -10.7 -14.95 -9.95 -14.1 -9.8 -13.9 -9.3 -13.45 -9.3 -13.55 Q-8.3 -13.65 -8.35 -12.4 L-8.55 -12.0 -8.5 -11.9 -8.3 -11.65 -8.25 -11.5 -8.25 -11.35 -7.5 -9.55 -7.45 -7.85 -7.4 -7.1 -7.35 -7.0 Q-7.8 -6.1 -8.45 -5.55 L-8.65 -5.4 -9.75 -5.35 Q-10.3 -5.3 -10.15 -4.8 L-10.6 -3.65 M0.15 3.3 L-1.6 3.55 -4.55 3.3 -6.7 2.8 Q-8.35 2.55 -9.8 1.65 L-10.15 1.4 -10.85 0.7 -10.7 0.7 -10.0 1.35 -9.85 1.5 -9.6 1.6 -9.4 1.45 -9.25 1.5 -8.05 2.05 -6.35 2.65 -4.65 3.05 -3.45 3.15 -2.45 3.2 -2.2 3.2 -0.4 3.1 -0.45 3.05 -0.4 3.05 -0.4 3.1 0.15 3.3 M-9.85 -0.2 L-9.65 -1.0 -9.45 -0.35 Q-9.35 0.25 -9.85 -0.2 M2.95 -11.55 L2.95 -11.5 Q3.45 -10.7 2.95 -10.2 2.3 -10.55 2.2 -11.45 L2.3 -11.65 Q2.85 -12.35 2.95 -11.55 M1.9 -8.2 L1.95 -7.7 1.85 -7.35 1.65 -7.4 Q0.8 -7.8 0.8 -8.75 L0.95 -8.9 Q1.5 -8.95 1.9 -8.2 M0.9 -3.55 L0.55 -4.85 0.65 -5.0 1.15 -4.75 1.4 -4.3 1.45 -3.5 0.9 -3.55 M4.85 -5.3 L4.75 -5.35 Q4.15 -6.05 4.55 -6.9 5.6 -6.65 5.2 -5.45 5.1 -5.1 4.85 -5.3 M1.3 -0.75 L1.45 -0.6 1.6 -0.25 1.35 0.35 1.1 0.3 Q0.1 -0.25 0.6 -0.95 L1.3 -0.75 M4.7 -1.15 L4.0 -2.0 4.2 -2.45 4.4 -2.6 4.9 -2.1 5.2 -1.55 Q5.55 -1.05 5.05 -1.05 L4.7 -1.15 M-1.85 -10.2 L-1.6 -9.9 -1.7 -9.2 -1.9 -8.9 Q-2.9 -9.35 -2.55 -10.5 L-1.85 -10.2 M-3.45 -7.35 L-3.35 -7.35 -2.55 -6.6 -2.2 -6.0 -2.25 -5.75 -2.35 -5.55 -2.5 -5.45 -2.9 -5.7 Q-3.7 -6.4 -3.45 -7.35 M-6.05 -12.1 L-5.4 -11.5 -5.4 -11.0 -5.5 -10.6 -5.6 -10.6 Q-6.4 -11.15 -6.25 -12.05 L-6.05 -12.1 M-6.85 -8.7 L-6.05 -7.95 -6.0 -7.4 Q-5.9 -6.75 -6.6 -6.9 L-6.75 -7.05 Q-7.55 -7.95 -6.85 -8.7 M-7.3 -4.05 L-6.9 -3.45 -6.5 -2.3 -6.5 -1.95 -6.95 -2.15 Q-7.55 -2.9 -7.7 -3.85 L-7.55 -4.25 -7.3 -4.05 M-3.3 -2.8 Q-2.7 -2.15 -2.95 -1.55 L-3.45 -1.75 Q-4.5 -2.55 -3.7 -3.2 L-3.3 -2.8 M-2.35 2.1 L-3.1 2.05 -3.4 1.55 -3.5 1.25 -3.1 1.0 -2.75 1.2 -2.65 1.25 -2.35 1.65 -2.35 2.1 M-6.2 0.35 Q-5.55 0.7 -5.8 1.2 L-6.4 1.15 -7.05 0.1 -6.2 0.35" fill="#000000" fill-rule="evenodd" stroke="none"/>
    <path d="M-10.15 -4.8 Q-10.3 -5.3 -9.75 -5.35 L-8.65 -5.4 -8.45 -5.55 Q-7.8 -6.1 -7.35 -7.0 -7.1 -6.25 -6.3 -6.15 L-6.0 -6.1 Q-5.4 -6.6 -5.6 -7.4 -5.9 -8.4 -6.55 -9.25 -6.85 -9.6 -7.2 -9.6 L-7.5 -9.55 -8.25 -11.35 -8.25 -11.5 -8.3 -11.65 Q-7.85 -12.1 -8.25 -13.0 -8.5 -13.7 -9.25 -14.05 L-9.95 -14.1 -10.7 -14.95 -10.55 -15.0 -9.6 -14.95 Q-9.0 -14.3 -8.55 -14.3 L-8.3 -14.4 -6.95 -13.4 -5.95 -12.9 -4.95 -12.4 -3.95 -11.95 -2.95 -11.55 -1.2 -11.05 -0.4 -11.05 0.1 -11.45 0.7 -11.75 0.95 -12.1 0.65 -12.45 0.8 -13.1 1.25 -14.9 1.3 -15.25 2.35 -15.6 2.35 -15.55 2.1 -15.25 Q2.05 -13.95 3.15 -13.05 L3.45 -12.95 Q3.55 -12.35 4.0 -12.0 L4.15 -11.75 4.85 -9.95 Q4.25 -9.55 4.85 -8.65 L5.55 -7.5 5.75 -7.35 6.2 -6.25 6.8 -4.4 6.8 -4.2 Q6.2 -4.05 6.4 -3.25 L6.5 -2.85 6.75 -1.8 Q6.9 -1.15 7.4 -0.8 L7.45 -0.75 7.0 -0.2 6.65 0.1 5.0 1.4 4.55 1.1 4.0 0.9 3.6 1.7 3.6 2.1 1.8 2.6 0.85 2.9 0.75 2.45 0.45 2.2 -0.3 2.25 -0.4 2.6 -0.4 3.05 -0.45 3.05 -0.4 3.1 -2.2 3.2 -1.65 2.9 -1.7 2.75 Q-1.9 1.9 -2.45 1.25 L-3.5 0.25 -3.75 0.2 Q-4.2 0.6 -4.0 1.25 L-3.6 1.9 -2.45 3.2 -3.45 3.15 -4.65 3.05 -6.35 2.65 -8.05 2.05 -9.25 1.5 -9.4 1.45 -9.6 1.6 -9.85 1.5 -10.0 1.35 -10.7 0.7 -10.2 0.3 -9.5 0.75 -9.35 0.8 -8.75 0.95 -8.7 0.7 -9.0 -0.5 -9.05 -0.55 -9.7 -1.55 Q-9.8 -2.5 -10.3 -3.25 L-10.6 -3.65 -10.15 -3.75 Q-9.6 -4.15 -10.15 -4.8 M1.75 -12.75 Q1.45 -12.05 1.75 -11.05 2.05 -10.05 2.65 -9.5 L3.45 -9.35 3.8 -9.95 3.55 -10.95 3.3 -11.6 2.6 -12.5 2.15 -12.9 1.75 -12.75 M0.7 -9.75 Q-0.3 -9.3 0.2 -8.25 L0.95 -6.9 Q1.35 -6.15 2.25 -6.05 L2.75 -6.4 3.0 -6.6 Q3.0 -8.05 2.05 -9.0 L1.45 -9.4 0.7 -9.75 M3.75 -7.05 L4.05 -5.35 Q4.25 -4.35 4.9 -3.7 L5.05 -3.65 5.3 -3.8 5.55 -4.05 5.75 -4.35 5.7 -5.1 Q5.7 -6.65 4.75 -7.45 4.0 -8.0 3.75 -7.05 M1.3 -5.15 L0.1 -5.95 -0.05 -5.95 Q-0.6 -5.0 -0.2 -3.9 L0.75 -2.25 0.95 -2.1 1.95 -2.05 Q2.5 -2.45 2.2 -3.1 L1.3 -5.15 M1.6 -0.25 L1.45 -0.6 1.3 -0.75 1.25 -0.85 0.7 -1.4 0.0 -1.9 -0.4 -1.7 -0.65 -1.35 -0.4 -0.35 0.2 0.9 0.7 1.35 1.5 1.65 2.3 1.05 1.95 0.35 1.6 -0.25 M3.7 -1.1 L3.9 -0.6 4.7 0.3 5.05 0.35 5.3 0.3 5.55 0.1 5.55 -0.3 5.3 -1.6 5.15 -2.1 Q5.0 -2.75 4.4 -3.0 L3.75 -3.15 3.55 -2.9 3.35 -2.4 3.7 -1.1 M-6.65 -12.9 L-6.85 -12.65 -7.05 -11.85 -6.6 -10.95 Q-6.0 -9.95 -5.0 -9.85 L-4.75 -9.95 Q-4.35 -10.3 -4.6 -10.75 L-5.25 -11.7 -5.9 -12.5 -6.65 -12.9 M-3.35 -9.8 L-2.65 -8.6 -1.9 -8.15 -1.75 -8.2 Q-1.3 -8.25 -1.2 -8.8 -1.15 -10.15 -2.2 -10.95 L-2.9 -11.4 -3.35 -11.05 Q-3.55 -10.45 -3.35 -9.8 M-4.2 -6.6 Q-3.85 -5.6 -3.15 -5.1 L-2.35 -4.55 -2.0 -4.45 -1.5 -4.85 -1.35 -5.05 Q-1.45 -6.45 -2.5 -7.55 -3.05 -8.1 -3.95 -8.25 -4.55 -7.55 -4.2 -6.6 M-7.4 -4.8 L-7.95 -4.85 -8.2 -4.8 Q-8.85 -4.15 -8.4 -3.3 L-7.7 -2.1 Q-7.25 -1.35 -6.45 -1.2 L-5.85 -1.3 -5.65 -1.55 -5.6 -1.7 -5.6 -1.9 -6.1 -2.95 -6.35 -3.4 -7.4 -4.8 M-6.85 -0.65 L-7.35 -1.05 Q-7.55 -0.9 -7.8 -0.8 -8.2 0.4 -7.4 1.05 L-7.35 1.1 -5.9 1.8 -5.25 1.75 Q-5.0 1.55 -5.35 1.2 L-6.2 -0.05 -6.4 -0.3 -6.85 -0.65 M-5.0 -3.45 Q-4.95 -2.15 -3.85 -1.15 L-2.75 -0.15 -1.85 -0.2 -1.75 -1.15 Q-1.7 -2.1 -2.35 -2.7 L-3.15 -3.45 -3.75 -3.9 -4.5 -4.25 -4.95 -3.95 -5.0 -3.45" fill="#d3e173" fill-rule="evenodd" stroke="none"/>
    <path d="M-10.6 -3.65 L-10.15 -4.8 Q-9.6 -4.15 -10.15 -3.75 L-10.6 -3.65 M-7.35 -7.0 L-7.4 -7.1 -7.45 -7.85 -7.5 -9.55 -7.2 -9.6 Q-6.85 -9.6 -6.55 -9.25 -5.9 -8.4 -5.6 -7.4 -5.4 -6.6 -6.0 -6.1 L-6.3 -6.15 Q-7.1 -6.25 -7.35 -7.0 M-8.3 -11.65 L-8.5 -11.9 -8.55 -12.0 -8.35 -12.4 Q-8.3 -13.65 -9.3 -13.55 L-9.3 -13.45 -9.8 -13.9 -9.95 -14.1 -9.25 -14.05 Q-8.5 -13.7 -8.25 -13.0 -7.85 -12.1 -8.3 -11.65 M-9.6 -14.95 L-9.6 -15.1 Q-8.7 -15.15 -8.3 -14.4 L-8.55 -14.3 Q-9.0 -14.3 -9.6 -14.95 M0.1 -11.45 L0.05 -11.6 Q0.1 -12.25 0.65 -12.45 L0.95 -12.1 0.7 -11.75 0.1 -11.45 M2.35 -15.55 L3.35 -13.25 3.4 -13.05 3.45 -12.95 3.15 -13.05 Q2.05 -13.95 2.1 -15.25 L2.35 -15.55 M4.85 -9.95 L5.0 -9.95 5.0 -9.8 5.05 -9.55 5.3 -8.9 5.7 -7.7 5.85 -7.45 5.75 -7.35 5.55 -7.5 4.85 -8.65 Q4.25 -9.55 4.85 -9.95 M6.8 -4.2 L6.9 -4.2 7.0 -3.6 7.1 -2.85 6.95 -2.75 6.65 -2.4 6.75 -2.05 7.25 -1.7 7.4 -0.8 Q6.9 -1.15 6.75 -1.8 L6.5 -2.85 6.4 -3.25 Q6.2 -4.05 6.8 -4.2 M7.0 -0.2 Q7.3 0.15 6.85 0.3 L6.65 0.1 7.0 -0.2 M5.0 1.4 L4.65 1.8 3.6 2.1 3.6 1.7 4.0 0.9 4.55 1.1 5.0 1.4 M0.85 2.9 L0.5 3.25 0.15 3.3 -0.4 3.1 -0.4 3.05 -0.4 2.6 -0.3 2.25 0.45 2.2 0.75 2.45 0.85 2.9 M-10.2 0.3 L-9.85 -0.2 Q-9.35 0.25 -9.45 -0.35 L-9.65 -1.0 -9.7 -1.55 -9.05 -0.55 -9.0 -0.5 -8.7 0.7 -8.75 0.95 -9.35 0.8 -9.5 0.75 -10.2 0.3 M1.75 -12.75 L2.15 -12.9 2.6 -12.5 3.3 -11.6 3.55 -10.95 3.8 -9.95 3.45 -9.35 2.65 -9.5 Q2.05 -10.05 1.75 -11.05 1.45 -12.05 1.75 -12.75 M2.95 -11.55 Q2.85 -12.35 2.3 -11.65 L2.2 -11.45 Q2.3 -10.55 2.95 -10.2 3.45 -10.7 2.95 -11.5 L2.95 -11.55 M0.7 -9.75 L1.45 -9.4 2.05 -9.0 Q3.0 -8.05 3.0 -6.6 L2.75 -6.4 2.25 -6.05 Q1.35 -6.15 0.95 -6.9 L0.2 -8.25 Q-0.3 -9.3 0.7 -9.75 M1.9 -8.2 Q1.5 -8.95 0.95 -8.9 L0.8 -8.75 Q0.8 -7.8 1.65 -7.4 L1.85 -7.35 1.95 -7.7 1.9 -8.2 M3.75 -7.05 Q4.0 -8.0 4.75 -7.45 5.7 -6.65 5.7 -5.1 L5.75 -4.35 5.55 -4.05 5.3 -3.8 5.05 -3.65 4.9 -3.7 Q4.25 -4.35 4.05 -5.35 L3.75 -7.05 M4.85 -5.3 Q5.1 -5.1 5.2 -5.45 5.6 -6.65 4.55 -6.9 4.15 -6.05 4.75 -5.35 L4.85 -5.3 M0.9 -3.55 L1.45 -3.5 1.4 -4.3 1.15 -4.75 0.65 -5.0 0.55 -4.85 0.9 -3.55 M1.3 -5.15 L2.2 -3.1 Q2.5 -2.45 1.95 -2.05 L0.95 -2.1 0.75 -2.25 -0.2 -3.9 Q-0.6 -5.0 -0.05 -5.95 L0.1 -5.95 1.3 -5.15 M1.6 -0.25 L1.95 0.35 2.3 1.05 1.5 1.65 0.7 1.35 0.2 0.9 -0.4 -0.35 -0.65 -1.35 -0.4 -1.7 0.0 -1.9 0.7 -1.4 1.25 -0.85 1.3 -0.75 0.6 -0.95 Q0.1 -0.25 1.1 0.3 L1.35 0.35 1.6 -0.25 M4.7 -1.15 L5.05 -1.05 Q5.55 -1.05 5.2 -1.55 L4.9 -2.1 4.4 -2.6 4.2 -2.45 4.0 -2.0 4.7 -1.15 M3.7 -1.1 L3.35 -2.4 3.55 -2.9 3.75 -3.15 4.4 -3.0 Q5.0 -2.75 5.15 -2.1 L5.3 -1.6 5.55 -0.3 5.55 0.1 5.3 0.3 5.05 0.35 4.7 0.3 3.9 -0.6 3.7 -1.1 M-6.65 -12.9 L-5.9 -12.5 -5.25 -11.7 -4.6 -10.75 Q-4.35 -10.3 -4.75 -9.95 L-5.0 -9.85 Q-6.0 -9.95 -6.6 -10.95 L-7.05 -11.85 -6.85 -12.65 -6.65 -12.9 M-1.85 -10.2 L-2.55 -10.5 Q-2.9 -9.35 -1.9 -8.9 L-1.7 -9.2 -1.6 -9.9 -1.85 -10.2 M-3.35 -9.8 Q-3.55 -10.45 -3.35 -11.05 L-2.9 -11.4 -2.2 -10.95 Q-1.15 -10.15 -1.2 -8.8 -1.3 -8.25 -1.75 -8.2 L-1.9 -8.15 -2.65 -8.6 -3.35 -9.8 M-3.45 -7.35 Q-3.7 -6.4 -2.9 -5.7 L-2.5 -5.45 -2.35 -5.55 -2.25 -5.75 -2.2 -6.0 -2.55 -6.6 -3.35 -7.35 -3.45 -7.35 M-4.2 -6.6 Q-4.55 -7.55 -3.95 -8.25 -3.05 -8.1 -2.5 -7.55 -1.45 -6.45 -1.35 -5.05 L-1.5 -4.85 -2.0 -4.45 -2.35 -4.55 -3.15 -5.1 Q-3.85 -5.6 -4.2 -6.6 M-6.05 -12.1 L-6.25 -12.05 Q-6.4 -11.15 -5.6 -10.6 L-5.5 -10.6 -5.4 -11.0 -5.4 -11.5 -6.05 -12.1 M-6.85 -8.7 Q-7.55 -7.95 -6.75 -7.05 L-6.6 -6.9 Q-5.9 -6.75 -6.0 -7.4 L-6.05 -7.95 -6.85 -8.7 M-7.4 -4.8 L-6.35 -3.4 -6.1 -2.95 -5.6 -1.9 -5.6 -1.7 -5.65 -1.55 -5.85 -1.3 -6.45 -1.2 Q-7.25 -1.35 -7.7 -2.1 L-8.4 -3.3 Q-8.85 -4.15 -8.2 -4.8 L-7.95 -4.85 -7.4 -4.8 M-7.3 -4.05 L-7.55 -4.25 -7.7 -3.85 Q-7.55 -2.9 -6.95 -2.15 L-6.5 -1.95 -6.5 -2.3 -6.9 -3.45 -7.3 -4.05 M-5.0 -3.45 L-4.95 -3.95 -4.5 -4.25 -3.75 -3.9 -3.15 -3.45 -2.35 -2.7 Q-1.7 -2.1 -1.75 -1.15 L-1.85 -0.2 -2.75 -0.15 -3.85 -1.15 Q-4.95 -2.15 -5.0 -3.45 M-6.85 -0.65 L-6.4 -0.3 -6.2 -0.05 -5.35 1.2 Q-5.0 1.55 -5.25 1.75 L-5.9 1.8 -7.35 1.1 -7.4 1.05 Q-8.2 0.4 -7.8 -0.8 -7.55 -0.9 -7.35 -1.05 L-6.85 -0.65 M-3.3 -2.8 L-3.7 -3.2 Q-4.5 -2.55 -3.45 -1.75 L-2.95 -1.55 Q-2.7 -2.15 -3.3 -2.8 M-2.35 2.1 L-2.35 1.65 -2.65 1.25 -2.75 1.2 -3.1 1.0 -3.5 1.25 -3.4 1.55 -3.1 2.05 -2.35 2.1 M-2.2 3.2 L-2.45 3.2 -3.6 1.9 -4.0 1.25 Q-4.2 0.6 -3.75 0.2 L-3.5 0.25 -2.45 1.25 Q-1.9 1.9 -1.7 2.75 L-1.65 2.9 -2.2 3.2 M-6.2 0.35 L-7.05 0.1 -6.4 1.15 -5.8 1.2 Q-5.55 0.7 -6.2 0.35" fill="#5a6415" fill-rule="evenodd" stroke="none"/>
  </g>
</svg>
