<?xml version="1.0" encoding="UTF-8" standalone="no"?>
<svg xmlns:ffdec="https://www.free-decompiler.com/flash" xmlns:xlink="http://www.w3.org/1999/xlink" ffdec:objectType="shape" height="19.15px" width="22.95px" xmlns="http://www.w3.org/2000/svg">
  <g transform="matrix(1.0, 0.0, 0.0, 1.0, 15.45, 16.55)">
    <path d="M3.05 -16.15 L3.05 -16.2 3.05 -16.15 2.5 -15.8 3.75 -13.5 3.05 -16.15 M-9.85 -3.15 L-9.9 -4.55 -10.35 -4.75 -10.6 -5.15 -10.75 -5.5 -10.75 -6.05 -10.75 -6.1 -10.8 -6.2 -11.0 -6.3 -11.2 -6.45 -11.15 -7.5 Q-12.35 -9.3 -14.5 -9.6 L-15.45 -9.55 Q-15.4 -11.75 -14.25 -13.45 L-12.0 -15.7 -6.45 -14.95 -6.2 -14.45 Q-4.7 -13.7 -2.9 -13.35 L-0.4 -13.1 0.8 -15.5 2.0 -15.95 Q2.65 -16.2 3.25 -16.55 4.35 -11.65 6.55 -7.15 L6.0 -5.95 7.5 -1.35 5.05 0.75 Q6.3 -0.1 7.2 -1.45 L5.55 -5.6 3.25 -4.4 Q2.3 -3.9 1.45 -3.65 L1.55 -3.5 2.0 -2.7 Q1.95 -2.25 2.2 -2.45 3.2 -3.2 4.1 -4.1 L4.15 -4.2 4.15 -4.1 3.45 -3.2 Q2.15 -2.75 2.25 -1.75 L2.15 -1.75 1.15 -3.75 1.1 -3.45 Q1.15 -2.45 2.1 -1.75 L0.15 -1.7 -0.35 -1.05 -0.5 -1.25 -0.55 -1.7 -0.55 -1.75 -0.4 -2.5 -0.1 -3.3 -0.05 -3.4 -0.8 -3.4 -2.8 -3.35 -5.85 -3.7 -5.9 -3.7 -5.85 -3.65 Q-4.1 -2.6 -2.15 -2.05 L-0.55 -1.75 -1.05 -1.7 Q-4.55 -2.55 -7.9 -3.9 L-9.45 -4.45 -9.85 -3.15 M4.1 1.25 Q2.75 1.85 1.25 2.1 L-0.65 2.4 2.65 1.7 4.1 1.25 M-6.95 2.2 L-8.5 1.85 Q-10.45 1.4 -10.4 0.75 -8.8 1.7 -6.95 2.2 M-10.4 0.7 L-10.4 0.65 Q-9.85 0.25 -9.7 -0.35 -9.5 -1.2 -9.65 -2.15 L-9.6 -1.9 -9.55 -0.65 Q-9.65 0.2 -10.4 0.7 M0.15 -1.7 L1.55 -1.9 1.05 -2.6 0.55 -3.15 0.15 -1.7 M1.15 -3.75 L1.15 -3.8 1.15 -3.75 M4.05 -5.2 L6.1 -6.7 6.25 -6.95 Q4.2 -11.3 2.3 -15.7 L0.9 -15.4 0.55 -14.65 -0.3 -13.15 -0.25 -13.15 0.0 -13.25 0.25 -13.35 0.45 -13.3 0.4 -13.15 0.25 -13.0 0.0 -13.0 -0.15 -12.85 -0.3 -12.65 -0.35 -12.35 -0.3 -12.0 0.1 -12.25 0.2 -12.25 0.25 -12.35 0.4 -12.5 0.7 -12.3 0.7 -12.2 0.6 -12.1 0.5 -12.05 0.2 -12.0 -0.3 -11.95 -0.15 -10.25 -1.05 -11.65 -1.1 -11.6 -1.55 -11.5 -1.7 -11.45 -1.9 -11.45 -1.85 -11.75 -1.8 -11.85 -1.5 -12.0 -1.35 -12.1 -1.3 -12.2 -1.55 -12.35 -2.3 -12.55 -2.3 -12.6 -2.3 -12.75 Q-1.05 -13.05 -2.4 -13.0 -4.2 -13.15 -5.9 -13.8 L-10.9 -15.45 Q-14.5 -14.2 -15.3 -9.95 -12.45 -9.65 -10.65 -7.45 L-9.95 -6.45 -9.55 -10.55 -9.7 -6.4 -10.3 -5.85 -10.5 -5.7 Q-5.7 -3.05 0.3 -4.25 L0.45 -4.05 Q1.5 -3.5 0.55 -4.3 L2.85 -4.7 1.4 -4.05 1.4 -3.95 1.5 -3.95 3.45 -4.9 4.05 -5.2 M-8.5 -9.95 L-9.6 -12.75 -10.45 -14.7 -9.1 -12.2 Q-8.65 -11.2 -8.35 -10.1 -8.3 -9.5 -8.6 -8.8 L-9.4 -7.85 -9.5 -7.85 -8.5 -9.95 M2.3 -7.2 L3.5 -8.3 Q2.5 -6.9 0.85 -6.25 L-0.3 -5.95 -0.8 -6.1 Q0.5 -6.05 1.7 -6.75 L2.3 -7.2 M-5.7 -7.45 L-7.5 -8.45 -8.05 -8.85 Q-5.85 -7.3 -3.15 -6.7 L-3.0 -6.65 -4.4 -6.95 -5.7 -7.45 M0.35 -3.7 L0.3 -3.75 0.25 -3.7 Q-0.4 -2.35 -0.3 -1.35 L0.35 -3.7 M-5.8 -3.8 L-2.45 -3.55 0.2 -3.75 0.05 -3.9 Q-2.85 -3.55 -5.8 -3.85 L-5.9 -3.85 -5.8 -3.8 M-1.25 -12.6 L-0.45 -12.0 -0.5 -12.8 -1.25 -12.6 M-11.05 -6.75 L-10.35 -6.4 -10.95 -7.25 -11.05 -6.75 M-0.55 -11.95 L-0.65 -11.8 -0.4 -11.0 -0.55 -11.95" fill="#000000" fill-rule="evenodd" stroke="none"/>
    <path d="M3.05 -16.15 L3.75 -13.5 2.5 -15.8 3.05 -16.15 M5.05 0.75 L4.1 1.25 2.65 1.7 -0.65 2.4 -4.0 2.6 -6.95 2.2 Q-8.8 1.7 -10.4 0.75 L-10.45 0.7 -10.4 0.7 Q-9.65 0.2 -9.55 -0.65 L-9.6 -1.9 -9.65 -2.15 -9.8 -2.85 -9.85 -3.15 -9.45 -4.45 -7.9 -3.9 Q-4.55 -2.55 -1.05 -1.7 L-0.55 -1.7 -0.5 -1.25 -0.35 -1.05 0.15 -1.7 2.1 -1.75 2.15 -1.75 2.25 -1.75 Q2.15 -2.75 3.45 -3.2 L3.95 -3.55 4.15 -4.1 4.15 -4.2 4.1 -4.1 3.35 -3.55 2.0 -2.7 1.55 -3.5 2.05 -3.7 3.25 -4.4 5.55 -5.6 7.2 -1.45 Q6.3 -0.1 5.05 0.75 M-2.8 -3.35 L-0.8 -3.4 -0.1 -3.3 -0.4 -2.5 -1.05 -2.55 Q-2.1 -2.7 -2.8 -3.35 M-9.55 -10.55 L-9.95 -6.45 -10.65 -7.45 Q-12.45 -9.65 -15.3 -9.95 -14.5 -14.2 -10.9 -15.45 L-5.9 -13.8 Q-4.2 -13.15 -2.4 -13.0 -1.05 -13.05 -2.3 -12.75 L-2.3 -12.6 -2.3 -12.55 -1.55 -12.35 -1.3 -12.2 -1.35 -12.1 -1.5 -12.0 -1.8 -11.85 -1.85 -11.75 -1.9 -11.45 -1.7 -11.45 -1.55 -11.5 -1.1 -11.6 -1.05 -11.65 -0.15 -10.25 -0.3 -11.95 0.2 -12.0 0.5 -12.05 0.6 -12.1 0.7 -12.2 0.7 -12.3 0.4 -12.5 0.25 -12.35 0.2 -12.25 0.1 -12.25 -0.3 -12.0 -0.35 -12.35 -0.3 -12.65 -0.15 -12.85 0.0 -13.0 0.25 -13.0 0.4 -13.15 0.45 -13.3 0.25 -13.35 0.0 -13.25 -0.25 -13.15 -0.3 -13.15 0.55 -14.65 0.9 -15.4 2.3 -15.7 Q4.2 -11.3 6.25 -6.95 L6.1 -6.7 4.05 -5.2 3.75 -5.05 3.45 -4.9 2.85 -4.7 0.55 -4.3 0.3 -4.25 Q-5.7 -3.05 -10.5 -5.7 L-10.3 -5.85 -9.7 -6.4 -9.2 -6.5 -8.75 -6.7 -8.35 -6.75 -3.35 -4.85 -3.35 -5.0 Q-6.05 -5.75 -8.1 -7.85 L-8.15 -8.85 -7.5 -8.45 -5.7 -7.45 -3.8 -6.75 Q-2.0 -6.05 -0.3 -5.95 L0.85 -6.25 Q2.5 -6.9 3.5 -8.3 L2.3 -7.2 2.35 -7.35 -0.15 -6.65 Q-4.95 -7.05 -8.35 -10.1 -8.65 -11.2 -9.1 -12.2 L-10.45 -14.7 -9.6 -12.75 -8.5 -9.95 -8.9 -9.3 -9.55 -10.55" fill="#bebbb4" fill-rule="evenodd" stroke="none"/>
    <path d="M-1.05 -1.7 L-0.55 -1.75 -2.15 -2.05 Q-4.1 -2.6 -5.85 -3.65 L-5.85 -3.7 -2.8 -3.35 Q-2.1 -2.7 -1.05 -2.55 L-0.4 -2.5 -0.55 -1.75 -0.55 -1.7 -1.05 -1.7 M-0.8 -3.4 L-0.05 -3.4 -0.1 -3.3 -0.8 -3.4 M0.15 -1.7 L0.55 -3.15 1.05 -2.6 1.55 -1.9 0.15 -1.7 M3.45 -3.2 L4.15 -4.1 3.95 -3.55 3.45 -3.2 M4.1 -4.1 Q3.2 -3.2 2.2 -2.45 1.95 -2.25 2.0 -2.7 L3.35 -3.55 4.1 -4.1 M1.55 -3.5 L1.45 -3.65 Q2.3 -3.9 3.25 -4.4 L2.05 -3.7 1.55 -3.5 M-9.55 -10.55 L-8.9 -9.3 -8.5 -9.95 -9.5 -7.85 -9.4 -7.85 -8.6 -8.8 Q-8.3 -9.5 -8.35 -10.1 -4.95 -7.05 -0.15 -6.65 L2.35 -7.35 2.3 -7.2 1.7 -6.75 Q0.5 -6.05 -0.8 -6.1 L-0.3 -5.95 Q-2.0 -6.05 -3.8 -6.75 L-5.7 -7.45 -4.4 -6.95 -3.0 -6.65 -3.15 -6.7 Q-5.85 -7.3 -8.05 -8.85 L-7.5 -8.45 -8.15 -8.85 -8.1 -7.85 Q-6.05 -5.75 -3.35 -5.0 L-3.35 -4.85 -8.35 -6.75 -8.75 -6.7 -9.2 -6.5 -9.7 -6.4 -9.55 -10.55 M1.5 -3.95 L1.4 -3.95 1.45 -4.0 1.5 -3.95 M-11.05 -6.75 L-10.95 -7.25 -10.35 -6.4 -11.05 -6.75" fill="#9f9b8e" fill-rule="evenodd" stroke="none"/>
    <path d="M2.1 -1.75 Q1.15 -2.45 1.1 -3.45 L1.15 -3.75 2.15 -1.75 2.1 -1.75 M0.3 -4.25 L0.55 -4.3 Q1.5 -3.5 0.45 -4.05 L0.3 -4.25 M2.85 -4.7 L3.45 -4.9 3.75 -5.05 4.05 -5.2 3.45 -4.9 1.5 -3.95 1.45 -4.0 1.4 -4.05 2.85 -4.7 M0.35 -3.7 L-0.3 -1.35 Q-0.4 -2.35 0.25 -3.7 L0.35 -3.7 M-5.8 -3.85 Q-2.85 -3.55 0.05 -3.9 L0.2 -3.75 -2.45 -3.55 -5.8 -3.8 -5.8 -3.85" fill="#ffffff" fill-rule="evenodd" stroke="none"/>
  </g>
</svg>
