<?xml version="1.0" encoding="UTF-8" standalone="no"?>
<svg xmlns:ffdec="https://www.free-decompiler.com/flash" xmlns:xlink="http://www.w3.org/1999/xlink" ffdec:objectType="shape" height="7.75px" width="15.05px" xmlns="http://www.w3.org/2000/svg">
  <g transform="matrix(1.0, 0.0, 0.0, 1.0, 6.5, 4.3)">
    <path d="M8.35 -1.6 L8.35 -1.55 8.55 -1.25 8.55 -1.15 8.5 -0.95 8.5 -0.9 Q8.3 -0.8 8.15 -1.0 L8.15 -1.05 8.1 -1.05 7.8 -1.6 8.3 -1.6 8.35 -1.6 M2.6 -1.35 L2.9 -1.3 3.45 -1.3 3.5 -1.15 3.8 -0.75 2.2 -0.65 -1.25 -1.2 -1.25 -0.95 Q-1.4 -0.1 -1.15 0.8 L-0.2 2.65 0.55 3.2 -0.2 3.45 -0.25 3.45 -1.1 2.85 Q-1.95 2.0 -2.15 0.75 L-2.25 -1.4 -5.4 -2.7 Q-6.15 -3.1 -6.45 -3.85 L-6.3 -4.3 -4.55 -3.0 Q-2.9 -2.1 -1.0 -1.75 L2.6 -1.35" fill="#990000" fill-rule="evenodd" stroke="none"/>
  </g>
</svg>
