<?xml version="1.0" encoding="UTF-8" standalone="no"?>
<svg xmlns:ffdec="https://www.free-decompiler.com/flash" xmlns:xlink="http://www.w3.org/1999/xlink" ffdec:objectType="shape" height="62.8px" width="44.05px" xmlns="http://www.w3.org/2000/svg">
  <g transform="matrix(1.0, 0.0, 0.0, 1.0, 22.0, 31.4)">
    <path d="M15.95 -13.9 L17.05 -15.5 Q19.3 -18.75 20.7 -22.45 L21.7 -24.7 21.25 -24.5 16.7 -23.25 12.1 -22.95 12.35 -23.1 12.95 -23.65 Q14.55 -25.0 16.45 -25.75 L15.0 -26.05 6.9 -26.65 3.85 -26.7 0.05 -26.3 Q-2.05 -25.75 -3.7 -24.4 L-3.6 -24.65 -2.85 -25.55 Q-0.2 -27.75 2.85 -29.3 4.7 -30.25 6.6 -30.7 L3.4 -31.05 0.15 -31.0 Q-3.55 -30.7 -6.95 -29.35 L-7.0 -29.3 -7.2 -28.75 Q-8.05 -26.15 -7.15 -23.75 L-6.25 -22.0 -7.55 -23.5 -7.75 -23.7 -8.45 -24.35 -9.25 -24.85 -9.75 -25.05 -9.8 -25.05 -10.15 -24.85 -12.0 -23.55 -12.15 -23.45 -12.25 -23.3 -12.4 -23.2 -14.0 -21.75 -16.6 -19.1 -20.05 -14.65 -20.9 -13.25 -13.45 -17.85 Q-15.25 -14.65 -16.55 -11.2 -17.25 -9.45 -17.55 -7.55 L-8.1 -19.55 -7.95 -21.2 Q-7.5 -16.4 -5.95 -11.9 -5.2 -9.95 -3.9 -8.2 L-5.25 -16.75 Q-5.55 -18.45 -5.25 -19.8 L-5.15 -19.4 -4.85 -18.6 -3.2 -15.6 -0.55 -12.15 0.75 -10.85 2.0 -9.6 3.5 -8.35 8.0 -5.0 7.15 -7.55 6.55 -9.05 3.9 -15.45 8.75 -8.35 9.15 -7.75 10.45 -5.55 9.95 -7.85 9.25 -10.45 7.8 -15.3 7.8 -15.35 7.75 -15.5 12.45 -4.2 14.45 -9.25 14.75 -10.7 Q15.1 -14.5 14.45 -18.25 L15.85 -13.85 15.9 -13.8 15.95 -13.9 M4.35 -29.55 L3.55 -29.25 Q1.75 -28.5 0.3 -27.2 L-0.3 -26.65 Q1.4 -27.35 3.25 -27.15 L3.9 -27.15 7.1 -27.1 8.85 -27.05 Q12.6 -27.0 16.25 -26.05 L16.3 -26.05 17.5 -25.9 17.2 -25.75 15.8 -25.05 13.5 -23.35 14.25 -23.45 Q18.25 -23.75 22.05 -25.2 L20.2 -20.45 20.15 -20.35 18.1 -16.3 16.05 -13.45 20.9 -11.65 19.65 -11.3 Q18.2 -10.85 16.95 -10.05 L15.05 -8.3 15.25 -8.2 Q16.4 -8.05 17.6 -8.2 L20.1 -8.4 19.55 -7.6 19.05 -7.2 16.1 -5.05 12.55 -3.05 12.35 -2.85 12.3 -2.8 11.35 -1.7 10.45 -0.65 10.1 -0.4 9.15 0.1 9.0 0.1 8.0 0.05 Q7.65 -0.05 7.4 -0.3 L7.25 -0.35 5.2 0.45 5.75 0.6 Q7.95 1.2 8.5 3.55 L8.65 4.05 Q10.35 9.4 9.0 14.85 L8.55 16.0 7.6 17.1 7.0 17.2 6.15 17.25 5.1 17.05 4.8 17.0 3.9 16.55 3.8 16.45 3.75 16.4 3.55 16.0 Q3.0 14.45 3.75 12.95 L4.15 12.5 5.0 11.65 5.1 11.0 5.1 10.7 5.0 10.2 4.7 9.2 4.65 9.0 4.4 8.75 4.35 8.75 4.25 8.95 4.25 9.0 4.15 9.15 Q2.85 11.95 2.8 15.0 L2.9 15.8 5.5 24.25 Q5.9 25.6 5.45 27.0 5.05 28.15 4.15 28.95 L4.1 29.0 3.55 29.45 3.0 29.95 2.3 30.35 1.35 30.85 0.4 31.25 0.05 31.4 -1.65 31.25 -2.2 31.15 -3.15 30.55 Q-3.55 30.05 -3.4 29.45 -3.1 27.7 -2.45 26.1 -2.2 25.35 -2.35 24.65 L-3.3 20.7 -3.95 18.55 -4.15 17.8 -4.55 16.75 -5.45 17.4 -5.15 18.35 -5.0 19.15 -4.05 21.65 -3.95 21.8 Q-3.45 22.6 -3.2 23.5 -3.05 24.2 -3.15 24.85 L-3.45 25.3 Q-5.0 27.45 -7.35 28.7 -8.25 29.15 -9.1 28.7 L-10.25 27.5 -10.25 26.8 Q-10.25 25.5 -9.75 24.25 L-9.7 23.75 -10.2 21.8 -10.95 18.35 -11.75 14.65 -12.0 13.35 -12.05 10.75 -11.55 7.65 -10.65 4.65 -10.2 3.35 Q-9.65 1.6 -8.55 0.25 -11.75 -1.15 -13.55 -4.1 -14.15 -5.05 -14.0 -6.15 L-13.45 -8.65 Q-12.9 -10.55 -13.25 -12.45 L-18.1 -6.2 -17.45 -9.3 -17.45 -9.4 -17.4 -9.5 -17.35 -9.75 -17.25 -10.1 -17.2 -10.15 -17.15 -10.35 -16.95 -11.05 -16.85 -11.3 -16.7 -11.7 -16.5 -12.35 -16.4 -12.65 -14.5 -16.8 -14.9 -16.6 Q-18.65 -14.5 -22.0 -11.7 L-20.25 -14.9 Q-18.8 -17.3 -16.85 -19.35 L-12.45 -23.9 -12.55 -23.95 -14.75 -24.05 -20.1 -24.35 Q-16.65 -26.7 -12.75 -26.3 -10.35 -26.1 -8.15 -25.05 L-8.0 -24.95 Q-8.0 -27.1 -7.5 -29.1 L-7.35 -29.65 Q-6.05 -30.35 -4.55 -30.65 L1.9 -31.4 7.9 -30.8 Q6.05 -30.3 4.35 -29.55 M16.4 -12.65 L15.5 -12.8 15.2 -9.65 19.05 -11.7 16.4 -12.65 M9.85 -2.8 L9.65 -2.45 9.5 -2.35 9.1 -2.1 8.9 -1.95 8.4 -2.25 9.3 -3.45 Q8.95 -4.05 9.2 -4.7 L9.3 -4.85 9.6 -5.5 9.15 -6.6 9.1 -6.75 9.0 -6.85 8.95 -6.85 8.85 -6.7 8.35 -5.75 8.65 -4.5 5.3 -6.3 0.7 -9.9 -0.2 -9.75 -0.8 -9.65 -2.65 -9.35 -3.1 -9.7 -3.15 -10.15 -2.95 -10.5 -2.45 -10.3 0.2 -10.4 -0.9 -11.6 Q-3.3 -14.2 -4.9 -17.3 L-3.5 -7.7 Q-4.85 -8.6 -5.6 -10.1 -7.75 -14.35 -8.1 -19.2 L-11.1 -15.3 -6.8 -11.05 -6.75 -11.1 -6.7 -11.1 -6.25 -10.65 -6.2 -10.55 -6.15 -10.4 -6.2 -10.1 -6.2 -10.05 -6.85 -10.3 -8.1 -11.6 -8.25 -7.1 -8.3 -7.05 Q-8.55 -6.75 -9.0 -6.75 L-9.0 -6.8 Q-9.7 -6.85 -9.75 -7.65 -9.9 -9.65 -9.65 -11.45 L-9.4 -12.1 -9.35 -12.2 -9.3 -10.45 -8.8 -10.1 -8.4 -10.1 -8.4 -11.75 -9.05 -12.35 -9.55 -12.75 -9.8 -12.95 -10.25 -13.4 -11.0 -14.1 -11.1 -14.2 -11.55 -14.7 -12.75 -12.95 Q-12.6 -9.7 -13.25 -6.5 -13.65 -4.65 -12.45 -3.05 -10.9 -1.0 -8.3 -0.05 L-3.35 1.1 -3.05 1.1 -2.65 1.15 -2.75 1.1 -0.6 1.1 4.75 0.25 5.5 -0.05 7.4 -0.8 7.55 -0.7 8.05 -0.45 9.4 -0.55 10.2 -1.1 11.45 -2.7 Q11.85 -3.45 11.8 -4.3 L11.65 -4.8 Q10.8 -6.65 10.1 -8.6 10.9 -6.15 10.95 -3.65 L10.65 -4.1 9.85 -5.35 9.55 -4.7 Q9.55 -4.15 9.85 -3.65 L9.9 -3.55 9.9 -3.5 9.9 -3.35 9.75 -2.95 9.75 -2.9 9.85 -2.8 M0.2 -9.05 Q0.6 -8.2 0.5 -7.4 L0.5 -6.45 0.3 -4.7 0.15 -4.25 Q-0.55 -4.25 -0.95 -4.85 L-1.1 -5.3 -1.25 -6.5 -1.05 -9.3 -1.0 -9.35 -0.75 -7.55 -0.65 -7.45 Q-0.15 -7.25 0.0 -7.8 L0.2 -9.05 M14.35 -4.4 L19.45 -8.0 14.75 -7.45 12.9 -3.6 14.35 -4.4 M-10.2 -25.45 L-13.25 -25.8 -17.2 -25.25 -18.4 -24.8 -14.2 -24.7 -11.9 -24.3 -10.15 -25.4 -10.1 -25.4 -10.2 -25.45 M-4.05 -1.1 L-3.75 -1.45 -3.65 -1.5 -3.45 -1.3 -3.5 -1.3 Q-3.45 -1.05 -3.7 -1.05 L-3.75 -1.05 -3.75 -1.0 -4.5 -0.5 Q-6.45 0.2 -7.2 -1.65 -6.25 -0.25 -4.75 -0.75 L-4.65 -0.8 -4.4 -0.9 -4.05 -1.1 M-8.55 0.95 L-10.0 3.8 -10.1 4.05 -11.2 7.9 -11.6 9.85 -11.7 11.85 -11.5 14.25 -10.85 17.85 -9.95 21.45 -9.15 23.85 -9.9 25.6 Q-10.15 26.2 -10.05 26.9 -10.0 27.35 -9.55 27.55 L-9.15 27.0 -9.1 28.1 -7.6 28.25 -7.05 27.85 Q-5.4 26.75 -4.05 25.3 -3.05 24.1 -3.95 22.7 L-4.4 21.9 -5.1 19.8 -5.15 19.55 -5.2 19.3 -5.5 18.05 -5.65 17.45 -6.8 17.3 -6.85 17.25 -7.0 17.15 -7.25 16.8 -7.45 16.5 -7.6 15.95 -7.6 15.3 -7.55 14.75 -7.25 14.25 -7.0 14.1 -6.7 13.95 -6.55 13.95 -6.6 13.95 -6.65 14.0 Q-7.0 14.05 -7.15 14.35 L-7.3 14.8 -7.3 15.25 -7.25 15.45 Q-7.1 15.9 -6.5 16.0 L-6.0 15.85 -5.35 15.35 -6.0 16.0 -6.8 16.2 -7.35 15.95 -7.35 16.0 -7.3 16.25 -7.25 16.35 -7.2 16.55 -6.85 16.9 -6.8 16.95 -6.75 17.0 -6.7 17.0 -5.6 17.15 -4.75 16.6 -4.6 16.4 -4.5 16.2 -4.45 16.4 -4.45 16.45 -4.45 16.5 -4.35 16.7 -4.2 17.05 -4.0 17.55 -3.6 18.6 -3.05 20.1 Q-2.1 23.1 -1.65 26.25 L-2.1 27.1 Q-2.7 28.3 -2.9 29.65 -3.0 30.1 -2.6 30.4 L-2.4 30.5 -2.2 29.1 -2.0 30.35 0.95 30.45 Q2.65 29.7 4.0 28.4 5.25 27.1 5.15 25.4 L4.75 23.5 2.6 16.3 2.45 15.35 2.5 14.45 Q2.7 11.3 3.75 8.4 L3.9 8.0 4.0 7.55 4.05 7.5 4.0 7.35 3.95 7.1 3.7 6.25 3.45 5.25 3.4 5.0 3.35 4.85 3.35 4.8 Q5.15 7.5 5.5 10.85 L5.35 12.5 5.25 12.55 5.15 12.55 5.05 12.55 4.95 12.55 Q4.55 12.55 4.2 12.8 3.9 13.0 3.85 13.35 L3.95 13.7 Q3.15 15.25 4.5 16.5 L5.35 16.9 Q7.15 17.15 8.3 15.9 L8.7 15.2 Q9.55 12.7 9.2 10.05 9.1 6.1 7.65 2.5 7.3 1.6 6.45 1.2 L4.9 0.65 4.8 0.65 4.4 0.75 4.25 0.75 4.2 0.75 2.1 1.15 -3.05 1.35 Q-5.7 1.2 -8.2 0.35 L-8.2 0.4 -8.3 0.6 -8.35 0.65 -8.55 0.95 M-6.55 10.55 L-6.75 10.45 -6.8 10.2 -6.75 10.0 -6.55 9.9 -6.4 10.0 -6.35 10.2 -6.4 10.45 -6.55 10.55" fill="#000000" fill-rule="evenodd" stroke="none"/>
    <path d="M-12.4 -23.2 L-12.25 -23.3 -12.15 -23.45 -12.0 -23.55 -10.15 -24.85 -9.8 -25.05 -9.75 -25.05 -9.25 -24.85 -8.45 -24.35 -7.75 -23.7 -7.55 -23.5 -6.25 -22.0 -7.15 -23.75 Q-8.05 -26.15 -7.2 -28.75 L-7.0 -29.3 -6.95 -29.35 Q-3.55 -30.7 0.15 -31.0 L3.4 -31.05 6.6 -30.7 Q4.7 -30.25 2.85 -29.3 -0.2 -27.75 -2.85 -25.55 L-3.6 -24.65 -3.7 -24.4 Q-2.05 -25.75 0.05 -26.3 L3.85 -26.7 6.9 -26.65 15.0 -26.05 16.45 -25.75 Q14.55 -25.0 12.95 -23.65 L12.35 -23.1 12.1 -22.95 16.7 -23.25 21.25 -24.5 21.7 -24.7 20.7 -22.45 Q19.3 -18.75 17.05 -15.5 L15.95 -13.9 15.85 -13.85 14.45 -18.25 Q15.1 -14.5 14.75 -10.7 L14.45 -9.25 12.45 -4.2 7.75 -15.5 7.8 -15.35 7.8 -15.3 9.25 -10.45 9.95 -7.85 10.45 -5.55 9.15 -7.75 8.75 -8.35 3.9 -15.45 6.55 -9.05 7.15 -7.55 8.0 -5.0 3.5 -8.35 2.0 -9.6 0.75 -10.85 -0.55 -12.15 -3.2 -15.6 -4.85 -18.6 -5.15 -19.4 -5.25 -19.8 Q-5.55 -18.45 -5.25 -16.75 L-3.9 -8.2 Q-5.2 -9.95 -5.95 -11.9 -7.5 -16.4 -7.95 -21.2 L-8.1 -19.55 -17.55 -7.55 Q-17.25 -9.45 -16.55 -11.2 -15.25 -14.65 -13.45 -17.85 L-20.9 -13.25 -20.05 -14.65 -16.6 -19.1 -14.0 -21.75 -14.25 -21.4 -15.45 -19.25 -15.7 -18.55 -10.75 -20.9 -11.05 -20.4 -11.95 -18.6 -12.0 -18.05 -12.0 -17.95 -11.95 -17.95 -11.05 -18.5 -8.8 -20.55 -10.6 -19.45 -9.4 -22.2 -12.25 -21.35 -13.9 -20.6 -12.4 -23.2 M10.25 -17.1 L7.6 -20.55 6.05 -22.15 6.6 -15.85 5.2 -18.3 3.95 -20.3 2.3 -22.3 2.6 -16.55 -1.2 -21.55 -1.15 -19.9 -1.1 -19.45 -1.0 -18.95 -0.65 -17.55 -3.8 -21.25 -2.8 -19.2 -2.55 -18.8 Q-1.55 -17.25 0.0 -16.2 L-0.8 -19.95 1.8 -15.95 3.1 -14.1 3.7 -13.5 2.95 -20.85 5.5 -16.3 Q6.4 -14.8 7.55 -13.45 L7.35 -17.55 7.1 -19.2 7.0 -20.05 9.65 -16.15 11.75 -13.65 11.8 -13.65 12.0 -15.8 12.0 -16.15 12.0 -16.55 11.75 -19.45 12.65 -17.65 12.6 -18.05 12.55 -18.3 12.5 -18.45 Q11.9 -20.2 10.75 -21.5 L11.15 -15.6 10.25 -17.1 M16.4 -12.65 L19.05 -11.7 15.2 -9.65 15.5 -12.8 16.4 -12.65 M14.35 -4.4 L12.9 -3.6 14.75 -7.45 19.45 -8.0 14.35 -4.4 M-10.2 -25.45 L-10.15 -25.4 -11.9 -24.3 -14.2 -24.7 -18.4 -24.8 -17.2 -25.25 -13.25 -25.8 -10.2 -25.45" fill="#333333" fill-rule="evenodd" stroke="none"/>
    <path d="M-14.0 -21.75 L-12.4 -23.2 -13.9 -20.6 -12.25 -21.35 -9.4 -22.2 -10.6 -19.45 -8.8 -20.55 -11.05 -18.5 -11.95 -17.95 -12.0 -18.05 -11.95 -18.6 -11.05 -20.4 -10.75 -20.9 -15.7 -18.55 -15.45 -19.25 -14.25 -21.4 -14.0 -21.75 M10.25 -17.1 L11.15 -15.6 10.75 -21.5 Q11.9 -20.2 12.5 -18.45 L12.55 -18.3 12.6 -18.05 12.65 -17.65 11.75 -19.45 12.0 -16.55 12.0 -16.15 12.0 -15.8 11.8 -13.65 11.75 -13.65 9.65 -16.15 7.0 -20.05 7.1 -19.2 7.35 -17.55 7.55 -13.45 Q6.4 -14.8 5.5 -16.3 L2.95 -20.85 3.7 -13.5 3.1 -14.1 1.8 -15.95 -0.8 -19.95 0.0 -16.2 Q-1.55 -17.25 -2.55 -18.8 L-2.8 -19.2 -3.8 -21.25 -0.65 -17.55 -1.0 -18.95 -1.1 -19.45 -1.15 -19.9 -1.2 -21.55 2.6 -16.55 2.3 -22.3 3.95 -20.3 5.2 -18.3 6.6 -15.85 6.05 -22.15 7.6 -20.55 10.25 -17.1" fill="#999999" fill-rule="evenodd" stroke="none"/>
    <path d="M-0.2 -9.75 L0.7 -9.9 5.3 -6.3 8.65 -4.5 8.35 -5.75 8.85 -6.7 8.95 -6.85 9.0 -6.85 9.1 -6.75 9.15 -6.6 9.6 -5.5 9.3 -4.85 9.2 -4.7 Q8.95 -4.05 9.3 -3.45 L8.4 -2.25 8.9 -1.95 9.1 -2.1 9.5 -2.35 9.65 -2.45 9.85 -2.8 9.85 -2.85 9.9 -2.9 10.65 -4.1 10.95 -3.65 Q10.9 -6.15 10.1 -8.6 10.8 -6.65 11.65 -4.8 L11.8 -4.3 Q11.85 -3.45 11.45 -2.7 L10.2 -1.1 9.4 -0.55 8.05 -0.45 7.55 -0.7 7.4 -0.8 5.5 -0.05 4.75 0.25 -0.6 1.1 -2.75 1.1 -3.05 1.1 -3.35 1.1 -8.3 -0.05 Q-10.9 -1.0 -12.45 -3.05 -13.65 -4.65 -13.25 -6.5 -12.6 -9.7 -12.75 -12.95 L-11.55 -14.7 -11.1 -14.2 -11.0 -14.1 -10.25 -13.4 -9.8 -12.95 -9.55 -12.75 -9.05 -12.35 -9.1 -12.35 -9.3 -12.3 -9.35 -12.25 -9.35 -12.2 -9.4 -12.1 -9.65 -11.45 Q-9.9 -9.65 -9.75 -7.65 -9.7 -6.85 -9.0 -6.8 L-9.0 -6.75 Q-8.55 -6.75 -8.3 -7.05 L-8.25 -7.1 -8.1 -11.6 -6.85 -10.3 -6.2 -10.05 -6.2 -10.1 -6.15 -10.4 -6.2 -10.55 -6.25 -10.65 -6.7 -11.1 -6.75 -11.1 -6.8 -11.05 -11.1 -15.3 -8.1 -19.2 Q-7.75 -14.35 -5.6 -10.1 -4.85 -8.6 -3.5 -7.7 L-4.9 -17.3 Q-3.3 -14.2 -0.9 -11.6 L0.2 -10.4 -2.45 -10.3 -2.95 -10.5 -3.15 -10.15 -3.1 -9.7 -2.65 -9.35 -0.8 -9.65 -1.0 -9.35 -1.05 -9.3 -1.25 -6.5 -1.1 -5.3 -0.95 -4.85 Q-0.55 -4.25 0.15 -4.25 L0.3 -4.7 0.5 -6.45 0.5 -7.4 Q0.6 -8.2 0.2 -9.05 L0.1 -9.55 -0.2 -9.75 M3.5 -4.05 L3.35 -2.7 Q4.75 -2.8 6.2 -3.55 L3.85 -3.3 3.95 -4.15 Q3.05 -4.7 1.9 -3.1 L1.95 -3.1 3.5 -4.05 M-11.0 -6.7 L-11.9 -8.65 -11.6 -7.15 -12.85 -7.35 Q-12.4 -6.7 -11.35 -6.5 L-11.0 -6.7 M-4.05 -1.1 L-4.4 -0.9 -4.65 -0.8 -4.75 -0.75 Q-6.25 -0.25 -7.2 -1.65 -6.45 0.2 -4.5 -0.5 L-3.75 -1.0 -3.75 -1.05 -3.7 -1.05 Q-3.45 -1.05 -3.5 -1.3 L-3.45 -1.3 -3.65 -1.5 -3.75 -1.45 -4.05 -1.1 M-8.55 0.95 L-8.5 1.05 -7.65 1.95 Q-6.8 2.8 -5.55 3.1 L-5.2 3.2 -3.7 3.45 -1.7 3.35 0.65 2.65 1.7 2.25 4.4 1.05 4.9 0.65 6.45 1.2 Q7.3 1.6 7.65 2.5 9.1 6.1 9.2 10.05 9.55 12.7 8.7 15.2 L8.3 15.9 Q7.15 17.15 5.35 16.9 L4.5 16.5 Q3.15 15.25 3.95 13.7 L3.85 13.35 Q3.9 13.0 4.2 12.8 4.55 12.55 4.95 12.55 L5.05 12.55 5.15 12.55 5.25 12.55 5.35 12.5 5.5 10.85 Q5.15 7.5 3.35 4.8 L3.35 4.85 3.4 5.0 3.45 5.25 3.7 6.25 3.95 7.1 4.0 7.35 4.05 7.5 4.0 7.55 3.9 8.0 3.75 8.4 Q2.7 11.3 2.5 14.45 L2.45 15.35 2.6 16.3 4.75 23.5 5.15 25.4 Q5.25 27.1 4.0 28.4 2.65 29.7 0.95 30.45 L-2.0 30.35 -2.2 29.1 -2.4 30.5 -2.6 30.4 Q-3.0 30.1 -2.9 29.65 -2.7 28.3 -2.1 27.1 L-1.65 26.25 Q-2.1 23.1 -3.05 20.1 L-3.6 18.6 -4.0 17.55 -4.2 17.05 -4.35 16.7 -4.3 16.6 -4.3 16.4 -4.2 15.8 -3.85 14.85 -3.85 14.75 -3.9 14.75 -3.95 14.85 -4.1 15.05 -4.35 15.35 -4.7 15.95 -5.4 16.65 -6.25 16.8 Q-6.85 16.7 -7.25 16.35 L-7.3 16.25 -7.35 16.0 -7.35 15.95 -6.8 16.2 -6.0 16.0 -5.35 15.35 -6.0 15.85 -6.5 16.0 Q-7.1 15.9 -7.25 15.45 L-7.3 15.25 -7.3 14.8 -7.15 14.35 Q-7.0 14.05 -6.65 14.0 L-6.6 13.95 -6.55 13.95 -6.7 13.95 -7.0 14.1 -7.25 14.25 -7.55 14.75 -7.6 15.3 -7.6 15.95 -7.45 16.5 -7.25 16.8 -7.0 17.15 -6.95 17.25 -6.25 18.1 -6.1 18.3 -5.55 19.15 -5.1 19.8 -4.4 21.9 -3.95 22.7 Q-3.05 24.1 -4.05 25.3 -5.4 26.75 -7.05 27.85 L-7.6 28.25 -9.1 28.1 -9.15 27.0 -9.55 27.55 Q-10.0 27.35 -10.05 26.9 -10.15 26.2 -9.9 25.6 L-9.15 23.85 -9.95 21.45 -10.85 17.85 -11.5 14.25 -11.7 11.85 -11.6 9.85 -11.2 7.9 -10.1 4.05 -10.0 3.8 -8.55 0.95 M4.4 0.75 L4.3 0.8 4.25 0.8 4.25 0.75 4.4 0.75 M-8.95 5.15 L-8.9 4.9 -8.95 4.7 -9.2 4.6 -9.4 4.7 -9.5 4.9 -9.4 5.15 -9.2 5.25 -8.95 5.15 M-6.55 10.55 L-6.4 10.45 -6.35 10.2 -6.4 10.0 -6.55 9.9 -6.75 10.0 -6.8 10.2 -6.75 10.45 -6.55 10.55 M-1.5 7.4 L-1.4 7.6 -1.2 7.7 -0.95 7.6 -0.9 7.4 -0.95 7.2 -1.2 7.1 -1.4 7.2 -1.5 7.4" fill="#ffe3d5" fill-rule="evenodd" stroke="none"/>
    <path d="M-0.2 -9.75 L0.1 -9.55 0.2 -9.05 0.0 -7.8 Q-0.15 -7.25 -0.65 -7.45 L-0.75 -7.55 -1.0 -9.35 -0.8 -9.65 -0.2 -9.75 M-9.35 -12.2 L-9.35 -12.25 -9.3 -12.3 -9.1 -12.35 -9.05 -12.35 -8.4 -11.75 -8.4 -10.1 -8.8 -10.1 -9.3 -10.45 -9.35 -12.2" fill="#ffffff" fill-rule="evenodd" stroke="none"/>
    <path d="M-3.05 1.1 L-2.75 1.1 -2.65 1.15 -3.05 1.1 M10.65 -4.1 L9.9 -2.9 9.85 -2.85 9.85 -2.8 9.75 -2.9 9.75 -2.95 9.9 -3.35 9.9 -3.5 9.9 -3.55 9.85 -3.65 Q9.55 -4.15 9.55 -4.7 L9.85 -5.35 10.65 -4.1 M3.5 -4.05 L1.95 -3.1 1.9 -3.1 Q3.05 -4.7 3.95 -4.15 L3.85 -3.3 6.2 -3.55 Q4.75 -2.8 3.35 -2.7 L3.5 -4.05 M-11.0 -6.7 L-11.35 -6.5 Q-12.4 -6.7 -12.85 -7.35 L-11.6 -7.15 -11.9 -8.65 -11.0 -6.7 M4.9 0.65 L4.4 1.05 1.7 2.25 0.65 2.65 -1.7 3.35 -3.7 3.45 -5.2 3.2 -5.55 3.1 Q-6.8 2.8 -7.65 1.95 L-8.5 1.05 -8.55 0.95 -8.35 0.65 -8.3 0.6 -8.2 0.4 -8.2 0.35 Q-5.7 1.2 -3.05 1.35 L2.1 1.15 4.2 0.75 4.25 0.75 4.25 0.8 4.3 0.8 4.4 0.75 4.8 0.65 4.9 0.65 M-5.1 19.8 L-5.55 19.15 -6.1 18.3 -6.25 18.1 -6.95 17.25 -7.0 17.15 -6.85 17.25 -6.8 17.3 -5.65 17.45 -5.5 18.05 -5.2 19.3 -5.15 19.55 -5.1 19.8 M-7.25 16.35 Q-6.85 16.7 -6.25 16.8 L-5.4 16.65 -4.7 15.95 -4.35 15.35 -4.1 15.05 -3.95 14.85 -3.9 14.75 -3.85 14.75 -3.85 14.85 -4.2 15.8 -4.3 16.4 -4.3 16.6 -4.35 16.7 -4.45 16.5 -4.45 16.45 -4.45 16.4 -4.5 16.2 -4.6 16.4 -4.75 16.6 -5.6 17.15 -6.7 17.0 -6.75 17.0 -6.8 16.95 -6.85 16.9 -7.2 16.55 -7.25 16.35" fill="#edb192" fill-rule="evenodd" stroke="none"/>
    <path d="M-11.95 -17.95 L-12.0 -17.95 -12.0 -18.05 -11.95 -17.95 M-10.15 -25.4 L-10.2 -25.45 -10.1 -25.4 -10.15 -25.4" fill="#666666" fill-rule="evenodd" stroke="none"/>
    <path d="M-8.95 5.15 L-9.2 5.25 -9.4 5.15 -9.5 4.9 -9.4 4.7 -9.2 4.6 -8.95 4.7 -8.9 4.9 -8.95 5.15 M-1.5 7.4 L-1.4 7.2 -1.2 7.1 -0.95 7.2 -0.9 7.4 -0.95 7.6 -1.2 7.7 -1.4 7.6 -1.5 7.4" fill="#c85b64" fill-rule="evenodd" stroke="none"/>
  </g>
</svg>
