<?xml version="1.0" encoding="UTF-8" standalone="no"?>
<svg xmlns:ffdec="https://www.free-decompiler.com/flash" xmlns:xlink="http://www.w3.org/1999/xlink" ffdec:objectType="shape" height="61.15px" width="37.55px" xmlns="http://www.w3.org/2000/svg">
  <g transform="matrix(1.0, 0.0, 0.0, 1.0, 18.8, 30.6)">
    <path d="M8.85 -28.2 L9.15 -28.15 9.7 -25.8 Q12.0 -26.45 13.95 -25.15 L14.3 -24.85 Q16.65 -21.0 16.9 -16.6 L16.9 -14.2 16.45 -11.05 15.85 -9.25 Q15.5 -8.4 15.95 -7.55 L16.65 -6.0 17.15 -4.4 17.2 -3.4 16.95 -2.4 15.95 -0.9 14.6 0.25 13.15 0.95 11.5 1.55 10.45 1.55 10.3 1.55 10.9 2.25 11.3 2.75 Q12.45 4.45 12.85 6.55 13.5 9.9 13.65 13.35 L15.05 14.4 Q15.7 14.8 15.75 15.55 15.8 16.9 14.65 17.7 L13.85 18.35 13.6 18.45 13.5 18.5 14.4 22.45 Q14.65 22.3 14.95 22.25 L15.05 22.2 Q15.95 22.05 16.6 22.85 L16.7 22.95 16.85 22.95 Q17.2 23.05 17.6 23.3 18.2 23.65 18.5 24.35 19.1 25.85 18.3 27.3 L17.5 28.15 17.0 28.45 13.6 30.25 11.2 30.45 Q10.1 30.15 9.55 29.25 L9.25 28.6 8.65 26.4 8.55 25.75 Q7.85 22.8 6.75 20.0 L6.6 19.55 6.0 17.8 5.75 17.4 5.45 17.2 5.15 17.2 Q4.85 17.45 4.7 17.85 3.75 19.85 3.1 21.95 2.75 22.9 2.55 23.95 L2.85 24.25 3.05 24.55 Q3.35 25.3 3.2 26.1 2.9 27.45 1.75 28.25 0.8 28.85 -0.35 28.9 L-1.55 28.85 Q-2.6 28.7 -3.5 28.15 -4.65 27.4 -4.65 26.05 L-4.35 24.2 -2.6 19.05 -1.7 16.5 -1.7 16.3 -1.7 15.9 -1.75 12.75 -2.75 11.35 -4.45 8.0 -4.7 7.25 Q-5.05 4.1 -4.1 1.0 -3.75 -0.3 -2.8 -0.8 L-6.05 -0.2 -2.85 -1.95 -5.2 -2.65 -8.0 -3.5 -9.85 -4.15 -11.7 -4.55 -7.5 -6.45 -7.65 -6.5 -10.5 -7.2 -13.3 -8.05 -14.1 -8.3 Q-15.2 -8.6 -16.1 -9.05 L-17.7 -9.5 -11.2 -10.8 -11.85 -11.4 Q-15.15 -14.9 -18.1 -18.85 -18.9 -19.95 -18.8 -20.45 L-11.55 -21.05 -17.15 -22.85 -11.35 -23.6 -7.0 -24.4 -1.9 -25.65 -3.1 -26.1 -3.6 -26.3 Q-7.5 -27.5 -11.5 -27.05 L-10.15 -27.55 Q-5.1 -29.55 0.2 -30.6 L0.4 -30.3 0.4 -30.25 1.15 -29.1 1.3 -28.8 2.0 -27.6 2.6 -26.65 3.0 -25.95 3.45 -25.95 4.0 -26.3 Q6.15 -28.05 8.85 -28.2 M14.65 -23.3 L13.9 -24.75 13.05 -25.4 9.75 -25.25 Q9.5 -24.55 9.4 -23.25 8.85 -17.25 6.45 -11.95 L6.5 -12.45 Q8.0 -17.25 8.75 -22.2 L9.05 -25.0 8.85 -27.85 Q5.45 -27.4 2.9 -25.2 L0.05 -30.3 -9.2 -27.45 Q-4.45 -27.95 -0.4 -25.5 L-1.6 -25.15 -2.95 -24.8 -3.95 -24.55 -8.2 -23.6 -8.75 -23.5 -9.1 -23.45 -9.75 -23.3 -15.25 -22.55 -10.05 -20.95 Q-13.9 -20.0 -17.85 -20.05 L-18.6 -20.2 -10.95 -11.25 -10.85 -11.1 -10.8 -11.05 -10.65 -10.9 -10.6 -10.8 -16.4 -9.45 Q-10.65 -7.7 -4.5 -7.35 L-6.05 -6.45 -9.7 -4.95 -9.75 -4.95 -9.2 -4.95 -7.2 -4.95 -5.2 -5.15 -2.95 -5.65 -2.4 -5.8 -0.7 -6.25 Q0.4 -6.55 1.45 -7.1 L1.5 -7.1 1.55 -7.05 1.55 -6.9 1.5 -6.85 1.5 -6.8 1.5 -6.75 1.1 -5.85 0.75 -4.8 2.4 -5.75 3.3 -6.4 4.3 -7.1 4.6 -7.5 6.0 -9.35 7.05 -11.1 7.2 -11.35 8.15 -13.45 8.5 -13.95 8.6 -13.9 8.7 -13.25 8.75 -12.8 8.75 -12.05 8.8 -11.55 8.85 -10.75 8.85 -10.25 8.9 -10.3 9.6 -12.5 9.65 -12.55 10.2 -14.75 10.45 -15.85 10.55 -16.25 10.55 -18.0 11.05 -13.35 11.25 -8.9 11.35 -7.6 11.9 -7.7 11.9 -7.65 12.15 -6.4 12.45 -7.55 12.65 -8.15 12.45 -8.25 13.0 -10.1 13.2 -11.75 13.6 -13.4 13.95 -14.9 14.05 -15.9 14.1 -17.0 Q14.15 -18.85 13.65 -20.65 L14.55 -17.25 14.9 -15.45 15.2 -13.95 15.4 -12.5 15.6 -11.0 15.7 -9.6 16.25 -12.05 16.45 -14.9 16.45 -15.45 16.4 -16.3 Q16.2 -19.45 15.05 -22.35 L14.65 -23.3 M6.2 -16.65 Q6.05 -13.35 5.45 -10.55 L6.25 -23.95 Q6.85 -21.95 6.5 -19.75 L6.35 -18.4 6.2 -16.65 M15.2 -10.8 L15.25 -10.8 15.25 -11.85 15.05 -13.0 14.65 -14.9 14.3 -16.6 13.95 -13.75 13.1 -9.25 12.85 -8.1 12.7 -7.45 12.3 -5.9 12.25 -5.75 11.75 -4.2 11.65 -4.0 11.65 -3.9 11.65 -3.15 11.85 -2.15 12.15 -1.35 12.55 -0.5 12.45 0.45 11.5 0.7 9.8 -1.05 9.85 -1.35 8.55 -2.75 8.55 -3.55 8.8 -4.85 9.5 -6.3 9.4 -6.25 9.25 -6.15 Q8.55 -5.8 8.2 -5.25 L7.6 -4.6 6.45 -3.8 5.35 -3.0 3.75 -1.95 1.25 -1.35 Q0.95 -0.4 0.4 0.05 L0.35 0.1 0.25 -0.15 0.1 -0.75 -2.25 -0.8 -2.55 -0.6 -3.2 0.25 -3.35 0.45 -3.55 0.85 -3.65 1.1 -3.65 1.2 -3.9 2.0 -4.05 2.95 Q-4.55 4.9 -4.2 6.95 L-3.65 8.9 Q-2.85 10.85 -1.7 12.45 -0.9 10.9 -1.6 9.05 L-3.25 4.25 -3.35 3.6 -3.35 2.6 -3.25 3.25 -3.2 3.4 -3.15 3.6 -2.95 4.2 -2.8 4.55 Q-1.45 7.3 -1.0 10.4 L-1.05 11.05 Q-1.95 13.4 -1.3 15.8 L-1.25 15.95 -2.4 19.3 -3.3 21.95 -3.55 22.55 -4.25 25.4 Q-4.4 26.15 -4.15 26.9 L-3.7 27.55 Q-2.55 28.55 -1.05 28.6 0.45 28.7 1.8 28.1 L2.35 27.6 2.5 27.4 Q3.3 26.2 2.9 24.85 L2.8 24.6 2.6 24.45 2.45 24.45 2.3 25.0 2.05 25.0 2.1 24.7 2.65 22.5 Q3.2 20.2 4.25 18.1 L4.95 17.05 4.05 16.2 3.9 16.05 3.85 15.95 2.95 12.3 2.95 12.25 Q3.05 11.45 3.35 11.45 L3.35 13.4 3.7 14.8 Q4.2 16.45 5.75 17.0 L5.9 17.05 7.15 20.5 7.9 22.55 8.75 25.4 9.3 28.05 Q9.35 28.6 9.7 29.05 L11.0 30.0 11.45 30.1 Q13.1 30.15 14.6 29.45 15.95 28.8 17.2 27.95 L17.55 27.75 18.1 27.1 Q18.55 26.35 18.5 25.45 L18.25 24.3 18.05 23.95 17.85 23.7 16.9 23.35 16.65 23.3 16.35 23.25 16.3 23.25 16.45 23.05 16.35 22.8 15.6 22.5 15.45 22.5 15.35 22.55 15.2 22.55 15.05 22.6 14.9 22.65 14.7 22.85 14.6 23.0 14.65 23.15 14.6 23.2 15.05 24.95 14.9 25.15 14.55 24.1 14.35 23.6 14.2 22.95 13.7 21.05 13.15 18.9 13.15 18.85 11.9 18.35 11.35 17.8 Q10.4 15.1 8.55 13.0 7.85 12.15 7.75 11.1 L7.1 5.95 7.55 6.15 7.85 9.55 8.0 10.75 Q8.35 12.5 9.6 13.9 10.25 14.65 10.55 15.5 L11.5 17.55 Q11.85 18.1 12.4 18.3 L13.05 18.3 13.35 18.25 Q15.6 17.45 15.35 15.15 L13.0 13.25 12.35 12.15 Q11.7 10.8 11.8 9.4 11.95 6.5 11.4 3.75 L11.05 3.1 Q9.35 1.35 7.1 0.6 L7.6 -0.25 Q7.85 -0.55 7.9 -0.1 L7.9 0.45 7.95 0.55 8.15 0.7 9.7 1.35 13.55 0.6 14.75 -0.2 15.45 -1.1 16.25 -2.45 16.5 -3.9 16.35 -5.35 15.8 -6.9 15.4 -8.3 15.3 -9.45 15.2 -10.8 M10.85 -7.1 L10.55 -7.0 Q9.2 -3.95 10.55 -0.8 L10.6 -0.75 11.55 0.3 11.95 0.0 12.2 -0.3 12.1 -0.75 11.6 -1.8 Q10.65 -3.5 11.4 -5.45 11.8 -6.55 11.05 -7.0 L10.85 -7.1 M10.7 -7.35 L10.7 -7.3 10.75 -7.35 10.7 -7.35 M9.85 -1.6 L9.85 -5.5 Q8.2 -3.55 9.65 -1.8 L9.85 -1.6 M12.1 5.55 Q11.6 8.05 12.25 10.45 12.6 11.85 13.35 13.05 13.4 11.15 12.9 8.95 L12.25 5.9 12.1 5.55" fill="#000000" fill-rule="evenodd" stroke="none"/>
    <path d="M8.75 -22.2 L6.2 -16.65 6.35 -18.4 Q8.25 -21.45 9.0 -24.95 L9.05 -25.0 8.75 -22.2 M16.45 -15.45 L16.2 -16.2 Q15.3 -19.2 13.7 -21.85 L13.15 -22.65 Q13.0 -19.3 12.0 -16.1 L11.65 -15.65 9.95 -21.75 11.7 -17.4 Q12.65 -20.55 12.65 -23.75 L12.7 -23.8 14.05 -22.35 15.55 -19.35 14.65 -23.3 15.05 -22.35 Q16.2 -19.45 16.4 -16.3 L16.45 -15.45" fill="#999999" fill-rule="evenodd" stroke="none"/>
    <path d="M8.75 -22.2 Q8.0 -17.25 6.5 -12.45 L6.45 -11.95 Q8.85 -17.25 9.4 -23.25 9.5 -24.55 9.75 -25.25 L13.05 -25.4 13.9 -24.75 14.65 -23.3 15.55 -19.35 14.05 -22.35 12.7 -23.8 12.65 -23.75 Q12.65 -20.55 11.7 -17.4 L9.95 -21.75 11.65 -15.65 12.0 -16.1 Q13.0 -19.3 13.15 -22.65 L13.7 -21.85 Q15.3 -19.2 16.2 -16.2 L16.45 -15.45 16.45 -14.9 16.25 -12.05 15.7 -9.6 15.6 -11.0 15.4 -12.5 15.2 -13.95 14.9 -15.45 14.55 -17.25 13.65 -20.65 Q14.15 -18.85 14.1 -17.0 L14.05 -15.9 13.95 -14.9 13.6 -13.4 13.2 -11.75 13.0 -10.1 12.45 -8.25 12.65 -8.15 12.45 -7.55 12.15 -6.4 11.9 -7.65 11.9 -7.7 11.35 -7.6 11.25 -8.9 11.05 -13.35 10.55 -18.0 10.55 -16.25 10.45 -15.85 10.2 -14.75 9.65 -12.55 9.6 -12.5 8.9 -10.3 8.85 -10.25 8.85 -10.75 8.8 -11.55 8.75 -12.05 8.75 -12.8 8.7 -13.25 8.6 -13.9 8.5 -13.95 8.15 -13.45 7.2 -11.35 7.05 -11.1 6.0 -9.35 4.6 -7.5 4.3 -7.1 3.3 -6.4 2.4 -5.75 0.75 -4.8 1.1 -5.85 1.5 -6.75 1.5 -6.8 1.5 -6.85 1.55 -6.9 1.55 -7.05 1.5 -7.1 1.45 -7.1 Q0.4 -6.55 -0.7 -6.25 L-2.4 -5.8 -2.95 -5.65 -5.2 -5.15 -7.2 -4.95 -9.2 -4.95 -9.75 -4.95 -9.7 -4.95 -6.05 -6.45 -4.5 -7.35 Q-10.65 -7.7 -16.4 -9.45 L-10.6 -10.8 -10.65 -10.9 -10.8 -11.05 -10.85 -11.1 -10.95 -11.25 -18.6 -20.2 -17.85 -20.05 Q-13.9 -20.0 -10.05 -20.95 L-15.25 -22.55 -9.75 -23.3 -9.1 -23.45 -8.75 -23.5 -8.2 -23.6 -3.95 -24.55 -2.95 -24.8 -1.6 -25.15 -0.4 -25.5 Q-4.45 -27.95 -9.2 -27.45 L0.05 -30.3 2.9 -25.2 Q5.45 -27.4 8.85 -27.85 L9.05 -25.0 9.0 -24.95 Q8.25 -21.45 6.35 -18.4 L6.5 -19.75 Q6.85 -21.95 6.25 -23.95 L5.45 -10.55 Q6.05 -13.35 6.2 -16.65 L8.75 -22.2" fill="#333333" fill-rule="evenodd" stroke="none"/>
    <path d="M13.95 -13.75 L14.3 -16.6 14.65 -14.9 15.05 -13.0 15.25 -11.85 15.25 -10.8 15.2 -10.8 14.9 -11.3 14.2 -13.05 13.95 -13.75 M13.55 0.6 L9.7 1.35 8.15 0.7 7.95 0.55 7.9 0.45 7.9 -0.1 Q7.85 -0.55 7.6 -0.25 L5.95 -1.25 5.3 -1.55 3.75 -1.95 5.35 -3.0 6.45 -3.8 7.6 -4.6 8.2 -5.25 Q8.55 -5.8 9.25 -6.15 L9.4 -6.25 9.5 -6.3 8.8 -4.85 8.55 -3.55 8.55 -2.75 9.85 -1.35 9.8 -1.05 11.5 0.7 12.45 0.45 13.55 0.6 M3.9 16.05 L4.05 16.2 4.95 17.05 4.25 18.1 2.5 16.35 3.0 16.3 3.9 16.05 M2.5 27.4 L2.35 27.6 1.8 28.1 Q0.45 28.7 -1.05 28.6 -2.55 28.55 -3.7 27.55 L-4.15 26.9 Q-4.05 26.5 -3.5 26.4 L-1.65 26.5 Q-0.2 26.8 0.95 27.75 L1.1 27.85 Q1.9 27.95 2.5 27.4 M9.85 -1.6 L9.65 -1.8 Q8.2 -3.55 9.85 -5.5 L9.85 -1.6 M1.45 -0.3 L1.4 0.3 Q0.95 3.55 2.1 6.6 2.75 8.35 3.0 10.2 L2.95 10.25 1.3 5.75 0.95 3.55 Q0.9 1.9 1.25 0.4 L1.45 -0.3" fill="#edb192" fill-rule="evenodd" stroke="none"/>
    <path d="M15.2 -10.8 L15.3 -9.45 15.4 -8.3 15.8 -6.9 16.35 -5.35 16.5 -3.9 16.25 -2.45 15.45 -1.1 14.75 -0.2 13.55 0.6 12.45 0.45 12.55 -0.5 12.15 -1.35 11.85 -2.15 11.65 -3.15 11.65 -3.9 11.65 -4.0 11.75 -4.2 12.25 -5.75 12.3 -5.9 12.7 -7.45 12.85 -8.1 13.1 -9.25 13.95 -13.75 14.2 -13.05 14.9 -11.3 15.2 -10.8 M7.6 -0.25 L7.1 0.6 Q9.35 1.35 11.05 3.1 L11.4 3.75 Q11.95 6.5 11.8 9.4 11.7 10.8 12.35 12.15 L13.0 13.25 15.35 15.15 Q15.6 17.45 13.35 18.25 L13.05 18.3 12.4 18.3 Q11.85 18.1 11.5 17.55 L10.55 15.5 Q10.25 14.65 9.6 13.9 8.35 12.5 8.0 10.75 L7.85 9.55 7.55 6.15 7.1 5.95 7.75 11.1 Q7.85 12.15 8.55 13.0 10.4 15.1 11.35 17.8 L11.9 18.35 13.15 18.85 13.15 18.9 13.7 21.05 14.2 22.95 14.35 23.6 14.55 24.1 14.9 25.15 15.05 24.95 14.6 23.2 14.65 23.15 14.6 23.0 14.7 22.85 14.9 22.65 15.05 22.6 15.2 22.55 15.35 22.55 15.45 22.5 15.6 22.5 16.35 22.8 16.45 23.05 16.3 23.25 16.35 23.25 16.65 23.3 16.9 23.35 17.85 23.7 18.05 23.95 18.25 24.3 18.5 25.45 Q18.55 26.35 18.1 27.1 L17.55 27.75 17.2 27.95 Q15.95 28.8 14.6 29.45 13.1 30.15 11.45 30.1 L11.0 30.0 9.7 29.05 Q9.35 28.6 9.3 28.05 L8.75 25.4 7.9 22.55 7.15 20.5 5.9 17.05 5.75 17.0 Q4.2 16.45 3.7 14.8 L3.35 13.4 3.35 11.45 Q3.05 11.45 2.95 12.25 L2.95 12.3 3.85 15.95 3.9 16.05 3.0 16.3 2.5 16.35 4.25 18.1 Q3.2 20.2 2.65 22.5 L2.1 24.7 2.05 25.0 2.3 25.0 2.45 24.45 2.6 24.45 2.8 24.6 2.9 24.85 Q3.3 26.2 2.5 27.4 1.9 27.95 1.1 27.85 L0.95 27.75 Q-0.2 26.8 -1.65 26.5 L-3.5 26.4 Q-4.05 26.5 -4.15 26.9 -4.4 26.15 -4.25 25.4 L-3.55 22.55 -3.3 21.95 -2.4 19.3 -1.25 15.95 -1.3 15.8 Q-1.95 13.4 -1.05 11.05 L-1.0 10.4 Q-1.45 7.3 -2.8 4.55 L-2.95 4.2 -3.15 3.6 -3.2 3.4 -3.25 3.25 -3.35 2.6 -3.35 3.6 -3.25 4.25 -1.6 9.05 Q-0.9 10.9 -1.7 12.45 -2.85 10.85 -3.65 8.9 L-4.2 6.95 Q-4.55 4.9 -4.05 2.95 L-3.9 2.0 -3.65 1.2 -3.65 1.1 -3.55 0.85 -3.35 0.45 -3.2 0.25 -2.55 -0.6 -2.25 -0.8 0.1 -0.75 0.25 -0.15 0.35 0.1 0.4 0.05 Q0.95 -0.4 1.25 -1.35 L3.75 -1.95 5.3 -1.55 5.95 -1.25 7.6 -0.25 M10.85 -7.1 L11.05 -7.0 Q11.8 -6.55 11.4 -5.45 10.65 -3.5 11.6 -1.8 L12.1 -0.75 12.2 -0.3 11.95 0.0 11.55 0.3 10.6 -0.75 10.55 -0.8 Q9.2 -3.95 10.55 -7.0 L10.85 -7.1 M10.7 -7.35 L10.75 -7.35 10.7 -7.3 10.7 -7.35 M1.45 -0.3 L1.25 0.4 Q0.9 1.9 0.95 3.55 L1.3 5.75 2.95 10.25 3.0 10.2 Q2.75 8.35 2.1 6.6 0.95 3.55 1.4 0.3 L1.45 -0.3 M12.1 5.55 L12.25 5.9 12.9 8.95 Q13.4 11.15 13.35 13.05 12.6 11.85 12.25 10.45 11.6 8.05 12.1 5.55" fill="#ffe3d5" fill-rule="evenodd" stroke="none"/>
  </g>
</svg>
