<?xml version="1.0" encoding="UTF-8" standalone="no"?>
<svg xmlns:ffdec="https://www.free-decompiler.com/flash" xmlns:xlink="http://www.w3.org/1999/xlink" ffdec:objectType="shape" height="62.95px" width="36.0px" xmlns="http://www.w3.org/2000/svg">
  <g transform="matrix(1.0, 0.0, 0.0, 1.0, 18.0, 31.5)">
    <path d="M9.65 -29.1 L9.95 -29.05 10.5 -26.7 Q12.8 -27.35 14.75 -26.05 L15.1 -25.75 Q17.45 -21.95 17.7 -17.55 L17.7 -15.1 17.25 -12.0 16.65 -10.2 Q16.3 -9.35 16.75 -8.5 L17.45 -6.95 17.95 -5.35 18.0 -4.35 17.75 -3.35 16.75 -1.85 15.4 -0.7 13.95 0.0 12.3 0.6 11.25 0.6 11.1 0.6 11.7 1.3 12.1 1.85 Q13.25 3.55 13.65 5.6 14.3 9.0 14.45 12.45 L15.85 13.45 Q16.5 13.9 16.55 14.65 16.6 16.0 15.45 16.75 L14.75 17.3 Q14.55 17.35 14.4 17.5 L13.6 17.85 13.55 17.9 13.4 17.9 13.35 17.9 13.25 17.9 13.2 18.0 13.15 18.1 11.5 21.5 9.65 24.8 Q8.95 25.9 8.65 27.15 L9.7 28.05 9.8 28.35 9.8 28.75 9.8 29.65 Q9.7 30.45 8.95 30.75 L8.0 31.1 4.5 30.95 3.85 30.5 1.15 27.95 0.65 27.25 Q0.05 26.25 0.45 25.25 L0.65 24.8 1.45 24.0 1.4 23.55 0.5 20.1 0.2 19.0 -0.15 17.5 -0.95 14.2 -1.0 14.05 -1.0 13.1 -1.0 12.8 -0.95 11.85 -1.95 10.45 -3.65 7.1 -3.9 6.35 Q-4.25 3.2 -3.3 0.1 -2.95 -1.2 -2.0 -1.7 L-5.25 -1.1 -2.05 -2.9 -4.4 -3.6 -7.2 -4.45 -9.05 -5.1 -10.9 -5.5 -6.7 -7.4 -6.85 -7.45 -9.7 -8.15 -12.5 -9.0 -13.3 -9.25 -15.3 -9.95 -16.9 -10.4 -10.4 -11.75 -11.05 -12.35 Q-14.35 -15.85 -17.3 -19.8 -18.1 -20.85 -18.0 -21.35 L-10.75 -21.95 -16.35 -23.8 -10.55 -24.5 -6.2 -25.35 -1.1 -26.55 -2.3 -27.0 -2.8 -27.2 Q-6.7 -28.4 -10.7 -27.95 L-9.35 -28.45 Q-4.3 -30.45 1.0 -31.5 L1.2 -31.2 1.2 -31.15 1.95 -30.0 2.1 -29.7 2.8 -28.5 3.4 -27.55 3.8 -26.85 4.25 -26.85 4.8 -27.2 Q6.95 -28.95 9.65 -29.1 M7.15 -19.35 L7.0 -17.55 Q6.85 -14.3 6.25 -11.45 L7.05 -24.9 Q7.65 -22.9 7.3 -20.65 L7.15 -19.35 M9.55 -23.15 L9.85 -25.9 9.65 -28.75 Q6.25 -28.3 3.7 -26.1 L0.85 -31.2 -8.4 -28.35 Q-3.65 -28.85 0.4 -26.4 L-0.8 -26.05 -2.15 -25.7 -3.15 -25.45 -7.4 -24.5 -7.95 -24.45 -8.3 -24.4 -8.95 -24.25 -14.45 -23.5 -9.25 -21.9 Q-13.1 -20.95 -17.05 -20.95 L-17.8 -21.1 -10.15 -12.15 -10.05 -12.0 -10.0 -11.95 -9.85 -11.8 -9.8 -11.75 -15.6 -10.4 Q-9.85 -8.65 -3.7 -8.3 L-5.25 -7.4 -8.9 -5.9 -8.95 -5.85 -8.4 -5.85 -6.4 -5.85 -4.4 -6.1 -2.15 -6.6 -1.6 -6.7 0.1 -7.15 2.25 -8.05 2.3 -8.0 2.35 -7.95 2.35 -7.85 2.3 -7.75 2.3 -7.65 1.9 -6.75 1.55 -5.75 3.2 -6.65 4.1 -7.35 5.1 -8.05 5.4 -8.45 6.8 -10.3 7.85 -12.0 8.0 -12.25 8.95 -14.4 9.3 -14.9 9.4 -14.8 9.5 -14.2 9.55 -13.7 9.55 -12.95 9.6 -12.45 9.65 -11.7 9.65 -11.15 9.7 -11.2 10.4 -13.4 10.45 -13.45 11.0 -15.65 11.25 -16.75 11.25 -16.8 11.35 -17.15 11.35 -18.95 11.85 -14.25 12.05 -9.85 12.15 -8.5 12.7 -8.6 12.95 -7.35 13.25 -8.5 13.45 -9.05 13.25 -9.15 13.8 -11.05 14.0 -12.7 14.4 -14.35 14.75 -15.85 14.85 -16.85 14.9 -17.9 Q14.95 -19.75 14.45 -21.6 L15.35 -18.2 15.35 -18.15 15.7 -16.4 16.0 -14.9 16.2 -13.45 16.4 -11.95 16.5 -10.55 17.05 -13.0 17.25 -15.85 17.25 -16.35 17.2 -17.25 Q17.0 -20.35 15.85 -23.3 L15.45 -24.2 14.7 -25.7 13.85 -26.3 10.55 -26.15 Q10.3 -25.45 10.2 -24.2 9.65 -18.2 7.25 -12.85 L7.3 -13.35 Q8.8 -18.2 9.55 -23.15 M16.0 -11.75 L16.05 -11.75 16.05 -12.8 15.85 -13.95 15.45 -15.85 15.1 -17.55 14.75 -14.7 13.9 -10.2 13.65 -9.05 13.5 -8.35 13.1 -6.85 13.05 -6.7 12.55 -5.1 12.45 -4.95 12.45 -4.85 12.45 -4.1 12.65 -3.1 12.95 -2.3 13.35 -1.45 13.25 -0.45 12.3 -0.25 10.6 -2.0 10.65 -2.3 9.35 -3.7 9.35 -4.5 9.6 -5.75 10.3 -7.25 10.2 -7.15 10.05 -7.1 Q9.35 -6.75 9.0 -6.2 L8.4 -5.55 7.25 -4.75 6.15 -3.95 4.55 -2.85 2.05 -2.3 Q1.75 -1.35 1.2 -0.9 L1.15 -0.85 1.05 -1.1 0.9 -1.7 -1.45 -1.75 -1.75 -1.5 -2.4 -0.7 -2.55 -0.45 -2.75 -0.1 -2.85 0.2 -2.85 0.25 -3.1 1.05 -3.25 2.0 Q-3.75 4.0 -3.4 6.05 L-2.85 8.0 -0.9 11.55 Q-0.1 9.95 -0.8 8.1 L-2.45 3.3 -2.55 2.65 -2.55 1.65 -2.45 2.35 -2.4 2.45 -2.35 2.7 -2.15 3.25 -2.0 3.65 Q-0.65 6.4 -0.2 9.5 L-0.25 10.15 Q-0.75 11.5 -0.75 12.9 L-0.65 13.85 -0.55 14.6 1.8 23.65 1.75 23.7 1.8 23.7 2.4 23.05 3.1 22.0 4.75 18.8 5.35 17.5 5.7 16.65 5.85 16.2 4.85 15.25 4.7 15.1 4.65 15.0 3.75 11.4 3.75 11.3 Q3.85 10.55 4.15 10.55 L4.15 12.45 4.5 13.9 Q4.9 15.2 5.9 15.8 L5.95 15.85 6.05 15.85 6.1 15.85 6.65 15.85 6.85 15.8 6.9 15.75 8.0 15.6 8.75 15.65 6.65 16.0 6.6 16.05 6.55 16.0 6.2 16.25 6.15 16.4 5.7 17.4 5.45 17.9 5.4 18.05 5.05 18.95 3.6 21.6 2.65 23.0 1.8 23.9 Q0.95 24.6 0.6 25.6 0.4 26.1 0.6 26.65 L0.65 26.9 1.25 27.8 2.1 28.6 2.95 29.4 3.7 30.0 4.25 30.35 5.05 30.7 6.05 30.95 7.2 30.95 7.3 30.9 7.35 30.9 Q8.4 30.6 9.1 29.85 L9.25 29.6 Q9.55 28.7 9.15 27.9 L9.1 27.8 8.65 27.35 8.5 27.45 8.3 27.75 8.2 27.5 8.2 27.25 8.5 26.4 9.05 25.2 10.5 22.25 11.85 19.85 12.8 17.8 12.75 17.8 Q12.35 17.55 12.25 17.1 11.25 14.3 9.35 12.05 8.65 11.25 8.55 10.2 L7.9 5.0 8.35 5.2 8.65 8.65 8.8 9.8 Q9.15 11.55 10.4 13.0 11.05 13.7 11.35 14.6 L12.3 16.6 Q13.0 17.7 14.15 17.3 16.4 16.5 16.15 14.25 L13.8 12.35 13.15 11.2 Q12.5 9.85 12.6 8.45 12.75 5.6 12.2 2.8 L11.85 2.15 Q10.15 0.4 7.9 -0.35 L8.4 -1.2 Q8.6 -1.5 8.7 -1.05 L8.7 -0.5 8.75 -0.4 8.95 -0.25 10.5 0.4 14.35 -0.3 Q15.05 -0.65 15.55 -1.15 L16.25 -2.05 17.05 -3.4 17.3 -4.85 17.15 -6.3 16.6 -7.85 16.2 -9.25 16.1 -10.4 16.0 -11.75 M11.85 -7.95 L11.65 -8.05 11.35 -7.9 Q10.0 -4.85 11.35 -1.7 L11.4 -1.65 12.35 -0.65 12.75 -0.95 13.0 -1.25 12.9 -1.7 12.4 -2.7 Q11.45 -4.45 12.2 -6.4 12.6 -7.45 11.85 -7.95 M11.5 -8.25 L11.55 -8.3 11.5 -8.25 M10.65 -2.5 L10.65 -6.45 Q9.0 -4.45 10.45 -2.7 L10.65 -2.5 M12.9 4.6 Q12.4 7.15 13.05 9.5 13.4 10.9 14.15 12.15 14.2 10.25 13.7 8.0 L13.05 4.95 12.9 4.6" fill="#000000" fill-rule="evenodd" stroke="none"/>
    <path d="M7.15 -19.35 Q9.05 -22.35 9.8 -25.85 L9.85 -25.9 9.55 -23.15 7.0 -17.55 7.15 -19.35 M17.25 -16.35 L17.0 -17.15 Q16.1 -20.15 14.5 -22.75 L13.95 -23.6 Q13.8 -20.2 12.8 -17.0 L12.45 -16.55 10.75 -22.7 12.5 -18.35 Q13.45 -21.45 13.45 -24.7 L13.5 -24.7 14.85 -23.25 16.35 -20.3 15.45 -24.2 15.85 -23.3 Q17.0 -20.35 17.2 -17.25 L17.25 -16.35" fill="#999999" fill-rule="evenodd" stroke="none"/>
    <path d="M9.85 -25.9 L9.8 -25.85 Q9.05 -22.35 7.15 -19.35 L7.3 -20.65 Q7.65 -22.9 7.05 -24.9 L6.25 -11.45 Q6.85 -14.3 7.0 -17.55 L9.55 -23.15 Q8.8 -18.2 7.3 -13.35 L7.25 -12.85 Q9.65 -18.2 10.2 -24.2 10.3 -25.45 10.55 -26.15 L13.85 -26.3 14.7 -25.7 15.45 -24.2 16.35 -20.3 14.85 -23.25 13.5 -24.7 13.45 -24.7 Q13.45 -21.45 12.5 -18.35 L10.75 -22.7 12.45 -16.55 12.8 -17.0 Q13.8 -20.2 13.95 -23.6 L14.5 -22.75 Q16.1 -20.15 17.0 -17.15 L17.25 -16.35 17.25 -15.85 17.05 -13.0 16.5 -10.55 16.4 -11.95 16.2 -13.45 16.0 -14.9 15.7 -16.4 15.35 -18.15 15.35 -18.2 14.45 -21.6 Q14.95 -19.75 14.9 -17.9 L14.85 -16.85 14.75 -15.85 14.4 -14.35 14.0 -12.7 13.8 -11.05 13.25 -9.15 13.45 -9.05 13.25 -8.5 12.95 -7.35 12.7 -8.6 12.15 -8.5 12.05 -9.85 11.85 -14.25 11.35 -18.95 11.35 -17.15 11.25 -16.8 11.25 -16.75 11.0 -15.65 10.45 -13.45 10.4 -13.4 9.7 -11.2 9.65 -11.15 9.65 -11.7 9.6 -12.45 9.55 -12.95 9.55 -13.7 9.5 -14.2 9.4 -14.8 9.3 -14.9 8.95 -14.4 8.0 -12.25 7.85 -12.0 6.8 -10.3 5.4 -8.45 5.1 -8.05 4.1 -7.35 3.2 -6.65 1.55 -5.75 1.9 -6.75 2.3 -7.65 2.3 -7.75 2.35 -7.85 2.35 -7.95 2.3 -8.0 2.25 -8.05 0.1 -7.15 -1.6 -6.7 -2.15 -6.6 -4.4 -6.1 -6.4 -5.85 -8.4 -5.85 -8.95 -5.85 -8.9 -5.9 -5.25 -7.4 -3.7 -8.3 Q-9.85 -8.65 -15.6 -10.4 L-9.8 -11.75 -9.85 -11.8 -10.0 -11.95 -10.05 -12.0 -10.15 -12.15 -17.8 -21.1 -17.05 -20.95 Q-13.1 -20.95 -9.25 -21.9 L-14.45 -23.5 -8.95 -24.25 -8.3 -24.4 -7.95 -24.45 -7.4 -24.5 -3.15 -25.45 -2.15 -25.7 -0.8 -26.05 0.4 -26.4 Q-3.65 -28.85 -8.4 -28.35 L0.85 -31.2 3.7 -26.1 Q6.25 -28.3 9.65 -28.75 L9.85 -25.9" fill="#333333" fill-rule="evenodd" stroke="none"/>
    <path d="M14.75 -14.7 L15.1 -17.55 15.45 -15.85 15.85 -13.95 16.05 -12.8 16.05 -11.75 16.0 -11.75 15.7 -12.25 15.0 -14.0 14.75 -14.7 M14.35 -0.3 L10.5 0.4 8.95 -0.25 8.75 -0.4 8.7 -0.5 8.7 -1.05 Q8.6 -1.5 8.4 -1.2 L6.75 -2.2 6.1 -2.45 4.55 -2.85 6.15 -3.95 7.25 -4.75 8.4 -5.55 9.0 -6.2 Q9.35 -6.75 10.05 -7.1 L10.2 -7.15 10.3 -7.25 9.6 -5.75 9.35 -4.5 9.35 -3.7 10.65 -2.3 10.6 -2.0 12.3 -0.25 13.25 -0.45 14.35 -0.3 M7.35 30.9 L7.3 30.9 7.2 30.95 6.05 30.95 5.05 30.7 4.25 30.35 3.7 30.0 2.95 29.4 2.1 28.6 1.25 27.8 0.65 26.9 0.6 26.65 0.7 26.55 0.9 26.65 1.15 26.9 1.8 27.5 2.2 27.85 2.25 27.9 2.5 28.1 2.5 28.15 2.6 28.2 2.85 28.45 3.15 28.7 4.2 29.55 5.2 30.25 Q6.15 30.85 7.35 30.85 L7.35 30.8 7.4 30.8 7.35 30.9 M4.7 15.1 L4.85 15.25 5.85 16.2 5.7 16.65 5.35 17.5 3.8 16.05 3.3 15.55 3.3 15.45 Q3.3 15.35 3.45 15.35 L3.5 15.35 4.7 15.1 M10.65 -2.5 L10.45 -2.7 Q9.0 -4.45 10.65 -6.45 L10.65 -2.5 M2.25 -1.25 L2.2 -0.6 Q1.75 2.6 2.9 5.65 3.55 7.4 3.8 9.3 L3.75 9.3 Q2.8 7.15 2.1 4.8 L1.75 2.6 Q1.7 1.0 2.05 -0.5 L2.25 -1.25" fill="#edb192" fill-rule="evenodd" stroke="none"/>
    <path d="M16.0 -11.75 L16.1 -10.4 16.2 -9.25 16.6 -7.85 17.15 -6.3 17.3 -4.85 17.05 -3.4 16.25 -2.05 15.55 -1.15 Q15.05 -0.65 14.35 -0.3 L13.25 -0.45 13.35 -1.45 12.95 -2.3 12.65 -3.1 12.45 -4.1 12.45 -4.85 12.45 -4.95 12.55 -5.1 13.05 -6.7 13.1 -6.85 13.5 -8.35 13.65 -9.05 13.9 -10.2 14.75 -14.7 15.0 -14.0 15.7 -12.25 16.0 -11.75 M8.4 -1.2 L7.9 -0.35 Q10.15 0.4 11.85 2.15 L12.2 2.8 Q12.75 5.6 12.6 8.45 12.5 9.85 13.15 11.2 L13.8 12.35 16.15 14.25 Q16.4 16.5 14.15 17.3 13.0 17.7 12.3 16.6 L11.35 14.6 Q11.05 13.7 10.4 13.0 9.15 11.55 8.8 9.8 L8.65 8.65 8.35 5.2 7.9 5.0 8.55 10.2 Q8.65 11.25 9.35 12.05 11.25 14.3 12.25 17.1 12.35 17.55 12.75 17.8 L12.8 17.8 11.85 19.85 10.5 22.25 9.05 25.2 8.5 26.4 8.2 27.25 8.2 27.5 8.3 27.75 8.5 27.45 8.65 27.35 9.1 27.8 9.15 27.9 Q9.55 28.7 9.25 29.6 L9.1 29.85 Q8.4 30.6 7.35 30.9 L7.4 30.8 7.35 30.8 7.35 30.85 Q6.15 30.85 5.2 30.25 L4.2 29.55 3.15 28.7 2.85 28.45 2.6 28.2 2.5 28.15 2.5 28.1 2.25 27.9 2.2 27.85 1.8 27.5 1.15 26.9 0.9 26.65 0.7 26.55 0.6 26.65 Q0.4 26.1 0.6 25.6 0.95 24.6 1.8 23.9 L2.65 23.0 3.6 21.6 5.05 18.95 5.4 18.05 5.45 17.9 5.7 17.4 6.15 16.4 6.2 16.25 6.55 16.0 6.6 16.05 6.65 16.0 8.75 15.65 8.0 15.6 6.9 15.75 6.85 15.8 6.65 15.85 6.1 15.85 6.05 15.85 5.95 15.85 5.9 15.8 Q4.9 15.2 4.5 13.9 L4.15 12.45 4.15 10.55 Q3.85 10.55 3.75 11.3 L3.75 11.4 4.65 15.0 4.7 15.1 3.5 15.35 3.45 15.35 Q3.3 15.35 3.3 15.45 L3.3 15.55 3.8 16.05 5.35 17.5 4.75 18.8 3.1 22.0 2.4 23.05 1.8 23.7 1.75 23.7 1.8 23.65 -0.55 14.6 -0.65 13.85 -0.75 12.9 Q-0.75 11.5 -0.25 10.15 L-0.2 9.5 Q-0.65 6.4 -2.0 3.65 L-2.15 3.25 -2.35 2.7 -2.4 2.45 -2.45 2.35 -2.55 1.65 -2.55 2.65 -2.45 3.3 -0.8 8.1 Q-0.1 9.95 -0.9 11.55 L-2.85 8.0 -3.4 6.05 Q-3.75 4.0 -3.25 2.0 L-3.1 1.05 -2.85 0.25 -2.85 0.2 -2.75 -0.1 -2.55 -0.45 -2.4 -0.7 -1.75 -1.5 -1.45 -1.75 0.9 -1.7 1.05 -1.1 1.15 -0.85 1.2 -0.9 Q1.75 -1.35 2.05 -2.3 L4.55 -2.85 6.1 -2.45 6.75 -2.2 8.4 -1.2 M11.85 -7.95 Q12.6 -7.45 12.2 -6.4 11.45 -4.45 12.4 -2.7 L12.9 -1.7 13.0 -1.25 12.75 -0.95 12.35 -0.65 11.4 -1.65 11.35 -1.7 Q10.0 -4.85 11.35 -7.9 L11.65 -8.05 11.85 -7.95 M11.5 -8.25 L11.55 -8.3 11.5 -8.25 M2.25 -1.25 L2.05 -0.5 Q1.7 1.0 1.75 2.6 L2.1 4.8 Q2.8 7.15 3.75 9.3 L3.8 9.3 Q3.55 7.4 2.9 5.65 1.75 2.6 2.2 -0.6 L2.25 -1.25 M12.9 4.6 L13.05 4.95 13.7 8.0 Q14.2 10.25 14.15 12.15 13.4 10.9 13.05 9.5 12.4 7.15 12.9 4.6" fill="#ffe3d5" fill-rule="evenodd" stroke="none"/>
  </g>
</svg>
