<?xml version="1.0" encoding="UTF-8" standalone="no"?>
<svg xmlns:ffdec="https://www.free-decompiler.com/flash" xmlns:xlink="http://www.w3.org/1999/xlink" ffdec:objectType="shape" height="62.4px" width="44.05px" xmlns="http://www.w3.org/2000/svg">
  <g transform="matrix(1.0, 0.0, 0.0, 1.0, 22.0, 31.2)">
    <path d="M15.95 -13.7 L17.05 -15.3 Q19.3 -18.55 20.7 -22.25 L21.7 -24.5 21.25 -24.3 16.7 -23.05 12.1 -22.75 12.35 -22.9 12.95 -23.45 Q14.55 -24.8 16.45 -25.55 L15.0 -25.85 6.9 -26.45 3.85 -26.5 0.05 -26.1 Q-2.05 -25.55 -3.7 -24.2 L-3.6 -24.45 -2.85 -25.35 Q-0.2 -27.55 2.85 -29.1 4.75 -30.05 6.6 -30.5 L3.4 -30.85 0.15 -30.8 Q-3.55 -30.5 -6.95 -29.15 L-7.0 -29.1 -7.2 -28.55 Q-8.05 -25.95 -7.15 -23.55 L-6.25 -21.8 -7.55 -23.3 -7.75 -23.5 -8.45 -24.15 -9.25 -24.65 -9.75 -24.85 -9.8 -24.85 -10.15 -24.65 -12.0 -23.35 -12.15 -23.25 -12.25 -23.1 -12.4 -23.0 -14.0 -21.55 -16.6 -18.9 -20.05 -14.45 -20.9 -13.05 -13.45 -17.65 Q-15.25 -14.45 -16.55 -11.0 L-17.55 -7.35 -8.1 -19.35 -7.95 -21.0 Q-7.5 -16.2 -5.95 -11.7 -5.2 -9.75 -3.9 -8.0 L-5.25 -16.55 Q-5.5 -18.25 -5.25 -19.6 L-5.15 -19.2 -4.85 -18.4 -3.2 -15.4 -0.55 -11.95 0.75 -10.65 2.0 -9.4 3.5 -8.15 8.0 -4.8 7.15 -7.35 6.55 -8.85 3.9 -15.25 8.75 -8.15 9.15 -7.55 10.45 -5.35 9.95 -7.65 9.25 -10.25 7.8 -15.1 7.8 -15.15 7.75 -15.3 12.45 -4.0 14.45 -9.05 14.75 -10.5 Q15.1 -14.3 14.45 -18.05 L15.85 -13.65 15.9 -13.6 15.95 -13.7 M17.2 -25.55 L15.8 -24.85 13.5 -23.15 14.25 -23.25 Q18.3 -23.55 22.05 -25.0 L20.2 -20.25 20.15 -20.15 18.1 -16.1 Q17.25 -14.55 16.05 -13.25 L20.9 -11.45 19.65 -11.1 Q18.2 -10.65 16.95 -9.85 L15.05 -8.1 15.25 -8.0 Q16.45 -7.85 17.6 -8.0 L20.1 -8.2 19.55 -7.4 19.05 -7.0 16.1 -4.85 12.55 -2.85 12.35 -2.65 12.3 -2.6 11.35 -1.5 10.45 -0.45 10.1 -0.2 9.15 0.3 9.0 0.3 8.0 0.25 7.4 -0.1 7.25 -0.15 5.2 0.65 5.75 0.8 Q8.0 1.4 8.5 3.7 L8.65 4.2 Q10.4 9.6 9.0 15.0 L8.55 16.15 7.6 17.25 7.0 17.4 6.15 17.4 5.1 17.25 4.8 17.15 3.9 16.7 3.8 16.65 3.75 16.6 3.55 16.15 3.5 15.9 3.5 13.85 3.75 13.15 4.15 12.7 5.0 11.85 5.1 11.2 5.1 10.9 5.0 10.35 4.7 9.35 4.65 9.2 4.4 8.95 4.35 8.95 4.25 9.1 4.25 9.15 4.15 9.3 Q3.4 11.05 3.05 12.85 L2.5 17.65 Q1.5 21.25 0.9 24.95 L0.8 26.3 Q0.75 27.9 0.2 29.4 L-0.05 29.9 Q-0.7 30.95 -1.95 31.15 -3.85 31.45 -5.45 30.45 L-6.05 30.2 -6.95 29.9 Q-8.3 29.2 -8.05 27.65 L-7.7 27.0 -6.5 26.0 -6.6 25.0 -6.25 23.9 -6.1 23.6 -6.2 23.5 -6.8 23.05 Q-8.25 21.95 -9.3 20.45 -10.5 18.7 -11.1 16.65 L-11.05 16.9 -11.55 15.5 Q-12.1 13.65 -12.1 11.7 L-12.05 10.95 -11.55 7.85 -10.65 4.85 -10.2 3.55 Q-9.65 1.8 -8.55 0.45 -11.7 -0.95 -13.55 -3.9 -14.1 -4.85 -14.0 -5.95 L-13.45 -8.45 Q-12.85 -10.35 -13.25 -12.25 L-18.1 -6.0 -17.45 -9.1 -17.45 -9.2 -17.4 -9.3 -17.35 -9.55 -17.25 -9.9 -17.2 -9.95 -17.15 -10.15 -16.95 -10.85 -16.85 -11.1 -16.7 -11.5 -16.5 -12.15 -16.4 -12.45 -14.5 -16.6 -14.9 -16.4 Q-18.6 -14.3 -22.0 -11.5 L-20.25 -14.7 Q-18.8 -17.1 -16.85 -19.15 L-12.45 -23.7 -12.55 -23.75 -14.75 -23.85 -20.1 -24.15 Q-16.6 -26.5 -12.75 -26.1 -10.3 -25.9 -8.15 -24.85 L-8.0 -24.75 Q-8.0 -26.9 -7.5 -28.9 L-7.35 -29.45 Q-6.0 -30.15 -4.55 -30.45 L1.9 -31.2 7.9 -30.6 4.35 -29.35 3.55 -29.05 Q1.75 -28.3 0.3 -27.0 L-0.3 -26.45 Q1.4 -27.15 3.25 -26.95 L3.9 -26.95 7.1 -26.9 8.85 -26.85 Q12.6 -26.75 16.25 -25.85 L16.3 -25.85 17.5 -25.7 17.2 -25.55 M9.85 -2.6 L9.65 -2.25 9.5 -2.15 9.1 -1.9 8.9 -1.75 8.4 -2.05 9.3 -3.25 Q8.95 -3.85 9.2 -4.5 L9.3 -4.65 9.6 -5.3 9.15 -6.4 9.1 -6.55 9.0 -6.65 8.95 -6.65 8.85 -6.5 8.35 -5.55 8.65 -4.3 5.3 -6.1 0.7 -9.7 -0.2 -9.55 -0.8 -9.45 -2.65 -9.15 -3.1 -9.5 -3.15 -9.95 -2.95 -10.3 -2.45 -10.1 0.2 -10.2 -0.9 -11.4 Q-3.3 -14.0 -4.9 -17.1 L-3.5 -7.5 Q-4.85 -8.4 -5.6 -9.9 -7.75 -14.15 -8.1 -19.0 L-11.1 -15.1 -6.8 -10.85 -6.75 -10.9 -6.7 -10.9 Q-6.4 -10.85 -6.25 -10.45 L-6.2 -10.35 -6.15 -10.2 -6.2 -9.9 -6.2 -9.85 -6.85 -10.1 -8.1 -11.4 -8.25 -6.9 -8.3 -6.85 Q-8.55 -6.55 -9.0 -6.55 L-9.0 -6.6 Q-9.65 -6.65 -9.75 -7.45 -9.9 -9.45 -9.65 -11.25 L-9.4 -11.9 -9.35 -12.0 -9.3 -10.25 -8.8 -9.9 -8.4 -9.9 -8.4 -11.55 -9.05 -12.15 -9.55 -12.55 -9.8 -12.75 -10.25 -13.2 -11.0 -13.9 -11.1 -14.0 -11.55 -14.5 -12.75 -12.75 Q-12.6 -9.5 -13.25 -6.3 -13.65 -4.45 -12.45 -2.85 -10.9 -0.8 -8.3 0.15 L-3.35 1.3 -3.05 1.3 -2.65 1.35 -2.75 1.3 -0.6 1.3 4.75 0.45 5.5 0.15 7.4 -0.6 7.55 -0.5 8.05 -0.25 9.4 -0.35 10.2 -0.9 11.45 -2.5 Q11.85 -3.25 11.8 -4.1 L11.65 -4.6 Q10.8 -6.45 10.1 -8.4 10.9 -5.95 10.95 -3.45 L10.65 -3.9 9.85 -5.15 9.55 -4.5 9.85 -3.45 9.9 -3.35 9.9 -3.3 9.9 -3.15 9.75 -2.75 9.75 -2.7 9.85 -2.6 M0.2 -8.85 Q0.6 -8.0 0.5 -7.2 L0.5 -6.25 0.3 -4.5 0.15 -4.05 Q-0.55 -4.05 -0.95 -4.65 L-1.1 -5.1 -1.25 -6.3 -1.05 -9.1 -1.0 -9.15 -0.75 -7.35 -0.65 -7.25 Q-0.15 -7.05 0.0 -7.6 L0.2 -8.85 M4.9 0.85 L4.8 0.85 4.4 0.95 4.25 0.95 4.2 0.95 2.1 1.35 -3.05 1.55 -8.2 0.55 -8.2 0.6 -8.3 0.8 -8.35 0.85 -8.55 1.15 -10.0 4.0 -10.1 4.2 -11.2 8.1 -11.6 10.05 -11.65 11.8 Q-11.75 13.8 -11.2 15.7 L-10.4 17.95 -8.05 21.6 -7.9 21.75 -7.0 22.55 -6.5 22.85 Q-5.85 23.2 -5.9 23.85 -6.4 24.4 -6.4 25.15 L-6.2 25.75 Q-5.6 25.1 -5.45 24.2 L-5.45 24.15 -5.3 23.3 -5.2 22.7 -5.1 21.9 -5.0 21.1 -4.95 21.0 -4.9 20.55 -4.9 20.35 -4.85 20.05 -4.8 19.7 -4.8 19.5 -4.75 19.2 -4.7 18.75 -4.65 18.55 -4.4 16.95 -5.45 17.55 -5.65 17.65 -5.65 17.6 -6.8 17.45 -6.85 17.45 -7.0 17.35 -7.25 17.0 -7.45 16.65 -7.6 16.15 -7.6 15.5 -7.55 14.95 -7.25 14.45 -7.0 14.25 -6.7 14.15 -6.55 14.1 -6.6 14.15 -6.65 14.15 Q-7.0 14.25 -7.15 14.55 L-7.3 14.95 -7.3 15.45 -7.25 15.6 Q-7.05 16.1 -6.5 16.15 L-6.0 16.0 -5.35 15.55 -6.0 16.2 -6.8 16.35 -7.35 16.1 -7.35 16.15 -7.3 16.4 -7.25 16.5 -7.2 16.7 -6.85 17.05 -6.8 17.1 -6.75 17.15 -6.7 17.2 -5.6 17.35 -5.0 17.1 -4.5 16.35 -4.25 16.25 -4.2 16.25 -4.35 17.25 -4.6 19.7 -5.2 23.65 Q-5.5 25.0 -6.2 26.1 L-6.35 26.25 Q-7.95 26.8 -7.8 28.45 -7.65 29.55 -6.55 29.8 L-2.3 30.55 -1.75 30.5 Q-1.65 30.55 -2.05 30.65 L-2.65 30.7 -4.95 30.35 -4.95 30.4 Q-3.6 31.2 -2.0 30.9 -0.9 30.7 -0.15 29.85 L-0.05 29.7 0.1 29.15 0.7 24.85 1.4 20.7 2.25 17.35 Q2.8 15.1 2.75 12.8 L2.75 12.6 Q3.05 10.55 3.75 8.6 L3.9 8.2 4.0 7.75 4.05 7.65 4.0 7.55 3.95 7.25 3.7 6.45 3.45 5.45 3.4 5.2 3.35 5.0 Q5.2 7.7 5.5 11.0 5.6 11.95 5.35 12.65 L5.25 12.7 5.15 12.7 5.05 12.7 4.95 12.7 4.2 13.0 Q3.9 13.2 3.85 13.55 L3.95 13.85 Q3.2 15.45 4.5 16.65 L5.35 17.05 Q7.2 17.35 8.3 16.1 L8.7 15.4 Q9.55 12.9 9.2 10.2 9.1 6.3 7.65 2.7 7.3 1.8 6.45 1.4 L4.9 0.85 M-5.95 28.65 Q-6.1 27.85 -5.6 27.25 L-5.5 27.15 -5.75 28.75 -5.95 28.65 M14.35 -4.2 L19.45 -7.8 14.75 -7.25 12.9 -3.4 14.35 -4.2 M19.05 -11.5 L16.4 -12.45 15.5 -12.6 15.2 -9.45 19.05 -11.5 M-10.15 -25.2 L-10.1 -25.2 -10.2 -25.25 -13.25 -25.6 -17.2 -25.05 -18.4 -24.6 -14.2 -24.5 -11.9 -24.1 -10.15 -25.2 M-3.7 -0.85 L-3.75 -0.85 -3.75 -0.8 -4.5 -0.3 Q-6.4 0.4 -7.2 -1.45 -6.2 -0.05 -4.75 -0.55 L-4.65 -0.6 -4.4 -0.7 -4.05 -0.9 -3.75 -1.25 -3.65 -1.3 -3.45 -1.1 -3.5 -1.1 Q-3.45 -0.85 -3.7 -0.85 M-6.55 10.7 L-6.75 10.6 -6.8 10.4 -6.75 10.2 -6.55 10.1 -6.4 10.2 -6.35 10.4 -6.4 10.6 -6.55 10.7" fill="#000000" fill-rule="evenodd" stroke="none"/>
    <path d="M-12.4 -23.0 L-12.25 -23.1 -12.15 -23.25 -12.0 -23.35 -10.15 -24.65 -9.8 -24.85 -9.75 -24.85 -9.25 -24.65 -8.45 -24.15 -7.75 -23.5 -7.55 -23.3 -6.25 -21.8 -7.15 -23.55 Q-8.05 -25.95 -7.2 -28.55 L-7.0 -29.1 -6.95 -29.15 Q-3.55 -30.5 0.15 -30.8 L3.4 -30.85 6.6 -30.5 Q4.75 -30.05 2.85 -29.1 -0.2 -27.55 -2.85 -25.35 L-3.6 -24.45 -3.7 -24.2 Q-2.05 -25.55 0.05 -26.1 L3.85 -26.5 6.9 -26.45 15.0 -25.85 16.45 -25.55 Q14.55 -24.8 12.95 -23.45 L12.35 -22.9 12.1 -22.75 16.7 -23.05 21.25 -24.3 21.7 -24.5 20.7 -22.25 Q19.3 -18.55 17.05 -15.3 L15.95 -13.7 15.85 -13.65 14.45 -18.05 Q15.1 -14.3 14.75 -10.5 L14.45 -9.05 12.45 -4.0 7.75 -15.3 7.8 -15.15 7.8 -15.1 9.25 -10.25 9.95 -7.65 10.45 -5.35 9.15 -7.55 8.75 -8.15 3.9 -15.25 6.55 -8.85 7.15 -7.35 8.0 -4.8 3.5 -8.15 2.0 -9.4 0.75 -10.65 -0.55 -11.95 -3.2 -15.4 -4.85 -18.4 -5.15 -19.2 -5.25 -19.6 Q-5.5 -18.25 -5.25 -16.55 L-3.9 -8.0 Q-5.2 -9.75 -5.95 -11.7 -7.5 -16.2 -7.95 -21.0 L-8.1 -19.35 -17.55 -7.35 -16.55 -11.0 Q-15.25 -14.45 -13.45 -17.65 L-20.9 -13.05 -20.05 -14.45 -16.6 -18.9 -14.0 -21.55 -14.25 -21.2 -15.45 -19.05 -15.7 -18.35 -10.75 -20.7 -11.05 -20.2 -11.95 -18.4 -12.0 -17.85 -12.0 -17.75 -11.95 -17.75 -11.05 -18.3 -8.8 -20.35 -10.6 -19.25 -9.4 -22.0 -12.25 -21.15 -13.9 -20.4 -12.4 -23.0 M-0.65 -17.35 L-3.8 -21.05 -2.8 -19.0 -2.55 -18.6 Q-1.55 -17.05 0.0 -16.0 L-0.8 -19.75 1.8 -15.75 3.1 -13.9 3.7 -13.3 2.95 -20.65 5.5 -16.1 Q6.4 -14.6 7.55 -13.25 L7.35 -17.35 7.1 -19.0 7.0 -19.85 9.65 -15.95 11.75 -13.45 11.8 -13.45 12.0 -15.6 12.0 -15.95 12.0 -16.35 11.75 -19.25 12.65 -17.45 12.6 -17.85 12.55 -18.1 12.5 -18.25 Q11.95 -20.0 10.75 -21.3 L11.15 -15.4 10.25 -16.9 7.6 -20.35 6.05 -21.95 6.6 -15.65 5.2 -18.1 3.95 -20.1 2.3 -22.1 2.6 -16.35 -1.2 -21.35 -1.15 -19.7 -1.1 -19.25 -1.0 -18.75 -0.65 -17.35 M14.35 -4.2 L12.9 -3.4 14.75 -7.25 19.45 -7.8 14.35 -4.2 M19.05 -11.5 L15.2 -9.45 15.5 -12.6 16.4 -12.45 19.05 -11.5 M-10.2 -25.25 L-10.15 -25.2 -11.9 -24.1 -14.2 -24.5 -18.4 -24.6 -17.2 -25.05 -13.25 -25.6 -10.2 -25.25" fill="#333333" fill-rule="evenodd" stroke="none"/>
    <path d="M-14.0 -21.55 L-12.4 -23.0 -13.9 -20.4 -12.25 -21.15 -9.4 -22.0 -10.6 -19.25 -8.8 -20.35 -11.05 -18.3 -11.95 -17.75 -12.0 -17.85 -11.95 -18.4 -11.05 -20.2 -10.75 -20.7 -15.7 -18.35 -15.45 -19.05 -14.25 -21.2 -14.0 -21.55 M-0.65 -17.35 L-1.0 -18.75 -1.1 -19.25 -1.15 -19.7 -1.2 -21.35 2.6 -16.35 2.3 -22.1 3.95 -20.1 5.2 -18.1 6.6 -15.65 6.05 -21.95 7.6 -20.35 10.25 -16.9 11.15 -15.4 10.75 -21.3 Q11.95 -20.0 12.5 -18.25 L12.55 -18.1 12.6 -17.85 12.65 -17.45 11.75 -19.25 12.0 -16.35 12.0 -15.95 12.0 -15.6 11.8 -13.45 11.75 -13.45 9.65 -15.95 7.0 -19.85 7.1 -19.0 7.35 -17.35 7.55 -13.25 Q6.4 -14.6 5.5 -16.1 L2.95 -20.65 3.7 -13.3 3.1 -13.9 1.8 -15.75 -0.8 -19.75 0.0 -16.0 Q-1.55 -17.05 -2.55 -18.6 L-2.8 -19.0 -3.8 -21.05 -0.65 -17.35" fill="#999999" fill-rule="evenodd" stroke="none"/>
    <path d="M-0.2 -9.55 L0.7 -9.7 5.3 -6.1 8.65 -4.3 8.35 -5.55 8.85 -6.5 8.95 -6.65 9.0 -6.65 9.1 -6.55 9.15 -6.4 9.6 -5.3 9.3 -4.65 9.2 -4.5 Q8.95 -3.85 9.3 -3.25 L8.4 -2.05 8.9 -1.75 9.1 -1.9 9.5 -2.15 9.65 -2.25 9.85 -2.6 9.85 -2.65 9.9 -2.7 10.65 -3.9 10.95 -3.45 Q10.9 -5.95 10.1 -8.4 10.8 -6.45 11.65 -4.6 L11.8 -4.1 Q11.85 -3.25 11.45 -2.5 L10.2 -0.9 9.4 -0.35 8.05 -0.25 7.55 -0.5 7.4 -0.6 5.5 0.15 4.75 0.45 -0.6 1.3 -2.75 1.3 -3.05 1.3 -3.35 1.3 -8.3 0.15 Q-10.9 -0.8 -12.45 -2.85 -13.65 -4.45 -13.25 -6.3 -12.6 -9.5 -12.75 -12.75 L-11.55 -14.5 -11.1 -14.0 -11.0 -13.9 -10.25 -13.2 -9.8 -12.75 -9.55 -12.55 -9.05 -12.15 -9.1 -12.15 -9.3 -12.1 -9.35 -12.05 -9.35 -12.0 -9.4 -11.9 -9.65 -11.25 Q-9.9 -9.45 -9.75 -7.45 -9.65 -6.65 -9.0 -6.6 L-9.0 -6.55 Q-8.55 -6.55 -8.3 -6.85 L-8.25 -6.9 -8.1 -11.4 -6.85 -10.1 -6.2 -9.85 -6.2 -9.9 -6.15 -10.2 -6.2 -10.35 -6.25 -10.45 Q-6.4 -10.85 -6.7 -10.9 L-6.75 -10.9 -6.8 -10.85 -11.1 -15.1 -8.1 -19.0 Q-7.75 -14.15 -5.6 -9.9 -4.85 -8.4 -3.5 -7.5 L-4.9 -17.1 Q-3.3 -14.0 -0.9 -11.4 L0.2 -10.2 -2.45 -10.1 -2.95 -10.3 -3.15 -9.95 -3.1 -9.5 -2.65 -9.15 -0.8 -9.45 -1.0 -9.15 -1.05 -9.1 -1.25 -6.3 -1.1 -5.1 -0.95 -4.65 Q-0.55 -4.05 0.15 -4.05 L0.3 -4.5 0.5 -6.25 0.5 -7.2 Q0.6 -8.0 0.2 -8.85 L0.1 -9.35 -0.2 -9.55 M6.2 -3.35 L3.85 -3.1 3.95 -3.95 Q3.1 -4.5 1.9 -2.9 L1.95 -2.9 3.5 -3.85 3.35 -2.5 Q4.75 -2.6 6.2 -3.35 M-8.55 1.15 L-8.5 1.25 -7.65 2.15 Q-6.75 3.0 -5.55 3.3 L-5.2 3.4 -3.7 3.6 -1.7 3.5 0.65 2.85 1.7 2.45 4.4 1.25 4.9 0.85 6.45 1.4 Q7.3 1.8 7.65 2.7 9.1 6.3 9.2 10.2 9.55 12.9 8.7 15.4 L8.3 16.1 Q7.2 17.35 5.35 17.05 L4.5 16.65 Q3.2 15.45 3.95 13.85 L3.85 13.55 Q3.9 13.2 4.2 13.0 L4.95 12.7 5.05 12.7 5.15 12.7 5.25 12.7 5.35 12.65 Q5.6 11.95 5.5 11.0 5.2 7.7 3.35 5.0 L3.4 5.2 3.45 5.45 3.7 6.45 3.95 7.25 4.0 7.55 4.05 7.65 4.0 7.75 3.9 8.2 3.75 8.6 Q3.05 10.55 2.75 12.6 L2.75 12.8 Q2.8 15.1 2.25 17.35 L1.4 20.7 0.7 24.85 0.1 29.15 Q-1.7 30.4 -3.95 29.7 L-5.75 28.75 -5.5 27.15 -5.6 27.25 Q-6.1 27.85 -5.95 28.65 L-6.1 28.75 Q-7.05 29.35 -7.8 28.45 -7.95 26.8 -6.35 26.25 L-6.2 26.1 Q-5.5 25.0 -5.2 23.65 L-4.6 19.7 -4.35 17.25 -4.2 16.25 -4.25 16.25 -4.1 15.75 -3.85 15.0 -3.85 14.9 -3.9 14.95 -3.95 15.0 -4.1 15.2 -4.35 15.5 -4.7 16.15 -5.4 16.8 -6.25 17.0 Q-6.85 16.9 -7.25 16.5 L-7.3 16.4 -7.35 16.15 -7.35 16.1 -6.8 16.35 -6.0 16.2 -5.35 15.55 -6.0 16.0 -6.5 16.15 Q-7.05 16.1 -7.25 15.6 L-7.3 15.45 -7.3 14.95 -7.15 14.55 Q-7.0 14.25 -6.65 14.15 L-6.6 14.15 -6.55 14.1 -6.7 14.15 -7.0 14.25 -7.25 14.45 -7.55 14.95 -7.6 15.5 -7.6 16.15 -7.45 16.65 -7.25 17.0 -7.0 17.35 -6.95 17.45 -6.25 18.3 -6.2 18.35 -5.05 20.0 -5.15 20.55 -5.2 21.1 Q-5.65 21.9 -6.7 22.0 L-8.05 21.6 -10.4 17.95 -11.2 15.7 Q-11.75 13.8 -11.65 11.8 L-11.6 10.05 -11.2 8.1 -10.1 4.2 -10.0 4.0 -8.55 1.15 M4.4 0.95 L4.3 1.0 4.25 1.0 4.25 0.95 4.4 0.95 M-11.6 -6.95 L-12.85 -7.15 Q-12.4 -6.5 -11.35 -6.3 L-11.0 -6.5 -11.9 -8.45 -11.6 -6.95 M-3.7 -0.85 Q-3.45 -0.85 -3.5 -1.1 L-3.45 -1.1 -3.65 -1.3 -3.75 -1.25 -4.05 -0.9 -4.4 -0.7 -4.65 -0.6 -4.75 -0.55 Q-6.2 -0.05 -7.2 -1.45 -6.4 0.4 -4.5 -0.3 L-3.75 -0.8 -3.75 -0.85 -3.7 -0.85 M-1.2 7.9 L-0.95 7.8 -0.9 7.6 -0.95 7.35 -1.2 7.25 -1.4 7.35 -1.5 7.6 -1.4 7.8 -1.2 7.9 M-8.95 4.85 L-9.2 4.75 -9.4 4.85 -9.5 5.1 -9.4 5.3 -9.2 5.4 -8.95 5.3 -8.9 5.1 -8.95 4.85 M-6.55 10.7 L-6.4 10.6 -6.35 10.4 -6.4 10.2 -6.55 10.1 -6.75 10.2 -6.8 10.4 -6.75 10.6 -6.55 10.7" fill="#ffe3d5" fill-rule="evenodd" stroke="none"/>
    <path d="M-0.2 -9.55 L0.1 -9.35 0.2 -8.85 0.0 -7.6 Q-0.15 -7.05 -0.65 -7.25 L-0.75 -7.35 -1.0 -9.15 -0.8 -9.45 -0.2 -9.55 M-9.35 -12.0 L-9.35 -12.05 -9.3 -12.1 -9.1 -12.15 -9.05 -12.15 -8.4 -11.55 -8.4 -9.9 -8.8 -9.9 -9.3 -10.25 -9.35 -12.0" fill="#ffffff" fill-rule="evenodd" stroke="none"/>
    <path d="M-3.05 1.3 L-2.75 1.3 -2.65 1.35 -3.05 1.3 M10.65 -3.9 L9.9 -2.7 9.85 -2.65 9.85 -2.6 9.75 -2.7 9.75 -2.75 9.9 -3.15 9.9 -3.3 9.9 -3.35 9.85 -3.45 9.55 -4.5 9.85 -5.15 10.65 -3.9 M4.9 0.85 L4.4 1.25 1.7 2.45 0.65 2.85 -1.7 3.5 -3.7 3.6 -5.2 3.4 -5.55 3.3 Q-6.75 3.0 -7.65 2.15 L-8.5 1.25 -8.55 1.15 -8.35 0.85 -8.3 0.8 -8.2 0.6 -8.2 0.55 -3.05 1.55 2.1 1.35 4.2 0.95 4.25 0.95 4.25 1.0 4.3 1.0 4.4 0.95 4.8 0.85 4.9 0.85 M6.2 -3.35 Q4.75 -2.6 3.35 -2.5 L3.5 -3.85 1.95 -2.9 1.9 -2.9 Q3.1 -4.5 3.95 -3.95 L3.85 -3.1 6.2 -3.35 M-8.05 21.6 L-6.7 22.0 Q-5.65 21.9 -5.2 21.1 L-5.15 20.55 -5.05 20.0 -6.2 18.35 -6.25 18.3 -6.95 17.45 -7.0 17.35 -6.85 17.45 -6.8 17.45 -5.65 17.6 -5.65 17.65 -5.45 17.55 -4.4 16.95 -4.65 18.55 -4.7 18.75 -4.75 19.2 -4.8 19.5 -4.8 19.7 -4.85 20.05 -4.9 20.35 -4.9 20.55 -4.95 21.0 -5.0 21.1 -5.1 21.9 -5.2 22.7 -5.3 23.3 -5.45 24.15 -5.45 24.2 Q-5.6 25.1 -6.2 25.75 L-6.4 25.15 Q-6.4 24.4 -5.9 23.85 -5.85 23.2 -6.5 22.85 L-7.0 22.55 -7.9 21.75 -8.05 21.6 M-7.25 16.5 Q-6.85 16.9 -6.25 17.0 L-5.4 16.8 -4.7 16.15 -4.35 15.5 -4.1 15.2 -3.95 15.0 -3.9 14.95 -3.85 14.9 -3.85 15.0 -4.1 15.75 -4.25 16.25 -4.5 16.35 -5.0 17.1 -5.6 17.35 -6.7 17.2 -6.75 17.15 -6.8 17.1 -6.85 17.05 -7.2 16.7 -7.25 16.5 M-7.8 28.45 Q-7.05 29.35 -6.1 28.75 L-5.95 28.65 -5.75 28.75 -3.95 29.7 Q-1.7 30.4 0.1 29.15 L-0.05 29.7 -0.15 29.85 Q-0.9 30.7 -2.0 30.9 -3.6 31.2 -4.95 30.4 L-4.95 30.35 -2.65 30.7 -2.05 30.65 Q-1.65 30.55 -1.75 30.5 L-2.3 30.55 -6.55 29.8 Q-7.65 29.55 -7.8 28.45 M-11.6 -6.95 L-11.9 -8.45 -11.0 -6.5 -11.35 -6.3 Q-12.4 -6.5 -12.85 -7.15 L-11.6 -6.95" fill="#edb192" fill-rule="evenodd" stroke="none"/>
    <path d="M-8.95 4.85 L-8.9 5.1 -8.95 5.3 -9.2 5.4 -9.4 5.3 -9.5 5.1 -9.4 4.85 -9.2 4.75 -8.95 4.85 M-1.2 7.9 L-1.4 7.8 -1.5 7.6 -1.4 7.35 -1.2 7.25 -0.95 7.35 -0.9 7.6 -0.95 7.8 -1.2 7.9" fill="#c85b64" fill-rule="evenodd" stroke="none"/>
    <path d="M-11.95 -17.75 L-12.0 -17.75 -12.0 -17.85 -11.95 -17.75 M-10.2 -25.25 L-10.1 -25.2 -10.15 -25.2 -10.2 -25.25" fill="#666666" fill-rule="evenodd" stroke="none"/>
  </g>
</svg>
