<?xml version="1.0" encoding="UTF-8" standalone="no"?>
<svg xmlns:ffdec="https://www.free-decompiler.com/flash" xmlns:xlink="http://www.w3.org/1999/xlink" ffdec:objectType="shape" height="61.55px" width="44.05px" xmlns="http://www.w3.org/2000/svg">
  <g transform="matrix(1.0, 0.0, 0.0, 1.0, 22.0, 30.75)">
    <path d="M4.35 -28.9 L3.55 -28.6 Q1.75 -27.85 0.3 -26.55 L-0.3 -26.0 Q1.4 -26.7 3.25 -26.5 L3.9 -26.5 7.1 -26.45 8.85 -26.4 Q12.6 -26.35 16.25 -25.4 L16.3 -25.4 17.5 -25.25 17.2 -25.1 15.8 -24.4 13.5 -22.7 14.25 -22.8 Q18.25 -23.1 22.05 -24.55 L20.2 -19.8 20.15 -19.7 18.1 -15.65 16.05 -12.8 20.9 -11.0 19.65 -10.65 Q18.2 -10.2 16.95 -9.4 L15.05 -7.65 15.25 -7.55 Q16.4 -7.4 17.6 -7.55 L20.1 -7.75 19.55 -6.95 19.05 -6.55 16.1 -4.4 12.55 -2.4 12.35 -2.2 12.3 -2.15 11.35 -1.05 10.45 0.0 10.1 0.25 9.15 0.75 9.0 0.75 8.0 0.7 7.4 0.35 7.25 0.3 5.2 1.1 5.75 1.25 Q7.95 1.85 8.5 4.2 L8.65 4.7 Q10.35 10.05 9.0 15.5 L8.55 16.65 7.6 17.75 7.0 17.85 6.15 17.9 5.1 17.7 4.8 17.65 3.9 17.2 3.8 17.1 3.75 17.05 3.55 16.65 Q3.0 15.1 3.75 13.6 L4.15 13.15 5.0 12.3 5.1 11.65 5.1 11.35 5.0 10.85 4.7 9.85 4.65 9.65 4.4 9.4 4.35 9.4 4.25 9.6 4.25 9.65 4.15 9.8 Q3.15 11.9 2.9 14.2 L2.95 14.65 2.95 15.8 2.9 16.2 5.45 20.45 6.6 22.95 Q7.35 24.6 7.3 26.45 7.25 27.95 6.35 29.2 L6.25 29.35 6.3 29.2 4.9 30.3 3.95 30.65 2.75 30.8 2.15 30.75 1.55 30.55 1.25 30.35 1.05 30.3 0.5 29.95 0.2 29.55 -0.05 28.3 0.1 27.15 0.25 25.15 0.1 24.7 -3.95 18.05 -4.35 17.6 -4.55 17.4 Q-5.5 18.35 -6.75 17.9 L-6.8 17.9 -7.2 18.8 -8.8 25.3 -9.3 26.75 Q-9.75 27.7 -10.8 27.8 L-14.4 27.65 -15.85 27.3 Q-17.45 26.8 -17.55 25.25 L-17.5 24.75 Q-17.3 23.7 -16.3 23.4 L-14.6 23.05 Q-14.15 22.95 -14.05 22.45 L-12.25 12.9 -12.0 11.0 -11.95 10.6 -11.55 8.3 -10.65 5.3 -10.2 4.0 Q-9.65 2.25 -8.55 0.9 -11.75 -0.5 -13.55 -3.45 -14.15 -4.4 -14.0 -5.5 L-13.45 -8.0 Q-12.9 -9.9 -13.25 -11.8 L-18.1 -5.55 -17.45 -8.65 -17.45 -8.75 -17.4 -8.85 -17.35 -9.1 -17.25 -9.45 -17.2 -9.5 -17.15 -9.7 -16.95 -10.4 -16.85 -10.65 -16.7 -11.05 -16.5 -11.7 -16.4 -12.0 -14.5 -16.15 -14.9 -15.95 Q-18.65 -13.85 -22.0 -11.05 L-20.25 -14.25 Q-18.8 -16.65 -16.85 -18.7 L-12.45 -23.25 -12.55 -23.3 -14.75 -23.4 -20.1 -23.7 Q-16.65 -26.05 -12.75 -25.65 -10.35 -25.45 -8.15 -24.4 L-8.0 -24.3 Q-8.0 -26.45 -7.5 -28.45 L-7.35 -29.0 Q-6.05 -29.7 -4.55 -30.0 L1.9 -30.75 7.9 -30.15 Q6.05 -29.65 4.35 -28.9 M15.95 -13.25 L17.05 -14.85 Q19.3 -18.1 20.7 -21.8 L21.7 -24.05 21.25 -23.85 16.7 -22.6 12.1 -22.3 12.35 -22.45 12.95 -23.0 Q14.55 -24.35 16.45 -25.1 L15.0 -25.4 6.9 -26.0 3.85 -26.05 0.05 -25.65 Q-2.05 -25.1 -3.7 -23.75 L-3.6 -24.0 -2.85 -24.9 Q-0.2 -27.1 2.85 -28.65 4.7 -29.6 6.6 -30.05 L3.4 -30.4 0.15 -30.35 Q-3.55 -30.05 -6.95 -28.7 L-7.0 -28.65 -7.2 -28.1 Q-8.05 -25.5 -7.15 -23.1 L-6.25 -21.35 -7.55 -22.85 -7.75 -23.05 -8.45 -23.7 -9.25 -24.2 -9.75 -24.4 -9.8 -24.4 -10.15 -24.2 -12.0 -22.9 -12.15 -22.8 -12.25 -22.65 -12.4 -22.55 -14.0 -21.1 -16.6 -18.45 -20.05 -14.0 -20.9 -12.6 -13.45 -17.2 Q-15.25 -14.0 -16.55 -10.55 -17.25 -8.8 -17.55 -6.9 L-8.1 -18.9 -7.95 -20.55 Q-7.5 -15.75 -5.95 -11.25 -5.2 -9.3 -3.9 -7.55 L-5.25 -16.1 Q-5.55 -17.8 -5.25 -19.15 L-5.15 -18.75 -4.85 -17.95 -3.2 -14.95 -0.55 -11.5 0.75 -10.2 2.0 -8.95 3.5 -7.7 8.0 -4.35 7.15 -6.9 6.55 -8.4 3.9 -14.8 8.75 -7.7 9.15 -7.1 10.45 -4.9 9.95 -7.2 9.25 -9.8 7.8 -14.65 7.8 -14.7 7.75 -14.85 12.45 -3.55 14.45 -8.6 14.75 -10.05 Q15.1 -13.85 14.45 -17.6 L15.85 -13.2 15.9 -13.15 15.95 -13.25 M9.85 -2.15 L9.65 -1.8 9.5 -1.7 9.1 -1.45 8.9 -1.3 8.4 -1.6 9.3 -2.8 Q8.95 -3.4 9.2 -4.05 L9.3 -4.2 9.6 -4.85 9.15 -5.95 9.1 -6.1 9.0 -6.2 8.95 -6.2 8.85 -6.05 8.35 -5.1 8.65 -3.85 5.3 -5.65 0.7 -9.25 -0.2 -9.1 -0.8 -9.0 -2.65 -8.7 -3.1 -9.05 -3.15 -9.5 -2.95 -9.85 -2.45 -9.65 0.2 -9.75 -0.9 -10.95 Q-3.3 -13.55 -4.9 -16.65 L-3.5 -7.05 Q-4.85 -7.95 -5.6 -9.45 -7.75 -13.7 -8.1 -18.55 L-11.1 -14.65 -6.8 -10.4 -6.75 -10.45 -6.7 -10.45 -6.25 -10.0 -6.2 -9.9 -6.15 -9.75 -6.2 -9.45 -6.2 -9.4 -6.85 -9.65 -8.1 -10.95 -8.25 -6.45 -8.3 -6.4 Q-8.55 -6.1 -9.0 -6.1 L-9.0 -6.15 Q-9.7 -6.2 -9.75 -7.0 -9.9 -9.0 -9.65 -10.8 L-9.4 -11.45 -9.35 -11.55 -9.3 -9.8 -8.8 -9.45 -8.4 -9.45 -8.4 -11.1 -9.05 -11.7 -9.55 -12.1 -9.8 -12.3 -10.25 -12.75 -11.0 -13.45 -11.1 -13.55 -11.55 -14.05 -12.75 -12.3 Q-12.6 -9.05 -13.25 -5.85 -13.65 -4.0 -12.45 -2.4 -10.9 -0.35 -8.3 0.6 L-3.35 1.75 -3.05 1.75 -2.65 1.8 -2.75 1.75 -0.6 1.75 4.75 0.9 5.5 0.6 Q6.45 0.05 7.4 -0.15 L7.55 -0.05 8.05 0.2 9.4 0.1 10.2 -0.45 11.45 -2.05 Q11.85 -2.8 11.8 -3.65 L11.65 -4.15 Q10.8 -6.0 10.1 -7.95 10.9 -5.5 10.95 -3.0 L10.65 -3.45 9.85 -4.7 9.55 -4.05 Q9.55 -3.5 9.85 -3.0 L9.9 -2.9 9.9 -2.85 9.9 -2.7 9.75 -2.3 9.75 -2.25 9.85 -2.15 M0.2 -8.4 Q0.6 -7.55 0.5 -6.75 L0.5 -5.8 0.3 -4.05 0.15 -3.6 Q-0.55 -3.6 -0.95 -4.2 L-1.1 -4.65 -1.25 -5.85 -1.05 -8.65 -1.0 -8.7 -0.75 -6.9 -0.65 -6.8 Q-0.15 -6.6 0.0 -7.15 L0.2 -8.4 M16.4 -12.0 L15.5 -12.15 15.2 -9.0 19.05 -11.05 16.4 -12.0 M14.35 -3.75 L19.45 -7.35 14.75 -6.8 12.9 -2.95 14.35 -3.75 M-10.2 -24.8 L-13.25 -25.15 -17.2 -24.6 -18.4 -24.15 -14.2 -24.05 -11.9 -23.65 -10.15 -24.75 -10.1 -24.75 -10.2 -24.8 M-4.05 -0.45 L-3.75 -0.8 -3.65 -0.85 -3.45 -0.65 -3.5 -0.65 Q-3.45 -0.4 -3.7 -0.4 L-3.75 -0.4 -3.75 -0.35 -4.5 0.15 Q-6.45 0.85 -7.2 -1.0 -6.25 0.4 -4.75 -0.1 L-4.65 -0.15 -4.4 -0.25 -4.05 -0.45 M4.9 1.3 L4.8 1.3 4.4 1.4 4.25 1.4 4.2 1.4 2.1 1.8 -3.05 2.0 Q-5.7 1.85 -8.2 1.0 L-8.2 1.05 -8.3 1.25 -8.35 1.3 -8.55 1.6 -10.0 4.45 -10.1 4.7 -11.2 8.55 -11.6 10.5 -11.6 10.65 -11.6 11.65 -11.7 12.35 -12.35 15.65 -12.85 17.8 -14.2 23.15 -14.3 23.35 -15.35 23.45 Q-16.25 23.5 -16.85 24.1 -17.3 24.5 -17.35 25.1 -17.5 26.4 -16.3 26.8 L-16.35 26.6 Q-16.65 25.3 -15.4 24.8 L-15.9 25.25 -16.05 26.2 Q-15.85 27.15 -14.9 27.3 L-14.0 27.4 -11.15 27.6 -10.2 27.35 -9.65 26.9 Q-9.0 25.75 -8.7 24.5 L-7.1 17.7 -7.5 16.95 -7.6 16.6 -7.6 15.95 -7.55 15.4 -7.25 14.9 -7.0 14.75 -6.7 14.6 -6.55 14.6 -6.6 14.6 -6.65 14.65 Q-7.0 14.7 -7.15 15.0 L-7.3 15.45 -7.3 15.9 -7.25 16.1 Q-7.1 16.55 -6.5 16.65 L-6.0 16.5 -5.35 16.0 -6.0 16.65 -6.8 16.85 -7.3 16.6 -7.35 16.6 -7.35 16.65 -7.3 16.9 -7.25 17.0 -7.2 17.15 Q-6.45 18.25 -5.2 17.65 L-5.1 17.6 -4.75 17.25 -4.6 17.05 -4.5 16.85 -4.5 17.0 -4.45 17.05 -4.45 17.1 -4.45 17.15 -4.4 17.15 -4.3 17.3 Q-3.7 18.0 -3.2 18.85 L-0.15 23.7 0.6 25.3 0.55 26.4 0.25 27.85 0.2 28.05 0.4 29.3 0.85 30.0 1.1 30.1 1.15 30.1 1.2 29.35 Q1.25 28.8 1.45 28.3 L1.6 28.35 Q1.3 29.4 1.6 30.4 L3.65 30.6 4.35 30.35 4.85 30.15 Q6.35 29.25 6.75 27.4 7.2 25.45 6.5 23.6 L5.3 20.9 3.4 17.65 2.75 16.2 2.75 16.1 2.65 13.75 2.6 13.65 2.65 13.6 2.65 13.35 2.65 13.25 2.7 13.15 Q3.05 11.05 3.75 9.05 L3.9 8.65 4.0 8.2 4.05 8.15 4.0 8.0 3.95 7.75 3.7 6.9 3.45 5.9 3.4 5.65 3.35 5.5 3.35 5.45 Q5.15 8.15 5.5 11.5 L5.35 13.15 5.25 13.2 5.15 13.2 5.05 13.2 4.95 13.2 Q4.55 13.2 4.2 13.45 3.9 13.65 3.85 14.0 L3.95 14.35 Q3.15 15.9 4.5 17.15 L5.35 17.55 Q7.15 17.8 8.3 16.55 L8.7 15.85 Q9.55 13.35 9.2 10.7 9.1 6.75 7.65 3.15 7.3 2.25 6.45 1.85 L4.9 1.3 M-6.35 10.85 L-6.4 11.1 -6.55 11.2 -6.75 11.1 -6.8 10.85 -6.75 10.65 -6.55 10.55 -6.4 10.65 -6.35 10.85" fill="#000000" fill-rule="evenodd" stroke="none"/>
    <path d="M-12.4 -22.55 L-12.25 -22.65 -12.15 -22.8 -12.0 -22.9 -10.15 -24.2 -9.8 -24.4 -9.75 -24.4 -9.25 -24.2 -8.45 -23.7 -7.75 -23.05 -7.55 -22.85 -6.25 -21.35 -7.15 -23.1 Q-8.05 -25.5 -7.2 -28.1 L-7.0 -28.65 -6.95 -28.7 Q-3.55 -30.05 0.15 -30.35 L3.4 -30.4 6.6 -30.05 Q4.7 -29.6 2.85 -28.65 -0.2 -27.1 -2.85 -24.9 L-3.6 -24.0 -3.7 -23.75 Q-2.05 -25.1 0.05 -25.65 L3.85 -26.05 6.9 -26.0 15.0 -25.4 16.45 -25.1 Q14.55 -24.35 12.95 -23.0 L12.35 -22.45 12.1 -22.3 16.7 -22.6 21.25 -23.85 21.7 -24.05 20.7 -21.8 Q19.3 -18.1 17.05 -14.85 L15.95 -13.25 15.85 -13.2 14.45 -17.6 Q15.1 -13.85 14.75 -10.05 L14.45 -8.6 12.45 -3.55 7.75 -14.85 7.8 -14.7 7.8 -14.65 9.25 -9.8 9.95 -7.2 10.45 -4.9 9.15 -7.1 8.75 -7.7 3.9 -14.8 6.55 -8.4 7.15 -6.9 8.0 -4.35 3.5 -7.7 2.0 -8.95 0.75 -10.2 -0.55 -11.5 -3.2 -14.95 -4.85 -17.95 -5.15 -18.75 -5.25 -19.15 Q-5.55 -17.8 -5.25 -16.1 L-3.9 -7.55 Q-5.2 -9.3 -5.95 -11.25 -7.5 -15.75 -7.95 -20.55 L-8.1 -18.9 -17.55 -6.9 Q-17.25 -8.8 -16.55 -10.55 -15.25 -14.0 -13.45 -17.2 L-20.9 -12.6 -20.05 -14.0 -16.6 -18.45 -14.0 -21.1 -14.25 -20.75 -15.45 -18.6 -15.7 -17.9 -10.75 -20.25 -11.05 -19.75 -11.95 -17.95 -12.0 -17.4 -12.0 -17.3 -11.95 -17.3 -11.05 -17.85 -8.8 -19.9 -10.6 -18.8 -9.4 -21.55 -12.25 -20.7 -13.9 -19.95 -12.4 -22.55 M12.0 -15.15 L12.0 -15.5 12.0 -15.9 11.75 -18.8 12.65 -17.0 12.6 -17.4 12.55 -17.65 12.5 -17.8 Q11.9 -19.55 10.75 -20.85 L11.15 -14.95 10.25 -16.45 7.6 -19.9 6.05 -21.5 6.6 -15.2 5.2 -17.65 3.95 -19.65 2.3 -21.65 2.6 -15.9 -1.2 -20.9 -1.15 -19.25 -1.1 -18.8 -1.0 -18.3 -0.65 -16.9 -3.8 -20.6 -2.8 -18.55 -2.55 -18.15 Q-1.55 -16.6 0.0 -15.55 L-0.8 -19.3 1.8 -15.3 3.1 -13.45 3.7 -12.85 2.95 -20.2 5.5 -15.65 Q6.4 -14.15 7.55 -12.8 L7.35 -16.9 7.1 -18.55 7.0 -19.4 9.65 -15.5 11.75 -13.0 11.8 -13.0 12.0 -15.15 M16.4 -12.0 L19.05 -11.05 15.2 -9.0 15.5 -12.15 16.4 -12.0 M14.35 -3.75 L12.9 -2.95 14.75 -6.8 19.45 -7.35 14.35 -3.75 M-10.15 -24.75 L-11.9 -23.65 -14.2 -24.05 -18.4 -24.15 -17.2 -24.6 -13.25 -25.15 -10.2 -24.8 -10.15 -24.75" fill="#333333" fill-rule="evenodd" stroke="none"/>
    <path d="M-14.0 -21.1 L-12.4 -22.55 -13.9 -19.95 -12.25 -20.7 -9.4 -21.55 -10.6 -18.8 -8.8 -19.9 -11.05 -17.85 -11.95 -17.3 -12.0 -17.4 -11.95 -17.95 -11.05 -19.75 -10.75 -20.25 -15.7 -17.9 -15.45 -18.6 -14.25 -20.75 -14.0 -21.1 M12.0 -15.15 L11.8 -13.0 11.75 -13.0 9.65 -15.5 7.0 -19.4 7.1 -18.55 7.35 -16.9 7.55 -12.8 Q6.4 -14.15 5.5 -15.65 L2.95 -20.2 3.7 -12.85 3.1 -13.45 1.8 -15.3 -0.8 -19.3 0.0 -15.55 Q-1.55 -16.6 -2.55 -18.15 L-2.8 -18.55 -3.8 -20.6 -0.65 -16.9 -1.0 -18.3 -1.1 -18.8 -1.15 -19.25 -1.2 -20.9 2.6 -15.9 2.3 -21.65 3.95 -19.65 5.2 -17.65 6.6 -15.2 6.05 -21.5 7.6 -19.9 10.25 -16.45 11.15 -14.95 10.75 -20.85 Q11.9 -19.55 12.5 -17.8 L12.55 -17.65 12.6 -17.4 12.65 -17.0 11.75 -18.8 12.0 -15.9 12.0 -15.5 12.0 -15.15" fill="#999999" fill-rule="evenodd" stroke="none"/>
    <path d="M-0.2 -9.1 L0.7 -9.25 5.3 -5.65 8.65 -3.85 8.35 -5.1 8.85 -6.05 8.95 -6.2 9.0 -6.2 9.1 -6.1 9.15 -5.95 9.6 -4.85 9.3 -4.2 9.2 -4.05 Q8.95 -3.4 9.3 -2.8 L8.4 -1.6 8.9 -1.3 9.1 -1.45 9.5 -1.7 9.65 -1.8 9.85 -2.15 9.85 -2.2 9.9 -2.25 10.65 -3.45 10.95 -3.0 Q10.9 -5.5 10.1 -7.95 10.8 -6.0 11.65 -4.15 L11.8 -3.65 Q11.85 -2.8 11.45 -2.05 L10.2 -0.45 9.4 0.1 8.05 0.2 7.55 -0.05 7.4 -0.15 Q6.45 0.05 5.5 0.6 L4.75 0.9 -0.6 1.75 -2.75 1.75 -3.05 1.75 -3.35 1.75 -8.3 0.6 Q-10.9 -0.35 -12.45 -2.4 -13.65 -4.0 -13.25 -5.85 -12.6 -9.05 -12.75 -12.3 L-11.55 -14.05 -11.1 -13.55 -11.0 -13.45 -10.25 -12.75 -9.8 -12.3 -9.55 -12.1 -9.05 -11.7 -9.1 -11.7 -9.3 -11.65 -9.35 -11.6 -9.35 -11.55 -9.4 -11.45 -9.65 -10.8 Q-9.9 -9.0 -9.75 -7.0 -9.7 -6.2 -9.0 -6.15 L-9.0 -6.1 Q-8.55 -6.1 -8.3 -6.4 L-8.25 -6.45 -8.1 -10.95 -6.85 -9.65 -6.2 -9.4 -6.2 -9.45 -6.15 -9.75 -6.2 -9.9 -6.25 -10.0 -6.7 -10.45 -6.75 -10.45 -6.8 -10.4 -11.1 -14.65 -8.1 -18.55 Q-7.75 -13.7 -5.6 -9.45 -4.85 -7.95 -3.5 -7.05 L-4.9 -16.65 Q-3.3 -13.55 -0.9 -10.95 L0.2 -9.75 -2.45 -9.65 -2.95 -9.85 -3.15 -9.5 -3.1 -9.05 -2.65 -8.7 -0.8 -9.0 -1.0 -8.7 -1.05 -8.65 -1.25 -5.85 -1.1 -4.65 -0.95 -4.2 Q-0.55 -3.6 0.15 -3.6 L0.3 -4.05 0.5 -5.8 0.5 -6.75 Q0.6 -7.55 0.2 -8.4 L0.1 -8.9 -0.2 -9.1 M1.9 -2.45 L1.95 -2.45 3.5 -3.4 3.35 -2.05 Q4.75 -2.15 6.2 -2.9 L3.85 -2.65 3.95 -3.5 Q3.05 -4.05 1.9 -2.45 M-12.85 -6.7 Q-12.4 -6.05 -11.35 -5.85 L-11.0 -6.05 -11.9 -8.0 -11.6 -6.5 -12.85 -6.7 M-4.05 -0.45 L-4.4 -0.25 -4.65 -0.15 -4.75 -0.1 Q-6.25 0.4 -7.2 -1.0 -6.45 0.85 -4.5 0.15 L-3.75 -0.35 -3.75 -0.4 -3.7 -0.4 Q-3.45 -0.4 -3.5 -0.65 L-3.45 -0.65 -3.65 -0.85 -3.75 -0.8 -4.05 -0.45 M-8.55 1.6 L-8.5 1.7 -7.65 2.6 Q-6.8 3.45 -5.55 3.75 L-5.2 3.85 -3.7 4.1 -1.7 4.0 0.65 3.3 1.7 2.9 4.4 1.7 4.9 1.3 6.45 1.85 Q7.3 2.25 7.65 3.15 9.1 6.75 9.2 10.7 9.55 13.35 8.7 15.85 L8.3 16.55 Q7.15 17.8 5.35 17.55 L4.5 17.15 Q3.15 15.9 3.95 14.35 L3.85 14.0 Q3.9 13.65 4.2 13.45 4.55 13.2 4.95 13.2 L5.05 13.2 5.15 13.2 5.25 13.2 5.35 13.15 5.5 11.5 Q5.15 8.15 3.35 5.45 L3.35 5.5 3.4 5.65 3.45 5.9 3.7 6.9 3.95 7.75 4.0 8.0 4.05 8.15 4.0 8.2 3.9 8.65 3.75 9.05 Q3.05 11.05 2.7 13.15 L2.65 13.25 2.65 13.35 2.65 13.6 2.6 13.65 2.65 13.75 2.75 16.1 2.75 16.2 3.4 17.65 5.3 20.9 6.5 23.6 Q7.2 25.45 6.75 27.4 6.35 29.25 4.85 30.15 L4.35 30.35 3.65 30.6 1.6 30.4 Q1.3 29.4 1.6 28.35 L1.45 28.3 Q1.25 28.8 1.2 29.35 L1.15 30.1 1.1 30.1 0.85 30.0 0.4 29.3 0.2 28.05 0.25 27.85 0.55 26.4 0.6 25.3 -0.15 23.7 -3.2 18.85 Q-3.7 18.0 -4.3 17.3 L-4.3 17.05 -4.3 16.85 -4.2 16.45 -3.85 15.5 -3.85 15.4 -3.9 15.4 -3.95 15.5 -4.1 15.7 -4.35 16.0 -4.7 16.6 -5.4 17.3 -6.25 17.45 Q-6.85 17.35 -7.25 17.0 L-7.3 16.9 -7.35 16.65 -7.35 16.6 -7.3 16.6 -6.8 16.85 -6.0 16.65 -5.35 16.0 -6.0 16.5 -6.5 16.65 Q-7.1 16.55 -7.25 16.1 L-7.3 15.9 -7.3 15.45 -7.15 15.0 Q-7.0 14.7 -6.65 14.65 L-6.6 14.6 -6.55 14.6 -6.7 14.6 -7.0 14.75 -7.25 14.9 -7.55 15.4 -7.6 15.95 -7.6 16.6 -7.5 16.95 -7.1 17.7 -8.7 24.5 Q-9.0 25.75 -9.65 26.9 L-10.2 27.35 -11.15 27.6 -14.0 27.4 -14.9 27.3 Q-15.85 27.15 -16.05 26.2 L-15.9 25.25 -15.4 24.8 Q-16.65 25.3 -16.35 26.6 L-16.3 26.8 Q-17.5 26.4 -17.35 25.1 -17.3 24.5 -16.85 24.1 -16.25 23.5 -15.35 23.45 L-14.3 23.35 -14.2 23.15 -12.85 17.8 -12.35 15.65 -11.7 12.35 -11.6 11.65 -11.6 10.65 -11.6 10.5 -11.2 8.55 -10.1 4.7 -10.0 4.45 -8.55 1.6 M4.4 1.4 L4.3 1.45 4.25 1.45 4.25 1.4 4.4 1.4 M-8.95 5.8 L-8.9 5.55 -8.95 5.35 -9.2 5.25 -9.4 5.35 -9.5 5.55 -9.4 5.8 -9.2 5.9 -8.95 5.8 M-6.35 10.85 L-6.4 10.65 -6.55 10.55 -6.75 10.65 -6.8 10.85 -6.75 11.1 -6.55 11.2 -6.4 11.1 -6.35 10.85 M-0.95 7.85 L-1.2 7.75 -1.4 7.85 -1.5 8.05 -1.4 8.25 -1.2 8.35 -0.95 8.25 -0.9 8.05 -0.95 7.85" fill="#ffe3d5" fill-rule="evenodd" stroke="none"/>
    <path d="M-0.2 -9.1 L0.1 -8.9 0.2 -8.4 0.0 -7.15 Q-0.15 -6.6 -0.65 -6.8 L-0.75 -6.9 -1.0 -8.7 -0.8 -9.0 -0.2 -9.1 M-9.35 -11.55 L-9.35 -11.6 -9.3 -11.65 -9.1 -11.7 -9.05 -11.7 -8.4 -11.1 -8.4 -9.45 -8.8 -9.45 -9.3 -9.8 -9.35 -11.55" fill="#ffffff" fill-rule="evenodd" stroke="none"/>
    <path d="M-3.05 1.75 L-2.75 1.75 -2.65 1.8 -3.05 1.75 M10.65 -3.45 L9.9 -2.25 9.85 -2.2 9.85 -2.15 9.75 -2.25 9.75 -2.3 9.9 -2.7 9.9 -2.85 9.9 -2.9 9.85 -3.0 Q9.55 -3.5 9.55 -4.05 L9.85 -4.7 10.65 -3.45 M1.9 -2.45 Q3.05 -4.05 3.95 -3.5 L3.85 -2.65 6.2 -2.9 Q4.75 -2.15 3.35 -2.05 L3.5 -3.4 1.95 -2.45 1.9 -2.45 M-12.85 -6.7 L-11.6 -6.5 -11.9 -8.0 -11.0 -6.05 -11.35 -5.85 Q-12.4 -6.05 -12.85 -6.7 M4.9 1.3 L4.4 1.7 1.7 2.9 0.65 3.3 -1.7 4.0 -3.7 4.1 -5.2 3.85 -5.55 3.75 Q-6.8 3.45 -7.65 2.6 L-8.5 1.7 -8.55 1.6 -8.35 1.3 -8.3 1.25 -8.2 1.05 -8.2 1.0 Q-5.7 1.85 -3.05 2.0 L2.1 1.8 4.2 1.4 4.25 1.4 4.25 1.45 4.3 1.45 4.4 1.4 4.8 1.3 4.9 1.3 M-7.25 17.0 Q-6.85 17.35 -6.25 17.45 L-5.4 17.3 -4.7 16.6 -4.35 16.0 -4.1 15.7 -3.95 15.5 -3.9 15.4 -3.85 15.4 -3.85 15.5 -4.2 16.45 -4.3 16.85 -4.3 17.05 -4.3 17.3 -4.4 17.15 -4.45 17.15 -4.45 17.1 -4.45 17.05 -4.5 17.0 -4.5 16.85 -4.6 17.05 -4.75 17.25 -5.1 17.6 -5.2 17.65 Q-6.45 18.25 -7.2 17.15 L-7.25 17.0" fill="#edb192" fill-rule="evenodd" stroke="none"/>
    <path d="M-11.95 -17.3 L-12.0 -17.3 -12.0 -17.4 -11.95 -17.3 M-10.2 -24.8 L-10.1 -24.75 -10.15 -24.75 -10.2 -24.8" fill="#666666" fill-rule="evenodd" stroke="none"/>
    <path d="M-8.95 5.8 L-9.2 5.9 -9.4 5.8 -9.5 5.55 -9.4 5.35 -9.2 5.25 -8.95 5.35 -8.9 5.55 -8.95 5.8 M-0.95 7.85 L-0.9 8.05 -0.95 8.25 -1.2 8.35 -1.4 8.25 -1.5 8.05 -1.4 7.85 -1.2 7.75 -0.95 7.85" fill="#c85b64" fill-rule="evenodd" stroke="none"/>
  </g>
</svg>
