<?xml version="1.0" encoding="UTF-8" standalone="no"?>
<svg xmlns:ffdec="https://www.free-decompiler.com/flash" xmlns:xlink="http://www.w3.org/1999/xlink" ffdec:objectType="shape" height="7.2px" width="15.2px" xmlns="http://www.w3.org/2000/svg">
  <g transform="matrix(1.0, 0.0, 0.0, 1.0, 6.6, 4.0)">
    <path d="M2.4 -0.5 L4.15 -0.5 4.35 0.0 4.15 0.1 1.0 0.05 0.7 0.6 Q0.4 1.9 0.45 3.2 L-0.2 3.15 -0.9 2.9 Q-2.75 1.4 -4.15 -0.5 L-6.6 -3.5 -6.55 -4.0 -4.75 -2.75 Q-3.1 -1.7 -1.15 -1.15 L2.4 -0.5 M8.6 -1.1 L8.55 -0.65 7.85 -1.35 8.15 -1.45 8.6 -1.1 M-3.4 -1.25 L-3.4 -1.2 -3.9 -1.45 -4.1 -1.35 -3.75 -1.15 Q-1.95 -0.15 0.05 0.4 L0.0 0.4 -0.05 0.4 Q-1.95 0.05 -3.7 -0.7 L-2.1 1.5 Q-1.25 2.45 -0.05 2.3 L0.1 1.9 0.55 0.0 Q-1.55 -0.4 -3.4 -1.25" fill="#01653f" fill-rule="evenodd" stroke="none"/>
    <path d="M-3.4 -1.25 Q-1.55 -0.4 0.55 0.0 L0.1 1.9 -0.05 2.3 Q-1.25 2.45 -2.1 1.5 L-3.7 -0.7 Q-1.95 0.05 -0.05 0.4 L0.0 0.4 0.05 0.4 Q-1.95 -0.15 -3.75 -1.15 L-4.1 -1.35 -3.9 -1.45 -3.4 -1.2 -3.4 -1.25" fill="#009966" fill-rule="evenodd" stroke="none"/>
  </g>
</svg>
