<?xml version="1.0" encoding="UTF-8" standalone="no"?>
<svg xmlns:ffdec="https://www.free-decompiler.com/flash" xmlns:xlink="http://www.w3.org/1999/xlink" ffdec:objectType="shape" height="17.0px" width="48.4px" xmlns="http://www.w3.org/2000/svg">
  <g transform="matrix(1.0, 0.0, 0.0, 1.0, 24.2, 8.5)">
    <path d="M23.6 -0.05 L22.9 0.45 16.3 1.4 15.15 4.15 Q14.75 4.85 14.0 5.1 12.9 5.65 11.7 5.85 L9.2 5.4 Q8.2 5.1 7.3 4.6 6.35 4.05 6.5 2.85 L1.95 2.95 Q-0.05 5.75 -2.65 7.75 L-3.35 8.2 -4.3 8.5 Q-6.05 7.6 -5.95 5.8 L-5.7 2.4 -5.65 -0.05 -5.75 -0.7 -12.7 0.45 -16.1 1.35 -19.15 2.2 -23.4 3.05 -24.05 2.9 -24.2 2.4 Q-24.05 1.25 -23.35 0.45 -22.45 -0.6 -21.25 -1.35 L-18.3 -2.85 -15.2 -4.15 Q-11.8 -5.55 -8.25 -6.45 L-2.9 -7.35 6.25 -8.4 8.25 -8.45 10.15 -8.5 13.4 -8.5 18.9 -7.5 Q21.55 -7.15 23.3 -5.15 24.55 -3.75 24.1 -1.95 L24.05 -1.3 23.6 -0.05" fill="#000000" fill-rule="evenodd" stroke="none"/>
  </g>
</svg>
