<?xml version="1.0" encoding="UTF-8" standalone="no"?>
<svg xmlns:ffdec="https://www.free-decompiler.com/flash" xmlns:xlink="http://www.w3.org/1999/xlink" ffdec:objectType="shape" height="39.8px" width="64.9px" xmlns="http://www.w3.org/2000/svg">
  <g transform="matrix(1.0, 0.0, 0.0, 1.0, 32.9, 20.25)">
    <path d="M10.05 -17.8 L10.8 -18.0 12.5 -16.5 13.05 -17.15 Q14.2 -19.65 17.0 -19.85 L17.9 -19.7 15.4 -17.7 15.65 -17.7 Q20.9 -16.7 23.3 -11.75 21.4 -14.5 18.4 -15.9 L18.2 -15.95 20.2 -9.8 16.8 -15.7 17.05 -10.5 15.05 -16.45 13.1 -13.2 13.35 -16.35 Q12.0 -13.8 13.05 -10.9 13.4 -13.55 14.9 -15.7 15.85 -11.5 18.15 -7.95 L17.05 -14.3 21.7 -6.05 19.55 -13.45 21.45 -11.45 Q23.2 -9.0 24.3 -6.2 26.2 -1.2 31.35 -0.2 30.3 0.45 29.1 0.3 25.2 -0.1 23.65 -3.45 L23.85 0.0 22.15 -2.7 21.8 3.3 18.5 -6.9 19.5 -0.05 17.95 -2.35 17.95 -1.85 16.35 -2.7 16.75 -4.25 17.0 -4.5 14.4 -13.45 Q13.35 -10.9 13.7 -8.1 L13.75 -6.55 Q12.05 -10.05 11.7 -13.9 L11.25 -13.25 9.8 -13.6 9.7 -14.05 9.0 -14.65 5.95 -14.15 7.4 -15.95 7.05 -15.0 10.5 -16.55 8.4 -16.1 10.05 -17.8 M24.2 -9.6 L24.2 -9.55 24.7 -7.7 24.45 -8.2 Q22.7 -11.55 19.5 -13.5 L18.85 -15.15 Q21.55 -13.5 23.35 -10.9 L24.2 -9.6 M1.95 -13.8 L6.5 -15.7 5.3 -14.1 2.05 -13.7 1.95 -13.8" fill="#333333" fill-rule="evenodd" stroke="none"/>
    <path d="M23.3 -11.75 Q20.9 -16.7 15.65 -17.7 L15.4 -17.7 17.9 -19.7 17.0 -19.85 Q14.2 -19.65 13.05 -17.15 L12.5 -16.5 10.8 -18.0 10.05 -17.8 7.4 -15.95 5.95 -14.15 9.0 -14.65 9.7 -14.05 9.8 -13.6 11.25 -13.25 11.7 -13.9 Q12.05 -10.05 13.75 -6.55 L13.7 -8.1 Q13.35 -10.9 14.4 -13.45 L17.0 -4.5 16.75 -4.25 16.35 -2.7 17.95 -1.85 17.95 -2.35 19.5 -0.05 18.5 -6.9 21.8 3.3 22.15 -2.7 23.85 0.0 23.65 -3.45 Q25.2 -0.1 29.1 0.3 30.3 0.45 31.35 -0.2 26.2 -1.2 24.3 -6.2 23.2 -9.0 21.45 -11.45 L19.55 -13.45 19.5 -13.5 Q22.7 -11.55 24.45 -8.2 L24.7 -7.7 24.2 -9.55 24.2 -9.6 23.3 -11.75 M-4.8 -3.55 L-3.35 -3.7 Q-3.85 -4.65 -4.0 -5.7 L-4.05 -7.05 -3.65 -9.1 -2.95 -10.65 Q-2.1 -12.1 -0.55 -12.75 3.7 -14.7 7.8 -17.05 L8.75 -17.6 Q9.55 -18.15 10.55 -18.45 L12.3 -17.0 13.7 -18.65 Q15.75 -20.9 18.6 -19.95 L15.9 -18.0 Q21.25 -16.95 23.55 -11.85 L24.8 -8.65 25.15 -6.5 22.7 -10.1 Q23.95 -6.75 26.0 -3.85 26.95 -2.4 28.5 -1.5 30.1 -0.55 32.0 -0.3 30.2 0.95 27.95 0.95 L25.5 0.85 27.25 9.05 23.4 6.1 26.85 12.05 Q24.05 11.8 21.45 10.95 L17.85 9.5 17.3 10.75 Q16.4 12.3 14.85 13.25 L15.65 9.75 12.35 9.85 11.85 11.2 12.0 11.7 12.2 12.15 Q12.3 13.6 11.75 14.95 11.45 15.65 10.65 15.65 10.2 15.7 9.9 15.4 L8.1 15.15 5.9 14.55 Q4.65 14.7 4.15 13.5 3.65 12.2 4.25 10.9 1.3 11.3 -1.55 10.4 L-1.8 10.3 -2.05 10.2 -2.6 11.3 -2.85 11.95 -3.65 13.95 -4.15 15.35 -5.25 17.6 Q-6.25 19.05 -7.85 19.45 L-10.15 19.25 -10.85 18.7 Q-11.8 17.6 -12.05 16.15 -12.35 14.6 -12.1 13.0 -11.9 11.5 -11.2 10.1 L-9.8 7.85 -10.2 7.6 -12.5 6.6 Q-19.5 8.7 -25.7 12.55 -27.25 13.55 -28.9 12.9 -30.4 12.35 -30.8 10.7 -31.25 8.95 -32.2 7.4 -33.75 4.85 -31.9 2.7 -31.25 1.95 -30.35 1.55 L-29.25 1.15 Q-28.3 0.9 -27.85 1.75 -26.95 3.3 -25.35 4.2 -24.9 4.45 -24.35 4.2 -20.4 2.5 -16.55 0.45 -15.05 -1.85 -12.15 -1.9 L-10.6 -2.15 Q-7.9 -3.1 -5.0 -3.5 L-5.15 -3.25 -8.25 -2.6 -9.5 -2.1 Q-14.0 0.05 -18.6 1.95 -20.85 2.9 -22.85 4.3 -23.85 5.0 -25.0 4.75 -26.4 4.5 -27.05 3.2 -27.9 1.6 -29.5 1.65 L-29.6 1.7 Q-30.4 2.4 -30.1 3.45 L-29.7 4.3 Q-30.2 4.2 -30.4 3.7 L-30.8 2.3 Q-31.95 2.7 -32.4 4.0 -32.6 4.65 -32.4 5.25 -31.75 7.6 -30.55 9.85 -30.35 11.25 -29.25 12.15 -28.4 12.75 -27.35 12.65 L-26.6 12.45 Q-22.6 10.15 -18.4 8.35 L-15.2 6.9 Q-13.55 6.05 -12.35 6.1 -11.5 7.35 -10.1 7.05 L-9.55 7.3 -9.05 6.5 -9.05 6.9 -9.25 7.55 -9.1 7.6 Q-8.35 6.85 -7.3 6.95 -6.0 7.1 -5.6 8.4 L-4.95 8.6 -4.15 8.9 -3.5 9.6 Q-3.1 10.4 -3.05 11.25 L-3.0 11.6 -2.75 11.15 -1.95 9.2 -1.25 8.5 2.45 7.0 3.35 5.1 7.2 -0.5 Q5.55 -1.75 3.4 -2.15 L2.85 -2.3 Q0.4 -3.25 -2.15 -3.35 L-4.45 -3.35 -4.6 -3.35 -4.8 -3.55 M10.5 -12.4 L9.0 -14.2 Q7.85 -14.4 7.0 -13.3 6.3 -12.35 5.7 -12.7 L6.7 -13.7 3.3 -13.55 Q1.6 -13.4 0.1 -12.7 L-0.35 -12.45 Q-1.7 -11.7 -2.65 -10.45 -3.5 -9.25 -3.65 -7.8 L-3.7 -6.35 -3.7 -5.95 Q-3.6 -4.8 -2.95 -3.85 L-2.9 -3.75 -1.9 -3.65 -1.65 -3.65 Q3.1 -2.9 7.4 -0.7 L7.7 -0.85 Q10.15 0.7 11.4 3.2 L11.6 3.15 11.8 3.15 11.95 3.15 12.2 3.1 13.25 2.75 13.35 2.65 13.05 1.25 13.25 1.35 13.3 1.45 13.8 2.05 Q16.45 5.0 20.05 3.3 L20.95 2.1 19.75 -1.5 19.65 -0.35 20.4 0.8 19.7 0.15 19.7 0.85 19.1 0.15 18.1 0.35 16.45 -1.2 17.15 -1.15 17.95 -0.15 18.8 -0.4 18.3 -1.25 15.75 -2.35 16.15 -3.45 Q16.25 -6.5 14.95 -9.35 L14.25 -12.65 13.9 -10.3 14.35 -5.45 14.1 -5.75 Q12.2 -8.35 11.65 -11.55 L11.5 -13.0 9.85 -13.35 10.5 -12.4 M8.25 -10.55 L8.3 -10.5 Q8.55 -10.0 7.95 -9.9 5.3 -9.8 3.3 -11.55 L3.2 -12.15 3.55 -12.4 8.25 -10.55 M5.45 -11.3 L3.5 -11.9 3.5 -11.8 Q4.25 -10.9 5.5 -10.5 L8.05 -10.2 5.45 -11.3 M2.05 -13.7 L5.3 -14.1 6.5 -15.7 1.95 -13.8 1.95 -13.75 2.05 -13.7 M9.0 0.3 L7.7 -0.4 7.5 -0.2 Q5.25 2.25 3.9 5.35 L2.45 8.95 3.65 9.15 2.0 9.15 2.25 7.9 Q0.9 8.1 -0.75 8.75 L-1.45 9.15 Q-1.75 9.4 -1.7 9.8 L-1.65 9.85 Q-0.35 10.55 1.45 10.55 L4.45 10.35 6.5 8.8 7.05 8.75 7.2 7.55 5.45 8.2 7.15 7.3 6.6 5.75 6.15 5.95 4.6 8.7 6.15 4.45 6.2 4.45 9.0 0.3 M16.05 -0.5 Q16.05 0.4 16.95 1.0 17.8 1.6 19.0 1.6 L17.35 1.75 Q16.1 0.95 15.85 -0.55 L16.05 -0.5 M7.55 2.7 L7.25 3.25 7.2 3.3 6.4 4.65 Q7.55 6.0 7.65 7.75 L7.7 8.35 7.65 8.6 7.65 8.65 7.9 8.95 Q9.8 9.45 11.3 10.55 L11.75 10.95 11.8 10.55 12.05 7.7 Q11.95 4.5 10.1 1.7 9.7 1.15 9.15 0.95 L7.55 2.7 M11.9 13.1 Q11.3 10.1 8.05 9.55 L7.0 9.5 Q5.25 9.65 4.75 11.4 L4.6 12.1 4.6 12.8 4.6 12.85 5.4 13.75 6.05 13.7 Q7.45 15.15 9.55 14.95 L11.2 15.1 11.9 13.1 M-12.7 -1.3 L-13.1 -1.3 Q-15.1 -1.25 -16.2 0.4 L-12.7 -1.3 M-10.35 2.55 Q-10.6 1.2 -9.65 0.35 L-9.55 0.3 Q-8.95 0.2 -8.6 0.7 -8.15 1.25 -8.1 1.9 L-8.9 0.65 -9.5 0.55 -9.95 1.05 -10.35 2.55 M-6.35 0.1 L-6.5 -0.1 -5.95 -0.3 -6.35 0.1 M-4.9 15.95 Q-4.0 14.6 -3.6 13.0 -3.25 11.7 -3.55 10.45 -3.8 9.15 -5.1 9.05 L-5.25 9.1 -6.1 9.8 -6.1 8.85 -6.3 8.2 Q-6.8 7.5 -7.65 7.3 L-7.8 7.3 Q-8.8 7.45 -9.45 8.25 L-10.05 9.0 Q-10.9 10.1 -11.35 11.45 -11.75 12.7 -11.75 14.1 -12.1 15.65 -11.35 17.1 L-10.55 18.1 Q-9.85 18.75 -8.85 18.9 L-8.4 18.9 Q-6.75 18.6 -5.65 17.3 L-4.9 15.95 M-11.4 4.8 Q-10.95 6.9 -8.9 6.1 L-8.35 5.8 Q-10.15 7.4 -11.5 5.5 -11.85 5.05 -11.8 4.45 L-11.75 4.05 -10.7 2.2 -11.35 4.05 -11.4 4.75 -11.4 4.8" fill="#000000" fill-rule="evenodd" stroke="none"/>
    <path d="M10.05 -17.8 L8.4 -16.1 10.5 -16.55 7.05 -15.0 7.4 -15.95 10.05 -17.8 M19.55 -13.45 L21.7 -6.05 17.05 -14.3 18.15 -7.95 Q15.85 -11.5 14.9 -15.7 13.4 -13.55 13.05 -10.9 12.0 -13.8 13.35 -16.35 L13.1 -13.2 15.05 -16.45 17.05 -10.5 16.8 -15.7 20.2 -9.8 18.2 -15.95 18.4 -15.9 Q21.4 -14.5 23.3 -11.75 L24.2 -9.6 23.35 -10.9 Q21.55 -13.5 18.85 -15.15 L19.5 -13.5 19.55 -13.45" fill="#999999" fill-rule="evenodd" stroke="none"/>
    <path d="M3.35 5.1 L2.45 7.0 -1.25 8.5 -1.95 9.2 -2.75 11.15 -3.0 11.6 -3.05 11.25 Q-3.1 10.4 -3.5 9.6 L-1.1 5.55 -0.8 6.45 3.35 5.1 M-9.05 6.9 L-9.05 6.5 -9.55 7.3 -10.1 7.05 Q-11.5 7.35 -12.35 6.1 -13.55 6.05 -15.2 6.9 L-18.4 8.35 Q-22.6 10.15 -26.6 12.45 L-27.35 12.65 Q-28.4 12.75 -29.25 12.15 -30.35 11.25 -30.55 9.85 L-29.8 10.55 Q-28.55 11.75 -26.95 11.0 -24.1 9.7 -21.45 8.0 -16.9 5.1 -11.75 4.05 L-11.8 4.45 Q-11.85 5.05 -11.5 5.5 -10.15 7.4 -8.35 5.8 L-8.9 6.1 Q-10.95 6.9 -11.4 4.8 L-11.35 4.8 -11.4 4.75 -11.35 4.05 -10.75 4.8 -8.2 4.95 -8.2 5.0 Q-8.15 5.65 -8.4 6.2 L-9.05 6.9 M7.5 -12.9 L7.6 -12.55 7.5 -12.15 7.3 -12.0 7.1 -12.15 7.0 -12.55 7.1 -12.9 7.3 -13.1 7.5 -12.9 M10.5 -12.4 L9.85 -13.35 11.5 -13.0 11.65 -11.55 10.5 -12.4 M13.9 -10.3 L14.25 -12.65 14.95 -9.35 13.9 -10.3 M16.45 -1.2 L18.1 0.35 19.1 0.15 19.7 0.85 19.7 0.15 20.4 0.8 19.65 -0.35 19.75 -1.5 20.95 2.1 20.05 3.3 19.0 1.6 Q17.8 1.6 16.95 1.0 16.05 0.4 16.05 -0.5 L16.2 -1.0 16.45 -1.2 M13.05 1.25 L13.35 2.65 13.25 2.75 12.2 3.1 11.95 3.15 11.8 3.15 11.6 3.15 11.4 3.2 Q10.15 0.7 7.7 -0.85 L7.4 -0.7 Q3.1 -2.9 -1.65 -3.65 L-1.9 -3.65 -2.9 -3.75 -2.95 -3.85 Q-3.6 -4.8 -3.7 -5.95 L-2.6 -6.75 Q-1.55 -7.25 -0.45 -7.1 L2.5 -6.55 5.35 -4.9 7.2 -3.05 9.4 -0.7 Q10.65 0.55 12.25 1.25 L12.85 1.15 13.05 1.25 M7.65 7.75 Q7.55 6.0 6.4 4.65 L7.2 3.3 7.25 3.25 7.55 2.7 7.65 7.75 M7.65 8.65 L7.65 8.6 7.7 8.35 7.65 8.65 M4.6 12.1 L5.55 12.9 6.1 12.25 6.35 12.35 6.55 12.6 Q8.6 14.2 11.35 14.15 L11.9 13.1 11.2 15.1 9.55 14.95 Q7.45 15.15 6.05 13.7 L5.4 13.75 4.6 12.85 4.6 12.8 4.6 12.1 M-9.95 1.05 Q-9.0 1.15 -8.75 2.15 L-8.8 2.65 Q-9.65 4.0 -10.35 2.55 L-9.95 1.05 M-11.75 14.1 Q-11.6 15.75 -10.2 16.6 -8.65 17.5 -7.0 17.05 -5.8 16.75 -4.9 15.95 L-5.65 17.3 Q-6.75 18.6 -8.4 18.9 L-8.85 18.9 Q-9.85 18.75 -10.55 18.1 L-11.35 17.1 Q-12.1 15.65 -11.75 14.1 M-11.8 4.45 L-11.85 4.45 -11.8 4.45" fill="#edb192" fill-rule="evenodd" stroke="none"/>
    <path d="M-4.6 -3.35 L-4.45 -3.35 -2.15 -3.35 Q0.4 -3.25 2.85 -2.3 L3.4 -2.15 Q5.55 -1.75 7.2 -0.5 L3.35 5.1 -0.8 6.45 -1.1 5.55 -3.5 9.6 -4.15 8.9 -4.95 8.6 -5.6 8.4 Q-6.0 7.1 -7.3 6.95 -8.35 6.85 -9.1 7.6 L-9.25 7.55 -9.05 6.9 -8.4 6.2 Q-8.15 5.65 -8.2 5.0 L-8.2 4.95 -10.75 4.8 -11.35 4.05 -10.7 2.2 -11.75 4.05 Q-16.9 5.1 -21.45 8.0 -24.1 9.7 -26.95 11.0 -28.55 11.75 -29.8 10.55 L-30.55 9.85 Q-31.75 7.6 -32.4 5.25 -32.6 4.65 -32.4 4.0 -31.95 2.7 -30.8 2.3 L-30.4 3.7 Q-30.2 4.2 -29.7 4.3 L-30.1 3.45 Q-30.4 2.4 -29.6 1.7 L-29.5 1.65 Q-27.9 1.6 -27.05 3.2 -26.4 4.5 -25.0 4.75 -23.85 5.0 -22.85 4.3 -20.85 2.9 -18.6 1.95 -14.0 0.05 -9.5 -2.1 L-8.25 -2.6 -5.15 -3.25 -4.6 -3.3 -4.6 -3.35 M7.5 -12.9 L7.3 -13.1 7.1 -12.9 7.0 -12.55 7.1 -12.15 7.3 -12.0 7.5 -12.15 7.6 -12.55 7.5 -12.9 M-3.7 -5.95 L-3.7 -6.35 -3.65 -7.8 Q-3.5 -9.25 -2.65 -10.45 -1.7 -11.7 -0.35 -12.45 L0.1 -12.7 Q1.6 -13.4 3.3 -13.55 L6.7 -13.7 5.7 -12.7 Q6.3 -12.35 7.0 -13.3 7.85 -14.4 9.0 -14.2 L10.5 -12.4 11.65 -11.55 Q12.2 -8.35 14.1 -5.75 L14.35 -5.45 13.9 -10.3 14.95 -9.35 Q16.25 -6.5 16.15 -3.45 L15.75 -2.35 18.3 -1.25 18.8 -0.4 17.95 -0.15 17.15 -1.15 16.45 -1.2 16.2 -1.0 16.05 -0.5 15.85 -0.55 Q16.1 0.95 17.35 1.75 L19.0 1.6 20.05 3.3 Q16.45 5.0 13.8 2.05 L13.3 1.45 13.25 1.35 13.05 1.25 12.85 1.15 12.25 1.25 Q10.65 0.55 9.4 -0.7 L7.2 -3.05 5.35 -4.9 2.5 -6.55 -0.45 -7.1 Q-1.55 -7.25 -2.6 -6.75 L-3.7 -5.95 M8.25 -10.55 L3.55 -12.4 3.2 -12.15 3.3 -11.55 Q5.3 -9.8 7.95 -9.9 8.55 -10.0 8.3 -10.5 L8.25 -10.55 M1.8 -0.95 L1.75 -1.1 1.6 -1.2 1.4 -1.15 1.35 -0.95 1.4 -0.8 1.55 -0.7 1.7 -0.8 1.8 -0.95 M7.65 7.75 L7.55 2.7 9.15 0.95 Q9.7 1.15 10.1 1.7 11.95 4.5 12.05 7.7 L11.8 10.55 11.75 10.95 11.3 10.55 Q9.8 9.45 7.9 8.95 L7.65 8.65 7.7 8.35 7.65 7.75 M4.6 12.1 L4.75 11.4 Q5.25 9.65 7.0 9.5 L8.05 9.55 Q11.3 10.1 11.9 13.1 L11.35 14.15 Q8.6 14.2 6.55 12.6 L6.35 12.35 6.1 12.25 5.55 12.9 4.6 12.1 M4.6 12.85 L4.6 12.8 4.6 12.85 M-12.7 -1.3 L-16.2 0.4 Q-15.1 -1.25 -13.1 -1.3 L-12.7 -1.3 M-9.95 1.05 L-9.5 0.55 -8.9 0.65 -8.1 1.9 Q-8.15 1.25 -8.6 0.7 -8.95 0.2 -9.55 0.3 L-9.65 0.35 Q-10.6 1.2 -10.35 2.55 -9.65 4.0 -8.8 2.65 L-8.75 2.15 Q-9.0 1.15 -9.95 1.05 M-6.35 0.1 L-5.95 -0.3 -6.5 -0.1 -6.35 0.1 M-11.75 14.1 Q-11.75 12.7 -11.35 11.45 -10.9 10.1 -10.05 9.0 L-9.45 8.25 Q-8.8 7.45 -7.8 7.3 L-7.65 7.3 Q-6.8 7.5 -6.3 8.2 L-6.1 8.85 -6.1 9.8 -5.25 9.1 -5.1 9.05 Q-3.8 9.15 -3.55 10.45 -3.25 11.7 -3.6 13.0 -4.0 14.6 -4.9 15.95 -5.8 16.75 -7.0 17.05 -8.65 17.5 -10.2 16.6 -11.6 15.75 -11.75 14.1 M-11.8 4.45 L-11.85 4.45 -11.8 4.45 M-11.4 4.75 L-11.35 4.8 -11.4 4.8 -11.4 4.75" fill="#ffe3d5" fill-rule="evenodd" stroke="none"/>
    <path d="M5.45 -11.3 L8.05 -10.2 5.5 -10.5 Q4.25 -10.9 3.5 -11.8 L3.5 -11.9 5.45 -11.3" fill="#cc0000" fill-rule="evenodd" stroke="none"/>
    <path d="M-5.0 -3.5 L-4.8 -3.55 -4.6 -3.35 -4.6 -3.3 -5.15 -3.25 -5.0 -3.5 M1.8 -0.95 L1.7 -0.8 1.55 -0.7 1.4 -0.8 1.35 -0.95 1.4 -1.15 1.6 -1.2 1.75 -1.1 1.8 -0.95" fill="#c85b64" fill-rule="evenodd" stroke="none"/>
    <path d="M3.9 5.35 Q5.25 2.25 7.5 -0.2 L7.7 -0.4 9.0 0.3 Q6.75 2.15 5.4 4.85 L5.0 5.65 3.9 5.35" fill="#d5d0c1" fill-rule="evenodd" stroke="none"/>
    <path d="M9.0 0.3 L6.2 4.45 6.15 4.45 4.6 8.7 6.15 5.95 6.6 5.75 7.15 7.3 5.45 8.2 7.2 7.55 7.05 8.75 6.5 8.8 4.45 10.35 1.45 10.55 Q-0.35 10.55 -1.65 9.85 L-1.7 9.8 Q-1.75 9.4 -1.45 9.15 L-0.75 8.75 Q0.9 8.1 2.25 7.9 L2.0 9.15 3.65 9.15 2.45 8.95 3.9 5.35 5.0 5.65 5.4 4.85 Q6.75 2.15 9.0 0.3" fill="#aca488" fill-rule="evenodd" stroke="none"/>
  </g>
</svg>
