<?xml version="1.0" encoding="UTF-8" standalone="no"?>
<svg xmlns:ffdec="https://www.free-decompiler.com/flash" xmlns:xlink="http://www.w3.org/1999/xlink" ffdec:objectType="shape" height="7.4px" width="15.2px" xmlns="http://www.w3.org/2000/svg">
  <g transform="matrix(1.0, 0.0, 0.0, 1.0, 6.9, 4.45)">
    <path d="M0.55 -1.25 L-0.2 -1.4 -1.65 -1.75 -3.0 -2.2 -4.45 -2.85 -5.65 -3.65 -6.0 -3.95 -6.05 -3.95 -6.1 -3.95 -6.2 -3.65 -6.25 -3.25 -6.3 -3.15 -6.6 -1.95 -6.65 -1.55 -6.4 -1.1 -5.85 -0.3 -5.4 0.2 -5.05 0.5 -4.5 0.95 -3.6 1.55 -3.1 1.8 -2.0 2.25 -0.8 2.55 0.35 2.7 0.85 2.7 1.25 2.65 1.55 2.6 2.85 2.4 4.4 1.95 5.05 1.75 5.05 1.7 5.05 1.6 5.05 1.5 5.05 1.45 5.0 1.4 5.0 1.35 4.95 1.35 4.9 1.3 4.65 0.9 4.3 0.3 4.0 -0.3 3.85 -0.5 3.6 -0.75 3.15 -0.95 1.8 -1.1 0.55 -1.25 M3.35 -1.35 L3.45 -1.3 3.6 -1.15 5.0 0.9 5.1 1.1 5.3 1.5 5.5 2.0 5.45 2.1 5.3 2.1 1.8 2.8 0.4 2.95 -0.6 2.85 -2.55 2.4 -4.05 1.65 -5.35 0.65 -5.75 0.2 -6.5 -0.8 -6.55 -0.85 -6.85 -1.85 -6.9 -2.2 -6.7 -2.85 -6.5 -3.5 -6.45 -4.3 -6.4 -4.4 -6.35 -4.45 -6.0 -4.2 -5.75 -4.0 Q-4.85 -3.25 -3.8 -2.75 -3.1 -2.4 -2.3 -2.2 L-0.6 -1.75 0.7 -1.4 3.25 -1.1 3.25 -1.2 3.25 -1.3 3.3 -1.35 3.35 -1.35 M8.15 -3.1 L8.25 -3.1 8.3 -2.95 8.3 -2.3 8.3 -1.7 8.25 -0.6 7.75 -1.25 7.6 -1.55 7.3 -2.1 8.15 -3.1 M8.1 -2.65 L7.65 -2.0 7.7 -1.8 8.1 -1.2 8.2 -1.15 8.15 -2.6 8.1 -2.65" fill="#666666" fill-rule="evenodd" stroke="none"/>
    <path d="M0.55 -1.25 L1.8 -1.1 3.15 -0.95 3.6 -0.75 3.85 -0.5 4.0 -0.3 4.3 0.3 4.65 0.9 4.9 1.3 4.95 1.35 5.0 1.35 5.0 1.4 5.05 1.45 5.05 1.5 5.05 1.6 5.05 1.7 5.05 1.75 4.4 1.95 2.85 2.4 1.55 2.6 1.25 2.65 0.85 2.7 0.35 2.7 -0.8 2.55 -2.0 2.25 -3.1 1.8 -3.6 1.55 -4.5 0.95 -5.05 0.5 -5.4 0.2 -5.85 -0.3 -6.4 -1.1 -6.65 -1.55 -6.6 -1.95 -6.3 -3.15 -6.25 -3.25 -6.2 -3.65 -6.1 -3.95 -6.05 -3.95 -6.0 -3.95 -5.65 -3.65 -4.45 -2.85 -3.0 -2.2 -1.65 -1.75 -0.2 -1.4 0.55 -1.25 M8.1 -2.65 L8.15 -2.6 8.2 -1.15 8.1 -1.2 7.7 -1.8 7.65 -2.0 8.1 -2.65" fill="#cccccc" fill-rule="evenodd" stroke="none"/>
  </g>
</svg>
