<?xml version="1.0" encoding="UTF-8" standalone="no"?>
<svg xmlns:ffdec="https://www.free-decompiler.com/flash" xmlns:xlink="http://www.w3.org/1999/xlink" ffdec:objectType="shape" height="94.95px" width="308.55px" xmlns="http://www.w3.org/2000/svg">
  <g transform="matrix(1.0, 0.0, 0.0, 1.0, 154.25, 47.5)">
    <path d="M32.3 -47.45 Q38.45 -47.9 43.2 -43.95 48.2 -46.25 52.8 -43.7 55.55 -42.15 57.2 -39.4 68.3 -42.45 77.45 -35.65 L85.7 -35.4 86.45 -36.15 87.45 -36.4 85.7 -33.65 68.7 -31.9 Q60.4 -20.65 48.55 -27.0 L46.25 -28.4 40.1 -28.05 33.1 -22.95 35.0 -21.15 44.5 -24.4 35.8 -18.15 42.25 -14.65 Q49.95 -17.15 57.4 -17.2 L60.0 -17.35 Q65.4 -26.7 76.65 -24.65 78.9 -24.2 80.95 -23.35 86.3 -21.45 88.05 -16.05 L90.1 -15.65 Q103.45 -15.25 116.7 -17.0 118.5 -17.05 120.2 -17.9 135.6 -8.25 154.3 -9.55 137.7 -7.25 121.45 -0.4 113.95 6.25 103.95 5.0 L99.3 4.55 Q92.8 11.05 83.9 8.65 80.75 7.9 78.25 6.2 L68.65 10.05 70.45 11.85 89.95 12.85 89.7 15.6 71.8 20.9 88.55 21.05 Q95.8 12.15 107.25 13.55 110.4 13.95 112.95 15.95 122.95 13.3 130.7 20.1 115.45 43.35 97.15 31.85 93.6 32.2 91.15 29.9 L89.3 28.05 73.8 31.25 74.95 33.25 84.55 35.05 90.2 32.6 Q94.0 33.7 95.4 37.65 L96.6 41.05 99.6 42.0 95.45 42.85 Q94.7 44.65 92.9 45.3 91.05 46.1 89.2 45.35 85.1 48.45 80.2 47.0 76.3 45.95 74.0 42.65 L71.95 42.35 Q58.4 53.05 44.2 41.05 34.35 46.1 25.0 40.4 L20.8 37.35 Q8.3 43.35 0.2 34.55 -1.9 37.85 -5.55 39.0 -7.25 39.6 -9.0 39.55 -17.0 49.45 -30.05 45.85 -33.4 45.0 -36.35 43.05 L-39.5 40.85 -40.75 40.85 Q-47.2 48.8 -55.6 43.0 -58.45 41.0 -60.25 37.85 -64.55 36.65 -68.1 38.95 L-69.75 40.1 -72.65 38.6 Q-62.3 32.3 -50.5 35.6 -45.85 27.75 -36.95 26.3 L-38.6 25.0 Q-54.8 32.55 -67.65 22.55 -77.85 28.05 -88.0 22.15 -96.25 31.8 -110.8 29.6 -114.75 29.1 -118.75 30.6 L-126.55 25.55 -131.75 26.85 -138.9 22.2 -133.75 24.85 -117.45 21.15 Q-127.95 19.8 -135.05 11.65 L-141.5 10.35 -140.25 7.4 Q-148.2 5.8 -154.25 0.6 -136.95 2.45 -119.95 6.55 -107.0 9.7 -95.75 4.1 -106.05 3.1 -112.6 -4.3 L-111.75 -5.15 Q-88.85 6.15 -65.95 -7.0 -58.35 -11.4 -50.1 -7.55 -47.2 -6.2 -44.65 -4.15 L-36.25 -7.15 -35.7 -8.3 -39.8 -11.05 Q-49.6 -7.75 -57.7 -17.3 L-59.25 -19.15 Q-72.9 -13.4 -82.25 -21.9 -67.4 -18.85 -52.75 -22.9 L-49.4 -26.85 -56.5 -31.15 Q-61.85 -28.6 -66.8 -32.1 L-68.25 -33.15 -67.25 -33.4 -65.0 -31.9 Q-37.65 -44.35 -11.65 -38.2 -8.35 -37.45 -6.6 -34.1 L-1.5 -31.65 0.55 -32.7 Q10.7 -40.45 23.85 -45.85 27.4 -47.3 32.3 -47.45 M10.15 -17.85 Q15.4 -16.85 20.55 -15.3 L22.2 -17.05 13.0 -21.9 6.7 -17.8 Q8.45 -18.1 10.15 -17.85 M137.2 20.7 Q135.6 19.85 134.25 18.65 L151.95 19.35 Q146.1 25.5 137.2 20.7" fill="#666666" fill-rule="evenodd" stroke="none"/>
  </g>
</svg>
