<?xml version="1.0" encoding="UTF-8" standalone="no"?>
<svg xmlns:ffdec="https://www.free-decompiler.com/flash" xmlns:xlink="http://www.w3.org/1999/xlink" ffdec:objectType="shape" height="50.0px" width="160.15px" xmlns="http://www.w3.org/2000/svg">
  <g transform="matrix(1.0, 0.0, 0.0, 1.0, 80.1, 25.0)">
    <path d="M14.0 -12.3 Q17.25 -8.65 22.3 -8.5 L24.0 -8.5 Q17.3 -9.85 12.3 -14.5 L14.0 -12.3 M-5.7 -21.25 Q6.35 -19.85 17.2 -25.0 L15.8 -22.85 15.0 -21.85 13.6 -20.6 Q19.5 -17.9 26.1 -17.25 28.1 -17.25 29.9 -17.85 35.0 -19.55 37.55 -15.8 44.8 -5.1 58.8 -5.3 L57.7 -1.2 58.8 -5.3 Q67.0 -5.0 75.7 -7.6 L76.3 -7.45 57.7 -1.2 56.85 -0.95 57.25 -0.45 Q48.9 9.6 35.55 9.45 L11.1 10.6 Q-0.4 10.7 -6.8 1.9 -0.4 10.7 11.1 10.6 L35.55 9.45 Q48.9 9.6 57.25 -0.45 L58.0 0.75 Q58.5 1.55 58.25 2.25 55.3 9.95 46.55 12.55 48.75 13.9 51.05 15.05 58.45 18.45 66.1 16.0 L71.15 14.05 70.9 13.5 70.6 12.85 69.6 11.9 Q68.4 11.0 67.05 10.35 L67.85 8.15 77.4 8.0 77.35 8.7 74.65 10.55 75.25 12.0 76.6 12.55 77.8 13.25 78.35 13.85 79.6 15.75 75.8 16.45 75.25 16.85 Q71.5 20.55 76.45 23.45 78.15 24.4 80.05 24.15 L77.9 24.65 76.35 24.9 74.75 24.95 68.3 24.5 67.15 22.9 66.4 23.15 Q50.5 24.25 36.3 16.9 33.2 15.25 30.3 13.25 L28.65 14.65 27.7 14.95 12.0 19.05 11.65 19.4 5.3 20.45 Q-4.5 20.8 -12.3 15.15 L-12.9 12.2 -19.25 13.05 Q-29.0 13.45 -37.85 9.65 L-41.8 11.1 Q-54.7 14.0 -67.05 8.55 L-68.45 9.5 -70.0 10.2 -71.45 10.95 Q-75.6 12.3 -80.1 12.15 L-75.8 11.05 -73.75 10.55 Q-67.8 8.25 -62.8 4.1 L-57.4 5.9 Q-45.85 9.55 -35.05 4.05 L-30.55 5.65 -28.3 6.45 -15.85 7.2 -15.65 5.95 -21.8 1.1 -20.6 -1.3 Q-19.5 -0.45 -18.2 0.1 -12.5 2.5 -6.8 1.9 0.25 1.05 6.05 -3.3 L7.45 -4.4 5.05 -6.75 Q2.65 -7.1 1.8 -9.5 1.0 -11.7 -0.2 -13.65 L-0.55 -14.5 Q-3.65 -15.15 -6.25 -16.6 L-7.9 -17.6 -5.7 -21.25 -7.9 -17.6 Q-11.2 -19.85 -13.65 -23.25 L-11.2 -22.35 -5.7 -21.25 M41.25 -3.35 L38.8 -4.05 Q28.8 0.15 18.15 1.7 12.25 2.7 6.55 4.7 L6.8 5.15 Q14.1 4.65 21.4 3.2 L22.2 3.5 23.05 2.65 25.15 4.45 Q31.85 5.55 37.7 2.55 40.2 1.15 41.45 -1.45 L41.25 -3.35" fill="#ffffff" fill-rule="evenodd" stroke="none"/>
  </g>
</svg>
