<?xml version="1.0" encoding="UTF-8" standalone="no"?>
<svg xmlns:ffdec="https://www.free-decompiler.com/flash" xmlns:xlink="http://www.w3.org/1999/xlink" ffdec:objectType="shape" height="7.35px" width="14.95px" xmlns="http://www.w3.org/2000/svg">
  <g transform="matrix(1.0, 0.0, 0.0, 1.0, 6.65, 4.4)">
    <path d="M3.85 -0.5 L3.8 -0.55 Q1.3 -0.25 -1.15 -1.0 -3.8 -1.55 -5.75 -3.2 L-5.9 -3.45 -5.85 -3.45 Q-1.65 -0.45 3.55 -0.8 L3.15 -0.9 0.55 -1.25 Q-2.1 -1.65 -4.4 -2.95 L-6.1 -3.95 -6.4 -2.7 -5.65 -1.35 -4.8 -0.25 -3.8 0.85 -2.65 1.75 -1.35 2.3 0.35 2.6 1.25 2.35 3.1 1.4 4.5 0.6 3.85 -0.5 M3.45 -1.35 L4.3 -0.1 4.4 0.05 4.8 0.5 3.15 1.55 1.6 2.45 0.6 2.95 -1.0 2.55 -2.6 2.0 -3.85 1.1 -4.7 0.3 -5.85 -1.15 Q-6.45 -2.0 -6.65 -2.9 L-6.4 -4.4 Q-4.85 -3.2 -3.0 -2.5 0.05 -1.3 3.45 -1.35 M8.25 -0.6 L7.3 -2.2 Q7.25 -2.55 7.7 -2.75 L8.15 -3.1 8.3 -1.7 8.25 -0.6 M8.2 -1.15 L8.1 -2.65 7.8 -1.9 8.0 -2.1 8.05 -2.1 7.9 -1.75 8.15 -1.25 8.2 -1.15" fill="#313566" fill-rule="evenodd" stroke="none"/>
    <path d="M3.85 -0.5 L4.5 0.6 3.1 1.4 1.25 2.35 0.35 2.6 -1.35 2.3 -2.65 1.75 -3.8 0.85 -4.8 -0.25 -5.65 -1.35 -6.4 -2.7 -6.1 -3.95 -4.4 -2.95 Q-2.1 -1.65 0.55 -1.25 L3.15 -0.9 3.55 -0.8 Q-1.65 -0.45 -5.85 -3.45 L-5.9 -3.45 -5.75 -3.2 Q-3.8 -1.55 -1.15 -1.0 1.3 -0.25 3.8 -0.55 L3.85 -0.5 M8.2 -1.15 L8.15 -1.25 7.9 -1.75 8.05 -2.1 8.0 -2.1 7.8 -1.9 8.1 -2.65 8.2 -1.15" fill="#0066cc" fill-rule="evenodd" stroke="none"/>
  </g>
</svg>
