<?xml version="1.0" encoding="UTF-8" standalone="no"?>
<svg xmlns:ffdec="https://www.free-decompiler.com/flash" xmlns:xlink="http://www.w3.org/1999/xlink" ffdec:objectType="shape" height="36.25px" width="60.0px" xmlns="http://www.w3.org/2000/svg">
  <g transform="matrix(1.0, 0.0, 0.0, 1.0, 30.0, 18.15)">
    <path d="M5.5 -10.9 L8.5 -10.7 10.2 -10.0 12.45 -8.3 5.5 -10.9 M-6.0 -16.0 L-3.6 -14.0 -6.3 -15.95 -6.25 -16.05 -6.05 -16.05 -6.0 -16.0" fill="#9f8035" fill-rule="evenodd" stroke="none"/>
    <path d="M8.5 -10.7 L5.5 -10.9 -7.2 -5.9 0.4 -3.15 12.45 -8.3 10.2 -10.0 23.3 -5.5 30.0 -7.8 30.0 7.75 23.9 9.85 23.9 -4.35 13.7 -7.95 0.95 -2.95 8.25 -0.3 21.4 -4.85 22.6 1.15 8.1 6.45 7.35 0.1 7.95 15.4 0.0 18.1 -6.55 15.85 -6.05 6.85 -23.9 1.2 -24.0 9.85 -30.0 7.75 -30.0 -7.8 0.0 2.5 6.75 0.05 -21.8 -10.6 -21.55 -10.7 -15.65 -8.65 -3.6 -14.0 -6.0 -16.0 -5.95 -16.1 -5.7 -16.15 8.5 -10.7 M-14.95 -8.3 L-7.8 -6.05 3.8 -11.1 -2.45 -13.65 -14.95 -8.3" fill="#ccb462" fill-rule="evenodd" stroke="none"/>
    <path d="M0.3 -17.6 L0.45 -17.2 0.3 -16.75 Q0.15 -16.6 -0.1 -16.6 L-0.5 -16.75 -0.65 -17.2 -0.5 -17.6 -0.1 -17.8 0.3 -17.6 M0.6 0.55 L1.0 0.75 1.15 1.15 1.0 1.6 0.6 1.75 Q0.35 1.75 0.2 1.6 L0.05 1.15 Q0.05 0.9 0.2 0.75 0.35 0.55 0.6 0.55 M4.5 -0.3 L4.65 0.1 4.5 0.5 4.1 0.65 3.7 0.5 3.55 0.1 3.7 -0.3 4.1 -0.45 4.5 -0.3 M23.65 -7.25 L24.05 -7.45 24.45 -7.25 24.6 -6.85 24.45 -6.4 Q24.3 -6.25 24.05 -6.25 L23.65 -6.4 Q23.5 -6.6 23.5 -6.85 L23.65 -7.25 M27.6 -7.8 L27.45 -7.45 27.1 -7.3 26.75 -7.45 26.6 -7.8 26.75 -8.15 27.1 -8.3 27.45 -8.15 27.6 -7.8 M-25.4 -7.9 L-25.6 -7.4 Q-25.8 -7.2 -26.1 -7.2 L-26.6 -7.4 -26.8 -7.9 -26.6 -8.4 -26.1 -8.6 Q-25.8 -8.6 -25.6 -8.4 L-25.4 -7.9 M-21.75 -9.7 L-21.55 -9.2 -21.75 -8.65 Q-21.95 -8.45 -22.25 -8.45 L-22.75 -8.65 -22.95 -9.2 -22.75 -9.7 -22.25 -9.95 -21.75 -9.7 M-3.35 -16.55 L-2.9 -16.75 -2.45 -16.55 -2.25 -16.1 -2.45 -15.65 -2.9 -15.45 -3.35 -15.65 -3.55 -16.1 -3.35 -16.55" fill="#c8ad55" fill-rule="evenodd" stroke="none"/>
    <path d="M0.3 -17.6 L-0.1 -17.8 -0.5 -17.6 -0.65 -17.2 -0.5 -16.75 -0.1 -16.6 Q0.15 -16.6 0.3 -16.75 L0.45 -17.2 0.3 -17.6 M5.5 -10.9 L12.45 -8.3 0.4 -3.15 -7.2 -5.9 5.5 -10.9 M10.2 -10.0 L8.5 -10.7 -5.7 -16.15 0.0 -18.15 30.0 -7.8 23.3 -5.5 10.2 -10.0 M-5.95 -16.1 L-6.0 -16.0 -6.05 -16.05 -5.95 -16.1 M-3.6 -14.0 L-15.65 -8.65 -21.55 -10.7 -6.3 -15.95 -3.6 -14.0 M-21.8 -10.6 L6.75 0.05 0.0 2.5 -30.0 -7.8 -21.8 -10.6 M21.4 -4.85 L8.25 -0.3 0.95 -2.95 13.7 -7.95 21.4 -4.85 M4.5 -0.3 L4.1 -0.45 3.7 -0.3 3.55 0.1 3.7 0.5 4.1 0.65 4.5 0.5 4.65 0.1 4.5 -0.3 M0.6 0.55 Q0.35 0.55 0.2 0.75 0.05 0.9 0.05 1.15 L0.2 1.6 Q0.35 1.75 0.6 1.75 L1.0 1.6 1.15 1.15 1.0 0.75 0.6 0.55 M27.6 -7.8 L27.45 -8.15 27.1 -8.3 26.75 -8.15 26.6 -7.8 26.75 -7.45 27.1 -7.3 27.45 -7.45 27.6 -7.8 M23.65 -7.25 L23.5 -6.85 Q23.5 -6.6 23.65 -6.4 L24.05 -6.25 Q24.3 -6.25 24.45 -6.4 L24.6 -6.85 24.45 -7.25 24.05 -7.45 23.65 -7.25 M-21.75 -9.7 L-22.25 -9.95 -22.75 -9.7 -22.95 -9.2 -22.75 -8.65 -22.25 -8.45 Q-21.95 -8.45 -21.75 -8.65 L-21.55 -9.2 -21.75 -9.7 M-25.4 -7.9 L-25.6 -8.4 Q-25.8 -8.6 -26.1 -8.6 L-26.6 -8.4 -26.8 -7.9 -26.6 -7.4 -26.1 -7.2 Q-25.8 -7.2 -25.6 -7.4 L-25.4 -7.9 M-3.35 -16.55 L-3.55 -16.1 -3.35 -15.65 -2.9 -15.45 -2.45 -15.65 -2.25 -16.1 -2.45 -16.55 -2.9 -16.75 -3.35 -16.55 M-14.95 -8.3 L-2.45 -13.65 3.8 -11.1 -7.8 -6.05 -14.95 -8.3" fill="#efe9cb" fill-rule="evenodd" stroke="none"/>
    <path d="M-24.0 9.85 L-23.9 1.2 -6.05 6.85 -6.55 15.85 -6.7 15.95 -6.9 15.75 -6.8 7.4 -17.25 4.65 -17.4 7.6 -23.45 10.05 -24.0 9.85 M7.95 15.4 L7.35 0.1 8.1 6.45 22.6 1.15 21.4 -4.85 13.7 -7.95 23.9 -4.35 23.9 9.85 22.8 10.25 17.25 7.5 16.9 4.25 8.15 7.15 8.5 15.2 7.95 15.4 M22.55 1.6 L22.6 1.6 22.6 1.55 22.55 1.6" fill="#83622c" fill-rule="evenodd" stroke="none"/>
    <path d="M22.55 1.6 L22.6 1.55 22.6 1.6 22.55 1.6" fill="#dace8b" fill-rule="evenodd" stroke="none"/>
    <path d="M22.8 10.25 L8.5 15.2 8.15 7.15 16.9 4.25 17.25 7.5 22.8 10.25 M-6.9 15.75 L-23.45 10.05 -17.4 7.6 -17.25 4.65 -6.8 7.4 -6.9 15.75" fill="#322410" fill-rule="evenodd" stroke="none"/>
  </g>
</svg>
