<?xml version="1.0" encoding="UTF-8" standalone="no"?>
<svg xmlns:ffdec="https://www.free-decompiler.com/flash" xmlns:xlink="http://www.w3.org/1999/xlink" ffdec:objectType="shape" height="230.95px" width="66.75px" xmlns="http://www.w3.org/2000/svg">
  <g transform="matrix(1.0, 0.0, 0.0, 1.0, 33.35, 115.5)">
    <path d="M-16.75 108.6 Q-15.6 109.9 -16.7 108.3 L-16.75 108.6 M-17.05 93.15 L-15.4 91.4 -16.5 95.2 -8.05 82.7 -15.3 88.15 -17.05 93.15 M-16.85 28.4 L-19.55 24.2 -27.15 44.65 -16.55 65.65 -19.95 39.2 -21.45 37.8 -16.85 28.4 M-17.55 -67.75 L-16.25 -78.25 -18.9 -71.65 -17.55 -67.75 M-20.6 -50.25 L-17.25 -36.85 -9.7 -67.15 -16.25 -51.7 -20.6 -50.25 M19.75 99.5 Q19.75 100.5 18.6 101.25 17.45 101.95 15.85 101.95 14.25 101.95 13.1 101.25 11.95 100.5 11.95 99.5 11.95 98.5 13.1 97.8 14.25 97.05 15.85 97.05 17.45 97.05 18.6 97.8 19.75 98.5 19.75 99.5 M-12.55 112.45 L-12.65 112.25 Q-14.35 111.2 -12.55 112.45 M-6.4 80.1 L-5.9 79.05 Q-6.7 78.65 -6.4 80.1 M20.6 91.6 L18.2 91.75 33.4 81.35 20.6 91.6 M6.95 62.1 L13.45 54.75 11.4 61.9 6.95 62.1 M-7.55 49.3 L-5.9 47.35 -7.55 36.0 -12.85 74.0 -8.6 75.3 -7.55 49.3 M-9.2 32.1 L-10.35 29.15 -17.95 37.1 -16.25 43.85 -9.2 32.1 M-14.85 28.25 L-11.6 25.4 -17.75 13.7 -14.95 6.7 -18.75 -7.1 -19.2 21.4 -14.85 28.25 M-6.85 28.25 L-2.95 21.8 -4.6 7.55 -4.15 20.6 -7.8 25.55 -6.85 28.25 M-12.65 2.25 L-7.55 -7.5 -15.55 -30.35 -19.6 -12.85 -12.65 2.25 M-11.55 13.65 L-14.65 12.05 -9.3 21.9 -6.2 18.8 -5.7 -5.45 -11.55 13.65 M-7.55 -22.25 L-4.05 -20.15 -3.5 -56.5 -7.55 -22.25 M1.5 -11.7 L-2.55 -15.3 -4.2 3.1 1.5 -11.7 M-7.0 -19.9 L-5.7 -14.05 -4.8 -17.55 -7.0 -19.9 M-5.55 -39.95 L-8.9 -53.5 -14.9 -32.5 -10.3 -25.65 -5.55 -39.95 M-10.4 -109.4 L-5.45 -102.95 4.65 -112.55 -5.2 -76.8 -3.8 -81.05 -1.7 -81.3 6.7 -108.5 -2.15 -16.7 3.45 -12.1 4.05 -14.05 Q8.95 12.5 -4.4 37.15 L-1.45 44.65 -2.8 48.1 -1.35 79.2 -3.8 81.3 -8.2 99.3 -10.4 98.3 -10.85 89.7 -12.4 96.75 -8.75 100.4 -0.35 94.15 -8.55 104.15 -5.6 110.5 -8.25 114.5 -11.65 115.45 -21.9 110.45 -19.6 104.7 -33.35 82.95 -24.1 89.7 -17.75 70.0 -18.8 67.35 -21.0 66.85 -29.6 46.35 -21.55 21.95 -23.05 19.45 -27.3 -23.85 -30.35 -26.1 -24.9 -36.45 -26.7 -24.9 -23.7 -21.35 -17.95 -34.9 Q-32.1 -73.2 -24.95 -114.35 L-22.2 -115.5 -19.6 -108.3 -21.3 -106.65 -24.4 -82.0 -19.8 -73.95 -14.6 -107.75 -10.4 -109.4" fill="#ffffff" fill-rule="evenodd" stroke="none"/>
  </g>
</svg>
