<?xml version="1.0" encoding="UTF-8" standalone="no"?>
<svg xmlns:ffdec="https://www.free-decompiler.com/flash" xmlns:xlink="http://www.w3.org/1999/xlink" ffdec:objectType="shape" height="229.0px" width="79.35px" xmlns="http://www.w3.org/2000/svg">
  <g transform="matrix(1.0, 0.0, 0.0, 1.0, 39.7, 114.5)">
    <path d="M-10.75 73.6 L-12.95 74.1 -21.65 55.15 -10.75 73.6 M-24.7 89.3 L-24.85 86.75 -20.8 90.15 -24.7 89.3 M8.8 84.55 L2.9 90.3 2.4 92.85 6.2 97.7 8.8 84.55 M-39.7 34.55 L-39.35 31.05 -27.1 59.6 -39.7 34.55 M6.9 8.65 L4.8 6.9 -1.2 13.9 5.6 28.2 6.9 8.65 M8.95 -61.35 L16.3 -95.85 5.8 -84.1 8.95 -61.35 M24.75 81.75 L20.5 85.85 21.1 82.9 24.75 81.75 M37.2 29.4 L39.65 28.35 34.45 37.6 37.2 29.4 M12.65 -32.8 L9.75 -33.15 7.5 -16.45 12.65 -32.8 M25.9 -2.2 L23.2 -1.1 20.55 -2.05 17.3 20.45 25.9 -2.2 M13.85 -73.05 L11.8 -62.4 13.15 -64.2 12.1 -36.75 14.85 -35.5 18.0 -69.3 13.85 -73.05 M14.35 -75.15 L17.05 -73.05 16.15 -82.75 14.35 -75.15 M17.15 -113.75 L17.75 -106.4 22.0 -111.45 20.45 -71.3 21.85 -69.5 Q19.55 -63.1 18.15 -56.55 L17.35 -52.3 Q14.9 -37.75 17.95 -23.45 20.1 -13.2 24.9 -3.85 L26.65 -5.35 30.05 -3.5 15.15 35.4 19.3 28.55 10.15 77.95 12.4 82.45 14.85 74.95 17.25 74.1 11.5 95.1 13.55 100.95 17.05 98.8 19.1 100.2 8.9 107.45 6.5 114.5 6.3 109.85 -1.35 102.6 2.6 100.45 -6.95 86.55 1.75 98.55 -1.5 88.95 3.25 84.85 2.75 62.15 6.6 70.3 5.55 42.95 -0.65 57.75 1.4 61.65 0.0 59.95 -4.25 60.45 4.7 38.15 -5.8 11.7 2.6 -15.0 1.3 -23.15 2.65 -20.95 4.45 -53.1 -0.75 -36.1 -6.45 -72.2 -1.45 -80.8 -2.2 -84.85 -7.85 -86.7 -2.7 -107.85 0.25 -105.95 2.75 -110.05 4.45 -108.7 6.2 -94.5 9.05 -95.25 9.75 -114.5 13.65 -112.3 17.15 -113.75" fill="#ffffff" fill-rule="evenodd" stroke="none"/>
  </g>
</svg>
