<?xml version="1.0" encoding="UTF-8" standalone="no"?>
<svg xmlns:ffdec="https://www.free-decompiler.com/flash" xmlns:xlink="http://www.w3.org/1999/xlink" ffdec:objectType="shape" height="30.35px" width="60.0px" xmlns="http://www.w3.org/2000/svg">
  <g transform="matrix(1.0, 0.0, 0.0, 1.0, 30.0, 15.2)">
    <path d="M-17.3 -10.35 L-1.85 -15.2 2.05 -15.15 6.65 -13.9 30.0 -5.5 23.85 -4.25 23.2 -5.3 19.85 -5.85 23.05 -4.1 11.2 0.1 15.5 -2.1 3.25 -3.55 2.9 -3.4 0.7 -1.45 -3.85 1.3 -6.9 1.35 -20.75 -4.0 -17.95 -3.9 -2.95 -2.05 -4.25 -5.25 -10.75 -4.1 -14.05 -6.75 -18.2 -4.8 -21.45 -4.4 -24.85 -3.7 -30.0 -5.5 -20.95 -8.6 -20.65 -8.0 Q-20.4 -7.75 -20.0 -7.75 L-14.3 -7.85 -11.55 -9.7 -19.8 -7.8 -13.45 -9.6 -17.3 -10.35 M3.8 -6.4 L2.6 -6.65 -0.15 -6.5 3.45 -5.15 3.75 -5.2 11.55 -7.65 12.75 -4.55 15.05 -4.2 13.45 -5.6 12.6 -7.95 14.85 -8.0 11.2 -8.6 10.75 -7.9 3.8 -6.4 M23.2 -5.35 L23.15 -5.35 23.2 -5.3 23.2 -5.35 M10.5 0.2 L0.85 3.85 -5.45 2.65 10.5 0.2 M-10.6 -8.1 L-10.5 -8.4 -10.6 -8.65 -10.9 -8.8 -11.15 -8.65 -11.3 -8.4 -11.15 -8.1 -10.9 -8.0 -10.6 -8.1 M-7.4 -10.7 L-4.3 -10.3 6.1 -10.6 -2.0 -11.65 -7.5 -10.75 -7.4 -10.7" fill="#888888" fill-rule="evenodd" stroke="none"/>
    <path d="M-20.95 -8.6 L-17.3 -10.35 -13.45 -9.6 -19.8 -7.8 -20.0 -7.75 Q-20.4 -7.75 -20.65 -8.0 L-20.95 -8.6 M3.45 -5.15 L-0.15 -6.5 2.6 -6.65 3.8 -6.4 3.75 -5.35 3.45 -5.15 M10.75 -7.9 L11.2 -8.6 12.6 -7.95 13.45 -5.6 13.15 -5.4 13.05 -5.4 13.1 -5.35 12.75 -4.55 11.55 -7.65 10.75 -7.9 M-20.75 -4.0 L-21.45 -4.4 -18.2 -4.8 -17.95 -3.9 -20.75 -4.0 M-10.6 -8.1 L-10.9 -8.0 -11.15 -8.1 -11.3 -8.4 -11.15 -8.65 -10.9 -8.8 -10.6 -8.65 -10.5 -8.4 -10.6 -8.1 M-4.3 -10.3 L-4.2 -10.5 -2.0 -11.65 6.1 -10.6 -4.3 -10.3" fill="#c8c8c8" fill-rule="evenodd" stroke="none"/>
    <path d="M30.0 -5.5 L30.0 4.8 0.0 15.15 -30.0 4.8 -30.0 -5.5 -24.85 -3.7 -21.45 -4.4 -20.75 -4.0 -6.9 1.35 -5.45 2.65 0.85 3.85 10.5 0.2 11.2 0.1 23.05 -4.1 23.85 -4.25 30.0 -5.5 M-19.8 -7.8 L-11.55 -9.7 -14.3 -7.85 -20.0 -7.75 -19.8 -7.8 M13.45 -5.6 L15.05 -4.2 12.75 -4.55 13.1 -5.35 13.15 -5.4 13.45 -5.6 M2.9 -3.4 L2.95 -3.35 Q2.95 -2.55 2.3 -2.0 1.65 -1.45 0.7 -1.45 L2.9 -3.4 M-4.2 -10.5 L-7.35 -10.75 -7.5 -10.75 -2.0 -11.65 -4.2 -10.5" fill="#333333" fill-rule="evenodd" stroke="none"/>
    <path d="M3.75 -5.2 L3.45 -5.15 3.75 -5.35 3.75 -5.2 M2.95 -3.35 L2.9 -3.4 3.25 -3.55 2.95 -3.35 M13.1 -5.35 L13.05 -5.4 13.15 -5.4 13.1 -5.35 M23.2 -5.35 L23.2 -5.3 23.15 -5.35 23.2 -5.35 M-7.35 -10.75 L-7.4 -10.7 -7.5 -10.75 -7.35 -10.75" fill="#999999" fill-rule="evenodd" stroke="none"/>
    <path d="M3.8 -6.4 L10.75 -7.9 11.55 -7.65 3.75 -5.2 3.75 -5.35 3.8 -6.4 M11.2 -8.6 L14.85 -8.0 12.6 -7.95 11.2 -8.6 M0.7 -1.45 Q1.65 -1.45 2.3 -2.0 2.95 -2.55 2.95 -3.35 L3.25 -3.55 15.5 -2.1 11.2 0.1 10.5 0.2 -5.45 2.65 -6.9 1.35 -3.85 1.3 0.7 -1.45 M23.85 -4.25 L23.05 -4.1 19.85 -5.85 23.2 -5.3 23.85 -4.25 M-17.95 -3.9 L-18.2 -4.8 -14.05 -6.75 -10.75 -4.1 -4.25 -5.25 -2.95 -2.05 -17.95 -3.9 M-4.2 -10.5 L-4.3 -10.3 -7.4 -10.7 -7.35 -10.75 -4.2 -10.5" fill="#646464" fill-rule="evenodd" stroke="none"/>
  </g>
</svg>
