<?xml version="1.0" encoding="UTF-8" standalone="no"?>
<svg xmlns:ffdec="https://www.free-decompiler.com/flash" xmlns:xlink="http://www.w3.org/1999/xlink" ffdec:objectType="shape" height="86.45px" width="60.0px" xmlns="http://www.w3.org/2000/svg">
  <g transform="matrix(1.0, 0.0, 0.0, 1.0, 30.0, 43.25)">
    <path d="M13.85 -35.3 L11.85 -35.45 6.85 -34.7 5.7 -38.1 6.0 -38.6 6.6 -38.85 Q8.15 -38.85 9.25 -39.8 10.25 -40.75 10.3 -42.1 10.3 -39.25 11.5 -37.25 12.45 -35.55 13.85 -35.3 M-17.15 -32.8 Q-17.15 -29.95 -19.45 -27.9 -21.75 -25.9 -25.0 -25.9 L-23.15 -32.4 -20.5 -30.5 -19.4 -32.3 -17.15 -32.8 M-26.45 -23.85 Q-24.65 -23.85 -23.3 -22.2 -22.0 -20.55 -22.05 -18.25 L-21.15 -15.05 -22.0 -14.55 -24.0 -17.75 -22.85 -11.6 -22.85 -9.25 -24.1 -10.0 -25.6 -8.8 -26.45 -23.85 M-19.5 -16.5 L-18.1 -20.75 -18.85 -23.25 -15.9 -21.3 -16.35 -19.2 -19.5 -16.5 M-9.7 -15.25 L-12.55 -10.65 -18.55 -5.35 -17.85 -14.95 -15.1 -17.65 -13.5 -19.3 Q-14.85 -13.55 -10.75 -14.25 -10.4 -14.25 -9.7 -15.25 M-22.5 -5.1 Q-22.45 -3.3 -20.35 -2.0 -18.2 -0.7 -15.25 -0.7 L-16.95 6.0 -18.55 4.4 -17.2 8.3 -18.95 10.65 -21.6 7.1 -19.1 12.35 -21.1 21.2 -23.2 16.1 -22.55 20.4 -25.55 22.9 -26.35 17.45 -30.0 22.0 -29.1 14.9 -22.2 -0.25 -24.45 -7.15 -22.5 -5.1 M-9.55 15.65 L-3.55 16.15 -3.45 16.2 -3.45 16.15 -3.45 14.7 -5.35 15.5 -6.5 15.35 -4.45 14.05 -9.0 6.75 1.0 10.95 Q2.2 11.35 1.9 12.0 L0.55 13.25 5.75 12.65 8.8 6.85 8.6 16.7 2.65 28.45 -2.05 19.7 -2.85 31.2 -5.3 29.0 -5.4 19.7 -11.75 21.35 -11.25 26.1 -13.6 27.85 -13.1 23.95 -15.3 28.0 -16.8 22.75 -19.05 21.55 -15.4 7.5 -13.0 10.85 -14.05 13.7 -13.45 16.3 -17.1 21.35 -12.15 18.9 -12.0 12.6 -9.2 18.2 -9.55 15.65 M-1.7 -6.8 L-3.3 -10.8 -7.35 -14.0 -2.3 -11.5 -7.95 -26.0 -0.45 -26.2 -1.3 -23.7 -0.75 -7.2 -1.7 -6.8 M-4.15 1.95 L-9.1 -1.1 -7.2 -8.7 -4.15 1.95 M-6.9 -10.05 L-9.15 -6.2 -8.55 -11.85 -6.9 -10.05 M-7.95 -13.9 L-7.85 -13.95 -7.8 -13.9 -7.95 -13.9 M9.65 -6.1 Q8.8 -6.1 8.2 -5.1 7.6 -4.15 7.6 -2.75 L7.8 1.5 5.65 4.05 0.95 2.75 0.6 -2.45 -0.2 0.4 -0.25 -1.95 2.75 -6.2 0.45 -9.2 9.65 -6.1 M9.45 3.25 L12.6 5.3 9.65 6.05 Q9.25 6.05 8.95 5.5 8.65 4.9 8.65 4.05 L9.45 3.25 M12.35 -3.15 L14.65 -10.85 19.45 -6.15 17.2 3.95 12.35 -3.15 M9.05 -16.8 L9.55 -26.6 10.05 -25.35 12.1 -28.45 19.35 -31.95 19.95 -27.55 18.7 -28.0 17.4 -26.75 14.55 -21.05 12.1 -20.45 11.5 -24.5 9.05 -16.8 M21.15 -26.4 L21.3 -26.3 21.15 -26.35 21.15 -26.4 M24.25 -19.4 L25.9 -4.2 23.3 -11.15 21.3 -12.25 19.4 -15.8 19.65 -13.25 18.3 -14.9 18.25 -17.0 21.0 -16.8 Q22.35 -16.8 23.3 -17.55 24.25 -18.3 24.25 -19.4 M26.0 -3.45 L27.45 6.35 25.1 4.15 25.5 -1.5 24.45 1.5 24.1 -2.55 25.35 -2.45 26.0 -3.45 M29.35 11.3 L30.0 23.75 25.4 17.55 26.6 21.2 24.25 18.6 24.9 16.5 21.55 9.75 18.95 19.75 17.85 9.65 19.0 9.3 20.75 7.3 21.25 7.5 Q26.05 12.9 29.35 11.3 M24.25 2.05 L24.05 5.35 24.1 5.9 22.75 5.45 23.4 3.1 24.25 2.05 M15.3 6.25 L15.25 6.3 15.25 6.25 15.3 6.25 M13.95 8.8 L15.6 11.5 16.65 10.6 16.7 10.65 13.35 15.5 13.95 8.8 M11.0 20.5 L10.8 23.1 5.0 26.25 9.1 19.05 9.3 19.25 10.25 20.9 11.0 20.5 M12.75 23.45 L7.5 29.5 9.8 24.5 12.75 23.45 M23.15 20.2 L21.75 24.3 21.85 18.2 23.15 20.2 M-4.85 -36.6 Q-4.85 -35.85 -4.2 -35.3 -3.6 -34.8 -2.7 -34.8 L-5.45 -31.15 -7.65 -30.25 -9.9 -31.0 -4.85 -36.6 M-11.35 1.25 L-12.45 6.55 -13.3 -1.3 -11.35 1.25" fill="#646464" fill-rule="evenodd" stroke="none"/>
    <path d="M11.85 -35.45 L13.85 -35.3 Q16.15 -35.3 17.75 -34.3 19.35 -33.35 19.35 -31.95 L12.1 -28.45 Q11.05 -28.45 10.3 -27.9 9.55 -27.35 9.55 -26.6 L9.05 -16.8 12.2 -17.0 14.75 -18.55 14.9 -15.1 11.9 -11.55 14.65 -10.85 12.35 -3.15 12.6 5.3 9.45 3.25 7.6 -2.75 Q7.6 -4.15 8.2 -5.1 8.8 -6.1 9.65 -6.1 9.65 -13.4 6.45 -18.55 3.25 -23.7 -1.3 -23.7 L-0.45 -26.2 -1.75 -29.15 -4.25 -30.35 -7.95 -26.0 -2.3 -11.5 -7.35 -14.0 -7.8 -13.9 -7.85 -13.95 -7.95 -13.9 -8.55 -11.85 -9.15 -6.2 -6.9 -10.05 -7.2 -8.7 -9.1 -1.1 -4.15 1.95 -3.3 -10.8 -1.7 -6.8 1.0 10.95 -9.0 6.75 -6.7 15.5 -5.35 15.5 -3.45 14.7 -3.45 16.15 -3.55 16.15 -9.55 15.65 -15.25 -0.7 Q-18.2 -0.7 -20.35 -2.0 -22.45 -3.3 -22.5 -5.1 L-22.85 -9.25 -22.85 -11.6 -22.0 -14.55 -21.15 -15.05 -19.4 -12.55 -19.7 -4.95 -13.5 -3.75 -12.55 -10.65 -9.7 -15.25 -11.85 -25.75 Q-13.55 -25.75 -14.7 -24.45 -15.9 -23.15 -15.9 -21.3 L-18.85 -23.25 -18.1 -20.75 -19.5 -16.5 -18.2 -15.55 -22.05 -18.25 Q-22.0 -20.55 -23.3 -22.2 -24.65 -23.85 -26.45 -23.85 L-26.0 -25.3 Q-25.6 -25.9 -25.0 -25.9 -21.75 -25.9 -19.45 -27.9 -17.15 -29.95 -17.15 -32.8 L-10.6 -32.05 -14.45 -36.9 -13.05 -38.8 3.75 -42.75 5.5 -41.25 9.1 -42.95 9.95 -42.7 10.3 -42.1 Q10.25 -40.75 9.25 -39.8 8.15 -38.85 6.6 -38.85 6.5 -39.7 6.1 -39.95 2.85 -41.95 5.7 -38.1 L6.85 -34.7 Q9.35 -28.7 12.15 -35.05 L11.85 -35.45 M21.3 -26.3 L21.6 -26.15 21.15 -26.35 21.3 -26.3 M22.9 -25.3 L24.05 -20.9 21.0 -16.8 18.25 -17.0 18.3 -14.9 19.65 -13.25 19.4 -15.8 21.3 -12.25 23.3 -11.15 25.9 -4.2 26.0 -3.45 25.35 -2.45 24.1 -2.55 24.45 1.5 24.25 2.05 23.4 3.1 21.5 -1.7 16.9 -15.0 22.9 -25.3 M27.45 6.35 L29.35 11.3 Q26.05 12.9 21.25 7.5 L20.75 7.3 22.75 5.45 24.1 5.9 24.05 5.35 25.1 4.15 27.45 6.35 M-29.1 14.9 L-25.6 -8.15 -24.45 -7.15 -22.2 -0.25 -29.1 14.9 M15.25 6.3 L15.3 6.25 Q15.2 6.8 15.4 7.2 16.3 9.2 19.0 9.3 L17.85 9.65 16.65 10.6 15.6 11.5 13.95 8.8 15.25 6.3 M13.35 15.5 L16.7 10.65 15.6 18.1 11.0 20.5 10.25 20.9 9.3 19.25 9.15 18.65 8.6 16.7 8.8 6.85 5.75 12.65 0.55 13.25 1.9 12.0 Q2.6 12.55 3.35 12.6 5.45 12.7 8.65 4.05 8.65 4.9 8.95 5.5 9.25 6.05 9.65 6.05 L13.35 15.5 M-2.7 -34.8 L-2.6 -35.1 Q-1.5 -39.3 -4.85 -36.6 L-9.9 -31.0 -7.65 -30.25 -5.45 -31.15 -2.7 -34.8 M-11.35 1.25 L-13.3 -1.3 -12.45 6.55 -11.35 1.25" fill="#999999" fill-rule="evenodd" stroke="none"/>
    <path d="M11.85 -35.45 L12.15 -35.05 Q9.35 -28.7 6.85 -34.7 L11.85 -35.45 M5.7 -38.1 Q2.85 -41.95 6.1 -39.95 6.5 -39.7 6.6 -38.85 L6.0 -38.6 5.7 -38.1 M9.1 -42.95 L5.5 -41.25 3.75 -42.75 -13.05 -38.8 Q-11.35 -43.4 -6.05 -43.25 L9.1 -42.95 M-14.45 -36.9 L-10.6 -32.05 -17.15 -32.8 -19.4 -32.3 -20.5 -30.5 -23.15 -32.4 -14.45 -36.9 M-18.2 -15.55 L-19.5 -16.5 -16.35 -19.2 -15.9 -21.3 Q-15.9 -23.15 -14.7 -24.45 -13.55 -25.75 -11.85 -25.75 L-9.7 -15.25 Q-10.4 -14.25 -10.75 -14.25 -14.85 -13.55 -13.5 -19.3 L-15.1 -17.65 -18.2 -15.55 M-22.85 -9.25 L-22.5 -5.1 -24.45 -7.15 -25.6 -8.15 -25.6 -8.8 -24.1 -10.0 -22.85 -9.25 M-3.3 -10.8 L-4.15 1.95 -7.2 -8.7 -6.9 -10.05 -8.55 -11.85 -7.95 -13.9 -7.8 -13.9 -7.35 -14.0 -3.3 -10.8 M-7.95 -26.0 L-4.25 -30.35 -1.75 -29.15 -0.45 -26.2 -7.95 -26.0 M-1.3 -23.7 Q3.25 -23.7 6.45 -18.55 9.65 -13.4 9.65 -6.1 L0.45 -9.2 2.75 -6.2 -0.9 -3.7 -0.75 -7.2 -1.3 -23.7 M14.65 -10.85 L11.9 -11.55 14.9 -15.1 14.75 -18.55 17.4 -26.75 18.7 -28.0 19.95 -27.55 21.15 -26.4 21.15 -26.35 21.6 -26.15 22.55 -25.9 22.9 -25.3 16.9 -15.0 21.5 -1.7 19.45 -6.15 14.65 -10.85 M12.2 -17.0 L9.05 -16.8 11.5 -24.5 12.1 -20.45 12.2 -17.0 M9.55 -26.6 Q9.55 -27.35 10.3 -27.9 11.05 -28.45 12.1 -28.45 L10.05 -25.35 9.55 -26.6 M24.05 -20.9 L24.25 -19.4 Q24.25 -18.3 23.3 -17.55 22.35 -16.8 21.0 -16.8 L24.05 -20.9 M-4.85 -36.6 Q-1.5 -39.3 -2.6 -35.1 L-2.7 -34.8 Q-3.6 -34.8 -4.2 -35.3 -4.85 -35.85 -4.85 -36.6" fill="#c8c8c8" fill-rule="evenodd" stroke="none"/>
    <path d="M-22.05 -18.25 L-18.2 -15.55 -15.1 -17.65 -17.85 -14.95 -18.55 -5.35 -12.55 -10.65 -13.5 -3.75 -19.7 -4.95 -19.4 -12.55 -21.15 -15.05 -22.05 -18.25 M-22.0 -14.55 L-22.85 -11.6 -24.0 -17.75 -22.0 -14.55 M-15.25 -0.7 L-9.55 15.65 -9.2 18.2 -12.0 12.6 -12.15 18.9 -17.1 21.35 -13.45 16.3 -14.05 13.7 -13.0 10.85 -15.4 7.5 -19.05 21.55 -16.8 22.75 -15.3 28.0 -13.1 23.95 -13.6 27.85 -11.25 26.1 -11.75 21.35 -5.4 19.7 -5.3 29.0 -2.85 31.2 -2.05 19.7 2.65 28.45 8.6 16.7 9.15 18.65 9.1 19.05 5.0 26.25 10.8 23.1 11.0 20.5 15.6 18.1 16.7 10.65 16.65 10.6 17.85 9.65 18.95 19.75 21.55 9.75 24.9 16.5 24.25 18.6 26.6 21.2 25.4 17.55 30.0 23.75 30.0 32.85 0.0 43.2 -30.0 32.85 -30.0 22.0 -26.35 17.45 -25.55 22.9 -22.55 20.4 -23.2 16.1 -21.1 21.2 -19.1 12.35 -21.6 7.1 -18.95 10.65 -17.2 8.3 -18.55 4.4 -16.95 6.0 -15.25 -0.7 M-3.55 16.15 L-3.45 16.15 -3.45 16.2 -3.55 16.15 M-6.7 15.5 L-9.0 6.75 -4.45 14.05 -6.5 15.35 -6.7 15.5 M1.0 10.95 L-1.7 -6.8 -0.75 -7.2 -0.9 -3.7 2.75 -6.2 -0.25 -1.95 -0.2 0.4 0.6 -2.45 0.95 2.75 5.65 4.05 7.8 1.5 7.6 -2.75 9.45 3.25 8.65 4.05 Q5.45 12.7 3.35 12.6 2.6 12.55 1.9 12.0 2.2 11.35 1.0 10.95 M12.6 5.3 L12.35 -3.15 17.2 3.95 19.45 -6.15 21.5 -1.7 23.4 3.1 22.75 5.45 20.75 7.3 19.0 9.3 Q16.3 9.2 15.4 7.2 15.2 6.8 15.3 6.25 L15.25 6.25 15.25 6.3 13.95 8.8 13.35 15.5 9.65 6.05 12.6 5.3 M14.75 -18.55 L12.2 -17.0 12.1 -20.45 14.55 -21.05 17.4 -26.75 14.75 -18.55 M24.45 1.5 L25.5 -1.5 25.1 4.15 24.05 5.35 24.25 2.05 24.45 1.5 M12.75 23.45 L9.8 24.5 7.5 29.5 12.75 23.45 M23.15 20.2 L21.85 18.2 21.75 24.3 23.15 20.2" fill="#333333" fill-rule="evenodd" stroke="none"/>
    <path d="M-5.35 15.5 L-6.7 15.5 -6.5 15.35 -5.35 15.5 M9.1 19.05 L9.15 18.65 9.3 19.25 9.1 19.05" fill="#888888" fill-rule="evenodd" stroke="none"/>
  </g>
</svg>
