<?xml version="1.0" encoding="UTF-8" standalone="no"?>
<svg xmlns:ffdec="https://www.free-decompiler.com/flash" xmlns:xlink="http://www.w3.org/1999/xlink" ffdec:objectType="shape" height="31.55px" width="60.0px" xmlns="http://www.w3.org/2000/svg">
  <g transform="matrix(1.0, 0.0, 0.0, 1.0, 30.0, 15.85)">
    <path d="M-23.2 -5.3 L-23.15 -5.35 -23.15 -5.3 -23.2 -5.3" fill="#888888" fill-rule="evenodd" stroke="none"/>
    <path d="M7.4 -10.8 L7.55 -10.75 7.4 -10.75 7.4 -10.8 M21.45 -4.4 L24.85 -3.7 30.0 -5.5 30.0 5.4 0.2 15.7 -0.1 5.15 3.65 3.1 5.5 2.65 6.0 2.2 Q6.7 2.35 7.1 1.6 L7.15 1.3 20.75 -4.0 21.45 -4.4" fill="#333333" fill-rule="evenodd" stroke="none"/>
    <path d="M7.55 -10.75 L7.45 -10.7 7.4 -10.75 7.55 -10.75 M-13.05 -5.4 L-13.1 -5.35 -13.1 -5.4 -13.05 -5.4" fill="#999999" fill-rule="evenodd" stroke="none"/>
    <path d="M7.45 -10.7 L4.35 -10.3 7.4 -10.75 7.45 -10.7 M5.75 -2.4 L2.95 -2.05 4.25 -5.25 10.75 -4.1 14.05 -6.75 16.5 -5.6 Q13.25 -6.2 16.65 -4.55 17.25 -4.2 17.95 -3.9 L10.55 -3.0 Q9.45 -4.3 7.4 -4.65 4.0 -4.85 5.75 -2.4 M-23.8 -4.25 L-23.2 -5.3 -23.15 -5.3 -23.05 -5.3 -23.0 -4.1 -23.8 -4.25 M-22.45 -5.4 L-19.85 -5.85 -21.0 -5.2 -22.45 -5.4 M-15.3 -2.1 L-3.2 -3.55 2.05 0.25 6.0 2.2 5.5 2.65 -15.3 -2.1 M-11.2 -8.6 L-12.6 -7.95 -14.85 -8.0 -11.2 -8.6 M-11.5 -7.65 L-10.7 -7.9 -6.85 -6.6 -7.3 -6.3 -11.5 -7.65" fill="#646464" fill-rule="evenodd" stroke="none"/>
    <path d="M7.45 -10.7 L7.55 -10.75 7.4 -10.8 -7.8 -10.8 4.35 -10.3 7.45 -10.7 M16.5 -5.6 L14.05 -6.75 10.75 -4.1 4.25 -5.25 2.95 -2.05 5.75 -2.4 10.55 -3.0 17.95 -3.9 20.75 -4.0 7.15 1.3 2.05 0.25 -3.2 -3.55 -15.3 -2.1 -21.0 -5.2 -19.85 -5.85 -22.45 -5.4 -23.05 -5.3 -23.15 -5.3 -23.15 -5.35 -23.2 -5.3 -23.8 -4.25 -30.0 -5.5 0.9 -15.85 17.35 -10.35 9.85 -8.55 20.95 -8.6 30.0 -5.5 24.85 -3.7 21.45 -4.4 16.5 -5.6 M-23.0 -4.1 L-22.95 -4.1 -23.0 -4.1 M-12.6 -7.95 L-15.05 -4.2 -12.75 -4.55 -11.5 -7.65 -7.3 -6.3 -3.2 -4.5 0.2 -6.5 -6.85 -6.6 -10.7 -7.9 -11.2 -8.6 -14.85 -8.0 -12.6 -7.95 M-18.5 -8.1 L-18.5 -8.0 Q-18.3 -7.65 -17.9 -7.75 -17.3 -7.95 -16.7 -7.75 -16.1 -7.6 -15.8 -8.15 -15.25 -9.05 -16.3 -9.3 -17.55 -9.15 -18.5 -8.3 L-18.5 -8.15 -18.5 -8.1" fill="#666666" fill-rule="evenodd" stroke="none"/>
    <path d="M4.35 -10.3 L-7.8 -10.8 7.4 -10.8 7.4 -10.75 4.35 -10.3 M16.5 -5.6 L21.45 -4.4 20.75 -4.0 17.95 -3.9 Q17.25 -4.2 16.65 -4.55 13.25 -6.2 16.5 -5.6 M20.95 -8.6 L9.85 -8.55 17.35 -10.35 20.95 -8.6 M-30.0 -5.5 L-23.8 -4.25 -23.0 -4.1 -22.95 -4.1 -23.0 -4.1 -23.05 -5.3 -22.45 -5.4 -21.0 -5.2 -15.3 -2.1 5.5 2.65 3.65 3.1 -0.1 5.15 0.2 15.7 -30.0 5.4 -30.0 -5.5 M2.05 0.25 L7.15 1.3 7.1 1.6 Q6.7 2.35 6.0 2.2 L2.05 0.25 M10.55 -3.0 L5.75 -2.4 Q4.0 -4.85 7.4 -4.65 9.45 -4.3 10.55 -3.0 M-12.6 -7.95 L-11.2 -8.6 -10.7 -7.9 -11.5 -7.65 -12.75 -4.55 -15.05 -4.2 -12.6 -7.95 M-18.5 -8.1 L-18.5 -8.15 -18.5 -8.3 Q-17.55 -9.15 -16.3 -9.3 -15.25 -9.05 -15.8 -8.15 -16.1 -7.6 -16.7 -7.75 -17.3 -7.95 -17.9 -7.75 -18.3 -7.65 -18.5 -8.0 L-18.5 -8.1 M-13.05 -5.4 L-13.1 -5.4 -13.1 -5.35 -13.05 -5.4 M-6.85 -6.6 L0.2 -6.5 -3.2 -4.5 -7.3 -6.3 -6.85 -6.6" fill="#000000" fill-rule="evenodd" stroke="none"/>
  </g>
</svg>
