<?xml version="1.0" encoding="UTF-8" standalone="no"?>
<svg xmlns:ffdec="https://www.free-decompiler.com/flash" xmlns:xlink="http://www.w3.org/1999/xlink" ffdec:objectType="shape" height="7.85px" width="15.3px" xmlns="http://www.w3.org/2000/svg">
  <g transform="matrix(1.0, 0.0, 0.0, 1.0, 6.65, 4.7)">
    <path d="M7.4 -2.3 L7.25 -2.75 8.25 -2.8 8.55 -2.55 8.65 -2.25 8.35 -2.05 8.1 -2.1 7.45 -2.2 7.4 -2.3 M0.2 -0.45 L1.25 -0.9 2.55 -1.45 2.6 -1.45 3.0 -1.6 3.05 -1.6 3.15 -1.65 3.2 -1.65 3.35 -1.3 3.3 -1.25 3.25 -1.2 1.65 -0.6 0.4 -0.1 0.35 -0.05 0.25 0.0 Q0.1 0.6 0.1 1.3 L0.2 3.05 0.2 3.15 -0.45 3.1 -0.95 2.95 Q-1.4 2.85 -1.75 2.55 L-2.25 2.05 -2.85 1.15 -3.6 -0.3 -4.0 -0.85 Q-5.3 -2.0 -6.25 -3.45 L-6.6 -4.25 -6.65 -4.55 -6.6 -4.55 -6.4 -4.7 -6.3 -4.4 -5.65 -3.45 -5.25 -2.9 -4.4 -1.85 -3.65 -1.15 Q-3.05 -0.7 -2.25 -0.5 L-1.6 -0.4 -0.7 -0.25 0.2 -0.45 M-3.35 -0.5 Q-2.6 1.15 -1.25 2.45 L-0.4 2.6 -0.35 2.5 -0.25 2.55 Q-0.4 1.3 0.0 0.1 L-1.35 0.1 -2.2 -0.1 -3.35 -0.5" fill="#6a713e" fill-rule="evenodd" stroke="none"/>
    <path d="M-3.35 -0.5 L-2.2 -0.1 -1.35 0.1 0.0 0.1 Q-0.4 1.3 -0.25 2.55 L-0.35 2.5 -0.4 2.6 -1.25 2.45 Q-2.6 1.15 -3.35 -0.5" fill="#ffff99" fill-rule="evenodd" stroke="none"/>
  </g>
</svg>
