<?xml version="1.0" encoding="UTF-8" standalone="no"?>
<svg xmlns:ffdec="https://www.free-decompiler.com/flash" xmlns:xlink="http://www.w3.org/1999/xlink" ffdec:objectType="shape" height="88.05px" width="60.05px" xmlns="http://www.w3.org/2000/svg">
  <g transform="matrix(1.0, 0.0, 0.0, 1.0, 30.0, 44.05)">
    <path d="M9.7 -33.15 L9.7 -33.1 9.45 -33.1 Q9.05 -32.95 9.05 -32.55 L9.05 -32.4 Q10.75 -31.05 13.25 -31.6 13.95 -31.75 14.15 -32.45 L13.8 -32.85 9.7 -33.15 M3.2 -33.4 L2.35 -33.65 1.55 -33.4 Q1.2 -33.2 1.2 -32.85 1.2 -32.5 1.55 -32.25 L2.35 -32.05 3.2 -32.25 3.5 -32.85 3.2 -33.4 M7.55 -39.45 Q8.35 -39.7 8.35 -40.05 8.35 -40.4 7.55 -40.65 L5.65 -40.9 3.75 -40.65 2.95 -40.05 Q2.95 -39.7 3.75 -39.45 L5.65 -39.2 7.55 -39.45 M14.9 -36.2 Q20.2 -33.85 15.0 -36.25 L14.9 -36.2 M1.7 -15.85 L3.05 -11.6 3.05 -11.15 2.3 -9.0 -3.2 -5.9 -4.45 -9.3 -7.5 -9.55 -8.65 -25.25 -15.8 -27.75 Q-8.8 -22.2 -10.65 -14.05 L-10.9 -13.25 -12.75 -13.1 -13.6 -9.4 -23.55 -6.2 -21.5 -9.45 -17.9 -16.0 -24.3 -26.45 Q-21.35 -34.8 -13.65 -39.25 -6.45 -43.3 1.9 -44.05 10.15 -44.25 16.85 -39.3 21.05 -36.2 23.85 -31.65 26.0 -28.25 27.5 -24.35 L23.85 -24.1 20.65 -26.2 19.3 -20.8 Q21.65 -15.9 14.75 -16.5 L13.2 -20.05 12.7 -27.25 1.6 -29.2 1.7 -15.85 M17.5 -13.35 L19.1 -13.35 17.95 -13.25 17.5 -13.35 M22.7 -19.4 L22.65 -19.55 22.85 -19.55 22.7 -19.4 M0.9 -12.15 L0.9 -13.75 -2.9 -13.75 -2.9 -12.15 0.9 -12.15 M-2.4 -22.35 L-2.65 -21.55 -2.4 -20.7 Q-2.2 -20.4 -1.85 -20.4 -1.5 -20.4 -1.25 -20.7 L-1.05 -21.55 -1.25 -22.35 Q-1.5 -22.7 -1.85 -22.7 L-2.4 -22.35 M-6.0 -28.35 L-6.05 -28.55 Q-6.75 -29.55 -8.15 -29.05 L-8.4 -29.0 Q-8.8 -28.85 -8.8 -28.5 L-8.8 -28.3 Q-8.0 -27.2 -6.35 -27.85 L-6.1 -28.2 -6.0 -28.35 M-17.95 -31.3 L-18.25 -30.55 Q-18.25 -30.1 -17.95 -29.8 -17.65 -29.5 -17.2 -29.5 -16.75 -29.5 -16.45 -29.8 -16.15 -30.1 -16.15 -30.55 -16.15 -31.0 -16.45 -31.3 -16.75 -31.6 -17.2 -31.6 L-17.95 -31.3 M-8.9 -38.2 L-9.7 -39.0 -13.9 -35.85 Q-8.6 -34.75 -8.9 -38.2" fill="#ffffff" fill-rule="evenodd" stroke="none"/>
    <path d="M14.9 -36.2 L15.0 -36.25 Q20.2 -33.85 14.9 -36.2 M7.55 -39.45 L5.65 -39.2 3.75 -39.45 Q2.95 -39.7 2.95 -40.05 L3.75 -40.65 5.65 -40.9 7.55 -40.65 Q8.35 -40.4 8.35 -40.05 8.35 -39.7 7.55 -39.45 M3.2 -33.4 L3.5 -32.85 3.2 -32.25 2.35 -32.05 1.55 -32.25 Q1.2 -32.5 1.2 -32.85 1.2 -33.2 1.55 -33.4 L2.35 -33.65 3.2 -33.4 M9.7 -33.15 L13.8 -32.85 14.15 -32.45 Q13.95 -31.75 13.25 -31.6 10.75 -31.05 9.05 -32.4 L9.05 -32.55 Q9.05 -32.95 9.45 -33.1 L9.7 -33.1 9.7 -33.15 M7.4 -22.45 L5.05 -21.7 1.7 -15.85 1.6 -29.2 12.7 -27.25 13.2 -20.05 14.75 -16.5 Q21.65 -15.9 19.3 -20.8 L20.65 -26.2 23.85 -24.1 27.5 -24.35 26.4 -21.6 22.85 -19.55 22.65 -19.55 22.7 -19.4 22.75 -16.45 21.3 -14.15 20.9 -13.9 Q20.15 -13.5 19.1 -13.35 L17.5 -13.35 10.5 -12.5 7.4 -22.45 M-24.3 -26.45 L-17.9 -16.0 -21.5 -9.45 -24.15 -7.45 -23.05 -15.35 Q-22.35 -15.5 -22.05 -15.95 -19.85 -18.95 -24.0 -20.6 L-24.4 -20.85 Q-27.35 -23.3 -24.3 -26.45 M-23.55 -6.2 L-13.6 -9.4 -12.75 -13.1 -10.9 -13.25 -10.65 -14.05 Q-8.8 -22.2 -15.8 -27.75 L-8.65 -25.25 -7.5 -9.55 -4.45 -9.3 -3.2 -5.9 2.3 -9.0 3.05 -11.15 4.45 -10.85 3.8 -2.8 1.9 -1.85 0.1 -1.65 -8.65 -2.05 -9.05 -2.6 Q-10.55 -7.9 -13.45 -6.15 L-19.2 -4.25 -21.4 -1.0 -21.45 -1.0 -21.7 -1.15 Q-25.75 -2.55 -23.55 -6.2 M22.7 -6.65 L22.9 -4.7 22.5 -3.95 17.4 -3.7 18.35 -4.8 18.5 -5.25 Q18.5 -6.1 18.85 -6.7 19.15 -7.3 19.6 -7.3 L22.7 -6.65 M14.5 -3.15 L15.25 0.1 15.0 3.65 5.65 4.7 6.65 2.5 9.05 -4.4 12.9 -5.25 Q13.95 -4.55 14.5 -3.15 M0.9 -12.15 L-2.9 -12.15 -2.9 -13.75 0.9 -13.75 0.9 -12.15 M-9.8 2.8 L-7.85 5.25 -15.05 7.2 -12.45 2.05 -10.1 2.25 -9.9 2.6 -9.8 2.8 M-8.9 -38.2 Q-8.6 -34.75 -13.9 -35.85 L-9.7 -39.0 -8.9 -38.2 M-17.95 -31.3 L-17.2 -31.6 Q-16.75 -31.6 -16.45 -31.3 -16.15 -31.0 -16.15 -30.55 -16.15 -30.1 -16.45 -29.8 -16.75 -29.5 -17.2 -29.5 -17.65 -29.5 -17.95 -29.8 -18.25 -30.1 -18.25 -30.55 L-17.95 -31.3 M-6.0 -28.35 L-6.1 -28.2 -6.35 -27.85 Q-8.0 -27.2 -8.8 -28.3 L-8.8 -28.5 Q-8.8 -28.85 -8.4 -29.0 L-8.15 -29.05 Q-6.75 -29.55 -6.05 -28.55 L-6.0 -28.35 M-2.4 -22.35 L-1.85 -22.7 Q-1.5 -22.7 -1.25 -22.35 L-1.05 -21.55 -1.25 -20.7 Q-1.5 -20.4 -1.85 -20.4 -2.2 -20.4 -2.4 -20.7 L-2.65 -21.55 -2.4 -22.35 M-22.95 5.45 L-22.85 5.7 Q-22.85 7.9 -24.7 9.5 -26.6 11.05 -29.25 11.05 L-27.15 5.3 -25.1 4.45 Q-23.7 4.25 -22.95 5.45 M-7.25 7.0 L1.4 11.75 -7.55 10.1 -7.25 7.0" fill="#cccccc" fill-rule="evenodd" stroke="none"/>
    <path d="M1.7 -15.85 L5.05 -21.7 7.4 -22.45 3.05 -11.6 1.7 -15.85 M19.1 -13.35 Q20.15 -13.5 20.9 -13.9 L19.4 -11.75 19.6 -7.3 Q19.15 -7.3 18.85 -6.7 18.5 -6.1 18.5 -5.25 L17.95 -13.25 19.1 -13.35 M21.3 -14.15 L22.75 -16.45 22.7 -19.4 22.85 -19.55 26.4 -21.6 25.6 -8.0 24.1 -9.2 22.85 -8.45 21.3 -14.15 M22.9 -4.7 L24.45 -6.35 22.25 0.55 29.1 15.7 30.05 22.8 26.4 18.25 25.55 16.6 25.55 23.95 22.55 21.2 Q24.6 14.7 22.0 18.85 L19.4 15.75 19.15 13.15 21.6 7.9 18.95 11.45 17.2 9.1 18.55 5.2 16.95 6.8 15.25 0.1 Q18.2 0.1 20.35 -1.2 22.25 -2.35 22.5 -3.95 L22.9 -4.7 M17.4 -3.7 L14.5 -3.15 Q13.95 -4.55 12.9 -5.25 L12.65 -11.8 18.35 -4.8 17.4 -3.7 M7.85 -13.1 L7.85 -13.15 7.95 -13.1 7.85 -13.1 M8.6 -11.05 L9.05 -4.4 6.65 2.5 4.15 2.75 8.6 -11.05 M0.1 -1.65 L-0.55 2.7 -5.65 4.85 -9.5 0.4 -8.65 -2.05 0.1 -1.65 M-10.0 2.25 L-9.85 2.6 -9.9 2.6 -10.1 2.25 -10.0 2.25 M10.25 16.8 L11.8 15.7 12.2 19.7 17.15 22.15 19.1 22.35 16.8 23.55 15.3 28.8 13.1 24.75 13.6 28.65 10.25 16.8 M17.55 12.4 L13.25 13.1 15.05 8.3 17.55 12.4 M6.95 12.55 L6.5 14.75 Q2.85 13.2 6.95 12.25 L6.95 12.55 M3.55 16.95 L9.6 17.3 8.4 21.7 5.4 20.5 5.3 29.8 2.85 32.0 2.75 19.25 -2.65 29.25 -4.8 22.35 -6.3 14.1 -0.35 19.55 3.5 17.0 3.55 16.95 M-9.1 19.85 L-5.0 27.05 -10.8 23.9 -11.0 21.3 -10.25 21.7 -9.25 20.05 -9.1 19.85 M-17.95 13.75 L-18.95 20.55 -20.6 12.85 -17.95 13.75 M-23.4 12.2 L-24.25 19.4 -26.6 22.0 -25.4 18.35 -30.0 24.55 -29.2 11.85 -23.4 12.2 M-12.35 -2.35 L-17.2 4.75 -19.2 -4.25 -13.45 -6.15 -12.35 -2.35" fill="#646464" fill-rule="evenodd" stroke="none"/>
    <path d="M22.85 -8.45 L24.1 -9.2 25.6 -8.0 25.65 -7.35 24.45 -6.35 22.9 -4.7 22.7 -6.65 22.85 -8.45 M29.1 15.7 L22.25 0.55 26.3 5.15 29.1 15.7 M4.45 -10.85 L7.85 -13.1 7.95 -13.1 8.6 -11.05 4.15 2.75 3.8 -2.8 4.45 -10.85 M-24.0 -20.6 Q-19.85 -18.95 -22.05 -15.95 -22.35 -15.5 -23.05 -15.35 L-24.2 -18.6 -24.0 -20.6 M-21.4 -1.0 L-21.45 -0.95 -21.45 -1.0 -21.4 -1.0" fill="#c8c8c8" fill-rule="evenodd" stroke="none"/>
    <path d="M3.05 -11.6 L7.4 -22.45 10.5 -12.5 17.5 -13.35 17.95 -13.25 18.5 -5.25 18.35 -4.8 12.65 -11.8 12.9 -5.25 9.05 -4.4 8.6 -11.05 7.95 -13.1 7.85 -13.15 7.85 -13.1 4.45 -10.85 3.05 -11.15 3.05 -11.6 M20.9 -13.9 L21.3 -14.15 22.85 -8.45 22.7 -6.65 19.6 -7.3 19.4 -11.75 20.9 -13.9 M-21.5 -9.45 L-23.55 -6.2 Q-25.75 -2.55 -21.7 -1.15 L-21.45 -1.0 -21.45 -0.95 -22.95 5.45 Q-23.7 4.25 -25.1 4.45 L-27.15 5.3 -24.2 -18.6 -23.05 -15.35 -24.15 -7.45 -21.5 -9.45 M24.45 -6.35 L25.65 -7.35 26.3 5.15 22.25 0.55 24.45 -6.35 M22.5 -3.95 Q22.25 -2.35 20.35 -1.2 18.2 0.1 15.25 0.1 L14.5 -3.15 17.4 -3.7 22.5 -3.95 M-9.5 0.4 L-10.0 2.25 -10.1 2.25 -12.45 2.05 -12.35 -2.35 -13.45 -6.15 Q-10.55 -7.9 -9.05 -2.6 L-8.65 -2.05 -9.5 0.4 M-9.85 2.6 L-9.8 2.8 -9.9 2.6 -9.85 2.6 M-7.85 5.25 L-2.15 8.0 0.55 5.25 1.9 -1.85 3.8 -2.8 4.15 2.75 6.65 2.5 5.65 4.7 15.0 3.65 Q9.3 8.5 12.5 12.55 L13.25 13.1 17.55 12.4 19.1 22.35 17.15 22.15 Q17.15 19.5 15.6 17.6 14.0 15.7 11.8 15.7 L10.25 16.8 9.6 17.3 3.55 16.95 3.5 16.95 3.5 17.0 -0.35 19.55 -6.3 14.1 -4.8 22.35 -9.15 19.45 -9.25 20.05 -10.25 21.7 -11.0 21.3 -17.95 13.75 -20.6 12.85 -23.4 12.2 -29.2 11.85 -29.25 11.05 Q-26.6 11.05 -24.7 9.5 -22.85 7.9 -22.85 5.7 -19.2 10.05 -15.5 7.65 L-15.05 7.2 -7.85 5.25 M6.95 12.55 L6.95 12.25 Q2.85 13.2 6.5 14.75 L6.95 12.55 M-7.25 7.0 L-7.55 10.1 1.4 11.75 -7.25 7.0 M-12.1 16.05 L-10.45 8.1 -13.7 8.1 -12.1 16.05" fill="#999999" fill-rule="evenodd" stroke="none"/>
    <path d="M15.25 0.1 L16.95 6.8 18.55 5.2 17.2 9.1 18.95 11.45 21.6 7.9 19.15 13.15 19.4 15.75 22.0 18.85 Q24.6 14.7 22.55 21.2 L25.55 23.95 25.55 16.6 26.4 18.25 30.05 22.8 30.0 33.65 0.0 44.0 -30.0 33.65 -30.0 24.55 -25.4 18.35 -26.6 22.0 -24.25 19.4 -23.4 12.2 -20.6 12.85 -18.95 20.55 -17.95 13.75 -11.0 21.3 -10.8 23.9 -5.0 27.05 -9.1 19.85 -9.15 19.45 -4.8 22.35 -2.65 29.25 2.75 19.25 2.85 32.0 5.3 29.8 5.4 20.5 8.4 21.7 9.6 17.3 10.25 16.8 13.6 28.65 13.1 24.75 15.3 28.8 16.8 23.55 19.1 22.35 17.55 12.4 15.05 8.3 13.25 13.1 12.5 12.55 Q9.3 8.5 15.0 3.65 L15.25 0.1 M0.1 -1.65 L1.9 -1.85 0.55 5.25 -2.15 8.0 -7.85 5.25 -9.8 2.8 -9.85 2.6 -10.0 2.25 -9.5 0.4 -5.65 4.85 -0.55 2.7 0.1 -1.65 M11.8 15.7 Q14.0 15.7 15.6 17.6 17.15 19.5 17.15 22.15 L12.2 19.7 11.8 15.7 M3.5 17.0 L3.5 16.95 3.55 16.95 3.5 17.0 M-12.35 -2.35 L-12.45 2.05 -15.05 7.2 -15.5 7.65 Q-19.2 10.05 -22.85 5.7 L-22.95 5.45 -21.45 -0.95 -21.4 -1.0 -19.2 -4.25 -17.2 4.75 -12.35 -2.35 M-12.1 16.05 L-13.7 8.1 -10.45 8.1 -12.1 16.05" fill="#333333" fill-rule="evenodd" stroke="none"/>
    <path d="M-9.15 19.45 L-9.1 19.85 -9.25 20.05 -9.15 19.45" fill="#888888" fill-rule="evenodd" stroke="none"/>
  </g>
</svg>
