<?xml version="1.0" encoding="UTF-8" standalone="no"?>
<svg xmlns:ffdec="https://www.free-decompiler.com/flash" xmlns:xlink="http://www.w3.org/1999/xlink" ffdec:objectType="shape" height="31.0px" width="60.0px" xmlns="http://www.w3.org/2000/svg">
  <g transform="matrix(1.0, 0.0, 0.0, 1.0, 30.0, 15.5)">
    <path d="M25.75 -5.35 L25.75 -5.95 26.3 -5.95 26.3 -5.35 25.75 -5.35 M16.0 -3.25 L16.25 -3.15 16.35 -2.9 16.25 -2.65 16.0 -2.55 Q15.85 -2.55 15.75 -2.65 L15.65 -2.9 15.75 -3.15 16.0 -3.25 M19.75 -5.1 L19.75 -5.7 20.3 -5.7 20.3 -5.1 19.75 -5.1 M11.4 -7.45 L11.3 -7.15 Q11.2 -7.05 11.05 -7.05 L10.8 -7.15 10.7 -7.45 10.8 -7.7 11.05 -7.85 11.3 -7.7 11.4 -7.45 M15.45 -8.7 Q15.35 -8.6 15.25 -8.6 15.15 -8.6 15.05 -8.7 L14.95 -8.95 15.05 -9.2 15.25 -9.3 15.45 -9.2 15.55 -8.95 15.45 -8.7 M9.8 -4.3 L9.9 -4.05 9.8 -3.75 Q9.7 -3.65 9.55 -3.65 L9.3 -3.75 9.2 -4.05 9.3 -4.3 9.55 -4.45 9.8 -4.3 M4.3 -0.75 L4.85 -0.75 4.85 -0.15 4.3 -0.15 4.3 -0.75 M0.05 -2.3 L0.25 -2.45 0.45 -2.3 0.55 -2.05 0.45 -1.75 Q0.35 -1.65 0.25 -1.65 0.15 -1.65 0.05 -1.75 L-0.05 -2.05 0.05 -2.3 M4.35 -5.25 L4.35 -5.15 3.65 -5.1 3.65 -5.5 3.7 -5.65 3.85 -5.75 3.95 -5.8 4.35 -5.25 M4.4 -11.4 L4.95 -11.4 4.95 -10.85 4.4 -10.85 4.4 -11.4 M30.0 -5.15 L30.0 5.15 0.0 15.5 -30.0 5.15 -30.0 -5.15 1.05 4.5 30.0 -5.15 M-3.2 1.45 L-3.1 1.2 -2.9 1.1 -2.7 1.2 -2.6 1.45 -2.7 1.7 -2.9 1.8 -3.1 1.7 -3.2 1.45 M-8.0 -0.25 L-8.0 -0.85 -7.45 -0.85 -7.45 -0.25 -8.0 -0.25 M-6.6 -5.3 L-6.05 -5.3 -6.05 -4.75 -6.6 -4.75 -6.6 -5.3 M-7.25 -9.95 L-6.6 -9.95 -6.6 -9.4 -7.25 -9.4 -7.25 -9.95 M-0.35 -7.7 L-0.35 -7.1 -0.9 -7.1 -0.9 -7.7 -0.35 -7.7 M-14.5 -5.2 L-14.4 -4.95 -14.5 -4.7 -14.7 -4.6 -14.9 -4.7 -15.0 -4.95 -14.9 -5.2 -14.7 -5.3 -14.5 -5.2 M-10.6 -3.1 L-10.4 -3.15 -10.0 -2.8 -9.95 -2.7 Q-10.15 -2.15 -10.7 -2.55 L-10.75 -2.7 -10.75 -2.9 -10.7 -3.0 -10.6 -3.1 M-12.0 -9.0 L-12.0 -8.9 -12.1 -8.75 -12.2 -8.65 Q-12.6 -8.5 -12.75 -8.85 L-12.65 -9.15 -12.55 -9.2 -12.4 -9.25 -12.0 -9.0 M-1.05 -12.45 L-0.5 -12.45 -0.5 -11.85 -1.05 -11.85 -1.05 -12.45 M-23.45 -3.65 Q-23.55 -3.65 -23.65 -3.75 L-23.75 -4.0 -23.65 -4.25 -23.45 -4.35 -23.25 -4.25 -23.15 -4.0 -23.25 -3.75 Q-23.35 -3.65 -23.45 -3.65 M-20.7 -5.2 L-20.7 -5.8 -20.15 -5.8 -20.15 -5.2 -20.7 -5.2 M10.75 0.15 L11.2 0.5 11.25 0.6 11.1 0.85 10.95 0.95 10.45 0.5 10.45 0.4 10.6 0.2 10.75 0.15" fill="#333333" fill-rule="evenodd" stroke="none"/>
    <path d="M4.4 -11.4 L4.4 -10.85 4.95 -10.85 4.95 -11.4 4.4 -11.4 M4.35 -5.25 L3.95 -5.8 3.85 -5.75 3.7 -5.65 3.65 -5.5 3.65 -5.1 4.35 -5.15 4.35 -5.25 M0.05 -2.3 L-0.05 -2.05 0.05 -1.75 Q0.15 -1.65 0.25 -1.65 0.35 -1.65 0.45 -1.75 L0.55 -2.05 0.45 -2.3 0.25 -2.45 0.05 -2.3 M4.3 -0.75 L4.3 -0.15 4.85 -0.15 4.85 -0.75 4.3 -0.75 M9.8 -4.3 L9.55 -4.45 9.3 -4.3 9.2 -4.05 9.3 -3.75 9.55 -3.65 Q9.7 -3.65 9.8 -3.75 L9.9 -4.05 9.8 -4.3 M15.45 -8.7 L15.55 -8.95 15.45 -9.2 15.25 -9.3 15.05 -9.2 14.95 -8.95 15.05 -8.7 Q15.15 -8.6 15.25 -8.6 15.35 -8.6 15.45 -8.7 M11.4 -7.45 L11.3 -7.7 11.05 -7.85 10.8 -7.7 10.7 -7.45 10.8 -7.15 11.05 -7.05 Q11.2 -7.05 11.3 -7.15 L11.4 -7.45 M19.75 -5.1 L20.3 -5.1 20.3 -5.7 19.75 -5.7 19.75 -5.1 M16.0 -3.25 L15.75 -3.15 15.65 -2.9 15.75 -2.65 Q15.85 -2.55 16.0 -2.55 L16.25 -2.65 16.35 -2.9 16.25 -3.15 16.0 -3.25 M25.75 -5.35 L26.3 -5.35 26.3 -5.95 25.75 -5.95 25.75 -5.35 M-30.0 -5.15 L0.0 -15.5 30.0 -5.15 1.05 4.5 -30.0 -5.15 M10.75 0.15 L10.6 0.2 10.45 0.4 10.45 0.5 10.95 0.95 11.1 0.85 11.25 0.6 11.2 0.5 10.75 0.15 M-20.7 -5.2 L-20.15 -5.2 -20.15 -5.8 -20.7 -5.8 -20.7 -5.2 M-23.45 -3.65 Q-23.35 -3.65 -23.25 -3.75 L-23.15 -4.0 -23.25 -4.25 -23.45 -4.35 -23.65 -4.25 -23.75 -4.0 -23.65 -3.75 Q-23.55 -3.65 -23.45 -3.65 M-1.05 -12.45 L-1.05 -11.85 -0.5 -11.85 -0.5 -12.45 -1.05 -12.45 M-12.0 -9.0 L-12.4 -9.25 -12.55 -9.2 -12.65 -9.15 -12.75 -8.85 Q-12.6 -8.5 -12.2 -8.65 L-12.1 -8.75 -12.0 -8.9 -12.0 -9.0 M-10.6 -3.1 L-10.7 -3.0 -10.75 -2.9 -10.75 -2.7 -10.7 -2.55 Q-10.15 -2.15 -9.95 -2.7 L-10.0 -2.8 -10.4 -3.15 -10.6 -3.1 M-14.5 -5.2 L-14.7 -5.3 -14.9 -5.2 -15.0 -4.95 -14.9 -4.7 -14.7 -4.6 -14.5 -4.7 -14.4 -4.95 -14.5 -5.2 M-0.35 -7.7 L-0.9 -7.7 -0.9 -7.1 -0.35 -7.1 -0.35 -7.7 M-7.25 -9.95 L-7.25 -9.4 -6.6 -9.4 -6.6 -9.95 -7.25 -9.95 M-6.6 -5.3 L-6.6 -4.75 -6.05 -4.75 -6.05 -5.3 -6.6 -5.3 M-8.0 -0.25 L-7.45 -0.25 -7.45 -0.85 -8.0 -0.85 -8.0 -0.25 M-3.2 1.45 L-3.1 1.7 -2.9 1.8 -2.7 1.7 -2.6 1.45 -2.7 1.2 -2.9 1.1 -3.1 1.2 -3.2 1.45" fill="#999999" fill-rule="evenodd" stroke="none"/>
  </g>
</svg>
