<?xml version="1.0" encoding="UTF-8" standalone="no"?>
<svg xmlns:ffdec="https://www.free-decompiler.com/flash" xmlns:xlink="http://www.w3.org/1999/xlink" ffdec:objectType="shape" height="31.95px" width="60.0px" xmlns="http://www.w3.org/2000/svg">
  <g transform="matrix(1.0, 0.0, 0.0, 1.0, 30.0, 16.0)">
    <path d="M8.1 -12.8 L8.1 -13.3 10.95 -12.35 8.3 -11.65 8.45 -11.9 8.25 -12.0 8.1 -12.8 M-3.7 -14.8 L-3.75 -14.45 Q-4.05 -12.9 -4.65 -14.45 -4.65 -15.05 -4.15 -15.25 L-3.7 -14.8 M-6.25 -13.9 Q-6.25 -13.45 -6.4 -13.4 L-6.85 -13.7 -7.15 -14.65 -6.25 -13.9 M-7.15 -13.6 L-6.8 -12.8 -7.8 -13.4 -7.6 -14.2 -7.15 -13.6 M-7.95 -13.35 L-7.85 -13.05 Q-7.9 -10.95 -8.95 -13.0 L-9.1 -13.4 -7.95 -13.35 M-16.4 -10.4 Q-17.4 -7.8 -19.6 -8.8 L-20.1 -9.15 -18.1 -9.85 -17.65 -9.35 Q-17.4 -9.5 -17.35 -10.1 L-17.1 -11.4 -16.4 -10.4 M-30.0 -5.75 L-24.05 -3.7 -23.1 -1.85 -23.4 -3.5 -22.3 -3.1 -21.85 -2.25 -21.6 -2.85 -19.9 -2.3 -19.7 -2.0 -19.6 -2.2 -16.05 -1.3 -1.1 3.95 0.0 4.55 8.25 1.2 10.05 2.1 8.75 0.4 10.15 -0.5 10.3 0.75 10.5 -0.3 11.0 0.15 22.85 -3.8 23.35 -3.85 30.0 -5.75 30.0 5.6 0.0 15.95 -30.0 5.6 -30.0 -5.75 M20.85 -8.9 L20.8 -8.6 Q20.65 -8.0 20.25 -8.2 L20.05 -8.35 20.0 -8.4 Q19.8 -8.65 19.9 -8.9 L20.05 -9.2 Q20.2 -9.5 20.5 -9.6 L20.85 -8.9 M18.85 -9.6 L18.55 -9.25 Q17.5 -8.3 18.0 -9.9 L18.3 -10.45 18.6 -10.5 18.85 -10.1 18.85 -9.6 M16.9 -10.25 L16.9 -9.25 Q16.15 -7.05 15.6 -10.7 15.65 -11.15 16.05 -11.25 L16.9 -10.25 M2.45 -13.8 L2.75 -13.55 2.85 -13.05 2.75 -12.5 2.45 -12.3 2.2 -12.5 2.05 -13.05 2.2 -13.55 2.45 -13.8 M5.3 -4.2 L5.3 -4.25 Q5.95 -3.85 5.7 -2.95 5.45 -2.15 4.8 -2.75 4.5 -3.75 5.3 -4.2 M2.85 -3.4 Q2.6 -5.75 4.05 -2.35 3.05 -1.4 2.85 -3.4 M20.1 -6.4 Q19.6 -5.75 19.9 -6.2 L20.1 -6.4 M22.3 -0.4 Q22.3 -0.2 22.45 -0.05 L22.8 0.1 23.15 -0.05 23.3 -0.4 23.15 -0.75 22.8 -0.9 22.45 -0.75 22.3 -0.4 M24.95 -1.85 L24.65 -1.7 24.5 -1.4 24.65 -1.05 24.95 -0.95 25.3 -1.05 25.4 -1.4 25.3 -1.7 24.95 -1.85 M27.65 -2.65 L28.05 -2.65 28.05 -3.35 27.65 -3.35 27.65 -2.65 M15.25 5.7 L15.4 5.3 Q15.2 4.9 14.6 4.9 L14.45 5.05 14.35 5.6 14.4 5.7 14.8 5.85 15.25 5.7 M20.25 3.95 L20.4 4.4 20.75 4.6 21.1 4.4 21.25 3.95 21.15 3.55 20.25 3.85 20.25 3.95 M25.8 1.75 L25.9 1.95 26.15 2.1 26.45 1.95 26.55 1.5 26.55 1.4 Q26.05 0.85 25.8 1.55 L25.8 1.75 M14.05 1.25 Q13.9 1.1 13.7 1.1 L13.35 1.25 13.2 1.6 13.35 1.95 13.7 2.1 14.05 1.95 14.2 1.6 14.05 1.25 M5.35 10.6 L5.35 11.2 5.85 11.2 5.85 10.6 5.35 10.6 M-25.85 -0.85 L-25.6 -0.5 -25.3 -0.5 -25.15 -1.05 -25.1 -1.3 -25.25 -1.5 -25.5 -1.6 -25.75 -1.5 -25.9 -1.3 -25.85 -0.85 M-18.05 -4.65 L-19.45 -5.4 -18.7 -6.2 -17.95 -6.0 -17.6 -5.3 -18.05 -4.65 M-4.15 -5.1 L-4.05 -4.7 -4.15 -4.3 -4.35 -4.15 Q-4.45 -4.15 -4.55 -4.3 L-4.65 -4.7 -4.55 -5.1 -4.35 -5.25 -4.15 -5.1 M-5.45 -8.6 Q-5.4 -7.95 -5.75 -7.4 L-5.85 -7.25 Q-6.85 -7.35 -6.25 -8.3 L-5.9 -8.75 -5.85 -8.75 -5.75 -8.8 -5.55 -8.65 -5.45 -8.6 M-8.85 -8.1 L-8.7 -8.85 -8.4 -9.05 Q-7.65 -8.4 -8.15 -7.45 -8.25 -7.35 -8.35 -7.35 -8.95 -7.45 -8.85 -8.1 M-5.2 8.5 L-5.4 8.9 -5.2 9.35 -4.8 9.5 -4.35 9.35 -4.2 8.9 -4.3 8.55 -5.15 8.45 -5.2 8.5 M-0.5 6.45 Q-0.6 6.3 -0.75 6.3 L-1.0 6.45 -1.1 6.7 -1.0 7.0 -0.75 7.1 -0.5 7.0 -0.4 6.7 -0.5 6.45 M-2.85 11.05 L-2.65 11.5 Q-2.5 11.7 -2.25 11.7 L-1.8 11.5 -1.65 11.05 Q-1.65 10.8 -1.8 10.6 L-2.25 10.4 -2.65 10.6 -2.85 11.05 M-14.8 2.0 Q-14.95 1.85 -15.1 1.85 L-15.35 2.0 -15.5 2.25 -15.35 2.55 -15.1 2.65 -14.8 2.55 -14.7 2.25 -14.8 2.0 M-24.55 1.75 L-24.8 1.9 -24.95 2.15 -24.8 2.45 -24.55 2.55 -24.25 2.45 -24.15 2.15 -24.25 1.9 -24.55 1.75 M-15.4 5.45 Q-15.8 5.45 -16.05 5.75 L-16.35 6.4 -16.05 7.1 -15.4 7.35 -14.7 7.1 -14.45 6.4 Q-14.45 6.0 -14.7 5.75 -15.0 5.45 -15.4 5.45" fill="#679e30" fill-rule="evenodd" stroke="none"/>
    <path d="M8.1 -13.3 L8.1 -12.8 8.3 -11.65 8.25 -12.0 8.45 -11.9 8.3 -11.65 10.95 -12.35 15.6 -10.7 Q16.15 -7.05 16.9 -9.25 L16.9 -10.25 18.0 -9.9 Q17.5 -8.3 18.55 -9.25 L18.85 -9.6 20.05 -9.2 19.9 -8.9 Q19.8 -8.65 20.0 -8.4 L20.05 -8.35 20.25 -8.2 Q20.65 -8.0 20.8 -8.6 L20.85 -8.9 30.0 -5.75 23.35 -3.85 22.85 -4.75 22.85 -3.8 11.0 0.15 10.5 -0.3 10.45 -0.5 Q10.25 -0.95 10.15 -0.5 L8.75 0.4 8.25 1.2 0.0 4.55 -1.1 3.95 -16.05 -1.3 -19.6 -2.2 -19.9 -3.0 -19.9 -2.3 -21.6 -2.85 -22.3 -3.1 -23.4 -3.5 -24.05 -3.7 -30.0 -5.75 -20.1 -9.15 -19.6 -8.8 Q-17.4 -7.8 -16.4 -10.4 L-8.95 -13.0 Q-7.9 -10.95 -7.85 -13.05 L-7.95 -13.35 -7.8 -13.4 -6.8 -12.8 -7.15 -13.6 -6.85 -13.7 -6.4 -13.4 Q-6.25 -13.45 -6.25 -13.9 L-4.65 -14.45 Q-4.05 -12.9 -3.75 -14.45 L-3.7 -14.8 -0.25 -16.0 8.1 -13.3 M2.45 -13.8 L2.2 -13.55 2.05 -13.05 2.2 -12.5 2.45 -12.3 2.75 -12.5 2.85 -13.05 2.75 -13.55 2.45 -13.8 M9.7 -7.05 L9.35 -7.2 9.0 -7.05 8.85 -6.75 Q8.85 -6.55 9.0 -6.4 L9.35 -6.3 9.7 -6.4 9.85 -6.75 9.7 -7.05 M0.05 -10.85 L0.5 -10.85 0.5 -11.45 0.05 -11.45 0.05 -10.85 M2.85 -3.4 Q3.05 -1.4 4.05 -2.35 2.6 -5.75 2.85 -3.4 M5.3 -4.2 Q4.5 -3.75 4.8 -2.75 5.45 -2.15 5.7 -2.95 5.95 -3.85 5.3 -4.25 L5.3 -4.2 M20.1 -6.4 L19.9 -6.2 Q19.6 -5.75 20.1 -6.4 M1.75 2.35 L1.85 1.85 1.75 1.35 1.4 1.15 Q1.2 1.15 1.1 1.35 0.95 1.55 0.95 1.85 L1.1 2.35 1.4 2.55 1.75 2.35 M3.9 1.2 L3.35 1.2 3.35 2.2 3.9 2.2 3.9 1.2 M-23.75 -6.15 L-24.0 -6.05 -24.1 -5.8 -24.0 -5.55 -23.75 -5.45 -23.5 -5.55 -23.4 -5.8 -23.5 -6.05 -23.75 -6.15 M-18.1 -9.85 L-17.35 -10.1 Q-17.4 -9.5 -17.65 -9.35 L-18.1 -9.85 M-18.05 -4.65 L-17.6 -5.3 -17.95 -6.0 -18.7 -6.2 -19.45 -5.4 -18.05 -4.65 M-8.85 -8.1 Q-8.95 -7.45 -8.35 -7.35 -8.25 -7.35 -8.15 -7.45 -7.65 -8.4 -8.4 -9.05 L-8.7 -8.85 -8.85 -8.1 M-5.45 -8.6 L-5.55 -8.65 -5.75 -8.8 -5.85 -8.75 -5.9 -8.75 -6.25 -8.3 Q-6.85 -7.35 -5.85 -7.25 L-5.75 -7.4 Q-5.4 -7.95 -5.45 -8.6 M-4.15 -5.1 L-4.35 -5.25 -4.55 -5.1 -4.65 -4.7 -4.55 -4.3 Q-4.45 -4.15 -4.35 -4.15 L-4.15 -4.3 -4.05 -4.7 -4.15 -5.1" fill="#91f057" fill-rule="evenodd" stroke="none"/>
    <path d="M8.1 -12.8 L8.25 -12.0 8.3 -11.65 8.1 -12.8 M-24.05 -3.7 L-23.4 -3.5 -23.1 -1.85 -24.05 -3.7 M-22.3 -3.1 L-21.6 -2.85 -21.85 -2.25 -22.3 -3.1 M-19.9 -2.3 L-19.9 -3.0 -19.6 -2.2 -19.7 -2.0 -19.9 -2.3 M8.25 1.2 L8.75 0.4 10.05 2.1 8.25 1.2 M10.15 -0.5 Q10.25 -0.95 10.45 -0.5 L10.5 -0.3 10.3 0.75 10.15 -0.5 M22.85 -3.8 L22.85 -4.75 23.35 -3.85 22.85 -3.8 M0.05 -10.85 L0.05 -11.45 0.5 -11.45 0.5 -10.85 0.05 -10.85 M9.7 -7.05 L9.85 -6.75 9.7 -6.4 9.35 -6.3 9.0 -6.4 Q8.85 -6.55 8.85 -6.75 L9.0 -7.05 9.35 -7.2 9.7 -7.05 M27.65 -2.65 L27.65 -3.35 28.05 -3.35 28.05 -2.65 27.65 -2.65 M24.95 -1.85 L25.3 -1.7 25.4 -1.4 25.3 -1.05 24.95 -0.95 24.65 -1.05 24.5 -1.4 24.65 -1.7 24.95 -1.85 M22.3 -0.4 L22.45 -0.75 22.8 -0.9 23.15 -0.75 23.3 -0.4 23.15 -0.05 22.8 0.1 22.45 -0.05 Q22.3 -0.2 22.3 -0.4 M25.8 1.75 L25.8 1.55 Q26.05 0.85 26.55 1.4 L26.55 1.5 26.45 1.95 26.15 2.1 25.9 1.95 25.8 1.75 M20.25 3.95 L20.25 3.85 21.15 3.55 21.25 3.95 21.1 4.4 20.75 4.6 20.4 4.4 20.25 3.95 M15.25 5.7 L14.8 5.85 14.4 5.7 14.35 5.6 14.45 5.05 14.6 4.9 Q15.2 4.9 15.4 5.3 L15.25 5.7 M14.05 1.25 L14.2 1.6 14.05 1.95 13.7 2.1 13.35 1.95 13.2 1.6 13.35 1.25 13.7 1.1 Q13.9 1.1 14.05 1.25 M3.9 1.2 L3.9 2.2 3.35 2.2 3.35 1.2 3.9 1.2 M1.75 2.35 L1.4 2.55 1.1 2.35 0.95 1.85 Q0.95 1.55 1.1 1.35 1.2 1.15 1.4 1.15 L1.75 1.35 1.85 1.85 1.75 2.35 M5.35 10.6 L5.85 10.6 5.85 11.2 5.35 11.2 5.35 10.6 M-25.85 -0.85 L-25.9 -1.3 -25.75 -1.5 -25.5 -1.6 -25.25 -1.5 -25.1 -1.3 -25.15 -1.05 -25.3 -0.5 -25.6 -0.5 -25.85 -0.85 M-23.75 -6.15 L-23.5 -6.05 -23.4 -5.8 -23.5 -5.55 -23.75 -5.45 -24.0 -5.55 -24.1 -5.8 -24.0 -6.05 -23.75 -6.15 M-5.2 8.5 L-5.15 8.45 -4.3 8.55 -4.2 8.9 -4.35 9.35 -4.8 9.5 -5.2 9.35 -5.4 8.9 -5.2 8.5 M-0.5 6.45 L-0.4 6.7 -0.5 7.0 -0.75 7.1 -1.0 7.0 -1.1 6.7 -1.0 6.45 -0.75 6.3 Q-0.6 6.3 -0.5 6.45 M-2.85 11.05 L-2.65 10.6 -2.25 10.4 -1.8 10.6 Q-1.65 10.8 -1.65 11.05 L-1.8 11.5 -2.25 11.7 Q-2.5 11.7 -2.65 11.5 L-2.85 11.05 M-14.8 2.0 L-14.7 2.25 -14.8 2.55 -15.1 2.65 -15.35 2.55 -15.5 2.25 -15.35 2.0 -15.1 1.85 Q-14.95 1.85 -14.8 2.0 M-15.4 5.45 Q-15.0 5.45 -14.7 5.75 -14.45 6.0 -14.45 6.4 L-14.7 7.1 -15.4 7.35 -16.05 7.1 -16.35 6.4 -16.05 5.75 Q-15.8 5.45 -15.4 5.45 M-24.55 1.75 L-24.25 1.9 -24.15 2.15 -24.25 2.45 -24.55 2.55 -24.8 2.45 -24.95 2.15 -24.8 1.9 -24.55 1.75" fill="#456a20" fill-rule="evenodd" stroke="none"/>
  </g>
</svg>
