<?xml version="1.0" encoding="UTF-8" standalone="no"?>
<svg xmlns:ffdec="https://www.free-decompiler.com/flash" xmlns:xlink="http://www.w3.org/1999/xlink" ffdec:objectType="shape" height="32.15px" width="51.85px" xmlns="http://www.w3.org/2000/svg">
  <g transform="matrix(1.0, 0.0, 0.0, 1.0, 25.9, 16.1)">
    <path d="M1.55 -15.55 L2.7 -15.2 2.85 -14.95 3.0 -14.05 Q2.75 -12.85 1.55 -13.35 L1.05 -14.7 1.55 -15.55 M3.75 -15.35 L4.55 -16.1 5.25 -14.55 3.45 -14.35 3.75 -15.35 M11.05 -13.1 L15.1 -12.2 16.1 -6.55 21.25 -5.8 20.8 -5.05 16.25 -6.0 16.05 -6.1 15.8 -5.9 15.15 -5.5 15.1 -5.5 14.3 -5.75 14.2 -9.8 14.2 -10.0 14.05 -11.45 14.05 -11.5 13.95 -11.55 7.15 -12.8 6.25 -13.35 11.05 -13.1 M21.35 0.5 L25.95 0.55 25.85 2.1 25.4 1.8 Q24.45 1.35 23.3 1.35 L21.35 0.5 M-17.6 -14.4 L-8.5 -14.45 -7.95 -13.55 -17.6 -14.4 M-7.5 -15.0 L-6.55 -15.9 -5.85 -15.25 -6.05 -14.95 Q-6.8 -14.4 -7.5 -14.95 L-7.5 -15.0 M-5.85 -15.2 L-5.55 -15.9 -3.45 -15.9 -3.3 -15.65 -2.85 -15.8 -1.6 -15.2 -2.95 -14.05 -5.7 -14.6 -5.85 -14.7 -5.85 -15.2 M-1.3 -14.95 L0.05 -15.75 0.7 -15.35 0.9 -14.9 0.2 -13.85 -1.3 -14.95 M14.5 -4.55 L15.65 -4.4 16.05 -4.0 16.05 -2.75 15.35 -1.15 14.5 -4.55" fill="#e1e1d2" fill-rule="evenodd" stroke="none"/>
    <path d="M1.05 -14.7 L1.55 -13.35 Q2.75 -12.85 3.0 -14.05 L2.85 -14.95 3.45 -14.35 5.25 -14.55 5.6 -13.85 5.6 -12.95 7.15 -12.8 13.95 -11.55 14.05 -11.45 14.2 -10.0 14.15 -9.9 14.2 -9.8 14.3 -5.75 13.65 0.2 12.45 0.15 12.0 -10.65 4.5 -12.1 3.95 -9.6 3.25 -9.8 2.35 -12.55 1.55 -9.95 1.4 -10.05 1.3 -10.05 1.3 -10.0 0.9 -9.55 0.55 -12.6 -0.7 -9.95 -1.15 -11.55 -1.95 -12.8 -1.75 -9.55 -3.4 -9.75 -3.8 -12.95 -4.1 -9.65 -4.75 -9.85 -5.05 -10.25 -5.7 -13.75 -5.7 -14.6 -2.95 -14.05 -1.6 -15.2 -1.3 -14.95 0.2 -13.85 0.9 -14.9 1.05 -14.7 M20.85 -4.85 L21.75 -3.75 21.35 0.5 23.3 1.35 20.45 1.2 19.6 -4.05 15.15 -5.5 15.8 -5.9 16.05 -5.95 16.25 -6.0 20.8 -5.05 20.8 -4.9 20.85 -4.85 M-20.5 -3.25 L-18.0 -13.2 -17.25 -13.75 -17.25 -13.8 -17.2 -13.8 -17.45 -13.85 -17.6 -14.4 -7.95 -13.55 -8.2 -12.2 -15.2 -12.6 -14.9 -12.1 -15.2 -12.1 -16.2 -12.25 -16.25 -12.25 -17.85 -2.35 -19.3 -2.5 -20.2 -3.0 -20.25 -3.05 -20.5 -3.25 M-5.85 -15.25 L-5.85 -15.2 -5.85 -14.7 -5.75 -13.7 -6.1 -10.45 -7.05 -10.75 -7.65 -13.7 -7.5 -14.95 Q-6.8 -14.4 -6.05 -14.95 L-5.85 -15.25" fill="#cfcfba" fill-rule="evenodd" stroke="none"/>
    <path d="M1.55 -15.55 L1.05 -14.7 0.9 -14.9 0.7 -15.35 0.05 -15.75 1.55 -15.55 M2.85 -14.95 L2.7 -15.2 3.75 -15.35 3.45 -14.35 2.85 -14.95 M5.6 -13.85 L11.05 -13.1 6.25 -13.35 7.15 -12.8 5.6 -12.95 5.6 -13.85 M20.8 -5.05 L20.85 -4.85 20.8 -4.9 20.8 -5.05 M18.75 1.6 L19.15 3.8 19.3 4.6 19.4 7.65 19.05 7.7 17.55 7.3 17.3 5.15 17.5 4.95 Q18.0 4.5 18.65 4.2 L18.5 2.9 17.75 2.3 16.6 2.35 16.6 2.9 13.55 3.75 15.3 1.45 14.25 0.95 13.65 0.2 14.3 -5.75 15.1 -5.5 14.5 -4.55 15.35 -1.15 16.05 -2.75 18.7 -0.25 18.75 1.6 M17.7 10.5 L17.25 10.65 16.85 10.3 17.25 9.7 17.7 10.5 M16.5 10.95 L15.85 11.2 15.4 11.35 13.3 12.1 13.55 11.5 16.1 10.65 16.5 10.95 M6.75 14.3 L6.25 14.35 5.65 13.9 5.95 13.9 6.2 13.85 6.75 14.3 M5.4 14.45 L-0.45 15.05 0.3 14.05 4.75 13.9 5.4 14.45 M-1.8 15.1 L-2.45 15.1 -1.65 14.1 -0.7 14.1 -1.8 15.1 M-3.45 15.1 L-4.15 15.1 -3.8 14.15 -3.15 14.15 -3.05 14.15 -3.45 15.1 M-11.0 14.65 L-13.6 14.45 -12.45 13.45 -11.35 14.0 -11.2 14.0 -11.0 14.65 M-13.75 14.45 L-13.9 14.4 -13.85 14.35 -13.75 14.45 M-15.95 13.95 L-16.6 13.8 Q-16.55 13.2 -17.55 12.8 L-19.9 12.4 -21.85 11.15 -21.55 10.6 -16.85 12.2 -15.95 13.95 M-24.35 7.35 L-25.9 3.9 -24.85 3.35 -22.7 -2.35 -20.5 -3.25 -20.25 -3.05 -20.35 -3.0 -20.2 -3.0 -19.3 -2.5 -20.1 -2.35 Q-21.3 -2.3 -22.15 -1.45 -23.0 -0.6 -23.0 0.6 L-23.9 3.75 -24.0 6.9 -24.0 7.25 -24.35 7.35 M-18.0 -13.2 L-17.45 -13.85 -17.2 -13.8 -17.25 -13.8 -17.25 -13.75 -18.0 -13.2 M-8.5 -14.45 L-7.5 -15.0 -7.5 -14.95 -7.65 -13.7 -7.95 -13.55 -8.5 -14.45 M-3.45 -15.9 L-2.85 -15.8 -3.3 -15.65 -3.45 -15.9 M-5.7 -14.6 L-5.7 -13.75 -5.75 -13.7 -5.85 -14.7 -5.7 -14.6 M1.3 -10.0 L1.3 -10.05 1.4 -10.05 1.3 -10.0 M10.7 -4.85 L10.75 -4.0 8.25 -4.6 Q7.95 -4.75 7.8 -4.85 L7.4 -4.75 4.85 -5.35 10.7 -4.85 M15.8 -5.9 L16.05 -6.1 16.05 -5.95 15.8 -5.9 M5.95 -3.05 L9.6 -1.8 10.55 0.3 8.25 1.9 7.7 2.2 -2.9 3.4 -3.3 3.35 -11.8 2.45 -16.3 -0.15 -16.25 -0.4 -14.15 -2.15 -10.7 -2.65 Q-12.9 -1.6 -13.25 0.2 L-13.45 1.15 7.4 1.65 8.05 1.15 9.35 0.55 9.7 -1.1 -7.1 -3.25 -4.45 -3.65 -3.9 -3.6 4.2 -3.25 5.15 -3.0 5.95 -3.05 M-2.6 5.55 L8.4 4.35 -3.45 6.75 -3.5 6.7 -3.5 6.75 -10.3 5.95 -10.35 5.95 -10.6 5.9 -15.35 4.95 -15.65 4.8 -15.8 4.85 -21.75 2.75 -21.75 2.55 -21.2 2.2 -15.0 4.4 -14.15 4.55 -12.95 4.8 -10.9 5.15 -10.65 5.15 -10.45 5.2 -10.05 5.2 -3.05 5.55 -2.6 5.55 M-15.9 12.25 L-14.75 12.3 -14.7 12.35 -15.45 13.0 -15.9 12.25 M9.7 12.85 L9.9 12.8 9.7 13.0 9.7 12.85 M-16.2 -12.15 L-16.2 -12.25 -15.2 -12.1 -15.35 -10.45 -16.2 -12.15 M-6.75 -5.75 L-12.25 -4.8 -12.65 -4.4 -15.1 -4.5 -15.75 -4.4 -15.7 -5.65 -14.25 -4.9 -6.75 -5.75 M-12.55 -4.1 L-12.65 -4.1 -12.55 -4.15 -12.55 -4.1 M-15.1 -4.45 L-15.6 -3.75 -15.75 -4.35 -15.1 -4.45 M-9.8 14.15 L-9.2 14.2 -8.85 14.2 -8.85 14.85 -9.8 14.15 M-7.5 14.2 L-5.2 14.15 -5.55 15.05 -6.1 15.0 -7.5 14.2" fill="#666666" fill-rule="evenodd" stroke="none"/>
    <path d="M25.85 2.1 L25.9 3.05 25.7 3.15 19.45 2.45 18.75 1.6 18.7 -0.25 18.85 -3.85 16.05 -4.0 15.65 -4.4 14.5 -4.55 15.1 -5.5 15.15 -5.5 19.6 -4.05 20.45 1.2 23.3 1.35 Q24.45 1.35 25.4 1.8 L25.85 2.1 M-5.7 -13.75 L-5.05 -10.25 -6.1 -10.45 -5.75 -13.7 -5.7 -13.75 M-4.1 -9.65 L-3.8 -12.95 -3.4 -9.75 -4.1 -9.65 M-1.75 -9.55 L-1.95 -12.8 -1.15 -11.55 -1.75 -9.55 M-0.7 -9.95 L0.55 -12.6 0.9 -9.55 -0.7 -9.95 M1.55 -9.95 L2.35 -12.55 3.25 -9.8 2.25 -9.5 1.55 -9.95 M3.95 -9.6 L4.5 -12.1 12.0 -10.65 12.45 0.15 13.65 0.2 14.25 0.95 15.3 1.45 14.55 1.6 13.2 0.7 12.45 0.85 11.8 1.35 11.45 1.35 10.75 -4.0 10.7 -4.85 10.8 -10.3 5.5 -10.95 5.15 -9.65 3.95 -9.6 M-16.2 -12.15 L-15.35 -10.45 -15.7 -5.65 -15.75 -4.4 -15.75 -4.35 -15.6 -3.75 -16.65 -1.5 -19.45 -1.25 -20.25 -1.8 -20.1 -2.35 -19.3 -2.5 -17.85 -2.35 -16.25 -12.25 -16.2 -12.15 M-14.9 -12.1 L-15.2 -12.6 -8.2 -12.2 -7.95 -13.55 -7.65 -13.7 -7.05 -10.75 -8.2 -11.45 -14.9 -12.1" fill="#73734f" fill-rule="evenodd" stroke="none"/>
    <path d="M10.75 -4.0 L11.45 1.35 13.4 1.65 14.55 1.6 15.3 1.45 13.55 3.75 16.6 2.9 16.9 4.7 10.9 6.8 10.05 5.0 9.6 7.05 -1.75 8.55 4.9 8.6 5.05 10.9 -10.25 11.55 -10.0 8.45 -2.45 8.4 -2.45 7.7 -3.45 6.75 8.4 4.35 -2.6 5.55 -2.9 3.4 7.7 2.2 9.95 4.2 10.65 4.0 8.25 1.9 10.55 0.3 9.6 -1.8 5.95 -3.05 8.25 -4.6 10.75 -4.0 M7.55 1.45 L8.05 1.15 7.4 1.65 7.55 1.45 M-7.1 -3.25 L-10.7 -2.65 -14.15 -2.15 -16.25 -0.4 -21.95 1.2 -16.3 -0.15 -11.8 2.45 -15.0 4.4 -21.2 2.2 -23.0 0.6 Q-23.0 -0.6 -22.15 -1.45 -21.3 -2.3 -20.1 -2.35 L-20.25 -1.8 -19.45 -1.25 -16.65 -1.5 -15.6 -3.75 -15.1 -4.45 -15.1 -4.5 -12.65 -4.4 -12.55 -4.15 -12.65 -4.1 -12.55 -4.1 -11.2 -3.4 -12.25 -4.8 -6.75 -5.75 -4.15 -5.95 -4.1 -5.95 4.85 -5.35 7.4 -4.75 5.9 -4.2 2.5 -3.7 4.2 -3.25 -3.9 -3.6 -3.75 -5.45 -4.5 -5.55 -4.45 -3.65 -7.1 -3.25 M-3.3 3.35 L-3.05 5.55 -10.05 5.2 -12.9 3.8 -13.3 4.2 -12.95 4.8 -14.15 4.55 -11.8 2.45 -3.3 3.35 M-3.5 6.75 L-3.8 8.4 -10.75 7.75 -10.6 5.95 -10.3 6.0 -10.3 5.95 -3.5 6.75 M-11.1 12.45 L-3.4 12.6 -2.85 14.0 -3.15 14.1 -3.15 14.15 -3.8 14.15 -3.8 13.1 -5.2 14.15 -7.5 14.2 -7.6 13.35 -8.25 12.85 -8.85 14.15 -9.2 14.2 -9.8 14.15 -10.9 13.2 -11.2 14.0 -11.35 14.0 -11.1 12.45 M-2.55 13.7 L-2.1 13.1 -2.3 12.6 11.3 10.55 11.6 11.1 9.9 12.8 9.7 12.85 9.25 11.45 8.3 11.85 8.4 13.3 6.6 12.3 6.45 13.1 5.35 13.1 6.1 13.75 5.95 13.9 5.65 13.9 4.55 13.2 4.75 13.9 0.3 14.05 -0.7 14.1 -1.65 14.1 -1.5 13.95 Q-1.85 13.5 -2.55 13.7 M12.1 12.0 L12.45 10.35 16.9 8.2 7.15 10.4 5.6 8.55 17.3 5.15 17.55 7.3 17.5 8.55 17.25 9.7 16.85 10.3 15.7 9.6 16.1 10.65 13.55 11.5 12.1 12.0 M-10.45 5.2 L-10.65 5.15 -10.45 5.2" fill="#ffffff" fill-rule="evenodd" stroke="none"/>
    <path d="M11.8 1.35 L12.45 0.85 13.2 0.7 14.55 1.6 13.4 1.65 11.8 1.35 M7.4 -4.75 L7.8 -4.85 Q7.95 -4.75 8.25 -4.6 L5.95 -3.05 5.15 -3.0 5.9 -4.2 7.4 -4.75 M8.25 1.9 L10.65 4.0 9.95 4.2 7.7 2.2 8.25 1.9 M-2.9 3.4 L-2.6 5.55 -3.05 5.55 -3.3 3.35 -2.9 3.4 M-3.45 6.75 L-2.45 7.7 -2.45 8.4 -10.0 8.45 -10.25 11.55 5.05 10.9 4.9 8.6 -1.75 8.55 9.6 7.05 10.05 5.0 10.9 6.8 16.9 4.7 16.6 2.9 16.6 2.35 17.75 2.3 18.5 2.9 18.65 4.2 Q18.0 4.5 17.5 4.95 L17.3 5.15 5.6 8.55 7.15 10.4 16.9 8.2 12.45 10.35 12.1 12.0 11.6 11.1 11.3 10.55 -2.3 12.6 -2.1 13.1 -2.55 13.7 -2.85 14.0 -3.4 12.6 -11.1 12.45 -12.95 12.4 -12.8 11.8 -14.6 12.3 -14.75 12.3 -15.9 12.25 -16.75 11.55 -16.85 12.2 -21.55 10.6 -21.55 9.55 -22.55 9.85 -22.3 8.8 -23.05 9.35 -24.0 7.25 -24.0 6.9 -21.8 8.9 -20.85 6.15 -23.9 3.75 -22.55 1.35 -21.75 2.55 -21.75 2.75 -22.45 4.3 -15.95 6.7 -15.8 4.85 -15.65 4.8 -15.35 4.95 Q-15.4 6.1 -14.0 6.95 -12.65 7.75 -10.75 7.75 L-3.8 8.4 -3.5 6.75 -3.5 6.7 -3.45 6.75 M7.55 1.45 L7.4 1.65 -13.45 1.15 7.2 0.05 7.55 1.45 M17.5 8.55 L17.55 7.3 19.05 7.7 18.4 8.9 17.5 8.55 M-4.15 -5.95 L-4.1 -6.0 -4.1 -5.95 -4.15 -5.95 M-4.45 -3.65 L-4.5 -5.55 -3.75 -5.45 -3.9 -3.6 -4.45 -3.65 M-12.25 -4.8 L-11.2 -3.4 -12.55 -4.1 -12.55 -4.15 -12.65 -4.4 -12.25 -4.8 M-15.0 4.4 L-11.8 2.45 -14.15 4.55 -15.0 4.4 M-16.3 -0.15 L-21.95 1.2 -16.25 -0.4 -16.3 -0.15 M-20.65 9.15 L-11.0 11.65 -10.9 8.35 -19.9 6.5 -20.65 9.15" fill="#999999" fill-rule="evenodd" stroke="none"/>
    <path d="M8.05 1.15 L7.55 1.45 7.2 0.05 -13.45 1.15 -13.25 0.2 Q-12.9 -1.6 -10.7 -2.65 L-7.1 -3.25 9.7 -1.1 9.35 0.55 8.05 1.15 M5.9 -4.2 L5.15 -3.0 4.2 -3.25 2.5 -3.7 5.9 -4.2 M-10.75 7.75 Q-12.65 7.75 -14.0 6.95 -15.4 6.1 -15.35 4.95 L-10.6 5.9 -10.6 5.95 -10.75 7.75 M-15.8 4.85 L-15.95 6.7 -22.45 4.3 -21.75 2.75 -15.8 4.85 M-21.75 2.55 L-22.55 1.35 -23.9 3.75 -20.85 6.15 -21.8 8.9 -24.0 6.9 -23.9 3.75 -23.0 0.6 -21.2 2.2 -21.75 2.55 M-14.75 12.3 L-14.6 12.3 -14.7 12.35 -14.75 12.3 M-12.95 12.4 L-11.1 12.45 -11.35 14.0 -12.45 13.45 -12.95 12.4 M-12.95 4.8 L-13.3 4.2 -12.9 3.8 -10.05 5.2 -10.45 5.2 -10.65 5.15 -10.9 5.15 -12.95 4.8 M-20.65 9.15 L-19.9 6.5 -10.9 8.35 -11.0 11.65 -20.65 9.15" fill="#cccccc" fill-rule="evenodd" stroke="none"/>
    <path d="M11.45 1.35 L11.8 1.35 13.4 1.65 11.45 1.35" fill="#999966" fill-rule="evenodd" stroke="none"/>
    <path d="M19.15 3.8 L19.25 4.05 19.3 4.6 19.15 3.8 M19.4 7.65 L19.85 8.05 19.8 8.8 21.65 8.35 21.85 9.1 21.15 10.0 22.6 9.5 22.2 10.5 18.35 11.15 17.7 10.5 17.25 9.7 17.5 8.55 18.4 8.9 19.05 7.7 19.4 7.65 M17.25 10.65 L18.25 11.95 17.75 13.0 17.3 11.15 16.5 10.95 16.1 10.65 15.7 9.6 16.85 10.3 17.25 10.65 M15.85 11.2 L16.95 13.35 15.4 11.35 15.85 11.2 M13.3 12.1 L11.85 13.55 11.4 12.85 Q10.45 13.7 8.4 14.0 L6.75 14.3 6.2 13.85 6.1 13.75 5.35 13.1 6.45 13.1 6.6 12.3 8.4 13.3 8.3 11.85 9.25 11.45 9.7 12.85 9.7 13.0 9.9 12.8 11.6 11.1 12.1 12.0 13.55 11.5 13.3 12.1 M6.25 14.35 L6.2 14.6 Q5.85 15.0 5.4 14.45 L4.75 13.9 4.55 13.2 5.65 13.9 6.25 14.35 M-0.45 15.05 L-2.7 15.65 -1.8 15.1 -0.7 14.1 0.3 14.05 -0.45 15.05 M-2.45 15.1 L-3.45 15.1 -3.05 14.15 -3.15 14.1 -2.85 14.0 -2.55 13.7 Q-1.85 13.5 -1.5 13.95 L-1.65 14.1 -2.45 15.1 M-4.15 15.1 L-4.5 15.6 -5.3 15.75 -5.55 15.05 -5.2 14.15 -3.8 13.1 -3.8 14.15 -4.15 15.1 M-5.85 15.8 L-6.75 15.75 -7.6 16.05 -9.55 15.05 -12.05 15.6 -11.7 14.9 -11.0 14.65 -11.2 14.0 -10.9 13.2 -9.8 14.15 -8.85 14.85 -8.85 14.2 -8.85 14.15 -8.25 12.85 -7.6 13.35 -7.5 14.2 -6.1 15.0 -5.85 15.8 M-13.6 14.45 L-13.75 14.45 -13.85 14.35 -13.9 14.4 -15.95 13.95 -16.85 12.2 -16.75 11.55 -15.9 12.25 -15.45 13.0 -14.7 12.35 -14.6 12.3 -12.8 11.8 -12.95 12.4 -12.45 13.45 -13.6 14.45 M-16.6 13.8 L-16.9 14.6 -19.9 12.4 -17.55 12.8 Q-16.55 13.2 -16.6 13.8 M-21.85 11.15 L-22.8 11.65 -22.9 10.3 -23.4 10.9 -23.4 9.75 -24.5 10.15 -25.9 7.8 -25.1 8.5 -24.35 7.35 -24.0 7.25 -23.05 9.35 -22.3 8.8 -22.55 9.85 -21.55 9.55 -21.55 10.6 -21.85 11.15 M20.3 12.35 L19.8 12.8 18.85 13.0 20.05 11.25 20.3 12.35 M-10.9 5.15 L-10.65 5.15 -10.9 5.15 M-10.3 6.0 L-10.6 5.95 -10.6 5.9 -10.35 5.95 -10.3 6.0" fill="#679e30" fill-rule="evenodd" stroke="none"/>
    <path d="M-3.15 14.15 L-3.15 14.1 -3.05 14.15 -3.15 14.15" fill="#91f057" fill-rule="evenodd" stroke="none"/>
    <path d="M5.95 13.9 L6.1 13.75 6.2 13.85 5.95 13.9 M-10.3 5.95 L-10.3 6.0 -10.35 5.95 -10.3 5.95 M-9.2 14.2 L-8.85 14.15 -8.85 14.2 -9.2 14.2" fill="#6bc038" fill-rule="evenodd" stroke="none"/>
    <path d="M-5.3 15.75 L-5.85 15.8 -6.1 15.0 -5.55 15.05 -5.3 15.75" fill="#4d7423" fill-rule="evenodd" stroke="none"/>
  </g>
</svg>
