<?xml version="1.0" encoding="UTF-8" standalone="no"?>
<svg xmlns:ffdec="https://www.free-decompiler.com/flash" xmlns:xlink="http://www.w3.org/1999/xlink" ffdec:objectType="shape" height="37.9px" width="60.0px" xmlns="http://www.w3.org/2000/svg">
  <g transform="matrix(1.0, 0.0, 0.0, 1.0, 30.0, 18.95)">
    <path d="M13.25 -17.25 L12.4 -16.0 11.25 -14.85 10.3 -13.85 8.4 -12.0 7.85 -18.95 9.05 -13.75 13.25 -17.25 M10.45 -9.1 L11.05 -9.6 15.55 -12.5 11.7 -9.4 8.55 -5.8 8.35 -6.0 8.95 -9.25 Q9.25 -8.3 10.2 -8.9 L10.3 -9.0 10.45 -9.1 M17.1 -9.15 L17.7 -9.35 17.1 -5.85 17.1 -9.15 M20.3 -7.4 L20.3 -10.75 20.75 -7.95 Q21.25 -7.35 20.5 -7.35 L20.3 -7.4 M22.35 -10.1 L22.75 -11.6 22.6 -8.35 20.3 -4.05 22.35 -10.1 M22.5 -5.45 L24.5 -8.85 23.65 -6.25 22.3 -4.25 22.45 -5.3 22.5 -5.45 M26.3 -4.1 L26.7 -4.7 Q26.9 -4.9 27.2 -4.9 L27.7 -4.65 28.0 -4.05 28.0 -3.45 26.3 -4.1 M28.3 -3.35 Q28.7 -5.35 29.0 -3.2 L29.0 -3.1 28.3 -3.35 M-22.15 -8.5 L-25.15 -13.85 -21.15 -7.75 -22.15 -8.5 M-19.65 -11.4 L-19.0 -14.8 -18.9 -11.95 -19.5 -9.9 -19.65 -11.4 M-18.4 -7.2 L-16.5 -15.7 -17.7 -7.7 -18.2 -6.05 -18.3 -6.1 -18.4 -7.15 -18.4 -7.2 M-12.35 -9.65 L-14.4 -12.85 -12.4 -11.05 -11.6 -8.15 -12.35 -9.65 M-11.9 -12.3 L-13.8 -17.0 -11.5 -13.4 -11.25 -16.5 -10.9 -12.55 -10.9 -11.5 -10.35 -12.35 -7.95 -15.95 -10.15 -10.85 -10.7 -9.8 -11.9 -12.3 M-7.8 -11.8 L-6.35 -16.55 -7.3 -10.95 -7.65 -9.3 -7.8 -11.8 M0.6 -13.4 L1.9 -17.95 1.3 -13.75 0.6 -13.4 M3.05 -12.5 L3.25 -13.4 3.6 -12.8 Q4.05 -12.05 3.5 -12.2 L3.05 -12.5 M7.0 -11.8 L4.25 -17.9 5.3 -16.4 5.35 -18.6 6.35 -14.65 7.0 -11.8 M1.5 -12.2 L1.8 -11.95 1.9 -11.4 1.8 -10.8 1.5 -10.6 1.25 -10.8 Q1.1 -11.05 1.1 -11.4 1.1 -11.75 1.25 -11.95 L1.5 -12.2 M2.15 -0.75 L1.6 -0.5 -3.05 -0.25 -0.3 -2.9 2.15 -0.75 M2.2 0.9 L2.2 -0.7 3.05 0.35 5.15 -1.15 5.5 -0.8 3.1 4.0 2.6 3.15 2.3 2.0 2.25 1.95 2.2 0.9 M15.0 -3.35 L14.95 -6.2 15.3 -3.65 15.0 -3.35 M13.65 -1.4 L13.7 -1.1 Q13.65 -0.1 13.05 -0.55 L13.65 -1.4 M16.5 1.25 L16.05 0.0 16.1 -0.7 16.75 -1.3 16.8 1.05 16.5 1.25 M22.8 -2.1 L23.35 -2.1 23.35 -1.4 22.8 -1.4 22.8 -2.1 M22.1 -1.15 L21.8 -1.25 21.65 -1.6 21.8 -1.9 22.1 -2.05 22.45 -1.9 22.55 -1.6 22.45 -1.25 22.1 -1.15 M-19.4 -4.85 L-19.2 -4.35 -18.95 -3.6 -19.4 -4.85" fill="#bde19d" fill-rule="evenodd" stroke="none"/>
    <path d="M12.4 -16.0 L13.25 -17.25 10.7 -10.1 10.45 -11.65 12.4 -16.0 M8.4 -12.0 L10.3 -13.85 10.25 -13.55 9.25 -10.25 9.4 -10.2 9.25 -10.2 9.25 -10.25 9.2 -10.25 8.4 -12.0 M10.4 -9.2 L10.6 -9.75 11.05 -9.6 10.45 -9.1 10.4 -9.2 M11.7 -9.4 L16.95 -7.45 17.1 -5.85 17.7 -9.35 20.3 -7.4 20.5 -7.35 Q21.25 -7.35 20.75 -7.95 L22.35 -10.1 20.3 -4.05 20.0 0.6 16.8 1.05 16.75 -1.3 16.1 -0.7 15.85 -0.65 15.65 -0.5 15.65 -0.25 15.8 -0.05 16.05 0.0 16.5 1.25 14.3 2.7 14.75 -0.35 13.4 3.25 11.4 0.85 10.7 2.85 10.4 2.25 10.85 3.6 4.8 6.35 6.25 2.8 4.65 4.2 4.4 6.5 1.05 7.7 0.75 7.6 Q-3.1 7.6 -5.85 5.85 -8.6 4.05 -8.6 1.55 L-8.65 0.35 -8.95 1.5 -9.5 1.85 -9.85 0.1 -11.5 1.95 -11.2 4.05 -16.45 1.9 -17.1 -1.1 -17.45 1.25 -30.0 -2.75 -22.6 -5.4 -20.25 -2.95 -24.2 -8.7 -21.5 -5.8 -22.15 -8.5 -21.15 -7.75 -21.45 -13.95 -20.35 -8.7 -19.65 -11.4 -19.5 -9.9 -18.9 -11.95 -18.7 -6.8 -18.95 -6.4 -19.4 -4.85 -18.95 -3.6 -19.2 -4.35 -18.7 -5.5 -18.2 -6.05 -17.7 -7.7 -14.85 -8.2 -13.95 -7.95 -14.25 -8.4 -14.3 -11.9 -12.35 -9.65 -11.6 -8.15 -12.4 -11.05 -11.9 -12.3 -10.7 -9.8 -10.3 -4.1 -12.55 -7.45 -10.05 -3.1 -9.45 -6.4 -8.55 -3.55 -9.95 -9.95 -7.8 -11.8 -7.65 -9.3 -7.3 -10.95 -1.35 -15.0 0.6 -13.4 1.3 -13.75 Q2.15 -13.15 3.05 -12.5 L3.5 -12.2 Q4.05 -12.05 3.6 -12.8 L6.45 -11.25 6.6 -8.55 7.05 -11.25 7.0 -11.8 6.35 -14.65 7.75 -12.0 8.95 -9.25 8.35 -6.0 6.95 -2.95 5.25 -6.9 0.85 -6.5 -2.4 -10.35 -1.9 -8.1 -6.0 -2.1 -2.95 -3.8 -1.1 -6.95 0.4 -5.55 0.85 -6.5 5.15 -1.15 3.05 0.35 2.2 -0.7 2.2 -0.8 2.15 -0.75 -0.3 -2.9 -3.05 -0.25 1.6 -0.5 2.2 2.05 2.2 0.9 2.25 1.95 2.2 2.05 2.3 2.0 2.6 3.15 2.8 4.35 3.1 4.0 5.5 -0.8 5.65 -0.7 Q5.65 -0.45 5.95 -0.25 6.2 -0.05 6.55 -0.05 L6.9 -1.45 6.95 -1.45 8.55 -5.8 11.7 -9.4 M21.85 -5.7 L22.5 -5.45 22.45 -5.3 21.25 -4.3 21.85 -5.7 M23.65 -6.25 L25.2 -7.9 23.4 -5.15 26.3 -4.1 28.0 -3.45 28.3 -3.35 29.0 -3.1 30.0 -2.75 20.0 0.6 22.3 -4.25 23.65 -6.25 M-10.9 -12.55 L-10.35 -12.35 -10.9 -11.5 -10.9 -12.55 M1.5 -12.2 L1.25 -11.95 Q1.1 -11.75 1.1 -11.4 1.1 -11.05 1.25 -10.8 L1.5 -10.6 1.8 -10.8 1.9 -11.4 1.8 -11.95 1.5 -12.2 M4.4 -9.3 L4.4 -8.7 4.95 -8.7 4.95 -9.3 4.4 -9.3 M15.3 -3.65 L14.95 -6.2 15.0 -3.35 Q13.0 -3.45 11.7 -2.25 10.1 -0.85 13.05 -0.55 13.65 -0.1 13.7 -1.1 L13.65 -1.4 15.3 -3.65 M22.8 -2.1 L22.8 -1.4 23.35 -1.4 23.35 -2.1 22.8 -2.1 M22.1 -1.15 L22.45 -1.25 22.55 -1.6 22.45 -1.9 22.1 -2.05 21.8 -1.9 21.65 -1.6 21.8 -1.25 22.1 -1.15 M-5.1 -10.05 L-5.35 -11.45 -5.75 -8.35 -5.55 -6.8 -5.1 -10.05 M-4.55 -11.65 L-4.65 -11.25 -4.55 -10.85 -4.3 -10.7 Q-4.15 -10.7 -4.05 -10.85 L-3.95 -11.25 -4.05 -11.65 -4.3 -11.8 -4.55 -11.65 M-0.7 -10.3 L-0.8 -11.05 -1.0 -11.35 -1.2 -11.05 -1.3 -10.3 -1.2 -9.55 -1.0 -9.25 -0.8 -9.55 -0.7 -10.3 M-14.2 -5.55 L-14.55 -5.7 -14.85 -5.55 -15.0 -5.25 -14.85 -4.9 -14.55 -4.8 -14.2 -4.9 -14.1 -5.25 -14.2 -5.55 M-16.3 0.45 L-16.2 0.9 -15.95 1.1 -15.7 0.9 -15.6 0.45 -15.7 0.0 -15.95 -0.2 -16.2 0.0 -16.3 0.45 M-15.75 1.35 L-15.75 2.0 -15.2 2.0 -15.2 1.35 -15.75 1.35" fill="#6bc038" fill-rule="evenodd" stroke="none"/>
    <path d="M7.85 -18.95 L8.4 -12.0 9.2 -10.25 9.25 -10.2 9.4 -10.2 10.25 -13.55 10.3 -13.85 11.25 -14.85 10.45 -11.65 10.7 -10.1 10.6 -9.75 10.4 -9.2 10.3 -9.0 10.2 -8.9 Q9.25 -8.3 8.95 -9.25 L7.75 -12.0 7.85 -18.95 M22.6 -8.35 L21.85 -5.7 21.25 -4.3 22.45 -5.3 22.3 -4.25 20.0 0.6 30.0 -2.75 30.0 8.1 0.0 18.95 -30.0 8.1 -30.0 -2.75 -17.45 1.25 -17.1 -1.1 -16.45 1.9 -11.2 4.05 -11.5 1.95 -9.85 0.1 -9.5 1.85 -8.95 1.5 -8.6 1.55 Q-8.6 4.05 -5.85 5.85 -3.1 7.6 0.75 7.6 L0.75 7.7 1.05 7.7 4.4 6.5 4.7 6.55 4.8 6.35 10.85 3.6 10.4 2.25 10.7 2.85 11.4 0.85 13.4 3.25 14.75 -0.35 14.3 2.7 16.5 1.25 16.8 1.05 20.0 0.6 20.3 -4.05 22.6 -8.35 M-22.6 -5.4 L-24.2 -8.7 -20.25 -2.95 -22.6 -5.4 M-14.85 -8.2 L-14.25 -8.4 -13.95 -7.95 -14.85 -8.2 M-10.15 -10.85 L-9.95 -9.95 -8.55 -3.55 -9.45 -6.4 -10.05 -3.1 -12.55 -7.45 -10.3 -4.1 -10.7 -9.8 -10.15 -10.85 M6.45 -11.25 Q6.55 -11.8 6.95 -11.4 L7.05 -11.25 6.6 -8.55 6.45 -11.25 M8.35 -6.0 L8.55 -5.8 6.95 -1.45 6.85 -1.95 6.9 -1.45 6.55 -0.05 5.65 -0.7 5.5 -0.8 5.15 -1.15 0.85 -6.5 0.4 -5.55 -1.1 -6.95 -2.95 -3.8 -6.0 -2.1 -1.9 -8.1 -2.4 -10.35 0.85 -6.5 5.25 -6.9 6.95 -2.95 8.35 -6.0 M4.4 -9.3 L4.95 -9.3 4.95 -8.7 4.4 -8.7 4.4 -9.3 M15.0 -3.35 L15.3 -3.65 13.65 -1.4 13.05 -0.55 Q10.1 -0.85 11.7 -2.25 13.0 -3.45 15.0 -3.35 M16.05 0.0 L15.8 -0.05 15.65 -0.25 15.65 -0.5 15.85 -0.65 16.1 -0.7 16.05 0.0 M23.0 1.2 L23.0 1.75 23.6 1.75 23.6 1.2 23.0 1.2 M27.9 0.55 L27.9 1.15 28.45 1.15 28.45 0.55 27.9 0.55 M15.9 6.5 L16.05 6.8 16.3 6.9 16.6 6.8 16.7 6.5 16.6 6.25 Q16.45 6.1 16.3 6.1 16.15 6.1 16.05 6.25 L15.9 6.5 M15.45 11.3 L15.75 11.2 15.85 10.95 15.75 10.7 15.45 10.6 Q15.3 10.6 15.2 10.7 15.05 10.8 15.05 10.95 L15.2 11.2 15.45 11.3 M9.3 6.25 L9.45 6.5 9.75 6.6 10.1 6.5 10.2 6.25 10.1 6.0 9.75 5.9 9.45 6.0 9.3 6.25 M2.75 10.7 L2.75 11.3 3.3 11.3 3.3 10.7 2.75 10.7 M28.4 4.15 L28.4 4.0 Q27.9 4.45 28.4 4.15 M-22.35 3.85 L-22.35 4.4 -21.8 4.4 -21.8 3.85 -22.35 3.85 M-27.25 4.0 L-27.8 4.0 -27.8 4.6 -27.25 4.6 -27.25 4.0 M-5.1 -10.05 L-5.55 -6.8 -5.75 -8.35 -5.1 -10.05 M-4.55 -11.65 L-4.3 -11.8 -4.05 -11.65 -3.95 -11.25 -4.05 -10.85 Q-4.15 -10.7 -4.3 -10.7 L-4.55 -10.85 -4.65 -11.25 -4.55 -11.65 M-14.2 -5.55 L-14.1 -5.25 -14.2 -4.9 -14.55 -4.8 -14.85 -4.9 -15.0 -5.25 -14.85 -5.55 -14.55 -5.7 -14.2 -5.55 M-18.4 -7.15 L-18.3 -6.1 -18.7 -5.5 -19.2 -4.35 -19.4 -4.85 -18.95 -6.4 -18.4 -7.15 M-16.3 0.45 L-16.2 0.0 -15.95 -0.2 -15.7 0.0 -15.6 0.45 -15.7 0.9 -15.95 1.1 -16.2 0.9 -16.3 0.45 M-7.1 7.9 L-7.1 7.3 -7.65 7.3 -7.65 7.9 -7.1 7.9 M-6.15 11.85 Q-5.7 11.1 -6.2 11.85 L-6.15 11.85 M-2.35 14.9 L-2.5 15.15 -2.35 15.45 -2.1 15.55 -1.8 15.45 -1.7 15.15 -1.8 14.9 Q-1.95 14.75 -2.1 14.75 L-2.35 14.9 M-14.8 6.55 L-14.5 6.45 -14.4 6.15 -14.5 5.9 Q-14.65 5.75 -14.8 5.75 L-15.05 5.9 -15.2 6.15 -15.05 6.45 -14.8 6.55 M-19.7 8.25 Q-18.65 8.4 -19.7 8.05 L-19.7 8.25 M-15.3 11.9 L-15.0 11.8 -14.9 11.55 -15.0 11.3 -15.3 11.2 -15.55 11.3 -15.7 11.55 -15.55 11.8 -15.3 11.9 M-25.05 7.05 L-25.15 7.3 -25.05 7.6 -24.85 7.7 -24.65 7.6 -24.55 7.3 -24.65 7.05 -24.85 6.9 -25.05 7.05" fill="#538628" fill-rule="evenodd" stroke="none"/>
    <path d="M9.25 -10.2 L9.2 -10.25 9.25 -10.25 9.25 -10.2 M10.3 -9.0 L10.4 -9.2 10.45 -9.1 10.3 -9.0 M16.95 -7.45 L17.1 -9.15 17.1 -5.85 16.95 -7.45 M-18.7 -6.8 L-18.4 -7.2 -18.4 -7.15 -18.95 -6.4 -18.7 -6.8 M2.2 2.05 L2.25 1.95 2.3 2.0 2.2 2.05 M6.9 -1.45 L6.85 -1.95 6.95 -1.45 6.9 -1.45 M5.65 -0.7 L6.55 -0.05 Q6.2 -0.05 5.95 -0.25 5.65 -0.45 5.65 -0.7 M-18.3 -6.1 L-18.2 -6.05 -18.7 -5.5 -18.3 -6.1" fill="#6db035" fill-rule="evenodd" stroke="none"/>
    <path d="M1.6 -0.5 L2.15 -0.75 2.2 -0.8 2.2 -0.7 2.2 0.9 2.2 2.05 1.6 -0.5 M2.6 3.15 L3.1 4.0 2.8 4.35 2.6 3.15 M4.4 6.5 L4.65 4.2 6.25 2.8 4.8 6.35 4.7 6.55 4.4 6.5 M-8.6 1.55 L-8.95 1.5 -8.65 0.35 -8.6 1.55 M-5.75 -8.35 L-5.35 -11.45 -5.1 -10.05 -5.75 -8.35 M-0.7 -10.3 L-0.8 -9.55 -1.0 -9.25 -1.2 -9.55 -1.3 -10.3 -1.2 -11.05 -1.0 -11.35 -0.8 -11.05 -0.7 -10.3" fill="#4e7d26" fill-rule="evenodd" stroke="none"/>
    <path d="M27.9 0.55 L28.45 0.55 28.45 1.15 27.9 1.15 27.9 0.55 M23.0 1.2 L23.6 1.2 23.6 1.75 23.0 1.75 23.0 1.2 M15.9 6.5 L16.05 6.25 Q16.15 6.1 16.3 6.1 16.45 6.1 16.6 6.25 L16.7 6.5 16.6 6.8 16.3 6.9 16.05 6.8 15.9 6.5 M15.45 11.3 L15.2 11.2 15.05 10.95 Q15.05 10.8 15.2 10.7 15.3 10.6 15.45 10.6 L15.75 10.7 15.85 10.95 15.75 11.2 15.45 11.3 M9.3 6.25 L9.45 6.0 9.75 5.9 10.1 6.0 10.2 6.25 10.1 6.5 9.75 6.6 9.45 6.5 9.3 6.25 M2.75 10.7 L3.3 10.7 3.3 11.3 2.75 11.3 2.75 10.7 M28.4 4.15 Q27.9 4.45 28.4 4.0 L28.4 4.15 M-22.35 3.85 L-21.8 3.85 -21.8 4.4 -22.35 4.4 -22.35 3.85 M-27.25 4.0 L-27.25 4.6 -27.8 4.6 -27.8 4.0 -27.25 4.0 M-6.15 11.85 L-6.2 11.85 Q-5.7 11.1 -6.15 11.85 M-7.1 7.9 L-7.65 7.9 -7.65 7.3 -7.1 7.3 -7.1 7.9 M-2.35 14.9 L-2.1 14.75 Q-1.95 14.75 -1.8 14.9 L-1.7 15.15 -1.8 15.45 -2.1 15.55 -2.35 15.45 -2.5 15.15 -2.35 14.9 M-14.8 6.55 L-15.05 6.45 -15.2 6.15 -15.05 5.9 -14.8 5.75 Q-14.65 5.75 -14.5 5.9 L-14.4 6.15 -14.5 6.45 -14.8 6.55 M-19.7 8.25 L-19.7 8.05 Q-18.65 8.4 -19.7 8.25 M-25.05 7.05 L-24.85 6.9 -24.65 7.05 -24.55 7.3 -24.65 7.6 -24.85 7.7 -25.05 7.6 -25.15 7.3 -25.05 7.05 M-15.3 11.9 L-15.55 11.8 -15.7 11.55 -15.55 11.3 -15.3 11.2 -15.0 11.3 -14.9 11.55 -15.0 11.8 -15.3 11.9" fill="#334f17" fill-rule="evenodd" stroke="none"/>
    <path d="M1.05 7.7 L0.75 7.7 0.75 7.6 1.05 7.7 M-15.75 1.35 L-15.2 1.35 -15.2 2.0 -15.75 2.0 -15.75 1.35" fill="#333333" fill-rule="evenodd" stroke="none"/>
  </g>
</svg>
