<?xml version="1.0" encoding="UTF-8" standalone="no"?>
<svg xmlns:ffdec="https://www.free-decompiler.com/flash" xmlns:xlink="http://www.w3.org/1999/xlink" ffdec:objectType="shape" height="70.35px" width="54.4px" xmlns="http://www.w3.org/2000/svg">
  <g transform="matrix(1.0, 0.0, 0.0, 1.0, 27.2, 35.2)">
    <path d="M10.8 -25.6 L13.6 -29.05 15.85 -21.6 Q13.75 -21.6 12.3 -22.75 10.8 -23.95 10.8 -25.6 M21.05 -17.15 L21.4 -15.4 21.3 -15.2 21.45 -15.4 23.1 -15.65 14.5 -9.25 13.0 -10.85 15.9 -15.85 21.05 -17.15 M-27.15 -10.25 L-27.2 -10.35 -24.8 -11.05 -22.3 -9.85 Q-23.1 -6.4 -26.1 -9.0 L-27.15 -10.25 M-24.15 -15.1 Q-24.2 -16.2 -23.1 -16.35 L-22.3 -15.5 Q-21.0 -12.95 -18.85 -14.05 L-16.05 -10.7 -11.8 -5.5 -19.05 -8.05 -24.15 -15.1 M-14.45 -22.5 L-13.6 -22.95 Q-6.95 -16.25 -13.15 -18.2 L-14.45 -22.5 M-8.7 -32.15 L-8.3 -32.9 -6.4 -33.1 -5.8 -32.75 -3.9 -33.6 -3.4 -33.3 Q-2.25 -32.05 -3.35 -31.15 -5.4 -28.2 -0.75 -29.2 L-0.8 -29.3 2.45 -31.75 2.65 -31.6 Q2.4 -26.95 4.45 -29.8 L9.85 -32.55 5.05 -24.55 1.4 -27.15 6.45 -21.2 5.25 -18.0 0.65 -16.95 0.85 -20.2 -2.2 -20.5 -6.85 -25.75 -0.55 -24.6 -8.7 -32.15 M-1.1 -8.1 Q-4.7 -10.6 0.75 -10.7 L0.75 -10.75 4.5 -11.15 8.5 -10.6 Q9.7 -10.6 10.55 -9.7 11.4 -8.85 11.4 -7.6 L1.9 -7.85 -1.1 -8.1 M-3.45 -12.55 L-15.4 -10.8 -13.8 -13.95 -3.45 -12.55 M9.25 -14.4 Q9.65 -14.75 10.4 -14.8 11.95 -14.4 11.55 -12.85 11.35 -12.15 10.75 -11.7 9.65 -11.0 9.0 -11.85 L9.25 -14.4 M16.55 -14.6 L16.7 -14.6 16.55 -14.65 16.5 -14.65 16.55 -14.6 M16.85 -9.9 Q17.4 -10.3 18.2 -10.3 L19.6 -9.9 Q20.15 -9.5 20.15 -8.95 20.15 -8.4 19.6 -8.0 19.0 -7.6 18.2 -7.6 17.4 -7.6 16.85 -8.0 16.25 -8.4 16.25 -8.95 16.25 -9.5 16.85 -9.9 M8.95 -17.2 L8.95 -19.95 14.45 -19.95 14.45 -17.2 8.95 -17.2" fill="#bde19d" fill-rule="evenodd" stroke="none"/>
    <path d="M10.8 -25.6 Q10.8 -23.95 12.3 -22.75 13.75 -21.6 15.85 -21.6 L20.65 -22.9 21.05 -17.15 15.9 -15.85 13.0 -10.85 14.5 -9.25 23.1 -15.65 23.15 -3.2 18.6 -7.3 17.75 -7.4 14.3 -6.7 11.4 -7.6 Q11.4 -8.85 10.55 -9.7 9.7 -10.6 8.5 -10.6 L9.0 -11.85 Q9.65 -11.0 10.75 -11.7 11.35 -12.15 11.55 -12.85 11.95 -14.4 10.4 -14.8 9.65 -14.75 9.25 -14.4 7.4 -18.9 5.3 -12.0 5.15 -11.5 4.5 -11.15 L0.75 -10.75 -3.45 -12.55 -13.8 -13.95 -15.4 -10.8 -16.05 -10.7 -18.85 -14.05 Q-21.0 -12.95 -22.3 -15.5 L-23.1 -16.35 Q-19.5 -16.35 -16.95 -18.15 -14.45 -19.95 -14.45 -22.5 L-13.15 -18.2 Q-6.95 -16.25 -13.6 -22.95 L-9.4 -29.05 -8.2 -27.2 -8.7 -32.15 -0.55 -24.6 -6.85 -25.75 -2.2 -20.5 0.85 -20.2 0.65 -16.95 Q2.05 -12.85 5.0 -17.3 L5.25 -18.0 6.45 -21.2 1.4 -27.15 5.05 -24.55 9.85 -32.55 11.4 -30.55 11.25 -30.35 Q7.65 -28.9 10.8 -25.6 M21.4 -15.4 L21.45 -15.4 21.3 -15.2 21.4 -15.4 M-27.2 -10.35 Q-27.2 -12.3 -26.2 -13.7 -25.35 -14.9 -24.15 -15.1 L-19.05 -8.05 -11.8 -5.5 Q-8.2 -1.65 -5.4 -4.45 -5.15 -4.65 -5.0 -5.0 L-1.9 2.1 -10.3 2.05 -11.0 2.95 Q-13.4 5.45 -13.75 1.65 L-8.75 -0.9 -17.55 -3.35 Q-22.35 -4.55 -22.3 -9.85 L-24.8 -11.05 -27.2 -10.35 M-8.3 -32.9 L-8.1 -34.35 Q-7.85 -35.1 -7.45 -35.2 -7.05 -35.3 -6.75 -34.7 -6.45 -34.15 -6.4 -33.1 L-8.3 -32.9 M-5.8 -32.75 L-5.6 -33.35 Q-5.0 -34.85 -3.9 -33.6 L-5.8 -32.75 M-3.35 -31.15 L-0.8 -29.3 -0.75 -29.2 Q-5.4 -28.2 -3.35 -31.15 M2.45 -31.75 Q4.2 -35.85 4.45 -30.35 L4.45 -29.8 Q2.4 -26.95 2.65 -31.6 L2.45 -31.75 M-1.05 -6.7 L-1.1 -8.1 1.9 -7.85 2.1 -4.2 6.9 -3.3 -1.1 -3.45 -1.05 -6.7 M16.55 -14.65 L16.7 -14.6 16.55 -14.6 16.55 -14.65 M16.85 -9.9 Q16.25 -9.5 16.25 -8.95 16.25 -8.4 16.85 -8.0 17.4 -7.6 18.2 -7.6 19.0 -7.6 19.6 -8.0 20.15 -8.4 20.15 -8.95 20.15 -9.5 19.6 -9.9 L18.2 -10.3 Q17.4 -10.3 16.85 -9.9 M8.95 -17.2 L14.45 -17.2 14.45 -19.95 8.95 -19.95 8.95 -17.2 M13.5 -5.8 L13.05 -4.55 8.9 -2.75 13.5 -5.8 M-3.25 -18.5 Q-4.4 -18.5 -5.2 -17.85 -6.05 -17.25 -6.05 -16.4 -6.05 -15.55 -5.2 -14.9 -4.4 -14.3 -3.25 -14.3 -2.1 -14.3 -1.25 -14.9 -0.45 -15.55 -0.45 -16.4 -0.45 -17.25 -1.25 -17.85 -2.1 -18.5 -3.25 -18.5" fill="#6bc038" fill-rule="evenodd" stroke="none"/>
    <path d="M23.15 -3.2 L27.1 -1.05 20.25 0.85 13.5 1.95 18.6 -7.3 23.15 -3.2 M21.25 10.2 L20.2 11.55 Q18.15 10.85 17.95 8.6 17.9 8.3 19.0 7.85 L19.1 7.85 21.25 10.2 M-25.65 10.95 L-25.85 2.1 -24.65 0.25 -27.15 -10.25 -26.1 -9.0 Q-23.1 -6.4 -22.3 -9.85 -22.35 -4.55 -17.55 -3.35 L-8.75 -0.9 -13.75 1.65 -19.2 3.2 -11.0 8.05 -11.0 13.35 -15.5 9.45 -25.65 10.95 M5.25 -18.0 L5.0 -17.3 Q2.05 -12.85 0.65 -16.95 L5.25 -18.0 M0.75 -10.75 L0.75 -10.7 Q-4.7 -10.6 -1.1 -8.1 L-1.05 -6.7 -2.9 -4.8 -5.0 -5.0 Q-5.15 -4.65 -5.4 -4.45 -8.2 -1.65 -11.8 -5.5 L-16.05 -10.7 -15.4 -10.8 -3.45 -12.55 0.75 -10.75 M8.5 -10.6 L4.5 -11.15 Q5.15 -11.5 5.3 -12.0 7.4 -18.9 9.25 -14.4 L9.0 -11.85 8.5 -10.6 M6.4 8.3 L6.35 8.1 6.1 8.25 -3.45 8.95 -3.7 12.65 -6.2 7.95 2.3 4.9 6.55 7.35 9.7 7.55 11.15 11.75 6.4 8.3 M-3.25 -18.5 Q-2.1 -18.5 -1.25 -17.85 -0.45 -17.25 -0.45 -16.4 -0.45 -15.55 -1.25 -14.9 -2.1 -14.3 -3.25 -14.3 -4.4 -14.3 -5.2 -14.9 -6.05 -15.55 -6.05 -16.4 -6.05 -17.25 -5.2 -17.85 -4.4 -18.5 -3.25 -18.5 M-8.25 -6.35 L-8.25 -6.4 -8.3 -6.4 -8.25 -6.35" fill="#538628" fill-rule="evenodd" stroke="none"/>
    <path d="M20.25 0.85 L27.2 6.05 21.25 10.2 19.1 7.85 19.0 7.8 19.0 7.85 Q17.9 8.3 17.95 8.6 18.15 10.85 20.2 11.55 L19.65 13.7 13.1 14.85 16.6 17.25 10.6 17.7 8.45 16.25 0.2 19.7 2.65 11.6 -2.65 13.05 -2.75 17.9 -3.0 19.0 -22.1 14.35 -25.4 15.9 -25.65 10.95 -15.5 9.45 -11.0 13.35 -11.0 8.05 -19.2 3.2 -13.75 1.65 Q-13.4 5.45 -11.0 2.95 L-10.3 2.05 -1.9 2.1 Q3.1 1.5 -1.1 -1.25 L-1.1 -0.6 -2.9 -4.8 -1.05 -6.7 -1.1 -3.45 6.9 -3.3 2.1 -4.2 1.9 -7.85 11.4 -7.6 14.3 -6.7 13.5 -5.8 8.9 -2.75 13.05 -4.55 17.75 -7.4 18.6 -7.3 13.5 1.95 20.25 0.85 M6.1 8.25 L6.4 8.3 11.15 11.75 9.7 7.55 9.6 1.35 6.55 7.35 2.3 4.9 -6.2 7.95 -3.7 12.65 -3.45 8.95 6.1 8.25 M17.05 16.55 Q17.45 16.25 18.0 16.25 L18.95 16.55 Q19.35 16.85 19.35 17.3 19.35 17.75 18.95 18.05 L18.0 18.35 17.05 18.05 Q16.65 17.75 16.65 17.3 16.65 16.85 17.05 16.55 M-8.25 -6.35 L-8.3 -6.4 -8.25 -6.4 -8.25 -6.35" fill="#37531a" fill-rule="evenodd" stroke="none"/>
    <path d="M3.15 33.3 L3.2 33.7 Q2.75 34.65 1.9 33.8 L0.75 31.75 3.15 33.3 M-0.3 35.05 L-4.5 35.15 -3.0 19.0 -2.75 17.9 -0.3 35.05 M-5.0 -5.0 L-2.9 -4.8 -1.1 -0.6 -1.1 -1.25 Q3.1 1.5 -1.9 2.1 L-5.0 -5.0 M13.5 -5.8 L14.3 -6.7 17.75 -7.4 13.05 -4.55 13.5 -5.8 M6.1 8.25 L6.35 8.1 6.4 8.3 6.1 8.25 M9.7 7.55 L6.55 7.35 9.6 1.35 9.7 7.55" fill="#818058" fill-rule="evenodd" stroke="none"/>
    <path d="M2.9 26.15 L2.9 26.1 2.95 26.1 2.9 26.15" fill="#6db035" fill-rule="evenodd" stroke="none"/>
    <path d="M0.2 19.7 L0.4 26.55 3.15 33.3 0.75 31.75 1.9 33.8 -0.3 35.05 -2.75 17.9 -2.65 13.05 2.65 11.6 0.2 19.7" fill="#999966" fill-rule="evenodd" stroke="none"/>
  </g>
</svg>
