<?xml version="1.0" encoding="UTF-8" standalone="no"?>
<svg xmlns:ffdec="https://www.free-decompiler.com/flash" xmlns:xlink="http://www.w3.org/1999/xlink" ffdec:objectType="shape" height="36.05px" width="61.9px" xmlns="http://www.w3.org/2000/svg">
  <g transform="matrix(1.0, 0.0, 0.0, 1.0, 30.95, 18.05)">
    <path d="M12.9 -14.85 L14.35 -13.8 8.05 -10.4 12.9 -14.85 M29.9 -7.4 Q32.0 -5.4 29.95 -3.65 L29.4 -3.3 -1.6 7.05 -7.25 4.35 -30.65 -3.75 -30.95 -6.95 -29.75 -5.0 -25.0 -6.0 -22.05 -3.6 -16.45 -3.65 -13.7 0.0 -9.85 -1.55 -7.3 2.25 3.2 3.3 10.1 -0.65 11.95 0.95 16.65 -2.45 20.65 -2.7 14.6 -3.95 21.55 -7.3 24.35 -5.25 29.9 -7.4 M18.5 -9.9 L18.25 -10.45 18.5 -10.95 19.0 -11.2 19.55 -10.95 19.75 -10.45 19.55 -9.9 19.0 -9.7 18.5 -9.9 M6.85 -1.35 L6.6 -0.75 5.95 -0.55 Q5.6 -0.55 5.35 -0.75 5.05 -1.0 5.05 -1.35 5.05 -1.7 5.35 -1.9 5.6 -2.15 5.95 -2.15 L6.6 -1.9 6.85 -1.35 M4.2 -11.2 L-10.8 -11.6 -7.65 -14.9 -5.9 -13.2 6.05 -14.05 6.35 -8.6 4.2 -11.2 M-18.9 -8.7 L-10.4 -10.15 -6.95 -3.1 -10.3 -7.1 -17.1 -6.85 -18.9 -8.7 M-3.45 -4.6 L5.95 -4.8 -0.9 -1.65 -3.45 -4.6" fill="#cccccc" fill-rule="evenodd" stroke="none"/>
    <path d="M14.35 -13.8 L29.9 -7.4 24.35 -5.25 21.55 -7.3 14.6 -3.95 20.65 -2.7 16.65 -2.45 11.95 0.95 10.1 -0.65 3.2 3.3 -7.3 2.25 -9.85 -1.55 -13.7 0.0 -16.45 -3.65 -22.05 -3.6 -25.0 -6.0 -29.75 -5.0 -30.95 -6.95 Q-24.85 -10.15 -18.3 -12.85 L-7.4 -17.15 -4.7 -18.0 Q2.25 -18.4 8.9 -16.3 L12.9 -14.85 8.05 -10.4 14.35 -13.8 M4.2 -11.2 L6.35 -8.6 6.05 -14.05 -5.9 -13.2 -7.65 -14.9 -10.8 -11.6 4.2 -11.2 M6.85 -1.35 L6.6 -1.9 5.95 -2.15 Q5.6 -2.15 5.35 -1.9 5.05 -1.7 5.05 -1.35 5.05 -1.0 5.35 -0.75 5.6 -0.55 5.95 -0.55 L6.6 -0.75 6.85 -1.35 M18.5 -9.9 L19.0 -9.7 19.55 -9.9 19.75 -10.45 19.55 -10.95 19.0 -11.2 18.5 -10.95 18.25 -10.45 18.5 -9.9 M-3.45 -4.6 L-0.9 -1.65 5.95 -4.8 -3.45 -4.6 M-18.9 -8.7 L-17.1 -6.85 -10.3 -7.1 -6.95 -3.1 -10.4 -10.15 -18.9 -8.7" fill="#ffffff" fill-rule="evenodd" stroke="none"/>
    <path d="M29.4 -3.3 L29.4 7.65 -0.6 18.0 -30.6 7.65 -30.65 -3.75 -7.25 4.35 -1.6 7.05 29.4 -3.3 M-20.9 2.6 L-21.35 2.8 -21.55 3.25 -21.35 3.7 -20.9 3.9 -20.45 3.7 -20.25 3.25 -20.45 2.8 -20.9 2.6 M-26.55 -0.25 Q-26.4 -0.05 -26.15 -0.05 L-25.7 -0.25 -25.55 -0.7 -25.7 -1.15 -26.15 -1.35 -26.55 -1.15 -26.75 -0.7 -26.55 -0.25 M3.65 13.65 L3.7 13.8 3.85 14.1 Q4.0 14.3 4.25 14.3 L4.7 14.1 4.85 13.65 4.85 13.45 Q4.15 12.5 3.65 13.65 M5.8 8.85 Q5.6 8.6 5.3 8.6 5.0 8.6 4.8 8.85 L4.6 9.35 4.8 9.9 5.3 10.1 Q5.6 10.1 5.8 9.9 L6.0 9.35 5.8 8.85 M13.45 9.95 L13.3 9.5 12.85 9.3 12.45 9.5 12.25 9.95 12.45 10.4 Q12.6 10.6 12.85 10.6 L13.3 10.4 13.45 9.95 M16.9 7.15 L16.7 6.7 Q16.5 6.5 16.25 6.5 L15.8 6.7 15.6 7.15 15.8 7.6 16.25 7.8 Q16.5 7.8 16.7 7.6 L16.9 7.15 M25.8 6.2 L25.8 6.25 26.55 5.95 26.5 5.85 Q26.2 4.3 25.6 5.7 L25.8 6.2 M22.85 1.7 L22.6 2.2 22.85 2.7 Q23.05 2.9 23.35 2.9 L23.9 2.7 24.1 2.2 23.9 1.7 23.35 1.5 22.85 1.7 M-2.0 13.9 L-1.85 13.45 -2.0 13.0 Q-2.2 12.8 -2.45 12.8 L-2.85 13.0 -3.05 13.45 -2.85 13.9 Q-2.7 14.1 -2.45 14.1 -2.2 14.1 -2.0 13.9 M-7.95 10.5 L-8.4 10.7 -8.6 11.15 -8.4 11.6 -7.95 11.8 Q-7.7 11.8 -7.5 11.6 L-7.3 11.15 -7.5 10.7 -7.95 10.5 M-7.15 6.25 L-7.35 5.8 -7.8 5.6 -8.25 5.8 -8.45 6.25 -8.25 6.7 -7.8 6.9 -7.35 6.7 -7.15 6.25 M-26.85 5.5 L-26.65 4.95 -26.85 4.45 Q-27.05 4.2 -27.3 4.2 -27.55 4.2 -27.75 4.45 L-27.95 4.95 -27.75 5.5 -27.3 5.7 -26.85 5.5 M-17.05 10.65 L-17.05 9.95 Q-17.15 9.55 -17.35 9.45 -17.55 9.3 -17.7 9.55 L-17.9 10.45 -17.8 10.55 -17.4 10.7 -17.05 10.65 M-15.25 6.25 Q-15.45 6.05 -15.7 6.05 L-16.15 6.25 -16.35 6.7 -16.15 7.15 -15.7 7.35 Q-15.45 7.35 -15.25 7.15 L-15.05 6.7 -15.25 6.25" fill="#6a6239" fill-rule="evenodd" stroke="none"/>
    <path d="M22.85 1.7 L23.35 1.5 23.9 1.7 24.1 2.2 23.9 2.7 23.35 2.9 Q23.05 2.9 22.85 2.7 L22.6 2.2 22.85 1.7 M25.8 6.2 L25.6 5.7 Q26.2 4.3 26.5 5.85 L26.55 5.95 25.8 6.25 25.8 6.2 M16.9 7.15 L16.7 7.6 Q16.5 7.8 16.25 7.8 L15.8 7.6 15.6 7.15 15.8 6.7 16.25 6.5 Q16.5 6.5 16.7 6.7 L16.9 7.15 M13.45 9.95 L13.3 10.4 12.85 10.6 Q12.6 10.6 12.45 10.4 L12.25 9.95 12.45 9.5 12.85 9.3 13.3 9.5 13.45 9.95 M5.8 8.85 L6.0 9.35 5.8 9.9 Q5.6 10.1 5.3 10.1 L4.8 9.9 4.6 9.35 4.8 8.85 Q5.0 8.6 5.3 8.6 5.6 8.6 5.8 8.85 M3.65 13.65 Q4.15 12.5 4.85 13.45 L4.85 13.65 4.7 14.1 4.25 14.3 Q4.0 14.3 3.85 14.1 L3.7 13.8 3.65 13.65 M-26.55 -0.25 L-26.75 -0.7 -26.55 -1.15 -26.15 -1.35 -25.7 -1.15 -25.55 -0.7 -25.7 -0.25 -26.15 -0.05 Q-26.4 -0.05 -26.55 -0.25 M-20.9 2.6 L-20.45 2.8 -20.25 3.25 -20.45 3.7 -20.9 3.9 -21.35 3.7 -21.55 3.25 -21.35 2.8 -20.9 2.6 M-7.15 6.25 L-7.35 6.7 -7.8 6.9 -8.25 6.7 -8.45 6.25 -8.25 5.8 -7.8 5.6 -7.35 5.8 -7.15 6.25 M-7.95 10.5 L-7.5 10.7 -7.3 11.15 -7.5 11.6 Q-7.7 11.8 -7.95 11.8 L-8.4 11.6 -8.6 11.15 -8.4 10.7 -7.95 10.5 M-2.0 13.9 Q-2.2 14.1 -2.45 14.1 -2.7 14.1 -2.85 13.9 L-3.05 13.45 -2.85 13.0 -2.45 12.8 Q-2.2 12.8 -2.0 13.0 L-1.85 13.45 -2.0 13.9 M-15.25 6.25 L-15.05 6.7 -15.25 7.15 Q-15.45 7.35 -15.7 7.35 L-16.15 7.15 -16.35 6.7 -16.15 6.25 -15.7 6.05 Q-15.45 6.05 -15.25 6.25 M-17.05 10.65 L-17.4 10.7 -17.8 10.55 -17.9 10.45 -17.7 9.55 Q-17.55 9.3 -17.35 9.45 -17.15 9.55 -17.05 9.95 L-17.05 10.65 M-26.85 5.5 L-27.3 5.7 -27.75 5.5 -27.95 4.95 -27.75 4.45 Q-27.55 4.2 -27.3 4.2 -27.05 4.2 -26.85 4.45 L-26.65 4.95 -26.85 5.5" fill="#37311e" fill-rule="evenodd" stroke="none"/>
  </g>
</svg>
