<?xml version="1.0" encoding="UTF-8" standalone="no"?>
<svg xmlns:ffdec="https://www.free-decompiler.com/flash" xmlns:xlink="http://www.w3.org/1999/xlink" ffdec:objectType="shape" height="32.35px" width="60.0px" xmlns="http://www.w3.org/2000/svg">
  <g transform="matrix(1.0, 0.0, 0.0, 1.0, 30.0, 16.2)">
    <path d="M6.4 -11.3 L1.5 -11.8 -2.4 -8.8 -0.75 -7.35 3.6 -11.15 6.4 -11.3 M5.15 -14.7 L4.35 -12.05 10.65 -12.65 17.9 -10.0 17.7 -9.9 9.4 -9.95 6.3 -8.15 13.45 -8.1 18.85 -8.25 23.95 -7.75 24.7 -7.45 24.5 -7.25 Q25.05 -4.85 26.25 -6.9 L29.85 -5.6 29.95 -5.55 26.4 -4.25 21.65 -5.15 Q21.1 -5.6 20.6 -4.95 18.9 -2.8 21.7 -2.95 L20.5 -2.65 Q20.25 -2.5 20.4 -2.0 L1.35 5.0 -5.15 3.6 -7.6 2.0 -7.65 2.05 -7.6 2.15 -7.05 2.9 -12.35 0.95 -15.3 -0.4 -1.95 -0.75 -18.55 -1.35 -27.05 -4.45 Q-26.75 -4.5 -26.55 -4.65 -24.45 -5.95 -27.9 -6.3 L-14.85 -11.1 -9.15 -11.85 -12.05 -12.15 -5.25 -14.65 -5.25 -14.35 Q-2.5 -13.05 -3.35 -15.35 L-1.95 -15.85 Q-2.1 -14.45 -0.6 -14.95 1.45 -15.5 -0.45 -16.05 L5.15 -14.7 M8.6 -8.7 L8.7 -8.8 8.75 -8.7 8.6 -8.7 M3.1 -8.05 L2.75 -7.8 Q2.75 -7.65 3.1 -7.55 L3.85 -7.45 4.65 -7.55 4.95 -7.8 4.65 -8.05 3.85 -8.15 3.1 -8.05 M1.7 -7.65 L1.25 -7.85 Q0.0 -7.4 0.95 -6.4 L1.5 -6.35 Q2.3 -6.9 1.7 -7.65 M3.6 -2.65 Q4.3 -2.45 3.95 -1.85 3.8 -1.55 3.55 -1.65 3.0 -1.8 3.15 -2.3 L3.6 -2.65 M7.1 -0.75 Q6.05 -0.45 6.6 0.45 7.25 1.4 8.0 0.7 L8.15 0.1 Q7.85 -0.65 7.1 -0.75 M11.9 -5.95 Q10.75 -5.6 11.55 -4.75 11.8 -4.45 12.15 -4.65 13.0 -5.25 12.15 -5.85 L11.9 -5.95 M13.15 -5.35 Q12.0 -5.0 12.8 -4.15 13.05 -3.85 13.4 -4.05 14.25 -4.65 13.4 -5.25 L13.15 -5.35 M15.05 -1.15 L15.65 -1.05 16.3 -1.15 16.55 -1.45 16.3 -1.7 15.65 -1.85 15.05 -1.7 14.75 -1.45 15.05 -1.15 M18.05 -4.4 Q17.0 -4.55 16.35 -3.9 L16.2 -3.55 Q16.3 -2.95 16.9 -2.85 17.85 -2.65 18.5 -3.25 19.0 -3.7 18.55 -4.2 L18.05 -4.4 M5.0 -1.6 L10.8 -0.95 3.4 -2.9 -0.25 0.1 Q-3.75 1.75 0.5 3.15 L1.45 3.25 5.0 -1.6 M-29.95 -5.55 L-28.65 -6.0 -28.35 -4.95 -29.95 -5.55 M-21.4 -5.25 L-22.4 -5.05 Q-22.8 -4.75 -22.4 -4.1 -22.2 -3.8 -21.85 -3.9 -20.85 -4.05 -21.15 -4.95 L-21.4 -5.25 M-3.4 -12.65 L-3.45 -12.7 -3.55 -12.7 -4.0 -12.35 -4.0 -12.3 Q-3.7 -11.75 -3.2 -12.2 L-3.25 -12.55 -3.4 -12.65 M-0.9 -12.75 L-1.05 -12.75 Q-2.3 -12.55 -1.8 -11.55 L-1.45 -11.3 Q-0.3 -11.2 -0.45 -12.2 -0.5 -12.65 -0.9 -12.75 M-11.2 -11.15 L-11.55 -10.8 -11.55 -10.75 Q-10.95 -10.15 -9.95 -10.25 L-8.65 -10.15 Q-8.15 -10.05 -7.8 -10.35 -7.8 -11.05 -8.65 -11.0 L-10.25 -11.05 -11.2 -11.15 M-18.2 -5.4 L-18.3 -5.55 -18.45 -5.9 -18.45 -5.95 -18.9 -6.1 Q-20.1 -6.1 -20.1 -5.1 L-19.75 -4.65 Q-18.6 -4.3 -18.25 -5.3 L-18.2 -5.4 M-14.25 -5.9 L-14.25 -5.85 -14.35 -5.45 Q-14.75 -5.05 -15.15 -5.1 -15.25 -3.6 -13.55 -4.35 -11.0 -5.45 -14.15 -5.95 L-14.25 -5.9 M-13.65 -3.55 Q-14.0 -2.65 -13.05 -2.55 L-12.55 -2.55 Q-10.55 -2.7 -8.75 -3.45 -8.5 -3.6 -8.5 -3.9 -8.55 -4.55 -9.2 -4.65 L-13.4 -3.75 Q-13.6 -3.75 -13.65 -3.55 M-8.9 -4.9 L-1.85 -7.0 -12.65 -9.5 -5.55 -6.85 -8.9 -4.9 M-9.75 -7.85 Q-10.9 -7.5 -10.1 -6.65 L-9.5 -6.55 Q-8.65 -7.15 -9.5 -7.75 L-9.75 -7.85 M-0.3 2.25 Q-0.85 2.3 -0.8 1.75 L-0.55 1.35 -0.35 1.3 Q0.3 1.45 0.05 2.05 L-0.3 2.25" fill="#b5ab75" fill-rule="evenodd" stroke="none"/>
    <path d="M6.4 -11.3 L3.6 -11.15 -0.75 -7.35 -2.4 -8.8 1.5 -11.8 6.4 -11.3 M-12.05 -12.15 L-9.15 -11.85 -14.85 -11.1 -12.05 -12.15 M-18.55 -1.35 L-1.95 -0.75 -15.3 -0.4 -12.35 0.95 -18.55 -1.35 M-7.05 2.9 L-7.6 2.15 -7.6 2.0 -5.15 3.6 -7.05 2.9 M20.4 -2.0 Q20.25 -2.5 20.5 -2.65 L21.7 -2.95 22.35 -2.9 20.4 -2.0 M21.65 -5.15 L26.4 -4.25 22.8 -3.25 21.65 -5.15 M18.85 -8.25 L13.45 -8.1 8.75 -8.7 8.7 -8.8 8.6 -8.7 6.3 -8.15 9.4 -9.95 17.7 -9.9 14.25 -9.6 18.85 -8.25 M3.1 -8.05 L3.85 -8.15 4.65 -8.05 4.95 -7.8 4.65 -7.55 3.85 -7.45 3.1 -7.55 Q2.75 -7.65 2.75 -7.8 L3.1 -8.05 M3.6 -2.65 L3.15 -2.3 Q3.0 -1.8 3.55 -1.65 3.8 -1.55 3.95 -1.85 4.3 -2.45 3.6 -2.65 M15.05 -1.15 L14.75 -1.45 15.05 -1.7 15.65 -1.85 16.3 -1.7 16.55 -1.45 16.3 -1.15 15.65 -1.05 15.05 -1.15 M-0.25 0.1 L3.4 -2.9 10.8 -0.95 5.0 -1.6 -0.25 0.1 M-3.4 -12.65 L-3.25 -12.55 -3.2 -12.2 Q-3.7 -11.75 -4.0 -12.3 L-4.0 -12.35 -3.55 -12.7 -3.45 -12.7 -3.4 -12.65 M-11.2 -11.15 L-10.25 -11.05 -8.65 -11.0 Q-7.8 -11.05 -7.8 -10.35 -8.15 -10.05 -8.65 -10.15 L-9.95 -10.25 Q-10.95 -10.15 -11.55 -10.75 L-11.55 -10.8 -11.2 -11.15" fill="#91814f" fill-rule="evenodd" stroke="none"/>
    <path d="M10.65 -12.65 L4.35 -12.05 5.15 -14.7 10.65 -12.65 M-0.45 -16.05 Q1.45 -15.5 -0.6 -14.95 -2.1 -14.45 -1.95 -15.85 L-1.05 -16.2 -0.45 -16.05 M-3.35 -15.35 Q-2.5 -13.05 -5.25 -14.35 L-5.25 -14.65 -3.35 -15.35 M-27.9 -6.3 Q-24.45 -5.95 -26.55 -4.65 -26.75 -4.5 -27.05 -4.45 L-28.35 -4.95 -28.65 -6.0 -27.9 -6.3 M21.7 -2.95 Q18.9 -2.8 20.6 -4.95 21.1 -5.6 21.65 -5.15 L22.8 -3.25 22.35 -2.9 21.7 -2.95 M26.25 -6.9 Q25.05 -4.85 24.5 -7.25 L24.7 -7.45 26.25 -6.9 M23.95 -7.75 L18.85 -8.25 14.25 -9.6 17.7 -9.9 17.9 -10.0 23.95 -7.75 M13.45 -8.1 L6.3 -8.15 8.6 -8.7 8.75 -8.7 13.45 -8.1 M1.7 -7.65 Q2.3 -6.9 1.5 -6.35 L0.95 -6.4 Q0.0 -7.4 1.25 -7.85 L1.7 -7.65 M13.15 -5.35 L13.4 -5.25 Q14.25 -4.65 13.4 -4.05 13.05 -3.85 12.8 -4.15 12.0 -5.0 13.15 -5.35 M11.9 -5.95 L12.15 -5.85 Q13.0 -5.25 12.15 -4.65 11.8 -4.45 11.55 -4.75 10.75 -5.6 11.9 -5.95 M7.1 -0.75 Q7.85 -0.65 8.15 0.1 L8.0 0.7 Q7.25 1.4 6.6 0.45 6.05 -0.45 7.1 -0.75 M18.05 -4.4 L18.55 -4.2 Q19.0 -3.7 18.5 -3.25 17.85 -2.65 16.9 -2.85 16.3 -2.95 16.2 -3.55 L16.35 -3.9 Q17.0 -4.55 18.05 -4.4 M5.0 -1.6 L1.45 3.25 0.5 3.15 Q-3.75 1.75 -0.25 0.1 L5.0 -1.6 M-21.4 -5.25 L-21.15 -4.95 Q-20.85 -4.05 -21.85 -3.9 -22.2 -3.8 -22.4 -4.1 -22.8 -4.75 -22.4 -5.05 L-21.4 -5.25 M-0.9 -12.75 Q-0.5 -12.65 -0.45 -12.2 -0.3 -11.2 -1.45 -11.3 L-1.8 -11.55 Q-2.3 -12.55 -1.05 -12.75 L-0.9 -12.75 M-14.25 -5.9 L-14.15 -5.95 Q-11.0 -5.45 -13.55 -4.35 -15.25 -3.6 -15.15 -5.1 -14.75 -5.05 -14.35 -5.45 L-14.25 -5.85 -14.25 -5.9 M-18.2 -5.4 L-18.25 -5.3 Q-18.6 -4.3 -19.75 -4.65 L-20.1 -5.1 Q-20.1 -6.1 -18.9 -6.1 L-18.45 -5.95 -18.45 -5.9 -18.3 -5.55 -18.2 -5.4 M-13.65 -3.55 Q-13.6 -3.75 -13.4 -3.75 L-9.2 -4.65 Q-8.55 -4.55 -8.5 -3.9 -8.5 -3.6 -8.75 -3.45 -10.55 -2.7 -12.55 -2.55 L-13.05 -2.55 Q-14.0 -2.65 -13.65 -3.55 M-9.75 -7.85 L-9.5 -7.75 Q-8.65 -7.15 -9.5 -6.55 L-10.1 -6.65 Q-10.9 -7.5 -9.75 -7.85 M-8.9 -4.9 L-5.55 -6.85 -12.65 -9.5 -1.85 -7.0 -8.9 -4.9 M-0.3 2.25 L0.05 2.05 Q0.3 1.45 -0.35 1.3 L-0.55 1.35 -0.8 1.75 Q-0.85 2.3 -0.3 2.25" fill="#c5b994" fill-rule="evenodd" stroke="none"/>
    <path d="M14.85 0.9 L14.85 0.8 14.95 0.65 15.35 0.5 15.35 0.55 15.5 0.65 15.55 1.0 Q15.1 1.4 14.85 0.9 M26.8 -0.45 L27.15 -0.2 27.15 0.05 27.15 0.15 26.8 0.35 26.65 0.3 Q26.2 -0.2 26.8 -0.45 M26.15 -2.8 L26.15 -2.85 26.2 -3.0 26.65 -3.2 26.7 -3.2 26.75 -3.15 26.9 -3.05 26.95 -2.7 Q26.4 -2.25 26.15 -2.8 M21.05 1.0 Q21.1 0.7 21.4 0.7 L21.5 0.7 21.55 0.7 21.7 0.85 21.7 1.2 Q21.25 1.6 21.05 1.1 L21.05 1.0 M16.15 3.8 L16.15 3.7 16.5 3.4 16.6 3.4 16.65 3.45 16.8 3.55 16.85 3.9 Q16.4 4.3 16.15 3.8 M18.15 7.25 L18.15 7.15 Q18.3 6.35 18.85 7.05 L18.65 7.4 18.5 7.45 18.15 7.25 M10.3 6.35 L10.45 6.35 10.5 6.4 10.65 6.55 10.65 6.85 Q10.1 7.3 9.85 6.75 L9.85 6.65 Q9.9 6.3 10.3 6.35 M12.3 2.15 Q11.85 2.55 11.65 2.05 L11.65 1.95 11.75 1.8 12.05 1.65 12.1 1.65 12.15 1.7 12.3 1.8 12.3 2.15 M15.0 7.2 L15.05 7.15 15.15 7.15 15.5 7.45 15.5 7.55 Q15.3 8.05 14.8 7.65 14.75 7.45 14.85 7.3 L15.0 7.2 M5.8 8.75 L5.85 8.8 6.0 8.9 6.05 9.25 Q5.6 9.65 5.35 9.15 L5.35 9.05 Q5.4 8.75 5.7 8.75 L5.8 8.75 M0.25 7.55 L0.2 7.8 Q-0.1 8.1 -0.45 7.8 L-0.45 7.75 Q-0.65 7.25 -0.15 7.15 L-0.05 7.15 0.2 7.35 0.25 7.55 M-26.0 0.05 L-25.95 0.1 -25.85 0.2 Q-25.75 0.35 -25.8 0.55 -26.25 0.95 -26.5 0.45 L-26.5 0.35 -26.15 0.05 -26.0 0.05 M-6.5 4.4 Q-6.4 4.25 -6.1 4.2 L-5.95 4.25 -5.75 4.45 Q-5.75 4.9 -6.2 5.0 L-6.35 4.95 -6.5 4.4 M-21.9 3.55 Q-21.85 3.15 -21.45 3.2 L-21.3 3.25 -21.25 3.25 -21.1 3.45 -21.1 3.7 Q-21.65 4.15 -21.9 3.6 L-21.9 3.55 M-18.5 7.45 L-18.65 7.4 -18.8 6.9 -18.2 6.95 -18.15 7.2 -18.15 7.25 -18.5 7.45 M-15.15 7.15 L-15.05 7.15 -15.0 7.2 -14.85 7.3 Q-14.75 7.45 -14.8 7.65 -15.3 8.05 -15.5 7.55 L-15.5 7.45 -15.15 7.15 M-3.9 10.85 L-3.85 10.85 -3.7 11.0 -3.65 11.3 Q-4.15 11.75 -4.35 11.2 L-4.35 11.15 -4.0 10.8 -3.9 10.85 M-6.8 7.6 Q-6.65 7.65 -6.55 7.8 L-6.5 8.0 -6.5 8.5 -7.1 8.55 -7.15 8.5 Q-7.5 7.85 -6.9 7.6 L-6.8 7.6 M-7.8 6.75 L-7.8 6.65 -7.45 6.35 -7.35 6.35 -7.3 6.4 -7.15 6.5 -7.15 6.85 Q-7.6 7.25 -7.8 6.75" fill="#2f291a" fill-rule="evenodd" stroke="none"/>
    <path d="M-27.05 -4.45 L-18.55 -1.35 -12.35 0.95 -7.05 2.9 -5.15 3.6 1.35 5.0 20.4 -2.0 22.35 -2.9 22.8 -3.25 26.4 -4.25 29.95 -5.55 29.85 -5.6 29.95 -5.65 29.95 -5.55 30.0 5.3 0.0 16.15 -30.0 5.3 -30.0 3.85 -29.95 3.8 -29.95 -5.55 -28.35 -4.95 -27.05 -4.45 M14.85 0.9 Q15.1 1.4 15.55 1.0 L15.5 0.65 15.35 0.55 15.35 0.5 14.95 0.65 14.85 0.8 14.85 0.9 M21.05 1.0 L21.05 1.1 Q21.25 1.6 21.7 1.2 L21.7 0.85 21.55 0.7 21.5 0.7 21.4 0.7 Q21.1 0.7 21.05 1.0 M26.15 -2.8 Q26.4 -2.25 26.95 -2.7 L26.9 -3.05 26.75 -3.15 26.7 -3.2 26.65 -3.2 26.2 -3.0 26.15 -2.85 26.15 -2.8 M26.8 -0.45 Q26.2 -0.2 26.65 0.3 L26.8 0.35 27.15 0.15 27.15 0.05 27.15 -0.2 26.8 -0.45 M16.15 3.8 Q16.4 4.3 16.85 3.9 L16.8 3.55 16.65 3.45 16.6 3.4 16.5 3.4 16.15 3.7 16.15 3.8 M18.15 7.25 L18.5 7.45 18.65 7.4 18.85 7.05 Q18.3 6.35 18.15 7.15 L18.15 7.25 M12.3 2.15 L12.3 1.8 12.15 1.7 12.1 1.65 12.05 1.65 11.75 1.8 11.65 1.95 11.65 2.05 Q11.85 2.55 12.3 2.15 M10.3 6.35 Q9.9 6.3 9.85 6.65 L9.85 6.75 Q10.1 7.3 10.65 6.85 L10.65 6.55 10.5 6.4 10.45 6.35 10.3 6.35 M15.0 7.2 L14.85 7.3 Q14.75 7.45 14.8 7.65 15.3 8.05 15.5 7.55 L15.5 7.45 15.15 7.15 15.05 7.15 15.0 7.2 M0.25 7.55 L0.2 7.35 -0.05 7.15 -0.15 7.15 Q-0.65 7.25 -0.45 7.75 L-0.45 7.8 Q-0.1 8.1 0.2 7.8 L0.25 7.55 M5.8 8.75 L5.7 8.75 Q5.4 8.75 5.35 9.05 L5.35 9.15 Q5.6 9.65 6.05 9.25 L6.0 8.9 5.85 8.8 5.8 8.75 M-26.0 0.05 L-26.15 0.05 -26.5 0.35 -26.5 0.45 Q-26.25 0.95 -25.8 0.55 -25.75 0.35 -25.85 0.2 L-25.95 0.1 -26.0 0.05 M-6.5 4.4 L-6.35 4.95 -6.2 5.0 Q-5.75 4.9 -5.75 4.45 L-5.95 4.25 -6.1 4.2 Q-6.4 4.25 -6.5 4.4 M-7.8 6.75 Q-7.6 7.25 -7.15 6.85 L-7.15 6.5 -7.3 6.4 -7.35 6.35 -7.45 6.35 -7.8 6.65 -7.8 6.75 M-6.8 7.6 L-6.9 7.6 Q-7.5 7.85 -7.15 8.5 L-7.1 8.55 -6.5 8.5 -6.5 8.0 -6.55 7.8 Q-6.65 7.65 -6.8 7.6 M-3.9 10.85 L-4.0 10.8 -4.35 11.15 -4.35 11.2 Q-4.15 11.75 -3.65 11.3 L-3.7 11.0 -3.85 10.85 -3.9 10.85 M-15.15 7.15 L-15.5 7.45 -15.5 7.55 Q-15.3 8.05 -14.8 7.65 -14.75 7.45 -14.85 7.3 L-15.0 7.2 -15.05 7.15 -15.15 7.15 M-18.5 7.45 L-18.15 7.25 -18.15 7.2 -18.2 6.95 -18.8 6.9 -18.65 7.4 -18.5 7.45 M-21.9 3.55 L-21.9 3.6 Q-21.65 4.15 -21.1 3.7 L-21.1 3.45 -21.25 3.25 -21.3 3.25 -21.45 3.2 Q-21.85 3.15 -21.9 3.55" fill="#6a6239" fill-rule="evenodd" stroke="none"/>
    <path d="M-7.6 2.15 L-7.65 2.05 -7.6 2.0 -7.6 2.15" fill="#6bc038" fill-rule="evenodd" stroke="none"/>
  </g>
</svg>
