<?xml version="1.0" encoding="UTF-8" standalone="no"?>
<svg xmlns:ffdec="https://www.free-decompiler.com/flash" xmlns:xlink="http://www.w3.org/1999/xlink" ffdec:objectType="shape" height="27.75px" width="60.0px" xmlns="http://www.w3.org/2000/svg">
  <g transform="matrix(1.0, 0.0, 0.0, 1.0, 30.0, 13.85)">
    <path d="M9.1 -7.15 L9.05 -7.15 9.1 -7.15 M1.6 -8.15 L-2.25 -8.05 -3.8 -5.75 -10.25 -4.3 -5.1 -7.0 -4.4 -7.25 Q-4.1 -7.55 -4.1 -7.95 L-3.05 -8.95 -4.6 -8.95 -6.75 -8.95 -12.45 -9.0 -10.35 -9.5 -9.75 -9.65 -1.05 -10.5 -0.7 -10.25 4.95 -9.45 -0.3 -8.8 9.9 -8.35 1.6 -8.15 M6.35 4.6 L5.5 4.05 7.1 4.0 6.35 4.6 M16.55 -8.2 L17.7 -7.15 15.55 -7.35 15.25 -7.65 10.7 -7.3 12.05 -7.75 15.7 -8.5 16.55 -8.2 M1.5 -2.9 L2.2 -3.3 Q0.8 -4.75 -1.3 -5.8 L0.15 -7.4 10.2 -4.7 1.5 -2.9 M12.15 -0.95 L10.55 -1.35 16.35 -1.45 18.2 0.15 12.15 -0.95 M25.75 -4.2 L25.85 -3.9 15.55 -4.85 25.75 -4.2 M0.6 3.6 L2.35 2.95 Q2.5 3.9 0.6 3.6 M4.85 0.9 L4.3 1.2 -0.7 3.9 -1.25 4.2 -2.2 4.4 -2.95 3.05 -2.85 3.05 Q-1.9 1.15 -4.25 1.25 L-7.5 0.15 -5.0 1.3 -6.3 1.55 -11.7 1.95 -4.45 -2.2 4.85 0.9 M-20.5 -4.2 L-18.2 -4.3 -22.7 -2.55 -27.1 -4.0 -21.8 -5.25 -22.5 -4.0 -20.7 -4.1 -20.5 -4.2 M-14.45 -3.15 L-12.7 -2.7 -14.9 -3.2 -14.45 -3.15" fill="#a93c01" fill-rule="evenodd" stroke="none"/>
    <path d="M9.1 -7.15 L9.05 -7.15 9.1 -7.15 11.15 -6.25 11.05 -5.55 11.2 -6.2 14.9 -6.05 10.7 -7.3 15.25 -7.65 15.3 -7.25 15.55 -7.35 17.7 -7.15 16.55 -8.2 30.0 -3.55 21.2 -0.5 20.55 -0.3 7.7 4.15 7.1 4.0 5.5 4.05 6.35 4.6 1.05 6.4 -30.0 -3.55 -22.05 -6.3 -12.3 -6.95 Q-11.9 -7.35 -12.35 -7.45 L-12.75 -7.3 -13.55 -9.2 -9.95 -10.45 -10.7 -10.1 -10.35 -9.5 -12.45 -9.0 -6.75 -8.95 -8.85 -7.95 -5.1 -7.0 -10.25 -4.3 -3.8 -5.75 -2.25 -8.05 1.6 -8.15 9.1 -7.15 M1.5 -2.9 L10.2 -4.7 0.15 -7.4 -1.3 -5.8 -5.85 -4.85 1.5 -2.9 M9.8 -2.7 L9.55 -2.85 9.3 -2.7 9.2 -2.45 9.3 -2.15 9.55 -2.05 Q9.7 -2.05 9.8 -2.15 L9.9 -2.45 9.8 -2.7 M1.6 -8.15 L9.9 -8.35 -0.3 -8.8 4.95 -9.45 -0.7 -10.25 Q-0.5 -10.65 -0.8 -10.6 L-1.05 -10.5 -9.75 -9.65 0.1 -13.85 15.7 -8.5 12.05 -7.75 1.6 -8.15 M12.15 -0.95 L18.2 0.15 16.35 -1.45 10.55 -1.35 7.9 -0.95 12.15 -0.95 M25.85 -3.9 L26.3 -4.1 25.75 -4.2 15.55 -4.85 25.85 -3.9 M5.8 1.1 L5.8 2.3 10.25 2.25 10.05 1.4 5.8 1.1 M0.6 3.6 Q2.5 3.9 2.35 2.95 L0.6 3.6 M4.3 1.2 L4.85 1.45 4.85 0.9 -4.45 -2.2 -11.7 1.95 -6.3 1.55 -7.6 2.45 -2.95 3.05 -2.2 4.4 -1.25 4.2 0.2 4.55 Q3.65 5.45 -0.7 3.9 L4.3 1.2 M-20.5 -4.2 L-20.7 -4.2 -20.7 -4.1 -22.5 -4.0 -21.8 -5.25 -27.1 -4.0 -22.7 -2.55 -9.8 -2.5 -12.7 -2.7 -14.45 -3.15 -14.95 -3.5 -14.95 -3.25 -18.2 -4.3 -20.5 -4.2 M-23.45 -2.75 L-23.65 -2.65 -23.75 -2.4 -23.65 -2.15 Q-23.55 -2.05 -23.45 -2.05 -23.35 -2.05 -23.25 -2.15 L-23.15 -2.4 -23.25 -2.65 -23.45 -2.75 M-4.1 -7.95 Q-4.1 -8.35 -4.25 -8.65 L-4.6 -8.95 -3.05 -8.95 -4.1 -7.95 M-6.6 -3.15 L-6.05 -3.15 -6.05 -3.7 -6.6 -3.7 -6.6 -3.15 M-4.25 1.25 L-5.0 1.3 -7.5 0.15 -4.25 1.25 M-15.2 0.35 L-15.75 0.35 -15.75 0.95 -15.2 0.95 -15.2 0.35" fill="#ff6600" fill-rule="evenodd" stroke="none"/>
    <path d="M9.1 -7.15 L1.6 -8.15 12.05 -7.75 10.7 -7.3 14.9 -6.05 11.2 -6.2 11.15 -6.25 9.1 -7.15 M-5.1 -7.0 L-8.85 -7.95 -6.75 -8.95 -4.6 -8.95 -4.25 -8.65 Q-4.1 -8.35 -4.1 -7.95 -4.1 -7.55 -4.4 -7.25 L-5.1 -7.0 M-10.35 -9.5 L-10.7 -10.1 -9.95 -10.45 0.1 -13.85 -9.75 -9.65 -10.35 -9.5 M-13.55 -9.2 L-12.75 -7.3 -12.3 -6.95 -22.05 -6.3 -13.55 -9.2 M-1.3 -5.8 Q0.8 -4.75 2.2 -3.3 L1.5 -2.9 -5.85 -4.85 -1.3 -5.8 M10.55 -1.35 L12.15 -0.95 7.9 -0.95 10.55 -1.35 M5.8 1.1 L10.05 1.4 10.25 2.25 5.8 2.3 5.8 1.1 M-0.7 3.9 Q3.65 5.45 0.2 4.55 L-1.25 4.2 -0.7 3.9 M-2.95 3.05 L-7.6 2.45 -6.3 1.55 -5.0 1.3 -4.25 1.25 Q-1.9 1.15 -2.85 3.05 L-2.95 3.05 M-18.2 -4.3 L-14.95 -3.25 -14.9 -3.2 -12.7 -2.7 -9.8 -2.5 -22.7 -2.55 -18.2 -4.3" fill="#fe9b67" fill-rule="evenodd" stroke="none"/>
    <path d="M-12.75 -7.3 L-12.35 -7.45 Q-11.9 -7.35 -12.3 -6.95 L-12.75 -7.3 M15.55 -7.35 L15.3 -7.25 15.25 -7.65 15.55 -7.35 M11.2 -6.2 L11.05 -5.55 11.15 -6.25 11.2 -6.2 M9.8 -2.7 L9.9 -2.45 9.8 -2.15 Q9.7 -2.05 9.55 -2.05 L9.3 -2.15 9.2 -2.45 9.3 -2.7 9.55 -2.85 9.8 -2.7 M-1.05 -10.5 L-0.8 -10.6 Q-0.5 -10.65 -0.7 -10.25 L-1.05 -10.5 M25.85 -3.9 L25.75 -4.2 26.3 -4.1 25.85 -3.9 M4.85 0.9 L4.85 1.45 4.3 1.2 4.85 0.9 M-20.7 -4.1 L-20.7 -4.2 -20.5 -4.2 -20.7 -4.1 M-14.95 -3.25 L-14.95 -3.5 -14.45 -3.15 -14.9 -3.2 -14.95 -3.25 M-23.45 -2.75 L-23.25 -2.65 -23.15 -2.4 -23.25 -2.15 Q-23.35 -2.05 -23.45 -2.05 -23.55 -2.05 -23.65 -2.15 L-23.75 -2.4 -23.65 -2.65 -23.45 -2.75 M-6.6 -3.15 L-6.6 -3.7 -6.05 -3.7 -6.05 -3.15 -6.6 -3.15 M-15.2 0.35 L-15.2 0.95 -15.75 0.95 -15.75 0.35 -15.2 0.35" fill="#333333" fill-rule="evenodd" stroke="none"/>
    <path d="M7.1 4.0 L7.7 4.15 7.65 4.75 6.35 4.6 7.1 4.0 M20.55 -0.3 L21.2 -0.5 21.3 1.2 20.55 -0.3 M27.15 0.25 L26.65 0.75 25.15 0.8 25.65 -0.75 26.05 -0.95 27.15 -0.4 27.15 0.25 M26.9 3.95 L25.95 3.85 25.8 3.5 25.8 3.1 Q26.5 1.4 27.25 2.9 L27.35 3.1 26.9 3.95 M16.6 4.25 L17.45 3.55 18.35 4.15 17.95 5.4 16.75 5.15 16.6 4.25 M22.1 2.15 L22.1 2.7 21.65 2.7 21.65 2.15 22.1 2.15 M6.9 10.75 L6.8 10.8 6.75 10.8 6.3 10.7 6.2 10.65 Q6.8 7.2 6.9 10.45 L6.9 10.75 M-26.45 -1.45 L-25.8 -1.15 Q-25.55 -0.9 -25.55 -0.5 -25.55 -0.1 -25.8 0.2 L-26.45 0.45 -27.05 0.2 -27.35 -0.5 -27.05 -1.15 -26.45 -1.45 M-3.2 9.75 L-2.9 9.1 Q-2.65 8.8 -2.3 8.8 -1.95 8.8 -1.65 9.1 -1.4 9.35 -1.4 9.75 L-1.65 10.45 -2.3 10.7 -2.9 10.45 -3.2 9.75 M-8.45 4.7 Q-8.2 4.45 -7.8 4.45 -7.4 4.45 -7.1 4.7 -6.85 4.9 -6.85 5.2 L-7.1 5.75 -7.8 5.95 -8.45 5.75 -8.75 5.2 -8.45 4.7 M-13.2 5.15 L-12.45 4.6 -11.85 4.85 -11.45 5.85 -12.7 6.5 -13.05 6.25 -13.2 5.15 M-27.5 3.1 L-26.4 3.4 -26.7 4.35 -26.9 4.4 -27.15 4.4 -27.8 4.15 -27.85 3.9 -27.5 3.1 M-17.65 6.85 L-18.2 6.35 -18.0 5.55 -16.5 6.1 -17.15 6.8 -17.3 6.85 -17.65 6.85 M-19.55 0.75 Q-19.15 0.75 -18.85 1.05 -18.6 1.3 -18.6 1.65 L-18.85 2.3 -19.55 2.55 -20.2 2.3 -20.5 1.65 -20.2 1.05 Q-19.95 0.75 -19.55 0.75" fill="#de4e01" fill-rule="evenodd" stroke="none"/>
    <path d="M-30.0 -3.55 L1.05 6.4 6.35 4.6 7.65 4.75 7.7 4.15 20.55 -0.3 21.3 1.2 21.2 -0.5 30.0 -3.55 30.0 3.55 0.0 13.9 -30.0 3.55 -30.0 -3.55 M26.9 3.95 L27.35 3.1 27.25 2.9 Q26.5 1.4 25.8 3.1 L25.8 3.5 25.95 3.85 26.9 3.95 M27.15 0.25 L27.15 -0.4 26.05 -0.95 25.65 -0.75 25.15 0.8 26.65 0.75 27.15 0.25 M22.1 2.15 L21.65 2.15 21.65 2.7 22.1 2.7 22.1 2.15 M16.6 4.25 L16.75 5.15 17.95 5.4 18.35 4.15 17.45 3.55 16.6 4.25 M6.9 10.75 L6.9 10.45 Q6.8 7.2 6.2 10.65 L6.3 10.7 6.75 10.8 6.8 10.8 6.9 10.75 M-26.45 -1.45 L-27.05 -1.15 -27.35 -0.5 -27.05 0.2 -26.45 0.45 -25.8 0.2 Q-25.55 -0.1 -25.55 -0.5 -25.55 -0.9 -25.8 -1.15 L-26.45 -1.45 M-8.45 4.7 L-8.75 5.2 -8.45 5.75 -7.8 5.95 -7.1 5.75 -6.85 5.2 Q-6.85 4.9 -7.1 4.7 -7.4 4.45 -7.8 4.45 -8.2 4.45 -8.45 4.7 M-3.2 9.75 L-2.9 10.45 -2.3 10.7 -1.65 10.45 -1.4 9.75 Q-1.4 9.35 -1.65 9.1 -1.95 8.8 -2.3 8.8 -2.65 8.8 -2.9 9.1 L-3.2 9.75 M-13.2 5.15 L-13.05 6.25 -12.7 6.5 -11.45 5.85 -11.85 4.85 -12.45 4.6 -13.2 5.15 M-19.55 0.75 Q-19.95 0.75 -20.2 1.05 L-20.5 1.65 -20.2 2.3 -19.55 2.55 -18.85 2.3 -18.6 1.65 Q-18.6 1.3 -18.85 1.05 -19.15 0.75 -19.55 0.75 M-17.65 6.85 L-17.3 6.85 -17.15 6.8 -16.5 6.1 -18.0 5.55 -18.2 6.35 -17.65 6.85 M-27.5 3.1 L-27.85 3.9 -27.8 4.15 -27.15 4.4 -26.9 4.4 -26.7 4.35 -26.4 3.4 -27.5 3.1" fill="url(#gradient0)" fill-rule="evenodd" stroke="none"/>
  </g>
  <defs>
    <radialGradient cx="0" cy="0" gradientTransform="matrix(0.0, 0.0185, -0.0441, 0.0, 0.25, -0.85)" gradientUnits="userSpaceOnUse" id="gradient0" r="819.2" spreadMethod="pad">
      <stop offset="0.0" stop-color="#ff0000"/>
      <stop offset="1.0" stop-color="#ffec00"/>
    </radialGradient>
  </defs>
</svg>
