<?xml version="1.0" encoding="UTF-8" standalone="no"?>
<svg xmlns:ffdec="https://www.free-decompiler.com/flash" xmlns:xlink="http://www.w3.org/1999/xlink" ffdec:objectType="shape" height="63.1px" width="36.0px" xmlns="http://www.w3.org/2000/svg">
  <g transform="matrix(1.0, 0.0, 0.0, 1.0, 18.0, 31.55)">
    <path d="M-1.2 -31.25 L-1.0 -31.55 Q4.3 -30.5 9.35 -28.45 L10.7 -28.0 Q6.65 -28.4 2.8 -27.2 L2.3 -27.05 1.1 -26.55 6.2 -25.35 10.55 -24.5 16.35 -23.8 10.75 -21.95 18.0 -21.35 Q18.1 -20.85 17.3 -19.8 14.35 -15.85 11.05 -12.35 L10.4 -11.75 16.9 -10.4 15.3 -9.95 13.3 -9.25 12.5 -9.0 9.7 -8.15 6.85 -7.45 6.7 -7.4 10.9 -5.5 9.05 -5.1 7.2 -4.45 4.4 -3.6 2.05 -2.9 5.25 -1.1 2.0 -1.7 Q2.9 -1.2 3.3 0.1 4.25 3.2 3.9 6.35 L3.65 7.1 1.95 10.45 0.95 11.85 0.9 14.95 0.95 15.9 Q1.5 19.15 2.6 22.35 3.45 24.95 2.55 27.35 2.2 28.35 1.2 28.6 -0.6 28.95 -2.1 28.05 -3.0 27.45 -4.0 27.1 -4.6 26.85 -4.95 26.25 L-5.0 26.05 -5.4 25.85 -5.1 27.1 -4.95 27.8 Q-4.65 30.1 -6.7 31.3 L-7.5 31.55 Q-10.85 31.6 -14.05 30.65 L-14.85 30.1 -14.95 30.0 -15.3 28.7 Q-15.35 27.0 -14.3 25.75 -13.85 25.25 -13.15 25.15 L-12.15 25.15 Q-13.15 22.3 -13.7 19.35 -14.0 17.7 -15.45 16.75 -16.6 16.0 -16.55 14.65 -16.5 13.9 -15.85 13.45 L-14.45 12.45 Q-14.3 9.0 -13.65 5.6 -13.25 3.55 -12.1 1.85 L-11.7 1.3 -11.1 0.6 -11.25 0.6 -12.3 0.6 -13.95 0.0 -15.4 -0.7 -16.75 -1.85 -17.75 -3.35 -18.0 -4.35 -17.95 -5.35 -17.45 -6.95 -16.75 -8.5 Q-16.3 -9.35 -16.65 -10.2 L-17.25 -12.0 -17.7 -15.1 -17.7 -17.55 Q-17.45 -21.95 -15.1 -25.75 L-14.75 -26.1 Q-12.85 -27.35 -10.5 -26.75 L-9.95 -29.1 -9.65 -29.15 Q-7.0 -29.0 -4.8 -27.25 L-4.25 -26.85 -3.8 -26.85 -3.4 -27.55 -2.8 -28.55 -2.1 -29.75 -1.95 -30.0 -1.2 -31.15 -1.2 -31.25 M-17.25 -16.35 L-17.25 -15.85 -17.05 -13.0 -16.5 -10.55 -16.4 -11.95 -16.2 -13.45 -16.0 -14.9 -15.7 -16.4 -15.35 -18.15 -15.35 -18.2 -14.45 -21.6 Q-14.95 -19.75 -14.9 -17.9 L-14.85 -16.85 -14.75 -15.85 -14.4 -14.35 -14.0 -12.7 -13.8 -11.05 -13.25 -9.15 -13.45 -9.05 -13.25 -8.5 -12.95 -7.35 -12.7 -8.6 -12.15 -8.5 -12.05 -9.85 -11.85 -14.25 -11.35 -18.95 -11.35 -17.15 -11.25 -16.8 -11.25 -16.75 -11.0 -15.65 -10.45 -13.45 -10.4 -13.4 -9.7 -11.2 -9.65 -11.15 -9.65 -11.7 -9.6 -12.45 -9.55 -12.95 -9.55 -13.7 -9.5 -14.2 -9.4 -14.8 -9.3 -14.9 -8.95 -14.4 -8.0 -12.25 -7.85 -12.0 -6.8 -10.3 -5.4 -8.45 -5.1 -8.05 -4.1 -7.35 -3.2 -6.65 -1.55 -5.75 -1.9 -6.75 -2.3 -7.65 -2.3 -7.75 -2.35 -7.85 -2.35 -7.95 -2.3 -8.0 -2.25 -8.05 -0.1 -7.15 1.6 -6.7 2.15 -6.6 4.4 -6.1 6.4 -5.85 8.4 -5.85 8.95 -5.85 8.9 -5.9 5.25 -7.4 3.7 -8.3 Q9.85 -8.65 15.6 -10.4 L9.8 -11.75 9.85 -11.8 10.0 -11.95 10.05 -12.0 10.15 -12.15 17.8 -21.1 17.05 -20.95 Q13.05 -20.95 9.25 -21.9 L14.45 -23.5 8.95 -24.25 8.3 -24.4 7.95 -24.45 7.4 -24.5 3.15 -25.45 2.15 -25.7 0.8 -26.05 -0.4 -26.45 Q3.6 -28.85 8.4 -28.35 L-0.85 -31.25 -3.7 -26.15 Q-6.3 -28.3 -9.65 -28.8 L-9.85 -25.95 -9.55 -23.15 Q-8.8 -18.2 -7.3 -13.35 L-7.25 -12.85 Q-9.7 -18.2 -10.2 -24.2 L-10.55 -26.2 -13.85 -26.3 Q-14.45 -26.2 -14.7 -25.7 L-15.45 -24.2 -15.85 -23.3 Q-17.0 -20.35 -17.2 -17.25 L-17.25 -16.35 M-7.15 -19.35 L-7.3 -20.65 Q-7.65 -22.9 -7.05 -24.9 L-6.25 -11.45 Q-6.9 -14.3 -7.0 -17.55 L-7.15 -19.35 M-5.4 17.55 L-3.45 23.8 -3.9 23.0 -4.55 23.3 -5.55 23.35 -5.55 23.3 -5.7 23.4 -5.85 23.45 -5.85 23.55 -5.8 23.95 -5.5 25.35 -5.05 25.8 -5.1 25.6 -4.9 25.7 Q-4.1 27.1 -2.4 27.35 -2.1 27.4 -1.75 27.6 L2.15 27.5 2.5 27.05 Q3.1 25.25 2.45 23.45 1.0 19.25 0.4 15.25 1.2 12.65 0.25 10.15 L0.2 9.5 Q0.6 6.4 2.0 3.65 L2.15 3.25 2.35 2.7 2.4 2.45 2.45 2.35 2.55 1.65 2.55 2.65 2.45 3.3 0.8 8.1 Q0.05 9.95 0.9 11.55 L2.85 8.0 3.4 6.05 Q3.75 4.0 3.25 2.0 L3.1 1.05 2.85 0.25 2.85 0.2 2.75 -0.1 2.55 -0.45 2.4 -0.7 1.75 -1.5 1.45 -1.75 -0.9 -1.7 -1.05 -1.1 -1.15 -0.85 -1.2 -0.9 Q-1.75 -1.35 -2.05 -2.3 L-4.55 -2.85 -6.15 -3.95 -7.25 -4.75 -8.4 -5.55 -9.0 -6.2 Q-9.35 -6.75 -10.05 -7.1 L-10.2 -7.15 -10.3 -7.25 -9.6 -5.75 -9.35 -4.5 -9.35 -3.7 -10.65 -2.3 -10.6 -2.0 -12.3 -0.25 -13.25 -0.45 -13.35 -1.45 -12.95 -2.3 -12.65 -3.1 -12.45 -4.1 -12.45 -4.85 -12.45 -4.95 -12.55 -5.1 -13.05 -6.7 -13.1 -6.85 -13.5 -8.35 -13.65 -9.05 -13.9 -10.2 -14.75 -14.7 -15.1 -17.55 -15.45 -15.85 -15.85 -13.95 -16.05 -12.8 -16.05 -11.75 -16.0 -11.75 -16.1 -10.4 -16.2 -9.25 -16.6 -7.85 -17.15 -6.3 -17.3 -4.85 -17.05 -3.4 -16.25 -2.05 -15.55 -1.15 Q-15.1 -0.65 -14.35 -0.3 L-10.5 0.4 -8.95 -0.25 -8.75 -0.4 -8.7 -0.5 -8.7 -1.05 Q-8.65 -1.5 -8.4 -1.2 L-7.9 -0.35 Q-10.2 0.4 -11.85 2.15 L-12.2 2.8 Q-12.8 5.6 -12.6 8.45 -12.55 9.85 -13.15 11.2 L-13.8 12.35 -16.15 14.25 Q-16.45 16.5 -14.15 17.3 -13.0 17.7 -12.3 16.6 L-11.35 14.6 Q-11.05 13.7 -10.4 13.0 -9.2 11.55 -8.8 9.8 L-8.65 8.65 -8.35 5.2 -7.9 5.0 -8.55 10.2 Q-8.7 11.25 -9.35 12.05 -11.3 14.3 -12.25 17.1 L-12.75 17.8 -13.5 17.95 Q-13.5 19.95 -12.75 22.1 -12.05 24.05 -11.7 26.05 L-11.75 26.2 -11.8 26.25 -11.9 26.25 -12.0 26.2 -12.1 26.1 -12.1 26.05 -12.1 26.0 -12.1 25.95 -13.55 25.45 -14.0 26.2 Q-13.3 26.15 -14.1 26.65 -15.3 27.3 -14.95 28.75 -14.55 30.55 -12.55 30.85 L-8.0 31.2 Q-6.35 31.2 -5.8 29.75 -5.4 28.65 -5.55 27.45 L-6.85 18.3 Q-7.0 17.15 -6.7 16.15 -5.05 15.6 -4.5 13.9 L-4.15 12.45 -4.15 10.55 Q-3.85 10.55 -3.75 11.3 L-3.75 11.4 -4.65 15.0 -4.7 15.1 -4.85 15.25 -5.85 16.2 -5.4 17.55 M-11.65 -8.05 L-11.85 -7.95 Q-12.65 -7.45 -12.2 -6.4 -11.45 -4.45 -12.4 -2.7 L-12.9 -1.7 -13.0 -1.25 -12.75 -0.95 -12.35 -0.65 -11.4 -1.65 -11.35 -1.7 Q-10.0 -4.85 -11.35 -7.9 L-11.65 -8.05 M-11.5 -8.25 L-11.55 -8.3 -11.5 -8.25 M-10.65 -2.5 L-10.45 -2.7 Q-9.0 -4.45 -10.65 -6.45 L-10.65 -2.5 M-13.05 4.95 L-13.7 8.0 Q-14.25 10.25 -14.15 12.15 -13.4 10.9 -13.05 9.5 -12.45 7.15 -12.9 4.6 L-13.05 4.95 M-6.25 21.7 L-6.2 21.75 -6.2 21.8 -6.2 21.85 -6.15 21.95 -5.95 23.2 -5.5 23.05 -4.0 22.75 -6.2 16.25 Q-6.85 18.7 -6.3 21.35 L-6.25 21.7" fill="#000000" fill-rule="evenodd" stroke="none"/>
    <path d="M-9.85 -25.95 L-9.65 -28.8 Q-6.3 -28.3 -3.7 -26.15 L-0.85 -31.25 8.4 -28.35 Q3.6 -28.85 -0.4 -26.45 L0.8 -26.05 2.15 -25.7 3.15 -25.45 7.4 -24.5 7.95 -24.45 8.3 -24.4 8.95 -24.25 14.45 -23.5 9.25 -21.9 Q13.05 -20.95 17.05 -20.95 L17.8 -21.1 10.15 -12.15 10.05 -12.0 10.0 -11.95 9.85 -11.8 9.8 -11.75 15.6 -10.4 Q9.85 -8.65 3.7 -8.3 L5.25 -7.4 8.9 -5.9 8.95 -5.85 8.4 -5.85 6.4 -5.85 4.4 -6.1 2.15 -6.6 1.6 -6.7 -0.1 -7.15 -2.25 -8.05 -2.3 -8.0 -2.35 -7.95 -2.35 -7.85 -2.3 -7.75 -2.3 -7.65 -1.9 -6.75 -1.55 -5.75 -3.2 -6.65 -4.1 -7.35 -5.1 -8.05 -5.4 -8.45 -6.8 -10.3 -7.85 -12.0 -8.0 -12.25 -8.95 -14.4 -9.3 -14.9 -9.4 -14.8 -9.5 -14.2 -9.55 -13.7 -9.55 -12.95 -9.6 -12.45 -9.65 -11.7 -9.65 -11.15 -9.7 -11.2 -10.4 -13.4 -10.45 -13.45 -11.0 -15.65 -11.25 -16.75 -11.25 -16.8 -11.35 -17.15 -11.35 -18.95 -11.85 -14.25 -12.05 -9.85 -12.15 -8.5 -12.7 -8.6 -12.95 -7.35 -13.25 -8.5 -13.45 -9.05 -13.25 -9.15 -13.8 -11.05 -14.0 -12.7 -14.4 -14.35 -14.75 -15.85 -14.85 -16.85 -14.9 -17.9 Q-14.95 -19.75 -14.45 -21.6 L-15.35 -18.2 -15.35 -18.15 -15.7 -16.4 -16.0 -14.9 -16.2 -13.45 -16.4 -11.95 -16.5 -10.55 -17.05 -13.0 -17.25 -15.85 -17.25 -16.35 -17.0 -17.15 Q-16.15 -20.15 -14.5 -22.75 L-13.95 -23.6 Q-13.8 -20.2 -12.8 -17.0 L-12.45 -16.55 -10.75 -22.7 -12.5 -18.35 Q-13.45 -21.45 -13.45 -24.7 L-13.5 -24.7 Q-14.35 -24.15 -14.85 -23.25 L-16.35 -20.3 -15.45 -24.2 -14.7 -25.7 Q-14.45 -26.2 -13.85 -26.3 L-10.55 -26.2 -10.2 -24.2 Q-9.7 -18.2 -7.25 -12.85 L-7.3 -13.35 Q-8.8 -18.2 -9.55 -23.15 L-7.0 -17.55 Q-6.9 -14.3 -6.25 -11.45 L-7.05 -24.9 Q-7.65 -22.9 -7.3 -20.65 L-7.15 -19.35 Q-9.1 -22.35 -9.8 -25.85 L-9.85 -25.95" fill="#333333" fill-rule="evenodd" stroke="none"/>
    <path d="M-4.55 -2.85 L-2.05 -2.3 Q-1.75 -1.35 -1.2 -0.9 L-1.15 -0.85 -1.05 -1.1 -0.9 -1.7 1.45 -1.75 1.75 -1.5 2.4 -0.7 2.55 -0.45 2.75 -0.1 2.85 0.2 2.85 0.25 3.1 1.05 3.25 2.0 Q3.75 4.0 3.4 6.05 L2.85 8.0 0.9 11.55 Q0.05 9.95 0.8 8.1 L2.45 3.3 2.55 2.65 2.55 1.65 2.45 2.35 2.4 2.45 2.35 2.7 2.15 3.25 2.0 3.65 Q0.6 6.4 0.2 9.5 L0.25 10.15 Q1.2 12.65 0.4 15.25 1.0 19.25 2.45 23.45 3.1 25.25 2.5 27.05 L2.15 27.5 -1.75 27.6 Q-2.1 27.4 -2.4 27.35 -4.1 27.1 -4.9 25.7 L-5.1 25.6 -5.05 25.8 -5.5 25.35 -5.8 23.95 -5.85 23.55 -5.85 23.45 -5.7 23.4 -5.55 23.3 -5.55 23.35 -4.55 23.3 -3.9 23.0 -3.45 23.8 -5.4 17.55 -3.8 16.05 -3.3 15.55 -3.3 15.45 -3.45 15.35 -3.5 15.35 -4.7 15.1 -4.65 15.0 -3.75 11.4 -3.75 11.3 Q-3.85 10.55 -4.15 10.55 L-4.15 12.45 -4.5 13.9 Q-5.05 15.6 -6.7 16.15 -7.0 17.15 -6.85 18.3 L-5.55 27.45 Q-5.4 28.65 -5.8 29.75 -6.35 31.2 -8.0 31.2 L-12.55 30.85 Q-14.55 30.55 -14.95 28.75 -15.3 27.3 -14.1 26.65 -13.3 26.15 -14.0 26.2 L-13.55 25.45 -12.1 25.95 -12.1 26.0 -12.1 26.05 -12.1 26.1 -12.0 26.2 -11.9 26.25 -11.8 26.25 -11.75 26.2 -11.7 26.05 Q-12.05 24.05 -12.75 22.1 -13.5 19.95 -13.5 17.95 L-12.75 17.8 -12.25 17.1 Q-11.3 14.3 -9.35 12.05 -8.7 11.25 -8.55 10.2 L-7.9 5.0 -8.35 5.2 -8.65 8.65 -8.8 9.8 Q-9.2 11.55 -10.4 13.0 -11.05 13.7 -11.35 14.6 L-12.3 16.6 Q-13.0 17.7 -14.15 17.3 -16.45 16.5 -16.15 14.25 L-13.8 12.35 -13.15 11.2 Q-12.55 9.85 -12.6 8.45 -12.8 5.6 -12.2 2.8 L-11.85 2.15 Q-10.2 0.4 -7.9 -0.35 L-8.4 -1.2 -6.75 -2.2 -6.1 -2.45 -4.55 -2.85 M-2.2 -0.6 Q-1.8 2.6 -2.9 5.65 -3.55 7.4 -3.8 9.3 L-3.75 9.3 Q-2.85 7.15 -2.1 4.8 L-1.75 2.6 Q-1.7 1.0 -2.05 -0.5 L-2.25 -1.25 -2.2 -0.6 M-14.75 -14.7 L-13.9 -10.2 -13.65 -9.05 -13.5 -8.35 -13.1 -6.85 -13.05 -6.7 -12.55 -5.1 -12.45 -4.95 -12.45 -4.85 -12.45 -4.1 -12.65 -3.1 -12.95 -2.3 -13.35 -1.45 -13.25 -0.45 -14.35 -0.3 Q-15.1 -0.65 -15.55 -1.15 L-16.25 -2.05 -17.05 -3.4 -17.3 -4.85 -17.15 -6.3 -16.6 -7.85 -16.2 -9.25 -16.1 -10.4 -16.0 -11.75 -15.7 -12.25 -15.0 -14.0 -14.75 -14.7 M-11.65 -8.05 L-11.35 -7.9 Q-10.0 -4.85 -11.35 -1.7 L-11.4 -1.65 -12.35 -0.65 -12.75 -0.95 -13.0 -1.25 -12.9 -1.7 -12.4 -2.7 Q-11.45 -4.45 -12.2 -6.4 -12.65 -7.45 -11.85 -7.95 L-11.65 -8.05 M-11.5 -8.25 L-11.55 -8.3 -11.5 -8.25 M-13.05 4.95 L-12.9 4.6 Q-12.45 7.15 -13.05 9.5 -13.4 10.9 -14.15 12.15 -14.25 10.25 -13.7 8.0 L-13.05 4.95" fill="#ffe3d5" fill-rule="evenodd" stroke="none"/>
    <path d="M-4.55 -2.85 L-6.1 -2.45 -6.75 -2.2 -8.4 -1.2 Q-8.65 -1.5 -8.7 -1.05 L-8.7 -0.5 -8.75 -0.4 -8.95 -0.25 -10.5 0.4 -14.35 -0.3 -13.25 -0.45 -12.3 -0.25 -10.6 -2.0 -10.65 -2.3 -9.35 -3.7 -9.35 -4.5 -9.6 -5.75 -10.3 -7.25 -10.2 -7.15 -10.05 -7.1 Q-9.35 -6.75 -9.0 -6.2 L-8.4 -5.55 -7.25 -4.75 -6.15 -3.95 -4.55 -2.85 M-4.7 15.1 L-3.5 15.35 -3.45 15.35 -3.3 15.45 -3.3 15.55 -3.8 16.05 -5.4 17.55 -5.85 16.2 -4.85 15.25 -4.7 15.1 M-2.2 -0.6 L-2.25 -1.25 -2.05 -0.5 Q-1.7 1.0 -1.75 2.6 L-2.1 4.8 Q-2.85 7.15 -3.75 9.3 L-3.8 9.3 Q-3.55 7.4 -2.9 5.65 -1.8 2.6 -2.2 -0.6 M-16.0 -11.75 L-16.05 -11.75 -16.05 -12.8 -15.85 -13.95 -15.45 -15.85 -15.1 -17.55 -14.75 -14.7 -15.0 -14.0 -15.7 -12.25 -16.0 -11.75 M-10.65 -2.5 L-10.65 -6.45 Q-9.0 -4.45 -10.45 -2.7 L-10.65 -2.5" fill="#edb192" fill-rule="evenodd" stroke="none"/>
    <path d="M-9.85 -25.95 L-9.8 -25.85 Q-9.1 -22.35 -7.15 -19.35 L-7.0 -17.55 -9.55 -23.15 -9.85 -25.95 M-15.45 -24.2 L-16.35 -20.3 -14.85 -23.25 Q-14.35 -24.15 -13.5 -24.7 L-13.45 -24.7 Q-13.45 -21.45 -12.5 -18.35 L-10.75 -22.7 -12.45 -16.55 -12.8 -17.0 Q-13.8 -20.2 -13.95 -23.6 L-14.5 -22.75 Q-16.15 -20.15 -17.0 -17.15 L-17.25 -16.35 -17.2 -17.25 Q-17.0 -20.35 -15.85 -23.3 L-15.45 -24.2" fill="#999999" fill-rule="evenodd" stroke="none"/>
  </g>
</svg>
