<?xml version="1.0" encoding="UTF-8" standalone="no"?>
<svg xmlns:ffdec="https://www.free-decompiler.com/flash" xmlns:xlink="http://www.w3.org/1999/xlink" ffdec:objectType="shape" height="5.8px" width="12.8px" xmlns="http://www.w3.org/2000/svg">
  <g transform="matrix(1.0, 0.0, 0.0, 1.0, 6.95, 2.6)">
    <path d="M5.15 1.8 L5.05 1.65 5.1 1.55 4.9 1.55 4.1 1.65 2.9 1.75 1.65 1.65 0.3 1.45 -0.25 1.3 -0.9 1.1 -2.4 0.6 -3.15 0.35 -5.0 -0.6 -5.5 -0.9 -6.3 -1.8 -6.65 -2.2 -6.75 -1.55 -6.35 -0.65 -6.1 -0.25 -6.05 -0.25 -6.0 -0.1 -5.55 0.3 -4.85 0.7 -3.7 1.35 -1.65 2.3 -0.75 2.6 -0.45 2.7 1.3 2.9 3.7 2.8 5.45 2.5 5.2 1.85 5.15 1.8 M-6.6 -2.6 L-5.7 -1.3 -5.4 -1.1 -4.7 -0.65 -3.45 -0.1 -2.65 0.25 -1.85 0.5 -1.05 0.8 0.1 1.15 1.3 1.45 2.85 1.5 4.15 1.4 5.2 1.2 5.6 1.95 5.85 2.7 2.45 3.2 -0.6 2.9 -1.2 2.7 -1.55 2.5 -1.95 2.35 -2.55 2.15 -3.45 1.7 -4.7 1.1 -5.7 0.45 -6.25 -0.1 -6.55 -0.6 -6.65 -0.8 -6.75 -1.2 -6.8 -1.1 -6.95 -1.6 -6.75 -2.55 -6.6 -2.6" fill="#55266a" fill-rule="evenodd" stroke="none"/>
    <path d="M-6.1 -0.25 L-6.35 -0.65 -6.75 -1.55 -6.65 -2.2 -6.3 -1.8 -5.5 -0.9 -5.0 -0.6 -3.15 0.35 -2.4 0.6 -0.9 1.1 -0.25 1.3 0.3 1.45 1.65 1.65 2.9 1.75 4.1 1.65 4.9 1.55 5.1 1.55 5.05 1.65 5.15 1.8 5.05 1.75 4.55 2.4 4.6 2.55 4.7 2.5 5.2 1.85 5.45 2.5 3.7 2.8 1.3 2.9 -0.45 2.7 -0.75 2.6 -1.65 2.3 -3.7 1.35 -4.85 0.7 -5.55 0.3 -6.0 -0.1 -6.05 -0.25 -5.85 -0.25 -5.5 -0.55 -5.45 -0.7 -5.55 -0.8 -5.9 -0.65 -6.0 -1.0 -6.3 -1.45 -6.4 -1.3 -6.1 -0.25 M3.15 2.7 Q3.65 2.5 3.75 1.95 L3.6 1.9 3.15 2.4 2.3 1.9 2.25 1.95 2.3 2.1 3.1 2.75 3.15 2.7 M-4.1 0.95 L-4.05 0.95 Q-3.9 0.95 -3.8 0.8 L-4.05 0.3 -4.3 0.1 -4.15 0.65 -4.25 0.8 -4.1 0.95 M-0.45 2.1 L-0.5 2.15 -0.35 2.5 0.15 2.6 -0.1 2.25 0.6 1.95 0.65 1.95 0.75 1.9 0.75 1.8 0.6 1.7 -0.45 2.1 M-2.35 1.5 L-2.3 1.5 -2.25 1.4 -2.55 0.95 -2.7 0.8 -2.8 0.7 -2.9 0.7 -2.35 1.5 M-1.0 1.35 L-0.95 1.2 -1.05 1.15 -2.05 1.45 -2.0 1.55 -1.0 1.35" fill="#b483d1" fill-rule="evenodd" stroke="none"/>
    <path d="M-6.1 -0.25 L-6.4 -1.3 -6.3 -1.45 -6.0 -1.0 -5.9 -0.65 -5.55 -0.8 -5.45 -0.7 -5.5 -0.55 -5.85 -0.25 -6.05 -0.25 -6.1 -0.25 M5.2 1.85 L4.7 2.5 4.6 2.55 4.55 2.4 5.05 1.75 5.15 1.8 5.2 1.85 M-1.0 1.35 L-2.0 1.55 -2.05 1.45 -1.05 1.15 -0.95 1.2 -1.0 1.35 M-2.35 1.5 L-2.9 0.7 -2.8 0.7 -2.7 0.8 -2.55 0.95 -2.25 1.4 -2.3 1.5 -2.35 1.5 M-0.45 2.1 L0.6 1.7 0.75 1.8 0.75 1.9 0.65 1.95 0.6 1.95 -0.1 2.25 0.15 2.6 -0.35 2.5 -0.5 2.15 -0.45 2.1 M-4.1 0.95 L-4.25 0.8 -4.15 0.65 -4.3 0.1 -4.05 0.3 -3.8 0.8 Q-3.9 0.95 -4.05 0.95 L-4.1 0.95 M3.15 2.7 L3.1 2.75 2.3 2.1 2.25 1.95 2.3 1.9 3.15 2.4 3.6 1.9 3.75 1.95 Q3.65 2.5 3.15 2.7" fill="#7a41ab" fill-rule="evenodd" stroke="none"/>
  </g>
</svg>
