<?xml version="1.0" encoding="UTF-8" standalone="no"?>
<svg xmlns:ffdec="https://www.free-decompiler.com/flash" xmlns:xlink="http://www.w3.org/1999/xlink" ffdec:objectType="shape" height="54.7px" width="45.8px" xmlns="http://www.w3.org/2000/svg">
  <g transform="matrix(1.0, 0.0, 0.0, 1.0, 22.9, 27.35)">
    <path d="M-5.4 -21.35 L-5.25 -22.2 -7.55 -25.9 -4.55 -24.3 -4.25 -27.35 -3.5 -26.65 -3.5 -24.5 -2.25 -26.35 -1.85 -26.05 -3.25 -21.65 -3.85 -19.95 -5.4 -21.35 M8.7 4.15 L17.85 15.7 17.9 16.75 17.2 16.95 15.1 14.55 Q11.3 9.95 8.7 4.15 M-3.45 25.35 L-4.1 26.2 Q-4.1 25.6 -4.35 25.15 -4.6 24.65 -4.95 24.7 L-4.9 20.15 -4.45 19.6 -3.8 20.4 -3.45 25.35 M-22.5 17.1 L-21.45 14.5 -20.15 13.65 -19.7 12.75 -19.35 12.4 -18.85 12.85 -19.0 13.65 Q-19.8 16.1 -22.15 16.85 L-22.5 17.1 M1.2 12.15 L1.15 12.15 1.2 12.1 1.2 12.15 M18.35 16.75 L18.4 16.65 18.4 16.7 18.35 16.75 M-4.55 -3.4 L-4.05 -0.6 -4.65 16.75 -5.35 18.5 -4.8 -3.5 -4.55 -3.4" fill="#999966" fill-rule="evenodd" stroke="none"/>
    <path d="M-5.4 -21.35 L-3.85 -19.95 -4.25 -16.8 Q-4.9 -10.0 -4.8 -3.5 L-5.35 18.5 -4.65 16.75 -4.45 19.6 -4.9 20.15 -4.95 24.7 -4.95 25.45 -5.6 25.1 -7.05 23.45 -8.9 22.65 -8.85 21.75 -9.65 22.3 -10.45 21.85 -10.8 21.75 -11.75 21.65 -11.9 21.7 -12.85 20.75 -12.9 21.4 -14.15 20.7 -14.8 18.5 -16.55 19.55 -16.85 17.65 -17.6 18.9 -20.0 17.85 -20.6 17.6 -21.35 17.2 -21.85 16.95 -22.15 16.9 -22.15 16.85 Q-19.8 16.1 -19.0 13.65 L-18.85 12.85 -19.35 12.4 -18.1 11.0 -18.1 10.25 -16.45 7.15 Q-10.65 -4.2 -6.85 -16.35 L-6.85 -16.15 -6.7 -15.65 -6.4 -15.45 -6.05 -15.65 -5.9 -16.15 -6.05 -16.7 -6.4 -16.9 -6.7 -16.7 -6.75 -16.6 -5.4 -21.35 M10.1 17.4 L2.85 20.25 1.55 17.55 1.3 18.2 0.65 15.4 Q1.35 15.85 1.0 14.7 L0.9 13.95 8.2 14.9 10.1 17.4 M-10.15 23.7 L-10.35 23.6 -10.3 23.6 -10.15 23.7 M-21.45 14.5 L-19.7 12.75 -20.15 13.65 -21.45 14.5 M0.3 13.85 L-1.15 10.25 -0.15 9.3 -1.6 8.9 4.95 6.9 5.25 7.8 6.6 8.1 6.1 8.7 0.2 10.85 0.3 13.85 M3.65 -2.15 Q3.75 -2.35 3.95 -2.35 L4.25 -2.15 4.35 -1.8 4.25 -1.45 Q4.15 -1.3 3.95 -1.3 3.75 -1.3 3.65 -1.45 L3.55 -1.8 3.65 -2.15 M-1.85 -1.65 Q-1.7 -1.45 -1.7 -1.1 -1.7 -0.8 -1.85 -0.55 L-2.15 -0.3 -2.5 -0.55 -2.6 -1.1 -2.5 -1.65 -2.15 -1.9 -1.85 -1.65 M0.3 -4.55 L0.55 -6.75 1.45 -3.85 0.3 -4.55 M-2.35 -17.6 L-2.2 -17.35 -2.35 -17.1 -2.6 -16.95 Q-2.8 -16.95 -2.9 -17.1 L-3.05 -17.35 -2.9 -17.6 -2.6 -17.75 -2.35 -17.6 M15.05 17.5 L15.9 17.3 15.7 17.5 15.4 17.5 15.05 17.5 M6.35 3.9 L6.65 3.1 7.45 4.35 6.35 3.9 M-0.05 5.45 L0.2 6.55 -1.05 8.25 -1.55 7.35 -0.05 5.45 -1.55 5.4 2.6 3.45 -0.05 5.45 M-2.4 13.55 L-2.25 14.1 -2.4 14.65 -2.6 14.9 -2.85 14.65 -3.0 14.1 -2.85 13.55 -2.6 13.3 -2.4 13.55 M-2.0 18.05 L-2.2 19.55 -2.8 17.35 -2.0 18.05 M-1.0 21.55 L-0.85 21.9 -1.0 22.25 Q-1.15 22.4 -1.35 22.4 L-1.65 22.25 -1.8 21.9 -1.65 21.55 -1.35 21.4 Q-1.15 21.35 -1.0 21.55 M-8.25 -2.65 L-8.4 -2.4 -8.25 -2.15 Q-8.1 -2.0 -7.85 -2.0 -7.65 -2.0 -7.45 -2.15 L-7.3 -2.4 -7.45 -2.65 -7.85 -2.8 -8.25 -2.65 M-4.55 -3.4 L-4.45 -4.75 -3.95 -3.7 Q-3.1 -1.6 -3.4 0.45 L-4.05 -0.6 -4.55 -3.4 M-12.45 5.9 L-12.75 5.8 -13.0 5.9 -13.15 6.25 -13.0 6.55 -12.75 6.7 Q-12.55 6.7 -12.45 6.55 L-12.3 6.25 -12.45 5.9 M-7.7 11.75 L-7.45 11.9 -7.2 11.75 -7.1 11.45 -7.2 11.1 Q-7.35 10.95 -7.45 11.0 L-7.7 11.1 -7.8 11.45 -7.7 11.75 M-12.9 11.05 L-12.45 10.15 -12.9 9.15 -13.75 10.6 -14.6 10.45 -14.15 11.25 -12.9 11.05 M-15.35 20.1 L-15.5 20.0 -15.8 19.8 -16.0 19.7 -15.3 19.15 -15.35 20.1 M-10.3 17.0 Q-10.45 16.8 -10.6 16.85 -10.8 16.8 -10.9 17.0 L-11.05 17.5 -10.9 17.95 -10.6 18.15 -10.3 17.95 -10.2 17.5 -10.3 17.0 M-9.25 22.6 L-9.4 22.55 -9.2 22.5 -9.25 22.6 M-7.85 18.65 L-7.85 21.25 -7.15 21.25 -7.15 18.65 -7.85 18.65" fill="#999999" fill-rule="evenodd" stroke="none"/>
    <path d="M-3.85 -19.95 L-3.25 -21.65 8.7 4.15 Q11.3 9.95 15.1 14.55 L17.2 16.95 16.0 17.5 15.9 17.3 15.05 17.5 11.6 17.8 6.1 8.7 6.6 8.1 5.25 7.8 4.95 6.9 -1.6 8.9 -0.15 9.3 -1.15 10.25 0.3 13.85 0.65 15.4 1.3 18.2 2.05 22.8 1.15 23.0 -0.1 22.15 0.5 23.35 0.3 24.1 -1.1 23.2 -0.5 24.2 -1.55 24.7 -1.8 24.6 -2.0 24.9 -2.2 24.95 -2.55 25.0 -2.75 25.05 -3.45 25.35 -3.8 20.4 -4.45 19.6 -4.65 16.75 -4.05 -0.6 -3.4 0.45 Q-3.1 -1.6 -3.95 -3.7 L-4.45 -4.75 -4.55 -3.4 -4.8 -3.5 Q-4.9 -10.0 -4.25 -16.8 L-3.85 -19.95 M-2.35 -17.6 L-2.6 -17.75 -2.9 -17.6 -3.05 -17.35 -2.9 -17.1 Q-2.8 -16.95 -2.6 -16.95 L-2.35 -17.1 -2.2 -17.35 -2.35 -17.6 M0.3 -4.55 L1.45 -3.85 0.55 -6.75 0.3 -4.55 M-1.85 -1.65 L-2.15 -1.9 -2.5 -1.65 -2.6 -1.1 -2.5 -0.55 -2.15 -0.3 -1.85 -0.55 Q-1.7 -0.8 -1.7 -1.1 -1.7 -1.45 -1.85 -1.65 M3.65 -2.15 L3.55 -1.8 3.65 -1.45 Q3.75 -1.3 3.95 -1.3 4.15 -1.3 4.25 -1.45 L4.35 -1.8 4.25 -2.15 3.95 -2.35 Q3.75 -2.35 3.65 -2.15 M6.35 3.9 L7.45 4.35 6.65 3.1 6.35 3.9 M-0.05 5.45 L2.6 3.45 -1.55 5.4 -0.05 5.45 -1.55 7.35 -1.05 8.25 0.2 6.55 -0.05 5.45 M-2.4 13.55 L-2.6 13.3 -2.85 13.55 -3.0 14.1 -2.85 14.65 -2.6 14.9 -2.4 14.65 -2.25 14.1 -2.4 13.55 M-2.0 18.05 L-2.8 17.35 -2.2 19.55 -2.0 18.05 M-1.0 21.55 Q-1.15 21.35 -1.35 21.4 L-1.65 21.55 -1.8 21.9 -1.65 22.25 -1.35 22.4 Q-1.15 22.4 -1.0 22.25 L-0.85 21.9 -1.0 21.55" fill="#cccccc" fill-rule="evenodd" stroke="none"/>
    <path d="M15.75 18.7 L15.4 18.8 15.4 17.5 15.7 17.5 15.75 18.7 M15.05 18.9 L14.2 19.0 14.1 18.0 13.6 18.05 13.0 19.0 12.2 18.85 11.3 18.05 11.65 18.8 10.1 17.4 8.2 14.9 0.9 13.95 1.0 14.7 Q1.35 15.85 0.65 15.4 L0.3 13.85 0.2 10.85 6.1 8.7 11.6 17.8 15.05 17.5 15.05 18.9 M2.85 20.25 L2.95 20.8 3.15 21.3 3.35 22.2 1.7 24.25 2.05 22.8 1.3 18.2 1.55 17.55 2.85 20.25 M-0.25 25.3 L-0.5 25.4 -1.55 24.7 -0.5 24.2 -0.25 25.3 M-0.7 25.45 L-2.3 26.05 -2.2 24.95 -2.0 24.9 -0.7 25.45 M-2.7 26.25 L-2.95 26.35 -2.75 25.05 -2.55 25.0 -2.7 26.25 M-6.05 25.0 L-8.15 24.6 -7.25 24.05 -6.05 25.0 M-9.95 23.85 L-10.15 23.7 -10.3 23.6 -9.4 22.55 -9.25 22.6 -9.95 23.85 M-10.75 23.3 L-11.75 22.45 -11.75 21.65 -10.8 21.75 -10.75 23.3 M-13.15 22.1 L-14.45 21.25 -14.15 20.7 -12.9 21.4 -13.15 22.1 M-15.5 20.8 L-15.75 20.75 -15.5 20.0 -15.35 20.1 -15.5 20.8 M-16.1 20.55 L-16.5 20.3 -16.0 19.7 -15.8 19.8 -16.1 20.55 M-17.6 19.75 L-20.2 18.45 -20.0 17.85 -17.6 18.9 -17.6 19.75 M-6.85 -16.35 L-6.75 -16.6 -6.7 -16.7 -6.4 -16.9 -6.05 -16.7 -5.9 -16.15 -6.05 -15.65 -6.4 -15.45 -6.7 -15.65 -6.85 -16.15 -6.85 -16.35 M16.0 17.5 L17.2 16.95 17.9 16.75 18.35 16.75 18.4 16.7 18.45 17.3 16.15 18.55 16.0 17.5 M1.2 12.15 L1.2 12.1 1.15 12.15 1.2 12.15 M-8.25 -2.65 L-7.85 -2.8 -7.45 -2.65 -7.3 -2.4 -7.45 -2.15 Q-7.65 -2.0 -7.85 -2.0 -8.1 -2.0 -8.25 -2.15 L-8.4 -2.4 -8.25 -2.65 M-7.7 11.75 L-7.8 11.45 -7.7 11.1 -7.45 11.0 Q-7.35 10.95 -7.2 11.1 L-7.1 11.45 -7.2 11.75 -7.45 11.9 -7.7 11.75 M-12.45 5.9 L-12.3 6.25 -12.45 6.55 Q-12.55 6.7 -12.75 6.7 L-13.0 6.55 -13.15 6.25 -13.0 5.9 -12.75 5.8 -12.45 5.9 M-22.15 16.9 L-21.85 16.95 -21.9 17.65 -22.05 17.6 -22.15 16.9 M-21.35 17.2 L-20.6 17.6 -21.15 18.05 -21.35 17.2 M-10.45 21.85 L-9.65 22.3 -10.05 22.7 -10.45 21.85 M-8.9 22.65 L-7.05 23.45 -7.9 23.7 -8.9 22.65 M-12.9 11.05 L-14.15 11.25 -14.6 10.45 -13.75 10.6 -12.9 9.15 -12.45 10.15 -12.9 11.05 M-10.3 17.0 L-10.2 17.5 -10.3 17.95 -10.6 18.15 -10.9 17.95 -11.05 17.5 -10.9 17.0 Q-10.8 16.8 -10.6 16.85 -10.45 16.8 -10.3 17.0 M-7.85 18.65 L-7.15 18.65 -7.15 21.25 -7.85 21.25 -7.85 18.65" fill="#666666" fill-rule="evenodd" stroke="none"/>
    <path d="M17.85 15.7 L18.55 14.7 18.75 15.65 19.3 15.0 19.45 16.55 19.9 16.95 Q19.7 17.1 19.45 17.3 L18.45 17.3 18.4 16.7 18.4 16.65 18.35 16.75 17.9 16.75 17.85 15.7 M16.1 18.8 L15.95 18.85 15.75 18.7 15.7 17.5 15.9 17.3 16.0 17.5 16.15 18.55 16.1 18.8 M15.4 18.8 L15.05 18.9 15.05 17.5 15.4 17.5 15.4 18.8 M14.2 19.0 L14.0 19.95 13.7 19.1 13.3 20.0 13.0 19.0 13.6 18.05 14.1 18.0 14.2 19.0 M12.2 18.85 L13.05 20.1 11.65 18.8 11.3 18.05 12.2 18.85 M1.7 24.25 L0.95 25.65 0.35 25.75 -0.25 25.3 -0.5 24.2 -1.1 23.2 0.3 24.1 0.5 23.35 -0.1 22.15 1.15 23.0 2.05 22.8 1.7 24.25 M-0.5 25.4 L-0.7 25.45 -2.0 24.9 -1.8 24.6 -1.55 24.7 -0.5 25.4 M-2.3 26.05 L-2.7 26.25 -2.55 25.0 -2.2 24.95 -2.3 26.05 M-2.95 26.35 L-3.7 27.35 -3.45 25.35 -2.75 25.05 -2.95 26.35 M-4.1 26.2 L-4.6 27.35 -4.95 25.45 -4.95 24.7 Q-4.6 24.65 -4.35 25.15 -4.1 25.6 -4.1 26.2 M-5.6 25.1 L-5.15 26.1 -6.05 25.0 -7.25 24.05 -8.15 24.6 -9.65 24.95 -9.1 24.3 -9.95 23.85 -9.25 22.6 -9.2 22.5 -9.4 22.55 -10.3 23.6 -10.35 23.6 -10.75 23.3 -10.8 21.75 -10.45 21.85 -10.05 22.7 -9.65 22.3 -8.85 21.75 -8.9 22.65 -7.9 23.7 -7.05 23.45 -5.6 25.1 M-11.75 22.45 L-11.95 23.6 -12.75 23.15 -13.15 22.1 -12.9 21.4 -12.85 20.75 -11.9 21.7 -11.75 21.65 -11.75 22.45 M-14.45 21.25 Q-14.55 22.55 -14.75 22.85 -14.95 23.1 -15.15 22.85 L-15.45 21.85 -15.5 20.8 -15.35 20.1 -15.3 19.15 -16.0 19.7 -16.5 20.3 -16.8 21.05 -17.6 19.75 -17.6 18.9 -16.85 17.65 -16.55 19.55 -14.8 18.5 -14.15 20.7 -14.45 21.25 M-15.75 20.75 L-15.85 20.85 -16.1 20.55 -15.8 19.8 -15.5 20.0 -15.75 20.75 M-20.2 18.45 L-21.35 19.05 -22.15 18.45 -22.55 17.2 -22.5 17.1 -22.15 16.85 -22.15 16.9 -22.05 17.6 -21.9 17.8 -21.9 17.65 -21.85 16.95 -21.35 17.2 -21.15 18.05 -20.6 17.6 -20.0 17.85 -20.2 18.45 M4.6 24.05 L4.1 22.8 5.15 22.8 4.6 24.05 M20.95 17.5 L20.8 17.15 Q20.8 16.95 20.95 16.85 21.05 16.7 21.25 16.7 L21.55 16.85 21.65 17.15 21.55 17.5 21.25 17.6 20.95 17.5" fill="#6bc038" fill-rule="evenodd" stroke="none"/>
    <path d="M19.9 16.95 L20.65 17.35 20.15 18.4 19.35 18.45 19.45 17.3 Q19.7 17.1 19.9 16.95 M21.6 18.25 L22.9 18.3 22.6 18.8 20.85 18.95 21.6 18.25 M2.95 20.8 L3.6 20.2 3.15 21.3 2.95 20.8 M-22.15 18.45 L-22.9 17.75 -22.55 17.2 -22.15 18.45 M-21.9 17.65 L-21.9 17.8 -22.05 17.6 -21.9 17.65" fill="#679e30" fill-rule="evenodd" stroke="none"/>
    <path d="M20.15 18.4 L21.6 18.25 20.85 18.95 16.1 18.8 16.15 18.55 18.45 17.3 19.45 17.3 19.35 18.45 20.15 18.4" fill="#4d7423" fill-rule="evenodd" stroke="none"/>
  </g>
</svg>
