<?xml version="1.0" encoding="UTF-8" standalone="no"?>
<svg xmlns:ffdec="https://www.free-decompiler.com/flash" xmlns:xlink="http://www.w3.org/1999/xlink" ffdec:objectType="shape" height="59.2px" width="60.0px" xmlns="http://www.w3.org/2000/svg">
  <g transform="matrix(1.0, 0.0, 0.0, 1.0, 30.0, 16.1)">
    <path d="M3.4 -6.75 L0.45 -9.3 9.65 -6.2 10.3 -11.8 17.85 0.9 17.2 3.85 12.35 -3.25 12.55 4.05 11.2 4.25 Q11.2 3.8 10.7 3.5 10.15 3.15 9.45 3.15 L8.4 -2.6 7.8 1.4 5.65 3.95 2.05 2.95 Q3.7 5.3 5.9 5.3 L4.1 10.45 4.0 12.05 1.35 12.9 -0.4 16.0 -1.2 10.45 -8.95 6.5 -9.0 6.5 -9.0 6.6 -9.0 6.65 -6.7 15.4 -5.35 15.4 -4.35 14.3 -4.05 13.8 -3.45 16.05 -3.5 16.05 -3.45 16.1 0.35 18.65 4.7 14.7 2.65 28.35 -2.15 19.05 -2.85 31.1 -5.3 28.9 -5.4 20.7 -9.1 17.45 -15.25 -0.8 -16.95 5.9 -18.55 4.3 -17.2 8.2 -18.95 10.55 -21.6 7.0 -19.1 12.25 -21.25 12.55 Q-22.3 12.85 -22.45 13.4 -22.65 13.95 -21.8 14.4 L-19.4 14.85 -21.5 19.0 -23.05 16.45 -23.2 16.15 -23.15 16.35 -22.65 19.5 -23.55 24.0 -25.55 23.35 -25.5 15.7 -28.65 15.85 -18.85 2.3 -18.7 2.4 Q-14.65 3.05 -17.15 0.05 L-8.3 -12.75 -4.15 1.85 -3.3 -10.9 -6.75 -13.6 -3.55 -16.0 -1.05 -16.1 -0.55 -4.05 2.8 -6.25 6.05 -4.85 3.4 -6.75 M3.9 -0.2 L3.55 -0.05 Q3.4 0.05 3.4 0.25 L3.55 0.6 3.9 0.7 4.25 0.6 4.4 0.25 4.25 -0.05 3.9 -0.2 M26.05 11.4 L26.4 12.3 Q26.45 13.75 26.75 14.35 L26.95 13.5 29.6 16.1 30.0 23.65 25.4 17.45 26.05 19.4 21.3 8.65 20.1 14.45 19.65 12.8 19.8 8.85 Q19.8 8.15 20.1 7.7 20.35 7.2 20.75 7.2 L26.05 11.4 M8.65 3.95 L8.65 4.4 6.95 4.75 8.65 3.95 M-7.5 8.75 Q-5.95 8.75 -4.85 10.1 -3.75 11.45 -3.75 13.35 L-3.95 13.4 -4.25 11.95 -6.45 13.85 -7.5 8.75 M-15.15 16.25 L-18.3 21.35 -15.0 7.6 -13.05 12.7 -14.6 11.25 -15.15 16.25 M-11.1 14.35 L-10.95 13.3 -10.35 14.75 -11.1 14.35" fill="#999999" fill-rule="evenodd" stroke="none"/>
    <path d="M10.3 -11.8 L9.65 -6.2 0.45 -9.3 3.4 -6.75 -0.55 -4.05 -1.05 -16.1 10.3 -11.8 M-6.75 -13.6 L-3.3 -10.9 -4.15 1.85 -8.3 -12.75 -6.75 -13.6 M-17.15 0.05 Q-14.65 3.05 -18.7 2.4 L-18.85 2.3 -17.15 0.05 M-28.65 15.85 L-25.5 15.7 -26.35 17.35 -29.0 16.05 -28.65 15.85 M-19.4 14.85 L-21.8 14.4 Q-22.65 13.95 -22.45 13.4 -22.3 12.85 -21.25 12.55 L-19.1 12.25 -19.4 14.85 M4.7 14.7 L0.35 18.65 -3.45 16.1 -3.45 16.05 -4.05 13.8 -3.95 13.6 -3.75 13.35 Q-3.75 11.45 -4.85 10.1 -5.95 8.75 -7.5 8.75 L-9.0 6.65 -9.0 6.6 -8.95 6.5 -1.2 10.45 -0.4 16.0 1.35 12.9 4.0 12.05 4.7 14.7 M-4.35 14.3 L-5.35 15.4 -6.5 15.25 -4.35 14.3 M9.45 3.15 Q10.15 3.15 10.7 3.5 11.2 3.8 11.2 4.25 L8.65 4.4 8.65 3.95 9.45 3.15 M22.75 5.35 L26.05 11.4 20.75 7.2 22.75 5.35 M26.4 12.3 L26.95 13.5 26.75 14.35 Q26.45 13.75 26.4 12.3 M19.8 8.85 L19.65 12.8 18.0 8.95 19.5 9.65 19.8 8.85 M-13.05 12.7 L-15.15 16.25 -14.6 11.25 -13.05 12.7 M-11.1 14.35 L-10.35 14.75 -9.75 22.6 -11.6 21.15 -11.1 14.35" fill="#c8c8c8" fill-rule="evenodd" stroke="none"/>
    <path d="M3.4 -6.75 L6.05 -4.85 2.8 -6.25 -0.55 -4.05 3.4 -6.75 M-22.65 19.5 L-23.15 16.35 -23.05 16.45 -21.5 19.0 -19.4 14.85 -19.1 12.25 -21.6 7.0 -18.95 10.55 -17.2 8.2 -18.55 4.3 -16.95 5.9 -15.25 -0.8 -9.1 17.45 -5.4 20.7 -13.6 27.75 -13.1 23.85 -15.3 27.9 -17.4 22.25 -22.65 19.5 M-4.05 13.8 L-4.35 14.3 -6.5 15.25 -6.7 15.4 -9.0 6.65 -7.5 8.75 -6.45 13.85 -4.25 11.95 -3.95 13.4 -3.95 13.6 -4.05 13.8 M-9.0 6.6 L-9.0 6.5 -8.95 6.5 -9.0 6.6 M5.9 5.3 Q3.7 5.3 2.05 2.95 L5.65 3.95 7.8 1.4 8.4 -2.6 9.45 3.15 8.65 3.95 6.95 4.75 5.9 5.3 M12.55 4.05 L12.35 -3.25 17.2 3.85 17.85 0.9 20.8 1.9 22.75 5.35 20.75 7.2 Q20.35 7.2 20.1 7.7 19.8 8.15 19.8 8.85 L19.5 9.65 18.0 8.95 13.65 5.0 12.55 4.05 M3.9 -0.2 L4.25 -0.05 4.4 0.25 4.25 0.6 3.9 0.7 3.55 0.6 3.4 0.25 Q3.4 0.05 3.55 -0.05 L3.9 -0.2 M-30.0 21.9 L-29.0 16.05 -26.35 17.35 Q-26.65 20.25 -29.2 21.45 L-30.0 21.9 M20.1 14.45 L21.3 8.65 26.05 19.4 27.3 21.3 26.55 25.7 20.1 14.45 M17.45 22.65 L22.6 21.7 7.5 29.4 9.05 25.4 14.2 24.0 17.45 22.65 M15.65 24.0 L15.7 24.0 15.65 23.95 15.65 24.0 M-13.05 12.7 L-15.0 7.6 -18.3 21.35 -15.15 16.25 -13.05 12.7 M-10.35 14.75 L-10.95 13.3 -11.1 14.35 -11.6 21.15 -9.75 22.6 -10.35 14.75" fill="#646464" fill-rule="evenodd" stroke="none"/>
    <path d="M-25.5 15.7 L-25.55 23.35 -23.55 24.0 -22.65 19.5 -17.4 22.25 -15.3 27.9 -13.1 23.85 -13.6 27.75 -5.4 20.7 -5.3 28.9 -2.85 31.1 -2.15 19.05 2.65 28.35 4.7 14.7 4.0 12.05 4.1 10.45 6.85 24.1 14.2 24.0 9.05 25.4 7.5 29.4 22.6 21.7 17.45 22.65 21.8 20.15 12.85 16.25 10.85 12.95 11.15 7.0 13.65 5.0 18.0 8.95 19.65 12.8 20.1 14.45 26.55 25.7 27.3 21.3 26.05 19.4 25.4 17.45 30.0 23.65 30.0 32.75 0.0 43.1 -30.0 32.75 -30.0 21.9 -29.2 21.45 Q-26.65 20.25 -26.35 17.35 L-25.5 15.7 M-23.15 16.35 L-23.2 16.15 -23.05 16.45 -23.15 16.35 M-3.45 16.1 L-3.5 16.05 -3.45 16.05 -3.45 16.1 M17.3 15.95 L17.1 16.45 17.3 16.95 Q17.5 17.15 17.75 17.15 L18.2 16.95 18.4 16.45 18.2 15.95 17.75 15.75 17.3 15.95 M10.05 10.4 Q8.5 14.15 8.3 8.05 L10.35 7.9 10.05 10.4 M15.65 24.0 L15.65 23.95 15.7 24.0 15.65 24.0" fill="#333333" fill-rule="evenodd" stroke="none"/>
    <path d="M4.1 10.45 L5.9 5.3 6.95 4.75 8.65 4.4 11.2 4.25 12.55 4.05 13.65 5.0 11.15 7.0 10.85 12.95 12.85 16.25 21.8 20.15 17.45 22.65 14.2 24.0 6.85 24.1 4.1 10.45 M10.05 10.4 L10.35 7.9 8.3 8.05 Q8.5 14.15 10.05 10.4 M17.3 15.95 L17.75 15.75 18.2 15.95 18.4 16.45 18.2 16.95 17.75 17.15 Q17.5 17.15 17.3 16.95 L17.1 16.45 17.3 15.95" fill="#000000" fill-rule="evenodd" stroke="none"/>
    <path d="M-5.35 15.4 L-6.7 15.4 -6.5 15.25 -5.35 15.4 M-3.95 13.4 L-3.75 13.35 -3.95 13.6 -3.95 13.4" fill="#888888" fill-rule="evenodd" stroke="none"/>
  </g>
</svg>
