<?xml version="1.0" encoding="UTF-8" standalone="no"?>
<svg xmlns:ffdec="https://www.free-decompiler.com/flash" xmlns:xlink="http://www.w3.org/1999/xlink" ffdec:objectType="shape" height="41.2px" width="45.45px" xmlns="http://www.w3.org/2000/svg">
  <g transform="matrix(1.0, 0.0, 0.0, 1.0, 22.6, 20.65)">
    <path d="M2.15 -15.45 L1.7 -15.85 -1.25 -16.25 2.15 -15.45 M3.8 -2.6 L2.3 -0.4 1.35 0.45 0.9 0.3 -1.7 -0.7 6.85 -11.5 6.3 -12.0 -2.25 -1.65 -7.0 -2.95 -0.15 -13.05 -7.75 -3.3 -11.35 -3.65 -14.1 -4.65 -6.3 -15.0 -15.25 -5.05 -17.95 -6.1 -19.2 -6.8 -10.75 -18.25 -19.5 -7.65 -21.35 -8.15 -19.65 -9.8 -17.05 -13.4 -10.85 -20.4 -8.4 -20.65 12.45 -14.1 22.8 -5.65 11.95 -12.35 11.1 -11.8 9.05 -9.75 8.85 -9.25 7.7 -8.4 3.8 -2.6 M-7.75 -18.1 L-7.05 -18.25 -9.9 -18.95 -7.75 -18.1" fill="#d5c6b5" fill-rule="evenodd" stroke="none"/>
    <path d="M2.15 -15.45 L-1.25 -16.25 1.7 -15.85 2.15 -15.45 M22.05 -4.5 L11.75 -11.55 3.8 -2.6 7.7 -8.4 8.85 -9.25 9.05 -9.75 11.1 -11.8 11.95 -12.35 22.8 -5.65 22.85 -5.05 22.05 -4.5 M-1.7 -0.7 L-11.35 -3.65 -7.75 -3.3 -0.15 -13.05 -7.0 -2.95 -2.25 -1.65 6.3 -12.0 6.85 -11.5 -1.7 -0.7 M-14.1 -4.65 L-15.25 -5.05 -6.3 -15.0 -14.1 -4.65 M-17.95 -6.1 L-22.05 -7.05 -21.35 -8.15 -19.5 -7.65 -10.75 -18.25 -19.2 -6.8 -17.95 -6.1 M-7.75 -18.1 L-9.9 -18.95 -7.05 -18.25 -7.75 -18.1" fill="#8a734f" fill-rule="evenodd" stroke="none"/>
    <path d="M21.4 -4.25 L20.35 -5.05 11.75 -10.25 11.25 -9.6 11.3 -3.15 13.1 -3.45 13.3 -7.9 13.45 -3.55 17.65 -4.7 4.9 1.0 4.15 0.9 6.3 -2.3 4.85 0.25 7.35 -1.1 7.7 -3.35 7.6 -1.25 9.3 -2.05 9.4 -6.7 9.5 -2.2 10.75 -2.85 11.15 -9.45 10.0 -7.95 2.35 2.3 -22.6 -5.35 -22.6 -6.65 -22.05 -7.05 -17.95 -6.1 -15.25 -5.05 -14.1 -4.65 -11.35 -3.65 -1.7 -0.7 0.9 0.3 1.35 0.45 2.3 -0.4 3.8 -2.6 11.75 -11.55 22.05 -4.5 21.4 -4.25 M18.3 -2.55 L18.3 -1.85 16.3 -0.75 16.2 14.05 15.6 5.7 15.8 -0.7 13.85 0.15 13.35 3.15 13.2 0.4 11.15 1.15 11.15 2.7 11.05 2.9 10.8 2.85 10.8 1.35 7.9 2.55 7.5 4.8 7.45 4.7 7.35 2.9 5.4 3.65 5.3 17.55 4.95 17.75 4.4 4.05 17.8 -2.6 16.75 -1.9 18.3 -2.55 M-2.55 2.35 L-2.65 18.35 -3.25 18.15 -2.7 2.35 -2.55 2.35 M9.45 5.65 L9.4 7.55 10.4 7.6 10.25 5.15 10.8 4.75 10.5 7.8 9.0 7.9 9.45 5.65 M11.8 4.3 L11.8 4.25 11.85 4.35 12.05 4.75 11.95 6.55 11.8 4.3 M12.15 8.2 L13.3 8.25 13.25 10.55 12.1 10.5 12.15 8.2 M12.35 10.25 L13.0 10.25 13.05 8.35 12.4 8.35 12.35 10.25 M10.75 9.15 L10.75 11.45 9.1 11.4 9.1 9.1 10.75 9.15 M9.35 9.35 L9.35 11.15 10.3 11.2 10.3 9.4 9.35 9.35 M-16.15 1.35 L-15.95 -1.15 -15.95 1.45 -16.15 1.35 M-16.0 7.5 L-15.65 8.15 -16.0 12.85 -16.0 7.5 M-17.0 1.6 L-16.9 5.25 -15.0 5.9 -15.4 6.65 -17.25 6.2 -17.7 1.35 -17.0 1.6 M-8.1 3.35 L-8.4 3.35 -8.35 1.05 -8.1 3.35 M-9.45 3.2 L-9.3 7.6 -6.55 8.5 -6.7 9.35 -7.85 9.35 -8.2 15.85 -8.2 8.9 -10.05 8.35 -9.45 3.2 M12.45 11.85 L12.4 13.2 13.0 13.2 13.05 11.85 12.45 11.85 M13.25 11.75 L13.4 12.7 13.2 13.65 12.7 14.0 12.2 13.6 12.0 12.65 Q12.0 12.1 12.25 11.7 L12.75 11.35 13.25 11.75 M9.8 13.15 L9.55 14.45 10.35 14.2 10.6 12.95 9.8 13.15 M10.75 14.5 L9.45 14.85 9.25 13.15 10.75 12.25 10.75 14.5" fill="#584932" fill-rule="evenodd" stroke="none"/>
    <path d="M11.25 -9.6 L11.75 -10.25 20.35 -5.05 21.4 -4.25 21.45 12.9 18.05 14.25 17.75 14.35 17.6 14.55 14.65 15.9 9.6 17.7 6.65 18.4 Q5.65 18.75 4.8 19.35 2.35 21.0 -0.3 20.4 L-2.95 20.0 -5.25 19.4 -19.5 14.4 -19.6 14.35 -20.6 13.9 -20.4 12.5 -20.9 -3.5 -21.85 -4.25 -22.0 -4.35 -22.05 -4.35 -22.6 -4.85 -22.6 -5.35 2.35 2.3 10.0 -7.95 6.3 -2.3 4.15 0.9 3.65 1.7 3.5 17.1 3.55 18.35 4.95 17.75 5.3 17.55 7.75 16.35 7.5 6.2 Q7.55 4.8 8.5 3.8 9.45 2.8 10.8 2.85 L11.05 2.9 11.15 2.7 14.2 3.85 15.3 14.35 16.2 14.05 18.1 13.35 18.3 -1.85 18.3 -2.55 18.35 -5.05 11.25 -9.6 M18.6 -4.9 L18.65 -3.5 18.8 -4.7 19.1 13.5 Q20.05 13.05 20.95 12.65 L20.4 -4.5 18.6 -4.9 M0.6 2.35 L0.55 3.35 -2.55 2.35 -2.7 2.35 -3.35 2.5 -15.95 -1.15 -17.4 -1.6 -17.75 -0.8 -17.4 0.9 -16.15 1.35 -15.95 1.45 -14.3 1.95 -15.05 7.85 -16.0 7.4 -16.0 7.3 -16.0 7.35 -17.4 7.05 -17.25 12.45 -3.25 18.15 -2.65 18.35 -2.6 18.4 -2.55 18.5 -0.15 19.1 0.3 19.35 0.3 19.4 0.35 19.5 2.8 19.1 3.0 2.45 1.55 2.8 0.8 2.4 0.6 2.35 M11.8 4.3 L11.0 3.75 9.45 5.1 7.95 6.85 8.4 16.4 14.5 13.15 14.6 12.8 14.6 12.4 14.75 9.95 Q14.7 7.7 13.85 5.7 L11.85 4.35 11.8 4.25 11.8 4.3 M-17.0 1.6 L-17.7 1.35 -17.25 6.2 -15.4 6.65 -15.0 5.9 -16.9 5.25 -17.0 1.6 M-8.4 3.35 L-8.1 3.35 -6.95 3.6 -6.55 8.5 -9.3 7.6 -9.45 3.2 -8.4 3.35 M-20.35 -3.15 L-19.9 13.05 -18.05 13.9 -18.45 11.9 -18.45 -1.9 -20.35 -3.15" fill="#000000" fill-rule="evenodd" stroke="none"/>
    <path d="M10.0 -7.95 L11.15 -9.45 10.75 -2.85 9.5 -2.2 9.4 -6.7 9.3 -2.05 7.6 -1.25 7.7 -3.35 7.35 -1.1 4.85 0.25 6.3 -2.3 10.0 -7.95 M4.15 0.9 L4.9 1.0 17.65 -4.7 13.45 -3.55 13.3 -7.9 13.1 -3.45 11.3 -3.15 11.25 -9.6 18.35 -5.05 18.3 -2.55 16.75 -1.9 17.8 -2.6 4.4 4.05 4.95 17.75 3.55 18.35 3.5 17.1 3.65 1.7 4.15 0.9 M18.3 -1.85 L18.1 13.35 16.2 14.05 15.3 14.35 14.2 3.85 11.15 2.7 11.15 1.15 13.2 0.4 13.35 3.15 13.85 0.15 15.8 -0.7 15.6 5.7 16.2 14.05 16.3 -0.75 18.3 -1.85 M10.8 2.85 Q9.45 2.8 8.5 3.8 7.55 4.8 7.5 6.2 L7.75 16.35 5.3 17.55 5.4 3.65 7.35 2.9 7.45 4.7 7.5 4.8 7.9 2.55 10.8 1.35 10.8 2.85 M18.6 -4.9 L20.4 -4.5 20.95 12.65 Q20.05 13.05 19.1 13.5 L18.8 -4.7 18.65 -3.5 18.6 -4.9 M0.55 5.85 L0.8 2.65 0.8 2.4 1.55 2.8 3.0 2.45 2.8 19.1 0.35 19.5 0.55 5.85 M-2.6 18.4 L-2.55 18.45 -2.55 18.5 -2.6 18.4 M9.45 5.65 L9.0 7.9 10.5 7.8 10.8 4.75 10.25 5.15 9.45 5.1 9.45 5.65 M11.85 4.35 L13.85 5.7 Q14.7 7.7 14.75 9.95 L14.6 12.4 14.6 12.8 14.5 13.15 8.4 16.4 7.95 6.85 9.45 5.1 11.0 3.75 11.8 4.3 11.95 6.55 Q12.5 7.6 12.8 6.55 L12.9 6.35 12.05 4.75 11.85 4.35 M12.15 8.2 L12.1 10.5 13.25 10.55 13.3 8.25 12.15 8.2 M10.75 9.15 L9.1 9.1 9.1 11.4 10.75 11.45 10.75 9.15 M-22.05 -4.3 L-22.05 -4.35 -22.0 -4.35 -22.05 -4.3 M-19.5 14.4 L-19.35 14.45 -19.6 14.35 -19.5 14.4 M13.25 11.75 L12.75 11.35 12.25 11.7 Q12.0 12.1 12.0 12.65 L12.2 13.6 12.7 14.0 13.2 13.65 13.4 12.7 13.25 11.75 M10.75 14.5 L10.75 12.25 9.25 13.15 9.45 14.85 10.75 14.5" fill="#c7bd9e" fill-rule="evenodd" stroke="none"/>
    <path d="M0.55 3.35 L0.55 4.0 0.15 17.9 0.3 19.35 -0.15 19.1 -2.55 18.5 -2.55 18.45 -2.6 18.4 -2.65 18.35 -2.55 2.35 0.55 3.35 M-16.15 1.35 L-17.4 0.9 -17.75 -0.8 -17.4 -1.6 -15.95 -1.15 -3.35 2.5 -2.7 2.35 -3.25 18.15 -17.25 12.45 -17.4 7.05 -16.0 7.35 -16.0 7.5 -16.0 7.4 -15.05 7.85 -14.3 1.95 -15.95 1.45 -15.95 -1.15 -16.15 1.35 M-16.0 7.5 L-16.0 12.85 -15.65 8.15 -16.0 7.5 M-8.1 3.35 L-8.35 1.05 -8.4 3.35 -9.45 3.2 -10.05 8.35 -8.2 8.9 -8.2 15.85 -7.85 9.35 -6.7 9.35 -6.55 8.5 -6.95 3.6 -8.1 3.35 M-20.35 -3.15 L-18.45 -1.9 -18.45 11.9 -18.05 13.9 -19.9 13.05 -20.35 -3.15" fill="#ac986a" fill-rule="evenodd" stroke="none"/>
    <path d="M0.55 4.0 L0.55 3.35 0.6 2.35 0.8 2.65 0.55 5.85 0.55 4.0 M10.25 5.15 L10.4 7.6 9.4 7.55 9.45 5.65 9.45 5.1 10.25 5.15 M12.05 4.75 L12.9 6.35 12.8 6.55 Q12.5 7.6 11.95 6.55 L12.05 4.75 M12.35 10.25 L12.4 8.35 13.05 8.35 13.0 10.25 12.35 10.25 M9.35 9.35 L10.3 9.4 10.3 11.2 9.35 11.15 9.35 9.35 M-21.85 -4.25 L-22.05 -4.3 -22.0 -4.35 -21.85 -4.25 M12.45 11.85 L13.05 11.85 13.0 13.2 12.4 13.2 12.45 11.85 M9.8 13.15 L10.6 12.95 10.35 14.2 9.55 14.45 9.8 13.15" fill="#a49460" fill-rule="evenodd" stroke="none"/>
    <path d="M0.8 2.65 L0.6 2.35 0.8 2.4 0.8 2.65" fill="#b8ab83" fill-rule="evenodd" stroke="none"/>
    <path d="M0.55 4.0 L0.55 5.85 0.35 19.5 0.3 19.4 0.3 19.35 0.15 17.9 0.55 4.0" fill="#7d6d4a" fill-rule="evenodd" stroke="none"/>
    <path d="M-16.0 7.4 L-16.0 7.5 -16.0 7.35 -16.0 7.3 -16.0 7.4" fill="#91814f" fill-rule="evenodd" stroke="none"/>
  </g>
</svg>
