<?xml version="1.0" encoding="UTF-8" standalone="no"?>
<svg xmlns:ffdec="https://www.free-decompiler.com/flash" xmlns:xlink="http://www.w3.org/1999/xlink" ffdec:objectType="shape" height="22.15px" width="28.7px" xmlns="http://www.w3.org/2000/svg">
  <g transform="matrix(1.0, 0.0, 0.0, 1.0, 6.75, 19.25)">
    <path d="M21.2 -18.1 L21.75 -19.0 20.8 -18.1 19.65 -17.05 19.0 -16.55 18.35 -15.95 17.7 -15.4 12.05 -10.85 8.05 -7.7 7.6 -7.3 7.7 -7.75 7.9 -7.95 12.05 -11.25 17.75 -15.85 21.95 -19.25 21.8 -19.0 21.65 -18.7 21.55 -18.45 20.5 -16.75 19.3 -15.05 18.4 -13.8 17.15 -12.25 15.4 -10.25 13.4 -8.25 11.35 -6.15 9.7 -4.45 9.1 -3.75 8.95 -3.6 8.2 -2.95 8.2 -3.6 8.95 -4.25 10.5 -5.65 10.9 -6.0 11.2 -6.25 11.7 -6.75 14.35 -9.4 16.45 -11.8 18.25 -13.9 19.1 -14.9 19.95 -16.15 20.6 -17.2 21.2 -18.1 M2.25 -1.2 L-0.8 -1.5 -0.55 -1.2 -0.4 -0.75 Q-0.5 0.0 -1.2 0.35 L-1.2 1.5 -1.6 2.9 -1.75 2.75 Q-1.4 2.1 -1.45 1.55 L-1.75 -0.15 -1.85 -0.45 -1.9 -0.9 -2.1 0.0 -2.2 0.4 -2.5 1.3 -3.2 2.7 -3.3 2.7 -2.55 0.3 -2.85 0.2 -2.95 0.15 Q-3.6 -0.15 -3.75 -0.85 L-2.75 -1.9 Q-4.05 -2.3 -5.25 -2.95 -6.35 -3.6 -6.75 -4.7 L-6.7 -4.75 -6.65 -4.75 -6.6 -4.8 -6.3 -4.75 -6.25 -4.55 Q-5.15 -3.6 -3.85 -3.0 L-2.2 -2.35 -2.15 -2.4 -1.85 -2.7 -1.7 -2.6 -1.55 -2.5 -1.5 -2.4 -1.5 -2.15 3.25 -1.75 3.6 -1.2 2.25 -1.2 M7.3 -1.9 L7.3 -1.95 7.4 -2.0 8.15 -1.75 8.55 -1.45 8.6 -1.25 8.6 -1.1 8.55 -0.85 8.35 -0.8 8.2 -1.0 7.55 -1.45 7.25 -1.85 7.3 -1.9 M-2.65 -0.2 L-2.4 -0.1 -2.2 -1.65 -2.35 -1.8 -3.3 -0.8 -2.65 -0.2 M-1.05 -0.25 L-0.7 -0.7 -1.5 -1.55 -1.25 -0.1 -1.15 -0.15 -1.05 -0.25" fill="#666666" fill-rule="evenodd" stroke="none"/>
    <path d="M7.6 -7.3 L8.05 -7.7 12.05 -10.85 17.7 -15.4 18.35 -15.95 19.0 -16.55 19.65 -17.05 20.8 -18.1 21.75 -19.0 21.2 -18.1 20.9 -17.8 20.2 -17.0 19.6 -16.1 19.0 -15.15 18.1 -14.0 17.6 -13.35 16.8 -12.45 15.95 -11.5 15.05 -10.5 14.35 -9.7 13.5 -8.9 12.55 -8.05 11.55 -7.2 8.9 -5.15 8.1 -4.6 7.6 -7.3 M8.15 -4.15 L8.2 -4.1 8.15 -4.0 8.15 -4.15" fill="#ffffff" fill-rule="evenodd" stroke="none"/>
    <path d="M21.2 -18.1 L20.6 -17.2 19.95 -16.15 19.1 -14.9 18.25 -13.9 16.45 -11.8 14.35 -9.4 11.7 -6.75 11.2 -6.25 10.9 -6.0 10.5 -5.65 8.95 -4.25 8.2 -3.6 8.15 -4.0 8.2 -4.1 8.15 -4.15 8.1 -4.6 8.9 -5.15 11.55 -7.2 12.55 -8.05 13.5 -8.9 14.35 -9.7 15.05 -10.5 15.95 -11.5 16.8 -12.45 17.6 -13.35 18.1 -14.0 19.0 -15.15 19.6 -16.1 20.2 -17.0 20.9 -17.8 21.2 -18.1" fill="#cccccc" fill-rule="evenodd" stroke="none"/>
  </g>
</svg>
