<?xml version="1.0" encoding="UTF-8" standalone="no"?>
<svg xmlns:ffdec="https://www.free-decompiler.com/flash" xmlns:xlink="http://www.w3.org/1999/xlink" ffdec:objectType="shape" height="42.8px" width="45.55px" xmlns="http://www.w3.org/2000/svg">
  <g transform="matrix(1.0, 0.0, 0.0, 1.0, 22.85, 33.0)">
    <path d="M0.1 -28.65 L0.65 -29.75 1.1 -29.55 1.0 -28.35 0.75 -27.65 0.65 -27.55 0.45 -27.55 0.35 -27.65 0.15 -28.05 0.1 -28.65 M-7.35 -31.15 L-6.95 -32.1 -6.6 -30.95 -6.7 -30.75 Q-7.15 -30.65 -7.35 -31.15 M-4.15 -30.05 L-3.7 -31.0 -3.35 -29.75 -3.6 -29.3 -3.9 -29.3 -4.1 -29.65 -4.15 -30.05 M0.35 -26.15 L-9.75 -17.85 -9.9 -18.35 -7.55 -20.75 0.3 -26.15 0.35 -26.2 0.35 -26.15 M5.0 -28.2 L5.35 -28.1 5.45 -26.75 4.65 -27.15 5.0 -28.2 M10.6 -26.1 L11.0 -25.95 11.15 -25.05 10.05 -24.55 9.5 -25.2 10.05 -25.9 10.6 -26.1 M11.85 -25.55 L21.55 -20.35 12.0 -24.85 11.85 -25.55 M0.0 -14.9 L-1.55 -14.15 5.45 -21.15 8.35 -23.4 9.6 -23.95 0.0 -14.9 M-3.8 -28.1 L-3.85 -28.0 -11.5 -20.85 -12.1 -20.65 -13.85 -19.45 -11.5 -22.05 -3.85 -28.0 -3.8 -28.1 M-5.3 -16.1 L-5.3 -16.9 4.2 -25.45 -1.9 -18.8 -5.3 -16.1 M-18.1 -20.65 L-16.0 -23.25 -7.5 -29.55 -16.5 -21.7 -18.1 -20.65" fill="#6b4b01" fill-rule="evenodd" stroke="none"/>
    <path d="M0.65 -29.75 L0.1 -28.65 -3.35 -29.75 -3.7 -31.0 -4.15 -30.05 -6.6 -30.95 -6.95 -32.1 -7.35 -31.15 -8.3 -31.4 -8.2 -32.3 -7.75 -32.5 0.65 -29.75 M0.35 -27.65 L0.45 -27.55 0.65 -27.55 3.95 -26.35 Q5.05 -25.9 6.05 -25.8 L8.2 -24.9 8.25 -24.45 -2.3 -14.65 -18.6 -20.55 -21.15 -22.05 -10.3 -29.95 -10.25 -30.0 Q-9.5 -30.6 -8.6 -30.55 L-5.7 -29.75 0.35 -27.65 M1.0 -28.35 L1.1 -29.55 5.0 -28.2 4.65 -27.15 1.0 -28.35 M0.35 -26.15 L0.35 -26.2 0.3 -26.15 -7.55 -20.75 -9.9 -18.35 -9.75 -17.85 0.35 -26.15 M5.35 -28.1 L10.6 -26.1 10.05 -25.9 9.5 -25.2 5.45 -26.75 5.35 -28.1 M-3.8 -28.1 L-3.85 -28.0 -11.5 -22.05 -13.85 -19.45 -12.1 -20.65 -11.5 -20.85 -3.85 -28.0 -3.8 -28.1 M-5.3 -16.1 L-1.9 -18.8 4.2 -25.45 -5.3 -16.9 -5.3 -16.1 M-18.1 -20.65 L-16.5 -21.7 -7.5 -29.55 -16.0 -23.25 -18.1 -20.65" fill="#cc9900" fill-rule="evenodd" stroke="none"/>
    <path d="M0.1 -28.65 L0.15 -28.05 0.35 -27.65 -5.7 -29.75 -8.6 -30.55 Q-9.5 -30.6 -10.25 -30.0 L-10.3 -29.95 -21.15 -22.05 -18.6 -20.55 -2.3 -14.65 8.25 -24.45 8.2 -24.9 6.05 -25.8 Q5.05 -25.9 3.95 -26.35 L0.65 -27.55 0.75 -27.65 1.0 -28.35 4.65 -27.15 5.45 -26.75 9.5 -25.2 10.05 -24.55 11.15 -25.05 11.0 -25.95 10.6 -26.1 5.35 -28.1 5.0 -28.2 1.1 -29.55 0.65 -29.75 -7.75 -32.5 -8.2 -32.3 -8.3 -31.4 -7.35 -31.15 Q-7.15 -30.65 -6.7 -30.75 L-6.6 -30.95 -4.15 -30.05 -4.1 -29.65 -3.9 -29.3 -3.6 -29.3 -3.35 -29.75 0.1 -28.65 M11.85 -25.55 L12.0 -24.85 21.55 -20.35 11.85 -25.55 M19.8 -17.5 L19.1 -19.8 11.05 -23.9 10.55 -23.2 Q11.7 -23.2 12.5 -22.45 13.3 -21.7 13.3 -20.65 L13.05 -13.55 8.1 -11.75 7.75 -12.3 7.7 -18.05 8.85 -21.65 -0.15 -14.35 -0.15 -11.65 0.1 6.85 0.05 8.95 4.15 7.5 4.25 5.6 4.3 5.55 Q4.5 5.3 4.3 5.2 L4.2 -6.55 16.8 -10.65 16.9 3.1 19.6 2.45 19.9 0.45 19.9 0.2 19.8 -17.5 M10.55 -23.2 L10.5 -23.2 10.55 -23.2 M8.8 -14.25 L9.15 -13.1 12.0 -14.25 12.05 -21.35 10.55 -22.1 10.1 -22.05 8.95 -20.1 8.8 -14.25 M0.0 -14.9 L9.6 -23.95 8.35 -23.4 5.45 -21.15 -1.55 -14.15 0.0 -14.9 M5.35 -4.7 L5.35 -4.35 5.25 0.45 5.3 -0.7 5.35 -0.05 5.35 0.35 5.45 3.05 5.5 3.4 5.6 4.8 7.1 4.8 8.3 4.1 8.75 4.1 9.95 3.4 10.4 3.4 13.0 2.2 13.3 -7.95 Q9.55 -7.5 6.4 -5.85 L5.4 -5.75 5.35 -4.7 M14.05 -8.05 L14.15 -7.6 14.35 1.85 15.55 2.6 15.5 -8.7 14.05 -8.05 M22.7 -20.1 L21.45 -18.8 20.7 -18.8 20.7 2.65 16.3 4.5 15.75 4.2 13.4 3.5 13.0 3.7 11.45 3.95 9.95 4.6 9.4 4.6 5.7 6.15 5.45 7.25 5.65 7.8 -0.05 9.8 -3.05 8.85 -4.6 8.45 -7.3 7.45 -11.9 5.65 -18.9 3.05 -21.25 2.25 -20.95 -19.3 -22.85 -19.85 -22.2 -22.15 -19.3 -23.9 -8.55 -33.0 10.6 -26.9 22.4 -21.2 22.7 -20.1 M-4.75 -12.05 Q-4.75 -12.75 -5.35 -13.25 -6.0 -13.8 -6.85 -13.8 L-7.45 -13.95 -7.35 -12.15 -5.0 -11.35 -4.75 -12.05 M-0.7 6.6 L-1.0 -13.2 -1.5 -12.85 -4.0 -12.85 -4.3 -10.15 -8.5 -11.5 -8.55 -14.05 -13.1 -16.5 -13.35 -13.2 -17.6 -14.25 -17.9 -17.95 -19.85 -18.95 -20.45 -0.2 Q-20.45 0.9 -19.95 1.7 -19.45 2.45 -18.75 2.45 L-14.45 4.0 -11.3 4.85 Q-8.65 5.6 -6.15 6.75 L-3.3 8.0 -0.6 8.75 -0.7 6.85 -0.65 6.65 -0.7 6.6 M-16.3 -17.6 L-17.1 -17.85 -17.0 -15.5 -14.25 -14.45 -13.9 -15.25 Q-13.9 -16.2 -14.6 -16.9 -15.3 -17.6 -16.3 -17.6 M-15.7 -6.7 L-16.35 -6.65 -16.4 -1.5 Q-15.9 -1.05 -15.2 -1.05 -14.1 -0.9 -14.3 -2.0 L-14.15 -5.7 -15.7 -6.7 M-13.45 -6.75 L-13.7 -0.5 -13.8 0.3 -17.35 -1.1 -17.05 -8.25 -13.45 -6.75 M-4.85 -4.8 L-3.85 -3.75 -4.25 4.0 -8.55 2.25 -7.4 -5.7 -4.85 -4.8 M-5.15 1.55 L-4.7 -3.3 -6.7 -4.25 -7.2 -4.2 -7.6 -0.5 -7.6 1.35 -7.65 1.55 -5.4 2.0 Q-4.9 2.15 -5.15 1.55" fill="#000000" fill-rule="evenodd" stroke="none"/>
    <path d="M10.55 -22.1 L12.05 -21.35 12.0 -14.25 9.15 -13.1 8.8 -14.25 10.95 -14.85 11.25 -21.5 10.55 -22.1 M9.8 -4.05 Q9.45 -4.4 9.45 -4.9 9.45 -5.4 9.8 -5.7 10.1 -6.05 10.6 -6.05 11.1 -6.05 11.45 -5.7 L11.75 -4.9 11.45 -4.05 Q11.1 -3.75 10.6 -3.75 10.1 -3.75 9.8 -4.05 M5.35 -4.35 L6.6 -4.55 6.7 -2.8 5.5 -2.25 5.45 -1.55 7.35 -2.05 7.25 -5.25 6.5 -5.2 6.25 -4.95 5.35 -4.7 5.4 -5.75 6.4 -5.85 Q9.55 -7.5 13.3 -7.95 L13.0 2.2 10.4 3.4 9.95 3.4 8.75 4.1 8.3 4.1 7.1 4.8 5.6 4.8 5.5 3.4 6.35 3.4 7.6 2.8 7.55 -0.8 5.35 -0.05 5.3 -0.7 5.25 0.45 5.35 -4.35 M5.45 3.05 L5.35 0.35 7.0 0.15 7.0 2.15 5.45 3.05 M8.95 -5.8 L9.15 -2.75 11.4 -3.45 12.0 -3.25 12.4 -6.85 8.95 -5.8 M9.75 -0.15 Q9.75 -0.65 10.05 -0.95 10.3 -1.3 10.65 -1.3 L11.3 -0.95 11.55 -0.15 11.3 0.7 10.65 1.0 Q10.3 1.0 10.05 0.7 9.75 0.35 9.75 -0.15 M14.05 -8.05 L15.5 -8.7 15.55 2.6 14.35 1.85 14.15 -7.6 14.05 -8.05 M11.95 -2.15 L9.15 -1.1 9.25 2.0 12.05 1.35 11.95 -2.15 M-4.75 -12.05 L-5.0 -11.35 -7.35 -12.15 -7.45 -13.95 -6.85 -13.8 Q-6.85 -13.1 -6.2 -12.55 -5.6 -12.05 -4.75 -12.05 M-13.9 -15.25 L-14.25 -14.45 -17.0 -15.5 -17.1 -17.85 -16.3 -17.6 -16.4 -16.15 -13.9 -15.25 M-14.3 -2.0 Q-14.1 -0.9 -15.2 -1.05 -15.9 -1.05 -16.4 -1.5 L-16.35 -6.65 -15.7 -6.7 -16.0 -6.15 -15.85 -2.3 -14.3 -2.0 M-5.15 1.55 Q-4.9 2.15 -5.4 2.0 L-7.65 1.55 -7.6 1.35 -7.6 -0.5 -7.2 -4.2 -6.7 -4.25 -6.95 1.05 -5.15 1.55" fill="#858585" fill-rule="evenodd" stroke="none"/>
    <path d="M19.9 0.2 L19.9 0.45 18.6 1.15 17.0 1.55 19.9 0.2 M4.3 5.2 Q4.5 5.3 4.3 5.55 L4.25 5.6 2.8 6.2 0.1 6.85 4.3 5.2 M10.55 -22.1 L11.25 -21.5 10.95 -14.85 8.8 -14.25 8.95 -20.1 10.1 -22.05 10.55 -22.1 M9.8 -4.05 Q10.1 -3.75 10.6 -3.75 11.1 -3.75 11.45 -4.05 L11.75 -4.9 11.45 -5.7 Q11.1 -6.05 10.6 -6.05 10.1 -6.05 9.8 -5.7 9.45 -5.4 9.45 -4.9 9.45 -4.4 9.8 -4.05 M5.35 -4.35 L5.35 -4.7 6.25 -4.95 6.5 -5.2 7.25 -5.25 7.35 -2.05 5.45 -1.55 5.5 -2.25 6.7 -2.8 6.6 -4.55 5.35 -4.35 M5.5 3.4 L5.45 3.05 7.0 2.15 7.0 0.15 5.35 0.35 5.35 -0.05 7.55 -0.8 7.6 2.8 6.35 3.4 5.5 3.4 M9.75 -0.15 Q9.75 0.35 10.05 0.7 10.3 1.0 10.65 1.0 L11.3 0.7 11.55 -0.15 11.3 -0.95 10.65 -1.3 Q10.3 -1.3 10.05 -0.95 9.75 -0.65 9.75 -0.15 M8.95 -5.8 L12.4 -6.85 12.0 -3.25 11.4 -3.45 9.15 -2.75 8.95 -5.8 M18.5 -1.3 L18.25 -1.25 Q17.85 -1.25 17.55 -1.75 17.25 -2.3 17.25 -3.0 17.25 -3.7 17.55 -4.2 17.85 -4.75 18.25 -4.75 L18.35 -4.75 18.5 -1.3 M11.95 -2.15 L12.05 1.35 9.25 2.0 9.15 -1.1 11.95 -2.15 M-6.85 -13.8 Q-6.0 -13.8 -5.35 -13.25 -4.75 -12.75 -4.75 -12.05 -5.6 -12.05 -6.2 -12.55 -6.85 -13.1 -6.85 -13.8 M-0.7 6.6 L-0.65 6.65 -0.7 6.85 -3.8 6.0 -5.1 5.5 -8.3 4.3 -13.0 2.65 -15.4 1.85 -18.4 0.75 -20.45 -0.2 -0.7 6.6 M-13.9 -15.25 L-16.4 -16.15 -16.3 -17.6 Q-15.3 -17.6 -14.6 -16.9 -13.9 -16.2 -13.9 -15.25 M-14.3 -2.0 L-15.85 -2.3 -16.0 -6.15 -15.7 -6.7 -14.15 -5.7 -14.3 -2.0 M-6.7 -4.25 L-4.7 -3.3 -5.15 1.55 -6.95 1.05 -6.7 -4.25" fill="#404040" fill-rule="evenodd" stroke="none"/>
    <path d="M10.55 -23.2 L11.05 -23.9 19.1 -19.8 19.8 -17.5 13.3 -20.65 Q13.3 -21.7 12.5 -22.45 11.7 -23.2 10.55 -23.2 M-0.15 -11.65 L-0.15 -14.35 8.85 -21.65 7.7 -18.05 1.9 -12.8 -0.15 -11.65 M-0.7 6.85 L-0.6 8.75 -3.3 8.0 -6.15 6.75 Q-8.65 5.6 -11.3 4.85 L-14.45 4.0 -18.75 2.45 Q-19.45 2.45 -19.95 1.7 -20.45 0.9 -20.45 -0.2 L-19.85 -18.95 -17.9 -17.95 -17.6 -14.25 -13.35 -13.2 -13.1 -16.5 -8.55 -14.05 -8.5 -11.5 -4.3 -10.15 -4.0 -12.85 -1.5 -12.85 -1.0 -13.2 -0.7 6.6 -20.45 -0.2 -18.4 0.75 -15.4 1.85 -13.0 2.65 -8.3 4.3 -5.1 5.5 -3.8 6.0 -0.7 6.85 M-4.85 -4.8 L-7.4 -5.7 -8.55 2.25 -4.25 4.0 -3.85 -3.75 -4.85 -4.8 M-13.45 -6.75 L-17.05 -8.25 -17.35 -1.1 -13.8 0.3 -13.7 -0.5 -13.45 -6.75" fill="#9a9a9a" fill-rule="evenodd" stroke="none"/>
    <path d="M19.8 -17.5 L19.9 0.2 17.0 1.55 18.6 1.15 19.9 0.45 19.6 2.45 16.9 3.1 16.8 -10.65 4.2 -6.55 4.3 5.2 0.1 6.85 2.8 6.2 4.25 5.6 4.15 7.5 0.05 8.95 0.1 6.85 -0.15 -11.65 1.9 -12.8 7.7 -18.05 7.75 -12.3 8.1 -11.75 13.05 -13.55 13.3 -20.65 19.8 -17.5 M18.5 -1.3 L18.35 -4.75 18.25 -4.75 Q17.85 -4.75 17.55 -4.2 17.25 -3.7 17.25 -3.0 17.25 -2.3 17.55 -1.75 17.85 -1.25 18.25 -1.25 L18.5 -1.3" fill="#cccccc" fill-rule="evenodd" stroke="none"/>
  </g>
</svg>
