<?xml version="1.0" encoding="UTF-8" standalone="no"?>
<svg xmlns:ffdec="https://www.free-decompiler.com/flash" xmlns:xlink="http://www.w3.org/1999/xlink" ffdec:objectType="shape" height="35.8px" width="46.9px" xmlns="http://www.w3.org/2000/svg">
  <g transform="matrix(1.0, 0.0, 0.0, 1.0, 23.45, 17.9)">
    <path d="M3.0 -12.15 L2.9 -12.0 Q2.5 -13.75 3.0 -12.15 M3.0 -15.0 Q3.0 -14.55 2.55 -14.25 2.1 -13.95 1.45 -13.95 L1.55 -14.05 1.55 -14.1 1.4 -15.5 3.0 -15.0 M1.35 -13.7 L2.35 -11.8 -0.95 -9.15 -1.55 -8.7 -9.35 -8.35 -9.85 -8.5 -10.05 -8.9 -10.05 -9.25 -6.35 -10.1 -3.9 -9.3 1.35 -13.7 M-7.4 -5.7 L-11.5 -6.75 -8.9 -6.2 -7.4 -5.7 M-13.6 -7.3 L-13.75 -6.45 -19.2 -8.15 -19.15 -8.4 -15.55 -7.85 -13.6 -7.3 M0.7 -2.5 Q-0.25 -2.5 -0.95 -3.05 -1.65 -3.65 -1.65 -4.45 L-1.35 -4.35 1.35 -3.65 1.25 -2.5 0.7 -2.5 M7.35 -13.1 Q7.05 -13.1 6.85 -13.35 6.6 -13.6 6.6 -13.95 L6.85 -14.55 7.35 -14.8 7.9 -14.55 8.1 -13.95 7.9 -13.35 Q7.65 -13.1 7.35 -13.1 M16.75 -3.1 L16.55 -4.2 17.75 -4.9 17.95 -4.75 17.7 -3.05 16.75 -3.1 M16.8 -9.2 Q15.8 -9.7 14.85 -10.15 L18.85 -8.45 16.8 -9.2 M14.3 -10.35 L9.4 -11.9 3.65 -4.05 3.6 -6.45 6.35 -9.65 9.5 -12.4 14.3 -10.35 M15.9 1.75 L15.9 0.85 16.85 1.0 17.2 1.3 16.85 1.65 15.9 1.75 M2.65 -5.1 L2.7 -5.2 2.7 -5.15 2.65 -5.1 M1.65 -6.1 L1.4 -6.0 Q1.25 -6.0 1.15 -6.1 L1.05 -6.3 1.15 -6.5 1.4 -6.6 1.65 -6.5 1.75 -6.3 1.65 -6.1 M1.8 8.2 L1.5 8.1 1.35 7.75 1.5 7.45 Q1.6 7.3 1.8 7.3 2.0 7.3 2.15 7.45 L2.25 7.75 2.15 8.1 1.8 8.2 M2.85 10.7 Q4.85 12.25 2.15 12.55 L0.75 12.35 2.85 10.7 M-3.95 -5.45 L-3.05 -5.3 -3.3 -4.7 -2.35 -4.6 -5.7 -3.95 -6.15 -4.05 -6.5 -5.5 -3.95 -5.45" fill="#ac986a" fill-rule="evenodd" stroke="none"/>
    <path d="M3.0 -12.15 Q2.5 -13.75 2.9 -12.0 L3.0 -12.15 M2.4 -9.25 L1.7 -8.65 1.1 -8.6 1.0 -8.65 Q0.0 -8.65 -0.7 -7.75 -1.4 -6.85 -1.4 -5.6 L-1.65 -4.45 Q-1.65 -3.65 -0.95 -3.05 -0.25 -2.5 0.7 -2.5 L1.35 -1.6 0.5 12.15 -0.75 12.8 -2.1 5.8 -1.75 1.35 -0.25 8.3 0.5 -1.2 -2.0 -1.75 -13.75 -6.45 -13.6 -7.3 -13.4 -7.3 -13.15 -7.15 -12.2 -6.9 -11.5 -6.75 -7.4 -5.7 -7.4 -6.15 -9.35 -8.35 -1.55 -8.7 -1.1 -8.8 -0.95 -9.15 2.35 -11.8 1.35 -13.7 1.45 -13.95 Q2.1 -13.95 2.55 -14.25 3.0 -14.55 3.0 -15.0 L5.0 -13.6 2.4 -9.25 M11.15 -8.6 Q11.15 -9.5 10.7 -10.15 10.25 -10.8 9.65 -10.8 L9.55 -10.6 8.4 -8.9 6.8 -6.6 6.8 -6.55 3.65 -4.05 9.4 -11.9 14.3 -10.35 14.85 -10.15 Q15.8 -9.7 16.8 -9.2 L17.45 -7.55 16.55 -4.2 16.75 -3.1 18.2 2.15 Q18.2 2.85 18.65 3.4 19.1 3.9 19.7 3.9 L19.8 5.6 19.7 5.95 Q20.0 7.0 21.1 6.2 L20.05 8.35 20.4 8.95 15.25 8.9 13.1 10.45 11.8 10.5 11.95 9.85 9.0 10.25 11.35 9.35 13.3 8.25 12.55 5.65 12.65 1.1 14.2 -2.5 14.95 -4.7 15.2 -5.9 15.45 -7.9 13.3 -9.35 13.1 -8.95 Q12.3 -7.7 11.15 -8.6 M11.95 9.85 L11.95 9.8 11.95 9.85 M15.9 0.85 L15.2 3.9 15.9 1.75 16.85 1.65 17.2 1.3 16.85 1.0 15.9 0.85 M4.65 14.8 L4.6 14.35 8.4 11.8 9.5 11.65 9.6 11.7 9.45 13.05 4.65 14.8 M21.8 4.85 L21.15 6.2 21.1 5.85 20.55 5.55 21.8 4.85 M17.3 7.75 Q17.2 7.0 16.45 6.8 L16.15 7.05 Q16.05 7.4 16.25 7.65 L16.45 8.0 Q16.85 8.25 17.2 8.0 L17.3 7.75 M-5.4 15.7 L-5.7 15.0 -7.45 14.05 -5.75 14.1 -1.25 14.85 -1.35 15.55 -2.1 15.7 -2.75 15.75 -3.55 15.85 -3.6 15.85 -5.25 15.8 -5.4 15.7 M-13.6 13.8 L-14.6 13.95 -14.65 13.55 -14.55 13.3 -13.05 13.4 -13.6 13.8 M-18.85 11.75 L-19.85 12.05 -19.95 11.35 -19.9 11.3 -20.2 10.65 -20.6 9.75 -19.85 9.65 -17.6 10.8 -18.85 11.75 M-23.05 8.5 L-23.3 7.55 -22.75 7.35 -21.6 7.3 -20.8 7.75 -18.35 6.75 -15.0 11.75 -15.8 11.45 -15.85 11.4 -16.4 10.75 -19.75 9.05 -20.75 8.85 -22.6 8.55 -23.05 8.5 M-10.65 -9.15 L-10.05 -9.25 -10.05 -8.9 -11.0 -8.6 -12.0 -8.5 -11.5 -9.05 -10.65 -9.15 M-2.2 -5.1 L-2.45 -7.3 -5.55 -6.6 -6.5 -5.5 -6.15 -4.05 -6.0 -3.9 -5.7 -3.95 -2.35 -4.6 -2.2 -5.1" fill="#5f5038" fill-rule="evenodd" stroke="none"/>
    <path d="M1.7 -8.65 L2.4 -9.25 1.85 -8.55 1.7 -8.65 M-7.4 -6.15 L-7.4 -5.7 -8.9 -6.2 -7.4 -6.15 M-12.2 -6.9 L-13.15 -7.15 -12.0 -8.5 -11.0 -8.6 -12.2 -6.9 M0.5 12.15 L1.35 -1.6 2.85 10.7 0.75 12.35 0.5 12.15 M-1.65 -4.45 L-1.4 -5.6 1.0 -8.65 1.1 -8.6 0.8 -7.2 -1.35 -4.35 -1.65 -4.45 M9.65 -10.8 Q10.25 -10.8 10.7 -10.15 11.15 -9.5 11.15 -8.6 L11.35 -6.9 9.65 -10.8 M13.3 -9.35 L15.45 -7.9 15.2 -5.9 14.95 -4.7 15.05 -5.8 15.2 -5.9 15.05 -5.85 4.85 -1.45 4.85 -3.2 7.25 -4.2 12.65 -6.55 13.45 -6.85 15.25 -7.65 13.65 -7.2 13.3 -9.35 M14.2 -2.5 L12.65 1.1 12.5 -0.25 11.35 -4.05 14.2 -2.5 M18.2 2.15 L16.75 -3.1 17.7 -3.05 18.2 2.15 M16.55 -4.2 L17.45 -7.55 17.75 -4.9 16.55 -4.2 M14.85 -10.15 L14.3 -10.35 9.5 -12.4 12.65 -12.75 19.5 -8.95 18.85 -8.45 14.85 -10.15 M6.8 -6.55 L6.8 -6.6 6.75 -5.65 6.8 -6.55 M8.4 -8.9 L9.55 -10.6 8.3 -5.6 8.4 -8.9 M6.35 -9.65 L3.6 -6.45 3.65 -6.65 6.35 -9.65 M13.05 -2.25 Q13.65 -0.25 13.5 -2.25 L13.05 -2.25 M15.9 0.85 L15.9 1.75 15.2 3.9 15.9 0.85 M7.05 8.25 L4.8 6.0 5.75 1.1 7.05 8.25 M1.8 8.2 L2.15 8.1 2.25 7.75 2.15 7.45 Q2.0 7.3 1.8 7.3 1.6 7.3 1.5 7.45 L1.35 7.75 1.5 8.1 1.8 8.2 M-18.8 -6.8 L-18.85 -6.85 -18.8 -6.85 -18.8 -6.8 M-19.3 -8.2 L-19.15 -8.4 -14.2 -11.8 -15.55 -7.85 -19.15 -8.4 -19.2 -8.15 -19.3 -8.2 M-10.85 -9.8 L-10.65 -9.15 -11.5 -9.05 -10.85 -9.8 M-3.05 -5.3 L-2.2 -5.1 -2.35 -4.6 -3.3 -4.7 -3.05 -5.3 M-5.55 -6.6 L-6.0 -5.9 -3.95 -5.45 -6.5 -5.5 -5.55 -6.6 M-16.85 7.65 L-16.1 8.05 -16.2 8.0 -16.85 7.65" fill="#c7bd9e" fill-rule="evenodd" stroke="none"/>
    <path d="M1.85 -8.55 L2.4 -9.25 5.0 -13.6 3.0 -15.0 1.4 -15.5 -3.5 -17.9 10.1 -15.6 12.65 -12.75 9.5 -12.4 6.35 -9.65 3.65 -6.65 2.7 -5.2 2.65 -5.1 1.35 -3.65 -1.35 -4.35 0.8 -7.2 1.6 -7.05 Q2.6 -7.4 1.85 -8.55 M-9.35 -8.35 L-7.4 -6.15 -8.9 -6.2 -11.5 -6.75 -12.2 -6.9 -11.0 -8.6 -10.05 -8.9 -9.85 -8.5 -9.35 -8.35 M-13.15 -7.15 L-13.4 -7.3 -13.6 -7.3 -15.55 -7.85 -14.2 -11.8 Q-12.8 -11.8 -11.8 -11.2 -10.85 -10.65 -10.85 -9.8 L-11.5 -9.05 -12.0 -8.5 -13.15 -7.15 M-1.4 -5.6 Q-1.4 -6.85 -0.7 -7.75 0.0 -8.65 1.0 -8.65 L-1.4 -5.6 M7.35 -13.1 Q7.65 -13.1 7.9 -13.35 L8.1 -13.95 7.9 -14.55 7.35 -14.8 6.85 -14.55 6.6 -13.95 Q6.6 -13.6 6.85 -13.35 7.05 -13.1 7.35 -13.1 M1.65 -6.1 L1.75 -6.3 1.65 -6.5 1.4 -6.6 1.15 -6.5 1.05 -6.3 1.15 -6.1 Q1.25 -6.0 1.4 -6.0 L1.65 -6.1 M1.55 -14.1 L1.55 -14.05 1.5 -14.15 1.55 -14.1 M-2.2 -5.1 L-3.05 -5.3 -3.95 -5.45 -6.0 -5.9 -5.55 -6.6 -2.45 -7.3 -2.2 -5.1" fill="#d6cdba" fill-rule="evenodd" stroke="none"/>
    <path d="M9.65 -10.8 L11.35 -6.9 12.65 -6.55 7.25 -4.2 8.3 -5.6 9.55 -10.6 9.65 -10.8 M15.05 -5.8 L15.05 -5.85 15.2 -5.9 15.05 -5.8 M4.85 -1.45 L4.85 -0.95 4.85 -1.45 M13.45 -6.85 L13.65 -7.2 15.25 -7.65 13.45 -6.85 M-18.65 -6.8 L-18.8 -6.8 -18.8 -6.85 -18.65 -6.8" fill="#a49460" fill-rule="evenodd" stroke="none"/>
    <path d="M1.7 -8.65 L1.85 -8.55 Q2.6 -7.4 1.6 -7.05 L0.8 -7.2 1.1 -8.6 1.7 -8.65 M-0.95 -9.15 L-1.1 -8.8 -1.55 -8.7 -0.95 -9.15 M-2.0 -1.75 L0.5 -1.2 -0.25 8.3 -1.75 1.35 -6.85 7.9 -9.0 8.3 -8.3 5.3 -10.05 7.9 -13.75 2.75 -13.45 -2.75 -11.05 -3.35 -11.15 1.2 -9.95 -3.05 -2.0 -1.75 M-0.75 12.8 L0.5 12.15 0.75 12.35 2.15 12.55 Q4.85 12.25 2.85 10.7 L1.35 -1.6 0.7 -2.5 1.25 -2.5 1.35 -3.65 2.65 -5.1 2.7 -5.15 2.7 -5.2 3.65 -6.65 3.6 -6.45 3.65 -4.05 6.8 -6.55 6.75 -5.65 6.8 -6.6 8.4 -8.9 8.3 -5.6 7.25 -4.2 4.85 -3.2 4.85 -1.45 15.05 -5.85 15.05 -5.8 14.95 -4.7 14.2 -2.5 11.35 -4.05 4.85 -0.95 4.85 -1.45 4.85 -0.95 5.75 1.1 4.8 6.0 7.05 8.25 7.8 9.8 Q7.6 9.8 7.45 10.1 7.3 10.35 7.3 10.75 L7.5 10.9 8.4 11.8 4.6 14.35 6.05 12.4 2.2 13.8 3.75 16.0 3.55 16.75 2.6 16.75 2.4 16.55 -0.75 12.8 M11.35 -6.9 L11.15 -8.6 Q12.3 -7.7 13.1 -8.95 L13.3 -9.35 13.65 -7.2 13.45 -6.85 12.65 -6.55 11.35 -6.9 M12.65 1.1 L12.55 5.65 8.95 -0.35 12.5 -0.25 12.65 1.1 M20.4 8.95 L20.05 8.35 22.9 8.65 17.4 11.95 16.45 12.2 13.55 12.25 13.4 12.3 12.0 12.65 10.85 12.85 9.45 13.05 9.6 11.7 12.85 11.2 13.35 11.35 13.4 11.15 17.65 11.25 20.4 8.95 M17.45 -7.55 L16.8 -9.2 18.85 -8.45 19.5 -8.95 17.95 -4.75 17.75 -4.9 17.45 -7.55 M13.05 -2.25 L13.5 -2.25 Q13.65 -0.25 13.05 -2.25 M5.55 15.3 L7.25 15.1 8.95 15.3 Q9.65 15.45 9.65 15.7 9.65 15.95 8.95 16.15 L7.25 16.3 5.55 16.15 4.85 15.7 Q4.85 15.45 5.55 15.3 M1.75 16.85 L-2.85 17.55 0.5 16.0 1.75 16.85 M-5.25 15.85 L-5.4 15.7 -5.25 15.8 -5.25 15.85 M-9.95 14.35 L-11.2 14.5 -10.75 14.25 Q-8.6 12.85 -13.05 13.4 L-14.55 13.3 Q-15.9 12.55 -16.95 11.3 L-16.4 10.75 -15.85 11.4 -15.95 11.45 -15.8 11.45 -15.0 11.75 -11.95 11.75 -9.0 12.15 -8.3 12.2 -4.0 13.45 -5.75 14.1 -7.45 14.05 -9.95 14.35 M-20.05 11.3 L-21.05 10.95 -20.2 10.65 -19.9 11.3 -20.05 11.3 M6.6 17.4 Q6.0 16.15 8.15 17.9 6.85 17.85 6.6 17.4 M-13.3 11.05 L-16.85 7.65 -12.05 9.15 Q-11.95 10.05 -12.4 10.65 -12.6 11.0 -13.3 11.05 M-5.7 -3.95 L-6.0 -3.9 -6.15 -4.05 -5.7 -3.95 M-7.85 -0.45 Q-5.75 5.45 -7.45 -0.7 L-7.85 -0.45 M-7.45 10.6 L-9.3 11.4 -10.0 11.25 -10.1 11.2 -10.4 11.05 -7.45 10.6 M-16.1 8.05 L-16.85 7.65 -16.2 8.0 -16.0 8.1 -16.1 8.05 M-2.1 15.7 L-1.35 15.55 -1.25 14.85 -1.0 14.7 -0.3 15.35 -1.75 16.35 -2.1 15.7" fill="#7d6d4a" fill-rule="evenodd" stroke="none"/>
    <path d="M-2.1 5.8 L-0.75 12.8 2.4 16.55 2.3 16.65 1.75 16.85 0.5 16.0 -0.3 15.35 -1.0 14.7 -4.0 13.45 -8.3 12.2 -2.1 5.8 M12.55 5.65 L13.3 8.25 11.35 9.35 7.8 9.8 7.05 8.25 5.75 1.1 4.85 -0.95 11.35 -4.05 12.5 -0.25 8.95 -0.35 12.55 5.65 M-11.95 11.75 L-13.3 11.05 Q-12.6 11.0 -12.4 10.65 -11.95 10.05 -12.05 9.15 L-10.05 7.9 -8.3 5.3 -9.0 8.3 Q-9.0 9.25 -8.55 9.95 -8.1 10.6 -7.45 10.6 L-10.4 11.05 -10.15 11.2 -10.0 11.25 -9.3 11.4 -9.0 12.15 -11.95 11.75 M-13.75 2.75 L-13.6 -2.75 -13.5 -2.75 -13.45 -2.75 -13.75 2.75 M-7.85 -0.45 L-7.45 -0.7 Q-5.75 5.45 -7.85 -0.45" fill="#1e1711" fill-rule="evenodd" stroke="none"/>
    <path d="M11.35 9.35 L9.0 10.25 8.5 10.3 7.65 10.65 7.3 10.75 Q7.3 10.35 7.45 10.1 7.6 9.8 7.8 9.8 L11.35 9.35 M19.8 5.6 L19.7 3.9 20.3 4.1 20.5 5.55 19.8 5.6 M16.45 12.2 L17.4 11.95 18.0 12.55 16.45 12.2 M13.55 13.15 L10.85 12.85 12.0 12.65 13.55 13.15 M-13.6 -2.75 L-13.5 -2.8 -13.5 -2.75 -13.6 -2.75" fill="#91814f" fill-rule="evenodd" stroke="none"/>
    <path d="M9.0 10.25 L11.95 9.85 11.8 10.5 13.1 10.45 13.15 10.65 12.8 11.1 8.2 11.05 8.5 10.3 9.0 10.25 M4.6 14.35 L4.65 14.8 3.75 16.0 2.2 13.8 6.05 12.4 4.6 14.35 M20.3 4.1 L21.8 4.85 20.55 5.55 20.5 5.55 20.3 4.1 M23.0 9.35 Q20.65 10.45 23.45 9.0 L23.0 9.35 M2.4 16.55 L2.6 16.75 2.3 16.65 2.4 16.55 M-20.75 8.85 L-19.75 9.05 -19.85 9.65 -20.6 9.75 -20.75 8.85 M-10.4 11.05 L-10.1 11.2 -10.15 11.2 -10.4 11.05" fill="#c5b994" fill-rule="evenodd" stroke="none"/>
    <path d="M11.95 9.85 L11.95 9.8 11.95 9.85 M13.1 10.45 L15.25 8.9 20.4 8.95 17.65 11.25 13.4 11.15 Q13.55 10.8 13.15 10.65 L13.1 10.45 M21.1 6.2 Q20.0 7.0 19.7 5.95 L19.8 5.6 20.5 5.55 20.55 5.55 21.1 5.85 21.15 6.2 21.1 6.2 M7.3 10.75 L7.65 10.65 7.5 10.9 7.3 10.75 M9.6 11.7 L9.5 11.65 8.2 11.05 12.8 11.1 12.85 11.2 9.6 11.7 M17.3 7.75 L17.2 8.0 Q16.85 8.25 16.45 8.0 L16.25 7.65 Q16.05 7.4 16.15 7.05 L16.45 6.8 Q17.2 7.0 17.3 7.75 M13.5 12.3 L13.55 13.15 12.0 12.65 13.4 12.3 13.5 12.3 M-2.85 17.55 L-5.25 15.85 -5.25 15.8 -3.6 15.85 -3.55 15.9 Q-3.0 16.75 -2.75 16.05 L-2.75 15.75 -2.1 15.7 -1.75 16.35 -0.3 15.35 0.5 16.0 -2.85 17.55 M-5.7 15.0 L-9.95 14.35 -7.45 14.05 -5.7 15.0 M-10.75 14.25 L-13.6 13.8 -13.05 13.4 Q-8.6 12.85 -10.75 14.25 M-14.65 13.55 L-18.85 11.75 -17.6 10.8 -19.85 9.65 -19.75 9.05 -16.4 10.75 -16.95 11.3 Q-15.9 12.55 -14.55 13.3 L-14.65 13.55 M-19.95 11.35 L-20.05 11.3 -19.9 11.3 -19.95 11.35 M-21.05 10.95 Q-21.9 10.95 -22.45 10.25 -23.05 9.55 -23.05 8.6 L-22.6 8.55 -20.75 8.85 -20.6 9.75 -20.2 10.65 -21.05 10.95 M-23.4 7.25 L-23.35 6.65 Q-23.1 6.3 -22.6 6.15 L-23.4 7.25 M-21.7 6.5 L-20.4 5.95 -20.8 7.75 -21.6 7.3 -21.7 6.5 M-15.85 11.4 L-15.8 11.45 -15.95 11.45 -15.85 11.4 M-10.1 11.2 L-10.0 11.25 -10.15 11.2 -10.1 11.2 M-1.25 14.85 L-5.75 14.1 -4.0 13.45 -1.0 14.7 -1.25 14.85" fill="#b5ab75" fill-rule="evenodd" stroke="none"/>
    <path d="M13.4 12.3 L13.55 12.25 13.5 12.3 13.4 12.3" fill="#91f057" fill-rule="evenodd" stroke="none"/>
    <path d="M-13.75 -6.45 L-2.0 -1.75 -9.95 -3.05 -11.15 1.2 -11.05 -3.35 -13.45 -2.75 -13.5 -2.75 -13.5 -2.8 -13.6 -2.75 -13.75 2.75 -10.05 7.9 -12.05 9.15 -16.85 7.65 -13.3 11.05 -11.95 11.75 -15.0 11.75 -18.35 6.75 -20.8 7.75 -20.4 5.95 -21.7 6.5 -22.45 6.75 -22.75 7.35 -23.3 7.55 -23.4 7.25 -22.6 6.15 -17.4 2.8 -18.65 -6.8 -18.8 -6.85 -18.85 -6.85 -19.3 -8.2 -19.2 -8.15 -13.75 -6.45 M-1.75 1.35 L-2.1 5.8 -8.3 12.2 -9.0 12.15 -9.3 11.4 -7.45 10.6 Q-8.1 10.6 -8.55 9.95 -9.0 9.25 -9.0 8.3 L-6.85 7.9 -1.75 1.35 M-23.05 8.6 L-23.05 8.5 -22.6 8.55 -23.05 8.6" fill="#443728" fill-rule="evenodd" stroke="none"/>
    <path d="M-16.1 8.05 L-16.0 8.1 -16.2 8.0 -16.1 8.05 M-3.6 15.85 L-3.55 15.85 -3.55 15.9 -3.6 15.85" fill="#6bc038" fill-rule="evenodd" stroke="none"/>
  </g>
</svg>
