<?xml version="1.0" encoding="UTF-8" standalone="no"?>
<svg xmlns:ffdec="https://www.free-decompiler.com/flash" xmlns:xlink="http://www.w3.org/1999/xlink" ffdec:objectType="shape" height="31.0px" width="60.0px" xmlns="http://www.w3.org/2000/svg">
  <g transform="matrix(1.0, 0.0, 0.0, 1.0, 30.0, 15.5)">
    <path d="M26.3 -5.95 L25.75 -5.95 25.75 -5.35 26.3 -5.35 26.3 -5.95 M19.75 -5.7 L19.75 -5.1 20.3 -5.1 20.3 -5.7 19.75 -5.7 M16.35 -2.9 L16.25 -3.15 16.0 -3.25 15.75 -3.15 15.65 -2.9 15.75 -2.65 Q15.85 -2.55 16.0 -2.55 L16.25 -2.65 16.35 -2.9 M11.25 0.55 L11.15 0.3 10.85 0.15 10.6 0.3 10.45 0.55 10.6 0.85 10.85 0.95 11.15 0.85 11.25 0.55 M11.3 -7.15 L11.4 -7.45 11.3 -7.7 11.05 -7.85 10.8 -7.7 10.7 -7.45 10.8 -7.15 11.05 -7.05 Q11.2 -7.05 11.3 -7.15 M15.45 -8.7 L15.55 -8.95 15.45 -9.2 15.25 -9.3 15.05 -9.2 14.95 -8.95 15.05 -8.7 Q15.15 -8.6 15.25 -8.6 15.35 -8.6 15.45 -8.7 M9.2 -4.05 L9.3 -3.75 9.55 -3.65 Q9.7 -3.65 9.8 -3.75 L9.9 -4.05 9.8 -4.3 9.55 -4.45 9.3 -4.3 9.2 -4.05 M4.3 -0.75 L4.3 -0.15 4.85 -0.15 4.85 -0.75 4.3 -0.75 M0.45 -1.75 L0.55 -2.05 0.45 -2.3 0.25 -2.45 0.05 -2.3 -0.05 -2.05 0.05 -1.75 Q0.15 -1.65 0.25 -1.65 0.35 -1.65 0.45 -1.75 M4.25 -5.65 L4.0 -5.8 3.75 -5.65 3.65 -5.35 3.75 -5.0 Q3.85 -4.9 4.0 -4.9 L4.25 -5.0 4.35 -5.35 4.25 -5.65 M4.4 -11.4 L4.4 -10.85 4.95 -10.85 4.95 -11.4 4.4 -11.4 M-30.0 -5.15 L0.0 -15.5 30.0 -5.15 1.05 4.5 -15.5 -0.65 Q-14.7 -1.25 -15.7 -1.05 L-15.75 -0.7 -30.0 -5.15 M-12.6 -9.15 L-12.75 -8.9 -12.6 -8.65 -12.35 -8.55 -12.05 -8.65 -11.95 -8.9 -12.05 -9.15 -12.35 -9.25 -12.6 -9.15 M-0.5 -12.45 L-1.05 -12.45 -1.05 -11.85 -0.5 -11.85 -0.5 -12.45 M-20.7 -5.8 L-20.7 -5.2 -20.15 -5.2 -20.15 -5.8 -20.7 -5.8 M-23.65 -3.75 Q-23.55 -3.65 -23.45 -3.65 -23.35 -3.65 -23.25 -3.75 L-23.15 -4.0 -23.25 -4.25 -23.45 -4.35 -23.65 -4.25 -23.75 -4.0 -23.65 -3.75 M-3.1 1.2 L-3.2 1.45 -3.1 1.7 -2.9 1.8 -2.7 1.7 -2.6 1.45 -2.7 1.2 -2.9 1.1 -3.1 1.2 M-8.0 -0.85 L-8.0 -0.25 -7.45 -0.25 -7.45 -0.85 -8.0 -0.85 M-6.05 -5.3 L-6.6 -5.3 -6.6 -4.75 -6.05 -4.75 -6.05 -5.3 M-6.6 -9.95 L-7.25 -9.95 -7.25 -9.4 -6.6 -9.4 -6.6 -9.95 M-0.35 -7.7 L-0.9 -7.7 -0.9 -7.1 -0.35 -7.1 -0.35 -7.7 M-14.5 -5.2 L-14.7 -5.3 -14.9 -5.2 -15.0 -4.95 -14.9 -4.7 -14.7 -4.6 -14.5 -4.7 -14.4 -4.95 -14.5 -5.2 M-10.35 -3.15 L-10.6 -3.0 -10.75 -2.75 -10.6 -2.45 -10.35 -2.35 -10.05 -2.45 -9.95 -2.75 -10.05 -3.0 -10.35 -3.15" fill="#c5b994" fill-rule="evenodd" stroke="none"/>
    <path d="M4.4 -11.4 L4.95 -11.4 4.95 -10.85 4.4 -10.85 4.4 -11.4 M4.25 -5.65 L4.35 -5.35 4.25 -5.0 4.0 -4.9 Q3.85 -4.9 3.75 -5.0 L3.65 -5.35 3.75 -5.65 4.0 -5.8 4.25 -5.65 M0.45 -1.75 Q0.35 -1.65 0.25 -1.65 0.15 -1.65 0.05 -1.75 L-0.05 -2.05 0.05 -2.3 0.25 -2.45 0.45 -2.3 0.55 -2.05 0.45 -1.75 M4.3 -0.75 L4.85 -0.75 4.85 -0.15 4.3 -0.15 4.3 -0.75 M9.2 -4.05 L9.3 -4.3 9.55 -4.45 9.8 -4.3 9.9 -4.05 9.8 -3.75 Q9.7 -3.65 9.55 -3.65 L9.3 -3.75 9.2 -4.05 M15.45 -8.7 Q15.35 -8.6 15.25 -8.6 15.15 -8.6 15.05 -8.7 L14.95 -8.95 15.05 -9.2 15.25 -9.3 15.45 -9.2 15.55 -8.95 15.45 -8.7 M11.3 -7.15 Q11.2 -7.05 11.05 -7.05 L10.8 -7.15 10.7 -7.45 10.8 -7.7 11.05 -7.85 11.3 -7.7 11.4 -7.45 11.3 -7.15 M11.25 0.55 L11.15 0.85 10.85 0.95 10.6 0.85 10.45 0.55 10.6 0.3 10.85 0.15 11.15 0.3 11.25 0.55 M16.35 -2.9 L16.25 -2.65 16.0 -2.55 Q15.85 -2.55 15.75 -2.65 L15.65 -2.9 15.75 -3.15 16.0 -3.25 16.25 -3.15 16.35 -2.9 M19.75 -5.7 L20.3 -5.7 20.3 -5.1 19.75 -5.1 19.75 -5.7 M26.3 -5.95 L26.3 -5.35 25.75 -5.35 25.75 -5.95 26.3 -5.95 M24.9 -1.1 L25.35 -1.3 25.8 -1.1 26.0 -0.65 25.8 -0.2 25.35 0.0 Q25.1 0.0 24.9 -0.2 L24.7 -0.65 24.9 -1.1 M-15.75 -0.7 L-15.7 -1.05 Q-14.7 -1.25 -15.5 -0.65 L-15.75 -0.7 M27.7 2.8 L27.55 2.9 27.25 2.7 Q27.2 2.45 27.4 2.35 L27.55 2.3 27.75 2.5 27.85 2.65 27.7 2.8 M19.9 4.45 L19.7 4.95 19.2 5.15 Q18.9 5.15 18.7 4.95 L18.5 4.45 18.7 3.95 Q18.9 3.75 19.2 3.75 L19.7 3.95 19.9 4.45 M15.1 2.95 L14.95 3.35 14.55 3.5 14.15 3.35 14.0 2.95 Q14.0 2.7 14.15 2.55 14.3 2.4 14.55 2.4 L14.95 2.55 15.1 2.95 M5.0 10.0 L4.8 9.45 5.0 8.95 Q5.2 8.7 5.5 8.7 5.8 8.7 6.0 8.95 L6.2 9.45 6.0 10.0 Q5.8 10.2 5.5 10.2 L5.0 10.0 M-25.85 -1.45 Q-25.85 -1.95 -25.5 -2.25 -25.2 -2.6 -24.7 -2.6 L-23.85 -2.25 Q-23.55 -1.95 -23.55 -1.45 -23.55 -0.95 -23.85 -0.6 -24.2 -0.3 -24.7 -0.3 -25.2 -0.3 -25.5 -0.6 -25.85 -0.95 -25.85 -1.45 M-23.65 -3.75 L-23.75 -4.0 -23.65 -4.25 -23.45 -4.35 -23.25 -4.25 -23.15 -4.0 -23.25 -3.75 Q-23.35 -3.65 -23.45 -3.65 -23.55 -3.65 -23.65 -3.75 M-20.7 -5.8 L-20.15 -5.8 -20.15 -5.2 -20.7 -5.2 -20.7 -5.8 M-0.5 -12.45 L-0.5 -11.85 -1.05 -11.85 -1.05 -12.45 -0.5 -12.45 M-12.6 -9.15 L-12.35 -9.25 -12.05 -9.15 -11.95 -8.9 -12.05 -8.65 -12.35 -8.55 -12.6 -8.65 -12.75 -8.9 -12.6 -9.15 M-10.35 -3.15 L-10.05 -3.0 -9.95 -2.75 -10.05 -2.45 -10.35 -2.35 -10.6 -2.45 -10.75 -2.75 -10.6 -3.0 -10.35 -3.15 M-14.5 -5.2 L-14.4 -4.95 -14.5 -4.7 -14.7 -4.6 -14.9 -4.7 -15.0 -4.95 -14.9 -5.2 -14.7 -5.3 -14.5 -5.2 M-0.35 -7.7 L-0.35 -7.1 -0.9 -7.1 -0.9 -7.7 -0.35 -7.7 M-6.6 -9.95 L-6.6 -9.4 -7.25 -9.4 -7.25 -9.95 -6.6 -9.95 M-6.05 -5.3 L-6.05 -4.75 -6.6 -4.75 -6.6 -5.3 -6.05 -5.3 M-8.0 -0.85 L-7.45 -0.85 -7.45 -0.25 -8.0 -0.25 -8.0 -0.85 M-3.1 1.2 L-2.9 1.1 -2.7 1.2 -2.6 1.45 -2.7 1.7 -2.9 1.8 -3.1 1.7 -3.2 1.45 -3.1 1.2 M-1.75 6.55 Q-1.6 6.7 -1.6 6.95 L-1.75 7.35 -2.1 7.5 -2.45 7.35 -2.6 6.95 -2.45 6.55 -2.1 6.4 Q-1.9 6.4 -1.75 6.55 M-7.2 9.35 Q-7.05 9.5 -7.05 9.75 L-7.2 10.2 -7.65 10.35 -8.05 10.2 -8.25 9.75 -8.05 9.35 -7.65 9.15 -7.2 9.35 M-10.3 4.3 Q-10.15 4.45 -10.15 4.65 L-10.3 5.0 -10.7 5.15 -11.1 5.0 -11.25 4.65 -11.1 4.3 Q-10.95 4.15 -10.7 4.15 L-10.3 4.3 M-17.55 3.6 Q-17.55 4.05 -17.85 4.4 -18.15 4.7 -18.6 4.7 L-19.35 4.4 -19.65 3.6 -19.35 2.85 Q-19.05 2.5 -18.6 2.5 -18.15 2.5 -17.85 2.85 -17.55 3.15 -17.55 3.6 M-21.45 1.55 L-21.65 2.05 Q-21.85 2.25 -22.15 2.25 L-22.65 2.05 -22.85 1.55 -22.65 1.05 -22.15 0.85 -21.65 1.05 -21.45 1.55" fill="#796c42" fill-rule="evenodd" stroke="none"/>
    <path d="M24.9 -1.1 L24.7 -0.65 24.9 -0.2 Q25.1 0.0 25.35 0.0 L25.8 -0.2 26.0 -0.65 25.8 -1.1 25.35 -1.3 24.9 -1.1 M-30.0 -5.15 L-15.75 -0.7 -15.5 -0.65 1.05 4.5 30.0 -5.15 30.0 5.15 0.0 15.5 -30.0 5.15 -30.0 -5.15 M5.0 10.0 L5.5 10.2 Q5.8 10.2 6.0 10.0 L6.2 9.45 6.0 8.95 Q5.8 8.7 5.5 8.7 5.2 8.7 5.0 8.95 L4.8 9.45 5.0 10.0 M15.1 2.95 L14.95 2.55 14.55 2.4 Q14.3 2.4 14.15 2.55 14.0 2.7 14.0 2.95 L14.15 3.35 14.55 3.5 14.95 3.35 15.1 2.95 M19.9 4.45 L19.7 3.95 19.2 3.75 Q18.9 3.75 18.7 3.95 L18.5 4.45 18.7 4.95 Q18.9 5.15 19.2 5.15 L19.7 4.95 19.9 4.45 M27.7 2.8 L27.85 2.65 27.75 2.5 27.55 2.3 27.4 2.35 Q27.2 2.45 27.25 2.7 L27.55 2.9 27.7 2.8 M-25.85 -1.45 Q-25.85 -0.95 -25.5 -0.6 -25.2 -0.3 -24.7 -0.3 -24.2 -0.3 -23.85 -0.6 -23.55 -0.95 -23.55 -1.45 -23.55 -1.95 -23.85 -2.25 L-24.7 -2.6 Q-25.2 -2.6 -25.5 -2.25 -25.85 -1.95 -25.85 -1.45 M-17.55 3.6 Q-17.55 3.15 -17.85 2.85 -18.15 2.5 -18.6 2.5 -19.05 2.5 -19.35 2.85 L-19.65 3.6 -19.35 4.4 -18.6 4.7 Q-18.15 4.7 -17.85 4.4 -17.55 4.05 -17.55 3.6 M-10.3 4.3 L-10.7 4.15 Q-10.95 4.15 -11.1 4.3 L-11.25 4.65 -11.1 5.0 -10.7 5.15 -10.3 5.0 -10.15 4.65 Q-10.15 4.45 -10.3 4.3 M-7.2 9.35 L-7.65 9.15 -8.05 9.35 -8.25 9.75 -8.05 10.2 -7.65 10.35 -7.2 10.2 -7.05 9.75 Q-7.05 9.5 -7.2 9.35 M-1.75 6.55 Q-1.9 6.4 -2.1 6.4 L-2.45 6.55 -2.6 6.95 -2.45 7.35 -2.1 7.5 -1.75 7.35 -1.6 6.95 Q-1.6 6.7 -1.75 6.55 M-21.45 1.55 L-21.65 1.05 -22.15 0.85 -22.65 1.05 -22.85 1.55 -22.65 2.05 -22.15 2.25 Q-21.85 2.25 -21.65 2.05 L-21.45 1.55" fill="#b5ab75" fill-rule="evenodd" stroke="none"/>
  </g>
</svg>
