<?xml version="1.0" encoding="UTF-8" standalone="no"?>
<svg xmlns:ffdec="https://www.free-decompiler.com/flash" xmlns:xlink="http://www.w3.org/1999/xlink" ffdec:objectType="shape" height="66.1px" width="50.1px" xmlns="http://www.w3.org/2000/svg">
  <g transform="matrix(1.0, 0.0, 0.0, 1.0, 25.05, 33.05)">
    <path d="M1.35 -32.5 L2.2 -33.05 3.3 -31.3 2.5 -30.15 0.85 -31.3 1.35 -32.5 M4.65 -28.7 L4.5 -25.8 Q3.7 -25.8 3.15 -26.25 2.6 -26.7 2.6 -27.3 2.65 -27.9 3.2 -28.3 3.8 -28.7 4.65 -28.7 M4.75 -22.15 L5.0 -22.05 Q6.5 -20.8 4.75 -20.2 4.3 -20.2 4.0 -20.45 3.7 -20.75 3.7 -21.15 3.7 -21.6 3.95 -21.9 4.25 -22.2 4.75 -22.15 M4.8 -17.3 L6.05 -16.7 Q5.45 -16.5 5.1 -16.7 4.85 -16.8 4.8 -17.3 M9.85 -20.9 L11.4 -20.2 Q10.55 -18.45 9.7 -20.35 9.6 -20.55 9.85 -20.9 M11.65 -15.35 L11.35 -14.3 10.8 -13.9 9.65 -14.3 10.8 -15.85 11.65 -15.35 M7.2 -11.65 L7.0 -10.5 Q6.85 -9.95 6.55 -9.85 6.25 -9.75 6.0 -10.15 5.8 -10.6 5.75 -11.45 L7.2 -11.65 M4.85 -7.0 L4.85 -6.5 4.6 -6.15 4.15 -6.0 3.3 -6.2 Q2.95 -6.4 2.9 -6.7 2.85 -7.0 3.15 -7.2 L4.0 -7.5 4.85 -7.0 M9.75 -5.05 L11.15 -4.5 10.95 -4.05 Q10.45 -4.05 10.1 -4.35 9.75 -4.65 9.75 -5.05 M10.95 3.0 Q12.1 4.6 10.25 4.5 L10.2 4.2 Q10.15 3.7 10.35 3.35 10.6 3.0 10.95 3.0 M6.7 12.9 L7.0 13.4 6.65 13.55 6.25 13.45 Q4.85 12.9 6.7 12.9 M6.4 20.3 L7.2 20.5 7.55 21.1 7.2 21.7 6.4 21.95 5.25 21.8 4.65 21.25 Q4.55 20.9 4.9 20.65 5.3 20.35 6.1 20.3 L6.4 20.3 M-5.05 22.3 Q-5.7 22.25 -6.1 21.9 L-6.45 21.15 Q-6.4 20.7 -5.95 20.4 -5.6 20.15 -5.15 20.15 -4.6 20.1 -4.15 20.4 -3.7 20.7 -3.65 21.15 -3.6 21.6 -4.05 21.95 L-5.05 22.3 M-11.35 9.1 L-9.35 8.45 -8.95 9.85 -9.8 10.2 Q-10.45 10.2 -10.9 9.85 L-11.35 9.1 M-4.35 7.05 Q-5.1 7.05 -5.6 6.65 L-6.05 5.75 Q-6.05 5.2 -5.55 4.85 -5.05 4.45 -4.3 4.45 L-3.3 4.85 -3.35 6.4 -4.35 7.05 M-9.8 -2.9 L-10.25 -4.25 -9.25 -4.1 -8.95 -3.3 -9.8 -2.9 M-8.45 -8.65 L-8.3 -9.65 -7.65 -10.2 Q-7.25 -10.25 -6.95 -9.85 L-6.55 -8.85 -7.05 -7.55 -7.6 -7.5 -8.15 -7.8 -8.45 -8.65 M-4.5 -4.45 L-4.35 -4.4 -3.75 -2.95 -3.6 -2.3 Q-3.65 -2.0 -3.85 -1.8 -4.55 -1.1 -5.25 -1.9 L-5.25 -2.05 -4.5 -4.45 M-7.6 -17.85 Q-9.05 -17.4 -8.85 -18.6 -8.8 -18.9 -8.25 -19.1 L-6.65 -18.75 -7.2 -18.05 -7.6 -17.85 M-4.65 -21.35 L-4.6 -21.3 -4.6 -21.35 -3.55 -21.1 Q-7.85 -19.4 -4.65 -21.35 M-4.55 -23.45 L-5.35 -24.45 -4.5 -25.5 -3.4 -25.0 -3.45 -24.0 Q-3.45 -23.75 -3.8 -23.6 L-4.55 -23.45 M0.0 -26.55 L1.0 -26.3 1.35 -25.7 Q1.3 -25.35 0.85 -25.1 L-0.1 -24.9 0.0 -26.55 M-0.65 -17.25 Q3.5 -15.3 -1.55 -16.05 L-1.8 -16.7 -0.65 -17.25 M22.75 2.8 L23.4 3.1 23.75 4.15 23.7 4.25 23.0 4.6 22.1 4.5 21.55 3.35 21.7 3.1 22.75 2.8 M20.15 0.4 L19.7 0.8 19.25 0.85 18.3 -0.1 18.05 -0.65 19.25 -2.15 20.4 -1.35 20.15 0.4 M18.95 10.6 L19.55 10.85 19.05 12.35 18.4 12.1 17.75 11.45 18.95 10.6 M20.65 19.15 L20.95 19.2 Q23.55 19.8 21.1 21.25 L19.45 21.1 18.4 20.45 Q18.2 20.0 18.75 19.65 19.3 19.3 20.65 19.15 M12.05 24.7 Q12.0 24.2 12.2 23.9 12.45 23.55 12.8 23.55 14.55 24.6 12.75 25.0 L12.05 24.7 M14.25 20.75 L13.9 20.8 Q11.3 20.3 13.8 19.6 L14.8 19.7 14.25 20.75 M13.0 13.15 L13.1 12.1 13.45 11.4 13.85 11.35 14.25 12.0 14.45 13.1 13.0 13.15 M17.0 10.6 L17.6 8.8 18.2 9.35 17.85 10.45 17.0 10.6 M24.85 9.25 L23.9 8.9 Q24.15 6.5 25.05 8.55 25.15 8.8 24.85 9.25 M0.4 -7.6 L0.55 -6.4 -1.2 -6.35 -1.25 -7.3 0.4 -7.6 M0.85 -1.45 L2.6 -2.1 2.6 0.15 1.6 0.5 0.95 -0.15 0.85 -1.45 M0.7 9.85 Q0.25 9.85 -0.05 9.55 L-0.35 8.85 -0.05 8.15 Q0.3 7.85 0.8 7.9 L0.7 9.85 M-0.95 5.4 L-2.2 4.85 -2.35 3.7 -0.85 3.35 -0.95 5.4 M15.75 21.05 L17.0 21.4 16.5 22.65 15.65 22.45 15.35 22.0 15.75 21.05 M-0.3 15.95 L0.65 15.65 Q1.0 19.45 -0.4 16.5 L-0.3 15.95 M-2.05 -29.4 L-2.25 -29.3 -3.0 -29.4 Q-3.2 -29.7 -2.9 -30.25 -0.85 -31.35 -2.05 -29.4 M-2.45 -11.6 L-3.55 -11.75 Q-3.7 -14.55 -2.45 -12.45 -2.25 -12.2 -2.45 -11.6 M-19.15 8.3 Q-17.45 7.1 -17.7 9.1 -17.8 9.75 -18.4 10.35 L-19.35 10.25 -19.15 8.3 M-15.65 14.3 L-13.85 14.8 -14.7 15.35 -15.1 15.6 -15.95 15.65 -16.2 14.7 -15.65 14.3 M-13.55 18.9 L-11.9 20.45 -12.75 20.8 -13.75 19.4 -13.55 18.9 M-14.75 26.2 L-15.8 26.05 -15.4 24.4 -14.5 24.7 -14.75 26.2 M-20.85 16.35 L-22.1 17.35 -22.9 15.15 -20.85 15.5 -20.85 16.35 M-7.75 15.45 L-8.75 14.05 -8.65 13.7 Q-5.6 14.05 -7.75 15.45 M-1.5 22.75 Q1.3 22.7 -0.95 24.4 L-1.55 24.35 -1.5 22.75 M-11.65 28.05 L-10.9 27.8 -10.35 28.6 -11.55 28.45 -11.65 28.05 M-11.85 24.75 L-11.35 25.85 -13.75 25.3 -11.85 24.75" fill="#333333" fill-rule="evenodd" stroke="none"/>
    <path d="M1.35 -32.5 L0.85 -31.3 0.75 -31.05 Q4.1 -26.0 2.5 -30.15 L3.3 -31.3 Q3.85 -31.3 4.2 -30.55 4.6 -29.8 4.65 -28.7 3.8 -28.7 3.2 -28.3 2.65 -27.9 2.6 -27.3 2.6 -26.7 3.15 -26.25 3.7 -25.8 4.5 -25.8 L4.75 -22.15 Q4.25 -22.2 3.95 -21.9 3.7 -21.6 3.7 -21.15 3.7 -20.75 4.0 -20.45 4.3 -20.2 4.75 -20.2 L4.8 -17.3 Q4.85 -16.8 5.1 -16.7 5.45 -16.5 6.05 -16.7 L9.85 -20.9 Q9.6 -20.55 9.7 -20.35 10.55 -18.45 11.4 -20.2 L11.65 -15.35 10.8 -15.85 10.4 -19.05 2.05 -13.1 2.6 -2.1 0.85 -1.45 0.55 -6.4 0.4 -7.6 -0.95 -11.6 -1.25 -7.3 -1.2 -6.35 -0.85 3.35 -2.35 3.7 -3.3 4.85 -4.3 4.45 -4.3 2.15 -9.8 -2.9 -8.95 -3.3 -5.25 -1.9 Q-4.55 -1.1 -3.85 -1.8 -3.65 -2.0 -3.6 -2.3 L-2.45 -11.6 Q-2.25 -12.2 -2.45 -12.45 -3.7 -14.55 -3.55 -11.75 L-3.75 -2.95 -4.35 -4.4 -5.9 -16.05 -7.6 -17.85 -7.2 -18.05 -2.5 -16.8 -6.65 -18.75 -8.25 -19.1 Q-9.05 -21.55 -6.25 -22.25 -5.6 -22.35 -4.65 -21.35 -7.85 -19.4 -3.55 -21.1 L-4.6 -21.35 -4.55 -23.45 -3.8 -23.6 Q-3.45 -23.75 -3.45 -24.0 L-3.4 -25.0 -4.5 -25.5 Q-4.55 -28.4 -2.85 -30.45 -1.1 -32.5 1.35 -32.5 M10.8 -13.9 L7.2 -11.65 5.75 -11.45 4.85 -7.0 4.0 -7.5 Q3.95 -10.3 5.6 -12.3 7.3 -14.3 9.65 -14.3 L10.8 -13.9 M4.85 -6.5 L5.15 0.7 9.75 -5.05 Q9.75 -4.65 10.1 -4.35 10.45 -4.05 10.95 -4.05 L10.95 3.0 Q10.6 3.0 10.35 3.35 10.15 3.7 10.2 4.2 L5.2 6.75 6.7 12.9 Q4.85 12.9 6.25 13.45 L6.65 13.55 6.4 20.3 6.1 20.3 3.85 10.1 2.7 29.55 1.3 5.1 0.8 7.9 Q0.3 7.85 -0.05 8.15 L-0.35 8.85 -0.05 9.55 Q0.25 9.85 0.7 9.85 L0.65 15.65 -0.3 15.95 -0.8 10.85 -1.5 22.75 -1.55 24.35 -1.8 25.4 Q-2.95 29.65 -5.65 26.6 L-5.05 22.3 -4.05 21.95 Q-3.6 21.6 -3.65 21.15 -3.7 20.7 -4.15 20.4 -4.6 20.1 -5.15 20.15 -7.7 20.0 -9.5 16.9 -10.5 15.1 -10.95 12.95 L-7.75 15.45 Q-5.6 14.05 -8.65 13.7 L-8.75 14.05 -11.25 10.65 -11.35 9.1 -10.9 9.85 Q-10.45 10.2 -9.8 10.2 L-3.35 14.75 -3.05 19.8 -2.2 4.85 -0.95 5.4 0.95 -0.15 1.6 0.5 2.6 0.15 4.15 5.85 9.45 0.35 4.0 4.5 4.15 -6.0 4.6 -6.15 4.85 -6.5 M-4.55 12.25 L-4.35 7.05 -3.35 6.4 -4.55 12.25 M-10.25 -4.25 L-8.45 -8.65 -8.15 -7.8 -7.6 -7.5 -9.25 -4.1 -10.25 -4.25 M-6.55 -8.85 L-4.5 -4.45 -5.25 -2.05 -7.05 -7.55 -6.55 -8.85 M-0.1 -24.9 L0.85 -25.1 Q1.3 -25.35 1.35 -25.7 L1.0 -26.3 0.0 -26.55 -0.65 -29.2 -1.8 -16.7 -1.55 -16.05 Q3.5 -15.3 -0.65 -17.25 L-0.1 -24.9 M23.4 3.1 L23.45 1.1 22.75 2.8 21.7 3.1 22.55 0.65 19.7 0.8 20.15 0.4 23.6 -0.95 23.75 4.15 23.4 3.1 M21.55 3.35 L22.1 4.5 19.55 10.85 18.95 10.6 21.55 3.35 M23.0 4.6 L23.7 4.25 21.85 9.4 23.9 8.9 24.85 9.25 23.35 11.4 20.4 11.75 23.0 4.6 M22.85 12.1 L20.65 19.15 Q19.3 19.3 18.75 19.65 18.2 20.0 18.4 20.45 L19.45 21.1 21.1 21.25 14.6 29.45 16.6 24.05 19.35 22.2 16.5 22.65 17.0 21.4 22.85 12.1 M10.35 29.1 L12.05 24.7 12.75 25.0 Q14.55 24.6 12.8 23.55 L14.25 20.75 14.8 19.7 13.8 19.6 13.15 19.0 Q11.0 16.2 13.0 13.15 L14.45 13.1 15.45 13.85 18.4 12.1 19.05 12.35 15.75 21.05 15.35 22.0 Q15.35 24.95 13.85 27.05 12.4 29.1 10.35 29.1 M16.35 12.55 L17.0 10.6 17.85 10.45 16.35 12.55 M17.6 8.8 L18.55 6.15 17.85 5.15 Q16.25 2.45 18.3 -0.1 L19.25 0.85 18.2 9.35 17.6 8.8 M-2.05 -29.4 Q-0.85 -31.35 -2.9 -30.25 -3.2 -29.7 -3.0 -29.4 L-2.25 -29.3 -2.05 -29.4 M-19.15 8.3 L-19.35 10.25 -18.4 10.35 -15.65 14.3 -16.2 14.7 -15.95 15.65 -19.35 10.25 -11.85 24.75 -13.75 25.3 -11.35 25.85 -10.65 22.0 -12.75 20.8 -11.9 20.45 -10.65 22.0 -7.75 23.25 -8.8 26.5 -7.4 30.05 -8.85 31.25 -10.35 28.6 -10.9 27.8 -11.8 27.45 -11.65 28.05 -11.55 28.45 -10.9 30.8 -14.5 24.7 -15.4 24.4 -18.85 22.5 -14.75 21.7 -17.75 19.9 -19.05 22.35 -18.75 17.2 -20.85 16.35 -20.85 15.5 -24.35 9.75 -19.15 8.3 M-14.7 15.35 L-13.55 18.9 -13.75 19.4 -15.1 15.6 -14.7 15.35 M-24.6 10.85 L-24.6 10.75 -24.55 10.8 -24.6 10.85 M-9.35 24.4 Q-7.55 25.8 -9.2 22.75 -9.7 24.1 -9.35 24.4" fill="#009900" fill-rule="evenodd" stroke="none"/>
    <path d="M0.85 -31.3 L2.5 -30.15 Q4.1 -26.0 0.75 -31.05 L0.85 -31.3 M-9.35 8.45 L-4.55 12.25 -3.35 6.4 -3.3 4.85 -2.35 3.7 -2.2 4.85 -3.05 19.8 -3.35 14.75 -9.8 10.2 -8.95 9.85 -9.35 8.45 M0.0 -26.55 L-0.1 -24.9 -0.65 -17.25 -1.8 -16.7 -0.65 -29.2 0.0 -26.55 M19.7 0.8 L22.55 0.65 21.7 3.1 21.55 3.35 18.95 10.6 17.75 11.45 18.4 12.1 15.45 13.85 16.35 12.55 17.85 10.45 18.2 9.35 19.25 0.85 19.7 0.8 M-3.55 -11.75 L-2.45 -11.6 -3.6 -2.3 -3.75 -2.95 -3.55 -11.75 M-15.1 15.6 L-13.75 19.4 -12.75 20.8 -10.65 22.0 -11.35 25.85 -11.85 24.75 -19.35 10.25 -15.95 15.65 -15.1 15.6" fill="#00cc00" fill-rule="evenodd" stroke="none"/>
    <path d="M6.4 21.95 Q6.95 26.1 4.15 28.95 1.45 31.8 -2.6 31.15 L-5.65 26.6 Q-2.95 29.65 -1.8 25.4 L-1.55 24.35 -0.95 24.4 Q1.3 22.7 -1.5 22.75 L-0.8 10.85 -0.3 15.95 -0.4 16.5 Q1.0 19.45 0.65 15.65 L0.7 9.85 0.8 7.9 1.3 5.1 2.7 29.55 3.85 10.1 6.1 20.3 Q5.3 20.35 4.9 20.65 4.55 20.9 4.65 21.25 L5.25 21.8 6.4 21.95 M-10.95 12.95 L-11.25 10.65 -8.75 14.05 -7.75 15.45 -10.95 12.95 M2.6 -2.1 L2.05 -13.1 10.4 -19.05 10.8 -15.85 9.65 -14.3 Q7.3 -14.3 5.6 -12.3 3.95 -10.3 4.0 -7.5 L3.15 -7.2 Q2.85 -7.0 2.9 -6.7 2.95 -6.4 3.3 -6.2 L4.15 -6.0 4.0 4.5 9.45 0.35 4.15 5.85 2.6 0.15 2.6 -2.1 M22.75 2.8 L23.45 1.1 23.4 3.1 22.75 2.8 M19.55 10.85 L22.1 4.5 23.0 4.6 20.4 11.75 23.35 11.4 24.6 11.25 22.85 12.1 17.0 21.4 15.75 21.05 19.05 12.35 19.55 10.85 M14.6 29.45 L10.35 29.1 Q12.4 29.1 13.85 27.05 15.35 24.95 15.35 22.0 L15.65 22.45 16.5 22.65 19.35 22.2 16.6 24.05 14.6 29.45 M0.4 -7.6 L-1.25 -7.3 -0.95 -11.6 0.4 -7.6 M-1.2 -6.35 L0.55 -6.4 0.85 -1.45 0.95 -0.15 -0.95 5.4 -0.85 3.35 -1.2 -6.35 M-7.2 -18.05 L-6.65 -18.75 -2.5 -16.8 -7.2 -18.05 M-7.05 -7.55 L-5.25 -2.05 -5.25 -1.9 -8.95 -3.3 -9.25 -4.1 -7.6 -7.5 -7.05 -7.55 M-7.4 30.05 L-9.9 33.05 -13.65 31.55 -14.75 26.2 -14.5 24.7 -10.9 30.8 -11.55 28.45 -10.35 28.6 -8.85 31.25 -7.4 30.05 M-18.85 22.5 L-19.05 22.35 -17.75 19.9 -14.75 21.7 -18.85 22.5 M-22.9 15.15 L-24.6 10.85 -24.55 10.8 -24.6 10.75 Q-25.6 9.85 -24.45 9.65 L-24.35 9.75 -20.85 15.5 -22.9 15.15 M-9.35 24.4 Q-9.7 24.1 -9.2 22.75 -7.55 25.8 -9.35 24.4 M-10.9 27.8 L-11.65 28.05 -11.8 27.45 -10.9 27.8" fill="#006600" fill-rule="evenodd" stroke="none"/>
  </g>
</svg>
