<?xml version="1.0" encoding="UTF-8" standalone="no"?>
<svg xmlns:ffdec="https://www.free-decompiler.com/flash" xmlns:xlink="http://www.w3.org/1999/xlink" ffdec:objectType="shape" height="14.4px" width="16.85px" xmlns="http://www.w3.org/2000/svg">
  <g transform="matrix(1.0, 0.0, 0.0, 1.0, 8.25, 8.75)">
    <path d="M6.7 -5.85 L6.65 -6.4 7.5 -7.2 7.6 -7.6 7.9 -7.7 8.1 -7.2 8.25 -5.4 8.55 -2.45 8.6 -0.75 8.45 -0.65 8.35 -0.65 8.3 -0.65 7.35 -1.95 7.25 -2.35 7.6 -1.65 8.35 -1.0 8.3 -1.45 8.25 -2.55 8.1 -3.75 7.0 -3.85 6.9 -3.8 6.85 -4.15 7.3 -4.4 7.35 -6.1 7.45 -4.6 7.95 -5.15 7.8 -6.95 7.7 -6.95 6.75 -5.9 6.7 -5.85 M7.35 4.5 L7.95 4.4 8.05 4.35 7.95 4.5 Q7.2 5.2 6.2 5.6 L4.25 5.55 Q2.25 5.3 0.6 4.2 L0.3 3.95 0.0 3.65 Q-0.45 3.1 -1.15 3.2 L-3.8 3.1 -4.1 3.05 -5.85 2.45 -6.8 1.75 -7.65 0.65 -7.55 0.25 -7.65 -2.85 -7.6 -3.3 -7.25 -5.65 -8.0 -7.9 -8.05 -7.95 -8.25 -8.4 -8.1 -8.75 -7.8 -8.65 -7.15 -7.75 -6.85 -7.5 Q-6.2 -6.95 -5.4 -6.55 L-4.35 -6.0 -2.9 -5.5 2.5 -5.1 2.5 -4.9 2.6 -4.45 2.65 -3.9 2.4 -4.5 1.55 -4.4 Q-0.5 -4.3 -2.4 -4.9 L-3.8 -5.4 -4.8 -5.95 -5.3 -6.25 -5.85 -6.55 -6.85 -7.35 -7.0 -7.45 -7.75 -8.1 -7.75 -7.8 -7.3 -6.8 -7.1 -6.25 -6.95 -6.0 -6.85 -5.9 -6.65 -6.0 -6.85 -6.95 -6.75 -6.85 -6.75 -6.75 -6.45 -5.7 -6.4 -5.65 -6.35 -5.6 -6.35 -5.55 -6.3 -5.55 -6.2 -5.5 -6.1 -5.55 -6.15 -6.6 -5.85 -5.35 -5.1 -4.8 -5.15 -5.75 -5.05 -5.6 -5.0 -5.45 -4.95 -5.15 -4.9 -5.05 -4.9 -4.9 -4.95 -4.65 -4.95 -4.6 -4.0 -4.05 -4.0 -5.05 -3.9 -4.9 -3.8 -3.95 -2.6 -3.55 -2.55 -4.6 -2.4 -3.5 -1.1 -3.3 -1.1 -4.3 -1.05 -4.25 -0.95 -4.0 -0.9 -3.85 -0.9 -3.75 -0.9 -3.45 -0.9 -3.2 0.65 -3.0 0.6 -3.1 0.6 -4.1 0.75 -3.0 2.4 -2.95 2.4 -4.05 2.5 -4.2 2.65 -2.95 2.85 -2.95 2.85 -2.8 2.9 -2.7 2.3 -2.65 3.1 -2.05 3.4 -1.55 3.45 -1.45 1.8 -2.55 1.95 -2.6 -0.25 -2.75 -2.3 -3.15 -4.2 -3.75 -4.85 -3.85 -7.25 -3.95 -7.3 -3.25 -7.3 -2.85 -7.1 0.35 -7.1 0.45 -6.5 1.75 -6.3 1.9 Q-5.2 2.8 -3.8 3.05 L-1.25 2.95 -1.25 2.25 -2.9 1.55 -4.65 -0.05 -4.95 -0.45 -3.3 0.7 -2.55 0.9 -2.65 -1.6 -2.5 -2.9 -2.5 -3.05 -2.3 -3.15 -2.2 -3.05 -2.25 -2.85 -2.4 0.65 -1.55 1.5 0.2 2.05 4.1 2.1 3.25 2.35 1.25 2.35 1.15 2.35 1.15 2.4 4.3 2.8 -0.05 3.05 0.15 3.45 Q1.15 4.45 2.4 5.05 L4.2 5.5 4.8 5.55 Q5.75 5.45 6.65 4.95 L7.35 4.5 M8.1 -3.95 L8.0 -4.75 7.45 -4.15 7.25 -4.0 8.1 -3.95 M5.4 1.5 L6.15 3.05 6.15 3.1 5.4 1.5 M6.7 4.05 L6.75 4.15 6.7 4.2 6.7 4.05 M-6.9 -5.5 L-7.2 -4.35 -5.45 -4.45 -6.9 -5.5" fill="#51366d" fill-rule="evenodd" stroke="none"/>
    <path d="M6.7 -5.85 L6.75 -5.9 7.7 -6.95 7.8 -6.95 7.95 -5.15 7.45 -4.6 7.35 -6.1 7.3 -4.4 6.85 -4.15 6.7 -5.85 M7.35 4.5 L6.65 4.95 Q5.75 5.45 4.8 5.55 L4.2 5.5 2.4 5.05 Q1.15 4.45 0.15 3.45 L-0.05 3.05 4.3 2.8 1.15 2.4 1.15 2.35 1.25 2.35 3.25 2.35 4.1 2.1 0.2 2.05 -1.55 1.5 -2.4 0.65 -2.25 -2.85 -2.2 -3.05 -2.3 -3.15 -2.5 -3.05 -2.5 -2.9 -2.65 -1.6 -2.55 0.9 -3.3 0.7 -4.95 -0.45 -4.65 -0.05 -2.9 1.55 -1.25 2.25 -1.25 2.95 -3.8 3.05 Q-5.2 2.8 -6.3 1.9 L-6.5 1.75 -7.1 0.45 -7.1 0.35 -7.3 -2.85 -7.3 -3.25 -7.25 -3.95 -4.85 -3.85 -4.2 -3.75 -2.3 -3.15 -0.25 -2.75 1.95 -2.6 1.8 -2.55 3.45 -1.45 5.3 1.25 5.4 1.5 6.15 3.1 6.35 3.45 6.45 3.65 6.7 4.05 6.7 4.2 6.75 4.15 6.8 4.2 7.35 4.5 M2.85 -2.95 L2.65 -2.95 2.5 -4.2 2.4 -4.05 2.4 -2.95 0.75 -3.0 0.6 -4.1 0.6 -3.1 0.65 -3.0 -0.9 -3.2 -0.9 -3.45 -0.9 -3.75 -0.9 -3.85 -0.95 -4.0 -1.05 -4.25 -1.1 -4.3 -1.1 -3.3 -2.4 -3.5 -2.55 -4.6 -2.6 -3.55 -3.8 -3.95 -3.9 -4.9 -4.0 -5.05 -4.0 -4.05 -4.95 -4.6 -4.95 -4.65 -4.9 -4.9 -4.9 -5.05 -4.95 -5.15 -5.0 -5.45 -5.05 -5.6 -5.15 -5.75 -5.1 -4.8 -5.85 -5.35 -6.15 -6.6 -6.1 -5.55 -6.2 -5.5 -6.3 -5.55 -6.35 -5.55 -6.35 -5.6 -6.4 -5.65 -6.45 -5.7 -6.75 -6.75 -6.75 -6.85 -6.85 -6.95 -6.65 -6.0 -6.85 -5.9 -6.95 -6.0 -7.1 -6.25 -7.3 -6.8 -7.75 -7.8 -7.75 -8.1 -7.0 -7.45 -6.85 -7.35 -5.85 -6.55 -5.3 -6.25 -4.8 -5.95 -3.8 -5.4 -2.4 -4.9 Q-0.5 -4.3 1.55 -4.4 L2.4 -4.5 2.65 -3.9 2.85 -2.95 M8.1 -3.95 L7.25 -4.0 7.45 -4.15 8.0 -4.75 8.1 -3.95" fill="#8055aa" fill-rule="evenodd" stroke="none"/>
    <path d="M6.9 -3.8 L7.0 -3.85 8.1 -3.75 8.25 -2.55 7.15 -2.7 6.95 -3.5 6.9 -3.8 M8.3 -1.45 L8.35 -1.0 7.6 -1.65 8.3 -1.45 M3.1 -2.05 L2.3 -2.65 2.9 -2.7 3.1 -2.05 M-6.9 -5.5 L-5.45 -4.45 -7.2 -4.35 -6.9 -5.5" fill="#ffffcc" fill-rule="evenodd" stroke="none"/>
    <path d="M8.25 -2.55 L8.3 -1.45 7.6 -1.65 7.25 -2.35 7.15 -2.7 8.25 -2.55" fill="#ff3399" fill-rule="evenodd" stroke="none"/>
  </g>
</svg>
