<?xml version="1.0" encoding="UTF-8" standalone="no"?>
<svg xmlns:ffdec="https://www.free-decompiler.com/flash" xmlns:xlink="http://www.w3.org/1999/xlink" ffdec:objectType="shape" height="50.5px" width="43.85px" xmlns="http://www.w3.org/2000/svg">
  <g transform="matrix(1.0, 0.0, 0.0, 1.0, 21.95, 25.25)">
    <path d="M-2.05 -25.25 L4.9 -24.7 4.0 -17.7 21.5 -16.9 21.9 -1.25 -19.9 -2.05 -20.95 -17.35 -2.05 -17.0 -1.95 -17.25 Q3.55 -22.1 -2.05 -25.25 M3.15 2.35 L3.75 4.75 16.1 5.25 15.95 11.6 Q6.25 7.3 3.1 13.45 L3.15 13.55 3.65 24.2 -0.3 24.85 -0.9 13.85 -6.95 4.9 -2.75 4.15 3.15 2.35 M11.5 7.05 L11.0 7.55 11.0 8.0 11.05 8.6 11.55 9.0 12.2 8.9 Q13.4 7.65 11.75 6.95 L11.5 7.05 M5.5 6.65 L5.4 6.7 Q5.1 6.85 5.05 7.15 4.8 8.05 5.3 8.95 5.95 9.6 6.4 8.85 7.3 7.25 5.65 6.6 L5.65 6.65 5.5 6.65 M9.35 6.95 L9.35 7.0 Q8.05 7.3 8.35 8.6 8.7 9.0 9.15 8.9 L9.55 8.75 Q10.8 7.7 9.35 6.95 M2.8 7.7 Q2.5 7.35 2.15 7.35 L1.55 7.7 Q1.25 8.05 1.25 8.55 1.25 9.05 1.55 9.4 L2.15 9.75 Q2.5 9.75 2.8 9.4 L3.05 8.55 2.8 7.7 M0.65 -10.35 Q1.3 -10.35 1.75 -10.8 L2.2 -11.9 1.75 -13.0 Q1.3 -13.45 0.65 -13.45 L-0.45 -13.0 Q-0.9 -12.55 -0.9 -11.9 -0.9 -11.25 -0.45 -10.8 0.0 -10.35 0.65 -10.35 M7.95 -12.65 L7.95 -12.55 Q7.8 -11.35 8.7 -10.45 8.85 -10.25 9.0 -10.35 10.05 -10.85 10.15 -12.25 L10.1 -12.35 9.8 -12.95 9.2 -13.3 Q8.45 -13.2 7.95 -12.65 M6.35 -11.5 L6.1 -13.0 5.5 -13.65 Q5.15 -13.65 4.9 -13.0 4.65 -12.4 4.65 -11.5 4.65 -10.6 4.9 -9.95 5.15 -9.35 5.5 -9.35 L6.1 -9.95 6.35 -11.5 M13.55 -7.25 L13.55 -5.3 11.65 -5.3 11.65 -7.25 13.55 -7.25 M15.15 -6.2 Q15.15 -7.3 14.4 -8.05 13.65 -8.8 12.55 -8.8 11.45 -8.8 10.7 -8.05 9.95 -7.3 9.95 -6.2 9.95 -5.1 10.7 -4.35 11.45 -3.6 12.55 -3.6 13.65 -3.6 14.4 -4.35 15.15 -5.1 15.15 -6.2 M11.05 -11.75 L12.15 -10.95 12.35 -11.1 13.0 -12.5 13.0 -12.6 Q12.85 -13.15 12.25 -13.3 11.0 -12.95 11.05 -11.75 M16.85 -11.45 Q16.9 -12.8 15.8 -13.45 14.85 -13.15 14.7 -12.15 14.55 -11.25 15.4 -10.85 16.6 -10.25 16.85 -11.3 L16.85 -11.45 M-1.95 6.9 Q-2.4 6.9 -2.7 7.35 -3.05 7.75 -3.05 8.35 L-2.7 9.4 Q-2.4 9.8 -1.95 9.8 -1.5 9.8 -1.15 9.4 -0.85 8.95 -0.85 8.35 -0.85 7.75 -1.15 7.35 -1.5 6.9 -1.95 6.9 M-12.85 -8.3 L-13.5 -7.8 -13.8 -6.6 -13.5 -5.4 Q-13.25 -4.9 -12.85 -4.9 -12.45 -4.9 -12.15 -5.4 -11.9 -5.9 -11.9 -6.6 -11.9 -7.3 -12.15 -7.8 -12.45 -8.3 -12.85 -8.3 M-14.5 -11.8 L-12.55 -14.9 -16.45 -14.9 -14.5 -11.8 M-3.25 -4.55 Q-2.55 -4.8 -2.4 -5.6 L-2.45 -6.05 Q-2.25 -7.3 -3.15 -7.85 -4.7 -7.1 -4.35 -5.35 L-3.25 -4.55 M-8.95 -4.5 Q-8.0 -4.5 -7.3 -5.0 -6.65 -5.55 -6.65 -6.25 -6.65 -6.95 -7.3 -7.45 -8.0 -8.0 -8.95 -8.0 -9.9 -8.0 -10.55 -7.45 -11.25 -6.95 -11.25 -6.25 -11.25 -5.55 -10.55 -5.0 -9.9 -4.5 -8.95 -4.5 M-8.95 -10.6 Q-8.3 -10.65 -8.1 -11.3 L-8.15 -11.45 Q-8.5 -12.75 -9.75 -13.1 -11.0 -12.5 -10.65 -10.95 -10.3 -9.35 -9.4 -10.65 L-8.95 -10.6 M-3.7 -10.75 Q-3.4 -11.0 -3.35 -11.4 -3.2 -13.7 -5.5 -13.9 L-6.2 -13.7 Q-7.2 -13.4 -7.15 -12.35 L-7.05 -11.15 Q-6.95 -10.65 -6.55 -10.45 -5.1 -9.65 -3.7 -10.75" fill="#dad0bc" fill-rule="evenodd" stroke="none"/>
    <path d="M16.85 -11.45 L16.85 -11.3 Q16.6 -10.25 15.4 -10.85 14.55 -11.25 14.7 -12.15 14.85 -13.15 15.8 -13.45 16.9 -12.8 16.85 -11.45 M11.05 -11.75 Q11.0 -12.95 12.25 -13.3 12.85 -13.15 13.0 -12.6 L13.0 -12.5 12.35 -11.1 12.15 -10.95 11.05 -11.75 M15.15 -6.2 Q15.15 -5.1 14.4 -4.35 13.65 -3.6 12.55 -3.6 11.45 -3.6 10.7 -4.35 9.95 -5.1 9.95 -6.2 9.95 -7.3 10.7 -8.05 11.45 -8.8 12.55 -8.8 13.65 -8.8 14.4 -8.05 15.15 -7.3 15.15 -6.2 M13.55 -7.25 L11.65 -7.25 11.65 -5.3 13.55 -5.3 13.55 -7.25 M6.35 -11.5 L6.1 -9.95 5.5 -9.35 Q5.15 -9.35 4.9 -9.95 4.65 -10.6 4.65 -11.5 4.65 -12.4 4.9 -13.0 5.15 -13.65 5.5 -13.65 L6.1 -13.0 6.35 -11.5 M7.95 -12.65 Q8.45 -13.2 9.2 -13.3 L9.8 -12.95 10.1 -12.35 10.15 -12.25 Q10.05 -10.85 9.0 -10.35 8.85 -10.25 8.7 -10.45 7.8 -11.35 7.95 -12.55 L7.95 -12.65 M0.65 -10.35 Q0.0 -10.35 -0.45 -10.8 -0.9 -11.25 -0.9 -11.9 -0.9 -12.55 -0.45 -13.0 L0.65 -13.45 Q1.3 -13.45 1.75 -13.0 L2.2 -11.9 1.75 -10.8 Q1.3 -10.35 0.65 -10.35 M2.8 7.7 L3.05 8.55 2.8 9.4 Q2.5 9.75 2.15 9.75 L1.55 9.4 Q1.25 9.05 1.25 8.55 1.25 8.05 1.55 7.7 L2.15 7.35 Q2.5 7.35 2.8 7.7 M9.35 6.95 Q10.8 7.7 9.55 8.75 L9.15 8.9 Q8.7 9.0 8.35 8.6 8.05 7.3 9.35 7.0 L9.35 6.95 M5.5 6.65 L5.65 6.65 5.65 6.6 Q7.3 7.25 6.4 8.85 5.95 9.6 5.3 8.95 4.8 8.05 5.05 7.15 5.1 6.85 5.4 6.7 L5.5 6.65 M11.5 7.05 L11.75 6.95 Q13.4 7.65 12.2 8.9 L11.55 9.0 11.05 8.6 11.0 8.0 11.0 7.55 11.5 7.05 M-3.7 -10.75 Q-5.1 -9.65 -6.55 -10.45 -6.95 -10.65 -7.05 -11.15 L-7.15 -12.35 Q-7.2 -13.4 -6.2 -13.7 L-5.5 -13.9 Q-3.2 -13.7 -3.35 -11.4 -3.4 -11.0 -3.7 -10.75 M-8.95 -10.6 L-9.4 -10.65 Q-10.3 -9.35 -10.65 -10.95 -11.0 -12.5 -9.75 -13.1 -8.5 -12.75 -8.15 -11.45 L-8.1 -11.3 Q-8.3 -10.65 -8.95 -10.6 M-8.95 -4.5 Q-9.9 -4.5 -10.55 -5.0 -11.25 -5.55 -11.25 -6.25 -11.25 -6.95 -10.55 -7.45 -9.9 -8.0 -8.95 -8.0 -8.0 -8.0 -7.3 -7.45 -6.65 -6.95 -6.65 -6.25 -6.65 -5.55 -7.3 -5.0 -8.0 -4.5 -8.95 -4.5 M-3.25 -4.55 L-4.35 -5.35 Q-4.7 -7.1 -3.15 -7.85 -2.25 -7.3 -2.45 -6.05 L-2.4 -5.6 Q-2.55 -4.8 -3.25 -4.55 M-14.5 -11.8 L-16.45 -14.9 -12.55 -14.9 -14.5 -11.8 M-12.85 -8.3 Q-12.45 -8.3 -12.15 -7.8 -11.9 -7.3 -11.9 -6.6 -11.9 -5.9 -12.15 -5.4 -12.45 -4.9 -12.85 -4.9 -13.25 -4.9 -13.5 -5.4 L-13.8 -6.6 -13.5 -7.8 -12.85 -8.3 M-1.95 6.9 Q-1.5 6.9 -1.15 7.35 -0.85 7.75 -0.85 8.35 -0.85 8.95 -1.15 9.4 -1.5 9.8 -1.95 9.8 -2.4 9.8 -2.7 9.4 L-3.05 8.35 Q-3.05 7.75 -2.7 7.35 -2.4 6.9 -1.95 6.9" fill="#554b2f" fill-rule="evenodd" stroke="none"/>
    <path d="M21.9 -1.25 L3.15 2.35 -2.75 4.15 -2.7 1.1 -21.95 0.4 -20.95 -17.35 -19.9 -2.05 21.9 -1.25 M15.95 11.6 L3.15 13.55 3.1 13.45 Q6.25 7.3 15.95 11.6 M-3.1 13.35 L-7.35 12.65 -6.95 4.9 -0.9 13.85 -0.3 24.85 -3.1 13.35 M-2.05 -17.3 L-2.05 -25.25 Q3.55 -22.1 -1.95 -17.25 L-2.05 -17.3" fill="#b5ab75" fill-rule="evenodd" stroke="none"/>
    <path d="M-2.05 -17.0 L-2.05 -17.3 -1.95 -17.25 -2.05 -17.0" fill="#c5b994" fill-rule="evenodd" stroke="none"/>
    <path d="M3.65 24.2 L-1.85 25.25 -3.1 13.35 -0.3 24.85 3.65 24.2" fill="#91814f" fill-rule="evenodd" stroke="none"/>
  </g>
</svg>
