<?xml version="1.0" encoding="UTF-8" standalone="no"?>
<svg xmlns:ffdec="https://www.free-decompiler.com/flash" xmlns:xlink="http://www.w3.org/1999/xlink" ffdec:objectType="shape" height="42.8px" width="45.55px" xmlns="http://www.w3.org/2000/svg">
  <g transform="matrix(1.0, 0.0, 0.0, 1.0, 22.9, 33.0)">
    <path d="M7.2 -31.15 L8.1 -31.4 8.0 -32.3 7.55 -32.5 -0.8 -29.75 -1.3 -29.55 -5.15 -28.2 -5.55 -28.1 -10.75 -26.1 -11.2 -25.95 -11.35 -25.05 -10.25 -24.55 -9.7 -25.2 -5.65 -26.75 -4.8 -27.15 -1.15 -28.35 -0.95 -27.65 -0.85 -27.55 -4.15 -26.35 Q-5.25 -25.9 -6.25 -25.8 L-8.4 -24.9 -8.45 -24.45 2.1 -14.65 18.4 -20.55 20.95 -22.05 10.1 -29.95 10.05 -30.0 Q9.3 -30.6 8.4 -30.55 L5.5 -29.75 -0.5 -27.65 -0.35 -28.05 -0.25 -28.65 3.15 -29.75 3.4 -29.3 3.7 -29.3 3.95 -29.65 3.95 -30.05 6.4 -30.95 6.5 -30.75 Q6.95 -30.65 7.2 -31.15 M13.15 -13.45 L12.9 -16.5 8.35 -14.05 8.3 -11.85 4.1 -10.35 3.8 -12.85 1.3 -12.85 0.8 -13.2 0.75 -9.0 0.55 6.6 0.45 6.65 0.55 6.85 0.4 8.75 3.15 8.0 5.95 6.75 Q8.45 5.6 11.1 4.85 L14.25 4.0 18.55 2.45 Q19.25 2.45 19.75 1.7 20.25 0.9 20.25 -0.2 L19.75 -15.7 19.65 -18.95 17.7 -17.95 17.45 -15.0 17.4 -14.25 13.15 -13.45 M13.7 -15.25 L14.05 -14.45 16.8 -15.5 16.9 -17.85 16.1 -17.6 Q15.1 -17.6 14.4 -16.9 13.7 -16.2 13.7 -15.25 M6.7 -13.8 Q5.8 -13.8 5.2 -13.25 4.55 -12.75 4.6 -12.05 L4.8 -11.35 7.15 -12.15 7.25 -13.95 6.7 -13.8 M3.65 -3.75 L4.65 -4.8 7.2 -5.7 8.35 2.25 4.05 4.0 3.65 -3.75 M4.95 1.55 Q4.7 2.15 5.2 2.0 L7.45 1.55 7.4 1.35 7.4 -0.5 7.0 -4.2 6.5 -4.25 4.5 -3.3 4.95 1.55 M14.15 -2.0 Q13.9 -0.9 15.0 -1.05 15.7 -1.05 16.2 -1.5 L16.15 -6.65 15.5 -6.7 13.95 -5.7 14.15 -2.0 M13.5 -0.5 L13.25 -6.75 16.85 -8.25 17.15 -1.1 13.6 0.3 13.5 -0.5 M22.65 -19.85 L20.75 -19.3 21.05 2.25 18.7 3.05 Q15.15 4.25 11.7 5.65 L7.1 7.45 4.4 8.45 2.85 8.85 -0.15 9.8 -5.85 7.8 -5.65 7.25 -5.9 6.15 -9.6 4.6 -10.15 4.6 -11.65 3.95 -13.2 3.7 -13.6 3.5 -15.95 4.2 -16.5 4.5 -20.9 2.65 -20.9 -18.8 -21.65 -18.8 -22.9 -20.1 -22.6 -21.2 -10.8 -26.9 8.35 -33.0 19.1 -23.9 22.0 -22.15 22.65 -19.85 M-12.05 -25.55 L-21.75 -20.35 -12.2 -24.85 -12.05 -25.55 M-0.2 -14.9 L1.35 -14.15 -5.65 -21.15 -8.55 -23.4 -9.8 -23.95 -0.2 -14.9 M-10.7 -22.1 L-12.25 -21.35 -12.2 -14.25 -9.35 -13.1 -8.95 -14.25 -9.15 -20.1 -10.3 -22.05 -10.7 -22.1 M-4.45 5.6 L-4.35 7.5 -0.25 8.95 -0.3 6.85 -0.05 -14.35 -9.05 -21.65 -7.9 -18.05 -7.95 -12.3 -8.3 -11.75 -13.25 -13.55 -13.5 -20.65 Q-13.5 -21.7 -12.7 -22.45 -11.9 -23.2 -10.75 -23.2 L-10.7 -23.2 -11.25 -23.9 -19.3 -19.8 -19.95 -17.5 -20.1 0.2 -20.1 0.45 -19.8 2.45 -17.1 3.1 -17.0 -10.65 -4.4 -6.55 -4.45 5.2 Q-4.7 5.3 -4.5 5.55 L-4.45 5.6 M-14.25 -8.05 L-15.7 -8.7 -15.75 2.6 -14.55 1.85 -14.3 -7.6 -14.25 -8.05 M-5.5 -4.7 L-5.6 -5.75 -6.6 -5.85 Q-9.75 -7.5 -13.5 -7.95 L-13.2 2.2 -10.6 3.4 -10.15 3.4 -8.95 4.1 -8.5 4.1 -7.3 4.8 -5.8 4.8 -5.65 3.4 -5.65 3.05 -5.55 0.35 -5.5 -0.05 -5.5 -0.7 -5.45 0.45 -5.5 -4.35 -5.5 -4.7" fill="#000000" fill-rule="evenodd" stroke="none"/>
    <path d="M13.15 -13.45 L17.4 -14.25 17.45 -15.0 19.75 -15.7 20.25 -0.2 Q20.25 0.9 19.75 1.7 19.25 2.45 18.55 2.45 L14.25 4.0 11.1 4.85 Q8.45 5.6 5.95 6.75 L3.15 8.0 0.4 8.75 0.55 6.85 3.6 6.0 4.9 5.5 8.1 4.3 12.8 2.65 15.2 1.85 18.2 0.75 Q19.25 0.3 20.25 -0.2 L0.55 6.6 0.75 -9.0 4.1 -10.35 8.3 -11.85 13.15 -13.45 M3.65 -3.75 L4.05 4.0 8.35 2.25 7.2 -5.7 4.65 -4.8 3.65 -3.75 M13.5 -0.5 L13.6 0.3 17.15 -1.1 16.85 -8.25 13.25 -6.75 13.5 -0.5" fill="#cccccc" fill-rule="evenodd" stroke="none"/>
    <path d="M-0.8 -29.75 L7.55 -32.5 8.0 -32.3 8.1 -31.4 7.2 -31.15 6.75 -32.1 6.4 -30.95 3.95 -30.05 3.5 -31.0 3.15 -29.75 -0.25 -28.65 -0.8 -29.75 M-0.5 -27.65 L5.5 -29.75 8.4 -30.55 Q9.3 -30.6 10.05 -30.0 L10.1 -29.95 20.95 -22.05 18.4 -20.55 2.1 -14.65 -8.45 -24.45 -8.4 -24.9 -6.25 -25.8 Q-5.25 -25.9 -4.15 -26.35 L-0.85 -27.55 -0.6 -27.55 -0.5 -27.65 M-1.15 -28.35 L-4.8 -27.15 -5.15 -28.2 -1.3 -29.55 -1.15 -28.35 M-5.65 -26.75 L-9.7 -25.2 -10.25 -25.9 -10.75 -26.1 -5.55 -28.1 -5.65 -26.75 M3.65 -28.0 L11.3 -20.85 11.9 -20.65 13.5 -19.55 13.6 -19.5 11.3 -22.05 3.7 -28.0 3.6 -28.1 3.65 -28.0 M17.9 -20.65 L15.8 -23.25 7.3 -29.55 16.3 -21.7 17.9 -20.65 M9.55 -17.85 L9.6 -18.45 7.35 -20.75 -0.5 -26.15 -0.55 -26.2 -0.5 -26.15 9.55 -17.85 M1.7 -18.8 L5.1 -16.1 4.8 -17.15 -4.4 -25.45 1.7 -18.8" fill="#cc9900" fill-rule="evenodd" stroke="none"/>
    <path d="M7.2 -31.15 Q6.95 -30.65 6.5 -30.75 L6.4 -30.95 6.75 -32.1 7.2 -31.15 M3.95 -30.05 L3.95 -29.65 3.7 -29.3 3.4 -29.3 3.15 -29.75 3.5 -31.0 3.95 -30.05 M-0.25 -28.65 L-0.35 -28.05 -0.5 -27.65 -0.6 -27.55 -0.85 -27.55 -0.95 -27.65 -1.15 -28.35 -1.3 -29.55 -0.8 -29.75 -0.25 -28.65 M-4.8 -27.15 L-5.65 -26.75 -5.55 -28.1 -5.15 -28.2 -4.8 -27.15 M-9.7 -25.2 L-10.25 -24.55 -11.35 -25.05 -11.2 -25.95 -10.75 -26.1 -10.25 -25.9 -9.7 -25.2 M3.65 -28.0 L3.6 -28.1 3.7 -28.0 11.3 -22.05 13.6 -19.5 13.5 -19.55 11.9 -20.65 11.3 -20.85 3.65 -28.0 M17.9 -20.65 L16.3 -21.7 7.3 -29.55 15.8 -23.25 17.9 -20.65 M9.55 -17.85 L-0.5 -26.15 -0.55 -26.2 -0.5 -26.15 7.35 -20.75 9.6 -18.45 9.55 -17.85 M1.7 -18.8 L-4.4 -25.45 4.8 -17.15 5.1 -16.1 1.7 -18.8 M-12.05 -25.55 L-12.2 -24.85 -21.75 -20.35 -12.05 -25.55 M-0.2 -14.9 L-9.8 -23.95 -8.55 -23.4 -5.65 -21.15 1.35 -14.15 -0.2 -14.9" fill="#6b4b01" fill-rule="evenodd" stroke="none"/>
    <path d="M8.3 -11.85 L8.35 -14.05 12.9 -16.5 13.15 -13.45 8.3 -11.85 M17.45 -15.0 L17.7 -17.95 19.65 -18.95 19.75 -15.7 17.45 -15.0 M0.75 -9.0 L0.8 -13.2 1.3 -12.85 3.8 -12.85 4.1 -10.35 0.75 -9.0 M-10.75 -23.2 Q-11.9 -23.2 -12.7 -22.45 -13.5 -21.7 -13.5 -20.65 L-13.25 -13.55 -8.3 -11.75 -7.95 -12.3 -7.9 -18.05 -9.05 -21.65 -0.05 -14.35 -0.3 6.85 -0.25 8.95 -4.35 7.5 -4.45 5.6 -2.95 6.2 -0.3 6.85 -4.45 5.2 -4.4 -6.55 -17.0 -10.65 -17.1 3.1 -19.8 2.45 -20.1 0.45 -18.8 1.15 -17.2 1.55 -20.1 0.2 -19.95 -17.5 -19.3 -19.8 -11.25 -23.9 -10.7 -23.2 -10.75 -23.2 M-17.75 -4.2 Q-18.05 -4.75 -18.45 -4.75 L-18.5 -4.75 -18.65 -1.3 -18.45 -1.25 Q-18.05 -1.25 -17.75 -1.75 -17.45 -2.3 -17.45 -3.0 -17.45 -3.7 -17.75 -4.2" fill="#9a9a9a" fill-rule="evenodd" stroke="none"/>
    <path d="M16.1 -17.6 L16.9 -17.85 16.8 -15.5 14.05 -14.45 13.7 -15.25 16.2 -16.15 16.1 -17.6 M6.7 -13.8 L7.25 -13.95 7.15 -12.15 4.8 -11.35 4.6 -12.05 Q5.4 -12.05 6.05 -12.55 6.65 -13.1 6.7 -13.8 M6.5 -4.25 L7.0 -4.2 7.4 -0.5 7.4 1.35 7.45 1.55 5.2 2.0 Q4.7 2.15 4.95 1.55 L6.75 1.05 6.5 -4.25 M15.5 -6.7 L16.15 -6.65 16.2 -1.5 Q15.7 -1.05 15.0 -1.05 13.9 -0.9 14.15 -2.0 L15.65 -2.3 15.8 -6.15 15.5 -6.7 M-8.95 -14.25 L-9.35 -13.1 -12.2 -14.25 -12.25 -21.35 -10.7 -22.1 -11.45 -21.5 -11.15 -14.85 -8.95 -14.25 M-14.25 -8.05 L-14.3 -7.6 -14.55 1.85 -15.75 2.6 -15.7 -8.7 -14.25 -8.05 M-10.2 -0.95 Q-9.95 -0.65 -9.95 -0.15 -9.95 0.35 -10.2 0.7 L-10.85 1.0 Q-11.2 1.0 -11.45 0.7 L-11.75 -0.15 -11.45 -0.95 -10.85 -1.3 Q-10.5 -1.3 -10.2 -0.95 M-11.6 -3.45 L-9.35 -2.75 -9.15 -5.8 -12.6 -6.85 -12.2 -3.25 -11.6 -3.45 M-10.8 -6.05 Q-10.3 -6.05 -9.95 -5.7 -9.65 -5.4 -9.65 -4.9 -9.65 -4.4 -9.95 -4.05 -10.3 -3.75 -10.8 -3.75 -11.3 -3.75 -11.6 -4.05 -11.95 -4.4 -11.95 -4.9 -11.95 -5.4 -11.6 -5.7 -11.3 -6.05 -10.8 -6.05 M-5.5 -4.7 L-6.45 -4.95 -6.7 -5.2 -7.45 -5.25 -7.55 -2.05 -5.65 -1.55 -5.7 -2.25 -6.9 -2.8 -6.8 -4.55 -5.5 -4.35 -5.45 0.45 -5.5 -0.7 -5.5 -0.05 -7.75 -0.8 -7.8 2.8 -6.55 3.4 -5.65 3.4 -5.8 4.8 -7.3 4.8 -8.5 4.1 -8.95 4.1 -10.15 3.4 -10.6 3.4 -13.2 2.2 -13.5 -7.95 Q-9.75 -7.5 -6.6 -5.85 L-5.6 -5.75 -5.5 -4.7 M-12.15 -2.15 L-12.25 1.35 -9.45 2.0 -9.35 -1.1 -12.15 -2.15 M-5.55 0.35 L-5.65 3.05 -7.2 2.15 -7.2 0.15 -5.55 0.35" fill="#858585" fill-rule="evenodd" stroke="none"/>
    <path d="M0.55 6.85 L0.45 6.65 0.55 6.6 20.25 -0.2 Q19.25 0.3 18.2 0.75 L15.2 1.85 12.8 2.65 8.1 4.3 4.9 5.5 3.6 6.0 0.55 6.85 M13.7 -15.25 Q13.7 -16.2 14.4 -16.9 15.1 -17.6 16.1 -17.6 L16.2 -16.15 13.7 -15.25 M4.6 -12.05 Q4.55 -12.75 5.2 -13.25 5.8 -13.8 6.7 -13.8 6.65 -13.1 6.05 -12.55 5.4 -12.05 4.6 -12.05 M6.5 -4.25 L6.75 1.05 4.95 1.55 4.5 -3.3 6.5 -4.25 M14.15 -2.0 L13.95 -5.7 15.5 -6.7 15.8 -6.15 15.65 -2.3 14.15 -2.0 M-10.7 -22.1 L-10.3 -22.05 -9.15 -20.1 -8.95 -14.25 -11.15 -14.85 -11.45 -21.5 -10.7 -22.1 M-4.45 5.6 L-4.5 5.55 Q-4.7 5.3 -4.45 5.2 L-0.3 6.85 -2.95 6.2 -4.45 5.6 M-20.1 0.45 L-20.1 0.2 -17.2 1.55 -18.8 1.15 -20.1 0.45 M-17.75 -4.2 Q-17.45 -3.7 -17.45 -3.0 -17.45 -2.3 -17.75 -1.75 -18.05 -1.25 -18.45 -1.25 L-18.65 -1.3 -18.5 -4.75 -18.45 -4.75 Q-18.05 -4.75 -17.75 -4.2 M-10.8 -6.05 Q-11.3 -6.05 -11.6 -5.7 -11.95 -5.4 -11.95 -4.9 -11.95 -4.4 -11.6 -4.05 -11.3 -3.75 -10.8 -3.75 -10.3 -3.75 -9.95 -4.05 -9.65 -4.4 -9.65 -4.9 -9.65 -5.4 -9.95 -5.7 -10.3 -6.05 -10.8 -6.05 M-11.6 -3.45 L-12.2 -3.25 -12.6 -6.85 -9.15 -5.8 -9.35 -2.75 -11.6 -3.45 M-10.2 -0.95 Q-10.5 -1.3 -10.85 -1.3 L-11.45 -0.95 -11.75 -0.15 -11.45 0.7 Q-11.2 1.0 -10.85 1.0 L-10.2 0.7 Q-9.95 0.35 -9.95 -0.15 -9.95 -0.65 -10.2 -0.95 M-5.5 -4.35 L-6.8 -4.55 -6.9 -2.8 -5.7 -2.25 -5.65 -1.55 -7.55 -2.05 -7.45 -5.25 -6.7 -5.2 -6.45 -4.95 -5.5 -4.7 -5.5 -4.35 M-5.65 3.4 L-6.55 3.4 -7.8 2.8 -7.75 -0.8 -5.5 -0.05 -5.55 0.35 -7.2 0.15 -7.2 2.15 -5.65 3.05 -5.65 3.4 M-12.15 -2.15 L-9.35 -1.1 -9.45 2.0 -12.25 1.35 -12.15 -2.15" fill="#404040" fill-rule="evenodd" stroke="none"/>
  </g>
</svg>
