<?xml version="1.0" encoding="UTF-8" standalone="no"?>
<svg xmlns:ffdec="https://www.free-decompiler.com/flash" xmlns:xlink="http://www.w3.org/1999/xlink" ffdec:objectType="shape" height="41.4px" width="45.45px" xmlns="http://www.w3.org/2000/svg">
  <g transform="matrix(1.0, 0.0, 0.0, 1.0, 22.7, 20.7)">
    <path d="M-21.2 -3.6 L-21.85 -3.85 -11.75 -11.15 -3.6 -2.4 -2.05 -0.2 -1.1 0.6 -0.65 0.5 2.0 -0.65 11.55 -3.75 14.25 -4.85 15.4 -5.3 18.05 -6.35 22.15 -7.45 22.7 -7.05 22.7 -5.75 -2.0 2.5 -9.9 -7.6 -11.1 -9.05 -10.6 -2.5 -9.3 -1.85 -9.3 -6.35 -9.1 -1.7 -7.35 -0.95 -7.5 -3.05 -7.1 -0.8 -4.6 0.5 -6.1 -2.0 -3.85 1.15 -4.6 1.25 -17.5 -4.15 -13.25 -3.15 -13.2 -7.45 -12.9 -3.0 -11.1 -2.75 -11.15 -9.2 -11.7 -9.85 -20.2 -4.45 -21.2 -3.6 M-18.1 -1.3 L-18.1 -2.0 -16.55 -1.4 -17.6 -2.05 -4.05 4.25 -4.25 17.95 -4.6 17.8 -5.05 3.9 -7.0 3.2 -7.05 4.95 -7.1 5.1 -7.55 2.85 -10.5 1.7 -10.45 3.2 -10.7 3.3 -10.8 3.1 -10.85 1.55 -12.95 0.85 -13.05 3.55 -13.6 0.6 -15.55 -0.2 -15.15 6.2 -15.6 14.55 -16.05 -0.25 -18.1 -1.3 M16.45 1.1 L16.25 1.2 16.2 -1.4 16.45 1.05 16.45 1.1 M8.6 1.0 L8.75 3.3 8.45 3.3 8.6 1.0 M9.8 3.1 L10.5 8.2 8.65 8.85 8.85 15.8 8.35 9.25 7.2 9.3 7.05 8.5 9.75 7.5 9.8 3.1 M3.05 2.45 L3.9 18.2 3.35 18.45 2.9 2.45 3.05 2.45 M16.45 7.25 L16.55 12.6 16.1 7.9 16.45 7.25 M-9.85 5.45 L-9.95 7.95 -8.95 7.9 -9.05 6.0 -8.55 8.2 -10.05 8.15 -10.4 5.1 -9.85 5.45 M-11.45 4.75 L-11.45 4.65 -11.45 4.7 -11.55 6.95 -11.65 5.15 -11.45 4.75 M-12.45 12.3 L-12.4 13.6 -11.85 13.6 -11.9 12.25 -12.45 12.3 M-10.2 11.8 L-10.3 9.5 -8.65 9.4 -8.55 11.75 -10.2 11.8 M-12.85 13.1 L-12.65 12.15 -12.2 11.75 Q-11.9 11.75 -11.7 12.1 -11.5 12.5 -11.45 13.05 L-11.6 14.0 -12.1 14.45 -12.6 14.05 -12.85 13.1 M-9.8 9.7 L-9.75 11.55 -8.8 11.5 -8.9 9.7 -9.8 9.7 M-11.7 8.6 L-11.6 10.9 -12.75 10.95 -12.85 8.65 -11.7 8.6 M-11.85 10.65 L-11.9 8.8 -12.55 8.8 -12.5 10.7 -11.85 10.65 M-10.25 12.6 L-8.7 13.5 -8.8 15.2 -10.15 14.85 -10.25 12.6 M-9.2 13.5 L-10.05 13.3 -9.75 14.5 -8.95 14.8 -9.2 13.5 M17.65 5.95 L15.8 6.45 15.35 5.7 17.3 4.95 17.3 1.35 18.0 1.1 17.65 5.95" fill="#584932" fill-rule="evenodd" stroke="none"/>
    <path d="M22.7 -5.75 L22.75 -5.25 22.25 -4.75 22.2 -4.75 22.05 -4.65 21.05 -3.85 20.9 12.2 21.2 13.55 20.2 14.0 20.1 14.05 5.95 19.4 3.7 20.05 1.05 20.5 Q-1.65 21.15 -4.05 19.55 L-6.0 18.65 -8.9 18.05 -14.0 16.35 -16.95 15.05 -17.15 14.9 -17.45 14.75 -20.85 13.5 -21.2 -3.6 -20.2 -4.45 -11.7 -9.85 -11.15 -9.2 -18.2 -4.5 -18.1 -2.0 -18.1 -1.3 -17.55 13.9 -15.6 14.55 -14.7 14.85 -13.85 4.3 -10.8 3.1 -10.7 3.3 -10.45 3.2 Q-9.1 3.15 -8.15 4.1 -7.2 5.05 -7.1 6.5 L-7.1 16.65 -4.6 17.8 -4.25 17.95 -2.9 18.55 -2.85 17.3 -3.35 1.95 -3.85 1.15 -6.1 -2.0 -9.9 -7.6 -2.0 2.5 22.7 -5.75 M-18.45 -2.9 L-18.45 -4.3 -20.25 -3.9 -20.4 13.25 -18.55 14.05 -18.65 -4.1 -18.45 -2.9 M20.5 -3.45 L18.65 -2.2 19.0 11.6 18.65 13.6 20.45 12.7 20.5 -3.45 M16.25 1.2 L16.45 1.1 17.65 0.65 18.0 -1.05 17.6 -1.85 16.2 -1.4 8.6 1.0 3.7 2.55 3.05 2.45 2.9 2.45 -0.2 3.5 -0.25 2.5 -0.45 2.55 -1.2 2.95 -2.65 2.65 -2.1 19.3 0.35 19.6 0.4 19.55 0.45 19.5 0.85 19.25 3.2 18.55 3.35 18.45 3.9 18.2 17.75 12.2 17.8 6.75 16.45 7.1 16.4 7.05 16.4 7.15 16.35 7.15 15.5 7.65 14.6 1.75 16.25 1.2 M8.75 3.3 L9.8 3.1 9.75 7.5 7.05 8.5 7.3 3.55 8.45 3.3 8.75 3.3 M-11.45 4.75 L-13.4 6.15 Q-14.3 8.15 -14.25 10.4 L-14.05 12.85 -14.05 13.25 -13.95 13.6 -7.75 16.7 -7.55 7.15 -9.05 5.45 -10.65 4.1 -11.45 4.7 -11.45 4.65 -11.45 4.75 M17.65 5.95 L18.0 1.1 17.3 1.35 17.3 4.95 15.35 5.7 15.8 6.45 17.65 5.95" fill="#000000" fill-rule="evenodd" stroke="none"/>
    <path d="M-21.85 -3.85 L-22.7 -4.4 -22.7 -5.0 Q-17.35 -8.5 -11.95 -11.95 L-11.15 -11.4 -9.0 -9.4 -8.8 -8.9 -7.65 -8.1 -3.6 -2.4 -11.75 -11.15 -21.85 -3.85 M21.4 -8.5 L22.15 -7.45 18.05 -6.35 19.3 -7.1 10.55 -18.35 19.6 -8.0 21.4 -8.5 M7.55 -18.1 L6.85 -18.3 9.75 -19.05 7.55 -18.1 M15.4 -5.3 L14.25 -4.85 6.2 -15.0 15.4 -5.3 M11.55 -3.75 L2.0 -0.65 -6.85 -11.2 -6.35 -11.7 2.45 -1.55 7.15 -3.0 0.1 -12.9 7.9 -3.35 11.55 -3.75 M-1.8 -15.7 L1.15 -16.15 -2.25 -15.25 -1.8 -15.7" fill="#8a734f" fill-rule="evenodd" stroke="none"/>
    <path d="M-11.15 -9.2 L-11.1 -2.75 -12.9 -3.0 -13.2 -7.45 -13.25 -3.15 -17.5 -4.15 -4.6 1.25 -3.85 1.15 -3.35 1.95 -2.85 17.3 -2.9 18.55 -4.25 17.95 -4.05 4.25 -17.6 -2.05 -16.55 -1.4 -18.1 -2.0 -18.2 -4.5 -11.15 -9.2 M-6.1 -2.0 L-4.6 0.5 -7.1 -0.8 -7.5 -3.05 -7.35 -0.95 -9.1 -1.7 -9.3 -6.35 -9.3 -1.85 -10.6 -2.5 -11.1 -9.05 -9.9 -7.6 -6.1 -2.0 M-18.1 -1.3 L-16.05 -0.25 -15.6 14.55 -15.15 6.2 -15.55 -0.2 -13.6 0.6 -13.05 3.55 -12.95 0.85 -10.85 1.55 -10.8 3.1 -13.85 4.3 -14.7 14.85 -15.6 14.55 -17.55 13.9 -18.1 -1.3 M-10.45 3.2 L-10.5 1.7 -7.55 2.85 -7.1 5.1 -7.05 4.95 -7.0 3.2 -5.05 3.9 -4.6 17.8 -7.1 16.65 -7.1 6.5 Q-7.2 5.05 -8.15 4.1 -9.1 3.15 -10.45 3.2 M-18.45 -2.9 L-18.65 -4.1 -18.55 14.05 -20.4 13.25 -20.25 -3.9 -18.45 -4.3 -18.45 -2.9 M16.45 7.25 L16.35 7.15 16.4 7.15 16.45 7.25 M-0.45 2.8 L-0.15 6.0 0.35 19.6 -2.1 19.3 -2.65 2.65 -1.2 2.95 -0.45 2.55 -0.45 2.8 M-9.05 6.0 L-9.05 5.45 -9.85 5.45 -10.4 5.1 -10.05 8.15 -8.55 8.2 -9.05 6.0 M-11.45 4.7 L-10.65 4.1 -9.05 5.45 -7.55 7.15 -7.75 16.7 -13.95 13.6 -14.05 13.25 -14.05 12.85 -14.25 10.4 Q-14.3 8.15 -13.4 6.15 L-11.45 4.75 -11.65 5.15 -12.5 6.75 -12.4 6.95 Q-12.1 8.0 -11.55 6.95 L-11.45 4.7 M-12.85 13.1 L-12.6 14.05 -12.1 14.45 -11.6 14.0 -11.45 13.05 Q-11.5 12.5 -11.7 12.1 -11.9 11.75 -12.2 11.75 L-12.65 12.15 -12.85 13.1 M-10.2 11.8 L-8.55 11.75 -8.65 9.4 -10.3 9.5 -10.2 11.8 M-11.7 8.6 L-12.85 8.65 -12.75 10.95 -11.6 10.9 -11.7 8.6 M-10.25 12.6 L-10.15 14.85 -8.8 15.2 -8.7 13.5 -10.25 12.6" fill="#ac986a" fill-rule="evenodd" stroke="none"/>
    <path d="M-22.7 -5.0 L-12.5 -13.65 8.15 -20.7 10.65 -20.5 17.0 -13.65 19.7 -10.15 21.4 -8.5 19.6 -8.0 10.55 -18.35 19.3 -7.1 18.05 -6.35 15.4 -5.3 6.2 -15.0 14.25 -4.85 11.55 -3.75 7.9 -3.35 0.1 -12.9 7.15 -3.0 2.45 -1.55 -6.35 -11.7 -6.85 -11.2 2.0 -0.65 -0.65 0.5 -1.1 0.6 -2.05 -0.2 -3.6 -2.4 -7.65 -8.1 -8.8 -8.9 -9.0 -9.4 -11.15 -11.4 -11.95 -11.95 Q-17.35 -8.5 -22.7 -5.0 M7.55 -18.1 L9.75 -19.05 6.85 -18.3 7.55 -18.1 M-1.8 -15.7 L-2.25 -15.25 1.15 -16.15 -1.8 -15.7" fill="#d5c6b5" fill-rule="evenodd" stroke="none"/>
    <path d="M22.25 -4.75 L22.2 -4.7 22.2 -4.75 22.25 -4.75 M20.2 14.0 L19.95 14.1 20.1 14.05 20.2 14.0 M20.5 -3.45 L20.45 12.7 18.65 13.6 19.0 11.6 18.65 -2.2 20.5 -3.45 M16.45 1.05 L16.2 -1.4 16.25 1.2 14.6 1.75 15.5 7.65 16.35 7.15 16.45 7.25 16.45 7.1 17.8 6.75 17.75 12.2 3.9 18.2 3.05 2.45 3.7 2.55 8.6 1.0 16.2 -1.4 17.6 -1.85 18.0 -1.05 17.65 0.65 16.45 1.1 16.45 1.05 M8.75 3.3 L8.6 1.0 8.45 3.3 7.3 3.55 7.05 8.5 7.2 9.3 8.35 9.25 8.85 15.8 8.65 8.85 10.5 8.2 9.8 3.1 8.75 3.3 M16.45 7.25 L16.1 7.9 16.55 12.6 16.45 7.25 M-0.2 4.15 L-0.2 3.5 2.9 2.45 3.35 18.45 3.2 18.55 0.85 19.25 0.45 19.5 0.4 19.5 0.5 18.05 -0.2 4.15" fill="#c7bd9e" fill-rule="evenodd" stroke="none"/>
    <path d="M16.45 1.1 L16.45 1.05 16.45 1.1 M16.45 7.1 L16.45 7.25 16.4 7.15 16.4 7.05 16.45 7.1" fill="#91814f" fill-rule="evenodd" stroke="none"/>
    <path d="M22.2 -4.7 L22.05 -4.65 22.2 -4.75 22.2 -4.7 M-0.2 3.5 L-0.2 4.15 -0.15 6.0 -0.45 2.8 -0.25 2.5 -0.2 3.5 M-9.85 5.45 L-9.05 5.45 -9.05 6.0 -8.95 7.9 -9.95 7.95 -9.85 5.45 M-11.55 6.95 Q-12.1 8.0 -12.4 6.95 L-12.5 6.75 -11.65 5.15 -11.55 6.95 M-12.45 12.3 L-11.9 12.25 -11.85 13.6 -12.4 13.6 -12.45 12.3 M-9.8 9.7 L-8.9 9.7 -8.8 11.5 -9.75 11.55 -9.8 9.7 M-11.85 10.65 L-12.5 10.7 -12.55 8.8 -11.9 8.8 -11.85 10.65 M-9.2 13.5 L-8.95 14.8 -9.75 14.5 -10.05 13.3 -9.2 13.5" fill="#a49460" fill-rule="evenodd" stroke="none"/>
    <path d="M-0.25 2.5 L-0.45 2.8 -0.45 2.55 -0.25 2.5" fill="#b8ab83" fill-rule="evenodd" stroke="none"/>
    <path d="M-0.2 4.15 L0.5 18.05 0.4 19.5 0.4 19.55 0.35 19.6 -0.15 6.0 -0.2 4.15" fill="#7d6d4a" fill-rule="evenodd" stroke="none"/>
  </g>
</svg>
