<?xml version="1.0" encoding="UTF-8" standalone="no"?>
<svg xmlns:ffdec="https://www.free-decompiler.com/flash" xmlns:xlink="http://www.w3.org/1999/xlink" ffdec:objectType="shape" height="38.35px" width="48.0px" xmlns="http://www.w3.org/2000/svg">
  <g transform="matrix(1.0, 0.0, 0.0, 1.0, 24.0, 19.2)">
    <path d="M10.6 -18.7 L10.0 -18.15 10.15 -17.05 12.8 -16.2 13.2 -17.65 10.6 -18.7 M20.7 2.4 L20.15 2.8 Q15.65 5.95 10.5 7.75 5.0 9.6 -0.7 10.55 L-0.6 11.8 0.15 13.55 1.4 14.85 2.3 14.4 3.15 14.75 3.55 16.0 6.4 17.2 6.1 15.65 5.55 16.0 5.7 15.0 6.9 16.3 7.15 16.8 7.15 17.4 7.15 17.6 7.1 18.0 5.35 18.8 4.45 19.15 3.45 19.15 2.35 18.05 2.2 17.95 3.0 17.6 3.6 17.8 3.4 18.45 6.0 17.85 5.75 17.75 2.9 17.0 1.65 16.9 0.9 16.25 1.0 15.35 Q-0.25 14.6 -0.85 13.3 L-1.85 10.8 Q-5.05 11.55 -7.9 10.15 L-8.6 9.8 -10.0 8.8 -11.4 7.65 -12.3 6.85 -13.25 6.05 -14.5 4.85 -15.35 4.2 -16.95 3.3 -17.75 2.85 -19.3 1.95 Q-20.05 1.5 -20.95 1.15 L-21.95 0.65 -23.8 -0.35 -24.0 -1.15 -23.35 -2.05 Q-19.35 -1.85 -15.3 -2.85 -9.8 -4.15 -4.6 -6.05 -1.25 -7.4 2.15 -8.9 L2.3 -11.1 2.5 -11.95 Q6.2 -13.65 10.05 -14.85 L9.8 -16.7 9.4 -17.2 10.2 -19.2 13.35 -18.85 14.7 -17.9 Q15.45 -16.85 14.7 -15.75 L13.2 -15.65 13.15 -14.75 Q15.35 -13.4 17.85 -12.35 L19.45 -11.65 19.8 -10.5 23.9 -8.6 24.0 -5.1 23.65 -4.5 23.0 -2.85 Q22.4 -1.15 22.3 0.7 L21.35 1.85 21.8 0.4 19.1 1.55 11.2 4.6 Q5.15 6.8 -1.1 7.2 L-0.65 9.25 Q2.5 9.25 5.6 8.35 L14.4 5.2 Q17.2 4.1 20.05 2.7 L20.7 2.4 M14.7 -16.65 L14.0 -17.7 13.7 -17.3 13.6 -16.45 14.1 -16.15 14.7 -16.65 M16.0 -9.05 L17.75 -9.4 17.7 -6.05 18.5 -6.5 18.75 -8.9 18.9 -10.9 14.7 -9.4 10.95 -8.0 10.95 -4.25 11.0 -4.25 14.35 -4.8 14.6 -8.4 16.0 -9.05 M15.5 -6.45 L15.5 -7.9 16.7 -8.3 16.65 -6.8 15.5 -6.45 M15.75 -7.7 L15.7 -6.9 16.45 -7.15 16.45 -7.9 15.75 -7.7 M17.1 -5.95 L17.25 -9.05 14.9 -8.35 14.9 -5.05 17.1 -5.95 M19.45 -9.35 L19.45 -8.2 19.95 -8.15 22.45 -8.3 21.45 -8.7 20.5 -9.1 19.5 -9.35 19.45 -9.4 19.45 -9.35 M19.75 -7.8 L19.4 -7.95 19.35 -6.95 19.35 -6.75 20.4 -7.1 20.3 -7.35 20.1 -7.6 19.75 -7.8 M8.3 -1.45 Q-7.05 3.15 -22.85 -0.8 L-21.0 0.3 -19.7 1.05 -18.45 1.75 -17.2 2.5 -16.3 2.95 -15.95 3.15 -14.65 3.85 -13.35 4.55 -12.05 5.25 -10.7 5.8 -8.85 6.0 -7.75 6.0 -2.0 6.1 -2.1 3.9 -2.65 3.7 -2.9 3.55 -3.1 3.2 -3.15 3.1 -3.15 3.0 -2.95 2.65 -2.6 2.5 -3.0 1.55 -1.45 1.4 -1.3 1.7 -0.55 1.35 -1.05 2.2 -0.6 3.2 -0.75 3.6 -1.35 3.95 -1.15 5.95 -0.75 6.35 Q10.15 5.85 18.75 0.35 L19.6 -0.25 Q20.95 -0.85 22.15 -2.1 L22.75 -4.2 Q23.3 -5.75 23.2 -7.3 L21.1 -6.35 21.65 -5.75 21.65 -4.35 21.25 -3.75 20.3 -3.35 19.45 -4.5 19.9 -5.8 17.7 -4.8 18.55 -3.55 18.5 -3.2 18.2 -2.45 16.85 -1.95 16.3 -2.45 16.15 -2.65 16.45 -4.25 14.35 -3.45 14.7 -3.05 14.7 -1.3 14.0 -0.6 13.35 -0.8 13.05 -0.8 12.7 -1.3 Q12.15 -2.05 12.6 -2.9 L10.25 -2.1 10.65 -0.8 Q10.75 0.0 10.45 0.55 L9.45 1.0 8.4 0.4 8.2 0.0 8.3 -1.4 8.3 -1.5 8.3 -1.45 M12.0 -12.3 L12.35 -13.1 Q12.95 -14.45 12.5 -15.9 L11.15 -16.4 10.9 -15.85 Q10.4 -14.3 10.95 -12.65 L12.0 -12.3 10.45 -12.25 10.1 -13.9 3.45 -11.6 Q7.3 -10.65 10.9 -8.95 L18.6 -11.65 Q16.0 -13.1 13.15 -13.45 L12.95 -12.35 12.0 -12.3 M7.55 -8.65 L7.55 -8.6 7.6 -8.6 9.45 -7.85 9.0 -6.4 8.75 -6.2 7.15 -6.8 7.55 -8.65 M4.15 -9.85 L4.3 -9.95 6.0 -9.15 5.9 -8.0 5.75 -7.55 5.55 -7.2 3.95 -7.95 4.15 -9.85 M7.55 -8.35 L7.5 -7.1 8.85 -6.65 9.05 -7.8 7.55 -8.35 M5.6 -8.95 L4.35 -9.55 4.55 -8.3 5.5 -7.85 5.6 -8.95 M10.25 -7.2 L10.35 -8.15 3.1 -11.1 3.25 -6.7 Q6.35 -5.1 9.75 -4.2 L10.25 -7.1 10.25 -7.2 M13.55 -2.15 L13.4 -1.45 13.75 -2.45 13.55 -2.15 M9.9 -0.25 L10.05 -0.75 Q10.3 -1.25 9.75 -1.15 L8.8 -0.2 9.9 -0.25 M10.0 -3.3 Q7.0 -4.75 3.75 -5.45 L2.3 -5.95 Q-4.1 -3.75 -9.85 -0.6 L-11.35 0.25 -7.55 0.4 -8.2 0.25 Q-2.0 0.4 4.25 -0.85 7.35 -1.45 10.0 -3.3 M20.5 -4.1 L21.05 -5.05 20.75 -5.45 20.25 -4.6 20.5 -4.1 M16.95 -2.8 L16.95 -2.75 17.0 -2.75 17.75 -3.2 17.35 -4.15 16.95 -2.8 M-21.6 -1.3 Q-15.45 1.35 -9.2 -1.55 -4.6 -3.65 -0.2 -5.85 L2.4 -7.15 2.35 -7.95 -12.65 -2.75 Q-16.45 -1.35 -20.65 -1.45 L-21.6 -1.3 M-1.8 7.2 L-9.9 6.9 -8.3 9.6 -3.15 9.9 -3.15 9.85 -3.15 9.75 -1.65 9.55 -1.8 7.2 M2.7 15.55 L2.4 15.45 Q1.7 15.6 1.95 16.3 L2.15 16.2 2.7 15.55" fill="#000000" fill-rule="evenodd" stroke="none"/>
    <path d="M10.6 -18.7 L13.2 -17.65 12.8 -16.2 10.15 -17.05 10.0 -18.15 10.6 -18.7 M21.35 1.85 L20.7 2.4 20.05 2.7 Q17.2 4.1 14.4 5.2 L5.6 8.35 Q2.5 9.25 -0.65 9.25 L-1.1 7.2 Q5.15 6.8 11.2 4.6 L19.1 1.55 21.8 0.4 21.35 1.85 M19.5 -9.35 L20.5 -9.1 21.45 -8.7 22.45 -8.3 19.95 -8.15 19.45 -8.2 19.45 -9.35 19.5 -9.35 M12.0 -12.3 L10.95 -12.65 Q10.4 -14.3 10.9 -15.85 L11.15 -16.4 12.5 -15.9 Q12.95 -14.45 12.35 -13.1 L12.0 -12.3 M10.25 -7.1 L10.2 -7.15 10.25 -7.2 10.25 -7.1 M9.9 -0.25 L8.8 -0.2 9.75 -1.15 Q10.3 -1.25 10.05 -0.75 L9.9 -0.25 M13.55 -2.15 L13.75 -2.45 13.4 -1.45 13.55 -2.15 M20.5 -4.1 L20.25 -4.6 20.75 -5.45 21.05 -5.05 20.5 -4.1 M16.95 -2.8 L17.35 -4.15 17.75 -3.2 17.0 -2.75 16.95 -2.8 M-1.8 7.2 L-1.65 9.55 -3.15 9.75 -3.15 9.85 -3.15 9.9 -8.3 9.6 -9.9 6.9 -1.8 7.2" fill="#999999" fill-rule="evenodd" stroke="none"/>
    <path d="M14.7 -16.65 L14.1 -16.15 13.6 -16.45 13.7 -17.3 14.0 -17.7 14.7 -16.65 M15.55 -12.15 L14.45 -11.35 Q10.75 -9.35 7.1 -11.7 8.35 -12.45 9.9 -12.75 L9.8 -12.3 8.6 -11.8 11.25 -10.7 15.55 -12.15 M15.75 -7.7 L16.45 -7.9 16.45 -7.15 15.7 -6.9 15.75 -7.7 M5.6 -8.95 L5.5 -7.85 4.55 -8.3 4.35 -9.55 5.6 -8.95 M7.55 -8.35 L9.05 -7.8 8.85 -6.65 7.5 -7.1 7.55 -8.35 M8.45 -3.95 L8.1 -3.15 Q3.95 -1.6 -0.3 -0.5 L1.6 -1.45 Q4.9 -2.95 8.45 -3.95 M-5.45 -2.3 Q-2.35 -3.8 1.15 -4.75 L3.35 -5.5 Q1.15 -4.15 -1.25 -3.25 -4.4 -2.1 -7.6 -1.25 L-5.45 -2.3 M-6.55 0.0 L-4.3 -1.0 Q0.4 -3.3 5.4 -4.75 -0.15 -1.2 -6.55 0.0" fill="#666666" fill-rule="evenodd" stroke="none"/>
    <path d="M15.55 -12.15 L11.25 -10.7 8.6 -11.8 9.8 -12.3 9.9 -12.75 Q8.35 -12.45 7.1 -11.7 10.75 -9.35 14.45 -11.35 L15.55 -12.15 M16.0 -9.05 L14.6 -8.4 14.35 -4.8 11.0 -4.25 10.95 -4.25 10.95 -8.0 14.7 -9.4 18.9 -10.9 18.75 -8.9 18.5 -6.5 17.7 -6.05 17.75 -9.4 16.0 -9.05 M8.3 -1.4 L8.2 0.0 8.4 0.4 9.45 1.0 10.45 0.55 Q10.75 0.0 10.65 -0.8 L10.25 -2.1 12.6 -2.9 Q12.15 -2.05 12.7 -1.3 L13.05 -0.8 13.35 -0.8 14.0 -0.6 14.7 -1.3 14.7 -3.05 14.35 -3.45 16.45 -4.25 16.15 -2.65 16.3 -2.45 16.85 -1.95 18.2 -2.45 18.5 -3.2 18.55 -3.55 17.7 -4.8 19.9 -5.8 19.45 -4.5 20.3 -3.35 21.25 -3.75 21.65 -4.35 21.65 -5.75 21.1 -6.35 23.2 -7.3 Q23.3 -5.75 22.75 -4.2 L22.15 -2.1 Q20.95 -0.85 19.6 -0.25 L18.75 0.35 Q10.15 5.85 -0.75 6.35 L-1.15 5.95 -1.35 3.95 -0.75 3.6 -0.6 3.2 -1.05 2.2 -0.55 1.35 -1.3 1.7 -1.45 1.4 -3.0 1.55 -2.6 2.5 -2.95 2.65 -3.15 3.0 -3.15 3.1 -3.1 3.2 -2.9 3.55 -2.65 3.7 -2.1 3.9 -2.0 6.1 -7.75 6.0 -8.85 6.0 -10.7 5.8 -12.05 5.25 -13.35 4.55 -14.65 3.85 -15.95 3.15 -16.3 2.95 -17.2 2.5 -18.45 1.75 -19.7 1.05 -21.0 0.3 -22.85 -0.8 Q-7.05 3.15 8.3 -1.45 L8.3 -1.4 M12.0 -12.3 L12.95 -12.35 13.15 -13.45 Q16.0 -13.1 18.6 -11.65 L10.9 -8.95 Q7.3 -10.65 3.45 -11.6 L10.1 -13.9 10.45 -12.25 12.0 -12.3 M7.55 -8.65 L7.15 -6.8 8.75 -6.2 9.0 -6.4 9.45 -7.85 7.6 -8.6 7.55 -8.65 M4.15 -9.85 L3.95 -7.95 5.55 -7.2 5.75 -7.55 5.9 -8.0 6.0 -9.15 4.3 -9.95 4.15 -9.85 M10.25 -7.2 L10.2 -7.15 10.25 -7.1 9.75 -4.2 Q6.35 -5.1 3.25 -6.7 L3.1 -11.1 10.35 -8.15 10.25 -7.2 M-21.6 -1.3 L-20.65 -1.45 Q-16.45 -1.35 -12.65 -2.75 L2.35 -7.95 2.4 -7.15 -0.2 -5.85 Q-4.6 -3.65 -9.2 -1.55 -15.45 1.35 -21.6 -1.3" fill="#cccccc" fill-rule="evenodd" stroke="none"/>
    <path d="M15.5 -6.45 L16.65 -6.8 16.7 -8.3 15.5 -7.9 15.5 -6.45 M17.1 -5.95 L14.9 -5.05 14.9 -8.35 17.25 -9.05 17.1 -5.95 M19.75 -7.8 L20.1 -7.6 20.3 -7.35 20.4 -7.1 19.35 -6.75 19.35 -6.95 19.4 -7.95 19.75 -7.8 M8.45 -3.95 Q4.9 -2.95 1.6 -1.45 L-0.3 -0.5 Q3.95 -1.6 8.1 -3.15 L8.45 -3.95 M10.0 -3.3 Q7.35 -1.45 4.25 -0.85 -2.0 0.4 -8.2 0.25 L-7.55 0.4 -11.35 0.25 -9.85 -0.6 Q-4.1 -3.75 2.3 -5.95 L3.75 -5.45 Q7.0 -4.75 10.0 -3.3 M-6.55 0.0 Q-0.15 -1.2 5.4 -4.75 0.4 -3.3 -4.3 -1.0 L-6.55 0.0 M-5.45 -2.3 L-7.6 -1.25 Q-4.4 -2.1 -1.25 -3.25 1.15 -4.15 3.35 -5.5 L1.15 -4.75 Q-2.35 -3.8 -5.45 -2.3" fill="#ffffff" fill-rule="evenodd" stroke="none"/>
  </g>
</svg>
