<?xml version="1.0" encoding="UTF-8" standalone="no"?>
<svg xmlns:ffdec="https://www.free-decompiler.com/flash" xmlns:xlink="http://www.w3.org/1999/xlink" ffdec:objectType="shape" height="18.8px" width="31.0px" xmlns="http://www.w3.org/2000/svg">
  <g transform="matrix(1.0, 0.0, 0.0, 1.0, 18.3, 15.25)">
    <path d="M11.4 -14.4 L10.8 -14.35 10.5 -14.1 9.3 -12.45 7.4 -10.65 8.3 -10.25 10.5 -12.45 10.55 -12.45 11.15 -13.6 11.4 -14.25 11.4 -14.4 M8.25 -12.2 L8.75 -12.65 Q9.9 -13.4 10.7 -14.6 5.9 -14.4 1.05 -13.0 L-9.65 -9.5 Q-14.05 -8.0 -17.55 -5.9 L-13.95 -4.6 -13.85 -4.75 -10.55 -5.95 Q-5.95 -5.6 -2.3 -8.05 L-2.2 -9.1 1.15 -10.4 3.0 -10.15 Q6.1 -10.1 8.25 -12.2 M6.4 -8.55 L6.4 -8.6 6.35 -8.55 1.15 -9.95 Q-0.85 -9.6 -1.0 -8.6 L4.7 -7.25 6.25 -8.35 6.4 -8.55 M5.65 -10.1 L5.25 -9.85 4.35 -9.8 7.3 -8.95 7.75 -9.85 7.0 -10.25 5.65 -10.1 M0.9 -6.5 L-1.85 -7.45 -6.85 -5.35 -3.55 -3.7 2.25 -5.95 0.9 -6.5 M-6.4 1.55 L-5.95 1.75 Q-1.3 0.75 2.75 -1.6 L5.4 -3.2 Q9.35 -5.85 11.3 -10.4 12.05 -12.15 12.05 -14.05 L8.35 -9.05 Q5.4 -5.7 1.2 -4.4 -2.25 -3.25 -5.45 -1.75 L-6.35 1.5 -6.45 1.5 -6.4 1.55 M12.65 -15.0 Q12.9 -12.5 11.9 -10.25 9.1 -3.8 2.9 -0.7 -1.55 1.65 -6.25 2.85 -8.85 3.6 -11.6 3.55 -14.95 3.2 -16.75 0.35 -18.65 -2.65 -18.2 -6.3 -16.75 -7.05 -15.25 -7.75 L-6.2 -11.3 3.1 -14.25 Q7.9 -15.75 12.65 -15.0 M-12.85 2.2 L-12.55 2.3 Q-9.6 3.2 -7.6 1.15 L-6.55 -0.4 Q-6.15 -1.4 -6.95 -2.15 L-17.3 -4.9 Q-17.7 0.45 -12.85 2.2 M-13.05 -4.35 L-11.5 -3.75 -6.05 -2.5 -5.05 -2.85 -4.85 -3.25 Q-5.7 -4.05 -6.85 -4.3 L-10.55 -5.3 -13.05 -4.4 -13.1 -4.35 -13.05 -4.35 M-1.4 -8.05 L-1.35 -7.95 Q1.15 -6.5 3.75 -6.3 1.4 -8.05 -1.4 -8.05" fill="#000000" fill-rule="evenodd" stroke="none"/>
    <path d="M11.4 -14.4 L11.4 -14.25 11.15 -13.6 10.55 -12.45 10.5 -12.45 8.3 -10.25 7.4 -10.65 9.3 -12.45 10.5 -14.1 10.8 -14.35 11.4 -14.4" fill="#e4dba5" fill-rule="evenodd" stroke="none"/>
    <path d="M8.25 -12.2 Q6.1 -10.1 3.0 -10.15 L1.15 -10.4 -2.2 -9.1 -2.3 -8.05 Q-5.95 -5.6 -10.55 -5.95 L-13.85 -4.75 -13.95 -4.6 -17.55 -5.9 Q-14.05 -8.0 -9.65 -9.5 L1.05 -13.0 Q5.9 -14.4 10.7 -14.6 9.9 -13.4 8.75 -12.65 L8.25 -12.2 6.6 -12.1 Q3.95 -11.8 1.65 -10.6 L3.4 -11.05 Q5.8 -11.95 8.25 -12.2 M6.35 -8.55 L6.4 -8.55 6.25 -8.35 4.7 -7.25 -1.0 -8.6 Q-0.85 -9.6 1.15 -9.95 L6.35 -8.55 M0.65 -11.55 L8.7 -13.8 Q4.1 -13.15 -0.5 -11.8 L-9.9 -8.65 Q-13.75 -7.3 -16.4 -5.6 -12.15 -7.5 -7.75 -8.95 -3.55 -10.5 0.65 -11.55 M-13.05 -4.35 L-13.05 -4.4 -10.55 -5.3 -6.85 -4.3 Q-5.7 -4.05 -4.85 -3.25 L-5.05 -2.85 -6.05 -2.5 -11.5 -3.75 -13.05 -4.35 M-1.6 -9.65 L-1.65 -9.65 Q-6.2 -8.3 -10.0 -6.35 L-8.15 -7.05 Q-4.75 -8.15 -1.6 -9.65" fill="#f1eccf" fill-rule="evenodd" stroke="none"/>
    <path d="M5.65 -10.1 L7.0 -10.25 7.75 -9.85 7.3 -8.95 4.35 -9.8 5.25 -9.85 5.65 -10.1 M0.9 -6.5 L2.25 -5.95 -3.55 -3.7 -6.85 -5.35 -1.85 -7.45 0.9 -6.5 -3.55 -4.3 -2.2 -4.7 Q-0.15 -5.25 0.9 -6.5" fill="#eae1b9" fill-rule="evenodd" stroke="none"/>
    <path d="M8.25 -12.2 Q5.8 -11.95 3.4 -11.05 L1.65 -10.6 Q3.95 -11.8 6.6 -12.1 L8.25 -12.2 M3.45 -4.55 Q7.15 -6.3 9.75 -9.5 L10.7 -10.65 Q9.25 -7.75 6.4 -5.85 1.0 -2.35 -5.1 -0.45 L-5.75 -0.4 Q-1.8 -1.85 1.95 -3.75 L3.45 -4.55 M0.9 -6.5 Q-0.15 -5.25 -2.2 -4.7 L-3.55 -4.3 0.9 -6.5 M-6.35 1.5 Q-2.2 -0.05 1.8 -2.1 5.8 -4.25 9.15 -7.15 7.45 -5.05 5.3 -3.6 -0.15 -0.05 -6.4 1.55 L-6.45 1.5 -6.35 1.5 M0.65 -11.55 Q-3.55 -10.5 -7.75 -8.95 -12.15 -7.5 -16.4 -5.6 -13.75 -7.3 -9.9 -8.65 L-0.5 -11.8 Q4.1 -13.15 8.7 -13.8 L0.65 -11.55 M-12.85 2.2 L-12.65 -1.6 -15.05 -2.55 Q-14.75 -1.1 -15.0 0.55 -15.55 -0.7 -15.4 -1.85 L-15.3 -2.65 -17.05 -3.3 Q-12.0 -2.2 -7.0 -0.5 L-9.7 -1.0 -10.2 2.3 Q-10.95 1.1 -10.05 -1.05 L-12.55 -1.4 -12.85 2.2 M-1.6 -9.65 Q-4.75 -8.15 -8.15 -7.05 L-10.0 -6.35 Q-6.2 -8.3 -1.65 -9.65 L-1.6 -9.65" fill="#a68b33" fill-rule="evenodd" stroke="none"/>
    <path d="M3.45 -4.55 L1.95 -3.75 Q-1.8 -1.85 -5.75 -0.4 L-5.1 -0.45 Q1.0 -2.35 6.4 -5.85 9.25 -7.75 10.7 -10.65 L9.75 -9.5 Q7.15 -6.3 3.45 -4.55 M-6.4 1.55 Q-0.15 -0.05 5.3 -3.6 7.45 -5.05 9.15 -7.15 5.8 -4.25 1.8 -2.1 -2.2 -0.05 -6.35 1.5 L-5.45 -1.75 Q-2.25 -3.25 1.2 -4.4 5.4 -5.7 8.35 -9.05 L12.05 -14.05 Q12.05 -12.15 11.3 -10.4 9.35 -5.85 5.4 -3.2 L2.75 -1.6 Q-1.3 0.75 -5.95 1.75 L-6.4 1.55 M-12.85 2.2 L-12.55 -1.4 -10.05 -1.05 Q-10.95 1.1 -10.2 2.3 L-9.7 -1.0 -7.0 -0.5 Q-12.0 -2.2 -17.05 -3.3 L-15.3 -2.65 -15.4 -1.85 Q-15.55 -0.7 -15.0 0.55 -14.75 -1.1 -15.05 -2.55 L-12.65 -1.6 -12.85 2.2 Q-17.7 0.45 -17.3 -4.9 L-6.95 -2.15 Q-6.15 -1.4 -6.55 -0.4 L-7.6 1.15 Q-9.6 3.2 -12.55 2.3 L-12.85 2.2 M-1.4 -8.05 Q1.4 -8.05 3.75 -6.3 1.15 -6.5 -1.35 -7.95 L-1.4 -8.05" fill="#dcce89" fill-rule="evenodd" stroke="none"/>
    <path d="M-8.3 -0.55 L-8.15 -0.55 -8.15 -0.5 -8.3 -0.55" fill="#61f7fe" fill-rule="evenodd" stroke="none"/>
  </g>
</svg>
