<?xml version="1.0" encoding="UTF-8" standalone="no"?>
<svg xmlns:ffdec="https://www.free-decompiler.com/flash" xmlns:xlink="http://www.w3.org/1999/xlink" ffdec:objectType="shape" height="11.1px" width="16.05px" xmlns="http://www.w3.org/2000/svg">
  <g transform="matrix(1.0, 0.0, 0.0, 1.0, 7.6, 7.65)">
    <path d="M7.8 -6.3 Q8.45 -6.15 8.45 -5.4 L8.4 -4.25 8.35 -3.6 8.25 -3.55 8.45 -1.05 8.45 -0.5 8.1 -0.7 7.95 -0.85 Q7.15 -1.8 6.9 -2.95 L6.75 -4.75 7.45 -5.45 7.65 -6.2 7.8 -6.3 M2.6 -4.1 L2.6 -4.0 2.65 -3.8 2.65 -3.75 2.7 -3.7 2.7 -3.5 2.7 -3.45 2.85 -2.8 2.8 -2.7 2.85 -2.5 2.9 -2.35 3.05 -1.95 3.15 -1.8 3.15 -1.75 3.75 -0.9 3.75 -0.85 4.2 -0.3 4.6 0.2 4.9 0.7 5.5 2.15 4.9 2.5 2.35 3.25 1.45 3.4 -0.3 3.3 -2.0 2.65 Q-4.1 1.8 -5.8 0.45 L-6.75 -0.6 -6.8 -0.65 -7.05 -1.35 Q-6.6 -3.3 -7.1 -5.2 L-7.2 -5.55 Q-7.6 -6.5 -7.6 -7.5 L-7.4 -7.65 -7.3 -7.6 -7.15 -7.3 -6.95 -7.1 Q-5.35 -5.85 -3.4 -5.15 -0.5 -4.1 2.6 -4.1 M2.4 -3.75 L1.15 -3.85 -2.5 -4.55 -3.25 -4.8 -4.7 -5.35 -5.45 -5.7 -6.1 -6.2 -6.7 -6.7 -7.3 -7.0 -6.95 -5.8 -7.0 -6.3 -6.45 -5.35 -6.6 -6.2 -6.3 -5.3 -6.2 -5.3 -5.9 -5.05 -6.0 -5.75 -5.75 -4.95 -4.8 -4.35 -4.95 -5.4 -4.6 -4.25 -3.65 -3.8 -3.7 -4.8 -3.45 -3.75 -2.5 -3.4 -2.55 -4.3 -2.3 -3.3 -1.25 -3.05 -1.25 -4.0 -1.05 -3.0 0.05 -2.8 0.0 -3.7 0.15 -2.75 1.3 -2.6 1.25 -3.6 1.45 -2.6 2.5 -2.55 2.5 -3.4 2.4 -3.75 M4.45 0.6 L4.2 0.3 3.15 -1.2 3.0 -1.55 2.7 -2.3 Q0.25 -2.2 -2.05 -2.95 L-5.2 -4.15 -6.55 -4.95 -6.6 -5.0 -6.55 -2.8 -6.65 -1.15 -6.65 -0.9 -6.4 -0.5 -5.65 0.3 -5.1 0.75 -4.9 0.85 -4.45 1.15 -2.85 2.0 -4.65 0.75 -4.75 0.65 -5.1 0.4 -5.15 0.3 -5.55 0.0 -5.7 -0.2 -6.35 -0.85 -6.45 -0.95 -6.5 -1.1 -6.4 -1.0 -6.3 -0.95 -5.7 -0.4 -5.55 -0.2 -5.1 0.25 -5.05 0.3 -4.75 0.55 -4.65 0.65 -2.35 2.05 0.35 3.3 2.3 2.45 2.55 2.35 3.2 2.2 3.35 2.2 3.85 2.0 4.05 1.95 5.0 1.75 4.75 1.1 4.45 0.6 M7.95 -6.0 L7.9 -6.0 7.75 -5.45 6.9 -4.6 7.1 -3.3 7.2 -3.4 7.3 -3.35 7.5 -3.5 7.5 -4.65 7.6 -3.55 8.1 -3.95 8.15 -5.5 7.95 -6.0 M7.55 -1.7 L7.95 -1.15 8.15 -0.95 8.1 -3.55 7.15 -3.05 Q7.2 -2.35 7.55 -1.7 M3.9 2.2 L3.3 2.35 2.5 2.55 2.2 2.6 0.45 3.35 0.6 3.4 1.95 3.0 2.55 2.9 4.75 2.25 4.9 2.25 4.65 2.05 3.9 2.2" fill="#313566" fill-rule="evenodd" stroke="none"/>
    <path d="M-6.65 -0.9 L-6.65 -1.15 -6.55 -2.8 -6.6 -5.0 -6.55 -4.95 -5.2 -4.15 -2.05 -2.95 Q0.25 -2.2 2.7 -2.3 L3.0 -1.55 3.15 -1.2 4.2 0.3 4.45 0.6 3.8 0.6 3.75 0.75 3.9 0.85 Q4.4 1.45 3.85 2.0 L3.35 2.2 3.1 1.8 Q2.5 1.25 1.75 1.6 L1.75 1.7 1.95 1.75 2.35 2.2 2.3 2.45 0.35 3.3 -2.35 2.05 -4.65 0.65 -4.6 0.35 -4.3 0.3 -4.2 0.2 -4.3 0.1 Q-4.75 -0.1 -5.1 0.25 L-5.55 -0.2 -5.55 -0.65 -5.25 -0.8 -5.5 -1.25 -5.6 -1.25 -6.4 -1.0 -6.5 -1.1 -6.45 -0.95 -6.55 -0.75 -6.65 -0.9 M2.4 -3.75 L2.5 -3.4 2.5 -2.55 1.45 -2.6 1.25 -3.6 1.3 -2.6 0.15 -2.75 0.0 -3.7 0.05 -2.8 -1.05 -3.0 -1.25 -4.0 -1.25 -3.05 -2.3 -3.3 -2.55 -4.3 -2.5 -3.4 -3.45 -3.75 -3.7 -4.8 -3.65 -3.8 -4.6 -4.25 -4.95 -5.4 -4.8 -4.35 -5.75 -4.95 -6.0 -5.75 -5.9 -5.05 -6.2 -5.3 -6.3 -5.3 -6.6 -6.2 -6.45 -5.35 -7.0 -6.3 -6.95 -5.8 -7.3 -7.0 -6.7 -6.7 -6.1 -6.2 -5.45 -5.7 -4.7 -5.35 -3.25 -4.8 -2.5 -4.55 1.15 -3.85 2.4 -3.75 M7.95 -6.0 L8.15 -5.5 8.1 -3.95 7.6 -3.55 7.5 -4.65 7.5 -3.5 7.3 -3.35 7.2 -3.4 7.1 -3.3 6.9 -4.6 7.75 -5.45 7.9 -6.0 7.95 -6.0 M7.55 -1.7 Q7.2 -2.35 7.15 -3.05 L8.1 -3.55 8.15 -0.95 7.95 -1.15 7.55 -1.7 M2.2 2.6 L1.95 3.0 0.6 3.4 0.45 3.35 2.2 2.6 M-5.55 0.0 L-5.15 0.3 -5.4 0.2 -5.55 0.0 M-4.65 0.75 L-2.85 2.0 -4.45 1.15 -4.65 0.85 -4.65 0.75" fill="#8d9bc7" fill-rule="evenodd" stroke="none"/>
    <path d="M-6.65 -0.9 L-6.55 -0.75 -6.45 -0.95 -6.35 -0.85 -6.4 -0.5 -6.65 -0.9 M-6.4 -1.0 L-5.6 -1.25 -5.5 -1.25 -5.25 -0.8 -5.55 -0.65 -5.55 -0.2 -5.7 -0.4 -5.7 -0.95 -5.8 -1.0 -6.3 -0.95 -6.4 -1.0 M-5.1 0.25 Q-4.75 -0.1 -4.3 0.1 L-4.2 0.2 -4.3 0.3 -4.6 0.35 -4.65 0.65 -4.75 0.55 -4.7 0.2 -5.05 0.3 -5.1 0.25 M2.3 2.45 L2.35 2.2 1.95 1.75 1.75 1.7 1.75 1.6 Q2.5 1.25 3.1 1.8 L3.35 2.2 3.2 2.2 2.85 1.9 2.55 1.85 2.55 2.35 2.3 2.45 M3.85 2.0 Q4.4 1.45 3.9 0.85 L3.75 0.75 3.8 0.6 4.45 0.6 4.75 1.1 Q4.55 1.1 4.45 1.2 L4.4 1.3 4.05 1.95 3.85 2.0 M3.9 2.2 L3.3 2.55 3.3 2.35 3.9 2.2 M2.5 2.55 L2.55 2.9 1.95 3.0 2.2 2.6 2.5 2.55 M-5.7 -0.2 L-5.55 0.0 -5.4 0.2 -5.15 0.3 -5.1 0.4 -5.2 0.65 -5.1 0.75 -5.65 0.3 -5.7 -0.2 M-4.75 0.65 L-4.65 0.75 -4.65 0.85 -4.45 1.15 -4.9 0.85 -4.8 0.8 -4.75 0.65" fill="#ff9900" fill-rule="evenodd" stroke="none"/>
    <path d="M4.75 1.1 L5.0 1.75 4.05 1.95 4.4 1.3 4.45 1.2 Q4.55 1.1 4.75 1.1 M2.55 2.35 L2.55 1.85 2.85 1.9 3.2 2.2 2.55 2.35 M3.3 2.35 L3.3 2.55 3.9 2.2 4.65 2.05 4.9 2.25 4.75 2.25 2.55 2.9 2.5 2.55 3.3 2.35 M-6.4 -0.5 L-6.35 -0.85 -5.7 -0.2 -5.65 0.3 -6.4 -0.5 M-5.1 0.4 L-4.75 0.65 -4.8 0.8 -4.9 0.85 -5.1 0.75 -5.2 0.65 -5.1 0.4 M-6.3 -0.95 L-5.8 -1.0 -5.7 -0.95 -5.7 -0.4 -6.3 -0.95 M-5.05 0.3 L-4.7 0.2 -4.75 0.55 -5.05 0.3" fill="#ffff00" fill-rule="evenodd" stroke="none"/>
  </g>
</svg>
