<?xml version="1.0" encoding="UTF-8" standalone="no"?>
<svg xmlns:ffdec="https://www.free-decompiler.com/flash" xmlns:xlink="http://www.w3.org/1999/xlink" ffdec:objectType="shape" height="19.95px" width="60.0px" xmlns="http://www.w3.org/2000/svg">
  <g transform="matrix(1.0, 0.0, 0.0, 1.0, 30.0, 10.0)">
    <path d="M2.3 -9.05 L2.0 -9.0 -0.75 -8.15 -3.0 -7.3 -6.05 -6.4 -8.65 -5.45 -11.55 -4.35 -12.8 -3.85 -14.55 -3.05 -15.1 -2.75 -15.65 -2.5 -16.7 -1.9 -17.0 -1.75 -17.35 -1.55 -17.55 -1.4 Q-17.95 -1.3 -18.0 -0.85 L-18.05 0.15 -18.05 0.25 Q-18.1 1.7 -17.65 3.1 L-17.3 3.3 -14.05 4.45 -10.85 5.6 -7.65 6.4 Q-5.3 6.2 -3.25 5.35 L1.85 3.05 5.55 1.05 Q7.55 -0.15 9.15 -1.65 10.65 -3.0 11.5 -4.75 L12.05 -5.95 30.0 -0.05 0.0 9.95 -30.0 -0.05 0.0 -10.0 2.0 -9.25 2.3 -9.05" fill="#61f7fe" fill-rule="evenodd" stroke="none"/>
  </g>
</svg>
