<?xml version="1.0" encoding="UTF-8" standalone="no"?>
<svg xmlns:ffdec="https://www.free-decompiler.com/flash" xmlns:xlink="http://www.w3.org/1999/xlink" ffdec:objectType="shape" height="35.4px" width="41.95px" xmlns="http://www.w3.org/2000/svg">
  <g transform="matrix(1.0, 0.0, 0.0, 1.0, 20.95, 17.7)">
    <path d="M-20.1 -3.2 L-19.85 -4.2 -20.05 -4.6 -19.1 -7.7 -18.75 -8.0 -18.7 -8.1 -18.45 -8.5 -18.3 -9.0 -18.25 -9.6 Q-15.2 -12.9 -10.95 -14.55 -6.4 -16.3 -1.65 -16.85 L1.5 -16.65 Q6.15 -16.0 10.4 -14.35 L10.55 -14.4 11.9 -13.7 Q16.4 -11.45 18.45 -6.7 20.3 -2.5 19.9 2.05 L19.85 2.55 19.35 3.15 Q19.05 3.2 18.8 3.35 18.35 3.65 18.0 4.05 L17.8 3.5 18.15 1.6 Q14.85 -1.8 16.35 -6.0 L13.8 -9.45 12.65 -9.25 12.0 -5.9 Q11.5 -7.45 10.1 -8.05 L9.65 -7.75 10.65 -7.0 10.7 -6.5 Q11.6 -5.35 11.5 -3.65 L11.2 -2.9 11.35 -2.45 11.15 -2.25 11.05 -1.85 10.75 -1.45 Q9.15 -0.8 7.75 -2.0 L7.0 -1.9 5.95 -2.65 4.7 -2.6 1.7 -5.05 Q-0.7 -7.2 -3.8 -6.7 -5.3 0.55 1.85 1.9 1.05 3.95 2.45 4.9 L3.25 4.2 Q5.75 3.75 8.25 4.2 L8.6 5.0 9.05 5.25 9.3 6.65 8.95 7.7 9.2 8.15 9.35 9.3 7.05 8.65 7.3 8.1 6.15 6.9 5.4 6.8 4.65 6.15 0.0 6.5 -0.65 6.15 -0.8 5.75 -1.9 5.35 -2.0 4.85 -3.25 4.7 -3.65 4.45 -4.0 4.75 -4.05 4.95 -6.05 4.05 -6.15 3.45 -6.6 3.45 -7.05 2.8 -8.0 3.05 Q-9.1 4.35 -10.7 3.3 L-11.15 3.45 -11.6 3.25 -11.9 2.9 -11.85 2.7 Q-11.95 1.8 -11.45 1.05 L-12.55 0.1 Q-13.4 1.25 -14.55 0.65 L-15.1 1.45 Q-15.65 1.85 -16.45 1.2 L-17.15 1.45 -17.8 0.85 -17.65 0.15 -18.05 -0.5 -17.95 -1.2 -18.6 -1.45 -18.75 -2.1 -19.6 -2.35 -20.1 -3.2 M15.8 1.15 L15.9 1.15 16.35 1.4 16.5 1.9 16.35 2.45 Q16.15 2.65 15.9 2.65 15.65 2.65 15.5 2.45 L15.3 1.9 15.5 1.4 15.55 1.3 15.8 1.15 M12.3 2.85 L12.15 3.75 11.55 3.75 11.0 3.4 11.3 2.6 11.5 2.6 12.3 2.85" fill="#ffffff" fill-rule="evenodd" stroke="none"/>
    <path d="M12.3 -14.65 Q16.3 -12.5 18.35 -8.8 20.55 -4.85 20.95 -0.4 21.1 1.1 20.85 2.55 L20.25 5.4 20.1 5.85 19.6 6.4 20.85 8.25 20.7 9.05 20.55 9.5 20.0 10.55 Q17.2 11.65 14.05 12.05 L13.15 14.5 11.7 14.95 10.55 14.0 9.5 12.4 2.1 12.8 1.6 17.25 0.95 17.7 0.3 17.15 -0.45 17.7 Q-2.5 15.35 -2.7 12.1 L-4.6 11.6 -4.7 11.4 -4.7 11.35 -4.95 11.7 -10.15 10.5 Q-9.9 11.85 -10.45 12.75 L-11.1 13.45 -11.9 13.75 Q-14.8 11.45 -15.4 7.85 -17.8 6.5 -19.1 4.3 L-20.25 1.4 Q-20.75 0.0 -20.9 -1.65 L-20.8 -3.55 -20.3 -5.95 -19.65 -8.2 -18.05 -11.0 Q-16.3 -13.3 -13.7 -14.0 -12.05 -14.55 -10.6 -15.8 L-5.55 -17.25 -5.0 -17.45 5.1 -17.0 6.2 -16.9 Q8.25 -16.15 10.4 -15.7 11.65 -15.55 12.3 -14.65 M19.85 2.55 L19.9 2.05 Q20.3 -2.5 18.45 -6.7 16.4 -11.45 11.9 -13.7 L10.55 -14.4 10.4 -14.35 Q6.15 -16.0 1.5 -16.65 L-1.65 -16.85 Q-6.4 -16.3 -10.95 -14.55 -15.2 -12.9 -18.25 -9.6 L-18.3 -9.0 -18.45 -8.5 -18.7 -8.1 -18.75 -8.0 -19.1 -7.7 -20.05 -4.6 -19.85 -4.2 -20.1 -3.2 -20.3 -2.75 -19.3 1.05 -18.4 3.5 -18.35 3.65 -18.45 3.55 -18.9 3.05 -18.55 3.7 Q-17.65 5.15 -16.3 6.1 L-11.95 8.55 Q-7.9 10.65 -3.25 11.05 L-3.35 11.15 -3.25 11.15 0.85 11.35 1.2 11.65 4.0 12.05 Q7.7 12.15 11.4 11.05 L9.85 10.2 9.35 9.3 9.2 8.15 8.95 7.7 9.3 6.65 9.05 5.25 8.6 5.0 8.25 4.2 Q5.75 3.75 3.25 4.2 L2.45 4.9 Q1.05 3.95 1.85 1.9 -5.3 0.55 -3.8 -6.7 -0.7 -7.2 1.7 -5.05 L4.7 -2.6 5.95 -2.65 7.0 -1.9 7.75 -2.0 Q9.15 -0.8 10.75 -1.45 L11.05 -1.85 11.15 -2.25 11.35 -2.45 11.2 -2.9 11.5 -3.65 Q11.6 -5.35 10.7 -6.5 L10.65 -7.0 9.65 -7.75 10.1 -8.05 Q11.5 -7.45 12.0 -5.9 L12.65 -9.25 13.8 -9.45 16.35 -6.0 Q14.85 -1.8 18.15 1.6 L17.8 3.5 18.0 4.05 Q17.9 4.2 17.95 4.3 L18.45 5.0 18.55 5.05 19.3 4.55 19.7 3.15 19.85 2.5 19.85 2.55 M1.8 -2.1 L-0.6 -4.45 Q2.1 -3.6 3.5 -0.55 L3.65 -0.15 2.3 0.15 Q1.65 -0.85 1.8 -2.1 M15.8 1.15 L15.9 1.1 16.25 1.05 16.9 1.4 16.3 -0.2 Q15.7 -2.15 13.75 -2.4 13.45 -4.5 14.3 -6.45 14.65 -4.75 14.5 -3.0 15.5 -3.8 15.35 -5.0 15.1 -6.9 14.1 -8.5 L13.7 -8.7 Q13.05 -7.95 12.75 -6.85 L11.75 -2.65 Q11.6 -1.8 10.95 -1.4 8.45 -0.1 5.95 -1.8 L4.9 -1.3 4.25 -1.9 Q1.9 -4.3 -0.95 -5.7 L-1.65 -5.85 -2.35 -6.2 -2.65 -6.05 -3.3 -5.2 Q-2.7 0.5 3.2 1.4 L2.6 3.55 4.0 3.35 Q9.05 2.05 10.0 7.1 L9.7 7.65 10.15 9.35 10.5 10.15 18.5 10.45 18.35 9.45 16.7 9.0 18.1 7.65 18.85 7.1 18.1 5.65 Q17.1 3.1 16.95 1.85 L16.8 2.85 15.35 3.0 15.05 2.6 15.0 1.6 15.55 1.3 15.5 1.4 15.3 1.9 15.5 2.45 Q15.65 2.65 15.9 2.65 16.15 2.65 16.35 2.45 L16.5 1.9 16.35 1.4 15.9 1.15 15.8 1.15 M19.9 8.9 L19.9 8.65 19.7 9.05 19.3 9.2 19.55 10.0 19.9 8.9 M11.3 2.6 L11.0 3.4 11.55 3.75 12.15 3.75 12.3 2.85 12.65 3.5 12.55 4.1 11.75 4.7 10.95 4.45 10.5 3.75 10.6 2.9 11.3 2.6 M10.8 12.45 L10.7 12.35 10.7 12.5 11.45 13.55 11.95 14.1 12.9 13.35 12.95 13.15 13.15 12.4 13.25 11.6 Q12.6 11.85 12.0 12.15 L10.8 12.45 M0.55 12.35 L-1.7 12.15 -0.55 15.7 0.0 15.8 0.4 16.45 0.7 12.6 0.55 12.35 M-11.35 9.95 L-11.35 9.8 Q-12.65 8.95 -13.95 8.2 L-12.65 11.9 Q-12.3 12.75 -11.35 12.9 L-11.3 12.85 -11.15 12.35 -11.1 11.5 -11.35 9.95" fill="#000000" fill-rule="evenodd" stroke="none"/>
    <path d="M1.8 -2.1 Q1.65 -0.85 2.3 0.15 L3.65 -0.15 3.5 -0.55 Q2.1 -3.6 -0.6 -4.45 L1.8 -2.1 M15.55 1.3 L15.0 1.6 15.05 2.6 15.35 3.0 16.8 2.85 16.95 1.85 Q17.1 3.1 18.1 5.65 L18.85 7.1 18.1 7.65 16.7 9.0 18.35 9.45 18.5 10.45 10.5 10.15 10.15 9.35 9.7 7.65 10.0 7.1 Q9.05 2.05 4.0 3.35 L2.6 3.55 3.2 1.4 Q-2.7 0.5 -3.3 -5.2 L-2.65 -6.05 -2.35 -6.2 -1.65 -5.85 -0.95 -5.7 Q1.9 -4.3 4.25 -1.9 L4.9 -1.3 5.95 -1.8 Q8.45 -0.1 10.95 -1.4 11.6 -1.8 11.75 -2.65 L12.75 -6.85 Q13.05 -7.95 13.7 -8.7 L14.1 -8.5 Q15.1 -6.9 15.35 -5.0 15.5 -3.8 14.5 -3.0 14.65 -4.75 14.3 -6.45 13.45 -4.5 13.75 -2.4 15.7 -2.15 16.3 -0.2 L16.9 1.4 16.25 1.05 15.9 1.1 15.8 1.15 15.55 1.3 M19.9 8.9 L19.55 10.0 19.3 9.2 19.7 9.05 19.9 8.65 19.9 8.9 M12.3 2.85 L11.5 2.6 11.3 2.6 10.6 2.9 10.5 3.75 10.95 4.45 11.75 4.7 12.55 4.1 12.65 3.5 12.3 2.85" fill="#7d7044" fill-rule="evenodd" stroke="none"/>
    <path d="M-20.1 -3.2 L-19.6 -2.35 -18.75 -2.1 -18.6 -1.45 -17.95 -1.2 -18.05 -0.5 -17.65 0.15 -17.8 0.85 -17.15 1.45 -16.45 1.2 Q-15.65 1.85 -15.1 1.45 L-14.55 0.65 Q-13.4 1.25 -12.55 0.1 L-11.45 1.05 Q-11.95 1.8 -11.85 2.7 L-11.9 2.9 -11.6 3.25 -11.15 3.45 -10.7 3.3 Q-9.1 4.35 -8.0 3.05 L-7.05 2.8 -6.6 3.45 -6.15 3.45 -6.05 4.05 -4.05 4.95 -4.0 4.75 -3.65 4.45 -3.25 4.7 -2.0 4.85 -1.9 5.35 -0.8 5.75 -0.65 6.15 0.0 6.5 4.65 6.15 5.4 6.8 6.15 6.9 7.3 8.1 7.05 8.65 9.35 9.3 9.85 10.2 11.4 11.05 Q7.7 12.15 4.0 12.05 L1.2 11.65 0.85 11.35 -3.25 11.15 -3.25 11.05 Q-7.9 10.65 -11.95 8.55 L-16.3 6.1 Q-17.65 5.15 -18.55 3.7 L-18.9 3.05 -18.45 3.55 -18.35 3.65 -18.4 3.5 -19.3 1.05 -20.3 -2.75 -20.1 -3.2 M18.0 4.05 Q18.35 3.65 18.8 3.35 19.05 3.2 19.35 3.15 L19.85 2.55 19.85 2.5 19.7 3.15 19.3 4.55 18.55 5.05 18.45 5.0 17.95 4.3 Q17.9 4.2 18.0 4.05 M10.7 12.5 L10.8 12.45 12.0 12.15 Q12.6 11.85 13.25 11.6 L13.15 12.4 12.95 13.15 12.9 13.35 11.95 14.1 11.45 13.55 10.7 12.5 M0.55 12.35 L0.7 12.6 0.4 16.45 0.0 15.8 -0.55 15.7 -1.7 12.15 0.55 12.35 M-11.35 9.95 L-11.1 11.5 -11.15 12.35 -11.3 12.85 -11.35 12.9 Q-12.3 12.75 -12.65 11.9 L-13.95 8.2 Q-12.65 8.95 -11.35 9.8 L-11.35 9.95" fill="#cccccc" fill-rule="evenodd" stroke="none"/>
  </g>
</svg>
