<?xml version="1.0" encoding="UTF-8" standalone="no"?>
<svg xmlns:ffdec="https://www.free-decompiler.com/flash" xmlns:xlink="http://www.w3.org/1999/xlink" ffdec:objectType="shape" height="96.7px" width="59.6px" xmlns="http://www.w3.org/2000/svg">
  <g transform="matrix(1.0, 0.0, 0.0, 1.0, 29.8, 48.35)">
    <path d="M29.0 -3.6 L29.15 -2.65 29.15 -3.6 29.15 -8.4 25.4 -7.15 26.45 -5.8 26.4 -3.75 23.1 -2.65 22.9 -6.1 19.2 -4.4 19.25 -1.2 15.6 -0.1 15.45 -2.9 10.65 -0.55 10.8 2.3 7.55 4.3 7.15 0.2 6.4 -0.2 7.1 -0.5 1.35 0.8 1.5 1.9 1.4 11.5 1.35 11.5 1.4 11.6 0.95 45.4 13.1 41.3 12.85 30.3 12.9 29.0 18.15 22.55 20.95 26.15 21.2 27.6 20.9 38.3 27.95 35.5 29.0 -3.6 M8.85 18.7 L10.0 7.1 12.5 17.75 8.85 18.7 M19.45 15.35 L21.5 3.45 23.1 13.85 19.45 15.35 M-0.9 -47.4 L-0.75 -48.35 1.45 -47.7 1.55 -46.45 1.8 -45.5 12.15 -41.15 0.4 -38.35 0.5 -37.5 17.9 -32.05 17.9 -25.45 15.65 -23.85 15.5 -14.85 29.8 -10.25 29.8 37.95 0.35 48.35 -29.8 37.95 -29.8 -10.15 -14.6 -15.65 -14.35 -24.05 -16.8 -25.2 -16.8 -32.8 -1.35 -37.35 -1.0 -44.6 -1.45 -44.75 -1.15 -46.3 -0.85 -45.6 Q-0.6 -45.2 -0.2 -45.2 L0.5 -45.6 0.75 -46.55 0.5 -47.5 Q0.2 -47.9 -0.2 -47.9 -0.6 -47.9 -0.85 -47.5 L-0.9 -47.4 M10.3 -31.15 L9.05 -32.45 8.95 -33.1 5.75 -34.15 5.7 -33.25 3.15 -33.5 3.0 -34.3 3.2 -34.85 0.4 -35.9 0.4 -32.45 7.4 -30.55 10.3 -31.15 M14.15 -32.0 L11.75 -32.7 11.4 -31.55 14.2 -31.75 14.2 -31.9 14.15 -32.0 M16.8 -30.75 L13.6 -29.7 13.6 -28.5 11.65 -27.95 10.5 -29.2 7.05 -28.4 7.15 -26.75 4.15 -26.5 3.9 -27.35 0.0 -26.15 0.2 -21.5 7.15 -23.35 7.25 -23.45 7.1 -23.45 16.95 -26.75 16.8 -30.75 M-10.95 -31.1 L-11.0 -31.05 -10.95 -31.0 -1.85 -32.2 -2.05 -35.65 -4.1 -35.15 -3.9 -34.5 -6.3 -33.1 -6.95 -34.0 -9.95 -33.7 -10.95 -31.1 M-11.95 -31.45 L-12.95 -32.95 -14.7 -32.45 -14.35 -32.0 -11.95 -31.45 M-6.35 -29.95 Q-4.35 -28.9 -2.3 -28.65 L-1.25 -28.3 -0.1 -28.25 2.75 -28.8 Q3.15 -28.85 3.65 -29.2 L4.6 -30.0 5.45 -30.0 0.7 -31.4 -0.55 -30.3 -1.2 -30.45 -1.6 -31.0 -6.9 -29.95 -6.35 -29.95 M0.55 -44.8 L0.35 -40.15 9.85 -41.6 0.55 -44.8 M-1.5 -22.0 L-1.35 -26.8 -5.0 -27.65 -5.6 -25.95 -7.95 -26.6 -7.7 -28.3 -10.65 -29.2 -10.95 -27.65 -11.6 -27.15 -12.5 -27.45 -12.8 -30.0 -15.05 -30.8 -15.9 -30.15 -15.9 -26.6 -1.5 -22.0 M-6.85 -21.4 L-7.3 -21.5 -7.75 -21.65 -12.9 -23.1 -13.5 -21.6 -13.1 -10.85 -12.7 -10.0 -1.1 -7.05 -1.3 -15.4 -1.3 -15.45 -1.4 -15.4 -1.55 -15.35 -1.6 -15.35 -0.85 -19.7 -6.85 -21.4 M-7.95 -19.55 L-7.05 -19.35 -6.0 -19.0 -6.05 -11.8 -9.45 -12.9 -9.1 -19.45 -7.95 -19.55 M6.65 -12.5 L6.8 -19.45 8.1 -20.0 8.8 -19.55 9.3 -20.5 9.85 -20.0 9.55 -13.25 6.65 -12.5 M12.05 -18.05 L11.85 -23.25 0.3 -20.45 0.1 -7.45 8.8 -7.45 Q3.15 -5.4 -2.5 -5.7 L-6.4 -6.8 -16.0 -9.9 -16.35 -9.5 -16.8 -9.6 -19.4 -8.5 -21.05 -9.05 -21.05 -9.1 -21.15 -9.1 -21.6 -9.3 -20.2 -10.45 -14.75 -12.05 -14.75 -12.9 -16.05 -12.5 -16.55 -13.3 -19.1 -12.35 -19.75 -10.7 -21.1 -10.4 -21.8 -10.75 -22.1 -11.85 -25.85 -10.5 -26.95 -10.7 -28.5 -9.55 0.5 -0.2 28.9 -9.75 25.55 -10.95 25.15 -11.15 23.75 -11.0 23.65 -10.45 23.3 -10.1 22.7 -9.95 23.25 -9.75 20.65 -8.45 16.3 -9.5 12.05 -8.3 12.05 -16.55 12.7 -16.75 12.95 -17.3 12.7 -17.8 12.05 -18.05 M15.65 -11.1 L21.9 -10.0 20.9 -12.3 17.75 -13.2 17.15 -11.85 15.55 -12.95 15.65 -11.1 M-11.75 29.65 L-11.7 41.5 -0.95 44.75 -0.25 24.3 -0.55 0.4 -4.5 -0.5 -5.05 3.6 -8.95 2.25 -8.25 -1.6 -13.15 -3.0 -13.1 0.9 -16.4 -0.1 -22.1 -4.7 -22.7 -1.5 -24.95 -2.2 -25.05 -6.4 -28.95 -8.6 -29.5 -9.25 -29.55 -9.3 -29.55 -9.25 -29.0 22.1 -28.65 20.6 -28.35 36.0 -20.5 39.4 -20.55 27.1 -20.45 25.45 -18.85 23.2 -17.4 23.5 -12.1 26.7 -11.75 29.65 M-25.35 13.05 L-23.55 2.7 -21.8 14.05 -25.35 13.05 M-12.55 17.3 L-11.65 6.2 -9.4 18.25 -12.55 17.3 M-1.15 -2.9 L-1.2 -2.9 -1.15 -2.9" fill="#000000" fill-rule="evenodd" stroke="none"/>
    <path d="M29.15 -3.6 L29.0 -3.6 27.95 35.5 20.9 38.3 21.2 27.6 27.95 24.1 22.95 25.25 22.75 15.45 27.65 12.55 23.1 13.85 21.5 3.45 19.45 15.35 12.5 17.75 10.0 7.1 8.85 18.7 2.85 21.35 10.25 20.0 10.0 29.3 2.3 32.35 12.85 30.3 13.1 41.3 0.95 45.4 1.4 11.6 6.95 10.6 1.4 11.5 1.5 1.9 1.35 0.8 7.1 -0.5 6.4 -0.2 7.15 0.2 7.55 4.3 10.8 2.3 10.65 -0.55 15.45 -2.9 15.6 -0.1 19.25 -1.2 19.2 -4.4 22.9 -6.1 23.1 -2.65 26.4 -3.75 26.45 -5.8 25.4 -7.15 29.15 -8.4 29.15 -3.6 M10.3 -31.15 L7.4 -30.55 0.4 -32.45 0.4 -35.9 3.2 -34.85 3.0 -34.3 3.15 -33.5 5.7 -33.25 5.75 -34.15 8.95 -33.1 9.05 -32.45 10.3 -31.15 M14.2 -31.75 L11.4 -31.55 11.75 -32.7 14.15 -32.0 14.2 -31.75 M16.8 -30.75 L16.95 -26.75 7.1 -23.45 7.25 -23.45 7.15 -23.35 0.2 -21.5 0.0 -26.15 3.9 -27.35 4.15 -26.5 7.15 -26.75 7.05 -28.4 10.5 -29.2 11.65 -27.95 13.6 -28.5 13.6 -29.7 16.8 -30.75 M-10.95 -31.0 L-10.95 -31.1 -9.95 -33.7 -6.95 -34.0 -6.3 -33.1 -3.9 -34.5 -4.1 -35.15 -2.05 -35.65 -1.85 -32.2 -10.95 -31.0 M-11.95 -31.45 L-14.35 -32.0 -14.7 -32.45 -12.95 -32.95 -11.95 -31.45 M-6.9 -21.3 L-7.3 -21.5 -6.85 -21.4 -6.9 -21.3 M6.65 -12.5 L5.8 -12.0 5.8 -10.75 8.05 -10.15 8.75 -9.2 11.1 -12.35 10.1 -13.4 9.55 -13.25 9.85 -20.0 9.3 -20.5 9.3 -21.5 8.65 -22.05 8.1 -20.0 6.8 -19.45 6.65 -12.5 M1.25 -14.3 L6.15 -15.75 5.55 -16.3 0.9 -15.25 1.25 -14.3 M8.8 -7.45 L0.1 -7.45 0.3 -20.45 11.85 -23.25 12.05 -18.05 10.7 -17.8 Q10.15 -17.6 10.15 -17.3 10.15 -17.0 10.7 -16.75 L12.05 -16.55 12.05 -8.3 12.05 -7.45 8.8 -7.45 M12.9 29.0 L11.3 22.8 11.4 19.65 21.55 15.95 20.95 26.15 18.15 22.55 12.9 29.0" fill="#dadada" fill-rule="evenodd" stroke="none"/>
    <path d="M-0.9 -47.4 L-0.85 -47.5 Q-0.6 -47.9 -0.2 -47.9 0.2 -47.9 0.5 -47.5 L0.75 -46.55 0.5 -45.6 -0.2 -45.2 Q-0.6 -45.2 -0.85 -45.6 L-1.15 -46.3 -1.15 -46.55 -0.9 -47.4" fill="#c6c502" fill-rule="evenodd" stroke="none"/>
    <path d="M-6.35 -29.95 L-6.9 -29.95 -1.6 -31.0 -1.2 -30.45 -0.55 -30.3 0.7 -31.4 5.45 -30.0 4.6 -30.0 3.65 -29.2 Q3.15 -28.85 2.75 -28.8 L-0.1 -28.25 -1.25 -28.3 -2.3 -28.65 Q-4.35 -28.9 -6.35 -29.95 M8.8 -7.45 L12.05 -7.45 12.05 -8.3 16.3 -9.5 20.65 -8.45 -1.15 -2.9 -19.4 -8.5 -16.8 -9.6 -16.35 -9.5 -16.0 -9.9 -6.4 -6.8 -2.5 -5.7 Q3.15 -5.4 8.8 -7.45" fill="#ffffff" fill-rule="evenodd" stroke="none"/>
    <path d="M0.55 -44.8 L9.85 -41.6 0.35 -40.15 0.55 -44.8" fill="#0099ff" fill-rule="evenodd" stroke="none"/>
    <path d="M-1.5 -22.0 L-15.9 -26.6 -15.9 -30.15 -15.05 -30.8 -12.8 -30.0 -12.5 -27.45 -11.6 -27.15 -10.95 -27.65 -10.65 -29.2 -7.7 -28.3 -7.95 -26.6 -5.6 -25.95 -5.0 -27.65 -1.35 -26.8 -1.5 -22.0 M-9.9 -16.8 L-12.6 -16.9 -10.35 -16.05 -9.9 -16.8 M-6.9 -21.3 L-6.85 -21.4 -0.85 -19.7 -1.6 -15.35 -5.25 -16.05 -1.75 -14.5 -1.55 -15.35 -1.4 -15.4 -1.3 -15.4 -1.1 -7.05 -12.7 -10.0 -13.1 -10.85 -13.5 -21.6 -12.9 -23.1 -7.75 -21.65 -7.95 -19.55 -9.1 -19.45 -9.45 -12.9 -10.35 -12.85 -10.75 -12.1 -8.15 -8.95 -7.65 -9.85 -5.2 -9.8 -4.85 -10.6 -5.25 -11.4 -6.05 -11.8 -6.0 -19.0 -7.05 -19.35 -6.9 -21.3 M15.65 -11.1 L15.55 -12.95 17.15 -11.85 17.75 -13.2 20.9 -12.3 21.9 -10.0 15.65 -11.1 M23.25 -9.75 L22.7 -9.95 23.3 -10.1 23.25 -9.75 M23.65 -10.45 L23.75 -11.0 25.15 -11.15 25.55 -10.95 23.65 -10.45 M-25.85 -10.5 L-22.1 -11.85 -21.8 -10.75 -21.1 -10.4 -19.75 -10.7 -19.1 -12.35 -16.55 -13.3 -16.05 -12.5 -14.75 -12.9 -14.75 -12.05 -20.2 -10.45 -21.6 -9.3 -25.85 -10.5 M-29.5 -9.25 L-28.95 -8.6 -25.05 -6.4 -24.95 -2.2 -22.7 -1.5 -22.1 -4.7 -16.4 -0.1 -13.1 0.9 -13.15 -3.0 -8.25 -1.6 -8.95 2.25 -5.05 3.6 -4.5 -0.5 -0.55 0.4 -0.25 24.3 -0.95 44.75 -11.7 41.5 -11.75 29.65 -1.05 31.15 -10.25 28.15 -10.8 19.05 -1.9 20.05 -9.4 18.25 -11.65 6.2 -12.55 17.3 -21.8 14.05 -23.55 2.7 -25.35 13.05 -28.2 12.9 -24.1 14.4 -24.7 24.45 -28.0 24.8 -20.55 27.1 -20.5 39.4 -28.35 36.0 -28.65 20.6 -29.0 22.1 -29.55 -9.25 -29.5 -9.25 M-12.1 26.7 L-17.4 23.5 -18.85 23.2 -20.45 25.45 -23.15 24.8 -23.05 14.65 -11.45 18.8 -12.1 26.7 M-25.6 3.2 Q-26.0 2.95 -26.55 2.95 L-27.5 3.2 Q-27.9 3.4 -27.9 3.75 L-27.5 4.35 -26.55 4.55 -25.6 4.35 -25.2 3.75 Q-25.2 3.4 -25.6 3.2" fill="#b6b6b6" fill-rule="evenodd" stroke="none"/>
    <path d="M1.4 11.5 L6.95 10.6 1.4 11.6 1.35 11.5 1.4 11.5 M12.85 30.3 L2.3 32.35 10.0 29.3 10.25 20.0 2.85 21.35 8.85 18.7 12.5 17.75 19.45 15.35 23.1 13.85 27.65 12.55 22.75 15.45 22.95 25.25 27.95 24.1 21.2 27.6 20.95 26.15 21.55 15.95 11.4 19.65 11.3 22.8 12.9 29.0 12.85 30.3 M-9.9 -16.8 L-10.35 -16.05 -12.6 -16.9 -9.9 -16.8 M-7.3 -21.5 L-6.9 -21.3 -7.05 -19.35 -7.95 -19.55 -7.75 -21.65 -7.3 -21.5 M-6.05 -11.8 L-5.25 -11.4 -4.85 -10.6 -5.2 -9.8 -7.65 -9.85 -8.15 -8.95 -10.75 -12.1 -10.35 -12.85 -9.45 -12.9 -6.05 -11.8 M-1.55 -15.35 L-1.75 -14.5 -5.25 -16.05 -1.6 -15.35 -1.55 -15.35 M9.55 -13.25 L10.1 -13.4 11.1 -12.35 8.75 -9.2 8.05 -10.15 5.8 -10.75 5.8 -12.0 6.65 -12.5 9.55 -13.25 M8.1 -20.0 L8.65 -22.05 9.3 -21.5 9.3 -20.5 8.8 -19.55 8.1 -20.0 M1.25 -14.3 L0.9 -15.25 5.55 -16.3 6.15 -15.75 1.25 -14.3 M12.05 -16.55 L10.7 -16.75 Q10.15 -17.0 10.15 -17.3 10.15 -17.6 10.7 -17.8 L12.05 -18.05 12.7 -17.8 12.95 -17.3 12.7 -16.75 12.05 -16.55 M-20.55 27.1 L-28.0 24.8 -24.7 24.45 -24.1 14.4 -28.2 12.9 -25.35 13.05 -21.8 14.05 -12.55 17.3 -9.4 18.25 -1.9 20.05 -10.8 19.05 -10.25 28.15 -1.05 31.15 -11.75 29.65 -12.1 26.7 -11.45 18.8 -23.05 14.65 -23.15 24.8 -20.45 25.45 -20.55 27.1 M-25.6 3.2 Q-25.2 3.4 -25.2 3.75 L-25.6 4.35 -26.55 4.55 -27.5 4.35 -27.9 3.75 Q-27.9 3.4 -27.5 3.2 L-26.55 2.95 Q-26.0 2.95 -25.6 3.2" fill="#616161" fill-rule="evenodd" stroke="none"/>
    <path d="M20.65 -8.45 L23.25 -9.75 23.3 -10.1 23.65 -10.45 25.55 -10.95 28.9 -9.75 0.5 -0.2 -28.5 -9.55 -26.95 -10.7 -25.85 -10.5 -21.6 -9.3 -21.15 -9.1 -21.05 -9.05 -19.4 -8.5 -1.15 -2.9 20.65 -8.45 M-1.15 -2.9 L-1.2 -2.9 -1.15 -2.9" fill="#eaeaea" fill-rule="evenodd" stroke="none"/>
  </g>
</svg>
