<?xml version="1.0" encoding="UTF-8" standalone="no"?>
<svg xmlns:ffdec="https://www.free-decompiler.com/flash" xmlns:xlink="http://www.w3.org/1999/xlink" ffdec:objectType="shape" height="82.55px" width="60.4px" xmlns="http://www.w3.org/2000/svg">
  <g transform="matrix(1.0, 0.0, 0.0, 1.0, 30.2, 41.25)">
    <path d="M16.7 -37.1 L18.4 -34.7 16.05 -31.6 0.15 -27.5 -0.05 -14.5 9.1 -17.25 10.5 -19.05 11.9 -23.6 12.55 -23.8 12.8 -24.35 12.55 -24.85 11.9 -25.1 11.75 -29.25 15.5 -30.35 15.35 -21.9 23.05 -18.6 14.9 -17.35 Q12.8 -17.8 10.9 -14.45 10.85 -14.35 11.1 -14.1 L8.15 -12.6 7.15 -12.1 Q5.45 -9.95 3.4 -8.25 L7.9 -9.8 10.65 -4.75 8.9 -3.65 6.95 2.8 6.4 4.3 8.6 11.7 Q10.4 15.25 9.35 11.45 L8.7 11.65 9.85 0.05 12.35 10.7 11.45 10.95 Q11.8 11.6 11.7 12.45 L11.6 13.2 Q13.15 21.15 15.55 15.6 L20.45 1.8 20.9 -7.0 10.35 -10.2 18.7 -13.4 18.75 -13.4 23.7 -14.75 28.4 -1.75 28.6 -0.3 28.6 -1.3 30.2 30.7 0.2 41.3 -30.2 30.8 -28.1 2.25 -25.4 0.55 -23.7 -4.4 -23.25 -1.55 -23.3 -7.0 -28.4 -1.4 -22.75 -14.7 -21.45 -14.75 Q-20.95 -15.05 -20.75 -15.95 L-20.25 -17.5 -20.05 -17.75 -20.25 -17.65 -19.2 -20.35 -14.75 -22.7 -14.45 -24.95 -13.7 -25.05 -13.3 -16.65 -11.7 -23.8 -10.65 -19.55 -8.7 -16.5 -1.25 -14.1 -1.45 -22.45 -1.45 -22.5 -1.55 -22.45 -1.7 -22.4 -1.75 -22.4 -1.0 -26.75 -7.45 -28.55 -6.2 -18.85 -9.6 -19.95 -7.9 -28.7 -14.3 -26.15 -13.5 -32.85 -10.25 -31.8 -8.0 -35.3 Q-8.2 -33.65 -7.25 -32.95 L-4.85 -29.7 16.8 -33.8 16.7 -37.1 M6.5 -19.55 L8.55 -28.15 9.4 -20.3 6.5 -19.55 M24.8 6.3 L26.95 1.7 22.45 3.4 22.95 6.8 19.25 16.15 24.8 6.3 M24.75 1.85 L24.95 -5.9 22.7 2.35 24.75 1.85 M-6.95 -37.9 L-6.95 -37.95 -6.9 -38.0 -6.95 -37.9 M-12.65 -13.45 L-12.4 -13.05 -12.1 -12.95 -12.8 -12.2 Q-15.5 -19.65 -17.15 -15.1 L-13.15 -11.6 -13.0 -10.55 Q-12.8 -10.0 -12.35 -9.8 L-11.45 -9.9 Q-11.05 -10.2 -10.9 -10.9 L-0.9 -7.75 -5.4 -13.45 -8.8 -13.3 -8.8 -14.15 Q-10.1 -19.05 -11.65 -15.45 L-13.65 -16.1 -12.65 -13.45 M-13.8 0.4 L-15.7 -6.9 -20.25 -9.1 -21.4 7.2 -21.35 8.25 Q-21.7 10.3 -20.9 14.0 -20.15 17.65 -18.4 19.05 -16.7 20.4 -15.0 18.7 -13.35 16.95 -12.45 11.45 L-12.0 10.45 -12.7 10.25 -12.25 4.55 Q-13.45 3.15 -13.75 1.1 L-13.8 0.4 M-28.05 5.45 L-24.5 11.6 -23.1 7.65 -25.5 6.0 -24.75 1.8 -28.05 5.45 M5.35 -11.65 L-3.35 -12.9 1.25 -8.85 5.35 -11.65 M4.15 3.6 L7.65 -2.9 6.25 -7.25 1.45 -5.85 3.85 3.7 3.9 3.95 4.15 3.6 M-2.45 4.1 L-1.0 2.05 -0.7 -6.65 -4.65 -7.55 -5.2 -3.45 -11.2 1.9 -10.15 7.85 -13.2 18.5 -6.3 12.0 -2.8 4.75 -2.45 4.1 M-11.8 -0.85 L-8.75 -6.1 -13.3 -10.05 -11.8 -0.85 M3.4 13.25 L3.25 14.2 2.6 18.4 2.35 14.55 Q1.9 11.0 0.55 9.25 -0.85 7.45 -2.3 8.55 -3.8 9.6 -5.0 15.1 L-5.85 13.9 Q-8.7 16.6 -10.45 20.25 L-11.9 22.6 -9.5 26.05 -10.9 26.25 -12.4 33.9 -6.9 35.95 -2.9 32.85 -1.6 27.95 -2.8 24.55 Q-2.5 21.7 -0.95 23.45 0.35 24.9 0.05 27.75 L4.0 27.2 2.0 30.45 0.9 31.0 -0.2 30.4 Q-1.1 30.7 -1.6 31.35 L-1.95 32.1 Q-2.9 34.9 0.1 34.85 L6.9 36.25 11.3 33.25 Q11.3 30.3 9.85 28.25 8.35 26.15 6.25 26.15 L12.75 21.95 Q12.8 20.75 13.15 19.75 L11.15 16.5 10.05 14.8 8.15 13.3 7.05 12.15 4.15 5.55 3.4 13.25 M-28.2 16.9 L-28.3 16.95 -27.95 26.05 -25.25 18.65 -24.85 17.4 -25.6 14.5 -28.2 16.9 M-23.25 16.45 L-24.6 23.05 -20.7 22.55 -20.6 18.4 -23.25 16.45 M-24.6 24.45 Q-25.8 24.45 -26.65 25.1 -27.5 25.7 -27.5 26.55 L-28.2 27.7 Q-24.65 34.8 -17.0 31.6 L-15.95 27.65 -24.25 24.4 -24.6 24.45 M24.35 25.95 L27.5 24.35 27.45 18.0 21.05 20.55 22.65 24.7 19.5 25.6 18.25 25.75 Q17.65 26.05 17.35 26.6 17.0 27.15 17.1 27.8 17.2 28.4 17.7 28.9 18.2 29.35 18.85 29.45 L23.7 30.0 27.0 27.4 24.35 25.95 M22.75 16.15 L26.75 16.7 25.55 9.45 22.75 16.15" fill="#000000" fill-rule="evenodd" stroke="none"/>
    <path d="M16.7 -37.1 L16.8 -33.8 -4.85 -29.7 -7.25 -32.95 -4.6 -30.9 16.3 -37.65 16.7 -37.1 M-8.0 -35.3 L-10.25 -31.8 -13.5 -32.85 -6.95 -37.95 -6.95 -37.9 -6.7 -38.15 -2.05 -40.05 -1.3 -36.25 -1.1 -35.3 -8.0 -35.3 M-14.3 -26.15 L-7.9 -28.7 -9.6 -19.95 -10.65 -19.55 -11.7 -23.8 Q-12.85 -23.45 -13.55 -25.1 L-13.7 -25.05 -14.45 -24.95 -14.7 -25.15 Q-15.15 -25.8 -14.3 -26.15 M-6.2 -18.85 L-7.45 -28.55 -1.0 -26.75 -1.75 -22.4 -2.45 -22.55 -1.7 -22.4 -1.55 -22.45 -1.45 -22.45 -1.25 -14.1 -8.7 -16.5 -7.55 -16.5 Q-1.35 -17.0 -6.2 -18.85 M-28.4 -1.4 L-23.3 -7.0 -23.25 -1.55 -23.7 -4.4 -25.4 0.55 -28.1 2.25 -28.4 -1.4 M28.6 -1.3 L28.6 -0.3 28.4 -1.75 28.6 -1.3 M10.35 -10.2 L20.9 -7.0 20.45 1.8 12.35 10.7 9.85 0.05 8.7 11.65 8.6 11.7 6.4 4.3 7.2 4.0 Q9.75 2.75 6.95 2.8 L8.9 -3.65 10.65 -4.75 7.9 -9.8 3.4 -8.25 Q5.45 -9.95 7.15 -12.1 L7.95 -12.3 Q7.0 -10.85 8.4 -10.4 L10.35 -10.2 M15.55 15.6 Q13.15 21.15 11.6 13.2 L11.7 12.45 Q11.7 13.75 12.85 14.7 13.95 15.6 15.55 15.6 M11.1 -14.1 Q10.85 -14.35 10.9 -14.45 12.8 -17.8 14.9 -17.35 L17.6 -14.9 11.1 -14.1 M15.5 -30.35 L11.75 -29.25 11.9 -25.1 10.55 -24.85 Q10.0 -24.65 10.0 -24.35 10.0 -24.05 10.55 -23.8 L11.9 -23.6 10.5 -19.05 9.4 -20.3 8.55 -28.15 6.5 -19.55 6.45 -18.85 Q7.1 -16.85 9.1 -17.25 L-0.05 -14.5 0.15 -27.5 16.05 -31.6 16.4 -31.7 Q17.3 -31.4 16.65 -30.7 L16.0 -30.4 15.5 -30.35 M10.15 -38.2 L8.95 -38.0 Q8.05 -41.25 10.15 -38.2 M24.8 6.3 L22.95 6.8 22.45 3.4 26.95 1.7 24.8 6.3 M6.25 -39.1 L6.0 -37.95 5.5 -38.05 6.25 -39.1 M-12.65 -13.45 L-13.65 -16.1 -11.65 -15.45 -11.0 -14.55 -11.9 -13.2 -12.65 -13.45 M-8.8 -13.3 L-5.4 -13.45 -0.9 -7.75 -10.9 -10.9 -8.8 -13.3 M-13.15 -11.6 L-17.15 -15.1 Q-15.5 -19.65 -12.8 -12.2 L-13.15 -11.6 M-21.4 7.2 L-20.25 -9.1 -15.7 -6.9 -13.8 0.4 -20.75 -1.2 -13.75 1.1 Q-13.45 3.15 -12.25 4.55 L-12.7 10.25 -21.4 7.2 M-28.05 5.45 L-24.75 1.8 -25.5 6.0 -28.05 5.45 M-21.35 8.25 L-12.45 11.45 Q-13.35 16.95 -15.0 18.7 -16.7 20.4 -18.4 19.05 -20.15 17.65 -20.9 14.0 -21.7 10.3 -21.35 8.25 M3.85 3.7 L1.45 -5.85 6.25 -7.25 7.65 -2.9 4.15 3.6 3.85 3.7 M5.35 -11.65 L1.25 -8.85 -3.35 -12.9 5.35 -11.65 M-10.15 7.85 L-11.2 1.9 -5.2 -3.45 -4.65 -7.55 -0.7 -6.65 -1.0 2.05 -2.45 4.1 -8.35 2.95 -2.8 4.75 -6.3 12.0 -6.5 9.1 -10.15 7.85 M-11.8 -0.85 L-13.3 -10.05 -8.75 -6.1 -11.8 -0.85 M7.05 12.15 L3.4 13.25 4.15 5.55 7.05 12.15 M3.25 14.2 L8.15 13.3 10.05 14.8 9.85 22.25 6.55 22.85 2.6 18.4 3.25 14.2 M-5.0 15.1 Q-5.0 17.25 -6.6 18.75 -8.2 20.25 -10.45 20.25 -8.7 16.6 -5.85 13.9 L-5.0 15.1 M-11.9 22.6 L-2.8 24.55 -1.6 27.95 -2.9 32.85 Q-2.9 30.05 -4.8 28.05 -6.75 26.05 -9.5 26.05 L-11.9 22.6 M4.0 27.2 L6.25 26.15 Q8.35 26.15 9.85 28.25 11.3 30.3 11.3 33.25 L2.0 30.45 4.0 27.2 M12.75 21.95 L11.15 16.5 13.15 19.75 Q12.8 20.75 12.75 21.95 M-10.9 26.25 L-6.0 29.25 -12.4 33.9 -10.9 26.25 M0.1 34.85 Q-2.9 34.9 -1.95 32.1 L-1.6 31.35 Q-1.1 30.7 -0.2 30.4 L0.9 31.0 0.1 34.85 M-28.3 16.95 L-25.25 18.65 -27.95 26.05 -28.3 16.95 M-24.85 17.4 L-28.2 16.9 -25.6 14.5 -24.85 17.4 M-20.6 18.4 L-23.3 17.75 -23.25 16.45 -20.6 18.4 M-24.6 24.45 L-24.25 24.4 -18.0 27.0 -28.2 27.7 -27.5 26.55 -24.6 24.45 M19.5 25.6 L22.65 24.7 21.05 20.55 27.45 18.0 27.5 24.35 24.35 25.95 25.1 28.15 23.7 30.0 18.85 29.45 19.5 25.6 M22.75 16.15 L25.55 9.45 26.75 16.7 22.75 16.15" fill="#dadada" fill-rule="evenodd" stroke="none"/>
    <path d="M-7.25 -32.95 Q-8.2 -33.65 -8.0 -35.3 L-1.1 -35.3 -0.3 -35.5 Q4.5 -36.75 -1.3 -36.25 L-2.05 -40.05 5.5 -38.05 6.0 -37.95 6.25 -39.1 7.4 -41.0 10.85 -41.25 16.3 -37.65 -4.6 -30.9 -7.25 -32.95 M-9.6 -19.95 L-6.2 -18.85 Q-1.35 -17.0 -7.55 -16.5 L-8.7 -16.5 -10.65 -19.55 -9.6 -19.95 M-1.75 -22.4 L-1.7 -22.4 -2.45 -22.55 -1.75 -22.4 M-11.7 -23.8 L-13.3 -16.65 -13.7 -25.05 -13.55 -25.1 Q-12.85 -23.45 -11.7 -23.8 M18.7 -13.4 L10.35 -10.2 8.4 -10.4 Q7.0 -10.85 7.95 -12.3 L8.15 -12.6 11.1 -14.1 17.6 -14.9 18.7 -13.45 18.7 -13.4 M20.45 1.8 L15.55 15.6 Q13.95 15.6 12.85 14.7 11.7 13.75 11.7 12.45 11.8 11.6 11.45 10.95 L12.35 10.7 20.45 1.8 M8.7 11.65 L9.35 11.45 Q10.4 15.25 8.6 11.7 L8.7 11.65 M6.4 4.3 L6.95 2.8 Q9.75 2.75 7.2 4.0 L6.4 4.3 M11.9 -25.1 L12.55 -24.85 12.8 -24.35 12.55 -23.8 11.9 -23.6 10.55 -23.8 Q10.0 -24.05 10.0 -24.35 10.0 -24.65 10.55 -24.85 L11.9 -25.1 M10.5 -19.05 L9.1 -17.25 Q7.1 -16.85 6.45 -18.85 L6.5 -19.55 9.4 -20.3 10.5 -19.05 M10.15 -38.2 Q8.05 -41.25 8.95 -38.0 L10.15 -38.2 M22.95 6.8 L24.8 6.3 19.25 16.15 22.95 6.8 M24.75 1.85 L22.7 2.35 24.95 -5.9 24.75 1.85 M-6.7 -38.15 L-6.95 -37.9 -6.9 -38.0 -6.7 -38.15 M-11.65 -15.45 Q-10.1 -19.05 -8.8 -14.15 L-8.8 -13.3 -10.9 -10.9 Q-11.05 -10.2 -11.45 -9.9 L-12.35 -9.8 Q-12.8 -10.0 -13.0 -10.55 L-13.15 -11.6 -12.8 -12.2 -12.1 -12.95 -11.9 -13.2 -11.0 -14.55 -11.65 -15.45 M-21.4 7.2 L-12.7 10.25 -12.0 10.45 -12.45 11.45 -21.35 8.25 -21.4 7.2 M-13.75 1.1 L-20.75 -1.2 -13.8 0.4 -13.75 1.1 M-25.5 6.0 L-23.1 7.65 -24.5 11.6 -28.05 5.45 -25.5 6.0 M3.85 3.7 L4.15 3.6 3.9 3.95 3.85 3.7 M-2.45 4.1 L-2.8 4.75 -8.35 2.95 -2.45 4.1 M-6.3 12.0 L-13.2 18.5 -10.15 7.85 -6.5 9.1 -6.3 12.0 M3.4 13.25 L7.05 12.15 8.15 13.3 3.25 14.2 3.4 13.25 M2.6 18.4 L6.55 22.85 9.85 22.25 10.05 14.8 11.15 16.5 12.75 21.95 6.25 26.15 4.0 27.2 0.05 27.75 Q0.35 24.9 -0.95 23.45 -2.5 21.7 -2.8 24.55 L-11.9 22.6 -10.45 20.25 Q-8.2 20.25 -6.6 18.75 -5.0 17.25 -5.0 15.1 -3.8 9.6 -2.3 8.55 -0.85 7.45 0.55 9.25 1.9 11.0 2.35 14.55 L2.6 18.4 M-12.4 33.9 L-6.0 29.25 -10.9 26.25 -9.5 26.05 Q-6.75 26.05 -4.8 28.05 -2.9 30.05 -2.9 32.85 L-6.9 35.95 -12.4 33.9 M0.9 31.0 L2.0 30.45 11.3 33.25 6.9 36.25 0.1 34.85 0.9 31.0 M-28.3 16.95 L-28.2 16.9 -24.85 17.4 -25.25 18.65 -28.3 16.95 M-23.25 16.45 L-23.3 17.75 -20.6 18.4 -20.7 22.55 -24.6 23.05 -23.25 16.45 M-27.5 26.55 Q-27.5 25.7 -26.65 25.1 -25.8 24.45 -24.6 24.45 L-27.5 26.55 M-24.25 24.4 L-15.95 27.65 -17.0 31.6 Q-24.65 34.8 -28.2 27.7 L-18.0 27.0 -24.25 24.4 M24.35 25.95 L27.0 27.4 23.7 30.0 25.1 28.15 24.35 25.95 M18.85 29.45 Q18.2 29.35 17.7 28.9 17.2 28.4 17.1 27.8 17.0 27.15 17.35 26.6 17.65 26.05 18.25 25.75 L19.5 25.6 18.85 29.45" fill="#616161" fill-rule="evenodd" stroke="none"/>
    <path d="M-20.25 -17.65 L-20.05 -17.75 -20.25 -17.5 -20.25 -17.65 M23.7 -14.75 L18.75 -13.4 18.7 -13.45 17.6 -14.9 14.9 -17.35 23.05 -18.6 23.7 -14.75" fill="#b6b6b6" fill-rule="evenodd" stroke="none"/>
    <path d="M-20.75 -15.95 Q-20.95 -15.05 -21.45 -14.75 L-22.75 -14.7 -22.8 -14.75 Q-21.35 -14.7 -20.75 -15.95 M18.75 -13.4 L18.7 -13.4 18.7 -13.45 18.75 -13.4 M-12.1 -12.95 L-12.4 -13.05 -12.65 -13.45 -11.9 -13.2 -12.1 -12.95" fill="#eaeaea" fill-rule="evenodd" stroke="none"/>
    <path d="M7.15 -12.1 L8.15 -12.6 7.95 -12.3 7.15 -12.1 M-1.3 -36.25 Q4.5 -36.75 -0.3 -35.5 L-1.1 -35.3 -1.3 -36.25" fill="#ffffff" fill-rule="evenodd" stroke="none"/>
  </g>
</svg>
