<?xml version="1.0" encoding="UTF-8" standalone="no"?>
<svg xmlns:ffdec="https://www.free-decompiler.com/flash" xmlns:xlink="http://www.w3.org/1999/xlink" ffdec:objectType="shape" height="49.45px" width="42.4px" xmlns="http://www.w3.org/2000/svg">
  <g transform="matrix(1.0, 0.0, 0.0, 1.0, 21.2, 24.7)">
    <path d="M13.4 -16.9 L12.7 -17.2 6.15 -19.15 1.0 -17.6 0.85 -17.55 1.05 -17.5 -9.4 -14.25 -9.9 -13.6 -11.65 -13.2 -16.0 -11.65 -16.9 -10.95 -5.95 -6.85 -5.75 -9.2 -4.2 -10.2 -2.9 -9.05 20.35 -17.8 20.15 -18.7 21.2 -18.25 21.2 16.25 21.15 16.25 Q15.0 19.45 8.3 21.55 6.25 22.15 4.4 22.95 -2.6 26.25 -9.9 23.55 L-21.2 19.5 -21.2 -15.95 -20.5 -16.2 -20.8 -15.55 -19.9 -14.95 -19.1 -15.3 5.7 -23.9 Q5.7 -21.35 8.55 -19.5 11.4 -17.7 15.45 -17.7 L13.4 -16.9 M5.2 -22.4 L3.95 -22.4 3.95 -20.05 5.2 -20.05 5.2 -22.4 M0.55 -20.6 L-3.4 -19.1 -3.05 -17.45 1.15 -19.45 0.55 -20.6 M20.8 3.8 L20.7 -16.85 19.2 -16.1 18.95 -11.55 16.25 -10.65 15.85 -13.75 11.85 -12.35 12.85 -9.15 9.7 -8.0 9.65 -11.6 4.3 -9.9 4.25 -5.95 1.4 -5.35 0.85 -8.75 -2.45 -7.9 -2.25 22.5 -1.85 22.2 -1.35 22.5 20.85 14.15 20.8 4.0 21.0 3.75 20.8 3.8 M-10.35 -16.3 L-10.6 -15.35 -10.4 -14.65 -7.25 -16.1 -5.9 -16.5 -6.65 -17.9 -10.35 -16.3 M-19.65 -14.4 L-20.05 -14.2 -20.25 17.3 -4.35 23.4 -4.4 -8.6 -5.1 -8.0 -5.55 -5.45 -6.1 -5.75 -6.85 -5.75 -12.9 -7.75 -18.6 -10.4 -19.65 -14.4 M-16.85 -15.2 Q-17.4 -14.7 -17.4 -14.0 -17.4 -13.3 -16.85 -12.75 -16.35 -12.25 -15.65 -12.25 -14.95 -12.25 -14.4 -12.75 -13.9 -13.3 -13.9 -14.0 -13.9 -14.7 -14.4 -15.2 -14.95 -15.75 -15.65 -15.75 -16.35 -15.75 -16.85 -15.2" fill="#000000" fill-rule="evenodd" stroke="none"/>
    <path d="M-4.2 -10.2 L13.4 -16.9 15.45 -17.7 19.2 -19.05 20.15 -18.7 20.35 -17.8 -2.9 -9.05 -4.2 -10.2 M5.7 -23.9 L-19.1 -15.3 -19.9 -14.95 -20.8 -15.55 -20.5 -16.2 -4.95 -22.05 5.65 -24.7 5.7 -23.9 M20.8 3.8 L12.05 6.15 11.7 -2.05 18.15 -4.25 20.7 -5.75 18.65 -5.85 18.35 -8.3 17.4 -8.75 17.15 -5.25 4.6 -1.2 3.1 -4.5 3.25 -0.85 Q0.65 0.45 -2.0 1.7 L10.6 -1.75 10.6 6.25 -1.6 10.85 -1.2 11.8 4.05 10.2 4.65 14.1 5.75 10.3 5.55 9.7 17.45 5.7 17.95 10.6 18.85 10.6 18.7 5.5 20.8 4.0 20.85 14.15 -1.35 22.5 -1.85 22.2 -2.25 22.5 -2.45 -7.9 0.85 -8.75 1.4 -5.35 4.25 -5.95 4.3 -9.9 9.65 -11.6 9.7 -8.0 12.85 -9.15 11.85 -12.35 15.85 -13.75 16.25 -10.65 18.95 -11.55 19.2 -16.1 20.7 -16.85 20.8 3.8" fill="#dadada" fill-rule="evenodd" stroke="none"/>
    <path d="M1.0 -17.6 L6.15 -19.15 12.7 -17.2 13.4 -16.9 -4.2 -10.2 -5.75 -9.2 -5.95 -6.85 -16.9 -10.95 -16.0 -11.65 -11.65 -13.2 -9.9 -13.6 -9.4 -14.25 1.05 -17.5 1.0 -17.6" fill="#f5f5f5" fill-rule="evenodd" stroke="none"/>
    <path d="M5.2 -22.4 L5.2 -20.05 3.95 -20.05 3.95 -22.4 5.2 -22.4 M0.55 -20.6 L1.15 -19.45 -3.05 -17.45 -3.4 -19.1 0.55 -20.6 M-10.35 -16.3 L-6.65 -17.9 -5.9 -16.5 -7.25 -16.1 -10.4 -14.65 -10.6 -15.35 -10.35 -16.3 M-16.85 -15.2 Q-16.35 -15.75 -15.65 -15.75 -14.95 -15.75 -14.4 -15.2 -13.9 -14.7 -13.9 -14.0 -13.9 -13.3 -14.4 -12.75 -14.95 -12.25 -15.65 -12.25 -16.35 -12.25 -16.85 -12.75 -17.4 -13.3 -17.4 -14.0 -17.4 -14.7 -16.85 -15.2" fill="#9d9d9d" fill-rule="evenodd" stroke="none"/>
    <path d="M20.8 4.0 L18.7 5.5 18.85 10.6 17.95 10.6 17.45 5.7 5.55 9.7 5.75 10.3 4.65 14.1 4.05 10.2 -1.2 11.8 -1.6 10.85 10.6 6.25 10.6 -1.75 -2.0 1.7 Q0.65 0.45 3.25 -0.85 L3.1 -4.5 4.6 -1.2 17.15 -5.25 17.4 -8.75 18.35 -8.3 18.65 -5.85 20.7 -5.75 18.15 -4.25 11.7 -2.05 12.05 6.15 20.8 3.8 21.0 3.75 20.8 4.0 M-19.4 -4.6 L-13.95 -2.25 Q-15.1 -1.8 -16.0 -0.65 -17.45 1.15 -17.45 3.7 -17.45 6.25 -16.0 8.1 L-14.75 9.25 -19.4 7.35 -19.25 6.45 -18.4 6.75 -18.65 -2.95 -19.4 -4.6 M-12.5 -2.5 L-13.0 -2.45 -12.9 -6.75 -12.5 -2.5 M-5.2 2.45 L-6.8 1.85 -6.25 11.0 -4.4 12.2 -4.65 12.6 -5.45 12.65 -11.95 10.35 -12.15 15.75 -13.05 15.85 -13.1 9.9 -13.25 9.85 -12.5 9.9 Q-10.45 9.9 -9.0 8.1 -7.55 6.25 -7.55 3.7 -7.55 1.6 -8.5 0.0 L-4.65 1.6 -5.2 2.45" fill="#616161" fill-rule="evenodd" stroke="none"/>
    <path d="M-19.65 -14.4 L-18.6 -10.4 -12.9 -7.75 -6.85 -5.75 -6.1 -5.75 -5.55 -5.45 -5.1 -8.0 -4.4 -8.6 -4.35 23.4 -20.25 17.3 -20.05 -14.2 -19.65 -14.4 M-5.2 2.45 L-4.65 1.6 -8.5 0.0 Q-7.55 1.6 -7.55 3.7 -7.55 6.25 -9.0 8.1 -10.45 9.9 -12.5 9.9 L-13.25 9.85 -13.1 9.9 -13.05 15.85 -12.15 15.75 -11.95 10.35 -5.45 12.65 -4.65 12.6 -4.4 12.2 -6.25 11.0 -6.8 1.85 -5.2 2.45 M-12.5 -2.5 L-12.9 -6.75 -13.0 -2.45 -12.5 -2.5 M-19.4 -4.6 L-18.65 -2.95 -18.4 6.75 -19.25 6.45 -19.4 7.35 -14.75 9.25 -16.0 8.1 Q-17.45 6.25 -17.45 3.7 -17.45 1.15 -16.0 -0.65 -15.1 -1.8 -13.95 -2.25 L-19.4 -4.6" fill="#b9b9b9" fill-rule="evenodd" stroke="none"/>
  </g>
</svg>
