<?xml version="1.0" encoding="UTF-8" standalone="no"?>
<svg xmlns:ffdec="https://www.free-decompiler.com/flash" xmlns:xlink="http://www.w3.org/1999/xlink" ffdec:objectType="shape" height="8.8px" width="15.45px" xmlns="http://www.w3.org/2000/svg">
  <g transform="matrix(1.0, 0.0, 0.0, 1.0, 6.95, 5.7)">
    <path d="M1.0 -2.3 L1.8 -2.25 2.95 -2.2 3.65 -1.1 3.95 -0.65 4.05 -0.45 4.1 -0.3 4.0 -0.25 3.9 -0.25 2.7 -0.15 1.6 -0.1 -0.3 -0.3 -0.35 -0.2 -0.4 -0.1 -0.5 0.0 -0.6 -0.05 -0.65 0.15 -0.65 1.25 -0.55 1.5 -0.5 1.8 -0.45 2.05 0.0 3.1 -0.75 2.9 -2.25 1.45 -2.4 1.2 -2.55 0.95 -2.8 0.6 -3.3 -0.9 -3.35 -0.9 -3.4 -0.9 -3.5 -0.95 -3.55 -1.0 -3.65 -1.15 -3.7 -1.35 -4.95 -2.1 -5.15 -2.25 -5.35 -2.4 -5.7 -2.8 -6.1 -3.2 -6.25 -3.15 -6.4 -3.35 -6.8 -5.0 -6.9 -5.4 -6.95 -5.65 -6.8 -5.7 -6.75 -5.7 -6.65 -5.7 -6.6 -5.65 -6.55 -5.5 -5.45 -4.45 -5.05 -4.25 -4.7 -4.0 -4.45 -3.9 -2.35 -3.0 -2.0 -3.1 -1.85 -3.1 -1.75 -3.05 -1.6 -2.95 -1.4 -2.65 -0.6 -2.5 0.2 -2.4 1.0 -2.3 M0.65 -0.4 L1.85 -0.3 3.25 -0.3 3.85 -0.3 3.8 -0.35 3.75 -0.45 3.7 -0.55 3.65 -0.6 3.65 -0.65 3.6 -0.75 3.5 -0.9 3.4 -1.05 2.85 -2.05 2.05 -2.05 0.5 -2.05 -1.45 -2.45 -1.5 -2.45 -1.55 -2.4 -1.4 -1.9 -0.8 -0.95 -0.7 -0.8 -0.65 -0.75 -0.6 -0.7 -0.45 -0.6 -0.35 -0.55 0.65 -0.4 M7.2 -2.25 L7.15 -2.3 7.1 -2.5 7.2 -2.5 7.35 -2.5 7.5 -2.5 7.75 -2.45 7.9 -2.45 8.0 -2.45 8.25 -2.35 8.45 -2.3 8.5 -2.0 8.5 -1.9 8.5 -1.65 8.5 -1.25 8.5 -0.9 8.5 -0.85 8.4 -0.8 8.35 -0.85 8.25 -0.9 8.1 -1.05 7.95 -1.2 7.9 -1.25 7.8 -1.4 7.75 -1.45 7.7 -1.5 7.65 -1.55 7.45 -1.9 7.35 -2.0 7.2 -2.25 M7.75 -1.7 L7.9 -1.45 7.95 -1.4 8.0 -1.4 8.35 -1.0 8.35 -1.4 8.35 -1.7 8.35 -2.0 8.3 -2.15 7.9 -2.25 7.8 -2.25 7.5 -2.3 7.6 -1.9 7.75 -1.7 M-5.65 -3.1 L-4.4 -2.15 -3.4 -1.6 -3.15 -1.75 -2.4 -2.55 -2.4 -2.7 -2.45 -2.75 -3.8 -3.3 Q-4.9 -3.75 -5.85 -4.5 L-6.55 -5.2 -6.15 -3.85 -5.65 -3.1 M-3.2 -1.3 L-3.2 -1.15 -3.0 -0.6 -2.5 0.5 -1.9 1.45 -0.7 2.5 -0.8 2.0 Q-1.05 0.8 -0.85 -0.4 L-0.95 -0.45 -1.0 -0.5 -3.1 -1.3 -3.2 -1.3 M-3.3 -1.35 L-3.4 -1.4 -3.5 -1.35 -3.55 -1.2 -3.5 -1.1 -3.4 -1.05 -3.3 -1.1 -3.3 -1.2 -3.3 -1.35 M-1.7 -2.7 L-1.65 -2.7 Q-1.85 -3.0 -2.15 -2.9 L-2.2 -2.85 -2.25 -2.75 -1.75 -2.65 -1.7 -2.7 M-2.05 -2.6 L-3.05 -1.5 -0.8 -0.6 -1.0 -0.85 -1.1 -1.0 -1.95 -2.55 -2.05 -2.6 M-0.7 -0.3 L-0.65 -0.15 -0.55 -0.1 -0.4 -0.15 -0.35 -0.3 -0.4 -0.45 -0.55 -0.5 -0.65 -0.45 -0.7 -0.3" fill="#3a3832" fill-rule="evenodd" stroke="none"/>
    <path d="M0.65 -0.4 L-0.35 -0.55 -0.45 -0.6 -0.6 -0.7 -0.65 -0.75 -0.7 -0.8 -0.8 -0.95 -1.4 -1.9 -1.55 -2.4 -1.5 -2.45 -1.45 -2.45 0.5 -2.05 2.05 -2.05 2.85 -2.05 3.4 -1.05 3.5 -0.9 3.6 -0.75 3.65 -0.65 3.65 -0.6 3.7 -0.55 3.75 -0.45 3.8 -0.35 3.85 -0.3 3.25 -0.3 1.85 -0.3 0.65 -0.4 M-5.65 -3.1 L-6.15 -3.85 -6.55 -5.2 -5.85 -4.5 Q-4.9 -3.75 -3.8 -3.3 L-2.45 -2.75 -2.4 -2.7 -2.4 -2.55 -3.15 -1.75 -3.4 -1.6 -4.4 -2.15 -5.65 -3.1 M7.75 -1.7 L7.6 -1.9 7.5 -2.3 7.8 -2.25 7.9 -2.25 8.3 -2.15 8.35 -2.0 8.35 -1.7 8.35 -1.4 8.35 -1.0 8.0 -1.4 7.95 -1.4 7.9 -1.45 7.75 -1.7 M-3.2 -1.3 L-3.1 -1.3 -1.0 -0.5 -0.95 -0.45 -0.85 -0.4 Q-1.05 0.8 -0.8 2.0 L-0.7 2.5 -1.9 1.45 -2.5 0.5 -3.0 -0.6 -3.2 -1.15 -3.2 -1.3" fill="#d5d0c1" fill-rule="evenodd" stroke="none"/>
    <path d="M-3.3 -1.35 L-3.3 -1.2 -3.3 -1.1 -3.4 -1.05 -3.5 -1.1 -3.55 -1.2 -3.5 -1.35 -3.4 -1.4 -3.3 -1.35 M-1.7 -2.7 L-1.75 -2.65 -2.25 -2.75 -2.2 -2.85 -2.15 -2.9 Q-1.85 -3.0 -1.65 -2.7 L-1.7 -2.7 M-0.7 -0.3 L-0.65 -0.45 -0.55 -0.5 -0.4 -0.45 -0.35 -0.3 -0.4 -0.15 -0.55 -0.1 -0.65 -0.15 -0.7 -0.3" fill="#cccccc" fill-rule="evenodd" stroke="none"/>
  </g>
</svg>
