<?xml version="1.0" encoding="UTF-8" standalone="no"?>
<svg xmlns:ffdec="https://www.free-decompiler.com/flash" xmlns:xlink="http://www.w3.org/1999/xlink" ffdec:objectType="shape" height="64.9px" width="46.35px" xmlns="http://www.w3.org/2000/svg">
  <g transform="matrix(1.0, 0.0, 0.0, 1.0, 23.2, 32.45)">
    <path d="M-11.45 20.95 Q-13.8 20.55 -16.4 18.65 -18.95 16.8 -20.5 14.05 -21.65 12.0 -21.8 9.85 L-22.15 2.45 -22.35 -5.0 -22.35 -6.45 -22.15 -14.85 -22.05 -18.05 -21.9 -22.0 -21.6 -25.55 -20.85 -26.1 -19.7 -25.35 -18.2 -21.2 -19.55 -20.2 -19.5 -18.05 Q-19.5 -16.2 -19.05 -14.9 -18.6 -13.6 -17.95 -13.6 -17.3 -13.6 -16.85 -14.9 -16.4 -16.2 -16.4 -18.05 L-14.8 -18.65 -13.1 -18.05 -10.95 -10.0 -11.65 8.65 -11.85 8.85 Q-16.55 10.5 -11.6 10.75 L-11.45 20.95 M-16.5 -3.4 L-19.6 -5.55 -20.75 5.9 -18.85 6.0 -18.5 -0.25 -14.95 -3.5 -15.0 -10.2 -16.5 -3.4" fill="#b6b6b6" fill-rule="evenodd" stroke="none"/>
    <path d="M-10.95 -10.0 L-13.1 -18.05 -14.8 -18.65 -16.4 -18.05 Q-16.4 -16.2 -16.85 -14.9 -17.3 -13.6 -17.95 -13.6 -18.6 -13.6 -19.05 -14.9 -19.5 -16.2 -19.5 -18.05 L-19.55 -20.2 -18.2 -21.2 -19.7 -25.35 -20.85 -26.1 -21.6 -25.55 -21.9 -22.0 -22.05 -18.05 -22.15 -14.85 -22.35 -6.45 -22.35 -5.0 -22.15 2.45 -21.8 9.85 Q-21.65 12.0 -20.5 14.05 -18.95 16.8 -16.4 18.65 -13.8 20.55 -11.45 20.95 L-9.85 21.3 -10.4 21.25 -9.9 21.4 Q-6.4 22.5 -2.65 22.35 L2.0 22.15 9.2 20.8 Q13.5 19.9 17.3 17.75 19.65 16.35 20.75 13.65 22.4 9.65 22.55 5.35 22.7 1.45 22.45 -2.6 L22.3 -6.45 22.25 -8.65 22.35 -14.85 22.45 -18.05 22.65 -22.25 Q22.85 -25.3 20.05 -26.15 L19.65 -24.45 20.1 -23.8 20.3 -24.35 20.25 -21.55 21.2 -20.6 21.1 -18.05 19.75 -14.55 18.25 -18.05 17.05 -19.1 15.2 -18.05 14.5 -18.05 13.95 -11.0 10.4 -10.25 10.35 -15.2 4.0 -16.5 4.2 -9.3 -3.6 -9.1 -3.35 -16.5 -8.95 -15.5 -10.95 -10.0 M-20.6 -26.8 L-20.35 -28.1 -14.8 -30.7 -11.95 -27.85 -11.3 -31.2 -0.75 -32.45 -0.45 -26.05 1.35 -26.2 2.0 -26.95 1.9 -32.35 11.9 -31.1 12.15 -28.6 15.85 -30.3 19.9 -28.8 19.85 -27.15 20.9 -27.0 22.0 -27.5 Q22.75 -26.6 23.15 -25.5 L23.15 12.15 Q22.25 15.55 19.65 18.35 L19.25 25.75 17.75 27.9 17.5 28.2 16.85 28.9 15.25 29.55 11.35 30.8 7.25 31.45 2.7 32.15 -1.35 32.45 -6.25 32.1 -11.15 31.15 Q-13.5 30.7 -15.6 29.55 L-16.8 28.75 Q-18.35 27.2 -19.1 25.3 L-19.2 24.85 -19.35 19.35 -21.55 15.45 Q-23.15 12.65 -23.15 9.35 L-23.2 -18.05 -23.2 -21.6 Q-22.65 -24.4 -21.6 -27.15 L-20.6 -26.8 M-17.35 -26.8 L-13.95 -28.0 -15.25 -29.5 -19.35 -27.4 -17.35 -26.8 M-13.25 -25.95 Q-13.85 -26.7 -14.65 -26.7 L-14.95 -26.65 Q-17.95 -24.6 -15.4 -21.9 L-14.95 -21.6 -14.65 -21.6 Q-13.85 -21.6 -13.25 -22.35 -12.7 -23.1 -12.7 -24.15 L-12.75 -24.7 Q-12.85 -25.4 -13.25 -25.95 M14.2 -20.95 L11.35 -22.0 6.8 -22.9 Q-2.7 -24.15 -11.75 -21.85 L-14.95 -20.95 -16.45 -20.45 -1.85 -17.3 -2.1 -12.65 2.05 -12.8 2.3 -17.15 16.25 -20.2 15.0 -20.65 Q15.4 -20.8 15.8 -21.55 16.5 -22.95 16.8 -26.95 L17.1 -27.55 18.4 -28.05 14.8 -29.2 12.8 -28.05 Q12.65 -26.6 13.05 -24.1 13.45 -21.75 14.2 -20.95 M-1.8 -24.1 L-1.8 -24.15 -1.85 -24.15 -1.8 -28.3 -7.1 -28.35 -7.2 -28.3 -7.95 -28.2 -8.0 -23.8 -1.8 -24.1 M-1.0 -24.9 L-1.35 -24.2 1.7 -24.0 1.6 -25.3 -1.0 -24.9 M-1.55 -31.35 L-10.0 -30.8 -8.4 -28.9 -1.85 -29.6 -1.55 -31.35 M2.9 -29.6 L8.9 -29.25 10.6 -30.55 3.05 -31.35 2.9 -29.6 M-8.6 -27.3 L-9.55 -28.4 -9.6 -28.85 -10.7 -29.65 -10.35 -24.5 -8.8 -24.4 -8.6 -27.3 M1.95 -11.8 L-2.2 -11.8 -2.2 -10.0 1.95 -10.0 1.95 -11.8 M3.8 -28.35 L3.8 -23.8 8.4 -23.8 8.4 -28.35 3.8 -28.35 M-17.55 25.3 Q-16.85 26.75 -15.35 27.65 -12.75 29.25 -9.7 30.0 L-5.05 30.7 -0.75 30.8 4.1 30.55 8.3 29.75 9.8 29.45 13.95 28.15 17.55 26.8 Q18.15 26.15 18.2 25.3 L18.15 20.2 5.0 23.55 3.65 23.85 -2.9 24.4 -9.35 23.55 -17.35 20.05 -17.55 25.3 M11.35 -29.0 Q11.05 -29.9 10.7 -29.9 10.35 -29.9 10.1 -29.0 9.8 -28.15 9.8 -26.9 9.8 -25.65 10.1 -24.75 L10.1 -24.7 Q10.35 -23.9 10.7 -23.9 11.05 -23.9 11.3 -24.7 L11.35 -24.75 11.35 -24.85 11.35 -28.95 11.35 -29.0" fill="#000000" fill-rule="evenodd" stroke="none"/>
    <path d="M-13.25 -25.95 Q-12.85 -25.4 -12.75 -24.7 L-12.7 -24.15 Q-12.7 -23.1 -13.25 -22.35 -13.85 -21.6 -14.65 -21.6 L-14.95 -21.6 -15.4 -21.9 Q-17.95 -24.6 -14.95 -26.65 L-14.65 -26.7 Q-13.85 -26.7 -13.25 -25.95 M15.0 -20.65 Q14.6 -20.55 14.25 -20.9 L14.2 -20.95 Q13.45 -21.75 13.05 -24.1 12.65 -26.6 12.8 -28.05 L16.8 -26.95 Q16.5 -22.95 15.8 -21.55 15.4 -20.8 15.0 -20.65 M-1.85 -24.15 L-1.8 -24.1 -8.0 -23.8 -7.95 -28.2 -7.2 -28.3 -7.1 -28.35 -1.8 -28.3 -1.85 -24.15 M-8.6 -27.3 L-8.8 -24.4 -10.35 -24.5 -10.7 -29.65 -9.6 -28.85 -9.55 -28.4 -8.6 -27.3 M3.8 -28.35 L8.4 -28.35 8.4 -23.8 3.8 -23.8 3.8 -28.35 M11.35 -29.0 L11.35 -28.95 11.35 -24.85 11.35 -24.75 11.3 -24.7 Q11.05 -23.9 10.7 -23.9 10.35 -23.9 10.1 -24.7 L10.1 -24.75 Q9.8 -25.65 9.8 -26.9 9.8 -28.15 10.1 -29.0 10.35 -29.9 10.7 -29.9 11.05 -29.9 11.35 -29.0" fill="#9d9d9d" fill-rule="evenodd" stroke="none"/>
    <path d="M-11.45 20.95 L-11.6 10.75 -0.65 12.45 1.3 20.65 1.5 12.4 6.95 11.15 -8.25 11.15 -8.25 -0.25 -10.35 -0.2 -11.65 8.65 -10.95 -10.0 -8.95 -15.5 -3.35 -16.5 -3.6 -9.1 4.2 -9.3 4.0 -16.5 10.35 -15.2 10.4 -10.25 13.95 -11.0 14.5 -18.05 15.2 -18.05 17.05 -19.1 18.25 -18.05 19.75 -14.55 21.1 -18.05 21.2 -20.6 20.25 -21.55 20.3 -24.35 20.1 -23.8 19.65 -24.45 20.05 -26.15 Q22.85 -25.3 22.65 -22.25 L22.45 -18.05 22.35 -14.85 22.25 -8.65 22.3 -6.45 22.45 -2.6 Q22.7 1.45 22.55 5.35 22.4 9.65 20.75 13.65 19.65 16.35 17.3 17.75 13.5 19.9 9.2 20.8 L2.0 22.15 -2.65 22.35 Q-6.4 22.5 -9.9 21.4 L-9.85 21.3 -11.45 20.95 M-17.35 -26.8 L-19.35 -27.4 -15.25 -29.5 -13.95 -28.0 -17.35 -26.8 M12.8 -28.05 L14.8 -29.2 18.4 -28.05 17.1 -27.55 16.8 -26.95 12.8 -28.05 M-1.0 -24.9 L1.6 -25.3 1.7 -24.0 -1.35 -24.2 -1.0 -24.9 M2.9 -29.6 L3.05 -31.35 10.6 -30.55 8.9 -29.25 2.9 -29.6 M-1.55 -31.35 L-1.85 -29.6 -8.4 -28.9 -10.0 -30.8 -1.55 -31.35 M1.95 -11.8 L1.95 -10.0 -2.2 -10.0 -2.2 -11.8 1.95 -11.8 M-0.15 -7.6 L-0.7 -0.45 -8.25 -0.25 8.25 -0.25 8.25 10.85 15.55 9.15 16.85 16.8 17.05 8.6 10.85 8.6 10.85 -2.15 1.15 -0.4 -0.15 -7.6 M17.4 -4.15 L16.7 -10.4 14.25 -2.75 18.3 -2.6 18.3 7.35 21.15 5.65 20.1 -6.1 17.4 -4.15" fill="#dadada" fill-rule="evenodd" stroke="none"/>
    <path d="M15.0 -20.65 L16.25 -20.2 2.3 -17.15 2.05 -12.8 -2.1 -12.65 -1.85 -17.3 -16.45 -20.45 -14.95 -20.95 -11.75 -21.85 Q-2.7 -24.15 6.8 -22.9 L11.35 -22.0 14.2 -20.95 14.25 -20.9 Q14.6 -20.55 15.0 -20.65" fill="#f5f5f5" fill-rule="evenodd" stroke="none"/>
    <path d="M-11.6 10.75 Q-16.55 10.5 -11.85 8.85 L-11.65 8.65 -10.35 -0.2 -8.25 -0.25 -8.25 11.15 6.95 11.15 1.5 12.4 1.3 20.65 -0.65 12.45 -11.6 10.75 M-0.15 -7.6 L1.15 -0.4 10.85 -2.15 10.85 8.6 17.05 8.6 16.85 16.8 15.55 9.15 8.25 10.85 8.25 -0.25 -8.25 -0.25 -0.7 -0.45 -0.15 -7.6 M-16.5 -3.4 L-15.0 -10.2 -14.95 -3.5 -18.5 -0.25 -18.85 6.0 -20.75 5.9 -19.6 -5.55 -16.5 -3.4 M17.4 -4.15 L20.1 -6.1 21.15 5.65 18.3 7.35 18.3 -2.6 14.25 -2.75 16.7 -10.4 17.4 -4.15" fill="#616161" fill-rule="evenodd" stroke="none"/>
    <path d="M-17.55 25.3 L-17.35 20.05 -9.35 23.55 -2.9 24.4 3.65 23.85 5.0 23.55 18.15 20.2 18.2 25.3 Q18.15 26.15 17.55 26.8 L13.95 28.15 9.8 29.45 8.3 29.75 4.1 30.55 -0.75 30.8 -5.05 30.7 -9.7 30.0 Q-12.75 29.25 -15.35 27.65 -16.85 26.75 -17.55 25.3" fill="#8b8b8b" fill-rule="evenodd" stroke="none"/>
  </g>
</svg>
