<?xml version="1.0" encoding="UTF-8" standalone="no"?>
<svg xmlns:ffdec="https://www.free-decompiler.com/flash" xmlns:xlink="http://www.w3.org/1999/xlink" ffdec:objectType="shape" height="57.85px" width="55.7px" xmlns="http://www.w3.org/2000/svg">
  <g transform="matrix(1.0, 0.0, 0.0, 1.0, 27.85, 28.9)">
    <path d="M-13.85 -20.4 Q-16.55 -16.85 -14.95 -21.0 L-14.8 -21.45 Q-14.25 -22.85 -13.3 -24.1 L-13.85 -20.4 M-21.5 -4.75 L-21.6 -2.9 -21.75 -3.7 -21.5 -4.75 M19.95 6.4 L15.05 11.2 17.0 6.0 19.95 6.4 M20.6 -4.0 L20.2 -2.5 20.65 -4.75 20.6 -4.0 M14.75 -17.3 L14.7 -17.25 14.6 -18.25 14.8 -17.9 14.75 -17.3 M7.65 -23.95 L8.55 -14.7 4.45 -18.2 3.75 -20.0 3.85 -20.6 7.65 -23.95 M15.15 -7.35 L12.65 -9.9 12.2 -13.85 14.4 -11.95 15.35 -7.55 15.15 -7.35 M16.25 -2.45 L14.05 1.3 11.5 1.3 9.95 -2.7 9.95 -6.05 15.05 -4.25 16.25 -2.45 M13.55 2.1 L14.85 4.75 12.15 12.5 5.05 4.75 6.5 -6.3 7.35 -2.85 7.35 3.55 9.55 3.05 12.05 2.45 13.55 2.1 M-1.35 -14.1 L-1.35 -14.05 -1.4 -14.1 -1.35 -14.1 M-8.85 11.9 L-10.8 14.1 Q-15.55 13.55 -18.1 9.4 -19.6 7.0 -20.25 4.1 -20.6 2.3 -20.6 0.3 L-16.6 9.95 -15.25 3.0 -4.5 4.7 -8.1 8.45 -8.85 11.9 M-18.8 -0.35 L-16.6 -4.1 -12.0 0.9 -17.2 2.9 -18.8 -0.35 M-16.3 -4.6 L-13.4 -14.95 -11.25 -8.35 -11.8 -8.55 -11.3 -7.6 -10.9 -6.45 -11.3 -3.25 -16.3 -4.6 M-9.4 -8.2 L-10.85 -16.5 -8.1 -21.85 -5.3 -23.3 -3.2 -12.9 -1.3 -11.35 -1.6 -7.75 -9.4 -8.2 M12.65 -9.9 L12.85 -9.9 12.65 -9.9 M0.2 -9.9 L1.55 -7.9 0.25 -7.7 0.2 -9.9 M-9.15 3.85 L-9.15 -7.55 1.75 -7.55 -0.6 1.95 -3.35 3.85 -9.15 3.85 M1.15 6.7 L8.5 13.7 4.95 13.55 2.3 11.05 0.45 13.1 1.15 6.7 M0.35 13.1 L-6.7 13.1 -1.5 5.8 -0.4 10.15 0.35 13.1 M2.2 13.4 L2.15 13.4 2.15 13.35 2.2 13.4" fill="#dadada" fill-rule="evenodd" stroke="none"/>
    <path d="M-14.95 -21.0 Q-16.55 -16.85 -13.85 -20.4 L-13.2 -17.2 -22.1 -6.2 Q-22.1 -13.95 -16.7 -19.45 L-14.95 -21.0 M-26.25 19.95 L-26.65 15.1 -24.65 15.9 -24.2 18.3 -24.55 18.6 -25.25 20.1 -26.25 19.95 M-23.6 18.65 L-23.35 15.8 -18.75 16.25 -17.5 17.5 -18.2 19.75 -23.6 18.65 M-12.3 23.95 L-13.05 21.4 -8.3 21.3 -8.1 21.3 Q-8.1 22.6 -8.8 23.55 -9.55 24.45 -10.6 24.45 L-12.3 23.95 M-5.1 25.4 L-5.9 23.4 -5.5 23.05 -4.8 23.0 -4.15 23.55 -4.25 25.45 -5.1 25.4 M2.65 28.95 L-0.25 27.2 -0.35 27.05 -0.45 27.1 -2.05 22.9 -1.75 22.75 -0.15 23.35 0.95 23.75 3.3 25.85 4.85 24.9 7.9 24.25 8.15 24.65 4.05 28.65 2.65 28.95 M22.35 19.6 L19.2 19.3 17.8 16.5 20.6 15.35 23.85 19.25 24.25 19.75 22.35 19.6 M20.2 -2.5 L17.4 -2.75 17.05 -13.5 20.65 -4.75 20.2 -2.5 M15.1 -17.5 L14.75 -17.3 14.8 -17.9 15.1 -17.5 M14.7 -17.25 L7.65 -23.95 3.85 -20.6 2.6 -22.1 10.85 -28.9 11.85 -27.55 12.05 -27.0 12.1 -26.8 12.6 -25.6 14.6 -18.25 14.7 -17.25 M4.45 -18.2 Q4.45 -13.7 7.6 -10.5 10.7 -7.35 15.15 -7.35 L15.35 -7.55 16.25 -2.45 15.05 -4.25 9.95 -6.05 9.95 -2.7 7.9 -8.85 4.9 -9.4 3.75 -20.0 4.45 -18.2 M14.05 1.3 L14.1 1.85 13.55 2.1 12.05 2.45 11.5 1.3 14.05 1.3 M5.05 4.75 L3.85 1.35 Q3.35 -2.35 6.5 -6.3 L5.05 4.75 M7.35 -2.85 L9.55 3.05 7.35 3.55 7.35 -2.85 M-3.2 -22.6 L-1.35 -14.1 -1.4 -14.1 -1.35 -14.05 3.0 -9.65 0.45 2.65 -8.85 11.9 -8.1 8.45 -4.5 4.7 -15.25 3.0 -16.6 9.95 -20.6 0.3 -18.8 -0.35 -17.2 2.9 -12.0 0.9 -16.6 -4.1 -16.3 -4.6 -11.3 -3.25 -10.9 -6.45 -9.7 -6.4 -9.4 -8.2 -1.6 -7.75 -1.3 -11.35 -3.2 -12.9 -5.3 -23.3 -3.75 -24.9 -3.65 -24.8 -3.2 -22.6 M-11.25 -8.35 L-11.3 -7.6 -11.8 -8.55 -11.25 -8.35 M-3.75 -24.95 L-9.85 -22.8 -11.25 -23.35 Q-7.85 -24.95 -3.75 -24.95 M-23.0 10.9 L-23.15 10.85 -23.35 10.8 Q-20.45 7.95 -23.0 10.9 M12.65 -9.9 L12.85 -9.9 12.65 -9.9 M0.2 -9.9 L0.25 -7.7 1.55 -7.9 0.2 -9.9 M-9.15 3.85 L-3.35 3.85 -0.6 1.95 1.75 -7.55 -9.15 -7.55 -9.15 3.85 M-1.5 5.8 L0.2 4.35 -0.4 10.15 1.15 6.7 0.45 13.1 0.4 13.35 0.35 13.1 -0.4 10.15 -1.5 5.8 M14.6 22.1 L15.95 22.45 Q14.8 26.6 12.4 22.7 12.0 22.0 12.7 22.05 L14.6 22.1" fill="#616161" fill-rule="evenodd" stroke="none"/>
    <path d="M-22.1 -6.2 L-13.2 -17.2 -13.85 -20.4 -13.3 -24.1 -11.25 -23.35 -9.85 -22.8 -3.75 -24.95 -3.75 -24.9 -5.3 -23.3 -8.1 -21.85 -10.85 -16.5 -9.4 -8.2 -9.7 -6.4 -10.9 -6.45 -11.3 -7.6 -11.25 -8.35 -13.4 -14.95 -16.3 -4.6 -16.6 -4.1 -18.8 -0.35 -20.6 0.3 Q-20.6 2.3 -20.25 4.1 -19.6 7.0 -18.1 9.4 -15.55 13.55 -10.8 14.1 L-8.85 11.9 0.45 2.65 3.0 -9.65 -1.35 -14.05 -1.35 -14.1 -3.2 -22.6 -0.05 -25.3 2.6 -22.1 3.85 -20.6 3.75 -20.0 4.9 -9.4 7.9 -8.85 9.95 -2.7 11.5 1.3 12.05 2.45 9.55 3.05 7.35 -2.85 6.5 -6.3 Q3.35 -2.35 3.85 1.35 L5.05 4.75 12.15 12.5 14.85 4.75 13.55 2.1 14.1 1.85 14.05 1.3 16.25 -2.45 15.35 -7.55 14.4 -11.95 12.2 -13.85 12.65 -9.9 15.15 -7.35 Q10.7 -7.35 7.6 -10.5 4.45 -13.7 4.45 -18.2 L8.55 -14.7 7.65 -23.95 14.7 -17.25 14.75 -17.3 15.1 -17.5 17.05 -13.5 17.4 -2.75 20.2 -2.5 20.6 -4.0 19.95 6.4 27.5 11.25 27.85 18.35 23.85 19.25 20.6 15.35 25.95 18.55 27.05 16.8 25.85 15.15 25.9 11.95 20.6 8.5 18.65 9.55 17.8 16.5 19.2 19.3 22.35 19.6 17.9 20.55 15.9 25.95 10.7 23.8 4.05 28.65 8.15 24.65 8.7 24.05 7.9 24.25 4.85 24.9 Q3.55 24.8 3.35 25.55 L3.3 25.85 0.95 23.75 2.3 23.55 0.7 23.05 -2.1 22.45 -2.05 22.9 -0.45 27.1 -0.25 27.2 2.65 28.95 Q-0.2 28.95 -2.2 27.95 -4.25 26.9 -4.25 25.45 L-4.15 23.55 -3.9 23.25 -3.4 20.35 -0.95 16.7 -3.45 17.05 -5.4 19.9 -6.25 21.2 -5.9 23.4 -5.1 25.4 -10.6 24.45 Q-9.55 24.45 -8.8 23.55 -8.1 22.6 -8.1 21.3 L-8.05 21.05 -11.2 18.65 -13.7 19.35 -11.85 17.45 -9.2 18.3 -15.5 14.7 -14.8 19.65 -13.05 21.4 -12.3 23.95 -16.15 20.05 -18.2 19.75 -17.5 17.5 -17.75 14.35 -18.75 13.9 -18.95 13.85 -18.95 14.0 -23.35 15.8 -23.6 18.65 -24.2 18.3 -24.65 15.9 -24.4 12.05 -26.65 15.1 -26.25 19.95 -27.85 13.0 -24.35 11.15 Q-25.75 6.85 -22.1 7.4 L-22.45 -1.8 -21.75 -3.7 -21.6 -2.9 -21.5 -4.75 -22.1 -6.2 M19.95 6.4 L17.0 6.0 15.05 11.2 19.95 6.4 M-23.0 10.9 Q-20.45 7.95 -23.35 10.8 L-23.15 10.85 -23.2 11.0 -23.0 10.9 M-24.55 18.6 Q-23.05 19.45 -24.85 20.05 L-25.25 20.1 -24.55 18.6 M12.15 -26.8 L12.6 -25.6 12.1 -26.8 12.15 -26.8 M1.15 6.7 L-0.4 10.15 0.2 4.35 -1.5 5.8 -6.7 13.1 0.35 13.1 0.4 13.35 0.45 13.1 2.3 11.05 4.95 13.55 8.5 13.7 1.15 6.7 M2.2 13.4 L2.15 13.35 2.15 13.4 -0.4 19.9 7.0 22.15 6.5 17.6 2.2 13.4 M11.1 19.6 L10.1 14.95 6.8 15.5 11.1 19.6 M16.1 16.9 L17.1 12.9 13.5 14.8 12.55 17.4 16.1 16.9 M15.95 22.45 L16.15 21.4 14.6 22.1 12.7 22.05 Q12.0 22.0 12.4 22.7 14.8 26.6 15.95 22.45" fill="#000000" fill-rule="evenodd" stroke="none"/>
    <path d="M-26.65 15.1 L-24.4 12.05 -24.65 15.9 -26.65 15.1 M-23.35 15.8 L-18.95 14.0 -18.75 13.9 -17.75 14.35 -18.75 16.25 -23.35 15.8 M-13.05 21.4 L-14.8 19.65 -13.7 19.35 -11.2 18.65 -8.05 21.05 -8.3 21.3 -13.05 21.4 M-6.25 21.2 L-5.4 19.9 -3.4 20.35 -3.9 23.25 -4.8 23.0 -5.5 23.05 -6.25 21.2 M-2.1 22.45 L0.7 23.05 -0.15 23.35 -1.75 22.75 -2.1 22.45 M17.8 16.5 L18.65 9.55 20.6 8.5 25.9 11.95 25.85 15.15 27.05 16.8 25.95 18.55 20.6 15.35 17.8 16.5 M-23.15 10.85 L-23.0 10.9 -23.2 11.0 -23.15 10.85 M2.15 13.4 L2.2 13.4 6.5 17.6 -0.4 19.9 2.15 13.4" fill="#b6b6b6" fill-rule="evenodd" stroke="none"/>
    <path d="M-18.95 14.0 L-18.95 13.85 -18.75 13.9 -18.95 14.0 M-17.75 14.35 L-17.5 17.5 -18.75 16.25 -17.75 14.35 M-14.8 19.65 L-15.5 14.7 -9.2 18.3 -11.85 17.45 -13.7 19.35 -14.8 19.65 M-8.05 21.05 L-8.1 21.3 -8.3 21.3 -8.05 21.05 M-5.9 23.4 L-6.25 21.2 -5.5 23.05 -5.9 23.4 M-5.4 19.9 L-3.45 17.05 -0.95 16.7 -3.4 20.35 -5.4 19.9 M-3.9 23.25 L-4.15 23.55 -4.8 23.0 -3.9 23.25 M-2.05 22.9 L-2.1 22.45 -1.75 22.75 -2.05 22.9 M0.7 23.05 L2.3 23.55 0.95 23.75 -0.15 23.35 0.7 23.05 M-0.4 19.9 L6.5 17.6 7.0 22.15 -0.4 19.9 M16.1 16.9 L12.55 17.4 13.5 14.8 17.1 12.9 16.1 16.9 M11.1 19.6 L6.8 15.5 10.1 14.95 11.1 19.6" fill="#8b8b8b" fill-rule="evenodd" stroke="none"/>
    <path d="M-3.75 -24.9 L-3.75 -24.95 -3.65 -24.95 -3.65 -24.8 -3.75 -24.9 M11.85 -27.55 L10.85 -28.9 Q11.25 -28.9 11.55 -28.5 L11.85 -27.55 M12.05 -27.0 L12.15 -26.8 12.1 -26.8 12.05 -27.0" fill="#f5f5f5" fill-rule="evenodd" stroke="none"/>
  </g>
</svg>
