<?xml version="1.0" encoding="UTF-8" standalone="no"?>
<svg xmlns:ffdec="https://www.free-decompiler.com/flash" xmlns:xlink="http://www.w3.org/1999/xlink" ffdec:objectType="shape" height="48.5px" width="52.35px" xmlns="http://www.w3.org/2000/svg">
  <g transform="matrix(1.0, 0.0, 0.0, 1.0, 26.2, 24.25)">
    <path d="M8.5 -18.35 Q11.3 -18.35 13.25 -17.1 15.2 -15.9 15.2 -14.2 L18.35 1.95 19.55 5.4 19.5 1.1 20.15 -6.8 21.3 -5.1 20.7 8.55 26.15 12.25 25.35 17.55 20.1 16.95 24.2 16.5 24.55 14.85 21.7 9.8 16.8 12.9 18.8 9.5 17.45 3.7 14.95 -6.0 11.6 -4.4 12.0 2.35 10.7 8.65 Q10.7 11.3 12.2 13.15 13.7 15.0 15.85 15.0 L19.85 16.5 14.35 16.2 13.75 20.15 2.1 24.25 -0.4 20.75 -5.4 22.65 Q-4.6 22.1 -4.4 21.45 L-4.4 21.15 -4.2 21.0 -4.4 21.0 -4.4 20.65 -6.4 14.9 -13.25 16.15 -13.3 16.2 -13.25 16.25 -13.05 18.5 -11.7 22.55 -17.9 18.45 -21.6 20.05 -25.25 17.4 -26.2 14.05 -25.2 12.2 -25.15 12.7 -25.1 12.95 -24.75 14.35 Q-23.75 15.4 -22.9 14.15 -22.35 13.4 -22.4 12.8 -21.6 11.55 -23.05 10.85 L-24.6 11.05 -22.55 5.65 -21.5 5.9 -20.55 14.2 -15.6 16.7 -14.65 9.9 -10.65 6.95 -9.4 -2.1 -12.1 -7.15 -16.75 -2.7 -18.1 2.95 -18.3 -4.9 -16.3 -5.6 -11.85 -9.85 -17.05 -11.95 -16.6 -12.0 -13.75 -12.15 -9.85 -10.7 -7.6 -3.5 -8.1 -12.25 -3.55 -14.2 -3.45 -14.2 -0.15 -15.4 0.7 -15.5 9.05 -16.95 8.5 -18.35 M6.6 -7.45 Q5.6 -9.2 5.0 -8.7 4.65 -8.35 4.55 -7.75 L4.35 -4.4 4.2 -3.25 4.45 5.1 9.1 7.95 10.0 5.0 10.15 4.8 9.3 -3.25 9.3 -4.65 8.8 -4.5 8.35 -5.7 6.6 -7.45 M-2.2 -2.85 L-1.45 -1.7 1.15 1.3 3.8 -9.85 -0.6 -9.4 -2.3 -7.7 -3.35 -5.65 -2.2 -2.85 M8.4 -8.6 L10.45 -6.35 14.8 -9.4 10.85 -11.8 7.55 -12.9 8.4 -8.6 M19.0 14.05 Q18.85 14.2 18.8 14.5 L18.5 14.35 18.95 14.0 19.0 14.05 M2.1 6.1 L1.65 4.65 Q-0.5 4.65 -2.05 6.2 -3.6 7.75 -3.6 9.95 L-2.15 16.55 -2.7 17.45 -2.1 16.85 -1.7 18.7 -0.75 15.55 0.55 14.25 3.05 15.4 8.95 12.7 10.1 12.4 9.2 9.5 4.25 8.25 Q3.35 8.25 2.75 7.65 2.1 7.0 2.1 6.1 M0.65 16.15 L0.25 16.15 0.0 16.5 Q-0.6 18.05 1.3 18.25 1.8 18.3 2.0 17.9 2.65 16.45 1.4 16.15 L1.15 16.0 0.85 15.85 0.65 16.15 M1.9 19.9 Q0.35 20.15 0.55 21.65 L0.65 22.05 Q1.7 23.8 3.85 22.95 L4.2 21.85 Q4.55 19.75 1.9 19.9 M5.15 19.2 Q6.75 22.0 11.85 20.05 14.4 19.05 12.05 17.8 L12.0 17.75 Q14.95 17.65 11.6 14.15 L11.2 13.75 Q4.2 13.15 5.05 18.0 L5.1 18.4 Q1.55 17.35 4.85 19.35 L5.15 19.2 M19.1 13.8 L19.35 13.1 19.7 13.55 19.1 13.8 M-8.95 -22.85 L-6.2 -24.25 -6.0 -23.05 -4.6 -15.2 -8.1 -15.45 Q-8.4 -17.5 -9.6 -17.2 L-10.95 -16.8 -11.0 -17.85 -7.95 -20.8 -11.05 -19.45 -11.75 -21.45 -8.95 -22.85 M-6.85 9.75 L-6.5 8.8 -7.2 -0.15 -7.9 1.85 Q-7.9 4.5 -8.85 6.35 -9.8 8.2 -11.15 8.2 L-11.1 13.2 -6.45 13.45 -6.85 9.75 M-2.0 1.05 L-5.55 -2.9 -2.85 6.45 -1.55 4.8 0.05 3.0 -2.0 1.05 M-19.6 17.65 L-19.35 17.1 Q-18.5 14.2 -22.05 14.95 -22.55 15.2 -22.75 15.6 -24.85 19.3 -19.6 17.65" fill="#000000" fill-rule="evenodd" stroke="none"/>
    <path d="M-17.05 -11.95 L-11.85 -9.85 -16.3 -5.6 -22.1 -8.05 -21.4 -10.75 -17.05 -11.95 M-16.75 -2.7 L-12.1 -7.15 -9.4 -2.1 -12.5 6.8 -17.4 3.05 -16.75 -2.7 M-14.65 9.9 L-15.6 16.7 -20.55 14.2 -21.5 5.9 Q-18.65 5.9 -16.65 7.1 -14.65 8.25 -14.65 9.9 M-13.25 16.25 L-13.3 16.2 -13.25 16.15 -13.25 16.25 M-6.5 8.8 L-7.9 1.85 -7.2 -0.15 -6.5 8.8 M-11.15 8.2 L-6.85 9.75 -6.45 13.45 -11.1 13.2 -11.15 8.2" fill="#b9b9b9" fill-rule="evenodd" stroke="none"/>
    <path d="M9.05 -16.95 L0.7 -15.5 7.35 -18.0 7.5 -18.0 9.05 -16.95 M-3.55 -14.2 L-8.1 -12.25 -7.6 -3.5 -9.85 -10.7 -8.1 -15.45 -4.6 -15.2 -6.0 -23.05 Q-5.35 -21.35 -2.8 -20.05 0.55 -18.35 5.3 -18.35 L-2.25 -17.85 -3.55 -14.2 M-13.75 -12.15 L-16.6 -12.0 -12.15 -21.35 -11.75 -21.45 -11.05 -19.45 -11.0 -17.85 -10.95 -16.8 -13.75 -12.15 M-16.3 -5.6 L-18.3 -4.9 -18.1 2.95 -16.75 -2.7 -17.4 3.05 -12.5 6.8 -9.4 -2.1 -10.65 6.95 -14.65 9.9 Q-14.65 8.25 -16.65 7.1 -18.65 5.9 -21.5 5.9 L-22.55 5.65 -22.1 -8.05 -16.3 -5.6 M-22.4 12.8 Q-22.35 13.4 -22.9 14.15 -23.75 15.4 -24.75 14.35 L-25.1 12.95 -25.15 12.7 Q-24.05 14.1 -22.8 13.2 L-22.4 12.8 M-11.7 22.55 L-13.05 18.5 -4.4 20.65 -4.4 21.0 -4.4 21.15 -4.4 21.45 Q-4.6 22.1 -5.4 22.65 L-11.7 22.55 M19.85 16.5 L15.85 15.0 18.5 14.35 18.8 14.5 Q18.85 14.2 19.0 14.05 19.2 13.65 19.75 13.6 L24.35 15.0 24.2 16.5 20.1 16.95 19.85 16.5 M10.7 8.65 L12.0 2.35 14.55 1.4 14.95 -6.0 17.45 3.7 17.55 7.7 16.15 2.8 10.7 8.65 M20.15 -6.8 L19.5 1.1 18.35 1.95 15.2 -14.2 Q17.25 -14.2 18.7 -12.0 20.15 -9.85 20.15 -6.8 M4.55 -7.75 Q4.65 -8.35 5.0 -8.7 5.6 -9.2 6.6 -7.45 L4.55 -7.75 M8.35 -5.7 L8.8 -4.5 4.2 -3.25 4.35 -4.4 8.35 -5.7 M9.3 -3.25 L10.15 4.8 Q4.05 7.4 8.95 5.7 L10.0 5.0 9.1 7.95 4.45 5.1 9.3 3.35 9.3 -3.25 M-2.2 -2.85 Q-0.55 -2.85 0.6 -3.6 1.75 -4.35 1.7 -5.35 1.65 -6.35 0.5 -7.05 -0.7 -7.75 -2.3 -7.7 L-0.6 -9.4 3.8 -9.85 1.15 1.3 1.35 -2.45 -1.45 -1.7 -2.2 -2.85 M10.85 -11.8 L8.4 -8.6 7.55 -12.9 10.85 -11.8 M2.1 6.1 Q2.1 7.0 2.75 7.65 3.35 8.25 4.25 8.25 L4.05 10.85 0.55 14.25 -0.75 15.55 -2.1 16.85 -2.7 17.45 -2.15 16.55 2.45 8.65 -3.6 9.95 Q-3.6 7.75 -2.05 6.2 -0.5 4.65 1.65 4.65 L-1.75 7.55 2.1 6.1 M9.2 9.5 L10.1 12.4 8.95 12.7 9.2 9.5 M1.9 19.9 Q4.55 19.75 4.2 21.85 L3.85 22.95 Q1.7 23.8 0.65 22.05 L0.55 21.65 Q0.35 20.15 1.9 19.9 M5.15 19.2 L5.1 18.4 5.05 18.0 11.85 17.7 12.05 17.8 Q14.4 19.05 11.85 20.05 6.75 22.0 5.15 19.2 M-6.5 8.8 L-6.85 9.75 -11.15 8.2 Q-9.8 8.2 -8.85 6.35 -7.9 4.5 -7.9 1.85 L-6.5 8.8 M-1.55 4.8 L-2.85 6.45 -5.55 -2.9 -2.0 1.05 -1.55 4.8 M-22.05 14.95 L-19.6 17.65 Q-24.85 19.3 -22.75 15.6 -22.55 15.2 -22.05 14.95" fill="#616161" fill-rule="evenodd" stroke="none"/>
    <path d="M-11.05 -19.45 L-7.95 -20.8 -11.0 -17.85 -11.05 -19.45" fill="#9d9d9d" fill-rule="evenodd" stroke="none"/>
    <path d="M0.7 -15.5 L-0.15 -15.4 -3.45 -14.2 -3.55 -14.2 -2.25 -17.85 5.3 -18.35 Q6.3 -17.85 7.35 -18.0 L0.7 -15.5 M-9.85 -10.7 L-13.75 -12.15 -10.95 -16.8 -9.6 -17.2 Q-8.4 -17.5 -8.1 -15.45 L-9.85 -10.7" fill="#f5f5f5" fill-rule="evenodd" stroke="none"/>
    <path d="M8.5 -18.35 L9.05 -16.95 7.5 -18.0 8.5 -18.35 M-24.6 11.05 L-23.05 10.85 Q-21.6 11.55 -22.4 12.8 L-22.8 13.2 Q-24.05 14.1 -25.15 12.7 L-25.2 12.2 -25.0 11.4 -24.6 11.05 M-13.05 18.5 L-13.25 16.25 -13.25 16.15 -6.4 14.9 -4.4 20.65 -13.05 18.5 M15.85 15.0 Q13.7 15.0 12.2 13.15 10.7 11.3 10.7 8.65 L16.15 2.8 17.55 7.7 17.45 3.7 18.8 9.5 16.8 12.9 21.7 9.8 24.55 14.85 24.35 15.0 19.75 13.6 19.7 13.55 19.35 13.1 19.1 13.8 18.95 14.0 18.5 14.35 15.85 15.0 M12.0 2.35 L11.6 -4.4 14.95 -6.0 14.55 1.4 12.0 2.35 M19.5 1.1 L19.55 5.4 18.35 1.95 19.5 1.1 M4.55 -7.75 L6.6 -7.45 8.35 -5.7 4.35 -4.4 4.55 -7.75 M8.8 -4.5 L9.3 -4.65 9.3 -3.25 9.3 3.35 4.45 5.1 4.2 -3.25 8.8 -4.5 M10.15 4.8 L10.0 5.0 8.95 5.7 Q4.05 7.4 10.15 4.8 M-2.3 -7.7 Q-0.7 -7.75 0.5 -7.05 1.65 -6.35 1.7 -5.35 1.75 -4.35 0.6 -3.6 -0.55 -2.85 -2.2 -2.85 L-3.35 -5.65 -2.3 -7.7 M-1.45 -1.7 L1.35 -2.45 1.15 1.3 -1.45 -1.7 M10.85 -11.8 L14.8 -9.4 10.45 -6.35 8.4 -8.6 10.85 -11.8 M1.65 4.65 L2.1 6.1 -1.75 7.55 1.65 4.65 M4.25 8.25 L9.2 9.5 8.95 12.7 3.05 15.4 0.55 14.25 4.05 10.85 4.25 8.25 M-0.75 15.55 L-1.7 18.7 -2.1 16.85 -0.75 15.55 M-2.15 16.55 L-3.6 9.95 2.45 8.65 -2.15 16.55 M0.65 16.15 L0.85 15.85 1.15 16.0 1.4 16.15 Q2.65 16.45 2.0 17.9 1.8 18.3 1.3 18.25 -0.6 18.05 0.0 16.5 L0.25 16.15 0.65 16.15 M5.1 18.4 L5.15 19.2 4.85 19.35 Q1.55 17.35 5.1 18.4 M11.85 17.7 L5.05 18.0 Q4.2 13.15 11.2 13.75 L11.6 14.15 Q14.95 17.65 12.0 17.75 L11.85 17.7 M-8.95 -22.85 L-11.75 -21.45 -12.15 -21.35 -8.95 -22.85 M-1.55 4.8 L-2.0 1.05 0.05 3.0 -1.55 4.8 M-22.05 14.95 Q-18.5 14.2 -19.35 17.1 L-19.6 17.65 -22.05 14.95" fill="#dadada" fill-rule="evenodd" stroke="none"/>
  </g>
</svg>
