<?xml version="1.0" encoding="UTF-8" standalone="no"?>
<svg xmlns:ffdec="https://www.free-decompiler.com/flash" xmlns:xlink="http://www.w3.org/1999/xlink" ffdec:objectType="shape" height="33.4px" width="49.0px" xmlns="http://www.w3.org/2000/svg">
  <g transform="matrix(1.0, 0.0, 0.0, 1.0, 24.95, 32.0)">
    <path d="M8.4 -26.9 L8.8 -24.65 8.9 -24.05 10.2 -24.1 13.1 -32.0 13.55 -19.1 16.15 -25.85 17.7 -26.0 19.7 -21.8 18.75 -14.4 19.85 -21.7 24.05 -9.55 23.7 -9.75 16.5 -11.65 16.55 -12.15 Q16.4 -13.95 14.75 -13.5 L14.05 -12.45 11.35 -13.6 10.15 -14.7 Q12.0 -14.95 10.35 -15.65 L10.25 -15.55 8.95 -16.2 5.35 -15.1 5.95 -14.65 Q8.55 -12.2 5.35 -14.75 L5.3 -11.05 9.15 -13.65 9.85 -13.45 8.35 -12.0 8.25 -11.95 7.65 -11.65 5.35 -10.05 5.45 -7.4 7.0 -9.0 9.2 -9.95 6.6 -7.4 5.45 -7.4 4.9 -7.4 4.45 -7.1 4.3 -6.65 4.6 -6.25 Q4.85 -6.1 5.2 -6.05 L4.85 -2.7 4.75 -2.05 3.8 -2.05 3.4 -1.05 3.6 -0.1 4.05 0.25 Q2.5 1.95 0.9 1.1 L-0.15 0.15 2.25 0.8 2.2 -0.85 2.05 -1.15 2.55 -1.9 2.05 -2.65 2.1 -7.4 Q2.9 -7.5 3.1 -8.2 L2.75 -8.55 2.15 -8.75 2.7 -11.85 3.2 -11.95 Q3.8 -12.6 2.95 -12.9 L2.7 -13.95 2.0 -14.4 Q2.5 -14.4 2.85 -14.95 3.2 -15.5 3.2 -16.3 L4.4 -19.4 3.25 -17.65 2.4 -22.8 3.25 -24.55 3.3 -24.45 4.1 -19.65 7.75 -24.75 7.55 -27.7 8.4 -26.9 M20.65 -7.35 L18.4 -6.4 16.55 -6.7 13.2 -6.8 10.1 -5.1 9.95 -5.35 13.3 -8.55 14.15 -8.4 20.65 -7.35 M11.75 -3.6 L9.9 -2.8 10.05 -3.0 11.75 -3.6 M7.9 -2.1 L6.65 -0.85 5.6 -1.3 5.5 -1.5 7.25 -2.95 7.7 -2.7 7.9 -2.1 M0.0 -0.3 L-12.65 -3.5 -12.75 -4.25 -12.15 -5.45 -9.8 -6.5 -9.75 -6.55 -9.0 -6.45 -8.3 -5.2 -5.1 -3.1 -2.1 -10.0 -1.4 -9.55 -0.95 -6.8 -1.4 -4.0 -0.1 -1.65 0.1 -0.45 0.0 -0.3 M-15.3 -5.55 L-15.8 -5.4 -17.95 -4.9 -19.6 -5.5 -18.8 -5.85 Q-16.45 -7.0 -19.3 -7.95 L-20.5 -8.05 -20.35 -8.35 -19.9 -10.35 -19.05 -9.85 -18.95 -9.5 Q-18.5 -8.15 -16.9 -9.65 L-16.1 -10.0 Q-14.65 -10.0 -13.6 -10.65 -12.6 -11.35 -12.6 -12.3 L-12.45 -12.55 -19.95 -10.9 -20.6 -11.65 Q-22.0 -14.0 -23.0 -11.15 -23.4 -10.0 -23.05 -8.75 L-24.2 -8.3 -24.95 -7.9 -23.65 -13.2 -21.15 -14.4 -20.2 -17.85 Q-20.2 -15.8 -19.05 -14.15 L-18.6 -13.7 Q-17.35 -14.3 -17.25 -15.65 L-17.05 -18.45 -16.95 -18.6 -13.45 -17.15 -13.55 -14.85 -12.0 -15.7 -11.55 -15.7 -8.25 -18.9 -14.3 -7.05 -15.1 -5.7 -15.3 -5.55 M12.75 -20.05 L11.5 -23.35 9.5 -22.65 6.15 -17.65 12.75 -20.05 M-0.15 -22.05 L0.1 -14.9 -0.1 -14.2 -1.0 -11.65 -1.75 -11.65 -3.7 -16.1 -0.95 -22.05 -0.15 -22.35 -0.15 -22.05 M-6.3 -22.2 L-5.0 -21.75 -4.75 -22.45 -4.05 -22.65 -4.3 -20.55 -6.75 -21.3 -6.3 -22.2 M-7.95 -12.2 L-8.0 -16.05 -7.8 -16.1 Q-7.3 -16.6 -8.0 -16.85 L-8.0 -19.0 -4.35 -14.65 -4.75 -13.25 Q-5.8 -13.25 -6.5 -12.6 -7.25 -12.0 -7.25 -11.1 L-8.55 -8.45 -7.95 -12.2" fill="#000000" fill-rule="evenodd" stroke="none"/>
    <path d="M2.0 -14.4 L2.7 -13.95 2.95 -12.9 2.35 -12.9 1.75 -12.7 1.55 -12.35 1.9 -12.0 2.7 -11.85 2.15 -8.75 1.6 -8.65 1.25 -8.35 1.25 -7.9 1.55 -7.55 2.1 -7.4 2.05 -2.65 -1.4 -4.0 -0.95 -6.8 -0.55 -9.5 0.1 -12.15 0.45 -13.9 0.75 -13.75 Q1.55 -13.9 1.65 -14.5 L2.0 -14.4 M11.35 -13.6 L14.05 -12.45 16.5 -11.65 23.7 -9.75 19.1 -8.05 Q18.4 -9.3 17.35 -9.9 L17.85 -8.4 15.15 -9.35 12.6 -10.2 12.25 -10.35 12.3 -10.55 Q12.2 -11.45 11.4 -10.75 L8.35 -11.9 8.35 -12.0 9.85 -13.45 11.35 -13.6 M9.2 -9.95 L9.85 -10.1 9.7 -8.1 Q9.1 -8.6 8.7 -7.75 L8.7 -7.4 Q8.9 -6.8 9.45 -7.05 L8.95 -5.85 Q8.45 -5.85 8.1 -5.3 7.75 -4.8 7.75 -4.05 L4.85 -2.7 5.2 -6.05 Q6.9 -5.55 6.7 -7.05 L6.6 -7.4 9.2 -9.95 M0.6 -6.2 L0.9 -5.9 Q1.25 -5.55 1.45 -6.05 L1.2 -6.35 Q0.65 -6.9 0.6 -6.2 M0.55 -4.9 L0.4 -4.55 0.55 -4.2 Q0.65 -4.05 0.85 -4.05 L1.2 -4.2 1.3 -4.55 1.2 -4.9 0.85 -5.05 0.55 -4.9 M10.1 -5.1 L13.2 -6.8 16.55 -6.7 15.9 -5.1 13.55 -4.5 13.45 -5.05 13.0 -5.45 12.55 -5.1 12.4 -4.5 12.5 -4.25 10.3 -3.5 10.1 -5.1 M14.55 -6.2 L14.4 -5.95 14.55 -5.65 14.85 -5.55 15.2 -5.65 15.3 -5.95 15.2 -6.2 14.85 -6.35 14.55 -6.2 M-20.6 -11.65 L-21.7 -11.1 Q-23.15 -10.05 -21.75 -8.8 L-23.05 -8.75 Q-23.4 -10.0 -23.0 -11.15 -22.0 -14.0 -20.6 -11.65 M-19.9 -10.35 L-19.95 -10.9 -12.45 -12.55 -12.65 -12.35 -13.8 -12.1 -17.35 -10.65 -19.05 -9.85 -19.9 -10.35 M-3.7 -16.1 L-1.75 -11.65 -2.1 -10.0 -5.1 -3.1 -6.3 -7.3 -6.25 -7.7 -4.75 -13.25 -4.35 -14.65 -3.7 -16.1 M-8.25 -18.9 L-8.0 -19.0 -8.0 -16.85 -8.2 -16.75 Q-8.5 -16.3 -8.0 -16.05 L-7.95 -12.2 -10.9 -9.45 -9.75 -6.55 -9.8 -6.5 -12.15 -5.45 -12.05 -6.2 -12.05 -6.4 Q-11.85 -8.05 -13.15 -7.05 L-14.3 -7.05 -8.25 -18.9 M-8.25 -14.1 L-8.35 -14.35 -8.65 -14.45 -8.9 -14.35 -9.05 -14.1 -8.9 -13.85 Q-8.8 -13.75 -8.65 -13.75 L-8.35 -13.85 -8.25 -14.1 M-3.45 -10.3 L-3.65 -10.05 Q-3.9 -9.55 -3.35 -9.2 -2.9 -9.1 -2.8 -9.55 -2.7 -10.15 -3.45 -10.3" fill="#cc9900" fill-rule="evenodd" stroke="none"/>
    <path d="M-5.7 -28.25 L0.6 -26.95 6.55 -29.0 0.5 -24.4 -5.7 -28.25 M6.75 -29.5 L8.4 -26.9 7.55 -27.7 6.75 -29.5 M13.1 -32.0 L16.55 -28.4 16.15 -25.85 13.55 -19.1 13.1 -32.0 M-20.2 -17.85 L-15.8 -22.9 -18.15 -15.25 -17.05 -18.45 -17.25 -15.65 Q-17.35 -14.3 -18.6 -13.7 L-19.05 -14.15 Q-20.2 -15.8 -20.2 -17.85 M-15.6 -23.2 Q-13.9 -25.85 -13.4 -22.55 -13.3 -21.75 -13.1 -21.9 -9.45 -24.5 -6.15 -27.65 L-12.65 -20.65 -15.6 -23.2 M3.3 -24.45 L3.25 -24.55 3.65 -24.8 3.3 -24.45 M14.05 -12.45 L14.75 -13.5 Q16.4 -13.95 16.55 -12.15 L16.5 -11.65 14.05 -12.45 M0.05 -22.15 L-0.15 -22.05 -0.15 -22.35 0.05 -22.15 M-6.75 -21.3 L-4.3 -20.55 -4.05 -22.65 -0.95 -22.05 -3.7 -16.1 -4.35 -14.65 -8.0 -19.0 -8.25 -18.9 -11.55 -15.7 Q-11.55 -18.0 -10.15 -19.65 -8.75 -21.3 -6.75 -21.3 M-9.8 -6.5 L-9.75 -6.55 -9.8 -6.5 M-16.95 -18.6 L-15.4 -22.25 -12.2 -18.15 -12.0 -15.7 -13.55 -14.85 -13.45 -17.15 -16.95 -18.6 M-12.6 -12.3 L-12.65 -12.35 -12.45 -12.55 -12.6 -12.3" fill="#9a9a9a" fill-rule="evenodd" stroke="none"/>
    <path d="M-5.7 -28.25 L0.5 -24.4 6.55 -29.0 6.75 -29.5 7.55 -27.7 7.75 -24.75 3.65 -24.8 3.25 -24.55 2.4 -22.8 0.05 -22.15 -0.15 -22.35 -0.95 -22.05 -4.05 -22.65 -4.75 -22.45 -6.3 -22.2 -6.75 -21.3 Q-8.75 -21.3 -10.15 -19.65 -11.55 -18.0 -11.55 -15.7 L-12.0 -15.7 -12.2 -18.15 -15.4 -22.25 -16.95 -18.6 -17.05 -18.45 -18.15 -15.25 -15.8 -22.9 -15.6 -23.2 -12.65 -20.65 -6.15 -27.65 Q-6.45 -27.8 -6.15 -28.2 L-5.7 -28.25 M18.4 -6.4 L18.7 -6.1 Q18.95 -4.6 15.95 -5.0 L15.9 -5.1 16.55 -6.7 18.4 -6.4 M13.3 -4.1 L13.0 -4.0 12.5 -4.25 12.4 -4.5 12.55 -5.1 13.0 -5.45 13.45 -5.05 13.55 -4.5 13.3 -4.1 M9.7 -2.55 L7.9 -2.1 7.7 -2.7 7.25 -2.95 7.85 -3.55 9.15 -3.25 Q9.7 -2.95 9.7 -2.55 M6.65 -0.85 L4.05 0.25 3.6 -0.1 3.4 -1.05 5.6 -1.3 6.65 -0.85 M-12.65 -3.5 Q-14.25 -1.0 -15.0 -3.95 L-15.3 -5.55 -15.1 -5.7 -12.75 -4.25 -12.65 -3.5 M-15.8 -5.4 L-15.8 -4.95 Q-16.6 -2.55 -17.95 -4.9 L-15.8 -5.4 M-19.6 -5.5 L-22.6 -7.2 -22.4 -7.5 -21.55 -7.5 Q-20.4 -7.5 -19.6 -7.0 -18.8 -6.55 -18.8 -5.85 L-19.6 -5.5 M3.25 -17.65 L4.4 -19.4 3.2 -16.3 Q2.55 -16.3 2.1 -15.75 1.65 -15.25 1.65 -14.5 1.55 -13.9 0.75 -13.75 L0.45 -13.9 -0.1 -14.2 0.1 -14.9 3.25 -17.65 M2.95 -12.9 Q3.8 -12.6 3.2 -11.95 L2.7 -11.85 1.9 -12.0 1.55 -12.35 1.75 -12.7 2.35 -12.9 2.95 -12.9 M2.15 -8.75 L2.75 -8.55 3.1 -8.2 Q2.9 -7.5 2.1 -7.4 L1.55 -7.55 1.25 -7.9 1.25 -8.35 1.6 -8.65 2.15 -8.75 M2.05 -2.65 L2.55 -1.9 2.05 -1.15 -0.1 -1.65 -1.4 -4.0 2.05 -2.65 M10.25 -15.55 L10.15 -14.7 11.35 -13.6 9.85 -13.45 9.15 -13.65 8.95 -16.2 10.25 -15.55 M7.65 -11.65 L9.85 -10.1 9.2 -9.95 7.0 -9.0 5.35 -10.05 7.65 -11.65 M9.7 -8.1 L9.45 -7.05 Q8.9 -6.8 8.7 -7.4 L8.7 -7.75 Q9.1 -8.6 9.7 -8.1 M13.3 -8.55 L12.6 -10.2 15.15 -9.35 14.15 -8.4 13.3 -8.55 M12.25 -10.35 Q11.75 -9.8 11.45 -10.55 L11.4 -10.75 Q12.2 -11.45 12.3 -10.55 L12.25 -10.35 M5.45 -7.4 L6.6 -7.4 6.7 -7.05 Q6.9 -5.55 5.2 -6.05 4.85 -6.1 4.6 -6.25 L4.3 -6.65 4.45 -7.1 4.9 -7.4 5.45 -7.4 M0.55 -4.9 L0.85 -5.05 1.2 -4.9 1.3 -4.55 1.2 -4.2 0.85 -4.05 Q0.65 -4.05 0.55 -4.2 L0.4 -4.55 0.55 -4.9 M0.6 -6.2 Q0.65 -6.9 1.2 -6.35 L1.45 -6.05 Q1.25 -5.55 0.9 -5.9 L0.6 -6.2 M17.85 -8.4 L17.35 -9.9 Q18.4 -9.3 19.1 -8.05 L17.85 -8.4 M14.55 -6.2 L14.85 -6.35 15.2 -6.2 15.3 -5.95 15.2 -5.65 14.85 -5.55 14.55 -5.65 14.4 -5.95 14.55 -6.2 M-1.0 -11.65 L0.1 -12.15 -0.55 -9.5 -1.4 -9.55 -2.1 -10.0 -1.75 -11.65 -1.0 -11.65 M-21.75 -8.8 Q-23.15 -10.05 -21.7 -11.1 L-20.6 -11.65 -19.95 -10.9 -19.9 -10.35 -20.35 -8.35 -21.75 -8.8 M-13.15 -7.05 Q-11.85 -8.05 -12.05 -6.4 L-12.05 -6.2 Q-12.5 -6.2 -12.8 -6.45 -13.15 -6.7 -13.15 -7.05 M-9.75 -6.55 L-10.9 -9.45 -7.95 -12.2 -8.55 -8.45 -9.0 -6.45 -9.75 -6.55 M-8.0 -16.05 Q-8.5 -16.3 -8.2 -16.75 L-8.0 -16.85 Q-7.3 -16.6 -7.8 -16.1 L-8.0 -16.05 M-8.25 -14.1 L-8.35 -13.85 -8.65 -13.75 Q-8.8 -13.75 -8.9 -13.85 L-9.05 -14.1 -8.9 -14.35 -8.65 -14.45 -8.35 -14.35 -8.25 -14.1 M-4.75 -13.25 L-6.25 -7.7 -7.25 -11.1 Q-7.25 -12.0 -6.5 -12.6 -5.8 -13.25 -4.75 -13.25 M-6.3 -7.3 L-5.1 -3.1 -8.3 -5.2 -6.3 -7.3 M-13.8 -12.1 L-16.1 -10.0 -16.9 -9.65 -17.35 -10.65 -13.8 -12.1 M-3.45 -10.3 Q-2.7 -10.15 -2.8 -9.55 -2.9 -9.1 -3.35 -9.2 -3.9 -9.55 -3.65 -10.05 L-3.45 -10.3" fill="#404040" fill-rule="evenodd" stroke="none"/>
    <path d="M8.8 -24.65 L10.2 -24.1 8.9 -24.05 8.8 -24.65 M10.25 -15.55 L10.35 -15.65 Q12.0 -14.95 10.15 -14.7 L10.25 -15.55 M9.15 -13.65 L5.3 -11.05 5.35 -14.75 Q8.55 -12.2 5.95 -14.65 L5.35 -15.1 8.95 -16.2 9.15 -13.65 M8.25 -11.95 L8.35 -12.0 8.35 -11.9 8.25 -11.95 M5.35 -10.05 L7.0 -9.0 5.45 -7.4 5.35 -10.05 M-4.75 -22.45 L-5.0 -21.75 -6.3 -22.2 -4.75 -22.45" fill="#858585" fill-rule="evenodd" stroke="none"/>
    <path d="M16.55 -28.4 L17.7 -26.0 16.15 -25.85 16.55 -28.4 M19.7 -21.8 L19.85 -21.7 18.75 -14.4 19.7 -21.8 M9.9 -2.8 L9.7 -2.55 Q9.7 -2.95 9.15 -3.25 L7.85 -3.55 7.75 -4.05 Q7.75 -4.8 8.1 -5.3 8.45 -5.85 8.95 -5.85 L9.95 -5.35 10.1 -5.1 10.3 -3.5 10.05 -3.0 9.9 -2.8 M-0.15 0.15 L0.0 -0.3 0.1 -0.45 2.2 -0.85 2.25 0.8 -0.15 0.15 M-22.6 -7.2 L-24.95 -7.9 -24.2 -8.3 -22.4 -7.5 -22.6 -7.2 M7.75 -24.75 L4.1 -19.65 3.3 -24.45 3.65 -24.8 7.75 -24.75 M2.4 -22.8 L3.25 -17.65 0.1 -14.9 -0.15 -22.05 0.05 -22.15 2.4 -22.8 M3.2 -16.3 Q3.2 -15.5 2.85 -14.95 2.5 -14.4 2.0 -14.4 L1.65 -14.5 Q1.65 -15.25 2.1 -15.75 2.55 -16.3 3.2 -16.3 M12.75 -20.05 L6.15 -17.65 9.5 -22.65 11.5 -23.35 12.75 -20.05 M3.4 -1.05 L3.8 -2.05 4.75 -2.05 Q4.75 -1.8 5.0 -1.65 5.2 -1.5 5.5 -1.5 L5.6 -1.3 3.4 -1.05 M-21.55 -7.5 L-20.5 -8.05 -19.3 -7.95 Q-16.45 -7.0 -18.8 -5.85 -18.8 -6.55 -19.6 -7.0 -20.4 -7.5 -21.55 -7.5 M-14.3 -7.05 L-13.15 -7.05 Q-13.15 -6.7 -12.8 -6.45 -12.5 -6.2 -12.05 -6.2 L-12.15 -5.45 -12.75 -4.25 -15.1 -5.7 -14.3 -7.05" fill="#cccccc" fill-rule="evenodd" stroke="none"/>
    <path d="M24.05 -9.55 Q24.05 -8.65 23.05 -8.0 22.05 -7.35 20.65 -7.35 L14.15 -8.4 15.15 -9.35 17.85 -8.4 19.1 -8.05 23.7 -9.75 24.05 -9.55 M15.95 -5.0 L13.3 -4.1 13.55 -4.5 15.9 -5.1 15.95 -5.0 M13.0 -4.0 L11.75 -3.6 10.05 -3.0 10.3 -3.5 12.5 -4.25 13.0 -4.0 M2.05 -1.15 L2.2 -0.85 0.1 -0.45 -0.1 -1.65 2.05 -1.15 M8.25 -11.95 L8.35 -11.9 11.4 -10.75 11.45 -10.55 Q11.75 -9.8 12.25 -10.35 L12.6 -10.2 13.3 -8.55 9.95 -5.35 8.95 -5.85 9.45 -7.05 9.7 -8.1 9.85 -10.1 7.65 -11.65 8.25 -11.95 M4.85 -2.7 L7.75 -4.05 7.85 -3.55 7.25 -2.95 5.5 -1.5 Q5.2 -1.5 5.0 -1.65 4.75 -1.8 4.75 -2.05 L4.85 -2.7 M0.45 -13.9 L0.1 -12.15 -1.0 -11.65 -0.1 -14.2 0.45 -13.9 M-0.55 -9.5 L-0.95 -6.8 -1.4 -9.55 -0.55 -9.5 M-21.75 -8.8 L-20.35 -8.35 -20.5 -8.05 -21.55 -7.5 -22.4 -7.5 -24.2 -8.3 -23.05 -8.75 -21.75 -8.8 M-6.25 -7.7 L-6.3 -7.3 -8.3 -5.2 -9.0 -6.45 -8.55 -8.45 -7.25 -11.1 -6.25 -7.7 M-13.8 -12.1 L-12.65 -12.35 -12.6 -12.3 Q-12.6 -11.35 -13.6 -10.65 -14.65 -10.0 -16.1 -10.0 L-13.8 -12.1 M-19.05 -9.85 L-17.35 -10.65 -16.9 -9.65 Q-18.5 -8.15 -18.95 -9.5 L-19.05 -9.85" fill="#896001" fill-rule="evenodd" stroke="none"/>
  </g>
</svg>
