<?xml version="1.0" encoding="UTF-8" standalone="no"?>
<svg xmlns:ffdec="https://www.free-decompiler.com/flash" xmlns:xlink="http://www.w3.org/1999/xlink" ffdec:objectType="shape" height="74.5px" width="60.0px" xmlns="http://www.w3.org/2000/svg">
  <g transform="matrix(1.0, 0.0, 0.0, 1.0, 30.0, 36.9)">
    <path d="M13.0 -23.6 L-5.1 -30.05 2.35 -34.15 1.05 -31.75 10.25 -27.05 16.1 -27.4 11.9 -26.15 14.55 -24.05 13.95 -20.7 13.0 -23.6 M19.4 -25.7 L19.25 -26.65 20.0 -25.8 22.4 -18.55 21.8 -19.1 19.4 -25.7 M-15.45 -23.95 L-16.9 -27.4 -17.75 -28.2 -10.15 -30.1 -15.05 -28.1 Q-10.9 -25.5 -14.9 -23.85 L-15.45 -23.95 M-6.25 -21.85 L3.85 -25.1 -5.0 -21.45 -5.25 -19.95 Q-5.3 -15.8 -7.7 -17.35 -8.3 -17.75 -8.55 -18.6 L-8.45 -18.9 -7.4 -20.85 -6.25 -21.85 M18.35 -18.7 L18.95 -19.05 Q19.3 -19.05 19.6 -18.7 L19.85 -17.9 19.6 -17.05 Q19.3 -16.75 18.95 -16.75 18.6 -16.75 18.35 -17.05 18.05 -17.4 18.05 -17.9 18.05 -18.4 18.35 -18.7 M7.85 -10.45 L10.7 -15.9 9.4 -19.2 11.4 -16.85 12.95 -19.7 8.85 -8.85 10.95 -5.5 17.55 -12.0 11.4 -4.8 11.65 4.3 10.85 1.35 7.85 -10.45 M23.15 -10.95 L23.1 -11.6 26.75 -20.05 26.6 -16.2 24.4 -13.2 25.55 8.95 23.8 3.85 23.15 -10.95 M6.95 -3.85 L6.1 -3.7 0.95 -4.8 -0.1 -9.5 -0.2 -9.7 -0.15 -10.65 0.35 -10.45 0.45 -10.3 2.15 -5.45 7.8 -5.25 6.95 -3.85 M4.35 -16.35 Q4.35 -16.9 4.75 -17.25 5.1 -17.65 5.6 -17.65 6.1 -17.65 6.5 -17.25 6.85 -16.9 6.85 -16.35 6.85 -15.8 6.5 -15.4 6.1 -15.05 5.6 -15.05 5.1 -15.05 4.75 -15.4 4.35 -15.8 4.35 -16.35 M3.85 11.35 L8.75 6.15 Q8.75 7.85 7.9 9.15 L7.35 9.85 Q5.9 11.35 3.85 11.35 M18.75 -7.05 Q18.35 -7.6 18.35 -8.35 18.35 -9.1 18.75 -9.65 L19.65 -10.2 Q20.2 -10.2 20.6 -9.65 20.95 -9.1 20.95 -8.35 20.95 -7.6 20.6 -7.05 20.2 -6.5 19.65 -6.5 19.1 -6.5 18.75 -7.05 M25.55 10.6 L27.4 11.95 27.75 16.95 27.8 17.5 27.5 17.05 20.45 7.1 23.6 10.4 25.55 10.6 M7.1 17.1 L8.1 23.95 Q9.65 28.25 7.1 25.9 6.65 25.45 6.65 24.55 L7.1 17.1" fill="#019c4e" fill-rule="evenodd" stroke="none"/>
    <path d="M14.55 -24.05 L11.9 -26.15 16.1 -27.4 10.25 -27.05 1.05 -31.75 2.35 -34.15 -5.1 -30.05 13.0 -23.6 1.0 -19.9 -5.0 -21.45 3.85 -25.1 -6.25 -21.85 -14.9 -23.85 Q-10.9 -25.5 -15.05 -28.1 L-10.15 -30.1 -17.75 -28.2 -16.9 -27.4 -15.45 -23.95 -27.55 -27.6 -0.4 -36.9 29.25 -27.5 20.0 -25.8 19.25 -26.65 19.4 -25.7 14.55 -24.05" fill="#cccccc" fill-rule="evenodd" stroke="none"/>
    <path d="M13.0 -23.6 L13.95 -20.7 14.55 -24.05 19.4 -25.7 21.8 -19.1 23.1 -11.6 23.15 -10.95 Q23.0 -5.9 20.95 -0.95 18.8 4.25 14.3 7.4 L10.8 6.15 10.85 1.35 11.65 4.3 11.4 -4.8 17.55 -12.0 10.95 -5.5 8.85 -8.85 12.95 -19.7 11.4 -16.85 9.4 -19.2 10.7 -15.9 7.85 -10.45 4.7 -12.85 7.8 -5.25 2.15 -5.45 0.45 -10.3 -0.75 -19.2 -1.15 -19.3 -5.25 -19.95 -5.0 -21.45 1.0 -19.9 13.0 -23.6 M20.0 -25.8 L29.25 -27.5 29.45 16.4 27.75 16.95 27.4 11.95 25.55 10.6 23.8 3.85 25.55 8.95 24.4 -13.2 26.6 -16.2 26.75 -20.05 23.0 -16.05 22.4 -18.55 20.0 -25.8 M-27.55 -27.6 L-15.45 -23.95 -14.9 -23.85 -6.25 -21.85 -7.4 -20.85 -21.8 -24.0 -23.5 -22.35 -22.6 -24.35 -29.6 -26.95 -27.55 -27.6 M18.35 -18.7 Q18.05 -18.4 18.05 -17.9 18.05 -17.4 18.35 -17.05 18.6 -16.75 18.95 -16.75 19.3 -16.75 19.6 -17.05 L19.85 -17.9 19.6 -18.7 Q19.3 -19.05 18.95 -19.05 L18.35 -18.7 M4.35 -16.35 Q4.35 -15.8 4.75 -15.4 5.1 -15.05 5.6 -15.05 6.1 -15.05 6.5 -15.4 6.85 -15.8 6.85 -16.35 6.85 -16.9 6.5 -17.25 6.1 -17.65 5.6 -17.65 5.1 -17.65 4.75 -17.25 4.35 -16.9 4.35 -16.35 M6.1 -3.7 L6.95 -3.85 8.75 6.15 3.85 11.35 2.75 4.9 0.35 2.65 0.4 -4.0 3.7 -2.7 6.1 -3.7 M18.75 -7.05 Q19.1 -6.5 19.65 -6.5 20.2 -6.5 20.6 -7.05 20.95 -7.6 20.95 -8.35 20.95 -9.1 20.6 -9.65 20.2 -10.2 19.65 -10.2 L18.75 -9.65 Q18.35 -9.1 18.35 -8.35 18.35 -7.6 18.75 -7.05 M7.1 17.1 L9.85 11.3 21.55 3.4 23.6 10.4 20.45 7.1 27.5 17.05 8.1 23.95 7.1 17.1 M4.5 25.4 L4.15 19.3 6.6 24.55 4.5 25.4 M1.8 26.55 L-2.4 29.15 0.55 25.8 1.0 12.6 3.55 19.95 1.8 26.55 M14.2 15.0 L17.65 17.5 14.0 11.35 14.2 15.0" fill="#666666" fill-rule="evenodd" stroke="none"/>
    <path d="M0.45 -10.3 L0.35 -10.45 -1.5 -14.5 -0.75 -19.2 0.45 -10.3 M-0.2 -9.7 L-0.1 -9.5 -2.4 -1.55 Q-1.75 -3.35 -0.5 -4.4 L0.4 -4.0 0.35 2.65 -2.4 -1.55 0.6 9.1 -5.8 9.35 -7.2 5.1 -3.9 -1.7 -8.05 4.15 -12.75 -3.8 -11.5 -6.55 -1.9 -12.6 -0.2 -9.7 M27.75 16.95 L29.45 16.4 30.0 27.25 0.0 37.6 -30.0 27.25 -29.6 -26.95 -22.6 -24.35 -23.5 -22.35 -21.8 -24.0 -7.4 -20.85 -8.45 -18.9 -12.65 -15.75 -14.1 -2.95 -19.0 2.05 -18.6 -21.25 Q-24.1 -14.35 -21.65 -6.25 -19.65 0.45 -19.55 7.6 L-19.65 9.4 Q-19.6 11.95 -20.45 13.7 -21.35 15.4 -22.5 15.35 -23.7 15.3 -24.5 13.5 -25.3 11.7 -25.3 9.3 L-25.3 9.2 -25.4 7.5 -25.35 5.75 -24.75 2.4 -23.85 -0.9 -27.85 -6.35 -25.85 -2.8 -26.85 9.3 -20.5 20.95 -14.25 -1.65 -12.1 3.05 -10.25 7.8 -9.75 9.4 -10.1 24.3 -7.0 15.1 -4.4 19.6 -6.1 15.0 -5.3 10.55 -0.8 11.05 1.0 12.6 0.55 25.8 -2.4 29.15 1.8 26.55 3.15 27.3 4.5 25.4 6.6 24.55 6.65 24.55 Q6.65 25.45 7.1 25.9 9.65 28.25 8.1 23.95 L27.5 17.05 27.8 17.5 27.75 16.95 M-1.15 -19.3 L-2.65 -14.3 -11.3 -9.05 -11.5 -14.2 -8.55 -18.6 Q-8.3 -17.75 -7.7 -17.35 -5.3 -15.8 -5.25 -19.95 L-1.15 -19.3" fill="#333333" fill-rule="evenodd" stroke="none"/>
    <path d="M10.85 1.35 L10.8 6.15 14.3 7.4 Q18.8 4.25 20.95 -0.95 23.0 -5.9 23.15 -10.95 L23.8 3.85 25.55 10.6 23.6 10.4 21.55 3.4 9.85 11.3 7.1 17.1 6.65 24.55 6.6 24.55 4.15 19.3 4.5 25.4 3.15 27.3 1.8 26.55 3.55 19.95 1.0 12.6 -0.8 11.05 -5.3 10.55 -6.1 15.0 -4.4 19.6 -7.0 15.1 -10.1 24.3 -9.75 9.4 -10.25 7.8 -12.1 3.05 -14.25 -1.65 -20.5 20.95 -26.85 9.3 -25.85 -2.8 -27.85 -6.35 -23.85 -0.9 -24.75 2.4 -25.35 5.75 -25.4 7.5 -25.3 9.2 -25.3 9.3 Q-25.3 11.7 -24.5 13.5 -23.7 15.3 -22.5 15.35 -21.35 15.4 -20.45 13.7 -19.6 11.95 -19.65 9.4 L-19.55 7.6 Q-19.65 0.45 -21.65 -6.25 -24.1 -14.35 -18.6 -21.25 L-19.0 2.05 -14.1 -2.95 -12.65 -15.75 -8.45 -18.9 -8.55 -18.6 -11.5 -14.2 -11.3 -9.05 -2.65 -14.3 -1.15 -19.3 -0.75 -19.2 -1.5 -14.5 0.35 -10.45 -0.15 -10.65 -0.2 -9.7 -1.9 -12.6 -11.5 -6.55 -12.75 -3.8 -8.05 4.15 -3.9 -1.7 -7.2 5.1 -5.8 9.35 0.6 9.1 -2.4 -1.55 0.35 2.65 2.75 4.9 3.85 11.35 Q5.9 11.35 7.35 9.85 L7.9 9.15 Q8.75 7.85 8.75 6.15 L6.95 -3.85 7.8 -5.25 4.7 -12.85 7.85 -10.45 10.85 1.35 M23.1 -11.6 L21.8 -19.1 22.4 -18.55 23.0 -16.05 26.75 -20.05 23.1 -11.6 M-0.1 -9.5 L0.95 -4.8 6.1 -3.7 3.7 -2.7 0.4 -4.0 -0.5 -4.4 Q-1.75 -3.35 -2.4 -1.55 L-0.1 -9.5 M14.2 15.0 L14.0 11.35 17.65 17.5 14.2 15.0" fill="#006633" fill-rule="evenodd" stroke="none"/>
  </g>
</svg>
