<?xml version="1.0" encoding="UTF-8" standalone="no"?>
<svg xmlns:ffdec="https://www.free-decompiler.com/flash" xmlns:xlink="http://www.w3.org/1999/xlink" ffdec:objectType="shape" height="12.25px" width="16.55px" xmlns="http://www.w3.org/2000/svg">
  <g transform="matrix(1.0, 0.0, 0.0, 1.0, 7.35, 5.8)">
    <path d="M0.9 -1.4 L0.95 -1.9 1.0 -1.4 1.05 -1.25 2.7 -1.25 2.7 -1.85 2.85 -2.0 2.95 -1.25 3.2 -1.3 3.05 -1.6 3.05 -1.7 2.85 -2.05 2.7 -2.25 Q1.0 -2.05 -0.7 -2.3 L-3.5 -2.95 Q-4.85 -3.4 -5.9 -4.3 L-6.65 -5.1 -6.05 -3.6 -5.75 -3.25 -5.8 -3.95 -5.6 -3.1 -4.8 -2.7 -4.8 -3.25 -4.6 -2.55 -3.65 -2.2 -3.7 -2.7 -3.55 -2.6 -3.5 -2.15 -0.6 -1.35 0.6 -1.3 0.9 -1.25 0.9 -1.4 M3.35 -1.8 L3.35 -1.7 Q4.8 0.15 5.9 2.2 L6.25 3.05 6.45 3.55 6.65 3.8 6.95 4.1 7.85 4.25 8.35 4.05 8.4 4.05 8.45 4.0 8.75 3.9 9.15 3.75 9.2 4.2 8.5 4.95 7.9 5.4 7.25 4.55 7.1 4.45 6.2 6.1 5.25 6.4 2.95 6.2 Q1.85 5.9 0.9 5.3 L-0.4 4.35 -0.5 4.4 -1.4 4.2 -1.65 4.25 -3.35 4.2 -5.8 3.45 Q-6.75 2.95 -7.25 2.05 L-7.3 1.9 -7.3 1.7 -7.35 1.55 -7.25 1.0 -7.25 0.6 Q-7.55 -1.5 -6.7 -3.45 L-7.2 -5.45 -7.1 -5.7 -6.8 -5.8 -6.7 -5.7 -6.7 -5.55 -6.1 -4.7 -5.9 -4.5 Q-4.75 -3.7 -3.45 -3.25 L-1.5 -2.85 0.1 -2.7 2.9 -2.75 3.25 -1.9 3.35 -1.8 M3.35 -1.05 L3.3 -1.15 0.2 -1.15 -1.95 -1.45 -2.0 -1.2 -1.95 -1.0 -1.95 -0.65 -2.1 1.05 -2.1 1.55 -2.1 2.0 Q-1.15 3.05 0.3 3.15 L0.55 3.15 3.3 3.25 4.4 3.2 3.5 3.4 1.5 3.4 3.8 3.7 4.65 3.75 3.95 3.8 1.25 3.9 0.3 3.95 Q0.35 4.3 0.75 4.55 L1.3 4.9 Q2.6 5.75 4.2 6.0 L4.55 6.0 5.3 6.0 5.95 5.9 6.45 5.15 6.75 4.35 6.7 4.2 6.55 4.0 5.3 1.75 4.9 0.95 4.9 0.85 4.6 0.4 3.35 -1.05 M8.15 -3.85 L8.05 -4.25 7.8 -4.05 7.0 -3.35 7.35 -2.55 7.65 -2.7 7.7 -3.6 7.75 -2.75 8.1 -3.05 7.75 -2.55 7.75 -2.5 7.55 -2.45 7.4 -2.4 Q7.75 -1.55 8.5 -0.8 L8.4 -1.95 8.15 -3.85 M7.85 -4.5 L7.9 -4.8 8.2 -4.9 8.35 -4.6 Q8.4 -3.0 8.8 -1.4 L8.85 -0.25 7.6 -1.45 Q6.85 -2.4 6.75 -3.65 L7.85 -4.5 M8.45 4.6 L8.65 4.4 8.75 4.1 8.25 4.4 7.65 4.55 7.9 5.05 8.4 4.65 8.45 4.6 M-4.4 -2.35 Q-5.5 -2.7 -6.2 -3.45 L-6.3 -3.5 -6.45 -3.5 Q-7.15 -1.6 -6.9 0.45 L-6.9 0.75 -6.85 1.05 -7.0 1.25 Q-7.1 2.0 -6.55 2.55 L-6.2 2.9 Q-5.0 3.75 -3.5 3.95 L-0.95 3.9 -0.95 3.35 Q-2.3 3.05 -3.35 2.25 L-4.6 1.1 -3.0 2.05 -2.25 2.2 -2.3 1.65 -2.25 -0.45 -2.25 -1.25 -2.1 -1.4 -4.4 -2.35 M-2.2 -2.35 L-2.15 -1.75 -2.25 -1.8 -2.2 -2.35 M-0.6 -1.35 L-0.8 -1.4 -0.75 -2.05 -0.6 -1.35" fill="#313566" fill-rule="evenodd" stroke="none"/>
    <path d="M1.0 -1.4 L0.95 -1.9 0.9 -1.4 0.6 -1.3 -0.6 -1.35 -3.5 -2.15 -3.55 -2.6 -3.7 -2.7 -3.65 -2.2 -4.6 -2.55 -4.8 -3.25 -4.8 -2.7 -5.9 -4.3 Q-4.85 -3.4 -3.5 -2.95 L-0.7 -2.3 Q1.0 -2.05 2.7 -2.25 L2.85 -2.05 1.0 -1.4 M3.35 -1.05 L4.6 0.4 4.9 0.85 4.9 0.95 5.3 1.75 6.55 4.0 6.7 4.2 6.75 4.35 6.45 5.15 6.05 5.4 5.65 5.2 4.65 4.55 4.4 4.35 3.95 3.8 4.65 3.75 3.8 3.7 3.5 3.4 4.4 3.2 3.3 3.25 0.75 1.5 -0.4 0.6 1.05 0.2 Q2.25 -0.35 3.35 -1.05 M4.2 6.0 Q2.6 5.75 1.3 4.9 L0.75 4.55 Q0.35 4.3 0.3 3.95 L1.25 3.9 3.6 5.65 4.2 6.0 M0.55 3.15 L0.3 3.15 Q-1.15 3.05 -2.1 2.0 L-2.1 1.55 0.55 3.15 M-1.95 -0.65 L-1.95 -1.0 -2.0 -1.2 -1.95 -1.45 0.2 -1.15 -1.95 -0.65 M7.8 -4.05 L8.05 -4.25 8.15 -3.85 7.8 -4.05 M8.4 -1.95 L8.5 -0.8 Q7.75 -1.55 7.4 -2.4 L7.55 -2.45 8.4 -1.95 M-6.3 -3.5 Q-6.25 -2.95 -5.85 -2.55 L-3.75 -0.2 -5.85 0.35 -6.2 0.6 -6.3 0.75 -6.9 0.75 -6.9 0.45 Q-7.15 -1.6 -6.45 -3.5 L-6.3 -3.5 M-6.2 2.9 L-3.45 2.35 -3.35 2.25 Q-2.3 3.05 -0.95 3.35 L-0.95 3.9 -3.5 3.95 Q-5.0 3.75 -6.2 2.9 M-3.0 2.05 L-2.3 1.65 -2.25 2.2 -3.0 2.05 M-2.25 -0.45 L-4.4 -2.35 -2.1 -1.4 -2.25 -1.25 -2.25 -0.45 M-0.6 -1.35 L-0.75 -2.05 -0.8 -1.4 -0.6 -1.35 M-2.2 -2.35 L-2.25 -1.8 -2.15 -1.75 -2.2 -2.35" fill="#c7e9fa" fill-rule="evenodd" stroke="none"/>
    <path d="M0.9 -1.4 L0.9 -1.25 0.6 -1.3 0.9 -1.4 M-4.8 -2.7 L-5.6 -3.1 -5.8 -3.95 -5.75 -3.25 -6.05 -3.6 -6.65 -5.1 -5.9 -4.3 -4.8 -2.7 M2.85 -2.05 L3.05 -1.7 3.05 -1.6 3.2 -1.3 2.95 -1.25 2.85 -2.0 2.7 -1.85 2.7 -1.25 1.05 -1.25 1.0 -1.4 2.85 -2.05 M0.2 -1.15 L3.3 -1.15 3.35 -1.05 Q2.25 -0.35 1.05 0.2 L-0.4 0.6 0.75 1.5 3.3 3.25 0.55 3.15 -2.1 1.55 -2.1 1.05 -1.95 -0.65 0.2 -1.15 M6.45 5.15 L5.95 5.9 5.3 6.0 4.55 6.0 4.2 6.0 3.6 5.65 1.25 3.9 3.95 3.8 4.4 4.35 4.65 4.55 5.65 5.2 6.05 5.4 6.45 5.15 M3.8 3.7 L1.5 3.4 3.5 3.4 3.8 3.7 M7.8 -4.05 L8.15 -3.85 8.4 -1.95 7.55 -2.45 7.75 -2.5 7.75 -2.55 8.1 -3.05 7.75 -2.75 7.7 -3.6 7.65 -2.7 7.35 -2.55 7.0 -3.35 7.8 -4.05 M8.45 4.6 L8.4 4.65 7.9 5.05 7.65 4.55 8.25 4.4 8.75 4.1 8.65 4.4 8.45 4.6 M-6.3 -3.5 L-6.2 -3.45 Q-5.5 -2.7 -4.4 -2.35 L-2.25 -0.45 -2.3 1.65 -3.0 2.05 -4.6 1.1 -3.35 2.25 -3.45 2.35 -6.2 2.9 -6.55 2.55 Q-7.1 2.0 -7.0 1.25 L-6.85 1.05 -6.9 0.75 -6.3 0.75 -6.2 0.6 -5.85 0.35 -3.75 -0.2 -5.85 -2.55 Q-6.25 -2.95 -6.3 -3.5" fill="#85b3d3" fill-rule="evenodd" stroke="none"/>
  </g>
</svg>
