<?xml version="1.0" encoding="UTF-8" standalone="no"?>
<svg xmlns:ffdec="https://www.free-decompiler.com/flash" xmlns:xlink="http://www.w3.org/1999/xlink" ffdec:objectType="shape" height="19.95px" width="60.0px" xmlns="http://www.w3.org/2000/svg">
  <g transform="matrix(1.0, 0.0, 0.0, 1.0, 30.0, 9.95)">
    <path d="M8.2 -5.25 Q7.95 -5.3 7.9 -5.85 10.8 -4.3 8.2 -5.25 M15.45 -1.5 Q14.7 -2.0 15.35 -2.65 L15.85 -2.9 Q17.05 -2.6 16.4 -1.65 16.05 -1.1 15.45 -1.5 M17.45 0.65 Q18.8 0.9 18.1 2.15 17.55 3.1 16.65 2.4 16.15 2.05 16.35 1.45 L16.85 0.85 17.45 0.65 M6.3 0.7 Q6.0 -0.25 6.55 -0.95 L7.2 -1.3 7.4 -1.3 Q8.6 -0.95 8.2 0.25 L7.8 0.65 Q7.6 1.8 6.65 1.15 L6.3 0.7 M0.5 5.6 Q-0.15 6.55 -1.3 6.0 L-2.6 5.7 Q-3.15 5.65 -3.6 5.25 -4.65 4.3 -3.45 3.4 -3.0 3.1 -2.55 3.05 -0.25 3.15 0.55 5.2 L0.5 5.6 M7.55 5.05 Q7.1 5.75 6.5 5.15 5.9 4.6 6.4 4.0 6.65 3.65 7.1 3.7 8.2 4.05 7.55 5.05 M-24.2 -0.55 L-22.5 -1.2 Q-21.25 1.3 -24.0 -0.25 L-24.2 -0.55 M-9.85 -3.0 Q-12.0 -2.35 -12.85 -4.15 L-9.4 -5.15 Q-7.4 -3.75 -9.85 -3.0 M-17.65 -1.95 L-16.55 -1.15 Q-17.05 0.45 -17.65 -1.95 M-12.55 2.8 Q-12.95 3.65 -13.8 3.25 -14.45 2.95 -14.3 2.25 -14.15 1.45 -13.4 1.35 -12.05 1.55 -12.55 2.8 M-3.75 -0.45 Q-4.35 -1.3 -3.4 -1.65 L-3.25 -1.7 Q-1.65 -1.45 -1.5 0.05 L-1.75 0.5 Q-2.75 1.2 -3.4 0.15 L-3.75 -0.45 M-0.35 -5.8 Q-1.9 -6.2 -1.1 -7.65 L0.25 -7.5 Q3.0 -5.45 -0.35 -5.8" fill="#000000" fill-rule="evenodd" stroke="none"/>
    <path d="M8.2 -5.25 Q10.8 -4.3 7.9 -5.85 7.95 -5.3 8.2 -5.25 M17.45 0.65 L16.85 0.85 16.35 1.45 Q16.15 2.05 16.65 2.4 17.55 3.1 18.1 2.15 18.8 0.9 17.45 0.65 M15.45 -1.5 Q16.05 -1.1 16.4 -1.65 17.05 -2.6 15.85 -2.9 L15.35 -2.65 Q14.7 -2.0 15.45 -1.5 M6.3 0.7 L6.65 1.15 Q7.6 1.8 7.8 0.65 L8.2 0.25 Q8.6 -0.95 7.4 -1.3 L7.2 -1.3 6.55 -0.95 Q6.0 -0.25 6.3 0.7 M0.5 5.6 L0.55 5.2 Q-0.25 3.15 -2.55 3.05 -3.0 3.1 -3.45 3.4 -4.65 4.3 -3.6 5.25 -3.15 5.65 -2.6 5.7 L-1.3 6.0 Q-0.15 6.55 0.5 5.6 M7.55 5.05 Q8.2 4.05 7.1 3.7 6.65 3.65 6.4 4.0 5.9 4.6 6.5 5.15 7.1 5.75 7.55 5.05 M0.0 10.0 L-30.0 0.0 0.0 -9.95 30.0 0.0 0.0 10.0 M-0.35 -5.8 Q3.0 -5.45 0.25 -7.5 L-1.1 -7.65 Q-1.9 -6.2 -0.35 -5.8 M-3.75 -0.45 L-3.4 0.15 Q-2.75 1.2 -1.75 0.5 L-1.5 0.05 Q-1.65 -1.45 -3.25 -1.7 L-3.4 -1.65 Q-4.35 -1.3 -3.75 -0.45 M-12.55 2.8 Q-12.05 1.55 -13.4 1.35 -14.15 1.45 -14.3 2.25 -14.45 2.95 -13.8 3.25 -12.95 3.65 -12.55 2.8 M-17.65 -1.95 Q-17.05 0.45 -16.55 -1.15 L-17.65 -1.95 M-9.85 -3.0 Q-7.4 -3.75 -9.4 -5.15 L-12.85 -4.15 Q-12.0 -2.35 -9.85 -3.0 M-24.2 -0.55 L-24.0 -0.25 Q-21.25 1.3 -22.5 -1.2 L-24.2 -0.55" fill="#006600" fill-rule="evenodd" stroke="none"/>
  </g>
</svg>
