<?xml version="1.0" encoding="UTF-8" standalone="no"?>
<svg xmlns:ffdec="https://www.free-decompiler.com/flash" xmlns:xlink="http://www.w3.org/1999/xlink" ffdec:objectType="shape" height="19.95px" width="60.0px" xmlns="http://www.w3.org/2000/svg">
  <g transform="matrix(1.0, 0.0, 0.0, 1.0, 30.0, 10.0)">
    <path d="M12.25 3.5 L11.95 2.95 Q11.95 2.65 12.25 2.45 12.5 2.2 12.9 2.2 13.3 2.2 13.6 2.45 L13.85 2.95 13.6 3.5 12.9 3.7 12.25 3.5 M16.45 -2.9 Q17.0 -2.55 17.0 -2.0 17.0 -1.45 16.45 -1.05 15.85 -0.7 15.05 -0.7 14.25 -0.7 13.7 -1.05 13.1 -1.45 13.1 -2.0 13.1 -2.55 13.7 -2.9 14.25 -3.3 15.05 -3.3 15.85 -3.3 16.45 -2.9 M3.5 4.15 Q3.5 4.6 2.9 4.9 L1.4 5.2 -0.05 4.9 Q-0.7 4.6 -0.7 4.15 -0.7 3.7 -0.05 3.4 L1.4 3.1 2.9 3.4 Q3.5 3.7 3.5 4.15 M4.9 1.55 L4.5 1.0 Q4.5 0.7 4.9 0.5 5.25 0.25 5.75 0.25 L6.65 0.5 7.0 1.0 6.65 1.55 5.75 1.75 4.9 1.55 M6.7 -5.4 L6.9 -5.0 6.7 -4.6 6.2 -4.45 5.7 -4.6 5.5 -5.0 5.7 -5.4 6.2 -5.55 6.7 -5.4 M-5.7 4.6 L-5.4 3.9 Q-5.1 3.6 -4.7 3.6 -4.3 3.6 -4.0 3.9 -3.7 4.2 -3.7 4.6 -3.7 5.0 -4.0 5.3 -4.3 5.6 -4.7 5.6 L-5.4 5.3 -5.7 4.6 M-5.35 1.05 L-6.45 0.75 -6.9 -0.05 -6.45 -0.8 Q-6.0 -1.15 -5.35 -1.15 -4.7 -1.15 -4.25 -0.8 -3.8 -0.5 -3.8 -0.05 -3.8 0.4 -4.25 0.75 L-5.35 1.05 M-1.25 -6.15 Q-0.65 -5.85 -0.65 -5.4 -0.65 -4.95 -1.25 -4.65 L-2.75 -4.35 Q-3.6 -4.35 -4.2 -4.65 -4.85 -4.95 -4.85 -5.4 L-4.2 -6.15 -2.75 -6.45 -1.25 -6.15 M-13.95 -2.5 L-14.55 -2.35 -15.15 -2.5 -15.4 -2.95 -15.15 -3.35 -14.55 -3.55 -13.95 -3.35 -13.7 -2.95 -13.95 -2.5 M-21.65 0.4 Q-24.4 1.0 -24.4 -1.05 L-24.0 -1.3 Q-21.35 -2.45 -21.0 -0.25 -20.95 0.25 -21.65 0.4" fill="#56fe84" fill-rule="evenodd" stroke="none"/>
    <path d="M6.7 -5.4 L6.2 -5.55 5.7 -5.4 5.5 -5.0 5.7 -4.6 6.2 -4.45 6.7 -4.6 6.9 -5.0 6.7 -5.4 M4.9 1.55 L5.75 1.75 6.65 1.55 7.0 1.0 6.65 0.5 5.75 0.25 Q5.25 0.25 4.9 0.5 4.5 0.7 4.5 1.0 L4.9 1.55 M3.5 4.15 Q3.5 3.7 2.9 3.4 L1.4 3.1 -0.05 3.4 Q-0.7 3.7 -0.7 4.15 -0.7 4.6 -0.05 4.9 L1.4 5.2 2.9 4.9 Q3.5 4.6 3.5 4.15 M16.45 -2.9 Q15.85 -3.3 15.05 -3.3 14.25 -3.3 13.7 -2.9 13.1 -2.55 13.1 -2.0 13.1 -1.45 13.7 -1.05 14.25 -0.7 15.05 -0.7 15.85 -0.7 16.45 -1.05 17.0 -1.45 17.0 -2.0 17.0 -2.55 16.45 -2.9 M12.25 3.5 L12.9 3.7 13.6 3.5 13.85 2.95 13.6 2.45 Q13.3 2.2 12.9 2.2 12.5 2.2 12.25 2.45 11.95 2.65 11.95 2.95 L12.25 3.5 M30.0 -0.05 L0.0 9.95 -30.0 -0.05 0.0 -10.0 30.0 -0.05 M-21.65 0.4 Q-20.95 0.25 -21.0 -0.25 -21.35 -2.45 -24.0 -1.3 L-24.4 -1.05 Q-24.4 1.0 -21.65 0.4 M-13.95 -2.5 L-13.7 -2.95 -13.95 -3.35 -14.55 -3.55 -15.15 -3.35 -15.4 -2.95 -15.15 -2.5 -14.55 -2.35 -13.95 -2.5 M-1.25 -6.15 L-2.75 -6.45 -4.2 -6.15 -4.85 -5.4 Q-4.85 -4.95 -4.2 -4.65 -3.6 -4.35 -2.75 -4.35 L-1.25 -4.65 Q-0.65 -4.95 -0.65 -5.4 -0.65 -5.85 -1.25 -6.15 M-5.35 1.05 L-4.25 0.75 Q-3.8 0.4 -3.8 -0.05 -3.8 -0.5 -4.25 -0.8 -4.7 -1.15 -5.35 -1.15 -6.0 -1.15 -6.45 -0.8 L-6.9 -0.05 -6.45 0.75 -5.35 1.05 M-5.7 4.6 L-5.4 5.3 -4.7 5.6 Q-4.3 5.6 -4.0 5.3 -3.7 5.0 -3.7 4.6 -3.7 4.2 -4.0 3.9 -4.3 3.6 -4.7 3.6 -5.1 3.6 -5.4 3.9 L-5.7 4.6" fill="#009933" fill-rule="evenodd" stroke="none"/>
  </g>
</svg>
