<?xml version="1.0" encoding="UTF-8" standalone="no"?>
<svg xmlns:ffdec="https://www.free-decompiler.com/flash" xmlns:xlink="http://www.w3.org/1999/xlink" ffdec:objectType="shape" height="39.6px" width="25.35px" xmlns="http://www.w3.org/2000/svg">
  <g transform="matrix(1.0, 0.0, 0.0, 1.0, 12.7, 19.8)">
    <path d="M-11.85 -11.15 L-12.7 -13.5 -11.35 -15.5 -1.15 -9.7 3.65 -11.15 3.5 -9.95 1.35 -10.25 -0.5 6.85 -0.7 3.2 -1.3 7.45 Q-1.8 11.5 -4.8 10.75 -5.15 10.75 -5.2 9.65 -4.85 8.9 -5.05 8.6 L-5.95 8.5 -4.7 0.05 -2.4 4.95 -6.3 -8.1 -11.85 -11.15 M10.55 -1.6 L6.05 0.15 9.75 -4.95 10.55 -1.6 M5.85 0.35 L5.3 1.55 5.2 -0.4 3.45 2.95 6.1 -4.65 5.85 0.35 M-6.75 17.95 L-7.1 17.8 -7.0 17.75 -6.75 17.95 M10.15 -11.65 Q10.5 -10.8 10.5 -9.6 10.5 -8.4 10.15 -7.55 9.75 -6.7 9.2 -6.7 8.65 -6.7 8.3 -7.55 7.9 -8.4 7.9 -9.6 7.9 -10.8 8.3 -11.65 8.65 -12.5 9.2 -12.5 9.75 -12.5 10.15 -11.65 M5.0 -11.3 L5.8 -12.05 Q7.8 -8.5 4.9 -9.95 L5.0 -11.3 M-6.65 14.3 L-4.75 12.7 -6.15 16.45 -6.65 14.3 M3.8 -5.0 L3.5 -3.5 Q3.2 -2.9 2.8 -2.9 2.4 -2.9 2.1 -3.5 1.8 -4.15 1.8 -5.0 1.8 -5.85 2.1 -6.45 2.4 -7.1 2.8 -7.1 L3.5 -6.45 3.8 -5.0 M1.6 11.1 L1.4 10.75 1.3 9.9 1.4 9.05 1.6 8.7 1.8 9.05 1.9 9.9 1.8 10.75 1.6 11.1 M0.55 16.8 L0.4 16.5 Q-1.15 14.4 -2.25 17.15 L0.05 10.4 0.55 16.8 M4.5 16.75 L4.45 13.9 6.35 16.7 4.5 16.75 M-3.3 13.05 Q-2.05 14.9 -3.6 14.15 L-3.3 13.05" fill="#666666" fill-rule="evenodd" stroke="none"/>
    <path d="M-4.7 0.05 L-9.0 -3.4 -11.85 -11.15 -6.3 -8.1 -2.4 4.95 -4.7 0.05 M5.3 1.55 L4.9 2.45 Q4.1 3.5 3.4 3.75 L3.45 2.95 5.2 -0.4 5.3 1.55 M9.3 14.9 Q9.3 16.65 7.5 17.9 5.65 19.15 3.05 19.15 L4.5 16.75 6.35 16.7 9.3 14.9 M0.35 19.8 L-3.75 19.3 -2.25 17.15 Q-1.15 14.4 0.4 16.5 L0.55 16.8 0.35 19.8 M-5.65 18.15 L-6.75 17.95 -7.0 17.75 -7.1 17.8 -11.7 16.75 -5.95 8.5 -5.05 8.6 Q-4.85 8.9 -5.2 9.65 L-6.65 14.3 -6.15 16.45 -5.65 18.15 M4.9 -9.95 L4.1 -9.45 3.5 -9.95 3.65 -11.15 4.45 -11.65 5.0 -11.3 4.9 -9.95 M-0.5 6.85 L-1.3 7.45 -0.7 3.2 -0.5 6.85" fill="#333333" fill-rule="evenodd" stroke="none"/>
    <path d="M-11.35 -15.5 Q-6.2 -19.15 0.4 -19.7 5.5 -20.2 10.0 -17.6 13.45 -15.65 12.4 -11.8 L12.0 -1.7 10.55 -1.6 9.75 -4.95 6.05 0.15 5.85 0.35 6.1 -4.65 3.45 2.95 3.4 3.75 Q4.1 3.5 4.9 2.45 L4.1 6.05 9.3 14.9 6.35 16.7 4.45 13.9 4.5 16.75 3.05 19.15 0.35 19.8 0.55 16.8 0.05 10.4 -2.25 17.15 -3.75 19.3 -5.65 18.15 -6.15 16.45 -4.75 12.7 -6.65 14.3 -5.2 9.65 Q-5.15 10.75 -4.8 10.75 -1.8 11.5 -1.3 7.45 L-0.5 6.85 1.35 -10.25 3.5 -9.95 4.1 -9.45 4.9 -9.95 Q7.8 -8.5 5.8 -12.05 L5.0 -11.3 4.45 -11.65 3.65 -11.15 -1.15 -9.7 -11.35 -15.5 M10.15 -11.65 Q9.75 -12.5 9.2 -12.5 8.65 -12.5 8.3 -11.65 7.9 -10.8 7.9 -9.6 7.9 -8.4 8.3 -7.55 8.65 -6.7 9.2 -6.7 9.75 -6.7 10.15 -7.55 10.5 -8.4 10.5 -9.6 10.5 -10.8 10.15 -11.65 M3.8 -5.0 L3.5 -6.45 2.8 -7.1 Q2.4 -7.1 2.1 -6.45 1.8 -5.85 1.8 -5.0 1.8 -4.15 2.1 -3.5 2.4 -2.9 2.8 -2.9 3.2 -2.9 3.5 -3.5 L3.8 -5.0 M1.6 11.1 L1.8 10.75 1.9 9.9 1.8 9.05 1.6 8.7 1.4 9.05 1.3 9.9 1.4 10.75 1.6 11.1 M-3.3 13.05 L-3.6 14.15 Q-2.05 14.9 -3.3 13.05" fill="#999999" fill-rule="evenodd" stroke="none"/>
  </g>
</svg>
