<?xml version="1.0" encoding="UTF-8" standalone="no"?>
<svg xmlns:ffdec="https://www.free-decompiler.com/flash" xmlns:xlink="http://www.w3.org/1999/xlink" ffdec:objectType="shape" height="48.1px" width="46.1px" xmlns="http://www.w3.org/2000/svg">
  <g transform="matrix(1.0, 0.0, 0.0, 1.0, 22.9, 27.65)">
    <path d="M5.75 -8.5 L5.85 -8.55 -0.15 -27.05 -20.45 -20.75 -14.6 -2.05 -6.1 -4.75 -5.6 -4.9 -5.1 -5.05 -3.1 -5.65 -1.3 -6.2 -0.15 -6.55 0.05 -6.65 0.95 -6.9 3.2 -7.5 5.2 -8.1 5.75 -8.5 M6.2 -8.0 L6.35 -7.95 10.45 -6.7 18.45 -4.0 23.1 -2.1 23.15 -1.8 23.2 13.6 2.95 20.45 -15.2 14.4 -15.1 -1.3 -17.15 -2.05 -18.0 -2.6 Q-20.25 -4.25 -21.3 -6.9 L-22.2 -9.6 -22.6 -11.45 -22.85 -13.7 -22.85 -14.2 Q-22.9 -16.3 -22.2 -18.25 L-21.35 -20.35 -21.35 -20.4 -20.95 -21.0 -20.7 -21.05 -0.4 -27.65 0.1 -27.4 6.25 -8.5 6.3 -8.45 6.15 -8.35 6.1 -8.3 6.2 -8.0 M5.35 -7.55 L-7.2 -3.95 -14.0 -1.9 -14.05 -1.9 -14.1 -1.9 -14.15 -1.85 -14.15 -1.7 -14.1 -1.65 -14.05 -1.65 -14.1 -1.6 3.1 3.95 22.1 -1.9 22.25 -2.05 10.9 -6.2 8.3 -7.15 6.3 -7.6 5.35 -7.55 M13.65 -0.4 L3.3 2.9 -11.4 -1.55 -11.4 -1.75 Q-7.8 -3.25 -3.85 -4.2 L5.45 -6.75 5.9 -6.8 9.55 -5.85 Q14.2 -4.25 18.8 -2.25 L19.1 -2.15 14.65 -0.75 14.75 -1.95 15.0 -0.95 18.0 -1.95 18.25 -2.1 6.55 -6.25 6.75 0.0 9.3 0.85 10.7 0.45 10.7 -1.55 10.7 -1.6 10.7 -1.75 7.6 -2.8 7.5 -2.7 6.7 -3.35 6.7 -3.4 7.45 -3.0 10.75 -2.05 10.95 -4.5 10.95 -1.95 13.8 -0.95 11.05 -1.55 10.85 0.4 13.65 -0.4 M2.1 -4.6 L2.2 -2.35 6.0 -3.35 -2.75 -0.8 -2.75 0.1 -2.8 -0.8 -4.5 -0.35 -2.8 -0.9 -2.9 -2.1 -2.75 -2.15 -2.75 -0.95 2.1 -2.35 2.1 -4.6 M0.0 -11.8 Q1.1 -10.35 2.65 -9.7 L2.7 -9.7 3.95 -9.7 4.4 -9.65 -0.75 -25.7 -1.55 -23.55 -1.75 -18.8 -1.45 -15.65 Q-1.15 -13.5 0.0 -11.8 M6.35 -6.3 L6.2 -6.35 1.2 -5.1 1.1 -5.0 -10.95 -1.55 -10.15 -1.25 2.25 2.45 2.1 1.15 0.3 1.5 0.1 1.3 0.3 1.4 2.1 0.85 2.2 -1.7 2.45 0.1 2.45 0.75 6.2 -0.15 2.6 0.95 3.1 2.55 6.2 1.75 6.35 -6.3 M22.2 4.7 L22.15 3.3 22.1 -1.15 3.5 4.7 3.55 19.1 7.65 17.7 10.55 16.8 10.6 17.05 10.7 16.95 11.0 16.6 13.85 15.65 22.25 13.0 22.2 7.7 22.2 4.7 M21.1 4.7 L21.1 6.35 21.15 9.15 21.2 10.85 20.1 12.25 17.35 13.1 13.75 14.2 11.0 15.05 6.2 16.8 5.7 16.5 5.65 16.05 6.45 16.3 19.8 11.85 20.7 10.75 20.6 2.5 20.1 1.95 17.65 3.0 17.3 3.7 16.7 4.9 16.0 6.95 14.95 7.75 13.05 7.7 12.7 6.45 10.55 5.8 10.25 4.65 6.25 6.0 6.05 6.65 5.9 7.3 6.1 5.7 10.5 4.4 10.95 5.6 12.85 5.75 14.05 7.2 15.3 6.95 Q15.5 6.05 16.05 5.4 L17.15 3.3 17.4 2.55 20.05 1.35 21.1 2.45 21.1 4.7 M14.45 6.0 L13.2 3.9 13.4 2.9 14.15 2.4 15.2 3.0 14.45 6.0 M8.9 1.0 L6.75 0.2 6.9 1.6 8.9 1.0 M1.0 18.8 L2.45 19.05 2.55 5.0 2.2 4.8 -10.05 1.0 -13.85 -0.15 -13.95 -0.25 -14.65 -0.4 -14.8 2.75 -14.8 3.15 -14.75 3.9 -14.75 4.05 -13.95 6.2 -13.35 7.15 -13.2 7.5 -13.15 7.6 -12.95 7.45 -12.95 6.4 -12.95 5.45 -12.95 5.3 -12.95 4.25 -12.95 3.7 -12.95 3.1 -12.95 2.95 -12.85 2.1 0.75 6.65 0.4 16.7 -0.85 16.3 -9.35 13.6 Q-7.55 15.75 -5.15 16.85 -2.3 18.2 1.0 18.8 M0.35 7.55 L0.25 6.85 -12.45 2.8 -12.45 3.1 -12.45 3.15 -12.45 3.55 -12.45 3.7 -12.35 12.4 0.35 16.1 0.35 7.55 M-21.0 -15.65 Q-21.6 -10.9 -18.8 -7.05 L-17.15 -5.15 -17.1 -5.2 -20.95 -15.85 -21.0 -15.65 M-21.1 -16.15 L-20.25 -14.55 -18.65 -10.1 -16.8 -4.9 -17.3 -5.0 Q-19.35 -6.05 -20.25 -8.3 -21.6 -11.55 -21.25 -15.05 L-21.15 -16.0 -21.1 -16.15 M-21.8 -15.55 Q-22.15 -13.45 -21.95 -11.25 -21.65 -7.6 -19.2 -4.9 -17.5 -2.95 -15.3 -2.5 L-15.3 -2.6 -21.0 -18.9 Q-21.6 -17.3 -21.8 -15.55 M-18.0 -16.15 L-12.4 -17.75 -11.3 -22.5 -12.0 -17.95 -7.3 -19.85 -6.1 -23.85 -6.2 -22.9 -6.75 -14.35 -1.8 -14.8 -2.3 -20.4 -5.9 -20.2 -2.4 -21.2 -1.15 -25.45 -14.05 -21.75 -0.65 -26.0 4.8 -9.0 -13.65 -3.15 -14.0 -3.45 -14.95 -6.6 -14.85 -6.4 -14.5 -6.55 -14.25 -6.8 -14.35 -7.25 -15.9 -9.65 -16.35 -11.0 -16.8 -16.0 -17.85 -15.65 -18.0 -16.15 M-15.9 -21.15 L-16.2 -19.95 -17.2 -20.7 -15.9 -21.15 M-18.4 -20.35 L-18.65 -20.2 -19.05 -19.55 -18.85 -20.1 -18.4 -20.35 M-1.75 -14.55 L-3.65 -14.2 -6.1 -13.1 -4.25 -9.9 -0.35 -11.3 -1.75 -14.55 M-7.05 -13.8 L-7.3 -19.5 -12.15 -17.7 -11.55 -12.3 -7.05 -13.8 M-12.35 -17.7 L-16.6 -16.05 -16.0 -10.65 -15.25 -10.8 -14.1 -11.15 -11.9 -12.2 -12.35 -17.7 M-14.75 -6.25 L-13.9 -3.7 -12.0 -4.1 -13.95 -6.45 -14.75 -6.25 M-9.65 -8.35 L-4.65 -9.8 -6.95 -13.4 -11.4 -11.8 -9.65 -8.35 M-4.0 -9.75 L-3.0 -8.6 -1.55 -7.75 3.15 -9.25 -0.05 -10.95 -4.0 -9.75 M-10.15 -7.95 L-11.45 -11.75 -15.8 -10.2 -13.7 -6.95 -10.15 -7.95 -13.15 -6.7 -11.5 -4.4 -7.15 -5.9 -8.7 -7.3 -6.55 -6.05 -2.4 -7.35 -4.55 -9.6 -9.45 -8.1 -8.7 -7.3 -9.6 -8.1 -10.15 -7.95 M-12.2 12.65 L-10.2 15.5 -9.25 15.75 -10.65 13.15 -12.2 12.6 -12.2 12.65 M-14.8 7.6 L-13.25 10.6 -13.65 8.85 -14.85 5.65 -14.8 7.6" fill="#000000" fill-rule="evenodd" stroke="none"/>
    <path d="M17.3 3.7 L17.65 3.0 20.1 1.95 20.6 2.5 20.7 10.75 19.8 11.85 19.5 11.0 19.75 10.65 20.05 3.1 17.3 3.7 M6.05 6.65 L6.25 6.0 10.25 4.65 10.55 5.8 12.7 6.45 13.05 7.7 14.95 7.75 14.6 8.25 12.95 8.15 12.15 7.6 12.1 6.9 10.45 6.6 10.15 5.65 6.05 6.65 M0.35 7.55 L0.35 16.1 -12.35 12.4 -12.45 3.7 -12.45 3.55 -12.45 3.15 -12.45 3.1 -12.45 2.8 0.25 6.85 0.35 7.55 M-21.0 -15.65 L-20.95 -15.85 -17.1 -5.2 -17.15 -5.15 -18.8 -7.05 Q-21.6 -10.9 -21.0 -15.65" fill="#990000" fill-rule="evenodd" stroke="none"/>
    <path d="M-10.05 1.0 L2.2 4.8 2.55 5.0 2.45 19.05 1.0 18.8 -0.85 16.3 0.4 16.7 0.75 6.65 0.65 6.2 -9.25 2.5 -10.05 1.0 M-21.8 -15.55 Q-21.6 -17.3 -21.0 -18.9 L-15.3 -2.6 -15.3 -2.5 Q-17.5 -2.95 -19.2 -4.9 -21.65 -7.6 -21.95 -11.25 -22.15 -13.45 -21.8 -15.55 M-21.1 -16.15 L-21.15 -16.0 -21.25 -15.05 Q-21.6 -11.55 -20.25 -8.3 -19.35 -6.05 -17.3 -5.0 L-16.8 -4.9 -18.65 -10.1 -20.25 -14.55 -21.1 -16.15" fill="#c6c502" fill-rule="evenodd" stroke="none"/>
    <path d="M13.65 -0.4 L10.85 0.4 11.05 -1.55 13.8 -0.95 10.95 -1.95 10.95 -4.5 10.75 -2.05 7.45 -3.0 6.7 -3.4 6.7 -3.35 7.5 -2.7 7.6 -2.8 10.7 -1.75 10.7 -1.6 10.7 -1.55 10.7 0.45 9.3 0.85 6.75 0.0 6.55 -6.25 18.25 -2.1 18.0 -1.95 15.0 -0.95 14.75 -1.95 14.65 -0.75 14.65 -0.7 13.65 -0.4 M6.35 -6.3 L6.2 1.75 3.1 2.55 2.6 0.95 6.2 -0.15 2.45 0.75 2.45 0.1 2.2 -1.7 2.1 0.85 0.3 1.4 0.1 1.3 0.3 1.5 2.1 1.15 2.25 2.45 -10.15 -1.25 -10.95 -1.55 1.1 -5.0 1.2 -5.1 6.2 -6.35 6.35 -6.3 M0.0 -11.8 Q-1.15 -13.5 -1.45 -15.65 L-1.75 -18.8 -1.55 -23.55 -0.75 -25.7 4.4 -9.65 3.95 -9.7 2.7 -9.7 2.65 -9.7 Q1.1 -10.35 0.0 -11.8 M2.1 -4.6 L2.1 -2.35 -2.75 -0.95 -2.75 -2.15 -2.9 -2.1 -2.8 -0.9 -4.5 -0.35 -2.8 -0.8 -2.75 0.1 -2.75 -0.8 6.0 -3.35 2.2 -2.35 2.1 -4.6 M8.9 1.0 L6.9 1.6 6.75 0.2 8.9 1.0 M-14.05 -21.75 L-1.15 -25.45 -2.4 -21.2 -5.9 -20.2 -2.3 -20.4 -1.8 -14.8 -6.75 -14.35 -6.2 -22.9 -6.1 -23.85 -7.3 -19.85 -12.0 -17.95 -11.3 -22.5 -12.4 -17.75 -18.0 -16.15 -19.05 -19.55 -18.65 -20.2 -18.4 -20.35 -17.2 -20.7 -16.2 -19.95 -15.9 -21.15 -14.05 -21.75 M-17.85 -15.65 L-16.8 -16.0 -16.35 -11.0 -17.85 -15.65 M-7.05 -13.8 L-11.55 -12.3 -12.15 -17.7 -7.3 -19.5 -7.05 -13.8 M-12.35 -17.7 L-11.9 -12.2 -14.1 -11.15 -15.25 -10.8 -16.0 -10.65 -16.6 -16.05 -12.35 -17.7" fill="#cccccc" fill-rule="evenodd" stroke="none"/>
    <path d="M5.1 -10.2 L5.2 -10.45 4.95 -10.65 5.1 -10.2 M5.75 -8.5 L5.2 -8.1 3.2 -7.5 0.95 -6.9 0.05 -6.65 -0.15 -6.55 -1.3 -6.2 -3.1 -5.65 -5.1 -5.05 -5.6 -4.9 -6.1 -4.75 -14.6 -2.05 -20.45 -20.75 -0.15 -27.05 5.85 -8.55 5.75 -8.5 M5.35 -7.55 L6.3 -7.6 8.3 -7.15 10.9 -6.2 22.25 -2.05 22.1 -1.9 3.1 3.95 -14.1 -1.6 -14.05 -1.65 -14.1 -1.65 -14.15 -1.7 -14.15 -1.85 -14.1 -1.9 -14.05 -1.9 -14.0 -1.9 -7.2 -3.95 5.35 -7.55 M14.65 -0.75 L19.1 -2.15 18.8 -2.25 Q14.2 -4.25 9.55 -5.85 L5.9 -6.8 5.45 -6.75 -3.85 -4.2 Q-7.8 -3.25 -11.4 -1.75 L-11.4 -1.55 3.3 2.9 13.65 -0.4 14.65 -0.7 14.65 -0.75 M-18.0 -16.15 L-17.85 -15.65 -16.35 -11.0 -15.9 -9.65 -14.35 -7.25 -14.25 -6.8 -14.5 -6.55 -14.85 -6.4 -14.95 -6.6 -14.0 -3.45 -13.65 -3.15 4.8 -9.0 -0.65 -26.0 -14.05 -21.75 -15.9 -21.15 -17.2 -20.7 -18.4 -20.35 -18.85 -20.1 -19.05 -19.55 -18.0 -16.15 M-1.75 -14.55 L-0.35 -11.3 -4.25 -9.9 -6.1 -13.1 -3.65 -14.2 -1.75 -14.55 M-14.75 -6.25 L-13.95 -6.45 -12.0 -4.1 -13.9 -3.7 -14.75 -6.25 M-10.15 -7.95 L-9.6 -8.1 -8.7 -7.3 -9.45 -8.1 -4.55 -9.6 -2.4 -7.35 -6.55 -6.05 -8.7 -7.3 -7.15 -5.9 -11.5 -4.4 -13.15 -6.7 -10.15 -7.95 -13.7 -6.95 -15.8 -10.2 -11.45 -11.75 -10.15 -7.95 M-4.0 -9.75 L-0.05 -10.95 3.15 -9.25 -1.55 -7.75 -3.0 -8.6 -4.0 -9.75 M-9.65 -8.35 L-11.4 -11.8 -6.95 -13.4 -4.65 -9.8 -9.65 -8.35" fill="#ffffff" fill-rule="evenodd" stroke="none"/>
    <path d="M22.15 3.3 L22.2 4.7 21.1 6.35 21.1 4.7 22.15 3.3 M22.2 7.7 L22.25 13.0 13.85 15.65 17.35 13.1 20.1 12.25 21.2 10.85 21.15 9.15 22.2 7.7 M11.0 16.6 L10.7 16.95 10.6 17.05 10.55 16.8 7.65 17.7 11.0 15.05 13.75 14.2 11.0 16.6 M1.0 18.8 Q-2.3 18.2 -5.15 16.85 -7.55 15.75 -9.35 13.6 L-0.85 16.3 1.0 18.8 M0.75 6.65 L-12.85 2.1 -12.95 2.95 -12.95 3.1 -12.95 3.7 -12.95 4.25 -12.95 5.3 -12.95 5.45 -12.95 6.4 -12.95 7.45 -13.15 7.6 -13.2 7.5 -13.35 7.15 -13.95 6.2 -14.75 4.05 -14.75 3.9 -14.8 3.15 -14.8 2.75 -14.65 -0.4 -13.95 -0.25 -13.85 -0.15 -10.05 1.0 -9.25 2.5 0.65 6.2 0.75 6.65 M-14.8 7.6 L-14.85 5.65 -13.65 8.85 -13.25 10.6 -14.8 7.6 M-12.2 12.65 L-12.2 12.6 -10.65 13.15 -9.25 15.75 -10.2 15.5 -12.2 12.65" fill="#828102" fill-rule="evenodd" stroke="none"/>
    <path d="M22.15 3.3 L21.1 4.7 21.1 2.45 20.05 1.35 17.4 2.55 17.15 3.3 16.05 5.4 Q15.5 6.05 15.3 6.95 L14.05 7.2 12.85 5.75 10.95 5.6 10.5 4.4 6.1 5.7 5.9 7.3 5.55 7.6 5.5 8.55 5.55 8.85 5.5 9.4 5.5 11.5 5.55 13.55 5.55 14.1 5.55 14.85 5.65 15.85 5.65 16.05 5.7 16.5 6.2 16.8 11.0 15.05 7.65 17.7 3.55 19.1 3.5 4.7 22.1 -1.15 22.15 3.3 M21.1 6.35 L22.2 4.7 22.2 7.7 21.15 9.15 21.1 6.35 M13.85 15.65 L11.0 16.6 13.75 14.2 17.35 13.1 13.85 15.65 M14.45 6.0 L15.2 3.0 14.15 2.4 13.4 2.9 13.2 3.9 14.45 6.0" fill="#fcfc1b" fill-rule="evenodd" stroke="none"/>
    <path d="M17.3 3.7 L20.05 3.1 19.75 10.65 19.5 11.0 19.8 11.85 6.45 16.3 5.65 16.05 5.65 15.85 5.55 14.85 5.55 14.1 5.55 13.55 5.5 11.5 5.5 9.4 5.55 8.85 5.5 8.55 5.55 7.6 5.9 7.3 6.05 6.65 10.15 5.65 10.45 6.6 12.1 6.9 12.15 7.6 12.95 8.15 14.6 8.25 14.95 7.75 16.0 6.95 16.7 4.9 17.3 3.7" fill="#ff0000" fill-rule="evenodd" stroke="none"/>
  </g>
</svg>
