<?xml version="1.0" encoding="UTF-8" standalone="no"?>
<svg xmlns:ffdec="https://www.free-decompiler.com/flash" xmlns:xlink="http://www.w3.org/1999/xlink" ffdec:objectType="shape" height="32.1px" width="38.4px" xmlns="http://www.w3.org/2000/svg">
  <g transform="matrix(1.0, 0.0, 0.0, 1.0, 19.25, 16.65)">
    <path d="M-2.0 -4.35 L-3.8 -7.1 Q-7.4 -11.7 -13.25 -11.0 L-13.4 -11.05 -8.95 -12.3 -8.9 -12.3 -7.75 -12.15 -6.4 -11.7 Q-1.65 -9.25 0.4 -4.2 L0.9 -4.1 1.35 -4.25 2.0 -4.45 2.85 -4.7 3.5 -4.9 4.95 -5.3 5.25 -5.35 5.9 -5.6 6.05 -6.7 7.15 -7.45 6.8 -8.55 7.1 -9.3 8.4 -9.15 9.55 -8.9 10.3 -8.45 12.2 -8.3 12.7 -7.8 13.2 -8.0 13.85 -8.25 14.55 -8.45 15.35 -8.7 15.4 -8.8 15.5 -9.45 Q12.45 -14.05 7.2 -15.65 L5.8 -15.95 2.95 -16.1 2.65 -16.15 3.4 -16.3 Q4.95 -16.7 6.6 -16.35 9.5 -15.75 12.2 -14.5 16.4 -12.6 17.9 -8.3 L17.95 -8.15 17.95 -8.0 17.95 -7.6 17.6 -7.4 -0.7 -1.3 -0.75 -1.25 -0.95 -1.4 -1.0 -1.7 -1.95 -4.25 -2.0 -4.35 M9.15 -1.15 L9.85 -0.5 10.4 0.95 10.65 -0.65 10.95 -1.35 11.15 -2.05 10.9 -2.3 10.1 -2.65 9.35 -2.1 9.15 -1.15 M8.25 -6.85 L7.75 -6.65 7.55 -6.0 7.85 -5.4 8.1 -5.6 8.3 -6.0 8.45 -5.95 8.7 -6.1 8.6 -6.3 8.25 -6.85 M9.2 -8.3 L8.9 -8.4 8.65 -8.25 8.5 -7.9 Q8.5 -7.7 8.65 -7.55 8.75 -7.4 8.95 -7.45 9.1 -7.45 9.2 -7.6 L9.3 -7.95 9.2 -8.3 M11.15 -7.3 L10.25 -7.5 10.25 -6.75 11.35 -6.45 11.15 -7.3 M17.05 -0.3 L17.05 -2.55 16.0 -3.7 13.35 -2.45 13.3 -2.35 Q13.0 -1.0 11.9 -0.05 L11.75 0.15 11.25 1.9 10.0 2.15 9.9 2.2 8.8 0.75 6.9 0.55 6.45 -0.65 2.05 0.7 1.85 2.3 1.5 2.6 1.4 10.95 1.45 11.4 2.15 11.85 6.95 10.1 3.6 12.75 -0.5 14.1 -0.55 -0.35 18.05 -6.15 18.1 -1.65 17.05 -0.3 M9.75 9.25 L13.35 8.1 9.85 10.7 7.0 11.65 9.75 9.25 M17.1 4.15 L17.1 1.35 17.35 1.1 18.1 -0.2 18.15 2.75 17.1 4.15" fill="#fcfc1b" fill-rule="evenodd" stroke="none"/>
    <path d="M-5.2 -11.7 L-5.1 -11.6 Q-1.25 -9.05 0.45 -4.7 L1.25 -4.65 Q3.3 -4.95 5.2 -5.75 L5.8 -7.2 6.7 -7.75 6.65 -9.3 7.35 -9.65 Q9.4 -10.4 10.7 -8.7 L11.35 -8.95 13.25 -8.15 14.8 -8.85 15.0 -9.1 Q13.75 -11.25 11.8 -12.8 7.3 -16.5 1.7 -15.4 L-8.6 -12.55 -7.75 -12.5 -7.6 -12.45 -5.2 -11.7 M-1.95 -4.25 L-1.0 -1.7 -0.95 -1.4 -0.75 -1.25 -0.7 -1.3 17.6 -7.4 17.95 -7.6 17.95 -8.0 17.95 -8.15 17.9 -8.3 Q16.4 -12.6 12.2 -14.5 9.5 -15.75 6.6 -16.35 4.95 -16.7 3.4 -16.3 L2.65 -16.15 2.95 -16.1 5.8 -15.95 7.2 -15.65 Q12.45 -14.05 15.5 -9.45 L15.4 -8.8 15.35 -8.7 14.55 -8.45 13.85 -8.25 13.2 -8.0 12.7 -7.8 12.2 -8.3 10.3 -8.45 9.55 -8.9 8.4 -9.15 7.1 -9.3 6.8 -8.55 7.15 -7.45 6.05 -6.7 5.9 -5.6 5.25 -5.35 4.95 -5.3 3.5 -4.9 2.85 -4.7 2.0 -4.45 1.35 -4.25 0.9 -4.1 0.4 -4.2 Q-1.65 -9.25 -6.4 -11.7 L-7.75 -12.15 -8.9 -12.3 -8.95 -12.3 -13.4 -11.05 -13.25 -11.0 Q-7.4 -11.7 -3.8 -7.1 L-2.0 -4.35 -1.95 -4.25 M9.2 -8.3 L9.3 -7.95 9.2 -7.6 Q9.1 -7.45 8.95 -7.45 8.75 -7.4 8.65 -7.55 8.5 -7.7 8.5 -7.9 L8.65 -8.25 8.9 -8.4 9.2 -8.3 M8.25 -6.85 L8.6 -6.3 8.7 -6.1 8.45 -5.95 8.3 -6.0 8.1 -5.6 7.85 -5.4 7.55 -6.0 7.75 -6.65 8.25 -6.85 M9.15 -1.15 L9.35 -2.1 10.1 -2.65 10.9 -2.3 11.15 -2.05 10.95 -1.35 10.65 -0.65 10.4 0.95 9.85 -0.5 9.15 -1.15 M18.65 -8.7 L18.8 -8.35 18.8 -8.2 18.85 -8.05 18.9 -7.8 19.1 -7.2 19.15 -7.1 19.15 8.6 -1.1 15.45 -19.25 9.4 -19.2 -5.85 Q-19.15 -6.75 -18.7 -7.6 L-17.8 -9.0 -16.35 -10.25 -14.95 -11.05 -14.5 -11.15 3.95 -16.6 Q9.45 -16.95 14.15 -13.95 17.2 -12.05 18.65 -8.7 M11.15 -7.3 L11.35 -6.45 10.25 -6.75 10.25 -7.5 11.15 -7.3 M1.85 2.3 L2.05 0.7 6.45 -0.65 6.9 0.55 8.8 0.75 9.9 2.2 10.0 2.15 11.25 1.9 11.75 0.15 11.9 -0.05 Q13.0 -1.0 13.3 -2.35 L13.35 -2.45 16.0 -3.7 17.05 -2.55 17.05 -0.3 17.1 1.35 17.1 4.15 17.15 5.85 16.05 7.25 13.35 8.1 9.75 9.25 6.95 10.1 2.15 11.85 1.45 11.4 1.4 10.95 2.4 11.35 15.8 6.85 16.65 5.75 16.55 -2.5 16.05 -3.1 13.6 -2.0 13.3 -1.3 Q12.4 -0.2 12.05 1.0 L11.95 1.9 10.95 2.75 10.05 2.95 9.0 2.65 8.9 2.5 8.65 1.4 6.5 0.8 6.2 -0.35 2.2 1.0 2.05 1.65 1.85 2.3 M18.1 -1.65 L18.05 -6.15 -0.55 -0.35 -0.5 14.1 3.6 12.75 7.0 11.65 9.85 10.7 18.2 8.0 18.15 2.75 18.1 -0.2 18.1 -1.65 M-14.55 -6.5 L-14.75 -6.55 -14.8 -6.55 Q-15.65 -6.8 -15.55 -7.55 L-15.25 -8.15 -14.05 -8.8 Q-9.45 -10.4 -5.95 -6.95 -4.4 -5.45 -3.95 -3.4 L-4.55 -3.55 -5.25 -3.75 -5.5 -3.85 -6.8 -4.2 -7.2 -4.3 -7.4 -4.45 -9.8 -5.1 -14.55 -6.5 M-14.7 -8.0 L-15.05 -7.3 -5.3 -4.1 -4.4 -3.95 Q-5.15 -5.8 -6.65 -7.05 -9.85 -9.7 -13.75 -8.45 L-14.7 -8.0 M-15.75 -9.65 L-15.85 -9.55 -16.2 -9.3 -16.35 -9.15 -17.55 -7.55 -17.75 -7.05 -17.9 -6.45 -14.1 -5.2 -1.6 -1.05 -1.7 -1.45 -1.8 -1.9 Q-2.3 -5.05 -4.45 -7.4 -8.55 -11.9 -14.35 -10.2 L-15.75 -9.65 M-16.4 -1.5 L-16.45 -0.95 -16.5 -0.8 -16.4 7.35 -3.7 11.1 -3.7 1.8 -3.8 1.75 -3.75 1.65 -5.5 0.9 -16.35 -2.7 -16.4 -1.7 -16.4 -1.5 M-13.9 -4.0 L-18.45 -5.45 -18.6 -5.4 -18.45 0.35 -17.4 2.2 -17.4 2.1 -17.35 2.15 -17.2 1.95 -17.2 1.45 -17.2 1.4 -17.2 0.95 -17.15 0.5 -17.15 0.25 -17.15 -1.25 -17.15 -1.85 -17.05 -3.25 -3.5 1.35 -3.35 1.3 -3.25 1.35 -3.3 1.7 -3.65 11.75 -4.85 11.35 -13.4 8.6 Q-12.45 9.9 -11.05 10.9 L-10.55 11.2 Q-8.1 12.85 -5.15 13.25 L-3.05 13.8 -1.6 14.05 -1.5 -0.05 -1.8 -0.15 -1.85 -0.2 -13.9 -4.0 M-18.85 2.6 L-18.75 2.8 -18.2 3.65 -17.75 4.65 -17.3 5.55 -17.6 3.85 -18.9 0.65 -18.85 2.6 M-16.2 7.6 L-16.25 7.6 -16.25 7.65 -14.25 10.5 -13.3 10.75 -14.7 8.1 -16.2 7.6" fill="#000000" fill-rule="evenodd" stroke="none"/>
    <path d="M-5.2 -11.7 L3.9 -14.15 4.9 -14.2 Q10.2 -13.25 12.95 -8.65 L13.25 -8.15 11.35 -8.95 10.7 -8.7 Q9.4 -10.4 7.35 -9.65 L6.65 -9.3 6.7 -7.75 5.8 -7.2 5.2 -5.75 Q3.3 -4.95 1.25 -4.65 L0.45 -4.7 Q-1.25 -9.05 -5.1 -11.6 L-5.2 -11.7 M1.85 2.3 L2.05 1.65 6.1 0.65 6.4 1.55 8.05 1.85 8.1 2.55 Q8.75 3.25 9.75 3.55 10.9 3.55 10.95 2.75 L11.95 1.9 12.05 1.0 Q12.4 -0.2 13.3 -1.3 L16.0 -1.95 15.7 5.6 15.45 5.95 15.55 6.5 15.8 6.85 2.4 11.35 1.4 10.95 1.5 2.6 1.85 2.3" fill="#ff0000" fill-rule="evenodd" stroke="none"/>
    <path d="M13.25 -8.15 L12.95 -8.65 Q10.2 -13.25 4.9 -14.2 L3.9 -14.15 -5.2 -11.7 -7.6 -12.45 -7.75 -12.5 -8.6 -12.55 1.7 -15.4 Q7.3 -16.5 11.8 -12.8 13.75 -11.25 15.0 -9.1 L14.8 -8.85 13.25 -8.15" fill="#fe9898" fill-rule="evenodd" stroke="none"/>
    <path d="M2.05 1.65 L2.2 1.0 6.2 -0.35 6.5 0.8 8.65 1.4 8.9 2.5 9.0 2.65 10.05 2.95 10.95 2.75 Q10.9 3.55 9.75 3.55 8.75 3.25 8.1 2.55 L8.05 1.85 6.4 1.55 6.1 0.65 2.05 1.65 M13.3 -1.3 L13.6 -2.0 16.05 -3.1 16.55 -2.5 16.65 5.75 15.8 6.85 15.55 6.5 15.45 5.95 15.7 5.6 16.0 -1.95 13.3 -1.3 M-14.7 -8.0 L-13.75 -8.45 Q-9.85 -9.7 -6.65 -7.05 -5.15 -5.8 -4.4 -3.95 L-5.3 -4.1 -15.05 -7.3 -14.7 -8.0 M-16.4 -1.5 L-16.4 -1.7 -16.35 -2.7 -5.5 0.9 -3.75 1.65 -3.8 1.75 -3.7 1.8 -3.7 11.1 -16.4 7.35 -16.5 -0.8 -16.45 -0.95 -16.4 -1.5" fill="#990000" fill-rule="evenodd" stroke="none"/>
    <path d="M6.95 10.1 L9.75 9.25 7.0 11.65 3.6 12.75 6.95 10.1 M13.35 8.1 L16.05 7.25 17.15 5.85 17.1 4.15 18.15 2.75 18.2 8.0 9.85 10.7 13.35 8.1 M17.1 1.35 L17.05 -0.3 18.1 -1.65 18.1 -0.2 17.35 1.1 17.1 1.35 M-14.75 -6.55 L-14.55 -6.5 -14.1 -5.2 -17.9 -6.45 -17.75 -7.05 -17.55 -7.55 -16.35 -9.15 -16.2 -9.3 -15.85 -9.55 -15.75 -9.65 -15.25 -8.15 -15.55 -7.55 Q-15.65 -6.8 -14.8 -6.55 L-14.75 -6.55 M-3.35 1.3 L-3.5 1.35 -17.05 -3.25 -17.15 -1.85 -17.15 -1.25 -17.15 0.25 -17.15 0.5 -17.2 0.95 -17.2 1.4 -17.2 1.45 -17.2 1.95 -17.35 2.15 -17.4 2.1 -17.4 2.2 -18.45 0.35 -18.6 -5.4 -18.45 -5.45 -13.9 -4.0 -13.1 -2.4 -3.3 1.1 -3.35 1.3 M-3.05 13.8 L-5.15 13.25 Q-8.1 12.85 -10.55 11.2 L-11.05 10.9 Q-12.45 9.9 -13.4 8.6 L-4.85 11.35 -3.05 13.8 M-18.85 2.6 L-18.9 0.65 -17.6 3.85 -17.3 5.55 -17.75 4.65 -18.2 3.65 -18.75 2.8 -18.85 2.6 M-16.25 7.65 L-16.2 7.6 -14.7 8.1 -13.3 10.75 -14.25 10.5 -16.25 7.65" fill="#828102" fill-rule="evenodd" stroke="none"/>
    <path d="M-14.55 -6.5 L-9.8 -5.1 -7.4 -4.45 -7.2 -4.3 -6.8 -4.2 -5.5 -3.85 -5.25 -3.75 -4.55 -3.55 -3.95 -3.4 Q-4.4 -5.45 -5.95 -6.95 -9.45 -10.4 -14.05 -8.8 L-15.25 -8.15 -15.75 -9.65 -14.35 -10.2 Q-8.55 -11.9 -4.45 -7.4 -2.3 -5.05 -1.8 -1.9 L-1.7 -1.45 -1.6 -1.05 -14.1 -5.2 -14.55 -6.5 M-14.8 -6.55 L-14.75 -6.55 -14.8 -6.55 M-3.35 1.3 L-3.3 1.1 -13.1 -2.4 -13.9 -4.0 -1.85 -0.2 -1.8 -0.15 -1.5 -0.05 -1.6 14.05 -3.05 13.8 -4.85 11.35 -3.65 11.75 -3.3 1.7 -3.25 1.35 -3.35 1.3 M-16.2 7.6 L-16.25 7.65 -16.25 7.6 -16.2 7.6" fill="#c6c502" fill-rule="evenodd" stroke="none"/>
  </g>
</svg>
