<?xml version="1.0" encoding="UTF-8" standalone="no"?>
<svg xmlns:ffdec="https://www.free-decompiler.com/flash" xmlns:xlink="http://www.w3.org/1999/xlink" ffdec:objectType="shape" height="33.35px" width="60.0px" xmlns="http://www.w3.org/2000/svg">
  <g transform="matrix(1.0, 0.0, 0.0, 1.0, 30.0, 16.7)">
    <path d="M5.95 -14.65 L6.05 -14.6 6.0 -14.55 5.95 -14.65" fill="#efe9cb" fill-rule="evenodd" stroke="none"/>
    <path d="M-22.6 3.05 L-22.6 3.0 -22.55 3.05 -22.6 3.05" fill="#dace8b" fill-rule="evenodd" stroke="none"/>
    <path d="M19.45 9.9 L6.9 14.35 6.8 8.85 17.25 6.1 17.7 9.2 19.45 9.9 M-8.35 13.75 L-19.35 10.0 -17.25 8.95 -17.25 8.9 -16.9 5.7 -8.15 8.6 -8.35 13.75" fill="#000000" fill-rule="evenodd" stroke="none"/>
    <path d="M24.0 8.3 L19.45 9.9 17.7 9.2 17.25 6.1 6.8 8.85 6.9 14.35 6.4 14.5 6.05 8.3 23.9 2.65 24.0 8.3 M-7.8 13.9 L-8.35 13.75 -8.15 8.6 -16.9 5.7 -17.25 8.9 -17.25 8.95 -19.35 10.0 -23.9 8.5 -23.9 -2.9 -21.55 -3.6 -22.6 2.6 -8.1 7.9 -7.35 1.55 -7.8 13.9 M-22.6 3.05 L-22.55 3.05 -22.6 3.0 -22.6 3.05" fill="#5b3f1e" fill-rule="evenodd" stroke="none"/>
    <path d="M2.25 -14.65 L2.45 -14.2 2.9 -14.0 3.35 -14.2 3.55 -14.65 3.35 -15.1 2.9 -15.3 2.45 -15.1 2.25 -14.65 M0.5 -16.15 L0.1 -16.35 -0.3 -16.15 -0.45 -15.75 -0.3 -15.3 Q-0.15 -15.15 0.1 -15.15 L0.5 -15.3 0.65 -15.75 0.5 -16.15 M6.35 -14.5 L21.6 -9.25 15.65 -7.2 3.6 -12.55 6.35 -14.5 M21.8 -9.15 L30.0 -6.35 0.0 3.95 -6.75 1.5 21.8 -9.15 M-30.0 -6.35 L0.0 -16.7 5.75 -14.7 -23.3 -4.05 -30.0 -6.35 M22.25 -8.5 L21.75 -8.25 21.55 -7.75 21.75 -7.2 Q21.95 -7.0 22.25 -7.0 L22.75 -7.2 22.95 -7.75 22.75 -8.25 22.25 -8.5 M25.6 -6.95 L25.4 -6.45 25.6 -5.95 Q25.8 -5.75 26.1 -5.75 L26.6 -5.95 26.8 -6.45 26.6 -6.95 26.1 -7.15 Q25.8 -7.15 25.6 -6.95 M2.45 -12.2 L14.95 -6.85 7.8 -4.6 -3.8 -9.65 2.45 -12.2 M-24.45 -5.8 L-24.6 -5.4 -24.45 -4.95 Q-24.3 -4.8 -24.05 -4.8 L-23.65 -4.95 Q-23.5 -5.15 -23.5 -5.4 L-23.65 -5.8 -24.05 -6.0 -24.45 -5.8 M-27.45 -6.7 L-27.6 -6.35 -27.45 -6.0 -27.1 -5.85 -26.75 -6.0 -26.6 -6.35 -26.75 -6.7 -27.1 -6.85 -27.45 -6.7 M-12.45 -6.85 L-5.45 -9.45 7.2 -4.45 -0.4 -1.7 -12.45 -6.85 M-3.7 1.95 L-3.55 1.55 Q-3.55 1.3 -3.7 1.15 -3.85 1.0 -4.1 1.0 -4.35 1.0 -4.5 1.15 L-4.65 1.55 -4.5 1.95 -4.1 2.1 -3.7 1.95 M-0.05 2.6 Q-0.05 2.35 -0.2 2.2 -0.35 2.0 -0.6 2.0 L-1.0 2.2 -1.15 2.6 -1.0 3.05 -0.6 3.2 Q-0.35 3.2 -0.2 3.05 L-0.05 2.6 M-13.7 -6.5 L-0.95 -1.5 -8.25 1.15 -21.0 -3.5 -13.7 -6.5" fill="#d2b87b" fill-rule="evenodd" stroke="none"/>
    <path d="M0.5 -16.15 L0.65 -15.75 0.5 -15.3 0.1 -15.15 Q-0.15 -15.15 -0.3 -15.3 L-0.45 -15.75 -0.3 -16.15 0.1 -16.35 0.5 -16.15 M2.25 -14.65 L2.45 -15.1 2.9 -15.3 3.35 -15.1 3.55 -14.65 3.35 -14.2 2.9 -14.0 2.45 -14.2 2.25 -14.65 M5.95 -14.65 L6.0 -14.55 6.05 -14.6 6.35 -14.5 3.6 -12.55 15.65 -7.2 21.6 -9.25 21.8 -9.15 -6.75 1.5 0.0 3.95 30.0 -6.35 30.0 6.15 24.0 8.3 23.9 2.65 6.05 8.3 6.4 14.5 0.35 16.65 -7.8 13.9 -7.35 1.55 -8.1 7.9 -22.6 2.6 -21.55 -3.6 -23.9 -2.9 -23.9 8.5 -30.0 6.45 -30.0 -6.35 -23.3 -4.05 5.75 -14.7 5.95 -14.65 M2.45 -12.2 L-3.8 -9.65 7.8 -4.6 14.95 -6.85 2.45 -12.2 M25.6 -6.95 Q25.8 -7.15 26.1 -7.15 L26.6 -6.95 26.8 -6.45 26.6 -5.95 26.1 -5.75 Q25.8 -5.75 25.6 -5.95 L25.4 -6.45 25.6 -6.95 M22.25 -8.5 L22.75 -8.25 22.95 -7.75 22.75 -7.2 22.25 -7.0 Q21.95 -7.0 21.75 -7.2 L21.55 -7.75 21.75 -8.25 22.25 -8.5 M-27.45 -6.7 L-27.1 -6.85 -26.75 -6.7 -26.6 -6.35 -26.75 -6.0 -27.1 -5.85 -27.45 -6.0 -27.6 -6.35 -27.45 -6.7 M-24.45 -5.8 L-24.05 -6.0 -23.65 -5.8 -23.5 -5.4 Q-23.5 -5.15 -23.65 -4.95 L-24.05 -4.8 Q-24.3 -4.8 -24.45 -4.95 L-24.6 -5.4 -24.45 -5.8 M-12.45 -6.85 L-0.4 -1.7 7.2 -4.45 -5.45 -9.45 -12.45 -6.85 M-13.7 -6.5 L-21.0 -3.5 -8.25 1.15 -0.95 -1.5 -13.7 -6.5 M-0.05 2.6 L-0.2 3.05 Q-0.35 3.2 -0.6 3.2 L-1.0 3.05 -1.15 2.6 -1.0 2.2 -0.6 2.0 Q-0.35 2.0 -0.2 2.2 -0.05 2.35 -0.05 2.6 M-3.7 1.95 L-4.1 2.1 -4.5 1.95 -4.65 1.55 -4.5 1.15 Q-4.35 1.0 -4.1 1.0 -3.85 1.0 -3.7 1.15 -3.55 1.3 -3.55 1.55 L-3.7 1.95" fill="#9f7735" fill-rule="evenodd" stroke="none"/>
  </g>
</svg>
