<?xml version="1.0" encoding="UTF-8" standalone="no"?>
<svg xmlns:ffdec="https://www.free-decompiler.com/flash" xmlns:xlink="http://www.w3.org/1999/xlink" ffdec:objectType="shape" height="32.0px" width="40.95px" xmlns="http://www.w3.org/2000/svg">
  <g transform="matrix(1.0, 0.0, 0.0, 1.0, 20.45, 16.0)">
    <path d="M-5.6 -9.6 L-5.6 -9.65 Q-5.55 -10.75 -5.65 -11.85 L-5.8 -12.25 -5.6 -13.1 -5.25 -13.85 -4.7 -14.5 -4.0 -15.05 -2.85 -15.45 -1.75 -15.8 -0.55 -15.9 0.6 -16.0 1.7 -15.8 3.45 -15.25 4.85 -14.2 5.6 -12.7 5.9 -11.2 5.9 -9.85 5.9 -9.5 5.9 -8.55 5.9 -8.45 5.95 -7.05 5.95 -5.65 Q6.0 -4.8 5.25 -3.85 L4.95 -3.65 4.5 -3.6 4.05 -3.1 3.6 -2.7 3.05 -2.45 2.45 -2.2 1.35 -1.9 -0.9 -1.85 -2.6 -2.25 Q-3.45 -2.45 -4.15 -3.0 L-5.0 -4.1 -5.55 -5.75 -5.65 -7.6 -5.6 -8.6 -5.6 -9.6 M2.45 -14.2 L2.95 -14.15 Q3.7 -13.9 3.95 -13.35 L3.4 -11.8 2.15 -11.45 0.95 -11.05 -1.05 -11.05 -3.35 -11.75 -3.6 -12.1 Q-4.05 -12.85 -3.85 -13.75 L-2.9 -14.25 -2.65 -14.0 -3.15 -13.7 -3.35 -12.95 Q-2.85 -12.65 -2.25 -12.45 L-0.15 -11.9 0.95 -12.1 2.05 -12.2 3.15 -12.5 3.6 -13.0 3.4 -13.5 2.45 -14.2 M4.9 -11.35 L5.05 -12.15 4.85 -12.55 Q5.1 -13.35 4.5 -13.95 3.55 -14.8 2.35 -15.05 L0.45 -15.35 -1.85 -15.2 -2.95 -14.95 -4.05 -14.45 -5.1 -12.45 -4.8 -11.85 -4.95 -11.15 -4.75 -10.3 -4.75 -9.05 -4.8 -8.85 -4.7 -7.15 -5.05 -6.0 -4.8 -5.6 -4.85 -4.8 -4.1 -4.25 Q-3.45 -3.75 -2.7 -3.4 L-1.25 -2.9 0.4 -2.9 2.1 -3.25 Q2.95 -3.5 3.65 -4.0 4.25 -4.35 4.5 -5.0 L4.8 -6.3 4.85 -6.75 Q5.2 -6.95 5.05 -7.3 L4.85 -7.6 4.85 -8.5 5.05 -8.65 Q5.3 -8.95 4.9 -9.3 L4.7 -9.5 5.05 -10.3 4.85 -10.75 4.9 -10.85 4.9 -11.35 M9.7 5.8 L12.7 14.75 11.05 14.4 8.05 6.1 9.7 5.8 M7.4 7.85 L4.8 6.5 7.25 6.15 7.4 7.85 M-9.75 5.8 L-8.1 6.1 -10.85 13.9 -11.25 14.5 -12.75 14.75 -9.75 5.8 M-7.2 7.1 L-7.25 6.15 -5.05 6.7 -7.45 7.85 -7.2 7.1" fill="#000000" fill-rule="evenodd" stroke="none"/>
    <path d="M-2.65 -14.0 L-2.9 -14.25 -3.85 -13.75 Q-4.05 -12.85 -3.6 -12.1 L-3.35 -11.75 -1.05 -11.05 0.95 -11.05 2.15 -11.45 3.4 -11.8 3.95 -13.35 Q3.7 -13.9 2.95 -14.15 L2.45 -14.2 -2.65 -14.0 M-4.95 -11.15 L-4.8 -11.85 -5.1 -12.45 -4.05 -14.45 -2.95 -14.95 -1.85 -15.2 0.45 -15.35 2.35 -15.05 Q3.55 -14.8 4.5 -13.95 5.1 -13.35 4.85 -12.55 L5.05 -12.15 4.9 -11.35 3.4 -10.55 2.95 -10.2 4.2 -10.4 4.85 -10.75 5.05 -10.3 4.7 -9.5 3.1 -8.7 4.85 -8.5 4.85 -7.6 Q4.25 -7.0 3.3 -6.95 L2.8 -6.7 4.85 -6.75 4.8 -6.3 3.0 -5.6 2.3 -5.5 Q1.9 -6.5 1.4 -5.85 1.25 -5.65 1.55 -5.3 L0.15 -5.1 -1.25 -5.1 -2.65 -5.25 -4.25 -5.8 -4.05 -6.1 -2.85 -5.85 -2.6 -6.05 -2.45 -6.2 Q-3.1 -6.75 -3.95 -6.9 L-4.7 -7.15 -4.8 -8.85 -4.6 -8.75 -3.25 -8.05 -2.5 -7.75 -2.35 -7.95 -2.25 -8.25 -2.45 -8.5 -4.75 -9.05 -4.75 -10.3 -3.3 -9.85 -2.8 -10.0 -3.5 -10.75 Q-4.0 -11.25 -4.95 -11.15 M2.55 -7.8 L0.25 -8.6 0.15 -8.65 -0.25 -8.65 -0.4 -9.0 -0.4 -9.05 0.85 -9.05 1.15 -8.55 1.25 -8.45 1.45 -8.75 1.55 -9.0 1.55 -9.05 Q2.8 -8.85 2.75 -9.75 L1.85 -9.75 1.6 -9.85 1.5 -10.0 1.0 -9.95 0.95 -9.8 0.9 -9.6 -0.35 -9.55 -0.35 -10.05 -0.75 -10.35 -0.9 -9.8 -0.95 -9.75 -2.35 -9.8 Q-2.45 -9.3 -1.85 -9.2 L-1.2 -9.1 -1.15 -9.0 -0.9 -8.45 -2.3 -7.05 -2.1 -7.05 Q-1.1 -7.4 -0.2 -8.0 L0.0 -8.05 2.15 -7.45 2.8 -7.25 2.55 -7.8 M0.1 -7.95 L0.1 -8.0 -0.25 -7.35 Q-0.35 -7.25 -0.55 -7.25 L-1.05 -6.85 -1.0 -6.7 -0.1 -6.65 Q-0.45 -5.7 0.25 -5.3 L0.35 -5.5 0.55 -6.75 1.4 -6.9 1.8 -6.95 1.25 -7.3 0.5 -7.35 0.1 -7.95 M-1.35 -5.8 L-1.2 -5.65 Q-0.8 -5.55 -0.75 -6.0 L-0.65 -6.3 Q-1.45 -6.8 -1.35 -5.8" fill="#ffffff" fill-rule="evenodd" stroke="none"/>
    <path d="M2.45 -14.2 L3.4 -13.5 3.6 -13.0 3.15 -12.5 2.05 -12.2 0.95 -12.1 -0.15 -11.9 -2.25 -12.45 Q-2.85 -12.65 -3.35 -12.95 L-3.15 -13.7 -2.65 -14.0 2.45 -14.2" fill="#999999" fill-rule="evenodd" stroke="none"/>
    <path d="M-4.95 -11.15 Q-4.0 -11.25 -3.5 -10.75 L-2.8 -10.0 -3.3 -9.85 -4.75 -10.3 -4.95 -11.15 M-4.75 -9.05 L-2.45 -8.5 -2.25 -8.25 -2.35 -7.95 -2.5 -7.75 -3.25 -8.05 -4.6 -8.75 -4.8 -8.85 -4.75 -9.05 M-4.7 -7.15 L-3.95 -6.9 Q-3.1 -6.75 -2.45 -6.2 L-2.6 -6.05 -2.85 -5.85 -4.05 -6.1 -4.25 -5.8 -2.65 -5.25 -1.25 -5.1 0.15 -5.1 1.55 -5.3 2.3 -5.35 2.3 -5.5 3.0 -5.6 4.8 -6.3 4.5 -5.0 Q4.25 -4.35 3.65 -4.0 2.95 -3.5 2.1 -3.25 L0.4 -2.9 -1.25 -2.9 -2.7 -3.4 Q-3.45 -3.75 -4.1 -4.25 L-4.85 -4.8 -4.8 -5.6 -5.05 -6.0 -4.7 -7.15 M4.85 -6.75 L2.8 -6.7 3.3 -6.95 Q4.25 -7.0 4.85 -7.6 L5.05 -7.3 Q5.2 -6.95 4.85 -6.75 M4.85 -8.5 L3.1 -8.7 4.7 -9.5 4.9 -9.3 Q5.3 -8.95 5.05 -8.65 L4.85 -8.5 M4.85 -10.75 L4.2 -10.4 2.95 -10.2 3.4 -10.55 4.9 -11.35 4.9 -10.85 4.85 -10.75" fill="#cccccc" fill-rule="evenodd" stroke="none"/>
    <path d="M1.55 -5.3 Q1.25 -5.65 1.4 -5.85 1.9 -6.5 2.3 -5.5 L2.3 -5.35 1.55 -5.3 M0.1 -7.95 L0.5 -7.35 1.25 -7.3 1.8 -6.95 1.4 -6.9 0.55 -6.75 0.35 -5.5 0.25 -5.3 Q-0.45 -5.7 -0.1 -6.65 L-1.0 -6.7 -1.05 -6.85 -0.55 -7.25 Q-0.35 -7.25 -0.25 -7.35 L0.1 -8.0 0.1 -7.95 M2.55 -7.8 L2.8 -7.25 2.15 -7.45 0.0 -8.05 -0.2 -8.0 Q-1.1 -7.4 -2.1 -7.05 L-2.3 -7.05 -0.9 -8.45 -1.15 -9.0 -1.2 -9.1 -1.85 -9.2 Q-2.45 -9.3 -2.35 -9.8 L-0.95 -9.75 -0.9 -9.8 -0.75 -10.35 -0.35 -10.05 -0.35 -9.55 0.9 -9.6 0.95 -9.8 1.0 -9.95 1.5 -10.0 1.6 -9.85 1.85 -9.75 2.75 -9.75 Q2.8 -8.85 1.55 -9.05 L1.55 -9.0 1.45 -8.75 1.25 -8.45 1.15 -8.55 0.85 -9.05 -0.4 -9.05 -0.4 -9.0 -0.25 -8.65 0.15 -8.65 0.25 -8.6 2.55 -7.8 M-1.35 -5.8 Q-1.45 -6.8 -0.65 -6.3 L-0.75 -6.0 Q-0.8 -5.55 -1.2 -5.65 L-1.35 -5.8" fill="#52351b" fill-rule="evenodd" stroke="none"/>
    <path d="M-5.6 -8.6 L-5.65 -7.6 -5.55 -5.75 -5.0 -4.1 -4.15 -3.0 Q-3.45 -2.45 -2.6 -2.25 L-0.9 -1.85 1.35 -1.9 2.45 -2.2 3.05 -2.45 3.6 -2.7 4.05 -3.1 4.5 -3.6 4.95 -3.65 5.25 -3.85 Q6.0 -4.8 5.95 -5.65 L5.95 -7.05 5.9 -8.45 5.9 -8.55 10.0 -8.0 Q14.9 -7.55 18.1 -3.95 18.45 -3.55 18.45 -2.95 18.55 -0.4 15.75 0.6 11.4 2.3 6.95 2.8 L-2.15 3.25 -10.85 2.25 Q-14.45 1.4 -17.5 -0.9 -18.25 -1.45 -18.3 -2.3 -18.4 -5.35 -15.45 -6.55 -11.15 -8.2 -6.55 -8.5 L-5.6 -8.6 M13.85 7.45 L15.95 13.45 14.2 14.2 12.05 8.0 12.95 7.65 13.85 7.45 M-13.0 7.85 L-12.1 8.0 -14.25 14.2 -15.95 13.45 -13.9 7.45 -13.0 7.85" fill="#b49c81" fill-rule="evenodd" stroke="none"/>
    <path d="M5.9 -9.5 L10.1 -8.9 Q14.4 -8.3 18.1 -5.65 L20.1 -3.8 20.45 -2.85 Q20.85 2.15 16.35 3.95 L14.4 4.85 17.8 14.0 13.0 16.0 9.9 14.8 8.65 11.65 7.85 9.1 4.0 7.45 3.85 6.95 -1.1 6.75 -3.9 6.95 -4.0 7.45 -5.95 8.2 Q-6.95 8.6 -7.85 9.1 -8.35 11.65 -9.4 13.85 L-9.95 14.8 -13.05 16.0 -14.85 15.4 Q-16.5 14.85 -17.8 13.75 L-14.4 4.85 Q-18.35 4.3 -19.9 1.0 -21.1 -1.65 -19.75 -4.15 -19.1 -5.4 -17.8 -6.1 -12.0 -8.95 -5.6 -9.6 L-5.6 -8.6 -6.55 -8.5 Q-11.15 -8.2 -15.45 -6.55 -18.4 -5.35 -18.3 -2.3 -18.25 -1.45 -17.5 -0.9 -14.45 1.4 -10.85 2.25 L-2.15 3.25 6.95 2.8 Q11.4 2.3 15.75 0.6 18.55 -0.4 18.45 -2.95 18.45 -3.55 18.1 -3.95 14.9 -7.55 10.0 -8.0 L5.9 -8.55 5.9 -9.5 M13.85 7.45 L12.95 7.65 12.05 8.0 14.2 14.2 15.95 13.45 13.85 7.45 M7.4 7.85 L7.25 6.15 4.8 6.5 7.4 7.85 M9.7 5.8 L8.05 6.1 11.05 14.4 12.7 14.75 9.7 5.8 M-7.2 7.1 L-7.45 7.85 -5.05 6.7 -7.25 6.15 -7.2 7.1 M-9.75 5.8 L-12.75 14.75 -11.25 14.5 -10.85 13.9 -8.1 6.1 -9.75 5.8 M-13.0 7.85 L-13.9 7.45 -15.95 13.45 -14.25 14.2 -12.1 8.0 -13.0 7.85" fill="#51432f" fill-rule="evenodd" stroke="none"/>
  </g>
</svg>
