<?xml version="1.0" encoding="UTF-8" standalone="no"?>
<svg xmlns:ffdec="https://www.free-decompiler.com/flash" xmlns:xlink="http://www.w3.org/1999/xlink" ffdec:objectType="shape" height="61.1px" width="45.4px" xmlns="http://www.w3.org/2000/svg">
  <g transform="matrix(1.0, 0.0, 0.0, 1.0, 22.7, 30.55)">
    <path d="M10.3 -26.8 L11.45 -25.75 Q13.1 -24.2 13.75 -22.15 14.45 -20.1 13.4 -18.3 L12.15 -19.6 Q-0.05 -22.8 -12.25 -19.6 L-12.95 -18.55 -13.65 -18.5 Q-14.1 -20.45 -12.95 -22.05 -4.25 -34.4 10.3 -26.8 M6.05 -25.85 L5.85 -26.0 -3.8 -25.7 3.95 -26.05 -3.9 -24.5 Q-8.75 -23.45 -11.9 -20.55 -8.25 -21.7 -4.15 -21.65 5.35 -22.45 13.6 -20.2 12.85 -21.4 11.55 -21.7 1.55 -23.45 -8.65 -21.85 L-3.05 -23.6 Q1.4 -25.05 6.05 -25.85 M-19.05 8.55 L-20.4 4.9 Q-17.85 -0.8 -12.9 -4.55 -11.8 -4.1 -11.4 -2.95 L-11.05 -1.75 -10.7 -1.5 -10.25 -0.5 Q-9.2 1.55 -6.95 2.4 -6.95 3.0 -6.15 3.45 L-4.3 3.9 -4.8 5.65 -3.7 6.4 -1.9 5.8 1.95 5.8 2.5 6.45 4.7 5.65 4.5 4.15 6.65 2.55 Q7.3 2.3 7.9 2.0 L8.95 1.3 9.65 0.35 10.95 -1.85 11.65 -3.3 12.8 -4.55 Q17.8 -0.95 20.3 4.9 L20.15 6.1 Q19.85 7.75 18.6 9.0 L17.0 5.9 Q15.4 2.45 13.45 2.0 L13.2 1.6 12.65 3.25 15.35 9.45 10.1 10.4 Q-2.9 12.55 -15.25 9.15 L-12.75 3.25 -13.45 1.85 -19.05 8.55 M-4.15 9.3 Q-3.45 9.95 -2.5 9.65 L-2.1 9.05 1.95 9.05 2.45 9.65 4.05 9.35 4.65 8.65 4.65 8.1 3.2 7.15 2.35 7.6 2.0 8.4 -2.05 8.4 -3.3 7.15 -3.85 7.25 -4.75 8.85 -4.15 9.3" fill="#6f5ba4" fill-rule="evenodd" stroke="none"/>
    <path d="M6.05 -25.85 Q1.4 -25.05 -3.05 -23.6 L-8.65 -21.85 Q1.55 -23.45 11.55 -21.7 12.85 -21.4 13.6 -20.2 5.35 -22.45 -4.15 -21.65 -8.25 -21.7 -11.9 -20.55 -8.75 -23.45 -3.9 -24.5 L3.95 -26.05 -3.8 -25.7 5.85 -26.0 6.05 -25.85 M-19.05 8.55 L-13.45 1.85 -17.1 10.35 -19.05 8.55 M13.45 2.0 Q15.4 2.45 17.0 5.9 L18.6 9.0 17.05 10.35 13.45 2.0 M6.65 2.55 L4.5 4.15 3.85 4.3 3.35 4.15 Q3.0 4.15 2.75 4.45 L2.65 4.55 -1.0 5.15 -2.0 4.85 -2.75 4.0 -4.3 3.9 -6.15 3.45 Q-6.95 3.0 -6.95 2.4 -1.2 4.6 4.95 3.1 L6.65 2.55 M16.8 19.4 Q10.75 24.8 4.3 19.4 L3.65 19.05 5.9 18.25 Q1.1 17.0 -3.75 18.2 L-3.8 18.65 -5.6 19.2 -5.45 19.8 -2.8 20.15 -4.05 20.75 Q-11.7 23.55 -16.85 17.75 L-15.5 15.15 Q0.0 19.0 15.35 15.15 L15.95 15.9 16.45 16.75 16.7 17.55 16.85 18.45 16.8 19.4 M8.7 26.15 L13.45 26.6 14.35 26.65 14.55 26.0 16.95 28.25 Q14.0 30.3 10.2 28.25 8.85 27.5 8.7 26.15 M-8.6 26.25 L-9.0 27.15 Q-10.45 28.4 -11.95 29.05 -15.1 30.1 -17.35 28.4 L-14.75 26.2 -14.35 26.65 -12.3 26.95 Q-11.3 26.9 -10.65 26.15 L-8.6 26.25" fill="#413661" fill-rule="evenodd" stroke="none"/>
    <path d="M10.3 -26.8 Q-4.25 -34.4 -12.95 -22.05 -14.1 -20.45 -13.65 -18.5 L-12.95 -18.55 -12.25 -19.6 Q-0.05 -22.8 12.15 -19.6 L13.4 -18.3 Q14.45 -20.1 13.75 -22.15 13.1 -24.2 11.45 -25.75 L10.3 -26.8 M-4.95 -20.25 L-11.85 -19.05 -12.2 -18.2 -11.75 -17.9 -8.45 -18.5 -11.45 -17.45 -9.6 -15.9 Q-9.05 -15.9 -8.6 -16.2 L-3.3 -18.55 -3.95 -19.5 -4.8 -19.7 -6.35 -19.2 -4.85 -20.1 Q-3.7 -19.75 -3.0 -18.85 L-2.65 -18.25 -4.6 -17.45 -4.6 -13.85 -5.5 -13.25 -6.15 -16.5 Q-7.6 -15.55 -9.3 -15.25 L-10.3 -15.35 -12.15 -17.25 Q-13.4 -10.8 -10.8 -5.8 -6.65 -3.15 -1.8 -2.55 L-3.05 -3.4 2.65 -3.25 2.2 -2.6 3.35 -2.7 Q7.85 -3.35 11.1 -6.35 13.5 -10.6 12.15 -15.6 11.95 -16.4 12.05 -17.25 L10.2 -15.5 Q7.85 -15.15 6.05 -16.6 L6.05 -13.9 5.4 -13.25 4.55 -13.7 4.3 -17.55 2.6 -18.45 3.7 -19.25 3.2 -18.55 9.25 -15.85 11.35 -17.5 10.65 -17.7 9.1 -17.9 Q6.75 -18.3 4.7 -19.7 L4.15 -19.55 4.8 -20.05 Q7.25 -18.65 10.2 -18.05 L12.05 -17.75 11.75 -19.05 4.85 -20.25 4.8 -20.25 -4.85 -20.25 -4.95 -20.25 M-7.9 -5.65 Q-6.0 -12.25 -0.8 -11.9 L-0.15 -11.6 Q5.8 -13.2 7.85 -5.75 L7.9 -4.85 Q3.35 -2.35 0.2 -6.25 L-0.25 -6.25 Q-2.65 -2.95 -6.15 -4.45 L-7.9 -5.65 M-13.1 -17.35 L-13.5 -16.35 -13.25 -10.45 Q-12.05 -13.9 -13.1 -17.35 M-14.2 -17.9 Q-15.45 -19.95 -13.95 -22.1 -4.15 -36.2 11.35 -26.8 12.65 -25.55 13.55 -23.9 15.1 -21.0 14.0 -17.75 L14.9 -15.65 Q14.5 -14.1 14.45 -12.45 14.3 -8.85 12.85 -5.7 14.75 -5.05 16.2 -3.6 24.75 5.2 22.05 15.8 L17.85 16.55 Q18.25 19.1 17.65 21.55 17.05 23.8 15.05 25.0 L19.15 28.05 Q18.0 30.3 15.25 30.55 9.65 30.75 7.15 25.95 6.25 25.7 5.5 25.25 -1.4 21.5 -7.8 26.65 L-8.5 27.8 Q-10.5 30.3 -13.75 30.35 -17.3 30.75 -19.25 28.05 L-15.1 25.2 -15.7 24.5 Q-17.15 23.4 -17.55 21.6 -18.15 19.15 -17.85 16.55 -20.4 17.25 -22.4 15.6 -24.4 2.3 -12.95 -5.7 L-14.2 -17.9 M-6.95 2.4 Q-9.2 1.55 -10.25 -0.5 L-10.7 -1.5 -11.05 -1.75 -11.4 -2.95 Q-11.8 -4.1 -12.9 -4.55 -17.85 -0.8 -20.4 4.9 L-19.05 8.55 -17.1 10.35 -13.45 1.85 -12.75 3.25 -15.25 9.15 Q-2.9 12.55 10.1 10.4 L15.35 9.45 12.65 3.25 13.2 1.6 13.45 2.0 17.05 10.35 18.6 9.0 Q19.85 7.75 20.15 6.1 L20.3 4.9 Q17.8 -0.95 12.8 -4.55 L11.65 -3.3 10.95 -1.85 9.65 0.35 8.95 1.3 7.9 2.0 Q7.3 2.3 6.65 2.55 L4.95 3.1 Q-1.2 4.6 -6.95 2.4 M4.5 4.15 L4.7 5.65 2.5 6.45 1.95 5.8 -1.9 5.8 -3.7 6.4 -4.8 5.65 -4.3 3.9 -2.75 4.0 -2.0 4.85 -1.0 5.15 2.65 4.55 2.45 5.05 2.75 5.7 3.35 5.95 4.0 5.7 4.25 5.05 4.0 4.45 3.85 4.3 4.5 4.15 M-20.95 8.45 Q-21.05 10.9 -19.05 12.25 L-17.65 12.85 -17.4 10.75 Q-20.05 8.65 -20.55 5.3 L-20.95 8.45 M-21.65 10.25 L-21.9 10.7 Q-22.65 16.2 -17.8 15.55 L-17.75 14.55 Q-20.5 13.15 -21.65 10.25 M-15.55 9.85 L-16.8 13.85 Q-2.8 18.3 11.75 15.2 L16.75 13.85 15.5 9.85 Q1.85 13.85 -12.3 10.9 L-15.55 9.85 M10.55 -4.55 Q0.1 0.85 -10.55 -4.5 -8.85 3.3 0.55 1.45 3.95 0.9 6.55 -0.9 1.3 2.9 -5.7 1.65 5.75 5.55 10.95 -4.05 L10.55 -4.55 M5.65 -8.2 Q4.3 -11.65 1.05 -11.6 L-0.05 -11.1 Q-5.65 -12.35 -6.7 -5.35 L-3.85 -4.8 -0.15 -6.75 Q3.55 -4.4 7.25 -5.3 L5.65 -8.2 M-4.75 -1.85 L2.45 -0.3 -1.95 -0.6 -4.75 -1.85 M-4.0 7.9 L-4.25 8.35 -4.0 8.8 -3.45 9.0 -2.85 8.8 -2.65 8.35 -2.85 7.9 -3.45 7.7 -4.0 7.9 M-2.8 4.5 Q-3.05 4.2 -3.4 4.2 -3.75 4.2 -4.0 4.5 L-4.25 5.1 -4.0 5.75 -3.4 6.0 -2.8 5.75 -2.55 5.1 Q-2.55 4.75 -2.8 4.5 M-4.15 9.3 L-4.75 8.85 -3.85 7.25 -3.3 7.15 -2.05 8.4 2.0 8.4 2.35 7.6 3.2 7.15 4.65 8.1 4.65 8.65 4.05 9.35 2.45 9.65 1.95 9.05 -2.1 9.05 -2.5 9.65 Q-3.45 9.95 -4.15 9.3 M2.6 8.35 L2.85 8.8 Q3.05 9.0 3.4 9.0 L4.0 8.8 4.2 8.35 4.0 7.9 3.4 7.7 Q3.05 7.7 2.85 7.9 L2.6 8.35 M16.8 19.4 L16.85 18.45 16.7 17.55 16.45 16.75 15.95 15.9 15.35 15.15 Q0.0 19.0 -15.5 15.15 L-16.85 17.75 Q-14.75 28.4 -3.15 23.6 1.6 21.6 6.75 23.6 14.9 26.8 16.8 19.4 M8.7 26.15 Q8.85 27.5 10.2 28.25 14.0 30.3 16.95 28.25 L14.55 26.0 14.35 26.65 13.45 26.6 8.7 26.15 M-11.8 26.45 L-11.4 26.15 -13.85 25.55 -14.1 26.15 -11.8 26.45 M-8.6 26.25 L-10.65 26.15 Q-11.3 26.9 -12.3 26.95 L-14.35 26.65 -14.75 26.2 -17.35 28.4 Q-15.1 30.1 -11.95 29.05 -10.45 28.4 -9.0 27.15 L-8.6 26.25 M13.1 -17.15 Q12.3 -14.75 12.85 -12.05 L13.2 -10.45 14.1 -15.75 13.1 -17.15 M21.55 10.3 L20.6 12.0 17.55 14.75 18.0 15.8 19.4 16.1 Q23.4 13.9 21.55 10.3 M20.95 8.05 L20.5 5.3 Q20.05 8.75 17.3 10.75 L17.6 12.85 18.9 12.2 Q21.3 10.8 20.95 8.05 M13.75 25.55 L11.45 26.15 14.0 26.15 13.75 25.55" fill="#000000" fill-rule="evenodd" stroke="none"/>
    <path d="M-8.45 -18.5 L-6.35 -19.2 -4.8 -19.7 -3.95 -19.5 -3.3 -18.55 -8.6 -16.2 Q-9.05 -15.9 -9.6 -15.9 L-11.45 -17.45 -8.45 -18.5 M3.7 -19.25 L3.85 -19.5 4.15 -19.55 4.7 -19.7 Q6.75 -18.3 9.1 -17.9 L10.65 -17.7 11.35 -17.5 9.25 -15.85 3.2 -18.55 3.7 -19.25 M5.65 -8.2 L7.25 -5.3 Q3.55 -4.4 -0.15 -6.75 L-3.85 -4.8 -6.7 -5.35 Q-5.65 -12.35 -0.05 -11.1 L1.05 -11.6 Q4.3 -11.65 5.65 -8.2" fill="#eaeaea" fill-rule="evenodd" stroke="none"/>
    <path d="M-4.95 -20.25 L-4.85 -20.1 -6.35 -19.2 -8.45 -18.5 -11.75 -17.9 -12.2 -18.2 -11.85 -19.05 -4.95 -20.25 M4.8 -20.05 L4.85 -20.25 11.75 -19.05 12.05 -17.75 10.2 -18.05 Q7.25 -18.65 4.8 -20.05 M11.1 -6.35 Q7.85 -3.35 3.35 -2.7 L2.2 -2.6 2.65 -3.25 -3.05 -3.4 -1.8 -2.55 Q-6.65 -3.15 -10.8 -5.8 L-7.9 -5.65 -6.15 -4.45 Q-2.65 -2.95 -0.25 -6.25 L0.2 -6.25 Q3.35 -2.35 7.9 -4.85 L7.85 -5.75 11.1 -6.35 M8.45 -14.5 L8.8 -14.75 9.6 -14.9 10.45 -14.75 10.75 -14.5 10.45 -14.2 9.6 -14.1 8.8 -14.2 Q8.45 -14.35 8.45 -14.5 M8.65 -13.4 L10.55 -12.2 10.55 -12.0 9.45 -12.2 Q8.9 -12.4 8.4 -12.75 L8.65 -13.4 M-13.1 -17.35 Q-12.05 -13.9 -13.25 -10.45 L-13.5 -16.35 -13.1 -17.35 M-8.85 -13.25 L-10.5 -12.3 -9.05 -13.6 Q-8.5 -13.55 -8.85 -13.25 M-9.7 -14.75 L-8.85 -14.6 -8.5 -14.3 Q-8.5 -14.1 -8.85 -13.95 L-9.7 -13.85 -10.55 -13.95 -10.9 -14.3 -10.55 -14.6 -9.7 -14.75 M-21.65 10.25 Q-20.5 13.15 -17.75 14.55 L-17.8 15.55 Q-22.65 16.2 -21.9 10.7 L-21.65 10.25 M13.1 -17.15 L14.1 -15.75 13.2 -10.45 12.85 -12.05 Q12.3 -14.75 13.1 -17.15 M21.55 10.3 Q23.4 13.9 19.4 16.1 L18.0 15.8 17.55 14.75 20.6 12.0 21.55 10.3" fill="#f5c79a" fill-rule="evenodd" stroke="none"/>
    <path d="M-4.85 -20.1 L-4.85 -20.25 4.8 -20.25 4.8 -20.05 4.15 -19.55 3.85 -19.5 3.7 -19.25 2.6 -18.45 4.3 -17.55 4.55 -13.7 5.4 -13.25 6.05 -13.9 6.05 -16.6 Q7.85 -15.15 10.2 -15.5 L12.05 -17.25 Q11.95 -16.4 12.15 -15.6 13.5 -10.6 11.1 -6.35 L7.85 -5.75 Q5.8 -13.2 -0.15 -11.6 L-0.8 -11.9 Q-6.0 -12.25 -7.9 -5.65 L-10.8 -5.8 Q-13.4 -10.8 -12.15 -17.25 L-10.3 -15.35 -9.3 -15.25 Q-7.6 -15.55 -6.15 -16.5 L-5.5 -13.25 -4.6 -13.85 -4.6 -17.45 -2.65 -18.25 -3.0 -18.85 Q-3.7 -19.75 -4.85 -20.1 M8.65 -13.4 L8.4 -12.75 Q8.9 -12.4 9.45 -12.2 L10.55 -12.0 10.55 -12.2 8.65 -13.4 M8.45 -14.5 Q8.45 -14.35 8.8 -14.2 L9.6 -14.1 10.45 -14.2 10.75 -14.5 10.45 -14.75 9.6 -14.9 8.8 -14.75 8.45 -14.5 M-9.7 -14.75 L-10.55 -14.6 -10.9 -14.3 -10.55 -13.95 -9.7 -13.85 -8.85 -13.95 Q-8.5 -14.1 -8.5 -14.3 L-8.85 -14.6 -9.7 -14.75 M-8.85 -13.25 Q-8.5 -13.55 -9.05 -13.6 L-10.5 -12.3 -8.85 -13.25" fill="#fbe9d2" fill-rule="evenodd" stroke="none"/>
    <path d="M-20.95 8.45 L-20.55 5.3 Q-20.05 8.65 -17.4 10.75 L-17.65 12.85 -19.05 12.25 Q-21.05 10.9 -20.95 8.45 M-15.55 9.85 L-12.3 10.9 Q1.85 13.85 15.5 9.85 L16.75 13.85 11.75 15.2 Q-2.8 18.3 -16.8 13.85 L-15.55 9.85 M10.55 -4.55 L10.95 -4.05 Q5.75 5.55 -5.7 1.65 1.3 2.9 6.55 -0.9 3.95 0.9 0.55 1.45 -8.85 3.3 -10.55 -4.5 0.1 0.85 10.55 -4.55 M-4.75 -1.85 L-1.95 -0.6 2.45 -0.3 -4.75 -1.85 M-11.8 26.45 L-14.1 26.15 -13.85 25.55 -11.4 26.15 -11.8 26.45 M13.75 25.55 L14.0 26.15 11.45 26.15 13.75 25.55 M20.95 8.05 Q21.3 10.8 18.9 12.2 L17.6 12.85 17.3 10.75 Q20.05 8.75 20.5 5.3 L20.95 8.05" fill="#d0d385" fill-rule="evenodd" stroke="none"/>
    <path d="M-2.8 4.5 Q-2.55 4.75 -2.55 5.1 L-2.8 5.75 -3.4 6.0 -4.0 5.75 -4.25 5.1 -4.0 4.5 Q-3.75 4.2 -3.4 4.2 -3.05 4.2 -2.8 4.5 M-4.0 7.9 L-3.45 7.7 -2.85 7.9 -2.65 8.35 -2.85 8.8 -3.45 9.0 -4.0 8.8 -4.25 8.35 -4.0 7.9 M3.85 4.3 L4.0 4.45 4.25 5.05 4.0 5.7 3.35 5.95 2.75 5.7 2.45 5.05 2.65 4.55 2.75 4.45 Q3.0 4.15 3.35 4.15 L3.85 4.3 M2.6 8.35 L2.85 7.9 Q3.05 7.7 3.4 7.7 L4.0 7.9 4.2 8.35 4.0 8.8 3.4 9.0 Q3.05 9.0 2.85 8.8 L2.6 8.35" fill="#949836" fill-rule="evenodd" stroke="none"/>
    <path d="M-16.85 17.75 Q-11.7 23.55 -4.05 20.75 L-2.8 20.15 -5.45 19.8 -5.6 19.2 -3.8 18.65 -3.75 18.2 Q1.1 17.0 5.9 18.25 L3.65 19.05 4.3 19.4 Q10.75 24.8 16.8 19.4 14.9 26.8 6.75 23.6 1.6 21.6 -3.15 23.6 -14.75 28.4 -16.85 17.75" fill="#12101b" fill-rule="evenodd" stroke="none"/>
  </g>
</svg>
