<?xml version="1.0" encoding="UTF-8" standalone="no"?>
<svg xmlns:ffdec="https://www.free-decompiler.com/flash" xmlns:xlink="http://www.w3.org/1999/xlink" ffdec:objectType="shape" height="59.35px" width="44.2px" xmlns="http://www.w3.org/2000/svg">
  <g transform="matrix(1.0, 0.0, 0.0, 1.0, 22.1, 29.7)">
    <path d="M-12.2 -20.25 L-10.2 -22.35 -11.85 -20.55 -12.2 -20.25 M8.5 -21.05 L7.2 -22.35 Q9.7 -20.75 10.95 -17.95 L11.65 -16.3 11.7 -16.25 11.75 -16.25 Q12.6 -25.95 2.55 -28.85 L0.65 -29.25 1.6 -29.25 0.65 -29.35 -3.6 -29.35 -4.55 -29.25 -3.6 -29.25 Q-14.45 -27.45 -14.85 -16.6 L-14.7 -16.25 -12.35 -20.1 -14.05 -16.1 -13.95 -16.05 Q-12.6 -17.95 -10.7 -19.4 L-9.5 -20.3 -10.05 -20.15 Q-1.5 -23.1 7.05 -20.15 L6.55 -20.3 Q9.25 -18.6 10.95 -15.95 10.6 -17.75 9.6 -19.45 L8.9 -20.6 8.8 -20.7 8.5 -21.05 M-8.15 -17.75 L-10.15 -17.95 -10.1 -18.85 -12.4 -16.8 -12.35 -14.85 Q-14.15 -3.7 -3.35 -2.65 L5.95 -3.2 9.15 -7.45 9.4 -14.85 9.45 -16.8 7.15 -18.85 7.1 -17.9 5.25 -17.75 -0.1 -17.3 2.15 -18.9 5.65 -19.65 4.55 -20.15 Q-2.25 -22.05 -8.95 -19.5 L-5.45 -18.85 -3.0 -17.25 -8.15 -17.75 M-15.5 -15.5 L-16.05 -13.35 -14.85 -7.95 -13.55 -7.25 Q-13.1 -11.0 -14.3 -14.5 L-15.5 -15.5 M0.15 0.5 L0.65 1.05 0.95 1.6 1.05 2.2 0.95 2.95 0.9 3.25 0.1 3.85 Q-1.75 4.95 -3.35 3.4 -4.35 2.45 -3.7 1.4 L-2.8 0.35 Q-5.65 0.45 -7.95 -1.05 -10.35 -2.7 -12.2 -5.2 -14.15 -5.2 -15.35 -3.6 L-18.85 1.2 -13.85 6.5 -13.05 6.4 -13.1 6.55 -13.15 6.65 -13.1 6.75 -12.95 6.8 -12.5 7.25 -13.1 8.2 Q-1.45 9.0 10.1 8.2 L9.6 7.05 10.05 6.35 11.1 6.3 15.9 1.15 14.75 -0.8 13.4 -2.75 12.7 -3.35 8.85 -5.3 8.1 -4.3 7.95 -4.15 Q4.85 -0.35 0.2 0.45 L0.1 0.45 0.15 0.5 M-12.7 -6.75 Q-16.6 -6.6 -17.0 -10.95 -17.9 -21.35 -10.45 -27.15 -6.95 -29.2 -2.9 -29.6 8.6 -30.55 12.75 -20.15 14.25 -16.45 13.85 -12.9 L13.5 -10.85 Q18.55 -10.9 20.6 -6.6 L22.1 -3.15 Q17.65 -4.65 12.95 -4.45 L14.45 -2.75 Q16.1 -0.75 17.35 1.7 L17.3 2.25 17.95 3.25 Q20.65 8.15 17.8 13.2 L14.9 14.65 15.4 21.35 12.25 22.3 13.3 24.4 15.45 25.85 16.55 27.15 15.5 28.95 Q9.4 30.15 3.45 28.5 L3.45 25.5 1.9 22.7 0.25 22.5 -0.3 19.05 -2.65 19.0 -3.3 22.55 -4.9 22.7 Q-6.75 25.35 -6.45 28.5 L-8.2 29.25 -18.7 28.9 -19.55 27.15 -18.8 26.25 -16.3 24.4 -15.25 22.3 -18.4 21.35 -18.2 19.05 -20.0 20.25 -20.05 20.05 -19.15 14.05 -20.8 13.2 -21.7 10.15 Q-22.95 5.75 -20.2 2.15 L-20.35 1.45 -19.35 -0.35 Q-17.2 -4.95 -12.45 -6.3 L-12.7 -6.75 M-16.1 6.15 L-19.3 3.15 Q-24.3 9.0 -18.4 12.6 -16.2 14.15 -14.5 12.2 L-14.1 11.65 -14.15 10.75 Q-14.5 9.05 -16.2 8.65 L-16.6 9.2 -17.15 7.6 -17.9 7.35 -19.45 8.2 -19.05 7.65 -18.0 6.9 -17.5 6.75 -16.85 7.4 -15.0 8.55 -14.9 7.2 -16.1 6.15 M-13.25 8.8 L-13.35 8.6 -13.4 8.7 -13.85 9.3 -13.6 10.45 -13.3 12.1 -11.0 12.4 -10.0 12.55 Q0.15 13.0 10.3 12.1 L10.5 11.15 10.85 9.3 10.3 8.75 3.45 9.25 Q-4.95 9.5 -13.25 8.8 M12.45 -15.45 Q11.1 -13.5 10.7 -11.2 L10.55 -7.65 11.75 -7.7 13.0 -13.3 Q13.3 -14.15 12.75 -15.0 L12.45 -15.45 M-5.0 -12.75 L-5.25 -11.75 -5.85 -11.45 -6.6 -11.75 Q-7.25 -14.05 -6.45 -16.3 L-5.4 -16.1 Q-4.5 -14.55 -5.0 -12.75 M2.4 -16.1 L3.45 -16.3 Q4.4 -14.05 3.6 -11.75 L2.85 -11.45 2.25 -11.75 Q2.0 -12.8 1.9 -13.85 1.75 -15.1 2.4 -16.1 M12.7 -8.6 L12.45 -8.45 12.3 -8.25 12.1 -7.6 11.85 -7.0 9.75 -6.75 9.45 -6.3 11.0 -5.65 12.35 -5.0 Q16.65 -5.4 20.75 -4.3 L20.2 -5.15 19.2 -7.1 18.0 -9.0 Q16.2 -9.75 14.2 -9.75 L13.25 -10.05 12.7 -8.6 M4.8 -5.25 L4.6 -4.15 0.4 -6.8 -0.25 -6.45 -3.4 -6.8 -3.75 -6.45 -4.3 -6.5 -6.95 -4.15 -7.0 -4.15 -7.75 -4.25 -7.9 -5.0 -3.8 -7.65 0.85 -7.65 4.8 -5.25 M3.15 -1.5 L-6.05 -1.35 Q-2.65 0.15 1.1 -0.65 2.05 -0.55 2.75 -1.1 L3.15 -1.5 M-1.5 0.75 Q-2.35 0.75 -2.95 1.15 -3.6 1.55 -3.6 2.1 -3.6 2.65 -2.95 3.05 -2.35 3.45 -1.5 3.45 -0.65 3.45 0.0 3.05 0.6 2.65 0.6 2.1 0.6 1.55 0.0 1.15 L-1.5 0.75 M13.9 7.35 L13.95 7.3 14.0 7.25 14.5 6.75 15.65 6.95 16.1 7.2 16.4 7.55 16.25 8.1 16.2 7.95 14.6 7.4 13.95 8.0 13.85 9.15 13.2 8.65 11.45 10.1 11.2 11.05 11.55 12.2 12.9 13.1 Q13.8 13.45 14.55 13.1 21.3 9.75 16.3 3.15 L13.35 5.55 11.85 7.75 12.05 8.55 13.9 7.35 M8.9 21.65 L14.15 20.75 14.3 19.5 Q14.6 17.05 13.8 14.75 L11.1 13.2 6.55 13.45 Q-2.1 13.85 -10.65 13.35 L-11.05 13.35 -13.1 13.25 -11.65 16.95 -13.45 18.2 -13.5 18.65 -13.7 19.05 -13.9 19.35 -14.2 19.6 -14.6 19.65 -15.6 19.45 -17.3 18.85 -17.15 20.75 -11.2 21.65 -3.9 21.85 -3.5 18.35 -0.15 17.95 0.5 18.35 0.9 21.85 1.9 22.0 8.45 21.7 8.9 21.65 M11.8 23.15 L11.75 23.0 11.6 22.55 2.75 22.75 4.25 25.0 3.9 27.05 5.75 27.0 7.15 26.95 9.7 25.2 12.5 26.05 13.05 25.25 11.8 23.15 M14.25 25.55 L13.6 25.3 12.75 26.75 9.3 25.75 7.85 27.55 3.95 27.85 4.35 28.4 4.8 28.6 14.9 28.15 15.75 27.35 13.7 27.6 13.9 26.05 14.25 25.55 M14.15 27.05 L15.8 26.85 14.55 25.7 14.15 27.05 M10.5 27.1 L9.65 27.45 11.35 27.45 10.5 27.1 M-8.05 27.05 L-6.9 27.05 -7.25 25.0 -5.75 22.75 -14.7 23.0 -16.05 25.25 -15.5 26.05 Q-14.7 25.65 -13.8 25.6 -11.6 25.15 -10.15 26.95 L-8.05 27.05 M-7.3 28.2 L-10.65 27.5 -12.3 25.75 -15.75 26.75 -16.5 25.3 -17.2 25.55 -16.5 27.45 -18.75 27.3 Q-14.15 29.3 -8.55 28.7 L-7.85 28.65 -7.3 28.2 M8.75 27.65 L10.3 26.55 11.95 27.5 Q11.9 28.7 9.35 27.85 L8.75 27.65 M-13.75 13.5 Q-13.6 13.05 -14.05 13.4 -15.5 14.45 -17.3 14.5 -17.6 14.25 -17.9 14.15 L-18.25 14.1 -18.45 14.25 -19.35 18.85 -18.15 18.25 -14.8 18.65 -14.55 18.75 -13.1 17.1 -12.65 16.65 -13.75 13.5 M-12.6 27.45 L-13.5 27.1 -14.3 27.45 -12.6 27.45 M-11.7 27.7 L-12.1 28.1 -13.75 28.2 -15.3 27.7 -13.3 26.55 -11.7 27.7 M-17.95 27.1 L-17.15 26.95 -17.55 25.7 -18.7 26.7 -17.95 27.1" fill="#000000" fill-rule="evenodd" stroke="none"/>
    <path d="M-11.85 -20.55 L-5.3 -23.65 -9.4 -24.2 Q-6.0 -25.6 -2.4 -25.6 L0.4 -25.7 -0.25 -26.35 2.8 -26.1 Q4.7 -25.95 6.25 -24.6 L6.4 -24.35 6.35 -24.1 4.05 -24.05 6.9 -21.75 8.5 -21.05 8.8 -20.7 8.8 -20.65 8.85 -20.6 8.9 -20.6 9.6 -19.45 Q10.6 -17.75 10.95 -15.95 9.25 -18.6 6.55 -20.3 L7.05 -20.15 Q-1.5 -23.1 -10.05 -20.15 L-9.5 -20.3 -10.7 -19.4 Q-12.6 -17.95 -13.95 -16.05 L-14.05 -16.1 -12.35 -20.1 -12.2 -20.25 -11.85 -20.55 M10.05 6.35 L9.6 7.05 10.1 8.2 Q-1.45 9.0 -13.1 8.2 L-12.5 7.25 -12.95 6.8 -13.1 6.75 -13.15 6.65 -13.1 6.55 -13.05 6.4 -11.15 3.7 -11.05 6.75 6.95 7.05 7.55 2.35 8.05 3.55 8.6 4.5 9.3 5.5 10.05 6.35 M20.2 -5.15 L20.75 -4.3 Q16.65 -5.4 12.35 -5.0 L11.0 -5.65 9.45 -6.3 9.75 -6.75 11.85 -7.0 12.1 -7.6 12.3 -8.25 12.45 -8.45 12.7 -8.6 Q14.5 -8.35 15.9 -7.55 L16.0 -7.4 15.8 -7.4 15.55 -7.5 13.95 -6.85 Q17.05 -6.3 20.2 -5.15" fill="#929292" fill-rule="evenodd" stroke="none"/>
    <path d="M-12.35 -14.85 L-12.4 -16.8 -10.1 -18.85 -10.15 -17.95 -8.15 -17.75 -12.35 -14.85 M-5.45 -18.85 L-8.95 -19.5 Q-2.25 -22.05 4.55 -20.15 L5.65 -19.65 2.15 -18.9 -5.45 -18.85 M5.25 -17.75 L7.1 -17.9 7.15 -18.85 9.45 -16.8 9.4 -14.85 5.25 -17.75 M-15.5 -15.5 L-14.3 -14.5 Q-13.1 -11.0 -13.55 -7.25 L-14.85 -7.95 -16.05 -13.35 -15.5 -15.5 M-10.25 -9.25 L-11.45 -10.95 -9.75 -11.25 -9.55 -11.3 -9.55 -11.85 -8.15 -10.95 -8.05 -10.5 -8.3 -10.1 -10.45 -10.55 -9.7 -8.9 Q-10.85 -7.95 -11.8 -8.6 L-10.25 -9.25 M-16.85 7.4 L-16.1 6.15 -14.9 7.2 -15.0 8.55 -16.85 7.4 M12.45 -15.45 L12.75 -15.0 Q13.3 -14.15 13.0 -13.3 L11.75 -7.7 10.55 -7.65 10.7 -11.2 Q11.1 -13.5 12.45 -15.45 M8.25 -9.05 L8.1 -8.9 6.9 -8.75 7.25 -10.5 4.95 -10.2 5.7 -11.95 5.8 -10.85 8.0 -10.95 7.55 -9.35 8.25 -9.05 M3.15 -1.5 L2.75 -1.1 Q2.05 -0.55 1.1 -0.65 -2.65 0.15 -6.05 -1.35 L3.15 -1.5 M13.95 7.3 L13.9 7.3 13.9 7.35 12.05 8.55 11.85 7.75 13.35 5.55 14.0 7.25 13.95 7.3 M11.75 23.0 L11.8 23.15 5.7 25.4 5.75 27.0 3.9 27.05 4.25 25.0 2.75 22.75 11.6 22.55 11.75 23.0 11.7 23.0 11.75 23.0 M10.5 27.1 L11.35 27.45 9.65 27.45 10.5 27.1 M14.15 27.05 L14.55 25.7 15.8 26.85 14.15 27.05 M-14.7 23.0 L-5.75 22.75 -7.25 25.0 -6.9 27.05 -8.05 27.05 -8.25 24.9 -14.7 23.0 M-12.6 27.45 L-14.3 27.45 -13.5 27.1 -12.6 27.45 M-17.95 27.1 L-18.7 26.7 -17.55 25.7 -17.15 26.95 -17.95 27.1" fill="#d6af83" fill-rule="evenodd" stroke="none"/>
    <path d="M-11.85 -20.55 L-10.2 -22.35 -12.2 -20.25 -12.35 -20.1 -14.7 -16.25 -14.85 -16.6 Q-14.45 -27.45 -3.6 -29.25 L-3.6 -29.35 0.65 -29.35 0.65 -29.25 2.55 -28.85 Q12.6 -25.95 11.75 -16.25 L11.65 -16.3 10.95 -17.95 Q9.7 -20.75 7.2 -22.35 L8.5 -21.05 6.9 -21.75 4.05 -24.05 6.35 -24.1 6.4 -24.35 6.25 -24.6 Q4.7 -25.95 2.8 -26.1 L-0.25 -26.35 0.4 -25.7 -2.4 -25.6 Q-6.0 -25.6 -9.4 -24.2 L-5.3 -23.65 -11.85 -20.55 M-13.05 6.4 L-13.85 6.5 -18.85 1.2 -15.35 -3.6 Q-14.15 -5.2 -12.2 -5.2 -10.35 -2.7 -7.95 -1.05 -5.65 0.45 -2.8 0.35 L-3.7 1.4 Q-4.35 2.45 -3.35 3.4 -1.75 4.95 0.1 3.85 L0.9 3.25 0.95 2.95 1.05 2.2 0.95 1.6 0.65 1.05 0.15 0.5 0.2 0.45 Q4.85 -0.35 7.95 -4.15 L8.1 -4.3 8.85 -5.3 12.7 -3.35 13.4 -2.75 14.75 -0.8 15.9 1.15 11.1 6.3 10.05 6.35 9.3 5.5 8.6 4.5 8.05 3.55 7.55 2.35 6.95 7.05 -11.05 6.75 -11.15 3.7 -13.05 6.4 M8.8 -20.7 L8.9 -20.6 8.85 -20.6 8.8 -20.65 8.8 -20.7 M12.7 -8.6 L13.25 -10.05 14.2 -9.75 Q16.2 -9.75 18.0 -9.0 L19.2 -7.1 20.2 -5.15 Q17.05 -6.3 13.95 -6.85 L15.55 -7.5 15.8 -7.4 16.0 -7.4 15.9 -7.55 Q14.5 -8.35 12.7 -8.6" fill="#cccccc" fill-rule="evenodd" stroke="none"/>
    <path d="M-8.15 -17.75 L-3.0 -17.25 -5.45 -18.85 2.15 -18.9 -0.1 -17.3 5.25 -17.75 9.4 -14.85 9.15 -7.45 5.95 -3.2 -3.35 -2.65 Q-14.15 -3.7 -12.35 -14.85 L-8.15 -17.75 M-10.25 -9.25 L-11.8 -8.6 Q-10.85 -7.95 -9.7 -8.9 L-10.45 -10.55 -8.3 -10.1 -8.05 -10.5 -8.15 -10.95 -9.55 -11.85 -9.55 -11.3 -9.75 -11.25 -11.45 -10.95 -10.25 -9.25 M-16.85 7.4 L-17.5 6.75 -18.0 6.9 -19.05 7.65 -19.45 8.2 -17.9 7.35 -17.15 7.6 -16.6 9.2 -16.2 8.65 Q-14.5 9.05 -14.15 10.75 L-14.1 11.65 -14.5 12.2 Q-16.2 14.15 -18.4 12.6 -24.3 9.0 -19.3 3.15 L-16.1 6.15 -16.85 7.4 M-5.0 -12.75 Q-4.5 -14.55 -5.4 -16.1 L-6.45 -16.3 Q-7.25 -14.05 -6.6 -11.75 L-5.85 -11.45 -5.25 -11.75 -5.0 -12.75 M2.4 -16.1 Q1.75 -15.1 1.9 -13.85 2.0 -12.8 2.25 -11.75 L2.85 -11.45 3.6 -11.75 Q4.4 -14.05 3.45 -16.3 L2.4 -16.1 M8.25 -9.05 L7.55 -9.35 8.0 -10.95 5.8 -10.85 5.7 -11.95 4.95 -10.2 7.25 -10.5 6.9 -8.75 8.1 -8.9 8.25 -9.05 M4.8 -5.25 L0.85 -7.65 -3.8 -7.65 -7.9 -5.0 -7.75 -4.25 -7.0 -4.15 -6.95 -4.15 -4.3 -6.5 -3.75 -6.45 -3.4 -6.8 -0.25 -6.45 0.4 -6.8 4.6 -4.15 4.8 -5.25 M13.9 7.35 L13.9 7.3 13.95 7.3 13.9 7.35 M14.0 7.25 L13.35 5.55 16.3 3.15 Q21.3 9.75 14.55 13.1 13.8 13.45 12.9 13.1 L11.55 12.2 11.2 11.05 11.45 10.1 13.2 8.65 13.85 9.15 13.95 8.0 14.6 7.4 16.2 7.95 16.25 8.1 16.4 7.55 16.1 7.2 15.65 6.95 14.5 6.75 14.0 7.25 M11.8 23.15 L13.05 25.25 12.5 26.05 9.7 25.2 7.15 26.95 5.75 27.0 5.7 25.4 11.8 23.15 M11.75 23.0 L11.7 23.0 11.75 23.0 M-8.05 27.05 L-10.15 26.95 Q-11.6 25.15 -13.8 25.6 -14.7 25.65 -15.5 26.05 L-16.05 25.25 -14.7 23.0 -8.25 24.9 -8.05 27.05" fill="#eadabf" fill-rule="evenodd" stroke="none"/>
    <path d="M-13.4 8.7 L-13.25 8.8 Q-4.95 9.5 3.45 9.25 L10.3 8.75 10.85 9.3 10.5 11.15 2.6 11.45 4.25 10.95 3.05 10.65 Q-5.55 10.2 -13.6 10.45 L-13.85 9.3 -13.4 8.7 M-13.75 13.5 L-12.65 16.65 -13.1 17.1 -14.55 18.75 -14.8 18.65 -18.15 18.25 -17.25 15.65 -15.8 15.85 -15.3 16.15 -14.7 16.15 -13.75 13.5" fill="#d0d385" fill-rule="evenodd" stroke="none"/>
    <path d="M-13.6 10.45 Q-5.55 10.2 3.05 10.65 L4.25 10.95 2.6 11.45 10.5 11.15 10.3 12.1 Q0.15 13.0 -10.0 12.55 L-11.0 12.4 -13.3 12.1 -13.6 10.45 M14.25 25.55 L13.9 26.05 13.7 27.6 15.75 27.35 14.9 28.15 4.8 28.6 4.35 28.4 3.95 27.85 7.85 27.55 9.3 25.75 12.75 26.75 13.6 25.3 14.25 25.55 M-7.3 28.2 L-7.85 28.65 -8.55 28.7 Q-14.15 29.3 -18.75 27.3 L-16.5 27.45 -17.2 25.55 -16.5 25.3 -15.75 26.75 -12.3 25.75 -10.65 27.5 -7.3 28.2 M8.75 27.65 L9.35 27.85 Q11.9 28.7 11.95 27.5 L10.3 26.55 8.75 27.65 M-18.15 18.25 L-19.35 18.85 -18.45 14.25 -18.25 14.1 -17.9 14.15 Q-17.6 14.25 -17.3 14.5 -15.5 14.45 -14.05 13.4 -13.6 13.05 -13.75 13.5 L-14.7 16.15 -15.3 16.15 -15.8 15.85 -17.25 15.65 -18.15 18.25 M-11.7 27.7 L-13.3 26.55 -15.3 27.7 -13.75 28.2 -12.1 28.1 -11.7 27.7" fill="#9b9a39" fill-rule="evenodd" stroke="none"/>
    <path d="M-1.5 0.75 L0.0 1.15 Q0.6 1.55 0.6 2.1 0.6 2.65 0.0 3.05 -0.65 3.45 -1.5 3.45 -2.35 3.45 -2.95 3.05 -3.6 2.65 -3.6 2.1 -3.6 1.55 -2.95 1.15 -2.35 0.75 -1.5 0.75" fill="#ffffff" fill-rule="evenodd" stroke="none"/>
    <path d="M11.1 13.2 L13.8 14.75 Q14.6 17.05 14.3 19.5 L14.15 20.75 8.9 21.65 Q9.0 18.7 7.65 15.9 L6.8 15.55 8.0 15.15 Q10.35 15.15 11.1 13.2 M-11.2 21.65 L-17.15 20.75 -17.3 18.85 -15.6 19.45 -14.6 19.65 -14.2 19.6 -13.9 19.35 -13.7 19.05 -13.5 18.65 -13.45 18.2 -11.65 16.95 -13.1 13.25 -11.05 13.35 -10.55 13.75 -9.8 14.05 -9.4 14.3 -9.4 14.35 -10.85 15.65 -10.4 16.7 -11.2 21.65" fill="#1b523d" fill-rule="evenodd" stroke="none"/>
    <path d="M11.1 13.2 Q10.35 15.15 8.0 15.15 L6.8 15.55 7.65 15.9 Q9.0 18.7 8.9 21.65 L8.45 21.7 1.9 22.0 0.9 21.85 0.5 18.35 -0.15 17.95 -3.5 18.35 -3.9 21.85 -11.2 21.65 -10.4 16.7 -10.85 15.65 -9.4 14.35 -9.4 14.3 -9.8 14.05 -10.55 13.75 -11.05 13.35 -10.65 13.35 Q-2.1 13.85 6.55 13.45 L11.1 13.2" fill="#0f2d1f" fill-rule="evenodd" stroke="none"/>
  </g>
</svg>
