<?xml version="1.0" encoding="UTF-8" standalone="no"?>
<svg xmlns:ffdec="https://www.free-decompiler.com/flash" xmlns:xlink="http://www.w3.org/1999/xlink" ffdec:objectType="shape" height="8.8px" width="15.45px" xmlns="http://www.w3.org/2000/svg">
  <g transform="matrix(1.0, 0.0, 0.0, 1.0, 7.0, 5.95)">
    <path d="M0.1 -2.6 L0.95 -2.5 1.75 -2.45 2.85 -2.45 3.55 -1.35 3.85 -0.9 3.95 -0.7 4.0 -0.7 4.0 -0.5 3.95 -0.45 3.8 -0.45 2.65 -0.4 1.55 -0.35 -0.35 -0.5 -0.4 -0.45 -0.4 -0.4 -0.45 -0.35 -0.6 -0.25 -0.65 -0.3 -0.75 -0.05 -0.7 1.0 -0.65 1.3 -0.6 1.55 -0.5 1.85 -0.1 2.85 -0.8 2.65 -2.3 1.2 -2.5 1.0 -2.65 0.75 -2.85 0.35 -3.35 -1.1 -3.4 -1.15 -3.5 -1.15 -3.6 -1.2 -3.65 -1.25 -3.75 -1.35 -3.75 -1.6 Q-4.45 -1.85 -5.0 -2.3 L-5.2 -2.45 -5.4 -2.65 -5.8 -3.0 -6.2 -3.4 -6.3 -3.35 -6.5 -3.55 -6.85 -5.25 -6.95 -5.65 -7.0 -5.8 -7.0 -5.85 -6.95 -5.9 -6.85 -5.95 -6.8 -5.95 -6.7 -5.9 -6.65 -5.85 -6.6 -5.75 -5.55 -4.7 -5.15 -4.45 -4.75 -4.25 -4.5 -4.1 -2.4 -3.2 -2.1 -3.3 -1.95 -3.3 -1.8 -3.25 -1.65 -3.2 -1.45 -2.9 -0.65 -2.75 0.1 -2.6 M0.55 -0.6 L1.75 -0.5 3.2 -0.5 3.8 -0.55 3.75 -0.6 3.7 -0.65 3.6 -0.8 3.6 -0.85 3.55 -0.85 3.5 -0.95 3.4 -1.15 3.3 -1.3 2.75 -2.25 1.95 -2.25 0.4 -2.3 Q-0.6 -2.35 -1.5 -2.7 L-1.55 -2.65 -1.6 -2.6 -1.45 -2.1 -0.9 -1.2 -0.8 -1.05 -0.75 -1.0 -0.75 -0.95 -0.7 -0.95 -0.55 -0.85 -0.4 -0.8 0.55 -0.6 M-5.75 -3.35 L-4.5 -2.35 -3.45 -1.8 -3.25 -1.95 -2.5 -2.8 -2.5 -2.9 -2.55 -2.95 -3.85 -3.5 Q-5.0 -4.0 -5.9 -4.75 L-6.65 -5.45 -6.2 -4.05 -5.75 -3.35 M-2.25 -3.1 L-2.3 -3.0 Q-2.1 -2.75 -1.8 -2.85 L-1.8 -2.95 -1.7 -2.95 Q-1.9 -3.25 -2.2 -3.15 L-2.25 -3.1 M-3.4 -1.55 L-3.5 -1.6 -3.6 -1.55 -3.6 -1.45 -3.6 -1.35 -3.5 -1.3 -3.4 -1.35 -3.35 -1.45 -3.4 -1.55 M-3.25 -1.5 L-3.3 -1.4 -3.1 -0.8 -2.6 0.3 -1.95 1.2 Q-1.45 1.85 -0.75 2.3 L-0.85 1.8 Q-1.1 0.55 -0.95 -0.65 L-1.05 -0.7 -1.05 -0.75 -3.2 -1.55 -3.25 -1.5 M-2.15 -2.8 L-3.1 -1.75 -0.9 -0.8 -1.1 -1.05 -1.2 -1.2 -2.05 -2.8 -2.15 -2.8 M-0.75 -0.4 L-0.6 -0.3 -0.5 -0.4 -0.45 -0.55 -0.5 -0.7 -0.6 -0.75 -0.65 -0.75 -0.75 -0.7 -0.8 -0.55 -0.75 -0.4" fill="#3a3832" fill-rule="evenodd" stroke="none"/>
    <path d="M-2.25 -3.1 L-2.2 -3.15 Q-1.9 -3.25 -1.7 -2.95 L-1.8 -2.95 -1.8 -2.85 Q-2.1 -2.75 -2.3 -3.0 L-2.25 -3.1 M-3.4 -1.55 L-3.35 -1.45 -3.4 -1.35 -3.5 -1.3 -3.6 -1.35 -3.6 -1.45 -3.6 -1.55 -3.5 -1.6 -3.4 -1.55 M-0.75 -0.4 L-0.8 -0.55 -0.75 -0.7 -0.65 -0.75 -0.6 -0.75 -0.5 -0.7 -0.45 -0.55 -0.5 -0.4 -0.6 -0.3 -0.75 -0.4" fill="#cccccc" fill-rule="evenodd" stroke="none"/>
    <path d="M0.55 -0.6 L-0.4 -0.8 -0.55 -0.85 -0.7 -0.95 -0.75 -0.95 -0.75 -1.0 -0.8 -1.05 -0.9 -1.2 -1.45 -2.1 -1.6 -2.6 -1.55 -2.65 -1.5 -2.7 Q-0.6 -2.35 0.4 -2.3 L1.95 -2.25 2.75 -2.25 3.3 -1.3 3.4 -1.15 3.5 -0.95 3.55 -0.85 3.6 -0.85 3.6 -0.8 3.7 -0.65 3.75 -0.6 3.8 -0.55 3.2 -0.5 1.75 -0.5 0.55 -0.6 M-5.75 -3.35 L-6.2 -4.05 -6.65 -5.45 -5.9 -4.75 Q-5.0 -4.0 -3.85 -3.5 L-2.55 -2.95 -2.5 -2.9 -2.5 -2.8 -3.25 -1.95 -3.45 -1.8 -4.5 -2.35 -5.75 -3.35 M-3.25 -1.5 L-3.2 -1.55 -1.05 -0.75 -1.05 -0.7 -0.95 -0.65 Q-1.1 0.55 -0.85 1.8 L-0.75 2.3 Q-1.45 1.85 -1.95 1.2 L-2.6 0.3 -3.1 -0.8 -3.3 -1.4 -3.25 -1.5" fill="#ffffff" fill-rule="evenodd" stroke="none"/>
    <path d="M7.05 -2.65 L7.15 -2.65 7.45 -2.65 7.7 -2.6 7.95 -2.6 8.2 -2.5 8.4 -2.45 8.45 -2.15 8.45 -2.05 8.45 -1.8 8.45 -1.4 8.45 -1.05 8.45 -1.0 8.35 -0.95 8.3 -1.0 8.2 -1.05 8.05 -1.2 7.9 -1.35 7.75 -1.55 7.7 -1.6 7.65 -1.65 7.6 -1.7 7.4 -2.05 7.15 -2.4 7.1 -2.45 7.05 -2.65 M7.55 -2.05 L7.7 -1.85 7.9 -1.55 7.95 -1.55 8.3 -1.15 8.3 -1.55 8.3 -1.85 8.3 -2.15 8.25 -2.3 7.75 -2.4 7.45 -2.45 7.55 -2.05" fill="#3a3832" fill-rule="evenodd" stroke="none"/>
    <path d="M7.55 -2.05 L7.45 -2.45 7.75 -2.4 8.25 -2.3 8.3 -2.15 8.3 -1.85 8.3 -1.55 8.3 -1.15 7.95 -1.55 7.9 -1.55 7.7 -1.85 7.55 -2.05" fill="#ffffff" fill-rule="evenodd" stroke="none"/>
  </g>
</svg>
