<?xml version="1.0" encoding="UTF-8" standalone="no"?>
<svg xmlns:ffdec="https://www.free-decompiler.com/flash" xmlns:xlink="http://www.w3.org/1999/xlink" ffdec:objectType="shape" height="57.4px" width="35.25px" xmlns="http://www.w3.org/2000/svg">
  <g transform="matrix(1.0, 0.0, 0.0, 1.0, 17.6, 28.7)">
    <path d="M4.95 -22.8 L5.3 -22.75 Q8.4 -21.3 10.7 -18.55 L11.75 -17.35 Q12.45 -16.45 13.2 -16.1 13.7 -15.8 14.3 -15.65 L16.0 -17.05 15.75 -17.55 14.25 -20.2 12.6 -22.15 Q8.65 -26.45 2.9 -27.4 1.35 -27.7 0.1 -27.4 L-0.4 -27.4 -1.9 -27.55 -6.75 -26.2 Q-10.3 -24.8 -12.95 -22.2 -15.35 -19.9 -16.25 -17.05 L-16.2 -16.9 -15.25 -16.05 Q-14.65 -15.35 -13.9 -15.9 L-13.5 -16.1 -13.4 -16.15 Q-11.8 -18.05 -9.6 -19.4 -7.95 -20.4 -5.8 -20.9 L-1.1 -21.45 Q3.9 -21.85 8.85 -19.7 L5.7 -22.2 4.85 -22.7 4.9 -22.75 4.95 -22.75 4.95 -22.8 M-13.9 -15.9 L-14.0 -16.2 -11.8 -18.9 Q-7.9 -23.15 -2.3 -23.8 -1.0 -23.85 0.15 -23.25 L0.2 -23.2 0.35 -23.1 -2.4 -23.2 Q-5.9 -22.95 -8.6 -20.85 -11.15 -18.9 -13.5 -16.3 L-13.6 -16.2 -13.9 -15.9 M7.7 -27.25 L8.4 -26.75 Q11.55 -25.0 14.0 -21.95 15.95 -19.55 17.3 -16.5 L17.05 -16.15 Q16.0 -15.8 15.0 -15.1 14.4 -14.6 14.35 -14.0 L14.35 -13.1 14.25 -10.3 14.5 -9.7 Q17.1 -7.6 17.45 -4.05 L17.65 0.75 17.5 2.0 Q15.65 1.45 14.1 0.2 L13.15 -0.55 12.5 -2.95 12.1 -2.45 12.1 -2.4 12.2 -2.15 12.3 -1.9 12.4 -1.9 12.4 -1.4 12.75 0.85 13.05 2.3 13.2 3.3 13.55 5.05 13.65 7.0 16.6 12.5 16.45 13.3 16.25 13.65 16.4 14.4 14.85 15.15 13.4 14.1 12.75 14.5 12.9 14.9 12.95 15.0 13.65 17.15 13.8 17.75 13.95 18.35 Q14.2 19.35 13.85 20.4 L13.05 21.6 12.6 22.0 Q11.7 22.9 9.95 23.45 L8.35 23.85 Q8.0 26.2 5.8 27.45 L3.25 28.5 0.3 28.55 -0.15 28.0 -0.6 28.55 Q-4.95 29.1 -7.55 25.95 L-8.45 24.45 -8.6 23.85 Q-11.05 23.55 -12.85 22.0 L-12.9 22.0 Q-13.85 21.3 -14.2 20.05 L-14.25 19.2 -14.15 18.2 -14.15 18.15 -14.1 17.95 -14.05 17.7 -14.0 17.5 -13.95 17.1 -13.25 14.95 -13.0 14.45 -13.7 14.05 -15.15 15.1 -16.7 14.35 -16.55 13.6 -16.75 13.25 -16.9 12.45 -13.95 6.95 -13.85 5.0 -13.5 3.25 -13.3 2.25 -13.05 0.8 -12.6 -1.9 -12.4 -2.4 -12.35 -2.45 Q-13.65 -3.75 -14.1 -5.55 L-14.1 -5.6 -14.4 -7.6 -14.55 -13.15 -14.5 -14.0 -14.8 -14.45 -15.35 -15.0 -15.65 -15.2 -16.4 -15.65 -17.0 -15.9 -17.6 -16.5 Q-15.2 -21.95 -10.5 -25.6 -8.65 -27.05 -6.45 -27.75 0.45 -29.8 7.1 -27.35 L7.7 -27.25 M12.25 -16.1 L11.65 -16.65 Q11.15 -16.9 11.3 -17.05 L10.55 -17.55 9.95 -15.8 Q10.45 -12.7 10.4 -9.5 10.4 -7.55 9.8 -5.85 L8.1 -1.75 Q10.35 -3.6 10.7 -6.65 11.15 -10.85 10.85 -15.05 11.85 -10.85 11.15 -6.65 10.75 -4.2 9.2 -2.3 L9.65 -2.55 10.75 -3.85 Q12.2 -6.1 12.7 -8.85 L12.7 -9.1 Q12.95 -7.1 12.05 -5.05 11.35 -3.4 10.1 -2.45 L9.25 -1.7 9.35 -1.7 9.2 -1.6 9.55 -1.7 9.35 -1.7 11.0 -2.4 11.6 -3.1 12.6 -4.8 12.75 -5.25 Q13.5 -6.85 13.75 -8.8 L13.65 -9.8 Q13.45 -10.3 13.9 -10.55 L13.9 -10.75 13.8 -11.5 13.15 -14.4 12.25 -16.1 M-0.1 -18.25 L-0.05 -18.35 0.4 -18.9 1.0 -19.25 1.2 -19.2 Q1.6 -19.2 1.65 -18.95 L1.9 -15.8 1.9 -15.6 1.9 -14.7 2.0 -14.5 Q2.6 -14.95 3.0 -15.7 L3.45 -17.25 3.5 -17.4 3.55 -16.75 3.45 -15.65 3.25 -15.15 3.7 -15.35 3.9 -15.55 4.35 -16.75 4.65 -19.55 5.05 -19.15 5.15 -18.0 5.0 -16.6 5.0 -16.15 4.6 -15.35 4.55 -15.35 4.6 -15.35 Q6.05 -15.9 6.5 -17.25 L6.85 -18.3 6.9 -18.75 7.4 -18.55 6.75 -14.55 7.45 -14.25 Q8.8 -14.6 9.4 -15.8 9.95 -16.9 9.65 -18.2 L8.55 -18.8 8.25 -19.05 7.3 -19.55 4.85 -20.3 4.8 -20.3 4.55 -20.4 4.6 -20.35 1.15 -20.7 0.85 -20.75 0.8 -20.75 0.65 -20.8 0.65 -20.75 0.1 -20.85 -0.4 -20.85 -3.75 -20.45 -4.85 -20.3 -4.85 -20.35 -8.4 -19.0 -7.6 -19.5 -8.4 -19.05 -9.95 -18.2 Q-10.25 -16.95 -9.65 -15.85 -9.0 -14.6 -7.85 -14.25 L-7.0 -14.55 -7.6 -18.25 -7.2 -18.75 Q-7.25 -17.65 -6.6 -16.75 -5.95 -15.75 -4.85 -15.35 L-5.25 -16.15 Q-5.75 -17.6 -5.25 -19.15 L-5.15 -19.5 -4.0 -15.4 -3.55 -15.15 -3.65 -15.55 Q-4.2 -17.35 -3.75 -19.25 L-3.7 -19.0 Q-3.9 -17.45 -3.5 -15.9 L-3.4 -15.55 Q-3.0 -14.4 -2.1 -14.65 L-2.15 -15.7 -2.35 -17.75 Q-2.45 -18.9 -1.6 -19.2 L-1.45 -19.2 -1.4 -19.2 -1.35 -19.25 Q-0.65 -19.05 -0.25 -18.35 L-0.15 -18.2 -0.1 -18.25 M1.1 -16.6 L1.15 -16.65 1.1 -16.65 1.15 -18.15 Q0.5 -18.4 0.0 -17.75 L-0.15 -17.7 -1.3 -18.3 -1.55 -17.9 -1.5 -16.7 -1.55 -16.65 -1.5 -16.6 -1.5 -15.8 -1.4 -14.25 -2.25 -14.2 -3.9 -14.75 -4.0 -14.65 -3.85 -14.4 -3.9 -14.35 -4.0 -14.35 Q-5.55 -14.45 -6.65 -13.15 -8.15 -11.25 -7.3 -9.1 L-6.0 -8.35 -5.55 -8.0 -6.55 -7.65 Q-7.55 -8.0 -8.2 -8.65 L-9.1 -10.0 -7.6 -13.45 -7.4 -13.7 -7.4 -13.75 -7.45 -13.75 -7.4 -13.9 -7.65 -13.9 -7.9 -14.05 -9.4 -15.05 -9.6 -12.55 -9.65 -12.5 -9.6 -12.45 -9.7 -9.95 Q-9.75 -7.25 -8.85 -4.65 L-8.6 -4.0 -8.3 -3.25 -7.85 -3.0 Q-4.45 -1.35 -0.3 -1.35 4.15 -1.3 8.05 -3.25 L8.55 -4.65 Q9.9 -8.55 9.55 -12.5 L9.6 -12.6 9.6 -12.65 9.55 -12.75 9.15 -15.05 Q8.55 -14.1 7.35 -13.9 L7.15 -13.95 7.1 -13.95 Q6.65 -14.1 7.05 -13.1 7.7 -11.6 8.8 -10.0 8.25 -8.8 7.0 -7.9 6.65 -7.6 6.35 -7.6 L5.55 -7.9 5.4 -8.0 5.35 -8.0 5.2 -7.9 4.95 -7.85 4.2 -7.8 3.35 -8.65 3.3 -8.75 Q2.85 -9.6 2.85 -10.8 L2.9 -11.3 Q3.0 -12.3 3.5 -13.1 L4.05 -13.75 4.2 -13.8 4.5 -13.85 Q5.2 -13.85 5.7 -12.95 6.15 -12.05 6.15 -10.8 L5.95 -9.35 Q5.95 -8.55 5.5 -8.1 L6.4 -8.4 6.7 -8.75 7.2 -9.35 7.25 -10.45 Q7.25 -12.5 5.8 -13.7 4.75 -14.55 3.45 -14.3 L3.7 -14.7 3.6 -14.75 1.95 -14.2 1.8 -14.35 1.0 -14.4 1.1 -16.6 M4.15 -13.15 Q3.4 -12.4 4.1 -11.8 L4.55 -11.6 Q4.95 -11.55 5.15 -12.1 L5.25 -12.5 5.0 -13.0 4.85 -13.1 4.15 -13.15 M5.9 -14.8 L6.15 -15.55 5.3 -15.15 5.9 -14.8 M6.0 -1.0 Q5.25 0.4 3.85 1.15 2.7 1.8 1.5 2.55 L1.4 2.8 5.35 1.8 6.5 -1.65 6.0 -1.0 M9.25 0.0 L9.3 -0.7 9.25 -0.75 Q8.8 -1.25 7.9 -1.1 L7.85 -1.05 7.6 -1.15 7.35 -1.2 7.4 -1.35 7.45 -1.55 7.45 -1.65 7.35 -1.6 7.2 -1.55 7.15 -1.55 7.1 -0.45 6.8 0.7 6.75 0.7 6.7 0.85 6.2 1.6 5.6 2.5 Q5.85 4.45 5.55 6.05 L5.05 6.95 6.75 6.8 6.75 6.85 8.4 6.7 8.4 6.65 9.2 0.25 9.2 0.2 9.3 0.15 9.25 0.05 9.25 0.0 M8.15 -1.75 L8.1 -1.7 8.15 -1.75 M15.4 -0.05 L17.0 0.85 16.95 -3.7 16.8 -4.8 Q16.05 -7.3 14.2 -9.45 13.8 -7.6 14.25 -6.35 14.85 -4.65 14.75 -2.95 L14.7 -3.0 14.65 -2.95 14.65 -2.9 14.15 -4.0 13.8 -5.15 12.95 -3.65 13.3 -3.2 13.9 -0.95 15.05 -0.25 15.1 -0.2 15.25 -0.15 15.4 -0.05 M11.55 -2.0 L9.95 -1.15 9.2 5.6 10.3 5.55 10.55 4.1 10.15 3.45 10.2 3.45 11.15 2.9 11.4 1.75 10.5 0.25 11.6 -0.1 11.55 -2.0 M9.15 6.45 L9.05 7.75 9.1 7.75 9.65 8.25 10.15 8.6 10.25 8.6 Q10.95 8.55 11.55 8.05 12.65 7.3 12.95 5.95 L12.85 4.9 12.25 3.7 12.25 2.8 11.95 0.55 11.95 0.5 11.3 0.5 11.5 0.8 Q12.0 1.7 11.75 3.0 L11.75 3.1 10.95 3.6 10.9 3.6 Q11.25 4.4 11.0 5.25 L10.9 5.5 10.65 6.05 9.75 6.05 9.2 6.4 9.15 6.4 9.15 6.45 M13.45 8.4 L13.25 6.9 10.95 9.35 11.25 10.05 12.5 9.9 13.45 8.4 M11.3 10.55 L11.25 10.55 12.3 13.9 12.75 13.8 13.15 13.15 14.95 14.6 15.85 14.25 15.75 13.6 16.15 12.8 14.05 9.25 13.4 9.85 11.3 10.55 M12.9 17.2 L12.7 16.65 12.25 15.3 12.15 15.0 11.95 14.3 11.85 14.05 11.8 13.85 11.3 12.25 10.85 11.25 10.3 10.2 9.6 9.25 9.1 8.65 8.9 8.4 8.7 8.2 7.4 8.75 6.9 8.9 6.9 8.85 5.8 9.0 -2.0 9.8 Q-4.7 9.7 -7.2 8.85 L-9.0 8.15 -9.15 8.35 -9.9 9.2 -10.6 10.15 -11.15 11.2 -11.6 12.2 -12.15 14.0 -12.45 14.95 -13.0 16.6 -13.2 17.25 -13.2 17.3 -13.45 19.3 Q-13.55 21.45 -11.5 22.25 L-10.85 22.6 -9.35 22.8 -2.05 24.05 Q3.25 24.1 8.5 22.95 L9.6 22.65 Q11.3 22.5 12.65 21.15 13.55 20.2 13.15 18.6 L12.8 17.25 12.9 17.3 12.9 17.2 M3.0 3.45 L1.85 3.9 1.55 5.45 4.35 6.25 Q5.15 4.6 4.5 3.4 L4.35 3.3 3.0 3.45 M0.85 3.25 Q0.45 2.8 -0.1 2.8 -0.65 2.8 -1.05 3.25 -1.45 3.7 -1.45 4.35 -1.45 5.0 -1.05 5.45 -0.65 5.9 -0.1 5.9 0.45 5.9 0.85 5.45 1.25 5.0 1.25 4.35 1.25 3.7 0.85 3.25 M3.35 7.05 L1.7 6.45 -2.0 6.45 -3.65 7.05 3.35 7.05 M-8.7 7.85 L-7.15 8.35 Q-3.9 9.25 -0.4 9.0 L0.0 9.0 6.85 8.4 7.85 8.1 8.15 8.0 8.45 7.9 8.45 7.85 8.4 7.8 8.1 7.25 8.15 7.1 8.2 7.1 8.0 7.15 7.35 7.3 6.8 7.4 6.8 7.35 3.7 7.65 -0.4 7.8 -7.05 7.35 -7.65 7.25 -8.55 7.0 Q-8.15 7.15 -8.7 7.75 L-8.75 7.85 -8.7 7.85 M8.2 7.1 L8.3 7.05 8.2 7.1 M2.4 24.5 L4.05 24.95 4.55 24.3 2.4 24.5 M7.0 24.15 L5.35 24.4 4.8 24.45 4.55 25.15 3.85 25.5 3.4 25.4 0.65 24.45 0.2 24.85 Q0.05 26.05 0.6 27.1 L1.2 27.7 3.8 27.4 6.55 25.75 Q7.3 25.1 7.2 24.25 L7.0 24.15 M5.4 -1.35 Q2.1 -0.35 -1.4 -0.55 -3.7 -0.75 -5.65 -1.35 -3.55 1.35 -0.4 2.2 L0.1 2.2 Q3.3 1.4 5.4 -1.35 M-5.3 -13.0 L-5.35 -12.9 -5.55 -12.55 -5.6 -12.3 -5.6 -12.0 -5.6 -11.95 -4.9 -11.4 -4.55 -11.5 Q-3.95 -11.95 -4.1 -12.7 L-4.15 -12.95 -4.4 -13.2 -4.75 -13.35 -5.3 -13.0 M-6.2 -14.85 L-6.2 -14.8 -5.5 -15.1 -6.4 -15.55 -6.2 -14.85 M-4.65 -7.8 L-5.05 -7.85 -5.85 -8.65 Q-6.35 -9.55 -6.35 -10.8 -6.35 -12.05 -5.85 -12.9 -5.4 -13.8 -4.75 -13.8 L-4.65 -13.8 -4.5 -13.75 -3.7 -12.85 -3.2 -11.55 -3.15 -10.8 Q-3.15 -9.75 -3.5 -8.95 L-4.1 -8.15 -4.5 -7.8 -4.65 -7.8 M-10.7 -16.4 L-10.85 -17.55 -11.45 -16.9 Q-12.25 -16.75 -12.55 -16.05 -12.75 -15.6 -13.3 -15.1 L-13.6 -14.4 -14.0 -10.6 -14.0 -9.2 Q-13.85 -7.35 -13.25 -5.7 L-13.1 -5.25 -12.45 -3.95 -11.8 -3.25 Q-11.4 -2.95 -11.4 -2.5 L-11.3 -2.4 -9.5 -1.65 -10.35 -2.4 Q-11.45 -3.4 -12.25 -5.1 L-12.5 -5.7 Q-13.2 -7.4 -13.05 -9.1 L-13.0 -8.85 Q-12.7 -7.15 -12.0 -5.65 L-11.05 -3.8 -9.95 -2.55 -9.5 -2.3 Q-10.45 -3.65 -11.0 -5.2 L-11.05 -5.4 Q-11.8 -7.45 -11.8 -9.6 -11.8 -12.3 -11.15 -15.05 -11.45 -11.1 -11.05 -7.1 L-10.7 -5.3 -10.25 -4.05 -9.7 -3.2 Q-9.15 -2.4 -8.4 -1.75 L-9.65 -4.8 -10.05 -5.85 -10.5 -8.0 Q-10.95 -11.95 -10.2 -15.8 L-10.7 -16.4 M-10.25 -1.2 L-11.85 -2.05 -11.9 -0.15 -10.8 0.2 -11.7 1.7 -11.45 2.85 -10.45 3.4 -10.85 4.05 -10.6 5.5 -9.5 5.55 -10.25 -1.2 M-6.95 0.75 L-6.9 0.7 -6.95 0.65 -7.0 0.65 -7.1 0.65 Q-7.5 -0.4 -7.45 -1.6 L-7.75 -1.7 -7.75 -1.6 -7.65 -1.25 -7.9 -1.2 -8.2 -1.15 Q-9.2 -1.3 -9.6 -0.75 L-9.5 -0.05 -9.5 0.0 -9.55 0.0 -9.6 0.1 -9.5 0.15 -8.7 6.65 -5.35 6.95 -6.0 5.65 -5.85 2.5 -7.0 0.8 -6.95 0.8 -6.95 0.75 M-6.5 -1.35 L-6.65 -1.5 -6.6 -1.3 -5.6 1.8 -1.75 2.8 -1.65 2.8 -1.7 2.6 Q-4.7 1.25 -6.5 -1.35 M-4.55 3.3 L-4.95 3.5 -5.05 3.6 -4.65 6.25 -1.8 5.45 -1.85 4.3 -2.15 3.9 Q-3.1 3.25 -4.55 3.3 M-9.45 6.05 L-9.45 6.0 -9.5 6.05 -9.45 6.05 M-9.35 7.7 L-9.45 6.35 -10.05 6.0 -10.95 6.0 -11.2 5.45 Q-11.6 4.45 -11.2 3.55 L-12.05 3.05 -12.05 2.95 Q-12.35 1.45 -11.6 0.45 L-12.25 0.45 -12.25 0.5 -12.5 2.75 -12.55 3.65 -13.15 4.85 -13.25 5.9 Q-12.95 7.25 -11.85 8.0 -11.2 8.55 -10.45 8.55 -10.6 9.0 -9.95 8.2 L-9.35 7.7 M-13.75 8.35 L-12.8 9.85 -11.55 10.0 -11.25 9.3 -13.55 6.85 -13.75 8.35 M-14.35 9.2 L-16.45 12.75 -16.05 13.55 -16.15 14.2 -15.25 14.55 -13.45 13.1 -13.05 13.75 -12.6 13.85 -11.55 10.5 -13.7 9.8 -14.35 9.2 M-2.65 24.5 L-4.8 24.3 -4.35 24.95 -2.65 24.5 M-7.25 24.05 L-7.4 24.95 Q-5.15 27.75 -1.45 27.7 -0.35 26.65 -0.45 24.85 -0.45 24.5 -0.95 24.45 L-4.1 25.5 -4.8 25.15 -5.1 24.45 -7.25 24.05" fill="#000000" fill-rule="evenodd" stroke="none"/>
    <path d="M0.15 -23.25 L0.15 -23.3 0.2 -23.2 0.15 -23.25 M15.4 -0.05 L15.25 -0.15 15.45 -0.15 15.4 -0.05" fill="#ffd9ec" fill-rule="evenodd" stroke="none"/>
    <path d="M12.25 -16.1 L13.15 -14.4 13.8 -11.5 13.9 -10.75 13.9 -10.55 Q13.45 -10.3 13.65 -9.8 L13.75 -8.8 Q13.5 -6.85 12.75 -5.25 L12.6 -4.8 11.6 -3.1 11.0 -2.4 9.35 -1.7 9.55 -1.7 9.2 -1.6 9.35 -1.7 9.25 -1.7 10.1 -2.45 Q11.35 -3.4 12.05 -5.05 12.95 -7.1 12.7 -9.1 L12.7 -8.85 Q12.2 -6.1 10.75 -3.85 L9.65 -2.55 9.2 -2.3 Q10.75 -4.2 11.15 -6.65 11.85 -10.85 10.85 -15.05 11.15 -10.85 10.7 -6.65 10.35 -3.6 8.1 -1.75 L9.8 -5.85 Q10.4 -7.55 10.4 -9.5 10.45 -12.7 9.95 -15.8 L10.55 -17.55 11.3 -17.05 Q11.15 -16.9 11.65 -16.65 L12.25 -16.1 M4.8 -20.3 L4.85 -20.3 7.3 -19.55 8.25 -19.05 8.55 -18.8 9.65 -18.2 Q9.95 -16.9 9.4 -15.8 8.8 -14.6 7.45 -14.25 L6.75 -14.55 7.4 -18.55 6.9 -18.75 6.85 -18.3 6.5 -17.25 Q6.05 -15.9 4.6 -15.35 L4.55 -15.35 4.6 -15.35 5.0 -16.15 5.0 -16.6 5.15 -18.0 5.05 -19.15 4.65 -19.55 4.35 -16.75 3.9 -15.55 3.7 -15.35 3.25 -15.15 3.45 -15.65 3.55 -16.75 3.5 -17.4 3.45 -17.25 3.0 -15.7 Q2.6 -14.95 2.0 -14.5 L1.9 -14.7 1.9 -15.6 1.9 -15.8 1.65 -18.95 Q1.6 -19.2 1.2 -19.2 L1.0 -19.25 0.4 -18.9 -0.05 -18.35 -0.1 -18.25 -0.25 -18.35 Q-0.65 -19.05 -1.35 -19.25 L-1.4 -19.2 -1.45 -19.2 -1.6 -19.2 Q-2.45 -18.9 -2.35 -17.75 L-2.15 -15.7 -2.1 -14.65 Q-3.0 -14.4 -3.4 -15.55 L-3.5 -15.9 Q-3.9 -17.45 -3.7 -19.0 L-3.75 -19.25 Q-4.2 -17.35 -3.65 -15.55 L-3.55 -15.15 -4.0 -15.4 -5.15 -19.5 -5.25 -19.15 Q-5.75 -17.6 -5.25 -16.15 L-4.85 -15.35 Q-5.95 -15.75 -6.6 -16.75 -7.25 -17.65 -7.2 -18.75 L-7.6 -18.25 -7.0 -14.55 -7.85 -14.25 Q-9.0 -14.6 -9.65 -15.85 -10.25 -16.95 -9.95 -18.2 L-8.4 -19.05 -8.4 -19.0 -4.85 -20.35 -4.85 -20.3 -3.75 -20.45 -0.4 -20.85 0.1 -20.85 0.65 -20.75 0.65 -20.8 0.8 -20.75 0.85 -20.75 1.15 -20.7 4.6 -20.35 4.8 -20.3 M8.15 -1.75 L8.1 -1.7 8.15 -1.75 M-10.7 -16.4 L-10.2 -15.8 Q-10.95 -11.95 -10.5 -8.0 L-10.05 -5.85 -9.65 -4.8 -8.4 -1.75 Q-9.15 -2.4 -9.7 -3.2 L-10.25 -4.05 -10.7 -5.3 -11.05 -7.1 Q-11.45 -11.1 -11.15 -15.05 -11.8 -12.3 -11.8 -9.6 -11.8 -7.45 -11.05 -5.4 L-11.0 -5.2 Q-10.45 -3.65 -9.5 -2.3 L-9.95 -2.55 -11.05 -3.8 -12.0 -5.65 Q-12.7 -7.15 -13.0 -8.85 L-13.05 -9.1 Q-13.2 -7.4 -12.5 -5.7 L-12.25 -5.1 Q-11.45 -3.4 -10.35 -2.4 L-9.5 -1.65 -11.3 -2.4 -11.4 -2.5 Q-11.4 -2.95 -11.8 -3.25 L-12.45 -3.95 -13.1 -5.25 -13.25 -5.7 Q-13.85 -7.35 -14.0 -9.2 L-14.0 -10.6 -13.6 -14.4 -13.3 -15.1 Q-12.75 -15.6 -12.55 -16.05 -12.25 -16.75 -11.45 -16.9 L-10.85 -17.55 -10.7 -16.4" fill="#564623" fill-rule="evenodd" stroke="none"/>
    <path d="M14.65 -2.9 L14.65 -2.95 14.7 -3.0 14.75 -2.95 14.65 -2.9" fill="#d9b0c8" fill-rule="evenodd" stroke="none"/>
    <path d="M-1.5 -16.6 L-1.55 -16.65 -1.5 -16.7 -1.55 -17.9 -1.3 -18.3 -0.15 -17.7 0.0 -17.75 Q0.5 -18.4 1.15 -18.15 L1.1 -16.65 1.15 -16.65 1.1 -16.6 0.2 -16.2 0.1 -16.0 0.05 -15.9 0.05 -15.85 -0.15 -15.75 -0.25 -15.85 -0.3 -15.9 -0.75 -16.05 -0.8 -16.1 -0.85 -16.15 -0.85 -16.2 -1.5 -16.6 M7.1 -13.95 L7.15 -13.95 7.35 -13.9 Q8.55 -14.1 9.15 -15.05 L9.55 -12.75 9.6 -12.65 9.6 -12.6 9.55 -12.5 9.5 -12.5 9.0 -12.9 8.95 -12.95 Q8.65 -13.0 8.5 -13.2 L8.4 -13.3 7.6 -13.55 6.9 -13.85 6.9 -13.9 7.0 -13.95 7.1 -13.95 M-9.6 -12.45 L-9.65 -12.5 -9.6 -12.55 -9.4 -15.05 -7.9 -14.05 -7.65 -13.9 -7.4 -13.9 -7.45 -13.75 -7.4 -13.75 -7.4 -13.7 -7.6 -13.45 -8.15 -13.25 -8.15 -13.2 -8.2 -13.15 -8.6 -12.9 -9.3 -12.55 -9.4 -12.4 -9.6 -12.45 M5.9 -14.8 L5.3 -15.15 6.15 -15.55 5.9 -14.8 M5.4 -1.35 Q3.3 1.4 0.1 2.2 L-0.4 2.2 Q-3.55 1.35 -5.65 -1.35 -3.7 -0.75 -1.4 -0.55 2.1 -0.35 5.4 -1.35 M-6.2 -14.85 L-6.4 -15.55 -5.5 -15.1 -6.2 -14.8 -6.2 -14.85 M-0.1 -16.05 L-0.15 -16.05 -0.15 -16.0 -0.1 -16.05" fill="#f5c79a" fill-rule="evenodd" stroke="none"/>
    <path d="M1.1 -16.6 L1.0 -14.4 1.8 -14.35 1.95 -14.2 3.6 -14.75 3.7 -14.7 3.45 -14.3 3.4 -14.3 3.3 -14.1 3.25 -14.1 3.25 -14.0 3.0 -13.65 3.0 -13.6 2.85 -13.25 2.85 -13.2 2.55 -12.65 Q2.2 -11.85 2.2 -10.8 2.2 -9.55 2.7 -8.65 L2.95 -8.25 Q3.15 -8.05 3.45 -8.0 L4.2 -7.8 4.95 -7.85 5.55 -7.9 6.35 -7.6 Q6.65 -7.6 7.0 -7.9 8.25 -8.8 8.8 -10.0 7.7 -11.6 7.05 -13.1 6.65 -14.1 7.1 -13.95 L7.0 -13.95 6.9 -13.9 6.9 -13.85 7.6 -13.55 8.4 -13.3 8.5 -13.2 Q8.65 -13.0 8.95 -12.95 L9.0 -12.9 9.5 -12.5 9.55 -12.5 Q9.9 -8.55 8.55 -4.65 L8.05 -3.25 Q4.15 -1.3 -0.3 -1.35 -4.45 -1.35 -7.85 -3.0 L-8.3 -3.25 -8.6 -4.0 -8.85 -4.65 Q-9.75 -7.25 -9.7 -9.95 L-9.6 -12.45 -9.4 -12.4 -9.3 -12.55 -8.6 -12.9 -8.2 -13.15 -8.15 -13.2 -8.15 -13.25 -7.6 -13.45 -9.1 -10.0 -8.2 -8.65 Q-7.55 -8.0 -6.55 -7.65 L-5.55 -8.0 -5.05 -7.85 -4.65 -7.8 -4.5 -7.8 -3.45 -8.0 -3.0 -8.6 -2.95 -8.65 Q-2.5 -9.55 -2.5 -10.8 -2.5 -11.55 -2.65 -12.15 L-3.1 -13.45 -3.25 -13.95 -3.8 -14.45 -3.85 -14.45 -3.85 -14.4 -4.0 -14.65 -3.9 -14.75 -2.25 -14.2 -1.4 -14.25 -1.5 -15.8 -1.5 -16.6 -0.85 -16.2 -0.85 -16.15 -0.8 -16.1 -0.75 -16.05 -0.3 -15.9 -0.25 -15.85 -0.15 -15.75 0.05 -15.85 0.05 -15.9 0.1 -16.0 0.2 -16.2 1.1 -16.6 M3.15 -4.75 L4.0 -3.0 Q4.1 -2.7 4.3 -2.7 L4.4 -2.85 4.3 -4.0 Q4.0 -5.5 2.55 -5.95 L2.55 -5.85 3.15 -4.75 M2.25 -4.65 L1.9 -4.8 1.8 -4.75 1.75 -4.7 0.6 -4.95 0.3 -4.95 -1.75 -4.9 Q-2.35 -4.85 -2.4 -4.55 L-2.6 -4.45 -2.6 -4.35 -2.3 -4.0 Q-2.05 -2.95 -0.75 -2.65 L0.1 -2.5 0.75 -2.55 Q1.6 -2.85 2.15 -3.6 L2.25 -3.9 2.5 -4.45 2.25 -4.65 M11.3 10.55 L13.4 9.85 14.05 9.25 16.15 12.8 15.75 13.6 15.85 14.25 14.95 14.6 13.15 13.15 12.75 13.8 12.3 13.9 11.25 10.55 11.3 10.55 M-0.1 -16.05 L-0.15 -16.0 -0.15 -16.05 -0.1 -16.05 M-3.7 -4.7 L-4.0 -2.8 -3.9 -2.45 Q-3.05 -2.25 -3.1 -3.45 L-2.9 -5.5 -2.85 -5.85 -2.95 -6.05 Q-3.45 -5.65 -3.7 -4.7 M-14.35 9.2 L-13.7 9.8 -11.55 10.5 -12.6 13.85 -13.05 13.75 -13.45 13.1 -15.25 14.55 -16.15 14.2 -16.05 13.55 -16.45 12.75 -14.35 9.2" fill="#fbe9d2" fill-rule="evenodd" stroke="none"/>
    <path d="M3.45 -14.3 Q4.75 -14.55 5.8 -13.7 7.25 -12.5 7.25 -10.45 L7.2 -9.35 6.7 -8.75 6.4 -8.4 5.5 -8.1 Q5.95 -8.55 5.95 -9.35 L6.15 -10.8 Q6.15 -12.05 5.7 -12.95 5.2 -13.85 4.5 -13.85 L4.2 -13.8 4.05 -13.75 3.5 -13.1 Q3.0 -12.3 2.9 -11.3 L2.85 -10.8 Q2.85 -9.6 3.3 -8.75 L3.35 -8.65 4.2 -7.8 3.45 -8.0 Q3.15 -8.05 2.95 -8.25 L2.7 -8.65 Q2.2 -9.55 2.2 -10.8 2.2 -11.85 2.55 -12.65 L2.85 -13.2 2.85 -13.25 3.0 -13.6 3.0 -13.65 3.25 -14.0 3.25 -14.1 3.3 -14.1 3.4 -14.3 3.45 -14.3 M4.95 -7.85 L5.2 -7.9 5.35 -8.0 5.4 -8.0 5.55 -7.9 4.95 -7.85 M-5.55 -8.0 L-6.0 -8.35 -7.3 -9.1 Q-8.15 -11.25 -6.65 -13.15 -5.55 -14.45 -4.0 -14.35 L-3.9 -14.35 -3.85 -14.4 -3.85 -14.45 -3.8 -14.45 -3.25 -13.95 -3.1 -13.45 -2.65 -12.15 Q-2.5 -11.55 -2.5 -10.8 -2.5 -9.55 -2.95 -8.65 L-3.0 -8.6 -3.45 -8.0 -4.5 -7.8 -4.1 -8.15 -3.5 -8.95 Q-3.15 -9.75 -3.15 -10.8 L-3.2 -11.55 -3.7 -12.85 -4.5 -13.75 -4.5 -13.8 -4.6 -13.8 -4.65 -13.8 -4.75 -13.8 Q-5.4 -13.8 -5.85 -12.9 -6.35 -12.05 -6.35 -10.8 -6.35 -9.55 -5.85 -8.65 L-5.05 -7.85 -5.55 -8.0 M4.15 -13.15 L4.85 -13.1 5.0 -13.0 5.25 -12.5 5.15 -12.1 Q4.95 -11.55 4.55 -11.6 L4.1 -11.8 Q3.4 -12.4 4.15 -13.15 M-5.3 -13.0 L-4.75 -13.35 -4.4 -13.2 -4.15 -12.95 -4.1 -12.7 Q-3.95 -11.95 -4.55 -11.5 L-4.9 -11.4 -5.6 -11.95 -5.6 -12.0 -5.6 -12.3 -5.55 -12.55 -5.35 -12.9 -5.3 -13.0" fill="#ffffff" fill-rule="evenodd" stroke="none"/>
    <path d="M2.25 -4.65 L2.5 -4.45 2.25 -3.9 2.15 -3.6 Q1.6 -2.85 0.75 -2.55 L0.1 -2.5 -0.75 -2.65 Q-2.05 -2.95 -2.3 -4.0 L-2.6 -4.35 -2.6 -4.45 -2.4 -4.55 Q-2.35 -4.85 -1.75 -4.9 L0.3 -4.95 0.6 -4.95 1.75 -4.7 1.8 -4.75 1.9 -4.8 2.25 -4.65 M0.3 -3.25 Q0.75 -3.35 1.15 -3.6 L1.65 -4.1 1.4 -4.2 0.75 -4.25 -0.05 -4.1 -1.05 -4.25 -1.55 -4.1 -1.55 -3.95 -1.55 -3.9 -1.5 -3.8 -1.45 -3.7 Q-0.65 -3.15 0.15 -3.25 L0.25 -3.25 0.3 -3.25" fill="#fe8bc6" fill-rule="evenodd" stroke="none"/>
    <path d="M0.3 -3.25 L0.25 -3.25 0.15 -3.25 Q-0.65 -3.15 -1.45 -3.7 L-1.5 -3.8 -1.55 -3.9 -1.55 -3.95 -1.55 -4.1 -1.05 -4.25 -0.05 -4.1 0.75 -4.25 1.4 -4.2 1.65 -4.1 1.15 -3.6 Q0.75 -3.35 0.3 -3.25" fill="#993300" fill-rule="evenodd" stroke="none"/>
    <path d="M-6.95 0.75 L-6.95 0.8 -7.0 0.8 -6.95 0.75" fill="#9c0150" fill-rule="evenodd" stroke="none"/>
    <path d="M9.2 6.4 L9.15 6.45 9.15 6.4 9.2 6.4 M8.2 7.1 L8.3 7.05 8.2 7.1" fill="#ffe6f2" fill-rule="evenodd" stroke="none"/>
    <path d="M6.75 0.7 L6.75 0.85 6.7 0.85 6.75 0.7 M9.2 0.25 L9.2 0.2 9.2 0.25 M9.25 0.05 L9.2 0.0 9.25 0.0 9.25 0.05 M12.9 17.2 L12.9 17.3 12.8 17.25 12.9 17.2 M-9.5 0.0 L-9.5 -0.05 -9.5 0.0" fill="#d3016a" fill-rule="evenodd" stroke="none"/>
    <path d="M2.4 24.5 L4.55 24.3 4.05 24.95 2.4 24.5 M-2.65 24.5 L-4.35 24.95 -4.8 24.3 -2.65 24.5" fill="#470125" fill-rule="evenodd" stroke="none"/>
    <path d="M3.15 -4.75 L2.55 -5.85 2.55 -5.95 Q4.0 -5.5 4.3 -4.0 L4.4 -2.85 4.3 -2.7 Q4.1 -2.7 4.0 -3.0 L3.15 -4.75 M-3.7 -4.7 Q-3.45 -5.65 -2.95 -6.05 L-2.85 -5.85 -2.9 -5.5 -3.1 -3.45 Q-3.05 -2.25 -3.9 -2.45 L-4.0 -2.8 -3.7 -4.7" fill="#edb192" fill-rule="evenodd" stroke="none"/>
    <path d="M-13.9 -15.9 Q-14.65 -15.35 -15.25 -16.05 L-16.2 -16.9 -16.25 -17.05 Q-15.35 -19.9 -12.95 -22.2 -10.3 -24.8 -6.75 -26.2 L-1.9 -27.55 -0.4 -27.4 0.1 -27.4 Q1.35 -27.7 2.9 -27.4 8.65 -26.45 12.6 -22.15 L14.25 -20.2 15.75 -17.55 16.0 -17.05 14.3 -15.65 Q13.7 -15.8 13.2 -16.1 12.45 -16.45 11.75 -17.35 L10.7 -18.55 Q8.4 -21.3 5.3 -22.75 L4.95 -22.8 5.0 -22.85 4.75 -23.05 4.2 -23.1 4.15 -23.1 4.0 -23.2 4.05 -23.2 4.1 -23.25 4.15 -23.35 4.15 -23.4 4.1 -23.4 0.5 -24.0 0.4 -23.9 0.35 -23.85 0.35 -23.8 0.5 -23.4 0.55 -23.25 0.35 -23.35 0.25 -23.4 0.15 -23.35 0.15 -23.3 0.15 -23.25 Q-1.0 -23.85 -2.3 -23.8 -7.9 -23.15 -11.8 -18.9 L-14.0 -16.2 -13.9 -15.9 M14.75 -2.95 Q14.85 -4.65 14.25 -6.35 13.8 -7.6 14.2 -9.45 16.05 -7.3 16.8 -4.8 L16.95 -3.7 17.0 0.85 15.4 -0.05 15.45 -0.15 15.5 -0.15 15.65 -0.1 15.7 -0.15 15.85 -0.3 15.45 -0.8 15.45 -0.85 15.45 -0.95 15.4 -1.05 Q15.0 -1.8 14.85 -2.65 L14.8 -2.8 14.85 -2.8 14.75 -2.95" fill="#eae0ca" fill-rule="evenodd" stroke="none"/>
    <path d="M4.95 -22.8 L4.95 -22.75 4.9 -22.75 4.85 -22.7 5.7 -22.2 8.85 -19.7 Q3.9 -21.85 -1.1 -21.45 L-5.8 -20.9 Q-7.95 -20.4 -9.6 -19.4 -11.8 -18.05 -13.4 -16.15 L-13.5 -16.3 Q-11.15 -18.9 -8.6 -20.85 -5.9 -22.95 -2.4 -23.2 L0.35 -23.1 0.2 -23.2 0.15 -23.3 0.15 -23.35 0.25 -23.4 0.35 -23.35 0.55 -23.25 0.5 -23.4 0.35 -23.8 0.35 -23.85 0.4 -23.9 0.5 -24.0 4.1 -23.4 4.15 -23.4 4.15 -23.35 4.1 -23.25 4.05 -23.2 4.0 -23.2 4.15 -23.1 4.2 -23.1 4.75 -23.05 5.0 -22.85 4.95 -22.8 M15.25 -0.15 L15.1 -0.2 15.05 -0.25 13.9 -0.95 13.3 -3.2 12.95 -3.65 13.8 -5.15 14.15 -4.0 14.65 -2.9 14.75 -2.95 14.85 -2.8 14.8 -2.8 14.85 -2.65 Q15.0 -1.8 15.4 -1.05 L15.45 -0.95 15.45 -0.85 15.45 -0.8 15.85 -0.3 15.7 -0.15 15.65 -0.1 15.5 -0.15 15.45 -0.15 15.25 -0.15" fill="#ccb47b" fill-rule="evenodd" stroke="none"/>
    <path d="M6.75 0.85 Q8.05 0.9 9.2 0.25 L8.4 6.65 8.4 6.7 6.75 6.85 6.75 6.8 5.05 6.95 5.55 6.05 Q5.85 4.45 5.6 2.5 L6.2 1.6 6.7 0.85 6.75 0.85 M12.8 17.25 L13.15 18.6 Q13.55 20.2 12.65 21.15 11.3 22.5 9.6 22.65 L8.5 22.95 Q3.25 24.1 -2.05 24.05 L-9.35 22.8 -10.85 22.6 -11.5 22.25 Q-13.55 21.45 -13.45 19.3 L-13.2 17.3 -13.2 17.25 -13.0 16.6 -12.45 14.95 -12.15 14.0 -11.6 12.2 -11.15 11.2 -10.6 10.15 -9.9 9.2 -9.15 8.35 -9.0 8.15 -7.2 8.85 Q-4.7 9.7 -2.0 9.8 L5.8 9.0 6.9 8.85 6.9 8.9 7.4 8.75 8.7 8.2 8.9 8.4 9.1 8.65 9.6 9.25 10.3 10.2 10.85 11.25 11.3 12.25 11.8 13.85 11.85 14.05 11.95 14.3 12.15 15.0 12.25 15.3 12.7 16.65 12.9 17.2 12.8 17.25 M-7.0 0.8 L-5.85 2.5 -6.0 5.65 -5.35 6.95 -8.7 6.65 -9.5 0.15 Q-8.35 0.85 -7.0 0.8" fill="#cfb196" fill-rule="evenodd" stroke="none"/>
    <path d="M6.75 0.7 L6.8 0.7 7.1 -0.45 7.15 -1.55 7.2 -1.55 7.35 -1.6 7.45 -1.65 7.45 -1.55 7.4 -1.35 7.35 -1.2 7.6 -1.15 7.85 -1.05 7.9 -1.1 Q8.8 -1.25 9.25 -0.75 L9.3 -0.7 9.25 0.0 9.2 0.0 9.25 0.05 9.3 0.15 9.2 0.2 9.2 0.25 Q8.05 0.9 6.75 0.85 L6.75 0.7 M3.35 7.05 L-3.65 7.05 -2.0 6.45 1.7 6.45 3.35 7.05 M7.0 24.15 L7.2 24.25 Q7.3 25.1 6.55 25.75 L3.8 27.4 1.2 27.7 0.6 27.1 Q0.05 26.05 0.2 24.85 L0.65 24.45 3.4 25.4 3.85 25.5 4.55 25.15 4.8 24.45 5.35 24.4 7.0 24.15 M-9.5 -0.05 L-9.6 -0.75 Q-9.2 -1.3 -8.2 -1.15 L-7.9 -1.2 -7.65 -1.25 -7.75 -1.6 -7.75 -1.7 -7.45 -1.6 Q-7.5 -0.4 -7.1 0.65 L-7.0 0.65 -6.95 0.65 -6.9 0.7 -6.95 0.75 -7.0 0.8 Q-8.35 0.85 -9.5 0.15 L-9.6 0.1 -9.55 0.0 -9.5 0.0 -9.5 -0.05 M-7.25 24.05 L-5.1 24.45 -4.8 25.15 -4.1 25.5 -0.95 24.45 Q-0.45 24.5 -0.45 24.85 -0.35 26.65 -1.45 27.7 -5.15 27.75 -7.4 24.95 L-7.25 24.05" fill="#a37649" fill-rule="evenodd" stroke="none"/>
    <path d="M6.0 -1.0 L6.5 -1.65 5.35 1.8 1.4 2.8 1.5 2.55 Q2.7 1.8 3.85 1.15 5.25 0.4 6.0 -1.0 M11.55 -2.0 L11.6 -0.1 10.5 0.25 11.4 1.75 11.15 2.9 10.2 3.45 10.15 3.45 10.55 4.1 10.3 5.55 9.2 5.6 9.95 -1.15 11.55 -2.0 M9.2 6.4 L9.75 6.05 10.65 6.05 10.9 5.5 11.0 5.25 Q11.25 4.4 10.9 3.6 L10.95 3.6 11.75 3.1 11.75 3.0 Q12.0 1.7 11.5 0.8 L11.3 0.5 11.95 0.5 11.95 0.55 12.25 2.8 12.25 3.7 12.85 4.9 12.95 5.95 Q12.65 7.3 11.55 8.05 10.95 8.55 10.25 8.6 L10.15 8.6 9.65 8.25 9.1 7.75 9.05 7.75 9.15 6.45 9.2 6.4 M13.45 8.4 L12.5 9.9 11.25 10.05 10.95 9.35 13.25 6.9 13.45 8.4 M0.85 3.25 Q1.25 3.7 1.25 4.35 1.25 5.0 0.85 5.45 0.45 5.9 -0.1 5.9 -0.65 5.9 -1.05 5.45 -1.45 5.0 -1.45 4.35 -1.45 3.7 -1.05 3.25 -0.65 2.8 -0.1 2.8 0.45 2.8 0.85 3.25 M3.0 3.45 L4.35 3.3 4.5 3.4 Q5.15 4.6 4.35 6.25 L1.55 5.45 1.85 3.9 3.0 3.45 M8.2 7.1 L8.15 7.1 8.1 7.25 8.4 7.8 8.45 7.85 8.45 7.9 8.15 8.0 7.85 8.1 6.85 8.4 0.0 9.0 -0.4 9.0 Q-3.9 9.25 -7.15 8.35 L-8.7 7.85 -8.7 7.75 Q-8.15 7.15 -8.55 7.0 L-7.65 7.25 -7.05 7.35 -0.4 7.8 3.7 7.65 6.8 7.35 6.8 7.4 7.35 7.3 8.0 7.15 8.2 7.1 M-10.25 -1.2 L-9.5 5.55 -10.6 5.5 -10.85 4.05 -10.45 3.4 -11.45 2.85 -11.7 1.7 -10.8 0.2 -11.9 -0.15 -11.85 -2.05 -10.25 -1.2 M-6.6 -1.3 L-6.5 -1.35 Q-4.7 1.25 -1.7 2.6 L-1.75 2.8 -5.6 1.8 -6.6 -1.3 M-4.55 3.3 Q-3.1 3.25 -2.15 3.9 L-1.85 4.3 -1.8 5.45 -4.65 6.25 -5.05 3.6 -4.95 3.5 -4.55 3.3 M-9.35 7.7 L-9.95 8.2 Q-10.6 9.0 -10.45 8.55 -11.2 8.55 -11.85 8.0 -12.95 7.25 -13.25 5.9 L-13.15 4.85 -12.55 3.65 -12.5 2.75 -12.25 0.5 -12.25 0.45 -11.6 0.45 Q-12.35 1.45 -12.05 2.95 L-12.05 3.05 -11.2 3.55 Q-11.6 4.45 -11.2 5.45 L-10.95 6.0 -10.05 6.0 -9.45 6.35 -9.35 7.7 M-13.75 8.35 L-13.55 6.85 -11.25 9.3 -11.55 10.0 -12.8 9.85 -13.75 8.35" fill="#e0dcd3" fill-rule="evenodd" stroke="none"/>
  </g>
</svg>
