<?xml version="1.0" encoding="UTF-8" standalone="no"?>
<svg xmlns:ffdec="https://www.free-decompiler.com/flash" xmlns:xlink="http://www.w3.org/1999/xlink" ffdec:objectType="shape" height="54.55px" width="31.25px" xmlns="http://www.w3.org/2000/svg">
  <g transform="matrix(1.0, 0.0, 0.0, 1.0, 15.6, 27.3)">
    <path d="M11.3 -23.3 Q11.9 -22.95 11.15 -23.05 L9.9 -22.65 11.5 -21.45 14.0 -18.6 Q14.75 -17.5 15.05 -16.2 15.65 -13.7 14.6 -11.3 L15.55 -9.2 Q15.8 -8.15 15.55 -7.05 15.25 -5.95 14.65 -5.0 L13.55 -3.8 Q11.3 -2.5 10.0 0.2 12.6 2.25 13.75 5.4 15.2 9.4 15.05 13.7 15.0 14.6 14.35 15.1 12.8 16.5 10.75 15.9 L10.3 17.4 9.65 17.65 Q10.75 21.55 12.85 24.75 13.2 25.3 13.0 26.0 L11.6 26.85 8.85 27.15 Q5.25 27.2 1.95 25.85 L1.55 24.7 Q1.3 23.55 1.6 22.45 2.15 20.1 1.7 17.75 L1.75 18.25 Q-0.2 16.75 -1.9 18.45 L-1.55 21.4 Q-0.95 23.75 -2.2 25.95 L-4.35 26.55 -8.75 27.15 Q-11.25 27.55 -13.2 26.0 -13.3 24.45 -12.4 23.35 L-11.3 21.85 Q-10.15 19.95 -10.0 17.6 L-10.5 17.4 -10.95 15.9 -13.3 16.05 Q-15.4 15.0 -15.25 12.6 -15.05 9.5 -14.25 6.75 -13.7 4.8 -12.3 3.1 L-10.9 1.2 Q-10.35 0.45 -10.55 -0.05 -11.6 -2.65 -13.8 -4.2 L-14.95 -5.35 Q-15.5 -6.15 -15.55 -7.05 -15.7 -8.55 -15.5 -10.05 L-15.4 -11.5 -15.1 -15.9 Q-15.0 -17.05 -14.5 -18.05 -13.95 -19.2 -13.05 -20.0 -11.4 -21.5 -9.4 -22.55 -7.4 -23.5 -5.25 -24.05 -3.2 -24.55 -1.3 -25.2 L-1.5 -25.25 Q-2.65 -25.35 -3.5 -26.05 L-3.5 -27.3 Q-0.25 -26.95 2.05 -24.95 L3.4 -24.8 7.65 -26.8 6.2 -24.15 Q8.85 -24.65 11.3 -23.3 M-1.4 -12.65 L0.9 -18.15 3.05 -17.25 4.95 -16.0 11.5 -10.2 12.3 -10.6 Q13.85 -11.45 14.35 -13.1 L14.55 -13.95 14.6 -15.7 Q15.15 -16.1 14.8 -16.55 L13.45 -18.05 10.65 -20.7 8.4 -22.15 10.45 -23.45 7.1 -23.9 7.05 -23.9 7.1 -23.85 5.5 -23.9 6.9 -26.2 2.85 -24.3 2.2 -24.35 Q0.05 -25.7 -2.3 -26.65 L-0.45 -25.15 -0.65 -24.55 -2.55 -24.35 Q-5.4 -23.85 -7.9 -22.5 -9.65 -21.7 -11.15 -20.35 L-12.85 -18.75 -13.05 -18.55 -13.05 -18.6 -13.1 -18.55 Q-14.7 -16.65 -14.55 -14.25 L-14.3 -12.85 -14.1 -12.2 Q-13.65 -11.25 -12.9 -10.8 L-11.7 -10.2 -9.7 -12.1 -5.75 -16.35 -7.9 -11.6 -6.5 -12.75 -2.8 -15.25 -8.6 -10.65 -7.85 -13.0 -7.85 -13.1 -7.9 -13.05 -9.05 -12.0 Q-10.7 -10.2 -10.95 -7.85 -10.9 -4.9 -9.75 -2.15 -9.4 -1.35 -8.5 -0.8 -7.4 -0.2 -6.15 0.0 L-0.1 0.5 5.65 0.0 Q7.3 -0.3 8.8 -1.05 L10.15 -2.15 10.65 -2.95 Q11.1 -3.85 11.0 -4.95 L10.8 -8.75 Q8.65 -12.15 5.7 -14.7 L2.75 -16.75 1.15 -17.7 -1.1 -11.95 -1.4 -10.7 -1.85 -10.85 -2.55 -12.4 -2.75 -15.25 -2.1 -15.7 -1.55 -12.7 -1.45 -12.65 -1.4 -12.65 M11.85 -8.05 L11.85 -4.35 Q13.75 -5.1 14.55 -7.0 15.25 -8.8 14.2 -10.6 L13.65 -10.45 Q12.7 -9.85 12.15 -8.85 L11.8 -8.2 11.8 -8.1 11.85 -8.05 M-5.5 -10.65 L-4.9 -11.5 -3.65 -11.15 -4.1 -5.9 -5.65 -6.4 -5.5 -10.65 M4.9 -11.45 Q5.6 -9.0 5.55 -6.4 L3.95 -5.6 3.45 -11.15 4.9 -11.45 M-3.1 -2.3 L-1.65 -1.8 Q1.25 -0.85 3.6 -2.75 L3.55 -2.15 2.7 -1.55 Q1.8 -1.05 0.8 -0.7 L-2.2 -1.35 Q-2.85 -1.55 -3.3 -2.1 -3.8 -2.8 -3.15 -2.35 L-3.15 -2.3 -3.1 -2.3 M5.4 1.35 L4.25 1.7 3.55 2.05 Q2.9 4.95 0.4 6.55 L-0.35 6.55 Q-2.95 4.7 -3.95 1.65 L-4.9 1.55 -2.9 4.8 -0.5 7.7 Q2.15 6.5 3.95 4.45 5.15 3.1 5.4 1.35 M2.4 3.4 L3.3 1.8 -3.5 1.7 -2.6 3.35 -0.2 6.2 2.4 3.4 M9.25 1.4 L9.0 0.95 8.45 0.7 5.75 1.2 5.35 2.85 Q3.4 6.25 -0.15 8.05 L-1.2 7.35 Q-3.5 5.45 -4.95 2.65 L-5.75 1.25 -8.65 0.7 -9.25 1.05 -11.55 3.65 -10.45 5.9 -8.85 8.1 -8.0 7.15 -7.75 7.4 -7.7 7.45 -7.75 7.7 -7.85 7.95 -8.0 8.45 -7.9 8.55 -2.7 8.45 8.25 8.75 7.45 7.7 8.15 7.15 8.65 8.05 9.85 6.8 11.6 4.1 9.25 1.4 M-1.15 9.95 L-1.15 10.8 0.7 10.8 0.7 9.95 -1.15 9.95 M-3.1 11.15 L-3.15 9.35 -8.05 9.8 -8.45 9.6 -8.95 9.9 -9.35 10.9 -3.1 11.15 M-1.45 11.2 L-1.45 9.65 0.95 9.65 0.95 11.2 -1.45 11.2 M-7.75 11.65 L-9.65 11.6 -10.0 16.15 -7.8 16.35 8.05 16.3 9.8 16.15 10.1 15.6 9.55 11.6 8.0 11.7 1.2 12.6 -2.0 13.4 -2.25 13.45 -2.85 13.0 -2.85 12.05 -7.75 11.65 M-8.9 17.45 L-9.75 20.95 -8.7 21.15 -9.05 22.25 -8.1 22.2 -7.3 21.05 -3.6 21.0 -3.1 18.1 -6.25 17.5 -8.9 17.45 M-2.2 11.7 L2.05 11.7 2.05 9.05 -2.2 9.05 -2.2 11.7 M8.95 8.45 L9.65 9.4 Q10.9 8.8 11.65 7.4 L12.15 6.55 12.55 5.65 11.85 4.25 8.95 8.45 M8.75 9.9 L2.95 9.35 2.9 11.15 9.2 10.9 8.75 9.9 M12.5 14.75 L13.5 13.95 Q14.25 13.35 14.1 12.4 L13.5 9.2 13.05 6.65 11.35 8.95 9.75 10.25 10.85 14.25 11.8 13.1 11.35 14.9 12.5 14.75 M-11.95 -8.2 Q-12.5 -10.05 -14.4 -10.6 -15.2 -9.35 -14.9 -7.9 -14.4 -5.45 -12.15 -4.4 -11.35 -6.25 -11.95 -8.2 M-12.3 6.7 Q-11.65 8.4 -9.75 9.25 L-9.05 8.35 -9.8 7.7 Q-11.3 6.2 -11.8 3.95 L-12.7 5.65 -12.3 6.7 M-9.95 10.35 L-13.2 6.65 -14.3 12.1 Q-14.45 12.85 -14.0 13.55 -13.35 14.6 -12.1 14.85 L-11.5 14.9 -11.85 13.05 -11.1 14.25 -9.95 10.35 M-12.3 24.5 Q-11.55 25.85 -10.15 25.5 -6.55 26.15 -3.2 25.4 L-2.35 23.75 -3.3 21.65 -7.0 21.65 -7.8 22.9 -9.75 22.6 -9.35 21.55 -10.15 21.5 -12.3 24.5 M2.2 23.8 L3.05 25.4 Q5.95 26.75 9.0 25.85 L11.0 25.0 11.95 24.25 11.9 24.15 9.95 21.5 9.15 21.55 9.6 22.6 7.6 22.9 6.8 21.65 3.1 21.65 2.2 23.8 M7.95 22.15 L8.85 22.25 8.5 21.15 9.6 20.95 8.75 17.45 2.95 18.1 3.4 21.0 7.1 21.05 7.95 22.15" fill="#000000" fill-rule="evenodd" stroke="none"/>
    <path d="M-12.85 -18.75 L-11.15 -20.35 Q-9.65 -21.7 -7.9 -22.5 L-9.55 -18.25 -8.55 -19.25 -6.3 -21.05 -4.7 -22.05 -4.5 -20.85 -2.7 -21.65 -4.85 -20.2 -5.0 -21.55 -9.95 -17.75 -8.8 -21.65 -13.5 -17.15 -12.85 -18.75 M10.65 -20.7 L13.45 -18.05 14.8 -16.55 Q15.15 -16.1 14.6 -15.7 13.0 -18.0 10.75 -19.8 L9.75 -20.5 11.0 -18.05 7.45 -20.15 10.45 -18.45 9.2 -21.15 10.65 -20.7" fill="#ffffff" fill-rule="evenodd" stroke="none"/>
    <path d="M14.6 -15.7 L14.55 -13.95 14.35 -13.1 Q13.85 -11.45 12.3 -10.6 L11.5 -10.2 4.95 -16.0 3.05 -17.25 0.9 -18.15 -1.4 -12.65 -1.55 -12.7 -2.1 -15.7 -2.75 -15.25 -2.75 -15.3 -2.8 -15.25 -6.5 -12.75 -7.9 -11.6 -5.75 -16.35 -9.7 -12.1 -11.7 -10.2 -12.9 -10.8 Q-13.65 -11.25 -14.1 -12.2 L-14.3 -12.85 -14.55 -14.25 Q-14.7 -16.65 -13.1 -18.55 L-13.05 -18.55 -12.85 -18.75 -13.5 -17.15 -8.8 -21.65 -9.95 -17.75 -5.0 -21.55 -4.85 -20.2 -2.7 -21.65 -4.5 -20.85 -4.7 -22.05 -6.3 -21.05 -8.55 -19.25 -9.55 -18.25 -7.9 -22.5 Q-5.4 -23.85 -2.55 -24.35 L-0.65 -24.55 -0.45 -25.15 -2.3 -26.65 Q0.05 -25.7 2.2 -24.35 L2.85 -24.3 6.9 -26.2 5.5 -23.9 7.1 -23.85 7.1 -23.9 10.45 -23.45 8.4 -22.15 10.65 -20.7 9.2 -21.15 10.45 -18.45 7.45 -20.15 11.0 -18.05 9.75 -20.5 10.75 -19.8 Q13.0 -18.0 14.6 -15.7" fill="#52351b" fill-rule="evenodd" stroke="none"/>
    <path d="M-2.75 -15.25 L-2.55 -12.4 -3.6 -13.9 -10.95 -7.85 Q-10.7 -10.2 -9.05 -12.0 L-7.9 -13.05 -7.85 -13.0 -8.6 -10.65 -2.8 -15.25 -2.75 -15.3 -2.75 -15.25 M-1.1 -11.95 L1.15 -17.7 2.75 -16.75 5.7 -14.7 Q8.65 -12.15 10.8 -8.75 L5.3 -13.5 Q3.6 -15.05 1.5 -15.7 L-1.1 -11.95 M11.8 -8.2 L12.15 -8.85 Q12.7 -9.85 13.65 -10.45 L14.2 -10.6 Q15.25 -8.8 14.55 -7.0 13.75 -5.1 11.85 -4.35 L11.85 -8.05 11.8 -8.2 M-2.6 3.35 L-3.5 1.7 3.3 1.8 2.4 3.4 -2.6 3.35 M-8.9 17.45 L-6.25 17.5 -3.1 18.1 -3.6 21.0 -7.3 21.05 -8.1 22.2 -9.05 22.25 -8.7 21.15 -9.75 20.95 -8.9 17.45 M11.35 8.95 L12.85 13.3 12.5 14.75 11.35 14.9 11.8 13.1 10.85 14.25 9.75 10.25 11.35 8.95 M-11.95 -8.2 Q-11.35 -6.25 -12.15 -4.4 -14.4 -5.45 -14.9 -7.9 -15.2 -9.35 -14.4 -10.6 -12.5 -10.05 -11.95 -8.2 M7.95 22.15 L7.1 21.05 3.4 21.0 2.95 18.1 8.75 17.45 9.6 20.95 8.5 21.15 8.85 22.25 7.95 22.15" fill="#f2bb86" fill-rule="evenodd" stroke="none"/>
    <path d="M-2.55 -12.4 L-1.85 -10.85 -1.4 -10.7 -1.1 -11.95 1.5 -15.7 Q3.6 -15.05 5.3 -13.5 L10.8 -8.75 11.0 -4.95 Q11.1 -3.85 10.65 -2.95 L10.15 -2.15 8.8 -1.05 Q7.3 -0.3 5.65 0.0 L-0.1 0.5 -6.15 0.0 Q-7.4 -0.2 -8.5 -0.8 -9.4 -1.35 -9.75 -2.15 -10.9 -4.9 -10.95 -7.85 L-3.6 -13.9 -2.55 -12.4 M-5.5 -10.65 L-5.65 -6.4 -4.1 -5.9 -3.65 -11.15 -4.9 -11.5 -5.5 -10.65 M4.9 -11.45 L3.45 -11.15 3.95 -5.6 5.55 -6.4 Q5.6 -9.0 4.9 -11.45 M8.75 -5.95 L7.7 -3.85 10.15 -4.35 8.6 -4.45 9.05 -5.4 8.75 -5.95 M-3.15 -2.35 Q-3.8 -2.8 -3.3 -2.1 -2.85 -1.55 -2.2 -1.35 L0.8 -0.7 Q1.8 -1.05 2.7 -1.55 L3.55 -2.15 3.6 -2.75 Q1.25 -0.85 -1.65 -1.8 L-3.1 -2.3 -3.15 -2.35 M-2.6 3.35 L2.4 3.4 -0.2 6.2 -2.6 3.35 M-7.85 -4.6 L-9.2 -5.95 -8.85 -5.05 -7.85 -4.6 M-8.95 -4.0 L-10.35 -4.6 -10.2 -4.2 -9.45 -3.75 -8.95 -4.0 M11.35 8.95 L13.05 6.65 13.5 9.2 14.1 12.4 Q14.25 13.35 13.5 13.95 L12.5 14.75 12.85 13.3 11.35 8.95 M-9.95 10.35 L-11.1 14.25 -11.85 13.05 -11.5 14.9 -12.1 14.85 Q-13.35 14.6 -14.0 13.55 -14.45 12.85 -14.3 12.1 L-13.2 6.65 -9.95 10.35" fill="#f8dab6" fill-rule="evenodd" stroke="none"/>
    <path d="M8.75 -5.95 L9.05 -5.4 8.6 -4.45 10.15 -4.35 7.7 -3.85 8.75 -5.95 M-8.95 -4.0 L-9.45 -3.75 -10.2 -4.2 -10.35 -4.6 -8.95 -4.0 M-7.85 -4.6 L-8.85 -5.05 -9.2 -5.95 -7.85 -4.6" fill="#e88b2f" fill-rule="evenodd" stroke="none"/>
    <path d="M5.4 1.35 Q5.15 3.1 3.95 4.45 2.15 6.5 -0.5 7.7 L-2.9 4.8 -4.9 1.55 -3.95 1.65 Q-2.95 4.7 -0.35 6.55 L0.4 6.55 Q2.9 4.95 3.55 2.05 L4.25 1.7 5.4 1.35 M8.95 8.45 L11.85 4.25 12.55 5.65 12.15 6.55 11.65 7.4 Q10.9 8.8 9.65 9.4 L8.95 8.45 M-12.3 6.7 L-12.7 5.65 -11.8 3.95 Q-11.3 6.2 -9.8 7.7 L-9.05 8.35 -9.75 9.25 Q-11.65 8.4 -12.3 6.7" fill="#c6c502" fill-rule="evenodd" stroke="none"/>
    <path d="M5.35 2.85 L5.75 1.2 8.45 0.7 9.0 0.95 9.25 1.4 5.35 2.85 M-9.25 1.05 L-8.65 0.7 -5.75 1.25 -4.95 2.65 -9.25 1.05 M-7.75 11.65 L-7.8 16.35 -10.0 16.15 -9.65 11.6 -7.75 11.65 M8.05 16.3 L8.0 11.7 9.55 11.6 10.1 15.6 9.8 16.15 8.05 16.3" fill="#ced17c" fill-rule="evenodd" stroke="none"/>
    <path d="M5.35 2.85 L9.25 1.4 11.6 4.1 9.85 6.8 8.65 8.05 8.15 7.15 7.45 7.7 8.25 8.75 -2.7 8.45 -7.9 8.55 -8.0 8.45 -7.85 7.95 -7.75 7.7 -7.7 7.45 -7.75 7.4 -8.0 7.15 -8.85 8.1 -10.45 5.9 -11.55 3.65 -9.25 1.05 -4.95 2.65 Q-3.5 5.45 -1.2 7.35 L-0.15 8.05 Q3.4 6.25 5.35 2.85 M-7.8 16.35 L-7.75 11.65 -2.85 12.05 -2.85 13.0 -2.25 13.45 -2.0 13.4 1.2 12.6 8.0 11.7 8.05 16.3 -7.8 16.35" fill="#fefd98" fill-rule="evenodd" stroke="none"/>
    <path d="M-3.1 11.15 L-9.35 10.9 -8.95 9.9 -8.45 9.6 -8.05 9.8 -3.15 9.35 -3.1 11.15 M-1.15 9.95 L0.7 9.95 0.7 10.8 -1.15 10.8 -1.15 9.95 M8.75 9.9 L9.2 10.9 2.9 11.15 2.95 9.35 8.75 9.9 M-12.3 24.5 L-10.15 21.5 -9.35 21.55 -9.75 22.6 -7.8 22.9 -7.0 21.65 -3.3 21.65 -2.35 23.75 -6.15 24.25 -12.3 24.5 M11.9 24.15 Q11.55 24.65 10.75 24.85 L6.55 24.6 2.2 23.8 3.1 21.65 6.8 21.65 7.6 22.9 9.6 22.6 9.15 21.55 9.95 21.5 11.9 24.15" fill="#7d6d4a" fill-rule="evenodd" stroke="none"/>
    <path d="M-1.45 11.2 L0.95 11.2 0.95 9.65 -1.45 9.65 -1.45 11.2 M-2.2 11.7 L-2.2 9.05 2.05 9.05 2.05 11.7 -2.2 11.7" fill="#888702" fill-rule="evenodd" stroke="none"/>
    <path d="M-2.35 23.75 L-3.2 25.4 Q-6.55 26.15 -10.15 25.5 -11.55 25.85 -12.3 24.5 L-6.15 24.25 -2.35 23.75 M11.9 24.15 L11.95 24.25 11.0 25.0 9.0 25.85 Q5.95 26.75 3.05 25.4 L2.2 23.8 6.55 24.6 10.75 24.85 Q11.55 24.65 11.9 24.15" fill="#4b402e" fill-rule="evenodd" stroke="none"/>
  </g>
</svg>
