<?xml version="1.0" encoding="UTF-8" standalone="no"?>
<svg xmlns:ffdec="https://www.free-decompiler.com/flash" xmlns:xlink="http://www.w3.org/1999/xlink" ffdec:objectType="shape" height="65.0px" width="44.35px" xmlns="http://www.w3.org/2000/svg">
  <g transform="matrix(1.0, 0.0, 0.0, 1.0, 21.65, 29.9)">
    <path d="M-8.6 -26.0 L-9.75 -29.2 Q-7.3 -29.2 -5.5 -27.65 L-4.3 -29.9 -1.95 -27.6 0.55 -28.75 3.1 -27.6 5.25 -29.9 6.6 -27.7 10.8 -29.2 9.65 -26.0 10.15 -28.8 6.25 -26.95 5.25 -29.45 3.65 -27.15 5.2 -25.9 7.85 -23.85 10.1 -21.75 11.4 -20.5 12.95 -18.6 14.95 -18.95 13.1 -18.3 12.75 -17.4 12.75 -16.75 12.8 -15.4 12.85 -14.5 13.2 -13.85 Q13.6 -12.8 13.05 -11.9 L12.85 -11.5 13.0 -11.5 13.0 -11.45 13.2 -11.0 14.55 -10.2 16.8 -8.6 17.85 -10.0 18.65 -11.4 19.55 -11.0 Q20.5 -10.35 20.45 -9.1 L20.25 -7.6 20.1 -6.9 19.9 -6.3 22.7 -5.2 18.65 -4.1 17.85 -3.15 16.15 -1.7 13.75 0.15 12.45 1.05 11.75 1.45 11.0 1.75 11.2 3.0 Q11.4 4.6 11.2 6.25 L10.95 7.5 10.8 8.1 10.55 9.0 10.35 9.95 Q10.15 11.2 9.4 12.4 L8.85 13.2 9.15 14.1 9.8 16.65 10.15 18.25 10.3 19.05 10.6 20.1 10.9 20.95 11.45 22.4 11.65 23.3 12.15 25.7 12.3 26.45 12.55 27.15 12.7 27.85 13.0 29.15 13.15 31.85 Q13.1 32.95 12.45 33.85 L11.8 34.5 10.95 35.05 9.0 34.7 7.15 34.05 6.75 32.7 5.75 29.25 5.25 27.5 4.95 26.7 4.65 25.8 4.45 25.05 3.55 22.65 2.75 20.7 2.45 20.0 1.25 23.15 0.55 23.7 0.1 23.3 -1.1 20.7 -1.35 20.0 -2.1 22.1 -3.55 25.8 -4.15 27.5 -4.35 28.3 -4.55 29.0 -4.75 29.7 -5.4 31.75 -5.85 33.1 Q-6.4 34.65 -7.85 34.85 L-8.4 35.1 -9.0 35.1 -9.55 35.05 -10.65 34.55 -11.25 34.2 -11.75 32.7 Q-12.3 31.1 -11.85 29.4 L-11.35 27.35 -11.1 26.25 -10.9 25.55 -10.8 24.95 -10.35 22.9 -10.05 21.55 -9.35 19.0 -9.2 18.35 -8.9 17.3 -8.6 16.25 -8.1 14.5 -7.35 12.15 -10.45 12.05 -10.85 11.5 Q-11.65 10.1 -11.25 8.65 L-11.0 7.65 -10.85 7.0 -10.8 6.4 -10.75 5.7 -10.25 2.8 -10.05 2.15 Q-9.35 0.35 -7.75 -0.2 L-7.05 -0.3 -7.0 -0.85 -8.2 -1.8 Q-9.75 -2.85 -11.0 -4.4 L-11.7 -5.3 -12.8 -4.5 -14.05 -4.0 -15.9 -3.9 -17.2 -4.0 -18.35 -4.4 -19.25 -4.65 -20.2 -4.8 -21.65 -5.2 -19.85 -5.9 -18.6 -6.45 -16.75 -7.65 -15.7 -8.6 -15.2 -9.05 -14.6 -9.45 Q-13.4 -10.15 -12.15 -11.0 L-12.0 -11.45 -11.95 -11.5 -11.8 -11.5 -11.85 -11.75 -11.95 -12.1 Q-12.2 -12.95 -11.95 -13.7 L-11.9 -14.3 -11.8 -15.1 -11.55 -16.35 -11.55 -16.5 -11.55 -17.45 -12.1 -18.3 Q-13.55 -19.2 -15.35 -18.95 L-17.25 -18.9 -15.95 -19.4 -15.25 -19.35 -13.6 -19.3 -12.0 -18.65 Q-11.45 -19.05 -11.05 -19.6 -8.65 -22.85 -5.3 -25.1 L-2.55 -27.15 -4.2 -29.45 -5.35 -26.9 -9.1 -28.8 -8.6 -26.0 M9.65 -25.9 Q11.7 -26.6 13.25 -27.85 14.1 -28.6 14.55 -29.55 L14.8 -28.8 Q15.35 -26.7 14.25 -24.85 L13.5 -23.9 14.35 -23.95 13.0 -22.7 Q16.75 -22.05 18.85 -19.0 L18.95 -18.8 16.55 -19.15 18.15 -19.15 18.25 -19.1 16.95 -20.5 14.75 -21.85 11.8 -22.4 13.9 -23.7 11.65 -23.05 13.05 -24.35 Q13.85 -25.2 14.15 -26.25 L14.65 -29.1 13.9 -28.1 Q13.1 -26.95 11.75 -26.4 L9.55 -25.5 9.65 -25.9 M12.45 -15.15 L12.5 -16.15 12.0 -16.95 11.75 -17.25 9.35 -20.05 12.2 -17.65 11.85 -18.55 10.1 -20.9 Q7.0 -24.4 3.25 -26.8 L0.55 -28.4 Q-4.0 -26.1 -7.55 -22.55 L-10.85 -18.6 -11.3 -17.75 -11.05 -17.7 -9.35 -19.1 -7.95 -20.35 -11.1 -16.55 -11.4 -16.15 -11.35 -15.3 -11.55 -14.95 -11.5 -14.85 -11.4 -14.85 -8.45 -16.4 -10.25 -15.05 -11.75 -13.65 -11.4 -11.95 -10.95 -11.65 -10.95 -11.8 -10.8 -12.15 Q-10.15 -13.15 -8.85 -13.8 L-7.25 -14.35 -5.15 -14.65 -0.05 -15.1 2.1 -15.05 4.3 -14.9 6.45 -14.65 7.75 -14.4 9.05 -14.1 10.45 -13.6 11.9 -12.45 11.9 -12.35 12.1 -11.7 12.15 -11.65 12.3 -11.65 12.45 -11.85 12.95 -13.1 12.6 -13.6 11.35 -15.0 9.85 -16.1 8.75 -16.75 6.8 -17.45 7.55 -17.35 9.35 -16.85 9.5 -16.75 9.65 -16.7 12.45 -15.15 M11.25 -12.6 L10.7 -13.15 9.8 -13.6 11.25 -11.1 11.6 -11.85 11.25 -12.6 M1.6 -13.9 L0.05 -13.5 -0.55 -13.85 -2.0 -14.3 -3.9 -14.45 -5.75 -14.2 -8.3 -13.7 -9.25 -11.65 -9.75 -9.5 Q-9.9 -8.3 -9.45 -7.05 L-8.75 -4.5 -8.2 -3.05 -7.4 -1.7 -6.15 -0.65 Q-5.2 0.15 -3.9 0.7 L-2.1 1.4 -0.9 1.9 0.4 1.95 1.5 1.7 2.3 0.85 Q2.45 0.65 2.85 0.6 L3.3 0.7 3.75 1.2 5.2 0.65 Q5.9 0.4 6.5 -0.05 L7.7 -0.95 9.15 -2.75 9.6 -3.8 10.1 -5.3 10.55 -6.8 11.0 -8.9 11.0 -9.55 10.75 -10.65 10.3 -11.95 9.35 -13.7 8.05 -14.05 6.15 -14.25 4.75 -14.4 3.2 -14.3 1.6 -13.9 M2.3 -14.4 L3.8 -14.6 1.6 -14.75 -3.2 -14.65 -1.5 -14.4 0.55 -13.9 2.3 -14.4 M8.15 -11.85 L6.2 -11.85 4.8 -11.6 3.65 -10.95 2.55 -10.05 Q3.0 -11.0 3.9 -11.5 5.15 -12.15 6.5 -12.25 L8.2 -12.05 9.8 -11.5 8.15 -11.85 M5.15 -11.0 L7.0 -10.7 8.3 -9.8 10.3 -7.2 7.0 -3.7 Q5.95 -3.45 4.75 -3.7 L3.25 -4.1 3.0 -5.25 Q2.8 -6.5 3.05 -7.6 L3.1 -8.85 2.9 -8.9 Q2.45 -9.0 2.6 -9.4 2.95 -10.3 3.9 -10.7 L5.15 -11.0 M5.7 -8.1 L5.45 -8.55 4.95 -8.65 4.55 -8.55 3.5 -8.8 3.5 -6.6 Q3.55 -5.6 3.75 -4.55 L3.8 -4.7 4.9 -4.4 5.65 -4.25 6.0 -4.85 6.5 -6.05 6.75 -7.3 6.85 -8.2 5.7 -8.35 5.7 -8.1 M4.5 -7.3 L5.55 -7.25 5.4 -6.35 5.05 -5.65 4.75 -5.45 4.55 -6.15 4.5 -7.3 M8.4 -7.8 L7.2 -9.5 7.2 -7.4 6.85 -5.35 6.65 -4.6 6.55 -4.1 7.1 -4.05 7.95 -5.25 8.5 -6.3 8.7 -6.9 8.4 -7.8 M6.7 -9.25 L6.5 -9.95 4.8 -9.8 4.15 -9.45 6.7 -9.25 M1.0 -0.2 L2.4 -0.5 3.95 -1.4 Q3.3 -0.5 2.25 0.0 L1.5 0.25 -0.55 0.2 -1.45 -0.15 Q-2.45 -0.5 -2.9 -1.35 L-2.5 -1.05 Q-1.85 -0.5 -0.85 -0.25 L1.0 -0.2 M8.8 -1.5 L8.1 -0.3 9.25 -0.1 11.0 -1.6 11.75 -2.2 12.5 -2.85 13.85 -4.25 12.8 -5.3 12.25 -4.4 11.6 -3.65 10.85 -3.05 9.4 -2.1 8.8 -1.5 M18.3 -9.9 L17.6 -8.45 16.6 -6.9 15.75 -5.7 14.85 -4.55 13.85 -3.35 12.55 -2.05 11.45 -1.15 10.3 -0.1 8.9 0.9 7.35 1.9 6.6 2.4 5.7 3.0 4.8 3.6 5.55 4.85 Q5.85 4.85 6.15 4.55 L7.1 3.8 8.55 3.0 Q9.15 2.6 9.8 2.25 L11.2 1.35 12.8 0.35 14.15 -0.7 15.35 -1.6 16.8 -3.05 17.95 -4.25 19.05 -5.65 19.4 -6.25 19.65 -6.85 19.9 -7.45 20.2 -8.95 Q20.4 -10.4 19.25 -11.05 18.65 -10.85 18.3 -9.9 M15.9 -7.15 L13.85 -8.65 13.7 -7.65 13.45 -6.85 12.9 -5.55 14.25 -4.7 16.05 -7.15 15.9 -7.15 M16.85 -8.0 L14.95 -9.35 14.25 -9.8 13.45 -10.3 13.9 -8.8 16.4 -7.35 16.85 -8.0 M12.75 -7.4 L12.9 -9.0 12.7 -10.6 Q11.55 -9.5 11.25 -7.95 L10.8 -6.1 10.45 -4.7 10.35 -3.35 10.5 -3.05 10.7 -3.4 11.25 -4.2 12.15 -5.65 12.75 -7.4 M18.95 -4.6 L21.15 -5.25 19.75 -6.0 18.95 -4.6 M10.85 4.9 L10.8 3.55 10.45 2.05 6.55 4.85 7.05 5.65 7.75 4.25 7.75 4.6 7.6 6.1 7.5 7.3 7.5 7.75 9.6 8.5 7.8 8.45 8.0 10.55 6.5 11.65 8.4 12.3 8.95 12.05 9.35 11.15 9.8 9.9 10.2 8.15 10.65 6.3 10.85 4.9 M7.85 0.5 L7.55 1.1 8.6 0.45 7.85 0.5 M7.05 1.4 L7.25 0.7 6.6 0.75 6.35 0.9 Q5.85 1.6 5.6 2.55 L6.1 2.25 6.85 1.65 7.05 1.4 M6.2 0.5 L6.2 0.45 6.2 0.5 3.9 1.6 4.15 2.1 4.6 3.15 5.5 1.9 5.95 1.1 6.2 0.5 M5.75 5.35 L6.25 6.4 7.0 6.8 6.1 5.1 5.75 5.35 M6.0 8.55 L6.05 8.55 6.45 8.4 6.95 8.05 6.7 7.2 5.85 7.05 5.05 5.4 3.7 2.9 3.9 1.95 3.55 1.25 3.05 1.05 2.5 1.2 2.05 1.55 Q2.05 2.4 2.45 3.1 L3.05 4.05 3.1 4.2 3.8 5.1 4.55 6.3 5.35 8.15 5.75 8.45 6.0 8.6 6.0 8.55 M2.0 3.15 L1.9 2.9 1.75 2.4 -0.95 2.2 -2.0 1.85 -3.75 1.1 -4.8 0.6 -4.9 0.5 -4.85 0.65 -4.7 1.05 -4.55 1.45 -4.5 1.55 -2.65 4.1 -1.9 4.9 -1.55 5.15 -1.3 5.1 0.35 4.4 1.6 4.0 2.35 3.85 2.0 3.2 2.0 3.15 M1.4 5.8 L1.15 5.2 1.05 4.4 Q-0.4 4.85 -0.8 6.25 L-0.95 7.15 -0.35 8.2 0.05 8.75 2.0 8.65 2.95 8.2 Q3.7 7.75 3.8 6.95 L2.9 5.0 1.8 4.3 1.4 4.7 1.4 5.8 M2.7 8.95 L2.75 9.2 2.9 9.4 3.55 10.0 4.9 10.8 Q5.85 11.35 6.85 11.3 L7.5 10.75 7.6 9.7 7.5 8.6 7.45 8.6 7.15 8.8 6.6 9.15 Q5.55 9.15 4.7 8.55 L4.6 7.85 4.2 7.55 3.35 8.45 2.7 8.95 M0.95 9.9 L1.8 9.85 2.1 10.0 2.25 10.15 2.9 9.95 2.1 9.2 0.75 9.05 0.1 9.0 -0.7 8.9 -0.8 8.85 -0.85 9.4 -0.9 9.95 0.35 9.9 0.95 9.9 M2.3 10.4 L2.3 10.55 2.1 11.65 2.7 11.6 Q3.75 11.6 4.5 11.05 L3.25 10.2 2.3 10.4 M1.8 10.2 L-0.85 10.5 -0.8 11.0 -0.5 11.9 1.5 12.0 1.55 11.95 1.8 10.5 1.8 10.2 M0.2 11.05 Q-0.25 11.15 -0.2 11.55 L-0.5 11.05 1.55 10.85 1.5 11.0 Q1.0 11.45 0.5 11.15 L0.2 11.05 M3.95 11.7 L2.05 11.85 1.8 12.35 -0.8 12.35 -1.15 11.7 -4.4 12.05 -4.2 12.8 -3.55 14.45 -2.75 16.25 -2.1 17.9 -1.4 19.55 -0.75 21.1 -0.15 22.3 0.6 23.3 1.05 22.6 1.8 21.15 2.45 19.7 3.05 18.3 3.55 16.95 4.15 15.55 4.75 14.25 5.35 12.95 5.85 11.65 5.2 11.4 4.8 11.2 3.95 11.7 M6.35 12.2 L2.65 19.55 Q3.75 21.35 4.2 23.35 L5.5 22.95 Q5.85 21.5 7.05 21.05 L7.85 20.8 Q8.9 20.95 9.55 21.5 L9.8 21.85 10.65 21.55 10.0 18.9 9.8 18.2 9.6 17.5 9.45 16.8 9.25 15.85 8.65 13.85 8.25 12.85 7.35 12.35 6.35 12.2 M4.6 24.15 L5.2 24.55 5.9 24.35 5.75 23.45 4.45 23.7 4.6 24.15 M10.6 22.65 L10.7 22.55 Q11.0 22.0 9.9 22.15 L10.25 22.55 10.6 22.65 M6.65 21.85 L6.15 22.8 Q5.9 23.45 6.15 24.25 L6.45 24.65 9.35 24.55 9.9 23.85 9.8 23.2 9.6 22.55 Q9.2 21.95 8.6 21.75 L6.65 21.85 M10.95 23.2 L10.4 23.55 10.05 24.0 9.0 24.9 8.8 25.15 6.0 24.75 5.4 24.95 6.2 25.1 7.95 25.45 8.1 25.45 8.45 25.35 9.15 25.15 9.6 24.95 10.75 24.35 10.85 24.05 10.95 23.2 M12.55 29.8 L12.3 28.5 11.35 24.65 9.2 25.45 7.55 26.0 6.85 26.0 5.35 25.55 5.35 26.1 5.45 26.85 6.05 29.1 6.6 31.0 7.35 32.9 Q7.65 33.5 8.2 33.95 L8.9 34.45 10.3 34.7 11.25 33.95 12.15 32.85 12.6 31.35 12.55 29.8 M12.15 28.65 L12.0 29.25 11.55 29.6 11.8 31.2 11.45 31.35 Q10.0 32.1 8.35 32.0 L7.9 30.1 9.5 29.85 Q10.9 29.75 11.85 29.0 L11.95 28.5 11.75 27.95 12.15 28.65 M10.85 26.4 L10.25 26.9 Q8.85 27.85 7.15 27.6 L6.25 27.35 6.35 27.3 7.25 27.3 8.95 27.1 10.05 26.85 10.85 26.4 M11.45 31.2 L11.55 31.0 11.4 29.85 8.25 30.35 8.7 31.55 11.45 31.2 M-8.55 -25.9 L-8.5 -25.55 -10.2 -26.3 Q-11.6 -27.1 -12.65 -28.25 -13.35 -29.05 -13.6 -28.25 -13.65 -24.9 -10.7 -23.2 L-12.85 -23.7 -10.75 -22.4 Q-15.1 -22.25 -17.8 -18.9 -16.65 -20.55 -15.05 -21.6 -13.6 -22.5 -11.95 -22.7 L-13.35 -23.9 -12.45 -23.9 Q-14.45 -26.6 -13.6 -29.8 -12.1 -26.7 -8.55 -25.9 M-17.95 -18.65 L-17.55 -18.8 -18.05 -18.55 -17.95 -18.65 M-9.05 -13.4 L-9.9 -12.7 -10.5 -11.85 -10.2 -11.1 Q-9.45 -12.15 -8.85 -13.35 -8.5 -13.65 -9.05 -13.4 M-11.6 -10.6 L-12.15 -7.5 -11.75 -6.7 -11.35 -5.95 -10.4 -4.45 -9.5 -3.15 -9.2 -2.95 -9.2 -3.25 -9.25 -3.95 -9.75 -6.1 -10.05 -7.2 -10.5 -8.75 -10.7 -9.55 -11.6 -10.6 M-12.25 -6.25 L-12.4 -6.6 -12.55 -7.3 -12.75 -8.65 -15.25 -7.2 -14.6 -7.7 -13.4 -8.5 -12.7 -8.95 -12.35 -10.3 -13.05 -9.8 -14.5 -8.8 -15.85 -7.9 -17.25 -6.9 -18.15 -6.2 -19.1 -5.75 -20.1 -5.25 -19.3 -4.95 -17.75 -4.55 -15.45 -4.4 -14.05 -4.55 -12.95 -5.05 Q-12.4 -5.25 -11.85 -5.55 L-12.2 -6.15 -12.25 -6.25 M-1.65 -10.7 Q-1.0 -10.2 -1.65 -10.2 L-3.05 -11.15 Q-5.85 -12.45 -8.75 -11.45 L-7.8 -11.75 -6.05 -12.2 -4.5 -12.05 -3.0 -11.5 -1.65 -10.7 M-3.1 -10.6 Q-2.35 -10.25 -1.7 -9.7 -1.4 -9.1 -1.9 -8.9 L-2.2 -8.8 Q-1.8 -6.75 -2.05 -4.65 L-2.2 -4.1 Q-4.1 -3.3 -5.95 -3.7 L-9.25 -7.2 Q-7.9 -9.4 -5.8 -10.55 L-4.6 -11.05 -3.1 -10.6 M-3.65 -10.05 L-5.45 -9.95 -5.65 -9.25 -4.05 -9.25 -2.85 -9.65 -3.65 -10.05 M-3.45 -8.55 Q-4.15 -9.0 -4.45 -8.2 L-4.6 -7.85 -4.65 -8.35 -5.75 -8.2 Q-5.65 -6.4 -4.95 -4.9 L-4.6 -4.25 Q-3.55 -4.1 -2.7 -4.7 -2.15 -5.95 -2.35 -7.7 L-2.45 -8.8 -3.45 -8.55 M-4.6 -7.05 Q-3.9 -6.55 -3.35 -7.25 L-3.25 -7.4 -3.35 -6.1 Q-3.45 -5.7 -3.85 -5.55 L-4.0 -5.65 -4.55 -6.25 -4.6 -7.05 M-6.55 -9.05 L-7.3 -7.85 -7.6 -6.9 -7.1 -5.75 -6.0 -4.05 -5.5 -4.1 -5.6 -4.6 -5.75 -5.4 -6.0 -7.4 -6.1 -9.5 -6.55 -9.05 M-5.75 2.2 L-5.35 3.45 -4.9 4.95 -5.4 5.9 -5.9 7.05 -5.05 6.75 -4.6 6.6 -3.95 6.6 -1.95 6.9 -1.65 7.0 -1.5 7.0 -1.2 6.1 -1.45 5.85 -1.55 5.7 -2.2 5.05 -2.95 4.25 -5.55 0.75 -6.2 0.75 -5.75 2.2 M-9.45 2.35 L-9.75 3.45 -10.0 4.55 -10.3 6.25 -10.55 7.85 -10.7 9.15 -10.9 10.55 Q-10.6 11.55 -9.7 11.85 L-8.85 11.9 -9.5 10.9 Q-10.0 9.9 -9.4 9.05 L-9.0 8.4 -8.5 8.0 -7.55 7.5 -7.35 7.45 Q-6.95 6.95 -6.9 6.35 L-6.7 4.95 -6.65 4.25 -6.15 4.9 -6.1 5.2 -6.05 5.4 -5.9 5.65 Q-5.25 5.25 -5.45 4.6 L-6.7 0.45 Q-7.75 0.3 -8.45 0.9 -9.15 1.45 -9.45 2.35 M-7.4 7.75 Q-8.25 7.9 -8.9 8.55 -9.6 9.25 -9.35 10.15 L-8.95 11.35 -8.05 11.75 -6.5 11.4 -6.15 10.8 Q-6.75 9.5 -6.6 8.2 -6.9 7.8 -7.4 7.75 M-5.95 8.1 Q-6.75 8.95 -6.3 10.1 -5.95 11.05 -4.9 11.2 L-3.4 11.25 -3.0 11.0 Q-2.9 10.05 -3.1 9.1 L-2.7 9.95 -2.35 10.65 Q-1.9 10.25 -1.75 9.7 -1.35 8.5 -2.15 7.75 -2.8 7.15 -3.75 7.05 -4.9 7.2 -5.6 7.85 L-5.95 8.1 M-5.25 11.75 L-6.65 12.05 -7.1 12.8 -7.95 15.1 -8.55 17.5 -8.95 18.85 -9.55 21.55 -8.7 21.85 Q-8.15 21.0 -6.8 20.8 L-5.55 21.6 -4.1 23.25 -3.15 23.35 -1.6 19.55 -5.25 11.75 M-1.3 10.85 L-1.85 11.2 -1.15 11.6 -1.3 10.85 M-9.0 22.5 L-8.95 22.35 -9.1 22.2 -9.4 22.1 -9.9 22.35 -9.2 23.1 -9.0 22.5 M-7.0 24.95 L-6.75 25.05 -7.2 25.1 Q-8.65 25.05 -9.3 23.55 -9.65 23.15 -9.95 23.55 L-9.7 24.4 -7.9 25.25 -5.3 25.2 -4.05 25.0 -3.95 24.95 -4.05 24.95 -6.25 25.0 -5.9 24.95 -5.95 24.95 -5.45 24.7 -5.05 24.35 -5.0 24.3 -5.0 24.25 Q-4.55 22.9 -5.55 21.85 -6.6 21.4 -7.7 21.5 -8.65 22.05 -8.9 23.45 -8.65 24.25 -7.7 24.7 L-7.0 24.95 M-4.7 23.45 L-4.8 24.35 -3.85 24.5 -3.4 23.7 -4.7 23.45 M-4.3 25.55 L-5.8 25.85 -7.0 26.0 -8.15 25.75 -9.15 25.25 -10.25 24.65 -10.75 26.45 -11.2 28.45 -11.2 28.5 -11.2 28.6 -11.2 28.7 -11.3 29.15 -11.5 30.55 -11.4 32.05 -10.65 33.45 -9.15 34.5 -8.35 34.55 -6.95 33.65 -6.15 32.55 -5.5 31.1 -5.05 29.5 -4.65 28.1 -4.35 26.75 -4.3 26.1 -4.3 25.55 M-5.1 27.35 Q-5.75 27.75 -6.75 27.7 L-8.4 27.1 -9.8 26.4 -7.4 27.4 -5.85 27.4 -5.1 27.35 M-10.55 31.0 L-10.8 30.8 -10.5 29.6 -11.15 28.7 -10.7 27.95 -10.65 28.05 -10.7 28.1 -10.75 28.25 -10.85 28.85 -9.8 29.55 -6.85 30.1 -7.0 31.8 -7.55 31.95 -9.3 31.7 -9.4 31.65 -9.9 31.4 -8.9 31.45 -7.6 31.55 -7.2 30.35 -10.35 29.85 -10.4 31.1 -10.55 31.0" fill="#000000" fill-rule="evenodd" stroke="none"/>
    <path d="M4.55 -8.55 L4.95 -8.65 5.45 -8.55 5.7 -8.1 5.7 -7.8 5.55 -7.25 4.5 -7.3 4.45 -7.55 4.55 -8.55 M8.4 -7.8 L8.7 -6.9 8.5 -6.3 7.95 -5.25 7.1 -4.05 6.55 -4.1 6.65 -4.6 6.85 -5.35 7.2 -7.4 7.2 -9.5 8.4 -7.8 M6.7 -9.25 L4.15 -9.45 4.8 -9.8 6.5 -9.95 6.7 -9.25 M-3.65 -10.05 L-2.85 -9.65 -4.05 -9.25 -5.65 -9.25 -5.45 -9.95 -3.65 -10.05 M-3.45 -8.55 L-3.2 -8.2 -3.25 -7.4 -3.35 -7.25 Q-3.9 -6.55 -4.6 -7.05 L-4.6 -7.85 -4.45 -8.2 Q-4.15 -9.0 -3.45 -8.55 M-6.55 -9.05 L-6.1 -9.5 -6.0 -7.4 -5.75 -5.4 -5.6 -4.6 -5.5 -4.1 -6.0 -4.05 -7.1 -5.75 -7.6 -6.9 -7.3 -7.85 -6.55 -9.05" fill="#ffffff" fill-rule="evenodd" stroke="none"/>
    <path d="M4.15 2.1 L3.9 1.6 6.2 0.5 5.95 1.1 5.35 1.55 4.15 2.1 M-4.8 0.6 L-3.75 1.1 -2.0 1.85 -0.95 2.2 1.75 2.4 1.9 2.9 2.0 3.15 1.15 3.55 0.45 3.65 0.2 3.65 -1.55 3.2 -3.7 2.05 -4.55 1.45 -4.7 1.05 -4.85 0.65 -4.8 0.6 M1.9 2.9 L1.85 2.9 1.9 2.9 M10.95 23.2 L10.85 24.05 10.75 24.35 9.6 24.95 9.15 25.15 8.45 25.35 8.1 25.45 7.95 25.45 6.2 25.1 5.4 24.95 6.0 24.75 8.8 25.15 9.0 24.9 10.05 24.0 10.4 23.55 10.95 23.2 M11.45 31.2 L8.7 31.55 8.25 30.35 11.4 29.85 11.55 31.0 11.45 31.2 M-4.05 25.0 L-5.3 25.2 -7.9 25.25 -9.7 24.4 -9.95 23.55 Q-9.65 23.15 -9.3 23.55 -8.65 25.05 -7.2 25.1 L-6.75 25.05 -7.0 24.95 -5.95 24.95 -5.9 24.95 -6.25 25.0 -4.05 24.95 -4.05 25.0 M-9.4 31.65 Q-10.1 31.6 -10.55 31.0 L-10.4 31.1 -10.35 29.85 -7.2 30.35 -7.6 31.55 -8.9 31.45 -9.9 31.4 -9.4 31.65" fill="#ad8763" fill-rule="evenodd" stroke="none"/>
    <path d="M1.6 -13.9 L3.2 -14.3 4.75 -14.4 6.15 -14.25 8.05 -14.05 9.35 -13.7 10.3 -11.95 10.75 -10.65 11.0 -9.55 11.0 -8.9 10.55 -6.8 10.1 -5.3 9.6 -3.8 9.15 -2.75 7.7 -0.95 6.5 -0.05 Q5.9 0.4 5.2 0.65 L3.75 1.2 3.3 0.7 2.85 0.6 Q2.45 0.65 2.3 0.85 L1.5 1.7 0.4 1.95 -0.9 1.9 -2.1 1.4 -3.9 0.7 Q-5.2 0.15 -6.15 -0.65 L-7.4 -1.7 -8.2 -3.05 -8.75 -4.5 -9.45 -7.05 Q-9.9 -8.3 -9.75 -9.5 L-9.25 -11.65 -8.3 -13.7 -5.75 -14.2 -3.9 -14.45 -2.0 -14.3 -0.55 -13.85 0.05 -13.5 1.6 -13.9 M8.15 -11.85 L9.8 -11.5 8.2 -12.05 6.5 -12.25 Q5.15 -12.15 3.9 -11.5 3.0 -11.0 2.55 -10.05 L3.65 -10.95 4.8 -11.6 6.2 -11.85 8.15 -11.85 M5.15 -11.0 L3.9 -10.7 Q2.95 -10.3 2.6 -9.4 2.45 -9.0 2.9 -8.9 L3.1 -8.85 3.05 -7.6 Q2.8 -6.5 3.0 -5.25 L3.25 -4.1 4.75 -3.7 Q5.95 -3.45 7.0 -3.7 L10.3 -7.2 8.3 -9.8 7.0 -10.7 5.15 -11.0 M1.0 -0.2 L-0.85 -0.25 Q-1.85 -0.5 -2.5 -1.05 L-2.9 -1.35 Q-2.45 -0.5 -1.45 -0.15 L-0.55 0.2 1.5 0.25 2.25 0.0 Q3.3 -0.5 3.95 -1.4 L2.4 -0.5 1.0 -0.2 M12.75 -7.4 L12.15 -5.65 11.25 -4.2 10.7 -3.4 10.5 -3.05 10.35 -3.35 10.45 -4.7 10.8 -6.1 11.25 -7.95 Q11.55 -9.5 12.7 -10.6 L12.9 -9.0 12.75 -7.4 M10.85 4.9 L10.65 6.3 10.2 8.15 9.8 9.9 9.35 11.15 8.95 12.05 8.4 12.3 6.5 11.65 8.0 10.55 7.8 8.45 9.6 8.5 7.5 7.75 7.5 7.3 7.6 6.1 7.75 4.6 7.75 4.25 7.05 5.65 6.55 4.85 10.45 2.05 10.8 3.55 10.85 4.9 M7.85 0.5 L8.6 0.45 7.55 1.1 7.85 0.5 M6.2 0.5 L6.2 0.45 6.2 0.5 M4.15 2.1 L5.35 1.55 5.95 1.1 5.5 1.9 4.6 3.15 4.15 2.1 M2.0 3.15 L2.0 3.2 2.35 3.85 1.6 4.0 0.35 4.4 -1.3 5.1 -1.55 5.15 -1.9 4.9 -2.65 4.1 -4.5 1.55 -4.55 1.45 -3.7 2.05 -1.55 3.2 0.2 3.65 0.45 3.65 1.15 3.55 2.0 3.15 M1.9 2.9 L1.85 2.9 1.9 2.9 M1.4 5.8 L1.4 4.7 1.8 4.3 2.9 5.0 3.8 6.95 Q3.7 7.75 2.95 8.2 L2.0 8.65 0.05 8.75 -0.35 8.2 -0.95 7.15 -0.8 6.25 Q-0.4 4.85 1.05 4.4 L1.15 5.2 1.4 5.8 M6.35 12.2 L7.35 12.35 8.25 12.85 8.65 13.85 9.25 15.85 9.45 16.8 9.6 17.5 9.8 18.2 10.0 18.9 10.65 21.55 9.8 21.85 9.55 21.5 Q8.9 20.95 7.85 20.8 L7.05 21.05 Q5.85 21.5 5.5 22.95 L4.2 23.35 Q3.75 21.35 2.65 19.55 L6.35 12.2 M-11.6 -10.6 L-10.7 -9.55 -10.5 -8.75 -10.05 -7.2 -9.75 -6.1 -9.25 -3.95 -9.2 -3.25 -9.2 -2.95 -9.5 -3.15 -10.4 -4.45 -11.35 -5.95 -11.75 -6.7 -12.15 -7.5 -11.6 -10.6 M-1.65 -10.7 L-3.0 -11.5 -4.5 -12.05 -6.05 -12.2 -7.8 -11.75 -8.75 -11.45 Q-5.85 -12.45 -3.05 -11.15 L-1.65 -10.2 Q-1.0 -10.2 -1.65 -10.7 M-3.1 -10.6 L-4.6 -11.05 -5.8 -10.55 Q-7.9 -9.4 -9.25 -7.2 L-5.95 -3.7 Q-4.1 -3.3 -2.2 -4.1 L-2.05 -4.65 Q-1.8 -6.75 -2.2 -8.8 L-1.9 -8.9 Q-1.4 -9.1 -1.7 -9.7 -2.35 -10.25 -3.1 -10.6 M-9.45 2.35 Q-9.15 1.45 -8.45 0.9 -7.75 0.3 -6.7 0.45 L-5.45 4.6 Q-5.25 5.25 -5.9 5.65 L-6.05 5.4 -6.1 5.2 -6.15 4.9 -6.65 4.25 -6.7 4.95 -6.9 6.35 Q-6.95 6.95 -7.35 7.45 L-7.55 7.5 -8.5 8.0 -9.0 8.4 -9.4 9.05 Q-10.0 9.9 -9.5 10.9 L-8.85 11.9 -9.7 11.85 Q-10.6 11.55 -10.9 10.55 L-10.7 9.15 -10.55 7.85 -10.3 6.25 -10.0 4.55 -9.75 3.45 -9.45 2.35 M-5.95 8.1 L-5.6 7.85 Q-4.9 7.2 -3.75 7.05 -2.8 7.15 -2.15 7.75 -1.35 8.5 -1.75 9.7 -1.9 10.25 -2.35 10.65 L-2.7 9.95 -3.1 9.1 Q-2.9 10.05 -3.0 11.0 L-3.4 11.25 -4.9 11.2 Q-5.95 11.05 -6.3 10.1 -6.75 8.95 -5.95 8.1 M-5.25 11.75 L-1.6 19.55 -3.15 23.35 -4.1 23.25 -5.55 21.6 -6.8 20.8 Q-8.15 21.0 -8.7 21.85 L-9.55 21.55 -8.95 18.85 -8.55 17.5 -7.95 15.1 -7.1 12.8 -6.65 12.05 -5.25 11.75" fill="#ceb8a4" fill-rule="evenodd" stroke="none"/>
    <path d="M18.3 -9.9 Q18.65 -10.85 19.25 -11.05 20.4 -10.4 20.2 -8.95 L19.9 -7.45 19.65 -6.85 19.4 -6.25 19.05 -5.65 17.95 -4.25 16.8 -3.05 15.35 -1.6 14.15 -0.7 12.8 0.35 11.2 1.35 9.8 2.25 Q9.15 2.6 8.55 3.0 L7.1 3.8 6.15 4.55 Q5.85 4.85 5.55 4.85 L4.8 3.6 5.7 3.0 6.6 2.4 7.35 1.9 8.9 0.9 10.3 -0.1 11.45 -1.15 12.55 -2.05 13.85 -3.35 14.85 -4.55 15.75 -5.7 16.6 -6.9 17.6 -8.45 18.3 -9.9" fill="#ccdeee" fill-rule="evenodd" stroke="none"/>
    <path d="M-8.6 -26.0 L-9.1 -28.8 -5.35 -26.9 -4.2 -29.45 -2.55 -27.15 -5.3 -25.1 -7.75 -26.0 -7.4 -24.35 -10.25 -24.95 -10.95 -24.95 -9.4 -22.35 -10.1 -22.05 -10.55 -21.55 -11.3 -21.3 Q-14.0 -21.1 -15.95 -19.4 L-17.25 -18.9 -17.55 -18.8 -17.95 -18.65 -18.0 -18.65 -17.8 -18.9 Q-15.1 -22.25 -10.75 -22.4 L-12.85 -23.7 -10.7 -23.2 Q-13.65 -24.9 -13.6 -28.25 -13.35 -29.05 -12.65 -28.25 -11.6 -27.1 -10.2 -26.3 L-8.5 -25.55 -8.55 -25.9 -8.6 -26.0 M11.4 -20.5 L10.1 -21.75 Q11.25 -22.55 11.85 -23.7 L12.5 -25.15 12.4 -25.05 Q10.45 -24.15 8.4 -24.25 L8.3 -26.15 6.2 -25.4 5.35 -26.65 5.2 -25.9 3.65 -27.15 5.25 -29.45 6.25 -26.95 10.15 -28.8 9.65 -26.0 9.6 -25.9 9.65 -25.9 9.55 -25.5 11.75 -26.4 Q13.1 -26.95 13.9 -28.1 L14.65 -29.1 14.15 -26.25 Q13.85 -25.2 13.05 -24.35 L11.65 -23.05 13.9 -23.7 11.8 -22.4 14.75 -21.85 16.95 -20.5 18.25 -19.1 18.15 -19.15 17.65 -19.4 Q14.75 -20.85 11.4 -20.5 M7.85 -23.85 L7.85 -23.9 7.85 -23.85 M6.0 8.6 L5.75 8.45 5.35 8.15 4.55 6.3 3.8 5.1 3.1 4.2 3.05 4.05 2.45 3.1 Q2.05 2.4 2.05 1.55 L2.5 1.2 3.05 1.05 3.55 1.25 3.9 1.95 3.7 2.9 5.05 5.4 5.85 7.05 6.7 7.2 6.95 8.05 6.45 8.4 6.05 8.55 6.0 8.55 6.0 8.6" fill="#d0cf84" fill-rule="evenodd" stroke="none"/>
    <path d="M-5.3 -25.1 Q-8.65 -22.85 -11.05 -19.6 -11.45 -19.05 -12.0 -18.65 L-13.6 -19.3 -15.25 -19.35 -15.95 -19.4 Q-14.0 -21.1 -11.3 -21.3 L-10.55 -21.55 -10.1 -22.05 -9.4 -22.35 -10.95 -24.95 -10.25 -24.95 -7.4 -24.35 -7.75 -26.0 -5.3 -25.1 M14.95 -18.95 L12.95 -18.6 11.4 -20.5 Q14.75 -20.85 17.65 -19.4 L18.15 -19.15 16.55 -19.15 15.8 -19.25 14.95 -18.95 M10.1 -21.75 L7.85 -23.85 5.2 -25.9 5.35 -26.65 6.2 -25.4 8.3 -26.15 8.4 -24.25 Q10.45 -24.15 12.4 -25.05 L12.5 -25.15 11.85 -23.7 Q11.25 -22.55 10.1 -21.75 M11.25 -12.6 L11.6 -11.85 11.25 -11.1 9.8 -13.6 10.7 -13.15 11.25 -12.6 M7.85 -23.85 L7.85 -23.9 7.85 -23.85 M2.3 -14.4 L0.55 -13.9 -1.5 -14.4 -3.2 -14.65 1.6 -14.75 3.8 -14.6 2.3 -14.4 M5.7 -8.1 L5.7 -8.35 6.85 -8.2 6.75 -7.3 6.5 -6.05 6.0 -4.85 5.65 -4.25 4.9 -4.4 3.8 -4.7 3.75 -4.55 Q3.55 -5.6 3.5 -6.6 L3.5 -8.8 4.55 -8.55 4.45 -7.55 4.5 -7.3 4.55 -6.15 4.75 -5.45 5.05 -5.65 5.4 -6.35 5.55 -7.25 5.7 -7.8 5.7 -8.1 M-9.05 -13.4 Q-8.5 -13.65 -8.85 -13.35 -9.45 -12.15 -10.2 -11.1 L-10.5 -11.85 -9.9 -12.7 -9.05 -13.4 M-3.25 -7.4 L-3.2 -8.2 -3.45 -8.55 -2.45 -8.8 -2.35 -7.7 Q-2.15 -5.95 -2.7 -4.7 -3.55 -4.1 -4.6 -4.25 L-4.95 -4.9 Q-5.65 -6.4 -5.75 -8.2 L-4.65 -8.35 -4.6 -7.85 -4.6 -7.05 -4.55 -6.25 -4.0 -5.65 -3.85 -5.55 Q-3.45 -5.7 -3.35 -6.1 L-3.25 -7.4" fill="#686828" fill-rule="evenodd" stroke="none"/>
    <path d="M-11.35 -15.3 L-11.4 -16.15 -11.1 -16.55 -7.95 -20.35 -9.35 -19.1 -11.05 -17.7 -11.3 -17.75 -10.85 -18.6 -7.55 -22.55 Q-4.0 -26.1 0.55 -28.4 L3.25 -26.8 Q7.0 -24.4 10.1 -20.9 L11.85 -18.55 12.2 -17.65 9.35 -20.05 11.75 -17.25 12.0 -16.95 12.5 -16.15 12.45 -15.15 11.0 -16.3 9.85 -17.0 8.6 -17.6 7.3 -18.1 5.5 -18.75 4.65 -18.55 5.05 -18.05 6.1 -17.0 -6.5 -16.55 -5.45 -17.45 -4.35 -18.35 -3.55 -19.05 -4.4 -19.0 -5.8 -18.5 -7.2 -17.8 -8.4 -17.1 -9.9 -16.25 -11.35 -15.3 M9.65 -16.7 L9.5 -16.75 9.35 -16.85 9.65 -16.7 M16.85 -8.0 L16.4 -7.35 13.9 -8.8 13.45 -10.3 14.25 -9.8 14.95 -9.35 16.85 -8.0 M18.95 -4.6 L19.75 -6.0 21.15 -5.25 18.95 -4.6 M-12.7 -8.95 Q-13.5 -8.95 -14.2 -8.35 L-15.5 -7.25 -16.9 -5.95 -17.6 -5.2 -17.45 -5.0 -15.9 -4.9 -14.45 -5.3 Q-13.65 -5.4 -12.95 -5.75 L-12.25 -6.25 -12.2 -6.15 -11.85 -5.55 Q-12.4 -5.25 -12.95 -5.05 L-14.05 -4.55 -15.45 -4.4 -17.75 -4.55 -19.3 -4.95 -20.1 -5.25 -19.1 -5.75 -18.15 -6.2 -17.25 -6.9 -15.85 -7.9 -14.5 -8.8 -13.05 -9.8 -12.35 -10.3 -12.7 -8.95" fill="#838bb8" fill-rule="evenodd" stroke="none"/>
    <path d="M1.8 10.2 L1.8 10.5 1.55 11.95 1.5 12.0 -0.5 11.9 -0.8 11.0 -0.85 10.5 1.8 10.2 M0.2 11.05 L0.5 11.15 Q1.0 11.45 1.5 11.0 L1.55 10.85 -0.5 11.05 -0.2 11.55 Q-0.25 11.15 0.2 11.05" fill="#cccccc" fill-rule="evenodd" stroke="none"/>
    <path d="M2.3 10.4 L3.25 10.2 4.5 11.05 Q3.75 11.6 2.7 11.6 L2.1 11.65 2.3 10.55 2.3 10.4 M-1.3 10.85 L-1.15 11.6 -1.85 11.2 -1.3 10.85" fill="#625948" fill-rule="evenodd" stroke="none"/>
    <path d="M2.7 8.95 L3.35 8.45 4.2 7.55 4.6 7.85 4.7 8.55 Q5.55 9.15 6.6 9.15 L7.15 8.8 7.45 8.6 7.5 8.6 7.6 9.7 7.5 10.75 6.85 11.3 Q5.85 11.35 4.9 10.8 L3.55 10.0 2.9 9.4 2.75 9.2 2.7 8.95 M4.6 24.15 L4.45 23.7 5.75 23.45 5.9 24.35 5.2 24.55 4.6 24.15 M6.65 21.85 L8.6 21.75 Q9.2 21.95 9.6 22.55 L9.8 23.2 9.9 23.85 9.35 24.55 6.45 24.65 6.15 24.25 Q5.9 23.45 6.15 22.8 L6.65 21.85 M10.6 22.65 L10.25 22.55 9.9 22.15 Q11.0 22.0 10.7 22.55 L10.6 22.65 M10.85 26.4 L10.05 26.85 8.95 27.1 7.25 27.3 6.35 27.3 6.25 27.35 7.15 27.6 Q8.85 27.85 10.25 26.9 L10.85 26.4 M12.15 28.65 L11.75 27.95 11.95 28.5 11.85 29.0 Q10.9 29.75 9.5 29.85 L7.9 30.1 8.35 32.0 Q10.0 32.1 11.45 31.35 L11.8 31.2 11.55 29.6 12.0 29.25 12.15 28.65 M12.55 29.8 L12.6 31.35 12.15 32.85 11.25 33.95 10.3 34.7 8.9 34.45 8.2 33.95 Q7.65 33.5 7.35 32.9 L6.6 31.0 6.05 29.1 5.45 26.85 5.35 26.1 5.35 25.55 6.85 26.0 7.55 26.0 9.2 25.45 11.35 24.65 12.3 28.5 12.55 29.8 M-7.4 7.75 Q-6.9 7.8 -6.6 8.2 -6.75 9.5 -6.15 10.8 L-6.5 11.4 -8.05 11.75 -8.95 11.35 -9.35 10.15 Q-9.6 9.25 -8.9 8.55 -8.25 7.9 -7.4 7.75 M-9.0 22.5 L-9.2 23.1 -9.9 22.35 -9.4 22.1 -9.1 22.2 -8.95 22.35 -9.0 22.5 M-5.95 24.95 L-7.0 24.95 -7.7 24.7 Q-8.65 24.25 -8.9 23.45 -8.65 22.05 -7.7 21.5 -6.6 21.4 -5.55 21.85 -4.55 22.9 -5.0 24.25 L-5.0 24.3 -5.05 24.35 -5.45 24.7 -5.95 24.95 M-4.7 23.45 L-3.4 23.7 -3.85 24.5 -4.8 24.35 -4.7 23.45 M-9.4 31.65 L-9.3 31.7 -7.55 31.95 -7.0 31.8 -6.85 30.1 -9.8 29.55 -10.85 28.85 -10.75 28.25 -10.7 28.1 -10.65 28.05 -10.7 27.95 -11.15 28.7 -10.5 29.6 -10.8 30.8 -10.55 31.0 Q-10.1 31.6 -9.4 31.65 M-5.1 27.35 L-5.85 27.4 -7.4 27.4 -9.8 26.4 -8.4 27.1 -6.75 27.7 Q-5.75 27.75 -5.1 27.35 M-4.3 25.55 L-4.3 26.1 -4.35 26.75 -4.65 28.1 -5.05 29.5 -5.5 31.1 -6.15 32.55 -6.95 33.65 -8.35 34.55 -9.15 34.5 -10.65 33.45 -11.4 32.05 -11.5 30.55 -11.3 29.15 -11.2 28.7 -11.2 28.6 -11.2 28.5 -11.2 28.45 -10.75 26.45 -10.25 24.65 -9.15 25.25 -8.15 25.75 -7.0 26.0 -5.8 25.85 -4.3 25.55" fill="#837663" fill-rule="evenodd" stroke="none"/>
    <path d="M6.1 2.25 L5.6 2.55 Q5.85 1.6 6.35 0.9 L6.6 0.75 7.25 0.7 7.05 1.4 6.15 1.5 6.0 1.75 6.1 2.25 M5.2 11.4 L5.85 11.65 5.35 12.95 4.75 14.25 4.15 15.55 3.55 16.95 3.05 18.3 2.45 19.7 1.8 21.15 1.05 22.6 0.6 23.3 -0.15 22.3 -0.75 21.1 -1.4 19.55 -2.1 17.9 -2.75 16.25 -3.55 14.45 -4.2 12.8 -4.4 12.05 -1.15 11.7 -0.8 12.35 1.8 12.35 2.05 11.85 3.95 11.7 Q3.65 12.45 4.25 12.8 L4.5 12.75 5.05 12.25 5.2 11.85 5.2 11.4 M3.05 15.2 L3.15 15.7 3.55 15.9 Q4.45 15.3 4.5 14.0 L4.55 13.8 4.25 13.55 3.05 14.5 3.05 15.2 M0.3 13.6 Q0.0 14.55 0.5 15.5 L0.7 15.8 Q1.3 15.9 1.4 15.15 L1.2 13.7 0.95 13.35 0.3 13.6 M1.35 17.85 Q0.65 18.6 0.85 19.55 L0.95 19.7 1.15 19.5 Q1.8 19.25 1.8 18.45 L1.35 17.85 M0.75 21.15 L0.0 20.65 Q-0.4 21.95 0.55 22.85 L0.9 22.5 0.85 21.65 0.75 21.15 M-5.35 3.45 L-4.55 3.95 -4.3 4.05 -4.65 2.6 Q-5.1 2.1 -5.6 2.15 L-5.75 2.2 -6.2 0.75 -5.55 0.75 -2.95 4.25 -2.2 5.05 -1.55 5.7 -1.45 5.85 -1.8 6.15 -1.95 6.9 -3.95 6.6 Q-3.9 5.95 -4.55 6.05 L-4.85 6.1 Q-5.4 6.35 -5.05 6.75 L-5.9 7.05 -5.4 5.9 -4.9 4.95 -5.35 3.45 M-3.0 5.05 L-3.95 4.85 Q-3.95 5.9 -3.05 6.3 L-2.9 6.35 Q-2.55 6.1 -2.7 5.75 L-3.0 5.05 M-1.65 14.55 L-1.45 13.25 Q-1.75 12.65 -2.6 12.7 L-2.9 12.8 Q-3.15 13.9 -2.1 14.65 L-1.8 14.75 -1.65 14.55 M-0.55 17.9 Q0.2 17.5 -0.65 16.75 -1.05 17.25 -0.65 17.8 L-0.55 17.9" fill="#ffff99" fill-rule="evenodd" stroke="none"/>
    <path d="M5.75 5.35 L6.1 5.1 7.0 6.8 6.25 6.4 5.75 5.35 M0.75 9.05 L2.1 9.2 2.9 9.95 2.25 10.15 2.1 10.0 1.8 9.85 0.95 9.9 0.95 9.3 0.75 9.05 M0.35 9.9 L-0.9 9.95 -0.85 9.4 -0.8 8.85 -0.7 8.9 0.1 9.0 Q-0.3 9.3 0.05 9.65 L0.35 9.9" fill="#a8bd53" fill-rule="evenodd" stroke="none"/>
    <path d="M7.05 1.4 L6.85 1.65 6.1 2.25 6.0 1.75 6.15 1.5 7.05 1.4 M0.75 9.05 L0.95 9.3 0.95 9.9 0.35 9.9 0.05 9.65 Q-0.3 9.3 0.1 9.0 L0.75 9.05 M3.95 11.7 L4.8 11.2 5.2 11.4 5.2 11.85 5.05 12.25 4.5 12.75 4.25 12.8 Q3.65 12.45 3.95 11.7 M0.75 21.15 L0.85 21.65 0.9 22.5 0.55 22.85 Q-0.4 21.95 0.0 20.65 L0.75 21.15 M1.35 17.85 L1.8 18.45 Q1.8 19.25 1.15 19.5 L0.95 19.7 0.85 19.55 Q0.65 18.6 1.35 17.85 M0.3 13.6 L0.95 13.35 1.2 13.7 1.4 15.15 Q1.3 15.9 0.7 15.8 L0.5 15.5 Q0.0 14.55 0.3 13.6 M3.05 15.2 L3.05 14.5 4.25 13.55 4.55 13.8 4.5 14.0 Q4.45 15.3 3.55 15.9 L3.15 15.7 3.05 15.2 M-5.75 2.2 L-5.6 2.15 Q-5.1 2.1 -4.65 2.6 L-4.3 4.05 -4.55 3.95 -5.35 3.45 -5.75 2.2 M-5.05 6.75 Q-5.4 6.35 -4.85 6.1 L-4.55 6.05 Q-3.9 5.95 -3.95 6.6 L-4.6 6.6 -5.05 6.75 M-1.95 6.9 L-1.8 6.15 -1.45 5.85 -1.2 6.1 -1.5 7.0 -1.65 7.0 -1.95 6.9 M-3.0 5.05 L-2.7 5.75 Q-2.55 6.1 -2.9 6.35 L-3.05 6.3 Q-3.95 5.9 -3.95 4.85 L-3.0 5.05 M-0.55 17.9 L-0.65 17.8 Q-1.05 17.25 -0.65 16.75 0.2 17.5 -0.55 17.9 M-1.65 14.55 L-1.8 14.75 -2.1 14.65 Q-3.15 13.9 -2.9 12.8 L-2.6 12.7 Q-1.75 12.65 -1.45 13.25 L-1.65 14.55" fill="#4e5821" fill-rule="evenodd" stroke="none"/>
    <path d="M-11.35 -15.3 L-9.9 -16.25 -8.4 -17.1 -7.2 -17.8 -5.8 -18.5 -4.4 -19.0 -3.55 -19.05 -4.35 -18.35 -5.45 -17.45 -6.5 -16.55 6.1 -17.0 5.05 -18.05 4.65 -18.55 5.5 -18.75 7.3 -18.1 8.6 -17.6 9.85 -17.0 11.0 -16.3 12.45 -15.15 9.65 -16.7 9.35 -16.85 7.55 -17.35 6.8 -17.45 8.75 -16.75 9.85 -16.1 11.35 -15.0 12.6 -13.6 12.95 -13.1 12.45 -11.85 12.3 -11.65 12.15 -11.65 12.1 -11.7 11.9 -12.35 11.9 -12.45 10.45 -13.6 9.05 -14.1 7.75 -14.4 6.45 -14.65 4.3 -14.9 2.1 -15.05 -0.05 -15.1 -5.15 -14.65 -7.25 -14.35 -8.85 -13.8 Q-10.15 -13.15 -10.8 -12.15 L-10.95 -11.8 -10.95 -11.65 -11.4 -11.95 -11.75 -13.65 -10.25 -15.05 -8.45 -16.4 -11.4 -14.85 -11.5 -14.85 -11.55 -14.95 -11.35 -15.3 M15.9 -7.15 L16.05 -7.15 14.25 -4.7 12.9 -5.55 13.45 -6.85 13.7 -7.65 13.85 -8.65 15.9 -7.15 M-12.7 -8.95 L-13.4 -8.5 -14.6 -7.7 -15.25 -7.2 -12.75 -8.65 -12.55 -7.3 -12.4 -6.6 -12.25 -6.25 -12.95 -5.75 Q-13.65 -5.4 -14.45 -5.3 L-15.9 -4.9 -17.45 -5.0 -17.6 -5.2 -16.9 -5.95 -15.5 -7.25 -14.2 -8.35 Q-13.5 -8.95 -12.7 -8.95" fill="#3a4463" fill-rule="evenodd" stroke="none"/>
  </g>
</svg>
