<?xml version="1.0" encoding="UTF-8" standalone="no"?>
<svg xmlns:ffdec="https://www.free-decompiler.com/flash" xmlns:xlink="http://www.w3.org/1999/xlink" ffdec:objectType="shape" height="63.65px" width="38.85px" xmlns="http://www.w3.org/2000/svg">
  <g transform="matrix(1.0, 0.0, 0.0, 1.0, 19.45, 28.6)">
    <path d="M8.25 -25.35 L5.95 -26.95 Q3.8 -28.25 1.7 -28.55 6.65 -28.2 9.45 -23.9 10.9 -21.75 12.6 -20.2 L9.6 -22.65 Q6.3 -25.5 2.1 -26.05 -5.25 -25.9 -10.9 -20.95 -8.3 -26.4 -3.45 -27.95 L-7.35 -25.6 -9.55 -22.25 -8.1 -23.55 -4.5 -25.75 Q2.8 -28.6 8.75 -23.6 L10.3 -22.25 8.25 -25.35 M12.9 -20.0 Q15.75 -18.1 18.9 -19.15 L19.4 -19.15 19.25 -18.6 17.75 -18.4 Q14.9 -17.9 12.9 -20.0 M18.75 -17.15 Q17.15 -13.45 13.25 -11.2 L13.25 -11.1 14.0 -6.3 Q14.3 -4.3 15.1 -2.5 L16.75 0.85 Q17.1 1.5 17.1 2.25 17.15 3.35 16.8 4.45 L16.05 5.75 15.1 6.6 Q13.95 7.4 12.8 7.05 L11.75 6.5 Q12.65 8.9 11.8 11.15 L11.4 12.0 8.7 12.3 8.75 12.4 11.0 18.35 10.85 18.4 Q10.75 18.4 10.7 18.5 L10.1 18.2 10.1 18.35 12.45 26.7 Q13.15 29.6 12.6 32.65 L12.2 34.15 11.6 34.5 Q10.05 35.45 8.55 34.8 7.3 34.35 6.85 33.0 L5.25 28.3 3.35 22.95 2.3 19.95 0.9 19.0 -0.9 19.95 -1.45 19.8 -1.5 19.9 Q-4.35 26.8 -6.2 34.0 L-6.2 34.05 -7.1 34.4 -10.0 35.0 -10.7 34.3 Q-11.85 33.05 -12.0 31.3 L-12.05 30.5 Q-12.0 26.85 -10.85 23.5 L-9.45 19.15 -9.15 18.1 -10.3 18.4 -8.05 12.95 -8.3 12.6 Q-9.75 10.3 -10.0 7.4 L-10.05 7.45 -10.9 7.7 Q-13.1 8.05 -14.75 6.3 -15.4 5.4 -15.65 4.2 -16.05 2.35 -15.0 0.55 L-14.1 -0.95 -18.2 -5.25 Q-19.35 -6.65 -19.45 -8.4 -19.55 -10.2 -18.05 -11.4 L-13.35 -4.9 -13.3 -4.9 -13.1 -4.9 -13.05 -4.85 -12.55 -9.95 -12.5 -10.25 -12.35 -11.15 Q-16.5 -13.9 -18.85 -18.55 L-18.75 -19.15 Q-15.6 -18.8 -12.7 -19.8 L-12.45 -19.9 -13.0 -19.55 Q-15.65 -18.35 -18.6 -18.6 -16.6 -14.6 -12.9 -12.1 L-11.5 -11.2 -10.55 -11.9 -10.35 -11.25 -10.3 -11.15 -9.4 -12.65 -8.8 -12.95 -9.45 -11.65 -9.8 -10.7 -10.05 -9.6 -10.05 -8.95 -9.6 -6.85 -9.15 -5.35 -8.65 -3.85 -8.2 -2.8 -6.75 -1.0 -6.1 -0.45 -5.85 -0.3 -5.55 -0.1 -4.25 0.6 -2.8 1.15 -2.35 0.65 -1.9 0.55 Q-1.5 0.6 -1.35 0.8 L-0.8 1.4 -0.75 1.7 -0.7 1.75 -0.55 1.85 -0.05 2.05 0.55 2.15 1.2 2.15 5.6 0.3 6.85 -0.5 6.95 -0.55 7.1 -0.7 8.35 -1.75 9.15 -3.1 9.7 -4.55 10.4 -7.1 Q10.85 -8.35 10.7 -9.55 L10.2 -11.7 9.95 -12.35 9.55 -13.2 Q2.65 -15.9 -4.5 -14.05 L-8.1 -13.35 Q-2.75 -16.15 3.85 -15.3 7.25 -14.75 10.05 -12.95 L10.85 -12.4 12.25 -11.2 Q15.4 -12.85 17.55 -15.4 L18.75 -17.15 M10.05 -12.95 L10.8 -11.7 11.15 -11.15 11.45 -11.9 10.05 -12.95 M11.45 -8.8 L11.4 -8.55 11.0 -7.25 10.7 -6.15 10.2 -4.0 10.15 -3.3 10.15 -3.25 10.85 -3.9 Q12.5 -5.6 13.1 -7.75 L12.55 -10.65 11.65 -9.6 11.65 -9.5 11.45 -8.8 M13.4 -6.65 L13.4 -6.7 13.35 -6.65 13.05 -6.0 12.25 -4.75 11.65 -4.05 9.1 -1.8 7.95 -0.9 8.0 -0.35 8.7 -0.25 Q10.05 0.2 10.75 1.55 L10.8 1.5 11.1 2.35 11.1 2.4 11.2 2.75 11.2 2.8 11.95 6.0 12.55 6.2 Q14.0 6.55 15.25 5.55 L16.0 4.85 Q16.85 3.65 16.65 2.2 16.3 -0.7 13.85 -2.35 L13.4 -6.65 M9.7 -11.5 Q6.8 -12.5 4.0 -11.2 L2.6 -10.25 Q1.95 -10.25 2.6 -10.75 L3.95 -11.55 5.45 -12.1 7.0 -12.25 8.75 -11.8 9.7 -11.5 M6.6 -9.3 L6.4 -10.0 4.6 -10.1 3.8 -9.7 5.0 -9.3 6.6 -9.3 M6.95 -7.45 L6.7 -5.45 6.55 -4.65 6.45 -4.15 6.95 -4.1 8.05 -5.8 8.55 -6.95 8.25 -7.9 7.5 -9.1 7.05 -9.55 6.95 -7.45 M6.75 -10.6 Q8.85 -9.45 10.2 -7.25 L6.9 -3.75 Q5.05 -3.35 3.15 -4.15 L3.0 -4.7 Q2.75 -6.8 3.15 -8.85 L2.85 -8.95 Q2.35 -9.15 2.65 -9.75 L4.05 -10.65 5.55 -11.1 Q6.2 -10.95 6.75 -10.6 M4.25 -6.45 Q4.1 -7.2 4.35 -8.05 L4.5 -8.6 3.4 -8.85 3.3 -7.75 Q3.1 -6.0 3.65 -4.75 4.5 -4.15 5.55 -4.3 L5.9 -4.95 Q6.6 -6.45 6.7 -8.25 L5.6 -8.4 5.5 -6.3 5.35 -6.1 5.15 -6.45 4.7 -6.8 4.25 -6.45 M9.4 0.85 Q8.5 1.0 7.75 1.6 L7.4 1.85 5.0 3.45 3.4 4.5 4.65 4.1 4.85 4.25 4.85 4.3 4.15 5.1 5.4 4.6 6.65 4.1 10.45 2.45 10.45 2.4 10.4 2.3 9.75 1.2 9.45 0.95 9.4 0.85 M-1.15 3.35 L-1.25 3.55 0.7 4.4 Q1.2 4.65 1.7 5.05 L3.2 4.2 5.7 2.55 8.1 1.0 Q8.5 0.7 8.95 0.55 L7.85 0.4 7.75 0.35 6.55 0.45 6.15 0.55 5.95 0.75 5.8 0.65 5.8 0.6 5.85 0.55 5.8 0.55 5.65 0.6 5.55 0.65 5.5 0.7 1.7 2.3 1.3 2.4 0.9 2.45 -0.8 2.35 -1.0 3.05 -1.15 3.35 M7.2 4.75 L7.55 4.3 6.45 4.55 4.65 5.25 3.85 5.6 4.35 6.05 4.75 6.65 6.9 7.2 7.0 6.75 7.2 4.75 M10.8 3.45 Q10.65 2.6 9.8 3.0 L8.65 3.75 7.65 4.8 7.8 5.7 8.7 5.05 9.4 5.45 10.3 4.7 11.05 5.1 10.8 3.45 M4.7 7.0 L4.05 7.25 Q2.65 8.0 2.7 9.65 L3.3 10.6 4.05 9.05 3.95 10.95 6.4 11.1 7.2 10.15 7.1 10.75 7.45 11.35 8.7 11.7 Q10.5 12.2 11.55 10.9 L11.2 5.7 10.25 5.15 9.55 5.95 8.45 5.45 7.85 6.1 8.3 7.4 9.75 8.15 8.35 7.7 7.55 8.15 7.35 8.95 7.35 8.75 Q6.65 7.1 4.7 7.0 M2.6 5.25 L2.55 5.25 2.15 5.4 2.1 5.4 2.2 5.55 2.45 6.45 4.0 6.3 3.4 5.85 3.4 5.8 3.4 5.75 3.45 5.3 3.95 4.75 2.6 5.25 M2.55 6.9 L3.05 7.2 4.2 6.75 2.55 6.9 M1.8 7.3 L1.75 6.2 Q1.6 5.25 0.5 4.75 L0.15 4.5 -0.1 4.45 -0.4 5.65 -0.45 4.65 -0.75 4.35 -0.9 4.3 -1.95 4.95 -2.85 6.9 -1.8 7.8 Q-0.7 8.65 0.9 8.7 L1.8 7.3 M0.9 9.65 L1.8 9.35 1.65 8.85 -1.15 9.15 -1.3 9.8 -0.5 9.5 0.5 9.85 0.9 9.65 M2.45 10.85 L1.9 10.3 -2.3 10.15 -3.5 11.05 2.45 10.85 M7.45 11.85 L7.4 11.8 -4.0 12.15 Q-5.5 12.0 -6.9 12.55 L-7.35 12.7 -9.75 17.85 -7.8 17.55 -7.2 18.35 -5.15 17.85 -4.45 17.95 -3.55 18.7 -2.05 18.35 -1.1 19.4 1.15 18.45 1.6 18.9 2.1 19.05 2.45 19.25 Q2.9 18.9 3.45 18.7 3.85 18.45 4.35 18.35 L5.45 18.9 5.95 18.6 6.4 18.45 6.65 18.25 6.8 17.9 7.5 17.75 8.6 18.25 9.4 17.65 10.5 17.65 9.35 14.9 8.0 12.2 7.9 12.05 7.45 11.85 M7.7 18.45 L7.4 18.45 5.55 19.6 4.15 18.85 2.65 19.75 3.25 21.15 4.95 20.9 5.05 20.9 5.2 20.85 10.05 20.1 9.7 18.05 8.6 18.85 7.7 18.45 M5.05 21.25 L3.4 21.5 5.15 26.7 6.4 30.9 Q6.95 32.85 8.8 33.85 9.35 34.2 10.05 34.35 L12.2 32.8 12.3 32.2 11.75 26.4 Q11.3 23.75 10.35 21.25 L10.0 20.65 5.05 21.25 M6.85 24.85 L6.9 24.9 6.85 24.9 6.85 24.85 M-2.7 -11.0 L-3.85 -11.65 -5.25 -11.9 -7.2 -11.9 -8.85 -11.55 -7.25 -12.1 -5.55 -12.3 Q-4.2 -12.2 -2.95 -11.55 -2.05 -11.05 -1.6 -10.1 L-2.7 -11.0 M-2.1 -7.65 Q-1.85 -6.55 -2.05 -5.3 L-2.3 -4.15 -3.8 -3.75 Q-5.0 -3.5 -6.05 -3.75 L-9.35 -7.25 -7.35 -9.85 -6.05 -10.75 -4.2 -11.05 -2.95 -10.75 Q-2.0 -10.35 -1.65 -9.45 -1.5 -9.05 -1.95 -8.95 L-2.15 -8.9 -2.1 -7.65 M-3.85 -9.85 L-5.55 -10.0 -5.75 -9.3 -3.2 -9.5 -3.85 -9.85 M-2.75 -4.75 L-2.55 -6.65 -2.55 -8.85 -3.65 -8.6 -3.55 -7.85 -3.55 -6.35 -4.15 -6.65 -4.5 -6.7 -4.75 -8.4 -5.9 -8.25 -5.8 -7.35 -5.55 -6.1 -5.05 -4.9 -4.7 -4.3 -3.95 -4.45 Q-3.35 -4.55 -2.85 -4.75 L-2.8 -4.6 -2.75 -4.75 M-6.25 -7.45 L-6.25 -9.55 -7.45 -7.85 -7.75 -6.95 -7.55 -6.35 -7.0 -5.3 -6.15 -4.1 -5.6 -4.15 -5.7 -4.65 -5.9 -5.4 -6.25 -7.45 M-11.35 -2.65 L-8.3 -0.15 -7.15 -0.35 -7.85 -1.55 -8.45 -2.15 -8.55 -2.2 -10.5 -3.85 -11.2 -4.5 -11.95 -5.85 -12.4 -6.4 -12.45 -6.0 -12.45 -4.65 -12.55 -4.15 -12.6 -4.05 -11.35 -2.65 M-11.8 -7.45 L-11.25 -5.8 -11.2 -5.7 -10.55 -4.6 -10.3 -4.25 -9.85 -3.6 -9.4 -3.25 -9.4 -3.4 -9.5 -4.75 -9.85 -6.15 -10.3 -8.0 -10.45 -8.6 -10.7 -9.25 -11.65 -10.55 -11.75 -10.5 -11.95 -9.05 -11.8 -7.45 M-18.3 -11.1 L-18.9 -10.1 -19.1 -9.0 Q-19.0 -6.9 -17.7 -5.3 L-15.35 -2.9 -12.5 -0.55 -10.85 0.6 Q-7.85 2.6 -4.9 4.75 L-3.85 3.55 -4.2 3.35 -4.85 2.95 Q-6.8 1.7 -8.6 0.15 L-12.15 -3.1 -15.4 -6.95 -18.3 -11.1 M-12.2 0.5 L-13.05 0.0 -13.9 0.1 Q-15.95 2.3 -14.8 5.05 L-14.35 5.85 Q-13.15 6.85 -11.65 7.1 L-11.0 7.15 -10.2 7.1 -10.15 6.2 -10.25 4.8 -10.7 2.5 Q-10.8 1.75 -11.15 1.05 L-11.75 0.85 -11.8 0.8 -12.2 0.5 M-9.65 2.9 L-6.65 4.3 -6.3 5.35 -6.1 6.25 -6.1 6.4 -5.9 6.55 -6.05 6.75 -5.3 6.35 -4.8 5.3 -9.55 2.2 -9.65 2.9 M-9.7 3.3 L-9.9 4.85 -9.75 6.0 -9.0 5.35 -8.05 5.9 -7.1 5.45 -6.9 5.4 -6.8 4.95 Q-7.9 3.45 -9.6 3.3 L-9.7 3.3 M-5.0 8.55 L-4.8 8.4 -4.4 8.1 -3.65 6.35 -3.6 6.25 -2.85 5.05 -2.8 5.0 -2.15 4.15 -2.1 4.05 -1.15 2.05 -1.1 1.5 -1.55 1.15 -2.1 1.0 -2.6 1.2 -2.95 1.9 -2.8 2.95 -4.45 6.1 -4.9 7.0 -5.75 7.15 -6.0 8.0 -5.5 8.35 -5.1 8.5 -5.05 8.5 -5.05 8.55 -5.0 8.55 M-3.45 2.65 L-3.25 2.2 -2.95 1.55 -4.75 0.65 -4.85 0.6 -5.2 0.45 -5.25 0.4 -5.25 0.45 -5.1 0.7 -5.55 0.6 -6.7 0.45 -7.65 0.4 -5.95 1.55 -5.1 2.2 -4.65 2.4 -3.65 3.1 -3.45 2.65 M-7.8 6.25 L-8.25 6.25 -8.95 5.8 -9.5 6.4 Q-9.1 9.25 -8.0 12.0 L-7.45 12.25 Q-5.9 11.65 -4.45 10.85 L-1.8 9.15 -3.5 7.7 -3.65 7.9 -4.0 8.8 -4.35 8.95 -4.7 9.15 -5.1 9.1 -5.65 9.1 -6.85 8.4 -8.65 8.45 -6.55 7.7 -6.65 6.3 -7.2 5.85 -7.8 6.25 M-3.8 20.6 L-2.5 21.0 -1.7 19.5 -2.05 18.85 -3.45 19.2 -4.8 18.35 -6.3 18.4 -6.4 18.6 -7.3 18.85 -8.0 18.05 -8.85 18.15 -9.1 19.85 -3.8 20.6 M-11.65 31.4 L-11.6 31.45 Q-11.05 33.45 -9.35 34.65 -8.5 34.4 -7.75 33.9 L-7.25 33.55 -6.6 32.7 Q-5.45 30.75 -4.9 28.4 -4.05 24.9 -2.6 21.35 L-3.5 21.0 -3.75 21.15 -9.35 20.2 -9.85 22.45 -10.85 26.55 -11.55 30.0 -11.65 31.4" fill="#000000" fill-rule="evenodd" stroke="none"/>
    <path d="M1.7 -28.55 Q3.8 -28.25 5.95 -26.95 L8.25 -25.35 8.75 -23.6 Q2.8 -28.6 -4.5 -25.75 L-8.1 -23.55 -7.35 -25.6 -3.45 -27.95 Q-1.5 -28.6 0.85 -28.6 L1.7 -28.55 M-10.9 -20.95 Q-5.25 -25.9 2.1 -26.05 6.3 -25.5 9.6 -22.65 L12.6 -20.2 12.9 -20.0 Q14.9 -17.9 17.75 -18.4 L19.25 -18.6 19.3 -18.6 19.25 -18.6 Q15.1 -16.7 11.45 -20.2 L9.3 -21.9 Q11.85 -19.5 14.7 -17.65 8.2 -14.2 0.7 -16.0 L-2.65 -15.7 Q-8.8 -13.8 -14.25 -17.45 -12.35 -18.7 -10.65 -20.0 -12.8 -18.5 -15.4 -17.75 L-18.6 -18.6 Q-15.65 -18.35 -13.0 -19.55 L-12.45 -19.9 -10.9 -20.95 M2.6 -24.1 L2.8 -25.0 2.3 -24.9 2.05 -24.15 1.75 -24.85 1.65 -24.4 1.5 -24.05 1.25 -23.8 0.45 -23.15 -0.8 -24.85 -0.75 -24.05 -1.2 -24.35 -1.3 -24.9 -1.85 -25.0 -1.6 -24.1 -3.1 -23.55 -2.6 -23.4 -1.4 -23.9 0.5 -22.55 2.35 -23.9 3.85 -23.4 2.6 -24.1 M1.0 -21.35 L0.45 -20.9 -0.15 -21.95 0.15 -22.4 -2.7 -21.15 -2.8 -20.55 -0.4 -21.5 0.2 -20.4 0.5 -18.0 1.4 -21.5 3.8 -20.5 3.7 -21.15 0.85 -22.4 1.15 -21.95 1.0 -21.35 M1.95 -17.3 L2.25 -17.8 1.4 -19.85 1.95 -17.3 M2.9 -19.0 L3.05 -19.5 1.6 -20.6 2.9 -19.0 M9.4 0.85 L9.45 0.95 9.75 1.2 10.4 2.3 10.45 2.4 10.45 2.45 6.65 4.1 5.4 4.6 4.15 5.1 4.85 4.3 4.85 4.25 4.65 4.1 3.4 4.5 5.0 3.45 7.4 1.85 7.75 1.6 Q8.5 1.0 9.4 0.85 M5.8 0.55 L5.85 0.55 5.8 0.6 5.8 0.55 M7.2 4.75 L7.0 6.75 6.9 7.2 4.75 6.65 4.35 6.05 3.85 5.6 4.65 5.25 6.45 4.55 7.55 4.3 7.2 4.75 M10.8 3.45 L11.05 5.1 10.3 4.7 9.4 5.45 8.7 5.05 7.8 5.7 7.65 4.8 8.65 3.75 9.8 3.0 Q10.65 2.6 10.8 3.45 M7.45 11.85 L7.4 11.85 7.4 11.8 7.45 11.85 M-7.35 12.7 L-2.4 12.8 -5.5 13.75 -1.35 14.15 -5.7 15.15 -3.7 15.95 -4.6 16.25 Q-5.55 16.3 -5.9 16.95 L-5.15 17.85 -7.2 18.35 -7.8 17.55 -9.75 17.85 -7.35 12.7 M6.8 17.9 L5.95 17.45 6.15 16.4 3.45 15.4 4.95 14.45 4.25 14.0 5.25 13.55 5.25 13.45 2.75 12.8 7.5 12.1 7.9 12.05 8.0 12.2 9.35 14.9 10.5 17.65 9.4 17.65 8.6 18.25 7.5 17.75 6.8 17.9 M12.3 32.2 Q11.3 32.95 10.35 33.05 9.05 33.2 8.45 32.3 L8.2 31.85 10.85 30.1 10.85 30.05 8.8 30.2 11.35 28.8 11.1 28.5 8.9 28.45 8.8 28.45 10.3 28.0 Q10.0 27.6 9.65 27.7 L7.1 27.3 5.05 21.25 10.0 20.65 10.35 21.25 Q11.3 23.75 11.75 26.4 L12.3 32.2 M6.85 24.85 L6.85 24.9 6.9 24.9 6.85 24.85 M-1.0 -17.3 L-0.45 -19.85 -1.25 -18.05 -1.0 -17.3 M-1.95 -19.0 L-0.65 -20.6 -2.05 -19.5 -1.95 -19.0 M-9.65 2.9 L-9.55 2.2 -4.8 5.3 -5.3 6.35 -6.05 6.75 -5.9 6.55 -6.1 6.4 -6.1 6.25 -6.3 5.35 -6.65 4.3 -9.65 2.9 M-9.7 3.3 L-9.6 3.3 Q-7.9 3.45 -6.8 4.95 L-6.9 5.4 -7.1 5.45 -8.05 5.9 -9.0 5.35 -9.75 6.0 -9.9 4.85 -9.7 3.3 M-11.65 31.4 L-11.55 30.0 -10.85 26.55 -9.85 22.45 -9.35 20.2 -3.75 21.15 -6.4 27.85 -10.0 28.1 -10.25 28.45 -9.25 28.95 -10.2 29.15 -7.0 30.45 -8.1 32.55 -8.45 32.95 -9.6 33.05 -11.65 31.4" fill="#333333" fill-rule="evenodd" stroke="none"/>
    <path d="M8.25 -25.35 L10.3 -22.25 8.75 -23.6 8.25 -25.35 M-8.1 -23.55 L-9.55 -22.25 -7.35 -25.6 -8.1 -23.55 M19.3 -18.6 L18.75 -17.15 17.55 -15.4 Q15.4 -12.85 12.25 -11.2 L10.85 -12.4 10.05 -12.95 Q7.25 -14.75 3.85 -15.3 -2.75 -16.15 -8.1 -13.35 L-8.7 -13.25 -8.8 -12.95 -9.4 -12.65 -9.2 -13.0 -10.55 -11.9 -11.5 -11.2 -12.9 -12.1 Q-16.6 -14.6 -18.6 -18.6 L-15.4 -17.75 Q-12.8 -18.5 -10.65 -20.0 -12.35 -18.7 -14.25 -17.45 -8.8 -13.8 -2.65 -15.7 L0.7 -16.0 Q8.2 -14.2 14.7 -17.65 11.85 -19.5 9.3 -21.9 L11.45 -20.2 Q15.1 -16.7 19.25 -18.6 L19.3 -18.6 M2.55 6.9 L4.2 6.75 3.05 7.2 2.55 6.9 M0.9 9.65 L0.5 9.85 -0.5 9.5 -1.3 9.8 -1.15 9.15 1.65 8.85 1.8 9.35 0.9 9.65 0.9 9.6 0.9 9.65 M7.4 11.8 L7.4 11.85 7.45 11.85 7.9 12.05 7.5 12.1 2.75 12.8 5.25 13.45 5.25 13.55 4.25 14.0 4.95 14.45 3.45 15.4 6.15 16.4 5.95 17.45 6.8 17.9 6.65 18.25 6.4 18.45 5.95 18.6 5.45 18.9 4.35 18.35 Q3.85 18.45 3.45 18.7 2.9 18.9 2.45 19.25 L2.1 19.05 1.6 18.9 1.15 18.45 -1.1 19.4 -2.05 18.35 -3.55 18.7 -4.45 17.95 -5.15 17.85 -5.9 16.95 Q-5.55 16.3 -4.6 16.25 L-3.7 15.95 -5.7 15.15 -1.35 14.15 -5.5 13.75 -2.4 12.8 -7.35 12.7 -6.9 12.55 Q-5.5 12.0 -4.0 12.15 L7.4 11.8 M12.3 32.2 L12.2 32.8 10.05 34.35 Q9.35 34.2 8.8 33.85 6.95 32.85 6.4 30.9 L5.15 26.7 3.4 21.5 5.05 21.25 7.1 27.3 9.65 27.7 Q10.0 27.6 10.3 28.0 L8.8 28.45 8.9 28.45 11.1 28.5 11.35 28.8 8.8 30.2 10.85 30.05 10.85 30.1 8.2 31.85 8.45 32.3 Q9.05 33.2 10.35 33.05 11.3 32.95 12.3 32.2 M-3.75 21.15 L-3.5 21.0 -2.6 21.35 Q-4.05 24.9 -4.9 28.4 -5.45 30.75 -6.6 32.7 L-7.25 33.55 -7.75 33.9 Q-8.5 34.4 -9.35 34.65 -11.05 33.45 -11.6 31.45 L-11.65 31.4 -9.6 33.05 -8.45 32.95 -8.1 32.55 -7.0 30.45 -10.2 29.15 -9.25 28.95 -10.25 28.45 -10.0 28.1 -6.4 27.85 -3.75 21.15" fill="#171717" fill-rule="evenodd" stroke="none"/>
    <path d="M2.6 -24.1 L3.85 -23.4 2.35 -23.9 0.5 -22.55 -1.4 -23.9 -2.6 -23.4 -3.1 -23.55 -1.6 -24.1 -1.85 -25.0 -1.3 -24.9 -1.2 -24.35 -0.75 -24.05 -0.8 -24.85 0.45 -23.15 1.25 -23.8 1.5 -24.05 1.65 -24.4 1.75 -24.85 2.05 -24.15 2.3 -24.9 2.8 -25.0 2.6 -24.1 M1.0 -21.35 L1.15 -21.95 0.85 -22.4 3.7 -21.15 3.8 -20.5 1.4 -21.5 0.5 -18.0 0.2 -20.4 -0.4 -21.5 -2.8 -20.55 -2.7 -21.15 0.15 -22.4 -0.15 -21.95 0.45 -20.9 1.0 -21.35 M2.9 -19.0 L1.6 -20.6 3.05 -19.5 2.9 -19.0 M1.95 -17.3 L1.4 -19.85 2.25 -17.8 1.95 -17.3 M-1.95 -19.0 L-2.05 -19.5 -0.65 -20.6 -1.95 -19.0 M-1.0 -17.3 L-1.25 -18.05 -0.45 -19.85 -1.0 -17.3" fill="#cccccc" fill-rule="evenodd" stroke="none"/>
    <path d="M-10.55 -11.9 L-9.2 -13.0 -9.4 -12.65 -10.3 -11.15 -10.35 -11.25 -10.55 -11.9 M10.05 -12.95 L11.45 -11.9 11.15 -11.15 10.8 -11.7 10.05 -12.95 M13.4 -6.65 L13.85 -2.35 Q16.3 -0.7 16.65 2.2 16.85 3.65 16.0 4.85 16.55 3.9 16.4 2.6 16.1 0.65 14.85 -0.45 14.05 -1.2 12.85 -1.6 L12.45 -4.05 12.25 -4.75 13.05 -6.0 13.35 -6.65 13.4 -6.65 M5.35 -6.1 L5.5 -6.3 5.6 -8.4 6.7 -8.25 Q6.6 -6.45 5.9 -4.95 L5.55 -4.3 Q4.5 -4.15 3.65 -4.75 3.1 -6.0 3.3 -7.75 L3.4 -8.85 4.5 -8.6 4.35 -8.05 Q4.1 -7.2 4.25 -6.45 3.85 -5.85 4.55 -5.25 4.65 -5.15 4.8 -5.1 L5.05 -5.35 5.35 -6.1 M-3.55 -6.35 L-3.55 -7.85 -3.65 -8.6 -2.55 -8.85 -2.55 -6.65 -2.75 -4.75 -2.85 -4.75 Q-3.35 -4.55 -3.95 -4.45 L-4.7 -4.3 -5.05 -4.9 -5.55 -6.1 -5.8 -7.35 -5.9 -8.25 -4.75 -8.4 -4.5 -6.7 -4.8 -6.35 -4.95 -5.85 -4.3 -5.15 -4.1 -5.1 -3.95 -5.25 -3.5 -5.9 -3.55 -6.35 M-11.2 -4.5 L-11.25 -4.1 -11.3 -2.75 -11.35 -2.7 -11.35 -2.65 -12.6 -4.05 -12.55 -4.15 -12.45 -4.65 -12.45 -6.0 -12.4 -6.4 -11.95 -5.85 -11.2 -4.5 M-11.0 7.15 L-11.65 7.1 Q-13.15 6.85 -14.35 5.85 L-14.8 5.05 Q-15.95 2.3 -13.9 0.1 L-13.05 0.0 -12.2 0.5 Q-15.15 1.95 -13.95 5.15 L-13.75 5.55 Q-12.95 6.6 -11.8 6.95 L-11.0 7.15 M-11.8 0.8 L-11.75 0.85 -11.8 0.85 -11.8 0.8 M-5.05 8.5 L-5.1 8.5 -5.5 8.35 -6.0 8.0 -5.75 7.15 -4.9 7.0 -4.45 6.1 -2.8 2.95 -2.95 1.9 -2.6 1.2 -2.1 1.0 -1.55 1.15 -1.1 1.5 -1.15 2.05 -2.1 4.05 -2.15 4.15 -2.8 5.0 -2.85 5.05 -3.6 6.25 -3.65 6.35 -4.4 8.1 -4.8 8.4 -5.0 8.55 -5.05 8.5" fill="#e3e2ac" fill-rule="evenodd" stroke="none"/>
    <path d="M-8.8 -12.95 L-8.7 -13.25 -8.1 -13.35 -4.5 -14.05 Q2.65 -15.9 9.55 -13.2 L9.95 -12.35 10.2 -11.7 10.7 -9.55 Q10.85 -8.35 10.4 -7.1 L9.7 -4.55 9.15 -3.1 8.35 -1.75 7.1 -0.7 6.95 -0.55 6.85 -0.5 5.6 0.3 1.2 2.15 0.55 2.15 -0.05 2.05 -0.55 1.85 -0.7 1.75 -0.75 1.7 -0.8 1.4 -1.35 0.8 Q-1.5 0.6 -1.9 0.55 L-2.35 0.65 -2.8 1.15 -4.25 0.6 -5.55 -0.1 -5.85 -0.3 -6.1 -0.45 -6.75 -1.0 -8.2 -2.8 -8.65 -3.85 -9.15 -5.35 -9.6 -6.85 -10.05 -8.95 -10.05 -9.6 -9.8 -10.7 -9.45 -11.65 -8.8 -12.95 M11.45 -8.8 L11.65 -9.5 11.65 -9.6 12.55 -10.65 13.1 -7.75 Q12.5 -5.6 10.85 -3.9 L10.15 -3.25 10.15 -3.3 10.2 -4.0 10.7 -6.15 11.0 -7.25 11.4 -8.55 11.45 -8.8 M9.7 -11.5 L8.75 -11.8 7.0 -12.25 5.45 -12.1 3.95 -11.55 2.6 -10.75 Q1.95 -10.25 2.6 -10.25 L4.0 -11.2 Q6.8 -12.5 9.7 -11.5 M6.75 -10.6 Q6.2 -10.95 5.55 -11.1 L4.05 -10.65 2.65 -9.75 Q2.35 -9.15 2.85 -8.95 L3.15 -8.85 Q2.75 -6.8 3.0 -4.7 L3.15 -4.15 Q5.05 -3.35 6.9 -3.75 L10.2 -7.25 Q8.85 -9.45 6.75 -10.6 M3.7 -1.45 L2.75 -1.15 -1.95 -1.25 -2.85 -1.2 Q-2.25 -0.3 -1.35 0.1 1.6 0.9 3.75 -0.9 L3.7 -1.45 M5.95 0.75 L6.15 0.55 6.55 0.45 7.75 0.35 7.85 0.4 8.95 0.55 Q8.5 0.7 8.1 1.0 L5.7 2.55 3.2 4.2 1.7 5.05 Q1.2 4.65 0.7 4.4 L-1.25 3.55 -1.15 3.35 Q1.65 4.5 4.35 2.85 5.4 2.25 5.8 1.25 L5.95 0.75 M4.7 7.0 Q6.65 7.1 7.35 8.75 L7.35 8.95 7.55 8.15 8.35 7.7 9.75 8.15 8.3 7.4 7.85 6.1 8.45 5.45 9.55 5.95 10.25 5.15 11.2 5.7 11.55 10.9 Q10.5 12.2 8.7 11.7 L7.45 11.35 7.1 10.75 7.2 10.15 6.4 11.1 3.95 10.95 4.05 9.05 3.3 10.6 2.7 9.65 Q2.65 8.0 4.05 7.25 L4.7 7.0 M1.8 7.3 L0.9 8.7 Q-0.7 8.65 -1.8 7.8 L-2.85 6.9 -1.95 4.95 -0.9 4.3 -0.75 4.35 -0.45 4.65 -0.4 5.65 -0.1 4.45 0.15 4.5 0.5 4.75 Q1.6 5.25 1.75 6.2 L1.8 7.3 M5.2 20.85 L7.7 18.45 8.6 18.85 9.7 18.05 10.05 20.1 5.2 20.85 M-2.7 -11.0 L-1.6 -10.1 Q-2.05 -11.05 -2.95 -11.55 -4.2 -12.2 -5.55 -12.3 L-7.25 -12.1 -8.85 -11.55 -7.2 -11.9 -5.25 -11.9 -3.85 -11.65 -2.7 -11.0 M-2.1 -7.65 L-2.15 -8.9 -1.95 -8.95 Q-1.5 -9.05 -1.65 -9.45 -2.0 -10.35 -2.95 -10.75 L-4.2 -11.05 -6.05 -10.75 -7.35 -9.85 -9.35 -7.25 -6.05 -3.75 Q-5.0 -3.5 -3.8 -3.75 L-2.3 -4.15 -2.05 -5.3 Q-1.85 -6.55 -2.1 -7.65 M-11.8 -7.45 L-11.95 -9.05 -11.75 -10.5 -11.65 -10.55 -10.7 -9.25 -10.45 -8.6 -10.3 -8.0 -9.85 -6.15 -9.5 -4.75 -9.4 -3.4 -9.4 -3.25 -9.85 -3.6 -10.3 -4.25 -10.55 -4.6 -11.2 -5.7 -11.25 -5.8 -11.8 -7.45 M-3.45 2.65 L-3.65 3.1 -4.65 2.4 -5.1 2.15 -5.95 1.55 -7.65 0.4 -6.7 0.45 -5.55 0.6 -5.1 0.7 Q-4.9 1.45 -4.15 2.1 L-3.45 2.65 M-7.8 6.25 L-7.2 5.85 -6.65 6.3 -6.55 7.7 -8.65 8.45 -6.85 8.4 -5.65 9.1 -5.1 9.1 -4.7 9.15 -4.35 8.95 -4.0 8.8 -3.65 7.9 -3.5 7.7 -1.8 9.15 -4.45 10.85 Q-5.9 11.65 -7.45 12.25 L-8.0 12.0 Q-9.1 9.25 -9.5 6.4 L-8.95 5.8 -8.25 6.25 -7.8 6.25 M-3.8 20.6 L-9.1 19.85 -8.85 18.15 -8.0 18.05 -7.3 18.85 -6.4 18.6 -3.8 20.6" fill="#fef3ed" fill-rule="evenodd" stroke="none"/>
    <path d="M16.0 4.85 L15.25 5.55 Q14.0 6.55 12.55 6.2 L11.95 6.0 11.2 2.8 11.2 2.75 11.1 2.4 11.1 2.35 10.8 1.5 10.75 1.55 Q10.05 0.2 8.7 -0.25 L8.0 -0.35 7.95 -0.9 9.1 -1.8 11.65 -4.05 12.25 -4.75 12.45 -4.05 12.85 -1.6 Q14.05 -1.2 14.85 -0.45 16.1 0.65 16.4 2.6 16.55 3.9 16.0 4.85 M-1.15 3.35 L-1.0 3.05 Q1.5 3.65 3.85 2.45 5.0 1.8 5.55 0.75 L5.55 0.65 5.65 0.6 5.8 0.65 5.95 0.75 5.8 1.25 Q5.4 2.25 4.35 2.85 1.65 4.5 -1.15 3.35 M-11.2 -4.5 L-10.5 -3.85 -8.55 -2.2 -8.45 -2.15 -7.85 -1.55 -7.15 -0.35 -8.3 -0.15 -11.35 -2.65 -11.35 -2.7 -11.3 -2.75 -11.25 -4.1 -11.2 -4.5 M-11.0 7.15 L-11.8 6.95 Q-12.95 6.6 -13.75 5.55 L-13.95 5.15 Q-15.15 1.95 -12.2 0.5 L-11.8 0.8 -11.8 0.85 -11.75 0.85 -11.15 1.05 Q-10.8 1.75 -10.7 2.5 L-10.25 4.8 -10.15 6.2 -10.2 7.1 -11.0 7.15 M-3.25 2.2 L-3.45 2.65 -4.15 2.1 Q-4.9 1.45 -5.1 0.7 L-5.05 0.65 -4.85 0.6 -4.8 0.65 -3.35 2.0 -3.25 2.2" fill="#a49d5b" fill-rule="evenodd" stroke="none"/>
    <path d="M6.6 -9.3 L5.0 -9.3 3.8 -9.7 4.6 -10.1 6.4 -10.0 6.6 -9.3 M6.95 -7.45 L7.05 -9.55 7.5 -9.1 8.25 -7.9 8.55 -6.95 8.05 -5.8 6.95 -4.1 6.45 -4.15 6.55 -4.65 6.7 -5.45 6.95 -7.45 M4.25 -6.45 L4.7 -6.8 5.15 -6.45 5.35 -6.1 5.05 -5.35 4.8 -5.1 Q4.65 -5.15 4.55 -5.25 3.85 -5.85 4.25 -6.45 M-3.85 -9.85 L-3.2 -9.5 -5.75 -9.3 -5.55 -10.0 -3.85 -9.85 M-3.55 -6.35 L-3.5 -5.9 -3.95 -5.25 -4.1 -5.1 -4.3 -5.15 -4.95 -5.85 -4.8 -6.35 -4.5 -6.7 -4.15 -6.65 -3.55 -6.35 M-6.25 -7.45 L-5.9 -5.4 -5.7 -4.65 -5.6 -4.15 -6.15 -4.1 -7.0 -5.3 -7.55 -6.35 -7.75 -6.95 -7.45 -7.85 -6.25 -9.55 -6.25 -7.45" fill="#ffffff" fill-rule="evenodd" stroke="none"/>
    <path d="M3.7 -1.45 L3.75 -0.9 Q1.6 0.9 -1.35 0.1 -2.25 -0.3 -2.85 -1.2 L-1.95 -1.25 2.75 -1.15 3.7 -1.45" fill="#e6556b" fill-rule="evenodd" stroke="none"/>
    <path d="M5.5 0.7 L5.55 0.65 5.55 0.75 5.5 0.7 M5.65 0.6 L5.8 0.55 5.8 0.6 5.8 0.65 5.65 0.6 M-5.1 0.7 L-5.25 0.45 -5.2 0.45 -4.85 0.6 -4.75 0.65 -4.8 0.65 -4.85 0.6 -5.05 0.65 -5.1 0.7" fill="#edb192" fill-rule="evenodd" stroke="none"/>
    <path d="M-1.0 3.05 L-0.8 2.35 0.9 2.45 1.3 2.4 1.7 2.3 5.5 0.7 5.55 0.75 Q5.0 1.8 3.85 2.45 1.5 3.65 -1.0 3.05 M2.45 10.85 L-3.5 11.05 -2.3 10.15 1.9 10.3 2.45 10.85 M4.95 20.9 L3.25 21.15 2.65 19.75 4.15 18.85 5.55 19.6 7.4 18.45 7.7 18.45 5.2 20.85 5.05 20.9 4.95 20.85 4.95 20.9 M-4.75 0.65 L-2.95 1.55 -3.25 2.2 -3.35 2.0 -4.8 0.65 -4.75 0.65 M-6.4 18.6 L-6.3 18.4 -4.8 18.35 -3.45 19.2 -2.05 18.85 -1.7 19.5 -2.5 21.0 -3.8 20.6 -6.4 18.6" fill="#cab4a8" fill-rule="evenodd" stroke="none"/>
    <path d="M2.55 5.25 L2.6 5.25 3.95 4.75 3.45 5.3 3.4 5.75 3.4 5.8 3.4 5.85 4.0 6.3 2.45 6.45 2.2 5.55 2.1 5.4 2.15 5.4 2.55 5.25" fill="#c4c4d2" fill-rule="evenodd" stroke="none"/>
    <path d="M2.6 5.25 L2.55 5.25 2.6 5.25 M4.95 20.9 L4.95 20.85 5.05 20.9 4.95 20.9" fill="#ffe3d5" fill-rule="evenodd" stroke="none"/>
    <path d="M-2.85 -4.75 L-2.75 -4.75 -2.8 -4.6 -2.85 -4.75" fill="#686828" fill-rule="evenodd" stroke="none"/>
    <path d="M-18.3 -11.1 L-15.4 -6.95 -12.15 -3.1 -8.6 0.15 Q-6.8 1.7 -4.85 2.95 L-4.2 3.35 -3.85 3.55 -4.9 4.75 Q-7.85 2.6 -10.85 0.6 L-12.5 -0.55 -15.35 -2.9 -17.7 -5.3 Q-19.0 -6.9 -19.1 -9.0 L-18.9 -10.1 -18.3 -11.1" fill="#ccdeee" fill-rule="evenodd" stroke="none"/>
    <path d="M-5.25 0.45 L-5.25 0.4 -5.2 0.45 -5.25 0.45" fill="#ceb8a4" fill-rule="evenodd" stroke="none"/>
    <path d="M-5.1 2.2 L-5.95 1.55 -5.1 2.15 -5.1 2.2" fill="#481111" fill-rule="evenodd" stroke="none"/>
    <path d="M-4.65 2.4 L-5.1 2.2 -5.1 2.15 -4.65 2.4" fill="#da6661" fill-rule="evenodd" stroke="none"/>
    <path d="M0.9 9.65 L0.9 9.6 0.9 9.65" fill="#7a211d" fill-rule="evenodd" stroke="none"/>
  </g>
</svg>
