<?xml version="1.0" encoding="UTF-8" standalone="no"?>
<svg xmlns:ffdec="https://www.free-decompiler.com/flash" xmlns:xlink="http://www.w3.org/1999/xlink" ffdec:objectType="shape" height="63.4px" width="48.9px" xmlns="http://www.w3.org/2000/svg">
  <g transform="matrix(1.0, 0.0, 0.0, 1.0, 24.45, 28.1)">
    <path d="M-0.1 -8.95 L0.25 -1.1 2.3 -1.45 4.2 -1.95 7.75 -3.55 10.95 -5.7 13.9 -8.25 12.15 -10.5 12.3 -12.1 12.4 -13.7 12.35 -16.45 11.95 -18.9 11.2 -20.95 Q10.2 -23.1 8.25 -24.1 6.35 -25.0 4.6 -26.0 L2.9 -27.15 -3.15 -26.75 Q-5.1 -26.4 -6.9 -25.45 -8.5 -24.45 -9.95 -23.05 -11.4 -21.75 -12.1 -19.95 L-12.6 -17.95 -12.85 -14.45 Q-12.85 -12.45 -12.4 -10.5 L-14.1 -8.25 -10.55 -4.95 Q-8.75 -3.6 -6.4 -3.0 L-3.3 -2.1 Q-2.1 -3.2 -1.2 -4.8 -0.15 -6.75 -0.1 -8.95 M0.1 -23.25 L0.25 -21.6 6.1 -18.9 7.55 -17.95 10.4 -15.95 11.75 -14.9 11.9 -14.1 11.9 -13.95 11.55 -11.0 -0.1 -11.1 -7.95 -10.95 -7.8 -9.8 -6.95 -6.35 -6.5 -5.6 -4.95 -3.6 -7.95 -4.65 -9.85 -5.75 -10.75 -6.35 -12.5 -7.85 -12.0 -8.55 -11.65 -9.3 -11.25 -10.8 -12.2 -11.5 -12.25 -11.9 -12.0 -14.9 -11.6 -15.1 Q-11.7 -16.8 -11.3 -18.3 L-10.6 -19.95 -9.7 -21.1 -7.1 -23.2 -8.7 -21.4 -9.25 -17.35 -8.2 -17.95 -8.25 -19.3 -8.1 -19.9 -6.8 -21.85 -7.4 -18.35 -0.8 -21.3 -0.55 -22.1 0.1 -23.25 M13.05 -10.85 L14.1 -9.1 14.5 -8.85 16.45 -9.35 17.2 -9.15 Q22.8 -7.7 24.05 -2.0 24.85 1.8 21.5 2.8 L18.8 1.15 19.0 2.0 19.85 2.7 20.8 3.3 21.0 4.1 21.05 4.75 20.95 5.5 20.7 6.2 Q24.0 7.75 24.4 11.2 25.0 16.05 20.8 17.3 L21.15 18.35 Q21.7 20.15 20.8 21.8 19.85 23.55 18.25 24.4 L17.55 24.25 18.25 25.5 Q19.3 27.45 19.65 29.5 L19.3 29.75 19.45 32.15 19.25 34.45 Q6.05 38.05 1.85 26.0 L-2.05 25.95 Q-3.8 30.75 -7.35 34.75 L-19.25 34.6 -19.6 32.35 -19.5 29.75 -19.9 29.5 -17.65 23.9 -16.85 23.75 -16.45 23.95 -16.15 24.15 -15.85 24.4 -15.65 24.65 -15.35 23.95 Q-16.5 19.85 -14.65 15.85 -19.5 19.35 -22.8 15.1 -26.9 9.75 -20.95 6.4 L-21.0 3.3 -19.3 2.3 -19.05 1.2 -21.75 2.8 Q-24.6 1.7 -24.15 -1.25 -23.2 -7.25 -17.6 -9.05 L-16.7 -9.35 -14.95 -8.75 -14.05 -9.3 Q-13.3 -10.15 -13.15 -11.3 L-13.05 -13.4 -13.15 -14.3 -13.35 -16.9 -13.1 -20.0 -12.75 -21.3 -11.1 -23.65 -9.0 -25.45 Q-7.95 -26.15 -6.75 -26.65 L-3.3 -27.6 0.3 -28.1 4.0 -27.3 Q5.8 -26.95 7.5 -26.25 L10.55 -24.5 Q11.7 -23.65 12.35 -22.2 13.0 -20.65 13.0 -19.1 L13.05 -16.2 12.8 -13.65 Q12.6 -12.05 13.05 -10.85 M-0.1 -11.9 L2.7 -11.65 5.45 -11.65 8.15 -11.7 10.8 -12.0 10.9 -13.65 10.7 -14.6 10.2 -15.4 9.4 -16.15 8.85 -16.6 5.35 -18.4 2.75 -19.5 -0.1 -20.55 -0.15 -20.6 -5.6 -18.35 -9.1 -16.6 -9.25 -16.5 -9.3 -16.45 -9.25 -16.45 -9.65 -16.15 -9.65 -16.2 -9.7 -16.15 -10.7 -15.3 -10.75 -15.25 -10.7 -15.25 -11.0 -12.0 -10.5 -11.65 -0.1 -11.9 M9.15 -14.25 L9.25 -13.3 -0.1 -14.1 -5.8 -13.8 -5.85 -12.3 -8.1 -12.25 -8.55 -13.0 -9.1 -13.2 -9.3 -13.35 -9.4 -13.85 -9.35 -14.4 -8.85 -14.75 -8.85 -16.05 -6.45 -17.35 -6.15 -16.9 -6.0 -16.45 -5.85 -15.5 -0.15 -16.35 2.4 -16.2 5.8 -15.35 9.15 -14.25 M11.4 -1.25 L12.15 -1.5 11.4 2.85 11.9 3.1 Q12.55 2.8 13.2 2.6 15.3 1.7 17.45 1.75 L17.2 0.05 15.1 -1.65 12.95 -3.35 Q12.0 -4.15 12.25 -5.5 L10.05 -4.1 Q7.8 -2.7 5.35 -1.85 L2.8 -1.1 2.95 0.05 3.05 2.6 3.45 2.75 Q3.6 1.4 4.75 0.2 L5.35 -0.3 Q7.0 -0.6 8.35 0.2 9.55 0.95 9.9 2.35 L10.55 2.6 10.75 0.9 10.95 0.2 11.4 -1.25 M14.55 -6.35 L16.55 -4.2 17.2 -3.6 Q19.55 -1.85 22.6 -1.35 L23.15 -2.1 Q21.9 -6.8 17.2 -8.4 L15.65 -8.2 15.1 -7.9 Q13.55 -6.6 13.45 -4.8 L13.4 -3.6 14.35 -2.7 17.2 -0.7 Q19.45 0.5 22.1 0.9 L20.95 0.35 Q18.7 -0.6 17.2 -1.9 L16.3 -2.85 Q15.05 -4.35 14.55 -6.35 M21.45 14.0 L21.5 14.0 22.05 14.05 22.65 13.7 22.85 12.65 Q23.4 9.3 20.3 7.45 L19.55 3.55 17.85 3.1 15.35 3.05 12.9 3.7 15.35 6.9 Q16.1 7.95 15.5 8.95 L14.55 9.25 14.0 10.15 Q13.35 11.45 13.1 13.0 L14.3 12.95 15.6 11.4 16.6 10.7 21.25 13.9 21.45 14.0 M10.85 3.6 Q10.0 4.0 10.65 5.05 L11.05 5.9 11.2 6.55 10.95 7.55 10.65 8.0 11.3 8.45 Q8.65 13.05 6.6 8.0 L7.1 7.4 5.45 6.0 Q4.85 9.05 7.35 11.05 L7.3 11.05 7.35 11.1 Q11.0 12.65 13.05 9.45 L13.5 8.7 Q13.9 7.65 13.55 6.6 L13.35 5.9 Q13.35 4.95 12.65 4.3 11.9 3.6 10.85 3.6 M13.25 13.95 L15.4 15.4 17.15 13.95 17.05 14.7 Q16.9 15.35 16.35 15.75 L18.45 16.05 19.3 15.3 19.45 15.35 19.7 15.5 19.7 15.6 19.55 15.95 19.85 16.05 Q21.45 16.2 22.35 14.8 18.95 14.3 16.4 11.6 L15.6 12.0 15.45 12.55 Q14.9 14.25 13.25 13.9 L13.2 13.9 13.25 13.95 M8.4 2.25 L8.5 0.85 8.2 0.6 7.45 0.25 7.45 0.2 7.15 0.15 7.0 0.15 6.05 0.2 5.9 0.3 5.1 1.05 4.4 2.05 4.85 3.25 7.35 3.7 Q7.95 3.45 8.35 2.8 L8.4 2.25 M6.1 4.35 Q6.55 7.0 9.6 7.6 L10.25 6.5 9.2 3.25 7.85 4.65 6.8 4.7 6.1 4.35 M3.6 3.75 L2.15 3.7 2.0 -0.85 -0.15 -0.15 -2.0 -0.7 -2.25 0.2 Q-2.7 1.9 -2.4 3.7 L-6.9 3.7 -7.45 3.3 -7.95 3.6 -7.7 6.15 -2.35 6.55 Q-2.75 8.45 -2.1 10.4 L-1.7 10.6 2.05 10.3 2.25 6.4 4.55 6.2 4.8 5.45 3.6 3.75 M3.15 7.15 L3.2 10.3 3.75 10.55 4.2 10.55 4.9 10.1 4.35 7.15 3.15 7.15 M3.05 15.35 L3.2 15.95 3.85 16.1 4.05 11.7 2.65 11.7 -1.8 11.55 -3.9 11.7 -4.1 15.9 -2.75 16.2 -3.05 15.65 Q-3.5 14.5 -2.9 13.25 L-1.4 13.55 -1.8 14.05 -1.7 14.85 1.55 15.0 2.45 15.0 2.55 15.0 3.05 15.35 M4.95 11.5 L4.75 15.0 9.55 14.4 11.05 13.8 10.95 12.4 9.2 12.65 Q7.4 12.35 5.9 11.35 L4.95 11.5 M10.2 15.1 L6.75 15.95 4.75 16.05 4.75 16.8 4.15 17.0 Q3.55 19.75 3.75 22.6 L3.9 24.65 11.95 23.55 12.4 23.65 12.8 23.55 13.25 23.25 13.7 22.9 14.0 22.65 13.7 17.6 13.25 17.3 11.8 14.25 10.2 15.1 M-0.15 17.4 L-2.4 17.5 -2.7 23.95 -2.05 24.6 1.9 24.6 2.35 23.95 2.15 17.5 -0.1 17.4 -0.15 17.35 -0.15 17.4 M7.65 28.45 L12.5 24.8 13.35 25.15 14.35 26.85 14.55 26.35 14.55 25.9 14.05 24.45 13.7 23.9 7.5 25.05 6.45 26.3 4.6 28.05 5.8 30.2 7.65 28.45 M18.85 31.25 L17.1 24.5 17.0 24.6 16.65 25.1 Q15.85 27.75 14.0 30.05 L12.35 31.2 11.8 30.45 11.8 30.35 14.0 27.2 12.75 25.8 8.1 29.25 6.15 30.95 7.55 33.7 Q12.9 34.25 18.25 33.65 L18.75 33.3 18.85 32.85 18.85 31.55 18.85 31.5 18.85 31.25 M16.45 23.75 L15.45 23.0 15.25 24.3 15.3 24.45 16.45 23.75 M18.85 23.1 L19.85 22.35 Q20.55 19.65 18.85 17.3 16.45 17.3 14.45 15.85 L15.65 21.85 Q16.75 22.6 18.05 22.9 L18.85 23.1 M-22.25 -1.1 Q-19.9 -2.05 -17.6 -3.15 L-14.15 -5.05 -14.9 -4.15 -17.6 -1.75 Q-18.7 -1.05 -19.95 -0.45 L-22.4 0.6 -23.35 0.1 -22.85 0.65 Q-20.75 0.55 -18.7 -0.3 L-17.6 -0.8 -15.6 -2.15 -13.9 -3.75 Q-13.5 -4.25 -13.55 -4.85 -13.6 -5.9 -14.25 -6.7 -15.45 -8.3 -17.6 -8.35 L-18.9 -7.9 -20.85 -6.15 -23.0 -3.6 -22.25 -1.1 M-9.25 -16.5 L-9.2 -16.5 -9.25 -16.45 -9.25 -16.5 M-3.2 0.25 L-3.2 0.2 -3.0 -1.1 Q-5.4 -1.8 -7.8 -2.9 -10.25 -3.95 -12.45 -5.5 L-12.45 -4.05 Q-12.6 -2.2 -14.3 -1.5 L-16.25 -0.65 -17.4 0.2 -17.7 1.75 Q-14.25 1.7 -11.45 3.55 -12.25 1.9 -12.15 0.2 L-12.0 -0.65 -11.75 -1.55 -11.1 0.2 Q-10.55 2.05 -10.5 4.05 L-10.4 6.55 -10.65 6.05 -11.65 8.4 Q-9.85 9.95 -7.3 10.15 L-3.45 10.3 -3.4 7.15 -8.8 7.3 -8.8 4.95 -8.6 3.05 -8.4 2.45 -3.3 2.75 -3.2 0.25 M-5.15 11.5 L-7.5 10.85 -11.25 10.05 -11.3 13.8 Q-8.25 15.25 -5.0 15.0 L-5.15 11.5 M-16.6 10.65 L-14.85 12.45 -14.55 12.95 -13.3 13.0 Q-13.45 10.25 -15.6 8.5 L-14.8 8.15 Q-14.6 6.1 -13.15 4.8 L-12.0 5.25 -11.45 4.65 -14.35 3.3 -19.8 3.55 -20.55 7.45 -21.95 8.75 Q-23.15 10.05 -22.9 11.9 L-22.45 13.8 -20.95 13.45 Q-18.4 12.6 -16.6 10.65 M-16.65 11.6 Q-19.15 14.2 -22.55 14.8 -21.6 16.35 -19.85 15.95 L-19.9 15.65 -19.6 15.45 -18.7 16.05 -16.55 15.75 -17.5 13.7 Q-16.4 13.95 -15.65 15.4 L-13.45 13.95 -13.5 13.9 Q-15.3 14.2 -15.8 12.45 L-15.85 12.0 -16.65 11.6 M-10.35 15.15 L-12.4 14.2 -12.55 13.8 Q-14.6 17.85 -14.35 22.6 -13.55 23.7 -12.15 23.55 L-12.05 23.85 Q-11.9 24.2 -11.75 23.7 L-4.35 24.65 Q-3.6 20.85 -4.15 17.1 L-5.0 16.8 -5.0 16.05 -6.3 16.05 Q-8.4 16.05 -10.35 15.15 M-6.8 26.05 L-7.75 25.05 -13.95 23.8 -14.85 26.45 -14.55 26.85 -14.35 26.3 -14.15 25.85 -13.85 25.5 -13.2 25.0 -12.75 24.8 -7.65 28.65 -6.0 30.2 -4.8 28.05 -6.6 26.35 -6.8 26.05 M-18.7 33.65 L-7.8 33.7 Q-6.9 32.6 -6.35 30.95 L-6.85 30.3 Q-7.3 29.7 -8.1 29.45 L-13.0 25.8 -14.25 27.2 -12.05 30.8 Q-12.9 30.9 -13.5 30.45 -15.55 28.75 -16.2 26.3 -16.5 25.25 -17.45 24.5 -18.5 26.85 -18.8 29.35 -19.1 31.6 -18.7 33.65" fill="#000000" fill-rule="evenodd" stroke="none"/>
    <path d="M4.35 -24.9 L4.1 -24.15 Q6.35 -22.7 7.95 -20.35 L8.65 -19.2 9.25 -18.1 10.15 -17.55 11.2 -17.7 10.7 -20.35 Q10.35 -21.5 9.6 -22.45 L8.2 -23.85 Q6.8 -24.8 5.05 -25.2 L4.35 -24.9 M-3.15 -26.75 L2.9 -27.15 4.6 -26.0 Q6.35 -25.0 8.25 -24.1 10.2 -23.1 11.2 -20.95 L11.95 -18.9 12.35 -16.45 12.4 -13.7 12.3 -12.1 12.15 -10.5 13.9 -8.25 10.95 -5.7 7.75 -3.55 4.2 -1.95 2.3 -1.45 0.25 -1.1 -0.1 -8.95 -0.1 -11.1 11.55 -11.0 11.9 -13.95 11.9 -14.1 11.75 -14.9 10.4 -15.95 7.55 -17.95 6.1 -18.9 0.25 -21.6 0.1 -23.25 Q0.0 -24.85 -1.25 -25.7 -2.15 -26.3 -3.15 -26.75 M9.4 -16.15 L10.2 -15.4 10.7 -14.6 10.9 -13.65 10.8 -12.0 8.15 -11.7 5.45 -11.65 2.7 -11.65 -0.1 -11.9 -0.1 -14.1 9.25 -13.3 9.15 -14.25 9.4 -16.15 M-10.7 -15.25 L-10.75 -15.25 -10.7 -15.3 -10.7 -15.25 M-9.7 -16.15 L-9.65 -16.2 -9.65 -16.15 -9.7 -16.15 M-0.15 -20.6 L-0.1 -20.55 -0.15 -20.6 M15.1 -7.9 L14.55 -6.35 Q15.05 -4.35 16.3 -2.85 L17.2 -1.9 Q18.7 -0.6 20.95 0.35 L22.1 0.9 Q19.45 0.5 17.2 -0.7 L14.35 -2.7 13.4 -3.6 13.45 -4.8 Q13.55 -6.6 15.1 -7.9 M21.45 14.0 L21.5 13.95 21.5 14.0 21.45 14.0 M17.85 3.1 L18.5 7.8 19.25 8.4 Q21.65 10.55 21.25 13.9 L16.6 10.7 16.75 8.9 Q16.9 5.75 15.35 3.05 L17.85 3.1 M8.1 29.25 L12.75 25.8 14.0 27.2 11.8 30.35 11.8 30.45 12.35 31.2 14.0 30.05 Q15.85 27.75 16.65 25.1 L17.0 24.6 17.1 24.5 18.85 31.25 17.6 28.9 15.1 31.4 13.5 31.75 Q11.05 32.15 8.9 30.9 L8.1 29.25 M18.85 31.5 L18.85 31.55 18.8 31.55 18.85 31.5" fill="#cccccc" fill-rule="evenodd" stroke="none"/>
    <path d="M4.35 -24.9 L5.05 -25.2 Q6.8 -24.8 8.2 -23.85 L9.6 -22.45 Q10.35 -21.5 10.7 -20.35 L11.2 -17.7 10.15 -17.55 9.25 -18.1 8.65 -19.2 7.95 -20.35 Q6.35 -22.7 4.1 -24.15 L4.35 -24.9 M13.05 -10.85 Q12.6 -12.05 12.8 -13.65 L13.05 -16.2 12.95 -12.3 13.05 -10.85 M9.4 -16.15 L9.15 -14.25 5.8 -15.35 2.4 -16.2 -0.15 -16.35 -0.1 -20.55 2.75 -19.5 5.35 -18.4 8.85 -16.6 9.4 -16.15 M15.1 -7.9 L15.65 -8.2 17.2 -8.4 Q21.9 -6.8 23.15 -2.1 L22.6 -1.35 Q19.55 -1.85 17.2 -3.6 L16.55 -4.2 14.55 -6.35 15.1 -7.9 M21.5 14.0 L21.5 13.95 21.45 14.0 21.25 13.9 Q21.65 10.55 19.25 8.4 L18.5 7.8 17.85 3.1 19.55 3.55 20.3 7.45 Q23.4 9.3 22.85 12.65 L22.65 13.7 22.05 14.05 21.5 14.0 M10.85 3.6 Q11.9 3.6 12.65 4.3 13.35 4.95 13.35 5.9 L12.85 6.3 Q11.1 5.4 10.85 3.6 M7.15 0.15 L7.45 0.2 7.45 0.25 8.25 0.8 7.3 1.95 7.05 1.8 6.55 1.25 6.45 0.9 6.55 0.55 6.8 0.3 7.0 0.2 7.15 0.15 M3.6 3.75 L4.8 5.45 4.55 6.2 2.25 6.4 2.05 10.3 -1.7 10.6 -2.1 10.4 Q-2.75 8.45 -2.35 6.55 L-7.7 6.15 -7.95 3.6 -7.45 3.3 -6.9 3.7 -2.4 3.7 Q-2.7 1.9 -2.25 0.2 L-2.0 -0.7 -0.15 -0.15 2.0 -0.85 2.15 3.7 3.6 3.75 M2.45 15.0 L1.55 15.0 1.5 13.55 -1.4 13.55 -2.9 13.25 -2.8 12.5 2.35 12.85 2.55 13.7 2.55 14.85 2.45 15.0 M-0.1 17.4 L2.15 17.5 2.35 23.95 1.9 24.6 -2.05 24.6 -2.7 23.95 -2.4 17.5 -0.15 17.4 -0.1 17.4" fill="#ffffff" fill-rule="evenodd" stroke="none"/>
    <path d="M7.0 0.15 L7.15 0.15 7.0 0.2 7.0 0.15" fill="#fcfc1b" fill-rule="evenodd" stroke="none"/>
    <path d="M2.55 15.0 L2.45 15.0 2.55 14.85 2.55 15.0" fill="#9b9b02" fill-rule="evenodd" stroke="none"/>
    <path d="M13.5 8.7 L13.05 9.45 Q11.0 12.65 7.35 11.1 L7.35 11.05 Q4.85 9.05 5.45 6.0 L7.1 7.4 6.6 8.0 Q8.65 13.05 11.3 8.45 L10.65 8.0 10.95 7.55 11.2 6.55 Q11.7 8.1 13.1 8.7 L13.5 8.7 M16.6 10.7 L15.6 11.4 14.3 12.95 13.1 13.0 Q13.35 11.45 14.0 10.15 L14.55 9.25 15.5 8.95 Q16.1 7.95 15.35 6.9 L12.9 3.7 15.35 3.05 Q16.9 5.75 16.75 8.9 L16.6 10.7 M8.4 2.25 L8.35 2.8 Q7.95 3.45 7.35 3.7 L4.85 3.25 4.4 2.05 5.1 1.05 5.9 0.3 5.6 0.75 5.75 1.35 Q6.55 3.2 8.4 2.25 M2.65 11.7 L4.05 11.7 3.85 16.1 3.2 15.95 3.05 15.35 3.3 14.9 Q4.1 12.9 2.65 11.7 M1.55 15.0 L-1.7 14.85 -1.8 14.05 -1.4 13.55 1.5 13.55 1.55 15.0 M-2.9 13.25 Q-3.5 14.5 -3.05 15.65 L-2.75 16.2 -4.1 15.9 -3.9 11.7 -1.8 11.55 Q-2.2 11.55 -2.5 11.85 L-2.8 12.5 -2.9 13.25 M6.45 26.3 L7.65 28.45 5.8 30.2 4.6 28.05 6.45 26.3 M8.1 29.25 L8.9 30.9 Q11.05 32.15 13.5 31.75 L15.1 31.4 17.6 28.9 18.85 31.25 18.85 31.5 18.8 31.55 18.85 31.55 18.85 32.85 18.75 33.3 18.25 33.65 Q12.9 34.25 7.55 33.7 L6.15 30.95 8.1 29.25 M-14.35 3.3 L-11.45 4.65 -12.0 5.25 -13.15 4.8 Q-14.6 6.1 -14.8 8.15 L-15.6 8.5 Q-13.45 10.25 -13.3 13.0 L-14.55 12.95 -14.85 12.45 -16.6 10.65 -16.45 8.8 Q-16.2 5.85 -14.35 3.3 M-7.65 28.65 L-6.8 26.05 -6.6 26.35 -4.8 28.05 -6.0 30.2 -7.65 28.65 M-8.1 29.45 Q-7.3 29.7 -6.85 30.3 L-6.35 30.95 Q-6.9 32.6 -7.8 33.7 L-18.7 33.65 Q-18.6 31.8 -17.8 30.2 L-17.55 29.95 -15.3 31.75 -8.75 31.35 -8.1 29.45" fill="#666666" fill-rule="evenodd" stroke="none"/>
    <path d="M-3.15 -26.75 Q-2.15 -26.3 -1.25 -25.7 0.0 -24.85 0.1 -23.25 L-0.55 -22.1 -0.8 -21.3 -7.4 -18.35 -6.8 -21.85 -8.1 -19.9 -8.25 -19.3 -8.2 -17.95 -9.25 -17.35 -8.7 -21.4 -7.1 -23.2 -9.7 -21.1 -10.6 -19.95 -11.3 -18.3 Q-11.7 -16.8 -11.6 -15.1 L-12.0 -14.9 -12.25 -11.9 -12.2 -11.5 -11.25 -10.8 -11.65 -9.3 -12.0 -8.55 -12.5 -7.85 -10.75 -6.35 -9.85 -5.75 -7.95 -4.65 -4.95 -3.6 -6.5 -5.6 -6.95 -6.35 -7.8 -9.8 -7.95 -10.95 -0.1 -11.1 -0.1 -8.95 Q-0.15 -6.75 -1.2 -4.8 -2.1 -3.2 -3.3 -2.1 L-6.4 -3.0 Q-8.75 -3.6 -10.55 -4.95 L-14.1 -8.25 -12.4 -10.5 Q-12.85 -12.45 -12.85 -14.45 L-12.6 -17.95 -12.1 -19.95 Q-11.4 -21.75 -9.95 -23.05 -8.5 -24.45 -6.9 -25.45 -5.1 -26.4 -3.15 -26.75 M-0.1 -14.1 L-0.1 -11.9 -10.5 -11.65 -11.0 -12.0 -10.7 -15.25 -10.7 -15.3 -9.7 -16.15 -9.65 -16.15 -9.25 -16.45 -9.2 -16.5 -9.1 -16.6 -5.6 -18.35 -0.15 -20.6 -0.1 -20.55 -0.15 -16.35 -5.85 -15.5 -6.0 -16.45 -6.15 -16.9 -6.45 -17.35 -8.85 -16.05 -8.85 -14.75 -9.35 -14.4 -9.4 -13.85 -9.3 -13.35 -9.1 -13.2 -8.55 -13.0 -8.1 -12.25 -5.85 -12.3 -5.8 -13.8 -0.1 -14.1 M11.2 6.55 L11.05 5.9 10.65 5.05 Q10.0 4.0 10.85 3.6 11.1 5.4 12.85 6.3 L13.35 5.9 13.55 6.6 Q13.9 7.65 13.5 8.7 L13.1 8.7 Q11.7 8.1 11.2 6.55 M13.25 13.9 Q14.9 14.25 15.45 12.55 L15.6 12.0 16.4 11.6 Q18.95 14.3 22.35 14.8 21.45 16.2 19.85 16.05 L19.55 15.95 19.7 15.6 19.7 15.5 19.45 15.35 19.3 15.3 18.45 16.05 16.35 15.75 Q16.9 15.35 17.05 14.7 L17.15 13.95 15.4 15.4 13.25 13.95 13.25 13.9 M7.45 0.25 L8.2 0.6 8.5 0.85 8.4 2.25 Q6.55 3.2 5.75 1.35 L5.6 0.75 5.9 0.3 6.05 0.2 7.0 0.15 7.0 0.2 6.8 0.3 6.55 0.55 6.45 0.9 6.55 1.25 7.05 1.8 7.3 1.95 8.25 0.8 7.45 0.25 M3.05 15.35 L2.55 15.0 2.55 14.85 2.55 13.7 2.35 12.85 -2.8 12.5 -2.5 11.85 Q-2.2 11.55 -1.8 11.55 L2.65 11.7 Q4.1 12.9 3.3 14.9 L3.05 15.35 M6.45 26.3 L7.5 25.05 13.7 23.9 14.05 24.45 14.55 25.9 14.55 26.35 14.35 26.85 13.35 25.15 12.5 24.8 7.65 28.45 6.45 26.3 M-22.25 -1.1 L-23.0 -3.6 -20.85 -6.15 -18.9 -7.9 -17.6 -8.35 Q-15.45 -8.3 -14.25 -6.7 -13.6 -5.9 -13.55 -4.85 -13.5 -4.25 -13.9 -3.75 L-15.6 -2.15 -17.6 -0.8 -18.7 -0.3 Q-20.75 0.55 -22.85 0.65 L-23.35 0.1 -22.4 0.6 -19.95 -0.45 Q-18.7 -1.05 -17.6 -1.75 L-14.9 -4.15 -14.15 -5.05 -17.6 -3.15 Q-19.9 -2.05 -22.25 -1.1 M-14.35 3.3 Q-16.2 5.85 -16.45 8.8 L-16.6 10.65 Q-18.4 12.6 -20.95 13.45 L-22.45 13.8 -22.9 11.9 Q-23.15 10.05 -21.95 8.75 L-20.55 7.45 -19.8 3.55 -14.35 3.3 M-16.65 11.6 L-15.85 12.0 -15.8 12.45 Q-15.3 14.2 -13.5 13.9 L-13.45 13.95 -15.65 15.4 Q-16.4 13.95 -17.5 13.7 L-16.55 15.75 -18.7 16.05 -19.6 15.45 -19.9 15.65 -19.85 15.95 Q-21.6 16.35 -22.55 14.8 -19.15 14.2 -16.65 11.6 M-7.65 28.65 L-12.75 24.8 -13.2 25.0 -13.85 25.5 -14.15 25.85 -14.35 26.3 -14.55 26.85 -14.85 26.45 -13.95 23.8 -7.75 25.05 -6.8 26.05 -7.65 28.65 M-18.7 33.65 Q-19.1 31.6 -18.8 29.35 -18.5 26.85 -17.45 24.5 -16.5 25.25 -16.2 26.3 -15.55 28.75 -13.5 30.45 -12.9 30.9 -12.05 30.8 L-14.25 27.2 -13.0 25.8 -8.1 29.45 -8.75 31.35 -15.3 31.75 -17.55 29.95 -17.8 30.2 Q-18.6 31.8 -18.7 33.65" fill="#999999" fill-rule="evenodd" stroke="none"/>
    <path d="M6.1 4.35 L6.8 4.7 7.85 4.65 9.2 3.25 10.25 6.5 9.6 7.6 Q6.55 7.0 6.1 4.35" fill="#8f7956" fill-rule="evenodd" stroke="none"/>
    <path d="M4.95 11.5 L5.9 11.35 Q7.4 12.35 9.2 12.65 L10.95 12.4 11.05 13.8 9.55 14.4 4.75 15.0 4.95 11.5 M-5.15 11.5 L-5.0 15.0 Q-8.25 15.25 -11.3 13.8 L-11.25 10.05 -7.5 10.85 -5.15 11.5" fill="#796c42" fill-rule="evenodd" stroke="none"/>
    <path d="M2.95 0.05 L10.1 -2.45 11.4 -1.25 10.95 0.2 10.75 0.9 10.55 2.6 9.9 2.35 Q9.55 0.95 8.35 0.2 7.0 -0.6 5.35 -0.3 L4.75 0.2 Q3.6 1.4 3.45 2.75 L3.05 2.6 2.95 0.05 M3.15 7.15 L4.35 7.15 4.9 10.1 4.2 10.55 3.75 10.55 3.2 10.3 3.15 7.15 M11.95 23.55 L3.9 24.65 3.75 22.6 Q3.55 19.75 4.15 17.0 L4.75 16.8 4.75 16.05 6.75 15.95 10.2 15.1 10.75 16.75 Q11.9 20.15 11.95 23.55 M-11.75 -1.55 L-10.8 -2.8 -9.0 -1.8 -7.2 -1.05 -3.45 0.2 -3.2 0.25 -3.3 2.75 -8.4 2.45 -8.6 3.05 -8.8 4.95 -8.8 7.3 -3.4 7.15 -3.45 10.3 -7.3 10.15 Q-9.85 9.95 -11.65 8.4 L-10.65 6.05 -10.4 6.55 -10.5 4.05 Q-10.55 2.05 -11.1 0.2 L-11.75 -1.55 M-10.35 15.15 Q-8.4 16.05 -6.3 16.05 L-5.0 16.05 -5.0 16.8 -4.15 17.1 Q-3.6 20.85 -4.35 24.65 L-11.75 23.7 -10.35 15.15" fill="#009933" fill-rule="evenodd" stroke="none"/>
    <path d="M2.95 0.05 L2.8 -1.1 5.35 -1.85 Q7.8 -2.7 10.05 -4.1 L12.25 -5.5 Q12.0 -4.15 12.95 -3.35 L15.1 -1.65 17.2 0.05 17.45 1.75 Q15.3 1.7 13.2 2.6 12.55 2.8 11.9 3.1 L11.4 2.85 12.15 -1.5 11.4 -1.25 10.1 -2.45 2.95 0.05 M11.95 23.55 Q11.9 20.15 10.75 16.75 L10.2 15.1 11.8 14.25 13.25 17.3 13.7 17.6 14.0 22.65 13.7 22.9 13.25 23.25 12.8 23.55 12.4 23.65 11.95 23.55 M18.85 23.1 L18.05 22.9 Q16.75 22.6 15.65 21.85 L14.45 15.85 Q16.45 17.3 18.85 17.3 20.55 19.65 19.85 22.35 L18.85 23.1 M-11.75 -1.55 L-12.0 -0.65 -12.15 0.2 Q-12.25 1.9 -11.45 3.55 -14.25 1.7 -17.7 1.75 L-17.4 0.2 -16.25 -0.65 -14.3 -1.5 Q-12.6 -2.2 -12.45 -4.05 L-12.45 -5.5 Q-10.25 -3.95 -7.8 -2.9 -5.4 -1.8 -3.0 -1.1 L-3.2 0.2 -3.2 0.25 -3.45 0.2 -7.2 -1.05 -9.0 -1.8 -10.8 -2.8 -11.75 -1.55 M-11.75 23.7 Q-11.9 24.2 -12.05 23.85 L-12.15 23.55 Q-13.55 23.7 -14.35 22.6 -14.6 17.85 -12.55 13.8 L-12.4 14.2 -10.35 15.15 -11.75 23.7" fill="#01582c" fill-rule="evenodd" stroke="none"/>
  </g>
</svg>
