<?xml version="1.0" encoding="UTF-8" standalone="no"?>
<svg xmlns:ffdec="https://www.free-decompiler.com/flash" xmlns:xlink="http://www.w3.org/1999/xlink" ffdec:objectType="shape" height="8.8px" width="15.6px" xmlns="http://www.w3.org/2000/svg">
  <g transform="matrix(1.0, 0.0, 0.0, 1.0, 6.95, 5.65)">
    <path d="M-1.9 1.5 L-1.8 1.4 -1.6 1.55 -1.7 1.7 -1.75 1.75 -1.9 1.65 -1.9 1.5 M-1.25 2.15 L-1.15 2.1 -1.0 2.25 -1.0 2.35 -1.1 2.45 -1.3 2.35 -1.25 2.15 M-0.35 2.65 L-0.4 2.7 -0.6 2.6 -0.55 2.45 -0.5 2.4 -0.4 2.4 -0.3 2.5 -0.35 2.65 M-0.45 2.2 L-0.5 2.25 -0.7 2.15 -0.65 2.0 -0.55 1.95 -0.45 2.0 -0.4 2.05 -0.45 2.2" fill="#cccccc" fill-rule="evenodd" stroke="none"/>
    <path d="M1.25 -0.5 L1.2 -0.4 1.05 -0.35 Q0.95 -0.35 0.95 -0.4 L0.9 -0.5 0.95 -0.65 1.05 -0.7 1.2 -0.65 1.25 -0.5 M1.25 -1.65 L1.15 -1.6 1.0 -1.65 Q0.9 -1.75 0.95 -1.8 L1.0 -1.95 1.15 -2.0 1.25 -1.95 1.3 -1.8 1.25 -1.65 M2.95 -1.8 L2.85 -1.6 2.75 -1.6 2.6 -1.7 Q2.5 -1.95 2.75 -1.95 L2.85 -1.9 2.95 -1.8 M-0.2 -2.1 L-0.2 -2.05 -0.3 -1.8 -0.5 -1.9 -0.45 -2.15 -0.35 -2.2 -0.2 -2.1 M2.9 -0.55 L2.8 -0.4 2.7 -0.35 2.55 -0.4 2.5 -0.55 2.55 -0.65 2.7 -0.75 2.8 -0.65 2.9 -0.55 M-6.75 -4.7 L-6.8 -4.9 -6.7 -4.95 -6.5 -5.0 -6.45 -4.95 -6.45 -4.75 -6.5 -4.65 -6.75 -4.7 M-3.3 -3.05 L-3.25 -3.0 -3.2 -3.0 -3.15 -2.85 -3.2 -2.7 -3.35 -2.65 -3.5 -2.7 -3.55 -2.85 -3.5 -3.0 -3.35 -3.05 -3.3 -3.05 M-4.75 -2.3 L-4.8 -2.3 -5.0 -2.35 -5.0 -2.5 -4.85 -2.6 -4.7 -2.5 -4.75 -2.3 M-5.9 -3.3 L-6.1 -3.2 -6.2 -3.25 Q-6.3 -3.5 -6.05 -3.6 L-5.95 -3.5 -5.9 -3.3 M8.35 -1.55 L8.25 -1.6 8.2 -1.65 8.2 -1.85 8.35 -2.0 8.5 -1.9 8.55 -1.85 8.55 -1.75 8.5 -1.65 8.35 -1.55 M-4.75 -3.7 L-4.65 -3.65 -4.6 -3.5 -4.65 -3.4 -4.75 -3.35 -4.9 -3.4 -4.95 -3.5 -4.9 -3.65 -4.75 -3.7 M-5.85 -3.95 L-5.95 -4.0 -6.0 -4.15 -5.95 -4.3 -5.85 -4.35 -5.7 -4.3 -5.65 -4.15 -5.7 -4.0 -5.85 -3.95 M-2.55 0.65 L-2.4 0.55 -2.2 0.7 -2.2 0.75 -2.35 0.9 -2.5 0.85 -2.55 0.65 M-0.7 1.6 L-0.7 1.55 -0.55 1.35 -0.45 1.4 -0.4 1.45 -0.45 1.65 -0.5 1.7 -0.7 1.6 M-0.7 -1.35 L-0.7 -1.3 -0.75 -1.15 -0.9 -1.1 -1.05 -1.15 -1.1 -1.3 -1.05 -1.45 -0.9 -1.5 -0.75 -1.45 -0.7 -1.35 M-1.45 -2.55 L-1.5 -2.4 Q-1.6 -2.2 -1.75 -2.35 L-1.8 -2.45 -1.6 -2.65 -1.55 -2.65 -1.45 -2.55 M-2.85 -1.75 L-3.0 -1.7 -3.1 -1.75 -3.2 -1.9 -3.1 -2.05 -3.0 -2.1 -2.85 -2.05 -2.8 -1.9 -2.85 -1.75 M-2.3 -2.45 L-2.45 -2.5 -2.5 -2.65 -2.45 -2.75 -2.3 -2.8 -2.2 -2.75 -2.15 -2.65 -2.2 -2.5 -2.3 -2.45 M-2.75 -0.2 L-2.8 -0.05 -2.95 0.0 -3.1 -0.05 -3.15 -0.2 -3.1 -0.35 -2.95 -0.4 -2.8 -0.35 -2.75 -0.2 M-3.5 -1.4 L-3.4 -1.35 -3.3 -1.2 -3.4 -1.05 -3.5 -1.0 -3.65 -1.05 -3.7 -1.2 -3.65 -1.35 -3.5 -1.4 M-0.55 0.45 L-0.45 0.5 -0.4 0.65 -0.45 0.75 -0.55 0.8 -0.65 0.75 -0.75 0.65 -0.65 0.5 -0.55 0.45 M-0.3 -0.3 L-0.25 -0.2 -0.3 -0.05 -0.45 0.0 -0.55 -0.05 -0.6 -0.2 -0.55 -0.3 -0.45 -0.35 -0.3 -0.3" fill="#ffffff" fill-rule="evenodd" stroke="none"/>
    <path d="M-0.45 -2.15 L-0.95 -2.25 0.05 -0.4 1.85 -0.25 3.55 -0.25 3.85 -0.25 2.95 -1.8 2.85 -1.9 2.85 -2.0 -0.2 -2.1 -0.35 -2.2 -0.45 -2.15 M-6.8 -4.9 L-6.95 -5.6 -6.85 -5.65 -6.75 -5.65 -6.65 -5.65 -6.05 -4.9 -5.65 -4.5 Q-4.2 -3.6 -2.55 -3.0 L-1.75 -3.05 -1.4 -2.9 -1.3 -2.8 -1.15 -2.55 2.95 -2.15 4.05 -0.35 4.1 -0.25 4.0 -0.2 1.2 -0.1 0.0 -0.2 -0.25 1.4 -0.15 2.6 0.0 3.15 Q-0.55 3.15 -0.95 2.8 L-1.35 2.45 -2.45 1.25 -3.85 -1.1 -3.9 -1.35 -4.95 -2.05 -5.75 -2.75 -6.1 -3.15 -6.25 -3.1 -6.4 -3.3 -6.75 -4.7 -6.5 -4.65 -6.45 -4.75 -6.05 -3.6 Q-6.3 -3.5 -6.2 -3.25 L-6.1 -3.2 -5.9 -3.3 -5.0 -2.5 -5.0 -2.35 -4.8 -2.3 -4.75 -2.3 -3.8 -1.7 -2.8 -2.8 -3.2 -3.0 -3.25 -3.0 -3.3 -3.05 -4.05 -3.35 Q-4.75 -3.65 -5.35 -4.1 L-6.55 -5.15 -6.5 -5.0 -6.7 -4.95 -6.8 -4.9 M7.15 -2.3 L7.3 -2.3 7.6 -2.25 7.95 -2.2 8.25 -2.1 8.6 -2.0 8.65 -1.55 8.65 -1.25 8.65 -1.0 8.6 -0.65 8.45 -0.5 8.35 -0.55 7.9 -1.05 7.75 -1.2 7.6 -1.4 7.3 -1.9 7.1 -2.25 7.05 -2.3 7.15 -2.3 M8.35 -1.55 L8.5 -1.65 8.55 -1.75 8.55 -1.85 8.5 -1.9 8.35 -2.0 8.2 -1.85 7.55 -1.95 8.4 -0.9 8.35 -1.55 M-1.55 -2.65 Q-1.95 -3.05 -2.5 -2.85 L-2.75 -2.7 -3.15 -2.2 -3.65 -1.55 -3.65 -0.9 -2.85 0.3 -2.55 0.65 -2.5 0.85 -2.35 0.9 -2.3 0.95 -1.9 1.5 -1.9 1.65 -1.75 1.75 -1.7 1.7 -1.25 2.15 -1.3 2.35 -1.1 2.45 -1.0 2.35 Q-0.75 2.5 -0.55 2.7 L-0.35 2.75 -0.35 2.65 -0.3 2.5 -0.4 2.4 -0.45 2.2 -0.4 2.05 -0.45 2.0 -0.45 1.8 -0.4 1.75 -0.45 1.7 -0.45 1.65 -0.4 1.45 -0.45 1.4 -0.15 -0.2 -0.2 -0.25 -0.3 -0.45 -0.55 -1.1 -0.7 -1.35 -0.75 -1.45 -1.3 -2.35 -1.45 -2.55 -1.55 -2.65" fill="#000000" fill-rule="evenodd" stroke="none"/>
    <path d="M1.25 -1.65 L1.3 -1.8 1.25 -1.95 1.15 -2.0 1.0 -1.95 0.95 -1.8 Q0.9 -1.75 1.0 -1.65 L1.15 -1.6 1.25 -1.65 M1.25 -0.5 L1.2 -0.65 1.05 -0.7 0.95 -0.65 0.9 -0.5 0.95 -0.4 Q0.95 -0.35 1.05 -0.35 L1.2 -0.4 1.25 -0.5 M2.95 -1.8 L3.85 -0.25 3.55 -0.25 1.85 -0.25 0.05 -0.4 -0.95 -2.25 -0.45 -2.15 -0.5 -1.9 -0.3 -1.8 -0.2 -2.05 -0.2 -2.1 2.85 -2.0 2.85 -1.9 2.75 -1.95 Q2.5 -1.95 2.6 -1.7 L2.75 -1.6 2.85 -1.6 2.95 -1.8 M2.9 -0.55 L2.8 -0.65 2.7 -0.75 2.55 -0.65 2.5 -0.55 2.55 -0.4 2.7 -0.35 2.8 -0.4 2.9 -0.55 M-6.5 -5.0 L-6.55 -5.15 -5.35 -4.1 Q-4.75 -3.65 -4.05 -3.35 L-3.3 -3.05 -3.35 -3.05 -3.5 -3.0 -3.55 -2.85 -3.5 -2.7 -3.35 -2.65 -3.2 -2.7 -3.15 -2.85 -3.2 -3.0 -2.8 -2.8 -3.8 -1.7 -4.75 -2.3 -4.7 -2.5 -4.85 -2.6 -5.0 -2.5 -5.9 -3.3 -5.95 -3.5 -6.05 -3.6 -6.45 -4.75 -6.45 -4.95 -6.5 -5.0 M8.2 -1.85 L8.2 -1.65 8.25 -1.6 8.35 -1.55 8.4 -0.9 7.55 -1.95 8.2 -1.85 M-5.85 -3.95 L-5.7 -4.0 -5.65 -4.15 -5.7 -4.3 -5.85 -4.35 -5.95 -4.3 -6.0 -4.15 -5.95 -4.0 -5.85 -3.95 M-4.75 -3.7 L-4.9 -3.65 -4.95 -3.5 -4.9 -3.4 -4.75 -3.35 -4.65 -3.4 -4.6 -3.5 -4.65 -3.65 -4.75 -3.7 M-2.55 0.65 L-2.85 0.3 -3.65 -0.9 -3.65 -1.55 -3.15 -2.2 -2.75 -2.7 -2.5 -2.85 Q-1.95 -3.05 -1.55 -2.65 L-1.6 -2.65 -1.8 -2.45 -1.75 -2.35 Q-1.6 -2.2 -1.5 -2.4 L-1.45 -2.55 -1.3 -2.35 -0.75 -1.45 -0.9 -1.5 -1.05 -1.45 -1.1 -1.3 -1.05 -1.15 -0.9 -1.1 -0.75 -1.15 -0.7 -1.3 -0.7 -1.35 -0.55 -1.1 -0.3 -0.45 -0.2 -0.25 -0.15 -0.2 -0.45 1.4 -0.55 1.35 -0.7 1.55 -0.7 1.6 -1.8 1.2 -2.25 0.95 -2.3 0.95 -2.35 0.9 -2.2 0.75 -2.2 0.7 -2.4 0.55 -2.55 0.65 M-2.85 -1.75 L-2.8 -1.9 -2.85 -2.05 -3.0 -2.1 -3.1 -2.05 -3.2 -1.9 -3.1 -1.75 -3.0 -1.7 -2.85 -1.75 M-3.5 -1.4 L-3.65 -1.35 -3.7 -1.2 -3.65 -1.05 -3.5 -1.0 -3.4 -1.05 -3.3 -1.2 -3.4 -1.35 -3.5 -1.4 M-2.75 -0.2 L-2.8 -0.35 -2.95 -0.4 -3.1 -0.35 -3.15 -0.2 -3.1 -0.05 -2.95 0.0 -2.8 -0.05 -2.75 -0.2 M-2.3 -2.45 L-2.2 -2.5 -2.15 -2.65 -2.2 -2.75 -2.3 -2.8 -2.45 -2.75 -2.5 -2.65 -2.45 -2.5 -2.3 -2.45 M-0.3 -0.3 L-0.45 -0.35 -0.55 -0.3 -0.6 -0.2 -0.55 -0.05 -0.45 0.0 -0.3 -0.05 -0.25 -0.2 -0.3 -0.3 M-0.55 0.45 L-0.65 0.5 -0.75 0.65 -0.65 0.75 -0.55 0.8 -0.45 0.75 -0.4 0.65 -0.45 0.5 -0.55 0.45 M-0.45 1.7 L-0.5 1.7 -0.45 1.65 -0.45 1.7" fill="#666666" fill-rule="evenodd" stroke="none"/>
    <path d="M-2.3 0.95 L-2.25 0.95 -1.8 1.2 -0.7 1.6 -0.5 1.7 -0.45 1.7 -0.4 1.75 -0.45 1.8 -0.45 2.0 -0.55 1.95 -0.65 2.0 -0.7 2.15 -0.5 2.25 -0.45 2.2 -0.4 2.4 -0.5 2.4 -0.55 2.45 -0.6 2.6 -0.4 2.7 -0.35 2.65 -0.35 2.75 -0.55 2.7 Q-0.75 2.5 -1.0 2.35 L-1.0 2.25 -1.15 2.1 -1.25 2.15 -1.7 1.7 -1.6 1.55 -1.8 1.4 -1.9 1.5 -2.3 0.95" fill="#333333" fill-rule="evenodd" stroke="none"/>
  </g>
</svg>
