<?xml version="1.0" encoding="UTF-8" standalone="no"?>
<svg xmlns:ffdec="https://www.free-decompiler.com/flash" xmlns:xlink="http://www.w3.org/1999/xlink" ffdec:objectType="shape" height="64.8px" width="51.45px" xmlns="http://www.w3.org/2000/svg">
  <g transform="matrix(1.0, 0.0, 0.0, 1.0, 25.7, 32.4)">
    <path d="M-13.75 -3.2 L-13.75 -3.15 -13.8 -3.2 -13.75 -3.2 M7.75 21.5 L-2.55 21.2 -5.95 20.3 -4.8 17.2 -3.15 17.7 -4.4 16.4 -2.55 12.85 -1.15 13.1 -2.15 12.25 0.35 9.25 -2.85 7.45 -2.85 6.7 -3.45 7.2 -6.2 6.15 -6.15 4.5 -6.85 5.6 -9.25 4.25 -7.3 2.3 -2.2 3.25 2.85 3.45 Q2.4 5.15 2.85 6.7 3.7 9.5 6.35 10.75 8.15 11.55 9.6 10.0 L11.2 8.25 13.85 11.55 15.75 13.15 16.85 13.6 16.35 10.45 17.15 10.0 16.75 9.75 Q17.8 9.75 18.55 9.05 19.25 8.3 19.25 7.25 L19.85 7.1 20.5 4.55 Q25.4 12.2 20.55 19.45 L19.3 21.0 17.4 19.4 15.3 21.6 13.4 21.3 12.65 21.05 11.4 14.4 7.75 21.5 M3.6 3.85 L3.55 3.85 3.6 3.8 3.6 3.85 M-0.4 -5.85 L-0.45 -5.65 -0.85 -3.9 -0.1 -0.75 Q-6.05 0.9 -11.45 -3.15 L-9.35 -5.5 -4.75 -5.3 -3.65 -9.45 Q-5.15 -9.45 -6.2 -8.25 -7.7 -11.55 -6.15 -15.25 -9.3 -14.0 -11.4 -11.15 -11.6 -19.9 -5.45 -26.75 -12.3 -26.95 -18.65 -24.45 L-18.5 -25.0 Q-9.75 -32.15 1.45 -31.5 11.7 -31.1 16.8 -21.5 L14.0 -23.45 12.2 -22.4 Q2.75 -16.55 -0.4 -5.85 M12.95 23.35 L13.4 23.7 15.4 23.05 16.7 22.8 Q17.5 24.6 17.35 26.55 L17.35 26.6 17.2 26.65 14.1 27.2 Q10.8 27.15 8.65 24.8 L9.3 23.3 12.95 23.35 M17.7 26.35 L17.65 26.4 17.65 26.3 17.7 26.35 M7.65 -25.5 L6.8 -26.25 6.95 -27.25 5.95 -27.0 4.5 -27.65 4.55 -28.85 3.55 -28.3 1.55 -29.4 2.05 -30.55 0.75 -30.05 -3.1 -30.95 -0.15 -28.95 -0.65 -27.3 0.85 -28.4 2.6 -27.45 1.95 -25.95 2.55 -25.55 3.5 -26.6 5.0 -25.8 4.5 -24.25 6.0 -25.0 7.0 -24.3 7.15 -23.05 8.15 -23.95 9.8 -22.9 10.05 -23.6 8.8 -24.7 8.55 -26.15 7.65 -25.5 M-3.4 8.55 L-1.1 9.2 -2.6 11.8 -3.7 12.05 -3.25 12.75 -4.95 15.75 -6.05 16.1 -5.5 16.65 -6.9 19.9 Q-13.15 17.85 -16.2 12.55 -16.85 11.5 -16.9 10.15 L-9.85 4.75 -7.25 6.75 -7.0 7.9 -6.55 7.0 -4.15 8.8 -3.4 8.55 M3.4 30.65 L-0.3 30.55 Q-4.15 30.0 -6.35 26.75 L-5.9 24.45 0.4 24.9 -0.7 26.7 1.15 26.15 Q2.65 27.25 3.3 29.0 L3.65 30.1 3.4 30.65 M-0.45 26.55 L-0.4 26.45 -0.4 26.5 -0.45 26.55" fill="#015ab4" fill-rule="evenodd" stroke="none"/>
    <path d="M-18.65 -24.45 Q-16.65 -22.6 -14.1 -21.8 L-12.25 -21.35 Q-18.35 -13.1 -12.2 -6.6 L-11.05 -5.45 -13.75 -3.2 -13.8 -3.2 -13.75 -3.15 -13.1 -2.25 -6.95 0.35 Q-9.85 1.05 -12.3 -0.4 -17.75 4.2 -23.9 7.55 -20.5 14.55 -13.85 18.55 -2.9 25.25 7.75 21.5 L11.4 14.4 12.65 21.05 13.4 21.3 13.35 21.3 13.4 21.3 15.3 21.6 17.4 19.4 19.3 21.0 20.55 19.45 Q25.4 12.2 20.5 4.55 L19.85 7.1 19.25 7.25 16.4 7.55 16.75 9.75 17.15 10.0 16.35 10.45 15.75 9.6 15.35 9.8 Q13.8 7.2 10.95 6.7 7.45 9.8 4.8 6.35 3.85 5.15 3.6 3.85 L3.6 3.8 5.6 1.1 5.6 1.05 1.2 0.1 4.35 -2.05 -0.25 -5.85 -0.4 -5.85 Q2.75 -16.55 12.2 -22.4 L14.0 -23.45 16.8 -21.5 Q11.7 -31.1 1.45 -31.5 -9.75 -32.15 -18.5 -25.0 L-18.65 -24.45 M6.2 25.55 L5.15 23.6 3.35 23.55 Q7.45 28.7 2.7 31.3 -1.95 33.9 -6.25 30.4 -10.3 27.2 -9.6 22.4 -19.3 19.1 -24.05 10.0 L-25.7 6.55 Q-23.15 6.6 -21.15 4.8 -17.45 1.6 -13.05 -0.9 L-15.75 -2.65 -13.15 -5.6 Q-16.7 -7.35 -16.25 -10.9 -15.65 -16.05 -13.4 -20.85 L-20.3 -23.8 Q-11.6 -32.6 0.7 -32.4 11.85 -32.2 17.75 -21.8 22.1 -14.2 25.75 -6.2 L25.15 -5.05 22.1 -3.2 24.95 -0.4 19.6 0.25 Q26.8 11.05 20.45 21.0 L19.35 22.35 Q20.5 27.25 15.8 28.1 9.15 29.55 6.3 25.7 L7.5 26.45 Q12.85 29.55 17.2 26.65 L17.35 26.6 17.65 26.4 17.7 26.35 18.1 25.95 17.5 21.0 15.4 23.05 13.4 23.7 12.95 23.35 14.35 22.4 Q11.55 22.85 9.1 21.25 L8.05 23.15 6.55 23.2 6.05 23.7 6.2 25.55 M17.2 -19.7 Q15.7 -21.55 13.25 -22.75 L12.25 -22.3 Q8.7 -20.45 6.85 -16.95 L7.7 -16.05 9.15 -15.8 Q11.2 -15.5 12.9 -14.45 L11.65 -13.8 11.75 -13.05 11.65 -11.95 11.35 -11.35 10.8 -10.6 11.9 -11.3 Q10.3 -9.5 8.1 -8.9 4.4 -8.25 2.5 -11.7 L0.45 -7.2 1.1 -6.55 2.9 -4.85 4.95 -7.6 3.15 -4.65 3.1 -4.65 3.15 -4.6 5.75 -2.6 10.7 -7.15 11.35 -6.95 13.3 -8.2 13.05 -6.55 14.85 -6.5 Q18.2 -6.45 21.0 -4.3 L21.6 -4.5 21.35 -6.5 Q19.9 -11.7 14.5 -13.5 L14.55 -14.0 15.55 -15.35 19.1 -16.65 17.6 -19.15 16.85 -19.2 16.7 -19.15 16.6 -19.15 Q16.35 -19.3 16.8 -19.6 L17.1 -19.65 17.2 -19.65 17.2 -19.7 M3.65 -13.5 Q3.7 -11.25 5.75 -10.6 9.7 -9.3 11.3 -12.9 L11.0 -13.6 8.5 -13.55 8.45 -12.2 7.65 -11.8 6.45 -12.2 6.55 -13.25 7.85 -13.95 4.95 -15.25 3.65 -13.5 M15.55 -14.25 L16.0 -13.75 Q18.1 -14.0 19.4 -15.9 L15.8 -15.0 15.55 -14.25 M6.15 -15.4 Q8.85 -13.6 12.0 -14.7 L10.55 -14.6 Q7.95 -14.85 6.0 -16.55 L5.4 -15.85 6.15 -15.4 M16.65 -13.45 L18.55 -12.4 19.35 -14.7 16.65 -13.45 M20.25 -14.3 Q20.15 -12.9 19.2 -11.9 L20.75 -10.35 Q22.8 -8.1 22.85 -5.0 L24.5 -5.75 Q23.15 -10.65 20.3 -15.05 L20.25 -14.3 M17.4 -5.25 L13.9 -6.0 12.9 -5.7 12.1 -6.85 11.6 -6.15 11.0 -6.55 9.35 -4.7 Q6.85 -2.0 3.5 -0.35 7.75 1.1 13.75 -2.35 L15.15 -3.25 Q17.65 -0.45 21.4 -0.75 L23.5 -0.8 22.1 -2.05 Q19.9 -3.9 17.4 -5.25 M18.2 0.7 L17.9 0.65 18.65 1.25 18.2 0.7 M17.05 3.05 L16.45 6.6 17.9 6.55 Q19.45 6.05 19.6 4.4 L19.3 3.65 Q18.8 2.2 17.4 1.65 L17.15 2.55 17.05 3.05 M17.1 1.1 L17.25 -0.2 14.75 -2.05 11.05 0.1 11.0 0.75 10.9 0.7 10.9 0.75 11.25 1.85 Q12.2 5.4 14.45 8.0 L15.85 9.4 Q15.6 6.15 16.5 3.05 L17.1 1.1 M6.1 1.95 Q5.25 2.85 5.25 4.15 5.25 5.45 6.1 6.35 6.9 7.25 8.05 7.25 9.2 7.25 10.05 6.35 10.85 5.45 10.85 4.15 10.85 2.85 10.05 1.95 9.2 1.05 8.05 1.05 6.9 1.05 6.1 1.95 M10.65 1.8 L10.15 0.45 9.2 0.35 10.65 1.8 M11.55 4.75 L11.4 5.85 12.4 6.3 11.55 4.75 M0.4 24.9 L0.9 24.0 0.25 23.7 Q-4.0 24.9 -7.8 22.2 L-7.8 23.85 Q-6.0 34.8 3.4 30.65 L3.85 30.25 Q3.75 27.4 2.3 24.95 L1.65 24.65 -0.4 26.45 -0.45 26.55 -0.7 26.7 0.4 24.9" fill="#000000" fill-rule="evenodd" stroke="none"/>
    <path d="M-13.75 -3.2 L-11.05 -5.45 -12.2 -6.6 Q-18.35 -13.1 -12.25 -21.35 L-14.1 -21.8 Q-16.65 -22.6 -18.65 -24.45 -12.3 -26.95 -5.45 -26.75 -11.6 -19.9 -11.4 -11.15 -9.3 -14.0 -6.15 -15.25 -7.7 -11.55 -6.2 -8.25 -5.15 -9.45 -3.65 -9.45 L-4.75 -5.3 -9.35 -5.5 -11.45 -3.15 Q-6.05 0.9 -0.1 -0.75 L-0.85 -3.9 -0.45 -5.65 -0.4 -5.85 -0.25 -5.85 4.35 -2.05 1.2 0.1 5.6 1.05 5.6 1.1 3.6 3.8 3.55 3.85 3.6 3.85 Q3.85 5.15 4.8 6.35 7.45 9.8 10.95 6.7 13.8 7.2 15.35 9.8 L15.75 9.6 16.35 10.45 16.85 13.6 15.75 13.15 13.85 11.55 11.2 8.25 9.6 10.0 Q8.15 11.55 6.35 10.75 3.7 9.5 2.85 6.7 2.4 5.15 2.85 3.45 L-2.2 3.25 -7.3 2.3 -9.25 4.25 -6.85 5.6 -6.15 4.5 -6.2 6.15 -3.45 7.2 -2.85 6.7 -2.85 7.45 0.35 9.25 -2.15 12.25 -1.15 13.1 -2.55 12.85 -4.4 16.4 -3.15 17.7 -4.8 17.2 -5.95 20.3 -2.55 21.2 7.75 21.5 Q-2.9 25.25 -13.85 18.55 -20.5 14.55 -23.9 7.55 -17.75 4.2 -12.3 -0.4 -9.85 1.05 -6.95 0.35 L-13.1 -2.25 -13.75 -3.15 -13.75 -3.2 M6.3 25.7 L6.2 25.65 6.2 25.55 6.05 23.7 6.55 23.2 8.05 23.15 9.1 21.25 Q11.55 22.85 14.35 22.4 L12.95 23.35 9.3 23.3 8.65 24.8 Q10.8 27.15 14.1 27.2 L17.2 26.65 Q12.85 29.55 7.5 26.45 L6.3 25.7 M7.65 -25.5 L8.55 -26.15 8.8 -24.7 10.05 -23.6 9.8 -22.9 8.15 -23.95 7.15 -23.05 7.0 -24.3 6.0 -25.0 4.5 -24.25 5.0 -25.8 3.5 -26.6 2.55 -25.55 1.95 -25.95 2.6 -27.45 0.85 -28.4 -0.65 -27.3 -0.15 -28.95 -3.1 -30.95 0.75 -30.05 2.05 -30.55 1.55 -29.4 3.55 -28.3 4.55 -28.85 4.5 -27.65 5.95 -27.0 6.95 -27.25 6.8 -26.25 7.65 -25.5 M20.25 -14.3 L20.3 -15.05 Q23.15 -10.65 24.5 -5.75 L22.85 -5.0 Q22.8 -8.1 20.75 -10.35 L19.2 -11.9 Q20.15 -12.9 20.25 -14.3 M18.2 0.7 L18.65 1.25 17.9 0.65 18.2 0.7 M19.25 7.25 Q19.25 8.3 18.55 9.05 17.8 9.75 16.75 9.75 L16.4 7.55 19.25 7.25 M10.65 1.8 L9.2 0.35 10.15 0.45 10.65 1.8 M-3.4 8.55 L-4.15 8.8 -6.55 7.0 -7.0 7.9 -7.25 6.75 -9.85 4.75 -16.9 10.15 Q-16.85 11.5 -16.2 12.55 -13.15 17.85 -6.9 19.9 L-5.5 16.65 -6.05 16.1 -4.95 15.75 -3.25 12.75 -3.7 12.05 -2.6 11.8 -1.1 9.2 -3.4 8.55 M11.55 4.75 L12.4 6.3 11.4 5.85 11.55 4.75 M3.4 30.65 Q-6.0 34.8 -7.8 23.85 L-7.8 22.2 Q-4.0 24.9 0.25 23.7 L0.9 24.0 0.4 24.9 -5.9 24.45 -6.35 26.75 Q-4.15 30.0 -0.3 30.55 L3.4 30.65" fill="#012e58" fill-rule="evenodd" stroke="none"/>
    <path d="M7.7 -16.05 L6.85 -16.95 Q8.7 -20.45 12.25 -22.3 L13.25 -22.75 Q15.7 -21.55 17.2 -19.7 L17.1 -19.65 16.8 -19.6 15.55 -19.65 14.65 -18.8 14.8 -17.6 14.35 -16.8 13.4 -18.7 13.15 -18.75 10.0 -19.8 10.75 -18.85 7.7 -16.05 M1.1 -6.55 L0.45 -7.2 2.5 -11.7 Q4.4 -8.25 8.1 -8.9 10.3 -9.5 11.9 -11.3 L10.8 -10.6 11.35 -11.35 11.65 -11.95 11.75 -13.05 11.65 -13.8 12.9 -14.45 15.8 -10.1 15.75 -9.55 12.15 -10.4 11.2 -9.55 Q7.55 -6.3 3.2 -8.5 L2.2 -8.25 1.3 -6.95 1.1 -6.55 M16.65 -13.45 L19.35 -14.7 18.55 -12.4 16.65 -13.45" fill="#c6a968" fill-rule="evenodd" stroke="none"/>
    <path d="M3.65 -13.5 L4.95 -15.25 7.85 -13.95 6.55 -13.25 6.45 -12.2 7.65 -11.8 8.45 -12.2 8.5 -13.55 11.0 -13.6 11.3 -12.9 Q9.7 -9.3 5.75 -10.6 3.7 -11.25 3.65 -13.5 M15.55 -14.25 L15.8 -15.0 19.4 -15.9 Q18.1 -14.0 16.0 -13.75 L15.55 -14.25 M6.15 -15.4 L5.4 -15.85 6.0 -16.55 Q7.95 -14.85 10.55 -14.6 L12.0 -14.7 Q8.85 -13.6 6.15 -15.4 M21.4 -0.75 Q19.25 -1.6 17.35 -3.1 L16.55 -3.8 17.4 -5.25 Q19.9 -3.9 22.1 -2.05 L23.5 -0.8 21.4 -0.75 M12.9 -5.7 L13.65 -4.35 Q9.75 -1.1 4.75 -0.4 L3.5 -0.35 Q6.85 -2.0 9.35 -4.7 L11.0 -6.55 11.6 -6.15 12.1 -6.85 12.9 -5.7 M11.25 1.85 L12.4 1.0 12.7 2.5 13.3 2.3 13.0 0.9 14.05 0.05 14.3 1.15 14.35 1.2 14.75 -0.1 15.5 0.3 15.4 1.75 15.6 1.75 16.0 1.4 16.15 1.1 16.35 0.95 17.1 1.1 16.5 3.05 Q15.6 6.15 15.85 9.4 L14.45 8.0 Q12.2 5.4 11.25 1.85" fill="#ffffff" fill-rule="evenodd" stroke="none"/>
    <path d="M16.8 -19.6 Q16.35 -19.3 16.6 -19.15 L14.65 -18.8 15.55 -19.65 16.8 -19.6 M10.75 -18.85 L10.0 -19.8 13.15 -18.75 10.75 -18.85 M3.2 -8.5 Q3.2 -7.85 2.65 -7.4 2.1 -6.95 1.3 -6.95 L2.2 -8.25 3.2 -8.5" fill="#333333" fill-rule="evenodd" stroke="none"/>
    <path d="M16.6 -19.15 L16.7 -19.15 16.85 -19.2 17.6 -19.15 19.1 -16.65 15.55 -15.35 14.55 -14.0 14.5 -13.5 Q19.9 -11.7 21.35 -6.5 L21.6 -4.5 21.0 -4.3 Q18.2 -6.45 14.85 -6.5 L13.05 -6.55 13.3 -8.2 11.35 -6.95 10.7 -7.15 5.75 -2.6 3.15 -4.6 3.15 -4.65 4.95 -7.6 2.9 -4.85 1.1 -6.55 1.3 -6.95 Q2.1 -6.95 2.65 -7.4 3.2 -7.85 3.2 -8.5 7.55 -6.3 11.2 -9.55 L12.15 -10.4 15.75 -9.55 15.8 -10.1 12.9 -14.45 Q11.2 -15.5 9.15 -15.8 L7.7 -16.05 10.75 -18.85 13.15 -18.75 13.4 -18.7 14.35 -16.8 14.8 -17.6 14.65 -18.8 16.6 -19.15" fill="#ebe0c9" fill-rule="evenodd" stroke="none"/>
    <path d="M17.4 -5.25 L16.55 -3.8 17.35 -3.1 Q19.25 -1.6 21.4 -0.75 17.65 -0.45 15.15 -3.25 L13.75 -2.35 Q7.75 1.1 3.5 -0.35 L4.75 -0.4 Q9.75 -1.1 13.65 -4.35 L12.9 -5.7 13.9 -6.0 17.4 -5.25 M17.1 1.1 L16.35 0.95 16.15 1.1 16.0 1.4 15.6 1.75 15.4 1.75 15.5 0.3 14.75 -0.1 14.35 1.2 14.3 1.15 14.05 0.05 13.0 0.9 13.3 2.3 12.7 2.5 12.4 1.0 11.25 1.85 10.9 0.75 11.0 0.75 11.05 0.1 14.75 -2.05 17.25 -0.2 17.1 1.1" fill="#999999" fill-rule="evenodd" stroke="none"/>
    <path d="M17.05 3.05 L17.15 2.55 17.75 2.25 18.6 2.7 18.75 4.1 17.7 4.25 17.05 3.05 M6.65 2.9 Q6.65 2.35 7.1 1.95 7.55 1.55 8.2 1.55 8.85 1.55 9.3 1.95 9.75 2.35 9.75 2.9 L9.3 3.85 Q8.85 4.25 8.2 4.25 7.55 4.25 7.1 3.85 6.65 3.45 6.65 2.9" fill="#fefd98" fill-rule="evenodd" stroke="none"/>
    <path d="M17.15 2.55 L17.4 1.65 Q18.8 2.2 19.3 3.65 L19.6 4.4 Q19.45 6.05 17.9 6.55 L16.45 6.6 17.05 3.05 17.7 4.25 18.75 4.1 18.6 2.7 17.75 2.25 17.15 2.55 M6.65 2.9 Q6.65 3.45 7.1 3.85 7.55 4.25 8.2 4.25 8.85 4.25 9.3 3.85 L9.75 2.9 Q9.75 2.35 9.3 1.95 8.85 1.55 8.2 1.55 7.55 1.55 7.1 1.95 6.65 2.35 6.65 2.9 M6.1 1.95 Q6.9 1.05 8.05 1.05 9.2 1.05 10.05 1.95 10.85 2.85 10.85 4.15 10.85 5.45 10.05 6.35 9.2 7.25 8.05 7.25 6.9 7.25 6.1 6.35 5.25 5.45 5.25 4.15 5.25 2.85 6.1 1.95" fill="#c6c502" fill-rule="evenodd" stroke="none"/>
    <path d="M15.4 23.05 L17.5 21.0 18.1 25.95 17.7 26.35 17.65 26.3 17.65 26.4 17.35 26.6 17.35 26.55 Q17.5 24.6 16.7 22.8 L15.4 23.05 M-0.7 26.7 L-0.45 26.55 -0.4 26.5 -0.4 26.45 1.65 24.65 2.3 24.95 Q3.75 27.4 3.85 30.25 L3.4 30.65 3.65 30.1 3.3 29.0 Q2.65 27.25 1.15 26.15 L-0.7 26.7" fill="#5badfd" fill-rule="evenodd" stroke="none"/>
  </g>
</svg>
