<?xml version="1.0" encoding="UTF-8" standalone="no"?>
<svg xmlns:ffdec="https://www.free-decompiler.com/flash" xmlns:xlink="http://www.w3.org/1999/xlink" ffdec:objectType="shape" height="52.2px" width="42.85px" xmlns="http://www.w3.org/2000/svg">
  <g transform="matrix(1.0, 0.0, 0.0, 1.0, 21.6, 52.5)">
    <path d="M4.45 -40.55 L5.9 -36.25 Q5.85 -36.1 5.95 -35.95 L7.1 -33.9 Q7.7 -32.8 7.55 -31.4 7.35 -29.95 6.45 -28.95 L4.95 -27.25 Q5.05 -26.3 4.7 -25.4 L4.65 -24.95 4.7 -24.55 5.9 -24.1 Q6.75 -24.65 7.3 -25.55 7.7 -26.25 8.6 -26.65 L12.95 -26.95 14.35 -26.6 Q15.55 -26.1 16.3 -25.15 17.8 -23.05 17.6 -20.3 L17.6 -19.7 17.75 -18.85 18.2 -18.85 18.45 -18.75 18.8 -18.45 19.4 -17.85 19.6 -17.45 19.25 -15.75 Q19.2 -15.4 19.4 -15.15 20.0 -14.25 19.5 -13.3 20.45 -11.7 21.05 -9.95 L21.25 -8.2 Q19.7 -7.0 17.75 -6.7 L16.15 -6.45 11.1 -6.3 11.0 -6.3 10.25 -6.8 Q9.75 -4.95 8.9 -3.35 8.5 -2.65 7.75 -2.25 L4.8 -2.4 3.05 -3.75 3.0 -4.15 1.3 -4.65 1.15 -5.05 -2.0 -5.05 -5.45 -4.3 -8.5 -3.9 -10.2 -1.65 -10.85 -1.7 -11.2 -1.8 -11.85 -2.15 -12.05 -2.35 -12.25 -2.8 Q-13.9 -1.75 -15.8 -1.1 L-16.5 -0.85 Q-17.9 -1.35 -18.4 -2.7 L-18.55 -4.65 -18.3 -5.45 -17.65 -6.2 -17.4 -6.8 -18.0 -7.85 -18.6 -8.9 -18.7 -9.55 -18.3 -10.45 -18.4 -11.0 -19.45 -11.95 Q-19.6 -13.5 -18.75 -14.8 L-18.6 -15.0 -18.35 -15.5 -18.3 -15.5 -18.1 -15.8 -18.05 -15.8 -18.15 -16.05 -19.4 -20.3 -19.85 -23.4 -19.75 -25.95 -19.8 -26.35 -20.4 -27.9 Q-21.05 -29.65 -20.3 -31.25 L-20.9 -32.85 Q-22.1 -36.7 -21.2 -40.45 -20.7 -42.6 -19.4 -44.25 L-17.6 -46.05 -16.65 -46.8 -16.7 -46.9 -17.85 -47.65 -18.1 -47.85 Q-18.85 -48.75 -18.3 -49.85 -18.0 -50.35 -17.85 -51.05 L-19.5 -52.4 -19.3 -52.5 Q-17.95 -52.2 -17.2 -51.1 L-17.95 -48.5 -16.25 -47.35 -14.5 -47.9 Q-10.65 -48.95 -6.55 -49.0 -2.25 -48.55 1.2 -46.2 2.85 -44.65 3.7 -42.45 L4.45 -40.55 M2.65 -40.85 Q0.3 -40.7 -2.15 -41.75 L-3.85 -42.6 -4.1 -42.75 -3.65 -42.6 Q-0.8 -41.35 2.3 -41.55 L2.7 -40.85 2.65 -40.85 M4.35 -36.0 L3.6 -36.5 4.9 -36.6 4.75 -37.8 4.7 -38.05 4.7 -38.1 Q3.8 -41.75 1.45 -44.6 -0.05 -46.45 -1.75 -47.4 -2.35 -47.75 -2.95 -47.9 L-10.95 -48.2 -11.05 -48.2 -10.95 -48.25 -16.4 -46.3 -16.6 -46.2 -17.85 -45.4 -18.2 -45.15 Q-20.55 -43.15 -20.45 -40.0 L-18.8 -41.35 -18.7 -41.55 Q-18.6 -41.25 -18.65 -40.85 L-18.7 -40.25 -18.75 -39.5 -18.85 -37.2 -16.7 -37.6 -16.75 -36.95 -16.75 -32.6 -16.4 -31.55 Q-15.35 -29.85 -14.05 -28.65 L-13.45 -28.4 -10.55 -31.8 -10.8 -31.2 -11.35 -25.9 -14.75 -26.85 -16.6 -26.8 Q-18.7 -26.45 -19.25 -24.25 -19.65 -22.8 -19.3 -21.45 -18.6 -18.55 -17.5 -15.75 L-16.9 -14.5 -11.1 -17.65 -11.75 -20.65 -11.25 -20.15 -10.45 -17.95 0.55 -23.1 1.65 -23.75 1.1 -23.7 -0.35 -24.8 Q-3.7 -23.9 -7.15 -24.7 L-9.05 -25.35 -9.95 -25.8 -7.65 -25.2 -2.75 -24.85 -1.7 -24.95 -1.05 -25.15 -0.65 -25.25 -0.7 -25.3 -2.3 -26.7 -3.0 -26.65 -5.75 -26.25 Q-7.45 -26.35 -8.85 -27.6 L-9.25 -28.1 -9.3 -28.2 Q-9.6 -29.2 -9.25 -30.45 L-9.05 -31.2 -2.5 -31.5 Q-0.75 -31.45 0.5 -32.35 L4.1 -34.9 4.65 -34.7 Q6.2 -33.8 5.9 -32.0 5.8 -31.15 5.2 -30.45 L4.5 -29.45 4.8 -28.85 4.85 -28.75 5.05 -28.5 5.05 -28.45 5.1 -28.55 Q6.15 -29.5 6.6 -30.85 7.0 -31.9 6.75 -33.0 6.3 -35.0 4.45 -35.95 L4.35 -36.0 M-10.0 -25.75 L-10.25 -25.9 -9.95 -25.8 -10.0 -25.75 M2.95 -38.9 L2.55 -38.6 1.65 -38.55 -0.7 -38.25 -0.95 -38.2 -1.4 -38.35 Q-1.5 -38.3 -1.5 -38.4 L0.75 -38.9 2.9 -39.1 2.95 -38.9 M4.3 -34.45 Q1.7 -32.85 -0.95 -31.5 L-2.5 -31.1 Q-5.9 -31.75 -9.1 -30.65 L-9.05 -29.85 -8.55 -28.45 -7.95 -27.8 -7.5 -27.5 -6.4 -27.0 Q-6.1 -28.55 -4.65 -29.45 L-3.5 -30.05 -3.3 -30.15 -1.15 -30.4 -1.15 -30.5 Q1.45 -31.95 3.6 -30.25 L3.8 -30.15 Q5.0 -30.35 5.4 -31.6 6.0 -33.5 4.45 -34.45 L4.3 -34.45 M0.55 -29.75 Q2.2 -28.75 2.7 -27.05 L2.35 -27.35 Q0.8 -29.6 -2.0 -30.15 L-2.75 -29.95 Q-5.0 -29.55 -5.55 -27.45 L-5.4 -26.8 -2.45 -27.05 0.65 -24.5 1.6 -24.4 Q3.2 -24.45 4.3 -25.7 4.95 -27.35 4.05 -29.05 3.1 -30.8 1.3 -30.95 L-0.8 -30.45 Q-0.55 -30.4 0.55 -29.75 M16.85 -21.8 Q17.0 -23.5 15.75 -24.7 14.55 -25.9 12.9 -26.45 L9.8 -26.35 7.55 -24.8 6.2 -23.05 5.05 -21.1 4.25 -19.25 3.95 -18.5 3.85 -18.4 Q3.05 -17.3 2.6 -15.85 2.25 -14.85 1.15 -14.35 L2.9 -14.0 2.95 -14.0 3.5 -14.0 3.65 -14.0 4.65 -13.7 4.75 -13.65 7.2 -14.5 8.6 -19.2 8.6 -19.25 9.1 -20.9 9.05 -20.15 8.5 -15.45 16.2 -18.2 16.4 -18.25 16.95 -19.05 16.95 -19.15 16.85 -19.1 16.85 -21.2 16.85 -21.8 M13.65 -14.1 L14.5 -14.4 17.1 -15.3 17.6 -15.15 17.25 -15.0 9.7 -12.05 9.8 -12.0 9.9 -11.9 10.3 -11.55 10.6 -11.3 10.95 -11.5 Q12.7 -12.5 14.85 -12.95 L15.15 -13.05 19.05 -13.95 18.75 -14.6 18.1 -15.8 18.55 -16.6 Q19.0 -17.15 18.75 -17.7 L17.65 -18.05 15.25 -17.3 15.75 -17.4 12.95 -16.5 Q8.0 -15.0 3.45 -12.15 L1.9 -11.1 0.05 -9.65 -1.4 -7.85 -1.8 -6.9 -1.95 -6.4 -2.0 -6.35 -1.75 -5.5 0.45 -6.0 0.9 -5.75 1.3 -6.25 1.4 -6.35 1.45 -6.45 2.6 -7.8 3.0 -8.2 3.1 -9.7 2.7 -9.4 2.7 -9.35 Q1.35 -8.25 0.7 -6.85 0.45 -6.3 0.2 -7.0 L0.15 -7.1 0.95 -8.15 1.0 -8.15 2.05 -9.3 2.85 -10.45 Q3.45 -12.05 5.2 -12.7 L6.35 -13.0 Q9.55 -13.5 12.7 -14.65 L12.45 -14.55 8.45 -12.9 9.4 -12.35 10.6 -12.85 13.6 -14.05 13.65 -14.1 M-5.55 -16.15 L-0.3 -19.05 2.8 -20.5 3.0 -20.65 3.05 -20.7 4.15 -21.2 4.25 -21.25 4.3 -21.25 4.6 -21.9 4.95 -22.8 5.15 -23.35 5.15 -23.55 4.95 -23.85 0.1 -22.2 -3.3 -20.75 Q-6.5 -19.5 -9.7 -17.75 -13.05 -15.75 -16.2 -14.2 L-16.8 -13.85 -18.1 -13.4 -18.0 -14.05 -17.95 -14.25 -17.95 -14.5 -18.1 -14.8 -18.35 -14.8 Q-18.85 -13.95 -18.9 -12.95 L-18.9 -12.5 -17.45 -11.15 -17.3 -10.45 -17.7 -9.75 -17.85 -9.5 -17.25 -8.3 -11.95 -8.1 -12.0 -11.2 -11.45 -11.85 -9.95 -13.35 -8.7 -14.2 -6.65 -15.5 -6.6 -15.5 -5.55 -16.15 M-16.65 -11.15 L-16.7 -11.15 -16.55 -11.25 -15.7 -11.45 -11.45 -13.85 -7.8 -16.15 -6.55 -16.9 -6.6 -16.85 -5.95 -17.25 -6.45 -16.95 -5.9 -17.25 -5.8 -17.3 -5.85 -17.25 -14.15 -11.6 -14.55 -11.45 -14.75 -11.4 -15.8 -11.05 -16.1 -10.95 -16.4 -11.0 -16.55 -11.0 -16.65 -11.15 M3.4 -20.25 L2.95 -20.15 Q-1.45 -17.7 -5.9 -15.3 L-3.6 -15.4 -3.15 -15.2 -2.7 -15.4 Q-0.7 -15.8 0.9 -16.75 L-0.25 -15.8 Q-1.1 -14.9 -2.25 -14.95 L0.3 -14.45 Q0.75 -14.7 1.1 -15.05 3.2 -16.95 3.2 -19.4 L-0.3 -17.1 3.4 -20.25 M-1.9 -7.8 Q-1.0 -9.5 0.35 -10.45 L2.45 -12.15 3.65 -13.1 3.1 -13.25 -2.05 -14.2 -6.2 -14.3 Q-7.65 -13.95 -8.9 -13.2 L-10.35 -11.75 -11.35 -10.0 Q-12.15 -8.1 -10.75 -6.4 -9.45 -4.8 -7.4 -4.95 L-4.95 -5.35 -4.35 -5.4 Q-3.45 -5.45 -3.05 -5.95 -2.5 -6.5 -2.15 -7.3 L-1.9 -7.8 M10.15 -8.85 L10.0 -11.1 Q9.8 -12.0 9.05 -12.25 L8.5 -12.35 Q7.4 -12.6 6.6 -12.0 L5.8 -12.05 Q3.65 -11.3 3.6 -9.25 3.55 -8.35 4.6 -7.75 L5.4 -7.4 5.75 -7.35 6.0 -7.45 Q7.25 -7.8 7.6 -9.25 L7.75 -9.5 7.65 -8.15 6.3 -6.9 5.3 -6.5 3.8 -7.45 3.6 -6.05 Q3.6 -5.35 3.95 -4.7 4.8 -3.0 6.65 -2.6 7.85 -2.6 8.6 -3.5 9.15 -4.25 9.1 -5.1 L9.1 -5.35 9.6 -6.75 10.15 -8.85 M3.05 -7.95 L2.6 -7.4 Q2.1 -6.9 1.95 -6.4 1.7 -5.7 2.25 -4.9 2.35 -4.8 2.55 -4.75 L3.0 -6.45 3.05 -7.95 M16.5 -8.7 L16.15 -9.45 15.6 -10.0 15.1 -10.05 15.55 -10.45 16.5 -9.75 17.2 -8.9 17.3 -8.6 17.4 -8.2 16.95 -7.0 Q18.85 -7.05 19.9 -8.15 L20.5 -9.05 20.6 -9.45 20.75 -10.45 20.7 -10.75 20.6 -11.1 19.9 -11.65 17.9 -12.75 16.15 -12.25 16.2 -12.25 13.3 -11.45 13.15 -11.35 10.75 -10.6 10.4 -7.45 Q13.25 -6.55 16.1 -7.45 L16.45 -7.85 16.45 -8.0 16.5 -8.7 M11.1 -3.35 L11.5 -2.85 10.8 -2.95 10.85 -3.4 11.1 -3.35 M-7.75 -43.1 L-8.8 -41.05 -9.5 -39.95 -10.6 -38.85 -11.9 -37.95 -13.15 -37.25 -14.85 -36.45 -14.7 -37.45 -14.25 -37.6 -13.2 -38.05 Q-12.4 -38.4 -11.7 -38.85 L-10.0 -40.1 -9.35 -40.8 -8.3 -42.3 -7.75 -43.1 M-6.45 -37.35 L-6.3 -37.15 -7.4 -36.6 Q-10.5 -35.3 -13.65 -34.7 L-12.4 -35.55 -9.95 -36.4 -6.45 -37.35 M-16.4 -46.3 L-16.35 -46.35 -16.4 -46.3 M-16.1 -28.0 L-15.2 -27.85 -18.25 -31.1 -19.15 -31.0 -19.45 -30.85 Q-20.65 -29.5 -19.8 -27.75 L-19.4 -27.15 -19.0 -26.75 -18.2 -27.4 -17.15 -27.85 -16.1 -28.0 M-0.55 -36.05 L-3.25 -35.5 -6.05 -34.7 -6.4 -34.95 -6.45 -35.3 -6.35 -35.35 -6.25 -35.45 Q-6.25 -34.85 -5.65 -35.15 -4.45 -35.95 -3.1 -36.15 L0.1 -36.75 Q0.1 -36.05 -0.55 -36.05 M-2.05 -33.7 L-2.35 -34.95 -2.2 -34.95 -1.05 -32.75 Q-1.75 -32.85 -2.05 -33.7 M-7.35 -19.9 L-7.5 -20.25 -7.35 -20.55 -7.05 -20.7 -6.7 -20.55 -6.6 -20.25 -6.7 -19.9 -7.05 -19.8 -7.35 -19.9 M-16.4 -6.35 Q-17.9 -5.45 -18.1 -3.6 -18.25 -2.6 -17.5 -2.35 L-17.35 -2.45 -16.25 -3.9 -16.1 -3.95 -16.15 -3.9 Q-17.15 -2.9 -16.55 -1.7 -15.15 -1.5 -14.15 -2.2 -12.55 -3.25 -11.8 -4.85 L-11.75 -4.85 Q-12.25 -3.15 -10.65 -2.3 L-9.5 -3.6 -9.45 -3.95 -9.95 -4.7 -11.8 -7.2 Q-14.3 -7.5 -16.4 -6.35 M-13.15 -0.35 L-13.1 -0.3 -13.15 -0.3 -13.15 -0.35" fill="#000000" fill-rule="evenodd" stroke="none"/>
    <path d="M2.65 -40.85 L2.7 -40.85 2.3 -41.55 Q-0.8 -41.35 -3.65 -42.6 L-4.1 -42.75 -3.85 -42.6 -2.15 -41.75 Q0.3 -40.7 2.65 -40.85 M4.75 -37.8 L1.6 -37.65 1.35 -37.45 0.9 -36.75 Q1.0 -35.95 1.9 -35.85 L4.35 -36.0 4.45 -35.95 Q6.3 -35.0 6.75 -33.0 7.0 -31.9 6.6 -30.85 6.15 -29.5 5.1 -28.55 L5.05 -28.5 4.85 -28.75 4.8 -28.85 4.5 -29.45 5.2 -30.45 Q5.8 -31.15 5.9 -32.0 6.2 -33.8 4.65 -34.7 L4.1 -34.9 0.5 -32.35 Q-0.75 -31.45 -2.5 -31.5 L-9.05 -31.2 -9.25 -30.45 Q-9.6 -29.2 -9.3 -28.2 L-9.25 -28.1 -8.85 -27.6 Q-7.45 -26.35 -5.75 -26.25 L-3.0 -26.65 -2.3 -26.7 -0.7 -25.3 -0.65 -25.25 -1.05 -25.15 -1.7 -24.95 -2.75 -24.85 -7.65 -25.2 -9.95 -25.8 -10.25 -25.9 -10.0 -25.75 -9.55 -25.2 Q-8.85 -24.55 -7.95 -24.25 -5.85 -23.45 -3.8 -23.0 L0.55 -23.1 -10.45 -17.95 -11.25 -20.15 -11.75 -20.65 -11.1 -17.65 -16.9 -14.5 -17.5 -15.75 Q-18.6 -18.55 -19.3 -21.45 -19.65 -22.8 -19.25 -24.25 -18.7 -26.45 -16.6 -26.8 L-14.75 -26.85 -11.35 -25.9 -10.8 -31.2 -10.55 -31.8 -13.45 -28.4 -14.05 -28.65 Q-15.35 -29.85 -16.4 -31.55 L-16.75 -32.6 -16.75 -36.95 -16.7 -37.6 -18.85 -37.2 -18.75 -39.5 -18.7 -40.25 -18.65 -40.85 Q-18.6 -41.25 -18.7 -41.55 L-18.8 -41.35 -20.45 -40.0 Q-20.55 -43.15 -18.2 -45.15 L-17.85 -45.4 -16.6 -46.2 -16.4 -46.3 -10.95 -48.25 -11.05 -48.2 -10.95 -48.2 -2.95 -47.9 Q-2.35 -47.75 -1.75 -47.4 -0.05 -46.45 1.45 -44.6 3.8 -41.75 4.7 -38.1 L4.7 -38.05 4.75 -37.8 M2.95 -38.9 L2.9 -39.1 0.75 -38.9 -1.5 -38.4 Q-1.5 -38.3 -1.4 -38.35 L-0.95 -38.2 -0.7 -38.25 1.65 -38.55 2.55 -38.6 2.95 -38.9 M4.25 -19.25 L5.05 -21.1 6.2 -23.05 7.55 -24.8 9.8 -26.35 12.9 -26.45 Q14.55 -25.9 15.75 -24.7 17.0 -23.5 16.85 -21.8 L16.55 -21.7 16.4 -21.5 16.55 -21.3 16.85 -21.2 16.85 -19.1 16.95 -19.05 16.4 -18.25 Q16.6 -18.8 15.9 -18.6 L16.0 -18.45 16.2 -18.2 8.5 -15.45 9.05 -20.15 9.25 -20.95 9.1 -20.9 9.0 -20.85 Q7.5 -18.7 6.75 -16.3 6.35 -15.1 5.35 -14.2 L4.65 -13.7 3.65 -14.0 Q3.4 -15.85 3.9 -17.55 L4.2 -19.0 4.25 -19.25 M15.0 -20.0 Q15.25 -19.8 15.55 -20.0 15.75 -20.5 15.1 -20.45 14.65 -20.3 15.0 -20.0 M11.35 -20.7 L11.5 -20.9 11.4 -21.1 Q10.7 -20.9 11.35 -20.7 M13.3 -18.25 Q13.05 -19.05 12.95 -18.0 L13.05 -17.5 Q13.6 -17.75 13.35 -18.25 L13.3 -18.25 M10.6 -18.3 L9.85 -17.25 Q10.0 -17.1 10.2 -17.1 10.35 -17.1 10.55 -17.25 L10.7 -18.05 10.6 -18.3 M2.9 -14.0 L2.9 -14.05 2.95 -14.0 2.9 -14.0 M1.0 -13.45 Q0.5 -13.8 0.45 -13.15 L0.75 -12.95 0.9 -12.85 Q1.4 -13.2 1.0 -13.45 M3.25 -14.45 L3.25 -14.4 3.25 -14.45 M-11.35 -10.0 L-10.35 -11.75 -8.9 -13.2 Q-7.65 -13.95 -6.2 -14.3 L-2.05 -14.2 3.1 -13.25 3.65 -13.1 2.45 -12.15 0.35 -10.45 Q-1.0 -9.5 -1.9 -7.8 L-3.55 -7.85 -3.9 -7.95 -3.95 -7.85 -5.25 -7.75 -8.85 -7.65 Q-11.1 -8.1 -11.35 -10.0 M10.15 -8.85 L9.9 -9.6 9.15 -9.95 7.85 -10.2 7.25 -10.55 Q5.55 -9.4 5.75 -7.35 L5.4 -7.4 4.6 -7.75 Q3.55 -8.35 3.6 -9.25 3.65 -11.3 5.8 -12.05 L6.6 -12.0 Q7.4 -12.6 8.5 -12.35 L9.05 -12.25 Q9.8 -12.0 10.0 -11.1 L10.15 -8.85 M17.2 -8.9 L16.5 -9.75 15.55 -10.45 15.1 -10.05 15.6 -10.0 16.15 -9.45 16.5 -8.7 16.3 -8.5 14.05 -8.15 11.65 -8.35 Q11.65 -9.3 12.35 -9.95 13.95 -11.4 16.15 -12.25 L17.9 -12.75 19.9 -11.65 20.6 -11.1 20.7 -10.75 20.75 -10.45 20.6 -9.45 20.5 -9.05 17.2 -8.9 M-7.75 -43.1 L-8.3 -42.3 -9.35 -40.8 -10.0 -40.1 -11.7 -38.85 Q-12.4 -38.4 -13.2 -38.05 L-14.25 -37.6 -14.7 -37.45 -14.85 -36.45 -13.15 -37.25 -11.9 -37.95 -10.6 -38.85 -9.5 -39.95 -8.8 -41.05 -7.75 -43.1 M-6.45 -37.35 L-9.95 -36.4 -12.4 -35.55 -13.65 -34.7 Q-10.5 -35.3 -7.4 -36.6 L-6.3 -37.15 -6.45 -37.35 M-14.7 -31.7 Q-11.8 -31.75 -9.15 -33.3 -8.7 -33.45 -8.45 -34.0 L-8.4 -34.2 Q-9.0 -34.85 -10.15 -34.6 -12.95 -34.75 -14.7 -32.6 L-15.05 -31.9 -14.7 -31.7 M-18.2 -27.4 L-19.0 -26.75 -19.4 -27.15 -19.8 -27.75 Q-20.65 -29.5 -19.45 -30.85 L-19.15 -31.0 -18.25 -31.1 -15.2 -27.85 -16.1 -28.0 Q-16.3 -29.2 -17.75 -29.6 L-18.3 -29.65 -18.75 -29.1 Q-19.05 -28.1 -18.2 -27.4 M-2.05 -33.7 Q-1.75 -32.85 -1.05 -32.75 L-2.2 -34.95 -2.35 -34.95 -2.05 -33.7 M-0.55 -36.05 Q0.1 -36.05 0.1 -36.75 L-3.1 -36.15 Q-4.45 -35.95 -5.65 -35.15 -6.25 -34.85 -6.25 -35.45 L-6.35 -35.35 -6.45 -35.3 -6.4 -34.95 -6.05 -34.7 -3.25 -35.5 -0.55 -36.05 M-7.35 -19.9 L-7.05 -19.8 -6.7 -19.9 -6.6 -20.25 -6.7 -20.55 -7.05 -20.7 -7.35 -20.55 -7.5 -20.25 -7.35 -19.9 M-4.1 -12.45 Q-3.75 -12.2 -3.3 -12.45 -2.95 -13.1 -3.85 -12.9 L-4.1 -12.45 M-9.95 -4.7 L-9.45 -3.95 -9.5 -3.6 -10.65 -2.3 Q-12.25 -3.15 -11.75 -4.85 L-11.8 -4.85 Q-12.55 -3.25 -14.15 -2.2 -15.15 -1.5 -16.55 -1.7 -17.15 -2.9 -16.15 -3.9 L-16.1 -3.95 -16.25 -3.9 -17.35 -2.45 -17.5 -2.35 Q-18.25 -2.6 -18.1 -3.6 -17.9 -5.45 -16.4 -6.35 L-13.2 -5.65 -10.25 -4.8 -9.95 -4.7 M-0.9 -11.25 Q-0.8 -11.15 -0.65 -11.15 L-0.4 -11.25 -0.3 -11.55 -0.4 -11.8 -0.65 -11.95 -0.9 -11.8 -1.0 -11.55 -0.9 -11.25 M-3.25 -10.3 Q-3.45 -9.7 -2.85 -9.5 -2.4 -9.3 -2.65 -9.85 L-3.25 -10.3 M-6.45 -11.1 Q-6.85 -10.6 -6.15 -10.1 L-5.45 -10.05 Q-5.2 -10.85 -6.4 -11.1 L-6.45 -11.1 M-6.95 -7.7 Q-6.4 -7.9 -6.75 -8.25 L-7.1 -8.6 Q-7.7 -9.2 -7.55 -8.35 -7.45 -7.85 -6.95 -7.7" fill="#e7c7bc" fill-rule="evenodd" stroke="none"/>
    <path d="M0.55 -23.1 L-3.8 -23.0 Q-5.85 -23.45 -7.95 -24.25 -8.85 -24.55 -9.55 -25.2 L-10.0 -25.75 -9.95 -25.8 -9.05 -25.35 -7.15 -24.7 Q-3.7 -23.9 -0.35 -24.8 L1.1 -23.7 1.65 -23.75 0.55 -23.1 M4.25 -19.25 L4.2 -19.0 3.9 -17.55 Q3.4 -15.85 3.65 -14.0 L3.5 -14.0 2.95 -14.0 2.9 -14.05 2.9 -14.0 1.15 -14.35 Q2.25 -14.85 2.6 -15.85 3.05 -17.3 3.85 -18.4 L3.95 -18.5 4.25 -19.25 M4.65 -13.7 L5.35 -14.2 Q6.35 -15.1 6.75 -16.3 7.5 -18.7 9.0 -20.85 L9.1 -20.9 9.25 -20.95 9.05 -20.15 9.1 -20.9 8.6 -19.25 8.6 -19.2 7.2 -14.5 4.75 -13.65 4.65 -13.7 M3.25 -14.45 L3.25 -14.4 3.25 -14.45 M-11.35 -10.0 Q-11.1 -8.1 -8.85 -7.65 L-5.25 -7.75 -3.95 -7.85 Q-3.85 -7.2 -3.5 -7.45 -3.3 -7.6 -3.55 -7.85 L-1.9 -7.8 -2.15 -7.3 Q-2.5 -6.5 -3.05 -5.95 -3.45 -5.45 -4.35 -5.4 L-4.55 -5.85 Q-4.95 -6.25 -5.05 -5.7 L-4.95 -5.35 -7.4 -4.95 Q-9.45 -4.8 -10.75 -6.4 -12.15 -8.1 -11.35 -10.0 M5.75 -7.35 Q5.55 -9.4 7.25 -10.55 L7.85 -10.2 9.15 -9.95 9.9 -9.6 10.15 -8.85 9.6 -6.75 9.1 -5.35 9.1 -5.1 Q9.15 -4.25 8.6 -3.5 7.85 -2.6 6.65 -2.6 4.8 -3.0 3.95 -4.7 3.6 -5.35 3.6 -6.05 L3.8 -7.45 5.3 -6.5 6.3 -6.9 7.65 -8.15 7.75 -9.5 7.6 -9.25 Q7.25 -7.8 6.0 -7.45 L5.75 -7.35 M16.5 -8.7 L16.45 -8.0 16.45 -7.85 16.1 -7.45 Q13.25 -6.55 10.4 -7.45 L10.75 -10.6 13.15 -11.35 13.3 -11.45 16.2 -12.25 16.15 -12.25 Q13.95 -11.4 12.35 -9.95 11.65 -9.3 11.65 -8.35 L14.05 -8.15 16.3 -8.5 16.5 -8.7 M20.5 -9.05 L19.9 -8.15 Q18.85 -7.05 16.95 -7.0 L17.4 -8.2 17.3 -8.6 17.2 -8.9 20.5 -9.05 M-18.2 -27.4 Q-19.05 -28.1 -18.75 -29.1 L-18.3 -29.65 -17.75 -29.6 Q-16.3 -29.2 -16.1 -28.0 L-17.15 -27.85 -18.2 -27.4 M-16.4 -6.35 Q-14.3 -7.5 -11.8 -7.2 L-9.95 -4.7 -10.25 -4.8 -13.2 -5.65 -16.4 -6.35 M-7.3 -5.8 L-7.35 -5.95 -7.55 -6.05 -7.7 -5.95 -7.8 -5.8 -7.7 -5.6 -7.55 -5.55 -7.35 -5.6 -7.3 -5.8" fill="#cf957e" fill-rule="evenodd" stroke="none"/>
    <path d="M16.2 -18.2 L16.0 -18.45 15.9 -18.6 Q16.6 -18.8 16.4 -18.25 L16.2 -18.2 M16.85 -21.2 L16.55 -21.3 16.4 -21.5 16.55 -21.7 16.85 -21.8 16.85 -21.2 M10.6 -18.3 L10.7 -18.05 10.55 -17.25 Q10.35 -17.1 10.2 -17.1 10.0 -17.1 9.85 -17.25 L10.6 -18.3 M13.3 -18.25 L13.35 -18.25 Q13.6 -17.75 13.05 -17.5 L12.95 -18.0 Q13.05 -19.05 13.3 -18.25 M11.35 -20.7 Q10.7 -20.9 11.4 -21.1 L11.5 -20.9 11.35 -20.7 M15.0 -20.0 Q14.65 -20.3 15.1 -20.45 15.75 -20.5 15.55 -20.0 15.25 -19.8 15.0 -20.0 M1.0 -13.45 Q1.4 -13.2 0.9 -12.85 L0.75 -12.95 0.45 -13.15 Q0.5 -13.8 1.0 -13.45 M-3.95 -7.85 L-3.9 -7.95 -3.55 -7.85 Q-3.3 -7.6 -3.5 -7.45 -3.85 -7.2 -3.95 -7.85 M-4.35 -5.4 L-4.95 -5.35 -5.05 -5.7 Q-4.95 -6.25 -4.55 -5.85 L-4.35 -5.4 M-4.1 -12.45 L-3.85 -12.9 Q-2.95 -13.1 -3.3 -12.45 -3.75 -12.2 -4.1 -12.45 M-3.25 -10.3 L-2.65 -9.85 Q-2.4 -9.3 -2.85 -9.5 -3.45 -9.7 -3.25 -10.3 M-0.9 -11.25 L-1.0 -11.55 -0.9 -11.8 -0.65 -11.95 -0.4 -11.8 -0.3 -11.55 -0.4 -11.25 -0.65 -11.15 Q-0.8 -11.15 -0.9 -11.25 M-6.95 -7.7 Q-7.45 -7.85 -7.55 -8.35 -7.7 -9.2 -7.1 -8.6 L-6.75 -8.25 Q-6.4 -7.9 -6.95 -7.7 M-6.45 -11.1 L-6.4 -11.1 Q-5.2 -10.85 -5.45 -10.05 L-6.15 -10.1 Q-6.85 -10.6 -6.45 -11.1 M-7.3 -5.8 L-7.35 -5.6 -7.55 -5.55 -7.7 -5.6 -7.8 -5.8 -7.7 -5.95 -7.55 -6.05 -7.35 -5.95 -7.3 -5.8" fill="#666666" fill-rule="evenodd" stroke="none"/>
    <path d="M4.3 -34.45 L4.45 -34.45 Q6.0 -33.5 5.4 -31.6 5.0 -30.35 3.8 -30.15 L3.6 -30.25 Q1.45 -31.95 -1.15 -30.5 L-1.15 -30.4 -3.3 -30.15 -3.5 -30.05 -4.65 -29.45 Q-6.1 -28.55 -6.4 -27.0 L-7.5 -27.5 -7.95 -27.8 -8.55 -28.45 -9.05 -29.85 -9.1 -30.65 Q-5.9 -31.75 -2.5 -31.1 L-0.95 -31.5 Q1.7 -32.85 4.3 -34.45" fill="#650101" fill-rule="evenodd" stroke="none"/>
    <path d="M0.55 -29.75 Q-0.55 -30.4 -0.8 -30.45 L1.3 -30.95 Q3.1 -30.8 4.05 -29.05 4.95 -27.35 4.3 -25.7 3.2 -24.45 1.6 -24.4 L0.65 -24.5 -2.45 -27.05 -5.4 -26.8 -5.55 -27.45 Q-5.0 -29.55 -2.75 -29.95 L-2.0 -30.15 Q0.8 -29.6 2.35 -27.35 L2.7 -27.05 Q2.2 -28.75 0.55 -29.75" fill="#c96254" fill-rule="evenodd" stroke="none"/>
    <path d="M4.35 -36.0 L1.9 -35.85 Q1.0 -35.95 0.9 -36.75 L1.35 -37.45 1.6 -37.65 4.75 -37.8 4.9 -36.6 3.6 -36.5 4.35 -36.0 M-14.7 -31.7 L-15.05 -31.9 -14.7 -32.6 Q-12.95 -34.75 -10.15 -34.6 -9.0 -34.85 -8.4 -34.2 L-8.45 -34.0 Q-8.7 -33.45 -9.15 -33.3 -11.8 -31.75 -14.7 -31.7" fill="#f47d8f" fill-rule="evenodd" stroke="none"/>
    <path d="M-17.7 -9.75 L-17.3 -10.45 -17.45 -11.15 -18.9 -12.5 -18.9 -12.95 Q-18.85 -13.95 -18.35 -14.8 L-18.1 -14.8 -17.95 -14.5 -17.95 -14.25 -18.0 -14.05 -18.1 -13.4 -16.8 -13.85 -16.2 -14.2 Q-13.05 -15.75 -9.7 -17.75 -6.5 -19.5 -3.3 -20.75 L0.1 -22.2 4.95 -23.85 5.15 -23.55 5.15 -23.35 4.95 -22.8 4.6 -21.9 4.3 -21.25 4.25 -21.25 4.15 -21.2 3.05 -20.7 3.0 -20.65 2.8 -20.5 -0.3 -19.05 -5.55 -16.15 -7.85 -15.35 -7.85 -15.4 Q-7.2 -15.7 -6.8 -16.35 L-6.8 -16.4 -5.8 -17.2 -5.85 -17.2 -5.85 -17.25 -5.8 -17.3 -5.9 -17.25 -5.95 -17.25 -6.4 -17.05 -6.55 -16.9 -7.8 -16.15 -11.45 -13.85 -15.7 -11.45 -16.55 -11.25 -16.7 -11.15 -16.65 -11.15 -16.8 -11.0 -16.85 -10.9 Q-17.0 -10.35 -16.35 -10.35 L-13.45 -10.55 -14.25 -10.2 -15.3 -9.8 Q-16.25 -9.3 -17.25 -9.4 L-17.4 -9.45 -17.7 -9.75 M-12.85 -10.8 L-12.75 -10.85 -12.7 -10.85 -12.85 -10.8" fill="#7b9a9b" fill-rule="evenodd" stroke="none"/>
    <path d="M-17.7 -9.75 L-17.4 -9.45 -17.25 -9.4 Q-16.25 -9.3 -15.3 -9.8 L-14.25 -10.2 -13.45 -10.55 -16.35 -10.35 Q-17.0 -10.35 -16.85 -10.9 L-16.8 -11.0 -16.65 -11.15 -16.55 -11.0 -16.4 -11.0 -16.1 -10.95 -15.8 -11.05 -14.75 -11.4 -14.55 -11.45 -14.15 -11.6 -5.85 -17.25 -5.85 -17.2 -5.8 -17.2 -6.8 -16.4 -6.8 -16.35 Q-7.2 -15.7 -7.85 -15.4 L-7.85 -15.35 -5.55 -16.15 -6.6 -15.5 -6.65 -15.5 -8.7 -14.2 -9.95 -13.35 -11.45 -11.85 -12.0 -11.2 -11.95 -8.1 -17.25 -8.3 -17.85 -9.5 -17.7 -9.75 M-6.55 -16.9 L-6.4 -17.05 -5.95 -17.25 -5.9 -17.25 -6.45 -16.95 -5.95 -17.25 -6.6 -16.85 -6.55 -16.9 M3.4 -20.25 L-0.3 -17.1 3.2 -19.4 Q3.2 -16.95 1.1 -15.05 0.75 -14.7 0.3 -14.45 L-2.25 -14.95 Q-1.1 -14.9 -0.25 -15.8 L0.9 -16.75 Q-0.7 -15.8 -2.7 -15.4 L-3.15 -15.2 -3.6 -15.4 -5.9 -15.3 Q-1.45 -17.7 2.95 -20.15 L3.4 -20.25 M-12.85 -10.8 L-12.7 -10.85 -12.75 -10.85 -12.85 -10.8" fill="#587576" fill-rule="evenodd" stroke="none"/>
    <path d="M13.65 -14.1 L14.15 -14.4 14.6 -14.7 Q15.0 -14.95 14.55 -15.15 L14.05 -15.05 13.55 -14.9 12.6 -14.6 12.45 -14.55 12.7 -14.65 Q9.55 -13.5 6.35 -13.0 L5.2 -12.7 Q3.45 -12.05 2.85 -10.45 L2.05 -9.3 1.0 -8.15 0.95 -8.15 -0.1 -7.4 Q-0.7 -7.0 -1.1 -7.6 L-1.4 -7.85 0.05 -9.65 1.9 -11.1 3.45 -12.15 Q8.0 -15.0 12.95 -16.5 L15.75 -17.4 15.25 -17.3 17.65 -18.05 18.75 -17.7 Q19.0 -17.15 18.55 -16.6 L18.1 -15.8 18.75 -14.6 18.65 -14.6 18.6 -14.55 17.55 -14.3 15.5 -13.7 14.65 -13.5 13.75 -13.15 15.8 -14.25 17.25 -14.9 17.25 -15.0 17.6 -15.15 17.1 -15.3 14.5 -14.4 13.65 -14.1 M2.6 -7.8 L1.8 -7.25 1.8 -7.45 2.6 -9.15 2.7 -9.25 2.7 -9.35 2.7 -9.4 3.1 -9.7 3.0 -8.2 2.6 -7.8" fill="#ffffff" fill-rule="evenodd" stroke="none"/>
    <path d="M12.45 -14.55 L12.6 -14.6 13.55 -14.9 14.05 -15.05 14.55 -15.15 Q15.0 -14.95 14.6 -14.7 L14.15 -14.4 13.65 -14.1 13.6 -14.05 10.6 -12.85 9.4 -12.35 8.45 -12.9 12.45 -14.55 M17.25 -15.0 L17.25 -14.9 15.8 -14.25 13.75 -13.15 14.65 -13.5 15.5 -13.7 17.55 -14.3 18.6 -14.55 18.65 -14.6 18.75 -14.6 19.05 -13.95 15.15 -13.05 14.85 -12.95 Q12.7 -12.5 10.95 -11.5 L10.6 -11.3 10.3 -11.55 9.9 -11.9 9.8 -12.0 9.7 -12.05 17.25 -15.0 M-1.4 -7.85 L-1.1 -7.6 Q-0.7 -7.0 -0.1 -7.4 L0.95 -8.15 0.15 -7.1 0.2 -7.0 Q0.45 -6.3 0.7 -6.85 1.35 -8.25 2.7 -9.35 L2.7 -9.25 2.6 -9.15 1.8 -7.45 1.8 -7.25 2.6 -7.8 1.45 -6.45 1.4 -6.35 1.3 -6.25 0.9 -5.75 0.45 -6.0 -1.75 -5.5 -2.0 -6.35 -1.95 -6.4 -1.8 -6.9 -1.4 -7.85 M3.05 -7.95 L3.0 -6.45 2.55 -4.75 Q2.35 -4.8 2.25 -4.9 1.7 -5.7 1.95 -6.4 2.1 -6.9 2.6 -7.4 L3.05 -7.95" fill="#cccccc" fill-rule="evenodd" stroke="none"/>
  </g>
</svg>
