<?xml version="1.0" encoding="UTF-8" standalone="no"?>
<svg xmlns:ffdec="https://www.free-decompiler.com/flash" xmlns:xlink="http://www.w3.org/1999/xlink" ffdec:objectType="shape" height="58.4px" width="40.3px" xmlns="http://www.w3.org/2000/svg">
  <g transform="matrix(1.0, 0.0, 0.0, 1.0, 20.15, 61.9)">
    <path d="M11.2 -58.45 L13.45 -53.5 11.9 -55.1 10.05 -56.45 9.0 -56.95 10.6 -52.2 8.4 -54.4 8.25 -52.55 8.55 -53.9 11.1 -51.4 11.05 -51.95 10.9 -52.6 10.25 -54.45 9.6 -56.35 11.3 -55.25 12.65 -53.85 13.35 -52.85 13.9 -51.85 14.35 -51.15 Q14.5 -51.9 14.15 -52.85 L13.55 -54.4 12.95 -55.85 12.25 -57.35 12.65 -56.85 13.6 -55.25 14.05 -54.3 14.5 -52.8 14.8 -51.15 15.0 -49.7 15.1 -48.3 15.25 -46.65 15.5 -41.45 15.5 -41.15 14.95 -38.65 14.55 -38.15 14.45 -38.1 14.15 -37.95 14.35 -38.75 14.55 -39.5 14.75 -41.15 Q14.85 -43.25 14.4 -45.4 L14.15 -46.45 13.95 -47.25 14.05 -46.3 14.2 -45.35 14.2 -45.25 14.35 -42.95 14.1 -39.8 13.9 -39.0 13.4 -38.05 Q12.75 -37.1 11.85 -36.6 10.25 -35.8 8.6 -36.35 L8.85 -36.9 9.05 -37.2 9.1 -37.2 9.15 -37.35 9.15 -37.4 Q10.05 -39.6 10.35 -41.95 L10.4 -42.1 10.4 -42.15 10.45 -42.5 10.55 -42.8 12.05 -43.85 11.25 -44.05 10.65 -44.15 10.0 -46.0 9.65 -47.25 9.55 -47.6 9.4 -47.95 9.35 -48.2 8.65 -49.9 11.1 -50.75 Q10.55 -51.1 9.65 -50.75 L8.45 -50.35 7.3 -52.7 6.05 -54.3 4.9 -55.3 4.3 -55.65 3.6 -55.9 2.4 -56.05 1.2 -55.55 -0.05 -54.8 -1.0 -55.45 -2.1 -56.0 -4.0 -55.8 -5.95 -54.2 -6.55 -53.5 -6.8 -53.2 -8.45 -50.4 -10.95 -50.3 -8.7 -49.95 -9.25 -48.2 -9.45 -47.6 -9.9 -45.75 -10.25 -44.4 -10.65 -44.2 -12.1 -43.75 -10.5 -42.85 -10.45 -42.1 -10.25 -40.95 -9.85 -39.4 -9.4 -37.95 -9.0 -37.2 -8.85 -36.9 -8.6 -36.45 Q-9.05 -36.1 -9.75 -36.1 L-10.9 -36.25 -11.25 -36.35 -11.5 -36.45 Q-12.2 -36.8 -12.8 -37.4 L-13.65 -38.55 -14.2 -40.1 -14.2 -40.25 -14.25 -40.95 -14.25 -41.6 -14.3 -43.0 -14.2 -44.8 -14.1 -46.15 -13.95 -47.5 -14.3 -45.7 -14.6 -43.95 -14.75 -42.5 -14.8 -41.45 -14.5 -39.5 -14.2 -38.1 -14.3 -37.95 -14.8 -38.6 Q-15.4 -39.9 -15.6 -41.2 L-15.65 -42.2 -15.6 -43.0 -15.4 -44.85 -15.2 -46.75 -15.1 -47.75 -15.1 -48.75 -15.0 -49.75 -14.85 -50.85 -14.6 -52.4 -14.15 -53.8 -13.55 -55.2 -12.8 -56.6 -13.3 -55.45 -14.0 -53.75 -14.5 -52.3 Q-14.9 -51.25 -14.4 -50.3 L-13.9 -50.85 -13.1 -52.0 -12.3 -53.25 -11.25 -54.35 -9.55 -55.75 -10.6 -51.55 -10.3 -51.15 -8.1 -53.3 -8.0 -53.5 -10.05 -51.95 -9.7 -53.15 -9.05 -55.2 -8.6 -56.65 -9.55 -56.35 -11.25 -55.2 -12.5 -53.95 -13.85 -52.2 -13.4 -53.75 -12.75 -55.2 -12.05 -56.6 -11.05 -58.05 -11.1 -58.2 -12.05 -57.55 -9.5 -59.75 -8.7 -60.25 -7.2 -60.85 -3.75 -61.45 -1.05 -60.95 -0.75 -60.85 0.0 -60.7 0.05 -60.7 0.15 -60.75 1.25 -61.05 1.8 -61.25 Q3.75 -61.5 5.5 -61.2 L8.4 -60.3 9.65 -59.6 9.85 -59.45 10.75 -58.8 11.2 -58.45" fill="#734f24" fill-rule="evenodd" stroke="none"/>
    <path d="M12.25 -57.35 L12.95 -55.85 13.55 -54.4 14.15 -52.85 Q14.5 -51.9 14.35 -51.15 L13.9 -51.85 13.35 -52.85 12.65 -53.85 11.3 -55.25 9.6 -56.35 10.25 -54.45 10.9 -52.6 11.05 -51.95 11.1 -51.4 8.55 -53.9 8.25 -52.55 8.4 -54.4 10.6 -52.2 9.0 -56.95 10.05 -56.45 11.9 -55.1 13.45 -53.5 11.2 -58.45 12.25 -57.35 M-12.05 -57.55 L-11.1 -58.2 -11.05 -58.05 -12.05 -56.6 -12.75 -55.2 -13.4 -53.75 -13.85 -52.2 -12.5 -53.95 -11.25 -55.2 -9.55 -56.35 -8.6 -56.65 -9.05 -55.2 -9.7 -53.15 -10.05 -51.95 -8.0 -53.5 -8.1 -53.3 -10.3 -51.15 -10.6 -51.55 -9.55 -55.75 -11.25 -54.35 -12.3 -53.25 -13.1 -52.0 -13.9 -50.85 -14.4 -50.3 Q-14.9 -51.25 -14.5 -52.3 L-14.0 -53.75 -13.3 -55.45 -12.8 -56.6 -12.05 -57.55" fill="#e0c1a3" fill-rule="evenodd" stroke="none"/>
    <path d="M11.2 -58.45 L10.75 -58.8 9.85 -59.45 9.65 -59.6 8.4 -60.3 5.5 -61.2 Q3.75 -61.5 1.8 -61.25 L1.25 -61.05 0.15 -60.75 0.05 -60.7 0.0 -60.7 -0.75 -60.85 -1.05 -60.95 -3.75 -61.45 -7.2 -60.85 -8.7 -60.25 -9.5 -59.75 -12.05 -57.55 -12.8 -56.6 -13.55 -55.2 -14.15 -53.8 -14.6 -52.4 -14.85 -50.85 -15.0 -49.75 -15.1 -48.75 -15.1 -47.75 -15.2 -46.75 -15.4 -44.85 -15.6 -43.0 -15.65 -42.2 -15.6 -41.2 Q-15.4 -39.9 -14.8 -38.6 L-14.3 -37.95 -14.2 -38.1 -14.5 -39.5 -14.8 -41.45 -14.75 -42.5 -14.6 -43.95 -14.3 -45.7 -13.95 -47.5 -14.1 -46.15 -14.2 -44.8 -14.3 -43.0 -14.25 -41.6 -14.25 -40.95 -14.2 -40.25 -14.2 -40.1 -13.65 -38.55 -12.8 -37.4 Q-12.2 -36.8 -11.5 -36.45 L-11.25 -36.35 -10.9 -36.25 -9.75 -36.1 Q-9.05 -36.1 -8.6 -36.45 L-8.85 -36.9 -9.0 -37.2 -9.4 -37.95 -9.85 -39.4 -10.25 -40.95 -10.45 -42.1 -10.5 -42.85 -12.1 -43.75 -10.65 -44.2 -10.25 -44.4 -9.9 -45.75 -9.45 -47.6 -9.25 -48.2 -8.7 -49.95 -10.95 -50.3 -8.45 -50.4 -6.8 -53.2 -6.55 -53.5 -5.95 -54.2 -4.0 -55.8 -2.1 -56.0 -1.0 -55.45 -0.05 -54.8 1.2 -55.55 2.4 -56.05 3.6 -55.9 4.3 -55.65 4.9 -55.3 6.05 -54.3 7.3 -52.7 8.45 -50.35 9.65 -50.75 Q10.55 -51.1 11.1 -50.75 L8.65 -49.9 9.35 -48.2 9.4 -47.95 9.55 -47.6 9.65 -47.25 10.0 -46.0 10.65 -44.15 11.25 -44.05 12.05 -43.85 10.55 -42.8 10.45 -42.5 10.4 -42.15 10.4 -42.1 10.35 -41.95 Q10.05 -39.6 9.15 -37.4 L9.15 -37.35 9.1 -37.2 9.05 -37.2 8.85 -36.9 8.6 -36.35 Q10.25 -35.8 11.85 -36.6 12.75 -37.1 13.4 -38.05 L13.9 -39.0 14.1 -39.8 14.35 -42.95 14.2 -45.25 14.2 -45.35 14.05 -46.3 13.95 -47.25 14.15 -46.45 14.4 -45.4 Q14.85 -43.25 14.75 -41.15 L14.55 -39.5 14.35 -38.75 14.15 -37.95 14.45 -38.1 14.55 -38.15 14.95 -38.65 15.5 -41.15 15.5 -41.45 15.25 -46.65 15.1 -48.3 15.0 -49.7 14.8 -51.15 14.5 -52.8 14.05 -54.3 13.6 -55.25 12.65 -56.85 12.25 -57.35 11.2 -58.45 M6.2 -53.1 L5.85 -53.55 0.95 -53.85 0.85 -54.4 1.35 -55.15 0.2 -54.05 0.1 -53.95 0.05 -54.0 0.0 -54.0 -0.1 -54.0 -1.4 -55.15 -0.9 -54.45 -0.95 -53.85 -2.05 -53.85 -3.9 -55.05 -2.55 -53.85 -5.9 -53.55 -6.25 -53.05 -8.05 -50.3 -1.95 -48.0 -2.1 -47.65 -2.75 -47.65 -3.6 -48.0 Q-5.85 -49.2 -8.25 -49.85 L-9.25 -46.95 -8.4 -47.45 -6.55 -48.0 -6.35 -48.05 Q-4.55 -48.8 -3.15 -47.45 L-2.95 -47.25 -2.85 -47.1 -3.3 -46.65 -3.45 -46.65 -4.45 -46.85 -4.3 -41.4 -4.45 -41.15 -4.5 -40.95 -5.2 -40.7 Q-5.95 -40.55 -6.7 -40.95 L-6.9 -42.6 -7.45 -46.2 -7.55 -46.3 Q-9.15 -45.15 -9.35 -43.05 -8.95 -42.85 -9.05 -42.35 L-9.65 -42.65 -10.05 -42.8 -9.7 -40.1 -9.2 -38.6 -8.95 -37.9 -8.95 -37.85 -8.5 -37.3 -8.35 -37.2 -8.2 -37.0 -7.95 -36.8 Q-5.7 -35.15 -3.0 -34.4 -0.15 -33.65 2.65 -34.5 5.4 -35.35 7.8 -36.8 L8.25 -37.05 8.4 -37.2 8.5 -37.25 8.65 -37.45 8.75 -37.6 8.9 -37.85 8.95 -37.85 9.05 -38.0 9.2 -38.4 9.8 -40.4 9.85 -40.75 10.05 -42.05 9.9 -42.65 9.6 -42.7 9.0 -42.3 Q9.35 -42.95 9.15 -43.65 L8.75 -44.95 Q8.45 -45.75 7.6 -46.2 L7.5 -45.15 Q7.45 -43.6 6.95 -42.1 L6.85 -41.8 6.75 -41.25 6.75 -41.15 6.7 -40.95 4.45 -41.05 4.55 -41.4 4.4 -46.7 3.5 -46.6 3.35 -46.7 2.85 -47.1 2.75 -47.3 Q3.2 -47.7 3.65 -47.9 L6.35 -48.35 7.1 -48.2 7.85 -47.85 9.15 -47.1 8.9 -48.3 8.2 -49.85 2.35 -47.7 1.9 -48.05 8.0 -50.2 6.2 -53.1 M7.35 -61.1 Q9.85 -60.35 11.7 -58.6 L12.3 -57.95 13.45 -56.45 14.25 -55.05 14.8 -53.9 15.3 -52.1 15.55 -50.2 15.7 -48.4 16.0 -41.8 Q16.05 -40.1 15.35 -38.55 14.85 -37.55 13.85 -37.25 L13.5 -37.05 12.65 -36.35 12.2 -35.95 12.15 -35.9 11.6 -35.65 11.55 -35.65 11.1 -35.55 10.45 -35.5 11.1 -34.6 11.85 -32.95 12.1 -31.35 12.7 -29.95 12.7 -29.9 12.75 -29.9 Q13.05 -28.75 13.65 -27.7 L15.25 -25.2 Q16.3 -23.65 18.0 -22.65 L19.5 -21.6 Q20.1 -21.1 20.15 -20.25 L19.95 -20.0 18.45 -19.85 16.8 -19.95 16.55 -18.95 16.35 -18.85 16.0 -18.75 15.7 -18.65 15.55 -18.65 15.05 -18.75 13.95 -20.4 13.2 -21.3 11.0 -23.7 9.2 -26.35 9.05 -26.65 8.95 -26.75 8.5 -26.4 8.5 -25.8 Q10.05 -24.75 10.45 -22.8 L10.8 -21.45 9.7 -21.4 10.75 -18.35 9.3 -17.75 8.85 -17.8 8.15 -15.65 6.25 -8.85 6.2 -8.15 Q6.2 -5.6 4.05 -4.2 L2.5 -3.5 -0.5 -3.8 -1.1 -3.55 Q-3.95 -3.25 -5.35 -5.7 -6.05 -7.0 -6.3 -8.55 -6.8 -11.6 -7.7 -14.55 L-8.7 -18.2 -8.85 -18.35 -9.95 -19.1 -10.2 -19.55 Q-9.55 -22.7 -7.8 -25.4 L-6.4 -27.15 -6.3 -27.6 -6.35 -27.65 Q-7.1 -28.25 -8.0 -28.65 L-8.15 -28.6 Q-9.1 -26.1 -10.85 -24.0 L-13.45 -21.0 -13.95 -20.35 -14.8 -19.1 -15.05 -18.75 Q-15.6 -18.55 -16.1 -18.75 L-16.3 -18.85 -16.55 -18.95 -16.8 -19.95 -19.1 -19.85 -19.95 -20.0 -20.15 -20.25 Q-19.95 -21.7 -18.6 -22.3 -17.05 -23.05 -15.9 -24.3 L-15.75 -24.55 Q-14.15 -26.55 -13.15 -28.8 L-12.75 -29.9 -12.7 -29.9 -12.65 -29.95 -12.1 -31.35 Q-12.0 -33.1 -11.1 -34.6 L-10.3 -35.6 -11.1 -35.55 -11.75 -35.7 -12.05 -35.8 -13.5 -37.05 -13.85 -37.25 Q-15.05 -37.65 -15.5 -38.85 -16.15 -40.7 -16.2 -42.65 L-16.15 -43.85 -16.0 -44.95 -15.9 -46.1 -15.8 -47.2 -15.6 -48.35 -15.5 -49.5 -15.35 -50.6 -15.2 -51.7 -15.0 -52.9 -14.7 -54.05 -14.2 -55.15 -13.4 -56.45 -12.5 -57.7 -11.4 -58.75 -10.25 -59.7 -9.2 -60.35 -7.35 -61.15 Q-4.0 -62.35 -0.7 -61.3 L-0.15 -61.0 2.0 -61.65 4.85 -61.75 7.35 -61.1 M5.15 -46.85 L4.9 -45.1 6.7 -45.05 6.7 -46.35 5.35 -47.0 5.15 -46.85 M6.55 -47.9 L7.1 -47.55 8.15 -46.7 9.8 -44.8 9.25 -46.85 6.55 -47.9 M6.75 -43.55 Q6.75 -44.35 6.15 -44.6 6.4 -43.7 6.15 -42.85 L5.55 -42.5 5.5 -42.75 Q5.35 -43.65 5.6 -44.6 4.7 -44.3 4.7 -43.2 L4.95 -41.35 5.3 -41.2 5.6 -41.1 5.95 -41.1 Q6.75 -42.25 6.75 -43.55 M2.4 -37.6 L2.75 -37.45 2.85 -37.45 2.9 -37.45 2.95 -37.4 3.0 -37.35 2.7 -37.1 1.05 -37.2 0.2 -36.75 -0.25 -36.75 -1.7 -37.35 -1.85 -37.35 -2.3 -37.35 -2.85 -37.25 -3.0 -37.15 -3.2 -37.35 -3.0 -37.5 -2.35 -37.65 -2.25 -37.65 -2.05 -37.7 -1.2 -37.55 -0.7 -37.3 -0.65 -37.3 -0.4 -37.25 0.1 -37.2 1.0 -37.5 1.4 -37.6 2.4 -37.6 M9.75 -35.55 L9.7 -35.6 9.65 -35.65 8.3 -35.95 8.2 -36.1 6.8 -35.4 7.75 -34.15 7.95 -33.9 Q9.25 -32.2 9.05 -30.05 L8.5 -29.05 10.15 -25.75 11.2 -24.45 Q11.5 -23.95 11.95 -23.5 13.9 -21.55 15.25 -19.15 L16.05 -19.25 16.0 -20.6 17.55 -20.05 Q18.8 -19.65 19.7 -20.55 19.65 -21.2 19.1 -21.55 L18.55 -21.9 Q16.05 -23.4 14.35 -25.7 L13.45 -27.2 Q12.85 -28.4 12.4 -29.65 L11.6 -32.3 Q11.15 -34.25 9.75 -35.55 M6.45 -35.45 L6.45 -35.5 6.4 -35.45 Q6.05 -34.25 5.25 -33.2 L3.95 -32.0 Q2.3 -30.9 0.35 -30.3 L-1.45 -30.8 -2.45 -31.2 Q-5.25 -32.35 -6.35 -35.15 L-7.9 -33.15 Q-9.25 -31.3 -8.1 -29.3 L-8.1 -29.25 Q-8.0 -29.15 -8.05 -29.3 L-7.55 -28.8 Q-6.15 -27.95 -4.5 -27.85 L-3.8 -27.4 -5.75 -27.85 -5.8 -27.9 -5.75 -27.8 -5.8 -26.65 -5.85 -26.6 Q-3.7 -25.7 -1.35 -25.75 L-1.7 -25.5 -6.45 -26.1 -6.65 -26.15 Q-7.95 -24.85 -8.55 -23.1 L-9.2 -21.2 -9.35 -20.6 -9.75 -19.2 -8.5 -18.6 Q-6.4 -17.75 -4.05 -17.75 -1.7 -17.75 0.55 -18.75 L2.2 -19.75 Q4.15 -21.05 5.65 -22.85 L6.05 -23.55 6.5 -24.3 6.45 -24.4 6.5 -24.55 6.7 -25.55 6.35 -26.05 1.8 -25.5 1.25 -25.8 6.1 -26.5 6.35 -28.05 6.3 -28.05 3.8 -27.45 4.0 -27.65 6.0 -28.1 Q7.25 -28.4 8.25 -29.25 L8.25 -29.35 Q8.75 -30.4 8.6 -31.55 L8.35 -32.3 6.45 -35.45 M-2.9 -27.6 L-0.7 -27.35 -0.4 -27.15 -0.1 -27.3 0.0 -27.3 0.65 -27.3 2.6 -27.45 3.05 -27.25 Q0.3 -26.85 -2.5 -27.2 L-3.25 -27.35 -2.9 -27.6 M-5.45 -34.05 Q-4.1 -32.05 -1.8 -31.25 L-0.05 -30.75 0.65 -30.8 Q2.25 -31.45 3.7 -32.25 L4.15 -32.55 Q5.45 -33.8 6.2 -35.4 5.25 -34.75 4.15 -34.4 L3.95 -34.35 Q1.35 -33.5 -1.3 -33.85 -3.95 -34.15 -6.2 -35.4 L-5.45 -34.05 M-0.7 -25.5 L-0.6 -25.65 0.7 -25.75 0.55 -25.5 -0.7 -25.5 M7.6 -25.1 L7.15 -25.1 7.15 -23.85 Q8.15 -22.0 10.4 -21.7 10.05 -23.9 8.35 -25.45 L8.05 -25.3 7.6 -25.1 M8.5 -27.0 L8.7 -27.3 8.15 -28.95 6.85 -28.3 Q6.35 -27.55 6.85 -26.9 L8.0 -26.9 8.2 -26.8 8.5 -27.0 M6.9 -25.95 L6.95 -25.8 Q7.3 -25.2 7.75 -25.6 L7.85 -25.55 8.0 -25.9 8.0 -26.25 7.65 -26.6 7.55 -26.65 Q6.7 -26.6 6.9 -25.95 M7.95 -22.35 L7.9 -22.35 7.9 -22.3 8.15 -21.4 8.8 -18.6 9.8 -18.55 10.25 -18.6 9.5 -20.7 9.15 -21.65 7.95 -22.35 M1.85 -6.85 Q3.4 -7.25 4.9 -8.4 L5.75 -9.1 7.6 -15.0 7.95 -16.4 8.0 -18.85 7.5 -22.6 7.05 -23.15 6.7 -23.8 5.9 -22.7 Q4.5 -20.8 2.75 -19.55 L1.05 -18.2 0.65 -13.6 Q0.6 -11.85 0.8 -10.05 1.0 -8.35 1.8 -6.9 L1.75 -6.9 1.85 -6.85 M4.2 -21.05 L4.2 -21.1 4.2 -21.05 4.15 -21.05 4.2 -21.05 M0.4 -13.85 L0.65 -18.15 -0.55 -17.6 -0.35 -14.7 -0.1 -9.7 0.15 -10.85 0.4 -13.85 M5.8 -8.1 Q5.05 -8.25 4.0 -7.5 3.3 -6.95 2.4 -6.65 L1.65 -6.35 0.65 -8.75 Q0.2 -8.35 0.25 -7.15 L0.3 -5.25 0.45 -4.4 Q2.55 -3.75 4.55 -4.85 5.3 -5.3 5.4 -6.25 L5.8 -8.1 M-4.95 -46.9 L-5.4 -47.0 -6.7 -46.35 -6.65 -45.0 -4.9 -45.1 -4.95 -46.9 M-9.6 -45.05 L-8.95 -45.9 -8.25 -46.65 -6.6 -47.9 -9.3 -46.8 -9.6 -45.05 M-6.2 -44.65 L-6.45 -44.2 -6.65 -43.15 Q-6.7 -42.1 -6.15 -41.55 L-5.7 -41.2 -5.3 -41.45 -5.15 -41.5 -5.15 -41.55 -4.9 -41.75 Q-4.6 -43.05 -5.15 -44.35 L-5.25 -44.45 Q-5.65 -44.1 -5.4 -42.9 L-5.4 -42.7 Q-5.9 -42.35 -6.05 -42.95 -6.3 -43.75 -6.15 -44.65 L-6.2 -44.65 M-8.95 -37.85 L-8.9 -37.8 -8.95 -37.85 M-9.65 -35.6 Q-11.25 -34.15 -11.7 -31.95 L-11.95 -30.85 Q-12.65 -28.55 -13.9 -26.45 L-15.8 -24.05 -17.65 -22.4 -19.2 -21.35 -19.6 -20.95 -19.7 -20.5 Q-18.5 -19.6 -17.0 -20.15 L-16.0 -20.6 -16.05 -19.25 -15.25 -19.15 -14.2 -20.8 -11.95 -23.5 -11.15 -24.45 -10.15 -25.75 -8.45 -29.05 -9.0 -30.05 Q-9.25 -32.3 -7.8 -34.05 L-7.7 -34.15 -6.55 -35.4 -8.2 -36.1 -8.25 -35.95 -9.6 -35.65 -9.65 -35.6 M-8.2 -18.1 L-7.55 -15.0 -6.0 -10.2 -6.05 -10.15 -5.75 -8.85 -5.05 -8.25 Q-3.7 -7.25 -2.2 -6.65 L-2.05 -6.8 Q-0.05 -9.5 -0.5 -13.1 L-0.7 -15.5 -0.75 -17.4 -0.85 -17.65 Q-3.85 -17.2 -6.8 -17.65 L-8.2 -18.1 M-1.0 -7.9 L-2.1 -6.25 -4.15 -7.1 -5.7 -8.15 Q-5.75 -6.45 -4.55 -5.1 -3.9 -4.35 -2.6 -4.0 -1.55 -4.05 -0.65 -4.5 L-0.3 -5.55 Q0.25 -7.15 -0.45 -8.7 L-1.0 -7.9" fill="#000000" fill-rule="evenodd" stroke="none"/>
    <path d="M6.2 -53.1 L5.05 -53.3 4.2 -53.4 3.0 -53.55 1.05 -53.6 -0.75 -53.6 -1.9 -53.55 -3.1 -53.45 -4.25 -53.3 -5.45 -53.2 -6.05 -53.1 -6.25 -53.05 -5.9 -53.55 -2.55 -53.85 -3.9 -55.05 -2.05 -53.85 -0.95 -53.85 -0.9 -54.45 -1.4 -55.15 -0.1 -54.0 0.0 -54.0 0.05 -54.0 0.1 -53.95 0.2 -54.05 1.35 -55.15 0.85 -54.4 0.95 -53.85 5.85 -53.55 6.2 -53.1 M6.55 -47.9 L9.25 -46.85 9.8 -44.8 8.15 -46.7 7.1 -47.55 6.55 -47.9 M9.75 -35.55 L9.7 -35.55 Q8.95 -34.6 7.75 -34.15 L6.8 -35.4 8.2 -36.1 8.3 -35.95 9.65 -35.65 9.7 -35.6 9.75 -35.55 M9.05 -30.05 L10.15 -25.75 8.5 -29.05 9.05 -30.05 M3.95 -34.35 Q1.4 -32.7 -1.55 -33.05 -3.6 -33.25 -5.45 -34.05 L-6.2 -35.4 Q-3.95 -34.15 -1.3 -33.85 1.35 -33.5 3.95 -34.35 M-9.6 -45.05 L-9.3 -46.8 -6.6 -47.9 -8.25 -46.65 -8.95 -45.9 -9.6 -45.05 M-10.15 -25.75 L-9.0 -30.05 -8.45 -29.05 -10.15 -25.75 M-7.7 -34.15 L-7.9 -34.15 Q-8.75 -34.55 -9.45 -35.1 -9.9 -35.4 -9.65 -35.6 L-9.6 -35.65 -8.25 -35.95 -8.2 -36.1 -6.55 -35.4 -7.7 -34.15" fill="#edb192" fill-rule="evenodd" stroke="none"/>
    <path d="M-6.25 -53.05 L-6.05 -53.1 -5.45 -53.2 -4.25 -53.3 -3.1 -53.45 -1.9 -53.55 -0.75 -53.6 1.05 -53.6 3.0 -53.55 4.2 -53.4 5.05 -53.3 6.2 -53.1 8.0 -50.2 1.9 -48.05 2.35 -47.7 8.2 -49.85 8.9 -48.3 9.15 -47.1 7.85 -47.85 7.1 -48.2 6.35 -48.35 3.65 -47.9 Q3.2 -47.7 2.75 -47.3 L2.85 -47.1 3.35 -46.7 3.5 -46.6 3.4 -45.3 3.35 -43.85 3.45 -42.65 3.75 -41.45 Q3.9 -41.0 4.45 -41.05 L6.7 -40.95 7.7 -41.45 9.0 -42.3 9.6 -42.7 9.9 -42.65 10.05 -42.05 9.85 -40.75 Q9.85 -41.25 9.35 -41.55 L9.3 -41.6 8.75 -41.8 7.5 -41.15 Q6.4 -40.9 6.45 -40.35 L6.9 -39.9 Q7.4 -39.6 8.1 -39.6 L9.35 -39.9 9.8 -40.4 9.2 -38.4 9.05 -38.0 8.95 -37.85 8.9 -37.85 8.75 -37.6 8.65 -37.45 8.5 -37.25 8.4 -37.2 8.25 -37.05 7.8 -36.8 Q5.4 -35.35 2.65 -34.5 -0.15 -33.65 -3.0 -34.4 -5.7 -35.15 -7.95 -36.8 L-8.2 -37.0 -8.35 -37.2 -8.5 -37.3 -8.95 -37.85 -8.95 -37.9 -9.2 -38.6 -9.7 -40.1 -10.05 -42.8 -9.65 -42.65 -9.05 -42.35 -7.55 -41.5 -6.7 -40.95 Q-5.95 -40.55 -5.2 -40.7 L-4.5 -40.95 Q-3.55 -41.25 -3.45 -42.25 L-3.35 -44.15 -3.4 -46.05 -3.45 -46.65 -3.3 -46.65 -2.85 -47.1 -2.95 -47.25 -3.15 -47.45 Q-4.55 -48.8 -6.35 -48.05 L-6.55 -48.0 -8.4 -47.45 -9.25 -46.95 -8.25 -49.85 Q-5.85 -49.2 -3.6 -48.0 L-2.75 -47.65 -2.1 -47.65 -1.95 -48.0 -8.05 -50.3 -6.25 -53.05 M2.4 -37.6 L1.4 -37.6 1.0 -37.5 0.1 -37.2 -0.4 -37.25 -0.65 -37.3 -0.7 -37.3 -1.2 -37.55 -2.05 -37.7 -2.25 -37.65 -2.35 -37.65 -3.0 -37.5 -3.2 -37.35 -3.0 -37.15 -2.85 -37.25 -2.3 -37.35 -1.85 -37.35 -1.7 -37.35 -0.25 -36.75 0.2 -36.75 1.05 -37.2 2.7 -37.1 3.0 -37.35 2.95 -37.4 2.9 -37.45 2.85 -37.45 2.75 -37.45 2.4 -37.6 M7.75 -34.15 Q8.95 -34.6 9.7 -35.55 L9.75 -35.55 Q11.15 -34.25 11.6 -32.3 L12.4 -29.65 Q12.85 -28.4 13.45 -27.2 L14.35 -25.7 Q16.05 -23.4 18.55 -21.9 L19.1 -21.55 Q19.65 -21.2 19.7 -20.55 18.8 -19.65 17.55 -20.05 L16.0 -20.6 16.05 -19.25 15.25 -19.15 Q13.9 -21.55 11.95 -23.5 11.5 -23.95 11.2 -24.45 L10.15 -25.75 9.05 -30.05 Q9.25 -32.2 7.95 -33.9 L7.75 -34.15 M3.95 -34.35 L4.15 -34.4 Q5.25 -34.75 6.2 -35.4 5.45 -33.8 4.15 -32.55 L3.7 -32.25 Q2.25 -31.45 0.65 -30.8 L-0.05 -30.75 -1.8 -31.25 Q-4.1 -32.05 -5.45 -34.05 -3.6 -33.25 -1.55 -33.05 1.4 -32.7 3.95 -34.35 M1.8 -6.9 Q1.0 -8.35 0.8 -10.05 0.6 -11.85 0.65 -13.6 L1.05 -18.2 2.75 -19.55 Q4.5 -20.8 5.9 -22.7 L6.7 -23.8 7.05 -23.15 7.5 -22.6 8.0 -18.85 7.95 -16.4 7.6 -15.0 5.75 -9.1 4.9 -8.4 Q3.4 -7.25 1.85 -6.85 L1.8 -6.9 M-8.4 -41.35 Q-9.35 -41.25 -9.65 -40.4 L-9.5 -40.0 -8.4 -39.65 -7.0 -39.45 Q-5.85 -39.6 -5.9 -40.65 L-8.4 -41.35 M-10.15 -25.75 L-11.15 -24.45 -11.95 -23.5 -14.2 -20.8 -15.25 -19.15 -16.05 -19.25 -16.0 -20.6 -17.0 -20.15 Q-18.5 -19.6 -19.7 -20.5 L-19.6 -20.95 -19.2 -21.35 -17.65 -22.4 -15.8 -24.05 -13.9 -26.45 Q-12.65 -28.55 -11.95 -30.85 L-11.7 -31.95 Q-11.25 -34.15 -9.65 -35.6 -9.9 -35.4 -9.45 -35.1 -8.75 -34.55 -7.9 -34.15 L-7.7 -34.15 -7.8 -34.05 Q-9.25 -32.3 -9.0 -30.05 L-10.15 -25.75 M-8.2 -18.1 L-6.8 -17.65 Q-3.85 -17.2 -0.85 -17.65 L-0.75 -17.4 -0.7 -15.5 -0.5 -13.1 Q-0.05 -9.5 -2.05 -6.8 L-2.2 -6.65 Q-3.7 -7.25 -5.05 -8.25 L-5.75 -8.85 -6.05 -10.15 -6.0 -10.2 -7.55 -15.0 -8.2 -18.1" fill="#ffe3d5" fill-rule="evenodd" stroke="none"/>
    <path d="M-3.45 -46.65 L-3.4 -46.05 -3.35 -44.15 -3.45 -42.25 Q-3.55 -41.25 -4.5 -40.95 L-4.45 -41.15 -4.3 -41.4 -4.45 -46.85 -3.45 -46.65 M-6.7 -40.95 L-7.55 -41.5 -9.05 -42.35 Q-8.95 -42.85 -9.35 -43.05 -9.15 -45.15 -7.55 -46.3 L-7.45 -46.2 -6.9 -42.6 -6.7 -40.95 M9.0 -42.3 L7.7 -41.45 6.7 -40.95 6.75 -41.15 6.75 -41.25 6.85 -41.8 6.95 -42.1 Q7.45 -43.6 7.5 -45.15 L7.6 -46.2 Q8.45 -45.75 8.75 -44.95 L9.15 -43.65 Q9.35 -42.95 9.0 -42.3 M4.45 -41.05 Q3.9 -41.0 3.75 -41.45 L3.45 -42.65 3.35 -43.85 3.4 -45.3 3.5 -46.6 4.4 -46.7 4.55 -41.4 4.45 -41.05 M5.15 -46.85 L5.35 -47.0 6.7 -46.35 6.7 -45.05 4.9 -45.1 5.15 -46.85 M-5.75 -27.8 L-5.8 -27.9 -5.75 -27.85 -5.75 -27.8 M-4.95 -46.9 L-4.9 -45.1 -6.65 -45.0 -6.7 -46.35 -5.4 -47.0 -4.95 -46.9" fill="#ffffff" fill-rule="evenodd" stroke="none"/>
    <path d="M6.75 -43.55 Q6.75 -42.25 5.95 -41.1 L5.6 -41.1 5.3 -41.2 4.95 -41.35 4.7 -43.2 Q4.7 -44.3 5.6 -44.6 5.35 -43.65 5.5 -42.75 L5.55 -42.5 6.15 -42.85 Q6.4 -43.7 6.15 -44.6 6.75 -44.35 6.75 -43.55 M-6.2 -44.65 L-6.15 -44.65 Q-6.3 -43.75 -6.05 -42.95 -5.9 -42.35 -5.4 -42.7 L-5.4 -42.9 Q-5.65 -44.1 -5.25 -44.45 L-5.15 -44.35 Q-4.6 -43.05 -4.9 -41.75 L-5.15 -41.55 -5.15 -41.5 -5.3 -41.45 -5.7 -41.2 -6.15 -41.55 Q-6.7 -42.1 -6.65 -43.15 L-6.45 -44.2 -6.2 -44.65" fill="#c68b51" fill-rule="evenodd" stroke="none"/>
    <path d="M9.8 -40.4 L9.35 -39.9 8.1 -39.6 Q7.4 -39.6 6.9 -39.9 L6.45 -40.35 Q6.4 -40.9 7.5 -41.15 L8.75 -41.8 9.3 -41.6 9.35 -41.55 Q9.85 -41.25 9.85 -40.75 L9.8 -40.4 M-8.4 -41.35 L-5.9 -40.65 Q-5.85 -39.6 -7.0 -39.45 L-8.4 -39.65 -9.5 -40.0 -9.65 -40.4 Q-9.35 -41.25 -8.4 -41.35" fill="#ff99ff" fill-rule="evenodd" stroke="none"/>
    <path d="M6.45 -35.45 L6.4 -35.45 6.45 -35.5 6.45 -35.45 M4.2 -21.05 L4.2 -21.1 4.2 -21.05" fill="#3a24db" fill-rule="evenodd" stroke="none"/>
    <path d="M6.4 -35.45 L6.45 -35.45 8.35 -32.3 8.6 -31.55 Q8.75 -30.4 8.25 -29.35 L8.25 -29.25 Q7.25 -28.4 6.0 -28.1 L4.0 -27.65 4.1 -28.1 2.55 -28.05 2.45 -27.75 2.6 -27.45 0.65 -27.3 2.05 -28.8 Q2.35 -29.05 2.75 -29.05 4.9 -28.8 6.3 -30.25 7.05 -31.05 6.3 -31.75 L5.85 -31.85 Q4.95 -31.7 4.8 -30.85 4.7 -30.4 4.95 -30.05 4.6 -29.7 3.85 -29.7 L2.2 -29.5 2.55 -30.35 2.25 -30.6 Q1.45 -30.1 1.45 -29.2 1.0 -28.3 0.15 -27.65 L0.1 -27.65 0.0 -27.3 -0.1 -27.3 Q-0.45 -28.2 -1.1 -28.95 L-1.95 -30.25 Q-2.15 -30.7 -2.55 -30.6 -2.85 -30.05 -2.25 -29.5 L-4.35 -29.8 Q-4.15 -31.15 -5.35 -31.5 -5.85 -31.7 -6.15 -31.2 -6.65 -30.45 -5.9 -29.7 L-5.05 -29.4 Q-4.15 -28.55 -2.8 -28.8 L-1.85 -28.6 -0.7 -27.35 -2.9 -27.6 -3.05 -28.25 -3.55 -28.6 -4.15 -28.45 -4.5 -27.85 Q-6.15 -27.95 -7.55 -28.8 L-8.05 -29.3 -8.1 -29.3 Q-9.25 -31.3 -7.9 -33.15 L-6.35 -35.15 Q-5.25 -32.35 -2.45 -31.2 L-1.45 -30.8 0.35 -30.3 Q2.3 -30.9 3.95 -32.0 L5.25 -33.2 Q6.05 -34.25 6.4 -35.45 M6.45 -24.4 L6.35 -24.85 Q5.75 -25.75 4.6 -25.35 L4.35 -25.1 Q4.05 -24.25 4.9 -24.15 L5.15 -24.25 5.15 -24.7 5.55 -24.75 5.85 -24.35 5.05 -23.75 Q3.25 -23.85 2.15 -25.2 L1.8 -25.5 6.35 -26.05 6.7 -25.55 6.5 -24.55 6.45 -24.4 M0.55 -25.5 L1.25 -25.2 0.1 -23.6 -0.8 -24.75 -0.85 -25.05 -0.7 -25.5 0.55 -25.5 M8.05 -25.3 L8.35 -25.45 Q10.05 -23.9 10.4 -21.7 8.15 -22.0 7.15 -23.85 L7.15 -25.1 7.6 -25.1 7.65 -24.85 Q8.3 -23.65 9.3 -23.35 L8.55 -25.0 Q8.35 -25.4 8.05 -25.3 M8.15 -21.4 L9.5 -20.7 10.25 -18.6 9.8 -18.55 8.8 -18.6 8.15 -21.4 M6.05 -23.55 L5.65 -22.85 Q4.15 -21.05 2.2 -19.75 L0.55 -18.75 Q-1.7 -17.75 -4.05 -17.75 -6.4 -17.75 -8.5 -18.6 L-9.75 -19.2 -9.35 -20.6 -9.2 -21.2 -8.55 -23.1 Q-7.95 -24.85 -6.65 -26.15 L-6.45 -26.1 -1.7 -25.5 Q-2.8 -24.5 -4.1 -23.95 L-6.2 -23.9 -5.95 -24.2 -5.4 -24.4 -5.4 -24.35 -5.4 -24.1 -5.1 -23.9 -4.85 -23.95 -4.45 -24.35 -4.35 -24.65 Q-4.8 -25.4 -5.7 -25.15 -6.65 -24.9 -6.95 -23.9 -6.65 -22.8 -5.4 -22.95 L-4.75 -23.05 Q-3.1 -23.2 -2.05 -24.45 -0.9 -23.9 -0.45 -22.65 L-0.2 -22.15 0.0 -20.45 0.3 -20.5 0.3 -22.2 0.65 -23.05 1.95 -24.4 2.55 -24.05 3.45 -23.45 5.1 -23.1 5.3 -23.2 Q5.75 -23.3 6.05 -23.55 M0.95 -22.3 Q0.55 -22.1 0.75 -21.55 L0.8 -20.95 0.55 -19.5 1.25 -19.45 1.35 -19.95 Q1.7 -21.1 1.1 -22.15 L0.95 -22.3 M1.65 -22.85 Q1.95 -21.7 2.85 -21.0 L3.35 -21.0 4.05 -21.25 1.8 -23.1 1.65 -22.85 M4.2 -21.05 L4.15 -21.05 4.2 -21.05 M-2.15 -23.35 L-3.25 -22.5 Q-3.85 -22.05 -4.5 -21.75 L-4.7 -21.45 -4.7 -21.2 -4.15 -20.65 -3.6 -20.95 -1.9 -23.1 -1.9 -23.2 -2.15 -23.35 M-0.95 -22.4 Q-1.7 -21.2 -1.1 -19.8 L-0.6 -19.1 -0.15 -19.25 Q-0.95 -20.5 -0.7 -21.9 L-0.95 -22.4" fill="#cccccc" fill-rule="evenodd" stroke="none"/>
    <path d="M8.05 -25.3 Q8.35 -25.4 8.55 -25.0 L9.3 -23.35 Q8.3 -23.65 7.65 -24.85 L7.6 -25.1 8.05 -25.3 M6.9 -25.95 Q6.7 -26.6 7.55 -26.65 L7.65 -26.6 8.0 -26.25 8.0 -25.9 7.85 -25.55 7.75 -25.6 Q7.3 -25.2 6.95 -25.8 L6.9 -25.95 M8.5 -27.0 L8.2 -26.8 8.0 -26.9 6.85 -26.9 Q6.35 -27.55 6.85 -28.3 L8.15 -28.95 8.7 -27.3 8.5 -27.0 M7.9 -22.3 L7.95 -22.35 9.15 -21.65 9.5 -20.7 8.15 -21.4 7.9 -22.3 M5.8 -8.1 L5.4 -6.25 Q5.3 -5.3 4.55 -4.85 2.55 -3.75 0.45 -4.4 L0.3 -5.25 0.25 -7.15 Q0.2 -8.35 0.65 -8.75 L1.65 -6.35 2.4 -6.65 Q3.3 -6.95 4.0 -7.5 5.05 -8.25 5.8 -8.1 M-1.0 -7.9 L-0.45 -8.7 Q0.25 -7.15 -0.3 -5.55 L-0.65 -4.5 Q-1.55 -4.05 -2.6 -4.0 -3.9 -4.35 -4.55 -5.1 -5.75 -6.45 -5.7 -8.15 L-4.15 -7.1 -2.1 -6.25 -1.0 -7.9" fill="#999999" fill-rule="evenodd" stroke="none"/>
    <path d="M-8.1 -29.3 L-8.05 -29.3 Q-8.0 -29.15 -8.1 -29.25 L-8.1 -29.3 M7.95 -22.35 L7.9 -22.3 7.9 -22.35 7.95 -22.35" fill="#f89ec0" fill-rule="evenodd" stroke="none"/>
    <path d="M1.8 -6.9 L1.85 -6.85 1.75 -6.9 1.8 -6.9" fill="#600d33" fill-rule="evenodd" stroke="none"/>
    <path d="M6.3 -31.75 Q7.05 -31.05 6.3 -30.25 4.9 -28.8 2.75 -29.05 2.35 -29.05 2.05 -28.8 L0.65 -27.3 0.0 -27.3 0.1 -27.65 0.15 -27.65 Q1.0 -28.3 1.45 -29.2 1.45 -30.1 2.25 -30.6 L2.55 -30.35 2.2 -29.5 3.85 -29.7 Q4.6 -29.7 4.95 -30.05 4.7 -30.4 4.8 -30.85 4.95 -31.7 5.85 -31.85 L6.3 -31.75 M-0.95 -22.4 L-0.7 -21.9 Q-0.95 -20.5 -0.15 -19.25 L-0.6 -19.1 -1.1 -19.8 Q-1.7 -21.2 -0.95 -22.4 M-2.15 -23.35 L-1.9 -23.2 -1.9 -23.1 -3.6 -20.95 -4.15 -20.65 -4.7 -21.2 -4.7 -21.45 -4.5 -21.75 Q-3.85 -22.05 -3.25 -22.5 L-2.15 -23.35 M-6.15 -31.2 Q-5.85 -31.7 -5.35 -31.5 -4.15 -31.15 -4.35 -29.8 L-2.25 -29.5 Q-2.85 -30.05 -2.55 -30.6 -2.15 -30.7 -1.95 -30.25 L-1.1 -28.95 Q-0.45 -28.2 -0.1 -27.3 L-0.4 -27.15 -0.7 -27.35 -1.85 -28.6 -2.8 -28.8 Q-4.15 -28.55 -5.05 -29.4 L-5.9 -29.7 Q-6.65 -30.45 -6.15 -31.2 M1.65 -22.85 L1.8 -23.1 4.05 -21.25 3.35 -21.0 2.85 -21.0 Q1.95 -21.7 1.65 -22.85 M0.95 -22.3 L1.1 -22.15 Q1.7 -21.1 1.35 -19.95 L1.25 -19.45 0.55 -19.5 0.8 -20.95 0.75 -21.55 Q0.55 -22.1 0.95 -22.3 M1.25 -25.2 L0.55 -25.5 0.7 -25.75 -0.6 -25.65 -0.7 -25.5 -0.85 -25.05 -0.8 -24.75 0.1 -23.6 1.25 -25.2 M2.55 -28.05 L4.1 -28.1 4.0 -27.65 3.8 -27.45 6.3 -28.05 6.35 -28.05 6.1 -26.5 1.25 -25.8 1.8 -25.5 2.15 -25.2 Q3.25 -23.85 5.05 -23.75 L5.85 -24.35 5.55 -24.75 5.15 -24.7 5.15 -24.25 4.9 -24.15 Q4.05 -24.25 4.35 -25.1 L4.6 -25.35 Q5.75 -25.75 6.35 -24.85 L6.45 -24.4 6.5 -24.3 6.05 -23.55 Q5.75 -23.3 5.3 -23.2 L5.1 -23.1 3.45 -23.45 2.55 -24.05 1.95 -24.4 0.65 -23.05 0.3 -22.2 0.3 -20.5 0.0 -20.45 -0.2 -22.15 -0.45 -22.65 Q-0.9 -23.9 -2.05 -24.45 -3.1 -23.2 -4.75 -23.05 L-5.4 -22.95 Q-6.65 -22.8 -6.95 -23.9 -6.65 -24.9 -5.7 -25.15 -4.8 -25.4 -4.35 -24.65 L-4.45 -24.35 -4.85 -23.95 -5.1 -23.9 -5.4 -24.1 -5.4 -24.35 -5.4 -24.4 -5.95 -24.2 -6.2 -23.9 -4.1 -23.95 Q-2.8 -24.5 -1.7 -25.5 L-1.35 -25.75 Q-3.7 -25.7 -5.85 -26.6 L-5.8 -26.65 -5.75 -27.85 -3.8 -27.4 -4.5 -27.85 -4.15 -28.45 -3.55 -28.6 -3.05 -28.25 -2.9 -27.6 -3.25 -27.35 -2.5 -27.2 Q0.3 -26.85 3.05 -27.25 L2.6 -27.45 2.45 -27.75 2.55 -28.05" fill="#666666" fill-rule="evenodd" stroke="none"/>
  </g>
</svg>
