<?xml version="1.0" encoding="UTF-8" standalone="no"?>
<svg xmlns:ffdec="https://www.free-decompiler.com/flash" xmlns:xlink="http://www.w3.org/1999/xlink" ffdec:objectType="shape" height="13.9px" width="17.15px" xmlns="http://www.w3.org/2000/svg">
  <g transform="matrix(1.0, 0.0, 0.0, 1.0, 7.85, 7.55)">
    <path d="M8.25 -5.9 L8.5 -5.85 8.5 -6.0 8.4 -6.4 Q8.25 -7.0 7.7 -7.2 L7.85 -6.2 6.9 -4.75 6.9 -4.55 6.85 -4.1 7.05 -3.95 7.25 -4.05 7.65 -4.65 7.45 -4.85 Q7.35 -5.05 7.55 -5.05 L7.6 -5.0 7.95 -4.65 8.0 -4.75 Q8.5 -5.25 8.25 -5.9 M7.3 -7.55 L7.6 -7.5 8.3 -7.0 Q8.85 -6.25 8.65 -5.25 L8.7 -4.65 Q9.4 -2.25 9.3 0.3 L8.7 0.0 8.05 -0.55 7.7 -0.95 Q6.6 -2.7 6.75 -4.8 L6.8 -4.85 Q7.9 -5.95 7.3 -7.4 L7.3 -7.55 M-5.3 3.95 L-7.1 3.5 -7.25 3.05 -7.5 2.9 -7.65 2.7 -7.7 2.6 -7.75 2.45 -7.8 2.3 -7.8 2.15 -7.75 2.0 -7.25 1.55 -7.75 0.15 -7.85 -0.8 Q-7.85 -2.8 -7.35 -4.75 L-7.4 -5.4 -7.75 -6.7 -7.4 -7.2 -6.95 -7.2 -6.8 -7.05 -6.35 -6.65 -6.15 -6.5 -6.05 -6.45 -5.95 -6.4 -5.85 -6.35 -5.75 -6.35 -5.3 -5.9 -5.25 -5.95 -5.2 -5.9 -5.15 -5.85 -4.95 -5.9 -4.65 -5.45 -4.05 -5.4 -3.6 -5.05 -2.95 -5.1 -2.9 -5.0 -2.85 -4.95 -2.8 -4.9 -2.75 -4.85 -2.65 -4.85 -2.6 -4.8 -2.5 -4.8 -2.15 -4.8 -1.8 -4.5 -1.6 -4.5 -1.55 -4.5 -1.5 -4.5 -1.45 -4.55 -1.4 -4.55 -1.3 -4.65 -1.05 -4.4 -0.65 -4.45 -0.3 -4.2 0.1 -4.3 0.3 -4.2 0.6 -4.05 0.7 -4.05 0.85 -4.05 1.0 -4.1 1.6 -3.95 1.75 -3.9 2.2 -4.0 2.45 -3.95 2.55 -3.9 2.65 -3.85 2.9 -2.6 2.9 -2.55 2.9 -2.5 3.4 -1.65 5.65 2.0 6.1 3.0 Q6.4 3.85 7.2 4.25 L8.15 4.3 8.95 3.8 8.75 4.7 8.45 5.35 8.15 5.6 6.95 6.15 6.85 6.1 6.3 6.35 6.2 6.25 6.1 6.2 6.0 6.2 5.9 6.2 5.75 6.2 5.65 6.3 3.8 6.25 3.75 6.2 3.55 6.15 3.5 6.1 3.4 6.1 3.3 6.15 3.25 6.15 3.1 6.2 3.05 6.15 3.0 6.05 2.2 5.95 1.95 5.55 1.3 5.6 1.15 5.25 -0.6 4.55 -2.25 4.65 -1.0 4.3 -0.8 4.15 -0.85 3.85 -1.2 3.7 -1.0 3.45 -0.85 3.5 -0.7 3.4 -1.45 3.25 Q-3.65 2.9 -5.35 1.5 L-5.35 1.35 -5.3 1.4 Q-3.9 2.55 -2.0 2.9 L-0.65 3.15 -0.55 3.1 3.6 4.15 5.1 4.3 Q2.7 4.45 0.45 3.7 1.65 4.4 3.0 4.9 L3.65 5.0 4.15 5.0 5.2 5.15 6.3 4.85 7.05 4.6 6.1 3.7 6.15 3.6 6.05 3.55 5.8 3.0 5.75 2.9 5.7 2.85 4.0 -0.15 3.2 -1.3 3.25 -1.4 2.75 -2.05 2.75 -2.1 2.6 -2.45 2.2 -2.45 1.7 -2.6 1.55 -2.65 1.45 -2.7 2.5 -2.8 2.4 -3.05 2.15 -3.75 1.7 -3.6 Q1.35 -3.55 1.15 -3.85 L0.55 -3.7 Q0.2 -3.75 0.0 -4.05 -0.5 -3.8 -0.95 -4.05 L-1.5 -4.25 -1.7 -4.2 Q-2.2 -4.05 -2.35 -4.55 L-2.55 -4.55 Q-2.85 -4.6 -3.05 -4.8 L-3.55 -4.85 Q-3.8 -4.85 -3.9 -4.95 L-4.15 -5.2 -4.4 -5.2 Q-4.7 -5.1 -4.95 -5.35 L-5.0 -5.6 -5.3 -5.55 Q-5.85 -6.35 -6.85 -6.45 L-7.2 -7.05 -7.5 -6.8 -7.3 -5.9 -6.7 -5.2 -6.95 -5.3 -7.0 -4.85 -7.5 -2.85 -7.65 -1.65 Q-7.6 0.15 -6.7 1.6 L-6.6 2.05 -4.95 3.0 -3.4 3.3 -3.3 3.45 -1.35 3.6 -1.6 3.75 Q-2.2 3.95 -2.8 3.75 L-3.05 3.85 -3.75 3.55 -4.85 3.35 -6.2 2.7 -6.35 2.65 -7.15 1.8 -7.6 2.25 -7.0 2.9 Q-6.8 3.1 -6.9 3.45 L-6.3 3.65 -6.15 3.6 Q-5.6 3.55 -5.3 3.95 M-2.35 4.6 L-4.35 4.2 -5.25 4.0 -5.15 3.95 Q-4.7 3.8 -4.35 4.2 L-4.05 4.15 -3.65 4.2 -3.25 4.4 -2.95 4.35 -2.6 4.4 Q-2.45 4.45 -2.35 4.6 M0.2 -2.75 L0.0 -2.7 Q-0.4 -2.75 -0.65 -3.0 L-0.75 -2.95 Q-1.2 -2.95 -1.5 -3.25 -2.1 -2.95 -2.4 -3.55 L0.2 -2.75 M7.35 -2.85 Q7.5 -1.65 8.4 -0.8 L8.65 -0.55 Q8.8 -2.65 8.1 -4.7 L8.0 -4.65 7.9 -4.15 7.8 -3.85 7.9 -3.75 8.0 -3.0 7.5 -4.05 7.05 -3.7 7.35 -2.85 M5.65 5.4 L4.25 5.45 Q3.9 5.15 3.55 5.15 L1.65 4.55 0.5 3.9 0.15 4.2 0.25 4.5 0.35 4.5 Q0.65 4.5 0.8 4.75 L0.9 4.95 1.25 5.05 1.8 5.4 2.0 5.3 2.5 5.45 2.6 5.65 3.5 5.85 3.85 5.75 6.35 5.85 8.1 5.35 8.25 4.75 7.5 4.8 7.25 5.05 7.1 5.0 Q6.8 4.95 6.6 5.15 L6.4 5.3 6.3 5.25 5.9 5.25 5.65 5.4 M-5.5 -4.85 L-3.0 -3.65 -3.75 -3.8 Q-4.75 -4.25 -5.55 -4.8 L-5.5 -4.85" fill="#666666" fill-rule="evenodd" stroke="none"/>
    <path d="M6.9 -4.55 L6.9 -4.75 7.85 -6.2 7.7 -7.2 Q8.25 -7.0 8.4 -6.4 L8.5 -6.0 8.5 -5.85 8.25 -5.9 7.85 -5.85 7.95 -5.55 7.6 -5.0 7.55 -5.05 Q7.35 -5.05 7.45 -4.85 L6.9 -4.55 M-7.5 -2.85 L-7.0 -4.85 -6.65 -4.6 -6.7 -2.7 -5.85 -4.15 -5.0 -3.8 -5.25 -1.95 -4.5 -3.2 -4.35 -3.05 Q-4.15 -2.35 -4.25 -1.5 L-3.15 -3.2 -1.8 -2.7 -1.95 -0.65 -1.75 -0.5 -1.0 -2.45 0.55 -2.25 0.65 -0.9 1.1 -1.25 1.25 -1.1 1.3 -1.05 1.65 0.45 2.3 -1.65 2.65 -1.7 2.7 -1.6 3.2 -1.3 4.0 -0.15 5.7 2.85 5.5 2.7 5.3 2.8 5.0 3.65 3.3 3.5 3.55 2.85 3.55 1.7 3.4 1.75 2.85 3.35 0.15 2.5 -0.1 0.75 -0.35 0.55 -0.55 0.7 -0.65 2.25 -2.7 1.65 -3.2 0.05 -3.35 0.05 -3.5 0.65 -3.4 1.45 -3.85 1.3 -4.1 0.75 -4.35 -0.35 -4.6 -0.2 -4.65 0.1 -4.75 0.2 -4.7 1.0 -6.4 0.3 -6.7 -1.4 -7.0 -0.8 -7.0 -0.2 -7.15 -0.5 Q-7.6 -1.65 -7.5 -2.85 M-7.3 -5.9 L-7.5 -6.8 -7.2 -7.05 -6.85 -6.45 Q-5.85 -6.35 -5.3 -5.55 L-5.0 -5.6 -4.95 -5.35 Q-4.7 -5.1 -4.4 -5.2 L-4.15 -5.2 -3.9 -4.95 Q-3.8 -4.85 -3.55 -4.85 L-3.05 -4.8 Q-2.85 -4.6 -2.55 -4.55 L-2.35 -4.55 Q-2.2 -4.05 -1.7 -4.2 L-1.5 -4.25 -0.95 -4.05 Q-0.5 -3.8 0.0 -4.05 0.2 -3.75 0.55 -3.7 L1.15 -3.85 Q1.35 -3.55 1.7 -3.6 L2.15 -3.75 2.4 -3.05 0.9 -3.25 0.6 -3.3 Q-0.6 -3.4 -1.65 -3.9 -2.6 -4.1 -3.4 -4.4 L-5.9 -5.5 -6.05 -5.5 -6.1 -5.6 -7.1 -5.85 -7.2 -6.05 -7.3 -5.9 M5.8 3.0 L6.05 3.55 5.75 3.6 5.8 3.0 M-5.3 1.4 L-5.35 1.35 -5.3 1.4 M7.9 -4.15 L8.0 -4.65 8.1 -4.7 Q8.8 -2.65 8.65 -0.55 L8.4 -0.8 Q7.5 -1.65 7.35 -2.85 L7.55 -3.15 8.35 -2.05 8.05 -4.1 7.9 -4.15" fill="#ffffff" fill-rule="evenodd" stroke="none"/>
    <path d="M8.25 -5.9 Q8.5 -5.25 8.0 -4.75 L7.95 -4.65 7.6 -5.0 7.95 -5.55 7.85 -5.85 8.25 -5.9 M7.45 -4.85 L7.65 -4.65 7.25 -4.05 7.05 -3.95 6.85 -4.1 6.9 -4.55 7.45 -4.85 M-2.25 4.65 L-2.3 4.65 -2.35 4.6 Q-2.45 4.45 -2.6 4.4 L-2.95 4.35 -3.25 4.4 -3.65 4.2 -4.05 4.15 -4.35 4.2 Q-4.7 3.8 -5.15 3.95 L-5.25 4.0 -5.3 4.0 -5.3 3.95 Q-5.6 3.55 -6.15 3.6 L-6.3 3.65 -6.9 3.45 Q-6.8 3.1 -7.0 2.9 L-7.6 2.25 -7.15 1.8 -6.35 2.65 -6.2 2.7 -4.85 3.35 -3.75 3.55 -3.05 3.85 -2.8 3.75 Q-2.2 3.95 -1.6 3.75 L-1.35 3.6 -3.3 3.45 -3.4 3.3 -4.95 3.0 -6.6 2.05 -6.7 1.6 Q-7.6 0.15 -7.65 -1.65 L-7.5 -2.85 Q-7.6 -1.65 -7.15 -0.5 L-7.0 -0.2 -7.0 -0.8 -6.7 -1.4 -6.4 0.3 -4.7 1.0 -4.75 0.2 -4.65 0.1 -4.6 -0.2 -4.35 -0.35 -4.1 0.75 -3.85 1.3 -3.4 1.45 -3.5 0.65 -3.35 0.05 -3.2 0.05 -2.7 1.65 -0.65 2.25 -0.55 0.7 -0.35 0.55 -0.1 0.75 0.15 2.5 2.85 3.35 3.4 1.75 3.55 1.7 3.55 2.85 3.3 3.5 5.0 3.65 5.3 2.8 5.5 2.7 5.7 2.85 5.75 2.9 5.8 3.0 5.75 3.6 6.05 3.55 6.15 3.6 6.1 3.7 7.05 4.6 6.3 4.85 5.2 5.15 4.15 5.0 3.65 5.0 3.0 4.9 Q1.65 4.4 0.45 3.7 2.7 4.45 5.1 4.3 L3.6 4.15 -0.55 3.1 -0.65 3.15 -2.0 2.9 Q-3.9 2.55 -5.3 1.4 L-5.35 1.35 -5.35 1.5 Q-3.65 2.9 -1.45 3.25 L-0.7 3.4 -0.85 3.5 -1.0 3.45 -1.2 3.7 -0.85 3.85 -0.8 4.15 -1.0 4.3 -2.25 4.65 M-7.0 -4.85 L-6.95 -5.3 -6.7 -5.2 -7.3 -5.9 -7.2 -6.05 -7.1 -5.85 -6.1 -5.6 -6.05 -5.5 -5.9 -5.5 -3.4 -4.4 Q-2.6 -4.1 -1.65 -3.9 -0.6 -3.4 0.6 -3.3 L0.9 -3.25 2.4 -3.05 2.5 -2.8 1.45 -2.7 1.55 -2.65 1.7 -2.6 2.2 -2.45 2.6 -2.45 2.75 -2.1 2.75 -2.05 3.25 -1.4 3.2 -1.3 2.7 -1.6 2.65 -1.7 2.3 -1.65 1.65 0.45 1.3 -1.05 1.25 -1.1 1.1 -1.25 0.65 -0.9 0.55 -2.25 -1.0 -2.45 -1.75 -0.5 -1.95 -0.65 -1.8 -2.7 -3.15 -3.2 -4.25 -1.5 Q-4.15 -2.35 -4.35 -3.05 L-4.5 -3.2 -5.25 -1.95 -5.0 -3.8 -5.85 -4.15 -6.7 -2.7 -6.65 -4.6 -7.0 -4.85 M0.2 -2.75 L-2.4 -3.55 Q-2.1 -2.95 -1.5 -3.25 -1.2 -2.95 -0.75 -2.95 L-0.65 -3.0 Q-0.4 -2.75 0.0 -2.7 L0.2 -2.75 M7.9 -4.15 L8.05 -4.1 8.35 -2.05 7.55 -3.15 7.35 -2.85 7.05 -3.7 7.5 -4.05 8.0 -3.0 7.9 -3.75 7.8 -3.85 7.9 -4.15 M-5.5 -4.85 L-5.55 -4.8 Q-4.75 -4.25 -3.75 -3.8 L-3.0 -3.65 -5.5 -4.85 M5.65 5.4 L5.9 5.25 6.3 5.25 6.4 5.3 6.6 5.15 Q6.8 4.95 7.1 5.0 L7.25 5.05 7.5 4.8 8.25 4.75 8.1 5.35 6.35 5.85 3.85 5.75 3.5 5.85 2.6 5.65 2.5 5.45 2.0 5.3 1.8 5.4 1.25 5.05 0.9 4.95 0.8 4.75 Q0.65 4.5 0.35 4.5 L0.25 4.5 0.15 4.2 0.5 3.9 1.65 4.55 3.55 5.15 Q3.9 5.15 4.25 5.45 L5.65 5.4" fill="#cccccc" fill-rule="evenodd" stroke="none"/>
  </g>
</svg>
