<?xml version="1.0" encoding="UTF-8" standalone="no"?>
<svg xmlns:ffdec="https://www.free-decompiler.com/flash" xmlns:xlink="http://www.w3.org/1999/xlink" ffdec:objectType="shape" height="58.5px" width="40.3px" xmlns="http://www.w3.org/2000/svg">
  <g transform="matrix(1.0, 0.0, 0.0, 1.0, 20.1, 61.85)">
    <path d="M11.25 -58.4 L13.5 -53.45 11.95 -55.05 Q11.1 -55.9 10.1 -56.4 L9.05 -56.9 10.65 -52.15 8.45 -54.35 8.3 -52.5 8.6 -53.85 11.15 -51.35 10.95 -52.55 10.3 -54.4 9.65 -56.3 11.35 -55.2 12.7 -53.8 13.4 -52.8 13.95 -51.8 14.4 -51.1 Q14.55 -51.85 14.2 -52.8 L13.6 -54.35 13.0 -55.8 12.3 -57.3 12.7 -56.8 13.65 -55.2 14.1 -54.25 14.55 -52.75 14.85 -51.1 15.05 -49.65 15.15 -48.25 15.3 -46.6 15.55 -41.4 15.55 -41.1 15.0 -38.6 14.6 -38.1 14.5 -38.05 14.2 -37.9 14.4 -38.7 14.6 -39.45 14.8 -41.1 Q14.9 -43.2 14.45 -45.35 L14.2 -46.4 14.0 -47.2 14.1 -46.25 14.25 -45.3 14.25 -45.2 14.4 -42.9 14.15 -39.75 13.95 -38.95 13.45 -38.0 Q12.35 -36.35 10.45 -36.1 L9.85 -36.05 9.6 -36.0 8.7 -36.25 8.65 -36.45 9.05 -36.95 9.2 -37.3 9.2 -37.35 Q10.1 -39.55 10.4 -41.9 L10.45 -42.05 10.45 -42.1 10.5 -42.45 10.6 -42.75 12.1 -43.8 11.3 -44.0 10.7 -44.1 10.05 -45.95 9.7 -47.2 9.1 -48.9 8.6 -50.25 10.6 -49.2 10.45 -49.45 9.6 -50.1 8.4 -50.7 7.45 -52.5 6.1 -54.25 4.95 -55.25 4.35 -55.6 3.65 -55.85 2.45 -56.0 1.25 -55.5 0.0 -54.75 -0.95 -55.4 -2.05 -55.95 -3.95 -55.75 -5.9 -54.15 -6.5 -53.45 -7.1 -52.75 -7.25 -52.55 -7.45 -52.3 -8.4 -50.35 -9.25 -49.95 -10.2 -49.2 -10.45 -48.75 -10.15 -49.0 -9.3 -49.5 -8.75 -49.65 -9.0 -48.95 -9.4 -47.55 -9.85 -45.7 -10.2 -44.35 -10.6 -44.15 -12.05 -43.7 -10.45 -42.8 -10.4 -42.05 -10.2 -40.9 -9.8 -39.35 -9.35 -37.9 -8.6 -36.5 -8.55 -36.25 -8.85 -36.2 -10.0 -36.05 -10.1 -36.05 -11.2 -36.3 -12.75 -37.35 -13.6 -38.5 -14.15 -40.05 -14.15 -40.2 -14.2 -40.9 -14.2 -41.55 -14.25 -42.95 -14.15 -44.75 -14.05 -46.1 -13.9 -47.45 -14.25 -45.65 -14.55 -43.9 -14.7 -42.45 -14.75 -41.4 -14.45 -39.45 -14.15 -38.05 -14.25 -37.9 -14.75 -38.55 Q-15.35 -39.85 -15.55 -41.15 L-15.6 -42.15 -15.55 -42.95 -15.35 -44.8 -15.15 -46.7 -15.05 -47.7 -15.05 -48.7 -14.95 -49.7 -14.8 -50.8 -14.55 -52.35 -14.1 -53.75 -13.5 -55.15 -12.75 -56.55 -13.25 -55.4 -13.95 -53.7 -14.45 -52.25 Q-14.85 -51.2 -14.35 -50.25 L-13.85 -50.8 -13.05 -51.95 -12.25 -53.2 -11.2 -54.3 -9.5 -55.7 -10.55 -51.5 -10.25 -51.1 -9.25 -51.85 Q-8.45 -52.5 -7.95 -53.45 L-10.0 -51.9 -9.0 -55.15 -8.55 -56.6 -9.5 -56.3 -11.2 -55.15 -12.45 -53.9 -13.8 -52.15 -13.35 -53.7 -12.7 -55.15 -12.0 -56.55 -11.0 -58.0 -11.05 -58.15 -12.0 -57.5 -9.45 -59.7 -8.65 -60.2 -7.15 -60.8 -3.7 -61.4 -1.0 -60.9 -0.7 -60.8 0.05 -60.65 0.1 -60.65 0.2 -60.7 1.3 -61.0 1.85 -61.2 Q3.8 -61.45 5.55 -61.15 L8.45 -60.25 9.7 -59.55 9.9 -59.4 10.8 -58.75 11.25 -58.4" fill="#734f24" fill-rule="evenodd" stroke="none"/>
    <path d="M12.3 -57.3 L13.0 -55.8 13.6 -54.35 14.2 -52.8 Q14.55 -51.85 14.4 -51.1 L13.95 -51.8 13.4 -52.8 12.7 -53.8 11.35 -55.2 9.65 -56.3 10.3 -54.4 10.95 -52.55 11.15 -51.35 8.6 -53.85 8.3 -52.5 8.45 -54.35 10.65 -52.15 9.05 -56.9 10.1 -56.4 Q11.1 -55.9 11.95 -55.05 L13.5 -53.45 11.25 -58.4 12.3 -57.3 M-12.0 -57.5 L-11.05 -58.15 -11.0 -58.0 -12.0 -56.55 -12.7 -55.15 -13.35 -53.7 -13.8 -52.15 -12.45 -53.9 -11.2 -55.15 -9.5 -56.3 -8.55 -56.6 -9.0 -55.15 -10.0 -51.9 -7.95 -53.45 Q-8.45 -52.5 -9.25 -51.85 L-10.25 -51.1 -10.55 -51.5 -9.5 -55.7 -11.2 -54.3 -12.25 -53.2 -13.05 -51.95 -13.85 -50.8 -14.35 -50.25 Q-14.85 -51.2 -14.45 -52.25 L-13.95 -53.7 -13.25 -55.4 -12.75 -56.55 -12.0 -57.5" fill="#e0c1a3" fill-rule="evenodd" stroke="none"/>
    <path d="M11.25 -58.4 L10.8 -58.75 9.9 -59.4 9.7 -59.55 8.45 -60.25 5.55 -61.15 Q3.8 -61.45 1.85 -61.2 L1.3 -61.0 0.2 -60.7 0.1 -60.65 0.05 -60.65 -0.7 -60.8 -1.0 -60.9 -3.7 -61.4 -7.15 -60.8 -8.65 -60.2 -9.45 -59.7 -12.0 -57.5 -12.75 -56.55 -13.5 -55.15 -14.1 -53.75 -14.55 -52.35 -14.8 -50.8 -14.95 -49.7 -15.05 -48.7 -15.05 -47.7 -15.15 -46.7 -15.35 -44.8 -15.55 -42.95 -15.6 -42.15 -15.55 -41.15 Q-15.35 -39.85 -14.75 -38.55 L-14.25 -37.9 -14.15 -38.05 -14.45 -39.45 -14.75 -41.4 -14.7 -42.45 -14.55 -43.9 -14.25 -45.65 -13.9 -47.45 -14.05 -46.1 -14.15 -44.75 -14.25 -42.95 -14.2 -41.55 -14.2 -40.9 -14.15 -40.2 -14.15 -40.05 -13.6 -38.5 -12.75 -37.35 -11.2 -36.3 -10.1 -36.05 -10.0 -36.05 -8.85 -36.2 -8.55 -36.25 -8.6 -36.5 -9.35 -37.9 -9.8 -39.35 -10.2 -40.9 -10.4 -42.05 -10.45 -42.8 -12.05 -43.7 -10.6 -44.15 -10.2 -44.35 -9.85 -45.7 -9.4 -47.55 -9.0 -48.95 -8.75 -49.65 -9.3 -49.5 -10.15 -49.0 -10.45 -48.75 -10.2 -49.2 -9.25 -49.95 -8.4 -50.35 -7.45 -52.3 -7.25 -52.55 -7.1 -52.75 -6.5 -53.45 -5.9 -54.15 -3.95 -55.75 -2.05 -55.95 -0.95 -55.4 0.0 -54.75 1.25 -55.5 2.45 -56.0 3.65 -55.85 4.35 -55.6 4.95 -55.25 6.1 -54.25 7.45 -52.5 8.4 -50.7 9.6 -50.1 10.45 -49.45 10.6 -49.2 8.6 -50.25 9.1 -48.9 9.7 -47.2 10.05 -45.95 10.7 -44.1 11.3 -44.0 12.1 -43.8 10.6 -42.75 10.5 -42.45 10.45 -42.1 10.45 -42.05 10.4 -41.9 Q10.1 -39.55 9.2 -37.35 L9.2 -37.3 9.05 -36.95 8.65 -36.45 8.7 -36.25 9.6 -36.0 9.85 -36.05 10.45 -36.1 Q12.35 -36.35 13.45 -38.0 L13.95 -38.95 14.15 -39.75 14.4 -42.9 14.25 -45.2 14.25 -45.3 14.1 -46.25 14.0 -47.2 14.2 -46.4 14.45 -45.35 Q14.9 -43.2 14.8 -41.1 L14.6 -39.45 14.4 -38.7 14.2 -37.9 14.5 -38.05 14.6 -38.1 15.0 -38.6 15.55 -41.1 15.55 -41.4 15.3 -46.6 15.15 -48.25 15.05 -49.65 14.85 -51.1 14.55 -52.75 14.1 -54.25 13.65 -55.2 12.7 -56.8 12.3 -57.3 11.25 -58.4 M4.9 -61.7 L7.4 -61.05 Q9.9 -60.3 11.75 -58.55 L12.35 -57.9 13.5 -56.4 14.3 -55.0 14.85 -53.85 15.35 -52.05 15.6 -50.15 15.75 -48.35 16.05 -41.75 Q16.1 -40.05 15.4 -38.5 14.9 -37.5 13.9 -37.2 L13.55 -37.0 11.95 -35.65 12.6 -34.85 Q13.4 -34.2 13.65 -33.15 14.2 -31.1 13.05 -29.45 L13.55 -28.4 Q13.45 -27.8 13.9 -27.25 L15.4 -25.05 Q16.1 -23.9 17.2 -23.2 L19.95 -21.0 20.05 -20.8 20.2 -20.3 20.0 -19.95 18.45 -19.75 17.7 -19.75 16.9 -19.9 16.55 -18.9 16.25 -18.7 16.05 -18.65 15.95 -18.6 15.85 -18.55 15.75 -18.6 15.45 -18.6 15.3 -18.65 15.05 -18.75 Q14.2 -19.7 13.6 -20.8 L12.75 -21.9 12.35 -22.3 12.35 -22.25 11.8 -22.7 11.65 -22.85 11.6 -22.9 Q10.25 -24.4 9.25 -26.0 L8.45 -27.5 7.65 -27.8 7.45 -28.0 7.2 -28.2 6.65 -28.0 6.5 -26.75 8.3 -25.05 8.6 -24.75 9.8 -22.65 9.9 -22.5 10.6 -20.9 10.65 -20.6 11.75 -17.05 Q12.45 -15.15 12.75 -13.2 L12.7 -11.9 12.3 -11.45 7.15 -8.95 Q6.7 -6.2 4.7 -4.3 3.9 -3.6 2.9 -3.5 L0.05 -3.8 -0.45 -3.75 Q-2.65 -2.8 -4.3 -4.1 -6.65 -5.9 -7.05 -8.95 L-12.2 -11.45 -12.6 -11.9 Q-13.0 -13.75 -12.25 -15.45 L-11.7 -17.05 -11.0 -19.25 -10.85 -19.9 -10.7 -20.4 -10.35 -21.55 -8.65 -24.45 -6.65 -26.8 -6.55 -27.0 -6.7 -28.0 -7.2 -28.25 -7.5 -28.0 Q-7.9 -27.6 -8.5 -27.5 L-8.7 -26.9 Q-9.05 -25.95 -9.8 -25.15 L-12.3 -22.2 -12.65 -21.85 Q-13.8 -20.75 -14.55 -19.3 L-14.95 -18.75 Q-15.05 -18.65 -15.2 -18.65 L-15.5 -18.6 -15.65 -18.6 -16.05 -18.7 -16.5 -18.9 -16.75 -19.9 -17.85 -19.7 -18.4 -19.7 -19.65 -19.95 -19.9 -19.95 -20.1 -20.2 Q-20.0 -21.45 -18.85 -22.0 L-16.45 -23.65 -16.25 -23.85 -14.25 -26.6 -13.45 -28.25 -13.45 -28.4 -12.95 -29.45 Q-13.7 -30.3 -13.75 -31.5 -13.85 -33.55 -12.5 -34.85 L-11.9 -35.65 -13.45 -37.0 -13.8 -37.2 Q-15.0 -37.6 -15.45 -38.8 -16.1 -40.65 -16.15 -42.6 L-16.1 -43.8 -15.95 -44.9 -15.85 -46.05 -15.75 -47.15 -15.55 -48.3 -15.45 -49.45 -15.3 -50.55 -15.15 -51.65 -14.95 -52.85 -14.65 -54.0 -14.15 -55.1 -13.35 -56.4 -12.45 -57.65 -11.35 -58.7 -10.2 -59.65 -9.15 -60.3 -7.3 -61.1 Q-3.95 -62.3 -0.65 -61.25 L-0.1 -60.95 2.05 -61.6 4.9 -61.7 M6.25 -53.05 L5.9 -53.5 1.0 -53.8 0.9 -54.35 1.4 -55.1 0.25 -54.0 0.15 -53.9 0.1 -53.95 0.05 -53.95 -0.05 -53.95 -1.35 -55.1 -0.85 -54.4 -0.9 -53.8 -2.0 -53.8 -3.85 -55.0 -2.5 -53.8 -5.85 -53.5 -6.2 -53.0 -7.9 -50.7 -6.85 -50.7 -5.35 -50.55 -3.95 -50.25 Q-3.2 -50.05 -3.15 -49.6 L-3.8 -49.8 -5.1 -50.2 -8.25 -50.0 -9.2 -46.9 -8.35 -47.4 -6.5 -47.95 -4.7 -48.3 Q-3.45 -47.95 -2.8 -47.05 L-3.25 -46.6 -3.4 -46.6 -4.4 -46.8 -4.25 -41.35 -4.4 -41.1 -4.45 -40.9 -5.15 -40.65 Q-5.9 -40.5 -6.65 -40.9 L-6.85 -42.55 -7.4 -46.15 -7.5 -46.25 Q-9.1 -45.1 -9.3 -43.0 -8.9 -42.8 -9.0 -42.3 L-9.6 -42.6 -10.0 -42.75 -9.65 -40.05 -9.15 -38.55 -8.9 -37.85 -8.9 -37.8 -8.45 -37.25 Q-7.85 -36.5 -6.9 -36.1 L-4.7 -35.1 Q-1.1 -33.3 2.7 -34.45 5.65 -35.35 8.25 -36.95 L8.8 -37.55 8.95 -37.8 9.25 -38.35 9.85 -40.35 9.9 -40.7 10.1 -42.0 9.95 -42.6 9.65 -42.65 9.05 -42.25 Q9.4 -42.9 9.2 -43.6 L8.8 -44.9 Q8.5 -45.7 7.65 -46.15 L7.55 -45.1 Q7.5 -43.55 7.0 -42.05 L6.9 -41.75 6.8 -41.2 6.8 -41.1 6.75 -40.9 4.5 -41.0 4.6 -41.35 Q4.4 -44.0 4.45 -46.65 L3.55 -46.55 3.4 -46.65 2.9 -47.05 2.8 -47.25 Q3.7 -48.05 4.65 -48.2 L6.3 -48.35 7.15 -48.15 7.9 -47.8 9.2 -47.05 8.9 -48.4 8.1 -50.3 7.45 -50.45 6.25 -50.6 Q4.6 -50.6 3.1 -49.95 L2.95 -49.85 2.9 -49.8 2.75 -49.7 2.55 -49.65 2.4 -49.7 2.55 -49.95 3.0 -50.35 3.6 -50.55 4.2 -50.75 5.35 -51.05 7.45 -50.85 7.6 -50.85 7.4 -51.35 6.25 -53.05 M6.6 -47.85 L7.15 -47.5 8.2 -46.65 9.85 -44.75 9.3 -46.8 6.6 -47.85 M5.2 -46.8 L4.95 -45.05 6.75 -45.0 6.75 -46.3 5.4 -46.95 5.2 -46.8 M6.8 -43.5 Q6.8 -44.3 6.2 -44.55 6.45 -43.65 6.2 -42.8 6.05 -42.4 5.6 -42.45 L5.55 -42.7 Q5.4 -43.6 5.65 -44.55 4.75 -44.25 4.75 -43.15 L5.0 -41.3 5.35 -41.15 Q5.45 -41.05 5.65 -41.05 L6.0 -41.05 Q6.8 -42.2 6.8 -43.5 M2.3 -38.1 L1.65 -38.65 -1.55 -38.65 -2.25 -38.05 Q-2.25 -36.4 -0.95 -35.45 -0.2 -34.85 0.65 -35.25 2.35 -36.15 2.3 -38.1 M2.45 -38.85 L2.6 -38.65 2.4 -36.65 Q1.85 -34.85 0.0 -34.8 -1.5 -34.8 -2.1 -36.3 -2.7 -37.7 -2.35 -38.85 L2.45 -38.85 M8.65 -35.8 L8.5 -35.8 8.3 -35.95 8.25 -36.0 6.4 -35.4 Q5.9 -33.6 4.5 -32.3 L3.15 -31.25 3.85 -30.7 2.7 -28.95 2.45 -29.15 2.2 -29.15 1.8 -29.4 2.1 -28.4 Q0.05 -27.8 -2.0 -28.4 L-1.75 -29.4 -2.1 -29.15 -2.35 -29.2 -2.6 -28.95 -3.8 -30.7 -3.1 -31.25 Q-5.4 -32.8 -6.35 -35.25 L-8.15 -36.05 -8.3 -35.75 -8.55 -35.8 -8.85 -35.7 -8.35 -34.35 -8.0 -35.1 Q-7.8 -34.95 -8.05 -34.15 L-8.65 -32.2 -8.7 -30.35 -8.45 -29.85 -8.2 -29.5 Q-7.2 -28.15 -5.4 -27.95 L-5.3 -27.95 -3.4 -27.6 -2.4 -27.45 Q0.4 -27.05 3.15 -27.45 L4.75 -27.75 5.4 -27.8 Q6.9 -28.05 7.95 -29.05 L8.35 -29.45 Q8.7 -29.65 8.7 -30.15 L8.75 -30.5 8.75 -30.65 8.75 -30.9 8.75 -30.95 8.1 -34.7 8.1 -35.1 8.45 -34.35 8.85 -35.6 8.65 -35.8 M9.1 -35.4 L8.7 -33.55 Q9.35 -31.75 9.0 -29.9 L8.95 -29.6 8.85 -29.65 Q8.6 -28.95 7.85 -28.5 L7.7 -28.4 9.6 -28.35 10.5 -28.55 10.55 -28.5 10.7 -28.55 11.6 -30.95 11.75 -30.5 11.55 -29.4 11.3 -28.85 Q12.5 -29.25 13.0 -30.35 L13.25 -31.2 Q13.5 -32.2 13.1 -33.15 12.5 -34.55 11.5 -35.25 L11.05 -35.5 9.4 -35.55 9.1 -35.4 M6.25 -35.35 L5.35 -34.7 Q3.55 -33.1 1.2 -32.45 L2.8 -31.45 Q5.05 -32.9 6.25 -35.35 M0.1 -32.25 L-0.5 -32.4 -0.85 -32.25 -0.3 -31.05 0.35 -31.05 0.95 -32.25 0.7 -32.35 0.1 -32.25 M2.8 -29.95 L3.5 -30.8 3.05 -31.2 2.8 -31.05 1.15 -32.15 0.95 -31.6 0.75 -31.3 0.5 -30.9 1.1 -30.35 0.5 -30.75 0.0 -29.85 -0.2 -30.65 -0.85 -30.45 -0.4 -30.9 -0.55 -31.15 -0.6 -31.3 -1.05 -32.15 -2.7 -31.15 -3.0 -31.2 -3.4 -30.8 -2.6 -29.7 -2.55 -29.65 -2.35 -29.35 -1.4 -30.1 -1.5 -29.4 -1.55 -28.75 -0.2 -28.5 0.05 -28.75 0.25 -28.55 1.65 -28.75 1.55 -29.4 1.45 -30.1 2.4 -29.4 2.8 -29.95 M4.15 -34.0 L5.0 -34.65 Q2.0 -33.4 -1.25 -33.8 -3.2 -34.05 -4.9 -34.6 -4.25 -34.0 -3.25 -33.6 L-3.1 -33.5 Q-1.45 -32.6 0.45 -32.7 2.15 -32.8 3.5 -33.65 L4.15 -34.0 M-1.2 -25.6 L1.55 -25.55 2.95 -25.7 3.75 -25.85 6.05 -26.6 6.25 -27.8 6.3 -27.85 4.35 -27.4 3.2 -27.25 3.2 -27.2 Q-0.05 -26.7 -3.25 -27.25 L-5.05 -27.65 -5.2 -27.7 -5.3 -27.7 -6.35 -27.9 -6.3 -27.8 -6.15 -26.95 -3.7 -26.0 -1.7 -25.65 -6.55 -26.05 -8.4 -24.2 Q-9.45 -22.75 -10.0 -21.2 L-10.3 -20.2 -10.35 -19.95 -11.0 -17.6 -11.4 -16.3 Q-12.05 -14.8 -12.3 -13.3 L-12.35 -12.6 Q-10.8 -10.45 -8.0 -9.9 L-6.45 -9.5 Q-2.9 -8.5 0.85 -8.7 L5.5 -9.25 Q8.1 -9.9 10.55 -10.9 11.8 -11.45 12.4 -12.6 L12.35 -13.85 Q11.1 -17.0 10.25 -20.2 L10.2 -20.45 10.2 -20.55 9.65 -22.0 8.95 -23.5 Q8.45 -24.6 7.55 -25.35 L6.2 -26.25 4.55 -25.8 3.7 -25.7 3.5 -25.65 0.85 -25.4 -1.2 -25.6 M9.05 -27.6 Q9.05 -27.3 9.5 -27.05 L10.5 -26.85 10.85 -26.95 11.55 -27.25 11.6 -27.15 13.0 -28.55 12.9 -28.85 12.95 -29.1 Q12.4 -29.4 11.95 -28.65 L10.8 -28.25 9.0 -27.65 9.05 -27.6 M9.85 -26.25 L9.9 -26.05 11.7 -23.55 12.2 -23.0 12.9 -22.15 14.45 -20.55 15.3 -19.1 16.1 -19.2 16.0 -20.55 Q16.85 -20.15 17.8 -19.95 L19.25 -20.1 19.7 -20.4 19.7 -20.75 19.55 -21.0 18.45 -21.8 18.05 -22.05 Q15.05 -24.2 13.3 -27.4 L13.05 -27.6 Q12.65 -27.45 12.35 -27.1 L11.9 -26.7 11.85 -26.75 11.15 -26.45 11.0 -26.45 9.85 -26.25 M6.2 -8.85 Q5.85 -7.65 4.85 -7.1 L4.55 -7.0 0.55 -6.7 0.4 -4.75 0.75 -4.3 Q2.8 -3.35 4.45 -5.0 6.05 -6.6 6.6 -8.8 L6.2 -8.85 M1.85 -7.25 L3.65 -7.35 Q5.25 -7.25 5.75 -8.8 L0.5 -8.15 0.6 -7.2 1.85 -7.25 M-4.9 -46.85 L-5.35 -46.95 -6.65 -46.3 -6.6 -44.95 -4.85 -45.05 -4.9 -46.85 M-9.55 -45.0 L-8.9 -45.85 -8.2 -46.6 -6.55 -47.85 -9.25 -46.75 -9.55 -45.0 M-6.4 -44.15 L-6.6 -43.1 Q-6.65 -42.05 -6.1 -41.5 L-5.65 -41.15 -5.25 -41.4 -5.1 -41.45 -5.1 -41.5 -4.85 -41.7 Q-4.55 -43.0 -5.1 -44.3 L-5.2 -44.4 Q-5.6 -44.05 -5.35 -42.85 L-5.35 -42.65 Q-5.85 -42.3 -6.0 -42.9 -6.25 -43.7 -6.1 -44.6 L-6.15 -44.6 -6.4 -44.15 M-8.9 -37.8 L-8.85 -37.75 -8.9 -37.8 M-11.35 -35.3 L-11.4 -35.25 Q-13.4 -33.95 -13.2 -31.6 L-13.15 -31.2 Q-13.0 -29.4 -11.2 -28.85 L-11.55 -31.0 -10.6 -28.55 -10.55 -28.55 -9.65 -28.35 -7.7 -28.4 -8.05 -28.8 -8.8 -29.6 -8.85 -29.7 -9.0 -30.15 Q-9.2 -31.9 -8.65 -33.55 L-9.05 -35.4 -9.2 -35.6 -10.95 -35.5 -11.35 -35.3 M-12.9 -28.55 Q-12.45 -27.75 -11.6 -27.25 L-10.85 -26.95 -9.9 -26.8 -9.85 -26.8 -9.4 -27.2 -9.05 -27.65 -11.9 -28.65 -12.75 -29.2 -12.8 -28.85 -12.9 -28.55 M-12.95 -27.6 L-13.2 -27.4 Q-15.0 -24.2 -17.95 -22.05 L-18.6 -21.7 Q-19.55 -21.35 -19.65 -20.5 L-19.6 -20.4 Q-19.0 -19.8 -18.05 -19.95 -16.95 -20.1 -15.95 -20.55 L-16.0 -19.2 -15.2 -19.1 -13.95 -21.2 -12.55 -22.6 -10.75 -24.9 -10.0 -25.85 -9.85 -26.0 -9.85 -26.25 -10.1 -26.3 -11.2 -26.45 -11.9 -26.75 -12.3 -27.1 -12.95 -27.6 M-1.15 -32.45 Q-3.5 -33.05 -5.25 -34.75 L-5.3 -34.9 -5.35 -34.95 -6.15 -35.35 Q-5.0 -32.9 -2.7 -31.45 L-1.15 -32.45 M-0.5 -7.2 L-0.35 -8.15 -5.7 -8.8 Q-5.2 -7.25 -3.6 -7.35 L-1.75 -7.25 -0.5 -7.2 M-0.5 -6.7 L-3.55 -6.95 -4.6 -7.1 Q-5.8 -7.45 -6.1 -8.8 L-6.5 -8.8 Q-6.05 -6.8 -4.65 -5.2 -2.95 -3.35 -0.7 -4.25 L-0.35 -4.65 -0.5 -6.7" fill="#000000" fill-rule="evenodd" stroke="none"/>
    <path d="M6.25 -53.05 L5.1 -53.25 4.25 -53.35 3.05 -53.5 1.1 -53.55 -0.7 -53.55 -1.85 -53.5 -3.05 -53.4 -4.2 -53.25 -5.4 -53.15 -6.2 -53.0 -5.85 -53.5 -2.5 -53.8 -3.85 -55.0 -2.0 -53.8 -0.9 -53.8 -0.85 -54.4 -1.35 -55.1 -0.05 -53.95 0.05 -53.95 0.1 -53.95 0.15 -53.9 0.25 -54.0 1.4 -55.1 0.9 -54.35 1.0 -53.8 5.9 -53.5 6.25 -53.05 M6.6 -47.85 L9.3 -46.8 9.85 -44.75 8.2 -46.65 7.15 -47.5 6.6 -47.85 M4.15 -34.0 L3.5 -33.65 Q2.15 -32.8 0.45 -32.7 -1.45 -32.6 -3.1 -33.5 L-3.25 -33.6 Q-4.25 -34.0 -4.9 -34.6 -3.2 -34.05 -1.25 -33.8 2.0 -33.4 5.0 -34.65 L4.15 -34.0 M1.85 -7.25 L0.6 -7.2 0.5 -8.15 5.75 -8.8 Q5.25 -7.25 3.65 -7.35 L1.85 -7.25 M-9.55 -45.0 L-9.25 -46.75 -6.55 -47.85 -8.2 -46.6 -8.9 -45.85 -9.55 -45.0 M-0.5 -7.2 L-1.75 -7.25 -3.6 -7.35 Q-5.2 -7.25 -5.7 -8.8 L-0.35 -8.15 -0.5 -7.2" fill="#edb192" fill-rule="evenodd" stroke="none"/>
    <path d="M-6.2 -53.0 L-5.4 -53.15 -4.2 -53.25 -3.05 -53.4 -1.85 -53.5 -0.7 -53.55 1.1 -53.55 3.05 -53.5 4.25 -53.35 5.1 -53.25 6.25 -53.05 7.4 -51.35 7.6 -50.85 7.45 -50.85 5.35 -51.05 4.2 -50.75 3.6 -50.55 3.0 -50.35 2.55 -49.95 2.4 -49.7 2.55 -49.65 2.75 -49.7 2.9 -49.8 2.95 -49.85 3.1 -49.95 Q4.6 -50.6 6.25 -50.6 L7.45 -50.45 8.1 -50.3 8.9 -48.4 9.2 -47.05 7.9 -47.8 7.15 -48.15 6.3 -48.35 4.65 -48.2 Q3.7 -48.05 2.8 -47.25 L2.9 -47.05 3.4 -46.65 3.55 -46.55 3.45 -45.25 3.4 -43.8 3.5 -42.6 3.8 -41.4 Q3.95 -40.95 4.5 -41.0 L6.75 -40.9 Q7.25 -41.1 7.75 -41.4 L9.05 -42.25 9.65 -42.65 9.95 -42.6 10.1 -42.0 9.9 -40.7 Q9.9 -41.2 9.4 -41.5 L9.35 -41.55 8.8 -41.75 7.55 -41.1 Q6.45 -40.85 6.5 -40.3 L6.95 -39.85 Q7.45 -39.55 8.15 -39.55 8.85 -39.55 9.4 -39.85 L9.85 -40.35 9.25 -38.35 8.95 -37.8 8.8 -37.55 8.25 -36.95 Q5.65 -35.35 2.7 -34.45 -1.1 -33.3 -4.7 -35.1 L-6.9 -36.1 Q-7.85 -36.5 -8.45 -37.25 L-8.9 -37.8 -8.9 -37.85 -9.15 -38.55 -9.65 -40.05 -10.0 -42.75 -9.6 -42.6 -9.0 -42.3 -7.5 -41.45 -6.65 -40.9 Q-5.9 -40.5 -5.15 -40.65 L-4.45 -40.9 Q-3.5 -41.2 -3.4 -42.2 L-3.3 -44.1 -3.35 -46.0 -3.4 -46.6 -3.25 -46.6 -2.8 -47.05 Q-3.45 -47.95 -4.7 -48.3 L-6.5 -47.95 -8.35 -47.4 -9.2 -46.9 -8.25 -50.0 -5.1 -50.2 -3.8 -49.8 -3.15 -49.6 Q-3.2 -50.05 -3.95 -50.25 L-5.35 -50.55 -6.85 -50.7 -7.9 -50.7 -6.2 -53.0 M2.45 -38.85 L-2.35 -38.85 Q-2.7 -37.7 -2.1 -36.3 -1.5 -34.8 0.0 -34.8 1.85 -34.85 2.4 -36.65 L2.6 -38.65 2.45 -38.85 M9.85 -26.25 L11.0 -26.45 11.15 -26.45 11.85 -26.75 11.9 -26.7 12.35 -27.1 Q12.65 -27.45 13.05 -27.6 L13.3 -27.4 Q15.05 -24.2 18.05 -22.05 L18.45 -21.8 19.55 -21.0 19.7 -20.75 19.7 -20.4 19.25 -20.1 17.8 -19.95 Q16.85 -20.15 16.0 -20.55 L16.1 -19.2 15.3 -19.1 14.45 -20.55 12.9 -22.15 12.2 -23.0 11.7 -23.55 9.9 -26.05 9.85 -26.25 M-8.35 -41.3 Q-9.3 -41.2 -9.6 -40.35 L-9.45 -39.95 Q-8.95 -39.7 -8.35 -39.6 L-6.95 -39.4 Q-5.8 -39.55 -5.85 -40.6 L-8.35 -41.3 M-12.95 -27.6 L-12.3 -27.1 -11.9 -26.75 -11.2 -26.45 -10.1 -26.3 -9.85 -26.25 -9.85 -26.0 -10.0 -25.85 -10.75 -24.9 -12.55 -22.6 -13.95 -21.2 -15.2 -19.1 -16.0 -19.2 -15.95 -20.55 Q-16.95 -20.1 -18.05 -19.95 -19.0 -19.8 -19.6 -20.4 L-19.65 -20.5 Q-19.55 -21.35 -18.6 -21.7 L-17.95 -22.05 Q-15.0 -24.2 -13.2 -27.4 L-12.95 -27.6" fill="#ffe3d5" fill-rule="evenodd" stroke="none"/>
    <path d="M-3.4 -46.6 L-3.35 -46.0 -3.3 -44.1 -3.4 -42.2 Q-3.5 -41.2 -4.45 -40.9 L-4.4 -41.1 -4.25 -41.35 -4.4 -46.8 -3.4 -46.6 M-6.65 -40.9 L-7.5 -41.45 -9.0 -42.3 Q-8.9 -42.8 -9.3 -43.0 -9.1 -45.1 -7.5 -46.25 L-7.4 -46.15 -6.85 -42.55 -6.65 -40.9 M9.05 -42.25 L7.75 -41.4 Q7.25 -41.1 6.75 -40.9 L6.8 -41.1 6.8 -41.2 6.9 -41.75 7.0 -42.05 Q7.5 -43.55 7.55 -45.1 L7.65 -46.15 Q8.5 -45.7 8.8 -44.9 L9.2 -43.6 Q9.4 -42.9 9.05 -42.25 M4.5 -41.0 Q3.95 -40.95 3.8 -41.4 L3.5 -42.6 3.4 -43.8 3.45 -45.25 3.55 -46.55 4.45 -46.65 Q4.4 -44.0 4.6 -41.35 L4.5 -41.0 M5.2 -46.8 L5.4 -46.95 6.75 -46.3 6.75 -45.0 4.95 -45.05 5.2 -46.8 M9.1 -35.4 L9.4 -35.55 11.05 -35.5 11.5 -35.25 Q12.5 -34.55 13.1 -33.15 13.5 -32.2 13.25 -31.2 L13.0 -30.35 Q12.5 -29.25 11.3 -28.85 L11.55 -29.4 11.75 -30.5 11.6 -30.95 10.7 -28.55 10.55 -28.5 10.5 -28.55 9.6 -28.35 7.7 -28.4 7.85 -28.5 Q8.6 -28.95 8.85 -29.65 L8.95 -29.6 9.0 -29.9 Q9.35 -31.75 8.7 -33.55 L9.1 -35.4 M6.25 -35.35 Q5.05 -32.9 2.8 -31.45 L1.2 -32.45 Q3.55 -33.1 5.35 -34.7 L6.25 -35.35 M-1.7 -25.65 L-3.7 -26.0 -6.15 -26.95 -6.3 -27.8 -6.35 -27.9 -5.3 -27.7 -5.2 -27.7 -5.05 -27.65 -3.25 -27.25 Q-0.05 -26.7 3.2 -27.2 L3.2 -27.25 4.35 -27.4 6.3 -27.85 6.25 -27.8 6.05 -26.6 3.75 -25.85 2.95 -25.7 1.55 -25.55 -1.2 -25.6 -1.45 -25.6 -1.7 -25.65 M9.05 -27.6 L9.0 -27.65 10.8 -28.25 11.95 -28.65 Q12.4 -29.4 12.95 -29.1 L12.9 -28.85 13.0 -28.55 11.6 -27.15 11.55 -27.25 10.85 -26.95 10.5 -26.85 9.5 -27.05 Q9.05 -27.3 9.05 -27.6 M-4.9 -46.85 L-4.85 -45.05 -6.6 -44.95 -6.65 -46.3 -5.35 -46.95 -4.9 -46.85 M-11.35 -35.3 L-10.95 -35.5 -9.2 -35.6 -9.05 -35.4 -8.65 -33.55 Q-9.2 -31.9 -9.0 -30.15 L-8.85 -29.7 -8.8 -29.6 -8.05 -28.8 -7.7 -28.4 -9.65 -28.35 -10.55 -28.55 -10.6 -28.55 -11.55 -31.0 -11.2 -28.85 Q-13.0 -29.4 -13.15 -31.2 L-13.2 -31.6 Q-13.4 -33.95 -11.4 -35.25 L-11.35 -35.3 M-12.9 -28.55 L-12.8 -28.85 -12.75 -29.2 -11.9 -28.65 -9.05 -27.65 -9.4 -27.2 -9.85 -26.8 -9.9 -26.8 -10.85 -26.95 -11.6 -27.25 Q-12.45 -27.75 -12.9 -28.55 M-1.15 -32.45 L-2.7 -31.45 Q-5.0 -32.9 -6.15 -35.35 L-5.35 -34.95 -5.3 -34.9 -5.25 -34.75 Q-3.5 -33.05 -1.15 -32.45" fill="#ffffff" fill-rule="evenodd" stroke="none"/>
    <path d="M6.8 -43.5 Q6.8 -42.2 6.0 -41.05 L5.65 -41.05 Q5.45 -41.05 5.35 -41.15 L5.0 -41.3 4.75 -43.15 Q4.75 -44.25 5.65 -44.55 5.4 -43.6 5.55 -42.7 L5.6 -42.45 Q6.05 -42.4 6.2 -42.8 6.45 -43.65 6.2 -44.55 6.8 -44.3 6.8 -43.5 M-6.4 -44.15 L-6.15 -44.6 -6.1 -44.6 Q-6.25 -43.7 -6.0 -42.9 -5.85 -42.3 -5.35 -42.65 L-5.35 -42.85 Q-5.6 -44.05 -5.2 -44.4 L-5.1 -44.3 Q-4.55 -43.0 -4.85 -41.7 L-5.1 -41.5 -5.1 -41.45 -5.25 -41.4 -5.65 -41.15 -6.1 -41.5 Q-6.65 -42.05 -6.6 -43.1 L-6.4 -44.15" fill="#c68b51" fill-rule="evenodd" stroke="none"/>
    <path d="M2.3 -38.1 Q2.35 -36.15 0.65 -35.25 -0.2 -34.85 -0.95 -35.45 -2.25 -36.4 -2.25 -38.05 L-1.55 -38.65 1.65 -38.65 2.3 -38.1" fill="#cc0000" fill-rule="evenodd" stroke="none"/>
    <path d="M9.85 -40.35 L9.4 -39.85 Q8.85 -39.55 8.15 -39.55 7.45 -39.55 6.95 -39.85 L6.5 -40.3 Q6.45 -40.85 7.55 -41.1 L8.8 -41.75 9.35 -41.55 9.4 -41.5 Q9.9 -41.2 9.9 -40.7 L9.85 -40.35 M-8.35 -41.3 L-5.85 -40.6 Q-5.8 -39.55 -6.95 -39.4 L-8.35 -39.6 Q-8.95 -39.7 -9.45 -39.95 L-9.6 -40.35 Q-9.3 -41.2 -8.35 -41.3" fill="#ff99ff" fill-rule="evenodd" stroke="none"/>
    <path d="M8.65 -35.8 L8.85 -35.6 8.45 -34.35 8.1 -35.1 8.1 -34.7 8.75 -30.95 8.75 -30.9 8.75 -30.65 8.75 -30.5 8.7 -30.15 Q8.7 -29.65 8.35 -29.45 L7.95 -29.05 Q6.9 -28.05 5.4 -27.8 L4.75 -27.75 3.15 -27.45 Q0.4 -27.05 -2.4 -27.45 L-3.4 -27.6 -5.3 -27.95 -5.4 -27.95 Q-7.2 -28.15 -8.2 -29.5 L-8.45 -29.85 -8.7 -30.35 -8.65 -32.2 -8.05 -34.15 Q-7.8 -34.95 -8.0 -35.1 L-8.35 -34.35 -8.85 -35.7 -8.55 -35.8 -8.3 -35.75 -8.15 -36.05 -6.35 -35.25 Q-5.4 -32.8 -3.1 -31.25 L-3.8 -30.7 -2.6 -28.95 -2.35 -29.2 -2.1 -29.15 -1.75 -29.4 -2.0 -28.4 Q0.05 -27.8 2.1 -28.4 L1.8 -29.4 2.2 -29.15 2.45 -29.15 2.7 -28.95 3.85 -30.7 3.15 -31.25 4.5 -32.3 Q5.9 -33.6 6.4 -35.4 L8.25 -36.0 8.3 -35.95 8.5 -35.8 8.65 -35.8 M-1.2 -25.6 L0.85 -25.4 3.5 -25.65 3.7 -25.7 4.55 -25.8 6.2 -26.25 7.55 -25.35 Q8.45 -24.6 8.95 -23.5 L9.65 -22.0 10.2 -20.55 10.2 -20.45 10.25 -20.2 Q11.1 -17.0 12.35 -13.85 L12.4 -12.6 Q11.8 -11.45 10.55 -10.9 8.1 -9.9 5.5 -9.25 L0.85 -8.7 Q-2.9 -8.5 -6.45 -9.5 L-8.0 -9.9 Q-10.8 -10.45 -12.35 -12.6 L-12.3 -13.3 Q-12.05 -14.8 -11.4 -16.3 L-11.0 -17.6 -10.35 -19.95 -10.3 -20.2 -10.0 -21.2 Q-9.45 -22.75 -8.4 -24.2 L-6.55 -26.05 -1.7 -25.65 -1.45 -25.6 -1.2 -25.6" fill="#f89ec0" fill-rule="evenodd" stroke="none"/>
    <path d="M0.75 -31.3 L0.95 -31.6 1.15 -32.15 2.8 -31.05 3.05 -31.2 3.5 -30.8 2.8 -29.95 2.75 -30.0 2.0 -30.45 1.8 -30.6 1.1 -31.1 0.75 -31.3 M0.1 -32.25 L0.7 -32.35 0.95 -32.25 0.35 -31.05 -0.3 -31.05 -0.85 -32.25 -0.5 -32.4 0.1 -32.25 M1.55 -29.4 L1.65 -28.75 0.25 -28.55 0.05 -28.75 -0.2 -28.5 -1.55 -28.75 -1.5 -29.4 -1.35 -29.45 -1.0 -29.7 -0.4 -30.0 -0.1 -29.35 Q0.0 -29.2 0.15 -29.35 L0.6 -29.9 0.7 -29.8 1.5 -29.4 1.55 -29.4 M-2.6 -29.7 L-3.4 -30.8 -3.0 -31.2 -2.7 -31.15 -1.05 -32.15 -0.6 -31.3 -0.7 -31.2 -0.9 -31.05 -1.25 -30.8 -1.95 -30.25 -2.6 -29.7" fill="#c51b67" fill-rule="evenodd" stroke="none"/>
    <path d="M0.75 -31.3 L1.1 -31.1 1.8 -30.6 2.0 -30.45 2.75 -30.0 2.8 -29.95 2.4 -29.4 1.45 -30.1 1.55 -29.4 1.5 -29.4 0.7 -29.8 0.6 -29.9 0.15 -29.35 Q0.0 -29.2 -0.1 -29.35 L-0.4 -30.0 -1.0 -29.7 -1.35 -29.45 -1.5 -29.4 -1.4 -30.1 -2.35 -29.35 -2.55 -29.65 -2.6 -29.7 -1.95 -30.25 -1.25 -30.8 -0.9 -31.05 -0.7 -31.2 -0.6 -31.3 -0.55 -31.15 -0.4 -30.9 -0.85 -30.45 -0.2 -30.65 0.0 -29.85 0.5 -30.75 1.1 -30.35 0.5 -30.9 0.75 -31.3 M6.2 -8.85 L6.6 -8.8 Q6.05 -6.6 4.45 -5.0 2.8 -3.35 0.75 -4.3 L0.4 -4.75 0.55 -6.7 4.55 -7.0 4.85 -7.1 Q5.85 -7.65 6.2 -8.85 M-0.5 -6.7 L-0.35 -4.65 -0.7 -4.25 Q-2.95 -3.35 -4.65 -5.2 -6.05 -6.8 -6.5 -8.8 L-6.1 -8.8 Q-5.8 -7.45 -4.6 -7.1 L-3.55 -6.95 -0.5 -6.7" fill="#600d33" fill-rule="evenodd" stroke="none"/>
  </g>
</svg>
