<?xml version="1.0" encoding="UTF-8" standalone="no"?>
<svg xmlns:ffdec="https://www.free-decompiler.com/flash" xmlns:xlink="http://www.w3.org/1999/xlink" ffdec:objectType="shape" height="50.95px" width="33.9px" xmlns="http://www.w3.org/2000/svg">
  <g transform="matrix(1.0, 0.0, 0.0, 1.0, 16.9, 52.3)">
    <path d="M11.6 -37.05 Q11.3 -35.6 10.5 -35.05 L9.05 -34.15 Q8.7 -29.85 9.15 -25.7 L9.45 -24.8 8.95 -23.85 11.3 -21.7 10.3 -19.55 Q12.75 -18.65 14.1 -16.25 15.3 -14.25 15.0 -11.85 16.1 -10.55 16.75 -8.85 17.35 -7.15 16.5 -5.8 15.1 -3.65 12.55 -3.05 4.3 -0.7 -4.45 -1.6 -10.4 -1.55 -15.15 -4.7 L-16.4 -5.8 Q-17.05 -6.9 -16.85 -8.2 -16.55 -10.0 -15.45 -11.2 L-15.1 -11.7 -14.95 -11.8 Q-15.2 -15.3 -12.8 -17.7 -11.7 -18.85 -10.25 -19.55 L-11.25 -21.7 -8.9 -23.85 -9.4 -24.8 Q-8.85 -25.4 -8.85 -25.95 L-8.9 -32.8 -8.95 -33.9 Q-10.3 -34.85 -11.15 -36.05 L-11.5 -36.9 Q-11.95 -44.4 -6.6 -49.65 -5.25 -50.95 -3.5 -51.75 -1.75 -52.5 0.05 -52.2 L3.5 -51.65 Q7.1 -50.25 9.2 -46.7 10.6 -44.45 11.1 -41.95 L11.65 -37.45 11.6 -37.05 M3.05 -49.5 L3.65 -49.4 3.85 -49.15 3.85 -48.6 3.3 -47.85 2.65 -48.3 2.65 -49.15 3.05 -49.5 M10.3 -42.55 L9.6 -44.25 Q8.5 -47.2 6.0 -49.3 3.6 -51.45 0.45 -51.65 -5.1 -51.7 -8.2 -47.0 -9.55 -44.85 -10.2 -42.55 L-11.1 -38.1 Q-11.05 -36.8 -10.25 -35.95 L-9.75 -35.35 Q-8.15 -35.05 -6.8 -36.2 L-3.25 -38.95 Q-1.85 -39.9 -0.45 -40.45 L-1.5 -39.45 -1.1 -38.7 -0.95 -33.4 -1.25 -35.25 -1.4 -37.0 -1.95 -37.25 Q-4.5 -36.95 -6.3 -34.95 L-7.85 -33.75 -8.15 -31.15 -8.0 -25.55 -8.5 -25.05 -8.0 -23.25 -10.05 -21.65 -9.6 -19.7 -7.05 -19.65 -7.55 -19.9 -5.3 -20.35 -6.85 -21.15 0.05 -18.2 6.95 -21.15 4.5 -19.9 5.95 -20.0 2.7 -18.9 1.15 -17.7 Q0.0 -15.55 0.4 -13.1 L0.65 -10.75 Q0.7 -9.7 1.7 -9.4 7.35 -7.35 12.65 -10.15 L14.05 -11.05 14.15 -11.05 14.35 -12.4 Q14.55 -14.8 13.0 -16.9 11.8 -18.55 9.75 -19.0 L7.6 -19.4 9.45 -19.55 Q9.9 -19.8 10.1 -20.65 10.3 -21.35 9.9 -21.85 L9.5 -22.3 8.1 -23.25 8.55 -25.05 8.1 -25.55 8.2 -30.8 8.15 -33.4 Q5.7 -35.8 2.75 -37.15 L1.8 -37.25 1.35 -35.2 1.05 -33.35 1.15 -38.65 1.55 -39.45 0.75 -40.2 1.35 -40.15 2.4 -39.45 Q5.55 -37.05 9.05 -35.6 L9.85 -35.4 11.1 -37.35 10.3 -42.55 M-3.65 -49.4 L-3.1 -49.55 -2.55 -48.3 -3.2 -47.85 -3.8 -48.35 -3.65 -49.4 M-1.8 -41.95 Q-3.7 -42.0 -4.3 -43.6 L-3.95 -44.4 Q-3.15 -45.05 -2.25 -44.7 L1.3 -44.6 3.7 -44.65 Q4.75 -44.1 4.2 -42.95 L2.25 -41.9 -1.8 -41.95 M3.7 -43.8 L3.55 -43.95 0.2 -43.75 -2.55 -44.1 Q-3.85 -44.4 -3.55 -43.25 L-3.25 -43.0 Q-1.55 -42.15 0.05 -42.3 1.75 -42.0 3.4 -43.0 L3.7 -43.8 M-6.15 -23.35 L-6.2 -23.45 Q-3.15 -22.2 0.05 -21.55 L3.65 -22.45 2.7 -22.05 -0.15 -21.35 -1.3 -21.75 -5.1 -22.95 -6.15 -23.35 M5.2 -23.0 L6.15 -23.35 6.0 -23.25 5.2 -23.0 M-14.65 -10.6 Q-15.4 -10.6 -16.0 -9.15 L-16.15 -8.75 Q-15.45 -5.75 -12.65 -4.75 -6.35 -2.55 0.05 -3.15 L0.95 -3.05 Q6.2 -2.85 11.4 -4.25 13.55 -4.75 15.1 -6.3 16.45 -7.6 16.0 -9.1 15.7 -10.2 14.8 -10.85 L14.6 -10.25 Q13.35 -8.5 11.55 -7.3 10.5 -6.7 9.25 -6.35 3.9 -5.1 -1.7 -5.35 L-7.3 -5.95 Q-12.25 -6.4 -14.65 -10.6 M-0.8 -17.25 Q-2.4 -19.6 -5.3 -19.65 L-6.15 -19.65 -4.4 -19.3 -5.85 -19.45 Q-10.25 -19.8 -13.05 -16.8 L-13.15 -16.65 Q-14.0 -15.4 -14.25 -13.8 L-14.1 -11.2 -14.05 -11.1 Q-9.5 -7.85 -3.85 -8.6 -2.0 -8.85 -0.85 -10.05 -0.55 -10.45 -0.55 -10.9 L-0.4 -15.85 Q-0.4 -16.85 -0.8 -17.25" fill="#000000" fill-rule="evenodd" stroke="none"/>
    <path d="M3.05 -49.5 L2.2 -49.8 -3.1 -49.55 -3.65 -49.4 -4.85 -48.75 Q-8.25 -46.4 -10.2 -42.55 -9.55 -44.85 -8.2 -47.0 -5.1 -51.7 0.45 -51.65 3.6 -51.45 6.0 -49.3 8.5 -47.2 9.6 -44.25 L10.3 -42.55 8.85 -44.85 8.3 -43.5 Q7.3 -42.9 6.4 -43.5 4.85 -44.6 5.25 -46.45 L5.9 -47.15 6.85 -47.15 3.85 -49.15 3.65 -49.4 3.05 -49.5" fill="#cccccc" fill-rule="evenodd" stroke="none"/>
    <path d="M-3.1 -49.55 L2.2 -49.8 3.05 -49.5 2.65 -49.15 2.65 -48.3 3.3 -47.85 3.85 -48.6 3.85 -49.15 6.85 -47.15 5.9 -47.15 5.25 -46.45 Q4.85 -44.6 6.4 -43.5 7.3 -42.9 8.3 -43.5 L8.85 -44.85 10.3 -42.55 11.1 -37.35 Q8.7 -37.35 6.75 -38.95 4.6 -40.65 2.25 -41.9 L4.2 -42.95 Q4.75 -44.1 3.7 -44.65 L1.3 -44.6 -2.25 -44.7 Q-3.15 -45.05 -3.95 -44.4 L-4.3 -43.6 Q-3.7 -42.0 -1.8 -41.95 L-10.0 -37.55 -11.1 -38.1 -10.2 -42.55 Q-8.25 -46.4 -4.85 -48.75 L-3.65 -49.4 -3.8 -48.35 -3.2 -47.85 -2.55 -48.3 -3.1 -49.55 M1.15 -38.65 L1.05 -33.35 1.35 -35.2 1.85 -35.4 Q3.1 -35.05 4.25 -34.35 6.65 -33.0 8.2 -30.8 L8.1 -25.55 8.55 -25.05 8.1 -23.25 9.5 -22.3 Q4.8 -21.9 0.75 -20.05 L-0.15 -20.15 Q-4.15 -21.4 -8.15 -22.0 L-10.05 -21.65 -8.0 -23.25 -8.5 -25.05 -8.0 -25.55 -8.15 -31.15 Q-5.65 -33.6 -2.7 -35.2 L-1.6 -35.6 -1.25 -35.25 -0.95 -33.4 -1.1 -38.7 0.5 -39.4 1.15 -38.65 M7.6 -19.4 L9.75 -19.0 Q11.8 -18.55 13.0 -16.9 14.55 -14.8 14.35 -12.4 10.05 -10.8 5.55 -12.3 3.4 -13.05 2.2 -14.75 1.2 -16.25 1.15 -17.7 L2.7 -18.9 5.6 -19.45 7.6 -19.4 M7.15 -40.9 L7.2 -40.85 Q7.75 -41.15 7.15 -40.9 M4.6 -31.4 L4.2 -31.25 4.05 -30.9 Q4.05 -30.7 4.2 -30.55 4.35 -30.4 4.6 -30.4 4.85 -30.4 5.0 -30.55 L5.15 -30.9 5.0 -31.25 4.6 -31.4 M0.05 -27.7 L-0.2 -27.8 -0.45 -27.7 -0.55 -27.45 -0.45 -27.2 -0.2 -27.1 Q-0.05 -27.1 0.05 -27.2 L0.15 -27.45 0.05 -27.7 M4.2 -26.8 L4.3 -26.6 4.5 -26.5 4.7 -26.6 4.8 -26.8 4.7 -27.0 4.5 -27.1 4.3 -27.0 4.2 -26.8 M7.0 -26.05 L6.9 -25.8 7.0 -25.55 7.25 -25.45 7.5 -25.55 7.6 -25.8 7.5 -26.05 7.25 -26.15 7.0 -26.05 M11.4 -16.95 L11.6 -16.85 11.8 -16.95 11.9 -17.15 11.8 -17.35 11.6 -17.45 11.4 -17.35 11.3 -17.15 11.4 -16.95 M13.35 -12.95 Q13.5 -12.8 13.45 -13.15 12.95 -13.4 13.35 -12.95 M6.0 -23.25 L7.05 -23.3 7.15 -23.95 Q6.6 -24.4 5.85 -24.45 L0.4 -23.45 -1.75 -23.55 -4.65 -24.25 -6.9 -24.35 -7.3 -23.95 -7.0 -23.4 -6.15 -23.35 -5.1 -22.95 -1.3 -21.75 -0.15 -21.35 2.7 -22.05 3.65 -22.45 4.85 -22.85 5.2 -23.0 6.0 -23.25 M4.7 -16.1 L4.4 -15.95 4.25 -15.6 4.4 -15.25 Q4.5 -15.1 4.7 -15.1 4.9 -15.1 5.05 -15.25 L5.15 -15.6 5.05 -15.95 4.7 -16.1 M7.05 -17.95 L7.15 -18.2 7.05 -18.45 6.8 -18.55 6.55 -18.45 6.45 -18.2 6.55 -17.95 6.8 -17.85 7.05 -17.95 M9.9 -14.55 Q10.15 -14.4 10.0 -14.65 9.35 -14.85 9.9 -14.55 M14.6 -10.25 L14.8 -10.85 Q15.7 -10.2 16.0 -9.1 16.45 -7.6 15.1 -6.3 13.55 -4.75 11.4 -4.25 6.2 -2.85 0.95 -3.05 L0.05 -3.15 Q-6.35 -2.55 -12.65 -4.75 -15.45 -5.75 -16.15 -8.75 L-16.0 -9.15 Q-15.4 -10.6 -14.65 -10.6 -15.05 -8.15 -13.15 -6.35 -11.7 -5.0 -9.9 -4.45 -5.4 -3.2 -1.0 -3.2 L6.75 -3.95 Q10.3 -4.35 13.05 -6.35 14.2 -7.2 14.6 -8.7 L14.9 -9.65 Q15.1 -10.2 14.6 -10.25 M-6.15 -45.8 L-6.15 -45.25 -5.7 -45.25 -5.7 -45.8 -6.15 -45.8 M-6.0 -41.5 L-6.35 -41.35 -6.5 -41.0 -6.35 -40.65 Q-6.2 -40.5 -6.0 -40.5 -5.8 -40.5 -5.65 -40.65 -5.5 -40.8 -5.5 -41.0 L-5.65 -41.35 -6.0 -41.5 M-8.85 -41.3 L-8.6 -41.3 -8.6 -41.55 -8.85 -41.55 -8.85 -41.3 M-2.75 -33.55 L-2.95 -33.45 -3.05 -33.25 -2.95 -33.05 Q-2.85 -32.95 -2.75 -32.95 -2.65 -32.95 -2.55 -33.05 L-2.45 -33.25 -2.55 -33.45 -2.75 -33.55 M-4.4 -30.55 L-4.75 -30.4 -4.9 -30.0 -4.75 -29.6 -4.4 -29.45 Q-4.2 -29.45 -4.05 -29.6 -3.9 -29.75 -3.9 -30.0 L-4.05 -30.4 -4.4 -30.55 M-14.25 -13.8 Q-14.0 -15.4 -13.15 -16.65 L-13.05 -16.8 Q-10.25 -19.8 -5.85 -19.45 L-4.4 -19.3 -6.15 -19.65 -5.3 -19.65 Q-2.4 -19.6 -0.8 -17.25 -1.75 -13.25 -5.65 -12.05 L-11.8 -12.2 Q-13.25 -12.7 -14.25 -13.8 M-6.8 -17.1 L-7.25 -17.1 -7.25 -16.65 -6.8 -16.65 -6.8 -17.1 M-8.85 -18.05 L-9.1 -18.2 -9.35 -18.05 -9.45 -17.8 -9.35 -17.5 -9.1 -17.4 Q-8.95 -17.4 -8.85 -17.5 L-8.75 -17.8 -8.85 -18.05 M-10.0 -13.4 L-10.0 -12.85 -9.6 -12.85 -9.6 -13.4 -10.0 -13.4 M-2.35 -17.9 Q-3.0 -18.15 -2.45 -17.65 L-2.35 -17.9 M-11.6 -16.0 L-11.55 -15.9 Q-10.95 -16.0 -11.6 -16.0" fill="#666666" fill-rule="evenodd" stroke="none"/>
    <path d="M11.65 -37.45 L11.7 -37.3 11.6 -37.05 11.65 -37.45 M11.1 -37.35 L9.85 -35.4 9.05 -35.6 Q5.55 -37.05 2.4 -39.45 L1.35 -40.15 0.75 -40.2 1.55 -39.45 1.15 -38.65 0.5 -39.4 -1.1 -38.7 -1.5 -39.45 -0.45 -40.45 Q-1.85 -39.9 -3.25 -38.95 L-6.8 -36.2 Q-8.15 -35.05 -9.75 -35.35 L-10.25 -35.95 Q-11.05 -36.8 -11.1 -38.1 L-10.0 -37.55 -1.8 -41.95 2.25 -41.9 Q4.6 -40.65 6.75 -38.95 8.7 -37.35 11.1 -37.35 M1.35 -35.2 L1.8 -37.25 2.75 -37.15 Q5.7 -35.8 8.15 -33.4 L8.2 -30.8 Q6.65 -33.0 4.25 -34.35 3.1 -35.05 1.85 -35.4 L1.35 -35.2 M9.5 -22.3 L9.9 -21.85 Q10.3 -21.35 10.1 -20.65 9.9 -19.8 9.45 -19.55 L7.6 -19.4 5.6 -19.45 2.7 -18.9 5.95 -20.0 4.5 -19.9 6.95 -21.15 0.05 -18.2 -6.85 -21.15 -5.3 -20.35 -7.55 -19.9 -7.05 -19.65 -9.6 -19.7 -10.05 -21.65 -8.15 -22.0 Q-4.15 -21.4 -0.15 -20.15 L0.75 -20.05 Q4.8 -21.9 9.5 -22.3 M14.35 -12.4 L14.15 -11.05 14.05 -11.05 12.65 -10.15 Q7.35 -7.35 1.7 -9.4 0.7 -9.7 0.65 -10.75 L0.4 -13.1 Q0.0 -15.55 1.15 -17.7 1.2 -16.25 2.2 -14.75 3.4 -13.05 5.55 -12.3 10.05 -10.8 14.35 -12.4 M-8.15 -31.15 L-7.85 -33.75 -6.3 -34.95 Q-4.5 -36.95 -1.95 -37.25 L-1.4 -37.0 -1.25 -35.25 -1.6 -35.6 -2.7 -35.2 Q-5.65 -33.6 -8.15 -31.15 M3.7 -43.8 L3.4 -43.0 Q1.75 -42.0 0.05 -42.3 -1.55 -42.15 -3.25 -43.0 L-3.55 -43.25 Q-3.85 -44.4 -2.55 -44.1 L0.2 -43.75 3.55 -43.95 3.7 -43.8 M4.6 -31.4 L5.0 -31.25 5.15 -30.9 5.0 -30.55 Q4.85 -30.4 4.6 -30.4 4.35 -30.4 4.2 -30.55 4.05 -30.7 4.05 -30.9 L4.2 -31.25 4.6 -31.4 M7.15 -40.9 Q7.75 -41.15 7.2 -40.85 L7.15 -40.9 M-6.15 -23.35 L-7.0 -23.4 -7.3 -23.95 -6.9 -24.35 -4.65 -24.25 -1.75 -23.55 0.4 -23.45 5.85 -24.45 Q6.6 -24.4 7.15 -23.95 L7.05 -23.3 6.0 -23.25 6.15 -23.35 5.2 -23.0 4.85 -22.85 3.65 -22.45 0.05 -21.55 Q-3.15 -22.2 -6.2 -23.45 L-6.15 -23.35 M13.35 -12.95 Q12.95 -13.4 13.45 -13.15 13.5 -12.8 13.35 -12.95 M11.4 -16.95 L11.3 -17.15 11.4 -17.35 11.6 -17.45 11.8 -17.35 11.9 -17.15 11.8 -16.95 11.6 -16.85 11.4 -16.95 M7.0 -26.05 L7.25 -26.15 7.5 -26.05 7.6 -25.8 7.5 -25.55 7.25 -25.45 7.0 -25.55 6.9 -25.8 7.0 -26.05 M4.2 -26.8 L4.3 -27.0 4.5 -27.1 4.7 -27.0 4.8 -26.8 4.7 -26.6 4.5 -26.5 4.3 -26.6 4.2 -26.8 M0.05 -27.7 L0.15 -27.45 0.05 -27.2 Q-0.05 -27.1 -0.2 -27.1 L-0.45 -27.2 -0.55 -27.45 -0.45 -27.7 -0.2 -27.8 0.05 -27.7 M9.9 -14.55 Q9.35 -14.85 10.0 -14.65 10.15 -14.4 9.9 -14.55 M7.05 -17.95 L6.8 -17.85 6.55 -17.95 6.45 -18.2 6.55 -18.45 6.8 -18.55 7.05 -18.45 7.15 -18.2 7.05 -17.95 M4.7 -16.1 L5.05 -15.95 5.15 -15.6 5.05 -15.25 Q4.9 -15.1 4.7 -15.1 4.5 -15.1 4.4 -15.25 L4.25 -15.6 4.4 -15.95 4.7 -16.1 M14.6 -10.25 Q15.1 -10.2 14.9 -9.65 L14.6 -8.7 Q14.2 -7.2 13.05 -6.35 10.3 -4.35 6.75 -3.95 L-1.0 -3.2 Q-5.4 -3.2 -9.9 -4.45 -11.7 -5.0 -13.15 -6.35 -15.05 -8.15 -14.65 -10.6 -12.25 -6.4 -7.3 -5.95 L-1.7 -5.35 Q3.9 -5.1 9.25 -6.35 10.5 -6.7 11.55 -7.3 13.35 -8.5 14.6 -10.25 M-4.4 -30.55 L-4.05 -30.4 -3.9 -30.0 Q-3.9 -29.75 -4.05 -29.6 -4.2 -29.45 -4.4 -29.45 L-4.75 -29.6 -4.9 -30.0 -4.75 -30.4 -4.4 -30.55 M-2.75 -33.55 L-2.55 -33.45 -2.45 -33.25 -2.55 -33.05 Q-2.65 -32.95 -2.75 -32.95 -2.85 -32.95 -2.95 -33.05 L-3.05 -33.25 -2.95 -33.45 -2.75 -33.55 M-8.85 -41.3 L-8.85 -41.55 -8.6 -41.55 -8.6 -41.3 -8.85 -41.3 M-6.0 -41.5 L-5.65 -41.35 -5.5 -41.0 Q-5.5 -40.8 -5.65 -40.65 -5.8 -40.5 -6.0 -40.5 -6.2 -40.5 -6.35 -40.65 L-6.5 -41.0 -6.35 -41.35 -6.0 -41.5 M-6.15 -45.8 L-5.7 -45.8 -5.7 -45.25 -6.15 -45.25 -6.15 -45.8 M-14.25 -13.8 Q-13.25 -12.7 -11.8 -12.2 L-5.65 -12.05 Q-1.75 -13.25 -0.8 -17.25 -0.4 -16.85 -0.4 -15.85 L-0.55 -10.9 Q-0.55 -10.45 -0.85 -10.05 -2.0 -8.85 -3.85 -8.6 -9.5 -7.85 -14.05 -11.1 L-14.1 -11.2 -14.25 -13.8 M-11.6 -16.0 Q-10.95 -16.0 -11.55 -15.9 L-11.6 -16.0 M-2.35 -17.9 L-2.45 -17.65 Q-3.0 -18.15 -2.35 -17.9 M-10.0 -13.4 L-9.6 -13.4 -9.6 -12.85 -10.0 -12.85 -10.0 -13.4 M-8.85 -18.05 L-8.75 -17.8 -8.85 -17.5 Q-8.95 -17.4 -9.1 -17.4 L-9.35 -17.5 -9.45 -17.8 -9.35 -18.05 -9.1 -18.2 -8.85 -18.05 M-6.8 -17.1 L-6.8 -16.65 -7.25 -16.65 -7.25 -17.1 -6.8 -17.1" fill="#333333" fill-rule="evenodd" stroke="none"/>
  </g>
</svg>
