<?xml version="1.0" encoding="UTF-8" standalone="no"?>
<svg xmlns:ffdec="https://www.free-decompiler.com/flash" xmlns:xlink="http://www.w3.org/1999/xlink" ffdec:objectType="shape" height="50.15px" width="54.05px" xmlns="http://www.w3.org/2000/svg">
  <g transform="matrix(1.0, 0.0, 0.0, 1.0, 27.0, 25.1)">
    <path d="M5.7 -15.75 L5.85 -17.25 8.55 -15.85 7.6 -15.05 5.7 -15.75 M1.1 -24.45 Q1.75 -24.1 1.75 -23.6 1.75 -23.1 1.1 -22.75 0.45 -22.4 -0.45 -22.4 -1.35 -22.4 -2.0 -22.75 -2.65 -23.1 -2.65 -23.6 -2.65 -24.1 -2.0 -24.45 L-0.45 -24.8 1.1 -24.45 M14.35 -20.75 Q14.35 -20.1 13.7 -19.6 13.05 -19.15 12.1 -19.15 11.15 -19.15 10.5 -19.6 9.85 -20.1 9.85 -20.75 9.85 -21.4 10.5 -21.85 11.15 -22.35 12.1 -22.35 L13.7 -21.85 Q14.35 -21.4 14.35 -20.75 M-6.75 -22.7 L-13.65 -19.85 -14.1 -20.3 -13.95 -20.45 -7.45 -23.8 -6.65 -23.15 -6.75 -22.7" fill="#cccccc" fill-rule="evenodd" stroke="none"/>
    <path d="M-18.2 -18.75 L-12.4 -22.15 Q-9.95 -23.45 -7.2 -24.05 L0.85 -25.1 6.65 -24.25 Q12.85 -24.25 17.3 -20.1 L18.1 -17.9 19.05 -18.0 23.35 -13.4 23.2 -12.65 21.15 -10.9 16.95 -14.35 16.35 -13.0 19.85 -9.1 18.6 -8.35 17.25 -9.3 13.75 -12.9 13.5 -13.2 13.3 -17.5 10.45 -14.4 9.85 -14.5 7.6 -15.05 8.55 -15.85 5.85 -17.25 5.7 -15.75 -1.5 -16.0 -2.6 -17.85 4.3 -20.5 5.15 -20.75 6.25 -20.15 8.7 -18.15 10.75 -18.05 9.0 -21.25 8.65 -22.55 5.9 -22.75 3.65 -23.5 3.35 -23.75 Q2.95 -23.9 3.15 -23.5 L4.0 -22.45 3.55 -21.6 -1.15 -20.7 -4.5 -19.55 -5.75 -18.4 -6.45 -18.25 -7.65 -18.55 -8.45 -19.2 -12.25 -16.7 Q-13.1 -16.7 -13.7 -16.0 -14.35 -15.35 -14.35 -14.4 L-20.45 -4.2 -21.5 -4.85 -17.55 -12.85 -16.55 -14.25 -16.9 -15.6 -14.0 -18.3 -14.7 -18.3 -15.55 -18.4 -17.85 -17.0 -18.2 -18.75 M1.1 -24.45 L-0.45 -24.8 -2.0 -24.45 Q-2.65 -24.1 -2.65 -23.6 -2.65 -23.1 -2.0 -22.75 -1.35 -22.4 -0.45 -22.4 0.45 -22.4 1.1 -22.75 1.75 -23.1 1.75 -23.6 1.75 -24.1 1.1 -24.45 M14.35 -20.75 Q14.35 -21.4 13.7 -21.85 L12.1 -22.35 Q11.15 -22.35 10.5 -21.85 9.85 -21.4 9.85 -20.75 9.85 -20.1 10.5 -19.6 11.15 -19.15 12.1 -19.15 13.05 -19.15 13.7 -19.6 14.35 -20.1 14.35 -20.75 M10.6 -12.85 L6.05 -12.0 6.55 -13.9 7.7 -14.3 10.6 -12.85 M6.95 -9.15 L6.35 -10.45 11.1 -11.3 11.25 -8.2 10.65 -7.3 9.45 -7.0 8.75 -7.35 Q8.75 -8.1 8.25 -8.6 7.7 -9.15 6.95 -9.15 M-10.35 -10.5 L-13.25 -6.85 -14.75 -7.4 -13.75 -12.6 -12.5 -11.55 -11.5 -11.45 -10.35 -10.5 M-5.95 -22.65 L-6.65 -23.15 -7.45 -23.8 -13.95 -20.45 -14.1 -20.3 -13.65 -19.85 -6.75 -22.7 -6.75 -22.55 -6.7 -22.25 Q-6.4 -21.8 -5.95 -22.65 M-7.4 -21.6 L-7.65 -21.6 -7.55 -21.3 -7.4 -21.6 M-7.25 -20.65 L-6.85 -20.35 -5.05 -21.7 -7.25 -20.65 M-7.1 -17.4 L-5.65 -17.85 -4.35 -17.25 -4.55 -16.0 -7.15 -14.55 -7.95 -14.65 -9.35 -14.05 -9.55 -15.75 -7.1 -17.4 M-20.4 -12.2 L-21.6 -11.4 Q-23.25 -10.05 -23.3 -8.1 -23.25 -11.15 -21.8 -13.3 -20.3 -15.5 -18.15 -15.5 L-20.4 -12.2" fill="#999999" fill-rule="evenodd" stroke="none"/>
    <path d="M-18.2 -18.75 L-17.85 -17.0 -15.55 -18.4 -14.7 -18.3 -18.15 -15.5 Q-20.3 -15.5 -21.8 -13.3 -23.25 -11.15 -23.3 -8.1 -23.25 -10.05 -21.6 -11.4 L-20.4 -12.2 Q-19.15 -12.85 -17.55 -12.85 L-21.5 -4.85 -22.25 -2.95 -20.3 0.5 -18.7 -5.55 -18.7 1.95 -14.05 9.4 -11.05 4.4 -9.15 4.05 -9.1 6.85 -10.75 8.35 -9.5 10.35 -8.3 9.65 -5.2 8.5 -3.3 9.5 -1.6 14.1 -0.6 13.8 -1.8 10.35 1.35 11.3 1.9 14.4 2.85 11.7 5.0 12.9 8.65 10.8 9.75 10.55 10.2 9.95 18.95 1.8 18.35 -3.6 11.55 -11.6 12.9 -12.6 18.3 -6.5 13.75 -12.9 17.25 -9.3 20.6 -3.7 20.7 -3.75 21.0 -3.55 20.9 -2.7 22.9 2.95 21.15 -10.9 23.2 -12.65 23.35 -13.4 Q25.45 -6.55 27.05 0.6 L24.6 13.1 24.9 9.65 18.5 13.45 21.0 7.5 20.35 6.95 Q16.0 10.35 12.7 15.05 L11.25 16.35 Q7.9 17.8 4.5 17.55 L-3.8 16.95 -7.95 12.45 -8.65 13.6 -7.9 14.65 -8.35 14.85 -7.8 18.2 -21.65 5.7 -22.9 6.25 -25.25 2.6 -26.6 3.6 -26.8 6.45 -27.0 -1.8 Q-26.65 -4.5 -25.55 -6.95 -22.75 -13.3 -18.2 -18.75 M-7.65 -18.55 L-6.45 -18.25 -7.1 -17.4 -9.55 -15.75 -10.8 -15.85 -11.1 -16.1 -7.65 -18.55 M-5.75 -18.4 L-4.5 -19.55 Q-4.5 -19.05 -4.85 -18.7 -5.25 -18.4 -5.75 -18.4 M-1.15 -20.7 L3.55 -21.6 6.95 -20.75 6.25 -20.15 5.15 -20.75 4.3 -20.5 -1.15 -20.7 M3.15 -23.5 Q2.95 -23.9 3.35 -23.75 L3.65 -23.5 3.15 -23.5 M5.9 -22.75 L8.65 -22.55 9.0 -21.25 6.85 -21.7 5.9 -22.75 M9.85 -14.5 L10.45 -14.4 10.7 -12.95 9.85 -14.5 M19.05 -18.0 L18.1 -17.9 17.3 -20.1 19.05 -18.0 M-8.3 -12.15 L-9.15 -12.3 -6.45 -13.15 -8.3 -12.15 M-9.0 1.95 L-10.3 2.5 -10.35 1.4 -9.95 0.35 -10.35 -0.25 -10.35 -3.65 -8.75 -5.45 -9.6 -4.25 -9.0 1.95 M15.05 -1.4 Q15.05 -2.0 15.35 -2.4 L16.05 -2.85 16.75 -2.4 17.05 -1.4 16.75 -0.35 Q16.45 0.05 16.05 0.05 L15.35 -0.35 Q15.05 -0.8 15.05 -1.4 M-6.65 -23.15 L-5.95 -22.65 -6.75 -22.55 -6.75 -22.7 -6.65 -23.15 M-13.4 -3.65 L-13.2 -2.9 -13.4 -2.15 Q-13.65 -1.85 -13.95 -1.85 L-14.45 -2.15 -14.7 -2.9 -14.45 -3.65 -13.95 -3.95 -13.4 -3.65" fill="#333333" fill-rule="evenodd" stroke="none"/>
    <path d="M-14.7 -18.3 L-14.0 -18.3 -16.9 -15.6 -16.55 -14.25 -17.55 -12.85 Q-19.15 -12.85 -20.4 -12.2 L-18.15 -15.5 -14.7 -18.3 M-21.5 -4.85 L-20.45 -4.2 -14.35 -14.4 -13.75 -12.6 -14.75 -7.4 -13.25 -6.85 -10.35 -10.5 -4.8 -9.7 -0.5 -4.25 5.0 -10.35 6.35 -10.45 6.95 -9.15 5.25 -7.35 8.0 -6.25 8.75 -7.35 9.45 -7.0 10.65 -7.3 11.25 -8.2 11.1 -11.3 11.55 -11.6 18.35 -3.6 18.95 1.8 10.2 9.95 10.05 9.1 3.6 3.75 8.65 10.8 5.0 12.9 2.85 11.7 2.0 6.8 4.35 1.05 Q7.5 4.35 11.7 3.65 L12.6 3.4 Q15.15 1.55 13.3 -0.55 12.2 -1.75 10.6 -1.6 L9.65 -1.2 10.0 1.3 10.95 1.6 11.2 0.3 12.1 0.15 12.85 1.15 11.0 2.65 0.8 -4.55 1.8 -0.6 0.0 2.95 -2.15 -0.15 -1.0 -4.2 -9.0 1.95 -9.6 -4.25 -8.75 -5.45 -10.35 -3.65 -10.35 -0.25 -13.9 0.2 Q-15.7 0.75 -16.05 1.7 -16.4 2.65 -15.05 3.45 -13.7 4.25 -11.05 4.4 L-14.05 9.4 -18.7 1.95 -18.7 -5.55 -20.3 0.5 -22.25 -2.95 -21.5 -4.85 M-12.25 -16.7 L-8.45 -19.2 -7.65 -18.55 -11.1 -16.1 -12.25 -16.7 M-6.45 -18.25 L-5.75 -18.4 Q-5.25 -18.4 -4.85 -18.7 -4.5 -19.05 -4.5 -19.55 L-1.15 -20.7 4.3 -20.5 -2.6 -17.85 -1.5 -16.0 5.7 -15.75 7.6 -15.05 9.85 -14.5 10.7 -12.95 10.6 -12.85 7.7 -14.3 6.55 -13.9 6.05 -12.0 4.7 -11.7 5.45 -13.8 4.8 -14.45 -0.2 -6.5 -5.45 -14.2 -6.05 -13.3 -5.3 -11.7 -8.3 -12.15 -6.45 -13.15 -9.15 -12.3 -9.9 -12.55 -10.8 -15.85 -9.55 -15.75 -9.35 -14.05 -7.95 -14.65 -7.15 -14.55 -4.55 -16.0 -4.35 -17.25 -5.65 -17.85 -7.1 -17.4 -6.45 -18.25 M3.55 -21.6 L4.0 -22.45 3.15 -23.5 3.65 -23.5 5.9 -22.75 6.85 -21.7 9.0 -21.25 10.75 -18.05 8.7 -18.15 6.25 -20.15 6.95 -20.75 3.55 -21.6 M13.5 -13.2 L13.75 -12.9 18.3 -6.5 12.9 -12.6 13.5 -13.2 M17.25 -9.3 L18.6 -8.35 19.85 -9.1 16.35 -13.0 16.95 -14.35 21.15 -10.9 22.9 2.95 20.9 -2.7 21.0 -3.55 20.7 -3.75 20.6 -3.7 17.25 -9.3 M-10.3 2.5 L-14.1 2.2 -12.25 1.1 -11.65 2.25 -10.35 1.4 -10.3 2.5 M-9.15 4.05 L-4.8 0.85 -2.15 6.6 -3.3 9.5 -5.2 8.5 -8.3 9.65 -4.45 4.0 -5.05 3.55 -9.1 6.85 -9.15 4.05 M-1.8 10.35 L-2.0 6.95 -0.25 10.75 0.4 10.65 1.9 7.1 1.35 11.3 -1.8 10.35 M15.05 -1.4 Q15.05 -0.8 15.35 -0.35 L16.05 0.05 Q16.45 0.05 16.75 -0.35 L17.05 -1.4 16.75 -2.4 16.05 -2.85 15.35 -2.4 Q15.05 -2.0 15.05 -1.4 M-5.95 -22.65 Q-6.4 -21.8 -6.7 -22.25 L-6.75 -22.55 -5.95 -22.65 M-7.25 -20.65 L-5.05 -21.7 -6.85 -20.35 -7.25 -20.65 M-7.4 -21.6 L-7.55 -21.3 -7.65 -21.6 -7.4 -21.6 M-13.4 -3.65 L-13.95 -3.95 -14.45 -3.65 -14.7 -2.9 -14.45 -2.15 -13.95 -1.85 Q-13.65 -1.85 -13.4 -2.15 L-13.2 -2.9 -13.4 -3.65 M-6.65 -8.0 Q-6.65 -8.6 -7.15 -9.0 -7.7 -9.45 -8.45 -9.45 L-9.7 -9.0 Q-10.25 -8.6 -10.25 -8.0 -10.25 -7.4 -9.7 -6.95 -9.2 -6.55 -8.45 -6.55 -7.7 -6.55 -7.15 -6.95 -6.65 -7.4 -6.65 -8.0" fill="#666666" fill-rule="evenodd" stroke="none"/>
    <path d="M-14.35 -14.4 Q-14.35 -15.35 -13.7 -16.0 -13.1 -16.7 -12.25 -16.7 L-11.1 -16.1 -10.8 -15.85 -9.9 -12.55 -9.15 -12.3 -8.3 -12.15 -5.3 -11.7 -6.05 -13.3 -5.45 -14.2 -0.2 -6.5 4.8 -14.45 5.45 -13.8 4.7 -11.7 6.05 -12.0 10.6 -12.85 10.7 -12.95 10.45 -14.4 13.3 -17.5 13.5 -13.2 12.9 -12.6 11.55 -11.6 11.1 -11.3 6.35 -10.45 5.0 -10.35 -0.5 -4.25 -4.8 -9.7 -10.35 -10.5 -11.5 -11.45 -12.5 -11.55 -13.75 -12.6 -14.35 -14.4 M6.95 -9.15 Q7.7 -9.15 8.25 -8.6 8.75 -8.1 8.75 -7.35 L8.0 -6.25 5.25 -7.35 6.95 -9.15 M-9.0 1.95 L-1.0 -4.2 -2.15 -0.15 0.0 2.95 1.8 -0.6 0.8 -4.55 11.0 2.65 12.85 1.15 12.1 0.15 11.2 0.3 10.95 1.6 10.0 1.3 9.65 -1.2 10.6 -1.6 Q12.2 -1.75 13.3 -0.55 15.15 1.55 12.6 3.4 L11.7 3.65 Q7.5 4.35 4.35 1.05 L2.0 6.8 2.85 11.7 1.9 14.4 1.35 11.3 1.9 7.1 0.4 10.65 -0.25 10.75 -2.0 6.95 -1.8 10.35 -0.6 13.8 -1.6 14.1 -3.3 9.5 -2.15 6.6 -4.8 0.85 -9.15 4.05 -11.05 4.4 Q-13.7 4.25 -15.05 3.45 -16.4 2.65 -16.05 1.7 -15.7 0.75 -13.9 0.2 L-10.35 -0.25 -9.95 0.35 -10.35 1.4 -11.65 2.25 -12.25 1.1 -14.1 2.2 -10.3 2.5 -9.0 1.95 M8.65 10.8 L3.6 3.75 10.05 9.1 10.2 9.95 9.75 10.55 8.65 10.8 M-6.65 -8.0 Q-6.65 -7.4 -7.15 -6.95 -7.7 -6.55 -8.45 -6.55 -9.2 -6.55 -9.7 -6.95 -10.25 -7.4 -10.25 -8.0 -10.25 -8.6 -9.7 -9.0 L-8.45 -9.45 Q-7.7 -9.45 -7.15 -9.0 -6.65 -8.6 -6.65 -8.0 M-9.1 6.85 L-5.05 3.55 -4.45 4.0 -8.3 9.65 -9.5 10.35 -10.75 8.35 -9.1 6.85" fill="#cc0000" fill-rule="evenodd" stroke="none"/>
    <path d="M-26.8 6.45 L-26.6 3.6 -25.25 2.6 -22.9 6.25 -21.65 5.7 -7.8 18.2 -8.35 14.85 -7.9 14.65 -8.65 13.6 -7.95 12.45 -3.8 16.95 4.5 17.55 Q7.9 17.8 11.25 16.35 L12.7 15.05 Q16.0 10.35 20.35 6.95 L21.0 7.5 18.5 13.45 24.9 9.65 24.6 13.1 23.65 14.65 Q20.9 19.0 16.1 21.35 10.85 23.9 5.05 24.6 -2.3 25.65 -9.7 24.2 -23.1 21.75 -26.3 8.6 L-26.8 6.45" fill="#000000" fill-rule="evenodd" stroke="none"/>
  </g>
</svg>
