<?xml version="1.0" encoding="UTF-8" standalone="no"?>
<svg xmlns:ffdec="https://www.free-decompiler.com/flash" xmlns:xlink="http://www.w3.org/1999/xlink" ffdec:objectType="shape" height="73.9px" width="60.0px" xmlns="http://www.w3.org/2000/svg">
  <g transform="matrix(1.0, 0.0, 0.0, 1.0, 30.0, 36.3)">
    <path d="M21.5 -26.1 L21.9 -25.7 22.05 -24.75 21.9 -23.8 21.5 -23.4 Q21.25 -23.4 21.1 -23.8 20.95 -24.2 20.95 -24.75 20.95 -25.3 21.1 -25.7 21.25 -26.1 21.5 -26.1 M22.4 -16.0 L24.75 -18.5 25.95 -14.25 24.7 -10.4 24.3 -10.15 22.4 -16.0 M13.9 -8.9 L11.3 -7.75 12.3 -12.7 13.9 -8.9 M16.0 10.25 L13.3 14.65 11.35 14.0 12.0 12.6 16.0 10.25" fill="#cccccc" fill-rule="evenodd" stroke="none"/>
    <path d="M18.25 -16.1 L16.7 -22.1 15.6 -13.05 18.25 -16.1 M12.3 -12.7 L10.7 -18.25 19.15 -23.75 22.4 -16.0 24.3 -10.15 20.6 -9.2 19.25 -14.0 18.65 -2.15 27.1 -12.0 24.7 -10.4 25.95 -14.25 24.75 -18.5 28.3 -27.4 29.9 -21.8 29.8 13.85 26.2 17.4 25.55 15.4 23.85 18.35 21.9 19.05 23.55 12.95 9.6 23.45 8.15 15.15 5.15 24.3 0.4 26.15 1.95 14.6 4.0 19.9 13.5 4.95 9.0 8.0 6.1 14.05 2.85 15.2 2.6 10.3 5.4 11.3 8.45 3.8 3.15 8.25 4.15 2.2 0.0 6.4 -3.7 2.85 -5.2 7.0 -10.35 10.55 -13.2 4.8 -8.15 4.0 1.95 -11.6 -0.7 -18.9 2.2 -13.5 2.2 -17.15 3.55 -19.05 7.05 -16.9 9.55 -7.4 -2.2 -2.05 0.05 2.2 1.95 -2.25 4.9 -3.15 10.05 0.2 8.4 -3.05 9.45 -6.45 13.9 -8.9 12.3 -12.7 M-27.55 -27.6 L-15.25 -21.5 -17.05 -16.4 -12.45 -20.1 -4.8 -18.7 -7.9 -12.2 -9.6 -15.45 -10.8 -12.75 -13.05 -11.95 -14.1 -14.35 -16.1 -11.1 -20.6 -19.85 -22.8 -16.5 -25.0 -18.8 -23.4 -21.0 -25.25 -23.25 -29.55 -22.65 -27.55 -27.6 M-1.25 -19.0 L-0.8 -18.9 -0.65 -10.9 -12.65 -3.35 -14.85 -4.05 -13.85 -6.6 Q-12.55 -6.6 -11.6 -7.75 -10.7 -8.95 -10.7 -10.65 -6.8 -10.65 -4.0 -13.1 -1.25 -15.55 -1.25 -19.0 M7.0 -14.35 L6.7 -15.3 Q6.4 -15.7 5.95 -15.7 5.5 -15.7 5.2 -15.3 4.9 -14.9 4.9 -14.35 4.9 -13.8 5.2 -13.4 5.5 -13.0 5.95 -13.0 6.4 -13.0 6.7 -13.4 L7.0 -14.35 M15.45 -9.7 L10.35 -4.85 11.4 0.6 15.45 -9.7 M19.95 8.4 L19.5 10.5 22.25 9.35 27.1 2.35 23.35 5.45 27.95 -10.45 22.05 -3.65 23.25 0.25 20.95 6.6 20.45 -1.6 17.4 7.2 16.75 -1.1 12.0 12.6 11.35 14.0 11.05 18.1 13.3 14.65 16.0 10.25 16.75 9.3 19.95 8.4 M-29.8 1.5 L-29.7 -8.4 -20.85 -2.45 -19.0 2.05 -17.0 3.55 -24.8 0.25 -25.15 14.4 -27.3 13.55 -28.95 -2.55 -29.8 1.5 M-29.65 -14.45 L-29.65 -17.1 -25.1 -16.05 -23.45 -10.7 -29.65 -14.45 M29.05 0.85 L25.4 8.3 29.1 8.75 29.05 0.85 M-19.4 -11.5 L-17.05 -9.5 -16.8 -2.95 -19.4 -11.5 M-9.85 5.85 Q-10.2 5.85 -10.4 6.15 L-10.65 6.9 -10.4 7.65 Q-10.2 7.95 -9.85 7.95 -9.5 7.95 -9.25 7.65 L-9.05 6.9 -9.25 6.15 Q-9.5 5.85 -9.85 5.85 M-11.8 16.0 L-11.05 22.4 -14.75 17.55 -11.8 16.0 M-12.7 13.6 L-15.3 16.65 -17.05 10.25 -12.7 13.6 M-18.25 16.4 L-17.95 15.5 Q-17.65 15.1 -17.2 15.1 -16.75 15.1 -16.45 15.5 -16.15 15.85 -16.15 16.4 -16.15 16.95 -16.45 17.35 -16.75 17.7 -17.2 17.7 -17.65 17.7 -17.95 17.35 L-18.25 16.4 M-6.0 14.45 L-4.4 19.6 -7.0 15.1 -8.75 19.7 -9.65 16.25 0.0 9.35 -0.7 17.25 -6.0 14.45 M-20.5 20.95 L-21.75 9.2 -20.8 12.7 -18.85 8.3 -20.5 20.95" fill="#666666" fill-rule="evenodd" stroke="none"/>
    <path d="M18.25 -16.1 L15.6 -13.05 16.7 -22.1 18.25 -16.1 M-4.8 -18.7 L-1.25 -19.0 Q-1.25 -15.55 -4.0 -13.1 -6.8 -10.65 -10.7 -10.65 -12.0 -10.65 -12.9 -9.45 -13.85 -8.3 -13.85 -6.6 L-14.85 -4.05 -12.65 -3.35 -0.65 -10.9 -0.8 -18.9 -0.7 -18.9 1.95 -11.6 -8.15 4.0 -13.2 4.8 -10.35 10.55 -5.2 7.0 -3.7 2.85 0.0 6.4 4.15 2.2 3.15 8.25 2.6 10.3 2.85 15.2 6.1 14.05 9.0 8.0 13.5 4.95 4.0 19.9 1.95 14.6 0.4 26.15 5.15 24.3 8.15 15.15 9.6 23.45 23.55 12.95 21.9 19.05 23.85 18.35 25.55 15.4 26.2 17.4 29.8 13.85 30.0 27.25 0.0 37.6 -30.0 27.25 -29.8 1.5 -28.95 -2.55 -27.3 13.55 -25.15 14.4 -24.8 0.25 -17.0 3.55 -19.0 2.05 -20.85 -2.45 -29.7 -8.4 -29.65 -14.45 -23.45 -10.7 -25.1 -16.05 -29.65 -17.1 -29.55 -22.65 -25.25 -23.25 -23.4 -21.0 -25.0 -18.8 -22.8 -16.5 -20.6 -19.85 -16.1 -11.1 -14.1 -14.35 -13.05 -11.95 -10.8 -12.75 -9.6 -15.45 -7.9 -12.2 -4.8 -18.7 M9.55 -7.4 L9.45 -6.45 8.4 -3.05 10.05 0.2 4.9 -3.15 1.95 -2.25 0.05 2.2 -2.2 -2.05 9.55 -7.4 M15.45 -9.7 L11.4 0.6 10.35 -4.85 15.45 -9.7 M24.7 -10.4 L27.1 -12.0 18.65 -2.15 19.25 -14.0 20.6 -9.2 24.3 -10.15 24.7 -10.4 M19.95 8.4 L16.75 9.3 17.4 7.2 20.45 -1.6 20.95 6.6 19.95 8.4 M29.05 0.85 L29.1 8.75 25.4 8.3 29.05 0.85 M-19.4 -11.5 L-16.8 -2.95 -17.05 -9.5 -19.4 -11.5 M-11.8 16.0 L-14.75 17.55 -11.05 22.4 -11.8 16.0 M-9.85 5.85 Q-9.5 5.85 -9.25 6.15 L-9.05 6.9 -9.25 7.65 Q-9.5 7.95 -9.85 7.95 -10.2 7.95 -10.4 7.65 L-10.65 6.9 -10.4 6.15 Q-10.2 5.85 -9.85 5.85 M-18.25 16.4 L-17.95 17.35 Q-17.65 17.7 -17.2 17.7 -16.75 17.7 -16.45 17.35 -16.15 16.95 -16.15 16.4 -16.15 15.85 -16.45 15.5 -16.75 15.1 -17.2 15.1 -17.65 15.1 -17.95 15.5 L-18.25 16.4 M-12.7 13.6 L-17.05 10.25 -15.3 16.65 -12.7 13.6 M-6.0 14.45 L-0.7 17.25 0.0 9.35 -9.65 16.25 -8.75 19.7 -7.0 15.1 -4.4 19.6 -6.0 14.45 M-20.5 20.95 L-18.85 8.3 -20.8 12.7 -21.75 9.2 -20.5 20.95" fill="#333333" fill-rule="evenodd" stroke="none"/>
    <path d="M21.5 -26.1 Q21.25 -26.1 21.1 -25.7 20.95 -25.3 20.95 -24.75 20.95 -24.2 21.1 -23.8 21.25 -23.4 21.5 -23.4 L21.9 -23.8 22.05 -24.75 21.9 -25.7 21.5 -26.1 M22.4 -16.0 L19.15 -23.75 10.7 -18.25 12.3 -12.7 11.3 -7.75 13.9 -8.9 9.45 -6.45 9.55 -7.4 7.05 -16.9 3.55 -19.05 2.2 -17.15 2.2 -13.5 -0.7 -18.9 -0.8 -18.9 -1.25 -19.0 -4.8 -18.7 -12.45 -20.1 -17.05 -16.4 -15.25 -21.5 -27.55 -27.6 -0.35 -36.3 28.3 -27.4 24.75 -18.5 22.4 -16.0 M7.0 -14.35 L6.7 -13.4 Q6.4 -13.0 5.95 -13.0 5.5 -13.0 5.2 -13.4 4.9 -13.8 4.9 -14.35 4.9 -14.9 5.2 -15.3 5.5 -15.7 5.95 -15.7 6.4 -15.7 6.7 -15.3 L7.0 -14.35 M20.95 6.6 L23.25 0.25 22.05 -3.65 27.95 -10.45 23.35 5.45 27.1 2.35 22.25 9.35 19.5 10.5 19.95 8.4 20.95 6.6 M16.75 9.3 L16.0 10.25 12.0 12.6 16.75 -1.1 17.4 7.2 16.75 9.3 M13.3 14.65 L11.05 18.1 11.35 14.0 13.3 14.65 M2.6 10.3 L3.15 8.25 8.45 3.8 5.4 11.3 2.6 10.3 M-10.7 -10.65 Q-10.7 -8.95 -11.6 -7.75 -12.55 -6.6 -13.85 -6.6 -13.85 -8.3 -12.9 -9.45 -12.0 -10.65 -10.7 -10.65" fill="#999999" fill-rule="evenodd" stroke="none"/>
  </g>
</svg>
