<?xml version="1.0" encoding="UTF-8" standalone="no"?>
<svg xmlns:ffdec="https://www.free-decompiler.com/flash" xmlns:xlink="http://www.w3.org/1999/xlink" ffdec:objectType="shape" height="6.55px" width="8.65px" xmlns="http://www.w3.org/2000/svg">
  <g transform="matrix(1.0, 0.0, 0.0, 1.0, 1.25, 9.95)">
    <path d="M6.55 -9.15 L6.5 -9.75 6.5 -9.85 6.5 -9.95 Q7.65 -8.7 7.35 -6.65 L7.15 -5.7 6.9 -5.05 6.8 -4.75 6.75 -5.2 Q7.25 -6.0 7.1 -6.7 L7.1 -6.75 Q7.2 -8.15 6.7 -9.6 L6.55 -9.15 M2.55 -4.65 L2.8 -3.4 1.5 -3.5 Q0.1 -3.8 -0.9 -4.75 L-1.2 -4.45 -1.25 -4.7 -1.25 -4.75 -1.0 -4.95 Q-0.65 -5.3 -0.7 -5.85 L-0.7 -6.1 -0.65 -6.1 -0.15 -5.65 -0.05 -5.6 0.85 -5.1 Q1.65 -4.8 2.55 -4.65 M2.5 -3.55 L2.3 -4.45 Q0.95 -4.7 -0.1 -5.45 L-0.4 -5.7 -0.5 -5.6 -0.7 -4.9 Q0.45 -3.85 2.1 -3.55 L2.5 -3.55" fill="#000000" fill-rule="evenodd" stroke="none"/>
    <path d="M2.5 -3.55 L2.1 -3.55 Q0.45 -3.85 -0.7 -4.9 L-0.5 -5.6 -0.4 -5.7 -0.1 -5.45 Q0.95 -4.7 2.3 -4.45 L2.5 -3.55" fill="#aca488" fill-rule="evenodd" stroke="none"/>
    <path d="M6.75 -5.2 L6.75 -5.7 6.6 -8.65 6.55 -9.15 6.7 -9.6 Q7.2 -8.15 7.1 -6.75 L7.1 -6.7 Q7.25 -6.0 6.75 -5.2" fill="#d5d0c1" fill-rule="evenodd" stroke="none"/>
  </g>
</svg>
