<?xml version="1.0" encoding="UTF-8" standalone="no"?>
<svg xmlns:ffdec="https://www.free-decompiler.com/flash" xmlns:xlink="http://www.w3.org/1999/xlink" ffdec:objectType="shape" height="7.45px" width="19.45px" xmlns="http://www.w3.org/2000/svg">
  <g transform="matrix(1.0, 0.0, 0.0, 1.0, 6.7, 4.5)">
    <path d="M3.75 -0.8 L4.1 -0.5 5.1 1.1 -0.55 0.6 -0.5 1.15 -0.3 1.95 0.05 2.6 0.25 2.85 0.1 2.95 -0.75 2.6 -1.05 2.4 -1.95 1.5 -2.45 0.75 -2.85 -0.45 -4.0 -1.1 -5.4 -1.75 -6.05 -2.15 -6.2 -2.25 -6.55 -2.55 -6.7 -3.05 -6.5 -4.5 -6.2 -4.35 -5.7 -3.85 -5.4 -3.65 -4.0 -2.85 -2.6 -2.15 -1.25 -1.75 0.4 -1.25 1.85 -1.0 3.75 -0.8 M3.65 -0.55 L2.1 -0.7 0.6 -1.05 -1.35 -1.45 -2.75 -1.95 -4.1 -2.55 -5.6 -3.4 -6.25 -3.95 -6.35 -3.9 -6.35 -3.85 -6.5 -3.1 -6.4 -2.9 -6.3 -2.75 -6.0 -2.45 -3.8 -1.15 -2.25 -0.45 0.15 0.4 1.8 0.7 3.65 0.7 4.5 0.75 3.9 -0.35 3.65 -0.55 M9.3 -3.1 L8.35 -4.15 8.6 -1.4 8.6 -1.35 8.7 -1.05 9.45 -0.15 9.55 -0.1 9.65 -0.1 9.9 -0.45 9.8 -1.4 9.75 -1.8 9.3 -3.1 M8.1 -4.35 L8.45 -4.25 9.35 -3.65 9.65 -3.15 9.95 -2.25 9.95 -2.2 10.0 -2.2 10.7 -2.55 11.75 -2.45 12.2 -2.2 12.4 -1.9 12.75 -0.95 12.75 -0.5 12.25 0.0 10.8 0.85 Q10.15 1.15 9.9 0.55 L9.5 0.2 9.05 -0.1 Q8.8 -0.2 8.6 -0.45 L8.35 -0.75 8.35 -1.05 Q8.4 -2.6 8.1 -4.0 L8.1 -4.1 8.1 -4.2 8.1 -4.35 M12.5 -1.45 L11.85 -2.1 11.05 -2.05 Q10.85 -2.15 10.6 -2.3 L10.2 -2.0 10.05 -1.8 10.05 -1.75 10.15 -0.15 10.25 0.5 10.5 0.65 11.25 0.25 12.45 -0.5 12.5 -1.45 M-1.55 1.2 L-0.75 1.95 -0.85 0.4 -2.2 -0.05 -1.75 0.95 -1.55 1.2" fill="#65012f" fill-rule="evenodd" stroke="none"/>
    <path d="M3.65 -0.55 L3.9 -0.35 4.5 0.75 3.65 0.7 1.8 0.7 0.15 0.4 -2.25 -0.45 -3.8 -1.15 -6.0 -2.45 -6.3 -2.75 -6.4 -2.9 -6.5 -3.1 -6.35 -3.85 -6.35 -3.9 -6.25 -3.95 -5.6 -3.4 -4.1 -2.55 -2.75 -1.95 -1.35 -1.45 0.6 -1.05 2.1 -0.7 3.65 -0.55 M10.15 -0.15 L10.05 -1.75 10.05 -1.8 10.2 -2.0 10.6 -2.3 Q10.85 -2.15 11.05 -2.05 L11.85 -2.1 12.5 -1.45 12.0 -1.05 11.55 -0.85 Q10.85 -0.45 10.15 -0.15" fill="#ffccff" fill-rule="evenodd" stroke="none"/>
    <path d="M9.3 -3.1 L9.75 -1.8 9.8 -1.4 9.9 -0.45 9.65 -0.1 9.55 -0.1 9.45 -0.15 8.7 -1.05 8.6 -1.35 8.6 -1.4 8.35 -4.15 9.3 -3.1 M12.5 -1.45 L12.45 -0.5 11.25 0.25 10.5 0.65 10.25 0.5 10.15 -0.15 Q10.85 -0.45 11.55 -0.85 L12.0 -1.05 12.5 -1.45 M-1.55 1.2 L-1.75 0.95 -2.2 -0.05 -0.85 0.4 -0.75 1.95 -1.55 1.2" fill="#e19dde" fill-rule="evenodd" stroke="none"/>
  </g>
</svg>
