<?xml version="1.0" encoding="UTF-8" standalone="no"?>
<svg xmlns:ffdec="https://www.free-decompiler.com/flash" xmlns:xlink="http://www.w3.org/1999/xlink" ffdec:objectType="shape" height="56.25px" width="39.6px" xmlns="http://www.w3.org/2000/svg">
  <g transform="matrix(1.0, 0.0, 0.0, 1.0, 19.8, 57.7)">
    <path d="M9.0 -56.45 Q12.75 -55.85 15.7 -53.95 16.8 -53.15 16.5 -51.95 14.4 -50.15 11.05 -49.75 L-4.2 -48.95 -13.45 -50.15 Q-15.35 -50.5 -16.45 -51.95 -16.65 -53.8 -14.95 -54.55 -7.1 -57.85 1.65 -57.2 L9.0 -56.45 M13.5 -54.65 L9.05 -55.9 -6.15 -56.45 Q-9.65 -56.05 -12.85 -54.75 -13.5 -54.55 -14.0 -54.05 L-13.75 -53.6 Q-11.35 -53.1 -8.95 -53.95 -6.2 -54.85 -3.25 -55.25 5.7 -55.95 13.65 -52.8 L15.05 -52.85 15.2 -53.65 14.35 -54.3 13.5 -54.65 M-18.0 -5.9 L-18.1 -6.05 -17.95 -5.95 -18.0 -5.9 M-18.45 -6.85 L-18.45 -9.65 -18.4 -9.65 Q-11.85 -6.55 -4.35 -6.4 L10.95 -7.15 Q14.9 -7.85 18.5 -9.65 L18.55 -9.65 18.55 -6.75 18.1 -6.5 Q11.6 -3.5 4.25 -3.4 L-10.7 -4.4 -14.35 -5.2 -18.0 -6.45 -18.45 -6.85 M18.2 -6.05 L18.1 -5.9 18.05 -6.0 18.2 -6.05 M18.65 -48.6 L18.7 -47.15 18.65 -47.1 18.15 -46.75 Q14.45 -45.0 10.45 -44.35 L-3.4 -43.65 Q-11.5 -43.8 -18.55 -46.9 L-18.65 -48.9 Q-14.3 -46.2 -9.1 -45.55 L4.55 -45.1 Q12.2 -45.2 18.65 -48.6 M16.9 -51.2 L17.6 -53.55 Q19.15 -52.45 17.9 -51.05 16.55 -49.75 14.65 -49.1 3.25 -45.8 -8.7 -47.75 -12.7 -48.2 -16.5 -49.95 -19.5 -51.2 -17.7 -53.45 L-16.85 -51.2 Q-10.35 -48.35 -3.2 -48.35 L4.35 -48.55 Q10.15 -48.7 15.45 -50.55 L16.9 -51.2 M16.95 -43.4 Q18.1 -38.45 18.1 -33.45 18.15 -27.8 17.15 -21.95 L16.9 -20.4 16.25 -18.55 Q15.65 -17.4 15.25 -18.55 16.45 -24.6 17.0 -30.6 17.6 -36.85 16.0 -42.95 L16.7 -43.05 16.95 -43.4 M9.95 -40.5 L10.45 -40.2 Q12.6 -39.95 12.9 -42.0 L13.1 -33.75 Q13.2 -26.95 12.35 -20.15 L11.75 -15.6 11.7 -15.2 Q11.55 -13.8 10.2 -13.3 L9.7 -13.25 8.55 -14.25 10.05 -27.85 Q10.6 -34.1 9.95 -40.5 M13.6 -41.65 L14.15 -41.4 Q15.2 -41.3 15.6 -42.2 16.75 -35.25 15.9 -28.4 L14.45 -16.75 13.15 -14.85 12.35 -14.95 12.0 -15.7 Q13.15 -20.2 13.45 -24.8 L13.85 -35.75 13.6 -41.65 M4.65 -39.65 L3.75 -13.15 Q3.75 -12.55 3.35 -12.05 2.9 -11.5 2.25 -11.45 1.6 -11.4 1.1 -11.85 0.6 -12.35 0.55 -13.15 L0.45 -39.75 1.2 -39.0 1.55 -38.95 Q3.45 -38.4 4.65 -39.65 M5.45 -39.75 L6.4 -39.5 Q8.15 -38.85 9.25 -40.2 9.5 -33.4 9.0 -26.5 L8.15 -14.1 Q7.6 -11.8 5.3 -12.25 4.4 -12.5 4.05 -13.4 L5.45 -39.75 M17.35 -12.1 L17.6 -13.3 Q19.35 -11.65 17.4 -10.15 15.6 -8.85 13.25 -8.2 6.85 -6.65 0.25 -6.8 L-10.75 -7.8 Q-15.05 -8.3 -18.0 -11.3 L-18.15 -11.95 -17.65 -13.2 -16.75 -11.1 Q-16.55 -10.65 -16.1 -10.55 -13.05 -9.4 -9.5 -8.8 0.05 -7.55 9.65 -8.8 13.8 -9.15 16.85 -11.15 17.3 -11.5 17.35 -12.1 M-9.8 -40.95 L-10.05 -36.45 Q-10.35 -30.75 -9.7 -24.85 L-8.4 -14.0 -9.15 -13.2 Q-11.15 -13.55 -11.6 -15.4 L-12.2 -20.15 Q-13.0 -26.95 -12.95 -33.75 L-12.8 -41.65 -12.5 -41.15 Q-11.2 -39.85 -9.8 -40.95 M-5.3 -40.05 L-3.95 -13.1 Q-5.6 -11.35 -7.4 -13.15 L-7.9 -13.85 -8.0 -13.9 -8.85 -26.45 Q-9.35 -33.5 -9.15 -40.7 L-8.55 -40.15 -5.3 -40.05 M-4.55 -39.4 L-3.8 -39.0 Q-1.9 -38.25 -0.3 -39.7 L-0.4 -13.1 -1.35 -11.9 Q-2.85 -11.5 -3.6 -12.9 L-4.55 -39.4 M-15.9 -42.75 Q-17.35 -36.75 -16.9 -30.6 -16.4 -24.45 -15.1 -18.5 L-15.3 -18.35 -15.45 -18.2 -16.6 -19.45 -16.9 -21.2 Q-18.0 -27.3 -18.0 -33.45 -18.0 -38.5 -16.85 -43.4 L-16.55 -42.95 -15.9 -42.75 M-13.4 -41.9 L-13.8 -37.2 Q-14.0 -30.95 -13.35 -24.8 -12.9 -20.2 -11.85 -15.55 L-12.25 -15.1 -13.55 -15.2 -14.35 -17.2 -15.65 -28.4 Q-16.5 -35.65 -15.4 -42.75 L-15.1 -42.25 Q-14.35 -41.3 -13.4 -41.9" fill="#d5e1e6" fill-rule="evenodd" stroke="none"/>
    <path d="M18.55 -6.75 L18.2 -6.05 18.05 -6.0 18.0 -6.0 18.1 -6.5 18.55 -6.75" fill="#8db1ba" fill-rule="evenodd" stroke="none"/>
    <path d="M6.8 -1.95 L3.75 -1.9 -0.7 -1.95 Q-7.95 -1.5 -14.85 -4.05 -16.55 -4.65 -18.0 -5.9 L-17.95 -5.95 -18.1 -6.05 -18.45 -6.85 -18.0 -6.45 -17.9 -6.0 Q-14.6 -4.1 -10.6 -3.8 L0.05 -3.0 Q6.2 -2.95 12.35 -4.05 15.45 -4.55 18.0 -6.0 L18.05 -6.0 18.1 -5.9 Q15.1 -3.9 11.75 -2.9 9.35 -2.2 6.8 -1.95 M16.0 -42.95 L15.7 -43.95 16.7 -44.3 16.95 -43.4 16.7 -43.05 16.0 -42.95 M16.9 -20.4 L16.9 -20.3 15.95 -14.55 Q15.65 -13.15 16.55 -11.8 L15.4 -10.85 15.35 -11.1 Q15.05 -13.95 15.15 -16.8 L15.25 -18.55 Q15.65 -17.4 16.25 -18.55 L16.9 -20.4 M9.95 -40.5 L9.9 -42.5 12.75 -43.15 12.9 -42.0 Q12.6 -39.95 10.45 -40.2 L9.95 -40.5 M11.7 -15.2 L12.05 -9.7 9.35 -9.25 8.55 -14.25 9.7 -13.25 10.2 -13.3 Q11.55 -13.8 11.7 -15.2 M13.6 -41.65 L13.25 -43.25 15.25 -43.8 15.6 -42.2 Q15.2 -41.3 14.15 -41.4 L13.6 -41.65 M14.45 -16.75 L14.9 -10.65 12.6 -9.85 12.0 -15.7 12.35 -14.95 13.15 -14.85 14.45 -16.75 M0.45 -39.75 L0.45 -41.7 4.65 -41.85 4.65 -39.65 Q3.45 -38.4 1.55 -38.95 L1.2 -39.0 0.45 -39.75 M3.75 -13.15 L3.8 -8.8 0.6 -8.65 0.55 -13.15 Q0.6 -12.35 1.1 -11.85 1.6 -11.4 2.25 -11.45 2.9 -11.5 3.35 -12.05 3.75 -12.55 3.75 -13.15 M9.25 -40.2 Q8.15 -38.85 6.4 -39.5 L5.45 -39.75 5.35 -41.95 9.2 -42.4 9.25 -40.2 M4.05 -13.4 Q4.4 -12.5 5.3 -12.25 7.6 -11.8 8.15 -14.1 L8.45 -9.05 4.6 -8.85 4.05 -13.4 M-12.8 -41.65 L-12.65 -43.1 -9.65 -42.5 -9.8 -40.95 Q-11.2 -39.85 -12.5 -41.15 L-12.8 -41.65 M-8.4 -14.0 L-9.25 -9.25 -11.9 -9.7 -11.75 -10.2 Q-11.05 -12.75 -11.6 -15.4 -11.15 -13.55 -9.15 -13.2 L-8.4 -14.0 M-9.15 -40.7 L-9.05 -42.4 -5.2 -41.95 -5.3 -40.05 -8.55 -40.15 -9.15 -40.7 M-3.95 -13.1 L-4.45 -8.85 -8.3 -9.05 -8.0 -13.9 -7.9 -13.85 -7.4 -13.15 Q-5.6 -11.35 -3.95 -13.1 M-0.3 -39.7 Q-1.9 -38.25 -3.8 -39.0 L-4.55 -39.4 -4.5 -41.9 -0.35 -41.7 -0.3 -39.7 M-3.6 -12.9 Q-2.85 -11.5 -1.35 -11.9 L-0.4 -13.1 -0.45 -8.65 -3.8 -8.65 -3.6 -12.9 M-16.85 -43.4 L-16.6 -44.25 -15.6 -43.95 -15.9 -42.75 -16.55 -42.95 -16.85 -43.4 M-15.1 -18.5 Q-14.05 -15.45 -14.85 -12.45 L-15.3 -10.85 -16.45 -11.8 Q-15.3 -15.4 -16.6 -19.45 L-15.45 -18.2 -15.3 -18.35 -15.1 -18.5 M-15.4 -42.75 L-15.2 -43.75 -13.15 -43.25 -13.4 -41.9 Q-14.35 -41.3 -15.1 -42.25 L-15.4 -42.75 M-11.85 -15.55 L-12.45 -9.85 -14.75 -10.65 -14.35 -17.2 -13.55 -15.2 -12.25 -15.1 -11.85 -15.55" fill="#b4c0c5" fill-rule="evenodd" stroke="none"/>
    <path d="M13.5 -54.65 L14.35 -54.3 15.2 -53.65 15.05 -52.85 13.65 -52.8 Q5.7 -55.95 -3.25 -55.25 -6.2 -54.85 -8.95 -53.95 -11.35 -53.1 -13.75 -53.6 L-14.0 -54.05 Q-13.5 -54.55 -12.85 -54.75 -9.65 -56.05 -6.15 -56.45 L9.05 -55.9 13.5 -54.65" fill="#ffffff" fill-rule="evenodd" stroke="none"/>
    <path d="M-18.5 -49.85 Q-15.35 -48.3 -12.0 -47.7 -4.35 -46.2 3.45 -46.7 11.4 -46.75 18.55 -49.85 L18.65 -48.6 Q12.2 -45.2 4.55 -45.1 L-9.1 -45.55 Q-14.3 -46.2 -18.65 -48.9 L-18.6 -49.85 -18.5 -49.85 M18.7 -47.15 L18.7 -47.1 18.65 -47.1 18.7 -47.15 M-18.55 -46.9 L-18.6 -46.9 -18.55 -46.9 M3.9 -43.25 Q11.75 -43.3 18.55 -46.45 12.75 -42.55 5.35 -42.3 L-9.05 -42.75 Q-14.35 -43.45 -18.55 -46.35 -18.75 -47.05 -18.2 -46.5 -17.65 -46.0 -16.95 -45.75 -10.0 -43.35 -2.6 -43.3 L3.9 -43.25" fill="#9eafb6" fill-rule="evenodd" stroke="none"/>
    <path d="M9.0 -56.45 L1.65 -57.2 Q-7.1 -57.85 -14.95 -54.55 -16.65 -53.8 -16.45 -51.95 -15.35 -50.5 -13.45 -50.15 L-4.2 -48.95 11.05 -49.75 Q14.4 -50.15 16.5 -51.95 16.8 -53.15 15.7 -53.95 12.75 -55.85 9.0 -56.45 M6.8 -1.95 Q0.35 -1.05 -6.35 -1.8 -13.15 -2.3 -19.2 -5.3 L-19.25 -9.45 Q-19.2 -11.25 -18.65 -13.0 -18.3 -14.15 -16.8 -14.5 L-17.15 -16.45 Q-18.7 -27.15 -18.5 -37.95 -18.45 -41.4 -17.4 -44.6 L-19.35 -45.55 Q-20.05 -47.6 -19.7 -49.7 -19.4 -51.5 -18.75 -53.15 L-17.8 -54.1 Q-11.65 -57.3 -4.35 -57.55 L8.85 -57.1 11.75 -56.5 16.1 -55.25 Q18.6 -54.65 19.2 -52.75 20.3 -49.1 19.4 -45.55 L17.55 -44.55 18.1 -41.05 Q19.2 -28.95 17.0 -17.0 16.75 -15.55 17.15 -14.35 L17.8 -13.95 18.7 -12.9 19.65 -9.45 Q20.0 -7.35 19.3 -5.3 L13.95 -3.5 11.75 -2.9 Q15.1 -3.9 18.1 -5.9 L18.2 -6.05 18.55 -6.75 18.55 -9.65 18.55 -9.7 18.5 -9.65 Q14.9 -7.85 10.95 -7.15 L-4.35 -6.4 Q-11.85 -6.55 -18.4 -9.65 L-18.45 -9.7 -18.45 -9.65 -18.45 -6.85 -18.1 -6.05 -18.0 -5.9 Q-16.55 -4.65 -14.85 -4.05 -7.95 -1.5 -0.7 -1.95 L3.75 -1.9 6.8 -1.95 M18.65 -48.6 L18.55 -49.85 Q11.4 -46.75 3.45 -46.7 -4.35 -46.2 -12.0 -47.7 -15.35 -48.3 -18.5 -49.85 L-18.55 -49.9 -18.6 -49.85 -18.65 -48.9 -18.55 -46.9 Q-11.5 -43.8 -3.4 -43.65 L10.45 -44.35 Q14.45 -45.0 18.15 -46.75 L18.65 -47.1 18.7 -47.1 18.7 -47.15 18.65 -48.6 M-18.55 -46.9 L-18.6 -46.9 -18.55 -46.9 M16.9 -51.2 L15.45 -50.55 Q10.15 -48.7 4.35 -48.55 L-3.2 -48.35 Q-10.35 -48.35 -16.85 -51.2 L-17.7 -53.45 Q-19.5 -51.2 -16.5 -49.95 -12.7 -48.2 -8.7 -47.75 3.25 -45.8 14.65 -49.1 16.55 -49.75 17.9 -51.05 19.15 -52.45 17.6 -53.55 L16.9 -51.2 M16.95 -43.4 L16.7 -44.3 15.7 -43.95 16.0 -42.95 Q17.6 -36.85 17.0 -30.6 16.45 -24.6 15.25 -18.55 L15.15 -16.8 Q15.05 -13.95 15.35 -11.1 L15.4 -10.85 16.55 -11.8 Q15.65 -13.15 15.95 -14.55 L16.9 -20.3 16.9 -20.4 17.15 -21.95 Q18.15 -27.8 18.1 -33.45 18.1 -38.45 16.95 -43.4 M12.9 -42.0 L12.75 -43.15 9.9 -42.5 9.95 -40.5 Q10.6 -34.1 10.05 -27.85 L8.55 -14.25 9.35 -9.25 12.05 -9.7 11.7 -15.2 11.75 -15.6 12.35 -20.15 Q13.2 -26.95 13.1 -33.75 L12.9 -42.0 M15.6 -42.2 L15.25 -43.8 13.25 -43.25 13.6 -41.65 13.85 -35.75 13.45 -24.8 Q13.15 -20.2 12.0 -15.7 L12.6 -9.85 14.9 -10.65 14.45 -16.75 15.9 -28.4 Q16.75 -35.25 15.6 -42.2 M4.65 -39.65 L4.65 -41.85 0.45 -41.7 0.45 -39.75 0.55 -13.15 0.6 -8.65 3.8 -8.8 3.75 -13.15 4.65 -39.65 M9.25 -40.2 L9.2 -42.4 5.35 -41.95 5.45 -39.75 4.05 -13.4 4.6 -8.85 8.45 -9.05 8.15 -14.1 9.0 -26.5 Q9.5 -33.4 9.25 -40.2 M3.9 -43.25 L-2.6 -43.3 Q-10.0 -43.35 -16.95 -45.75 -17.65 -46.0 -18.2 -46.5 -18.75 -47.05 -18.55 -46.35 -14.35 -43.45 -9.05 -42.75 L5.35 -42.3 Q12.75 -42.55 18.55 -46.45 11.75 -43.3 3.9 -43.25 M18.1 -6.5 L18.0 -6.0 Q15.45 -4.55 12.35 -4.05 6.2 -2.95 0.05 -3.0 L-10.6 -3.8 Q-14.6 -4.1 -17.9 -6.0 L-18.0 -6.45 -14.35 -5.2 -10.7 -4.4 4.25 -3.4 Q11.6 -3.5 18.1 -6.5 M17.35 -12.1 Q17.3 -11.5 16.85 -11.15 13.8 -9.15 9.65 -8.8 0.05 -7.55 -9.5 -8.8 -13.05 -9.4 -16.1 -10.55 -16.55 -10.65 -16.75 -11.1 L-17.65 -13.2 -18.15 -11.95 -18.0 -11.3 Q-15.05 -8.3 -10.75 -7.8 L0.25 -6.8 Q6.85 -6.65 13.25 -8.2 15.6 -8.85 17.4 -10.15 19.35 -11.65 17.6 -13.3 L17.35 -12.1 M-9.8 -40.95 L-9.65 -42.5 -12.65 -43.1 -12.8 -41.65 -12.95 -33.75 Q-13.0 -26.95 -12.2 -20.15 L-11.6 -15.4 Q-11.05 -12.75 -11.75 -10.2 L-11.9 -9.7 -9.25 -9.25 -8.4 -14.0 -9.7 -24.85 Q-10.35 -30.75 -10.05 -36.45 L-9.8 -40.95 M-5.3 -40.05 L-5.2 -41.95 -9.05 -42.4 -9.15 -40.7 Q-9.35 -33.5 -8.85 -26.45 L-8.0 -13.9 -8.3 -9.05 -4.45 -8.85 -3.95 -13.1 -5.3 -40.05 M-0.3 -39.7 L-0.35 -41.7 -4.5 -41.9 -4.55 -39.4 -3.6 -12.9 -3.8 -8.65 -0.45 -8.65 -0.4 -13.1 -0.3 -39.7 M-15.9 -42.75 L-15.6 -43.95 -16.6 -44.25 -16.85 -43.4 Q-18.0 -38.5 -18.0 -33.45 -18.0 -27.3 -16.9 -21.2 L-16.6 -19.45 Q-15.3 -15.4 -16.45 -11.8 L-15.3 -10.85 -14.85 -12.45 Q-14.05 -15.45 -15.1 -18.5 -16.4 -24.45 -16.9 -30.6 -17.35 -36.75 -15.9 -42.75 M-13.4 -41.9 L-13.15 -43.25 -15.2 -43.75 -15.4 -42.75 Q-16.5 -35.65 -15.65 -28.4 L-14.35 -17.2 -14.75 -10.65 -12.45 -9.85 -11.85 -15.55 Q-12.9 -20.2 -13.35 -24.8 -14.0 -30.95 -13.8 -37.2 L-13.4 -41.9" fill="#627173" fill-rule="evenodd" stroke="none"/>
  </g>
</svg>
