<?xml version="1.0" encoding="UTF-8" standalone="no"?>
<svg xmlns:ffdec="https://www.free-decompiler.com/flash" xmlns:xlink="http://www.w3.org/1999/xlink" ffdec:objectType="shape" height="43.85px" width="29.9px" xmlns="http://www.w3.org/2000/svg">
  <g transform="matrix(1.0, 0.0, 0.0, 1.0, 14.85, 44.05)">
    <path d="M9.95 -29.35 L10.3 -28.9 10.65 -27.0 Q11.25 -28.05 10.8 -29.3 L10.75 -29.4 10.5 -29.6 Q10.4 -30.25 10.45 -30.85 L10.65 -31.0 11.75 -31.9 13.05 -33.2 13.7 -33.95 Q14.45 -32.7 14.35 -30.9 L13.9 -27.65 13.8 -27.2 13.7 -27.25 13.55 -27.5 13.1 -26.8 13.55 -26.15 12.7 -23.75 12.25 -23.4 9.9 -21.7 9.5 -21.5 Q8.25 -20.7 6.8 -20.3 L5.9 -20.05 3.0 -19.6 0.15 -19.5 -2.55 -19.6 -4.4 -19.75 -5.15 -19.85 -5.5 -19.9 -6.6 -20.2 Q-8.05 -20.4 -9.15 -21.3 L-9.8 -21.7 -10.1 -21.9 -10.6 -22.3 -12.55 -24.45 -12.65 -24.7 -13.0 -25.2 -13.05 -25.2 -13.1 -25.15 -13.45 -26.15 Q-13.05 -26.35 -13.0 -26.8 L-13.05 -27.2 -13.35 -27.45 -13.4 -27.5 -13.55 -27.25 -13.6 -27.2 -13.7 -27.45 -14.05 -31.25 -13.9 -32.4 -13.4 -34.1 -13.3 -33.9 -13.05 -33.45 -12.65 -32.85 -13.45 -32.95 -13.7 -32.05 Q-13.4 -31.75 -13.25 -32.05 L-13.1 -32.15 -12.55 -31.35 Q-12.0 -30.05 -12.9 -30.05 L-13.1 -31.25 Q-13.45 -31.45 -13.6 -31.1 -14.05 -30.0 -13.4 -29.2 L-13.2 -29.2 -13.05 -29.35 -12.6 -29.15 Q-11.9 -29.3 -11.6 -29.9 -11.1 -31.15 -12.3 -32.3 L-12.65 -32.85 -11.2 -31.65 -10.5 -31.15 -10.3 -31.05 -10.35 -29.5 -10.9 -28.9 -10.5 -27.0 Q-10.7 -28.45 -9.6 -29.35 L-9.6 -29.4 Q-9.3 -29.15 -8.85 -29.0 L-7.45 -28.55 -3.95 -27.9 -3.45 -27.8 Q-3.1 -26.75 -2.1 -26.4 L-1.8 -26.35 -1.4 -24.25 -0.4 -24.0 0.0 -23.35 0.55 -24.0 1.35 -24.0 Q2.05 -24.85 1.85 -25.95 L2.5 -26.45 Q3.35 -27.0 3.6 -27.9 L4.65 -27.85 4.85 -27.9 7.75 -28.6 9.0 -29.0 9.5 -29.1 9.95 -29.35 M-6.15 -19.35 L-6.5 -19.45 -6.85 -19.55 -6.9 -19.6 -6.95 -19.6 -7.25 -19.7 -7.55 -19.8 -7.05 -19.65 -6.85 -19.6 -6.15 -19.4 -6.15 -19.35 M-11.95 -22.6 L-12.0 -22.7 -12.05 -22.85 -11.9 -22.65 -11.95 -22.6 M2.8 -29.15 L2.85 -28.45 2.85 -28.35 3.0 -27.7 2.8 -27.1 1.85 -26.85 Q1.25 -26.5 1.2 -25.7 L1.2 -24.95 Q0.55 -24.35 -0.05 -24.55 L-0.9 -24.7 -1.5 -26.65 -2.6 -27.0 -2.7 -29.5 -1.4 -29.3 -1.45 -29.2 -1.4 -28.05 -2.0 -28.6 -1.9 -27.4 -1.4 -27.25 Q-0.85 -27.5 -0.65 -27.85 L-0.9 -29.0 -0.55 -29.2 -0.15 -29.15 0.05 -29.05 0.25 -29.1 0.95 -29.05 1.05 -29.0 1.05 -27.6 1.9 -27.25 Q2.35 -27.6 2.3 -28.3 L2.0 -28.55 1.5 -28.05 1.65 -29.05 2.05 -29.05 2.8 -29.15 M0.6 -27.15 Q-0.05 -27.1 0.15 -26.15 L0.05 -26.15 0.05 -26.95 Q-0.85 -27.5 -0.9 -26.1 L-0.75 -25.7 0.05 -25.3 Q1.0 -25.45 1.1 -26.4 L0.6 -27.15 M13.25 -33.0 L12.8 -32.85 12.5 -32.2 Q11.5 -31.15 11.85 -29.95 12.0 -29.3 12.75 -29.15 L13.2 -29.3 13.7 -29.1 Q14.4 -30.3 13.65 -31.35 L13.15 -31.1 13.05 -30.05 12.8 -30.1 Q12.25 -30.75 12.7 -31.35 L13.1 -31.7 13.25 -32.25 13.3 -32.3 13.4 -32.05 13.5 -32.0 13.8 -32.05 13.85 -32.4 Q13.75 -33.1 13.25 -33.0 M11.85 -27.25 Q11.6 -28.0 11.5 -27.4 L11.55 -26.4 11.7 -26.2 Q12.4 -26.2 12.7 -26.95 L13.0 -27.75 12.45 -27.75 11.85 -27.25 M13.0 -21.4 Q12.75 -20.35 12.0 -19.55 10.8 -18.35 9.1 -17.85 1.4 -15.2 -6.55 -17.1 L-8.95 -17.95 Q-10.25 -18.5 -11.45 -19.2 L-12.0 -19.65 -12.25 -19.9 Q-13.1 -20.65 -12.65 -21.85 L-11.8 -21.8 -8.85 -19.55 Q-8.05 -19.05 -7.05 -18.9 L4.5 -18.5 7.2 -18.9 8.2 -19.35 12.15 -21.65 Q12.5 -22.25 12.85 -21.65 L13.0 -21.4 M-12.8 -10.9 L-12.7 -11.15 -12.15 -11.9 -10.2 -13.6 -10.35 -13.0 -11.35 -10.3 -11.35 -9.25 Q-10.6 -6.85 -8.6 -5.95 -4.45 -4.3 0.0 -4.3 3.15 -4.3 6.1 -5.05 L8.75 -5.95 Q9.85 -6.3 10.55 -7.15 11.6 -8.4 11.45 -10.05 L11.05 -11.65 10.35 -12.95 10.3 -13.3 Q11.3 -12.8 12.3 -11.9 L12.7 -11.5 12.7 -11.3 12.95 -10.45 12.9 -7.9 12.8 -7.5 Q12.5 -6.05 11.45 -4.95 L11.25 -4.75 11.0 -4.55 10.95 -4.5 10.65 -4.35 Q8.8 -3.4 6.8 -3.0 L-4.75 -2.55 -6.5 -2.95 -7.4 -3.25 -10.0 -4.3 -11.0 -5.0 -11.1 -5.15 -11.25 -5.25 -11.95 -6.25 -12.3 -6.9 -12.75 -7.8 -12.75 -7.9 Q-13.05 -8.9 -13.0 -10.0 L-12.95 -10.05 -12.9 -10.6 -12.9 -10.65 -12.85 -10.75 -12.8 -10.9 M13.25 -10.7 L13.35 -10.35 13.25 -10.35 13.25 -10.7 M-13.3 -8.2 L-13.3 -8.3 -13.3 -8.2 M0.7 -17.7 L-0.6 -17.7 0.1 -17.65 0.7 -17.7 M0.35 -12.5 L0.8 -12.55 2.2 -12.65 2.8 -12.7 2.8 -12.65 3.85 -6.95 3.95 -6.5 1.65 -6.3 0.5 -6.25 0.35 -12.5 M3.2 -12.8 Q4.05 -12.95 4.85 -13.25 L5.1 -13.35 5.35 -13.45 Q5.45 -11.6 6.4 -9.8 L7.1 -8.75 7.9 -7.8 7.4 -7.5 4.95 -6.65 4.9 -6.7 4.5 -7.4 Q3.25 -10.0 3.2 -12.8 M7.45 -14.6 L7.5 -14.65 7.95 -15.05 Q8.15 -14.1 8.75 -13.25 L9.4 -12.15 9.45 -12.1 9.5 -10.75 9.1 -11.1 Q7.6 -12.6 7.45 -14.6 M7.0 -14.3 Q7.15 -11.95 9.05 -10.15 L9.35 -9.9 9.1 -9.15 8.8 -8.65 8.5 -8.25 7.45 -9.45 Q6.05 -11.5 5.95 -13.8 L6.15 -13.9 7.0 -14.3 M6.0 -14.95 L6.0 -15.0 6.05 -15.0 6.0 -14.95 M9.4 -7.7 L9.4 -7.75 9.4 -7.7 M-11.3 -26.35 L-11.3 -27.4 -11.55 -27.55 -11.6 -27.55 -11.7 -27.45 -12.1 -27.55 -12.55 -27.8 -12.55 -27.0 Q-12.5 -26.75 -12.05 -26.25 L-11.3 -26.35 M-6.85 -14.1 L-6.15 -13.7 -5.85 -13.55 Q-5.9 -11.35 -7.3 -9.5 L-7.9 -8.7 -8.35 -8.15 -8.45 -8.25 Q-9.05 -8.85 -9.35 -9.6 L-8.1 -11.0 Q-7.0 -12.45 -6.85 -14.1 M-5.15 -13.25 L-3.35 -12.8 -3.1 -12.75 Q-3.1 -10.0 -4.35 -7.4 L-4.85 -6.45 -4.95 -6.5 -6.0 -6.7 -7.9 -7.75 -7.6 -8.05 -7.6 -8.1 -6.95 -8.7 Q-5.3 -10.75 -5.15 -13.25 M-9.55 -10.55 L-9.55 -11.2 -9.5 -11.5 -9.0 -12.55 -8.9 -12.7 -8.4 -13.4 -8.25 -13.65 -7.85 -14.8 -7.6 -14.6 -7.35 -14.4 Q-7.4 -13.65 -7.7 -12.95 L-9.25 -10.8 -9.55 -10.55 M-2.6 -12.65 L-2.15 -12.55 -0.15 -12.5 -0.3 -6.25 -2.4 -6.3 -3.85 -6.4 -3.75 -6.95 Q-2.95 -9.6 -2.6 -12.65" fill="#d5e1e6" fill-rule="evenodd" stroke="none"/>
    <path d="M3.6 -27.9 L3.65 -28.15 3.3 -29.15 3.25 -29.2 4.2 -30.25 9.3 -31.3 9.3 -31.25 9.7 -29.7 9.95 -29.35 9.5 -29.1 9.0 -29.0 7.75 -28.6 4.85 -27.9 4.65 -27.85 3.6 -27.9 M10.45 -30.85 L10.45 -31.25 10.4 -31.85 Q12.15 -32.85 13.3 -34.55 L13.7 -33.95 13.05 -33.2 11.75 -31.9 10.65 -31.0 10.45 -30.85 M12.7 -23.75 L11.8 -22.15 11.75 -22.15 11.7 -22.05 Q10.9 -20.95 9.4 -20.3 4.85 -18.35 0.0 -18.45 -3.15 -18.5 -6.15 -19.35 L-6.15 -19.4 -6.85 -19.6 -7.05 -19.65 -7.55 -19.8 -7.7 -19.85 -8.35 -20.05 -8.6 -20.15 -9.2 -20.4 -10.15 -20.8 -10.5 -21.0 -10.95 -21.35 -11.25 -21.65 -11.45 -21.85 -11.5 -21.95 -11.95 -22.6 -11.9 -22.65 -12.05 -22.85 -12.1 -22.85 -12.25 -23.2 -13.1 -25.15 -13.05 -25.2 -13.0 -25.2 -12.65 -24.7 -12.55 -24.45 -10.6 -22.3 -10.1 -21.9 -9.8 -21.7 -9.15 -21.3 Q-8.05 -20.4 -6.6 -20.2 L-5.5 -19.9 -5.15 -19.85 -4.4 -19.75 -2.55 -19.6 0.15 -19.5 3.0 -19.6 5.9 -20.05 6.8 -20.3 Q8.25 -20.7 9.5 -21.5 L9.9 -21.7 12.25 -23.4 12.7 -23.75 M-13.4 -34.1 L-13.35 -34.35 -13.2 -34.55 Q-12.5 -34.1 -11.95 -33.3 L-11.05 -32.3 -10.3 -31.85 -10.3 -31.05 -10.5 -31.15 -11.2 -31.65 -12.65 -32.85 -13.05 -33.45 -13.3 -33.9 -13.4 -34.1 M-9.6 -29.4 L-9.15 -31.3 -6.2 -30.75 -4.55 -30.4 Q-3.9 -30.2 -3.65 -29.9 L-3.1 -29.2 -3.55 -28.15 -3.45 -27.8 -3.95 -27.9 -7.45 -28.55 -8.85 -29.0 Q-9.3 -29.15 -9.6 -29.4 M-2.7 -29.5 L-2.75 -30.2 3.05 -29.9 2.8 -29.15 2.05 -29.05 1.65 -29.05 1.65 -29.2 0.55 -29.9 Q-0.45 -30.05 -1.35 -29.35 L-1.4 -29.3 -2.7 -29.5 M0.95 -29.05 L0.25 -29.1 0.6 -29.3 0.95 -29.05 M-0.15 -29.15 L-0.55 -29.2 -0.4 -29.3 -0.1 -29.15 -0.15 -29.15 M12.7 -11.5 L13.25 -10.7 13.25 -10.35 13.35 -10.35 Q13.6 -9.6 13.45 -8.7 L12.9 -5.85 Q12.65 -4.95 11.95 -4.25 9.45 -1.9 6.0 -1.55 L-0.75 -1.0 Q-4.5 -1.1 -8.35 -2.1 -10.8 -2.7 -12.2 -4.7 L-12.8 -5.85 Q-13.3 -7.05 -13.3 -8.2 L-13.3 -8.3 Q-13.35 -9.5 -12.9 -10.65 L-12.9 -10.6 -12.95 -10.05 -13.0 -10.0 Q-13.05 -8.9 -12.75 -7.9 L-12.75 -7.8 -12.3 -6.9 -11.95 -6.25 -11.25 -5.25 -11.1 -5.15 -11.0 -5.0 -10.0 -4.3 -7.4 -3.25 -6.5 -2.95 -4.75 -2.55 6.8 -3.0 Q8.8 -3.4 10.65 -4.35 L10.95 -4.5 11.0 -4.55 11.25 -4.75 11.45 -4.95 Q12.5 -6.05 12.8 -7.5 L12.9 -7.9 12.95 -10.45 12.7 -11.3 12.7 -11.5 M-12.85 -10.75 L-12.8 -10.9 -12.85 -10.75 M0.35 -12.5 L0.3 -14.2 0.8 -15.6 2.65 -15.75 2.7 -13.75 2.8 -12.7 2.2 -12.65 0.8 -12.55 0.35 -12.5 M3.95 -6.5 L3.95 -5.4 3.9 -5.3 0.5 -5.05 0.5 -6.25 1.65 -6.3 3.95 -6.5 M5.35 -13.45 L5.1 -13.35 4.85 -13.25 Q4.05 -12.95 3.2 -12.8 L3.2 -13.85 3.35 -15.2 Q3.4 -15.6 3.8 -15.9 L5.55 -15.95 5.35 -14.6 5.35 -13.45 M4.95 -6.65 L7.4 -7.5 7.9 -7.8 8.25 -7.35 7.95 -6.3 7.85 -6.35 7.55 -6.05 5.8 -5.75 5.5 -5.75 5.5 -5.8 4.95 -6.65 M7.45 -14.6 L7.4 -15.4 Q7.45 -15.9 7.65 -16.2 7.95 -16.75 7.85 -16.15 L7.95 -15.05 7.5 -14.65 7.45 -14.6 M9.45 -12.1 L10.8 -11.1 10.9 -10.25 10.4 -10.3 Q9.9 -10.45 9.5 -10.75 L9.45 -12.1 M6.0 -15.0 L6.15 -15.95 7.1 -16.15 7.05 -15.6 7.0 -14.3 6.15 -13.9 5.95 -13.8 6.0 -14.95 6.05 -15.0 6.0 -15.0 M9.35 -9.9 L10.15 -9.1 10.35 -8.9 10.7 -8.55 Q10.6 -7.7 9.85 -7.55 L9.75 -7.55 Q9.55 -7.65 9.4 -7.7 L8.5 -8.25 8.8 -8.65 9.1 -9.15 9.35 -9.9 M9.4 -7.7 L9.4 -7.75 9.4 -7.7 M-6.85 -14.1 L-6.85 -15.4 -7.0 -16.15 -6.35 -16.05 -6.15 -15.9 -5.9 -14.85 -5.85 -14.1 -5.85 -13.55 -6.15 -13.7 -6.85 -14.1 M-8.35 -8.15 Q-8.7 -7.85 -9.15 -7.7 L-9.7 -7.55 -9.75 -7.55 Q-10.55 -7.7 -10.5 -8.55 L-10.3 -8.8 -10.25 -8.9 -10.05 -9.05 -9.35 -9.6 Q-9.05 -8.85 -8.45 -8.25 L-8.35 -8.15 M-5.15 -13.25 L-5.15 -14.45 -5.4 -15.9 -5.4 -15.95 -3.5 -15.9 -3.35 -15.15 -3.15 -13.75 -3.1 -12.75 -3.35 -12.8 -5.15 -13.25 M-4.85 -6.45 L-5.35 -5.8 -5.4 -5.75 -5.9 -5.75 -6.55 -5.75 -7.4 -6.05 -7.8 -6.25 -8.2 -7.0 Q-8.25 -7.4 -7.9 -7.75 L-6.0 -6.7 -4.95 -6.5 -4.85 -6.45 M-8.9 -12.7 L-9.0 -12.55 -9.5 -11.5 -9.55 -11.2 -9.55 -10.55 -10.4 -10.25 -10.7 -10.25 -10.75 -10.45 -10.45 -11.1 -9.6 -12.05 -8.9 -12.7 M-7.35 -14.4 L-7.6 -14.6 -7.85 -14.8 Q-7.65 -15.55 -7.7 -16.45 L-7.35 -15.8 -7.3 -14.4 -7.35 -14.4 M-2.6 -12.65 L-2.6 -12.95 -2.5 -13.9 -2.45 -15.05 -2.5 -15.75 -0.65 -15.6 Q-0.1 -14.95 -0.1 -14.2 L-0.1 -13.5 -0.15 -12.5 -2.15 -12.55 -2.6 -12.65 M-0.3 -6.25 L-0.35 -5.75 -0.35 -5.35 -0.4 -5.05 -3.75 -5.3 -3.8 -5.4 -3.85 -6.4 -2.4 -6.3 -0.3 -6.25" fill="#b4c0c5" fill-rule="evenodd" stroke="none"/>
    <path d="M13.85 -37.85 L13.9 -37.35 14.55 -34.15 Q15.95 -28.2 13.35 -22.85 14.05 -20.75 12.65 -19.1 11.7 -18.0 10.3 -17.3 L8.85 -16.5 8.85 -14.45 9.4 -14.65 Q11.25 -14.2 12.4 -12.75 L12.6 -12.5 Q14.7 -9.55 13.5 -6.05 12.7 -3.7 10.65 -2.55 L9.85 -1.9 8.6 -1.45 Q5.55 -0.5 2.25 -0.3 L0.1 -0.2 -5.9 -0.8 -8.2 -1.4 Q-10.25 -2.05 -11.8 -3.6 -13.5 -5.3 -13.8 -7.65 -14.0 -9.3 -13.4 -10.9 -12.25 -13.7 -9.25 -14.65 L-8.9 -14.6 -8.75 -14.5 -8.6 -14.8 -8.7 -16.7 Q-10.9 -17.35 -12.4 -19.1 -13.25 -20.05 -13.25 -21.4 L-13.5 -22.75 Q-15.15 -26.8 -14.8 -31.2 L-14.2 -35.6 Q-13.8 -38.0 -12.85 -40.2 L-12.55 -40.45 Q-9.3 -42.85 -5.4 -43.55 L0.1 -44.0 5.5 -43.55 Q9.35 -43.0 12.35 -40.6 L13.0 -40.2 Q13.75 -39.1 13.85 -37.85 M11.95 -39.55 L11.9 -37.6 11.15 -36.35 10.25 -35.4 Q7.35 -33.25 3.9 -32.8 L0.1 -32.6 -3.75 -32.8 Q-6.55 -33.25 -9.0 -34.65 -9.9 -35.15 -10.6 -35.85 -12.15 -37.3 -11.75 -39.55 L-12.35 -39.65 Q-13.7 -37.2 -12.35 -34.8 L-11.15 -33.5 Q-9.05 -32.05 -6.6 -31.5 L0.0 -30.85 3.45 -31.0 7.95 -32.0 Q10.65 -32.6 12.4 -34.65 L12.9 -35.5 Q13.35 -36.95 13.05 -38.6 12.8 -40.15 11.95 -39.55 M9.95 -29.35 L9.7 -29.7 9.3 -31.25 9.3 -31.3 4.2 -30.25 3.25 -29.2 3.3 -29.15 3.65 -28.15 3.6 -27.9 Q3.35 -27.0 2.5 -26.45 L1.85 -25.95 Q2.05 -24.85 1.35 -24.0 L0.55 -24.0 0.0 -23.35 -0.4 -24.0 -1.4 -24.25 -1.8 -26.35 -2.1 -26.4 Q-3.1 -26.75 -3.45 -27.8 L-3.55 -28.15 -3.1 -29.2 -3.65 -29.9 Q-3.9 -30.2 -4.55 -30.4 L-6.2 -30.75 -9.15 -31.3 -9.6 -29.4 -9.6 -29.35 Q-10.7 -28.45 -10.5 -27.0 L-10.9 -28.9 -10.35 -29.5 -10.3 -31.05 -10.3 -31.85 -11.05 -32.3 -11.95 -33.3 Q-12.5 -34.1 -13.2 -34.55 L-13.35 -34.35 -13.4 -34.1 -13.9 -32.4 -14.05 -31.25 -13.7 -27.45 -13.6 -27.2 -13.55 -27.0 -13.55 -27.25 -13.4 -27.5 -13.35 -27.45 -13.05 -27.2 -13.0 -26.8 Q-13.05 -26.35 -13.45 -26.15 L-13.1 -25.15 -12.25 -23.2 -12.1 -22.85 -12.05 -22.85 -12.0 -22.7 -11.95 -22.6 -11.5 -21.95 -11.45 -21.85 -11.25 -21.65 -10.95 -21.35 -10.5 -21.0 -10.15 -20.8 -9.2 -20.4 -8.6 -20.15 -8.35 -20.05 -7.7 -19.85 -7.55 -19.8 -7.25 -19.7 -6.95 -19.6 -6.9 -19.6 -6.85 -19.55 -6.5 -19.45 -6.15 -19.35 Q-3.15 -18.5 0.0 -18.45 4.85 -18.35 9.4 -20.3 10.9 -20.95 11.7 -22.05 L11.75 -22.15 11.8 -22.15 12.7 -23.75 13.55 -26.15 13.1 -26.8 13.55 -27.5 13.7 -27.25 13.75 -27.1 13.8 -27.2 13.9 -27.65 14.35 -30.9 Q14.45 -32.7 13.7 -33.95 L13.3 -34.55 Q12.15 -32.85 10.4 -31.85 L10.45 -31.25 10.45 -30.85 Q10.4 -30.25 10.5 -29.6 L10.75 -29.4 10.8 -29.3 Q11.25 -28.05 10.65 -27.0 L10.3 -28.9 9.95 -29.35 M-2.7 -29.5 L-2.6 -27.0 -1.5 -26.65 -0.9 -24.7 -0.05 -24.55 Q0.55 -24.35 1.2 -24.95 L1.2 -25.7 Q1.25 -26.5 1.85 -26.85 L2.8 -27.1 3.0 -27.7 2.85 -28.35 2.85 -28.45 2.8 -29.15 3.05 -29.9 -2.75 -30.2 -2.7 -29.5 M1.65 -29.05 L1.5 -28.05 2.0 -28.55 2.3 -28.3 Q2.35 -27.6 1.9 -27.25 L1.05 -27.6 1.05 -29.0 0.95 -29.05 0.6 -29.3 0.25 -29.1 0.05 -29.05 -0.15 -29.15 -0.1 -29.15 -0.4 -29.3 -0.55 -29.2 -0.9 -29.0 -0.65 -27.85 Q-0.85 -27.5 -1.4 -27.25 L-1.9 -27.4 -2.0 -28.6 -1.4 -28.05 -1.45 -29.2 -1.4 -29.3 -1.35 -29.35 Q-0.45 -30.05 0.55 -29.9 L1.65 -29.2 1.65 -29.05 M0.6 -27.15 L1.1 -26.4 Q1.0 -25.45 0.05 -25.3 L-0.75 -25.7 -0.9 -26.1 Q-0.85 -27.5 0.05 -26.95 L0.05 -26.15 0.15 -26.15 Q-0.05 -27.1 0.6 -27.15 M13.25 -33.0 Q13.75 -33.1 13.85 -32.4 L13.8 -32.05 13.5 -32.0 13.4 -32.05 13.3 -32.3 13.25 -32.25 13.1 -31.7 12.7 -31.35 Q12.25 -30.75 12.8 -30.1 L13.05 -30.05 13.15 -31.1 13.65 -31.35 Q14.4 -30.3 13.7 -29.1 L13.2 -29.3 12.75 -29.15 Q12.0 -29.3 11.85 -29.95 11.5 -31.15 12.5 -32.2 L12.8 -32.85 13.25 -33.0 M11.85 -27.25 L12.45 -27.75 13.0 -27.75 12.7 -26.95 Q12.4 -26.2 11.7 -26.2 L11.55 -26.4 11.5 -27.4 Q11.6 -28.0 11.85 -27.25 M12.7 -11.5 L12.3 -11.9 Q11.3 -12.8 10.3 -13.3 L10.35 -12.95 11.05 -11.65 11.45 -10.05 Q11.6 -8.4 10.55 -7.15 9.85 -6.3 8.75 -5.95 L6.1 -5.05 Q3.15 -4.3 0.0 -4.3 -4.45 -4.3 -8.6 -5.95 -10.6 -6.85 -11.35 -9.25 L-11.35 -10.3 -10.35 -13.0 -10.2 -13.6 -12.15 -11.9 -12.7 -11.15 -12.8 -10.9 -12.85 -10.75 -12.9 -10.65 Q-13.35 -9.5 -13.3 -8.3 L-13.3 -8.2 Q-13.3 -7.05 -12.8 -5.85 L-12.2 -4.7 Q-10.8 -2.7 -8.35 -2.1 -4.5 -1.1 -0.75 -1.0 L6.0 -1.55 Q9.45 -1.9 11.95 -4.25 12.65 -4.95 12.9 -5.85 L13.45 -8.7 Q13.6 -9.6 13.35 -10.35 L13.25 -10.7 12.7 -11.5 M13.0 -21.4 L12.85 -21.65 Q12.5 -22.25 12.15 -21.65 L8.2 -19.35 7.2 -18.9 4.5 -18.5 -7.05 -18.9 Q-8.05 -19.05 -8.85 -19.55 L-11.8 -21.8 -12.65 -21.85 Q-13.1 -20.65 -12.25 -19.9 L-12.0 -19.65 -11.45 -19.2 Q-10.25 -18.5 -8.95 -17.95 L-6.55 -17.1 Q1.4 -15.2 9.1 -17.85 10.8 -18.35 12.0 -19.55 12.75 -20.35 13.0 -21.4 M0.7 -17.7 L0.1 -17.65 -0.6 -17.7 0.7 -17.7 M2.8 -12.7 L2.7 -13.75 2.65 -15.75 0.8 -15.6 0.3 -14.2 0.35 -12.5 0.5 -6.25 0.5 -5.05 3.9 -5.3 3.95 -5.4 3.95 -6.5 3.85 -6.95 2.8 -12.65 2.8 -12.7 M5.35 -13.45 L5.35 -14.6 5.55 -15.95 3.8 -15.9 Q3.4 -15.6 3.35 -15.2 L3.2 -13.85 3.2 -12.8 Q3.25 -10.0 4.5 -7.4 L4.9 -6.7 4.95 -6.65 5.5 -5.8 5.5 -5.75 5.8 -5.75 7.55 -6.05 7.85 -6.35 7.95 -6.3 8.25 -7.35 7.9 -7.8 7.1 -8.75 6.4 -9.8 Q5.45 -11.6 5.35 -13.45 M7.95 -15.05 L7.85 -16.15 Q7.95 -16.75 7.65 -16.2 7.45 -15.9 7.4 -15.4 L7.45 -14.6 Q7.6 -12.6 9.1 -11.1 L9.5 -10.75 Q9.9 -10.45 10.4 -10.3 L10.9 -10.25 10.8 -11.1 9.45 -12.1 9.4 -12.15 8.75 -13.25 Q8.15 -14.1 7.95 -15.05 M7.0 -14.3 L7.05 -15.6 7.1 -16.15 6.15 -15.95 6.0 -15.0 6.0 -14.95 5.95 -13.8 Q6.05 -11.5 7.45 -9.45 L8.5 -8.25 9.4 -7.7 Q9.55 -7.65 9.75 -7.55 L9.85 -7.55 Q10.6 -7.7 10.7 -8.55 L10.35 -8.9 10.15 -9.1 9.35 -9.9 9.05 -10.15 Q7.15 -11.95 7.0 -14.3 M-13.25 -32.05 Q-13.4 -31.75 -13.7 -32.05 L-13.45 -32.95 -12.65 -32.85 -12.3 -32.3 Q-11.1 -31.15 -11.6 -29.9 -11.9 -29.3 -12.6 -29.15 L-13.05 -29.35 -13.2 -29.2 -13.4 -29.2 Q-14.05 -30.0 -13.6 -31.1 -13.45 -31.45 -13.1 -31.25 L-12.9 -30.05 Q-12.0 -30.05 -12.55 -31.35 L-13.1 -32.15 -13.15 -32.25 -13.25 -32.05 M-11.3 -26.35 L-12.05 -26.25 Q-12.5 -26.75 -12.55 -27.0 L-12.55 -27.8 -12.1 -27.55 -11.7 -27.45 -11.6 -27.55 -11.55 -27.55 -11.3 -27.4 -11.3 -26.35 M-5.85 -13.55 L-5.85 -14.1 -5.9 -14.85 -6.15 -15.9 -6.35 -16.05 -7.0 -16.15 -6.85 -15.4 -6.85 -14.1 Q-7.0 -12.45 -8.1 -11.0 L-9.35 -9.6 -10.05 -9.05 -10.25 -8.9 -10.3 -8.8 -10.5 -8.55 Q-10.55 -7.7 -9.75 -7.55 L-9.7 -7.55 -9.15 -7.7 Q-8.7 -7.85 -8.35 -8.15 L-7.9 -8.7 -7.3 -9.5 Q-5.9 -11.35 -5.85 -13.55 M-3.1 -12.75 L-3.15 -13.75 -3.35 -15.15 -3.5 -15.9 -5.4 -15.95 -5.4 -15.9 -5.15 -14.45 -5.15 -13.25 Q-5.3 -10.75 -6.95 -8.7 L-7.6 -8.1 -7.6 -8.05 -7.9 -7.75 Q-8.25 -7.4 -8.2 -7.0 L-7.8 -6.25 -7.4 -6.05 -6.55 -5.75 -5.9 -5.75 -5.4 -5.75 -5.35 -5.8 -4.85 -6.45 -4.35 -7.4 Q-3.1 -10.0 -3.1 -12.75 M-8.9 -12.7 L-9.6 -12.05 -10.45 -11.1 -10.75 -10.45 -10.7 -10.25 -10.4 -10.25 -9.55 -10.55 -9.25 -10.8 -7.7 -12.95 Q-7.4 -13.65 -7.35 -14.4 L-7.3 -14.4 -7.35 -15.8 -7.7 -16.45 Q-7.65 -15.55 -7.85 -14.8 L-8.25 -13.65 -8.4 -13.4 -8.9 -12.7 M-0.15 -12.5 L-0.1 -13.5 -0.1 -14.2 Q-0.1 -14.95 -0.65 -15.6 L-2.5 -15.75 -2.45 -15.05 -2.5 -13.9 -2.6 -12.95 -2.6 -12.65 Q-2.95 -9.6 -3.75 -6.95 L-3.85 -6.4 -3.8 -5.4 -3.75 -5.3 -0.4 -5.05 -0.35 -5.35 -0.35 -5.75 -0.3 -6.25 -0.15 -12.5" fill="#627173" fill-rule="evenodd" stroke="none"/>
    <path d="M11.95 -39.55 Q12.8 -40.15 13.05 -38.6 13.35 -36.95 12.9 -35.5 L12.4 -34.65 Q10.65 -32.6 7.95 -32.0 L3.45 -31.0 0.0 -30.85 -6.6 -31.5 Q-9.05 -32.05 -11.15 -33.5 L-12.35 -34.8 Q-13.7 -37.2 -12.35 -39.65 L-11.75 -39.55 Q-12.15 -37.3 -10.6 -35.85 -9.9 -35.15 -9.0 -34.65 -6.55 -33.25 -3.75 -32.8 L0.1 -32.6 3.9 -32.8 Q7.35 -33.25 10.25 -35.4 L11.15 -36.35 11.9 -37.6 11.95 -39.55" fill="#ffffff" fill-rule="evenodd" stroke="none"/>
  </g>
</svg>
