<?xml version="1.0" encoding="UTF-8" standalone="no"?>
<svg xmlns:ffdec="https://www.free-decompiler.com/flash" xmlns:xlink="http://www.w3.org/1999/xlink" ffdec:objectType="shape" height="62.0px" width="60.1px" xmlns="http://www.w3.org/2000/svg">
  <g transform="matrix(1.0, 0.0, 0.0, 1.0, 30.0, 59.45)">
    <path d="M29.35 -49.35 L29.9 -49.05 30.0 -35.2 16.1 -30.25 16.1 -16.6 30.0 -21.65 30.1 -7.85 29.35 -7.55 29.3 -20.55 0.05 -10.15 -15.4 -15.5 -15.45 -2.75 Q-15.95 -2.15 -16.15 -2.9 L-16.15 -3.0 -16.15 -15.8 -30.0 -20.7 -29.95 -35.85 -16.15 -30.95 -16.15 -44.35 -15.4 -44.1 -15.4 -30.7 -0.1 -25.3 29.35 -35.75 29.35 -49.35 M0.05 -24.55 L-29.1 -34.8 -29.15 -21.4 -0.1 -10.9 15.35 -16.35 15.35 -29.95 0.05 -24.55" fill="#80989d" fill-rule="evenodd" stroke="none"/>
    <path d="M27.9 -43.55 L27.6 -45.85 7.65 -38.8 3.5 -36.5 2.65 -34.1 2.6 -34.1 1.8 -34.3 1.6 -38.05 28.55 -47.2 28.8 -43.5 27.9 -43.55 M30.0 -34.3 L30.0 -32.55 28.0 -31.3 27.35 -31.05 24.55 -30.05 23.75 -29.8 21.0 -28.8 20.55 -28.65 18.1 -27.5 17.3 -26.05 16.75 -26.5 16.95 -29.45 30.0 -34.3 M-30.0 -17.85 L-30.0 -19.25 Q-27.75 -18.9 -25.8 -17.8 -22.95 -16.3 -19.85 -15.35 -18.0 -15.0 -17.3 -13.5 -16.75 -12.35 -17.35 -11.2 L-18.2 -11.25 -18.9 -12.95 -30.0 -17.85 M-30.0 -45.75 L-30.0 -47.9 -17.05 -42.65 -17.5 -39.1 -18.0 -39.05 -18.65 -39.55 -18.75 -41.6 -30.0 -45.75 M-15.4 -44.1 L-16.15 -44.35 -28.9 -48.7 0.0 -58.7 28.95 -48.7 0.35 -38.9 -1.45 -39.3 -15.4 -44.1 M27.05 -31.7 L26.95 -31.65 27.05 -31.7 M14.1 -27.9 L14.1 -27.4 14.15 -26.1 14.15 -25.25 14.1 -24.7 Q14.0 -24.45 13.55 -24.5 L13.25 -24.6 12.9 -25.1 12.75 -25.45 12.75 -26.05 11.9 -25.8 9.15 -24.85 6.4 -23.8 4.95 -23.25 3.65 -22.75 2.2 -22.25 1.6 -21.95 0.25 -21.25 0.15 -23.3 13.6 -28.05 13.7 -28.1 14.1 -27.9 M0.1 -36.0 L-12.95 -39.9 -13.75 -37.65 -14.65 -38.25 -13.8 -42.05 0.05 -37.5 0.1 -36.0 M1.6 -9.15 L1.55 -9.55 28.55 -18.75 28.85 -14.75 28.3 -14.75 27.8 -17.1 2.45 -7.75 1.65 -5.0 1.55 -5.1 1.5 -6.15 1.6 -9.15 M-8.1 -26.05 L-4.05 -24.3 -3.7 -24.15 Q-1.8 -23.4 -1.35 -22.0 L-1.3 -19.9 -1.4 -19.6 -2.6 -19.45 -2.95 -22.15 -27.65 -31.05 -28.8 -29.65 -28.4 -33.55 -11.45 -27.65 -8.1 -26.05 M-14.3 -13.85 L-14.1 -13.9 -13.55 -13.7 -12.1 -13.25 -11.25 -12.9 -10.25 -12.5 -9.8 -12.4 -7.0 -11.5 -4.55 -10.6 -4.2 -10.5 -2.3 -9.85 0.0 -9.05 -0.2 -6.7 -13.45 -11.5 -14.45 -9.8 -14.4 -13.5 -14.35 -13.5 -14.4 -13.65 -14.3 -13.85" fill="#d5e1e6" fill-rule="evenodd" stroke="none"/>
    <path d="M27.9 -43.55 L28.8 -43.5 28.55 -47.2 1.6 -38.05 1.8 -34.3 2.6 -34.1 2.65 -34.1 3.5 -36.5 7.65 -38.8 27.6 -45.85 27.9 -43.55 M30.0 -35.2 L30.0 -34.3 16.95 -29.45 16.75 -26.5 17.3 -26.05 18.1 -27.5 20.55 -28.65 21.0 -28.8 23.75 -29.8 24.55 -30.05 27.35 -31.05 28.0 -31.3 30.0 -32.55 30.0 -21.65 16.1 -16.6 16.1 -30.25 30.0 -35.2 M29.35 -7.55 L0.0 2.55 -15.45 -2.75 -15.4 -15.5 0.05 -10.15 29.3 -20.55 29.35 -7.55 M-16.15 -3.0 L-30.0 -7.8 -30.0 -17.85 -18.9 -12.95 -18.2 -11.25 -17.35 -11.2 Q-16.75 -12.35 -17.3 -13.5 -18.0 -15.0 -19.85 -15.35 -22.95 -16.3 -25.8 -17.8 -27.75 -18.9 -30.0 -19.25 L-30.0 -20.7 -16.15 -15.8 -16.15 -3.0 M-29.95 -35.85 L-30.0 -45.75 -18.75 -41.6 -18.65 -39.55 -18.0 -39.05 -17.5 -39.1 -17.05 -42.65 -30.0 -47.9 -30.0 -49.15 -0.1 -59.45 29.35 -49.35 29.35 -35.75 -0.1 -25.3 -15.4 -30.7 -15.4 -44.1 -1.45 -39.3 0.35 -38.9 28.95 -48.7 0.0 -58.7 -28.9 -48.7 -16.15 -44.35 -16.15 -30.95 -29.95 -35.85 M27.05 -31.7 L26.95 -31.65 27.05 -31.7 M0.1 -36.0 L0.05 -37.5 -13.8 -42.05 -14.65 -38.25 -13.75 -37.65 -12.95 -39.9 0.1 -36.0 M14.1 -27.9 L13.7 -28.1 13.6 -28.05 0.15 -23.3 0.25 -21.25 1.6 -21.95 2.2 -22.25 3.65 -22.75 4.95 -23.25 6.4 -23.8 9.15 -24.85 11.9 -25.8 12.75 -26.05 12.75 -25.45 12.9 -25.1 13.25 -24.6 13.55 -24.5 Q14.0 -24.45 14.1 -24.7 L14.15 -25.25 14.15 -26.1 14.1 -27.4 14.1 -27.9 M1.6 -9.15 L1.5 -6.15 1.55 -5.1 1.65 -5.0 2.45 -7.75 27.8 -17.1 28.3 -14.75 28.85 -14.75 28.55 -18.75 1.55 -9.55 1.6 -9.15 M0.05 -24.55 L15.35 -29.95 15.35 -16.35 -0.1 -10.9 -29.15 -21.4 -29.1 -34.8 0.05 -24.55 M-14.3 -13.85 L-14.4 -13.65 -14.35 -13.5 -14.4 -13.5 -14.45 -9.8 -13.45 -11.5 -0.2 -6.7 0.0 -9.05 -2.3 -9.85 -4.2 -10.5 -4.55 -10.6 -7.0 -11.5 -9.8 -12.4 -10.25 -12.5 -11.25 -12.9 -12.1 -13.25 -13.55 -13.7 -14.1 -13.9 -14.3 -13.85 M-8.1 -26.05 L-11.45 -27.65 -28.4 -33.55 -28.8 -29.65 -27.65 -31.05 -2.95 -22.15 -2.6 -19.45 -1.4 -19.6 -1.3 -19.9 -1.35 -22.0 Q-1.8 -23.4 -3.7 -24.15 L-4.05 -24.3 -8.1 -26.05" fill="#b4c0c5" fill-rule="evenodd" stroke="none"/>
  </g>
</svg>
