<?xml version="1.0" encoding="UTF-8" standalone="no"?>
<svg xmlns:ffdec="https://www.free-decompiler.com/flash" xmlns:xlink="http://www.w3.org/1999/xlink" ffdec:objectType="shape" height="57.05px" width="45.3px" xmlns="http://www.w3.org/2000/svg">
  <g transform="matrix(1.0, 0.0, 0.0, 1.0, 22.65, 28.55)">
    <path d="M-22.45 -4.85 L-22.6 -10.45 Q-22.75 -14.0 -22.2 -17.65 L-22.05 -17.9 -21.95 -17.95 -21.95 -18.05 -21.55 -18.85 7.65 -28.45 7.7 -28.5 7.85 -28.55 22.45 -23.5 22.65 -19.85 22.2 -22.35 -2.55 -13.75 -6.35 -11.95 Q-6.7 -11.65 -6.7 -10.7 L-6.7 -6.05 -6.75 -1.35 -6.9 -0.35 -7.55 0.05 -8.5 -0.05 -15.55 -2.55 -15.55 -15.95 -7.4 -13.15 -7.05 -13.1 -7.0 -13.05 -6.95 -13.1 -6.8 -13.05 21.3 -23.05 20.7 -23.35 8.1 -27.7 7.65 -27.85 -19.5 -18.3 -20.0 -17.5 -20.1 -17.5 -16.3 -16.2 -16.3 -2.8 -20.4 -4.25 -20.4 -4.2 -20.75 -4.3 -22.3 -4.95 -22.45 -4.85 M22.65 16.0 L22.65 17.5 -5.55 27.7 -6.1 27.1 -6.25 25.7 22.65 16.0 M-7.1 28.05 L-15.6 25.4 -15.55 12.65 -8.55 15.05 -8.2 15.15 Q-7.65 16.1 -6.85 16.05 L-6.6 21.55 -7.05 20.35 -7.25 27.45 -7.1 28.05 M-16.3 25.15 L-21.55 23.1 -21.6 23.0 -22.1 21.7 -22.55 17.8 Q-22.8 14.05 -22.1 10.4 L-21.65 10.7 -20.85 11.0 -20.1 11.05 -16.3 12.35 -16.3 25.15 M-22.3 9.85 L-22.45 6.05 -22.55 -1.3 -22.35 -3.8 -22.0 -3.5 -20.85 -3.5 -20.75 -3.6 -20.65 -3.65 -8.45 0.65 -7.95 0.75 -7.4 1.4 -6.9 1.6 -6.8 2.15 -6.6 12.25 -6.7 13.5 -6.55 14.25 -7.05 13.9 -8.05 14.45 -20.5 9.95 -20.55 10.05 -21.65 9.6 -22.3 9.85 M22.15 0.55 L22.0 -2.55 22.05 -1.85 22.2 0.55 22.15 0.55 M22.35 3.65 L22.35 4.05 22.35 4.2 22.3 4.15 22.3 3.75 22.35 3.65 M11.45 -15.65 L9.8 -15.25 Q5.65 -14.15 2.8 -10.85 -0.2 -7.35 -0.6 -2.6 L-0.9 16.4 18.15 10.1 18.35 -7.35 18.1 -10.3 Q18.05 -12.0 17.35 -13.5 L16.75 -14.85 Q19.7 -11.95 19.25 -7.65 L19.5 10.35 19.15 10.6 -2.0 17.75 -1.4 -2.45 -1.35 -2.8 -1.35 -2.9 -0.55 -5.8 Q0.7 -10.1 4.0 -13.05 7.15 -16.0 11.45 -15.65 M3.0 -13.65 Q0.85 -10.55 -1.1 -6.95 L-1.25 -6.5 Q-1.95 -8.2 0.35 -11.15 1.4 -12.6 3.0 -13.65 M4.0 5.9 L4.0 6.0 3.95 6.0 3.95 5.95 4.0 5.9 M4.9 -7.8 L17.5 -4.8 17.3 9.65 11.8 7.95 11.35 7.55 10.85 -4.2 10.5 7.6 5.3 5.9 5.15 -5.95 4.9 -7.8 M-8.65 -12.15 L-13.95 -13.9 -14.8 -10.1 -13.9 -9.5 -13.1 -11.75 -8.9 -10.5 -8.8 -11.65 -8.65 -12.15 M-18.15 -10.9 L-17.65 -10.95 -17.2 -14.5 -20.15 -15.7 -20.25 -14.15 -20.15 -13.9 -18.9 -13.45 -18.8 -11.4 -18.15 -10.9 M-2.45 -4.9 L-2.45 -5.05 -2.3 -5.8 -2.4 -5.0 -2.45 -4.9 M-8.9 1.8 L-11.6 0.5 -20.45 -2.55 -20.5 -2.25 -20.55 -1.3 -20.55 -0.25 -9.05 3.9 -8.9 1.8 M-20.15 12.75 L-20.2 14.7 -19.05 15.2 -18.35 16.9 -17.5 16.95 Q-16.9 15.8 -17.45 14.65 -18.15 13.15 -20.0 12.8 L-20.15 12.75 M-14.55 14.5 L-14.5 14.65 -14.55 14.65 -14.6 18.35 -13.6 16.65 -8.85 18.4 -8.8 17.6 -8.85 17.05 -8.75 16.1 -9.95 15.75 -10.4 15.65 -11.4 15.25 -12.25 14.9 Q-12.95 14.55 -13.7 14.45 L-14.25 14.25 -14.45 14.3 -14.55 14.5" fill="#b4c0c5" fill-rule="evenodd" stroke="none"/>
    <path d="M22.65 -19.85 L22.65 -19.75 22.65 -19.4 22.65 16.0 -6.25 25.7 -6.6 21.55 -6.85 16.05 Q-6.35 15.9 -6.3 15.05 L-6.3 14.75 -6.55 14.25 -6.7 13.5 -6.6 12.25 -6.8 2.15 -6.9 1.6 Q-6.25 1.25 -6.3 0.5 L-6.3 0.15 -6.9 -0.35 -6.75 -1.35 -6.7 -6.05 -6.7 -10.7 Q-6.7 -11.65 -6.35 -11.95 L-2.55 -13.75 22.2 -22.35 22.65 -19.85 M-16.3 -16.2 L-20.1 -17.5 -20.0 -17.5 -19.5 -18.3 7.65 -27.85 8.1 -27.7 20.7 -23.35 21.3 -23.05 -6.8 -13.05 -6.95 -13.1 -7.0 -13.05 -7.05 -13.1 -7.4 -13.15 -15.55 -15.95 -16.3 -16.2 M22.15 0.55 L21.35 0.05 21.2 -0.75 Q21.9 -1.6 21.5 -2.65 L20.95 -4.05 Q21.4 -6.2 20.5 -8.25 L20.35 -7.4 Q20.0 -4.95 21.1 -2.85 L20.4 -0.65 21.15 0.6 Q22.65 2.5 20.4 4.0 L20.75 5.55 21.45 7.3 Q21.2 8.4 21.1 9.55 21.0 10.55 21.7 11.25 L21.1 12.35 20.1 12.95 18.2 13.3 17.55 13.45 17.25 14.35 15.35 15.2 14.95 14.65 Q12.55 15.2 10.25 16.3 L9.45 15.95 8.65 16.3 8.75 16.75 8.45 17.25 8.3 17.3 8.05 17.45 7.85 17.55 7.05 16.7 5.9 17.05 Q3.45 17.7 2.5 18.95 L6.9 17.65 7.1 18.3 8.2 18.4 8.95 18.1 9.3 17.9 9.85 17.25 Q10.75 16.9 11.5 16.4 L13.6 15.25 14.45 15.3 14.7 15.8 15.45 16.2 17.5 15.2 Q18.35 14.7 18.25 13.7 L20.05 13.65 21.9 12.8 22.2 11.7 Q21.95 10.8 22.05 10.0 22.45 7.5 20.9 5.45 L21.2 4.55 22.3 3.75 22.3 4.15 22.35 4.2 22.35 4.05 22.35 3.65 22.2 0.55 22.05 -1.85 22.0 -2.55 22.15 0.55 M18.1 -10.3 Q16.75 -14.9 12.3 -15.4 L11.45 -15.65 Q7.15 -16.0 4.0 -13.05 0.7 -10.1 -0.55 -5.8 L-1.35 -2.9 -1.35 -2.8 -1.4 -2.45 -2.0 17.75 19.15 10.6 19.5 10.35 19.25 -7.65 Q19.7 -11.95 16.75 -14.85 L17.35 -13.5 Q18.05 -12.0 18.1 -10.3 M3.0 -13.65 Q1.4 -12.6 0.35 -11.15 -1.95 -8.2 -1.25 -6.5 L-1.1 -6.95 Q0.85 -10.55 3.0 -13.65 M1.65 19.3 L0.3 19.15 -0.45 19.9 -1.7 19.6 -3.1 20.6 -3.55 20.2 -3.75 19.5 -3.15 18.5 -4.5 19.3 Q-4.6 21.45 -2.5 21.4 -1.9 21.2 -1.85 20.4 -1.2 20.9 -0.55 20.6 L1.5 19.8 Q2.6 19.45 1.65 19.3 M0.05 8.25 L4.55 6.55 16.25 10.0 -0.1 16.0 0.05 8.25 M-8.65 -12.15 L-8.8 -11.65 -8.9 -10.5 -13.1 -11.75 -13.9 -9.5 -14.8 -10.1 -13.95 -13.9 -8.65 -12.15 M-18.15 -10.9 L-18.8 -11.4 -18.9 -13.45 -20.15 -13.9 -20.25 -14.15 -20.15 -15.7 -17.2 -14.5 -17.65 -10.95 -18.15 -10.9 M-2.75 -5.2 L-4.1 -3.75 -3.85 -2.35 -3.45 -1.2 -3.85 -0.45 -3.45 1.6 -3.9 2.1 Q-4.55 2.9 -5.65 3.15 L-5.8 5.9 Q-5.5 7.0 -4.3 7.65 L-3.45 9.55 -3.65 10.55 -5.3 10.55 -5.3 11.05 -5.2 11.5 -5.0 11.95 -4.45 12.6 -4.75 13.95 -3.85 14.75 -4.55 16.85 -4.05 17.7 -3.2 17.15 -3.55 16.55 -3.0 14.45 -3.9 13.6 -3.3 13.1 -3.65 11.7 -4.6 11.35 -4.75 10.9 -3.85 11.15 -2.9 10.65 -3.25 6.45 -3.7 6.15 -4.15 6.6 Q-5.9 5.75 -4.95 3.95 -4.3 2.8 -3.05 2.3 L-3.2 0.8 -3.25 -3.55 -2.75 -5.2 M-2.45 -4.9 L-2.4 -5.0 -2.3 -5.8 -2.45 -5.05 -2.45 -4.9 M-8.9 1.8 L-9.05 3.9 -20.55 -0.25 -20.55 -1.3 -20.5 -2.25 -20.45 -2.55 -11.6 0.5 -8.9 1.8 M-20.15 12.75 L-20.0 12.8 Q-18.15 13.15 -17.45 14.65 -16.9 15.8 -17.5 16.95 L-18.35 16.9 -19.05 15.2 -20.2 14.7 -20.15 12.75 M-14.55 14.5 L-14.45 14.3 -14.25 14.25 -13.7 14.45 Q-12.95 14.55 -12.25 14.9 L-11.4 15.25 -10.4 15.65 -9.95 15.75 -8.75 16.1 -8.85 17.05 -8.8 17.6 -8.85 18.4 -13.6 16.65 -14.6 18.35 -14.55 14.65 -14.5 14.65 -14.55 14.5" fill="#d5e1e6" fill-rule="evenodd" stroke="none"/>
    <path d="M22.65 17.5 L22.5 18.3 -6.0 28.5 -6.45 28.3 -7.1 28.05 -7.25 27.45 -7.05 20.35 -6.6 21.55 -6.25 25.7 -6.1 27.1 -5.55 27.7 22.65 17.5 M-15.6 25.4 L-16.3 25.15 -16.3 12.35 -20.1 11.05 -20.85 11.0 -21.65 10.7 -22.1 10.4 -22.3 9.85 -21.65 9.6 -20.55 10.05 -20.5 9.95 -8.05 14.45 -7.05 13.9 -6.55 14.25 -6.3 14.75 -6.3 15.05 Q-6.35 15.9 -6.85 16.05 -7.65 16.1 -8.2 15.15 L-8.55 15.05 -15.55 12.65 -15.6 25.4 M-22.35 -3.8 L-22.45 -4.85 -22.3 -4.95 -20.75 -4.3 -20.4 -4.2 -20.4 -4.25 -16.3 -2.8 -16.3 -16.2 -15.55 -15.95 -15.55 -2.55 -8.5 -0.05 -7.55 0.05 -6.9 -0.35 -6.3 0.15 -6.3 0.5 Q-6.25 1.25 -6.9 1.6 L-7.4 1.4 -7.95 0.75 -8.45 0.65 -20.65 -3.65 -20.75 -3.6 -20.85 -3.5 -22.0 -3.5 -22.35 -3.8 M22.3 3.75 L21.2 4.55 20.9 5.45 Q22.45 7.5 22.05 10.0 21.95 10.8 22.2 11.7 L21.9 12.8 20.05 13.65 18.25 13.7 Q18.35 14.7 17.5 15.2 L15.45 16.2 14.7 15.8 14.45 15.3 13.6 15.25 11.5 16.4 Q10.75 16.9 9.85 17.25 L9.3 17.9 8.95 18.1 8.2 18.4 7.1 18.3 6.9 17.65 2.5 18.95 Q3.45 17.7 5.9 17.05 L7.05 16.7 7.85 17.55 8.05 17.45 8.3 17.3 8.45 17.25 8.75 16.75 8.65 16.3 9.45 15.95 10.25 16.3 Q12.55 15.2 14.95 14.65 L15.35 15.2 17.25 14.35 17.55 13.45 18.2 13.3 20.1 12.95 21.1 12.35 21.7 11.25 Q21.0 10.55 21.1 9.55 21.2 8.4 21.45 7.3 L20.75 5.55 20.4 4.0 Q22.65 2.5 21.15 0.6 L20.4 -0.65 21.1 -2.85 Q20.0 -4.95 20.35 -7.4 L20.5 -8.25 Q21.4 -6.2 20.95 -4.05 L21.5 -2.65 Q21.9 -1.6 21.2 -0.75 L21.35 0.05 22.15 0.55 22.2 0.55 22.35 3.65 22.3 3.75 M11.45 -15.65 L12.3 -15.4 Q16.75 -14.9 18.1 -10.3 L18.35 -7.35 18.15 10.1 -0.9 16.4 -0.6 -2.6 Q-0.2 -7.35 2.8 -10.85 5.65 -14.15 9.8 -15.25 L11.45 -15.65 M4.0 5.9 L3.9 -7.5 3.8 -8.05 3.1 -10.35 2.85 -10.15 Q0.6 -6.65 0.0 -2.45 L0.0 7.75 3.95 6.0 4.0 6.0 4.0 5.9 M4.9 -7.8 L5.15 -5.95 5.3 5.9 10.5 7.6 10.85 -4.2 11.35 7.55 11.8 7.95 17.3 9.65 17.5 -4.8 4.9 -7.8 M0.05 8.25 L-0.1 16.0 16.25 10.0 4.55 6.55 0.05 8.25 M1.65 19.3 Q2.6 19.45 1.5 19.8 L-0.55 20.6 Q-1.2 20.9 -1.85 20.4 -1.9 21.2 -2.5 21.4 -4.6 21.45 -4.5 19.3 L-3.15 18.5 -3.75 19.5 -3.55 20.2 -3.1 20.6 -1.7 19.6 -0.45 19.9 0.3 19.15 1.65 19.3 M-2.75 -5.2 L-3.25 -3.55 -3.2 0.8 -3.05 2.3 Q-4.3 2.8 -4.95 3.95 -5.9 5.75 -4.15 6.6 L-3.7 6.15 -3.25 6.45 -2.9 10.65 -3.85 11.15 -4.75 10.9 -4.6 11.35 -3.65 11.7 -3.3 13.1 -3.9 13.6 -3.0 14.45 -3.55 16.55 -3.2 17.15 -4.05 17.7 -4.55 16.85 -3.85 14.75 -4.75 13.95 -4.45 12.6 -5.0 11.95 -5.2 11.5 -5.3 11.05 -5.3 10.55 -3.65 10.55 -3.45 9.55 -4.3 7.65 Q-5.5 7.0 -5.8 5.9 L-5.65 3.15 Q-4.55 2.9 -3.9 2.1 L-3.45 1.6 -3.85 -0.45 -3.45 -1.2 -3.85 -2.35 -4.1 -3.75 -2.75 -5.2" fill="#80989d" fill-rule="evenodd" stroke="none"/>
  </g>
</svg>
