<?xml version="1.0" encoding="UTF-8" standalone="no"?>
<svg xmlns:ffdec="https://www.free-decompiler.com/flash" xmlns:xlink="http://www.w3.org/1999/xlink" ffdec:objectType="shape" height="17.35px" width="26.4px" xmlns="http://www.w3.org/2000/svg">
  <g transform="matrix(1.0, 0.0, 0.0, 1.0, 13.95, 11.95)">
    <path d="M6.15 -11.1 L6.0 -11.3 6.05 -11.4 9.25 -11.5 9.8 -11.1 Q10.5 -10.35 10.75 -9.3 11.65 -8.9 12.15 -8.1 L12.45 -7.0 Q11.2 -7.2 10.25 -6.45 9.6 -6.05 8.85 -5.95 L7.7 -6.1 7.65 -6.5 7.4 -7.9 7.35 -8.15 7.9 -6.7 8.0 -6.6 Q8.85 -6.05 9.85 -6.6 L10.15 -6.9 Q10.95 -8.15 10.5 -9.55 10.05 -10.9 8.8 -11.4 7.35 -12.0 6.15 -11.1 M0.85 -0.4 L3.8 -0.5 3.9 -0.45 4.1 -0.55 4.7 0.25 5.15 0.9 5.9 2.7 5.9 2.8 6.05 3.05 6.1 3.1 6.05 3.2 6.0 3.25 5.9 3.25 5.85 3.25 4.0 3.95 2.1 4.4 1.7 4.5 -0.05 4.45 -0.15 4.55 -0.6 4.8 -1.25 5.1 -2.1 5.35 -2.95 5.2 -2.45 4.35 -3.95 4.65 Q-5.45 4.9 -6.8 4.65 L-6.95 4.6 -6.75 4.05 -7.95 3.95 -8.95 3.55 Q-9.4 3.25 -9.3 2.75 L-9.2 2.55 -11.15 1.95 -12.25 1.5 Q-13.15 0.95 -12.85 0.1 L-12.7 -0.15 -12.35 -0.25 -13.5 -1.75 Q-13.9 -2.35 -13.95 -3.0 L-13.75 -3.55 -13.5 -3.8 -11.1 -3.15 -11.8 -3.95 -12.35 -5.15 -12.6 -6.1 -12.45 -6.3 -12.0 -6.3 -10.4 -5.25 -9.55 -4.55 -10.8 -8.0 -10.75 -8.3 -10.1 -8.55 -8.6 -7.15 -7.35 -5.55 -8.0 -8.8 -7.85 -9.0 -7.75 -9.1 -7.7 -9.15 -7.6 -9.2 -7.25 -9.2 -6.35 -7.55 -6.2 -8.75 -6.15 -8.85 -6.1 -8.95 -6.0 -9.05 -5.65 -9.3 Q-5.35 -9.25 -5.1 -9.0 -3.9 -7.7 -3.35 -6.0 L-3.05 -4.85 -3.1 -5.95 -3.15 -6.65 -3.15 -6.8 -2.85 -7.5 -2.6 -7.5 -1.8 -6.15 Q-0.85 -4.05 -0.6 -1.75 L-0.3 -3.0 0.0 -3.05 0.35 -2.9 0.9 -0.5 0.85 -0.4 M5.1 2.15 L4.4 0.5 3.85 0.0 3.45 -0.05 1.35 -0.05 Q0.95 -0.1 0.8 0.2 L0.55 -0.95 0.35 -2.3 0.3 -2.45 0.0 -2.7 -0.1 -2.65 -0.65 -0.5 -0.95 -2.0 -2.25 -6.65 -2.6 -7.05 -2.75 -7.0 -2.25 -0.25 -2.45 -1.2 Q-3.3 -5.0 -5.15 -8.4 L-5.55 -8.8 -5.95 -8.8 -5.5 -4.0 -6.2 -6.4 -7.2 -8.75 -7.5 -8.9 -7.65 -8.15 -6.05 -2.4 -6.9 -3.8 -8.15 -5.85 Q-9.05 -7.25 -10.2 -8.3 L-10.45 -8.2 -10.3 -7.4 -9.25 -5.4 Q-8.6 -4.15 -7.6 -3.2 L-8.2 -3.5 Q-10.25 -4.65 -12.05 -6.15 L-12.25 -5.95 -11.95 -5.15 -10.75 -3.6 Q-9.3 -2.3 -7.7 -1.1 L-8.7 -1.5 -10.65 -2.35 Q-12.0 -3.0 -13.4 -3.3 L-13.6 -2.7 -13.5 -2.3 Q-13.15 -1.5 -12.35 -1.0 -10.6 0.2 -8.5 0.8 L-12.4 0.1 -12.65 0.4 -12.5 0.8 -12.2 1.1 Q-8.15 2.85 -3.75 2.7 L-6.55 2.75 -7.7 2.6 Q-8.45 2.4 -8.95 2.85 L-8.9 3.1 -8.65 3.4 -5.95 3.8 -6.35 3.95 Q-6.8 4.2 -6.7 4.55 L-6.2 4.75 Q-3.05 4.55 -0.3 3.0 L-0.65 3.3 -1.45 3.75 Q-2.35 4.1 -2.4 4.95 L-2.15 5.05 0.95 3.55 0.4 4.25 Q1.0 4.5 1.6 4.25 L1.9 4.1 5.4 3.0 5.4 2.9 5.3 2.6 5.25 2.55 5.15 2.2 5.1 2.15 M8.0 -5.25 L8.65 -4.9 Q10.85 -3.35 10.65 -0.7 10.55 0.1 9.95 0.55 L9.65 0.35 9.3 0.2 7.95 -1.0 7.7 -1.6 7.6 -1.8 7.5 -2.05 7.85 -2.65 Q8.2 -3.95 8.0 -5.25 M10.3 -1.9 Q10.1 -3.6 8.6 -4.55 L8.3 -4.75 8.5 -2.65 7.85 -1.7 Q8.05 -0.95 8.7 -0.5 L9.1 -0.2 9.9 0.15 10.05 -0.05 Q10.5 -0.95 10.3 -1.9 M10.85 -8.95 L10.75 -7.25 12.2 -7.25 11.85 -7.9 10.85 -8.95" fill="#313566" fill-rule="evenodd" stroke="none"/>
    <path d="M7.35 -8.15 Q7.1 -9.45 6.45 -10.6 L6.25 -10.9 6.15 -11.1 Q7.35 -12.0 8.8 -11.4 10.05 -10.9 10.5 -9.55 10.95 -8.15 10.15 -6.9 L9.85 -6.6 Q8.85 -6.05 8.0 -6.6 L7.9 -6.7 7.35 -8.15 M9.7 -9.45 L9.75 -9.6 9.9 -9.65 10.0 -9.6 10.05 -9.45 10.0 -9.35 9.9 -9.3 9.75 -9.35 9.7 -9.45 M9.65 -9.65 L9.55 -9.35 9.65 -9.0 Q9.75 -8.85 9.9 -8.85 L10.15 -9.0 10.25 -9.35 10.15 -9.65 9.9 -9.8 9.65 -9.65 M-13.6 -2.7 L-13.4 -3.3 Q-12.0 -3.0 -10.65 -2.35 L-8.7 -1.5 -7.7 -1.1 Q-9.3 -2.3 -10.75 -3.6 L-11.95 -5.15 -12.25 -5.95 -12.05 -6.15 Q-10.25 -4.65 -8.2 -3.5 L-7.6 -3.2 Q-8.6 -4.15 -9.25 -5.4 L-10.3 -7.4 -10.45 -8.2 -10.2 -8.3 Q-9.05 -7.25 -8.15 -5.85 L-6.9 -3.8 -6.05 -2.4 -7.65 -8.15 -7.5 -8.9 -7.2 -8.75 -6.2 -6.4 -5.5 -4.0 -5.95 -8.8 -5.55 -8.8 -5.15 -8.4 Q-3.3 -5.0 -2.45 -1.2 L-2.25 -0.25 -2.75 -7.0 -2.6 -7.05 -2.25 -6.65 -0.95 -2.0 -0.65 -0.5 -0.1 -2.65 0.0 -2.7 0.3 -2.45 0.35 -2.3 0.55 -0.95 0.8 0.2 Q0.95 -0.1 1.35 -0.05 L3.45 -0.05 3.85 0.0 4.4 0.5 5.1 2.15 1.8 2.35 1.6 2.15 1.3 1.9 0.25 2.0 0.25 1.85 0.2 1.55 0.15 1.4 -0.25 0.95 -0.4 0.9 -0.45 0.95 -0.55 0.95 Q-0.85 1.0 -1.0 1.25 L-1.15 0.35 Q-1.35 -0.35 -1.95 -0.6 L-2.35 0.95 -2.85 -0.05 -3.3 0.0 -4.4 -3.15 -4.8 -3.4 -5.0 -2.95 -4.7 -0.3 -4.9 -0.75 -5.05 -1.0 Q-5.3 -1.35 -5.7 -1.4 -5.9 -0.6 -5.55 0.1 L-7.25 -1.9 -7.6 -1.8 -7.15 -0.35 -6.7 0.4 -7.45 0.25 Q-9.6 -0.25 -11.45 -1.35 L-12.4 -2.05 -13.6 -2.7 M9.1 -0.2 L8.7 -0.5 Q8.05 -0.95 7.85 -1.7 L8.5 -2.65 8.3 -4.75 8.6 -4.55 Q10.1 -3.6 10.3 -1.9 L10.2 -1.65 Q9.9 -0.75 9.1 -0.2" fill="#ffffff" fill-rule="evenodd" stroke="none"/>
    <path d="M10.85 -8.95 L11.85 -7.9 12.2 -7.25 10.75 -7.25 10.85 -8.95" fill="#bebbb4" fill-rule="evenodd" stroke="none"/>
    <path d="M9.7 -9.45 L9.75 -9.35 9.9 -9.3 10.0 -9.35 10.05 -9.45 10.0 -9.6 9.9 -9.65 9.75 -9.6 9.7 -9.45 M9.65 -9.65 L9.9 -9.8 10.15 -9.65 10.25 -9.35 10.15 -9.0 9.9 -8.85 Q9.75 -8.85 9.65 -9.0 L9.55 -9.35 9.65 -9.65" fill="#000000" fill-rule="evenodd" stroke="none"/>
    <path d="M5.1 2.15 L5.15 2.2 5.25 2.55 5.3 2.6 5.4 2.9 5.4 3.0 1.9 4.1 1.6 4.25 Q1.0 4.5 0.4 4.25 L0.95 3.55 -2.15 5.05 -2.4 4.95 Q-2.35 4.1 -1.45 3.75 L-0.65 3.3 -0.3 3.0 Q-3.05 4.55 -6.2 4.75 L-6.7 4.55 Q-6.8 4.2 -6.35 3.95 L-5.95 3.8 -8.65 3.4 -8.9 3.1 -8.95 2.85 Q-8.45 2.4 -7.7 2.6 L-6.55 2.75 -3.75 2.7 Q-8.15 2.85 -12.2 1.1 L-12.5 0.8 -12.65 0.4 -12.4 0.1 -8.5 0.8 Q-10.6 0.2 -12.35 -1.0 -13.15 -1.5 -13.5 -2.3 L-13.6 -2.7 -12.4 -2.05 -11.45 -1.35 Q-9.6 -0.25 -7.45 0.25 L-6.7 0.4 -7.15 -0.35 -7.6 -1.8 -7.25 -1.9 -5.55 0.1 Q-5.9 -0.6 -5.7 -1.4 -5.3 -1.35 -5.05 -1.0 L-4.9 -0.75 -4.7 -0.3 -5.0 -2.95 -4.8 -3.4 -4.4 -3.15 -3.3 0.0 -2.85 -0.05 -2.35 0.95 -1.95 -0.6 Q-1.35 -0.35 -1.15 0.35 L-1.0 1.25 Q-0.85 1.0 -0.55 0.95 L-0.45 0.95 -0.4 0.9 -0.25 0.95 0.15 1.4 0.2 1.55 0.25 1.85 0.25 2.0 1.3 1.9 1.6 2.15 1.8 2.35 5.1 2.15 M9.1 -0.2 Q9.9 -0.75 10.2 -1.65 L10.3 -1.9 Q10.5 -0.95 10.05 -0.05 L9.9 0.15 9.1 -0.2" fill="#cdd5e7" fill-rule="evenodd" stroke="none"/>
  </g>
</svg>
