<?xml version="1.0" encoding="UTF-8" standalone="no"?>
<svg xmlns:ffdec="https://www.free-decompiler.com/flash" xmlns:xlink="http://www.w3.org/1999/xlink" ffdec:objectType="shape" height="21.2px" width="59.75px" xmlns="http://www.w3.org/2000/svg">
  <g transform="matrix(1.0, 0.0, 0.0, 1.0, 29.9, 18.3)">
    <path d="M0.75 -17.9 L0.65 -17.85 -3.5 -16.4 -3.4 -16.4 25.2 -6.5 29.4 -7.95 29.7 -7.9 29.85 -7.7 29.85 -7.4 29.65 -7.25 25.35 -5.75 18.65 -3.45 6.8 0.65 6.75 0.7 1.5 2.5 1.4 2.55 0.25 2.9 0.0 2.9 -29.5 -7.35 -29.6 -7.4 -29.65 -7.4 -29.85 -7.5 -29.9 -8.0 -29.55 -8.15 -29.45 -8.15 -0.35 -18.3 0.75 -17.9 M6.65 -0.1 L11.55 -1.8 -8.65 -8.75 -8.45 -5.3 6.65 -0.1 M12.7 -2.2 L17.35 -3.8 -3.75 -11.1 -8.5 -9.5 12.7 -2.2 M18.5 -4.2 L24.05 -6.1 -3.45 -15.65 -3.25 -11.7 18.5 -4.2 M-9.05 -9.6 L-4.1 -11.7 -4.05 -16.2 -28.3 -7.75 -14.5 -2.95 -9.2 -5.55 -9.05 -9.6 M-9.0 -4.7 L-13.0 -3.2 1.3 1.75 5.5 0.3 -9.0 -4.7" fill="#627173" fill-rule="evenodd" stroke="none"/>
    <path d="M6.65 -0.1 L-8.45 -5.3 -8.65 -8.75 11.55 -1.8 6.65 -0.1 M18.5 -4.2 L-3.25 -11.7 -3.45 -15.65 24.05 -6.1 18.5 -4.2 M-9.05 -9.6 L-9.2 -5.55 -14.5 -2.95 -28.3 -7.75 -4.05 -16.2 -4.1 -11.7 -9.05 -9.6" fill="#b4c0c5" fill-rule="evenodd" stroke="none"/>
  </g>
</svg>
