<?xml version="1.0" encoding="UTF-8" standalone="no"?>
<svg xmlns:ffdec="https://www.free-decompiler.com/flash" xmlns:xlink="http://www.w3.org/1999/xlink" ffdec:objectType="shape" height="70.65px" width="48.9px" xmlns="http://www.w3.org/2000/svg">
  <g transform="matrix(1.0, 0.0, 0.0, 1.0, 24.45, 35.35)">
    <path d="M4.15 -26.3 L4.2 -26.3 4.15 -26.25 4.15 -26.3 M21.45 14.0 L21.5 13.95 21.5 14.0 21.45 14.0 M18.85 31.5 L18.85 31.55 18.8 31.55 18.85 31.5 M-0.15 -20.6 L-0.1 -20.55 -0.15 -20.6 M-9.65 -16.15 L-9.7 -16.15 -9.65 -16.2 -9.65 -16.15 M-10.7 -15.3 L-10.7 -15.25 -10.75 -15.25 -10.7 -15.3" fill="#cccccc" fill-rule="evenodd" stroke="none"/>
    <path d="M2.45 -25.95 L2.35 -27.75 Q1.65 -32.75 -0.15 -33.15 L-0.2 -33.35 -0.25 -33.4 -0.35 -33.45 -0.4 -33.45 -0.5 -33.35 -0.5 -33.15 -0.55 -33.15 -0.7 -32.65 -0.7 -32.6 -3.05 -26.65 Q-2.55 -25.65 -1.8 -25.2 L-1.7 -25.15 -1.65 -25.1 Q-1.35 -24.75 -1.2 -25.2 -0.95 -25.9 -0.85 -26.65 L-0.3 -29.5 -0.15 -30.1 -0.1 -30.25 0.1 -24.85 0.85 -24.7 2.3 -25.5 2.45 -25.95 M4.2 -26.3 L4.15 -26.3 3.6 -26.35 4.15 -26.25 3.45 -26.0 3.15 -25.55 Q1.9 -23.95 -0.05 -24.0 L-0.25 -24.0 Q-2.4 -24.15 -3.5 -25.9 L-3.65 -26.25 -4.0 -26.5 Q-7.9 -25.3 -10.65 -22.35 -12.15 -20.65 -12.65 -18.4 -13.0 -16.65 -13.0 -14.75 -12.95 -12.7 -12.4 -10.5 L-14.1 -8.25 Q-10.55 -3.75 -4.9 -2.4 L-3.3 -2.1 Q-0.85 -4.55 -0.25 -7.8 L-0.25 -7.85 -0.1 -8.4 0.25 -1.1 Q8.45 -2.3 13.9 -8.25 L13.35 -8.9 12.7 -9.75 12.15 -10.5 12.45 -13.7 Q13.1 -23.7 4.2 -26.3 M3.6 -27.15 Q6.65 -26.9 8.9 -25.65 11.6 -24.25 12.65 -21.35 L15.95 -28.25 16.65 -27.8 17.4 -24.7 Q18.7 -18.35 15.0 -12.8 L16.3 -11.5 16.3 -10.8 16.15 -10.3 15.8 -9.8 15.25 -9.35 14.3 -9.0 14.7 -8.75 16.45 -9.35 Q22.7 -8.1 24.05 -2.0 24.85 1.8 21.5 2.8 L18.8 1.15 19.0 2.0 19.85 2.7 20.8 3.3 21.0 4.1 21.05 4.75 20.95 5.5 20.7 6.2 Q24.0 7.75 24.4 11.2 25.0 16.05 20.8 17.3 L21.15 18.35 Q21.7 20.15 20.8 21.8 19.85 23.55 18.25 24.4 L17.55 24.25 18.25 25.5 Q19.3 27.45 19.65 29.5 L19.3 29.75 19.45 32.15 19.25 34.45 Q6.05 38.05 1.85 26.0 L-2.05 25.95 Q-3.8 30.75 -7.35 34.75 L-19.25 34.6 -19.6 32.35 -19.5 29.75 -19.9 29.5 -17.65 23.9 -16.85 23.75 -16.45 23.95 -16.15 24.15 -15.85 24.4 -15.65 24.65 -15.35 23.95 Q-16.5 19.85 -14.65 15.85 -19.5 19.35 -22.8 15.1 -26.9 9.75 -20.95 6.4 L-21.0 3.3 -19.3 2.3 -19.05 1.2 -21.75 2.8 Q-24.6 1.7 -24.15 -1.25 -23.1 -7.7 -16.7 -9.35 L-14.95 -8.75 -14.55 -9.0 -15.05 -9.1 -15.5 -9.35 -15.9 -9.6 -16.2 -10.05 -16.65 -11.15 -15.25 -12.8 Q-19.25 -19.85 -16.9 -27.8 L-16.2 -28.25 -12.85 -21.35 Q-11.7 -24.15 -9.05 -25.6 -6.9 -26.95 -3.85 -27.15 L-0.35 -35.35 Q2.2 -31.6 3.6 -27.15 M14.1 -12.25 L16.15 -17.9 15.5 -17.2 14.75 -17.3 Q15.1 -18.85 16.6 -19.8 L16.4 -22.75 14.9 -19.9 14.3 -19.7 Q14.15 -22.45 16.55 -24.2 16.8 -25.6 15.95 -26.55 L15.75 -26.55 Q13.05 -20.45 12.85 -13.7 L12.85 -13.65 12.85 -11.1 14.0 -9.9 14.55 -9.8 15.3 -10.75 15.2 -11.25 14.3 -12.0 14.1 -12.25 M-0.1 -23.15 L0.1 -23.25 0.25 -21.6 Q6.6 -19.3 11.75 -14.9 L11.9 -14.1 11.9 -13.95 11.55 -11.0 -0.05 -10.95 -7.95 -10.95 Q-8.1 -8.55 -7.0 -6.35 L-6.5 -5.6 -4.95 -3.6 Q-7.25 -4.0 -9.0 -5.1 L-9.85 -5.7 -11.6 -7.05 -12.5 -7.85 Q-11.55 -8.75 -11.35 -10.0 L-11.25 -10.8 -11.95 -11.2 Q-12.65 -12.15 -12.35 -13.45 L-12.0 -14.9 -11.6 -15.1 Q-11.7 -16.95 -11.2 -18.6 L-10.8 -19.55 -9.7 -21.15 Q-8.6 -22.55 -7.1 -23.2 L-8.7 -21.4 -9.25 -17.35 -8.2 -17.95 Q-8.5 -19.25 -7.95 -20.45 L-7.5 -21.2 -6.8 -21.85 -7.4 -18.35 -0.8 -21.3 -0.35 -22.9 -0.25 -23.0 -0.2 -23.1 -0.1 -23.15 M9.15 -14.25 L9.25 -13.3 -0.1 -14.1 -5.8 -13.8 -5.85 -12.3 -8.1 -12.25 -8.55 -13.0 -8.85 -13.15 -9.1 -13.2 -9.35 -13.35 -9.35 -14.4 -8.85 -14.75 -8.85 -16.05 -8.3 -16.5 -7.75 -16.8 -6.45 -17.35 -6.1 -16.9 -5.95 -16.5 -5.85 -15.5 -4.25 -15.85 -0.15 -16.35 2.4 -16.2 Q5.85 -15.9 9.15 -14.25 M-0.1 -11.9 Q5.45 -11.35 10.8 -12.0 L10.95 -12.55 Q11.35 -14.95 9.4 -16.15 L9.0 -16.45 9.0 -16.5 8.85 -16.6 6.75 -17.8 Q3.55 -19.6 -0.1 -20.55 L-0.15 -20.6 -2.05 -19.9 Q-5.75 -18.7 -9.1 -16.6 L-9.25 -16.5 -9.2 -16.5 -9.25 -16.45 -9.65 -16.15 -9.65 -16.2 -9.7 -16.15 -10.7 -15.3 -10.75 -15.25 -10.7 -15.25 -11.0 -12.6 -11.0 -12.0 -10.5 -11.65 -0.1 -11.9 M2.95 0.05 L3.05 2.6 3.45 2.75 Q3.6 1.35 4.8 0.15 L5.35 -0.3 7.8 -0.1 Q9.45 0.65 9.9 2.35 L10.55 2.6 10.75 0.9 11.4 -1.25 12.15 -1.5 11.4 2.85 11.9 3.1 Q12.55 2.8 13.2 2.6 15.3 1.7 17.45 1.75 L17.2 0.05 Q15.15 -1.8 12.95 -3.35 11.95 -4.1 12.25 -5.5 7.95 -2.4 2.8 -1.1 L2.95 0.05 M14.55 -6.35 Q17.6 -2.2 22.6 -1.35 L23.15 -2.1 Q21.9 -6.85 17.15 -8.45 L16.2 -8.15 Q15.6 -8.45 15.1 -7.9 13.0 -6.2 13.4 -3.6 17.0 0.1 22.1 0.9 L20.95 0.35 Q15.5 -1.9 14.55 -6.35 M21.45 14.0 L21.5 14.0 22.05 14.05 22.65 13.7 22.85 12.65 Q23.4 9.3 20.3 7.45 L19.55 3.55 17.85 3.1 15.35 3.05 12.9 3.7 15.35 6.9 Q16.1 7.95 15.5 8.95 L14.55 9.25 14.0 10.15 Q13.35 11.45 13.1 13.0 L14.3 12.95 15.6 11.4 16.6 10.7 21.25 13.9 21.45 14.0 M10.85 3.6 Q10.0 4.0 10.65 5.05 L11.05 5.9 11.2 6.55 10.95 7.55 10.65 8.0 11.3 8.45 Q8.65 13.05 6.6 8.0 L7.1 7.4 5.45 6.0 Q4.85 9.05 7.35 11.05 L7.3 11.05 7.35 11.1 Q11.0 12.65 13.05 9.45 L13.5 8.7 Q13.9 7.65 13.55 6.6 L13.35 5.9 Q13.35 4.95 12.65 4.3 11.9 3.6 10.85 3.6 M13.25 13.95 L15.4 15.4 17.15 13.95 17.05 14.7 Q16.9 15.35 16.35 15.75 L18.45 16.05 19.3 15.3 19.45 15.35 19.7 15.5 19.7 15.6 19.55 15.95 19.85 16.05 Q21.45 16.2 22.35 14.8 18.95 14.3 16.4 11.6 L15.6 12.0 15.45 12.55 Q14.9 14.25 13.25 13.9 L13.2 13.9 13.25 13.95 M8.4 2.25 L8.5 0.85 8.2 0.6 7.45 0.25 7.3 0.1 7.15 0.15 6.25 0.05 5.9 0.3 5.1 1.05 4.4 2.05 4.85 3.25 7.35 3.7 Q7.95 3.45 8.35 2.8 L8.4 2.25 M6.1 4.35 Q6.55 7.0 9.6 7.6 L10.25 6.5 9.2 3.25 7.85 4.65 6.8 4.7 6.1 4.35 M3.6 3.75 L2.15 3.7 2.0 -0.85 -0.15 -0.15 -2.0 -0.7 Q-2.75 1.4 -2.4 3.7 L-6.9 3.7 -7.45 3.3 -7.95 3.6 -7.7 6.15 -2.35 6.55 Q-2.75 8.45 -2.1 10.4 L-1.7 10.6 2.05 10.3 2.25 6.4 4.55 6.2 4.8 5.45 3.6 3.75 M3.15 7.15 L3.2 10.3 3.75 10.55 4.2 10.55 4.9 10.1 4.35 7.15 3.15 7.15 M3.05 15.35 L3.2 15.95 3.85 16.1 4.05 11.7 2.65 11.7 -1.8 11.55 -3.9 11.7 -4.1 15.9 -2.75 16.2 -3.05 15.65 Q-3.5 14.5 -2.9 13.25 L-1.4 13.55 -1.8 14.05 -1.7 14.85 1.55 15.0 2.45 15.0 2.55 15.0 3.05 15.35 M4.95 11.5 L4.75 15.0 9.55 14.4 11.05 13.8 10.95 12.4 9.2 12.65 Q7.4 12.35 5.9 11.35 L4.95 11.5 M10.2 15.1 L6.75 15.95 4.75 16.05 4.75 16.8 4.15 17.0 Q3.55 19.75 3.75 22.6 L3.9 24.65 11.95 23.55 12.4 23.65 12.8 23.55 13.25 23.25 13.7 22.9 14.0 22.65 13.7 17.6 13.25 17.3 11.8 14.25 10.2 15.1 M-0.15 17.4 L-2.4 17.5 -2.7 23.95 -2.05 24.6 1.9 24.6 2.35 23.95 2.15 17.5 -0.1 17.4 -0.15 17.35 -0.15 17.4 M14.05 24.45 L13.7 23.9 7.5 25.05 6.45 26.3 4.6 28.05 5.8 30.2 7.65 28.45 12.5 24.8 13.35 25.15 14.35 26.85 14.55 26.35 14.55 25.9 14.05 24.45 M18.85 31.25 L17.1 24.5 17.0 24.6 16.65 25.1 Q15.85 27.75 14.0 30.05 L12.35 31.2 11.8 30.45 11.8 30.35 14.0 27.2 12.75 25.8 8.1 29.25 6.15 30.95 7.55 33.7 Q12.9 34.25 18.25 33.65 L18.75 33.3 18.85 32.85 18.85 31.55 18.85 31.5 18.85 31.25 M15.3 24.45 L16.45 23.75 15.45 23.0 15.25 24.3 15.3 24.45 M19.85 22.35 Q20.55 19.65 18.85 17.3 16.45 17.3 14.45 15.85 L15.65 21.85 Q16.75 22.6 18.05 22.9 L18.85 23.1 19.85 22.35 M-15.4 -25.3 L-15.3 -25.75 -15.95 -26.6 -15.95 -26.65 -16.25 -26.6 -16.3 -26.5 Q-16.75 -25.25 -16.8 -23.8 -14.9 -21.5 -14.75 -18.4 L-14.95 -18.25 -15.5 -18.55 -16.85 -22.05 Q-17.1 -19.85 -16.4 -17.9 -14.7 -17.35 -14.25 -15.75 L-14.85 -15.5 -15.7 -16.2 -14.3 -12.1 -15.4 -11.2 -15.5 -10.85 -15.1 -10.15 -14.8 -9.85 -14.5 -9.7 -14.15 -9.85 -13.45 -10.55 -13.1 -11.1 Q-12.9 -18.5 -15.4 -25.3 M-13.55 -5.65 L-13.7 -6.0 Q-14.15 -6.8 -14.95 -7.45 -15.95 -8.3 -17.35 -8.45 L-18.9 -7.9 -20.85 -6.15 -23.0 -3.6 -22.25 -1.1 Q-18.25 -2.65 -14.55 -4.8 L-14.55 -4.75 -16.85 -2.4 Q-17.45 -1.95 -18.15 -1.65 L-20.9 -0.3 -22.3 0.2 -22.95 -0.1 -23.15 -0.15 -23.3 -0.1 -23.35 0.2 -23.25 0.5 -23.0 0.8 -21.3 0.75 Q-20.05 0.1 -18.75 -0.4 -17.4 -1.0 -16.1 -1.8 -14.85 -2.65 -13.65 -3.6 L-13.4 -5.4 -13.4 -5.5 -13.5 -5.65 -13.55 -5.65 M-9.25 -16.5 L-9.3 -16.45 -9.25 -16.45 -9.25 -16.5 M-3.2 0.25 L-3.0 -1.1 Q-7.95 -2.55 -12.45 -5.5 -11.8 -2.35 -15.1 -1.25 L-17.4 0.05 -17.7 1.75 Q-14.25 1.7 -11.45 3.55 -12.65 1.05 -11.9 -1.65 L-11.75 -1.55 Q-10.55 1.1 -10.5 4.05 L-10.4 6.55 -10.65 6.05 -11.65 8.4 Q-9.85 9.95 -7.3 10.15 L-3.45 10.3 -3.4 7.15 -8.8 7.3 -8.8 4.95 -8.6 3.05 -8.4 2.45 -3.3 2.75 -3.2 0.25 M-5.15 11.5 L-7.5 10.85 -11.25 10.05 -11.3 13.8 Q-8.25 15.25 -5.0 15.0 L-5.15 11.5 M-16.6 10.65 L-14.85 12.45 -14.55 12.95 -13.3 13.0 Q-13.45 10.25 -15.6 8.5 L-14.8 8.15 Q-14.6 6.1 -13.15 4.8 L-12.0 5.25 -11.45 4.65 -14.35 3.3 -19.8 3.55 -20.55 7.45 -21.95 8.75 Q-23.15 10.05 -22.9 11.9 L-22.45 13.8 -20.95 13.45 Q-18.4 12.6 -16.6 10.65 M-16.65 11.6 Q-19.15 14.2 -22.55 14.8 -21.6 16.35 -19.85 15.95 L-19.9 15.65 -19.6 15.45 -18.7 16.05 -16.55 15.75 -17.5 13.7 Q-16.4 13.95 -15.65 15.4 L-13.45 13.95 -13.5 13.9 Q-15.3 14.2 -15.8 12.45 L-15.85 12.0 -16.65 11.6 M-10.35 15.15 L-12.4 14.2 -12.55 13.8 Q-14.6 17.85 -14.35 22.6 -13.55 23.7 -12.15 23.55 L-12.05 23.85 Q-11.9 24.2 -11.75 23.7 L-4.35 24.65 Q-3.6 20.85 -4.15 17.1 L-5.0 16.8 -5.0 16.05 -6.3 16.05 Q-8.4 16.05 -10.35 15.15 M-18.7 33.65 L-7.8 33.7 Q-6.9 32.6 -6.35 30.95 L-6.85 30.3 Q-7.3 29.7 -8.1 29.45 L-13.0 25.8 -14.25 27.2 -12.05 30.8 Q-12.9 30.9 -13.5 30.45 -15.55 28.75 -16.2 26.3 -16.5 25.25 -17.45 24.5 -18.5 26.85 -18.8 29.35 -19.1 31.6 -18.7 33.65 M-6.8 26.05 L-7.75 25.05 -13.95 23.8 -14.85 26.45 -14.55 26.85 -14.35 26.3 -14.15 25.85 -13.85 25.5 -13.2 25.0 -12.75 24.8 -7.65 28.65 -6.0 30.2 -4.8 28.05 -6.6 26.35 -6.8 26.05" fill="#000000" fill-rule="evenodd" stroke="none"/>
    <path d="M-0.15 -33.15 Q1.65 -32.75 2.35 -27.75 L2.45 -25.95 Q0.9 -28.25 0.05 -31.35 L-0.1 -32.05 -0.15 -33.15 M5.05 -25.2 Q11.35 -23.9 11.2 -17.7 L10.15 -17.55 9.25 -18.1 Q7.55 -21.95 4.1 -24.15 L4.35 -24.9 5.05 -25.2 M12.85 -13.65 L12.85 -13.7 Q13.05 -20.45 15.75 -26.55 L15.95 -26.55 Q16.8 -25.6 16.55 -24.2 14.15 -22.45 14.3 -19.7 L14.9 -19.9 16.4 -22.75 16.6 -19.8 Q15.1 -18.85 14.75 -17.3 L15.5 -17.2 16.15 -17.9 14.1 -12.25 12.85 -13.65 M9.4 -16.15 L9.15 -14.25 Q5.85 -15.9 2.4 -16.2 L-0.15 -16.35 -0.1 -20.55 Q3.55 -19.6 6.75 -17.8 L8.85 -16.6 9.0 -16.5 9.0 -16.45 9.4 -16.15 M15.1 -7.9 Q15.6 -8.45 16.2 -8.15 L17.15 -8.45 Q21.9 -6.85 23.15 -2.1 L22.6 -1.35 Q17.6 -2.2 14.55 -6.35 L15.1 -7.9 M21.5 14.0 L21.5 13.95 21.45 14.0 21.25 13.9 Q21.65 10.55 19.25 8.4 L18.5 7.8 17.85 3.1 19.55 3.55 20.3 7.45 Q23.4 9.3 22.85 12.65 L22.65 13.7 22.05 14.05 21.5 14.0 M3.6 3.75 L4.8 5.45 4.55 6.2 2.25 6.4 2.05 10.3 -1.7 10.6 -2.1 10.4 Q-2.75 8.45 -2.35 6.55 L-7.7 6.15 -7.95 3.6 -7.45 3.3 -6.9 3.7 -2.4 3.7 Q-2.75 1.4 -2.0 -0.7 L-0.15 -0.15 2.0 -0.85 2.15 3.7 3.6 3.75 M-0.1 17.4 L2.15 17.5 2.35 23.95 1.9 24.6 -2.05 24.6 -2.7 23.95 -2.4 17.5 -0.15 17.4 -0.1 17.4" fill="#ffffff" fill-rule="evenodd" stroke="none"/>
    <path d="M2.45 -25.95 L2.3 -25.5 0.85 -24.7 0.1 -24.85 -0.1 -30.25 -0.15 -30.1 -0.15 -30.45 -0.15 -31.0 -0.1 -32.05 0.05 -31.35 Q0.9 -28.25 2.45 -25.95 M-1.7 -25.15 L-1.8 -25.2 -1.75 -25.25 -1.7 -25.15 M4.15 -26.25 L4.2 -26.3 Q13.1 -23.7 12.45 -13.7 L12.15 -10.5 12.7 -9.75 13.35 -8.9 13.9 -8.25 Q8.45 -2.3 0.25 -1.1 L-0.1 -8.4 0.0 -10.7 -0.05 -10.95 11.55 -11.0 11.9 -13.95 11.9 -14.1 11.75 -14.9 Q6.6 -19.3 0.25 -21.6 L0.1 -23.25 -0.1 -23.15 -0.15 -23.75 -0.25 -24.0 -0.05 -24.0 Q1.9 -23.95 3.15 -25.55 L3.45 -26.0 4.15 -26.25 M-0.25 -7.85 L-0.25 -7.8 -0.3 -7.85 -0.25 -7.85 M5.05 -25.2 L4.35 -24.9 4.1 -24.15 Q7.55 -21.95 9.25 -18.1 L10.15 -17.55 11.2 -17.7 Q11.35 -23.9 5.05 -25.2 M12.85 -13.65 L14.1 -12.25 14.3 -12.0 15.2 -11.25 15.3 -10.75 14.55 -9.8 14.0 -9.9 12.85 -11.1 12.85 -13.65 M9.15 -14.25 L9.4 -16.15 Q11.35 -14.95 10.95 -12.55 L10.8 -12.0 Q5.45 -11.35 -0.1 -11.9 L-0.1 -14.1 9.25 -13.3 9.15 -14.25 M15.1 -7.9 L14.55 -6.35 Q15.5 -1.9 20.95 0.35 L22.1 0.9 Q17.0 0.1 13.4 -3.6 13.0 -6.2 15.1 -7.9 M17.85 3.1 L18.5 7.8 19.25 8.4 Q21.65 10.55 21.25 13.9 L16.6 10.7 16.75 8.9 Q16.9 5.75 15.35 3.05 L17.85 3.1 M11.2 6.55 L11.05 5.9 10.65 5.05 Q10.0 4.0 10.85 3.6 11.1 5.4 12.85 6.3 L13.35 5.9 13.55 6.6 Q13.9 7.65 13.5 8.7 L13.1 8.7 Q11.7 8.1 11.2 6.55 M7.45 0.25 L8.2 0.6 8.5 0.85 8.4 2.25 Q6.55 3.2 5.75 1.35 L5.6 0.75 5.9 0.3 6.25 0.05 7.15 0.15 6.8 0.3 6.55 0.55 6.45 0.9 6.55 1.25 7.05 1.8 7.3 1.95 8.25 0.8 7.45 0.25 M2.65 11.7 Q4.1 12.9 3.3 14.9 L3.05 15.35 2.55 15.0 2.55 14.85 2.55 13.7 2.35 12.85 -2.8 12.5 -2.5 11.85 Q-2.2 11.55 -1.8 11.55 L2.65 11.7 M8.1 29.25 L12.75 25.8 14.0 27.2 11.8 30.35 11.8 30.45 12.35 31.2 14.0 30.05 Q15.85 27.75 16.65 25.1 L17.0 24.6 17.1 24.5 18.85 31.25 17.6 28.9 15.1 31.4 13.5 31.75 Q11.05 32.15 8.9 30.9 L8.1 29.25 M-14.55 -4.8 Q-18.25 -2.65 -22.25 -1.1 L-23.0 -3.6 -20.85 -6.15 -18.9 -7.9 -17.35 -8.45 Q-15.95 -8.3 -14.95 -7.45 -14.15 -6.8 -13.7 -6.0 L-13.55 -5.65 -14.55 -4.8 M-14.35 3.3 Q-16.2 5.85 -16.45 8.8 L-16.6 10.65 Q-18.4 12.6 -20.95 13.45 L-22.45 13.8 -22.9 11.9 Q-23.15 10.05 -21.95 8.75 L-20.55 7.45 -19.8 3.55 -14.35 3.3 M-18.7 33.65 Q-19.1 31.6 -18.8 29.35 -18.5 26.85 -17.45 24.5 -16.5 25.25 -16.2 26.3 -15.55 28.75 -13.5 30.45 -12.9 30.9 -12.05 30.8 L-14.25 27.2 -13.0 25.8 -8.1 29.45 -8.75 31.35 -15.3 31.75 -17.55 29.95 -17.8 30.2 Q-18.6 31.8 -18.7 33.65" fill="#fcfc1b" fill-rule="evenodd" stroke="none"/>
    <path d="M10.85 3.6 Q11.9 3.6 12.65 4.3 13.35 4.95 13.35 5.9 L12.85 6.3 Q11.1 5.4 10.85 3.6 M7.15 0.15 L7.3 0.1 7.45 0.25 8.25 0.8 7.3 1.95 7.05 1.8 6.55 1.25 6.45 0.9 6.55 0.55 6.8 0.3 7.15 0.15 M2.45 15.0 L1.55 15.0 1.5 13.55 -1.4 13.55 -2.9 13.25 -2.8 12.5 2.35 12.85 2.55 13.7 2.55 14.85 2.45 15.0" fill="#fefdcf" fill-rule="evenodd" stroke="none"/>
    <path d="M-0.15 -30.1 L-0.3 -29.5 -0.85 -26.65 Q-0.95 -25.9 -1.2 -25.2 -1.35 -24.75 -1.65 -25.1 L-1.7 -25.15 -1.75 -25.25 -1.8 -25.2 Q-2.55 -25.65 -3.05 -26.65 L-0.7 -32.6 -0.7 -32.65 -0.55 -33.15 -0.5 -33.15 -0.5 -33.35 -0.4 -33.45 -0.35 -33.45 -0.25 -33.4 -0.2 -33.35 -0.15 -33.15 -0.1 -32.05 -0.15 -31.0 -0.15 -30.45 -0.15 -30.1 M-0.1 -8.4 L-0.25 -7.85 -0.3 -7.85 -0.25 -7.8 Q-0.85 -4.55 -3.3 -2.1 L-4.9 -2.4 Q-10.55 -3.75 -14.1 -8.25 L-12.4 -10.5 Q-12.95 -12.7 -13.0 -14.75 -13.0 -16.65 -12.65 -18.4 -12.15 -20.65 -10.65 -22.35 -7.9 -25.3 -4.0 -26.5 L-3.65 -26.25 -3.5 -25.9 Q-2.4 -24.15 -0.25 -24.0 L-0.15 -23.75 -0.1 -23.15 -0.2 -23.1 -0.25 -23.0 -0.35 -22.9 -0.8 -21.3 -7.4 -18.35 -6.8 -21.85 -7.5 -21.2 -7.95 -20.45 Q-8.5 -19.25 -8.2 -17.95 L-9.25 -17.35 -8.7 -21.4 -7.1 -23.2 Q-8.6 -22.55 -9.7 -21.15 L-10.8 -19.55 -11.2 -18.6 Q-11.7 -16.95 -11.6 -15.1 L-12.0 -14.9 -12.35 -13.45 Q-12.65 -12.15 -11.95 -11.2 L-11.25 -10.8 -11.35 -10.0 Q-11.55 -8.75 -12.5 -7.85 L-11.6 -7.05 -9.85 -5.7 -9.0 -5.1 Q-7.25 -4.0 -4.95 -3.6 L-6.5 -5.6 -7.0 -6.35 Q-8.1 -8.55 -7.95 -10.95 L-0.05 -10.95 0.0 -10.7 -0.1 -8.4 M-0.1 -14.1 L-0.1 -11.9 -10.5 -11.65 -11.0 -12.0 -11.0 -12.6 -10.7 -15.25 -10.7 -15.3 -9.7 -16.15 -9.65 -16.15 -9.25 -16.45 -9.2 -16.5 -9.1 -16.6 Q-5.75 -18.7 -2.05 -19.9 L-0.15 -20.6 -0.1 -20.55 -0.15 -16.35 -4.25 -15.85 -5.85 -15.5 -5.95 -16.5 -6.1 -16.9 -6.45 -17.35 -7.75 -16.8 -8.3 -16.5 -8.85 -16.05 -8.85 -14.75 -9.35 -14.4 -9.35 -13.35 -9.1 -13.2 -8.85 -13.15 -8.55 -13.0 -8.1 -12.25 -5.85 -12.3 -5.8 -13.8 -0.1 -14.1 M13.5 8.7 L13.05 9.45 Q11.0 12.65 7.35 11.1 L7.35 11.05 Q4.85 9.05 5.45 6.0 L7.1 7.4 6.6 8.0 Q8.65 13.05 11.3 8.45 L10.65 8.0 10.95 7.55 11.2 6.55 Q11.7 8.1 13.1 8.7 L13.5 8.7 M16.6 10.7 L15.6 11.4 14.3 12.95 13.1 13.0 Q13.35 11.45 14.0 10.15 L14.55 9.25 15.5 8.95 Q16.1 7.95 15.35 6.9 L12.9 3.7 15.35 3.05 Q16.9 5.75 16.75 8.9 L16.6 10.7 M13.25 13.9 Q14.9 14.25 15.45 12.55 L15.6 12.0 16.4 11.6 Q18.95 14.3 22.35 14.8 21.45 16.2 19.85 16.05 L19.55 15.95 19.7 15.6 19.7 15.5 19.45 15.35 19.3 15.3 18.45 16.05 16.35 15.75 Q16.9 15.35 17.05 14.7 L17.15 13.95 15.4 15.4 13.25 13.95 13.25 13.9 M2.65 11.7 L4.05 11.7 3.85 16.1 3.2 15.95 3.05 15.35 3.3 14.9 Q4.1 12.9 2.65 11.7 M2.55 15.0 L2.45 15.0 2.55 14.85 2.55 15.0 M1.55 15.0 L-1.7 14.85 -1.8 14.05 -1.4 13.55 1.5 13.55 1.55 15.0 M-2.9 13.25 Q-3.5 14.5 -3.05 15.65 L-2.75 16.2 -4.1 15.9 -3.9 11.7 -1.8 11.55 Q-2.2 11.55 -2.5 11.85 L-2.8 12.5 -2.9 13.25 M14.05 24.45 L14.55 25.9 14.55 26.35 14.35 26.85 13.35 25.15 12.5 24.8 7.65 28.45 5.8 30.2 4.6 28.05 6.45 26.3 7.5 25.05 13.7 23.9 14.05 24.45 M8.1 29.25 L8.9 30.9 Q11.05 32.15 13.5 31.75 L15.1 31.4 17.6 28.9 18.85 31.25 18.85 31.5 18.8 31.55 18.85 31.55 18.85 32.85 18.75 33.3 18.25 33.65 Q12.9 34.25 7.55 33.7 L6.15 30.95 8.1 29.25 M-15.4 -25.3 Q-12.9 -18.5 -13.1 -11.1 L-13.45 -10.55 -14.15 -9.85 -14.5 -9.7 -14.8 -9.85 -15.1 -10.15 -15.5 -10.85 -15.4 -11.2 -14.3 -12.1 -15.7 -16.2 -14.85 -15.5 -14.25 -15.75 Q-14.7 -17.35 -16.4 -17.9 -17.1 -19.85 -16.85 -22.05 L-15.5 -18.55 -14.95 -18.25 -14.75 -18.4 Q-14.9 -21.5 -16.8 -23.8 -16.75 -25.25 -16.3 -26.5 L-16.25 -26.6 -15.95 -26.65 -15.95 -26.6 -15.3 -25.75 -15.4 -25.3 M-13.55 -5.65 L-13.5 -5.65 -13.4 -5.5 -13.4 -5.4 -13.65 -3.6 Q-14.85 -2.65 -16.1 -1.8 -17.4 -1.0 -18.75 -0.4 -20.05 0.1 -21.3 0.75 L-23.0 0.8 -23.25 0.5 -23.35 0.2 -23.3 -0.1 -23.15 -0.15 -22.95 -0.1 -22.3 0.2 -20.9 -0.3 -18.15 -1.65 Q-17.45 -1.95 -16.85 -2.4 L-14.55 -4.75 -14.55 -4.8 -13.55 -5.65 M-14.35 3.3 L-11.45 4.65 -12.0 5.25 -13.15 4.8 Q-14.6 6.1 -14.8 8.15 L-15.6 8.5 Q-13.45 10.25 -13.3 13.0 L-14.55 12.95 -14.85 12.45 -16.6 10.65 -16.45 8.8 Q-16.2 5.85 -14.35 3.3 M-16.65 11.6 L-15.85 12.0 -15.8 12.45 Q-15.3 14.2 -13.5 13.9 L-13.45 13.95 -15.65 15.4 Q-16.4 13.95 -17.5 13.7 L-16.55 15.75 -18.7 16.05 -19.6 15.45 -19.9 15.65 -19.85 15.95 Q-21.6 16.35 -22.55 14.8 -19.15 14.2 -16.65 11.6 M-6.8 26.05 L-6.6 26.35 -4.8 28.05 -6.0 30.2 -7.65 28.65 -12.75 24.8 -13.2 25.0 -13.85 25.5 -14.15 25.85 -14.35 26.3 -14.55 26.85 -14.85 26.45 -13.95 23.8 -7.75 25.05 -6.8 26.05 M-8.1 29.45 Q-7.3 29.7 -6.85 30.3 L-6.35 30.95 Q-6.9 32.6 -7.8 33.7 L-18.7 33.65 Q-18.6 31.8 -17.8 30.2 L-17.55 29.95 -15.3 31.75 -8.75 31.35 -8.1 29.45" fill="#9b9b02" fill-rule="evenodd" stroke="none"/>
    <path d="M8.4 2.25 L8.35 2.8 Q7.95 3.45 7.35 3.7 L4.85 3.25 4.4 2.05 5.1 1.05 5.9 0.3 5.6 0.75 5.75 1.35 Q6.55 3.2 8.4 2.25" fill="#c6c502" fill-rule="evenodd" stroke="none"/>
    <path d="M6.1 4.35 L6.8 4.7 7.85 4.65 9.2 3.25 10.25 6.5 9.6 7.6 Q6.55 7.0 6.1 4.35" fill="#8f7956" fill-rule="evenodd" stroke="none"/>
    <path d="M4.95 11.5 L5.9 11.35 Q7.4 12.35 9.2 12.65 L10.95 12.4 11.05 13.8 9.55 14.4 4.75 15.0 4.95 11.5 M-5.15 11.5 L-5.0 15.0 Q-8.25 15.25 -11.3 13.8 L-11.25 10.05 -7.5 10.85 -5.15 11.5" fill="#796c42" fill-rule="evenodd" stroke="none"/>
    <path d="M11.4 -1.25 L10.75 0.9 10.55 2.6 9.9 2.35 Q9.45 0.65 7.8 -0.1 L5.35 -0.3 4.8 0.15 Q3.6 1.35 3.45 2.75 L3.05 2.6 2.95 0.05 10.1 -2.45 11.4 -1.25 M3.15 7.15 L4.35 7.15 4.9 10.1 4.2 10.55 3.75 10.55 3.2 10.3 3.15 7.15 M11.95 23.55 L3.9 24.65 3.75 22.6 Q3.55 19.75 4.15 17.0 L4.75 16.8 4.75 16.05 6.75 15.95 10.2 15.1 10.75 16.75 Q11.9 20.15 11.95 23.55 M-11.75 -1.55 L-10.8 -2.8 Q-7.3 -0.45 -3.2 0.25 L-3.3 2.75 -8.4 2.45 -8.6 3.05 -8.8 4.95 -8.8 7.3 -3.4 7.15 -3.45 10.3 -7.3 10.15 Q-9.85 9.95 -11.65 8.4 L-10.65 6.05 -10.4 6.55 -10.5 4.05 Q-10.55 1.1 -11.75 -1.55 M-10.35 15.15 Q-8.4 16.05 -6.3 16.05 L-5.0 16.05 -5.0 16.8 -4.15 17.1 Q-3.6 20.85 -4.35 24.65 L-11.75 23.7 -10.35 15.15" fill="#cc0000" fill-rule="evenodd" stroke="none"/>
    <path d="M2.95 0.05 L2.8 -1.1 Q7.95 -2.4 12.25 -5.5 11.95 -4.1 12.95 -3.35 15.15 -1.8 17.2 0.05 L17.45 1.75 Q15.3 1.7 13.2 2.6 12.55 2.8 11.9 3.1 L11.4 2.85 12.15 -1.5 11.4 -1.25 10.1 -2.45 2.95 0.05 M11.95 23.55 Q11.9 20.15 10.75 16.75 L10.2 15.1 11.8 14.25 13.25 17.3 13.7 17.6 14.0 22.65 13.7 22.9 13.25 23.25 12.8 23.55 12.4 23.65 11.95 23.55 M19.85 22.35 L18.85 23.1 18.05 22.9 Q16.75 22.6 15.65 21.85 L14.45 15.85 Q16.45 17.3 18.85 17.3 20.55 19.65 19.85 22.35 M-11.75 -1.55 L-11.9 -1.65 Q-12.65 1.05 -11.45 3.55 -14.25 1.7 -17.7 1.75 L-17.4 0.05 -15.1 -1.25 Q-11.8 -2.35 -12.45 -5.5 -7.95 -2.55 -3.0 -1.1 L-3.2 0.25 Q-7.3 -0.45 -10.8 -2.8 L-11.75 -1.55 M-11.75 23.7 Q-11.9 24.2 -12.05 23.85 L-12.15 23.55 Q-13.55 23.7 -14.35 22.6 -14.6 17.85 -12.55 13.8 L-12.4 14.2 -10.35 15.15 -11.75 23.7" fill="#990000" fill-rule="evenodd" stroke="none"/>
  </g>
</svg>
