<?xml version="1.0" encoding="UTF-8" standalone="no"?>
<svg xmlns:ffdec="https://www.free-decompiler.com/flash" xmlns:xlink="http://www.w3.org/1999/xlink" ffdec:objectType="shape" height="70.55px" width="32.85px" xmlns="http://www.w3.org/2000/svg">
  <g transform="matrix(1.0, 0.0, 0.0, 1.0, 16.35, 70.65)">
    <path d="M9.4 -2.95 L7.95 -2.1 Q5.9 -0.85 3.5 -0.4 -0.75 0.4 -4.75 -0.9 -8.2 -2.1 -11.3 -3.55 -13.4 -4.6 -15.55 -6.1 -15.85 -6.95 -15.55 -7.7 -15.15 -8.75 -14.1 -9.45 -12.55 -10.6 -12.25 -12.55 -11.8 -15.15 -11.9 -17.75 -12.1 -22.75 -12.9 -27.55 -13.65 -31.75 -12.6 -36.15 L-12.75 -36.2 Q-14.45 -37.35 -13.7 -39.3 L-16.35 -43.0 -14.4 -51.85 Q-13.75 -54.65 -12.05 -57.15 -9.75 -60.5 -6.9 -63.1 -3.2 -66.45 -0.1 -70.65 L1.7 -68.9 4.6 -65.6 7.7 -62.35 Q10.15 -59.95 12.15 -57.15 L13.2 -55.1 Q15.55 -49.25 16.5 -43.0 L13.85 -39.3 Q14.6 -37.25 12.75 -36.15 13.5 -33.95 13.4 -31.75 13.15 -26.85 12.0 -22.15 10.8 -17.1 12.55 -12.25 13.0 -11.0 13.8 -9.95 L14.95 -8.75 15.7 -7.55 Q16.3 -5.85 14.6 -5.3 13.0 -4.75 11.45 -4.0 12.65 -4.7 14.0 -5.2 15.5 -5.65 15.75 -7.1 L15.1 -8.2 Q14.45 -8.65 13.75 -9.15 L14.7 -7.3 Q11.65 -11.1 11.15 -16.05 L10.95 -17.75 9.55 -14.85 8.4 -14.7 7.4 -15.5 7.0 -14.3 6.0 -12.1 Q4.95 -9.85 2.95 -8.5 5.8 -11.0 6.9 -14.85 L7.2 -15.7 4.6 -17.65 4.4 -17.7 4.15 -17.45 4.1 -17.35 4.0 -17.05 Q3.0 -14.2 0.25 -12.95 0.0 -12.8 -0.3 -12.8 L-0.3 -12.85 Q-1.2 -13.3 -2.2 -14.6 L-3.85 -17.0 -4.15 -17.95 -7.05 -15.7 Q-5.8 -11.05 -2.1 -8.15 -1.25 -7.45 -0.25 -6.9 -3.75 -8.3 -5.6 -11.85 L-6.65 -13.9 -7.25 -15.5 -8.85 -14.6 -9.5 -14.9 -10.9 -17.7 -10.95 -16.75 Q-11.25 -12.3 -13.6 -8.65 L-14.45 -7.4 -13.9 -8.4 -13.75 -9.0 Q-15.85 -8.25 -15.1 -6.45 -14.85 -5.9 -14.25 -5.65 L-12.2 -4.5 Q-8.7 -2.65 -4.95 -1.4 0.05 0.3 5.25 -1.25 7.3 -1.95 9.4 -2.95 M-6.95 -46.3 L0.05 -51.65 2.3 -50.1 5.2 -47.9 7.05 -46.35 8.6 -44.5 10.55 -42.0 10.75 -41.45 10.95 -40.85 11.1 -40.45 9.95 -37.6 12.7 -36.6 12.9 -36.75 Q13.05 -36.75 13.1 -36.9 L13.55 -38.15 13.6 -38.9 12.5 -41.6 Q10.45 -46.4 7.2 -50.7 L6.9 -51.15 Q8.05 -50.15 9.05 -48.55 11.65 -44.3 13.65 -40.0 L15.35 -41.95 Q16.1 -42.95 15.9 -44.2 L15.85 -44.55 Q14.95 -49.8 12.75 -54.85 11.9 -56.8 10.55 -58.4 L7.4 -61.85 Q3.45 -65.7 0.15 -70.2 -4.1 -64.85 -9.2 -60.0 -12.45 -56.9 -13.8 -52.5 -15.25 -47.95 -15.8 -43.55 -15.6 -41.5 -13.95 -40.25 L-13.55 -40.0 Q-11.05 -45.2 -7.8 -50.05 L-7.4 -50.55 -6.95 -50.85 Q-9.8 -47.25 -11.8 -43.05 L-13.45 -39.1 Q-13.85 -37.75 -12.75 -36.75 L-12.4 -36.6 -9.8 -37.6 -11.0 -40.5 -10.95 -40.55 -10.2 -42.1 Q-9.5 -43.55 -8.6 -44.55 L-6.95 -46.3 M9.8 -38.55 L9.9 -38.7 9.95 -38.8 Q10.4 -39.5 10.35 -40.6 L10.35 -41.0 Q10.25 -41.8 9.5 -42.5 L6.3 -45.2 5.05 -46.15 2.85 -48.25 Q1.65 -49.5 0.0 -49.75 L-2.2 -48.5 -5.3 -46.35 -7.1 -44.8 -8.9 -43.3 Q-10.3 -42.05 -10.25 -40.2 L-10.1 -39.45 -8.9 -37.65 -8.8 -37.55 -8.85 -37.65 -5.4 -35.05 5.5 -35.05 9.0 -37.65 9.8 -38.55 M9.0 -37.65 L8.9 -37.55 9.0 -37.65 M3.3 -37.25 L3.15 -37.2 1.3 -36.65 -1.45 -36.8 -2.2 -37.1 1.1 -36.75 3.3 -37.25 M9.35 -37.05 L8.75 -36.8 8.65 -36.8 7.05 -35.1 8.35 -35.0 Q10.8 -34.1 10.8 -32.1 L10.25 -32.1 9.0 -33.1 7.1 -33.85 7.95 -33.05 9.1 -31.2 7.05 -33.7 Q6.15 -34.65 4.85 -34.9 L0.4 -34.55 0.35 -28.0 Q0.2 -25.65 0.4 -23.1 0.45 -22.55 0.8 -22.15 4.35 -18.55 8.25 -15.4 L8.8 -15.15 9.1 -15.35 Q11.7 -19.0 12.15 -23.8 13.1 -28.25 13.0 -32.75 13.0 -34.25 12.3 -35.6 11.4 -37.4 9.35 -37.05 M7.35 -35.05 Q6.1 -35.25 6.4 -34.55 L10.6 -32.4 10.45 -32.95 Q9.85 -34.6 8.15 -34.95 L7.35 -35.05 M0.05 -22.25 L-2.2 -19.8 2.15 -19.7 0.05 -22.25 M3.95 -17.9 L2.9 -19.25 -3.15 -18.7 -3.9 -18.25 Q-3.3 -15.7 -1.15 -13.9 L0.05 -12.95 Q2.85 -14.55 3.75 -17.3 L3.95 -17.9 M2.15 -7.9 L0.4 -6.9 0.05 -6.8 -0.25 -6.9 2.15 -7.9 M-9.7 -37.15 Q-11.9 -36.85 -12.3 -34.55 -12.7 -32.35 -12.6 -30.05 L-12.1 -24.35 Q-11.5 -21.15 -10.55 -18.1 -10.15 -16.8 -9.25 -15.6 -9.0 -15.3 -8.6 -15.1 L-0.25 -22.25 -0.15 -27.85 -0.25 -34.55 -5.35 -34.25 -7.7 -32.65 -9.15 -30.95 -8.55 -32.1 -7.0 -33.85 -8.8 -33.15 -10.05 -32.05 -10.7 -32.05 Q-10.45 -34.25 -8.1 -35.05 L-6.9 -35.1 -6.9 -35.15 -6.9 -35.2 -6.85 -35.2 Q-7.85 -36.65 -9.45 -37.1 L-9.7 -37.15 M-9.8 -33.8 Q-10.35 -33.2 -10.45 -32.4 L-6.15 -34.65 Q-8.1 -35.75 -9.8 -33.8" fill="#000000" fill-rule="evenodd" stroke="none"/>
    <path d="M-10.1 -39.45 L-8.4 -41.95 Q-5.45 -40.6 -2.15 -40.9 L0.7 -41.4 1.45 -41.3 Q4.8 -40.6 8.1 -41.75 L8.65 -41.35 Q9.4 -40.75 9.65 -39.95 L9.8 -39.25 9.8 -38.6 9.8 -38.55 9.0 -37.65 5.5 -35.05 -5.4 -35.05 -8.85 -37.65 -8.9 -37.65 -10.1 -39.45 M3.3 -37.25 L1.1 -36.75 -2.2 -37.1 -1.45 -36.8 1.3 -36.65 3.15 -37.2 3.3 -37.25 M0.5 -39.05 L0.65 -39.45 0.5 -39.85 0.1 -40.0 -0.3 -39.85 -0.45 -39.45 -0.3 -39.05 Q-0.15 -38.9 0.1 -38.9 L0.5 -39.05" fill="#ffe3d5" fill-rule="evenodd" stroke="none"/>
    <path d="M-10.1 -39.45 L-10.25 -40.2 Q-10.3 -42.05 -8.9 -43.3 L-7.1 -44.8 -5.3 -46.35 -2.2 -48.5 0.0 -49.75 Q1.65 -49.5 2.85 -48.25 L5.05 -46.15 6.3 -45.2 9.5 -42.5 Q10.25 -41.8 10.35 -41.0 L10.35 -40.6 Q10.4 -39.5 9.95 -38.8 L9.9 -38.7 9.8 -38.55 9.8 -38.6 9.8 -39.25 9.65 -39.95 Q9.4 -40.75 8.65 -41.35 L8.1 -41.75 Q4.8 -40.6 1.45 -41.3 L0.7 -41.4 -2.15 -40.9 Q-5.45 -40.6 -8.4 -41.95 L-10.1 -39.45 M0.5 -39.05 L0.1 -38.9 Q-0.15 -38.9 -0.3 -39.05 L-0.45 -39.45 -0.3 -39.85 0.1 -40.0 0.5 -39.85 0.65 -39.45 0.5 -39.05" fill="#edb192" fill-rule="evenodd" stroke="none"/>
    <path d="M-14.45 -7.4 L-13.6 -8.65 Q-11.25 -12.3 -10.95 -16.75 -10.35 -14.4 -8.9 -12.75 L-8.65 -12.55 -6.65 -13.9 -5.6 -11.85 Q-3.75 -8.3 -0.25 -6.9 L0.05 -6.8 0.4 -6.9 2.15 -7.9 2.95 -8.5 Q4.95 -9.85 6.0 -12.1 L7.0 -14.3 9.25 -13.1 Q10.75 -13.9 11.15 -16.05 11.65 -11.1 14.7 -7.3 L13.75 -9.15 Q14.45 -8.65 15.1 -8.2 L15.15 -7.05 Q11.05 -4.8 6.85 -3.1 L3.25 -2.05 0.1 -1.45 Q-3.55 -1.1 -6.85 -3.0 -10.35 -5.05 -14.1 -6.7 L-14.45 -7.4 M-3.85 -17.0 L-2.2 -14.6 Q-1.2 -13.3 -0.3 -12.85 L-0.3 -12.8 Q0.0 -12.8 0.25 -12.95 3.0 -14.2 4.0 -17.05 L5.55 -15.3 Q4.4 -10.3 -0.05 -7.6 -4.4 -10.2 -5.35 -15.25 L-3.85 -17.0 M7.05 -46.35 L5.2 -47.9 2.3 -50.1 0.05 -51.65 -6.95 -46.3 -8.0 -45.5 Q-9.5 -44.3 -10.55 -42.7 L-12.2 -39.45 -12.55 -38.15 -13.45 -39.1 -11.8 -43.05 Q-9.8 -47.25 -6.95 -50.85 L-7.4 -50.55 -7.8 -50.05 Q-11.05 -45.2 -13.55 -40.0 L-13.95 -40.25 Q-15.6 -41.5 -15.8 -43.55 -15.25 -47.95 -13.8 -52.5 -12.45 -56.9 -9.2 -60.0 -4.1 -64.85 0.15 -70.2 3.45 -65.7 7.4 -61.85 L10.55 -58.4 Q11.9 -56.8 12.75 -54.85 14.95 -49.8 15.85 -44.55 L14.35 -42.7 Q11.25 -49.05 5.55 -53.1 L5.55 -53.05 6.85 -51.2 6.9 -51.15 7.2 -50.7 Q10.45 -46.4 12.5 -41.6 L13.6 -38.9 13.3 -38.35 12.75 -38.1 Q11.85 -40.35 10.55 -42.3 L8.9 -44.35 7.05 -46.35 M9.35 -37.05 Q11.4 -37.4 12.3 -35.6 13.0 -34.25 13.0 -32.75 13.1 -28.25 12.15 -23.8 L8.85 -17.35 1.05 -23.75 0.35 -28.0 0.4 -34.55 4.85 -34.9 Q6.15 -34.65 7.05 -33.7 L9.1 -31.2 7.95 -33.05 9.0 -33.1 10.25 -32.1 10.8 -32.1 Q10.8 -34.1 8.35 -35.0 L9.35 -37.05 M8.65 -36.8 L8.75 -36.8 8.7 -36.8 8.65 -36.8 M-12.1 -24.35 L-12.6 -30.05 Q-12.7 -32.35 -12.3 -34.55 -11.9 -36.85 -9.7 -37.15 L-8.1 -35.05 Q-10.45 -34.25 -10.7 -32.05 L-10.05 -32.05 -8.8 -33.15 -8.55 -32.1 -9.15 -30.95 -7.7 -32.65 -5.35 -34.25 -0.25 -34.55 -0.15 -27.85 -0.9 -23.7 Q-3.6 -20.6 -7.2 -18.6 L-8.7 -17.7 -9.2 -17.75 -12.1 -24.35" fill="#98afa2" fill-rule="evenodd" stroke="none"/>
    <path d="M9.4 -2.95 Q7.3 -1.95 5.25 -1.25 0.05 0.3 -4.95 -1.4 -8.7 -2.65 -12.2 -4.5 L-14.25 -5.65 Q-14.85 -5.9 -15.1 -6.45 -15.85 -8.25 -13.75 -9.0 L-13.9 -8.4 -14.45 -7.4 -14.1 -6.7 Q-10.35 -5.05 -6.85 -3.0 -3.55 -1.1 0.1 -1.45 L3.25 -2.05 6.85 -3.1 Q11.05 -4.8 15.15 -7.05 L15.1 -8.2 15.75 -7.1 Q15.5 -5.65 14.0 -5.2 12.65 -4.7 11.45 -4.0 L11.25 -3.9 9.4 -2.95 M-10.95 -16.75 L-10.9 -17.7 -9.5 -14.9 -8.85 -14.6 -7.25 -15.5 -6.65 -13.9 -8.65 -12.55 -8.9 -12.75 Q-10.35 -14.4 -10.95 -16.75 M-0.25 -6.9 Q-1.25 -7.45 -2.1 -8.15 -5.8 -11.05 -7.05 -15.7 L-4.15 -17.95 -3.85 -17.0 -5.35 -15.25 Q-4.4 -10.2 -0.05 -7.6 4.4 -10.3 5.55 -15.3 L4.0 -17.05 4.1 -17.35 4.15 -17.45 4.4 -17.7 4.6 -17.65 7.2 -15.7 6.9 -14.85 Q5.8 -11.0 2.95 -8.5 L2.15 -7.9 -0.25 -6.9 M7.0 -14.3 L7.4 -15.5 8.4 -14.7 9.55 -14.85 10.95 -17.75 11.15 -16.05 Q10.75 -13.9 9.25 -13.1 L7.0 -14.3 M7.05 -46.35 L8.9 -44.35 10.55 -42.3 Q11.85 -40.35 12.75 -38.1 L13.3 -38.35 13.6 -38.9 13.55 -38.15 13.1 -36.9 Q13.05 -36.75 12.9 -36.75 L12.7 -36.6 9.95 -37.6 11.1 -40.45 10.95 -40.85 10.75 -41.45 10.55 -42.0 8.6 -44.5 7.05 -46.35 M6.9 -51.15 L6.85 -51.2 5.55 -53.05 5.55 -53.1 Q11.25 -49.05 14.35 -42.7 L15.85 -44.55 15.9 -44.2 Q16.1 -42.95 15.35 -41.95 L13.65 -40.0 Q11.65 -44.3 9.05 -48.55 8.05 -50.15 6.9 -51.15 M-13.45 -39.1 L-12.55 -38.15 -12.2 -39.45 -10.55 -42.7 Q-9.5 -44.3 -8.0 -45.5 L-6.95 -46.3 -8.6 -44.55 Q-9.5 -43.55 -10.2 -42.1 L-10.95 -40.55 -11.0 -40.5 -9.8 -37.6 -12.4 -36.6 -12.75 -36.75 Q-13.85 -37.75 -13.45 -39.1 M8.75 -36.8 L9.35 -37.05 8.35 -35.0 7.05 -35.1 8.65 -36.8 8.7 -36.8 8.75 -36.8 M12.15 -23.8 Q11.7 -19.0 9.1 -15.35 L8.8 -15.15 8.25 -15.4 Q4.35 -18.55 0.8 -22.15 0.45 -22.55 0.4 -23.1 0.2 -25.65 0.35 -28.0 L1.05 -23.75 8.85 -17.35 12.15 -23.8 M7.95 -33.05 L7.1 -33.85 9.0 -33.1 7.95 -33.05 M7.35 -35.05 L8.15 -34.95 Q9.85 -34.6 10.45 -32.95 L10.6 -32.4 6.4 -34.55 Q6.1 -35.25 7.35 -35.05 M3.95 -17.9 L3.75 -17.3 Q2.85 -14.55 0.05 -12.95 L-1.15 -13.9 Q-3.3 -15.7 -3.9 -18.25 L-3.15 -18.7 2.9 -19.25 3.95 -17.9 M-12.1 -24.35 L-9.2 -17.75 -8.7 -17.7 -7.2 -18.6 Q-3.6 -20.6 -0.9 -23.7 L-0.15 -27.85 -0.25 -22.25 -8.6 -15.1 Q-9.0 -15.3 -9.25 -15.6 -10.15 -16.8 -10.55 -18.1 -11.5 -21.15 -12.1 -24.35 M-8.55 -32.1 L-8.8 -33.15 -7.0 -33.85 -8.55 -32.1 M-8.1 -35.05 L-9.7 -37.15 -9.45 -37.1 Q-7.85 -36.65 -6.85 -35.2 L-6.9 -35.2 -6.9 -35.15 -6.9 -35.1 -8.1 -35.05 M-9.8 -33.8 Q-8.1 -35.75 -6.15 -34.65 L-10.45 -32.4 Q-10.35 -33.2 -9.8 -33.8" fill="#597565" fill-rule="evenodd" stroke="none"/>
    <path d="M0.05 -22.25 L2.15 -19.7 -2.2 -19.8 0.05 -22.25" fill="#847d6f" fill-rule="evenodd" stroke="none"/>
  </g>
</svg>
