<?xml version="1.0" encoding="UTF-8" standalone="no"?>
<svg xmlns:ffdec="https://www.free-decompiler.com/flash" xmlns:xlink="http://www.w3.org/1999/xlink" ffdec:objectType="shape" height="64.25px" width="40.25px" xmlns="http://www.w3.org/2000/svg">
  <g transform="matrix(1.0, 0.0, 0.0, 1.0, 20.05, 66.4)">
    <path d="M3.7 -45.45 L4.65 -45.65 4.5 -40.2 4.65 -39.95 4.7 -39.75 Q3.75 -40.05 3.65 -41.05 L3.55 -42.95 3.6 -44.85 3.7 -45.45 M6.95 -39.75 L7.1 -41.4 7.65 -45.0 7.75 -45.1 Q9.15 -44.1 9.5 -42.35 L8.75 -41.1 8.7 -41.05 8.75 -40.95 8.75 -40.9 8.55 -40.7 7.75 -40.3 6.95 -39.75 M-8.55 -40.9 L-8.55 -40.95 -8.5 -41.05 -8.55 -41.1 -9.25 -42.35 Q-8.95 -44.1 -7.55 -45.1 L-7.45 -45.0 -6.9 -41.4 -6.7 -39.75 -7.55 -40.3 -8.35 -40.7 -8.55 -40.9 M-4.5 -39.75 L-4.45 -39.95 -4.3 -40.2 -4.45 -45.65 -3.45 -45.45 -3.4 -44.85 -3.35 -42.95 -3.45 -41.05 Q-3.55 -40.05 -4.5 -39.75 M5.6 -45.8 L6.9 -45.15 6.85 -43.8 5.1 -43.9 5.15 -45.7 5.6 -45.8 M0.05 -18.7 L0.2 -18.25 0.0 -18.25 0.0 -18.6 0.05 -18.7 M3.05 -14.4 L3.1 -14.45 3.1 -14.35 3.05 -14.4 M6.7 -10.65 L6.7 -10.7 6.7 -10.65 M9.1 -7.8 L8.15 -6.95 Q6.95 -6.65 6.0 -7.25 4.1 -8.25 2.85 -10.05 L0.45 -13.15 0.35 -13.25 Q0.15 -13.85 0.0 -13.45 L-0.05 -13.3 -0.25 -13.2 -2.75 -10.15 Q-4.0 -8.8 -5.4 -7.7 L-6.65 -6.9 -8.2 -7.3 -8.9 -7.8 Q-7.7 -7.55 -6.7 -8.4 -4.75 -9.9 -3.15 -12.05 L-1.05 -14.75 0.0 -15.85 0.15 -16.0 2.35 -13.4 Q4.15 -11.0 6.3 -8.95 L7.9 -7.9 9.1 -7.8 M4.6 -6.9 Q4.1 -6.0 3.2 -6.15 1.55 -6.65 0.6 -8.05 L0.35 -8.4 Q0.1 -8.9 -0.1 -8.55 L-0.65 -7.95 -2.35 -6.5 Q-3.45 -5.65 -4.4 -6.9 -4.0 -7.05 -3.7 -7.3 L-2.05 -9.05 0.0 -11.4 0.2 -11.85 1.05 -10.35 Q2.35 -7.85 4.6 -6.9 M-6.5 -10.65 L-6.5 -10.7 -6.45 -10.65 -6.5 -10.65 M-2.9 -14.35 L-2.9 -14.45 -2.8 -14.4 -2.9 -14.35 M-4.95 -45.7 L-4.9 -43.9 -6.65 -43.8 -6.7 -45.15 -5.4 -45.8 -4.95 -45.7" fill="#ffffff" fill-rule="evenodd" stroke="none"/>
    <path d="M4.1 -65.1 L4.0 -65.1 2.35 -63.4 2.25 -63.45 Q1.5 -65.1 0.0 -66.0 L-2.15 -63.4 Q-3.1 -64.7 -3.9 -65.1 L-5.1 -63.85 -5.45 -64.0 -6.75 -65.15 -6.75 -64.7 -5.8 -63.65 -6.95 -62.9 -7.0 -63.1 -7.25 -61.35 Q-5.95 -60.7 -4.3 -60.5 -0.65 -59.8 3.1 -60.35 5.4 -60.35 7.45 -61.35 L7.15 -63.1 7.15 -62.85 6.0 -63.65 6.95 -64.7 6.9 -65.15 5.75 -63.9 5.25 -63.85 4.1 -65.1 M0.2 -62.35 L1.2 -63.45 0.2 -64.75 -1.05 -63.4 0.2 -62.35 M5.0 -63.45 L4.15 -62.35 3.05 -63.5 4.05 -64.35 5.0 -63.45 M4.6 -63.35 L4.05 -63.95 3.5 -63.4 4.05 -62.75 4.6 -63.35 M-0.05 -61.85 L-1.55 -63.3 0.1 -65.25 1.7 -63.25 0.3 -61.85 0.1 -61.7 0.0 -61.75 -0.05 -61.85 M-13.2 -45.35 L-13.45 -46.05 Q-13.95 -48.0 -13.8 -49.9 L-14.3 -50.55 Q-16.05 -51.25 -15.8 -53.25 -15.55 -55.35 -13.85 -56.55 -14.0 -58.15 -12.75 -59.15 L-11.7 -59.95 -9.7 -61.55 Q-8.65 -62.4 -7.45 -62.3 L-6.9 -65.6 -6.8 -65.65 -6.05 -65.05 -5.2 -64.25 -5.1 -64.25 -3.6 -65.65 -2.6 -64.4 -2.35 -64.15 -2.15 -64.15 0.1 -66.4 2.4 -64.0 3.9 -65.7 5.35 -64.25 7.1 -65.55 7.15 -65.4 Q7.15 -63.55 7.95 -62.3 L9.95 -61.55 Q10.9 -60.75 12.0 -60.15 13.2 -59.55 13.85 -58.1 14.25 -57.2 14.05 -56.55 16.25 -55.0 16.05 -52.55 15.95 -50.9 14.5 -50.55 L14.0 -49.9 14.0 -48.8 Q14.1 -47.2 13.65 -45.9 L13.3 -44.85 14.55 -45.45 14.45 -44.5 14.55 -44.55 14.9 -44.5 15.2 -44.65 15.25 -44.7 15.4 -44.75 15.8 -44.65 15.0 -42.5 14.6 -41.25 16.8 -42.05 17.85 -42.0 17.35 -40.95 Q16.7 -39.5 15.35 -38.5 L17.95 -38.8 17.55 -38.4 15.6 -36.65 Q14.9 -36.0 14.1 -36.0 L15.8 -35.35 11.95 -34.45 Q12.8 -33.95 13.3 -33.05 L13.4 -32.9 13.75 -32.3 13.85 -32.0 Q14.9 -30.1 13.4 -28.35 L14.05 -26.9 Q14.9 -25.35 16.05 -24.0 L17.4 -22.9 19.0 -22.15 19.15 -21.95 19.1 -21.9 18.85 -21.6 18.95 -21.4 19.05 -21.15 19.05 -20.95 19.35 -20.75 19.5 -20.6 19.95 -20.05 20.2 -19.35 19.95 -18.95 19.15 -18.9 19.9 -19.35 Q19.6 -20.45 18.5 -20.75 L18.05 -20.15 Q17.4 -19.3 16.45 -19.3 17.05 -18.9 17.6 -18.75 L16.7 -18.7 16.65 -18.6 16.4 -18.15 15.8 -17.65 14.2 -18.35 13.65 -17.8 13.2 -18.25 Q12.95 -18.05 12.7 -18.0 L12.5 -18.0 12.7 -20.35 8.8 -25.65 7.85 -25.15 9.75 -21.9 11.05 -18.6 12.35 -14.25 Q13.15 -10.9 14.35 -7.5 L13.8 -7.95 Q13.2 -8.25 13.05 -7.8 L13.05 -7.1 Q12.25 -8.15 12.1 -7.35 L11.95 -7.35 Q11.45 -8.05 11.1 -7.65 L11.0 -7.65 Q10.6 -7.85 10.5 -8.5 L10.55 -7.9 Q10.25 -7.3 10.05 -8.0 L9.8 -8.05 9.65 -8.05 Q8.85 -6.45 7.05 -6.55 6.65 -4.8 5.25 -3.65 4.5 -3.0 3.6 -2.65 2.05 -2.05 0.35 -2.3 -0.1 -2.5 -0.05 -2.9 -0.3 -2.15 -1.55 -2.15 -4.25 -2.1 -5.65 -4.45 L-7.15 -6.5 Q-8.65 -6.6 -9.35 -8.1 L-10.05 -7.6 -10.4 -7.95 Q-10.55 -7.6 -10.9 -7.65 L-10.95 -7.9 -11.6 -7.25 -11.95 -7.75 -12.8 -7.3 -12.8 -7.55 Q-12.95 -8.25 -13.55 -7.95 L-14.1 -7.65 -13.25 -10.5 -12.2 -14.3 Q-11.1 -18.8 -9.0 -23.0 L-7.6 -25.15 -8.6 -25.65 -12.5 -20.15 -12.3 -18.0 -13.0 -18.25 -13.45 -17.7 -14.05 -18.35 -15.55 -17.65 -16.25 -18.1 -16.5 -18.7 -17.5 -18.75 Q-16.85 -18.9 -16.2 -19.3 -17.1 -19.3 -17.5 -19.8 L-17.85 -20.15 -18.25 -20.75 Q-19.1 -20.45 -19.45 -19.8 L-19.7 -19.35 -18.8 -18.85 -19.7 -18.95 -20.05 -19.5 -18.9 -20.95 -18.8 -21.6 -18.95 -21.95 -18.95 -22.0 Q-18.35 -22.4 -17.9 -22.45 -16.15 -23.0 -15.0 -24.5 -13.55 -26.2 -13.2 -28.35 L-13.8 -29.7 Q-14.25 -30.85 -13.75 -32.05 -13.15 -33.55 -11.75 -34.45 L-13.35 -34.7 -15.6 -35.35 -13.85 -36.0 Q-16.05 -36.75 -17.8 -38.75 L-17.75 -38.8 -15.15 -38.5 Q-16.95 -39.95 -17.65 -42.0 L-17.45 -42.1 -15.9 -41.85 -14.45 -41.45 Q-15.4 -43.1 -15.65 -45.05 L-14.3 -44.6 -14.25 -45.45 -13.1 -44.85 -13.05 -44.95 -13.2 -45.35 M6.4 -63.7 L6.85 -63.35 6.9 -64.35 6.4 -63.7 M12.3 -54.9 L11.1 -56.85 8.8 -59.9 8.25 -60.25 7.25 -60.95 7.2 -60.9 5.75 -60.5 Q-0.6 -58.75 -6.85 -60.8 L-7.05 -60.95 -7.05 -60.9 -8.1 -60.3 -8.3 -60.1 -9.1 -59.55 Q-10.95 -57.4 -12.05 -54.9 L-12.6 -53.45 Q-13.4 -51.05 -13.15 -48.7 L-12.75 -45.85 -12.7 -45.8 -12.1 -45.95 -11.45 -45.9 -10.6 -45.15 -10.65 -45.4 -10.65 -45.75 -10.3 -46.55 -10.15 -47.1 -10.2 -47.05 -10.4 -47.15 -11.4 -47.55 -12.35 -48.55 -12.65 -49.4 -12.7 -49.55 -12.65 -49.5 -12.45 -49.4 -12.4 -49.35 -11.45 -48.25 Q-10.85 -47.5 -10.05 -47.35 L-9.55 -49.6 -9.2 -51.4 -9.45 -51.75 Q-10.45 -53.25 -10.2 -55.0 L-9.25 -58.35 Q-9.05 -58.9 -8.25 -59.3 L-8.2 -59.3 -8.95 -58.0 -9.3 -57.2 -9.55 -55.1 -9.35 -52.75 Q-9.2 -52.15 -8.75 -51.85 L-6.2 -52.7 -1.65 -53.0 Q-0.9 -52.95 -0.25 -53.25 L0.4 -53.05 0.95 -53.35 1.35 -53.05 2.9 -53.3 4.45 -53.05 Q6.85 -52.9 8.95 -51.85 L9.45 -52.15 9.6 -52.75 Q10.2 -55.05 9.55 -57.2 L9.2 -58.0 8.4 -59.3 8.45 -59.3 9.5 -58.35 10.45 -55.0 Q10.85 -52.8 9.3 -51.3 L9.2 -51.35 9.9 -49.0 10.3 -47.3 Q11.45 -47.75 12.15 -48.8 L12.65 -49.4 12.65 -49.3 Q12.8 -49.95 12.9 -49.4 L12.65 -48.6 12.6 -48.55 12.4 -48.3 12.1 -47.95 11.6 -47.55 10.6 -47.1 10.4 -47.05 10.35 -47.1 10.5 -46.55 10.8 -45.75 10.85 -45.4 10.85 -45.15 11.25 -45.65 11.3 -45.65 11.7 -45.9 12.2 -45.95 12.3 -45.95 12.9 -45.85 Q12.9 -45.7 12.95 -45.85 L13.35 -48.7 Q13.65 -51.05 12.85 -53.45 L12.3 -54.9 M7.8 -61.15 Q10.35 -59.5 12.0 -56.65 13.0 -55.0 13.5 -53.15 L14.0 -50.85 14.05 -50.65 Q15.05 -50.9 15.45 -52.35 15.8 -53.65 15.1 -54.8 L13.8 -56.2 13.7 -56.95 Q13.3 -59.2 10.9 -59.7 10.1 -61.65 8.0 -61.95 L7.85 -61.85 7.8 -61.15 M5.55 -57.7 L5.6 -57.2 Q6.0 -55.05 4.8 -53.4 L4.75 -53.4 5.25 -56.9 5.25 -57.45 4.85 -59.5 5.55 -57.7 M1.15 -59.3 L0.95 -53.6 Q0.4 -53.55 0.4 -54.15 0.4 -56.7 0.95 -58.95 L1.1 -59.3 1.15 -59.3 M6.95 -52.05 L6.15 -52.25 -0.55 -52.75 -5.95 -52.25 -6.75 -52.05 -6.7 -52.15 -8.05 -51.7 -8.6 -51.4 -8.65 -51.3 -9.6 -48.5 -7.8 -49.45 -7.5 -49.55 Q-5.25 -49.55 -3.4 -48.8 L-3.85 -48.65 -6.45 -49.15 Q-8.2 -49.25 -9.6 -48.05 L-10.2 -45.0 -10.1 -44.05 -10.15 -43.95 -10.1 -42.75 -9.75 -43.35 -9.3 -44.3 -9.2 -44.35 -8.95 -44.7 -8.25 -45.45 -6.6 -46.7 -8.05 -46.1 -7.25 -46.65 -6.55 -46.8 -4.75 -47.15 Q-3.5 -46.8 -2.85 -45.9 L-3.3 -45.45 -3.45 -45.45 -4.45 -45.65 -4.3 -40.2 -4.45 -39.95 -4.5 -39.75 -5.2 -39.5 Q-5.95 -39.35 -6.7 -39.75 L-6.9 -41.4 -7.45 -45.0 -7.55 -45.1 Q-8.95 -44.1 -9.25 -42.35 L-8.55 -41.1 -8.5 -41.05 -8.55 -40.95 -8.55 -40.9 -9.7 -41.75 -9.7 -41.7 -9.8 -41.75 -10.05 -42.0 -10.05 -41.6 -10.05 -41.0 -10.05 -40.9 -10.0 -40.75 Q-10.05 -39.05 -9.25 -37.6 -7.85 -35.2 -5.4 -34.1 -2.65 -32.75 0.2 -32.85 L3.95 -33.3 Q6.8 -34.2 8.65 -36.4 10.45 -38.5 10.25 -41.3 L10.25 -41.6 10.3 -42.0 10.0 -41.75 9.95 -41.7 9.9 -41.75 8.75 -40.9 8.75 -40.95 8.7 -41.05 8.75 -41.1 9.5 -42.35 Q9.15 -44.1 7.75 -45.1 L7.65 -45.0 7.1 -41.4 6.95 -39.75 Q6.15 -39.35 5.4 -39.5 L4.7 -39.75 4.65 -39.95 4.5 -40.2 4.65 -45.65 3.7 -45.45 3.5 -45.45 3.05 -45.9 Q3.7 -46.8 4.95 -47.15 L5.9 -47.05 6.75 -46.8 8.25 -46.1 6.8 -46.7 8.45 -45.45 9.15 -44.7 9.45 -44.35 9.5 -44.3 9.95 -43.35 10.35 -42.75 10.35 -43.95 10.35 -44.05 10.35 -44.4 10.55 -45.4 9.85 -47.8 Q8.5 -49.3 6.7 -49.15 5.0 -49.2 3.4 -48.45 3.5 -48.65 3.7 -48.65 L5.6 -49.4 Q8.15 -50.1 9.9 -48.25 L8.85 -51.3 8.8 -51.4 8.25 -51.7 7.25 -52.05 6.95 -52.05 M11.95 -53.0 Q12.85 -49.95 10.45 -48.5 L10.25 -48.45 10.4 -48.75 10.8 -48.95 Q12.05 -50.5 11.8 -52.65 11.65 -53.0 11.85 -53.05 L11.95 -53.0 M10.0 -37.9 L9.65 -36.8 Q12.65 -38.15 12.9 -41.5 L12.8 -44.1 12.55 -44.95 11.85 -45.3 10.8 -44.25 10.75 -44.05 10.75 -43.95 10.75 -43.85 10.5 -42.75 10.55 -42.65 Q11.1 -42.25 10.45 -42.1 L10.4 -41.5 10.05 -38.2 10.0 -37.9 M14.75 -42.9 L15.4 -44.4 13.75 -43.45 Q13.5 -42.8 13.4 -41.7 L13.15 -40.2 13.9 -40.2 14.25 -40.0 14.4 -39.9 13.6 -39.15 12.85 -38.65 13.75 -37.6 11.8 -36.8 12.35 -35.85 10.35 -35.6 15.25 -35.25 13.4 -35.8 13.05 -36.2 Q15.65 -36.6 17.45 -38.45 L14.3 -38.0 16.25 -40.0 17.1 -41.15 17.4 -41.75 Q16.45 -41.0 15.2 -41.1 L14.1 -40.75 Q14.1 -41.6 14.75 -42.9 M6.4 -43.45 L6.35 -43.45 Q6.5 -42.55 6.25 -41.75 6.1 -41.15 5.6 -41.5 L5.6 -41.7 Q5.85 -42.9 5.45 -43.25 L5.35 -43.15 Q4.8 -41.85 5.1 -40.55 L5.35 -40.35 5.35 -40.3 5.5 -40.25 5.9 -40.0 6.35 -40.35 Q6.9 -40.9 6.85 -41.95 L6.65 -43.0 6.4 -43.45 M5.6 -45.8 L5.15 -45.7 5.1 -43.9 6.85 -43.8 6.9 -45.15 5.6 -45.8 M9.7 -35.25 L8.2 -35.05 Q7.2 -34.05 6.1 -33.55 L5.65 -32.7 Q5.15 -32.05 4.25 -31.65 3.85 -30.95 4.55 -31.15 5.15 -31.4 5.75 -31.9 L5.85 -32.2 Q6.5 -32.35 6.4 -32.95 L7.15 -33.75 7.15 -33.95 7.75 -33.85 Q8.15 -34.0 8.2 -34.4 L9.7 -35.25 M7.25 -32.45 Q7.05 -32.75 6.85 -32.3 6.7 -31.85 7.25 -31.8 L7.25 -31.65 Q6.45 -32.0 6.55 -31.2 L6.2 -31.3 Q5.5 -30.95 6.2 -30.65 6.1 -30.5 6.0 -30.65 L5.0 -30.2 Q4.9 -30.25 4.85 -30.1 L4.6 -29.9 4.2 -29.8 3.7 -30.0 3.6 -30.0 Q3.15 -30.0 3.05 -29.3 L3.0 -29.25 2.65 -29.4 Q2.0 -29.4 1.4 -29.0 L1.1 -28.95 0.35 -29.2 -0.15 -29.2 -0.85 -28.95 -1.15 -29.0 -2.35 -29.4 -2.75 -29.25 -2.85 -29.3 Q-2.8 -30.0 -3.35 -29.65 L-4.05 -29.75 -4.4 -29.9 -4.6 -30.1 -5.95 -30.65 Q-5.55 -30.8 -5.75 -31.1 L-6.2 -31.3 -6.3 -31.2 Q-6.25 -32.0 -7.05 -31.65 L-7.0 -31.8 -6.6 -31.9 -6.5 -32.15 -6.65 -32.4 -7.05 -32.45 -8.15 -32.35 -8.05 -33.4 -9.55 -33.8 -9.35 -34.2 -10.9 -34.55 -11.45 -34.25 Q-12.5 -33.4 -13.1 -32.05 L-13.45 -30.6 Q-13.65 -28.05 -11.25 -27.7 L-11.6 -29.85 -11.25 -29.05 -11.15 -29.1 -10.7 -29.15 -10.35 -28.7 -8.6 -32.1 -9.2 -28.9 Q-9.45 -26.0 -6.6 -25.6 -3.9 -25.3 -1.2 -25.7 L-1.1 -25.5 -1.15 -25.5 -1.15 -25.4 0.8 -25.55 Q1.8 -25.35 1.4 -25.55 L1.25 -25.6 1.4 -25.7 6.8 -25.9 Q7.75 -26.0 8.55 -26.55 L9.15 -27.5 9.3 -28.9 Q9.25 -30.65 8.85 -32.15 L10.55 -28.7 Q11.15 -29.95 11.05 -29.4 11.0 -28.95 11.4 -29.1 L11.45 -29.05 11.8 -29.85 11.7 -27.8 12.65 -28.25 Q14.2 -29.25 13.7 -31.2 13.05 -33.5 10.85 -34.65 L9.55 -34.2 9.8 -33.8 8.25 -33.4 Q8.25 -33.05 8.4 -32.75 8.65 -32.25 8.2 -32.35 L7.4 -32.7 7.25 -32.45 M2.4 -36.05 L2.55 -36.9 1.85 -37.5 -1.6 -37.5 -2.3 -36.9 Q-2.25 -34.9 -0.45 -34.1 L0.2 -33.95 1.25 -34.3 Q2.2 -35.0 2.4 -36.05 M3.35 -31.95 L3.45 -32.05 4.9 -32.6 5.85 -33.7 Q4.75 -33.2 2.4 -32.8 L0.2 -32.6 -1.75 -32.75 Q-4.6 -33.75 -5.65 -33.55 -4.95 -33.35 -4.7 -32.6 L-4.15 -32.3 -3.75 -32.3 Q-3.2 -32.3 -3.15 -31.95 L-3.15 -31.3 -2.15 -30.9 -1.7 -30.95 -1.35 -30.5 0.2 -30.2 1.55 -30.5 1.9 -30.95 2.35 -30.9 3.35 -31.3 3.35 -31.95 M3.9 -31.1 L3.9 -31.25 Q3.6 -31.35 3.25 -30.95 3.7 -30.55 3.9 -31.1 M1.95 -34.5 Q1.25 -33.65 0.15 -33.65 L-0.3 -33.65 -0.7 -33.75 Q-2.95 -35.0 -2.4 -37.7 L2.65 -37.7 Q3.05 -35.9 1.95 -34.5 M11.05 -27.1 Q11.8 -24.85 13.05 -22.95 L13.85 -21.7 14.25 -21.85 14.2 -22.3 14.95 -22.35 14.95 -22.45 15.0 -22.7 15.05 -22.75 15.45 -22.75 15.45 -22.8 15.5 -23.0 15.5 -23.3 13.7 -26.8 13.1 -28.05 11.05 -27.1 M15.75 -22.8 L15.5 -22.4 15.3 -22.35 Q15.55 -21.65 14.9 -21.8 14.95 -21.25 14.4 -21.25 L14.9 -19.35 15.0 -20.65 15.75 -19.7 Q16.0 -19.45 15.9 -20.05 L15.7 -21.05 16.65 -20.4 16.9 -20.2 16.95 -20.25 16.5 -21.3 17.55 -21.15 16.6 -22.1 18.25 -21.6 18.4 -21.75 Q17.2 -22.55 15.75 -22.9 L15.75 -22.8 M16.25 -19.05 L15.15 -18.5 15.15 -18.4 15.45 -17.95 Q15.55 -17.85 15.75 -17.8 L16.0 -17.9 16.15 -18.1 16.35 -18.7 16.25 -19.05 M-0.6 -19.9 L-0.15 -20.6 0.15 -20.0 0.2 -20.1 0.25 -20.2 0.4 -20.5 0.5 -20.35 0.6 -20.15 1.95 -18.1 4.65 -14.85 5.3 -14.15 Q6.85 -12.55 8.75 -11.2 9.6 -10.6 10.55 -10.15 L12.9 -10.0 12.95 -10.0 13.1 -10.15 13.1 -10.4 10.1 -20.15 9.2 -22.35 7.5 -24.85 Q5.3 -23.95 2.85 -24.15 0.1 -23.65 -2.65 -24.1 -5.1 -24.05 -7.35 -24.85 L-9.1 -22.1 -9.4 -21.4 -11.25 -15.9 -12.9 -10.4 -12.9 -10.15 -12.7 -10.0 -12.65 -10.0 -10.35 -10.15 Q-8.55 -10.8 -7.15 -12.05 L-4.25 -14.95 -1.8 -18.15 -0.75 -19.65 -0.7 -19.7 -0.6 -19.9 M0.05 -18.7 L0.0 -18.8 0.0 -18.6 0.0 -18.25 -0.05 -17.6 -0.2 -17.1 -0.8 -16.9 -0.95 -16.95 Q-0.6 -15.85 -1.25 -16.1 -1.55 -16.3 -1.35 -15.3 -2.05 -15.45 -1.75 -14.7 L-2.0 -14.55 Q-2.35 -14.05 -2.8 -14.4 L-2.9 -14.45 -2.9 -14.35 -2.8 -13.55 Q-2.75 -13.25 -3.15 -13.55 L-3.2 -13.8 Q-3.6 -13.45 -3.25 -13.15 -3.25 -12.55 -3.45 -12.75 L-3.7 -12.55 Q-4.4 -12.8 -4.35 -12.45 -4.1 -11.6 -4.75 -11.7 L-4.7 -11.85 -5.05 -10.75 -5.7 -11.05 Q-6.05 -10.8 -5.85 -10.5 L-5.85 -10.05 -6.45 -10.65 -6.5 -10.7 -6.5 -10.65 -7.05 -9.5 -7.45 -9.65 Q-7.4 -9.25 -7.75 -9.0 L-7.95 -9.05 -8.2 -8.75 Q-8.45 -8.45 -8.8 -8.45 L-8.9 -8.65 -9.1 -8.35 -8.9 -7.8 -8.2 -7.3 -6.65 -6.9 -5.4 -7.7 Q-4.0 -8.8 -2.75 -10.15 L-0.25 -13.2 -0.05 -13.3 Q-1.1 -11.55 -2.55 -9.9 L-4.65 -7.5 -4.4 -6.9 Q-3.45 -5.65 -2.35 -6.5 L-0.65 -7.95 -0.1 -8.55 -0.1 -8.45 -0.65 -7.5 0.9 -7.5 0.6 -8.05 Q1.55 -6.65 3.2 -6.15 4.1 -6.0 4.6 -6.9 L4.9 -7.45 Q3.1 -9.1 1.7 -11.15 L0.65 -12.7 0.35 -13.25 0.45 -13.15 2.85 -10.05 Q4.1 -8.25 6.0 -7.25 6.95 -6.65 8.15 -6.95 L9.1 -7.8 9.3 -8.3 9.15 -8.65 Q8.9 -8.15 8.65 -8.55 L8.2 -9.05 8.0 -9.05 Q7.5 -8.8 7.65 -9.65 L7.3 -9.5 6.7 -10.65 6.4 -10.1 Q6.2 -10.1 6.1 -10.2 L6.05 -10.25 6.05 -10.3 6.15 -10.75 6.1 -10.85 Q5.8 -10.45 5.35 -10.75 L5.3 -10.95 5.1 -11.95 Q4.8 -12.2 4.95 -11.7 L4.75 -11.8 Q4.25 -11.65 4.45 -12.15 L4.5 -12.5 Q4.15 -12.2 3.9 -12.7 L3.85 -12.85 Q3.4 -12.6 3.45 -13.15 3.8 -13.45 3.5 -13.45 L3.1 -13.45 3.1 -14.35 3.1 -14.45 3.05 -14.4 3.0 -14.4 Q2.45 -14.1 2.5 -14.75 L2.1 -14.65 1.95 -14.85 2.0 -15.1 1.55 -15.4 Q1.85 -16.5 1.5 -16.1 0.8 -15.75 1.2 -16.65 1.45 -17.25 0.75 -16.95 L0.7 -17.3 0.6 -17.65 0.2 -18.25 0.05 -18.7 M6.7 -10.65 L6.7 -10.7 6.7 -10.65 M5.35 -7.05 L5.2 -7.2 4.55 -6.2 5.35 -7.05 M1.5 -5.6 L0.8 -5.55 0.65 -3.5 Q1.3 -2.7 2.45 -2.75 4.0 -3.1 5.2 -4.3 6.1 -5.25 6.45 -6.6 L5.9 -6.6 3.4 -5.8 2.7 -6.0 1.5 -5.6 M1.25 -6.8 L0.6 -7.0 0.8 -6.05 2.35 -6.15 1.25 -6.8 M-6.65 -63.35 L-6.2 -63.7 -6.7 -64.35 -6.65 -63.35 M-4.8 -63.45 L-3.8 -64.4 -2.85 -63.5 -3.85 -62.35 -4.8 -63.45 M-4.4 -63.35 L-3.9 -62.75 -3.3 -63.4 -3.85 -63.95 -4.4 -63.35 M-10.7 -59.7 L-11.9 -59.2 Q-13.7 -58.3 -13.25 -56.4 L-13.6 -56.2 Q-15.15 -55.0 -15.25 -53.05 -15.3 -51.4 -13.85 -50.65 L-13.75 -50.85 -13.5 -52.6 -13.4 -53.05 Q-11.9 -58.15 -7.55 -61.15 L-7.6 -61.8 -7.8 -61.95 Q-9.85 -61.75 -10.7 -59.7 M-11.7 -53.0 L-11.65 -52.95 -11.55 -52.65 -11.15 -50.1 -10.7 -49.35 Q-9.95 -48.8 -10.05 -48.45 -11.15 -48.45 -11.65 -49.65 -12.3 -51.25 -11.7 -53.0 M-0.9 -59.3 L-0.6 -59.0 -0.35 -53.85 -0.55 -53.65 Q-1.0 -56.4 -0.95 -59.15 L-0.9 -59.3 M-5.05 -56.9 L-4.55 -53.4 Q-5.3 -53.7 -5.3 -54.4 L-5.4 -57.2 -5.3 -57.7 -4.65 -59.5 -5.0 -57.45 -5.05 -56.9 M-4.95 -45.7 L-5.4 -45.8 -6.7 -45.15 -6.65 -43.8 -4.9 -43.9 -4.95 -45.7 M-6.2 -43.45 L-6.45 -43.0 -6.65 -41.95 Q-6.7 -40.9 -6.15 -40.35 L-5.7 -40.0 -5.3 -40.25 -5.15 -40.3 -5.15 -40.35 -4.9 -40.55 Q-4.6 -41.85 -5.15 -43.15 L-5.25 -43.25 Q-5.65 -42.9 -5.4 -41.7 L-5.4 -41.5 Q-5.9 -41.15 -6.05 -41.75 -6.3 -42.55 -6.15 -43.45 L-6.2 -43.45 M-9.8 -38.1 L-9.85 -38.2 -10.15 -39.9 -10.15 -40.7 -10.2 -42.1 -10.55 -42.3 -10.55 -42.4 -10.25 -42.6 -10.3 -42.75 -10.5 -43.8 -10.55 -43.85 -10.55 -44.05 -10.65 -44.5 -11.15 -45.0 -11.7 -45.35 -12.15 -45.15 -12.7 -44.3 -12.65 -44.25 -12.7 -44.15 Q-13.65 -41.15 -11.7 -38.65 -10.8 -37.45 -9.4 -36.8 L-9.75 -37.9 -9.75 -37.95 -9.8 -38.1 M-15.15 -44.4 L-14.85 -43.6 -13.85 -40.9 -13.95 -40.7 -17.2 -41.75 Q-16.05 -39.65 -14.1 -38.0 L-17.25 -38.45 Q-15.45 -36.6 -12.85 -36.2 L-13.15 -35.8 -15.05 -35.25 -10.15 -35.6 -12.1 -35.85 -11.6 -36.8 -13.55 -37.6 -12.65 -38.65 -14.2 -39.9 Q-13.75 -40.4 -12.95 -40.2 L-13.55 -43.45 -14.2 -43.95 -15.15 -44.4 M-11.1 -25.95 Q-10.45 -26.9 -11.2 -27.45 L-12.85 -28.05 -13.4 -26.75 Q-14.15 -24.8 -15.35 -23.35 L-15.35 -23.15 -15.25 -23.0 -15.25 -22.8 -15.25 -22.75 -14.9 -22.6 Q-14.65 -22.6 -14.75 -22.35 L-13.95 -22.1 -13.95 -22.05 -13.65 -21.7 -12.9 -23.0 -11.1 -25.95 M-3.65 -31.25 L-3.65 -30.7 -3.1 -30.7 -3.1 -31.25 -3.65 -31.25 M-3.9 -31.35 L-5.25 -32.8 -5.65 -33.0 -5.85 -33.55 Q-6.6 -33.75 -7.15 -34.4 -8.0 -35.35 -9.35 -35.25 L-9.45 -35.25 -8.1 -34.5 -7.9 -34.05 -7.5 -33.85 -6.95 -33.95 Q-7.05 -33.6 -6.7 -33.3 L-6.3 -33.2 -6.0 -32.55 -5.6 -32.4 Q-5.15 -31.2 -3.95 -31.15 L-3.9 -31.35 M-15.1 -22.25 L-15.1 -22.35 -15.45 -22.6 -15.55 -22.9 -16.15 -22.85 -18.15 -21.7 -18.05 -21.6 -16.35 -22.1 -17.35 -21.15 -16.3 -21.3 -16.75 -20.25 -15.5 -21.05 -15.7 -20.3 -15.75 -20.05 Q-15.9 -19.55 -15.55 -19.7 L-14.8 -20.65 -14.7 -19.35 -14.15 -21.25 Q-14.4 -21.3 -14.55 -21.45 L-14.7 -21.8 -15.1 -22.25 M-16.0 -19.05 L-16.1 -18.7 -15.95 -18.1 -15.75 -17.9 -15.55 -17.8 -15.25 -18.0 -14.95 -18.4 -14.95 -18.5 -16.0 -19.05 M-4.95 -7.2 L-5.3 -6.95 -4.3 -6.2 -4.95 -7.2 M-1.0 -6.75 L-2.1 -6.15 -0.55 -6.05 -0.4 -7.0 -1.0 -6.75 M-3.2 -5.8 L-5.65 -6.6 -6.25 -6.6 Q-5.25 -4.1 -2.8 -2.95 L-0.85 -3.0 -0.4 -3.5 -0.55 -5.55 -1.3 -5.6 -2.5 -6.0 -3.2 -5.8" fill="#000000" fill-rule="evenodd" stroke="none"/>
    <path d="M1.95 -62.25 L2.15 -62.8 2.9 -62.95 3.15 -62.0 2.9 -62.0 2.45 -62.5 2.4 -62.4 2.75 -61.8 2.75 -61.1 2.35 -60.65 2.05 -61.7 1.95 -61.95 1.95 -62.25 M0.2 -62.35 L-1.05 -63.4 0.2 -64.75 1.2 -63.45 0.2 -62.35 M4.6 -63.35 L4.05 -62.75 3.5 -63.4 4.05 -63.95 4.6 -63.35 M-0.05 -61.85 L0.0 -61.75 0.0 -61.65 0.1 -61.7 0.3 -61.85 1.3 -62.35 Q1.55 -62.1 1.0 -61.5 L0.25 -60.6 0.1 -60.6 -0.3 -60.65 -1.2 -62.2 Q-0.9 -62.8 -0.35 -62.0 L-0.05 -61.85 M6.4 -63.7 L6.9 -64.35 6.85 -63.35 6.4 -63.7 M5.4 -62.45 L5.4 -62.35 5.8 -61.6 5.65 -60.8 Q5.0 -60.6 5.2 -61.3 L4.9 -61.75 4.85 -62.2 5.1 -62.7 5.9 -63.1 Q6.35 -62.8 6.3 -62.35 L6.2 -62.05 Q5.75 -61.95 5.55 -62.5 L5.4 -62.45 M8.25 -51.7 L8.8 -51.4 8.85 -51.3 8.3 -51.65 8.25 -51.7 M-8.65 -51.3 L-8.6 -51.4 -8.05 -51.7 -8.05 -51.65 -8.65 -51.3 M-5.35 -62.5 Q-5.5 -61.9 -6.0 -62.05 L-6.0 -62.35 -5.8 -63.05 -4.8 -62.7 -4.7 -62.15 -4.85 -61.65 -5.05 -61.45 -5.0 -60.8 -5.2 -60.8 -5.4 -60.8 -5.5 -60.95 Q-5.9 -61.3 -5.4 -61.8 L-5.2 -62.35 -5.35 -62.5 M-6.65 -63.35 L-6.7 -64.35 -6.2 -63.7 -6.65 -63.35 M-4.4 -63.35 L-3.85 -63.95 -3.3 -63.4 -3.9 -62.75 -4.4 -63.35 M-2.9 -62.0 L-2.85 -62.75 -2.7 -62.95 Q-1.95 -63.25 -1.65 -62.3 L-2.1 -61.45 -2.0 -61.05 -2.1 -60.65 -2.55 -61.25 -2.3 -62.55 -2.4 -62.6 Q-2.4 -61.7 -2.9 -62.0" fill="#999999" fill-rule="evenodd" stroke="none"/>
    <path d="M-13.2 -45.35 L-13.05 -44.95 -13.1 -44.85 -13.2 -45.35 M6.95 -52.05 L7.25 -52.05 8.25 -51.7 8.3 -51.65 6.95 -52.05 M-8.05 -51.7 L-6.7 -52.15 -6.75 -52.05 -8.05 -51.65 -8.05 -51.7 M14.75 -42.9 Q14.1 -41.6 14.1 -40.75 L15.2 -41.1 Q16.45 -41.0 17.4 -41.75 L17.1 -41.15 16.25 -40.0 14.3 -38.0 17.45 -38.45 Q15.65 -36.6 13.05 -36.2 L13.4 -35.8 15.25 -35.25 10.35 -35.6 12.35 -35.85 11.8 -36.8 13.75 -37.6 12.85 -38.65 13.6 -39.15 14.4 -39.9 14.25 -40.0 13.9 -40.2 13.15 -40.2 13.4 -41.7 Q13.5 -42.8 13.75 -43.45 L15.4 -44.4 14.75 -42.9 M9.7 -35.25 L8.2 -34.4 Q8.15 -34.0 7.75 -33.85 L7.15 -33.95 7.15 -33.75 6.4 -32.95 Q6.5 -32.35 5.85 -32.2 L5.75 -31.9 Q5.15 -31.4 4.55 -31.15 3.85 -30.95 4.25 -31.65 5.15 -32.05 5.65 -32.7 L6.1 -33.55 Q7.2 -34.05 8.2 -35.05 L9.7 -35.25 M3.9 -31.1 Q3.7 -30.55 3.25 -30.95 3.6 -31.35 3.9 -31.25 L3.9 -31.1 M15.75 -22.8 L15.75 -22.9 Q17.2 -22.55 18.4 -21.75 L18.25 -21.6 16.6 -22.1 17.55 -21.15 16.5 -21.3 16.95 -20.25 16.9 -20.2 16.65 -20.4 15.7 -21.05 15.9 -20.05 Q16.0 -19.45 15.75 -19.7 L15.0 -20.65 14.9 -19.35 14.4 -21.25 Q14.95 -21.25 14.9 -21.8 15.55 -21.65 15.3 -22.35 L15.5 -22.4 15.75 -22.8 M-15.15 -44.4 L-14.2 -43.95 -13.55 -43.45 -12.95 -40.2 Q-13.75 -40.4 -14.2 -39.9 L-12.65 -38.65 -13.55 -37.6 -11.6 -36.8 -12.1 -35.85 -10.15 -35.6 -15.05 -35.25 -13.15 -35.8 -12.85 -36.2 Q-15.45 -36.6 -17.25 -38.45 L-14.1 -38.0 Q-16.05 -39.65 -17.2 -41.75 L-13.95 -40.7 -13.85 -40.9 -14.85 -43.6 -15.15 -44.4 M-3.9 -31.35 L-3.95 -31.15 Q-5.15 -31.2 -5.6 -32.4 L-6.0 -32.55 -6.3 -33.2 -6.7 -33.3 Q-7.05 -33.6 -6.95 -33.95 L-7.5 -33.85 -7.9 -34.05 -8.1 -34.5 -9.45 -35.25 -9.35 -35.25 Q-8.0 -35.35 -7.15 -34.4 -6.6 -33.75 -5.85 -33.55 L-5.65 -33.0 -5.25 -32.8 -3.9 -31.35 M-3.65 -31.25 L-3.1 -31.25 -3.1 -30.7 -3.65 -30.7 -3.65 -31.25 M-15.1 -22.25 L-14.7 -21.8 -14.55 -21.45 Q-14.4 -21.3 -14.15 -21.25 L-14.7 -19.35 -14.8 -20.65 -15.55 -19.7 Q-15.9 -19.55 -15.75 -20.05 L-15.7 -20.3 -15.5 -21.05 -16.75 -20.25 -16.3 -21.3 -17.35 -21.15 -16.35 -22.1 -18.05 -21.6 -18.15 -21.7 -16.15 -22.85 -15.55 -22.9 -15.45 -22.6 -15.1 -22.35 -15.1 -22.25" fill="#333333" fill-rule="evenodd" stroke="none"/>
    <path d="M9.5 -44.3 L9.45 -44.35 9.15 -44.7 8.45 -45.45 6.8 -46.7 8.25 -46.1 9.35 -44.9 9.5 -44.3 M-8.05 -46.1 L-6.6 -46.7 -8.25 -45.45 -8.95 -44.7 -9.2 -44.35 -9.3 -44.3 -9.0 -45.3 -8.05 -46.1 M-5.95 -52.25 L-0.55 -52.75 6.15 -52.25 5.65 -52.0 0.2 -52.3 -5.45 -52.0 -5.95 -52.25 M10.0 -37.9 L10.05 -38.2 10.4 -41.5 10.45 -42.1 Q11.1 -42.25 10.55 -42.65 L10.5 -42.75 10.75 -43.85 11.6 -44.1 12.05 -43.8 Q12.65 -42.05 11.95 -40.4 11.3 -38.85 10.0 -37.9 M-9.8 -38.1 L-9.75 -37.95 -9.75 -37.9 -10.65 -38.65 -11.1 -39.25 Q-11.8 -40.25 -12.1 -41.5 -12.25 -42.2 -12.05 -42.75 L-12.05 -43.15 -11.85 -43.8 -11.05 -44.2 Q-10.75 -44.1 -10.55 -43.85 L-10.5 -43.8 -10.3 -42.75 -10.25 -42.6 -10.55 -42.4 -10.55 -42.3 -10.2 -42.1 -10.15 -40.7 -10.15 -39.9 -9.85 -38.2 -9.85 -38.15 -9.8 -38.1" fill="#edb192" fill-rule="evenodd" stroke="none"/>
    <path d="M-9.85 -38.2 L-9.8 -38.1 -9.85 -38.15 -9.85 -38.2" fill="#ffe3d5" fill-rule="evenodd" stroke="none"/>
    <path d="M2.4 -36.05 Q2.2 -35.0 1.25 -34.3 L0.2 -33.95 -0.45 -34.1 Q-2.25 -34.9 -2.3 -36.9 L-1.6 -37.5 1.85 -37.5 2.55 -36.9 2.4 -36.05" fill="#cc0000" fill-rule="evenodd" stroke="none"/>
    <path d="M7.25 -31.8 Q6.7 -31.85 6.85 -32.3 7.05 -32.75 7.25 -32.45 7.55 -32.25 7.4 -31.95 L7.25 -31.8 M-7.05 -32.45 L-6.65 -32.4 -6.5 -32.15 -6.6 -31.9 -7.0 -31.8 -7.15 -32.0 Q-7.35 -32.25 -7.05 -32.45 M-6.3 -31.2 L-6.2 -31.3 -5.75 -31.1 Q-5.55 -30.8 -5.95 -30.65 -6.1 -30.65 -6.2 -30.8 L-6.3 -31.2 M-4.6 -30.1 L-4.4 -29.9 -4.4 -29.65 Q-4.45 -29.25 -4.8 -29.5 -5.55 -30.0 -4.6 -30.1 M-2.85 -29.3 L-2.75 -29.25 -2.9 -28.85 -3.25 -28.8 Q-3.6 -29.65 -2.85 -29.3 M-1.15 -29.0 L-0.85 -28.95 Q-0.25 -28.45 -1.1 -28.3 -1.4 -28.15 -1.6 -28.5 -1.9 -29.15 -1.15 -29.0 M1.1 -28.95 L1.4 -29.0 Q1.9 -29.0 1.9 -28.6 1.85 -28.05 1.3 -28.3 0.65 -28.5 1.1 -28.95 M3.0 -29.25 L3.05 -29.3 Q3.85 -29.65 3.45 -28.8 3.3 -28.5 3.1 -28.85 L3.0 -29.25 M4.6 -29.9 L4.85 -30.1 5.35 -29.75 Q5.4 -29.45 4.9 -29.25 4.55 -29.35 4.6 -29.9 M6.2 -30.65 Q5.5 -30.95 6.2 -31.3 L6.55 -31.2 6.25 -30.75 6.2 -30.65 M-0.6 -19.9 L-0.7 -19.7 -0.75 -19.65 -1.0 -19.6 -1.25 -19.7 -1.4 -20.0 -1.25 -20.25 -1.0 -20.4 -0.7 -20.25 -0.6 -20.0 -0.6 -19.9 M1.25 -20.4 L1.55 -20.25 1.65 -20.0 1.55 -19.7 1.25 -19.6 1.0 -19.7 0.85 -20.0 1.0 -20.25 1.25 -20.4 M0.0 -18.6 L0.0 -18.8 0.05 -18.7 0.0 -18.6 M0.2 -18.25 L0.6 -17.65 0.7 -17.3 0.75 -16.95 Q1.45 -17.25 1.2 -16.65 0.8 -15.75 1.5 -16.1 1.85 -16.5 1.55 -15.4 L2.0 -15.1 1.95 -14.85 2.1 -14.65 2.5 -14.75 Q2.45 -14.1 3.0 -14.4 L3.05 -14.4 3.1 -14.35 3.1 -13.45 3.5 -13.45 Q3.8 -13.45 3.45 -13.15 3.4 -12.6 3.85 -12.85 L3.9 -12.7 Q4.15 -12.2 4.5 -12.5 L4.45 -12.15 Q4.25 -11.65 4.75 -11.8 L4.95 -11.7 Q4.8 -12.2 5.1 -11.95 L5.3 -10.95 5.35 -10.75 Q5.8 -10.45 6.1 -10.85 L6.15 -10.75 6.05 -10.3 6.05 -10.25 6.1 -10.2 Q6.2 -10.1 6.4 -10.1 L6.7 -10.65 7.3 -9.5 7.65 -9.65 Q7.5 -8.8 8.0 -9.05 L8.2 -9.05 8.65 -8.55 Q8.9 -8.15 9.15 -8.65 L9.3 -8.3 9.1 -7.8 7.9 -7.9 6.3 -8.95 Q4.15 -11.0 2.35 -13.4 L0.15 -16.0 0.0 -15.85 -1.05 -14.75 -3.15 -12.05 Q-4.75 -9.9 -6.7 -8.4 -7.7 -7.55 -8.9 -7.8 L-9.1 -8.35 -8.9 -8.65 -8.8 -8.45 Q-8.45 -8.45 -8.2 -8.75 L-7.95 -9.05 -7.75 -9.0 Q-7.4 -9.25 -7.45 -9.65 L-7.05 -9.5 -6.5 -10.65 -6.45 -10.65 -5.85 -10.05 -5.85 -10.5 Q-6.05 -10.8 -5.7 -11.05 L-5.05 -10.75 -4.7 -11.85 -4.75 -11.7 Q-4.1 -11.6 -4.35 -12.45 -4.4 -12.8 -3.7 -12.55 L-3.45 -12.75 Q-3.25 -12.55 -3.25 -13.15 -3.6 -13.45 -3.2 -13.8 L-3.15 -13.55 Q-2.75 -13.25 -2.8 -13.55 L-2.9 -14.35 -2.8 -14.4 Q-2.35 -14.05 -2.0 -14.55 L-1.75 -14.7 Q-2.05 -15.45 -1.35 -15.3 -1.55 -16.3 -1.25 -16.1 -0.6 -15.85 -0.95 -16.95 L-0.8 -16.9 -0.2 -17.1 -0.05 -17.6 0.0 -18.25 0.2 -18.25 M0.35 -13.25 L0.65 -12.7 1.7 -11.15 Q3.1 -9.1 4.9 -7.45 L4.6 -6.9 Q2.35 -7.85 1.05 -10.35 L0.2 -11.85 0.0 -11.4 -2.05 -9.05 -3.7 -7.3 Q-4.0 -7.05 -4.4 -6.9 L-4.65 -7.5 -2.55 -9.9 Q-1.1 -11.55 -0.05 -13.3 L0.0 -13.45 Q0.15 -13.85 0.35 -13.25 M0.6 -8.05 L0.9 -7.5 -0.65 -7.5 -0.1 -8.45 -0.1 -8.55 Q0.1 -8.9 0.35 -8.4 L0.6 -8.05 M2.85 -17.2 L2.7 -17.45 2.85 -17.7 3.1 -17.8 3.4 -17.7 3.5 -17.45 3.4 -17.2 3.1 -17.1 Q2.95 -17.1 2.85 -17.2 M4.65 -14.85 L4.65 -15.45 5.2 -15.45 5.2 -14.85 4.65 -14.85 M7.45 -13.2 L7.55 -12.95 7.45 -12.65 7.15 -12.55 6.9 -12.65 6.75 -12.95 6.9 -13.2 7.15 -13.35 7.45 -13.2 M9.85 -11.0 L9.6 -10.9 Q9.45 -10.9 9.35 -11.0 L9.25 -11.25 9.35 -11.5 9.6 -11.6 9.85 -11.5 9.95 -11.25 9.85 -11.0 M3.4 -5.8 L3.6 -5.2 2.4 -4.0 Q1.85 -4.25 1.4 -4.85 L1.35 -5.25 1.5 -5.6 2.7 -6.0 3.4 -5.8 M12.7 -10.15 L12.4 -10.05 Q12.25 -10.05 12.15 -10.15 L12.0 -10.4 12.15 -10.65 12.4 -10.75 12.7 -10.65 12.8 -10.4 12.7 -10.15 M-2.85 -17.8 L-2.6 -17.7 -2.5 -17.45 -2.6 -17.2 -2.85 -17.1 -3.1 -17.2 -3.2 -17.45 -3.1 -17.7 -2.85 -17.8 M-4.95 -15.5 L-4.4 -15.5 -4.4 -14.85 -4.95 -14.85 -4.95 -15.5 M-6.65 -13.15 L-6.55 -12.9 -6.65 -12.6 Q-6.75 -12.5 -6.9 -12.5 L-7.15 -12.6 -7.25 -12.9 -7.15 -13.15 -6.9 -13.3 -6.65 -13.15 M-11.9 -10.65 L-11.8 -10.4 -11.9 -10.15 -12.15 -10.05 Q-12.3 -10.05 -12.4 -10.15 L-12.5 -10.4 -12.4 -10.65 -12.15 -10.75 -11.9 -10.65 M-9.1 -11.5 L-9.0 -11.25 -9.1 -11.0 -9.35 -10.9 -9.6 -11.0 -9.7 -11.25 -9.6 -11.5 -9.35 -11.6 -9.1 -11.5 M-3.2 -5.8 L-2.5 -6.0 -1.3 -5.6 -1.15 -5.25 Q-1.1 -5.05 -1.2 -4.85 L-2.15 -4.0 -3.35 -5.2 -3.2 -5.8" fill="#dde2e3" fill-rule="evenodd" stroke="none"/>
    <path d="M-12.05 -54.9 Q-10.95 -57.4 -9.1 -59.55 L-8.3 -60.1 -8.1 -60.3 -7.05 -60.9 -7.05 -60.95 -6.85 -60.8 Q-0.6 -58.75 5.75 -60.5 L7.2 -60.9 7.25 -60.95 8.25 -60.25 8.8 -59.9 11.1 -56.85 12.3 -54.9 12.1 -54.95 12.0 -54.85 11.1 -52.45 Q11.25 -55.5 9.7 -58.15 L9.5 -58.35 8.45 -59.3 8.4 -59.3 9.2 -58.0 8.15 -55.55 7.75 -58.75 Q7.65 -59.45 7.25 -59.7 L5.55 -57.7 4.85 -59.5 5.25 -57.45 4.1 -56.75 3.8 -58.9 Q3.75 -59.5 3.1 -59.4 2.2 -58.1 1.95 -57.15 L2.2 -57.3 3.25 -58.85 3.75 -56.05 5.25 -56.9 4.75 -53.4 4.8 -53.4 Q6.0 -55.05 5.6 -57.2 L6.6 -58.25 7.15 -58.9 7.35 -57.85 7.7 -54.5 7.85 -54.3 7.95 -54.4 Q8.95 -55.65 9.55 -57.2 10.2 -55.05 9.6 -52.75 L9.45 -52.15 8.95 -51.85 Q6.85 -52.9 4.45 -53.05 L2.9 -53.3 1.35 -53.05 0.95 -53.35 0.4 -53.05 -0.25 -53.25 Q-0.9 -52.95 -1.65 -53.0 L-6.2 -52.7 -8.75 -51.85 Q-9.2 -52.15 -9.35 -52.75 L-9.55 -55.1 -9.3 -57.2 -7.75 -54.35 -7.55 -54.5 -7.15 -57.85 -6.95 -58.9 -5.4 -57.2 -5.3 -54.4 Q-5.3 -53.7 -4.55 -53.4 L-5.05 -56.9 -3.5 -56.15 -3.4 -56.1 -3.05 -58.85 -2.05 -57.3 -1.75 -57.15 -1.8 -57.4 -2.85 -59.4 Q-3.3 -59.45 -3.45 -58.85 L-3.9 -56.75 -5.0 -57.45 -4.65 -59.5 -5.3 -57.7 -7.05 -59.7 -7.35 -58.7 -7.95 -55.55 -8.95 -58.0 -8.2 -59.3 -8.25 -59.3 Q-9.05 -58.9 -9.25 -58.35 L-9.5 -58.15 Q-10.45 -56.4 -10.75 -54.6 L-10.9 -52.45 -11.85 -54.8 -11.85 -54.85 -11.95 -54.9 -12.0 -54.95 -12.05 -54.9 M12.85 -53.45 Q13.65 -51.05 13.35 -48.7 L12.95 -45.85 Q12.9 -45.7 12.9 -45.85 L12.3 -45.95 12.2 -45.95 11.7 -45.9 11.3 -45.65 11.25 -45.65 10.85 -45.15 10.85 -45.4 10.8 -45.75 10.5 -46.55 10.35 -47.1 10.4 -47.05 10.6 -47.1 11.6 -47.55 12.1 -47.95 12.4 -48.3 12.6 -48.55 12.65 -48.6 12.9 -49.4 12.85 -53.45 M12.65 -49.4 L12.15 -48.8 Q11.45 -47.75 10.3 -47.3 L9.9 -49.0 9.2 -51.35 9.3 -51.3 Q10.85 -52.8 10.45 -55.0 10.85 -53.1 10.4 -51.1 L10.45 -51.0 10.6 -51.0 11.8 -52.65 Q12.05 -50.5 10.8 -48.95 L10.4 -48.75 10.25 -48.45 10.45 -48.5 Q12.85 -49.95 11.95 -53.0 L12.35 -54.2 12.5 -53.15 12.65 -49.4 M-10.2 -55.0 Q-10.45 -53.25 -9.45 -51.75 L-9.2 -51.4 -9.55 -49.6 -10.05 -47.35 Q-10.85 -47.5 -11.45 -48.25 L-12.4 -49.35 -12.45 -49.4 -12.25 -53.15 -12.1 -54.2 -11.7 -53.0 Q-12.3 -51.25 -11.65 -49.65 -11.15 -48.45 -10.05 -48.45 -9.95 -48.8 -10.7 -49.35 L-11.15 -50.1 -11.55 -52.65 -10.45 -51.0 -10.25 -50.9 -10.2 -51.05 Q-10.7 -53.0 -10.2 -55.0 M-12.65 -49.5 L-12.7 -49.55 -12.65 -49.4 -12.35 -48.55 -11.4 -47.55 -10.4 -47.15 -10.2 -47.05 -10.15 -47.1 -10.3 -46.55 -10.65 -45.75 -10.65 -45.4 -10.6 -45.15 -11.45 -45.9 -12.1 -45.95 -12.7 -45.8 -12.75 -45.85 -13.15 -48.7 Q-13.4 -51.05 -12.6 -53.45 L-12.65 -49.5 M7.8 -61.15 L7.85 -61.85 8.0 -61.95 Q10.1 -61.65 10.9 -59.7 13.3 -59.2 13.7 -56.95 L13.8 -56.2 15.1 -54.8 Q15.8 -53.65 15.45 -52.35 15.05 -50.9 14.05 -50.65 L14.0 -50.85 13.5 -53.15 Q13.0 -55.0 12.0 -56.65 10.35 -59.5 7.8 -61.15 M1.15 -59.3 L1.1 -59.3 0.95 -58.95 Q0.4 -56.7 0.4 -54.15 0.4 -53.55 0.95 -53.6 L1.15 -59.3 M6.4 -43.45 L6.65 -43.0 6.85 -41.95 Q6.9 -40.9 6.35 -40.35 L5.9 -40.0 5.5 -40.25 5.35 -40.3 5.35 -40.35 5.1 -40.55 Q4.8 -41.85 5.35 -43.15 L5.45 -43.25 Q5.85 -42.9 5.6 -41.7 L5.6 -41.5 Q6.1 -41.15 6.25 -41.75 6.5 -42.55 6.35 -43.45 L6.4 -43.45 M-10.7 -59.7 Q-9.85 -61.75 -7.8 -61.95 L-7.6 -61.8 -7.55 -61.15 Q-11.9 -58.15 -13.4 -53.05 L-13.5 -52.6 -13.75 -50.85 -13.85 -50.65 Q-15.3 -51.4 -15.25 -53.05 -15.15 -55.0 -13.6 -56.2 L-13.25 -56.4 Q-13.7 -58.3 -11.9 -59.2 L-10.7 -59.7 M-0.9 -59.3 L-0.95 -59.15 Q-1.0 -56.4 -0.55 -53.65 L-0.35 -53.85 -0.6 -59.0 -0.9 -59.3 M-6.2 -43.45 L-6.15 -43.45 Q-6.3 -42.55 -6.05 -41.75 -5.9 -41.15 -5.4 -41.5 L-5.4 -41.7 Q-5.65 -42.9 -5.25 -43.25 L-5.15 -43.15 Q-4.6 -41.85 -4.9 -40.55 L-5.15 -40.35 -5.15 -40.3 -5.3 -40.25 -5.7 -40.0 -6.15 -40.35 Q-6.7 -40.9 -6.65 -41.95 L-6.45 -43.0 -6.2 -43.45" fill="#30317e" fill-rule="evenodd" stroke="none"/>
    <path d="M12.3 -54.9 L12.85 -53.45 12.9 -49.4 Q12.8 -49.95 12.65 -49.3 L12.65 -49.4 12.5 -53.15 12.35 -54.2 11.95 -53.0 11.85 -53.05 Q11.65 -53.0 11.8 -52.65 L10.6 -51.0 10.45 -51.0 10.4 -51.1 Q10.85 -53.1 10.45 -55.0 L9.5 -58.35 9.7 -58.15 Q11.25 -55.5 11.1 -52.45 L12.0 -54.85 12.1 -54.95 12.3 -54.9 M9.2 -58.0 L9.55 -57.2 Q8.95 -55.65 7.95 -54.4 L7.85 -54.3 7.7 -54.5 7.35 -57.85 7.15 -58.9 6.6 -58.25 5.6 -57.2 5.55 -57.7 7.25 -59.7 Q7.65 -59.45 7.75 -58.75 L8.15 -55.55 9.2 -58.0 M-9.3 -57.2 L-8.95 -58.0 -7.95 -55.55 -7.35 -58.7 -7.05 -59.7 -5.3 -57.7 -5.4 -57.2 -6.95 -58.9 -7.15 -57.85 -7.55 -54.5 -7.75 -54.35 -9.3 -57.2 M-9.25 -58.35 L-10.2 -55.0 Q-10.7 -53.0 -10.2 -51.05 L-10.25 -50.9 -10.45 -51.0 -11.55 -52.65 -11.65 -52.95 -11.7 -53.0 -12.1 -54.2 -12.25 -53.15 -12.45 -49.4 -12.65 -49.5 -12.6 -53.45 -12.05 -54.9 -12.0 -54.95 -11.95 -54.9 -11.85 -54.85 -11.85 -54.8 -10.9 -52.45 -10.75 -54.6 Q-10.45 -56.4 -9.5 -58.15 L-9.25 -58.35 M5.25 -57.45 L5.25 -56.9 3.75 -56.05 3.25 -58.85 2.2 -57.3 1.95 -57.15 Q2.2 -58.1 3.1 -59.4 3.75 -59.5 3.8 -58.9 L4.1 -56.75 5.25 -57.45 M-5.0 -57.45 L-3.9 -56.75 -3.45 -58.85 Q-3.3 -59.45 -2.85 -59.4 L-1.8 -57.4 -1.75 -57.15 -2.05 -57.3 -3.05 -58.85 -3.4 -56.1 -3.5 -56.15 -5.05 -56.9 -5.0 -57.45" fill="#a4abff" fill-rule="evenodd" stroke="none"/>
    <path d="M4.1 -65.1 L5.25 -63.85 5.75 -63.9 6.9 -65.15 6.95 -64.7 6.0 -63.65 7.15 -62.85 7.15 -63.1 7.45 -61.35 Q5.4 -60.35 3.1 -60.35 -0.65 -59.8 -4.3 -60.5 -5.95 -60.7 -7.25 -61.35 L-7.0 -63.1 -6.95 -62.9 -5.8 -63.65 -6.75 -64.7 -6.75 -65.15 -5.45 -64.0 -5.1 -63.85 -3.9 -65.1 Q-3.1 -64.7 -2.15 -63.4 L0.0 -66.0 Q1.5 -65.1 2.25 -63.45 L2.35 -63.4 4.0 -65.1 4.1 -65.1 M1.95 -62.25 L1.95 -61.95 2.05 -61.7 2.35 -60.65 2.75 -61.1 2.75 -61.8 2.4 -62.4 2.45 -62.5 2.9 -62.0 3.15 -62.0 2.9 -62.95 2.15 -62.8 1.95 -62.25 M5.0 -63.45 L4.05 -64.35 3.05 -63.5 4.15 -62.35 5.0 -63.45 M0.3 -61.85 L1.7 -63.25 0.1 -65.25 -1.55 -63.3 -0.05 -61.85 -0.35 -62.0 Q-0.9 -62.8 -1.2 -62.2 L-0.3 -60.65 0.1 -60.6 0.25 -60.6 1.0 -61.5 Q1.55 -62.1 1.3 -62.35 L0.3 -61.85 M0.0 -61.75 L0.1 -61.7 0.0 -61.65 0.0 -61.75 M5.4 -62.45 L5.55 -62.5 Q5.75 -61.95 6.2 -62.05 L6.3 -62.35 Q6.35 -62.8 5.9 -63.1 L5.1 -62.7 4.85 -62.2 4.9 -61.75 5.2 -61.3 Q5.0 -60.6 5.65 -60.8 L5.8 -61.6 5.4 -62.35 5.4 -62.45 M-5.35 -62.5 L-5.2 -62.35 -5.4 -61.8 Q-5.9 -61.3 -5.5 -60.95 L-5.4 -60.8 -5.2 -60.8 -5.0 -60.8 -5.05 -61.45 -4.85 -61.65 -4.7 -62.15 -4.8 -62.7 -5.8 -63.05 -6.0 -62.35 -6.0 -62.05 Q-5.5 -61.9 -5.35 -62.5 M-4.8 -63.45 L-3.85 -62.35 -2.85 -63.5 -3.8 -64.4 -4.8 -63.45 M-2.9 -62.0 Q-2.4 -61.7 -2.4 -62.6 L-2.3 -62.55 -2.55 -61.25 -2.1 -60.65 -2.0 -61.05 -2.1 -61.45 -1.65 -62.3 Q-1.95 -63.25 -2.7 -62.95 L-2.85 -62.75 -2.9 -62.0" fill="#cccccc" fill-rule="evenodd" stroke="none"/>
    <path d="M-18.8 -18.85 L-19.7 -19.35 -19.45 -19.8 Q-19.1 -20.45 -18.25 -20.75 L-17.85 -20.15 -17.5 -19.8 Q-17.1 -19.3 -16.2 -19.3 -16.85 -18.9 -17.5 -18.75 L-18.8 -18.85 M17.6 -18.75 Q17.05 -18.9 16.45 -19.3 17.4 -19.3 18.05 -20.15 L18.5 -20.75 Q19.6 -20.45 19.9 -19.35 L19.15 -18.9 17.6 -18.75 M6.15 -52.25 L6.95 -52.05 8.3 -51.65 8.85 -51.3 9.9 -48.25 Q8.15 -50.1 5.6 -49.4 L3.7 -48.65 Q3.5 -48.65 3.4 -48.45 5.0 -49.2 6.7 -49.15 8.5 -49.3 9.85 -47.8 L10.55 -45.4 10.35 -44.4 10.35 -44.05 10.35 -43.95 10.35 -42.75 9.95 -43.35 9.5 -44.3 9.35 -44.9 8.25 -46.1 6.75 -46.8 5.9 -47.05 4.95 -47.15 Q3.7 -46.8 3.05 -45.9 L3.5 -45.45 3.7 -45.45 3.6 -44.85 3.55 -42.95 3.65 -41.05 Q3.75 -40.05 4.7 -39.75 L5.4 -39.5 Q6.15 -39.35 6.95 -39.75 L7.75 -40.3 8.55 -40.7 8.75 -40.9 9.9 -41.75 9.95 -41.7 10.0 -41.75 10.3 -42.0 10.25 -41.6 10.25 -41.3 Q10.45 -38.5 8.65 -36.4 6.8 -34.2 3.95 -33.3 L0.2 -32.85 Q-2.65 -32.75 -5.4 -34.1 -7.85 -35.2 -9.25 -37.6 -10.05 -39.05 -10.0 -40.75 L-10.05 -40.9 -10.05 -41.0 -10.05 -41.6 -10.05 -42.0 -9.8 -41.75 -9.7 -41.7 -9.7 -41.75 -8.55 -40.9 -8.35 -40.7 -7.55 -40.3 -6.7 -39.75 Q-5.95 -39.35 -5.2 -39.5 L-4.5 -39.75 Q-3.55 -40.05 -3.45 -41.05 L-3.35 -42.95 -3.4 -44.85 -3.45 -45.45 -3.3 -45.45 -2.85 -45.9 Q-3.5 -46.8 -4.75 -47.15 L-6.55 -46.8 -7.25 -46.65 -8.05 -46.1 -9.0 -45.3 -9.3 -44.3 -9.75 -43.35 -10.1 -42.75 -10.15 -43.95 -10.1 -44.05 -10.2 -45.0 -9.6 -48.05 Q-8.2 -49.25 -6.45 -49.15 L-3.85 -48.65 -3.4 -48.8 Q-5.25 -49.55 -7.5 -49.55 L-7.8 -49.45 -9.6 -48.5 -8.65 -51.3 -8.05 -51.65 -6.75 -52.05 -5.95 -52.25 -5.45 -52.0 0.2 -52.3 5.65 -52.0 6.15 -52.25 M10.75 -43.85 L10.75 -43.95 10.75 -44.05 10.8 -44.25 11.85 -45.3 12.55 -44.95 12.8 -44.1 12.9 -41.5 Q12.65 -38.15 9.65 -36.8 L10.0 -37.9 Q11.3 -38.85 11.95 -40.4 12.65 -42.05 12.05 -43.8 L11.6 -44.1 10.75 -43.85 M-3.15 -31.95 L0.05 -31.05 Q0.35 -30.9 0.65 -31.05 L3.35 -31.95 3.35 -31.3 2.35 -30.9 1.9 -30.95 1.55 -30.5 0.2 -30.2 -1.35 -30.5 -1.7 -30.95 -2.15 -30.9 -3.15 -31.3 -3.15 -31.95 M1.95 -34.5 Q3.05 -35.9 2.65 -37.7 L-2.4 -37.7 Q-2.95 -35.0 -0.7 -33.75 L-0.3 -33.65 0.15 -33.65 Q1.25 -33.65 1.95 -34.5 M16.25 -19.05 L16.35 -18.7 16.15 -18.1 16.0 -17.9 15.75 -17.8 Q15.55 -17.85 15.45 -17.95 L15.15 -18.4 15.15 -18.5 16.25 -19.05 M-9.75 -37.9 L-9.4 -36.8 Q-10.8 -37.45 -11.7 -38.65 -13.65 -41.15 -12.7 -44.15 L-12.65 -44.25 -12.7 -44.3 -12.15 -45.15 -11.7 -45.35 -11.15 -45.0 -10.65 -44.5 -10.55 -44.05 -10.55 -43.85 Q-10.75 -44.1 -11.05 -44.2 L-11.85 -43.8 -12.05 -43.15 -12.05 -42.75 Q-12.25 -42.2 -12.1 -41.5 -11.8 -40.25 -11.1 -39.25 L-10.65 -38.65 -9.75 -37.9 M-16.0 -19.05 L-14.95 -18.5 -14.95 -18.4 -15.25 -18.0 -15.55 -17.8 -15.75 -17.9 -15.95 -18.1 -16.1 -18.7 -16.0 -19.05" fill="#ffe9d9" fill-rule="evenodd" stroke="none"/>
    <path d="M-3.15 -31.95 Q-3.2 -32.3 -3.75 -32.3 L-4.15 -32.3 -4.7 -32.6 Q-4.95 -33.35 -5.65 -33.55 -4.6 -33.75 -1.75 -32.75 L0.2 -32.6 2.4 -32.8 Q4.75 -33.2 5.85 -33.7 L4.9 -32.6 3.45 -32.05 3.35 -31.95 0.65 -31.05 Q0.35 -30.9 0.05 -31.05 L-3.15 -31.95 M5.35 -7.05 L4.55 -6.2 5.2 -7.2 5.35 -7.05 M1.25 -6.8 L2.35 -6.15 0.8 -6.05 0.6 -7.0 1.25 -6.8 M-1.0 -6.75 L-0.4 -7.0 -0.55 -6.05 -2.1 -6.15 -1.0 -6.75 M-4.95 -7.2 L-4.3 -6.2 -5.3 -6.95 -4.95 -7.2" fill="#eabda6" fill-rule="evenodd" stroke="none"/>
    <path d="M7.25 -32.45 L7.4 -32.7 8.2 -32.35 Q8.65 -32.25 8.4 -32.75 8.25 -33.05 8.25 -33.4 L9.8 -33.8 9.55 -34.2 10.85 -34.65 Q13.05 -33.5 13.7 -31.2 14.2 -29.25 12.65 -28.25 L11.7 -27.8 11.8 -29.85 11.45 -29.05 11.4 -29.1 Q11.0 -28.95 11.05 -29.4 11.15 -29.95 10.55 -28.7 L8.85 -32.15 Q9.25 -30.65 9.3 -28.9 L9.15 -27.5 8.55 -26.55 Q7.75 -26.0 6.8 -25.9 L1.4 -25.7 1.25 -25.6 1.4 -25.55 Q1.8 -25.35 0.8 -25.55 L-1.15 -25.4 -1.15 -25.5 -1.1 -25.5 -1.2 -25.7 Q-3.9 -25.3 -6.6 -25.6 -9.45 -26.0 -9.2 -28.9 L-8.6 -32.1 -10.35 -28.7 -10.7 -29.15 -11.15 -29.1 -11.25 -29.05 -11.6 -29.85 -11.25 -27.7 Q-13.65 -28.05 -13.45 -30.6 L-13.1 -32.05 Q-12.5 -33.4 -11.45 -34.25 L-10.9 -34.55 -9.35 -34.2 -9.55 -33.8 -8.05 -33.4 -8.15 -32.35 -7.05 -32.45 Q-7.35 -32.25 -7.15 -32.0 L-7.0 -31.8 -7.05 -31.65 Q-6.25 -32.0 -6.3 -31.2 L-6.2 -30.8 Q-6.1 -30.65 -5.95 -30.65 L-4.6 -30.1 Q-5.55 -30.0 -4.8 -29.5 -4.45 -29.25 -4.4 -29.65 L-4.4 -29.9 -4.05 -29.75 -3.35 -29.65 Q-2.8 -30.0 -2.85 -29.3 -3.6 -29.65 -3.25 -28.8 L-2.9 -28.85 -2.75 -29.25 -2.35 -29.4 -1.15 -29.0 Q-1.9 -29.15 -1.6 -28.5 -1.4 -28.15 -1.1 -28.3 -0.25 -28.45 -0.85 -28.95 L-0.15 -29.2 0.35 -29.2 1.1 -28.95 Q0.65 -28.5 1.3 -28.3 1.85 -28.05 1.9 -28.6 1.9 -29.0 1.4 -29.0 2.0 -29.4 2.65 -29.4 L3.0 -29.25 3.1 -28.85 Q3.3 -28.5 3.45 -28.8 3.85 -29.65 3.05 -29.3 3.15 -30.0 3.6 -30.0 L3.7 -30.0 4.2 -29.8 4.6 -29.9 Q4.55 -29.35 4.9 -29.25 5.4 -29.45 5.35 -29.75 L4.85 -30.1 Q4.9 -30.25 5.0 -30.2 L6.0 -30.65 Q6.1 -30.5 6.2 -30.65 L6.25 -30.75 6.55 -31.2 Q6.45 -32.0 7.25 -31.65 L7.25 -31.8 7.4 -31.95 Q7.55 -32.25 7.25 -32.45 M11.05 -27.1 L13.1 -28.05 13.7 -26.8 15.5 -23.3 15.5 -23.0 15.45 -22.8 15.45 -22.75 15.05 -22.75 15.0 -22.7 14.95 -22.45 14.95 -22.35 14.2 -22.3 14.25 -21.85 13.85 -21.7 13.05 -22.95 Q11.8 -24.85 11.05 -27.1 M-0.75 -19.65 L-1.8 -18.15 -4.25 -14.95 -7.15 -12.05 Q-8.55 -10.8 -10.35 -10.15 L-12.65 -10.0 -12.7 -10.0 -12.9 -10.15 -12.9 -10.4 -11.25 -15.9 -9.4 -21.4 -9.1 -22.1 -7.35 -24.85 Q-5.1 -24.05 -2.65 -24.1 0.1 -23.65 2.85 -24.15 5.3 -23.95 7.5 -24.85 L9.2 -22.35 10.1 -20.15 13.1 -10.4 13.1 -10.15 12.95 -10.0 12.9 -10.0 10.55 -10.15 Q9.6 -10.6 8.75 -11.2 6.85 -12.55 5.3 -14.15 L4.65 -14.85 1.95 -18.1 0.6 -20.15 0.5 -20.35 0.4 -20.5 0.25 -20.2 0.2 -20.1 0.15 -20.0 -0.15 -20.6 -0.6 -19.9 -0.6 -20.0 -0.7 -20.25 -1.0 -20.4 -1.25 -20.25 -1.4 -20.0 -1.25 -19.7 -1.0 -19.6 -0.75 -19.65 M1.25 -20.4 L1.0 -20.25 0.85 -20.0 1.0 -19.7 1.25 -19.6 1.55 -19.7 1.65 -20.0 1.55 -20.25 1.25 -20.4 M2.85 -17.2 Q2.95 -17.1 3.1 -17.1 L3.4 -17.2 3.5 -17.45 3.4 -17.7 3.1 -17.8 2.85 -17.7 2.7 -17.45 2.85 -17.2 M4.65 -14.85 L5.2 -14.85 5.2 -15.45 4.65 -15.45 4.65 -14.85 M9.85 -11.0 L9.95 -11.25 9.85 -11.5 9.6 -11.6 9.35 -11.5 9.25 -11.25 9.35 -11.0 Q9.45 -10.9 9.6 -10.9 L9.85 -11.0 M7.45 -13.2 L7.15 -13.35 6.9 -13.2 6.75 -12.95 6.9 -12.65 7.15 -12.55 7.45 -12.65 7.55 -12.95 7.45 -13.2 M3.4 -5.8 L5.9 -6.6 6.45 -6.6 Q6.1 -5.25 5.2 -4.3 4.0 -3.1 2.45 -2.75 1.3 -2.7 0.65 -3.5 L0.8 -5.55 1.5 -5.6 1.35 -5.25 1.4 -4.85 Q1.85 -4.25 2.4 -4.0 L3.6 -5.2 3.4 -5.8 M12.7 -10.15 L12.8 -10.4 12.7 -10.65 12.4 -10.75 12.15 -10.65 12.0 -10.4 12.15 -10.15 Q12.25 -10.05 12.4 -10.05 L12.7 -10.15 M-11.1 -25.95 L-12.9 -23.0 -13.65 -21.7 -13.95 -22.05 -13.95 -22.1 -14.75 -22.35 Q-14.65 -22.6 -14.9 -22.6 L-15.25 -22.75 -15.25 -22.8 -15.25 -23.0 -15.35 -23.15 -15.35 -23.35 Q-14.15 -24.8 -13.4 -26.75 L-12.85 -28.05 -11.2 -27.45 Q-10.45 -26.9 -11.1 -25.95 M-6.65 -13.15 L-6.9 -13.3 -7.15 -13.15 -7.25 -12.9 -7.15 -12.6 -6.9 -12.5 Q-6.75 -12.5 -6.65 -12.6 L-6.55 -12.9 -6.65 -13.15 M-4.95 -15.5 L-4.95 -14.85 -4.4 -14.85 -4.4 -15.5 -4.95 -15.5 M-2.85 -17.8 L-3.1 -17.7 -3.2 -17.45 -3.1 -17.2 -2.85 -17.1 -2.6 -17.2 -2.5 -17.45 -2.6 -17.7 -2.85 -17.8 M-11.9 -10.65 L-12.15 -10.75 -12.4 -10.65 -12.5 -10.4 -12.4 -10.15 Q-12.3 -10.05 -12.15 -10.05 L-11.9 -10.15 -11.8 -10.4 -11.9 -10.65 M-9.1 -11.5 L-9.35 -11.6 -9.6 -11.5 -9.7 -11.25 -9.6 -11.0 -9.35 -10.9 -9.1 -11.0 -9.0 -11.25 -9.1 -11.5 M-1.3 -5.6 L-0.55 -5.55 -0.4 -3.5 -0.85 -3.0 -2.8 -2.95 Q-5.25 -4.1 -6.25 -6.6 L-5.65 -6.6 -3.2 -5.8 -3.35 -5.2 -2.15 -4.0 -1.2 -4.85 Q-1.1 -5.05 -1.15 -5.25 L-1.3 -5.6" fill="#16152d" fill-rule="evenodd" stroke="none"/>
  </g>
</svg>
