<?xml version="1.0" encoding="UTF-8" standalone="no"?>
<svg xmlns:ffdec="https://www.free-decompiler.com/flash" xmlns:xlink="http://www.w3.org/1999/xlink" ffdec:objectType="shape" height="10.55px" width="16.15px" xmlns="http://www.w3.org/2000/svg">
  <g transform="matrix(1.0, 0.0, 0.0, 1.0, 7.55, 7.35)">
    <path d="M7.8 -6.5 L7.85 -6.5 8.1 -6.3 8.15 -6.2 8.3 -4.35 8.3 -3.9 8.6 -0.7 8.6 -0.45 8.55 -0.4 8.5 -0.4 8.4 -0.45 7.95 -1.05 7.5 -1.75 Q6.95 -2.5 6.75 -3.35 6.55 -4.25 6.65 -5.2 L6.7 -5.25 6.75 -5.25 6.75 -5.35 7.05 -5.5 7.3 -5.65 Q7.75 -5.95 7.8 -6.5 M2.45 -4.35 L3.2 -2.05 3.5 -1.5 Q3.95 -0.6 4.55 0.15 L5.15 1.1 5.4 1.95 Q3.95 2.7 2.35 2.95 L1.2 3.15 -0.1 3.05 Q-1.9 2.55 -3.5 1.65 L-5.35 0.5 -6.35 -0.3 -6.65 -0.65 -6.75 -0.8 -6.9 -1.1 -6.85 -2.4 -6.75 -3.1 Q-6.7 -3.9 -7.05 -4.6 L-7.2 -4.75 -7.55 -7.25 -7.2 -7.35 -5.75 -6.25 -4.1 -5.5 -0.35 -4.55 0.45 -4.45 2.15 -4.4 2.45 -4.35 M0.5 -2.8 L1.6 -2.75 1.7 -2.75 2.1 -2.75 2.25 -2.8 2.6 -2.9 2.65 -2.9 2.25 -4.0 0.0 -4.2 -1.15 -4.45 -2.3 -4.7 -3.65 -5.05 -4.55 -5.35 Q-5.3 -5.65 -6.05 -6.05 L-6.4 -6.25 -7.2 -6.85 -6.75 -5.45 -6.15 -5.1 -5.0 -4.5 -3.85 -3.95 -2.65 -3.45 -1.65 -3.1 -0.85 -2.95 0.5 -2.8 M-6.5 -1.35 L-6.35 -1.25 -5.75 -0.65 -4.6 0.3 -3.5 1.1 -2.35 1.75 Q-1.7 2.1 -1.0 2.4 L0.3 3.0 2.55 2.15 4.05 1.7 4.95 1.5 4.15 0.15 3.7 -0.7 3.05 -1.95 2.7 -2.6 1.7 -2.55 0.65 -2.55 -0.1 -2.65 -2.1 -3.1 -3.5 -3.55 -4.15 -3.8 -5.45 -4.4 -6.75 -5.1 -6.85 -5.05 -6.75 -4.8 -6.65 -4.15 -6.6 -3.55 -6.65 -1.35 -6.65 -1.3 -6.65 -1.15 -6.4 -0.8 -5.4 0.25 -5.2 0.4 -5.15 0.45 -4.45 0.9 -4.35 1.0 -4.3 1.0 -2.85 1.7 -5.2 0.05 -5.55 -0.3 -6.5 -1.35 M7.6 -3.8 L7.15 -3.65 7.1 -3.65 7.05 -3.65 7.1 -3.55 8.0 -1.55 8.3 -1.05 8.3 -1.45 8.1 -3.25 8.0 -4.15 7.9 -4.1 7.6 -3.8 M8.1 -4.75 L7.95 -5.9 7.15 -5.25 7.1 -5.25 6.8 -5.1 6.8 -4.8 6.9 -4.15 7.05 -3.9 7.55 -4.05 7.7 -4.15 7.95 -4.5 8.1 -4.75 M0.45 3.05 L0.55 3.15 5.1 1.9 5.0 1.65 2.2 2.4 0.45 3.05" fill="#313566" fill-rule="evenodd" stroke="none"/>
    <path d="M-5.55 -0.3 L-5.2 0.05 -5.45 -0.05 -5.55 -0.3" fill="#8d9bc7" fill-rule="evenodd" stroke="none"/>
    <path d="M0.5 -2.8 L-0.85 -2.95 -1.65 -3.1 -2.65 -3.45 -3.85 -3.95 -5.0 -4.5 -6.15 -5.1 -6.75 -5.45 -7.2 -6.85 -6.4 -6.25 -6.05 -6.05 Q-5.3 -5.65 -4.55 -5.35 L-3.65 -5.05 -2.3 -4.7 -1.15 -4.45 0.0 -4.2 2.25 -4.0 2.65 -2.9 2.6 -2.9 2.25 -2.8 2.1 -2.75 1.7 -2.75 1.6 -2.75 0.5 -2.8 M-6.65 -1.3 L-6.65 -1.35 -6.6 -3.55 -6.65 -4.15 -6.75 -4.8 -6.85 -5.05 -6.75 -5.1 -5.45 -4.4 -4.15 -3.8 -3.5 -3.55 -2.1 -3.1 -0.1 -2.65 0.65 -2.55 1.7 -2.55 2.7 -2.6 3.05 -1.95 3.7 -0.7 4.15 0.15 4.95 1.5 4.05 1.7 2.55 2.15 0.3 3.0 -1.0 2.4 Q-1.7 2.1 -2.35 1.75 L-3.5 1.1 -4.6 0.3 -5.75 -0.65 -6.35 -1.25 -6.5 -1.35 -6.65 -1.3 M8.1 -4.75 L7.95 -4.5 7.7 -4.15 7.55 -4.05 7.05 -3.9 6.9 -4.15 6.8 -4.8 6.8 -5.1 7.1 -5.25 7.15 -5.25 7.95 -5.9 8.1 -4.75 M7.6 -3.8 L7.9 -4.1 8.0 -4.15 8.1 -3.25 8.3 -1.45 8.3 -1.05 8.0 -1.55 7.1 -3.55 7.05 -3.65 7.1 -3.65 7.15 -3.65 7.6 -3.8" fill="#c1c7e1" fill-rule="evenodd" stroke="none"/>
    <path d="M-6.65 -1.3 L-6.5 -1.35 -5.55 -0.3 -5.45 -0.05 -5.2 0.05 -2.85 1.7 -4.3 1.0 -4.35 1.0 -4.45 0.9 -5.15 0.45 -5.2 0.4 -5.4 0.25 -6.4 -0.8 -6.65 -1.15 -6.65 -1.3 M0.45 3.05 L2.2 2.4 5.0 1.65 5.1 1.9 0.55 3.15 0.45 3.05" fill="#8993c5" fill-rule="evenodd" stroke="none"/>
  </g>
</svg>
