<?xml version="1.0" encoding="UTF-8" standalone="no"?>
<svg xmlns:ffdec="https://www.free-decompiler.com/flash" xmlns:xlink="http://www.w3.org/1999/xlink" ffdec:objectType="shape" height="41.25px" width="53.15px" xmlns="http://www.w3.org/2000/svg">
  <g transform="matrix(1.0, 0.0, 0.0, 1.0, 23.15, 40.45)">
    <path d="M7.8 -0.25 L29.3 -7.45 29.55 -29.05 24.35 -27.3 24.1 -22.4 18.9 -20.3 18.75 -14.85 13.25 -12.75 13.1 -7.75 7.7 -5.6 7.75 -0.25 7.8 -0.25 M28.0 -30.1 L0.65 -39.6 -0.15 -39.8 -4.55 -38.05 23.45 -28.1 28.6 -29.65 28.0 -30.1 M29.05 -30.5 L29.8 -30.2 30.0 -29.7 29.9 -6.7 7.25 0.8 6.9 0.1 6.6 -0.1 6.55 -0.1 6.35 -0.1 6.3 -0.1 -23.05 -10.2 -23.15 -16.2 -17.5 -18.35 -17.5 -22.95 -17.0 -23.85 -11.9 -25.7 -11.85 -31.05 -11.45 -31.7 -6.7 -33.15 -6.2 -38.45 0.45 -40.45 29.05 -30.5 M17.55 -21.2 L17.6 -21.15 22.95 -22.7 -5.85 -32.7 -10.45 -31.0 17.55 -21.2 M16.25 -15.3 L-11.55 -25.0 -16.35 -23.25 12.1 -13.25 16.7 -14.85 16.55 -14.9 16.85 -14.9 16.25 -15.3 M5.95 -1.0 L6.1 -0.95 6.35 -0.85 6.5 -5.5 -22.25 -15.5 -22.2 -10.85 -21.9 -10.8 -22.0 -10.75 5.95 -1.0 M16.95 -15.85 L18.05 -15.45 17.6 -20.4 -11.05 -30.35 -11.05 -25.7 16.85 -15.9 Q16.85 -15.9 16.95 -15.85 M12.45 -9.05 L12.35 -12.4 -16.7 -22.55 -16.75 -18.45 12.35 -8.1 12.45 -9.05 M11.4 -7.75 L-17.45 -17.8 -21.7 -16.1 6.1 -6.4 11.4 -7.75 M23.3 -27.45 L-5.6 -37.5 -5.8 -33.5 -4.95 -33.15 -4.7 -33.0 -4.45 -33.0 23.1 -23.4 23.3 -27.45" fill="#627173" fill-rule="evenodd" stroke="none"/>
    <path d="M7.75 -0.25 L7.7 -5.6 13.1 -7.75 13.25 -12.75 18.75 -14.85 18.9 -20.3 24.1 -22.4 24.35 -27.3 29.55 -29.05 29.3 -7.45 7.8 -0.25 7.75 -0.25 M16.95 -15.85 Q16.85 -15.9 16.85 -15.9 L-11.05 -25.7 -11.05 -30.35 17.6 -20.4 18.05 -15.45 16.95 -15.85 M5.95 -1.0 L-22.0 -10.75 -21.9 -10.8 -22.2 -10.85 -22.25 -15.5 6.5 -5.5 6.35 -0.85 6.1 -0.95 5.95 -1.0 M12.45 -9.05 L12.35 -8.1 -16.75 -18.45 -16.7 -22.55 12.35 -12.4 12.45 -9.05 M23.3 -27.45 L23.1 -23.4 -4.45 -33.0 -4.7 -33.0 -4.95 -33.15 -5.8 -33.5 -5.6 -37.5 23.3 -27.45" fill="#b4c0c5" fill-rule="evenodd" stroke="none"/>
    <path d="M28.0 -30.1 L28.6 -29.65 23.45 -28.1 -4.55 -38.05 -0.15 -39.8 0.65 -39.6 28.0 -30.1 M17.55 -21.2 L-10.45 -31.0 -5.85 -32.7 22.95 -22.7 17.6 -21.15 17.55 -21.2 M16.25 -15.3 L16.85 -14.9 16.55 -14.9 16.7 -14.85 12.1 -13.25 -16.35 -23.25 -11.55 -25.0 16.25 -15.3 M11.4 -7.75 L6.1 -6.4 -21.7 -16.1 -17.45 -17.8 11.4 -7.75" fill="#d5e1e6" fill-rule="evenodd" stroke="none"/>
  </g>
</svg>
