<?xml version="1.0" encoding="UTF-8" standalone="no"?>
<svg xmlns:ffdec="https://www.free-decompiler.com/flash" xmlns:xlink="http://www.w3.org/1999/xlink" ffdec:objectType="shape" height="48.65px" width="50.15px" xmlns="http://www.w3.org/2000/svg">
  <g transform="matrix(1.0, 0.0, 0.0, 1.0, 24.4, 50.95)">
    <path d="M22.55 -35.6 L24.1 -34.1 Q24.55 -33.55 24.55 -32.8 24.6 -31.6 23.7 -30.55 L23.25 -29.85 25.75 -29.05 25.6 -13.15 23.5 -12.5 20.55 -13.3 20.55 -12.8 20.0 -8.95 Q19.85 -8.2 19.35 -7.6 L18.0 -6.65 Q15.55 -5.55 13.0 -4.7 L8.25 -3.35 3.35 -2.55 -1.05 -2.35 -2.25 -2.3 -5.75 -2.45 -5.95 -4.4 -13.1 -6.0 -15.75 -5.1 -17.05 -5.95 -18.7 -7.3 -19.8 -9.05 -19.85 -9.1 -20.0 -9.9 -20.1 -27.4 -20.65 -27.7 -20.7 -27.7 Q-22.45 -28.75 -23.6 -30.35 -24.8 -32.1 -24.25 -33.95 L-20.15 -36.75 -16.15 -39.6 -16.1 -39.6 -14.45 -40.8 -7.5 -45.8 0.15 -50.95 19.65 -37.7 22.55 -35.6 M-23.95 -32.85 L-24.2 -32.25 -23.6 -31.35 -22.25 -29.9 -20.95 -28.8 -19.05 -27.9 -18.6 -28.65 -18.15 -29.85 -18.1 -29.95 Q-17.3 -32.05 -15.45 -33.25 L-14.95 -33.55 -14.5 -33.8 -14.45 -33.8 Q-12.0 -34.95 -9.3 -33.9 -8.65 -33.55 -8.05 -33.0 L-6.55 -31.25 -5.85 -29.65 -5.3 -27.15 -5.3 -26.85 -5.3 -26.8 -5.15 -25.5 -2.3 -25.05 Q2.3 -24.85 6.85 -25.1 L14.75 -26.65 16.75 -27.35 20.55 -29.15 Q21.65 -29.7 22.55 -30.45 23.35 -31.1 23.8 -32.0 L23.85 -32.05 23.9 -32.2 23.95 -33.2 23.9 -33.65 23.15 -34.25 21.2 -35.7 19.95 -36.45 19.75 -36.55 19.7 -36.55 18.4 -35.6 15.2 -33.8 Q10.8 -31.7 5.85 -31.5 L-0.75 -31.1 Q-3.5 -31.1 -6.15 -31.9 L1.75 -31.4 8.1 -32.35 Q11.9 -32.8 15.55 -34.25 L15.85 -34.35 17.05 -34.95 17.4 -35.15 19.0 -36.7 14.25 -40.15 12.65 -39.65 11.2 -39.25 Q6.75 -38.15 2.05 -37.9 L-5.15 -38.35 Q-8.6 -38.95 -11.9 -40.2 L-11.95 -40.3 -12.7 -41.3 -17.95 -37.2 -17.75 -36.3 -16.0 -34.95 Q-15.4 -34.55 -14.7 -34.3 L-14.55 -34.1 -14.55 -33.9 -14.9 -33.9 -15.45 -34.05 -16.5 -34.55 -17.35 -35.15 -18.05 -35.85 -18.15 -36.0 -18.75 -36.8 -23.95 -32.85 M23.65 -12.95 L25.05 -13.3 25.3 -28.75 25.3 -28.85 22.9 -29.55 18.45 -27.45 18.3 -26.8 18.5 -14.65 23.65 -12.95 M11.9 -40.1 L13.35 -40.95 6.95 -45.45 4.65 -44.8 Q0.3 -43.9 -3.85 -44.7 L-4.95 -44.95 -7.1 -45.4 -12.4 -41.5 -11.3 -40.7 -10.7 -40.5 Q-3.5 -38.1 4.2 -38.65 L7.5 -39.05 Q9.9 -39.1 11.9 -40.1 M4.05 -45.3 L6.2 -46.15 0.05 -50.55 -6.2 -45.95 -4.35 -45.35 1.0 -44.9 4.05 -45.3 M19.6 -13.5 L17.75 -14.3 17.35 -16.6 16.65 -17.4 16.75 -18.35 17.75 -18.95 17.7 -25.35 16.7 -26.25 14.95 -25.95 Q4.9 -23.3 -5.4 -25.0 L-5.85 -25.7 Q-5.8 -27.6 -6.25 -29.35 -6.75 -31.4 -8.3 -32.7 -9.1 -33.35 -10.05 -33.55 -10.9 -33.7 -11.6 -33.25 -14.45 -31.4 -15.1 -28.1 L-18.5 -26.7 -19.3 -27.0 -19.35 -25.35 -19.45 -11.95 Q-19.85 -8.9 -17.4 -7.0 L-16.1 -6.05 -16.0 -8.05 -15.95 -14.8 -15.8 -18.5 -15.35 -20.0 -14.45 -20.9 Q-13.35 -21.6 -12.1 -21.9 L-11.65 -21.95 Q-6.15 -21.75 -5.5 -16.3 -5.3 -14.6 -5.45 -12.9 L-5.35 -5.0 -5.35 -3.2 Q5.35 -1.95 15.3 -6.05 17.6 -6.9 19.35 -8.45 L19.55 -10.75 19.75 -13.15 19.75 -13.45 19.6 -13.5 M5.05 -22.1 L10.05 -22.6 10.85 -22.35 Q12.0 -21.8 12.15 -20.6 L12.2 -20.45 12.2 -20.05 11.9 -20.8 11.15 -21.75 10.0 -22.1 10.15 -21.4 10.25 -20.35 10.65 -14.2 10.7 -13.1 12.2 -12.4 12.3 -13.55 12.35 -16.3 12.35 -17.65 12.35 -18.5 12.4 -18.15 12.4 -18.1 12.75 -12.15 Q10.25 -10.75 7.1 -10.25 L4.5 -9.85 1.75 -9.8 1.65 -19.2 2.2 -19.85 2.7 -20.45 2.9 -20.6 2.95 -20.65 3.4 -21.05 4.6 -21.85 5.05 -22.1 M17.75 -27.1 L17.75 -27.15 17.7 -27.1 17.75 -27.1 M11.05 -12.6 L10.35 -12.6 4.2 -10.95 2.2 -10.3 3.1 -10.05 7.45 -11.0 11.7 -12.05 11.05 -12.6 M5.8 -21.75 L6.1 -20.15 9.75 -21.1 9.75 -21.2 9.4 -22.15 6.6 -22.05 5.8 -21.75 M5.4 -20.0 L5.35 -21.55 2.7 -19.55 5.4 -20.0 M9.75 -20.15 L6.15 -19.4 6.3 -15.75 9.8 -16.6 9.75 -20.15 M9.8 -13.3 L9.8 -13.8 9.8 -16.1 6.2 -15.2 6.25 -12.65 6.25 -12.4 8.95 -13.05 9.8 -13.3 M2.05 -14.95 L5.5 -15.6 5.4 -19.45 2.3 -19.0 2.05 -14.95 M2.3 -14.45 L2.2 -11.6 2.25 -11.4 2.45 -11.45 3.2 -11.6 5.45 -12.2 5.5 -12.3 5.55 -12.35 5.6 -14.85 2.3 -14.45 M-10.2 -31.9 L-11.7 -31.35 -12.45 -30.4 -12.6 -28.55 Q-12.5 -27.9 -12.0 -27.45 -10.3 -25.95 -8.7 -26.9 -7.35 -27.55 -7.5 -29.1 L-7.55 -29.5 Q-7.7 -30.55 -8.4 -31.25 -9.1 -31.8 -10.2 -31.9 M-11.95 -34.0 Q-15.05 -34.0 -16.7 -31.4 L-17.5 -29.9 -18.1 -27.95 -17.75 -28.05 -16.05 -28.3 -15.75 -29.2 Q-15.05 -31.5 -13.3 -33.0 L-11.95 -34.0 M-6.0 -12.6 Q-6.0 -14.75 -6.15 -16.75 -6.55 -21.45 -11.25 -21.5 L-11.95 -20.85 -12.55 -20.1 -12.8 -19.2 -13.1 -13.0 -13.05 -6.9 -6.4 -5.5 -5.95 -5.45 -6.0 -12.6 M-12.3 -27.0 Q-13.3 -28.0 -13.3 -29.35 -13.3 -30.7 -12.3 -31.65 -11.35 -32.65 -10.0 -32.65 -8.65 -32.65 -7.65 -31.65 -6.7 -30.7 -6.7 -29.35 -6.7 -28.0 -7.65 -27.0 -8.65 -26.05 -10.0 -26.05 -11.35 -26.05 -12.3 -27.0 M-9.7 -19.9 L-11.7 -18.5 -11.6 -16.25 Q-10.2 -14.8 -8.2 -15.25 -5.95 -17.75 -8.8 -19.5 L-9.7 -19.9 M-9.0 -20.55 L-8.2 -19.95 Q-5.1 -17.25 -7.9 -14.9 -8.65 -14.6 -9.75 -14.4 -11.25 -14.45 -11.75 -16.05 -12.9 -19.85 -9.0 -20.55 M-12.55 -21.35 L-12.55 -21.4 -12.65 -21.4 -13.9 -20.65 Q-15.3 -19.7 -15.35 -18.0 L-15.45 -14.4 -15.5 -9.8 -15.55 -6.2 -15.45 -5.85 -15.3 -5.75 Q-14.45 -5.7 -13.9 -6.3 L-13.85 -13.35 -13.85 -17.35 -13.8 -17.9 -13.45 -19.7 Q-13.2 -20.75 -12.55 -21.35" fill="#333333" fill-rule="evenodd" stroke="none"/>
    <path d="M23.9 -32.2 L23.85 -32.05 23.8 -32.0 Q23.35 -31.1 22.55 -30.45 21.65 -29.7 20.55 -29.15 L16.75 -27.35 14.75 -26.65 6.85 -25.1 Q2.3 -24.85 -2.3 -25.05 L-5.15 -25.5 -5.3 -26.8 -5.3 -26.85 -5.3 -27.15 -5.85 -29.65 -6.55 -31.25 -8.05 -33.0 Q-8.65 -33.55 -9.3 -33.9 -12.0 -34.95 -14.45 -33.8 L-14.5 -33.8 -14.95 -33.55 -15.45 -33.25 Q-17.3 -32.05 -18.1 -29.95 L-18.15 -29.85 -18.6 -28.65 -19.05 -27.9 -20.95 -28.8 -22.25 -29.9 -23.6 -31.35 -24.2 -32.25 -23.95 -32.85 -23.45 -32.5 Q-22.3 -30.05 -19.6 -29.1 L-19.35 -29.0 -22.15 -32.8 -18.15 -36.0 -18.05 -35.85 -17.35 -35.15 -16.5 -34.55 -15.45 -34.05 -14.9 -33.9 -14.55 -33.9 -14.55 -34.1 -14.7 -34.3 Q-15.4 -34.55 -16.0 -34.95 L-17.75 -36.3 -11.4 -34.9 -15.9 -37.1 -11.95 -40.3 -11.9 -40.2 Q-8.6 -38.95 -5.15 -38.35 L2.05 -37.9 Q6.75 -38.15 11.2 -39.25 L12.65 -39.65 17.6 -36.6 Q14.6 -34.9 11.05 -34.4 4.2 -33.1 -2.9 -33.2 L-6.75 -33.45 -6.85 -33.5 Q-7.0 -32.95 -5.9 -32.75 L-0.3 -32.25 Q7.35 -32.4 14.6 -34.25 L17.4 -35.15 17.05 -34.95 15.85 -34.35 15.55 -34.25 Q11.9 -32.8 8.1 -32.35 L1.75 -31.4 -6.15 -31.9 Q-3.5 -31.1 -0.75 -31.1 L5.85 -31.5 Q10.8 -31.7 15.2 -33.8 L18.4 -35.6 22.3 -32.8 Q16.25 -27.95 8.4 -27.05 L-3.5 -26.6 -4.15 -26.45 -4.5 -26.3 Q-0.55 -25.1 3.95 -25.7 15.1 -25.95 23.9 -32.2 M19.7 -36.55 L19.75 -36.55 19.95 -36.45 21.2 -35.7 23.15 -34.25 23.9 -33.65 23.95 -33.2 19.7 -36.55 M11.9 -40.1 Q9.9 -39.1 7.5 -39.05 L4.2 -38.65 Q-3.5 -38.1 -10.7 -40.5 L-11.3 -40.7 -10.6 -41.2 Q0.15 -37.45 11.4 -40.25 L11.9 -40.1 M-4.95 -44.95 L-3.85 -44.7 Q0.3 -43.9 4.65 -44.8 L10.1 -41.25 Q1.7 -39.7 -6.7 -41.6 L-9.1 -42.15 -4.95 -44.95 M2.8 -46.35 L-1.75 -46.2 -2.5 -46.4 0.15 -48.5 2.8 -46.35 M4.05 -45.3 L1.0 -44.9 -4.35 -45.35 4.05 -45.3" fill="#990000" fill-rule="evenodd" stroke="none"/>
    <path d="M23.9 -32.2 Q15.1 -25.95 3.95 -25.7 -0.55 -25.1 -4.5 -26.3 L-4.15 -26.45 -3.5 -26.6 8.4 -27.05 Q16.25 -27.95 22.3 -32.8 L18.4 -35.6 19.7 -36.55 23.95 -33.2 23.9 -32.2 M17.4 -35.15 L14.6 -34.25 Q7.35 -32.4 -0.3 -32.25 L-5.9 -32.75 Q-7.0 -32.95 -6.85 -33.5 L-6.75 -33.45 -2.9 -33.2 Q4.2 -33.1 11.05 -34.4 14.6 -34.9 17.6 -36.6 L12.65 -39.65 14.25 -40.15 19.0 -36.7 17.4 -35.15 M-11.95 -40.3 L-15.9 -37.1 -11.4 -34.9 -17.75 -36.3 -17.95 -37.2 -12.7 -41.3 -11.95 -40.3 M-18.15 -36.0 L-22.15 -32.8 -19.35 -29.0 -19.6 -29.1 Q-22.3 -30.05 -23.45 -32.5 L-23.95 -32.85 -18.75 -36.8 -18.15 -36.0 M4.65 -44.8 L6.95 -45.45 13.35 -40.95 11.9 -40.1 11.4 -40.25 Q0.15 -37.45 -10.6 -41.2 L-11.3 -40.7 -12.4 -41.5 -7.1 -45.4 -4.95 -44.95 -9.1 -42.15 -6.7 -41.6 Q1.7 -39.7 10.1 -41.25 L4.65 -44.8 M2.8 -46.35 L0.15 -48.5 -2.5 -46.4 -1.75 -46.2 2.8 -46.35 M-4.35 -45.35 L-6.2 -45.95 0.05 -50.55 6.2 -46.15 4.05 -45.3 -4.35 -45.35" fill="#ff0000" fill-rule="evenodd" stroke="none"/>
    <path d="M-11.95 -34.0 L-13.3 -33.0 Q-15.05 -31.5 -15.75 -29.2 L-16.05 -28.3 -17.75 -28.05 -18.1 -27.95 -17.5 -29.9 -16.7 -31.4 Q-15.05 -34.0 -11.95 -34.0" fill="#4f0000" fill-rule="evenodd" stroke="none"/>
    <path d="M19.6 -13.5 L19.75 -13.45 19.75 -13.15 19.55 -10.75 Q15.75 -7.3 10.35 -6.2 5.05 -5.05 -0.5 -5.05 L-4.7 -5.15 -5.35 -5.0 -5.45 -12.9 Q-5.3 -14.6 -5.5 -16.3 -6.15 -21.75 -11.65 -21.95 L-12.1 -21.9 Q-13.35 -21.6 -14.45 -20.9 L-15.35 -20.0 -15.8 -18.5 -15.95 -14.8 -16.0 -8.05 -19.45 -11.95 -19.35 -25.35 Q-17.8 -24.6 -16.2 -24.15 -5.85 -21.2 5.05 -22.1 L4.6 -21.85 3.4 -21.05 2.95 -20.65 2.9 -20.6 2.7 -20.45 2.2 -19.85 1.65 -19.2 1.75 -9.8 4.5 -9.85 7.1 -10.25 Q10.25 -10.75 12.75 -12.15 L12.4 -18.1 12.4 -18.15 12.35 -19.2 12.35 -19.75 12.2 -20.45 12.15 -20.6 Q12.0 -21.8 10.85 -22.35 L10.05 -22.6 15.75 -23.95 16.85 -12.4 19.6 -13.5 M11.05 -12.6 L11.7 -12.05 7.45 -11.0 3.1 -10.05 2.2 -10.3 4.2 -10.95 10.35 -12.6 11.05 -12.6" fill="#f1ede7" fill-rule="evenodd" stroke="none"/>
    <path d="M-19.35 -25.35 L-19.3 -27.0 -18.5 -26.7 -15.1 -28.1 Q-14.45 -31.4 -11.6 -33.25 -10.9 -33.7 -10.05 -33.55 -9.1 -33.35 -8.3 -32.7 -6.75 -31.4 -6.25 -29.35 -5.8 -27.6 -5.85 -25.7 L-5.4 -25.0 Q4.9 -23.3 14.95 -25.95 L16.7 -26.25 17.7 -25.35 17.75 -18.95 16.75 -18.35 16.65 -17.4 17.35 -16.6 17.75 -14.3 19.6 -13.5 16.85 -12.4 15.75 -23.95 10.05 -22.6 5.05 -22.1 Q-5.85 -21.2 -16.2 -24.15 -17.8 -24.6 -19.35 -25.35 M12.4 -18.15 L12.35 -18.5 12.35 -17.65 12.35 -16.3 12.3 -13.55 12.2 -12.4 10.7 -13.1 10.65 -14.2 10.25 -20.35 10.15 -21.4 10.0 -22.1 11.15 -21.75 11.9 -20.8 12.2 -20.05 12.2 -20.45 12.35 -19.75 12.35 -19.2 12.4 -18.15 M-12.3 -27.0 Q-11.35 -26.05 -10.0 -26.05 -8.65 -26.05 -7.65 -27.0 -6.7 -28.0 -6.7 -29.35 -6.7 -30.7 -7.65 -31.65 -8.65 -32.65 -10.0 -32.65 -11.35 -32.65 -12.3 -31.65 -13.3 -30.7 -13.3 -29.35 -13.3 -28.0 -12.3 -27.0 M-6.0 -12.6 L-5.95 -5.45 -6.4 -5.5 -13.05 -6.9 -13.1 -13.0 -12.8 -19.2 -12.55 -20.1 -11.95 -20.85 -11.25 -21.5 Q-6.55 -21.45 -6.15 -16.75 -6.0 -14.75 -6.0 -12.6 M-9.0 -20.55 Q-12.9 -19.85 -11.75 -16.05 -11.25 -14.45 -9.75 -14.4 -8.65 -14.6 -7.9 -14.9 -5.1 -17.25 -8.2 -19.95 L-9.0 -20.55" fill="#d3c6af" fill-rule="evenodd" stroke="none"/>
    <path d="M-12.65 -21.4 L-12.55 -21.35 Q-13.2 -20.75 -13.45 -19.7 L-13.8 -17.9 -13.85 -17.35 -13.85 -13.35 -13.9 -6.3 Q-14.45 -5.7 -15.3 -5.75 L-15.45 -5.85 -15.55 -6.2 -15.5 -9.8 -15.45 -14.4 -15.35 -18.0 Q-15.3 -19.7 -13.9 -20.65 L-12.65 -21.4" fill="#998f71" fill-rule="evenodd" stroke="none"/>
    <path d="M19.55 -10.75 L19.35 -8.45 Q17.6 -6.9 15.3 -6.05 5.35 -1.95 -5.35 -3.2 L-5.35 -5.0 -4.7 -5.15 -0.5 -5.05 Q5.05 -5.05 10.35 -6.2 15.75 -7.3 19.55 -10.75 M-16.0 -8.05 L-16.1 -6.05 -17.4 -7.0 Q-19.85 -8.9 -19.45 -11.95 L-16.0 -8.05" fill="#999999" fill-rule="evenodd" stroke="none"/>
    <path d="M5.8 -21.75 L6.6 -22.05 9.4 -22.15 9.75 -21.2 9.75 -21.1 6.1 -20.15 5.8 -21.75 M5.4 -20.0 L2.7 -19.55 5.35 -21.55 5.4 -20.0 M-10.2 -31.9 Q-9.1 -31.8 -8.4 -31.25 -7.7 -30.55 -7.55 -29.5 L-7.5 -29.1 Q-7.35 -27.55 -8.7 -26.9 -10.3 -25.95 -12.0 -27.45 -12.5 -27.9 -12.6 -28.55 L-12.45 -30.4 -11.7 -31.35 -10.2 -31.9" fill="#004800" fill-rule="evenodd" stroke="none"/>
    <path d="M9.8 -13.3 L8.95 -13.05 6.25 -12.4 6.25 -12.65 6.2 -15.2 9.8 -16.1 9.8 -13.8 9.8 -13.3 M2.3 -14.45 L5.6 -14.85 5.55 -12.35 5.5 -12.3 5.45 -12.2 3.2 -11.6 2.45 -11.45 2.25 -11.4 2.2 -11.6 2.3 -14.45 M-9.7 -19.9 L-8.8 -19.5 Q-5.95 -17.75 -8.2 -15.25 -10.2 -14.8 -11.6 -16.25 L-11.7 -18.5 -9.7 -19.9" fill="#009933" fill-rule="evenodd" stroke="none"/>
    <path d="M9.75 -20.15 L9.8 -16.6 6.3 -15.75 6.15 -19.4 9.75 -20.15 M2.05 -14.95 L2.3 -19.0 5.4 -19.45 5.5 -15.6 2.05 -14.95" fill="#009900" fill-rule="evenodd" stroke="none"/>
    <path d="M25.3 -28.75 L23.85 -28.3 23.65 -12.95 18.5 -14.65 18.3 -26.8 18.45 -27.45 22.9 -29.55 25.3 -28.85 25.3 -28.75 M20.45 -27.3 L19.95 -25.65 21.35 -24.1 19.8 -24.75 19.8 -20.75 20.2 -21.75 21.8 -21.2 21.5 -20.1 Q19.4 -20.85 19.9 -18.9 20.45 -18.25 21.3 -18.65 L21.5 -18.75 21.7 -19.95 Q22.2 -19.7 22.4 -20.1 23.0 -21.3 23.15 -22.75 L23.05 -23.1 22.15 -22.05 20.35 -22.6 20.5 -23.35 22.15 -23.55 22.5 -24.75 20.65 -26.25 21.45 -26.7 22.4 -26.3 Q22.6 -27.7 20.85 -27.4 L20.45 -27.3 M19.2 -15.0 L19.95 -15.65 22.85 -15.7 Q22.8 -18.2 19.95 -18.05 L19.2 -15.0 M21.1 -19.7 L21.25 -19.4 21.1 -19.05 20.75 -18.95 Q20.55 -18.95 20.4 -19.05 20.25 -19.2 20.25 -19.4 L20.4 -19.7 20.75 -19.85 21.1 -19.7 M22.05 -16.15 L20.35 -16.6 20.45 -17.35 22.05 -16.15" fill="#dffea5" fill-rule="evenodd" stroke="none"/>
    <path d="M20.45 -27.3 L20.85 -27.4 Q22.6 -27.7 22.4 -26.3 L21.45 -26.7 20.65 -26.25 22.5 -24.75 22.15 -23.55 20.5 -23.35 20.35 -22.6 22.15 -22.05 23.05 -23.1 23.15 -22.75 Q23.0 -21.3 22.4 -20.1 22.2 -19.7 21.7 -19.95 L21.5 -18.75 21.3 -18.65 Q20.45 -18.25 19.9 -18.9 19.4 -20.85 21.5 -20.1 L21.8 -21.2 20.2 -21.75 19.8 -20.75 19.8 -24.75 21.35 -24.1 19.95 -25.65 20.45 -27.3 M19.2 -15.0 L19.95 -18.05 Q22.8 -18.2 22.85 -15.7 L19.95 -15.65 19.2 -15.0 M21.1 -19.7 L20.75 -19.85 20.4 -19.7 20.25 -19.4 Q20.25 -19.2 20.4 -19.05 20.55 -18.95 20.75 -18.95 L21.1 -19.05 21.25 -19.4 21.1 -19.7 M22.05 -16.15 L20.45 -17.35 20.35 -16.6 22.05 -16.15" fill="#006600" fill-rule="evenodd" stroke="none"/>
    <path d="M23.65 -12.95 L23.85 -28.3 25.3 -28.75 25.05 -13.3 23.65 -12.95" fill="#98b86b" fill-rule="evenodd" stroke="none"/>
  </g>
</svg>
