<?xml version="1.0" encoding="UTF-8" standalone="no"?>
<svg xmlns:ffdec="https://www.free-decompiler.com/flash" xmlns:xlink="http://www.w3.org/1999/xlink" ffdec:objectType="shape" height="75.4px" width="79.3px" xmlns="http://www.w3.org/2000/svg">
  <g transform="matrix(1.0, 0.0, 0.0, 1.0, 39.6, 60.4)">
    <path d="M0.0 15.0 L-30.0 5.0 0.0 -4.95 30.0 5.0 0.0 15.0" fill="#ff6276" fill-rule="evenodd" stroke="none"/>
    <path d="M22.35 -45.5 L17.55 -48.85 11.35 -43.35 Q14.3 -47.95 13.5 -53.15 13.35 -54.7 12.6 -56.6 0.75 -61.1 -11.85 -59.0 L-5.1 -56.5 Q2.1 -53.6 6.75 -47.7 L3.5 -49.5 Q1.7 -50.4 -0.15 -50.55 -14.55 -53.1 -29.6 -50.1 L-21.7 -45.05 Q-30.5 -44.7 -39.05 -48.2 L-28.7 -28.8 -28.5 -28.7 -26.0 -36.6 -26.45 -29.75 Q-26.55 -26.45 -26.0 -23.1 -25.1 -16.9 -22.4 -11.3 -18.15 -21.3 -14.05 -31.4 L-18.8 -13.75 -7.0 -31.55 -14.4 -12.75 -10.25 -15.8 -6.3 -18.9 Q-2.25 -22.05 0.9 -25.7 L5.75 -31.95 Q8.3 -35.35 9.55 -39.4 L7.05 -18.5 9.0 -21.75 10.55 -25.25 Q13.6 -33.3 14.3 -41.9 L14.6 -38.95 31.7 -17.35 Q29.55 -27.15 24.3 -35.9 L37.7 -27.6 25.3 -42.9 22.35 -45.5 M-24.3 -45.8 L-31.5 -50.4 Q-18.7 -52.9 -5.85 -52.65 L-2.6 -52.25 0.3 -52.1 Q-1.5 -53.45 -3.4 -54.5 -8.35 -57.65 -14.1 -59.2 0.1 -62.35 13.35 -57.15 L14.75 -48.85 Q19.45 -50.9 24.75 -51.2 30.95 -51.3 36.2 -47.6 L22.4 -46.8 Q33.4 -37.4 39.7 -24.8 L26.1 -34.0 Q29.35 -28.35 31.35 -22.05 32.5 -18.25 32.7 -14.9 L23.95 -26.15 24.5 -19.35 Q24.75 -16.1 24.2 -13.05 23.3 -7.55 18.1 -4.85 6.15 1.1 -7.65 -2.4 L-7.9 -2.4 -13.3 -4.3 Q-14.3 -3.3 -16.0 -3.85 -19.8 -5.1 -22.2 -8.8 L-22.6 -9.25 Q-30.3 -12.75 -36.15 -18.9 L-27.1 -18.7 Q-28.8 -20.3 -30.7 -21.6 -33.85 -24.0 -37.6 -24.75 L-28.9 -27.95 Q-36.0 -37.6 -39.6 -49.1 L-24.3 -45.8 M18.45 -49.55 L18.3 -49.5 18.35 -49.5 21.45 -47.5 33.2 -48.4 31.05 -49.2 18.45 -49.55 M-19.15 -11.15 L-19.7 -10.35 -18.1 -19.25 Q-19.6 -15.35 -20.5 -11.4 -20.85 -10.05 -20.35 -8.7 -18.25 -3.4 -13.5 -5.0 -9.0 -3.3 -3.6 -2.95 L4.95 -1.8 5.5 -1.8 Q16.95 -1.7 23.15 -10.85 24.5 -12.95 23.95 -15.45 22.8 -21.15 22.95 -27.05 L20.9 -30.2 16.4 -26.0 15.15 -24.9 15.2 -21.95 16.85 -22.55 16.85 -25.7 Q18.55 -21.15 17.1 -16.35 L16.95 -16.1 15.6 -16.0 14.95 -16.45 14.7 -24.65 11.15 -21.95 12.15 -23.75 12.25 -23.65 20.0 -31.3 14.6 -38.3 Q14.25 -31.85 12.15 -25.65 10.55 -20.7 6.3 -17.6 L8.85 -34.9 -0.35 -22.5 5.3 -22.65 5.6 -21.2 4.85 -20.6 1.55 -21.15 0.35 -21.3 -1.25 -21.6 -15.45 -11.85 -15.0 -14.1 -16.1 -16.1 -17.25 -13.65 -16.3 -11.05 -16.75 -9.95 -15.1 -7.8 -16.0 -7.25 -17.65 -8.8 -17.8 -10.05 -17.65 -13.4 Q-18.35 -12.2 -19.15 -11.15 M1.8 -20.5 Q3.8 -14.9 0.35 -11.4 L-0.1 -11.5 Q-1.5 -15.9 -0.35 -20.05 -0.15 -18.0 0.2 -17.15 0.55 -16.45 1.0 -16.8 1.45 -17.15 1.7 -18.45 L1.8 -20.5 M6.65 -6.45 Q9.1 -3.65 12.05 -5.75 L12.95 -6.75 Q10.8 -2.25 6.6 -5.9 6.2 -6.2 6.65 -6.45 M-27.35 -21.15 L-27.9 -26.8 -34.3 -24.8 -27.35 -21.15 M-35.0 -18.15 L-23.1 -10.25 -26.55 -17.15 -35.0 -18.15" fill="#000000" fill-rule="evenodd" stroke="none"/>
    <path d="M25.3 -42.9 L37.7 -27.6 24.3 -35.9 Q29.55 -27.15 31.7 -17.35 L14.6 -38.95 14.3 -41.9 Q13.6 -33.3 10.55 -25.25 L9.0 -21.75 7.05 -18.5 9.55 -39.4 Q8.3 -35.35 5.75 -31.95 L0.9 -25.7 Q-2.25 -22.05 -6.3 -18.9 L-10.25 -15.8 -14.4 -12.75 -7.0 -31.55 -18.8 -13.75 -14.05 -31.4 Q-18.15 -21.3 -22.4 -11.3 -25.1 -16.9 -26.0 -23.1 -26.55 -26.45 -26.45 -29.75 L-26.0 -36.6 -28.5 -28.7 -28.7 -28.8 -39.05 -48.2 Q-30.5 -44.7 -21.7 -45.05 L-29.6 -50.1 Q-14.55 -53.1 -0.15 -50.55 1.7 -50.4 3.5 -49.5 L6.75 -47.7 Q2.1 -53.6 -5.1 -56.5 L-11.85 -59.0 Q0.75 -61.1 12.6 -56.6 13.35 -54.7 13.5 -53.15 14.3 -47.95 11.35 -43.35 L17.55 -48.85 22.35 -45.5 25.05 -40.85 17.0 -43.7 19.2 -38.75 15.95 -40.75 21.6 -36.05 21.7 -36.25 19.35 -41.4 Q23.85 -39.2 28.25 -37.15 L25.3 -42.9 M6.85 -42.0 L1.2 -35.35 2.15 -42.55 -4.6 -33.55 Q-4.3 -38.7 -4.15 -43.9 L-11.8 -32.3 -10.9 -43.65 -20.05 -31.85 -19.25 -42.45 -22.65 -36.25 -21.05 -38.75 -21.15 -28.35 -12.5 -39.85 -13.6 -27.95 -5.2 -41.3 -6.55 -28.05 1.45 -39.65 0.1 -32.9 2.55 -35.1 4.5 -37.7 5.95 -40.1 6.85 -42.0 M18.35 -49.5 L18.45 -49.55 31.05 -49.2 33.2 -48.4 21.45 -47.5 18.35 -49.5 M-27.35 -21.15 L-34.3 -24.8 -27.9 -26.8 -27.35 -21.15 M-35.0 -18.15 L-26.55 -17.15 -23.1 -10.25 -35.0 -18.15" fill="#333333" fill-rule="evenodd" stroke="none"/>
    <path d="M22.35 -45.5 L25.3 -42.9 28.25 -37.15 Q23.85 -39.2 19.35 -41.4 L21.7 -36.25 21.6 -36.05 15.95 -40.75 19.2 -38.75 17.0 -43.7 25.05 -40.85 22.35 -45.5 M6.85 -42.0 L5.95 -40.1 4.5 -37.7 2.55 -35.1 0.1 -32.9 1.45 -39.65 -6.55 -28.05 -5.2 -41.3 -13.6 -27.95 -12.5 -39.85 -21.15 -28.35 -21.05 -38.75 -22.65 -36.25 -19.25 -42.45 -20.05 -31.85 -10.9 -43.65 -11.8 -32.3 -4.15 -43.9 Q-4.3 -38.7 -4.6 -33.55 L2.15 -42.55 1.2 -35.35 6.85 -42.0" fill="#999999" fill-rule="evenodd" stroke="none"/>
    <path d="M18.45 -49.55 L18.35 -49.5 18.3 -49.5 18.45 -49.55" fill="#666666" fill-rule="evenodd" stroke="none"/>
    <path d="M16.4 -26.0 L20.9 -30.2 22.95 -27.05 Q22.8 -21.15 23.95 -15.45 24.5 -12.95 23.15 -10.85 16.95 -1.7 5.5 -1.8 L4.95 -1.8 -3.6 -2.95 Q-9.0 -3.3 -13.5 -5.0 -18.25 -3.4 -20.35 -8.7 -20.85 -10.05 -20.5 -11.4 -19.6 -15.35 -18.1 -19.25 L-19.7 -10.35 -19.15 -11.15 -17.65 -8.8 -16.0 -7.25 -15.1 -7.8 -16.75 -9.95 -16.3 -11.05 -17.25 -13.65 -16.1 -16.1 -15.0 -14.1 -15.45 -11.85 -1.25 -21.6 0.35 -21.3 -0.35 -20.05 Q-1.5 -15.9 -0.1 -11.5 L0.35 -11.4 Q3.8 -14.9 1.8 -20.5 L1.8 -20.6 1.55 -21.15 4.85 -20.6 5.6 -21.2 5.3 -22.65 -0.35 -22.5 8.85 -34.9 6.3 -17.6 Q10.55 -20.7 12.15 -25.65 14.25 -31.85 14.6 -38.3 L20.0 -31.3 12.25 -23.65 12.15 -23.75 11.15 -21.95 14.7 -24.65 14.95 -16.45 15.6 -16.0 16.95 -16.1 17.1 -16.35 Q18.55 -21.15 16.85 -25.7 L16.85 -25.8 16.4 -26.0 M21.5 -19.35 L20.1 -15.55 22.8 -16.35 21.0 -16.65 21.5 -19.35 M6.65 -6.45 Q6.2 -6.2 6.6 -5.9 10.8 -2.25 12.95 -6.75 L12.05 -5.75 Q9.1 -3.65 6.65 -6.45 M-6.3 -11.05 L-3.4 -9.35 -4.4 -10.35 Q-4.85 -10.85 -5.4 -10.85 L-7.0 -11.25 -6.85 -9.7 -11.05 -10.15 -5.95 -8.6 -6.3 -11.05" fill="#ffe3d5" fill-rule="evenodd" stroke="none"/>
    <path d="M16.4 -26.0 L16.85 -25.8 16.85 -25.7 16.85 -22.55 15.2 -21.95 15.15 -24.9 16.4 -26.0 M1.55 -21.15 L1.8 -20.6 1.8 -20.5 1.7 -18.45 Q1.45 -17.15 1.0 -16.8 0.55 -16.45 0.2 -17.15 -0.15 -18.0 -0.35 -20.05 L0.35 -21.3 1.55 -21.15" fill="#ffffff" fill-rule="evenodd" stroke="none"/>
    <path d="M-17.65 -8.8 L-19.15 -11.15 Q-18.35 -12.2 -17.65 -13.4 L-17.8 -10.05 -17.65 -8.8 M21.5 -19.35 L21.0 -16.65 22.8 -16.35 20.1 -15.55 21.5 -19.35 M-6.3 -11.05 L-5.95 -8.6 -11.05 -10.15 -6.85 -9.7 -7.0 -11.25 -5.4 -10.85 Q-4.85 -10.85 -4.4 -10.35 L-3.4 -9.35 -6.3 -11.05" fill="#edb192" fill-rule="evenodd" stroke="none"/>
  </g>
</svg>
