<?xml version="1.0" encoding="UTF-8" standalone="no"?>
<svg xmlns:ffdec="https://www.free-decompiler.com/flash" xmlns:xlink="http://www.w3.org/1999/xlink" ffdec:objectType="shape" height="56.5px" width="37.35px" xmlns="http://www.w3.org/2000/svg">
  <g transform="matrix(1.0, 0.0, 0.0, 1.0, 18.25, 61.1)">
    <path d="M11.95 -40.05 L11.95 -39.95 12.0 -39.9 12.0 -36.2 Q13.9 -36.95 14.7 -38.85 15.4 -40.65 14.35 -42.45 L13.8 -42.3 Q12.85 -41.7 12.3 -40.7 L11.95 -40.05 M12.45 -52.5 L14.15 -50.45 15.1 -48.45 15.2 -48.05 Q15.8 -45.55 14.75 -43.15 L15.7 -41.05 Q15.95 -40.0 15.7 -38.9 15.4 -37.8 14.8 -36.85 L13.75 -35.65 13.75 -35.6 13.75 -35.45 13.8 -35.25 13.8 -35.2 13.75 -35.1 13.7 -34.95 13.7 -34.9 12.9 -33.45 11.7 -32.15 10.5 -31.35 Q12.8 -29.4 13.9 -26.45 15.35 -22.45 15.2 -18.15 15.15 -17.25 14.5 -16.75 12.95 -15.35 10.9 -15.95 L10.45 -14.45 9.8 -14.2 Q10.9 -10.3 13.0 -7.1 13.35 -6.55 13.15 -5.85 L11.75 -5.0 9.0 -4.7 Q5.4 -4.65 2.1 -6.0 L1.7 -7.15 Q1.45 -8.3 1.75 -9.4 2.3 -11.75 1.85 -14.1 L1.9 -13.6 Q-0.05 -15.1 -1.75 -13.4 -1.75 -11.9 -1.4 -10.45 -0.8 -8.1 -2.05 -5.9 L-4.2 -5.3 -8.6 -4.7 Q-11.1 -4.3 -13.05 -5.85 -13.15 -7.4 -12.25 -8.5 L-11.15 -10.0 Q-10.0 -11.9 -9.85 -14.25 L-10.35 -14.45 -10.8 -15.95 -13.15 -15.8 Q-15.25 -16.85 -15.1 -19.25 -14.9 -22.35 -14.1 -25.1 -13.55 -27.05 -12.15 -28.75 L-10.75 -30.65 Q-10.2 -31.4 -10.4 -31.9 -11.45 -34.5 -13.65 -36.05 L-14.8 -37.2 Q-15.35 -38.0 -15.4 -38.9 -15.55 -40.4 -15.35 -41.9 L-15.25 -43.35 -14.95 -47.75 Q-14.85 -48.9 -14.35 -49.9 -13.8 -51.05 -12.9 -51.85 L-12.15 -52.5 12.45 -52.5 M5.7 -38.25 L4.1 -37.45 3.6 -43.0 5.05 -43.3 Q5.75 -40.85 5.7 -38.25 M10.95 -40.6 Q8.8 -44.0 5.85 -46.55 L2.9 -48.6 1.3 -49.55 -0.95 -43.8 -1.25 -42.55 -1.7 -42.7 -2.4 -44.25 -2.6 -47.1 -2.6 -47.15 -2.65 -47.1 -8.45 -42.5 -7.7 -44.85 -7.7 -44.95 -7.75 -44.9 -8.9 -43.85 Q-10.55 -42.05 -10.8 -39.7 -10.75 -36.75 -9.6 -34.0 -9.25 -33.2 -8.35 -32.65 -7.25 -32.05 -6.0 -31.85 L0.05 -31.35 5.8 -31.85 Q7.45 -32.15 8.95 -32.9 L10.3 -34.0 10.8 -34.8 Q11.25 -35.7 11.15 -36.8 L10.95 -40.6 M-2.95 -34.15 L-1.5 -33.65 Q1.4 -32.7 3.75 -34.6 L3.7 -34.0 2.85 -33.4 0.95 -32.55 -2.05 -33.2 Q-2.7 -33.4 -3.15 -33.95 -3.65 -34.65 -3.0 -34.2 L-3.0 -34.15 -2.95 -34.15 M3.7 -29.8 Q3.05 -26.9 0.55 -25.3 L-0.2 -25.3 Q-2.8 -27.15 -3.8 -30.2 L-4.75 -30.3 -2.75 -27.05 Q-1.65 -25.55 -0.35 -24.15 2.3 -25.35 4.1 -27.4 5.3 -28.75 5.55 -30.5 L4.4 -30.15 3.7 -29.8 M2.55 -28.45 L3.45 -30.05 -3.35 -30.15 -2.45 -28.5 -0.05 -25.65 2.55 -28.45 M9.4 -30.45 L9.15 -30.9 8.6 -31.15 5.9 -30.65 5.5 -29.0 Q3.55 -25.6 0.0 -23.8 L-1.05 -24.5 Q-3.35 -26.4 -4.8 -29.2 L-5.6 -30.6 -8.5 -31.15 -9.1 -30.8 -11.4 -28.2 -10.3 -25.95 Q-9.65 -24.7 -8.7 -23.75 L-7.85 -24.7 -7.6 -24.45 -7.55 -24.4 -7.6 -24.15 -7.7 -23.9 -7.85 -23.4 -7.75 -23.3 -2.55 -23.4 8.4 -23.1 7.6 -24.15 8.3 -24.7 8.8 -23.8 10.0 -25.05 11.75 -27.75 9.4 -30.45 M12.3 -25.3 L12.7 -26.2 12.0 -27.6 9.1 -23.4 9.8 -22.45 Q11.05 -23.05 11.8 -24.45 L12.3 -25.3 M12.65 -17.1 L13.65 -17.9 Q14.4 -18.5 14.25 -19.45 L13.65 -22.65 13.2 -25.2 11.5 -22.9 9.9 -21.6 11.0 -17.6 11.95 -18.75 11.5 -16.95 12.65 -17.1 M8.9 -21.95 L3.1 -22.5 3.05 -20.7 9.35 -20.95 8.9 -21.95 M8.2 -15.55 L9.95 -15.7 10.25 -16.25 9.7 -20.25 8.15 -20.15 1.35 -19.25 -1.85 -18.45 -2.1 -18.4 -2.7 -18.85 -2.7 -19.8 -7.6 -20.2 -9.5 -20.25 -9.85 -15.7 -7.65 -15.5 8.2 -15.55 M2.2 -22.8 L-2.05 -22.8 -2.05 -20.15 2.2 -20.15 2.2 -22.8 M1.1 -22.2 L1.1 -20.65 -1.3 -20.65 -1.3 -22.2 1.1 -22.2 M0.85 -21.05 L0.85 -21.9 -1.0 -21.9 -1.0 -21.05 0.85 -21.05 M8.9 -14.4 L3.1 -13.75 3.55 -10.85 7.25 -10.8 8.1 -9.7 9.0 -9.6 8.65 -10.7 9.75 -10.9 8.9 -14.4 M12.05 -7.7 L10.1 -10.35 9.3 -10.3 9.75 -9.25 7.75 -8.95 6.95 -10.2 3.25 -10.2 2.35 -8.05 3.2 -6.45 Q6.1 -5.1 9.15 -6.0 L11.15 -6.85 12.1 -7.6 12.05 -7.7 M-12.9 -50.45 L-12.95 -50.4 -12.9 -50.4 -12.9 -50.45 M-1.25 -44.5 L-1.4 -44.55 -1.3 -44.5 -1.25 -44.5 M-5.5 -38.25 L-5.35 -42.5 -4.75 -43.35 -3.5 -43.0 -3.95 -37.75 -5.5 -38.25 M-14.25 -42.45 Q-15.05 -41.2 -14.75 -39.75 -14.25 -37.3 -12.0 -36.25 -11.2 -38.1 -11.8 -40.05 -12.35 -41.9 -14.25 -42.45 M-11.65 -27.9 L-12.55 -26.2 -12.15 -25.15 Q-11.5 -23.45 -9.6 -22.6 L-8.9 -23.5 -9.65 -24.15 Q-11.15 -25.65 -11.65 -27.9 M-2.95 -20.7 L-3.0 -22.5 -7.9 -22.05 -8.3 -22.25 -8.8 -21.95 -9.2 -20.95 -2.95 -20.7 M-8.75 -14.4 L-9.6 -10.9 -8.55 -10.7 -8.9 -9.6 -7.95 -9.65 -7.15 -10.8 -3.45 -10.85 -2.95 -13.75 -6.1 -14.35 -8.75 -14.4 M-11.95 -17.0 L-11.35 -16.95 -11.7 -18.8 -10.95 -17.6 -9.8 -21.5 -13.05 -25.2 -14.15 -19.75 Q-14.3 -19.0 -13.85 -18.3 -13.2 -17.25 -11.95 -17.0 M-2.2 -8.1 L-3.15 -10.2 -6.85 -10.2 -7.65 -8.95 -9.6 -9.25 -9.2 -10.3 -10.0 -10.35 -12.15 -7.35 Q-11.4 -6.0 -10.0 -6.35 -6.4 -5.7 -3.05 -6.45 L-2.2 -8.1" fill="#000000" fill-rule="evenodd" stroke="none"/>
    <path d="M11.95 -40.05 L12.3 -40.7 Q12.85 -41.7 13.8 -42.3 L14.35 -42.45 Q15.4 -40.65 14.7 -38.85 13.9 -36.95 12.0 -36.2 L12.0 -39.9 11.95 -40.05 M-0.95 -43.8 L1.3 -49.55 2.9 -48.6 5.85 -46.55 Q8.8 -44.0 10.95 -40.6 L5.45 -45.35 Q3.75 -46.9 1.65 -47.55 L-0.95 -43.8 M-10.8 -39.7 Q-10.55 -42.05 -8.9 -43.85 L-7.75 -44.9 -7.7 -44.85 -8.45 -42.5 -2.65 -47.1 -2.6 -47.15 -2.6 -47.1 -2.4 -44.25 -3.45 -45.75 -10.8 -39.7 M-2.45 -28.5 L-3.35 -30.15 3.45 -30.05 2.55 -28.45 -2.45 -28.5 M11.5 -22.9 L13.0 -18.55 12.65 -17.1 11.5 -16.95 11.95 -18.75 11.0 -17.6 9.9 -21.6 11.5 -22.9 M8.9 -14.4 L9.75 -10.9 8.65 -10.7 9.0 -9.6 8.1 -9.7 7.25 -10.8 3.55 -10.85 3.1 -13.75 8.9 -14.4 M-14.25 -42.45 Q-12.35 -41.9 -11.8 -40.05 -11.2 -38.1 -12.0 -36.25 -14.25 -37.3 -14.75 -39.75 -15.05 -41.2 -14.25 -42.45 M-8.75 -14.4 L-6.1 -14.35 -2.95 -13.75 -3.45 -10.85 -7.15 -10.8 -7.95 -9.65 -8.9 -9.6 -8.55 -10.7 -9.6 -10.9 -8.75 -14.4" fill="#f2bb86" fill-rule="evenodd" stroke="none"/>
    <path d="M5.7 -38.25 Q5.75 -40.85 5.05 -43.3 L3.6 -43.0 4.1 -37.45 5.7 -38.25 M8.9 -37.8 L7.85 -35.7 10.3 -36.2 8.75 -36.3 9.2 -37.25 8.9 -37.8 M10.95 -40.6 L11.15 -36.8 Q11.25 -35.7 10.8 -34.8 L10.3 -34.0 8.95 -32.9 Q7.45 -32.15 5.8 -31.85 L0.05 -31.35 -6.0 -31.85 Q-7.25 -32.05 -8.35 -32.65 -9.25 -33.2 -9.6 -34.0 -10.75 -36.75 -10.8 -39.7 L-3.45 -45.75 -2.4 -44.25 -1.7 -42.7 -1.25 -42.55 -0.95 -43.8 1.65 -47.55 Q3.75 -46.9 5.45 -45.35 L10.95 -40.6 M-3.0 -34.2 Q-3.65 -34.65 -3.15 -33.95 -2.7 -33.4 -2.05 -33.2 L0.95 -32.55 2.85 -33.4 3.7 -34.0 3.75 -34.6 Q1.4 -32.7 -1.5 -33.65 L-2.95 -34.15 -3.0 -34.2 M-2.45 -28.5 L2.55 -28.45 -0.05 -25.65 -2.45 -28.5 M11.5 -22.9 L13.2 -25.2 13.65 -22.65 14.25 -19.45 Q14.4 -18.5 13.65 -17.9 L12.65 -17.1 13.0 -18.55 11.5 -22.9 M-5.5 -38.25 L-3.95 -37.75 -3.5 -43.0 -4.75 -43.35 -5.35 -42.5 -5.5 -38.25 M-9.3 -35.6 L-8.8 -35.85 -10.2 -36.45 -10.05 -36.05 -9.3 -35.6 M-7.7 -36.45 L-9.05 -37.8 -8.7 -36.9 -7.7 -36.45 M-11.95 -17.0 Q-13.2 -17.25 -13.85 -18.3 -14.3 -19.0 -14.15 -19.75 L-13.05 -25.2 -9.8 -21.5 -10.95 -17.6 -11.7 -18.8 -11.35 -16.95 -11.95 -17.0" fill="#f8dab6" fill-rule="evenodd" stroke="none"/>
    <path d="M8.9 -37.8 L9.2 -37.25 8.75 -36.3 10.3 -36.2 7.85 -35.7 8.9 -37.8 M-7.7 -36.45 L-8.7 -36.9 -9.05 -37.8 -7.7 -36.45 M-9.3 -35.6 L-10.05 -36.05 -10.2 -36.45 -8.8 -35.85 -9.3 -35.6" fill="#e88b2f" fill-rule="evenodd" stroke="none"/>
    <path d="M3.7 -29.8 L4.4 -30.15 5.55 -30.5 Q5.3 -28.75 4.1 -27.4 2.3 -25.35 -0.35 -24.15 -1.65 -25.55 -2.75 -27.05 L-4.75 -30.3 -3.8 -30.2 Q-2.8 -27.15 -0.2 -25.3 L0.55 -25.3 Q3.05 -26.9 3.7 -29.8 M12.3 -25.3 L11.8 -24.45 Q11.05 -23.05 9.8 -22.45 L9.1 -23.4 12.0 -27.6 12.7 -26.2 12.3 -25.3 M-11.65 -27.9 Q-11.15 -25.65 -9.65 -24.15 L-8.9 -23.5 -9.6 -22.6 Q-11.5 -23.45 -12.15 -25.15 L-12.55 -26.2 -11.65 -27.9" fill="#c6c502" fill-rule="evenodd" stroke="none"/>
    <path d="M5.5 -29.0 L5.9 -30.65 8.6 -31.15 9.15 -30.9 9.4 -30.45 5.5 -29.0 M-9.1 -30.8 L-8.5 -31.15 -5.6 -30.6 -4.8 -29.2 -9.1 -30.8 M8.15 -20.15 L9.7 -20.25 10.25 -16.25 9.95 -15.7 8.2 -15.55 8.15 -20.15 M-7.65 -15.5 L-9.85 -15.7 -9.5 -20.25 -7.6 -20.2 -7.65 -15.5" fill="#ced17c" fill-rule="evenodd" stroke="none"/>
    <path d="M5.5 -29.0 L9.4 -30.45 11.75 -27.75 10.0 -25.05 8.8 -23.8 8.3 -24.7 7.6 -24.15 8.4 -23.1 -2.55 -23.4 -7.75 -23.3 -7.85 -23.4 -7.7 -23.9 -7.6 -24.15 -7.55 -24.4 -7.6 -24.45 -7.85 -24.7 -8.7 -23.75 Q-9.65 -24.7 -10.3 -25.95 L-11.4 -28.2 -9.1 -30.8 -4.8 -29.2 Q-3.35 -26.4 -1.05 -24.5 L0.0 -23.8 Q3.55 -25.6 5.5 -29.0 M8.2 -15.55 L-7.65 -15.5 -7.6 -20.2 -2.7 -19.8 -2.7 -18.85 -2.1 -18.4 -1.85 -18.45 1.35 -19.25 8.15 -20.15 8.2 -15.55" fill="#fefd98" fill-rule="evenodd" stroke="none"/>
    <path d="M8.9 -21.95 L9.35 -20.95 3.05 -20.7 3.1 -22.5 8.9 -21.95 M0.85 -21.05 L-1.0 -21.05 -1.0 -21.9 0.85 -21.9 0.85 -21.05 M2.35 -8.05 L3.25 -10.2 6.95 -10.2 7.75 -8.95 9.75 -9.25 9.3 -10.3 10.1 -10.35 12.05 -7.7 10.9 -7.0 6.7 -7.25 2.35 -8.05 M-2.95 -20.7 L-9.2 -20.95 -8.8 -21.95 -8.3 -22.25 -7.9 -22.05 -3.0 -22.5 -2.95 -20.7 M-12.15 -7.35 L-10.0 -10.35 -9.2 -10.3 -9.6 -9.25 -7.65 -8.95 -6.85 -10.2 -3.15 -10.2 -2.2 -8.1 -6.0 -7.6 -12.15 -7.35" fill="#7d6d4a" fill-rule="evenodd" stroke="none"/>
    <path d="M2.2 -22.8 L2.2 -20.15 -2.05 -20.15 -2.05 -22.8 2.2 -22.8 M1.1 -22.2 L-1.3 -22.2 -1.3 -20.65 1.1 -20.65 1.1 -22.2" fill="#888702" fill-rule="evenodd" stroke="none"/>
    <path d="M12.05 -7.7 L12.1 -7.6 11.15 -6.85 9.15 -6.0 Q6.1 -5.1 3.2 -6.45 L2.35 -8.05 6.7 -7.25 10.9 -7.0 12.05 -7.7 M-2.2 -8.1 L-3.05 -6.45 Q-6.4 -5.7 -10.0 -6.35 -11.4 -6.0 -12.15 -7.35 L-6.0 -7.6 -2.2 -8.1" fill="#4b402e" fill-rule="evenodd" stroke="none"/>
    <path d="M18.35 -39.5 L18.4 -38.65 Q18.5 -37.55 17.9 -36.75 L16.95 -35.65 14.3 -33.35 Q13.6 -32.7 12.85 -32.55 12.35 -32.3 12.15 -32.55 L12.2 -32.7 12.85 -33.75 13.4 -35.25 13.35 -36.55 12.75 -38.05 8.55 -43.6 15.05 -37.75 15.35 -36.4 18.35 -39.5 M-3.45 -48.3 L-3.5 -48.25 -3.5 -48.3 -3.45 -48.3 M-3.75 -48.0 L-7.05 -43.75 Q-8.6 -41.55 -10.65 -39.25 -12.6 -37.1 -12.75 -34.4 L-11.2 -32.7 -11.4 -31.9 -12.2 -32.45 -13.05 -33.2 -16.1 -36.75 Q-17.0 -38.1 -16.8 -39.95 L-13.6 -37.0 -13.0 -37.75 -9.45 -42.1 Q-6.7 -45.25 -3.75 -48.0 M2.3 -12.05 Q1.8 -12.3 1.75 -13.0 L1.4 -17.55 1.25 -16.75 1.1 -27.4 2.2 -27.65 4.0 -24.45 3.35 -24.1 2.3 -12.05 M10.5 -17.55 L10.4 -17.7 Q5.35 -21.8 2.55 -27.55 L6.65 -27.55 9.65 -27.1 6.55 -28.0 Q7.75 -28.2 8.85 -28.75 10.4 -29.3 11.8 -30.15 L12.8 -29.1 10.0 -27.4 Q9.7 -27.35 10.05 -26.75 L5.1 -27.05 6.1 -25.15 7.8 -21.85 9.3 -19.55 10.45 -18.35 Q11.05 -17.85 10.5 -17.55 M7.3 -28.75 L6.15 -28.5 5.2 -28.4 -6.45 -28.75 -7.55 -29.1 -8.8 -29.6 -10.3 -30.75 -10.3 -31.3 -8.45 -30.8 -8.35 -30.8 -8.85 -31.2 Q-9.95 -31.6 -10.35 -32.2 L-10.4 -32.4 -10.1 -32.65 -1.85 -30.85 Q1.75 -30.1 5.7 -30.95 L-4.05 -31.55 11.65 -32.2 9.65 -31.0 7.85 -30.45 10.95 -30.95 11.4 -31.15 11.6 -31.05 Q11.45 -30.4 10.9 -30.2 L10.4 -29.85 8.85 -29.2 7.4 -28.75 7.3 -28.75 M0.95 -20.15 L0.9 -20.15 0.9 -20.3 0.8 -20.4 0.75 -20.45 0.7 -20.65 0.7 -20.85 0.7 -21.1 0.6 -22.2 0.4 -23.45 0.35 -23.7 0.35 -23.75 0.3 -23.8 0.25 -24.05 0.2 -24.3 0.1 -24.55 0.1 -24.65 0.0 -24.95 -0.1 -25.45 -0.2 -25.6 -0.2 -25.7 -0.2 -25.85 -0.25 -26.0 -0.35 -26.15 -0.3 -26.5 -0.25 -26.7 -0.2 -26.85 -0.15 -26.95 -0.1 -27.5 Q0.0 -27.95 0.7 -27.65 L0.95 -23.5 0.95 -21.45 0.95 -20.15 M-5.25 -17.25 L-5.5 -17.0 -5.9 -16.55 -6.05 -16.45 -6.25 -16.35 -6.3 -16.3 -6.4 -16.2 -6.5 -16.15 -6.8 -16.25 Q-7.1 -16.35 -7.0 -16.55 L-6.2 -18.2 Q-4.2 -21.7 -2.95 -25.6 L-6.95 -25.7 -0.65 -27.35 -1.05 -25.5 -1.5 -24.05 Q-3.35 -19.6 -6.5 -16.15 L-5.25 -17.25 M-7.05 -25.7 L-8.0 -25.75 -5.9 -26.9 Q-8.2 -27.3 -10.15 -28.15 -11.15 -28.5 -11.8 -29.45 L-10.75 -30.4 -7.2 -28.7 Q-4.3 -27.6 -1.05 -27.65 L-7.05 -25.7 M-10.95 -43.15 L-10.8 -43.65 Q-8.7 -48.4 -5.25 -52.45 L-8.3 -51.75 -7.4 -52.55 -1.5 -54.95 -8.1 -47.15 -8.2 -47.0 -10.95 -43.15" fill="#d36556" fill-rule="evenodd" stroke="none"/>
    <path d="M-16.8 -39.95 L-16.8 -40.1 -15.65 -47.35 -15.45 -48.15 Q-14.7 -50.0 -13.45 -51.7 L-11.6 -53.6 Q-6.15 -58.3 0.5 -60.65 L1.6 -60.6 3.45 -60.1 Q6.25 -59.2 8.75 -57.65 11.9 -55.85 14.25 -53.15 16.65 -50.3 17.5 -46.55 18.05 -44.1 18.2 -41.6 L18.35 -39.5 15.35 -36.4 15.05 -37.75 8.55 -43.6 7.35 -45.35 5.8 -47.45 Q4.05 -49.7 1.7 -51.4 L0.85 -51.75 0.75 -51.7 0.45 -51.5 -0.85 -50.85 -3.45 -48.3 -3.5 -48.3 -3.5 -48.25 -3.75 -48.0 Q-6.7 -45.25 -9.45 -42.1 L-13.0 -37.75 -13.6 -37.0 -16.8 -39.95 M4.0 -24.45 L6.3 -21.05 Q7.75 -19.1 9.95 -17.65 L10.45 -17.45 10.5 -17.55 Q11.05 -17.85 10.45 -18.35 L9.3 -19.55 7.8 -21.85 6.1 -25.15 5.1 -27.05 10.05 -26.75 Q9.7 -27.35 10.0 -27.4 L12.8 -29.1 12.85 -29.05 13.15 -28.65 13.5 -28.05 14.35 -26.35 14.7 -25.4 16.7 -18.9 Q17.45 -16.45 18.45 -13.95 L18.45 -13.9 Q18.65 -13.5 18.2 -13.5 L18.1 -13.4 4.35 -12.15 3.3 -12.05 2.3 -12.05 3.35 -24.1 4.0 -24.45 M-0.35 -26.15 L-0.25 -26.0 -0.2 -25.85 -0.2 -25.7 -0.2 -25.6 -0.1 -25.45 0.0 -24.95 0.1 -24.65 0.1 -24.55 0.2 -24.3 0.25 -24.05 0.3 -23.8 0.35 -23.75 0.35 -23.7 0.4 -23.45 0.6 -22.2 0.7 -21.1 0.7 -20.85 0.7 -20.65 0.75 -20.45 0.8 -20.4 0.9 -20.3 0.9 -20.15 0.95 -20.15 Q0.85 -16.95 0.25 -13.7 L0.05 -12.5 Q-4.65 -12.05 -9.55 -12.3 -13.45 -12.5 -17.6 -13.4 L-17.6 -13.45 Q-16.75 -15.25 -16.25 -17.25 L-15.5 -20.5 -15.0 -22.85 -14.95 -23.05 -14.75 -23.75 Q-14.15 -26.1 -12.9 -28.05 L-11.8 -29.45 Q-11.15 -28.5 -10.15 -28.15 -8.2 -27.3 -5.9 -26.9 L-8.0 -25.75 -7.05 -25.7 -7.45 -25.6 -6.95 -25.7 -2.95 -25.6 Q-4.2 -21.7 -6.2 -18.2 L-7.0 -16.55 Q-7.1 -16.35 -6.8 -16.25 L-6.5 -16.15 -6.4 -16.2 -6.3 -16.3 -6.25 -16.35 -6.05 -16.45 -5.9 -16.55 -5.5 -17.0 -5.25 -17.25 Q-2.4 -20.1 -0.9 -24.0 -0.45 -25.1 -0.35 -26.15 M-7.4 -52.55 L-8.3 -51.75 -5.25 -52.45 Q-8.7 -48.4 -10.8 -43.65 L-10.95 -43.15 -11.6 -41.8 -11.5 -41.9 -9.15 -45.2 Q-5.65 -49.95 -1.55 -54.1 L-1.0 -54.75 -0.85 -55.0 -0.8 -55.05 -0.8 -55.1 Q-2.5 -55.15 -4.0 -54.35 -5.75 -53.55 -7.4 -52.55 M-8.2 -47.0 L-8.1 -47.15 -8.15 -47.05 -8.2 -47.0" fill="#dc9378" fill-rule="evenodd" stroke="none"/>
    <path d="M6.1 -59.5 L6.7 -59.15 Q9.6 -57.75 12.2 -55.7 L12.75 -55.25 15.45 -52.45 Q16.75 -50.9 17.4 -49.0 19.35 -43.4 19.0 -37.35 L18.85 -37.1 18.6 -36.7 14.8 -33.2 14.7 -33.05 14.1 -32.4 Q13.2 -31.45 12.2 -31.05 L12.2 -30.9 12.65 -30.25 13.55 -29.05 14.7 -26.65 15.85 -22.95 17.55 -17.3 18.55 -14.75 19.05 -13.3 19.1 -13.2 18.75 -13.05 18.3 -12.95 Q9.95 -11.4 1.6 -11.65 L1.0 -13.7 0.45 -11.7 -8.2 -11.8 Q-13.4 -11.85 -18.25 -13.45 L-18.25 -13.5 -18.2 -13.55 -17.9 -13.95 Q-16.55 -16.85 -16.2 -20.1 L-16.1 -20.6 Q-15.05 -24.75 -13.05 -28.55 L-12.0 -30.15 -11.45 -31.0 -17.25 -36.35 -17.45 -37.7 Q-17.65 -41.0 -17.1 -44.25 L-16.65 -47.75 -16.4 -48.45 -14.85 -50.9 -14.6 -51.2 -13.55 -52.5 -13.35 -52.7 Q-11.45 -54.85 -9.2 -56.4 -6.65 -58.05 -3.95 -59.4 -1.25 -60.75 1.55 -61.05 L3.15 -60.8 6.1 -59.5 M18.35 -39.5 L18.2 -41.6 Q18.05 -44.1 17.5 -46.55 16.65 -50.3 14.25 -53.15 11.9 -55.85 8.75 -57.65 6.25 -59.2 3.45 -60.1 L1.6 -60.6 0.5 -60.65 Q-6.15 -58.3 -11.6 -53.6 L-13.45 -51.7 Q-14.7 -50.0 -15.45 -48.15 L-15.65 -47.35 -16.8 -40.1 -16.8 -39.95 Q-17.0 -38.1 -16.1 -36.75 L-13.05 -33.2 -12.2 -32.45 -11.4 -31.9 -11.2 -32.7 -12.75 -34.4 Q-12.6 -37.1 -10.65 -39.25 -8.6 -41.55 -7.05 -43.75 L-3.75 -48.0 -3.5 -48.25 -3.45 -48.3 -0.85 -50.85 0.45 -51.5 0.75 -51.7 0.85 -51.75 1.7 -51.4 Q4.05 -49.7 5.8 -47.45 L7.35 -45.35 8.55 -43.6 12.75 -38.05 13.35 -36.55 13.4 -35.25 12.85 -33.75 12.2 -32.7 12.15 -32.55 Q12.35 -32.3 12.85 -32.55 13.6 -32.7 14.3 -33.35 L16.95 -35.65 17.9 -36.75 Q18.5 -37.55 18.4 -38.65 L18.35 -39.5 M2.35 -50.5 L1.35 -51.2 0.9 -51.2 Q-1.25 -50.0 -2.75 -48.15 L-6.65 -43.45 -11.05 -37.75 -11.4 -37.2 Q-11.9 -36.3 -11.9 -35.5 -11.85 -34.0 -10.5 -33.25 L-10.45 -33.1 -8.45 -32.45 Q-5.6 -31.65 -2.45 -31.95 L0.25 -31.95 0.4 -31.95 10.7 -32.85 11.25 -33.05 Q12.2 -33.35 12.45 -34.3 L12.85 -35.65 Q13.1 -36.5 12.7 -37.1 L11.8 -38.25 9.9 -40.65 5.4 -47.05 3.9 -48.95 2.35 -50.5 M4.0 -24.45 L2.2 -27.65 1.1 -27.4 1.25 -16.75 1.4 -17.55 1.75 -13.0 Q1.8 -12.3 2.3 -12.05 L3.3 -12.05 4.35 -12.15 18.1 -13.4 18.2 -13.5 Q18.65 -13.5 18.45 -13.9 L18.45 -13.95 Q17.45 -16.45 16.7 -18.9 L14.7 -25.4 14.35 -26.35 13.5 -28.05 13.15 -28.65 12.85 -29.05 12.8 -29.1 11.8 -30.15 Q10.4 -29.3 8.85 -28.75 7.75 -28.2 6.55 -28.0 L9.65 -27.1 6.65 -27.55 2.55 -27.55 Q5.35 -21.8 10.4 -17.7 L10.5 -17.55 10.45 -17.45 9.95 -17.65 Q7.75 -19.1 6.3 -21.05 L4.0 -24.45 M7.3 -28.75 L7.4 -28.75 8.85 -29.2 10.4 -29.85 10.9 -30.2 Q11.45 -30.4 11.6 -31.05 L11.4 -31.15 10.95 -30.95 7.85 -30.45 9.65 -31.0 11.65 -32.2 -4.05 -31.55 5.7 -30.95 Q1.75 -30.1 -1.85 -30.85 L-10.1 -32.65 -10.4 -32.4 -10.35 -32.2 Q-9.95 -31.6 -8.85 -31.2 L-8.35 -30.8 -8.45 -30.8 -10.3 -31.3 -10.3 -30.75 -8.8 -29.6 -7.55 -29.1 -6.45 -28.75 5.2 -28.4 6.15 -28.5 7.3 -28.75 M-0.35 -26.15 Q-0.45 -25.1 -0.9 -24.0 -2.4 -20.1 -5.25 -17.25 L-6.5 -16.15 Q-3.35 -19.6 -1.5 -24.05 L-1.05 -25.5 -0.65 -27.35 -6.95 -25.7 -7.45 -25.6 -7.05 -25.7 -1.05 -27.65 Q-4.3 -27.6 -7.2 -28.7 L-10.75 -30.4 -11.8 -29.45 -12.9 -28.05 Q-14.15 -26.1 -14.75 -23.75 L-14.95 -23.05 -15.0 -22.85 -15.5 -20.5 -16.25 -17.25 Q-16.75 -15.25 -17.6 -13.45 L-17.6 -13.4 Q-13.45 -12.5 -9.55 -12.3 -4.65 -12.05 0.05 -12.5 L0.25 -13.7 Q0.85 -16.95 0.95 -20.15 L0.95 -21.45 0.95 -23.5 0.7 -27.65 Q0.0 -27.95 -0.1 -27.5 L-0.15 -26.95 -0.2 -26.85 -0.25 -26.7 -0.3 -26.5 -0.35 -26.15 M-10.95 -43.15 L-8.2 -47.0 -8.15 -47.05 -8.1 -47.15 -1.5 -54.95 -7.4 -52.55 Q-5.75 -53.55 -4.0 -54.35 -2.5 -55.15 -0.8 -55.1 L-0.8 -55.05 -0.85 -55.0 -1.0 -54.75 -1.55 -54.1 Q-5.65 -49.95 -9.15 -45.2 L-11.5 -41.9 -11.6 -41.8 -10.95 -43.15" fill="#000000" fill-rule="evenodd" stroke="none"/>
  </g>
</svg>
