<?xml version="1.0" encoding="UTF-8" standalone="no"?>
<svg xmlns:ffdec="https://www.free-decompiler.com/flash" xmlns:xlink="http://www.w3.org/1999/xlink" ffdec:objectType="shape" height="48.55px" width="30.6px" xmlns="http://www.w3.org/2000/svg">
  <g transform="matrix(1.0, 0.0, 0.0, 1.0, 15.6, 52.7)">
    <path d="M-8.2 -29.25 L-8.35 -29.5 -8.45 -29.9 -8.2 -29.25 M-8.5 -30.0 L-9.15 -29.75 -9.15 -29.8 -8.5 -30.0 M-9.6 -29.6 L-11.05 -29.1 -9.6 -29.65 -9.6 -29.6 M14.7 -43.3 L14.7 -42.4 14.7 -43.3 M14.7 -41.5 L14.65 -40.3 14.65 -41.5 14.7 -41.5 M-2.7 -38.35 L-3.5 -38.65 -3.45 -38.65 -2.7 -38.35 M-6.0 -30.95 L-5.9 -30.5 -5.85 -30.15 -6.0 -30.95" fill="#000000" fill-rule="evenodd" stroke="none"/>
    <path d="M-1.95 -49.6 L-3.8 -50.55 0.7 -52.0 2.0 -52.25 3.35 -52.3 5.65 -50.9 5.6 -49.4 5.55 -49.5 Q5.35 -47.6 4.15 -46.25 L4.2 -45.2 0.65 -43.95 0.55 -47.3 0.35 -45.65 0.25 -47.45 0.25 -38.95 0.0 -38.5 0.15 -38.5 0.35 -33.6 -0.7 -33.1 0.35 -33.15 0.5 -32.5 0.65 -33.25 3.15 -33.9 3.5 -34.4 0.65 -33.7 0.7 -38.7 2.55 -39.55 1.9 -39.65 0.7 -39.2 0.65 -43.65 4.25 -44.85 4.4 -43.0 4.5 -43.15 4.65 -43.15 4.95 -42.9 5.75 -42.85 5.85 -38.7 4.65 -36.1 4.55 -39.25 4.65 -40.8 Q4.8 -41.85 4.2 -42.6 L3.6 -43.1 3.35 -40.75 3.35 -40.5 3.95 -33.35 4.15 -27.15 4.5 -30.95 4.75 -34.3 5.2 -36.05 5.85 -37.55 6.3 -24.4 6.2 -24.55 5.5 -22.65 4.95 -26.15 4.8 -23.85 5.0 -21.7 5.0 -21.5 Q5.35 -18.65 6.4 -15.9 L6.7 -15.7 6.85 -12.1 6.55 -11.65 6.05 -11.5 Q5.1 -9.8 4.95 -8.0 3.45 -7.0 1.8 -7.4 L1.15 -7.25 Q1.65 -8.55 1.6 -10.45 L1.15 -12.35 0.95 -13.05 Q0.8 -15.35 0.8 -17.65 L5.35 -19.2 4.95 -19.2 0.8 -17.9 0.9 -22.05 4.8 -23.85 1.15 -22.7 1.05 -24.9 0.75 -22.5 -0.7 -21.8 0.45 -21.75 Q0.95 -20.65 0.55 -17.8 L-0.5 -17.35 0.55 -17.6 Q0.95 -14.5 -0.35 -11.75 L-0.95 -10.05 -0.4 -9.85 -0.3 -7.3 -0.85 -6.35 -1.6 -31.9 -0.6 -34.65 -1.1 -35.3 -1.5 -36.5 -1.45 -37.3 -1.15 -48.3 3.9 -50.25 Q4.2 -50.9 3.3 -51.1 1.65 -50.1 -0.15 -50.1 L-1.95 -49.6 M6.9 -11.3 L6.9 -11.2 6.85 -11.2 6.9 -11.3 M-1.75 -32.05 L-1.7 -16.9 -1.8 -16.9 -2.5 -15.1 -3.15 -13.75 -3.8 -12.75 -5.85 -13.35 -3.85 -12.25 Q-3.65 -10.0 -3.75 -7.45 L-3.9 -7.05 -4.4 -7.65 -4.75 -7.95 -6.45 -8.1 -6.6 -8.65 -6.65 -8.7 -6.8 -8.75 -6.9 -8.75 -6.9 -8.7 -6.6 -15.15 Q-6.2 -14.7 -5.8 -15.35 L-5.55 -15.5 -5.7 -18.7 Q-5.85 -20.1 -6.3 -21.5 L-6.1 -25.9 Q-5.65 -23.75 -5.6 -21.65 -5.6 -20.6 -4.75 -20.2 L-3.7 -20.0 -2.6 -26.3 -2.65 -28.5 -2.55 -31.85 -2.45 -33.15 Q-2.15 -33.15 -1.95 -32.8 L-1.75 -32.05 M-1.7 -15.8 L-1.7 -15.75 -1.75 -15.75 -1.7 -15.8 M-6.95 -7.85 L-6.95 -7.9 -6.95 -7.85 M-6.1 -26.35 L-6.1 -26.4 -6.05 -26.4 -6.1 -26.35 M-4.4 -26.25 Q-6.7 -26.5 -7.85 -28.55 L-8.2 -29.25 -8.45 -29.9 -8.5 -30.0 -9.15 -29.8 -9.3 -29.95 -11.2 -30.6 -12.1 -30.3 -12.15 -30.35 -12.2 -30.45 -12.3 -30.45 -12.55 -33.55 -12.6 -30.65 -13.0 -31.85 -14.45 -32.3 -14.7 -31.25 -15.2 -31.0 -15.45 -34.15 -15.0 -34.8 -13.3 -34.4 -14.8 -35.15 -10.6 -36.8 -8.5 -35.95 -9.9 -35.25 -8.35 -35.7 -8.35 -35.75 -8.15 -37.25 -7.95 -38.75 -7.95 -39.1 -7.95 -39.2 -8.6 -36.2 -9.85 -36.75 -9.85 -36.8 -9.45 -40.15 -9.45 -39.25 -8.75 -39.2 Q-7.8 -40.45 -7.4 -42.1 -7.25 -42.6 -7.25 -43.25 L-7.35 -43.4 Q-6.45 -44.55 -5.05 -45.15 L-4.15 -45.6 -2.85 -45.1 -4.4 -43.9 Q-3.45 -44.5 -2.3 -44.65 L-2.5 -43.75 Q-3.85 -42.85 -4.8 -41.55 L-4.85 -41.5 -5.0 -41.35 -5.05 -41.25 -5.05 -41.15 -4.8 -39.1 -4.85 -39.1 -4.85 -39.05 -5.4 -38.9 -5.2 -40.85 -5.7 -40.0 -6.0 -39.25 -6.15 -38.7 -6.7 -36.25 -2.6 -37.6 -6.0 -36.65 -4.9 -37.2 Q-4.85 -37.9 -5.4 -38.25 L-5.65 -38.4 -4.75 -38.8 -2.7 -38.35 -3.45 -38.65 -2.35 -43.15 -2.2 -45.25 -4.15 -45.9 -4.95 -45.7 -4.7 -49.85 -2.2 -49.45 -1.95 -48.85 -1.5 -48.7 -1.55 -37.25 -2.45 -34.75 -2.45 -36.85 -2.5 -34.65 -3.85 -34.35 -4.0 -34.25 -4.6 -33.6 Q-4.5 -32.4 -5.0 -31.55 L-4.95 -31.35 -6.0 -30.95 -5.85 -30.15 -4.3 -28.75 -3.95 -28.6 -3.0 -28.45 Q-2.9 -27.7 -2.95 -26.95 L-3.05 -26.45 -4.4 -26.25 M10.65 -36.75 L10.45 -36.65 Q10.5 -34.05 9.0 -31.65 7.9 -30.0 6.3 -28.9 L6.4 -32.15 Q7.55 -33.5 8.0 -35.25 L7.95 -35.65 7.95 -35.8 6.25 -35.25 6.2 -37.4 Q6.65 -37.4 7.2 -37.75 L10.8 -39.6 12.0 -40.1 12.3 -37.6 10.65 -36.75 M6.8 -41.1 L8.35 -41.85 Q8.0 -43.05 7.05 -43.75 L6.1 -44.35 6.0 -46.55 7.25 -46.15 7.3 -46.15 Q8.9 -45.35 9.6 -43.7 L10.2 -42.4 11.15 -42.7 10.85 -41.75 11.95 -41.0 11.85 -40.25 7.35 -38.35 7.8 -40.6 6.8 -41.1 M14.65 -40.3 L14.6 -38.7 12.35 -37.6 12.35 -40.8 13.4 -40.45 14.25 -40.9 14.5 -41.35 14.65 -41.5 14.65 -40.3 M12.0 -44.9 L12.3 -44.8 14.3 -43.95 10.2 -42.55 9.75 -44.1 10.1 -44.2 12.0 -44.9 M9.15 -36.05 Q8.9 -36.05 8.7 -35.75 L8.5 -35.1 8.7 -34.4 Q8.9 -34.15 9.15 -34.15 L9.6 -34.4 9.8 -35.1 9.6 -35.75 9.15 -36.05 M2.25 -16.05 Q1.9 -14.55 2.15 -12.9 L2.3 -12.75 Q3.2 -14.1 2.25 -15.7 L2.25 -16.05 M-12.65 -30.45 L-12.6 -30.4 -12.65 -30.4 -12.65 -30.45 M-8.9 -34.95 L-8.65 -31.85 -10.95 -30.85 -8.6 -31.45 -8.4 -30.35 -8.45 -31.5 Q-6.55 -31.4 -5.3 -32.9 L-8.45 -31.95 -8.5 -35.15 Q-8.9 -35.25 -8.9 -34.95" fill="#cccccc" fill-rule="evenodd" stroke="none"/>
    <path d="M-6.1 -25.9 L-6.1 -26.35 -6.05 -26.4 -5.45 -26.2 -5.25 -26.25 -4.4 -26.25 -3.05 -26.45 -3.15 -26.3 -3.3 -26.25 -2.6 -26.3 -3.7 -20.0 -4.75 -20.2 Q-5.6 -20.6 -5.6 -21.65 -5.65 -23.75 -6.1 -25.9 M-4.8 -41.55 L-3.4 -42.65 -2.45 -43.1 -2.35 -43.15 -3.45 -38.65 -3.5 -38.65 -4.65 -39.1 -4.85 -39.05 -4.85 -39.1 -4.8 -39.1 -5.05 -41.15 -5.05 -41.25 -5.0 -41.35 -4.85 -41.5 -4.8 -41.55 M6.1 -44.2 L7.95 -42.25 7.5 -42.2 6.1 -42.55 6.1 -42.65 6.15 -43.5 6.1 -44.2 M6.1 -42.35 L7.75 -41.75 6.1 -41.05 6.1 -42.35 M6.7 -35.1 L7.3 -35.35 Q7.9 -35.8 7.8 -35.25 L7.35 -33.9 7.0 -33.2 6.65 -32.8 6.5 -32.75 6.4 -32.7 6.45 -32.8 6.4 -32.85 6.3 -33.2 6.3 -33.4 6.3 -34.95 6.7 -35.1 M-6.0 -36.65 L-6.4 -36.55 -6.45 -36.55 Q-6.65 -37.7 -6.1 -38.2 L-5.65 -38.4 -5.4 -38.25 Q-4.85 -37.9 -4.9 -37.2 L-6.0 -36.65 M-2.65 -28.5 L-2.7 -28.8 -2.85 -28.8 -5.35 -29.7 -5.15 -29.45 -5.1 -29.4 Q-5.6 -29.8 -5.65 -30.35 L-4.45 -31.3 -2.9 -31.65 -2.55 -31.85 -2.65 -28.5 M-9.7 -29.25 Q-8.7 -29.85 -8.2 -28.55 L-7.4 -27.2 -9.3 -28.7 -9.7 -29.25" fill="#666666" fill-rule="evenodd" stroke="none"/>
    <path d="M5.6 -49.4 L5.6 -49.3 5.6 -48.35 5.6 -48.1 5.6 -48.05 5.6 -47.5 5.7 -43.5 5.75 -42.85 4.95 -42.9 4.65 -43.15 4.5 -43.15 4.4 -43.0 4.25 -44.85 0.65 -43.65 0.7 -39.2 1.9 -39.65 2.55 -39.55 0.7 -38.7 0.65 -33.7 3.5 -34.4 3.15 -33.9 0.65 -33.25 0.5 -32.5 0.35 -33.15 -0.7 -33.1 0.35 -33.6 0.15 -38.5 0.0 -38.5 0.25 -38.95 0.25 -47.45 0.35 -45.65 0.55 -47.3 0.65 -43.95 4.2 -45.2 4.15 -46.25 Q5.35 -47.6 5.55 -49.5 L5.6 -49.4 M5.85 -38.7 L5.85 -37.55 5.2 -36.05 4.75 -34.3 4.5 -30.95 4.15 -27.15 3.95 -33.35 3.35 -40.5 3.35 -40.75 3.6 -43.1 4.2 -42.6 Q4.8 -41.85 4.65 -40.8 L4.55 -39.25 4.65 -36.1 5.85 -38.7 M6.3 -24.4 L6.4 -23.05 6.6 -18.05 6.65 -17.5 6.7 -15.7 6.4 -15.9 Q5.35 -18.65 5.0 -21.5 L5.0 -21.7 4.8 -23.85 4.95 -26.15 5.5 -22.65 6.2 -24.55 6.3 -24.4 M6.85 -12.1 L6.9 -11.35 6.9 -11.3 6.85 -11.2 6.9 -11.2 7.05 -7.7 -0.85 -5.05 -0.85 -6.35 -0.3 -7.3 -0.4 -9.85 -0.95 -10.05 -0.35 -11.75 Q0.95 -14.5 0.55 -17.6 L-0.5 -17.35 0.55 -17.8 Q0.95 -20.65 0.45 -21.75 L-0.7 -21.8 0.75 -22.5 1.05 -24.9 1.15 -22.7 4.8 -23.85 0.9 -22.05 0.8 -17.9 4.95 -19.2 5.35 -19.2 0.8 -17.65 Q0.8 -15.35 0.95 -13.05 L1.15 -12.35 1.6 -10.45 Q1.65 -8.55 1.15 -7.25 L1.8 -7.4 Q3.45 -7.0 4.95 -8.0 5.1 -9.8 6.05 -11.5 L6.55 -11.65 6.85 -12.1 M-1.6 -31.9 L-1.6 -33.05 -1.65 -33.75 -1.7 -33.15 -1.75 -32.05 -1.95 -32.8 Q-2.15 -33.15 -2.45 -33.15 L-2.45 -34.75 -1.55 -37.25 -1.6 -34.8 -1.55 -35.2 -1.5 -36.5 -1.1 -35.3 -0.6 -34.65 -1.6 -31.9 M-1.7 -16.9 L-1.7 -15.8 -1.75 -15.75 -1.7 -15.75 -1.8 -11.05 -1.75 -6.05 -1.7 -5.9 Q-1.3 -5.15 -2.2 -4.9 L-3.1 -5.4 -3.5 -5.8 -4.15 -6.3 -4.6 -6.5 -5.1 -6.7 Q-6.2 -6.7 -7.0 -7.4 L-6.95 -7.85 -6.95 -7.9 -6.9 -8.7 -6.9 -8.75 -6.8 -8.75 -6.65 -8.7 -6.6 -8.65 -6.45 -8.1 -4.75 -7.95 -4.4 -7.65 -3.9 -7.05 -3.75 -7.45 Q-3.65 -10.0 -3.85 -12.25 L-5.85 -13.35 -3.8 -12.75 -3.15 -13.75 -2.5 -15.1 -1.8 -16.9 -1.7 -16.9 M-6.6 -15.15 L-6.3 -21.5 Q-5.85 -20.1 -5.7 -18.7 L-5.55 -15.5 -5.8 -15.35 Q-6.2 -14.7 -6.6 -15.15 M-9.15 -29.75 L-9.6 -29.6 -9.6 -29.65 -11.05 -29.1 -12.15 -28.7 -12.25 -29.75 -12.3 -30.35 -12.3 -30.45 -12.2 -30.45 -12.15 -30.35 -12.1 -30.3 -11.2 -30.6 -9.3 -29.95 -9.15 -29.8 -9.15 -29.75 M-12.6 -30.65 L-12.6 -30.4 -12.6 -28.65 -15.15 -29.9 -15.2 -31.0 -14.7 -31.25 -14.45 -32.3 -13.0 -31.85 -12.6 -30.65 M-9.45 -40.15 L-9.4 -40.3 -9.4 -40.35 -8.3 -42.5 -8.75 -41.4 -7.9 -42.75 -7.55 -43.2 -7.35 -43.4 -7.25 -43.25 Q-7.25 -42.6 -7.4 -42.1 -7.8 -40.45 -8.75 -39.2 L-9.45 -39.25 -9.45 -40.15 M-1.15 -48.3 L-1.05 -48.8 -1.8 -49.3 -1.85 -49.55 -1.9 -49.6 -1.95 -49.6 -0.15 -50.1 Q1.65 -50.1 3.3 -51.1 4.2 -50.9 3.9 -50.25 L-1.15 -48.3 M6.2 -37.4 L6.1 -40.95 6.6 -41.1 6.15 -40.8 6.8 -41.1 7.8 -40.6 7.35 -38.35 11.85 -40.25 11.95 -41.0 10.85 -41.75 11.15 -42.7 12.6 -43.3 14.1 -43.8 14.35 -43.9 14.7 -43.3 14.7 -42.4 14.7 -41.5 14.65 -41.5 14.5 -41.35 14.25 -40.9 13.4 -40.45 12.35 -40.8 12.35 -37.6 12.3 -37.6 12.0 -40.1 10.8 -39.6 7.2 -37.75 Q6.65 -37.4 6.2 -37.4 M9.15 -36.05 L9.6 -35.75 9.8 -35.1 9.6 -34.4 9.15 -34.15 Q8.9 -34.15 8.7 -34.4 L8.5 -35.1 8.7 -35.75 Q8.9 -36.05 9.15 -36.05 M2.25 -16.05 L2.25 -15.7 Q3.2 -14.1 2.3 -12.75 L2.15 -12.9 Q1.9 -14.55 2.25 -16.05 M-12.65 -30.45 L-12.65 -30.4 -12.6 -30.4 -12.65 -30.45 M-4.95 -31.35 L-5.0 -31.55 Q-4.5 -32.4 -4.6 -33.6 L-4.0 -34.25 -3.85 -34.35 -2.5 -34.65 -2.55 -32.45 -3.2 -32.0 -4.95 -31.35 M-8.9 -34.95 Q-8.9 -35.25 -8.5 -35.15 L-8.45 -31.95 -5.3 -32.9 Q-6.55 -31.4 -8.45 -31.5 L-8.4 -30.35 -8.6 -31.45 -10.95 -30.85 -8.65 -31.85 -8.9 -34.95" fill="#999999" fill-rule="evenodd" stroke="none"/>
    <path d="M5.6 -49.4 L5.65 -50.9 3.35 -52.3 2.0 -52.25 0.7 -52.0 -3.8 -50.55 -1.95 -49.6 -1.9 -49.6 -1.85 -49.55 -1.8 -49.3 -1.05 -48.8 -1.15 -48.3 -1.45 -37.3 -1.5 -36.5 -1.55 -35.2 -1.6 -34.8 -1.55 -37.25 -1.5 -48.7 -1.95 -48.85 -2.2 -49.45 -4.7 -49.85 -4.95 -45.7 -4.15 -45.9 -2.2 -45.25 -2.35 -43.15 -2.45 -43.1 -3.4 -42.65 -4.8 -41.55 Q-3.85 -42.85 -2.5 -43.75 L-2.3 -44.65 Q-3.45 -44.5 -4.4 -43.9 L-2.85 -45.1 -4.15 -45.6 -5.05 -45.15 Q-6.45 -44.55 -7.35 -43.4 L-7.55 -43.2 -7.9 -42.75 -8.75 -41.4 -8.3 -42.5 -9.4 -40.35 -9.4 -40.3 -9.45 -40.15 -9.85 -36.8 -9.9 -36.8 -9.85 -36.75 -8.6 -36.2 -7.95 -39.2 -7.95 -39.1 -7.95 -38.75 -8.15 -37.25 -8.35 -35.75 -8.35 -35.7 -9.9 -35.25 -8.5 -35.95 -10.6 -36.8 -14.8 -35.15 -13.3 -34.4 -15.0 -34.8 -15.45 -34.15 -15.2 -31.0 -15.15 -29.9 -12.6 -28.65 -12.6 -30.4 -12.6 -30.65 -12.55 -33.55 -12.3 -30.45 -12.3 -30.35 -12.25 -29.75 -12.15 -28.7 -11.05 -29.1 -9.6 -29.6 -9.15 -29.75 -8.5 -30.0 -8.45 -29.9 -8.35 -29.5 -8.2 -29.25 -7.85 -28.55 Q-6.7 -26.5 -4.4 -26.25 L-5.25 -26.25 -5.45 -26.2 -6.05 -26.4 -6.1 -26.4 -6.1 -26.35 -6.1 -25.9 -6.3 -21.5 -6.6 -15.15 -6.9 -8.7 -6.95 -7.9 -6.95 -7.85 -7.0 -7.4 Q-6.2 -6.7 -5.1 -6.7 L-4.6 -6.5 -4.15 -6.3 -3.5 -5.8 -3.1 -5.4 -2.2 -4.9 Q-1.3 -5.15 -1.7 -5.9 L-1.75 -6.05 -1.8 -11.05 -1.7 -15.75 -1.7 -15.8 -1.7 -16.9 -1.75 -32.05 -1.7 -33.15 -1.65 -33.75 -1.6 -33.05 -1.6 -31.9 -0.85 -6.35 -0.85 -5.05 7.05 -7.7 6.9 -11.2 6.9 -11.3 6.9 -11.35 6.85 -12.1 6.7 -15.7 6.65 -17.5 6.6 -18.05 6.4 -23.05 6.3 -24.4 5.85 -37.55 5.85 -38.7 5.75 -42.85 5.7 -43.5 5.6 -47.5 5.6 -48.05 5.6 -48.1 5.6 -48.35 5.6 -49.3 5.6 -49.4 M10.65 -36.75 Q10.25 -31.75 6.4 -28.2 L7.9 -7.5 3.2 -6.2 -1.25 -4.15 Q-3.7 -4.45 -5.5 -6.4 L-7.45 -6.6 -6.4 -26.5 -6.45 -26.5 -7.1 -26.7 -7.85 -27.25 -8.95 -27.9 Q-9.55 -28.3 -9.95 -29.05 L-9.95 -29.15 Q-10.9 -28.75 -11.75 -28.5 L-12.85 -28.55 -14.9 -29.2 -15.4 -29.5 -15.6 -34.5 -14.8 -35.6 -10.15 -37.4 Q-9.8 -42.75 -5.5 -45.55 L-5.1 -49.9 -5.15 -49.95 -4.55 -50.45 -4.2 -50.75 -0.2 -52.2 1.9 -52.7 Q2.2 -52.45 2.8 -52.5 L3.35 -52.55 5.55 -51.7 5.7 -51.45 5.8 -50.8 6.0 -46.9 6.45 -46.75 Q8.5 -46.05 9.65 -44.3 L9.75 -44.35 11.95 -45.15 11.95 -45.2 13.75 -44.5 13.0 -44.75 14.15 -44.3 15.0 -43.15 15.0 -38.65 14.7 -38.1 10.65 -36.75 12.3 -37.6 12.35 -37.6 14.6 -38.7 14.65 -40.3 14.7 -41.5 14.7 -42.4 14.7 -43.3 14.35 -43.9 14.1 -43.8 12.6 -43.3 11.15 -42.7 10.2 -42.4 9.6 -43.7 Q8.9 -45.35 7.3 -46.15 L7.25 -46.2 7.25 -46.15 6.0 -46.55 6.1 -44.35 7.05 -43.75 Q8.0 -43.05 8.35 -41.85 L6.8 -41.1 6.15 -40.8 6.6 -41.1 6.1 -40.95 6.2 -37.4 6.25 -35.25 7.95 -35.8 7.95 -35.65 8.0 -35.25 Q7.55 -33.5 6.4 -32.15 L6.3 -28.9 Q7.9 -30.0 9.0 -31.65 10.5 -34.05 10.45 -36.65 L10.65 -36.75 M12.0 -44.9 L10.1 -44.2 9.75 -44.1 10.2 -42.55 14.3 -43.95 12.3 -44.8 12.0 -44.9 M6.1 -44.2 L6.15 -43.5 6.1 -42.65 6.1 -42.55 7.5 -42.2 7.95 -42.25 6.1 -44.2 M6.1 -42.35 L6.1 -41.05 7.75 -41.75 6.1 -42.35 M6.7 -35.1 L6.3 -34.95 6.3 -33.4 6.3 -33.2 6.4 -32.85 6.45 -32.8 6.4 -32.7 6.5 -32.75 6.65 -32.8 7.0 -33.2 7.35 -33.9 7.8 -35.25 Q7.9 -35.8 7.3 -35.35 L6.7 -35.1 M-5.65 -38.4 L-6.1 -38.2 Q-6.65 -37.7 -6.45 -36.55 L-6.4 -36.55 -6.0 -36.65 -2.6 -37.6 -6.7 -36.25 -6.15 -38.7 -6.0 -39.25 -5.7 -40.0 -5.2 -40.85 -5.4 -38.9 -4.85 -39.05 -4.65 -39.1 -3.5 -38.65 -2.7 -38.35 -4.75 -38.8 -5.65 -38.4 M-2.5 -34.65 L-2.45 -36.85 -2.45 -34.75 -2.45 -33.15 -2.55 -31.85 -2.9 -31.65 -4.45 -31.3 -5.65 -30.35 Q-5.6 -29.8 -5.1 -29.4 L-5.15 -29.45 -5.35 -29.7 -2.85 -28.8 -2.7 -28.8 -2.65 -28.5 -2.6 -26.3 -3.3 -26.25 -3.15 -26.3 -3.05 -26.45 -2.95 -26.95 Q-2.9 -27.7 -3.0 -28.45 L-3.95 -28.6 -4.3 -28.75 -5.85 -30.15 -5.9 -30.5 -6.0 -30.95 -4.95 -31.35 -3.2 -32.0 -2.55 -32.45 -2.5 -34.65 M-9.7 -29.25 L-9.3 -28.7 -7.4 -27.2 -8.2 -28.55 Q-8.7 -29.85 -9.7 -29.25 M-6.55 -20.8 L-6.55 -22.3 -6.6 -20.35 -6.55 -20.8" fill="#333333" fill-rule="evenodd" stroke="none"/>
  </g>
</svg>
