<?xml version="1.0" encoding="UTF-8" standalone="no"?>
<svg xmlns:ffdec="https://www.free-decompiler.com/flash" xmlns:xlink="http://www.w3.org/1999/xlink" ffdec:objectType="shape" height="11.85px" width="16.9px" xmlns="http://www.w3.org/2000/svg">
  <g transform="matrix(1.0, 0.0, 0.0, 1.0, 8.1, 8.45)">
    <path d="M7.5 -6.95 L7.45 -7.45 7.5 -7.85 7.85 -7.75 8.45 -7.05 8.45 -6.95 8.5 -6.9 Q8.6 -6.45 8.35 -6.05 L8.3 -5.6 8.45 -5.35 Q8.7 -4.85 8.45 -4.35 L8.35 -3.8 8.35 -3.6 Q8.8 -3.25 8.7 -2.6 L8.55 -2.1 8.55 -1.6 Q8.85 -1.4 8.8 -1.0 L8.65 -0.45 7.9 -1.05 7.7 -1.4 Q7.1 -2.15 6.9 -3.05 L6.7 -4.3 Q6.65 -5.2 6.75 -6.1 L7.3 -6.45 7.5 -6.95 M8.2 -6.25 L8.3 -6.8 8.25 -6.85 8.25 -7.05 8.2 -7.1 8.2 -7.2 7.9 -7.55 7.6 -7.6 7.65 -7.55 7.55 -7.4 7.65 -7.2 7.7 -7.2 7.7 -6.9 7.6 -6.5 7.2 -5.95 6.95 -5.85 6.8 -5.25 6.9 -5.1 7.05 -5.15 Q7.7 -5.4 8.1 -5.95 L8.1 -6.05 8.2 -6.15 8.2 -6.25 M2.45 -5.25 L2.5 -4.35 Q2.5 -4.0 2.65 -3.7 3.1 -2.05 4.0 -0.6 L4.8 0.85 Q3.25 1.75 1.75 2.75 L1.05 3.25 0.7 3.4 0.45 3.25 -1.9 2.65 -3.2 2.0 -5.9 0.6 -7.15 -0.2 -7.3 -0.4 -7.4 -0.95 -7.3 -1.4 -7.55 -3.05 -7.45 -4.4 -7.4 -5.5 Q-7.45 -6.2 -7.65 -6.9 L-8.0 -7.4 -8.1 -7.6 -8.05 -8.15 -7.85 -8.4 -7.7 -8.45 -5.1 -7.0 Q-3.95 -6.5 -2.7 -6.15 L-1.4 -5.7 -0.35 -5.5 1.75 -5.3 2.45 -5.25 M0.2 -4.4 L2.35 -4.25 2.3 -4.55 2.35 -4.8 Q2.15 -5.1 1.8 -5.05 L1.3 -5.0 0.9 -5.15 0.7 -5.15 0.25 -5.25 -2.3 -5.8 Q-4.2 -6.5 -6.05 -7.3 L-6.5 -7.5 -7.75 -8.2 -7.8 -8.15 Q-8.0 -7.85 -7.7 -7.6 L-7.7 -7.5 -7.55 -7.35 -6.6 -6.6 -4.9 -5.75 -3.6 -5.2 -1.75 -4.65 0.2 -4.4 M2.4 -3.55 L2.3 -3.9 1.15 -3.95 0.0 -4.1 -2.65 -4.7 -4.85 -5.4 Q-6.15 -5.9 -7.2 -6.75 L-7.15 -6.6 -7.2 -6.6 -7.15 -6.35 -6.9 -5.25 -6.65 -4.55 -5.95 -3.65 -5.25 -3.1 -3.05 -1.95 -2.6 -1.75 -1.2 -1.3 -0.75 -1.15 0.4 -1.05 0.4 -1.1 1.55 -1.0 1.2 -0.95 2.3 -0.9 2.2 -0.95 3.5 -1.05 2.8 -2.55 2.65 -2.95 2.4 -3.55 M2.35 -0.7 L0.4 -0.9 -1.6 -1.25 -2.9 -1.6 -4.75 -2.35 -5.35 -2.7 -4.9 -0.8 -4.5 -0.15 -3.1 1.5 -1.4 2.65 0.0 3.05 0.35 3.0 0.6 2.95 0.6 2.9 1.95 1.75 1.9 1.7 3.2 -0.7 2.1 1.65 2.55 1.15 3.85 0.1 4.05 0.0 3.7 -0.65 3.55 -0.85 3.35 -0.75 3.25 -0.8 2.55 -0.7 2.05 1.2 1.65 2.0 1.6 1.9 2.4 -0.4 2.45 -0.7 2.35 -0.7 M8.35 -3.4 L8.3 -3.35 8.4 -2.55 8.45 -2.5 8.5 -2.55 Q8.7 -3.05 8.35 -3.4 M8.1 -5.3 L7.95 -5.55 7.55 -5.2 7.5 -5.05 Q7.5 -3.3 7.9 -1.65 L8.3 -1.75 8.2 -3.65 8.1 -5.3 M8.25 -5.15 L8.2 -4.9 8.25 -4.6 8.35 -4.5 8.4 -4.6 8.45 -4.9 8.4 -5.15 8.35 -5.3 8.25 -5.15 M6.85 -4.9 L6.95 -4.2 7.05 -3.9 7.35 -2.8 7.15 -5.0 6.85 -4.9 M8.4 -0.75 L8.5 -0.8 8.55 -0.85 8.6 -1.0 8.55 -1.3 8.15 -1.5 8.15 -1.35 Q8.1 -1.0 8.4 -0.75 M4.2 0.25 L4.1 0.25 2.35 1.6 0.95 2.95 Q2.7 1.9 4.5 0.8 L4.4 0.55 4.2 0.25 M-6.15 -2.8 L-6.15 -3.25 -6.25 -3.4 -7.0 -4.05 -7.1 -4.0 Q-7.6 -3.35 -7.3 -2.55 L-6.7 -1.65 -5.6 -0.65 -4.8 -0.05 -4.8 -0.1 -5.3 -1.3 -5.55 -2.8 -5.95 -3.1 -5.9 -1.55 -5.95 -1.7 -6.15 -2.8 M-6.35 -1.25 L-6.7 -1.5 -7.05 -1.05 -6.95 -0.45 -6.8 -0.3 Q-5.95 0.1 -5.1 0.65 L-3.3 1.7 -3.2 1.6 -3.45 1.35 -4.95 0.2 -5.55 -0.3 -6.35 -1.25" fill="#313566" fill-rule="evenodd" stroke="none"/>
    <path d="M6.8 -5.25 L6.95 -5.85 7.2 -5.95 7.6 -6.5 7.7 -6.9 7.7 -7.2 7.65 -7.2 7.55 -7.4 7.65 -7.55 7.6 -7.6 7.9 -7.55 8.2 -7.2 8.2 -7.1 8.25 -7.05 8.25 -6.85 8.3 -6.8 8.2 -6.25 8.0 -6.0 6.8 -5.25 M-7.7 -7.5 L-7.7 -7.6 Q-8.0 -7.85 -7.8 -8.15 L-7.75 -8.2 -6.5 -7.5 -6.05 -7.3 Q-4.2 -6.5 -2.3 -5.8 L0.25 -5.25 0.7 -5.15 0.9 -5.15 1.3 -5.0 1.8 -5.05 Q2.15 -5.1 2.35 -4.8 L2.3 -4.55 2.35 -4.25 0.2 -4.4 -1.4 -4.8 -3.0 -5.2 -4.45 -5.65 Q-5.4 -6.0 -6.25 -6.55 L-7.7 -7.5 M2.4 -3.55 L2.65 -2.95 2.8 -2.55 3.5 -1.05 2.2 -0.95 2.3 -0.9 1.2 -0.95 1.55 -1.0 0.4 -1.1 0.4 -1.05 -0.75 -1.15 -1.2 -1.3 -2.6 -1.75 -3.05 -1.95 -5.25 -3.1 -5.95 -3.65 -6.65 -4.55 -6.9 -5.25 -7.15 -6.35 -6.35 -5.9 Q-5.55 -5.4 -4.65 -5.05 L-2.9 -4.5 -1.3 -4.1 0.3 -3.75 2.1 -3.45 2.4 -3.55 M-4.5 -0.15 L-4.9 -0.8 -5.35 -2.7 -4.75 -2.35 -2.9 -1.6 -1.6 -1.25 0.4 -0.9 2.35 -0.7 1.65 1.35 1.25 2.2 -1.5 1.6 -2.75 1.1 -3.65 0.55 -4.3 0.05 -4.5 -0.15 M3.7 -0.65 L4.05 0.0 3.85 0.1 2.55 1.15 3.7 -0.65 M8.25 -5.15 L8.35 -5.3 8.4 -5.15 8.45 -4.9 8.4 -4.6 8.35 -4.5 8.25 -4.6 8.2 -4.9 8.25 -5.15 M8.1 -5.3 L8.2 -3.65 8.3 -1.75 7.9 -1.65 Q7.5 -3.3 7.5 -5.05 L7.55 -5.2 7.95 -5.55 8.1 -5.3 M8.35 -3.4 Q8.7 -3.05 8.5 -2.55 L8.45 -2.5 8.4 -2.55 8.3 -3.35 8.35 -3.4 M-6.15 -2.8 L-5.95 -1.7 -5.6 -0.65 -6.7 -1.65 -7.3 -2.55 Q-7.6 -3.35 -7.1 -4.0 L-6.25 -2.95 -6.15 -2.8" fill="#d1d6e9" fill-rule="evenodd" stroke="none"/>
    <path d="M8.2 -6.25 L8.2 -6.15 8.1 -6.05 8.1 -5.95 Q7.7 -5.4 7.05 -5.15 L6.9 -5.1 6.8 -5.25 8.0 -6.0 8.2 -6.25 M0.2 -4.4 L-1.75 -4.65 -3.6 -5.2 -4.9 -5.75 -6.6 -6.6 -7.55 -7.35 -7.7 -7.5 -6.25 -6.55 Q-5.4 -6.0 -4.45 -5.65 L-3.0 -5.2 -1.4 -4.8 0.2 -4.4 M-7.15 -6.35 L-7.2 -6.6 -7.15 -6.6 -7.2 -6.75 Q-6.15 -5.9 -4.85 -5.4 L-2.65 -4.7 0.0 -4.1 1.15 -3.95 2.3 -3.9 2.4 -3.55 2.1 -3.45 0.3 -3.75 -1.3 -4.1 -2.9 -4.5 -4.65 -5.05 Q-5.55 -5.4 -6.35 -5.9 L-7.15 -6.35 M2.35 -0.7 L2.45 -0.7 2.4 -0.4 1.6 1.9 1.65 2.0 2.05 1.2 2.55 -0.7 3.25 -0.8 3.35 -0.75 3.55 -0.85 3.7 -0.65 2.55 1.15 2.1 1.65 3.2 -0.7 1.9 1.7 1.95 1.75 0.6 2.9 0.6 2.95 0.35 3.0 0.0 3.05 -1.4 2.65 -3.1 1.5 -4.5 -0.15 -4.3 0.05 -3.65 0.55 -2.75 1.1 -1.5 1.6 1.25 2.2 1.65 1.35 2.35 -0.7 M6.85 -4.9 L7.15 -5.0 7.35 -2.8 7.05 -3.9 6.95 -4.2 6.85 -4.9 M8.4 -0.75 Q8.1 -1.0 8.15 -1.35 L8.15 -1.5 8.55 -1.3 8.6 -1.0 8.55 -0.85 8.5 -0.8 8.4 -0.75 M4.2 0.25 L4.4 0.55 4.5 0.8 Q2.7 1.9 0.95 2.95 L2.35 1.6 4.1 0.25 4.2 0.25 M-7.1 -4.0 L-7.0 -4.05 -6.25 -3.4 -6.15 -3.25 -6.15 -2.8 -6.25 -2.95 -7.1 -4.0 M-5.95 -1.7 L-5.9 -1.55 -5.95 -3.1 -5.55 -2.8 -5.3 -1.3 -4.8 -0.1 -4.8 -0.05 -5.6 -0.65 -5.95 -1.7 M-6.35 -1.25 L-5.55 -0.3 -4.95 0.2 -3.45 1.35 -3.2 1.6 -3.3 1.7 -5.1 0.65 Q-5.95 0.1 -6.8 -0.3 L-6.95 -0.45 -7.05 -1.05 -6.7 -1.5 -6.35 -1.25" fill="#949dcb" fill-rule="evenodd" stroke="none"/>
  </g>
</svg>
