<?xml version="1.0" encoding="UTF-8" standalone="no"?>
<svg xmlns:ffdec="https://www.free-decompiler.com/flash" xmlns:xlink="http://www.w3.org/1999/xlink" ffdec:objectType="shape" height="64.7px" width="49.0px" xmlns="http://www.w3.org/2000/svg">
  <g transform="matrix(1.0, 0.0, 0.0, 1.0, 24.95, 68.45)">
    <path d="M12.8 -59.5 L12.65 -60.75 Q11.2 -62.15 9.35 -62.25 L7.65 -61.35 Q6.6 -60.7 5.7 -59.55 3.0 -57.1 1.35 -53.7 L1.05 -53.35 0.5 -52.3 -1.75 -48.7 -2.95 -48.85 Q-6.4 -48.8 -9.55 -47.6 L-9.8 -47.65 -8.1 -49.3 -12.6 -53.6 -15.1 -56.25 -17.25 -58.3 Q-19.1 -60.25 -21.85 -59.95 L-22.2 -59.85 -23.05 -58.95 -23.5 -58.05 -23.75 -57.15 Q-24.1 -55.8 -23.8 -54.3 -23.4 -52.1 -22.05 -50.25 L-19.35 -46.8 -19.05 -46.5 -19.0 -46.45 -13.1 -40.45 -12.45 -42.3 -11.95 -43.75 -11.9 -44.0 -11.9 -43.65 -12.0 -42.5 -12.05 -42.3 -12.15 -41.5 -12.3 -36.55 Q-12.2 -34.7 -11.6 -33.0 L-11.35 -32.3 -11.05 -31.6 -9.7 -28.0 -9.7 -27.95 -9.8 -27.7 -11.25 -29.0 -15.25 -24.6 -18.85 -20.05 Q-21.0 -17.15 -20.8 -13.75 L-20.7 -12.75 -20.6 -12.25 Q-18.8 -10.6 -16.6 -11.7 -14.45 -12.7 -13.05 -14.6 -11.2 -17.1 -9.7 -19.75 L-9.6 -19.9 -9.35 -20.4 -9.2 -20.75 -8.9 -22.0 -8.85 -22.05 Q-8.5 -21.15 -8.45 -20.15 -8.25 -16.45 -6.65 -13.15 L-5.3 -10.75 Q-3.05 -9.3 -0.45 -8.8 L3.4 -9.0 Q4.2 -9.2 5.15 -9.9 L5.4 -10.1 Q7.1 -11.55 7.75 -14.15 8.25 -16.3 8.1 -18.55 7.95 -20.25 7.4 -21.95 L7.25 -22.15 7.15 -22.6 6.6 -24.05 6.65 -24.1 6.85 -24.2 7.6 -23.95 7.8 -23.8 7.95 -23.85 8.0 -23.85 9.8 -23.5 Q14.85 -21.85 20.45 -22.85 L21.15 -23.3 21.7 -23.8 22.5 -25.3 22.7 -26.4 22.65 -27.85 22.2 -29.1 Q17.8 -30.55 13.2 -30.25 L7.4 -31.15 7.35 -31.15 5.25 -32.85 4.25 -44.95 4.2 -45.2 Q6.9 -48.05 9.1 -51.5 L11.25 -54.65 Q12.1 -55.8 12.55 -57.2 12.85 -58.2 12.8 -59.5 M8.6 -58.3 L8.8 -58.7 9.2 -58.85 9.65 -58.7 9.8 -58.3 9.65 -57.9 9.2 -57.75 Q8.95 -57.75 8.8 -57.9 L8.6 -58.3 M4.95 -60.7 L6.0 -61.6 Q7.65 -62.85 9.95 -62.85 12.3 -62.85 13.35 -60.7 14.0 -59.3 13.75 -57.85 L12.7 -55.6 12.6 -55.15 12.35 -54.85 Q11.1 -52.15 9.35 -49.75 7.6 -47.35 5.65 -45.15 L5.45 -44.8 5.4 -44.7 Q5.25 -43.25 5.35 -41.7 5.6 -38.8 6.1 -36.0 L6.3 -34.55 Q6.45 -33.45 7.0 -32.6 7.05 -32.15 7.45 -32.0 L8.65 -31.65 8.85 -31.7 13.45 -31.45 Q19.1 -32.3 23.1 -29.0 L23.55 -28.5 Q24.05 -27.2 24.05 -25.9 23.8 -24.6 23.05 -23.5 L21.85 -22.35 21.6 -22.15 Q17.55 -20.85 13.25 -21.4 L10.5 -22.1 8.75 -21.9 Q10.0 -19.7 9.95 -17.0 9.9 -12.15 6.3 -9.55 5.0 -8.45 3.35 -8.2 L3.55 -7.45 Q3.85 -5.95 3.35 -4.5 L3.25 -4.05 2.9 -3.8 Q1.2 -3.55 0.0 -4.8 -1.15 -5.95 -1.2 -7.55 L-3.25 -7.85 -5.6 -9.65 Q-8.75 -12.35 -9.25 -16.45 L-9.8 -16.35 Q-12.5 -13.05 -16.0 -10.65 -16.65 -10.2 -17.5 -10.05 -19.8 -9.65 -21.45 -11.2 L-21.95 -12.0 Q-22.95 -15.7 -20.95 -18.75 L-17.85 -23.8 -15.75 -26.5 -12.75 -29.45 -12.0 -30.2 -12.15 -30.6 Q-13.25 -32.45 -13.35 -34.7 L-13.65 -37.95 Q-13.75 -38.55 -14.0 -39.0 L-14.75 -40.0 -18.25 -43.35 -21.35 -47.2 Q-22.8 -48.95 -23.8 -51.05 L-24.55 -53.3 Q-25.05 -55.35 -24.9 -57.35 L-24.75 -58.2 -23.85 -59.6 -23.1 -60.15 -21.25 -60.6 Q-20.05 -60.75 -18.0 -59.7 -15.95 -58.65 -14.8 -57.65 L-13.45 -56.45 -7.8 -51.0 -6.85 -50.15 -6.65 -50.2 -7.3 -65.7 -6.75 -64.3 Q-4.25 -57.85 -3.45 -51.0 L-3.3 -50.3 -2.3 -50.35 3.15 -58.7 Q3.9 -59.8 4.95 -60.7 M6.1 -54.5 L6.3 -54.0 6.1 -53.5 5.65 -53.3 5.2 -53.5 5.0 -54.0 5.2 -54.5 5.65 -54.7 6.1 -54.5 M2.55 -47.95 L2.75 -47.5 2.55 -47.05 2.1 -46.85 1.65 -47.05 1.45 -47.5 1.65 -47.95 2.1 -48.15 2.55 -47.95 M21.4 -26.85 L21.6 -26.35 21.4 -25.8 20.85 -25.6 Q20.55 -25.6 20.35 -25.8 L20.1 -26.35 20.35 -26.85 20.85 -27.1 21.4 -26.85 M-4.6 -45.9 L-3.45 -45.8 -3.45 -45.7 Q-3.45 -45.45 -3.6 -45.25 -3.8 -45.1 -4.05 -45.1 -4.3 -45.1 -4.45 -45.25 L-4.65 -45.7 -4.6 -45.9 M0.1 -32.95 Q0.3 -33.15 0.6 -33.15 L1.1 -32.95 1.3 -32.5 1.1 -32.05 0.6 -31.85 Q0.3 -31.85 0.1 -32.05 L-0.1 -32.5 0.1 -32.95 M4.55 -15.2 L4.15 -14.65 Q3.65 -14.15 2.95 -14.15 L2.85 -14.15 Q2.2 -14.2 1.75 -14.65 1.25 -15.15 1.25 -15.85 1.25 -16.55 1.75 -17.05 2.25 -17.55 2.95 -17.55 3.65 -17.55 4.15 -17.05 4.65 -16.55 4.65 -15.85 L4.55 -15.2 M-2.85 -13.2 L-3.0 -12.9 -3.75 -13.05 Q-5.1 -13.35 -5.6 -14.4 L-5.85 -15.25 -4.15 -16.8 -3.35 -16.6 Q-2.35 -16.25 -2.1 -15.0 L-2.85 -13.2 M4.3 -23.05 L4.5 -22.6 4.3 -22.15 3.85 -21.95 3.4 -22.15 3.2 -22.6 3.4 -23.05 3.85 -23.25 4.3 -23.05 M12.95 -26.15 Q12.8 -26.15 12.7 -26.25 L12.6 -26.5 12.7 -26.75 12.95 -26.85 13.2 -26.75 13.3 -26.5 13.2 -26.25 12.95 -26.15 M8.85 -27.45 L9.0 -27.75 9.4 -27.9 9.8 -27.75 9.95 -27.45 9.8 -27.1 9.4 -27.0 9.0 -27.1 Q8.85 -27.25 8.85 -27.45 M1.4 -11.5 L1.55 -11.85 1.9 -12.0 2.25 -11.85 2.4 -11.5 2.25 -11.15 1.9 -11.0 1.55 -11.15 1.4 -11.5 M2.2 -8.05 L0.05 -7.6 0.65 -5.05 1.8 -4.85 2.75 -5.25 2.2 -8.05 M-20.5 -52.0 L-20.3 -52.4 -19.9 -52.6 -19.45 -52.4 -19.3 -52.0 Q-19.3 -51.75 -19.45 -51.55 -19.65 -51.4 -19.9 -51.4 -20.15 -51.4 -20.3 -51.55 L-20.5 -52.0 M-20.75 -57.1 L-20.4 -56.95 -20.3 -56.65 -20.4 -56.3 Q-20.55 -56.2 -20.75 -56.2 L-21.05 -56.3 -21.2 -56.65 -21.05 -56.95 -20.75 -57.1 M-15.7 -52.65 L-15.45 -52.75 -15.2 -52.65 -15.1 -52.4 -15.2 -52.15 Q-15.3 -52.05 -15.45 -52.05 L-15.7 -52.15 -15.8 -52.4 -15.7 -52.65 M-4.25 -50.5 L-6.5 -61.05 -5.55 -50.4 -4.25 -50.5 M-14.7 -48.15 Q-14.7 -47.9 -14.85 -47.75 -15.05 -47.6 -15.3 -47.6 L-15.7 -47.75 -15.9 -48.15 -15.7 -48.55 -15.3 -48.7 -14.85 -48.55 -14.7 -48.15 M-0.5 -40.5 Q-0.35 -40.35 -0.35 -40.1 L-0.5 -39.65 -0.95 -39.5 Q-1.2 -39.5 -1.35 -39.65 L-1.55 -40.1 -1.35 -40.5 -0.95 -40.7 -0.5 -40.5 M-8.0 -42.85 L-7.6 -42.7 -7.45 -42.35 Q-7.45 -42.15 -7.6 -42.0 -7.75 -41.85 -8.0 -41.85 -8.25 -41.85 -8.4 -42.0 L-8.55 -42.35 -8.4 -42.7 -8.0 -42.85 M-6.55 -34.85 L-6.4 -34.45 Q-6.4 -34.2 -6.55 -34.05 L-6.95 -33.9 Q-7.2 -33.9 -7.35 -34.05 L-7.5 -34.45 -7.35 -34.85 -6.95 -35.0 -6.55 -34.85 M-4.8 -27.45 L-4.45 -27.6 -4.1 -27.45 -3.95 -27.1 -4.1 -26.75 -4.45 -26.6 -4.8 -26.75 -4.95 -27.1 -4.8 -27.45 M-6.85 -22.05 L-6.45 -21.9 -6.3 -21.5 Q-6.3 -21.25 -6.45 -21.1 L-6.85 -20.95 Q-7.1 -20.95 -7.25 -21.1 L-7.4 -21.5 -7.25 -21.9 -6.85 -22.05 M-0.5 -22.7 Q-0.05 -22.05 -0.05 -21.1 -0.05 -20.15 -0.5 -19.5 -1.0 -18.85 -1.7 -18.85 -2.4 -18.85 -2.85 -19.5 -3.35 -20.15 -3.35 -21.1 -3.35 -22.05 -2.85 -22.7 L-1.7 -23.35 Q-1.0 -23.35 -0.5 -22.7 M-16.55 -17.15 L-16.4 -16.8 -16.55 -16.45 Q-16.7 -16.3 -16.9 -16.3 L-17.25 -16.45 -17.4 -16.8 -17.25 -17.15 -16.9 -17.3 -16.55 -17.15 M-14.35 -21.85 L-14.5 -22.25 -14.35 -22.65 -13.95 -22.8 Q-13.7 -22.8 -13.55 -22.65 L-13.4 -22.25 Q-13.4 -22.0 -13.55 -21.85 -13.7 -21.7 -13.95 -21.7 L-14.35 -21.85 M-12.3 -17.45 L-12.5 -17.1 -12.95 -16.95 -13.4 -17.1 -13.6 -17.45 -13.4 -17.8 -12.95 -17.95 -12.5 -17.8 -12.3 -17.45" fill="#50483d" fill-rule="evenodd" stroke="none"/>
    <path d="M7.7 -60.4 L7.15 -60.05 Q3.4 -56.2 0.9 -51.25 L0.0 -49.1 0.7 -49.15 6.55 -57.2 8.25 -60.2 8.15 -60.35 7.7 -60.4 M8.6 -58.3 L8.8 -57.9 Q8.95 -57.75 9.2 -57.75 L9.65 -57.9 9.8 -58.3 9.65 -58.7 9.2 -58.85 8.8 -58.7 8.6 -58.3 M-23.75 -57.15 L-23.5 -58.05 -23.05 -58.95 -22.2 -59.85 -21.85 -59.95 Q-19.1 -60.25 -17.25 -58.3 L-15.1 -56.25 -12.6 -53.6 -8.1 -49.3 -9.8 -47.65 -9.55 -47.6 Q-6.4 -48.8 -2.95 -48.85 L-1.75 -48.7 0.5 -52.3 1.05 -53.35 1.35 -53.7 Q3.0 -57.1 5.7 -59.55 6.6 -60.7 7.65 -61.35 L9.35 -62.25 Q11.2 -62.15 12.65 -60.75 L12.8 -59.5 Q10.5 -54.65 6.9 -50.3 L5.75 -49.4 Q2.85 -48.05 4.05 -45.1 L4.25 -44.95 5.25 -32.85 7.35 -31.15 7.4 -31.15 13.2 -30.25 Q17.8 -30.55 22.2 -29.1 L22.65 -27.85 22.7 -26.4 22.5 -25.3 Q18.35 -24.75 13.95 -25.2 10.0 -25.6 6.5 -27.3 L5.95 -27.15 5.65 -26.9 5.65 -26.75 5.4 -26.6 5.25 -26.35 5.35 -25.7 6.3 -23.05 6.7 -19.85 6.4 -18.1 5.3 -15.85 4.55 -15.2 4.65 -15.85 Q4.65 -16.55 4.15 -17.05 3.65 -17.55 2.95 -17.55 2.25 -17.55 1.75 -17.05 1.25 -16.55 1.25 -15.85 1.25 -15.15 1.75 -14.65 2.2 -14.2 2.85 -14.15 0.25 -12.85 -2.85 -13.2 L-2.1 -15.0 Q-2.35 -16.25 -3.35 -16.6 L-4.15 -16.8 -5.85 -15.25 -5.6 -14.4 Q-7.3 -16.6 -8.15 -19.4 L-8.15 -19.8 -8.3 -20.4 -8.25 -20.65 -8.15 -24.65 -8.3 -24.75 -8.55 -24.8 Q-12.5 -21.65 -15.5 -17.35 -17.35 -14.7 -20.3 -13.6 L-20.8 -13.75 Q-21.0 -17.15 -18.85 -20.05 L-15.25 -24.6 -11.25 -29.0 -9.8 -27.7 -9.7 -27.95 -9.4 -27.7 Q-6.55 -25.4 -2.8 -26.15 2.9 -27.3 2.9 -33.0 L2.85 -33.05 2.8 -33.5 2.5 -33.6 Q3.55 -36.45 3.4 -39.55 3.1 -45.1 -1.8 -46.95 -6.75 -48.9 -9.55 -45.25 L-4.6 -45.9 -4.65 -45.7 -4.45 -45.25 Q-4.3 -45.1 -4.05 -45.1 -3.8 -45.1 -3.6 -45.25 -3.45 -45.45 -3.45 -45.7 L-3.45 -45.8 -2.0 -45.55 Q2.35 -40.75 0.7 -34.1 0.85 -33.2 1.85 -33.15 L2.4 -33.45 2.3 -32.95 Q0.8 -31.25 -1.4 -30.2 -3.3 -29.3 -5.25 -29.6 L-6.7 -29.9 Q-9.75 -30.8 -11.6 -33.0 -12.2 -34.7 -12.3 -36.55 L-12.15 -41.5 -12.05 -42.3 -12.0 -42.5 -12.0 -42.55 Q-11.75 -43.1 -11.9 -43.65 L-11.9 -44.0 -11.95 -43.75 -12.1 -43.95 Q-12.65 -44.75 -13.75 -45.05 -16.1 -45.8 -17.85 -47.5 -19.9 -49.45 -21.3 -51.9 -22.8 -54.55 -23.75 -57.2 L-23.75 -57.15 M6.1 -54.5 L5.65 -54.7 5.2 -54.5 5.0 -54.0 5.2 -53.5 5.65 -53.3 6.1 -53.5 6.3 -54.0 6.1 -54.5 M21.4 -26.85 L20.85 -27.1 20.35 -26.85 20.1 -26.35 20.35 -25.8 Q20.55 -25.6 20.85 -25.6 L21.4 -25.8 21.6 -26.35 21.4 -26.85 M2.55 -47.95 L2.1 -48.15 1.65 -47.95 1.45 -47.5 1.65 -47.05 2.1 -46.85 2.55 -47.05 2.75 -47.5 2.55 -47.95 M0.1 -32.95 L-0.1 -32.5 0.1 -32.05 Q0.3 -31.85 0.6 -31.85 L1.1 -32.05 1.3 -32.5 1.1 -32.95 0.6 -33.15 Q0.3 -33.15 0.1 -32.95 M8.85 -27.45 Q8.85 -27.25 9.0 -27.1 L9.4 -27.0 9.8 -27.1 9.95 -27.45 9.8 -27.75 9.4 -27.9 9.0 -27.75 8.85 -27.45 M12.95 -26.15 L13.2 -26.25 13.3 -26.5 13.2 -26.75 12.95 -26.85 12.7 -26.75 12.6 -26.5 12.7 -26.25 Q12.8 -26.15 12.95 -26.15 M4.3 -23.05 L3.85 -23.25 3.4 -23.05 3.2 -22.6 3.4 -22.15 3.85 -21.95 4.3 -22.15 4.5 -22.6 4.3 -23.05 M-20.75 -57.1 L-21.05 -56.95 -21.2 -56.65 -21.05 -56.3 -20.75 -56.2 Q-20.55 -56.2 -20.4 -56.3 L-20.3 -56.65 -20.4 -56.95 -20.75 -57.1 M-20.5 -52.0 L-20.3 -51.55 Q-20.15 -51.4 -19.9 -51.4 -19.65 -51.4 -19.45 -51.55 -19.3 -51.75 -19.3 -52.0 L-19.45 -52.4 -19.9 -52.6 -20.3 -52.4 -20.5 -52.0 M-19.4 -58.4 L-19.5 -58.35 Q-19.85 -57.8 -19.45 -57.3 L-11.5 -49.7 Q-11.25 -49.4 -10.8 -49.4 L-10.05 -49.5 Q-9.8 -49.9 -10.1 -50.25 L-10.4 -50.65 -16.15 -56.05 -19.4 -58.4 M-15.7 -52.65 L-15.8 -52.4 -15.7 -52.15 -15.45 -52.05 Q-15.3 -52.05 -15.2 -52.15 L-15.1 -52.4 -15.2 -52.65 -15.45 -52.75 -15.7 -52.65 M-8.0 -42.85 L-8.4 -42.7 -8.55 -42.35 -8.4 -42.0 Q-8.25 -41.85 -8.0 -41.85 -7.75 -41.85 -7.6 -42.0 -7.45 -42.15 -7.45 -42.35 L-7.6 -42.7 -8.0 -42.85 M-0.5 -40.5 L-0.95 -40.7 -1.35 -40.5 -1.55 -40.1 -1.35 -39.65 Q-1.2 -39.5 -0.95 -39.5 L-0.5 -39.65 -0.35 -40.1 Q-0.35 -40.35 -0.5 -40.5 M-14.7 -48.15 L-14.85 -48.55 -15.3 -48.7 -15.7 -48.55 -15.9 -48.15 -15.7 -47.75 -15.3 -47.6 Q-15.05 -47.6 -14.85 -47.75 -14.7 -47.9 -14.7 -48.15 M-6.55 -34.85 L-6.95 -35.0 -7.35 -34.85 -7.5 -34.45 -7.35 -34.05 Q-7.2 -33.9 -6.95 -33.9 L-6.55 -34.05 Q-6.4 -34.2 -6.4 -34.45 L-6.55 -34.85 M-0.85 -28.0 L-0.85 -28.1 -0.8 -28.0 -0.85 -28.0 M-0.5 -22.7 Q-1.0 -23.35 -1.7 -23.35 L-2.85 -22.7 Q-3.35 -22.05 -3.35 -21.1 -3.35 -20.15 -2.85 -19.5 -2.4 -18.85 -1.7 -18.85 -1.0 -18.85 -0.5 -19.5 -0.05 -20.15 -0.05 -21.1 -0.05 -22.05 -0.5 -22.7 M-6.85 -22.05 L-7.25 -21.9 -7.4 -21.5 -7.25 -21.1 Q-7.1 -20.95 -6.85 -20.95 L-6.45 -21.1 Q-6.3 -21.25 -6.3 -21.5 L-6.45 -21.9 -6.85 -22.05 M-14.35 -21.85 L-13.95 -21.7 Q-13.7 -21.7 -13.55 -21.85 -13.4 -22.0 -13.4 -22.25 L-13.55 -22.65 Q-13.7 -22.8 -13.95 -22.8 L-14.35 -22.65 -14.5 -22.25 -14.35 -21.85 M-16.55 -17.15 L-16.9 -17.3 -17.25 -17.15 -17.4 -16.8 -17.25 -16.45 -16.9 -16.3 Q-16.7 -16.3 -16.55 -16.45 L-16.4 -16.8 -16.55 -17.15" fill="#e6b971" fill-rule="evenodd" stroke="none"/>
    <path d="M12.8 -59.5 Q12.85 -58.2 12.55 -57.2 12.1 -55.8 11.25 -54.65 L9.1 -51.5 Q6.9 -48.05 4.2 -45.2 L4.25 -44.95 4.05 -45.1 Q2.85 -48.05 5.75 -49.4 L6.9 -50.3 Q10.5 -54.65 12.8 -59.5 M22.5 -25.3 L21.7 -23.8 21.15 -23.3 20.45 -22.85 Q14.85 -21.85 9.8 -23.5 L8.0 -23.85 7.95 -23.85 7.8 -23.8 7.6 -23.95 6.85 -24.2 6.65 -24.1 6.6 -24.05 7.15 -22.6 7.25 -22.15 7.4 -21.95 Q7.95 -20.25 8.1 -18.55 8.25 -16.3 7.75 -14.15 7.1 -11.55 5.4 -10.1 L5.15 -9.9 Q4.2 -9.2 3.4 -9.0 L-0.45 -8.8 Q-3.05 -9.3 -5.3 -10.75 L-6.65 -13.15 Q-8.25 -16.45 -8.45 -20.15 -8.5 -21.15 -8.85 -22.05 L-8.9 -22.0 -9.2 -20.75 -9.35 -20.4 -9.6 -19.9 -9.7 -19.75 Q-11.2 -17.1 -13.05 -14.6 -14.45 -12.7 -16.6 -11.7 -18.8 -10.6 -20.6 -12.25 L-20.7 -12.75 -20.8 -13.75 -20.3 -13.6 Q-17.35 -14.7 -15.5 -17.35 -12.5 -21.65 -8.55 -24.8 L-8.3 -24.75 -8.15 -24.65 -8.25 -20.65 -8.3 -20.4 -8.15 -19.8 -8.15 -19.4 Q-7.3 -16.6 -5.6 -14.4 -5.1 -13.35 -3.75 -13.05 L-3.0 -12.9 -2.85 -13.2 Q0.25 -12.85 2.85 -14.15 L2.95 -14.15 Q3.65 -14.15 4.15 -14.65 L4.55 -15.2 5.3 -15.85 6.4 -18.1 6.7 -19.85 6.3 -23.05 5.35 -25.7 5.25 -26.35 5.4 -26.6 5.65 -26.75 5.65 -26.9 5.95 -27.15 6.5 -27.3 Q10.0 -25.6 13.95 -25.2 18.35 -24.75 22.5 -25.3 M-9.7 -27.95 L-9.7 -28.0 -11.05 -31.6 -11.35 -32.3 -11.6 -33.0 Q-9.75 -30.8 -6.7 -29.9 L-5.25 -29.6 Q-3.3 -29.3 -1.4 -30.2 0.8 -31.25 2.3 -32.95 L2.4 -33.45 2.5 -33.6 2.8 -33.5 2.85 -33.05 2.9 -33.0 Q2.9 -27.3 -2.8 -26.15 -6.55 -25.4 -9.4 -27.7 L-9.7 -27.95 M-12.0 -42.5 L-11.9 -43.65 Q-11.75 -43.1 -12.0 -42.55 L-12.0 -42.5 M-11.95 -43.75 L-12.45 -42.3 -13.1 -40.45 -19.0 -46.45 -19.05 -46.5 -19.35 -46.8 -22.05 -50.25 Q-23.4 -52.1 -23.8 -54.3 -24.1 -55.8 -23.75 -57.15 L-23.75 -57.2 Q-22.8 -54.55 -21.3 -51.9 -19.9 -49.45 -17.85 -47.5 -16.1 -45.8 -13.75 -45.05 -12.65 -44.75 -12.1 -43.95 L-11.95 -43.75 M1.4 -11.5 L1.55 -11.15 1.9 -11.0 2.25 -11.15 2.4 -11.5 2.25 -11.85 1.9 -12.0 1.55 -11.85 1.4 -11.5 M-0.85 -28.0 L-0.8 -28.0 -0.85 -28.1 -0.85 -28.0 M-4.8 -27.45 L-4.95 -27.1 -4.8 -26.75 -4.45 -26.6 -4.1 -26.75 -3.95 -27.1 -4.1 -27.45 -4.45 -27.6 -4.8 -27.45 M-12.3 -17.45 L-12.5 -17.8 -12.95 -17.95 -13.4 -17.8 -13.6 -17.45 -13.4 -17.1 -12.95 -16.95 -12.5 -17.1 -12.3 -17.45" fill="#af833a" fill-rule="evenodd" stroke="none"/>
    <path d="M-4.25 -50.5 L-5.55 -50.4 -6.5 -61.05 -4.25 -50.5" fill="#ccc2a6" fill-rule="evenodd" stroke="none"/>
    <path d="M2.2 -8.05 L2.75 -5.25 1.8 -4.85 0.65 -5.05 0.05 -7.6 2.2 -8.05" fill="#b4a67c" fill-rule="evenodd" stroke="none"/>
    <path d="M7.7 -60.4 L8.15 -60.35 8.25 -60.2 6.55 -57.2 0.7 -49.15 0.0 -49.1 0.9 -51.25 Q3.4 -56.2 7.15 -60.05 L7.7 -60.4 M2.5 -33.6 L2.4 -33.45 1.85 -33.15 Q0.85 -33.2 0.7 -34.1 2.35 -40.75 -2.0 -45.55 L-3.45 -45.8 -4.6 -45.9 -9.55 -45.25 Q-6.75 -48.9 -1.8 -46.95 3.1 -45.1 3.4 -39.55 3.55 -36.45 2.5 -33.6 M-19.4 -58.4 L-16.15 -56.05 -10.4 -50.65 -10.1 -50.25 Q-9.8 -49.9 -10.05 -49.5 L-10.8 -49.4 Q-11.25 -49.4 -11.5 -49.7 L-19.45 -57.3 Q-19.85 -57.8 -19.5 -58.35 L-19.4 -58.4" fill="#f2d9b7" fill-rule="evenodd" stroke="none"/>
    <path d="M-13.3 -45.7 Q-3.05 -37.55 -15.15 -34.4 -25.05 -37.9 -17.4 -45.45 -15.45 -47.45 -13.3 -45.7 M-14.55 -60.95 Q-15.3 -59.75 -16.15 -59.75 -26.4 -61.25 -17.65 -68.45 -11.45 -66.1 -14.55 -60.95 M-3.15 -58.5 Q-2.95 -61.5 -0.1 -61.5 14.55 -61.55 5.9 -50.8 -3.85 -46.4 -3.15 -58.5 M9.65 -29.3 Q8.05 -28.45 6.65 -29.05 -4.65 -34.0 7.35 -37.85 L8.95 -36.5 Q12.3 -33.1 9.65 -29.3" fill="#ffffff" fill-opacity="0.5137255" fill-rule="evenodd" stroke="none"/>
  </g>
</svg>
