<?xml version="1.0" encoding="UTF-8" standalone="no"?>
<svg xmlns:ffdec="https://www.free-decompiler.com/flash" xmlns:xlink="http://www.w3.org/1999/xlink" ffdec:objectType="shape" height="73.9px" width="60.0px" xmlns="http://www.w3.org/2000/svg">
  <g transform="matrix(1.0, 0.0, 0.0, 1.0, 30.0, 58.5)">
    <path d="M29.85 -5.45 L30.0 5.05 0.0 15.4 -30.0 5.05 -29.95 -2.85 -29.85 -2.8 -29.85 -3.3 -29.95 -5.75 -29.55 -6.45 -29.45 -6.1 -29.4 -6.1 Q-29.2 -6.5 -28.9 -6.25 L-28.85 -4.85 -0.25 6.8 0.2 6.75 0.45 6.7 0.5 6.7 Q6.75 2.9 14.5 1.45 L19.25 0.75 Q23.55 0.4 27.1 -1.45 L29.85 -2.85 29.85 -5.45" fill="url(#gradient0)" fill-rule="evenodd" stroke="none"/>
    <path d="M-29.9 -8.35 L-29.95 -21.9 -28.65 -23.25 -27.55 -23.75 -27.2 -24.35 -27.25 -25.5 -26.45 -27.1 -23.45 -16.75 -27.2 -19.85 -24.4 -15.8 -25.85 -7.55 -27.6 -12.55 -26.2 -5.0 -29.9 -8.35 M-29.95 -23.9 L-29.95 -44.2 -28.35 -49.6 -24.85 -40.7 -25.7 -37.6 -28.15 -41.85 -24.8 -32.6 -27.2 -34.2 -18.75 -24.35 -19.35 -36.2 -20.7 -31.4 -24.4 -32.35 -22.5 -38.2 -19.25 -45.95 -10.8 -40.45 -12.4 -34.9 -14.0 -31.1 -9.55 -28.65 -8.5 -25.25 -8.1 -25.6 Q-6.4 -26.95 -4.25 -26.65 -2.15 -26.35 -0.8 -24.6 0.15 -23.3 0.25 -21.8 L0.2 -20.65 2.1 -24.25 -9.65 -29.6 -7.15 -39.1 -3.65 -41.25 -2.3 -39.35 -2.3 -35.7 0.6 -41.1 -2.05 -33.8 8.05 -18.2 13.1 -17.4 10.25 -11.65 5.1 -15.2 3.6 -19.35 0.15 -16.05 -4.25 -20.0 -4.1 -19.05 -7.1 -21.55 -3.25 -13.95 -8.55 -18.4 -5.5 -10.9 -2.7 -11.9 -2.95 -7.0 -6.2 -8.15 -10.15 -22.0 -10.6 -15.25 -13.6 -17.25 -12.55 -15.55 -13.6 -14.0 -15.2 -18.65 -13.45 -21.75 -16.2 -29.25 -15.2 -24.25 -15.75 -20.95 -16.85 -23.3 -17.5 -15.0 -20.55 -23.8 -21.05 -15.6 -23.35 -21.95 -22.15 -25.85 -28.05 -32.65 -26.75 -28.2 -29.95 -23.9 M-17.8 -13.2 L-19.2 -12.1 -20.05 -13.8 -17.8 -13.2 M9.55 -5.95 L8.65 -2.5 6.9 -7.1 4.3 -2.6 5.9 -7.75 0.6 -4.95 0.2 -12.65 9.55 -5.95 M-6.8 -37.5 L-7.1 -36.55 -6.8 -35.6 Q-6.5 -35.2 -6.05 -35.2 -5.6 -35.2 -5.3 -35.6 -5.0 -36.0 -5.0 -36.55 -5.0 -37.1 -5.3 -37.5 -5.6 -37.9 -6.05 -37.9 -6.5 -37.9 -6.8 -37.5 M-10.45 -27.05 L-15.55 -31.9 -11.5 -21.6 -10.45 -27.05 M-16.8 -44.3 L-18.35 -38.3 -15.7 -35.25 -16.8 -44.3 M-25.5 -13.9 L-29.05 -21.2 -29.2 -13.45 -25.5 -13.9 M-22.35 -12.85 L-20.45 -12.05 -19.1 -5.85 -22.5 -8.4 -23.45 -14.3 -22.35 -12.85 M-23.95 -3.85 L-24.9 -5.45 -24.2 -10.05 -22.0 -3.15 -23.95 -3.85 M-13.35 -7.55 L-12.95 -6.95 -15.8 -3.35 -17.5 -4.65 -18.65 -8.9 -16.55 -12.55 -16.1 -11.95 -13.35 -7.55 M-12.05 -9.6 L-12.9 -11.95 -11.95 -14.1 -9.1 -10.15 -11.5 -8.4 -12.05 -9.6 M-12.1 -5.6 L-11.15 -4.1 -11.35 -7.1 -8.6 -9.1 -9.7 1.25 -13.95 -1.95 -12.1 -5.6 M-6.65 -6.3 L-4.1 -2.3 -2.05 -7.6 -0.5 3.95 -5.25 2.1 -6.65 -2.2 -6.65 -6.3" fill="#853603" fill-rule="evenodd" stroke="none"/>
    <path d="M-28.35 -49.6 L0.25 -58.5 27.5 -49.8 29.45 -44.85 25.15 -45.45 23.3 -43.2 24.9 -41.0 22.7 -38.7 20.5 -42.05 16.0 -33.3 14.0 -36.55 12.95 -34.15 10.7 -34.95 9.5 -37.65 7.8 -34.4 4.7 -40.9 1.15 -41.2 Q3.55 -32.8 12.75 -30.6 13.25 -30.4 13.55 -29.6 L14.75 -26.25 12.55 -25.55 0.55 -33.1 0.7 -41.1 0.6 -41.1 -2.3 -35.7 -2.3 -39.35 -3.65 -41.25 -7.15 -39.1 -9.65 -29.6 2.1 -24.25 0.2 -20.65 0.25 -21.8 Q0.15 -23.3 -0.8 -24.6 -2.15 -26.35 -4.25 -26.65 -6.4 -26.95 -8.1 -25.6 L-8.5 -25.25 -9.55 -28.65 -14.0 -31.1 -11.4 -29.95 -12.4 -34.9 -10.8 -40.45 -19.25 -45.95 -22.5 -38.2 -24.85 -40.7 -28.35 -49.6 M-3.25 -13.95 L-2.7 -11.9 -5.5 -10.9 -8.55 -18.4 -3.25 -13.95 M-17.5 -15.0 L-17.05 -13.6 -17.8 -13.2 -20.05 -13.8 -21.05 -15.6 -20.55 -23.8 -17.5 -15.0 M-16.8 -44.3 L-15.7 -35.25 -18.35 -38.3 -16.8 -44.3 M-10.45 -27.05 L-11.5 -21.6 -15.55 -31.9 -10.45 -27.05 M-24.8 -32.6 L-24.4 -32.35 -20.7 -31.4 -19.35 -36.2 -18.75 -24.35 -27.2 -34.2 -24.8 -32.6 M-25.5 -13.9 L-29.2 -13.45 -29.05 -21.2 -25.5 -13.9 M-16.1 -11.95 L-12.05 -9.6 -11.5 -8.4 -13.35 -7.55 -16.1 -11.95" fill="#552302" fill-rule="evenodd" stroke="none"/>
    <path d="M29.45 -44.85 L29.85 -5.45 29.85 -2.85 27.1 -1.45 Q23.55 0.4 19.25 0.75 L14.5 1.45 Q6.75 2.9 0.5 6.7 L0.45 6.7 0.2 6.75 -0.25 6.8 -28.85 -4.85 -28.9 -6.25 Q-29.2 -6.5 -29.4 -6.1 L-29.45 -6.1 -29.55 -6.45 -29.95 -5.75 -29.9 -8.35 -26.2 -5.0 -27.6 -12.55 -25.85 -7.55 -24.4 -15.8 -27.2 -19.85 -23.45 -16.75 -26.45 -27.1 -27.25 -25.5 -27.2 -24.35 -27.55 -23.75 -28.65 -23.25 -29.95 -21.9 -29.95 -23.9 -26.75 -28.2 -28.05 -32.65 -22.15 -25.85 -23.35 -21.95 -21.05 -15.6 -20.05 -13.8 -19.2 -12.1 -17.8 -13.2 -17.05 -13.6 -17.5 -15.0 -16.85 -23.3 -15.75 -20.95 -15.2 -24.25 -16.2 -29.25 -13.45 -21.75 -15.2 -18.65 -13.6 -14.0 -12.55 -15.55 -13.6 -17.25 -10.6 -15.25 -10.15 -22.0 -6.2 -8.15 -2.95 -7.0 -2.7 -11.9 -3.25 -13.95 -7.1 -21.55 -4.1 -19.05 -4.25 -20.0 0.15 -16.05 3.6 -19.35 5.1 -15.2 10.25 -11.65 13.1 -17.4 8.05 -18.2 -2.05 -33.8 0.6 -41.1 0.7 -41.1 0.55 -33.1 12.55 -25.55 14.75 -26.25 13.55 -29.6 Q13.25 -30.4 12.75 -30.6 3.55 -32.8 1.15 -41.2 L4.7 -40.9 7.8 -34.4 9.5 -37.65 10.7 -34.95 12.95 -34.15 14.0 -36.55 16.0 -33.3 20.5 -42.05 22.7 -38.7 24.9 -41.0 23.3 -43.2 25.15 -45.45 29.45 -44.85 M-24.85 -40.7 L-22.5 -38.2 -24.4 -32.35 -24.8 -32.6 -28.15 -41.85 -25.7 -37.6 -24.85 -40.7 M-12.4 -34.9 L-11.4 -29.95 -14.0 -31.1 -12.4 -34.9 M9.55 -5.95 L0.2 -12.65 0.6 -4.95 5.9 -7.75 4.3 -2.6 6.9 -7.1 8.65 -2.5 9.55 -5.95 M-6.8 -37.5 Q-6.5 -37.9 -6.05 -37.9 -5.6 -37.9 -5.3 -37.5 -5.0 -37.1 -5.0 -36.55 -5.0 -36.0 -5.3 -35.6 -5.6 -35.2 -6.05 -35.2 -6.5 -35.2 -6.8 -35.6 L-7.1 -36.55 -6.8 -37.5 M-22.35 -12.85 L-23.45 -14.3 -22.5 -8.4 -19.1 -5.85 -20.45 -12.05 -22.35 -12.85 M-23.95 -3.85 L-22.0 -3.15 -24.2 -10.05 -24.9 -5.45 -23.95 -3.85 M-16.1 -11.95 L-16.55 -12.55 -18.65 -8.9 -17.5 -4.65 -15.8 -3.35 -12.95 -6.95 -13.35 -7.55 -11.5 -8.4 -9.1 -10.15 -11.95 -14.1 -12.9 -11.95 -12.05 -9.6 -16.1 -11.95 M-6.65 -6.3 L-6.65 -2.2 -5.25 2.1 -0.5 3.95 -2.05 -7.6 -4.1 -2.3 -6.65 -6.3 M-12.1 -5.6 L-13.95 -1.95 -9.7 1.25 -8.6 -9.1 -11.35 -7.1 -11.15 -4.1 -12.1 -5.6" fill="url(#gradient1)" fill-rule="evenodd" stroke="none"/>
  </g>
  <defs>
    <linearGradient gradientTransform="matrix(0.0, 0.0232, -1.0, 0.0, -421.6, -19.35)" gradientUnits="userSpaceOnUse" id="gradient0" spreadMethod="pad" x1="-819.2" x2="819.2">
      <stop offset="0.0" stop-color="#a93c01"/>
      <stop offset="1.0" stop-color="#ff6600"/>
    </linearGradient>
    <linearGradient gradientTransform="matrix(0.0, 0.0232, 1.0, 0.0, 421.5, -19.35)" gradientUnits="userSpaceOnUse" id="gradient1" spreadMethod="pad" x1="-819.2" x2="819.2">
      <stop offset="0.0" stop-color="#a93c01"/>
      <stop offset="1.0" stop-color="#ff6600"/>
    </linearGradient>
  </defs>
</svg>
