<?xml version="1.0" encoding="UTF-8" standalone="no"?>
<svg xmlns:ffdec="https://www.free-decompiler.com/flash" xmlns:xlink="http://www.w3.org/1999/xlink" ffdec:objectType="shape" height="117.1px" width="111.7px" xmlns="http://www.w3.org/2000/svg">
  <g transform="matrix(1.0, 0.0, 0.0, 1.0, 49.5, 58.55)">
    <path d="M-17.8 44.05 L-20.1 43.75 -22.85 39.65 -22.2 38.5 -49.5 42.35 -30.45 23.1 -29.9 22.7 -47.65 3.45 -22.65 8.0 -38.2 -57.85 -9.0 -13.05 -5.0 -37.35 1.95 -4.3 28.7 -58.55 18.9 -7.4 29.4 -19.05 19.05 5.6 62.2 -17.15 22.45 25.9 23.4 26.2 37.2 37.6 17.9 38.3 21.25 41.8 15.9 42.6 7.3 33.7 25.25 33.0 9.55 27.55 29.0 6.45 7.8 17.65 12.95 5.55 7.8 11.25 12.55 -13.8 -0.55 12.8 -3.95 -3.4 -5.9 8.55 -20.2 -13.45 -12.6 18.8 -24.8 16.55 -16.1 26.05 -31.95 36.5 -12.4 33.7 -17.8 44.05 M15.55 43.4 L14.8 48.15 11.2 46.3 12.5 51.4 6.9 49.1 4.0 37.55 15.55 43.4 M2.9 52.95 L1.4 58.55 -3.35 51.5 -1.85 45.7 2.9 52.95 M-4.7 49.85 L-8.0 50.1 -4.75 45.9 -4.7 49.85 M-14.2 52.9 L-17.7 44.1 -9.05 39.9 -14.2 52.9" fill="#ffff00" fill-rule="evenodd" stroke="none"/>
    <path d="M-17.8 44.05 L-12.4 33.7 -31.95 36.5 -16.1 26.05 -24.8 16.55 -12.6 18.8 -20.2 -13.45 -5.9 8.55 -3.95 -3.4 -0.55 12.8 12.55 -13.8 7.8 11.25 12.95 5.55 7.8 17.65 29.0 6.45 9.55 27.55 25.25 33.0 7.3 33.7 15.9 42.6 15.55 43.4 4.0 37.55 6.9 49.1 2.9 52.95 -1.85 45.7 -3.35 51.5 -4.7 49.85 -4.75 45.9 -8.0 50.1 -14.2 52.9 -9.05 39.9 -17.7 44.1 -17.8 44.05" fill="#ffffff" fill-rule="evenodd" stroke="none"/>
  </g>
</svg>
