<?xml version="1.0" encoding="UTF-8" standalone="no"?>
<svg xmlns:ffdec="https://www.free-decompiler.com/flash" xmlns:xlink="http://www.w3.org/1999/xlink" ffdec:objectType="shape" height="52.9px" width="44.55px" xmlns="http://www.w3.org/2000/svg">
  <g transform="matrix(1.0, 0.0, 0.0, 1.0, 22.3, 26.45)">
    <path d="M18.25 -6.4 Q22.0 -1.65 22.25 4.6 22.5 14.0 13.75 16.4 L3.35 26.45 -5.3 22.25 Q-17.5 24.3 -21.25 11.85 -24.25 1.8 -18.65 -7.5 -20.95 -12.8 -17.45 -16.85 -10.2 -25.3 -1.45 -19.05 L4.95 -26.4 Q9.9 -26.7 13.6 -23.7 22.4 -16.4 18.25 -6.4 M8.6 4.15 L7.05 1.7 14.55 -7.25 -4.3 -15.1 Q-19.85 -9.9 -12.2 4.25 -10.95 6.6 -8.15 7.4 L-4.6 13.75 5.7 13.5 8.6 4.15" fill="#cccccc" fill-rule="evenodd" stroke="none"/>
    <path d="M8.6 4.15 L5.7 13.5 -4.6 13.75 -8.15 7.4 Q-10.95 6.6 -12.2 4.25 -19.85 -9.9 -4.3 -15.1 L14.55 -7.25 7.05 1.7 8.6 4.15" fill="#ffffff" fill-rule="evenodd" stroke="none"/>
  </g>
</svg>
