<?xml version="1.0" encoding="UTF-8" standalone="no"?>
<svg xmlns:ffdec="https://www.free-decompiler.com/flash" xmlns:xlink="http://www.w3.org/1999/xlink" ffdec:objectType="shape" height="81.35px" width="72.6px" xmlns="http://www.w3.org/2000/svg">
  <g transform="matrix(1.0, 0.0, 0.0, 1.0, 36.3, 40.7)">
    <path d="M12.25 -10.7 L10.65 -10.85 Q18.65 -14.7 16.95 -24.2 15.85 -30.6 9.4 -32.5 -0.55 -32.25 -2.0 -22.4 L-8.75 -10.0 Q-20.45 -7.1 -19.6 4.5 -18.75 16.05 -6.7 13.9 -4.9 26.8 7.3 22.05 13.2 19.85 14.7 13.95 19.95 16.4 24.95 12.15 31.45 6.75 25.6 0.8 24.25 -0.55 22.55 -1.15 20.8 -9.3 12.25 -10.7 M21.5 -16.45 L34.05 -3.2 Q36.5 0.7 36.3 5.15 35.85 15.45 26.85 20.05 26.65 27.7 21.55 34.0 12.65 44.95 1.45 37.9 -6.1 33.05 -7.25 26.1 L-14.75 22.25 -17.6 23.05 -22.45 19.7 Q-27.65 20.4 -31.45 16.8 -41.3 7.6 -31.15 -1.0 -31.35 -3.5 -30.3 -5.75 -26.25 -14.75 -17.15 -15.7 -18.85 -22.25 -14.5 -27.7 -7.1 -37.15 4.45 -40.0 17.25 -43.25 22.8 -31.35 26.5 -23.4 21.5 -16.45" fill="#cccccc" fill-rule="evenodd" stroke="none"/>
    <path d="M12.25 -10.7 Q20.8 -9.3 22.55 -1.15 24.25 -0.55 25.6 0.8 31.45 6.75 24.95 12.15 19.95 16.4 14.7 13.95 13.2 19.85 7.3 22.05 -4.9 26.8 -6.7 13.9 -18.75 16.05 -19.6 4.5 -20.45 -7.1 -8.75 -10.0 L-2.0 -22.4 Q-0.55 -32.25 9.4 -32.5 15.85 -30.6 16.95 -24.2 18.65 -14.7 10.65 -10.85 L12.25 -10.7" fill="#ffffff" fill-rule="evenodd" stroke="none"/>
  </g>
</svg>
