<?xml version="1.0" encoding="UTF-8" standalone="no"?>
<svg xmlns:ffdec="https://www.free-decompiler.com/flash" xmlns:xlink="http://www.w3.org/1999/xlink" ffdec:objectType="shape" height="155.25px" width="137.25px" xmlns="http://www.w3.org/2000/svg">
  <g transform="matrix(1.0, 0.0, 0.0, 1.0, 68.65, 77.65)">
    <path d="M34.75 -57.0 Q25.05 -52.6 21.3 -62.65 17.1 -73.85 28.2 -77.45 29.95 -78.05 31.5 -76.9 42.95 -68.55 34.75 -57.0 M38.55 -5.7 Q37.35 -11.55 31.55 -13.45 31.3 -25.85 19.0 -22.25 15.5 -21.25 14.5 -17.7 L7.35 -15.05 Q-5.45 -27.2 -13.2 -11.85 -13.6 -11.15 -13.65 -10.25 -31.5 0.25 -18.05 14.2 -17.65 27.0 -3.65 24.45 2.15 23.45 3.15 17.4 L10.35 19.8 Q13.65 31.5 26.15 28.05 L26.85 27.85 28.6 9.95 Q41.15 7.35 38.55 -5.7 M48.6 -18.4 Q47.2 -16.6 45.15 -15.55 52.2 -11.6 52.05 -0.45 51.9 9.95 42.75 14.25 L37.4 14.5 42.8 19.85 Q47.5 9.1 58.25 13.05 66.8 16.05 63.6 23.5 59.55 33.05 50.05 31.2 46.5 30.4 43.9 27.8 41.95 36.55 32.65 37.95 L29.55 43.65 Q15.1 50.7 4.3 38.5 L1.35 38.15 Q-4.75 48.8 -14.65 44.2 -27.0 38.3 -24.95 24.55 -41.35 21.0 -40.5 5.8 -39.4 -13.1 -23.55 -11.8 -36.55 -21.1 -30.3 -35.5 -26.6 -44.0 -17.0 -40.6 -10.7 -38.45 -9.7 -31.7 L-5.55 -29.8 -1.85 -32.45 Q-9.65 -51.25 8.35 -58.55 14.7 -61.1 19.1 -54.9 24.0 -48.05 21.4 -40.0 L24.15 -35.95 29.75 -35.0 Q38.8 -44.35 48.55 -36.15 55.4 -27.15 48.6 -18.4 M67.3 -11.15 L66.1 -9.2 Q55.45 -5.35 53.65 -16.45 52.65 -22.1 58.45 -22.95 60.65 -23.25 62.75 -22.5 71.4 -19.45 67.3 -11.15 M17.5 76.45 Q8.3 80.35 5.35 70.95 2.45 61.75 11.55 59.15 13.35 58.6 14.95 59.7 21.25 64.2 20.25 71.6 19.9 73.95 18.15 75.8 L17.5 76.45 M-65.05 -26.85 Q-62.35 -30.25 -58.3 -29.25 -47.05 -26.5 -47.2 -14.5 -47.25 -9.45 -50.65 -5.95 -58.9 -0.85 -65.2 -9.0 -72.15 -17.9 -65.05 -26.85 M3.45 1.85 L2.25 12.5 -9.45 7.45 -4.75 3.0 3.45 1.85 M12.85 -39.7 Q10.35 -41.15 7.8 -40.15 -0.75 -36.9 1.6 -28.0 4.4 -17.0 15.1 -22.35 L16.1 -23.8 Q19.8 -29.3 16.25 -34.55 15.95 -38.0 12.85 -39.7" fill="#cccccc" fill-rule="evenodd" stroke="none"/>
    <path d="M38.55 -5.7 Q41.15 7.35 28.6 9.95 L26.85 27.85 26.15 28.05 Q13.65 31.5 10.35 19.8 L3.15 17.4 Q2.15 23.45 -3.65 24.45 -17.65 27.0 -18.05 14.2 -31.5 0.25 -13.65 -10.25 -13.6 -11.15 -13.2 -11.85 -5.45 -27.2 7.35 -15.05 L14.5 -17.7 Q15.5 -21.25 19.0 -22.25 31.3 -25.85 31.55 -13.45 37.35 -11.55 38.55 -5.7 M12.85 -39.7 Q15.95 -38.0 16.25 -34.55 19.8 -29.3 16.1 -23.8 L15.1 -22.35 Q4.4 -17.0 1.6 -28.0 -0.75 -36.9 7.8 -40.15 10.35 -41.15 12.85 -39.7 M3.45 1.85 L-4.75 3.0 -9.45 7.45 2.25 12.5 3.45 1.85" fill="#ffffff" fill-rule="evenodd" stroke="none"/>
  </g>
</svg>
