<?xml version="1.0" encoding="UTF-8" standalone="no"?>
<svg xmlns:ffdec="https://www.free-decompiler.com/flash" xmlns:xlink="http://www.w3.org/1999/xlink" ffdec:objectType="shape" height="18.3px" width="47.95px" xmlns="http://www.w3.org/2000/svg">
  <g transform="matrix(1.0, 0.0, 0.0, 1.0, 23.25, 15.35)">
    <path d="M3.55 -14.8 L5.3 -15.35 7.4 -13.7 8.75 -13.55 7.4 -11.4 8.45 -9.5 10.2 -9.35 10.85 -7.9 12.05 -6.8 12.1 -7.0 12.1 -7.35 23.8 -8.9 24.7 -7.3 20.45 -6.65 17.75 -7.05 16.8 -6.65 17.9 -5.6 15.5 -6.1 14.35 -5.6 13.1 -3.8 13.85 -2.65 13.2 0.55 11.2 1.0 11.05 -2.75 8.75 -3.3 5.35 -1.8 4.05 -3.7 2.1 -2.3 2.1 -1.75 1.8 -1.4 Q1.15 -1.15 0.75 -1.6 L1.7 -4.5 -1.1 -4.85 -3.55 -3.5 -6.65 -3.55 -8.25 -5.0 -6.9 -6.35 -0.4 -4.9 -0.5 -6.3 0.75 -6.05 6.55 -9.05 6.05 -10.7 3.3 -11.85 0.35 -11.15 -1.75 -9.85 -2.1 -8.6 -2.25 -8.45 -3.05 -8.35 -3.65 -8.95 Q-3.85 -9.3 -4.9 -8.5 -5.3 -8.2 -5.85 -8.1 L-6.25 -8.5 Q-6.1 -9.35 -5.4 -10.05 L-7.15 -11.6 -5.5 -12.35 -3.8 -10.75 -1.5 -11.4 -2.65 -12.5 2.95 -13.55 3.55 -14.8 M7.15 -7.4 Q6.05 -7.4 5.3 -6.9 4.55 -6.4 4.55 -5.7 4.55 -5.0 5.3 -4.5 6.05 -4.0 7.15 -4.0 8.25 -4.0 9.0 -4.5 9.75 -5.0 9.75 -5.7 9.75 -6.4 9.0 -6.9 8.25 -7.4 7.15 -7.4 M1.75 -8.45 L1.45 -7.85 -1.8 -6.7 Q-2.4 -8.85 0.6 -9.55 2.25 -10.1 1.75 -8.45 M0.7 2.3 L-2.6 0.45 -3.7 1.4 Q-3.55 1.6 -3.55 1.85 -3.5 2.3 -3.75 2.6 L-4.4 2.95 -8.3 0.55 -9.85 0.95 -12.2 -0.45 -8.4 -0.7 -7.7 -0.3 -5.85 -2.2 -3.05 -0.85 0.65 -1.05 1.55 1.2 0.7 2.3 M-22.65 -5.55 Q-23.25 -5.9 -23.25 -6.4 -23.25 -6.9 -22.65 -7.2 -22.1 -7.55 -21.3 -7.55 L-19.9 -7.2 Q-19.35 -6.9 -19.35 -6.4 -19.35 -5.9 -19.9 -5.55 L-21.3 -5.25 -22.65 -5.55 M-11.65 -7.2 L-10.4 -7.5 -9.2 -6.7 -9.85 -5.65 -12.0 -4.7 -9.65 -4.05 -12.25 -3.35 -14.0 -4.45 -16.4 -4.25 -17.4 -6.05 Q-18.25 -5.5 -18.75 -7.05 L-18.75 -7.45 -15.25 -7.85 Q-15.15 -9.85 -13.6 -8.5 L-11.85 -9.85 Q-8.7 -11.8 -10.95 -8.2 L-11.65 -7.2" fill="#da2310" fill-rule="evenodd" stroke="none"/>
  </g>
</svg>
