<?xml version="1.0" encoding="UTF-8" standalone="no"?>
<svg xmlns:ffdec="https://www.free-decompiler.com/flash" xmlns:xlink="http://www.w3.org/1999/xlink" ffdec:objectType="shape" height="7.8px" width="15.5px" xmlns="http://www.w3.org/2000/svg">
  <g transform="matrix(1.0, 0.0, 0.0, 1.0, 6.7, 4.75)">
    <path d="M-2.55 -1.15 L-1.5 -0.75 -1.2 -0.6 -0.9 -0.6 -0.6 -0.6 Q-0.85 0.15 -0.7 0.95 L-0.6 1.25 -0.55 1.35 -0.55 -0.6 -0.1 -0.6 -0.4 0.8 -0.45 2.05 -0.4 2.45 -1.6 1.7 -2.05 1.15 -2.9 -0.75 -3.0 -1.1 -2.8 -1.15 -2.7 -1.25 -2.55 -0.4 -2.1 0.3 Q-2.5 -0.4 -2.55 -1.15" fill="#cc0000" fill-rule="evenodd" stroke="none"/>
    <path d="M-0.1 -0.6 L0.2 -0.55 3.7 -0.35 3.5 -0.9 0.25 -1.1 0.1 -1.15 -2.6 -1.85 -2.6 -1.2 -2.55 -1.15 Q-2.5 -0.4 -2.1 0.3 L-2.55 -0.4 -2.7 -1.25 -2.7 -1.9 -3.55 -2.15 -4.65 -2.65 -6.3 -3.75 -6.35 -3.3 -6.1 -3.05 -5.0 -2.15 Q-4.35 -1.55 -3.65 -1.35 L-3.0 -1.1 -2.9 -0.75 -2.05 1.15 -1.6 1.7 -0.4 2.45 -0.45 2.05 -0.4 0.8 -0.1 -0.6 M-0.6 -0.6 L-0.55 -0.6 -0.55 1.35 -0.6 1.25 -0.7 0.95 Q-0.85 0.15 -0.6 -0.6 M7.55 -1.8 L7.55 -2.0 8.5 -2.35 8.55 -2.25 8.8 -1.35 8.55 -0.7 8.4 -0.75 Q7.8 -1.0 7.55 -1.8 M0.55 -1.65 L3.5 -1.5 4.35 -0.15 0.25 -0.35 Q-0.1 0.8 0.05 2.0 L0.1 2.35 0.4 3.05 Q-0.5 2.95 -1.3 2.5 L-2.1 1.8 -2.7 0.9 -3.1 -0.1 -3.45 -1.05 -3.65 -1.1 Q-4.5 -1.35 -5.4 -1.95 L-6.7 -2.7 -6.4 -4.75 Q-6.0 -4.05 -5.2 -3.65 L-3.45 -2.75 -3.4 -2.7 -2.4 -2.35 0.55 -1.65 M8.45 -1.75 Q7.55 -1.7 8.35 -1.25 8.6 -1.1 8.45 -1.75" fill="#65012f" fill-rule="evenodd" stroke="none"/>
    <path d="M-2.55 -1.15 L-2.6 -1.2 -2.6 -1.85 0.1 -1.15 0.25 -1.1 3.5 -0.9 3.7 -0.35 0.2 -0.55 -0.1 -0.6 -0.55 -0.6 -0.6 -0.6 -0.9 -0.6 -1.2 -0.6 -1.5 -0.75 -2.55 -1.15 M-3.0 -1.1 L-3.65 -1.35 Q-4.35 -1.55 -5.0 -2.15 L-6.1 -3.05 -6.35 -3.3 -6.3 -3.75 -4.65 -2.65 -3.55 -2.15 -2.7 -1.9 -2.7 -1.25 -2.8 -1.15 -3.0 -1.1 M8.45 -1.75 Q8.6 -1.1 8.35 -1.25 7.55 -1.7 8.45 -1.75" fill="#ff0000" fill-rule="evenodd" stroke="none"/>
  </g>
</svg>
