<?xml version="1.0" encoding="UTF-8" standalone="no"?>
<svg xmlns:ffdec="https://www.free-decompiler.com/flash" xmlns:xlink="http://www.w3.org/1999/xlink" ffdec:objectType="shape" height="34.05px" width="49.5px" xmlns="http://www.w3.org/2000/svg">
  <g transform="matrix(1.0, 0.0, 0.0, 1.0, 26.1, 33.6)">
    <path d="M11.3 -32.2 L11.85 -33.6 15.8 -32.7 16.2 -30.55 15.4 -29.55 14.05 -29.1 9.5 -20.4 11.8 -19.75 18.7 -24.6 Q19.1 -22.5 18.0 -20.8 L16.75 -19.2 15.9 -18.45 14.85 -17.8 Q18.65 -17.4 21.3 -14.9 L22.4 -13.7 21.55 -12.7 16.6 -14.75 18.45 -9.5 23.05 -8.95 Q20.8 -8.3 18.9 -6.9 L19.55 -6.85 17.3 -5.35 12.2 -4.15 10.95 -3.6 11.15 -4.05 10.7 -4.6 9.5 -4.85 8.35 -4.6 Q7.85 -4.4 7.85 -4.05 7.85 -3.7 8.35 -3.45 L9.5 -3.25 10.2 -3.3 8.0 -2.4 6.1 0.35 3.45 0.45 5.65 -1.15 Q7.85 -1.2 5.55 -2.7 L4.7 -3.15 2.05 -7.35 1.25 -9.55 1.2 -8.05 0.1 -6.7 1.65 -2.1 0.3 -2.85 0.0 -2.45 -3.65 -1.75 -4.25 -2.3 Q-4.5 -2.95 -4.4 -3.65 -11.0 -0.25 -16.2 -5.75 L-15.8 -7.9 -17.65 -3.75 Q-20.1 -6.2 -17.65 -9.85 L-22.75 -4.4 Q-24.5 -7.9 -21.1 -11.15 L-20.4 -11.8 Q-19.05 -11.8 -18.05 -12.7 -17.1 -13.6 -17.1 -14.85 L-22.5 -13.3 -18.65 -16.1 -18.55 -17.15 -19.2 -18.1 -18.3 -18.55 Q-18.7 -18.2 -18.7 -17.8 -18.7 -17.3 -18.1 -16.9 -17.55 -16.55 -16.75 -16.55 -15.95 -16.55 -15.35 -16.9 -14.8 -17.3 -14.8 -17.8 -14.8 -18.3 -15.35 -18.65 -15.95 -19.05 -16.75 -19.05 L-17.4 -18.95 -15.85 -19.75 -14.55 -18.05 -10.6 -20.1 -16.75 -26.7 -9.2 -20.4 -14.75 -30.35 -9.75 -23.75 -8.95 -25.9 -7.4 -26.25 -7.0 -27.25 Q-2.35 -28.5 2.2 -27.8 6.0 -27.05 7.85 -23.7 L11.15 -31.8 11.5 -30.8 6.65 -21.0 7.55 -20.5 13.55 -30.05 15.35 -31.05 12.65 -32.85 11.3 -32.2 M3.1 0.45 L1.95 0.45 1.9 -1.4 2.25 -0.3 3.1 0.45 M-25.1 -8.95 L-26.05 -8.4 -26.1 -10.65 -22.85 -13.0 -25.1 -8.95 M-17.4 -27.0 L-18.45 -27.45 -17.05 -28.75 -17.35 -28.35 -17.4 -27.0 M18.3 -22.7 L18.7 -23.85 12.6 -19.0 Q14.95 -19.0 16.65 -20.05 18.3 -21.15 18.3 -22.7 M6.55 -22.15 Q7.0 -23.5 6.1 -24.6 3.2 -28.0 -1.75 -27.45 L-5.4 -26.25 -5.3 -26.65 -6.15 -26.85 -8.75 -24.4 -6.1 -20.9 -0.35 -18.05 -0.3 -20.25 -1.1 -23.3 -5.6 -22.5 -5.75 -23.65 -4.4 -25.2 0.5 -24.25 -0.5 -23.6 -0.1 -20.3 0.2 -18.0 1.4 -17.95 2.85 -19.6 1.4 -20.55 1.2 -20.7 1.7 -20.55 3.65 -19.7 5.55 -20.4 6.55 -22.15 M0.6 -11.25 L0.65 -11.75 -2.05 -14.05 -5.95 -9.45 -8.2 -10.85 -6.15 -15.7 -3.6 -12.7 -1.8 -18.2 -1.95 -14.45 0.7 -12.0 0.95 -12.9 Q0.95 -15.1 0.15 -16.65 -0.65 -18.2 -1.8 -18.2 -4.35 -19.9 -7.1 -19.65 -16.45 -18.35 -15.7 -9.15 L-14.1 -7.35 -13.9 -4.8 -13.35 -6.45 -12.65 -4.35 -12.3 -5.0 -12.15 -4.6 -12.0 -3.75 -10.9 -3.9 Q-10.65 -3.95 -10.5 -4.1 L-10.4 -3.9 -10.2 -3.65 -8.85 -5.6 -8.85 -3.55 -7.55 -5.25 -7.55 -3.4 -2.7 -9.25 -2.65 -7.6 -5.35 -6.05 -3.35 -5.5 0.25 -8.0 0.6 -11.25 M9.25 -9.85 L9.7 -8.65 12.45 -7.9 14.1 -5.45 14.1 -7.75 14.75 -5.5 15.9 -5.65 15.75 -7.95 16.3 -5.7 16.85 -7.75 17.55 -6.75 13.95 -18.1 8.8 -19.7 2.85 -18.55 4.4 -15.1 8.8 -19.7 8.1 -16.1 4.35 -14.9 3.3 -10.65 2.6 -9.4 3.15 -10.8 2.65 -18.45 1.9 -17.5 0.8 -16.25 2.35 -8.45 4.4 -7.7 5.7 -8.2 5.55 -8.8 Q5.7 -8.3 6.1 -7.9 6.7 -7.25 7.5 -7.3 8.3 -7.4 8.85 -8.15 9.35 -8.9 9.25 -9.85 M5.35 -9.55 L5.0 -10.7 5.4 -9.55 5.5 -9.05 5.35 -9.55 M6.2 -7.1 L5.4 -6.65 Q4.2 -5.55 6.2 -7.1 M6.3 -5.0 Q7.05 -5.55 6.35 -5.5 2.4 -4.55 5.85 -4.65 L6.3 -5.0 M15.55 -10.6 L13.2 -10.9 13.7 -16.75 15.55 -10.6 M-15.4 -16.0 Q-17.0 -16.65 -16.8 -15.6 L-16.65 -15.3 -16.25 -14.25 -16.05 -14.55 -15.4 -16.0 M-16.45 -12.7 L-17.65 -12.4 Q-23.2 -10.15 -22.4 -5.05 L-16.45 -12.7 M-12.7 -16.35 Q-11.75 -16.35 -11.05 -15.5 -10.4 -14.65 -10.4 -13.45 -10.4 -12.25 -11.05 -11.4 -11.75 -10.55 -12.7 -10.55 -13.65 -10.55 -14.3 -11.4 -15.0 -12.25 -15.0 -13.45 -15.0 -14.65 -14.3 -15.5 -13.65 -16.35 -12.7 -16.35 M-12.2 -7.25 Q-12.7 -7.75 -12.7 -8.45 -12.7 -9.15 -12.2 -9.6 -11.75 -10.1 -11.05 -10.1 -10.35 -10.1 -9.85 -9.6 -9.4 -9.15 -9.4 -8.45 -9.4 -7.75 -9.85 -7.25 -10.35 -6.8 -11.05 -6.8 -11.75 -6.8 -12.2 -7.25 M-17.15 -9.55 L-17.85 -4.45 -16.05 -8.2 -17.15 -9.55 M-14.95 -6.0 Q-14.05 -7.1 -15.0 -6.25 L-14.95 -6.0 M-0.6 -6.5 L-1.15 -6.25 -1.4 -5.7 -1.15 -5.1 Q-0.95 -4.9 -0.6 -4.9 L0.0 -5.1 0.2 -5.7 0.0 -6.25 -0.6 -6.5 M-0.65 -3.8 Q-0.55 -4.35 -0.85 -4.75 -1.15 -5.2 -1.6 -5.25 L-2.45 -5.0 -2.9 -4.1 -3.0 -4.0 Q-2.55 -1.7 -0.65 -3.8" fill="#333333" fill-rule="evenodd" stroke="none"/>
    <path d="M11.15 -31.8 L11.15 -32.05 11.3 -32.2 12.65 -32.85 15.35 -31.05 13.2 -30.4 7.55 -20.5 6.65 -21.0 11.5 -30.8 11.15 -31.8 M-25.1 -8.9 L-25.1 -8.95 -22.85 -13.0 -22.5 -13.3 -17.1 -14.85 -25.1 -8.9 M-18.3 -18.55 L-18.1 -18.65 Q-17.8 -18.9 -17.4 -18.95 L-16.75 -19.05 Q-15.95 -19.05 -15.35 -18.65 -14.8 -18.3 -14.8 -17.8 -14.8 -17.3 -15.35 -16.9 -15.95 -16.55 -16.75 -16.55 -17.55 -16.55 -18.1 -16.9 -18.7 -17.3 -18.7 -17.8 -18.7 -18.2 -18.3 -18.55 M-17.05 -28.75 Q-17.05 -29.4 -16.35 -29.85 -15.7 -30.35 -14.75 -30.35 L-9.2 -20.4 -17.35 -28.35 -17.05 -28.75 M12.6 -19.0 L18.7 -23.85 18.3 -22.7 12.6 -19.0 M-6.1 -20.9 L-8.75 -24.4 -6.15 -26.85 -5.3 -26.65 -5.4 -26.25 -1.75 -27.45 Q3.2 -28.0 6.1 -24.6 7.0 -23.5 6.55 -22.15 L1.7 -20.55 1.2 -20.7 1.4 -20.55 -0.1 -20.3 -0.5 -23.6 0.5 -24.25 -4.4 -25.2 -5.75 -23.65 -5.6 -22.5 -1.1 -23.3 -0.3 -20.25 -6.1 -20.9 M-2.7 -9.25 L-7.55 -3.4 -7.55 -5.25 -8.85 -3.55 -8.85 -5.6 -10.2 -3.65 -10.4 -3.9 -10.5 -4.1 Q-10.65 -3.95 -10.9 -3.9 L-12.0 -3.75 -12.15 -4.6 -12.3 -5.0 -12.65 -4.35 -13.35 -6.45 -13.9 -4.8 -14.1 -7.35 -15.7 -9.15 Q-16.45 -18.35 -7.1 -19.65 -4.35 -19.9 -1.8 -18.2 -0.65 -18.2 0.15 -16.65 0.95 -15.1 0.95 -12.9 L0.7 -12.0 -1.95 -14.45 -1.8 -18.2 -3.6 -12.7 -6.15 -15.7 -8.2 -10.85 -5.95 -9.45 -2.05 -14.05 0.65 -11.75 0.6 -11.25 Q0.4 -10.5 -0.3 -9.95 -1.3 -9.25 -2.7 -9.25 M3.3 -10.65 L4.35 -14.9 8.1 -16.1 8.8 -19.7 4.4 -15.1 2.85 -18.55 8.8 -19.7 13.95 -18.1 17.55 -6.75 16.85 -7.75 16.3 -5.7 15.75 -7.95 15.9 -5.65 14.75 -5.5 14.1 -7.75 14.1 -5.45 12.45 -7.9 9.7 -8.65 9.25 -9.85 8.45 -12.25 7.45 -9.6 5.4 -9.55 5.0 -10.7 5.35 -9.55 4.25 -9.7 3.3 -10.65 M1.9 -17.5 L2.65 -18.45 3.15 -10.8 1.9 -17.5 M2.05 -7.35 L4.7 -3.15 5.55 -2.7 Q7.85 -1.2 5.65 -1.15 4.15 -1.15 3.1 -2.95 2.05 -4.8 2.05 -7.35 M15.55 -10.6 L13.7 -16.75 13.2 -10.9 15.55 -10.6 M-16.65 -15.3 L-16.8 -15.6 Q-17.0 -16.65 -15.4 -16.0 L-16.65 -15.3 M-12.2 -7.25 Q-11.75 -6.8 -11.05 -6.8 -10.35 -6.8 -9.85 -7.25 -9.4 -7.75 -9.4 -8.45 -9.4 -9.15 -9.85 -9.6 -10.35 -10.1 -11.05 -10.1 -11.75 -10.1 -12.2 -9.6 -12.7 -9.15 -12.7 -8.45 -12.7 -7.75 -12.2 -7.25 M-12.7 -16.35 Q-13.65 -16.35 -14.3 -15.5 -15.0 -14.65 -15.0 -13.45 -15.0 -12.25 -14.3 -11.4 -13.65 -10.55 -12.7 -10.55 -11.75 -10.55 -11.05 -11.4 -10.4 -12.25 -10.4 -13.45 -10.4 -14.65 -11.05 -15.5 -11.75 -16.35 -12.7 -16.35 M-2.9 -4.1 L-2.45 -5.0 -1.6 -5.25 Q-1.15 -5.2 -0.85 -4.75 -0.55 -4.35 -0.65 -3.8 L-2.9 -4.1" fill="#ffffff" fill-rule="evenodd" stroke="none"/>
    <path d="M23.05 -8.95 L23.4 -9.1 23.35 -8.95 Q23.35 -8.1 22.25 -7.45 21.1 -6.85 19.55 -6.85 L18.9 -6.9 Q20.8 -8.3 23.05 -8.95 M10.95 -3.6 L10.7 -3.45 10.2 -3.3 9.5 -3.25 8.35 -3.45 Q7.85 -3.7 7.85 -4.05 7.85 -4.4 8.35 -4.6 L9.5 -4.85 10.7 -4.6 11.15 -4.05 10.95 -3.6 M3.45 0.45 L3.1 0.45 2.25 -0.3 1.9 -1.4 1.65 -2.1 0.1 -6.7 1.2 -8.05 1.25 -9.55 2.05 -7.35 Q2.05 -4.8 3.1 -2.95 4.15 -1.15 5.65 -1.15 L3.45 0.45 M-20.4 -11.8 L-25.1 -8.9 -17.1 -14.85 Q-17.1 -13.6 -18.05 -12.7 -19.05 -11.8 -20.4 -11.8 M-16.75 -26.7 L-17.4 -27.0 -17.35 -28.35 -9.2 -20.4 -16.75 -26.7 M7.55 -20.5 L13.2 -30.4 15.35 -31.05 13.55 -30.05 7.55 -20.5 M18.3 -22.7 Q18.3 -21.15 16.65 -20.05 14.95 -19.0 12.6 -19.0 L18.3 -22.7 M6.55 -22.15 L5.55 -20.4 3.65 -19.7 1.7 -20.55 6.55 -22.15 M1.4 -20.55 L2.85 -19.6 1.4 -17.95 0.2 -18.0 -0.1 -20.3 1.4 -20.55 M-0.3 -20.25 L-0.35 -18.05 -6.1 -20.9 -0.3 -20.25 M0.6 -11.25 L0.25 -8.0 -3.35 -5.5 -5.35 -6.05 -2.65 -7.6 -2.7 -9.25 Q-1.3 -9.25 -0.3 -9.95 0.4 -10.5 0.6 -11.25 M9.25 -9.85 Q9.35 -8.9 8.85 -8.15 8.3 -7.4 7.5 -7.3 6.7 -7.25 6.1 -7.9 5.7 -8.3 5.55 -8.8 L5.7 -8.2 4.4 -7.7 2.35 -8.45 0.8 -16.25 1.9 -17.5 3.15 -10.8 2.6 -9.4 3.3 -10.65 4.25 -9.7 5.35 -9.55 5.5 -9.05 5.4 -9.55 7.45 -9.6 8.45 -12.25 9.25 -9.85 M6.2 -7.1 Q4.2 -5.55 5.4 -6.65 L6.2 -7.1 M6.3 -5.0 L5.85 -4.65 Q2.4 -4.55 6.35 -5.5 7.05 -5.55 6.3 -5.0 M-16.65 -15.3 L-15.4 -16.0 -16.05 -14.55 -16.25 -14.25 -16.65 -15.3 M-16.45 -12.7 L-22.4 -5.05 Q-23.2 -10.15 -17.65 -12.4 L-16.45 -12.7 M-17.15 -9.55 L-16.05 -8.2 -17.85 -4.45 -17.15 -9.55 M-14.95 -6.0 L-15.0 -6.25 Q-14.05 -7.1 -14.95 -6.0 M-0.6 -6.5 L0.0 -6.25 0.2 -5.7 0.0 -5.1 -0.6 -4.9 Q-0.95 -4.9 -1.15 -5.1 L-1.4 -5.7 -1.15 -6.25 -0.6 -6.5 M-2.9 -4.1 L-0.65 -3.8 Q-2.55 -1.7 -3.0 -4.0 L-2.9 -4.1" fill="#c5c4d2" fill-rule="evenodd" stroke="none"/>
  </g>
</svg>
