<?xml version="1.0" encoding="UTF-8" standalone="no"?>
<svg xmlns:ffdec="https://www.free-decompiler.com/flash" xmlns:xlink="http://www.w3.org/1999/xlink" ffdec:objectType="shape" height="89.45px" width="60.0px" xmlns="http://www.w3.org/2000/svg">
  <g transform="matrix(1.0, 0.0, 0.0, 1.0, 30.0, 74.65)">
    <path d="M7.15 -52.55 L12.3 -65.9 11.85 -62.65 7.35 -50.3 6.3 -52.9 7.15 -52.55 M9.6 -45.85 L15.65 -54.1 10.65 -43.35 10.5 -42.0 6.7 -32.8 9.6 -45.85 M11.3 -42.15 L18.2 -54.2 10.5 -39.1 10.0 -39.0 10.15 -39.85 11.3 -42.15 M13.9 -42.7 L20.9 -48.9 20.3 -47.9 13.4 -41.25 13.9 -42.7 M14.7 -37.0 L15.4 -37.65 22.35 -43.4 15.75 -35.6 14.3 -32.3 8.0 -23.8 11.7 -27.65 13.85 -29.65 15.45 -31.0 17.2 -32.1 16.0 -30.45 14.5 -28.8 10.25 -24.8 5.35 -19.9 5.35 -35.25 5.75 -22.75 7.65 -25.7 14.7 -37.0 M22.8 -39.65 L25.8 -42.8 19.05 -30.95 17.1 -28.45 22.8 -39.65 M21.7 -29.9 L26.1 -32.15 16.25 -25.35 21.7 -29.9 M21.5 -24.5 L29.8 -33.25 19.75 -21.4 20.6 -23.05 21.5 -24.5 M24.65 -22.1 L27.05 -16.8 25.25 -17.45 24.0 -20.6 14.3 -14.8 16.6 -16.95 18.05 -17.9 18.25 -18.05 24.65 -22.1 M-23.6 -18.9 L-26.45 -20.55 -22.9 -19.85 -19.7 -18.95 -16.75 -17.95 -15.25 -17.85 Q-14.45 -17.7 -14.25 -17.4 -14.1 -17.1 -14.65 -16.8 L-16.5 -16.5 -20.4 -17.95 -23.1 -18.75 -23.6 -18.9 M-27.6 -26.6 L-29.4 -27.85 -21.05 -24.55 -16.85 -22.6 -18.3 -22.15 -27.6 -26.6 M-26.95 -36.75 L-28.4 -38.9 -18.1 -28.3 -14.05 -25.85 -9.45 -22.25 -13.2 -23.75 -14.7 -24.85 -17.3 -25.8 -26.95 -36.75 M-21.1 -37.4 L-22.1 -40.6 -15.8 -33.1 -12.8 -29.65 -10.05 -26.8 -7.5 -24.35 -7.1 -23.7 -7.1 -23.5 -21.1 -37.4 M-24.8 -49.3 L-17.85 -45.25 -18.45 -48.75 -12.1 -41.15 -9.85 -39.3 -11.55 -38.5 -14.9 -41.45 -13.3 -38.8 -13.25 -38.65 -10.95 -33.4 -8.85 -29.15 -7.45 -25.35 -9.6 -28.2 -11.4 -31.65 -13.0 -36.1 -13.3 -37.4 -24.8 -49.3 M-18.35 -57.2 L-9.8 -46.55 -8.35 -44.6 -8.65 -46.15 -5.95 -40.05 -5.2 -38.25 -3.15 -33.2 -3.2 -33.2 -3.2 -33.15 -5.7 -36.6 -6.4 -38.15 -6.6 -38.65 -6.95 -39.6 -7.6 -41.55 -18.35 -57.2 M-10.9 -55.45 L-10.65 -55.5 -10.6 -55.4 -10.55 -55.35 -7.95 -52.0 -6.35 -49.85 -4.45 -47.25 -2.0 -44.0 -1.65 -42.6 -10.9 -55.45 M-9.55 -67.95 L-9.35 -69.85 -5.9 -57.9 -4.75 -53.6 -4.9 -52.45 -9.55 -67.95 M-6.0 -67.45 L-3.15 -62.95 -2.15 -57.95 -6.0 -67.45 M-1.6 -65.75 L-2.15 -74.0 -0.65 -66.0 -0.65 -61.25 -1.6 -65.75 M0.2 -65.35 L2.15 -74.65 2.15 -72.45 0.35 -55.85 -0.35 -54.0 0.2 -65.35 M2.15 -63.45 L5.0 -67.45 2.9 -62.6 1.8 -60.65 1.9 -62.8 2.15 -63.45 M3.5 -61.8 L9.35 -69.35 2.35 -57.3 1.65 -57.65 3.5 -61.8 M5.2 -58.8 L6.45 -59.7 5.55 -58.1 4.95 -57.2 3.95 -55.55 2.0 -52.1 1.0 -51.55 0.8 -52.5 1.65 -54.1 3.7 -57.05 4.6 -58.1 5.2 -58.8 M5.65 -57.85 L6.55 -58.85 2.3 -42.35 4.25 -53.9 5.15 -56.65 5.65 -57.85 M4.05 -38.15 L4.7 -39.9 5.6 -40.95 2.65 -30.05 4.05 -38.15 M-1.85 -25.25 L-9.55 -36.7 -8.05 -34.9 -5.2 -31.05 -1.85 -25.25 M13.05 -22.35 L14.95 -24.7 8.55 -12.5 8.25 -14.0 13.05 -22.35 M-2.65 -56.95 L-2.95 -59.05 -2.2 -57.25 0.9 -49.2 -2.65 -56.95 M-8.9 -19.5 L-6.95 -18.55 -3.5 -16.6 -16.15 -22.45 -16.95 -23.1 -16.0 -22.7 -14.05 -21.85 -8.9 -19.5" fill="#999999" fill-rule="evenodd" stroke="none"/>
    <path d="M6.3 -52.9 L7.35 -50.3 11.85 -62.65 8.45 -48.45 9.6 -45.85 6.7 -32.8 10.5 -42.0 10.15 -39.85 10.0 -39.0 9.1 -35.3 8.4 -36.05 7.65 -25.7 5.75 -22.75 5.35 -35.25 5.35 -19.9 10.25 -24.8 6.7 -19.35 8.25 -14.0 8.55 -12.5 14.95 -24.7 13.05 -22.35 14.85 -25.85 14.5 -28.8 16.0 -30.45 Q16.65 -30.45 17.1 -30.85 L17.55 -31.85 22.8 -39.65 17.1 -28.45 19.05 -30.95 18.45 -30.0 18.25 -29.45 Q18.1 -28.45 19.2 -28.6 L21.7 -29.9 16.25 -25.35 26.1 -32.15 20.8 -25.7 19.5 -24.2 20.6 -23.05 19.75 -21.4 29.8 -33.25 24.65 -22.1 18.25 -18.05 19.1 -18.85 17.25 -18.95 15.5 -21.7 14.3 -14.8 24.0 -20.6 25.25 -17.45 28.35 -14.1 28.75 -13.8 28.9 -13.2 27.4 -13.35 28.85 -8.75 26.45 -14.1 24.75 -15.0 23.5 -14.7 24.9 -11.9 24.25 -9.8 26.6 -7.2 25.4 -10.85 30.0 -4.65 30.0 4.45 0.0 14.8 -30.0 4.45 -30.0 -6.4 -26.35 -10.95 -25.55 -5.5 -23.0 -7.6 -23.35 -15.85 -21.3 -16.2 -22.55 -11.15 -21.1 -7.2 -19.1 -16.05 -20.4 -17.95 -16.5 -16.5 -19.05 -6.85 -16.8 -5.65 -15.3 -0.4 -13.1 -4.45 -13.6 -0.55 -11.25 -2.3 -11.75 -7.05 -10.75 -7.3 -10.3 -11.3 -9.3 -7.65 -6.3 -8.45 -5.0 -11.45 -4.2 -10.55 -5.3 -1.0 -5.3 0.6 -2.85 2.8 -2.05 -8.7 -1.05 -6.9 -0.45 -8.05 -0.8 -12.25 -3.0 -13.55 -5.65 -12.95 -7.4 -15.65 -10.95 -17.25 -9.2 -10.2 -12.0 -15.8 -12.15 -9.5 -17.1 -7.05 -13.45 -12.1 -14.05 -14.7 -12.75 -18.05 -15.25 -19.6 -16.75 -17.95 -19.7 -18.95 -17.05 -20.7 -22.1 -22.45 -29.3 -27.25 -27.6 -26.6 -18.3 -22.15 -16.85 -22.6 -16.15 -22.45 -3.5 -16.6 -5.55 -20.85 -6.95 -18.55 -8.9 -19.5 -8.6 -21.15 -9.45 -22.25 -14.05 -25.85 Q-14.05 -27.9 -14.85 -29.35 -15.7 -30.85 -16.9 -30.85 L-21.1 -37.4 -7.1 -23.5 -7.1 -23.7 -7.5 -24.35 -6.75 -25.9 -6.65 -26.4 -7.8 -30.6 -8.85 -29.15 -10.95 -33.4 -10.65 -35.05 -13.2 -38.7 -13.3 -38.8 -14.9 -41.45 -11.55 -38.5 -9.85 -39.3 -9.3 -40.85 -11.1 -43.35 -19.1 -58.25 -18.35 -57.2 -7.6 -41.55 -8.35 -39.55 -6.95 -39.6 -6.6 -38.65 -9.55 -36.7 -1.85 -25.25 -3.75 -39.65 -2.35 -34.15 2.5 -20.05 2.65 -30.05 5.6 -40.95 5.7 -36.7 7.4 -39.85 5.2 -48.25 4.7 -39.9 4.05 -38.15 3.45 -39.75 1.95 -38.3 2.75 -40.3 2.3 -42.35 6.55 -58.85 6.45 -55.3 6.3 -52.9 M18.2 -54.2 L13.9 -42.7 13.4 -41.25 20.3 -47.9 13.8 -38.25 10.05 -30.9 10.5 -39.1 18.2 -54.2 M15.4 -37.65 L18.6 -41.45 17.35 -39.5 22.35 -43.4 15.4 -37.65 M-24.2 -18.1 L-24.0 -18.65 -23.6 -18.9 -23.1 -18.75 -25.45 -14.2 -24.2 -18.1 M-19.85 -26.2 L-26.95 -36.75 -17.3 -25.8 -16.65 -24.45 -19.85 -26.2 M-14.15 -36.7 L-24.8 -49.3 -13.3 -37.4 -13.0 -36.1 -14.15 -36.7 M-8.45 -50.2 L-10.9 -55.45 -1.65 -42.6 -2.0 -44.0 -2.65 -54.2 0.75 -34.6 -4.05 -43.2 -5.2 -38.25 -5.95 -40.05 -4.75 -44.35 -8.45 -50.2 M-10.65 -55.5 L-10.55 -55.35 -10.6 -55.4 -10.65 -55.5 M-7.5 -53.9 L-9.55 -67.95 -4.9 -52.45 -4.75 -53.6 -4.45 -47.25 -6.35 -49.85 -7.5 -53.9 M-4.55 -60.35 L-6.6 -68.4 -6.0 -67.45 -2.15 -57.95 -2.2 -57.25 -2.95 -59.05 -2.65 -56.95 -4.55 -60.35 M2.15 -72.45 L1.9 -63.75 1.9 -62.8 1.8 -60.65 1.65 -57.65 1.65 -54.1 0.8 -52.5 0.35 -55.85 2.15 -72.45 M9.35 -69.35 L4.9 -59.45 4.6 -58.1 3.7 -57.05 2.35 -57.3 9.35 -69.35 M3.95 -55.55 L4.95 -57.2 5.15 -56.65 4.25 -53.9 3.95 -55.55 M1.0 -51.55 L2.0 -52.1 1.8 -49.2 1.0 -51.55 M15.45 -31.0 L13.85 -29.65 13.25 -30.65 11.7 -27.65 8.0 -23.8 14.3 -32.3 15.45 -31.0 M12.85 -24.0 L10.4 -20.65 12.25 -25.45 12.85 -24.0 M18.05 -17.9 L16.6 -16.95 Q16.6 -17.35 17.05 -17.6 L18.05 -17.9 M15.75 -12.65 L15.2 -13.15 Q14.9 -13.15 14.7 -12.65 L14.45 -11.5 Q14.45 -10.8 14.7 -10.3 14.9 -9.85 15.2 -9.85 15.5 -9.85 15.75 -10.3 L15.95 -11.5 15.75 -12.65 M4.65 -13.0 L5.65 -13.2 6.15 -15.05 5.65 -16.85 4.05 -16.3 4.65 -13.0 M2.0 -9.6 L0.85 -7.2 2.1 -1.0 2.65 0.05 5.1 -4.75 3.85 -9.05 2.0 -9.6 M13.4 -9.1 L12.35 -15.2 6.7 -3.05 10.8 -5.3 11.0 -7.9 13.4 -9.1 M18.3 -14.8 L18.95 -8.65 21.25 -17.5 18.3 -14.8 M9.8 -3.9 L7.5 1.1 12.75 -4.95 9.8 -3.9 M23.15 -8.2 L21.85 -10.2 21.75 -4.1 23.15 -8.2 M23.55 -16.5 L23.85 -17.5 23.55 -18.5 Q23.25 -18.9 22.8 -18.9 22.35 -18.9 22.05 -18.5 21.75 -18.1 21.75 -17.5 21.75 -16.9 22.05 -16.5 22.35 -16.1 22.8 -16.1 23.25 -16.1 23.55 -16.5 M-5.7 -36.6 L-5.2 -31.05 -8.05 -34.9 Q-7.35 -34.9 -6.85 -35.85 -6.4 -36.8 -6.4 -38.15 L-5.7 -36.6 M-11.4 -31.65 L-9.6 -28.2 -10.05 -26.8 -12.8 -29.65 -11.4 -31.65 M-14.7 -24.85 L-13.2 -23.75 -14.05 -21.85 -16.0 -22.7 -14.7 -24.85 M-4.85 -26.15 L-3.95 -19.7 -1.55 -20.8 -1.85 -25.0 -4.85 -26.15 M-2.0 -15.1 L-0.05 -13.85 -1.35 -19.65 -2.5 -17.05 -2.0 -15.1" fill="#333333" fill-rule="evenodd" stroke="none"/>
    <path d="M7.15 -52.55 L6.3 -52.9 6.45 -55.3 7.15 -52.55 M10.65 -43.35 L11.3 -42.15 10.15 -39.85 10.5 -42.0 10.65 -43.35 M13.8 -38.25 L14.7 -37.0 7.65 -25.7 8.4 -36.05 9.1 -35.3 10.0 -39.0 10.5 -39.1 10.05 -30.9 13.8 -38.25 M15.75 -35.6 L17.55 -31.85 17.1 -30.85 Q16.65 -30.45 16.0 -30.45 L17.2 -32.1 15.45 -31.0 14.3 -32.3 15.75 -35.6 M18.45 -30.0 L19.2 -28.6 Q18.1 -28.45 18.25 -29.45 L18.45 -30.0 M20.8 -25.7 L21.5 -24.5 20.6 -23.05 19.5 -24.2 20.8 -25.7 M27.05 -16.8 L28.35 -14.1 25.25 -17.45 27.05 -16.8 M28.9 -13.2 L30.0 -4.65 25.4 -10.85 26.6 -7.2 24.25 -9.8 24.9 -11.9 23.5 -14.7 24.75 -15.0 26.45 -14.1 28.85 -8.75 27.4 -13.35 28.9 -13.2 M-30.0 -6.4 L-24.2 -18.1 -25.45 -14.2 -23.1 -18.75 -20.4 -17.95 -19.1 -16.05 -21.1 -7.2 -22.55 -11.15 -21.3 -16.2 -23.35 -15.85 -23.0 -7.6 -25.55 -5.5 -26.35 -10.95 -30.0 -6.4 M-22.9 -19.85 L-22.1 -22.45 -17.05 -20.7 -19.7 -18.95 -22.9 -19.85 M-21.05 -24.55 L-19.85 -26.2 -16.65 -24.45 -17.3 -25.8 -14.7 -24.85 -16.0 -22.7 -16.95 -23.1 -16.15 -22.45 -16.85 -22.6 -21.05 -24.55 M-18.1 -28.3 L-16.9 -30.85 Q-15.7 -30.85 -14.85 -29.35 -14.05 -27.9 -14.05 -25.85 L-18.1 -28.3 M-15.8 -33.1 L-14.15 -36.7 -13.0 -36.1 -11.4 -31.65 -12.8 -29.65 -15.8 -33.1 M-12.1 -41.15 L-11.1 -43.35 -9.3 -40.85 -9.85 -39.3 -12.1 -41.15 M-9.8 -46.55 L-8.45 -50.2 -4.75 -44.35 -5.95 -40.05 -8.65 -46.15 -8.35 -44.6 -9.8 -46.55 M-7.95 -52.0 L-7.5 -53.9 -6.35 -49.85 -7.95 -52.0 M-5.9 -57.9 L-4.55 -60.35 -2.65 -56.95 0.9 -49.2 -2.2 -57.25 -2.15 -57.95 -3.15 -62.95 -1.6 -65.75 -0.65 -61.25 -0.65 -66.0 0.2 -65.35 -0.35 -54.0 0.35 -55.85 0.8 -52.5 1.0 -51.55 1.8 -49.2 2.0 -52.1 3.95 -55.55 4.25 -53.9 2.3 -42.35 2.75 -40.3 1.95 -38.3 3.45 -39.75 4.05 -38.15 2.65 -30.05 2.5 -20.05 -2.35 -34.15 -3.75 -39.65 -1.85 -25.25 -5.2 -31.05 -5.7 -36.6 -3.2 -33.15 -3.2 -33.2 -3.15 -33.2 -5.2 -38.25 -4.05 -43.2 0.75 -34.6 -2.65 -54.2 -2.0 -44.0 -4.45 -47.25 -4.75 -53.6 -5.9 -57.9 M1.9 -63.75 L2.15 -63.45 1.9 -62.8 1.9 -63.75 M2.9 -62.6 L3.5 -61.8 1.65 -57.65 1.8 -60.65 2.9 -62.6 M4.9 -59.45 L5.2 -58.8 4.6 -58.1 4.9 -59.45 M5.55 -58.1 L5.65 -57.85 5.15 -56.65 4.95 -57.2 5.55 -58.1 M2.35 -57.3 L3.7 -57.05 1.65 -54.1 1.65 -57.65 2.35 -57.3 M4.7 -39.9 L5.2 -48.25 7.4 -39.85 5.7 -36.7 5.6 -40.95 4.7 -39.9 M-9.55 -36.7 L-6.6 -38.65 -6.4 -38.15 Q-6.4 -36.8 -6.85 -35.85 -7.35 -34.9 -8.05 -34.9 L-9.55 -36.7 M-6.95 -39.6 L-8.35 -39.55 -7.6 -41.55 -6.95 -39.6 M13.85 -29.65 L11.7 -27.65 13.25 -30.65 13.85 -29.65 M14.5 -28.8 L14.85 -25.85 13.05 -22.35 8.25 -14.0 6.7 -19.35 10.25 -24.8 14.5 -28.8 M14.3 -14.8 L15.5 -21.7 17.25 -18.95 19.1 -18.85 18.25 -18.05 18.05 -17.9 17.05 -17.6 Q16.6 -17.35 16.6 -16.95 L14.3 -14.8 M12.85 -24.0 L12.25 -25.45 10.4 -20.65 12.85 -24.0 M15.75 -12.65 L15.95 -11.5 15.75 -10.3 Q15.5 -9.85 15.2 -9.85 14.9 -9.85 14.7 -10.3 14.45 -10.8 14.45 -11.5 L14.7 -12.65 Q14.9 -13.15 15.2 -13.15 L15.75 -12.65 M4.65 -13.0 L4.05 -16.3 5.65 -16.85 6.15 -15.05 5.65 -13.2 4.65 -13.0 M2.0 -9.6 L3.85 -9.05 5.1 -4.75 2.65 0.05 2.1 -1.0 0.85 -7.2 2.0 -9.6 M13.4 -9.1 L11.0 -7.9 10.8 -5.3 6.7 -3.05 12.35 -15.2 13.4 -9.1 M18.3 -14.8 L21.25 -17.5 18.95 -8.65 18.3 -14.8 M9.8 -3.9 L12.75 -4.95 7.5 1.1 9.8 -3.9 M23.55 -16.5 Q23.25 -16.1 22.8 -16.1 22.35 -16.1 22.05 -16.5 21.75 -16.9 21.75 -17.5 21.75 -18.1 22.05 -18.5 22.35 -18.9 22.8 -18.9 23.25 -18.9 23.55 -18.5 L23.85 -17.5 23.55 -16.5 M23.15 -8.2 L21.75 -4.1 21.85 -10.2 23.15 -8.2 M-13.2 -38.7 L-10.65 -35.05 -10.95 -33.4 -13.25 -38.65 -13.2 -38.7 M-8.85 -29.15 L-7.8 -30.6 -6.65 -26.4 -6.75 -25.9 -7.5 -24.35 -10.05 -26.8 -9.6 -28.2 -7.45 -25.35 -8.85 -29.15 M-9.45 -22.25 L-8.6 -21.15 -8.9 -19.5 -14.05 -21.85 -13.2 -23.75 -9.45 -22.25 M-6.95 -18.55 L-5.55 -20.85 -3.5 -16.6 -6.95 -18.55 M-4.85 -26.15 L-1.85 -25.0 -1.55 -20.8 -3.95 -19.7 -4.85 -26.15 M-16.5 -16.5 L-14.65 -16.8 Q-14.1 -17.1 -14.25 -17.4 -14.45 -17.7 -15.25 -17.85 L-16.75 -17.95 -15.25 -19.6 -12.75 -18.05 -14.05 -14.7 -13.45 -12.1 -17.1 -7.05 -12.15 -9.5 -12.0 -15.8 -9.2 -10.2 -10.95 -17.25 -7.4 -15.65 -5.65 -12.95 -3.0 -13.55 -0.8 -12.25 -0.45 -8.05 -1.05 -6.9 -2.05 -8.7 -2.85 2.8 -5.3 0.6 -5.3 -1.0 -4.2 -10.55 -5.0 -11.45 -6.3 -8.45 -9.3 -7.65 -10.3 -11.3 -10.75 -7.3 -11.75 -7.05 -11.25 -2.3 -13.6 -0.55 -13.1 -4.45 -15.3 -0.4 -16.8 -5.65 -19.05 -6.85 -16.5 -16.5 M-2.0 -15.1 L-2.5 -17.05 -1.35 -19.65 -0.05 -13.85 -2.0 -15.1" fill="#646464" fill-rule="evenodd" stroke="none"/>
  </g>
</svg>
