<?xml version="1.0" encoding="UTF-8" standalone="no"?>
<svg xmlns:ffdec="https://www.free-decompiler.com/flash" xmlns:xlink="http://www.w3.org/1999/xlink" ffdec:objectType="shape" height="74.2px" width="48.8px" xmlns="http://www.w3.org/2000/svg">
  <g transform="matrix(1.0, 0.0, 0.0, 1.0, 24.35, 77.3)">
    <path d="M16.6 -77.3 L16.6 -77.15 16.6 -75.1 Q17.1 -72.15 17.9 -69.4 18.8 -66.35 16.95 -63.85 L17.35 -63.2 Q19.2 -60.7 21.95 -59.3 L21.4 -58.85 Q19.6 -57.9 17.5 -57.85 14.25 -57.8 11.35 -59.15 12.05 -57.3 13.45 -56.0 L14.7 -54.65 Q14.95 -54.3 14.85 -53.75 L14.7 -53.35 15.05 -51.75 Q15.35 -50.7 14.95 -49.65 L14.75 -49.0 14.8 -48.95 14.85 -48.65 14.85 -48.6 15.15 -48.0 Q15.55 -47.1 14.85 -46.45 L14.9 -43.35 15.65 -42.7 16.35 -39.5 16.1 -38.3 16.75 -37.6 17.9 -36.35 18.7 -34.95 18.7 -35.0 Q22.75 -30.5 22.8 -24.5 L22.9 -21.6 22.9 -19.65 22.95 -19.0 Q23.9 -17.9 24.35 -16.45 L24.4 -15.25 Q24.15 -13.7 22.65 -13.55 L19.3 -13.0 18.85 -13.1 Q17.3 -13.35 16.6 -14.9 15.95 -16.5 16.95 -17.85 16.35 -20.6 14.95 -23.1 L14.25 -24.2 13.95 -24.85 Q13.8 -25.5 13.3 -25.8 L12.7 -25.5 11.8 -22.7 13.2 -21.0 14.35 -17.9 14.8 -16.25 15.2 -14.65 Q14.85 -13.75 14.2 -13.05 13.75 -12.6 13.15 -12.3 L10.6 -11.0 9.9 -10.5 11.15 -7.85 11.35 -7.8 13.2 -6.4 Q14.1 -5.35 14.05 -4.0 11.95 -2.7 9.6 -3.25 L7.75 -3.9 2.3 -11.4 2.4 -11.8 2.8 -12.4 3.75 -13.45 4.4 -13.9 3.45 -14.9 2.25 -13.7 1.4 -14.5 0.05 -13.45 -1.35 -14.5 -2.1 -13.7 -3.3 -14.85 -4.3 -13.9 -3.65 -13.45 -3.15 -12.95 -2.4 -11.75 -2.2 -11.4 Q-4.05 -7.85 -6.95 -5.05 L-7.05 -4.85 -7.65 -3.9 Q-10.05 -2.8 -12.4 -3.5 L-13.95 -4.0 -13.75 -5.15 Q-13.15 -6.95 -11.3 -7.8 L-11.05 -7.85 -9.8 -10.5 -12.2 -11.85 Q-14.4 -12.5 -15.1 -14.65 -14.95 -16.4 -14.3 -18.0 L-13.85 -19.15 Q-13.15 -21.2 -11.8 -22.7 L-12.3 -25.3 -13.25 -25.8 -14.9 -23.1 -15.05 -22.8 -16.9 -18.15 -16.3 -16.7 Q-15.85 -15.25 -16.85 -14.15 -17.75 -13.3 -18.9 -13.1 L-22.05 -13.2 Q-23.95 -13.4 -24.3 -15.2 -24.7 -17.45 -22.9 -18.8 L-22.6 -25.95 Q-22.5 -29.25 -20.75 -32.05 L-19.0 -34.5 -18.7 -35.0 Q-17.8 -37.1 -15.8 -38.15 L-16.3 -39.5 -16.2 -40.9 Q-16.1 -42.45 -14.75 -43.25 L-14.75 -46.45 -15.0 -46.95 -15.15 -47.45 -15.0 -47.95 Q-14.75 -48.4 -14.75 -48.95 L-14.85 -49.2 Q-15.5 -50.85 -14.85 -52.5 L-14.65 -53.45 -14.8 -53.75 -14.6 -54.6 -13.5 -56.2 -12.4 -57.55 -11.25 -59.15 Q-12.9 -58.15 -14.75 -58.15 L-17.4 -57.8 Q-19.85 -58.1 -22.15 -59.0 L-16.65 -63.55 Q-19.0 -66.9 -17.55 -70.6 -16.65 -72.95 -16.55 -75.45 L-16.55 -77.05 -16.55 -77.15 Q-16.05 -77.25 -15.4 -76.5 L-14.0 -74.6 -13.1 -72.5 -12.05 -70.0 Q-11.45 -68.95 -10.3 -68.7 L-9.95 -68.55 -8.85 -68.0 -8.25 -68.2 Q-6.05 -68.25 -4.25 -66.7 L-4.1 -66.55 -4.25 -66.55 Q-3.3 -66.1 -2.1 -66.0 L1.7 -66.05 2.2 -65.95 4.05 -66.45 4.15 -66.55 4.05 -66.5 4.35 -66.7 Q6.05 -68.15 8.35 -68.2 L8.9 -67.95 11.05 -69.05 Q12.35 -69.85 12.75 -71.25 L13.1 -72.5 Q13.8 -74.75 15.45 -76.5 L16.6 -77.3 M17.15 -66.05 Q17.8 -67.85 17.25 -69.9 L16.7 -72.25 Q16.25 -74.6 16.4 -76.85 14.5 -75.35 13.8 -73.15 L13.15 -71.15 12.65 -69.8 Q11.75 -68.0 9.95 -67.5 L9.1 -67.3 Q8.1 -66.85 7.6 -65.9 L7.15 -63.95 7.3 -63.75 Q8.2 -62.1 10.0 -61.8 L12.5 -62.0 Q14.35 -62.65 15.6 -63.75 16.65 -64.75 17.15 -66.05 M20.65 -59.45 L17.0 -62.45 16.3 -63.3 12.8 -61.25 17.7 -59.85 18.85 -59.5 12.65 -60.75 11.7 -59.8 Q12.9 -58.55 14.65 -58.6 L17.8 -58.55 21.1 -59.05 20.65 -59.45 M6.8 -63.7 L6.75 -63.95 Q6.7 -65.0 7.15 -65.95 L8.4 -67.6 Q5.45 -67.6 3.7 -65.3 L2.8 -65.4 Q0.2 -65.8 -2.4 -65.45 L-3.6 -65.3 Q-5.35 -67.6 -8.35 -67.6 -5.95 -66.15 -6.75 -63.5 -7.5 -61.55 -9.5 -61.4 L-11.6 -60.85 -10.65 -59.5 -10.7 -59.05 -14.15 -53.95 -9.6 -51.7 -9.75 -51.75 -8.25 -49.3 Q-7.5 -48.0 -7.05 -46.55 L-6.45 -43.6 -6.45 -42.95 Q-7.4 -46.55 -8.9 -49.4 L-9.25 -48.55 Q-9.95 -47.4 -11.0 -46.9 L-11.05 -46.85 -11.95 -46.8 -12.25 -46.85 -12.0 -47.05 -11.6 -47.2 -10.2 -48.15 Q-9.4 -48.75 -9.2 -49.75 L-9.15 -49.85 -9.15 -50.0 -9.3 -50.5 -9.5 -50.3 -9.65 -50.25 -9.7 -50.25 -9.85 -50.25 -9.9 -50.25 Q-10.85 -49.2 -12.3 -48.65 L-12.85 -48.45 -13.05 -48.4 -13.65 -48.25 -14.25 -48.2 -14.55 -47.25 -14.1 -46.5 -14.45 -43.45 -10.5 -43.65 -9.65 -43.4 -8.9 -43.05 -13.6 -42.85 -14.35 -42.55 -15.65 -41.25 Q-15.9 -39.65 -14.9 -38.35 L-14.55 -37.95 -13.55 -37.25 -12.75 -36.85 -10.6 -36.45 -11.25 -36.25 -11.55 -36.2 -11.6 -36.2 -11.6 -36.15 -11.15 -35.05 -8.55 -35.1 Q-9.25 -36.65 -9.25 -38.3 L-10.05 -38.6 -12.2 -39.75 -13.4 -39.6 -13.4 -39.65 -13.35 -39.85 -13.25 -40.05 -13.1 -40.25 -11.75 -40.9 Q-10.1 -40.6 -8.5 -39.8 -7.2 -39.2 -6.35 -38.15 L-6.95 -38.05 -6.35 -36.55 -6.05 -36.1 -4.15 -36.7 -6.25 -36.6 Q-4.8 -37.6 -2.75 -37.2 L0.45 -36.8 2.05 -36.9 Q4.2 -37.45 6.0 -36.95 L6.25 -36.8 4.2 -36.7 6.95 -36.05 7.05 -36.35 7.5 -37.95 6.4 -38.15 Q7.75 -39.5 9.35 -40.1 L11.8 -40.9 13.45 -39.95 13.55 -39.5 12.3 -39.75 11.0 -38.8 10.25 -38.35 10.35 -38.1 Q10.15 -36.7 9.6 -35.4 L11.2 -35.05 11.65 -36.2 11.05 -36.15 10.65 -36.45 12.65 -36.6 14.05 -37.3 Q15.5 -38.1 15.6 -39.55 L15.7 -41.25 Q14.7 -42.95 12.8 -43.2 L8.95 -43.05 Q11.65 -44.35 14.5 -43.45 L14.4 -46.75 14.7 -47.25 14.4 -48.2 12.4 -48.65 Q11.5 -49.0 10.8 -49.6 L10.0 -50.2 9.95 -50.25 9.75 -50.25 9.55 -50.25 9.45 -50.4 9.2 -50.0 Q9.6 -48.9 10.25 -48.15 L10.3 -48.15 10.45 -47.95 10.95 -47.5 12.8 -46.7 11.85 -46.85 11.25 -47.15 11.3 -47.15 10.55 -47.7 10.5 -47.75 10.05 -48.15 9.2 -49.15 9.05 -49.3 9.0 -49.4 9.0 -49.35 7.7 -46.95 Q7.15 -45.25 6.75 -43.3 L6.55 -42.8 Q6.45 -44.8 6.95 -46.5 7.45 -48.35 8.45 -49.75 L9.9 -51.75 9.8 -51.75 14.1 -53.8 10.85 -59.3 11.65 -60.85 8.75 -61.5 Q7.0 -62.0 6.8 -63.7 M0.75 -52.8 L2.1 -54.25 5.2 -56.65 6.05 -57.1 6.95 -57.35 7.35 -57.4 6.95 -57.2 6.8 -57.1 1.4 -53.4 0.75 -52.8 M-7.4 -56.95 L-4.8 -56.55 Q-3.15 -56.2 -1.75 -55.15 -0.55 -54.2 0.1 -52.7 L-0.25 -53.05 -1.8 -54.45 Q-3.0 -55.35 -4.4 -55.9 L-7.4 -56.95 M8.6 -59.2 L0.35 -60.95 2.2 -61.05 3.4 -60.85 4.7 -60.45 Q5.2 -60.45 5.4 -60.15 L8.6 -59.2 M13.9 -53.0 L10.4 -51.45 10.4 -50.75 10.55 -50.5 Q12.1 -48.85 14.15 -49.35 L14.5 -50.2 Q15.2 -51.8 13.9 -53.0 M17.3 -23.4 L17.9 -23.4 18.3 -23.4 18.4 -23.45 18.6 -23.5 Q20.7 -23.65 22.3 -24.9 L21.4 -29.6 Q20.1 -32.1 18.45 -34.15 L18.1 -34.6 Q17.35 -36.5 15.65 -37.7 15.05 -37.45 14.45 -37.0 13.9 -36.55 13.15 -36.45 L12.4 -36.2 12.35 -34.95 11.95 -34.6 Q11.3 -32.0 8.7 -31.3 L6.25 -31.35 5.5 -31.55 Q1.6 -29.95 -2.65 -30.55 -4.05 -30.75 -5.35 -31.45 L-6.55 -31.25 -9.15 -31.55 Q-11.3 -32.25 -12.0 -34.6 L-12.2 -35.25 -12.35 -36.2 Q-13.55 -36.2 -14.4 -36.85 L-15.4 -37.7 Q-17.45 -36.7 -18.35 -34.6 L-18.65 -34.0 -20.15 -31.65 Q-22.25 -28.65 -22.2 -24.9 -20.55 -23.55 -18.5 -23.5 L-18.3 -23.45 -17.45 -23.4 -16.65 -23.55 Q-16.2 -23.7 -15.8 -23.95 -14.4 -24.7 -13.7 -26.05 L-14.6 -28.45 -14.45 -30.1 -13.9 -32.1 -13.6 -32.65 Q-14.3 -30.8 -14.0 -29.0 L-13.45 -27.05 Q-13.2 -26.4 -12.65 -26.1 -12.0 -25.7 -11.25 -25.55 L-10.55 -25.5 Q-7.65 -25.55 -5.65 -27.35 L-4.65 -27.9 -1.1 -30.2 -0.95 -30.3 -1.0 -30.2 -1.8 -29.45 -2.05 -29.2 -2.6 -28.75 -4.35 -27.65 -6.25 -26.55 Q-8.75 -25.05 -11.6 -25.05 L-11.9 -25.1 -11.55 -23.55 -10.85 -22.3 Q-9.45 -20.35 -7.05 -19.8 L-3.35 -19.1 2.6 -18.95 Q5.8 -19.35 8.55 -20.6 L9.85 -21.35 10.8 -22.05 11.35 -22.95 12.0 -25.05 Q10.25 -24.9 8.6 -25.55 6.05 -26.4 3.75 -27.9 L2.85 -28.55 2.3 -29.1 1.0 -30.3 4.8 -27.65 Q6.4 -26.65 8.65 -25.95 L12.05 -25.7 Q13.2 -26.2 13.4 -26.65 L13.9 -28.05 Q14.45 -30.25 13.7 -32.65 14.5 -31.05 14.7 -29.05 L14.75 -28.8 Q14.7 -27.55 14.45 -27.2 L14.05 -26.6 13.7 -26.05 14.55 -25.05 Q15.6 -23.7 17.3 -23.4 M9.35 -26.4 L9.15 -27.1 Q9.15 -27.6 9.5 -27.9 9.8 -28.25 10.3 -28.25 10.8 -28.25 11.15 -27.9 L11.45 -27.1 11.45 -27.0 11.45 -26.9 11.35 -26.5 11.1 -26.3 10.65 -26.05 9.9 -26.05 9.35 -26.4 M9.45 -36.7 L9.55 -38.4 Q9.15 -39.35 8.4 -38.25 L7.95 -36.65 7.65 -35.85 7.3 -35.25 5.8 -33.95 5.6 -33.8 3.35 -32.85 1.6 -32.35 1.1 -32.3 -1.3 -32.35 -2.45 -32.6 -3.5 -32.95 Q-4.5 -33.35 -5.25 -34.0 L-6.5 -35.6 -6.65 -35.85 -7.1 -36.85 -7.7 -38.8 -8.55 -38.85 -8.7 -38.15 Q-8.8 -37.45 -8.5 -36.6 L-8.4 -36.3 -8.25 -35.95 -7.9 -35.35 -7.8 -35.15 -6.55 -33.6 -6.25 -33.3 -5.55 -32.65 -4.2 -31.75 Q-2.35 -30.8 0.05 -30.9 L4.15 -31.4 5.0 -31.7 5.9 -32.15 Q6.65 -32.55 7.25 -33.1 L8.7 -34.85 9.05 -35.55 9.35 -36.25 9.45 -36.6 9.45 -36.7 M10.0 -32.7 Q10.55 -33.25 10.65 -34.0 L10.5 -34.15 9.3 -34.7 9.25 -34.7 8.7 -33.85 7.95 -32.9 6.65 -32.1 6.45 -32.0 Q8.4 -31.4 10.0 -32.7 M5.05 -34.05 L6.25 -34.75 6.7 -35.45 5.55 -35.85 2.0 -36.25 0.85 -36.25 -2.2 -36.1 -2.35 -36.1 -5.45 -35.85 -5.6 -35.8 -5.85 -35.75 -4.5 -34.4 Q-3.85 -33.9 -3.0 -33.5 L-2.15 -33.1 -1.9 -33.15 1.4 -33.35 2.3 -33.1 5.05 -34.05 M1.0 -30.3 L0.95 -30.35 1.0 -30.3 M1.1 -20.3 L1.05 -20.3 0.05 -21.05 -1.05 -20.2 -1.1 -20.2 -0.35 -21.3 -0.9 -22.1 0.05 -21.65 0.7 -22.4 Q1.15 -22.1 0.85 -21.8 L0.45 -21.35 1.1 -20.3 M9.5 -27.15 Q9.5 -26.8 9.75 -26.55 L10.05 -26.4 10.35 -26.35 10.8 -26.45 10.75 -26.45 10.95 -26.55 11.2 -27.15 10.95 -27.7 10.35 -27.95 9.75 -27.7 Q9.5 -27.5 9.5 -27.15 M19.15 -18.75 L21.9 -19.1 22.35 -20.35 22.15 -24.2 Q20.9 -23.05 19.15 -22.75 L17.95 -22.75 16.15 -22.8 17.85 -18.6 19.15 -18.75 M6.6 -18.0 L7.15 -17.3 8.5 -16.8 8.75 -18.4 10.6 -17.75 Q10.95 -18.45 10.95 -19.2 L11.15 -19.15 Q11.65 -19.2 10.55 -20.4 L12.4 -18.55 12.45 -18.85 12.6 -19.45 Q12.7 -19.75 13.05 -19.75 12.6 -21.15 11.4 -22.15 L11.3 -22.1 10.75 -21.6 11.7 -20.55 10.55 -21.2 10.45 -21.25 7.05 -19.45 7.7 -18.4 6.95 -19.4 3.1 -18.6 3.3 -17.95 3.15 -17.35 2.85 -18.6 0.4 -18.6 0.4 -17.3 0.05 -18.6 -0.2 -17.35 -0.35 -18.6 -2.75 -18.6 -3.05 -17.35 -3.0 -18.6 -6.85 -19.4 -7.45 -18.5 -7.0 -19.45 -10.4 -21.25 -10.6 -21.1 -11.5 -20.45 -10.7 -21.6 -11.15 -22.05 -13.05 -19.8 -12.55 -19.55 Q-12.7 -19.1 -12.35 -18.7 L-12.35 -18.65 -12.3 -18.65 -10.6 -20.4 -11.1 -19.15 Q-10.35 -19.4 -10.6 -17.9 L-10.5 -17.75 -8.7 -18.4 -8.4 -16.8 -7.15 -17.3 -6.9 -17.65 -6.2 -18.7 -6.6 -17.6 -6.85 -17.0 -6.5 -16.1 -5.15 -16.55 -4.4 -14.85 -3.3 -15.5 -3.0 -15.2 -2.25 -14.4 -1.55 -15.35 -1.4 -16.15 -1.2 -17.55 -1.25 -16.1 -1.3 -15.4 -0.35 -14.15 0.4 -14.1 1.3 -15.35 1.3 -16.0 1.25 -17.55 1.45 -16.05 1.5 -15.4 2.3 -14.4 3.1 -15.2 3.35 -15.5 4.45 -14.85 5.2 -16.55 6.5 -16.0 6.9 -17.0 6.45 -18.0 6.25 -18.45 6.6 -18.0 M7.7 -18.4 L7.7 -18.35 7.65 -18.4 7.7 -18.4 M7.15 -16.15 L6.8 -15.6 6.35 -15.45 5.55 -15.85 5.3 -14.0 5.05 -13.85 Q3.75 -12.95 3.15 -11.75 L3.2 -11.6 Q2.9 -10.85 3.75 -9.85 L6.85 -6.3 Q7.1 -6.0 7.45 -5.8 L7.55 -5.8 8.25 -6.45 Q9.15 -7.4 10.55 -7.7 L9.55 -10.3 6.5 -10.45 Q9.1 -10.4 11.2 -11.65 L13.1 -12.95 13.1 -13.0 14.55 -14.15 14.5 -14.7 12.85 -19.1 12.7 -18.05 11.2 -18.8 10.65 -17.2 8.95 -17.9 8.7 -16.3 7.55 -16.85 7.15 -16.15 M24.05 -16.2 Q24.0 -17.15 23.05 -17.8 22.0 -18.55 20.55 -18.55 L20.45 -18.55 19.95 -18.5 19.15 -18.3 Q18.25 -18.15 17.7 -17.4 L17.2 -16.45 Q16.8 -15.45 17.7 -14.6 19.15 -13.3 21.3 -13.45 22.65 -13.7 23.5 -14.55 24.15 -15.25 24.05 -16.2 M1.55 -23.35 L1.55 -23.4 1.6 -23.35 1.55 -23.35 M2.4 -16.3 L2.35 -16.4 2.4 -16.85 2.5 -16.25 2.65 -15.25 2.4 -16.3 M8.15 -5.0 L9.2 -4.05 10.2 -3.9 Q11.95 -3.55 13.0 -4.55 13.2 -6.0 12.1 -6.8 L9.25 -6.95 Q8.05 -6.25 8.15 -5.0 M-7.3 -64.05 L-7.3 -64.4 -7.3 -64.5 -7.5 -65.75 -9.0 -67.4 Q-9.9 -67.45 -10.65 -67.85 -12.25 -68.65 -12.8 -70.45 -13.55 -72.8 -14.6 -74.9 -15.2 -76.15 -16.4 -76.75 L-16.35 -75.1 Q-16.3 -72.45 -17.0 -69.9 L-17.35 -67.3 Q-17.3 -65.85 -16.55 -64.75 L-15.9 -64.05 Q-14.7 -62.8 -12.95 -62.2 L-9.7 -61.65 Q-7.65 -62.0 -7.3 -64.05 M-20.6 -59.4 L-21.05 -59.05 -20.55 -58.95 -15.95 -58.6 -13.3 -58.9 Q-12.2 -58.85 -11.65 -59.8 L-12.6 -60.75 -18.8 -59.5 -15.8 -60.35 -15.75 -60.35 -12.75 -61.25 -16.2 -63.3 -17.1 -62.2 -20.6 -59.4 M-10.3 -50.75 L-10.3 -51.45 -13.85 -53.0 Q-15.1 -51.45 -14.15 -49.6 L-14.05 -49.35 Q-12.0 -48.8 -10.5 -50.5 L-10.3 -50.75 M-2.6 -60.6 L-4.75 -59.95 -8.2 -59.2 -8.15 -59.25 -7.2 -59.55 -2.9 -60.7 -0.55 -61.0 -2.6 -60.6 M-10.75 -26.15 L-10.9 -26.25 Q-11.25 -26.6 -11.25 -27.1 -11.25 -27.6 -10.9 -27.9 -10.6 -28.25 -10.15 -28.25 -9.7 -28.25 -9.35 -27.9 -9.05 -27.6 -9.05 -27.1 -9.05 -26.6 -9.35 -26.25 L-9.4 -26.2 -9.7 -26.05 -9.95 -25.95 -10.15 -25.95 -10.75 -26.15 M-7.15 -32.85 L-8.2 -34.4 -8.45 -34.9 -9.9 -34.25 -10.5 -34.0 -10.55 -34.0 Q-10.6 -33.35 -9.95 -32.8 L-9.15 -32.35 -9.05 -32.3 -7.45 -32.45 -6.8 -32.5 -7.15 -32.85 M-11.05 -27.15 L-10.8 -26.55 -10.2 -26.35 -9.6 -26.55 Q-9.35 -26.8 -9.35 -27.15 L-9.6 -27.7 -10.2 -27.95 -10.8 -27.7 -11.05 -27.15 M-17.35 -22.85 L-19.05 -23.05 Q-20.25 -23.2 -21.35 -23.65 L-22.15 -24.0 -22.05 -23.8 -22.0 -23.8 -22.25 -20.35 -21.8 -19.1 -18.8 -18.7 -17.6 -18.65 -16.0 -22.75 -16.0 -22.85 -16.1 -22.8 -17.35 -22.85 M-18.2 -18.0 Q-19.15 -18.55 -20.4 -18.55 -21.85 -18.55 -22.85 -17.8 L-23.5 -17.2 Q-24.5 -15.9 -23.2 -14.65 -21.85 -13.3 -19.65 -13.55 -18.75 -13.75 -17.95 -14.35 L-17.3 -15.1 Q-16.45 -16.95 -18.2 -18.0 M-1.5 -23.35 L-1.5 -23.4 -1.45 -23.35 -1.5 -23.35 M-3.05 -11.6 L-3.2 -12.2 -5.25 -14.0 -5.1 -14.4 -5.15 -15.15 -5.45 -15.85 -6.25 -15.45 -6.75 -15.6 -6.85 -15.75 -7.45 -16.85 -8.65 -16.3 -8.9 -17.9 -10.6 -17.2 -11.15 -18.8 -12.65 -18.05 -12.75 -19.1 -13.85 -16.7 Q-14.3 -15.5 -14.4 -14.15 L-14.3 -14.0 -13.85 -13.65 -11.05 -11.75 Q-8.85 -10.4 -6.2 -10.45 L-9.45 -10.3 -10.5 -7.7 -9.55 -7.35 -7.5 -5.8 -6.85 -6.4 Q-4.85 -8.2 -3.25 -10.5 -2.9 -11.0 -3.15 -11.3 L-3.1 -11.6 -3.05 -11.45 -3.05 -11.6 M-2.3 -16.2 L-2.55 -15.25 -2.4 -16.2 -2.35 -16.85 -2.3 -16.35 -2.3 -16.2 M-12.95 -4.55 Q-11.15 -3.5 -9.2 -4.2 L-8.8 -4.3 -8.0 -5.0 Q-8.25 -6.7 -9.9 -7.2 L-10.95 -7.3 -11.1 -7.35 Q-12.85 -6.65 -12.95 -4.85 L-12.95 -4.55" fill="#000000" fill-rule="evenodd" stroke="none"/>
    <path d="M7.3 -63.75 L7.15 -63.95 7.6 -65.9 Q8.1 -66.85 9.1 -67.3 L9.95 -67.5 Q11.75 -68.0 12.65 -69.8 L13.15 -71.15 13.8 -73.15 Q14.5 -75.35 16.4 -76.85 16.25 -74.6 16.7 -72.25 L17.25 -69.9 Q17.8 -67.85 17.15 -66.05 16.1 -67.4 14.4 -66.5 L10.95 -64.85 7.3 -63.75 M-16.55 -64.75 Q-17.3 -65.85 -17.35 -67.3 L-17.0 -69.9 Q-16.3 -72.45 -16.35 -75.1 L-16.4 -76.75 Q-15.2 -76.15 -14.6 -74.9 -13.55 -72.8 -12.8 -70.45 -12.25 -68.65 -10.65 -67.85 -9.9 -67.45 -9.0 -67.4 L-7.5 -65.75 -7.3 -64.5 -7.3 -64.4 -7.3 -64.05 Q-9.1 -64.4 -10.8 -64.9 L-12.9 -65.6 -15.7 -66.65 -15.9 -66.6 -16.35 -65.9 -16.55 -65.25 -16.55 -64.75" fill="#ffffff" fill-rule="evenodd" stroke="none"/>
    <path d="M17.95 -22.75 L19.15 -22.75 Q20.9 -23.05 22.15 -24.2 L22.35 -20.35 21.9 -19.1 19.15 -18.75 17.95 -22.75 M10.55 -21.2 L11.7 -20.55 10.75 -21.6 11.3 -22.1 11.4 -22.15 Q12.6 -21.15 13.05 -19.75 12.7 -19.75 12.6 -19.45 L12.45 -18.85 12.4 -18.55 10.55 -20.4 Q11.65 -19.2 11.15 -19.15 L10.95 -19.2 Q10.95 -18.45 10.6 -17.75 L8.75 -18.4 8.5 -16.8 7.15 -17.3 6.6 -18.0 6.7 -18.05 Q7.25 -18.1 7.65 -18.4 L7.7 -18.35 7.7 -18.4 8.15 -18.95 8.3 -18.95 Q9.5 -19.55 10.35 -20.5 10.75 -20.95 10.55 -21.2 M6.45 -18.0 L6.9 -17.0 6.5 -16.0 5.2 -16.55 4.45 -14.85 3.35 -15.5 3.1 -15.2 2.3 -14.4 1.5 -15.4 1.45 -16.05 1.55 -16.15 2.35 -16.3 2.4 -16.3 2.65 -15.25 2.5 -16.25 Q3.35 -16.2 3.85 -16.75 4.85 -16.7 5.7 -17.55 L6.45 -18.0 M1.3 -16.0 L1.3 -15.35 0.4 -14.1 -0.35 -14.15 -1.3 -15.4 -1.25 -16.1 -0.55 -16.1 -0.1 -15.9 1.3 -16.0 M-1.4 -16.15 L-1.55 -15.35 -2.25 -14.4 -3.0 -15.2 -3.3 -15.5 -4.4 -14.85 -5.15 -16.55 -6.5 -16.1 -6.85 -17.0 -6.6 -17.6 -6.2 -17.6 -6.1 -17.45 Q-5.4 -16.9 -4.45 -17.25 L-4.15 -17.05 -3.55 -16.5 -2.4 -16.2 -2.55 -15.25 -2.3 -16.2 -1.75 -16.4 -1.4 -16.15 M-6.9 -17.65 L-7.15 -17.3 -8.4 -16.8 -8.7 -18.4 -10.5 -17.75 -10.6 -17.9 Q-10.35 -19.4 -11.1 -19.15 L-10.6 -20.4 -12.3 -18.65 -12.35 -18.7 Q-12.7 -19.1 -12.55 -19.55 L-13.05 -19.8 -11.15 -22.05 -10.7 -21.6 -11.5 -20.45 -10.6 -21.1 Q-9.85 -19.4 -8.05 -18.75 L-7.85 -18.6 Q-7.55 -17.85 -6.9 -17.65 M-18.8 -18.7 L-21.8 -19.1 -22.25 -20.35 -22.0 -23.8 -22.05 -23.8 -22.15 -24.0 -21.35 -23.65 Q-20.25 -23.2 -19.05 -23.05 L-17.35 -22.85 -18.8 -18.7" fill="#9e8c78" fill-rule="evenodd" stroke="none"/>
    <path d="M19.15 -18.75 L17.85 -18.6 16.15 -22.8 17.95 -22.75 19.15 -18.75 M10.55 -21.2 Q10.75 -20.95 10.35 -20.5 9.5 -19.55 8.3 -18.95 L8.15 -18.95 7.7 -18.4 7.05 -19.45 10.45 -21.25 10.55 -21.2 M7.65 -18.4 Q7.25 -18.1 6.7 -18.05 L6.6 -18.0 6.25 -18.45 6.45 -18.0 5.7 -17.55 Q4.85 -16.7 3.85 -16.75 3.35 -16.2 2.5 -16.25 L2.4 -16.85 2.35 -16.4 2.4 -16.3 2.35 -16.3 1.55 -16.15 1.45 -16.05 1.25 -17.55 1.3 -16.0 -0.1 -15.9 -0.55 -16.1 -1.25 -16.1 -1.2 -17.55 -1.4 -16.15 -1.75 -16.4 -2.3 -16.2 -2.3 -16.35 -2.35 -16.85 -2.4 -16.2 -3.55 -16.5 -4.15 -17.05 -4.45 -17.25 Q-5.4 -16.9 -6.1 -17.45 L-6.2 -17.6 -6.6 -17.6 -6.2 -18.7 -6.9 -17.65 Q-7.55 -17.85 -7.85 -18.6 L-8.05 -18.75 Q-9.85 -19.4 -10.6 -21.1 L-10.4 -21.25 -7.0 -19.45 -7.45 -18.5 -6.85 -19.4 -3.0 -18.6 -3.05 -17.35 -2.75 -18.6 -0.35 -18.6 -0.2 -17.35 0.05 -18.6 0.4 -17.3 0.4 -18.6 2.85 -18.6 3.15 -17.35 3.3 -17.95 3.1 -18.6 6.95 -19.4 7.7 -18.4 7.65 -18.4 M8.15 -5.0 Q8.05 -6.25 9.25 -6.95 L12.1 -6.8 Q13.2 -6.0 13.0 -4.55 11.95 -3.55 10.2 -3.9 L9.2 -4.05 8.15 -5.0 M-18.8 -18.7 L-17.35 -22.85 -16.1 -22.8 -16.0 -22.75 -17.6 -18.65 -18.8 -18.7 M-12.95 -4.55 L-12.95 -4.85 Q-12.85 -6.65 -11.1 -7.35 L-10.95 -7.3 -9.9 -7.2 Q-8.25 -6.7 -8.0 -5.0 L-8.8 -4.3 -9.2 -4.2 Q-11.15 -3.5 -12.95 -4.55" fill="#6c623e" fill-rule="evenodd" stroke="none"/>
    <path d="M10.5 -47.75 L10.55 -47.7 10.5 -47.7 10.5 -47.75 M10.45 -47.95 L10.3 -48.15 10.35 -48.15 10.45 -47.95 M-13.1 -40.25 L-13.25 -40.05 -13.35 -39.85 -13.4 -39.65 -13.3 -40.05 -13.1 -40.25 M-13.05 -48.4 L-12.85 -48.45 -13.05 -48.4 M1.05 -20.3 L-1.05 -20.2 0.05 -21.05 1.05 -20.3 M-9.35 -26.25 L-9.35 -26.2 -9.4 -26.2 -9.35 -26.25" fill="#c19fb1" fill-rule="evenodd" stroke="none"/>
    <path d="M13.9 -53.0 Q15.2 -51.8 14.5 -50.2 L14.15 -49.35 Q12.1 -48.85 10.55 -50.5 L10.4 -50.75 10.4 -51.45 13.9 -53.0 M-10.3 -50.75 L-10.5 -50.5 Q-12.0 -48.8 -14.05 -49.35 L-14.15 -49.6 Q-15.1 -51.45 -13.85 -53.0 L-10.3 -51.45 -10.3 -50.75" fill="#ef5c70" fill-rule="evenodd" stroke="none"/>
    <path d="M9.0 -49.35 L9.0 -49.4 9.05 -49.3 9.0 -49.35 M-6.25 -36.6 L-4.15 -36.7 -6.05 -36.1 -6.35 -36.55 -6.25 -36.6 M-11.05 -46.85 L-11.0 -46.9 -11.0 -46.85 -11.05 -46.85 M0.75 -52.8 L1.4 -53.4 Q1.4 -53.1 1.05 -52.9 L0.8 -52.8 0.75 -52.8 M6.95 -57.35 L6.05 -57.1 6.0 -57.25 6.95 -57.35 M6.25 -31.35 L3.3 -30.6 1.0 -30.3 -1.0 -30.2 -0.95 -30.3 -1.1 -30.2 -3.85 -30.6 -6.55 -31.25 -5.35 -31.45 Q-4.05 -30.75 -2.65 -30.55 1.6 -29.95 5.5 -31.55 L6.25 -31.35 M1.0 -30.3 L0.95 -30.35 1.0 -30.3 M2.85 -28.55 L2.75 -28.45 2.3 -29.1 2.85 -28.55 M-14.25 -14.05 L-14.3 -14.0 -14.25 -14.05" fill="#a2718e" fill-rule="evenodd" stroke="none"/>
    <path d="M17.7 -59.85 L20.65 -59.45 21.1 -59.05 17.8 -58.55 14.65 -58.6 Q12.9 -58.55 11.7 -59.8 L12.65 -60.75 18.85 -59.5 17.7 -59.85 M-15.8 -60.35 L-18.8 -59.5 -12.6 -60.75 -11.65 -59.8 Q-12.2 -58.85 -13.3 -58.9 L-15.95 -58.6 -20.55 -58.95 -21.05 -59.05 -20.6 -59.4 -20.05 -59.55 -18.1 -59.9 -15.8 -60.35" fill="#e1d2dc" fill-rule="evenodd" stroke="none"/>
    <path d="M17.15 -66.05 Q16.65 -64.75 15.6 -63.75 14.35 -62.65 12.5 -62.0 L10.0 -61.8 Q8.2 -62.1 7.3 -63.75 L10.95 -64.85 14.4 -66.5 Q16.1 -67.4 17.15 -66.05 M-16.55 -64.75 L-16.55 -65.25 -16.35 -65.9 -15.9 -66.6 -15.7 -66.65 -12.9 -65.6 -10.8 -64.9 Q-9.1 -64.4 -7.3 -64.05 -7.65 -62.0 -9.7 -61.65 L-12.95 -62.2 Q-14.7 -62.8 -15.9 -64.05 L-16.55 -64.75" fill="#c5c4d2" fill-rule="evenodd" stroke="none"/>
    <path d="M7.95 -36.65 L8.4 -38.25 Q9.15 -39.35 9.55 -38.4 L9.45 -36.7 9.4 -36.7 9.45 -36.6 9.35 -36.25 8.55 -36.9 7.95 -36.65 M-8.4 -36.3 L-8.5 -36.6 Q-8.8 -37.45 -8.7 -38.15 L-8.55 -38.85 -7.7 -38.8 -7.1 -36.85 -8.0 -36.7 -8.4 -36.3" fill="#ccc1b7" fill-rule="evenodd" stroke="none"/>
    <path d="M9.45 -36.7 L9.45 -36.6 9.4 -36.7 9.45 -36.7 M9.35 -36.25 L9.05 -35.55 8.7 -34.85 7.25 -33.1 Q6.65 -32.55 5.9 -32.15 L5.0 -31.7 4.15 -31.4 0.05 -30.9 Q-2.35 -30.8 -4.2 -31.75 L-5.55 -32.65 -6.25 -33.3 -6.55 -33.6 -7.8 -35.15 -7.9 -35.35 -8.25 -35.95 -8.4 -36.3 -8.0 -36.7 -7.1 -36.85 -6.65 -35.85 -6.5 -35.6 -5.25 -34.0 Q-4.5 -33.35 -3.5 -32.95 L-2.45 -32.6 -1.3 -32.35 1.1 -32.3 1.6 -32.35 3.35 -32.85 5.6 -33.8 5.8 -33.95 7.3 -35.25 7.65 -35.85 7.95 -36.65 8.55 -36.9 9.35 -36.25" fill="#e1d7c8" fill-rule="evenodd" stroke="none"/>
    <path d="M17.7 -59.85 L12.8 -61.25 16.3 -63.3 17.0 -62.45 20.65 -59.45 17.7 -59.85 M-6.75 -63.5 Q-5.95 -66.15 -8.35 -67.6 -5.35 -67.6 -3.6 -65.3 L-2.4 -65.45 Q0.2 -65.8 2.8 -65.4 L3.7 -65.3 Q5.45 -67.6 8.4 -67.6 L7.15 -65.95 Q6.7 -65.0 6.75 -63.95 L6.8 -63.7 Q6.55 -62.85 6.9 -61.9 L7.25 -60.8 Q4.2 -61.75 1.35 -61.7 L-2.6 -61.55 -4.75 -61.45 -7.3 -60.8 -6.85 -62.75 -6.75 -63.5 M10.85 -59.3 L14.1 -53.8 9.8 -51.75 9.9 -51.75 8.45 -49.75 Q7.45 -48.35 6.95 -46.5 6.45 -44.8 6.55 -42.8 L6.75 -43.3 Q6.7 -42.8 6.9 -43.15 L8.15 -45.15 9.8 -47.25 11.25 -47.15 11.85 -46.85 12.8 -46.7 10.95 -47.5 10.45 -48.6 Q12.25 -47.25 14.4 -46.75 L14.5 -43.45 Q11.65 -44.35 8.95 -43.05 L12.8 -43.2 Q14.7 -42.95 15.7 -41.25 L15.6 -39.55 Q15.5 -38.1 14.05 -37.3 L15.1 -39.5 Q13.65 -41.45 11.2 -41.55 7.4 -41.0 4.1 -39.05 L3.95 -38.65 3.5 -38.5 3.15 -38.25 Q0.5 -37.6 -1.95 -38.2 -4.1 -38.55 -6.0 -39.5 -9.0 -41.1 -12.35 -41.85 L-13.3 -41.0 -13.8 -39.75 Q-14.1 -38.05 -12.75 -36.85 L-13.55 -37.25 -14.55 -37.95 -14.9 -38.35 Q-15.9 -39.65 -15.65 -41.25 L-14.35 -42.55 -13.6 -42.85 -8.9 -43.05 -9.65 -43.4 -10.5 -43.65 -14.45 -43.45 -14.1 -46.5 -14.55 -47.25 -14.25 -48.2 Q-13.9 -47.45 -12.85 -47.7 -11.65 -47.9 -10.7 -48.4 L-12.0 -47.05 -12.25 -46.85 -11.95 -46.8 -11.05 -46.85 -11.0 -46.85 Q-9.3 -47.25 -8.4 -45.8 L-6.9 -43.35 -6.55 -42.7 -6.45 -42.65 -6.4 -42.8 -6.35 -42.9 -6.35 -43.2 -6.35 -43.35 -6.45 -43.6 -7.05 -46.55 Q-7.5 -48.0 -8.25 -49.3 L-9.75 -51.75 -9.6 -51.7 -14.15 -53.95 -10.7 -59.05 -10.4 -58.75 -7.7 -58.45 -4.9 -58.8 -1.5 -59.25 1.5 -59.25 5.15 -58.85 7.85 -58.65 Q9.4 -58.3 10.85 -59.3 M1.4 -53.4 L6.8 -57.1 6.95 -57.2 7.35 -57.4 6.95 -57.35 6.0 -57.25 4.3 -56.8 0.25 -55.5 Q-1.3 -56.4 -3.05 -56.9 L-6.65 -57.1 -7.4 -56.95 -4.4 -55.9 Q-3.0 -55.35 -1.8 -54.45 L-0.25 -53.05 0.1 -52.7 0.8 -52.8 1.05 -52.9 Q1.4 -53.1 1.4 -53.4 M6.25 -31.35 L8.7 -31.3 Q11.3 -32.0 11.95 -34.6 L12.35 -34.95 12.4 -36.2 13.15 -36.45 Q13.9 -36.55 14.45 -37.0 15.05 -37.45 15.65 -37.7 17.35 -36.5 18.1 -34.6 L18.45 -34.15 Q20.1 -32.1 21.4 -29.6 L22.3 -24.9 Q20.7 -23.65 18.6 -23.5 L18.4 -23.45 18.3 -23.4 17.9 -23.4 17.3 -23.4 17.0 -25.85 Q15.65 -27.3 14.75 -28.8 L14.7 -29.05 Q14.5 -31.05 13.7 -32.65 14.45 -30.25 13.9 -28.05 13.15 -26.95 11.9 -26.65 L11.35 -26.5 11.45 -26.9 11.45 -27.0 11.45 -27.1 11.15 -27.9 Q10.8 -28.25 10.3 -28.25 9.8 -28.25 9.5 -27.9 9.15 -27.6 9.15 -27.1 L9.35 -26.4 6.7 -26.9 4.8 -27.65 1.0 -30.3 3.3 -30.6 6.25 -31.35 M7.95 -32.9 L9.55 -32.7 10.0 -32.7 Q8.4 -31.4 6.45 -32.0 L6.65 -32.1 7.95 -32.9 M5.05 -34.05 L2.3 -33.1 1.4 -33.35 -1.9 -33.15 -2.15 -33.1 -3.0 -33.5 Q-3.85 -33.9 -4.5 -34.4 L-3.85 -34.65 -0.1 -35.25 3.45 -34.65 5.05 -34.05 M-6.55 -31.25 L-3.85 -30.6 -1.1 -30.2 -4.65 -27.9 -5.65 -27.35 Q-6.75 -26.85 -7.9 -26.45 L-8.75 -26.3 -9.35 -26.2 -9.35 -26.25 Q-9.05 -26.6 -9.05 -27.1 -9.05 -27.6 -9.35 -27.9 -9.7 -28.25 -10.15 -28.25 -10.6 -28.25 -10.9 -27.9 -11.25 -27.6 -11.25 -27.1 -11.25 -26.6 -10.9 -26.25 L-10.75 -26.15 -11.0 -26.15 -11.5 -26.25 -13.1 -27.25 Q-13.75 -28.0 -14.0 -29.0 -14.3 -30.8 -13.6 -32.65 L-13.9 -32.1 -14.45 -30.1 -14.6 -28.45 -16.45 -26.25 -16.65 -23.55 -17.45 -23.4 -18.3 -23.45 -18.5 -23.5 Q-20.55 -23.55 -22.2 -24.9 -22.25 -28.65 -20.15 -31.65 L-18.65 -34.0 -18.35 -34.6 Q-17.45 -36.7 -15.4 -37.7 L-14.4 -36.85 Q-13.55 -36.2 -12.35 -36.2 L-12.2 -35.25 -12.0 -34.6 Q-11.3 -32.25 -9.15 -31.55 L-6.55 -31.25 M-1.0 -30.2 L1.0 -30.3 2.3 -29.1 2.75 -28.45 3.55 -27.6 5.15 -26.2 5.3 -26.1 7.15 -24.85 7.3 -24.3 Q7.05 -22.8 6.05 -21.8 5.0 -20.75 3.5 -20.6 L1.1 -20.3 0.45 -21.35 0.85 -21.8 Q1.15 -22.1 0.7 -22.4 L0.05 -21.65 -0.9 -22.1 -0.35 -21.3 -1.1 -20.2 -3.9 -20.55 Q-5.65 -20.9 -6.65 -22.05 -7.6 -23.1 -7.55 -24.6 L-5.55 -26.1 Q-3.9 -27.45 -2.6 -28.75 L-2.05 -29.2 -1.8 -29.45 -1.0 -30.2 M14.5 -14.7 L13.2 -13.7 Q11.45 -12.65 9.6 -13.25 9.2 -13.45 8.95 -13.75 L7.75 -15.35 7.15 -16.15 7.55 -16.85 8.7 -16.3 8.95 -17.9 10.65 -17.2 11.2 -18.8 12.7 -18.05 12.85 -19.1 14.5 -14.7 M19.15 -18.3 L19.95 -18.5 20.45 -18.55 20.55 -18.55 Q22.0 -18.55 23.05 -17.8 24.0 -17.15 24.05 -16.2 22.7 -14.8 20.6 -15.15 19.2 -15.5 18.65 -17.0 L19.15 -18.3 M1.55 -23.35 L1.6 -23.35 1.55 -23.4 1.55 -23.35 M-20.6 -59.4 L-17.1 -62.2 -16.2 -63.3 -12.75 -61.25 -15.75 -60.35 -15.8 -60.35 -18.1 -59.9 -20.05 -59.55 -20.6 -59.4 M-9.05 -32.3 L-7.15 -32.85 -6.8 -32.5 -7.45 -32.45 -9.05 -32.3 M-18.2 -18.0 Q-18.1 -16.7 -18.8 -15.5 -19.8 -14.85 -20.95 -14.85 -23.1 -14.95 -23.5 -17.2 L-22.85 -17.8 Q-21.85 -18.55 -20.4 -18.55 -19.15 -18.55 -18.2 -18.0 M-1.5 -23.35 L-1.45 -23.35 -1.5 -23.4 -1.5 -23.35 M-14.3 -14.0 L-14.4 -14.15 Q-14.3 -15.5 -13.85 -16.7 L-12.75 -19.1 -12.65 -18.05 -11.15 -18.8 -10.6 -17.2 -8.9 -17.9 -8.65 -16.3 -7.45 -16.85 -6.85 -15.75 -8.15 -13.35 Q-9.8 -12.9 -11.35 -13.4 L-14.25 -14.05 -14.3 -14.0" fill="#cd8da9" fill-rule="evenodd" stroke="none"/>
    <path d="M-6.75 -63.5 L-6.85 -62.75 -7.3 -60.8 -4.75 -61.45 -2.6 -61.55 1.35 -61.7 Q4.2 -61.75 7.25 -60.8 L6.9 -61.9 Q6.55 -62.85 6.8 -63.7 7.0 -62.0 8.75 -61.5 L11.65 -60.85 10.85 -59.3 Q9.4 -58.3 7.85 -58.65 L5.15 -58.85 1.5 -59.25 -1.5 -59.25 -4.9 -58.8 -7.7 -58.45 -10.4 -58.75 -10.7 -59.05 -10.65 -59.5 -11.6 -60.85 -9.5 -61.4 Q-7.5 -61.55 -6.75 -63.5 M6.75 -43.3 Q7.15 -45.25 7.7 -46.95 L9.0 -49.35 9.05 -49.3 9.2 -49.15 10.05 -48.15 10.5 -47.75 10.5 -47.7 10.55 -47.7 11.3 -47.15 11.25 -47.15 9.8 -47.25 8.15 -45.15 6.9 -43.15 Q6.7 -42.8 6.75 -43.3 M10.95 -47.5 L10.45 -47.95 10.35 -48.15 10.3 -48.15 10.25 -48.15 Q9.6 -48.9 9.2 -50.0 L9.45 -50.4 9.55 -50.25 9.75 -50.25 9.95 -50.25 10.0 -50.2 10.8 -49.6 Q11.5 -49.0 12.4 -48.65 L14.4 -48.2 14.7 -47.25 14.4 -46.75 Q12.25 -47.25 10.45 -48.6 L10.95 -47.5 M14.05 -37.3 L12.65 -36.6 10.65 -36.45 11.05 -36.15 11.65 -36.2 11.2 -35.05 9.6 -35.4 Q10.15 -36.7 10.35 -38.1 L10.25 -38.35 11.0 -38.8 12.3 -39.75 13.55 -39.5 13.45 -39.95 11.8 -40.9 9.35 -40.1 Q7.75 -39.5 6.4 -38.15 L7.5 -37.95 7.05 -36.35 6.95 -36.05 4.2 -36.7 6.25 -36.8 6.0 -36.95 Q4.2 -37.45 2.05 -36.9 L0.45 -36.8 -2.75 -37.2 Q-4.8 -37.6 -6.25 -36.6 L-6.35 -36.55 -6.95 -38.05 -6.35 -38.15 Q-7.2 -39.2 -8.5 -39.8 -10.1 -40.6 -11.75 -40.9 L-13.1 -40.25 -13.3 -40.05 -13.4 -39.65 -13.4 -39.6 -12.2 -39.75 -10.05 -38.6 -9.25 -38.3 Q-9.25 -36.65 -8.55 -35.1 L-11.15 -35.05 -11.6 -36.15 -11.55 -36.2 -11.25 -36.25 -10.6 -36.45 -12.75 -36.85 Q-14.1 -38.05 -13.8 -39.75 L-13.3 -41.0 -12.35 -41.85 Q-9.0 -41.1 -6.0 -39.5 -4.1 -38.55 -1.95 -38.2 0.5 -37.6 3.15 -38.25 L3.5 -38.5 3.95 -38.65 4.1 -39.05 Q7.4 -41.0 11.2 -41.55 13.65 -41.45 15.1 -39.5 L14.05 -37.3 M-14.25 -48.2 L-13.65 -48.25 -13.05 -48.4 -12.85 -48.45 -12.3 -48.65 Q-10.85 -49.2 -9.9 -50.25 L-9.85 -50.25 -9.7 -50.25 -9.65 -50.25 -9.5 -50.3 -9.3 -50.5 -9.15 -50.0 -9.15 -49.85 -9.2 -49.75 Q-9.4 -48.75 -10.2 -48.15 L-11.6 -47.2 -12.0 -47.05 -10.7 -48.4 Q-11.65 -47.9 -12.85 -47.7 -13.9 -47.45 -14.25 -48.2 M-11.0 -46.9 Q-9.95 -47.4 -9.25 -48.55 L-8.9 -49.4 Q-7.4 -46.55 -6.45 -42.95 L-6.45 -43.6 -6.35 -43.35 -6.35 -43.2 -6.35 -42.9 -6.4 -42.8 -6.45 -42.65 -6.55 -42.7 -6.9 -43.35 -8.4 -45.8 Q-9.3 -47.25 -11.0 -46.85 L-11.0 -46.9 M6.05 -57.1 L5.2 -56.65 2.1 -54.25 0.75 -52.8 0.8 -52.8 0.1 -52.7 Q-0.55 -54.2 -1.75 -55.15 -3.15 -56.2 -4.8 -56.55 L-7.4 -56.95 -6.65 -57.1 -3.05 -56.9 Q-1.3 -56.4 0.25 -55.5 L4.3 -56.8 6.0 -57.25 6.05 -57.1 M8.6 -59.2 L5.4 -60.15 Q5.2 -60.45 4.7 -60.45 L3.4 -60.85 2.2 -61.05 0.35 -60.95 8.6 -59.2 M4.8 -27.65 L6.7 -26.9 9.35 -26.4 9.9 -26.05 10.65 -26.05 11.1 -26.3 11.35 -26.5 11.9 -26.65 Q13.15 -26.95 13.9 -28.05 L13.4 -26.65 Q13.2 -26.2 12.05 -25.7 L8.65 -25.95 Q6.4 -26.65 4.8 -27.65 M14.75 -28.8 Q15.65 -27.3 17.0 -25.85 L17.3 -23.4 Q15.6 -23.7 14.55 -25.05 L13.7 -26.05 14.05 -26.6 14.45 -27.2 Q14.7 -27.55 14.75 -28.8 M7.95 -32.9 L8.7 -33.85 9.25 -34.7 9.3 -34.7 10.5 -34.15 10.65 -34.0 Q10.55 -33.25 10.0 -32.7 L9.55 -32.7 7.95 -32.9 M-4.5 -34.4 L-5.85 -35.75 -5.6 -35.8 -5.45 -35.85 -2.35 -36.1 -2.2 -36.1 0.85 -36.25 2.0 -36.25 5.55 -35.85 6.7 -35.45 6.25 -34.75 5.05 -34.05 3.45 -34.65 -0.1 -35.25 -3.85 -34.65 -4.5 -34.4 M2.75 -28.45 L2.85 -28.55 3.75 -27.9 Q6.05 -26.4 8.6 -25.55 10.25 -24.9 12.0 -25.05 L11.35 -22.95 10.8 -22.05 9.85 -21.35 8.55 -20.6 Q5.8 -19.35 2.6 -18.95 L-3.35 -19.1 -7.05 -19.8 Q-9.45 -20.35 -10.85 -22.3 L-11.55 -23.55 -11.9 -25.1 -11.6 -25.05 Q-8.75 -25.05 -6.25 -26.55 L-4.35 -27.65 -2.6 -28.75 Q-3.9 -27.45 -5.55 -26.1 L-7.55 -24.6 Q-7.6 -23.1 -6.65 -22.05 -5.65 -20.9 -3.9 -20.55 L-1.1 -20.2 -1.05 -20.2 1.05 -20.3 1.1 -20.3 3.5 -20.6 Q5.0 -20.75 6.05 -21.8 7.05 -22.8 7.3 -24.3 L7.15 -24.85 5.3 -26.1 5.15 -26.2 3.55 -27.6 2.75 -28.45 M9.5 -27.15 Q9.5 -27.5 9.75 -27.7 L10.35 -27.95 10.95 -27.7 11.2 -27.15 10.95 -26.55 10.75 -26.45 10.8 -26.45 10.35 -26.35 10.05 -26.4 9.75 -26.55 Q9.5 -26.8 9.5 -27.15 M7.15 -16.15 L7.75 -15.35 8.95 -13.75 Q9.2 -13.45 9.6 -13.25 11.45 -12.65 13.2 -13.7 L14.5 -14.7 14.55 -14.15 13.1 -13.0 13.1 -12.95 11.2 -11.65 Q9.1 -10.4 6.5 -10.45 L9.55 -10.3 10.55 -7.7 Q9.15 -7.4 8.25 -6.45 L7.55 -5.8 7.45 -5.8 Q7.1 -6.0 6.85 -6.3 L3.75 -9.85 Q2.9 -10.85 3.2 -11.6 L3.15 -11.75 Q3.75 -12.95 5.05 -13.85 L5.3 -14.0 5.55 -15.85 6.35 -15.45 6.8 -15.6 7.15 -16.15 M24.05 -16.2 Q24.15 -15.25 23.5 -14.55 22.65 -13.7 21.3 -13.45 19.15 -13.3 17.7 -14.6 16.8 -15.45 17.2 -16.45 L17.7 -17.4 Q18.25 -18.15 19.15 -18.3 L18.65 -17.0 Q19.2 -15.5 20.6 -15.15 22.7 -14.8 24.05 -16.2 M-2.6 -60.6 L-0.55 -61.0 -2.9 -60.7 -7.2 -59.55 -8.15 -59.25 -8.2 -59.2 -4.75 -59.95 -2.6 -60.6 M-16.65 -23.55 L-16.45 -26.25 -14.6 -28.45 -13.7 -26.05 Q-14.4 -24.7 -15.8 -23.95 -16.2 -23.7 -16.65 -23.55 M-14.0 -29.0 Q-13.75 -28.0 -13.1 -27.25 L-11.5 -26.25 -11.0 -26.15 -10.75 -26.15 -10.15 -25.95 -9.95 -25.95 -9.7 -26.05 -9.4 -26.2 -9.35 -26.2 -8.75 -26.3 -7.9 -26.45 Q-6.75 -26.85 -5.65 -27.35 -7.65 -25.55 -10.55 -25.5 L-11.25 -25.55 Q-12.0 -25.7 -12.65 -26.1 -13.2 -26.4 -13.45 -27.05 L-14.0 -29.0 M-9.05 -32.3 L-9.15 -32.35 -9.95 -32.8 Q-10.6 -33.35 -10.55 -34.0 L-10.5 -34.0 -9.9 -34.25 -8.45 -34.9 -8.2 -34.4 -7.15 -32.85 -9.05 -32.3 M-11.05 -27.15 L-10.8 -27.7 -10.2 -27.95 -9.6 -27.7 -9.35 -27.15 Q-9.35 -26.8 -9.6 -26.55 L-10.2 -26.35 -10.8 -26.55 -11.05 -27.15 M-23.5 -17.2 Q-23.1 -14.95 -20.95 -14.85 -19.8 -14.85 -18.8 -15.5 -18.1 -16.7 -18.2 -18.0 -16.45 -16.95 -17.3 -15.1 L-17.95 -14.35 Q-18.75 -13.75 -19.65 -13.55 -21.85 -13.3 -23.2 -14.65 -24.5 -15.9 -23.5 -17.2 M-6.85 -15.75 L-6.75 -15.6 -6.25 -15.45 -5.45 -15.85 -5.15 -15.15 -5.1 -14.4 -5.25 -14.0 -3.2 -12.2 -3.05 -11.6 -3.1 -11.6 -3.15 -11.3 Q-2.9 -11.0 -3.25 -10.5 -4.85 -8.2 -6.85 -6.4 L-7.5 -5.8 -9.55 -7.35 -10.5 -7.7 -9.45 -10.3 -6.2 -10.45 Q-8.85 -10.4 -11.05 -11.75 L-13.85 -13.65 -14.3 -14.0 -14.25 -14.05 -11.35 -13.4 Q-9.8 -12.9 -8.15 -13.35 L-6.85 -15.75" fill="#975977" fill-rule="evenodd" stroke="none"/>
  </g>
</svg>
