<?xml version="1.0" encoding="UTF-8" standalone="no"?>
<svg xmlns:ffdec="https://www.free-decompiler.com/flash" xmlns:xlink="http://www.w3.org/1999/xlink" ffdec:objectType="shape" height="75.7px" width="50.75px" xmlns="http://www.w3.org/2000/svg">
  <g transform="matrix(1.0, 0.0, 0.0, 1.0, 25.35, 78.95)">
    <path d="M0.35 -78.55 Q1.05 -75.7 1.9 -72.9 2.35 -71.5 2.95 -70.15 L3.2 -70.05 3.6 -69.35 6.2 -69.55 5.3 -68.0 7.5 -67.4 11.7 -69.1 13.15 -69.35 20.65 -69.8 Q21.5 -69.75 20.7 -69.05 19.4 -68.0 18.4 -66.65 17.1 -64.85 14.95 -63.9 L13.7 -63.55 12.4 -63.55 12.15 -63.45 11.95 -62.9 Q12.8 -60.65 13.95 -58.65 L14.3 -57.75 Q14.75 -56.05 13.9 -54.6 13.6 -54.1 13.7 -53.7 13.95 -52.65 13.6 -51.65 13.7 -51.0 14.05 -50.3 L14.2 -49.15 Q14.05 -48.0 13.15 -47.5 L12.1 -46.65 Q11.7 -46.05 11.65 -45.3 11.5 -43.35 11.75 -41.4 L11.9 -40.8 12.8 -39.9 Q14.5 -39.55 15.9 -38.7 L17.7 -36.95 18.5 -35.45 24.5 -30.5 Q25.35 -29.75 25.4 -28.55 L25.25 -26.65 Q24.75 -23.75 23.25 -21.65 23.6 -20.5 23.15 -19.6 22.15 -17.65 19.85 -17.5 17.55 -17.55 16.9 -19.8 16.25 -21.9 18.3 -22.95 L18.3 -26.75 14.7 -28.55 14.45 -27.95 13.55 -26.55 Q12.4 -24.8 10.2 -24.4 L9.6 -23.45 10.35 -22.3 Q12.3 -21.5 13.6 -19.7 L13.95 -19.15 13.95 -19.1 13.4 -19.0 13.35 -19.0 Q14.5 -17.3 14.8 -15.45 L14.95 -14.5 14.6 -13.9 Q13.95 -12.95 12.75 -12.3 L9.85 -10.5 11.1 -7.85 Q12.6 -7.3 13.4 -5.9 L13.75 -5.15 14.0 -4.0 Q12.15 -3.15 10.15 -3.6 L7.7 -3.9 3.5 -9.4 2.45 -11.0 1.55 -8.3 1.2 -9.4 0.15 -7.0 -1.0 -8.7 -1.15 -9.4 -1.2 -8.6 Q-1.4 -8.0 -1.8 -8.95 L-2.4 -11.0 Q-4.2 -7.6 -6.85 -4.95 L-7.65 -3.9 Q-10.0 -2.8 -12.4 -3.5 L-13.95 -4.0 Q-13.8 -6.1 -12.1 -7.25 L-11.3 -7.8 -11.05 -7.85 -9.8 -10.5 Q-11.8 -11.7 -13.7 -13.15 L-14.25 -13.6 -14.65 -14.0 -14.65 -14.9 Q-14.6 -17.05 -13.45 -18.7 L-13.25 -19.0 -13.95 -18.95 -13.15 -20.4 -12.7 -20.8 -10.3 -22.3 -9.65 -23.35 -10.15 -24.4 Q-11.35 -24.55 -12.15 -25.2 L-12.25 -25.25 -13.6 -26.5 -14.45 -28.1 -14.6 -28.35 -18.2 -26.75 -18.3 -22.95 Q-16.8 -22.6 -16.75 -21.05 L-16.85 -19.75 Q-17.4 -17.6 -19.7 -17.6 -21.4 -17.6 -22.5 -18.8 -23.55 -20.05 -23.15 -21.6 -24.5 -23.7 -25.2 -26.65 -25.55 -28.0 -25.15 -29.3 -24.65 -30.75 -23.45 -31.55 L-18.75 -35.35 -18.2 -36.05 Q-16.65 -39.65 -12.8 -40.25 L-12.05 -40.75 Q-11.85 -41.05 -11.8 -41.4 L-11.2 -45.3 -12.6 -47.5 -13.1 -47.8 Q-13.95 -48.1 -14.15 -49.1 -14.5 -50.5 -13.45 -51.4 -13.85 -52.25 -13.7 -53.25 L-13.6 -53.7 -13.5 -53.9 -14.15 -55.35 Q-14.5 -56.35 -14.25 -57.75 L-13.45 -59.75 -12.95 -60.6 -11.85 -62.9 -12.05 -63.45 -13.6 -63.55 Q-15.55 -63.6 -17.05 -65.2 L-20.4 -69.35 -20.65 -69.75 -15.2 -69.55 -12.3 -69.25 Q-9.7 -68.55 -7.4 -67.4 L-5.25 -68.0 -6.15 -69.55 -5.0 -69.65 -3.65 -69.2 -3.6 -69.35 -3.55 -69.5 -3.55 -69.55 -2.8 -70.1 Q-1.75 -72.3 -0.9 -75.6 L0.0 -78.95 0.05 -78.85 0.35 -78.55 M19.6 -69.1 Q16.15 -69.3 13.1 -68.95 L11.75 -68.5 8.2 -67.25 Q7.85 -67.15 7.9 -66.85 L7.15 -66.9 7.8 -66.65 8.05 -66.45 8.05 -66.3 5.95 -66.2 6.55 -65.85 6.95 -65.45 7.3 -64.95 7.6 -64.4 6.3 -64.45 7.15 -61.6 5.6 -62.2 5.8 -59.8 4.3 -61.35 4.35 -59.15 4.45 -58.85 5.45 -58.25 Q6.3 -57.8 6.9 -57.8 L7.55 -57.75 7.15 -57.5 Q5.95 -57.4 5.1 -57.95 L4.35 -58.7 3.55 -56.8 3.05 -58.85 2.85 -58.2 1.9 -55.95 1.45 -55.25 1.45 -57.85 1.4 -57.9 1.4 -57.85 Q1.2 -56.3 0.1 -55.0 L0.1 -54.9 -0.05 -55.0 Q-1.2 -56.3 -1.35 -57.85 L-1.5 -55.45 -1.45 -55.35 Q-2.2 -56.05 -2.5 -57.25 L-2.75 -58.2 -2.9 -59.2 -3.45 -56.8 -4.2 -58.7 -4.9 -58.0 Q-6.25 -57.2 -7.4 -57.7 L-7.45 -57.8 Q-5.75 -57.9 -4.25 -58.9 L-4.25 -61.35 -5.7 -59.8 -5.5 -62.2 -7.05 -61.5 -6.25 -64.45 -7.4 -64.3 -7.15 -64.9 Q-6.75 -65.8 -5.85 -66.2 L-8.0 -66.3 -7.35 -66.8 -7.25 -66.85 -7.6 -66.9 -7.75 -66.8 -8.5 -67.45 -13.1 -68.65 -19.2 -69.15 -19.55 -69.1 -19.15 -68.4 Q-17.5 -65.65 -14.7 -64.35 L-11.55 -64.35 -15.75 -66.1 -19.0 -68.7 -18.45 -68.45 -15.5 -66.55 -14.45 -66.0 Q-13.0 -65.25 -11.25 -64.95 L-10.95 -65.2 Q-10.65 -65.35 -10.75 -64.9 -11.2 -62.85 -12.25 -60.8 -13.45 -58.55 -13.7 -56.2 L-13.35 -55.45 Q-10.1 -55.05 -7.8 -52.7 -7.65 -52.35 -8.1 -52.4 -10.35 -52.25 -12.45 -51.0 L-13.25 -50.6 -13.6 -49.75 -13.45 -48.85 -13.0 -48.55 Q-11.65 -48.7 -10.55 -49.85 L-8.7 -51.35 Q-9.2 -49.15 -12.0 -48.15 L-12.2 -48.1 -11.6 -47.2 Q-11.0 -46.8 -10.9 -46.35 L-10.4 -44.85 Q-9.4 -42.05 -9.15 -39.15 L-11.3 -34.65 -10.6 -33.65 -10.05 -32.9 -9.25 -32.6 -9.15 -32.45 -8.95 -32.0 -8.95 -31.6 -8.95 -31.2 -5.0 -32.1 Q-3.3 -32.4 -1.25 -31.45 L1.25 -31.4 2.6 -31.95 4.9 -32.45 5.6 -32.15 Q7.3 -31.45 9.0 -31.4 L9.0 -31.6 9.2 -32.55 Q10.25 -32.85 10.75 -33.75 L11.4 -35.2 9.25 -39.15 Q9.5 -42.95 11.25 -46.6 L11.65 -47.2 11.9 -47.5 12.15 -48.0 8.75 -51.35 12.05 -49.0 Q12.5 -48.7 13.1 -48.55 L13.55 -48.85 Q13.85 -49.75 13.35 -50.5 L13.3 -50.6 7.8 -52.6 Q10.0 -54.7 13.1 -55.6 L13.35 -55.6 13.65 -55.85 13.75 -56.05 Q13.7 -58.3 12.55 -60.2 L12.2 -60.95 11.15 -63.35 Q10.65 -64.35 10.9 -65.25 L11.35 -64.85 Q13.05 -65.2 14.5 -66.05 L17.15 -67.6 19.05 -68.7 16.9 -66.85 Q14.75 -65.2 12.3 -64.75 L11.55 -64.5 Q11.65 -64.15 12.45 -64.25 L14.2 -64.15 15.3 -64.5 Q17.05 -65.45 18.4 -67.2 L18.8 -67.8 18.95 -68.05 19.7 -69.1 19.6 -69.1 M7.85 -55.9 Q8.35 -55.6 8.0 -55.6 L6.65 -55.75 4.35 -55.4 3.0 -54.95 2.0 -54.45 4.2 -55.9 Q5.85 -56.55 7.6 -55.95 L7.85 -55.9 M-6.3 -55.75 L-7.95 -55.85 -7.75 -55.9 Q-5.2 -56.75 -2.95 -55.25 L-2.6 -54.95 -1.9 -54.45 -2.45 -54.7 -6.3 -55.75 M-6.5 -51.65 Q-5.65 -49.55 -5.45 -47.1 L-4.55 -39.35 -4.55 -38.2 -4.7 -38.45 -6.0 -45.95 -6.9 -51.45 -7.1 -52.2 -6.95 -52.25 -6.5 -51.65 M6.85 -51.1 L4.75 -38.25 Q4.3 -38.55 4.5 -39.4 L5.25 -44.45 Q5.6 -48.2 6.55 -51.5 L6.8 -52.05 Q7.0 -52.5 7.0 -52.15 L6.85 -51.1 M-7.15 -64.7 L-5.95 -64.75 -6.45 -62.25 -5.0 -62.6 -5.4 -60.85 -4.75 -61.5 -3.95 -62.3 -3.5 -57.6 -2.55 -60.65 -2.3 -58.05 -1.95 -56.75 -1.25 -58.7 0.05 -55.2 1.25 -58.75 2.0 -56.75 2.35 -58.05 2.65 -60.65 3.55 -57.6 3.95 -60.0 4.05 -62.3 5.5 -60.55 5.05 -62.6 5.0 -62.7 5.45 -62.65 6.5 -62.25 6.0 -64.75 7.2 -64.7 7.2 -64.75 5.15 -66.3 5.15 -66.35 5.85 -66.55 7.1 -66.75 Q6.05 -67.45 4.8 -67.8 L4.4 -67.8 5.55 -69.3 3.6 -68.6 2.9 -69.6 3.1 -67.75 3.85 -68.25 3.2 -67.3 3.3 -66.7 4.75 -67.2 5.7 -66.95 3.3 -66.2 5.25 -65.3 3.3 -65.7 5.25 -63.95 3.3 -65.2 2.85 -64.2 3.15 -64.25 Q4.2 -63.8 4.55 -62.85 L2.8 -64.1 2.35 -63.35 3.1 -62.45 3.5 -61.0 2.1 -63.15 1.15 -62.6 Q2.2 -60.95 1.85 -59.0 L1.8 -59.9 Q1.7 -60.95 1.1 -61.85 L0.55 -62.4 -0.5 -62.4 -1.15 -61.25 -1.7 -59.3 -1.75 -60.0 Q-1.8 -61.45 -1.05 -62.6 L-1.95 -63.1 -3.35 -61.15 -3.35 -61.45 Q-3.2 -62.55 -2.25 -63.35 L-2.65 -63.9 -4.3 -62.9 -3.1 -64.25 -2.95 -64.15 -3.2 -65.2 -5.2 -63.95 -3.25 -65.45 -5.2 -65.3 -3.25 -66.2 -5.65 -66.95 -4.9 -67.2 Q-3.95 -67.15 -3.3 -66.7 L-3.15 -67.15 -3.85 -68.2 -3.8 -68.25 -3.35 -68.0 -3.2 -67.9 Q-2.95 -68.7 -2.85 -69.6 L-3.5 -68.6 -5.5 -69.3 -4.35 -67.95 -7.0 -66.75 -5.1 -66.35 -7.15 -64.75 -7.2 -64.7 -7.15 -64.7 M2.0 -63.85 Q2.6 -64.55 2.7 -65.55 L2.55 -67.15 1.5 -72.2 0.05 -78.55 -2.5 -67.15 Q-2.8 -65.85 -2.3 -64.6 L-1.8 -63.75 Q-1.05 -62.9 0.05 -62.75 1.3 -62.85 2.0 -63.85 M0.7 -60.75 Q1.25 -58.6 0.35 -56.75 L0.6 -60.95 0.7 -60.75 M12.7 -54.3 L12.5 -54.55 9.3 -53.1 12.45 -51.55 12.9 -51.65 13.05 -53.0 12.7 -54.3 M21.25 -26.2 Q22.75 -26.2 23.85 -26.9 24.9 -27.6 24.9 -28.6 L24.95 -28.6 24.5 -29.5 18.6 -34.7 18.3 -34.9 Q17.7 -37.45 15.25 -38.45 L12.65 -39.35 11.65 -40.7 Q11.35 -40.5 11.15 -39.45 L10.9 -38.95 10.4 -38.45 10.4 -38.5 11.05 -40.55 11.1 -41.6 10.85 -44.15 10.55 -42.7 9.8 -40.45 Q9.65 -39.6 10.05 -38.75 10.75 -37.3 11.8 -35.6 L11.95 -34.75 Q11.85 -33.3 10.7 -32.5 L9.6 -32.0 9.75 -31.05 9.0 -30.35 Q8.7 -28.8 7.0 -28.6 4.45 -28.95 1.9 -28.7 3.45 -28.9 4.95 -29.45 6.55 -28.8 7.95 -29.95 L8.1 -30.2 7.8 -30.7 4.2 -31.7 0.35 -30.65 -0.7 -30.75 -4.2 -31.3 -7.2 -30.9 Q-8.0 -30.65 -8.0 -30.2 -8.25 -29.65 -7.65 -29.45 L-4.45 -29.6 Q-1.8 -28.35 1.1 -28.6 L0.0 -28.4 -2.35 -28.6 Q-4.6 -29.15 -6.9 -28.6 L-6.9 -28.65 -6.95 -28.6 Q-8.05 -28.7 -8.6 -29.7 L-8.95 -30.35 -9.45 -30.7 -9.55 -31.9 -10.55 -32.4 Q-11.55 -33.2 -11.9 -34.4 -12.1 -35.1 -11.6 -35.85 -10.7 -37.05 -10.25 -38.35 L-10.25 -38.45 -10.3 -38.4 -9.65 -40.05 -10.75 -44.2 Q-11.7 -41.4 -10.45 -38.7 L-10.35 -38.5 -10.45 -38.5 Q-11.2 -39.35 -11.45 -40.6 L-11.45 -40.8 -12.55 -39.35 Q-15.45 -39.3 -17.4 -37.0 -18.15 -36.1 -18.25 -34.9 L-20.25 -33.1 -24.45 -29.5 -24.9 -28.6 -24.85 -28.6 Q-24.85 -27.65 -23.5 -26.95 -22.2 -26.3 -20.35 -26.3 L-19.3 -26.65 -20.1 -26.8 -19.55 -27.1 Q-16.55 -27.05 -14.9 -29.3 L-16.3 -31.35 -13.5 -29.05 -11.1 -27.35 -9.5 -26.55 -6.85 -26.95 -1.3 -28.1 -6.05 -26.55 -9.8 -26.1 -13.9 -28.35 Q-12.9 -25.85 -10.65 -25.05 L-9.65 -24.7 -8.1 -22.35 -9.2 -22.85 -10.1 -21.45 Q-9.15 -20.45 -7.9 -20.05 -0.45 -17.9 7.1 -19.8 8.85 -20.2 10.2 -21.45 L9.3 -22.85 8.25 -22.3 9.7 -24.7 11.1 -25.2 Q12.7 -26.0 13.5 -27.35 L14.0 -28.35 9.95 -26.15 6.15 -26.55 1.4 -28.05 1.25 -28.15 Q4.05 -27.25 7.1 -26.95 L9.55 -26.55 Q11.15 -27.05 12.45 -28.05 L16.25 -31.3 14.9 -29.35 Q16.3 -27.25 18.8 -27.15 L20.3 -26.85 19.35 -26.65 21.25 -26.2 M9.55 -28.55 L10.65 -28.25 10.3 -27.05 Q9.8 -26.65 9.2 -26.8 8.3 -26.9 8.3 -27.65 L9.55 -28.55 M21.15 -25.65 L19.0 -25.95 18.85 -22.75 Q19.25 -21.9 20.35 -21.6 21.5 -21.15 22.5 -21.85 L22.9 -22.45 Q24.3 -24.3 24.6 -27.0 L22.4 -25.75 22.25 -25.75 21.15 -25.65 M-9.65 -28.55 L-8.25 -27.65 -8.5 -27.3 -9.6 -27.1 Q-10.9 -27.3 -10.6 -28.25 L-9.65 -28.55 M-4.35 -25.65 Q-2.4 -26.8 -0.25 -27.2 2.25 -27.0 4.45 -25.6 L5.45 -24.45 4.1 -19.95 4.0 -21.5 3.55 -22.25 2.1 -22.65 0.3 -22.65 0.05 -21.7 -0.2 -22.65 -0.55 -22.95 -3.6 -22.05 -3.95 -21.5 -4.05 -19.95 -5.4 -24.45 -5.4 -24.6 -4.35 -25.65 M7.2 -34.15 L5.7 -34.8 1.65 -33.25 5.15 -36.5 Q7.0 -36.3 7.65 -34.45 7.7 -33.95 7.2 -34.15 M3.9 -25.4 L1.05 -26.6 0.55 -26.15 0.35 -24.8 0.3 -24.15 0.6 -23.55 Q2.4 -22.7 4.25 -22.75 L4.95 -23.75 4.85 -24.85 3.9 -25.4 M7.0 -28.6 L6.9 -28.65 7.0 -28.6 M8.65 -27.6 L8.6 -27.6 8.65 -27.6 Q9.5 -26.7 10.4 -27.7 L10.4 -27.8 10.2 -28.05 Q9.15 -28.4 8.65 -27.6 M14.0 -28.35 L14.0 -28.4 14.0 -28.35 M17.85 -21.65 Q16.7 -20.25 18.15 -18.85 18.45 -18.6 18.9 -18.45 20.75 -17.65 22.2 -19.1 23.3 -20.2 22.6 -21.35 L22.15 -21.3 21.05 -21.1 Q19.5 -21.1 18.4 -22.1 L17.85 -21.65 M10.75 -21.8 Q11.15 -21.55 10.7 -21.9 L10.75 -21.8 M10.3 -21.25 L10.35 -21.15 7.05 -19.45 7.5 -18.5 6.9 -19.4 3.05 -18.6 3.1 -17.35 2.8 -18.6 0.4 -18.6 0.3 -17.7 0.05 -18.45 -0.25 -17.7 -0.35 -18.6 -2.75 -18.6 -3.05 -17.35 -3.0 -18.6 -6.85 -19.4 -7.45 -18.5 -7.0 -19.45 Q-10.1 -19.9 -10.3 -21.5 -11.6 -21.45 -12.6 -20.4 L-13.15 -19.8 -12.6 -19.35 -12.3 -18.8 -10.6 -20.4 -11.1 -19.15 -10.55 -18.95 -10.6 -17.9 -8.7 -18.4 -8.4 -16.8 -7.15 -17.3 -6.2 -18.7 -6.85 -17.0 -6.5 -16.1 -5.15 -16.55 -4.4 -14.85 -3.3 -15.5 -2.25 -14.4 -1.2 -17.55 -1.3 -15.4 0.05 -14.1 1.35 -15.4 1.25 -17.55 2.3 -14.4 3.05 -15.2 4.45 -14.85 5.2 -16.55 6.55 -16.1 6.9 -17.0 6.25 -18.7 7.2 -17.3 8.45 -16.8 8.75 -18.4 10.55 -17.75 10.9 -19.15 10.65 -20.4 12.35 -18.7 12.55 -19.5 Q13.1 -19.15 13.2 -19.6 12.7 -20.7 11.4 -21.3 L10.6 -21.6 10.3 -21.25 M14.35 -14.95 L14.15 -15.85 13.0 -18.75 12.9 -18.95 12.7 -18.25 11.2 -18.8 10.65 -17.2 8.95 -17.9 8.5 -16.4 8.35 -16.45 7.5 -16.85 6.8 -15.6 6.3 -15.45 5.5 -15.85 5.3 -14.0 3.25 -12.2 Q2.95 -11.35 3.45 -10.55 4.95 -8.15 7.35 -6.0 8.25 -6.3 9.65 -7.25 L10.55 -7.7 9.5 -10.3 6.75 -10.4 Q9.15 -10.4 11.0 -11.5 L13.55 -13.25 14.35 -14.0 14.35 -14.95 M0.6 -20.65 L3.2 -20.15 -3.1 -20.1 -0.55 -20.65 0.0 -21.35 0.6 -20.65 M0.05 -13.45 L-1.35 -14.5 -1.95 -13.85 -1.55 -10.9 -2.25 -13.85 -3.05 -14.6 Q-3.1 -12.85 -2.3 -11.35 L-1.85 -10.3 -1.4 -8.75 -1.35 -10.2 -1.2 -10.2 -0.7 -9.05 -0.7 -9.1 -0.95 -12.7 -0.6 -11.15 -0.4 -9.1 Q-0.4 -8.45 0.0 -7.55 L0.0 -7.4 Q0.65 -8.4 0.65 -9.5 L0.9 -13.1 0.75 -9.1 0.8 -9.1 1.2 -10.25 1.45 -9.35 1.65 -9.45 Q2.7 -12.0 3.1 -14.6 L2.3 -13.85 Q2.35 -12.4 1.85 -11.25 L1.7 -11.0 1.6 -10.9 2.0 -13.85 1.4 -14.5 0.05 -13.45 M4.35 -13.9 L3.35 -14.85 3.3 -13.05 3.7 -13.45 4.35 -13.9 M8.4 -4.5 L8.85 -4.3 Q10.35 -3.7 12.05 -4.25 L13.0 -4.55 Q13.0 -6.05 11.9 -6.85 L11.15 -7.35 Q9.7 -7.6 8.8 -6.35 L8.05 -5.0 8.4 -4.5 M-12.8 -54.35 L-13.0 -53.65 -13.0 -53.0 -12.65 -51.7 -12.45 -51.5 -9.25 -53.1 -12.3 -54.65 -12.8 -54.35 M-0.7 -60.8 L-0.55 -60.95 -0.3 -56.75 -0.5 -57.35 Q-0.9 -59.1 -0.7 -60.8 M-1.35 -57.85 L-1.35 -57.9 -1.35 -57.85 M-10.35 -27.8 L-10.35 -27.7 Q-9.45 -26.7 -8.6 -27.6 L-8.55 -27.6 -9.0 -27.95 Q-9.9 -28.45 -10.35 -27.8 M-1.6 -33.3 L-5.65 -34.8 -7.6 -34.25 -7.6 -34.45 -7.6 -34.5 Q-6.75 -36.1 -5.1 -36.5 L-3.2 -35.0 -1.6 -33.3 M-0.25 -24.85 L-0.5 -26.15 -1.0 -26.6 -3.75 -25.45 -4.75 -24.85 -4.8 -23.9 Q-4.8 -23.05 -4.2 -22.75 L-3.85 -22.6 Q-2.2 -22.95 -0.5 -23.55 L-0.25 -24.85 M-22.45 -21.85 L-22.15 -21.65 Q-19.9 -20.95 -18.8 -22.75 L-18.95 -26.1 Q-22.1 -24.8 -24.5 -27.0 L-23.2 -22.85 -22.45 -21.85 M-21.95 -21.25 L-22.75 -21.45 -22.95 -20.7 Q-22.65 -19.25 -21.35 -18.55 L-18.35 -18.5 Q-17.2 -19.2 -17.25 -20.5 L-17.4 -21.25 Q-17.6 -22.05 -18.35 -22.1 L-19.6 -21.4 -21.95 -21.25 M-8.95 -6.7 L-7.5 -5.8 Q-4.85 -8.05 -3.1 -11.0 L-2.85 -11.55 -5.25 -14.0 -5.45 -15.85 -6.25 -15.45 -6.75 -15.6 -7.45 -16.85 -7.95 -16.6 -8.65 -16.3 -8.9 -17.9 -10.6 -17.2 -11.15 -18.8 Q-11.9 -18.45 -12.65 -18.25 L-12.65 -18.4 -12.85 -18.95 -13.2 -18.3 Q-13.85 -16.5 -14.1 -14.6 L-14.1 -13.85 -14.05 -13.8 Q-11.25 -11.2 -7.45 -10.45 L-6.2 -10.45 -9.45 -10.3 -10.5 -7.7 -9.5 -7.05 -11.1 -7.35 -11.8 -6.9 Q-12.9 -6.1 -12.95 -4.85 L-12.85 -4.7 Q-10.7 -3.3 -8.35 -4.5 L-8.0 -5.0 -8.25 -5.75 -8.95 -6.7 M-3.2 -13.05 L-3.3 -14.85 -4.3 -13.9 -3.2 -13.05" fill="#000000" fill-rule="evenodd" stroke="none"/>
    <path d="M-24.9 -28.6 L-24.85 -28.6 -24.9 -28.6" fill="#786a50" fill-rule="evenodd" stroke="none"/>
    <path d="M-7.15 -64.75 L-5.1 -66.35 -7.0 -66.75 -4.35 -67.95 -5.5 -69.3 -3.5 -68.6 -2.85 -69.6 Q-2.95 -68.7 -3.2 -67.9 L-3.35 -68.0 -3.8 -68.25 -3.85 -68.2 -3.15 -67.15 -3.3 -66.7 Q-3.95 -67.15 -4.9 -67.2 L-5.65 -66.95 -3.25 -66.2 -5.2 -65.3 -3.25 -65.45 -5.2 -63.95 -3.2 -65.2 -2.95 -64.15 -3.1 -64.25 -4.3 -62.9 -2.65 -63.9 -2.25 -63.35 Q-3.2 -62.55 -3.35 -61.45 L-3.35 -61.15 -1.95 -63.1 -1.05 -62.6 Q-1.8 -61.45 -1.75 -60.0 L-1.7 -59.3 -1.15 -61.25 -0.5 -62.4 0.55 -62.4 1.1 -61.85 Q1.7 -60.95 1.8 -59.9 L1.85 -59.0 Q2.2 -60.95 1.15 -62.6 L2.1 -63.15 3.5 -61.0 3.1 -62.45 2.35 -63.35 2.8 -64.1 4.55 -62.85 Q4.2 -63.8 3.15 -64.25 L2.85 -64.2 3.3 -65.2 5.25 -63.95 3.3 -65.7 5.25 -65.3 3.3 -66.2 5.7 -66.95 4.75 -67.2 3.3 -66.7 3.2 -67.3 3.85 -68.25 3.1 -67.75 2.9 -69.6 3.6 -68.6 5.55 -69.3 4.4 -67.8 4.8 -67.8 Q6.05 -67.45 7.1 -66.75 L5.85 -66.55 5.15 -66.35 5.15 -66.3 7.2 -64.75 7.2 -64.7 6.0 -64.75 6.5 -62.25 5.45 -62.65 5.0 -62.7 5.05 -62.6 5.5 -60.55 4.05 -62.3 3.95 -60.0 3.55 -57.6 2.65 -60.65 2.35 -58.05 2.0 -56.75 1.25 -58.75 0.05 -55.2 -1.25 -58.7 -1.95 -56.75 -2.3 -58.05 -2.55 -60.65 -3.5 -57.6 -3.95 -62.3 -4.75 -61.5 -5.4 -60.85 -5.0 -62.6 -6.45 -62.25 -5.95 -64.75 -7.15 -64.7 -7.15 -64.75 M0.7 -60.75 L0.6 -60.95 0.35 -56.75 Q1.25 -58.6 0.7 -60.75 M21.15 -25.65 L22.25 -25.75 22.4 -25.75 24.6 -27.0 Q24.3 -24.3 22.9 -22.45 L22.5 -21.85 Q21.5 -21.15 20.35 -21.6 19.25 -21.9 18.85 -22.75 L19.0 -25.95 21.15 -25.65 M0.05 -13.45 L1.4 -14.5 2.0 -13.85 1.6 -10.9 1.7 -11.0 1.85 -11.25 Q2.35 -12.4 2.3 -13.85 L3.1 -14.6 Q2.7 -12.0 1.65 -9.45 L1.45 -9.35 1.2 -10.25 0.8 -9.1 0.75 -9.1 0.9 -13.1 0.65 -9.5 Q0.65 -8.4 0.0 -7.4 L0.0 -7.55 Q-0.4 -8.45 -0.4 -9.1 L-0.6 -11.15 -0.95 -12.7 -0.7 -9.1 -0.7 -9.05 -1.2 -10.2 -1.35 -10.2 -1.4 -8.75 -1.85 -10.3 -2.3 -11.35 Q-3.1 -12.85 -3.05 -14.6 L-2.25 -13.85 -1.55 -10.9 -1.95 -13.85 -1.35 -14.5 0.05 -13.45 M8.4 -4.5 L8.05 -5.0 8.8 -6.35 Q9.7 -7.6 11.15 -7.35 L11.9 -6.85 Q13.0 -6.05 13.0 -4.55 L12.05 -4.25 Q10.35 -3.7 8.85 -4.3 L8.4 -4.5 M-0.7 -60.8 Q-0.9 -59.1 -0.5 -57.35 L-0.3 -56.75 -0.55 -60.95 -0.7 -60.8 M-22.45 -21.85 L-23.2 -22.85 -24.5 -27.0 Q-22.1 -24.8 -18.95 -26.1 L-18.8 -22.75 Q-19.9 -20.95 -22.15 -21.65 L-22.45 -21.85 M-9.5 -7.05 L-8.95 -6.7 -8.25 -5.75 -8.0 -5.0 -8.35 -4.5 Q-10.7 -3.3 -12.85 -4.7 L-12.95 -4.85 Q-12.9 -6.1 -11.8 -6.9 L-11.1 -7.35 -9.5 -7.05" fill="#342d23" fill-rule="evenodd" stroke="none"/>
    <path d="M12.7 -54.3 L13.05 -53.0 12.9 -51.65 12.45 -51.55 9.3 -53.1 12.5 -54.55 12.7 -54.3 M-12.8 -54.35 L-12.3 -54.65 -9.25 -53.1 -12.45 -51.5 -12.65 -51.7 -13.0 -53.0 -13.0 -53.65 -12.8 -54.35" fill="#85e09f" fill-rule="evenodd" stroke="none"/>
    <path d="M10.3 -21.25 L10.6 -21.6 11.4 -21.3 Q12.7 -20.7 13.2 -19.6 13.1 -19.15 12.55 -19.5 L12.35 -18.7 10.65 -20.4 10.9 -19.15 10.55 -17.75 8.75 -18.4 8.45 -16.8 7.2 -17.3 6.25 -18.7 6.9 -17.0 6.55 -16.1 5.2 -16.55 4.45 -14.85 3.05 -15.2 2.3 -14.4 1.25 -17.55 1.35 -15.4 0.05 -14.1 -1.3 -15.4 -1.2 -17.55 -2.25 -14.4 -3.3 -15.5 -4.4 -14.85 -5.15 -16.55 -6.5 -16.1 -6.85 -17.0 -6.2 -18.7 -7.15 -17.3 -8.4 -16.8 -8.7 -18.4 -10.6 -17.9 -10.55 -18.95 -11.1 -19.15 -10.6 -20.4 -12.3 -18.8 -12.6 -19.35 -13.15 -19.8 -12.6 -20.4 Q-11.6 -21.45 -10.3 -21.5 -10.1 -19.9 -7.0 -19.45 L-7.45 -18.5 -6.85 -19.4 -3.0 -18.6 -3.05 -17.35 -2.75 -18.6 -0.35 -18.6 -0.25 -17.7 0.05 -18.45 0.3 -17.7 0.4 -18.6 2.8 -18.6 3.1 -17.35 3.05 -18.6 6.9 -19.4 7.5 -18.5 7.05 -19.45 10.35 -21.15 10.3 -21.25" fill="#ccc2a6" fill-rule="evenodd" stroke="none"/>
    <path d="M19.6 -69.1 L19.05 -68.7 17.15 -67.6 14.5 -66.05 Q13.05 -65.2 11.35 -64.85 L10.9 -65.25 Q10.65 -64.35 11.15 -63.35 L12.2 -60.95 12.55 -60.2 Q13.7 -58.3 13.75 -56.05 L13.0 -56.4 10.35 -55.55 Q8.25 -54.55 7.15 -52.75 L6.8 -52.05 6.55 -51.5 Q5.6 -48.2 5.25 -44.45 L4.5 -39.4 Q4.3 -38.55 4.75 -38.25 L6.85 -51.1 8.35 -49.5 Q9.0 -48.65 9.95 -48.15 10.85 -47.75 11.9 -47.5 L11.65 -47.2 11.25 -46.6 Q9.5 -42.95 9.25 -39.15 L11.4 -35.2 10.75 -33.75 Q11.15 -35.55 9.5 -36.65 6.4 -38.75 3.1 -37.0 L1.3 -36.1 -0.35 -35.45 Q-2.4 -36.8 -5.1 -37.65 L-7.05 -37.85 Q-8.7 -37.45 -9.8 -36.3 -10.9 -35.2 -10.6 -33.65 L-11.3 -34.65 -9.15 -39.15 Q-9.4 -42.05 -10.4 -44.85 L-10.9 -46.35 Q-11.0 -46.8 -11.6 -47.2 L-11.05 -47.1 Q-8.35 -48.65 -7.0 -51.45 L-6.9 -51.45 -6.0 -45.95 -4.7 -38.45 -4.55 -38.2 -4.55 -39.35 -5.45 -47.1 Q-5.65 -49.55 -6.5 -51.65 -7.1 -53.4 -8.65 -54.7 -10.9 -56.6 -13.7 -56.2 -13.45 -58.55 -12.25 -60.8 -11.2 -62.85 -10.75 -64.9 -10.65 -65.35 -10.95 -65.2 L-11.25 -64.95 Q-13.0 -65.25 -14.45 -66.0 L-15.5 -66.55 -18.45 -68.45 -19.55 -69.1 -19.2 -69.15 -13.1 -68.65 -8.5 -67.45 -7.75 -66.8 -7.6 -66.9 -7.25 -66.85 -7.35 -66.8 -8.0 -66.3 -5.85 -66.2 Q-6.75 -65.8 -7.15 -64.9 L-7.4 -64.3 -6.25 -64.45 -7.05 -61.5 -5.5 -62.2 -5.7 -59.8 -4.25 -61.35 -4.25 -58.9 Q-5.75 -57.9 -7.45 -57.8 L-9.35 -57.1 -8.95 -56.7 Q-8.6 -56.35 -8.15 -56.15 L-7.75 -55.9 -7.95 -55.85 -6.3 -55.75 -6.0 -55.45 Q-4.2 -53.85 -3.9 -51.3 L-3.8 -50.25 Q-3.35 -44.6 -2.45 -39.3 L0.15 -37.3 2.95 -39.55 3.25 -41.3 3.75 -47.3 4.3 -51.7 Q4.65 -54.2 6.65 -55.75 L8.0 -55.6 Q8.35 -55.6 7.85 -55.9 L9.45 -56.9 9.85 -57.35 7.55 -57.75 6.9 -57.8 Q6.3 -57.8 5.45 -58.25 L4.45 -58.85 4.35 -59.15 4.3 -61.35 5.8 -59.8 5.6 -62.2 7.15 -61.6 6.3 -64.45 7.6 -64.4 7.3 -64.95 6.95 -65.45 6.55 -65.85 5.95 -66.2 8.05 -66.3 8.05 -66.45 7.8 -66.65 7.15 -66.9 7.9 -66.85 Q7.85 -67.15 8.2 -67.25 L11.75 -68.5 13.1 -68.95 Q16.15 -69.3 19.6 -69.1 M10.7 -32.5 Q11.85 -33.3 11.95 -34.75 L11.8 -35.6 Q10.75 -37.3 10.05 -38.75 9.65 -39.6 9.8 -40.45 L10.55 -42.7 10.85 -44.15 11.1 -41.6 11.05 -40.55 10.4 -38.5 10.4 -38.45 10.9 -38.95 11.15 -39.45 Q11.35 -40.5 11.65 -40.7 L12.65 -39.35 15.25 -38.45 Q17.7 -37.45 18.3 -34.9 L18.6 -34.7 24.5 -29.5 24.95 -28.6 24.9 -28.6 Q24.9 -27.6 23.85 -26.9 22.75 -26.2 21.25 -26.2 L21.8 -27.35 20.55 -27.85 Q18.55 -28.6 17.2 -30.2 L16.35 -31.45 16.25 -31.3 12.45 -28.05 Q11.15 -27.05 9.55 -26.55 L7.1 -26.95 8.3 -27.65 Q8.3 -26.9 9.2 -26.8 9.8 -26.65 10.3 -27.05 L10.65 -28.25 9.55 -28.55 10.7 -32.5 M-10.55 -32.4 L-9.65 -28.55 -10.6 -28.25 Q-10.9 -27.3 -9.6 -27.1 L-8.5 -27.3 -8.25 -27.65 -6.85 -26.95 -9.5 -26.55 -11.1 -27.35 -13.5 -29.05 -16.3 -31.35 Q-17.2 -29.85 -18.65 -28.75 L-20.05 -27.8 Q-20.5 -27.55 -21.0 -27.4 L-21.35 -27.1 -20.35 -26.3 Q-22.2 -26.3 -23.5 -26.95 -24.85 -27.65 -24.85 -28.6 L-24.9 -28.6 -24.45 -29.5 -20.25 -33.1 -18.25 -34.9 Q-18.15 -36.1 -17.4 -37.0 -15.45 -39.3 -12.55 -39.35 L-11.45 -40.8 -11.45 -40.6 Q-11.2 -39.35 -10.45 -38.5 L-10.35 -38.5 -10.45 -38.7 Q-11.7 -41.4 -10.75 -44.2 L-9.65 -40.05 -10.3 -38.4 -10.25 -38.35 Q-10.7 -37.05 -11.6 -35.85 -12.1 -35.1 -11.9 -34.4 -11.55 -33.2 -10.55 -32.4 M-6.05 -26.55 L-4.35 -25.65 -5.4 -24.6 -5.4 -24.45 -4.05 -19.95 -3.95 -21.5 -3.6 -22.05 -0.55 -22.95 -0.2 -22.65 0.05 -21.7 0.3 -22.65 2.1 -22.65 3.55 -22.25 4.0 -21.5 4.1 -19.95 5.45 -24.45 4.45 -25.6 6.15 -26.55 9.95 -26.15 11.1 -25.2 9.7 -24.7 8.25 -22.3 9.3 -22.85 10.2 -21.45 Q8.85 -20.2 7.1 -19.8 -0.45 -17.9 -7.9 -20.05 -9.15 -20.45 -10.1 -21.45 L-9.2 -22.85 -8.1 -22.35 -9.65 -24.7 -10.65 -25.05 -9.8 -26.1 -6.05 -26.55 M0.35 -24.8 L3.9 -25.4 4.85 -24.85 4.95 -23.75 4.25 -22.75 Q2.4 -22.7 0.6 -23.55 L0.3 -24.15 0.35 -24.8 M22.15 -21.3 L21.75 -19.85 18.95 -19.65 Q18.2 -19.9 18.0 -20.7 L17.85 -21.65 18.4 -22.1 Q19.5 -21.1 21.05 -21.1 L22.15 -21.3 M8.35 -16.45 L8.5 -16.4 8.95 -17.9 10.65 -17.2 11.2 -18.8 12.7 -18.25 12.9 -18.95 13.0 -18.75 14.15 -15.85 14.35 -14.95 14.05 -14.75 Q13.25 -14.15 12.45 -13.95 L10.8 -13.7 Q9.75 -13.9 9.0 -14.7 L8.35 -16.45 M0.6 -20.65 L0.0 -21.35 -0.55 -20.65 -3.1 -20.1 3.2 -20.15 0.6 -20.65 M-3.75 -25.45 L-0.25 -24.85 -0.5 -23.55 Q-2.2 -22.95 -3.85 -22.6 L-4.2 -22.75 Q-4.8 -23.05 -4.8 -23.9 L-4.75 -24.85 -3.75 -25.45 M-21.95 -21.25 L-19.6 -21.4 -18.35 -22.1 Q-17.6 -22.05 -17.4 -21.25 L-17.25 -20.5 Q-18.0 -19.2 -19.5 -19.35 -21.4 -19.6 -21.95 -21.25 M-7.95 -16.6 L-7.65 -14.6 -8.55 -13.45 Q-11.4 -12.75 -14.05 -13.85 L-14.05 -13.8 -14.1 -13.85 -14.1 -14.6 Q-13.85 -16.5 -13.2 -18.3 L-12.85 -18.95 -12.65 -18.4 -12.65 -18.25 Q-11.9 -18.45 -11.15 -18.8 L-10.6 -17.2 -8.9 -17.9 -8.65 -16.3 -7.95 -16.6" fill="#5a94a9" fill-rule="evenodd" stroke="none"/>
    <path d="M8.65 -27.6 Q9.15 -28.4 10.2 -28.05 L10.4 -27.8 10.4 -27.7 Q9.5 -26.7 8.65 -27.6" fill="#4a676f" fill-rule="evenodd" stroke="none"/>
    <path d="M-13.7 -56.2 Q-10.9 -56.6 -8.65 -54.7 -7.1 -53.4 -6.5 -51.65 L-6.95 -52.25 -7.1 -52.2 -6.9 -51.45 -7.0 -51.45 Q-8.35 -48.65 -11.05 -47.1 L-11.6 -47.2 -12.2 -48.1 -12.0 -48.15 Q-9.2 -49.15 -8.7 -51.35 L-10.55 -49.85 Q-11.65 -48.7 -13.0 -48.55 L-13.45 -48.85 -13.6 -49.75 -13.25 -50.6 -12.45 -51.0 Q-10.35 -52.25 -8.1 -52.4 -7.65 -52.35 -7.8 -52.7 -10.1 -55.05 -13.35 -55.45 L-13.7 -56.2 M11.9 -47.5 Q10.85 -47.75 9.95 -48.15 9.0 -48.65 8.35 -49.5 L6.85 -51.1 7.0 -52.15 Q7.0 -52.5 6.8 -52.05 L7.15 -52.75 Q8.25 -54.55 10.35 -55.55 L13.0 -56.4 13.75 -56.05 13.65 -55.85 13.35 -55.6 13.1 -55.6 Q10.0 -54.7 7.8 -52.6 L13.3 -50.6 13.35 -50.5 Q13.85 -49.75 13.55 -48.85 L13.1 -48.55 Q12.5 -48.7 12.05 -49.0 L8.75 -51.35 12.15 -48.0 11.9 -47.5 M10.7 -32.5 L9.55 -28.55 8.3 -27.65 7.1 -26.95 Q4.05 -27.25 1.25 -28.15 L1.4 -28.05 6.15 -26.55 4.45 -25.6 Q2.25 -27.0 -0.25 -27.2 -2.4 -26.8 -4.35 -25.65 L-6.05 -26.55 -1.3 -28.1 -6.85 -26.95 -8.25 -27.65 -9.65 -28.55 -10.55 -32.4 -9.55 -31.9 -9.45 -30.7 -8.95 -30.35 -8.6 -29.7 Q-8.05 -28.7 -6.95 -28.6 L-6.9 -28.6 Q-4.6 -29.15 -2.35 -28.6 L0.0 -28.4 1.1 -28.6 1.2 -28.6 1.9 -28.7 Q4.45 -28.95 7.0 -28.6 8.7 -28.8 9.0 -30.35 L9.75 -31.05 9.6 -32.0 10.7 -32.5 M16.25 -31.3 L16.35 -31.45 17.2 -30.2 Q18.55 -28.6 20.55 -27.85 L21.8 -27.35 21.25 -26.2 19.35 -26.65 20.3 -26.85 18.8 -27.15 Q16.3 -27.25 14.9 -29.35 L16.25 -31.3 M0.35 -24.8 L0.55 -26.15 1.05 -26.6 3.9 -25.4 0.35 -24.8 M14.0 -28.35 L13.5 -27.35 Q12.7 -26.0 11.1 -25.2 L9.95 -26.15 14.0 -28.35 M-10.65 -25.05 Q-12.9 -25.85 -13.9 -28.35 L-9.8 -26.1 -10.65 -25.05 M22.15 -21.3 L22.6 -21.35 Q23.3 -20.2 22.2 -19.1 20.75 -17.65 18.9 -18.45 18.45 -18.6 18.15 -18.85 16.7 -20.25 17.85 -21.65 L18.0 -20.7 Q18.2 -19.9 18.95 -19.65 L21.75 -19.85 22.15 -21.3 M14.35 -14.95 L14.35 -14.0 13.55 -13.25 11.0 -11.5 Q9.15 -10.4 6.75 -10.4 L9.5 -10.3 10.55 -7.7 9.65 -7.25 Q8.25 -6.3 7.35 -6.0 4.95 -8.15 3.45 -10.55 2.95 -11.35 3.25 -12.2 L5.3 -14.0 5.5 -15.85 6.3 -15.45 6.8 -15.6 7.5 -16.85 8.35 -16.45 9.0 -14.7 Q9.75 -13.9 10.8 -13.7 L12.45 -13.95 Q13.25 -14.15 14.05 -14.75 L14.35 -14.95 M-20.35 -26.3 L-21.35 -27.1 -21.0 -27.4 Q-20.5 -27.55 -20.05 -27.8 L-18.65 -28.75 Q-17.2 -29.85 -16.3 -31.35 L-14.9 -29.3 Q-16.55 -27.05 -19.55 -27.1 L-20.1 -26.8 -19.3 -26.65 -20.35 -26.3 M-10.35 -27.8 Q-9.9 -28.45 -9.0 -27.95 L-8.55 -27.6 -8.6 -27.6 Q-9.45 -26.7 -10.35 -27.7 L-10.35 -27.8 M-0.25 -24.85 L-3.75 -25.45 -1.0 -26.6 -0.5 -26.15 -0.25 -24.85 M-17.25 -20.5 Q-17.2 -19.2 -18.35 -18.5 L-21.35 -18.55 Q-22.65 -19.25 -22.95 -20.7 L-22.75 -21.45 -21.95 -21.25 Q-21.4 -19.6 -19.5 -19.35 -18.0 -19.2 -17.25 -20.5 M-7.95 -16.6 L-7.45 -16.85 -6.75 -15.6 -6.25 -15.45 -5.45 -15.85 -5.25 -14.0 -2.85 -11.55 -3.1 -11.0 Q-4.85 -8.05 -7.5 -5.8 L-8.95 -6.7 -9.5 -7.05 -10.5 -7.7 -9.45 -10.3 -6.2 -10.45 -7.45 -10.45 Q-11.25 -11.2 -14.05 -13.8 L-14.05 -13.85 Q-11.4 -12.75 -8.55 -13.45 L-7.65 -14.6 -7.95 -16.6" fill="#445f66" fill-rule="evenodd" stroke="none"/>
    <path d="M19.05 -68.7 L19.6 -69.1 19.7 -69.1 18.95 -68.05 18.8 -67.8 18.4 -67.2 Q17.05 -65.45 15.3 -64.5 L16.9 -66.85 19.05 -68.7 M7.55 -57.75 L9.85 -57.35 9.45 -56.9 7.85 -55.9 7.6 -55.95 Q5.85 -56.55 4.2 -55.9 L5.1 -57.95 Q5.95 -57.4 7.15 -57.5 L7.55 -57.75 M6.65 -55.75 Q4.65 -54.2 4.3 -51.7 L3.75 -47.3 3.25 -41.3 2.95 -39.55 0.15 -37.3 -2.45 -39.3 Q-3.35 -44.6 -3.8 -50.25 L-3.9 -51.3 Q-4.2 -53.85 -6.0 -55.45 L-6.3 -55.75 -2.45 -54.7 -0.95 -53.15 -0.3 -52.65 0.4 -52.2 Q0.8 -52.4 1.05 -52.7 L3.0 -54.95 4.35 -55.4 6.65 -55.75 M-7.75 -55.9 L-8.15 -56.15 Q-8.6 -56.35 -8.95 -56.7 L-9.35 -57.1 -7.45 -57.8 -7.4 -57.7 Q-6.25 -57.2 -4.9 -58.0 -4.75 -56.65 -3.55 -55.8 L-2.8 -55.35 -2.6 -54.95 -2.95 -55.25 Q-5.2 -56.75 -7.75 -55.9 M-19.55 -69.1 L-18.45 -68.45 -19.0 -68.7 -15.75 -66.1 -14.7 -64.35 Q-17.5 -65.65 -19.15 -68.4 L-19.55 -69.1 M-10.6 -33.65 Q-10.9 -35.2 -9.8 -36.3 -8.7 -37.45 -7.05 -37.85 L-5.1 -37.65 Q-2.4 -36.8 -0.35 -35.45 L1.3 -36.1 3.1 -37.0 Q6.4 -38.75 9.5 -36.65 11.15 -35.55 10.75 -33.75 10.25 -32.85 9.2 -32.55 L9.0 -31.6 9.0 -31.4 Q7.3 -31.45 5.6 -32.15 L4.9 -32.45 2.6 -31.95 1.25 -31.4 -1.25 -31.45 Q-3.3 -32.4 -5.0 -32.1 L-8.95 -31.2 -8.95 -31.6 -8.95 -32.0 -9.15 -32.45 -9.25 -32.6 -10.05 -32.9 -10.6 -33.65 M-1.8 -63.75 L-2.3 -64.6 Q-2.8 -65.85 -2.5 -67.15 L0.05 -78.55 1.5 -72.2 2.55 -67.15 2.7 -65.55 Q2.6 -64.55 2.0 -63.85 L-0.05 -70.85 -0.2 -70.6 Q-1.45 -67.4 -1.8 -63.75 M7.2 -34.15 Q7.7 -33.95 7.65 -34.45 7.0 -36.3 5.15 -36.5 L1.65 -33.25 5.7 -34.8 7.2 -34.15 M-1.6 -33.3 L-3.2 -35.0 -5.1 -36.5 Q-6.75 -36.1 -7.6 -34.5 L-7.6 -34.45 -7.6 -34.25 -5.65 -34.8 -1.6 -33.3" fill="#b3c7cc" fill-rule="evenodd" stroke="none"/>
    <path d="M16.9 -66.85 L15.3 -64.5 14.2 -64.15 12.45 -64.25 Q11.65 -64.15 11.55 -64.5 L12.3 -64.75 Q14.75 -65.2 16.9 -66.85 M-1.8 -63.75 Q-1.45 -67.4 -0.2 -70.6 L-0.05 -70.85 2.0 -63.85 Q1.3 -62.85 0.05 -62.75 -1.05 -62.9 -1.8 -63.75 M5.1 -57.95 L4.2 -55.9 2.0 -54.45 3.0 -54.95 1.05 -52.7 Q0.8 -52.4 0.4 -52.2 L-0.3 -52.65 -0.95 -53.15 -2.45 -54.7 -1.9 -54.45 -2.6 -54.95 -2.8 -55.35 -3.55 -55.8 Q-4.75 -56.65 -4.9 -58.0 L-4.2 -58.7 -3.45 -56.8 -2.9 -59.2 -2.75 -58.2 -2.5 -57.25 Q-2.2 -56.05 -1.45 -55.35 L-1.5 -55.45 -1.35 -57.85 Q-1.2 -56.3 -0.05 -55.0 L0.1 -54.9 0.1 -55.0 Q1.2 -56.3 1.4 -57.85 L1.45 -57.85 1.45 -55.25 1.9 -55.95 2.85 -58.2 3.05 -58.85 3.55 -56.8 4.35 -58.7 5.1 -57.95 M1.9 -28.7 L1.2 -28.6 1.1 -28.6 Q-1.8 -28.35 -4.45 -29.6 L-7.65 -29.45 Q-8.25 -29.65 -8.0 -30.2 -8.0 -30.65 -7.2 -30.9 L-4.2 -31.3 -0.7 -30.75 0.35 -30.65 4.2 -31.7 7.8 -30.7 8.1 -30.2 7.95 -29.95 Q6.55 -28.8 4.95 -29.45 3.45 -28.9 1.9 -28.7 M-14.7 -64.35 L-15.75 -66.1 -11.55 -64.35 -14.7 -64.35" fill="#7d9ea8" fill-rule="evenodd" stroke="none"/>
  </g>
</svg>
