<?xml version="1.0" encoding="UTF-8" standalone="no"?>
<svg xmlns:ffdec="https://www.free-decompiler.com/flash" xmlns:xlink="http://www.w3.org/1999/xlink" ffdec:objectType="shape" height="52.85px" width="71.8px" xmlns="http://www.w3.org/2000/svg">
  <g transform="matrix(1.0, 0.0, 0.0, 1.0, 36.2, 57.0)">
    <path d="M7.15 -52.55 L17.1 -50.9 20.1 -48.5 21.25 -47.4 17.1 -48.6 3.9 -50.05 Q-0.9 -50.6 -5.7 -50.3 L-15.2 -49.8 Q-9.85 -51.65 -4.2 -52.25 1.45 -53.0 7.15 -52.55 M11.7 -52.45 L-3.0 -52.9 Q-7.55 -52.35 -11.9 -51.2 L-19.65 -48.8 Q-11.45 -56.0 0.05 -56.0 9.7 -56.0 17.0 -51.0 L11.7 -52.45 M24.6 -43.3 L21.35 -43.8 20.95 -43.55 21.2 -42.7 13.85 -43.95 5.45 -44.6 5.4 -45.05 2.85 -45.4 -5.05 -45.15 -5.1 -44.7 -10.0 -44.55 -20.1 -43.45 -19.75 -44.1 -17.55 -44.95 Q-14.05 -46.35 -7.25 -47.6 -1.1 -48.75 4.25 -48.9 9.55 -49.1 14.2 -48.65 18.05 -48.3 21.4 -47.25 23.25 -45.4 24.6 -43.3 M21.3 -42.4 L21.6 -41.1 21.8 -40.3 21.1 -40.35 20.95 -40.35 15.8 -40.2 17.9 -40.15 21.95 -39.85 22.4 -38.45 23.05 -35.7 21.8 -35.55 11.65 -35.05 6.3 -34.7 5.7 -39.9 5.45 -44.15 11.1 -43.8 17.6 -43.05 21.3 -42.4 M27.8 -26.45 L27.95 -26.05 27.95 -26.0 27.75 -25.95 Q26.1 -24.0 23.85 -22.65 21.5 -21.25 18.8 -20.75 L18.6 -20.7 18.55 -20.65 13.25 -19.65 11.45 -19.2 Q9.05 -18.35 6.55 -18.1 0.7 -17.6 -5.15 -17.9 L-7.55 -18.15 -16.9 -19.2 -18.2 -18.95 -18.8 -19.15 Q-23.4 -20.8 -26.7 -24.15 L-27.0 -25.05 -26.95 -25.0 Q-25.4 -23.9 -23.35 -23.7 L-23.2 -23.75 -23.15 -23.75 Q-19.9 -22.55 -16.5 -21.95 -11.8 -20.9 -6.95 -20.6 -2.15 -20.3 2.65 -20.7 L11.9 -21.6 Q16.55 -21.95 21.0 -23.3 L21.25 -23.35 Q22.7 -23.8 23.95 -24.4 L24.4 -24.2 25.0 -24.25 Q26.85 -24.9 27.8 -26.45 M-24.5 -43.3 Q-22.7 -46.1 -20.0 -48.5 L-19.95 -48.55 -10.2 -49.7 -1.4 -49.9 10.55 -49.2 5.1 -49.15 -5.9 -48.1 -13.45 -46.65 Q-17.8 -45.65 -21.8 -43.85 L-24.3 -43.3 -24.5 -43.3 M6.3 -34.4 L9.35 -34.55 18.15 -35.05 23.15 -35.25 23.35 -34.35 23.85 -32.3 15.75 -30.65 7.55 -29.5 Q7.15 -31.35 6.25 -33.0 L6.3 -34.15 6.3 -34.4 M23.9 -31.85 L24.05 -30.75 Q24.35 -28.25 23.65 -25.85 L23.6 -25.2 Q18.75 -22.85 13.55 -22.1 L3.35 -20.95 -4.05 -20.75 Q-9.35 -20.85 -14.55 -21.85 L-19.8 -23.3 -22.9 -24.45 -22.9 -24.6 -22.6 -24.6 -22.6 -26.1 -22.95 -29.8 -19.15 -29.2 -9.55 -28.5 -5.6 -28.5 -5.5 -25.2 -5.65 -23.8 Q-5.9 -22.3 -4.4 -22.7 L-1.55 -22.65 2.75 -22.4 4.15 -22.55 6.95 -22.6 7.15 -22.8 6.95 -25.2 7.9 -25.5 7.7 -28.2 7.6 -29.2 9.25 -29.45 18.15 -30.7 23.9 -31.85 M-20.35 -43.0 L-18.6 -43.3 -16.65 -43.5 -8.65 -44.05 -5.15 -44.15 -5.35 -41.75 -5.45 -39.55 -21.85 -39.0 -21.75 -39.85 -20.35 -43.0 M-21.85 -38.9 L-19.9 -38.9 -12.05 -39.1 -5.5 -39.3 -5.6 -34.6 -7.9 -34.65 -16.8 -34.95 -22.65 -35.3 -22.1 -37.85 -21.85 -38.9 M-5.6 -34.35 L-5.65 -32.75 -5.8 -31.75 -5.45 -31.2 -5.55 -29.85 -5.6 -28.75 -6.15 -28.75 Q-13.1 -28.35 -20.05 -29.65 L-23.0 -30.25 -22.65 -35.1 -19.2 -34.75 -9.85 -34.4 -5.6 -34.35" fill="#ffffff" fill-rule="evenodd" stroke="none"/>
    <path d="M7.15 -52.55 Q1.45 -53.0 -4.2 -52.25 -9.85 -51.65 -15.2 -49.8 L-5.7 -50.3 Q-0.9 -50.6 3.9 -50.05 L17.1 -48.6 21.25 -47.4 20.1 -48.5 17.1 -50.9 7.15 -52.55 M11.7 -52.45 L17.0 -51.0 Q9.7 -56.0 0.05 -56.0 -11.45 -56.0 -19.65 -48.8 L-11.9 -51.2 Q-7.55 -52.35 -3.0 -52.9 L11.7 -52.45 M24.6 -43.3 Q23.25 -45.4 21.4 -47.25 18.05 -48.3 14.2 -48.65 9.55 -49.1 4.25 -48.9 -1.1 -48.75 -7.25 -47.6 -14.05 -46.35 -17.55 -44.95 L-19.75 -44.1 -19.65 -44.35 -21.8 -43.85 Q-17.8 -45.65 -13.45 -46.65 L-5.9 -48.1 5.1 -49.15 10.55 -49.2 -1.4 -49.9 -10.2 -49.7 -19.95 -48.55 -20.0 -48.5 Q-22.7 -46.1 -24.5 -43.3 L-25.65 -43.4 Q-23.7 -46.55 -20.65 -49.25 -12.1 -57.0 0.05 -57.0 12.2 -57.0 20.75 -49.25 26.6 -44.0 28.5 -37.25 L27.0 -39.75 Q26.1 -41.25 25.85 -43.15 L24.6 -43.3 M-20.1 -43.45 L-10.0 -44.55 -5.1 -44.7 -5.15 -44.15 -8.65 -44.05 -16.65 -43.5 -18.6 -43.3 -20.35 -43.0 -20.1 -43.45 M5.45 -44.6 L13.85 -43.95 21.2 -42.7 21.3 -42.4 17.6 -43.05 11.1 -43.8 5.45 -44.15 5.45 -44.6 M21.8 -40.3 L21.95 -39.85 17.9 -40.15 15.8 -40.2 20.95 -40.35 21.1 -40.35 21.8 -40.3 M25.0 -32.6 L25.25 -32.15 23.9 -31.85 18.15 -30.7 9.25 -29.45 7.6 -29.2 7.55 -29.5 15.75 -30.65 23.85 -32.3 25.0 -32.6 M27.4 -27.3 L27.55 -27.05 Q25.95 -25.45 23.95 -24.4 22.7 -23.8 21.25 -23.35 L21.0 -23.3 Q16.55 -21.95 11.9 -21.6 L2.65 -20.7 Q-2.15 -20.3 -6.95 -20.6 -11.8 -20.9 -16.5 -21.95 -19.9 -22.55 -23.15 -23.75 L-25.1 -24.6 Q-26.55 -25.3 -27.6 -26.3 L-26.95 -26.3 Q-25.1 -25.3 -22.9 -24.45 L-19.8 -23.3 -14.55 -21.85 Q-9.35 -20.85 -4.05 -20.75 L3.35 -20.95 13.55 -22.1 Q18.75 -22.85 23.6 -25.2 L24.95 -25.9 27.1 -27.1 27.4 -27.3 M27.95 -26.05 L27.95 -26.0 27.95 -26.05 M28.4 -25.75 L28.9 -25.8 Q27.4 -17.9 20.75 -11.85 12.2 -4.15 0.05 -4.15 -12.1 -4.15 -20.65 -11.85 -27.55 -18.1 -28.9 -26.35 L-27.85 -26.3 -27.2 -23.45 -26.35 -21.25 -26.35 -21.2 -25.9 -20.2 -21.2 -13.75 -20.9 -13.45 Q-16.1 -11.3 -10.65 -11.15 -3.1 -10.7 4.4 -12.2 9.85 -13.35 15.0 -15.3 18.1 -16.45 20.85 -18.3 14.85 -15.75 8.45 -14.9 L-2.75 -14.05 Q-7.95 -14.0 -12.95 -15.2 -17.35 -16.25 -21.4 -17.9 L-21.55 -17.95 -24.85 -19.9 -25.75 -20.7 -25.7 -20.7 -25.85 -20.85 -25.7 -20.75 Q-21.4 -17.85 -16.4 -16.5 -10.7 -15.15 -4.65 -14.85 -0.15 -14.6 4.25 -14.9 L11.5 -15.85 Q16.3 -16.85 20.95 -18.9 24.9 -20.75 27.5 -24.1 L27.65 -24.65 28.4 -25.75 M23.05 -35.7 L23.15 -35.25 18.15 -35.05 9.35 -34.55 6.3 -34.4 6.3 -34.7 11.65 -35.05 21.8 -35.55 23.05 -35.7 M-5.6 -28.5 L-9.55 -28.5 -19.15 -29.2 -22.95 -29.8 -24.65 -30.3 -24.5 -30.65 -23.0 -30.25 -20.05 -29.65 Q-13.1 -28.35 -6.15 -28.75 L-5.6 -28.75 -5.6 -28.5 M20.1 -12.6 L21.3 -13.75 Q17.7 -11.85 13.25 -10.8 7.1 -9.5 0.75 -9.3 L-9.75 -9.95 Q-15.1 -10.9 -20.1 -12.95 L-20.55 -13.15 -20.0 -12.6 Q-11.7 -5.15 0.05 -5.15 11.8 -5.15 20.1 -12.6 M13.8 -11.55 Q17.95 -12.5 21.85 -14.3 25.45 -18.15 27.05 -22.7 23.95 -19.1 19.75 -16.95 14.3 -14.15 8.25 -12.7 4.0 -11.65 -0.6 -11.1 L-8.35 -10.6 -11.05 -10.6 1.8 -9.8 Q7.9 -9.95 13.8 -11.55 M-21.85 -39.0 L-5.45 -39.55 -5.5 -39.3 -12.05 -39.1 -19.9 -38.9 -21.85 -38.9 -21.85 -39.0 M-22.65 -35.3 L-16.8 -34.95 -7.9 -34.65 -5.6 -34.6 -5.6 -34.35 -9.85 -34.4 -19.2 -34.75 -22.65 -35.1 -22.65 -35.3" fill="#333333" fill-rule="evenodd" stroke="none"/>
    <path d="M22.4 -38.45 L23.4 -35.95 24.65 -33.35 25.0 -32.6 23.85 -32.3 23.35 -34.35 23.15 -35.25 23.05 -35.7 22.4 -38.45 M25.25 -32.15 L27.4 -27.3 27.1 -27.1 24.95 -25.9 23.6 -25.2 23.65 -25.85 Q24.35 -28.25 24.05 -30.75 L23.9 -31.85 25.25 -32.15 M27.55 -27.05 L27.8 -26.45 Q26.85 -24.9 25.0 -24.25 L24.4 -24.2 23.95 -24.4 Q25.95 -25.45 27.55 -27.05 M27.95 -26.0 L28.05 -25.75 28.4 -25.75 27.65 -24.65 27.5 -24.1 Q24.9 -20.75 20.95 -18.9 16.3 -16.85 11.5 -15.85 L4.25 -14.9 Q-0.15 -14.6 -4.65 -14.85 -10.7 -15.15 -16.4 -16.5 -21.4 -17.85 -25.7 -20.75 L-25.85 -20.85 -25.7 -20.7 -25.75 -20.7 -24.85 -19.9 -21.55 -17.95 -21.4 -17.9 Q-17.35 -16.25 -12.95 -15.2 -7.95 -14.0 -2.75 -14.05 L8.45 -14.9 Q14.85 -15.75 20.85 -18.3 18.1 -16.45 15.0 -15.3 9.85 -13.35 4.4 -12.2 -3.1 -10.7 -10.65 -11.15 -16.1 -11.3 -20.9 -13.45 L-21.2 -13.75 -25.9 -20.2 -26.35 -21.2 -26.35 -21.25 -27.2 -23.45 -27.85 -26.3 -27.6 -26.3 Q-26.55 -25.3 -25.1 -24.6 L-23.15 -23.75 -23.2 -23.75 -23.35 -23.7 Q-25.4 -23.9 -26.95 -25.0 L-27.0 -25.05 -26.7 -24.15 Q-23.4 -20.8 -18.8 -19.15 L-18.2 -18.95 -16.9 -19.2 -7.55 -18.15 -5.15 -17.9 Q0.7 -17.6 6.55 -18.1 9.05 -18.35 11.45 -19.2 L13.25 -19.65 18.55 -20.65 18.6 -20.7 18.8 -20.75 Q21.5 -21.25 23.85 -22.65 26.1 -24.0 27.75 -25.95 L27.95 -26.0 M6.95 -25.2 L7.15 -22.8 6.95 -22.6 4.15 -22.55 2.75 -22.4 -1.55 -22.65 -4.4 -22.7 Q-5.9 -22.3 -5.65 -23.8 L-5.5 -25.2 -5.45 -24.7 0.85 -24.4 Q3.95 -24.2 6.95 -25.2 M-22.95 -29.8 L-22.6 -26.1 -22.6 -24.6 -22.9 -24.6 -22.9 -24.45 Q-25.1 -25.3 -26.95 -26.3 L-26.7 -26.3 -26.15 -26.25 -25.95 -26.85 -24.85 -29.75 -24.65 -30.3 -22.95 -29.8 M13.8 -11.55 Q7.9 -9.95 1.8 -9.8 L-11.05 -10.6 -8.35 -10.6 -0.6 -11.1 Q4.0 -11.65 8.25 -12.7 14.3 -14.15 19.75 -16.95 23.95 -19.1 27.05 -22.7 25.45 -18.15 21.85 -14.3 17.95 -12.5 13.8 -11.55 M20.1 -12.6 Q11.8 -5.15 0.05 -5.15 -11.7 -5.15 -20.0 -12.6 L-20.55 -13.15 -20.1 -12.95 Q-15.1 -10.9 -9.75 -9.95 L0.75 -9.3 Q7.1 -9.5 13.25 -10.8 17.7 -11.85 21.3 -13.75 L20.1 -12.6 M-21.75 -39.85 L-21.85 -39.0 -21.85 -38.9 -22.1 -37.85 -22.65 -35.3 -22.65 -35.1 -23.0 -30.25 -24.5 -30.65 Q-23.5 -33.55 -22.75 -36.6 L-21.75 -39.85" fill="#c5c4d2" fill-rule="evenodd" stroke="none"/>
    <path d="M21.2 -42.7 L20.95 -43.55 21.35 -43.8 24.6 -43.3 25.85 -43.15 Q26.1 -41.25 27.0 -39.75 L28.5 -37.25 29.0 -36.35 30.45 -34.05 Q31.35 -32.65 32.75 -31.85 L33.15 -31.15 33.55 -30.5 35.6 -28.15 34.55 -26.15 28.9 -25.8 28.4 -25.75 28.05 -25.75 27.95 -26.0 27.95 -26.05 27.8 -26.45 27.55 -27.05 27.4 -27.3 25.25 -32.15 25.0 -32.6 24.65 -33.35 23.4 -35.95 22.4 -38.45 21.95 -39.85 21.8 -40.3 21.6 -41.1 21.3 -42.4 21.2 -42.7 M-19.75 -44.1 L-20.1 -43.45 -20.35 -43.0 -21.75 -39.85 -22.75 -36.6 Q-23.5 -33.55 -24.5 -30.65 L-24.65 -30.3 -24.85 -29.75 -25.95 -26.85 -26.15 -26.25 -26.7 -26.3 -26.95 -26.3 -27.6 -26.3 -27.85 -26.3 -28.9 -26.35 -32.95 -26.7 -35.75 -27.45 -36.15 -27.6 -36.2 -27.85 -34.1 -30.25 Q-32.05 -32.45 -30.6 -34.8 L-28.0 -39.25 -25.9 -43.45 -25.65 -43.4 -24.5 -43.3 -24.3 -43.3 -21.8 -43.85 -19.65 -44.35 -19.75 -44.1 M-5.1 -44.7 L-5.05 -45.15 2.85 -45.4 5.4 -45.05 5.45 -44.6 5.45 -44.15 5.7 -39.9 6.3 -34.7 6.3 -34.4 6.3 -34.15 6.25 -33.0 Q7.15 -31.35 7.55 -29.5 L7.6 -29.2 7.7 -28.2 7.9 -25.5 6.95 -25.2 Q3.95 -24.2 0.85 -24.4 L-5.45 -24.7 -5.5 -25.2 -5.6 -28.5 -5.6 -28.75 -5.55 -29.85 -5.45 -31.2 -5.8 -31.75 -5.65 -32.75 -5.6 -34.35 -5.6 -34.6 -5.5 -39.3 -5.45 -39.55 -5.35 -41.75 -5.15 -44.15 -5.1 -44.7 M25.6 -41.5 L25.5 -41.9 25.15 -42.95 21.55 -43.25 21.75 -42.55 21.85 -42.3 22.5 -40.3 22.5 -40.25 22.65 -39.8 23.55 -36.85 24.0 -35.75 Q24.35 -34.8 24.85 -33.9 L25.5 -32.75 25.8 -32.25 26.7 -30.65 27.8 -28.65 28.2 -27.9 28.3 -27.7 28.8 -26.75 28.85 -26.55 29.0 -26.45 29.05 -26.45 29.45 -26.45 30.9 -26.8 34.3 -27.05 35.05 -28.1 31.1 -32.65 29.25 -35.0 28.9 -35.55 27.0 -38.65 26.5 -39.6 26.45 -39.65 25.8 -41.15 25.7 -41.35 25.6 -41.5 M4.95 -44.55 L1.4 -44.65 -2.75 -44.7 -4.9 -44.75 -5.25 -32.1 -4.7 -30.65 -5.0 -30.15 -4.8 -29.2 -4.7 -28.8 -4.65 -28.5 -4.65 -28.4 -4.7 -27.5 -5.05 -25.3 -0.55 -25.5 3.75 -25.05 6.9 -25.75 7.35 -25.95 6.55 -31.5 5.65 -32.55 4.95 -44.55 M-27.3 -38.8 L-28.5 -36.65 -30.25 -34.25 -33.4 -30.4 -35.3 -27.85 Q-33.4 -27.0 -31.45 -27.25 L-29.0 -27.1 -27.85 -26.7 -27.75 -26.7 -26.65 -27.2 -25.35 -30.55 -25.25 -30.85 -24.25 -33.8 -23.85 -35.25 -23.8 -35.4 -23.55 -36.4 -22.8 -38.9 -22.8 -39.0 -22.25 -40.55 -21.35 -42.8 -21.1 -43.3 -21.05 -43.5 -21.8 -43.2 -22.4 -43.0 -23.85 -42.9 -24.6 -43.15 -24.65 -43.15 -25.8 -43.0 -26.85 -39.85 -27.3 -38.8" fill="#000000" fill-rule="evenodd" stroke="none"/>
    <path d="M25.6 -41.5 L25.6 -41.4 25.6 -41.2 Q25.65 -40.45 26.15 -39.75 L26.25 -39.6 26.55 -39.25 26.45 -39.0 26.25 -38.8 25.95 -38.8 24.65 -40.35 23.85 -40.7 Q22.85 -41.1 23.3 -41.8 L23.5 -41.75 24.55 -41.4 24.55 -41.55 23.55 -42.0 23.5 -42.15 23.5 -42.2 23.55 -42.3 23.65 -42.4 Q24.9 -42.4 25.5 -41.9 L25.6 -41.5 M25.3 -37.3 L25.3 -38.15 25.7 -38.5 26.85 -38.7 27.0 -38.4 26.9 -38.2 26.15 -37.7 26.75 -37.05 27.65 -37.2 27.95 -36.7 28.0 -36.2 28.1 -35.7 28.55 -35.25 Q28.3 -35.05 28.05 -35.0 L27.95 -34.95 27.3 -34.9 28.25 -34.05 28.9 -34.25 29.1 -34.15 29.35 -34.05 29.7 -33.7 29.85 -33.35 31.2 -31.95 Q32.1 -30.95 31.55 -29.7 L32.6 -29.1 33.0 -27.95 Q32.6 -27.9 32.5 -28.25 32.35 -28.9 31.9 -29.0 L30.85 -28.95 30.75 -29.2 30.8 -29.3 30.9 -29.55 Q31.1 -30.35 30.55 -30.25 L30.0 -30.4 29.7 -31.15 29.6 -31.25 29.35 -31.1 28.95 -31.0 28.7 -31.45 28.85 -32.4 28.25 -32.65 27.95 -32.8 27.9 -32.8 26.8 -32.65 Q26.3 -32.4 26.0 -32.85 L26.05 -32.85 Q26.15 -33.2 26.4 -33.4 L27.05 -33.85 26.5 -35.0 26.9 -35.6 27.05 -35.75 27.1 -35.85 Q26.65 -36.0 26.25 -36.25 25.6 -36.65 25.3 -37.3 M1.95 -42.25 Q2.05 -42.55 2.35 -42.1 L2.1 -41.4 2.65 -40.5 2.15 -39.9 2.8 -39.25 Q3.9 -39.4 4.6 -38.6 L3.6 -38.25 Q2.3 -37.95 1.25 -37.2 L-0.55 -37.95 -0.75 -37.9 -0.25 -36.85 Q-0.85 -36.5 -1.35 -37.1 -1.7 -38.2 -0.9 -38.75 0.2 -39.05 1.15 -38.15 L1.95 -38.9 0.65 -39.65 0.75 -39.7 0.8 -39.7 1.75 -39.95 1.0 -40.4 0.05 -39.7 0.0 -39.65 -0.9 -39.0 -1.55 -39.05 -2.15 -39.5 -2.8 -39.2 -3.5 -39.55 -3.45 -39.6 Q-2.75 -40.35 -1.7 -40.45 -0.15 -40.85 1.1 -41.65 L1.25 -42.15 1.25 -42.2 1.15 -42.15 0.6 -41.6 -0.45 -41.9 -0.7 -41.8 -1.3 -41.15 -2.3 -41.75 Q-2.85 -42.5 -2.35 -42.9 -1.7 -42.9 -1.15 -42.2 L-0.7 -42.5 1.15 -43.15 Q1.65 -43.25 2.0 -42.75 L1.95 -42.6 1.95 -42.25 M1.0 -32.15 Q2.1 -32.05 2.8 -31.45 3.45 -30.9 3.15 -30.15 L2.15 -29.8 1.05 -30.9 0.2 -30.7 1.5 -29.2 1.55 -29.05 1.55 -28.9 1.5 -28.7 1.65 -28.6 1.95 -28.55 2.1 -28.3 2.25 -28.0 2.2 -27.8 2.15 -27.65 2.2 -27.55 2.35 -27.5 2.7 -27.4 3.15 -27.25 3.15 -27.15 2.4 -26.4 Q1.2 -26.6 0.65 -27.6 L-2.1 -28.2 -2.25 -28.4 -0.1 -29.15 -0.7 -30.25 Q-0.9 -30.8 -0.6 -31.3 -0.1 -32.05 1.0 -32.15 M3.3 -35.3 L3.75 -35.15 4.0 -34.6 3.95 -34.35 3.9 -34.3 3.55 -34.3 3.0 -34.35 0.4 -34.85 0.1 -34.7 0.0 -34.6 -0.1 -34.4 -0.15 -34.3 -0.2 -34.2 0.85 -33.75 0.6 -33.0 -0.2 -32.6 -0.8 -33.05 -1.15 -33.05 -1.2 -32.95 -1.15 -32.6 -1.15 -32.4 -1.2 -32.3 -1.2 -32.25 -1.7 -32.15 -2.0 -32.4 Q-2.2 -33.45 -1.0 -33.9 L-0.7 -34.75 -3.5 -34.45 Q-3.85 -34.3 -3.95 -34.8 L-3.9 -35.0 -3.5 -35.25 Q-2.95 -35.45 -2.55 -35.8 L-2.15 -36.2 Q-1.65 -36.9 -1.2 -36.45 L-1.7 -35.65 3.3 -35.3 M-26.85 -39.85 L-26.4 -40.3 -26.15 -40.3 -25.9 -40.35 -25.85 -40.15 -25.85 -39.95 Q-25.55 -39.65 -25.3 -39.95 L-25.3 -40.0 -25.55 -40.6 -25.7 -41.25 -25.45 -42.45 -23.25 -42.05 -23.05 -41.7 -23.1 -41.35 -23.4 -41.15 -23.8 -41.05 -24.65 -38.7 -24.85 -38.7 -26.65 -38.7 -26.25 -38.65 -25.7 -37.9 -25.85 -37.65 -26.15 -37.55 Q-26.4 -37.6 -26.25 -37.85 L-26.45 -37.9 -26.5 -37.7 -26.95 -36.9 -27.0 -36.7 -25.8 -37.0 Q-24.9 -36.7 -24.45 -36.0 L-24.95 -35.45 -25.3 -35.55 -25.8 -35.8 -26.85 -35.95 -26.45 -34.85 -26.6 -33.95 -28.0 -32.75 Q-27.85 -32.25 -28.05 -31.8 L-28.1 -31.75 -28.2 -31.55 -28.35 -31.45 -28.85 -31.05 Q-29.0 -30.9 -29.25 -30.8 L-30.25 -30.6 -30.7 -30.95 -31.75 -29.35 Q-32.35 -28.55 -33.3 -28.1 L-33.3 -28.25 -32.2 -29.9 -31.4 -31.05 -30.5 -32.05 -29.95 -31.95 -30.0 -33.35 -28.7 -34.1 Q-28.55 -35.05 -28.0 -35.95 L-27.55 -36.4 -27.5 -36.35 -27.6 -37.1 -27.2 -38.05 -27.3 -38.8 -26.85 -39.85 M-29.2 -32.1 L-28.7 -33.25 -29.45 -33.05 -29.2 -32.1 M-27.55 -34.4 L-27.5 -34.65 -27.7 -35.0 -27.55 -34.4" fill="#9b200b" fill-rule="evenodd" stroke="none"/>
    <path d="M25.5 -41.9 Q24.9 -42.4 23.65 -42.4 L23.55 -42.3 23.5 -42.2 23.5 -42.15 23.55 -42.0 24.55 -41.55 24.55 -41.4 23.5 -41.75 23.3 -41.8 Q22.85 -41.1 23.85 -40.7 L24.65 -40.35 25.95 -38.8 26.25 -38.8 26.45 -39.0 26.55 -39.25 26.25 -39.6 26.15 -39.75 Q25.65 -40.45 25.6 -41.2 L25.6 -41.4 25.6 -41.5 25.7 -41.35 25.8 -41.15 26.45 -39.65 26.5 -39.6 27.0 -38.65 28.9 -35.55 29.25 -35.0 31.1 -32.65 35.05 -28.1 34.3 -27.05 30.9 -26.8 29.45 -26.45 29.05 -26.45 29.0 -26.45 28.85 -26.55 28.8 -26.75 28.3 -27.7 28.2 -27.9 27.8 -28.65 26.7 -30.65 25.8 -32.25 25.5 -32.75 24.85 -33.9 Q24.35 -34.8 24.0 -35.75 L23.55 -36.85 22.65 -39.8 22.5 -40.25 22.5 -40.3 21.85 -42.3 21.75 -42.55 21.55 -43.25 25.15 -42.95 25.5 -41.9 M25.3 -37.3 Q25.6 -36.65 26.25 -36.25 26.65 -36.0 27.1 -35.85 L27.05 -35.75 26.9 -35.6 26.5 -35.0 27.05 -33.85 26.4 -33.4 Q26.15 -33.2 26.05 -32.85 L26.0 -32.85 Q26.3 -32.4 26.8 -32.65 L27.9 -32.8 27.95 -32.8 28.25 -32.65 28.85 -32.4 28.7 -31.45 28.95 -31.0 29.35 -31.1 29.6 -31.25 29.7 -31.15 30.0 -30.4 30.55 -30.25 Q31.1 -30.35 30.9 -29.55 L30.8 -29.3 30.75 -29.2 30.85 -28.95 31.9 -29.0 Q32.35 -28.9 32.5 -28.25 32.6 -27.9 33.0 -27.95 L32.6 -29.1 31.55 -29.7 Q32.1 -30.95 31.2 -31.95 L29.85 -33.35 29.7 -33.7 29.35 -34.05 29.1 -34.15 28.9 -34.25 28.25 -34.05 27.3 -34.9 27.95 -34.95 28.05 -35.0 Q28.3 -35.05 28.55 -35.25 L28.1 -35.7 28.0 -36.2 27.95 -36.7 27.65 -37.2 26.75 -37.05 26.15 -37.7 26.9 -38.2 27.0 -38.4 26.85 -38.7 25.7 -38.5 25.3 -38.15 25.3 -37.3 M4.95 -44.55 L5.65 -32.55 6.55 -31.5 7.35 -25.95 6.9 -25.75 3.75 -25.05 -0.55 -25.5 -5.05 -25.3 -4.7 -27.5 -4.65 -28.4 -4.65 -28.5 -4.7 -28.8 -4.8 -29.2 -5.0 -30.15 -4.7 -30.65 -5.25 -32.1 -4.9 -44.75 -2.75 -44.7 1.4 -44.65 4.95 -44.55 M1.95 -42.25 L1.95 -42.6 2.0 -42.75 Q1.65 -43.25 1.15 -43.15 L-0.7 -42.5 -1.15 -42.2 Q-1.7 -42.9 -2.35 -42.9 -2.85 -42.5 -2.3 -41.75 L-1.3 -41.15 -0.7 -41.8 -0.45 -41.9 0.6 -41.6 1.15 -42.15 1.25 -42.2 1.25 -42.15 1.1 -41.65 Q-0.15 -40.85 -1.7 -40.45 -2.75 -40.35 -3.45 -39.6 L-3.5 -39.55 -2.8 -39.2 -2.15 -39.5 -1.55 -39.05 -0.9 -39.0 0.0 -39.65 0.05 -39.7 1.0 -40.4 1.75 -39.95 0.8 -39.7 0.75 -39.7 0.65 -39.65 1.95 -38.9 1.15 -38.15 Q0.2 -39.05 -0.9 -38.75 -1.7 -38.2 -1.35 -37.1 -0.85 -36.5 -0.25 -36.85 L-0.75 -37.9 -0.55 -37.95 1.25 -37.2 Q2.3 -37.95 3.6 -38.25 L4.6 -38.6 Q3.9 -39.4 2.8 -39.25 L2.15 -39.9 2.65 -40.5 2.1 -41.4 2.35 -42.1 Q2.05 -42.55 1.95 -42.25 M3.3 -35.3 L-1.7 -35.65 -1.2 -36.45 Q-1.65 -36.9 -2.15 -36.2 L-2.55 -35.8 Q-2.95 -35.45 -3.5 -35.25 L-3.9 -35.0 -3.95 -34.8 Q-3.85 -34.3 -3.5 -34.45 L-0.7 -34.75 -1.0 -33.9 Q-2.2 -33.45 -2.0 -32.4 L-1.7 -32.15 -1.2 -32.25 -1.2 -32.3 -1.15 -32.4 -1.15 -32.6 -1.2 -32.95 -1.15 -33.05 -0.8 -33.05 -0.2 -32.6 0.6 -33.0 0.85 -33.75 -0.2 -34.2 -0.15 -34.3 -0.1 -34.4 0.0 -34.6 0.1 -34.7 0.4 -34.85 3.0 -34.35 3.55 -34.3 3.9 -34.3 3.95 -34.35 4.0 -34.6 3.75 -35.15 3.3 -35.3 M1.0 -32.15 Q-0.1 -32.05 -0.6 -31.3 -0.9 -30.8 -0.7 -30.25 L-0.1 -29.15 -2.25 -28.4 -2.1 -28.2 0.65 -27.6 Q1.2 -26.6 2.4 -26.4 L3.15 -27.15 3.15 -27.25 2.7 -27.4 2.35 -27.5 2.2 -27.55 2.15 -27.65 2.2 -27.8 2.25 -28.0 2.1 -28.3 1.95 -28.55 1.65 -28.6 1.5 -28.7 1.55 -28.9 1.55 -29.05 1.5 -29.2 0.2 -30.7 1.05 -30.9 2.15 -29.8 3.15 -30.15 Q3.45 -30.9 2.8 -31.45 2.1 -32.05 1.0 -32.15 M-26.85 -39.85 L-25.8 -43.0 -24.65 -43.15 -24.6 -43.15 -23.85 -42.9 -22.4 -43.0 -21.8 -43.2 -21.05 -43.5 -21.1 -43.3 -21.35 -42.8 -22.25 -40.55 -22.8 -39.0 -22.8 -38.9 -23.55 -36.4 -23.8 -35.4 -23.85 -35.25 -24.25 -33.8 -25.25 -30.85 -25.35 -30.55 -26.65 -27.2 -27.75 -26.7 -27.85 -26.7 -29.0 -27.1 -31.45 -27.25 Q-33.4 -27.0 -35.3 -27.85 L-33.4 -30.4 -30.25 -34.25 -28.5 -36.65 -27.3 -38.8 -27.2 -38.05 -27.6 -37.1 -27.5 -36.35 -27.55 -36.4 -28.0 -35.95 Q-28.55 -35.05 -28.7 -34.1 L-30.0 -33.35 -29.95 -31.95 -30.5 -32.05 -31.4 -31.05 -32.2 -29.9 -33.3 -28.25 -33.3 -28.1 Q-32.35 -28.55 -31.75 -29.35 L-30.7 -30.95 -30.25 -30.6 -29.25 -30.8 Q-29.0 -30.9 -28.85 -31.05 L-28.35 -31.45 -28.2 -31.55 -28.1 -31.75 -28.05 -31.8 Q-27.85 -32.25 -28.0 -32.75 L-26.6 -33.95 -26.45 -34.85 -26.85 -35.95 -25.8 -35.8 -25.3 -35.55 -24.95 -35.45 -24.45 -36.0 Q-24.9 -36.7 -25.8 -37.0 L-27.0 -36.7 -26.95 -36.9 -26.5 -37.7 -26.45 -37.9 -26.25 -37.85 Q-26.4 -37.6 -26.15 -37.55 L-25.85 -37.65 -25.7 -37.9 -26.25 -38.65 -26.65 -38.7 -24.85 -38.7 -24.65 -38.7 -23.8 -41.05 -23.4 -41.15 -23.1 -41.35 -23.05 -41.7 -23.25 -42.05 -25.45 -42.45 -25.7 -41.25 -25.55 -40.6 -25.3 -40.0 -25.3 -39.95 Q-25.55 -39.65 -25.85 -39.95 L-25.85 -40.15 -25.9 -40.35 -26.15 -40.3 -26.4 -40.3 -26.85 -39.85 M-27.55 -34.4 L-27.7 -35.0 -27.5 -34.65 -27.55 -34.4 M-29.2 -32.1 L-29.45 -33.05 -28.7 -33.25 -29.2 -32.1" fill="#ccc2a6" fill-rule="evenodd" stroke="none"/>
  </g>
</svg>
