<?xml version="1.0" encoding="UTF-8" standalone="no"?>
<svg xmlns:ffdec="https://www.free-decompiler.com/flash" xmlns:xlink="http://www.w3.org/1999/xlink" ffdec:objectType="shape" height="8.9px" width="15.5px" xmlns="http://www.w3.org/2000/svg">
  <g transform="matrix(1.0, 0.0, 0.0, 1.0, 6.95, 5.6)">
    <path d="M2.3 -2.25 L1.95 -2.3 0.6 -2.45 -0.7 -2.65 -2.15 -3.0 -3.35 -3.35 -4.75 -3.9 -6.1 -4.65 -6.65 -5.05 -6.2 -3.7 -5.95 -3.55 -4.35 -2.65 -3.5 -2.25 -2.35 -1.7 -1.85 -1.55 -0.3 -1.15 1.05 -1.05 2.05 -1.1 3.0 -1.25 3.2 -1.35 2.85 -2.2 2.3 -2.25 M1.1 -0.8 L-0.25 -1.0 -1.7 -1.35 -2.25 -1.5 -3.55 -2.0 -3.85 -2.1 -4.9 -2.6 -5.55 -2.95 -5.65 -3.0 -6.35 -3.45 -6.4 -2.95 -6.5 -2.35 -6.6 -1.35 -6.55 -1.2 -6.45 -0.95 -5.8 -0.05 -5.4 0.35 -4.45 1.05 -3.55 1.5 -2.85 1.85 -5.1 0.1 -5.95 -0.65 -6.35 -1.1 -6.45 -1.2 -6.25 -1.05 -4.3 0.65 -3.45 1.25 -0.7 2.65 0.1 3.0 0.35 3.15 1.85 2.55 2.75 2.2 4.4 1.75 5.0 1.6 4.2 0.3 3.4 -0.85 3.25 -0.85 2.25 -0.75 1.1 -0.8 M0.55 -2.75 L1.75 -2.65 3.0 -2.55 3.75 -0.95 4.2 -0.3 4.25 -0.2 4.5 0.2 4.95 0.9 5.25 1.4 5.45 2.05 4.35 2.6 2.35 3.1 1.25 3.25 0.55 3.3 0.25 3.25 -0.1 3.15 -2.25 2.4 -4.9 0.95 -5.85 0.25 -6.7 -0.55 Q-7.05 -1.6 -6.75 -2.95 L-6.65 -3.35 -6.65 -3.75 -6.8 -4.7 -6.95 -5.45 -6.6 -5.6 -5.6 -4.75 -4.4 -4.1 -3.2 -3.6 -1.9 -3.2 -0.65 -2.9 0.55 -2.75 M8.25 -4.2 L8.3 -3.15 8.55 -1.3 8.55 -0.4 7.75 -1.45 Q7.45 -1.85 7.3 -2.3 L6.85 -3.4 8.25 -4.2 M8.1 -2.7 L8.05 -3.75 7.15 -3.1 7.55 -2.35 7.65 -2.25 8.05 -2.5 8.1 -2.7 M7.75 -1.9 L8.1 -1.0 8.15 -1.0 8.15 -2.2 7.75 -1.95 7.75 -1.9 M2.85 2.35 L1.85 2.65 0.45 3.2 0.6 3.25 2.05 2.85 2.9 2.6 5.1 2.0 5.0 1.8 2.85 2.35" fill="#254e29" fill-rule="evenodd" stroke="none"/>
    <path d="M1.95 -2.3 L1.95 -1.45 2.0 -1.3 1.65 -1.55 1.45 -1.65 1.05 -1.35 1.05 -1.05 -0.3 -1.15 Q-0.55 -1.9 -1.2 -2.25 L-1.8 -2.45 -2.0 -2.3 -1.95 -1.7 -1.85 -1.55 -2.35 -1.7 -3.1 -2.35 -3.5 -2.25 -4.35 -2.65 -4.35 -3.1 -4.75 -3.9 -3.35 -3.35 -2.55 -2.35 -2.25 -2.3 Q-1.95 -2.45 -2.05 -2.75 L-2.1 -2.95 -2.15 -3.0 -0.7 -2.65 Q-0.5 -1.95 0.25 -1.8 L0.6 -1.9 0.7 -2.1 0.6 -2.45 1.95 -2.3 M3.0 -1.25 L2.6 -2.0 2.3 -2.25 2.85 -2.2 3.2 -1.35 3.0 -1.25 M0.45 -0.45 L0.05 -0.65 -0.1 -0.5 -0.25 -1.0 1.1 -0.8 1.15 -0.7 0.6 -0.65 0.45 -0.45 M0.1 0.7 Q0.25 1.25 0.7 1.6 L0.85 1.65 0.9 1.65 Q1.2 2.1 1.8 2.15 L1.85 2.55 0.35 3.15 0.1 3.0 0.4 2.65 0.35 2.4 Q0.05 1.65 -0.6 1.25 L-0.75 1.15 -1.05 1.3 Q-1.3 0.5 -1.9 0.05 L-2.0 0.0 -2.1 0.1 -2.15 0.2 -2.2 0.65 -2.75 -0.05 -3.0 -0.35 -3.35 -0.55 -3.55 -0.45 -3.65 -0.15 -3.65 -0.05 -4.2 -0.6 -4.45 -0.75 Q-4.8 -0.75 -4.75 -0.4 -4.75 0.15 -4.35 0.55 L-4.3 0.65 -6.25 -1.05 -6.15 -1.1 -6.1 -1.25 -6.1 -1.35 -6.3 -2.15 -6.5 -2.35 -6.4 -2.95 Q-6.25 -2.6 -5.8 -2.65 L-5.75 -2.65 -5.65 -3.0 -5.55 -2.95 -5.0 -2.45 -4.9 -2.45 -4.85 -2.35 -5.05 -2.05 -4.75 -1.45 -4.7 -1.3 -4.35 -0.85 -4.2 -0.8 Q-4.05 -0.85 -4.05 -1.0 L-4.15 -1.35 Q-3.9 -1.35 -3.75 -1.55 L-3.7 -1.75 -3.85 -2.1 -3.55 -2.0 Q-3.7 -1.35 -3.1 -0.9 L-2.85 -0.8 Q-2.6 -0.8 -2.4 -0.95 L-2.25 -1.2 -2.25 -1.5 -1.7 -1.35 -1.2 -0.5 -1.0 -0.1 -0.85 0.1 -0.75 0.4 -0.3 0.95 -0.2 0.95 0.1 0.7 M2.4 0.2 L2.1 -0.15 2.25 -0.4 2.25 -0.75 3.05 -0.2 3.3 -0.2 3.4 -0.4 3.25 -0.85 3.4 -0.85 4.2 0.3 Q4.05 0.3 4.05 0.45 L4.1 1.2 4.4 1.75 2.75 2.2 2.45 1.95 2.35 1.9 2.45 1.65 Q2.6 1.95 2.95 1.9 L3.25 1.65 3.3 1.05 Q3.0 0.4 2.4 0.2 M-0.7 2.65 L-3.45 1.25 -3.25 0.95 -3.25 0.8 -2.3 1.8 -2.2 1.85 -1.85 1.55 -1.1 2.1 -1.0 2.1 -0.7 2.65 M-6.55 -1.2 L-6.6 -1.35 -6.5 -1.25 -6.55 -1.2 M8.1 -2.7 L7.95 -2.8 Q7.6 -2.7 7.65 -2.35 L7.65 -2.25 7.55 -2.35 7.15 -3.1 8.05 -3.75 8.1 -2.7 M-6.1 -4.65 L-6.0 -3.65 -5.95 -3.55 -6.2 -3.7 -6.65 -5.05 -6.1 -4.65 M-5.35 -1.8 Q-5.7 -1.75 -5.7 -1.35 L-5.7 -1.15 Q-5.7 -0.7 -5.25 -0.6 L-5.0 -0.65 Q-4.75 -0.8 -4.85 -1.05 -4.85 -1.55 -5.25 -1.75 L-5.35 -1.8" fill="#649b6a" fill-rule="evenodd" stroke="none"/>
    <path d="M2.0 -1.3 L2.05 -1.1 1.05 -1.05 1.05 -1.35 1.45 -1.65 1.65 -1.55 2.0 -1.3 M-4.75 -3.9 L-4.35 -3.1 -4.35 -2.65 -5.95 -3.55 -6.0 -3.65 -6.1 -4.65 -4.75 -3.9 M-3.5 -2.25 L-3.1 -2.35 -2.35 -1.7 -3.5 -2.25 M0.45 -0.45 L0.6 -0.65 1.15 -0.7 1.1 -0.8 2.25 -0.75 2.25 -0.4 2.1 -0.15 2.4 0.2 Q2.05 0.15 1.95 0.5 L1.95 0.6 2.45 1.65 2.35 1.9 1.95 2.0 1.8 2.15 Q1.2 2.1 0.9 1.65 L1.0 1.55 1.0 0.95 0.95 0.6 0.45 -0.45 M4.2 0.3 L5.0 1.6 4.4 1.75 4.1 1.2 4.05 0.45 Q4.05 0.3 4.2 0.3 M0.1 3.0 L-0.7 2.65 -1.0 2.1 -0.9 1.95 -0.95 1.6 -1.05 1.3 -0.75 1.15 -0.6 1.25 Q0.05 1.65 0.35 2.4 L0.4 2.65 0.1 3.0 M-3.45 1.25 L-4.3 0.65 -4.35 0.55 Q-4.75 0.15 -4.75 -0.4 -4.8 -0.75 -4.45 -0.75 L-4.2 -0.6 -3.65 -0.05 -3.25 0.8 -3.25 0.95 -3.45 1.25 M-6.35 -1.1 L-5.95 -0.65 -5.1 0.1 -2.85 1.85 -3.55 1.5 -4.45 1.05 -5.4 0.35 -5.8 -0.05 -6.45 -0.95 -6.55 -1.2 -6.5 -1.25 -6.35 -1.1 M-5.55 -2.95 L-4.9 -2.6 -4.9 -2.45 -5.0 -2.45 -5.55 -2.95 M-3.55 -2.0 L-2.25 -1.5 -2.25 -1.2 -2.4 -0.95 Q-2.6 -0.8 -2.85 -0.8 L-3.1 -0.9 Q-3.7 -1.35 -3.55 -2.0 M2.9 2.6 L2.85 2.35 5.0 1.8 5.1 2.0 2.9 2.6 M1.85 2.65 L2.05 2.85 0.6 3.25 0.45 3.2 1.85 2.65 M-5.35 -1.8 L-5.25 -1.75 Q-4.85 -1.55 -4.85 -1.05 -4.75 -0.8 -5.0 -0.65 L-5.25 -0.6 Q-5.7 -0.7 -5.7 -1.15 L-5.7 -1.35 Q-5.7 -1.75 -5.35 -1.8" fill="#416345" fill-rule="evenodd" stroke="none"/>
    <path d="M0.6 -2.45 L0.7 -2.1 0.6 -1.9 0.25 -1.8 Q-0.5 -1.95 -0.7 -2.65 L0.6 -2.45 M-1.85 -1.55 L-1.95 -1.7 -2.0 -2.3 -1.8 -2.45 -1.2 -2.25 Q-0.55 -1.9 -0.3 -1.15 L-1.85 -1.55 M-0.25 -1.0 L-0.1 -0.5 Q-0.2 0.1 0.1 0.7 L-0.2 0.95 -0.3 0.95 -0.75 0.4 -0.85 0.1 -1.0 -0.1 -1.2 -0.5 -1.7 -1.35 -0.25 -1.0 M2.75 2.2 L1.85 2.55 1.8 2.15 1.95 2.0 2.35 1.9 2.45 1.95 2.75 2.2 M-6.4 -2.95 L-6.35 -3.45 -5.65 -3.0 -5.75 -2.65 -5.8 -2.65 Q-6.25 -2.6 -6.4 -2.95 M-4.9 -2.6 L-3.85 -2.1 -3.7 -1.75 -3.75 -1.55 Q-3.9 -1.35 -4.15 -1.35 L-4.65 -2.2 -4.85 -2.35 -4.9 -2.45 -4.9 -2.6 M7.65 -2.25 L7.65 -2.35 Q7.6 -2.7 7.95 -2.8 L8.1 -2.7 8.05 -2.5 7.65 -2.25 M7.75 -1.9 L7.75 -1.95 8.15 -2.2 8.15 -1.0 8.1 -1.0 7.75 -1.9 M2.85 2.35 L2.9 2.6 2.05 2.85 1.85 2.65 2.85 2.35 M2.4 0.2 Q3.0 0.4 3.3 1.05 L3.25 1.65 2.95 1.9 Q2.6 1.95 2.45 1.65 L1.95 0.6 1.95 0.5 Q2.05 0.15 2.4 0.2 M-3.65 -0.05 L-3.65 -0.15 -3.55 -0.45 -3.35 -0.55 -3.0 -0.35 -2.75 -0.05 -2.2 0.65 -1.9 1.45 -1.85 1.55 -2.2 1.85 -2.3 1.8 -3.25 0.8 -3.65 -0.05" fill="#233625" fill-rule="evenodd" stroke="none"/>
    <path d="M1.95 -2.3 L2.3 -2.25 2.6 -2.0 3.0 -1.25 2.05 -1.1 2.0 -1.3 1.95 -1.45 1.95 -2.3 M-2.15 -3.0 L-2.1 -2.95 -2.05 -2.75 Q-1.95 -2.45 -2.25 -2.3 L-2.55 -2.35 -3.35 -3.35 -2.15 -3.0 M-0.1 -0.5 L0.05 -0.65 0.45 -0.45 0.95 0.6 1.0 0.95 1.0 1.55 0.9 1.65 0.85 1.65 0.7 1.6 Q0.25 1.25 0.1 0.7 -0.2 0.1 -0.1 -0.5 M3.25 -0.85 L3.4 -0.4 3.3 -0.2 3.05 -0.2 2.25 -0.75 3.25 -0.85 M-6.25 -1.05 L-6.45 -1.2 -6.35 -1.1 -6.5 -1.25 -6.6 -1.35 -6.5 -2.35 -6.3 -2.15 -6.1 -1.35 -6.1 -1.25 -6.15 -1.1 -6.25 -1.05 M-1.05 1.3 L-0.95 1.6 -0.9 1.95 -1.0 2.1 -1.1 2.1 -1.85 1.55 -1.9 1.45 -2.2 0.65 -2.15 0.2 -2.1 0.1 -2.0 0.0 -1.9 0.05 Q-1.3 0.5 -1.05 1.3 M-4.85 -2.35 L-4.65 -2.2 -4.15 -1.35 -4.05 -1.0 Q-4.05 -0.85 -4.2 -0.8 L-4.35 -0.85 -4.7 -1.3 -4.75 -1.45 -5.05 -2.05 -4.85 -2.35" fill="#b1cdb3" fill-rule="evenodd" stroke="none"/>
  </g>
</svg>
