<?xml version="1.0" encoding="UTF-8" standalone="no"?>
<svg xmlns:ffdec="https://www.free-decompiler.com/flash" xmlns:xlink="http://www.w3.org/1999/xlink" ffdec:objectType="shape" height="27.75px" width="60.0px" xmlns="http://www.w3.org/2000/svg">
  <g transform="matrix(1.0, 0.0, 0.0, 1.0, 30.0, 12.95)">
    <path d="M25.85 -3.0 L25.75 -3.3 26.05 -3.15 25.85 -3.0 M-23.65 -1.25 L-23.65 -1.4 Q-23.0 -2.15 -23.35 -1.15 L-23.45 -1.15 Q-23.55 -1.15 -23.65 -1.25" fill="#333333" fill-rule="evenodd" stroke="none"/>
    <path d="M7.2 -7.55 L9.9 -7.45 -2.25 -7.15 -3.8 -4.85 -10.25 -3.4 -3.35 -7.75 -1.2 -8.3 -3.65 -8.05 -12.45 -8.1 -10.5 -8.85 -10.7 -9.2 -9.95 -9.55 0.1 -12.95 -9.75 -8.75 -1.05 -9.6 -0.7 -9.35 4.95 -8.55 -0.3 -7.9 6.5 -7.6 7.2 -7.55 M-13.55 -8.3 L-12.9 -6.8 -14.0 -6.8 -14.95 -6.65 -15.35 -6.4 Q-15.4 -6.25 -14.25 -5.95 L-22.05 -5.4 -13.55 -8.3 M-30.0 -2.65 L1.05 7.3 6.35 5.5 7.65 5.65 7.7 5.05 20.55 0.6 21.3 2.1 21.2 0.4 30.0 -2.65 30.0 4.45 0.0 14.8 -30.0 4.45 -30.0 -2.65 M16.55 -7.3 L17.7 -6.25 16.1 -6.4 16.1 -6.7 15.7 -6.9 14.8 -6.75 10.7 -6.4 15.7 -7.6 16.55 -7.3 M1.1 -3.4 Q2.45 -2.7 2.35 -4.1 2.3 -4.45 1.7 -4.7 L0.6 -3.75 -1.3 -4.9 0.15 -6.5 10.2 -3.8 1.5 -2.0 1.85 -2.3 1.1 -3.4 M16.35 -0.55 L18.2 1.05 7.9 -0.05 10.55 -0.45 16.35 -0.55 M25.75 -3.3 L25.85 -3.0 15.55 -3.95 25.75 -3.3 M27.35 4.0 L27.25 3.8 Q26.5 2.3 25.8 4.0 L25.8 4.4 25.95 4.75 26.9 4.85 27.35 4.0 M27.15 0.5 L26.05 -0.05 25.65 0.15 25.15 1.7 26.65 1.65 27.15 1.15 27.15 0.5 M21.65 3.05 L21.65 3.6 22.1 3.6 22.1 3.05 21.65 3.05 M16.75 6.05 L17.95 6.3 18.35 5.05 17.45 4.45 16.6 5.15 16.75 6.05 M10.8 5.6 L10.05 5.45 Q9.85 6.55 10.65 6.9 L10.9 6.9 11.55 6.6 11.25 6.1 10.8 5.6 M13.6 8.85 Q14.55 8.65 13.75 8.3 13.45 8.6 13.6 8.85 M5.8 2.85 L6.2 2.85 6.8 2.75 7.0 2.45 6.45 2.05 10.25 3.15 5.8 2.85 M6.9 11.35 Q6.8 8.1 6.2 11.55 L6.3 11.6 6.75 11.7 6.8 11.7 6.9 11.65 6.9 11.35 M-26.45 -0.55 L-27.05 -0.25 -27.35 0.4 -27.05 1.1 -26.45 1.35 -25.8 1.1 -25.55 0.4 Q-25.55 0.0 -25.8 -0.25 L-26.45 -0.55 M-17.2 -2.75 L-17.75 -2.9 -18.25 -2.75 -18.5 -2.35 -18.25 -1.95 -17.75 -1.8 Q-17.45 -1.8 -17.2 -1.95 L-17.0 -2.35 -17.2 -2.75 M-18.2 -3.4 L-12.7 -1.8 -9.8 -1.6 -22.7 -1.65 -18.2 -3.4 M-4.8 1.1 L-7.5 1.55 -9.5 1.2 -4.05 -0.7 0.6 -0.15 -4.8 1.1 M-2.55 3.2 L-2.9 3.3 Q-3.4 3.55 -2.95 3.85 L-2.8 3.9 -7.6 3.35 -7.55 3.35 Q-5.1 1.15 -2.7 2.9 L-2.55 3.2 M-8.45 5.6 L-8.75 6.1 -8.45 6.65 -7.8 6.85 -7.1 6.65 -6.85 6.1 Q-6.85 5.8 -7.1 5.6 -7.4 5.35 -7.8 5.35 -8.2 5.35 -8.45 5.6 M-2.9 11.35 L-2.3 11.6 -1.65 11.35 -1.4 10.65 Q-1.4 10.25 -1.65 10.0 -1.95 9.7 -2.3 9.7 -2.65 9.7 -2.9 10.0 L-3.2 10.65 -2.9 11.35 M-13.2 6.05 L-13.05 7.15 -12.7 7.4 -11.45 6.75 -11.85 5.75 -12.45 5.5 -13.2 6.05 M-18.85 1.95 Q-19.15 1.65 -19.55 1.65 -19.95 1.65 -20.2 1.95 L-20.5 2.55 -20.2 3.2 -19.55 3.45 -18.85 3.2 -18.6 2.55 Q-18.6 2.2 -18.85 1.95 M-17.3 7.75 L-17.15 7.7 -16.5 7.0 -18.0 6.45 -18.2 7.25 -17.65 7.75 -17.3 7.75 M-27.5 4.0 L-27.85 4.8 -27.8 5.05 -27.15 5.3 -26.9 5.3 -26.7 5.25 -26.4 4.3 -27.5 4.0" fill="#912020" fill-rule="evenodd" stroke="none"/>
    <path d="M7.2 -7.55 L7.8 -7.9 7.35 -8.65 6.5 -8.3 6.5 -7.6 -0.3 -7.9 4.95 -8.55 -0.7 -9.35 -0.85 -9.6 -1.05 -9.6 -9.75 -8.75 0.1 -12.95 15.7 -7.6 10.7 -6.4 14.8 -6.75 Q14.65 -5.75 16.0 -6.3 L16.1 -6.4 17.7 -6.25 16.55 -7.3 30.0 -2.65 21.2 0.4 20.55 0.6 7.7 5.05 7.1 4.9 6.35 5.5 1.05 7.3 -30.0 -2.65 -22.05 -5.4 -14.25 -5.95 -11.9 -6.0 -12.9 -6.8 -13.55 -8.3 -9.95 -9.55 -10.7 -9.2 -10.5 -8.85 -12.45 -8.1 -3.65 -8.05 -3.55 -7.85 -3.35 -7.75 -10.25 -3.4 -3.8 -4.85 -2.25 -7.15 9.9 -7.45 7.2 -7.55 M3.7 -10.05 L4.0 -10.5 3.7 -10.9 3.0 -11.1 2.3 -10.9 2.0 -10.5 2.3 -10.05 3.0 -9.9 3.7 -10.05 M0.6 -3.75 L1.1 -3.4 1.85 -2.3 1.5 -2.0 10.2 -3.8 0.15 -6.5 -1.3 -4.9 0.6 -3.75 M1.55 -1.35 L1.3 -1.05 1.55 -0.7 2.1 -0.6 2.7 -0.7 2.9 -1.05 2.7 -1.35 2.1 -1.5 1.55 -1.35 M9.8 -1.8 L9.55 -1.95 9.3 -1.8 9.2 -1.55 9.3 -1.25 9.55 -1.15 Q9.7 -1.15 9.8 -1.25 L9.9 -1.55 9.8 -1.8 M13.9 -2.7 L14.1 -2.4 14.55 -2.3 15.0 -2.4 15.2 -2.7 15.0 -2.95 14.55 -3.1 14.1 -2.95 13.9 -2.7 M19.5 -2.7 Q19.5 -2.45 19.85 -2.3 L20.65 -2.15 21.5 -2.3 Q21.8 -2.45 21.8 -2.7 L21.5 -3.1 20.65 -3.25 19.85 -3.1 19.5 -2.7 M16.35 -0.55 L10.55 -0.45 7.9 -0.05 18.2 1.05 16.35 -0.55 M25.75 -3.3 L15.55 -3.95 25.85 -3.0 26.05 -3.15 25.75 -3.3 M6.45 2.05 L3.75 2.0 5.8 2.85 10.25 3.15 6.45 2.05 M1.45 4.15 Q2.1 4.95 2.35 3.85 L1.45 4.15 M-23.65 -1.25 Q-23.55 -1.15 -23.45 -1.15 L-23.35 -1.15 Q-23.0 -2.15 -23.65 -1.4 L-23.65 -1.25 M-14.85 -3.45 L-14.6 -3.1 -14.1 -3.0 -13.55 -3.1 -13.35 -3.45 -13.55 -3.75 -14.1 -3.9 -14.6 -3.75 -14.85 -3.45 M-18.2 -3.4 L-22.7 -1.65 -9.8 -1.6 -12.7 -1.8 -18.2 -3.4 M-6.55 -3.05 L-6.95 -2.55 -6.55 -2.0 -5.65 -1.8 -4.7 -2.0 Q-4.35 -2.25 -4.35 -2.55 -4.35 -2.85 -4.7 -3.05 L-5.65 -3.3 -6.55 -3.05 M-7.5 1.55 L-4.95 1.6 -4.8 1.1 0.6 -0.15 -4.05 -0.7 -9.5 1.2 -7.5 1.55 M-2.8 3.9 L-2.3 3.85 -1.9 3.7 -1.9 3.45 -2.15 3.3 -2.55 3.2 -2.7 2.9 Q-5.1 1.15 -7.55 3.35 L-7.6 3.35 -2.8 3.9 M-15.75 1.75 L-15.75 1.85 -15.45 1.85 Q-14.65 1.3 -15.7 1.55 L-15.75 1.75" fill="#d22222" fill-rule="evenodd" stroke="none"/>
    <path d="M6.5 -7.6 L6.5 -8.3 7.35 -8.65 7.8 -7.9 7.2 -7.55 6.5 -7.6 M-3.35 -7.75 L-3.55 -7.85 -3.65 -8.05 -1.2 -8.3 -3.35 -7.75 M-12.9 -6.8 L-11.9 -6.0 -14.25 -5.95 Q-15.4 -6.25 -15.35 -6.4 L-14.95 -6.65 -14.0 -6.8 -12.9 -6.8 M6.35 5.5 L7.1 4.9 7.7 5.05 7.65 5.65 6.35 5.5 M16.1 -6.4 L16.0 -6.3 Q14.65 -5.75 14.8 -6.75 L15.7 -6.9 16.1 -6.7 16.1 -6.4 M-1.05 -9.6 L-0.85 -9.6 -0.7 -9.35 -1.05 -9.6 M3.7 -10.05 L3.0 -9.9 2.3 -10.05 2.0 -10.5 2.3 -10.9 3.0 -11.1 3.7 -10.9 4.0 -10.5 3.7 -10.05 M0.6 -3.75 L1.7 -4.7 Q2.3 -4.45 2.35 -4.1 2.45 -2.7 1.1 -3.4 L0.6 -3.75 M9.8 -1.8 L9.9 -1.55 9.8 -1.25 Q9.7 -1.15 9.55 -1.15 L9.3 -1.25 9.2 -1.55 9.3 -1.8 9.55 -1.95 9.8 -1.8 M1.55 -1.35 L2.1 -1.5 2.7 -1.35 2.9 -1.05 2.7 -0.7 2.1 -0.6 1.55 -0.7 1.3 -1.05 1.55 -1.35 M19.5 -2.7 L19.85 -3.1 20.65 -3.25 21.5 -3.1 21.8 -2.7 Q21.8 -2.45 21.5 -2.3 L20.65 -2.15 19.85 -2.3 Q19.5 -2.45 19.5 -2.7 M13.9 -2.7 L14.1 -2.95 14.55 -3.1 15.0 -2.95 15.2 -2.7 15.0 -2.4 14.55 -2.3 14.1 -2.4 13.9 -2.7 M6.45 2.05 L7.0 2.45 6.8 2.75 6.2 2.85 5.8 2.85 3.75 2.0 6.45 2.05 M1.45 4.15 L2.35 3.85 Q2.1 4.95 1.45 4.15 M-17.2 -2.75 L-17.0 -2.35 -17.2 -1.95 Q-17.45 -1.8 -17.75 -1.8 L-18.25 -1.95 -18.5 -2.35 -18.25 -2.75 -17.75 -2.9 -17.2 -2.75 M-14.85 -3.45 L-14.6 -3.75 -14.1 -3.9 -13.55 -3.75 -13.35 -3.45 -13.55 -3.1 -14.1 -3.0 -14.6 -3.1 -14.85 -3.45 M-6.55 -3.05 L-5.65 -3.3 -4.7 -3.05 Q-4.35 -2.85 -4.35 -2.55 -4.35 -2.25 -4.7 -2.0 L-5.65 -1.8 -6.55 -2.0 -6.95 -2.55 -6.55 -3.05 M-4.8 1.1 L-4.95 1.6 -7.5 1.55 -4.8 1.1 M-2.8 3.9 L-2.95 3.85 Q-3.4 3.55 -2.9 3.3 L-2.55 3.2 -2.15 3.3 -1.9 3.45 -1.9 3.7 -2.3 3.85 -2.8 3.9 M-15.75 1.75 L-15.7 1.55 Q-14.65 1.3 -15.45 1.85 L-15.75 1.85 -15.75 1.75" fill="#721212" fill-rule="evenodd" stroke="none"/>
    <path d="M20.55 0.6 L21.2 0.4 21.3 2.1 20.55 0.6 M21.65 3.05 L22.1 3.05 22.1 3.6 21.65 3.6 21.65 3.05 M27.15 0.5 L27.15 1.15 26.65 1.65 25.15 1.7 25.65 0.15 26.05 -0.05 27.15 0.5 M27.35 4.0 L26.9 4.85 25.95 4.75 25.8 4.4 25.8 4.0 Q26.5 2.3 27.25 3.8 L27.35 4.0 M10.8 5.6 L11.25 6.1 11.55 6.6 10.9 6.9 10.65 6.9 Q9.85 6.55 10.05 5.45 L10.8 5.6 M16.75 6.05 L16.6 5.15 17.45 4.45 18.35 5.05 17.95 6.3 16.75 6.05 M13.6 8.85 Q13.45 8.6 13.75 8.3 14.55 8.65 13.6 8.85 M6.9 11.35 L6.9 11.65 6.8 11.7 6.75 11.7 6.3 11.6 6.2 11.55 Q6.8 8.1 6.9 11.35 M-26.45 -0.55 L-25.8 -0.25 Q-25.55 0.0 -25.55 0.4 L-25.8 1.1 -26.45 1.35 -27.05 1.1 -27.35 0.4 -27.05 -0.25 -26.45 -0.55 M-13.2 6.05 L-12.45 5.5 -11.85 5.75 -11.45 6.75 -12.7 7.4 -13.05 7.15 -13.2 6.05 M-2.9 11.35 L-3.2 10.65 -2.9 10.0 Q-2.65 9.7 -2.3 9.7 -1.95 9.7 -1.65 10.0 -1.4 10.25 -1.4 10.65 L-1.65 11.35 -2.3 11.6 -2.9 11.35 M-8.45 5.6 Q-8.2 5.35 -7.8 5.35 -7.4 5.35 -7.1 5.6 -6.85 5.8 -6.85 6.1 L-7.1 6.65 -7.8 6.85 -8.45 6.65 -8.75 6.1 -8.45 5.6 M-27.5 4.0 L-26.4 4.3 -26.7 5.25 -26.9 5.3 -27.15 5.3 -27.8 5.05 -27.85 4.8 -27.5 4.0 M-17.3 7.75 L-17.65 7.75 -18.2 7.25 -18.0 6.45 -16.5 7.0 -17.15 7.7 -17.3 7.75 M-18.85 1.95 Q-18.6 2.2 -18.6 2.55 L-18.85 3.2 -19.55 3.45 -20.2 3.2 -20.5 2.55 -20.2 1.95 Q-19.95 1.65 -19.55 1.65 -19.15 1.65 -18.85 1.95" fill="#731a1a" fill-rule="evenodd" stroke="none"/>
  </g>
</svg>
