<?xml version="1.0" encoding="UTF-8" standalone="no"?>
<svg xmlns:ffdec="https://www.free-decompiler.com/flash" xmlns:xlink="http://www.w3.org/1999/xlink" ffdec:objectType="shape" height="19.95px" width="60.0px" xmlns="http://www.w3.org/2000/svg">
  <g transform="matrix(1.0, 0.0, 0.0, 1.0, 30.0, 4.95)">
    <path d="M0.0 15.0 L-30.0 5.0 0.0 -4.95 30.0 5.0 0.0 15.0" fill="#6bc038" fill-rule="evenodd" stroke="none"/>
    <path d="M3.75 -2.1 L4.4 -2.5 6.3 -1.95 6.7 -1.35 7.5 -1.05 7.65 -0.05 8.9 0.95 9.55 1.25 10.15 1.4 11.0 1.45 11.85 0.25 17.65 1.65 18.5 4.05 20.25 3.65 21.7 4.45 22.0 4.95 19.05 6.95 18.45 6.9 17.15 8.15 16.05 7.6 13.25 10.35 11.95 10.95 9.3 10.35 7.15 12.45 1.5 12.0 -4.05 11.0 -6.3 8.95 -7.45 9.55 -8.0 9.95 -8.35 10.5 -12.7 8.8 -14.85 7.95 -16.95 6.8 -16.95 6.05 -19.35 4.0 -19.35 2.8 -14.55 0.7 -13.5 1.45 -13.0 1.75 -12.45 1.8 -10.9 1.6 -10.0 -1.25 -9.15 -1.65 -7.45 -0.9 -5.9 -2.4 3.75 -2.1" fill="#37531a" fill-rule="evenodd" stroke="none"/>
  </g>
</svg>
