<?xml version="1.0" encoding="UTF-8" standalone="no"?>
<svg xmlns:ffdec="https://www.free-decompiler.com/flash" xmlns:xlink="http://www.w3.org/1999/xlink" ffdec:objectType="shape" height="19.95px" width="60.0px" xmlns="http://www.w3.org/2000/svg">
  <g transform="matrix(1.0, 0.0, 0.0, 1.0, 30.0, 4.95)">
    <path d="M0.0 15.0 L-30.0 5.0 0.0 -4.95 30.0 5.0 0.0 15.0" fill="#333333" fill-rule="evenodd" stroke="none"/>
    <path d="M-14.55 5.05 Q-10.5 0.6 -4.85 -1.65 7.05 -6.4 14.2 4.5 L15.0 5.95 Q5.35 14.55 -7.55 10.05 -11.4 8.8 -14.5 6.2 L-14.55 5.05 M3.4 6.4 Q3.2 8.8 5.9 8.65 10.85 9.3 10.25 4.2 9.0 2.4 6.85 2.15 3.7 3.3 3.4 6.4" fill="#999999" fill-rule="evenodd" stroke="none"/>
    <path d="M3.4 6.4 Q3.7 3.3 6.85 2.15 9.0 2.4 10.25 4.2 10.85 9.3 5.9 8.65 3.2 8.8 3.4 6.4" fill="#151515" fill-rule="evenodd" stroke="none"/>
  </g>
</svg>
