<?xml version="1.0" encoding="UTF-8" standalone="no"?>
<svg xmlns:ffdec="https://www.free-decompiler.com/flash" xmlns:xlink="http://www.w3.org/1999/xlink" ffdec:objectType="shape" height="13.35px" width="17.95px" xmlns="http://www.w3.org/2000/svg">
  <g transform="matrix(1.0, 0.0, 0.0, 1.0, 8.5, 8.95)">
    <path d="M6.75 -5.8 L6.75 -6.15 6.8 -6.3 7.05 -6.5 7.15 -7.0 7.2 -7.05 7.25 -7.3 7.15 -7.45 7.2 -8.6 7.4 -8.75 7.8 -8.65 8.8 -7.6 Q9.2 -6.8 9.0 -5.95 L9.25 -5.65 9.4 -5.1 9.15 -4.15 9.45 -3.85 9.05 -0.55 Q9.15 -0.25 8.9 -0.05 L8.8 -0.15 Q7.8 -1.0 7.15 -2.1 L7.15 -2.15 7.05 -2.45 7.0 -2.9 7.25 -2.5 7.25 -2.3 7.7 -1.75 7.8 -1.75 8.35 -1.25 8.9 -0.8 8.9 -2.1 9.1 -3.7 8.85 -4.05 Q9.1 -4.8 8.85 -5.55 L8.5 -5.4 8.35 -5.45 Q8.9 -7.15 7.55 -8.25 L7.55 -7.7 7.7 -7.5 7.25 -6.3 6.75 -5.8 M6.85 -4.25 L6.8 -4.7 7.05 -4.85 7.25 -4.7 7.0 -4.3 6.85 -4.25 M4.65 0.45 L3.9 -0.75 3.9 -0.85 3.0 -2.0 3.0 -2.1 2.5 -2.8 2.5 -2.95 2.45 -3.05 2.4 -3.25 2.25 -3.15 1.8 -3.6 1.85 -3.75 2.05 -3.8 1.9 -4.8 Q-1.8 -4.9 -5.3 -6.25 L-5.65 -6.65 -6.1 -6.65 -6.25 -6.7 -6.65 -6.85 -7.15 -7.5 -7.6 -7.65 -7.9 -8.3 -7.95 -7.9 Q-8.0 -7.1 -7.4 -6.5 L-6.4 -5.85 -6.25 -5.9 Q-5.7 -5.95 -5.35 -5.5 L-5.15 -5.1 -5.35 -4.95 -7.35 -6.1 -7.45 -5.65 -7.2 -4.9 -7.35 -4.75 -7.3 -4.65 -7.15 -4.25 -7.7 -3.05 -7.7 -2.8 -7.8 -2.8 Q-8.1 -1.6 -8.0 -0.5 L-7.05 0.8 -6.85 0.3 Q-6.75 -0.7 -5.8 -1.25 L-5.5 -1.5 -4.5 -2.1 -3.7 -2.05 -3.4 -1.7 -3.8 -1.85 -4.15 -1.8 -4.3 -1.8 -5.6 -1.05 -6.25 -0.05 -6.7 1.3 -6.35 2.2 Q-5.75 3.5 -4.55 4.0 L-3.15 3.95 -2.55 3.7 -1.4 2.65 -1.15 2.6 -1.1 2.55 -1.05 2.85 -1.1 2.95 -0.95 3.15 0.4 3.55 3.5 3.75 3.95 3.55 5.3 2.9 5.35 2.9 5.8 2.55 6.05 3.05 5.35 3.25 Q4.85 3.3 4.45 3.55 L3.35 4.15 2.85 3.85 0.05 3.8 -0.95 3.85 -1.6 3.5 -1.65 3.5 -2.05 3.85 Q-2.85 4.65 -3.95 4.3 L-4.65 4.15 -5.85 3.8 -6.4 2.95 -7.1 1.2 -7.75 0.7 -8.35 -0.45 -8.4 -1.25 -8.3 -2.5 -7.8 -3.35 Q-7.3 -3.75 -7.55 -4.7 L-7.65 -5.1 Q-7.85 -5.7 -7.65 -6.3 -8.2 -6.7 -8.4 -7.35 L-8.5 -8.2 -8.45 -8.35 -8.05 -8.95 -7.7 -8.9 Q-7.4 -8.1 -6.7 -7.55 -6.2 -7.15 -5.6 -6.9 L-5.5 -6.85 -5.25 -6.5 -4.3 -6.0 -1.4 -5.45 -1.15 -5.2 2.45 -4.95 2.5 -4.5 Q2.7 -3.5 3.2 -2.55 L4.75 0.0 4.8 0.1 5.05 0.5 5.05 0.8 5.7 2.3 5.55 2.25 5.45 2.1 5.45 2.0 4.65 0.45 M0.6 -3.55 L0.55 -3.6 0.4 -3.7 0.5 -3.9 1.2 -3.65 1.15 -3.4 0.6 -3.55 M7.8 -5.05 L7.75 -4.8 7.55 -4.7 7.4 -4.8 7.3 -5.05 7.4 -5.3 7.55 -5.35 7.75 -5.3 7.8 -5.05 M-4.4 -5.0 L-4.3 -5.0 -3.6 -4.65 -3.55 -4.5 -4.4 -5.0 M-2.35 -4.35 L-2.1 -3.95 -2.25 -3.85 -2.65 -4.0 -2.9 -4.4 -2.65 -4.45 -2.55 -4.35 -2.35 -4.35 M-1.45 -4.0 L-1.45 -4.2 -0.15 -3.95 -0.05 -3.8 -0.2 -3.6 -0.3 -3.55 -0.4 -3.4 -0.9 -3.5 -1.05 -3.6 -1.35 -3.9 -1.45 -4.0" fill="#666666" fill-rule="evenodd" stroke="none"/>
    <path d="M6.75 -5.8 L7.25 -6.3 7.7 -7.5 7.55 -7.7 7.55 -8.25 Q8.9 -7.15 8.35 -5.45 L8.5 -5.4 8.85 -5.55 Q9.1 -4.8 8.85 -4.05 L9.1 -3.7 8.9 -2.1 8.45 -2.6 8.4 -2.6 Q8.1 -3.05 7.65 -2.85 L7.25 -2.5 7.0 -2.9 6.85 -4.25 7.0 -4.3 7.25 -4.7 7.05 -4.85 6.8 -4.7 6.75 -5.4 6.75 -5.8 M0.6 -3.55 L1.15 -3.4 1.2 -3.65 0.5 -3.9 0.4 -3.7 0.55 -3.6 0.6 -3.55 M-7.7 -2.8 L-7.7 -3.05 -7.15 -4.25 -7.3 -4.65 -7.35 -4.75 -7.2 -4.9 -7.45 -5.65 -7.35 -6.1 -5.35 -4.95 -5.15 -5.1 -5.35 -5.5 Q-5.7 -5.95 -6.25 -5.9 L-6.4 -5.85 -7.4 -6.5 Q-8.0 -7.1 -7.95 -7.9 L-7.9 -8.3 -7.6 -7.65 -7.15 -7.5 -6.65 -6.85 -6.25 -6.7 -6.1 -6.65 -5.65 -6.65 -5.3 -6.25 Q-1.8 -4.9 1.9 -4.8 L2.05 -3.8 1.85 -3.75 1.8 -3.6 2.25 -3.15 2.4 -3.25 2.45 -3.05 2.5 -2.95 2.5 -2.8 3.0 -2.1 3.0 -2.0 3.9 -0.85 3.9 -0.75 4.65 0.45 4.55 0.45 Q4.1 0.35 3.8 0.05 L3.7 0.2 3.35 0.6 2.45 0.1 2.3 0.15 2.0 0.4 1.9 0.55 1.2 0.6 1.0 0.15 2.1 -0.1 2.25 -0.2 2.2 -0.45 2.15 -0.65 1.8 -0.55 1.7 -0.85 1.3 -1.25 Q0.1 -1.35 0.75 -0.05 L0.6 -0.1 0.25 0.2 0.2 0.4 Q-0.25 0.15 -0.35 -0.45 L-0.4 -1.1 -0.95 -1.65 Q-1.55 -1.25 -1.35 -0.75 L-1.15 0.0 -1.2 -0.05 Q-1.9 -0.4 -1.75 0.45 L-1.85 0.45 Q-2.3 0.25 -2.45 0.65 L-2.55 1.15 -3.05 1.45 -3.35 1.1 -3.95 0.95 -4.05 1.0 -4.2 1.25 -4.25 1.45 -5.2 0.85 -5.45 1.05 -5.5 1.0 -5.5 0.9 -5.4 0.5 -5.85 0.55 -6.0 -0.15 -5.6 -1.05 -4.3 -1.8 -4.15 -1.8 -3.8 -1.85 -3.4 -1.7 -3.7 -2.05 Q-3.8 -2.6 -4.2 -2.7 -4.8 -2.75 -4.5 -2.1 L-5.5 -1.5 -5.8 -1.25 -6.05 -1.55 -6.2 -2.05 Q-6.35 -1.15 -7.0 -1.5 -7.1 -2.15 -6.55 -2.45 L-6.3 -2.3 -6.4 -2.45 -6.35 -2.6 Q-7.0 -2.45 -7.05 -3.1 L-6.7 -4.05 -6.75 -4.05 Q-7.4 -3.7 -7.3 -2.85 L-7.7 -2.8 M0.45 -1.9 Q0.45 -2.4 0.05 -2.1 0.05 -1.85 0.2 -1.7 0.4 -1.3 0.45 -1.9 M2.4 -2.5 L2.1 -2.65 1.85 -2.5 1.7 -2.25 1.85 -1.95 Q1.95 -1.85 2.1 -1.85 L2.4 -1.95 2.5 -2.25 2.4 -2.5 M3.25 -0.9 L2.9 -0.65 3.1 -0.25 3.3 -0.2 3.45 -0.1 3.55 -0.05 3.25 -0.9 M2.15 -1.35 Q2.8 -1.65 2.1 -1.55 1.9 -1.25 2.15 -1.35 M7.8 -5.05 L7.75 -5.3 7.55 -5.35 7.4 -5.3 7.3 -5.05 7.4 -4.8 7.55 -4.7 7.75 -4.8 7.8 -5.05 M8.45 -4.2 L8.55 -4.35 8.45 -4.55 8.25 -4.6 8.1 -4.55 8.0 -4.35 8.1 -4.2 8.25 -4.1 8.45 -4.2 M8.4 -4.0 L8.1 -3.9 8.0 -3.55 8.1 -3.25 8.4 -3.1 8.65 -3.25 8.8 -3.55 8.65 -3.9 8.4 -4.0 M7.85 -4.25 L7.5 -4.35 7.2 -4.25 7.05 -3.9 7.2 -3.6 Q7.3 -3.45 7.5 -3.45 7.7 -3.45 7.85 -3.6 L7.95 -3.9 7.85 -4.25 M-5.75 -3.25 L-5.85 -3.2 -5.9 -2.45 -5.45 -2.15 -5.05 -2.55 -5.25 -2.95 -5.75 -3.25 M-5.45 -4.45 L-5.3 -4.2 Q-4.75 -3.95 -4.8 -4.35 L-4.9 -4.6 -5.15 -4.7 -5.35 -4.6 -5.45 -4.45 M-1.45 -4.0 L-1.35 -3.9 -1.05 -3.6 -0.9 -3.5 -0.4 -3.4 -0.3 -3.55 -0.2 -3.6 -0.05 -3.8 -0.15 -3.95 -1.45 -4.2 -1.45 -4.0 M-2.35 -4.35 L-2.55 -4.35 -2.65 -4.45 -2.9 -4.4 -2.65 -4.0 -2.25 -3.85 -2.1 -3.95 -2.35 -4.35 M-4.4 -5.0 L-3.55 -4.5 -3.6 -4.65 -4.3 -5.0 -4.4 -5.0 M-2.7 -3.2 L-2.65 -3.35 -2.7 -3.5 -2.9 -3.55 -3.05 -3.5 -3.15 -3.35 -3.05 -3.2 -2.9 -3.15 -2.7 -3.2 M-2.75 -2.4 L-2.55 -2.0 -2.2 -1.55 -2.05 -2.25 -2.75 -2.4 M-4.75 0.4 Q-5.0 0.45 -4.75 0.45 L-4.6 0.55 Q-4.2 0.1 -4.75 0.4" fill="#ffffff" fill-rule="evenodd" stroke="none"/>
    <path d="M8.9 -2.1 L8.9 -0.8 8.35 -1.25 7.8 -1.75 7.7 -1.75 7.25 -2.3 7.25 -2.5 7.65 -2.85 Q8.1 -3.05 8.4 -2.6 L8.45 -2.6 8.9 -2.1 M4.65 0.45 L5.45 2.0 5.45 2.1 5.55 2.25 5.7 2.3 5.8 2.55 5.35 2.9 5.3 2.9 3.95 3.55 3.5 3.75 0.4 3.55 -0.95 3.15 -1.1 2.95 -1.05 2.85 -1.1 2.55 -1.15 2.6 -1.4 2.65 -2.55 3.7 -3.15 3.95 -4.55 4.0 Q-5.75 3.5 -6.35 2.2 L-6.7 1.3 -6.25 -0.05 -5.6 -1.05 -6.0 -0.15 -5.85 0.55 -5.4 0.5 -5.5 0.9 -5.5 1.0 -5.45 1.05 -5.2 0.85 -4.25 1.45 -4.2 1.25 -4.05 1.0 -3.95 0.95 -3.35 1.1 -3.05 1.45 -2.55 1.15 -2.45 0.65 Q-2.3 0.25 -1.85 0.45 L-1.75 0.45 Q-1.9 -0.4 -1.2 -0.05 L-1.15 0.0 -1.35 -0.75 Q-1.55 -1.25 -0.95 -1.65 L-0.4 -1.1 -0.35 -0.45 Q-0.25 0.15 0.2 0.4 L0.25 0.2 0.6 -0.1 0.75 -0.05 Q0.1 -1.35 1.3 -1.25 L1.7 -0.85 1.8 -0.55 2.15 -0.65 2.2 -0.45 2.25 -0.2 2.1 -0.1 1.0 0.15 1.2 0.6 1.9 0.55 2.0 0.4 2.3 0.15 2.45 0.1 3.35 0.6 3.7 0.2 3.8 0.05 Q4.1 0.35 4.55 0.45 L4.65 0.45 M-3.7 -2.05 L-4.5 -2.1 Q-4.8 -2.75 -4.2 -2.7 -3.8 -2.6 -3.7 -2.05 M-5.8 -1.25 Q-6.75 -0.7 -6.85 0.3 L-7.05 0.8 -8.0 -0.5 Q-8.1 -1.6 -7.8 -2.8 L-7.7 -2.8 -7.3 -2.85 Q-7.4 -3.7 -6.75 -4.05 L-6.7 -4.05 -7.05 -3.1 Q-7.0 -2.45 -6.35 -2.6 L-6.4 -2.45 -6.3 -2.3 -6.55 -2.45 Q-7.1 -2.15 -7.0 -1.5 -6.35 -1.15 -6.2 -2.05 L-6.05 -1.55 -5.8 -1.25 M2.4 -2.5 L2.5 -2.25 2.4 -1.95 2.1 -1.85 Q1.95 -1.85 1.85 -1.95 L1.7 -2.25 1.85 -2.5 2.1 -2.65 2.4 -2.5 M0.45 -1.9 Q0.4 -1.3 0.2 -1.7 0.05 -1.85 0.05 -2.1 0.45 -2.4 0.45 -1.9 M2.15 -1.35 Q1.9 -1.25 2.1 -1.55 2.8 -1.65 2.15 -1.35 M3.25 -0.9 L3.55 -0.05 3.45 -0.1 3.3 -0.2 3.1 -0.25 2.9 -0.65 3.25 -0.9 M7.85 -4.25 L7.95 -3.9 7.85 -3.6 Q7.7 -3.45 7.5 -3.45 7.3 -3.45 7.2 -3.6 L7.05 -3.9 7.2 -4.25 7.5 -4.35 7.85 -4.25 M8.4 -4.0 L8.65 -3.9 8.8 -3.55 8.65 -3.25 8.4 -3.1 8.1 -3.25 8.0 -3.55 8.1 -3.9 8.4 -4.0 M8.45 -4.2 L8.25 -4.1 8.1 -4.2 8.0 -4.35 8.1 -4.55 8.25 -4.6 8.45 -4.55 8.55 -4.35 8.45 -4.2 M-5.45 -4.45 L-5.35 -4.6 -5.15 -4.7 -4.9 -4.6 -4.8 -4.35 Q-4.75 -3.95 -5.3 -4.2 L-5.45 -4.45 M-5.75 -3.25 L-5.25 -2.95 -5.05 -2.55 -5.45 -2.15 -5.9 -2.45 -5.85 -3.2 -5.75 -3.25 M-2.7 -3.2 L-2.9 -3.15 -3.05 -3.2 -3.15 -3.35 -3.05 -3.5 -2.9 -3.55 -2.7 -3.5 -2.65 -3.35 -2.7 -3.2 M-2.75 -2.4 L-2.05 -2.25 -2.2 -1.55 -2.55 -2.0 -2.75 -2.4 M-4.75 0.4 Q-4.2 0.1 -4.6 0.55 L-4.75 0.45 Q-5.0 0.45 -4.75 0.4" fill="#cccccc" fill-rule="evenodd" stroke="none"/>
  </g>
</svg>
