<?xml version="1.0" encoding="UTF-8" standalone="no"?>
<svg xmlns:ffdec="https://www.free-decompiler.com/flash" xmlns:xlink="http://www.w3.org/1999/xlink" ffdec:objectType="shape" height="19.95px" width="60.0px" xmlns="http://www.w3.org/2000/svg">
  <g transform="matrix(1.0, 0.0, 0.0, 1.0, 30.0, 4.95)">
    <path d="M0.0 15.0 L-30.0 5.0 0.0 -4.95 30.0 5.0 0.0 15.0" fill="#333333" fill-rule="evenodd" stroke="none"/>
    <path d="M-16.6 2.45 L-13.05 1.35 -9.55 0.3 -5.95 -0.65 -0.3 -1.5 Q1.65 -1.85 3.6 -1.45 L8.75 -0.3 11.75 0.65 14.85 1.55 17.85 2.35 13.0 3.95 8.15 5.8 3.35 7.1 -1.5 6.7 -4.9 6.1 -7.75 5.15 -10.65 4.2 -13.6 3.35 -16.6 2.45" fill="#ffffff" fill-rule="evenodd" stroke="none"/>
    <path d="M-16.6 2.45 L-13.6 3.35 -10.65 4.2 -7.75 5.15 -4.9 6.1 -1.5 6.7 3.35 7.1 8.15 5.8 13.0 3.95 17.85 2.35 19.5 3.05 19.3 4.05 18.5 5.75 17.1 7.15 15.0 8.15 8.55 9.9 3.55 11.5 -0.65 12.2 -2.05 12.1 -4.8 11.65 Q-7.65 10.9 -10.4 9.6 L-16.1 7.3 Q-18.55 6.35 -20.55 4.85 L-20.75 3.85 -19.7 3.25 Q-18.2 2.5 -16.6 2.45" fill="#bcbcbc" fill-rule="evenodd" stroke="none"/>
  </g>
</svg>
