<?xml version="1.0" encoding="UTF-8" standalone="no"?>
<svg xmlns:ffdec="https://www.free-decompiler.com/flash" xmlns:xlink="http://www.w3.org/1999/xlink" ffdec:objectType="shape" height="13.95px" width="18.35px" xmlns="http://www.w3.org/2000/svg">
  <g transform="matrix(1.0, 0.0, 0.0, 1.0, 9.0, 8.3)">
    <path d="M8.1 -5.25 L8.0 -6.45 7.9 -6.45 7.5 -5.5 6.95 -5.15 Q6.75 -2.8 8.2 -1.1 L8.1 -1.9 7.95 -3.05 8.05 -3.0 8.15 -4.2 8.1 -5.25 M7.75 -4.15 L7.6 -4.1 7.45 -4.45 7.7 -4.6 7.75 -4.15 M3.5 -1.3 L4.5 -0.05 5.0 1.0 5.35 1.65 6.0 2.85 6.05 2.95 6.05 3.05 6.2 3.2 6.3 3.5 6.35 3.55 6.45 3.9 6.85 4.35 7.1 4.5 7.3 4.6 7.35 4.85 Q7.0 5.35 6.4 5.05 L5.85 5.3 5.15 5.05 4.5 5.55 3.8 5.3 3.35 5.65 2.8 5.35 Q2.45 5.8 1.85 5.55 L1.55 5.2 1.45 5.4 0.85 5.4 0.35 4.9 -0.45 4.95 Q-0.7 4.2 -1.0 4.75 -1.75 4.9 -1.85 4.25 -2.1 4.55 -2.6 4.5 L-3.05 3.9 Q-3.3 4.45 -3.65 4.15 L-4.05 3.65 -4.85 3.6 -4.95 3.5 -5.95 3.1 Q-5.85 2.3 -6.45 2.85 L-6.85 2.7 -7.05 2.25 -7.25 2.2 -7.75 1.7 -7.8 1.55 -7.85 1.45 Q-7.9 1.8 -8.3 1.8 -8.7 1.45 -8.55 1.05 L-9.0 0.6 -9.0 -0.4 Q-9.0 -3.15 -7.9 -5.7 -7.7 -6.15 -7.85 -6.75 L-8.1 -7.55 -7.85 -8.3 Q-6.3 -6.6 -4.3 -5.85 -2.75 -5.2 -1.05 -4.9 L-0.55 -4.8 0.7 -4.7 1.25 -4.75 2.35 -4.6 2.55 -4.35 2.55 -4.2 Q2.6 -3.35 2.9 -2.5 L2.95 -2.35 2.7 -2.9 2.35 -3.95 Q0.15 -4.15 -1.75 -4.7 L-3.5 -5.15 -4.15 -5.45 -4.7 -5.7 -4.9 -5.5 -5.2 -5.6 Q-5.7 -6.1 -6.35 -6.45 L-6.8 -6.75 -7.55 -7.55 -7.65 -7.6 -7.7 -7.4 -7.7 -7.15 -7.55 -6.7 -7.15 -5.85 -8.4 -1.7 -8.4 -1.65 -8.3 -1.25 -7.7 -2.7 -7.6 -2.85 -7.85 0.15 -6.85 -3.3 -7.4 -0.75 -7.15 -1.15 -7.05 -0.7 -6.95 -0.6 -6.6 -2.55 -6.5 -2.8 -6.55 0.2 -6.45 0.1 -5.95 -1.65 -6.0 1.1 -5.8 0.35 Q-5.35 -1.0 -4.45 -2.15 L-4.45 -2.1 -4.1 -2.5 -4.45 0.3 -4.0 -0.95 -3.95 -1.05 -3.9 1.45 -3.9 1.7 -3.3 -0.6 -3.25 -0.4 -2.95 -0.8 -2.9 2.0 -2.85 1.95 -2.0 -1.05 -2.1 0.45 -1.55 -0.85 -1.5 -1.0 -1.7 1.55 -1.0 -0.95 -0.95 -0.8 -0.7 2.25 -0.65 2.2 -0.15 -0.5 -0.1 -0.65 0.3 -1.3 0.55 1.95 0.7 2.1 0.7 2.0 0.7 1.95 0.85 1.3 0.9 1.45 0.9 1.5 1.05 1.7 1.3 2.65 1.4 3.05 1.45 3.05 2.05 2.3 2.35 2.4 2.5 3.1 2.85 0.75 2.95 -0.4 3.7 2.35 3.55 -0.6 4.25 1.05 4.25 0.15 3.5 -1.3 M8.4 -5.9 L8.5 -5.15 Q9.25 -2.8 9.35 -0.4 L9.2 -0.2 8.4 -0.55 Q7.5 -1.45 7.1 -2.6 L6.8 -3.95 6.7 -5.3 7.1 -5.6 7.3 -5.85 Q7.65 -6.5 7.6 -7.25 8.45 -6.9 8.4 -5.9 M5.0 1.95 L5.0 1.75 5.0 1.7 5.2 1.7 4.75 0.9 4.95 2.5 5.0 1.95 M-8.4 -1.6 L-8.4 -1.5 -8.4 -1.55 -8.4 -1.6" fill="#57492d" fill-rule="evenodd" stroke="none"/>
    <path d="M8.1 -1.9 L8.2 -1.1 Q6.75 -2.8 6.95 -5.15 L7.5 -5.5 7.9 -6.45 8.0 -6.45 8.1 -5.25 8.05 -5.4 Q7.75 -5.1 7.7 -4.6 L7.45 -4.45 7.45 -3.5 7.55 -2.6 7.6 -4.1 7.75 -4.15 7.85 -3.4 7.75 -3.35 7.7 -3.25 7.65 -3.0 7.7 -2.7 Q7.8 -2.15 8.1 -1.9 M0.95 -3.4 Q0.95 -4.05 0.8 -3.4 0.0 -2.3 0.75 -1.35 L0.9 -1.9 0.95 -3.4 M2.95 -2.35 L3.5 -1.3 4.25 0.15 4.25 1.05 3.55 -0.6 3.7 2.35 2.95 -0.4 2.7 -1.3 2.85 0.75 2.5 3.1 2.35 2.4 2.45 0.9 2.15 0.55 Q2.0 0.9 2.0 1.25 L2.05 2.3 1.45 3.05 1.4 3.05 1.3 2.65 1.05 1.7 0.9 1.5 0.9 1.45 0.85 1.3 0.7 1.95 0.7 2.0 0.7 2.1 0.55 1.95 0.3 -1.3 -0.1 -0.65 0.1 -2.2 -0.15 -0.5 -0.65 2.2 -0.7 2.25 -0.95 -0.8 -1.0 -0.95 -1.7 1.55 -1.5 -1.0 -1.4 -1.65 -1.45 -2.4 -1.85 -0.25 -1.55 -0.85 -2.1 0.45 -2.0 -1.05 -2.85 1.95 -2.9 2.0 -2.95 -0.8 -2.25 -4.15 -3.3 -0.6 -3.9 1.7 -3.9 1.45 -3.95 -1.05 -4.0 -0.95 -4.45 0.3 -4.1 -2.5 -3.5 -4.85 -3.85 -4.25 Q-4.4 -3.25 -4.45 -2.15 -5.35 -1.0 -5.8 0.35 L-6.0 1.1 -5.95 -1.65 -6.45 0.1 -6.55 0.2 -6.5 -2.8 -6.15 -4.4 -6.7 -2.35 -6.6 -2.55 -6.95 -0.6 -7.05 -0.7 -7.15 -1.15 -7.4 -0.75 -6.85 -3.3 -7.85 0.15 -7.6 -2.85 -7.05 -4.4 -7.7 -2.7 -8.3 -1.25 -8.4 -1.65 -8.4 -1.7 -7.15 -5.85 -7.55 -6.7 -7.7 -7.15 -7.7 -7.4 -7.65 -7.6 -7.55 -7.55 -6.8 -6.75 -6.35 -6.45 Q-5.7 -6.1 -5.2 -5.6 L-4.9 -5.5 -4.7 -5.7 -4.15 -5.45 -3.5 -5.15 -1.75 -4.7 Q0.15 -4.15 2.35 -3.95 L2.7 -2.9 2.95 -2.35 M1.2 -1.85 L1.0 -1.25 Q0.65 -0.5 1.15 0.45 L1.2 -1.85 M7.95 -3.05 L7.9 -3.2 7.95 -3.05 M5.0 1.95 L4.95 2.5 4.75 0.9 5.2 1.7 5.0 1.7 5.0 1.75 5.0 1.95 M-6.1 -5.85 L-6.2 -5.8 -6.75 -4.45 -6.55 -4.65 Q-5.85 -5.25 -6.1 -5.85 M-8.4 -1.6 L-8.4 -1.55 -8.4 -1.5 -8.4 -1.6 M-3.0 -4.15 L-3.05 -4.15 -3.4 -2.9 -3.65 -1.7 -3.6 -1.4 -3.0 -4.15 M-2.0 -1.05 L-1.45 -4.25 -1.7 -3.8 Q-2.35 -2.55 -2.0 -1.05 M-5.25 -2.75 L-5.55 -1.35 -4.65 -4.5 -5.25 -2.75 M-6.05 -2.2 L-5.65 -2.6 Q-5.05 -3.5 -5.35 -4.35 -6.1 -3.75 -6.05 -2.2" fill="#836b45" fill-rule="evenodd" stroke="none"/>
    <path d="M8.1 -1.9 Q7.8 -2.15 7.7 -2.7 L7.65 -3.0 7.7 -3.25 7.75 -3.35 7.85 -3.4 7.75 -4.15 7.7 -4.6 Q7.75 -5.1 8.05 -5.4 L8.1 -5.25 8.15 -4.2 8.05 -3.0 7.95 -3.05 8.1 -1.9 M7.6 -4.1 L7.55 -2.6 7.45 -3.5 7.45 -4.45 7.6 -4.1 M0.95 -3.4 L0.9 -1.9 0.75 -1.35 Q0.0 -2.3 0.8 -3.4 0.95 -4.05 0.95 -3.4 M2.95 -0.4 L2.85 0.75 2.7 -1.3 2.95 -0.4 M2.35 2.4 L2.05 2.3 2.0 1.25 Q2.0 0.9 2.15 0.55 L2.45 0.9 2.35 2.4 M-0.1 -0.65 L-0.15 -0.5 0.1 -2.2 -0.1 -0.65 M-1.5 -1.0 L-1.55 -0.85 -1.85 -0.25 -1.45 -2.4 -1.4 -1.65 -1.5 -1.0 M-2.95 -0.8 L-3.25 -0.4 -3.3 -0.6 -2.25 -4.15 -2.95 -0.8 M-4.1 -2.5 L-4.45 -2.1 -4.45 -2.15 Q-4.4 -3.25 -3.85 -4.25 L-3.5 -4.85 -4.1 -2.5 M-6.5 -2.8 L-6.6 -2.55 -6.7 -2.35 -6.15 -4.4 -6.5 -2.8 M-7.6 -2.85 L-7.7 -2.7 -7.05 -4.4 -7.6 -2.85 M1.2 -1.85 L1.15 0.45 Q0.65 -0.5 1.0 -1.25 L1.2 -1.85 M7.95 -3.05 L7.9 -3.2 7.95 -3.05 M-6.1 -5.85 Q-5.85 -5.25 -6.55 -4.65 L-6.75 -4.45 -6.2 -5.8 -6.1 -5.85 M-6.05 -2.2 Q-6.1 -3.75 -5.35 -4.35 -5.05 -3.5 -5.65 -2.6 L-6.05 -2.2 M-5.25 -2.75 L-4.65 -4.5 -5.55 -1.35 -5.25 -2.75 M-2.0 -1.05 Q-2.35 -2.55 -1.7 -3.8 L-1.45 -4.25 -2.0 -1.05 M-3.0 -4.15 L-3.6 -1.4 -3.65 -1.7 -3.4 -2.9 -3.05 -4.15 -3.0 -4.15" fill="#aa8d60" fill-rule="evenodd" stroke="none"/>
  </g>
</svg>
