<?xml version="1.0" encoding="UTF-8" standalone="no"?>
<svg xmlns:ffdec="https://www.free-decompiler.com/flash" xmlns:xlink="http://www.w3.org/1999/xlink" ffdec:objectType="shape" height="19.95px" width="60.0px" xmlns="http://www.w3.org/2000/svg">
  <g transform="matrix(1.0, 0.0, 0.0, 1.0, 30.0, 4.95)">
    <path d="M0.0 15.0 L-30.0 5.0 0.0 -4.95 30.0 5.0 0.0 15.0" fill="#c5b994" fill-rule="evenodd" stroke="none"/>
    <path d="M-10.05 1.75 L-7.6 -0.55 Q-4.0 -3.5 0.45 -2.85 5.3 -2.35 9.7 -0.35 L10.3 1.0 9.4 3.2 Q7.7 6.45 4.25 6.95 -2.1 7.6 -8.0 5.6 L-8.6 3.4 -8.95 3.15 Q-9.8 2.75 -10.05 1.75" fill="#009900" fill-rule="evenodd" stroke="none"/>
    <path d="M-10.05 1.75 Q-9.8 2.75 -8.95 3.15 L-8.6 3.4 -8.0 5.6 Q-2.1 7.6 4.25 6.95 7.7 6.45 9.4 3.2 L10.3 1.0 12.65 6.4 Q9.75 8.85 6.25 10.0 2.05 11.3 -2.25 10.9 L-6.2 10.0 -7.5 9.3 -10.25 7.5 -10.3 7.0 -10.8 6.45 -11.2 5.1 Q-11.25 3.25 -10.05 1.75" fill="#006600" fill-rule="evenodd" stroke="none"/>
  </g>
</svg>
