<?xml version="1.0" encoding="UTF-8" standalone="no"?>
<svg xmlns:ffdec="https://www.free-decompiler.com/flash" xmlns:xlink="http://www.w3.org/1999/xlink" ffdec:objectType="shape" height="19.95px" width="60.0px" xmlns="http://www.w3.org/2000/svg">
  <g transform="matrix(1.0, 0.0, 0.0, 1.0, 30.0, 4.95)">
    <path d="M0.0 15.0 L-30.0 5.0 0.0 -4.95 30.0 5.0 0.0 15.0" fill="#333333" fill-rule="evenodd" stroke="none"/>
    <path d="M-14.6 5.95 Q-4.95 14.55 7.95 10.05 11.8 8.8 14.9 6.2 L14.95 5.05 Q10.9 0.6 5.25 -1.65 -6.65 -6.4 -13.8 4.5 L-14.6 5.95 M-6.45 2.15 Q-3.3 3.3 -3.0 6.4 -2.8 8.8 -5.5 8.65 -10.45 9.3 -9.85 4.2 -8.6 2.4 -6.45 2.15" fill="#999999" fill-rule="evenodd" stroke="none"/>
    <path d="M-6.45 2.15 Q-8.6 2.4 -9.85 4.2 -10.45 9.3 -5.5 8.65 -2.8 8.8 -3.0 6.4 -3.3 3.3 -6.45 2.15" fill="#151515" fill-rule="evenodd" stroke="none"/>
  </g>
</svg>
