<?xml version="1.0" encoding="UTF-8" standalone="no"?>
<svg xmlns:ffdec="https://www.free-decompiler.com/flash" xmlns:xlink="http://www.w3.org/1999/xlink" ffdec:objectType="shape" height="12.35px" width="16.45px" xmlns="http://www.w3.org/2000/svg">
  <g transform="matrix(1.0, 0.0, 0.0, 1.0, 7.65, 7.1)">
    <path d="M1.95 -2.4 L2.0 -1.95 1.9 -1.45 1.7 -1.3 Q1.2 -0.9 0.75 -1.05 L0.55 -1.3 Q0.0 -2.45 1.1 -2.9 L1.95 -2.4 M1.6 -2.3 L1.25 -2.5 Q1.05 -2.5 0.9 -2.3 L0.75 -1.9 Q0.75 -1.65 0.9 -1.45 1.05 -1.3 1.25 -1.3 L1.6 -1.45 1.75 -1.9 1.6 -2.3 M1.9 -0.5 Q2.1 -0.8 2.4 -0.8 L2.9 -0.5 3.1 0.1 2.9 0.75 2.4 1.0 1.9 0.75 1.7 0.1 1.9 -0.5 M2.05 -0.4 L1.9 0.05 2.05 0.5 2.4 0.7 2.75 0.5 2.9 0.05 2.75 -0.4 Q2.6 -0.6 2.4 -0.6 L2.05 -0.4 M5.2 1.4 L4.7 0.6 4.2 0.55 4.0 0.2 3.85 -0.2 3.85 -0.35 3.9 -0.4 3.95 -0.45 3.15 -1.55 2.75 -1.6 2.6 -3.1 0.9 -3.35 -2.5 -4.15 Q-4.4 -4.55 -6.0 -5.65 L-6.05 -5.65 -6.0 -5.6 -6.65 -5.9 -6.75 -5.75 -6.75 -5.15 -6.75 -4.25 -6.75 -0.85 -6.7 -0.85 Q-6.35 -0.85 -6.1 -0.65 L-5.85 -0.15 -5.85 0.55 Q-6.0 1.1 -6.5 0.95 L-6.3 1.5 -5.95 1.2 -4.85 2.25 -4.55 1.85 -4.1 2.95 -3.6 2.5 -3.1 2.75 Q-2.6 3.1 -2.85 3.75 L-2.45 4.2 -2.45 4.15 -2.45 4.1 Q-1.8 3.35 -1.4 3.95 L-1.45 3.75 Q-1.45 3.15 -1.05 2.9 0.0 2.85 0.05 3.85 L-0.15 4.4 0.75 4.6 Q1.9 4.45 1.25 3.65 1.45 2.9 2.3 2.55 L2.95 3.0 3.0 3.3 3.0 3.45 Q3.35 3.45 3.25 3.8 L3.25 3.95 Q4.5 3.3 5.05 2.55 5.35 3.1 5.55 2.65 L5.2 1.4 M3.2 -2.05 L3.7 -1.1 3.8 -0.95 Q4.8 0.25 5.45 1.7 L5.65 2.15 6.05 3.1 5.25 3.55 4.8 3.4 Q3.4 5.05 2.55 4.35 1.25 5.2 -0.25 5.25 -0.4 5.15 -0.6 5.0 L-0.75 4.6 -1.4 4.9 -1.85 4.45 Q-1.7 4.9 -2.15 4.9 L-2.4 4.75 -3.35 4.15 Q-4.7 3.4 -5.85 2.1 -5.8 2.45 -6.25 2.35 -6.5 1.75 -6.9 1.25 L-7.2 0.65 -7.2 0.3 Q-7.45 -2.75 -7.2 -5.85 L-7.55 -6.3 Q-7.85 -6.75 -7.3 -7.1 L-7.05 -6.9 -5.85 -6.0 Q-4.5 -4.95 -2.85 -4.45 L0.05 -3.8 2.75 -3.7 Q2.85 -2.85 3.2 -2.05 M7.8 -2.45 L7.75 -2.4 7.55 -2.25 7.55 -2.2 7.9 -1.55 8.5 -0.9 8.0 -5.8 7.95 -5.75 7.85 -4.85 7.75 -4.45 7.7 -4.35 7.5 -3.9 Q7.25 -3.85 7.15 -3.7 L7.15 -3.55 7.5 -3.75 7.9 -3.45 8.1 -3.15 8.05 -2.95 7.9 -3.35 7.55 -3.5 7.2 -3.35 7.05 -3.05 6.8 -4.25 Q7.45 -4.85 7.8 -5.7 L7.7 -6.0 7.8 -6.55 Q8.35 -6.4 8.55 -5.7 L8.8 -0.25 8.6 -0.45 8.15 -0.9 7.4 -2.1 7.25 -2.5 7.55 -2.4 7.8 -2.45 M3.7 2.7 Q4.35 2.6 4.3 1.85 3.6 1.2 3.3 2.25 3.25 2.55 3.7 2.7 M4.55 1.65 L4.6 2.2 3.95 3.0 3.7 2.95 Q2.85 2.4 3.1 1.75 L3.7 1.2 4.55 1.65 M1.65 1.85 L1.35 2.65 0.65 2.75 Q0.0 2.35 0.2 1.9 L0.25 1.65 0.9 1.1 Q1.15 1.25 1.4 1.5 L1.65 1.85 M-1.35 1.85 L-1.75 2.65 -2.75 2.05 -2.9 1.4 -2.6 0.65 Q-2.4 0.4 -2.1 0.4 L-1.65 0.65 -1.35 1.25 -1.35 1.85 M-3.85 0.85 L-4.35 1.65 Q-5.1 1.3 -5.0 0.6 L-4.9 0.5 -5.05 0.45 -4.7 -0.25 -4.25 -0.3 -3.9 0.2 Q-3.8 0.55 -3.85 0.85 M0.85 2.35 Q1.6 2.25 1.15 1.6 L0.9 1.4 Q0.5 1.6 0.6 2.1 L0.85 2.35 M1.8 2.95 Q1.65 3.15 1.65 3.4 L1.8 3.85 Q1.95 4.05 2.2 4.05 L2.6 3.85 2.75 3.4 2.6 2.95 2.2 2.75 Q1.95 2.75 1.8 2.95 M-6.55 -4.1 L-6.35 -4.6 -5.85 -4.85 -5.35 -4.6 -5.15 -4.1 -5.35 -3.55 Q-5.55 -3.35 -5.85 -3.35 L-6.35 -3.55 -6.55 -4.1 M0.1 -0.4 L0.15 0.05 -0.05 0.5 Q-0.25 1.0 -0.6 0.95 L-1.25 0.45 -1.35 -0.45 -0.6 -0.95 0.1 -0.4 M-5.5 -4.45 L-5.8 -4.6 -6.05 -4.45 -6.2 -4.15 -6.05 -3.8 -5.8 -3.7 -5.5 -3.8 -5.4 -4.15 -5.5 -4.45 M-5.85 -1.9 Q-5.65 -0.9 -5.05 -1.65 L-4.95 -1.9 Q-5.0 -2.55 -5.65 -2.25 L-5.85 -1.9 M-5.85 -2.65 L-5.2 -2.9 -4.6 -2.35 -4.55 -1.9 -5.1 -1.0 -6.15 -1.15 -6.25 -1.45 Q-6.45 -2.2 -5.85 -2.65 M-6.85 -0.55 L-7.0 -0.15 -6.85 0.25 -6.55 0.4 -6.2 0.25 -6.1 -0.15 -6.2 -0.55 -6.55 -0.7 -6.85 -0.55 M-2.05 -3.1 L-1.5 -3.35 -0.8 -2.85 -0.85 -2.45 Q-1.0 -1.5 -1.6 -1.65 L-1.95 -1.65 Q-2.5 -1.9 -2.35 -2.55 L-2.05 -3.1 M-4.35 -3.7 L-4.05 -2.8 Q-3.3 -2.4 -3.35 -3.45 -3.35 -3.95 -3.85 -4.05 L-4.35 -3.7 M-3.9 -4.2 L-3.15 -3.65 -3.35 -2.85 Q-3.5 -2.4 -3.95 -2.65 L-4.2 -2.8 Q-5.0 -3.75 -3.9 -4.2 M-2.95 -1.15 L-3.3 -1.3 -3.6 -1.15 -3.75 -0.8 -3.6 -0.45 Q-3.5 -0.3 -3.3 -0.3 -3.1 -0.3 -2.95 -0.45 L-2.85 -0.8 -2.95 -1.15 M-2.7 -1.2 L-2.65 -0.8 Q-2.75 -0.1 -3.2 -0.05 L-3.5 -0.1 Q-4.1 -0.4 -3.9 -1.25 L-3.3 -1.75 -2.7 -1.2 M-1.25 -2.95 L-1.6 -3.1 -1.95 -2.95 -2.1 -2.55 -1.95 -2.15 -1.6 -2.0 Q-1.4 -2.0 -1.25 -2.15 -1.1 -2.3 -1.1 -2.55 L-1.25 -2.95 M-0.45 0.6 Q0.0 0.4 0.0 -0.05 0.0 -0.5 -0.5 -0.65 -1.5 -0.15 -0.7 0.5 L-0.45 0.6 M-1.65 0.9 Q-1.8 0.7 -2.0 0.7 L-2.35 0.9 -2.5 1.4 -2.35 1.9 -2.0 2.1 Q-1.8 2.1 -1.65 1.9 L-1.5 1.4 Q-1.5 1.1 -1.65 0.9 M-4.9 0.5 L-4.55 1.05 -4.45 1.05 Q-3.75 0.85 -4.3 0.3 -4.7 -0.15 -4.9 0.5 M-3.45 2.65 L-3.75 2.8 -3.9 3.1 -3.75 3.45 -3.45 3.55 -3.1 3.45 -3.0 3.1 -3.1 2.8 Q-3.25 2.65 -3.45 2.65 M-0.25 3.25 Q-0.4 3.1 -0.6 3.1 -0.8 3.1 -0.95 3.25 L-1.1 3.6 -0.95 3.95 -0.6 4.1 -0.25 3.95 -0.1 3.6 Q-0.1 3.4 -0.25 3.25" fill="#6a713e" fill-rule="evenodd" stroke="none"/>
    <path d="M1.6 -2.3 L1.75 -1.9 1.6 -1.45 1.25 -1.3 Q1.05 -1.3 0.9 -1.45 0.75 -1.65 0.75 -1.9 L0.9 -2.3 Q1.05 -2.5 1.25 -2.5 L1.6 -2.3 M2.05 -0.4 L2.4 -0.6 Q2.6 -0.6 2.75 -0.4 L2.9 0.05 2.75 0.5 2.4 0.7 2.05 0.5 1.9 0.05 2.05 -0.4 M8.05 -2.95 L8.0 -2.75 7.8 -2.45 7.55 -2.4 7.25 -2.5 7.05 -3.05 7.2 -3.35 7.55 -3.5 7.9 -3.35 8.05 -2.95 M3.7 2.7 Q3.25 2.55 3.3 2.25 3.6 1.2 4.3 1.85 4.35 2.6 3.7 2.7 M0.85 2.35 L0.6 2.1 Q0.5 1.6 0.9 1.4 L1.15 1.6 Q1.6 2.25 0.85 2.35 M1.8 2.95 Q1.95 2.75 2.2 2.75 L2.6 2.95 2.75 3.4 2.6 3.85 2.2 4.05 Q1.95 4.05 1.8 3.85 L1.65 3.4 Q1.65 3.15 1.8 2.95 M-5.85 -1.9 L-5.65 -2.25 Q-5.0 -2.55 -4.95 -1.9 L-5.05 -1.65 Q-5.65 -0.9 -5.85 -1.9 M-5.5 -4.45 L-5.4 -4.15 -5.5 -3.8 -5.8 -3.7 -6.05 -3.8 -6.2 -4.15 -6.05 -4.45 -5.8 -4.6 -5.5 -4.45 M-6.85 -0.55 L-6.55 -0.7 -6.2 -0.55 -6.1 -0.15 -6.2 0.25 -6.55 0.4 -6.85 0.25 -7.0 -0.15 -6.85 -0.55 M-4.35 -3.7 L-3.85 -4.05 Q-3.35 -3.95 -3.35 -3.45 -3.3 -2.4 -4.05 -2.8 L-4.35 -3.7 M-2.95 -1.15 L-2.85 -0.8 -2.95 -0.45 Q-3.1 -0.3 -3.3 -0.3 -3.5 -0.3 -3.6 -0.45 L-3.75 -0.8 -3.6 -1.15 -3.3 -1.3 -2.95 -1.15 M-1.65 0.9 Q-1.5 1.1 -1.5 1.4 L-1.65 1.9 Q-1.8 2.1 -2.0 2.1 L-2.35 1.9 -2.5 1.4 -2.35 0.9 -2.0 0.7 Q-1.8 0.7 -1.65 0.9 M-0.45 0.6 L-0.7 0.5 Q-1.5 -0.15 -0.5 -0.65 0.0 -0.5 0.0 -0.05 0.0 0.4 -0.45 0.6 M-1.25 -2.95 L-1.1 -2.55 Q-1.1 -2.3 -1.25 -2.15 -1.4 -2.0 -1.6 -2.0 L-1.95 -2.15 -2.1 -2.55 -1.95 -2.95 -1.6 -3.1 -1.25 -2.95 M-0.25 3.25 Q-0.1 3.4 -0.1 3.6 L-0.25 3.95 -0.6 4.1 -0.95 3.95 -1.1 3.6 -0.95 3.25 Q-0.8 3.1 -0.6 3.1 -0.4 3.1 -0.25 3.25 M-3.45 2.65 Q-3.25 2.65 -3.1 2.8 L-3.0 3.1 -3.1 3.45 -3.45 3.55 -3.75 3.45 -3.9 3.1 -3.75 2.8 -3.45 2.65 M-4.9 0.5 Q-4.7 -0.15 -4.3 0.3 -3.75 0.85 -4.45 1.05 L-4.55 1.05 -4.9 0.5" fill="#414224" fill-rule="evenodd" stroke="none"/>
    <path d="M1.95 -2.4 L1.1 -2.9 Q0.0 -2.45 0.55 -1.3 L0.75 -1.05 Q1.2 -0.9 1.7 -1.3 L1.9 -1.45 2.0 -1.95 1.95 -2.4 M1.9 -0.5 L1.7 0.1 1.9 0.75 2.4 1.0 2.9 0.75 3.1 0.1 2.9 -0.5 2.4 -0.8 Q2.1 -0.8 1.9 -0.5 M-6.0 -5.65 Q-4.4 -4.55 -2.5 -4.15 L0.9 -3.35 2.6 -3.1 2.75 -1.6 3.15 -1.55 3.95 -0.45 3.9 -0.4 3.85 -0.35 3.85 -0.2 4.0 0.2 4.2 0.55 4.7 0.6 5.2 1.4 4.55 1.65 3.7 1.2 3.1 1.75 1.65 1.85 1.4 1.5 Q1.15 1.25 0.9 1.1 L0.25 1.65 0.2 1.9 -1.35 1.85 -1.35 1.25 -1.65 0.65 -2.1 0.4 Q-2.4 0.4 -2.6 0.65 L-2.9 1.4 Q-2.9 1.15 -3.15 1.0 L-3.85 0.85 Q-3.8 0.55 -3.9 0.2 L-4.25 -0.3 -4.7 -0.25 -5.05 0.45 -5.85 -0.15 -6.1 -0.65 Q-6.35 -0.85 -6.7 -0.85 L-6.75 -0.85 -6.75 -4.25 -6.75 -5.15 -6.75 -5.75 -6.65 -5.9 -6.0 -5.6 -6.0 -5.65 M8.05 -2.95 L8.1 -3.15 7.9 -3.45 7.5 -3.75 7.15 -3.55 7.15 -3.7 Q7.25 -3.85 7.5 -3.9 L7.7 -4.35 7.75 -4.45 7.85 -4.85 7.95 -5.75 8.0 -5.8 8.5 -0.9 7.9 -1.55 7.55 -2.2 7.55 -2.25 7.75 -2.4 7.8 -2.45 8.0 -2.75 8.05 -2.95 M0.1 -0.4 L-0.6 -0.95 -1.35 -0.45 -1.25 0.45 -0.6 0.95 Q-0.25 1.0 -0.05 0.5 L0.15 0.05 0.1 -0.4 M-6.55 -4.1 L-6.35 -3.55 -5.85 -3.35 Q-5.55 -3.35 -5.35 -3.55 L-5.15 -4.1 -5.35 -4.6 -5.85 -4.85 -6.35 -4.6 -6.55 -4.1 M-5.85 -2.65 Q-6.45 -2.2 -6.25 -1.45 L-6.15 -1.15 -5.1 -1.0 -4.55 -1.9 -4.6 -2.35 -5.2 -2.9 -5.85 -2.65 M-2.05 -3.1 L-2.35 -2.55 Q-2.5 -1.9 -1.95 -1.65 L-1.6 -1.65 Q-1.0 -1.5 -0.85 -2.45 L-0.8 -2.85 -1.5 -3.35 -2.05 -3.1 M-3.9 -4.2 Q-5.0 -3.75 -4.2 -2.8 L-3.95 -2.65 Q-3.5 -2.4 -3.35 -2.85 L-3.15 -3.65 -3.9 -4.2 M-2.7 -1.2 L-3.3 -1.75 -3.9 -1.25 Q-4.1 -0.4 -3.5 -0.1 L-3.2 -0.05 Q-2.75 -0.1 -2.65 -0.8 L-2.7 -1.2" fill="#ffff99" fill-rule="evenodd" stroke="none"/>
    <path d="M5.2 1.4 L5.55 2.65 Q5.35 3.1 5.05 2.55 4.5 3.3 3.25 3.95 L3.25 3.8 Q3.35 3.45 3.0 3.45 L3.0 3.3 2.95 3.0 2.3 2.55 Q1.45 2.9 1.25 3.65 1.9 4.45 0.75 4.6 L-0.15 4.4 0.05 3.85 Q0.0 2.85 -1.05 2.9 -1.45 3.15 -1.45 3.75 L-1.4 3.95 Q-1.8 3.35 -2.45 4.1 L-2.45 4.15 -2.45 4.2 -2.85 3.75 Q-2.6 3.1 -3.1 2.75 L-3.6 2.5 -4.1 2.95 -4.55 1.85 -4.85 2.25 -5.95 1.2 -6.3 1.5 -6.5 0.95 Q-6.0 1.1 -5.85 0.55 L-5.85 -0.15 -5.05 0.45 -4.9 0.5 -5.0 0.6 Q-5.1 1.3 -4.35 1.65 L-3.85 0.85 -3.15 1.0 Q-2.9 1.15 -2.9 1.4 L-2.75 2.05 -1.75 2.65 -1.35 1.85 0.2 1.9 Q0.0 2.35 0.65 2.75 L1.35 2.65 1.65 1.85 3.1 1.75 Q2.85 2.4 3.7 2.95 L3.95 3.0 4.6 2.2 4.55 1.65 5.2 1.4" fill="#c7c763" fill-rule="evenodd" stroke="none"/>
  </g>
</svg>
