<?xml version="1.0" encoding="UTF-8" standalone="no"?>
<svg xmlns:ffdec="https://www.free-decompiler.com/flash" xmlns:xlink="http://www.w3.org/1999/xlink" ffdec:objectType="shape" height="19.95px" width="60.0px" xmlns="http://www.w3.org/2000/svg">
  <g transform="matrix(1.0, 0.0, 0.0, 1.0, 30.0, 4.95)">
    <path d="M0.0 15.0 L-30.0 5.0 0.0 -4.95 30.0 5.0 0.0 15.0" fill="#91f057" fill-rule="evenodd" stroke="none"/>
    <path d="M-2.9 -1.05 L2.45 -1.15 Q6.5 -0.75 10.3 0.8 13.6 2.05 14.1 5.55 14.25 6.45 14.0 7.3 13.75 8.05 13.1 8.5 9.45 11.0 4.95 11.0 L-1.4 11.0 Q-7.35 11.25 -12.4 8.65 -13.3 8.2 -14.0 7.0 -14.85 5.5 -14.1 3.9 -13.5 2.65 -12.45 1.85 -8.25 -1.25 -2.9 -1.05 M6.2 1.5 Q3.6 0.4 -0.05 0.4 -3.7 0.4 -6.3 1.5 -8.9 2.55 -8.9 4.05 -8.9 5.55 -6.3 6.65 -3.7 7.7 -0.05 7.7 3.6 7.7 6.2 6.65 8.8 5.55 8.8 4.05 8.8 2.55 6.2 1.5" fill="#ffffff" fill-rule="evenodd" stroke="none"/>
    <path d="M6.2 1.5 Q8.8 2.55 8.8 4.05 8.8 5.55 6.2 6.65 3.6 7.7 -0.05 7.7 -3.7 7.7 -6.3 6.65 -8.9 5.55 -8.9 4.05 -8.9 2.55 -6.3 1.5 -3.7 0.4 -0.05 0.4 3.6 0.4 6.2 1.5" fill="#cccccc" fill-rule="evenodd" stroke="none"/>
  </g>
</svg>
