<?xml version="1.0" encoding="UTF-8" standalone="no"?>
<svg xmlns:ffdec="https://www.free-decompiler.com/flash" xmlns:xlink="http://www.w3.org/1999/xlink" ffdec:objectType="shape" height="11.2px" width="12.05px" xmlns="http://www.w3.org/2000/svg">
  <g transform="matrix(1.0, 0.0, 0.0, 1.0, 7.8, 15.1)">
    <path d="M3.35 -12.7 Q0.85 -12.7 -1.35 -11.5 L-1.35 -11.4 -1.45 -11.55 -1.35 -11.4 -1.1 -9.45 -0.8 -8.05 -0.6 -6.8 -0.55 -5.65 -0.7 -4.9 -1.25 -4.45 -1.6 -4.2 -2.85 -3.9 Q-4.15 -4.15 -5.3 -4.75 -6.35 -5.3 -7.1 -6.15 -7.95 -7.1 -7.75 -8.3 L-7.4 -10.1 -7.3 -11.1 -7.25 -11.6 -7.1 -11.95 -6.7 -12.9 -6.65 -13.8 -6.8 -14.9 -6.75 -15.05 -5.25 -15.1 -5.05 -14.05 Q-4.5 -13.7 -3.8 -13.45 L-2.8 -13.15 Q-2.35 -13.0 -1.95 -12.7 L-1.85 -12.75 0.3 -13.25 2.4 -13.35 4.25 -12.7 4.2 -12.55 3.35 -12.7 M2.85 -12.8 L3.75 -12.8 1.75 -13.25 -1.5 -12.75 -1.85 -12.6 -1.55 -12.0 -1.5 -11.95 -1.45 -11.85 -1.4 -11.7 -0.3 -12.15 Q1.2 -12.8 2.85 -12.8 M-6.25 -13.55 L-6.15 -13.65 Q-5.85 -14.0 -5.4 -14.0 L-5.3 -14.15 -5.4 -14.9 -6.55 -14.95 -6.7 -14.9 -6.45 -13.4 -6.25 -13.55 M-2.2 -12.55 Q-2.45 -13.05 -3.1 -13.15 L-4.0 -13.4 -5.1 -13.75 -5.55 -13.75 Q-6.0 -13.65 -6.25 -13.25 -6.95 -12.35 -7.15 -11.25 L-7.1 -11.0 Q-6.9 -10.4 -6.25 -10.25 L-6.1 -11.3 -6.0 -11.35 Q-6.25 -10.8 -6.1 -10.25 L-5.95 -10.1 -4.95 -9.7 -4.7 -10.8 -5.9 -11.4 -4.6 -10.9 -4.8 -9.65 -4.2 -9.3 -3.5 -9.3 Q-3.1 -9.45 -2.95 -9.95 L-2.65 -11.85 -2.6 -11.9 -2.2 -12.55 M-7.6 -7.95 L-7.6 -7.3 Q-7.35 -6.5 -6.65 -5.95 -5.0 -4.75 -2.95 -4.15 L-2.25 -4.2 Q-1.7 -4.4 -1.25 -4.75 L-0.7 -5.3 -0.8 -6.55 -0.95 -8.05 -1.15 -9.4 -1.65 -11.6 -1.7 -11.65 -1.4 -10.0 -2.1 -12.25 -2.25 -12.15 -1.9 -10.25 -2.35 -12.05 -2.5 -10.35 -2.45 -10.45 -2.35 -8.65 -2.65 -11.2 -3.05 -8.05 -3.05 -5.75 -3.05 -5.65 -2.7 -4.45 -2.7 -4.4 -2.8 -4.4 -3.05 -4.9 -3.25 -6.15 -3.0 -9.2 -3.0 -9.4 -3.35 -9.2 -4.5 -9.3 -4.65 -8.9 -4.7 -8.75 -4.9 -8.35 Q-5.05 -7.5 -5.8 -7.1 L-6.0 -7.05 -6.2 -7.15 -6.45 -7.3 -6.75 -7.7 -6.15 -8.9 -6.35 -9.1 -6.25 -9.55 -6.2 -10.0 -7.15 -10.6 -7.2 -10.35 -7.6 -7.95 M-5.0 -8.5 L-4.95 -8.55 -4.75 -9.25 -4.9 -9.4 -5.05 -8.8 -5.15 -8.7 -5.45 -8.85 -5.65 -8.75 -5.0 -8.5 M-5.65 -9.75 L-5.8 -9.75 -5.9 -9.35 -5.4 -9.25 -5.35 -9.1 -5.1 -8.9 -5.0 -9.45 -5.6 -9.55 -5.65 -9.75 M-5.95 -9.85 L-6.1 -9.95 -6.2 -9.1 -5.85 -8.85 -5.85 -9.1 -6.0 -9.2 -5.95 -9.85 M-5.5 -9.05 L-5.55 -9.2 -5.65 -9.25 -5.75 -9.2 -5.8 -9.05 -5.75 -8.9 -5.65 -8.85 -5.55 -8.9 -5.5 -9.05 M-5.1 -7.95 L-5.0 -8.3 -5.95 -8.8 -6.1 -8.6 -6.15 -8.55 -6.55 -7.9 -6.55 -7.65 Q-6.45 -7.45 -6.15 -7.35 -5.4 -7.25 -5.1 -7.95 M-5.8 -8.3 L-5.6 -8.35 -5.55 -8.3 -5.55 -8.15 -5.75 -8.15 -5.8 -8.15 -5.8 -8.3" fill="#000000" fill-rule="evenodd" stroke="none"/>
    <path d="M2.85 -12.8 Q1.2 -12.8 -0.3 -12.15 L-1.4 -11.7 -1.45 -11.85 -1.5 -11.95 -1.55 -12.0 -1.85 -12.6 -1.5 -12.75 -1.15 -12.15 -0.05 -12.5 2.85 -12.8 M-6.25 -13.55 L-6.45 -13.4 -6.7 -14.9 -6.55 -14.95 -6.25 -13.55 M-4.6 -10.9 L-4.45 -10.8 -4.55 -9.8 -3.45 -9.7 -3.3 -9.85 -2.9 -11.3 -2.9 -11.55 Q-2.8 -12.3 -2.2 -12.55 L-2.6 -11.9 -2.65 -11.85 -2.95 -9.95 Q-3.1 -9.45 -3.5 -9.3 L-4.2 -9.3 -4.8 -9.65 -4.6 -10.9 M-2.45 -10.45 L-2.5 -10.35 -2.35 -12.05 -1.9 -10.25 -2.25 -12.15 -2.1 -12.25 -1.4 -10.0 -1.7 -11.65 -1.65 -11.6 -1.15 -9.4 -0.95 -8.05 -0.8 -6.55 -0.7 -5.3 -1.25 -4.75 Q-1.7 -4.4 -2.25 -4.2 L-2.95 -4.15 Q-5.0 -4.75 -6.65 -5.95 -7.35 -6.5 -7.6 -7.3 L-7.6 -7.95 -6.85 -6.8 -5.95 -6.1 Q-4.6 -5.3 -3.05 -4.9 L-2.8 -4.4 -2.7 -4.4 -2.7 -4.45 -3.05 -5.65 -3.05 -5.75 -3.05 -8.05 -2.65 -11.2 -2.35 -8.65 -2.3 -8.4 -2.5 -8.55 -2.55 -8.85 -2.65 -9.45 -2.9 -6.9 Q-3.05 -5.9 -2.5 -5.1 L-2.25 -5.35 -1.75 -6.7 -1.3 -6.2 Q-0.8 -5.75 -1.0 -7.05 L-1.35 -8.95 -1.85 -10.75 -1.65 -9.1 -2.35 -11.1 -2.45 -10.45 M-7.2 -10.35 L-7.15 -10.6 -6.2 -10.0 -6.25 -9.55 -6.4 -9.5 -6.6 -9.6 -6.95 -9.15 -6.5 -9.3 -6.65 -9.1 -7.1 -8.9 -7.1 -9.05 Q-7.1 -9.55 -6.7 -9.85 L-7.2 -10.35 M-6.45 -7.3 L-6.2 -7.15 -6.0 -7.05 -5.8 -7.1 Q-5.05 -7.5 -4.9 -8.35 L-4.7 -8.75 -4.75 -7.3 Q-4.8 -6.8 -5.2 -6.55 L-5.65 -6.4 Q-6.45 -6.5 -6.45 -7.3 M-4.65 -8.9 L-4.5 -9.3 -3.35 -9.2 -3.0 -9.4 -3.0 -9.2 -3.25 -8.95 Q-3.5 -8.8 -3.8 -8.8 L-4.4 -8.85 -4.2 -7.4 -4.65 -8.9 M-5.65 -9.75 L-5.6 -9.55 -5.0 -9.45 -5.1 -8.9 -5.35 -9.1 -5.4 -9.25 -5.9 -9.35 -5.8 -9.75 -5.65 -9.75 M-6.15 -8.55 L-6.1 -8.6 -5.95 -8.8 -5.0 -8.3 -5.1 -7.95 -5.55 -8.15 -5.55 -8.3 -5.6 -8.35 -5.8 -8.3 -6.15 -8.55" fill="#aca488" fill-rule="evenodd" stroke="none"/>
    <path d="M-1.5 -12.75 L1.75 -13.25 3.75 -12.8 2.85 -12.8 -0.05 -12.5 -1.15 -12.15 -1.5 -12.75 M-6.55 -14.95 L-5.4 -14.9 -5.3 -14.15 -5.4 -14.0 Q-5.85 -14.0 -6.15 -13.65 L-6.25 -13.55 -6.55 -14.95 M-4.6 -10.9 L-5.9 -11.4 -4.7 -10.8 -4.95 -9.7 -5.95 -10.1 -6.1 -10.25 Q-6.25 -10.8 -6.0 -11.35 L-6.1 -11.3 -6.25 -10.25 Q-6.9 -10.4 -7.1 -11.0 L-7.15 -11.25 Q-6.95 -12.35 -6.25 -13.25 -6.0 -13.65 -5.55 -13.75 L-5.1 -13.75 -4.0 -13.4 -3.1 -13.15 Q-2.45 -13.05 -2.2 -12.55 -2.8 -12.3 -2.9 -11.55 L-2.9 -11.3 -3.3 -9.85 -3.45 -9.7 -4.55 -9.8 -4.45 -10.8 -4.6 -10.9 M-2.45 -10.45 L-2.35 -11.1 -1.65 -9.1 -1.85 -10.75 -1.35 -8.95 -1.0 -7.05 Q-0.8 -5.75 -1.3 -6.2 L-1.75 -6.7 -2.25 -5.35 -2.5 -5.1 Q-3.05 -5.9 -2.9 -6.9 L-2.65 -9.45 -2.55 -8.85 -2.5 -8.55 -2.3 -8.4 -2.35 -8.65 -2.45 -10.45 M-3.05 -4.9 Q-4.6 -5.3 -5.95 -6.1 L-6.85 -6.8 -7.6 -7.95 -7.2 -10.35 -6.7 -9.85 Q-7.1 -9.55 -7.1 -9.05 L-7.1 -8.9 -6.65 -9.1 -6.5 -9.3 -6.95 -9.15 -6.6 -9.6 -6.4 -9.5 -6.25 -9.55 -6.35 -9.1 -6.15 -8.9 -6.75 -7.7 -6.45 -7.3 Q-6.45 -6.5 -5.65 -6.4 L-5.2 -6.55 Q-4.8 -6.8 -4.75 -7.3 L-4.7 -8.75 -4.65 -8.9 -4.2 -7.4 -4.4 -8.85 -3.8 -8.8 Q-3.5 -8.8 -3.25 -8.95 L-3.0 -9.2 -3.25 -6.15 -3.05 -4.9 M-5.1 -7.95 Q-5.4 -7.25 -6.15 -7.35 -6.45 -7.45 -6.55 -7.65 L-6.55 -7.9 -6.15 -8.55 -5.8 -8.3 -5.8 -8.15 -5.75 -8.15 -5.55 -8.15 -5.1 -7.95" fill="#d5d0c1" fill-rule="evenodd" stroke="none"/>
    <path d="M-5.0 -8.5 L-5.65 -8.75 -5.45 -8.85 -5.15 -8.7 -5.05 -8.8 -4.9 -9.4 -4.75 -9.25 -4.95 -8.55 -5.0 -8.5 M-5.95 -9.85 L-6.0 -9.2 -5.85 -9.1 -5.85 -8.85 -6.2 -9.1 -6.1 -9.95 -5.95 -9.85 M-5.5 -9.05 L-5.55 -8.9 -5.65 -8.85 -5.75 -8.9 -5.8 -9.05 -5.75 -9.2 -5.65 -9.25 -5.55 -9.2 -5.5 -9.05" fill="#dbdce6" fill-rule="evenodd" stroke="none"/>
  </g>
</svg>
