<?xml version="1.0" encoding="UTF-8" standalone="no"?>
<svg xmlns:ffdec="https://www.free-decompiler.com/flash" xmlns:xlink="http://www.w3.org/1999/xlink" ffdec:objectType="shape" height="11.45px" width="16.7px" xmlns="http://www.w3.org/2000/svg">
  <g transform="matrix(1.0, 0.0, 0.0, 1.0, 8.0, 8.3)">
    <path d="M6.75 -6.2 L7.2 -6.5 7.4 -6.7 Q7.7 -7.05 7.6 -7.45 L7.9 -7.35 8.2 -7.15 8.25 -6.9 8.4 -4.75 8.4 -4.5 8.55 -2.3 8.65 -0.75 8.7 -0.7 8.7 -0.8 8.65 -0.2 8.65 -0.5 7.8 -1.3 7.6 -1.55 7.5 -1.8 7.4 -2.0 7.4 -2.05 7.35 -2.1 7.1 -2.7 6.9 -3.3 Q6.6 -4.7 6.75 -6.2 M8.05 -7.0 L8.0 -7.05 Q7.75 -6.2 6.95 -5.85 L6.95 -5.4 8.0 -6.2 8.1 -6.4 8.05 -7.0 M0.65 3.1 L0.3 3.1 -1.25 2.65 -1.4 2.55 Q-3.95 1.05 -6.15 -0.85 L-6.2 -0.9 -6.4 -1.1 Q-6.95 -1.7 -6.8 -2.4 L-6.75 -2.55 -6.7 -2.8 -6.7 -3.1 -6.65 -3.45 -6.7 -3.8 -6.75 -4.05 -7.25 -5.6 -7.25 -5.65 -7.65 -6.7 -7.9 -7.45 -7.95 -7.65 -7.95 -7.95 -7.6 -8.3 -7.5 -8.3 -7.35 -8.1 -7.4 -8.05 -7.15 -7.85 -6.85 -7.6 -6.8 -7.55 -6.4 -7.3 -5.05 -6.5 -3.7 -6.0 -3.65 -6.0 -3.55 -5.95 -1.4 -5.35 0.15 -5.15 2.3 -5.0 2.35 -5.0 2.65 -4.95 3.0 -3.1 Q3.15 -2.4 3.45 -1.8 L4.1 -0.65 4.25 -0.4 4.35 -0.15 4.65 0.2 4.95 0.6 5.25 1.25 4.25 1.9 Q3.05 2.6 1.75 3.0 L1.65 3.05 1.45 3.1 1.0 3.1 0.7 3.1 1.4 2.9 Q2.55 2.7 3.6 2.05 L3.5 2.05 4.9 1.25 4.85 1.15 4.85 1.05 4.8 0.95 4.8 0.9 4.7 0.8 4.4 1.0 1.2 2.75 0.95 2.9 0.55 3.05 0.65 3.1 M2.4 -4.75 L1.35 -4.75 0.35 -4.8 -1.2 -5.0 -2.4 -5.3 -3.5 -5.65 -4.5 -6.05 Q-5.15 -6.35 -5.75 -6.8 L-5.8 -6.8 -7.5 -7.9 -7.6 -7.8 -7.35 -7.3 -6.0 -6.45 -5.95 -6.45 -4.85 -5.85 -3.85 -5.45 -3.1 -5.15 -1.85 -4.75 -0.65 -4.55 0.7 -4.4 1.7 -4.4 2.25 -4.4 2.45 -4.35 2.4 -4.75 M1.0 -3.2 L1.0 -2.8 2.5 -2.85 2.75 -2.9 2.35 -4.0 2.0 -4.0 2.15 -3.1 2.1 -2.9 1.9 -3.1 Q1.7 -3.45 1.75 -3.9 L1.75 -4.0 0.75 -4.1 1.0 -3.2 M1.7 2.45 L2.7 1.8 2.6 1.35 2.3 0.2 2.0 -1.2 1.95 -1.75 1.8 -2.0 1.75 -2.55 -1.65 -3.0 -2.15 -3.15 -2.1 -2.6 -2.1 -2.1 -2.1 -1.45 -1.85 0.0 -1.35 1.3 -1.0 1.8 -1.0 1.95 -0.95 1.95 0.25 2.9 0.4 3.0 1.7 2.45 M2.4 -2.05 L2.4 -2.6 1.95 -2.55 2.05 -2.0 2.05 -1.75 2.15 -1.3 2.3 -0.35 2.7 1.1 2.75 1.3 2.9 1.7 3.25 1.5 3.05 1.05 2.75 -0.15 2.55 -1.45 2.5 -1.8 2.4 -2.05 M0.8 -2.85 L0.6 -4.15 -0.15 -4.25 -0.1 -4.2 0.1 -2.95 -0.05 -3.0 -0.3 -4.3 -1.2 -4.45 -1.05 -3.75 -1.0 -3.4 -0.9 -3.05 -1.05 -3.0 0.9 -2.8 0.8 -2.85 M3.05 -2.1 L2.8 -2.6 2.6 -2.6 2.7 -2.05 2.65 -1.8 3.3 0.85 3.45 1.4 4.55 0.65 4.4 0.4 3.1 -2.0 3.05 -2.1 M7.95 -5.65 L8.1 -4.55 8.2 -4.7 8.05 -5.85 7.5 -5.35 7.4 -5.3 7.5 -4.05 7.45 -3.95 7.75 -4.15 7.9 -4.25 Q7.8 -4.9 7.85 -5.6 L7.9 -5.65 7.95 -5.65 M7.65 -3.75 Q7.7 -3.0 7.9 -2.2 8.0 -1.6 8.4 -1.05 L8.1 -4.15 7.65 -3.75 M6.9 -5.1 Q6.8 -4.6 7.05 -4.15 L7.15 -3.9 7.4 -3.95 7.4 -4.0 7.3 -4.05 7.2 -5.25 6.9 -5.1 M7.15 -3.65 L7.5 -2.75 7.55 -3.7 7.15 -3.65 M-7.15 -6.85 L-7.2 -6.8 -6.9 -5.65 -6.45 -5.35 -6.7 -6.55 -7.15 -6.85 M-5.35 -4.75 L-5.55 -5.85 -6.3 -6.25 -6.05 -5.1 -5.35 -4.75 M-5.7 -4.1 L-5.65 -4.35 -5.6 -4.4 -5.6 -4.55 -6.6 -5.2 -6.7 -5.15 -6.75 -5.05 -6.85 -5.0 -6.7 -4.8 -6.55 -3.85 -6.5 -3.05 -6.5 -2.8 -6.5 -2.3 -6.65 -2.35 -6.8 -2.25 Q-5.65 -0.15 -3.45 1.05 -4.75 0.0 -5.7 -1.3 L-6.35 -2.2 -5.9 -1.7 -5.85 -2.3 -5.7 -3.3 -5.65 -3.4 -5.7 -4.1 M-5.25 -3.9 L-5.15 -4.3 -5.4 -4.45 -5.55 -4.3 -5.55 -4.05 -5.55 -3.25 -5.7 -2.2 -5.75 -1.55 -5.4 -1.2 -5.4 -2.0 -5.3 -2.8 -5.25 -3.1 -5.25 -3.9 M-5.0 -3.75 L-5.1 -3.05 -5.2 -1.85 -5.15 -0.9 -3.25 1.0 -2.85 1.35 -1.85 1.95 -1.65 2.05 -2.0 1.5 -2.5 0.4 -2.7 -0.15 -2.9 -1.65 -2.9 -2.35 -2.95 -2.85 -2.95 -3.4 -4.95 -4.15 -5.0 -3.75 M-5.0 -4.55 L-4.35 -4.25 -4.6 -5.45 -5.35 -5.75 -5.0 -4.55 M-2.2 -3.75 L-2.2 -3.4 -2.4 -3.8 -2.45 -3.95 -2.5 -4.2 -2.55 -4.5 -2.6 -4.8 -3.45 -5.05 -3.05 -3.65 -1.1 -3.0 -1.15 -3.05 -1.45 -4.5 -2.4 -4.75 -2.2 -3.75 M-3.45 -4.2 L-3.65 -5.1 -4.45 -5.35 -4.2 -4.15 -3.2 -3.7 -3.4 -4.15 -3.45 -4.2 M-2.35 -2.65 L-2.35 -3.2 -2.75 -3.35 -2.7 -3.2 -2.75 -2.75 -2.8 -2.3 -2.8 -0.9 -2.45 0.35 -1.75 1.5 -0.9 2.3 -1.3 1.8 -1.3 1.7 -1.35 1.7 -2.05 0.1 -2.25 -1.05 -2.3 -1.7 -2.35 -2.15 -2.35 -2.65" fill="#333333" fill-rule="evenodd" stroke="none"/>
    <path d="M1.0 -3.2 L0.75 -4.1 1.75 -4.0 1.75 -3.9 Q1.7 -3.45 1.9 -3.1 L2.1 -2.9 2.15 -3.1 2.0 -4.0 2.35 -4.0 2.75 -2.9 2.5 -2.85 1.0 -2.8 1.0 -3.2 M1.8 -2.0 L1.95 -1.75 2.0 -1.2 2.3 0.2 2.6 1.35 2.7 1.8 1.7 2.45 1.3 2.35 0.4 2.2 -0.95 1.8 -1.0 1.8 -1.35 1.3 -1.85 0.0 -2.1 -1.45 -2.1 -2.1 -2.1 -2.6 -1.65 -2.45 1.8 -2.0 M2.05 -2.0 L2.4 -2.05 2.5 -1.8 2.55 -1.45 2.75 -0.15 3.05 1.05 3.25 1.5 2.9 1.7 2.75 1.3 2.7 1.1 2.3 -0.35 2.15 -1.3 2.05 -1.75 2.05 -2.0 M0.8 -2.85 L0.9 -2.8 -1.05 -3.0 -0.9 -3.05 -1.0 -3.4 -1.05 -3.75 -1.2 -4.45 -0.3 -4.3 -0.05 -3.0 0.1 -2.95 -0.1 -4.2 -0.15 -4.25 0.6 -4.15 0.8 -2.85 M2.7 -2.05 L3.05 -2.1 3.1 -2.0 4.4 0.4 4.55 0.65 3.45 1.4 3.3 0.85 2.65 -1.8 2.7 -2.05 M7.15 -3.65 L7.55 -3.7 7.5 -2.75 7.15 -3.65 M6.9 -5.1 L7.2 -5.25 7.3 -4.05 7.4 -4.0 7.4 -3.95 7.15 -3.9 7.05 -4.15 Q6.8 -4.6 6.9 -5.1 M7.65 -3.75 L8.1 -4.15 8.4 -1.05 Q8.0 -1.6 7.9 -2.2 7.7 -3.0 7.65 -3.75 M7.95 -5.65 L7.9 -5.65 7.85 -5.6 Q7.8 -4.9 7.9 -4.25 L7.75 -4.15 7.45 -3.95 7.5 -4.05 7.4 -5.3 7.5 -5.35 8.05 -5.85 8.2 -4.7 8.1 -4.55 7.95 -5.65 M-7.15 -6.85 L-6.7 -6.55 -6.45 -5.35 -6.9 -5.65 -7.2 -6.8 -7.15 -6.85 M-5.35 -4.75 L-6.05 -5.1 -6.3 -6.25 -5.55 -5.85 -5.35 -4.75 M-5.7 -4.1 L-5.65 -3.4 -5.7 -3.3 -5.85 -2.3 -5.9 -1.7 -6.35 -2.2 -6.5 -2.3 -6.5 -2.8 -6.5 -3.05 -6.55 -3.85 -6.7 -4.8 -5.7 -4.1 M-5.55 -4.05 L-5.25 -3.9 -5.25 -3.1 -5.3 -2.8 -5.4 -2.0 -5.4 -1.2 -5.75 -1.55 -5.7 -2.2 -5.55 -3.25 -5.55 -4.05 M-2.85 1.35 L-3.25 1.0 -5.15 -0.9 -5.2 -1.85 -5.1 -3.05 -5.0 -3.75 -2.95 -2.85 -2.9 -2.35 -2.9 -1.65 -2.7 -0.15 -2.5 0.4 -2.0 1.5 -2.85 1.35 M-2.2 -3.75 L-2.4 -4.75 -1.45 -4.5 -1.15 -3.05 -1.1 -3.0 -3.05 -3.65 -3.45 -5.05 -2.6 -4.8 -2.55 -4.5 -2.5 -4.2 -2.45 -3.95 -2.4 -3.8 -2.2 -3.4 -2.2 -3.75 M-5.0 -4.55 L-5.35 -5.75 -4.6 -5.45 -4.35 -4.25 -5.0 -4.55 M-3.45 -4.2 L-3.4 -4.15 -3.2 -3.7 -4.2 -4.15 -4.45 -5.35 -3.65 -5.1 -3.45 -4.2 M-2.75 -2.75 L-2.35 -2.65 -2.35 -2.15 -2.3 -1.7 -2.25 -1.05 -2.05 0.1 -1.35 1.7 -1.75 1.5 -2.45 0.35 -2.8 -0.9 -2.8 -2.3 -2.75 -2.75" fill="#666666" fill-rule="evenodd" stroke="none"/>
    <path d="M8.05 -7.0 L8.1 -6.4 8.0 -6.2 6.95 -5.4 6.95 -5.85 Q7.75 -6.2 8.0 -7.05 L8.05 -7.0 M2.4 -4.75 L2.45 -4.35 2.25 -4.4 1.7 -4.4 0.7 -4.4 -0.65 -4.55 -1.85 -4.75 -3.1 -5.15 -3.85 -5.45 -4.85 -5.85 -5.95 -6.45 -6.0 -6.45 -7.35 -7.3 -7.6 -7.8 -7.5 -7.9 -5.8 -6.8 -5.75 -6.8 Q-5.15 -6.35 -4.5 -6.05 L-3.5 -5.65 -2.4 -5.3 -1.2 -5.0 0.35 -4.8 1.35 -4.75 2.4 -4.75" fill="#999999" fill-rule="evenodd" stroke="none"/>
    <path d="M0.7 3.1 L0.65 3.15 0.65 3.1 0.55 3.05 0.95 2.9 1.2 2.75 4.4 1.0 4.7 0.8 4.8 0.9 4.8 0.95 4.85 1.05 4.85 1.15 4.9 1.25 3.5 2.05 3.6 2.05 Q2.55 2.7 1.4 2.9 L0.7 3.1 M1.7 2.45 L0.4 3.0 0.25 2.9 -0.95 1.95 -1.0 1.95 -1.0 1.8 -0.95 1.8 0.4 2.2 1.3 2.35 1.7 2.45 M-2.1 -2.6 L-2.15 -3.15 -1.65 -3.0 1.75 -2.55 1.8 -2.0 -1.65 -2.45 -2.1 -2.6 M2.05 -2.0 L1.95 -2.55 2.4 -2.6 2.4 -2.05 2.05 -2.0 M2.7 -2.05 L2.6 -2.6 2.8 -2.6 3.05 -2.1 2.7 -2.05 M-6.7 -4.8 L-6.85 -5.0 -6.75 -5.05 -6.7 -5.15 -6.6 -5.2 -5.6 -4.55 -5.6 -4.4 -5.65 -4.35 -5.7 -4.1 -6.7 -4.8 M-6.35 -2.2 L-5.7 -1.3 Q-4.75 0.0 -3.45 1.05 -5.65 -0.15 -6.8 -2.25 L-6.65 -2.35 -6.5 -2.3 -6.35 -2.2 M-5.55 -4.05 L-5.55 -4.3 -5.4 -4.45 -5.15 -4.3 -5.25 -3.9 -5.55 -4.05 M-2.85 1.35 L-2.0 1.5 -1.65 2.05 -1.85 1.95 -2.85 1.35 M-2.95 -2.85 L-5.0 -3.75 -4.95 -4.15 -2.95 -3.4 -2.95 -2.85 M-2.75 -2.75 L-2.7 -3.2 -2.75 -3.35 -2.35 -3.2 -2.35 -2.65 -2.75 -2.75 M-1.35 1.7 L-1.3 1.7 -1.3 1.8 -0.9 2.3 -1.75 1.5 -1.35 1.7" fill="#4f4f4f" fill-rule="evenodd" stroke="none"/>
  </g>
</svg>
