<?xml version="1.0" encoding="UTF-8" standalone="no"?>
<svg xmlns:ffdec="https://www.free-decompiler.com/flash" xmlns:xlink="http://www.w3.org/1999/xlink" ffdec:objectType="shape" height="19.95px" width="60.0px" xmlns="http://www.w3.org/2000/svg">
  <g transform="matrix(1.0, 0.0, 0.0, 1.0, 30.0, 4.95)">
    <path d="M0.0 15.0 L-30.0 5.0 0.0 -4.95 30.0 5.0 0.0 15.0" fill="#91f057" fill-rule="evenodd" stroke="none"/>
    <path d="M10.35 10.0 Q7.8 11.0 4.95 11.0 L-1.4 11.0 Q-7.35 11.25 -12.4 8.65 -13.3 8.2 -14.0 7.0 -14.85 5.5 -14.1 3.9 -13.5 2.65 -12.45 1.85 -8.25 -1.25 -2.9 -1.05 L2.45 -1.15 Q6.5 -0.75 10.3 0.8 13.6 2.05 14.1 5.55 14.25 6.45 14.0 7.3 L13.85 7.65 Q13.9 5.45 10.5 4.55 9.9 4.55 9.5 5.15 6.95 8.75 10.35 10.0" fill="#ffffff" fill-rule="evenodd" stroke="none"/>
    <path d="M13.85 7.65 Q13.8 8.75 12.9 10.2 12.65 10.55 12.2 10.45 L10.35 10.0 Q6.95 8.75 9.5 5.15 9.9 4.55 10.5 4.55 13.9 5.45 13.85 7.65" fill="#7d7044" fill-rule="evenodd" stroke="none"/>
  </g>
</svg>
