<?xml version="1.0" encoding="UTF-8" standalone="no"?>
<svg xmlns:ffdec="https://www.free-decompiler.com/flash" xmlns:xlink="http://www.w3.org/1999/xlink" ffdec:objectType="shape" height="12.45px" width="17.3px" xmlns="http://www.w3.org/2000/svg">
  <g transform="matrix(1.0, 0.0, 0.0, 1.0, 8.25, 8.6)">
    <path d="M7.45 -6.6 L7.45 -7.0 7.45 -7.75 7.7 -7.9 Q8.25 -7.85 8.45 -7.3 L8.55 -7.0 8.8 -5.45 9.05 -3.9 8.35 -3.35 8.1 -3.15 7.8 -2.8 7.15 -2.15 Q6.6 -3.85 6.7 -5.6 7.3 -5.75 7.45 -6.35 L7.45 -6.6 M7.75 -6.7 L8.25 -6.85 8.15 -7.6 7.7 -7.6 7.75 -6.7 M8.35 -6.5 L7.95 -6.4 7.9 -6.05 8.35 -3.95 8.5 -3.9 8.55 -3.95 8.7 -4.05 8.7 -4.1 8.35 -6.5 M2.5 -4.5 L3.2 -1.35 2.95 -1.3 1.25 -1.35 1.05 -0.8 1.6 -0.7 4.0 -0.65 4.5 0.1 4.5 0.15 4.3 0.15 2.4 0.25 0.8 0.05 0.7 0.85 1.0 1.1 1.6 1.15 4.45 1.25 4.85 1.2 4.9 1.15 5.15 1.15 5.35 1.3 5.5 1.65 5.55 1.7 5.55 1.75 5.45 1.8 5.45 1.85 5.25 1.95 4.15 2.15 3.2 2.15 0.9 2.05 0.7 2.0 0.5 2.05 0.45 2.35 0.55 2.9 0.75 3.4 Q0.5 3.9 -0.1 3.85 L-0.85 3.7 -1.9 3.25 -2.75 2.35 -3.2 1.5 -3.3 1.4 -3.35 1.35 Q-5.05 1.1 -6.25 -0.15 L-6.45 -0.3 -7.05 -1.25 -7.0 -1.5 -6.7 -1.7 -5.85 -0.95 -5.6 -0.75 -5.2 -0.4 -3.9 0.1 -4.15 -0.85 Q-5.05 -1.05 -5.75 -1.55 L-6.45 -2.2 -6.6 -2.4 -6.65 -2.45 -6.6 -2.8 -6.5 -3.1 -6.4 -3.35 -6.35 -3.35 -6.3 -3.35 -6.2 -3.3 -6.15 -3.25 -6.2 -3.2 -5.95 -2.95 -5.85 -2.8 -5.55 -2.5 -4.5 -1.9 -4.7 -2.75 -6.8 -4.2 -6.95 -4.4 -8.15 -7.7 -8.15 -8.45 -7.95 -8.6 -7.5 -8.45 -7.45 -8.3 -7.55 -8.2 Q-7.1 -7.1 -6.0 -6.5 L-5.35 -6.15 Q-3.95 -5.45 -2.4 -5.0 L0.45 -4.55 2.5 -4.5 M0.05 -4.1 Q-3.45 -4.75 -6.55 -6.4 L-7.5 -7.25 -6.75 -4.8 -6.0 -3.75 Q-5.3 -3.15 -4.4 -2.8 L-1.85 -2.1 1.2 -1.75 1.35 -1.75 2.75 -1.75 2.3 -3.85 0.05 -4.1 M-2.8 1.6 L-1.85 2.9 -2.0 2.8 -1.1 3.35 0.35 3.55 Q0.0 2.35 0.25 1.15 L0.85 -1.1 0.8 -1.2 0.85 -1.4 -2.45 -2.1 -2.5 -2.1 -4.05 -2.45 -4.0 -1.9 -3.85 -1.15 -2.8 1.6 M0.9 -0.5 L1.35 -0.15 2.65 0.05 4.05 -0.15 3.95 -0.4 0.9 -0.5 M7.8 -3.35 L7.7 -6.15 6.95 -5.25 7.15 -2.6 7.8 -3.35 M8.35 -2.35 L8.1 -2.2 7.95 -2.05 Q7.7 -1.8 7.9 -1.45 L8.3 -1.65 8.5 -2.1 8.35 -2.35 M8.55 -1.8 L8.2 -1.25 Q8.0 -1.05 7.75 -1.25 L7.55 -1.85 8.4 -2.7 8.55 -2.5 8.55 -1.8 M5.35 1.65 L5.15 1.35 3.8 1.45 2.8 1.45 1.2 1.25 0.75 1.15 0.6 1.2 0.65 1.5 0.7 1.55 1.85 1.7 3.3 1.8 4.9 1.75 5.3 1.7 5.35 1.65 M-6.65 -1.5 L-6.75 -1.15 -6.4 -0.6 -6.1 -0.4 -5.4 0.15 Q-4.6 0.65 -3.7 0.65 L-3.65 0.45 -4.45 0.1 Q-5.3 -0.15 -5.95 -0.75 L-6.05 -0.9 -6.65 -1.5 M-5.75 -2.5 L-6.25 -2.95 -6.3 -2.5 -6.35 -2.45 -6.2 -2.3 -5.7 -1.95 -5.5 -1.75 -4.3 -1.35 -4.25 -1.55 -5.2 -2.1 -5.75 -2.5" fill="#000000" fill-rule="evenodd" stroke="none"/>
    <path d="M0.05 -4.1 L2.3 -3.85 2.75 -1.75 1.35 -1.75 1.2 -1.75 -1.85 -2.1 -4.4 -2.8 Q-5.3 -3.15 -6.0 -3.75 L-6.75 -4.8 -7.5 -7.25 -6.55 -6.4 Q-3.45 -4.75 0.05 -4.1 M-4.0 -1.9 L-3.0 -1.5 -0.1 -0.95 0.45 -0.85 Q0.0 0.3 -0.15 1.55 L-0.25 2.4 -2.8 1.6 -3.85 -1.15 -4.0 -1.9 M7.8 -3.35 L7.15 -2.6 6.95 -5.25 7.7 -6.15 7.8 -3.35" fill="#836b45" fill-rule="evenodd" stroke="none"/>
    <path d="M-4.0 -1.9 L-4.05 -2.45 -2.5 -2.1 -2.45 -2.1 0.85 -1.4 0.8 -1.2 0.85 -1.1 0.25 1.15 Q0.0 2.35 0.35 3.55 L-1.1 3.35 -2.0 2.8 -1.85 2.9 -2.8 1.6 -0.25 2.4 -0.15 1.55 Q0.0 0.3 0.45 -0.85 L-0.1 -0.95 -3.0 -1.5 -4.0 -1.9 M0.9 -0.5 L3.95 -0.4 4.05 -0.15 2.65 0.05 1.35 -0.15 0.9 -0.5 M8.35 -2.35 L8.5 -2.1 8.3 -1.65 7.9 -1.45 Q7.7 -1.8 7.95 -2.05 L8.1 -2.2 8.35 -2.35 M5.35 1.65 L5.3 1.7 4.9 1.75 3.3 1.8 1.85 1.7 0.7 1.55 0.65 1.5 0.6 1.2 0.75 1.15 1.2 1.25 2.8 1.45 3.8 1.45 5.15 1.35 5.35 1.65 M-5.75 -2.5 L-5.2 -2.1 -4.25 -1.55 -4.3 -1.35 -5.5 -1.75 -5.7 -1.95 -6.2 -2.3 -6.35 -2.45 -6.3 -2.5 -6.25 -2.95 -5.75 -2.5 M-6.65 -1.5 L-6.05 -0.9 -5.95 -0.75 Q-5.3 -0.15 -4.45 0.1 L-3.65 0.45 -3.7 0.65 Q-4.6 0.65 -5.4 0.15 L-6.1 -0.4 -6.4 -0.6 -6.75 -1.15 -6.65 -1.5" fill="#594631" fill-rule="evenodd" stroke="none"/>
    <path d="M7.75 -6.7 L7.7 -7.6 8.15 -7.6 8.25 -6.85 7.75 -6.7" fill="#cccccc" fill-rule="evenodd" stroke="none"/>
    <path d="M8.35 -6.5 L8.7 -4.1 8.7 -4.05 8.55 -3.95 8.5 -3.9 8.35 -3.95 7.9 -6.05 7.95 -6.4 8.35 -6.5" fill="#999999" fill-rule="evenodd" stroke="none"/>
  </g>
</svg>
