<?xml version="1.0" encoding="UTF-8" standalone="no"?>
<svg xmlns:ffdec="https://www.free-decompiler.com/flash" xmlns:xlink="http://www.w3.org/1999/xlink" ffdec:objectType="shape" height="19.95px" width="60.0px" xmlns="http://www.w3.org/2000/svg">
  <g transform="matrix(1.0, 0.0, 0.0, 1.0, 30.0, 4.95)">
    <path d="M0.0 15.0 L-30.0 5.0 0.0 -4.95 30.0 5.0 0.0 15.0" fill="#999999" fill-rule="evenodd" stroke="none"/>
    <path d="M18.25 3.9 L19.0 4.1 -2.9 11.4 -3.55 11.25 -18.95 5.75 -10.95 2.65 3.3 -1.95 18.25 3.9 M-21.05 5.95 L-2.65 12.6 21.7 4.1 2.8 -3.15 -21.8 5.5 -21.05 5.95" fill="#000000" fill-rule="evenodd" stroke="none"/>
    <path d="M18.25 3.9 L3.3 -1.95 -10.95 2.65 -18.95 5.75 -3.55 11.25 -2.9 11.4 19.0 4.1 18.25 3.9" fill="#f5f5f5" fill-rule="evenodd" stroke="none"/>
  </g>
</svg>
