<?xml version="1.0" encoding="UTF-8" standalone="no"?>
<svg xmlns:ffdec="https://www.free-decompiler.com/flash" xmlns:xlink="http://www.w3.org/1999/xlink" ffdec:objectType="shape" height="19.95px" width="60.0px" xmlns="http://www.w3.org/2000/svg">
  <g transform="matrix(1.0, 0.0, 0.0, 1.0, 30.0, 4.95)">
    <path d="M0.0 15.0 L-30.0 5.0 0.0 -4.95 30.0 5.0 0.0 15.0" fill="#999999" fill-rule="evenodd" stroke="none"/>
    <path d="M-17.45 3.6 L-18.2 3.8 3.7 11.1 4.35 10.95 19.75 5.45 11.75 2.35 -2.5 -2.25 -17.45 3.6 M22.6 5.2 L21.85 5.65 3.45 12.3 -20.9 3.8 -2.0 -3.45 22.6 5.2" fill="#000000" fill-rule="evenodd" stroke="none"/>
    <path d="M-17.45 3.6 L-2.5 -2.25 11.75 2.35 19.75 5.45 4.35 10.95 3.7 11.1 -18.2 3.8 -17.45 3.6" fill="#b9b9b9" fill-rule="evenodd" stroke="none"/>
  </g>
</svg>
