<?xml version="1.0" encoding="UTF-8" standalone="no"?>
<svg xmlns:ffdec="https://www.free-decompiler.com/flash" xmlns:xlink="http://www.w3.org/1999/xlink" ffdec:objectType="shape" height="19.95px" width="60.0px" xmlns="http://www.w3.org/2000/svg">
  <g transform="matrix(1.0, 0.0, 0.0, 1.0, 30.0, 4.95)">
    <path d="M0.0 15.0 L-30.0 5.0 0.0 -4.95 30.0 5.0 0.0 15.0" fill="#999999" fill-rule="evenodd" stroke="none"/>
    <path d="M12.8 0.5 Q9.1 -0.6 5.3 -1.1 -3.7 -1.55 -12.45 0.7 -14.8 1.2 -16.8 2.35 -17.95 3.05 -18.4 4.35 -16.5 8.55 -11.9 9.75 1.5 12.9 14.65 9.0 16.7 8.45 17.95 7.05 19.05 5.95 18.95 4.6 16.5 1.6 12.8 0.5 M2.7 12.2 Q-4.9 12.25 -12.15 10.15 L-17.95 7.95 -19.0 7.3 Q-20.3 6.2 -20.7 4.6 -20.45 2.95 -19.0 2.3 -6.1 -3.8 8.0 -1.65 13.85 -0.65 18.8 2.65 L20.3 3.85 20.35 6.1 Q18.4 8.7 15.25 9.45 L12.55 10.45 Q7.75 12.2 2.7 12.2" fill="#000000" fill-rule="evenodd" stroke="none"/>
    <path d="M12.8 0.5 Q16.5 1.6 18.95 4.6 19.05 5.95 17.95 7.05 16.7 8.45 14.65 9.0 1.5 12.9 -11.9 9.75 -16.5 8.55 -18.4 4.35 -17.95 3.05 -16.8 2.35 -14.8 1.2 -12.45 0.7 -3.7 -1.55 5.3 -1.1 9.1 -0.6 12.8 0.5" fill="#f5f5f5" fill-rule="evenodd" stroke="none"/>
  </g>
</svg>
