<?xml version="1.0" encoding="UTF-8" standalone="no"?>
<svg xmlns:ffdec="https://www.free-decompiler.com/flash" xmlns:xlink="http://www.w3.org/1999/xlink" ffdec:objectType="shape" height="19.95px" width="60.0px" xmlns="http://www.w3.org/2000/svg">
  <g transform="matrix(1.0, 0.0, 0.0, 1.0, 30.0, 4.95)">
    <path d="M0.0 15.0 L-30.0 5.0 0.0 -4.95 30.0 5.0 0.0 15.0" fill="#999999" fill-rule="evenodd" stroke="none"/>
    <path d="M18.15 4.0 L3.2 -1.85 -11.05 2.75 -19.05 5.85 -3.65 11.35 -3.0 11.5 18.9 4.2 18.15 4.0 M21.6 4.2 L-2.75 12.7 -21.15 6.05 -21.9 5.6 2.7 -3.05 21.6 4.2" fill="#000000" fill-rule="evenodd" stroke="none"/>
    <path d="M18.15 4.0 L18.9 4.2 -3.0 11.5 -3.65 11.35 -19.05 5.85 -11.05 2.75 3.2 -1.85 18.15 4.0" fill="#b9b9b9" fill-rule="evenodd" stroke="none"/>
  </g>
</svg>
