<?xml version="1.0" encoding="UTF-8" standalone="no"?>
<svg xmlns:ffdec="https://www.free-decompiler.com/flash" xmlns:xlink="http://www.w3.org/1999/xlink" ffdec:objectType="shape" height="19.95px" width="60.0px" xmlns="http://www.w3.org/2000/svg">
  <g transform="matrix(1.0, 0.0, 0.0, 1.0, 30.0, 4.95)">
    <path d="M0.0 15.0 L-30.0 5.0 0.0 -4.95 30.0 5.0 0.0 15.0" fill="#888888" fill-rule="evenodd" stroke="none"/>
    <path d="M-2.0 3.9 Q-3.25 3.45 -3.85 2.35 L-4.3 1.5 Q-10.15 6.4 -17.65 4.4 L-17.55 3.6 -12.0 3.8 -11.6 4.15 Q-8.4 0.95 -4.05 -0.8 -1.75 0.75 -0.65 3.35 L-0.95 4.0 -2.0 3.9 M4.2 1.95 L3.1 2.6 Q1.8 2.45 0.7 1.55 -0.75 0.4 -1.55 -1.35 L-0.95 -2.1 0.5 -1.25 Q2.65 0.0 4.2 1.95 M10.45 3.05 L15.6 4.25 17.2 4.9 17.2 5.9 13.7 5.8 Q11.7 5.0 10.4 3.3 L10.45 3.05 M8.35 -1.05 L9.3 -1.0 9.65 0.0 7.2 1.95 7.9 2.75 7.35 4.05 4.8 4.85 9.95 6.6 10.15 7.7 8.7 7.85 7.05 7.7 8.1 8.7 7.5 9.7 Q3.95 9.05 1.25 6.85 L2.3 6.15 4.2 6.45 2.9 5.25 -2.95 6.75 -3.4 7.2 -1.6 9.4 -2.7 10.95 -4.0 10.35 Q-5.3 9.55 -5.85 7.95 L-10.95 7.55 -10.2 6.65 Q-8.85 5.55 -6.95 5.95 L-6.85 4.65 -5.1 4.8 -5.05 5.3 -4.25 6.2 -3.6 6.2 -3.6 5.7 4.85 2.4 Q6.15 0.2 8.35 -1.05" fill="#000000" fill-rule="evenodd" stroke="none"/>
  </g>
</svg>
