<?xml version="1.0" encoding="UTF-8" standalone="no"?>
<svg xmlns:ffdec="https://www.free-decompiler.com/flash" xmlns:xlink="http://www.w3.org/1999/xlink" ffdec:objectType="shape" height="19.95px" width="60.0px" xmlns="http://www.w3.org/2000/svg">
  <g transform="matrix(1.0, 0.0, 0.0, 1.0, 30.0, 4.95)">
    <path d="M0.0 15.0 L-30.0 5.0 0.0 -4.95 30.0 5.0 0.0 15.0" fill="#333333" fill-rule="evenodd" stroke="none"/>
    <path d="M7.15 0.4 L5.55 2.45 -4.45 2.5 -1.15 8.55 5.25 8.35 Q7.7 9.1 9.55 7.45 L6.25 2.25 9.3 5.15 11.9 2.5 7.15 0.4 M1.35 -3.85 L1.4 -3.8 Q0.55 -1.05 -1.5 1.25 L4.6 2.05 7.9 -2.05 7.55 -0.15 22.9 5.15 19.0 4.8 18.9 5.0 18.35 4.95 13.75 2.95 9.75 5.7 11.6 8.85 10.35 8.25 Q8.7 10.7 5.7 9.95 L-0.85 9.6 -0.7 12.65 -3.1 6.45 -8.15 9.2 -3.4 5.85 -5.25 2.45 -11.65 1.85 -14.95 4.75 -12.2 9.45 -12.35 9.6 Q-14.05 8.3 -15.45 6.45 -17.3 3.95 -19.2 4.1 -19.95 4.95 -21.1 5.1 L-21.75 5.15 -22.4 5.15 Q-23.3 5.35 -23.3 4.65 L-20.15 3.7 -18.6 1.9 -17.75 2.55 -18.3 2.9 -18.3 2.95 -16.65 3.6 -15.25 4.4 Q-13.0 2.35 -11.75 -0.3 L-11.65 -0.4 Q-11.2 -1.4 -10.35 -0.75 L-10.6 0.75 -2.35 1.15 0.9 -4.2 1.35 -3.85" fill="#006633" fill-rule="evenodd" stroke="none"/>
  </g>
</svg>
