<?xml version="1.0" encoding="UTF-8" standalone="no"?>
<svg xmlns:ffdec="https://www.free-decompiler.com/flash" xmlns:xlink="http://www.w3.org/1999/xlink" ffdec:objectType="shape" height="10.95px" width="19.0px" xmlns="http://www.w3.org/2000/svg">
  <g transform="matrix(1.0, 0.0, 0.0, 1.0, 8.9, 7.75)">
    <path d="M7.9 -3.15 Q8.6 -3.6 9.1 -4.3 L9.35 -4.8 9.3 -5.75 8.8 -6.6 7.8 -7.4 8.05 -5.65 8.05 -5.6 8.0 -5.45 7.85 -4.9 7.1 -4.1 7.0 -3.95 6.9 -3.35 7.1 -2.7 7.35 -2.7 7.75 -3.05 7.8 -3.0 7.9 -3.15 M7.45 -7.7 Q8.35 -7.4 9.1 -6.7 9.8 -6.1 9.9 -5.15 L10.1 -3.4 10.1 -1.7 9.95 -1.3 9.2 -0.35 8.95 -0.1 8.9 -0.15 Q7.6 -0.95 6.95 -2.25 L6.85 -2.4 6.85 -2.55 6.75 -3.25 6.75 -3.85 6.8 -4.05 7.3 -4.65 7.55 -5.25 7.45 -7.6 7.45 -7.7 M0.6 -1.4 L3.0 -1.5 2.85 -1.8 2.45 -2.3 2.3 -2.3 1.0 -2.4 0.6 -2.25 0.4 -1.9 0.2 -1.6 0.15 -1.15 0.25 0.05 0.65 1.45 0.7 1.55 0.75 1.6 1.05 1.3 2.8 1.35 4.75 1.1 4.25 0.4 4.25 0.3 4.25 0.25 4.2 0.2 4.2 0.15 4.05 0.0 3.95 -0.15 3.95 -0.2 3.95 -0.3 3.1 -1.3 0.55 -1.3 0.6 -1.4 M0.3 3.15 L0.3 3.2 -1.65 2.75 Q-2.15 2.5 -2.6 2.3 L-3.15 1.95 -3.7 1.5 -4.0 1.3 -4.6 1.15 -4.95 1.2 -5.3 1.1 -5.65 0.95 -6.3 0.15 -6.65 -0.1 Q-7.55 -0.55 -8.1 -1.35 L-8.35 -1.8 -8.5 -2.85 -8.85 -5.15 -8.9 -5.5 -8.8 -5.85 -8.65 -6.4 -8.6 -6.5 -7.95 -7.4 -7.3 -7.75 -7.25 -7.6 Q-7.2 -6.45 -6.6 -5.4 L-5.95 -4.6 -5.1 -3.95 -4.2 -3.85 -3.8 -3.95 -2.65 -3.45 0.5 -2.95 0.8 -2.8 2.6 -2.75 2.9 -2.65 3.25 -2.1 3.65 -1.4 5.25 1.35 5.0 1.4 3.35 1.65 0.9 1.8 0.9 2.35 0.8 2.6 0.8 2.35 0.75 2.35 0.7 2.65 0.6 2.65 0.55 2.7 0.4 2.95 0.4 3.05 0.3 3.15 M9.4 -4.15 L9.0 -3.5 8.65 -3.2 7.35 -2.35 8.1 -1.2 8.7 -0.65 9.4 -1.4 9.8 -2.1 9.8 -2.5 9.8 -4.35 9.65 -4.6 9.4 -4.15 M-5.4 -1.05 L-5.55 -0.9 -5.55 0.5 -5.3 0.8 -5.1 0.85 -3.3 0.8 -2.0 0.95 -0.75 1.45 -0.2 1.6 0.2 1.4 0.2 1.1 -0.3 -0.15 -0.5 -1.05 0.0 -1.95 0.05 -2.5 0.0 -2.45 -1.05 -2.75 -2.1 -2.9 -3.9 -3.35 -4.7 -3.1 -5.15 -2.6 -5.3 -2.3 -5.4 -1.05 M0.35 2.65 L0.4 2.6 0.45 2.05 -2.05 1.3 -3.25 1.15 -3.35 1.2 -3.25 1.4 -2.75 1.7 -1.9 2.15 -0.3 2.8 0.35 2.65 M-8.6 -4.95 L-8.3 -3.95 -8.4 -3.9 -8.0 -1.75 -7.8 -1.5 -7.05 -0.9 -6.6 -0.65 -5.95 -0.35 -6.0 -0.45 -5.95 -0.5 -5.9 -0.85 -5.95 -0.95 -5.75 -2.3 -6.5 -2.85 Q-7.4 -3.55 -7.95 -4.45 L-8.1 -4.65 -8.5 -5.0 -8.6 -4.95 M-7.6 -7.3 Q-8.2 -7.05 -8.4 -6.45 -8.7 -5.6 -8.1 -4.9 L-5.7 -2.7 -5.25 -3.35 -5.15 -3.55 -5.95 -4.35 -6.45 -4.9 Q-7.2 -5.8 -7.4 -6.95 L-7.35 -7.05 -7.6 -7.3" fill="#1c2139" fill-rule="evenodd" stroke="none"/>
    <path d="M8.05 -5.6 L8.05 -5.65 7.8 -7.4 8.8 -6.6 9.3 -5.75 9.35 -4.8 9.1 -4.3 Q8.6 -3.6 7.9 -3.15 L8.0 -3.65 8.05 -5.6" fill="#8f98c9" fill-rule="evenodd" stroke="none"/>
    <path d="M8.05 -5.6 L8.0 -3.65 7.9 -3.15 7.8 -3.0 7.75 -3.05 7.35 -2.7 7.1 -2.7 6.9 -3.35 7.0 -3.95 7.1 -4.1 7.85 -4.9 8.0 -5.45 8.05 -5.6 M1.0 -2.4 L2.3 -2.3 2.45 -2.3 2.85 -1.8 3.0 -1.5 0.6 -1.4 0.9 -1.85 1.0 -2.4 M0.55 -1.3 L3.1 -1.3 3.95 -0.3 3.95 -0.2 3.95 -0.15 4.05 0.0 4.2 0.15 4.2 0.2 4.25 0.25 4.25 0.3 4.25 0.4 4.75 1.1 2.8 1.35 1.05 1.3 0.5 -1.15 0.55 -1.3 M9.4 -4.15 L9.65 -4.6 9.8 -4.35 9.8 -2.5 9.8 -2.1 9.4 -1.4 8.7 -0.65 8.1 -1.2 7.35 -2.35 8.65 -3.2 9.0 -3.5 9.4 -4.15 M-5.4 -1.05 L-5.3 -2.3 -5.15 -2.6 -4.7 -3.1 -3.9 -3.35 -2.1 -2.9 -1.05 -2.75 0.0 -2.45 -0.25 -2.0 -0.35 -1.75 -0.65 -1.05 Q-0.85 -0.3 -0.65 0.55 L-2.0 0.3 -4.55 0.2 -4.85 0.15 Q-5.55 -0.2 -5.4 -1.0 L-5.4 -1.05 M-7.6 -7.3 L-7.35 -7.05 -7.4 -6.95 Q-7.2 -5.8 -6.45 -4.9 L-5.95 -4.35 -5.15 -3.55 -5.25 -3.35 -5.7 -2.7 -8.1 -4.9 Q-8.7 -5.6 -8.4 -6.45 -8.2 -7.05 -7.6 -7.3 M-8.6 -4.95 L-8.5 -5.0 -8.1 -4.65 -7.95 -4.45 Q-7.4 -3.55 -6.5 -2.85 L-5.75 -2.3 -5.95 -0.95 -5.9 -0.85 -5.95 -0.5 -6.0 -0.45 -5.95 -0.35 -6.6 -0.65 -7.05 -0.9 -7.8 -1.5 -8.0 -1.75 -8.4 -3.9 -8.3 -3.95 -8.6 -4.95" fill="#343d69" fill-rule="evenodd" stroke="none"/>
    <path d="M0.6 -1.4 L0.55 -1.3 0.5 -1.15 1.05 1.3 0.75 1.6 0.7 1.55 0.65 1.45 0.25 0.05 0.15 -1.15 0.2 -1.6 0.4 -1.9 0.6 -2.25 1.0 -2.4 0.9 -1.85 0.6 -1.4 M0.3 3.15 L0.4 3.05 0.4 2.95 0.55 2.7 0.6 2.65 0.7 2.65 0.75 2.35 0.8 2.35 0.8 2.6 0.55 3.05 0.45 3.2 0.35 3.2 0.3 3.15 M0.0 -2.45 L0.05 -2.5 0.0 -1.95 -0.5 -1.05 -0.3 -0.15 0.2 1.1 0.2 1.4 -0.2 1.6 -0.75 1.45 -2.0 0.95 -3.3 0.8 -5.1 0.85 -5.3 0.8 -5.55 0.5 -5.55 -0.9 -5.4 -1.05 -5.4 -1.0 Q-5.55 -0.2 -4.85 0.15 L-4.55 0.2 -2.0 0.3 -0.65 0.55 Q-0.85 -0.3 -0.65 -1.05 L-0.35 -1.75 -0.25 -2.0 0.0 -2.45 M0.35 2.65 L-0.3 2.8 -1.9 2.15 -2.75 1.7 -3.25 1.4 -3.35 1.2 -3.25 1.15 -2.05 1.3 0.45 2.05 0.4 2.6 0.35 2.65" fill="#282f51" fill-rule="evenodd" stroke="none"/>
  </g>
</svg>
