<?xml version="1.0" encoding="UTF-8" standalone="no"?>
<svg xmlns:ffdec="https://www.free-decompiler.com/flash" xmlns:xlink="http://www.w3.org/1999/xlink" ffdec:objectType="shape" height="14.8px" width="21.75px" xmlns="http://www.w3.org/2000/svg">
  <g transform="matrix(1.0, 0.0, 0.0, 1.0, 7.9, 10.5)">
    <path d="M7.9 -9.9 L7.65 -10.05 7.45 -9.9 7.2 -9.9 7.5 -8.3 8.35 -9.65 8.35 -9.8 7.9 -9.9 M6.9 -3.75 L6.85 -4.0 6.85 -4.1 6.85 -4.15 7.65 -4.75 6.65 -10.4 6.8 -10.4 7.0 -10.45 7.75 -10.35 7.85 -10.5 8.3 -10.3 8.45 -10.35 8.75 -10.2 8.9 -10.45 9.05 -10.5 9.55 -10.15 9.9 -9.7 10.8 -8.15 11.05 -8.05 12.15 -8.4 12.15 -8.1 11.85 -8.0 11.1 -7.6 12.15 -4.45 12.7 -4.85 13.2 -5.4 Q13.7 -6.3 13.4 -7.35 L13.75 -7.35 Q13.95 -6.25 13.65 -5.05 L13.25 -3.95 13.0 -4.1 12.95 -4.55 13.05 -4.7 13.0 -4.2 13.2 -4.1 13.25 -4.2 Q13.45 -4.55 13.25 -4.9 L13.55 -5.25 13.45 -5.3 Q12.7 -4.95 12.25 -4.25 L13.15 -3.7 13.25 -3.8 13.3 -3.35 12.0 -1.35 11.9 -1.4 11.85 -0.95 11.75 -0.9 11.5 -0.15 11.35 -0.05 11.25 -0.05 11.1 0.35 Q10.95 0.45 10.75 0.6 L10.55 0.5 10.1 0.65 8.95 -0.1 Q8.2 -0.5 7.85 -1.25 L7.65 -1.65 8.1 -1.8 8.1 -1.35 8.8 -1.95 9.0 -1.75 9.15 -1.95 9.25 -1.85 9.5 -2.1 9.6 -2.1 9.8 -1.45 10.15 -2.15 10.25 -2.0 10.65 -2.45 10.8 -2.2 11.25 -3.4 11.4 -3.45 11.6 -3.9 11.75 -4.7 11.45 -6.15 11.45 -6.4 11.05 -7.15 10.05 -9.05 9.85 -8.95 10.05 -7.15 10.0 -6.9 9.35 -6.4 9.3 -6.75 9.25 -8.15 9.45 -8.45 9.75 -8.25 9.75 -8.35 9.75 -8.55 9.75 -8.8 Q9.65 -9.3 9.2 -9.5 L9.1 -9.4 7.7 -7.4 7.65 -7.4 7.95 -4.7 7.55 -4.4 7.0 -3.85 6.9 -3.75 M4.2 -0.3 L4.7 0.3 5.0 0.75 5.2 1.2 5.35 1.3 5.75 2.3 5.8 2.45 5.35 2.6 5.15 2.55 5.1 2.55 4.55 2.65 4.5 2.65 4.0 2.7 3.5 2.85 3.15 3.05 2.95 3.0 2.5 3.05 1.95 3.25 1.8 3.2 1.8 3.15 1.55 3.25 1.5 3.25 1.15 3.35 0.9 3.4 0.6 3.35 0.2 3.2 0.0 3.25 -0.25 3.55 -0.4 3.4 -0.75 3.7 -0.8 3.85 -1.0 3.9 -1.1 4.05 -1.35 4.15 -1.55 4.25 -1.65 4.3 -1.75 4.25 -2.0 4.15 -2.25 4.3 -2.45 4.2 -2.65 4.3 -3.0 4.15 -3.2 4.25 -3.45 4.05 -3.85 4.05 -3.9 3.9 -4.05 3.9 -4.15 3.7 -4.4 3.6 -4.5 3.4 -4.65 3.25 -4.65 3.1 -4.85 2.9 -4.85 2.2 -5.05 2.0 -5.1 1.9 -5.25 1.85 -5.35 1.8 -5.45 1.7 -5.55 1.65 -5.8 1.25 -5.95 1.25 -6.1 1.2 -6.2 1.15 -6.35 1.05 -6.7 0.7 -6.8 0.7 -7.2 0.3 -7.2 0.25 -7.25 0.15 -7.3 0.05 -7.35 0.0 -7.55 -0.05 -7.9 -0.65 -7.8 -0.9 -7.7 -0.95 -7.85 -1.45 -7.7 -1.7 -7.8 -1.85 -7.65 -3.0 -7.3 -3.35 -7.25 -3.9 -7.05 -4.1 -7.05 -4.2 -7.05 -4.3 -7.05 -4.45 -6.65 -4.85 Q-6.3 -4.95 -6.1 -4.55 L-6.1 -4.45 -6.0 -4.4 -5.8 -4.1 -5.7 -4.0 Q-5.2 -3.55 -4.5 -3.35 L-4.25 -3.25 -4.05 -3.05 -3.85 -3.1 -3.65 -3.0 -3.45 -2.95 -3.3 -2.9 -2.75 -2.85 -2.35 -3.0 -1.85 -2.8 -0.85 -2.6 0.35 -2.7 1.05 -2.6 1.4 -2.95 2.75 -3.15 2.85 -2.75 2.8 -2.85 2.7 -2.95 2.25 -2.75 2.1 -2.7 1.45 -2.65 Q1.15 -2.35 0.7 -2.35 L0.65 -2.35 0.15 -2.5 -1.05 -2.35 -1.35 -2.5 -1.85 -2.45 -2.05 -2.55 -2.15 -2.55 -2.65 -2.55 -2.75 -2.6 -3.25 -2.6 -3.4 -2.7 -3.5 -2.75 -4.2 -2.8 -4.25 -2.9 -4.65 -3.05 -5.55 -3.45 -6.05 -3.8 -6.1 -4.05 -6.35 -4.2 -6.35 -4.4 -6.55 -4.5 -6.8 -4.2 -6.65 -3.95 -6.95 -3.65 -6.95 -3.55 -7.15 -3.35 -7.05 -3.15 -7.5 -2.25 -7.45 -2.15 -7.45 -1.35 -7.35 -1.3 -7.4 -1.2 -7.25 -1.0 -7.15 -0.95 -7.05 -0.65 -6.9 -0.6 -6.1 0.3 -5.7 0.55 -5.45 0.6 -5.35 0.7 -5.05 0.8 -4.95 0.95 -4.75 0.9 -4.65 0.8 -4.55 0.7 -4.45 0.5 -3.8 0.0 -3.2 -0.3 -2.95 -0.25 -2.7 -0.3 -2.5 -0.2 -2.85 -0.05 Q-3.6 -0.05 -4.1 0.55 L-4.15 0.65 -4.4 1.35 -4.35 1.5 -4.4 1.8 -4.2 1.85 -4.1 2.15 -3.7 2.65 -3.4 2.7 -3.25 2.9 -3.05 2.8 -2.2 3.05 -2.0 2.85 -1.65 2.9 -1.5 2.65 -1.0 2.55 -0.85 2.15 -0.95 1.6 -0.75 1.4 0.1 2.25 0.6 2.3 1.0 2.15 1.25 2.2 2.0 2.0 2.1 1.9 2.5 1.95 2.8 1.7 3.25 1.65 3.85 1.35 4.0 1.05 4.1 0.95 4.45 0.85 4.45 0.65 4.65 0.45 4.2 -0.3 M12.75 -3.1 L12.95 -3.55 12.4 -3.95 12.25 -3.9 12.05 -2.85 12.2 -2.75 Q12.55 -2.85 12.75 -3.1 M-2.35 -0.05 L-2.4 -0.15 -2.35 -0.15 Q-2.15 -0.1 -2.35 -0.05" fill="#594631" fill-rule="evenodd" stroke="none"/>
    <path d="M12.15 -8.1 L13.4 -7.35 Q13.7 -6.3 13.2 -5.4 L12.7 -4.85 12.15 -4.45 11.1 -7.6 11.85 -8.0 12.15 -8.1 M12.75 -3.1 Q12.55 -2.85 12.2 -2.75 L12.05 -2.85 12.25 -3.9 12.4 -3.95 12.95 -3.55 12.75 -3.1" fill="#cdb8a5" fill-rule="evenodd" stroke="none"/>
    <path d="M7.9 -9.9 L8.35 -9.8 8.35 -9.65 7.5 -8.3 7.2 -9.9 7.45 -9.9 7.65 -10.05 7.9 -9.9 M7.65 -1.65 L6.9 -3.75 7.0 -3.85 7.55 -4.4 7.95 -4.7 7.65 -7.4 7.7 -7.4 9.1 -9.4 9.2 -9.5 Q9.65 -9.3 9.75 -8.8 L9.75 -8.55 9.75 -8.35 9.75 -8.25 9.45 -8.45 9.25 -8.15 9.3 -6.75 9.35 -6.4 10.0 -6.9 10.05 -7.15 9.85 -8.95 10.05 -9.05 11.05 -7.15 10.8 -7.05 Q10.75 -6.65 10.95 -6.3 11.1 -6.0 11.4 -5.95 L11.45 -6.15 11.75 -4.7 11.6 -3.9 11.4 -3.45 11.25 -3.4 10.8 -2.2 10.65 -2.45 10.25 -2.0 10.15 -2.15 9.8 -1.45 9.6 -2.1 9.5 -2.1 9.25 -1.85 9.15 -1.95 9.0 -1.75 8.8 -1.95 8.1 -1.35 8.1 -1.8 7.65 -1.65 M4.2 -0.3 L4.65 0.45 4.45 0.65 4.45 0.85 4.1 0.95 4.0 1.05 3.85 1.35 3.25 1.65 2.8 1.7 2.5 1.95 2.1 1.9 2.0 2.0 1.25 2.2 1.0 2.15 0.6 2.3 0.1 2.25 -0.75 1.4 -0.95 1.6 -0.85 2.15 -1.0 2.55 -1.5 2.65 -1.65 2.9 -2.0 2.85 -2.2 3.05 -3.05 2.8 -3.25 2.9 -3.4 2.7 -3.7 2.65 -4.1 2.15 -4.2 1.85 -4.4 1.8 -4.35 1.5 -4.4 1.35 -4.15 0.65 -4.1 0.55 Q-3.6 -0.05 -2.85 -0.05 L-2.5 -0.2 -2.7 -0.3 -2.95 -0.25 -3.2 -0.3 -3.8 0.0 -4.45 0.5 -4.55 0.7 -4.65 0.8 -4.75 0.9 -4.95 0.95 -5.05 0.8 -5.35 0.7 -5.45 0.6 -5.7 0.55 -6.1 0.3 -6.9 -0.6 -7.05 -0.65 -7.15 -0.95 -7.25 -1.0 -7.4 -1.2 -7.35 -1.3 -7.45 -1.35 -7.45 -2.15 -7.5 -2.25 -7.05 -3.15 -7.15 -3.35 -6.95 -3.55 -6.95 -3.65 -6.65 -3.95 -6.8 -4.2 -6.55 -4.5 -6.35 -4.4 -6.35 -4.2 -6.1 -4.05 -6.05 -3.8 -5.55 -3.45 -4.65 -3.05 -4.25 -2.9 -4.2 -2.8 -3.5 -2.75 -3.4 -2.7 -3.25 -2.6 -2.75 -2.6 -2.65 -2.55 -2.15 -2.55 -2.05 -2.55 -1.85 -2.45 -1.35 -2.5 -1.05 -2.35 0.15 -2.5 0.65 -2.35 0.7 -2.35 Q1.15 -2.35 1.45 -2.65 L2.1 -2.7 2.25 -2.75 2.7 -2.95 2.8 -2.85 2.85 -2.75 2.9 -2.55 3.5 -1.35 4.2 -0.3 M-2.35 -0.05 Q-2.15 -0.1 -2.35 -0.15 L-2.4 -0.15 -2.35 -0.05" fill="#9b7857" fill-rule="evenodd" stroke="none"/>
    <path d="M13.05 -4.7 L13.25 -4.9 Q13.45 -4.55 13.25 -4.2 L13.2 -4.1 13.0 -4.2 13.05 -4.7" fill="#ffffff" fill-rule="evenodd" stroke="none"/>
    <path d="M13.25 -3.95 L13.25 -3.8 13.15 -3.7 12.25 -4.25 Q12.7 -4.95 13.45 -5.3 L13.55 -5.25 13.25 -4.9 13.05 -4.7 12.95 -4.55 13.0 -4.1 13.25 -3.95" fill="#990000" fill-rule="evenodd" stroke="none"/>
    <path d="M12.15 -8.4 Q12.5 -8.6 12.95 -8.4 13.4 -8.2 13.7 -7.8 L13.75 -7.35 13.4 -7.35 12.15 -8.1 12.15 -8.4 M11.05 -7.15 L11.45 -6.4 11.45 -6.15 11.4 -5.95 Q11.1 -6.0 10.95 -6.3 10.75 -6.65 10.8 -7.05 L11.05 -7.15" fill="#000000" fill-rule="evenodd" stroke="none"/>
  </g>
</svg>
