<?xml version="1.0" encoding="UTF-8" standalone="no"?>
<svg xmlns:ffdec="https://www.free-decompiler.com/flash" xmlns:xlink="http://www.w3.org/1999/xlink" ffdec:objectType="shape" height="19.95px" width="60.0px" xmlns="http://www.w3.org/2000/svg">
  <g transform="matrix(1.0, 0.0, 0.0, 1.0, 30.0, 4.95)">
    <path d="M0.0 15.0 L-30.0 5.0 0.0 -4.95 30.0 5.0 0.0 15.0" fill="#646464" fill-rule="evenodd" stroke="none"/>
    <path d="M18.25 4.05 L19.0 4.25 -2.9 11.55 -3.55 11.4 -18.95 5.9 -10.95 2.8 3.3 -1.8 18.25 4.05" fill="#ff0000" fill-rule="evenodd" stroke="none"/>
    <path d="M18.25 4.05 L3.3 -1.8 -10.95 2.8 -18.95 5.9 -3.55 11.4 -2.9 11.55 19.0 4.25 18.25 4.05 M21.7 4.25 L-2.65 12.75 -21.05 6.1 -21.8 5.65 2.8 -3.0 21.7 4.25" fill="#fcfc1b" fill-rule="evenodd" stroke="none"/>
  </g>
</svg>
