<?xml version="1.0" encoding="UTF-8" standalone="no"?>
<svg xmlns:ffdec="https://www.free-decompiler.com/flash" xmlns:xlink="http://www.w3.org/1999/xlink" ffdec:objectType="shape" height="19.95px" width="60.0px" xmlns="http://www.w3.org/2000/svg">
  <g transform="matrix(1.0, 0.0, 0.0, 1.0, 30.0, 4.95)">
    <path d="M0.0 15.0 L-30.0 5.0 0.0 -4.95 30.0 5.0 0.0 15.0" fill="#646464" fill-rule="evenodd" stroke="none"/>
    <path d="M18.7 4.2 L19.45 4.4 -2.45 11.7 -3.1 11.55 -18.5 6.05 -10.5 2.95 3.75 -1.65 18.7 4.2 M-21.35 5.8 L-20.6 6.25 -2.2 12.9 22.15 4.4 3.25 -2.85 -21.35 5.8" fill="#fcfc1b" fill-rule="evenodd" stroke="none"/>
    <path d="M18.7 4.2 L3.75 -1.65 -10.5 2.95 -18.5 6.05 -3.1 11.55 -2.45 11.7 19.45 4.4 18.7 4.2" fill="#ff0000" fill-rule="evenodd" stroke="none"/>
    <path d="M-2.8 9.85 L13.2 4.35 3.7 0.25 -12.3 5.95 -12.15 6.0 -2.8 9.85" fill="#cccccc" fill-rule="evenodd" stroke="none"/>
  </g>
</svg>
