<?xml version="1.0" encoding="UTF-8" standalone="no"?>
<svg xmlns:ffdec="https://www.free-decompiler.com/flash" xmlns:xlink="http://www.w3.org/1999/xlink" ffdec:objectType="shape" height="19.95px" width="60.0px" xmlns="http://www.w3.org/2000/svg">
  <g transform="matrix(1.0, 0.0, 0.0, 1.0, 30.0, 4.95)">
    <path d="M0.0 15.0 L-30.0 5.0 0.0 -4.95 30.0 5.0 0.0 15.0" fill="#d2b87b" fill-rule="evenodd" stroke="none"/>
    <path d="M0.15 4.1 Q-3.1 4.1 -2.05 0.95 -1.7 0.0 -0.8 -0.1 3.05 0.1 1.55 3.25 1.15 4.1 0.15 4.1" fill="#cccccc" fill-rule="evenodd" stroke="none"/>
    <path d="M-11.25 8.55 Q-12.55 7.95 -12.75 6.9 -14.1 0.05 -5.45 -0.9 -0.45 -1.4 4.5 -0.85 9.35 -0.2 12.5 3.15 15.75 6.7 11.9 8.5 0.4 13.85 -11.25 8.55 M0.15 4.1 Q1.15 4.1 1.55 3.25 3.05 0.1 -0.8 -0.1 -1.7 0.0 -2.05 0.95 -3.1 4.1 0.15 4.1" fill="#51432f" fill-rule="evenodd" stroke="none"/>
  </g>
</svg>
