<?xml version="1.0" encoding="UTF-8" standalone="no"?>
<svg xmlns:ffdec="https://www.free-decompiler.com/flash" xmlns:xlink="http://www.w3.org/1999/xlink" ffdec:objectType="shape" height="19.95px" width="60.0px" xmlns="http://www.w3.org/2000/svg">
  <g transform="matrix(1.0, 0.0, 0.0, 1.0, 30.0, 4.95)">
    <path d="M0.0 15.0 L-30.0 5.0 0.0 -4.95 30.0 5.0 0.0 15.0" fill="#888888" fill-rule="evenodd" stroke="none"/>
    <path d="M-2.85 -0.15 Q-1.25 2.0 1.15 1.05 2.0 0.65 2.4 -0.25 5.35 0.6 7.3 3.0 7.5 3.35 7.15 3.9 L6.3 5.05 6.05 5.3 6.2 9.15 6.2 12.3 -6.15 11.95 -6.05 5.35 -7.2 4.25 -7.15 3.9 Q-6.25 0.75 -2.85 -0.15" fill="#333333" fill-rule="evenodd" stroke="none"/>
    <path d="M-2.85 -0.15 Q-2.85 -1.65 -2.1 -2.75 -1.35 -3.85 -0.25 -3.9 0.85 -3.95 1.65 -2.85 2.45 -1.8 2.4 -0.25 2.0 0.65 1.15 1.05 -1.25 2.0 -2.85 -0.15" fill="#fafafa" fill-rule="evenodd" stroke="none"/>
  </g>
</svg>
