<?xml version="1.0" encoding="UTF-8" standalone="no"?>
<svg xmlns:ffdec="https://www.free-decompiler.com/flash" xmlns:xlink="http://www.w3.org/1999/xlink" ffdec:objectType="shape" height="19.95px" width="60.0px" xmlns="http://www.w3.org/2000/svg">
  <g transform="matrix(1.0, 0.0, 0.0, 1.0, 30.0, 4.95)">
    <path d="M0.0 15.0 L-30.0 5.0 0.0 -4.95 30.0 5.0 0.0 15.0" fill="#666666" fill-rule="evenodd" stroke="none"/>
    <path d="M-1.9 11.0 Q-9.1 11.25 -15.2 8.6 -16.3 8.1 -17.15 6.9 -18.2 5.35 -17.25 3.7 -16.55 2.4 -15.3 1.55 -10.2 -1.65 -3.7 -1.45 L2.75 -1.55 Q7.65 -1.1 12.25 0.5 16.25 1.75 16.85 5.4 17.05 6.3 16.75 7.2 L15.65 8.45 Q11.25 11.0 5.8 11.0 L-1.9 11.0" fill="#000000" fill-rule="evenodd" stroke="none"/>
    <path d="M7.45 8.75 L7.6 9.0 7.25 9.2 6.4 9.3 2.6 6.95 7.45 8.75 M6.5 3.3 L5.9 3.65 3.85 3.3 5.15 2.7 6.1 2.9 6.5 3.3 M1.25 5.55 L0.5 4.25 8.2 6.6 9.55 6.1 9.0 5.8 8.35 5.85 8.15 6.25 7.4 6.15 7.15 5.35 7.9 5.2 9.9 5.55 Q11.3 6.25 9.4 6.85 L8.7 6.95 Q5.55 7.15 3.2 6.05 L1.4 7.95 2.05 9.6 1.35 10.5 0.95 9.45 1.35 8.05 0.2 9.25 -0.25 9.25 -1.6 8.0 -1.45 9.15 -0.55 10.3 -1.3 10.4 -2.55 8.85 -1.7 7.9 -3.7 6.0 -6.95 7.05 -8.4 7.2 -11.4 6.85 Q-12.4 6.6 -12.15 6.3 -11.9 5.95 -10.55 5.8 L-7.85 5.65 -7.55 5.85 -7.85 6.2 -8.85 6.45 -9.3 6.1 -10.7 6.45 -7.8 6.55 -6.85 6.35 -0.85 4.35 -1.7 5.7 -0.1 6.7 1.25 5.55 M7.75 1.0 L9.9 -0.05 10.05 1.35 9.6 1.55 8.6 1.9 8.25 2.0 4.7 2.3 3.65 2.3 -0.45 4.35 -3.7 2.55 -7.85 2.25 -8.75 1.95 -9.5 1.9 -10.4 1.55 -10.85 1.0 Q-10.85 0.65 -10.4 0.45 L-9.3 0.2 -8.45 0.4 -8.2 0.5 -7.5 1.6 -6.95 1.65 -4.05 1.85 -4.65 1.35 -4.2 1.05 -0.25 3.6 3.5 0.95 4.0 1.2 3.45 1.85 7.9 1.5 7.95 1.45 7.75 1.0 M-5.1 3.1 L-5.45 3.45 -6.45 3.55 -7.35 3.45 -7.8 3.1 Q-7.8 2.9 -7.35 2.75 L-6.45 2.6 -5.45 2.75 Q-5.1 2.9 -5.1 3.1 M-3.45 7.05 L-6.3 8.9 -7.2 9.15 -8.15 8.5 -3.9 6.9 -3.45 7.05" fill="#cc0000" fill-rule="evenodd" stroke="none"/>
  </g>
</svg>
