<?xml version="1.0" encoding="UTF-8" standalone="no"?>
<svg xmlns:ffdec="https://www.free-decompiler.com/flash" xmlns:xlink="http://www.w3.org/1999/xlink" ffdec:objectType="shape" height="19.45px" width="35.65px" xmlns="http://www.w3.org/2000/svg">
  <g transform="matrix(1.0, 0.0, 0.0, 1.0, 17.1, 12.3)">
    <path d="M7.75 -5.3 L7.6 -5.85 7.6 -6.0 7.6 -6.25 7.5 -6.3 7.5 -6.4 7.45 -6.45 7.2 -8.35 8.05 -8.15 8.1 -8.1 8.15 -8.15 Q9.15 -10.35 10.5 -12.3 L10.7 -12.05 9.8 -7.5 14.85 -4.9 15.2 -5.1 16.2 -4.95 17.7 -3.9 17.85 -3.8 18.0 -3.7 18.35 -3.3 18.55 -2.75 18.3 -1.25 17.9 -0.75 17.75 -1.0 17.8 -1.2 18.05 -1.7 Q18.3 -2.5 17.95 -3.25 L17.1 -3.65 16.65 -3.65 16.55 -2.35 16.35 -2.2 16.1 -2.5 16.2 -2.95 16.1 -3.65 16.3 -3.75 16.25 -3.8 16.4 -3.9 16.1 -4.4 15.5 -4.9 15.3 -4.8 15.05 -4.55 15.0 -4.15 15.5 -3.9 15.05 -4.05 15.3 -3.7 15.05 -2.8 14.85 -2.9 14.85 -3.3 14.9 -3.55 14.95 -4.05 14.75 -4.1 14.6 -4.15 13.8 -4.3 13.5 -2.95 13.15 -3.05 13.25 -3.7 13.35 -4.25 13.4 -4.45 13.0 -4.55 12.55 -4.2 11.95 -3.25 12.0 -3.0 Q11.0 -3.5 10.35 -4.45 L12.5 -4.3 12.7 -4.65 12.4 -4.95 Q11.6 -5.7 10.65 -6.05 L11.4 -5.8 11.9 -5.55 12.1 -5.6 12.1 -5.9 11.95 -6.0 10.85 -6.85 9.95 -7.2 10.05 -6.65 Q10.2 -5.95 9.85 -5.3 L9.25 -4.8 9.05 -4.4 9.5 -3.75 9.15 -3.05 9.35 -2.75 9.55 -2.1 9.7 -1.75 9.65 -1.8 8.85 -1.65 9.1 -1.05 9.2 -0.1 11.0 0.35 Q12.25 0.75 13.35 -0.25 L13.95 -0.5 16.2 -0.3 17.15 -0.4 17.4 -0.6 17.55 -0.35 17.2 0.7 17.15 0.85 17.1 1.0 17.0 1.2 16.9 1.25 16.75 1.4 16.45 0.95 15.9 1.25 14.55 1.6 13.25 1.9 10.25 2.55 10.45 2.1 11.25 1.9 15.5 1.05 15.9 0.9 15.75 0.8 15.65 0.35 15.15 0.7 14.85 0.2 14.45 0.55 14.15 0.1 13.15 0.8 13.1 0.35 Q12.3 0.85 11.4 0.8 L10.7 0.65 9.95 0.6 9.0 -0.1 8.9 -0.2 9.0 -0.4 8.4 -1.65 9.1 -2.2 9.05 -2.6 8.4 -2.8 9.15 -3.45 9.1 -4.0 8.7 -4.05 8.8 -4.45 8.65 -4.8 8.5 -4.7 7.9 -4.15 7.8 -4.4 7.8 -4.85 8.05 -4.6 Q8.35 -5.05 8.75 -5.0 L8.85 -5.0 9.75 -5.9 10.0 -6.7 9.75 -6.9 9.4 -6.0 8.35 -5.7 8.15 -5.8 7.75 -5.3 M7.75 -8.05 L7.75 -8.1 7.45 -8.2 7.7 -7.05 8.05 -8.05 7.75 -8.05 M10.4 -11.9 L10.35 -11.85 Q9.1 -9.9 8.15 -7.65 L8.05 -7.4 7.9 -6.4 7.95 -6.2 8.1 -6.1 8.45 -5.95 Q9.0 -5.9 9.2 -6.55 L10.4 -11.9 M0.15 -0.3 L0.75 -0.3 1.6 -1.0 1.75 -0.85 1.9 -0.6 3.15 -0.7 3.1 -0.4 Q2.75 0.0 2.3 0.0 L2.7 0.6 3.6 0.4 3.65 0.6 3.2 0.9 Q2.5 1.15 2.2 0.6 2.0 0.65 1.9 0.8 1.55 1.2 1.05 1.25 0.55 1.25 0.45 0.75 L0.45 0.4 0.15 0.85 -0.25 1.0 -0.35 0.8 0.4 0.1 0.25 0.1 Q-0.25 -0.05 -0.4 -0.6 L-0.75 -0.4 Q-1.65 -0.05 -2.05 -0.85 L-2.75 -0.55 -2.75 -0.2 -1.75 -0.2 -1.3 -0.05 Q-0.45 0.5 -0.25 1.6 L0.35 1.65 Q2.45 1.5 4.4 0.75 3.35 -0.35 2.95 -1.8 0.2 -0.95 -2.55 -1.85 L-4.55 -2.7 Q-5.75 -3.3 -6.4 -4.35 L-6.55 -4.25 -6.45 -3.2 Q-6.4 -2.25 -5.8 -1.55 L-5.75 -1.9 -5.85 -1.95 Q-6.55 -2.55 -6.0 -3.4 L-5.9 -3.2 -5.75 -2.25 Q-5.55 -2.1 -5.3 -2.25 L-5.05 -2.5 -4.9 -2.35 -4.9 -2.15 -4.7 -1.7 -4.15 -1.6 Q-3.75 -1.7 -3.4 -1.95 L-3.05 -1.25 Q-2.5 -0.65 -1.9 -1.35 L-1.45 -0.65 -1.4 -0.65 Q-0.75 -0.55 -0.35 -1.1 L0.15 -0.3 M1.5 -0.45 L0.75 0.2 1.0 0.95 2.25 0.0 1.5 -0.45 M3.1 -2.25 L3.25 -1.9 3.45 -1.5 3.55 -1.35 3.55 -1.3 4.0 -0.7 4.25 -0.4 4.6 0.2 4.65 0.25 4.95 0.8 4.95 0.85 4.9 0.85 4.95 0.9 Q3.3 1.7 1.45 1.85 L1.35 1.85 1.0 1.95 Q0.55 2.25 0.3 2.85 L0.25 2.95 Q0.2 3.1 0.0 3.05 L-0.05 3.05 Q-1.85 3.9 -3.25 5.35 L-3.9 5.95 Q-4.8 6.5 -5.8 6.85 L-7.55 7.15 Q-9.1 7.15 -10.2 6.05 L-12.55 3.45 -13.4 2.65 Q-15.05 1.6 -17.0 1.7 L-17.1 1.5 Q-16.25 1.1 -15.2 1.05 -13.6 1.0 -12.2 1.9 L-9.15 3.95 -8.2 4.25 Q-6.75 4.25 -6.05 3.0 L-4.9 1.4 -4.0 0.55 -4.05 0.5 -4.3 0.4 -5.55 -0.45 -5.8 -0.7 -6.55 -1.6 -6.8 -1.9 -6.8 -1.95 -6.65 -2.5 -6.7 -2.85 -6.85 -4.7 -6.6 -4.8 Q-6.2 -4.8 -6.0 -4.4 L-5.9 -4.15 Q-4.0 -2.6 -1.5 -2.15 L1.75 -2.05 3.05 -2.2 3.05 -2.25 3.1 -2.25 M13.7 -5.0 L13.65 -5.05 13.55 -5.2 Q13.1 -5.75 12.55 -5.5 12.5 -5.4 12.6 -5.25 12.9 -4.8 13.45 -4.7 L13.7 -5.0 M14.75 -4.2 L14.9 -4.25 14.95 -4.5 13.95 -5.05 13.9 -4.85 Q14.1 -4.25 14.75 -4.2 M12.2 -4.1 L12.25 -4.15 12.2 -4.1 10.95 -4.1 11.8 -3.45 12.2 -4.1 M14.45 -0.25 L14.65 0.15 15.1 -0.25 14.45 -0.25 M15.3 -0.15 L15.4 0.45 15.85 0.0 15.3 -0.15 M16.7 0.95 L16.75 1.15 17.25 -0.15 16.7 0.2 Q16.5 0.5 16.65 0.85 L16.7 0.95 M15.95 0.6 L16.25 0.2 16.0 0.3 15.95 0.6 M13.35 0.4 L13.85 0.2 14.2 -0.25 13.25 0.15 13.35 0.4 M-5.15 -2.0 L-5.5 -1.85 -5.4 -1.2 -4.5 -0.55 -4.6 -1.2 -4.8 -1.3 -4.9 -1.35 -4.95 -1.45 -5.1 -1.7 -5.15 -2.0 M-4.15 -0.55 L-3.4 -0.9 -3.6 -1.4 -4.45 -1.2 -4.15 -0.55 M-4.2 -0.3 L-3.35 0.15 -2.85 -0.15 -3.05 -0.7 -3.2 -0.75 Q-3.5 -0.35 -4.05 -0.3 L-4.2 -0.3 M-1.1 0.45 L-1.3 0.9 -1.15 1.25 -0.65 1.75 -0.55 1.95 -1.45 1.4 Q-2.3 1.85 -2.35 2.75 L-2.35 3.0 -1.65 3.45 -1.8 3.55 -2.4 3.4 -2.65 3.15 -2.65 2.8 -2.35 2.05 -3.35 2.1 Q-3.75 1.9 -3.75 1.45 L-4.3 1.7 -4.45 1.6 -3.9 1.15 -3.65 0.9 Q-3.35 0.55 -2.9 0.45 L-3.15 0.9 -3.45 1.65 -2.3 1.8 Q-1.45 1.35 -1.15 0.35 L-1.55 -0.1 Q-2.65 -0.3 -3.5 0.55 L-4.15 1.15 -6.05 3.4 Q-7.05 4.75 -8.7 4.4 L-10.05 3.85 Q-9.75 4.55 -9.05 4.85 -9.85 4.95 -10.05 4.15 L-10.05 3.85 -11.05 3.05 -11.25 3.0 -11.0 3.5 -10.4 4.05 -10.35 4.2 -11.25 3.5 -11.3 2.9 -11.1 2.9 Q-13.4 0.7 -16.45 1.45 -14.6 1.65 -12.9 2.55 L-12.75 2.4 -12.95 2.2 -13.0 2.15 -13.0 2.0 -12.95 1.85 -12.3 2.6 -12.65 2.5 -12.75 2.7 -11.85 3.6 -11.7 3.25 -12.1 2.9 -12.25 2.4 -12.2 2.35 -11.95 2.35 -11.9 2.4 -11.9 2.5 -12.1 2.5 -11.45 3.4 -11.45 3.45 -11.55 3.4 -11.65 3.75 -11.65 3.8 -10.8 5.2 Q-9.7 6.65 -7.9 6.85 L-5.65 6.55 Q-4.45 6.0 -3.55 5.05 -2.3 3.7 -0.55 3.05 L-0.2 2.7 -0.1 1.95 -0.4 1.8 -0.7 0.95 -1.1 0.45 M-3.75 2.6 Q-4.25 3.1 -4.35 3.9 -3.55 4.05 -2.95 3.5 L-3.65 4.55 -3.7 4.8 -3.85 5.15 Q-4.2 5.0 -4.0 4.6 L-3.85 4.3 -3.8 4.2 -4.5 4.1 -4.6 3.95 -4.65 3.5 Q-4.9 3.8 -5.35 3.9 L-5.7 3.85 -5.8 3.6 -5.6 3.45 -5.4 3.6 Q-4.55 3.35 -4.05 2.55 L-3.5 2.15 -3.75 2.6 M-9.85 5.55 L-10.3 5.45 Q-10.9 5.05 -10.85 4.4 L-10.8 4.2 -10.1 4.3 -10.7 4.3 Q-10.65 5.05 -10.0 5.45 L-9.85 5.55 M-9.45 5.45 L-8.6 5.35 -8.5 5.45 -9.3 5.55 -8.55 6.45 -8.05 6.65 Q-9.15 6.8 -9.4 5.75 L-9.45 5.45 M-7.95 4.75 L-7.95 4.55 -7.45 4.7 -6.9 4.6 -6.5 4.1 -5.95 3.9 -6.3 4.15 -6.65 4.75 -6.65 4.9 Q-5.8 5.15 -5.05 4.55 L-4.6 4.45 -5.95 5.5 -6.2 5.9 -6.25 6.35 -5.9 6.5 -6.2 6.65 Q-6.6 6.5 -6.5 6.05 -6.45 5.45 -5.9 5.25 L-6.35 5.3 -6.85 5.1 -6.9 4.75 -8.5 5.05 Q-7.7 5.65 -6.7 5.65 -7.9 5.95 -8.75 5.05 L-7.95 4.75 M-13.9 1.7 L-13.85 1.5 -13.2 2.0 -13.9 1.7" fill="#152d16" fill-rule="evenodd" stroke="none"/>
    <path d="M17.9 -0.75 L18.0 -0.6 18.0 -0.45 Q18.55 1.4 17.85 3.15 L17.65 3.5 16.45 4.4 15.55 4.45 14.9 4.35 Q14.1 4.25 13.5 4.7 12.85 5.05 12.35 5.55 L11.2 6.4 9.85 6.75 9.85 6.7 11.15 6.25 11.4 6.1 12.05 5.45 Q12.45 4.75 13.2 4.45 L14.25 4.15 14.8 4.05 15.85 4.0 16.95 3.75 17.4 3.3 17.7 2.45 17.7 0.75 17.6 -0.1 17.55 -0.35 17.4 -0.6 17.15 -0.4 16.2 -0.3 13.95 -0.5 13.35 -0.25 Q12.25 0.75 11.0 0.35 L9.2 -0.1 9.1 -1.05 9.15 -1.05 10.4 -1.15 9.7 -1.75 9.55 -2.1 9.35 -2.75 10.2 -2.2 10.6 -1.9 11.0 -1.75 14.85 -1.45 15.9 -1.1 Q16.6 -0.65 17.25 -0.85 L17.15 -1.05 Q16.85 -1.2 16.95 -1.4 L17.1 -1.6 17.3 -1.65 Q17.6 -1.45 17.5 -1.25 L17.7 -1.1 17.8 -1.2 17.75 -1.0 17.9 -0.75 M10.45 2.1 L10.5 1.5 10.45 1.3 9.95 0.6 10.7 0.65 11.4 0.8 Q12.3 0.85 13.1 0.35 L13.15 0.8 14.15 0.1 14.45 0.55 14.85 0.2 15.15 0.7 15.65 0.35 15.75 0.8 15.9 0.9 15.5 1.05 11.25 1.9 10.45 2.1 M8.9 -0.2 L8.8 -0.2 8.75 -0.25 8.25 -0.7 8.25 -0.8 8.2 -1.85 7.9 -4.05 7.9 -4.15 8.5 -4.7 8.65 -4.8 8.8 -4.45 8.7 -4.05 9.1 -4.0 9.15 -3.45 8.4 -2.8 9.05 -2.6 9.1 -2.2 8.4 -1.65 9.0 -0.4 8.9 -0.2 M0.15 -0.3 L-0.35 -1.1 Q-0.75 -0.55 -1.4 -0.65 L-1.45 -0.65 -1.9 -1.35 Q-2.5 -0.65 -3.05 -1.25 L-3.4 -1.95 Q-3.75 -1.7 -4.15 -1.6 L-4.7 -1.7 -4.9 -2.15 -4.9 -2.35 -5.05 -2.5 -5.3 -2.25 Q-5.55 -2.1 -5.75 -2.25 L-5.9 -3.2 -6.0 -3.4 Q-6.55 -2.55 -5.85 -1.95 L-5.75 -1.9 -5.8 -1.55 Q-6.4 -2.25 -6.45 -3.2 L-6.55 -4.25 -6.4 -4.35 Q-5.75 -3.3 -4.55 -2.7 L-2.55 -1.85 Q0.2 -0.95 2.95 -1.8 3.35 -0.35 4.4 0.75 2.45 1.5 0.35 1.65 L-0.25 1.6 Q-0.45 0.5 -1.3 -0.05 L-1.75 -0.2 -2.75 -0.2 -2.75 -0.55 -2.05 -0.85 Q-1.65 -0.05 -0.75 -0.4 L-0.4 -0.6 Q-0.25 -0.05 0.25 0.1 L0.4 0.1 -0.35 0.8 -0.25 1.0 0.15 0.85 0.45 0.4 0.45 0.75 Q0.55 1.25 1.05 1.25 1.55 1.2 1.9 0.8 2.0 0.65 2.2 0.6 2.5 1.15 3.2 0.9 L3.65 0.6 3.6 0.4 2.7 0.6 2.3 0.0 Q2.75 0.0 3.1 -0.4 L3.15 -0.7 1.9 -0.6 1.75 -0.85 1.6 -1.0 0.75 -0.3 0.15 -0.3 M1.5 -0.45 L2.25 0.0 1.0 0.95 0.75 0.2 1.5 -0.45 M-13.9 1.7 L-13.2 2.0 -13.85 1.5 -13.9 1.7 M-7.95 4.75 L-8.75 5.05 Q-7.9 5.95 -6.7 5.65 -7.7 5.65 -8.5 5.05 L-6.9 4.75 -6.85 5.1 -6.35 5.3 -5.9 5.25 Q-6.45 5.45 -6.5 6.05 -6.6 6.5 -6.2 6.65 L-5.9 6.5 -6.25 6.35 -6.2 5.9 -5.95 5.5 -4.6 4.45 -5.05 4.55 Q-5.8 5.15 -6.65 4.9 L-6.65 4.75 -6.3 4.15 -5.95 3.9 -6.5 4.1 -6.9 4.6 -7.45 4.7 -7.95 4.55 -7.95 4.75 M-9.45 5.45 L-9.4 5.75 Q-9.15 6.8 -8.05 6.65 L-8.55 6.45 -9.3 5.55 -8.5 5.45 -8.6 5.35 -9.45 5.45 M-9.85 5.55 L-10.0 5.45 Q-10.65 5.05 -10.7 4.3 L-10.1 4.3 -10.8 4.2 -10.85 4.4 Q-10.9 5.05 -10.3 5.45 L-9.85 5.55 M-3.75 2.6 L-3.5 2.15 -4.05 2.55 Q-4.55 3.35 -5.4 3.6 L-5.6 3.45 -5.8 3.6 -5.7 3.85 -5.35 3.9 Q-4.9 3.8 -4.65 3.5 L-4.6 3.95 -4.5 4.1 -3.8 4.2 -3.85 4.3 -4.0 4.6 Q-4.2 5.0 -3.85 5.15 L-3.7 4.8 -3.65 4.55 -2.95 3.5 Q-3.55 4.05 -4.35 3.9 -4.25 3.1 -3.75 2.6 M-1.1 0.45 L-0.7 0.95 -0.4 1.8 -0.1 1.95 -0.2 2.7 -0.55 3.05 Q-2.3 3.7 -3.55 5.05 -4.45 6.0 -5.65 6.55 L-7.9 6.85 Q-9.7 6.65 -10.8 5.2 L-11.65 3.8 -11.65 3.75 -11.55 3.4 -11.45 3.45 -11.45 3.4 -12.1 2.5 -11.9 2.5 -11.9 2.4 -11.95 2.35 -12.2 2.35 -12.25 2.4 -12.1 2.9 -11.7 3.25 -11.85 3.6 -12.75 2.7 -12.65 2.5 -12.3 2.6 -12.95 1.85 -13.0 2.0 -13.0 2.15 -12.95 2.2 -12.75 2.4 -12.9 2.55 Q-14.6 1.65 -16.45 1.45 -13.4 0.7 -11.1 2.9 L-11.3 2.9 -11.25 3.5 -10.35 4.2 -10.4 4.05 -11.0 3.5 -11.25 3.0 -11.05 3.05 -10.05 3.85 -10.05 4.15 Q-9.85 4.95 -9.05 4.85 -9.75 4.55 -10.05 3.85 L-8.7 4.4 Q-7.05 4.75 -6.05 3.4 L-4.15 1.15 -3.5 0.55 Q-2.65 -0.3 -1.55 -0.1 L-1.15 0.35 Q-1.45 1.35 -2.3 1.8 L-3.45 1.65 -3.15 0.9 -2.9 0.45 Q-3.35 0.55 -3.65 0.9 L-3.9 1.15 -4.45 1.6 -4.3 1.7 -3.75 1.45 Q-3.75 1.9 -3.35 2.1 L-2.35 2.05 -2.65 2.8 -2.65 3.15 -2.4 3.4 -1.8 3.55 -1.65 3.45 -2.35 3.0 -2.35 2.75 Q-2.3 1.85 -1.45 1.4 L-0.55 1.95 -0.65 1.75 -1.15 1.25 -1.3 0.9 -1.1 0.45 M-4.2 -0.3 L-4.05 -0.3 Q-3.5 -0.35 -3.2 -0.75 L-3.05 -0.7 -2.85 -0.15 -3.35 0.15 -4.2 -0.3 M-4.15 -0.55 L-4.45 -1.2 -3.6 -1.4 -3.4 -0.9 -4.15 -0.55 M-5.15 -2.0 L-5.1 -1.7 -4.95 -1.45 -4.9 -1.35 -4.8 -1.3 -4.6 -1.2 -4.5 -0.55 -5.4 -1.2 -5.5 -1.85 -5.15 -2.0" fill="#01653f" fill-rule="evenodd" stroke="none"/>
    <path d="M7.8 -4.85 L7.75 -5.3 8.15 -5.8 8.35 -5.7 9.4 -6.0 9.75 -6.9 10.0 -6.7 9.75 -5.9 8.85 -5.0 8.75 -5.0 Q8.35 -5.05 8.05 -4.6 L7.8 -4.85 M7.75 -8.05 L8.05 -8.05 7.7 -7.05 7.45 -8.2 7.75 -8.1 7.75 -8.05 M9.35 -2.75 L9.15 -3.05 9.5 -3.75 9.05 -4.4 9.25 -4.8 9.85 -5.3 Q10.2 -5.95 10.05 -6.65 L9.95 -7.2 10.85 -6.85 10.6 -6.6 11.4 -5.8 10.65 -6.05 Q11.6 -5.7 12.4 -4.95 L12.7 -4.65 12.5 -4.3 10.35 -4.45 Q11.0 -3.5 12.0 -3.0 L11.95 -3.25 12.55 -4.2 13.0 -4.55 13.4 -4.45 13.35 -4.25 13.25 -4.4 13.0 -4.35 12.65 -3.6 Q12.5 -3.2 12.65 -2.8 L12.95 -2.8 13.25 -3.7 13.15 -3.05 13.5 -2.95 13.8 -4.3 14.6 -4.15 14.4 -4.05 14.25 -3.85 Q13.9 -3.2 14.35 -2.7 L14.85 -3.3 14.85 -2.9 15.05 -2.8 15.3 -3.7 15.05 -4.05 15.5 -3.9 15.0 -4.15 15.05 -4.55 15.3 -4.8 Q15.2 -4.5 15.45 -4.35 L15.95 -3.85 16.15 -4.0 16.1 -4.4 16.4 -3.9 16.25 -3.8 16.3 -3.75 16.1 -3.65 15.95 -3.85 15.7 -3.65 Q15.1 -3.0 15.65 -2.35 L15.9 -2.35 16.2 -2.95 16.1 -2.5 16.35 -2.2 16.55 -2.35 16.65 -3.65 17.1 -3.65 16.7 -3.45 16.75 -3.2 17.75 -2.65 18.05 -2.9 17.95 -3.25 Q18.3 -2.5 18.05 -1.7 L17.8 -1.2 17.7 -1.1 17.5 -1.25 Q17.6 -1.45 17.3 -1.65 L17.1 -1.6 16.95 -1.4 Q16.85 -1.2 17.15 -1.05 L17.25 -0.85 Q16.6 -0.65 15.9 -1.1 L14.85 -1.45 11.0 -1.75 10.6 -1.9 10.2 -2.2 9.35 -2.75 M12.4 -4.95 L10.6 -5.45 10.45 -4.9 12.25 -4.45 12.4 -4.95 M11.95 -6.0 L12.1 -5.9 12.1 -5.6 11.9 -5.55 12.05 -5.75 11.95 -6.0 M9.1 -1.05 L8.85 -1.65 9.65 -1.8 9.7 -1.75 10.4 -1.15 9.15 -1.05 9.1 -1.05 M14.75 -4.1 L14.95 -4.05 14.9 -3.55 14.75 -4.1" fill="#3e7d40" fill-rule="evenodd" stroke="none"/>
    <path d="M12.2 -4.1 L11.8 -3.45 10.95 -4.1 12.2 -4.1" fill="#ff3399" fill-rule="evenodd" stroke="none"/>
    <path d="M17.95 -3.25 L18.05 -2.9 17.75 -2.65 16.75 -3.2 16.7 -3.45 17.1 -3.65 17.95 -3.25 M16.2 -2.95 L15.9 -2.35 15.65 -2.35 Q15.1 -3.0 15.7 -3.65 L15.95 -3.85 16.1 -3.65 16.2 -2.95 M16.1 -4.4 L16.15 -4.0 15.95 -3.85 15.45 -4.35 Q15.2 -4.5 15.3 -4.8 L15.5 -4.9 16.1 -4.4 M14.85 -3.3 L14.35 -2.7 Q13.9 -3.2 14.25 -3.85 L14.4 -4.05 14.6 -4.15 14.75 -4.1 14.9 -3.55 14.85 -3.3 M13.25 -3.7 L12.95 -2.8 12.65 -2.8 Q12.5 -3.2 12.65 -3.6 L13.0 -4.35 13.25 -4.4 13.35 -4.25 13.25 -3.7 M12.4 -4.95 L12.25 -4.45 10.45 -4.9 10.6 -5.45 12.4 -4.95 M11.4 -5.8 L10.6 -6.6 10.85 -6.85 11.95 -6.0 12.05 -5.75 11.9 -5.55 11.4 -5.8 M13.7 -5.0 L13.45 -4.7 Q12.9 -4.8 12.6 -5.25 12.5 -5.4 12.55 -5.5 13.1 -5.75 13.55 -5.2 L13.65 -5.05 13.7 -5.0 M14.75 -4.2 Q14.1 -4.25 13.9 -4.85 L13.95 -5.05 14.95 -4.5 14.9 -4.25 14.75 -4.2" fill="#89c589" fill-rule="evenodd" stroke="none"/>
    <path d="M10.4 -11.9 L9.2 -6.55 Q9.0 -5.9 8.45 -5.95 L8.1 -6.1 10.4 -11.9 M14.45 -0.25 L15.1 -0.25 14.65 0.15 14.45 -0.25 M15.3 -0.15 L15.85 0.0 15.4 0.45 15.3 -0.15 M16.7 0.95 L16.65 0.85 Q16.5 0.5 16.7 0.2 L17.25 -0.15 16.75 1.15 16.7 0.95 M13.35 0.4 L13.25 0.15 14.2 -0.25 13.85 0.2 13.35 0.4 M15.95 0.6 L16.0 0.3 16.25 0.2 15.95 0.6" fill="#ffffff" fill-rule="evenodd" stroke="none"/>
    <path d="M8.1 -6.1 L7.95 -6.2 7.9 -6.4 8.05 -7.4 8.15 -7.65 Q9.1 -9.9 10.35 -11.85 L10.4 -11.9 8.1 -6.1" fill="#cccccc" fill-rule="evenodd" stroke="none"/>
  </g>
</svg>
