<?xml version="1.0" encoding="UTF-8" standalone="no"?>
<svg xmlns:ffdec="https://www.free-decompiler.com/flash" xmlns:xlink="http://www.w3.org/1999/xlink" ffdec:objectType="shape" height="19.95px" width="60.0px" xmlns="http://www.w3.org/2000/svg">
  <g transform="matrix(1.0, 0.0, 0.0, 1.0, 30.0, 4.95)">
    <path d="M0.0 15.0 L-30.0 5.0 0.0 -4.95 30.0 5.0 0.0 15.0" fill="#d5e1e6" fill-rule="evenodd" stroke="none"/>
    <path d="M8.6 -0.9 Q11.65 0.0 13.7 2.95 L14.3 3.95 Q13.95 8.15 10.25 9.75 7.8 10.9 5.15 11.6 -3.5 13.35 -11.4 9.5 -14.2 5.55 -11.65 1.85 -9.6 -1.1 -5.95 -1.7 1.3 -3.1 8.6 -0.9 M8.95 9.3 Q12.5 7.5 12.5 4.95 12.5 2.4 8.95 0.65 5.4 -1.15 0.35 -1.15 -4.7 -1.15 -8.25 0.65 -11.8 2.4 -11.8 4.95 -11.8 7.5 -8.25 9.3 -4.7 11.05 0.35 11.05 5.4 11.05 8.95 9.3" fill="#627173" fill-rule="evenodd" stroke="none"/>
    <path d="M8.95 9.3 Q5.4 11.05 0.35 11.05 -4.7 11.05 -8.25 9.3 -11.8 7.5 -11.8 4.95 -11.8 2.4 -8.25 0.65 -4.7 -1.15 0.35 -1.15 5.4 -1.15 8.95 0.65 12.5 2.4 12.5 4.95 12.5 7.5 8.95 9.3" fill="#b4c0c5" fill-rule="evenodd" stroke="none"/>
  </g>
</svg>
