<?xml version="1.0" encoding="UTF-8" standalone="no"?>
<svg xmlns:ffdec="https://www.free-decompiler.com/flash" xmlns:xlink="http://www.w3.org/1999/xlink" ffdec:objectType="shape" height="10.1px" width="21.9px" xmlns="http://www.w3.org/2000/svg">
  <g transform="matrix(1.0, 0.0, 0.0, 1.0, 7.25, 5.25)">
    <path d="M0.05 -2.2 L2.05 -2.15 2.65 -2.15 3.0 -2.15 Q3.15 -1.65 3.65 -1.05 L4.8 0.55 5.4 1.55 5.7 2.3 5.8 2.5 6.25 3.5 6.55 3.95 6.85 4.45 3.8 4.8 1.35 3.95 0.3 3.4 Q0.2 3.2 -0.1 3.15 L-2.5 2.85 -5.0 2.3 -5.8 1.8 -6.75 0.95 -7.2 -0.2 -7.25 -0.6 -7.15 -1.45 -6.95 -2.35 -6.85 -2.95 -6.75 -3.65 -6.8 -3.75 -7.05 -4.6 Q-7.15 -5.1 -6.75 -5.25 L-6.5 -5.2 -6.45 -5.1 -5.25 -3.9 -5.05 -3.8 -4.15 -3.25 -4.1 -3.2 -4.05 -3.2 -3.3 -2.85 -2.5 -2.65 -0.2 -2.2 0.05 -2.2 M8.15 -4.55 L8.65 -4.25 Q9.45 -4.9 10.5 -5.2 L10.75 -5.0 10.85 -4.8 11.15 -4.45 Q11.95 -3.5 13.0 -2.9 L14.45 -2.15 14.65 -1.8 14.35 -1.2 12.25 -1.3 12.4 -0.55 11.5 -0.2 10.1 -0.65 Q10.35 0.0 9.8 0.2 L9.5 0.25 9.0 0.0 Q7.25 -1.2 7.0 -3.45 L7.45 -3.8 8.15 -4.55" fill="#ffffff" fill-rule="evenodd" stroke="none"/>
  </g>
</svg>
