<?xml version="1.0" encoding="UTF-8" standalone="no"?>
<svg xmlns:ffdec="https://www.free-decompiler.com/flash" xmlns:xlink="http://www.w3.org/1999/xlink" ffdec:objectType="shape" height="19.95px" width="60.0px" xmlns="http://www.w3.org/2000/svg">
  <g transform="matrix(1.0, 0.0, 0.0, 1.0, 30.0, 4.95)">
    <path d="M0.0 15.0 L-30.0 5.0 0.0 -4.95 30.0 5.0 0.0 15.0" fill="#d5e1e6" fill-rule="evenodd" stroke="none"/>
    <path d="M9.55 8.65 L12.9 7.5 -2.3 2.25 -5.7 3.4 9.55 8.65 M0.95 -2.65 L0.85 -2.6 -2.1 -1.55 -2.05 -1.55 18.55 5.55 21.55 4.55 21.8 4.55 21.9 4.7 21.9 4.9 21.75 5.05 18.65 6.1 13.85 7.75 5.3 10.7 5.25 10.75 1.5 12.05 1.4 12.1 0.6 12.35 0.4 12.35 -20.85 4.95 -20.9 4.9 -20.95 4.9 -21.1 4.85 -21.15 4.5 -20.9 4.4 -20.8 4.4 0.15 -2.95 0.95 -2.65 M13.7 7.25 L17.7 5.85 -2.1 -1.0 -1.95 1.85 13.7 7.25 M5.2 10.2 L8.7 8.95 -5.85 3.95 -5.7 6.45 5.2 10.2 M-6.1 3.35 L-2.55 1.85 -2.5 -1.4 -20.0 4.65 -10.05 8.15 -6.2 6.25 -6.1 3.35 M-6.1 6.85 L-8.95 7.95 1.35 11.5 4.35 10.45 -6.1 6.85" fill="#627173" fill-rule="evenodd" stroke="none"/>
    <path d="M5.2 10.2 L-5.7 6.45 -5.85 3.95 8.7 8.95 5.2 10.2 M13.7 7.25 L-1.95 1.85 -2.1 -1.0 17.7 5.85 13.7 7.25 M-6.1 3.35 L-6.2 6.25 -10.05 8.15 -20.0 4.65 -2.5 -1.4 -2.55 1.85 -6.1 3.35" fill="#b4c0c5" fill-rule="evenodd" stroke="none"/>
  </g>
</svg>
