<?xml version="1.0" encoding="UTF-8" standalone="no"?>
<svg xmlns:ffdec="https://www.free-decompiler.com/flash" xmlns:xlink="http://www.w3.org/1999/xlink" ffdec:objectType="shape" height="19.95px" width="60.0px" xmlns="http://www.w3.org/2000/svg">
  <g transform="matrix(1.0, 0.0, 0.0, 1.0, 30.0, 4.95)">
    <path d="M0.0 15.0 L-30.0 5.0 0.0 -4.95 30.0 5.0 0.0 15.0" fill="#d5e1e6" fill-rule="evenodd" stroke="none"/>
    <path d="M-3.6 -0.8 L-2.15 -3.05 2.0 -3.6 16.25 1.35 16.7 1.45 16.65 1.65 16.55 1.9 16.25 1.95 12.9 2.55 11.8 4.6 8.4 5.3 7.2 7.55 3.6 8.25 2.45 10.3 -1.05 11.05 -2.05 13.05 -2.3 13.45 -2.7 13.45 -2.85 13.25 -2.9 13.3 -2.95 13.3 -3.05 13.3 -17.65 8.25 -16.5 5.75 -12.8 5.0 -11.85 3.1 -11.4 2.8 -8.05 2.15 -6.95 -0.1 -6.55 -0.35 -3.6 -0.8 M-2.6 -0.75 L-2.5 -0.7 -2.3 -0.7 11.4 4.1 12.35 2.4 -2.05 -2.6 -3.0 -0.95 -2.6 -0.75 M-3.2 -0.6 L-6.15 -0.05 7.7 4.9 7.8 4.9 11.15 4.4 -3.2 -0.6 M1.55 -3.45 L-1.35 -2.8 12.55 2.1 15.8 1.65 15.55 1.5 2.0 -3.3 1.55 -3.45 M-11.15 3.05 L3.05 8.0 6.05 7.45 5.95 7.45 6.15 7.45 5.85 7.25 -8.05 2.45 -11.15 3.05 M-12.4 5.05 Q-5.1 7.55 2.1 10.2 L2.4 9.75 3.0 8.35 -11.45 3.35 -12.4 5.05 M-2.95 12.95 L-2.75 12.95 -1.8 11.1 -16.05 6.05 -17.0 8.0 -16.85 8.05 -17.0 8.1 -3.0 12.9 -2.95 12.95 M-6.7 0.2 L-7.65 2.15 6.35 7.0 6.9 7.25 7.65 5.2 -6.7 0.2 M-15.7 5.85 L-1.8 10.65 1.45 10.25 -12.85 5.2 -15.7 5.85" fill="#627173" fill-rule="evenodd" stroke="none"/>
    <path d="M-3.2 -0.6 L11.15 4.4 7.8 4.9 7.7 4.9 -6.15 -0.05 -3.2 -0.6 M-11.15 3.05 L-8.05 2.45 5.85 7.25 6.15 7.45 5.95 7.45 6.05 7.45 3.05 8.0 -11.15 3.05 M1.55 -3.45 L2.0 -3.3 15.55 1.5 15.8 1.65 12.55 2.1 -1.35 -2.8 1.55 -3.45 M-15.7 5.85 L-12.85 5.2 1.45 10.25 -1.8 10.65 -15.7 5.85" fill="#d5e1e6" fill-rule="evenodd" stroke="none"/>
    <path d="M-2.6 -0.75 L-3.0 -0.95 -2.05 -2.6 12.35 2.4 11.4 4.1 -2.3 -0.7 -2.5 -0.7 -2.6 -0.75 M-12.4 5.05 L-11.45 3.35 3.0 8.35 2.4 9.75 2.1 10.2 Q-5.1 7.55 -12.4 5.05 M-6.7 0.2 L7.65 5.2 6.9 7.25 6.35 7.0 -7.65 2.15 -6.7 0.2 M-2.95 12.95 L-3.0 12.9 -17.0 8.1 -16.85 8.05 -17.0 8.0 -16.05 6.05 -1.8 11.1 -2.75 12.95 -2.95 12.95" fill="#b4c0c5" fill-rule="evenodd" stroke="none"/>
  </g>
</svg>
