<?xml version="1.0" encoding="UTF-8" standalone="no"?>
<svg xmlns:ffdec="https://www.free-decompiler.com/flash" xmlns:xlink="http://www.w3.org/1999/xlink" ffdec:objectType="shape" height="10.75px" width="16.0px" xmlns="http://www.w3.org/2000/svg">
  <g transform="matrix(1.0, 0.0, 0.0, 1.0, 7.4, 5.4)">
    <path d="M0.9 -2.0 L0.9 -1.95 2.5 -1.95 3.1 -2.0 3.1 -1.95 4.35 -0.15 5.1 1.05 5.3 1.35 5.5 1.85 6.05 3.1 6.7 4.15 6.2 5.35 6.15 5.35 5.5 4.45 5.1 3.8 4.45 2.15 3.75 0.05 3.45 -0.75 1.05 -0.8 0.4 -0.9 0.2 1.2 0.2 1.75 0.3 2.15 0.45 2.65 0.5 2.95 0.25 3.1 0.1 3.1 -0.35 3.0 -1.8 2.45 -2.8 1.7 -3.6 0.35 -3.8 -0.35 -4.2 -1.65 -4.4 -2.35 -4.75 -2.45 -5.0 -2.65 -5.2 -2.75 -5.8 -3.1 -6.15 -2.2 -6.6 -1.05 -6.7 -0.2 -6.75 0.5 -6.85 1.75 -6.9 1.75 -6.95 1.75 -7.35 0.2 -7.35 -1.6 -7.2 -3.2 -6.9 -5.05 -6.65 -5.4 -6.55 -5.35 Q-6.55 -4.9 -6.2 -4.6 L-5.45 -4.05 -4.75 -3.6 -4.55 -3.65 -3.7 -3.35 Q-3.25 -3.05 -2.7 -2.9 L-1.6 -2.6 0.35 -2.15 0.9 -2.0 M0.55 -1.65 L0.5 -1.3 0.6 -1.3 0.75 -1.15 3.35 -1.1 3.15 -1.65 0.7 -1.65 0.55 -1.65 M-0.35 0.9 L-0.35 0.1 -0.25 -1.25 -0.2 -1.3 -0.15 0.15 0.2 -1.1 0.15 -1.2 0.4 -1.8 0.3 -1.95 -0.4 -2.15 -1.45 -2.25 -2.9 -2.7 -3.35 -2.9 -3.7 -3.1 -4.05 -3.15 -4.1 -3.1 -4.1 -2.95 -4.0 -2.25 -3.65 -0.85 -3.6 -0.9 -3.6 -1.4 -3.4 -1.95 -3.25 -2.1 -3.4 -1.65 -3.45 -1.25 -3.4 -0.25 -3.45 -0.2 -2.9 0.75 -2.55 1.25 -2.5 1.4 -1.25 2.25 -0.95 2.35 -0.9 2.25 -0.65 2.45 -0.3 2.5 -0.15 2.55 -0.05 2.5 -0.05 2.4 -0.2 1.95 -0.35 0.9 M8.1 -2.0 L8.3 -4.2 8.25 -4.15 8.2 -4.2 8.0 -3.55 7.35 -2.75 7.6 -2.0 7.6 -1.85 7.9 -1.4 8.1 -2.0 M8.0 -4.9 L8.45 -4.6 8.6 -3.95 8.35 -2.25 8.35 -2.05 8.3 -1.55 8.3 -1.5 8.3 -1.35 8.25 -1.25 8.15 -0.9 8.1 -0.85 Q7.5 -1.7 7.2 -2.7 L7.1 -3.05 7.3 -3.25 Q7.85 -3.95 7.85 -4.8 L8.0 -4.9 M4.7 2.2 L4.95 2.75 5.35 3.5 5.95 4.45 6.15 4.05 5.95 3.45 5.5 2.4 4.9 0.95 4.85 0.9 4.65 0.5 4.15 -0.35 4.3 0.95 4.7 2.2 M-6.55 -2.25 L-5.85 -3.55 -5.75 -3.45 -4.55 -2.75 -4.55 -2.8 -4.5 -3.25 -4.55 -3.25 -4.85 -3.35 -5.5 -3.75 -6.5 -4.7 -6.7 -4.6 -7.15 -2.05 -7.25 -0.4 -7.1 -0.35 -6.55 -2.25" fill="#1d3d30" fill-rule="evenodd" stroke="none"/>
    <path d="M0.55 -1.65 L0.7 -1.65 3.15 -1.65 3.35 -1.1 0.75 -1.15 0.6 -1.3 0.5 -1.3 0.55 -1.65 M-3.4 -0.25 L-3.45 -1.25 -3.4 -1.65 -3.25 -2.1 -3.4 -1.95 -3.6 -1.4 -3.6 -0.9 -3.65 -0.85 -4.0 -2.25 -4.1 -2.95 -4.1 -3.1 -4.05 -3.15 -3.7 -3.1 -3.35 -2.9 -2.9 -2.7 -1.45 -2.25 -0.4 -2.15 0.3 -1.95 0.4 -1.8 0.15 -1.2 0.2 -1.1 -0.15 0.15 -0.2 -1.3 -0.25 -1.25 -0.35 0.1 -0.35 0.9 -0.5 0.8 -0.7 0.9 -0.75 1.0 -0.85 1.1 -0.95 1.15 -1.0 1.0 -0.85 0.8 Q-0.75 0.35 -1.15 0.2 L-1.4 0.25 -1.5 0.4 -1.6 0.7 -1.7 0.6 -1.9 0.85 -2.15 0.7 -2.05 0.35 Q-2.15 -0.15 -2.65 -0.3 L-3.0 -0.05 -3.05 0.1 -3.3 -0.25 -3.4 -0.25 M7.6 -1.85 L7.6 -2.0 7.35 -2.75 8.0 -3.55 8.2 -4.2 8.25 -4.15 8.3 -4.2 8.1 -2.0 7.9 -2.3 7.85 -2.25 7.8 -2.25 7.6 -1.85 M4.7 2.2 L4.3 0.95 4.15 -0.35 4.65 0.5 4.85 0.9 4.65 1.0 4.7 1.35 4.8 1.75 4.55 1.45 4.5 1.5 4.75 2.15 4.7 2.2 M-6.45 -3.55 L-6.5 -3.75 -6.65 -3.85 -6.8 -3.75 -6.85 -3.55 -6.8 -3.35 -6.65 -3.25 -6.5 -3.35 -6.45 -3.55 M-7.15 -2.05 L-6.7 -4.6 -6.5 -4.7 -5.5 -3.75 -4.85 -3.35 -4.55 -3.25 -4.5 -3.25 -4.55 -2.8 -4.55 -2.75 -5.75 -3.45 -5.85 -3.55 -6.55 -2.25 -6.6 -2.35 -6.35 -3.0 -6.5 -3.1 Q-7.05 -2.75 -7.05 -2.15 L-7.1 -2.15 -7.15 -2.05 M-0.95 -0.45 L-1.2 -0.35 -1.3 -0.1 -1.2 0.1 -0.95 0.2 -0.75 0.1 -0.65 -0.1 -0.75 -0.35 -0.95 -0.45 M-1.65 -0.6 L-1.85 -0.85 -2.1 -0.65 -2.1 -0.5 -2.05 -0.45 Q-1.8 -0.3 -1.65 -0.6 M-2.65 -1.1 L-2.65 -1.15 Q-2.5 -1.45 -2.8 -1.6 L-3.15 -1.0 -2.85 -0.8 -2.8 -0.85 -2.65 -1.1" fill="#637663" fill-rule="evenodd" stroke="none"/>
    <path d="M-0.35 0.9 L-0.2 1.95 -0.05 2.4 -0.05 2.5 -0.15 2.55 -0.3 2.5 -0.65 2.45 -0.9 2.25 -0.95 2.35 -1.25 2.25 -2.5 1.4 -2.55 1.25 -2.9 0.75 -3.45 -0.2 -3.4 -0.25 -3.3 -0.25 -3.05 0.1 -3.0 -0.05 -2.65 -0.3 Q-2.15 -0.15 -2.05 0.35 L-2.15 0.7 -1.9 0.85 -1.7 0.6 -1.6 0.7 -1.5 0.4 -1.4 0.25 -1.15 0.2 Q-0.75 0.35 -0.85 0.8 L-1.0 1.0 -0.95 1.15 -0.85 1.1 -0.75 1.0 -0.7 0.9 -0.5 0.8 -0.35 0.9 M7.6 -1.85 L7.8 -2.25 7.85 -2.25 7.9 -2.3 8.1 -2.0 7.9 -1.4 7.6 -1.85 M4.85 0.9 L4.9 0.95 5.5 2.4 5.95 3.45 6.15 4.05 5.95 4.45 5.35 3.5 4.95 2.75 4.7 2.2 4.75 2.15 4.5 1.5 4.55 1.45 4.8 1.75 4.7 1.35 4.65 1.0 4.85 0.9 M-6.45 -3.55 L-6.5 -3.35 -6.65 -3.25 -6.8 -3.35 -6.85 -3.55 -6.8 -3.75 -6.65 -3.85 -6.5 -3.75 -6.45 -3.55 M-7.15 -2.05 L-7.1 -2.15 -7.05 -2.15 Q-7.05 -2.75 -6.5 -3.1 L-6.35 -3.0 -6.6 -2.35 -6.55 -2.25 -7.1 -0.35 -7.25 -0.4 -7.15 -2.05 M-2.65 -1.1 L-2.8 -0.85 -2.85 -0.8 -3.15 -1.0 -2.8 -1.6 Q-2.5 -1.45 -2.65 -1.15 L-2.65 -1.1 M-1.65 -0.6 Q-1.8 -0.3 -2.05 -0.45 L-2.1 -0.5 -2.1 -0.65 -1.85 -0.85 -1.65 -0.6 M-0.95 -0.45 L-0.75 -0.35 -0.65 -0.1 -0.75 0.1 -0.95 0.2 -1.2 0.1 -1.3 -0.1 -1.2 -0.35 -0.95 -0.45" fill="#4b584b" fill-rule="evenodd" stroke="none"/>
  </g>
</svg>
