<?xml version="1.0" encoding="UTF-8" standalone="no"?>
<svg xmlns:ffdec="https://www.free-decompiler.com/flash" xmlns:xlink="http://www.w3.org/1999/xlink" ffdec:objectType="shape" height="15.55px" width="29.4px" xmlns="http://www.w3.org/2000/svg">
  <g transform="matrix(1.0, 0.0, 0.0, 1.0, 16.9, 6.65)">
    <path d="M8.9 -6.65 L9.75 -5.95 10.0 -5.45 10.7 -3.65 11.95 -0.5 Q12.5 1.15 12.5 2.9 L12.35 3.65 Q12.1 4.5 11.25 4.75 L10.65 4.2 11.1 4.3 11.6 4.1 Q11.95 3.75 11.9 3.25 L11.75 2.1 Q11.6 1.35 11.05 0.9 L10.75 0.8 10.65 1.1 10.8 2.1 Q10.85 3.15 10.3 4.0 L10.1 4.15 9.7 4.3 9.35 3.75 9.95 3.8 10.15 3.55 10.25 3.1 10.25 2.4 10.35 1.5 Q10.25 0.45 9.3 -0.1 L8.25 -0.75 8.2 -0.8 8.15 -1.25 7.85 -1.25 7.75 -1.4 7.5 -1.75 7.7 -1.8 7.75 -1.8 7.85 -1.8 8.0 -1.85 8.1 -1.85 8.1 -1.9 8.25 -2.55 8.2 -2.95 8.2 -3.1 9.55 -2.7 9.7 -3.15 9.8 -4.0 Q9.8 -5.25 9.15 -6.25 L8.9 -6.65 M3.55 -1.25 L3.7 -1.0 3.85 -0.8 3.8 -0.75 -1.6 -1.15 Q-1.65 0.6 -0.75 2.15 -0.3 3.0 0.6 3.1 L0.7 3.35 -0.3 3.35 Q-1.25 3.05 -1.7 2.15 -3.05 2.9 -3.75 4.35 L-4.45 4.95 Q-5.75 5.4 -6.9 4.65 L-7.3 4.45 Q-8.95 3.85 -10.25 4.9 L-10.55 5.2 Q-12.0 7.05 -14.45 7.4 L-13.4 8.9 Q-15.35 8.65 -16.9 7.65 -15.55 5.9 -13.65 4.8 L-14.65 6.75 Q-13.3 6.6 -12.1 5.9 L-10.7 4.85 Q-9.9 4.0 -8.75 3.85 -7.3 3.65 -5.95 4.35 L-5.65 4.45 Q-4.5 4.5 -4.0 3.45 L-3.7 2.85 Q-3.05 1.85 -2.05 1.35 L-2.4 -1.4 Q-4.25 -1.9 -5.8 -3.0 -6.45 -3.45 -6.6 -4.15 L-6.35 -4.25 Q-5.05 -3.0 -3.3 -2.35 -0.15 -1.2 3.2 -1.25 L3.55 -1.25" fill="#000000" fill-rule="evenodd" stroke="none"/>
  </g>
</svg>
