<?xml version="1.0" encoding="UTF-8" standalone="no"?>
<svg xmlns:ffdec="https://www.free-decompiler.com/flash" xmlns:xlink="http://www.w3.org/1999/xlink" ffdec:objectType="shape" height="10.95px" width="18.95px" xmlns="http://www.w3.org/2000/svg">
  <g transform="matrix(1.0, 0.0, 0.0, 1.0, 8.7, 7.35)">
    <path d="M8.2 -5.0 L8.15 -5.0 8.2 -5.2 8.2 -5.0" fill="#343d69" fill-rule="evenodd" stroke="none"/>
    <path d="M0.45 3.6 L0.55 3.5 0.55 3.4 0.75 3.1 0.85 3.1 0.95 2.8 0.95 3.0 0.6 3.6 0.45 3.6" fill="#282f51" fill-rule="evenodd" stroke="none"/>
    <path d="M0.15 -1.95 L-1.6 -2.6 -4.2 -3.25 -4.65 -3.1 Q-5.45 -1.95 -5.4 -0.55 L-5.35 -0.5 -5.35 -0.45 -3.95 -1.25 Q-2.9 -1.6 -2.3 -0.75 -1.8 -0.1 -1.95 0.7 L-2.2 1.3 -0.45 1.7 -0.4 -0.2 -0.1 -1.3 0.1 -1.75 0.15 -1.8 0.15 -1.85 0.15 -1.95 M-0.55 -0.35 Q-0.8 -0.05 -0.95 -0.45 L-0.95 -0.5 -0.55 -0.45 -0.55 -0.4 -0.55 -0.35 M1.15 -1.95 L1.05 -1.95 0.85 -1.85 Q0.35 -1.45 0.35 -0.7 0.3 0.5 0.75 1.65 L1.35 1.7 1.4 1.75 3.7 1.65 4.9 1.55 Q4.3 0.9 4.1 0.1 L3.5 -0.6 3.3 -0.4 3.15 -0.6 3.3 -0.75 3.45 -0.65 3.25 -0.9 0.7 -0.9 0.75 -0.95 3.15 -1.1 2.6 -1.9 1.15 -1.95 M1.15 1.4 L1.15 1.3 1.3 1.15 1.5 1.35 1.35 1.55 1.15 1.4 M1.0 0.7 L0.9 0.5 0.95 0.45 1.1 0.3 1.3 0.5 1.15 0.75 1.0 0.7 M0.8 -0.2 L0.75 -0.35 0.95 -0.55 1.15 -0.35 1.0 -0.1 0.8 -0.2 M2.25 -0.65 L2.25 -0.55 2.25 -0.5 2.15 -0.45 2.05 -0.5 2.0 -0.55 2.05 -0.65 2.15 -0.7 2.25 -0.65 M0.45 3.6 L-0.45 3.5 -2.0 2.95 -3.55 1.9 -5.3 2.55 Q-6.0 2.8 -6.6 2.35 L-7.05 1.75 -7.1 0.95 -6.55 0.3 Q-7.4 -0.15 -7.9 -0.9 L-8.05 -1.25 -8.65 -4.75 -8.65 -5.25 -8.3 -6.3 -7.15 -7.35 -6.95 -6.3 -6.3 -4.75 -5.6 -4.0 -4.65 -3.4 -4.5 -3.55 0.6 -2.2 1.8 -2.05 2.75 -2.3 2.9 -2.3 2.95 -2.25 3.3 -1.55 4.35 -0.15 5.4 1.75 3.8 2.05 1.05 2.2 1.05 2.75 0.95 3.0 0.95 2.8 0.85 3.1 0.75 3.1 0.55 3.4 0.55 3.5 0.45 3.6 M7.05 -2.85 L6.95 -3.2 6.9 -3.25 6.9 -3.3 6.95 -3.65 Q7.6 -4.2 7.7 -5.0 L7.6 -7.3 Q8.9 -6.85 9.7 -5.75 L9.95 -5.15 10.25 -2.75 10.15 -1.1 9.95 -0.65 9.4 0.05 8.9 -0.3 9.25 -0.65 9.1 -0.7 9.1 -0.8 9.2 -0.95 9.4 -0.8 9.8 -1.65 9.95 -4.0 9.8 -4.2 9.6 -3.75 9.55 -3.7 9.6 -3.7 9.75 -3.8 9.85 -3.7 9.95 -3.55 9.85 -3.4 9.75 -3.35 9.6 -3.4 9.5 -3.55 9.2 -3.15 8.8 -2.8 8.9 -0.35 8.75 -0.4 Q8.6 -1.3 8.6 -2.15 L8.6 -2.6 7.5 -1.9 8.1 -1.05 8.55 -0.5 8.35 -0.6 8.2 -0.75 7.35 -1.9 7.3 -2.1 7.25 -2.3 7.25 -2.25 7.5 -2.3 8.05 -2.7 8.4 -2.95 8.15 -3.2 7.5 -3.85 Q7.1 -3.65 7.05 -3.2 L7.05 -2.85 M8.2 -5.2 L8.15 -5.0 7.95 -4.4 7.6 -3.95 8.2 -3.45 8.55 -3.1 Q9.35 -3.7 9.5 -4.6 9.55 -5.25 9.25 -5.75 L7.95 -7.0 8.2 -5.2 M8.25 -3.8 L8.2 -3.85 8.25 -3.95 8.4 -4.05 8.6 -3.85 8.4 -3.65 8.25 -3.8 M7.75 -3.2 L7.65 -3.15 7.55 -3.2 7.5 -3.3 7.55 -3.4 7.65 -3.45 7.75 -3.4 7.8 -3.3 7.75 -3.2 M9.25 -2.75 L9.3 -2.65 9.25 -2.55 9.15 -2.5 9.05 -2.55 9.0 -2.65 9.05 -2.75 9.15 -2.8 9.25 -2.75 M9.15 -1.95 L9.25 -1.9 9.3 -1.8 9.25 -1.65 9.15 -1.6 9.05 -1.65 9.0 -1.8 9.05 -1.9 9.15 -1.95 M8.15 -2.1 L8.3 -2.15 8.4 -2.1 8.45 -2.0 8.4 -1.9 8.3 -1.85 8.15 -1.9 8.15 -2.0 8.15 -2.1 M8.5 -1.2 L8.45 -1.05 8.35 -1.0 8.2 -1.05 8.15 -1.2 8.2 -1.3 8.35 -1.35 8.45 -1.3 8.5 -1.2 M4.05 1.2 L4.1 1.3 4.05 1.4 3.95 1.45 3.85 1.4 3.85 1.3 3.85 1.2 3.95 1.15 4.05 1.2 M2.65 1.5 L2.5 1.55 2.35 1.5 2.3 1.35 Q2.25 1.2 2.35 1.15 L2.5 1.1 2.65 1.15 2.75 1.35 2.65 1.5 M0.65 2.45 L-0.25 2.75 -3.0 1.85 -1.45 2.8 0.25 3.25 0.5 3.05 0.65 2.45 M-7.45 -6.85 Q-8.2 -6.5 -8.3 -5.7 L-8.35 -5.5 -7.0 -5.65 -7.2 -6.65 -7.45 -6.85 M-7.45 -5.95 L-7.5 -5.8 -7.65 -5.75 -7.8 -5.8 -7.9 -5.95 -7.8 -6.1 -7.65 -6.2 -7.5 -6.1 -7.45 -5.95 M-7.45 -5.1 L-7.35 -5.15 -7.2 -5.1 -7.15 -5.0 -7.2 -4.85 -7.35 -4.8 -7.45 -4.85 -7.5 -5.0 -7.45 -5.1 M-5.55 -3.7 L-6.95 -5.5 -8.3 -5.3 -8.25 -5.05 -7.4 -3.85 -5.55 -2.3 -5.0 -3.1 -5.55 -3.7 M-8.15 -4.45 L-8.25 -4.5 -8.0 -2.1 -7.85 -1.35 Q-7.35 -0.7 -6.55 -0.3 L-6.05 -0.05 -5.75 -0.25 -5.75 -0.4 -5.8 -0.5 -5.6 -1.9 Q-6.85 -2.7 -7.75 -3.9 L-8.15 -4.45 M-8.05 -3.5 L-8.0 -3.6 -7.85 -3.7 -7.7 -3.6 -7.65 -3.5 -7.7 -3.35 -7.85 -3.3 -8.0 -3.35 -8.05 -3.5 M-7.65 -2.6 L-7.65 -2.55 -7.65 -2.45 -7.75 -2.4 -7.85 -2.45 -7.9 -2.55 -7.85 -2.6 -7.75 -2.65 -7.65 -2.6 M-7.65 -1.65 L-7.55 -1.6 -7.5 -1.5 -7.55 -1.4 -7.65 -1.35 -7.75 -1.4 -7.8 -1.5 -7.75 -1.6 -7.65 -1.65 M-5.1 -1.65 L-5.0 -1.7 -4.85 -1.65 -4.8 -1.55 -4.85 -1.4 -5.0 -1.35 -5.1 -1.4 -5.15 -1.55 -5.1 -1.65 M-6.2 -2.05 L-6.25 -1.95 -6.35 -1.9 -6.5 -1.95 -6.55 -2.05 -6.5 -2.2 -6.35 -2.25 -6.25 -2.2 -6.2 -2.05 M-7.3 -2.8 L-7.25 -2.9 -7.15 -2.9 -7.05 -2.9 -7.0 -2.8 -7.05 -2.7 -7.15 -2.65 -7.25 -2.7 -7.3 -2.8 M-5.3 0.15 L-5.35 0.15 -5.15 0.05 -3.2 -1.05 -3.15 -1.05 -3.3 -1.15 -3.9 -1.05 -6.2 0.25 -6.1 0.4 Q-5.3 0.6 -4.95 1.4 L-4.95 1.5 -2.25 0.65 -2.2 0.55 -4.5 1.15 -2.2 0.4 -2.35 -0.3 -4.8 0.6 -2.4 -0.4 -2.95 -0.95 Q-4.05 -0.25 -5.3 0.15 M-0.8 0.45 L-0.65 0.5 -0.55 0.65 -0.65 0.8 -0.8 0.9 -0.95 0.8 -1.0 0.65 -0.95 0.5 -0.8 0.45 M-6.7 1.2 L-6.5 1.8 -6.35 2.0 -5.75 2.1 Q-5.4 2.05 -5.35 1.7 L-5.45 1.3 Q-5.85 0.75 -6.4 0.95 L-6.6 1.1 -6.7 1.2" fill="#404040" fill-rule="evenodd" stroke="none"/>
    <path d="M0.15 -1.95 L0.15 -1.85 0.15 -1.8 0.1 -1.75 -0.3 -1.2 -0.55 -0.4 -0.55 -0.45 -0.95 -0.5 -0.95 -0.45 Q-0.8 -0.05 -0.55 -0.35 L-0.5 0.95 -1.95 0.7 Q-1.8 -0.1 -2.3 -0.75 -2.9 -1.6 -3.95 -1.25 L-5.35 -0.45 -5.4 -0.55 Q-5.45 -1.95 -4.65 -3.1 L-4.2 -3.25 -1.6 -2.6 0.15 -1.95 M-0.3 -1.2 L-0.2 -1.45 -0.3 -1.85 -0.55 -2.0 -3.05 -2.75 -4.3 -2.8 Q-4.9 -2.7 -4.75 -2.05 L-3.8 -1.75 -1.9 -1.1 -0.85 -0.85 Q-0.5 -0.8 -0.3 -1.2 M1.15 -1.95 L2.6 -1.9 3.15 -1.1 0.75 -0.95 1.15 -1.95 M0.7 -0.9 L3.25 -0.9 3.45 -0.65 3.3 -0.75 3.15 -0.6 3.3 -0.4 3.5 -0.6 4.1 0.1 Q4.3 0.9 4.9 1.55 L3.7 1.65 1.4 1.75 1.35 1.7 1.2 1.65 1.15 1.4 1.35 1.55 1.5 1.35 1.3 1.15 1.15 1.3 1.0 0.7 1.15 0.75 1.3 0.5 1.1 0.3 0.95 0.45 0.8 -0.2 1.0 -0.1 1.15 -0.35 0.95 -0.55 0.75 -0.35 0.65 -0.75 0.7 -0.9 M2.25 -0.65 L2.15 -0.7 2.05 -0.65 2.0 -0.55 2.05 -0.5 2.15 -0.45 2.25 -0.5 2.25 -0.55 2.25 -0.65 M8.9 -0.3 L8.9 -0.35 8.8 -2.8 9.2 -3.15 9.5 -3.55 9.6 -3.4 9.75 -3.35 9.85 -3.4 9.95 -3.55 9.85 -3.7 9.75 -3.8 9.6 -3.7 9.55 -3.7 9.6 -3.75 9.8 -4.2 9.95 -4.0 9.8 -1.65 9.4 -0.8 9.2 -0.95 9.1 -0.8 9.1 -0.7 9.25 -0.65 8.9 -0.3 M8.75 -0.4 L8.55 -0.5 8.1 -1.05 7.5 -1.9 8.6 -2.6 8.6 -2.15 Q8.6 -1.3 8.75 -0.4 M7.25 -2.3 L7.05 -2.85 7.05 -3.2 Q7.1 -3.65 7.5 -3.85 L8.15 -3.2 8.05 -2.7 7.5 -2.3 7.25 -2.25 7.25 -2.3 M8.15 -5.0 L8.2 -5.0 8.25 -3.95 8.2 -3.85 8.25 -3.8 8.2 -3.45 7.6 -3.95 7.95 -4.4 8.15 -5.0 M7.75 -3.2 L7.8 -3.3 7.75 -3.4 7.65 -3.45 7.55 -3.4 7.5 -3.3 7.55 -3.2 7.65 -3.15 7.75 -3.2 M8.5 -1.2 L8.45 -1.3 8.35 -1.35 8.2 -1.3 8.15 -1.2 8.2 -1.05 8.35 -1.0 8.45 -1.05 8.5 -1.2 M8.15 -2.1 L8.15 -2.0 8.15 -1.9 8.3 -1.85 8.4 -1.9 8.45 -2.0 8.4 -2.1 8.3 -2.15 8.15 -2.1 M9.15 -1.95 L9.05 -1.9 9.0 -1.8 9.05 -1.65 9.15 -1.6 9.25 -1.65 9.3 -1.8 9.25 -1.9 9.15 -1.95 M9.25 -2.75 L9.15 -2.8 9.05 -2.75 9.0 -2.65 9.05 -2.55 9.15 -2.5 9.25 -2.55 9.3 -2.65 9.25 -2.75 M2.65 1.5 L2.75 1.35 2.65 1.15 2.5 1.1 2.35 1.15 Q2.25 1.2 2.3 1.35 L2.35 1.5 2.5 1.55 2.65 1.5 M4.05 1.2 L3.95 1.15 3.85 1.2 3.85 1.3 3.85 1.4 3.95 1.45 4.05 1.4 4.1 1.3 4.05 1.2 M-7.45 -5.1 L-7.5 -5.0 -7.45 -4.85 -7.35 -4.8 -7.2 -4.85 -7.15 -5.0 -7.2 -5.1 -7.35 -5.15 -7.45 -5.1 M-7.45 -5.95 L-7.5 -6.1 -7.65 -6.2 -7.8 -6.1 -7.9 -5.95 -7.8 -5.8 -7.65 -5.75 -7.5 -5.8 -7.45 -5.95 M-7.45 -6.85 L-7.2 -6.65 -7.0 -5.65 -8.35 -5.5 -8.3 -5.7 Q-8.2 -6.5 -7.45 -6.85 M-5.55 -3.7 L-5.0 -3.1 -5.55 -2.3 -7.4 -3.85 -8.25 -5.05 -8.3 -5.3 -6.95 -5.5 -5.55 -3.7 M-7.3 -2.8 L-7.25 -2.7 -7.15 -2.65 -7.05 -2.7 -7.0 -2.8 -7.05 -2.9 -7.15 -2.9 -7.25 -2.9 -7.3 -2.8 M-6.2 -2.05 L-6.25 -2.2 -6.35 -2.25 -6.5 -2.2 -6.55 -2.05 -6.5 -1.95 -6.35 -1.9 -6.25 -1.95 -6.2 -2.05 M-5.1 -1.65 L-5.15 -1.55 -5.1 -1.4 -5.0 -1.35 -4.85 -1.4 -4.8 -1.55 -4.85 -1.65 -5.0 -1.7 -5.1 -1.65 M-7.65 -1.65 L-7.75 -1.6 -7.8 -1.5 -7.75 -1.4 -7.65 -1.35 -7.55 -1.4 -7.5 -1.5 -7.55 -1.6 -7.65 -1.65 M-7.65 -2.6 L-7.75 -2.65 -7.85 -2.6 -7.9 -2.55 -7.85 -2.45 -7.75 -2.4 -7.65 -2.45 -7.65 -2.55 -7.65 -2.6 M-8.05 -3.5 L-8.0 -3.35 -7.85 -3.3 -7.7 -3.35 -7.65 -3.5 -7.7 -3.6 -7.85 -3.7 -8.0 -3.6 -8.05 -3.5 M-8.15 -4.45 L-7.75 -3.9 Q-6.85 -2.7 -5.6 -1.9 L-5.8 -0.5 -5.75 -0.4 -5.75 -0.25 -6.05 -0.05 -6.55 -0.3 Q-7.35 -0.7 -7.85 -1.35 L-8.0 -2.1 -8.25 -4.5 -8.15 -4.45 M-5.3 0.15 Q-4.05 -0.25 -2.95 -0.95 L-2.4 -0.4 -4.8 0.6 -2.35 -0.3 -2.2 0.4 -4.5 1.15 -2.2 0.55 -2.25 0.65 -4.95 1.5 -4.95 1.4 Q-5.3 0.6 -6.1 0.4 L-6.0 0.4 -5.3 0.15 M-0.8 0.45 L-0.95 0.5 -1.0 0.65 -0.95 0.8 -0.8 0.9 -0.65 0.8 -0.55 0.65 -0.65 0.5 -0.8 0.45" fill="#999999" fill-rule="evenodd" stroke="none"/>
    <path d="M-0.3 -1.2 Q-0.5 -0.8 -0.85 -0.85 L-1.9 -1.1 -3.8 -1.75 -4.75 -2.05 Q-4.9 -2.7 -4.3 -2.8 L-3.05 -2.75 -0.55 -2.0 -0.3 -1.85 -0.2 -1.45 -0.3 -1.2 M8.15 -3.2 L8.4 -2.95 8.05 -2.7 8.15 -3.2 M8.2 -5.0 L8.2 -5.2 7.95 -7.0 9.25 -5.75 Q9.55 -5.25 9.5 -4.6 9.35 -3.7 8.55 -3.1 L8.2 -3.45 8.25 -3.8 8.4 -3.65 8.6 -3.85 8.4 -4.05 8.25 -3.95 8.2 -5.0 M-6.1 0.4 L-6.2 0.25 -3.9 -1.05 -3.3 -1.15 -3.15 -1.05 -3.2 -1.05 -5.15 0.05 -5.35 0.15 -5.3 0.15 -6.0 0.4 -6.1 0.4" fill="#cccccc" fill-rule="evenodd" stroke="none"/>
    <path d="M0.15 -1.85 L0.15 -1.95 0.15 -1.85 M-5.4 -0.55 L-5.35 -0.45 -5.35 -0.5 -5.4 -0.55 M-1.95 0.7 L-0.5 0.95 -0.55 -0.35 -0.55 -0.4 -0.3 -1.2 0.1 -1.75 -0.1 -1.3 -0.4 -0.2 -0.45 1.7 -2.2 1.3 -1.95 0.7 M1.35 1.7 L0.75 1.65 Q0.3 0.5 0.35 -0.7 0.35 -1.45 0.85 -1.85 L1.05 -1.95 1.15 -1.95 0.75 -0.95 0.7 -0.9 0.65 -0.75 0.75 -0.35 0.8 -0.2 0.95 0.45 0.9 0.5 1.0 0.7 1.15 1.3 1.15 1.4 1.2 1.65 1.35 1.7 M0.65 2.45 L0.5 3.05 0.25 3.25 -1.45 2.8 -3.0 1.85 -0.25 2.75 0.65 2.45 M-6.7 1.2 L-6.6 1.1 -6.4 0.95 Q-5.85 0.75 -5.45 1.3 L-5.35 1.7 Q-5.4 2.05 -5.75 2.1 L-6.35 2.0 -6.5 1.8 -6.7 1.2" fill="#666666" fill-rule="evenodd" stroke="none"/>
  </g>
</svg>
