<?xml version="1.0" encoding="UTF-8" standalone="no"?>
<svg xmlns:ffdec="https://www.free-decompiler.com/flash" xmlns:xlink="http://www.w3.org/1999/xlink" ffdec:objectType="shape" height="19.95px" width="60.0px" xmlns="http://www.w3.org/2000/svg">
  <g transform="matrix(1.0, 0.0, 0.0, 1.0, 30.0, 4.95)">
    <path d="M0.0 15.0 L-30.0 5.0 0.0 -4.95 30.0 5.0 0.0 15.0" fill="#cc0000" fill-rule="evenodd" stroke="none"/>
    <path d="M2.7 0.9 L1.95 1.35 Q1.3 1.65 0.95 2.45 L1.0 3.15 5.05 3.05 5.55 3.65 Q3.7 5.75 0.9 4.7 L0.9 7.7 Q3.5 9.0 5.8 11.2 L4.45 12.2 -0.15 8.8 -2.45 10.65 Q-3.75 11.85 -5.2 12.35 L-5.35 12.35 -6.25 11.95 -6.45 11.75 -4.6 10.1 -2.5 8.1 -1.85 7.15 -1.35 5.6 -1.3 5.0 Q-3.45 5.2 -5.35 4.4 L-5.45 3.5 -1.1 3.0 -1.05 2.3 -3.25 1.0 Q-3.95 -2.55 -0.65 -3.95 L0.25 -3.7 Q3.05 -2.75 2.8 0.2 L2.7 0.9" fill="#000000" fill-rule="evenodd" stroke="none"/>
  </g>
</svg>
