<?xml version="1.0" encoding="UTF-8" standalone="no"?>
<svg xmlns:ffdec="https://www.free-decompiler.com/flash" xmlns:xlink="http://www.w3.org/1999/xlink" ffdec:objectType="shape" height="19.95px" width="60.0px" xmlns="http://www.w3.org/2000/svg">
  <g transform="matrix(1.0, 0.0, 0.0, 1.0, 30.0, 4.95)">
    <path d="M0.0 15.0 L-30.0 5.0 0.0 -4.95 30.0 5.0 0.0 15.0" fill="#b5ab75" fill-rule="evenodd" stroke="none"/>
    <path d="M-4.05 2.35 L-4.05 -1.05 3.25 -1.05 3.25 2.35 3.4 2.7 3.75 2.85 9.3 2.85 9.3 4.5 3.75 4.5 Q3.55 4.5 3.4 4.65 3.25 4.8 3.25 5.0 L3.25 11.2 -4.05 11.2 -4.05 5.0 Q-4.05 4.8 -4.2 4.65 -4.35 4.5 -4.55 4.5 L-9.7 4.5 -9.7 2.85 -4.55 2.85 -4.2 2.7 -4.05 2.35" fill="#cccccc" fill-rule="evenodd" stroke="none"/>
    <path d="M3.75 -2.05 L4.1 -1.9 4.25 -1.55 4.25 1.85 9.8 1.85 Q10.0 1.85 10.15 2.0 L10.3 2.35 10.3 5.0 10.15 5.35 9.8 5.5 4.25 5.5 4.25 11.7 4.1 12.05 3.75 12.2 -4.55 12.2 -4.9 12.05 -5.05 11.7 -5.05 5.5 -10.2 5.5 -10.55 5.35 -10.7 5.0 -10.7 2.35 -10.55 2.0 Q-10.4 1.85 -10.2 1.85 L-5.05 1.85 -5.05 -1.55 -4.9 -1.9 -4.55 -2.05 3.75 -2.05 M-4.05 2.35 L-4.2 2.7 -4.55 2.85 -9.7 2.85 -9.7 4.5 -4.55 4.5 Q-4.35 4.5 -4.2 4.65 -4.05 4.8 -4.05 5.0 L-4.05 11.2 3.25 11.2 3.25 5.0 Q3.25 4.8 3.4 4.65 3.55 4.5 3.75 4.5 L9.3 4.5 9.3 2.85 3.75 2.85 3.4 2.7 3.25 2.35 3.25 -1.05 -4.05 -1.05 -4.05 2.35" fill="#000000" fill-rule="evenodd" stroke="none"/>
  </g>
</svg>
