<?xml version="1.0" encoding="UTF-8" standalone="no"?>
<svg xmlns:ffdec="https://www.free-decompiler.com/flash" xmlns:xlink="http://www.w3.org/1999/xlink" ffdec:objectType="shape" height="20.0px" width="60.0px" xmlns="http://www.w3.org/2000/svg">
  <g transform="matrix(1.0, 0.0, 0.0, 1.0, 30.0, 5.0)">
    <path d="M0.0 15.0 L-30.0 5.0 0.0 -4.95 30.0 5.0 0.0 15.0" fill="#d5e1e6" fill-rule="evenodd" stroke="none"/>
    <path d="M2.3 -0.45 L4.3 -1.95 2.25 -0.45 2.3 -0.45 M3.95 -5.0 Q8.5 -3.4 5.3 -0.1 L2.95 2.15 Q7.0 1.6 6.75 5.2 6.65 7.2 4.6 7.55 5.4 13.85 -1.4 13.1 -2.45 13.2 -3.25 12.5 -6.1 10.2 -4.9 6.75 -8.05 5.2 -6.0 2.5 -5.1 1.3 -3.55 1.75 -5.8 -0.1 -7.05 -3.05 L-5.7 -4.3 -4.7 -4.85 Q-1.75 -4.0 0.25 -1.8 1.35 -3.45 3.1 -4.55 L3.95 -5.0 M0.3 6.45 L-0.35 6.2 -2.45 7.9 -2.4 10.55 Q-0.15 12.3 1.55 10.15 2.7 7.7 0.3 6.45 M2.7 4.95 L4.05 4.75 2.8 4.9 2.7 4.95 M0.15 4.2 L-0.05 4.1 -0.25 4.2 -0.35 4.45 -0.25 4.7 -0.05 4.8 0.15 4.7 0.25 4.45 0.15 4.2 M-4.65 -2.55 Q-1.85 -1.25 -1.1 1.7 L-1.0 2.05 -0.1 1.7 0.25 0.5 Q-1.45 -1.0 -3.5 -2.0 L-4.65 -2.55 M-3.3 4.7 L-2.7 4.45 -3.95 4.6 -3.3 4.7" fill="#4b4725" fill-rule="evenodd" stroke="none"/>
    <path d="M4.45 -3.8 L5.8 -2.8 Q3.5 -0.6 0.9 0.7 L0.9 3.7 Q3.7 2.65 5.55 4.75 L5.05 5.35 1.0 5.25 0.95 5.95 Q1.3 6.75 1.95 7.05 2.3 7.2 2.7 7.5 L2.8 8.2 Q3.05 11.15 0.25 12.1 L-0.65 12.35 Q-3.95 10.95 -3.25 7.4 L-1.05 6.1 -1.1 5.4 -5.45 4.9 -5.35 4.0 Q-3.45 3.2 -1.3 3.4 L-1.35 2.8 -1.85 1.25 Q-2.1 0.7 -2.5 0.3 L-4.6 -1.7 -6.45 -3.35 -6.25 -3.55 -5.35 -3.95 -5.2 -3.95 Q-3.75 -3.45 -2.45 -2.25 L-0.15 -0.4 4.45 -3.8" fill="#e6b971" fill-rule="evenodd" stroke="none"/>
  </g>
</svg>
