<?xml version="1.0" encoding="UTF-8" standalone="no"?>
<svg xmlns:ffdec="https://www.free-decompiler.com/flash" xmlns:xlink="http://www.w3.org/1999/xlink" ffdec:objectType="shape" height="19.95px" width="60.0px" xmlns="http://www.w3.org/2000/svg">
  <g transform="matrix(1.0, 0.0, 0.0, 1.0, 30.0, 4.95)">
    <path d="M0.0 15.0 L-30.0 5.0 0.0 -4.95 30.0 5.0 0.0 15.0" fill="#666666" fill-rule="evenodd" stroke="none"/>
    <path d="M-7.9 6.1 L-7.7 4.35 -7.0 3.95 Q-5.4 3.4 -4.4 4.75 -4.45 5.85 -5.25 6.3 -6.55 7.1 -7.9 6.1 M0.05 -0.6 L1.15 -0.1 1.55 0.7 1.35 1.75 0.9 2.2 Q-0.95 2.4 -1.2 1.0 L0.05 -0.6 M7.3 4.65 L6.5 6.65 5.85 6.85 5.25 6.35 4.75 5.75 4.1 4.8 6.05 3.7 7.3 4.65" fill="#da2310" fill-rule="evenodd" stroke="none"/>
  </g>
</svg>
