<?xml version="1.0" encoding="UTF-8" standalone="no"?>
<svg xmlns:ffdec="https://www.free-decompiler.com/flash" xmlns:xlink="http://www.w3.org/1999/xlink" ffdec:objectType="shape" height="7.7px" width="15.35px" xmlns="http://www.w3.org/2000/svg">
  <g transform="matrix(1.0, 0.0, 0.0, 1.0, 6.75, 4.8)">
    <path d="M3.6 -1.2 L2.25 -1.2 -0.8 -1.5 -0.55 -1.2 -0.4 -0.75 Q-0.5 0.0 -1.2 0.35 L-1.2 1.5 -1.6 2.9 -1.75 2.75 Q-1.4 2.1 -1.45 1.55 L-1.75 -0.15 -1.85 -0.45 -1.9 -0.9 -2.1 0.0 -2.2 0.4 -2.5 1.3 -3.2 2.7 -3.3 2.7 -2.55 0.3 -2.85 0.2 -2.95 0.15 Q-3.6 -0.15 -3.75 -0.85 L-2.75 -1.9 Q-4.05 -2.3 -5.25 -2.95 -6.35 -3.6 -6.75 -4.7 L-6.7 -4.75 -6.65 -4.75 -6.6 -4.8 -6.3 -4.75 -6.25 -4.55 Q-5.15 -3.6 -3.85 -3.0 L-2.2 -2.35 -2.15 -2.4 -1.85 -2.7 -1.7 -2.6 -1.55 -2.5 -1.5 -2.4 -1.5 -2.15 3.25 -1.75 3.6 -1.2 M7.4 -2.0 L8.15 -1.75 8.55 -1.45 8.6 -1.25 8.6 -1.1 8.55 -0.85 8.35 -0.8 8.2 -1.0 7.55 -1.45 7.25 -1.85 7.3 -1.9 7.3 -1.95 7.4 -2.0 M-2.65 -0.2 L-2.4 -0.1 -2.2 -1.65 -2.35 -1.8 -3.3 -0.8 -2.65 -0.2 M-0.7 -0.7 L-1.5 -1.55 -1.25 -0.1 -1.15 -0.15 -1.05 -0.25 -0.7 -0.7" fill="#57492d" fill-rule="evenodd" stroke="none"/>
  </g>
</svg>
