<?xml version="1.0" encoding="UTF-8" standalone="no"?>
<svg xmlns:ffdec="https://www.free-decompiler.com/flash" xmlns:xlink="http://www.w3.org/1999/xlink" ffdec:objectType="shape" height="9.6px" width="18.1px" xmlns="http://www.w3.org/2000/svg">
  <g transform="matrix(1.0, 0.0, 0.0, 1.0, 6.85, 5.9)">
    <path d="M3.85 -0.9 L2.9 -0.45 2.35 -0.5 1.8 -0.15 1.05 -0.15 Q0.7 0.05 0.4 0.3 L-0.6 -0.45 -2.4 -0.45 Q-2.7 -0.9 -3.15 -0.75 -3.35 -0.05 -3.85 -0.65 L-3.9 -1.7 -4.25 -1.95 -5.45 -1.85 -6.3 -2.8 Q-6.8 -3.3 -6.6 -3.6 L-5.75 -3.55 -5.45 -3.15 -4.95 -3.1 -4.75 -2.45 -4.1 -2.4 Q-2.45 -1.55 -0.55 -1.0 L0.95 -0.85 1.45 -1.15 2.5 -1.0 3.45 -1.45 3.85 -0.9 M7.75 -1.7 L7.55 -2.05 7.4 -2.35 7.4 -2.4 Q7.5 -2.75 7.75 -2.75 L7.85 -3.35 7.85 -3.6 8.0 -4.45 8.05 -4.75 8.1 -4.85 Q8.6 -4.6 8.95 -5.1 L9.85 -5.9 10.25 -5.65 10.4 -5.4 Q9.7 -5.7 9.4 -4.8 L9.35 -4.25 9.5 -4.2 9.65 -3.9 Q8.95 -4.2 8.95 -3.75 8.95 -3.05 8.75 -3.55 L8.7 -3.75 Q8.55 -3.3 9.0 -3.3 L9.1 -3.35 Q8.85 -3.75 9.45 -3.7 L9.7 -3.65 9.7 -3.7 10.55 -3.75 Q10.75 -3.1 10.1 -3.1 9.3 -3.3 9.5 -2.8 L9.75 -2.45 9.65 -1.6 10.35 -1.2 10.9 -0.8 10.3 -0.4 Q9.75 -1.2 8.9 -1.4 L9.35 -1.6 9.0 -1.9 8.55 -2.25 Q8.7 -2.9 8.4 -2.3 8.05 -1.7 8.5 -1.35 L8.55 -1.35 8.75 -1.4 8.55 -1.1 8.35 -1.3 7.85 -1.7 7.75 -1.7 M9.4 -2.4 Q9.15 -3.0 9.05 -2.65 L9.15 -2.5 Q8.7 -2.25 9.1 -2.0 9.35 -1.75 9.5 -2.0 L9.5 -2.05 9.5 -2.15 9.4 -2.4 M-1.85 0.25 L-1.9 0.95 -1.15 1.6 -0.6 2.7 -1.15 2.65 -1.6 2.35 Q-2.45 1.8 -2.8 0.95 L-2.65 0.55 -1.85 0.25" fill="#66ff00" fill-rule="evenodd" stroke="none"/>
    <path d="M-6.6 -3.6 Q-6.8 -3.3 -6.3 -2.8 L-5.45 -1.85 -4.25 -1.95 -3.9 -1.7 -3.85 -0.65 Q-3.35 -0.05 -3.15 -0.75 -2.7 -0.9 -2.4 -0.45 L-0.6 -0.45 0.4 0.3 Q0.7 0.05 1.05 -0.15 L1.8 -0.15 2.35 -0.5 2.9 -0.45 3.85 -0.9 4.35 -0.05 2.8 0.15 2.3 0.15 Q2.2 0.65 1.7 0.65 L1.25 0.6 0.85 0.95 0.2 0.35 -0.95 0.4 -1.4 0.75 -0.15 2.55 0.5 2.7 0.6 2.95 0.25 3.7 -1.15 3.65 -1.3 3.3 -1.5 3.0 -2.25 2.8 -2.85 1.5 -3.1 0.85 -3.15 0.45 -3.2 0.2 -3.45 0.0 Q-4.2 -0.3 -4.4 -1.1 L-5.25 -1.25 -5.65 -1.65 -6.4 -2.35 Q-7.2 -2.95 -6.6 -3.6 M7.75 -1.7 L7.85 -1.7 8.35 -1.3 8.55 -1.1 8.75 -1.4 8.8 -1.45 8.9 -1.4 Q9.75 -1.2 10.3 -0.4 L10.9 -0.8 11.05 -0.65 Q11.15 -0.35 10.85 -0.2 L10.55 0.0 10.25 0.05 Q9.75 -0.1 9.3 -0.4 L8.65 -0.45 7.95 -1.15 7.75 -1.7 M9.75 -2.45 L9.5 -2.8 Q9.3 -3.3 10.1 -3.1 10.75 -3.1 10.55 -3.75 L10.95 -3.6 Q11.4 -3.25 11.2 -2.8 L11.05 -2.75 Q10.45 -2.4 9.75 -2.45 M9.5 -4.2 L9.35 -4.25 9.4 -4.8 Q9.7 -5.7 10.4 -5.4 L10.35 -5.3 9.5 -4.2 M9.15 -2.5 L9.5 -2.0 Q9.35 -1.75 9.1 -2.0 8.7 -2.25 9.15 -2.5 M9.5 -2.05 L9.4 -2.4 9.5 -2.15 9.5 -2.05 M-1.85 0.25 L-2.65 0.55 -2.8 0.95 Q-2.45 1.8 -1.6 2.35 L-1.15 2.65 -0.6 2.7 -1.15 1.6 -1.9 0.95 -1.85 0.25" fill="#5ac701" fill-rule="evenodd" stroke="none"/>
    <path d="M8.75 -1.4 L8.55 -1.35 8.5 -1.35 Q8.05 -1.7 8.4 -2.3 8.7 -2.9 8.55 -2.25 L9.0 -1.9 9.35 -1.6 8.9 -1.4 8.8 -1.45 8.75 -1.4 M9.7 -3.7 L9.7 -3.65 9.45 -3.7 Q8.85 -3.75 9.1 -3.35 L9.0 -3.3 Q8.55 -3.3 8.7 -3.75 L8.75 -3.55 Q8.95 -3.05 8.95 -3.75 8.95 -4.2 9.65 -3.9 L9.7 -3.7 M9.15 -2.5 L9.05 -2.65 Q9.15 -3.0 9.4 -2.4 L9.5 -2.05 9.5 -2.0 9.15 -2.5" fill="#ff0000" fill-rule="evenodd" stroke="none"/>
  </g>
</svg>
