<?xml version="1.0" encoding="UTF-8" standalone="no"?>
<svg xmlns:ffdec="https://www.free-decompiler.com/flash" xmlns:xlink="http://www.w3.org/1999/xlink" ffdec:objectType="shape" height="19.95px" width="60.0px" xmlns="http://www.w3.org/2000/svg">
  <g transform="matrix(1.0, 0.0, 0.0, 1.0, 30.0, 4.95)">
    <path d="M0.0 15.0 L-30.0 5.0 0.0 -4.95 30.0 5.0 0.0 15.0" fill="#888888" fill-rule="evenodd" stroke="none"/>
    <path d="M-0.05 -4.25 Q2.0 -4.25 3.5 -3.0 4.95 -1.75 4.95 0.05 4.95 1.85 3.5 3.1 2.0 4.35 -0.05 4.35 -2.1 4.35 -3.55 3.1 -5.05 1.85 -5.05 0.05 -5.05 -1.75 -3.55 -3.0 -2.1 -4.25 -0.05 -4.25 M-4.8 9.7 Q-6.35 11.05 -8.5 11.05 -10.7 11.05 -12.25 9.7 -13.8 8.35 -13.8 6.45 -13.8 4.55 -12.25 3.2 -10.7 1.85 -8.5 1.85 -6.35 1.85 -4.8 3.2 -3.25 4.55 -3.25 6.45 -3.25 8.35 -4.8 9.7 M12.05 9.8 Q10.45 11.15 8.25 11.2 6.0 11.15 4.45 9.8 2.85 8.4 2.85 6.5 2.85 4.6 4.45 3.2 6.0 1.8 8.25 1.85 10.45 1.8 12.05 3.2 13.6 4.6 13.65 6.5 13.6 8.4 12.05 9.8" fill="#ffffff" fill-rule="evenodd" stroke="none"/>
  </g>
</svg>
