<?xml version="1.0" encoding="UTF-8" standalone="no"?>
<svg xmlns:ffdec="https://www.free-decompiler.com/flash" xmlns:xlink="http://www.w3.org/1999/xlink" ffdec:objectType="shape" height="19.95px" width="60.0px" xmlns="http://www.w3.org/2000/svg">
  <g transform="matrix(1.0, 0.0, 0.0, 1.0, 30.0, 4.95)">
    <path d="M0.0 15.0 L-30.0 5.0 0.0 -4.95 30.0 5.0 0.0 15.0" fill="#646464" fill-rule="evenodd" stroke="none"/>
    <path d="M0.95 -0.1 L5.3 -3.05 3.85 0.55 7.85 -1.25 6.95 0.65 11.9 -0.75 10.05 1.05 10.0 1.25 8.65 2.4 12.9 1.2 10.65 3.3 18.65 2.5 13.7 4.15 27.55 5.1 13.3 6.5 16.1 8.15 10.3 8.25 11.5 9.85 6.7 8.75 7.65 10.8 4.25 9.2 4.4 11.6 1.95 9.25 -0.15 14.05 -1.25 10.0 -3.55 12.75 -2.65 9.0 -6.2 11.3 -5.5 7.6 -10.5 9.35 -9.05 7.25 -16.3 7.7 -12.1 6.1 -23.3 6.85 -14.15 5.5 -26.7 4.85 -12.05 3.4 -15.9 1.3 -8.65 1.15 -10.0 -0.85 -6.15 0.2 -6.75 -1.85 -3.0 -0.55 -3.2 -2.95 -1.55 -0.75 -0.2 -3.85 0.95 -0.1" fill="#181818" fill-rule="evenodd" stroke="none"/>
  </g>
</svg>
