<?xml version="1.0" encoding="UTF-8" standalone="no"?>
<svg xmlns:ffdec="https://www.free-decompiler.com/flash" xmlns:xlink="http://www.w3.org/1999/xlink" ffdec:objectType="shape" height="18.9px" width="30.8px" xmlns="http://www.w3.org/2000/svg">
  <g transform="matrix(1.0, 0.0, 0.0, 1.0, 16.35, 5.75)">
    <path d="M-13.95 2.45 Q-13.9 1.85 -13.45 1.3 L-13.25 1.0 -13.15 1.0 -12.75 0.65 -12.1 0.35 -11.95 0.05 -11.95 0.0 -11.85 -0.2 -11.6 -0.7 -10.9 -1.4 -10.25 -2.05 -9.8 -2.5 -9.4 -2.9 -8.95 -3.35 -8.5 -3.7 Q-8.0 -5.05 -6.65 -5.5 L-6.5 -5.4 -6.4 -5.3 -6.35 -5.2 Q-2.95 -2.05 1.7 -1.55 L2.9 -1.45 3.55 -1.35 3.85 -1.0 2.95 -1.05 Q0.15 -1.25 -2.45 -2.35 -3.9 -2.95 -5.1 -3.95 L-6.25 -4.75 -6.45 -4.7 -6.4 -4.35 Q-5.55 -3.3 -4.35 -2.6 -2.4 -1.6 -0.25 -1.1 L3.15 -0.55 4.1 -0.45 4.3 -0.25 4.6 0.15 4.05 0.75 4.95 0.7 5.15 1.05 4.2 1.2 4.05 1.25 2.95 2.0 2.8 2.1 2.75 2.15 2.65 2.2 0.3 4.4 0.25 4.45 0.25 4.5 0.3 4.5 Q1.35 4.45 2.3 4.9 L2.65 5.1 2.7 5.1 2.85 5.2 3.55 5.8 4.1 6.7 4.2 7.0 4.35 8.45 4.65 8.2 6.6 6.45 Q7.6 5.65 7.75 4.6 L7.8 4.4 8.2 4.3 8.2 4.55 8.15 4.95 9.0 4.15 9.95 3.15 10.65 2.25 10.8 1.9 10.85 1.7 10.8 0.9 10.7 0.65 10.7 0.5 10.25 -0.35 Q9.4 -1.5 8.15 -1.7 L7.6 -1.75 7.3 -2.55 7.85 -4.45 8.0 -4.65 8.8 -3.75 Q11.05 -5.95 14.2 -5.7 L14.4 -5.7 Q14.75 -1.7 11.9 1.2 L10.95 2.25 8.05 5.6 7.8 5.5 Q5.85 7.8 3.45 9.5 L3.1 9.55 Q2.3 10.4 1.4 10.5 L1.7 10.0 Q2.35 9.75 2.7 8.9 L2.65 8.5 Q2.5 7.65 1.85 7.0 L1.0 6.4 0.6 6.25 0.15 6.25 -0.45 6.35 Q-0.9 6.45 -1.1 6.7 L-1.4 7.2 -1.6 7.35 -1.85 7.6 -1.7 6.6 -1.6 6.45 -1.4 6.15 -0.9 5.7 -0.75 5.55 -0.65 5.35 -0.4 4.8 -0.3 4.6 Q0.25 3.65 1.25 3.0 L-1.05 2.85 Q-3.5 2.25 -5.5 0.9 L-6.75 -0.1 Q-6.9 0.65 -6.65 1.45 -6.45 2.05 -6.9 2.6 -7.6 3.45 -8.5 3.8 L-9.15 3.9 Q-9.8 4.9 -10.8 5.35 L-11.45 5.45 -10.8 4.75 -10.4 4.55 Q-9.45 3.95 -9.9 2.85 -10.9 0.65 -13.0 1.5 L-13.25 2.0 -13.95 2.45 M-8.7 -2.5 Q-7.7 -2.5 -7.05 -1.8 L-6.95 -1.65 -6.75 -2.9 -6.75 -3.15 -8.6 -3.2 -8.75 -3.05 -9.15 -2.7 -9.95 -1.95 -11.15 -0.8 -11.35 -0.55 -11.4 -0.4 -11.4 -0.35 -11.15 -0.45 -10.9 -0.45 -10.45 -0.45 -9.55 -0.25 Q-8.75 0.05 -8.35 0.7 L-8.2 1.0 Q-7.85 1.75 -7.95 2.85 L-7.85 2.9 -6.8 1.7 -7.05 -0.55 -7.05 -0.6 -7.05 -0.9 -7.0 -1.55 -7.2 -1.75 Q-7.85 -2.35 -8.75 -2.4 L-8.55 -2.4 -8.7 -2.5 M-11.05 -0.2 L-11.3 -0.1 -11.4 -0.05 -11.35 0.1 -10.85 0.1 -10.65 0.15 Q-8.45 0.85 -9.0 3.35 -8.65 3.2 -8.55 2.85 -8.1 0.85 -9.65 0.0 L-10.5 -0.3 -11.05 -0.2 M-6.7 -3.8 L-6.7 -5.1 -6.85 -5.15 -6.9 -5.1 -6.95 -5.05 -7.75 -4.3 -7.85 -4.15 -7.9 -4.15 -7.9 -3.8 -7.7 -3.85 -7.6 -3.9 Q-7.1 -3.9 -6.7 -3.6 L-6.7 -3.8 M-6.4 -4.2 L-6.55 -0.6 -6.45 -0.3 -5.75 0.45 -4.35 1.35 -1.85 2.2 Q-2.5 1.15 -2.45 -0.05 L-2.15 -1.0 -2.1 -1.05 Q-2.45 0.45 -1.6 1.8 L-0.9 2.5 1.35 2.8 1.55 2.75 3.5 1.1 3.75 0.55 4.15 0.05 4.3 -0.25 3.25 -0.3 Q-0.3 -0.7 -3.55 -2.15 L-5.5 -3.3 -6.4 -4.2 M8.05 -4.0 L7.7 -2.6 8.5 -3.45 8.2 -4.1 8.05 -4.0 M12.45 -1.5 L11.95 -2.6 11.9 -2.6 11.85 -2.65 11.85 -2.7 11.8 -2.75 11.75 -2.75 11.5 -2.95 11.3 -3.1 10.95 -3.25 9.7 -3.45 9.75 -3.55 Q12.05 -3.75 12.55 -1.65 L12.65 -1.25 12.65 -1.0 12.7 -0.7 12.65 -0.7 12.65 -0.65 12.55 -0.65 12.55 -1.15 12.45 -1.5 M14.05 -4.1 L14.1 -5.5 11.0 -4.75 Q9.1 -3.85 7.8 -2.2 9.05 -2.05 10.05 -1.2 L10.95 0.0 11.05 0.25 11.2 1.25 12.8 -0.55 13.45 -1.65 13.95 -3.25 14.05 -4.1 M6.35 4.7 L6.4 5.2 6.25 6.25 6.25 6.3 6.3 5.3 6.25 4.8 5.95 4.0 5.75 3.7 4.4 2.6 3.7 2.45 3.65 2.4 3.4 2.4 3.45 2.4 Q4.55 2.35 5.4 3.1 L6.2 4.2 6.35 4.7 M0.3 5.25 L0.75 5.15 1.4 5.2 2.4 5.7 2.9 6.25 3.05 6.5 3.35 7.3 3.45 7.8 3.4 8.6 3.55 8.6 3.6 8.65 3.75 8.65 3.8 8.5 Q4.0 7.75 3.7 6.95 L3.3 6.25 3.1 6.0 Q2.45 5.2 1.5 5.05 L0.95 5.0 0.25 5.05 0.2 5.25 0.3 5.25" fill="#525252" fill-rule="evenodd" stroke="none"/>
    <path d="M0.7 7.2 Q1.45 7.2 1.6 8.0 L1.5 8.6 -0.1 10.5 -0.7 10.85 -1.9 10.8 -2.05 10.6 Q-2.15 10.0 -1.9 9.5 -1.35 8.35 -0.25 7.65 L0.3 7.35 0.7 7.2 M-11.9 2.25 Q-11.25 2.25 -10.95 2.75 -10.85 2.9 -10.9 3.1 L-12.0 4.5 -13.1 5.3 -13.9 5.45 -13.95 5.45 Q-14.65 5.4 -14.55 4.8 L-14.3 4.0 Q-13.65 2.9 -12.45 2.4 L-11.9 2.25" fill="#ffffff" fill-rule="evenodd" stroke="none"/>
    <path d="M10.3 1.0 L8.85 -0.2 8.4 -0.6 7.6 -1.75 8.15 -1.7 Q9.4 -1.5 10.25 -0.35 L10.7 0.5 10.7 0.65 10.45 0.85 10.3 1.0 M-7.85 -4.15 L-7.75 -4.3 -6.95 -5.05 -6.9 -5.1 -6.85 -5.15 -6.7 -5.1 -6.7 -3.8 Q-7.0 -4.2 -7.5 -4.2 L-7.85 -4.15" fill="#9b7857" fill-rule="evenodd" stroke="none"/>
    <path d="M-7.05 -0.6 L-7.05 -0.55 -7.05 -0.6" fill="#d7d7d7" fill-rule="evenodd" stroke="none"/>
    <path d="M4.6 0.15 L4.95 0.7 4.05 0.75 4.6 0.15 M8.2 4.3 Q9.05 4.0 9.5 3.45 L10.4 2.1 10.3 1.0 10.45 0.85 10.7 0.65 10.8 0.9 10.85 1.7 10.8 1.9 10.65 2.25 9.95 3.15 9.0 4.15 8.15 4.95 8.2 4.55 8.2 4.3 M-6.7 -3.8 L-6.7 -3.6 Q-7.1 -3.9 -7.6 -3.9 L-7.7 -3.85 -7.9 -3.8 -7.9 -4.15 -7.85 -4.15 -7.5 -4.2 Q-7.0 -4.2 -6.7 -3.8" fill="#604837" fill-rule="evenodd" stroke="none"/>
    <path d="M-11.05 -0.2 L-10.5 -0.3 -9.65 0.0 Q-8.1 0.85 -8.55 2.85 -8.65 3.2 -9.0 3.35 -8.45 0.85 -10.65 0.15 L-10.85 0.1 -11.35 0.1 -11.4 -0.05 -11.3 -0.1 -11.05 -0.2 M0.3 5.25 L0.2 5.25 0.25 5.05 0.95 5.0 1.5 5.05 Q2.45 5.2 3.1 6.0 L3.3 6.25 3.7 6.95 Q4.0 7.75 3.8 8.5 L3.75 8.65 3.6 8.65 3.55 8.6 3.4 8.6 3.45 7.8 3.35 7.3 3.05 6.5 2.9 6.25 2.4 5.7 1.4 5.2 0.75 5.15 0.3 5.25" fill="#999999" fill-rule="evenodd" stroke="none"/>
    <path d="M-13.25 2.0 L-13.0 1.5 Q-10.9 0.65 -9.9 2.85 -9.45 3.95 -10.4 4.55 L-10.8 4.75 -10.7 4.6 Q-10.4 4.1 -10.45 3.6 -10.5 3.05 -10.7 2.55 -11.15 1.6 -12.25 1.7 L-13.25 2.0 M-1.4 7.2 L-1.1 6.7 Q-0.9 6.45 -0.45 6.35 L0.15 6.25 0.6 6.25 1.0 6.4 1.85 7.0 Q2.5 7.65 2.65 8.5 L2.7 8.9 Q2.35 9.75 1.7 10.0 L2.0 9.35 2.05 9.3 2.15 8.55 2.1 8.25 1.85 7.6 1.8 7.5 Q1.6 6.95 1.05 6.85 L0.1 6.65 Q-0.35 6.7 -0.75 6.9 L-1.25 7.15 -1.4 7.2" fill="#ffff00" fill-rule="evenodd" stroke="none"/>
    <path d="M1.4 10.5 L1.0 11.05 -1.0 12.6 -2.1 13.05 -3.8 12.9 -4.05 12.65 -4.15 12.45 -4.35 12.2 -4.35 11.45 -4.2 10.8 -4.2 10.6 -4.15 10.55 Q-3.65 9.6 -2.95 8.8 L-2.15 7.9 -1.85 7.6 -1.6 7.35 -1.4 7.2 -1.25 7.15 -0.75 6.9 Q-0.35 6.7 0.1 6.65 L1.05 6.85 Q1.6 6.95 1.8 7.5 L1.85 7.6 2.1 8.25 2.15 8.55 2.05 9.3 2.0 9.35 1.7 10.0 1.4 10.5 M-11.45 5.45 L-13.45 7.0 -15.8 7.1 -16.3 6.45 -16.3 5.85 Q-16.3 5.15 -15.9 4.55 L-15.25 3.65 -14.95 3.3 -14.1 2.6 -13.95 2.45 -13.25 2.0 -12.25 1.7 Q-11.15 1.6 -10.7 2.55 -10.5 3.05 -10.45 3.6 -10.4 4.1 -10.7 4.6 L-10.8 4.75 -11.45 5.45 M-11.9 2.25 L-12.45 2.4 Q-13.65 2.9 -14.3 4.0 L-14.55 4.8 Q-14.65 5.4 -13.95 5.45 L-13.9 5.45 -13.1 5.3 -12.0 4.5 -10.9 3.1 Q-10.85 2.9 -10.95 2.75 -11.25 2.25 -11.9 2.25 M0.7 7.2 L0.3 7.35 -0.25 7.65 Q-1.35 8.35 -1.9 9.5 -2.15 10.0 -2.05 10.6 L-1.9 10.8 -0.7 10.85 -0.1 10.5 1.5 8.6 1.6 8.0 Q1.45 7.2 0.7 7.2" fill="#ffff66" fill-rule="evenodd" stroke="none"/>
    <path d="M3.85 -1.0 L4.0 -0.75 4.1 -0.45 3.15 -0.55 -0.25 -1.1 Q-2.4 -1.6 -4.35 -2.6 -5.55 -3.3 -6.4 -4.35 L-6.45 -4.7 -6.25 -4.75 -5.1 -3.95 Q-3.9 -2.95 -2.45 -2.35 0.15 -1.25 2.95 -1.05 L3.85 -1.0 M5.15 1.05 L5.9 2.8 6.55 3.65 6.9 4.15 6.65 4.45 6.35 4.7 6.2 4.2 5.4 3.1 Q4.55 2.35 3.45 2.4 L3.4 2.4 3.65 2.4 3.7 2.45 4.4 2.6 5.75 3.7 5.95 4.0 6.25 4.8 5.2 5.8 4.35 6.55 4.15 6.7 4.1 6.7 3.55 5.8 2.85 5.2 2.7 5.1 2.65 5.1 2.3 4.9 Q1.35 4.45 0.3 4.5 L0.25 4.45 0.3 4.4 2.65 2.2 2.75 2.15 2.8 2.1 2.95 2.0 4.05 1.25 4.2 1.2 5.15 1.05 M-8.35 0.7 Q-8.75 0.05 -9.55 -0.25 L-10.45 -0.45 -10.9 -0.45 -11.15 -0.45 -11.4 -0.35 -11.4 -0.4 -11.35 -0.55 -11.15 -0.8 -9.95 -1.95 -9.15 -2.7 -8.75 -3.05 -8.6 -3.2 -6.75 -3.15 -6.75 -2.9 -6.95 -1.65 -7.05 -1.8 Q-7.7 -2.5 -8.7 -2.5 L-8.75 -2.4 Q-7.85 -2.35 -7.2 -1.75 L-7.0 -1.55 -7.05 -0.9 -7.05 -0.6 -7.05 -0.55 -7.8 0.1 -8.05 0.35 -8.35 0.7 M-6.4 -4.2 L-5.5 -3.3 -3.55 -2.15 Q-0.3 -0.7 3.25 -0.3 L4.3 -0.25 4.15 0.05 3.75 0.55 3.5 1.1 1.55 2.75 1.35 2.8 -0.9 2.5 -1.6 1.8 Q-2.45 0.45 -2.1 -1.05 L-2.15 -1.0 -2.45 -0.05 Q-2.5 1.15 -1.85 2.2 L-4.35 1.35 -5.75 0.45 -6.45 -0.3 -6.55 -0.6 -6.4 -4.2 M12.55 -1.65 Q12.05 -3.75 9.75 -3.55 L9.7 -3.45 10.95 -3.25 11.3 -3.1 11.5 -2.95 11.75 -2.75 11.8 -2.75 11.85 -2.7 11.85 -2.65 11.9 -2.6 11.95 -2.6 12.45 -1.5 11.55 -0.5 11.25 -0.25 10.95 0.0 10.05 -1.2 Q9.05 -2.05 7.8 -2.2 9.1 -3.85 11.0 -4.75 L14.1 -5.5 14.05 -4.1 13.9 -3.8 13.55 -3.05 13.4 -2.8 12.55 -1.65 M8.05 -4.0 L8.2 -4.1 8.5 -3.45 7.7 -2.6 8.05 -4.0" fill="#d3d7fa" fill-rule="evenodd" stroke="none"/>
    <path d="M6.9 4.15 L7.45 4.25 7.8 4.4 7.75 4.6 Q7.6 5.65 6.6 6.45 L4.65 8.2 4.35 8.45 4.2 7.0 4.1 6.7 4.15 6.7 4.35 6.55 5.2 5.8 6.25 4.8 6.3 5.3 6.25 6.3 6.25 6.25 6.4 5.2 6.35 4.7 6.65 4.45 6.9 4.15 M-7.05 -0.55 L-6.8 1.7 -7.85 2.9 -7.95 2.85 Q-7.85 1.75 -8.2 1.0 L-8.35 0.7 -8.05 0.35 -7.8 0.1 -7.05 -0.55 M12.55 -1.65 L13.4 -2.8 13.55 -3.05 13.9 -3.8 14.05 -4.1 13.95 -3.25 13.45 -1.65 12.8 -0.55 11.2 1.25 11.05 0.25 10.95 0.0 11.25 -0.25 11.55 -0.5 12.45 -1.5 12.55 -1.15 12.55 -0.65 12.65 -0.65 12.65 -0.7 12.7 -0.7 12.65 -1.0 12.65 -1.25 12.55 -1.65" fill="#8080ce" fill-rule="evenodd" stroke="none"/>
  </g>
</svg>
