<?xml version="1.0" encoding="UTF-8" standalone="no"?>
<svg xmlns:ffdec="https://www.free-decompiler.com/flash" xmlns:xlink="http://www.w3.org/1999/xlink" ffdec:objectType="shape" height="20.95px" width="6.4px" xmlns="http://www.w3.org/2000/svg">
  <g transform="matrix(1.0, 0.0, 0.0, 1.0, 3.2, 10.45)">
    <path d="M-1.15 -10.25 L-1.85 -9.55 -1.85 -9.5 -1.85 -8.95 -1.8 -8.05 -1.65 -5.25 -1.4 -2.45 -1.0 0.35 -0.45 3.05 0.75 2.4 1.2 -0.6 1.5 -3.6 1.6 -6.6 1.5 -9.0 1.45 -9.65 1.45 -9.85 1.55 -9.65 1.7 -9.1 2.05 -7.6 2.6 -4.6 3.05 -1.7 3.2 1.1 2.95 4.55 2.45 6.5 1.6 8.5 0.6 10.3 -0.3 10.5 Q-1.55 8.9 -2.2 7.3 L-2.9 5.0 -3.2 2.6 -3.15 -0.05 -3.0 -1.45 -2.9 -2.75 -2.75 -4.15 -2.4 -6.8 -2.0 -9.05 -1.95 -9.45 -1.9 -9.55 -1.15 -10.25" fill="#ffff00" fill-rule="evenodd" stroke="none"/>
    <path d="M1.45 -9.85 L1.45 -9.65 1.5 -9.0 1.6 -6.6 1.5 -3.6 1.2 -0.6 0.75 2.4 -0.45 3.05 -1.0 0.35 -1.4 -2.45 -1.65 -5.25 -1.8 -8.05 -1.85 -8.95 -1.85 -9.5 -1.85 -9.55 -1.15 -10.25 -0.5 -10.4 Q0.55 -10.6 1.45 -9.85" fill="#ffffff" fill-rule="evenodd" stroke="none"/>
  </g>
</svg>
