<?xml version="1.0" encoding="UTF-8" standalone="no"?>
<svg xmlns:ffdec="https://www.free-decompiler.com/flash" xmlns:xlink="http://www.w3.org/1999/xlink" ffdec:objectType="shape" height="19.75px" width="39.15px" xmlns="http://www.w3.org/2000/svg">
  <g transform="matrix(1.0, 0.0, 0.0, 1.0, 19.55, 9.85)">
    <path d="M-0.05 -4.35 Q-0.1 -3.55 -0.4 -2.85 L-0.7 -2.15 0.0 -1.7 Q1.1 -2.0 1.2 -3.6 L1.15 -4.4 Q1.0 -5.4 0.4 -5.9 L0.15 -6.05 Q-0.15 -5.8 -0.05 -5.05 L-0.05 -4.35 M-0.2 -5.15 Q-0.45 -5.85 -0.15 -6.1 L0.75 -6.35 1.55 -6.75 2.4 -6.65 4.55 -6.9 5.5 -6.65 6.6 -6.9 7.7 -6.95 8.35 -7.9 11.0 -8.75 14.4 -9.85 14.4 -9.8 13.8 -8.75 13.75 -8.7 13.65 -8.65 10.05 -7.35 10.05 -7.3 9.7 -6.75 9.95 -6.5 14.4 -6.95 13.4 -6.4 12.4 -5.85 12.3 -5.8 12.35 -5.75 12.35 -5.7 12.65 -5.65 14.75 -6.15 19.4 -7.65 19.6 -7.7 17.95 -5.8 13.75 -4.4 13.3 -4.0 13.0 -3.5 13.0 -3.45 13.05 -3.5 13.85 -3.75 15.4 -3.55 12.35 -2.15 10.4 -1.2 10.35 -1.2 8.35 0.65 8.4 0.7 11.1 -0.45 12.2 -1.55 19.15 -4.1 18.0 -2.65 17.2 -2.2 Q15.5 -1.3 13.55 -0.65 L12.65 0.1 10.6 1.05 7.5 2.4 7.1 2.75 5.9 3.75 5.5 4.1 5.75 4.5 6.15 5.4 Q6.4 6.15 6.0 6.6 5.15 7.8 3.7 8.4 L0.05 8.25 0.15 6.75 0.2 6.75 1.35 6.1 Q2.25 5.5 2.55 4.7 L2.65 4.55 2.7 3.85 2.45 3.2 1.45 2.25 Q-0.5 1.0 -0.75 -1.35 L-0.8 -1.8 -1.0 -2.45 Q-0.25 -3.65 -0.2 -5.15 M3.0 -5.5 L2.35 -6.15 Q2.15 -6.3 2.0 -6.4 L0.8 -6.25 0.7 -5.85 0.85 -5.65 0.9 -5.55 1.35 -4.75 1.4 -4.7 Q2.3 -3.95 3.45 -4.15 L3.4 -4.75 3.4 -4.8 3.3 -5.05 3.15 -5.3 3.0 -5.5 M2.9 -5.9 L3.15 -5.5 3.2 -5.35 3.7 -4.35 3.6 -3.95 3.55 -3.85 Q2.65 -3.55 1.45 -4.45 L1.35 -4.5 1.35 -4.2 Q1.35 -2.9 0.85 -1.85 L0.75 -1.75 0.65 -1.7 0.2 -1.45 -0.35 -1.45 -0.4 -1.15 0.0 0.35 Q0.35 1.35 1.35 1.95 L2.75 3.2 Q3.3 3.95 2.65 5.0 L1.8 6.15 Q1.25 6.75 0.5 7.05 0.35 7.7 0.65 8.35 3.4 9.0 5.45 6.7 L5.5 6.65 5.55 6.6 5.65 6.45 5.7 6.4 5.9 5.9 5.9 5.8 5.85 4.85 5.6 4.65 5.15 4.35 4.95 4.5 3.3 5.4 7.1 2.45 5.75 2.4 3.45 2.0 2.3 1.55 2.95 1.75 3.0 1.75 3.05 1.8 5.7 2.3 6.5 2.4 Q7.0 2.4 7.65 2.0 L8.0 1.5 7.85 0.5 7.65 0.15 7.45 0.35 7.15 0.6 6.95 0.65 Q6.65 0.8 6.45 1.25 L4.9 0.45 4.85 0.0 4.85 -0.55 4.9 -0.7 6.15 -1.9 4.75 -3.4 4.75 -3.45 5.7 -2.65 6.3 -2.0 7.0 -2.65 6.95 -3.0 6.6 -4.1 6.4 -4.6 6.0 -5.3 5.8 -5.55 4.65 -6.65 2.6 -6.45 2.9 -5.9 M-4.9 0.15 L-8.6 -0.05 -8.85 0.1 Q-10.15 -1.6 -12.4 -1.95 L-13.3 -2.0 Q-14.65 -1.8 -15.6 -1.05 L-15.9 -0.8 -16.25 -0.55 Q-17.25 0.1 -18.5 1.8 L-18.3 1.85 -18.0 1.95 -17.95 1.95 -17.75 2.0 -17.55 2.1 Q-17.15 2.25 -16.75 2.55 L-16.6 2.65 -15.5 3.8 -15.65 3.65 Q-16.75 2.45 -18.35 2.1 L-18.45 2.1 -18.8 2.15 Q-19.3 2.4 -19.4 2.95 L-19.45 3.2 -19.45 3.45 Q-19.45 4.3 -19.05 5.2 L-18.3 6.35 Q-17.4 7.45 -16.0 7.95 L-14.3 8.35 Q-12.0 8.55 -9.8 7.5 L-9.75 7.5 -7.6 6.6 -7.5 6.3 Q-6.7 4.65 -5.45 3.45 L-4.75 2.85 -4.35 2.6 -4.15 2.45 -3.65 2.15 Q-3.4 1.95 -3.75 1.6 L-4.7 0.25 -4.75 0.2 -4.8 0.1 -4.9 0.15 M-19.2 3.2 L-19.0 2.65 -18.8 2.4 -18.4 2.4 Q-17.55 2.55 -16.85 3.05 L-16.8 3.05 Q-16.2 3.45 -15.5 4.4 L-14.9 5.35 -15.15 5.3 -15.35 5.3 -15.2 5.2 -16.15 4.2 -16.2 4.25 -16.4 4.4 -16.85 4.75 Q-17.15 5.05 -17.05 4.5 L-16.9 3.95 -16.8 3.75 -16.75 3.65 -16.75 3.4 -16.95 3.1 -17.25 3.15 -17.3 3.2 -17.4 3.4 -17.45 3.55 Q-17.9 4.5 -17.55 5.5 -16.7 6.3 -15.95 6.0 L-16.1 5.9 Q-16.65 5.65 -16.15 5.55 L-15.9 5.45 -15.75 5.4 -15.9 5.5 -15.95 5.5 -16.1 5.6 Q-15.9 5.95 -15.25 5.95 L-15.05 5.8 -15.0 5.75 -14.85 5.4 -14.85 5.45 -14.8 5.5 -14.7 5.85 -14.55 6.25 -14.5 6.45 -14.45 7.6 -14.5 7.75 -14.9 7.85 -15.45 7.85 -16.4 7.35 -16.55 7.25 -16.05 7.5 -15.65 7.65 -14.65 7.45 Q-14.4 6.85 -15.0 6.85 L-15.4 6.8 Q-16.6 6.6 -17.6 5.75 L-17.9 5.1 -18.35 3.7 -18.6 2.75 -18.65 2.65 -18.9 2.9 -18.9 2.95 -19.1 3.2 -19.2 3.2 M-4.15 0.65 L-3.25 2.0 -2.85 2.75 -2.95 2.95 Q-4.7 4.3 -6.05 5.95 L-6.7 6.95 -6.75 7.05 -6.95 8.5 -7.15 8.65 -7.45 8.8 -9.45 9.6 -10.15 9.75 Q-12.55 10.25 -14.45 8.85 L-16.3 8.1 -18.65 6.2 -19.25 5.3 -19.45 4.55 -19.55 3.25 Q-19.45 2.45 -18.9 1.85 L-15.9 -0.95 -15.3 -1.35 -14.9 -3.35 -14.95 -3.85 Q-15.05 -4.35 -14.7 -4.2 -14.35 -4.1 -14.1 -3.8 -12.8 -2.45 -11.15 -2.0 L-9.35 -1.4 -4.95 -1.15 -4.5 -0.1 -4.15 0.65 M-5.05 -0.8 L-8.45 -1.0 -10.5 -1.65 Q-9.6 -0.5 -8.05 -0.2 L-4.9 -0.25 -5.05 -0.8 M6.45 -5.2 L6.6 -5.2 7.55 -5.55 8.9 -6.15 9.95 -7.5 10.05 -7.5 13.45 -8.75 13.65 -8.85 13.7 -8.95 14.0 -9.6 13.95 -9.55 8.55 -7.8 8.1 -6.85 7.95 -6.8 6.2 -6.1 6.05 -5.9 6.45 -5.2 M9.6 -6.2 L8.9 -5.75 7.3 -5.1 6.75 -4.8 7.3 -2.95 8.2 -3.9 8.75 -4.35 9.65 -4.5 10.25 -3.65 10.35 -3.5 12.25 -5.55 9.6 -6.2 M10.05 -2.8 L10.3 -3.3 10.3 -3.45 10.1 -3.7 9.75 -3.9 9.1 -4.2 5.1 -0.45 5.15 0.2 5.45 0.55 Q5.9 1.2 6.75 0.4 L7.4 -0.25 8.0 -0.85 8.8 -1.6 10.05 -2.8 M10.55 -6.2 L10.85 -6.1 12.05 -5.95 13.4 -6.55 14.0 -6.85 11.0 -6.35 10.55 -6.2 M17.75 -6.0 L19.1 -7.5 16.7 -6.6 12.45 -5.3 12.35 -5.3 10.45 -3.4 10.6 -3.05 9.7 -1.95 9.15 -1.3 10.7 -1.95 13.55 -4.5 14.45 -4.8 16.2 -5.35 16.5 -5.45 17.75 -6.0 M6.9 -6.75 L5.65 -6.35 5.7 -6.25 5.8 -6.2 7.25 -6.8 6.9 -6.75 M11.9 -2.65 L11.85 -2.6 11.9 -2.65 11.55 -2.1 12.75 -2.55 14.95 -3.4 13.8 -3.5 13.7 -3.5 13.0 -3.3 12.35 -3.05 11.9 -2.65 M18.55 -3.65 L12.25 -1.15 12.2 -1.15 11.55 -0.55 10.8 -0.2 9.8 0.35 8.45 1.05 8.4 1.1 8.4 1.15 8.35 1.55 8.35 1.65 10.75 0.8 12.5 0.05 13.35 -0.7 17.8 -2.7 17.85 -2.75 18.6 -3.65 18.55 -3.65 M8.35 -0.5 L8.35 0.05 10.05 -1.25 8.35 -0.5 M1.65 8.1 Q0.85 8.65 1.35 7.9 L1.15 7.45 Q1.25 7.35 1.45 7.6 L1.65 8.1 M-3.1 2.85 L-3.05 2.75 Q-3.15 2.3 -3.5 2.35 L-5.25 3.65 Q-6.5 4.65 -7.2 6.35 L-7.25 6.55 -7.25 6.65 -7.1 6.8 -7.0 6.8 -6.95 6.75 -6.2 5.95 -3.1 2.85 M-7.05 7.75 L-7.0 7.25 -7.55 6.7 -9.7 7.75 -12.75 8.6 -14.05 8.75 Q-12.15 9.95 -9.9 9.5 L-9.45 9.45 Q-8.15 9.15 -7.2 8.45 L-7.05 7.75 M-14.85 -3.85 L-14.85 -3.3 Q-14.3 -2.6 -13.25 -2.25 L-12.45 -2.1 -11.8 -2.05 -12.65 -2.45 -13.1 -2.7 -14.8 -3.95 -14.85 -3.85 M-14.75 -1.7 L-14.3 -2.2 -14.85 -2.55 -14.8 -1.7 -14.75 -1.7 M-17.65 3.5 L-17.65 3.45 -17.4 3.1 Q-17.45 2.8 -17.9 2.65 L-17.9 2.9 -17.95 4.35 -17.7 3.6 -17.65 3.5 M-16.6 3.65 L-16.65 3.75 -16.9 4.25 -17.0 4.45 Q-17.1 4.8 -16.65 4.35 L-16.4 4.05 Q-16.15 3.6 -16.6 3.65 M-16.4 6.35 L-15.4 6.5 -15.05 6.65 -14.9 6.65 Q-14.7 6.2 -15.15 6.3 L-16.4 6.35" fill="#000000" fill-rule="evenodd" stroke="none"/>
    <path d="M-0.05 -4.35 L-0.05 -5.05 Q-0.15 -5.8 0.15 -6.05 L0.4 -5.9 Q1.0 -5.4 1.15 -4.4 L1.2 -3.6 Q1.1 -2.0 0.0 -1.7 L-0.7 -2.15 -0.4 -2.85 Q-0.1 -3.55 -0.05 -4.35 M-5.05 -0.8 L-4.9 -0.25 -8.05 -0.2 Q-9.6 -0.5 -10.5 -1.65 L-8.45 -1.0 -5.05 -0.8 M-3.1 2.85 L-6.2 5.95 -6.95 6.75 -7.0 6.8 -7.1 6.8 -7.25 6.65 -7.25 6.55 -7.2 6.35 Q-6.5 4.65 -5.25 3.65 L-3.5 2.35 Q-3.15 2.3 -3.05 2.75 L-3.1 2.85 M-14.85 -3.85 L-14.8 -3.95 -13.1 -2.7 -12.65 -2.45 -11.8 -2.05 -12.45 -2.1 -13.25 -2.25 Q-14.3 -2.6 -14.85 -3.3 L-14.85 -3.85" fill="#333333" fill-rule="evenodd" stroke="none"/>
    <path d="M2.1 -5.9 L2.25 -5.75 Q2.55 -5.3 2.1 -5.05 1.4 -5.35 2.1 -5.9 M0.85 -5.65 L0.85 -5.75 Q0.85 -6.15 1.15 -6.05 2.0 -5.6 0.9 -5.55 L0.85 -5.65 M3.15 -5.3 L3.15 -5.0 Q3.15 -4.5 2.85 -4.7 2.25 -5.2 3.0 -5.5 L3.15 -5.3" fill="#947afe" fill-rule="evenodd" stroke="none"/>
    <path d="M2.1 -5.9 Q1.4 -5.35 2.1 -5.05 2.55 -5.3 2.25 -5.75 L2.1 -5.9 M0.85 -5.65 L0.7 -5.85 0.8 -6.25 2.0 -6.4 Q2.15 -6.3 2.35 -6.15 L3.0 -5.5 Q2.25 -5.2 2.85 -4.7 3.15 -4.5 3.15 -5.0 L3.15 -5.3 3.3 -5.05 3.4 -4.8 3.4 -4.75 3.45 -4.15 Q2.3 -3.95 1.4 -4.7 L1.35 -4.75 0.9 -5.55 Q2.0 -5.6 1.15 -6.05 0.85 -6.15 0.85 -5.75 L0.85 -5.65 M0.85 -1.85 Q1.35 -2.9 1.35 -4.2 L1.35 -4.5 1.45 -4.45 Q2.65 -3.55 3.55 -3.85 L3.6 -3.95 3.7 -4.35 3.2 -5.35 3.15 -5.5 2.9 -5.9 3.95 -5.9 3.95 -5.75 3.95 -5.65 4.4 -5.2 4.6 -5.1 5.15 -5.1 5.8 -5.55 6.0 -5.3 6.4 -4.6 6.6 -4.1 6.95 -3.0 7.0 -2.65 6.3 -2.0 5.7 -2.65 4.75 -3.45 4.75 -3.4 6.15 -1.9 4.9 -0.7 4.85 -0.55 4.75 -0.6 Q4.55 1.45 6.5 1.85 L7.1 1.55 7.2 1.15 7.15 0.6 7.45 0.35 7.65 0.15 7.85 0.5 8.0 1.5 7.65 2.0 Q7.0 2.4 6.5 2.4 L5.7 2.3 3.05 1.8 3.0 1.75 2.95 1.75 2.85 1.7 2.7 1.65 2.55 1.6 2.4 1.55 2.3 1.5 2.25 1.5 2.15 1.45 2.1 1.45 2.05 1.4 1.9 1.3 1.75 1.25 1.55 1.15 1.5 1.1 1.45 1.05 0.85 0.55 0.5 -0.05 0.35 -0.55 0.35 -0.7 0.8 -1.8 0.85 -1.85 M4.95 4.5 L5.15 4.35 5.6 4.65 5.85 4.85 5.9 5.8 5.9 5.9 5.8 5.95 5.75 6.0 4.75 6.8 3.6 7.45 2.25 7.95 2.15 7.95 2.15 7.8 Q2.2 7.3 1.9 6.85 L2.0 6.85 2.3 6.7 2.7 6.5 3.2 6.2 3.55 5.95 4.1 5.55 4.6 5.05 4.7 4.95 4.85 4.65 4.9 4.6 4.95 4.5 M-4.9 0.15 L-4.9 0.3 -4.85 0.6 -4.5 2.05 -4.45 2.15 -4.4 2.3 -4.45 2.35 Q-6.45 3.8 -8.75 4.7 L-9.8 5.15 -10.05 4.8 -10.8 3.85 -11.1 3.55 -11.2 3.45 -10.8 3.15 -9.9 3.85 Q-9.4 3.6 -9.15 3.0 L-9.15 2.95 -9.9 3.45 -10.55 2.95 -9.45 2.2 -9.5 2.15 Q-10.45 1.0 -11.85 0.65 L-12.3 0.6 -10.75 1.9 -11.35 2.35 -12.05 1.85 -12.55 2.3 -12.85 2.7 -12.05 2.2 -11.6 2.55 -13.15 3.7 -10.3 5.35 -12.6 6.05 -13.6 6.25 -14.55 6.25 -14.7 5.85 -14.8 5.5 -14.85 5.45 -14.85 5.4 -14.9 5.35 -15.5 4.4 Q-16.2 3.45 -16.8 3.05 L-16.85 3.05 Q-17.55 2.55 -18.4 2.4 L-18.8 2.4 -19.0 2.65 -19.2 3.2 -19.25 3.2 -19.35 3.1 -19.35 3.05 -19.4 2.95 Q-19.3 2.4 -18.8 2.15 L-18.45 2.1 -18.35 2.1 Q-16.75 2.45 -15.65 3.65 L-15.5 3.8 -16.6 2.65 -16.6 2.6 -13.55 0.15 -11.95 -1.05 -12.75 -1.4 -13.65 -1.0 -14.45 -0.5 Q-16.15 0.55 -17.65 1.95 L-17.75 2.0 -17.95 1.95 -18.0 1.95 -17.95 1.9 Q-16.5 0.4 -14.75 -0.65 L-13.5 -1.4 -14.1 -1.25 -14.95 -0.75 -17.85 1.35 -18.2 1.75 -18.3 1.8 -18.3 1.85 -18.5 1.8 Q-17.25 0.1 -16.25 -0.55 L-15.9 -0.8 -15.6 -1.05 Q-14.65 -1.8 -13.3 -2.0 L-12.4 -1.95 Q-10.15 -1.6 -8.85 0.1 L-8.6 -0.05 -4.9 0.15 M-11.85 0.65 L-11.8 0.65 -11.85 0.6 -11.85 0.65 M-4.75 0.2 L-4.7 0.25 -4.75 0.25 -4.75 0.2 M-4.35 2.6 L-4.75 2.85 -4.6 2.7 -4.35 2.5 -4.35 2.55 -4.35 2.6 M5.45 0.55 L5.15 0.2 5.1 -0.45 9.1 -4.2 9.75 -3.9 10.1 -3.7 10.3 -3.45 10.3 -3.3 10.05 -2.8 10.0 -3.2 10.0 -3.3 9.95 -3.45 9.4 -3.5 5.45 0.55 M-14.75 -1.7 L-14.8 -1.7 -14.85 -2.55 -14.3 -2.2 -14.75 -1.7 M-17.45 3.55 L-17.15 3.55 -17.1 3.55 -16.95 3.9 -16.9 3.95 -17.05 4.5 Q-17.15 5.05 -16.85 4.75 L-16.4 4.4 -16.3 4.55 -16.2 4.65 -15.85 5.25 -15.8 5.35 -15.85 5.4 -15.9 5.4 -15.9 5.45 -16.15 5.55 Q-16.65 5.65 -16.1 5.9 L-15.95 6.0 Q-16.7 6.3 -17.55 5.5 -17.9 4.5 -17.45 3.55 M-15.65 7.65 L-15.65 7.6 -15.65 7.65" fill="#59648c" fill-rule="evenodd" stroke="none"/>
    <path d="M4.85 -0.55 L4.85 0.0 4.9 0.45 6.45 1.25 Q6.65 0.8 6.95 0.65 L7.15 0.6 7.2 1.15 7.1 1.55 6.5 1.85 Q4.55 1.45 4.75 -0.6 L4.85 -0.55 M2.95 1.75 L2.3 1.55 3.45 2.0 5.75 2.4 7.1 2.45 3.3 5.4 4.95 4.5 4.9 4.6 4.85 4.65 4.7 4.95 4.6 5.05 4.1 5.55 3.55 5.95 3.2 6.2 2.7 6.5 2.3 6.7 2.0 6.85 1.9 6.85 Q2.2 7.3 2.15 7.8 L2.15 7.95 2.25 7.95 3.6 7.45 4.75 6.8 5.75 6.0 5.8 5.95 5.9 5.9 5.7 6.4 5.65 6.45 5.55 6.6 5.5 6.65 5.45 6.7 Q3.4 9.0 0.65 8.35 0.35 7.7 0.5 7.05 1.25 6.75 1.8 6.15 L2.65 5.0 Q3.3 3.95 2.75 3.2 L1.35 1.95 Q0.35 1.35 0.0 0.35 L-0.4 -1.15 -0.35 -1.45 0.2 -1.45 0.65 -1.7 0.75 -1.75 0.85 -1.85 0.8 -1.8 0.35 -0.7 0.35 -0.55 0.5 -0.05 0.85 0.55 1.45 1.05 1.5 1.1 1.55 1.15 1.75 1.25 1.9 1.3 2.05 1.4 2.1 1.45 2.15 1.45 2.25 1.5 2.3 1.5 2.4 1.55 2.55 1.6 2.7 1.65 2.85 1.7 2.95 1.75 M-9.8 5.15 L-8.75 4.7 Q-6.45 3.8 -4.45 2.35 L-4.4 2.3 -4.45 2.15 -4.5 2.05 -4.85 0.6 -4.9 0.3 -4.9 0.15 -4.8 0.1 -4.75 0.2 -4.75 0.25 -4.7 0.25 -3.75 1.6 Q-3.4 1.95 -3.65 2.15 L-4.15 2.45 -4.35 2.6 -4.35 2.55 -4.35 2.5 -4.6 2.7 -4.75 2.85 -5.45 3.45 Q-6.7 4.65 -7.5 6.3 L-7.6 6.6 -9.75 7.5 -9.8 7.5 Q-12.0 8.55 -14.3 8.35 L-16.0 7.95 Q-17.4 7.45 -18.3 6.35 L-19.05 5.2 Q-19.45 4.3 -19.45 3.45 L-19.45 3.2 -19.4 2.95 -19.35 3.05 -19.35 3.1 -19.25 3.2 -19.2 3.2 -19.1 3.2 -18.9 2.95 -18.9 2.9 -18.65 2.65 -18.6 2.75 -18.35 3.7 -17.9 5.1 -17.6 5.75 Q-16.6 6.6 -15.4 6.8 L-15.0 6.85 Q-14.4 6.85 -14.65 7.45 L-15.65 7.65 -16.05 7.5 -16.55 7.25 -16.4 7.35 -15.45 7.85 -14.9 7.85 -14.5 7.75 -14.45 7.6 -14.5 6.45 -14.55 6.25 -13.6 6.25 -12.6 6.05 -10.3 5.35 -9.45 5.85 -9.8 5.15 M-14.9 5.35 L-14.85 5.4 -15.0 5.75 -15.05 5.8 -15.25 5.95 Q-15.9 5.95 -16.1 5.6 L-15.95 5.5 -15.9 5.5 -15.75 5.4 -15.9 5.45 -15.9 5.4 -15.85 5.4 -15.8 5.35 -15.85 5.25 -16.2 4.65 -16.3 4.55 -16.4 4.4 -16.2 4.25 -16.15 4.2 -15.2 5.2 -15.35 5.3 -15.15 5.3 -14.9 5.35 M10.05 -2.8 L8.8 -1.6 8.0 -0.85 7.4 -0.25 6.75 0.4 Q5.9 1.2 5.45 0.55 L9.4 -3.5 9.95 -3.45 10.0 -3.3 10.0 -3.2 10.05 -2.8 M1.65 8.1 L1.45 7.6 Q1.25 7.35 1.15 7.45 L1.35 7.9 Q0.85 8.65 1.65 8.1 M-7.05 7.75 L-7.2 8.45 Q-8.15 9.15 -9.45 9.45 L-9.9 9.5 Q-12.15 9.95 -14.05 8.75 L-12.75 8.6 -9.7 7.75 -7.55 6.7 -7.0 7.25 -7.05 7.75 M-17.65 3.5 L-17.7 3.6 -17.95 4.35 -17.9 2.9 -17.9 2.65 Q-17.45 2.8 -17.4 3.1 L-17.65 3.45 -17.65 3.5 M-16.9 3.95 L-16.95 3.9 -17.1 3.55 -17.15 3.55 -17.45 3.55 -17.4 3.4 -17.3 3.2 -17.25 3.15 -16.95 3.1 -16.75 3.4 -16.75 3.65 -16.8 3.75 -16.9 3.95 M-16.6 3.65 Q-16.15 3.6 -16.4 4.05 L-16.65 4.35 Q-17.1 4.8 -17.0 4.45 L-16.9 4.25 -16.65 3.75 -16.6 3.65 M-16.4 6.35 L-15.15 6.3 Q-14.7 6.2 -14.9 6.65 L-15.05 6.65 -15.4 6.5 -16.4 6.35 M-15.65 7.65 L-15.65 7.6 -15.65 7.65" fill="#414756" fill-rule="evenodd" stroke="none"/>
    <path d="M6.45 -5.2 L6.05 -5.9 6.2 -6.1 7.95 -6.8 8.1 -6.85 8.55 -7.8 13.95 -9.55 14.0 -9.6 13.7 -8.95 13.65 -8.85 13.6 -8.85 13.45 -8.9 13.4 -8.9 13.25 -8.85 13.2 -8.85 9.75 -7.6 9.7 -7.55 8.75 -6.25 6.45 -5.2 M9.95 -7.5 L9.95 -7.55 9.95 -7.5 M9.7 -1.95 L10.6 -3.05 10.45 -3.4 12.35 -5.3 12.45 -5.3 16.7 -6.6 19.1 -7.5 17.75 -6.0 17.6 -6.1 14.05 -5.1 13.75 -5.0 13.2 -4.55 12.45 -4.0 10.9 -2.5 10.8 -2.4 10.75 -2.4 10.65 -2.3 9.7 -1.95 M11.9 -2.65 L12.35 -3.05 13.0 -3.3 13.7 -3.5 13.8 -3.5 14.95 -3.4 12.75 -2.55 11.55 -2.1 11.9 -2.65 M9.8 0.35 L10.8 -0.2 11.55 -0.55 12.2 -1.15 12.25 -1.15 18.55 -3.65 16.9 -2.65 12.75 -1.1 12.55 -1.0 11.65 -0.35 10.15 0.25 9.8 0.35" fill="#ffffff" fill-rule="evenodd" stroke="none"/>
    <path d="M2.9 -5.9 L2.6 -6.45 4.65 -6.65 5.8 -5.55 5.15 -5.1 4.6 -5.1 4.4 -5.2 3.95 -5.65 3.95 -5.75 3.95 -5.9 2.9 -5.9 M-18.3 1.85 L-18.3 1.8 -18.2 1.75 -17.85 1.35 -14.95 -0.75 -14.1 -1.25 -13.5 -1.4 -14.75 -0.65 Q-16.5 0.4 -17.95 1.9 L-18.0 1.95 -18.3 1.85 M-17.75 2.0 L-17.65 1.95 Q-16.15 0.55 -14.45 -0.5 L-13.65 -1.0 -12.75 -1.4 -11.95 -1.05 -13.55 0.15 -16.6 2.6 -16.6 2.65 -16.75 2.55 Q-17.15 2.25 -17.55 2.1 L-17.75 2.0 M13.65 -8.85 L13.45 -8.75 10.05 -7.5 9.95 -7.5 8.9 -6.15 7.55 -5.55 6.6 -5.2 6.45 -5.2 8.75 -6.25 9.7 -7.55 9.75 -7.6 13.2 -8.85 13.25 -8.85 13.4 -8.9 13.45 -8.9 13.6 -8.85 13.65 -8.85 M9.95 -7.5 L9.95 -7.55 9.95 -7.5 M10.55 -6.2 L11.0 -6.35 14.0 -6.85 13.4 -6.55 12.05 -5.95 10.85 -6.1 10.55 -6.2 M17.75 -6.0 L16.5 -5.45 16.2 -5.35 14.45 -4.8 13.55 -4.5 10.7 -1.95 9.15 -1.3 9.7 -1.95 10.65 -2.3 10.75 -2.4 10.8 -2.4 10.9 -2.5 12.45 -4.0 13.2 -4.55 13.75 -5.0 14.05 -5.1 17.6 -6.1 17.75 -6.0 M6.9 -6.75 L7.25 -6.8 5.8 -6.2 5.7 -6.25 5.65 -6.35 6.9 -6.75 M18.55 -3.65 L18.6 -3.65 17.85 -2.75 17.8 -2.7 13.35 -0.7 12.5 0.05 10.75 0.8 8.35 1.65 8.35 1.55 8.4 1.15 8.4 1.1 8.45 1.05 9.8 0.35 10.15 0.25 11.65 -0.35 12.55 -1.0 12.75 -1.1 16.9 -2.65 18.55 -3.65" fill="#c2c7d3" fill-rule="evenodd" stroke="none"/>
    <path d="M9.6 -6.2 L9.55 -6.05 9.55 -5.7 9.4 -5.35 9.35 -5.3 8.4 -5.2 7.3 -5.1 8.9 -5.75 9.6 -6.2 M8.35 -0.5 L10.05 -1.25 8.35 0.05 8.35 -0.5" fill="#912020" fill-rule="evenodd" stroke="none"/>
    <path d="M-11.6 2.55 L-12.05 2.2 -12.85 2.7 -12.55 2.3 -12.05 1.85 -11.35 2.35 -11.15 2.5 -11.05 2.6 -10.2 2.05 -10.9 1.3 Q-10.55 1.45 -10.25 1.7 L-10.0 2.25 -10.8 2.7 -10.7 2.8 -10.55 2.95 -9.9 3.45 -9.15 2.95 -9.15 3.0 Q-9.4 3.6 -9.9 3.85 L-10.8 3.15 -11.0 3.05 -11.1 2.95 -11.25 3.0 -11.85 3.45 -10.7 4.55 -12.25 3.6 -11.35 2.8 -11.3 2.75 -11.4 2.65 -11.6 2.55 M7.3 -5.1 L8.4 -5.2 9.35 -5.3 9.4 -5.35 9.55 -5.7 9.55 -6.05 9.6 -6.2 12.25 -5.55 10.35 -3.5 10.25 -3.65 9.65 -4.5 8.75 -4.35 8.2 -3.9 7.3 -2.95 6.75 -4.8 7.3 -5.1" fill="#d53e3e" fill-rule="evenodd" stroke="none"/>
    <path d="M-11.85 0.65 L-11.85 0.6 -11.8 0.65 -11.85 0.65 M-11.15 2.5 L-10.4 2.0 -11.5 0.95 -11.35 1.0 -11.5 0.95 -11.2 1.05 Q-10.25 1.35 -9.75 2.2 L-10.7 2.8 -10.8 2.7 -10.0 2.25 -10.25 1.7 Q-10.55 1.45 -10.9 1.3 L-10.2 2.05 -11.05 2.6 -11.15 2.5 M-11.0 3.05 L-11.5 3.45 -10.65 4.3 -9.95 5.2 -9.9 5.3 -12.7 3.65 -11.4 2.7 -11.4 2.65 -11.3 2.75 -11.35 2.8 -12.25 3.6 -10.7 4.55 -11.85 3.45 -11.25 3.0 -11.1 2.95 -11.0 3.05" fill="#ffff99" fill-rule="evenodd" stroke="none"/>
    <path d="M-10.3 5.35 L-13.15 3.7 -11.6 2.55 -11.4 2.65 -11.4 2.7 -12.7 3.65 -9.9 5.3 -9.95 5.2 -10.65 4.3 -11.5 3.45 -11.0 3.05 -10.8 3.15 -11.2 3.45 -11.1 3.55 -10.8 3.85 -10.05 4.8 -9.8 5.15 -9.45 5.85 -10.3 5.35 M-11.35 2.35 L-10.75 1.9 -12.3 0.6 -11.85 0.65 Q-10.45 1.0 -9.5 2.15 L-9.45 2.2 -10.55 2.95 -10.7 2.8 -9.75 2.2 Q-10.25 1.35 -11.2 1.05 L-11.5 0.95 -11.35 1.0 -11.5 0.95 -10.4 2.0 -11.15 2.5 -11.35 2.35" fill="#9ca5be" fill-rule="evenodd" stroke="none"/>
  </g>
</svg>
