<?xml version="1.0" encoding="UTF-8" standalone="no"?>
<svg xmlns:ffdec="https://www.free-decompiler.com/flash" xmlns:xlink="http://www.w3.org/1999/xlink" ffdec:objectType="shape" height="16.65px" width="18.4px" xmlns="http://www.w3.org/2000/svg">
  <g transform="matrix(1.0, 0.0, 0.0, 1.0, 9.2, 8.3)">
    <path d="M2.55 -8.2 L2.9 -7.9 3.25 -7.4 3.2 -7.45 4.5 -5.95 Q6.25 -3.9 8.6 -2.1 L8.7 -2.05 Q9.3 -1.5 9.2 -0.55 L8.95 0.0 8.7 0.2 Q7.5 2.5 6.65 5.05 L6.25 5.5 5.7 5.7 4.0 5.65 3.5 5.5 3.15 5.1 3.05 4.6 Q3.1 3.65 4.0 3.3 L4.6 3.2 6.35 -0.8 Q3.6 -2.95 1.6 -5.85 -0.55 -5.7 -2.5 -4.75 L-3.1 -4.65 -3.35 -4.7 -3.9 -5.2 -4.0 -5.9 -3.55 -6.45 Q-1.0 -8.15 2.05 -8.3 L2.55 -8.2 M-8.55 -2.75 L-8.1 -2.65 -4.8 -2.75 Q-3.4 -2.6 -2.35 -1.85 -1.0 -0.95 -0.35 0.55 0.1 1.65 0.15 2.85 L-0.05 4.8 -0.85 5.75 Q-1.55 6.2 -2.3 6.05 L-2.45 5.85 -2.9 5.65 -3.3 5.7 Q-3.6 5.7 -3.85 5.95 L-4.0 6.25 -4.1 6.55 -4.1 6.75 -3.95 7.15 Q-3.1 8.4 -1.65 7.85 L-1.7 7.9 -0.15 7.2 -0.1 7.2 Q0.9 6.45 1.45 5.3 L1.5 5.25 2.05 3.75 Q2.25 2.8 2.05 1.75 1.05 -2.45 -3.0 -3.95 -5.75 -5.0 -8.45 -3.9 L-8.75 -3.55 -8.8 -3.1 -8.55 -2.75 M2.4 -7.9 L2.1 -8.0 Q-0.9 -7.85 -3.4 -6.2 L-3.65 -5.8 -3.6 -5.35 -3.25 -5.0 -3.1 -5.0 -2.65 -5.05 Q-0.55 -6.1 1.75 -6.2 3.8 -3.1 6.75 -0.9 L4.8 3.5 4.1 3.6 Q3.4 3.85 3.35 4.6 L3.45 4.95 3.65 5.2 4.0 5.3 5.7 5.35 6.1 5.25 6.35 4.95 Q7.25 2.35 8.45 -0.05 L8.7 -0.2 8.85 -0.55 Q8.95 -1.35 8.45 -1.8 L8.4 -1.85 Q6.05 -3.7 4.25 -5.7 L3.0 -7.2 2.65 -7.7 2.4 -7.9 M-8.7 -2.45 L-9.15 -3.0 -9.05 -3.7 -8.55 -4.2 Q-5.75 -5.35 -2.9 -4.25 1.35 -2.7 2.35 1.7 2.6 2.8 2.35 3.8 L1.75 5.45 1.8 5.4 Q1.15 6.65 0.1 7.45 L0.0 7.5 -1.55 8.2 -1.65 8.2 Q-3.25 8.75 -4.25 7.3 L-4.4 6.75 -4.4 6.55 -4.35 6.2 -4.1 5.7 Q-3.75 5.35 -3.35 5.4 L-2.9 5.35 Q-2.5 5.3 -2.2 5.6 L-2.05 5.8 -1.0 5.5 -0.4 4.7 -0.15 2.85 Q-0.2 1.7 -0.65 0.7 -1.3 -0.75 -2.55 -1.6 -3.55 -2.3 -4.85 -2.4 L-8.05 -2.35 -8.7 -2.45" fill="#00ff00" fill-opacity="0.32941177" fill-rule="evenodd" stroke="none"/>
    <path d="M2.4 -7.9 L2.65 -7.7 3.0 -7.2 4.25 -5.7 Q6.05 -3.7 8.4 -1.85 L8.45 -1.8 Q8.95 -1.35 8.85 -0.55 L8.7 -0.2 8.45 -0.05 Q7.25 2.35 6.35 4.95 L6.1 5.25 5.7 5.35 4.0 5.3 3.65 5.2 3.45 4.95 3.35 4.6 Q3.4 3.85 4.1 3.6 L4.8 3.5 6.75 -0.9 Q3.8 -3.1 1.75 -6.2 -0.55 -6.1 -2.65 -5.05 L-3.1 -5.0 -3.25 -5.0 -3.6 -5.35 -3.65 -5.8 -3.4 -6.2 Q-0.9 -7.85 2.1 -8.0 L2.4 -7.9 M-8.55 -2.75 L-8.8 -3.1 -8.75 -3.55 -8.45 -3.9 Q-5.75 -5.0 -3.0 -3.95 1.05 -2.45 2.05 1.75 2.25 2.8 2.05 3.75 L1.5 5.25 1.45 5.3 Q0.9 6.45 -0.1 7.2 L-0.15 7.2 -1.7 7.9 -1.65 7.85 Q-3.1 8.4 -3.95 7.15 L-4.1 6.75 -4.1 6.55 -4.0 6.25 -3.85 5.95 Q-3.6 5.7 -3.3 5.7 L-2.9 5.65 -2.45 5.85 -2.3 6.05 Q-1.55 6.2 -0.85 5.75 L-0.05 4.8 0.15 2.85 Q0.1 1.65 -0.35 0.55 -1.0 -0.95 -2.35 -1.85 -3.4 -2.6 -4.8 -2.75 L-8.1 -2.65 -8.55 -2.75 M2.25 -7.65 L2.1 -7.65 Q-0.8 -7.5 -3.2 -5.9 L-3.35 -5.7 -3.3 -5.5 -3.15 -5.35 -3.0 -5.3 -2.75 -5.3 Q-0.5 -6.45 1.95 -6.5 4.05 -3.25 7.15 -1.0 L5.0 3.85 4.2 3.9 Q3.7 4.1 3.7 4.65 L3.7 4.8 3.85 4.95 4.0 5.0 5.7 5.05 5.9 5.0 6.0 4.8 Q6.95 2.15 8.25 -0.35 L8.3 -0.3 8.45 -0.4 8.55 -0.6 Q8.6 -1.25 8.25 -1.55 L8.2 -1.6 Q5.85 -3.45 4.0 -5.5 L2.75 -7.0 2.4 -7.5 2.25 -7.65 M-8.35 -3.0 L-8.15 -2.95 -4.8 -3.05 -4.75 -3.05 Q-3.3 -2.95 -2.2 -2.15 L-2.15 -2.1 Q-0.75 -1.2 -0.05 0.45 0.45 1.6 0.5 2.85 L0.25 4.9 Q0.05 5.5 -0.65 6.05 -1.55 6.6 -2.55 6.35 L-2.55 6.3 -2.65 6.1 -2.9 6.0 -3.35 6.05 Q-3.5 6.05 -3.6 6.2 L-3.7 6.4 -3.75 6.4 -3.75 6.55 -3.75 6.75 -3.7 6.95 Q-3.0 8.0 -1.8 7.55 L-1.8 7.6 -0.3 6.95 Q0.65 6.25 1.2 5.1 L1.2 5.15 1.75 3.7 Q1.95 2.8 1.75 1.85 0.8 -2.2 -3.1 -3.65 -5.75 -4.65 -8.3 -3.6 L-8.5 -3.45 -8.5 -3.2 -8.35 -3.0" fill="#00ff00" fill-opacity="0.6627451" fill-rule="evenodd" stroke="none"/>
    <path d="M-8.35 -3.0 L-8.5 -3.2 -8.5 -3.45 -8.3 -3.6 Q-5.75 -4.65 -3.1 -3.65 0.8 -2.2 1.75 1.85 1.95 2.8 1.75 3.7 L1.2 5.15 1.2 5.1 Q0.65 6.25 -0.3 6.95 L-1.8 7.6 -1.8 7.55 Q-3.0 8.0 -3.7 6.95 L-3.75 6.75 -3.75 6.55 -3.75 6.4 -3.7 6.4 -3.6 6.2 Q-3.5 6.05 -3.35 6.05 L-2.9 6.0 -2.65 6.1 -2.55 6.3 -2.55 6.35 Q-1.55 6.6 -0.65 6.05 0.05 5.5 0.25 4.9 L0.5 2.85 Q0.45 1.6 -0.05 0.45 -0.75 -1.2 -2.15 -2.1 L-2.2 -2.15 Q-3.3 -2.95 -4.75 -3.05 L-4.8 -3.05 -8.15 -2.95 -8.35 -3.0 M2.25 -7.65 L2.4 -7.5 2.75 -7.0 4.0 -5.5 Q5.85 -3.45 8.2 -1.6 L8.25 -1.55 Q8.6 -1.25 8.55 -0.6 L8.45 -0.4 8.3 -0.3 8.25 -0.35 Q6.95 2.15 6.0 4.8 L5.9 5.0 5.7 5.05 4.0 5.0 3.85 4.95 3.7 4.8 3.7 4.65 Q3.7 4.1 4.2 3.9 L5.0 3.85 7.15 -1.0 Q4.05 -3.25 1.95 -6.5 -0.5 -6.45 -2.75 -5.3 L-3.0 -5.3 -3.15 -5.35 -3.3 -5.5 -3.35 -5.7 -3.2 -5.9 Q-0.8 -7.5 2.1 -7.65 L2.25 -7.65" fill="#00ff00" fill-rule="evenodd" stroke="none"/>
  </g>
</svg>
