<?xml version="1.0" encoding="UTF-8" standalone="no"?>
<svg xmlns:ffdec="https://www.free-decompiler.com/flash" xmlns:xlink="http://www.w3.org/1999/xlink" ffdec:objectType="shape" height="321.05px" width="271.9px" xmlns="http://www.w3.org/2000/svg">
  <g transform="matrix(1.0, 0.0, 0.0, 1.0, 31.75, 44.45)">
    <path d="M114.35 -38.15 L129.6 -36.4 143.45 -36.2 142.6 -20.5 199.1 -44.2 141.8 37.85 231.2 -8.15 240.15 5.8 185.55 59.9 234.55 48.3 169.7 115.7 215.95 105.25 201.3 141.3 202.9 145.15 215.65 138.15 230.7 161.45 226.7 168.45 234.55 172.35 214.35 198.9 226.6 198.55 228.85 201.8 197.95 235.55 196.85 236.5 161.3 258.05 162.9 247.65 145.95 253.9 138.2 255.1 139.6 247.7 105.85 276.6 99.75 264.8 86.95 269.85 96.5 247.3 73.05 253.25 33.45 252.8 35.1 239.1 20.85 238.2 18.3 216.4 -24.55 236.35 16.15 161.4 1.8 146.85 68.1 65.2 Q26.2 99.05 -22.1 119.4 -25.5 120.9 -26.0 116.75 -29.3 88.15 -4.2 71.75 L-28.8 69.8 -31.75 60.5 79.25 -34.05 89.6 -31.55 110.05 -44.45 114.35 -38.15" fill="#000000" fill-opacity="0.6" fill-rule="evenodd" stroke="none"/>
  </g>
</svg>
