<?xml version="1.0" encoding="UTF-8" standalone="no"?>
<svg xmlns:ffdec="https://www.free-decompiler.com/flash" xmlns:xlink="http://www.w3.org/1999/xlink" ffdec:objectType="shape" height="40.1px" width="49.9px" xmlns="http://www.w3.org/2000/svg">
  <g transform="matrix(1.0, 0.0, 0.0, 1.0, 24.95, 20.05)">
    <path d="M6.3 20.05 L-6.3 20.05 -6.25 12.3 -6.25 11.55 Q-6.2 10.9 -5.7 10.35 -5.2 9.85 -4.3 9.45 -2.6 8.6 -0.25 8.45 L0.0 8.45 0.3 8.45 Q2.6 8.6 4.3 9.45 5.2 9.85 5.7 10.35 6.2 10.9 6.25 11.55 L6.3 12.3 6.3 20.05 M-3.85 2.8 L-3.85 -1.25 Q-3.8 -2.2 -2.75 -2.9 -1.7 -3.55 -0.25 -3.6 L0.0 -3.6 0.3 -3.6 Q1.7 -3.55 2.75 -2.9 3.8 -2.2 3.85 -1.25 L3.85 2.8 -3.85 2.8 M-16.75 7.75 L-16.65 8.3 -16.65 13.6 -19.45 13.6 -19.45 8.9 Q-19.45 8.3 -18.95 7.9 -18.45 7.45 -17.7 7.5 L-16.75 7.75 M16.8 7.75 L17.7 7.5 Q18.4 7.45 18.95 7.9 19.4 8.3 19.4 8.9 L19.4 13.6 16.65 13.6 16.65 8.3 Q16.65 8.0 16.8 7.75" fill="#af015c" fill-rule="evenodd" stroke="none"/>
    <path d="M11.45 -5.65 L11.85 -5.35 11.85 -5.3 12.0 -5.15 Q12.65 -4.45 12.65 -3.65 12.6 -1.8 9.15 -0.45 L9.15 -3.55 Q9.1 -5.05 6.6 -6.15 4.0 -7.2 0.3 -7.2 L0.0 -7.2 -0.25 -7.2 -0.35 -7.2 Q-4.0 -7.2 -6.6 -6.15 -9.15 -5.05 -9.15 -3.55 L-9.15 -0.45 Q-12.65 -1.8 -12.65 -3.65 -12.65 -4.45 -12.0 -5.15 L-11.8 -5.3 -11.8 -5.35 -11.45 -5.65 Q-10.55 -6.35 -9.0 -6.9 -5.4 -8.25 -0.25 -8.25 L-0.1 -8.25 0.1 -8.25 0.3 -8.25 Q5.4 -8.25 9.0 -6.9 10.55 -6.35 11.45 -5.65 M6.7 20.05 L6.3 20.05 6.3 12.3 6.25 11.55 Q6.2 10.9 5.7 10.35 5.2 9.85 4.3 9.45 2.6 8.6 0.3 8.45 L0.0 8.45 -0.25 8.45 Q-2.6 8.6 -4.3 9.45 -5.2 9.85 -5.7 10.35 -6.2 10.9 -6.25 11.55 L-6.25 12.3 -6.3 20.05 -6.7 20.05 -6.7 11.05 -6.6 10.6 -6.15 9.9 Q-5.75 9.4 -4.7 8.9 -2.85 8.0 -0.25 7.9 L-0.15 7.9 0.15 7.9 0.3 7.9 Q2.85 8.0 4.7 8.9 5.7 9.4 6.15 9.9 L6.6 10.6 6.7 11.05 6.7 20.05 M-3.85 2.8 L-4.1 2.8 -4.1 -2.15 -4.1 -2.2 Q-4.05 -3.15 -2.9 -3.8 -1.8 -4.45 -0.25 -4.5 L-0.05 -4.5 0.05 -4.5 0.15 -4.5 0.3 -4.5 Q1.8 -4.45 2.9 -3.8 4.0 -3.15 4.1 -2.2 L4.1 -2.15 4.1 2.8 3.85 2.8 3.85 -1.25 Q3.8 -2.2 2.75 -2.9 1.7 -3.55 0.3 -3.6 L0.0 -3.6 -0.25 -3.6 Q-1.7 -3.55 -2.75 -2.9 -3.8 -2.2 -3.85 -1.25 L-3.85 2.8 M-19.45 13.6 L-20.2 13.6 -20.2 8.3 Q-20.2 7.65 -19.7 7.25 -19.2 6.8 -18.45 6.8 -17.7 6.8 -17.15 7.25 L-16.75 7.75 -17.7 7.5 Q-18.45 7.45 -18.95 7.9 -19.45 8.3 -19.45 8.9 L-19.45 13.6 M16.8 7.75 Q16.9 7.45 17.15 7.25 17.7 6.8 18.45 6.8 19.15 6.8 19.7 7.25 20.2 7.65 20.2 8.3 L20.2 13.6 19.4 13.6 19.4 8.9 Q19.4 8.3 18.95 7.9 18.4 7.45 17.7 7.5 L16.8 7.75" fill="#fe5cb1" fill-rule="evenodd" stroke="none"/>
    <path d="M-11.45 -5.65 L-0.7 -14.75 -0.7 -19.85 0.5 -19.95 3.25 -19.2 3.25 -18.25 6.45 -16.95 5.6 -16.25 Q4.25 -15.3 2.55 -15.35 L2.55 -15.65 2.55 -15.7 2.4 -15.9 0.4 -16.35 0.35 -16.4 0.35 -15.2 0.35 -15.0 11.45 -5.65 Q10.55 -6.35 9.0 -6.9 5.4 -8.25 0.3 -8.25 L0.25 -8.25 0.1 -8.25 -0.1 -8.25 -0.2 -8.25 -0.25 -8.25 Q-5.4 -8.25 -9.0 -6.9 -10.55 -6.35 -11.45 -5.65 M9.15 -0.45 L9.15 8.9 11.4 8.9 11.4 3.75 Q11.45 2.55 13.4 1.7 L13.85 1.55 13.85 3.85 Q15.05 3.4 16.55 3.25 L16.55 0.9 18.2 0.85 20.65 1.0 20.65 3.35 23.0 4.0 23.25 4.2 23.25 1.85 Q24.85 2.6 24.95 3.65 L24.95 20.05 6.7 20.05 6.7 11.05 6.6 10.6 6.15 9.9 Q5.7 9.4 4.7 8.9 2.85 8.0 0.3 7.9 L0.15 7.9 -0.15 7.9 -0.25 7.9 Q-2.85 8.0 -4.7 8.9 -5.75 9.4 -6.15 9.9 L-6.6 10.6 -6.7 11.05 -6.7 20.05 -24.95 20.05 -24.95 3.65 Q-24.85 2.6 -23.25 1.85 L-23.25 4.2 -23.0 4.0 -20.65 3.35 -20.65 1.0 -18.2 0.85 -16.5 0.9 -16.5 3.25 -13.8 3.85 -13.8 1.55 -13.4 1.7 Q-11.45 2.55 -11.4 3.75 L-11.4 8.9 -9.15 8.9 -9.15 -0.45 -9.15 -3.55 Q-9.15 -5.05 -6.6 -6.15 -4.0 -7.2 -0.35 -7.2 L-0.25 -7.2 0.0 -7.2 0.3 -7.2 Q4.0 -7.2 6.6 -6.15 9.1 -5.05 9.15 -3.55 L9.15 -0.45 M3.85 2.8 L4.1 2.8 4.1 -2.15 4.1 -2.2 Q4.0 -3.15 2.9 -3.8 1.8 -4.45 0.3 -4.5 L0.15 -4.5 0.05 -4.5 -0.05 -4.5 -0.25 -4.5 Q-1.8 -4.45 -2.9 -3.8 -4.05 -3.15 -4.1 -2.2 L-4.1 -2.15 -4.1 2.8 -3.85 2.8 3.85 2.8 M-19.45 13.6 L-16.65 13.6 -16.65 8.3 -16.75 7.75 -17.15 7.25 Q-17.7 6.8 -18.45 6.8 -19.2 6.8 -19.7 7.25 -20.2 7.65 -20.2 8.3 L-20.2 13.6 -19.45 13.6 M19.4 13.6 L20.2 13.6 20.2 8.3 Q20.2 7.65 19.7 7.25 19.15 6.8 18.45 6.8 17.7 6.8 17.15 7.25 16.9 7.45 16.8 7.75 16.65 8.0 16.65 8.3 L16.65 13.6 19.4 13.6" fill="#ff99cc" fill-rule="evenodd" stroke="none"/>
  </g>
</svg>
