<?xml version="1.0" encoding="UTF-8" standalone="no"?>
<svg xmlns:ffdec="https://www.free-decompiler.com/flash" xmlns:xlink="http://www.w3.org/1999/xlink" ffdec:objectType="shape" height="13.3px" width="12.9px" xmlns="http://www.w3.org/2000/svg">
  <g transform="matrix(1.0, 0.0, 0.0, 1.0, 6.45, 6.65)">
    <path d="M-3.95 -4.15 Q-3.95 -3.6 -4.3 -3.2 -4.7 -2.85 -5.2 -2.85 -5.7 -2.85 -6.05 -3.2 -6.45 -3.6 -6.45 -4.15 -6.45 -4.7 -6.05 -5.05 -5.7 -5.45 -5.2 -5.45 -4.7 -5.45 -4.3 -5.05 -3.95 -4.7 -3.95 -4.15 M-4.1 -4.15 Q-4.1 -4.55 -4.4 -4.85 -4.7 -5.15 -5.1 -5.15 L-5.8 -4.85 -6.1 -4.15 -5.8 -3.45 Q-5.5 -3.15 -5.1 -3.15 -4.7 -3.15 -4.4 -3.45 -4.1 -3.75 -4.1 -4.15 M-2.3 -1.7 Q-1.8 -2.2 -1.1 -2.2 -0.4 -2.2 0.1 -1.7 0.6 -1.2 0.6 -0.5 0.6 0.2 0.1 0.7 -0.4 1.2 -1.1 1.2 -1.8 1.2 -2.3 0.7 -2.8 0.2 -2.8 -0.5 -2.8 -1.2 -2.3 -1.7 M-2.15 -1.5 Q-2.55 -1.1 -2.55 -0.5 -2.55 0.1 -2.15 0.5 -1.75 0.9 -1.15 0.9 -0.55 0.9 -0.15 0.5 0.25 0.1 0.25 -0.5 0.25 -1.1 -0.15 -1.5 -0.55 -1.9 -1.15 -1.9 -1.75 -1.9 -2.15 -1.5 M6.45 -4.8 Q6.45 -4.05 5.9 -3.5 5.35 -2.95 4.6 -2.95 3.85 -2.95 3.3 -3.5 2.75 -4.05 2.75 -4.8 2.75 -5.55 3.3 -6.1 3.85 -6.65 4.6 -6.65 5.35 -6.65 5.9 -6.1 6.45 -5.55 6.45 -4.8 M5.7 -3.65 Q6.15 -4.15 6.15 -4.8 6.15 -5.45 5.7 -5.9 5.2 -6.4 4.55 -6.4 3.9 -6.4 3.45 -5.9 2.95 -5.45 2.95 -4.8 2.95 -4.15 3.45 -3.65 3.9 -3.2 4.55 -3.2 5.2 -3.2 5.7 -3.65 M3.05 4.2 Q2.65 4.55 2.65 5.05 2.65 5.55 3.05 5.9 3.4 6.25 3.9 6.25 4.4 6.25 4.8 5.9 L5.15 5.05 Q5.15 4.55 4.8 4.2 4.4 3.85 3.9 3.85 3.4 3.85 3.05 4.2 M2.8 4.0 Q3.25 3.55 3.9 3.55 4.55 3.55 5.0 4.0 5.45 4.45 5.45 5.1 5.45 5.75 5.0 6.2 4.55 6.65 3.9 6.65 3.25 6.65 2.8 6.2 2.35 5.75 2.35 5.1 2.35 4.45 2.8 4.0" fill="#00ff00" fill-opacity="0.32941177" fill-rule="evenodd" stroke="none"/>
    <path d="M-4.1 -4.15 Q-4.1 -3.75 -4.4 -3.45 -4.7 -3.15 -5.1 -3.15 -5.5 -3.15 -5.8 -3.45 L-6.1 -4.15 -5.8 -4.85 -5.1 -5.15 Q-4.7 -5.15 -4.4 -4.85 -4.1 -4.55 -4.1 -4.15 M-5.1 -4.85 L-5.55 -4.65 -5.75 -4.2 -5.55 -3.75 Q-5.35 -3.55 -5.1 -3.55 L-4.65 -3.75 -4.45 -4.2 -4.65 -4.65 -5.1 -4.85 M-2.15 -1.5 Q-1.75 -1.9 -1.15 -1.9 -0.55 -1.9 -0.15 -1.5 0.25 -1.1 0.25 -0.5 0.25 0.1 -0.15 0.5 -0.55 0.9 -1.15 0.9 -1.75 0.9 -2.15 0.5 -2.55 0.1 -2.55 -0.5 -2.55 -1.1 -2.15 -1.5 M5.7 -3.65 Q5.2 -3.2 4.55 -3.2 3.9 -3.2 3.45 -3.65 2.95 -4.15 2.95 -4.8 2.95 -5.45 3.45 -5.9 3.9 -6.4 4.55 -6.4 5.2 -6.4 5.7 -5.9 6.15 -5.45 6.15 -4.8 6.15 -4.15 5.7 -3.65 M-0.15 -0.55 Q-0.15 -1.0 -0.45 -1.3 -0.75 -1.6 -1.15 -1.6 L-1.85 -1.3 -2.15 -0.55 Q-2.15 -0.1 -1.85 0.2 L-1.15 0.5 Q-0.75 0.5 -0.45 0.2 -0.15 -0.1 -0.15 -0.55 M4.5 -6.1 Q4.0 -6.1 3.65 -5.7 3.25 -5.35 3.25 -4.85 3.25 -4.35 3.65 -3.95 4.0 -3.6 4.5 -3.6 5.0 -3.6 5.4 -3.95 5.75 -4.35 5.75 -4.85 L5.4 -5.7 Q5.0 -6.1 4.5 -6.1 M3.05 4.2 Q3.4 3.85 3.9 3.85 4.4 3.85 4.8 4.2 5.15 4.55 5.15 5.05 L4.8 5.9 Q4.4 6.25 3.9 6.25 3.4 6.25 3.05 5.9 2.65 5.55 2.65 5.05 2.65 4.55 3.05 4.2 M4.6 4.4 Q4.3 4.1 3.9 4.1 3.5 4.1 3.25 4.4 2.95 4.65 2.95 5.0 2.95 5.35 3.25 5.65 L3.9 5.9 4.6 5.65 4.85 5.0 4.6 4.4" fill="#00ff00" fill-opacity="0.6627451" fill-rule="evenodd" stroke="none"/>
    <path d="M-5.1 -4.85 L-4.65 -4.65 -4.45 -4.2 -4.65 -3.75 -5.1 -3.55 Q-5.35 -3.55 -5.55 -3.75 L-5.75 -4.2 -5.55 -4.65 -5.1 -4.85 M4.5 -6.1 Q5.0 -6.1 5.4 -5.7 L5.75 -4.85 Q5.75 -4.35 5.4 -3.95 5.0 -3.6 4.5 -3.6 4.0 -3.6 3.65 -3.95 3.25 -4.35 3.25 -4.85 3.25 -5.35 3.65 -5.7 4.0 -6.1 4.5 -6.1 M-0.15 -0.55 Q-0.15 -0.1 -0.45 0.2 -0.75 0.5 -1.15 0.5 L-1.85 0.2 Q-2.15 -0.1 -2.15 -0.55 L-1.85 -1.3 -1.15 -1.6 Q-0.75 -1.6 -0.45 -1.3 -0.15 -1.0 -0.15 -0.55 M4.6 4.4 L4.85 5.0 4.6 5.65 3.9 5.9 3.25 5.65 Q2.95 5.35 2.95 5.0 2.95 4.65 3.25 4.4 3.5 4.1 3.9 4.1 4.3 4.1 4.6 4.4" fill="#00ff00" fill-rule="evenodd" stroke="none"/>
  </g>
</svg>
