<?xml version="1.0" encoding="UTF-8" standalone="no"?>
<svg xmlns:ffdec="https://www.free-decompiler.com/flash" xmlns:xlink="http://www.w3.org/1999/xlink" ffdec:objectType="shape" height="35.15px" width="42.55px" xmlns="http://www.w3.org/2000/svg">
  <g transform="matrix(1.0, 0.0, 0.0, 1.0, 21.25, 17.6)">
    <path d="M1.95 -6.05 L1.4 5.9 -1.45 5.9 -1.95 -6.05 1.95 -6.05 M0.45 -17.5 L1.1 -17.0 21.1 15.65 Q21.35 16.1 21.25 16.6 L20.65 17.4 19.85 17.55 -19.8 17.55 -20.65 17.4 -21.2 16.6 Q-21.35 16.1 -21.05 15.65 L-1.05 -17.0 Q-0.85 -17.4 -0.4 -17.5 L0.45 -17.5 M1.7 8.85 L1.7 12.45 -1.75 12.45 -1.75 8.85 1.7 8.85 M0.0 -13.95 L-17.75 15.05 17.75 15.05 0.0 -13.95" fill="#ff0000" fill-rule="evenodd" stroke="none"/>
    <path d="M1.95 -6.05 L-1.95 -6.05 -1.45 5.9 1.4 5.9 1.95 -6.05 M1.7 8.85 L-1.75 8.85 -1.75 12.45 1.7 12.45 1.7 8.85 M0.0 -13.95 L17.75 15.05 -17.75 15.05 0.0 -13.95" fill="#ffffff" fill-rule="evenodd" stroke="none"/>
  </g>
</svg>
