<?xml version="1.0" encoding="UTF-8" standalone="no"?>
<svg xmlns:ffdec="https://www.free-decompiler.com/flash" xmlns:xlink="http://www.w3.org/1999/xlink" ffdec:objectType="shape" height="107.05px" width="204.9px" xmlns="http://www.w3.org/2000/svg">
  <g transform="matrix(1.0, 0.0, 0.0, 1.0, 98.45, 44.75)">
    <path d="M59.45 -42.9 L58.0 -43.15 58.2 -43.8 64.25 -44.75 65.35 -44.75 65.05 -43.85 59.4 -26.2 Q58.85 -24.55 58.85 -24.15 L59.0 -23.8 Q59.15 -23.65 59.35 -23.65 L59.95 -23.9 61.6 -25.65 61.9 -26.05 62.6 -25.75 62.45 -25.5 Q60.8 -23.2 59.2 -22.2 58.1 -21.45 56.8 -21.45 55.8 -21.45 55.2 -21.85 L54.9 -22.05 Q54.2 -22.65 54.2 -23.45 L54.3 -23.95 54.35 -24.4 54.65 -25.45 59.5 -40.6 59.75 -41.4 59.9 -42.25 Q59.9 -42.65 59.5 -42.85 L59.45 -42.9 M45.35 -21.65 L44.95 -21.9 44.8 -22.05 Q44.4 -22.5 44.4 -23.15 44.4 -23.85 45.0 -25.55 L45.45 -26.9 Q43.35 -23.6 41.4 -22.25 40.3 -21.45 39.0 -21.45 37.9 -21.45 37.25 -21.95 L36.6 -22.7 Q35.85 -23.95 35.85 -25.5 35.85 -27.85 37.45 -30.8 39.0 -33.85 41.5 -35.7 43.6 -37.2 45.4 -37.2 46.4 -37.2 47.05 -36.65 L47.3 -36.3 Q47.7 -35.75 47.95 -34.65 L48.4 -36.0 48.6 -36.7 52.85 -36.95 52.6 -36.05 49.0 -24.65 48.95 -24.3 49.1 -23.95 49.4 -23.85 Q49.8 -23.85 50.45 -24.35 L51.75 -25.8 51.75 -25.85 51.8 -25.85 52.4 -25.55 52.25 -25.3 Q51.0 -23.4 49.7 -22.4 48.2 -21.45 46.55 -21.45 L45.35 -21.65 M47.1 -34.4 L46.65 -35.75 Q46.3 -36.2 45.75 -36.2 45.2 -36.2 44.6 -35.7 43.4 -34.65 42.0 -31.55 40.6 -28.4 40.6 -26.1 40.6 -25.25 40.9 -24.9 41.2 -24.45 41.6 -24.45 42.05 -24.45 42.55 -24.75 L43.25 -25.35 Q44.45 -26.55 45.4 -28.35 47.1 -31.4 47.1 -33.8 L47.1 -34.4 M-45.8 -34.4 Q-43.7 -34.55 -42.55 -35.15 -41.05 -35.9 -40.0 -37.95 L-39.35 -37.95 -40.25 -35.05 -41.8 -30.2 -42.1 -29.25 -42.7 -29.25 -42.55 -30.65 -42.55 -30.9 Q-42.65 -31.65 -43.15 -32.1 -43.75 -32.7 -44.65 -32.95 L-47.2 -33.15 -48.65 -33.15 -51.0 -25.65 -51.3 -24.2 Q-51.3 -23.8 -50.9 -23.55 L-49.3 -23.25 -48.7 -23.25 Q-45.6 -23.25 -42.9 -24.45 -40.15 -25.6 -38.0 -28.05 L-37.25 -28.05 -38.15 -25.8 -39.8 -21.9 -57.3 -21.9 -60.75 -21.9 -60.55 -22.5 Q-58.7 -22.5 -57.85 -23.15 -57.0 -23.8 -56.3 -26.0 L-51.7 -40.3 -51.3 -41.75 -51.3 -42.25 Q-51.3 -42.8 -51.8 -43.15 L-52.45 -43.4 -54.05 -43.65 -53.85 -44.25 -34.3 -44.25 -34.5 -43.4 -35.8 -38.85 -35.85 -38.65 -36.5 -38.65 -36.7 -40.15 -37.1 -40.95 Q-37.85 -42.05 -39.1 -42.5 L-43.15 -43.0 -45.45 -43.0 -48.2 -34.35 -47.35 -34.35 -45.8 -34.4 M-7.45 -34.6 Q-7.45 -35.4 -7.9 -35.8 -8.35 -36.3 -8.95 -36.3 -9.9 -36.3 -10.5 -35.8 -11.8 -34.75 -13.4 -30.95 -14.95 -27.15 -14.95 -24.05 -14.95 -23.35 -14.45 -22.85 -13.95 -22.35 -13.25 -22.35 L-12.9 -22.35 Q-12.4 -22.4 -12.0 -22.75 -11.25 -23.35 -10.05 -25.4 -8.9 -27.45 -8.15 -29.95 -7.45 -32.45 -7.45 -34.5 L-7.45 -34.6 M-18.1 -22.8 L-18.1 -22.85 Q-19.45 -24.15 -19.45 -26.05 -19.45 -28.35 -18.45 -30.35 -17.45 -32.35 -15.9 -33.8 -14.35 -35.3 -12.35 -36.2 -10.35 -37.2 -8.2 -37.2 -6.75 -37.2 -5.5 -36.6 L-4.55 -36.0 -3.6 -34.9 Q-2.95 -33.85 -2.95 -32.55 -2.95 -29.9 -4.6 -27.2 -6.25 -24.5 -8.9 -22.95 -11.6 -21.45 -14.3 -21.45 -16.75 -21.45 -18.1 -22.8 M-24.05 -35.8 L-23.65 -36.25 Q-22.65 -37.2 -21.55 -37.2 -20.8 -37.2 -20.35 -36.7 L-20.1 -36.35 Q-19.85 -35.9 -19.85 -35.25 -19.85 -33.65 -20.7 -32.6 -21.25 -31.9 -21.9 -31.9 -22.65 -31.9 -23.0 -32.5 L-23.5 -33.2 -23.8 -33.3 -24.2 -33.2 -25.25 -32.25 -26.8 -29.7 -28.3 -26.65 -29.75 -21.9 -32.8 -21.9 -34.1 -21.9 -31.15 -32.85 -30.85 -33.9 -30.8 -34.45 Q-30.8 -34.9 -30.95 -35.15 L-31.1 -35.25 -31.45 -35.5 -32.7 -35.65 -32.55 -36.1 -27.05 -37.2 -26.0 -37.2 -26.25 -36.2 -28.7 -27.95 Q-25.75 -33.9 -24.05 -35.8 M-0.15 -21.85 L-0.45 -22.0 Q-1.15 -22.6 -1.15 -23.45 L-0.7 -25.95 1.65 -33.1 2.2 -34.8 1.05 -34.8 -0.3 -34.8 0.1 -36.05 Q2.4 -36.8 4.0 -37.85 5.6 -38.9 7.8 -41.2 L8.75 -41.2 8.25 -39.55 7.3 -36.7 9.7 -36.7 9.45 -35.9 9.05 -34.8 6.7 -34.8 3.7 -25.3 3.4 -23.95 Q3.4 -23.7 3.55 -23.55 L3.95 -23.45 4.55 -23.65 6.0 -24.95 6.5 -25.65 7.15 -25.3 Q5.9 -23.3 4.4 -22.4 2.9 -21.45 1.45 -21.45 0.45 -21.45 -0.15 -21.85 M10.55 -35.9 L10.65 -36.25 16.8 -37.2 17.9 -37.2 17.65 -36.25 14.2 -25.5 13.85 -24.15 14.05 -23.85 Q14.2 -23.65 14.4 -23.65 14.7 -23.65 15.0 -23.95 15.7 -24.45 16.65 -25.7 L16.95 -26.1 17.55 -25.8 17.5 -25.65 Q14.8 -21.45 11.75 -21.45 10.8 -21.45 10.2 -21.85 L9.9 -22.05 Q9.2 -22.65 9.2 -23.55 9.2 -24.2 9.5 -25.1 L12.0 -33.0 12.25 -33.9 12.35 -34.7 12.05 -35.35 11.95 -35.4 11.65 -35.55 11.1 -35.65 10.45 -35.65 10.55 -35.9 M21.15 -22.85 Q20.6 -23.3 20.3 -23.9 19.75 -25.0 19.75 -26.2 19.75 -28.95 21.35 -31.55 22.95 -34.15 25.6 -35.65 28.2 -37.2 30.75 -37.2 32.8 -37.2 33.85 -36.35 L34.1 -36.15 Q34.85 -35.4 34.85 -34.3 34.85 -33.2 34.1 -32.45 33.3 -31.65 32.35 -31.65 L31.35 -31.9 31.0 -32.15 Q30.4 -32.65 30.4 -33.3 30.4 -33.85 30.8 -34.3 31.0 -34.65 31.4 -34.85 32.05 -35.3 32.05 -35.7 L31.8 -36.2 30.85 -36.4 Q29.35 -36.4 28.0 -35.3 26.25 -33.8 25.3 -31.55 24.35 -29.3 24.35 -27.25 24.35 -25.6 25.3 -24.65 26.05 -23.9 27.1 -23.75 L27.6 -23.7 Q28.75 -23.7 30.1 -24.25 31.45 -24.8 32.65 -25.9 L33.2 -25.45 33.15 -25.35 Q31.4 -23.5 29.75 -22.65 27.5 -21.45 25.05 -21.45 23.45 -21.45 22.2 -22.1 L21.15 -22.85 M15.15 -40.4 L14.9 -40.6 Q14.1 -41.3 14.1 -42.3 14.1 -43.35 14.9 -44.05 15.65 -44.75 16.75 -44.75 17.9 -44.75 18.65 -44.05 L18.85 -43.85 Q19.4 -43.2 19.4 -42.3 19.4 -41.3 18.65 -40.6 17.85 -39.9 16.75 -39.9 15.85 -39.9 15.15 -40.4" fill="#ffffff" fill-rule="evenodd" stroke="none"/>
    <path d="M65.05 -43.85 L65.65 -43.9 66.8 -43.9 67.1 -43.85 67.3 -43.6 67.3 -43.35 61.6 -25.65 59.95 -23.9 59.35 -23.65 Q59.15 -23.65 59.0 -23.8 L58.85 -24.15 Q58.85 -24.55 59.4 -26.2 L65.05 -43.85 M62.45 -25.5 Q62.95 -25.7 63.45 -25.25 L63.6 -25.2 64.3 -24.9 64.5 -24.7 64.55 -24.45 64.5 -24.2 Q62.7 -21.6 60.95 -20.5 59.7 -19.75 58.25 -19.75 56.85 -19.75 56.0 -20.4 55.3 -21.05 55.2 -21.85 55.8 -21.45 56.8 -21.45 58.1 -21.45 59.2 -22.2 60.8 -23.2 62.45 -25.5 M54.3 -23.95 Q52.9 -21.85 51.45 -20.8 49.8 -19.75 48.0 -19.75 46.75 -19.75 46.1 -20.3 L46.05 -20.35 Q45.45 -20.9 45.35 -21.65 L46.55 -21.45 Q48.2 -21.45 49.7 -22.4 51.0 -23.4 52.25 -25.3 L53.1 -25.05 53.2 -25.0 53.4 -24.95 54.05 -24.7 54.3 -24.5 54.35 -24.4 54.3 -23.95 M44.8 -22.05 L43.15 -20.6 Q41.9 -19.75 40.45 -19.75 38.5 -19.75 37.65 -21.2 L37.25 -21.95 Q37.9 -21.45 39.0 -21.45 40.3 -21.45 41.4 -22.25 43.35 -23.6 45.45 -26.9 L45.0 -25.55 Q44.4 -23.85 44.4 -23.15 44.4 -22.5 44.8 -22.05 M47.3 -36.3 L48.4 -36.0 47.95 -34.65 Q47.7 -35.75 47.3 -36.3 M52.6 -36.05 L54.3 -36.15 54.6 -36.05 54.8 -35.8 54.8 -35.55 51.8 -25.85 51.75 -25.85 51.75 -25.8 50.45 -24.35 Q49.8 -23.85 49.4 -23.85 L49.1 -23.95 48.95 -24.3 49.0 -24.65 52.6 -36.05 M59.75 -41.4 L59.5 -41.4 59.2 -41.45 59.0 -41.7 59.0 -41.95 59.2 -42.6 59.35 -42.8 59.45 -42.9 59.5 -42.85 Q59.9 -42.65 59.9 -42.25 L59.75 -41.4 M47.1 -34.4 L46.4 -34.05 46.4 -34.1 Q45.25 -33.1 43.9 -30.05 L43.95 -30.05 Q42.55 -27.0 42.55 -24.85 L42.55 -24.75 Q42.05 -24.45 41.6 -24.45 41.2 -24.45 40.9 -24.9 40.6 -25.25 40.6 -26.1 40.6 -28.4 42.0 -31.55 43.4 -34.65 44.6 -35.7 45.2 -36.2 45.75 -36.2 46.3 -36.2 46.65 -35.75 L47.1 -34.4 M-40.25 -35.05 Q-39.55 -35.75 -39.0 -36.85 L-38.8 -37.05 -38.55 -37.15 -37.9 -37.15 -37.6 -37.05 -37.4 -36.8 -37.4 -36.55 -40.15 -27.85 -40.35 -27.6 -40.65 -27.5 -41.25 -27.5 -41.5 -27.55 -41.7 -27.8 -41.75 -28.05 -41.6 -29.4 -41.8 -30.2 -40.25 -35.05 M-42.55 -30.9 L-43.3 -31.2 -43.35 -31.2 -45.75 -31.4 -46.8 -31.4 -49.05 -24.25 -49.3 -23.25 -50.9 -23.55 Q-51.3 -23.8 -51.3 -24.2 L-51.0 -25.65 -48.65 -33.15 -47.2 -33.15 -44.65 -32.95 Q-43.75 -32.7 -43.15 -32.1 -42.65 -31.65 -42.55 -30.9 M-38.15 -25.8 L-36.95 -27.0 -36.75 -27.15 -36.55 -27.2 -35.8 -27.2 -35.5 -27.1 -35.3 -26.9 -35.3 -26.55 -37.85 -20.45 -38.05 -20.3 -38.35 -20.2 -59.3 -20.2 -59.6 -20.3 -59.75 -20.5 -59.75 -20.8 -59.55 -21.4 -59.4 -21.6 -59.1 -21.7 -57.3 -21.9 -39.8 -21.9 -38.15 -25.8 M-51.3 -41.75 L-52.65 -41.9 Q-52.8 -41.9 -52.9 -42.0 L-53.05 -42.25 -53.05 -42.5 -52.85 -43.1 -52.7 -43.35 -52.45 -43.4 -51.8 -43.15 Q-51.3 -42.8 -51.3 -42.25 L-51.3 -41.75 M-34.5 -43.4 L-32.85 -43.4 -32.55 -43.35 -32.35 -43.1 -32.35 -42.8 -33.9 -37.2 -34.1 -37.0 -34.4 -36.9 -35.05 -36.9 -35.4 -37.0 -35.55 -37.3 Q-35.6 -38.25 -35.8 -38.85 L-34.5 -43.4 M-36.7 -40.15 Q-37.2 -40.6 -37.8 -40.8 L-37.85 -40.8 -41.7 -41.3 -43.6 -41.3 -45.8 -34.4 -47.35 -34.35 -48.2 -34.35 -45.45 -43.0 -43.15 -43.0 -39.1 -42.5 Q-37.85 -42.05 -37.1 -40.95 L-36.7 -40.15 M-12.9 -22.35 L-13.25 -22.35 Q-13.95 -22.35 -14.45 -22.85 -14.95 -23.35 -14.95 -24.05 -14.95 -27.15 -13.4 -30.95 -11.8 -34.75 -10.5 -35.8 -9.9 -36.3 -8.95 -36.3 -8.35 -36.3 -7.9 -35.8 -7.45 -35.4 -7.45 -34.6 L-7.5 -34.6 Q-8.25 -34.6 -8.7 -34.15 -9.95 -33.15 -11.45 -29.5 -13.0 -25.8 -13.0 -22.8 L-12.9 -22.35 M-4.55 -36.0 L-3.8 -35.7 Q-2.45 -35.1 -1.7 -33.85 -1.0 -32.7 -1.0 -31.25 -1.0 -28.55 -2.7 -25.7 -4.45 -22.95 -7.15 -21.3 L-7.2 -21.3 Q-10.0 -19.75 -12.85 -19.75 -15.55 -19.75 -17.0 -21.2 L-18.1 -22.8 Q-16.75 -21.45 -14.3 -21.45 -11.6 -21.45 -8.9 -22.95 -6.25 -24.5 -4.6 -27.2 -2.95 -29.9 -2.95 -32.55 -2.95 -33.85 -3.6 -34.9 L-4.55 -36.0 M-20.1 -36.35 Q-19.1 -36.35 -18.5 -35.7 -17.9 -35.1 -17.9 -34.0 -17.9 -32.2 -18.85 -31.05 -19.55 -30.1 -20.45 -30.15 -21.5 -30.15 -22.0 -31.0 L-22.35 -31.6 -22.5 -31.55 -23.4 -30.7 -24.9 -28.25 -24.9 -28.2 -26.35 -25.2 -27.8 -20.5 -28.0 -20.3 -28.3 -20.2 -32.65 -20.2 Q-32.8 -20.2 -32.9 -20.3 L-33.1 -20.45 -33.1 -20.75 -32.8 -21.9 -29.75 -21.9 -28.3 -26.65 -26.8 -29.7 -25.25 -32.25 -24.2 -33.2 -23.8 -33.3 -23.5 -33.2 -23.0 -32.5 Q-22.65 -31.9 -21.9 -31.9 -21.25 -31.9 -20.7 -32.6 -19.85 -33.65 -19.85 -35.25 -19.85 -35.9 -20.1 -36.35 M-30.85 -33.9 L-31.25 -33.9 -31.55 -34.0 -31.7 -34.2 -31.7 -34.5 -31.55 -34.95 -31.45 -35.15 -31.2 -35.25 -31.1 -35.25 -30.95 -35.15 Q-30.8 -34.9 -30.8 -34.45 L-30.85 -33.9 M-26.25 -36.2 L-25.7 -36.35 -25.6 -36.35 -24.55 -36.35 -24.25 -36.25 -24.05 -36.05 -24.05 -35.8 Q-25.75 -33.9 -28.7 -27.95 L-26.25 -36.2 M1.65 -33.1 L1.15 -33.1 0.85 -33.15 0.7 -33.35 0.7 -33.65 1.05 -34.8 2.2 -34.8 1.65 -33.1 M8.25 -39.55 L8.9 -40.2 9.05 -40.3 9.25 -40.35 10.2 -40.35 10.5 -40.25 10.7 -40.05 10.7 -39.75 9.7 -36.7 7.3 -36.7 8.25 -39.55 M9.45 -35.9 L10.55 -35.9 10.45 -35.65 11.1 -35.65 11.65 -35.55 11.65 -35.3 11.0 -33.4 10.8 -33.15 10.5 -33.1 8.55 -33.1 6.0 -24.95 4.55 -23.65 3.95 -23.45 3.55 -23.55 Q3.4 -23.7 3.4 -23.95 L3.7 -25.3 6.7 -34.8 9.05 -34.8 9.45 -35.9 M17.65 -36.25 L18.2 -36.35 19.35 -36.35 19.65 -36.25 19.85 -36.05 19.85 -35.75 16.65 -25.7 Q15.7 -24.45 15.0 -23.95 14.7 -23.65 14.4 -23.65 14.2 -23.65 14.05 -23.85 L13.85 -24.15 14.2 -25.5 17.65 -36.25 M17.5 -25.65 L17.6 -25.7 18.35 -25.4 18.55 -25.25 18.65 -25.2 Q18.95 -25.0 19.25 -24.9 L19.5 -24.6 19.45 -24.3 Q16.55 -19.7 13.2 -19.75 11.85 -19.75 11.0 -20.4 10.3 -21.0 10.2 -21.85 10.8 -21.45 11.75 -21.45 14.8 -21.45 17.5 -25.65 M12.25 -33.9 L11.9 -33.9 11.6 -34.0 11.45 -34.15 11.45 -34.45 11.65 -35.1 11.8 -35.3 11.95 -35.4 12.05 -35.35 12.35 -34.7 12.25 -33.9 M7.15 -25.3 L7.9 -24.9 7.95 -24.85 8.2 -24.75 8.85 -24.4 9.1 -24.1 9.05 -23.8 Q7.7 -21.7 6.15 -20.7 4.5 -19.75 2.9 -19.75 1.4 -19.75 0.65 -20.35 -0.05 -21.0 -0.15 -21.85 0.45 -21.45 1.45 -21.45 2.9 -21.45 4.4 -22.4 5.9 -23.3 7.15 -25.3 M34.1 -36.15 L35.65 -35.4 Q36.8 -34.45 36.8 -33.05 36.8 -31.75 35.95 -30.85 34.95 -29.95 33.8 -29.95 32.7 -29.95 32.1 -30.6 L32.1 -30.55 Q31.4 -31.15 31.35 -31.9 L32.35 -31.65 Q33.3 -31.65 34.1 -32.45 34.85 -33.2 34.85 -34.3 34.85 -35.4 34.1 -36.15 M30.8 -34.3 L29.8 -33.65 Q28.15 -32.25 27.25 -30.05 26.3 -27.95 26.3 -26.0 26.3 -24.55 27.1 -23.75 26.05 -23.9 25.3 -24.65 24.35 -25.6 24.35 -27.25 24.35 -29.3 25.3 -31.55 26.25 -33.8 28.0 -35.3 29.35 -36.4 30.85 -36.4 L31.8 -36.2 32.05 -35.7 Q32.05 -35.3 31.4 -34.85 31.0 -34.65 30.8 -34.3 M33.15 -25.35 L33.2 -25.4 33.25 -25.45 Q33.65 -25.7 34.25 -25.0 L34.45 -24.95 35.0 -24.45 35.15 -24.15 35.05 -23.85 Q33.2 -21.9 31.45 -20.95 29.1 -19.75 26.5 -19.75 24.75 -19.75 23.4 -20.4 L23.45 -20.4 Q21.95 -21.15 21.3 -22.4 L21.15 -22.85 22.2 -22.1 Q23.45 -21.45 25.05 -21.45 27.5 -21.45 29.75 -22.65 31.4 -23.5 33.15 -25.35 M18.85 -43.85 Q19.8 -43.75 20.45 -43.1 L20.5 -43.1 Q21.35 -42.25 21.35 -41.05 21.35 -39.85 20.5 -39.0 L20.45 -38.95 Q19.5 -38.2 18.2 -38.2 16.95 -38.2 16.0 -38.95 L16.0 -39.0 Q15.3 -39.65 15.15 -40.4 15.85 -39.9 16.75 -39.9 17.85 -39.9 18.65 -40.6 19.4 -41.3 19.4 -42.3 19.4 -43.2 18.85 -43.85" fill="#000000" fill-rule="evenodd" stroke="none"/>
    <path d="M6.3 -17.35 L6.4 -17.35 7.65 -16.35 9.05 -15.2 13.05 -10.65 Q16.05 -6.95 16.9 -4.15 18.0 -0.55 18.3 5.45 L18.4 8.4 Q18.95 9.85 20.4 10.8 L20.85 11.15 Q18.25 13.6 14.4 13.2 11.95 13.15 9.7 12.1 7.45 13.15 4.85 13.2 L1.75 13.05 Q-0.05 12.5 -1.5 11.15 L-3.25 8.85 -4.45 7.25 -4.45 23.45 -2.95 24.7 -1.8 25.9 -1.8 20.35 11.1 20.35 11.05 20.3 Q10.6 19.4 10.6 18.25 10.6 16.05 11.05 15.4 11.55 14.55 12.35 14.35 L13.1 13.9 13.5 14.45 15.2 16.35 17.55 19.15 18.4 20.25 18.4 51.9 19.25 52.25 22.3 52.85 25.1 53.1 25.1 -7.75 25.1 -8.55 Q24.95 -10.75 22.85 -12.15 L22.45 -12.45 Q25.05 -14.9 28.85 -14.5 31.4 -14.45 33.7 -13.45 L34.85 -13.9 34.5 -15.35 Q34.5 -16.6 36.05 -17.85 37.55 -19.05 39.15 -19.05 40.7 -19.05 44.3 -13.0 L44.95 -12.45 Q47.55 -14.9 51.35 -14.5 53.9 -14.45 56.2 -13.45 L58.35 -14.15 58.55 -14.8 58.85 -15.75 58.55 -16.35 Q58.2 -16.85 58.2 -17.3 58.2 -17.95 58.8 -18.15 L60.25 -18.55 60.45 -18.6 60.45 -18.75 Q60.45 -21.1 63.6 -17.05 L64.8 -15.5 65.8 -13.8 65.95 -13.55 66.95 -12.85 67.45 -12.45 67.0 -12.15 66.95 -12.05 Q65.15 -10.95 64.8 -9.0 L64.8 -5.4 65.2 -5.55 65.15 -5.6 Q65.15 -6.1 65.65 -6.35 L66.4 -6.8 Q67.0 -7.8 67.55 -7.35 L68.25 -6.75 Q68.5 -6.75 68.95 -7.05 L69.6 -6.85 69.65 -7.05 Q68.75 -9.0 68.7 -11.2 68.35 -14.6 70.5 -16.95 L70.8 -16.55 Q71.8 -15.0 73.35 -14.6 L76.25 -14.6 76.25 -14.5 99.25 -14.5 Q98.55 -15.85 98.55 -17.0 98.55 -18.25 98.95 -19.6 L100.05 -20.75 Q100.2 -21.3 99.95 -22.05 L99.3 -23.4 103.9 -17.8 105.15 -16.25 Q106.7 -14.15 106.4 -11.2 106.35 -9.0 105.45 -7.05 106.35 -5.0 106.4 -2.7 106.75 0.6 104.6 2.95 L104.3 2.55 Q103.1 0.75 101.15 0.55 L100.45 0.55 96.25 0.55 96.25 55.25 Q96.65 57.0 98.4 58.15 L98.85 58.45 Q96.2 60.9 92.4 60.5 89.85 60.45 87.6 59.45 85.3 60.45 82.75 60.5 79.2 60.9 76.7 58.8 L74.6 56.3 72.25 53.45 71.2 52.05 71.8 51.75 Q72.7 51.15 72.95 51.35 L73.2 51.85 73.0 52.25 73.5 52.4 76.55 53.45 76.85 53.3 77.95 53.2 Q78.05 53.1 78.25 53.1 78.5 53.1 79.0 53.6 L79.0 0.55 74.65 0.55 73.95 0.55 Q72.0 0.75 70.8 2.55 L70.5 2.95 70.3 2.7 68.35 0.3 65.3 -3.4 64.8 -4.0 64.8 55.15 Q65.15 57.05 67.0 58.25 L67.45 58.6 Q64.8 61.0 61.0 60.6 58.45 60.55 56.2 59.55 53.9 60.55 51.35 60.6 47.55 61.0 44.95 58.6 42.3 61.0 38.5 60.6 35.95 60.55 33.7 59.55 31.4 60.55 28.85 60.6 25.1 61.0 22.55 58.65 L19.55 55.25 18.4 54.0 18.4 60.75 7.65 60.75 4.95 57.4 4.85 57.3 Q3.4 59.4 1.5 60.6 -1.2 62.3 -4.85 62.3 L-8.65 61.85 Q-10.9 61.25 -12.95 59.95 -15.05 58.6 -16.55 56.95 L-19.5 53.45 -22.55 49.5 -24.0 47.3 -24.15 46.7 -23.9 46.3 -23.5 46.95 Q-21.8 48.9 -20.35 51.0 L-19.9 51.6 Q-20.85 48.85 -21.25 46.0 -21.7 42.15 -21.7 34.95 L-21.7 12.6 Q-21.7 1.8 -20.65 -3.05 -19.65 -7.95 -14.75 -12.0 -9.95 -16.1 -2.2 -16.1 3.2 -16.1 7.35 -14.3 L8.05 -14.0 6.75 -15.9 Q6.35 -16.7 6.3 -17.35 M47.55 29.1 L42.35 29.1 42.35 53.1 Q43.05 51.65 44.75 51.65 46.5 51.65 47.55 52.3 L47.55 29.1 M44.95 -12.45 L44.75 -12.3 44.8 -12.2 Q44.8 -11.35 44.0 -11.35 L43.65 -11.45 Q42.65 -10.55 42.35 -9.25 L42.35 12.4 47.55 12.4 47.55 -8.95 Q47.25 -10.9 45.35 -12.15 L44.95 -12.45 M18.55 20.4 L18.55 20.45 18.45 20.3 18.55 20.4 M1.7 31.8 L-1.8 31.8 -1.8 30.9 -4.45 27.9 -4.45 41.3 -4.45 42.0 Q-4.4 46.5 -3.85 48.0 -3.3 49.6 -1.55 49.6 0.35 49.6 1.05 47.75 1.7 45.95 1.7 40.7 L1.7 31.8 M44.95 58.6 L45.0 58.55 44.9 58.55 44.95 58.6 M0.65 -1.7 Q0.15 -3.35 -1.7 -3.35 -3.05 -3.35 -3.6 -2.4 -2.8 -2.65 -2.15 -2.1 L-2.7 -1.7 -3.1 -1.1 -2.9 -0.45 -2.75 0.4 Q-2.75 1.15 -3.05 1.8 L-1.35 2.05 1.1 2.7 Q1.0 -0.6 0.65 -1.7 M-82.25 -20.3 L-82.05 -20.55 -81.75 -20.85 -81.5 -20.7 -76.35 -14.2 -66.8 19.4 -66.8 -7.75 Q-66.65 -10.55 -68.7 -12.15 L-69.05 -12.45 Q-66.85 -14.9 -63.65 -14.5 L-60.9 -14.0 -61.0 -14.8 Q-61.0 -16.55 -59.95 -17.9 -58.45 -19.95 -55.5 -19.1 -50.6 -14.2 -50.6 -13.0 L-50.6 -12.9 -50.15 -12.45 -50.5 -12.15 Q-52.05 -10.95 -52.35 -9.0 L-52.35 52.35 -51.8 52.45 -50.7 52.85 -45.7 52.75 -45.4 52.75 -45.4 -7.75 -45.4 -8.55 Q-45.6 -10.75 -47.65 -12.15 L-48.1 -12.45 Q-45.5 -14.9 -41.7 -14.5 -39.1 -14.45 -36.8 -13.45 L-35.15 -14.0 -35.65 -16.0 Q-35.65 -17.9 -33.3 -19.25 L-32.1 -19.75 -31.7 -19.55 -30.95 -19.1 -30.75 -19.0 -25.65 -12.5 -25.55 -12.4 -26.0 -12.15 Q-27.65 -11.05 -28.15 -9.4 L-28.15 55.6 Q-27.65 57.25 -26.0 58.3 L-25.55 58.65 Q-28.2 61.1 -32.05 60.7 -34.55 60.6 -36.8 59.6 -39.1 60.6 -41.7 60.7 -45.35 61.1 -47.85 58.85 L-52.35 53.7 -52.35 60.75 -67.5 60.75 -69.1 58.8 -72.8 54.3 Q-72.7 53.55 -71.9 52.6 -70.85 51.4 -69.85 51.85 L-69.8 51.9 -76.45 26.5 -76.45 55.2 Q-76.15 57.1 -74.6 58.3 L-74.25 58.65 Q-76.45 61.1 -79.65 60.7 -81.8 60.6 -83.7 59.6 -85.6 60.6 -87.75 60.7 -90.8 61.1 -92.9 58.85 L-98.45 52.2 Q-98.1 51.95 -97.6 52.2 L-95.4 52.6 -92.9 52.35 Q-91.8 52.35 -90.9 53.0 L-90.9 -14.5 -80.2 -14.5 -81.05 -15.9 Q-82.3 -17.85 -82.25 -20.3" fill="#000000" fill-rule="evenodd" stroke="none"/>
    <path d="M17.55 -18.6 L17.15 -18.9 Q19.75 -21.35 23.55 -20.95 26.1 -20.9 28.4 -19.9 30.65 -20.9 33.2 -20.95 37.0 -21.35 39.65 -18.9 L39.2 -18.6 Q37.45 -17.45 37.05 -15.7 L37.05 5.95 42.25 5.95 42.25 -15.4 Q41.95 -17.35 40.05 -18.6 L39.65 -18.9 Q42.25 -21.35 46.05 -20.95 48.6 -20.9 50.9 -19.9 53.15 -20.9 55.7 -20.95 59.15 -21.3 61.65 -19.3 L62.15 -18.9 61.7 -18.6 61.65 -18.55 Q59.85 -17.4 59.5 -15.45 L59.5 48.65 Q59.85 50.6 61.7 51.8 L62.15 52.15 Q59.5 54.55 55.7 54.15 53.15 54.1 50.9 53.1 48.6 54.1 46.05 54.15 42.25 54.55 39.65 52.15 L40.05 51.8 Q41.95 50.55 42.25 48.6 L42.25 22.65 37.05 22.65 37.05 48.9 Q37.45 50.65 39.2 51.8 L39.65 52.15 Q37.0 54.55 33.2 54.15 30.65 54.1 28.4 53.1 26.1 54.1 23.55 54.15 19.75 54.55 17.15 52.15 L17.55 51.8 Q19.65 50.45 19.8 48.2 L19.8 47.4 19.8 -14.2 19.8 -15.0 Q19.65 -17.2 17.55 -18.6 M13.0 -1.0 L13.1 1.95 Q13.65 3.4 15.1 4.35 L15.55 4.7 Q12.95 7.15 9.1 6.75 6.65 6.7 4.4 5.65 2.15 6.7 -0.45 6.75 -4.2 7.15 -6.8 4.7 L-6.35 4.35 Q-4.5 3.1 -4.15 1.2 L-4.15 -0.1 Q-4.15 -6.55 -4.65 -8.15 -5.15 -9.8 -7.0 -9.8 -8.6 -9.8 -9.15 -8.45 -9.75 -7.05 -9.75 -1.25 L-9.75 34.85 Q-9.75 39.95 -9.15 41.55 -8.6 43.1 -6.85 43.1 -4.95 43.1 -4.25 41.3 -3.6 39.5 -3.6 34.2 L-3.6 25.35 -7.1 25.35 -7.1 13.9 13.1 13.9 13.1 54.3 2.25 54.3 0.7 48.9 Q-1.1 52.35 -3.8 54.15 -6.5 55.85 -10.15 55.85 -14.5 55.85 -18.25 53.5 -22.05 51.05 -24.05 47.55 -26.0 44.0 -26.5 40.15 -27.0 36.25 -27.0 28.5 L-27.0 6.1 Q-27.0 -4.65 -25.95 -9.5 -24.95 -14.4 -20.05 -18.45 -15.25 -22.55 -7.5 -22.55 0.05 -22.55 5.1 -19.05 10.1 -15.45 11.6 -10.6 12.7 -7.05 13.0 -1.0 M70.95 -20.95 L96.45 -21.1 Q98.0 -21.45 99.0 -23.0 L99.3 -23.4 Q101.45 -21.1 101.1 -17.7 101.05 -15.45 100.15 -13.5 101.05 -11.45 101.1 -9.2 101.45 -5.85 99.3 -3.5 L99.0 -3.9 Q97.8 -5.7 95.85 -5.9 L95.15 -5.9 90.95 -5.9 90.95 48.8 Q91.35 50.55 93.1 51.65 L93.55 52.0 Q90.9 54.45 87.1 54.05 84.55 54.0 82.3 53.0 80.0 54.0 77.45 54.05 73.65 54.45 71.05 52.0 L71.45 51.65 Q73.55 50.3 73.7 48.1 L73.7 -5.9 69.35 -5.9 68.65 -5.9 Q66.7 -5.7 65.5 -3.9 L65.2 -3.5 Q63.05 -5.85 63.4 -9.2 63.45 -11.45 64.35 -13.5 63.45 -15.45 63.4 -17.7 63.05 -21.1 65.2 -23.4 L65.5 -23.0 Q66.5 -21.45 68.05 -21.1 L70.95 -21.1 70.95 -20.95 M-53.4 -18.9 Q-50.8 -21.35 -47.0 -20.95 -44.4 -20.9 -42.1 -19.9 -39.85 -20.9 -37.35 -20.95 -33.5 -21.35 -30.85 -18.9 L-31.3 -18.6 Q-32.95 -17.5 -33.45 -15.85 L-33.45 49.1 Q-32.95 50.75 -31.3 51.85 L-30.85 52.2 Q-33.5 54.6 -37.35 54.2 -39.85 54.15 -42.1 53.15 -44.4 54.15 -47.0 54.2 -50.8 54.6 -53.4 52.2 L-52.95 51.85 Q-50.9 50.5 -50.7 48.25 L-50.7 47.5 -50.7 -14.2 -50.7 -15.0 Q-50.9 -17.2 -52.95 -18.6 L-53.4 -18.9 M-96.2 -20.95 L-81.75 -20.95 -72.1 12.9 -72.1 -14.2 Q-71.95 -17.0 -74.0 -18.6 L-74.35 -18.9 Q-72.15 -21.35 -68.95 -20.95 -66.8 -20.9 -64.9 -19.9 -63.0 -20.9 -60.85 -20.95 -57.65 -21.35 -55.45 -18.9 L-55.8 -18.6 Q-57.35 -17.4 -57.65 -15.45 L-57.65 54.3 -72.8 54.3 -81.75 20.05 -81.75 48.75 Q-81.45 50.65 -79.9 51.85 L-79.55 52.2 Q-81.75 54.6 -84.95 54.2 -87.1 54.15 -89.0 53.15 -90.9 54.15 -93.05 54.2 -96.25 54.6 -98.45 52.2 L-98.1 51.85 Q-96.35 50.5 -96.2 48.2 L-96.2 47.5 -96.2 -20.95" fill="#ee0b61" fill-rule="evenodd" stroke="none"/>
    <path d="M0.9 -15.7 L0.9 -15.65 -1.05 -14.65 -2.7 -15.9 Q-2.65 -17.75 -2.1 -18.85 -1.55 -20.05 -0.8 -19.95 -0.05 -19.85 0.45 -18.55 0.95 -17.3 0.9 -15.7 M3.65 -5.85 L4.0 -5.55 Q4.85 -4.1 4.6 -3.75 3.8 -2.8 3.1 -5.25 L3.65 -5.85 M32.15 -13.3 L33.55 -13.05 33.25 -11.55 Q33.0 -11.15 32.75 -11.3 32.45 -11.45 32.3 -12.05 L32.15 -13.3 M53.85 -13.65 L49.95 -15.45 52.9 -16.5 53.85 -13.65 M49.8 -15.35 L50.65 -11.6 53.35 -12.25 51.15 -11.3 50.4 -11.55 50.75 -11.0 51.2 -8.95 51.0 -8.65 47.4 -11.6 Q47.4 -13.15 48.1 -14.2 48.8 -15.35 49.8 -15.35 M56.2 -7.2 L55.9 -6.3 Q55.55 -5.95 55.05 -5.95 54.55 -5.95 54.25 -6.3 53.9 -6.7 53.9 -7.2 53.9 -7.7 54.25 -8.05 54.55 -8.45 55.05 -8.45 55.55 -8.45 55.9 -8.05 L56.2 -7.2 M84.15 -6.95 L83.85 -6.7 Q82.9 -5.95 83.7 -7.65 L84.05 -7.65 Q84.45 -7.4 84.15 -6.95 M81.05 -13.35 L80.65 -13.1 Q79.05 -12.65 80.1 -14.5 81.9 -14.35 82.35 -13.75 L81.05 -13.35 M91.4 -13.75 L94.8 -14.95 Q96.4 -14.45 96.5 -14.0 96.6 -13.55 95.95 -13.15 L95.2 -12.85 94.3 -12.75 93.2 -12.75 93.15 -12.75 91.4 -13.75 M86.15 -16.25 Q86.75 -14.85 87.75 -15.3 L88.1 -15.65 Q87.5 -14.55 87.05 -14.55 81.25 -15.3 86.15 -16.25 M82.5 18.75 L81.45 23.95 81.4 24.15 Q81.25 26.9 82.2 25.5 L83.5 24.55 Q83.9 26.1 83.0 28.6 L80.85 30.6 Q80.1 30.6 79.55 29.8 79.0 28.95 79.0 27.75 L80.8 23.8 80.45 19.4 81.45 15.9 82.5 18.75 M87.45 46.45 L88.4 47.8 87.7 48.1 Q87.25 48.25 87.05 48.35 86.1 48.35 87.45 46.45 M85.05 40.8 L84.2 40.7 83.65 40.1 Q83.5 39.75 83.8 39.5 84.1 39.2 84.75 39.1 L85.6 39.25 86.1 39.75 85.9 40.4 Q85.6 40.7 85.05 40.8 M51.2 8.65 Q52.3 8.55 53.2 9.25 54.05 9.9 54.15 10.95 54.2 11.95 53.45 12.75 52.7 13.55 51.5 13.6 50.65 13.6 50.05 13.25 L49.5 12.7 49.4 12.35 Q49.4 10.8 49.95 9.75 50.45 8.65 51.2 8.65 M51.3 44.25 L50.75 39.65 51.3 39.45 51.5 38.8 51.25 38.2 Q51.0 37.95 50.7 38.0 L50.95 35.8 52.2 37.4 Q53.7 38.7 54.1 40.35 54.5 41.85 53.8 43.75 L51.3 44.25 M49.95 27.95 Q50.35 28.0 50.55 28.2 L50.65 28.75 50.25 29.2 49.65 29.25 48.85 29.0 48.6 28.6 48.75 28.2 Q48.95 28.0 49.35 27.95 49.75 27.8 49.95 27.95 M51.4 43.7 Q52.65 41.55 51.3 43.7 L51.4 43.7 M37.75 12.05 L37.15 11.8 36.9 11.1 Q36.9 10.7 37.15 10.45 37.4 10.15 37.75 10.15 38.1 10.15 38.35 10.45 L38.6 11.1 38.35 11.8 37.75 12.05 M27.35 11.0 L26.8 11.1 Q24.0 10.6 23.1 8.9 20.05 3.0 27.0 8.45 L28.45 8.65 Q29.15 8.95 29.3 9.5 29.4 10.05 28.9 10.5 28.4 10.9 27.35 11.0 M3.15 18.75 Q1.2 19.15 0.1 18.25 -5.5 13.75 3.15 18.75 M25.35 22.45 Q28.5 26.45 25.4 23.15 L25.35 22.45 M2.6 24.75 L2.6 25.8 1.85 25.85 2.0 25.1 Q2.45 23.55 2.6 24.75 M24.5 38.45 Q24.5 37.05 24.0 36.1 23.45 35.05 22.75 35.05 L22.05 34.4 Q22.9 33.6 24.45 33.55 L25.95 37.55 25.9 38.25 Q25.55 40.4 24.5 38.45 M29.0 43.15 L28.8 43.85 29.0 44.6 29.45 44.85 29.9 44.6 30.1 43.85 29.9 43.15 29.45 42.85 Q29.2 42.85 29.0 43.15 M27.0 42.2 L30.55 40.9 Q31.4 40.9 32.0 40.1 32.55 39.25 32.55 38.05 L33.1 37.95 32.55 41.55 Q32.55 43.5 31.4 44.95 30.25 46.3 28.65 46.3 L27.65 46.05 27.15 45.65 26.5 43.95 27.0 42.2 M-88.65 -9.95 L-88.7 -10.8 Q-88.4 -12.2 -87.4 -10.9 L-87.4 -10.8 -85.75 -6.45 -87.85 -8.4 -88.4 -9.45 -88.65 -9.95 M-89.6 -0.35 L-88.4 -2.0 -88.2 -1.45 Q-87.9 1.45 -89.6 -0.35 M-47.55 -12.05 Q-47.3 -13.55 -46.5 -14.2 -45.15 -15.4 -43.25 -15.8 L-44.95 -10.25 Q-46.05 -10.25 -46.8 -10.75 -47.55 -11.35 -47.55 -12.05 M-45.6 -5.25 L-46.0 -5.65 Q-46.65 -6.85 -45.5 -7.75 -44.95 -7.75 -44.55 -7.4 -44.15 -7.1 -44.15 -6.55 -44.15 -6.0 -44.55 -5.6 -45.0 -5.25 -45.6 -5.25 M-40.35 6.95 L-40.25 8.35 -41.4 8.15 -42.05 7.7 Q-42.1 7.4 -41.6 7.2 L-40.35 6.95 M-23.65 -0.35 L-19.5 -1.8 Q-18.75 -1.8 -18.2 -0.95 -17.7 -0.1 -17.7 1.1 L-16.9 1.8 Q-16.6 2.2 -16.6 2.6 -16.55 3.05 -17.5 3.7 -19.3 4.75 -20.25 4.15 -22.4 2.8 -23.65 -0.35 M-16.3 -10.65 Q-18.1 -10.75 -19.1 -11.2 -20.15 -11.65 -20.35 -12.3 -20.6 -12.9 -19.95 -13.5 -19.3 -14.05 -18.0 -14.3 L-15.75 -14.5 -16.3 -10.65 M-9.75 -18.05 L-10.0 -17.4 Q-10.3 -17.1 -10.65 -17.1 -11.0 -17.1 -11.25 -17.4 L-11.55 -18.05 -11.25 -18.75 -10.65 -19.05 -10.0 -18.75 -9.75 -18.05 M-16.15 6.75 Q-15.85 7.1 -15.85 7.55 -15.85 8.0 -16.15 8.35 L-16.85 8.65 -17.55 8.35 -17.85 7.55 -17.55 6.75 Q-17.25 6.4 -16.85 6.4 -16.45 6.4 -16.15 6.75 M-18.15 20.7 Q-16.5 22.1 -16.65 22.4 -17.7 24.7 -20.55 25.95 L-21.5 25.4 -22.8 23.3 -18.15 20.7 M-41.0 19.4 L-40.85 18.75 -40.45 18.3 -39.9 18.3 -39.45 18.7 -39.35 19.3 Q-39.25 20.0 -39.45 20.6 -39.7 21.2 -40.05 21.3 L-40.65 20.9 -41.0 19.55 -41.0 19.4 M-18.3 33.9 L-19.95 34.9 Q-20.3 34.0 -19.05 32.05 L-18.6 32.15 Q-17.8 32.7 -18.3 33.9 M-13.9 40.5 Q-13.4 40.5 -13.05 40.9 -12.75 41.25 -12.75 41.75 -12.75 42.25 -13.05 42.65 -13.4 43.0 -13.9 43.0 -14.4 43.0 -14.7 42.65 L-15.05 41.75 Q-15.05 41.25 -14.7 40.9 -14.4 40.5 -13.9 40.5 M-16.9 47.6 L-18.4 46.7 Q-17.3 44.75 -14.65 43.8 L-15.0 46.8 -16.9 47.6 M-65.05 28.25 L-63.85 29.25 Q-64.65 30.65 -63.5 31.35 L-63.05 31.45 -63.2 32.25 Q-63.2 32.7 -63.7 33.05 L-64.95 33.35 -66.8 29.05 -65.05 28.25 M-64.25 41.6 L-63.5 43.15 -64.05 43.3 Q-65.9 43.05 -64.25 41.6 M-43.9 33.5 L-43.9 33.45 -43.85 33.5 -43.3 34.05 Q-42.1 35.0 -41.45 35.0 L-42.0 36.9 -42.6 36.9 -43.25 37.95 Q-43.7 37.7 -43.65 36.3 L-43.9 33.5 M-84.8 3.0 L-83.7 3.85 Q-84.15 3.85 -84.45 3.65 L-84.8 3.0 M-84.1 8.1 L-87.35 12.2 -87.85 12.85 -88.15 13.1 Q-88.6 13.2 -88.65 12.05 L-88.5 10.6 -88.45 6.9 -84.95 2.9 -84.9 4.75 Q-84.85 6.5 -84.35 7.65 L-84.1 8.1 M-84.65 36.75 L-85.95 36.9 -84.75 36.55 -84.65 36.75 M-90.75 40.85 L-91.5 40.4 -91.7 39.75 -91.35 39.2 Q-91.1 38.9 -90.7 38.85 L-90.05 38.85 -88.75 38.7 Q-88.35 38.7 -88.05 39.15 -87.75 39.6 -87.75 40.3 L-88.7 41.3 -90.75 40.85 M-86.65 47.15 L-86.75 46.4 -86.45 45.9 Q-85.35 44.95 -84.45 46.3 -84.45 47.05 -84.75 47.6 L-85.55 48.15 Q-86.05 48.2 -86.4 47.7 L-86.65 47.15" fill="#f867a9" fill-rule="evenodd" stroke="none"/>
    <path d="M6.6 -10.7 Q6.6 -9.9 5.75 -9.35 4.85 -8.8 3.6 -8.8 3.6 -9.7 3.25 -10.3 2.85 -11.0 2.3 -11.0 L2.55 -11.75 Q4.0 -14.55 6.45 -12.4 L5.9 -12.2 5.6 -11.75 5.65 -11.15 6.05 -10.75 6.6 -10.7 M4.0 -5.55 L5.95 -6.35 Q5.95 -5.05 6.85 -4.15 7.7 -3.25 8.9 -3.25 9.7 1.0 9.1 3.7 L7.65 2.05 5.2 0.0 -1.4 -4.6 3.1 -5.25 Q3.8 -2.8 4.6 -3.75 4.85 -4.1 4.0 -5.55 M33.7 -8.25 L34.2 -6.65 Q33.6 -6.45 32.75 -7.05 L33.4 -7.75 33.7 -8.25 M30.35 -10.55 L27.6 -9.05 Q26.6 -11.8 24.5 -10.35 L24.0 -9.9 21.2 -17.75 30.5 -12.2 30.35 -10.55 M51.0 -8.65 Q51.0 -7.7 50.3 -6.95 49.55 -6.3 48.55 -6.3 L48.25 -6.65 47.4 -11.6 51.0 -8.65 M52.05 -3.05 L52.75 -3.4 Q57.25 -5.05 53.7 -0.7 L53.55 -1.7 Q54.35 -3.25 52.6 -3.1 L52.05 -3.05 M51.25 -11.0 L51.35 -10.05 50.75 -11.0 50.4 -11.55 51.15 -11.3 51.25 -11.0 M82.35 2.9 L83.6 -2.5 90.4 -10.75 85.85 15.25 82.55 14.1 85.1 7.55 82.35 2.9 M73.35 -13.5 L67.15 -13.5 67.15 -18.55 73.35 -18.55 73.35 -13.5 M80.1 -14.5 Q79.05 -12.65 80.65 -13.1 L81.05 -13.35 Q80.85 -12.2 80.4 -12.15 73.65 -10.15 80.1 -14.5 M91.4 -13.75 L93.15 -12.75 92.9 -10.45 Q91.9 -10.45 91.7 -10.8 91.15 -12.05 91.4 -13.75 M81.45 23.95 L82.0 24.4 82.2 25.5 Q81.25 26.9 81.4 24.15 L81.45 23.95 M83.0 28.6 L88.5 28.65 85.35 36.0 84.75 39.1 Q84.1 39.2 83.8 39.5 83.5 39.75 83.65 40.1 L84.2 40.7 85.05 40.8 85.5 41.4 87.45 46.45 Q86.1 48.35 87.05 48.35 L80.25 50.65 81.75 48.9 Q81.65 45.8 81.05 44.25 L79.4 44.4 79.0 44.0 76.3 34.7 81.2 35.75 Q82.65 35.6 83.4 34.95 84.1 34.3 83.9 33.5 83.7 32.7 82.65 32.25 81.6 31.8 80.6 31.9 L80.85 30.6 83.0 28.6 M79.0 27.75 L75.5 22.45 80.8 23.8 79.0 27.75 M51.5 13.6 L52.5 15.0 51.55 16.55 Q50.1 15.25 49.5 12.7 L50.05 13.25 Q50.65 13.6 51.5 13.6 M52.25 17.35 L51.55 18.7 51.75 17.75 52.25 17.35 M51.55 23.7 L54.55 18.7 54.5 38.9 Q55.4 38.0 55.8 38.25 61.8 41.75 55.85 44.4 L53.8 43.75 Q54.5 41.85 54.1 40.35 53.7 38.7 52.2 37.4 L51.55 23.7 M52.8 50.6 L43.8 46.05 Q43.95 44.5 44.35 44.4 L51.05 44.75 52.8 50.6 M50.75 39.65 L50.45 38.05 50.7 38.0 Q51.0 37.95 51.25 38.2 L51.5 38.8 51.3 39.45 50.75 39.65 M46.3 30.55 L42.25 30.2 Q41.6 30.1 41.15 29.05 L43.4 27.9 Q43.4 28.6 44.0 29.3 44.65 30.05 46.3 30.55 M41.8 9.35 Q42.65 10.3 42.65 11.65 42.65 13.05 41.8 14.0 40.9 14.95 39.7 14.95 38.5 14.95 37.65 14.0 36.75 13.05 36.75 11.65 36.75 10.3 37.65 9.35 38.5 8.4 39.7 8.4 40.9 8.4 41.8 9.35 M37.75 12.05 L38.35 11.8 38.6 11.1 38.35 10.45 Q38.1 10.15 37.75 10.15 37.4 10.15 37.15 10.45 36.9 10.7 36.9 11.1 L37.15 11.8 37.75 12.05 M26.8 11.1 L27.35 11.0 29.8 11.95 Q29.6 14.4 29.1 15.35 28.55 16.25 27.95 15.8 27.35 15.35 27.05 13.8 26.7 12.25 26.8 11.1 M30.8 18.65 Q30.4 18.85 29.95 19.4 L29.55 20.0 Q29.75 18.55 30.0 18.55 L30.8 18.65 M31.9 31.85 L33.05 32.15 Q34.15 32.05 34.95 32.9 35.75 33.75 35.75 35.0 35.75 36.2 35.0 37.1 34.2 37.95 33.1 37.95 L32.55 38.05 30.8 38.25 Q30.15 38.6 29.75 39.55 L25.95 37.55 24.45 33.55 31.9 31.85 M2.6 24.75 L7.95 17.1 Q15.45 26.5 7.8 21.25 L7.25 31.85 5.3 31.3 5.2 31.1 Q6.95 28.95 4.65 27.9 L3.95 27.65 2.6 25.8 2.6 24.75 M10.1 39.75 L11.75 44.6 6.15 46.55 8.15 39.45 10.1 39.75 M0.6 40.3 Q1.5 40.3 2.15 41.0 2.8 41.7 2.8 42.7 2.8 43.75 2.15 44.5 1.5 45.15 0.6 45.15 -0.3 45.15 -0.95 44.5 -1.6 43.75 -1.6 42.7 -1.6 41.7 -0.95 41.0 -0.3 40.3 0.6 40.3 M30.4 25.1 Q31.05 25.9 31.05 26.95 31.05 28.05 30.4 28.85 29.7 29.65 28.75 29.65 27.8 29.65 27.15 28.85 26.45 28.05 26.45 26.95 26.45 25.9 27.15 25.1 27.8 24.3 28.75 24.3 29.7 24.3 30.4 25.1 M22.75 35.05 Q23.45 35.05 24.0 36.1 24.5 37.05 24.5 38.45 24.5 39.95 25.15 40.95 25.75 41.95 26.6 42.0 25.05 41.95 23.95 40.0 22.75 37.95 22.75 35.05 M31.4 47.4 L27.45 51.55 21.05 45.4 26.5 43.95 27.15 45.65 27.25 46.0 27.65 46.05 28.65 46.3 31.4 47.4 M-91.6 -12.75 Q-91.6 -11.6 -90.7 -10.75 -89.85 -9.95 -88.65 -9.95 L-88.4 -9.45 -91.4 -7.8 Q-92.65 -7.75 -93.65 -8.45 -94.65 -9.2 -94.7 -10.2 -94.75 -11.2 -93.85 -11.95 -92.95 -12.75 -91.6 -12.75 M-87.2 -11.3 L-87.15 -11.35 -81.4 -17.3 -82.05 -1.25 Q-82.7 -3.3 -82.75 -1.7 L-82.75 -1.2 Q-84.0 -1.2 -84.85 -2.7 -85.75 -4.25 -85.75 -6.45 L-87.4 -10.8 -87.2 -11.3 M-63.45 -7.7 L-64.05 -10.45 -58.1 -15.6 Q-58.7 -11.95 -60.5 -9.3 -61.4 -8.0 -63.45 -7.7 M-63.6 -2.65 Q-62.9 -2.65 -62.35 -2.05 -61.85 -1.45 -61.85 -0.6 -61.85 0.25 -62.35 0.85 -62.9 1.4 -63.6 1.4 -64.3 1.4 -64.8 0.85 -65.35 0.25 -65.35 -0.6 -65.35 -1.45 -64.8 -2.05 -64.3 -2.65 -63.6 -2.65 M-47.55 -12.05 Q-47.55 -11.35 -46.8 -10.75 -46.05 -10.25 -44.95 -10.25 -43.3 -10.15 -42.0 -10.95 -41.1 -11.4 -40.55 -12.7 L-42.25 -4.55 -44.15 -6.55 Q-44.15 -7.1 -44.55 -7.4 -44.95 -7.75 -45.5 -7.75 -46.7 -8.4 -47.2 -9.35 -47.75 -10.55 -47.55 -12.05 M-46.95 2.85 Q-50.45 2.4 -51.3 1.65 -52.2 0.9 -51.3 0.15 -50.45 -0.55 -48.35 -0.85 L-45.55 -1.0 -46.95 2.85 M-39.4 11.3 L-37.8 11.4 Q-37.0 10.7 -36.75 9.1 L-36.25 9.5 Q-33.85 18.65 -39.4 11.3 M-23.65 -0.35 Q-23.65 -2.25 -21.95 -3.55 -20.3 -4.95 -17.95 -4.95 L-18.15 -3.85 -19.5 -1.8 -23.65 -0.35 M-17.7 4.5 Q-16.75 4.5 -16.1 5.45 -15.45 6.4 -15.45 7.75 -15.45 9.1 -16.1 10.1 -16.75 11.05 -17.7 11.05 -18.65 11.05 -19.3 10.1 -19.95 9.1 -19.95 7.75 -19.95 6.4 -19.3 5.45 -18.65 4.5 -17.7 4.5 M-16.9 1.8 L-17.7 1.1 Q-16.8 0.6 -16.8 0.3 L-16.9 1.8 M-16.15 6.75 Q-16.45 6.4 -16.85 6.4 -17.25 6.4 -17.55 6.75 L-17.85 7.55 -17.55 8.35 -16.85 8.65 -16.15 8.35 Q-15.85 8.0 -15.85 7.55 -15.85 7.1 -16.15 6.75 M-18.0 13.5 Q-17.2 13.45 -17.0 13.8 -15.0 17.3 -18.5 16.25 L-18.0 13.5 M-14.3 20.45 L-15.3 19.1 Q-14.95 16.75 -14.35 16.7 -7.9 15.75 -14.3 20.45 M-41.0 19.4 L-41.0 19.55 Q-44.1 22.1 -40.25 23.25 L-39.05 23.4 -42.95 24.8 -43.6 20.85 Q-43.6 20.25 -42.85 19.85 -42.1 19.4 -41.0 19.4 M-47.1 16.75 L-47.9 15.75 Q-51.1 8.95 -44.25 14.8 -45.45 14.8 -46.25 15.4 -47.1 16.0 -47.1 16.75 M-39.15 40.7 L-37.75 41.7 -38.9 41.75 Q-39.7 41.8 -40.3 42.2 -40.9 42.6 -41.0 43.15 -41.15 43.7 -40.75 44.2 L-39.3 45.1 -47.75 50.3 -40.45 40.75 -39.15 40.7 M-22.0 35.35 Q-22.0 37.4 -21.0 38.85 -20.0 40.3 -18.55 40.3 -18.8 42.15 -18.9 41.95 -26.3 41.7 -22.0 35.35 M-17.65 39.95 L-18.25 34.45 Q-16.75 34.3 -15.35 35.0 -14.0 35.7 -13.75 36.85 -13.55 37.95 -14.6 38.85 -15.7 39.75 -17.65 39.95 M-15.0 46.8 L-14.65 43.8 -13.95 44.1 Q-11.45 45.4 -13.15 48.1 L-15.0 46.8 M-59.5 18.05 Q-58.85 18.8 -58.85 19.9 -58.85 20.95 -59.5 21.75 -60.2 22.5 -61.15 22.5 -62.1 22.5 -62.75 21.75 -63.45 20.95 -63.45 19.9 -63.45 18.8 -62.75 18.05 -62.1 17.3 -61.15 17.3 -60.2 17.3 -59.5 18.05 M-70.1 6.5 Q-69.25 5.2 -68.05 5.2 -66.85 5.2 -65.95 6.5 -65.1 7.8 -65.1 9.7 -65.1 11.55 -65.95 12.85 -66.85 14.15 -68.05 14.15 -69.25 14.15 -70.1 12.85 -71.0 11.55 -71.0 9.7 -71.0 7.8 -70.1 6.5 M-62.95 12.2 L-61.6 2.15 -57.8 7.3 -62.95 12.2 M-81.6 12.5 L-82.15 17.0 Q-83.4 16.9 -84.2 16.35 -85.0 15.85 -85.2 15.15 -85.4 14.4 -84.9 13.75 -84.4 13.1 -83.4 12.75 L-81.6 12.5 M-71.5 28.4 L-71.25 25.95 -69.15 24.8 -68.15 28.45 -71.5 28.4 M-68.55 19.85 L-66.3 14.95 -64.4 25.1 -68.55 19.85 M-63.2 32.25 L-61.4 46.55 -63.1 37.55 -63.2 37.4 -64.95 33.35 -63.7 33.05 Q-63.2 32.7 -63.2 32.25 M-67.45 49.0 L-73.8 43.7 Q-72.7 41.65 -72.55 39.55 -72.05 31.75 -67.5 38.45 L-67.45 39.05 -68.85 40.15 -69.05 43.1 -68.85 43.9 -68.45 44.2 Q-67.4 45.35 -67.1 46.75 -66.9 47.75 -67.45 49.0 M-43.9 33.5 L-43.65 36.3 Q-44.75 35.25 -44.9 34.05 -44.9 33.85 -43.9 33.5 M-41.45 35.0 Q-42.1 35.0 -43.3 34.05 L-43.85 33.5 -40.6 32.35 -41.45 35.0 M-87.35 12.2 L-87.0 14.2 Q-87.45 14.15 -88.15 13.1 L-87.85 12.85 -87.35 12.2 M-88.5 10.6 L-90.4 10.25 Q-91.25 9.85 -91.55 9.3 -91.85 8.75 -91.5 8.15 -91.2 7.55 -90.3 7.2 L-88.45 6.9 -88.5 10.6 M-89.25 36.75 L-88.5 36.6 -88.75 38.7 -90.05 38.85 -89.25 36.75 M-90.75 40.85 L-88.7 41.3 -86.75 46.4 -86.65 47.15 -91.75 49.1 -90.75 40.85" fill="#38031c" fill-rule="evenodd" stroke="none"/>
    <path d="M0.9 -15.7 L0.95 -15.65 0.9 -15.65 0.9 -15.7 M-1.3 -13.3 Q-1.9 -13.3 -2.3 -14.05 -2.7 -14.85 -2.7 -15.9 L-1.05 -14.65 -1.3 -13.3 M2.3 -11.0 Q2.85 -11.0 3.25 -10.3 3.6 -9.7 3.6 -8.8 L3.65 -5.85 3.1 -5.25 -1.4 -4.6 Q-1.4 -7.25 -0.3 -9.1 0.75 -11.0 2.3 -11.0 M5.95 -6.35 L6.65 -7.1 Q8.1 -5.55 8.9 -3.25 7.7 -3.25 6.85 -4.15 5.95 -5.05 5.95 -6.35 M32.15 -13.3 L32.3 -12.05 Q32.45 -11.45 32.75 -11.3 33.0 -11.15 33.25 -11.55 L33.55 -13.05 33.7 -8.25 33.4 -7.75 32.75 -7.05 Q32.2 -6.8 31.9 -7.75 L30.35 -10.55 30.5 -12.2 Q30.5 -12.65 31.0 -13.0 L32.15 -13.3 M27.6 -9.05 L27.9 -8.5 27.8 -5.6 Q26.7 3.4 25.9 3.4 25.1 3.4 24.55 0.15 24.0 -3.1 24.0 -7.75 L24.0 -9.9 24.5 -10.35 Q26.6 -11.8 27.6 -9.05 M55.1 -12.75 L53.85 -13.65 52.9 -16.5 53.75 -16.6 Q59.4 -17.05 55.1 -12.75 M53.35 -12.25 L54.9 -12.45 52.35 -8.75 52.2 -8.95 51.25 -11.0 51.15 -11.3 53.35 -12.25 M48.55 -6.3 Q48.55 -4.95 49.4 -3.95 50.25 -3.05 51.45 -3.05 L51.5 -1.6 Q51.6 -0.45 52.0 0.15 L52.05 0.3 Q39.45 -1.35 48.25 -6.65 L48.55 -6.3 M53.7 -0.7 L53.15 -0.1 53.55 -1.7 53.7 -0.7 M82.35 2.9 L79.2 11.05 76.35 6.95 80.3 0.7 78.05 -8.55 Q78.85 -7.3 79.85 -7.25 81.7 -6.85 83.7 -7.65 82.9 -5.95 83.85 -6.7 L84.15 -6.95 83.6 -2.5 82.35 2.9 M93.15 -12.75 L93.2 -12.75 94.3 -12.75 95.2 -12.85 96.15 -7.3 92.9 -10.45 93.15 -12.75 M82.55 14.1 L85.85 15.25 86.0 17.55 Q85.8 17.55 85.7 17.85 85.55 18.05 85.55 18.4 L82.5 18.75 81.45 15.9 Q81.45 15.2 81.8 14.65 82.1 14.1 82.55 14.1 M85.35 36.0 Q86.95 36.0 88.15 36.75 89.35 37.5 89.4 38.65 89.45 39.7 88.35 40.55 87.2 41.35 85.5 41.4 L85.05 40.8 Q85.6 40.7 85.9 40.4 L86.1 39.75 85.6 39.25 84.75 39.1 85.35 36.0 M80.25 50.65 Q78.5 50.9 76.45 50.15 74.4 49.35 73.9 48.0 73.35 46.65 74.7 45.5 76.05 44.3 79.0 44.0 L79.4 44.4 Q79.4 46.3 80.1 47.6 80.8 48.9 81.75 48.9 L80.25 50.65 M81.2 35.75 L80.8 35.4 Q78.95 33.95 80.6 31.9 81.6 31.8 82.65 32.25 83.7 32.7 83.9 33.5 84.1 34.3 83.4 34.95 82.65 35.6 81.2 35.75 M51.2 8.65 L52.85 2.7 56.95 14.65 54.55 18.7 51.55 23.7 51.55 18.7 52.25 17.35 52.5 15.0 51.5 13.6 Q52.7 13.55 53.45 12.75 54.2 11.95 54.15 10.95 54.05 9.9 53.2 9.25 52.3 8.55 51.2 8.65 M55.85 44.4 Q55.95 48.2 54.55 51.1 54.45 51.35 52.8 50.6 L51.05 44.75 51.3 44.25 53.8 43.75 55.85 44.4 M49.55 37.3 L46.3 30.55 Q44.65 30.05 44.0 29.3 43.4 28.6 43.4 27.9 L43.4 27.65 Q43.5 26.75 44.35 26.05 45.15 25.4 46.4 25.2 L48.25 25.15 Q48.95 25.15 49.45 26.0 49.95 26.8 49.95 27.95 49.75 27.8 49.35 27.95 48.95 28.0 48.75 28.2 L48.6 28.6 48.85 29.0 49.65 29.25 50.95 35.55 49.65 34.5 Q49.0 35.3 49.55 37.3 M27.35 11.0 Q28.4 10.9 28.9 10.5 29.4 10.05 29.3 9.5 29.15 8.95 28.45 8.65 L27.0 8.45 27.55 7.95 Q32.4 5.5 29.8 11.95 L27.35 11.0 M29.55 20.0 L29.95 19.4 Q30.4 18.85 30.8 18.65 31.95 18.9 33.15 20.05 L33.05 32.15 31.9 31.85 33.05 23.55 29.55 20.0 M3.95 27.65 L4.65 27.9 Q6.95 28.95 5.2 31.1 L3.95 27.65 M5.3 31.3 L7.25 31.85 10.1 39.75 8.15 39.45 5.3 31.3 M11.75 44.6 Q9.35 48.35 6.55 49.35 L6.15 46.55 11.75 44.6 M24.5 38.45 Q25.55 40.4 25.9 38.25 L25.95 37.55 29.75 39.55 30.55 40.9 27.0 42.2 26.95 42.05 26.75 42.0 26.6 42.0 Q25.75 41.95 25.15 40.95 24.5 39.95 24.5 38.45 M32.55 41.55 Q34.45 41.2 34.85 42.0 36.4 44.75 36.45 48.65 L31.4 47.4 28.65 46.3 Q30.25 46.3 31.4 44.95 32.55 43.5 32.55 41.55 M-87.05 -14.05 L-88.3 -14.2 Q-88.25 -13.55 -86.9 -13.0 L-87.15 -11.35 -87.2 -11.3 -87.4 -10.9 Q-88.4 -12.2 -88.7 -10.8 L-88.65 -9.95 Q-89.85 -9.95 -90.7 -10.75 -91.6 -11.6 -91.6 -12.75 L-91.2 -13.9 Q-89.4 -17.5 -87.05 -14.05 M-89.6 -0.35 Q-91.6 -2.65 -92.25 -5.4 -92.5 -6.4 -91.4 -7.8 L-88.4 -9.45 -87.85 -8.4 -88.4 -2.0 -89.6 -0.35 M-44.95 -10.25 L-43.25 -15.8 -35.15 -18.35 -36.55 -12.75 Q-37.05 -14.45 -37.5 -14.45 -39.05 -14.45 -40.55 -12.7 -41.1 -11.4 -42.0 -10.95 -43.3 -10.15 -44.95 -10.25 M-42.25 -4.55 Q-43.75 1.0 -46.1 4.7 L-46.95 2.85 -45.55 -1.0 -45.6 -5.25 Q-45.0 -5.25 -44.55 -5.6 -44.15 -6.0 -44.15 -6.55 L-42.25 -4.55 M-40.35 6.95 L-37.65 0.5 Q-38.55 -2.25 -37.75 -4.0 L-36.05 -3.05 -36.75 9.1 Q-37.0 10.7 -37.8 11.4 L-39.4 11.3 -40.25 8.35 -40.35 6.95 M-18.15 -3.85 L-17.95 -4.95 -16.3 -10.65 -15.75 -14.5 Q-14.05 -14.4 -13.95 -13.9 -13.15 -9.25 -13.95 -4.25 L-14.15 -3.85 -14.6 -3.15 Q-16.6 -0.75 -18.15 -3.85 M-20.55 25.95 Q-17.7 24.7 -16.65 22.4 -16.5 22.1 -18.15 20.7 -17.95 19.1 -17.2 18.65 -16.5 18.3 -15.3 19.1 L-14.3 20.45 -14.65 31.95 -16.9 26.95 Q-17.95 27.8 -18.7 27.6 -19.75 27.3 -20.55 25.95 M-22.8 23.3 L-21.5 25.4 -19.05 32.05 Q-20.3 34.0 -19.95 34.9 L-18.3 33.9 -18.25 34.45 -17.65 39.95 -18.55 40.3 Q-20.0 40.3 -21.0 38.85 -22.0 37.4 -22.0 35.35 L-22.8 23.3 M-41.0 19.55 L-40.65 20.9 -40.05 21.3 Q-39.7 21.2 -39.45 20.6 -39.25 20.0 -39.35 19.3 -37.75 19.25 -36.3 19.85 -34.9 20.35 -34.7 21.2 -34.55 22.05 -35.75 22.7 -36.95 23.35 -39.05 23.4 L-40.25 23.25 Q-44.1 22.1 -41.0 19.55 M-42.95 24.8 Q-42.2 26.45 -42.65 27.1 -44.05 29.3 -46.7 30.5 L-47.1 16.75 Q-47.1 16.0 -46.25 15.4 -45.45 14.8 -44.25 14.8 L-43.6 20.85 -42.95 24.8 M-38.4 28.1 Q-37.7 27.3 -36.75 27.3 -35.8 27.3 -35.1 28.1 -34.4 28.85 -34.4 29.9 -34.4 31.0 -35.1 31.8 -35.8 32.5 -36.75 32.5 -37.7 32.5 -38.4 31.8 -39.1 31.0 -39.1 29.9 -39.1 28.85 -38.4 28.1 M-39.3 45.1 L-40.75 44.2 Q-41.15 43.7 -41.0 43.15 -40.9 42.6 -40.3 42.2 -39.7 41.8 -38.9 41.75 L-37.75 41.7 -38.5 53.0 -39.3 45.1 M-16.9 47.6 L-15.0 46.8 -13.15 48.1 -4.25 45.5 -8.3 51.1 -14.6 52.85 -16.9 47.6 M-81.6 12.5 L-77.1 13.35 Q-78.7 16.25 -81.0 17.9 L-82.15 17.0 -81.6 12.5 M-71.5 28.4 Q-73.95 26.5 -75.3 24.0 -76.0 22.7 -75.65 20.75 L-71.25 25.95 -71.5 28.4 M-69.15 24.8 Q-70.5 24.65 -71.25 23.85 -72.05 23.0 -71.85 22.0 -71.7 20.95 -70.7 20.35 -69.7 19.7 -68.55 19.85 L-64.4 25.1 -65.05 28.25 -66.8 29.05 -68.15 28.45 -69.15 24.8 M-63.1 37.55 L-64.25 41.6 Q-65.9 43.05 -64.05 43.3 L-63.5 43.15 Q-62.8 46.1 -63.8 47.65 -64.75 49.05 -67.45 49.0 -66.9 47.75 -67.1 46.75 -67.4 45.35 -68.45 44.2 L-69.05 43.1 -68.85 40.15 -68.4 40.35 Q-66.9 40.5 -67.45 39.05 L-67.5 38.45 Q-66.4 37.15 -65.1 36.7 -64.25 36.65 -63.2 37.4 L-63.1 37.55 M-68.95 22.4 L-69.45 22.6 -69.65 23.15 -69.45 23.75 -68.95 23.95 Q-68.65 23.95 -68.45 23.75 L-68.25 23.15 -68.45 22.6 -68.95 22.4 M-87.0 32.8 Q-87.0 31.35 -87.65 30.3 -88.35 29.25 -89.3 29.25 L-88.6 23.45 Q-86.8 26.1 -86.3 29.1 -86.0 30.8 -87.0 32.8 M-88.5 36.6 L-88.2 36.6 -84.75 36.55 -85.95 36.9 -84.65 36.75 Q-85.15 38.6 -86.2 39.7 -86.7 40.35 -87.75 40.3 -87.75 39.6 -88.05 39.15 -88.35 38.7 -88.75 38.7 L-88.5 36.6 M-92.55 28.4 Q-91.75 28.4 -91.15 28.85 -90.6 29.25 -90.6 29.85 -90.6 30.5 -91.15 30.95 -91.75 31.35 -92.55 31.35 -93.35 31.35 -93.9 30.95 -94.5 30.5 -94.5 29.85 -94.5 29.25 -93.9 28.85 -93.35 28.4 -92.55 28.4" fill="#9c074a" fill-rule="evenodd" stroke="none"/>
    <path d="M0.9 -15.65 L0.95 -15.65 Q1.2 -14.5 0.85 -14.15 0.1 -13.35 -1.3 -13.3 L-1.05 -14.65 0.9 -15.65 M6.6 -10.7 L6.05 -10.75 5.65 -11.15 5.6 -11.75 5.9 -12.2 6.45 -12.4 6.8 -11.95 Q7.4 -11.15 6.6 -10.7 M27.9 -8.5 L28.4 -7.9 Q29.2 -6.55 27.8 -5.6 L27.9 -8.5 M55.1 -12.75 L54.9 -12.45 53.35 -12.25 50.65 -11.6 49.8 -15.35 49.95 -15.45 53.85 -13.65 55.1 -12.75 M52.35 -8.75 L52.25 -8.45 52.15 -8.45 51.2 -8.95 50.75 -11.0 51.35 -10.05 52.2 -8.95 52.35 -8.75 M51.45 -3.05 L52.05 -3.05 52.6 -3.1 Q54.35 -3.25 53.55 -1.7 L53.15 -0.1 52.4 0.35 52.05 0.3 52.0 0.15 Q51.6 -0.45 51.5 -1.6 L51.45 -3.05 M86.15 -16.25 L88.1 -15.65 87.75 -15.3 Q86.75 -14.85 86.15 -16.25 M86.0 17.55 Q86.35 17.6 86.4 17.8 88.45 23.35 85.55 18.4 85.55 18.05 85.7 17.85 85.8 17.55 86.0 17.55 M79.4 44.4 L81.05 44.25 Q81.65 45.8 81.75 48.9 80.8 48.9 80.1 47.6 79.4 46.3 79.4 44.4 M50.45 38.05 L49.85 37.85 49.55 37.3 Q49.0 35.3 49.65 34.5 L50.95 35.55 50.95 35.8 50.7 38.0 50.45 38.05 M46.75 17.15 Q44.25 11.1 48.85 15.9 L46.75 17.15 M51.4 43.7 L51.3 43.7 Q52.65 41.55 51.4 43.7 M28.05 4.65 Q26.95 3.1 29.0 5.05 28.3 5.05 28.05 4.65 M2.4 35.8 Q1.65 36.6 0.6 36.6 -0.45 36.6 -1.15 35.8 -1.9 34.95 -1.9 33.85 -1.9 32.7 -1.15 31.9 -0.45 31.05 0.6 31.05 1.65 31.05 2.4 31.9 3.1 32.7 3.1 33.85 3.1 34.95 2.4 35.8 M29.0 43.15 Q29.2 42.85 29.45 42.85 L29.9 43.15 30.1 43.85 29.9 44.6 29.45 44.85 29.0 44.6 28.8 43.85 29.0 43.15 M-90.6 -16.7 Q-90.6 -16.15 -90.95 -15.75 -91.3 -15.35 -91.8 -15.35 -92.3 -15.35 -92.65 -15.75 -93.0 -16.15 -93.0 -16.7 -93.0 -17.3 -92.65 -17.7 L-91.8 -18.05 Q-91.3 -18.05 -90.95 -17.7 -90.6 -17.3 -90.6 -16.7 M-86.9 -13.0 Q-88.25 -13.55 -88.3 -14.2 L-87.05 -14.05 -86.9 -13.0 M-82.75 -1.2 L-82.75 -1.7 Q-82.7 -3.3 -82.05 -1.25 L-82.75 -1.2 M-63.45 -7.7 Q-63.7 -7.4 -63.95 -7.55 -65.95 -7.1 -64.05 -10.45 L-63.45 -7.7 M-67.3 -16.0 L-67.1 -14.8 -67.3 -13.6 Q-67.55 -13.1 -67.85 -13.1 L-68.35 -13.6 -68.6 -14.8 -68.35 -16.0 -67.85 -16.5 -67.3 -16.0 M-13.95 -4.25 L-13.45 -3.75 Q-12.05 -0.85 -14.15 -3.85 L-13.95 -4.25 M-18.0 13.5 L-18.5 16.25 -18.55 16.45 Q-24.3 13.25 -18.0 13.5 M-22.7 10.7 Q-22.35 11.3 -22.35 12.1 -22.35 12.95 -22.7 13.6 -23.05 14.15 -23.55 14.15 -24.05 14.15 -24.4 13.6 -24.75 12.95 -24.75 12.1 -24.75 11.3 -24.4 10.7 -24.05 10.1 -23.55 10.1 -23.05 10.1 -22.7 10.7 M-39.15 40.7 L-40.45 40.75 -40.25 39.9 Q-39.8 38.9 -39.15 40.7 M-41.8 3.25 L-41.9 2.7 -41.8 2.25 -41.6 2.05 -41.4 2.25 -41.3 2.7 -41.4 3.25 -41.6 3.4 -41.8 3.25 M-63.85 29.25 Q-62.5 29.35 -62.25 30.05 -62.1 30.5 -63.05 31.45 L-63.5 31.35 Q-64.65 30.65 -63.85 29.25 M-68.95 22.4 L-68.45 22.6 -68.25 23.15 -68.45 23.75 Q-68.65 23.95 -68.95 23.95 L-69.45 23.75 -69.65 23.15 -69.45 22.6 -68.95 22.4 M-84.8 3.0 L-84.45 3.65 Q-84.15 3.85 -83.7 3.85 L-82.85 3.9 Q-80.35 3.95 -82.0 5.45 -82.65 8.2 -83.25 8.5 -83.7 8.65 -84.1 8.1 L-84.35 7.65 Q-84.85 6.5 -84.9 4.75 L-84.95 2.9 -84.8 3.0 M-89.3 29.25 Q-88.35 29.25 -87.65 30.3 -87.0 31.35 -87.0 32.8 L-88.2 36.6 -88.5 36.6 -89.25 36.75 -89.3 29.25" fill="#ffffff" fill-rule="evenodd" stroke="none"/>
    <path d="M11.6 -10.6 Q12.7 -7.05 13.0 -1.0 L13.1 1.95 Q13.65 3.4 15.1 4.35 L15.55 4.7 Q12.95 7.15 9.1 6.75 6.65 6.7 4.4 5.65 2.15 6.7 -0.45 6.75 -4.2 7.15 -6.8 4.7 L-6.35 4.35 Q-4.5 3.1 -4.15 1.2 L-4.15 -0.1 Q-4.15 -6.55 -4.65 -8.15 -5.15 -9.8 -7.0 -9.8 -8.6 -9.8 -9.15 -8.45 -9.75 -7.05 -9.75 -1.25 L-9.75 34.85 Q-9.75 39.95 -9.15 41.55 -8.6 43.1 -6.85 43.1 -4.95 43.1 -4.25 41.3 -3.6 39.5 -3.6 34.2 L-3.6 25.35 -7.1 25.35 -7.1 13.9 13.1 13.9 13.1 54.3 2.25 54.3 0.7 48.9 Q-1.1 52.35 -3.8 54.15 -6.5 55.85 -10.15 55.85 -14.5 55.85 -18.25 53.5 -22.05 51.05 -24.05 47.55 -26.0 44.0 -26.5 40.15 -27.0 36.25 -27.0 28.5 L-27.0 6.1 Q-27.0 -4.65 -25.95 -9.5 -24.95 -14.4 -20.05 -18.45 -15.25 -22.55 -7.5 -22.55 0.05 -22.55 5.1 -19.05 10.1 -15.45 11.6 -10.6 M-2.3 -9.1 Q-1.65 -7.35 -1.65 -0.1 L-1.65 1.2 -1.7 1.75 -2.35 3.9 -0.65 3.9 -0.5 3.9 Q1.65 3.85 3.5 3.05 4.4 2.6 5.35 3.05 7.15 3.85 9.15 3.9 L9.35 3.9 11.15 3.9 10.8 3.05 10.6 2.05 10.5 -0.9 Q10.25 -6.4 9.25 -9.65 7.95 -13.65 3.8 -16.6 -0.75 -19.7 -7.5 -19.7 -14.3 -19.7 -18.55 -16.2 L-18.55 -16.15 Q-22.6 -12.8 -23.5 -8.85 -24.5 -4.2 -24.5 6.1 L-24.5 28.5 Q-24.5 36.0 -24.0 39.75 -23.6 43.05 -21.9 46.05 L-21.95 46.0 Q-20.25 48.95 -17.0 51.05 -13.85 53.05 -10.15 53.05 -7.25 53.05 -5.05 51.75 L-5.0 51.75 Q-2.9 50.2 -1.45 47.5 -0.95 46.45 0.05 46.2 1.0 45.85 1.9 46.4 2.75 46.95 3.1 48.05 L4.05 51.45 10.6 51.45 10.6 16.7 -4.6 16.7 -4.6 22.5 -3.6 22.5 Q-2.55 22.5 -1.8 23.35 -1.1 24.15 -1.1 25.35 L-1.1 34.2 Q-1.1 40.3 -1.9 42.4 L-1.95 42.45 Q-3.3 45.9 -6.85 45.95 -10.45 45.95 -11.45 42.6 -12.25 40.7 -12.25 34.85 L-12.25 -1.25 Q-12.25 -8.05 -11.4 -9.65 -10.35 -12.65 -7.0 -12.65 -3.2 -12.65 -2.25 -9.1 L-2.3 -9.1 M35.2 -18.05 L33.45 -18.15 33.25 -18.15 Q31.15 -18.05 29.35 -17.2 28.4 -16.85 27.5 -17.2 25.6 -18.05 23.5 -18.15 L23.35 -18.15 21.6 -18.05 Q22.25 -16.85 22.3 -15.25 L22.3 -14.05 22.3 47.25 22.3 48.45 Q22.25 50.05 21.6 51.35 L23.35 51.35 23.5 51.35 Q25.6 51.3 27.5 50.5 28.4 50.05 29.35 50.5 31.15 51.3 33.25 51.35 L33.45 51.35 35.2 51.35 Q34.8 50.5 34.65 49.65 L34.55 48.9 34.55 22.65 Q34.55 21.45 35.3 20.7 36.0 19.85 37.05 19.85 L42.25 19.85 Q43.3 19.85 44.05 20.7 44.75 21.45 44.75 22.65 L44.75 48.6 44.7 49.1 44.05 51.35 45.85 51.35 46.0 51.35 Q48.1 51.3 50.0 50.5 50.9 50.05 51.85 50.5 53.65 51.3 55.75 51.35 L55.95 51.35 57.7 51.35 Q57.2 50.35 57.05 49.25 L57.0 48.65 57.0 -15.45 57.05 -16.05 Q57.2 -17.15 57.7 -18.05 L55.95 -18.15 55.75 -18.15 Q53.65 -18.05 51.85 -17.2 50.9 -16.85 50.0 -17.2 48.1 -18.05 46.0 -18.15 L45.85 -18.15 44.05 -18.05 Q44.55 -17.05 44.7 -15.85 L44.75 -15.4 44.75 5.95 Q44.75 7.15 44.05 8.0 43.3 8.8 42.25 8.8 L37.05 8.8 Q36.0 8.8 35.3 8.0 34.55 7.15 34.55 5.95 L34.55 -15.7 34.65 -16.35 Q34.8 -17.3 35.2 -18.05 M19.8 -14.2 L19.8 -15.0 Q19.65 -17.2 17.55 -18.6 L17.15 -18.9 Q19.75 -21.35 23.55 -20.95 26.1 -20.9 28.4 -19.9 30.65 -20.9 33.2 -20.95 37.0 -21.35 39.65 -18.9 L39.2 -18.6 Q37.45 -17.45 37.05 -15.7 L37.05 5.95 42.25 5.95 42.25 -15.4 Q41.95 -17.35 40.05 -18.6 L39.65 -18.9 Q42.25 -21.35 46.05 -20.95 48.6 -20.9 50.9 -19.9 53.15 -20.9 55.7 -20.95 59.15 -21.3 61.65 -19.3 L62.15 -18.9 61.7 -18.6 61.65 -18.55 Q59.85 -17.4 59.5 -15.45 L59.5 48.65 Q59.85 50.6 61.7 51.8 L62.15 52.15 Q59.5 54.55 55.7 54.15 53.15 54.1 50.9 53.1 48.6 54.1 46.05 54.15 42.25 54.55 39.65 52.15 L40.05 51.8 Q41.95 50.55 42.25 48.6 L42.25 22.65 37.05 22.65 37.05 48.9 Q37.45 50.65 39.2 51.8 L39.65 52.15 Q37.0 54.55 33.2 54.15 30.65 54.1 28.4 53.1 26.1 54.1 23.55 54.15 19.75 54.55 17.15 52.15 L17.55 51.8 Q19.65 50.45 19.8 48.2 L19.8 47.4 19.8 -14.2 M65.5 -23.0 Q66.5 -21.45 68.05 -21.1 L96.45 -21.1 Q98.0 -21.45 99.0 -23.0 L99.3 -23.4 Q101.45 -21.1 101.1 -17.7 101.05 -15.45 100.15 -13.5 101.05 -11.45 101.1 -9.2 101.45 -5.85 99.3 -3.5 L99.0 -3.9 Q97.8 -5.7 95.85 -5.9 L95.15 -5.9 90.95 -5.9 90.95 48.8 Q91.35 50.55 93.1 51.65 L93.55 52.0 Q90.9 54.45 87.1 54.05 84.55 54.0 82.3 53.0 80.0 54.0 77.45 54.05 73.65 54.45 71.05 52.0 L71.45 51.65 Q73.55 50.3 73.7 48.1 L73.7 -5.9 69.35 -5.9 68.65 -5.9 Q66.7 -5.7 65.5 -3.9 L65.2 -3.5 Q63.05 -5.85 63.4 -9.2 63.45 -11.45 64.35 -13.5 63.45 -15.45 63.4 -17.7 63.05 -21.1 65.2 -23.4 L65.5 -23.0 M-48.2 -15.3 L-48.2 -15.0 -48.2 -14.2 -48.2 47.5 -48.2 48.25 -48.2 48.55 Q-48.3 50.1 -48.95 51.4 L-47.2 51.4 -47.05 51.4 Q-44.9 51.35 -43.0 50.55 -42.1 50.1 -41.15 50.55 -39.35 51.35 -37.3 51.4 L-37.1 51.4 -35.3 51.4 -35.8 50.1 -35.95 49.1 -35.95 -15.85 -35.8 -16.75 -35.3 -18.05 -37.1 -18.15 -37.3 -18.15 Q-39.35 -18.05 -41.15 -17.2 -42.1 -16.85 -43.0 -17.2 -44.9 -18.05 -47.05 -18.15 L-47.2 -18.15 -48.95 -18.05 Q-48.3 -16.85 -48.2 -15.3 M-47.0 -20.95 Q-44.4 -20.9 -42.1 -19.9 -39.85 -20.9 -37.35 -20.95 -33.5 -21.35 -30.85 -18.9 L-31.3 -18.6 Q-32.95 -17.5 -33.45 -15.85 L-33.45 49.1 Q-32.95 50.75 -31.3 51.85 L-30.85 52.2 Q-33.5 54.6 -37.35 54.2 -39.85 54.15 -42.1 53.15 -44.4 54.15 -47.0 54.2 -50.8 54.6 -53.4 52.2 L-52.95 51.85 Q-50.9 50.5 -50.7 48.25 L-50.7 47.5 -50.7 -14.2 -50.7 -15.0 Q-50.9 -17.2 -52.95 -18.6 L-53.4 -18.9 Q-50.8 -21.35 -47.0 -20.95 M-96.2 -20.95 L-81.75 -20.95 -72.1 12.9 -72.1 -14.2 Q-71.95 -17.0 -74.0 -18.6 L-74.35 -18.9 Q-72.15 -21.35 -68.95 -20.95 -66.8 -20.9 -64.9 -19.9 -63.0 -20.9 -60.85 -20.95 L-60.0 -21.0 Q-58.45 -21.1 -57.25 -20.45 -56.05 -19.75 -55.8 -19.45 L-55.45 -18.9 -55.8 -18.6 Q-56.7 -17.9 -57.2 -16.9 L-57.45 -16.3 -57.5 -16.1 -57.5 -16.0 -57.6 -15.7 -57.65 -15.45 -57.65 54.3 -72.8 54.3 -81.75 20.05 -81.75 48.75 Q-81.45 50.65 -79.9 51.85 L-79.55 52.2 Q-81.75 54.6 -84.95 54.2 -87.1 54.15 -89.0 53.15 -90.9 54.15 -93.05 54.2 -96.25 54.6 -98.45 52.2 L-98.1 51.85 Q-96.35 50.5 -96.2 48.2 L-96.2 47.5 -96.2 -20.95 M-83.55 -18.15 L-93.7 -18.15 -93.7 47.5 -93.7 48.2 -93.7 48.45 Q-93.8 50.1 -94.4 51.45 L-93.3 51.45 -93.1 51.4 Q-91.5 51.35 -90.05 50.6 L-89.0 50.3 -87.9 50.6 Q-86.5 51.35 -84.9 51.4 L-84.65 51.45 -83.55 51.45 -84.2 49.25 -84.25 48.75 -84.25 20.05 Q-84.25 19.05 -83.65 18.25 -83.05 17.4 -82.1 17.3 -81.2 17.1 -80.4 17.7 -79.6 18.25 -79.35 19.25 L-70.9 51.45 -60.15 51.45 -60.15 -15.45 -60.1 -15.9 -59.45 -18.15 -60.55 -18.15 -60.8 -18.15 Q-62.4 -18.05 -63.8 -17.35 -64.35 -17.05 -64.9 -17.05 L-65.95 -17.35 Q-67.4 -18.05 -69.0 -18.15 L-69.2 -18.15 -70.3 -18.15 Q-69.5 -16.35 -69.6 -14.05 L-69.6 12.9 Q-69.6 13.95 -70.2 14.8 -70.8 15.6 -71.7 15.75 -72.6 15.85 -73.4 15.35 -74.2 14.8 -74.45 13.8 L-83.55 -18.15 M65.9 -17.75 Q65.95 -16.2 66.6 -14.8 L66.85 -13.5 66.6 -12.2 Q65.95 -10.7 65.9 -9.05 L65.9 -8.85 65.9 -7.95 Q67.05 -8.6 68.45 -8.75 L68.65 -8.75 69.35 -8.75 73.7 -8.75 Q74.75 -8.75 75.5 -7.9 76.2 -7.1 76.2 -5.9 L76.2 48.1 76.2 48.35 Q76.15 49.9 75.5 51.2 L77.25 51.2 77.4 51.2 Q79.5 51.15 81.4 50.35 82.3 49.9 83.25 50.35 85.05 51.15 87.15 51.2 L87.35 51.2 89.1 51.2 88.55 49.5 88.45 48.8 88.45 -5.9 Q88.45 -7.1 89.2 -7.9 89.9 -8.75 90.95 -8.75 L95.15 -8.75 95.85 -8.75 96.05 -8.75 Q97.45 -8.6 98.65 -7.95 L98.65 -8.85 98.6 -9.05 Q98.55 -10.7 97.95 -12.2 97.65 -12.8 97.65 -13.5 97.65 -14.15 97.95 -14.8 98.55 -16.2 98.6 -17.75 L98.65 -18.0 98.65 -19.0 97.0 -18.3 96.45 -18.25 70.95 -18.15 70.0 -18.25 68.05 -18.25 67.5 -18.3 65.9 -18.9 65.9 -18.0 65.9 -17.75" fill="#ffffff" fill-rule="evenodd" stroke="none"/>
    <path d="M-2.3 -9.1 L-2.25 -9.1 -2.25 -9.05 -2.3 -9.1" fill="#ee0b61" fill-opacity="0.49803922" fill-rule="evenodd" stroke="none"/>
    <path d="M44.45 -20.95 L46.05 -20.95 Q48.6 -20.9 50.9 -19.9 53.15 -20.9 55.7 -20.95 59.15 -21.3 61.65 -19.3 L62.15 -18.9 61.7 -18.6 61.65 -18.55 Q59.85 -17.4 59.5 -15.45 L59.5 36.5 45.8 54.2 Q42.15 54.5 39.65 52.15 37.0 54.55 33.2 54.15 30.65 54.1 28.4 53.1 26.1 54.1 23.55 54.15 19.75 54.55 17.15 52.15 L17.55 51.8 Q19.65 50.45 19.8 48.2 L19.8 47.4 19.8 10.95 37.05 -11.4 37.05 5.95 42.25 5.95 42.25 -15.4 Q42.1 -16.35 41.55 -17.15 L44.45 -20.95 M70.95 -20.95 L96.45 -21.1 Q98.0 -21.45 99.0 -23.0 L99.3 -23.4 Q101.45 -21.1 101.1 -17.7 L101.1 -17.4 92.2 -5.9 90.95 -5.9 90.95 -4.25 73.7 18.05 73.7 -5.9 69.35 -5.9 68.65 -5.9 Q66.7 -5.7 65.5 -3.9 L65.2 -3.5 Q63.05 -5.85 63.4 -9.2 63.45 -11.45 64.35 -13.5 63.45 -15.45 63.4 -17.7 63.05 -21.1 65.2 -23.4 L65.5 -23.0 Q66.5 -21.45 68.05 -21.1 L70.95 -21.1 70.95 -20.95 M39.65 52.15 L40.05 51.8 Q41.95 50.55 42.25 48.6 L42.25 22.65 37.05 22.65 37.05 48.9 Q37.45 50.65 39.2 51.8 L39.65 52.15 M2.25 54.3 L0.7 48.9 Q-1.1 52.35 -3.8 54.15 -6.5 55.85 -10.15 55.85 L-14.4 55.25 13.1 19.6 13.1 54.3 2.25 54.3" fill="url(#gradient0)" fill-rule="evenodd" stroke="none"/>
    <path d="M-53.4 -18.9 Q-50.8 -21.35 -47.0 -20.95 -44.4 -20.9 -42.1 -19.9 -39.85 -20.9 -37.35 -20.95 -33.5 -21.35 -30.85 -18.9 L-31.3 -18.6 Q-32.95 -17.5 -33.45 -15.85 L-33.45 18.35 -50.7 40.75 -50.7 -14.2 -50.7 -15.0 Q-50.9 -17.2 -52.95 -18.6 L-53.4 -18.9 M-74.0 -18.6 L-74.35 -18.9 Q-72.15 -21.35 -68.95 -20.95 -66.8 -20.9 -64.9 -19.9 -63.0 -20.9 -60.85 -20.95 -57.65 -21.35 -55.45 -18.9 L-55.8 -18.6 Q-57.35 -17.4 -57.65 -15.45 L-57.65 49.75 -61.15 54.3 -72.8 54.3 -81.75 20.05 -81.75 48.75 Q-81.45 50.65 -79.9 51.85 L-79.55 52.2 Q-81.75 54.6 -84.95 54.2 -87.1 54.15 -89.0 53.15 -90.9 54.15 -93.05 54.2 -96.25 54.6 -98.45 52.2 L-98.1 51.85 Q-96.35 50.5 -96.2 48.2 L-96.2 47.5 -96.2 2.85 -80.7 -17.3 -72.1 12.9 -72.1 -14.2 Q-71.95 -17.0 -74.0 -18.6 M-7.5 -22.55 L-2.2 -22.05 -27.0 10.05 -27.0 6.1 Q-27.0 -4.65 -25.95 -9.5 -24.95 -14.4 -20.05 -18.45 -15.25 -22.55 -7.5 -22.55" fill="url(#gradient1)" fill-rule="evenodd" stroke="none"/>
  </g>
  <defs>
    <linearGradient gradientTransform="matrix(0.0414, 0.0394, -0.7254, 0.9796, 105.3, -113.0)" gradientUnits="userSpaceOnUse" id="gradient0" spreadMethod="pad" x1="-819.2" x2="819.2">
      <stop offset="0.0" stop-color="#ffffff"/>
      <stop offset="0.9137254901960784" stop-color="#ffffff" stop-opacity="0.43529412"/>
      <stop offset="1.0" stop-color="#ffffff" stop-opacity="0.0"/>
    </linearGradient>
    <linearGradient gradientTransform="matrix(0.0368, 0.035, -0.7254, 0.9796, 39.75, -161.55)" gradientUnits="userSpaceOnUse" id="gradient1" spreadMethod="pad" x1="-819.2" x2="819.2">
      <stop offset="0.0" stop-color="#ffffff"/>
      <stop offset="0.9137254901960784" stop-color="#ffffff" stop-opacity="0.43529412"/>
      <stop offset="1.0" stop-color="#ffffff" stop-opacity="0.0"/>
    </linearGradient>
  </defs>
</svg>
