<?xml version="1.0" encoding="UTF-8" standalone="no"?>
<svg xmlns:ffdec="https://www.free-decompiler.com/flash" xmlns:xlink="http://www.w3.org/1999/xlink" ffdec:objectType="shape" height="423.5px" width="421.85px" xmlns="http://www.w3.org/2000/svg">
  <g transform="matrix(1.0, 0.0, 0.0, 1.0, 31.75, 44.45)">
    <path d="M110.05 -44.45 L114.35 -38.15 129.6 -36.4 143.45 -36.2 142.6 -20.5 199.1 -44.2 141.8 37.85 231.2 -8.15 240.15 5.8 185.55 59.9 234.55 48.3 169.7 115.7 215.95 105.25 201.3 141.3 202.85 145.05 202.9 145.15 215.65 138.15 230.7 161.45 226.7 168.45 234.55 172.35 214.35 198.9 226.6 198.55 228.85 201.8 197.95 235.55 196.85 236.5 186.05 243.05 197.15 239.85 208.25 243.3 208.5 254.75 213.4 256.15 214.95 258.4 270.9 239.15 274.25 241.9 268.55 252.3 314.2 242.2 315.9 242.2 328.6 250.25 315.35 270.0 355.55 280.1 390.1 278.65 328.4 350.65 313.35 339.7 279.2 370.65 276.75 370.6 281.9 353.25 Q254.2 356.8 232.2 374.1 227.65 377.65 222.3 375.0 217.3 372.35 214.7 367.2 L189.6 375.45 195.75 357.05 177.8 359.9 Q166.6 374.35 149.85 377.35 147.4 377.9 145.35 376.3 140.65 372.6 142.35 366.8 L134.6 357.0 96.2 379.05 73.75 374.55 63.85 340.35 46.7 332.3 23.5 334.4 Q20.75 296.1 52.5 273.85 69.65 261.8 90.1 256.95 L92.05 257.85 96.5 247.3 76.95 252.3 76.95 252.25 73.05 253.25 33.45 252.8 35.1 239.1 20.85 238.2 18.3 216.4 -24.55 236.35 16.15 161.4 1.8 146.85 68.1 65.2 Q26.2 99.05 -22.1 119.4 -25.5 120.9 -26.0 116.75 -29.3 88.15 -4.2 71.75 L-28.8 69.8 -31.75 60.5 79.25 -34.05 89.6 -31.55 110.05 -44.45" fill="#000000" fill-opacity="0.6" fill-rule="evenodd" stroke="none"/>
  </g>
</svg>
