<?xml version="1.0" encoding="UTF-8" standalone="no"?>
<svg xmlns:ffdec="https://www.free-decompiler.com/flash" xmlns:xlink="http://www.w3.org/1999/xlink" ffdec:objectType="shape" height="9.0px" width="18.2px" xmlns="http://www.w3.org/2000/svg">
  <g transform="matrix(1.0, 0.0, 0.0, 1.0, 9.1, 4.7)">
    <path d="M-8.65 2.2 L-8.7 1.65 -8.8 1.3 -9.0 0.85 -9.0 0.6 Q-8.95 0.3 -9.05 0.05 L-9.05 -0.35 -8.8 -1.0 -7.85 -2.35 -6.8 -3.6 -6.9 -4.3 -6.9 -4.55 -6.65 -4.65 -6.45 -4.65 Q-5.65 -3.15 -4.15 -2.35 L-3.1 -1.85 -2.1 -1.7 0.2 -1.85 1.4 -2.05 2.75 -2.45 4.7 0.25 5.25 1.4 5.4 1.6 5.5 1.9 5.6 2.1 5.65 2.2 5.75 2.4 6.0 2.95 5.85 3.0 2.8 3.85 -1.1 4.3 -1.8 4.3 -1.5 3.85 -0.2 3.8 0.05 3.75 0.65 3.75 0.65 2.75 0.6 1.65 0.55 0.45 0.6 0.25 0.9 3.45 0.95 3.85 1.3 3.8 2.2 3.65 2.7 3.55 3.35 3.4 3.15 2.4 3.05 2.05 2.8 0.65 2.65 -0.35 3.5 3.3 3.5 3.35 3.55 3.35 4.1 3.3 Q4.15 3.2 4.25 3.2 L4.75 3.05 5.5 2.65 5.6 2.6 4.75 1.0 3.75 -0.65 3.15 -1.55 1.75 -1.15 1.0 -1.05 -0.8 -0.9 -2.6 -1.05 -4.3 -1.5 Q-5.2 -1.9 -5.8 -2.65 L-6.0 -2.95 -6.0 -2.9 -6.0 -2.95 -4.85 -2.0 Q-4.4 -1.65 -3.85 -1.5 L-1.75 -1.15 1.2 -1.35 3.15 -1.55 2.75 -2.2 1.45 -1.75 1.4 -1.75 -0.4 -1.45 -1.6 -1.4 -3.4 -1.7 Q-4.35 -2.0 -5.05 -2.6 L-5.8 -3.4 -6.1 -3.8 -6.65 -4.45 -6.75 -4.4 -6.7 -4.15 -6.55 -3.65 -7.25 -2.85 -7.5 -2.55 -8.1 -1.75 -8.9 -0.15 -8.7 0.25 -8.3 -0.45 -7.5 -1.55 -6.85 -2.45 -8.45 0.2 -8.7 0.85 -8.7 0.9 -8.3 1.35 -8.5 1.95 -8.45 2.0 -8.2 1.85 -7.15 -0.4 -6.55 -1.3 -8.2 1.95 -7.95 2.2 -8.05 2.45 -7.9 2.6 -7.8 2.6 -7.45 2.05 -7.15 1.25 -6.0 -0.85 -6.15 -0.45 -6.9 1.05 Q-7.35 1.8 -7.4 2.7 L-7.45 2.95 -6.5 3.25 -6.15 3.55 -5.7 3.65 -5.45 3.55 -5.3 3.5 -5.25 3.5 -5.25 3.35 -4.6 0.05 -4.4 -0.4 -5.25 3.5 -5.1 3.7 -4.45 3.65 -3.8 3.7 -3.65 3.1 -3.4 2.2 -3.1 1.1 -3.0 1.0 -3.15 1.85 -3.45 3.05 -3.25 3.65 -2.85 3.9 -2.5 3.5 -2.35 3.9 -2.4 3.9 -2.4 3.95 -2.35 3.95 -2.1 4.15 -1.85 4.3 -5.45 3.9 -5.85 3.85 -6.4 3.65 -6.5 3.55 -6.7 3.45 -7.65 3.05 -7.7 3.05 -8.55 2.4 -8.65 2.2 -8.55 2.3 -8.65 2.2 M8.55 -0.7 Q8.85 -0.45 8.65 -1.0 L7.8 -2.95 8.55 -1.75 8.05 -3.5 Q7.9 -4.0 8.2 -4.1 L8.15 -4.25 6.95 -3.7 6.95 -3.65 6.95 -3.55 7.15 -2.85 7.5 -2.05 Q7.6 -1.6 8.0 -1.2 L8.5 -0.6 8.55 -0.7 M8.4 -4.3 L8.35 -3.8 9.1 -0.35 9.05 -0.35 8.8 -0.3 Q7.15 -1.55 6.8 -3.35 L6.6 -3.8 6.85 -4.0 8.0 -4.65 8.25 -4.65 8.25 -4.6 8.4 -4.3 M4.15 0.55 L4.1 0.4 4.0 -0.1 4.1 0.05 4.55 1.2 4.15 0.55" fill="#000000" fill-rule="evenodd" stroke="none"/>
    <path d="M-6.0 -2.95 L-6.35 -3.4 -6.35 -3.2 Q-6.2 -2.55 -5.7 -2.05 L-6.15 -2.45 Q-5.75 -1.8 -5.0 -1.45 L-4.8 -1.35 Q-4.55 -1.15 -4.15 -1.05 L-3.6 -0.8 -1.6 -0.3 -1.5 -0.25 -1.95 2.05 -1.95 2.35 -2.0 2.9 -2.1 4.15 -2.35 3.95 -2.35 3.9 -2.5 3.5 -2.35 2.1 -2.25 1.1 -2.15 0.4 Q-2.15 -0.05 -2.45 0.75 L-2.6 1.55 -2.9 2.95 -2.85 3.9 -3.25 3.65 -3.45 3.05 -3.15 1.85 -3.0 1.0 -2.85 0.5 -2.9 0.15 -2.9 0.0 -3.85 2.1 -3.6 0.35 Q-4.4 1.7 -4.45 3.4 L-4.45 3.65 -5.1 3.7 -5.25 3.5 -4.4 -0.4 -4.6 0.05 -4.5 -0.4 -4.65 -0.2 -5.45 1.55 -5.75 2.35 Q-6.0 3.05 -5.7 3.65 L-6.15 3.55 -6.5 3.25 -7.45 2.95 -7.4 2.7 Q-7.35 1.8 -6.9 1.05 L-6.15 -0.45 -6.0 -0.85 -7.15 1.25 -6.8 0.3 -6.75 0.0 -7.15 0.55 -7.95 2.2 -8.2 1.95 -6.55 -1.3 -7.15 -0.4 -8.1 1.1 -8.3 1.35 -8.7 0.9 -8.7 0.85 -8.45 0.2 -6.85 -2.45 -7.5 -1.55 -8.3 -0.45 -8.7 0.25 -8.9 -0.15 -8.1 -1.75 -7.5 -2.55 -7.25 -2.85 -6.55 -3.65 -6.7 -4.15 -6.75 -4.4 -6.65 -4.45 -6.1 -3.8 -5.8 -3.4 -5.05 -2.6 Q-4.35 -2.0 -3.4 -1.7 L-1.6 -1.4 -0.4 -1.45 1.4 -1.75 1.45 -1.75 2.75 -2.2 3.15 -1.55 1.2 -1.35 -1.75 -1.15 -3.85 -1.5 Q-4.4 -1.65 -4.85 -2.0 L-6.0 -2.95 -6.0 -2.9 -6.0 -2.95 M-6.5 3.25 Q-5.95 3.0 -5.75 2.0 L-5.75 1.95 -5.6 1.25 -5.35 0.2 -5.35 -0.15 -5.65 0.65 -6.0 1.55 -6.55 3.25 -6.5 3.25 M4.75 3.05 L4.25 3.2 4.3 2.25 4.2 1.9 3.85 0.85 Q3.85 0.15 4.25 1.1 L4.6 2.25 4.75 3.05 M3.55 3.35 L3.5 3.35 3.5 3.3 3.55 3.35 M2.65 -0.35 L2.8 0.65 3.05 2.05 3.15 2.4 3.35 3.4 2.7 3.55 2.65 2.45 2.5 1.6 2.2 -0.2 2.65 -0.45 2.65 -0.35 M2.2 3.65 L1.3 3.8 1.25 2.65 1.2 2.1 0.95 0.7 0.65 0.1 0.6 0.25 0.55 0.45 0.6 1.65 0.65 2.75 0.65 3.75 0.05 3.75 0.1 3.5 0.15 2.8 0.05 1.75 Q0.05 0.8 -0.25 0.25 L-0.25 0.4 -0.4 1.95 -0.3 2.9 -0.2 3.8 -1.5 3.85 -1.2 -0.3 1.65 -0.4 1.7 0.55 1.9 2.55 2.2 3.65 M7.5 -2.05 L7.15 -2.85 6.95 -3.55 6.95 -3.65 6.95 -3.7 8.15 -4.25 8.2 -4.1 Q7.9 -4.0 8.05 -3.5 L8.55 -1.75 7.8 -2.95 8.65 -1.0 Q8.85 -0.45 8.55 -0.7 L7.9 -2.25 7.55 -2.75 7.5 -2.85 7.45 -2.65 7.5 -2.05 M-5.3 3.5 L-5.25 3.35 -5.25 3.5 -5.3 3.5" fill="#d5d0c1" fill-rule="evenodd" stroke="none"/>
    <path d="M-1.8 4.3 L-1.85 4.3 -2.1 4.15 -2.0 2.9 -1.95 2.35 -1.95 2.05 -1.5 -0.25 -1.6 -0.3 -3.6 -0.8 -4.15 -1.05 Q-4.55 -1.15 -4.8 -1.35 L-5.0 -1.45 Q-5.75 -1.8 -6.15 -2.45 L-5.7 -2.05 Q-6.2 -2.55 -6.35 -3.2 L-6.35 -3.4 -6.0 -2.95 -5.8 -2.65 Q-5.2 -1.9 -4.3 -1.5 L-2.6 -1.05 -0.8 -0.9 1.0 -1.05 1.75 -1.15 3.15 -1.55 3.75 -0.65 4.75 1.0 5.6 2.6 5.5 2.65 4.75 3.05 4.6 2.25 4.25 1.1 Q3.85 0.15 3.85 0.85 L4.2 1.9 4.3 2.25 4.25 3.2 Q4.15 3.2 4.1 3.3 L3.55 3.35 3.5 3.3 2.65 -0.35 2.65 -0.45 2.2 -0.2 2.5 1.6 2.65 2.45 2.7 3.55 2.2 3.65 1.9 2.55 1.7 0.55 1.65 -0.4 -1.2 -0.3 -1.5 3.85 -1.8 4.3 M-8.65 2.2 L-8.55 2.3 -8.65 2.2 M-8.3 1.35 L-8.1 1.1 -7.15 -0.4 -8.2 1.85 -8.45 2.0 -8.5 1.95 -8.3 1.35 M-7.95 2.2 L-7.15 0.55 -6.75 0.0 -6.8 0.3 -7.15 1.25 -7.45 2.05 -7.8 2.6 -7.9 2.6 -8.05 2.45 -7.95 2.2 M-6.5 3.25 L-6.55 3.25 -6.0 1.55 -5.65 0.65 -5.35 -0.15 -5.35 0.2 -5.6 1.25 -5.75 1.95 -5.75 2.0 Q-5.95 3.0 -6.5 3.25 M-5.7 3.65 Q-6.0 3.05 -5.75 2.35 L-5.45 1.55 -4.65 -0.2 -4.5 -0.4 -4.6 0.05 -5.25 3.35 -5.3 3.5 -5.45 3.55 -5.7 3.65 M-4.45 3.65 L-4.45 3.4 Q-4.4 1.7 -3.6 0.35 L-3.85 2.1 -2.9 0.0 -2.9 0.15 -2.85 0.5 -3.0 1.0 -3.1 1.1 -3.4 2.2 -3.65 3.1 -3.8 3.7 -4.45 3.65 M-2.85 3.9 L-2.9 2.95 -2.6 1.55 -2.45 0.75 Q-2.15 -0.05 -2.15 0.4 L-2.25 1.1 -2.35 2.1 -2.5 3.5 -2.85 3.9 M1.3 3.8 L0.95 3.85 0.9 3.45 0.6 0.25 0.65 0.1 0.95 0.7 1.2 2.1 1.25 2.65 1.3 3.8 M0.05 3.75 L-0.2 3.8 -0.3 2.9 -0.4 1.95 -0.25 0.4 -0.25 0.25 Q0.05 0.8 0.05 1.75 L0.15 2.8 0.1 3.5 0.05 3.75 M8.55 -0.7 L8.5 -0.6 8.0 -1.2 Q7.6 -1.6 7.5 -2.05 L7.45 -2.65 7.5 -2.85 7.55 -2.75 7.9 -2.25 8.55 -0.7 M4.15 0.55 L4.55 1.2 4.1 0.05 4.0 -0.1 4.1 0.4 4.15 0.55" fill="#aca488" fill-rule="evenodd" stroke="none"/>
  </g>
</svg>
