<?xml version="1.0" encoding="UTF-8" standalone="no"?>
<svg xmlns:ffdec="https://www.free-decompiler.com/flash" xmlns:xlink="http://www.w3.org/1999/xlink" ffdec:objectType="shape" height="20.55px" width="17.55px" xmlns="http://www.w3.org/2000/svg">
  <g transform="matrix(1.0, 0.0, 0.0, 1.0, 8.75, 15.25)">
    <path d="M0.5 -13.3 L-1.05 -13.45 -3.4 -13.9 -4.6 -14.6 -6.95 -14.75 Q-7.8 -12.25 -7.65 -9.5 L-7.55 -7.05 Q-7.5 -4.85 -7.95 -2.55 L-8.2 -1.55 -8.3 -1.4 Q-8.7 -0.45 -8.2 0.15 L-5.8 2.4 Q-2.65 4.55 1.15 4.85 L3.8 4.9 4.1 4.9 6.55 4.35 3.3 -1.4 2.75 -2.45 2.05 -4.85 1.2 -6.7 Q0.2 -10.55 2.95 -13.15 L3.05 -13.25 0.5 -13.3 M7.05 -9.35 L7.1 -9.3 7.55 -8.2 8.2 -5.65 Q8.8 -3.15 8.8 -0.6 L8.05 -1.1 7.3 -2.15 Q6.5 -3.6 6.6 -5.2 L6.6 -5.3 Q7.15 -7.3 7.05 -9.35 M3.6 -13.0 L3.3 -12.9 Q2.45 -12.15 2.05 -11.15 1.05 -8.45 1.85 -5.85 2.05 -5.3 2.4 -5.35 L2.75 -3.45 2.75 -3.35 Q3.3 -1.5 4.5 0.0 5.5 1.2 5.9 2.6 6.2 3.8 7.0 4.35 L5.8 5.1 Q2.9 5.5 -0.05 5.1 -4.4 4.3 -7.75 1.35 -8.6 0.6 -8.75 -0.05 L-8.55 -1.3 Q-7.5 -4.35 -7.8 -7.7 -8.1 -11.25 -7.4 -14.7 L-7.05 -15.2 -4.85 -15.25 -4.25 -14.65 -3.95 -14.5 Q-2.25 -13.65 -0.7 -13.65 L1.1 -13.95 Q2.3 -13.9 3.2 -13.45 3.7 -13.3 3.6 -13.0 M1.7 -0.4 L2.2 -1.5 Q2.55 -1.3 2.85 -1.15 L2.85 -0.85 Q2.9 -0.25 2.45 0.05 1.8 0.35 1.7 -0.4 M1.35 -5.55 Q1.65 -5.65 1.55 -5.2 L1.4 -4.15 0.7 -4.2 Q0.45 -5.1 1.35 -5.55 M7.9 -5.8 L7.3 -8.3 7.2 -6.1 7.05 -5.05 7.6 -5.1 7.6 -3.9 7.1 -3.85 7.2 -3.35 8.05 -1.85 Q8.2 -1.85 8.35 -2.0 L8.45 -2.45 7.95 -5.5 7.9 -5.7 7.9 -5.8 M8.3 -1.15 Q8.6 -0.75 8.55 -1.2 L8.3 -1.15 M3.7 2.9 Q4.0 1.95 4.7 2.6 L4.45 4.1 Q4.25 4.75 3.8 4.35 L3.6 3.75 3.7 2.9 M-6.1 -13.15 L-5.65 -12.65 -6.0 -11.7 -6.15 -11.4 -6.3 -11.25 -6.5 -11.25 Q-7.35 -12.25 -6.1 -13.15 M0.3 2.3 L0.15 3.1 -0.25 3.4 -0.65 3.1 -0.8 2.3 -0.65 1.55 Q-0.5 1.2 -0.25 1.2 L0.15 1.55 0.3 2.3 M-0.55 -9.4 L-0.1 -10.5 Q0.15 -11.1 0.65 -10.6 0.6 -9.5 -0.2 -8.75 L-0.55 -9.4 M-3.0 -11.4 Q-2.5 -11.6 -2.85 -11.05 L-3.35 -9.95 -3.6 -9.85 -4.0 -10.05 -3.95 -10.55 -3.0 -11.4 M-6.15 -8.6 Q-5.9 -8.6 -5.75 -8.3 L-5.6 -7.65 Q-5.6 -7.25 -5.75 -6.95 L-6.15 -6.7 -6.55 -6.95 -6.7 -7.65 -6.55 -8.3 -6.15 -8.6 M-2.3 -7.2 Q-1.65 -6.7 -2.05 -6.3 L-2.7 -5.35 Q-3.25 -5.4 -3.15 -6.05 L-2.3 -7.2 M-7.65 -0.65 Q-8.0 0.0 -8.25 -0.7 -8.15 -1.9 -7.3 -2.2 L-7.25 -2.05 Q-7.3 -1.25 -7.65 -0.65 M-5.55 -3.85 L-5.2 -4.1 -4.85 -3.85 -4.7 -3.25 Q-4.7 -2.9 -4.85 -2.65 L-5.2 -2.4 Q-5.4 -2.4 -5.55 -2.65 L-5.7 -3.25 -5.55 -3.85 M-4.7 1.75 L-4.75 1.6 Q-4.95 0.25 -3.9 -0.05 L-3.9 1.45 -4.7 1.75 M-2.2 -1.6 L-1.45 -3.05 Q-0.75 -2.4 -1.5 -1.45 -1.85 -0.95 -2.2 -1.6" fill="#000000" fill-rule="evenodd" stroke="none"/>
    <path d="M-1.05 -13.45 L-0.85 -12.7 Q-0.65 -12.4 -0.3 -12.35 0.0 -12.3 0.25 -12.55 L0.5 -13.3 3.05 -13.25 2.95 -13.15 Q0.2 -10.55 1.2 -6.7 0.85 -6.65 0.7 -6.4 -0.15 -5.0 0.4 -3.55 L1.1 -3.25 Q1.65 -3.6 1.85 -4.2 L2.05 -4.85 2.75 -2.45 2.35 -2.65 Q1.4 -1.75 1.45 -0.3 L1.5 0.1 2.4 0.85 3.2 0.1 Q3.65 -0.7 3.3 -1.4 L6.55 4.35 4.1 4.9 Q5.8 3.4 4.55 1.55 L4.25 1.25 Q2.7 2.05 3.2 3.95 L3.65 4.8 3.8 4.9 1.15 4.85 Q-2.65 4.55 -5.8 2.4 L-8.2 0.15 -7.55 0.0 Q-6.3 -1.3 -7.2 -2.95 L-7.4 -3.2 -7.95 -2.55 Q-7.5 -4.85 -7.55 -7.05 L-7.65 -9.5 Q-7.8 -12.25 -6.95 -14.75 L-4.6 -14.6 -4.45 -13.55 Q-3.95 -13.25 -3.55 -13.75 L-3.4 -13.9 -1.05 -13.45 M0.2 -11.6 Q-1.05 -10.5 -0.95 -8.7 L-0.7 -8.05 Q0.2 -7.9 0.6 -9.0 L1.05 -10.2 1.05 -10.9 0.2 -11.6 M7.9 -5.8 L7.7 -5.95 7.2 -6.1 7.3 -8.3 7.9 -5.8 M7.2 -3.35 Q8.15 -3.95 7.95 -5.25 L7.95 -5.5 8.45 -2.45 8.2 -2.25 8.05 -1.85 7.2 -3.35 M0.7 1.05 L-0.15 0.5 Q-1.25 1.15 -1.4 2.4 -1.6 3.85 -0.25 4.25 L0.1 3.65 0.85 1.45 0.7 1.05 M-6.1 -13.7 Q-7.35 -13.15 -7.45 -11.35 -7.5 -10.75 -7.0 -10.35 -6.75 -10.4 -6.6 -10.55 L-5.7 -11.75 Q-5.35 -12.45 -5.45 -13.25 L-6.1 -13.7 M-2.4 -12.25 L-3.35 -12.65 Q-4.85 -11.6 -4.65 -9.85 L-4.55 -9.5 -3.6 -9.05 Q-2.5 -10.15 -2.35 -11.95 L-2.4 -12.25 M-2.35 -7.95 L-2.9 -7.7 Q-4.05 -6.35 -3.4 -4.7 L-3.25 -4.55 -2.45 -4.55 -2.0 -5.25 Q-1.5 -6.25 -1.55 -7.05 L-2.35 -7.95 M-6.3 -9.25 L-7.0 -8.75 -7.3 -7.6 -7.0 -6.4 Q-6.7 -5.95 -6.3 -5.95 -5.9 -5.95 -5.6 -6.4 -5.3 -6.9 -5.3 -7.6 -5.3 -8.3 -5.6 -8.75 -5.9 -9.25 -6.3 -9.25 M-6.25 -2.35 L-6.0 -2.0 -5.15 -1.85 Q-3.95 -2.75 -4.3 -4.4 L-5.25 -5.2 Q-6.1 -4.3 -6.2 -2.95 L-6.25 -2.35 M-1.25 -4.15 Q-2.25 -3.95 -2.3 -2.9 L-2.2 -1.2 -1.95 -0.4 -1.1 -0.65 Q-0.3 -1.9 -0.75 -3.45 L-1.25 -4.15 M-3.95 -1.05 Q-5.35 -0.25 -5.55 1.3 -5.65 2.15 -5.0 2.5 L-4.25 2.3 -3.6 1.95 -3.35 1.2 Q-2.9 0.0 -3.6 -0.8 L-3.95 -1.05" fill="#d3e173" fill-rule="evenodd" stroke="none"/>
    <path d="M0.5 -13.3 L0.25 -12.55 Q0.0 -12.3 -0.3 -12.35 -0.65 -12.4 -0.85 -12.7 L-1.05 -13.45 0.5 -13.3 M-3.4 -13.9 L-3.55 -13.75 Q-3.95 -13.25 -4.45 -13.55 L-4.6 -14.6 -3.4 -13.9 M-7.95 -2.55 L-7.4 -3.2 -7.2 -2.95 Q-6.3 -1.3 -7.55 0.0 L-8.2 0.15 Q-8.7 -0.45 -8.3 -1.4 L-8.2 -1.55 -7.95 -2.55 M3.8 4.9 L3.65 4.8 3.2 3.95 Q2.7 2.05 4.25 1.25 L4.55 1.55 Q5.8 3.4 4.1 4.9 L3.8 4.9 M3.3 -1.4 Q3.65 -0.7 3.2 0.1 L2.4 0.85 1.5 0.1 1.45 -0.3 Q1.4 -1.75 2.35 -2.65 L2.75 -2.45 3.3 -1.4 M2.05 -4.85 L1.85 -4.2 Q1.65 -3.6 1.1 -3.25 L0.4 -3.55 Q-0.15 -5.0 0.7 -6.4 0.85 -6.65 1.2 -6.7 L2.05 -4.85 M0.2 -11.6 L1.05 -10.9 1.05 -10.2 0.6 -9.0 Q0.2 -7.9 -0.7 -8.05 L-0.95 -8.7 Q-1.05 -10.5 0.2 -11.6 M1.35 -5.55 Q0.45 -5.1 0.7 -4.2 L1.4 -4.15 1.55 -5.2 Q1.65 -5.65 1.35 -5.55 M1.7 -0.4 Q1.8 0.35 2.45 0.05 2.9 -0.25 2.85 -0.85 L2.85 -1.15 Q2.55 -1.3 2.2 -1.5 L1.7 -0.4 M7.2 -6.1 L7.7 -5.95 7.9 -5.8 7.9 -5.7 7.95 -5.5 7.95 -5.25 Q8.15 -3.95 7.2 -3.35 L7.1 -3.85 7.6 -3.9 7.6 -5.1 7.05 -5.05 7.2 -6.1 M8.45 -2.45 L8.35 -2.0 Q8.2 -1.85 8.05 -1.85 L8.2 -2.25 8.45 -2.45 M8.3 -1.15 L8.55 -1.2 Q8.6 -0.75 8.3 -1.15 M3.7 2.9 L3.6 3.75 3.8 4.35 Q4.25 4.75 4.45 4.1 L4.7 2.6 Q4.0 1.95 3.7 2.9 M0.7 1.05 L0.85 1.45 0.1 3.65 -0.25 4.25 Q-1.6 3.85 -1.4 2.4 -1.25 1.15 -0.15 0.5 L0.7 1.05 M0.3 2.3 L0.15 1.55 -0.25 1.2 Q-0.5 1.2 -0.65 1.55 L-0.8 2.3 -0.65 3.1 -0.25 3.4 0.15 3.1 0.3 2.3 M-6.1 -13.15 Q-7.35 -12.25 -6.5 -11.25 L-6.3 -11.25 -6.15 -11.4 -6.0 -11.7 -5.65 -12.65 -6.1 -13.15 M-6.1 -13.7 L-5.45 -13.25 Q-5.35 -12.45 -5.7 -11.75 L-6.6 -10.55 Q-6.75 -10.4 -7.0 -10.35 -7.5 -10.75 -7.45 -11.35 -7.35 -13.15 -6.1 -13.7 M-0.55 -9.4 L-0.2 -8.75 Q0.6 -9.5 0.65 -10.6 0.15 -11.1 -0.1 -10.5 L-0.55 -9.4 M-2.4 -12.25 L-2.35 -11.95 Q-2.5 -10.15 -3.6 -9.05 L-4.55 -9.5 -4.65 -9.85 Q-4.85 -11.6 -3.35 -12.65 L-2.4 -12.25 M-3.0 -11.4 L-3.95 -10.55 -4.0 -10.05 -3.6 -9.85 -3.35 -9.95 -2.85 -11.05 Q-2.5 -11.6 -3.0 -11.4 M-2.35 -7.95 L-1.55 -7.05 Q-1.5 -6.25 -2.0 -5.25 L-2.45 -4.55 -3.25 -4.55 -3.4 -4.7 Q-4.05 -6.35 -2.9 -7.7 L-2.35 -7.95 M-2.3 -7.2 L-3.15 -6.05 Q-3.25 -5.4 -2.7 -5.35 L-2.05 -6.3 Q-1.65 -6.7 -2.3 -7.2 M-6.15 -8.6 L-6.55 -8.3 -6.7 -7.65 -6.55 -6.95 -6.15 -6.7 -5.75 -6.95 Q-5.6 -7.25 -5.6 -7.65 L-5.75 -8.3 Q-5.9 -8.6 -6.15 -8.6 M-6.3 -9.25 Q-5.9 -9.25 -5.6 -8.75 -5.3 -8.3 -5.3 -7.6 -5.3 -6.9 -5.6 -6.4 -5.9 -5.95 -6.3 -5.95 -6.7 -5.95 -7.0 -6.4 L-7.3 -7.6 -7.0 -8.75 -6.3 -9.25 M-5.55 -3.85 L-5.7 -3.25 -5.55 -2.65 Q-5.4 -2.4 -5.2 -2.4 L-4.85 -2.65 Q-4.7 -2.9 -4.7 -3.25 L-4.85 -3.85 -5.2 -4.1 -5.55 -3.85 M-7.65 -0.65 Q-7.3 -1.25 -7.25 -2.05 L-7.3 -2.2 Q-8.15 -1.9 -8.25 -0.7 -8.0 0.0 -7.65 -0.65 M-3.95 -1.05 L-3.6 -0.8 Q-2.9 0.0 -3.35 1.2 L-3.6 1.95 -4.25 2.3 -5.0 2.5 Q-5.65 2.15 -5.55 1.3 -5.35 -0.25 -3.95 -1.05 M-1.25 -4.15 L-0.75 -3.45 Q-0.3 -1.9 -1.1 -0.65 L-1.95 -0.4 -2.2 -1.2 -2.3 -2.9 Q-2.25 -3.95 -1.25 -4.15 M-6.25 -2.35 L-6.2 -2.95 Q-6.1 -4.3 -5.25 -5.2 L-4.3 -4.4 Q-3.95 -2.75 -5.15 -1.85 L-6.0 -2.0 -6.25 -2.35 M-2.2 -1.6 Q-1.85 -0.95 -1.5 -1.45 -0.75 -2.4 -1.45 -3.05 L-2.2 -1.6 M-4.7 1.75 L-3.9 1.45 -3.9 -0.05 Q-4.95 0.25 -4.75 1.6 L-4.7 1.75" fill="#5a6415" fill-rule="evenodd" stroke="none"/>
  </g>
</svg>
