<?xml version="1.0" encoding="UTF-8" standalone="no"?>
<svg xmlns:ffdec="https://www.free-decompiler.com/flash" xmlns:xlink="http://www.w3.org/1999/xlink" ffdec:objectType="shape" height="454.7px" width="424.85px" xmlns="http://www.w3.org/2000/svg">
  <g transform="matrix(1.0, 0.0, 0.0, 1.0, 31.75, 44.45)">
    <path d="M114.35 -38.15 L129.6 -36.4 143.45 -36.2 142.6 -20.5 199.1 -44.2 141.8 37.85 231.2 -8.15 240.15 5.8 185.55 59.9 234.55 48.3 169.7 115.7 215.95 105.25 201.3 141.3 202.85 145.05 202.9 145.15 215.65 138.15 230.7 161.45 226.7 168.45 234.55 172.35 214.35 198.9 226.6 198.55 228.85 201.8 203.9 229.0 224.2 234.15 250.55 233.85 Q271.3 212.25 297.95 226.7 301.2 228.45 301.9 231.95 L320.55 229.4 320.15 244.9 328.6 250.25 320.35 262.55 Q333.05 254.05 347.3 254.6 352.7 255.2 355.35 259.95 357.8 264.25 356.5 268.9 361.2 269.6 365.8 267.55 376.8 262.85 378.35 273.95 378.55 275.6 377.7 277.25 L390.1 278.65 380.7 289.65 Q393.75 294.0 393.05 309.4 391.95 332.8 367.75 336.45 L353.75 346.1 351.2 343.85 326.35 362.35 325.45 355.65 321.45 359.35 291.0 386.15 275.45 378.6 256.6 396.85 246.95 379.35 224.8 395.9 223.9 395.5 225.95 382.85 225.75 382.4 219.5 381.1 210.8 387.4 204.4 377.25 175.3 389.95 Q161.15 400.15 146.75 409.8 145.75 410.5 144.75 410.1 119.5 409.0 110.75 386.75 L106.25 383.65 81.1 379.45 67.1 390.55 Q60.05 400.0 48.95 398.35 47.4 398.1 46.1 396.85 39.5 390.15 35.95 381.6 26.0 389.75 16.75 378.7 7.55 367.6 20.3 357.6 L9.5 346.25 7.7 345.25 Q1.9 352.35 -5.75 347.1 -13.6 341.65 -11.2 332.4 -10.3 328.95 -7.35 326.5 L-9.5 318.45 -12.5 317.3 -24.7 328.35 -31.35 317.95 -3.2 279.25 16.9 249.95 29.1 238.75 20.85 238.2 18.3 216.4 -24.55 236.35 16.15 161.4 1.8 146.85 68.1 65.2 Q26.2 99.05 -22.1 119.4 -25.5 120.9 -26.0 116.75 -29.3 88.15 -4.2 71.75 L-28.8 69.8 -31.75 60.5 79.25 -34.05 89.6 -31.55 110.05 -44.45 114.35 -38.15" fill="#000000" fill-opacity="0.6" fill-rule="evenodd" stroke="none"/>
  </g>
</svg>
