<?xml version="1.0" encoding="UTF-8" standalone="no"?>
<svg xmlns:ffdec="https://www.free-decompiler.com/flash" xmlns:xlink="http://www.w3.org/1999/xlink" ffdec:objectType="shape" height="345.1px" width="661.6px" xmlns="http://www.w3.org/2000/svg">
  <g transform="matrix(1.0, 0.0, 0.0, 1.0, 31.75, 44.45)">
    <path d="M114.35 -38.15 L129.6 -36.4 143.45 -36.2 142.6 -20.5 199.1 -44.2 141.8 37.85 231.2 -8.15 240.15 5.8 185.55 59.9 234.55 48.3 169.7 115.7 215.95 105.25 202.75 137.8 228.0 113.0 252.1 85.7 241.95 85.4 267.8 46.9 250.4 41.55 281.05 11.0 284.45 14.45 284.8 16.7 288.8 18.6 289.65 21.85 334.95 23.8 334.45 24.4 333.8 24.95 333.4 25.3 Q334.55 26.05 336.05 25.85 336.6 25.9 337.15 25.3 L349.1 23.35 378.6 13.75 382.65 14.65 399.25 7.5 398.4 23.5 422.8 14.8 427.5 19.65 466.05 9.35 455.4 26.5 491.4 8.9 494.8 12.4 485.95 25.8 539.25 16.4 542.9 22.35 562.05 21.65 568.7 58.45 571.75 77.6 594.95 77.4 591.9 85.8 603.6 93.85 Q605.8 92.0 608.35 90.3 612.8 87.25 618.25 87.3 622.3 87.85 624.6 91.4 L625.1 92.25 626.15 94.3 627.0 96.5 628.25 100.6 Q629.25 104.05 628.4 107.4 L629.85 110.6 594.25 180.15 601.5 188.35 600.85 191.4 601.95 193.6 598.4 206.7 603.1 214.45 564.35 254.25 558.45 253.1 537.2 260.35 540.55 245.7 533.1 243.8 527.8 245.0 480.2 252.2 443.85 279.6 443.2 256.5 394.4 300.65 385.35 284.45 384.9 278.9 366.4 276.0 329.35 274.0 Q315.15 289.7 295.65 294.05 287.8 295.9 284.2 288.85 281.45 283.4 284.35 277.75 L282.8 273.05 256.95 288.75 254.15 286.45 256.6 275.9 263.25 241.2 261.25 239.5 259.5 232.4 244.1 247.15 233.4 238.6 254.3 204.75 254.15 203.65 254.4 182.65 224.95 195.4 229.3 177.3 215.85 188.75 214.05 221.25 194.15 238.15 161.3 258.05 162.9 247.65 145.95 253.9 138.2 255.1 139.6 247.7 105.85 276.6 99.75 264.8 86.95 269.85 96.5 247.3 73.05 253.25 33.45 252.8 35.1 239.1 20.85 238.2 18.3 216.4 -24.55 236.35 16.15 161.4 1.8 146.85 68.1 65.2 Q26.2 99.05 -22.1 119.4 -25.5 120.9 -26.0 116.75 -29.3 88.15 -4.2 71.75 L-28.8 69.8 -31.75 60.5 79.25 -34.05 89.6 -31.55 110.05 -44.45 114.35 -38.15" fill="#000000" fill-opacity="0.6" fill-rule="evenodd" stroke="none"/>
  </g>
</svg>
