<?xml version="1.0" encoding="UTF-8" standalone="no"?>
<svg xmlns:ffdec="https://www.free-decompiler.com/flash" xmlns:xlink="http://www.w3.org/1999/xlink" ffdec:objectType="shape" height="19.6px" width="19.25px" xmlns="http://www.w3.org/2000/svg">
  <g transform="matrix(1.0, 0.0, 0.0, 1.0, 10.05, 15.2)">
    <path d="M3.45 -4.7 L2.6 -4.65 Q2.65 -2.8 3.7 -1.35 5.4 0.9 6.3 3.55 L6.35 3.65 6.05 3.85 4.1 4.25 -1.7 4.1 Q-4.9 3.45 -7.75 1.85 L-8.1 1.6 -8.35 1.1 -7.7 -0.75 -6.4 -3.55 -6.85 -4.25 -7.4 -5.7 -7.45 -6.85 -7.6 -7.85 Q-8.25 -7.95 -8.6 -8.25 L-9.95 -9.2 -10.05 -9.3 Q-10.0 -10.95 -9.55 -12.55 -9.2 -13.7 -8.25 -14.55 L-7.95 -15.0 -7.75 -15.2 -5.05 -15.2 -4.65 -14.5 -4.55 -14.65 -4.45 -14.65 -4.45 -14.7 -1.9 -14.35 0.65 -14.05 Q1.95 -14.05 3.05 -13.45 L4.7 -12.7 6.0 -11.65 6.85 -10.1 Q7.65 -7.65 7.95 -5.45 L8.05 -5.05 Q8.55 -4.2 8.55 -3.2 L8.6 -2.9 9.2 0.0 9.2 0.2 Q7.05 -1.1 6.65 -3.7 L6.4 -4.85 6.0 -4.8 7.45 -5.65 7.05 -6.95 6.65 -8.95 Q6.5 -10.2 5.8 -11.25 L5.4 -11.7 3.0 -13.2 0.4 -13.7 Q-1.95 -13.85 -4.3 -14.65 L-4.75 -14.05 -4.8 -14.2 -5.2 -14.85 -5.45 -14.9 -7.7 -15.0 -7.75 -15.0 -7.7 -14.95 Q-8.9 -14.05 -9.3 -12.55 L-9.8 -10.45 -9.9 -9.8 -9.9 -9.6 -9.45 -9.1 -8.5 -8.35 -7.7 -8.3 -7.95 -8.65 Q-8.9 -11.3 -8.1 -13.95 L-8.4 -12.15 -8.4 -12.05 -8.35 -12.15 Q-8.4 -10.65 -7.9 -9.3 L-7.8 -9.2 -7.75 -9.2 -7.25 -7.45 -7.15 -5.95 -6.85 -4.45 Q-5.45 -3.1 -3.35 -2.8 L0.2 -2.2 2.85 -2.1 2.95 -2.05 2.95 -2.1 Q2.55 -3.25 2.5 -4.5 L2.55 -4.7 1.9 -5.25 1.8 -6.05 0.95 -7.3 0.9 -7.35 0.8 -7.65 0.75 -8.8 Q1.2 -11.0 2.15 -12.8 L1.45 -10.75 0.9 -8.4 1.65 -6.6 1.65 -6.55 1.9 -7.75 2.2 -9.5 2.1 -5.55 2.8 -5.0 3.45 -4.7 M2.65 -1.65 L2.65 -1.7 2.25 -1.8 Q-1.75 -1.9 -5.5 -3.35 L-5.6 -3.3 -5.6 -3.25 Q-3.95 -2.3 -2.45 -2.0 L0.6 -1.6 2.65 -1.65 M2.7 -1.75 L2.7 -1.8 2.65 -1.75 2.7 -1.75 M4.55 0.45 L3.25 -1.5 -0.1 -1.5 Q-2.05 -1.55 -3.95 -2.3 L-5.2 -2.8 -6.2 -3.4 Q-7.6 -1.3 -8.0 1.3 L-7.9 1.35 -5.3 2.5 Q0.15 4.6 6.0 3.6 L5.95 3.4 Q5.55 1.8 4.55 0.45 M8.85 -0.35 L8.75 -0.95 Q8.55 -2.25 8.05 -2.65 L7.4 -2.35 Q7.8 -1.0 8.85 -0.35 M8.3 -3.65 L8.1 -4.25 7.6 -5.3 7.4 -5.3 6.9 -5.05 Q6.55 -3.95 7.3 -2.85 L7.95 -3.0 8.3 -3.65" fill="#000000" fill-rule="evenodd" stroke="none"/>
    <path d="M6.0 -4.8 L5.5 -4.65 3.45 -4.7 2.8 -5.0 2.1 -5.55 2.2 -9.5 1.9 -7.75 1.65 -6.55 1.65 -6.6 0.9 -8.4 1.45 -10.75 2.15 -12.8 Q1.2 -11.0 0.75 -8.8 L0.8 -7.65 Q-0.5 -6.55 -2.05 -6.0 L-3.4 -5.6 Q-5.3 -6.55 -6.6 -8.15 L-7.7 -9.3 -7.8 -9.2 -7.9 -9.3 Q-8.4 -10.65 -8.35 -12.15 L-8.4 -12.15 -8.1 -13.95 Q-8.9 -11.3 -7.95 -8.65 L-7.7 -8.3 -8.5 -8.35 -9.45 -9.1 -9.9 -9.6 -9.9 -9.8 -9.8 -10.45 -9.3 -12.55 Q-8.9 -14.05 -7.7 -14.95 L-7.7 -15.0 -5.45 -14.9 -5.2 -14.85 -4.8 -14.2 -4.75 -14.05 -4.3 -14.65 Q-1.95 -13.85 0.4 -13.7 L3.0 -13.2 5.4 -11.7 5.8 -11.25 Q6.5 -10.2 6.65 -8.95 L7.05 -6.95 7.45 -5.65 6.0 -4.8 M0.9 -7.35 L0.95 -7.3 0.9 -7.3 0.9 -7.35 M2.85 -2.1 L0.2 -2.2 -3.35 -2.8 Q-5.45 -3.1 -6.85 -4.45 L-7.15 -5.95 -7.25 -7.45 -7.75 -9.2 Q-7.2 -8.8 -6.6 -7.8 -5.9 -6.6 -4.85 -5.6 L-3.2 -4.25 Q-2.8 -3.95 -2.25 -3.8 -0.3 -4.0 1.25 -4.8 1.85 -3.3 2.85 -2.1 M-5.2 -2.8 L-5.15 -2.6 Q-3.9 -1.1 -1.95 -0.75 L1.95 -0.65 3.15 -0.9 4.55 0.45 Q5.55 1.8 5.95 3.4 L6.0 3.6 Q0.15 4.6 -5.3 2.5 L-7.9 1.35 -8.0 1.3 Q-7.6 -1.3 -6.2 -3.4 L-5.2 -2.8 M8.3 -3.65 L7.95 -3.0 7.3 -2.85 Q6.55 -3.95 6.9 -5.05 L7.4 -5.3 7.6 -5.3 8.1 -4.25 8.3 -3.65 M8.85 -0.35 Q7.8 -1.0 7.4 -2.35 L8.05 -2.65 Q8.55 -2.25 8.75 -0.95 L8.85 -0.35" fill="#bebbb4" fill-rule="evenodd" stroke="none"/>
    <path d="M0.8 -7.65 L0.9 -7.35 0.9 -7.3 0.95 -7.3 1.8 -6.05 1.9 -5.25 2.55 -4.7 2.5 -4.5 Q2.55 -3.25 2.95 -2.1 L2.95 -2.05 2.85 -2.1 Q1.85 -3.3 1.25 -4.8 -0.3 -4.0 -2.25 -3.8 -2.8 -3.95 -3.2 -4.25 L-4.85 -5.6 Q-5.9 -6.6 -6.6 -7.8 -7.2 -8.8 -7.75 -9.2 L-7.8 -9.2 -7.7 -9.3 -6.6 -8.15 Q-5.3 -6.55 -3.4 -5.6 L-2.05 -6.0 Q-0.5 -6.55 0.8 -7.65 M4.55 0.45 L3.15 -0.9 1.95 -0.65 -1.95 -0.75 Q-3.9 -1.1 -5.15 -2.6 L-5.2 -2.8 -3.95 -2.3 Q-2.05 -1.55 -0.1 -1.5 L3.25 -1.5 4.55 0.45" fill="#9f9b8e" fill-rule="evenodd" stroke="none"/>
    <path d="M2.65 -1.65 L0.6 -1.6 -2.45 -2.0 Q-3.95 -2.3 -5.6 -3.25 L-5.6 -3.3 -5.5 -3.35 Q-1.75 -1.9 2.25 -1.8 L2.65 -1.7 2.65 -1.65" fill="#ffffff" fill-rule="evenodd" stroke="none"/>
  </g>
</svg>
