<?xml version="1.0" encoding="UTF-8" standalone="no"?>
<svg xmlns:ffdec="https://www.free-decompiler.com/flash" xmlns:xlink="http://www.w3.org/1999/xlink" ffdec:objectType="shape" height="111.0px" width="444.4px" xmlns="http://www.w3.org/2000/svg">
  <g transform="matrix(1.0, 0.0, 0.0, 1.0, 225.2, 54.5)">
    <path d="M-217.75 55.5 Q-217.75 55.9 -218.1 56.2 L-219.0 56.5 -219.85 56.2 -220.25 55.5 Q-220.25 55.1 -219.85 54.8 -219.5 54.5 -219.0 54.5 -218.5 54.5 -218.1 54.8 -217.75 55.1 -217.75 55.5 M-199.0 18.6 Q-198.45 18.6 -198.05 19.0 -197.65 19.4 -197.65 20.0 -197.65 20.6 -198.05 21.0 -198.45 21.4 -199.0 21.4 -199.55 21.4 -199.95 21.0 -200.35 20.6 -200.35 20.0 -200.35 19.4 -199.95 19.0 -199.55 18.6 -199.0 18.6 M-157.1 42.2 L-158.0 42.5 -158.85 42.2 -159.25 41.5 Q-159.25 41.1 -158.85 40.8 -158.5 40.5 -158.0 40.5 -157.5 40.5 -157.1 40.8 -156.75 41.1 -156.75 41.5 -156.75 41.9 -157.1 42.2 M-160.75 12.5 Q-160.75 12.9 -161.1 13.2 L-162.0 13.5 -162.85 13.2 -163.25 12.5 Q-163.25 12.1 -162.85 11.8 -162.5 11.5 -162.0 11.5 -161.5 11.5 -161.1 11.8 -160.75 12.1 -160.75 12.5 M-106.75 14.5 Q-106.75 14.9 -107.1 15.2 L-108.0 15.5 Q-108.5 15.5 -108.85 15.2 -109.25 14.9 -109.25 14.5 -109.25 14.1 -108.85 13.8 -108.5 13.5 -108.0 13.5 -107.5 13.5 -107.1 13.8 -106.75 14.1 -106.75 14.5 M-55.1 11.55 Q-55.1 12.15 -55.55 12.6 -56.0 13.05 -56.6 13.05 -57.2 13.05 -57.65 12.6 L-58.1 11.55 Q-58.1 10.95 -57.65 10.5 -57.2 10.05 -56.6 10.05 -56.0 10.05 -55.55 10.5 -55.1 10.95 -55.1 11.55 M-7.75 -31.5 Q-7.75 -31.1 -8.1 -30.8 -8.5 -30.5 -9.0 -30.5 -9.5 -30.5 -9.85 -30.8 -10.25 -31.1 -10.25 -31.5 L-9.85 -32.2 -9.0 -32.5 -8.1 -32.2 Q-7.75 -31.9 -7.75 -31.5 M-69.75 -20.5 Q-69.75 -20.1 -70.1 -19.8 -70.5 -19.5 -71.0 -19.5 -71.5 -19.5 -71.85 -19.8 -72.25 -20.1 -72.25 -20.5 L-71.85 -21.2 -71.0 -21.5 -70.1 -21.2 Q-69.75 -20.9 -69.75 -20.5 M-39.75 -50.5 Q-39.75 -50.1 -40.1 -49.8 -40.5 -49.5 -41.0 -49.5 -41.5 -49.5 -41.85 -49.8 -42.25 -50.1 -42.25 -50.5 L-41.85 -51.2 -41.0 -51.5 -40.1 -51.2 Q-39.75 -50.9 -39.75 -50.5 M-85.55 -10.5 Q-85.1 -10.05 -85.1 -9.45 -85.1 -8.85 -85.55 -8.4 -86.0 -7.95 -86.6 -7.95 -87.2 -7.95 -87.65 -8.4 -88.1 -8.85 -88.1 -9.45 -88.1 -10.05 -87.65 -10.5 -87.2 -10.95 -86.6 -10.95 -86.0 -10.95 -85.55 -10.5 M-112.0 -21.4 Q-111.45 -21.4 -111.05 -21.0 -110.65 -20.6 -110.65 -20.0 -110.65 -19.4 -111.05 -19.0 -111.45 -18.6 -112.0 -18.6 -112.55 -18.6 -112.95 -19.0 -113.35 -19.4 -113.35 -20.0 -113.35 -20.6 -112.95 -21.0 -112.55 -21.4 -112.0 -21.4 M-112.95 -50.0 Q-112.55 -50.4 -112.0 -50.4 -111.45 -50.4 -111.05 -50.0 -110.65 -49.6 -110.65 -49.0 -110.65 -48.4 -111.05 -48.0 -111.45 -47.6 -112.0 -47.6 -112.55 -47.6 -112.95 -48.0 -113.35 -48.4 -113.35 -49.0 -113.35 -49.6 -112.95 -50.0 M-162.75 -42.5 Q-162.75 -42.1 -163.1 -41.8 -163.5 -41.5 -164.0 -41.5 -164.5 -41.5 -164.85 -41.8 -165.25 -42.1 -165.25 -42.5 -165.25 -42.9 -164.85 -43.2 L-164.0 -43.5 -163.1 -43.2 Q-162.75 -42.9 -162.75 -42.5 M-205.55 -22.4 Q-206.0 -21.95 -206.6 -21.95 -207.2 -21.95 -207.65 -22.4 -208.1 -22.85 -208.1 -23.45 -208.1 -24.05 -207.65 -24.5 -207.2 -24.95 -206.6 -24.95 -206.0 -24.95 -205.55 -24.5 -205.1 -24.05 -205.1 -23.45 -205.1 -22.85 -205.55 -22.4 M-222.0 -43.0 Q-222.0 -42.35 -222.45 -41.9 -222.95 -41.45 -223.6 -41.45 -224.25 -41.45 -224.7 -41.9 -225.2 -42.35 -225.2 -43.0 -225.2 -43.65 -224.7 -44.1 -224.25 -44.55 -223.6 -44.55 -222.95 -44.55 -222.45 -44.1 -222.0 -43.65 -222.0 -43.0 M10.95 3.0 Q10.55 3.4 10.0 3.4 9.45 3.4 9.05 3.0 8.65 2.6 8.65 2.0 8.65 1.4 9.05 1.0 9.45 0.6 10.0 0.6 10.55 0.6 10.95 1.0 11.35 1.4 11.35 2.0 11.35 2.6 10.95 3.0 M134.2 23.5 L133.85 24.2 132.95 24.5 132.1 24.2 Q131.7 23.9 131.7 23.5 131.7 23.1 132.1 22.8 L132.95 22.5 Q133.45 22.5 133.85 22.8 134.2 23.1 134.2 23.5 M146.95 1.5 L147.85 1.8 Q148.2 2.1 148.2 2.5 L147.85 3.2 146.95 3.5 146.1 3.2 Q145.7 2.9 145.7 2.5 145.7 2.1 146.1 1.8 146.45 1.5 146.95 1.5 M188.2 44.5 L187.85 45.2 186.95 45.5 186.1 45.2 Q185.7 44.9 185.7 44.5 185.7 44.1 186.1 43.8 186.45 43.5 186.95 43.5 187.45 43.5 187.85 43.8 188.2 44.1 188.2 44.5 M192.95 10.5 Q193.45 10.5 193.85 10.8 194.2 11.1 194.2 11.5 L193.85 12.2 192.95 12.5 192.1 12.2 Q191.7 11.9 191.7 11.5 191.7 11.1 192.1 10.8 192.45 10.5 192.95 10.5 M217.95 48.5 Q218.45 48.5 218.85 48.8 219.2 49.1 219.2 49.5 L218.85 50.2 217.95 50.5 217.1 50.2 Q216.7 49.9 216.7 49.5 216.7 49.1 217.1 48.8 217.45 48.5 217.95 48.5 M198.2 -12.5 Q198.2 -12.1 197.85 -11.8 197.45 -11.5 196.95 -11.5 196.45 -11.5 196.1 -11.8 195.7 -12.1 195.7 -12.5 L196.1 -13.2 196.95 -13.5 197.85 -13.2 198.2 -12.5 M160.1 -35.45 Q160.1 -34.9 159.6 -34.5 159.1 -34.1 158.4 -34.1 157.7 -34.1 157.2 -34.5 156.7 -34.9 156.7 -35.45 156.7 -36.0 157.2 -36.4 157.7 -36.8 158.4 -36.8 159.1 -36.8 159.6 -36.4 160.1 -36.0 160.1 -35.45 M94.25 -41.5 Q94.25 -41.1 93.9 -40.8 93.5 -40.5 93.0 -40.5 92.5 -40.5 92.15 -40.8 91.75 -41.1 91.75 -41.5 91.75 -41.9 92.15 -42.2 L93.0 -42.5 93.9 -42.2 94.25 -41.5 M120.1 -51.45 Q120.1 -50.9 119.6 -50.5 119.1 -50.1 118.4 -50.1 117.7 -50.1 117.2 -50.5 116.7 -50.9 116.7 -51.45 116.7 -52.0 117.2 -52.4 117.7 -52.8 118.4 -52.8 119.1 -52.8 119.6 -52.4 120.1 -52.0 120.1 -51.45 M69.05 -1.0 Q69.45 -1.4 70.0 -1.4 70.55 -1.4 70.95 -1.0 71.35 -0.6 71.35 0.0 71.35 0.6 70.95 1.0 70.55 1.4 70.0 1.4 69.45 1.4 69.05 1.0 68.65 0.6 68.65 0.0 68.65 -0.6 69.05 -1.0 M56.9 -19.45 Q56.9 -18.85 56.45 -18.4 56.0 -17.95 55.4 -17.95 54.8 -17.95 54.35 -18.4 53.9 -18.85 53.9 -19.45 53.9 -20.05 54.35 -20.5 54.8 -20.95 55.4 -20.95 56.0 -20.95 56.45 -20.5 56.9 -20.05 56.9 -19.45 M33.25 -37.5 Q33.25 -37.1 32.9 -36.8 32.5 -36.5 32.0 -36.5 31.5 -36.5 31.15 -36.8 30.75 -37.1 30.75 -37.5 30.75 -37.9 31.15 -38.2 31.5 -38.5 32.0 -38.5 L32.9 -38.2 33.25 -37.5 M15.25 -53.5 Q15.25 -53.1 14.9 -52.8 14.5 -52.5 14.0 -52.5 13.5 -52.5 13.15 -52.8 12.75 -53.1 12.75 -53.5 L13.15 -54.2 Q13.5 -54.5 14.0 -54.5 L14.9 -54.2 15.25 -53.5" fill="#ffffff" fill-rule="evenodd" stroke="none"/>
    <path d="M216.7 -48.5 L217.1 -49.2 217.95 -49.5 218.85 -49.2 219.2 -48.5 Q219.2 -48.1 218.85 -47.8 218.45 -47.5 217.95 -47.5 217.45 -47.5 217.1 -47.8 216.7 -48.1 216.7 -48.5" fill="#ffffff" fill-rule="evenodd" stroke="none"/>
  </g>
</svg>
