<?xml version="1.0" encoding="UTF-8" standalone="no"?>
<svg xmlns:ffdec="https://www.free-decompiler.com/flash" xmlns:xlink="http://www.w3.org/1999/xlink" ffdec:objectType="shape" height="204.7px" width="412.65px" xmlns="http://www.w3.org/2000/svg">
  <g transform="matrix(1.0, 0.0, 0.0, 1.0, 205.9, 105.6)">
    <path d="M106.25 7.7 L113.2 -1.35 112.9 -5.15 117.4 -6.65 117.4 -6.3 Q116.75 -3.5 117.85 -4.8 L116.55 3.25 Q112.35 5.0 113.05 11.4 113.15 12.4 114.4 12.4 L113.85 15.5 108.9 27.8 111.9 24.15 122.25 16.1 145.6 -7.5 145.9 -7.3 Q134.8 3.25 133.8 12.65 129.9 15.9 128.5 14.25 L127.85 13.7 115.25 27.4 105.35 31.7 100.1 38.05 99.6 38.45 Q100.95 35.3 101.65 30.1 L101.6 30.1 93.95 39.05 112.1 3.95 105.95 9.7 Q106.3 8.85 106.25 7.7 M72.0 8.7 Q75.3 11.05 73.15 14.65 71.3 14.65 70.05 16.1 68.75 17.5 68.75 19.6 L68.65 19.65 Q64.55 16.25 68.7 9.85 L72.0 8.7 M68.6 28.05 L76.0 23.45 68.0 34.3 68.6 28.05 M65.6 36.25 L60.85 39.6 61.95 39.45 61.9 39.7 61.8 40.15 61.8 40.6 60.2 44.3 59.45 48.3 58.6 48.3 Q54.1 48.2 52.25 54.7 L52.25 54.35 Q45.6 56.6 45.85 63.35 41.9 65.15 38.85 68.25 39.7 67.05 38.4 65.55 L41.3 63.55 Q31.3 62.4 23.05 71.45 L27.05 71.6 Q19.7 77.7 20.65 83.4 L28.6 80.2 Q29.1 81.3 29.55 80.45 L29.5 80.45 28.5 79.55 Q28.2 79.25 28.2 78.8 L37.3 70.1 38.35 72.3 38.05 72.85 39.0 72.5 39.65 72.35 Q49.2 71.6 55.15 64.3 57.8 64.9 60.55 60.55 71.25 43.3 86.1 28.9 92.6 16.1 104.1 11.25 103.9 12.6 104.4 11.7 L104.6 11.35 104.85 11.45 Q108.1 15.1 101.4 19.65 100.4 14.5 98.05 21.5 L98.35 21.7 91.8 31.85 88.0 32.2 81.4 37.75 Q74.3 38.3 72.35 48.7 L73.15 49.15 Q76.35 51.15 73.7 53.7 L72.4 50.75 62.25 61.35 60.65 62.3 61.15 62.3 Q60.65 63.6 61.2 63.35 68.35 61.75 75.4 58.05 L67.1 64.15 66.65 64.45 Q52.2 75.0 50.5 70.6 51.0 70.15 51.6 69.8 L50.4 70.35 Q42.95 74.0 35.55 77.7 L34.75 78.95 Q29.4 87.25 20.0 89.3 19.1 86.2 16.7 90.2 L16.2 91.0 8.4 92.9 12.65 86.95 8.95 90.15 5.05 90.85 Q3.15 84.4 3.7 90.9 3.75 91.35 4.1 91.8 L2.15 96.1 -1.25 90.9 10.5 80.85 Q13.75 83.25 15.55 77.85 L15.75 77.25 21.15 71.9 18.85 52.1 19.35 51.35 25.4 63.35 26.05 63.1 34.6 53.25 33.45 62.45 39.55 59.8 41.6 60.5 52.9 42.15 52.65 48.7 61.25 34.3 Q64.9 31.15 65.4 36.15 L65.6 36.25 M50.35 58.15 L48.5 63.5 Q48.35 60.35 50.35 58.15 M161.1 -7.85 Q160.85 -7.85 160.85 -7.95 156.6 -10.85 162.45 -9.05 L161.1 -7.85 M157.5 8.05 L175.65 -17.6 174.55 -13.85 179.9 -16.85 166.7 2.75 174.45 -6.9 188.65 -19.95 196.7 -30.0 188.35 -28.4 200.55 -32.35 204.65 -36.45 206.4 -37.1 206.6 -37.15 206.75 -37.1 206.75 -37.0 206.6 -36.0 206.0 -33.1 205.4 -30.9 202.1 -29.5 180.5 -9.5 178.25 -4.7 177.95 -4.4 164.5 5.6 160.0 11.55 154.6 13.55 137.65 26.15 Q137.15 25.95 137.1 25.75 137.1 25.6 137.45 25.35 L138.1 24.75 138.75 23.9 128.6 19.65 135.15 14.85 Q136.4 13.85 136.25 14.5 135.7 16.7 137.1 18.0 L143.0 11.45 139.2 18.25 148.1 13.95 150.95 12.35 153.25 11.2 Q156.05 10.1 158.35 8.5 165.15 7.1 168.05 -1.8 L167.9 -2.15 158.2 7.85 157.5 8.05 M183.25 -28.95 L181.6 -23.3 Q181.8 -25.05 180.0 -24.9 179.45 -24.65 179.05 -24.0 L177.85 -19.35 177.15 -19.0 Q175.75 -23.2 179.75 -27.75 L183.25 -28.95 M153.65 3.4 Q151.6 3.4 150.15 4.65 148.65 5.85 148.7 7.55 L148.45 7.7 Q148.55 2.75 153.65 3.4 M124.85 30.9 L120.1 33.25 119.4 29.5 127.35 27.1 124.85 30.9 M118.65 8.25 L120.35 2.55 117.5 2.9 121.55 0.05 118.65 8.25 M101.9 4.7 L102.05 5.15 Q100.3 8.9 97.2 7.35 L96.95 6.8 96.85 5.95 Q97.9 4.45 99.6 3.7 L100.35 3.55 100.35 3.5 Q101.6 3.6 101.9 4.7 M73.95 54.5 Q82.25 48.05 91.3 42.8 96.8 44.8 99.55 38.5 L100.35 38.35 Q101.55 38.45 101.2 38.9 97.35 43.25 96.4 44.9 L110.2 38.15 110.25 38.35 Q104.05 47.2 94.8 50.05 L95.0 49.85 Q95.35 49.25 95.0 48.7 94.6 48.1 93.35 47.75 L94.85 46.75 92.9 47.65 90.25 48.8 87.05 49.45 87.5 48.8 86.6 49.15 71.1 58.85 73.95 54.5 M95.55 12.35 L95.5 11.9 Q96.15 10.35 97.95 9.65 L98.5 9.45 99.25 9.85 99.6 10.2 Q99.1 13.0 95.8 13.25 L95.55 12.35 M116.15 31.65 L116.45 31.65 Q117.55 36.5 112.05 36.1 L116.05 31.7 116.15 31.65 M80.35 54.45 L79.5 55.3 75.7 56.05 80.35 54.45 M57.9 29.5 L57.85 29.65 Q55.45 22.6 62.15 21.95 L57.9 29.5 M46.75 32.2 Q47.25 30.55 47.15 28.95 47.15 28.5 46.6 28.1 L44.0 30.5 45.85 21.55 49.0 27.9 48.6 29.25 46.75 32.2 M73.55 34.6 Q74.1 35.3 74.1 36.35 74.1 37.35 73.55 38.1 72.95 38.8 72.2 38.8 71.4 38.8 70.85 38.1 70.3 37.35 70.3 36.35 70.3 35.3 70.85 34.6 71.4 33.85 72.2 33.85 72.95 33.85 73.55 34.6 M19.3 51.1 Q15.2 51.1 12.25 54.25 9.3 57.4 9.3 61.85 L9.1 62.3 7.55 63.45 5.1 65.85 3.2 66.9 -1.95 59.75 -3.4 53.3 -2.7 48.55 2.5 62.2 4.8 59.75 Q13.6 50.2 16.7 36.5 18.7 40.35 20.3 34.55 L20.85 26.05 23.5 25.15 23.7 33.15 21.3 36.85 Q17.8 38.95 19.7 40.35 L20.15 39.8 Q20.4 42.6 21.0 45.4 22.9 53.5 19.3 51.1 M34.2 52.75 L27.35 59.9 35.3 47.2 34.2 52.75 M32.3 67.5 Q32.55 65.95 33.85 66.65 L34.2 66.65 32.3 67.5 M37.25 65.8 L38.0 65.65 34.1 69.5 37.25 65.8 M38.05 69.1 L38.25 68.8 38.35 68.75 38.05 69.1 M3.15 80.7 Q2.35 80.7 1.8 80.15 1.25 79.6 1.25 78.75 1.25 77.9 1.8 77.35 2.35 76.8 3.15 76.8 3.9 76.8 4.5 77.35 5.05 77.9 5.05 78.75 5.05 79.6 4.5 80.15 3.9 80.7 3.15 80.7 M21.35 86.4 Q25.35 84.25 28.65 81.4 24.7 83.45 21.35 86.4 M30.65 79.25 Q31.15 79.25 30.6 78.85 L30.65 79.25 M61.45 50.55 L61.15 50.1 Q60.7 46.5 64.1 45.9 L61.45 50.55 M-2.15 96.4 Q-2.65 98.35 -2.3 96.1 L-2.15 96.4" fill="#707070" fill-rule="evenodd" stroke="none"/>
    <path d="M112.9 -5.15 L113.2 -1.35 106.25 7.7 Q105.35 7.75 104.7 8.8 104.05 9.8 104.1 11.25 92.6 16.1 86.1 28.9 71.25 43.3 60.55 60.55 57.8 64.9 55.15 64.3 49.2 71.6 39.65 72.35 L48.5 63.5 50.35 58.15 Q51.15 58.15 51.7 57.15 52.25 56.15 52.25 54.7 54.1 48.2 58.6 48.3 L59.45 48.3 60.2 44.3 61.8 40.6 61.8 40.15 61.9 39.7 61.95 39.45 60.85 39.6 65.6 36.25 Q66.6 36.25 67.3 35.7 67.95 35.15 68.0 34.3 L76.0 23.45 68.6 28.05 68.9 24.45 73.15 14.65 Q75.3 11.05 72.0 8.7 L112.9 -5.15 M105.95 9.7 L112.1 3.95 93.95 39.05 Q92.1 40.65 91.3 42.8 82.25 48.05 73.95 54.5 L73.7 53.7 Q76.35 51.15 73.15 49.15 L72.35 48.7 Q74.3 38.3 81.4 37.75 L88.0 32.2 91.8 31.85 98.35 21.7 99.15 22.1 Q101.0 21.5 101.4 19.65 108.1 15.1 104.85 11.45 L104.6 11.35 105.05 10.5 Q105.55 10.5 105.95 9.7 M99.6 38.45 L100.1 38.05 100.35 38.35 99.55 38.5 99.6 38.45 M133.8 12.65 Q134.8 3.25 145.9 -7.3 L145.6 -7.5 122.25 16.1 111.9 24.15 Q112.75 19.7 113.85 15.5 L114.4 12.4 118.65 8.25 121.55 0.05 117.5 2.9 116.5 3.65 116.55 3.25 117.85 -4.8 Q116.75 -3.5 117.4 -6.3 L117.4 -6.65 179.75 -27.75 Q175.75 -23.2 177.15 -19.0 L177.85 -19.35 Q179.25 -19.35 180.2 -20.1 181.15 -20.85 181.15 -21.85 L181.6 -23.3 183.25 -28.95 204.65 -36.45 200.55 -32.35 188.35 -28.4 196.7 -30.0 188.65 -19.95 174.45 -6.9 166.7 2.75 179.9 -16.85 174.55 -13.85 175.65 -17.6 157.5 8.05 148.1 13.95 139.2 18.25 143.0 11.45 137.1 18.0 Q135.7 16.7 136.25 14.5 136.4 13.85 135.15 14.85 135.45 13.05 135.2 12.1 L133.8 12.65 M162.45 -9.05 Q156.6 -10.85 160.85 -7.95 160.85 -7.85 161.1 -7.85 L159.65 -2.0 Q164.45 -4.1 163.9 -9.25 163.75 -10.85 162.45 -9.05 M177.95 -4.4 L178.25 -4.7 178.65 -4.35 178.3 -4.0 177.95 -4.4 M153.65 3.4 Q148.55 2.75 148.45 7.7 L148.7 7.55 153.65 3.4 M101.9 4.7 Q101.6 3.6 100.35 3.5 L100.35 3.55 99.6 3.7 Q97.9 4.45 96.85 5.95 L96.95 6.8 97.2 7.35 Q100.3 8.9 102.05 5.15 L101.9 4.7 M95.55 12.35 L95.8 13.25 Q99.1 13.0 99.6 10.2 L99.25 9.85 98.5 9.45 97.95 9.65 Q96.15 10.35 95.5 11.9 L95.55 12.35 M87.05 49.45 L86.6 49.15 87.5 48.8 87.05 49.45 M68.7 9.85 Q64.55 16.25 68.65 19.65 L68.75 19.6 68.05 24.45 Q61.55 27.4 61.1 34.1 L61.25 34.3 52.65 48.7 52.9 42.15 41.6 60.5 39.55 59.8 33.45 62.45 34.6 53.25 34.2 52.75 35.3 47.2 27.35 59.9 Q26.5 59.9 25.95 60.9 25.4 61.9 25.4 63.35 L19.35 51.35 19.3 51.1 Q22.9 53.5 21.0 45.4 20.4 42.6 20.15 39.8 L21.3 36.85 23.7 33.15 23.5 25.15 68.7 9.85 M57.9 29.5 L62.15 21.95 Q55.45 22.6 57.85 29.65 L57.9 29.5 M44.0 30.5 L43.3 37.05 46.75 32.2 48.6 29.25 43.25 40.75 Q50.95 36.7 49.45 27.75 L49.0 27.9 45.85 21.55 44.0 30.5 M73.55 34.6 Q72.95 33.85 72.2 33.85 71.4 33.85 70.85 34.6 70.3 35.3 70.3 36.35 70.3 37.35 70.85 38.1 71.4 38.8 72.2 38.8 72.95 38.8 73.55 38.1 74.1 37.35 74.1 36.35 74.1 35.3 73.55 34.6 M-2.7 48.55 L-1.55 43.8 0.15 42.05 1.45 33.1 1.35 32.8 1.4 32.6 20.85 26.05 20.3 34.55 Q18.7 40.35 16.7 36.5 13.6 50.2 4.8 59.75 L2.5 62.2 -2.7 48.55 M-3.15 76.55 L-1.5 67.2 3.8 71.45 18.85 52.1 21.15 71.9 15.75 77.25 Q15.1 73.85 11.75 77.35 L10.85 78.35 10.5 80.85 -1.25 90.9 -1.4 90.75 -3.0 83.95 Q-3.0 80.95 -3.65 78.1 L-3.4 77.5 -3.15 76.55 M40.0 44.7 Q36.25 48.65 39.6 45.35 L40.0 44.7 M27.05 71.6 L32.3 67.5 34.2 66.65 Q35.75 66.15 37.25 65.8 L34.1 69.5 38.0 65.65 38.4 65.55 Q39.7 67.05 38.85 68.25 L38.35 68.7 38.35 68.75 38.25 68.8 38.05 69.1 37.3 70.1 28.2 78.8 Q28.2 79.25 28.5 79.55 L29.5 80.45 29.55 80.45 Q29.1 81.3 28.6 80.2 L20.65 83.4 Q19.7 77.7 27.05 71.6 M38.35 72.3 L39.0 72.5 38.05 72.85 38.35 72.3 M50.4 70.35 L51.6 69.8 Q51.0 70.15 50.5 70.6 L50.4 70.35 M61.15 62.3 L60.65 62.3 62.25 61.35 61.15 62.3 M3.15 80.7 Q3.9 80.7 4.5 80.15 5.05 79.6 5.05 78.75 5.05 77.9 4.5 77.35 3.9 76.8 3.15 76.8 2.35 76.8 1.8 77.35 1.25 77.9 1.25 78.75 1.25 79.6 1.8 80.15 2.35 80.7 3.15 80.7 M30.65 79.25 L30.6 78.85 Q31.15 79.25 30.65 79.25 M21.35 86.4 Q24.7 83.45 28.65 81.4 25.35 84.25 21.35 86.4 M61.45 50.55 L64.1 45.9 Q60.7 46.5 61.15 50.1 L61.45 50.55" fill="#888888" fill-rule="evenodd" stroke="none"/>
    <path d="M106.25 7.7 Q106.3 8.85 105.95 9.7 105.55 10.5 105.05 10.5 L104.6 11.35 104.4 11.7 Q103.9 12.6 104.1 11.25 104.05 9.8 104.7 8.8 105.35 7.75 106.25 7.7 M93.95 39.05 L101.6 30.1 101.65 30.1 Q100.95 35.3 99.6 38.45 L99.55 38.5 Q96.8 44.8 91.3 42.8 92.1 40.65 93.95 39.05 M100.1 38.05 L105.35 31.7 115.25 27.4 127.85 13.7 128.5 14.25 Q129.9 15.9 133.8 12.65 L135.2 12.1 Q135.45 13.05 135.15 14.85 L128.6 19.65 138.75 23.9 138.1 24.75 137.45 25.35 Q137.1 25.6 137.1 25.75 137.15 25.95 137.65 26.15 L154.6 13.55 Q147.7 23.3 136.25 26.6 122.1 30.65 114.4 42.6 99.15 49.6 84.6 57.8 62.35 70.35 40.7 82.75 L33.0 85.55 40.15 83.3 27.7 93.1 Q27.25 92.95 26.9 93.1 14.4 98.45 1.95 99.05 L3.6 98.65 Q4.75 98.15 4.7 97.55 4.6 96.95 2.15 96.1 L4.1 91.8 4.75 91.55 5.05 90.85 8.95 90.15 12.65 86.95 8.4 92.9 16.2 91.0 Q17.45 94.15 19.65 90.05 L20.0 89.3 Q29.4 87.25 34.75 78.95 L35.55 77.7 Q42.95 74.0 50.4 70.35 L50.5 70.6 Q52.2 75.0 66.65 64.45 L67.1 64.15 75.4 58.05 Q68.35 61.75 61.2 63.35 60.65 63.6 61.15 62.3 L62.25 61.35 72.4 50.75 73.7 53.7 73.95 54.5 71.1 58.85 86.6 49.15 87.05 49.45 90.25 48.8 90.3 49.45 Q90.9 50.65 92.05 50.75 L93.65 50.65 Q94.4 50.45 94.8 50.05 104.05 47.2 110.25 38.35 L110.2 38.15 96.4 44.9 Q97.35 43.25 101.2 38.9 101.55 38.45 100.35 38.35 L100.1 38.05 M111.9 24.15 L108.9 27.8 113.85 15.5 Q112.75 19.7 111.9 24.15 M114.4 12.4 Q113.15 12.4 113.05 11.4 112.35 5.0 116.55 3.25 L116.5 3.65 117.5 2.9 120.35 2.55 118.65 8.25 114.4 12.4 M73.15 14.65 L68.9 24.45 68.6 28.05 68.0 34.3 Q67.95 35.15 67.3 35.7 66.6 36.25 65.6 36.25 L65.4 36.15 Q64.9 31.15 61.25 34.3 L61.1 34.1 Q61.55 27.4 68.05 24.45 L68.75 19.6 Q68.75 17.5 70.05 16.1 71.3 14.65 73.15 14.65 M52.25 54.7 Q52.25 56.15 51.7 57.15 51.15 58.15 50.35 58.15 48.35 60.35 48.5 63.5 L39.65 72.35 39.0 72.5 38.35 72.3 37.3 70.1 38.05 69.1 38.35 68.75 38.35 68.7 38.85 68.25 Q41.9 65.15 45.85 63.35 45.6 56.6 52.25 54.35 L52.25 54.7 M162.45 -9.05 Q163.75 -10.85 163.9 -9.25 164.45 -4.1 159.65 -2.0 L161.1 -7.85 162.45 -9.05 M158.2 7.85 L167.9 -2.15 168.05 -1.8 Q165.15 7.1 158.35 8.5 L159.8 7.45 158.2 7.85 M160.0 11.55 L164.5 5.6 177.95 -4.4 178.3 -4.0 174.35 -0.35 174.05 2.1 160.0 11.55 M178.25 -4.7 L180.5 -9.5 202.1 -29.5 205.4 -30.9 205.2 -30.3 205.0 -29.5 201.6 -25.15 199.45 -18.65 191.9 -13.25 190.85 -10.05 178.65 -4.35 178.25 -4.7 M181.6 -23.3 L181.15 -21.85 Q181.15 -20.85 180.2 -20.1 179.25 -19.35 177.85 -19.35 L179.05 -24.0 Q179.45 -24.65 180.0 -24.9 181.8 -25.05 181.6 -23.3 M148.7 7.55 Q148.65 5.85 150.15 4.65 151.6 3.4 153.65 3.4 L148.7 7.55 M124.85 30.9 L127.35 27.1 119.4 29.5 120.1 33.25 124.85 30.9 M101.4 19.65 Q101.0 21.5 99.15 22.1 L98.35 21.7 98.05 21.5 Q100.4 14.5 101.4 19.65 M93.35 47.75 L92.9 47.65 94.85 46.75 93.35 47.75 M112.05 36.1 Q117.55 36.5 116.45 31.65 L116.15 31.65 113.65 31.7 107.55 32.4 Q105.05 33.05 105.25 34.0 105.4 34.9 112.05 36.1 M79.5 55.3 Q79.75 60.85 86.35 53.0 L86.35 52.75 80.35 54.45 75.7 56.05 79.5 55.3 M44.0 30.5 L46.6 28.1 Q47.15 28.5 47.15 28.95 47.25 30.55 46.75 32.2 L43.3 37.05 44.0 30.5 M48.6 29.25 L49.0 27.9 49.45 27.75 Q50.95 36.7 43.25 40.75 L48.6 29.25 M1.4 32.6 L1.35 32.8 1.45 33.1 0.15 42.05 -1.55 43.8 -2.7 48.55 -3.4 53.3 -1.95 59.75 3.2 66.9 5.1 65.85 7.55 63.45 9.1 62.3 9.3 61.85 Q9.3 57.4 12.25 54.25 15.2 51.1 19.3 51.1 L19.35 51.35 18.85 52.1 3.8 71.45 -1.5 67.2 -3.15 76.55 Q-3.15 76.15 -3.5 75.95 -3.85 75.65 -4.35 75.65 -7.3 71.75 -8.8 76.9 L-9.0 76.4 -9.3 75.75 Q-10.95 72.95 -12.75 70.45 L-12.35 69.95 -12.5 69.5 Q-13.65 66.25 -16.95 65.05 L-16.95 65.1 -17.1 65.15 Q-22.8 59.05 -30.0 54.95 L-29.75 54.5 -31.8 47.55 -36.45 38.85 -36.0 46.45 -40.0 43.4 -41.85 43.85 -46.55 33.5 Q-45.9 33.25 -45.35 32.35 -44.7 31.1 -44.7 29.4 -44.7 27.6 -45.35 26.4 -46.05 25.15 -47.0 25.15 -48.0 25.15 -48.65 26.4 L-49.15 27.75 -52.25 20.9 Q-50.15 39.5 -37.45 51.15 L-36.8 54.05 -34.5 56.9 -32.2 57.3 -17.95 70.7 -17.35 82.45 -30.45 69.4 -33.65 62.6 Q-33.65 60.15 -35.5 58.45 -37.4 56.7 -40.05 56.7 L-42.5 54.85 -45.85 46.8 Q-40.8 45.45 -48.8 40.45 L-49.3 40.4 -56.75 31.35 -48.3 47.4 -46.0 57.25 -46.15 57.65 -45.8 58.15 -45.55 59.25 -54.8 56.25 -65.2 40.25 Q-65.2 38.95 -66.0 38.05 -66.4 37.55 -66.9 37.35 -67.4 37.1 -67.95 37.1 L-82.1 24.15 -82.85 25.25 -89.5 15.25 -79.75 32.55 -79.75 32.45 -79.9 32.2 -80.1 31.75 -80.3 31.2 Q-80.05 31.25 -79.85 31.45 -79.15 32.0 -79.0 33.35 L-83.7 32.65 -87.05 31.15 -96.1 24.35 -96.65 23.65 -104.8 12.5 -108.05 6.05 -108.5 9.75 -110.65 8.05 -111.7 -4.8 -117.65 -6.85 -115.7 3.35 -123.25 -1.8 -103.7 21.65 Q-103.7 22.7 -103.2 23.45 -102.7 24.15 -102.0 24.15 L-97.4 34.25 Q-98.55 33.45 -99.8 32.85 L-104.4 30.8 -119.75 16.25 -118.7 20.65 Q-119.8 20.0 -121.15 19.55 L-124.95 16.8 -127.35 14.8 -128.3 14.0 -131.45 5.45 -125.8 10.3 -133.55 0.0 -133.35 1.05 -144.35 -10.05 -137.35 -7.35 -152.55 -18.8 -156.3 -20.05 Q-158.15 -13.45 -147.05 -9.35 L-146.55 -9.15 Q-142.1 -8.55 -141.25 -3.3 L-140.7 -0.8 -133.1 10.65 -135.8 9.5 -135.65 10.4 Q-136.45 10.0 -137.7 9.75 L-141.2 8.65 -158.3 -10.25 -153.75 0.55 -146.9 6.15 -153.15 4.35 -160.05 0.05 -161.95 -1.2 -163.45 -1.95 -169.05 -5.1 -169.9 -7.2 Q-169.45 -6.75 -168.85 -6.65 L-167.6 -6.9 -170.6 -11.45 -173.1 -12.2 -178.0 -17.9 Q-171.15 -23.0 -184.7 -25.05 -184.85 -25.2 -185.0 -24.9 L-182.4 -20.6 -179.95 -15.55 -201.6 -28.85 -202.4 -32.1 -203.25 -33.2 -204.45 -32.1 -204.95 -32.7 -205.4 -34.95 Q-205.55 -36.1 -205.85 -37.15 L-205.9 -37.25 -205.15 -37.5 1.4 32.6 M20.15 39.8 L19.7 40.35 Q17.8 38.95 21.3 36.85 L20.15 39.8 M40.0 44.7 L39.6 45.35 Q36.25 48.65 40.0 44.7 M34.2 52.75 L34.6 53.25 26.05 63.1 25.4 63.35 Q25.4 61.9 25.95 60.9 26.5 59.9 27.35 59.9 L34.2 52.75 M27.05 71.6 L23.05 71.45 Q31.3 62.4 41.3 63.55 L38.4 65.55 38.0 65.65 37.25 65.8 Q35.75 66.15 34.2 66.65 L33.85 66.65 Q32.55 65.95 32.3 67.5 L27.05 71.6 M-188.4 -31.0 L-187.7 -30.8 -191.8 -32.15 -191.35 -32.0 -191.85 -30.85 Q-192.15 -29.95 -192.0 -28.95 -191.65 -27.15 -190.1 -26.1 L-188.25 -24.9 Q-187.6 -24.4 -186.75 -24.45 L-188.4 -31.0 M-162.45 -13.35 L-182.2 -28.25 -165.1 -12.25 Q-165.6 -15.4 -162.45 -13.35 M-112.2 36.4 L-111.9 36.5 -111.95 36.65 -112.2 36.4 M-24.1 45.9 L-23.7 42.9 -27.9 38.05 Q-32.25 42.8 -24.25 45.85 L-24.1 45.9 M-70.1 18.6 L-77.0 12.05 Q-76.85 19.35 -70.7 19.85 L-70.1 18.6 M-65.05 20.45 Q-68.25 20.0 -65.1 21.75 L-64.55 22.15 -63.65 22.9 -60.55 25.35 -64.0 15.55 -65.05 20.45 M-63.65 37.65 Q-60.3 40.25 -59.05 36.65 L-59.0 36.25 -64.9 31.1 -65.75 35.0 Q-67.45 36.35 -66.8 37.1 -66.25 37.75 -63.9 37.9 L-63.65 37.65 M-83.35 42.45 L-87.9 38.5 -92.1 30.9 -79.55 38.2 Q-82.15 42.25 -76.05 43.25 L-73.45 45.05 -76.7 39.7 -71.2 42.0 Q-65.05 57.75 -50.05 64.8 -48.8 65.45 -47.65 66.55 L-52.2 65.6 Q-54.9 61.4 -60.1 61.5 L-63.45 62.35 -83.35 42.45 M-42.75 68.7 L-42.7 68.7 -42.5 68.95 -42.75 68.7 M-40.15 65.95 L-40.6 65.15 -39.55 66.25 -40.15 65.95 M-63.55 50.2 L-63.15 50.4 -63.2 50.5 -63.55 50.2 M-76.7 54.0 L-77.15 53.7 Q-74.25 54.95 -76.7 54.0 M-6.6 64.05 L-4.95 63.0 -16.5 52.3 -21.85 36.5 Q-20.85 46.45 -17.5 55.25 L-11.55 67.25 -13.3 61.7 -8.1 66.75 -8.3 65.65 -7.25 65.65 -6.6 64.05 M-24.55 51.55 Q-24.6 50.45 -24.95 49.7 -25.3 48.95 -25.8 48.95 -26.35 48.95 -26.7 49.7 -27.05 50.45 -27.05 51.55 -27.05 52.65 -26.7 53.45 -26.35 54.2 -25.8 54.2 -25.3 54.2 -24.95 53.45 -24.6 52.65 -24.55 51.55 M-3.75 77.75 L-3.4 77.5 -3.65 78.1 -3.75 77.75 M-3.0 83.95 L-1.4 90.75 -5.2 88.75 -3.0 83.95 M-13.1 85.5 L-14.15 82.7 -14.7 79.25 -10.65 81.7 -7.35 88.1 -13.1 86.25 -13.1 85.5 M-98.8 12.3 Q-99.4 12.7 -99.3 13.4 L-98.95 13.75 -97.6 14.5 -97.3 14.25 Q-96.35 13.65 -96.65 12.8 L-96.9 12.55 -98.2 12.05 Q-98.55 12.1 -98.8 12.3 M-100.2 8.65 Q-100.25 7.8 -100.7 7.15 -101.15 6.5 -101.8 6.5 -102.5 6.5 -102.95 7.15 -103.4 7.8 -103.4 8.65 L-102.95 10.2 -101.8 10.85 Q-101.15 10.8 -100.7 10.2 -100.25 9.55 -100.2 8.65 M-113.65 8.3 L-112.4 9.3 Q-112.85 10.3 -113.65 8.3 M-120.8 25.15 L-120.95 25.1 -120.85 25.1 -120.8 25.15 M-123.4 21.25 L-132.55 20.6 -138.95 14.15 -136.5 13.9 -134.9 12.9 Q-132.65 18.15 -125.4 18.9 L-125.15 18.95 -124.15 19.7 -123.4 21.25 M-142.5 11.25 L-140.15 17.1 -153.2 8.1 -142.5 11.25 M-108.5 30.4 Q-110.65 30.4 -112.15 29.15 -113.65 27.9 -113.7 26.2 L-108.5 30.4 M-122.05 3.35 L-126.35 -0.3 Q-129.95 -2.85 -128.5 1.2 L-127.35 3.5 Q-123.95 6.3 -122.05 3.35" fill="#5a5a5a" fill-rule="evenodd" stroke="none"/>
    <path d="M157.5 8.05 L158.2 7.85 159.8 7.45 158.35 8.5 Q156.05 10.1 153.25 11.2 L150.95 12.35 148.1 13.95 157.5 8.05 M94.8 50.05 Q94.4 50.45 93.65 50.65 L92.05 50.75 Q90.9 50.65 90.3 49.45 L90.25 48.8 92.9 47.65 93.35 47.75 Q94.6 48.1 95.0 48.7 95.35 49.25 95.0 49.85 L94.8 50.05 M116.15 31.65 L116.05 31.7 112.05 36.1 Q105.4 34.9 105.25 34.0 105.05 33.05 107.55 32.4 L113.65 31.7 116.15 31.65 M80.35 54.45 L86.35 52.75 86.35 53.0 Q79.75 60.85 79.5 55.3 L80.35 54.45 M-204.45 -32.1 L-203.25 -33.2 -202.4 -32.1 -201.6 -28.85 -179.95 -15.55 -182.4 -20.6 Q-180.55 -20.6 -179.25 -19.8 -178.0 -19.05 -178.0 -17.9 L-173.1 -12.2 -170.6 -11.45 -167.6 -6.9 -168.85 -6.65 Q-169.45 -6.75 -169.9 -7.2 L-169.05 -5.1 -163.45 -1.95 -153.2 8.1 -140.15 17.1 -142.5 11.25 -141.05 12.0 -140.6 12.45 Q-139.85 13.6 -138.95 14.15 L-132.55 20.6 -123.4 21.25 -121.4 22.15 Q-118.15 23.7 -120.85 25.1 L-120.95 25.1 -120.8 25.15 -117.3 30.25 -116.85 32.25 -108.25 34.0 -108.5 30.4 -113.7 26.2 -118.7 20.65 -119.75 16.25 -104.4 30.8 -99.8 32.85 Q-98.55 33.45 -97.4 34.25 L-96.75 34.75 Q-94.9 31.0 -102.0 24.15 -102.7 24.15 -103.2 23.45 -103.7 22.7 -103.7 21.65 -103.85 17.3 -108.35 11.9 L-100.05 21.25 -96.65 23.65 -96.1 24.35 -95.65 28.7 -96.0 28.75 Q-90.45 41.2 -83.35 42.45 L-63.45 62.35 -60.1 61.5 Q-54.9 61.4 -52.2 65.6 L-47.65 66.55 Q-45.0 68.95 -42.75 68.7 L-42.5 68.95 -42.7 68.7 -48.55 63.45 -40.15 65.95 -39.55 66.25 -40.6 65.15 -45.8 58.15 -46.15 57.65 -46.0 57.25 -45.05 54.5 -37.2 66.2 -30.45 69.4 -17.35 82.45 Q-18.1 86.7 -13.9 87.2 L-13.5 86.85 -13.1 86.25 -7.35 88.1 Q-6.35 89.1 -5.2 88.75 L-1.4 90.75 -1.25 90.9 2.15 96.1 Q4.6 96.95 4.7 97.55 4.75 98.15 3.6 98.65 L1.95 99.05 0.8 99.1 -0.7 99.1 -3.65 97.05 -20.9 92.4 Q-23.3 90.15 -26.1 89.1 -49.75 79.8 -71.45 66.55 -93.2 53.2 -111.95 36.65 L-111.9 36.5 -112.2 36.4 -116.25 35.3 -116.6 32.65 -122.95 31.35 Q-142.0 25.9 -154.75 11.95 L-158.0 9.55 Q-171.35 1.7 -183.45 -7.75 L-204.45 -32.1 M-153.15 4.35 L-146.9 6.15 -141.2 8.65 -137.7 9.75 -137.55 10.05 Q-144.9 12.4 -153.15 4.35 M-133.35 1.05 L-133.55 0.0 -125.8 10.3 -131.45 5.45 Q-132.8 3.35 -133.35 1.05 M-128.3 14.0 L-127.35 14.8 -124.95 16.8 -121.15 19.55 -119.7 21.6 -124.15 19.7 -125.15 18.95 -128.3 14.0 M-87.05 31.15 L-83.7 32.65 -79.0 33.35 Q-73.15 34.45 -67.95 37.1 -67.4 37.1 -66.9 37.35 -66.4 37.55 -66.0 38.05 -65.2 38.95 -65.2 40.25 L-68.65 41.7 -87.05 31.15 M-49.3 40.4 L-48.8 40.45 Q-40.8 45.45 -45.85 46.8 L-49.3 40.4 M-40.05 56.7 Q-37.4 56.7 -35.5 58.45 -33.65 60.15 -33.65 62.6 L-40.05 56.7 M-17.1 65.15 L-16.95 65.1 -16.95 65.05 Q-13.65 66.25 -12.5 69.5 L-12.35 69.95 -12.75 70.45 Q-15.55 73.75 -18.35 68.8 -18.85 67.9 -18.95 66.7 L-18.75 66.3 -18.05 65.35 -17.1 65.15 M-9.3 75.75 L-9.0 76.4 -11.3 79.35 -13.65 73.1 -9.3 75.75 M-4.35 75.65 Q-3.85 75.65 -3.5 75.95 -3.15 76.15 -3.15 76.55 L-3.4 77.5 -3.75 77.75 -3.8 77.8 Q-6.2 77.1 -4.35 75.65 M15.75 77.25 L15.55 77.85 Q13.75 83.25 10.5 80.85 L10.85 78.35 11.75 77.35 Q15.1 73.85 15.75 77.25 M4.1 91.8 Q3.75 91.35 3.7 90.9 3.15 84.4 5.05 90.85 L4.75 91.55 4.1 91.8 M16.2 91.0 L16.7 90.2 Q19.1 86.2 20.0 89.3 L19.65 90.05 Q17.45 94.15 16.2 91.0 M40.15 83.3 L33.0 85.55 40.7 82.75 40.15 83.3 M-24.1 45.9 L-24.25 45.85 Q-32.25 42.8 -27.9 38.05 L-23.7 42.9 -24.1 45.9 M-63.65 22.9 L-64.55 22.15 -65.1 21.75 Q-68.25 20.0 -65.05 20.45 L-63.95 22.0 Q-63.35 23.05 -63.65 22.9 M-65.75 35.0 L-64.9 31.1 -59.0 36.25 -59.05 36.65 Q-60.3 40.25 -63.65 37.65 -65.05 36.65 -65.75 35.0 M-63.55 50.2 L-64.7 49.4 -65.0 48.95 -66.15 44.2 -55.45 55.35 -55.25 56.35 Q-55.2 57.7 -57.0 58.05 L-62.95 55.15 -63.2 50.5 -63.15 50.4 -63.55 50.2 M-76.7 54.0 Q-74.25 54.95 -77.15 53.7 L-76.7 54.0 M-6.6 64.05 L-7.25 65.65 -8.3 65.65 -8.1 66.75 -13.3 61.7 -11.55 67.25 -17.5 55.25 Q-20.85 46.45 -21.85 36.5 L-16.5 52.3 -4.95 63.0 -6.6 64.05 M-13.1 85.5 L-13.25 85.5 Q-18.3 83.15 -14.15 82.7 L-13.1 85.5 M-2.15 96.4 L-2.3 96.1 Q-2.65 98.35 -2.15 96.4" fill="#363636" fill-rule="evenodd" stroke="none"/>
    <path d="M-182.4 -20.6 L-185.0 -24.9 Q-184.85 -25.2 -184.7 -25.05 -171.15 -23.0 -178.0 -17.9 -178.0 -19.05 -179.25 -19.8 -180.55 -20.6 -182.4 -20.6 M-163.45 -1.95 L-161.95 -1.2 -160.05 0.05 -153.15 4.35 Q-144.9 12.4 -137.55 10.05 L-137.7 9.75 Q-136.45 10.0 -135.65 10.4 L-135.8 9.5 -133.1 10.65 -140.7 -0.8 -141.25 -3.3 Q-142.1 -8.55 -146.55 -9.15 L-147.05 -9.35 Q-158.15 -13.45 -156.3 -20.05 L-152.55 -18.8 -137.35 -7.35 -144.35 -10.05 -133.35 1.05 Q-132.8 3.35 -131.45 5.45 L-128.3 14.0 -125.15 18.95 -125.4 18.9 Q-132.65 18.15 -134.9 12.9 L-136.5 13.9 -138.95 14.15 Q-139.85 13.6 -140.6 12.45 L-141.05 12.0 -142.5 11.25 -153.2 8.1 -163.45 -1.95 M-146.9 6.15 L-153.75 0.55 -158.3 -10.25 -141.2 8.65 -146.9 6.15 M-121.15 19.55 Q-119.8 20.0 -118.7 20.65 L-113.7 26.2 Q-113.65 27.9 -112.15 29.15 -110.65 30.4 -108.5 30.4 L-108.25 34.0 -116.85 32.25 -117.3 30.25 -120.8 25.15 -120.85 25.1 Q-118.15 23.7 -121.4 22.15 L-123.4 21.25 -124.15 19.7 -119.7 21.6 -121.15 19.55 M-97.4 34.25 L-102.0 24.15 Q-94.9 31.0 -96.75 34.75 L-97.4 34.25 M-103.7 21.65 L-123.25 -1.8 -115.7 3.35 -117.65 -6.85 -111.7 -4.8 -110.65 8.05 -108.5 9.75 -108.05 6.05 -104.8 12.5 -96.65 23.65 -100.05 21.25 -108.35 11.9 Q-103.85 17.3 -103.7 21.65 M-96.1 24.35 L-87.05 31.15 -68.65 41.7 -65.2 40.25 -54.8 56.25 -45.55 59.25 -45.8 58.15 -40.6 65.15 -40.15 65.95 -48.55 63.45 -42.7 68.7 -42.75 68.7 Q-45.0 68.95 -47.65 66.55 -48.8 65.45 -50.05 64.8 -65.05 57.75 -71.2 42.0 L-76.7 39.7 -73.45 45.05 -76.05 43.25 Q-82.15 42.25 -79.55 38.2 L-92.1 30.9 -87.9 38.5 -83.35 42.45 Q-90.45 41.2 -96.0 28.75 L-95.65 28.7 -96.1 24.35 M-79.0 33.35 Q-79.15 32.0 -79.85 31.45 -80.05 31.25 -80.3 31.2 L-80.1 31.75 -79.9 32.2 -79.75 32.45 -79.75 32.55 -89.5 15.25 -82.85 25.25 -82.1 24.15 -67.95 37.1 Q-73.15 34.45 -79.0 33.35 M-46.0 57.25 L-48.3 47.4 -56.75 31.35 -49.3 40.4 -45.85 46.8 -42.5 54.85 -40.05 56.7 -33.65 62.6 -30.45 69.4 -37.2 66.2 -45.05 54.5 -46.0 57.25 M-17.35 82.45 L-17.95 70.7 -32.2 57.3 -34.5 56.9 -36.8 54.05 -37.45 51.15 Q-50.15 39.5 -52.25 20.9 L-49.15 27.75 -48.65 26.4 Q-48.0 25.15 -47.0 25.15 -46.05 25.15 -45.35 26.4 -44.7 27.6 -44.7 29.4 -44.7 31.1 -45.35 32.35 -45.9 33.25 -46.55 33.5 L-41.85 43.85 -40.0 43.4 -36.0 46.45 -36.45 38.85 -31.8 47.55 -29.75 54.5 -30.0 54.95 Q-22.8 59.05 -17.1 65.15 L-18.05 65.35 -18.75 66.3 -18.95 66.7 Q-18.85 67.9 -18.35 68.8 -15.55 73.75 -12.75 70.45 -10.95 72.95 -9.3 75.75 L-13.65 73.1 -11.3 79.35 -9.0 76.4 -8.8 76.9 Q-7.3 71.75 -4.35 75.65 -6.2 77.1 -3.8 77.8 L-3.75 77.75 -3.65 78.1 Q-3.0 80.95 -3.0 83.95 L-5.2 88.75 Q-6.35 89.1 -7.35 88.1 L-10.65 81.7 -14.7 79.25 -14.15 82.7 Q-18.3 83.15 -13.25 85.5 L-13.1 85.5 -13.1 86.25 -13.5 86.85 -13.9 87.2 Q-18.1 86.7 -17.35 82.45 M-191.35 -32.0 L-188.4 -31.0 -186.75 -24.45 Q-187.6 -24.4 -188.25 -24.9 L-190.1 -26.1 Q-191.65 -27.15 -192.0 -28.95 -192.15 -29.95 -191.85 -30.85 L-191.35 -32.0 M-162.45 -13.35 Q-165.6 -15.4 -165.1 -12.25 L-182.2 -28.25 -162.45 -13.35 M-70.1 18.6 L-70.7 19.85 Q-76.85 19.35 -77.0 12.05 L-70.1 18.6 M-63.65 22.9 Q-63.35 23.05 -63.95 22.0 L-65.05 20.45 -64.0 15.55 -60.55 25.35 -63.65 22.9 M-63.65 37.65 L-63.9 37.9 Q-66.25 37.75 -66.8 37.1 -67.45 36.35 -65.75 35.0 -65.05 36.65 -63.65 37.65 M-63.2 50.5 L-62.95 55.15 -57.0 58.05 Q-55.2 57.7 -55.25 56.35 L-55.45 55.35 -66.15 44.2 -65.0 48.95 -64.7 49.4 -63.55 50.2 -63.2 50.5 M-24.55 51.55 Q-24.6 52.65 -24.95 53.45 -25.3 54.2 -25.8 54.2 -26.35 54.2 -26.7 53.45 -27.05 52.65 -27.05 51.55 -27.05 50.45 -26.7 49.7 -26.35 48.95 -25.8 48.95 -25.3 48.95 -24.95 49.7 -24.6 50.45 -24.55 51.55 M-100.2 8.65 Q-100.25 9.55 -100.7 10.2 -101.15 10.8 -101.8 10.85 L-102.95 10.2 -103.4 8.65 Q-103.4 7.8 -102.95 7.15 -102.5 6.5 -101.8 6.5 -101.15 6.5 -100.7 7.15 -100.25 7.8 -100.2 8.65 M-98.8 12.3 Q-98.55 12.1 -98.2 12.05 L-96.9 12.55 -96.65 12.8 Q-96.35 13.65 -97.3 14.25 L-97.6 14.5 -98.95 13.75 -99.3 13.4 Q-99.4 12.7 -98.8 12.3 M-113.65 8.3 Q-112.85 10.3 -112.4 9.3 L-113.65 8.3 M-122.05 3.35 Q-123.95 6.3 -127.35 3.5 L-128.5 1.2 Q-129.95 -2.85 -126.35 -0.3 L-122.05 3.35" fill="#4b4b4b" fill-rule="evenodd" stroke="none"/>
    <path d="M117.4 -6.65 L112.9 -5.15 72.0 8.7 68.7 9.85 23.5 25.15 20.85 26.05 1.4 32.6 -205.15 -37.5 -60.0 -86.25 -0.15 -105.6 206.4 -37.1 204.65 -36.45 183.25 -28.95 179.75 -27.75 117.4 -6.65" fill="#cccccc" fill-rule="evenodd" stroke="none"/>
  </g>
</svg>
