<?xml version="1.0" encoding="UTF-8" standalone="no"?>
<svg xmlns:ffdec="https://www.free-decompiler.com/flash" xmlns:xlink="http://www.w3.org/1999/xlink" ffdec:objectType="shape" height="41.3px" width="112.7px" xmlns="http://www.w3.org/2000/svg">
  <g transform="matrix(1.0, 0.0, 0.0, 1.0, 57.1, 19.9)">
    <path d="M52.9 -10.9 L52.9 -17.15 Q52.9 -18.45 52.55 -18.9 52.0 -19.55 50.8 -19.5 L50.8 -19.9 55.6 -19.9 55.6 -19.5 54.4 -19.2 53.9 -18.6 53.7 -17.15 53.7 -5.0 53.35 -5.0 43.5 -17.15 43.5 -7.9 Q43.5 -6.65 44.05 -6.2 44.65 -5.75 45.4 -5.75 L45.75 -5.75 45.75 -5.35 40.55 -5.35 40.55 -5.75 Q41.75 -5.75 42.25 -6.25 42.7 -6.7 42.7 -7.9 L42.7 -18.15 42.4 -18.55 41.6 -19.3 40.55 -19.5 40.55 -19.9 45.75 -19.9 52.9 -10.9 M20.4 -6.05 L33.6 -10.55 28.25 -3.8 20.4 -6.05" fill="#999999" fill-rule="evenodd" stroke="none"/>
    <path d="M20.4 -6.05 L33.6 -10.55 28.25 -3.8 20.4 -6.05 -17.15 6.75 12.65 16.95 M-55.6 19.9 L-17.15 6.75 -47.35 -3.6" fill="none" stroke="#999999" stroke-linecap="round" stroke-linejoin="round" stroke-width="3.0"/>
  </g>
</svg>
