<?xml version="1.0" encoding="UTF-8" standalone="no"?>
<svg xmlns:ffdec="https://www.free-decompiler.com/flash" xmlns:xlink="http://www.w3.org/1999/xlink" ffdec:objectType="shape" height="434.2px" width="641.95px" xmlns="http://www.w3.org/2000/svg">
  <g transform="matrix(1.0, 0.0, 0.0, 1.0, 322.25, 200.0)">
    <path d="M300.0 200.0 L-300.0 200.0 -300.0 -200.0 300.0 -200.0 300.0 200.0" fill="url(#gradient0)" fill-rule="evenodd" stroke="none"/>
    <path d="M-12.75 139.25 Q-3.85 143.7 3.15 149.85 L5.05 151.6 7.15 151.2 7.3 151.7 Q2.7 153.65 2.8 157.65 L2.8 159.25 -2.55 160.25 0.15 160.7 -5.65 161.4 -3.4 158.15 -6.45 159.65 -7.5 151.0 -23.4 147.75 -19.3 145.05 -19.75 143.0 -33.3 145.15 -33.35 144.9 -26.25 141.6 -17.1 141.35 -16.25 142.0 -13.85 141.95 -13.6 142.65 Q-12.75 144.65 -10.65 146.25 -7.95 148.25 -4.05 148.9 L-3.95 148.9 Q-5.75 145.55 -8.95 142.95 -10.95 141.3 -13.3 139.9 L-12.75 139.25 M-25.35 148.45 L-25.45 148.3 -24.5 148.1 -25.35 148.45 M-53.6 195.85 L-54.2 196.45 -57.4 194.9 -56.15 194.3 -53.6 195.85 M51.55 198.15 L51.05 197.5 55.1 195.0 57.55 197.7 54.7 197.25 51.55 198.15 M42.0 188.3 L41.8 188.25 42.55 187.05 42.0 188.3 M2.95 175.25 L2.45 174.9 3.65 172.0 Q17.1 169.6 28.65 174.8 33.05 176.8 35.8 180.2 38.1 183.05 39.4 186.1 L35.35 189.25 36.35 187.2 Q36.85 185.35 35.75 183.65 34.85 182.3 33.25 181.3 L31.3 182.35 27.85 182.5 29.7 180.15 Q25.25 173.9 16.3 172.35 13.05 171.7 9.9 172.45 6.2 173.5 2.95 175.25 M126.3 197.15 L126.05 196.85 126.35 197.1 126.3 197.15 M28.35 157.0 L32.0 161.15 24.2 159.55 28.35 157.0 M9.95 149.0 L9.9 149.15 5.5 149.05 4.45 147.85 9.95 149.0 M58.3 171.1 L57.8 170.5 58.4 167.55 68.15 170.85 58.3 171.1 M91.8 183.35 L92.3 182.65 95.3 185.15 91.8 183.35 M101.45 183.2 L101.65 182.75 110.6 184.15 101.45 183.2 M103.2 186.7 L103.35 186.35 110.1 187.35 110.7 188.7 103.2 186.7 M93.4 188.9 Q100.85 194.3 111.1 195.5 L113.95 195.65 Q101.1 197.95 91.2 191.5 L92.75 189.45 93.4 188.9 M-103.05 147.7 L-105.55 145.45 -104.2 143.6 -96.3 142.25 -102.95 144.45 -102.1 146.2 -102.9 147.75 -103.05 147.7 M-78.55 140.25 L-79.8 142.15 -76.55 147.4 -85.3 147.3 -83.75 146.25 -84.8 144.05 Q-85.55 142.5 -87.25 141.5 -89.5 140.1 -92.5 139.6 L-92.45 139.45 -87.45 140.0 -89.85 137.8 -88.2 134.8 Q-86.9 135.15 -85.65 135.65 -82.15 137.0 -82.1 139.9 L-78.65 139.75 -78.55 140.25 M-94.05 143.75 L-91.25 143.05 -87.0 146.25 -88.75 147.5 -89.55 150.55 -94.35 150.95 -98.8 149.9 -91.15 147.6 -94.05 143.75 M-130.05 159.95 Q-130.05 160.85 -130.9 161.55 -131.8 162.2 -133.05 162.2 -134.3 162.2 -135.15 161.55 -136.05 160.85 -136.05 159.95 -136.05 159.0 -135.15 158.35 -134.3 157.7 -133.05 157.7 -131.8 157.7 -130.9 158.35 -130.05 159.0 -130.05 159.95 M-156.4 164.4 L-156.9 164.6 -159.05 163.4 -161.15 164.3 -162.15 163.75 -165.65 165.25 -165.65 166.7 Q-166.25 167.55 -167.15 168.1 -168.75 168.95 -170.8 169.15 L-172.9 169.15 Q-174.1 168.5 -174.6 167.55 -175.35 166.15 -174.9 164.8 L-174.6 163.95 -158.65 160.65 -156.4 164.4 M-167.0 169.95 L-167.4 170.05 -167.05 169.85 -167.0 169.95 M-179.15 165.65 L-179.65 165.4 -178.45 163.35 -176.15 162.25 -179.15 165.65 M-145.75 175.85 L-145.65 175.35 -144.45 175.5 -145.75 175.85 M-147.2 180.7 L-137.4 181.3 Q-132.65 182.25 -128.6 184.4 L-131.1 187.25 -132.55 187.6 -140.6 183.55 -142.3 185.85 -133.7 190.3 Q-137.1 192.15 -141.3 192.35 -145.25 192.65 -148.75 191.05 -152.7 189.25 -155.1 186.2 L-147.2 180.7 M-62.05 188.3 L-43.0 187.15 -36.35 189.7 -36.6 190.15 -62.15 188.6 -62.05 188.3 M-42.1 176.7 L-42.7 176.5 -63.5 173.15 -63.05 172.4 -59.2 173.6 -56.75 172.75 -67.2 168.0 -66.95 167.45 Q-55.25 168.35 -45.95 173.4 -43.5 174.7 -42.1 176.7 M-4.65 151.4 Q-5.35 151.4 -5.85 151.75 -6.4 152.15 -6.4 152.65 -6.4 153.15 -5.85 153.55 L-4.65 153.95 Q-3.95 153.9 -3.4 153.55 -2.9 153.15 -2.9 152.65 -2.9 152.15 -3.4 151.75 -3.95 151.4 -4.65 151.4 M-18.75 156.5 L-15.25 158.1 Q-15.25 159.35 -17.1 158.65 L-18.75 156.5 M-22.85 154.55 L-18.9 161.2 -29.2 157.1 -25.4 154.55 -22.85 154.55 M-242.3 199.1 L-240.95 196.6 -240.55 195.9 -239.45 193.35 Q-234.95 184.15 -222.65 181.35 L-224.45 183.5 -229.65 188.2 -227.8 192.55 -228.85 193.75 Q-233.9 198.4 -241.75 200.4 L-242.3 199.1 M-214.0 181.95 L-209.6 176.1 -209.05 179.0 -209.85 181.3 -205.65 185.15 -207.9 186.25 -212.9 184.7 -214.0 181.95" fill="#000000" fill-rule="evenodd" stroke="none"/>
    <path d="M7.15 151.2 L14.05 150.6 22.7 154.1 21.35 152.75 21.85 152.15 Q20.4 149.2 17.15 147.35 10.55 143.5 3.05 146.25 -0.3 142.4 -5.55 140.15 -9.85 138.25 -14.9 138.2 L-12.75 139.25 -13.3 139.9 -16.35 138.55 -20.75 138.8 -18.65 139.5 -24.9 139.05 -41.3 142.7 -39.0 144.75 -33.35 144.9 -33.3 145.15 -37.95 148.9 -29.2 146.6 -25.45 148.3 -25.35 148.45 -40.5 153.0 -43.85 158.05 Q-40.05 160.9 -35.4 163.35 -27.4 167.45 -18.05 169.45 L-15.15 168.65 Q-18.9 166.0 -23.25 164.0 -30.75 160.45 -39.35 159.2 L-41.2 157.3 -40.5 154.45 Q-34.95 152.6 -29.15 151.75 -19.6 150.35 -10.15 152.15 L-9.65 153.35 -9.05 155.7 Q-8.75 157.4 -9.5 159.1 L-10.6 161.45 -13.0 162.25 -9.6 163.4 -7.85 162.35 -6.65 163.6 4.9 162.95 6.3 160.6 9.05 160.0 16.8 159.7 Q22.15 160.45 26.3 162.95 L27.4 164.75 38.05 167.75 39.75 164.9 46.1 163.6 47.5 168.0 48.3 168.0 Q49.4 167.8 50.35 167.25 53.2 165.55 53.1 163.0 53.05 160.8 50.75 159.35 L49.9 158.8 48.7 158.65 47.55 158.65 45.45 159.2 Q44.5 159.5 43.75 160.1 L42.15 161.4 39.5 162.1 27.65 154.35 22.25 159.4 21.0 158.15 15.9 158.05 15.5 156.85 14.4 154.8 Q13.4 153.3 11.65 152.65 9.55 151.85 7.3 151.7 L7.15 151.2 M-60.25 118.6 L-50.8 121.7 -49.4 121.4 -31.45 128.5 -28.8 126.65 -25.75 130.75 -19.3 132.2 -17.35 131.1 -15.75 133.1 4.45 141.4 9.1 138.5 Q9.95 140.0 11.6 141.2 19.0 146.25 27.95 149.8 L30.05 149.65 34.2 152.1 35.45 152.5 37.75 150.8 41.15 154.4 Q42.55 155.8 44.75 156.7 L45.6 157.0 49.5 155.4 Q50.85 156.7 52.6 157.55 64.9 163.05 77.6 167.85 L81.45 165.45 Q83.7 168.6 87.25 171.1 94.95 176.5 105.35 178.05 L108.15 176.1 Q110.75 178.8 114.1 180.95 121.6 185.75 131.05 187.4 L136.15 182.05 Q140.45 188.65 147.7 193.55 157.5 200.15 170.15 203.2 L158.95 203.2 136.5 195.05 135.2 196.35 140.0 202.0 128.75 201.15 128.35 198.6 129.1 197.7 129.65 196.85 129.8 196.0 129.7 195.2 129.35 194.45 Q128.4 193.15 126.35 192.35 L118.5 198.5 126.05 196.85 126.3 197.15 Q124.6 200.25 128.4 202.6 L129.35 203.2 91.65 203.2 90.9 202.3 74.45 200.6 Q75.85 199.65 76.9 198.5 80.8 194.25 76.1 190.85 74.2 189.45 71.9 188.85 L69.75 190.2 69.2 192.8 66.6 194.45 61.7 193.75 61.45 192.5 59.45 191.6 60.35 188.4 67.75 185.45 67.6 185.25 66.45 184.55 Q61.85 182.15 56.35 183.5 L56.0 182.7 55.55 181.5 Q53.8 177.15 48.5 175.25 L45.95 176.25 45.8 178.5 49.9 184.15 45.5 185.4 Q47.45 177.8 38.8 173.3 33.6 170.55 27.65 168.9 12.25 164.65 0.0 173.1 L0.5 174.15 0.9 174.8 Q1.25 175.2 1.75 175.05 L2.45 174.9 2.95 175.25 Q-0.4 182.75 6.0 188.4 7.6 189.8 10.2 190.05 16.05 190.55 21.4 189.0 L7.05 184.7 4.1 178.35 Q15.05 173.6 24.1 180.25 L22.15 182.5 16.05 182.95 17.05 185.1 Q24.95 187.0 33.15 185.65 31.95 188.5 28.25 189.9 25.05 191.0 22.95 192.95 L27.25 193.25 Q30.6 192.6 33.25 190.9 L36.25 191.05 41.8 188.25 42.0 188.3 41.3 191.75 22.55 194.9 20.65 194.15 19.75 196.15 Q26.55 198.7 33.95 198.7 39.7 198.7 43.8 195.95 46.35 194.3 46.0 191.65 L45.7 189.65 53.55 187.1 54.85 190.8 51.05 197.5 51.55 198.15 47.65 201.25 38.45 203.2 11.8 203.2 14.8 201.75 Q22.35 203.85 29.55 201.35 L32.4 200.15 30.85 198.75 14.3 198.45 Q13.8 196.9 12.5 195.65 10.9 194.05 8.35 193.35 L9.6 191.65 -0.35 188.55 -1.35 190.55 11.4 198.8 7.45 200.55 8.1 201.9 7.35 203.2 -46.75 203.2 -54.2 196.45 -53.6 195.85 -42.7 197.65 -41.3 196.25 Q-43.35 194.65 -46.1 194.15 L-56.95 193.15 -56.6 193.95 -72.35 191.9 -73.9 193.15 -72.2 194.45 Q-69.55 196.3 -66.1 196.65 L-62.55 196.35 -61.55 196.25 -60.6 196.0 -51.1 203.2 -202.55 203.2 -200.8 199.8 -199.3 198.9 -197.7 199.35 Q-193.25 194.2 -185.15 195.85 L-183.9 197.45 -178.0 197.25 -176.3 196.6 -176.55 194.15 -187.2 192.95 Q-192.35 193.3 -196.75 195.2 -201.75 197.45 -205.45 200.95 L-217.3 203.2 -254.95 203.2 -254.1 201.85 -256.25 200.65 -268.5 201.65 -275.25 198.6 Q-271.3 198.95 -267.6 197.5 -264.1 196.2 -262.5 193.45 L-261.6 191.65 Q-268.7 194.8 -277.0 194.75 -284.0 194.75 -290.1 197.75 -294.4 199.9 -297.3 203.2 L-310.65 203.2 -310.65 200.7 -281.25 190.65 -279.55 187.5 -278.8 189.65 -273.9 187.25 -271.5 180.25 -268.4 185.4 -264.55 184.8 -261.0 183.9 Q-256.05 182.4 -253.3 179.0 -251.85 177.15 -249.6 176.05 L-246.05 179.65 -238.0 176.85 Q-232.0 174.75 -226.5 172.3 -217.55 168.25 -213.15 161.65 L-208.45 166.05 -187.45 159.0 -182.2 153.5 -179.5 156.3 -169.35 150.1 Q-160.25 150.7 -152.95 146.9 -146.7 143.7 -142.85 138.9 L-138.5 141.7 -121.55 133.4 -120.3 135.25 Q-111.0 131.35 -102.1 127.0 -99.65 125.85 -97.55 124.3 L-91.9 125.75 -88.65 124.8 Q-74.85 120.85 -60.3 118.65 L-60.25 118.6 M153.25 203.2 L146.05 203.2 143.4 200.8 149.9 201.25 153.25 203.2 M35.65 155.25 L40.7 160.75 Q41.7 157.35 37.0 155.6 L35.65 155.25 M30.8 152.6 L31.5 151.85 Q31.5 151.45 30.8 151.15 L29.05 150.85 Q28.05 150.85 27.35 151.15 26.6 151.45 26.6 151.85 26.6 152.25 27.35 152.6 L29.05 152.9 30.8 152.6 M9.9 149.15 L9.95 149.0 10.15 149.15 9.9 149.15 M13.55 180.6 L17.6 182.3 19.8 182.05 Q19.05 179.5 15.6 178.7 12.75 178.15 10.15 179.25 L11.3 181.95 12.9 181.45 13.55 180.6 M58.3 171.1 L56.4 172.7 Q57.15 181.15 68.1 183.0 L68.1 184.6 69.75 185.75 72.0 185.7 72.5 185.5 Q76.45 183.45 74.6 180.15 66.1 179.5 62.05 173.85 L69.15 172.4 70.4 173.75 Q73.65 176.8 77.1 175.45 77.45 173.6 76.45 171.9 75.5 170.3 73.95 169.05 67.1 163.5 56.95 164.3 L56.1 165.2 56.4 166.15 55.15 167.35 Q53.55 169.15 55.65 170.8 L57.8 170.5 58.3 171.1 M40.6 169.15 Q42.3 170.9 44.5 172.0 48.25 174.0 52.85 173.75 L54.2 171.65 50.1 170.5 49.05 170.65 41.45 167.3 40.6 169.15 M92.3 182.65 L91.8 183.35 80.35 180.4 81.35 182.5 Q82.15 183.95 84.15 184.65 L83.55 182.45 96.15 187.2 97.15 184.65 103.35 186.35 103.2 186.7 112.25 191.45 121.2 190.55 120.6 190.15 119.85 189.75 Q117.25 188.65 114.45 189.15 L112.3 184.7 124.95 190.4 Q117.8 183.35 106.6 182.4 L101.65 182.75 101.45 183.2 Q90.8 180.45 82.6 174.65 L81.1 173.45 Q82.8 178.95 90.4 181.95 L92.3 182.65 M95.4 178.25 L98.0 177.95 94.45 176.05 95.4 178.25 M92.75 189.45 L86.45 186.05 83.45 185.95 Q84.05 190.9 90.15 193.7 93.85 195.4 97.85 196.5 107.4 198.95 116.9 196.7 106.7 189.95 93.4 188.9 L92.75 189.45 M85.3 196.6 L84.35 198.7 Q94.85 198.45 105.4 200.05 L114.35 200.7 119.55 203.05 121.15 201.85 Q110.9 197.7 99.35 198.15 L96.45 198.3 Q95.05 196.85 92.75 196.25 L87.55 196.1 85.3 196.6 M97.45 201.5 Q97.45 200.9 96.9 200.45 96.3 200.0 95.5 200.05 94.7 200.0 94.15 200.45 93.55 200.9 93.55 201.5 93.55 202.1 94.15 202.55 94.7 202.95 95.5 202.95 96.3 202.95 96.9 202.55 97.45 202.1 97.45 201.5 M68.5 203.2 L50.6 203.2 52.15 201.75 53.3 201.4 60.05 202.65 61.45 199.8 68.5 203.2 M-105.2 134.6 L-103.2 135.05 -95.3 129.5 -89.0 129.55 -96.9 127.0 -105.2 134.6 M-116.75 135.6 L-120.7 139.05 -114.0 136.95 -115.2 135.55 -116.75 135.6 M-115.45 140.1 L-112.85 140.75 -124.15 146.35 -125.2 146.1 -126.95 147.05 Q-136.55 145.05 -143.75 149.35 -144.55 149.8 -145.0 150.55 L-145.8 152.15 Q-133.7 154.15 -122.65 150.1 L-120.5 149.25 -115.1 152.3 -116.3 153.85 -115.75 155.15 -121.4 164.25 Q-129.15 165.1 -134.05 169.4 L-124.1 169.3 Q-120.55 172.7 -114.75 172.8 L-113.25 172.75 -111.8 172.4 -119.5 168.25 Q-115.95 166.75 -114.35 164.0 L-113.25 161.75 -114.35 160.15 -113.95 159.2 -110.25 157.8 -113.45 152.0 -112.75 150.55 -114.85 147.75 -109.7 142.75 -110.55 141.5 -112.05 140.75 -105.5 136.2 -106.6 135.5 Q-111.85 135.7 -114.7 139.0 L-115.45 140.1 M-92.5 139.6 L-95.85 141.55 Q-101.65 139.1 -106.6 142.1 -108.25 143.1 -109.4 144.45 L-108.6 146.2 Q-107.75 147.65 -105.9 148.25 L-105.15 148.45 -103.05 147.7 -102.9 147.75 -102.95 152.35 Q-95.95 156.25 -88.1 153.75 -85.4 152.8 -83.45 151.25 L-78.8 152.1 Q-75.25 152.2 -72.35 150.7 -72.05 147.15 -72.6 143.65 -72.85 142.0 -74.3 140.85 L-78.55 140.25 -78.65 139.75 Q-74.25 139.1 -72.75 135.75 L-72.55 135.3 -64.7 134.75 -60.55 137.0 -58.05 135.85 Q-68.45 131.3 -79.65 134.75 -86.4 130.6 -93.55 133.5 -95.05 134.1 -95.75 135.15 -96.6 136.5 -97.05 138.0 L-92.45 139.45 -92.5 139.6 M-83.25 126.15 Q-84.4 126.15 -85.2 126.6 -86.0 127.0 -86.0 127.65 -86.0 128.3 -85.2 128.7 L-83.25 129.15 -81.3 128.7 Q-80.5 128.3 -80.5 127.65 -80.5 127.0 -81.3 126.6 -82.1 126.15 -83.25 126.15 M-123.95 140.65 L-126.15 141.05 Q-127.05 141.45 -127.05 141.95 -127.05 142.5 -126.15 142.9 L-123.95 143.3 -121.75 142.9 Q-120.85 142.5 -120.85 141.95 -120.85 141.45 -121.75 141.05 L-123.95 140.65 M-123.4 153.8 Q-130.35 152.4 -137.2 154.15 L-139.2 154.65 Q-142.65 160.55 -136.1 163.9 -134.75 164.55 -133.15 164.6 -126.95 164.7 -123.55 160.6 L-122.45 158.95 Q-120.9 156.3 -123.4 153.8 M-151.1 156.9 Q-151.1 156.3 -151.65 155.9 -152.25 155.45 -153.1 155.45 -153.95 155.45 -154.5 155.9 -155.1 156.3 -155.1 156.9 -155.1 157.5 -154.5 157.95 -153.95 158.35 -153.1 158.35 -152.25 158.35 -151.65 157.95 -151.1 157.5 -151.1 156.9 M-151.4 151.35 L-155.45 151.4 -154.8 153.45 -152.3 154.55 -150.3 153.95 -149.9 152.45 -151.4 151.35 M-156.9 164.6 L-156.4 164.4 -154.9 166.35 -152.45 165.75 Q-151.8 160.85 -157.65 157.7 L-171.1 160.55 -172.45 158.45 -175.45 158.1 -180.6 159.55 -185.85 164.95 Q-205.15 166.85 -220.95 175.4 -217.3 177.1 -213.15 176.7 L-212.45 176.5 -211.1 176.0 Q-208.4 174.6 -207.45 172.4 -197.4 168.6 -186.3 167.25 L-184.25 167.85 -179.65 165.4 -179.15 165.65 Q-178.95 167.15 -177.05 166.7 L-176.8 166.7 -176.65 167.5 -180.2 170.15 Q-173.5 174.15 -167.4 170.05 L-167.0 169.95 -164.25 170.9 -160.1 167.1 -157.35 166.5 -156.9 164.6 M-160.95 170.95 L-161.9 170.65 Q-173.85 173.05 -183.05 179.25 L-168.1 174.5 Q-166.15 175.25 -163.9 175.25 L-162.25 174.9 -161.25 174.45 -160.8 174.2 Q-159.85 173.5 -159.4 172.5 L-160.95 170.95 M-145.65 175.35 L-145.75 175.85 Q-152.8 178.7 -157.1 183.75 L-158.5 185.45 Q-153.3 193.4 -142.0 195.35 L-132.0 194.9 Q-125.85 193.2 -120.7 190.05 L-120.0 188.65 -126.95 186.6 -122.1 183.7 -124.05 180.25 Q-118.25 180.5 -116.9 184.85 -115.85 188.2 -115.7 191.7 L-114.75 192.2 -114.35 194.4 Q-111.1 197.35 -106.2 198.0 -101.25 198.6 -96.85 196.6 -95.05 197.95 -92.7 198.8 L-90.6 198.85 Q-89.4 198.55 -88.65 197.9 -87.4 198.3 -85.0 199.9 -83.95 200.5 -82.3 200.85 L-81.5 200.85 -80.65 200.55 -79.9 198.2 Q-82.75 195.3 -87.75 195.25 L-89.4 194.95 Q-98.1 191.9 -107.75 191.75 -107.35 183.3 -115.8 178.5 -117.25 177.6 -119.2 177.2 -121.4 176.65 -123.65 176.65 -124.45 171.75 -130.85 171.05 -144.95 169.3 -157.1 174.8 L-145.65 175.35 M-157.4 176.75 Q-163.95 175.8 -168.6 180.15 L-168.0 182.2 -157.5 178.2 -157.4 176.75 M-154.0 196.85 L-151.7 197.15 -149.4 196.85 Q-148.45 196.55 -148.45 196.15 -148.45 195.75 -149.4 195.45 L-151.7 195.15 -154.0 195.45 Q-154.95 195.75 -154.95 196.15 -154.95 196.55 -154.0 196.85 M-159.25 193.25 L-163.6 187.85 -162.8 186.25 -164.15 185.6 Q-168.15 189.2 -163.9 192.1 -162.95 192.8 -161.6 193.05 L-159.25 193.25 M-122.8 193.75 L-135.7 197.15 Q-128.55 200.75 -122.45 196.25 L-121.7 195.65 -122.8 193.75 M-36.35 189.7 Q-27.55 192.05 -20.25 187.95 L-19.15 187.35 Q-32.25 187.8 -44.0 183.5 L-41.6 181.95 -49.8 181.4 -49.45 183.75 -65.45 183.9 Q-72.0 181.4 -78.95 179.15 -83.4 177.7 -87.3 175.4 -94.2 171.35 -99.3 165.9 L-96.3 162.05 -93.85 161.4 -93.1 159.25 -94.05 158.15 -97.85 157.8 -104.05 162.15 -103.8 171.7 Q-88.6 183.4 -67.0 184.7 L-62.05 188.3 -62.15 188.6 -67.15 189.2 Q-65.25 191.6 -61.05 191.6 L-57.65 191.95 -56.8 192.9 -46.1 192.3 Q-43.8 193.8 -40.9 193.35 L-36.95 193.1 Q-35.9 194.9 -33.65 196.9 -32.0 198.35 -29.7 198.9 -28.35 199.3 -27.05 198.9 -19.85 203.45 -11.3 200.4 L-11.15 198.5 Q-25.0 196.35 -36.6 190.15 L-36.35 189.7 M-42.1 176.7 L-42.25 177.6 -40.05 179.25 -38.35 179.0 -37.2 177.9 Q-37.95 174.25 -42.75 171.85 L-48.5 168.9 Q-64.2 160.4 -83.65 161.3 L-87.35 161.45 -85.5 163.3 -86.85 162.9 -88.95 163.7 Q-83.85 170.55 -74.15 174.2 -59.1 179.8 -42.7 176.5 L-42.1 176.7 M-63.5 173.15 Q-76.1 172.15 -83.95 164.6 L-85.0 163.55 Q-75.2 163.35 -66.95 167.45 L-67.2 168.0 -73.9 166.9 -63.05 172.4 -63.5 173.15 M-104.3 158.35 Q-106.3 159.55 -107.9 161.15 L-103.9 160.55 Q-101.3 160.0 -100.1 158.2 L-101.55 157.0 Q-103.1 157.5 -104.3 158.35 M-109.7 176.4 L-109.3 178.6 -103.65 182.0 Q-102.7 185.05 -99.95 187.5 -97.65 189.5 -94.5 190.5 L-93.05 189.35 -96.05 184.1 -77.4 192.2 -73.2 191.1 -105.85 176.95 -109.15 168.05 -108.25 175.1 -109.7 176.4 M-27.9 134.7 L-34.9 131.75 Q-33.2 135.35 -28.6 134.9 L-27.9 134.7 M-32.55 135.9 L-31.9 137.05 -30.2 137.05 -31.6 136.55 Q-37.95 128.85 -49.85 129.75 L-53.0 128.35 -51.9 131.35 Q-41.95 131.05 -34.1 135.6 L-33.45 135.35 -33.2 135.3 Q-33.1 135.3 -33.05 135.4 -32.85 135.5 -32.75 135.65 L-32.55 135.9 M-34.1 139.45 L-36.55 136.1 -47.95 132.65 -48.95 133.35 -49.75 134.15 Q-51.4 136.25 -50.2 138.55 L-46.25 138.2 -48.55 137.35 -48.2 135.45 -37.25 138.95 -45.55 140.3 -44.5 141.0 -43.4 141.35 Q-39.1 142.5 -35.0 140.85 L-34.1 139.45 M-74.7 125.25 Q-75.5 124.65 -76.6 124.65 -77.7 124.65 -78.5 125.25 -79.3 125.8 -79.3 126.65 -79.3 127.45 -78.5 128.05 -77.7 128.65 -76.6 128.65 -75.5 128.65 -74.7 128.05 -73.9 127.45 -73.9 126.65 -73.9 125.8 -74.7 125.25 M-66.4 147.5 Q-64.45 149.3 -61.1 149.7 L-59.2 149.8 -58.15 148.45 -60.5 146.1 -59.15 143.85 -65.85 145.6 -66.4 147.5 M-58.0 141.5 Q-57.05 141.5 -56.35 141.0 -55.7 140.45 -55.7 139.75 -55.7 139.05 -56.35 138.55 -57.05 138.0 -58.0 138.05 -58.95 138.0 -59.6 138.55 -60.3 139.05 -60.3 139.75 -60.3 140.45 -59.6 141.0 -58.95 141.5 -58.0 141.5 M-44.15 150.8 L-44.45 150.35 Q-45.7 148.85 -47.85 148.5 L-50.75 148.15 -53.55 149.25 -45.7 153.05 -43.8 152.35 Q-43.8 151.55 -44.15 150.8 M-51.4 160.6 L-50.5 162.05 -62.6 157.8 -65.85 158.25 -68.5 160.75 Q-48.2 161.0 -34.35 171.4 -31.35 173.55 -30.3 176.8 -29.2 180.15 -29.85 183.5 L-26.55 184.6 Q-21.15 180.9 -24.6 175.4 L-25.2 174.5 -26.0 173.55 Q-18.75 176.35 -16.15 182.25 -15.5 183.7 -16.0 185.25 L-16.65 187.35 -15.25 188.35 -11.75 186.8 Q-14.35 172.9 -31.65 167.1 -37.95 164.95 -44.65 164.15 -46.05 160.85 -50.0 159.25 L-51.05 158.9 -51.4 160.6 M-80.4 156.95 L-55.05 157.45 Q-61.35 151.35 -71.65 153.7 -76.3 154.8 -80.4 156.95 M-10.65 157.05 L-10.75 156.25 -25.4 151.5 -27.1 151.95 -28.6 152.6 Q-33.05 154.7 -33.45 158.8 -31.85 160.65 -28.2 161.55 -21.9 163.05 -15.25 162.9 L-14.5 161.75 -13.55 161.4 -12.75 160.95 Q-11.4 159.95 -11.0 158.6 L-10.65 157.05 M-13.2 171.15 L-9.05 170.9 -6.15 166.2 -7.35 165.6 -14.8 169.55 -13.2 171.15 M-3.95 176.25 Q-6.65 177.3 -7.05 179.55 -7.9 184.65 -1.55 186.7 L-0.85 184.8 -5.25 180.05 -2.5 177.45 -3.95 176.25 M-10.05 173.9 L-10.45 174.35 -10.05 174.85 -9.05 175.05 -8.05 174.85 -7.65 174.35 -8.05 173.9 -9.05 173.7 -10.05 173.9 M-4.75 197.65 Q-5.5 198.15 -5.5 198.95 -5.5 199.75 -4.75 200.3 -4.05 200.8 -3.0 200.85 -1.95 200.8 -1.2 200.3 -0.5 199.75 -0.5 198.95 -0.5 198.15 -1.2 197.65 -1.95 197.1 -3.0 197.1 -4.05 197.1 -4.75 197.65 M-253.6 196.0 L-252.75 196.3 -251.85 196.0 Q-251.5 195.7 -251.5 195.35 -251.5 195.0 -251.85 194.7 -252.25 194.4 -252.75 194.45 -253.25 194.4 -253.6 194.7 -254.0 195.0 -254.0 195.35 L-253.6 196.0 M-259.05 187.85 L-258.1 189.0 -256.1 189.3 -247.75 185.15 Q-253.85 183.1 -258.05 186.9 L-259.05 187.85 M-240.95 196.6 L-243.05 196.6 -246.2 197.05 Q-247.45 197.35 -247.55 197.75 -247.7 198.15 -246.65 198.55 L-242.3 199.1 -241.75 200.4 Q-233.9 198.4 -228.85 193.75 L-227.8 192.55 -229.65 188.2 -224.45 183.5 -219.25 181.15 -222.25 177.85 Q-228.9 178.6 -233.55 182.3 -236.4 184.45 -237.9 187.2 -240.1 187.75 -242.2 188.7 -247.75 191.15 -247.8 196.1 L-246.0 196.55 -245.25 196.65 -243.2 196.4 -240.55 195.9 -240.95 196.6 M-235.2 182.2 L-242.6 182.9 -237.05 183.65 -235.2 182.2 M-209.05 179.0 L-209.6 176.1 -214.0 181.95 -215.45 182.95 -215.75 185.45 Q-211.5 189.85 -205.15 187.5 L-202.6 186.05 Q-195.5 187.2 -190.15 183.55 -199.6 186.0 -206.7 181.35 -208.3 180.3 -209.05 179.0 M-219.7 184.9 L-221.45 196.15 Q-217.15 196.9 -213.8 194.65 L-212.4 193.6 -213.05 192.5 -215.9 191.85 -215.95 191.5 Q-214.5 189.55 -215.85 187.65 L-216.75 186.5 -216.6 184.9 -217.75 183.75 -219.7 184.9 M-207.0 195.85 Q-198.05 195.55 -193.9 189.65 L-191.05 189.15 Q-183.0 191.85 -179.2 185.8 L-178.8 185.0 -173.95 183.2 -178.8 181.0 -191.9 186.6 Q-196.25 188.4 -199.85 190.9 -202.7 192.9 -206.1 194.55 L-207.0 195.85 M-194.45 175.65 L-190.4 171.3 Q-197.6 170.75 -200.75 175.15 -202.25 177.25 -202.2 179.55 -198.9 181.45 -194.6 181.35 -191.45 181.0 -189.15 179.45 L-194.45 175.65" fill="url(#gradient1)" fill-rule="evenodd" stroke="none"/>
    <path d="M-12.75 139.25 L-14.9 138.2 Q-9.85 138.25 -5.55 140.15 -0.3 142.4 3.05 146.25 10.55 143.5 17.15 147.35 20.4 149.2 21.85 152.15 L21.35 152.75 22.7 154.1 14.05 150.6 7.15 151.2 5.05 151.6 3.15 149.85 Q-3.85 143.7 -12.75 139.25 M7.3 151.7 Q9.55 151.85 11.65 152.65 13.4 153.3 14.4 154.8 L15.5 156.85 15.9 158.05 21.0 158.15 22.25 159.4 27.65 154.35 39.5 162.1 42.15 161.4 43.75 160.1 Q44.5 159.5 45.45 159.2 L47.55 158.65 48.7 158.65 49.9 158.8 50.75 159.35 Q53.05 160.8 53.1 163.0 53.2 165.55 50.35 167.25 49.4 167.8 48.3 168.0 L47.5 168.0 46.1 163.6 39.75 164.9 38.05 167.75 27.4 164.75 26.3 162.95 Q22.15 160.45 16.8 159.7 L9.05 160.0 6.3 160.6 4.9 162.95 -6.65 163.6 -7.85 162.35 -9.6 163.4 -13.0 162.25 -10.6 161.45 -9.5 159.1 Q-8.75 157.4 -9.05 155.7 L-9.65 153.35 -10.15 152.15 Q-19.6 150.35 -29.15 151.75 -34.95 152.6 -40.5 154.45 L-41.2 157.3 -39.35 159.2 Q-30.75 160.45 -23.25 164.0 -18.9 166.0 -15.15 168.65 L-18.05 169.45 Q-27.4 167.45 -35.4 163.35 -40.05 160.9 -43.85 158.05 L-40.5 153.0 -25.35 148.45 -24.5 148.1 -25.45 148.3 -29.2 146.6 -37.95 148.9 -33.3 145.15 -19.75 143.0 -19.3 145.05 -23.4 147.75 -7.5 151.0 -6.45 159.65 -3.4 158.15 -5.65 161.4 0.15 160.7 -2.55 160.25 2.8 159.25 2.8 157.65 Q2.7 153.65 7.3 151.7 M-33.35 144.9 L-39.0 144.75 -41.3 142.7 -24.9 139.05 -18.65 139.5 -20.75 138.8 -16.35 138.55 -13.3 139.9 Q-10.95 141.3 -8.95 142.95 -5.75 145.55 -3.95 148.9 L-4.05 148.9 Q-7.95 148.25 -10.65 146.25 -12.75 144.65 -13.6 142.65 L-13.85 141.95 -16.25 142.0 -17.1 141.35 -26.25 141.6 -33.35 144.9 M-297.3 203.2 Q-294.4 199.9 -290.1 197.75 -284.0 194.75 -277.0 194.75 -268.7 194.8 -261.6 191.65 L-262.5 193.45 Q-264.1 196.2 -267.6 197.5 -271.3 198.95 -275.25 198.6 L-268.5 201.65 -256.25 200.65 -254.1 201.85 -254.95 203.2 -297.3 203.2 M-217.3 203.2 L-205.45 200.95 Q-201.75 197.45 -196.75 195.2 -192.35 193.3 -187.2 192.95 L-176.55 194.15 -176.3 196.6 -178.0 197.25 -183.9 197.45 -185.15 195.85 Q-193.25 194.2 -197.7 199.35 L-199.3 198.9 -200.8 199.8 -202.55 203.2 -217.3 203.2 M-51.1 203.2 L-60.6 196.0 -61.55 196.25 -62.55 196.35 -66.1 196.65 Q-69.55 196.3 -72.2 194.45 L-73.9 193.15 -72.35 191.9 -56.6 193.95 -56.95 193.15 -46.1 194.15 Q-43.35 194.65 -41.3 196.25 L-42.7 197.65 -53.6 195.85 -56.15 194.3 -57.4 194.9 -54.2 196.45 -46.75 203.2 -51.1 203.2 M7.35 203.2 L8.1 201.9 7.45 200.55 11.4 198.8 -1.35 190.55 -0.35 188.55 9.6 191.65 8.35 193.35 Q10.9 194.05 12.5 195.65 13.8 196.9 14.3 198.45 L30.85 198.75 32.4 200.15 29.55 201.35 Q22.35 203.85 14.8 201.75 L11.8 203.2 7.35 203.2 M38.45 203.2 L47.65 201.25 51.55 198.15 54.7 197.25 57.55 197.7 55.1 195.0 51.05 197.5 54.85 190.8 53.55 187.1 45.7 189.65 46.0 191.65 Q46.35 194.3 43.8 195.95 39.7 198.7 33.95 198.7 26.55 198.7 19.75 196.15 L20.65 194.15 22.55 194.9 41.3 191.75 42.0 188.3 42.55 187.05 41.8 188.25 36.25 191.05 33.25 190.9 Q30.6 192.6 27.25 193.25 L22.95 192.95 Q25.05 191.0 28.25 189.9 31.95 188.5 33.15 185.65 24.95 187.0 17.05 185.1 L16.05 182.95 22.15 182.5 24.1 180.25 Q15.05 173.6 4.1 178.35 L7.05 184.7 21.4 189.0 Q16.05 190.55 10.2 190.05 7.6 189.8 6.0 188.4 -0.4 182.75 2.95 175.25 6.2 173.5 9.9 172.45 13.05 171.7 16.3 172.35 25.25 173.9 29.7 180.15 L27.85 182.5 31.3 182.35 33.25 181.3 Q34.85 182.3 35.75 183.65 36.85 185.35 36.35 187.2 L35.35 189.25 39.4 186.1 Q38.1 183.05 35.8 180.2 33.05 176.8 28.65 174.8 17.1 169.6 3.65 172.0 L2.45 174.9 1.75 175.05 Q1.25 175.2 0.9 174.8 L0.5 174.15 0.0 173.1 Q12.25 164.65 27.65 168.9 33.6 170.55 38.8 173.3 47.45 177.8 45.5 185.4 L49.9 184.15 45.8 178.5 45.95 176.25 48.5 175.25 Q53.8 177.15 55.55 181.5 L56.0 182.7 56.35 183.5 Q61.85 182.15 66.45 184.55 L67.6 185.25 67.75 185.45 60.35 188.4 59.45 191.6 61.45 192.5 61.7 193.75 66.6 194.45 69.2 192.8 69.75 190.2 71.9 188.85 Q74.2 189.45 76.1 190.85 80.8 194.25 76.9 198.5 75.85 199.65 74.45 200.6 L90.9 202.3 91.65 203.2 68.5 203.2 61.45 199.8 60.05 202.65 53.3 201.4 52.15 201.75 50.6 203.2 38.45 203.2 M129.35 203.2 L128.4 202.6 Q124.6 200.25 126.3 197.15 L126.35 197.1 126.05 196.85 118.5 198.5 126.35 192.35 Q128.4 193.15 129.35 194.45 L129.7 195.2 129.8 196.0 129.65 196.85 129.1 197.7 128.35 198.6 128.75 201.15 140.0 202.0 135.2 196.35 136.5 195.05 158.95 203.2 153.25 203.2 149.9 201.25 143.4 200.8 146.05 203.2 129.35 203.2 M35.65 155.25 L37.0 155.6 Q41.7 157.35 40.7 160.75 L35.65 155.25 M30.8 152.6 L29.05 152.9 27.35 152.6 Q26.6 152.25 26.6 151.85 26.6 151.45 27.35 151.15 28.05 150.85 29.05 150.85 L30.8 151.15 Q31.5 151.45 31.5 151.85 L30.8 152.6 M28.35 157.0 L24.2 159.55 32.0 161.15 28.35 157.0 M9.95 149.0 L4.45 147.85 5.5 149.05 9.9 149.15 10.15 149.15 9.95 149.0 M13.55 180.6 L12.9 181.45 11.3 181.95 10.15 179.25 Q12.75 178.15 15.6 178.7 19.05 179.5 19.8 182.05 L17.6 182.3 13.55 180.6 M57.8 170.5 L55.65 170.8 Q53.55 169.15 55.15 167.35 L56.4 166.15 56.1 165.2 56.95 164.3 Q67.1 163.5 73.95 169.05 75.5 170.3 76.45 171.9 77.45 173.6 77.1 175.45 73.65 176.8 70.4 173.75 L69.15 172.4 62.05 173.85 Q66.1 179.5 74.6 180.15 76.45 183.45 72.5 185.5 L72.0 185.7 69.75 185.75 68.1 184.6 68.1 183.0 Q57.15 181.15 56.4 172.7 L58.3 171.1 68.15 170.85 58.4 167.55 57.8 170.5 M40.6 169.15 L41.45 167.3 49.05 170.65 50.1 170.5 54.2 171.65 52.85 173.75 Q48.25 174.0 44.5 172.0 42.3 170.9 40.6 169.15 M91.8 183.35 L95.3 185.15 92.3 182.65 90.4 181.95 Q82.8 178.95 81.1 173.45 L82.6 174.65 Q90.8 180.45 101.45 183.2 L110.6 184.15 101.65 182.75 106.6 182.4 Q117.8 183.35 124.95 190.4 L112.3 184.7 114.45 189.15 Q117.25 188.65 119.85 189.75 L120.6 190.15 121.2 190.55 112.25 191.45 103.2 186.7 110.7 188.7 110.1 187.35 103.35 186.35 97.15 184.65 96.15 187.2 83.55 182.45 84.15 184.65 Q82.15 183.95 81.35 182.5 L80.35 180.4 91.8 183.35 M93.4 188.9 Q106.7 189.95 116.9 196.7 107.4 198.95 97.85 196.5 93.85 195.4 90.15 193.7 84.05 190.9 83.45 185.95 L86.45 186.05 92.75 189.45 91.2 191.5 Q101.1 197.95 113.95 195.65 L111.1 195.5 Q100.85 194.3 93.4 188.9 M95.4 178.25 L94.45 176.05 98.0 177.95 95.4 178.25 M85.3 196.6 L87.55 196.1 92.75 196.25 Q95.05 196.85 96.45 198.3 L99.35 198.15 Q110.9 197.7 121.15 201.85 L119.55 203.05 114.35 200.7 105.4 200.05 Q94.85 198.45 84.35 198.7 L85.3 196.6 M97.45 201.5 Q97.45 202.1 96.9 202.55 96.3 202.95 95.5 202.95 94.7 202.95 94.15 202.55 93.55 202.1 93.55 201.5 93.55 200.9 94.15 200.45 94.7 200.0 95.5 200.05 96.3 200.0 96.9 200.45 97.45 200.9 97.45 201.5 M-105.2 134.6 L-96.9 127.0 -89.0 129.55 -95.3 129.5 -103.2 135.05 -105.2 134.6 M-103.05 147.7 L-105.15 148.45 -105.9 148.25 Q-107.75 147.65 -108.6 146.2 L-109.4 144.45 Q-108.25 143.1 -106.6 142.1 -101.65 139.1 -95.85 141.55 L-92.5 139.6 Q-89.5 140.1 -87.25 141.5 -85.55 142.5 -84.8 144.05 L-83.75 146.25 -85.3 147.3 -76.55 147.4 -79.8 142.15 -78.55 140.25 -74.3 140.85 Q-72.85 142.0 -72.6 143.65 -72.05 147.15 -72.35 150.7 -75.25 152.2 -78.8 152.1 L-83.45 151.25 Q-85.4 152.8 -88.1 153.75 -95.95 156.25 -102.95 152.35 L-102.9 147.75 -102.1 146.2 -102.95 144.45 -96.3 142.25 -104.2 143.6 -105.55 145.45 -103.05 147.7 M-115.45 140.1 L-114.7 139.0 Q-111.85 135.7 -106.6 135.5 L-105.5 136.2 -112.05 140.75 -110.55 141.5 -109.7 142.75 -114.85 147.75 -112.75 150.55 -113.45 152.0 -110.25 157.8 -113.95 159.2 -114.35 160.15 -113.25 161.75 -114.35 164.0 Q-115.95 166.75 -119.5 168.25 L-111.8 172.4 -113.25 172.75 -114.75 172.8 Q-120.55 172.7 -124.1 169.3 L-134.05 169.4 Q-129.15 165.1 -121.4 164.25 L-115.75 155.15 -116.3 153.85 -115.1 152.3 -120.5 149.25 -122.65 150.1 Q-133.7 154.15 -145.8 152.15 L-145.0 150.55 Q-144.55 149.8 -143.75 149.35 -136.55 145.05 -126.95 147.05 L-125.2 146.1 -124.15 146.35 -112.85 140.75 -115.45 140.1 M-116.75 135.6 L-115.2 135.55 -114.0 136.95 -120.7 139.05 -116.75 135.6 M-83.25 126.15 Q-82.1 126.15 -81.3 126.6 -80.5 127.0 -80.5 127.65 -80.5 128.3 -81.3 128.7 L-83.25 129.15 -85.2 128.7 Q-86.0 128.3 -86.0 127.65 -86.0 127.0 -85.2 126.6 -84.4 126.15 -83.25 126.15 M-94.05 143.75 L-91.15 147.6 -98.8 149.9 -94.35 150.95 -89.55 150.55 -88.75 147.5 -87.0 146.25 -91.25 143.05 -94.05 143.75 M-123.95 140.65 L-121.75 141.05 Q-120.85 141.45 -120.85 141.95 -120.85 142.5 -121.75 142.9 L-123.95 143.3 -126.15 142.9 Q-127.05 142.5 -127.05 141.95 -127.05 141.45 -126.15 141.05 L-123.95 140.65 M-130.05 159.95 Q-130.05 159.0 -130.9 158.35 -131.8 157.7 -133.05 157.7 -134.3 157.7 -135.15 158.35 -136.05 159.0 -136.05 159.95 -136.05 160.85 -135.15 161.55 -134.3 162.2 -133.05 162.2 -131.8 162.2 -130.9 161.55 -130.05 160.85 -130.05 159.95 M-151.4 151.35 L-149.9 152.45 -150.3 153.95 -152.3 154.55 -154.8 153.45 -155.45 151.4 -151.4 151.35 M-151.1 156.9 Q-151.1 157.5 -151.65 157.95 -152.25 158.35 -153.1 158.35 -153.95 158.35 -154.5 157.95 -155.1 157.5 -155.1 156.9 -155.1 156.3 -154.5 155.9 -153.95 155.45 -153.1 155.45 -152.25 155.45 -151.65 155.9 -151.1 156.3 -151.1 156.9 M-123.4 153.8 Q-120.9 156.3 -122.45 158.95 L-123.55 160.6 Q-126.95 164.7 -133.15 164.6 -134.75 164.55 -136.1 163.9 -142.65 160.55 -139.2 154.65 L-137.2 154.15 Q-130.35 152.4 -123.4 153.8 M-156.4 164.4 L-158.65 160.65 -174.6 163.95 -174.9 164.8 Q-175.35 166.15 -174.6 167.55 -174.1 168.5 -172.9 169.15 L-170.8 169.15 Q-168.75 168.95 -167.15 168.1 -166.25 167.55 -165.65 166.7 L-165.65 165.25 -162.15 163.75 -161.15 164.3 -159.05 163.4 -156.9 164.6 -157.35 166.5 -160.1 167.1 -164.25 170.9 -167.0 169.95 -167.05 169.85 -167.4 170.05 Q-173.5 174.15 -180.2 170.15 L-176.65 167.5 -176.8 166.7 -177.05 166.7 Q-178.95 167.15 -179.15 165.65 L-176.15 162.25 -178.45 163.35 -179.65 165.4 -184.25 167.85 -186.3 167.25 Q-197.4 168.6 -207.45 172.4 -208.4 174.6 -211.1 176.0 L-212.45 176.5 -213.15 176.7 Q-217.3 177.1 -220.95 175.4 -205.15 166.85 -185.85 164.95 L-180.6 159.55 -175.45 158.1 -172.45 158.45 -171.1 160.55 -157.65 157.7 Q-151.8 160.85 -152.45 165.75 L-154.9 166.35 -156.4 164.4 M-160.95 170.95 L-159.4 172.5 Q-159.85 173.5 -160.8 174.2 L-161.25 174.45 -162.25 174.9 -163.9 175.25 Q-166.15 175.25 -168.1 174.5 L-183.05 179.25 Q-173.85 173.05 -161.9 170.65 L-160.95 170.95 M-145.75 175.85 L-144.45 175.5 -145.65 175.35 -157.1 174.8 Q-144.95 169.3 -130.85 171.05 -124.45 171.75 -123.65 176.65 -121.4 176.65 -119.2 177.2 -117.25 177.6 -115.8 178.5 -107.35 183.3 -107.75 191.75 -98.1 191.9 -89.4 194.95 L-87.75 195.25 Q-82.75 195.3 -79.9 198.2 L-80.65 200.55 -81.5 200.85 -82.3 200.85 Q-83.95 200.5 -85.0 199.9 -87.4 198.3 -88.65 197.9 -89.4 198.55 -90.6 198.85 L-92.7 198.8 Q-95.05 197.95 -96.85 196.6 -101.25 198.6 -106.2 198.0 -111.1 197.35 -114.35 194.4 L-114.75 192.2 -115.7 191.7 Q-115.85 188.2 -116.9 184.85 -118.25 180.5 -124.05 180.25 L-122.1 183.7 -126.95 186.6 -120.0 188.65 -120.7 190.05 Q-125.85 193.2 -132.0 194.9 L-142.0 195.35 Q-153.3 193.4 -158.5 185.45 L-157.1 183.75 Q-152.8 178.7 -145.75 175.85 M-159.25 193.25 L-161.6 193.05 Q-162.95 192.8 -163.9 192.1 -168.15 189.2 -164.15 185.6 L-162.8 186.25 -163.6 187.85 -159.25 193.25 M-154.0 196.85 Q-154.95 196.55 -154.95 196.15 -154.95 195.75 -154.0 195.45 L-151.7 195.15 -149.4 195.45 Q-148.45 195.75 -148.45 196.15 -148.45 196.55 -149.4 196.85 L-151.7 197.15 -154.0 196.85 M-157.4 176.75 L-157.5 178.2 -168.0 182.2 -168.6 180.15 Q-163.95 175.8 -157.4 176.75 M-147.2 180.7 L-155.1 186.2 Q-152.7 189.25 -148.75 191.05 -145.25 192.65 -141.3 192.35 -137.1 192.15 -133.7 190.3 L-142.3 185.85 -140.6 183.55 -132.55 187.6 -131.1 187.25 -128.6 184.4 Q-132.65 182.25 -137.4 181.3 L-147.2 180.7 M-62.05 188.3 L-67.0 184.7 Q-88.6 183.4 -103.8 171.7 L-104.05 162.15 -97.85 157.8 -94.05 158.15 -93.1 159.25 -93.85 161.4 -96.3 162.05 -99.3 165.9 Q-94.2 171.35 -87.3 175.4 -83.4 177.7 -78.95 179.15 -72.0 181.4 -65.45 183.9 L-49.45 183.75 -49.8 181.4 -41.6 181.95 -44.0 183.5 Q-32.25 187.8 -19.15 187.35 L-20.25 187.95 Q-27.55 192.05 -36.35 189.7 L-43.0 187.15 -62.05 188.3 M-122.8 193.75 L-121.7 195.65 -122.45 196.25 Q-128.55 200.75 -135.7 197.15 L-122.8 193.75 M-36.6 190.15 Q-25.0 196.35 -11.15 198.5 L-11.3 200.4 Q-19.85 203.45 -27.05 198.9 -28.35 199.3 -29.7 198.9 -32.0 198.35 -33.65 196.9 -35.9 194.9 -36.95 193.1 L-40.9 193.35 Q-43.8 193.8 -46.1 192.3 L-56.8 192.9 -57.65 191.95 -61.05 191.6 Q-65.25 191.6 -67.15 189.2 L-62.15 188.6 -36.6 190.15 M-42.7 176.5 Q-59.1 179.8 -74.15 174.2 -83.85 170.55 -88.95 163.7 L-86.85 162.9 -85.5 163.3 -87.35 161.45 -83.65 161.3 Q-64.2 160.4 -48.5 168.9 L-42.75 171.85 Q-37.95 174.25 -37.2 177.9 L-38.35 179.0 -40.05 179.25 -42.25 177.6 -42.1 176.7 Q-43.5 174.7 -45.95 173.4 -55.25 168.35 -66.95 167.45 -75.2 163.35 -85.0 163.55 L-83.95 164.6 Q-76.1 172.15 -63.5 173.15 L-42.7 176.5 M-34.1 139.45 L-35.0 140.85 Q-39.1 142.5 -43.4 141.35 L-44.5 141.0 -45.55 140.3 -37.25 138.95 -48.2 135.45 -48.55 137.35 -46.25 138.2 -50.2 138.55 Q-51.4 136.25 -49.75 134.15 L-48.95 133.35 -47.95 132.65 -36.55 136.1 -34.1 139.45 M-32.55 135.9 L-32.75 135.65 Q-32.85 135.5 -33.05 135.4 -33.1 135.3 -33.2 135.3 L-33.45 135.35 -34.1 135.6 Q-41.95 131.05 -51.9 131.35 L-53.0 128.35 -49.85 129.75 Q-37.95 128.85 -31.6 136.55 L-30.2 137.05 -31.9 137.05 -32.55 135.9 M-27.9 134.7 L-28.6 134.9 Q-33.2 135.35 -34.9 131.75 L-27.9 134.7 M-109.7 176.4 L-108.25 175.1 -109.15 168.05 -105.85 176.95 -73.2 191.1 -77.4 192.2 -96.05 184.1 -93.05 189.35 -94.5 190.5 Q-97.65 189.5 -99.95 187.5 -102.7 185.05 -103.65 182.0 L-109.3 178.6 -109.7 176.4 M-104.3 158.35 Q-103.1 157.5 -101.55 157.0 L-100.1 158.2 Q-101.3 160.0 -103.9 160.55 L-107.9 161.15 Q-106.3 159.55 -104.3 158.35 M-51.4 160.6 L-51.05 158.9 -50.0 159.25 Q-46.05 160.85 -44.65 164.15 -37.95 164.95 -31.65 167.1 -14.35 172.9 -11.75 186.8 L-15.25 188.35 -16.65 187.35 -16.0 185.25 Q-15.5 183.7 -16.15 182.25 -18.75 176.35 -26.0 173.55 L-25.2 174.5 -24.6 175.4 Q-21.15 180.9 -26.55 184.6 L-29.85 183.5 Q-29.2 180.15 -30.3 176.8 -31.35 173.55 -34.35 171.4 -48.2 161.0 -68.5 160.75 L-65.85 158.25 -62.6 157.8 -50.5 162.05 -51.4 160.6 M-44.15 150.8 Q-43.8 151.55 -43.8 152.35 L-45.7 153.05 -53.55 149.25 -50.75 148.15 -47.85 148.5 Q-45.7 148.85 -44.45 150.35 L-44.15 150.8 M-58.0 141.5 Q-58.95 141.5 -59.6 141.0 -60.3 140.45 -60.3 139.75 -60.3 139.05 -59.6 138.55 -58.95 138.0 -58.0 138.05 -57.05 138.0 -56.35 138.55 -55.7 139.05 -55.7 139.75 -55.7 140.45 -56.35 141.0 -57.05 141.5 -58.0 141.5 M-66.4 147.5 L-65.85 145.6 -59.15 143.85 -60.5 146.1 -58.15 148.45 -59.2 149.8 -61.1 149.7 Q-64.45 149.3 -66.4 147.5 M-74.7 125.25 Q-73.9 125.8 -73.9 126.65 -73.9 127.45 -74.7 128.05 -75.5 128.65 -76.6 128.65 -77.7 128.65 -78.5 128.05 -79.3 127.45 -79.3 126.65 -79.3 125.8 -78.5 125.25 -77.7 124.65 -76.6 124.65 -75.5 124.65 -74.7 125.25 M-67.2 168.0 L-56.75 172.75 -59.2 173.6 -63.05 172.4 -73.9 166.9 -67.2 168.0 M-80.4 156.95 Q-76.3 154.8 -71.65 153.7 -61.35 151.35 -55.05 157.45 L-80.4 156.95 M-4.65 151.4 Q-3.95 151.4 -3.4 151.75 -2.9 152.15 -2.9 152.65 -2.9 153.15 -3.4 153.55 -3.95 153.9 -4.65 153.95 L-5.85 153.55 Q-6.4 153.15 -6.4 152.65 -6.4 152.15 -5.85 151.75 -5.35 151.4 -4.65 151.4 M-10.65 157.05 L-11.0 158.6 Q-11.4 159.95 -12.75 160.95 L-13.55 161.4 -14.5 161.75 -15.25 162.9 Q-21.9 163.05 -28.2 161.55 -31.85 160.65 -33.45 158.8 -33.05 154.7 -28.6 152.6 L-27.1 151.95 -25.4 151.5 -10.75 156.25 -10.65 157.05 M-18.75 156.5 L-17.1 158.65 Q-15.25 159.35 -15.25 158.1 L-18.75 156.5 M-13.2 171.15 L-14.8 169.55 -7.35 165.6 -6.15 166.2 -9.05 170.9 -13.2 171.15 M-22.85 154.55 L-25.4 154.55 -29.2 157.1 -18.9 161.2 -22.85 154.55 M-4.75 197.65 Q-4.05 197.1 -3.0 197.1 -1.95 197.1 -1.2 197.65 -0.5 198.15 -0.5 198.95 -0.5 199.75 -1.2 200.3 -1.95 200.8 -3.0 200.85 -4.05 200.8 -4.75 200.3 -5.5 199.75 -5.5 198.95 -5.5 198.15 -4.75 197.65 M-10.05 173.9 L-9.05 173.7 -8.05 173.9 -7.65 174.35 -8.05 174.85 -9.05 175.05 -10.05 174.85 -10.45 174.35 -10.05 173.9 M-3.95 176.25 L-2.5 177.45 -5.25 180.05 -0.85 184.8 -1.55 186.7 Q-7.9 184.65 -7.05 179.55 -6.65 177.3 -3.95 176.25 M-242.3 199.1 L-246.65 198.55 Q-247.7 198.15 -247.55 197.75 -247.45 197.35 -246.2 197.05 L-243.05 196.6 -240.95 196.6 -242.3 199.1 M-259.05 187.85 L-258.05 186.9 Q-253.85 183.1 -247.75 185.15 L-256.1 189.3 -258.1 189.0 -259.05 187.85 M-253.6 196.0 L-254.0 195.35 Q-254.0 195.0 -253.6 194.7 -253.25 194.4 -252.75 194.45 -252.25 194.4 -251.85 194.7 -251.5 195.0 -251.5 195.35 -251.5 195.7 -251.85 196.0 L-252.75 196.3 -253.6 196.0 M-240.55 195.9 L-243.2 196.4 -245.25 196.65 -246.0 196.55 -247.8 196.1 Q-247.75 191.15 -242.2 188.7 -240.1 187.75 -237.9 187.2 -236.4 184.45 -233.55 182.3 -228.9 178.6 -222.25 177.85 L-219.25 181.15 -224.45 183.5 -222.65 181.35 Q-234.95 184.15 -239.45 193.35 L-240.55 195.9 M-235.2 182.2 L-237.05 183.65 -242.6 182.9 -235.2 182.2 M-214.0 181.95 L-212.9 184.7 -207.9 186.25 -205.65 185.15 -209.85 181.3 -209.05 179.0 Q-208.3 180.3 -206.7 181.35 -199.6 186.0 -190.15 183.55 -195.5 187.2 -202.6 186.05 L-205.15 187.5 Q-211.5 189.85 -215.75 185.45 L-215.45 182.95 -214.0 181.95 M-207.0 195.85 L-206.1 194.55 Q-202.7 192.9 -199.85 190.9 -196.25 188.4 -191.9 186.6 L-178.8 181.0 -173.95 183.2 -178.8 185.0 -179.2 185.8 Q-183.0 191.85 -191.05 189.15 L-193.9 189.65 Q-198.05 195.55 -207.0 195.85 M-219.7 184.9 L-217.75 183.75 -216.6 184.9 -216.75 186.5 -215.85 187.65 Q-214.5 189.55 -215.95 191.5 L-215.9 191.85 -213.05 192.5 -212.4 193.6 -213.8 194.65 Q-217.15 196.9 -221.45 196.15 L-219.7 184.9 M-194.45 175.65 L-189.15 179.45 Q-191.45 181.0 -194.6 181.35 -198.9 181.45 -202.2 179.55 -202.25 177.25 -200.75 175.15 -197.6 170.75 -190.4 171.3 L-194.45 175.65" fill="url(#gradient2)" fill-rule="evenodd" stroke="none"/>
    <path d="M-92.45 139.45 L-97.05 138.0 Q-96.6 136.5 -95.75 135.15 -95.05 134.1 -93.55 133.5 -86.4 130.6 -79.65 134.75 -68.45 131.3 -58.05 135.85 L-60.55 137.0 -64.7 134.75 -72.55 135.3 -72.75 135.75 Q-74.25 139.1 -78.65 139.75 L-82.1 139.9 Q-82.15 137.0 -85.65 135.65 -86.9 135.15 -88.2 134.8 L-89.85 137.8 -87.45 140.0 -92.45 139.45" fill="url(#gradient3)" fill-rule="evenodd" stroke="none"/>
    <path d="M-60.25 118.6 L-60.3 118.65 -60.3 118.6 -60.25 118.6" fill="url(#gradient4)" fill-rule="evenodd" stroke="none"/>
    <path d="M319.7 -20.35 L319.7 234.2 -322.25 234.2 -322.25 -87.55 Q-209.8 -124.2 -72.2 -124.15 147.8 -124.2 303.45 -30.5 311.8 -25.5 319.7 -20.35" fill="url(#gradient5)" fill-rule="evenodd" stroke="none"/>
  </g>
  <defs>
    <radialGradient cx="0" cy="0" gradientTransform="matrix(-0.048, -0.5087, 0.7554, -0.0714, -70.0, 206.15)" gradientUnits="userSpaceOnUse" id="gradient0" r="819.2" spreadMethod="pad">
      <stop offset="0.0" stop-color="#ffffff"/>
      <stop offset="0.4627450980392157" stop-color="#da2310"/>
      <stop offset="1.0" stop-color="#000000"/>
    </radialGradient>
    <linearGradient gradientTransform="matrix(0.0, 0.0415, -0.1104, 0.0, -70.05, 168.05)" gradientUnits="userSpaceOnUse" id="gradient1" spreadMethod="pad" x1="-819.2" x2="819.2">
      <stop offset="0.0" stop-color="#ffffff"/>
      <stop offset="1.0" stop-color="#fbd566"/>
    </linearGradient>
    <linearGradient gradientTransform="matrix(0.0, -0.0695, 2.6808, 0.0, 743.2, 175.85)" gradientUnits="userSpaceOnUse" id="gradient2" spreadMethod="pad" x1="-819.2" x2="819.2">
      <stop offset="0.0" stop-color="#a93c01"/>
      <stop offset="1.0" stop-color="#ff6600"/>
    </linearGradient>
    <linearGradient gradientTransform="matrix(0.0, -0.0695, 2.6808, 0.0, 743.2, 175.85)" gradientUnits="userSpaceOnUse" id="gradient3" spreadMethod="pad" x1="-819.2" x2="819.2">
      <stop offset="0.0" stop-color="#853603"/>
      <stop offset="1.0" stop-color="#ff6600"/>
    </linearGradient>
    <linearGradient gradientTransform="matrix(0.0, -0.0494, 2.6808, 0.0, 725.95, 169.2)" gradientUnits="userSpaceOnUse" id="gradient4" spreadMethod="pad" x1="-819.2" x2="819.2">
      <stop offset="0.0" stop-color="#a93c01"/>
      <stop offset="1.0" stop-color="#ff6600"/>
    </linearGradient>
    <radialGradient cx="0" cy="0" gradientTransform="matrix(0.7216, 0.0, 0.0, 0.2933, -60.0, 244.9)" gradientUnits="userSpaceOnUse" id="gradient5" r="819.2" spreadMethod="pad">
      <stop offset="0.2549019607843137" stop-color="#ffffff"/>
      <stop offset="1.0" stop-color="#ffffff" stop-opacity="0.0"/>
    </radialGradient>
  </defs>
</svg>
