<?xml version="1.0" encoding="UTF-8" standalone="no"?>
<svg xmlns:ffdec="https://www.free-decompiler.com/flash" xmlns:xlink="http://www.w3.org/1999/xlink" ffdec:objectType="shape" height="265.25px" width="162.9px" xmlns="http://www.w3.org/2000/svg">
  <g transform="matrix(1.0, 0.0, 0.0, 1.0, 81.45, 124.9)">
    <path d="M78.45 -121.85 Q79.95 -120.25 79.95 -118.1 L79.95 133.55 Q79.95 135.75 78.45 137.3 77.0 138.85 74.95 138.85 L-74.9 138.85 Q-77.0 138.85 -78.45 137.3 -79.95 135.75 -79.95 133.55 L-79.95 -118.1 Q-79.95 -120.25 -78.45 -121.85 -77.0 -123.4 -74.9 -123.4 L74.95 -123.4 Q77.0 -123.4 78.45 -121.85" fill="#ffffff" fill-rule="evenodd" stroke="none"/>
    <path d="M78.45 -121.85 Q77.0 -123.4 74.95 -123.4 L-74.9 -123.4 Q-77.0 -123.4 -78.45 -121.85 -79.95 -120.25 -79.95 -118.1 L-79.95 133.55 Q-79.95 135.75 -78.45 137.3 -77.0 138.85 -74.9 138.85 L74.95 138.85 Q77.0 138.85 78.45 137.3 79.95 135.75 79.95 133.55 L79.95 -118.1 Q79.95 -120.25 78.45 -121.85 Z" fill="none" stroke="#333333" stroke-linecap="round" stroke-linejoin="round" stroke-width="3.0"/>
  </g>
</svg>
