<?xml version="1.0" encoding="UTF-8" standalone="no"?>
<svg xmlns:ffdec="https://www.free-decompiler.com/flash" xmlns:xlink="http://www.w3.org/1999/xlink" ffdec:objectType="shape" height="171.0px" width="11.0px" xmlns="http://www.w3.org/2000/svg">
  <g transform="matrix(1.0, 0.0, 0.0, 1.0, -19.5, -24.5)">
    <path d="M20.0 25.0 L20.0 35.0 30.0 35.0 M30.0 55.0 L20.0 55.0 20.0 75.0 30.0 75.0 M20.0 75.0 L20.0 95.0 30.0 95.0 M20.0 55.0 L20.0 35.0 M30.0 115.0 L20.0 115.0 20.0 135.0 30.0 135.0 M30.0 155.0 L20.0 155.0 20.0 175.0 30.0 175.0 M20.0 175.0 L20.0 195.0 30.0 195.0 M20.0 135.0 L20.0 155.0 M20.0 95.0 L20.0 115.0" fill="none" stroke="#333333" stroke-linecap="round" stroke-linejoin="round" stroke-width="1.0"/>
  </g>
</svg>
