<?xml version="1.0" encoding="UTF-8" standalone="no"?>
<svg xmlns:ffdec="https://www.free-decompiler.com/flash" xmlns:xlink="http://www.w3.org/1999/xlink" ffdec:objectType="shape" height="62.8px" width="44.05px" xmlns="http://www.w3.org/2000/svg">
  <g transform="matrix(1.0, 0.0, 0.0, 1.0, 22.0, 31.4)">
    <path d="M12.4 -23.2 L12.3 -23.3 12.15 -23.45 12.05 -23.55 12.0 -23.55 10.2 -24.85 9.85 -25.05 9.75 -25.05 9.3 -24.85 8.5 -24.35 7.75 -23.7 7.55 -23.5 6.3 -22.0 7.15 -23.75 Q8.05 -26.15 7.2 -28.75 L7.05 -29.3 7.0 -29.35 Q3.55 -30.7 -0.15 -31.0 L-3.35 -31.05 -6.6 -30.7 Q-4.7 -30.25 -2.85 -29.3 0.2 -27.75 2.85 -25.55 L3.65 -24.65 3.75 -24.4 Q2.1 -25.75 -0.05 -26.3 L-3.85 -26.7 -6.9 -26.65 -15.0 -26.05 -16.45 -25.75 Q-14.55 -25.0 -12.95 -23.65 L-12.3 -23.1 -12.05 -22.95 -16.7 -23.25 -21.25 -24.5 -21.7 -24.7 -20.7 -22.45 Q-19.3 -18.75 -17.0 -15.5 L-15.95 -13.9 -15.85 -13.8 -15.85 -13.85 -14.45 -18.25 Q-15.1 -14.5 -14.7 -10.7 L-14.4 -9.25 -12.45 -4.2 -7.75 -15.5 -7.8 -15.35 -7.8 -15.3 -9.2 -10.45 -9.9 -7.85 -10.45 -5.55 -9.15 -7.75 -8.75 -8.35 -3.9 -15.45 -6.5 -9.05 -7.15 -7.55 -8.0 -5.0 Q-5.65 -6.55 -3.45 -8.35 L-2.0 -9.6 -0.75 -10.85 0.55 -12.15 3.25 -15.6 4.9 -18.6 5.15 -19.4 5.3 -19.8 Q5.55 -18.45 5.3 -16.75 L3.9 -8.2 Q5.2 -9.95 5.95 -11.9 7.5 -16.4 7.95 -21.2 L8.1 -19.55 17.6 -7.55 16.6 -11.2 Q15.25 -14.65 13.5 -17.85 L20.95 -13.25 20.1 -14.65 16.65 -19.1 14.05 -21.75 12.4 -23.2 M8.2 -25.05 Q10.35 -26.1 12.75 -26.3 16.65 -26.7 20.1 -24.35 L14.75 -24.05 12.6 -23.95 12.45 -23.9 16.9 -19.35 Q18.8 -17.3 20.3 -14.9 L22.05 -11.7 Q18.65 -14.5 14.9 -16.6 L14.5 -16.8 16.4 -12.65 16.55 -12.35 16.75 -11.7 16.9 -11.3 16.95 -11.05 17.15 -10.35 17.25 -10.15 17.25 -10.1 17.35 -9.75 17.45 -9.5 17.45 -9.4 17.5 -9.3 18.15 -6.2 13.3 -12.45 Q12.9 -10.55 13.5 -8.65 L14.0 -6.15 Q14.15 -5.05 13.55 -4.1 11.75 -1.15 8.55 0.25 L9.05 0.9 10.25 3.35 10.65 4.65 11.55 7.65 12.05 10.75 12.0 13.35 11.75 14.65 10.95 18.35 10.25 21.8 9.75 23.75 9.75 24.25 10.3 26.8 10.25 27.5 9.1 28.7 Q8.25 29.15 7.4 28.7 5.0 27.45 3.5 25.3 L3.15 24.85 Q3.05 24.2 3.25 23.5 3.45 22.6 4.0 21.8 L4.05 21.65 5.0 19.15 5.2 18.35 5.5 17.4 4.6 16.75 4.2 17.8 4.0 18.55 3.35 20.7 2.35 24.65 Q2.2 25.35 2.45 26.1 L3.45 29.45 3.2 30.55 Q2.8 31.0 2.25 31.15 L1.65 31.25 0.0 31.4 -0.4 31.25 -1.35 30.85 -2.25 30.35 -2.95 29.95 -3.55 29.45 -4.1 29.0 -4.1 28.95 Q-5.05 28.15 -5.4 27.0 -5.9 25.6 -5.5 24.25 L-2.9 15.8 -2.75 15.0 Q-2.85 11.95 -4.1 9.15 L-4.2 9.0 -4.25 8.95 -4.35 8.75 -4.4 8.75 -4.65 9.0 -4.7 9.2 -5.0 10.2 -5.05 10.7 -5.05 11.0 -5.0 11.65 -4.15 12.5 Q-3.85 12.65 -3.7 12.95 -3.0 14.45 -3.55 16.0 L-3.75 16.4 -3.8 16.45 -3.85 16.55 -4.8 17.0 -5.1 17.05 -6.1 17.25 -7.0 17.2 -7.55 17.1 -8.55 16.0 -8.95 14.85 Q-10.35 9.4 -8.6 4.05 L-8.5 3.55 Q-8.3 2.55 -7.75 1.9 -7.05 0.95 -5.7 0.6 L-5.15 0.45 -7.2 -0.35 -7.4 -0.3 Q-7.65 -0.05 -7.95 0.05 L-8.95 0.1 -9.1 0.1 -10.1 -0.4 -10.4 -0.65 -11.35 -1.7 -12.3 -2.8 -12.3 -2.85 -12.55 -3.05 -16.05 -5.05 Q-17.6 -6.05 -19.0 -7.2 L-19.55 -7.6 -20.1 -8.4 -17.6 -8.2 Q-16.4 -8.05 -15.25 -8.2 L-15.05 -8.3 -16.95 -10.05 Q-18.2 -10.85 -19.6 -11.3 L-20.9 -11.65 -16.05 -13.45 Q-17.2 -14.75 -18.05 -16.3 L-20.15 -20.35 -20.15 -20.45 -22.0 -25.2 Q-18.25 -23.75 -14.25 -23.45 L-13.5 -23.35 -15.75 -25.05 -17.2 -25.75 -17.5 -25.9 -16.25 -26.05 -8.8 -27.05 -7.05 -27.1 -3.85 -27.15 -3.25 -27.15 Q-1.4 -27.35 0.35 -26.65 L-0.3 -27.2 Q-1.75 -28.5 -3.55 -29.25 L-4.3 -29.55 -7.85 -30.8 -1.9 -31.4 4.55 -30.65 Q6.05 -30.35 7.4 -29.65 L7.55 -29.1 8.0 -24.95 8.2 -25.05 M10.25 -25.45 L10.15 -25.4 10.2 -25.4 11.9 -24.3 14.25 -24.7 18.45 -24.8 17.25 -25.25 13.25 -25.8 10.25 -25.45 M3.05 1.1 L3.35 1.1 Q5.9 0.8 8.35 -0.05 10.9 -1.0 12.45 -3.05 13.65 -4.65 13.3 -6.5 12.6 -9.7 12.75 -12.95 L11.6 -14.7 11.1 -14.2 11.0 -14.1 10.3 -13.4 9.8 -12.95 9.55 -12.75 9.1 -12.35 8.4 -11.75 8.45 -10.1 8.8 -10.1 9.35 -10.45 9.35 -12.2 9.4 -12.2 9.45 -12.1 9.7 -11.45 Q9.9 -9.65 9.75 -7.65 9.7 -6.85 9.05 -6.8 L9.0 -6.75 Q8.6 -6.75 8.3 -7.05 L8.3 -7.1 8.15 -11.6 6.85 -10.3 6.25 -10.05 6.2 -10.1 6.2 -10.4 6.25 -10.55 6.3 -10.65 Q6.45 -11.05 6.7 -11.1 L6.75 -11.1 6.8 -11.05 11.1 -15.3 8.1 -19.2 Q7.75 -14.35 5.65 -10.1 4.85 -8.6 3.5 -7.7 L4.9 -17.3 Q3.3 -14.2 0.9 -11.6 L-0.2 -10.4 2.45 -10.3 2.95 -10.5 3.15 -10.15 3.1 -9.7 2.7 -9.35 0.85 -9.65 0.2 -9.75 -0.7 -9.9 -5.3 -6.3 -8.6 -4.5 -8.35 -5.75 -8.85 -6.7 -8.9 -6.85 -8.95 -6.85 -9.0 -6.85 -9.05 -6.75 -9.1 -6.6 -9.6 -5.5 -9.25 -4.85 -9.15 -4.7 Q-8.95 -4.05 -9.3 -3.45 L-8.4 -2.25 -8.9 -1.95 -9.1 -2.1 -9.45 -2.35 -9.65 -2.45 Q-9.9 -2.65 -9.8 -2.8 L-9.75 -2.9 -9.7 -2.95 -9.9 -3.35 -9.9 -3.5 -9.9 -3.55 -9.85 -3.65 Q-9.55 -4.15 -9.55 -4.7 L-9.8 -5.35 -10.65 -4.1 -10.95 -3.65 Q-10.9 -6.15 -10.05 -8.6 L-11.65 -4.8 -11.75 -4.3 Q-11.85 -3.45 -11.4 -2.7 L-10.2 -1.1 -9.4 -0.55 -8.05 -0.45 -7.5 -0.7 -7.35 -0.8 Q-6.45 -0.6 -5.5 -0.05 L-4.75 0.25 0.65 1.1 2.75 1.1 2.7 1.15 3.05 1.1 M1.0 -9.35 L1.05 -9.3 1.25 -6.5 1.1 -5.3 0.95 -4.85 Q0.55 -4.25 -0.15 -4.25 L-0.3 -4.7 -0.5 -6.45 -0.5 -7.4 Q-0.6 -8.2 -0.2 -9.05 L0.0 -7.8 Q0.15 -7.25 0.65 -7.45 L0.75 -7.55 1.0 -9.35 M3.75 -1.05 Q3.45 -1.05 3.5 -1.3 3.45 -1.5 3.7 -1.5 L3.75 -1.45 4.1 -1.1 4.45 -0.9 4.7 -0.8 4.75 -0.75 Q6.25 -0.25 7.2 -1.65 6.45 0.2 4.55 -0.5 L3.8 -1.0 3.75 -1.05 M5.15 19.8 L4.4 21.9 3.95 22.7 Q3.05 24.1 4.1 25.3 5.4 26.75 7.05 27.85 L7.65 28.25 9.1 28.1 9.2 27.0 9.55 27.55 Q10.0 27.35 10.05 26.9 L9.95 25.6 9.2 23.85 10.0 21.45 10.85 17.85 11.5 14.25 11.7 11.85 11.6 9.85 11.2 7.9 10.1 4.05 10.0 3.8 8.6 1.05 8.55 0.95 8.4 0.65 8.35 0.6 8.2 0.4 8.25 0.35 8.2 0.35 Q5.7 1.2 3.05 1.35 L-2.05 1.15 -4.15 0.75 -4.25 0.75 -4.4 0.75 -4.75 0.65 -4.85 0.65 -6.4 1.2 -7.35 1.95 -7.65 2.5 Q-9.1 6.1 -9.15 10.05 -9.55 12.7 -8.65 15.2 L-8.25 15.9 Q-7.15 17.15 -5.35 16.9 L-4.5 16.5 Q-3.15 15.25 -3.95 13.7 L-3.8 13.35 -4.2 12.8 Q-4.55 12.55 -4.95 12.55 L-5.05 12.55 -5.15 12.55 -5.2 12.55 -5.35 12.5 -5.45 10.85 Q-5.15 7.5 -3.3 4.8 L-3.3 4.85 -3.35 5.0 -3.4 5.25 -3.7 6.25 -3.95 7.1 -4.0 7.35 -4.05 7.5 -3.95 7.55 -3.85 8.0 -3.7 8.4 Q-2.7 11.3 -2.45 14.45 L-2.45 15.35 -2.55 16.3 -4.75 23.5 -5.15 25.4 Q-5.25 27.1 -3.95 28.4 -2.65 29.7 -0.9 30.45 L2.05 30.35 2.2 29.1 2.45 30.5 2.65 30.4 Q3.0 30.1 2.95 29.65 L2.15 27.1 1.65 26.25 Q2.1 23.1 3.1 20.1 L3.6 18.6 4.0 17.55 4.2 17.05 4.35 16.7 4.45 16.5 4.5 16.45 4.5 16.4 4.55 16.2 4.65 16.4 4.75 16.6 Q5.05 17.0 5.65 17.15 L6.7 17.0 6.75 17.0 6.85 16.95 6.9 16.9 7.2 16.55 7.3 16.35 7.3 16.25 7.35 16.0 7.35 15.95 6.8 16.2 6.05 16.0 5.35 15.35 6.0 15.85 6.5 16.0 Q7.1 15.9 7.3 15.45 L7.3 15.25 7.3 14.8 7.2 14.35 6.7 14.0 6.65 13.95 6.6 13.95 6.75 13.95 7.05 14.1 7.3 14.25 7.55 14.75 7.6 15.3 7.6 15.95 7.45 16.5 7.3 16.8 7.0 17.15 6.85 17.25 6.8 17.3 5.7 17.45 5.55 18.05 5.25 19.3 5.2 19.55 5.15 19.8 M6.6 10.55 L6.45 10.45 6.35 10.2 6.45 10.0 Q6.5 9.9 6.6 9.9 L6.75 10.0 6.8 10.2 6.75 10.45 6.6 10.55 M-16.4 -12.65 L-19.05 -11.7 -15.2 -9.65 -15.5 -12.8 -16.4 -12.65 M-14.35 -4.4 L-12.85 -3.6 -14.75 -7.45 -19.45 -8.0 -14.35 -4.4" fill="#000000" fill-rule="evenodd" stroke="none"/>
    <path d="M-15.95 -13.9 L-17.0 -15.5 Q-19.3 -18.75 -20.7 -22.45 L-21.7 -24.7 -21.25 -24.5 -16.7 -23.25 -12.05 -22.95 -12.3 -23.1 -12.95 -23.65 Q-14.55 -25.0 -16.45 -25.75 L-15.0 -26.05 -6.9 -26.65 -3.85 -26.7 -0.05 -26.3 Q2.1 -25.75 3.75 -24.4 L3.65 -24.65 2.85 -25.55 Q0.2 -27.75 -2.85 -29.3 -4.7 -30.25 -6.6 -30.7 L-3.35 -31.05 -0.15 -31.0 Q3.55 -30.7 7.0 -29.35 L7.05 -29.3 7.2 -28.75 Q8.05 -26.15 7.15 -23.75 L6.3 -22.0 7.55 -23.5 7.75 -23.7 8.5 -24.35 9.3 -24.85 9.75 -25.05 9.85 -25.05 10.2 -24.85 12.0 -23.55 12.05 -23.55 12.15 -23.45 12.3 -23.3 12.4 -23.2 13.9 -20.6 12.3 -21.35 9.45 -22.2 10.65 -19.45 8.85 -20.55 11.05 -18.5 12.0 -17.95 12.05 -18.05 11.95 -18.6 11.05 -20.4 10.75 -20.9 15.7 -18.55 15.45 -19.25 14.25 -21.4 14.05 -21.75 16.65 -19.1 20.1 -14.65 20.95 -13.25 13.5 -17.85 Q15.25 -14.65 16.6 -11.2 L17.6 -7.55 8.1 -19.55 7.95 -21.2 Q7.5 -16.4 5.95 -11.9 5.2 -9.95 3.9 -8.2 L5.3 -16.75 Q5.55 -18.45 5.3 -19.8 L5.15 -19.4 4.9 -18.6 3.25 -15.6 0.55 -12.15 -0.75 -10.85 -2.0 -9.6 -3.45 -8.35 Q-5.65 -6.55 -8.0 -5.0 L-7.15 -7.55 -6.5 -9.05 -3.9 -15.45 -8.75 -8.35 -9.15 -7.75 -10.45 -5.55 -9.9 -7.85 -9.2 -10.45 -7.8 -15.3 -7.8 -15.35 -7.75 -15.5 -12.45 -4.2 -14.4 -9.25 -14.7 -10.7 Q-15.1 -14.5 -14.45 -18.25 L-15.85 -13.85 -15.95 -13.9 M10.2 -25.4 L10.25 -25.45 13.25 -25.8 17.25 -25.25 18.45 -24.8 14.25 -24.7 11.9 -24.3 10.2 -25.4 M1.1 -19.45 L1.15 -19.9 1.2 -21.55 -2.55 -16.55 -2.3 -22.3 -3.9 -20.3 -5.2 -18.3 -6.55 -15.85 -6.05 -22.15 -7.6 -20.55 -10.25 -17.1 -11.15 -15.6 -10.7 -21.5 Q-11.9 -20.2 -12.45 -18.45 L-12.5 -18.3 -12.6 -18.05 -12.65 -17.65 -11.7 -19.45 -11.95 -16.55 -11.95 -16.15 -11.95 -15.8 -11.75 -13.65 -9.6 -16.15 -6.95 -20.05 -7.1 -19.2 -7.3 -17.55 -7.55 -13.45 -5.45 -16.3 -2.9 -20.85 -3.65 -13.5 -3.05 -14.1 -1.8 -15.95 Q-0.35 -17.9 0.8 -19.95 L0.05 -16.2 Q1.55 -17.25 2.55 -18.8 L2.8 -19.2 3.8 -21.25 0.65 -17.55 1.0 -18.95 1.1 -19.45 M-16.4 -12.65 L-15.5 -12.8 -15.2 -9.65 -19.05 -11.7 -16.4 -12.65 M-14.35 -4.4 L-19.45 -8.0 -14.75 -7.45 -12.85 -3.6 -14.35 -4.4" fill="#333333" fill-rule="evenodd" stroke="none"/>
    <path d="M12.05 -18.05 L12.0 -17.95 12.05 -18.05 M10.2 -25.4 L10.15 -25.4 10.25 -25.45 10.2 -25.4" fill="#666666" fill-rule="evenodd" stroke="none"/>
    <path d="M14.05 -21.75 L14.25 -21.4 15.45 -19.25 15.7 -18.55 10.75 -20.9 11.05 -20.4 11.95 -18.6 12.05 -18.05 12.0 -17.95 11.05 -18.5 8.85 -20.55 10.65 -19.45 9.45 -22.2 12.3 -21.35 13.9 -20.6 12.4 -23.2 14.05 -21.75 M1.1 -19.45 L1.0 -18.95 0.65 -17.55 3.8 -21.25 2.8 -19.2 2.55 -18.8 Q1.55 -17.25 0.05 -16.2 L0.8 -19.95 Q-0.35 -17.9 -1.8 -15.95 L-3.05 -14.1 -3.65 -13.5 -2.9 -20.85 -5.45 -16.3 -7.55 -13.45 -7.3 -17.55 -7.1 -19.2 -6.95 -20.05 -9.6 -16.15 -11.75 -13.65 -11.95 -15.8 -11.95 -16.15 -11.95 -16.55 -11.7 -19.45 -12.65 -17.65 -12.6 -18.05 -12.5 -18.3 -12.45 -18.45 Q-11.9 -20.2 -10.7 -21.5 L-11.15 -15.6 -10.25 -17.1 -7.6 -20.55 -6.05 -22.15 -6.55 -15.85 -5.2 -18.3 -3.9 -20.3 -2.3 -22.3 -2.55 -16.55 1.2 -21.55 1.15 -19.9 1.1 -19.45" fill="#999999" fill-rule="evenodd" stroke="none"/>
    <path d="M9.1 -12.35 L9.55 -12.75 9.8 -12.95 10.3 -13.4 11.0 -14.1 11.1 -14.2 11.6 -14.7 12.75 -12.95 Q12.6 -9.7 13.3 -6.5 13.65 -4.65 12.45 -3.05 10.9 -1.0 8.35 -0.05 5.9 0.8 3.35 1.1 L3.05 1.1 2.75 1.1 0.65 1.1 -4.75 0.25 -5.5 -0.05 Q-6.45 -0.6 -7.35 -0.8 L-7.5 -0.7 -8.05 -0.45 -9.4 -0.55 -10.2 -1.1 -11.4 -2.7 Q-11.85 -3.45 -11.75 -4.3 L-11.65 -4.8 -10.05 -8.6 Q-10.9 -6.15 -10.95 -3.65 L-10.65 -4.1 -9.9 -2.9 -9.85 -2.85 -9.85 -2.8 -9.8 -2.8 Q-9.9 -2.65 -9.65 -2.45 L-9.45 -2.35 -9.1 -2.1 -8.9 -1.95 -8.4 -2.25 -9.3 -3.45 Q-8.95 -4.05 -9.15 -4.7 L-9.25 -4.85 -9.6 -5.5 -9.1 -6.6 -9.05 -6.75 -9.0 -6.85 -8.95 -6.85 -8.9 -6.85 -8.85 -6.7 -8.35 -5.75 -8.6 -4.5 -5.3 -6.3 -0.7 -9.9 0.2 -9.75 -0.05 -9.55 -0.2 -9.05 Q-0.6 -8.2 -0.5 -7.4 L-0.5 -6.45 -0.3 -4.7 -0.15 -4.25 Q0.55 -4.25 0.95 -4.85 L1.1 -5.3 1.25 -6.5 1.05 -9.3 1.0 -9.35 0.85 -9.65 2.7 -9.35 3.1 -9.7 3.15 -10.15 2.95 -10.5 2.45 -10.3 -0.2 -10.4 0.9 -11.6 Q3.3 -14.2 4.9 -17.3 L3.5 -7.7 Q4.85 -8.6 5.65 -10.1 7.75 -14.35 8.1 -19.2 L11.1 -15.3 6.8 -11.05 6.75 -11.1 6.7 -11.1 Q6.45 -11.05 6.3 -10.65 L6.25 -10.55 6.2 -10.4 6.2 -10.1 6.25 -10.05 6.85 -10.3 8.15 -11.6 8.3 -7.1 8.3 -7.05 Q8.6 -6.75 9.0 -6.75 L9.05 -6.8 Q9.7 -6.85 9.75 -7.65 9.9 -9.65 9.7 -11.45 L9.45 -12.1 9.4 -12.2 9.35 -12.2 9.35 -12.25 9.35 -12.3 9.1 -12.35 M3.75 -1.05 L3.8 -1.0 4.55 -0.5 Q6.45 0.2 7.2 -1.65 6.25 -0.25 4.75 -0.75 L4.7 -0.8 4.45 -0.9 4.1 -1.1 3.75 -1.45 3.7 -1.5 Q3.45 -1.5 3.5 -1.3 3.45 -1.05 3.75 -1.05 M12.85 -7.35 L11.65 -7.15 11.95 -8.65 11.0 -6.7 Q11.05 -6.5 11.4 -6.5 12.4 -6.7 12.85 -7.35 M8.55 0.95 L8.6 1.05 10.0 3.8 10.1 4.05 11.2 7.9 11.6 9.85 11.7 11.85 11.5 14.25 10.85 17.85 10.0 21.45 9.2 23.85 9.95 25.6 10.05 26.9 Q10.0 27.35 9.55 27.55 L9.2 27.0 9.1 28.1 7.65 28.25 7.05 27.85 Q5.4 26.75 4.1 25.3 3.05 24.1 3.95 22.7 L4.4 21.9 5.15 19.8 5.55 19.15 6.15 18.3 6.3 18.1 6.95 17.25 7.0 17.15 7.3 16.8 7.45 16.5 7.6 15.95 7.6 15.3 7.55 14.75 7.3 14.25 7.05 14.1 6.75 13.95 6.6 13.95 6.65 13.95 6.7 14.0 7.2 14.35 7.3 14.8 7.3 15.25 7.3 15.45 Q7.1 15.9 6.5 16.0 L6.0 15.85 5.35 15.35 6.05 16.0 6.8 16.2 7.35 15.95 7.35 16.0 7.3 16.25 7.3 16.35 6.3 16.8 5.4 16.65 4.75 15.95 4.35 15.35 4.15 15.05 4.0 14.85 3.9 14.75 3.85 14.75 3.9 14.85 4.2 15.8 4.35 16.4 4.35 16.6 4.35 16.7 4.2 17.05 4.0 17.55 3.6 18.6 3.1 20.1 Q2.1 23.1 1.65 26.25 L2.15 27.1 2.95 29.65 Q3.0 30.1 2.65 30.4 L2.45 30.5 2.2 29.1 2.05 30.35 -0.9 30.45 Q-2.65 29.7 -3.95 28.4 -5.25 27.1 -5.15 25.4 L-4.75 23.5 -2.55 16.3 -2.45 15.35 -2.45 14.45 Q-2.7 11.3 -3.7 8.4 L-3.85 8.0 -3.95 7.55 -4.05 7.5 -4.0 7.35 -3.95 7.1 -3.7 6.25 -3.4 5.25 -3.35 5.0 -3.3 4.85 -3.3 4.8 Q-5.15 7.5 -5.45 10.85 L-5.35 12.5 -5.2 12.55 -5.15 12.55 -5.05 12.55 -4.95 12.55 Q-4.55 12.55 -4.2 12.8 L-3.8 13.35 -3.95 13.7 Q-3.15 15.25 -4.5 16.5 L-5.35 16.9 Q-7.15 17.15 -8.25 15.9 L-8.65 15.2 Q-9.55 12.7 -9.15 10.05 -9.1 6.1 -7.65 2.5 L-7.35 1.95 -6.4 1.2 -4.85 0.65 -4.35 1.05 -1.7 2.25 -1.1 2.5 -0.65 2.65 1.7 3.35 3.7 3.45 5.2 3.2 5.6 3.1 Q6.8 2.8 7.7 1.95 L8.5 1.05 8.55 0.95 M-4.4 0.75 L-4.25 0.75 -4.25 0.8 -4.3 0.8 -4.4 0.75 M9.0 4.7 L8.9 4.9 9.0 5.15 9.2 5.25 9.45 5.15 9.55 4.9 9.45 4.7 9.2 4.6 Q9.05 4.6 9.0 4.7 M1.55 7.4 L1.45 7.2 1.2 7.1 Q1.05 7.1 1.0 7.2 L0.9 7.4 1.0 7.6 1.2 7.7 1.45 7.6 1.55 7.4 M6.6 10.55 L6.75 10.45 6.8 10.2 6.75 10.0 6.6 9.9 Q6.5 9.9 6.45 10.0 L6.35 10.2 6.45 10.45 6.6 10.55 M-3.5 -4.05 L-1.9 -3.1 Q-3.05 -4.7 -3.9 -4.15 L-3.8 -3.3 -6.15 -3.55 Q-4.75 -2.8 -3.3 -2.7 L-3.5 -4.05" fill="#ffe3d5" fill-rule="evenodd" stroke="none"/>
    <path d="M0.2 -9.75 L0.85 -9.65 1.0 -9.35 0.75 -7.55 0.65 -7.45 Q0.15 -7.25 0.0 -7.8 L-0.2 -9.05 -0.05 -9.55 0.2 -9.75 M9.35 -12.2 L9.35 -10.45 8.8 -10.1 8.45 -10.1 8.4 -11.75 9.1 -12.35 9.35 -12.3 9.35 -12.25 9.35 -12.2" fill="#ffffff" fill-rule="evenodd" stroke="none"/>
    <path d="M3.05 1.1 L2.7 1.15 2.75 1.1 3.05 1.1 M-10.65 -4.1 L-9.8 -5.35 -9.55 -4.7 Q-9.55 -4.15 -9.85 -3.65 L-9.9 -3.55 -9.9 -3.5 -9.9 -3.35 -9.7 -2.95 -9.75 -2.9 -9.8 -2.8 -9.85 -2.8 -9.85 -2.85 -9.9 -2.9 -10.65 -4.1 M12.85 -7.35 Q12.4 -6.7 11.4 -6.5 11.05 -6.5 11.0 -6.7 L11.95 -8.65 11.65 -7.15 12.85 -7.35 M5.15 19.8 L5.2 19.55 5.25 19.3 5.55 18.05 5.7 17.45 6.8 17.3 6.85 17.25 7.0 17.15 6.95 17.25 6.3 18.1 6.15 18.3 5.55 19.15 5.15 19.8 M7.3 16.35 L7.2 16.55 6.9 16.9 6.85 16.95 6.75 17.0 6.7 17.0 5.65 17.15 Q5.05 17.0 4.75 16.6 L4.65 16.4 4.55 16.2 4.5 16.4 4.5 16.45 4.45 16.5 4.35 16.7 4.35 16.6 4.35 16.4 4.2 15.8 3.9 14.85 3.85 14.75 3.9 14.75 4.0 14.85 4.15 15.05 4.35 15.35 4.75 15.95 5.4 16.65 6.3 16.8 7.3 16.35 M-4.85 0.65 L-4.75 0.65 -4.4 0.75 -4.3 0.8 -4.25 0.8 -4.25 0.75 -4.15 0.75 -2.05 1.15 3.05 1.35 Q5.7 1.2 8.2 0.35 L8.2 0.4 8.35 0.6 8.4 0.65 8.55 0.95 8.5 1.05 7.7 1.95 Q6.8 2.8 5.6 3.1 L5.2 3.2 3.7 3.45 1.7 3.35 -0.65 2.65 -1.1 2.5 -1.7 2.25 -4.35 1.05 -4.85 0.65 M-3.5 -4.05 L-3.3 -2.7 Q-4.75 -2.8 -6.15 -3.55 L-3.8 -3.3 -3.9 -4.15 Q-3.05 -4.7 -1.9 -3.1 L-3.5 -4.05" fill="#edb192" fill-rule="evenodd" stroke="none"/>
    <path d="M9.0 4.7 Q9.05 4.6 9.2 4.6 L9.45 4.7 9.55 4.9 9.45 5.15 9.2 5.25 9.0 5.15 8.9 4.9 9.0 4.7 M1.55 7.4 L1.45 7.6 1.2 7.7 1.0 7.6 0.9 7.4 1.0 7.2 Q1.05 7.1 1.2 7.1 L1.45 7.2 1.55 7.4" fill="#c85b64" fill-rule="evenodd" stroke="none"/>
  </g>
</svg>
