<?xml version="1.0" encoding="UTF-8" standalone="no"?>
<svg xmlns:ffdec="https://www.free-decompiler.com/flash" xmlns:xlink="http://www.w3.org/1999/xlink" ffdec:objectType="shape" height="8.2px" width="15.8px" xmlns="http://www.w3.org/2000/svg">
  <g transform="matrix(1.0, 0.0, 0.0, 1.0, 7.0, 4.8)">
    <path d="M1.9 -1.95 L3.3 -1.85 3.35 -1.65 4.6 0.2 4.9 0.9 Q3.65 1.3 2.5 2.0 L0.75 3.15 0.75 3.25 0.7 3.4 -0.3 3.0 Q-3.65 2.25 -5.45 -0.5 L-6.35 -1.6 -6.7 -2.0 -7.0 -2.25 Q-6.85 -3.1 -6.85 -4.05 L-6.85 -4.35 -6.85 -4.4 -6.65 -4.75 -6.6 -4.75 -6.5 -4.8 -4.05 -3.45 -1.3 -2.65 1.9 -1.95 M3.2 -1.5 L3.05 -1.5 -0.2 -1.8 -3.8 -2.8 Q-5.2 -3.25 -6.5 -4.4 L-6.5 -3.3 -6.6 -2.55 -5.85 -1.8 Q-5.2 -1.25 -4.35 -0.85 -3.3 -0.35 -2.2 0.05 L4.35 0.4 3.2 -1.5 M8.0 -3.6 Q8.4 -4.1 8.7 -3.35 8.95 -1.75 8.55 -0.65 L8.1 -0.9 Q7.0 -1.7 7.05 -3.0 7.6 -3.0 8.0 -3.6 M8.25 -1.2 L8.3 -1.2 8.3 -1.25 8.25 -3.2 7.4 -2.6 8.25 -1.2 M0.55 3.0 L1.15 2.35 Q2.15 1.45 3.55 1.0 L-0.7 0.85 Q-3.15 0.4 -5.45 -0.85 -4.05 1.2 -1.7 2.2 L0.55 3.0" fill="#666666" fill-rule="evenodd" stroke="none"/>
    <path d="M3.2 -1.5 L4.35 0.4 -2.2 0.05 Q-3.3 -0.35 -4.35 -0.85 -5.2 -1.25 -5.85 -1.8 L-6.6 -2.55 -6.5 -3.3 -6.5 -4.4 Q-5.2 -3.25 -3.8 -2.8 L-0.2 -1.8 3.05 -1.5 3.2 -1.5 M8.3 -1.25 L8.25 -1.2 7.4 -2.6 8.25 -3.2 8.3 -1.25" fill="#cccccc" fill-rule="evenodd" stroke="none"/>
    <path d="M0.55 3.0 L-1.7 2.2 Q-4.05 1.2 -5.45 -0.85 -3.15 0.4 -0.7 0.85 L3.55 1.0 Q2.15 1.45 1.15 2.35 L0.55 3.0" fill="#999999" fill-rule="evenodd" stroke="none"/>
  </g>
</svg>
