<?xml version="1.0" encoding="UTF-8" standalone="no"?>
<svg xmlns:ffdec="https://www.free-decompiler.com/flash" xmlns:xlink="http://www.w3.org/1999/xlink" ffdec:objectType="shape" height="11.55px" width="16.75px" xmlns="http://www.w3.org/2000/svg">
  <g transform="matrix(1.0, 0.0, 0.0, 1.0, 12.2, 16.1)">
    <path d="M1.75 -15.65 L1.85 -15.45 3.4 -13.7 4.3 -11.95 4.4 -11.8 Q4.15 -13.55 3.0 -15.0 L2.45 -15.6 1.75 -15.65 M2.35 -16.0 L3.5 -14.65 4.25 -13.0 4.55 -11.15 4.5 -11.15 3.85 -12.6 3.05 -13.95 2.35 -14.7 1.4 -15.55 1.45 -15.7 2.35 -16.0 M-9.1 -15.3 L-8.3 -15.05 -8.0 -13.05 -8.0 -11.3 -8.3 -9.45 -8.6 -8.0 -9.3 -5.75 -9.35 -5.45 -9.15 -4.55 -10.45 -5.35 -11.25 -6.25 -10.5 -7.75 -10.35 -8.0 -9.7 -10.0 -9.45 -11.45 -9.45 -12.35 -9.75 -14.1 -9.85 -14.55 -10.2 -15.5 -10.25 -15.5 -10.1 -15.55 -9.3 -15.35 -9.1 -15.3 M-8.2 -10.45 L-8.1 -11.5 Q-8.05 -12.65 -8.15 -13.8 L-8.4 -14.85 -9.95 -15.35 -9.9 -15.15 -9.85 -15.1 -9.75 -14.7 -9.4 -12.85 -9.35 -11.1 -9.4 -10.75 Q-9.55 -9.45 -10.0 -8.2 L-10.2 -7.45 -10.2 -7.15 -9.8 -6.0 -9.6 -5.8 -9.5 -5.7 -9.05 -7.05 -8.5 -8.9 -8.2 -10.45 M-11.85 -15.95 L-12.05 -15.35 -11.3 -15.65 -11.85 -15.95 M-10.95 -15.65 L-10.8 -15.55 -10.8 -15.45 -12.15 -15.15 -12.2 -15.15 -12.1 -15.85 -12.0 -16.1 -10.95 -15.65 M-11.0 -6.25 L-9.65 -4.95 -9.45 -4.85 -9.5 -5.3 -10.5 -6.9 -10.55 -7.05 -10.55 -7.3 -11.0 -6.25" fill="#000000" fill-rule="evenodd" stroke="none"/>
    <path d="M-8.2 -10.45 L-8.5 -8.9 -9.05 -7.05 -9.5 -5.7 -9.6 -5.8 -9.8 -6.0 -10.2 -7.15 -10.2 -7.45 -10.0 -8.2 Q-9.55 -9.45 -9.4 -10.75 L-9.35 -11.1 -9.35 -11.0 -8.4 -10.55 -8.35 -10.5 -8.2 -10.45 M-11.0 -6.25 L-10.55 -7.3 -10.55 -7.05 -10.5 -6.9 -9.5 -5.3 -9.45 -4.85 -9.65 -4.95 -11.0 -6.25" fill="#aca488" fill-rule="evenodd" stroke="none"/>
    <path d="M1.75 -15.65 L2.45 -15.6 3.0 -15.0 Q4.15 -13.55 4.4 -11.8 L4.3 -11.95 3.4 -13.7 1.85 -15.45 1.75 -15.65 M-9.35 -11.1 L-9.4 -12.85 -9.75 -14.7 -9.85 -15.1 -9.9 -15.15 -9.95 -15.35 -8.4 -14.85 -8.15 -13.8 Q-8.05 -12.65 -8.1 -11.5 L-8.2 -10.45 -8.35 -10.5 -8.4 -10.55 -9.35 -11.0 -9.35 -11.1 M-11.85 -15.95 L-11.3 -15.65 -12.05 -15.35 -11.85 -15.95" fill="#d5d0c1" fill-rule="evenodd" stroke="none"/>
  </g>
</svg>
