<?xml version="1.0" encoding="UTF-8" standalone="no"?>
<svg xmlns:ffdec="https://www.free-decompiler.com/flash" xmlns:xlink="http://www.w3.org/1999/xlink" ffdec:objectType="shape" height="30.0px" width="30.0px" xmlns="http://www.w3.org/2000/svg">
  <g transform="matrix(1.0, 0.0, 0.0, 1.0, 0.0, 0.0)">
    <path d="M28.95 0.9 L29.1 1.0 29.4 1.7 29.4 28.45 29.1 29.15 28.4 29.45 1.65 29.45 0.95 29.15 0.9 29.1 Q0.6 28.8 0.65 28.45 L0.65 1.7 Q0.6 1.25 0.95 1.0 1.2 0.65 1.65 0.7 L28.4 0.7 28.95 0.9" fill="#000000" fill-rule="evenodd" stroke="none"/>
    <path d="M0.9 29.1 L0.95 29.15 1.65 29.45 28.4 29.45 29.1 29.15 29.4 28.45 29.4 1.7 29.1 1.0 28.95 0.9 29.85 0.0 30.0 0.0 30.0 30.0 0.0 30.0 0.0 29.95 0.9 29.1" fill="#000099" fill-rule="evenodd" stroke="none"/>
    <path d="M28.95 0.9 L28.4 0.7 1.65 0.7 Q1.2 0.65 0.95 1.0 0.6 1.25 0.65 1.7 L0.65 28.45 Q0.6 28.8 0.9 29.1 L0.0 29.95 0.0 0.0 29.85 0.0 28.95 0.9" fill="#0000ff" fill-rule="evenodd" stroke="none"/>
  </g>
</svg>
