<?xml version="1.0" encoding="UTF-8" standalone="no"?>
<svg xmlns:ffdec="https://www.free-decompiler.com/flash" xmlns:xlink="http://www.w3.org/1999/xlink" ffdec:objectType="shape" height="27.55px" width="19.85px" xmlns="http://www.w3.org/2000/svg">
  <g transform="matrix(1.0, 0.0, 0.0, 1.0, -5.15, -1.35)">
    <path d="M17.8 2.05 Q17.55 2.25 17.55 2.6 17.55 3.0 18.1 3.35 L19.3 3.65 20.55 3.35 21.05 2.6 20.9 2.15 Q21.15 1.7 20.65 1.5 L20.55 1.55 19.65 1.6 19.3 1.55 18.85 1.6 18.15 1.55 Q17.75 1.6 17.8 2.05 M12.55 18.25 L24.4 18.25 24.4 17.85 24.4 17.8 24.45 17.65 24.35 4.45 24.0 4.1 6.6 4.05 6.45 4.1 6.3 4.05 5.8 4.45 5.75 17.65 5.75 17.8 5.75 17.85 5.8 18.25 11.65 18.25 11.55 18.5 5.8 18.5 5.8 19.05 5.8 19.3 5.95 20.5 24.2 20.5 24.35 19.3 24.35 19.05 24.35 18.5 12.3 18.5 12.55 18.25 M24.95 4.4 L25.0 5.1 24.8 27.4 24.75 27.45 Q24.8 28.35 24.1 28.7 L24.05 28.75 23.85 28.9 22.45 28.9 7.75 28.9 6.3 28.9 6.1 28.75 6.05 28.7 Q5.35 28.35 5.4 27.45 L5.35 27.4 5.15 5.1 5.2 4.4 5.25 4.35 Q5.25 4.1 5.4 3.9 5.65 3.6 6.0 3.5 L6.4 3.4 6.45 3.4 8.85 3.2 8.7 1.4 13.15 1.35 13.0 3.25 17.15 3.25 17.15 2.45 17.5 2.1 17.6 1.4 21.15 1.35 21.3 3.2 24.1 3.5 24.15 3.5 24.75 3.9 24.9 4.35 24.95 4.4 M24.3 20.65 L5.85 20.65 6.0 22.75 24.15 22.75 24.3 20.65 M24.2 22.9 L5.95 22.9 5.95 24.25 15.05 24.55 24.2 24.25 24.2 22.9 M9.15 2.25 L9.15 3.4 12.8 3.4 12.8 2.15 12.8 2.0 Q12.7 1.85 12.5 1.85 L12.15 1.75 9.55 1.6 9.45 1.65 Q9.0 1.9 9.15 2.25 M6.15 27.7 L6.2 27.7 6.3 27.8 6.45 27.85 6.5 27.95 6.95 28.15 7.5 28.25 22.7 28.25 23.2 28.15 23.65 27.95 23.75 27.85 23.85 27.8 23.95 27.7 24.0 27.7 24.05 27.65 24.1 27.55 24.1 27.3 24.1 27.25 24.15 27.2 6.05 27.2 6.05 27.25 6.05 27.3 6.05 27.55 6.1 27.65 6.15 27.7 M6.15 26.45 L24.0 26.45 24.1 24.9 6.05 24.9 6.15 26.45" fill="#666666" fill-rule="evenodd" stroke="none"/>
    <path d="M17.8 2.05 L17.9 2.25 18.85 2.5 20.3 2.5 Q20.75 2.5 20.85 2.2 L20.85 2.15 20.9 2.15 21.05 2.6 20.55 3.35 19.3 3.65 18.1 3.35 Q17.55 3.0 17.55 2.6 17.55 2.25 17.8 2.05 M19.65 1.6 L19.25 1.6 18.85 1.6 19.3 1.55 19.65 1.6 M15.9 5.65 L16.85 5.75 18.8 6.15 20.15 6.7 Q20.8 6.95 21.3 7.35 L20.3 7.35 Q18.75 6.45 17.0 6.1 L15.85 5.95 15.9 5.65 M21.65 7.65 Q22.85 8.75 23.3 10.5 23.65 11.85 23.05 13.1 22.35 14.65 21.05 15.5 L21.05 15.45 20.95 15.3 20.85 15.2 20.7 15.2 Q22.2 14.2 22.6 12.3 23.15 9.8 21.65 8.35 L21.65 7.65 M20.25 15.9 L19.55 16.15 15.65 16.75 14.15 16.7 14.35 16.55 14.6 16.3 16.1 16.35 19.4 15.8 19.55 15.9 20.25 15.9 M12.4 16.6 L10.85 16.25 10.75 16.2 10.65 16.15 9.8 15.85 9.85 15.4 10.55 15.75 10.65 15.75 10.85 15.8 10.85 15.9 10.9 16.05 11.0 16.1 11.1 16.1 11.25 16.05 11.3 15.9 12.6 16.1 12.4 16.6 M9.3 15.6 Q7.85 14.75 7.1 13.1 6.5 11.85 6.85 10.5 7.25 9.05 8.15 8.05 L8.2 8.05 8.2 8.1 8.3 8.3 8.3 8.55 Q7.05 9.95 7.55 12.3 7.95 14.05 9.2 15.0 L9.3 15.6 M8.9 7.35 Q9.4 6.95 10.0 6.7 11.85 5.8 13.75 5.65 L14.35 5.65 14.45 5.65 15.05 5.55 14.95 5.8 14.75 5.95 13.9 6.05 13.3 6.1 Q11.5 6.4 9.9 7.35 L9.6 7.35 9.5 7.45 9.45 7.5 9.4 7.45 9.3 7.35 8.9 7.35 M12.3 18.5 L24.35 18.5 24.35 19.05 24.35 19.3 24.2 20.5 5.95 20.5 5.8 19.3 5.8 19.05 5.8 18.5 11.55 18.5 11.25 19.7 12.3 18.5 M24.2 22.9 L24.2 24.25 15.05 24.55 5.95 24.25 5.95 22.9 24.2 22.9 M12.8 2.0 L12.8 2.15 12.8 3.4 9.15 3.4 9.15 2.25 9.3 2.5 9.55 2.55 Q10.0 2.4 10.5 2.55 L12.35 2.65 Q12.75 2.6 12.8 2.15 L12.8 2.0 M6.15 27.7 L6.1 27.65 6.05 27.55 6.05 27.3 6.05 27.25 6.05 27.2 24.15 27.2 24.1 27.25 24.1 27.3 24.1 27.55 24.05 27.65 24.0 27.7 23.95 27.7 23.85 27.8 23.75 27.85 23.65 27.95 23.2 28.15 22.7 28.25 7.5 28.25 6.95 28.15 6.5 27.95 6.45 27.85 6.3 27.8 6.2 27.7 6.15 27.7" fill="#cccccc" fill-rule="evenodd" stroke="none"/>
    <path d="M20.9 2.15 L20.85 2.15 20.85 2.2 Q20.75 2.5 20.3 2.5 L18.85 2.5 17.9 2.25 17.8 2.05 Q17.75 1.6 18.15 1.55 L18.85 1.6 19.25 1.6 19.65 1.6 20.55 1.55 20.65 1.5 Q21.15 1.7 20.9 2.15 M16.1 5.05 L16.7 5.1 19.45 5.05 20.55 5.05 21.35 5.0 22.05 4.85 23.5 4.6 23.9 5.05 23.85 5.55 23.7 5.85 23.45 6.05 23.05 5.9 22.6 5.6 16.05 5.15 16.1 5.05 M15.4 5.15 L13.45 4.95 15.5 5.0 15.4 5.15 M20.7 15.2 L20.65 15.1 Q20.55 14.9 20.6 14.25 L20.6 8.3 20.85 8.3 21.0 8.4 21.15 8.85 21.25 9.5 21.3 9.65 21.4 9.7 21.5 9.7 21.6 9.7 21.65 9.6 21.7 9.5 21.65 8.35 Q23.15 9.8 22.6 12.3 22.2 14.2 20.7 15.2 M15.6 5.5 L15.6 5.55 15.6 5.5 M15.85 8.4 L15.35 8.05 15.85 5.95 17.0 6.1 Q18.75 6.45 20.3 7.35 L18.95 7.35 Q18.85 7.35 18.8 7.45 L18.75 7.5 18.75 7.45 18.6 7.35 16.05 7.35 15.95 7.45 Q15.85 7.5 15.9 7.6 L15.85 8.4 M9.15 2.25 Q9.0 1.9 9.45 1.65 L9.55 1.6 12.15 1.75 12.5 1.85 Q12.7 1.85 12.8 2.0 L12.8 2.15 Q12.75 2.6 12.35 2.65 L10.5 2.55 Q10.0 2.4 9.55 2.55 L9.3 2.5 9.15 2.25 M9.9 7.35 Q11.5 6.4 13.3 6.1 L13.9 6.05 14.75 5.95 12.2 9.2 12.3 8.45 12.4 8.05 12.45 8.05 12.6 8.0 12.65 7.85 12.65 7.6 12.6 7.45 12.45 7.35 11.55 7.35 11.4 7.45 11.35 7.6 11.35 7.85 11.4 8.0 11.55 8.05 11.65 8.05 11.65 8.15 11.7 8.3 11.6 9.3 11.5 10.15 11.05 10.65 11.35 11.0 11.2 12.4 10.75 9.4 10.65 8.35 10.7 8.05 10.75 8.05 10.8 8.05 10.95 8.0 11.0 7.85 11.0 7.6 10.95 7.45 10.8 7.35 9.9 7.35 M11.5 4.95 L13.0 4.95 8.3 5.7 8.15 5.55 8.05 5.25 8.1 5.0 Q8.45 4.5 9.2 4.6 L10.1 4.75 11.5 4.95 M13.05 12.8 L12.85 14.0 12.6 15.1 12.45 15.25 12.4 15.35 12.35 15.45 12.35 15.7 12.4 15.8 12.55 15.9 12.7 15.9 12.6 16.1 11.3 15.9 11.9 11.55 13.05 12.8 M13.45 14.15 L13.55 13.35 13.7 13.5 13.45 14.15 M15.1 15.9 L15.85 15.9 15.95 15.8 16.0 15.7 16.0 15.45 16.0 15.3 15.9 15.25 16.9 14.35 16.9 15.1 16.75 15.2 16.65 15.2 16.55 15.3 Q16.45 15.35 16.5 15.45 L16.5 15.7 16.55 15.8 16.65 15.9 18.0 15.9 18.1 15.8 18.15 15.7 18.15 15.45 18.1 15.3 18.0 15.2 17.85 15.2 17.8 15.1 Q17.7 14.9 17.75 14.25 L17.75 13.65 19.8 11.9 19.8 14.25 19.75 15.1 19.65 15.2 19.55 15.2 Q19.45 15.2 19.4 15.3 19.3 15.35 19.35 15.45 L19.35 15.7 19.4 15.8 16.1 16.35 14.6 16.3 15.1 15.9 M17.75 9.85 L17.75 8.3 18.0 8.3 18.15 8.4 18.3 8.85 18.35 9.5 18.4 9.65 18.55 9.7 18.65 9.7 18.75 9.7 18.75 9.65 18.8 9.7 18.9 9.7 19.0 9.7 19.1 9.65 19.15 9.5 19.25 8.7 19.4 8.35 19.6 8.3 19.8 8.3 19.8 11.45 17.75 9.85 M16.35 8.8 L16.4 8.7 16.55 8.35 16.75 8.3 16.9 8.3 16.9 9.25 16.35 8.8 M6.4 5.2 L6.6 4.65 Q6.75 4.45 7.0 4.45 L7.45 4.65 7.6 5.2 7.45 5.75 7.0 5.95 Q6.75 5.95 6.6 5.75 L6.4 5.2 M8.3 8.55 L8.4 9.2 9.2 15.0 Q7.95 14.05 7.55 12.3 7.05 9.95 8.3 8.55 M9.6 8.05 L9.65 8.05 9.7 8.15 9.75 8.25 9.85 8.75 9.85 8.8 10.0 9.95 9.7 12.4 9.25 9.25 9.15 8.3 9.2 8.05 9.3 8.05 9.4 8.0 9.45 7.95 9.5 8.0 9.6 8.05 M10.85 15.8 L10.65 15.75 10.55 15.75 9.85 15.4 10.3 12.1 10.85 15.8" fill="#ffffff" fill-rule="evenodd" stroke="none"/>
    <path d="M16.05 5.15 L22.6 5.6 23.05 5.9 23.45 6.05 23.7 5.85 23.85 5.55 23.9 5.05 23.5 4.6 22.05 4.85 21.35 5.0 20.55 5.05 19.45 5.05 16.7 5.1 16.1 5.05 16.15 4.85 Q15.95 4.45 15.5 5.0 L13.45 4.95 15.4 5.15 15.05 5.55 14.45 5.65 14.35 5.65 13.75 5.65 Q11.85 5.8 10.0 6.7 9.4 6.95 8.9 7.35 L8.15 7.35 Q8.05 7.35 8.0 7.45 7.9 7.5 7.95 7.6 L7.95 7.85 8.0 8.0 8.15 8.05 Q7.25 9.05 6.85 10.5 6.5 11.85 7.1 13.1 7.85 14.75 9.3 15.6 L9.35 15.9 9.4 16.05 9.5 16.1 9.6 16.1 9.75 16.05 9.8 15.9 9.8 15.85 10.65 16.15 10.75 16.2 10.85 16.25 12.4 16.6 11.65 18.25 5.8 18.25 5.75 17.85 5.75 17.8 5.75 17.65 5.8 4.45 6.3 4.05 6.45 4.1 6.6 4.05 24.0 4.1 24.35 4.45 24.45 17.65 24.4 17.8 24.4 17.85 24.4 18.25 12.55 18.25 14.15 16.7 15.65 16.75 19.55 16.15 20.25 15.9 20.85 15.9 20.95 15.8 21.05 15.7 21.05 15.5 Q22.35 14.65 23.05 13.1 23.65 11.85 23.3 10.5 22.85 8.75 21.65 7.65 L21.65 7.6 21.6 7.45 21.45 7.35 21.3 7.35 Q20.8 6.95 20.15 6.7 L18.8 6.15 16.85 5.75 15.9 5.65 16.05 5.15 M24.3 20.65 L24.15 22.75 6.0 22.75 5.85 20.65 24.3 20.65 M11.5 4.95 L10.1 4.75 9.2 4.6 Q8.45 4.5 8.1 5.0 L8.05 5.25 8.15 5.55 8.3 5.7 13.0 4.95 11.5 4.95 M6.4 5.2 L6.6 5.75 Q6.75 5.95 7.0 5.95 L7.45 5.75 7.6 5.2 7.45 4.65 7.0 4.45 Q6.75 4.45 6.6 4.65 L6.4 5.2 M6.15 26.45 L6.05 24.9 24.1 24.9 24.0 26.45 6.15 26.45" fill="#0066ff" fill-rule="evenodd" stroke="none"/>
    <path d="M16.05 5.15 L15.9 5.65 15.85 5.95 15.35 8.05 15.85 8.4 15.85 9.15 14.8 8.45 15.6 5.55 15.6 5.5 Q14.95 6.0 14.45 6.7 13.15 8.1 12.1 9.65 L12.15 9.4 12.2 9.2 14.75 5.95 14.95 5.8 15.05 5.55 15.4 5.15 15.5 5.0 Q15.95 4.45 16.15 4.85 L16.1 5.05 16.05 5.15 M14.15 16.7 L12.55 18.25 12.3 18.5 11.25 19.7 11.55 18.5 11.65 18.25 12.4 16.6 12.6 16.1 12.7 15.9 12.85 15.9 11.6 18.75 13.85 16.7 14.75 15.9 15.1 15.9 14.6 16.3 14.35 16.55 14.15 16.7 M11.35 11.0 L11.05 10.65 11.5 10.15 11.35 11.0 M15.65 15.05 L16.9 13.95 16.9 14.25 16.9 14.35 15.9 15.25 15.85 15.25 15.7 15.1 15.65 15.05 M16.9 9.9 L16.3 9.5 16.35 8.8 16.9 9.25 16.9 9.9 M11.95 11.1 L13.1 12.45 13.05 12.8 11.9 11.55 11.95 11.1 M13.35 14.85 L13.4 14.3 13.45 14.15 13.7 13.5 13.55 13.35 13.6 13.2 13.75 13.2 13.95 13.45 13.35 14.85 M17.75 9.85 L19.8 11.45 19.8 11.9 17.75 13.65 17.75 13.25 19.55 11.75 17.75 10.5 17.75 9.85" fill="#6d6c29" fill-rule="evenodd" stroke="none"/>
    <path d="M15.6 5.5 L15.6 5.55 14.8 8.45 15.85 9.15 15.85 9.5 15.85 9.6 15.95 9.7 16.05 9.7 16.1 9.7 16.25 9.65 16.3 9.5 16.9 9.9 16.9 13.95 15.65 15.05 15.5 14.1 14.4 7.35 14.35 7.25 14.2 7.2 14.15 7.2 14.0 7.25 13.95 7.35 13.1 12.45 11.95 11.1 12.1 9.7 12.1 9.65 Q13.15 8.1 14.45 6.7 14.95 6.0 15.6 5.5 M12.85 15.9 L13.5 15.9 13.65 15.8 13.7 15.7 13.7 15.45 13.65 15.3 13.55 15.25 13.4 15.15 13.35 14.95 13.35 14.85 13.95 13.45 13.75 13.2 14.5 13.2 14.65 14.2 14.75 14.95 14.7 15.2 14.6 15.2 Q14.5 15.2 14.45 15.3 L14.4 15.45 14.4 15.7 14.5 15.8 14.6 15.9 14.75 15.9 13.85 16.7 11.6 18.75 12.85 15.9 M14.05 10.4 L14.35 12.3 13.75 12.3 14.05 10.4 M17.75 10.5 L19.55 11.75 17.75 13.25 17.75 10.5" fill="#ffff00" fill-rule="evenodd" stroke="none"/>
    <path d="M21.3 7.35 L21.45 7.35 21.6 7.45 21.65 7.6 21.65 7.65 21.65 8.35 21.7 9.5 21.65 9.6 21.6 9.7 21.5 9.7 21.4 9.7 21.3 9.65 21.25 9.5 21.15 8.85 21.0 8.4 20.85 8.3 20.6 8.3 20.6 14.25 Q20.55 14.9 20.65 15.1 L20.7 15.2 20.85 15.2 20.95 15.3 21.05 15.45 21.05 15.5 21.05 15.7 20.95 15.8 20.85 15.9 20.25 15.9 19.55 15.9 19.4 15.8 19.35 15.7 19.35 15.45 Q19.3 15.35 19.4 15.3 19.45 15.2 19.55 15.2 L19.65 15.2 19.75 15.1 19.8 14.25 19.8 11.9 19.8 11.45 19.8 8.3 19.6 8.3 19.4 8.35 19.25 8.7 19.15 9.5 19.1 9.65 19.0 9.7 18.9 9.7 18.8 9.7 18.75 9.65 18.75 9.7 18.65 9.7 18.55 9.7 18.4 9.65 18.35 9.5 18.3 8.85 18.15 8.4 18.0 8.3 17.75 8.3 17.75 9.85 17.75 10.5 17.75 13.25 17.75 13.65 17.75 14.25 Q17.7 14.9 17.8 15.1 L17.85 15.2 18.0 15.2 18.1 15.3 18.15 15.45 18.15 15.7 18.1 15.8 18.0 15.9 16.65 15.9 16.55 15.8 16.5 15.7 16.5 15.45 Q16.45 15.35 16.55 15.3 L16.65 15.2 16.75 15.2 16.9 15.1 16.9 14.35 16.9 14.25 16.9 13.95 16.9 9.9 16.9 9.25 16.9 8.3 16.75 8.3 16.55 8.35 16.4 8.7 16.35 8.8 16.3 9.5 16.25 9.65 16.1 9.7 16.05 9.7 15.95 9.7 15.85 9.6 15.85 9.5 15.85 9.15 15.85 8.4 15.9 7.6 Q15.85 7.5 15.95 7.45 L16.05 7.35 18.6 7.35 18.75 7.45 18.75 7.5 18.8 7.45 Q18.85 7.35 18.95 7.35 L20.3 7.35 21.3 7.35 M9.8 15.85 L9.8 15.9 9.75 16.05 9.6 16.1 9.5 16.1 9.4 16.05 9.35 15.9 9.3 15.6 9.2 15.0 8.4 9.2 8.3 8.55 8.3 8.3 8.2 8.1 8.2 8.05 8.15 8.05 8.0 8.0 7.95 7.85 7.95 7.6 Q7.9 7.5 8.0 7.45 8.05 7.35 8.15 7.35 L8.9 7.35 9.3 7.35 9.4 7.45 9.45 7.5 9.5 7.45 9.6 7.35 9.9 7.35 10.8 7.35 10.95 7.45 11.0 7.6 11.0 7.85 10.95 8.0 10.8 8.05 10.75 8.05 10.7 8.05 10.65 8.35 10.75 9.4 11.2 12.4 11.35 11.0 11.5 10.15 11.6 9.3 11.7 8.3 11.65 8.15 11.65 8.05 11.55 8.05 11.4 8.0 11.35 7.85 11.35 7.6 11.4 7.45 11.55 7.35 12.45 7.35 12.6 7.45 12.65 7.6 12.65 7.85 12.6 8.0 12.45 8.05 12.4 8.05 12.3 8.45 12.2 9.2 12.15 9.4 12.1 9.65 12.1 9.7 11.95 11.1 11.9 11.55 11.3 15.9 11.25 16.05 11.1 16.1 11.0 16.1 10.9 16.05 10.85 15.9 10.85 15.8 10.3 12.1 9.85 15.4 9.8 15.85 M13.1 12.45 L13.95 7.35 14.0 7.25 14.15 7.2 14.2 7.2 14.35 7.25 14.4 7.35 15.5 14.1 15.65 15.05 15.7 15.1 15.85 15.25 15.9 15.25 16.0 15.3 16.0 15.45 16.0 15.7 15.95 15.8 15.85 15.9 15.1 15.9 14.75 15.9 14.6 15.9 14.5 15.8 14.4 15.7 14.4 15.45 14.45 15.3 Q14.5 15.2 14.6 15.2 L14.7 15.2 14.75 14.95 14.65 14.2 14.5 13.2 13.75 13.2 13.6 13.2 13.55 13.35 13.45 14.15 13.4 14.3 13.35 14.85 13.35 14.95 13.4 15.15 13.55 15.25 13.65 15.3 13.7 15.45 13.7 15.7 13.65 15.8 13.5 15.9 12.85 15.9 12.7 15.9 12.55 15.9 12.4 15.8 12.35 15.7 12.35 15.45 12.4 15.35 12.45 15.25 12.6 15.1 12.85 14.0 13.05 12.8 13.1 12.45 M14.05 10.4 L13.75 12.3 14.35 12.3 14.05 10.4 M9.6 8.05 L9.5 8.0 9.45 7.95 9.4 8.0 9.3 8.05 9.2 8.05 9.15 8.3 9.25 9.25 9.7 12.4 10.0 9.95 9.85 8.8 9.85 8.75 9.75 8.25 9.7 8.15 9.65 8.05 9.6 8.05" fill="#333333" fill-rule="evenodd" stroke="none"/>
  </g>
</svg>
