<?xml version="1.0" encoding="UTF-8" standalone="no"?>
<svg xmlns:ffdec="https://www.free-decompiler.com/flash" xmlns:xlink="http://www.w3.org/1999/xlink" ffdec:objectType="shape" height="27.6px" width="27.6px" xmlns="http://www.w3.org/2000/svg">
  <g transform="matrix(1.0, 0.0, 0.0, 1.0, -1.4, -1.3)">
    <path d="M22.15 2.8 L22.2 2.9 22.45 3.15 22.4 3.2 22.2 2.95 22.15 2.85 22.15 2.8 M27.35 8.0 L27.4 8.0 27.55 8.15 27.35 8.0" fill="#3e372f" fill-rule="evenodd" stroke="none"/>
    <path d="M18.7 7.55 L18.65 7.55 18.7 7.55" fill="#766a58" fill-rule="evenodd" stroke="none"/>
    <path d="M27.35 7.95 L27.4 8.0 27.35 8.0 27.35 7.95 M22.1 2.8 L22.15 2.8 22.15 2.85 22.1 2.8 M23.9 3.95 L23.95 3.9 23.95 3.95 23.9 3.95 M19.4 6.15 L19.3 6.0 19.25 5.85 19.3 5.85 19.4 6.15" fill="#cdc598" fill-rule="evenodd" stroke="none"/>
    <path d="M20.7 4.0 L20.75 4.0 20.7 4.0 M19.9 5.0 L19.85 5.0 19.9 5.0" fill="#b3a064" fill-rule="evenodd" stroke="none"/>
    <path d="M11.6 26.75 L11.35 26.9 11.25 26.75 11.55 26.65 11.6 26.75" fill="#d3e173" fill-rule="evenodd" stroke="none"/>
    <path d="M20.05 5.45 L21.25 6.95 21.25 7.05 Q20.6 6.85 20.1 6.15 19.6 5.5 20.05 5.45 M25.15 4.25 L24.1 3.6 Q23.5 2.85 23.35 2.1 L25.1 3.4 Q25.5 3.9 25.15 4.25 M11.35 26.9 L10.85 26.95 10.25 26.85 Q9.0 26.45 8.0 25.7 6.75 24.8 5.7 23.7 4.6 22.55 3.95 21.15 L3.35 19.85 Q3.2 19.45 3.4 19.1 L14.1 7.95 Q14.45 8.95 15.1 9.85 L17.0 12.05 19.4 14.25 21.1 15.5 22.3 16.25 20.15 18.3 20.3 17.25 Q20.05 15.45 18.3 15.4 L16.1 19.5 15.65 19.4 Q16.95 17.35 17.4 15.05 L15.9 14.5 15.55 14.95 Q14.3 17.3 13.2 19.75 L13.25 19.9 13.1 20.15 13.65 20.65 15.3 21.2 15.45 21.35 15.7 21.35 Q16.15 21.7 16.75 21.65 L11.8 26.5 11.6 26.75 11.55 26.65 11.65 26.35 11.5 26.0 Q11.35 25.85 11.2 25.85 11.0 25.85 10.9 25.95 L10.8 26.25 10.95 26.6 11.25 26.75 11.35 26.9 M13.0 10.5 Q12.75 10.4 12.9 10.7 L14.6 11.45 14.7 11.65 15.05 11.55 15.05 11.2 13.0 10.5 M13.4 10.2 L13.4 10.25 Q13.9 10.85 14.7 10.65 14.35 10.0 13.55 10.0 L13.4 10.2 M12.4 11.8 L12.4 12.35 13.0 12.45 13.15 12.05 13.45 12.8 13.65 12.75 Q14.45 12.55 14.25 11.75 L13.95 11.6 Q13.6 11.55 13.35 11.8 L13.3 11.45 13.3 11.3 Q12.3 10.45 11.5 11.55 L11.7 11.95 12.7 11.55 12.4 11.8 M7.5 17.45 L7.75 17.7 Q8.75 18.65 10.2 19.0 L10.35 19.1 Q11.25 19.75 12.35 19.85 L12.8 19.65 13.25 18.95 15.25 14.85 15.25 14.55 Q14.65 13.3 13.15 13.25 L12.2 14.5 12.45 14.05 Q12.75 13.55 12.55 13.05 11.5 12.25 10.25 12.2 7.95 14.3 7.5 17.45 M8.2 16.6 Q8.8 14.35 10.2 12.5 11.1 12.5 11.8 12.9 L12.3 13.3 11.3 15.2 Q10.75 15.15 10.8 14.65 L10.85 14.5 11.0 14.25 11.05 14.15 10.5 13.95 10.15 14.3 Q9.55 15.15 9.35 16.15 L9.35 16.35 9.75 16.5 10.4 15.65 10.8 15.6 11.0 15.85 10.2 17.6 9.35 17.5 10.5 16.7 8.2 16.6 M8.3 20.6 L8.2 20.9 8.95 21.3 9.15 21.0 8.3 20.6 M8.8 21.65 L7.95 21.45 8.6 22.0 8.8 21.65 M9.7 19.9 L9.85 19.6 8.8 19.5 9.7 19.9 M3.8 20.2 L4.35 20.45 Q4.9 19.95 4.6 19.3 L3.8 19.35 3.8 20.2 M4.7 21.3 L5.0 21.4 5.35 21.3 5.5 20.95 5.35 20.65 Q5.2 20.5 5.0 20.5 4.8 20.5 4.7 20.65 L4.55 20.95 4.7 21.3 M9.5 21.5 L9.7 21.85 10.0 22.05 10.3 22.0 10.35 21.75 10.15 21.4 9.8 21.2 9.5 21.25 9.5 21.5 M10.0 20.4 L9.75 20.85 10.65 21.25 10.85 20.8 10.0 20.4 M9.55 20.2 L8.6 19.85 8.5 20.15 9.35 20.6 9.55 20.2 M5.85 22.75 L6.2 22.6 6.3 22.3 6.1 21.9 Q5.95 21.75 5.75 21.75 L5.4 21.85 5.3 22.2 5.5 22.55 5.85 22.75 M7.15 23.1 L6.85 22.95 6.6 23.0 Q6.5 23.1 6.55 23.25 L6.7 23.55 7.0 23.75 7.25 23.7 7.3 23.4 7.15 23.1 M9.95 22.6 L10.15 22.25 9.25 21.8 9.1 22.2 9.95 22.6 M15.0 17.35 L16.05 15.0 17.0 15.35 16.25 17.1 15.0 17.35 M16.0 12.7 L15.85 12.45 14.75 12.2 14.3 12.45 Q14.25 13.05 14.8 13.3 L15.2 13.35 15.4 13.6 15.95 13.55 Q16.3 13.15 16.0 12.7 M17.3 13.75 L17.1 13.35 16.7 13.15 16.35 13.25 16.2 13.65 16.4 14.05 16.8 14.25 17.15 14.1 17.3 13.75 M18.0 14.2 L17.9 14.0 17.7 13.9 17.5 14.0 17.4 14.2 17.5 14.4 17.7 14.45 17.9 14.4 18.0 14.2 M8.55 24.45 L8.45 24.15 Q8.3 24.0 8.1 24.0 7.9 24.0 7.8 24.15 L7.65 24.45 7.8 24.8 8.1 24.9 8.45 24.8 8.55 24.45 M17.9 17.0 L18.5 15.8 19.65 16.6 17.9 17.0 M11.05 17.85 L13.35 13.75 Q14.05 13.8 14.6 14.35 L14.85 14.6 13.45 17.45 12.6 17.65 13.35 16.6 Q13.8 15.85 13.55 15.25 L13.5 15.25 Q12.55 16.25 12.1 17.7 L11.05 17.85 M14.3 21.65 L14.2 21.85 14.25 22.05 14.4 22.1 14.6 21.95 14.7 21.75 14.7 21.6 14.5 21.55 14.3 21.65 M13.85 21.5 L13.1 21.35 12.8 21.75 12.75 22.05 13.15 22.4 13.5 22.15 13.5 21.8 13.85 21.5 M10.25 19.85 Q10.15 19.9 10.2 20.1 L10.4 20.4 10.75 20.6 11.0 20.55 11.05 20.3 10.85 19.95 10.5 19.8 10.25 19.85 M11.35 21.0 L11.1 21.45 12.15 21.9 12.4 21.45 11.35 21.0 M11.45 20.85 L12.45 21.35 12.6 21.05 11.6 20.5 11.45 20.85 M11.9 22.4 L10.9 21.95 10.7 22.3 11.7 22.75 11.9 22.4 M10.65 22.45 L10.45 22.85 11.45 23.3 11.65 22.9 10.65 22.45 M12.35 23.8 L13.15 23.05 12.65 22.5 11.85 23.3 12.35 23.8 M13.95 22.2 L13.85 22.4 13.95 22.6 14.15 22.7 14.35 22.6 14.45 22.4 14.35 22.2 14.15 22.1 13.95 22.2 M13.7 23.8 L13.65 23.6 13.4 23.5 13.2 23.6 13.1 23.8 13.2 24.05 13.4 24.1 13.65 24.05 13.7 23.8 M14.05 23.2 L13.95 23.0 13.75 22.95 13.55 23.05 13.45 23.3 13.5 23.5 13.7 23.55 13.9 23.45 14.05 23.2 M9.45 24.95 L9.0 25.4 9.8 26.25 10.25 25.75 9.45 24.95" fill="#ffffff" fill-rule="evenodd" stroke="none"/>
    <path d="M15.6 8.05 Q15.65 7.7 16.0 7.55 L17.9 7.7 Q18.45 8.3 17.8 8.85 L17.6 9.0 16.7 9.1 16.05 8.9 Q15.6 8.65 15.6 8.2 L15.6 8.05" fill="#dbd5ce" fill-rule="evenodd" stroke="none"/>
    <path d="M25.7 6.5 L26.0 6.75 26.45 7.2 26.75 7.45 27.1 7.75 27.35 8.0 27.1 7.8 26.65 7.5 26.4 7.25 25.85 6.85 25.6 6.6 25.25 6.3 25.0 6.1 24.35 5.45 24.1 5.15 23.7 4.75 22.7 3.6 22.45 3.25 22.4 3.2 22.45 3.15 22.75 3.55 23.0 3.8 23.5 4.3 23.75 4.6 24.2 5.05 24.5 5.35 25.05 5.9 25.35 6.15 25.7 6.5 M28.25 7.55 L28.5 7.25 28.6 7.05 Q26.3 4.0 23.35 1.75 L22.9 1.85 Q22.6 2.0 22.45 2.25 L22.1 2.5 22.1 2.8 22.05 2.9 21.9 3.0 21.9 3.05 21.85 3.05 21.6 3.15 21.5 3.15 21.45 3.15 20.75 3.95 20.7 4.0 20.7 4.15 20.65 4.35 20.6 4.35 20.6 4.4 20.2 4.85 20.1 4.9 19.9 5.0 19.85 5.0 19.75 4.95 Q19.5 5.05 19.35 5.3 L19.2 5.55 19.2 5.6 19.25 5.85 19.3 6.0 19.4 6.15 20.15 7.35 23.1 10.4 Q23.7 11.0 24.25 11.1 L24.7 11.1 25.25 10.65 25.35 10.55 25.45 10.15 25.65 10.0 26.05 9.7 27.0 9.0 27.15 8.85 27.15 8.8 27.25 8.45 27.25 8.4 27.3 8.4 27.35 8.35 27.35 8.3 27.5 8.2 27.8 8.2 28.25 7.55 M21.05 2.9 L21.65 2.55 21.8 2.25 22.75 1.4 23.05 1.3 Q26.9 3.35 29.0 7.25 L28.9 7.55 28.05 8.5 27.85 8.55 27.6 8.75 Q27.4 8.9 27.45 9.15 L26.45 10.1 26.4 10.15 26.1 10.2 Q25.65 10.35 25.7 10.8 L24.8 11.6 23.85 11.2 23.75 11.35 23.65 11.55 23.5 11.75 23.3 11.8 23.3 11.85 Q23.75 13.1 23.6 14.2 L23.1 15.65 22.7 16.15 20.9 18.05 11.85 27.15 Q10.8 28.2 9.5 28.8 L9.2 28.85 6.9 28.5 5.55 27.75 Q4.2 26.9 3.25 25.7 2.3 24.5 1.7 23.1 1.35 22.4 1.4 21.65 1.45 20.8 1.9 20.15 L2.95 18.7 3.05 18.6 13.15 8.5 Q14.0 7.5 15.15 6.95 L15.4 6.85 18.5 7.05 18.5 6.95 18.65 6.7 19.1 6.45 18.7 5.5 19.5 4.55 20.2 4.1 20.35 3.65 21.05 2.9 M21.2 4.6 L21.45 4.95 21.6 5.1 21.7 5.2 21.95 5.5 22.05 5.6 22.3 5.85 22.9 6.45 23.15 6.75 23.8 7.4 24.05 7.65 24.2 7.8 24.35 7.9 24.65 8.2 25.1 8.6 25.3 8.85 25.6 9.1 25.9 9.4 25.15 8.9 24.65 8.5 24.45 8.3 24.2 8.1 23.95 7.85 23.9 7.8 23.6 7.5 22.95 6.85 22.9 6.8 22.85 6.75 22.85 6.7 22.15 5.95 22.05 5.85 21.7 5.4 20.9 4.4 21.0 4.4 21.2 4.6 M18.25 7.35 L16.0 7.1 Q15.3 7.25 14.7 7.6 L14.35 7.8 14.6 8.3 14.7 8.5 14.75 8.55 15.35 9.5 15.4 9.55 15.5 9.7 18.45 12.95 20.65 14.8 21.85 15.65 22.2 15.85 22.5 16.05 22.85 15.5 23.0 15.1 23.2 14.45 23.25 13.8 Q23.3 13.0 23.0 12.15 L22.85 11.85 22.85 11.8 22.75 11.6 22.85 11.45 23.4 11.3 23.45 10.95 19.35 6.85 19.05 6.95 18.9 7.4 18.7 7.55 18.65 7.55 18.25 7.35 M11.6 26.75 L11.8 26.5 16.75 21.65 Q16.15 21.7 15.7 21.35 L15.45 21.35 15.3 21.2 13.65 20.65 13.1 20.15 13.25 19.9 13.2 19.75 Q14.3 17.3 15.55 14.95 L15.9 14.5 17.4 15.05 Q16.95 17.35 15.65 19.4 L16.1 19.5 18.3 15.4 Q20.05 15.45 20.3 17.25 L20.15 18.3 22.3 16.25 21.1 15.5 19.4 14.25 17.0 12.05 15.1 9.85 Q14.45 8.95 14.1 7.95 L3.4 19.1 Q3.2 19.45 3.35 19.85 L3.95 21.15 Q4.6 22.55 5.7 23.7 6.75 24.8 8.0 25.7 9.0 26.45 10.25 26.85 L10.85 26.95 11.35 26.9 11.6 26.75 M11.25 26.75 L10.95 26.6 10.8 26.25 10.9 25.95 Q11.0 25.85 11.2 25.85 11.35 25.85 11.5 26.0 L11.65 26.35 11.55 26.65 11.25 26.75 M12.4 11.8 L12.7 11.55 11.7 11.95 11.5 11.55 Q12.3 10.45 13.3 11.3 L13.3 11.45 13.35 11.8 Q13.6 11.55 13.95 11.6 L14.25 11.75 Q14.45 12.55 13.65 12.75 L13.45 12.8 13.15 12.05 13.0 12.45 12.4 12.35 12.4 11.8 M13.4 10.2 L13.55 10.0 Q14.35 10.0 14.7 10.65 13.9 10.85 13.4 10.25 L13.4 10.2 M13.0 10.5 L15.05 11.2 15.05 11.55 14.7 11.65 14.6 11.45 12.9 10.7 Q12.75 10.4 13.0 10.5 M18.9 7.7 L22.65 11.4 Q20.35 10.1 18.9 7.75 L18.9 7.7 M7.5 17.45 Q7.95 14.3 10.25 12.2 11.5 12.25 12.55 13.05 12.75 13.55 12.45 14.05 L12.2 14.5 13.15 13.25 Q14.65 13.3 15.25 14.55 L15.25 14.85 13.25 18.95 12.8 19.65 12.35 19.85 Q11.25 19.75 10.35 19.1 L10.2 19.0 Q8.75 18.65 7.75 17.7 L7.5 17.45 M10.2 17.6 L11.0 15.85 10.8 15.6 10.4 15.65 9.75 16.5 9.35 16.35 9.35 16.15 Q9.55 15.15 10.15 14.3 L10.5 13.95 11.05 14.15 11.0 14.25 10.85 14.5 10.8 14.65 Q10.75 15.15 11.3 15.2 L12.3 13.3 11.8 12.9 Q11.1 12.5 10.2 12.5 8.8 14.35 8.2 16.6 L8.05 17.25 9.4 18.05 9.35 18.3 9.8 18.5 10.2 17.6 M10.1 27.1 L9.7 27.0 9.65 27.0 9.35 26.85 9.25 26.85 8.05 26.15 5.7 24.25 3.95 21.95 3.9 21.95 3.35 20.8 3.3 20.65 3.2 20.35 3.0 19.35 Q2.45 19.85 2.2 20.55 L2.0 21.5 Q1.95 22.7 2.6 23.75 L3.25 24.75 Q4.55 26.65 6.6 27.75 7.7 28.35 8.95 28.3 L10.3 27.85 10.95 27.3 10.1 27.1 M4.7 21.3 L4.55 20.95 4.7 20.65 Q4.8 20.5 5.0 20.5 5.2 20.5 5.35 20.65 L5.5 20.95 5.35 21.3 5.0 21.4 4.7 21.3 M3.8 20.2 L3.8 19.35 4.6 19.3 Q4.9 19.95 4.35 20.45 L3.8 20.2 M9.7 19.9 L8.8 19.5 9.85 19.6 9.7 19.9 M8.8 21.65 L8.6 22.0 7.95 21.45 8.8 21.65 M8.3 20.6 L9.15 21.0 8.95 21.3 8.2 20.9 8.3 20.6 M9.5 21.5 L9.5 21.25 9.8 21.2 10.15 21.4 10.35 21.75 10.3 22.0 10.0 22.05 9.7 21.85 9.5 21.5 M10.0 20.4 L10.85 20.8 10.65 21.25 9.75 20.85 10.0 20.4 M9.55 20.2 L9.35 20.6 8.5 20.15 8.6 19.85 9.55 20.2 M7.15 23.1 L7.3 23.4 7.25 23.7 7.0 23.75 6.7 23.55 6.55 23.25 Q6.5 23.1 6.6 23.0 L6.85 22.95 7.15 23.1 M5.85 22.75 L5.5 22.55 5.3 22.2 5.4 21.85 5.75 21.75 Q5.95 21.75 6.1 21.9 L6.3 22.3 6.2 22.6 5.85 22.75 M9.95 22.6 L9.1 22.2 9.25 21.8 10.15 22.25 9.95 22.6 M8.55 24.45 L8.45 24.8 8.1 24.9 7.8 24.8 7.65 24.45 7.8 24.15 Q7.9 24.0 8.1 24.0 8.3 24.0 8.45 24.15 L8.55 24.45 M18.0 14.2 L17.9 14.4 17.7 14.45 17.5 14.4 17.4 14.2 17.5 14.0 17.7 13.9 17.9 14.0 18.0 14.2 M17.3 13.75 L17.15 14.1 16.8 14.25 16.4 14.05 16.2 13.65 16.35 13.25 16.7 13.15 17.1 13.35 17.3 13.75 M16.0 12.7 Q16.3 13.15 15.95 13.55 L15.4 13.6 15.2 13.35 14.8 13.3 Q14.25 13.05 14.3 12.45 L14.75 12.2 15.85 12.45 16.0 12.7 M16.25 17.1 L17.0 15.35 16.05 15.0 15.0 17.35 13.75 19.95 15.35 20.5 15.6 19.95 15.05 19.5 16.25 17.1 M17.9 17.0 L15.95 21.1 17.3 21.1 18.6 19.85 18.65 19.7 19.45 18.55 19.85 17.55 Q20.05 16.85 19.65 16.6 L18.5 15.8 17.9 17.0 M18.95 17.55 Q19.15 18.95 18.0 19.8 L17.85 19.85 17.55 19.55 Q17.85 18.45 18.65 17.65 L18.95 17.55 M13.45 17.45 L14.85 14.6 14.6 14.35 Q14.05 13.8 13.35 13.75 L11.05 17.85 10.9 18.05 10.85 18.25 Q10.95 19.1 11.95 19.2 L12.35 19.2 13.45 17.45 M12.1 17.7 Q12.55 16.25 13.5 15.25 L13.55 15.25 Q13.8 15.85 13.35 16.6 L12.6 17.65 12.6 17.95 12.1 17.7 M14.3 21.65 L14.5 21.55 14.7 21.6 14.7 21.75 14.6 21.95 14.4 22.1 14.25 22.05 14.2 21.85 14.3 21.65 M13.85 21.5 L13.5 21.8 13.5 22.15 13.15 22.4 12.75 22.05 12.8 21.75 13.1 21.35 13.85 21.5 M10.25 19.85 L10.5 19.8 10.85 19.95 11.05 20.3 11.0 20.55 10.75 20.6 10.4 20.4 10.2 20.1 Q10.15 19.9 10.25 19.85 M11.35 21.0 L12.4 21.45 12.15 21.9 11.1 21.45 11.35 21.0 M11.9 22.4 L11.7 22.75 10.7 22.3 10.9 21.95 11.9 22.4 M11.45 20.85 L11.6 20.5 12.6 21.05 12.45 21.35 11.45 20.85 M10.65 22.45 L11.65 22.9 11.45 23.3 10.45 22.85 10.65 22.45 M13.95 22.2 L14.15 22.1 14.35 22.2 14.45 22.4 14.35 22.6 14.15 22.7 13.95 22.6 13.85 22.4 13.95 22.2 M12.35 23.8 L11.85 23.3 12.65 22.5 13.15 23.05 12.35 23.8 M14.05 23.2 L13.9 23.45 13.7 23.55 13.5 23.5 13.45 23.3 13.55 23.05 13.75 22.95 13.95 23.0 14.05 23.2 M13.7 23.8 L13.65 24.05 13.4 24.1 13.2 24.05 13.1 23.8 13.2 23.6 13.4 23.5 13.65 23.6 13.7 23.8 M9.45 24.95 L10.25 25.75 9.8 26.25 9.0 25.4 9.45 24.95" fill="#000066" fill-rule="evenodd" stroke="none"/>
    <path d="M26.0 6.75 L26.1 6.65 26.3 6.15 26.25 6.1 26.15 6.15 25.8 6.35 25.7 6.5 25.35 6.15 25.4 6.1 25.5 6.0 25.65 5.6 25.5 5.55 Q25.3 5.55 25.2 5.7 L25.05 5.9 24.5 5.35 24.6 5.25 24.8 4.65 24.75 4.6 24.7 4.6 24.2 5.05 23.75 4.6 24.0 4.35 24.1 3.95 23.95 3.9 23.9 3.95 23.5 4.3 23.0 3.8 23.2 3.6 23.35 3.45 23.5 3.0 23.45 3.0 23.35 3.0 22.75 3.55 22.45 3.15 22.55 3.05 22.8 2.75 23.0 2.35 22.95 2.35 22.85 2.3 22.25 2.85 22.2 2.9 22.15 2.8 22.1 2.8 22.1 2.5 22.45 2.25 Q22.6 2.0 22.9 1.85 L23.35 1.75 Q26.3 4.0 28.6 7.05 L28.5 7.25 28.25 7.55 27.75 7.85 27.6 8.05 27.5 8.0 27.4 8.0 27.35 7.95 27.6 7.75 27.75 7.35 27.6 7.3 27.1 7.75 26.75 7.45 26.9 7.3 27.0 6.8 26.8 6.8 26.5 7.1 26.45 7.2 26.0 6.75 M21.2 4.6 L21.45 4.25 21.55 4.15 21.65 3.8 21.65 3.75 21.6 3.75 21.5 3.75 21.05 4.15 20.95 4.35 20.75 4.0 20.7 4.0 20.75 3.95 21.45 3.15 21.85 3.75 22.6 4.6 22.65 4.65 22.95 5.0 24.1 6.2 24.15 6.25 24.6 6.6 25.9 7.8 27.05 8.75 27.15 8.8 27.15 8.85 27.0 9.0 26.95 8.95 Q26.85 8.9 26.8 9.0 L26.2 9.5 26.1 9.4 25.9 9.3 26.25 9.0 26.35 8.6 26.3 8.6 25.65 9.0 25.6 9.1 25.3 8.85 25.7 8.55 25.8 8.1 25.45 8.15 25.15 8.5 25.1 8.6 24.65 8.2 24.95 7.9 25.05 7.5 25.0 7.45 24.95 7.45 Q24.65 7.55 24.45 7.8 L24.35 7.9 24.2 7.8 24.05 7.65 24.3 7.4 24.45 7.0 24.2 7.0 23.8 7.4 23.15 6.75 23.3 6.6 23.45 6.5 23.6 6.0 23.5 5.95 23.45 5.95 23.0 6.3 22.9 6.45 22.3 5.85 22.65 5.55 22.75 5.15 22.45 5.2 22.2 5.45 22.05 5.6 21.95 5.5 21.7 5.2 22.1 4.85 22.2 4.4 22.15 4.4 22.05 4.4 21.5 4.9 21.45 4.95 21.2 4.6 M19.85 5.0 L20.05 5.45 Q19.6 5.5 20.1 6.15 20.6 6.85 21.25 7.05 L21.25 6.95 21.5 7.2 21.8 7.55 22.7 8.45 22.9 8.6 24.0 9.7 25.2 10.65 25.25 10.65 24.7 11.1 24.55 10.95 23.8 10.45 22.55 9.35 21.25 8.05 20.15 6.8 19.75 6.3 Q19.4 5.8 19.35 5.3 19.5 5.05 19.75 4.95 L19.85 5.0 M25.15 4.25 Q25.5 3.9 25.1 3.4 L23.35 2.1 Q23.5 2.85 24.1 3.6 L25.15 4.25" fill="#cccccc" fill-rule="evenodd" stroke="none"/>
    <path d="M25.7 6.5 L25.8 6.35 26.15 6.15 26.25 6.1 26.3 6.15 26.1 6.65 26.0 6.75 25.7 6.5 M26.45 7.2 L26.5 7.1 26.8 6.8 27.0 6.8 26.9 7.3 26.75 7.45 26.45 7.2 M27.1 7.75 L27.6 7.3 27.75 7.35 27.6 7.75 27.35 7.95 27.35 8.0 27.55 8.15 27.4 8.0 27.5 8.0 27.6 8.05 27.75 7.85 28.25 7.55 27.8 8.2 27.5 8.2 27.35 8.3 27.35 8.35 27.3 8.4 27.25 8.4 27.25 8.45 27.15 8.8 27.05 8.75 25.9 7.8 24.6 6.6 24.15 6.25 24.1 6.2 22.95 5.0 22.65 4.65 22.6 4.6 21.85 3.75 21.45 3.15 21.5 3.15 21.6 3.15 21.85 3.05 21.9 3.05 21.9 3.0 22.05 2.9 22.1 2.8 22.15 2.85 22.2 2.95 22.4 3.2 22.45 3.25 22.7 3.6 23.7 4.75 24.1 5.15 24.35 5.45 25.0 6.1 25.25 6.3 25.6 6.6 25.85 6.85 26.4 7.25 26.65 7.5 27.1 7.8 27.35 8.0 27.1 7.75 M22.2 2.9 L22.25 2.85 22.85 2.3 22.95 2.35 23.0 2.35 22.8 2.75 22.55 3.05 22.45 3.15 22.2 2.9 M22.75 3.55 L23.35 3.0 23.45 3.0 23.5 3.0 23.35 3.45 23.2 3.6 23.0 3.8 22.75 3.55 M23.5 4.3 L23.9 3.95 23.95 3.95 23.95 3.9 24.1 3.95 24.0 4.35 23.75 4.6 23.5 4.3 M24.2 5.05 L24.7 4.6 24.75 4.6 24.8 4.65 24.6 5.25 24.5 5.35 24.2 5.05 M25.05 5.9 L25.2 5.7 Q25.3 5.55 25.5 5.55 L25.65 5.6 25.5 6.0 25.4 6.1 25.35 6.15 25.05 5.9 M20.75 4.0 L20.95 4.35 21.05 4.15 21.5 3.75 21.6 3.75 21.65 3.75 21.65 3.8 21.55 4.15 21.45 4.25 21.2 4.6 21.0 4.4 20.9 4.4 21.7 5.4 22.05 5.85 22.15 5.95 22.85 6.7 22.85 6.75 22.9 6.8 22.95 6.85 23.6 7.5 23.9 7.8 23.95 7.85 24.2 8.1 24.45 8.3 24.65 8.5 25.15 8.9 25.9 9.4 25.6 9.1 25.65 9.0 26.3 8.6 26.35 8.6 26.25 9.0 25.9 9.3 26.1 9.4 26.2 9.5 26.8 9.0 Q26.85 8.9 26.95 8.95 L27.0 9.0 26.05 9.7 25.65 10.0 25.45 10.15 25.35 10.55 25.25 10.65 25.2 10.65 24.0 9.7 22.9 8.6 22.7 8.45 21.8 7.55 21.5 7.2 21.25 6.95 20.05 5.45 19.85 5.0 19.9 5.0 20.1 4.9 20.2 4.85 20.6 4.4 20.6 4.35 20.65 4.35 20.7 4.15 20.7 4.0 20.75 4.0 M21.45 4.95 L21.5 4.9 22.05 4.4 22.15 4.4 22.2 4.4 22.1 4.85 21.7 5.2 21.6 5.1 21.45 4.95 M22.05 5.6 L22.2 5.45 22.45 5.2 22.75 5.15 22.65 5.55 22.3 5.85 22.05 5.6 M22.9 6.45 L23.0 6.3 23.45 5.95 23.5 5.95 23.6 6.0 23.45 6.5 23.3 6.6 23.15 6.75 22.9 6.45 M23.8 7.4 L24.2 7.0 24.45 7.0 24.3 7.4 24.05 7.65 23.8 7.4 M24.35 7.9 L24.45 7.8 Q24.65 7.55 24.95 7.45 L25.0 7.45 25.05 7.5 24.95 7.9 24.65 8.2 24.35 7.9 M25.1 8.6 L25.15 8.5 25.45 8.15 25.8 8.1 25.7 8.55 25.3 8.85 25.1 8.6 M24.7 11.1 L24.25 11.1 Q23.7 11.0 23.1 10.4 L20.15 7.35 19.4 6.15 19.3 5.85 19.25 5.85 19.2 5.6 19.2 5.55 19.35 5.3 Q19.4 5.8 19.75 6.3 L20.15 6.8 21.25 8.05 22.55 9.35 23.8 10.45 24.55 10.95 24.7 11.1" fill="#999999" fill-rule="evenodd" stroke="none"/>
    <path d="M10.2 17.6 L9.8 18.5 9.35 18.3 9.4 18.05 8.05 17.25 8.2 16.6 10.5 16.7 9.35 17.5 10.2 17.6 M15.0 17.35 L16.25 17.1 15.05 19.5 15.6 19.95 15.35 20.5 13.75 19.95 15.0 17.35 M19.65 16.6 Q20.05 16.85 19.85 17.55 L19.45 18.55 18.65 19.7 18.6 19.85 17.3 21.1 15.95 21.1 17.9 17.0 19.65 16.6 M18.95 17.55 L18.65 17.65 Q17.85 18.45 17.55 19.55 L17.85 19.85 18.0 19.8 Q19.15 18.95 18.95 17.55 M11.05 17.85 L12.1 17.7 12.6 17.95 12.6 17.65 13.45 17.45 12.35 19.2 11.95 19.2 Q10.95 19.1 10.85 18.25 L10.9 18.05 11.05 17.85" fill="#50fefe" fill-rule="evenodd" stroke="none"/>
    <path d="M23.0 12.15 L22.8 12.15 22.55 12.05 22.05 11.65 21.85 11.45 21.5 11.15 20.5 10.2 19.25 8.9 18.6 8.0 18.25 7.35 18.65 7.55 18.7 7.55 18.9 7.4 19.05 6.95 19.35 6.85 23.45 10.95 23.4 11.3 22.85 11.45 22.75 11.6 22.85 11.8 22.85 11.85 23.0 12.15 M14.6 8.3 L14.7 8.15 Q15.05 7.8 15.55 8.0 L15.6 8.05 15.6 8.2 Q15.6 8.65 16.05 8.9 L16.7 9.1 17.75 10.15 18.4 10.85 19.05 11.55 19.8 12.25 20.7 13.2 21.9 14.35 22.5 15.15 22.55 15.3 22.2 15.85 21.85 15.65 20.65 14.8 18.45 12.95 15.5 9.7 15.4 9.55 15.35 9.5 14.75 8.55 14.7 8.5 14.6 8.3 M18.9 7.7 L18.9 7.75 Q20.35 10.1 22.65 11.4 L18.9 7.7 M3.2 20.35 L3.3 20.65 3.35 20.8 3.9 21.95 3.95 21.95 5.7 24.25 8.05 26.15 9.25 26.85 9.35 26.85 9.65 27.0 9.7 27.0 10.1 27.1 9.9 27.4 8.9 27.5 8.4 27.45 8.15 27.35 6.7 26.6 5.45 25.7 4.6 24.85 3.6 23.6 2.95 22.1 Q2.7 21.3 3.0 20.55 L3.2 20.35" fill="#312ca9" fill-rule="evenodd" stroke="none"/>
    <path d="M18.25 7.35 L18.6 8.0 19.25 8.9 20.5 10.2 21.5 11.15 21.85 11.45 22.05 11.65 22.55 12.05 22.8 12.15 23.0 12.15 Q23.3 13.0 23.25 13.8 L23.2 14.45 23.0 15.1 22.85 15.5 22.5 16.05 22.2 15.85 22.55 15.3 22.5 15.15 21.9 14.35 20.7 13.2 19.8 12.25 19.05 11.55 18.4 10.85 17.75 10.15 16.7 9.1 17.6 9.0 17.8 8.85 Q18.45 8.3 17.9 7.7 L16.0 7.55 Q15.65 7.7 15.6 8.05 L15.55 8.0 Q15.05 7.8 14.7 8.15 L14.6 8.3 14.35 7.8 14.7 7.6 Q15.3 7.25 16.0 7.1 L18.25 7.35 M3.2 20.35 L3.0 20.55 Q2.7 21.3 2.95 22.1 L3.6 23.6 4.6 24.85 5.45 25.7 6.7 26.6 8.15 27.35 8.4 27.45 8.9 27.5 9.9 27.4 10.1 27.1 10.95 27.3 10.3 27.85 8.95 28.3 Q7.7 28.35 6.6 27.75 4.55 26.65 3.25 24.75 L2.6 23.75 Q1.95 22.7 2.0 21.5 L2.2 20.55 Q2.45 19.85 3.0 19.35 L3.2 20.35" fill="#7773db" fill-rule="evenodd" stroke="none"/>
  </g>
</svg>
