<?xml version="1.0" encoding="UTF-8" standalone="no"?>
<svg xmlns:ffdec="https://www.free-decompiler.com/flash" xmlns:xlink="http://www.w3.org/1999/xlink" ffdec:objectType="shape" height="27.65px" width="27.7px" xmlns="http://www.w3.org/2000/svg">
  <g transform="matrix(1.0, 0.0, 0.0, 1.0, -1.2, -1.3)">
    <path d="M20.4 2.1 Q20.15 2.15 20.05 2.3 20.1 3.1 21.1 3.2 L21.65 3.15 21.95 2.9 Q21.45 1.95 20.4 2.1 M22.35 3.75 L27.65 8.9 27.85 8.65 Q26.85 6.9 25.3 5.5 L22.85 3.4 22.4 3.45 22.35 3.75 M25.25 5.0 L25.85 5.6 27.1 7.0 Q28.4 8.3 28.45 10.0 28.45 10.9 27.9 11.55 L27.4 11.55 26.4 11.2 26.25 11.15 25.9 10.8 25.0 10.05 24.8 9.85 23.55 8.6 23.3 8.35 20.6 5.75 19.65 4.7 18.75 3.5 Q18.35 2.65 18.85 2.1 19.4 1.75 20.2 1.75 21.85 1.75 23.2 3.05 L24.6 4.35 25.2 4.95 25.25 5.0 M8.35 22.45 L9.1 22.85 9.2 23.0 9.85 23.5 11.1 23.8 Q12.05 23.9 12.25 24.75 L14.2 26.05 12.85 25.55 12.7 25.35 11.8 24.8 11.85 24.75 11.85 24.65 Q10.7 24.0 9.4 23.7 L9.35 23.45 8.75 23.2 7.95 22.5 7.3 22.05 8.3 22.3 8.35 22.45 M7.7 20.4 Q8.1 20.4 8.3 20.7 L9.1 21.25 9.6 21.5 Q10.25 21.9 11.0 22.0 L11.2 22.25 10.65 22.85 11.9 22.8 Q12.15 22.8 12.3 23.1 L12.25 23.1 12.45 23.35 12.5 23.55 14.0 24.65 12.05 23.6 11.4 23.4 Q11.2 23.05 10.7 23.2 10.05 23.4 9.9 22.9 L10.7 22.2 9.8 22.15 7.75 21.0 6.9 20.25 7.3 20.0 Q7.1 20.35 7.7 20.4 M8.95 20.0 L9.25 20.05 9.45 20.3 13.35 22.2 13.15 22.7 14.55 23.15 14.55 23.45 Q14.25 23.65 14.1 23.35 L12.75 22.95 12.85 22.3 9.95 21.1 9.8 20.85 8.35 20.25 8.25 19.8 8.85 19.7 8.95 20.0 M11.15 25.4 L11.05 25.05 10.3 24.7 12.55 25.65 12.55 25.7 Q12.6 26.0 12.25 25.9 L11.15 25.4" fill="#666666" fill-rule="evenodd" stroke="none"/>
    <path d="M18.1 10.25 L24.1 16.25 24.2 16.35 24.2 16.45 24.15 16.45 24.1 16.55 23.9 16.75 21.7 18.95 21.65 18.65 19.4 17.35 Q18.6 17.7 18.4 18.55 L18.35 18.55 18.2 18.9 16.9 20.9 Q16.4 21.85 16.25 23.0 L16.3 23.55 16.1 23.5 Q15.35 23.4 14.8 23.9 14.65 23.95 14.55 24.1 14.4 24.3 14.4 24.55 L14.5 25.05 14.95 25.45 15.55 25.25 15.0 25.8 13.1 27.4 12.95 27.5 11.8 27.25 9.45 25.25 3.85 19.7 2.65 18.15 2.5 17.75 2.55 17.4 2.6 17.3 4.4 15.2 13.45 6.3 13.65 6.1 13.8 6.0 13.85 6.0 13.95 6.1 17.85 9.95 Q17.6 9.95 17.45 10.1 L17.25 10.5 15.35 9.9 15.25 9.75 Q14.55 8.4 13.05 8.4 L13.5 7.95 14.65 8.1 Q14.7 7.75 14.4 7.45 L13.85 7.05 Q12.9 7.25 12.35 8.1 11.85 8.9 12.4 9.6 L12.5 9.9 12.1 9.85 Q10.65 9.6 10.3 11.05 10.15 11.65 10.7 12.1 L12.8 12.0 12.95 11.75 13.8 13.75 Q14.55 13.35 15.35 13.1 L16.65 12.6 16.8 12.7 13.95 17.45 13.6 15.65 Q12.3 15.1 11.35 16.05 9.75 17.6 10.45 19.75 L10.9 20.05 Q11.9 20.0 12.65 19.35 L13.45 18.55 Q12.8 19.6 12.55 20.8 12.45 21.15 12.75 21.45 13.4 22.15 14.35 22.25 15.45 22.95 16.05 21.85 L17.2 19.95 19.1 16.5 19.95 14.8 Q20.2 14.3 19.9 13.75 19.3 12.8 18.3 12.5 L17.35 12.4 18.1 10.25 M8.5 15.05 Q8.4 16.0 7.55 16.5 L6.9 15.55 Q6.7 15.35 6.4 15.3 5.1 15.7 5.7 17.1 6.5 18.9 8.35 18.6 9.25 18.45 9.9 17.8 11.55 16.1 11.55 13.75 L11.4 13.3 Q10.85 12.4 9.9 12.55 8.65 13.4 8.5 15.05 M8.95 20.0 L8.85 19.7 8.25 19.8 8.35 20.25 9.8 20.85 9.95 21.1 12.85 22.3 12.75 22.95 14.1 23.35 Q14.25 23.65 14.55 23.45 L14.55 23.15 13.15 22.7 13.35 22.2 9.45 20.3 9.25 20.05 8.95 20.0 M7.7 20.4 Q7.1 20.35 7.3 20.0 L6.9 20.25 7.75 21.0 9.8 22.15 10.7 22.2 9.9 22.9 Q10.05 23.4 10.7 23.2 11.2 23.05 11.4 23.4 L12.05 23.6 14.0 24.65 12.5 23.55 12.45 23.35 12.25 23.1 12.3 23.1 Q12.15 22.8 11.9 22.8 L10.65 22.85 11.2 22.25 11.0 22.0 Q10.25 21.9 9.6 21.5 L9.1 21.25 8.3 20.7 Q8.1 20.4 7.7 20.4 M8.35 22.45 L8.3 22.3 7.3 22.05 7.95 22.5 8.75 23.2 9.35 23.45 9.4 23.7 Q10.7 24.0 11.85 24.65 L11.85 24.75 11.8 24.8 12.7 25.35 12.85 25.55 14.2 26.05 12.25 24.75 Q12.05 23.9 11.1 23.8 L9.85 23.5 9.2 23.0 9.1 22.85 8.35 22.45 M11.15 25.4 L12.25 25.9 Q12.6 26.0 12.55 25.7 L12.55 25.65 10.3 24.7 11.05 25.05 11.15 25.4" fill="#cccccc" fill-rule="evenodd" stroke="none"/>
    <path d="M22.35 3.75 L22.4 3.45 22.85 3.4 25.3 5.5 Q26.85 6.9 27.85 8.65 L27.65 8.9 22.35 3.75 M20.4 2.1 Q21.45 1.95 21.95 2.9 L21.65 3.15 21.1 3.2 Q20.1 3.1 20.05 2.3 20.15 2.15 20.4 2.1 M25.1 12.35 L25.15 12.4 25.05 12.5 24.8 12.75 24.5 13.1 17.1 5.7 17.45 5.35 17.7 5.15 17.75 5.05 17.85 5.1 25.1 12.35 M1.8 20.55 L2.0 20.35 2.4 20.9 9.3 27.8 9.85 28.2 9.65 28.4 8.75 28.3 1.9 21.45 Q1.35 20.95 1.8 20.55" fill="#999999" fill-rule="evenodd" stroke="none"/>
    <path d="M21.05 1.4 L21.55 1.5 21.75 1.65 22.0 1.75 22.1 1.8 23.65 3.0 25.75 5.0 26.95 6.2 28.0 7.45 28.6 8.35 28.8 9.15 Q29.2 10.75 28.2 11.9 27.3 12.9 26.0 12.75 L25.9 12.7 25.5 12.55 25.45 12.6 24.85 13.25 24.7 15.4 24.5 16.4 24.4 16.85 24.25 17.05 24.2 17.1 13.15 27.7 12.85 27.95 12.75 28.0 12.45 28.25 Q11.65 28.8 10.65 28.7 L10.35 28.6 10.2 28.55 10.05 28.6 9.75 28.85 Q9.05 29.15 8.5 28.55 L1.6 21.65 Q1.0 21.1 1.35 20.45 L1.6 20.15 1.65 20.0 1.6 19.85 1.5 19.5 Q1.35 18.5 1.95 17.7 L2.15 17.45 2.25 17.35 2.5 17.0 13.1 6.0 13.15 5.95 13.35 5.8 13.8 5.7 14.8 5.5 16.9 5.35 17.6 4.75 17.65 4.7 17.6 4.7 17.45 4.3 17.45 4.2 Q17.3 2.85 18.25 2.0 19.45 1.0 21.05 1.4 M25.25 5.0 L25.2 4.95 24.6 4.35 23.2 3.05 Q21.85 1.75 20.2 1.75 19.4 1.75 18.85 2.1 18.35 2.65 18.75 3.5 L19.65 4.7 20.6 5.75 23.3 8.35 23.55 8.6 24.8 9.85 25.0 10.05 25.9 10.8 26.25 11.15 26.4 11.2 27.4 11.55 27.9 11.55 Q28.45 10.9 28.45 10.0 28.4 8.3 27.1 7.0 L25.85 5.6 25.25 5.0 M25.1 12.35 L17.85 5.1 17.75 5.05 17.7 5.15 17.45 5.35 17.1 5.7 24.5 13.1 24.8 12.75 25.05 12.5 25.15 12.4 25.1 12.35 M24.45 13.6 L24.3 13.25 16.95 5.9 16.6 5.75 16.55 5.75 16.35 5.75 16.35 5.7 14.7 5.8 14.55 5.85 14.5 5.85 14.35 5.9 24.3 15.85 24.35 15.7 24.35 15.65 24.4 15.5 24.45 13.8 24.45 13.6 M21.7 18.95 L23.9 16.75 24.1 16.55 24.15 16.45 24.2 16.45 24.2 16.35 24.1 16.25 18.1 10.25 17.85 9.95 13.95 6.1 13.85 6.0 13.8 6.0 13.65 6.1 13.45 6.3 4.4 15.2 2.6 17.3 2.55 17.4 Q1.9 18.0 1.9 19.1 1.9 20.0 2.6 20.7 L9.55 27.55 Q10.75 28.75 12.2 28.0 L12.75 27.65 12.85 27.6 12.95 27.5 13.1 27.4 15.0 25.8 15.55 25.25 15.75 25.0 15.25 24.25 15.6 23.95 Q16.1 23.7 16.55 24.15 L17.7 23.0 17.4 22.35 17.4 21.95 17.4 21.7 Q17.9 20.1 18.95 18.85 L19.6 18.05 19.95 18.1 20.35 18.7 19.6 19.55 Q19.1 20.3 19.0 21.2 L19.05 21.7 21.7 18.95 M11.75 10.4 L11.35 10.55 11.15 11.0 11.3 11.45 11.75 11.6 Q11.95 11.6 12.15 11.4 L12.35 10.95 12.2 10.55 11.75 10.4 M12.5 10.4 L12.6 11.05 12.35 11.55 11.7 11.85 Q11.3 11.85 11.05 11.65 10.8 11.35 10.85 11.0 10.85 10.6 11.1 10.35 11.35 10.05 11.75 10.05 L12.15 10.1 12.5 10.4 M6.9 16.85 L7.0 16.55 6.7 16.1 6.25 16.15 Q6.05 16.9 6.95 17.65 L8.2 17.8 Q10.05 16.6 10.6 14.35 L10.85 13.95 10.35 13.85 10.3 13.8 9.9 14.85 Q9.4 16.75 7.9 17.5 L6.9 16.85 M7.25 16.45 L7.15 16.9 7.45 17.15 7.7 17.1 Q9.0 16.35 9.35 14.85 9.55 13.75 10.15 13.25 L11.2 13.6 11.2 13.85 10.5 15.9 Q9.85 17.25 8.65 18.1 L7.15 18.05 6.5 17.45 Q5.45 16.4 6.4 15.75 L6.7 15.85 7.1 16.15 7.2 16.3 7.25 16.45 M1.8 20.55 Q1.35 20.95 1.9 21.45 L8.75 28.3 9.65 28.4 9.85 28.2 9.3 27.8 2.4 20.9 2.0 20.35 1.8 20.55 M18.5 14.05 L18.9 14.3 19.05 14.55 Q17.7 17.7 15.9 20.65 L15.65 21.2 Q15.4 21.7 14.9 21.8 L14.5 21.55 14.35 21.1 18.5 14.05 M18.85 14.5 L18.55 14.25 15.25 20.3 14.85 21.25 14.95 21.35 18.85 14.5 M17.05 13.4 Q17.4 13.0 17.65 13.3 17.85 13.6 17.7 13.95 L17.3 14.95 Q15.8 18.15 13.75 20.95 L13.25 20.65 13.15 20.25 15.3 15.95 Q16.05 14.6 17.05 13.4 M17.5 13.4 L17.45 13.35 17.0 13.9 Q15.0 17.0 13.6 20.45 L14.05 19.85 17.0 14.65 17.5 13.4 M19.65 18.1 L17.6 21.75 18.0 22.75 18.9 21.85 18.8 21.7 Q18.55 21.3 18.65 20.9 L18.85 20.25 18.95 20.05 19.2 19.65 19.85 18.65 19.9 18.5 19.65 18.1 M12.45 16.45 Q12.0 16.65 11.7 17.0 10.65 17.95 11.2 19.25 L12.1 18.75 11.9 18.15 12.7 18.0 12.25 17.2 13.2 17.1 12.45 16.45 M13.35 17.55 L12.8 17.55 13.05 18.2 12.5 18.5 Q12.6 19.2 12.0 19.55 L11.1 19.7 Q10.65 19.4 10.65 18.9 10.5 16.9 12.35 16.05 13.25 16.05 13.45 16.95 L13.35 17.55 M15.45 24.35 L16.0 24.8 16.5 24.3 15.45 24.35" fill="#333333" fill-rule="evenodd" stroke="none"/>
    <path d="M24.45 13.6 L24.45 13.8 24.4 15.5 24.35 15.65 24.35 15.7 24.3 15.85 14.35 5.9 14.5 5.85 14.55 5.85 14.7 5.8 16.35 5.7 16.35 5.75 16.55 5.75 16.6 5.75 16.95 5.9 24.3 13.25 24.45 13.6" fill="#dddddd" fill-rule="evenodd" stroke="none"/>
    <path d="M17.35 12.4 L18.3 12.5 Q19.3 12.8 19.9 13.75 20.2 14.3 19.95 14.8 L19.1 16.5 17.2 19.95 16.05 21.85 Q15.45 22.95 14.35 22.25 13.4 22.15 12.75 21.45 12.45 21.15 12.55 20.8 12.8 19.6 13.45 18.55 L12.65 19.35 Q11.9 20.0 10.9 20.05 L10.45 19.75 Q9.75 17.6 11.35 16.05 12.3 15.1 13.6 15.65 L13.95 17.45 16.8 12.7 17.35 12.4 M12.95 11.75 L12.8 12.0 10.7 12.1 Q10.15 11.65 10.3 11.05 10.65 9.6 12.1 9.85 L12.5 9.9 13.1 11.55 13.05 11.65 13.05 11.7 12.95 11.75 M2.55 17.4 L2.5 17.75 2.65 18.15 3.85 19.7 9.45 25.25 11.8 27.25 12.95 27.5 12.85 27.6 12.75 27.65 12.2 28.0 Q10.75 28.75 9.55 27.55 L2.6 20.7 Q1.9 20.0 1.9 19.1 1.9 18.0 2.55 17.4 M15.55 25.25 L14.95 25.45 14.5 25.05 14.4 24.55 Q14.4 24.3 14.55 24.1 14.65 23.95 14.8 23.9 15.35 23.4 16.1 23.5 L16.3 23.55 16.25 23.0 Q16.4 21.85 16.9 20.9 L18.2 18.9 18.35 18.55 18.4 18.55 Q18.6 17.7 19.4 17.35 L21.65 18.65 21.7 18.95 19.05 21.7 19.0 21.2 Q19.1 20.3 19.6 19.55 L20.35 18.7 19.95 18.1 19.6 18.05 18.95 18.85 Q17.9 20.1 17.4 21.7 L17.4 21.95 17.4 22.35 17.7 23.0 16.55 24.15 Q16.1 23.7 15.6 23.95 L15.25 24.25 15.75 25.0 15.55 25.25 M12.5 10.4 L12.15 10.1 11.75 10.05 Q11.35 10.05 11.1 10.35 10.85 10.6 10.85 11.0 10.8 11.35 11.05 11.65 11.3 11.85 11.7 11.85 L12.35 11.55 12.6 11.05 12.5 10.4 M8.5 15.05 Q8.65 13.4 9.9 12.55 10.85 12.4 11.4 13.3 L11.55 13.75 Q11.55 16.1 9.9 17.8 9.25 18.45 8.35 18.6 6.5 18.9 5.7 17.1 5.1 15.7 6.4 15.3 6.7 15.35 6.9 15.55 L7.55 16.5 Q8.4 16.0 8.5 15.05 M7.25 16.45 L7.2 16.3 7.1 16.15 6.7 15.85 6.4 15.75 Q5.45 16.4 6.5 17.45 L7.15 18.05 8.65 18.1 Q9.85 17.25 10.5 15.9 L11.2 13.85 11.2 13.6 10.15 13.25 Q9.55 13.75 9.35 14.85 9.0 16.35 7.7 17.1 L7.45 17.15 7.15 16.9 7.25 16.45 M18.5 14.05 L14.35 21.1 14.5 21.55 14.9 21.8 Q15.4 21.7 15.65 21.2 L15.9 20.65 Q17.7 17.7 19.05 14.55 L18.9 14.3 18.5 14.05 M17.05 13.4 Q16.05 14.6 15.3 15.95 L13.15 20.25 13.25 20.65 13.75 20.95 Q15.8 18.15 17.3 14.95 L17.7 13.95 Q17.85 13.6 17.65 13.3 17.4 13.0 17.05 13.4 M13.35 17.55 L13.45 16.95 Q13.25 16.05 12.35 16.05 10.5 16.9 10.65 18.9 10.65 19.4 11.1 19.7 L12.0 19.55 Q12.6 19.2 12.5 18.5 L13.05 18.2 12.8 17.55 13.35 17.55" fill="#afafaf" fill-rule="evenodd" stroke="none"/>
    <path d="M11.75 10.4 L12.2 10.55 12.35 10.95 12.15 11.4 Q11.95 11.6 11.75 11.6 L11.3 11.45 11.15 11.0 11.35 10.55 11.75 10.4 M6.9 16.85 L7.9 17.5 Q9.4 16.75 9.9 14.85 L10.3 13.8 10.35 13.85 10.85 13.95 10.6 14.35 Q10.05 16.6 8.2 17.8 L6.95 17.65 Q6.05 16.9 6.25 16.15 L6.7 16.1 7.0 16.55 6.9 16.85 M18.85 14.5 L14.95 21.35 14.85 21.25 15.25 20.3 18.55 14.25 18.85 14.5 M17.5 13.4 L17.0 14.65 14.05 19.85 13.6 20.45 Q15.0 17.0 17.0 13.9 L17.45 13.35 17.5 13.4 M19.65 18.1 L19.9 18.5 19.85 18.65 19.2 19.65 18.95 20.05 18.85 20.25 18.65 20.9 Q18.55 21.3 18.8 21.7 L18.9 21.85 18.0 22.75 17.6 21.75 19.65 18.1 M12.45 16.45 L13.2 17.1 12.25 17.2 12.7 18.0 11.9 18.15 12.1 18.75 11.2 19.25 Q10.65 17.95 11.7 17.0 12.0 16.65 12.45 16.45 M15.45 24.35 L16.5 24.3 16.0 24.8 15.45 24.35" fill="#ffffff" fill-rule="evenodd" stroke="none"/>
    <path d="M16.65 12.6 L15.35 13.1 Q14.55 13.35 13.8 13.75 L12.95 11.75 13.05 11.7 13.05 11.65 13.1 11.55 12.5 9.9 12.4 9.6 13.6 10.2 13.65 10.7 14.45 11.25 14.95 11.3 15.15 11.65 Q15.5 12.1 16.05 12.05 L16.5 11.8 16.65 10.95 15.8 10.4 15.4 10.45 15.4 10.3 14.6 9.15 13.4 9.45 12.9 8.8 13.05 8.4 Q14.55 8.4 15.25 9.75 L15.35 9.9 17.25 10.5 16.65 12.6 M14.2 10.35 L14.3 10.15 14.5 10.05 14.7 10.15 14.8 10.35 14.7 10.55 14.5 10.65 14.3 10.55 14.2 10.35 M15.85 10.95 Q16.4 11.25 15.8 11.35 15.5 10.9 15.85 10.95" fill="#0099ff" fill-rule="evenodd" stroke="none"/>
    <path d="M18.1 10.25 L17.35 12.4 16.8 12.7 16.65 12.6 17.25 10.5 17.45 10.1 Q17.6 9.95 17.85 9.95 L18.1 10.25 M12.4 9.6 Q11.85 8.9 12.35 8.1 12.9 7.25 13.85 7.05 L14.4 7.45 Q14.7 7.75 14.65 8.1 L13.5 7.95 13.05 8.4 12.9 8.8 13.4 9.45 14.6 9.15 15.4 10.3 15.4 10.45 15.8 10.4 16.65 10.95 16.5 11.8 16.05 12.05 Q15.5 12.1 15.15 11.65 L14.95 11.3 14.45 11.25 13.65 10.7 13.6 10.2 12.4 9.6 M14.2 10.35 L14.3 10.55 14.5 10.65 14.7 10.55 14.8 10.35 14.7 10.15 14.5 10.05 14.3 10.15 14.2 10.35 M15.85 10.95 Q15.5 10.9 15.8 11.35 16.4 11.25 15.85 10.95" fill="#0000cc" fill-rule="evenodd" stroke="none"/>
  </g>
</svg>
