<?xml version="1.0" encoding="UTF-8" standalone="no"?>
<svg xmlns:ffdec="https://www.free-decompiler.com/flash" xmlns:xlink="http://www.w3.org/1999/xlink" ffdec:objectType="shape" height="26.6px" width="21.7px" xmlns="http://www.w3.org/2000/svg">
  <g transform="matrix(1.0, 0.0, 0.0, 1.0, -4.25, -1.95)">
    <path d="M21.45 10.85 L21.4 10.8 19.05 8.65 18.45 7.65 Q17.35 5.65 16.6 3.6 L15.65 2.75 15.6 2.6 15.25 2.35 15.1 2.25 13.8 3.45 13.6 3.6 13.35 4.35 11.75 7.65 11.15 8.65 11.1 8.75 11.05 8.8 8.55 11.05 8.6 11.7 9.1 12.1 10.3 12.85 11.2 13.45 11.8 13.7 18.4 13.7 19.05 13.45 19.9 12.85 21.6 11.7 21.65 11.05 21.45 10.85 M22.7 18.5 L22.7 18.65 22.75 18.75 25.95 23.75 25.9 23.85 24.15 27.15 21.65 27.9 20.45 28.2 20.15 28.25 15.5 28.55 15.1 28.45 14.7 28.55 10.1 28.25 9.85 28.2 8.55 27.9 7.1 27.5 6.35 27.25 6.1 27.15 4.35 23.85 4.25 23.75 4.35 23.75 7.45 18.75 7.5 18.65 7.55 18.5 11.25 15.4 11.3 15.4 11.35 15.4 11.4 15.35 11.5 14.05 10.85 13.9 8.2 11.95 8.2 10.8 10.55 8.6 13.25 3.6 13.3 3.5 15.05 1.95 15.15 1.95 16.8 3.35 16.9 3.45 17.0 3.6 19.65 8.6 22.05 10.8 22.1 11.95 19.35 13.9 18.75 14.05 18.8 15.35 18.85 15.4 18.9 15.4 19.0 15.4 22.7 18.5 M25.35 23.9 L25.35 23.85 22.35 18.95 22.25 18.85 18.75 15.8 18.25 15.9 11.9 15.9 11.5 15.8 10.0 17.15 9.95 17.15 7.95 18.85 7.9 18.95 5.05 23.65 4.9 23.85 4.95 23.95 6.4 26.75 7.1 27.1 10.05 27.75 11.25 27.9 14.9 27.9 15.1 27.9 15.35 27.9 18.95 27.9 20.15 27.75 23.15 27.1 23.8 26.75 25.35 23.95 25.35 23.9 M18.35 14.1 L18.35 14.05 15.15 14.15 15.05 14.15 11.85 14.05 11.85 14.1 11.85 14.15 11.95 15.55 Q14.35 15.35 16.7 15.5 L18.0 15.5 18.25 15.55 18.35 14.15 18.35 14.1" fill="#3a4158" fill-rule="evenodd" stroke="none"/>
    <path d="M21.4 10.8 L21.45 10.85 19.1 11.2 9.95 10.85 9.3 11.65 8.95 11.85 11.05 8.8 11.1 8.75 11.15 8.65 11.75 7.65 13.35 4.35 13.8 3.45 15.25 2.35 15.6 2.6 15.65 2.75 16.3 3.45 15.95 3.5 15.35 3.65 15.15 2.8 Q15.25 3.8 14.05 3.45 L14.95 3.85 15.0 8.95 14.1 9.2 13.3 10.55 15.1 10.55 15.2 10.8 15.25 10.15 15.8 8.8 17.0 9.2 16.6 10.5 18.35 10.55 18.5 10.7 18.7 10.95 18.8 10.8 18.15 9.5 17.85 8.9 19.75 10.75 21.4 10.8 M21.45 18.7 L21.45 18.65 19.45 18.8 19.05 18.0 18.45 16.2 19.8 18.4 21.5 18.65 21.45 18.7 M18.85 18.45 L18.95 18.8 15.35 19.1 15.4 18.3 15.35 17.3 15.45 16.25 16.05 18.4 18.85 18.45 M14.95 18.3 L14.95 18.35 14.9 19.05 11.65 18.75 11.95 18.0 14.05 18.3 14.55 18.25 14.95 18.3 M12.3 16.6 L11.15 18.8 9.1 18.5 10.15 18.85 11.15 19.2 11.2 19.2 10.2 23.4 10.1 22.6 Q10.2 21.4 10.8 20.45 L10.85 19.95 6.7 22.15 6.05 23.25 10.0 24.05 10.1 23.8 10.0 24.25 10.25 23.6 10.7 22.2 11.35 19.8 11.35 19.65 11.5 19.2 14.9 19.35 Q15.2 21.7 15.0 24.2 L15.05 24.0 15.2 23.4 15.5 20.15 15.6 19.25 17.7 19.2 19.05 20.6 Q19.85 21.8 19.45 23.15 L19.2 23.8 20.35 23.75 20.45 24.15 20.4 23.75 20.45 23.75 20.35 23.25 20.15 22.1 19.45 19.05 20.3 18.95 20.7 23.85 25.35 23.9 25.35 23.95 25.05 23.95 20.35 24.45 20.05 24.55 19.65 24.6 18.55 24.7 16.35 24.85 15.05 24.85 11.05 24.75 10.7 24.75 9.4 24.6 8.45 24.4 Q7.45 24.05 6.95 24.05 L5.65 23.8 5.05 23.65 7.9 18.95 7.95 18.85 9.95 17.15 10.0 17.15 11.4 16.15 12.3 16.6 M11.85 9.5 L10.3 10.5 11.35 10.5 11.85 9.5 M11.7 10.7 L12.8 9.05 11.65 10.65 11.7 10.7" fill="#ffffff" fill-rule="evenodd" stroke="none"/>
    <path d="M21.45 10.85 L21.65 11.05 21.6 11.7 19.9 12.85 19.05 13.45 18.4 13.7 21.45 11.6 20.05 11.6 17.25 11.6 15.15 11.65 13.7 11.65 9.5 11.65 9.3 11.65 9.95 10.85 19.1 11.2 21.45 10.85 M9.1 12.1 L8.6 11.7 8.55 11.05 11.05 8.8 8.95 11.85 9.1 12.1 M13.35 4.35 L13.6 3.6 13.8 3.45 15.1 2.25 15.25 2.35 13.8 3.45 13.35 4.35 M15.65 2.75 L16.6 3.6 Q17.35 5.65 18.45 7.65 L19.05 8.65 21.4 10.8 19.75 10.75 17.85 8.9 18.15 9.5 17.8 8.9 Q17.7 9.9 18.35 10.55 L16.6 10.5 17.0 9.2 15.8 8.8 15.25 10.15 Q15.5 7.1 15.35 3.85 L15.8 3.95 16.3 3.65 16.3 3.45 15.65 2.75 M15.1 10.55 L13.3 10.55 14.1 9.2 15.0 8.95 14.95 9.6 15.1 10.55 M20.3 18.95 L21.4 18.7 21.45 18.7 21.5 18.65 19.8 18.4 18.45 16.2 19.05 18.0 18.1 16.2 18.85 18.45 16.05 18.4 15.45 16.25 15.35 17.3 15.1 16.15 14.95 18.3 14.55 18.25 14.05 18.3 11.95 18.0 12.6 16.8 12.45 16.25 12.3 16.6 11.4 16.15 10.0 17.15 11.5 15.8 11.9 15.9 18.25 15.9 18.75 15.8 22.25 18.85 22.35 18.95 25.35 23.85 25.35 23.9 20.7 23.85 20.3 18.95 M10.2 23.4 L10.1 23.8 10.0 24.05 6.05 23.25 6.7 22.15 10.85 19.95 10.8 20.45 Q10.2 21.4 10.1 22.6 L10.2 23.4 M17.7 19.2 L19.05 19.1 20.35 23.75 19.2 23.8 19.45 23.15 Q19.85 21.8 19.05 20.6 L17.7 19.2 M20.4 23.75 L20.35 23.25 20.45 23.75 20.4 23.75 M11.85 9.5 L11.35 10.5 10.3 10.5 11.85 9.5" fill="#e4e9f5" fill-rule="evenodd" stroke="none"/>
    <path d="M18.15 9.5 L18.8 10.8 18.7 10.95 18.5 10.7 18.35 10.55 Q17.7 9.9 17.8 8.9 L18.15 9.5 M15.25 10.15 L15.2 10.8 15.1 10.55 14.95 9.6 15.0 8.95 14.95 3.85 14.05 3.45 Q15.25 3.8 15.15 2.8 L15.35 3.65 15.95 3.5 16.3 3.45 16.3 3.65 15.8 3.95 15.35 3.85 Q15.5 7.1 15.25 10.15 M21.45 18.7 L21.4 18.7 20.3 18.95 19.45 19.05 20.15 22.1 20.35 23.25 20.4 23.75 20.45 24.15 20.35 23.75 19.05 19.1 17.7 19.2 15.6 19.25 15.5 20.15 15.2 23.4 15.05 24.0 15.0 24.2 Q15.2 21.7 14.9 19.35 L11.5 19.2 11.35 19.65 11.35 19.8 10.7 22.2 10.25 23.6 10.0 24.25 10.1 23.8 10.2 23.4 11.2 19.2 11.15 19.2 10.15 18.85 9.1 18.5 11.15 18.8 12.3 16.6 12.45 16.25 12.6 16.8 11.95 18.0 11.65 18.75 14.9 19.05 14.95 18.35 14.95 18.3 15.1 16.15 15.35 17.3 15.4 18.3 15.35 19.1 18.95 18.8 18.85 18.45 18.1 16.2 19.05 18.0 19.45 18.8 21.45 18.65 21.45 18.7 M25.05 23.95 L24.0 24.15 20.9 24.85 20.6 26.75 20.6 26.8 20.3 27.3 20.15 27.35 20.05 27.3 20.05 26.7 20.45 25.0 15.2 25.3 15.35 25.7 15.4 26.15 15.25 27.55 15.2 27.65 15.0 26.4 15.0 26.2 15.05 25.3 10.0 25.0 10.5 27.25 10.0 26.1 9.75 25.0 5.9 24.15 5.75 24.05 5.65 24.0 5.55 23.85 5.65 23.8 6.95 24.05 Q7.45 24.05 8.45 24.4 L9.4 24.6 9.75 24.8 10.7 24.75 11.05 24.75 15.05 24.85 16.35 24.85 18.5 24.8 18.95 24.8 20.05 24.55 20.35 24.45 25.05 23.95 M11.7 10.7 L11.65 10.65 12.8 9.05 11.7 10.7 M9.5 11.65 L13.7 11.65 14.5 11.65 15.15 11.65 17.25 11.6 20.05 11.6 21.1 11.75 18.7 11.95 17.95 13.3 17.55 13.5 17.45 13.4 18.35 11.95 15.25 11.95 15.25 13.5 15.15 13.55 15.05 13.4 14.9 12.7 15.0 11.95 11.75 11.9 12.25 12.7 12.5 13.35 12.45 13.45 11.4 11.9 9.2 11.75 9.5 11.65 M18.35 14.1 L18.35 14.15 18.25 15.55 18.0 15.5 16.7 15.5 Q14.35 15.35 11.95 15.55 L11.85 14.15 11.85 14.1 11.85 14.05 15.05 14.15 15.15 14.15 18.35 14.05 18.35 14.1" fill="#95a7db" fill-rule="evenodd" stroke="none"/>
    <path d="M18.4 13.7 L11.8 13.7 11.2 13.45 10.3 12.85 9.1 12.1 8.95 11.85 9.3 11.65 9.5 11.65 9.2 11.75 11.4 11.9 12.45 13.45 12.5 13.35 12.25 12.7 11.75 11.9 15.0 11.95 14.9 12.7 15.05 13.4 15.15 13.55 15.25 13.5 15.25 11.95 18.35 11.95 17.45 13.4 17.55 13.5 17.95 13.3 18.7 11.95 21.1 11.75 20.05 11.6 21.45 11.6 18.4 13.7 M5.65 23.8 L5.55 23.85 5.65 24.0 5.75 24.05 5.9 24.15 9.75 25.0 10.0 26.1 10.5 27.25 10.0 25.0 15.05 25.3 15.0 26.2 15.0 26.4 15.2 27.65 15.25 27.55 15.4 26.15 15.35 25.7 15.2 25.3 20.45 25.0 20.05 26.7 20.05 27.3 20.15 27.35 20.3 27.3 20.6 26.8 20.6 26.75 20.9 24.85 24.0 24.15 25.05 23.95 25.35 23.95 23.8 26.75 23.15 27.1 20.15 27.75 18.95 27.9 15.35 27.9 15.1 27.9 14.9 27.9 11.25 27.9 10.05 27.75 7.1 27.1 6.4 26.75 4.95 23.95 4.9 23.85 5.05 23.65 5.65 23.8 M20.05 24.55 L18.95 24.8 18.5 24.8 16.35 24.85 18.55 24.7 19.65 24.6 20.05 24.55 M10.7 24.75 L9.75 24.8 9.4 24.6 10.7 24.75 M13.7 11.65 L15.15 11.65 14.5 11.65 13.7 11.65" fill="#c0cbe9" fill-rule="evenodd" stroke="none"/>
  </g>
</svg>
