<?xml version="1.0" encoding="UTF-8" standalone="no"?>
<svg xmlns:ffdec="https://www.free-decompiler.com/flash" xmlns:xlink="http://www.w3.org/1999/xlink" ffdec:objectType="shape" height="28.2px" width="22.3px" xmlns="http://www.w3.org/2000/svg">
  <g transform="matrix(1.0, 0.0, 0.0, 1.0, -3.85, -1.15)">
    <path d="M25.7 2.75 L25.85 5.2 26.1 10.3 26.15 26.3 26.1 26.4 26.05 26.55 24.95 27.55 24.8 27.6 24.55 27.55 24.4 28.65 24.2 28.95 23.7 29.1 6.3 29.35 5.35 28.6 5.15 27.4 5.05 27.4 4.95 27.6 4.1 26.85 3.95 10.0 3.95 8.9 3.95 6.9 Q3.8 4.75 3.95 2.6 L4.4 1.6 5.6 1.25 24.55 1.15 24.75 1.2 Q25.65 1.7 25.7 2.75 M25.25 8.4 L25.25 7.7 25.35 3.5 Q25.4 2.4 24.45 1.85 L5.15 1.95 4.7 2.7 4.6 3.2 4.6 8.25 4.6 9.15 24.7 9.15 24.7 9.0 25.1 8.8 25.25 8.4 M20.25 14.25 L19.7 14.35 19.75 15.6 21.15 15.8 21.5 15.35 22.35 15.2 22.65 15.6 22.7 15.8 22.65 16.1 22.6 16.35 22.1 16.6 21.85 16.8 21.55 16.75 21.1 16.6 20.65 16.9 20.15 17.35 20.25 16.7 20.55 16.2 18.8 16.05 18.9 15.95 19.3 15.7 19.25 14.3 19.1 15.5 19.05 15.7 18.65 15.35 18.5 14.9 18.35 14.3 18.2 14.2 18.6 13.3 18.8 13.5 19.05 13.8 19.25 13.85 19.4 13.65 19.65 13.85 20.4 14.1 20.25 14.25 M21.7 16.1 L22.15 15.9 22.1 15.75 21.75 15.75 21.7 16.05 21.7 16.1 M22.4 16.9 Q22.95 18.4 22.25 19.2 21.9 18.95 21.9 18.45 21.85 17.55 22.25 16.8 L22.4 16.9 M21.25 18.3 Q21.1 18.05 21.1 17.7 21.1 17.35 21.25 17.15 L21.5 16.9 Q21.65 16.9 21.8 17.15 L21.9 17.7 21.8 18.3 21.5 18.5 21.25 18.3 M20.85 20.85 L20.4 20.95 Q20.0 20.6 20.55 20.25 L21.15 20.3 21.1 20.45 20.85 20.85 M21.05 19.35 L20.2 19.35 20.2 19.1 21.05 19.1 21.05 19.35 M8.9 13.55 L9.1 15.6 9.15 17.1 9.9 17.15 Q10.4 17.3 10.5 17.55 L10.4 17.8 10.05 18.2 8.1 18.05 7.85 15.4 8.05 13.3 8.35 13.2 8.9 13.55 M9.15 20.35 L10.4 20.3 10.4 20.8 9.05 20.6 9.15 20.35 M8.9 19.2 L8.85 19.1 10.05 19.0 10.15 19.65 9.95 19.8 8.9 19.2 M15.85 15.05 L17.35 14.85 Q18.2 15.65 16.9 15.85 L16.3 15.8 16.4 16.4 17.55 16.3 17.65 16.9 17.6 17.05 16.4 17.25 Q16.45 17.9 17.5 17.75 L18.1 17.8 17.9 18.3 Q16.8 18.9 15.85 18.05 15.4 17.45 15.55 16.55 L14.4 18.1 13.9 18.0 Q12.85 16.95 12.65 15.35 L13.1 15.05 Q13.95 15.55 14.15 16.5 14.6 15.65 15.3 15.25 L15.7 15.05 15.85 15.05 M11.45 16.35 L11.1 16.35 11.0 16.45 11.0 16.5 11.2 16.9 11.4 16.95 11.65 16.7 11.45 16.35 M10.5 15.6 L12.1 15.65 Q12.65 16.1 12.7 16.85 12.3 18.45 10.7 17.85 L10.1 16.75 10.3 15.9 10.5 15.6 M16.0 19.1 L14.6 19.4 14.55 19.3 16.0 19.05 16.0 19.1 M18.65 19.05 L19.75 19.15 19.75 19.3 18.65 19.1 18.65 19.05 M10.6 20.8 L10.65 20.3 11.9 20.3 11.9 20.9 11.85 20.75 10.6 20.8 M11.85 19.45 L11.9 19.55 10.65 19.35 10.6 19.25 11.85 19.45 M14.3 20.3 L14.3 21.05 12.5 21.05 12.5 20.3 14.3 20.3 M14.1 19.15 L14.15 19.45 12.35 19.25 14.1 19.15 M14.7 20.85 L14.7 20.45 16.05 20.45 16.05 20.85 14.7 20.85 M17.95 20.25 L18.1 21.05 16.7 20.5 17.95 20.25 M18.75 21.05 L18.65 20.3 19.7 20.5 19.85 20.9 18.75 21.05 M18.0 19.05 L18.0 19.3 16.6 19.35 16.6 19.05 18.0 19.05 M6.0 28.45 L23.3 28.4 23.4 28.35 23.5 27.5 5.85 27.7 6.0 28.45 M4.75 26.25 L4.75 26.3 5.05 26.65 5.35 26.8 24.85 26.8 24.95 26.65 25.15 26.55 25.25 26.25 25.25 9.85 4.75 9.85 4.75 26.25" fill="#006600" fill-rule="evenodd" stroke="none"/>
    <path d="M23.75 3.95 L23.4 2.95 18.4 2.85 13.5 2.9 8.9 2.95 8.6 3.8 8.7 4.3 12.9 4.6 18.2 4.5 Q21.1 4.8 23.75 3.95 M4.6 8.25 L4.6 3.2 4.7 2.7 5.15 1.95 24.45 1.85 Q25.4 2.4 25.35 3.5 L25.25 7.7 25.25 8.4 22.2 8.4 13.25 8.55 4.6 8.25 M21.7 16.05 L21.75 15.75 22.1 15.75 22.15 15.9 21.7 16.1 21.7 16.05 M20.25 14.25 L20.4 14.1 19.65 13.85 19.4 13.65 19.25 13.85 19.05 13.8 18.8 13.5 18.6 13.3 18.2 14.2 18.35 14.3 18.5 14.9 18.65 15.35 19.05 15.7 19.1 15.5 19.25 14.3 19.3 15.7 18.9 15.95 18.8 16.05 20.55 16.2 20.25 16.7 20.15 17.35 20.65 16.9 21.1 16.6 21.55 16.75 21.85 16.8 22.1 16.6 22.6 16.35 22.65 16.1 22.7 15.8 22.65 15.6 22.35 15.2 21.5 15.35 21.15 15.8 19.75 15.6 19.7 14.35 20.25 14.25 M21.05 19.35 L21.05 19.1 20.2 19.1 20.2 19.35 21.05 19.35 M20.85 20.85 L21.1 20.45 21.15 20.3 20.55 20.25 Q20.0 20.6 20.4 20.95 L20.85 20.85 M21.25 18.3 L21.5 18.5 21.8 18.3 21.9 17.7 21.8 17.15 Q21.65 16.9 21.5 16.9 L21.25 17.15 Q21.1 17.35 21.1 17.7 21.1 18.05 21.25 18.3 M22.4 16.9 L22.25 16.8 Q21.85 17.55 21.9 18.45 21.9 18.95 22.25 19.2 22.95 18.4 22.4 16.9 M17.25 11.9 L20.8 12.25 Q22.4 12.5 23.85 13.05 L23.9 20.6 21.9 21.1 17.35 21.75 16.2 21.8 13.5 21.75 13.1 21.75 9.9 21.3 8.2 20.95 6.05 20.35 5.85 14.35 5.8 12.95 13.4 12.0 14.05 11.95 17.25 11.9 M5.6 3.95 Q5.6 4.4 5.9 4.7 L6.65 5.0 Q7.1 5.0 7.4 4.7 L7.7 3.95 7.4 3.2 Q7.1 2.9 6.65 2.9 6.2 2.9 5.9 3.2 5.6 3.5 5.6 3.95 M8.9 13.55 L8.35 13.2 8.05 13.3 7.85 15.4 8.1 18.05 10.05 18.2 10.4 17.8 10.5 17.55 Q10.4 17.3 9.9 17.15 L9.15 17.1 9.1 15.6 8.9 13.55 M8.9 19.2 L9.95 19.8 10.15 19.65 10.05 19.0 8.85 19.1 8.9 19.2 M9.15 20.35 L9.05 20.6 10.4 20.8 10.4 20.3 9.15 20.35 M16.0 19.05 L14.55 19.3 14.6 19.4 16.0 19.1 16.1 19.05 16.0 19.05 M10.5 15.6 L10.3 15.9 10.1 16.75 10.7 17.85 Q12.3 18.45 12.7 16.85 12.65 16.1 12.1 15.65 L10.5 15.6 M11.45 16.35 L11.65 16.7 11.4 16.95 11.2 16.9 11.0 16.5 11.0 16.45 11.1 16.35 11.45 16.35 M15.85 15.05 L15.7 15.05 15.3 15.25 Q14.6 15.65 14.15 16.5 13.95 15.55 13.1 15.05 L12.65 15.35 Q12.85 16.95 13.9 18.0 L14.4 18.1 15.55 16.55 Q15.4 17.45 15.85 18.05 16.8 18.9 17.9 18.3 L18.1 17.8 17.5 17.75 Q16.45 17.9 16.4 17.25 L17.6 17.05 17.65 16.9 17.55 16.3 16.4 16.4 16.3 15.8 16.9 15.85 Q18.2 15.65 17.35 14.85 L15.85 15.05 M14.7 20.85 L16.05 20.85 16.05 20.45 14.7 20.45 14.7 20.85 M14.1 19.15 L12.35 19.25 14.15 19.45 14.1 19.15 M14.3 20.3 L12.5 20.3 12.5 21.05 14.3 21.05 14.3 20.3 M11.85 19.45 L10.6 19.25 10.65 19.35 11.9 19.55 11.85 19.45 M10.6 20.8 L11.85 20.75 11.9 20.9 11.9 20.3 10.65 20.3 10.6 20.8 M18.65 19.1 L19.75 19.3 19.75 19.15 18.65 19.05 18.55 19.05 Q18.55 19.15 18.65 19.1 M18.0 19.05 L16.6 19.05 16.6 19.35 18.0 19.3 18.0 19.05 M18.75 21.05 L19.85 20.9 19.7 20.5 18.65 20.3 18.75 21.05 M17.95 20.25 L16.7 20.5 18.1 21.05 17.95 20.25" fill="#96ed9a" fill-rule="evenodd" stroke="none"/>
    <path d="M23.75 3.95 Q21.1 4.8 18.2 4.5 L12.9 4.6 8.7 4.3 8.6 3.8 8.9 2.95 13.5 2.9 18.4 2.85 23.4 2.95 23.75 3.95 M24.2 12.85 L24.2 12.75 24.1 12.6 20.85 11.9 19.3 11.7 15.8 11.5 14.6 11.5 14.7 11.5 8.1 12.1 5.85 12.45 Q5.45 12.55 5.2 12.9 L5.2 13.05 5.15 13.1 5.7 20.85 5.95 20.9 Q9.7 21.95 13.6 22.25 L21.6 21.6 24.4 20.8 24.55 20.9 24.1 12.95 24.15 12.9 24.2 12.85 M5.6 3.95 Q5.6 3.5 5.9 3.2 6.2 2.9 6.65 2.9 7.1 2.9 7.4 3.2 L7.7 3.95 7.4 4.7 Q7.1 5.0 6.65 5.0 L5.9 4.7 Q5.6 4.4 5.6 3.95 M4.75 26.25 L4.75 9.85 25.25 9.85 25.25 26.25 25.15 26.55 24.95 26.65 24.85 26.8 5.35 26.8 5.05 26.65 4.75 26.3 4.75 26.25" fill="#ffffff" fill-rule="evenodd" stroke="none"/>
    <path d="M4.6 8.25 L13.25 8.55 22.2 8.4 25.25 8.4 25.1 8.8 24.7 9.0 24.7 9.15 4.6 9.15 4.6 8.25" fill="#37bb47" fill-rule="evenodd" stroke="none"/>
    <path d="M24.2 12.85 L24.15 12.9 24.1 12.95 24.55 20.9 24.4 20.8 21.6 21.6 13.6 22.25 Q9.7 21.95 5.95 20.9 L5.7 20.85 5.15 13.1 5.2 13.05 5.2 12.9 Q5.45 12.55 5.85 12.45 L8.1 12.1 14.7 11.5 14.6 11.5 15.8 11.5 19.3 11.7 20.85 11.9 24.1 12.6 24.2 12.75 24.2 12.85 M16.2 21.8 L17.35 21.75 21.9 21.1 23.9 20.6 23.85 13.05 Q22.4 12.5 20.8 12.25 L17.25 11.9 15.35 11.9 14.05 11.95 13.4 12.0 8.3 12.55 5.85 12.95 5.8 12.95 5.85 14.35 6.05 20.35 8.2 20.95 13.1 21.75 13.5 21.75 15.05 21.8 16.2 21.8" fill="#666666" fill-rule="evenodd" stroke="none"/>
    <path d="M21.7 16.05 L21.7 16.1 21.7 16.05" fill="#a7d7ef" fill-rule="evenodd" stroke="none"/>
    <path d="M16.2 21.8 L15.05 21.8 13.5 21.75 16.2 21.8 M13.1 21.75 L8.2 20.95 9.9 21.3 13.1 21.75 M5.85 14.35 L5.8 12.95 5.85 12.95 8.3 12.55 13.4 12.0 5.8 12.95 5.85 14.35 M14.05 11.95 L15.35 11.9 17.25 11.9 14.05 11.95 M16.0 19.05 L16.1 19.05 16.0 19.1 16.0 19.05 M18.65 19.05 L18.65 19.1 Q18.55 19.15 18.55 19.05 L18.65 19.05" fill="#01017e" fill-rule="evenodd" stroke="none"/>
    <path d="M6.0 28.45 L5.85 27.7 23.5 27.5 23.4 28.35 23.3 28.4 6.0 28.45" fill="#cccccc" fill-rule="evenodd" stroke="none"/>
  </g>
</svg>
