<?xml version="1.0" encoding="UTF-8" standalone="no"?>
<svg xmlns:ffdec="https://www.free-decompiler.com/flash" xmlns:xlink="http://www.w3.org/1999/xlink" ffdec:objectType="shape" height="8.55px" width="4.1px" xmlns="http://www.w3.org/2000/svg">
  <g transform="matrix(1.0, 0.0, 0.0, 1.0, 2.05, 4.25)">
    <path d="M-0.35 -3.15 L-0.15 -3.3 Q0.25 -3.7 0.0 -4.15 L0.1 -4.25 0.8 -3.55 Q1.0 -2.95 1.55 -2.4 L2.05 -1.5 2.05 -1.35 1.95 -0.3 Q1.9 0.6 1.35 1.5 L0.55 2.7 -0.55 4.0 -0.8 4.3 -0.95 4.15 -1.05 3.0 -1.15 2.4 -1.15 2.35 -1.75 0.55 -2.05 -0.9 -1.95 -1.6 Q-2.15 -0.8 -1.85 0.0 L-1.35 1.3 -1.1 1.9 -0.9 2.7 Q-0.75 3.3 -0.85 3.9 L-0.8 3.9 -0.35 3.5 0.05 3.05 1.1 1.55 Q1.6 0.85 1.7 0.1 L1.45 -0.1 0.7 -1.3 0.35 1.1 0.65 1.65 0.7 1.7 0.65 1.7 0.6 1.65 0.3 1.25 0.05 2.0 -0.2 2.55 0.35 0.1 -0.55 1.0 -0.9 1.2 0.35 -0.05 0.4 -2.1 0.4 -2.15 0.35 -2.15 -1.15 -0.85 -1.15 -0.95 0.4 -2.3 0.3 -3.25 0.3 -3.45 -0.2 -3.15 -0.35 -3.15 M0.55 -3.2 L0.55 -3.25 0.55 -3.2 0.7 -1.4 1.35 -0.6 1.5 -0.3 1.7 0.05 1.75 0.2 1.85 -0.2 1.95 -0.6 1.95 -1.3 1.9 -1.4 1.35 -2.45 0.55 -3.2" fill="#006600" fill-rule="evenodd" stroke="none"/>
    <path d="M-0.35 -3.15 L-0.2 -3.15 0.3 -3.45 0.3 -3.25 0.4 -2.3 -1.15 -0.95 -1.15 -0.85 0.35 -2.15 0.4 -2.1 0.35 -0.05 -0.9 1.2 -0.55 1.0 0.35 0.1 -0.2 2.55 0.05 2.0 0.3 1.25 0.6 1.65 0.65 1.7 0.7 1.7 0.65 1.65 0.35 1.1 0.7 -1.3 1.45 -0.1 1.7 0.1 Q1.6 0.85 1.1 1.55 L0.05 3.05 -0.35 3.5 -0.8 3.9 -0.85 3.9 Q-0.75 3.3 -0.9 2.7 L-1.1 1.9 -1.35 1.3 -1.85 0.0 Q-2.15 -0.8 -1.95 -1.6 L-1.75 -2.0 Q-1.35 -2.8 -0.35 -3.15 M0.55 -3.2 L1.35 -2.45 1.9 -1.4 1.95 -1.3 1.95 -0.6 1.85 -0.2 1.75 0.2 1.7 0.05 1.5 -0.3 1.35 -0.6 0.7 -1.4 0.55 -3.2" fill="#00cc00" fill-rule="evenodd" stroke="none"/>
  </g>
</svg>
