<?xml version="1.0" encoding="UTF-8" standalone="no"?>
<svg xmlns:ffdec="https://www.free-decompiler.com/flash" xmlns:xlink="http://www.w3.org/1999/xlink" ffdec:objectType="shape" height="28.1px" width="22.3px" xmlns="http://www.w3.org/2000/svg">
  <g transform="matrix(1.0, 0.0, 0.0, 1.0, -3.85, -1.25)">
    <path d="M23.85 16.45 L22.15 16.2 16.6 15.65 11.2 15.8 5.85 16.35 5.85 16.4 5.85 21.1 10.4 21.85 11.0 21.9 16.5 22.15 20.0 21.9 23.9 21.2 23.85 16.45 M5.65 16.1 L5.85 16.05 8.1 15.85 14.7 15.45 15.8 15.45 19.3 15.6 20.85 15.75 24.1 16.15 24.15 16.25 24.05 21.3 24.0 21.4 21.6 21.85 17.4 22.25 13.6 22.25 6.0 21.4 5.55 21.4 5.6 17.45 5.65 16.1" fill="#666666" fill-rule="evenodd" stroke="none"/>
    <path d="M22.25 5.8 L19.55 4.6 17.0 3.75 15.2 3.95 Q13.85 6.55 10.8 6.55 L9.75 6.5 9.15 5.9 8.7 5.85 7.8 6.55 7.2 7.0 6.55 7.15 Q7.0 5.15 8.9 3.95 12.35 1.85 16.35 2.3 19.8 2.45 22.15 4.65 L22.6 5.25 22.25 5.8 M5.6 17.45 L5.55 21.4 6.0 21.4 13.6 22.25 17.4 22.25 21.6 21.85 24.0 21.4 24.05 21.3 24.15 16.25 24.1 16.15 20.85 15.75 19.3 15.6 15.8 15.45 14.7 15.45 8.1 15.85 5.85 16.05 5.65 16.1 5.6 17.45 M4.75 26.3 L4.75 26.25 4.75 13.05 25.25 13.05 25.25 26.25 25.15 26.55 24.95 26.65 24.85 26.8 5.35 26.8 5.05 26.65 4.75 26.3" fill="#ffffff" fill-rule="evenodd" stroke="none"/>
    <path d="M19.45 19.9 L19.8 19.9 19.45 20.0 19.45 19.9" fill="#ebf000" fill-rule="evenodd" stroke="none"/>
    <path d="M4.6 11.25 Q4.55 7.5 7.25 4.75 L9.15 3.2 Q9.95 2.7 10.85 2.4 L13.2 1.8 Q17.1 1.25 20.75 2.9 22.3 3.5 23.35 5.0 24.95 7.25 25.15 9.9 L24.45 9.55 23.2 9.85 23.95 9.45 24.2 9.25 24.45 8.95 23.85 8.25 22.3 8.7 21.9 8.35 22.85 8.15 23.25 8.3 23.55 8.0 23.8 7.7 23.95 7.5 23.5 7.05 21.25 7.6 Q20.3 6.75 18.95 6.65 17.4 7.0 16.65 8.4 L16.55 8.8 13.95 9.45 9.45 9.65 8.35 9.55 12.8 10.1 14.4 10.0 10.6 10.7 9.4 10.8 10.2 10.9 14.9 11.1 15.65 10.85 15.7 10.85 15.05 11.55 4.6 11.25 M25.2 10.2 L25.15 11.4 22.35 11.45 22.6 10.95 23.3 10.85 Q24.5 10.75 25.2 10.2 M22.25 5.8 L22.6 5.25 22.15 4.65 Q19.8 2.45 16.35 2.3 12.35 1.85 8.9 3.95 7.0 5.15 6.55 7.15 L7.2 7.0 7.8 6.55 8.7 5.85 9.15 5.9 9.75 6.5 10.8 6.55 Q13.85 6.55 15.2 3.95 L17.0 3.75 19.55 4.6 22.25 5.8 M22.1 18.35 L21.35 18.5 Q21.05 18.6 21.05 18.8 L21.35 19.15 22.1 19.25 22.85 19.15 23.15 18.8 22.85 18.5 22.1 18.35 M23.85 16.45 L23.9 21.2 20.0 21.9 16.5 22.15 11.0 21.9 10.4 21.85 5.85 21.1 5.85 16.4 5.85 16.35 11.2 15.8 16.6 15.65 22.15 16.2 23.85 16.45 M19.45 20.0 L18.7 20.1 Q18.05 19.65 18.3 18.6 L18.7 17.3 20.4 16.85 18.35 16.9 Q17.8 17.35 17.6 18.0 17.35 18.8 17.6 19.6 17.85 20.35 18.5 20.9 L19.0 21.25 20.4 20.7 20.8 21.0 21.35 20.25 21.8 20.25 22.2 21.0 22.75 20.65 22.8 20.5 22.7 20.3 23.0 19.55 21.35 19.65 Q20.6 18.65 19.4 19.05 L19.05 19.15 19.25 19.7 19.45 19.9 19.45 20.0 M7.8 16.55 L8.0 17.5 7.4 20.25 7.8 20.95 8.5 20.9 8.8 20.5 8.8 19.45 9.7 18.75 10.4 19.85 10.1 20.2 10.3 20.65 11.6 20.55 12.1 21.0 13.5 20.65 14.25 21.1 14.95 20.45 14.6 20.05 14.6 17.75 Q15.05 19.05 16.1 20.25 L16.8 20.8 17.1 17.35 17.5 16.95 16.65 16.3 16.05 16.7 16.2 18.85 15.05 16.8 14.15 16.4 Q13.4 18.05 13.65 20.15 L13.5 20.2 Q12.9 20.15 12.95 19.2 L13.0 17.2 13.4 16.75 Q12.75 16.1 12.0 16.6 L12.0 17.0 12.2 17.2 12.2 20.1 11.65 20.4 10.4 18.2 11.8 16.85 11.0 16.35 10.05 16.7 8.85 18.4 8.85 17.35 9.25 16.9 8.8 16.4 7.8 16.55" fill="#c4b74f" fill-rule="evenodd" stroke="none"/>
    <path d="M25.15 9.9 L25.2 10.2 Q24.5 10.75 23.3 10.85 L22.6 10.95 22.35 11.45 25.15 11.4 24.7 12.15 22.75 12.15 20.55 11.5 21.1 10.7 22.3 9.85 21.85 9.35 20.7 9.2 19.7 8.55 14.95 10.3 18.3 10.15 17.55 11.05 17.5 11.6 16.35 12.15 4.6 12.15 4.6 11.25 15.05 11.55 15.7 10.85 15.65 10.85 14.9 11.1 10.2 10.9 9.4 10.8 10.6 10.7 14.4 10.0 12.8 10.1 8.35 9.55 9.45 9.65 13.95 9.45 16.55 8.8 16.65 8.4 Q17.4 7.0 18.95 6.65 20.3 6.75 21.25 7.6 L23.5 7.05 23.95 7.5 23.8 7.7 23.55 8.0 23.25 8.3 22.85 8.15 21.9 8.35 22.3 8.7 23.85 8.25 24.45 8.95 24.2 9.25 23.95 9.45 23.2 9.85 24.45 9.55 25.15 9.9 M6.0 28.45 L5.85 27.7 23.5 27.5 23.4 28.35 23.3 28.4 6.0 28.45" fill="#8c8546" fill-rule="evenodd" stroke="none"/>
    <path d="M25.15 9.9 Q24.95 7.25 23.35 5.0 22.3 3.5 20.75 2.9 17.1 1.25 13.2 1.8 L10.85 2.4 Q9.95 2.7 9.15 3.2 L7.25 4.75 Q4.55 7.5 4.6 11.25 L4.6 12.15 16.35 12.15 17.5 11.6 17.55 11.05 18.3 10.15 14.95 10.3 19.7 8.55 20.7 9.2 21.85 9.35 22.3 9.85 21.1 10.7 20.55 11.5 22.75 12.15 24.7 12.15 25.15 11.4 25.2 10.2 25.15 9.9 M26.0 9.6 L26.1 13.05 26.15 26.3 26.1 26.4 26.05 26.55 24.95 27.55 24.8 27.6 24.55 27.55 24.4 28.65 24.2 28.95 23.7 29.1 6.3 29.35 5.35 28.6 5.15 27.4 5.05 27.4 4.95 27.6 4.1 26.85 3.95 13.05 Q3.5 9.25 5.55 6.0 7.75 2.5 11.75 1.6 15.4 0.85 18.85 1.65 22.45 2.6 24.65 5.7 25.9 7.5 26.0 9.6 M22.1 18.35 L22.85 18.5 23.15 18.8 22.85 19.15 22.1 19.25 21.35 19.15 21.05 18.8 Q21.05 18.6 21.35 18.5 L22.1 18.35 M19.45 19.9 L19.25 19.7 19.05 19.15 19.4 19.05 Q20.6 18.65 21.35 19.65 L23.0 19.55 22.7 20.3 22.8 20.5 22.75 20.65 22.2 21.0 21.8 20.25 21.35 20.25 20.8 21.0 20.4 20.7 19.0 21.25 18.5 20.9 Q17.85 20.35 17.6 19.6 17.35 18.8 17.6 18.0 17.8 17.35 18.35 16.9 L20.4 16.85 18.7 17.3 18.3 18.6 Q18.05 19.65 18.7 20.1 L19.45 20.0 19.8 19.9 19.45 19.9 M7.8 16.55 L8.8 16.4 9.25 16.9 8.85 17.35 8.85 18.4 10.05 16.7 11.0 16.35 11.8 16.85 10.4 18.2 11.65 20.4 12.2 20.1 12.2 17.2 12.0 17.0 12.0 16.6 Q12.75 16.1 13.4 16.75 L13.0 17.2 12.95 19.2 Q12.9 20.15 13.5 20.2 L13.65 20.15 Q13.4 18.05 14.15 16.4 L15.05 16.8 16.2 18.85 16.05 16.7 16.65 16.3 17.5 16.95 17.1 17.35 16.8 20.8 16.1 20.25 Q15.05 19.05 14.6 17.75 L14.6 20.05 14.95 20.45 14.25 21.1 13.5 20.65 12.1 21.0 11.6 20.55 10.3 20.65 10.1 20.2 10.4 19.85 9.7 18.75 8.8 19.45 8.8 20.5 8.5 20.9 7.8 20.95 7.4 20.25 8.0 17.5 7.8 16.55 M6.0 28.45 L23.3 28.4 23.4 28.35 23.5 27.5 5.85 27.7 6.0 28.45 M4.75 26.3 L5.05 26.65 5.35 26.8 24.85 26.8 24.95 26.65 25.15 26.55 25.25 26.25 25.25 13.05 4.75 13.05 4.75 26.25 4.75 26.3" fill="#4b4725" fill-rule="evenodd" stroke="none"/>
  </g>
</svg>
