<?xml version="1.0" encoding="UTF-8" standalone="no"?>
<svg xmlns:ffdec="https://www.free-decompiler.com/flash" xmlns:xlink="http://www.w3.org/1999/xlink" ffdec:objectType="shape" height="28.2px" width="28.15px" xmlns="http://www.w3.org/2000/svg">
  <g transform="matrix(1.0, 0.0, 0.0, 1.0, -0.95, -1.05)">
    <path d="M20.75 3.0 L20.85 2.85 21.05 2.75 21.2 2.8 21.25 3.0 21.2 3.2 21.0 3.25 20.8 3.2 20.75 3.0 M23.3 5.7 L23.4 5.55 23.55 5.45 23.7 5.5 23.75 5.65 23.7 5.85 23.55 5.9 23.4 5.85 23.3 5.7 M22.7 5.2 L22.65 5.0 22.7 4.8 22.9 4.7 23.1 4.8 23.2 5.0 23.1 5.2 22.9 5.25 22.7 5.2 M22.05 4.5 L22.0 4.35 22.05 4.15 22.25 4.05 22.45 4.15 22.5 4.3 22.45 4.5 22.25 4.6 22.05 4.5 M21.75 3.55 L21.7 3.75 21.5 3.8 21.35 3.75 21.25 3.55 21.35 3.4 Q21.4 3.3 21.5 3.3 L21.7 3.4 21.75 3.55 M23.85 5.85 L24.35 6.4 24.25 6.55 23.7 6.0 23.85 5.85 M24.7 6.85 L24.55 6.95 24.4 6.85 24.35 6.7 24.4 6.55 24.55 6.5 24.75 6.55 24.8 6.7 24.7 6.85 M25.1 7.2 Q25.15 7.1 25.3 7.1 L25.45 7.15 25.55 7.35 25.45 7.55 25.25 7.6 25.05 7.55 25.0 7.35 25.1 7.2 M26.15 7.8 L26.2 8.0 26.1 8.2 25.95 8.25 25.75 8.2 25.7 8.05 Q25.65 7.9 25.75 7.85 L25.95 7.75 26.15 7.8 M26.45 8.75 L26.55 8.55 26.7 8.5 26.85 8.55 26.95 8.75 26.85 8.9 26.7 9.0 26.5 8.9 26.45 8.75 M27.05 9.05 L27.25 8.95 27.45 9.05 27.5 9.25 27.45 9.45 27.25 9.5 27.05 9.45 27.0 9.25 Q26.95 9.1 27.05 9.05" fill="#666666" fill-rule="evenodd" stroke="none"/>
    <path d="M3.25 20.45 L5.25 22.7 7.5 24.85 9.7 26.95 7.95 28.3 1.6 22.05 3.25 20.45" fill="#6060ff" fill-rule="evenodd" stroke="none"/>
    <path d="M20.75 3.0 L20.8 3.2 21.0 3.25 21.2 3.2 21.25 3.0 21.2 2.8 21.05 2.75 20.85 2.85 20.75 3.0 M15.25 6.65 L20.1 2.3 20.15 2.55 20.25 2.65 20.6 2.6 20.4 2.05 21.25 1.65 28.55 8.75 28.6 9.2 28.25 9.8 27.65 9.65 27.65 9.9 27.45 9.85 15.25 6.65 M27.9 10.15 L27.9 10.2 27.8 10.3 27.9 10.15 M27.65 10.5 L27.3 10.85 17.9 8.15 14.4 7.45 14.85 7.05 Q19.65 8.0 24.35 9.45 L27.65 10.5 M21.0 17.9 L20.4 18.55 4.85 16.1 5.45 15.3 14.9 17.2 21.0 17.9 M20.15 18.9 L16.95 22.6 16.05 23.75 14.95 24.85 13.45 25.65 10.0 22.5 4.65 16.6 4.7 16.45 4.75 16.4 20.15 18.9 M21.75 3.55 L21.7 3.4 21.5 3.3 Q21.4 3.3 21.35 3.4 L21.25 3.55 21.35 3.75 21.5 3.8 21.7 3.75 21.75 3.55 M22.05 4.5 L22.25 4.6 22.45 4.5 22.5 4.3 22.45 4.15 22.25 4.05 22.05 4.15 22.0 4.35 22.05 4.5 M22.7 5.2 L22.9 5.25 23.1 5.2 23.2 5.0 23.1 4.8 22.9 4.7 22.7 4.8 22.65 5.0 22.7 5.2 M23.3 5.7 L23.4 5.85 23.55 5.9 23.7 5.85 23.75 5.65 23.7 5.5 23.55 5.45 23.4 5.55 23.3 5.7 M25.1 7.2 L25.0 7.35 25.05 7.55 25.25 7.6 25.45 7.55 25.55 7.35 25.45 7.15 25.3 7.1 Q25.15 7.1 25.1 7.2 M24.7 6.85 L24.8 6.7 24.75 6.55 24.55 6.5 24.4 6.55 24.35 6.7 24.4 6.85 24.55 6.95 24.7 6.85 M23.85 5.85 L23.7 6.0 24.25 6.55 24.35 6.4 23.85 5.85 M22.2 6.65 Q22.05 6.65 21.9 6.8 L21.7 7.15 21.8 7.4 22.05 7.5 22.35 7.3 22.55 7.0 22.45 6.7 22.2 6.65 M21.55 6.5 L21.3 6.4 21.0 6.55 20.85 6.85 20.95 7.1 21.2 7.2 21.5 7.05 21.65 6.75 21.55 6.5 M20.85 10.8 L20.05 10.8 19.5 10.8 20.6 11.1 19.95 12.0 18.75 11.95 19.8 12.3 19.35 13.0 18.3 12.95 17.35 12.75 19.15 9.6 21.2 10.25 20.85 10.8 M24.35 11.35 L25.1 11.5 23.0 14.35 21.95 14.1 22.1 12.85 21.35 13.85 20.3 13.7 22.35 10.8 23.5 11.4 23.5 12.35 24.35 11.35 M27.05 9.05 Q26.95 9.1 27.0 9.25 L27.05 9.45 27.25 9.5 27.45 9.45 27.5 9.25 27.45 9.05 27.25 8.95 27.05 9.05 M26.45 8.75 L26.5 8.9 26.7 9.0 26.85 8.9 26.95 8.75 26.85 8.55 26.7 8.5 26.55 8.55 26.45 8.75 M26.15 7.8 L25.95 7.75 25.75 7.85 Q25.65 7.9 25.7 8.05 L25.75 8.2 25.95 8.25 26.1 8.2 26.2 8.0 26.15 7.8 M16.65 6.0 L16.7 6.25 16.95 6.3 17.3 6.1 17.5 5.75 17.45 5.5 17.2 5.45 Q17.0 5.5 16.85 5.65 L16.65 6.0 M17.45 6.2 L17.55 6.5 17.85 6.55 18.15 6.35 18.35 6.0 18.3 5.7 18.0 5.65 Q17.8 5.7 17.65 5.85 L17.45 6.2 M18.8 5.95 L18.4 6.2 18.2 6.6 Q18.15 6.8 18.25 6.9 L18.55 7.0 18.95 6.75 19.2 6.35 19.1 6.05 18.8 5.95 M13.75 11.7 L13.65 11.0 13.0 11.8 12.1 11.7 13.95 8.45 15.25 8.65 15.35 10.15 16.65 9.1 18.2 9.45 16.35 12.55 15.6 11.95 15.7 11.55 15.65 11.25 14.5 12.05 13.75 11.7 M19.9 7.1 Q21.55 6.65 20.15 6.5 18.75 5.95 19.8 6.9 L19.9 7.1 M15.1 13.9 L14.6 13.85 10.15 13.05 10.65 12.55 15.1 13.9 M14.1 14.2 L14.95 14.5 14.2 14.45 11.8 13.9 11.6 13.8 14.1 14.2 M13.5 18.95 L13.35 19.25 14.1 19.85 Q14.75 18.8 13.9 18.75 13.65 18.8 13.5 18.95 M14.7 19.55 L14.85 20.0 15.25 20.15 15.7 19.9 15.95 19.5 15.8 19.05 15.35 18.9 Q15.1 18.95 14.95 19.15 L14.7 19.55 M18.5 19.4 L18.1 19.25 17.65 19.45 17.45 19.9 17.6 20.3 18.0 20.45 18.45 20.25 18.65 19.8 18.5 19.4 M16.7 19.3 L16.3 19.45 16.15 19.8 16.3 20.2 16.65 20.3 17.05 20.15 17.2 19.75 17.05 19.4 16.7 19.3" fill="#ffffff" fill-rule="evenodd" stroke="none"/>
    <path d="M27.65 9.9 L27.9 10.15 27.8 10.3 27.65 10.5 24.35 9.45 Q19.65 8.0 14.85 7.05 L15.25 6.65 27.45 9.85 27.65 9.9 M27.3 10.85 L21.0 17.9 14.9 17.2 5.45 15.3 14.4 7.45 17.9 8.15 27.3 10.85 M20.4 18.55 L20.15 18.9 4.75 16.4 4.85 16.1 20.4 18.55 M21.55 6.5 L21.65 6.75 21.5 7.05 21.2 7.2 20.95 7.1 20.85 6.85 21.0 6.55 21.3 6.4 21.55 6.5 M22.2 6.65 L22.45 6.7 22.55 7.0 22.35 7.3 22.05 7.5 21.8 7.4 21.7 7.15 21.9 6.8 Q22.05 6.65 22.2 6.65 M21.4 10.1 L19.05 9.4 Q17.95 10.6 17.3 12.15 L17.0 13.1 18.25 13.4 19.6 13.55 21.65 10.5 21.4 10.1 M25.3 11.45 Q23.85 10.75 22.25 10.4 L19.95 13.75 23.1 14.9 25.25 11.7 25.3 11.45 M20.5 14.9 L20.45 14.65 20.25 14.6 20.0 14.7 19.9 14.9 20.0 15.15 20.2 15.2 20.45 15.1 20.5 14.9 M21.3 14.95 L21.15 14.9 20.95 14.95 Q20.85 15.0 20.9 15.1 L21.0 15.3 21.15 15.35 21.3 15.3 21.35 15.15 21.3 14.95 M20.9 16.05 L21.05 16.2 21.25 16.0 21.1 15.85 20.9 16.05 M20.4 15.55 L20.05 15.95 20.35 16.25 20.75 15.9 20.4 15.55 M18.8 5.95 L19.1 6.05 19.2 6.35 18.95 6.75 18.55 7.0 18.25 6.9 Q18.15 6.8 18.2 6.6 L18.4 6.2 18.8 5.95 M17.45 6.2 L17.65 5.85 Q17.8 5.7 18.0 5.65 L18.3 5.7 18.35 6.0 18.15 6.35 17.85 6.55 17.55 6.5 17.45 6.2 M16.65 6.0 L16.85 5.65 Q17.0 5.5 17.2 5.45 L17.45 5.5 17.5 5.75 17.3 6.1 16.95 6.3 16.7 6.25 16.65 6.0 M12.4 11.95 L13.15 12.3 13.85 12.5 14.55 12.5 14.75 12.45 14.8 12.5 15.2 12.9 16.5 12.9 18.6 9.4 18.6 9.2 16.45 8.7 15.55 9.45 15.65 8.6 13.95 8.15 11.95 11.85 Q11.85 11.9 11.9 12.1 L12.4 11.95 M19.9 7.1 L19.8 6.9 Q18.75 5.95 20.15 6.5 21.55 6.65 19.9 7.1 M18.45 14.35 L18.35 14.6 18.4 14.8 18.65 14.85 18.85 14.8 18.95 14.55 18.9 14.35 18.65 14.25 18.45 14.35 M18.3 14.25 L18.2 13.95 17.9 13.85 Q17.7 13.85 17.55 14.05 17.4 14.15 17.4 14.35 L17.5 14.65 17.8 14.75 18.15 14.6 18.3 14.25 M19.3 14.35 L19.05 14.9 19.65 14.75 19.3 14.35 M19.25 15.8 Q19.4 16.2 19.75 15.9 19.95 15.15 18.85 15.5 L18.8 15.7 19.25 15.8 M14.1 14.2 L11.6 13.8 11.8 13.9 14.2 14.45 14.95 14.5 14.1 14.2 M15.1 13.9 L10.65 12.55 10.15 13.05 14.6 13.85 15.1 13.9 M16.7 19.3 L17.05 19.4 17.2 19.75 17.05 20.15 16.65 20.3 16.3 20.2 16.15 19.8 16.3 19.45 16.7 19.3 M18.5 19.4 L18.65 19.8 18.45 20.25 18.0 20.45 17.6 20.3 17.45 19.9 17.65 19.45 18.1 19.25 18.5 19.4 M14.7 19.55 L14.95 19.15 Q15.1 18.95 15.35 18.9 L15.8 19.05 15.95 19.5 15.7 19.9 15.25 20.15 14.85 20.0 14.7 19.55 M13.5 18.95 Q13.65 18.8 13.9 18.75 14.75 18.8 14.1 19.85 L13.35 19.25 13.5 18.95" fill="#7a7afe" fill-rule="evenodd" stroke="none"/>
    <path d="M20.85 10.8 L21.2 10.25 19.15 9.6 17.35 12.75 18.3 12.95 19.35 13.0 19.8 12.3 18.75 11.95 19.95 12.0 20.6 11.1 19.5 10.8 20.05 10.8 20.85 10.8 M25.3 11.45 L25.25 11.7 23.1 14.9 19.95 13.75 22.25 10.4 Q23.85 10.75 25.3 11.45 M21.4 10.1 L21.65 10.5 19.6 13.55 18.25 13.4 17.0 13.1 17.3 12.15 Q17.95 10.6 19.05 9.4 L21.4 10.1 M24.35 11.35 L23.5 12.35 23.5 11.4 22.35 10.8 20.3 13.7 21.35 13.85 22.1 12.85 21.95 14.1 23.0 14.35 25.1 11.5 24.35 11.35 M20.4 15.55 L20.75 15.9 20.35 16.25 20.05 15.95 20.4 15.55 M20.9 16.05 L21.1 15.85 21.25 16.0 21.05 16.2 20.9 16.05 M21.3 14.95 L21.35 15.15 21.3 15.3 21.15 15.35 21.0 15.3 20.9 15.1 Q20.85 15.0 20.95 14.95 L21.15 14.9 21.3 14.95 M20.5 14.9 L20.45 15.1 20.2 15.2 20.0 15.15 19.9 14.9 20.0 14.7 20.25 14.6 20.45 14.65 20.5 14.9 M12.4 11.95 L11.9 12.1 Q11.85 11.9 11.95 11.85 L13.95 8.15 15.65 8.6 15.55 9.45 16.45 8.7 18.6 9.2 18.6 9.4 16.5 12.9 15.2 12.9 14.8 12.5 14.75 12.45 14.55 12.5 13.85 12.5 13.15 12.3 12.4 11.95 M13.75 11.7 L14.5 12.05 15.65 11.25 15.7 11.55 15.6 11.95 16.35 12.55 18.2 9.45 16.65 9.1 15.35 10.15 15.25 8.65 13.95 8.45 12.1 11.7 13.0 11.8 13.65 11.0 13.75 11.7 M19.25 15.8 L18.8 15.7 18.85 15.5 Q19.95 15.15 19.75 15.9 19.4 16.2 19.25 15.8 M19.3 14.35 L19.65 14.75 19.05 14.9 19.3 14.35 M18.3 14.25 L18.15 14.6 17.8 14.75 17.5 14.65 17.4 14.35 Q17.4 14.15 17.55 14.05 17.7 13.85 17.9 13.85 L18.2 13.95 18.3 14.25 M18.45 14.35 L18.65 14.25 18.9 14.35 18.95 14.55 18.85 14.8 18.65 14.85 18.4 14.8 18.35 14.6 18.45 14.35" fill="#000000" fill-rule="evenodd" stroke="none"/>
    <path d="M13.45 25.65 L13.15 25.75 10.0 22.5 13.45 25.65 M4.45 17.3 L4.45 17.2 8.1 21.1 Q6.05 19.55 4.45 17.3" fill="#c8c5d1" fill-rule="evenodd" stroke="none"/>
    <path d="M13.15 25.75 L11.55 25.75 11.25 25.75 6.4 20.8 4.9 19.2 4.7 18.8 4.55 18.35 4.45 17.3 Q6.05 19.55 8.1 21.1 L4.45 17.2 4.65 16.6 10.0 22.5 13.15 25.75" fill="#c5c1d5" fill-rule="evenodd" stroke="none"/>
    <path d="M3.25 20.45 L4.0 19.9 4.3 19.85 5.8 21.45 10.45 26.3 9.7 26.95 7.5 24.85 5.25 22.7 3.25 20.45 M7.95 28.3 L7.55 28.65 1.85 22.95 1.65 22.7 1.6 22.05 7.95 28.3" fill="#0102a9" fill-rule="evenodd" stroke="none"/>
    <path d="M27.65 9.9 L27.65 9.65 28.25 9.8 28.6 9.2 28.55 8.75 21.25 1.65 20.4 2.05 20.6 2.6 20.25 2.65 20.15 2.55 20.1 2.3 15.25 6.65 14.85 7.05 14.4 7.45 5.45 15.3 4.85 16.1 4.75 16.4 4.7 16.45 4.65 16.6 4.45 17.2 4.45 17.3 4.55 18.35 4.7 18.8 4.9 19.2 6.4 20.8 11.25 25.75 11.55 25.75 13.15 25.75 13.45 25.65 14.95 24.85 16.05 23.75 16.95 22.6 20.15 18.9 20.4 18.55 21.0 17.9 27.3 10.85 27.65 10.5 27.8 10.3 27.9 10.2 27.9 10.15 27.65 9.9 M21.9 1.6 L29.1 8.8 Q29.15 9.6 28.5 10.35 L28.25 10.6 17.55 22.5 15.05 25.05 14.3 25.75 13.85 26.15 13.65 26.25 13.35 26.45 12.85 26.6 11.15 26.4 8.0 29.25 7.15 28.95 1.3 23.3 1.2 23.25 1.1 22.95 1.0 22.5 Q0.9 22.2 1.2 21.9 L3.5 19.4 3.85 19.1 3.6 18.45 Q3.45 18.1 3.6 17.65 L3.6 17.55 3.7 17.35 4.25 16.45 4.6 16.0 4.75 15.8 Q8.05 12.0 12.0 8.75 15.15 6.2 18.05 3.45 L19.85 1.85 21.1 1.05 21.7 1.35 21.9 1.6 M9.7 26.95 L10.45 26.3 5.8 21.45 4.3 19.85 4.0 19.9 3.25 20.45 1.6 22.05 1.65 22.7 1.85 22.95 7.55 28.65 7.95 28.3 9.7 26.95" fill="#020382" fill-rule="evenodd" stroke="none"/>
  </g>
</svg>
