<?xml version="1.0" encoding="UTF-8" standalone="no"?>
<svg xmlns:ffdec="https://www.free-decompiler.com/flash" xmlns:xlink="http://www.w3.org/1999/xlink" ffdec:objectType="shape" height="27.95px" width="17.1px" xmlns="http://www.w3.org/2000/svg">
  <g transform="matrix(1.0, 0.0, 0.0, 1.0, -6.65, -1.25)">
    <path d="M20.55 3.2 L20.55 2.95 Q14.85 2.3 9.75 3.15 L9.95 5.95 10.65 5.95 11.55 5.9 11.75 5.85 12.25 5.85 18.9 5.8 19.65 5.85 20.3 5.85 20.55 3.2 M20.4 6.0 L20.45 6.05 20.45 6.0 20.4 6.0 M22.9 27.25 L23.45 12.8 22.3 12.2 21.8 11.55 20.45 10.7 16.5 10.9 13.9 10.9 9.95 10.7 9.6 11.2 13.75 11.3 16.6 11.3 20.2 11.25 16.6 11.5 13.75 11.5 8.9 11.6 13.8 11.6 16.5 11.6 21.35 11.7 16.1 11.95 14.1 12.0 8.65 11.65 8.4 12.05 14.65 12.3 16.2 12.3 21.95 12.2 16.2 12.4 14.6 12.4 7.55 12.25 6.95 12.65 7.3 26.75 8.45 27.85 8.8 28.0 Q15.8 30.4 22.45 27.5 L22.9 27.25 M15.85 13.15 L22.85 12.8 15.75 13.3 14.65 13.3 7.3 12.7 14.65 13.15 15.85 13.15 M21.05 10.7 L22.6 11.9 23.75 12.45 23.4 27.1 Q21.55 29.1 18.45 29.05 14.05 29.55 9.85 28.4 L6.8 27.3 6.65 12.85 10.9 9.3 10.9 6.45 9.6 6.1 9.45 2.9 11.1 1.5 18.8 1.25 20.8 2.6 20.6 6.2 19.75 6.4 19.55 9.2 20.9 10.3 21.05 10.7 M16.55 2.0 L16.7 2.0 18.55 2.35 20.25 2.4 18.95 1.85 18.6 1.55 11.4 1.75 10.7 2.25 9.9 2.7 15.3 2.45 11.85 2.5 11.8 2.35 12.2 2.0 16.55 2.0 M14.7 9.1 L14.7 6.3 11.2 6.3 11.2 9.1 14.7 9.1 M13.35 9.8 L11.05 9.7 10.8 10.1 13.5 10.25 17.3 10.2 19.35 9.85 16.95 9.75 13.35 9.8 M13.65 10.4 L10.5 10.15 10.15 10.65 13.65 10.7 14.0 10.75 17.15 10.7 20.35 10.4 17.35 10.35 13.65 10.4 M13.35 9.7 L16.9 9.6 19.05 9.5 16.45 9.45 13.7 9.4 11.4 9.45 13.35 9.7 M15.8 9.1 L15.9 7.65 15.6 6.3 15.8 9.1 M19.4 6.35 L18.15 6.35 18.15 9.05 19.4 9.05 19.4 6.35" fill="#666666" fill-rule="evenodd" stroke="none"/>
    <path d="M20.55 3.2 L20.3 5.85 19.65 5.85 20.55 3.2 M18.9 5.8 L12.25 5.85 12.25 3.35 18.9 3.1 18.9 5.8 M11.75 5.85 L11.55 5.9 11.7 3.05 11.75 5.85 M10.65 5.95 L9.95 5.95 9.75 3.15 10.4 3.15 10.65 5.95 M18.95 1.85 L20.25 2.4 18.55 2.35 16.7 2.0 16.55 2.0 18.95 1.85 M12.2 2.0 L11.8 2.35 11.85 2.5 15.3 2.45 9.9 2.7 10.7 2.25 11.5 1.95 12.2 2.0 M14.7 9.1 L11.2 9.1 11.2 6.3 14.7 6.3 14.7 9.1 M19.4 6.35 L19.4 9.05 18.15 9.05 18.15 6.35 19.4 6.35 M15.8 9.1 L15.6 6.3 15.9 7.65 15.8 9.1" fill="#cccccc" fill-rule="evenodd" stroke="none"/>
    <path d="M9.75 3.15 Q14.85 2.3 20.55 2.95 L20.55 3.2 19.65 5.85 18.9 5.8 18.9 3.1 12.25 3.35 12.25 5.85 11.75 5.85 11.7 3.05 11.55 5.9 10.65 5.95 10.4 3.15 9.75 3.15 M15.7 13.6 L22.8 13.05 Q23.05 18.15 22.8 23.25 22.75 24.15 22.15 24.8 L20.6 24.7 20.35 14.1 15.45 14.4 14.7 14.35 9.5 14.05 9.3 16.15 7.65 16.3 7.75 13.3 14.75 13.6 15.7 13.6 M18.95 1.85 L16.55 2.0 12.2 2.0 11.5 1.95 10.7 2.25 11.4 1.75 18.6 1.55 18.95 1.85 M13.65 10.7 L14.0 10.7 14.0 10.75 13.65 10.7" fill="#ffffff" fill-rule="evenodd" stroke="none"/>
    <path d="M16.5 10.9 L20.45 10.7 21.8 11.55 22.3 12.2 23.45 12.8 22.9 27.25 16.25 27.95 Q12.05 28.3 8.55 26.95 L8.65 26.85 8.9 26.7 Q13.0 25.15 17.35 25.8 18.95 25.7 20.4 26.45 L21.5 27.1 22.25 26.95 Q22.25 26.2 21.35 25.95 L13.45 25.3 Q9.7 24.95 7.3 26.75 L6.95 12.65 7.55 12.25 14.6 12.4 14.65 13.15 7.3 12.7 14.65 13.3 14.75 13.6 7.75 13.3 7.65 16.3 9.3 16.15 9.5 14.05 14.7 14.35 15.1 18.05 15.45 14.4 20.35 14.1 20.6 24.7 22.15 24.8 Q22.75 24.15 22.8 23.25 23.05 18.15 22.8 13.05 L15.7 13.6 15.75 13.3 22.85 12.8 15.85 13.15 16.2 12.4 21.95 12.2 16.2 12.3 16.1 11.95 21.35 11.7 16.5 11.6 16.6 11.5 20.2 11.25 16.6 11.3 16.5 10.9 M13.5 10.25 L10.8 10.1 11.05 9.7 13.35 9.8 13.5 10.25 M16.95 9.75 L19.35 9.85 17.3 10.2 16.95 9.75 M13.65 10.7 L10.15 10.65 10.5 10.15 13.65 10.4 14.0 10.7 13.65 10.7 M17.35 10.35 L20.35 10.4 17.15 10.7 17.35 10.35 M13.7 9.4 L13.35 9.7 11.4 9.45 13.7 9.4 M16.9 9.6 L16.45 9.45 19.05 9.5 16.9 9.6 M13.9 10.9 L13.75 11.3 9.6 11.2 9.95 10.7 13.9 10.9 M13.75 11.5 L13.8 11.6 8.9 11.6 13.75 11.5 M14.1 12.0 L14.65 12.3 8.4 12.05 8.65 11.65 14.1 12.0" fill="#acd0e3" fill-rule="evenodd" stroke="none"/>
    <path d="M16.5 10.9 L16.6 11.3 13.75 11.3 13.9 10.9 16.5 10.9 M16.6 11.5 L16.5 11.6 13.8 11.6 13.75 11.5 16.6 11.5 M16.1 11.95 L16.2 12.3 14.65 12.3 14.1 12.0 16.1 11.95 M16.2 12.4 L15.85 13.15 14.65 13.15 14.6 12.4 16.2 12.4 M15.75 13.3 L15.7 13.6 14.75 13.6 14.65 13.3 15.75 13.3 M15.45 14.4 L15.1 18.05 14.7 14.35 15.45 14.4 M7.3 26.75 Q9.7 24.95 13.45 25.3 L21.35 25.95 Q22.25 26.2 22.25 26.95 L21.5 27.1 20.4 26.45 Q18.95 25.7 17.35 25.8 13.0 25.15 8.9 26.7 L8.65 26.85 8.55 26.95 Q12.05 28.3 16.25 27.95 L22.9 27.25 22.45 27.5 Q15.8 30.4 8.8 28.0 L8.45 27.85 7.3 26.75 M13.5 10.25 L13.35 9.8 16.95 9.75 17.3 10.2 13.5 10.25 M14.0 10.7 L13.65 10.4 17.35 10.35 17.15 10.7 14.0 10.75 14.0 10.7 M13.35 9.7 L13.7 9.4 16.45 9.45 16.9 9.6 13.35 9.7" fill="#63a7cb" fill-rule="evenodd" stroke="none"/>
  </g>
</svg>
