<?xml version="1.0" encoding="UTF-8" standalone="no"?>
<svg xmlns:ffdec="https://www.free-decompiler.com/flash" xmlns:xlink="http://www.w3.org/1999/xlink" ffdec:objectType="shape" height="27.55px" width="14.9px" xmlns="http://www.w3.org/2000/svg">
  <g transform="matrix(1.0, 0.0, 0.0, 1.0, -7.65, -1.45)">
    <path d="M21.75 2.75 L21.85 12.85 8.4 12.85 8.3 12.8 8.4 2.7 8.55 2.65 9.0 2.65 21.5 2.65 21.75 2.75" fill="#33413e" fill-rule="evenodd" stroke="none"/>
    <path d="M21.8 1.55 L21.9 1.55 22.0 1.65 22.55 2.05 22.55 28.3 21.6 29.0 8.5 29.0 7.65 28.05 7.65 2.05 7.95 1.85 8.55 1.45 21.15 1.45 21.6 1.5 21.8 1.55 M21.75 2.75 L21.75 2.55 21.75 2.3 21.8 2.25 21.3 1.9 21.2 1.85 8.9 1.9 8.8 1.95 8.45 2.2 8.3 2.3 8.35 2.45 8.4 2.7 8.3 12.8 8.3 12.85 8.3 13.4 8.2 28.1 21.55 28.4 21.85 28.2 21.9 19.4 Q22.15 18.15 21.9 16.85 L21.95 13.85 22.0 13.8 21.95 13.55 21.85 12.85 21.75 2.75" fill="#a5a9a3" fill-rule="evenodd" stroke="none"/>
    <path d="M21.95 13.55 L22.0 13.8 21.95 13.85 21.9 16.85 Q22.15 18.15 21.9 19.4 L21.85 28.2 21.55 28.4 8.2 28.1 8.3 13.4 14.45 13.5 14.2 13.55 14.85 16.3 Q14.05 16.35 13.9 16.9 L13.9 17.05 12.8 16.95 Q13.05 16.55 13.6 16.5 L13.75 16.5 13.8 16.35 13.4 16.25 Q12.6 16.4 12.25 16.95 L11.65 16.8 11.65 16.65 12.1 16.6 12.2 16.45 10.75 16.4 10.6 16.55 Q10.05 18.3 12.2 17.95 L12.35 17.8 11.55 17.5 11.6 17.4 12.25 17.15 Q12.2 18.1 13.45 18.05 L13.65 18.2 13.95 18.2 14.2 18.0 14.9 18.0 14.95 18.8 13.9 18.85 13.4 19.05 13.4 19.15 13.6 19.35 14.0 19.3 Q13.9 20.15 14.2 21.05 L14.35 21.05 14.45 20.8 14.4 19.3 14.9 19.3 14.85 19.9 14.75 20.2 Q14.4 20.75 14.7 21.15 L14.65 21.25 14.65 25.45 15.55 25.35 15.4 20.5 15.65 20.45 15.85 21.2 16.15 21.25 16.2 21.2 Q16.4 19.9 15.6 18.65 L15.45 18.65 15.5 18.45 Q15.6 18.1 15.35 17.85 L15.5 17.7 Q16.3 17.0 15.45 16.4 L16.2 13.5 21.95 13.55 M8.3 12.85 L8.3 12.8 8.4 12.85 8.3 12.85 M21.05 20.55 L21.15 19.6 20.3 19.3 20.2 19.15 20.4 19.15 21.05 19.4 21.2 19.2 20.6 18.75 20.05 18.75 19.9 18.9 Q19.55 19.7 20.75 19.8 20.9 20.2 20.5 20.5 L20.25 20.5 19.5 20.15 19.35 20.15 19.15 19.1 19.05 19.05 18.85 19.15 18.85 20.7 18.45 20.65 18.35 19.05 18.15 19.1 18.15 20.85 19.15 20.9 19.3 20.4 19.4 20.5 21.05 20.55 M21.15 16.9 L21.55 16.45 19.95 16.2 Q19.25 16.25 19.15 16.7 L19.3 16.75 19.55 16.85 19.7 16.8 19.85 16.8 19.75 18.25 20.15 18.45 Q20.55 18.2 20.45 17.8 L20.4 16.95 21.15 16.9 M17.3 16.5 L17.35 16.25 17.1 16.1 16.25 16.25 16.25 16.4 16.35 16.5 16.3 17.7 15.95 17.75 15.8 17.9 Q16.1 18.2 16.65 18.2 L17.05 18.15 17.2 18.0 16.95 17.8 17.05 16.55 17.3 16.5 M10.05 19.25 L10.05 19.15 10.5 19.3 10.05 19.25 M8.95 19.75 Q8.6 20.6 9.55 21.0 10.25 20.55 10.1 19.9 L10.8 19.85 10.85 20.9 12.45 21.1 12.55 20.9 12.45 20.15 12.85 20.25 12.9 21.0 13.05 21.1 13.3 21.15 13.45 21.15 13.6 20.95 13.0 18.95 12.75 18.8 12.6 18.85 Q11.8 19.65 11.9 20.7 L11.7 20.7 11.55 20.6 Q11.85 19.65 11.25 18.95 L11.1 19.0 10.85 18.9 9.7 18.8 9.5 18.75 9.1 18.9 8.95 19.75 M15.0 18.8 L15.05 18.8 15.05 18.85 15.0 18.8 M17.45 17.6 L17.7 17.85 Q19.9 18.05 18.45 16.7 L18.55 16.65 18.75 16.65 18.8 16.7 18.8 16.8 18.9 16.85 19.05 16.8 19.1 16.55 18.9 16.35 17.5 16.45 Q17.55 17.05 18.25 17.45 L17.45 17.6 M14.55 16.9 L14.7 16.85 14.85 16.9 14.95 17.05 14.85 17.2 14.7 17.25 14.55 17.2 14.5 17.05 14.55 16.9 M12.7 19.65 L12.8 19.9 12.5 19.95 12.7 19.65 M15.6 20.1 L15.25 20.1 15.5 19.55 15.6 20.1 M17.95 18.9 L17.85 18.85 17.65 18.95 17.6 20.15 16.9 18.75 16.7 18.65 16.5 18.75 16.7 21.25 16.9 21.25 16.95 19.8 17.6 20.95 18.0 21.1 18.15 20.95 18.05 20.75 Q17.85 19.8 17.95 18.9 M8.3 27.7 L8.3 27.6 8.3 27.7 M8.75 27.3 L8.7 28.0 21.4 27.95 21.45 27.35 8.75 27.3" fill="#c7d7a9" fill-rule="evenodd" stroke="none"/>
    <path d="M21.15 16.9 L20.4 16.95 20.45 17.8 Q20.55 18.2 20.15 18.45 L19.75 18.25 19.85 16.8 19.7 16.8 19.55 16.85 19.3 16.75 19.15 16.7 Q19.25 16.25 19.95 16.2 L21.55 16.45 21.15 16.9 M21.05 20.55 L19.4 20.5 19.3 20.4 19.15 20.9 18.15 20.85 18.15 19.1 18.35 19.05 18.45 20.65 18.85 20.7 18.85 19.15 19.05 19.05 19.15 19.1 19.35 20.15 19.5 20.15 20.25 20.5 20.5 20.5 Q20.9 20.2 20.75 19.8 19.55 19.7 19.9 18.9 L20.05 18.75 20.6 18.75 21.2 19.2 21.05 19.4 20.4 19.15 20.2 19.15 20.3 19.3 21.15 19.6 21.05 20.55 M8.95 19.75 L9.1 18.9 9.5 18.75 9.7 18.8 10.85 18.9 11.1 19.0 11.25 18.95 Q11.85 19.65 11.55 20.6 L11.7 20.7 11.9 20.7 Q11.8 19.65 12.6 18.85 L12.75 18.8 13.0 18.95 13.6 20.95 13.45 21.15 13.3 21.15 13.05 21.1 12.9 21.0 12.85 20.25 12.45 20.15 12.55 20.9 12.45 21.1 10.85 20.9 10.8 19.85 10.1 19.9 Q10.25 20.55 9.55 21.0 8.6 20.6 8.95 19.75 M10.05 19.25 L10.5 19.3 10.05 19.15 10.05 19.25 M17.3 16.5 L17.05 16.55 16.95 17.8 17.2 18.0 17.05 18.15 16.65 18.2 Q16.1 18.2 15.8 17.9 L15.95 17.75 16.3 17.7 16.35 16.5 16.25 16.4 16.25 16.25 17.1 16.1 17.35 16.25 17.3 16.5 M15.35 17.85 L14.9 18.0 14.2 18.0 13.95 18.2 13.65 18.2 13.45 18.05 Q12.2 18.1 12.25 17.15 L11.6 17.4 11.55 17.5 12.35 17.8 12.2 17.95 Q10.05 18.3 10.6 16.55 L10.75 16.4 12.2 16.45 12.1 16.6 11.65 16.65 11.65 16.8 12.25 16.95 Q12.6 16.4 13.4 16.25 L13.8 16.35 13.75 16.5 13.6 16.5 Q13.05 16.55 12.8 16.95 L13.9 17.05 13.9 16.9 Q14.05 16.35 14.85 16.3 L15.45 16.4 Q16.3 17.0 15.5 17.7 L15.35 17.85 M14.95 18.8 L15.0 18.8 15.05 18.85 15.15 18.85 15.05 19.2 14.9 19.3 14.4 19.3 14.45 20.8 14.35 21.05 14.2 21.05 Q13.9 20.15 14.0 19.3 L13.6 19.35 13.4 19.15 13.4 19.05 13.9 18.85 14.95 18.8 M14.85 19.9 L15.3 18.85 15.35 18.85 15.45 18.65 15.6 18.65 Q16.4 19.9 16.2 21.2 L16.15 21.25 15.85 21.2 15.65 20.45 15.4 20.5 15.0 20.55 14.7 21.15 Q14.4 20.75 14.75 20.2 L14.85 19.9 M17.45 17.6 L18.25 17.45 Q17.55 17.05 17.5 16.45 L18.9 16.35 19.1 16.55 19.05 16.8 18.9 16.85 18.8 16.8 18.8 16.7 18.75 16.65 18.55 16.65 18.45 16.7 Q19.9 18.05 17.7 17.85 L17.45 17.6 M14.55 16.9 L14.5 17.05 14.55 17.2 14.7 17.25 14.85 17.2 14.95 17.05 14.85 16.9 14.7 16.85 14.55 16.9 M12.7 19.65 L12.5 19.95 12.8 19.9 12.7 19.65 M17.95 18.9 Q17.85 19.8 18.05 20.75 L18.15 20.95 18.0 21.1 17.6 20.95 16.95 19.8 16.9 21.25 16.7 21.25 16.5 18.75 16.7 18.65 16.9 18.75 17.6 20.15 17.65 18.95 17.85 18.85 17.95 18.9 M15.6 20.1 L15.5 19.55 15.25 20.1 15.6 20.1" fill="#1b2b06" fill-rule="evenodd" stroke="none"/>
    <path d="M8.4 2.7 L8.35 2.45 8.3 2.3 8.45 2.2 8.8 1.95 8.9 1.9 21.2 1.85 21.3 1.9 21.8 2.25 21.75 2.3 21.75 2.55 21.75 2.75 21.5 2.65 9.0 2.65 8.55 2.65 8.4 2.7 M21.85 12.85 L21.95 13.55 16.2 13.5 15.0 13.45 14.45 13.5 8.3 13.4 8.3 12.85 8.4 12.85 21.85 12.85 M8.75 27.3 L21.45 27.35 21.4 27.95 8.7 28.0 8.75 27.3 M8.3 27.7 L8.3 27.6 8.3 27.7" fill="#dbe6d8" fill-rule="evenodd" stroke="none"/>
    <path d="M15.35 17.85 Q15.6 18.1 15.5 18.45 L15.45 18.65 15.35 18.85 15.3 18.85 14.85 19.9 14.9 19.3 15.05 19.2 15.15 18.85 15.05 18.85 15.05 18.8 15.0 18.8 14.95 18.8 14.9 18.0 15.35 17.85 M15.4 20.5 L15.55 25.35 14.65 25.45 14.65 21.25 14.7 21.15 15.0 20.55 15.4 20.5 M16.2 13.5 L15.45 16.4 14.85 16.3 14.2 13.55 14.45 13.5 15.0 13.45 16.2 13.5" fill="#9eb562" fill-rule="evenodd" stroke="none"/>
  </g>
</svg>
