<?xml version="1.0" encoding="UTF-8" standalone="no"?>
<svg xmlns:ffdec="https://www.free-decompiler.com/flash" xmlns:xlink="http://www.w3.org/1999/xlink" ffdec:objectType="shape" height="27.6px" width="18.3px" xmlns="http://www.w3.org/2000/svg">
  <g transform="matrix(1.0, 0.0, 0.0, 1.0, -5.9, -1.45)">
    <path d="M20.05 12.75 L20.15 12.95 20.05 13.2 20.2 14.9 20.25 14.95 20.3 15.0 23.8 17.1 23.9 17.1 24.2 17.85 24.0 27.35 23.85 27.65 23.85 27.7 23.85 27.9 Q23.5 28.85 22.2 29.05 L21.7 29.05 8.35 29.05 7.9 29.05 Q6.55 28.85 6.25 27.9 L6.2 27.7 6.2 27.65 6.1 27.35 5.9 17.85 6.2 17.1 6.3 17.1 9.75 15.0 9.85 14.95 9.9 14.9 10.0 13.2 9.95 12.95 9.9 12.95 10.0 12.75 10.05 12.75 10.15 12.65 10.25 12.6 11.05 12.65 13.6 12.55 13.75 12.5 14.05 12.5 14.35 12.5 19.05 12.65 19.85 12.6 19.9 12.65 20.0 12.75 20.05 12.75 M14.9 12.95 L10.9 13.0 10.65 13.15 10.65 13.2 10.55 14.95 10.55 15.05 10.55 15.15 10.5 15.15 6.75 17.3 6.7 17.4 6.55 17.9 6.65 27.25 6.85 27.8 7.0 28.0 7.5 28.4 7.55 28.4 7.95 28.55 8.1 28.6 21.95 28.6 22.1 28.55 22.55 28.4 22.6 28.4 23.1 28.0 23.2 27.8 23.4 27.25 23.5 17.9 23.35 17.4 23.3 17.3 19.6 15.15 19.55 15.15 19.5 15.05 19.5 14.95 19.45 13.2 19.4 13.15 19.2 13.0 15.6 12.95 14.9 12.95" fill="#006600" fill-rule="evenodd" stroke="none"/>
    <path d="M19.35 17.45 L19.55 16.8 Q19.75 16.5 20.1 16.5 20.4 16.5 20.6 16.75 L20.85 17.4 20.25 19.4 Q20.1 20.05 20.6 20.6 21.0 21.0 21.55 20.85 L22.5 20.6 22.5 21.15 Q22.3 21.6 21.7 21.7 19.8 21.8 19.4 20.3 19.2 19.6 18.8 20.05 L18.8 20.25 Q18.95 20.65 18.7 21.05 17.7 22.6 15.85 21.75 L15.55 22.05 Q14.55 23.05 13.0 22.85 L11.9 23.7 10.4 24.15 Q7.65 24.25 7.15 22.1 L7.2 20.85 Q7.8 18.7 10.35 17.95 L11.5 18.05 Q12.6 18.7 11.9 19.7 L11.8 19.4 Q10.85 18.2 9.45 19.05 7.9 20.0 7.95 21.6 7.95 23.1 9.75 23.4 L11.45 23.2 12.3 22.4 13.0 20.65 13.5 20.65 17.05 19.75 18.25 19.35 19.05 18.9 19.35 17.45 M22.15 24.4 L15.7 24.55 15.7 24.35 22.15 24.0 22.15 24.4 M22.15 23.0 L15.85 23.45 Q15.65 23.05 16.3 23.1 L17.3 23.1 22.1 22.95 22.15 23.0 M22.1 23.6 L22.15 23.75 16.3 24.05 Q15.65 24.05 15.75 23.85 L22.1 23.6 M10.1 11.2 L10.05 8.35 10.1 8.2 10.15 8.15 10.2 8.1 11.95 8.05 12.25 8.05 12.5 7.9 12.65 7.8 12.65 7.25 12.65 1.75 12.8 1.65 17.3 1.7 17.4 1.75 17.4 7.25 17.45 7.8 17.55 7.9 17.85 8.05 18.15 8.05 19.85 8.1 19.9 8.15 19.95 8.2 20.0 8.35 19.95 11.3 10.1 11.2 M10.15 4.45 L10.15 3.8 12.15 3.8 12.15 4.35 10.15 4.45 M14.45 20.75 L13.9 20.95 13.65 21.4 13.9 21.9 14.45 22.05 15.05 21.9 15.3 21.4 15.05 20.95 14.45 20.75 M18.15 20.8 L17.9 20.4 17.4 20.25 16.85 20.4 16.65 20.8 16.85 21.25 17.4 21.4 17.9 21.25 18.15 20.8 M16.75 24.8 L17.75 24.75 22.2 24.65 22.2 24.8 15.65 25.05 Q15.9 24.75 16.75 24.8 M15.6 25.55 L20.8 25.3 22.2 25.4 15.6 25.75 15.6 25.55" fill="#ffffff" fill-rule="evenodd" stroke="none"/>
    <path d="M10.05 12.75 L9.7 12.7 9.65 12.0 9.6 8.2 9.65 8.05 9.75 7.95 9.8 7.9 10.0 7.75 10.05 7.75 10.25 7.75 11.9 7.75 12.2 7.55 12.2 7.2 12.2 5.1 10.2 5.05 10.2 5.1 10.0 5.1 9.95 5.1 9.9 3.6 12.2 3.6 12.15 1.85 12.2 1.75 12.3 1.6 12.45 1.5 12.85 1.45 17.35 1.45 17.6 1.5 17.8 1.6 17.9 1.75 17.9 1.85 17.9 7.2 17.9 7.55 18.15 7.75 19.85 7.75 20.05 7.75 20.25 7.9 20.35 7.95 20.45 8.05 20.45 8.2 20.4 12.0 20.35 12.7 20.05 12.75 20.0 12.75 19.9 12.65 19.85 12.6 19.05 12.65 14.35 12.5 14.05 12.5 13.75 12.5 13.6 12.55 11.05 12.65 10.25 12.6 10.15 12.65 10.05 12.75 M19.95 11.3 L20.0 8.35 19.95 8.2 19.9 8.15 19.85 8.1 18.15 8.05 17.85 8.05 17.55 7.9 17.45 7.8 17.4 7.25 17.4 1.75 17.3 1.7 12.8 1.65 12.65 1.75 12.65 7.25 12.65 7.8 12.5 7.9 12.25 8.05 11.95 8.05 10.2 8.1 10.15 8.15 10.1 8.2 10.05 8.35 10.1 11.2 10.1 11.95 19.95 11.95 19.95 11.3 M12.15 4.35 L12.15 3.8 10.15 3.8 10.15 4.45 10.15 4.9 12.15 4.9 12.15 4.35" fill="#666666" fill-rule="evenodd" stroke="none"/>
    <path d="M10.1 11.2 L19.95 11.3 19.95 11.95 10.1 11.95 10.1 11.2 M10.15 4.45 L12.15 4.35 12.15 4.9 10.15 4.9 10.15 4.45" fill="#d9e1e8" fill-rule="evenodd" stroke="none"/>
    <path d="M15.6 12.95 L19.2 13.0 19.4 13.15 19.45 13.2 19.5 14.95 19.5 15.05 19.55 15.15 19.6 15.15 23.3 17.3 23.35 17.4 23.5 17.9 23.4 27.25 23.2 27.8 23.1 28.0 22.6 28.4 22.55 28.4 22.1 28.55 21.95 28.6 8.1 28.6 7.95 28.55 7.55 28.4 7.5 28.4 7.0 28.0 6.85 27.8 6.65 27.25 6.55 17.9 6.7 17.4 6.75 17.3 10.5 15.15 10.55 15.15 10.55 15.05 10.55 14.95 10.65 13.2 10.65 13.15 10.9 13.0 14.9 12.95 14.8 17.45 7.3 17.5 7.2 20.2 7.2 20.85 7.15 22.1 7.1 22.9 7.1 23.65 7.1 24.6 7.3 26.9 7.35 27.05 7.5 27.2 8.2 27.3 11.35 27.5 14.45 27.5 17.55 27.5 20.65 27.55 22.25 27.45 22.95 27.3 23.0 27.25 23.05 17.6 20.85 17.4 20.6 16.75 Q20.4 16.5 20.1 16.5 19.75 16.5 19.55 16.8 L19.35 17.45 16.05 17.45 15.95 13.65 15.95 13.45 15.6 12.95" fill="#00cc66" fill-rule="evenodd" stroke="none"/>
    <path d="M15.6 12.95 L15.95 13.45 15.95 13.65 16.05 17.45 19.35 17.45 19.05 18.9 18.25 19.35 17.05 19.75 13.5 20.65 13.0 20.65 12.3 22.4 11.45 23.2 9.75 23.4 Q7.95 23.1 7.95 21.6 7.9 20.0 9.45 19.05 10.85 18.2 11.8 19.4 L11.9 19.7 Q12.6 18.7 11.5 18.05 L10.35 17.95 Q7.8 18.7 7.2 20.85 L7.2 20.2 7.3 17.5 14.8 17.45 14.9 12.95 15.6 12.95 M20.85 17.4 L23.05 17.6 23.0 27.25 22.95 27.3 22.25 27.45 20.65 27.55 17.55 27.5 14.45 27.5 11.35 27.5 8.2 27.3 7.5 27.2 7.35 27.05 7.3 26.9 7.1 24.6 7.1 23.65 7.1 22.9 7.15 22.1 Q7.65 24.25 10.4 24.15 L11.9 23.7 13.0 22.85 Q14.55 23.05 15.55 22.05 L15.85 21.75 Q17.7 22.6 18.7 21.05 18.95 20.65 18.8 20.25 L18.8 20.05 Q19.2 19.6 19.4 20.3 19.8 21.8 21.7 21.7 22.3 21.6 22.5 21.15 L22.5 20.6 21.55 20.85 Q21.0 21.0 20.6 20.6 20.1 20.05 20.25 19.4 L20.85 17.4 M22.15 23.0 L22.1 22.95 17.3 23.1 16.3 23.1 Q15.65 23.05 15.85 23.45 L22.15 23.0 M22.15 24.4 L22.15 24.0 15.7 24.35 15.7 24.55 22.15 24.4 M22.1 23.6 L15.75 23.85 Q15.65 24.05 16.3 24.05 L22.15 23.75 22.1 23.6 M14.45 20.75 L15.05 20.95 15.3 21.4 15.05 21.9 14.45 22.05 13.9 21.9 13.65 21.4 13.9 20.95 14.45 20.75 M18.15 20.8 L17.9 21.25 17.4 21.4 16.85 21.25 16.65 20.8 16.85 20.4 17.4 20.25 17.9 20.4 18.15 20.8 M15.6 25.55 L15.6 25.75 22.2 25.4 20.8 25.3 15.6 25.55 M16.75 24.8 Q15.9 24.75 15.65 25.05 L22.2 24.8 22.2 24.65 17.75 24.75 16.75 24.8" fill="#009966" fill-rule="evenodd" stroke="none"/>
  </g>
</svg>
