<?xml version="1.0" encoding="UTF-8" standalone="no"?>
<svg xmlns:ffdec="https://www.free-decompiler.com/flash" xmlns:xlink="http://www.w3.org/1999/xlink" ffdec:objectType="shape" height="27.55px" width="27.65px" xmlns="http://www.w3.org/2000/svg">
  <g transform="matrix(1.0, 0.0, 0.0, 1.0, -1.15, -1.4)">
    <path d="M20.5 7.9 L20.35 8.2 20.0 8.3 19.65 8.15 19.55 7.8 19.7 7.5 Q19.85 7.35 20.05 7.35 20.2 7.35 20.35 7.55 L20.5 7.9" fill="#57492d" fill-rule="evenodd" stroke="none"/>
    <path d="M26.2 5.1 L26.85 5.75 28.0 7.25 27.95 7.75 27.4 9.4 22.5 13.75 19.45 10.35 21.65 8.7 22.2 7.85 22.4 6.85 22.35 6.35 22.35 6.25 22.3 6.15 22.3 6.1 22.2 5.95 22.05 5.8 21.9 5.65 21.7 5.5 21.5 5.4 21.4 5.35 21.35 5.3 21.15 5.25 20.95 5.25 20.75 5.25 20.5 5.3 20.3 5.35 19.9 5.6 19.1 6.3 18.55 6.85 17.35 7.9 16.8 7.2 22.8 2.0 23.55 2.55 24.25 3.15 25.55 4.45 26.2 5.1 M23.45 2.9 L23.15 2.7 22.75 2.5 22.65 2.5 22.6 2.5 22.4 2.55 Q22.05 2.7 21.8 2.95 L20.7 4.05 18.95 5.7 17.2 7.35 17.2 7.4 17.4 7.55 22.3 3.2 23.15 3.8 24.5 4.85 25.45 5.85 26.45 7.05 26.8 7.1 26.95 6.7 25.9 5.15 24.9 4.05 24.65 3.8 24.35 3.55 24.05 3.35 23.75 3.1 23.45 2.9 M16.05 7.55 L16.3 8.15 15.9 8.05 14.85 9.1 13.95 9.9 12.65 11.15 12.0 11.75 11.35 12.4 10.7 13.0 10.05 13.6 9.4 14.25 8.75 14.85 8.05 15.45 7.4 16.1 6.75 16.7 6.1 17.3 5.4 17.9 4.75 18.5 4.1 19.1 3.4 19.7 3.05 20.0 Q2.65 20.2 2.8 20.65 L2.85 20.8 3.05 20.8 3.25 20.7 3.5 20.55 3.6 20.45 4.0 20.05 4.4 19.65 4.8 19.25 5.25 18.85 5.65 18.45 6.05 18.05 6.45 17.65 6.9 17.25 7.3 16.9 7.7 16.55 8.1 16.15 8.55 15.8 8.95 15.4 10.2 14.3 10.15 14.4 10.25 14.65 10.8 14.6 11.05 14.55 11.3 14.5 11.55 14.4 12.0 14.1 12.7 13.65 Q13.15 13.35 13.7 13.15 L14.25 13.35 14.2 13.45 14.15 13.5 13.35 13.8 11.95 14.3 Q11.45 14.45 11.0 14.7 L10.7 14.95 10.55 15.3 10.85 15.6 11.35 15.6 11.75 15.9 11.75 16.5 12.5 16.3 13.05 16.55 13.3 16.25 13.65 16.15 13.95 16.15 14.2 16.3 13.9 16.5 13.8 16.55 13.55 16.65 13.4 16.65 12.75 16.65 12.15 16.8 12.05 16.85 Q11.85 16.7 11.65 16.7 L11.5 16.7 11.2 16.8 11.05 16.95 11.0 17.1 11.05 17.25 11.2 17.45 11.25 17.55 11.3 17.65 11.3 17.7 11.35 17.75 11.45 17.85 11.5 17.9 11.55 17.9 11.65 17.95 11.7 17.95 11.75 18.0 12.95 19.05 12.9 19.1 12.9 19.15 12.95 19.35 13.0 19.45 13.1 19.65 13.3 19.85 13.5 19.95 13.5 20.05 13.55 20.1 13.6 20.2 13.65 20.3 13.8 20.45 13.9 20.5 14.1 20.6 14.25 20.7 14.25 20.8 14.15 20.95 11.2 17.75 11.15 17.65 10.8 17.1 10.65 17.0 10.3 16.85 10.1 16.8 9.85 16.85 9.65 17.0 9.65 17.15 9.8 17.15 9.85 17.15 9.95 17.15 10.3 17.15 10.55 17.25 10.75 17.45 10.6 17.6 10.6 17.9 13.7 21.35 13.15 21.8 13.1 21.65 13.0 21.6 12.75 21.45 12.45 21.15 12.15 20.85 11.8 20.45 11.3 20.15 Q11.2 20.1 11.2 20.2 L11.2 20.3 11.25 20.35 12.05 21.4 12.6 22.0 12.8 22.1 11.15 23.5 10.7 23.05 9.75 22.1 9.0 21.35 8.3 20.6 7.95 20.05 7.45 19.0 Q7.35 19.1 7.4 19.3 L7.4 19.35 7.6 19.7 8.0 20.4 8.7 21.3 9.7 22.35 11.05 23.65 10.6 24.05 9.9 23.25 8.5 21.65 7.55 20.55 7.25 20.0 7.1 19.4 7.0 19.5 Q6.9 19.55 6.95 19.75 L6.95 19.8 7.1 20.15 7.35 20.65 8.2 21.75 9.25 23.05 10.35 24.25 10.25 24.35 9.75 23.95 8.8 23.1 8.4 22.65 7.5 21.65 6.75 20.6 6.25 19.85 6.25 20.05 6.65 20.85 6.85 21.15 7.2 21.75 7.65 22.3 8.35 23.1 9.1 23.85 9.95 24.5 9.75 24.8 5.7 20.5 5.75 21.0 6.4 21.8 7.6 23.25 8.55 24.15 9.5 25.05 9.25 25.3 8.85 25.0 8.25 24.35 8.15 24.3 6.9 23.0 6.6 22.65 6.55 22.3 6.25 22.2 5.5 20.95 5.45 21.05 5.45 21.2 Q5.55 21.75 6.0 22.3 L5.85 22.6 5.9 22.9 6.15 23.0 6.45 22.9 6.55 23.0 6.4 23.15 6.65 23.75 6.95 24.05 7.25 24.35 7.9 25.05 8.2 25.35 8.75 25.25 9.0 25.5 7.5 26.95 6.45 26.0 5.45 25.0 4.5 23.9 3.6 22.75 3.05 21.8 2.35 20.25 15.8 7.7 Q15.9 7.6 16.05 7.55 M20.35 13.05 L21.6 14.35 15.65 19.5 15.35 19.1 15.35 19.05 15.45 18.8 15.45 18.25 15.35 18.15 14.7 17.6 14.25 17.65 14.05 17.0 14.65 16.55 14.6 16.15 14.5 16.05 Q13.7 15.5 12.9 15.65 L13.5 15.45 14.15 15.2 14.45 14.75 14.45 14.7 Q13.75 14.2 13.0 14.35 L14.45 13.5 14.75 14.05 15.05 14.05 15.1 13.8 15.0 13.65 14.4 12.95 15.3 12.95 15.65 13.0 16.1 13.1 16.25 13.4 16.15 13.45 16.35 13.45 16.35 12.9 Q15.45 12.45 14.55 12.45 L13.95 12.45 12.95 12.35 13.3 12.65 12.7 13.05 11.55 13.85 10.25 14.2 10.95 13.6 11.65 13.0 12.3 12.4 13.4 11.45 14.15 10.75 14.9 10.05 15.65 9.3 16.0 8.95 19.65 13.3 19.75 13.2 19.85 13.1 19.9 13.05 19.95 13.0 20.0 13.0 20.1 13.0 20.15 13.0 20.2 13.0 20.25 13.05 20.35 13.05 M17.9 9.5 L17.95 9.55 17.85 9.45 17.9 9.5 M12.8 21.45 L12.9 21.5 13.2 21.6 13.5 21.45 13.25 21.0 13.2 20.95 11.4 19.45 10.75 19.0 10.7 19.0 12.75 21.2 12.8 21.45 M12.05 17.35 L12.1 17.15 13.7 17.25 13.5 17.3 Q13.1 17.45 13.15 17.85 L13.55 18.1 13.4 18.5 13.45 18.55 14.5 18.7 14.45 18.85 14.5 19.05 14.6 19.2 Q14.9 19.55 15.35 19.6 L14.8 20.3 13.55 19.25 13.55 19.05 12.05 17.35 M13.15 14.95 L13.2 14.95 13.0 15.0 13.15 14.95" fill="#8a6f4f" fill-rule="evenodd" stroke="none"/>
    <path d="M21.05 5.8 Q22.4 6.5 21.75 7.55 L21.7 7.6 Q20.0 5.55 18.9 7.6 18.65 8.05 18.95 8.6 L19.65 9.5 19.05 9.9 17.65 8.25 Q19.0 6.75 20.65 5.65 L21.05 5.8" fill="#000000" fill-rule="evenodd" stroke="none"/>
    <path d="M21.35 8.0 L20.05 9.15 19.75 9.05 Q18.95 8.15 19.6 7.5 20.35 6.75 21.2 7.75 L21.25 7.85 21.35 8.0 M20.5 7.9 L20.35 7.55 Q20.2 7.35 20.05 7.35 19.85 7.35 19.7 7.5 L19.55 7.8 19.65 8.15 20.0 8.3 20.35 8.2 20.5 7.9 M16.05 7.55 L16.15 7.4 16.45 7.5 16.5 7.5 17.35 8.75 19.9 11.85 23.4 15.4 23.4 15.45 23.4 15.55 23.4 15.8 23.35 15.85 23.0 15.6 22.1 14.85 21.8 14.55 21.75 14.5 21.6 14.35 20.35 13.05 20.3 13.05 19.15 11.8 18.55 11.2 17.45 9.8 16.45 8.25 16.3 8.15 16.05 7.55 M27.6 10.45 L27.6 10.4 27.75 9.7 27.95 8.85 28.45 9.7 28.35 10.05 27.65 11.05 27.65 10.95 27.6 10.45 M7.5 26.95 L7.6 27.1 7.7 27.1 8.45 27.65 8.7 27.8 8.45 28.0 Q4.35 25.15 2.1 20.7 L2.1 20.6 2.15 20.5 2.35 20.25 3.05 21.8 3.6 22.75 4.5 23.9 5.45 25.0 6.45 26.0 7.5 26.95 M17.9 9.5 L17.85 9.45 17.95 9.55 17.9 9.5" fill="#cccccc" fill-rule="evenodd" stroke="none"/>
    <path d="M26.95 5.15 L27.5 5.8 28.2 6.7 28.3 6.95 28.35 7.3 28.3 7.85 28.15 8.35 28.05 8.65 28.2 8.75 28.75 9.7 28.8 9.75 28.6 10.45 28.1 11.15 27.85 11.45 27.95 11.65 27.95 11.75 28.05 12.25 27.95 12.55 24.35 15.7 23.65 16.3 8.65 28.95 Q3.5 25.9 1.15 20.35 L1.25 20.2 1.8 19.7 15.45 7.3 16.25 6.6 22.25 1.4 23.1 1.5 23.55 1.85 24.4 2.55 25.25 3.3 26.05 4.15 26.45 4.55 26.95 5.15 M26.2 5.1 L25.55 4.45 24.25 3.15 23.55 2.55 22.8 2.0 16.8 7.2 17.35 7.9 18.55 6.85 19.1 6.3 19.9 5.6 20.3 5.35 20.5 5.3 20.75 5.25 20.95 5.25 21.15 5.25 21.35 5.3 21.4 5.35 21.5 5.4 21.7 5.5 21.9 5.65 22.05 5.8 22.2 5.95 22.3 6.1 22.3 6.15 22.35 6.25 22.35 6.35 22.4 6.85 22.2 7.85 21.65 8.7 19.45 10.35 22.5 13.75 27.4 9.4 27.95 7.75 28.0 7.25 26.85 5.75 26.2 5.1 M21.05 5.8 L20.65 5.65 Q19.0 6.75 17.65 8.25 L19.05 9.9 19.65 9.5 18.95 8.6 Q18.65 8.05 18.9 7.6 20.0 5.55 21.7 7.6 L21.75 7.55 Q22.4 6.5 21.05 5.8 M21.35 8.0 L21.25 7.85 21.2 7.75 Q20.35 6.75 19.6 7.5 18.95 8.15 19.75 9.05 L20.05 9.15 21.35 8.0 M27.6 10.45 L27.65 10.95 27.65 11.05 28.35 10.05 28.45 9.7 27.95 8.85 27.75 9.7 27.6 10.4 27.6 10.45 M21.6 14.35 L21.75 14.5 21.8 14.55 22.1 14.85 23.0 15.6 23.35 15.85 23.4 15.8 23.4 15.55 23.4 15.45 23.4 15.4 19.9 11.85 17.35 8.75 16.5 7.5 16.45 7.5 16.15 7.4 16.05 7.55 Q15.9 7.6 15.8 7.7 L2.35 20.25 2.15 20.5 2.1 20.6 2.1 20.7 Q4.35 25.15 8.45 28.0 L8.7 27.8 8.45 27.65 7.7 27.1 7.6 27.1 7.5 26.95 9.0 25.5 8.75 25.25 8.85 25.0 9.25 25.3 9.5 25.05 8.55 24.15 7.6 23.25 6.4 21.8 5.75 21.0 5.7 20.5 9.75 24.8 9.95 24.5 9.1 23.85 8.35 23.1 7.65 22.3 7.2 21.75 6.85 21.15 6.65 20.85 6.25 20.05 6.25 19.85 6.75 20.6 7.5 21.65 8.4 22.65 8.8 23.1 9.75 23.95 10.25 24.35 10.35 24.25 9.25 23.05 8.2 21.75 7.35 20.65 7.1 20.15 6.95 19.8 6.95 19.75 Q6.9 19.55 7.0 19.5 L7.1 19.4 7.25 20.0 7.55 20.55 8.5 21.65 9.9 23.25 10.6 24.05 11.05 23.65 9.7 22.35 8.7 21.3 8.0 20.4 7.6 19.7 7.4 19.35 7.4 19.3 Q7.35 19.1 7.45 19.0 L7.95 20.05 8.3 20.6 9.0 21.35 9.75 22.1 10.7 23.05 11.15 23.5 12.8 22.1 12.6 22.0 12.05 21.4 11.25 20.35 11.2 20.3 11.2 20.2 Q11.2 20.1 11.3 20.15 L11.8 20.45 12.15 20.85 12.45 21.15 12.75 21.45 13.0 21.6 13.1 21.65 13.15 21.8 13.7 21.35 10.6 17.9 10.6 17.6 10.75 17.45 10.55 17.25 10.3 17.15 9.95 17.15 9.85 17.15 9.8 17.15 9.65 17.15 9.65 17.0 9.85 16.85 10.1 16.8 10.3 16.85 10.65 17.0 10.8 17.1 11.15 17.65 11.2 17.75 14.15 20.95 14.25 20.8 14.25 20.7 14.1 20.6 13.9 20.5 13.8 20.45 13.65 20.3 13.6 20.2 13.55 20.1 13.5 20.05 13.5 19.95 13.3 19.85 13.1 19.65 13.0 19.45 12.95 19.35 12.9 19.15 12.9 19.1 12.95 19.05 11.75 18.0 11.7 17.95 11.65 17.95 11.55 17.9 11.5 17.9 11.45 17.85 11.35 17.75 11.3 17.7 11.3 17.65 11.25 17.55 11.2 17.45 11.05 17.25 11.0 17.1 11.05 16.95 11.2 16.8 11.5 16.7 11.65 16.7 Q11.85 16.7 12.05 16.85 L12.15 16.8 12.75 16.65 13.4 16.65 13.55 16.65 13.8 16.55 13.9 16.5 14.2 16.3 13.95 16.15 13.65 16.15 13.3 16.25 13.05 16.55 12.5 16.3 11.75 16.5 11.75 15.9 11.35 15.6 10.85 15.6 10.55 15.3 10.7 14.95 11.0 14.7 Q11.45 14.45 11.95 14.3 L13.35 13.8 14.15 13.5 14.2 13.45 14.25 13.35 13.7 13.15 Q13.15 13.35 12.7 13.65 L12.0 14.1 11.55 14.4 11.3 14.5 11.05 14.55 10.8 14.6 10.25 14.65 10.15 14.4 10.2 14.3 10.25 14.2 11.55 13.85 12.7 13.05 13.3 12.65 12.95 12.35 13.95 12.45 14.55 12.45 Q15.45 12.45 16.35 12.9 L16.35 13.45 16.15 13.45 16.25 13.4 16.1 13.1 15.65 13.0 15.3 12.95 14.4 12.95 15.0 13.65 15.1 13.8 15.05 14.05 14.75 14.05 14.45 13.5 13.0 14.35 Q13.75 14.2 14.45 14.7 L14.45 14.75 14.15 15.2 13.5 15.45 12.9 15.65 Q13.7 15.5 14.5 16.05 L14.6 16.15 14.65 16.55 14.05 17.0 14.25 17.65 14.7 17.6 15.35 18.15 15.45 18.25 15.45 18.8 15.35 19.05 15.35 19.1 15.65 19.5 21.6 14.35 M6.0 22.3 Q5.55 21.75 5.45 21.2 L5.45 21.05 5.5 20.95 6.25 22.2 6.0 22.3 M6.6 22.65 L6.9 23.0 6.75 23.0 6.55 23.0 6.45 22.9 6.6 22.65 M8.15 24.3 L8.25 24.35 8.15 24.35 8.15 24.3 M13.15 14.95 L13.0 15.0 13.2 14.95 13.15 14.95 M12.05 17.35 L13.55 19.05 13.55 19.25 14.8 20.3 15.35 19.6 Q14.9 19.55 14.6 19.2 L14.5 19.05 14.45 18.85 14.5 18.7 13.45 18.55 13.4 18.5 13.55 18.1 13.15 17.85 Q13.1 17.45 13.5 17.3 L13.7 17.25 12.1 17.15 12.05 17.35 M12.8 21.45 L12.75 21.2 10.7 19.0 10.75 19.0 11.4 19.45 13.2 20.95 13.25 21.0 13.5 21.45 13.2 21.6 12.9 21.5 12.8 21.45" fill="#5b4735" fill-rule="evenodd" stroke="none"/>
    <path d="M23.45 2.9 L23.75 3.1 24.05 3.35 24.35 3.55 24.65 3.8 24.9 4.05 25.9 5.15 26.95 6.7 26.8 7.1 26.45 7.05 25.45 5.85 24.5 4.85 23.15 3.8 22.3 3.2 17.4 7.55 17.2 7.4 17.2 7.35 18.95 5.7 20.7 4.05 21.8 2.95 Q22.05 2.7 22.4 2.55 L22.6 2.5 22.65 2.5 22.75 2.5 23.15 2.7 23.45 2.9 M16.3 8.15 L16.45 8.25 17.45 9.8 18.55 11.2 19.15 11.8 20.3 13.05 20.35 13.05 20.25 13.05 20.2 13.0 20.15 13.0 20.1 13.0 20.0 13.0 19.95 13.0 19.9 13.05 19.85 13.1 19.75 13.2 19.65 13.3 16.0 8.95 15.65 9.3 14.9 10.05 14.15 10.75 13.4 11.45 12.3 12.4 11.65 13.0 10.95 13.6 10.25 14.2 10.2 14.3 8.95 15.4 8.55 15.8 8.1 16.15 7.7 16.55 7.3 16.9 6.9 17.25 6.45 17.65 6.05 18.05 5.65 18.45 5.25 18.85 4.8 19.25 4.4 19.65 4.0 20.05 3.6 20.45 3.5 20.55 3.25 20.7 3.05 20.8 2.85 20.8 2.8 20.65 Q2.65 20.2 3.05 20.0 L3.4 19.7 4.1 19.1 4.75 18.5 5.4 17.9 6.1 17.3 6.75 16.7 7.4 16.1 8.05 15.45 8.75 14.85 9.4 14.25 10.05 13.6 10.7 13.0 11.35 12.4 12.0 11.75 12.65 11.15 13.95 9.9 14.85 9.1 15.9 8.05 16.3 8.15" fill="#d2c1b0" fill-rule="evenodd" stroke="none"/>
    <path d="M8.85 25.0 L8.75 25.25 8.2 25.35 7.9 25.05 7.25 24.35 6.95 24.05 6.65 23.75 6.4 23.15 6.55 23.0 6.75 23.0 6.9 23.0 8.15 24.3 8.15 24.35 8.25 24.35 8.85 25.0 M6.25 22.2 L6.55 22.3 6.6 22.65 6.45 22.9 6.15 23.0 5.9 22.9 5.85 22.6 6.0 22.3 6.25 22.2" fill="#990000" fill-rule="evenodd" stroke="none"/>
  </g>
</svg>
