<?xml version="1.0" encoding="UTF-8" standalone="no"?>
<svg xmlns:ffdec="https://www.free-decompiler.com/flash" xmlns:xlink="http://www.w3.org/1999/xlink" ffdec:objectType="shape" height="28.6px" width="28.7px" xmlns="http://www.w3.org/2000/svg">
  <g transform="matrix(1.0, 0.0, 0.0, 1.0, -0.65, -0.9)">
    <path d="M25.55 13.15 L26.5 12.05 26.95 11.6 27.05 11.45 27.35 11.1 28.4 10.0 28.95 8.85 Q29.05 8.1 28.5 7.45 L27.65 6.0 26.6 4.75 25.55 3.7 24.25 2.55 22.8 1.75 Q22.3 1.4 21.55 1.25 21.25 1.25 21.05 1.4 20.15 1.85 19.55 2.45 L17.0 4.75 16.8 4.9 16.6 5.1 25.1 13.6 25.3 13.4 25.55 13.15 M27.05 4.65 L27.85 5.75 28.5 6.85 29.0 8.1 29.35 9.7 27.65 11.85 10.1 29.1 9.2 29.45 8.4 29.4 7.3 28.85 6.35 28.05 5.4 27.3 4.5 26.45 3.65 25.55 2.4 24.15 2.0 23.7 1.25 22.6 0.95 22.0 0.65 21.45 0.85 20.5 1.1 20.15 17.35 3.6 18.45 2.65 19.4 1.85 20.4 0.95 20.5 0.95 21.3 0.95 22.65 1.25 Q23.0 1.35 23.35 1.55 L24.45 2.25 25.45 3.0 26.3 3.8 27.05 4.65 M19.9 13.25 L20.2 13.05 19.9 11.8 20.05 11.7 20.35 11.45 20.9 10.65 20.35 9.8 20.0 9.8 19.8 10.0 19.3 10.15 Q18.85 10.1 18.65 9.75 L18.45 9.5 17.85 9.4 17.2 9.4 17.15 9.45 17.15 9.6 17.15 9.65 17.05 9.8 16.85 9.9 16.75 9.9 Q16.25 10.1 15.85 9.7 L15.75 9.6 Q14.9 11.05 14.05 9.85 L13.65 10.9 Q14.45 11.9 13.35 12.6 L12.8 12.65 Q11.7 13.05 11.5 11.5 L11.75 11.0 10.85 11.25 10.6 12.7 11.6 13.1 Q11.9 14.6 10.5 15.8 L10.7 16.05 Q11.45 15.95 12.05 16.45 12.5 16.35 12.85 16.7 L12.95 17.05 Q13.05 18.1 12.1 18.45 L11.95 18.5 Q10.9 20.45 9.15 18.7 L8.95 19.05 8.95 19.95 8.65 20.4 8.95 20.75 Q9.65 20.55 10.2 21.0 L10.35 21.15 Q11.4 20.55 11.75 21.6 11.9 22.1 11.55 22.55 L12.0 23.1 12.75 23.2 Q13.25 23.7 12.8 24.3 L13.6 24.65 15.9 22.45 16.2 22.15 16.6 21.75 16.75 21.65 18.05 20.4 18.4 20.05 18.55 19.95 18.9 19.55 19.65 18.85 19.9 18.6 20.4 18.15 19.95 18.1 19.9 17.85 20.3 18.05 20.7 17.9 20.85 17.5 20.65 17.1 21.0 17.4 21.05 17.45 21.0 17.55 21.05 17.5 24.9 13.85 21.35 10.6 21.35 10.75 Q21.35 11.5 20.6 11.95 L20.4 12.05 Q20.75 12.6 20.65 13.25 L20.55 13.45 20.45 13.6 20.45 13.65 20.6 13.5 20.7 13.35 20.8 13.3 Q21.7 13.35 21.9 14.2 L21.85 14.4 Q21.45 14.8 21.35 15.4 L20.95 16.05 20.45 16.55 20.15 15.95 20.4 15.7 Q21.0 15.1 21.2 14.25 L21.3 14.15 21.0 13.9 20.15 14.1 19.9 14.05 19.9 13.25 M14.15 9.3 L14.45 9.4 14.75 10.0 15.05 9.95 15.15 9.75 15.15 9.55 15.25 9.4 15.3 9.25 15.8 9.1 Q16.2 9.2 16.45 9.55 L16.55 9.55 16.8 9.1 17.05 8.95 17.5 9.05 17.55 8.95 17.6 8.95 17.65 8.9 18.65 9.05 19.0 9.4 19.35 9.6 19.55 9.45 19.65 9.4 19.75 9.3 20.0 9.3 20.05 9.3 20.0 9.25 16.4 5.35 11.55 10.45 11.95 10.35 12.1 10.45 Q12.65 11.0 12.1 11.55 L12.5 12.15 13.15 12.1 13.4 11.85 13.5 11.7 Q13.2 11.25 13.25 10.75 L13.6 10.2 13.65 10.1 13.55 9.95 14.15 9.3 M11.2 21.6 Q10.3 22.25 9.5 21.4 8.35 21.55 7.85 20.55 L7.85 20.3 8.45 19.45 Q8.25 19.15 8.3 18.85 L8.85 18.2 8.95 18.05 Q9.6 18.0 10.15 18.6 L10.65 18.9 11.15 18.6 11.2 18.5 Q11.25 17.8 12.0 17.75 L12.25 17.7 12.3 17.05 Q11.65 17.15 11.2 16.7 9.85 16.85 9.8 15.55 L9.9 15.4 10.25 15.05 10.25 14.7 11.1 14.15 11.25 14.05 11.15 13.45 Q10.25 13.5 10.1 12.7 L10.15 12.3 10.35 11.65 6.7 15.55 6.8 15.55 7.75 15.05 7.95 15.0 Q8.4 14.95 8.75 15.35 9.0 16.15 8.35 16.7 L8.3 16.75 Q8.7 17.25 8.25 17.85 L7.8 18.3 7.2 18.7 6.75 18.65 6.2 18.3 6.05 18.25 Q5.45 18.05 5.75 17.55 L5.95 17.2 Q6.05 16.85 6.35 16.65 6.1 16.35 6.15 16.1 L1.9 20.6 1.5 21.0 Q3.45 25.9 8.3 28.55 L8.7 28.75 9.2 28.55 9.45 28.4 10.2 27.9 13.05 25.15 13.0 25.05 11.75 24.8 11.65 24.55 Q11.65 24.05 12.15 23.9 11.55 23.8 11.25 23.3 10.75 23.25 10.9 22.8 10.7 22.25 11.2 21.8 L11.2 21.65 11.2 21.6 M6.95 16.15 Q7.35 16.7 6.8 17.2 L6.6 17.35 6.6 17.55 7.1 18.0 7.85 17.4 7.7 16.9 8.3 15.75 8.05 15.55 Q7.4 15.55 7.05 16.05 L6.95 16.15 M7.15 23.85 L7.35 23.85 Q8.05 23.8 8.4 24.4 L9.2 23.8 8.75 23.4 Q8.4 22.95 8.4 22.5 L8.1 22.35 7.65 22.65 7.5 22.65 7.15 23.85 M6.7 22.7 Q6.7 22.35 7.05 22.25 L7.5 22.25 Q7.5 21.75 8.0 21.75 L8.6 21.85 8.9 21.8 9.1 21.9 Q9.35 22.25 9.25 22.75 9.85 23.05 10.0 23.7 L9.95 23.95 Q9.5 24.85 8.45 25.2 7.8 25.4 7.7 24.7 L7.6 24.65 Q6.75 25.05 6.35 24.1 6.0 23.25 6.7 22.7 M19.65 13.75 L19.6 13.6 19.7 13.4 19.65 13.75 M11.25 24.5 Q12.0 25.45 11.15 26.15 L10.45 26.4 Q9.65 26.45 9.7 25.65 9.75 24.85 10.35 24.35 L10.85 24.35 Q11.05 24.35 11.25 24.5 M10.95 25.05 L10.75 24.9 10.35 25.65 10.4 25.75 10.9 25.55 10.95 25.05" fill="#035c48" fill-rule="evenodd" stroke="none"/>
    <path d="M18.55 19.95 L18.4 20.05 18.4 20.0 18.55 19.95 M15.0 13.4 L15.15 13.4 15.0 13.45 15.0 13.4 M14.45 13.85 L14.95 13.75 14.95 14.05 14.45 13.85 M14.25 21.65 L14.3 21.65 14.35 21.85 14.25 21.65" fill="#46e39c" fill-rule="evenodd" stroke="none"/>
    <path d="M25.55 13.15 L25.3 13.4 25.1 13.6 16.6 5.1 16.8 4.9 17.0 4.75 17.05 4.8 17.25 4.95 17.85 5.55 18.2 5.85 18.95 6.6 19.8 7.4 20.3 7.85 21.15 8.65 21.85 9.4 22.4 10.0 23.25 10.8 23.3 10.9 24.05 11.7 24.35 11.95 25.55 13.15" fill="#1aa867" fill-rule="evenodd" stroke="none"/>
    <path d="M20.5 2.55 Q20.35 4.4 18.05 5.25 L17.85 4.65 18.7 3.75 Q19.35 2.8 20.4 2.55 L20.5 2.55 M21.1 2.3 Q22.65 1.4 24.7 3.45 L27.55 6.7 Q28.25 7.7 28.25 8.9 L27.85 9.0 Q25.0 5.2 21.2 2.4 L21.1 2.3 M19.9 13.25 L19.9 14.05 19.85 14.2 20.2 14.35 20.25 14.5 20.2 14.6 20.35 15.65 20.1 15.65 19.85 14.75 19.6 14.65 19.35 14.9 19.15 15.0 18.75 15.0 18.55 16.25 18.1 16.4 17.85 16.05 18.4 14.45 19.1 14.55 19.65 13.75 19.7 13.4 Q19.0 11.1 17.2 9.9 L17.05 9.8 17.15 9.65 Q19.05 10.65 19.8 13.0 L19.9 13.25 M19.9 18.6 L19.65 18.85 19.3 18.5 19.2 18.65 19.1 18.8 19.05 18.8 18.9 19.55 18.55 19.95 18.4 20.0 18.4 20.05 18.05 20.4 18.0 19.8 19.15 18.1 19.55 18.15 19.9 18.6 M16.2 22.15 L15.9 22.45 Q14.6 21.9 14.9 20.55 L14.95 20.4 14.6 19.4 14.8 19.15 14.05 18.9 13.9 18.65 Q13.75 18.0 14.25 17.65 L14.35 17.6 14.15 17.5 Q13.45 17.6 13.0 17.15 L12.95 17.05 12.85 16.7 12.9 16.3 12.55 15.7 12.55 15.2 Q12.65 14.65 13.15 14.5 L13.25 14.45 Q13.55 13.9 14.2 13.85 L14.35 13.85 13.65 13.2 13.6 13.05 Q14.85 11.95 16.4 11.25 16.05 10.75 16.25 10.2 L16.45 10.05 Q16.25 10.45 16.4 10.9 L16.65 11.4 13.9 13.05 14.3 13.55 15.0 13.45 15.15 13.4 15.25 13.4 15.4 13.55 15.2 14.75 14.55 14.2 13.95 14.15 13.7 14.3 13.6 14.75 12.9 15.0 12.85 15.1 12.85 15.2 12.85 15.35 12.9 15.6 12.95 15.85 13.15 16.2 13.15 16.7 13.45 17.1 13.65 17.1 13.85 17.1 14.05 17.15 14.5 17.35 14.75 17.6 14.2 18.2 14.2 18.35 14.2 18.5 14.25 18.6 14.4 18.75 14.6 18.85 15.0 18.95 15.1 19.1 14.95 19.4 15.35 20.4 15.25 20.65 15.25 20.85 Q15.15 21.2 15.3 21.55 L15.6 21.95 16.2 22.15 M13.55 9.95 L13.25 10.15 13.1 10.15 Q12.45 9.95 12.75 9.35 L13.0 9.0 15.15 7.0 15.75 6.4 Q16.1 5.95 16.55 6.25 16.85 6.85 16.3 7.35 L14.2 9.2 14.15 9.3 13.55 9.95 M14.45 13.85 L14.95 14.05 14.95 13.75 14.45 13.85" fill="#ffffff" fill-rule="evenodd" stroke="none"/>
    <path d="M20.15 15.95 L20.45 16.55 20.65 17.1 20.85 17.5 20.7 17.9 20.3 18.05 19.9 17.85 19.7 17.35 18.2 17.95 18.35 18.35 Q18.7 19.7 17.55 19.4 L16.7 16.65 16.8 16.5 16.85 16.45 17.35 16.35 17.45 16.4 17.9 17.2 19.35 16.55 19.1 15.85 19.05 15.7 Q18.9 15.3 19.15 15.0 L19.35 14.9 19.7 15.0 20.15 15.95 M16.75 21.65 L16.6 21.75 16.45 21.85 Q15.55 21.5 15.65 20.6 L15.65 20.55 Q16.45 19.7 17.65 19.8 17.85 20.25 17.4 20.65 L16.75 20.85 16.9 21.25 16.75 21.65 M15.0 13.4 L14.8 12.9 Q15.7 11.95 17.05 11.65 L17.45 11.55 16.7 10.3 17.05 10.0 Q19.75 11.65 18.95 14.1 L18.75 14.1 Q17.95 13.95 17.4 13.5 18.9 15.15 17.1 16.15 16.65 16.4 16.25 16.15 L16.0 15.9 15.35 16.15 15.45 16.45 15.1 16.8 14.9 16.8 14.6 16.55 13.75 16.75 13.6 16.1 13.1 15.4 13.55 15.0 14.0 15.25 14.0 14.55 14.55 14.5 15.05 15.35 15.75 15.3 Q15.4 14.1 16.45 13.55 L17.3 13.45 16.75 12.85 15.25 13.4 15.15 13.4 15.0 13.4 M12.55 15.2 L12.55 15.7 12.25 15.8 12.25 15.9 12.15 15.95 Q11.45 15.6 11.9 15.0 L12.0 14.85 12.25 14.75 12.55 15.2 M17.65 12.3 L18.3 12.85 17.8 12.0 17.65 12.3 M17.05 15.05 L16.7 14.45 16.9 15.2 17.05 15.05 M16.4 17.4 Q17.05 17.9 16.6 18.6 L16.6 18.65 16.05 18.4 14.75 18.65 Q14.25 17.9 15.3 17.65 L15.0 17.05 15.35 16.7 16.4 17.4 M13.9 18.65 L14.05 18.9 15.0 22.25 14.55 22.25 14.3 22.7 13.95 22.45 13.95 22.3 13.75 22.0 Q12.8 20.7 12.75 19.25 L13.1 19.25 14.25 21.65 14.35 21.85 14.3 21.65 Q13.6 20.3 13.4 18.75 L13.9 18.65 M12.25 19.6 Q13.15 20.9 13.7 22.45 L13.85 22.9 13.6 23.1 13.35 22.85 13.4 22.7 Q12.35 21.35 12.1 19.7 L12.25 19.6 M11.95 20.6 L11.95 20.55 Q12.6 21.0 12.55 21.95 12.9 22.2 12.9 22.6 L12.85 22.7 Q12.0 22.3 11.95 21.3 11.75 20.9 11.95 20.6 M17.05 19.55 Q16.4 20.1 15.6 19.9 L15.45 19.9 15.4 19.25 16.7 18.85 17.15 18.9 17.05 19.55" fill="#098e2d" fill-rule="evenodd" stroke="none"/>
    <path d="M17.0 4.75 L19.55 2.45 Q20.15 1.85 21.05 1.4 21.25 1.25 21.55 1.25 22.3 1.4 22.8 1.75 L24.25 2.55 25.55 3.7 26.6 4.75 27.65 6.0 28.5 7.45 Q29.05 8.1 28.95 8.85 L28.4 10.0 27.35 11.1 27.05 11.45 26.95 11.6 26.5 12.05 25.55 13.15 24.35 11.95 24.05 11.7 23.3 10.9 23.25 10.8 22.4 10.0 21.85 9.4 21.15 8.65 20.3 7.85 19.8 7.4 18.95 6.6 18.2 5.85 17.85 5.55 17.25 4.95 17.05 4.8 17.0 4.75 M21.1 2.3 L21.2 2.4 Q25.0 5.2 27.85 9.0 L28.25 8.9 Q28.25 7.7 27.55 6.7 L24.7 3.45 Q22.65 1.4 21.1 2.3 M20.5 2.55 L20.4 2.55 Q19.35 2.8 18.7 3.75 L17.85 4.65 18.05 5.25 Q20.35 4.4 20.5 2.55 M17.15 9.65 L17.15 9.6 17.15 9.45 17.2 9.4 17.85 9.4 18.45 9.5 18.65 9.75 Q18.85 10.1 19.3 10.15 L19.8 10.0 20.0 9.8 20.35 9.8 20.9 10.65 20.35 11.45 20.05 11.7 19.9 11.8 20.2 13.05 19.9 13.25 19.8 13.0 Q19.05 10.65 17.15 9.65 M19.9 14.05 L20.15 14.1 21.0 13.9 21.3 14.15 21.2 14.25 Q21.0 15.1 20.4 15.7 L20.15 15.95 19.7 15.0 19.35 14.9 19.6 14.65 19.85 14.75 20.1 15.65 20.35 15.65 20.2 14.6 20.25 14.5 20.2 14.35 19.85 14.2 19.9 14.05 M19.9 17.85 L19.95 18.1 20.4 18.15 19.9 18.6 19.55 18.15 19.15 18.1 18.0 19.8 18.05 20.4 16.75 21.65 16.9 21.25 16.75 20.85 17.4 20.65 Q17.85 20.25 17.65 19.8 16.45 19.7 15.65 20.55 L15.65 20.6 Q15.55 21.5 16.45 21.85 L16.6 21.75 16.2 22.15 15.6 21.95 15.3 21.55 Q15.15 21.2 15.25 20.85 L15.25 20.65 15.35 20.4 14.95 19.4 15.1 19.1 15.0 18.95 14.6 18.85 14.4 18.75 14.25 18.6 14.2 18.5 14.2 18.35 14.2 18.2 14.75 17.6 14.5 17.35 14.05 17.15 13.85 17.1 13.65 17.1 13.45 17.1 13.15 16.7 13.15 16.2 12.95 15.85 12.9 15.6 12.85 15.35 12.85 15.2 12.85 15.1 12.9 15.0 13.6 14.75 13.7 14.3 13.95 14.15 14.55 14.2 15.2 14.75 15.4 13.55 15.25 13.4 16.75 12.85 17.3 13.45 16.45 13.55 Q15.4 14.1 15.75 15.3 L15.05 15.35 14.55 14.5 14.0 14.55 14.0 15.25 13.55 15.0 13.1 15.4 13.6 16.1 13.75 16.75 14.6 16.55 14.9 16.8 15.1 16.8 15.45 16.45 15.35 16.15 16.0 15.9 16.25 16.15 Q16.65 16.4 17.1 16.15 18.9 15.15 17.4 13.5 17.95 13.95 18.75 14.1 L18.95 14.1 Q19.75 11.65 17.05 10.0 L16.7 10.3 17.45 11.55 17.05 11.65 Q15.7 11.95 14.8 12.9 L15.0 13.4 15.0 13.45 14.3 13.55 13.9 13.05 16.65 11.4 16.4 10.9 Q16.25 10.45 16.45 10.05 L16.25 10.2 Q16.05 10.75 16.4 11.25 14.85 11.95 13.6 13.05 L13.65 13.2 14.35 13.85 14.2 13.85 Q13.55 13.9 13.25 14.45 L13.15 14.5 Q12.65 14.65 12.55 15.2 L12.25 14.75 12.0 14.85 11.9 15.0 Q11.45 15.6 12.15 15.95 L12.25 15.9 12.25 15.8 12.55 15.7 12.9 16.3 12.85 16.7 Q12.5 16.35 12.05 16.45 11.45 15.95 10.7 16.05 L10.5 15.8 Q11.9 14.6 11.6 13.1 L10.6 12.7 10.85 11.25 11.75 11.0 11.5 11.5 Q11.7 13.05 12.8 12.65 L13.35 12.6 Q14.45 11.9 13.65 10.9 L14.05 9.85 Q14.9 11.05 15.75 9.6 L15.85 9.7 Q16.25 10.1 16.75 9.9 L16.85 9.9 17.05 9.8 17.2 9.9 Q19.0 11.1 19.7 13.4 L19.6 13.6 19.65 13.75 19.1 14.55 18.4 14.45 17.85 16.05 18.1 16.4 18.55 16.25 18.75 15.0 19.15 15.0 Q18.9 15.3 19.05 15.7 L19.1 15.85 19.35 16.55 17.9 17.2 17.45 16.4 17.35 16.35 16.85 16.45 16.8 16.5 16.7 16.65 17.55 19.4 Q18.7 19.7 18.35 18.35 L18.2 17.95 19.7 17.35 19.9 17.85 M19.65 18.85 L18.9 19.55 19.05 18.8 19.1 18.8 19.2 18.65 19.3 18.5 19.65 18.85 M15.9 22.45 L13.6 24.65 12.8 24.3 Q13.25 23.7 12.75 23.2 L12.0 23.1 11.55 22.55 Q11.9 22.1 11.75 21.6 11.4 20.55 10.35 21.15 L10.2 21.0 Q9.65 20.55 8.95 20.75 L8.65 20.4 8.95 19.95 8.95 19.05 9.15 18.7 Q10.9 20.45 11.95 18.5 L12.1 18.45 Q13.05 18.1 12.95 17.05 L13.0 17.15 Q13.45 17.6 14.15 17.5 L14.35 17.6 14.25 17.65 Q13.75 18.0 13.9 18.65 L13.4 18.75 Q13.6 20.3 14.3 21.65 L14.25 21.65 13.1 19.25 12.75 19.25 Q12.8 20.7 13.75 22.0 L13.95 22.3 13.95 22.45 14.3 22.7 14.55 22.25 15.0 22.25 14.05 18.9 14.8 19.15 14.6 19.4 14.95 20.4 14.9 20.55 Q14.6 21.9 15.9 22.45 M17.65 12.3 L17.8 12.0 18.3 12.85 17.65 12.3 M6.95 16.15 L7.05 16.05 Q7.4 15.55 8.05 15.55 L8.3 15.75 7.7 16.9 7.85 17.4 7.1 18.0 6.6 17.55 6.6 17.35 6.8 17.2 Q7.35 16.7 6.95 16.15 M7.15 23.85 L7.5 22.65 7.65 22.65 8.1 22.35 8.4 22.5 Q8.4 22.95 8.75 23.4 L9.2 23.8 8.4 24.4 Q8.05 23.8 7.35 23.85 L7.15 23.85 M16.4 17.4 L15.35 16.7 15.0 17.05 15.3 17.65 Q14.25 17.9 14.75 18.65 L16.05 18.4 16.6 18.65 16.6 18.6 Q17.05 17.9 16.4 17.4 M17.05 15.05 L16.9 15.2 16.7 14.45 17.05 15.05 M11.95 20.6 Q11.75 20.9 11.95 21.3 12.0 22.3 12.85 22.7 L12.9 22.6 Q12.9 22.2 12.55 21.95 12.6 21.0 11.95 20.55 L11.95 20.6 M12.25 19.6 L12.1 19.7 Q12.35 21.35 13.4 22.7 L13.35 22.85 13.6 23.1 13.85 22.9 13.7 22.45 Q13.15 20.9 12.25 19.6 M17.05 19.55 L17.15 18.9 16.7 18.85 15.4 19.25 15.45 19.9 15.6 19.9 Q16.4 20.1 17.05 19.55 M10.95 25.05 L10.9 25.55 10.4 25.75 10.35 25.65 10.75 24.9 10.95 25.05" fill="#4edc69" fill-rule="evenodd" stroke="none"/>
    <path d="M20.45 16.55 L20.95 16.05 21.35 15.4 Q21.45 14.8 21.85 14.4 L21.9 14.2 Q21.7 13.35 20.8 13.3 L20.7 13.35 20.6 13.5 20.55 13.45 20.65 13.25 Q20.75 12.6 20.4 12.05 L20.6 11.95 Q21.35 11.5 21.35 10.75 L21.35 10.6 24.9 13.85 21.05 17.5 21.05 17.45 21.0 17.4 20.65 17.1 20.45 16.55 M14.15 9.3 L14.2 9.2 16.3 7.35 Q16.85 6.85 16.55 6.25 16.1 5.95 15.75 6.4 L15.15 7.0 13.0 9.0 12.75 9.35 Q12.45 9.95 13.1 10.15 L13.25 10.15 13.55 9.95 13.65 10.1 13.6 10.2 13.25 10.75 Q13.2 11.25 13.5 11.7 L13.4 11.85 13.15 12.1 12.5 12.15 12.1 11.55 Q12.65 11.0 12.1 10.45 L11.95 10.35 11.55 10.45 16.4 5.35 20.0 9.25 20.0 9.3 19.75 9.3 19.65 9.4 19.55 9.45 19.35 9.6 19.0 9.4 18.65 9.05 17.65 8.9 17.6 8.95 17.55 8.95 17.5 9.05 17.05 8.95 16.8 9.1 16.55 9.55 16.45 9.55 Q16.2 9.2 15.8 9.1 L15.3 9.25 15.25 9.4 15.15 9.55 15.15 9.75 15.05 9.95 14.75 10.0 14.45 9.4 14.15 9.3 M1.9 20.6 L6.15 16.1 Q6.1 16.35 6.35 16.65 6.05 16.85 5.95 17.2 L5.75 17.55 Q5.45 18.05 6.05 18.25 L6.2 18.3 6.75 18.65 7.2 18.7 7.8 18.3 8.25 17.85 Q8.7 17.25 8.3 16.75 L8.35 16.7 Q9.0 16.15 8.75 15.35 8.4 14.95 7.95 15.0 L7.75 15.05 6.8 15.55 6.7 15.55 10.35 11.65 10.15 12.3 10.1 12.7 Q10.25 13.5 11.15 13.45 L11.25 14.05 11.1 14.15 10.25 14.7 10.25 15.05 9.9 15.4 9.8 15.55 Q9.85 16.85 11.2 16.7 11.65 17.15 12.3 17.05 L12.25 17.7 12.0 17.75 Q11.25 17.8 11.2 18.5 L11.15 18.6 10.65 18.9 10.15 18.6 Q9.6 18.0 8.95 18.05 L8.85 18.2 8.3 18.85 Q8.25 19.15 8.45 19.45 L7.85 20.3 7.85 20.55 Q8.35 21.55 9.5 21.4 10.3 22.25 11.2 21.6 L11.2 21.65 11.2 21.8 Q10.7 22.25 10.9 22.8 10.75 23.25 11.25 23.3 11.55 23.8 12.15 23.9 11.65 24.05 11.65 24.55 L11.75 24.8 13.0 25.05 13.05 25.15 10.2 27.9 9.45 28.4 8.6 27.7 Q4.65 24.65 1.9 20.6 M6.7 22.7 Q6.0 23.25 6.35 24.1 6.75 25.05 7.6 24.65 L7.7 24.7 Q7.8 25.4 8.45 25.2 9.5 24.85 9.95 23.95 L10.0 23.7 Q9.85 23.05 9.25 22.75 9.35 22.25 9.1 21.9 L8.9 21.8 8.6 21.85 8.0 21.75 Q7.5 21.75 7.5 22.25 L7.05 22.25 Q6.7 22.35 6.7 22.7 M11.25 24.5 Q11.05 24.35 10.85 24.35 L10.35 24.35 Q9.75 24.85 9.7 25.65 9.65 26.45 10.45 26.4 L11.15 26.15 Q12.0 25.45 11.25 24.5" fill="#c0fac7" fill-rule="evenodd" stroke="none"/>
    <path d="M1.9 20.6 Q4.65 24.65 8.6 27.7 L9.45 28.4 9.2 28.55 8.7 28.75 8.3 28.55 Q3.45 25.9 1.5 21.0 L1.9 20.6" fill="#81d892" fill-rule="evenodd" stroke="none"/>
  </g>
</svg>
