<?xml version="1.0" encoding="UTF-8" standalone="no"?>
<svg xmlns:ffdec="https://www.free-decompiler.com/flash" xmlns:xlink="http://www.w3.org/1999/xlink" ffdec:objectType="shape" height="26.05px" width="26.75px" xmlns="http://www.w3.org/2000/svg">
  <g transform="matrix(1.0, 0.0, 0.0, 1.0, -1.6, -2.15)">
    <path d="M6.0 14.4 L3.45 18.8 2.35 21.6 Q2.95 25.3 5.2 26.5 7.4 27.7 7.75 27.5 L9.4 26.6 Q11.7 24.9 12.85 22.05 14.05 18.65 16.7 15.95 19.3 13.45 22.55 11.6 25.5 10.25 27.7 8.05 L27.75 7.9 Q27.8 5.4 25.1 3.8 23.5 2.95 21.9 2.65 L15.35 5.3 19.75 9.55 20.05 10.6 Q16.45 13.9 13.55 17.95 L12.7 18.7 12.05 18.35 6.4 13.8 6.0 14.35 6.0 14.4 M28.35 8.45 Q26.15 11.05 22.7 12.6 18.85 14.55 16.2 17.75 L15.55 18.35 14.85 19.3 12.45 24.25 Q11.45 25.95 10.0 27.05 L8.15 28.2 Q5.4 27.75 3.35 25.6 1.8 23.9 1.6 21.85 3.55 17.4 6.1 13.4 8.3 10.3 10.8 7.65 12.5 5.95 14.25 5.15 17.8 3.5 21.65 2.15 25.55 2.3 27.9 6.05 L28.35 6.7 28.35 8.45 M18.85 10.05 L15.25 6.15 Q14.85 5.7 14.35 5.5 L13.45 6.0 12.65 6.65 13.9 7.05 14.5 7.35 14.9 7.8 15.05 8.0 Q12.95 7.2 11.6 7.55 10.3 8.25 9.6 9.7 L9.35 10.55 Q9.05 11.9 9.8 13.35 L8.6 12.15 8.45 11.4 7.0 13.4 9.45 15.55 12.65 17.75 Q15.4 13.6 19.35 10.7 L18.85 10.05" fill="#6c623e" fill-rule="evenodd" stroke="none"/>
    <path d="M12.65 17.75 L9.45 15.55 7.0 13.4 8.45 11.4 8.6 12.15 9.8 13.35 Q9.05 11.9 9.35 10.55 L9.6 9.7 Q10.3 8.25 11.6 7.55 12.95 7.2 15.05 8.0 L14.9 7.8 14.5 7.35 13.9 7.05 12.65 6.65 13.45 6.0 14.35 5.5 Q14.85 5.7 15.25 6.15 L18.85 10.05 Q11.35 16.2 12.65 17.75 M15.1 8.75 Q14.85 8.5 14.6 8.45 L13.25 8.25 Q12.9 11.5 9.6 11.85 L9.55 12.05 Q9.95 13.5 11.2 13.75 L12.4 13.4 Q16.0 12.35 15.1 8.75" fill="#fce6cf" fill-rule="evenodd" stroke="none"/>
    <path d="M22.05 5.85 L21.65 5.95 21.55 6.35 21.85 6.85 Q22.05 7.1 22.35 7.15 L22.75 7.05 22.85 6.65 22.6 6.15 22.05 5.85 M20.45 4.6 L20.8 4.55 20.95 4.15 20.75 3.65 20.3 3.45 19.85 3.55 Q19.75 3.65 19.8 3.95 L20.0 4.4 20.45 4.6 M22.5 4.6 L22.7 5.05 23.15 5.3 23.55 5.2 23.65 4.8 23.45 4.35 23.0 4.15 22.6 4.2 22.5 4.6 M6.0 14.35 L6.4 13.8 12.05 18.35 12.7 18.7 13.55 17.95 Q16.45 13.9 20.05 10.6 L19.75 9.55 15.35 5.3 21.9 2.65 Q23.5 2.95 25.1 3.8 27.8 5.4 27.75 7.9 L27.7 8.05 Q25.5 10.25 22.55 11.6 19.3 13.45 16.7 15.95 14.05 18.65 12.85 22.05 11.7 24.9 9.4 26.6 L7.75 27.5 Q7.4 27.7 5.2 26.5 2.95 25.3 2.35 21.6 L3.45 18.8 6.0 14.4 6.0 14.35 M20.3 6.4 L20.35 6.15 Q20.35 5.45 19.4 5.65 19.0 6.25 19.8 6.7 L20.25 6.65 20.3 6.4 M17.45 4.85 L17.1 4.95 17.0 5.3 Q17.0 5.5 17.15 5.7 L17.55 5.9 17.9 5.8 18.05 5.45 17.85 5.05 17.45 4.85 M6.5 21.15 L6.6 21.5 Q7.2 22.45 7.6 21.5 L6.5 21.15 M7.75 19.7 L7.85 19.3 7.6 18.75 Q7.35 18.5 7.1 18.5 L6.7 18.6 6.55 19.0 6.85 19.5 Q7.05 19.75 7.35 19.8 L7.75 19.7 M4.65 22.5 L4.95 23.0 5.45 23.3 5.85 23.2 5.95 22.8 5.7 22.3 5.2 22.0 4.75 22.1 4.65 22.5 M4.1 19.6 L4.4 20.1 Q4.6 20.35 4.9 20.4 L5.35 20.3 5.5 19.8 5.2 19.3 Q4.95 19.05 4.7 19.0 L4.25 19.2 Q4.05 19.35 4.1 19.6 M9.4 18.35 L9.2 17.95 Q9.0 17.75 8.8 17.7 L8.35 17.8 8.25 18.2 8.45 18.65 8.9 18.85 9.3 18.8 9.4 18.35 M7.25 16.8 L7.0 16.3 6.5 16.0 Q6.2 15.95 6.05 16.15 5.85 16.3 5.9 16.6 L6.15 17.1 6.65 17.4 7.1 17.25 7.25 16.8 M19.45 7.05 L19.0 7.25 18.85 7.65 19.1 8.1 19.55 8.35 19.95 8.2 20.1 7.75 19.9 7.3 19.45 7.05" fill="#eacaac" fill-rule="evenodd" stroke="none"/>
    <path d="M22.5 4.6 L22.6 4.2 23.0 4.15 23.45 4.35 23.65 4.8 23.55 5.2 23.15 5.3 22.7 5.05 22.5 4.6 M20.45 4.6 L20.0 4.4 19.8 3.95 Q19.75 3.65 19.85 3.55 L20.3 3.45 20.75 3.65 20.95 4.15 20.8 4.55 20.45 4.6 M22.05 5.85 L22.6 6.15 22.85 6.65 22.75 7.05 22.35 7.15 Q22.05 7.1 21.85 6.85 L21.55 6.35 21.65 5.95 22.05 5.85 M20.3 6.4 L20.25 6.65 19.8 6.7 Q19.0 6.25 19.4 5.65 20.35 5.45 20.35 6.15 L20.3 6.4 M17.45 4.85 L17.85 5.05 18.05 5.45 17.9 5.8 17.55 5.9 17.15 5.7 Q17.0 5.5 17.0 5.3 L17.1 4.95 17.45 4.85 M19.45 7.05 L19.9 7.3 20.1 7.75 19.95 8.2 19.55 8.35 19.1 8.1 18.85 7.65 19.0 7.25 19.45 7.05 M7.25 16.8 L7.1 17.25 6.65 17.4 6.15 17.1 5.9 16.6 Q5.85 16.3 6.05 16.15 6.2 15.95 6.5 16.0 L7.0 16.3 7.25 16.8 M9.4 18.35 L9.3 18.8 8.9 18.85 8.45 18.65 8.25 18.2 8.35 17.8 8.8 17.7 Q9.0 17.75 9.2 17.95 L9.4 18.35 M4.1 19.6 Q4.05 19.35 4.25 19.2 L4.7 19.0 Q4.95 19.05 5.2 19.3 L5.5 19.8 5.35 20.3 4.9 20.4 Q4.6 20.35 4.4 20.1 L4.1 19.6 M4.65 22.5 L4.75 22.1 5.2 22.0 5.7 22.3 5.95 22.8 5.85 23.2 5.45 23.3 4.95 23.0 4.65 22.5 M7.75 19.7 L7.35 19.8 Q7.05 19.75 6.85 19.5 L6.55 19.0 6.7 18.6 7.1 18.5 Q7.35 18.5 7.6 18.75 L7.85 19.3 7.75 19.7 M6.5 21.15 L7.6 21.5 Q7.2 22.45 6.6 21.5 L6.5 21.15" fill="#c29567" fill-rule="evenodd" stroke="none"/>
    <path d="M18.85 10.05 L19.35 10.7 Q15.4 13.6 12.65 17.75 11.35 16.2 18.85 10.05 M15.1 8.75 Q16.0 12.35 12.4 13.4 L11.2 13.75 Q9.95 13.5 9.55 12.05 L9.6 11.85 Q12.9 11.5 13.25 8.25 L14.6 8.45 Q14.85 8.5 15.1 8.75" fill="#efc19c" fill-rule="evenodd" stroke="none"/>
  </g>
</svg>
