<?xml version="1.0" encoding="UTF-8" standalone="no"?>
<svg xmlns:ffdec="https://www.free-decompiler.com/flash" xmlns:xlink="http://www.w3.org/1999/xlink" ffdec:objectType="shape" height="26.8px" width="17.5px" xmlns="http://www.w3.org/2000/svg">
  <g transform="matrix(1.0, 0.0, 0.0, 1.0, -6.2, -1.75)">
    <path d="M22.9 16.4 L22.4 13.65 22.25 13.4 9.7 13.0 Q10.4 11.9 11.5 11.25 L12.25 10.8 12.15 10.25 11.75 10.05 Q10.7 10.0 10.0 10.7 L8.65 12.2 8.0 13.05 7.6 13.2 7.25 15.05 Q7.05 16.75 7.2 18.45 L7.65 21.5 8.7 25.25 Q8.9 25.9 9.4 26.25 L11.05 26.9 13.7 26.95 17.25 26.85 20.0 26.75 20.6 26.4 Q21.35 25.9 21.5 24.95 21.85 23.0 22.5 21.2 L22.4 20.65 Q22.9 20.85 23.1 20.4 22.55 22.4 22.3 24.25 22.05 25.7 21.15 27.05 L20.55 27.85 16.5 28.2 12.2 28.2 9.35 27.85 Q8.55 27.0 8.2 25.9 L7.45 23.15 Q6.85 20.4 6.7 17.6 6.6 15.65 7.0 13.75 7.2 12.85 7.7 12.05 L8.9 10.65 Q11.2 8.75 14.1 8.8 L17.7 9.2 Q19.0 9.5 20.2 10.25 L21.65 11.45 22.8 13.1 Q23.45 14.2 23.4 15.75 L23.15 19.95 23.1 17.55 22.9 16.4 M14.5 10.1 L14.65 9.9 Q14.4 9.1 13.6 9.25 L12.9 9.45 12.75 9.65 12.8 10.2 12.9 10.4 Q13.7 10.8 14.5 10.1 M12.6 8.6 L12.7 7.3 17.2 7.3 17.25 8.6 17.15 8.7 12.7 8.7 12.6 8.6" fill="#666666" fill-rule="evenodd" stroke="none"/>
    <path d="M9.7 13.0 L22.25 13.4 22.4 13.65 22.9 16.4 Q22.45 15.85 21.8 16.1 L21.65 16.15 21.3 16.1 21.15 16.25 21.05 20.65 22.0 20.65 Q21.95 19.05 22.05 17.45 L22.1 16.7 22.15 16.65 22.35 16.95 22.4 20.65 22.5 21.2 Q21.85 23.0 21.5 24.95 21.35 25.9 20.6 26.4 L20.0 26.75 17.25 26.85 13.7 26.95 11.05 26.9 9.4 26.25 Q8.9 25.9 8.7 25.25 L7.65 21.5 7.2 18.45 Q7.05 16.75 7.25 15.05 L7.6 13.2 8.0 13.05 Q7.3 14.5 7.6 16.05 L7.7 16.15 7.85 16.25 8.45 16.15 Q8.85 14.45 9.7 13.0 M23.15 19.95 L23.4 15.75 Q23.45 14.2 22.8 13.1 L21.65 11.45 20.2 10.25 Q19.0 9.5 17.7 9.2 L14.1 8.8 Q11.2 8.75 8.9 10.65 L7.7 12.05 Q7.2 12.85 7.0 13.75 6.6 15.65 6.7 17.6 6.85 20.4 7.45 23.15 L8.2 25.9 Q8.55 27.0 9.35 27.85 L12.2 28.2 16.5 28.2 20.55 27.85 21.15 27.05 Q22.05 25.7 22.3 24.25 22.55 22.4 23.1 20.4 L23.15 20.0 23.15 19.95 M20.45 16.85 L20.1 16.6 19.2 16.55 19.0 16.65 Q18.55 18.65 19.1 20.6 L20.6 20.7 Q21.1 19.0 20.7 17.3 L20.45 16.85 M12.25 2.0 L18.7 1.75 18.7 2.25 18.2 3.85 17.8 5.05 18.0 5.65 18.15 7.25 17.6 7.3 17.8 8.6 20.75 10.05 Q22.2 11.0 22.85 12.55 23.5 14.25 23.65 16.15 L23.5 19.65 22.8 23.35 22.3 25.5 Q21.85 27.35 20.1 28.15 L19.25 28.45 16.55 28.55 13.35 28.45 9.65 28.35 Q8.75 28.15 8.25 27.05 7.5 25.4 7.1 23.35 L6.4 19.7 Q6.15 17.95 6.2 16.15 6.3 14.25 7.05 12.55 7.85 10.75 9.6 9.8 L12.1 8.6 12.3 7.3 11.75 7.25 Q11.55 6.05 12.0 5.1 L12.1 5.05 11.1 2.25 11.1 2.0 11.5 2.0 Q11.25 2.75 12.0 3.9 L12.3 4.45 12.75 5.0 17.1 5.05 17.6 4.5 17.7 4.3 18.3 2.75 18.25 2.85 18.4 2.2 18.4 2.0 12.25 2.0 M21.05 23.05 L21.1 22.85 12.85 23.0 12.85 23.2 21.05 23.05 M21.45 21.55 L21.15 21.5 20.15 21.65 17.05 21.85 12.8 21.8 12.8 21.95 13.55 22.0 19.95 21.95 20.7 21.85 21.45 21.8 21.45 21.55 M21.55 21.5 L21.6 21.3 16.9 21.25 12.8 21.5 12.8 21.6 13.65 21.55 Q17.6 21.35 21.55 21.5 M21.25 22.2 L20.55 22.45 19.35 22.4 12.8 22.45 12.8 22.65 13.2 22.7 17.05 22.8 19.0 22.7 21.15 22.5 21.25 22.2 M20.75 24.3 L20.8 24.0 12.95 24.2 12.95 24.45 20.75 24.3 M21.05 23.2 L17.9 23.45 12.95 23.5 12.9 23.5 12.9 23.7 Q13.1 23.9 13.45 23.9 L17.75 23.75 18.15 23.75 21.0 23.5 21.05 23.2 M12.0 5.5 L11.95 7.0 17.95 7.0 17.95 5.5 12.1 5.4 12.0 5.5 M12.6 8.6 L12.7 8.7 17.15 8.7 17.25 8.6 17.2 7.3 12.7 7.3 12.6 8.6 M9.55 15.25 L9.65 20.1 9.45 20.1 9.25 20.25 8.8 20.3 8.75 20.65 10.3 20.85 11.85 20.8 12.75 20.7 13.0 20.45 13.15 20.7 15.1 20.7 Q15.55 18.85 14.9 17.15 L14.8 17.0 Q14.55 16.7 14.15 16.65 L14.0 16.65 13.3 16.85 Q12.85 17.55 12.95 18.35 L12.95 18.9 12.55 18.75 12.1 18.8 11.85 18.95 11.95 20.05 11.1 20.1 11.1 15.25 11.55 15.1 11.6 14.75 9.35 14.55 9.15 14.6 9.0 14.75 9.05 15.0 9.25 15.15 9.4 15.2 9.55 15.25 M18.6 14.85 L18.45 14.4 18.1 14.25 Q17.85 14.25 17.7 14.4 17.5 14.6 17.55 14.85 L17.7 15.25 18.1 15.45 18.45 15.25 18.6 14.85 M15.85 14.4 L15.8 14.45 15.7 16.2 15.2 16.3 15.1 16.6 15.7 16.75 15.9 20.45 16.0 20.65 17.45 20.6 Q17.75 20.15 17.35 19.8 L17.05 19.85 16.8 16.9 17.3 16.75 17.4 16.35 16.75 16.2 16.8 15.1 Q16.75 14.2 15.85 14.4 M19.6 17.55 L19.8 17.45 20.1 20.15 19.9 20.15 19.6 17.55 M18.4 15.65 L17.7 15.9 Q18.05 17.7 17.95 19.6 L17.9 20.5 18.85 20.6 Q18.25 18.2 18.65 15.8 L18.4 15.65 M13.95 17.35 L14.25 18.4 14.2 19.3 14.2 20.2 13.95 20.15 13.85 17.35 13.95 17.35" fill="#999999" fill-rule="evenodd" stroke="none"/>
    <path d="M22.9 16.4 L23.1 17.55 23.15 19.95 23.15 20.0 23.1 20.4 Q22.9 20.85 22.4 20.65 L22.35 16.95 22.15 16.65 22.1 16.7 22.05 17.45 Q21.95 19.05 22.0 20.65 L21.05 20.65 21.15 16.25 21.3 16.1 21.65 16.15 21.8 16.1 Q22.45 15.85 22.9 16.4 M8.0 13.05 L8.65 12.2 10.0 10.7 Q10.7 10.0 11.75 10.05 L12.15 10.25 12.25 10.8 11.5 11.25 Q10.4 11.9 9.7 13.0 8.85 14.45 8.45 16.15 L7.85 16.25 7.7 16.15 7.6 16.05 Q7.3 14.5 8.0 13.05 M20.45 16.85 L20.7 17.3 Q21.1 19.0 20.6 20.7 L19.1 20.6 Q18.55 18.65 19.0 16.65 L19.2 16.55 20.1 16.6 20.45 16.85 M11.5 2.0 L12.25 2.0 18.4 2.0 18.4 2.2 18.25 2.85 17.4 4.4 17.25 4.4 17.75 2.65 17.05 4.4 16.6 4.45 16.9 2.65 16.35 4.45 15.95 4.4 16.05 2.55 15.75 4.4 15.4 4.4 15.35 2.55 15.2 4.4 14.6 4.4 14.3 2.5 14.45 4.45 13.95 4.45 13.55 2.5 13.75 4.45 13.4 4.4 12.65 2.5 13.1 4.4 12.7 4.45 11.95 2.55 12.55 4.45 12.3 4.45 12.0 3.9 Q11.25 2.75 11.5 2.0 M21.55 21.5 Q17.6 21.35 13.65 21.55 L12.8 21.6 12.8 21.5 16.9 21.25 21.6 21.3 21.55 21.5 M21.45 21.55 L21.45 21.8 20.7 21.85 19.95 21.95 13.55 22.0 12.8 21.95 12.8 21.8 17.05 21.85 20.15 21.65 21.15 21.5 21.45 21.55 M21.05 23.05 L12.85 23.2 12.85 23.0 21.1 22.85 21.05 23.05 M21.25 22.2 L21.15 22.5 19.0 22.7 17.05 22.8 13.2 22.7 12.8 22.65 12.8 22.45 19.35 22.4 20.55 22.45 21.25 22.2 M20.75 24.3 L12.95 24.45 12.95 24.2 20.8 24.0 20.75 24.3 M21.05 23.2 L21.0 23.5 18.15 23.75 17.75 23.75 13.45 23.9 Q13.1 23.9 12.9 23.7 L12.9 23.5 12.95 23.5 17.9 23.45 21.05 23.2 M12.0 5.5 L12.1 5.4 17.95 5.5 17.95 7.0 11.95 7.0 12.0 5.5 M14.5 10.1 Q13.7 10.8 12.9 10.4 L12.8 10.2 12.75 9.65 12.9 9.45 13.6 9.25 Q14.4 9.1 14.65 9.9 L14.5 10.1 M15.85 14.4 Q16.75 14.2 16.8 15.1 L16.75 16.2 17.4 16.35 17.3 16.75 16.8 16.9 17.05 19.85 17.35 19.8 Q17.75 20.15 17.45 20.6 L16.0 20.65 15.9 20.45 15.7 16.75 15.1 16.6 15.2 16.3 15.7 16.2 15.8 14.45 15.85 14.4 M18.6 14.85 L18.45 15.25 18.1 15.45 17.7 15.25 17.55 14.85 Q17.5 14.6 17.7 14.4 17.85 14.25 18.1 14.25 L18.45 14.4 18.6 14.85 M9.55 15.25 L9.4 15.2 9.25 15.15 9.05 15.0 9.0 14.75 9.15 14.6 9.35 14.55 11.6 14.75 11.55 15.1 11.1 15.25 11.1 20.1 11.95 20.05 11.85 18.95 12.1 18.8 12.55 18.75 12.95 18.9 12.95 18.35 Q12.85 17.55 13.3 16.85 L14.0 16.65 14.15 16.65 Q14.55 16.7 14.8 17.0 L14.9 17.15 Q15.55 18.85 15.1 20.7 L13.15 20.7 13.0 20.45 12.75 20.7 11.85 20.8 10.3 20.85 8.75 20.65 8.8 20.3 9.25 20.25 9.45 20.1 9.65 20.1 9.55 15.25 M19.6 17.55 L19.9 20.15 20.1 20.15 19.8 17.45 19.6 17.55 M18.4 15.65 L18.65 15.8 Q18.25 18.2 18.85 20.6 L17.9 20.5 17.95 19.6 Q18.05 17.7 17.7 15.9 L18.4 15.65 M13.95 17.35 L13.85 17.35 13.95 20.15 14.2 20.2 14.2 19.3 14.25 18.4 13.95 17.35" fill="#ffffff" fill-rule="evenodd" stroke="none"/>
    <path d="M18.25 2.85 L18.3 2.75 17.7 4.3 17.6 4.5 17.1 5.05 12.75 5.0 12.3 4.45 12.55 4.45 11.95 2.55 12.7 4.45 13.1 4.4 12.65 2.5 13.4 4.4 13.75 4.45 13.55 2.5 13.95 4.45 14.45 4.45 14.3 2.5 14.6 4.4 15.2 4.4 15.35 2.55 15.4 4.4 15.75 4.4 16.05 2.55 15.95 4.4 16.35 4.45 16.9 2.65 16.6 4.45 17.05 4.4 17.75 2.65 17.25 4.4 17.4 4.4 18.25 2.85" fill="#cccccc" fill-rule="evenodd" stroke="none"/>
  </g>
</svg>
