<?xml version="1.0" encoding="UTF-8" standalone="no"?>
<svg xmlns:ffdec="https://www.free-decompiler.com/flash" xmlns:xlink="http://www.w3.org/1999/xlink" ffdec:objectType="shape" height="27.4px" width="27.45px" xmlns="http://www.w3.org/2000/svg">
  <g transform="matrix(1.0, 0.0, 0.0, 1.0, -1.3, -1.45)">
    <path d="M15.35 10.3 L14.75 10.95 14.7 10.95 10.8 14.8 10.85 14.85 10.25 15.35 10.15 15.5 10.15 15.45 7.05 12.3 7.15 12.15 Q8.35 11.25 7.6 10.15 L2.65 5.0 Q1.25 3.9 1.3 2.2 L1.3 2.0 1.9 1.45 Q3.7 1.25 4.95 2.8 L10.1 7.8 Q11.1 8.5 11.95 7.35 L12.1 7.2 12.2 7.2 15.35 10.3 M2.55 1.9 L2.3 1.95 Q1.9 1.95 1.8 2.35 1.55 3.45 2.4 4.3 L2.95 4.85 7.95 9.75 8.55 10.45 8.75 10.75 7.75 12.1 7.75 12.25 10.25 14.8 14.65 10.35 12.15 7.85 11.95 7.85 10.6 8.85 9.7 8.15 4.8 3.15 Q4.0 2.05 2.85 1.95 L2.7 1.9 2.55 1.9" fill="#666666" fill-rule="evenodd" stroke="none"/>
    <path d="M12.2 8.3 L11.95 8.3 11.55 8.45 Q10.5 9.05 11.3 9.4 L11.35 9.4 Q11.6 9.1 11.95 8.95 L13.6 10.6 Q13.95 11.0 14.2 10.6 L14.2 10.35 12.35 8.4 12.2 8.3 M2.85 1.95 Q4.0 2.05 4.8 3.15 L9.7 8.15 10.6 8.85 11.95 7.85 12.15 7.85 14.65 10.35 10.25 14.8 7.75 12.25 7.75 12.1 8.75 10.75 8.55 10.45 7.95 9.75 2.95 4.85 2.4 4.3 Q1.55 3.45 1.8 2.35 1.9 1.95 2.3 1.95 L2.55 1.9 2.25 2.1 Q2.1 2.25 2.1 2.5 L2.3 2.9 2.7 3.05 3.1 2.9 3.25 2.5 3.1 2.1 2.85 1.95 M3.45 2.95 L4.25 3.85 9.05 8.75 9.5 9.15 9.6 9.15 9.9 8.95 9.65 8.45 9.55 8.3 4.65 3.35 3.7 2.55 3.5 2.6 Q3.35 2.8 3.45 2.95" fill="#999999" fill-rule="evenodd" stroke="none"/>
    <path d="M13.5 12.55 Q13.95 12.65 13.65 13.0 L13.6 13.05 14.6 14.1 13.45 14.15 13.0 13.7 12.45 13.65 12.45 13.6 12.45 13.5 13.5 12.55" fill="#743823" fill-rule="evenodd" stroke="none"/>
    <path d="M12.2 8.3 L12.35 8.4 14.2 10.35 14.2 10.6 Q13.95 11.0 13.6 10.6 L11.95 8.95 Q11.6 9.1 11.35 9.4 L11.3 9.4 Q10.5 9.05 11.55 8.45 L11.95 8.3 12.2 8.3 M2.55 1.9 L2.7 1.9 2.85 1.95 3.1 2.1 3.25 2.5 3.1 2.9 2.7 3.05 2.3 2.9 2.1 2.5 Q2.1 2.25 2.25 2.1 L2.55 1.9 M3.45 2.95 Q3.35 2.8 3.5 2.6 L3.7 2.55 4.65 3.35 9.55 8.3 9.65 8.45 9.9 8.95 9.6 9.15 9.5 9.15 9.05 8.75 4.25 3.85 3.45 2.95" fill="#ffffff" fill-rule="evenodd" stroke="none"/>
    <path d="M20.4 16.55 L20.1 16.55 19.8 16.35 19.6 16.05 Q19.55 15.85 19.65 15.75 L19.9 15.7 20.25 15.9 20.45 16.25 20.4 16.55 M20.8 17.95 L21.0 17.55 Q21.15 17.35 21.4 17.35 L21.75 17.5 21.9 17.9 21.75 18.3 21.35 18.45 20.95 18.3 20.8 17.95 M22.3 18.8 L22.55 18.7 22.8 18.8 22.9 19.05 22.75 19.3 22.55 19.4 22.3 19.3 22.2 19.05 22.3 18.8 M22.4 24.55 L22.35 24.7 22.0 24.8 21.95 25.0 21.85 25.05 21.75 25.3 21.45 25.4 21.3 24.85 21.9 24.7 25.25 21.45 24.8 22.25 24.7 22.2 22.4 24.55 M20.8 22.15 L20.85 22.55 19.65 23.15 19.6 23.0 19.85 22.5 21.3 21.7 20.8 22.15 M20.65 20.7 L20.7 20.45 21.45 20.35 21.4 20.55 20.35 21.6 18.95 22.65 19.95 21.35 20.7 20.9 20.65 20.7 M20.35 19.55 L20.3 19.8 19.2 19.9 19.45 20.15 19.4 20.35 18.7 20.55 18.75 20.8 18.5 20.9 18.4 20.35 19.05 20.15 18.9 20.05 18.9 19.75 19.7 19.55 19.35 19.05 19.45 18.8 20.75 18.3 21.1 18.8 20.0 19.2 20.35 19.55 M22.05 19.55 L22.0 19.6 22.1 19.8 21.65 20.3 21.4 20.2 21.55 19.45 22.15 19.45 22.05 19.55 M25.6 21.95 L25.65 22.0 24.8 23.35 23.4 25.05 22.25 25.75 22.15 25.6 25.1 22.4 Q25.1 22.05 25.45 21.95 L25.5 21.95 25.6 21.95 M25.85 22.5 L26.05 22.6 24.05 25.1 24.3 24.6 25.75 22.55 25.85 22.5 M13.5 12.55 L15.55 10.7 15.8 10.7 18.2 13.4 18.7 14.1 14.6 14.1 13.6 13.05 13.65 13.0 Q13.95 12.65 13.5 12.55 M13.45 14.15 L12.65 14.15 11.85 14.15 12.45 13.6 12.45 13.65 13.0 13.7 13.45 14.15 M18.05 18.3 L18.25 18.4 18.35 18.65 18.25 18.85 18.05 18.95 17.8 18.85 17.7 18.65 17.8 18.4 18.05 18.3 M18.75 18.45 L18.1 17.8 19.35 16.6 20.0 17.25 18.75 18.45 M19.25 16.45 L19.35 16.3 19.6 16.35 20.05 16.85 19.25 16.45 M23.35 25.35 L23.6 25.65 22.75 26.45 22.5 26.2 23.35 25.35 M18.4 23.15 Q18.3 23.05 18.35 22.95 L18.4 22.75 18.6 22.65 18.8 22.75 18.85 22.95 18.8 23.15 18.6 23.2 18.4 23.15 M17.3 19.35 L17.25 19.2 Q17.2 19.05 17.3 19.0 L17.5 18.9 17.7 19.0 17.75 19.15 17.7 19.35 17.5 19.45 17.3 19.35 M16.85 19.55 L17.0 19.7 Q17.15 20.4 16.45 20.15 L16.25 20.5 16.05 20.5 Q15.7 19.9 16.4 20.05 16.3 19.55 16.85 19.55 M17.9 20.7 L18.4 21.2 17.55 22.05 17.05 21.55 17.9 20.7" fill="#fd99bf" fill-rule="evenodd" stroke="none"/>
    <path d="M22.3 18.8 L22.2 19.05 22.3 19.3 22.55 19.4 22.75 19.3 22.9 19.05 22.8 18.8 22.55 18.7 22.3 18.8 M20.8 17.95 L20.95 18.3 21.35 18.45 21.75 18.3 21.9 17.9 21.75 17.5 21.4 17.35 Q21.15 17.35 21.0 17.55 L20.8 17.95 M20.4 16.55 L20.45 16.25 20.25 15.9 19.9 15.7 19.65 15.75 Q19.55 15.85 19.6 16.05 L19.8 16.35 20.1 16.55 20.4 16.55 M22.05 19.55 L22.15 19.45 21.55 19.45 21.4 20.2 21.65 20.3 22.1 19.8 22.0 19.6 22.05 19.55 M20.35 19.55 L20.0 19.2 21.1 18.8 20.75 18.3 19.45 18.8 19.35 19.05 19.7 19.55 18.9 19.75 18.9 20.05 19.05 20.15 18.4 20.35 18.5 20.9 18.75 20.8 18.7 20.55 19.4 20.35 19.45 20.15 19.2 19.9 20.3 19.8 20.35 19.55 M20.65 20.7 L20.7 20.9 19.95 21.35 18.95 22.65 20.35 21.6 21.4 20.55 21.45 20.35 20.7 20.45 20.65 20.7 M20.8 22.15 L21.3 21.7 19.85 22.5 19.6 23.0 19.65 23.15 20.85 22.55 20.8 22.15 M22.4 24.55 L24.7 22.2 24.8 22.25 25.25 21.45 21.9 24.7 21.3 24.85 21.45 25.4 21.75 25.3 21.85 25.05 21.95 25.0 22.0 24.8 22.35 24.7 22.4 24.55 M15.35 10.3 L15.45 10.25 15.75 10.25 15.9 10.25 16.0 10.25 16.05 10.25 16.05 10.3 16.1 10.3 28.5 23.15 28.75 23.4 28.7 23.5 28.25 24.95 26.75 26.9 24.25 28.65 23.45 28.85 23.3 28.85 22.55 28.25 10.1 16.1 10.1 16.05 10.15 16.0 10.15 15.95 10.1 15.95 10.1 15.85 10.15 15.5 10.25 15.35 10.85 14.85 10.8 14.8 14.7 10.95 14.75 10.95 15.35 10.3 M25.85 22.5 L25.75 22.55 24.3 24.6 24.05 25.1 26.05 22.6 25.85 22.5 M25.6 21.95 L25.5 21.95 25.45 21.95 Q25.1 22.05 25.1 22.4 L22.15 25.6 22.25 25.75 23.4 25.05 24.8 23.35 25.65 22.0 25.6 21.95 M14.6 14.1 L18.7 14.1 18.2 13.4 15.8 10.7 15.55 10.7 13.5 12.55 12.45 13.5 12.45 13.6 11.85 14.15 12.65 14.15 13.45 14.15 14.6 14.1 M19.25 16.45 L20.05 16.85 19.6 16.35 19.35 16.3 19.25 16.45 M18.75 18.45 L20.0 17.25 19.35 16.6 18.1 17.8 18.75 18.45 M18.05 18.3 L17.8 18.4 17.7 18.65 17.8 18.85 18.05 18.95 18.25 18.85 18.35 18.65 18.25 18.4 18.05 18.3 M17.9 20.7 L17.05 21.55 17.55 22.05 18.4 21.2 17.9 20.7 M16.85 19.55 Q16.3 19.55 16.4 20.05 15.7 19.9 16.05 20.5 L16.25 20.5 16.45 20.15 Q17.15 20.4 17.0 19.7 L16.85 19.55 M17.3 19.35 L17.5 19.45 17.7 19.35 17.75 19.15 17.7 19.0 17.5 18.9 17.3 19.0 Q17.2 19.05 17.25 19.2 L17.3 19.35 M18.4 23.15 L18.6 23.2 18.8 23.15 18.85 22.95 18.8 22.75 18.6 22.65 18.4 22.75 18.35 22.95 Q18.3 23.05 18.4 23.15 M23.35 25.35 L22.5 26.2 22.75 26.45 23.6 25.65 23.35 25.35" fill="#9a033d" fill-rule="evenodd" stroke="none"/>
  </g>
</svg>
