<?xml version="1.0" encoding="UTF-8" standalone="no"?>
<svg xmlns:ffdec="https://www.free-decompiler.com/flash" xmlns:xlink="http://www.w3.org/1999/xlink" ffdec:objectType="shape" height="7.7px" width="14.85px" xmlns="http://www.w3.org/2000/svg">
  <g transform="matrix(1.0, 0.0, 0.0, 1.0, 9.15, 7.35)">
    <path d="M5.55 -7.35 Q5.85 -6.95 5.6 -6.45 L4.85 -5.15 3.85 -3.85 3.75 -3.75 3.7 -3.65 3.6 -3.4 2.5 -1.4 1.4 0.0 0.3 0.35 -0.8 -0.3 -1.3 -1.0 -1.4 -1.15 -5.75 -2.3 -7.15 -2.55 -9.0 -2.55 -9.15 -2.8 -7.55 -3.05 -5.85 -2.75 -4.5 -2.5 -1.35 -1.75 -1.2 -1.75 -1.15 -1.75 -0.15 -2.3 3.15 -3.8 3.55 -4.1 3.95 -4.6 4.65 -5.6 5.55 -7.35 M3.2 -3.35 L3.0 -3.4 -0.25 -2.15 -0.7 -1.8 Q-1.05 -1.25 -0.8 -0.7 L-0.65 -0.45 -0.65 -0.4 Q-0.15 0.0 0.5 -0.05 L0.65 0.0 Q1.95 -0.65 2.75 -2.4 L3.2 -3.35" fill="#57492d" fill-rule="evenodd" stroke="none"/>
    <path d="M-0.8 -0.7 Q-1.05 -1.25 -0.7 -1.8 L-0.25 -2.15 3.0 -3.4 3.2 -3.35 Q2.25 -1.8 0.75 -0.9 L0.2 -0.55 -0.8 -0.7" fill="#b8a476" fill-rule="evenodd" stroke="none"/>
    <path d="M-0.8 -0.7 L0.2 -0.55 0.75 -0.9 Q2.25 -1.8 3.2 -3.35 L2.75 -2.4 Q1.95 -0.65 0.65 0.0 L0.5 -0.05 Q-0.15 0.0 -0.65 -0.4 L-0.65 -0.45 -0.8 -0.7" fill="#806c42" fill-rule="evenodd" stroke="none"/>
  </g>
</svg>
