<?xml version="1.0" encoding="UTF-8" standalone="no"?>
<svg xmlns:ffdec="https://www.free-decompiler.com/flash" xmlns:xlink="http://www.w3.org/1999/xlink" ffdec:objectType="shape" height="27.8px" width="28.1px" xmlns="http://www.w3.org/2000/svg">
  <g transform="matrix(1.0, 0.0, 0.0, 1.0, -0.9, -1.25)">
    <path d="M15.1 9.9 L14.5 10.6 14.45 10.6 10.05 15.1 10.0 15.2 9.95 15.15 7.35 12.55 Q6.8 10.85 5.7 9.4 L3.4 6.7 Q2.1 5.2 1.25 3.45 0.85 2.7 0.9 1.85 L1.5 1.3 Q3.05 1.1 4.15 2.2 L7.6 5.15 Q9.05 6.3 10.9 6.75 11.7 6.9 12.4 7.35 L15.1 9.9 M12.1 7.8 L11.55 7.35 11.35 7.35 Q7.85 6.4 5.3 3.7 4.3 2.65 3.15 2.05 2.65 1.75 2.1 1.8 1.5 1.8 1.5 2.35 1.45 4.1 2.8 5.4 L5.05 8.05 Q6.55 9.8 7.55 11.85 L7.5 12.0 10.05 14.5 14.4 10.0 12.1 7.8 M12.05 12.0 L10.65 13.5 10.2 13.9 9.8 13.85 9.7 13.65 7.9 12.0 Q7.05 10.8 6.5 9.45 L6.05 8.7 3.65 5.95 Q2.35 4.55 1.65 2.95 1.5 2.6 1.85 2.55 L2.15 2.75 2.25 3.05 2.3 3.15 6.85 8.85 8.5 11.35 10.1 13.15 12.9 10.85 12.55 11.3 12.5 11.35 12.05 12.0" fill="#666666" fill-rule="evenodd" stroke="none"/>
    <path d="M12.1 7.8 L14.4 10.0 10.05 14.5 7.5 12.0 7.55 11.85 Q6.55 9.8 5.05 8.05 L2.8 5.4 Q1.45 4.1 1.5 2.35 1.5 1.8 2.1 1.8 2.65 1.75 3.15 2.05 4.3 2.65 5.3 3.7 7.85 6.4 11.35 7.35 L11.55 7.35 12.1 7.8 M11.9 7.9 L11.35 7.7 9.1 7.1 7.95 6.45 6.4 5.35 7.6 6.35 8.9 7.2 Q9.7 7.7 10.6 8.0 L9.1 9.9 8.95 10.15 9.0 10.2 11.3 8.45 13.65 10.25 13.8 10.2 13.85 9.7 11.9 7.9 M12.05 12.0 L12.5 11.35 12.55 11.3 12.9 10.85 10.1 13.15 8.5 11.35 6.85 8.85 2.3 3.15 2.25 3.05 2.15 2.75 1.85 2.55 Q1.5 2.6 1.65 2.95 2.35 4.55 3.65 5.95 L6.05 8.7 6.5 9.45 Q7.05 10.8 7.9 12.0 L9.7 13.65 9.8 13.85 10.2 13.9 10.65 13.5 12.05 12.0 M2.5 2.05 L2.4 2.2 2.35 2.3 4.65 3.85 5.95 4.95 Q5.2 4.3 4.75 3.5 3.9 2.15 2.5 2.05" fill="#999999" fill-rule="evenodd" stroke="none"/>
    <path d="M11.9 7.9 L13.85 9.7 13.8 10.2 13.65 10.25 11.3 8.45 9.0 10.2 8.95 10.15 9.1 9.9 10.6 8.0 Q9.7 7.7 8.9 7.2 L7.6 6.35 6.4 5.35 7.95 6.45 9.1 7.1 11.35 7.7 11.9 7.9 M2.5 2.05 Q3.9 2.15 4.75 3.5 5.2 4.3 5.95 4.95 L4.65 3.85 2.35 2.3 2.4 2.2 2.5 2.05" fill="#ffffff" fill-rule="evenodd" stroke="none"/>
    <path d="M20.25 16.0 Q19.95 16.2 19.7 16.0 L19.45 15.45 19.5 15.3 Q20.0 15.2 20.25 15.7 L20.25 16.0 M20.6 17.8 L21.0 18.3 19.9 18.75 20.25 19.1 20.2 19.35 19.1 19.45 19.35 19.7 19.3 19.9 18.65 20.1 18.65 20.35 18.4 20.5 18.3 19.9 18.95 19.7 18.8 19.65 18.8 19.35 19.6 19.1 19.25 18.6 19.35 18.35 20.6 17.8 M20.85 17.85 L20.7 17.45 Q20.65 17.2 20.85 17.05 L21.25 16.9 21.6 17.05 21.8 17.45 21.65 17.8 21.25 18.0 20.85 17.85 M22.65 18.3 L22.8 18.55 22.7 18.8 22.45 18.9 22.2 18.8 22.1 18.55 22.2 18.3 Q22.25 18.2 22.4 18.2 L22.65 18.3 M20.75 21.7 L20.8 22.1 19.65 22.7 19.55 22.55 19.8 22.05 21.25 21.25 20.75 21.7 M20.6 20.0 L21.35 19.85 21.3 20.05 18.9 22.2 20.65 20.45 20.55 20.25 20.6 20.0 M22.0 19.3 L21.6 19.85 21.35 19.75 21.45 19.0 22.05 18.95 21.95 19.05 21.9 19.1 22.0 19.3 M19.9 16.4 L19.1 16.0 19.2 15.85 19.45 15.9 19.9 16.4 M19.2 16.15 L19.85 16.8 18.6 18.05 17.95 17.4 19.2 16.15 M17.7 18.45 L17.6 18.2 17.7 18.0 Q17.75 17.9 17.9 17.9 L18.15 18.0 18.25 18.2 18.15 18.45 17.95 18.55 17.7 18.45 M17.4 18.5 L17.6 18.55 17.65 18.75 17.6 18.95 17.4 19.05 17.2 18.95 Q17.1 18.85 17.15 18.75 17.1 18.65 17.2 18.6 17.25 18.5 17.4 18.5 M16.35 19.85 L16.05 20.15 Q15.8 20.0 15.9 19.7 L16.3 19.65 16.3 19.55 16.35 19.4 Q16.5 19.05 16.85 19.2 L16.95 19.4 16.9 19.65 16.85 19.75 16.4 19.8 16.4 19.75 16.35 19.85 M17.8 20.25 L18.3 20.75 17.5 21.65 16.95 21.15 17.8 20.25 M18.35 22.3 L18.55 22.25 18.75 22.3 18.85 22.5 18.75 22.7 18.55 22.8 18.4 22.7 18.3 22.5 18.35 22.3" fill="#5f6037" fill-rule="evenodd" stroke="none"/>
    <path d="M18.85 13.55 L21.85 15.35 22.05 15.4 Q22.9 15.75 23.7 16.25 L25.25 17.35 26.45 18.35 27.55 19.45 28.4 20.5 28.5 21.15 28.25 21.55 27.4 22.6 26.65 23.5 25.9 24.4 25.1 25.3 23.85 26.7 22.85 27.75 22.2 28.25 21.35 28.4 20.7 28.05 19.4 26.95 18.45 26.1 18.45 26.0 18.25 25.8 15.5 22.55 14.7 21.25 13.95 19.75 13.25 18.55 12.45 17.45 11.45 16.45 10.5 15.55 10.45 15.45 10.5 15.25 11.8 13.8 13.25 13.8 14.4 13.75 18.8 13.65 18.85 13.55 M20.25 16.0 L20.25 15.7 Q20.0 15.2 19.5 15.3 L19.45 15.45 19.7 16.0 Q19.95 16.2 20.25 16.0 M20.6 17.8 L19.35 18.35 19.25 18.6 19.6 19.1 18.8 19.35 18.8 19.65 18.95 19.7 18.3 19.9 18.4 20.5 18.65 20.35 18.65 20.1 19.3 19.9 19.35 19.7 19.1 19.45 20.2 19.35 20.25 19.1 19.9 18.75 21.0 18.3 20.6 17.8 M22.65 18.3 L22.4 18.2 Q22.25 18.2 22.2 18.3 L22.1 18.55 22.2 18.8 22.45 18.9 22.7 18.8 22.8 18.55 22.65 18.3 M20.85 17.85 L21.25 18.0 21.65 17.8 21.8 17.45 21.6 17.05 21.25 16.9 20.85 17.05 Q20.65 17.2 20.7 17.45 L20.85 17.85 M22.0 19.3 L21.9 19.1 21.95 19.05 22.05 18.95 21.45 19.0 21.35 19.75 21.6 19.85 22.0 19.3 M20.6 20.0 L20.55 20.25 20.65 20.45 18.9 22.2 21.3 20.05 21.35 19.85 20.6 20.0 M20.75 21.7 L21.25 21.25 19.8 22.05 19.55 22.55 19.65 22.7 20.8 22.1 20.75 21.7 M21.95 24.5 L22.0 24.3 22.35 24.2 24.65 21.7 24.75 21.7 25.15 20.9 23.5 22.55 22.65 23.3 21.8 24.1 21.7 24.2 21.3 24.4 21.45 24.95 21.75 24.8 21.85 24.55 21.95 24.5 M23.85 23.7 L25.6 21.45 25.45 21.4 25.15 21.6 25.05 21.85 22.15 25.1 22.25 25.25 23.25 24.4 23.85 23.7 M25.8 21.95 L24.05 24.6 26.0 22.05 25.8 21.95 M17.4 18.5 Q17.25 18.5 17.2 18.6 17.1 18.65 17.15 18.75 17.1 18.85 17.2 18.95 L17.4 19.05 17.6 18.95 17.65 18.75 17.6 18.55 17.4 18.5 M17.7 18.45 L17.95 18.55 18.15 18.45 18.25 18.2 18.15 18.0 17.9 17.9 Q17.75 17.9 17.7 18.0 L17.6 18.2 17.7 18.45 M19.2 16.15 L17.95 17.4 18.6 18.05 19.85 16.8 19.2 16.15 M19.9 16.4 L19.45 15.9 19.2 15.85 19.1 16.0 19.9 16.4 M17.8 20.25 L16.95 21.15 17.5 21.65 18.3 20.75 17.8 20.25 M16.4 19.8 L16.85 19.75 16.9 19.65 16.95 19.4 16.85 19.2 Q16.5 19.05 16.35 19.4 L16.3 19.55 16.3 19.65 15.9 19.7 Q15.8 20.0 16.05 20.15 L16.35 19.85 16.4 19.8 M18.35 22.3 L18.3 22.5 18.4 22.7 18.55 22.8 18.75 22.7 18.85 22.5 18.75 22.3 18.55 22.25 18.35 22.3 M23.35 24.85 L22.55 25.7 22.8 25.95 23.6 25.1 23.35 24.85" fill="#ffff00" fill-rule="evenodd" stroke="none"/>
    <path d="M12.25 13.3 L12.6 12.8 13.3 12.2 Q13.7 12.3 13.45 12.65 L13.4 12.7 14.4 13.75 13.25 13.8 12.8 13.35 12.75 13.45 Q12.4 13.7 12.25 13.3" fill="#8a8d3a" fill-rule="evenodd" stroke="none"/>
    <path d="M16.35 19.85 L16.4 19.75 16.4 19.8 16.35 19.85" fill="#d8d801" fill-rule="evenodd" stroke="none"/>
    <path d="M11.8 13.8 L12.25 13.3 Q12.4 13.7 12.75 13.45 L12.8 13.35 13.25 13.8 11.8 13.8 M13.3 12.2 L15.3 10.3 15.5 10.3 15.55 10.35 18.15 12.95 18.85 13.55 18.8 13.65 14.4 13.75 13.4 12.7 13.45 12.65 Q13.7 12.3 13.3 12.2" fill="#ffffce" fill-rule="evenodd" stroke="none"/>
    <path d="M15.1 9.9 L15.2 9.9 15.4 9.8 15.65 9.85 15.75 9.85 17.0 11.0 18.35 12.25 19.6 13.4 20.75 14.2 22.4 14.8 24.0 15.6 Q24.75 16.05 25.4 16.65 L26.7 17.9 27.55 18.7 28.6 19.8 28.85 20.1 29.0 20.85 28.7 22.2 27.85 23.95 26.75 25.35 25.7 26.4 24.55 27.4 23.4 28.25 22.45 28.75 21.55 29.05 21.25 28.95 Q20.65 28.75 20.15 28.35 L19.5 27.9 18.5 27.05 17.5 25.95 16.4 24.7 15.25 23.35 14.5 22.0 13.8 20.4 12.8 18.85 11.45 17.4 10.25 16.2 10.15 16.0 9.95 15.5 10.0 15.2 10.05 15.1 14.45 10.6 14.5 10.6 15.1 9.9 M11.8 13.8 L10.5 15.25 10.45 15.45 10.5 15.55 11.45 16.45 12.45 17.45 13.25 18.55 13.95 19.75 14.7 21.25 15.5 22.55 18.25 25.8 18.45 26.0 18.45 26.1 19.4 26.95 20.7 28.05 21.35 28.4 22.2 28.25 22.85 27.75 23.85 26.7 25.1 25.3 25.9 24.4 26.65 23.5 27.4 22.6 28.25 21.55 28.5 21.15 28.4 20.5 27.55 19.45 26.45 18.35 25.25 17.35 23.7 16.25 Q22.9 15.75 22.05 15.4 L21.85 15.35 18.85 13.55 18.15 12.95 15.55 10.35 15.5 10.3 15.3 10.3 13.3 12.2 12.6 12.8 12.25 13.3 11.8 13.8 M25.8 21.95 L26.0 22.05 24.05 24.6 25.8 21.95 M23.85 23.7 L23.25 24.4 22.25 25.25 22.15 25.1 25.05 21.85 25.15 21.6 25.45 21.4 25.6 21.45 23.85 23.7 M21.95 24.5 L21.85 24.55 21.75 24.8 21.45 24.95 21.3 24.4 21.7 24.2 21.8 24.1 22.65 23.3 23.5 22.55 25.15 20.9 24.75 21.7 24.65 21.7 22.35 24.2 22.0 24.3 21.95 24.5 M23.35 24.85 L23.6 25.1 22.8 25.95 22.55 25.7 23.35 24.85" fill="#7d7d4a" fill-rule="evenodd" stroke="none"/>
  </g>
</svg>
