<?xml version="1.0" encoding="UTF-8" standalone="no"?>
<svg xmlns:ffdec="https://www.free-decompiler.com/flash" xmlns:xlink="http://www.w3.org/1999/xlink" ffdec:objectType="shape" height="19.55px" width="27.9px" xmlns="http://www.w3.org/2000/svg">
  <g transform="matrix(1.0, 0.0, 0.0, 1.0, -1.0, -5.6)">
    <path d="M25.25 8.45 L25.95 9.35 Q26.1 9.65 25.9 9.8 L25.6 9.8 Q24.1 9.1 22.6 8.65 19.65 7.85 16.65 7.9 L10.15 7.6 10.25 7.15 10.65 6.9 Q16.4 6.5 22.3 7.2 23.95 7.35 25.25 8.45 M5.0 8.85 Q5.4 8.15 6.1 7.65 7.25 6.95 8.1 7.65 8.55 8.45 7.55 9.2 L7.05 9.6 Q6.3 10.1 5.25 9.95 L4.85 9.8 Q4.8 9.25 5.0 8.85" fill="#ffffff" fill-rule="evenodd" stroke="none"/>
    <path d="M22.9 24.35 L23.35 24.7 23.3 24.8 7.3 24.7 6.9 24.65 6.7 24.5 6.85 24.35 7.3 24.25 22.9 24.35" fill="#babfcf" fill-rule="evenodd" stroke="none"/>
    <path d="M25.25 8.45 Q23.95 7.35 22.3 7.2 16.4 6.5 10.65 6.9 L10.25 7.15 10.15 7.6 16.65 7.9 Q19.65 7.85 22.6 8.65 24.1 9.1 25.6 9.8 L25.9 9.8 Q26.1 9.65 25.95 9.35 L25.25 8.45 M2.1 11.15 Q2.4 9.9 3.35 8.95 4.35 7.9 5.75 7.25 7.15 6.55 8.7 6.45 L10.75 6.35 13.9 6.25 14.45 6.3 17.6 6.35 19.95 6.4 23.1 6.85 Q24.6 7.3 25.85 8.3 L27.3 9.85 27.25 10.55 26.95 11.5 25.5 11.85 21.4 12.05 15.95 12.1 9.7 12.25 3.55 12.2 2.55 11.8 2.1 11.15 M5.0 8.85 Q4.8 9.25 4.85 9.8 L5.25 9.95 Q6.3 10.1 7.05 9.6 L7.55 9.2 Q8.55 8.45 8.1 7.65 7.25 6.95 6.1 7.65 5.4 8.15 5.0 8.85" fill="#b9e9f4" fill-rule="evenodd" stroke="none"/>
    <path d="M27.3 9.85 Q27.75 10.8 27.8 11.7 L27.55 12.9 26.9 13.9 26.05 14.1 3.45 14.0 Q2.4 13.7 2.1 12.75 1.9 11.95 2.1 11.15 L2.55 11.8 3.55 12.2 9.7 12.25 15.95 12.1 21.4 12.05 25.5 11.85 26.95 11.5 27.25 10.55 27.3 9.85 M26.15 14.65 L26.55 14.65 26.45 14.9 26.1 16.3 4.75 16.25 Q4.25 16.25 3.85 15.85 3.45 15.45 3.45 14.9 L3.35 14.65 3.5 14.65 26.0 14.6 26.15 14.65 M24.35 22.3 L23.8 23.95 23.8 24.05 5.9 24.05 5.55 22.3 24.35 22.3" fill="#56c9e4" fill-rule="evenodd" stroke="none"/>
    <path d="M25.55 17.25 L25.3 17.15 25.05 17.25 24.95 17.4 25.05 17.6 25.3 17.65 25.55 17.6 25.65 17.4 25.55 17.25 M21.9 17.65 L22.7 17.7 22.9 17.2 Q22.5 17.25 22.15 17.45 L21.9 17.65 M22.55 18.25 L21.65 18.25 21.65 18.65 22.55 18.65 22.55 18.25 M24.0 17.65 L24.9 17.65 24.9 17.1 24.0 17.1 24.0 17.65 M22.95 17.7 L23.7 17.65 23.9 17.1 23.1 17.2 22.95 17.7 M24.6 18.35 L23.8 18.45 23.65 18.75 24.4 18.8 24.6 18.35 M25.25 18.4 L24.75 18.45 24.6 18.75 25.1 18.6 25.25 18.4 M24.45 19.7 L25.0 19.7 25.0 19.25 24.45 19.25 24.45 19.7 M24.25 19.45 L23.5 19.3 23.5 19.5 24.25 19.65 24.25 19.45 M23.15 19.45 L22.45 19.4 22.45 19.6 23.1 19.7 23.15 19.45 M23.0 21.05 L23.8 21.2 23.85 21.0 23.05 20.9 23.0 21.05 M24.0 20.55 L24.1 20.2 23.25 20.25 24.0 20.55 M22.2 19.45 L21.45 19.45 21.45 19.7 22.2 19.7 22.2 19.45 M21.3 20.6 L21.85 20.6 21.85 20.35 21.3 20.35 21.3 20.6 M21.2 20.85 L21.2 21.1 21.75 21.1 21.75 20.85 21.2 20.85 M22.7 21.15 L22.7 20.9 22.0 20.9 22.0 21.15 22.7 21.15 M13.0 18.75 L14.5 18.8 Q15.25 17.75 16.8 18.25 17.4 18.45 17.85 19.0 L18.55 17.2 19.8 16.8 19.8 18.4 20.9 19.05 20.25 21.05 19.9 21.05 20.2 20.4 Q20.7 19.6 20.0 19.0 L19.2 18.85 19.4 17.25 Q19.4 16.7 19.0 17.25 L18.3 20.5 18.35 21.05 18.6 20.8 19.05 19.45 19.65 19.55 19.35 21.0 19.5 21.1 17.75 21.15 15.5 21.5 Q14.55 21.5 14.05 20.95 L11.1 21.0 10.45 21.45 9.75 21.35 8.75 20.55 8.7 20.55 8.35 21.3 8.1 21.5 7.85 21.45 6.65 18.65 4.9 18.7 4.95 18.15 5.0 17.85 5.1 17.85 5.35 17.6 Q4.7 17.9 4.65 18.5 L4.9 18.85 5.25 18.95 6.5 18.8 Q6.7 20.7 8.05 21.7 L8.3 21.65 Q8.75 21.45 8.8 20.75 9.25 21.55 10.4 21.7 L11.3 21.15 12.45 21.35 14.0 21.15 Q15.75 22.4 17.7 21.4 L18.25 21.7 19.95 21.75 Q21.25 20.45 20.9 18.65 L20.05 18.2 20.15 17.1 19.75 16.55 26.0 16.5 24.5 22.0 22.8 22.15 5.5 22.15 3.95 16.5 18.95 16.55 Q17.85 17.25 17.75 18.7 16.05 17.2 14.4 18.55 L12.95 18.5 12.9 18.45 12.85 18.5 11.15 18.45 10.45 18.1 10.75 17.6 10.6 16.9 9.5 16.65 8.3 16.85 10.1 16.9 Q10.9 17.05 10.55 17.7 L10.35 17.85 10.05 18.05 9.85 18.3 10.05 18.4 10.4 18.35 10.65 18.4 11.25 18.7 12.6 18.75 12.3 19.0 12.15 20.15 12.85 20.85 13.15 20.85 13.85 20.6 14.35 19.55 14.1 18.9 13.65 19.0 12.95 20.15 12.8 19.5 13.0 18.8 13.0 18.75 M23.1 18.3 Q22.35 18.5 23.1 18.7 23.75 18.45 23.1 18.3 M9.7 19.2 Q9.4 19.5 9.4 19.95 9.4 20.4 9.7 20.7 10.0 21.0 10.45 21.0 L11.2 20.7 11.5 19.95 11.2 19.2 10.45 18.9 Q10.0 18.9 9.7 19.2 M5.65 18.5 L7.15 18.15 Q7.3 19.9 8.15 20.9 L8.0 18.0 10.05 17.7 Q10.4 17.55 10.35 17.3 L10.25 17.2 8.55 17.25 Q6.85 17.65 5.4 18.45 5.0 18.65 5.65 18.5 M10.15 19.8 L10.3 19.8 10.65 20.05 10.6 20.1 10.6 20.2 10.3 20.3 10.25 20.25 10.15 20.15 10.15 20.05 10.1 19.8 10.15 19.8 M17.65 19.85 L17.45 19.8 Q16.65 20.6 15.85 20.1 L15.75 19.75 Q15.7 19.35 16.25 19.3 L16.5 19.15 16.5 18.7 16.25 18.65 Q15.55 18.4 15.25 19.05 14.55 20.3 15.65 20.95 16.7 21.25 17.5 20.55 L17.65 19.85" fill="#caf1f7" fill-rule="evenodd" stroke="none"/>
    <path d="M25.55 17.25 L25.65 17.4 25.55 17.6 25.3 17.65 25.05 17.6 24.95 17.4 25.05 17.25 25.3 17.15 25.55 17.25 M22.55 18.25 L22.55 18.65 21.65 18.65 21.65 18.25 22.55 18.25 M21.9 17.65 L22.15 17.45 Q22.5 17.25 22.9 17.2 L22.7 17.7 21.9 17.65 M22.95 17.7 L23.1 17.2 23.9 17.1 23.7 17.65 22.95 17.7 M24.0 17.65 L24.0 17.1 24.9 17.1 24.9 17.65 24.0 17.65 M25.25 18.4 L25.1 18.6 24.6 18.75 24.75 18.45 25.25 18.4 M24.6 18.35 L24.4 18.8 23.65 18.75 23.8 18.45 24.6 18.35 M21.3 20.6 L21.3 20.35 21.85 20.35 21.85 20.6 21.3 20.6 M22.2 19.45 L22.2 19.7 21.45 19.7 21.45 19.45 22.2 19.45 M24.0 20.55 L23.25 20.25 24.1 20.2 24.0 20.55 M23.0 21.05 L23.05 20.9 23.85 21.0 23.8 21.2 23.0 21.05 M23.15 19.45 L23.1 19.7 22.45 19.6 22.45 19.4 23.15 19.45 M24.25 19.45 L24.25 19.65 23.5 19.5 23.5 19.3 24.25 19.45 M24.45 19.7 L24.45 19.25 25.0 19.25 25.0 19.7 24.45 19.7 M21.2 20.85 L21.75 20.85 21.75 21.1 21.2 21.1 21.2 20.85 M22.7 21.15 L22.0 21.15 22.0 20.9 22.7 20.9 22.7 21.15 M12.85 18.5 L12.9 18.45 12.95 18.5 12.85 18.5 M23.1 18.3 Q23.75 18.45 23.1 18.7 22.35 18.5 23.1 18.3" fill="#136b77" fill-rule="evenodd" stroke="none"/>
    <path d="M19.9 21.05 L20.25 21.05 20.9 19.05 19.8 18.4 19.8 16.8 18.55 17.2 17.85 19.0 Q17.4 18.45 16.8 18.25 15.25 17.75 14.5 18.8 L13.0 18.75 12.6 18.75 11.25 18.7 10.65 18.4 10.4 18.35 10.05 18.4 9.85 18.3 10.05 18.05 10.35 17.85 10.55 17.7 Q10.9 17.05 10.1 16.9 L8.3 16.85 9.5 16.65 10.6 16.9 10.75 17.6 10.45 18.1 11.15 18.45 12.85 18.5 12.95 18.5 14.4 18.55 Q16.05 17.2 17.75 18.7 17.85 17.25 18.95 16.55 L19.75 16.55 20.15 17.1 20.05 18.2 20.9 18.65 Q21.25 20.45 19.95 21.75 L18.25 21.7 17.7 21.4 Q15.75 22.4 14.0 21.15 L12.45 21.35 11.3 21.15 10.4 21.7 Q9.25 21.55 8.8 20.75 8.75 21.45 8.3 21.65 L8.05 21.7 Q6.7 20.7 6.5 18.8 L5.25 18.95 4.9 18.85 4.65 18.5 Q4.7 17.9 5.35 17.6 L5.1 17.85 5.0 17.85 4.95 18.15 4.9 18.7 6.65 18.65 7.85 21.45 8.1 21.5 8.35 21.3 8.7 20.55 8.75 20.55 9.75 21.35 10.45 21.45 11.1 21.0 14.05 20.95 Q14.55 21.5 15.5 21.5 L17.75 21.15 19.5 21.1 19.8 21.25 19.9 21.05" fill="#2425c1" fill-rule="evenodd" stroke="none"/>
    <path d="M13.0 18.75 L13.0 18.8 12.8 19.5 12.95 20.15 13.65 19.0 14.1 18.9 14.35 19.55 13.85 20.6 13.15 20.85 12.85 20.85 12.15 20.15 12.3 19.0 12.6 18.75 13.0 18.75 M19.5 21.1 L19.35 21.0 19.65 19.55 19.05 19.45 18.6 20.8 18.35 21.05 18.3 20.5 19.0 17.25 Q19.4 16.7 19.4 17.25 L19.2 18.85 20.0 19.0 Q20.7 19.6 20.2 20.4 L19.9 21.05 19.8 21.25 19.5 21.1 M5.65 18.5 Q5.0 18.65 5.4 18.45 6.85 17.65 8.55 17.25 L10.25 17.2 10.35 17.3 Q10.4 17.55 10.05 17.7 L8.0 18.0 8.15 20.9 Q7.3 19.9 7.15 18.15 L5.65 18.5 M9.7 19.2 Q10.0 18.9 10.45 18.9 L11.2 19.2 11.5 19.95 11.2 20.7 10.45 21.0 Q10.0 21.0 9.7 20.7 9.4 20.4 9.4 19.95 9.4 19.5 9.7 19.2 M10.15 19.8 L10.1 19.8 10.15 20.05 10.15 20.15 10.25 20.25 10.3 20.3 10.6 20.2 10.6 20.1 10.65 20.05 10.3 19.8 10.15 19.8 M17.65 19.85 L17.5 20.55 Q16.7 21.25 15.65 20.95 14.55 20.3 15.25 19.05 15.55 18.4 16.25 18.65 L16.5 18.7 16.5 19.15 16.25 19.3 Q15.7 19.35 15.75 19.75 L15.85 20.1 Q16.65 20.6 17.45 19.8 L17.65 19.85" fill="#7172e3" fill-rule="evenodd" stroke="none"/>
    <path d="M24.15 6.35 Q25.7 7.0 26.95 8.2 27.95 9.1 28.55 10.35 29.1 11.6 28.8 12.95 L28.5 13.65 28.15 14.05 27.95 14.25 27.7 14.35 27.3 14.55 24.8 24.2 24.15 24.25 23.7 24.4 23.55 25.0 23.5 25.0 22.85 25.15 9.25 25.0 7.25 25.1 6.4 25.0 6.3 24.85 6.1 24.35 5.3 24.15 2.7 14.85 2.7 14.75 2.65 14.6 2.2 14.4 Q0.85 13.4 1.05 11.7 1.2 10.1 2.3 8.9 3.3 7.7 4.7 6.9 6.05 6.05 7.6 5.95 L9.15 5.75 10.7 5.7 10.75 5.65 Q15.45 5.5 20.15 5.75 L21.45 5.9 23.65 6.25 24.15 6.35 M2.1 11.15 Q1.9 11.95 2.1 12.75 2.4 13.7 3.45 14.0 L26.05 14.1 26.9 13.9 27.55 12.9 27.8 11.7 Q27.75 10.8 27.3 9.85 L25.85 8.3 Q24.6 7.3 23.1 6.85 L19.95 6.4 17.6 6.35 14.45 6.3 13.9 6.25 10.75 6.35 8.7 6.45 Q7.15 6.55 5.75 7.25 4.35 7.9 3.35 8.95 2.4 9.9 2.1 11.15 M26.15 14.65 L26.0 14.6 3.5 14.65 3.35 14.65 3.45 14.9 Q3.45 15.45 3.85 15.85 4.25 16.25 4.75 16.25 L26.1 16.3 26.45 14.9 26.55 14.65 26.15 14.65 M18.95 16.55 L3.95 16.5 5.5 22.15 22.8 22.15 24.5 22.0 26.0 16.5 19.75 16.55 18.95 16.55 M22.9 24.35 L7.3 24.25 6.85 24.35 6.7 24.5 6.9 24.65 7.3 24.7 23.3 24.8 23.35 24.7 22.9 24.35 M24.35 22.3 L5.55 22.3 5.9 24.05 23.8 24.05 23.8 23.95 24.35 22.3" fill="#566a72" fill-rule="evenodd" stroke="none"/>
  </g>
</svg>
