<?xml version="1.0" encoding="UTF-8" standalone="no"?>
<svg xmlns:ffdec="https://www.free-decompiler.com/flash" xmlns:xlink="http://www.w3.org/1999/xlink" ffdec:objectType="shape" height="27.7px" width="27.65px" xmlns="http://www.w3.org/2000/svg">
  <g transform="matrix(1.0, 0.0, 0.0, 1.0, -1.2, -1.3)">
    <path d="M21.55 18.5 L21.5 18.55 21.4 18.45 21.45 18.4 21.55 18.5" fill="#f87aa9" fill-rule="evenodd" stroke="none"/>
    <path d="M11.6 15.25 L11.25 15.25 11.15 15.2 10.95 15.05 9.1 13.1 9.0 12.8 9.0 12.7 9.05 12.55 Q9.15 11.95 8.85 11.6 L2.2 3.9 2.0 3.7 1.3 2.65 Q1.1 2.05 1.3 1.4 L1.4 1.35 Q2.6 1.05 3.45 2.05 L11.35 8.75 11.95 9.05 12.7 9.15 13.15 9.45 14.95 11.15 15.1 11.25 15.15 11.4 15.15 11.7 15.15 11.75 15.0 11.8 14.7 12.0 14.7 12.05 11.95 14.75 11.9 14.85 11.7 15.1 11.6 15.25 M2.2 1.65 L1.85 1.55 Q1.6 1.5 1.6 1.7 L1.55 1.8 1.55 2.0 1.75 2.75 2.3 3.35 1.75 2.5 1.8 2.35 9.55 10.75 10.35 11.65 10.4 11.8 10.45 12.3 11.7 13.6 13.4 11.75 13.45 11.75 13.75 11.5 14.0 11.45 14.2 11.55 14.1 11.9 13.9 12.15 13.85 12.15 12.7 13.4 11.85 14.35 11.75 14.35 Q11.25 14.3 10.95 13.9 L10.35 13.3 Q9.8 12.85 9.75 12.2 L9.65 12.0 Q9.5 12.25 9.5 12.6 L9.55 12.75 11.35 14.7 11.65 14.65 11.75 14.6 14.45 11.9 14.5 11.8 14.6 11.55 13.3 10.3 12.6 9.7 12.45 9.65 12.0 9.75 2.2 1.65" fill="#666666" fill-rule="evenodd" stroke="none"/>
    <path d="M2.2 1.65 L12.0 9.75 12.05 9.8 12.6 9.9 13.4 10.4 13.55 10.6 13.75 10.75 13.85 10.85 13.9 11.05 13.9 11.1 13.75 11.5 13.45 11.75 13.4 11.75 13.0 11.6 10.7 9.5 1.65 2.0 1.75 1.75 2.2 1.65" fill="#ffffff" fill-rule="evenodd" stroke="none"/>
    <path d="M13.4 11.75 L11.7 13.6 10.45 12.3 10.4 11.8 10.35 11.65 9.55 10.75 1.8 2.35 1.75 2.5 2.3 3.35 1.75 2.75 1.55 2.0 1.55 1.8 1.6 1.7 Q1.6 1.5 1.85 1.55 L2.2 1.65 1.75 1.75 1.65 2.0 10.7 9.5 13.0 11.6 13.4 11.75 M12.0 9.75 L12.45 9.65 12.6 9.7 13.3 10.3 14.6 11.55 14.5 11.8 14.45 11.9 11.75 14.6 11.65 14.65 11.35 14.7 9.55 12.75 9.5 12.6 Q9.5 12.25 9.65 12.0 L9.75 12.2 Q9.8 12.85 10.35 13.3 L10.95 13.9 Q11.25 14.3 11.75 14.35 L11.85 14.35 12.7 13.4 13.85 12.15 13.9 12.15 14.1 11.9 14.2 11.55 14.0 11.45 13.75 11.5 13.9 11.1 13.9 11.05 13.85 10.85 13.75 10.75 13.55 10.6 13.4 10.4 12.6 9.9 12.05 9.8 12.0 9.75" fill="#999999" fill-rule="evenodd" stroke="none"/>
    <path d="M12.7 15.85 L12.6 15.75 12.5 15.65 12.6 15.7 12.6 15.75 12.7 15.8 12.7 15.85" fill="#fccbdd" fill-rule="evenodd" stroke="none"/>
    <path d="M21.55 18.5 L21.45 18.4 18.3 15.25 15.4 12.35 15.1 12.3 15.05 12.25 15.0 12.3 13.85 13.45 15.7 15.3 15.0 15.3 13.45 13.85 12.75 14.55 Q12.3 14.75 12.25 15.3 L12.35 15.5 12.5 15.65 12.6 15.75 12.7 15.85 17.15 20.45 17.3 20.25 17.85 20.15 18.05 18.75 16.4 19.4 16.35 19.3 18.1 18.2 Q18.1 17.85 18.25 17.55 18.45 17.0 18.75 16.9 L18.95 16.85 19.45 17.05 19.5 17.1 19.4 17.25 19.35 17.3 18.5 18.45 18.3 20.35 19.15 20.55 19.35 20.35 Q19.25 19.85 19.45 19.4 19.9 18.35 20.8 18.85 L20.8 18.9 Q21.0 18.5 21.4 18.45 L21.5 18.55 21.65 19.8 22.05 19.25 22.0 19.0 21.55 18.5 M22.4 19.25 L22.2 19.3 21.65 20.2 21.2 19.0 20.9 19.3 20.85 19.95 Q20.5 21.2 19.55 20.7 L19.5 20.75 18.15 20.8 17.9 21.2 24.9 28.3 25.85 28.2 28.05 26.05 28.15 25.95 Q28.45 25.35 28.1 24.9 L22.4 19.25 M23.75 21.5 L23.95 21.35 24.25 21.5 24.25 21.65 24.3 21.75 22.8 22.3 22.75 22.15 23.2 21.9 21.75 22.3 22.6 21.75 23.75 21.5 M23.6 20.8 L23.55 21.05 23.05 21.1 21.6 21.65 21.35 21.55 21.95 21.0 23.6 20.8 M25.65 23.65 L25.95 23.65 25.95 23.9 23.55 26.05 25.65 23.65 M21.2 21.5 L20.6 21.75 19.7 21.95 19.45 22.05 19.3 21.9 20.15 21.6 21.2 21.5 M20.3 19.3 L20.4 19.25 20.45 19.2 20.45 19.15 20.2 18.9 20.15 18.95 20.1 18.95 20.0 19.05 20.05 19.2 20.3 19.3 M11.6 15.25 L11.7 15.1 11.9 14.85 11.95 14.75 14.7 12.05 14.7 12.0 15.0 11.8 15.15 11.75 15.2 11.75 15.5 11.85 15.75 12.0 15.75 12.05 28.35 24.6 Q29.25 25.2 28.55 26.35 27.55 27.95 25.85 28.8 L24.7 28.7 11.75 15.7 11.7 15.6 11.6 15.35 11.6 15.25 M18.95 17.2 L18.6 17.8 19.1 17.3 19.1 17.25 18.95 17.2 M26.7 24.8 L24.7 26.8 26.8 24.5 26.7 24.8 M24.1 26.4 L24.75 25.35 26.5 24.05 24.1 26.4 M27.25 24.85 L27.2 25.3 25.15 27.15 26.95 24.85 27.25 24.85 M17.45 20.8 L17.55 20.85 17.65 20.75 17.7 20.65 17.7 20.5 17.6 20.45 Q17.5 20.45 17.45 20.55 L17.4 20.65 17.45 20.8 M20.05 19.35 L19.6 19.75 20.1 20.3 20.55 19.85 20.05 19.35" fill="#383173" fill-rule="evenodd" stroke="none"/>
    <path d="M21.5 18.55 L21.55 18.5 22.0 19.0 22.05 19.25 21.65 19.8 21.5 18.55 M21.45 18.4 L21.4 18.45 Q21.0 18.5 20.8 18.9 L20.8 18.85 Q19.9 18.35 19.45 19.4 19.25 19.85 19.35 20.35 L19.15 20.55 18.3 20.35 18.5 18.45 19.35 17.3 19.4 17.25 19.5 17.1 19.45 17.05 18.95 16.85 18.75 16.9 Q18.45 17.0 18.25 17.55 18.1 17.85 18.1 18.2 L16.35 19.3 16.4 19.4 18.05 18.75 17.85 20.15 17.3 20.25 17.15 20.45 12.7 15.85 12.7 15.8 12.6 15.75 12.6 15.7 12.5 15.65 12.35 15.5 15.0 15.3 15.7 15.3 18.3 15.25 21.45 18.4 M23.6 20.8 L21.95 21.0 21.35 21.55 21.6 21.65 23.05 21.1 23.55 21.05 23.6 20.8 M23.75 21.5 L22.6 21.75 21.75 22.3 23.2 21.9 22.75 22.15 22.8 22.3 24.3 21.75 24.25 21.65 24.25 21.5 23.95 21.35 23.75 21.5 M22.4 19.25 L28.1 24.9 Q28.45 25.35 28.15 25.95 L28.05 26.05 25.85 28.2 24.9 28.3 17.9 21.2 18.15 20.8 19.5 20.75 19.55 20.7 Q20.5 21.2 20.85 19.95 L20.9 19.3 21.2 19.0 21.65 20.2 22.2 19.3 22.4 19.25 M20.3 19.3 L20.05 19.2 20.0 19.05 20.1 18.95 20.15 18.95 20.2 18.9 20.45 19.15 20.45 19.2 20.4 19.25 20.3 19.3 M21.2 21.5 L20.15 21.6 19.3 21.9 19.45 22.05 19.7 21.95 20.6 21.75 21.2 21.5 M25.65 23.65 L23.55 26.05 25.95 23.9 25.95 23.65 25.65 23.65 M16.2 15.8 Q16.05 15.65 15.95 15.65 15.75 15.65 15.55 15.8 L16.65 16.85 16.95 16.6 16.2 15.8 M18.95 17.2 L19.1 17.25 19.1 17.3 18.6 17.8 18.95 17.2 M20.05 19.35 L20.55 19.85 20.1 20.3 19.6 19.75 20.05 19.35 M17.45 20.8 L17.4 20.65 17.45 20.55 Q17.5 20.45 17.6 20.45 L17.7 20.5 17.7 20.65 17.65 20.75 17.55 20.85 17.45 20.8 M27.25 24.85 L26.95 24.85 25.15 27.15 27.2 25.3 27.25 24.85 M24.1 26.4 L26.5 24.05 24.75 25.35 24.1 26.4 M26.7 24.8 L26.8 24.5 24.7 26.8 26.7 24.8" fill="#7979ff" fill-rule="evenodd" stroke="none"/>
    <path d="M12.35 15.5 L12.25 15.3 Q12.3 14.75 12.75 14.55 L13.45 13.85 15.0 15.3 12.35 15.5 M15.7 15.3 L13.85 13.45 15.0 12.3 15.05 12.25 15.1 12.3 15.4 12.35 18.3 15.25 15.7 15.3" fill="#c8c8ff" fill-rule="evenodd" stroke="none"/>
    <path d="M16.2 15.8 L16.95 16.6 16.65 16.85 15.55 15.8 Q15.75 15.65 15.95 15.65 16.05 15.65 16.2 15.8" fill="#9d9dff" fill-rule="evenodd" stroke="none"/>
  </g>
</svg>
