<?xml version="1.0" encoding="UTF-8" standalone="no"?>
<svg xmlns:ffdec="https://www.free-decompiler.com/flash" xmlns:xlink="http://www.w3.org/1999/xlink" ffdec:objectType="shape" height="22.7px" width="24.95px" xmlns="http://www.w3.org/2000/svg">
  <g transform="matrix(1.0, 0.0, 0.0, 1.0, -2.85, -3.8)">
    <path d="M15.8 3.85 L15.7 3.8 15.8 3.8 15.8 3.85 M15.65 4.95 L15.75 5.05 15.75 5.1 15.65 4.95 M15.8 5.8 L15.8 6.3 15.75 6.3 15.75 6.4 15.7 6.3 14.3 6.55 14.25 6.05 15.1 6.25 15.8 5.8" fill="#999999" fill-rule="evenodd" stroke="none"/>
    <path d="M15.8 6.5 L15.25 6.6 14.75 6.9 14.5 6.6 13.75 6.6 13.8 5.55 13.85 5.45 13.9 5.4 14.0 5.85 14.25 6.05 14.3 6.55 15.7 6.3 15.75 6.4 15.8 6.5" fill="#666666" fill-rule="evenodd" stroke="none"/>
    <path d="M5.7 17.8 Q6.15 17.4 6.75 17.55 6.85 17.3 7.05 17.55 L5.15 20.6 5.15 20.8 5.55 21.25 5.75 21.7 Q6.1 19.65 7.55 19.95 L6.8 22.35 7.3 22.35 7.4 21.45 Q8.25 20.0 9.45 19.4 L9.9 19.45 10.2 19.75 9.8 20.3 Q9.25 20.8 9.3 21.6 L10.45 21.8 11.1 20.45 Q11.55 20.15 11.75 21.2 12.0 22.35 12.55 22.15 L12.95 21.25 Q13.05 21.1 13.25 21.05 L13.45 20.95 13.55 20.6 13.8 19.55 14.9 19.7 15.2 19.75 15.55 19.5 15.8 19.7 16.4 21.15 16.4 20.6 16.6 19.45 16.2 19.55 15.55 19.05 Q14.7 17.4 15.55 16.05 15.7 15.9 15.85 16.05 16.2 16.1 16.6 16.45 L16.85 17.25 17.2 17.7 17.3 18.9 17.25 19.2 17.0 19.25 18.3 21.8 Q18.25 21.35 18.35 21.0 L18.65 20.15 19.35 20.05 18.55 18.35 18.35 18.35 18.05 18.35 17.8 18.1 17.5 17.35 17.5 16.75 Q17.7 16.5 17.8 16.6 L19.85 18.0 20.45 20.4 Q20.5 19.75 20.9 19.45 L21.7 18.9 21.75 18.45 21.85 18.1 22.1 17.75 22.75 18.0 23.35 18.55 23.35 19.7 23.9 20.5 24.25 21.45 24.25 21.5 Q24.8 21.55 25.35 21.95 L25.8 22.15 25.5 21.5 25.5 21.15 25.55 21.0 25.0 20.95 Q23.8 19.95 24.0 18.7 L24.1 18.7 25.65 20.6 25.7 20.8 26.3 20.6 27.2 21.25 27.8 23.75 27.75 25.4 27.55 26.05 27.35 26.15 26.95 26.5 3.95 26.5 3.85 26.45 Q3.25 25.95 2.85 25.0 2.8 23.45 3.3 21.5 3.85 19.15 5.7 17.8 M23.1 21.55 L22.45 21.15 22.45 21.8 22.9 22.15 23.1 21.55 M21.7 16.3 L21.65 16.75 21.25 17.4 21.45 17.6 21.55 18.1 21.55 18.15 21.5 18.5 21.2 18.95 Q20.85 18.7 20.85 18.45 20.7 17.65 20.95 17.4 L20.65 17.15 Q20.2 15.95 21.05 15.7 L21.7 16.3 M12.2 13.75 L12.2 12.45 12.65 12.45 12.65 13.75 12.2 13.75 M12.7 14.55 L12.85 15.0 13.3 16.8 Q13.05 17.8 12.45 17.2 L12.0 17.9 12.45 18.45 12.6 19.2 Q12.85 18.7 13.3 19.3 13.7 19.95 13.3 20.5 L12.65 20.4 12.4 20.0 Q12.3 20.7 11.8 20.5 L11.2 19.5 Q10.55 19.95 10.45 18.95 L12.55 14.45 12.7 14.55 M15.8 14.45 Q15.75 13.85 16.15 13.8 L16.55 14.2 Q16.9 14.9 16.55 15.6 L15.85 15.45 15.8 14.45 M19.6 13.8 Q19.9 14.0 20.05 14.55 L20.25 15.15 19.5 15.6 19.25 15.1 Q18.95 14.15 19.6 13.8 M8.4 16.6 L8.55 16.9 8.65 17.95 7.85 18.1 7.8 17.8 Q7.85 16.7 8.4 16.6 M9.2 16.5 L9.45 16.4 Q10.5 16.7 9.85 17.8 L9.35 17.9 Q8.65 17.45 9.2 16.5 M9.6 14.85 L9.45 14.3 Q9.4 13.95 9.6 13.7 L9.95 13.45 Q10.15 13.45 10.3 13.7 L10.45 14.3 10.3 14.85 9.95 15.1 9.6 14.85 M17.8 12.35 L18.05 12.2 18.3 12.35 18.4 12.65 18.3 13.0 18.05 13.15 17.8 13.0 17.7 12.65 17.8 12.35" fill="#637c67" fill-rule="evenodd" stroke="none"/>
    <path d="M15.8 6.5 L16.5 7.05 17.4 7.7 Q19.25 9.05 20.1 11.5 21.0 11.55 21.55 12.5 L22.35 13.95 23.45 15.6 23.9 16.4 24.8 17.55 Q26.35 19.1 27.2 21.25 L26.3 20.6 25.7 20.8 25.65 20.6 24.1 18.7 24.0 18.7 Q23.8 19.95 25.0 20.95 L25.55 21.0 25.5 21.15 25.5 21.5 25.8 22.15 25.35 21.95 Q24.8 21.55 24.25 21.5 L24.25 21.45 23.9 20.5 23.35 19.7 23.35 18.55 22.75 18.0 22.1 17.75 21.85 18.1 21.75 18.45 21.7 18.9 20.9 19.45 Q20.5 19.75 20.45 20.4 L19.85 18.0 17.8 16.6 Q17.7 16.5 17.5 16.75 L17.5 17.35 17.8 18.1 18.05 18.35 18.35 18.35 18.55 18.35 19.35 20.05 18.65 20.15 18.35 21.0 Q18.25 21.35 18.3 21.8 L17.0 19.25 17.25 19.2 17.3 18.9 17.2 17.7 16.85 17.25 16.6 16.45 Q16.2 16.1 15.85 16.05 15.7 15.9 15.55 16.05 14.7 17.4 15.55 19.05 L16.2 19.55 16.6 19.45 16.4 20.6 16.4 21.15 15.8 19.7 15.55 19.5 15.2 19.75 14.9 19.7 13.8 19.55 13.55 20.6 13.45 20.95 13.25 21.05 Q13.05 21.1 12.95 21.25 L12.55 22.15 Q12.0 22.35 11.75 21.2 11.55 20.15 11.1 20.45 L10.45 21.8 9.3 21.6 Q9.25 20.8 9.8 20.3 L10.2 19.75 9.9 19.45 9.45 19.4 Q8.25 20.0 7.4 21.45 L7.3 22.35 6.8 22.35 7.55 19.95 Q6.1 19.65 5.75 21.7 L5.55 21.25 5.15 20.8 5.15 20.6 7.05 17.55 Q6.85 17.3 6.75 17.55 6.15 17.4 5.7 17.8 L6.5 16.9 Q6.55 14.3 8.55 13.35 9.05 12.15 9.7 11.15 L11.35 8.85 Q12.45 7.5 13.75 6.6 L14.5 6.6 14.75 6.9 15.25 6.6 15.8 6.5 M21.7 16.3 L21.05 15.7 Q20.2 15.95 20.65 17.15 L20.95 17.4 Q20.7 17.65 20.85 18.45 20.85 18.7 21.2 18.95 L21.5 18.5 21.55 18.15 21.55 18.1 21.45 17.6 21.25 17.4 21.65 16.75 21.7 16.3 M23.1 21.55 L22.9 22.15 22.45 21.8 22.45 21.15 23.1 21.55 M17.8 12.35 L17.7 12.65 17.8 13.0 18.05 13.15 18.3 13.0 18.4 12.65 18.3 12.35 18.05 12.2 17.8 12.35 M9.6 14.85 L9.95 15.1 10.3 14.85 10.45 14.3 10.3 13.7 Q10.15 13.45 9.95 13.45 L9.6 13.7 Q9.4 13.95 9.45 14.3 L9.6 14.85 M9.2 16.5 Q8.65 17.45 9.35 17.9 L9.85 17.8 Q10.5 16.7 9.45 16.4 L9.2 16.5 M8.4 16.6 Q7.85 16.7 7.8 17.8 L7.85 18.1 8.65 17.95 8.55 16.9 8.4 16.6 M19.6 13.8 Q18.95 14.15 19.25 15.1 L19.5 15.6 20.25 15.15 20.05 14.55 Q19.9 14.0 19.6 13.8 M15.8 14.45 L15.85 15.45 16.55 15.6 Q16.9 14.9 16.55 14.2 L16.15 13.8 Q15.75 13.85 15.8 14.45 M12.7 14.55 L12.55 14.45 10.45 18.95 Q10.55 19.95 11.2 19.5 L11.8 20.5 Q12.3 20.7 12.4 20.0 L12.65 20.4 13.3 20.5 Q13.7 19.95 13.3 19.3 12.85 18.7 12.6 19.2 L12.45 18.45 12.0 17.9 12.45 17.2 Q13.05 17.8 13.3 16.8 L12.85 15.0 12.7 14.55 M12.2 13.75 L12.65 13.75 12.65 12.45 12.2 12.45 12.2 13.75" fill="#a3b6a6" fill-rule="evenodd" stroke="none"/>
    <path d="M15.5 5.6 L15.35 5.25 14.9 5.1 Q14.65 5.1 14.5 5.25 L14.3 5.6 14.5 5.95 14.9 6.1 15.35 5.95 15.5 5.6 M15.75 5.1 L15.8 5.8 15.1 6.25 14.25 6.05 14.0 5.85 13.9 5.4 14.35 4.95 14.85 4.6 15.65 4.95 15.75 5.1" fill="#fe8061" fill-rule="evenodd" stroke="none"/>
    <path d="M15.5 5.6 L15.35 5.95 14.9 6.1 14.5 5.95 14.3 5.6 14.5 5.25 Q14.65 5.1 14.9 5.1 L15.35 5.25 15.5 5.6" fill="#ff3333" fill-rule="evenodd" stroke="none"/>
  </g>
</svg>
