<?xml version="1.0" encoding="UTF-8" standalone="no"?>
<svg xmlns:ffdec="https://www.free-decompiler.com/flash" xmlns:xlink="http://www.w3.org/1999/xlink" ffdec:objectType="shape" height="22.7px" width="24.95px" xmlns="http://www.w3.org/2000/svg">
  <g transform="matrix(1.0, 0.0, 0.0, 1.0, -2.85, -3.8)">
    <path d="M15.8 3.8 L15.8 3.85 15.7 3.8 15.8 3.8 M15.65 4.95 L15.75 5.05 15.75 5.1 15.65 4.95 M15.75 6.3 L15.75 6.4 15.7 6.3 15.75 6.3" fill="#999999" fill-rule="evenodd" stroke="none"/>
    <path d="M15.35 5.25 L14.9 5.1 Q14.65 5.1 14.5 5.25 L14.3 5.6 14.5 5.95 14.9 6.1 15.35 5.95 15.5 5.6 15.35 5.25 M15.75 5.1 L15.8 5.8 15.1 6.25 14.25 6.05 14.0 5.85 13.9 5.45 13.9 5.4 14.35 4.95 14.85 4.6 15.65 4.95 15.75 5.1" fill="#fe8061" fill-rule="evenodd" stroke="none"/>
    <path d="M15.35 5.25 L15.5 5.6 15.35 5.95 14.9 6.1 14.5 5.95 14.3 5.6 14.5 5.25 Q14.65 5.1 14.9 5.1 L15.35 5.25" fill="#ff3333" fill-rule="evenodd" stroke="none"/>
    <path d="M13.9 5.4 L13.9 5.45 13.85 5.45 13.9 5.4" fill="#666666" fill-rule="evenodd" stroke="none"/>
    <path d="M15.8 6.5 L16.5 7.05 17.4 7.7 Q19.25 9.05 20.1 11.5 21.0 11.55 21.55 12.5 L22.35 13.95 23.45 15.6 23.8 16.2 24.8 17.55 25.5 18.4 26.15 19.3 26.7 20.3 27.2 21.25 26.3 20.6 25.7 20.8 24.1 18.7 Q23.8 19.35 24.15 19.9 L25.0 20.95 25.5 21.05 25.5 21.15 25.55 21.5 25.8 22.15 25.35 21.95 24.25 21.5 23.9 20.5 23.35 19.7 23.35 18.55 22.45 17.85 22.2 17.85 21.75 18.45 21.7 18.9 Q21.0 19.25 20.65 19.9 L20.45 20.4 19.85 18.0 17.7 16.6 Q17.3 17.15 17.65 17.7 L18.15 18.25 18.35 18.35 18.6 18.4 19.35 20.05 18.65 20.15 18.4 21.05 18.3 21.8 17.0 19.25 17.2 19.15 17.25 19.05 17.3 18.9 17.2 17.7 17.05 17.5 16.85 17.25 16.6 16.55 16.6 16.45 Q16.2 16.1 15.85 16.05 15.7 15.9 15.55 16.05 L15.3 16.6 15.5 18.25 15.55 18.4 15.8 18.95 15.8 19.0 15.85 19.05 16.2 19.55 16.4 19.5 16.35 20.85 16.35 21.0 15.8 19.7 15.2 19.75 13.8 19.55 13.45 20.95 12.95 21.25 12.45 22.1 12.35 22.2 12.0 21.7 11.45 20.55 11.35 20.4 11.15 20.45 10.45 21.8 9.3 21.6 9.85 20.3 10.2 19.75 9.9 19.45 9.45 19.4 8.4 20.3 7.4 21.45 7.3 22.35 6.8 22.35 7.55 19.95 6.4 20.25 5.75 21.7 5.15 20.8 5.7 19.85 6.95 17.55 6.9 17.45 5.7 17.8 6.5 16.9 Q6.55 14.3 8.55 13.35 9.05 12.15 9.7 11.15 L11.35 8.85 Q12.45 7.5 13.75 6.6 L14.5 6.6 14.75 6.9 15.25 6.6 15.8 6.5 M21.55 16.75 L21.7 16.3 21.05 15.7 Q20.5 15.85 20.5 16.35 L20.75 17.15 20.95 17.4 20.9 17.8 20.95 18.75 21.4 18.4 21.55 18.15 21.55 18.1 21.4 17.65 21.25 17.4 21.55 16.75 M17.8 12.35 L17.7 12.65 17.8 13.0 18.05 13.15 18.3 13.0 18.4 12.65 18.3 12.35 18.05 12.2 17.8 12.35 M9.6 14.85 L9.95 15.1 10.3 14.85 10.45 14.3 10.3 13.7 Q10.15 13.45 9.95 13.45 L9.6 13.7 Q9.4 13.95 9.45 14.3 L9.6 14.85 M9.2 16.5 L9.0 16.95 9.0 17.25 Q9.1 17.85 9.6 17.95 L9.8 17.75 10.1 17.35 10.05 16.9 Q9.95 16.55 9.45 16.4 L9.2 16.5 M8.55 16.9 L8.4 16.6 7.95 17.0 7.85 17.35 7.8 17.8 7.85 18.1 8.65 17.95 8.6 16.95 8.55 16.9 M19.25 15.1 L19.5 15.6 20.25 15.15 20.05 14.55 Q19.9 14.0 19.6 13.8 18.95 14.15 19.25 15.1 M15.85 15.45 L16.55 15.6 Q16.9 14.9 16.55 14.2 L16.15 13.8 Q15.75 13.85 15.8 14.45 L15.85 15.45 M12.65 14.5 L12.6 14.45 11.45 16.8 10.45 18.95 10.7 19.6 10.95 19.7 11.2 19.5 12.05 20.55 12.1 20.45 12.4 20.0 12.65 20.4 13.45 20.25 13.45 19.95 Q13.5 19.2 12.8 19.05 L12.7 19.1 12.0 17.9 12.45 17.2 12.75 17.3 Q13.3 17.3 13.25 16.7 L12.65 14.5 M12.2 13.75 L12.65 13.75 12.65 12.45 12.2 12.45 12.2 13.75" fill="#ffc8e6" fill-rule="evenodd" stroke="none"/>
    <path d="M5.7 17.8 L6.9 17.45 6.95 17.55 5.7 19.85 5.15 20.8 5.75 21.7 6.4 20.25 7.55 19.95 6.8 22.35 7.3 22.35 7.4 21.45 8.4 20.3 9.45 19.4 9.9 19.45 10.2 19.75 9.85 20.3 9.3 21.6 10.45 21.8 11.15 20.45 11.35 20.4 11.45 20.55 12.0 21.7 12.35 22.2 12.45 22.1 12.95 21.25 13.45 20.95 13.8 19.55 15.2 19.75 15.8 19.7 16.35 21.0 16.35 20.85 16.4 19.5 16.2 19.55 15.85 19.05 16.1 19.35 Q17.05 18.8 16.1 17.65 L15.7 17.45 Q15.45 17.8 15.5 18.25 L15.3 16.6 15.55 16.05 Q15.7 15.9 15.85 16.05 16.2 16.1 16.6 16.45 L16.6 16.55 16.85 17.25 17.05 17.5 17.2 17.7 17.3 18.9 17.25 19.05 17.2 19.15 17.0 19.25 18.3 21.8 18.4 21.05 18.65 20.15 19.35 20.05 18.6 18.4 18.7 18.1 18.75 17.65 Q17.95 17.5 18.2 18.15 L18.35 18.35 18.15 18.25 17.65 17.7 Q17.3 17.15 17.7 16.6 L19.85 18.0 20.45 20.4 20.65 19.9 Q21.0 19.25 21.7 18.9 L21.75 18.45 22.2 17.85 22.45 17.85 23.35 18.55 23.35 19.7 23.9 20.5 24.25 21.5 25.35 21.95 25.8 22.15 25.55 21.5 25.5 21.15 25.5 21.05 25.0 20.95 24.15 19.9 Q23.8 19.35 24.1 18.7 L25.7 20.8 26.3 20.6 27.2 21.25 27.4 22.15 26.7 21.5 26.6 21.5 Q26.7 22.7 26.4 24.0 L26.05 23.9 25.95 24.0 25.8 24.1 25.8 24.35 25.4 24.9 24.65 24.7 Q24.55 23.95 24.0 23.7 L23.9 23.7 23.05 23.75 23.0 24.85 22.05 24.7 21.85 24.25 21.4 24.25 Q20.7 24.55 20.6 25.15 L18.55 25.05 18.55 24.4 18.05 24.1 17.7 23.6 16.35 25.1 Q15.4 25.3 14.75 24.7 L14.6 24.5 14.35 24.5 14.5 23.95 14.35 23.5 Q14.95 22.45 14.55 21.45 L14.35 21.2 14.15 21.45 13.9 22.65 13.7 23.35 13.3 24.25 13.3 24.45 12.25 24.7 10.3 25.1 9.0 24.85 8.15 24.6 8.2 24.1 8.2 24.05 7.8 23.8 7.65 23.85 7.3 25.05 6.25 25.25 6.0 24.95 5.6 24.65 5.8 23.85 5.75 23.55 Q4.8 23.55 4.7 24.45 L4.7 24.6 4.4 24.75 3.25 24.35 3.25 24.15 3.05 23.85 2.9 23.8 3.25 22.1 3.75 20.5 4.25 19.5 4.75 18.8 4.65 19.45 4.7 19.6 Q5.25 19.8 5.65 19.1 5.9 18.65 5.65 18.2 L5.1 18.4 5.7 17.8 M21.55 16.75 L21.25 17.4 21.4 17.65 21.55 18.1 21.55 18.15 21.4 18.4 20.95 18.75 20.9 17.8 20.95 17.4 20.75 17.15 20.5 16.35 Q20.5 15.85 21.05 15.7 L21.7 16.3 21.55 16.75 M20.55 23.5 Q21.2 23.25 20.75 22.8 L20.4 22.45 20.1 23.05 20.5 23.5 20.55 23.5 M22.8 21.8 L23.1 21.55 22.45 21.15 22.45 21.8 22.8 21.8 M15.8 5.8 L15.8 6.3 15.75 6.3 15.7 6.3 14.3 6.55 14.25 6.05 15.1 6.25 15.8 5.8 M9.6 14.85 L9.45 14.3 Q9.4 13.95 9.6 13.7 L9.95 13.45 Q10.15 13.45 10.3 13.7 L10.45 14.3 10.3 14.85 9.95 15.1 9.6 14.85 M17.8 12.35 L18.05 12.2 18.3 12.35 18.4 12.65 18.3 13.0 18.05 13.15 17.8 13.0 17.7 12.65 17.8 12.35 M8.55 16.9 L8.6 16.95 8.65 17.95 7.85 18.1 7.8 17.8 7.85 17.35 7.95 17.0 8.4 16.6 8.55 16.9 M9.2 16.5 L9.45 16.4 Q9.95 16.55 10.05 16.9 L10.1 17.35 9.8 17.75 9.6 17.95 Q9.1 17.85 9.0 17.25 L9.0 16.95 9.2 16.5 M4.15 22.45 Q4.15 22.95 4.5 22.55 L4.6 22.15 Q4.15 22.0 4.15 22.45 M9.85 23.7 Q10.45 23.3 9.8 23.05 9.2 23.35 9.85 23.7 M15.85 15.45 L15.8 14.45 Q15.75 13.85 16.15 13.8 L16.55 14.2 Q16.9 14.9 16.55 15.6 L15.85 15.45 M19.25 15.1 Q18.95 14.15 19.6 13.8 19.9 14.0 20.05 14.55 L20.25 15.15 19.5 15.6 19.25 15.1 M12.65 14.5 L13.25 16.7 Q13.3 17.3 12.75 17.3 L12.45 17.2 12.0 17.9 12.7 19.1 12.8 19.05 Q13.5 19.2 13.45 19.95 L13.45 20.25 12.65 20.4 12.4 20.0 12.1 20.45 12.05 20.55 11.2 19.5 10.95 19.7 10.7 19.6 10.45 18.95 11.45 16.8 12.6 14.45 12.65 14.5 M12.2 13.75 L12.2 12.45 12.65 12.45 12.65 13.75 12.2 13.75 M11.5 18.05 L11.3 18.4 Q11.2 19.4 11.9 19.3 12.45 18.8 11.8 17.95 11.6 17.95 11.5 18.05 M11.7 24.15 L11.75 23.75 11.2 23.2 Q10.7 24.3 11.4 24.65 L11.6 24.55 11.7 24.15 M17.1 22.6 L16.9 22.55 Q16.35 22.8 16.9 23.3 L17.1 23.3 17.35 23.05 17.1 22.6 M19.75 23.75 Q19.75 23.15 19.15 22.95 18.6 23.05 18.9 23.75 L19.1 24.0 Q19.75 24.15 19.75 23.75" fill="#c9619f" fill-rule="evenodd" stroke="none"/>
    <path d="M15.8 6.5 L15.25 6.6 14.75 6.9 14.5 6.6 13.75 6.6 13.8 5.55 13.85 5.45 13.9 5.45 14.0 5.85 14.25 6.05 14.3 6.55 15.7 6.3 15.75 6.4 15.8 6.5 M15.85 19.05 L15.8 19.0 15.8 18.95 15.55 18.4 15.5 18.25 Q15.45 17.8 15.7 17.45 L16.1 17.65 Q17.05 18.8 16.1 19.35 L15.85 19.05 M18.6 18.4 L18.35 18.35 18.2 18.15 Q17.95 17.5 18.75 17.65 L18.7 18.1 18.6 18.4 M27.4 22.15 L27.7 23.8 27.8 24.65 27.65 25.85 26.95 26.5 3.95 26.5 Q3.2 25.7 2.85 24.8 L2.9 23.8 3.05 23.85 3.25 24.15 3.25 24.35 4.4 24.75 4.7 24.6 4.7 24.45 Q4.8 23.55 5.75 23.55 L5.8 23.85 5.6 24.65 6.0 24.95 6.25 25.25 7.3 25.05 7.65 23.85 7.8 23.8 8.2 24.05 8.2 24.1 8.15 24.6 9.0 24.85 10.3 25.1 12.25 24.7 13.3 24.45 13.3 24.25 13.7 23.35 13.9 22.65 14.15 21.45 14.35 21.2 14.55 21.45 Q14.95 22.45 14.35 23.5 L14.5 23.95 14.35 24.5 14.6 24.5 14.75 24.7 Q15.4 25.3 16.35 25.1 L17.7 23.6 18.05 24.1 18.55 24.4 18.55 25.05 20.6 25.15 Q20.7 24.55 21.4 24.25 L21.85 24.25 22.05 24.7 23.0 24.85 23.05 23.75 23.9 23.7 24.0 23.7 Q24.55 23.95 24.65 24.7 L25.4 24.9 25.8 24.35 25.8 24.1 25.95 24.0 26.05 23.9 26.4 24.0 Q26.7 22.7 26.6 21.5 L26.7 21.5 27.4 22.15 M4.75 18.8 L4.9 18.6 5.1 18.4 5.65 18.2 Q5.9 18.65 5.65 19.1 5.25 19.8 4.7 19.6 L4.65 19.45 4.75 18.8 M22.8 21.8 L22.45 21.8 22.45 21.15 23.1 21.55 22.8 21.8 M20.55 23.5 L20.5 23.5 20.1 23.05 20.4 22.45 20.75 22.8 Q21.2 23.25 20.55 23.5 M9.85 23.7 Q9.2 23.35 9.8 23.05 10.45 23.3 9.85 23.7 M4.15 22.45 Q4.15 22.0 4.6 22.15 L4.5 22.55 Q4.15 22.95 4.15 22.45 M19.75 23.75 Q19.75 24.15 19.1 24.0 L18.9 23.75 Q18.6 23.05 19.15 22.95 19.75 23.15 19.75 23.75 M17.1 22.6 L17.35 23.05 17.1 23.3 16.9 23.3 Q16.35 22.8 16.9 22.55 L17.1 22.6 M11.7 24.15 L11.6 24.55 11.4 24.65 Q10.7 24.3 11.2 23.2 L11.75 23.75 11.7 24.15 M11.5 18.05 Q11.6 17.95 11.8 17.95 12.45 18.8 11.9 19.3 11.2 19.4 11.3 18.4 L11.5 18.05" fill="#712654" fill-rule="evenodd" stroke="none"/>
  </g>
</svg>
