<?xml version="1.0" encoding="UTF-8" standalone="no"?>
<svg xmlns:ffdec="https://www.free-decompiler.com/flash" xmlns:xlink="http://www.w3.org/1999/xlink" ffdec:objectType="shape" height="26.05px" width="24.3px" xmlns="http://www.w3.org/2000/svg">
  <g transform="matrix(1.0, 0.0, 0.0, 1.0, -3.0, -2.35)">
    <path d="M18.15 7.0 L17.75 6.15 22.05 6.55 25.3 7.2 25.7 7.3 26.0 7.35 26.5 7.8 26.15 8.4 25.1 8.8 24.05 9.2 21.8 9.7 19.15 10.05 15.95 10.1 12.2 9.95 9.05 9.55 6.9 9.15 5.85 8.8 5.1 8.55 3.8 7.85 5.7 7.15 7.45 6.8 9.2 6.45 12.8 6.15 12.5 6.95 10.6 7.05 9.05 7.2 7.25 7.8 18.5 8.25 18.7 7.85 24.1 7.95 21.1 7.35 19.65 7.15 18.15 7.0 M12.6 7.25 Q13.25 5.9 14.45 6.3 L14.5 6.95 14.8 7.15 Q14.8 4.9 15.7 3.0 L15.6 4.35 15.2 6.55 15.55 7.15 15.9 6.25 16.4 6.15 16.55 6.15 Q17.4 6.45 17.9 7.3 L15.35 7.45 12.6 7.25 M6.0 18.0 L4.05 8.95 6.8 9.5 10.6 10.15 15.15 10.3 19.75 10.15 25.75 9.2 26.2 9.0 24.3 17.35 22.6 20.75 22.0 21.85 Q17.4 23.85 12.35 22.95 9.75 22.6 7.55 21.35 L6.0 18.0" fill="#fbeafa" fill-rule="evenodd" stroke="none"/>
    <path d="M12.5 6.95 L12.8 6.15 9.2 6.45 7.45 6.8 5.7 7.15 3.8 7.85 5.1 8.55 5.85 8.8 6.9 9.15 9.05 9.55 12.2 9.95 15.95 10.1 19.15 10.05 21.8 9.7 24.05 9.2 25.1 8.8 26.15 8.4 26.5 7.8 26.0 7.35 25.7 7.3 25.3 7.2 22.05 6.55 17.75 6.15 18.15 7.0 18.0 7.25 17.9 7.3 Q17.4 6.45 16.55 6.15 L16.4 6.15 15.9 6.25 15.55 7.15 15.2 6.55 15.6 4.35 15.7 3.0 Q14.8 4.9 14.8 7.15 L14.5 6.95 14.45 6.3 Q13.25 5.9 12.6 7.25 L12.5 6.95 M27.3 7.55 L27.2 8.35 23.55 24.0 23.55 24.15 Q23.65 24.9 23.2 25.4 L23.15 25.55 Q22.5 26.4 21.65 26.85 20.0 27.7 18.25 28.1 L13.4 28.35 Q10.6 28.1 8.3 26.75 6.75 25.9 6.5 24.25 L3.0 7.8 3.25 7.35 Q3.7 6.7 4.45 6.55 9.45 5.2 14.7 5.35 15.35 4.1 15.25 2.5 L15.6 2.35 15.9 2.5 Q16.55 3.9 15.8 5.35 L18.0 5.4 23.55 6.0 25.2 6.35 Q26.5 6.45 27.3 7.55 M24.3 17.35 L26.2 9.0 25.75 9.2 19.75 10.15 15.15 10.3 10.6 10.15 6.8 9.5 4.05 8.95 6.0 18.0 Q6.35 21.55 8.0 24.75 8.7 26.1 10.1 26.55 14.0 27.8 17.9 27.15 21.15 26.9 22.55 24.4 L23.25 22.6 24.3 17.35" fill="#6c166d" fill-rule="evenodd" stroke="none"/>
    <path d="M18.15 7.0 L19.65 7.15 21.1 7.35 24.1 7.95 18.7 7.85 18.5 8.25 7.25 7.8 9.05 7.2 10.6 7.05 12.5 6.95 12.6 7.25 15.35 7.45 17.9 7.3 18.0 7.25 18.15 7.0 M6.0 18.0 L7.55 21.35 Q9.75 22.6 12.35 22.95 17.4 23.85 22.0 21.85 L22.6 20.75 24.3 17.35 23.25 22.6 22.55 24.4 Q21.15 26.9 17.9 27.15 14.0 27.8 10.1 26.55 8.7 26.1 8.0 24.75 6.35 21.55 6.0 18.0" fill="#e1b6e4" fill-rule="evenodd" stroke="none"/>
  </g>
</svg>
