<?xml version="1.0" encoding="UTF-8" standalone="no"?>
<svg xmlns:ffdec="https://www.free-decompiler.com/flash" xmlns:xlink="http://www.w3.org/1999/xlink" ffdec:objectType="shape" height="26.7px" width="26.55px" xmlns="http://www.w3.org/2000/svg">
  <g transform="matrix(1.0, 0.0, 0.0, 1.0, -2.1, -2.15)">
    <path d="M5.8 17.2 L3.95 8.75 6.7 9.3 10.5 9.95 12.5 10.0 17.8 10.05 19.65 9.95 25.65 9.0 26.1 8.8 24.35 16.45 22.35 17.9 21.9 14.8 Q20.7 15.15 19.55 16.2 L19.05 16.65 18.0 17.3 17.0 17.8 16.6 17.8 16.35 16.9 14.2 18.75 13.65 17.95 12.4 15.95 Q11.75 15.3 10.7 15.2 L9.95 15.3 9.45 16.2 9.05 18.25 6.75 14.75 5.8 17.2 M3.85 7.75 L3.7 7.65 3.85 7.6 3.85 7.75 M12.55 5.95 L12.7 5.95 12.4 6.75 10.5 6.85 8.95 7.0 7.15 7.6 18.4 8.05 18.6 7.65 24.0 7.75 21.0 7.15 19.55 6.95 18.05 6.8 17.65 5.95 18.4 6.0 Q18.15 6.25 18.45 6.6 21.85 6.45 25.1 7.45 22.7 8.8 18.6 9.2 L10.75 8.5 5.3 7.55 12.0 6.05 12.55 5.95 M12.5 7.05 Q13.15 5.7 14.35 6.1 L14.4 6.75 14.7 6.95 Q14.7 4.7 15.6 2.8 L15.5 4.15 15.1 6.35 15.45 6.95 15.8 6.05 16.3 5.95 16.45 5.95 Q17.3 6.25 17.8 7.1 L15.25 7.25 12.5 7.05" fill="#f47596" fill-rule="evenodd" stroke="none"/>
    <path d="M12.4 6.75 L12.5 7.05 15.25 7.25 17.8 7.1 17.9 7.05 18.05 6.8 19.55 6.95 21.0 7.15 24.0 7.75 18.6 7.65 18.4 8.05 7.15 7.6 8.95 7.0 10.5 6.85 12.4 6.75" fill="#bd3356" fill-rule="evenodd" stroke="none"/>
    <path d="M4.0 12.8 L2.9 7.6 3.15 7.15 Q3.6 6.5 4.35 6.35 9.35 5.0 14.6 5.15 15.25 3.9 15.15 2.3 L15.5 2.15 15.8 2.3 Q16.45 3.7 15.7 5.15 L17.9 5.2 23.45 5.8 25.1 6.15 Q26.4 6.25 27.2 7.35 L25.85 13.35 25.1 16.15 24.35 16.45 26.1 8.8 25.65 9.0 19.65 9.95 17.8 10.05 24.4 9.0 Q25.7 8.6 26.45 7.85 L26.6 7.6 26.25 7.3 Q23.7 6.2 21.0 5.9 L18.65 5.85 18.4 6.0 17.65 5.95 18.05 6.8 17.9 7.05 17.8 7.1 Q17.3 6.25 16.45 5.95 L16.3 5.95 15.8 6.05 15.45 6.95 15.1 6.35 15.5 4.15 15.6 2.8 Q14.7 4.7 14.7 6.95 L14.4 6.75 14.35 6.1 Q13.15 5.7 12.5 7.05 L12.4 6.75 12.7 5.95 12.55 5.95 Q12.85 5.6 12.1 5.6 8.05 5.7 4.3 6.95 L3.9 7.4 3.85 7.6 3.7 7.65 3.85 7.75 4.6 8.3 7.95 9.35 12.5 10.0 10.5 9.95 6.7 9.3 3.95 8.75 5.8 17.2 5.15 16.7 4.8 13.75 4.75 13.25 4.45 12.95 4.0 12.8" fill="#9d0d31" fill-rule="evenodd" stroke="none"/>
    <path d="M12.5 10.0 L7.95 9.35 4.6 8.3 3.85 7.75 3.85 7.6 3.9 7.4 4.3 6.95 Q8.05 5.7 12.1 5.6 12.85 5.6 12.55 5.95 L12.0 6.05 5.3 7.55 10.75 8.5 18.6 9.2 Q22.7 8.8 25.1 7.45 21.85 6.45 18.45 6.6 18.15 6.25 18.4 6.0 L18.65 5.85 21.0 5.9 Q23.7 6.2 26.25 7.3 L26.6 7.6 26.45 7.85 Q25.7 8.6 24.4 9.0 L17.8 10.05 12.5 10.0" fill="#fabed0" fill-rule="evenodd" stroke="none"/>
    <path d="M27.85 14.7 L27.85 15.05 27.15 15.85 26.55 16.45 26.45 16.55 Q26.25 17.1 25.55 17.0 L25.4 16.65 26.0 14.05 Q26.35 13.7 26.4 14.75 L26.65 15.5 27.85 14.7 M20.1 23.5 L19.9 24.05 20.7 23.75 21.2 24.05 21.45 24.4 21.6 24.35 25.45 18.6 24.7 21.35 26.55 18.05 Q27.05 17.3 27.1 17.8 L23.7 25.65 22.15 26.45 24.3 21.0 23.95 21.6 21.35 26.55 20.5 27.35 17.75 27.7 18.75 24.35 17.4 27.4 16.4 27.7 14.3 28.25 13.15 27.75 13.45 26.05 12.95 27.4 11.65 23.1 11.75 23.9 12.75 27.6 12.8 27.7 12.4 27.65 11.4 24.9 12.25 27.7 9.95 27.35 9.15 26.7 8.15 23.5 9.1 27.0 6.65 26.15 Q6.8 24.8 6.2 23.8 L4.5 20.55 2.85 17.45 2.65 16.95 2.65 16.85 Q3.75 17.35 4.35 18.25 6.1 20.7 7.5 23.35 L7.15 20.75 7.7 21.35 9.0 23.65 7.75 19.8 9.85 24.85 10.35 24.15 11.25 23.9 9.9 18.05 9.95 18.1 10.65 19.25 12.1 23.0 13.7 23.5 13.7 19.65 14.2 19.45 14.65 19.5 14.7 21.7 15.95 19.45 16.8 19.75 17.0 23.3 Q18.6 19.35 21.2 16.1 L21.95 18.75 22.0 18.85 20.8 21.0 Q19.75 22.85 19.05 25.1 18.9 25.6 19.2 25.65 L20.1 23.5 M3.4 13.15 L4.1 13.35 4.6 16.15 4.5 16.15 Q3.55 15.65 3.5 14.3 L3.4 13.15" fill="#bec4d3" fill-rule="evenodd" stroke="none"/>
    <path d="M27.15 15.85 L27.85 15.05 27.85 14.7 28.35 14.8 Q28.2 16.5 27.1 17.8 27.05 17.3 26.55 18.05 L24.7 21.35 25.45 18.6 21.6 24.35 21.45 24.4 21.2 24.05 20.7 23.75 19.9 24.05 20.1 23.5 Q20.9 21.0 22.3 18.75 22.85 17.85 24.15 17.25 L24.8 16.9 24.95 17.95 25.5 17.85 27.15 15.85 M25.55 17.0 L25.55 17.05 25.5 17.0 25.55 17.0 M2.65 16.85 L2.45 14.2 4.15 16.7 4.4 16.85 5.75 17.9 6.1 18.2 6.85 15.8 9.2 19.1 9.3 19.3 9.6 16.8 9.9 15.7 11.65 15.8 12.9 17.65 14.15 19.1 16.1 17.35 16.2 18.15 Q16.85 18.15 17.3 17.8 L18.0 17.3 19.05 16.65 Q20.3 15.85 21.65 15.45 L21.95 18.75 21.2 16.1 Q18.6 19.35 17.0 23.3 L16.8 19.75 15.95 19.45 14.7 21.7 14.65 19.5 14.2 19.45 13.7 19.65 13.7 23.5 12.1 23.0 10.65 19.25 9.95 18.1 9.9 18.05 11.25 23.9 10.35 24.15 9.85 24.85 7.75 19.8 9.0 23.65 7.7 21.35 7.15 20.75 7.5 23.35 Q6.1 20.7 4.35 18.25 3.75 17.35 2.65 16.85" fill="#ffffff" fill-rule="evenodd" stroke="none"/>
    <path d="M4.0 12.8 L4.45 12.95 4.75 13.25 4.8 13.75 5.15 16.7 5.8 17.2 6.75 14.75 9.05 18.25 9.45 16.2 9.95 15.3 10.7 15.2 Q11.75 15.3 12.4 15.95 L13.65 17.95 14.2 18.75 16.35 16.9 16.6 17.8 17.0 17.8 18.0 17.3 17.3 17.8 Q16.85 18.15 16.2 18.15 L16.1 17.35 14.15 19.1 12.9 17.65 11.65 15.8 9.9 15.7 9.6 16.8 9.3 19.3 9.2 19.1 6.85 15.8 6.1 18.2 5.75 17.9 4.4 16.85 4.15 16.7 2.45 14.2 2.65 16.85 2.65 16.95 2.85 17.45 4.5 20.55 6.2 23.8 Q6.8 24.8 6.65 26.15 L9.1 27.0 8.15 23.5 9.15 26.7 9.95 27.35 12.25 27.7 11.4 24.9 12.4 27.65 12.8 27.7 12.75 27.6 11.75 23.9 11.65 23.1 12.95 27.4 13.45 26.05 13.15 27.75 14.3 28.25 16.4 27.7 17.4 27.4 18.75 24.35 17.75 27.7 20.5 27.35 21.35 26.55 23.95 21.6 24.3 21.0 22.15 26.45 23.7 25.65 27.1 17.8 Q28.2 16.5 28.35 14.8 L27.85 14.7 26.65 15.5 26.4 14.75 Q26.35 13.7 26.0 14.05 L25.4 16.65 25.55 17.0 Q26.25 17.1 26.45 16.55 L26.55 16.45 27.15 15.85 25.5 17.85 24.95 17.95 24.8 16.9 24.15 17.25 Q22.85 17.85 22.3 18.75 20.9 21.0 20.1 23.5 L19.2 25.65 Q18.9 25.6 19.05 25.1 19.75 22.85 20.8 21.0 L22.0 18.85 21.95 18.75 21.65 15.45 Q20.3 15.85 19.05 16.65 L19.55 16.2 Q20.7 15.15 21.9 14.8 L22.35 17.9 24.35 16.45 25.1 16.15 25.85 13.35 26.55 12.5 26.8 14.7 27.65 14.25 28.65 14.45 Q28.65 15.85 28.0 17.1 25.7 21.5 24.2 26.15 L23.5 26.25 21.9 27.0 20.9 27.85 17.25 28.0 Q16.6 28.55 15.75 28.85 14.15 28.85 12.7 28.15 11.3 27.6 9.9 27.8 L8.2 27.05 Q7.25 26.5 6.25 26.25 5.3 21.2 2.1 17.25 L2.2 13.95 3.05 14.3 3.2 12.45 4.0 12.8 M25.55 17.0 L25.5 17.0 25.55 17.05 25.55 17.0 M3.4 13.15 L3.5 14.3 Q3.55 15.65 4.5 16.15 L4.6 16.15 4.1 13.35 3.4 13.15" fill="#5f0722" fill-rule="evenodd" stroke="none"/>
  </g>
</svg>
