<?xml version="1.0" encoding="UTF-8" standalone="no"?>
<svg xmlns:ffdec="https://www.free-decompiler.com/flash" xmlns:xlink="http://www.w3.org/1999/xlink" ffdec:objectType="shape" height="26.6px" width="25.7px" xmlns="http://www.w3.org/2000/svg">
  <g transform="matrix(1.0, 0.0, 0.0, 1.0, -2.2, -1.75)">
    <path d="M9.45 25.25 L10.45 25.5 11.5 25.45 25.55 10.55 26.8 8.75 Q28.15 6.3 27.2 4.1 L27.15 3.95 27.05 3.8 27.0 3.65 Q25.85 2.2 23.8 2.2 20.5 2.15 18.0 4.8 L4.75 18.9 Q4.5 21.05 5.95 22.6 7.35 24.15 8.7 24.9 L8.9 25.05 9.4 25.25 9.45 25.25 M10.35 23.7 L10.8 24.0 10.25 23.8 9.6 23.5 Q6.85 21.7 5.95 18.4 L6.35 19.25 Q7.25 21.35 9.1 22.65 L16.0 15.7 Q14.05 14.35 13.1 12.3 L14.05 11.3 14.75 10.6 13.3 12.25 Q14.3 14.3 16.15 15.5 L19.05 12.7 9.25 22.85 10.35 23.7 M27.4 3.9 L27.85 5.25 Q28.25 7.85 26.4 10.3 L26.15 10.55 11.65 25.95 11.55 26.0 11.5 26.0 11.15 26.2 Q9.85 27.15 9.0 28.35 L8.7 28.35 8.25 28.05 8.25 27.5 8.55 27.05 8.1 26.9 7.45 27.5 7.4 27.6 7.0 27.65 6.15 27.05 6.4 26.45 6.7 25.9 6.85 25.65 6.4 25.95 5.9 25.6 5.95 25.45 5.95 25.4 6.15 25.15 5.95 25.05 Q5.55 25.2 5.2 25.4 L4.65 25.75 4.6 25.8 4.1 25.3 5.1 24.15 5.0 23.95 Q4.8 24.0 4.55 24.25 L4.3 24.35 4.25 24.4 4.1 24.35 4.0 24.25 Q3.1 23.7 4.2 22.9 L4.05 22.9 3.7 22.85 3.25 23.2 2.55 23.35 2.25 22.0 2.25 21.9 4.15 20.0 4.05 18.95 4.05 18.75 4.25 18.55 17.6 4.5 Q19.8 2.35 22.5 1.9 25.7 1.25 27.4 3.9 M5.9 22.95 L5.45 23.55 5.5 24.05 5.05 24.6 Q4.15 25.45 4.8 25.3 L5.7 24.45 Q5.8 24.3 5.95 24.35 L6.05 24.45 Q6.4 24.8 6.85 24.15 L5.9 22.95 M4.15 23.65 L4.95 23.25 5.0 23.3 Q5.75 22.9 5.35 22.35 L4.15 23.65 M4.7 21.65 L4.35 20.6 2.55 22.2 Q2.5 22.8 2.75 23.25 L3.75 22.25 4.55 22.5 4.85 22.05 4.7 21.65 M12.3 24.15 L12.4 24.2 12.25 24.15 12.3 24.15 M10.35 26.05 L10.1 26.05 9.95 26.0 8.95 26.9 Q8.5 27.5 8.75 27.8 L10.3 26.15 10.35 26.05 M6.5 25.25 Q6.75 25.45 6.7 25.05 L7.15 24.2 6.5 24.9 6.5 25.25 M9.25 25.7 L9.2 25.65 7.55 24.6 7.2 25.05 7.35 25.55 6.5 26.85 7.35 27.3 8.4 26.15 8.95 26.15 9.25 25.7" fill="#333333" fill-rule="evenodd" stroke="none"/>
    <path d="M9.45 25.25 L9.4 25.25 9.45 25.2 9.45 25.25" fill="#ffffff" fill-rule="evenodd" stroke="none"/>
    <path d="M4.7 21.65 L4.85 22.05 4.55 22.5 3.75 22.25 2.75 23.25 Q2.5 22.8 2.55 22.2 L4.35 20.6 4.7 21.65 M4.15 23.65 L5.35 22.35 Q5.75 22.9 5.0 23.3 L4.95 23.25 4.15 23.65 M5.9 22.95 L6.85 24.15 Q6.4 24.8 6.05 24.45 L5.95 24.35 Q5.8 24.3 5.7 24.45 L4.8 25.3 Q4.15 25.45 5.05 24.6 L5.5 24.05 5.45 23.55 5.9 22.95 M10.35 26.05 L10.3 26.15 8.75 27.8 Q8.5 27.5 8.95 26.9 L9.95 26.0 10.1 26.05 10.35 26.05 M9.25 25.7 L8.95 26.15 8.4 26.15 7.35 27.3 6.5 26.85 7.35 25.55 7.2 25.05 7.55 24.6 9.2 25.65 9.25 25.7 M6.5 25.25 L6.5 24.9 7.15 24.2 6.7 25.05 Q6.75 25.45 6.5 25.25" fill="#aeb5ca" fill-rule="evenodd" stroke="none"/>
    <path d="M27.05 3.8 L27.15 3.95 27.2 4.1 Q28.15 6.3 26.8 8.75 L25.55 10.55 11.5 25.45 10.45 25.5 9.45 25.25 9.45 25.2 9.4 25.25 8.9 25.05 8.95 25.0 9.0 25.0 10.25 23.8 10.8 24.0 10.35 23.7 12.2 21.95 15.65 18.35 20.25 13.55 23.55 10.05 25.9 7.15 Q27.2 5.45 27.05 3.8 M12.3 24.15 L12.25 24.15 12.4 24.2 12.3 24.15" fill="#414756" fill-rule="evenodd" stroke="none"/>
    <path d="M8.9 25.05 L8.7 24.9 Q7.35 24.15 5.95 22.6 4.5 21.05 4.75 18.9 L18.0 4.8 Q20.5 2.15 23.8 2.2 25.85 2.2 27.0 3.65 L27.05 3.8 Q27.2 5.45 25.9 7.15 L23.55 10.05 20.25 13.55 15.65 18.35 12.2 21.95 10.35 23.7 9.25 22.85 19.05 12.7 16.15 15.5 Q14.3 14.3 13.3 12.25 L14.75 10.6 20.95 5.1 21.0 5.1 22.6 5.15 Q24.65 5.15 24.65 3.25 22.75 1.8 20.65 3.6 14.25 9.0 9.25 15.85 L14.05 11.3 13.1 12.3 Q14.05 14.35 16.0 15.7 L9.1 22.65 Q7.25 21.35 6.35 19.25 L5.95 18.4 Q6.85 21.7 9.6 23.5 L10.25 23.8 9.0 25.0 8.95 25.0 8.9 25.05" fill="#59648c" fill-rule="evenodd" stroke="none"/>
    <path d="M14.05 11.3 L9.25 15.85 Q14.25 9.0 20.65 3.6 22.75 1.8 24.65 3.25 24.65 5.15 22.6 5.15 L21.0 5.1 20.95 5.1 14.75 10.6 14.05 11.3" fill="#c2c7d3" fill-rule="evenodd" stroke="none"/>
  </g>
</svg>
