<?xml version="1.0" encoding="UTF-8" standalone="no"?>
<svg xmlns:ffdec="https://www.free-decompiler.com/flash" xmlns:xlink="http://www.w3.org/1999/xlink" ffdec:objectType="shape" height="10.8px" width="20.6px" xmlns="http://www.w3.org/2000/svg">
  <g transform="matrix(1.0, 0.0, 0.0, 1.0, 11.35, 8.85)">
    <path d="M8.6 -2.8 L8.65 -3.05 8.35 -3.9 8.95 -3.4 6.1 -7.15 5.35 -8.2 3.95 -6.95 Q2.85 -6.05 1.7 -5.85 L1.4 -5.45 1.45 -5.55 2.45 -7.7 1.65 -8.2 1.25 -5.85 1.15 -5.85 1.1 -5.8 0.35 -5.7 Q-1.0 -6.35 -2.0 -6.1 L-1.6 -5.95 -1.0 -5.65 -2.1 -5.7 -2.2 -6.2 -1.8 -6.95 Q-0.4 -5.9 1.2 -6.25 1.15 -7.5 1.65 -8.5 L2.3 -8.05 2.75 -7.65 1.7 -6.05 Q3.35 -6.9 4.5 -8.05 L4.95 -8.65 5.15 -8.85 Q6.65 -6.85 8.35 -5.15 9.6 -3.8 9.1 -2.15 L8.5 -2.1 8.1 -1.3 7.85 -0.95 Q6.55 -0.8 5.95 0.2 L5.55 0.0 Q5.0 1.0 3.65 1.4 L3.2 1.15 2.0 1.5 1.7 1.25 -1.8 1.7 1.55 0.85 2.35 1.2 Q4.35 1.0 5.55 -0.45 L6.3 -0.55 4.95 -3.6 6.45 -1.15 6.9 -0.95 7.2 -1.3 Q7.95 -1.1 8.2 -2.0 L8.0 -2.55 6.8 -4.1 8.1 -2.65 8.6 -2.8 M-0.75 -5.65 L0.05 -5.6 0.5 -5.3 0.25 -5.35 Q-2.0 -4.7 -4.35 -4.75 L-8.35 -5.0 -8.8 -5.15 -9.65 -5.3 Q-9.15 -4.95 -9.75 -4.55 L-10.55 -3.65 -10.75 -3.75 -10.15 -4.85 -9.75 -5.55 -8.25 -5.3 -6.75 -5.0 -5.2 -5.0 -1.6 -5.35 -0.65 -5.6 -0.75 -5.65 M0.8 -5.1 L1.45 -5.35 1.4 -5.25 1.15 -4.95 0.8 -5.1 M1.45 -5.25 Q2.55 -5.55 3.7 -6.2 L4.4 -6.55 Q3.3 -5.8 1.95 -5.35 L1.45 -5.25 M-9.55 -0.55 Q-9.1 -2.45 -7.95 -4.3 L-8.5 -4.35 -8.6 -4.4 -8.5 -4.4 -6.85 -4.25 -7.9 -4.25 -8.3 -3.2 Q-9.15 -1.1 -9.6 1.25 L-8.65 1.25 -8.45 1.3 -8.25 1.55 -7.6 1.4 -7.3 1.4 Q-6.55 1.25 -6.8 0.2 L-6.15 -3.7 -6.25 -2.0 -6.7 0.8 -6.75 1.6 -3.1 1.9 -7.9 1.75 -10.3 1.3 -11.35 0.95 -11.05 0.85 -10.55 0.65 -10.25 1.1 -9.8 1.15 -9.55 -0.55 M-5.4 0.3 L-4.95 -2.8 -4.75 -3.55 -5.1 0.55 -5.15 1.55 Q-5.6 1.2 -5.45 0.6 L-5.4 0.3 M-3.05 0.65 L-2.95 -2.5 -2.85 -3.25 -2.8 1.0 -2.9 1.15 -3.05 0.65 M1.15 0.35 L-0.1 -4.55 0.25 -3.45 1.4 0.5 1.2 0.8 1.15 0.35 M3.25 -0.55 L2.05 -5.2 3.45 -0.8 3.45 -0.1 3.25 -0.55 M4.9 -3.55 L4.1 -5.4 4.2 -5.25 5.0 -3.9 4.9 -3.55 M6.35 -4.7 L5.35 -6.15 6.25 -5.2 6.35 -4.7 M-2.7 1.85 L-2.9 1.85 -2.95 1.6 Q-2.9 1.1 -2.7 1.85 M-1.35 -4.35 L0.05 -4.75 -0.6 -4.4 -1.35 -4.35" fill="#333333" fill-rule="evenodd" stroke="none"/>
    <path d="M1.25 -5.85 L1.65 -8.2 2.45 -7.7 1.45 -5.55 1.4 -5.45 1.7 -5.85 Q2.85 -6.05 3.95 -6.95 L5.35 -8.2 6.1 -7.15 8.95 -3.4 8.35 -3.9 8.65 -3.05 8.6 -2.8 8.2 -3.4 6.25 -5.2 5.35 -6.15 6.35 -4.7 6.8 -4.1 8.0 -2.55 7.45 -2.3 6.3 -4.0 6.85 -2.5 6.6 -2.0 5.0 -3.9 4.2 -5.25 4.1 -5.4 4.9 -3.55 5.4 -1.2 4.95 -1.05 4.35 -0.6 3.6 -2.1 3.45 -0.8 2.05 -5.2 3.25 -0.55 2.0 -4.0 2.4 0.2 1.4 0.5 0.25 -3.45 -0.1 -4.55 1.15 0.35 0.85 0.05 -0.15 -3.6 0.4 0.2 -1.25 0.5 Q-1.2 -1.15 -1.85 -2.6 L-1.85 1.05 -2.2 1.1 Q-2.5 1.35 -2.8 1.0 L-2.85 -3.25 -2.95 -2.5 -3.05 0.65 -3.2 -2.5 -3.25 -2.6 -3.35 -2.25 -3.35 -2.85 Q-3.55 -0.75 -4.05 0.85 L-4.35 0.8 -4.6 1.1 -5.1 0.55 -4.75 -3.55 -4.95 -2.8 -5.4 0.3 -5.6 0.2 Q-6.45 -1.0 -5.95 -2.45 L-6.25 -2.0 -6.15 -3.7 -6.8 0.2 -6.9 -2.7 -7.1 -1.9 Q-7.55 -0.3 -7.6 1.4 L-8.25 1.55 -8.45 1.3 Q-7.95 -0.55 -7.6 -2.4 L-7.85 -2.0 Q-8.75 -0.55 -8.65 1.25 L-9.6 1.25 Q-9.15 -1.1 -8.3 -3.2 L-7.9 -4.25 -6.85 -4.25 -8.5 -4.4 -8.6 -4.4 -8.5 -4.35 -7.95 -4.3 Q-9.1 -2.45 -9.55 -0.55 L-9.7 -0.45 Q-9.45 -1.15 -9.75 -1.95 L-9.75 -2.1 -9.3 -3.85 -9.0 -4.45 -8.85 -4.9 -8.8 -5.15 -8.35 -5.0 -4.35 -4.75 Q-2.0 -4.7 0.25 -5.35 0.2 -4.95 0.5 -4.65 0.75 -4.4 1.15 -4.35 1.5 -4.35 1.75 -4.65 L1.95 -5.35 Q3.3 -5.8 4.4 -6.55 L3.7 -6.2 Q2.55 -5.55 1.45 -5.25 L1.4 -5.25 1.45 -5.35 0.8 -5.1 0.5 -5.3 0.05 -5.6 -0.75 -5.65 -1.0 -5.65 -1.6 -5.95 -2.0 -6.1 Q-1.0 -6.35 0.35 -5.7 L1.1 -5.8 1.25 -5.85 M-1.35 -4.35 L-0.6 -4.4 0.05 -4.75 -1.35 -4.35" fill="#d5d0c1" fill-rule="evenodd" stroke="none"/>
    <path d="M0.5 -5.3 L0.8 -5.1 1.15 -4.95 1.4 -5.25 1.45 -5.25 1.95 -5.35 1.75 -4.65 Q1.5 -4.35 1.15 -4.35 0.75 -4.4 0.5 -4.65 0.2 -4.95 0.25 -5.35 L0.5 -5.3 M-8.8 -5.15 L-8.85 -4.9 -9.0 -4.45 -9.3 -3.85 -9.75 -2.1 -9.8 -2.35 Q-9.85 -3.0 -10.25 -3.3 L-10.55 -3.65 -9.75 -4.55 Q-9.15 -4.95 -9.65 -5.3 L-8.8 -5.15 M-9.7 -0.45 L-9.55 -0.55 -9.8 1.15 -10.25 1.1 -10.55 0.65 -10.15 0.25 -9.7 -0.45 M-8.65 1.25 Q-8.75 -0.55 -7.85 -2.0 L-7.6 -2.4 Q-7.95 -0.55 -8.45 1.3 L-8.65 1.25 M-7.6 1.4 Q-7.55 -0.3 -7.1 -1.9 L-6.9 -2.7 -6.8 0.2 Q-6.55 1.25 -7.3 1.4 L-7.6 1.4 M-6.25 -2.0 L-5.95 -2.45 Q-6.45 -1.0 -5.6 0.2 L-5.4 0.3 -5.45 0.6 Q-5.6 1.2 -5.15 1.55 L-5.1 0.55 -4.6 1.1 -4.35 0.8 -4.05 0.85 Q-3.55 -0.75 -3.35 -2.85 L-3.35 -2.25 -3.25 -2.6 -3.2 -2.5 -3.05 0.65 -2.9 1.15 -2.8 1.0 Q-2.5 1.35 -2.2 1.1 L-1.85 1.05 -1.85 -2.6 Q-1.2 -1.15 -1.25 0.5 L0.4 0.2 -0.15 -3.6 0.85 0.05 1.15 0.35 1.2 0.8 1.4 0.5 2.4 0.2 2.0 -4.0 3.25 -0.55 3.45 -0.1 3.45 -0.8 3.6 -2.1 4.35 -0.6 4.95 -1.05 5.4 -1.2 4.9 -3.55 5.0 -3.9 6.6 -2.0 6.85 -2.5 6.3 -4.0 7.45 -2.3 8.0 -2.55 8.2 -2.0 Q7.95 -1.1 7.2 -1.3 L6.9 -0.95 6.45 -1.15 4.95 -3.6 6.3 -0.55 5.55 -0.45 Q4.35 1.0 2.35 1.2 L1.55 0.85 -1.8 1.7 -2.7 1.85 Q-2.9 1.1 -2.95 1.6 L-2.9 1.85 -3.1 1.9 -6.75 1.6 -6.7 0.8 -6.25 -2.0 M6.8 -4.1 L6.35 -4.7 6.25 -5.2 8.2 -3.4 8.6 -2.8 8.1 -2.65 6.8 -4.1" fill="#aca488" fill-rule="evenodd" stroke="none"/>
  </g>
</svg>
