<?xml version="1.0" encoding="UTF-8" standalone="no"?>
<svg xmlns:ffdec="https://www.free-decompiler.com/flash" xmlns:xlink="http://www.w3.org/1999/xlink" ffdec:objectType="shape" height="28.4px" width="19.05px" xmlns="http://www.w3.org/2000/svg">
  <g transform="matrix(1.0, 0.0, 0.0, 1.0, -5.6, -0.95)">
    <path d="M19.25 10.65 L20.05 10.9 Q20.25 10.95 20.45 11.15 L20.65 11.55 20.25 12.7 Q15.15 13.35 10.05 12.8 L9.7 12.55 9.65 12.3 9.75 12.45 10.1 12.65 15.15 12.8 20.2 12.5 20.5 11.7 20.05 11.45 19.85 11.9 19.35 11.95 19.35 11.9 Q20.1 11.3 19.25 10.65 M9.6 11.8 Q9.65 10.65 10.8 10.5 L12.65 10.8 11.55 10.7 10.35 10.8 10.55 11.3 10.35 11.9 9.8 11.55 9.6 11.8 M15.05 10.9 L11.75 10.35 14.95 2.0 18.45 10.25 16.3 10.8 18.8 10.65 15.5 10.9 15.25 10.9 15.05 10.9 M20.55 14.6 L20.85 14.65 21.5 15.35 21.7 16.2 21.45 16.6 21.05 16.85 8.6 16.4 Q8.15 15.55 8.75 14.9 9.8 14.1 11.45 14.35 L18.55 14.4 20.0 14.5 11.0 14.6 11.0 15.2 11.05 16.2 10.25 16.1 10.2 14.65 9.7 14.5 9.35 14.7 9.0 15.0 8.9 16.35 18.75 16.6 18.85 16.6 19.7 16.6 21.15 16.0 21.45 15.75 20.9 15.95 19.0 16.15 19.05 15.35 19.6 15.3 Q19.85 16.0 20.35 15.95 21.1 15.7 21.0 15.1 L20.55 14.6 M13.05 21.35 L6.9 21.4 Q6.6 22.05 6.65 22.75 6.55 23.6 6.95 24.6 7.4 25.9 8.55 26.7 10.45 28.1 12.85 28.1 15.6 27.85 18.5 28.0 L21.35 27.0 22.25 26.4 23.4 24.95 Q24.5 23.3 23.6 21.45 L22.95 21.4 22.35 19.7 21.2 18.1 Q20.1 17.15 18.75 17.25 L9.85 17.6 9.35 18.0 9.55 18.25 Q10.45 18.85 11.55 18.5 L12.2 18.95 13.05 21.35 M21.15 21.4 L16.85 21.25 17.95 19.15 18.65 18.35 19.4 18.45 21.15 21.4 M14.9 2.7 L12.8 8.55 12.2 9.8 12.25 10.25 17.1 10.4 17.9 10.1 17.7 9.3 16.8 6.8 15.25 2.9 14.9 2.7 M16.75 9.95 L13.55 9.85 14.95 3.3 16.75 9.95 M18.95 11.95 L11.65 12.25 11.65 11.45 18.45 11.7 18.95 11.95 M8.3 18.0 Q8.75 17.65 9.35 17.4 L15.25 17.15 19.75 17.15 Q22.25 17.35 23.4 19.5 24.8 22.2 23.95 25.0 23.5 26.15 22.5 26.95 L20.85 27.7 15.0 28.3 10.7 28.15 8.55 27.35 Q5.75 25.85 5.9 22.8 6.0 19.85 8.3 18.0 M18.6 15.35 L18.55 16.15 17.65 16.2 17.75 15.3 18.6 15.35" fill="#fbd2ed" fill-rule="evenodd" stroke="none"/>
    <path d="M19.35 11.95 L19.85 11.9 20.05 11.45 20.5 11.7 20.2 12.5 15.15 12.8 10.1 12.65 9.75 12.45 9.65 12.3 9.55 12.05 9.6 11.8 9.8 11.55 10.35 11.9 10.55 11.3 11.65 11.45 11.65 12.25 18.95 11.95 19.1 12.0 19.35 11.95 M19.0 16.15 L20.9 15.95 21.45 15.75 21.15 16.0 19.7 16.6 18.85 16.6 19.0 16.15 M18.75 16.6 L8.9 16.35 9.0 15.0 9.35 14.7 9.7 14.5 10.2 14.65 10.25 16.1 11.05 16.2 11.2 16.35 11.35 15.3 17.75 15.3 17.65 16.2 18.55 16.15 18.75 16.6 M14.9 2.7 L14.95 3.3 13.55 9.85 16.75 9.95 17.1 10.4 12.25 10.25 12.2 9.8 12.8 8.55 14.9 2.7 M18.05 18.4 Q16.8 19.5 16.35 21.25 L16.25 21.9 Q15.8 22.45 14.8 22.45 L14.35 22.3 12.4 18.5 18.05 18.4 M19.5 28.5 L19.75 28.8 19.6 28.9 10.45 28.95 10.45 28.65 10.55 28.55 19.5 28.5" fill="#f385cd" fill-rule="evenodd" stroke="none"/>
    <path d="M22.95 21.4 L23.6 21.45 Q24.5 23.3 23.4 24.95 L22.25 26.4 21.35 27.0 18.5 28.0 Q15.6 27.85 12.85 28.1 10.45 28.1 8.55 26.7 7.4 25.9 6.95 24.6 6.55 23.6 6.65 22.75 6.6 22.05 6.9 21.4 L13.05 21.35 13.8 22.45 14.05 22.65 Q16.2 23.35 16.85 21.25 L21.15 21.4 21.15 22.25 Q21.0 24.65 19.85 26.55 L20.6 27.0 21.1 26.7 Q23.65 24.75 22.95 21.4 M18.6 13.3 L18.55 14.0 11.65 14.05 11.5 13.4 18.6 13.3" fill="#ea2db7" fill-rule="evenodd" stroke="none"/>
    <path d="M9.65 12.3 L9.7 12.55 10.05 12.8 Q15.15 13.35 20.25 12.7 L20.65 11.55 20.45 11.15 Q20.25 10.95 20.05 10.9 L19.25 10.65 18.8 10.65 16.3 10.8 18.45 10.25 14.95 2.0 11.75 10.35 15.05 10.9 12.65 10.8 10.8 10.5 Q9.65 10.65 9.6 11.8 L9.55 12.05 9.65 12.3 M20.0 14.5 L18.55 14.4 11.45 14.35 Q9.8 14.1 8.75 14.9 8.15 15.55 8.6 16.4 L21.05 16.85 21.45 16.6 21.7 16.2 21.5 15.35 20.85 14.65 20.55 14.6 20.0 14.5 M19.05 15.35 L19.0 16.15 18.85 16.6 18.75 16.6 18.55 16.15 18.6 15.35 19.05 15.35 M11.05 16.2 L11.0 15.2 11.35 15.3 11.2 16.35 11.05 16.2 M20.9 12.45 L20.25 12.95 19.1 13.4 19.15 14.05 20.2 14.0 Q21.55 14.15 22.1 15.35 L21.9 16.4 21.6 17.05 22.75 18.4 Q23.7 19.4 24.25 20.7 25.05 22.7 24.3 24.95 23.85 26.3 22.8 27.3 21.7 28.35 20.2 28.55 L19.95 29.15 19.75 29.35 10.1 29.2 10.05 28.65 Q8.55 28.2 7.45 27.3 6.2 26.35 5.85 24.85 5.55 23.9 5.6 23.0 5.75 19.4 8.5 17.05 L8.05 15.25 8.45 14.8 Q8.85 14.45 9.35 14.35 L11.15 14.0 11.05 13.4 10.05 12.95 9.45 12.3 Q8.95 11.1 9.85 10.45 L11.3 9.95 14.15 3.2 15.25 0.95 Q16.75 5.9 19.25 10.2 20.3 10.15 20.75 10.95 21.1 11.65 20.9 12.45 M16.85 21.25 Q16.2 23.35 14.05 22.65 L13.8 22.45 13.05 21.35 12.2 18.95 11.55 18.5 12.4 18.5 14.35 22.3 14.8 22.45 Q15.8 22.45 16.25 21.9 L16.35 21.25 Q16.8 19.5 18.05 18.4 L18.65 18.35 17.95 19.15 16.85 21.25 M8.3 18.0 Q6.0 19.85 5.9 22.8 5.75 25.85 8.55 27.35 L10.7 28.15 15.0 28.3 20.85 27.7 22.5 26.95 Q23.5 26.15 23.95 25.0 24.8 22.2 23.4 19.5 22.25 17.35 19.75 17.15 L15.25 17.15 9.35 17.4 Q8.75 17.65 8.3 18.0 M18.6 13.3 L11.5 13.4 11.65 14.05 18.55 14.0 18.6 13.3 M19.5 28.5 L10.55 28.55 10.45 28.65 10.45 28.95 19.6 28.9 19.75 28.8 19.5 28.5" fill="#790b4a" fill-rule="evenodd" stroke="none"/>
    <path d="M19.25 10.65 Q20.1 11.3 19.35 11.9 L19.35 11.95 19.1 12.0 18.95 11.95 18.45 11.7 11.65 11.45 10.55 11.3 10.35 10.8 11.55 10.7 12.65 10.8 15.05 10.9 15.25 10.9 15.5 10.9 18.8 10.65 19.25 10.65 M20.55 14.6 L21.0 15.1 Q21.1 15.7 20.35 15.95 19.85 16.0 19.6 15.3 L19.05 15.35 18.6 15.35 17.75 15.3 11.35 15.3 11.0 15.2 11.0 14.6 20.0 14.5 20.55 14.6 M22.95 21.4 Q23.65 24.75 21.1 26.7 L20.6 27.0 19.85 26.55 Q21.0 24.65 21.15 22.25 L21.15 21.4 19.4 18.45 18.65 18.35 18.05 18.4 12.4 18.5 11.55 18.5 Q10.45 18.85 9.55 18.25 L9.35 18.0 9.85 17.6 18.75 17.25 Q20.1 17.15 21.2 18.1 L22.35 19.7 22.95 21.4 M14.95 3.3 L14.9 2.7 15.25 2.9 16.8 6.8 17.7 9.3 17.9 10.1 17.1 10.4 16.75 9.95 14.95 3.3" fill="#ffffff" fill-rule="evenodd" stroke="none"/>
  </g>
</svg>
