<?xml version="1.0" encoding="UTF-8" standalone="no"?>
<svg xmlns:ffdec="https://www.free-decompiler.com/flash" xmlns:xlink="http://www.w3.org/1999/xlink" ffdec:objectType="shape" height="25.6px" width="26.1px" xmlns="http://www.w3.org/2000/svg">
  <g transform="matrix(1.0, 0.0, 0.0, 1.0, -2.0, -2.7)">
    <path d="M23.0 5.4 L25.0 7.3 Q27.7 10.35 27.6 14.4 27.45 18.5 24.45 21.2 23.0 22.5 20.95 23.25 17.45 24.4 13.9 24.05 L11.0 23.5 Q7.0 22.65 4.55 19.45 L3.45 17.55 Q1.75 13.8 3.25 10.0 4.0 8.25 5.4 7.05 L7.45 5.4 Q8.5 4.65 9.7 4.2 12.7 2.85 16.1 2.95 19.8 3.5 23.0 5.4" fill="url(#gradient0)" fill-rule="evenodd" stroke="none"/>
    <path d="M23.0 5.4 Q19.8 3.5 16.1 2.95 12.7 2.85 9.7 4.2 8.5 4.65 7.45 5.4 L5.4 7.05 Q4.0 8.25 3.25 10.0 1.75 13.8 3.45 17.55 L4.55 19.45 Q7.0 22.65 11.0 23.5 L13.9 24.05 Q17.45 24.4 20.95 23.25 23.0 22.5 24.45 21.2 27.45 18.5 27.6 14.4 27.7 10.35 25.0 7.3 L23.0 5.4 M22.7 22.8 L22.65 22.85 22.7 22.85 22.7 22.8 23.45 23.3 Q24.4 24.0 24.4 24.85 24.4 26.3 21.65 27.3 18.9 28.3 15.0 28.3 11.1 28.3 8.35 27.3 5.6 26.3 5.6 24.85 5.6 23.7 7.4 22.8 L5.8 21.65 Q2.0 18.4 2.0 13.8 2.0 9.2 5.8 5.95 9.65 2.7 15.05 2.7 20.45 2.7 24.25 5.95 28.1 9.2 28.1 13.8 28.1 18.4 24.25 21.65 L22.7 22.8 M23.15 24.25 L23.7 24.75 23.8 24.6 23.9 24.35 23.95 24.3 23.75 24.0 23.5 23.6 22.95 23.2 22.75 23.05 22.65 23.05 20.8 23.55 20.3 23.75 17.4 24.3 16.55 24.35 13.6 24.15 10.9 23.7 8.05 22.95 7.95 23.0 7.95 23.05 7.7 23.0 7.2 23.15 6.95 23.35 6.8 23.4 6.6 23.65 6.55 23.8 7.0 24.6 Q7.6 25.35 8.8 25.6 14.0 27.15 19.4 26.3 L19.2 25.95 Q18.95 25.25 19.4 25.25 L19.6 25.75 20.05 26.05 20.3 25.65 20.6 26.05 20.5 25.5 20.65 25.05 20.9 25.55 21.2 25.65 21.3 25.7 21.25 24.9 21.6 25.35 21.55 25.85 22.45 25.45 22.3 24.2 22.8 25.15 23.1 25.1 Q23.55 24.8 23.15 24.25" fill="#ba1467" fill-rule="evenodd" stroke="none"/>
    <path d="M20.05 26.05 L19.6 25.75 19.4 25.25 Q18.95 25.25 19.2 25.95 L19.4 26.3 Q14.0 27.15 8.8 25.6 7.6 25.35 7.0 24.6 L6.55 23.8 6.6 23.65 6.8 23.4 6.95 23.35 7.2 23.15 7.7 23.0 7.95 23.05 7.95 23.0 8.05 22.95 10.9 23.7 13.6 24.15 16.55 24.35 17.4 24.3 20.3 23.75 20.8 23.55 22.65 23.05 22.75 23.05 22.95 23.2 23.5 23.6 23.75 24.0 23.95 24.3 23.9 24.35 23.8 24.6 23.7 24.75 23.15 24.25 22.8 23.95 22.4 24.1 22.3 24.15 22.35 24.15 22.3 24.2 22.45 25.45 21.55 25.85 21.6 25.35 21.25 24.9 21.15 24.95 Q20.95 25.4 21.2 25.65 L20.9 25.55 20.65 25.05 20.5 25.5 20.6 26.05 20.3 25.65 20.1 25.25 20.0 25.1 19.9 25.2 Q19.8 25.6 20.05 26.05" fill="#f5a0cc" fill-rule="evenodd" stroke="none"/>
    <path d="M22.8 25.15 L22.3 24.2 22.35 24.15 22.65 24.45 22.8 25.15" fill="#e8ecd5" fill-rule="evenodd" stroke="none"/>
    <path d="M23.15 24.25 Q23.55 24.8 23.1 25.1 L22.8 25.15 22.65 24.45 22.35 24.15 22.3 24.15 22.4 24.1 22.8 23.95 23.15 24.25 M21.25 24.9 L21.3 25.7 21.2 25.65 Q20.95 25.4 21.15 24.95 L21.25 24.9 M20.3 25.65 L20.05 26.05 Q19.8 25.6 19.9 25.2 L20.0 25.1 20.1 25.25 20.3 25.65" fill="#ffffff" fill-rule="evenodd" stroke="none"/>
  </g>
  <defs>
    <radialGradient cx="0" cy="0" gradientTransform="matrix(0.0, 0.0181, -0.0207, 0.0, 15.1, 13.55)" gradientUnits="userSpaceOnUse" id="gradient0" r="819.2" spreadMethod="pad">
      <stop offset="0.3333333333333333" stop-color="#ffffff"/>
      <stop offset="1.0" stop-color="#ff6699"/>
    </radialGradient>
  </defs>
</svg>
