<?xml version="1.0" encoding="UTF-8" standalone="no"?>
<svg xmlns:ffdec="https://www.free-decompiler.com/flash" xmlns:xlink="http://www.w3.org/1999/xlink" ffdec:objectType="shape" height="27.25px" width="27.45px" xmlns="http://www.w3.org/2000/svg">
  <g transform="matrix(1.0, 0.0, 0.0, 1.0, -1.25, -1.4)">
    <path d="M21.0 6.1 L20.6 5.8 20.6 5.65 21.0 6.1 M20.45 5.55 L19.65 5.35 Q19.3 5.1 19.3 4.75 L20.45 5.55 M18.6 4.55 L17.6 4.55 17.1 4.9 17.0 4.85 16.05 6.2 16.0 5.85 16.0 5.8 15.95 5.8 15.85 5.75 15.75 5.8 15.7 5.85 15.7 5.9 15.7 5.95 15.7 6.25 15.8 6.3 15.9 6.3 16.0 6.3 15.95 6.5 15.95 6.55 15.85 9.0 16.0 8.95 16.4 9.2 16.4 9.35 16.15 9.55 14.75 7.75 14.55 7.05 14.0 6.75 13.85 6.7 13.65 6.7 13.8 6.35 13.9 6.2 14.15 6.0 14.25 5.95 12.95 3.75 12.95 3.6 Q12.4 3.5 12.2 3.0 L12.15 2.85 11.8 2.55 10.95 2.55 10.4 2.45 10.1 2.6 9.8 3.05 9.7 3.1 8.7 3.9 8.65 4.0 9.2 4.35 9.3 4.4 9.85 5.0 10.5 6.25 10.65 6.8 10.6 7.4 10.2 8.1 10.1 8.25 9.9 8.5 Q9.45 8.95 8.8 9.1 L7.85 8.9 7.7 8.8 6.85 8.0 6.65 7.7 Q6.25 7.2 6.2 6.6 L6.45 5.95 6.5 5.8 6.55 5.55 6.55 5.5 6.65 5.2 Q6.3 4.9 5.8 4.75 L5.7 4.7 5.3 4.7 4.55 4.9 4.1 4.9 Q3.75 5.0 3.55 5.3 L3.55 5.4 3.4 5.65 2.7 6.4 2.7 6.45 2.55 6.75 2.65 7.5 2.6 7.75 Q2.5 8.35 2.7 9.0 L3.05 9.6 3.2 9.85 3.25 10.0 3.8 9.7 5.45 11.05 5.65 11.15 6.15 11.4 5.4 11.4 5.05 11.2 3.75 10.1 2.95 10.7 3.1 11.0 3.25 11.2 4.6 12.25 5.05 12.3 5.25 12.1 5.4 12.8 4.75 13.2 5.2 13.25 5.15 13.45 4.9 13.8 4.85 14.8 4.7 13.7 4.4 12.45 4.25 12.35 3.7 11.8 3.5 11.6 2.7 10.9 2.55 11.05 2.3 11.25 Q2.1 11.45 2.25 11.65 L2.95 12.6 3.4 13.3 Q3.85 14.7 5.05 15.7 L5.7 16.2 6.1 16.05 6.35 16.2 6.55 16.5 7.1 16.3 7.8 16.6 7.75 16.6 Q5.35 17.5 4.3 15.25 L3.3 14.0 3.2 13.45 3.15 13.45 3.15 13.35 1.8 11.4 2.15 10.8 Q1.15 9.75 1.4 8.4 L1.4 8.15 1.35 7.85 Q1.2 7.35 1.35 6.9 L1.55 6.55 1.85 5.9 1.9 5.65 Q1.95 5.35 2.15 5.1 L2.6 4.7 2.85 4.5 3.35 4.25 Q4.0 3.8 4.75 3.5 L5.65 3.75 5.85 3.7 6.3 3.5 Q6.8 3.45 7.15 3.75 7.45 3.4 7.9 3.4 L8.1 3.05 8.2 2.75 8.4 2.5 Q8.8 2.0 9.45 1.95 L9.8 1.95 10.5 1.65 10.8 1.5 11.45 1.4 Q11.65 1.4 11.85 1.55 L12.3 1.8 12.55 1.85 12.85 1.9 Q13.55 2.15 14.1 2.65 L14.5 2.45 16.5 4.35 18.6 4.55 M26.6 23.3 L26.85 23.2 27.1 23.45 26.7 23.6 26.6 23.3 M27.65 23.05 L27.75 22.9 27.95 22.75 27.65 23.05 M28.15 22.5 L28.1 22.4 28.3 22.25 28.15 22.5 M28.7 20.5 Q28.4 20.6 28.45 20.25 L28.7 20.1 28.7 20.5 M28.65 19.65 L28.45 19.25 28.55 19.15 28.65 19.65 M28.45 18.85 L28.35 18.75 28.4 18.75 28.45 18.85 M28.25 18.25 L28.05 18.05 Q28.0 17.9 28.1 17.8 L28.25 18.25 M28.05 17.65 L27.95 17.5 Q27.9 17.4 28.0 17.35 L28.05 17.65 M27.9 17.05 L27.6 16.55 27.7 16.55 27.9 17.05 M27.1 15.35 L26.95 15.25 27.05 15.25 27.1 15.35 M26.7 14.5 L26.45 14.3 26.35 13.8 26.7 14.5 M26.25 13.65 L26.0 13.45 26.0 13.2 26.25 13.65 M25.8 12.9 L25.6 12.8 25.7 12.7 25.8 12.9 M24.65 11.05 L24.5 11.0 24.6 11.0 24.65 11.05 M24.35 10.65 L24.05 10.4 23.85 10.0 24.35 10.65 M22.6 8.15 Q22.35 8.15 22.15 7.95 L21.95 7.35 22.6 8.15 M21.75 7.05 L21.5 6.85 21.55 6.85 21.75 7.05 M21.7 16.9 L21.55 17.35 22.5 18.1 21.65 17.9 21.2 17.35 21.15 16.65 20.55 16.3 Q21.65 15.85 21.15 16.15 L21.5 16.55 21.5 16.65 21.55 16.75 21.7 16.9 M20.6 15.8 L20.15 15.7 19.6 14.2 20.2 14.4 20.4 14.95 20.75 15.55 20.6 15.8 M22.75 18.55 L22.3 18.75 22.7 19.0 22.7 19.05 22.1 18.8 21.95 18.8 21.9 18.75 22.05 18.3 22.75 18.55 M23.15 20.35 L22.8 20.1 23.05 19.4 23.15 20.35 M20.95 20.2 L20.75 20.05 20.7 19.9 20.95 20.2 M19.75 18.55 L19.6 18.45 19.65 18.4 19.75 18.55 M17.8 16.2 L17.75 16.15 17.75 16.1 17.8 16.2 M13.6 6.9 L13.6 7.35 13.45 7.45 13.6 6.9 M13.65 9.45 Q14.1 9.55 13.95 10.0 L13.85 10.15 13.65 9.45 M13.85 10.2 Q14.55 10.2 14.15 10.7 L14.05 10.85 13.85 10.2 M14.1 11.0 L14.65 11.4 14.55 11.5 14.85 11.85 14.8 12.4 15.3 12.8 15.45 13.75 14.1 11.0 M15.4 13.8 L15.35 13.85 15.25 13.7 15.4 13.8 M14.9 13.5 L14.65 13.85 14.6 13.35 14.9 13.5 M14.3 13.2 L13.85 13.3 Q13.85 12.85 13.55 12.95 L13.6 12.75 14.3 13.2 M13.35 12.6 L13.25 13.25 12.75 12.25 13.35 12.6 M11.05 11.5 L10.35 11.6 9.7 11.1 11.05 11.5 M22.05 23.6 L22.0 22.55 22.4 23.45 22.55 24.55 22.05 23.6 M21.95 22.45 L21.6 22.2 21.4 21.2 21.95 22.45 M22.55 25.2 L22.35 25.8 21.85 25.65 22.55 25.2 M22.2 26.1 L21.35 27.15 Q21.35 26.7 21.6 26.4 21.85 26.1 22.2 26.1 M20.5 27.75 L20.35 27.8 20.3 27.75 20.5 27.75 M20.0 28.0 L19.85 28.1 19.95 27.95 20.0 28.0 M19.3 28.3 L18.1 28.6 18.25 28.4 19.3 28.3 M17.3 28.65 L16.5 28.6 Q15.0 28.25 13.7 27.5 L14.65 27.5 16.3 28.45 16.8 28.3 17.3 28.65 M13.6 27.45 L11.65 26.25 13.35 26.9 13.6 27.45 M11.35 26.05 L11.1 25.9 11.25 25.9 11.35 26.05 M10.8 25.75 L10.45 25.5 10.45 25.4 10.8 25.75 M10.1 25.25 L9.3 24.6 9.9 24.8 10.1 25.25 M9.1 24.4 L8.45 23.85 8.9 24.0 9.1 24.4 M7.5 22.95 L6.65 21.95 Q7.0 21.95 7.25 22.25 L7.5 22.95 M6.6 21.85 L6.1 21.25 6.55 21.7 6.6 21.85 M5.05 19.95 L5.0 19.8 5.1 19.9 5.05 19.95 M4.1 18.5 L4.0 18.25 4.2 18.45 4.1 18.5 M3.8 17.95 L3.7 17.75 3.8 17.8 3.8 17.95 M3.45 17.0 L3.4 16.75 3.55 16.9 3.45 17.0 M3.15 15.7 L3.15 15.5 3.2 15.55 3.15 15.7 M3.15 15.1 L3.15 14.35 3.2 15.1 3.15 15.1 M22.7 23.55 L22.95 23.2 23.1 23.8 22.7 23.55 M23.45 23.9 Q24.1 23.6 24.45 23.9 L24.45 24.05 23.45 23.9 M25.55 23.95 L25.5 23.85 25.7 23.9 25.55 23.95 M14.2 3.6 L15.3 5.15 15.35 5.2 Q15.5 5.5 15.9 5.5 L16.35 5.15 16.5 5.1 16.75 5.0 17.05 4.8 17.0 4.65 16.9 4.6 16.35 4.6 14.5 2.75 13.9 3.2 14.2 3.6 M15.7 5.9 L15.7 5.75 15.2 5.4 15.1 5.3 13.65 3.35 13.25 3.8 13.4 4.15 13.9 5.0 14.4 6.0 14.5 6.2 15.45 7.85 15.65 6.1 15.7 5.9 M12.45 2.0 L11.95 1.9 Q11.85 1.65 11.55 1.6 L11.4 1.6 11.25 1.6 11.2 1.6 Q10.65 1.5 10.35 1.9 L9.85 2.1 9.45 2.15 9.35 2.1 9.2 2.1 9.15 2.15 8.9 2.25 8.5 2.7 8.55 3.0 7.8 3.6 Q7.5 3.65 7.5 3.95 L7.5 4.0 8.15 4.05 8.3 3.85 8.35 3.8 8.2 3.85 8.1 3.8 9.05 3.05 9.15 3.1 9.1 3.25 9.95 2.7 10.0 2.55 9.55 2.7 9.5 2.65 9.5 2.6 9.85 2.45 10.75 2.05 10.8 2.1 10.8 2.2 10.55 2.3 11.1 2.45 11.7 2.35 11.45 2.25 11.8 2.2 12.45 2.45 12.45 2.55 12.25 2.5 Q12.35 3.1 12.9 3.4 L13.0 3.4 13.1 3.4 13.05 3.3 12.6 2.8 Q12.5 2.65 12.65 2.55 L12.75 2.7 13.3 3.25 13.45 3.15 13.5 3.1 13.5 2.65 Q13.25 2.35 12.85 2.25 L12.45 2.0 M6.65 7.45 L6.85 7.7 6.85 7.35 7.15 7.75 7.25 8.0 7.9 8.55 8.0 8.55 8.1 8.75 Q8.75 9.05 9.4 8.75 L9.6 8.5 9.35 8.65 9.05 8.6 9.05 8.5 9.3 8.5 9.7 8.3 10.2 7.8 10.35 7.75 Q10.75 6.9 10.3 6.1 L10.15 6.0 10.0 5.6 Q9.7 4.7 8.85 4.35 L8.3 4.15 8.15 4.45 7.55 4.25 7.3 4.25 7.3 4.2 7.2 4.15 7.0 3.9 6.4 3.7 5.95 3.9 5.9 4.0 5.9 4.05 5.1 4.0 4.75 3.8 4.2 3.9 4.05 3.95 3.7 4.35 2.95 4.8 Q2.6 4.7 2.35 5.0 1.95 5.4 2.1 5.9 L1.45 7.5 Q1.4 7.95 1.85 8.1 L2.0 8.15 Q1.5 8.65 1.7 9.3 L1.75 9.65 Q1.75 10.05 2.05 10.35 L2.3 10.45 2.45 10.45 Q2.25 10.2 2.4 9.9 L2.7 10.1 2.85 10.15 2.9 9.75 2.6 9.25 2.4 9.5 2.2 9.55 2.1 9.45 2.3 9.25 2.4 8.5 2.3 8.35 2.05 8.15 Q2.65 7.75 2.45 7.15 L2.2 7.15 2.4 6.35 2.6 5.65 2.7 5.75 2.75 6.1 3.3 5.25 3.05 5.2 4.15 4.55 4.2 4.7 4.75 4.6 4.75 4.4 5.05 4.4 5.2 4.5 5.85 4.5 6.1 4.35 6.2 4.3 6.3 4.35 6.05 4.6 7.1 4.7 6.95 4.4 7.9 4.85 8.15 4.9 8.4 4.9 8.3 5.05 Q8.6 5.45 9.2 5.4 L9.15 5.3 10.0 6.35 9.95 6.45 9.85 6.4 Q9.6 6.8 9.75 7.2 L9.9 7.2 10.0 7.25 9.8 7.5 9.3 8.0 9.05 8.2 8.95 8.15 8.35 8.1 8.0 8.05 8.0 7.95 7.45 7.6 7.2 6.4 7.05 6.35 7.45 5.15 7.4 5.1 7.35 5.05 7.3 5.0 7.05 5.0 6.75 5.5 6.75 6.15 6.8 6.3 6.9 6.45 6.6 6.25 6.55 6.1 6.45 6.35 Q6.35 6.85 6.6 7.35 L6.65 7.45 M17.35 10.6 L16.75 10.45 16.95 10.45 17.35 10.6 M17.35 11.2 L17.85 11.2 17.4 11.35 Q17.0 11.5 17.35 11.2 M18.25 11.75 L18.4 12.2 18.15 12.85 17.35 11.95 Q17.85 10.85 17.8 12.0 L18.25 11.75 M7.7 5.35 L7.45 6.25 7.7 7.4 7.75 7.6 Q8.0 8.0 8.5 8.0 L9.2 7.85 9.55 7.45 Q9.25 6.95 9.6 6.45 L9.6 6.2 9.2 5.6 8.45 5.4 8.25 5.3 7.95 5.15 7.7 5.35 M5.65 16.05 L5.4 15.8 4.85 14.85 5.4 15.15 5.4 15.8 5.55 15.85 5.65 16.05 M9.45 17.4 L8.5 16.5 9.55 16.55 9.85 16.9 10.15 16.75 11.0 17.15 11.15 17.7 11.65 17.5 11.7 18.0 12.2 17.95 11.9 18.3 9.25 16.95 9.45 17.4 M12.2 18.55 L12.55 18.2 12.95 18.5 13.1 19.2 13.7 19.2 13.65 19.7 14.05 19.5 14.25 19.95 14.85 20.3 15.05 20.5 Q14.7 20.95 15.25 21.25 15.65 21.45 15.9 22.0 L16.45 22.15 16.25 22.3 16.2 22.5 16.75 22.5 16.75 22.8 16.75 22.9 17.1 22.95 17.45 23.45 15.5 22.45 16.2 22.7 12.2 18.55 M13.1 21.0 L13.1 21.05 13.0 20.95 13.1 21.0 M11.4 19.55 L11.35 19.55 10.95 19.1 11.4 19.55 M10.65 18.85 L10.5 18.7 10.55 18.7 10.65 18.85 M10.1 18.25 L9.85 18.05 9.9 18.0 10.1 18.25 M18.75 12.95 L19.55 14.05 18.65 13.35 Q18.3 13.0 18.75 12.95 M16.45 14.95 Q16.15 15.35 16.35 14.75 L16.45 14.95 M17.45 15.8 L17.25 16.0 17.05 15.8 17.45 15.8 M17.55 23.6 L17.8 24.2 17.1 23.8 17.55 23.6 M18.0 24.3 L17.9 24.55 17.8 24.3 18.0 24.3" fill="#666666" fill-rule="evenodd" stroke="none"/>
    <path d="M3.1 11.0 L3.55 10.7 3.8 10.95 4.95 11.9 5.25 12.1 5.05 12.3 4.6 12.25 3.25 11.2 3.1 11.0 M14.2 3.6 L14.5 3.4 15.75 4.8 16.2 5.1 16.35 5.15 15.9 5.5 Q15.5 5.5 15.35 5.2 L15.3 5.15 14.2 3.6 M13.4 4.15 L13.25 3.8 13.65 3.35 15.1 5.3 15.2 5.4 15.7 5.75 15.7 5.9 15.65 6.1 14.55 5.05 13.85 4.05 13.65 3.9 13.4 4.15 M11.95 1.9 L11.85 1.9 11.8 1.95 11.75 2.0 12.1 2.25 12.6 2.25 12.7 2.25 12.7 2.1 12.45 2.0 12.85 2.25 Q13.25 2.35 13.5 2.65 L13.5 3.1 13.3 2.75 13.15 2.6 12.9 2.5 Q12.7 2.6 12.95 2.85 L13.3 3.15 13.45 3.15 13.3 3.25 12.75 2.7 12.65 2.55 Q12.5 2.65 12.6 2.8 L13.05 3.3 13.1 3.4 13.0 3.4 12.9 3.4 Q12.35 3.1 12.25 2.5 L12.45 2.55 12.45 2.45 11.8 2.2 11.45 2.25 11.7 2.35 11.1 2.45 10.55 2.3 10.8 2.2 10.8 2.1 10.75 2.05 9.85 2.45 10.45 2.1 10.45 1.95 10.35 1.9 Q10.65 1.5 11.2 1.6 L11.1 1.6 11.0 1.6 10.65 1.75 10.6 1.9 10.6 1.95 10.65 2.0 11.6 1.95 11.7 1.95 11.75 1.85 11.4 1.6 11.55 1.6 Q11.85 1.65 11.95 1.9 M10.15 6.0 L10.3 6.1 Q10.75 6.9 10.35 7.75 L10.2 7.8 9.7 8.3 9.3 8.5 9.05 8.5 9.05 8.6 9.35 8.65 9.6 8.5 9.4 8.75 Q8.75 9.05 8.1 8.75 L8.0 8.55 7.9 8.55 7.25 8.0 7.15 7.75 6.85 7.35 6.85 7.7 6.65 7.45 6.8 7.45 6.8 7.2 Q6.55 6.85 6.65 6.45 L6.45 6.35 6.55 6.1 6.6 6.25 6.9 6.45 6.8 6.3 6.9 6.25 6.9 5.55 6.75 5.5 7.05 5.0 7.3 5.0 7.35 5.05 7.4 5.1 7.45 5.15 7.05 6.35 7.2 6.4 7.45 7.6 7.4 7.55 7.35 7.65 7.3 7.8 7.8 8.15 8.0 8.05 8.35 8.1 8.15 8.15 8.1 8.2 8.1 8.3 8.95 8.3 8.95 8.25 8.95 8.15 9.05 8.2 9.3 8.0 Q9.15 8.15 9.3 8.35 L9.85 7.9 10.0 7.7 10.05 7.6 10.0 7.55 9.9 7.5 9.8 7.5 10.0 7.25 9.9 7.2 10.0 7.15 10.0 6.55 9.95 6.45 10.0 6.35 9.15 5.3 9.2 5.4 Q8.6 5.45 8.3 5.05 L8.4 4.9 8.15 4.9 7.9 4.85 6.95 4.4 7.1 4.7 6.05 4.6 6.3 4.35 6.2 4.3 6.1 4.35 5.85 4.5 5.2 4.5 5.05 4.4 4.75 4.4 4.75 4.6 4.2 4.7 4.15 4.55 3.05 5.2 3.3 5.25 2.75 6.1 2.7 5.75 2.6 5.65 2.4 6.35 2.2 7.15 2.45 7.15 Q2.65 7.75 2.05 8.15 L2.3 8.35 2.4 8.5 2.3 9.25 2.1 9.45 2.2 9.55 2.4 9.5 2.6 9.25 2.9 9.75 2.85 10.15 2.7 10.1 2.4 9.9 Q2.25 10.2 2.45 10.45 L2.3 10.45 2.05 10.35 Q1.75 10.05 1.75 9.65 L1.7 9.3 Q1.5 8.65 2.0 8.15 L1.85 8.1 Q1.4 7.95 1.45 7.5 L1.65 7.95 1.7 7.95 1.75 7.95 1.85 7.85 Q1.65 7.45 1.85 7.1 L2.25 6.05 2.25 5.95 2.1 5.9 Q1.95 5.4 2.35 5.0 2.6 4.7 2.95 4.8 L2.95 4.85 3.1 4.95 3.75 4.55 3.8 4.4 3.7 4.35 4.05 3.95 3.95 4.15 3.95 4.25 4.2 4.25 Q4.5 4.0 4.9 4.1 L4.95 3.95 4.75 3.8 5.1 4.0 5.05 4.15 5.5 4.25 5.95 4.2 6.0 4.05 6.5 4.05 6.65 4.05 7.1 4.3 7.1 4.4 8.1 4.55 8.15 4.45 8.3 4.15 8.85 4.35 Q9.7 4.7 10.0 5.6 L9.65 5.15 9.6 5.1 9.5 5.2 9.8 5.9 Q9.9 6.1 10.05 6.05 L10.15 6.0 M8.55 3.0 L8.5 2.7 8.6 2.85 8.7 2.85 9.35 2.4 9.45 2.35 9.5 2.3 9.55 2.2 9.45 2.15 9.85 2.1 9.65 2.3 9.65 2.4 9.7 2.45 9.85 2.45 9.5 2.6 9.5 2.65 9.55 2.7 10.0 2.55 9.95 2.7 9.1 3.25 9.15 3.1 9.05 3.05 8.1 3.8 8.2 3.85 8.35 3.8 8.3 3.85 8.15 4.05 7.5 4.0 7.5 3.95 Q7.5 3.65 7.8 3.6 L7.8 3.7 7.9 3.75 8.6 3.2 8.65 3.05 8.55 3.0 M7.3 4.2 L7.25 4.2 7.2 4.15 7.3 4.2 M6.4 3.7 L6.0 3.95 6.0 4.0 5.95 4.0 5.9 4.0 5.95 3.9 6.4 3.7 M8.3 4.5 L8.2 4.65 8.2 4.75 8.6 4.75 Q8.9 4.75 9.1 5.0 L9.2 5.1 9.45 5.1 9.45 5.0 Q9.35 4.55 8.95 4.4 L8.35 4.45 8.3 4.5 M2.25 5.6 L2.35 5.6 2.7 5.15 2.85 5.0 2.75 4.9 2.6 4.9 Q2.2 5.05 2.2 5.45 L2.2 5.5 2.25 5.6 M1.95 8.45 L1.95 8.7 2.1 8.95 2.25 9.05 2.35 8.9 2.35 8.65 2.2 8.4 2.05 8.3 1.95 8.45" fill="#cccccc" fill-rule="evenodd" stroke="none"/>
    <path d="M20.6 5.65 L20.6 5.8 21.0 6.1 21.55 6.85 21.5 6.85 21.75 7.05 21.95 7.35 22.15 7.95 Q22.35 8.15 22.6 8.15 L23.85 10.0 24.05 10.4 24.35 10.65 24.6 11.0 24.5 11.0 24.65 11.05 25.7 12.7 25.6 12.8 25.8 12.9 26.0 13.2 26.0 13.45 26.25 13.65 26.35 13.8 26.45 14.3 26.7 14.5 27.05 15.25 26.95 15.25 27.1 15.35 27.7 16.55 27.6 16.55 27.9 17.05 28.0 17.35 Q27.9 17.4 27.95 17.5 L28.05 17.65 28.1 17.8 Q28.0 17.9 28.05 18.05 L28.25 18.25 28.4 18.75 28.35 18.75 28.45 18.85 28.55 19.15 28.45 19.25 28.65 19.65 28.7 20.1 28.45 20.25 Q28.4 20.6 28.7 20.5 L28.65 21.05 28.3 22.25 28.1 22.4 28.15 22.5 27.95 22.75 27.75 22.9 27.65 23.05 27.45 23.3 27.1 23.45 26.85 23.2 26.6 23.3 26.4 22.6 27.0 21.8 26.6 21.55 26.7 20.45 26.1 19.8 26.3 19.25 25.7 18.85 26.45 18.95 25.35 18.35 26.3 17.55 25.0 17.6 24.55 17.05 24.5 16.5 24.35 16.5 24.65 15.95 24.6 15.9 23.9 16.0 24.45 15.6 23.95 15.4 24.45 14.85 23.9 14.45 23.75 15.0 23.35 15.2 23.55 14.75 23.1 14.15 23.65 14.25 23.15 13.9 22.7 13.35 23.15 12.95 22.1 13.15 22.7 12.1 21.6 12.45 21.8 12.05 21.05 11.85 21.7 11.15 21.2 10.75 21.05 11.15 20.6 11.4 21.35 10.05 19.9 10.65 20.6 9.65 19.85 9.55 19.35 9.95 19.8 9.45 19.9 8.8 19.45 9.05 19.05 8.5 19.45 8.05 18.65 7.95 18.15 8.4 18.55 7.3 18.1 7.55 18.2 6.45 17.55 7.05 16.85 7.15 16.6 6.55 16.3 6.15 16.0 6.5 15.95 6.55 15.95 6.5 16.0 6.3 15.9 6.3 15.8 6.3 15.7 6.25 15.7 5.95 15.7 5.9 15.7 5.85 15.75 5.8 15.85 5.75 15.95 5.8 16.0 5.8 16.0 5.85 16.05 6.2 17.0 4.85 17.1 4.9 17.6 4.55 18.6 4.55 18.95 4.65 19.3 4.75 Q19.3 5.1 19.65 5.35 L20.45 5.55 20.6 5.65 M20.7 19.9 L20.75 20.05 20.95 20.2 21.0 20.35 21.4 21.2 21.6 22.2 21.95 22.45 22.0 22.55 22.05 23.6 21.3 24.35 21.4 24.5 Q20.55 23.65 20.25 22.25 L20.15 21.9 20.15 21.75 19.9 21.6 Q19.6 21.45 19.75 21.15 L19.2 21.0 19.05 20.4 Q19.0 19.85 18.65 19.95 L18.5 19.9 18.65 19.25 17.95 19.4 17.75 18.7 17.2 18.55 17.15 18.05 16.7 17.6 16.4 17.35 16.4 17.2 15.55 17.05 14.8 15.9 13.7 15.7 14.05 15.3 13.1 15.3 13.05 15.05 12.7 15.1 12.85 14.65 12.5 14.4 12.25 14.9 11.5 14.5 11.25 14.05 10.7 14.1 10.35 13.6 9.15 13.5 8.1 13.0 7.85 12.5 7.45 13.05 7.0 12.6 6.75 13.15 5.75 12.65 5.15 13.45 5.2 13.25 5.4 12.8 5.25 12.1 4.95 11.9 3.8 10.95 3.55 10.7 3.1 11.0 2.95 10.7 3.75 10.1 5.05 11.2 5.4 11.4 6.15 11.4 8.25 11.05 9.7 11.1 10.35 11.6 11.05 11.5 12.75 12.25 13.25 13.25 13.35 12.6 13.6 12.75 13.55 12.95 Q13.85 12.85 13.85 13.3 L14.3 13.2 14.6 13.35 14.65 13.85 14.9 13.5 15.25 13.7 15.35 13.85 15.4 13.8 15.45 13.75 15.3 12.8 14.8 12.4 14.85 11.85 14.55 11.5 14.65 11.4 14.1 11.0 14.05 10.85 14.15 10.7 Q14.55 10.2 13.85 10.2 L13.85 10.15 13.95 10.0 Q14.1 9.55 13.65 9.45 L13.45 7.55 13.45 7.45 13.6 7.35 13.6 6.9 13.65 6.7 13.85 6.7 14.0 6.75 14.55 7.05 14.75 7.75 14.25 8.05 Q14.7 12.55 17.75 15.95 L17.75 16.1 17.75 16.15 17.8 16.2 17.95 16.3 18.1 16.55 18.2 16.65 18.45 16.95 18.55 17.05 18.8 17.4 19.1 17.7 19.2 17.9 19.5 18.1 19.65 18.4 19.6 18.45 19.75 18.55 20.7 19.9 M13.7 27.5 L13.6 27.45 13.35 26.9 11.65 26.25 11.35 26.05 11.25 25.9 11.1 25.9 10.8 25.75 10.45 25.4 10.45 25.5 10.1 25.25 9.9 24.8 9.3 24.6 9.1 24.4 8.9 24.0 8.45 23.85 7.5 22.95 7.25 22.25 Q7.0 21.95 6.65 21.95 L6.6 21.85 6.55 21.7 6.1 21.25 5.05 19.95 5.1 19.9 5.0 19.8 4.1 18.5 4.2 18.45 4.0 18.25 3.8 17.95 3.8 17.8 3.7 17.75 3.45 17.0 3.55 16.9 3.4 16.75 3.2 16.1 3.15 15.7 3.2 15.55 3.15 15.5 3.0 15.55 Q2.65 15.35 3.15 15.1 L3.2 15.1 3.15 14.35 3.3 14.0 4.3 15.25 4.0 15.7 Q3.9 17.2 4.55 18.45 6.25 21.6 9.15 23.4 L9.25 23.85 14.65 27.5 13.7 27.5 M16.35 5.15 L16.2 5.1 15.75 4.8 14.5 3.4 14.2 3.6 13.9 3.2 14.5 2.75 16.35 4.6 16.9 4.6 17.0 4.65 17.05 4.8 16.75 5.0 16.5 5.1 16.35 5.15 M16.9 6.15 L16.95 6.8 17.25 5.6 16.9 6.15 M12.45 2.0 L12.7 2.1 12.7 2.25 12.6 2.25 12.1 2.25 11.75 2.0 11.8 1.95 11.85 1.9 11.95 1.9 12.45 2.0 M11.4 1.6 L11.75 1.85 11.7 1.95 11.6 1.95 10.65 2.0 10.6 1.95 10.6 1.9 10.65 1.75 11.0 1.6 11.1 1.6 11.2 1.6 11.25 1.6 11.4 1.6 M10.35 1.9 L10.45 1.95 10.45 2.1 9.85 2.45 9.7 2.45 9.65 2.4 9.65 2.3 9.85 2.1 10.35 1.9 M13.45 3.15 L13.3 3.15 12.95 2.85 Q12.7 2.6 12.9 2.5 L13.15 2.6 13.3 2.75 13.5 3.1 13.45 3.15 M10.15 6.0 L10.05 6.05 Q9.9 6.1 9.8 5.9 L9.5 5.2 9.6 5.1 9.65 5.15 10.0 5.6 10.15 6.0 M8.15 4.45 L8.1 4.55 7.1 4.4 7.1 4.3 6.65 4.05 6.5 4.05 6.0 4.05 5.95 4.2 5.5 4.25 5.05 4.15 5.1 4.0 5.9 4.05 5.9 4.0 5.95 4.0 6.0 4.0 6.0 3.95 6.4 3.7 7.0 3.9 7.2 4.15 7.25 4.2 7.3 4.2 7.3 4.25 7.55 4.25 8.15 4.45 M4.75 3.8 L4.95 3.95 4.9 4.1 Q4.5 4.0 4.2 4.25 L3.95 4.25 3.95 4.15 4.05 3.95 4.2 3.9 4.75 3.8 M3.7 4.35 L3.8 4.4 3.75 4.55 3.1 4.95 2.95 4.85 2.95 4.8 3.7 4.35 M2.1 5.9 L2.25 5.95 2.25 6.05 1.85 7.1 Q1.65 7.45 1.85 7.85 L1.75 7.95 1.7 7.95 1.65 7.95 1.45 7.5 2.1 5.9 M9.95 6.45 L10.0 6.55 10.0 7.15 9.9 7.2 9.75 7.2 Q9.6 6.8 9.85 6.4 L9.95 6.45 M9.8 7.5 L9.9 7.5 10.0 7.55 10.05 7.6 10.0 7.7 9.85 7.9 9.3 8.35 Q9.15 8.15 9.3 8.0 L9.8 7.5 M8.95 8.15 L8.95 8.25 8.95 8.3 8.1 8.3 8.1 8.2 8.15 8.15 8.35 8.1 8.95 8.15 M8.0 8.05 L7.8 8.15 7.3 7.8 7.35 7.65 7.4 7.55 7.45 7.6 8.0 7.95 8.0 8.05 M6.75 5.5 L6.9 5.55 6.9 6.25 6.8 6.3 6.75 6.15 6.75 5.5 M6.45 6.35 L6.65 6.45 Q6.55 6.85 6.8 7.2 L6.8 7.45 6.65 7.45 6.6 7.35 Q6.35 6.85 6.45 6.35 M8.55 3.0 L8.65 3.05 8.6 3.2 7.9 3.75 7.8 3.7 7.8 3.6 8.55 3.0 M9.45 2.15 L9.55 2.2 9.5 2.3 9.45 2.35 9.35 2.4 8.7 2.85 8.6 2.85 8.5 2.7 8.9 2.25 9.15 2.15 9.2 2.1 9.35 2.1 9.45 2.15 M8.3 4.5 L8.35 4.45 8.95 4.4 Q9.35 4.55 9.45 5.0 L9.45 5.1 9.2 5.1 9.1 5.0 Q8.9 4.75 8.6 4.75 L8.2 4.75 8.2 4.65 8.3 4.5 M2.25 5.6 L2.2 5.5 2.2 5.45 Q2.2 5.05 2.6 4.9 L2.75 4.9 2.85 5.0 2.7 5.15 2.35 5.6 2.25 5.6 M1.95 8.45 L2.05 8.3 2.2 8.4 2.35 8.65 2.35 8.9 2.25 9.05 2.1 8.95 1.95 8.7 1.95 8.45 M16.45 14.95 L16.35 14.75 Q16.15 15.35 16.45 14.95 M17.45 15.8 L17.05 15.8 17.25 16.0 17.45 15.8" fill="#ffffff" fill-rule="evenodd" stroke="none"/>
    <path d="M13.4 4.15 L13.65 3.9 13.85 4.05 14.55 5.05 15.65 6.1 15.45 7.85 14.5 6.2 14.4 6.0 13.9 5.0 13.4 4.15 M5.7 16.2 L5.05 15.7 Q3.85 14.7 3.4 13.3 L2.95 12.6 2.25 11.65 Q2.1 11.45 2.3 11.25 L2.55 11.05 2.7 10.9 3.5 11.6 3.7 11.8 4.25 12.35 4.4 12.45 4.7 13.7 4.85 14.8 4.85 14.85 5.4 15.8 5.65 16.05 5.7 16.2" fill="#999999" fill-rule="evenodd" stroke="none"/>
    <path d="M15.95 6.55 L16.0 6.5 16.3 6.15 16.6 6.55 16.85 7.15 17.55 7.05 18.2 6.45 18.1 7.55 18.55 7.3 18.15 8.4 18.65 7.95 19.45 8.05 19.05 8.5 19.45 9.05 19.9 8.8 19.8 9.45 19.35 9.95 19.85 9.55 20.6 9.65 19.9 10.65 21.35 10.05 20.6 11.4 21.05 11.15 21.2 10.75 21.7 11.15 21.05 11.85 21.8 12.05 21.6 12.45 22.7 12.1 22.1 13.15 23.15 12.95 22.7 13.35 23.15 13.9 23.65 14.25 23.1 14.15 23.55 14.75 23.35 15.2 23.75 15.0 23.9 14.45 24.45 14.85 23.95 15.4 24.45 15.6 23.9 16.0 24.6 15.9 24.65 15.95 24.35 16.5 24.5 16.5 24.55 17.05 25.0 17.6 26.3 17.55 25.35 18.35 26.45 18.95 25.7 18.85 26.3 19.25 26.1 19.8 26.7 20.45 26.6 21.55 27.0 21.8 26.4 22.6 26.6 23.3 26.7 23.6 25.7 23.9 25.5 23.85 25.55 23.95 24.45 24.05 24.45 23.9 Q24.1 23.6 23.45 23.9 L23.1 23.8 22.95 23.2 22.7 23.55 22.4 23.45 22.0 22.55 21.95 22.45 21.4 21.2 21.0 20.35 20.95 20.2 20.7 19.9 19.75 18.55 19.65 18.4 19.5 18.1 19.2 17.9 19.1 17.7 18.8 17.4 18.55 17.05 18.45 16.95 18.2 16.65 18.1 16.55 17.95 16.3 17.8 16.2 17.75 16.1 17.75 15.95 Q14.7 12.55 14.25 8.05 L14.75 7.75 16.15 9.55 16.4 9.35 16.4 9.2 16.0 8.95 15.85 9.0 15.95 6.55 M23.15 20.35 L23.05 19.4 22.8 20.1 23.15 20.35 M22.75 18.55 L22.05 18.3 21.9 18.75 21.95 18.8 22.1 18.8 22.7 19.05 22.7 19.0 22.3 18.75 22.75 18.55 M20.6 15.8 L20.75 15.55 20.4 14.95 20.2 14.4 19.6 14.2 20.15 15.7 20.6 15.8 M21.7 16.9 L21.55 16.75 21.5 16.65 21.5 16.55 21.15 16.15 Q21.65 15.85 20.55 16.3 L21.15 16.65 21.2 17.35 21.65 17.9 22.5 18.1 21.55 17.35 21.7 16.9 M5.4 12.8 L5.2 13.25 4.75 13.2 5.4 12.8 M5.15 13.45 L5.75 12.65 6.75 13.15 7.0 12.6 7.45 13.05 7.85 12.5 8.1 13.0 9.15 13.5 10.35 13.6 10.7 14.1 11.25 14.05 11.5 14.5 12.25 14.9 12.5 14.4 12.85 14.65 12.7 15.1 13.05 15.05 13.1 15.3 14.05 15.3 13.7 15.7 14.8 15.9 15.55 17.05 16.4 17.2 16.4 17.35 16.7 17.6 17.15 18.05 17.2 18.55 17.75 18.7 17.95 19.4 18.65 19.25 18.5 19.9 18.65 19.95 Q19.0 19.85 19.05 20.4 L19.2 21.0 19.75 21.15 Q19.6 21.45 19.9 21.6 L20.15 21.75 20.15 21.9 20.25 22.25 Q20.55 23.65 21.4 24.5 L21.3 24.35 22.05 23.6 22.55 24.55 22.6 24.75 22.55 25.2 21.85 25.65 22.35 25.8 22.2 26.1 Q21.85 26.1 21.6 26.4 21.35 26.7 21.35 27.15 L21.05 27.4 20.5 27.75 20.3 27.75 20.35 27.8 20.0 28.0 19.95 27.95 19.85 28.1 19.3 28.3 18.25 28.4 18.1 28.6 17.3 28.65 16.8 28.3 16.3 28.45 14.65 27.5 9.25 23.85 9.15 23.4 Q6.25 21.6 4.55 18.45 3.9 17.2 4.0 15.7 L4.3 15.25 Q5.35 17.5 7.75 16.6 L7.8 16.6 7.1 16.3 6.55 16.5 6.35 16.2 6.1 16.05 5.7 16.2 5.65 16.05 5.55 15.85 5.4 15.8 5.4 15.15 4.85 14.85 4.85 14.8 4.9 13.8 5.15 13.45 M16.9 6.15 L17.25 5.6 16.95 6.8 16.9 6.15 M18.25 11.75 L17.8 12.0 Q17.85 10.85 17.35 11.95 L18.15 12.85 18.4 12.2 18.25 11.75 M17.35 11.2 Q17.0 11.5 17.4 11.35 L17.85 11.2 17.35 11.2 M17.35 10.6 L16.95 10.45 16.75 10.45 17.35 10.6 M11.9 18.3 L12.2 17.95 11.7 18.0 11.65 17.5 11.15 17.7 11.0 17.15 10.15 16.75 9.85 16.9 9.55 16.55 8.5 16.5 9.45 17.4 9.6 17.55 9.9 18.0 9.85 18.05 10.1 18.25 10.55 18.7 10.5 18.7 10.65 18.85 10.95 19.1 11.35 19.55 11.4 19.55 13.0 20.95 13.1 21.05 13.1 21.0 Q13.2 20.85 13.25 20.9 L15.5 22.45 17.45 23.45 17.1 22.95 16.75 22.9 16.75 22.8 16.75 22.5 16.2 22.5 16.25 22.3 16.45 22.15 15.9 22.0 Q15.65 21.45 15.25 21.25 14.7 20.95 15.05 20.5 L14.85 20.3 14.25 19.95 14.05 19.5 13.65 19.7 13.7 19.2 13.1 19.2 12.95 18.5 12.55 18.2 12.2 18.55 11.9 18.3 M18.75 12.95 Q18.3 13.0 18.65 13.35 L19.55 14.05 18.75 12.95 M18.0 24.3 L17.8 24.3 17.9 24.55 18.0 24.3 M17.55 23.6 L17.1 23.8 17.8 24.2 17.55 23.6" fill="#dde0e3" fill-rule="evenodd" stroke="none"/>
  </g>
</svg>
