<?xml version="1.0" encoding="UTF-8" standalone="no"?>
<svg xmlns:ffdec="https://www.free-decompiler.com/flash" xmlns:xlink="http://www.w3.org/1999/xlink" ffdec:objectType="shape" height="25.05px" width="27.5px" xmlns="http://www.w3.org/2000/svg">
  <g transform="matrix(1.0, 0.0, 0.0, 1.0, -1.3, -2.6)">
    <path d="M10.6 14.7 L10.5 15.0 Q9.25 16.85 10.2 19.2 11.15 21.45 13.65 22.75 16.15 24.05 18.7 23.65 21.3 23.15 22.55 21.25 23.55 19.5 22.8 17.5 L22.6 16.5 Q21.7 14.25 19.3 13.0 16.85 11.7 14.35 12.2 11.85 12.65 10.75 14.55 L10.6 14.7 M18.15 7.7 L16.7 4.05 15.35 4.25 14.0 4.55 15.8 8.8 18.45 8.35 18.15 7.7 M14.35 8.25 L12.95 4.75 11.5 5.05 10.3 5.2 12.05 9.35 14.65 8.9 14.35 8.25 M8.1 10.1 Q7.5 10.2 7.15 10.7 6.9 11.15 7.15 11.8 L7.95 12.65 9.2 12.85 Q9.9 12.7 10.15 12.25 10.5 11.75 10.2 11.2 10.0 10.6 9.35 10.3 L8.1 10.1 M9.8 7.3 L9.3 6.45 5.0 7.55 9.8 7.3 M1.8 5.95 L19.6 2.85 28.3 23.95 10.5 27.15 1.8 5.95" fill="#d3cac2" fill-rule="evenodd" stroke="none"/>
    <path d="M22.8 17.5 Q23.25 19.1 22.35 20.55 21.25 22.4 18.75 22.85 16.2 23.25 13.75 22.05 11.45 20.8 10.5 18.55 9.7 16.45 10.6 14.7 L10.75 14.55 Q11.85 12.65 14.35 12.2 16.85 11.7 19.3 13.0 21.7 14.25 22.6 16.5 L22.8 17.5 M19.75 16.5 L20.0 17.1 21.95 16.6 19.75 16.5 M13.55 17.65 Q11.5 17.25 11.4 18.2 L13.75 17.9 13.55 17.65 M14.7 12.9 L14.7 13.1 Q15.1 14.4 15.8 14.8 L15.8 14.0 Q15.75 13.05 14.7 12.9" fill="#a59185" fill-rule="evenodd" stroke="none"/>
    <path d="M22.8 17.5 Q23.55 19.5 22.55 21.25 21.3 23.15 18.7 23.65 16.15 24.05 13.65 22.75 11.15 21.45 10.2 19.2 9.25 16.85 10.5 15.0 L10.6 14.7 Q9.7 16.45 10.5 18.55 11.45 20.8 13.75 22.05 16.2 23.25 18.75 22.85 21.25 22.4 22.35 20.55 23.25 19.1 22.8 17.5 M18.15 7.7 L18.45 8.35 15.8 8.8 14.0 4.55 15.35 4.25 16.85 7.95 18.15 7.7 M14.35 8.25 L14.65 8.9 12.05 9.35 10.3 5.2 11.5 5.05 12.9 8.55 14.35 8.25 M8.1 10.1 L9.35 10.3 Q10.0 10.6 10.2 11.2 10.5 11.75 10.15 12.25 9.9 12.7 9.2 12.85 L7.95 12.65 7.15 11.8 Q6.9 11.15 7.15 10.7 7.5 10.2 8.1 10.1 M8.35 10.35 Q7.95 10.45 7.6 10.85 7.4 11.2 7.6 11.6 L8.2 12.2 9.1 12.4 Q9.55 12.25 9.75 11.9 10.0 11.55 9.85 11.2 L9.15 10.5 8.35 10.35 M14.7 12.9 Q15.75 13.05 15.8 14.0 L15.8 14.8 Q15.1 14.4 14.7 13.1 L14.7 12.9 M13.55 17.65 L13.75 17.9 11.4 18.2 Q11.5 17.25 13.55 17.65 M19.75 16.5 L21.95 16.6 20.0 17.1 19.75 16.5" fill="#625248" fill-rule="evenodd" stroke="none"/>
    <path d="M15.35 4.25 L16.7 4.05 18.15 7.7 16.85 7.95 15.35 4.25" fill="#00ff00" fill-rule="evenodd" stroke="none"/>
    <path d="M11.5 5.05 L12.95 4.75 14.35 8.25 12.9 8.55 11.5 5.05 M8.35 10.35 L9.15 10.5 9.85 11.2 Q10.0 11.55 9.75 11.9 9.55 12.25 9.1 12.4 L8.2 12.2 7.6 11.6 Q7.4 11.2 7.6 10.85 7.95 10.45 8.35 10.35" fill="#ff0000" fill-rule="evenodd" stroke="none"/>
    <path d="M9.8 7.3 L5.0 7.55 9.3 6.45 9.8 7.3" fill="#ffffff" fill-rule="evenodd" stroke="none"/>
    <path d="M1.8 5.95 L19.6 2.85 28.3 23.95" ffdec:has-small-stroke="true" ffdec:original-stroke-width="0.5" fill="none" stroke="#666666" stroke-linecap="round" stroke-linejoin="round" stroke-width="1.0"/>
    <path d="M28.3 23.95 L10.5 27.15 1.8 5.95" fill="none" stroke="#666666" stroke-linecap="round" stroke-linejoin="round" stroke-width="1.0"/>
  </g>
</svg>
