<?xml version="1.0" encoding="UTF-8" standalone="no"?>
<svg xmlns:ffdec="https://www.free-decompiler.com/flash" xmlns:xlink="http://www.w3.org/1999/xlink" ffdec:objectType="shape" height="27.35px" width="27.8px" xmlns="http://www.w3.org/2000/svg">
  <g transform="matrix(1.0, 0.0, 0.0, 1.0, -1.2, -1.45)">
    <path d="M27.5 2.9 L27.4 2.75 27.95 3.35 Q29.45 5.6 28.85 8.25 L27.6 13.85 26.45 17.6 Q24.95 21.55 21.75 24.45 L21.75 24.55 Q19.4 26.7 16.35 27.85 13.7 28.85 10.9 28.8 L8.45 28.45 6.65 27.85 Q5.75 27.55 5.15 26.95 L4.85 26.75 3.8 26.1 Q3.25 25.55 3.0 24.85 L2.5 23.85 Q1.0 21.6 1.25 19.05 1.35 18.0 1.7 17.0 3.35 12.3 7.6 9.4 10.3 7.5 13.55 6.7 L18.0 5.9 Q18.45 3.6 20.5 2.35 L20.65 2.05 Q20.85 1.65 21.3 1.55 21.85 1.4 22.4 1.55 L22.3 1.55 22.35 1.6 23.15 1.45 Q25.55 1.35 27.5 2.9 M27.1 3.35 L27.3 3.65 26.95 4.95 Q26.4 6.2 25.15 7.05 L24.15 7.65 23.85 7.85 Q22.4 8.65 20.8 8.55 19.3 8.45 18.8 7.15 L18.85 7.1 18.85 7.05 19.4 7.75 Q20.85 8.75 22.55 8.15 L23.0 7.95 Q24.35 7.4 25.5 6.5 L25.95 6.1 26.85 4.85 27.05 3.7 27.0 3.25 27.0 3.2 27.1 3.35 M24.4 3.25 L24.35 3.35 Q23.75 4.2 22.8 4.7 L19.75 4.65 19.7 4.3 19.9 3.95 19.95 4.1 20.0 4.45 Q20.2 4.8 20.6 4.8 L20.7 4.8 20.85 4.8 20.95 4.8 21.1 4.8 21.15 4.8 21.45 4.7 22.95 4.25 23.05 4.2 23.3 4.05 23.35 4.0 23.8 3.65 24.15 3.35 24.2 3.25 Q24.4 2.8 24.2 2.4 L24.1 2.25 24.45 2.3 24.4 3.25 M17.6 26.75 L19.0 26.0 20.0 25.35 Q25.05 21.6 26.65 15.6 L28.25 9.5 Q28.75 7.7 28.55 5.8 28.4 4.25 27.35 3.15 25.45 1.5 23.0 1.95 L22.55 2.05 22.55 2.35 22.45 2.45 22.4 2.2 22.35 2.1 Q22.05 1.55 21.45 1.7 L20.95 2.15 21.15 2.8 21.65 2.75 21.9 2.75 21.85 2.85 21.8 2.9 21.75 2.95 21.65 3.0 21.45 3.05 21.35 3.05 21.3 3.1 21.25 3.1 21.1 3.1 20.7 2.8 20.2 3.1 Q18.8 4.05 18.6 5.8 18.5 6.3 18.55 6.8 L18.65 7.45 Q18.9 9.0 20.05 10.2 L20.55 10.6 21.65 11.05 24.5 10.8 24.75 10.7 25.45 10.4 25.2 10.65 Q23.95 11.55 22.4 11.5 L21.0 11.35 Q20.25 11.1 19.8 10.5 L18.45 8.65 18.35 8.45 18.3 8.35 18.3 8.3 18.1 7.2 18.0 6.3 Q15.4 6.55 13.0 7.35 8.2 8.85 4.85 12.45 4.1 13.25 3.5 14.2 2.25 16.2 1.85 18.5 1.55 20.0 1.85 21.45 L2.15 22.35 Q2.85 24.0 4.35 25.1 L5.05 25.5 Q7.3 26.4 9.7 26.05 L13.55 25.2 Q17.8 23.85 20.8 20.7 21.0 20.45 21.25 20.3 L22.05 19.25 23.0 18.05 23.35 17.4 Q24.2 16.2 24.55 14.8 L24.7 13.25 Q24.65 13.05 24.75 12.85 L24.75 12.8 25.1 11.95 24.95 11.6 24.95 11.45 25.25 11.3 25.35 11.35 25.55 11.6 25.6 11.65 25.65 11.75 25.65 12.3 25.45 12.65 25.2 12.8 Q24.75 14.1 24.55 15.6 L24.25 16.45 Q22.15 20.05 18.8 22.7 L17.1 23.85 Q14.1 25.6 10.65 26.1 L10.2 26.2 Q7.35 26.65 4.8 25.5 L2.95 24.35 3.0 24.55 Q3.6 26.1 5.25 26.65 L8.2 27.1 11.2 26.75 14.05 25.95 16.9 24.7 19.3 23.15 21.55 21.3 23.45 19.1 24.8 16.75 25.55 14.25 Q25.5 15.65 24.9 17.0 L23.3 19.5 21.45 21.5 19.3 23.3 16.85 24.8 14.2 26.0 11.45 26.9 8.6 27.2 6.05 27.0 6.0 27.0 6.2 27.1 Q7.35 28.0 8.85 28.35 L11.8 28.55 14.9 28.0 17.6 26.75 M19.6 11.85 L19.6 11.95 19.65 12.0 Q19.95 13.1 19.7 14.25 19.2 16.4 17.65 18.05 L16.2 19.4 Q14.45 20.9 12.2 21.65 L9.0 21.75 8.3 21.5 Q6.15 20.15 6.3 17.65 6.45 15.3 8.25 13.75 L8.35 13.7 7.9 14.4 7.3 15.8 7.05 19.1 7.1 19.15 7.1 19.3 7.1 19.1 7.5 19.95 7.7 18.3 Q7.95 17.15 8.65 16.25 9.75 14.7 11.35 13.6 13.05 12.35 15.0 11.55 16.25 11.0 17.6 11.1 L18.85 11.65 18.6 11.25 18.15 10.85 Q17.1 10.05 15.85 10.15 L17.3 9.95 17.9 10.05 17.95 10.1 18.15 10.15 18.35 10.25 Q19.25 10.8 19.6 11.85 M12.85 10.65 L13.0 10.55 14.85 10.3 12.4 11.05 12.5 10.8 12.85 10.65 M25.85 13.4 Q25.85 12.95 26.15 12.5 L26.35 11.95 26.5 10.85 26.6 11.05 Q26.85 11.7 26.6 12.35 L25.85 13.9 25.85 13.4 M17.85 11.55 L15.8 11.95 Q14.9 12.2 14.1 12.6 13.65 12.6 13.25 12.9 11.45 14.1 9.95 15.7 8.6 17.05 8.3 18.9 8.15 19.75 8.65 20.45 L9.45 21.15 11.55 21.35 Q13.6 20.95 15.15 19.55 L16.3 18.6 Q18.0 17.1 18.95 15.15 19.7 13.55 18.65 12.2 L17.85 11.55" fill="#333333" fill-rule="evenodd" stroke="none"/>
    <path d="M26.95 4.95 L27.3 3.65 27.1 3.35 Q27.85 3.65 27.9 4.45 L27.75 4.85 26.95 4.95 M27.0 3.25 L27.05 3.7 26.85 4.85 25.95 6.1 25.5 6.5 Q24.35 7.4 23.0 7.95 L22.6 7.9 22.5 7.85 22.25 7.75 22.1 7.6 22.1 7.5 Q22.2 7.25 22.45 7.15 L23.5 6.65 Q25.15 5.7 26.05 4.1 L25.9 3.95 Q25.2 3.4 24.4 3.25 L24.45 2.3 24.1 2.25 24.2 2.4 Q24.4 2.8 24.2 3.25 L24.0 3.3 23.35 4.0 23.3 4.05 23.05 4.2 22.95 4.25 21.45 4.7 21.25 4.7 20.9 4.55 20.75 4.4 20.75 4.35 20.9 4.15 21.85 4.1 23.25 3.2 22.95 3.05 22.7 2.65 22.8 2.4 Q23.35 1.95 24.15 2.1 25.75 2.25 27.0 3.25 M21.85 2.85 L21.9 2.75 21.65 2.75 21.4 2.55 Q21.05 2.05 21.45 1.7 22.05 1.55 22.35 2.1 L22.4 2.2 22.2 2.7 21.85 2.85 M14.7 8.7 Q12.95 9.2 11.35 9.95 10.2 10.4 9.25 11.2 L7.9 12.35 Q6.55 13.4 5.6 14.85 L5.25 15.6 4.3 16.65 4.2 16.6 3.9 16.45 3.55 16.25 3.45 15.75 Q3.5 14.95 4.0 14.35 4.85 13.15 5.85 12.15 6.9 11.1 8.1 10.25 L10.3 8.85 12.9 7.75 15.75 7.05 16.9 6.95 Q17.3 6.95 17.55 7.3 L17.65 7.5 17.6 7.75 16.75 8.2 14.7 8.7 M23.2 13.7 L22.9 15.1 21.45 17.6 19.65 19.6 17.45 21.45 14.85 23.1 12.05 24.15 10.55 24.3 10.05 24.3 9.6 24.25 Q8.8 24.15 8.35 23.55 8.2 23.3 8.4 23.1 L8.6 22.95 9.3 22.85 10.85 22.75 11.7 22.55 14.55 21.6 17.05 20.05 19.15 18.0 20.7 15.55 21.65 12.85 Q21.75 12.55 22.1 12.5 L22.3 12.5 Q23.2 12.75 23.2 13.7" fill="#ffffff" fill-rule="evenodd" stroke="none"/>
    <path d="M27.1 3.35 L27.0 3.2 27.0 3.25 Q25.75 2.25 24.15 2.1 23.35 1.95 22.8 2.4 L22.7 2.65 22.95 3.05 23.25 3.2 21.85 4.1 20.9 4.15 20.75 4.35 20.75 4.4 20.9 4.55 21.25 4.7 21.45 4.7 21.15 4.8 21.1 4.8 20.95 4.8 20.85 4.8 20.7 4.8 20.6 4.8 Q20.2 4.8 20.0 4.45 L19.95 4.1 19.9 3.95 19.7 4.3 19.75 4.65 22.8 4.7 Q23.75 4.2 24.35 3.35 L24.4 3.25 Q25.2 3.4 25.9 3.95 L26.05 4.1 Q25.15 5.7 23.5 6.65 L22.45 7.15 Q22.2 7.25 22.1 7.5 L22.1 7.6 22.25 7.75 22.5 7.85 22.6 7.9 23.0 7.95 22.55 8.15 Q20.85 8.75 19.4 7.75 L18.85 7.05 18.85 7.1 18.75 6.9 18.55 6.8 Q18.5 6.3 18.6 5.8 18.8 4.05 20.2 3.1 L20.2 3.15 Q20.55 3.6 21.1 3.3 L21.3 3.1 21.35 3.05 21.45 3.05 21.65 3.0 21.75 2.95 21.8 2.9 21.85 2.85 22.2 2.7 22.4 2.2 22.45 2.45 22.55 2.35 22.55 2.05 23.0 1.95 Q25.45 1.5 27.35 3.15 28.4 4.25 28.55 5.8 28.75 7.7 28.25 9.5 L26.65 15.6 Q25.05 21.6 20.0 25.35 L19.0 26.0 17.6 26.75 14.5 27.35 13.65 27.35 12.35 27.0 16.6 25.5 Q18.5 24.65 20.15 23.35 L21.15 22.45 22.0 21.65 23.7 19.7 Q24.95 17.9 25.65 15.9 L26.0 14.55 26.1 14.1 26.6 12.35 Q26.85 11.7 26.6 11.05 L26.5 10.85 26.35 11.95 26.15 12.5 Q25.85 12.95 25.85 13.4 L25.55 14.2 25.55 14.25 24.7 16.75 23.55 18.7 21.7 20.9 21.15 21.45 19.1 23.25 16.85 24.6 14.3 25.65 11.75 26.4 10.5 26.6 7.5 26.5 6.6 26.4 Q5.6 26.1 4.8 25.5 7.35 26.65 10.2 26.2 L10.65 26.1 Q14.1 25.6 17.1 23.85 L18.8 22.7 Q22.15 20.05 24.25 16.45 L24.55 15.6 Q24.75 14.1 25.2 12.8 L25.45 12.65 25.65 12.3 25.65 11.75 25.6 11.65 25.55 11.6 25.35 11.35 25.75 10.55 25.6 10.35 25.45 10.4 24.75 10.7 24.5 10.8 23.15 11.0 22.35 10.95 Q21.35 10.85 21.1 10.0 L21.05 9.4 21.2 9.0 Q22.95 8.9 24.25 7.8 L23.85 7.85 24.15 7.65 25.15 7.05 Q26.4 6.2 26.95 4.95 L27.75 4.85 27.9 4.45 Q27.85 3.65 27.1 3.35 M6.2 27.1 L6.0 27.0 6.05 27.0 6.2 27.1 M24.75 12.8 L24.75 12.85 Q24.65 13.05 24.7 13.25 L24.55 14.8 Q24.2 16.2 23.35 17.4 L23.0 18.05 22.05 19.25 21.25 20.3 Q21.0 20.45 20.8 20.7 17.8 23.85 13.55 25.2 L9.7 26.05 Q7.3 26.4 5.05 25.5 L4.35 25.1 Q2.85 24.0 2.15 22.35 L1.85 21.45 Q1.55 20.0 1.85 18.5 2.25 16.2 3.5 14.2 4.1 13.25 4.85 12.45 8.2 8.85 13.0 7.35 15.4 6.55 18.0 6.3 L18.1 7.2 18.3 8.3 18.3 8.35 18.35 8.45 Q18.0 9.25 18.15 10.1 L18.15 10.15 17.95 10.1 17.9 10.05 17.3 9.95 15.85 10.15 14.85 10.3 13.0 10.55 12.85 10.65 Q11.75 10.95 10.8 11.6 9.65 12.35 8.75 13.4 L7.9 14.4 8.35 13.7 8.25 13.75 Q6.45 15.3 6.3 17.65 6.15 20.15 8.3 21.5 L9.0 21.75 12.2 21.65 Q14.45 20.9 16.2 19.4 L17.65 18.05 Q19.2 16.4 19.7 14.25 19.95 13.1 19.65 12.0 L19.6 11.95 19.6 11.85 21.6 12.0 23.0 11.75 Q23.8 11.6 24.25 12.25 L24.6 12.7 24.75 12.8 M21.65 2.75 L21.15 2.8 20.95 2.15 21.45 1.7 Q21.05 2.05 21.4 2.55 L21.65 2.75 M24.2 3.25 L24.15 3.35 23.8 3.65 23.35 4.0 24.0 3.3 24.2 3.25 M23.05 4.2 L22.95 4.25 23.05 4.2 M23.2 13.7 Q23.2 12.75 22.3 12.5 L22.1 12.5 Q21.75 12.55 21.65 12.85 L20.7 15.55 19.15 18.0 17.05 20.05 14.55 21.6 11.7 22.55 10.85 22.75 9.3 22.85 8.6 22.95 8.4 23.1 Q8.2 23.3 8.35 23.55 8.8 24.15 9.6 24.25 L10.05 24.3 10.55 24.3 12.05 24.15 14.85 23.1 17.45 21.45 19.65 19.6 21.45 17.6 22.9 15.1 23.2 13.7 M14.7 8.7 L16.75 8.2 17.6 7.75 17.65 7.5 17.55 7.3 Q17.3 6.95 16.9 6.95 L15.75 7.05 12.9 7.75 10.3 8.85 8.1 10.25 Q6.9 11.1 5.85 12.15 4.85 13.15 4.0 14.35 3.5 14.95 3.45 15.75 L3.55 16.25 3.9 16.45 4.2 16.6 4.3 16.65 5.25 15.6 5.6 14.85 Q6.55 13.4 7.9 12.35 L9.25 11.2 Q10.2 10.4 11.35 9.95 12.95 9.2 14.7 8.7" fill="#dde0e3" fill-rule="evenodd" stroke="none"/>
    <path d="M18.85 7.1 L18.8 7.15 Q19.3 8.45 20.8 8.55 22.4 8.65 23.85 7.85 L24.25 7.8 Q22.95 8.9 21.2 9.0 L21.05 9.4 21.1 10.0 Q21.35 10.85 22.35 10.95 L23.15 11.0 24.5 10.8 21.65 11.05 20.55 10.6 20.05 10.2 Q18.9 9.0 18.65 7.45 L18.55 6.8 18.75 6.9 18.85 7.1 M17.6 26.75 L14.9 28.0 11.8 28.55 8.85 28.35 Q7.35 28.0 6.2 27.1 L6.05 27.0 8.6 27.2 11.45 26.9 14.2 26.0 16.85 24.8 19.3 23.3 21.45 21.5 23.3 19.5 24.9 17.0 Q25.5 15.65 25.55 14.25 L24.8 16.75 23.45 19.1 21.55 21.3 19.3 23.15 16.9 24.7 14.05 25.95 11.2 26.75 8.2 27.1 5.25 26.65 Q3.6 26.1 3.0 24.55 L2.95 24.35 4.8 25.5 Q5.6 26.1 6.6 26.4 L7.5 26.5 10.5 26.6 11.75 26.4 14.3 25.65 16.85 24.6 19.1 23.25 21.15 21.45 21.7 20.9 23.55 18.7 24.7 16.75 25.55 14.25 25.55 14.2 25.85 13.4 25.85 13.9 26.6 12.35 26.1 14.1 26.0 14.55 25.65 15.9 Q24.95 17.9 23.7 19.7 L22.0 21.65 21.15 22.45 20.15 23.35 Q18.5 24.65 16.6 25.5 L12.35 27.0 13.65 27.35 14.5 27.35 17.6 26.75 M25.35 11.35 L25.25 11.3 24.95 11.45 24.95 11.6 25.1 11.95 24.75 12.8 24.6 12.7 24.25 12.25 Q23.8 11.6 23.0 11.75 L21.6 12.0 19.6 11.85 Q19.25 10.8 18.35 10.25 L18.15 10.15 18.15 10.1 Q18.0 9.25 18.35 8.45 L18.45 8.65 19.8 10.5 Q20.25 11.1 21.0 11.35 L22.4 11.5 Q23.95 11.55 25.2 10.65 L25.45 10.4 25.6 10.35 25.75 10.55 25.35 11.35 M20.2 3.1 L20.7 2.8 21.1 3.1 21.25 3.1 21.3 3.1 21.1 3.3 Q20.55 3.6 20.2 3.15 L20.2 3.1 M7.9 14.4 L8.75 13.4 Q9.65 12.35 10.8 11.6 11.75 10.95 12.85 10.65 L12.5 10.8 12.4 11.05 14.85 10.3 15.85 10.15 Q17.1 10.05 18.15 10.85 L18.6 11.25 18.85 11.65 17.6 11.1 Q16.25 11.0 15.0 11.55 13.05 12.35 11.35 13.6 9.75 14.7 8.65 16.25 7.95 17.15 7.7 18.3 L7.5 19.95 7.1 19.1 7.05 19.1 7.3 15.8 7.9 14.4" fill="#959da6" fill-rule="evenodd" stroke="none"/>
  </g>
</svg>
