<?xml version="1.0" encoding="UTF-8" standalone="no"?>
<svg xmlns:ffdec="https://www.free-decompiler.com/flash" xmlns:xlink="http://www.w3.org/1999/xlink" ffdec:objectType="shape" height="28.05px" width="28.5px" xmlns="http://www.w3.org/2000/svg">
  <g transform="matrix(1.0, 0.0, 0.0, 1.0, -1.0, -1.2)">
    <path d="M23.3 7.2 Q23.95 7.95 24.75 8.55 L25.1 8.7 25.15 8.7 25.2 8.75 25.4 8.65 25.55 8.65 25.65 8.65 25.7 8.55 25.85 8.5 25.9 8.45 Q26.75 7.5 27.0 6.3 L27.0 6.25 Q27.15 5.75 27.6 5.55 27.8 5.4 28.05 5.55 28.8 5.85 28.85 6.65 L28.85 7.3 28.75 7.65 27.5 11.25 27.4 11.45 27.0 12.1 26.0 14.35 25.95 14.4 25.6 15.5 Q25.4 16.0 25.35 16.6 25.25 17.85 25.6 19.05 L26.35 21.4 27.05 23.8 27.15 24.3 27.4 25.8 27.25 27.2 27.2 27.3 Q26.75 27.5 26.4 27.3 L26.25 27.3 25.8 27.15 25.4 27.05 25.1 27.0 24.95 26.9 24.7 26.8 22.5 25.9 22.25 25.8 20.0 24.7 17.65 23.8 15.25 23.15 13.95 22.9 13.25 22.9 12.85 22.95 12.8 22.95 Q12.35 22.95 12.15 23.5 12.0 23.7 12.0 24.0 L11.95 24.3 11.85 24.95 11.35 26.3 11.25 26.55 11.1 26.75 11.05 26.8 9.45 28.5 9.1 28.7 8.7 28.95 8.4 29.15 7.3 29.25 6.7 29.25 4.75 28.95 4.5 28.75 4.1 28.5 3.6 28.15 3.25 27.9 2.85 27.55 2.7 27.4 2.55 27.25 2.5 27.2 2.25 26.85 1.95 26.5 1.8 26.3 1.55 25.9 1.4 25.55 Q1.05 24.65 1.05 23.65 L1.05 23.05 1.15 22.0 1.75 20.9 Q2.4 19.9 3.45 19.25 L3.7 19.05 3.9 18.95 Q4.55 18.65 5.25 18.45 L5.9 18.35 6.2 18.3 6.7 18.15 7.25 17.5 7.3 17.45 7.3 17.0 7.3 16.35 7.05 15.0 6.35 12.65 5.4 10.3 4.25 8.05 4.15 7.85 3.25 5.65 3.1 5.35 3.05 5.25 2.95 4.9 2.9 4.55 2.75 4.05 2.7 3.95 Q2.5 3.55 2.7 3.15 L2.8 3.1 4.2 2.95 5.7 3.15 6.2 3.25 8.6 3.9 10.95 4.6 13.45 4.8 14.55 4.55 15.65 4.2 15.65 4.15 17.9 3.1 18.55 2.75 18.75 2.65 22.35 1.35 22.7 1.2 23.3 1.2 Q24.1 1.2 24.45 1.95 L24.45 2.45 23.7 3.05 Q22.5 3.3 21.55 4.15 L21.55 4.2 21.5 4.35 21.4 4.45 21.4 4.5 21.35 4.65 21.3 4.85 21.3 4.9 21.3 4.95 21.45 5.35 22.55 6.5 22.75 6.65 22.85 6.8 23.05 7.0 23.25 7.2 23.3 7.2 M25.05 9.05 L23.85 8.1 23.6 7.9 23.1 7.45 23.1 7.4 22.95 7.2 22.85 7.15 22.6 6.95 22.55 6.85 22.4 6.7 22.15 6.45 20.9 4.9 21.2 4.0 22.1 3.25 Q22.6 2.9 23.25 2.7 L23.7 2.55 Q24.35 2.2 23.95 1.6 L23.2 1.5 22.55 1.65 22.4 1.7 22.2 1.75 20.6 2.3 Q19.85 2.55 19.15 2.95 18.25 3.4 17.4 3.95 L17.35 3.95 16.15 4.4 14.75 4.8 14.45 4.85 12.55 5.1 11.55 5.05 9.85 4.75 8.9 4.5 5.3 3.55 4.55 3.35 4.3 3.35 3.35 3.3 3.2 3.35 3.15 3.4 Q3.4 5.15 4.25 6.75 L5.75 9.9 Q6.65 11.95 7.1 14.2 L7.75 18.55 7.4 18.9 6.7 18.8 6.4 18.8 6.2 18.8 6.0 18.8 Q4.5 18.9 3.25 19.8 L2.25 20.7 2.25 20.75 2.2 20.8 1.9 21.2 1.85 21.25 1.55 21.85 Q0.75 24.4 2.5 26.55 L2.6 26.65 2.85 26.95 2.9 27.0 2.95 27.1 3.3 27.45 3.55 27.6 3.7 27.7 3.8 27.85 4.3 28.15 4.3 28.2 7.05 28.95 7.15 28.95 7.2 28.95 8.5 28.7 9.0 28.45 9.05 28.4 9.1 28.45 9.1 28.4 10.55 26.95 Q11.7 25.35 11.45 23.45 L11.4 23.2 11.35 22.95 11.35 22.85 11.7 22.5 16.1 23.05 Q18.3 23.45 20.4 24.35 L23.3 25.7 Q25.05 26.55 26.95 26.85 L27.05 26.5 27.0 25.7 26.95 25.45 26.75 24.7 25.75 21.15 25.45 20.2 25.15 18.5 25.1 17.45 Q25.05 16.45 25.3 15.55 L25.35 15.3 25.75 13.85 26.2 12.65 27.15 10.85 27.8 9.4 28.3 7.8 28.35 7.55 28.4 7.4 28.55 6.8 28.45 6.05 Q27.8 5.6 27.5 6.3 L27.35 6.75 26.8 7.95 26.05 8.85 25.2 9.1 25.15 9.1 25.05 9.05 M15.8 9.05 L16.65 8.5 18.65 8.05 18.85 8.1 19.05 8.15 18.65 8.25 18.0 8.35 Q16.8 8.75 15.75 9.35 L15.55 9.5 15.35 9.7 13.65 11.4 13.5 11.65 13.35 11.8 11.55 14.55 Q10.45 16.3 11.9 17.9 L12.35 18.3 12.3 18.3 12.85 18.75 Q13.8 19.35 14.95 19.0 15.75 18.7 16.45 18.2 L19.0 16.3 20.25 15.05 20.65 14.5 20.8 14.35 21.8 12.05 21.9 11.4 21.95 11.05 22.0 11.2 22.05 11.45 21.65 13.45 19.4 16.4 Q18.05 17.85 16.35 18.95 L15.2 19.55 14.85 19.65 12.75 19.5 11.6 18.6 Q10.7 17.85 10.45 16.75 10.2 15.75 10.7 14.8 11.25 13.6 12.15 12.6 L12.2 12.55 Q13.4 10.85 15.1 9.55 L15.8 9.05 M2.9 21.95 Q3.9 19.95 6.15 20.0 8.0 19.95 9.2 21.15 L9.3 21.25 9.3 21.3 9.35 21.35 Q10.0 22.05 10.2 23.05 L10.3 24.4 Q10.2 25.65 9.45 26.55 L8.45 27.3 8.1 27.45 Q4.2 28.15 3.15 24.9 L3.85 26.05 4.05 26.25 4.3 26.45 Q4.95 27.05 5.85 27.3 L7.2 27.25 7.5 27.15 8.4 26.8 9.1 26.25 9.6 25.55 9.85 24.75 9.9 24.55 Q10.25 22.95 9.2 21.65 L8.95 21.3 8.55 21.05 Q7.2 20.0 5.65 20.4 L5.5 20.45 4.7 20.75 4.05 21.25 3.45 21.9 3.1 22.8 3.0 23.1 2.9 24.05 2.85 23.6 Q2.7 22.8 2.9 21.95" fill="#0102a9" fill-rule="evenodd" stroke="none"/>
    <path d="M3.35 3.3 L4.3 3.35 4.55 3.35 5.3 3.55 8.9 4.5 9.85 4.75 11.55 5.05 12.55 5.1 14.45 4.85 14.75 4.8 16.15 4.4 17.35 3.95 17.4 3.95 Q18.25 3.4 19.15 2.95 19.85 2.55 20.6 2.3 L22.2 1.75 22.4 1.7 22.55 1.65 23.2 1.5 23.95 1.6 Q24.35 2.2 23.7 2.55 L23.25 2.7 Q22.6 2.9 22.1 3.25 L21.2 4.0 20.9 4.9 22.15 6.45 22.4 6.7 22.55 6.85 22.6 6.95 22.85 7.15 22.95 7.2 23.1 7.4 23.1 7.45 23.6 7.9 23.85 8.1 25.05 9.05 Q23.85 8.4 22.95 7.55 L22.6 7.3 22.35 7.05 22.25 6.95 Q21.2 5.85 20.55 4.45 L20.35 4.6 20.35 5.05 Q20.95 6.6 21.9 7.65 L22.4 8.1 Q23.7 9.2 25.6 9.35 L25.2 9.1 26.05 8.85 26.8 7.95 27.35 6.75 27.5 6.3 Q27.8 5.6 28.45 6.05 L28.55 6.8 28.4 7.4 28.35 7.55 28.3 7.8 27.8 9.4 27.15 10.85 26.2 12.65 25.75 13.85 25.35 15.3 25.3 15.55 Q25.05 16.45 25.1 17.45 L25.15 18.5 25.45 20.2 25.75 21.15 26.75 24.7 26.95 25.45 27.0 25.7 27.05 26.5 Q25.0 26.0 23.2 25.0 L19.75 23.2 Q17.85 22.3 15.85 22.0 L15.45 21.35 15.65 20.15 19.4 16.4 21.65 13.45 22.05 11.45 22.0 11.2 21.95 11.05 21.9 11.4 21.8 12.05 20.8 14.35 20.65 14.5 20.25 15.05 20.2 15.0 19.3 15.6 Q17.65 16.9 15.6 17.5 14.85 17.7 14.15 17.5 L13.75 17.3 Q12.8 16.6 12.55 15.45 12.4 14.85 12.55 14.25 12.75 13.4 13.2 12.65 14.1 11.05 15.35 9.7 L15.55 9.5 15.75 9.35 Q16.8 8.75 18.0 8.35 L18.65 8.25 19.05 8.15 18.85 8.1 18.65 8.05 16.65 8.5 15.8 9.05 12.65 11.55 10.05 14.4 9.8 14.65 9.3 14.9 Q8.6 14.4 8.2 13.7 L8.0 13.2 Q6.95 9.75 4.9 6.8 3.85 5.3 3.45 3.6 L3.35 3.3 M23.6 2.05 L23.45 1.8 Q22.0 1.85 20.8 2.6 L20.8 3.1 20.9 3.1 23.5 2.25 23.6 2.05 M26.2 11.55 L26.1 11.7 26.3 11.25 Q25.2 12.55 24.5 14.15 23.95 15.3 23.95 16.6 23.65 21.4 25.95 25.95 L26.6 26.1 Q26.2 23.55 25.2 21.2 24.5 19.45 24.7 17.7 25.1 14.3 26.2 11.55 M28.25 6.5 Q28.15 6.3 28.05 6.5 27.2 7.85 26.8 9.35 L26.95 9.5 27.1 9.45 Q28.3 8.2 28.25 6.5 M20.3 11.5 L20.8 11.75 20.2 13.65 20.35 13.9 Q21.75 12.9 21.1 11.25 19.6 7.25 16.2 9.65 L16.2 9.9 16.25 9.75 18.45 9.45 18.55 9.5 Q18.2 10.45 18.8 11.15 19.4 11.85 20.3 11.5 M18.8 3.7 L16.3 4.75 Q11.35 6.65 6.35 4.05 L4.25 3.7 4.2 4.05 Q7.2 5.8 10.7 6.3 15.5 7.0 18.8 3.7 M7.4 18.9 L8.75 19.45 9.1 20.1 Q7.3 18.95 5.35 19.55 L4.3 19.95 Q3.05 20.6 2.9 21.95 2.7 22.8 2.85 23.6 L2.9 24.05 3.0 24.5 3.15 24.9 Q4.2 28.15 8.1 27.45 L8.45 27.3 9.45 26.55 Q10.8 25.4 10.8 23.6 10.75 22.25 10.15 21.05 L10.65 21.3 11.35 22.85 11.35 22.95 11.1 22.95 Q10.95 24.85 10.2 26.6 L10.45 26.8 10.6 26.6 Q11.65 25.05 11.4 23.2 L11.45 23.45 Q11.7 25.35 10.55 26.95 7.9 29.55 4.95 27.6 0.15 24.4 3.25 19.8 4.5 18.9 6.0 18.8 4.35 18.95 3.3 20.25 L3.45 20.45 Q5.0 19.35 6.9 18.95 L6.7 18.8 7.4 18.9 M9.0 28.45 L8.95 28.45 9.05 28.4 9.0 28.45" fill="#5b5cfd" fill-rule="evenodd" stroke="none"/>
    <path d="M9.1 28.7 L9.05 28.75 8.7 28.95 9.1 28.7 M3.35 3.3 L3.45 3.6 Q3.85 5.3 4.9 6.8 6.95 9.75 8.0 13.2 L8.2 13.7 Q8.6 14.4 9.3 14.9 L9.8 14.65 10.05 14.4 12.65 11.55 15.8 9.05 15.1 9.55 Q13.4 10.85 12.2 12.55 L12.15 12.6 Q11.25 13.6 10.7 14.8 10.2 15.75 10.45 16.75 10.7 17.85 11.6 18.6 L12.75 19.5 14.85 19.65 15.2 19.55 16.35 18.95 Q18.05 17.85 19.4 16.4 L15.65 20.15 15.45 21.35 15.85 22.0 Q17.85 22.3 19.75 23.2 L23.2 25.0 Q25.0 26.0 27.05 26.5 L26.95 26.85 Q25.05 26.55 23.3 25.7 L20.4 24.35 Q18.3 23.45 16.1 23.05 L11.7 22.5 11.35 22.85 10.65 21.3 10.15 21.05 Q10.75 22.25 10.8 23.6 10.8 25.4 9.45 26.55 10.2 25.65 10.3 24.4 L10.2 23.05 Q10.0 22.05 9.35 21.35 L9.3 21.3 9.3 21.25 9.2 21.15 Q8.0 19.95 6.15 20.0 3.9 19.95 2.9 21.95 3.05 20.6 4.3 19.95 L5.35 19.55 Q7.3 18.95 9.1 20.1 L8.75 19.45 7.4 18.9 7.75 18.55 7.1 14.2 Q6.65 11.95 5.75 9.9 L4.25 6.75 Q3.4 5.15 3.15 3.4 L3.2 3.35 3.35 3.3 M15.35 9.7 Q14.1 11.05 13.2 12.65 12.75 13.4 12.55 14.25 12.4 14.85 12.55 15.45 12.8 16.6 13.75 17.3 L14.15 17.5 Q14.85 17.7 15.6 17.5 17.65 16.9 19.3 15.6 L20.2 15.0 20.25 15.05 19.0 16.3 16.45 18.2 Q15.75 18.7 14.95 19.0 13.8 19.35 12.85 18.75 L12.3 18.3 12.35 18.3 11.9 17.9 Q10.45 16.3 11.55 14.55 L13.35 11.8 13.5 11.65 13.65 11.4 15.35 9.7 M3.25 19.8 Q0.15 24.4 4.95 27.6 7.9 29.55 10.55 26.95 L9.1 28.4 9.1 28.45 9.05 28.4 8.95 28.45 9.0 28.45 8.5 28.7 7.2 28.95 7.15 28.95 7.05 28.95 4.3 28.2 4.3 28.15 3.8 27.85 3.7 27.7 3.55 27.6 3.3 27.45 2.95 27.1 2.9 27.0 2.85 26.95 2.6 26.65 2.5 26.55 Q0.75 24.4 1.55 21.85 L1.85 21.25 1.9 21.2 2.2 20.8 2.25 20.75 2.25 20.7 3.25 19.8" fill="#0707fc" fill-rule="evenodd" stroke="none"/>
    <path d="M25.2 9.1 L25.6 9.35 Q23.7 9.2 22.4 8.1 L21.9 7.65 Q20.95 6.6 20.35 5.05 L20.35 4.6 20.55 4.45 Q21.2 5.85 22.25 6.95 L22.35 7.05 22.6 7.3 22.95 7.55 Q23.85 8.4 25.05 9.05 L25.15 9.1 25.2 9.1 M23.6 2.05 L23.5 2.25 20.9 3.1 20.8 3.1 20.8 2.6 Q22.0 1.85 23.45 1.8 L23.6 2.05 M20.3 11.5 Q19.4 11.85 18.8 11.15 18.2 10.45 18.55 9.5 L18.45 9.45 16.25 9.75 16.2 9.9 16.2 9.65 Q19.6 7.25 21.1 11.25 21.75 12.9 20.35 13.9 L20.2 13.65 20.8 11.75 20.3 11.5 M28.25 6.5 Q28.3 8.2 27.1 9.45 L26.95 9.5 26.8 9.35 Q27.2 7.85 28.05 6.5 28.15 6.3 28.25 6.5 M26.2 11.55 Q25.1 14.3 24.7 17.7 24.5 19.45 25.2 21.2 26.2 23.55 26.6 26.1 L25.95 25.95 Q23.65 21.4 23.95 16.6 23.95 15.3 24.5 14.15 25.2 12.55 26.3 11.25 L26.1 11.7 26.2 11.55 M18.8 3.7 Q15.5 7.0 10.7 6.3 7.2 5.8 4.2 4.05 L4.25 3.7 6.35 4.05 Q11.35 6.65 16.3 4.75 L18.8 3.7 M6.7 18.8 L6.9 18.95 Q5.0 19.35 3.45 20.45 L3.3 20.25 Q4.35 18.95 6.0 18.8 L6.2 18.8 6.4 18.8 6.7 18.8 M11.4 23.2 Q11.65 25.05 10.6 26.6 L10.45 26.8 10.2 26.6 Q10.95 24.85 11.1 22.95 L11.35 22.95 11.4 23.2" fill="#c2c4fe" fill-rule="evenodd" stroke="none"/>
    <path d="M29.5 3.35 L29.5 3.55 Q26.0 4.7 23.3 7.2 L23.25 7.2 23.05 7.0 23.75 6.4 Q25.95 4.05 29.15 3.45 L29.5 3.35 M22.55 6.5 Q23.1 5.7 24.0 5.0 25.7 3.7 27.75 3.1 24.95 4.35 22.75 6.65 L22.55 6.5" fill="#666666" fill-rule="evenodd" stroke="none"/>
    <path d="M27.75 3.1 L28.75 2.85 29.5 2.65 29.5 3.35 29.15 3.45 Q25.95 4.05 23.75 6.4 L23.05 7.0 22.85 6.8 22.75 6.65 Q24.95 4.35 27.75 3.1" fill="#ffffff" fill-rule="evenodd" stroke="none"/>
  </g>
</svg>
