<?xml version="1.0" encoding="UTF-8" standalone="no"?>
<svg xmlns:ffdec="https://www.free-decompiler.com/flash" xmlns:xlink="http://www.w3.org/1999/xlink" ffdec:objectType="shape" height="26.4px" width="26.7px" xmlns="http://www.w3.org/2000/svg">
  <g transform="matrix(1.0, 0.0, 0.0, 1.0, -2.55, -2.7)">
    <path d="M17.9 7.4 L17.55 7.3 17.45 7.3 13.05 12.85 8.95 17.95 Q12.7 21.35 17.75 22.0 21.65 21.65 22.95 18.0 24.05 14.8 22.05 12.0 20.25 9.5 17.9 7.4 M3.4 11.15 L2.95 10.1 Q2.0 7.6 3.45 5.45 4.7 3.65 6.9 3.05 10.5 2.05 13.95 4.05 19.6 7.4 22.75 13.0 24.05 15.3 23.55 17.8 23.3 19.05 22.55 20.0 L22.45 20.15 22.1 20.55 22.0 20.65 Q19.4 22.8 16.2 21.95 7.4 19.65 3.65 11.75 5.3 15.0 8.15 17.35 L16.95 6.75 Q12.1 2.25 5.8 3.75 4.1 4.2 3.4 5.8 2.3 8.45 3.4 11.15" fill="#720172" fill-rule="evenodd" stroke="none"/>
    <path d="M22.55 20.0 Q26.1 23.65 29.25 27.65 L29.25 28.15 Q26.1 24.0 22.45 20.15 L22.55 20.0 M29.25 29.05 L29.25 29.1 Q26.4 26.1 23.9 22.85 L22.0 20.65 22.1 20.55 Q25.0 23.0 27.2 26.35 L29.25 29.05" fill="#3f454b" fill-rule="evenodd" stroke="none"/>
    <path d="M13.05 12.85 L16.9 8.9 Q20.85 12.1 22.8 16.8 L22.8 16.05 Q21.65 11.0 17.5 8.3 L17.9 7.4 Q20.25 9.5 22.05 12.0 24.05 14.8 22.95 18.0 21.65 21.65 17.75 22.0 12.7 21.35 8.95 17.95 L13.05 12.85 M3.65 11.75 L3.4 11.15 Q2.3 8.45 3.4 5.8 4.1 4.2 5.8 3.75 12.1 2.25 16.95 6.75 L16.35 7.45 Q12.05 2.5 5.65 4.15 L7.6 4.6 Q7.75 5.5 8.45 6.25 10.25 8.2 12.45 6.85 L15.85 8.0 9.7 15.3 8.6 14.3 Q5.05 11.25 3.95 6.5 3.75 7.3 3.8 8.15 4.1 13.55 8.5 16.8 L8.15 17.35 Q5.3 15.0 3.65 11.75 M10.85 16.1 L9.55 17.8 Q13.05 20.6 17.4 21.2 20.35 21.75 21.35 19.55 16.75 19.9 12.8 17.45 L10.85 16.1" fill="#fd8bfe" fill-rule="evenodd" stroke="none"/>
    <path d="M16.95 6.75 L8.15 17.35 8.5 16.8 Q4.1 13.55 3.8 8.15 3.75 7.3 3.95 6.5 5.05 11.25 8.6 14.3 L9.7 15.3 15.85 8.0 16.35 7.45 16.95 6.75 M10.85 16.1 L12.8 17.45 Q16.75 19.9 21.35 19.55 20.35 21.75 17.4 21.2 13.05 20.6 9.55 17.8 L10.85 16.1" fill="#cd56b6" fill-rule="evenodd" stroke="none"/>
    <path d="M17.9 7.4 L17.5 8.3 Q21.65 11.0 22.8 16.05 L22.8 16.8 Q20.85 12.1 16.9 8.9 L13.05 12.85 17.45 7.3 17.55 7.3 17.9 7.4 M16.35 7.45 L15.85 8.0 12.45 6.85 Q10.25 8.2 8.45 6.25 7.75 5.5 7.6 4.6 L5.65 4.15 Q12.05 2.5 16.35 7.45" fill="#ffffff" fill-rule="evenodd" stroke="none"/>
    <path d="M29.25 28.15 L29.25 29.05 27.2 26.35 Q25.0 23.0 22.1 20.55 L22.45 20.15 Q26.1 24.0 29.25 28.15" fill="#dde0e3" fill-rule="evenodd" stroke="none"/>
  </g>
</svg>
