<?xml version="1.0" encoding="UTF-8" standalone="no"?>
<svg xmlns:ffdec="https://www.free-decompiler.com/flash" xmlns:xlink="http://www.w3.org/1999/xlink" ffdec:objectType="shape" height="27.6px" width="27.25px" xmlns="http://www.w3.org/2000/svg">
  <g transform="matrix(1.0, 0.0, 0.0, 1.0, -1.25, -1.45)">
    <path d="M7.7 3.9 L7.6 3.75 7.7 3.85 7.7 3.9" fill="#3f454b" fill-rule="evenodd" stroke="none"/>
    <path d="M2.05 2.5 L3.85 1.65 6.45 3.5 25.15 18.8 26.55 19.9 27.15 20.5 Q28.8 22.85 27.25 25.65 L26.4 25.95 2.9 3.95 2.05 2.5" fill="#ffffff" fill-rule="evenodd" stroke="none"/>
    <path d="M27.25 25.65 Q28.8 22.85 27.15 20.5 L26.55 19.9 25.15 18.8 6.45 3.5 3.85 1.65 2.05 2.5 2.1 4.5 23.15 27.35 24.1 28.15 Q24.95 28.6 25.75 27.85 L26.4 27.0 26.8 26.5 27.25 25.65 M7.7 3.85 L27.4 19.45 Q28.4 20.3 28.5 21.6 28.75 25.85 25.95 28.45 25.15 29.2 24.15 29.0 23.3 28.85 22.75 28.25 L2.75 5.9 1.6 4.65 Q1.15 4.15 1.3 3.65 L1.4 3.25 Q2.3 0.65 4.7 1.8 5.2 2.0 5.65 2.4 L7.7 3.9 7.7 3.85" fill="#535a62" fill-rule="evenodd" stroke="none"/>
    <path d="M2.05 2.5 L2.9 3.95 26.4 25.95 27.25 25.65 26.8 26.5 26.4 27.0 25.75 27.85 Q24.95 28.6 24.1 28.15 L23.15 27.35 2.1 4.5 2.05 2.5" fill="#dde0e3" fill-rule="evenodd" stroke="none"/>
  </g>
</svg>
