<?xml version="1.0" encoding="UTF-8" standalone="no"?>
<svg xmlns:ffdec="https://www.free-decompiler.com/flash" xmlns:xlink="http://www.w3.org/1999/xlink" ffdec:objectType="shape" height="27.3px" width="27.2px" xmlns="http://www.w3.org/2000/svg">
  <g transform="matrix(1.0, 0.0, 0.0, 1.0, -1.8, -1.7)">
    <path d="M24.95 20.85 L24.15 19.85 Q24.6 18.45 23.95 17.05 L23.35 15.9 23.15 15.1 23.15 14.85 23.1 14.8 22.3 14.0 21.75 13.35 21.8 13.3 21.95 13.15 23.4 14.25 23.75 14.55 24.2 14.7 23.85 14.7 23.7 15.05 24.6 17.35 25.25 19.15 25.45 19.2 24.95 20.85 M2.95 2.35 L3.35 2.2 4.85 2.25 5.0 2.3 3.75 2.45 5.75 3.8 7.65 5.1 9.0 5.7 9.25 5.25 Q7.65 3.6 5.65 2.55 L5.5 2.5 Q8.1 3.45 9.9 5.6 L9.8 5.8 Q7.0 7.0 4.05 7.2 3.25 6.85 2.8 6.2 L1.95 4.9 1.9 4.25 1.95 3.85 Q2.15 3.0 2.8 2.45 L2.95 2.35 M10.05 7.5 Q11.85 8.7 12.95 10.7 L13.15 11.05 13.55 11.9 13.0 12.4 12.05 11.9 Q9.9 10.6 8.05 8.6 8.65 11.0 10.55 12.5 L12.5 14.0 14.3 15.85 15.4 17.15 Q16.65 18.5 18.35 18.75 L19.85 18.9 20.3 18.55 21.05 19.2 18.1 22.2 Q14.55 19.4 11.8 16.0 L10.2 14.25 Q8.45 12.65 7.5 10.35 7.1 9.4 7.0 8.4 L10.05 7.5 M14.0 13.15 L15.4 13.5 15.8 13.8 14.8 13.45 14.7 13.45 14.75 13.65 14.85 13.7 19.25 17.2 19.1 16.7 19.6 17.4 19.1 18.0 Q16.2 16.6 14.2 14.1 L13.9 13.25 14.0 13.15 M24.05 22.2 L21.75 19.8 19.65 22.3 21.65 20.5 23.95 22.4 24.05 22.2 M24.75 22.2 L24.7 22.55 22.4 25.3 19.05 22.6 21.8 19.55 24.75 22.2 M11.4 9.8 L12.5 11.0 12.95 11.1 12.9 10.95 Q12.05 9.1 10.45 8.1 L10.1 8.2 11.4 9.8" fill="#999999" fill-rule="evenodd" stroke="none"/>
    <path d="M25.45 19.2 L25.25 19.15 24.6 17.35 23.7 15.05 23.85 14.7 24.2 14.7 24.75 15.55 Q25.95 17.35 25.45 19.2 M5.0 2.3 L5.5 2.5 5.65 2.55 Q7.65 3.6 9.25 5.25 L9.0 5.7 7.65 5.1 5.75 3.8 3.75 2.45 5.0 2.3 M15.8 13.8 Q16.3 14.1 16.8 14.55 L18.1 15.75 18.55 16.1 19.1 16.7 19.25 17.2 14.85 13.7 14.75 13.65 14.7 13.45 14.8 13.45 15.8 13.8 M26.1 29.0 L23.4 26.55 Q24.9 24.85 26.55 23.3 L27.9 24.75 27.1 23.75 29.0 25.45 29.0 25.7 28.95 25.65 28.2 25.1 29.0 26.0 29.0 28.5 28.75 28.8 28.6 29.0 26.1 29.0 M24.05 22.2 L23.95 22.4 21.65 20.5 19.65 22.3 21.75 19.8 24.05 22.2 M22.85 25.85 L25.45 22.85 26.25 23.1 23.2 26.35 22.85 25.85 M11.4 9.8 L10.1 8.2 10.45 8.1 Q12.05 9.1 12.9 10.95 L12.95 11.1 12.5 11.0 11.4 9.8" fill="#ffffff" fill-rule="evenodd" stroke="none"/>
    <path d="M24.95 20.85 L25.45 19.2 Q25.95 17.35 24.75 15.55 L24.2 14.7 23.75 14.55 23.4 14.25 23.95 14.3 Q24.55 14.55 24.9 15.1 26.8 18.5 24.9 21.85 L25.45 22.6 26.4 22.95 26.65 23.15 Q27.0 23.3 26.85 23.5 27.7 23.6 28.4 24.45 L29.0 25.1 29.0 25.45 27.1 23.75 27.9 24.75 26.55 23.3 Q24.9 24.85 23.4 26.55 L26.1 29.0 25.85 29.0 23.25 26.75 22.05 28.3 22.85 29.0 22.45 29.0 21.55 28.2 21.25 27.2 17.7 24.2 17.2 23.8 Q14.6 21.65 12.45 19.0 L10.6 16.75 13.45 19.65 Q15.5 22.05 17.85 23.65 L21.25 19.4 21.1 19.25 21.05 19.2 20.3 18.55 19.45 18.6 Q15.7 17.95 13.8 14.6 15.55 16.95 18.2 18.1 L19.05 18.4 19.8 17.95 19.6 17.4 19.1 16.7 18.55 16.1 18.1 15.75 16.8 14.55 Q16.3 14.1 15.8 13.8 L15.4 13.5 14.0 13.15 13.85 12.95 Q13.2 12.3 13.55 11.9 L13.15 11.05 12.95 10.7 Q11.85 8.7 10.05 7.5 L5.4 8.55 5.7 9.95 6.05 10.6 6.45 11.2 6.5 11.35 6.0 10.95 Q5.1 10.0 4.85 8.7 L4.4 8.5 Q5.7 11.6 7.85 14.1 5.4 11.7 3.65 8.55 2.0 7.65 1.85 5.9 1.75 5.05 1.9 4.25 L1.95 4.9 2.55 6.5 Q2.95 7.15 3.7 7.35 4.65 7.8 5.75 7.9 8.05 7.7 9.95 6.35 10.4 6.0 9.9 5.6 8.1 3.45 5.5 2.5 L5.0 2.3 4.85 2.25 3.35 2.2 2.95 2.35 Q4.5 1.1 6.25 2.35 L10.35 5.4 10.45 6.05 10.15 6.8 10.15 6.9 11.75 8.9 13.9 11.4 14.6 12.2 16.25 13.75 18.85 16.25 20.55 18.2 Q21.5 19.45 23.0 19.95 23.75 19.2 23.45 18.1 L22.9 16.3 22.65 15.15 22.3 14.0 23.1 14.8 22.75 15.3 23.15 16.25 Q24.15 17.85 23.6 19.75 L24.95 20.85 M21.95 13.15 L21.8 13.3 21.75 13.3 21.65 13.15 21.95 13.15 M15.4 13.5 L15.35 13.45 15.4 13.5 M29.0 25.7 L29.0 26.0 28.2 25.1 28.95 25.65 29.0 25.7 M24.8 21.1 L23.55 19.95 23.15 20.1 24.65 21.5 24.8 21.1 M19.05 22.6 L17.75 24.05 21.3 27.0 25.25 22.8 24.75 22.2 21.8 19.55 19.05 22.6 M23.2 26.35 L26.25 23.1 25.45 22.85 22.85 25.85 21.6 27.35 21.75 28.0 23.2 26.35 M12.9 12.95 L12.0 12.55 10.8 11.75 9.35 10.35 Q10.55 11.6 12.0 12.45 L12.9 12.95" fill="#000000" fill-rule="evenodd" stroke="none"/>
    <path d="M21.8 13.3 L21.75 13.35 21.65 13.25 21.75 13.3 21.8 13.3 M24.8 21.1 L24.65 21.5 23.15 20.1 23.55 19.95 24.8 21.1" fill="#333333" fill-rule="evenodd" stroke="none"/>
    <path d="M23.1 14.8 L23.15 14.85 23.15 15.1 23.35 15.9 23.95 17.05 Q24.6 18.45 24.15 19.85 L24.95 20.85 23.6 19.75 Q24.15 17.85 23.15 16.25 L22.75 15.3 23.1 14.8 M9.9 5.6 Q10.4 6.0 9.95 6.35 8.05 7.7 5.75 7.9 4.65 7.8 3.7 7.35 2.95 7.15 2.55 6.5 L1.95 4.9 2.8 6.2 Q3.25 6.85 4.05 7.2 7.0 7.0 9.8 5.8 L9.9 5.6 M7.85 14.1 Q5.7 11.6 4.4 8.5 L4.85 8.7 Q5.1 10.0 6.0 10.95 L6.5 11.35 6.45 11.2 6.05 10.6 5.7 9.95 5.4 8.55 10.05 7.5 7.0 8.4 Q7.1 9.4 7.5 10.35 8.45 12.65 10.2 14.25 L11.8 16.0 Q14.55 19.4 18.1 22.2 L21.05 19.2 21.1 19.25 21.25 19.4 17.85 23.65 Q15.5 22.05 13.45 19.65 L10.6 16.75 10.55 16.7 8.2 14.4 7.85 14.1 M13.55 11.9 Q13.2 12.3 13.85 12.95 L14.0 13.15 13.9 13.25 14.2 14.1 Q16.2 16.6 19.1 18.0 L19.6 17.4 19.8 17.95 19.05 18.4 18.2 18.1 Q15.55 16.95 13.8 14.6 15.7 17.95 19.45 18.6 L20.3 18.55 19.85 18.9 18.35 18.75 Q16.65 18.5 15.4 17.15 L14.3 15.85 12.5 14.0 10.55 12.5 Q8.65 11.0 8.05 8.6 9.9 10.6 12.05 11.9 L13.0 12.4 13.55 11.9 M24.75 22.2 L25.25 22.8 21.3 27.0 17.75 24.05 19.05 22.6 22.4 25.3 24.7 22.55 24.75 22.2 M12.9 12.95 L12.0 12.45 Q10.55 11.6 9.35 10.35 L10.8 11.75 12.0 12.55 12.9 12.95" fill="#666666" fill-rule="evenodd" stroke="none"/>
    <path d="M22.85 29.0 L22.05 28.3 23.25 26.75 25.85 29.0 22.85 29.0 M23.2 26.35 L21.75 28.0 21.6 27.35 22.85 25.85 23.2 26.35" fill="#dde0e3" fill-rule="evenodd" stroke="none"/>
  </g>
</svg>
