<?xml version="1.0" encoding="UTF-8" standalone="no"?>
<svg xmlns:ffdec="https://www.free-decompiler.com/flash" xmlns:xlink="http://www.w3.org/1999/xlink" ffdec:objectType="shape" height="10.55px" width="15.6px" xmlns="http://www.w3.org/2000/svg">
  <g transform="matrix(1.0, 0.0, 0.0, 1.0, 9.5, 7.85)">
    <path d="M5.3 -7.8 L5.35 -7.85 5.4 -7.85 5.7 -7.5 5.75 -7.35 5.8 -6.9 5.8 -6.8 5.85 -6.4 6.05 -5.7 Q6.25 -5.0 5.65 -4.15 L5.25 -3.65 4.25 -3.05 Q4.1 -1.1 3.1 0.5 L1.8 2.35 -0.3 2.7 -1.6 2.15 -2.45 2.55 -5.2 -0.7 -6.15 -0.9 Q-7.75 -0.85 -9.1 -1.6 L-9.45 -2.8 Q-9.65 -3.4 -9.25 -3.9 L-7.25 -3.75 Q-2.4 -3.6 2.2 -5.75 3.4 -6.2 4.45 -6.9 L5.15 -7.45 5.15 -7.5 5.2 -7.55 5.2 -7.65 5.25 -7.75 5.3 -7.8 M5.35 -7.25 L5.35 -7.3 5.3 -7.25 4.4 -6.55 Q2.45 -5.2 0.25 -4.45 L-1.75 -3.95 3.7 -4.8 Q-0.7 -3.3 -5.55 -3.45 L-7.2 -3.45 -8.85 -3.75 Q-9.1 -3.5 -8.95 -2.95 L-8.8 -1.95 -8.7 -1.65 Q-7.6 -0.95 -6.2 -1.1 L-4.65 -1.05 Q-0.9 -1.35 2.7 -2.55 3.9 -3.0 4.85 -3.85 L5.1 -4.05 5.2 -4.15 5.65 -5.2 5.65 -5.45 Q5.5 -5.95 5.5 -6.4 L5.5 -6.55 5.5 -6.6 5.5 -6.65 5.5 -6.75 5.45 -6.8 5.45 -6.9 5.35 -7.25 M0.5 -0.9 L1.55 -2.05 -2.45 -1.0 -0.65 -0.1 2.05 -0.45 Q0.45 0.95 -1.4 0.05 L-2.5 -0.45 -4.9 -0.7 -2.5 2.2 -1.75 1.75 Q-0.3 2.6 1.25 2.05 2.25 1.7 2.75 0.9 3.75 -0.9 3.9 -2.7 L1.8 -2.15 0.5 -0.9" fill="#666666" fill-rule="evenodd" stroke="none"/>
    <path d="M5.3 -7.25 L5.35 -7.25 5.45 -6.9 5.45 -6.8 5.5 -6.75 5.5 -6.65 5.5 -6.6 5.5 -6.55 5.5 -6.4 Q5.5 -5.95 5.65 -5.45 L5.65 -5.2 5.2 -4.15 5.1 -4.05 4.85 -3.85 Q3.9 -3.0 2.7 -2.55 -0.9 -1.35 -4.65 -1.05 L-6.2 -1.1 Q-7.6 -0.95 -8.7 -1.65 L-8.8 -1.95 -8.95 -2.95 Q-9.1 -3.5 -8.85 -3.75 L-7.2 -3.45 -5.55 -3.45 Q-0.7 -3.3 3.7 -4.8 L-1.75 -3.95 0.25 -4.45 Q2.45 -5.2 4.4 -6.55 L5.3 -7.25 M0.5 -0.9 L1.8 -2.15 3.9 -2.7 Q3.75 -0.9 2.75 0.9 2.25 1.7 1.25 2.05 -0.3 2.6 -1.75 1.75 L-2.5 2.2 -4.9 -0.7 -2.5 -0.45 -1.4 0.05 Q0.45 0.95 2.05 -0.45 L-0.65 -0.1 0.5 -0.9" fill="#cccccc" fill-rule="evenodd" stroke="none"/>
    <path d="M-0.65 -0.1 L-2.45 -1.0 1.55 -2.05 0.5 -0.9 -0.65 -0.1" fill="#999999" fill-rule="evenodd" stroke="none"/>
  </g>
</svg>
