<?xml version="1.0" encoding="UTF-8" standalone="no"?>
<svg xmlns:ffdec="https://www.free-decompiler.com/flash" xmlns:xlink="http://www.w3.org/1999/xlink" ffdec:objectType="shape" height="27.7px" width="27.95px" xmlns="http://www.w3.org/2000/svg">
  <g transform="matrix(1.0, 0.0, 0.0, 1.0, -1.2, -1.5)">
    <path d="M22.85 27.4 L27.45 23.85 29.15 25.95 29.15 28.8 28.75 29.2 24.4 29.2 22.85 27.4" fill="#f5dee9" fill-rule="evenodd" stroke="none"/>
    <path d="M29.15 25.55 L27.85 23.85 29.15 25.1 29.15 25.55" fill="#ffffff" fill-rule="evenodd" stroke="none"/>
    <path d="M22.6 16.4 L21.9 15.55 22.1 15.35 Q23.15 14.9 23.4 15.8 L22.25 15.3 22.95 16.1 22.6 16.4 M23.0 17.05 L22.65 16.5 23.0 16.2 23.4 16.75 23.0 17.05 M23.5 16.8 L26.85 20.7 23.9 16.45 27.15 20.8 19.7 26.3 Q17.65 24.55 16.05 22.35 L9.6 13.9 2.45 4.5 1.5 2.8 Q1.5 2.45 2.05 2.25 2.55 2.0 3.25 2.0 2.55 2.1 2.85 2.6 L3.1 2.85 Q5.5 2.75 7.3 4.3 9.25 6.05 10.15 8.75 L11.1 12.1 11.4 10.05 12.0 13.35 Q12.2 15.8 13.8 18.05 15.25 20.1 17.4 21.25 19.45 23.35 22.0 21.95 23.2 21.35 23.55 20.15 24.0 18.55 23.05 17.15 L23.5 16.8 M4.4 2.1 L5.15 1.85 5.35 2.05 5.75 2.1 6.45 2.8 4.4 2.1 M7.55 3.6 L8.55 4.35 8.95 4.85 9.35 5.55 7.55 3.6 M10.15 6.95 L10.8 7.75 11.3 9.1 10.15 6.95 M4.95 4.35 L5.15 4.7 5.6 4.8 Q5.6 5.5 5.8 4.85 5.9 4.6 5.6 4.15 4.8 3.75 4.85 4.4 L4.95 4.35 M7.4 5.95 L7.7 6.7 Q7.95 7.2 8.0 6.6 8.05 5.7 7.35 5.9 6.9 5.95 7.4 5.95 M8.95 8.2 L9.3 9.05 9.65 8.65 9.4 8.2 8.95 8.2" fill="#f9b0d1" fill-rule="evenodd" stroke="none"/>
    <path d="M22.6 16.4 L22.55 16.6 22.65 16.5 23.0 17.05 22.6 17.35 22.35 17.0 22.2 17.05 22.15 17.0 22.0 16.7 22.0 16.65 21.9 15.85 21.9 15.55 22.6 16.4 M27.15 20.8 L27.1 21.55 27.0 21.8 26.75 22.1 20.7 26.7 20.05 27.15 Q19.2 27.25 18.65 26.5 L2.4 5.55 Q1.45 4.4 1.5 2.8 L2.45 4.5 9.6 13.9 16.05 22.35 Q17.65 24.55 19.7 26.3 L27.15 20.8 M17.4 21.25 Q18.55 22.15 19.95 22.15 21.25 22.15 22.05 21.15 23.55 19.3 22.65 17.5 L23.05 17.15 Q24.0 18.55 23.55 20.15 23.2 21.35 22.0 21.95 19.45 23.35 17.4 21.25 M27.3 23.65 L22.1 27.75 21.1 27.1 26.65 22.75 27.3 23.65" fill="#c57096" fill-rule="evenodd" stroke="none"/>
    <path d="M22.95 29.2 L22.05 28.05 22.85 27.4 24.4 29.2 22.95 29.2" fill="#e8aecc" fill-rule="evenodd" stroke="none"/>
    <path d="M23.0 16.2 L23.45 15.9 23.85 16.4 23.4 16.75 23.0 16.2 M23.5 16.8 L23.9 16.45 26.85 20.7 23.5 16.8 M3.25 2.0 L3.65 1.9 4.05 2.1 4.4 2.6 4.4 2.1 6.45 2.8 6.55 3.1 7.55 3.6 9.35 5.55 9.65 6.0 10.15 6.95 11.3 9.1 11.4 10.05 11.1 12.1 10.15 8.75 Q9.25 6.05 7.3 4.3 5.5 2.75 3.1 2.85 L2.85 2.6 Q2.55 2.1 3.25 2.0 M5.15 1.85 L5.75 2.1 5.35 2.05 5.15 1.85 M8.55 4.35 L8.85 4.5 8.95 4.85 8.55 4.35 M23.4 15.8 L22.95 16.1 22.25 15.3 23.4 15.8 M5.6 4.8 L5.15 4.7 4.95 4.35 5.4 4.5 5.6 4.8" fill="#fde8f3" fill-rule="evenodd" stroke="none"/>
    <path d="M22.65 16.5 L22.55 16.6 22.6 16.4 22.95 16.1 23.4 15.8 Q23.15 14.9 22.1 15.35 L21.9 15.55 21.9 15.85 22.0 16.65 21.5 15.9 22.4 14.6 Q23.15 14.8 23.6 15.45 L27.25 20.45 27.35 20.85 27.45 21.9 26.85 22.6 27.8 23.55 28.1 23.5 28.35 23.65 29.15 24.55 29.15 25.1 27.85 23.85 29.15 25.55 29.15 25.95 27.45 23.85 22.85 27.4 22.05 28.05 22.95 29.2 22.5 29.2 20.85 27.15 Q19.6 27.9 18.7 26.8 L2.35 5.55 1.4 4.1 1.25 3.4 1.25 1.85 5.65 1.5 9.1 4.25 11.35 7.9 11.25 8.35 Q12.15 10.9 12.5 13.8 12.65 14.9 13.15 16.0 14.9 20.0 19.15 21.65 20.3 22.0 21.4 21.25 22.85 20.3 22.55 18.5 L22.15 17.0 22.2 17.05 22.35 17.0 22.6 17.35 23.0 17.05 23.4 16.75 23.85 16.4 23.45 15.9 23.0 16.2 22.65 16.5 M23.9 16.45 L23.5 16.8 23.05 17.15 22.65 17.5 Q23.55 19.3 22.05 21.15 21.25 22.15 19.95 22.15 18.55 22.15 17.4 21.25 15.25 20.1 13.8 18.05 12.2 15.8 12.0 13.35 L11.4 10.05 11.3 9.1 10.8 7.75 10.15 6.95 9.65 6.0 9.35 5.55 8.95 4.85 8.85 4.5 8.55 4.35 7.55 3.6 6.55 3.1 6.45 2.8 5.75 2.1 5.15 1.85 4.4 2.1 4.4 2.6 4.05 2.1 3.65 1.9 3.25 2.0 Q2.55 2.0 2.05 2.25 1.5 2.45 1.5 2.8 1.45 4.4 2.4 5.55 L18.65 26.5 Q19.2 27.25 20.05 27.15 L20.7 26.7 26.75 22.1 27.0 21.8 27.1 21.55 27.15 20.8 23.9 16.45 M27.3 23.65 L26.65 22.75 21.1 27.1 22.1 27.75 27.3 23.65 M4.95 4.35 L4.85 4.4 Q4.8 3.75 5.6 4.15 5.9 4.6 5.8 4.85 5.6 5.5 5.6 4.8 L5.4 4.5 4.95 4.35 M7.4 5.95 Q6.9 5.95 7.35 5.9 8.05 5.7 8.0 6.6 7.95 7.2 7.7 6.7 L7.4 5.95 M8.95 8.2 L9.4 8.2 9.65 8.65 9.3 9.05 8.95 8.2" fill="#790b4a" fill-rule="evenodd" stroke="none"/>
  </g>
</svg>
