<?xml version="1.0" encoding="UTF-8" standalone="no"?>
<svg xmlns:ffdec="https://www.free-decompiler.com/flash" xmlns:xlink="http://www.w3.org/1999/xlink" ffdec:objectType="shape" height="27.85px" width="27.55px" xmlns="http://www.w3.org/2000/svg">
  <g transform="matrix(1.0, 0.0, 0.0, 1.0, -1.5, -1.25)">
    <path d="M24.7 29.1 L24.2 29.1 21.55 27.05 21.05 25.55 21.2 25.05 20.3 24.35 20.15 24.1 18.85 23.0 17.8 21.55 16.55 21.15 Q13.45 19.6 10.9 16.9 9.6 15.55 9.7 13.65 9.0 13.85 8.35 13.65 7.3 13.65 6.35 13.15 3.4 11.75 2.15 8.9 1.7 7.85 1.55 6.65 1.2 3.7 2.7 1.25 L5.05 3.85 7.4 5.95 Q9.35 7.3 10.8 9.2 L11.4 10.45 11.55 11.0 12.35 11.25 Q14.0 11.35 15.45 12.35 17.8 14.05 19.8 16.4 19.3 14.45 19.75 12.45 L19.7 10.55 Q19.6 10.25 19.65 9.95 20.1 10.15 20.5 10.5 21.25 11.15 21.5 12.25 23.75 13.5 24.0 16.2 24.1 17.4 23.65 18.7 L23.55 19.1 23.7 19.5 24.5 20.0 24.9 20.45 26.7 20.75 27.9 21.7 28.5 21.8 29.05 22.55 28.0 22.2 28.2 22.65 29.05 23.95 29.05 24.3 27.65 22.4 26.55 21.05 21.9 26.4 21.9 26.45 22.5 27.4 24.7 29.1 M21.75 12.8 L21.2 12.55 20.25 10.75 20.0 10.2 20.65 12.75 Q19.15 15.1 20.9 17.35 21.7 18.4 23.0 18.5 23.95 17.5 23.85 16.35 23.65 14.35 22.1 13.0 L21.75 12.8 M23.25 19.35 L22.85 18.7 22.65 18.6 21.35 18.4 Q19.45 19.2 18.4 21.25 L18.35 21.6 Q18.35 22.4 18.85 22.9 L19.9 23.55 20.8 22.85 23.4 19.75 23.25 19.35 M22.1 24.1 L24.6 21.15 24.5 20.35 23.55 20.2 23.15 20.65 22.0 22.15 20.5 24.0 20.7 24.45 21.5 24.75 22.1 24.1 M22.7 24.65 L25.5 21.1 25.3 21.0 22.5 24.3 21.5 25.55 21.6 25.7 22.7 24.65 M2.8 1.9 L2.75 1.8 2.8 1.9 2.55 1.6 1.95 3.2 Q0.75 8.4 4.75 12.0 6.05 13.15 7.8 13.6 L8.95 13.45 Q10.4 13.05 11.0 11.55 L11.15 10.7 Q11.1 9.5 10.15 8.7 L6.3 5.45 3.8 3.1 2.8 1.9 M17.55 14.75 L17.05 14.3 16.95 14.25 15.45 13.05 13.45 11.9 Q12.35 11.35 11.25 11.9 L10.55 13.3 Q10.3 14.0 10.55 14.75 11.45 17.75 14.15 19.3 L17.1 20.9 18.1 21.0 20.2 18.1 19.9 16.95 19.4 16.4 17.55 14.75" fill="#000000" fill-rule="evenodd" stroke="none"/>
    <path d="M29.05 23.35 L29.05 23.45 28.9 23.3 29.05 23.35 M21.75 12.8 L21.4 13.25 22.9 14.5 23.05 14.1 22.1 13.0 Q23.65 14.35 23.85 16.35 23.95 17.5 23.0 18.5 L21.75 17.0 Q21.15 16.1 21.0 15.1 L20.75 13.15 20.25 10.75 21.2 12.55 21.75 12.8 M22.85 18.7 L23.25 19.35 Q22.25 21.25 20.5 22.55 L20.05 22.9 18.9 21.45 21.35 18.4 22.65 18.6 22.75 18.7 22.85 18.7 M23.95 20.4 L23.6 20.55 23.45 20.9 23.6 21.25 23.95 21.4 24.3 21.25 24.45 20.9 24.3 20.55 23.95 20.4 M22.0 22.15 L23.15 20.65 23.55 20.2 24.5 20.35 24.6 21.15 22.1 24.1 21.25 23.6 22.0 22.15 M22.15 19.6 L22.3 19.2 22.15 18.8 21.75 18.65 Q21.5 18.65 21.35 18.8 21.2 18.95 21.2 19.2 L21.35 19.6 21.75 19.75 22.15 19.6 M22.7 24.65 L22.5 24.3 25.3 21.0 25.5 21.1 22.7 24.65 M2.8 1.9 Q3.6 5.45 7.0 7.7 8.95 8.9 10.25 10.6 L10.8 10.3 Q10.9 9.6 10.3 9.1 L4.75 4.35 Q3.5 3.35 2.8 1.9 L3.8 3.1 6.3 5.45 10.15 8.7 Q11.1 9.5 11.15 10.7 L11.0 11.55 Q9.85 12.6 8.45 12.2 7.35 11.85 6.5 11.2 5.05 10.05 3.95 8.6 3.35 7.8 3.0 6.85 L1.95 3.2 2.55 1.6 2.8 1.9 M16.95 14.25 L14.1 12.45 12.4 11.8 11.85 12.3 12.2 12.65 Q14.55 13.25 16.25 14.95 L18.75 16.8 Q18.95 16.1 18.35 15.5 L17.55 14.75 19.4 16.4 19.9 16.95 18.75 19.15 16.6 18.95 Q13.4 17.4 11.45 14.4 10.6 13.15 11.25 11.9 12.35 11.35 13.45 11.9 L15.45 13.05 16.95 14.25" fill="#3ed951" fill-rule="evenodd" stroke="none"/>
    <path d="M29.05 23.45 L29.05 23.95 28.2 22.65 28.9 23.3 29.05 23.45 M20.25 10.75 L20.75 13.15 21.0 15.1 Q21.15 16.1 21.75 17.0 L23.0 18.5 Q21.7 18.4 20.9 17.35 19.15 15.1 20.65 12.75 L20.0 10.2 20.25 10.75 M22.85 18.7 L22.75 18.7 22.65 18.6 22.85 18.7 M21.35 18.4 L18.9 21.45 20.05 22.9 20.5 22.55 Q22.25 21.25 23.25 19.35 L23.4 19.75 20.8 22.85 19.9 23.55 18.85 22.9 Q18.35 22.4 18.35 21.6 L18.4 21.25 Q19.45 19.2 21.35 18.4 M22.0 22.15 L21.25 23.6 22.1 24.1 21.5 24.75 20.7 24.45 20.5 24.0 22.0 22.15 M22.5 24.3 L22.7 24.65 21.6 25.7 21.5 25.55 22.5 24.3 M1.95 3.2 L3.0 6.85 Q3.35 7.8 3.95 8.6 5.05 10.05 6.5 11.2 7.35 11.85 8.45 12.2 9.85 12.6 11.0 11.55 10.4 13.05 8.95 13.45 L7.8 13.6 Q6.05 13.15 4.75 12.0 0.75 8.4 1.95 3.2 M11.25 11.9 Q10.6 13.15 11.45 14.4 13.4 17.4 16.6 18.95 L18.75 19.15 19.9 16.95 20.2 18.1 18.1 21.0 17.1 20.9 14.15 19.3 Q11.45 17.75 10.55 14.75 10.3 14.0 10.55 13.3 L11.25 11.9" fill="#23b129" fill-rule="evenodd" stroke="none"/>
    <path d="M29.05 22.55 L29.05 23.35 28.9 23.3 28.2 22.65 28.0 22.2 29.05 22.55 M22.1 13.0 L23.05 14.1 22.9 14.5 21.4 13.25 21.75 12.8 22.1 13.0 M23.95 20.4 L24.3 20.55 24.45 20.9 24.3 21.25 23.95 21.4 23.6 21.25 23.45 20.9 23.6 20.55 23.95 20.4 M22.15 19.6 L21.75 19.75 21.35 19.6 21.2 19.2 Q21.2 18.95 21.35 18.8 21.5 18.65 21.75 18.65 L22.15 18.8 22.3 19.2 22.15 19.6 M2.8 1.9 Q3.5 3.35 4.75 4.35 L10.3 9.1 Q10.9 9.6 10.8 10.3 L10.25 10.6 Q8.95 8.9 7.0 7.7 3.6 5.45 2.8 1.9 L2.75 1.8 2.8 1.9 M17.55 14.75 L18.35 15.5 Q18.95 16.1 18.75 16.8 L16.25 14.95 Q14.55 13.25 12.2 12.65 L11.85 12.3 12.4 11.8 14.1 12.45 16.95 14.25 17.05 14.3 17.55 14.75" fill="#d1f5d2" fill-rule="evenodd" stroke="none"/>
    <path d="M29.05 24.9 L29.05 25.6 25.3 23.15 23.1 26.15 22.5 27.4 21.9 26.45 21.9 26.4 26.55 21.05 27.65 22.4 Q27.05 22.1 26.45 21.85 L29.05 24.9" fill="#ffffff" fill-rule="evenodd" stroke="none"/>
    <path d="M29.05 24.3 L29.05 24.9 26.45 21.85 Q27.05 22.1 27.65 22.4 L29.05 24.3 M29.05 25.6 L29.05 28.6 28.65 29.1 24.7 29.1 22.5 27.4 23.1 26.15 25.3 23.15 29.05 25.6" fill="#98eba2" fill-rule="evenodd" stroke="none"/>
  </g>
</svg>
