<?xml version="1.0" encoding="UTF-8" standalone="no"?>
<svg xmlns:ffdec="https://www.free-decompiler.com/flash" xmlns:xlink="http://www.w3.org/1999/xlink" ffdec:objectType="shape" height="27.9px" width="27.95px" xmlns="http://www.w3.org/2000/svg">
  <g transform="matrix(1.0, 0.0, 0.0, 1.0, -1.2, -1.25)">
    <path d="M25.5 21.15 L25.1 20.8 23.95 19.5 24.05 18.2 Q24.15 16.0 23.65 13.85 L23.75 13.7 23.65 13.45 Q23.4 13.0 23.85 12.85 L24.05 13.55 24.7 16.25 Q25.0 17.8 24.95 19.45 24.95 20.35 25.5 21.15 M15.85 17.95 L13.35 18.75 13.55 18.15 15.25 17.35 15.85 17.95 M22.5 18.8 L22.85 19.25 18.85 22.95 16.4 20.55 18.0 19.75 19.5 21.4 22.5 18.8 M17.25 19.4 L14.8 20.3 14.9 20.05 16.8 18.95 17.25 19.4 M20.15 22.05 L22.85 24.85 25.85 22.15 26.2 22.5 26.2 22.6 21.85 26.65 18.75 23.35 20.15 22.05 M10.95 4.65 L11.3 4.9 11.3 5.4 Q10.8 6.3 9.8 6.6 L7.95 7.3 4.7 8.15 Q3.0 7.35 1.8 5.7 1.35 5.1 1.45 4.3 L2.25 5.25 Q3.35 6.55 4.8 7.35 6.05 6.75 7.35 6.3 L10.4 5.0 10.95 4.65 M9.5 10.95 L7.5 11.5 6.7 11.4 8.85 10.35 9.5 10.95 M10.3 11.85 Q9.35 12.55 8.2 12.55 L7.5 12.4 Q7.8 11.95 8.65 11.6 L9.75 11.25 10.3 11.85 M8.15 9.6 L8.55 10.1 5.95 10.8 8.15 9.6 M7.9 9.2 L6.6 9.75 4.85 8.45 11.1 6.55 11.45 6.85 7.35 8.3 7.9 9.2 M10.45 12.05 L10.8 12.55 8.15 13.1 10.45 12.05 M11.0 12.8 L11.45 13.3 9.1 14.05 9.15 13.6 11.0 12.8 M12.05 14.0 L9.5 14.4 11.6 13.45 12.05 14.0 M12.6 14.55 L10.05 15.35 12.15 14.1 12.6 14.55 M13.8 15.85 L11.4 16.65 13.35 15.35 13.8 15.85 M14.35 16.45 L13.3 17.05 12.1 17.35 12.3 16.75 14.0 16.1 14.35 16.45 M14.55 16.65 L14.95 17.1 12.7 18.1 12.65 17.6 14.55 16.65 M12.75 14.75 L13.15 15.15 11.0 15.65 12.75 14.75 M16.05 18.15 L16.55 18.65 14.1 19.5 14.3 19.05 16.05 18.15" fill="#333333" fill-rule="evenodd" stroke="none"/>
    <path d="M26.95 22.55 L27.5 22.9 28.3 22.45 29.15 23.25 29.15 24.85 27.6 23.25 29.15 25.0 29.15 28.55 28.65 29.15 27.55 29.15 24.15 25.75 26.95 22.55" fill="#ffffff" fill-rule="evenodd" stroke="none"/>
    <path d="M23.85 12.85 L24.25 13.35 24.75 13.55 Q24.2 13.8 24.6 14.15 26.75 16.0 26.35 18.95 L26.85 19.25 26.35 20.9 25.5 21.15 Q24.95 20.35 24.95 19.45 25.0 17.8 24.7 16.25 L24.05 13.55 23.85 12.85 M20.6 15.15 L20.7 15.2 20.65 15.65 15.85 17.95 15.25 17.35 18.75 15.75 19.8 15.8 20.6 15.15 M21.35 18.05 L22.25 18.65 22.25 18.45 22.5 18.8 19.5 21.4 18.0 19.75 21.35 18.05 M20.2 17.25 L20.3 17.6 22.0 17.0 17.25 19.4 16.8 18.95 20.2 17.25 M21.55 20.75 L20.8 21.8 22.95 20.2 25.15 22.3 25.2 22.15 Q24.3 20.65 23.2 19.55 L22.9 19.55 22.65 19.75 23.15 19.25 25.85 22.15 22.85 24.85 20.15 22.05 21.55 20.75 M26.2 22.6 L26.2 22.5 26.2 22.6 M10.95 4.65 L10.4 5.0 7.35 6.3 Q6.05 6.75 4.8 7.35 3.35 6.55 2.25 5.25 L1.45 4.3 Q1.85 2.3 3.8 1.75 L4.95 1.55 Q6.6 1.75 8.0 2.7 L10.95 4.65 M14.3 8.25 L14.45 8.45 14.4 8.55 14.3 8.25 M13.75 9.1 L12.85 9.7 Q11.4 10.65 9.5 10.95 L8.85 10.35 12.5 8.9 12.55 9.05 13.75 9.1 M13.95 9.35 L14.9 9.0 15.0 9.0 14.9 9.45 13.95 9.35 M14.55 9.8 L10.3 11.85 9.75 11.25 13.2 9.75 14.55 9.8 M13.45 7.55 L13.55 8.15 8.55 10.1 8.15 9.6 12.6 7.65 11.6 8.3 11.8 8.4 Q12.95 8.7 13.45 7.55 M11.45 6.85 L12.1 7.5 7.9 9.2 7.35 8.3 11.45 6.85 M13.95 10.35 L14.05 10.45 15.1 10.65 10.8 12.55 10.45 12.05 13.95 10.35 M14.65 11.15 L14.9 11.25 15.55 11.4 11.45 13.3 11.0 12.8 14.65 11.15 M16.3 10.75 L15.3 10.8 15.85 10.5 16.25 10.7 16.3 10.75 M16.45 12.05 L16.75 11.75 16.8 11.4 16.85 11.45 Q16.9 11.95 16.45 12.05 M15.15 11.9 L15.8 12.0 16.25 12.1 12.05 14.0 11.6 13.45 15.15 11.9 M15.7 12.5 L16.15 12.6 16.5 12.7 12.6 14.55 12.15 14.1 15.7 12.5 M8.0 4.25 L9.9 4.6 Q10.1 4.8 10.15 4.5 L6.2 2.1 3.5 2.25 Q3.7 2.9 4.7 2.85 L6.1 3.4 8.0 4.25 M16.75 13.75 L17.45 13.95 13.8 15.85 13.35 15.35 16.75 13.75 M18.85 14.35 L19.1 14.1 19.2 14.0 19.15 14.2 18.85 14.35 M17.45 14.25 Q17.75 14.7 18.15 14.7 L14.35 16.45 14.0 16.1 17.45 14.25 M18.05 15.05 L18.7 15.2 18.75 15.2 14.95 17.1 14.55 16.65 18.05 15.05 M19.6 14.75 L19.75 14.35 19.8 14.6 19.6 14.75 M16.4 13.05 L16.9 13.25 13.15 15.15 12.75 14.75 16.4 13.05 M19.65 16.4 L19.65 16.6 21.35 16.2 16.55 18.65 16.05 18.15 19.65 16.4" fill="#666666" fill-rule="evenodd" stroke="none"/>
    <path d="M24.75 13.55 L24.25 13.35 23.85 12.85 Q23.4 13.0 23.65 13.45 L23.75 13.7 23.65 13.85 Q24.15 16.0 24.05 18.2 L23.95 19.5 25.1 20.8 25.5 21.15 26.35 20.9 26.85 19.25 26.9 19.25 27.05 18.7 27.05 17.8 Q27.0 15.15 24.75 13.55 M23.45 29.15 L23.3 29.1 21.5 27.55 21.65 26.8 15.85 20.65 14.5 20.65 14.5 20.0 13.75 19.85 13.9 19.15 13.05 18.9 13.0 18.45 12.45 18.35 12.25 17.7 11.7 17.55 11.65 17.05 10.95 16.9 10.4 16.1 9.6 15.3 Q9.2 14.95 9.15 14.45 L8.5 13.8 8.05 13.7 7.8 13.1 7.3 12.75 7.15 12.25 5.65 11.1 5.9 10.05 5.25 9.45 4.05 8.6 1.65 6.15 Q1.2 5.6 1.2 4.9 1.2 1.85 4.3 1.25 L5.7 1.55 Q8.65 2.6 11.5 4.5 L11.55 6.2 12.5 7.25 13.35 7.25 14.2 7.95 14.75 8.1 14.8 8.65 16.05 9.65 16.1 10.15 16.8 10.5 16.7 11.0 18.05 12.25 18.8 13.2 20.15 14.25 22.6 16.65 22.05 17.85 23.2 18.95 23.85 19.25 Q24.4 16.65 23.3 14.35 L23.5 13.7 23.35 13.25 23.55 12.65 24.35 12.9 Q27.0 14.65 27.3 17.9 L27.3 19.05 Q27.05 20.8 25.7 21.55 L26.35 22.3 26.8 22.15 27.3 22.55 28.4 22.15 29.1 23.0 29.15 23.25 28.3 22.45 27.5 22.9 26.95 22.55 26.8 22.5 21.65 27.4 23.45 29.15 M29.15 24.85 L29.15 25.0 27.6 23.25 29.15 24.85 M15.85 17.95 L20.65 15.65 20.7 15.2 20.6 15.15 18.75 15.75 15.25 17.35 13.55 18.15 13.35 18.75 15.85 17.95 M22.25 18.45 L21.75 18.0 21.35 18.05 18.0 19.75 16.4 20.55 18.85 22.95 22.85 19.25 22.5 18.8 22.25 18.45 M22.0 17.0 L22.05 16.85 20.2 17.25 16.8 18.95 14.9 20.05 14.8 20.3 17.25 19.4 22.0 17.0 M21.55 20.75 L20.15 22.05 18.75 23.35 21.85 26.65 26.2 22.6 26.2 22.5 25.85 22.15 23.15 19.25 22.65 19.75 21.55 20.75 M1.45 4.3 Q1.35 5.1 1.8 5.7 3.0 7.35 4.7 8.15 L7.95 7.3 9.8 6.6 Q10.8 6.3 11.3 5.4 L11.3 4.9 10.95 4.65 8.0 2.7 Q6.6 1.75 4.95 1.55 L3.8 1.75 Q1.85 2.3 1.45 4.3 M14.4 8.55 L14.45 8.45 14.3 8.25 12.5 8.9 8.85 10.35 6.7 11.4 7.5 11.5 9.5 10.95 Q11.4 10.65 12.85 9.7 L13.75 9.1 14.4 8.55 M14.9 9.45 L15.0 9.0 14.9 9.0 13.95 9.35 13.2 9.75 9.75 11.25 8.65 11.6 Q7.8 11.95 7.5 12.4 L8.2 12.55 Q9.35 12.55 10.3 11.85 L14.55 9.8 14.8 9.65 14.95 9.45 14.9 9.45 M8.55 10.1 L13.55 8.15 13.45 7.55 12.6 7.65 8.15 9.6 5.95 10.8 8.55 10.1 M7.9 9.2 L12.1 7.5 11.45 6.85 11.1 6.55 4.85 8.45 6.6 9.75 7.9 9.2 M15.1 10.65 Q15.65 10.45 15.45 10.25 L14.7 10.15 13.95 10.35 10.45 12.05 8.15 13.1 10.8 12.55 15.1 10.65 M15.55 11.4 Q15.9 11.15 16.3 10.95 L16.3 10.75 16.25 10.7 15.85 10.5 15.3 10.8 14.65 11.15 11.0 12.8 9.15 13.6 9.1 14.05 11.45 13.3 15.55 11.4 M16.25 12.1 L16.45 12.05 Q16.9 11.95 16.85 11.45 L16.8 11.4 15.15 11.9 11.6 13.45 9.5 14.4 12.05 14.0 16.25 12.1 M16.5 12.7 L17.3 12.25 17.35 12.05 17.15 11.9 17.05 11.9 15.7 12.5 12.15 14.1 10.05 15.35 12.6 14.55 16.5 12.7 M17.45 13.95 L18.35 13.5 18.35 13.0 16.75 13.75 13.35 15.35 11.4 16.65 13.8 15.85 17.45 13.95 M18.15 14.7 Q18.45 14.7 18.85 14.35 L19.15 14.2 19.2 14.0 18.9 13.65 17.7 14.15 17.45 14.25 14.0 16.1 12.3 16.75 12.1 17.35 13.3 17.05 14.35 16.45 18.15 14.7 M18.75 15.2 L19.45 14.9 19.6 14.75 19.8 14.6 19.75 14.35 18.05 15.05 14.55 16.65 12.65 17.6 12.7 18.1 14.95 17.1 18.75 15.2 M16.9 13.25 L17.95 12.65 16.4 13.05 12.75 14.75 11.0 15.65 13.15 15.15 16.9 13.25 M21.35 16.2 L19.65 16.4 16.05 18.15 14.3 19.05 14.1 19.5 16.55 18.65 21.35 16.2" fill="#000000" fill-rule="evenodd" stroke="none"/>
    <path d="M23.45 29.15 L21.65 27.4 26.8 22.5 26.95 22.55 24.15 25.75 27.55 29.15 23.45 29.15" fill="#dde0e3" fill-rule="evenodd" stroke="none"/>
    <path d="M24.75 13.55 Q27.0 15.15 27.05 17.8 L27.05 18.7 26.9 19.25 26.85 19.25 26.35 18.95 Q26.75 16.0 24.6 14.15 24.2 13.8 24.75 13.55 M18.75 15.75 L20.6 15.15 19.8 15.8 18.75 15.75 M21.35 18.05 L21.75 18.0 22.25 18.45 22.25 18.65 21.35 18.05 M20.2 17.25 L22.05 16.85 22.0 17.0 20.3 17.6 20.2 17.25 M22.65 19.75 L22.9 19.55 23.2 19.55 Q24.3 20.65 25.2 22.15 L25.15 22.3 22.95 20.2 20.8 21.8 21.55 20.75 22.65 19.75 M14.3 8.25 L14.4 8.55 13.75 9.1 12.55 9.05 12.5 8.9 14.3 8.25 M14.9 9.45 L14.95 9.45 14.8 9.65 14.55 9.8 13.2 9.75 13.95 9.35 14.9 9.45 M13.45 7.55 Q12.95 8.7 11.8 8.4 L11.6 8.3 12.6 7.65 13.45 7.55 M15.1 10.65 L14.05 10.45 13.95 10.35 14.7 10.15 15.45 10.25 Q15.65 10.45 15.1 10.65 M15.55 11.4 L14.9 11.25 14.65 11.15 15.3 10.8 16.3 10.75 16.3 10.95 Q15.9 11.15 15.55 11.4 M16.45 12.05 L16.25 12.1 15.8 12.0 15.15 11.9 16.8 11.4 16.75 11.75 16.45 12.05 M15.7 12.5 L17.05 11.9 17.15 11.9 17.35 12.05 17.3 12.25 16.5 12.7 16.15 12.6 15.7 12.5 M8.0 4.25 L6.1 3.4 4.7 2.85 Q3.7 2.9 3.5 2.25 L6.2 2.1 10.15 4.5 Q10.1 4.8 9.9 4.6 L8.0 4.25 M16.75 13.75 L18.35 13.0 18.35 13.5 17.45 13.95 16.75 13.75 M18.85 14.35 Q18.45 14.7 18.15 14.7 17.75 14.7 17.45 14.25 L17.7 14.15 18.9 13.65 19.2 14.0 19.1 14.1 18.85 14.35 M18.75 15.2 L18.7 15.2 18.05 15.05 19.75 14.35 19.6 14.75 19.45 14.9 18.75 15.2 M16.9 13.25 L16.4 13.05 17.95 12.65 16.9 13.25 M21.35 16.2 L19.65 16.6 19.65 16.4 21.35 16.2" fill="#cccccc" fill-rule="evenodd" stroke="none"/>
  </g>
</svg>
