<?xml version="1.0" encoding="UTF-8" standalone="no"?>
<svg xmlns:ffdec="https://www.free-decompiler.com/flash" xmlns:xlink="http://www.w3.org/1999/xlink" ffdec:objectType="shape" height="27.6px" width="28.05px" xmlns="http://www.w3.org/2000/svg">
  <g transform="matrix(1.0, 0.0, 0.0, 1.0, -1.2, -1.65)">
    <path d="M1.2 4.25 L2.1 2.0 2.65 1.65 4.5 2.05 4.55 2.1 3.35 2.3 Q5.85 5.1 9.2 6.65 L9.6 6.5 4.9 2.3 10.5 6.7 Q7.7 7.55 4.7 7.6 L3.05 7.7 1.2 4.25 M23.8 13.8 L24.15 13.85 24.05 14.2 23.8 13.8 M24.65 14.45 L24.6 14.65 24.4 14.5 24.65 14.45 M25.65 15.5 L25.7 15.9 25.65 15.9 25.1 15.65 Q24.85 15.4 24.85 15.05 L25.65 15.5 M25.75 16.1 L26.45 16.3 25.95 16.3 25.95 17.05 25.75 16.1 M26.4 17.4 L26.05 17.15 26.45 17.15 26.4 17.4 M26.2 17.75 L26.7 17.55 26.85 18.25 26.35 17.9 27.0 21.95 26.6 22.95 25.95 22.4 25.65 20.85 25.8 19.65 25.8 17.9 26.2 17.75 M24.95 14.85 L24.85 14.95 24.85 14.85 24.95 14.85 M20.15 16.95 L20.85 17.55 20.55 17.95 20.4 18.15 20.4 18.2 20.5 18.5 20.6 18.6 20.8 19.0 21.35 19.3 22.3 18.8 22.95 19.35 22.65 19.25 22.15 19.2 23.6 20.85 23.95 20.6 23.75 20.0 24.35 20.45 20.7 24.9 20.45 24.65 20.55 23.75 19.85 23.3 18.95 23.45 17.1 21.9 Q17.3 21.65 17.15 21.25 L16.7 20.4 15.65 20.65 15.3 20.3 19.1 16.0 19.75 16.55 19.0 16.4 19.25 17.2 20.25 17.75 20.15 16.95 M24.0 21.6 L24.75 20.75 24.85 21.6 24.25 22.25 24.0 21.6 M21.2 21.25 Q21.2 21.6 21.5 21.85 L22.1 22.1 22.75 21.85 23.0 21.25 22.75 20.65 22.1 20.4 Q21.75 20.4 21.5 20.65 21.2 20.9 21.2 21.25 M21.8 25.45 L25.1 22.0 26.7 23.3 23.45 26.9 21.8 25.45 M10.75 8.3 L10.3 8.2 10.4 8.05 10.75 8.3 M9.75 8.45 L10.25 8.9 8.6 10.0 11.25 9.1 11.4 9.2 Q10.35 9.6 11.35 10.0 11.7 10.15 11.75 9.55 L12.05 9.85 10.05 11.15 12.0 10.5 12.55 10.95 Q12.95 10.55 12.25 10.35 L12.3 10.3 13.25 10.95 11.5 12.15 13.55 11.45 13.75 11.6 13.65 11.6 Q13.45 11.6 13.3 11.75 L13.15 12.05 13.3 12.4 13.65 12.5 14.0 12.4 14.15 12.05 14.15 11.95 14.5 12.25 12.85 13.7 14.8 12.6 15.4 12.8 15.6 13.25 14.35 14.65 15.95 13.6 16.25 13.75 Q15.55 13.9 16.0 14.35 16.45 14.75 16.65 14.15 L16.65 14.1 18.65 15.75 14.8 19.7 Q12.1 17.7 10.05 15.25 7.8 12.5 6.35 9.45 L9.75 8.45 M10.75 8.65 L10.8 8.35 10.95 8.55 10.75 8.65 M15.3 12.85 L14.95 12.7 Q14.75 12.7 14.65 12.85 14.5 12.95 14.5 13.15 L14.65 13.5 14.95 13.6 15.3 13.5 15.4 13.15 15.3 12.85 M18.2 17.8 Q17.9 18.05 17.9 18.45 17.9 18.85 18.2 19.15 18.45 19.4 18.8 19.4 L19.45 19.15 19.7 18.45 19.45 17.8 18.8 17.5 Q18.45 17.5 18.2 17.8 M18.5 20.45 Q18.2 20.7 18.2 21.1 L18.5 21.8 19.15 22.05 19.85 21.8 20.1 21.1 19.85 20.45 Q19.55 20.15 19.15 20.15 18.75 20.15 18.5 20.45" fill="#93cbdf" fill-rule="evenodd" stroke="none"/>
    <path d="M27.7 23.85 L27.9 23.9 27.85 23.95 24.8 27.4 24.4 26.85 27.15 23.7 27.7 23.85 M28.25 24.25 L28.25 24.2 28.35 24.3 29.25 25.6 29.25 28.8 28.8 29.25 26.9 29.25 24.95 27.55 28.25 24.25 M29.15 24.85 L29.25 24.95 29.25 25.25 29.15 24.85 M20.45 16.7 L20.4 16.8 19.95 16.45 19.95 16.35 20.45 16.7 M21.15 17.9 L21.75 18.5 21.45 18.65 21.05 18.15 21.15 17.9 M24.1 19.8 L23.55 19.4 23.65 19.25 24.1 19.8 M21.9 20.8 L22.05 20.6 22.7 21.05 22.45 21.35 22.4 21.35 22.05 21.2 21.9 20.8 M19.9 23.45 L20.15 23.65 20.25 24.05 20.05 24.2 19.9 24.2 19.9 24.15 19.85 24.15 19.75 24.0 19.6 23.55 19.9 23.45 M18.7 18.05 L18.85 17.7 19.3 17.85 19.45 18.25 19.15 18.5 18.7 18.05 M19.0 20.65 L19.25 20.5 19.7 21.0 19.4 21.25 19.0 20.65 M16.25 20.85 L16.65 20.6 16.95 20.85 16.8 21.3 16.55 21.5 16.3 21.05 16.25 20.85" fill="#ffffff" fill-rule="evenodd" stroke="none"/>
    <path d="M16.75 24.5 L16.35 24.3 16.15 23.95 16.15 23.85 16.35 23.4 16.8 23.2 17.1 23.3 17.25 23.4 17.45 23.65 17.45 23.85 17.25 24.3 16.8 24.5 16.75 24.5 M20.45 16.7 L20.5 16.85 20.4 16.8 20.45 16.7 M19.95 16.45 L19.9 16.3 19.95 16.35 19.95 16.45 M20.55 17.95 L20.9 17.85 21.15 17.9 21.05 18.15 20.8 18.65 20.6 18.6 20.5 18.5 20.4 18.2 20.4 18.15 20.55 17.95 M21.75 18.5 L21.7 18.75 Q21.45 19.5 20.95 18.85 L21.45 18.65 21.75 18.5 M23.55 19.4 Q23.2 19.25 23.5 19.2 L23.65 19.25 23.55 19.4 M22.05 20.6 L21.9 20.8 21.9 21.1 22.2 21.55 21.95 21.8 21.7 21.55 Q21.35 20.95 22.05 20.6 M19.7 24.65 L19.2 24.55 19.1 23.6 19.9 23.45 19.6 23.55 Q18.95 24.15 19.85 24.15 L19.9 24.15 19.9 24.2 20.05 24.2 20.25 24.05 19.95 24.65 19.7 24.65 M18.85 17.7 L18.7 18.05 18.6 18.3 Q18.8 19.0 19.15 18.5 L19.45 18.25 18.8 19.2 Q17.85 18.9 18.2 18.1 L18.85 17.7 M19.0 20.65 L18.9 21.0 Q18.85 21.65 19.4 21.25 L19.7 21.0 19.5 21.75 19.2 21.7 Q17.75 20.8 19.25 20.5 L19.0 20.65 M16.25 20.85 L16.15 21.1 Q16.2 21.75 16.55 21.5 L16.8 21.3 16.95 20.85 17.1 21.3 16.75 21.9 15.75 21.55 15.8 20.7 16.65 20.6 16.25 20.85 M17.25 23.75 L17.15 23.5 16.85 23.4 16.6 23.5 16.45 23.75 16.6 24.0 16.85 24.1 17.15 24.0 17.25 23.75" fill="#256878" fill-rule="evenodd" stroke="none"/>
    <path d="M20.95 18.85 L20.8 18.65 21.05 18.15 21.45 18.65 20.95 18.85 M22.2 21.55 L21.9 21.1 21.9 20.8 22.05 21.2 22.4 21.35 22.45 21.35 22.2 21.55 M19.15 18.5 Q18.8 19.0 18.6 18.3 L18.7 18.05 19.15 18.5 M19.4 21.25 Q18.85 21.65 18.9 21.0 L19.0 20.65 19.4 21.25 M16.55 21.5 Q16.2 21.75 16.15 21.1 L16.25 20.85 16.3 21.05 16.55 21.5 M17.25 23.75 L17.15 24.0 16.85 24.1 16.6 24.0 16.45 23.75 16.6 23.5 16.85 23.4 17.15 23.5 17.25 23.75 M19.85 24.15 Q18.95 24.15 19.6 23.55 L19.75 24.0 19.85 24.15" fill="#17444f" fill-rule="evenodd" stroke="none"/>
    <path d="M24.75 15.7 L24.7 15.65 24.6 15.4 Q24.5 15.05 24.85 14.85 L24.85 14.95 24.85 15.05 Q24.85 15.4 25.1 15.65 L25.65 15.9 24.95 15.9 24.75 15.7 M24.05 14.4 L24.0 14.35 23.85 14.1 23.8 13.8 24.05 14.2 24.4 14.5 24.6 14.65 Q24.25 14.65 24.05 14.4 M26.05 17.15 L26.4 17.4 26.15 17.6 Q25.7 17.55 25.4 17.1 L25.75 16.1 25.95 17.05 26.05 17.15 M25.8 19.65 L25.7 17.75 26.2 17.75 25.8 17.9 25.8 19.65 M25.65 20.85 L25.95 22.4 25.4 21.9 25.65 20.85 M20.7 24.9 L19.45 26.35 17.25 24.5 17.55 23.8 17.45 23.65 17.25 23.4 17.1 23.3 16.85 23.0 16.3 23.0 15.85 23.45 14.1 21.8 15.3 20.3 15.65 20.65 15.7 21.4 Q15.7 22.0 15.95 22.45 16.15 22.85 16.45 22.8 L17.1 21.9 18.95 23.45 19.05 24.6 19.7 24.65 19.95 24.65 20.45 24.65 20.7 24.9 M24.25 22.25 L20.45 26.5 19.9 26.3 24.0 21.6 24.25 22.25 M26.7 23.3 L26.75 23.55 22.85 28.15 22.8 28.1 20.9 26.5 21.8 25.45 23.45 26.9 26.7 23.3 M10.3 8.2 L9.75 8.45 6.35 9.45 Q7.8 12.5 10.05 15.25 12.1 17.7 14.8 19.7 L18.65 15.75 13.75 21.65 13.0 21.0 9.15 17.5 Q5.15 14.1 3.1 9.3 L10.4 8.05 10.3 8.2 M10.25 8.9 L10.75 8.65 10.95 8.55 11.25 9.1 8.6 10.0 10.25 8.9 M12.05 9.85 L12.3 10.3 12.25 10.35 12.0 10.5 10.05 11.15 12.05 9.85 M13.25 10.95 L13.55 11.45 11.5 12.15 13.25 10.95 M14.5 12.25 L14.8 12.6 12.85 13.7 14.5 12.25 M15.6 13.25 L15.65 13.45 15.95 13.6 14.35 14.65 15.6 13.25 M10.5 6.7 L9.8 7.4 2.5 8.95 1.2 4.25 3.05 7.7 4.7 7.6 Q7.7 7.55 10.5 6.7" fill="#3aa5be" fill-rule="evenodd" stroke="none"/>
    <path d="M26.55 29.25 L23.5 29.25 24.85 27.8 26.55 29.25 M24.4 26.85 L24.8 27.4 23.25 29.1 23.05 28.4 24.4 26.85" fill="#dde0e3" fill-rule="evenodd" stroke="none"/>
    <path d="M26.5 16.3 L26.5 16.35 26.5 17.15 26.45 17.15 26.05 17.15 25.95 17.05 25.95 16.3 26.45 16.3 26.5 16.3 M27.15 19.05 L27.1 21.25 27.0 21.95 26.35 17.9 26.85 18.25 27.15 19.05 M24.15 13.85 L24.65 14.45 24.4 14.5 24.05 14.2 24.15 13.85 M24.95 14.85 L25.5 15.05 25.65 15.5 24.85 15.05 24.85 14.95 24.95 14.85 M22.95 19.35 Q23.5 19.5 23.75 20.0 L23.95 20.6 23.6 20.85 22.15 19.2 22.65 19.25 22.95 19.35 M10.3 8.2 L10.75 8.3 10.75 8.35 10.8 8.35 10.75 8.65 10.25 8.9 9.75 8.45 10.3 8.2 M11.4 9.2 L11.75 9.55 Q11.7 10.15 11.35 10.0 10.35 9.6 11.4 9.2 M13.75 11.6 L14.0 11.75 14.15 11.95 14.15 12.05 14.0 12.4 13.65 12.5 13.3 12.4 13.15 12.05 13.3 11.75 Q13.45 11.6 13.65 11.6 L13.75 11.6 M16.25 13.75 L16.65 14.1 16.65 14.15 Q16.45 14.75 16.0 14.35 15.55 13.9 16.25 13.75 M12.0 10.5 L12.25 10.35 Q12.95 10.55 12.55 10.95 L12.0 10.5 M4.7 2.15 L4.9 2.3 9.6 6.5 9.2 6.65 Q5.85 5.1 3.35 2.3 L4.55 2.1 4.7 2.15 M15.3 12.85 L15.4 13.15 15.3 13.5 14.95 13.6 14.65 13.5 14.5 13.15 Q14.5 12.95 14.65 12.85 14.75 12.7 14.95 12.7 L15.3 12.85 M19.75 16.55 L20.15 16.95 20.25 17.75 19.25 17.2 19.0 16.4 19.75 16.55" fill="#daeff3" fill-rule="evenodd" stroke="none"/>
    <path d="M24.15 13.85 L24.55 13.95 25.5 15.05 26.15 15.85 26.5 16.3 26.45 16.3 25.75 16.1 25.4 17.1 Q25.7 17.55 26.15 17.6 L26.4 17.4 26.45 17.15 26.5 17.15 26.5 16.35 Q26.95 17.1 27.05 18.0 L27.15 19.05 26.85 18.25 26.7 17.55 26.2 17.75 25.7 17.75 25.8 19.65 25.65 20.85 25.4 21.9 25.95 22.4 26.6 22.95 27.0 21.95 27.1 21.25 27.05 23.4 27.7 23.85 27.15 23.7 24.4 26.85 23.05 28.4 23.25 29.1 24.8 27.4 27.85 23.95 28.25 24.25 24.95 27.55 26.9 29.25 26.55 29.25 24.85 27.8 23.5 29.25 23.0 29.25 22.7 28.35 20.85 26.75 18.2 26.2 16.75 24.5 16.8 24.5 17.25 24.3 17.45 23.85 17.45 23.65 17.55 23.8 17.25 24.5 19.45 26.35 20.7 24.9 24.35 20.45 23.75 20.0 Q23.5 19.5 22.95 19.35 L22.3 18.8 21.35 19.3 20.8 19.0 20.6 18.6 20.8 18.65 20.95 18.85 Q21.45 19.5 21.7 18.75 L21.75 18.5 21.15 17.9 20.9 17.85 20.55 17.95 20.85 17.55 20.15 16.95 19.75 16.55 19.1 16.0 15.3 20.3 14.1 21.8 15.85 23.45 16.3 23.0 16.85 23.0 17.1 23.3 16.8 23.2 16.35 23.4 16.15 23.85 16.15 23.95 14.35 22.4 10.45 19.25 Q7.3 16.4 4.85 12.75 L2.9 9.45 2.3 9.15 Q1.75 8.15 1.6 7.1 L1.2 4.25 2.5 8.95 9.8 7.4 10.5 6.7 4.9 2.3 4.7 2.15 4.55 2.1 4.5 2.05 4.7 2.15 Q7.9 3.2 10.2 5.75 L11.05 6.8 10.65 7.65 Q14.95 12.8 20.4 16.45 L24.25 19.6 24.85 20.5 25.25 21.7 Q26.0 19.65 25.35 17.6 L25.1 16.35 24.75 15.7 24.95 15.9 25.65 15.9 25.7 15.9 25.65 15.5 25.5 15.05 24.95 14.85 24.85 14.85 Q24.5 15.05 24.6 15.4 L24.05 14.4 Q24.25 14.65 24.6 14.65 L24.65 14.45 24.15 13.85 M28.35 24.3 L29.15 24.85 29.25 25.25 29.25 25.6 28.35 24.3 M23.85 14.1 L23.65 13.75 23.8 13.8 23.85 14.1 M20.4 16.8 L20.5 16.85 20.45 16.7 19.95 16.35 19.9 16.3 19.95 16.45 20.4 16.8 M23.55 19.4 L24.1 19.8 23.65 19.25 23.5 19.2 Q23.2 19.25 23.55 19.4 M24.25 22.25 L24.85 21.6 24.75 20.75 24.0 21.6 19.9 26.3 20.45 26.5 24.25 22.25 M21.2 21.25 Q21.2 20.9 21.5 20.65 21.75 20.4 22.1 20.4 L22.75 20.65 23.0 21.25 22.75 21.85 22.1 22.1 21.5 21.85 Q21.2 21.6 21.2 21.25 M22.05 20.6 Q21.35 20.95 21.7 21.55 L21.95 21.8 22.2 21.55 22.45 21.35 22.7 21.05 22.05 20.6 M18.95 23.45 L19.85 23.3 20.55 23.75 20.45 24.65 19.95 24.65 20.25 24.05 20.15 23.65 19.9 23.45 19.1 23.6 19.2 24.55 19.7 24.65 19.05 24.6 18.95 23.45 M22.85 28.15 L26.75 23.55 26.7 23.3 25.1 22.0 21.8 25.45 20.9 26.5 22.8 28.1 22.8 28.15 22.85 28.15 M10.8 8.35 L10.75 8.35 10.75 8.3 10.4 8.05 3.1 9.3 Q5.15 14.1 9.15 17.5 L13.0 21.0 13.75 21.65 18.65 15.75 16.65 14.1 16.25 13.75 15.95 13.6 15.65 13.45 15.6 13.25 15.4 12.8 14.8 12.6 14.5 12.25 14.15 11.95 14.0 11.75 13.75 11.6 13.55 11.45 13.25 10.95 12.3 10.3 12.05 9.85 11.75 9.55 11.4 9.2 11.25 9.1 10.95 8.55 10.8 8.35 M15.65 20.65 L16.7 20.4 17.15 21.25 Q17.3 21.65 17.1 21.9 L16.45 22.8 Q16.15 22.85 15.95 22.45 15.7 22.0 15.7 21.4 L15.65 20.65 M18.85 17.7 L18.2 18.1 Q17.85 18.9 18.8 19.2 L19.45 18.25 19.3 17.85 18.85 17.7 M18.2 17.8 Q18.45 17.5 18.8 17.5 L19.45 17.8 19.7 18.45 19.45 19.15 18.8 19.4 Q18.45 19.4 18.2 19.15 17.9 18.85 17.9 18.45 17.9 18.05 18.2 17.8 M18.5 20.45 Q18.75 20.15 19.15 20.15 19.55 20.15 19.85 20.45 L20.1 21.1 19.85 21.8 19.15 22.05 18.5 21.8 18.2 21.1 Q18.2 20.7 18.5 20.45 M19.25 20.5 Q17.75 20.8 19.2 21.7 L19.5 21.75 19.7 21.0 19.25 20.5 M16.65 20.6 L15.8 20.7 15.75 21.55 16.75 21.9 17.1 21.3 16.95 20.85 16.65 20.6" fill="#1d555c" fill-rule="evenodd" stroke="none"/>
  </g>
</svg>
