<?xml version="1.0" encoding="UTF-8" standalone="no"?>
<svg xmlns:ffdec="https://www.free-decompiler.com/flash" xmlns:xlink="http://www.w3.org/1999/xlink" ffdec:objectType="shape" height="27.75px" width="27.75px" xmlns="http://www.w3.org/2000/svg">
  <g transform="matrix(1.0, 0.0, 0.0, 1.0, -1.3, -1.45)">
    <path d="M24.15 12.05 L23.45 11.65 24.35 12.85 24.55 13.35 25.2 13.7 25.1 14.4 25.5 14.7 25.55 14.85 Q26.15 16.7 25.05 18.55 L25.15 18.7 26.1 19.35 Q27.35 17.65 26.7 15.5 L26.35 14.4 26.35 13.95 26.3 13.75 26.15 13.7 25.55 12.8 25.55 12.75 25.45 12.65 24.6 12.2 24.55 12.2 24.35 12.2 24.15 12.15 24.15 12.05 M6.85 2.1 L6.9 2.15 8.1 2.7 9.2 4.35 Q11.0 4.6 10.95 6.6 L12.95 8.3 Q14.55 8.0 15.2 9.55 L16.1 10.85 17.2 11.65 17.75 11.5 Q19.4 11.8 19.5 13.7 L21.7 15.7 22.85 15.5 24.7 18.25 Q26.05 16.8 25.35 15.0 L24.8 14.7 24.8 14.05 24.0 12.55 23.55 12.45 23.2 11.55 25.0 12.05 25.2 12.5 25.65 12.6 26.05 13.3 26.6 13.55 26.7 14.2 26.65 14.35 Q27.9 17.1 26.3 19.7 L27.2 19.1 27.7 19.05 29.05 20.2 29.05 20.5 28.65 20.1 29.05 20.7 29.05 20.95 27.85 19.3 27.15 19.35 26.95 19.6 Q24.55 23.2 24.15 27.35 L23.75 26.5 20.15 23.4 Q19.4 22.8 18.6 22.6 L15.1 18.8 14.5 19.05 12.4 16.9 10.6 15.1 10.05 15.3 9.85 15.0 10.0 14.95 10.45 14.8 10.5 13.05 10.95 11.1 10.95 11.35 10.9 15.05 13.3 17.25 13.5 11.15 13.0 8.55 11.05 7.0 11.05 7.3 10.95 6.6 Q10.7 5.0 9.2 4.7 L9.15 7.0 8.85 5.2 8.1 5.35 Q6.4 6.0 6.5 7.75 L6.4 11.2 8.8 13.2 9.35 10.2 9.4 9.95 9.4 10.45 9.2 13.7 9.3 14.25 8.8 13.6 Q7.55 12.0 5.6 11.85 L3.45 10.95 3.35 11.3 3.35 11.35 3.3 11.35 3.15 11.35 3.1 11.2 3.35 11.2 3.35 10.65 2.95 10.65 2.9 10.45 2.05 8.85 1.85 8.8 2.0 8.7 2.1 8.5 2.0 8.3 1.75 8.2 1.55 8.3 1.8 7.85 1.3 6.45 1.55 6.15 1.55 6.55 2.25 6.55 2.15 6.65 Q1.9 7.85 2.45 9.2 3.2 11.2 5.05 11.15 L5.1 9.7 5.55 11.6 Q6.45 11.9 6.25 10.8 L6.15 9.85 6.3 8.05 6.55 4.85 6.65 5.75 8.95 4.7 8.2 3.7 7.8 3.75 Q8.5 3.35 7.85 2.8 L7.7 2.8 7.6 3.4 7.55 3.15 Q7.6 2.35 6.65 2.35 6.45 2.3 6.85 2.1 M26.75 29.2 L26.45 29.2 24.9 27.95 Q25.85 28.5 26.75 29.2 M1.5 8.7 L1.3 8.65 1.4 8.5 1.5 8.7 M1.7 6.0 L1.75 5.9 1.7 4.4 2.0 3.65 2.5 3.55 3.6 2.35 3.6 1.8 3.8 1.6 4.45 1.9 6.1 1.9 6.05 1.75 6.1 1.65 6.15 1.55 Q6.2 1.45 6.3 1.45 L6.55 1.75 6.25 1.65 6.45 2.6 6.25 3.1 6.1 2.95 6.15 2.85 6.25 2.5 6.15 2.15 5.9 2.0 5.65 2.15 5.55 2.5 5.4 2.35 Q3.5 2.1 2.5 4.2 L2.05 5.45 Q1.9 5.8 2.25 6.0 L1.7 6.0 M6.3 8.05 L6.3 7.9 6.3 8.05 M22.45 18.75 L21.9 16.15 21.55 15.85 19.55 14.25 18.6 12.65 18.3 12.1 18.35 12.2 17.95 11.6 17.5 11.8 18.0 14.2 Q17.8 17.65 17.75 21.1 17.75 21.8 18.35 22.2 L19.15 22.2 19.0 19.7 19.5 15.25 19.45 18.05 Q18.8 20.5 19.85 22.75 L19.95 22.75 21.05 21.7 23.55 18.75 23.6 18.6 23.65 17.7 23.3 16.45 22.75 15.65 22.15 15.75 22.45 18.55 22.5 18.9 22.45 18.75 M26.05 19.8 L24.55 18.5 20.45 22.95 23.9 26.0 26.05 19.8 M14.75 10.25 L13.95 8.4 13.2 8.55 13.65 11.45 13.5 16.6 Q13.5 18.05 14.45 18.7 L14.85 18.55 15.0 16.55 14.95 11.35 14.75 10.25 M17.55 12.7 L17.45 12.2 15.15 10.45 15.35 15.2 15.35 18.65 17.5 20.45 17.55 12.7 M3.9 3.0 L4.25 3.3 3.65 3.4 Q3.55 3.4 3.6 3.55 L3.25 3.35 3.9 3.0 M5.7 4.05 L5.8 4.35 5.7 4.7 5.35 4.8 5.05 4.7 4.9 4.35 Q4.9 4.15 5.05 4.05 5.15 3.9 5.35 3.9 L5.7 4.05 M5.1 4.2 L5.0 4.4 5.1 4.6 5.3 4.7 5.5 4.6 5.6 4.4 5.5 4.2 5.3 4.1 5.1 4.2 M3.9 1.9 Q3.95 1.55 3.65 1.9 3.85 2.65 3.9 1.9 M2.45 4.3 L2.45 3.8 1.95 3.8 1.95 4.3 2.45 4.3 M2.5 6.15 L2.35 6.4 2.35 6.05 2.5 6.1 2.5 6.15 M4.15 6.15 L4.3 6.55 4.15 6.95 3.8 7.1 3.45 6.95 3.3 6.55 Q3.3 6.3 3.45 6.15 3.6 6.0 3.8 6.0 L4.15 6.15 M3.45 6.85 L4.1 6.65 Q4.05 5.85 3.5 6.7 L3.45 6.85 M3.75 8.65 L3.85 8.75 3.55 9.6 3.0 9.15 3.35 8.35 3.6 8.45 3.45 9.4 3.75 8.65" fill="#000000" fill-rule="evenodd" stroke="none"/>
    <path d="M23.9 12.1 L24.15 12.05 24.15 12.15 23.9 12.1 M26.1 19.35 L25.65 18.5 26.0 14.45 24.4 12.55 Q24.7 12.8 24.65 12.35 L24.6 12.2 25.45 12.65 25.55 12.75 25.05 12.75 25.05 13.3 25.55 13.3 25.55 12.8 26.15 13.7 Q25.6 13.95 26.2 13.95 L26.35 13.95 26.35 14.4 26.7 15.5 Q27.35 17.65 26.1 19.35 M24.4 12.25 L24.35 12.2 24.55 12.2 24.4 12.25 M1.55 6.15 L1.55 6.0 1.7 6.0 2.25 6.0 Q1.9 5.8 2.05 5.45 L2.5 4.2 Q3.5 2.1 5.4 2.35 L3.9 3.0 3.25 3.35 3.6 3.55 Q3.55 3.4 3.65 3.4 L4.25 3.3 4.4 3.4 Q6.55 3.35 8.35 4.35 8.6 4.5 8.45 4.15 L8.2 3.7 8.95 4.7 6.65 5.75 6.55 4.85 6.3 8.05 6.15 9.85 5.0 9.3 5.15 8.0 4.4 9.15 3.85 8.75 3.75 8.65 3.6 8.45 3.35 8.35 2.15 6.65 2.25 6.55 1.55 6.55 1.55 6.15 M6.55 1.75 L6.75 1.8 6.8 1.9 6.85 2.1 Q6.45 2.3 6.65 2.35 7.6 2.35 7.55 3.15 L6.45 2.6 6.25 1.65 6.55 1.75 M7.6 3.4 L7.7 2.8 7.85 2.8 Q8.5 3.35 7.8 3.75 L7.6 3.4 M22.45 18.75 L22.5 18.9 22.45 18.55 22.5 16.4 23.55 18.75 21.05 21.7 19.9 20.55 19.45 18.05 19.5 15.25 19.0 19.7 18.0 19.15 18.0 14.2 17.5 11.8 17.95 11.6 18.35 12.2 19.1 16.8 19.1 16.7 19.2 15.45 Q19.2 14.0 18.6 12.65 L19.55 14.25 21.55 15.85 22.45 19.45 22.45 18.75 M22.15 15.75 L22.75 15.65 23.3 16.45 23.65 17.7 Q23.55 16.7 22.75 16.05 22.45 15.85 22.45 16.2 L22.15 15.75 M21.3 16.55 L20.3 15.0 Q20.15 15.25 20.25 15.45 L20.8 16.25 21.3 16.55 M26.05 19.8 L24.0 23.9 21.7 21.9 24.55 18.5 26.05 19.8 M13.65 11.45 L13.2 8.55 13.95 8.4 14.75 10.25 13.55 8.7 14.75 13.4 14.95 11.35 15.0 16.55 14.1 16.15 13.65 11.45 M6.5 7.75 Q6.4 6.0 8.1 5.35 L8.85 5.2 9.15 7.0 9.2 4.7 Q10.7 5.0 10.95 6.6 L11.05 7.3 11.05 7.0 13.0 8.55 13.5 11.15 13.05 14.95 11.05 13.45 10.95 11.35 10.95 11.1 10.5 13.05 9.45 12.25 9.4 10.45 9.4 9.95 9.35 10.2 9.25 7.8 8.7 11.4 6.9 10.15 6.5 7.75 M10.6 9.75 Q11.1 7.4 10.0 5.55 L9.3 4.95 10.25 10.0 10.6 9.75 M15.9 11.7 L16.7 12.55 17.25 12.85 15.85 11.2 Q15.8 11.5 15.9 11.7 M15.35 15.2 L15.15 10.45 17.45 12.2 17.55 12.7 17.2 18.25 15.8 17.1 15.35 15.2 M5.55 2.5 L5.65 2.15 5.9 2.0 6.15 2.15 6.25 2.5 6.15 2.85 6.1 2.95 5.9 3.0 5.65 2.85 5.55 2.5 M5.1 4.2 L5.3 4.1 5.5 4.2 5.6 4.4 5.5 4.6 5.3 4.7 5.1 4.6 5.0 4.4 5.1 4.2 M5.7 4.05 L5.35 3.9 Q5.15 3.9 5.05 4.05 4.9 4.15 4.9 4.35 L5.05 4.7 5.35 4.8 5.7 4.7 5.8 4.35 5.7 4.05 M3.45 6.85 L3.5 6.7 Q4.05 5.85 4.1 6.65 L3.45 6.85 M4.15 6.15 L3.8 6.0 Q3.6 6.0 3.45 6.15 3.3 6.3 3.3 6.55 L3.45 6.95 3.8 7.1 4.15 6.95 4.3 6.55 4.15 6.15 M2.5 6.15 L2.5 6.1 2.35 6.05 2.35 6.4 2.5 6.15 M2.45 4.3 L1.95 4.3 1.95 3.8 2.45 3.8 2.45 4.3 M3.9 1.9 Q3.85 2.65 3.65 1.9 3.95 1.55 3.9 1.9" fill="#ffe3d5" fill-rule="evenodd" stroke="none"/>
    <path d="M23.9 12.1 L23.45 11.65 24.15 12.05 23.9 12.1 M24.4 12.55 L24.4 12.25 24.55 12.2 24.6 12.2 24.65 12.35 Q24.7 12.8 24.4 12.55 M25.55 12.75 L25.55 12.8 25.55 13.3 25.05 13.3 25.05 12.75 25.55 12.75 M26.15 13.7 L26.3 13.75 26.35 13.95 26.2 13.95 Q25.6 13.95 26.15 13.7 M29.05 20.5 L29.05 20.7 28.65 20.1 29.05 20.5 M29.05 20.95 L29.05 28.3 27.0 26.9 27.55 22.25 26.0 26.3 25.55 25.95 Q25.95 23.35 26.9 20.6 L27.45 19.65 Q27.6 19.4 27.15 19.35 L27.85 19.3 29.05 20.95 M7.55 3.15 L7.6 3.4 7.8 3.75 8.2 3.7 8.45 4.15 Q8.6 4.5 8.35 4.35 6.55 3.35 4.4 3.4 L4.25 3.3 3.9 3.0 5.4 2.35 5.55 2.5 5.65 2.85 5.9 3.0 6.1 2.95 6.25 3.1 6.45 2.6 7.55 3.15 M23.65 17.7 L23.6 18.6 23.55 18.75 22.5 16.4 22.45 16.2 Q22.45 15.85 22.75 16.05 23.55 16.7 23.65 17.7 M18.35 12.2 L18.3 12.1 18.6 12.65 Q19.2 14.0 19.2 15.45 L19.1 16.7 19.1 16.8 18.35 12.2 M21.3 16.55 L20.8 16.25 20.25 15.45 Q20.15 15.25 20.3 15.0 L21.3 16.55 M14.75 10.25 L14.95 11.35 14.75 13.4 13.55 8.7 14.75 10.25 M15.9 11.7 Q15.8 11.5 15.85 11.2 L17.25 12.85 16.7 12.55 15.9 11.7 M10.6 9.75 L10.25 10.0 9.3 4.95 10.0 5.55 Q11.1 7.4 10.6 9.75" fill="#ffffff" fill-rule="evenodd" stroke="none"/>
    <path d="M29.05 28.3 L29.05 28.9 28.85 29.2 26.75 29.2 Q25.85 28.5 24.9 27.95 L24.75 27.85 24.15 27.45 24.15 27.35 Q24.55 23.2 26.95 19.6 L27.15 19.35 Q27.6 19.4 27.45 19.65 L26.9 20.6 Q25.95 23.35 25.55 25.95 L26.0 26.3 27.55 22.25 27.0 26.9 29.05 28.3" fill="#dde0e3" fill-rule="evenodd" stroke="none"/>
    <path d="M23.45 11.65 L23.9 12.1 24.15 12.15 24.35 12.2 24.4 12.25 24.4 12.55 26.0 14.45 25.65 18.5 26.1 19.35 25.15 18.7 25.05 18.55 Q26.15 16.7 25.55 14.85 L25.5 14.7 25.1 14.4 25.2 13.7 24.55 13.35 24.35 12.85 23.45 11.65 M9.85 15.0 L9.7 14.95 9.4 14.6 9.3 14.25 9.2 13.7 9.4 10.45 9.45 12.25 10.5 13.05 10.45 14.8 10.0 14.95 9.85 15.0 M3.1 11.2 L2.9 11.2 2.9 10.65 2.95 10.65 3.35 10.65 3.35 11.2 3.1 11.2 M1.85 8.8 L1.75 8.8 1.5 8.7 1.4 8.5 1.5 8.3 1.55 8.3 1.75 8.2 2.0 8.3 2.1 8.5 2.0 8.7 1.85 8.8 M6.15 9.85 L6.25 10.8 Q6.45 11.9 5.55 11.6 L5.1 9.7 5.05 11.15 Q3.2 11.2 2.45 9.2 1.9 7.85 2.15 6.65 L3.35 8.35 3.0 9.15 3.55 9.6 3.85 8.75 4.4 9.15 5.15 8.0 5.0 9.3 6.15 9.85 M21.55 15.85 L21.9 16.15 22.45 18.75 22.45 19.45 21.55 15.85 M22.45 18.55 L22.15 15.75 22.45 16.2 22.5 16.4 22.45 18.55 M21.05 21.7 L19.95 22.75 19.85 22.75 Q18.8 20.5 19.45 18.05 L19.9 20.55 21.05 21.7 M19.0 19.7 L19.15 22.2 18.35 22.2 Q17.75 21.8 17.75 21.1 17.8 17.65 18.0 14.2 L18.0 19.15 19.0 19.7 M24.55 18.5 L21.7 21.9 24.0 23.9 26.05 19.8 23.9 26.0 20.45 22.95 24.55 18.5 M15.0 16.55 L14.85 18.55 14.45 18.7 Q13.5 18.05 13.5 16.6 L13.65 11.45 14.1 16.15 15.0 16.55 M6.5 7.75 L6.9 10.15 8.7 11.4 9.25 7.8 9.35 10.2 8.8 13.2 6.4 11.2 6.5 7.75 M10.95 11.35 L11.05 13.45 13.05 14.95 13.5 11.15 13.3 17.25 10.9 15.05 10.95 11.35 M17.55 12.7 L17.5 20.45 15.35 18.65 15.35 15.2 15.8 17.1 17.2 18.25 17.55 12.7 M3.6 8.45 L3.75 8.65 3.45 9.4 3.6 8.45" fill="#edb192" fill-rule="evenodd" stroke="none"/>
  </g>
</svg>
