<?xml version="1.0" encoding="UTF-8" standalone="no"?>
<svg xmlns:ffdec="https://www.free-decompiler.com/flash" xmlns:xlink="http://www.w3.org/1999/xlink" ffdec:objectType="shape" height="27.85px" width="28.3px" xmlns="http://www.w3.org/2000/svg">
  <g transform="matrix(1.0, 0.0, 0.0, 1.0, -0.85, -1.3)">
    <path d="M24.75 12.95 L25.25 12.75 25.55 12.9 25.9 13.65 25.2 13.95 24.5 13.2 24.75 12.95 M27.9 18.65 L27.8 19.35 27.7 19.65 27.15 19.5 26.75 19.1 Q27.45 16.5 26.1 14.25 L25.9 14.1 Q25.85 13.8 26.15 14.1 27.15 15.1 27.6 16.25 28.0 17.35 27.9 18.65 M25.55 13.2 L25.45 12.95 25.15 12.8 Q25.0 12.8 24.9 12.95 L24.75 13.2 24.9 13.5 25.15 13.6 25.45 13.5 25.55 13.2 M21.45 17.6 L21.3 17.75 18.0 15.0 21.15 18.1 21.55 17.7 23.3 19.55 21.85 21.0 21.95 21.15 22.4 21.85 22.55 22.1 22.55 22.2 22.5 22.6 14.75 14.55 16.7 16.15 18.35 14.7 18.55 15.3 21.45 17.6 M21.7 17.6 L21.85 17.45 23.5 19.3 21.7 17.6 M19.65 14.85 L21.95 17.15 21.6 17.5 20.2 15.75 19.65 14.85 M27.15 20.8 L26.65 21.3 25.0 19.55 25.05 19.55 25.9 19.45 27.15 20.8 M23.4 19.7 L24.45 20.85 Q25.0 21.5 25.75 21.9 26.15 22.05 26.15 21.55 L26.3 21.65 22.9 25.1 20.4 22.65 20.9 22.15 20.1 22.7 15.1 17.4 15.9 16.6 14.3 14.85 14.5 14.7 22.5 22.85 22.45 23.6 20.9 22.15 22.7 23.95 23.0 21.95 22.1 20.95 23.4 19.7 M25.75 21.1 L25.6 21.05 25.15 20.55 25.75 21.1 M24.6 20.05 L23.65 19.45 23.75 19.3 24.6 20.05 M10.65 4.2 L11.0 4.3 5.7 6.2 Q8.1 6.25 10.3 5.25 L10.95 4.95 11.95 4.75 12.35 5.05 7.1 6.25 3.95 7.1 3.55 7.1 Q2.25 6.45 1.9 5.1 L1.6 3.5 Q2.5 2.05 4.0 1.75 L5.65 1.9 8.9 3.25 8.75 3.75 Q7.75 3.65 7.65 4.1 L8.55 4.65 9.15 4.35 10.65 4.2 M12.0 5.85 L11.95 5.9 11.95 5.85 12.0 5.85 M13.4 8.45 Q13.45 8.75 12.95 9.1 L12.55 9.1 12.25 8.2 13.05 8.0 Q12.35 8.45 13.2 8.7 L13.4 8.45 M13.45 9.25 L13.75 8.45 15.65 10.5 15.2 10.65 15.05 10.9 14.95 11.15 Q14.75 11.75 15.3 11.95 L15.85 12.2 16.5 11.55 17.0 12.1 16.3 12.1 16.15 12.35 17.95 14.3 18.15 14.35 16.8 15.65 14.6 13.6 13.75 14.4 15.65 16.65 15.0 17.3 12.8 15.0 12.55 14.35 11.9 14.05 10.1 12.15 9.9 11.65 Q9.65 11.4 9.35 11.4 L7.5 9.45 6.85 8.6 11.05 6.8 Q10.55 7.75 11.6 8.1 L11.9 8.1 Q12.45 7.85 12.3 7.25 L12.55 7.65 Q11.8 8.15 12.0 8.85 L12.15 9.1 Q12.65 9.7 13.25 9.35 L13.9 10.35 Q14.25 10.85 14.9 10.85 L13.45 9.25 M17.7 12.85 L18.55 13.95 18.45 14.05 17.7 12.85 M12.2 7.15 L11.35 6.65 11.75 6.5 12.2 7.15 M12.25 10.35 Q11.9 10.35 11.65 10.65 11.35 10.9 11.35 11.25 L11.65 11.9 12.25 12.15 12.9 11.9 13.15 11.25 12.9 10.65 Q12.6 10.35 12.25 10.35 M10.6 8.7 L10.35 8.1 9.65 7.8 Q9.25 7.8 9.0 8.1 8.7 8.35 8.7 8.7 8.7 9.05 9.0 9.35 L9.65 9.6 10.35 9.35 10.6 8.7 M12.85 11.2 L12.85 11.3 12.65 11.75 12.2 11.95 11.75 11.75 11.55 11.3 11.75 10.85 12.2 10.65 12.3 10.65 12.1 10.8 11.95 11.1 12.1 11.45 12.4 11.55 12.75 11.45 12.85 11.2 M16.15 11.3 L16.1 11.6 Q15.95 12.15 15.3 11.9 L15.15 11.7 Q14.85 10.75 15.7 10.85 L15.6 11.1 Q15.45 11.85 16.15 11.3 M6.35 2.2 L3.65 2.15 6.95 3.7 7.7 3.35 7.05 2.7 6.35 2.2 M7.05 4.05 L7.55 4.45 8.2 4.65 7.05 4.05 M10.2 8.3 Q10.4 8.85 9.95 9.2 L9.7 9.35 Q9.2 9.35 9.15 8.85 L9.1 8.45 10.0 8.2 Q9.1 8.6 10.05 8.85 L10.2 8.3 M23.45 25.8 L23.35 25.5 26.55 22.3 23.45 25.8" fill="#947afe" fill-rule="evenodd" stroke="none"/>
    <path d="M24.75 12.95 L24.95 12.65 25.55 12.8 25.9 13.15 26.0 13.6 26.95 14.65 27.45 15.6 27.6 16.25 Q27.15 15.1 26.15 14.1 25.85 13.8 25.9 14.1 L26.3 15.4 Q27.05 17.0 26.5 18.8 L26.9 19.65 27.45 20.25 27.7 19.65 27.8 19.35 27.9 18.65 Q28.0 20.3 26.75 21.55 L26.9 22.05 27.8 22.1 28.65 22.75 Q29.1 23.1 29.15 23.45 L28.95 23.55 28.95 23.95 29.15 24.55 29.15 25.1 28.55 23.7 28.45 23.45 27.75 22.5 27.6 22.45 23.65 26.2 22.2 27.6 22.4 27.95 23.4 29.15 21.85 27.9 Q22.15 27.1 21.6 26.85 L10.8 15.8 10.5 15.6 8.3 13.2 7.35 12.8 7.2 12.0 5.45 10.25 4.65 9.9 3.85 8.5 3.15 8.75 Q1.9 8.0 1.25 6.75 0.55 5.55 1.05 4.15 1.95 1.6 4.8 1.3 6.45 1.3 7.65 2.05 9.35 3.1 11.2 3.8 12.5 4.25 12.65 5.45 L11.95 6.3 23.85 18.75 24.85 19.35 26.15 18.95 Q27.3 16.5 25.7 14.45 L24.95 14.25 24.35 13.45 24.55 13.25 24.75 13.95 25.05 14.15 Q25.85 14.45 25.9 13.65 L25.55 12.9 25.25 12.75 24.75 12.95 M21.55 17.7 L21.15 18.1 18.0 15.0 21.3 17.75 21.45 17.6 21.6 17.5 21.95 17.15 19.65 14.85 18.9 14.1 16.75 15.75 14.3 14.05 14.75 14.55 22.5 22.6 22.65 22.45 22.55 22.2 22.55 22.1 22.4 21.85 21.95 21.15 21.85 21.0 23.3 19.55 23.5 19.3 21.85 17.45 21.7 17.6 21.55 17.7 M25.05 19.55 L25.0 19.55 26.65 21.3 27.15 20.8 27.2 20.55 26.1 19.2 25.05 19.55 M23.65 19.45 L23.4 19.7 22.1 20.95 23.0 21.95 22.7 23.95 20.9 22.15 22.45 23.6 22.6 23.15 22.5 22.85 14.5 14.7 14.1 14.3 14.0 14.35 14.3 14.85 15.9 16.6 15.1 17.4 13.9 18.6 15.0 19.75 15.55 19.35 19.45 23.25 20.1 22.7 20.9 22.15 20.4 22.65 19.05 23.85 21.9 26.6 26.3 21.65 26.15 21.55 25.75 21.1 25.15 20.55 24.6 20.05 23.75 19.3 23.65 19.45 M11.0 4.3 L10.65 4.2 8.9 3.25 5.65 1.9 4.0 1.75 Q2.5 2.05 1.6 3.5 L1.25 4.6 Q0.65 6.55 2.4 7.85 L3.3 8.35 11.95 5.9 12.0 5.85 12.35 5.45 Q12.6 5.2 12.35 5.05 L11.95 4.75 11.0 4.3 M13.05 8.0 L12.25 8.2 12.55 9.1 12.95 9.1 Q13.45 8.75 13.4 8.45 L13.3 8.15 13.05 8.0 M17.0 12.1 L16.5 11.55 15.85 12.2 15.3 11.95 Q14.75 11.75 14.95 11.15 L15.05 10.9 15.2 10.65 15.65 10.5 13.75 8.45 13.45 9.25 13.25 9.35 Q12.65 9.7 12.15 9.1 L12.0 8.85 Q11.8 8.15 12.55 7.65 L12.3 7.25 12.25 7.15 12.2 7.15 11.75 6.5 11.7 6.45 7.9 7.5 6.0 8.0 4.0 8.45 13.75 18.45 15.0 17.3 15.65 16.65 13.75 14.4 14.6 13.6 16.8 15.65 18.15 14.35 18.45 14.05 18.55 13.95 17.7 12.85 17.0 12.1 M6.85 8.6 L7.5 9.45 6.95 10.15 6.7 10.15 6.3 10.05 5.95 9.9 5.8 8.95 6.85 8.6 M9.35 11.4 Q9.65 11.4 9.9 11.65 L10.1 12.15 9.8 12.65 8.95 12.9 Q8.25 12.65 8.35 11.9 L8.85 11.65 8.75 12.3 9.5 12.65 9.85 12.1 9.7 11.65 9.3 11.45 9.35 11.4 M11.9 14.05 L12.55 14.35 12.8 15.0 12.55 15.55 11.55 15.45 11.3 14.55 11.9 14.05 M10.6 8.7 L10.35 9.35 9.65 9.6 9.0 9.35 Q8.7 9.05 8.7 8.7 8.7 8.35 9.0 8.1 9.25 7.8 9.65 7.8 L10.35 8.1 10.6 8.7 M12.25 10.35 Q12.6 10.35 12.9 10.65 L13.15 11.25 12.9 11.9 12.25 12.15 11.65 11.9 11.35 11.25 Q11.35 10.9 11.65 10.65 11.9 10.35 12.25 10.35 M12.85 11.2 L12.85 11.1 12.75 10.8 12.4 10.65 12.3 10.65 12.2 10.65 11.75 10.85 11.55 11.3 11.75 11.75 12.2 11.95 12.65 11.75 12.85 11.3 12.85 11.2 M15.7 10.85 Q14.85 10.75 15.15 11.7 L15.3 11.9 Q15.95 12.15 16.1 11.6 L16.15 11.3 15.7 10.85 M4.75 9.75 L5.35 10.05 4.5 9.25 4.75 9.75 M10.0 8.2 L9.1 8.45 9.15 8.85 Q9.2 9.35 9.7 9.35 L9.95 9.2 Q10.4 8.85 10.2 8.3 L10.0 8.2 M6.5 8.75 Q6.25 8.75 6.1 8.9 5.95 9.05 5.95 9.3 L6.1 9.7 6.5 9.85 6.9 9.7 7.05 9.3 6.9 8.9 Q6.75 8.75 6.5 8.75 M8.05 12.95 L7.25 12.05 7.95 12.9 8.05 12.95 M12.05 14.25 L11.65 14.4 11.5 14.8 11.65 15.2 12.05 15.35 12.45 15.2 12.6 14.8 12.45 14.4 Q12.3 14.25 12.05 14.25 M10.55 15.5 L9.75 14.65 10.4 15.45 10.55 15.5 M19.3 23.4 L15.55 19.45 15.05 19.85 19.15 23.55 19.3 23.4 M23.35 25.5 L22.25 26.8 22.25 26.95 23.45 25.8 26.55 22.3 23.35 25.5" fill="#000000" fill-rule="evenodd" stroke="none"/>
    <path d="M25.55 13.2 L25.45 13.5 25.15 13.6 24.9 13.5 24.75 13.2 24.9 12.95 Q25.0 12.8 25.15 12.8 L25.45 12.95 25.55 13.2 M21.45 17.6 L18.55 15.3 18.35 14.7 18.9 14.1 19.65 14.85 20.2 15.75 21.6 17.5 21.45 17.6 M23.3 19.55 L21.55 17.7 21.7 17.6 23.5 19.3 23.3 19.55 M23.4 19.7 L23.65 19.45 24.6 20.05 25.15 20.55 25.6 21.05 25.75 21.1 26.15 21.55 Q26.15 22.05 25.75 21.9 25.0 21.5 24.45 20.85 L23.4 19.7 M11.0 4.3 L11.95 4.75 10.95 4.95 10.3 5.25 Q8.1 6.25 5.7 6.2 L11.0 4.3 M13.4 8.45 L13.2 8.7 Q12.35 8.45 13.05 8.0 L13.3 8.15 13.4 8.45 M13.45 9.25 L14.9 10.85 Q14.25 10.85 13.9 10.35 L13.25 9.35 13.45 9.25 M12.3 7.25 Q12.45 7.85 11.9 8.1 L11.6 8.1 Q10.55 7.75 11.05 6.8 L11.35 6.65 12.2 7.15 12.25 7.15 12.3 7.25 M18.15 14.35 L17.95 14.3 16.15 12.35 16.3 12.1 17.0 12.1 17.7 12.85 18.45 14.05 18.15 14.35 M12.3 10.65 L12.4 10.65 12.75 10.8 12.85 11.1 12.85 11.2 12.75 11.45 12.4 11.55 12.1 11.45 11.95 11.1 12.1 10.8 12.3 10.65 M16.15 11.3 Q15.45 11.85 15.6 11.1 L15.7 10.85 16.15 11.3 M6.35 2.2 L7.05 2.7 7.7 3.35 6.95 3.7 3.65 2.15 6.35 2.2 M10.2 8.3 L10.05 8.85 Q9.1 8.6 10.0 8.2 L10.2 8.3" fill="#d7d6fe" fill-rule="evenodd" stroke="none"/>
    <path d="M25.9 13.65 Q25.85 14.45 25.05 14.15 L24.75 13.95 24.55 13.25 24.5 13.2 25.2 13.95 25.9 13.65 M29.15 24.55 L28.95 23.95 29.15 24.15 29.15 24.55 M27.7 19.65 L27.45 20.25 26.9 19.65 26.5 18.8 Q27.05 17.0 26.3 15.4 L25.9 14.1 26.1 14.25 Q27.45 16.5 26.75 19.1 L27.15 19.5 27.7 19.65 M18.35 14.7 L16.7 16.15 14.75 14.55 14.3 14.05 16.75 15.75 18.9 14.1 18.35 14.7 M22.5 22.6 L22.55 22.2 22.65 22.45 22.5 22.6 M27.15 20.8 L25.9 19.45 25.05 19.55 26.1 19.2 27.2 20.55 27.15 20.8 M22.5 22.85 L22.6 23.15 22.45 23.6 22.5 22.85 M20.1 22.7 L19.45 23.25 15.55 19.35 15.0 19.75 13.9 18.6 15.1 17.4 20.1 22.7 M14.3 14.85 L14.0 14.35 14.1 14.3 14.5 14.7 14.3 14.85 M26.3 21.65 L21.9 26.6 19.05 23.85 20.4 22.65 22.9 25.1 26.3 21.65 M12.35 5.05 Q12.6 5.2 12.35 5.45 L12.0 5.85 11.95 5.85 11.95 5.9 3.3 8.35 2.4 7.85 Q0.65 6.55 1.25 4.6 L1.6 3.5 1.9 5.1 Q2.25 6.45 3.55 7.1 L3.95 7.1 7.1 6.25 12.35 5.05 M8.9 3.25 L10.65 4.2 9.15 4.35 8.55 4.65 7.65 4.1 Q7.75 3.65 8.75 3.75 L8.9 3.25 M11.05 6.8 L6.85 8.6 5.8 8.95 5.95 9.9 6.3 10.05 6.7 10.15 6.95 10.15 7.5 9.45 9.35 11.4 9.3 11.45 9.7 11.65 9.85 12.1 9.5 12.65 8.75 12.3 8.85 11.65 8.35 11.9 Q8.25 12.65 8.95 12.9 L9.8 12.65 10.1 12.15 11.9 14.05 11.3 14.55 11.55 15.45 12.55 15.55 12.8 15.0 15.0 17.3 13.75 18.45 4.0 8.45 6.0 8.0 7.9 7.5 11.7 6.45 11.75 6.5 11.35 6.65 11.05 6.8 M7.05 4.05 L8.2 4.65 7.55 4.45 7.05 4.05 M4.75 9.75 L4.5 9.25 5.35 10.05 4.75 9.75 M6.5 8.75 Q6.75 8.75 6.9 8.9 L7.05 9.3 6.9 9.7 6.5 9.85 6.1 9.7 5.95 9.3 Q5.95 9.05 6.1 8.9 6.25 8.75 6.5 8.75 M8.05 12.95 L7.95 12.9 7.25 12.05 8.05 12.95 M12.05 14.25 Q12.3 14.25 12.45 14.4 L12.6 14.8 12.45 15.2 12.05 15.35 11.65 15.2 11.5 14.8 11.65 14.4 12.05 14.25 M10.55 15.5 L10.4 15.45 9.75 14.65 10.55 15.5 M19.3 23.4 L19.15 23.55 15.05 19.85 15.55 19.45 19.3 23.4 M23.35 25.5 L23.45 25.8 22.25 26.95 22.25 26.8 23.35 25.5" fill="#522bbb" fill-rule="evenodd" stroke="none"/>
    <path d="M23.65 26.2 L27.6 22.45 27.75 22.5 28.45 23.45 28.55 23.7 27.55 23.15 Q28.0 24.7 29.0 25.85 L29.15 26.0 29.15 26.8 Q28.25 25.75 27.1 25.05 L26.2 24.4 24.0 26.5 23.65 26.2 M28.95 23.95 L28.95 23.55 29.15 23.45 29.15 24.15 28.95 23.95" fill="#ffffff" fill-rule="evenodd" stroke="none"/>
    <path d="M23.4 29.15 L22.4 27.95 22.2 27.6 23.65 26.2 24.0 26.5 26.2 24.4 27.1 25.05 Q28.25 25.75 29.15 26.8 L29.15 28.9 23.4 29.15 M28.55 23.7 L29.15 25.1 29.15 26.0 29.0 25.85 Q28.0 24.7 27.55 23.15 L28.55 23.7" fill="#c4bcfe" fill-rule="evenodd" stroke="none"/>
  </g>
</svg>
