<?xml version="1.0" encoding="UTF-8" standalone="no"?>
<svg xmlns:ffdec="https://www.free-decompiler.com/flash" xmlns:xlink="http://www.w3.org/1999/xlink" ffdec:objectType="shape" height="28.15px" width="27.95px" xmlns="http://www.w3.org/2000/svg">
  <g transform="matrix(1.0, 0.0, 0.0, 1.0, -0.8, -0.95)">
    <path d="M17.35 15.95 L20.4 18.45 Q20.7 18.3 20.95 18.1 L20.95 18.8 21.4 19.1 21.55 19.2 21.65 19.1 22.3 19.05 22.05 19.55 22.5 19.1 22.65 19.35 23.15 19.85 23.3 20.05 23.35 19.8 23.6 20.0 24.1 20.3 24.1 20.45 Q24.55 20.85 24.25 20.25 L24.45 20.35 Q24.65 20.5 24.5 20.75 L24.75 20.9 24.8 20.9 25.15 21.3 25.2 21.4 25.3 21.1 25.5 21.1 Q25.85 21.25 26.0 21.75 L25.55 21.9 24.4 21.35 24.3 20.9 Q23.25 20.6 23.2 20.35 22.6 20.25 22.15 21.15 L22.5 20.1 22.35 20.7 22.6 20.0 22.55 20.0 22.2 19.95 21.45 19.45 20.15 18.6 20.05 18.75 20.05 18.85 19.95 19.05 19.7 18.95 19.6 18.85 17.35 15.95 M21.5 18.85 L21.6 18.8 21.6 18.9 21.5 18.85 M23.05 20.8 Q23.95 21.05 23.15 20.95 L23.05 20.8 M21.3 20.5 L21.05 20.6 20.7 20.5 21.2 19.55 21.1 20.25 21.45 19.45 21.3 20.5 M21.3 22.15 Q20.8 21.85 21.6 21.25 L21.55 21.85 21.3 22.15 M22.15 21.95 L22.45 21.65 22.2 22.35 22.65 22.0 22.0 22.7 22.15 21.95 M24.65 23.1 Q25.45 22.25 24.8 23.2 L24.65 23.1 M23.4 22.55 L23.3 22.7 Q22.85 22.45 23.4 22.55 M23.75 22.15 L23.65 22.1 Q23.35 21.75 23.8 21.3 L23.7 21.75 23.85 21.8 23.75 22.15 M23.05 23.5 L23.55 23.0 23.25 23.65 23.8 23.2 23.45 23.85 23.05 23.5 M24.55 24.65 L24.4 24.8 24.25 24.7 Q24.0 24.35 24.25 24.1 L24.2 24.5 Q24.95 23.7 24.55 24.65 M27.05 22.8 L26.8 23.15 27.35 22.9 27.75 23.7 27.7 23.9 Q27.95 24.3 27.95 23.6 L28.05 23.85 28.1 24.55 27.85 24.65 Q27.55 24.9 28.1 24.6 L28.3 24.75 Q29.15 24.75 28.4 25.35 L28.5 25.2 28.35 25.35 28.5 25.5 28.4 25.8 Q28.5 26.4 28.6 25.45 L28.75 25.85 28.05 27.6 Q27.25 28.85 25.8 29.1 L21.8 28.6 20.05 26.9 19.3 26.85 Q15.9 23.25 13.3 19.35 10.5 15.15 8.25 10.75 L9.0 11.8 9.0 11.85 11.35 15.7 Q13.55 19.35 16.2 22.7 19.25 26.55 23.65 28.4 26.4 29.6 27.9 27.2 L27.9 26.1 28.2 25.7 27.8 25.25 27.55 25.2 27.45 25.2 27.4 25.05 27.4 24.95 27.7 24.6 Q27.25 23.45 26.8 23.15 L26.25 23.05 26.0 23.1 26.05 23.05 26.35 22.85 26.2 22.6 25.95 22.3 25.6 22.4 25.6 22.05 Q25.7 22.15 26.05 22.25 L26.05 21.95 26.2 22.15 27.05 22.8 M25.8 23.05 L25.75 23.0 Q26.25 22.55 25.8 23.05 M25.75 23.65 Q26.25 24.05 25.65 23.9 L25.75 23.65 M9.05 5.85 L9.1 6.05 9.1 6.1 8.9 6.15 8.7 6.25 8.35 6.9 10.9 9.4 11.3 9.85 8.4 7.1 8.2 7.9 7.65 7.75 6.6 8.5 7.55 9.8 6.55 8.9 5.95 9.25 5.7 8.8 5.2 8.8 4.75 9.55 4.4 8.75 3.7 8.5 Q3.45 8.65 3.15 8.75 L3.25 8.1 2.55 7.4 1.8 7.55 2.2 7.0 1.7 6.15 0.8 5.65 1.7 5.25 1.75 4.35 1.1 3.9 1.3 3.85 1.75 4.1 2.3 4.3 1.75 3.8 1.35 3.8 1.85 3.55 2.0 3.0 2.15 3.1 2.25 2.8 1.85 2.25 2.15 1.9 2.45 2.15 2.65 2.95 2.65 2.4 2.85 2.55 3.25 2.25 3.4 1.75 3.45 1.85 3.55 1.6 3.7 1.8 Q3.9 2.2 3.75 1.3 L3.7 1.45 3.7 1.3 3.8 1.2 3.9 1.25 4.0 1.35 4.25 1.75 5.4 1.6 5.95 0.95 5.85 1.7 6.65 2.05 6.95 1.6 6.65 2.55 7.0 1.75 6.95 1.6 7.1 1.8 7.1 2.25 7.65 2.7 7.5 2.6 7.05 2.7 Q6.95 2.8 7.0 3.0 L6.5 3.45 6.5 2.3 5.9 2.05 5.8 2.0 5.85 2.05 5.55 2.45 5.8 1.25 5.35 1.9 4.4 2.1 4.35 3.05 4.25 3.2 Q3.85 3.35 3.75 2.3 L3.1 2.8 3.25 3.0 Q3.45 3.45 2.9 3.35 L2.85 3.35 2.9 3.4 2.95 3.55 Q3.55 3.75 3.7 4.1 L3.5 4.2 2.7 3.8 2.65 3.7 2.5 4.2 2.5 4.3 2.8 4.7 3.35 4.75 3.15 4.9 3.05 5.05 3.25 5.0 Q3.4 5.7 2.9 5.25 L2.25 5.25 2.4 5.9 2.5 6.8 3.1 6.7 3.2 6.7 3.25 6.7 3.75 6.8 3.0 7.1 3.4 7.8 3.5 7.65 3.75 7.65 3.8 8.15 4.4 8.45 5.05 8.05 5.05 8.0 5.1 7.8 5.25 8.5 6.0 8.45 5.8 7.8 5.55 7.6 5.55 7.4 Q5.65 7.25 5.85 7.25 L6.1 7.2 6.3 7.8 6.5 8.05 6.5 7.8 6.55 7.6 7.05 7.65 7.3 7.45 7.35 6.75 7.15 6.1 7.35 6.4 Q7.85 6.35 8.05 6.75 L8.05 6.8 8.1 6.8 8.45 6.15 7.7 5.9 7.15 6.0 6.65 5.45 6.8 5.4 7.55 5.65 7.25 5.4 8.5 5.75 9.05 5.85 M3.2 5.85 L3.45 5.85 Q3.3 5.85 3.3 5.95 L3.3 6.25 2.65 6.15 3.2 5.85 M4.05 6.6 L4.3 6.65 Q4.55 6.75 4.35 7.0 L4.1 7.15 4.1 6.6 4.05 6.6 M4.85 7.35 L5.1 6.65 Q5.55 6.6 5.2 6.85 L5.05 7.0 5.0 7.05 Q5.55 6.85 5.3 7.6 L4.85 7.35 M8.85 5.8 L8.25 5.05 Q8.2 5.0 8.3 4.9 8.4 4.45 7.5 4.9 L7.35 4.95 Q7.35 4.45 8.05 4.25 8.6 4.8 9.0 4.05 L9.0 4.15 8.9 4.65 9.25 4.85 9.3 4.8 9.4 5.0 9.05 5.25 8.85 5.8 M8.5 4.1 Q8.15 4.15 8.0 3.8 L7.85 3.4 7.25 3.3 8.05 2.5 Q8.6 2.75 8.25 3.2 L8.45 3.45 Q8.95 3.7 8.5 3.65 L8.25 3.55 8.3 3.7 8.5 4.1 M5.25 2.75 L5.5 2.55 5.4 3.05 4.7 3.35 4.8 2.65 5.3 2.05 5.2 2.8 5.25 2.75 M6.1 2.9 L5.55 2.75 6.05 2.35 6.0 2.45 6.1 2.9 M7.55 3.95 Q7.1 4.65 6.9 3.9 L7.15 3.95 7.55 3.95 M6.2 4.75 L6.35 4.35 6.3 4.8 6.2 4.75 M6.4 6.05 L6.3 6.1 Q5.4 5.05 6.4 6.05 M4.35 3.05 Q4.1 2.45 4.25 3.05 L4.35 3.05 M1.5 5.45 Q2.35 5.75 1.65 5.45 L1.5 5.45 M2.45 4.7 L2.1 4.7 2.25 5.0 2.45 4.7 M4.05 4.1 Q4.45 3.65 4.75 4.45 L4.05 4.1 M3.85 5.4 Q3.95 5.3 4.15 5.3 L4.5 5.4 4.6 5.55 4.5 5.75 4.15 5.8 3.85 5.75 3.7 5.55 3.85 5.4 M4.45 7.45 L4.6 7.55 4.65 7.75 4.6 7.95 4.45 8.05 4.3 7.95 4.25 7.75 4.3 7.55 4.45 7.45 M4.95 8.5 L5.05 8.8 5.05 8.05 4.95 8.5 M7.7 6.95 L7.6 6.95 Q7.9 7.95 7.75 7.05 L7.8 7.0 7.7 6.95 M6.1 8.05 Q6.55 8.65 6.3 8.2 L6.1 8.05 M5.0 6.25 Q5.0 5.15 5.25 5.9 5.8 6.05 5.2 6.4 L5.0 6.25 M26.0 25.0 L26.0 25.25 25.65 25.75 25.45 25.6 Q25.0 24.75 26.0 25.0 25.3 25.3 25.85 25.1 L26.0 25.0 M27.35 25.55 L27.0 26.05 27.25 26.05 26.85 26.3 Q26.0 26.0 27.35 25.55" fill="#790b4a" fill-rule="evenodd" stroke="none"/>
    <path d="M17.35 15.95 L19.6 18.85 19.7 18.95 19.95 19.05 20.05 18.85 20.05 18.75 20.15 18.6 21.45 19.45 22.2 19.95 22.55 20.0 22.6 20.0 22.35 20.7 22.5 20.1 22.15 21.15 Q22.6 20.25 23.2 20.35 23.25 20.6 24.3 20.9 L24.4 21.35 25.55 21.9 26.0 21.75 26.05 21.95 26.05 22.25 Q25.7 22.15 25.6 22.05 L25.6 22.4 25.95 22.3 26.2 22.6 26.35 22.85 26.05 23.05 26.0 23.1 26.25 23.05 26.8 23.15 Q27.25 23.45 27.7 24.6 L27.4 24.95 27.4 25.05 27.45 25.2 27.55 25.2 27.8 25.25 28.2 25.7 27.9 26.1 27.9 27.2 Q26.9 28.0 25.6 27.6 21.5 26.1 18.7 23.05 15.75 19.95 13.3 16.4 L7.95 8.7 8.2 7.9 8.4 7.1 11.3 9.85 15.25 13.75 17.35 15.95 M25.3 21.1 L25.2 21.4 25.15 21.3 25.3 21.1 M24.8 20.9 L24.75 20.9 24.5 20.75 24.8 20.9 M24.25 20.25 Q24.55 20.85 24.1 20.45 L24.1 20.3 24.25 20.25 M23.35 19.8 L23.3 20.05 23.15 19.85 23.35 19.8 M22.5 19.1 L22.05 19.55 22.3 19.05 22.5 19.1 M21.65 19.1 L21.55 19.2 21.4 19.1 21.5 18.85 21.6 18.9 21.65 19.1 M23.05 20.8 L23.15 20.95 Q23.95 21.05 23.05 20.8 M21.3 20.5 L21.45 19.45 21.1 20.25 21.2 19.55 20.7 20.5 21.05 20.6 21.3 20.5 M24.65 23.1 L24.8 23.2 Q25.45 22.25 24.65 23.1 M22.15 21.95 L22.0 22.7 22.65 22.0 22.2 22.35 22.45 21.65 22.15 21.95 M21.3 22.15 L21.55 21.85 21.6 21.25 Q20.8 21.85 21.3 22.15 M23.75 22.15 L23.85 21.8 23.7 21.75 23.8 21.3 Q23.35 21.75 23.65 22.1 L23.75 22.15 M23.4 22.55 Q22.85 22.45 23.3 22.7 L23.4 22.55 M27.35 22.9 L26.8 23.15 27.05 22.8 27.2 22.75 27.35 22.9 M24.55 24.65 Q24.95 23.7 24.2 24.5 L24.25 24.1 Q24.0 24.35 24.25 24.7 L24.4 24.8 24.55 24.65 M23.05 23.5 L23.45 23.85 23.8 23.2 23.25 23.65 23.55 23.0 23.05 23.5 M28.6 25.45 Q28.5 26.4 28.4 25.8 L28.5 25.5 28.6 25.45 M28.35 25.35 L28.5 25.2 28.4 25.35 28.35 25.35 M28.1 24.6 Q27.55 24.9 27.85 24.65 L28.1 24.55 28.1 24.6 M27.95 23.6 Q27.95 24.3 27.7 23.9 L27.75 23.7 27.95 23.6 M25.8 23.05 Q26.25 22.55 25.75 23.0 L25.8 23.05 M25.75 23.65 L25.65 23.9 Q26.25 24.05 25.75 23.65 M7.65 2.7 L8.05 2.5 7.25 3.3 7.85 3.4 8.0 3.8 Q8.15 4.15 8.5 4.1 L9.0 4.05 Q8.6 4.8 8.05 4.25 7.35 4.45 7.35 4.95 L7.5 4.9 Q8.4 4.45 8.3 4.9 8.2 5.0 8.25 5.05 L8.85 5.8 9.05 5.85 8.5 5.75 7.25 5.4 7.55 5.65 6.8 5.4 6.65 5.45 7.15 6.0 7.7 5.9 8.45 6.15 8.1 6.8 8.05 6.75 Q7.85 6.35 7.35 6.4 L7.15 6.1 7.35 6.75 7.3 7.45 7.05 7.65 6.55 7.6 6.5 7.8 6.3 7.8 6.1 7.2 5.85 7.25 Q5.65 7.25 5.55 7.4 L5.55 7.6 5.8 7.8 5.3 7.6 Q5.55 6.85 5.0 7.05 L5.05 7.0 5.2 6.85 Q5.55 6.6 5.1 6.65 L4.85 7.35 4.35 7.0 Q4.55 6.75 4.3 6.65 L4.05 6.6 3.95 6.65 3.95 6.7 3.5 6.25 3.55 5.9 3.45 5.85 3.2 5.85 2.9 5.25 Q3.4 5.7 3.25 5.0 L3.05 5.05 3.15 4.9 3.35 4.75 2.8 4.7 2.7 3.8 3.5 4.2 3.7 4.1 Q3.55 3.75 2.95 3.55 L2.9 3.4 2.9 3.35 Q3.45 3.45 3.25 3.0 L3.1 2.8 3.75 2.3 Q3.85 3.35 4.25 3.2 L4.35 3.05 4.4 2.1 5.35 1.9 5.8 1.25 5.55 2.45 5.85 2.05 5.9 2.05 6.5 2.3 6.5 3.45 7.0 3.0 Q6.95 2.8 7.05 2.7 L7.5 2.6 7.65 2.7 M8.5 3.65 L8.3 3.7 8.25 3.55 8.5 3.65 M6.95 1.6 L7.0 1.75 6.65 2.55 6.95 1.6 M6.1 2.9 L6.0 2.45 6.05 2.35 5.55 2.75 6.1 2.9 M5.25 2.75 L5.2 2.8 5.3 2.05 4.8 2.65 4.7 3.35 5.4 3.05 5.5 2.55 5.25 2.75 M3.7 1.45 L3.75 1.3 Q3.9 2.2 3.7 1.8 L3.7 1.45 M3.55 1.6 L3.45 1.85 3.4 1.75 3.55 1.6 M2.65 2.4 L2.65 2.95 2.45 2.15 2.65 2.4 M2.25 2.8 L2.15 3.1 2.0 3.0 2.25 2.8 M6.4 6.05 Q5.4 5.05 6.3 6.1 L6.4 6.05 M6.2 4.75 L6.3 4.8 6.35 4.35 6.2 4.75 M7.55 3.95 L7.15 3.95 6.9 3.9 Q7.1 4.65 7.55 3.95 M8.9 4.65 L9.3 4.8 9.25 4.85 8.9 4.65 M4.35 3.05 L4.25 3.05 Q4.1 2.45 4.35 3.05 M4.05 4.1 L4.75 4.45 Q4.45 3.65 4.05 4.1 M3.85 5.4 L3.7 5.55 3.85 5.75 4.15 5.8 4.5 5.75 4.6 5.55 4.5 5.4 4.15 5.3 Q3.95 5.3 3.85 5.4 M7.75 7.05 Q7.9 7.95 7.6 6.95 L7.7 6.95 7.75 7.05 M5.0 6.25 L5.2 6.4 Q5.8 6.05 5.25 5.9 5.0 5.15 5.0 6.25 M27.35 25.55 Q26.0 26.0 26.85 26.3 L27.25 26.05 27.0 26.05 27.35 25.55 M26.0 25.0 L25.85 25.1 Q25.3 25.3 26.0 25.0 25.0 24.75 25.45 25.6 L25.65 25.75 26.0 25.25 26.0 25.0" fill="#f2aac0" fill-rule="evenodd" stroke="none"/>
    <path d="M27.9 27.2 Q26.4 29.6 23.65 28.4 19.25 26.55 16.2 22.7 13.55 19.35 11.35 15.7 L9.0 11.85 9.0 11.8 8.25 10.75 7.55 9.8 6.6 8.5 7.65 7.75 8.2 7.9 7.95 8.7 13.3 16.4 Q15.75 19.95 18.7 23.05 21.5 26.1 25.6 27.6 26.9 28.0 27.9 27.2 M2.7 3.8 L2.8 4.7 2.5 4.3 2.5 4.2 2.65 3.7 2.7 3.8 M2.9 5.25 L3.2 5.85 2.65 6.15 3.3 6.25 3.3 5.95 Q3.3 5.85 3.45 5.85 L3.55 5.9 3.5 6.25 3.95 6.7 3.95 6.65 4.05 6.6 4.1 6.6 4.1 7.15 4.35 7.0 4.85 7.35 5.3 7.6 5.8 7.8 6.0 8.45 5.25 8.5 5.1 7.8 5.05 8.0 5.05 8.05 4.4 8.45 3.8 8.15 3.75 7.65 3.5 7.65 3.4 7.8 3.0 7.1 3.75 6.8 3.25 6.7 3.2 6.7 3.1 6.7 2.5 6.8 2.4 5.9 2.25 5.25 2.9 5.25 M6.3 7.8 L6.5 7.8 6.5 8.05 6.3 7.8 M8.05 6.75 L8.1 6.8 8.05 6.8 8.05 6.75 M1.35 3.8 L1.75 3.8 2.3 4.3 1.75 4.1 1.3 3.85 1.25 3.8 1.35 3.8 M2.45 4.7 L2.25 5.0 2.1 4.7 2.45 4.7 M1.5 5.45 L1.65 5.45 Q2.35 5.75 1.5 5.45 M4.45 7.45 L4.3 7.55 4.25 7.75 4.3 7.95 4.45 8.05 4.6 7.95 4.65 7.75 4.6 7.55 4.45 7.45 M4.95 8.5 L5.05 8.05 5.05 8.8 4.95 8.5 M7.7 6.95 L7.8 7.0 7.75 7.05 7.7 6.95 M6.1 8.05 L6.3 8.2 Q6.55 8.65 6.1 8.05" fill="#cd6d92" fill-rule="evenodd" stroke="none"/>
  </g>
</svg>
