<?xml version="1.0" encoding="UTF-8" standalone="no"?>
<svg xmlns:ffdec="https://www.free-decompiler.com/flash" xmlns:xlink="http://www.w3.org/1999/xlink" ffdec:objectType="shape" height="28.15px" width="28.05px" xmlns="http://www.w3.org/2000/svg">
  <g transform="matrix(1.0, 0.0, 0.0, 1.0, -1.0, -1.05)">
    <path d="M24.25 13.55 L24.45 13.45 24.65 13.65 24.25 13.55 M29.05 23.3 L29.05 24.8 27.55 23.5 29.05 24.9 29.05 28.85 28.65 29.2 27.8 29.2 24.35 26.35 26.85 22.9 27.4 23.15 28.2 22.65 29.05 23.3 M19.55 16.2 L19.6 16.2 19.8 16.6 19.75 16.6 Q19.45 16.6 19.25 16.4 L19.0 15.95 19.55 16.2 M20.9 17.5 L21.0 17.6 21.0 17.65 20.9 17.9 20.35 17.4 20.5 17.2 20.9 17.5 M24.1 14.25 Q26.65 16.0 26.55 19.15 L26.5 20.05 26.4 20.05 25.65 17.5 25.0 15.85 24.1 14.25 M20.25 18.45 L20.25 18.5 Q19.7 18.85 19.7 18.15 L19.75 17.95 19.85 18.05 20.2 18.4 20.25 18.45 M17.0 15.45 L17.15 15.6 17.5 15.9 17.2 16.0 Q16.6 16.0 16.95 15.5 L17.0 15.45 M22.75 20.2 L25.5 22.8 25.25 22.9 22.35 20.8 22.75 20.2 M11.0 5.25 L10.95 5.25 Q7.65 6.45 4.8 4.85 L10.45 4.7 11.0 5.15 11.0 5.25 M11.65 6.8 Q11.9 6.8 12.0 6.95 L11.9 7.05 11.65 6.8 M11.1 6.9 Q10.7 7.3 10.45 6.75 L10.5 6.65 11.1 6.9 M10.8 7.85 L10.45 7.75 11.0 7.7 Q11.05 7.5 11.15 7.7 L10.9 7.85 10.8 7.85 M10.6 8.25 L11.25 8.5 Q11.15 8.75 10.85 8.5 L10.6 8.25 M10.95 9.2 L11.35 8.6 Q10.9 7.9 11.3 8.05 L12.05 9.35 Q11.4 9.5 11.9 9.95 L12.1 10.0 Q12.7 10.0 12.85 10.55 L12.4 10.9 12.3 11.0 12.2 11.0 11.8 10.9 10.95 9.2 M12.45 8.35 L12.35 8.3 12.15 8.05 12.45 8.35 M12.5 9.8 L12.3 9.75 12.25 9.65 12.2 9.55 Q12.4 9.6 12.55 9.75 L12.5 9.8 M12.3 11.25 L12.6 11.15 12.95 11.05 13.2 11.05 13.35 11.15 13.45 11.25 13.4 11.35 13.0 11.55 12.8 11.55 12.3 11.4 12.3 11.25 M12.55 12.2 L12.6 11.85 13.1 11.7 13.45 11.6 13.55 11.55 13.7 11.65 13.7 11.75 13.4 12.05 12.85 12.2 12.55 12.2 M14.05 12.1 L14.2 12.25 14.15 12.5 13.65 12.8 13.35 12.95 13.3 12.65 13.5 12.4 14.05 12.1 M14.1 12.75 L14.7 12.75 13.95 13.35 13.75 13.2 14.05 12.8 14.1 12.75 M14.65 13.4 L15.15 13.2 15.15 13.25 15.15 13.5 14.85 13.8 14.4 14.05 14.65 13.4 M15.55 13.65 L15.65 13.75 14.8 14.5 15.55 13.65 M2.75 1.85 Q2.75 1.25 3.45 1.45 4.55 1.5 5.3 2.2 L4.85 2.5 Q3.8 2.45 2.75 1.85 M18.3 15.4 L18.15 15.45 17.5 14.85 17.55 14.75 18.3 15.4 M15.65 14.95 L15.5 14.85 Q15.45 14.7 15.55 14.5 15.9 13.95 16.0 14.5 L15.9 14.7 15.65 14.95 M17.9 18.1 Q17.4 18.85 17.25 17.95 L17.3 17.7 17.9 18.1 M15.15 17.9 L15.15 18.35 14.8 18.35 14.8 17.9 15.15 17.9 M17.8 20.75 L17.55 20.3 18.05 20.3 17.8 20.75" fill="#ffffff" fill-rule="evenodd" stroke="none"/>
    <path d="M24.65 13.65 L24.45 13.45 24.25 13.55 24.3 13.95 24.4 14.3 24.55 14.2 24.65 13.65 M23.15 16.7 L22.95 16.15 22.2 16.1 21.75 15.4 21.2 14.95 22.5 14.7 22.55 13.35 22.25 12.65 23.75 13.85 24.3 13.15 24.4 12.35 24.6 13.2 25.05 13.6 24.85 14.5 Q26.7 16.45 26.9 19.0 27.0 20.7 25.75 21.8 L26.25 22.7 26.65 22.45 27.2 22.85 28.25 22.35 29.05 23.3 28.2 22.65 27.4 23.15 26.85 22.9 22.0 28.25 23.15 29.2 22.7 29.2 21.75 28.3 21.75 27.8 Q19.5 25.3 16.95 23.1 L16.0 22.9 15.5 21.9 14.8 21.6 14.15 20.6 Q12.75 20.75 12.65 19.25 L9.9 16.0 12.5 18.25 13.5 17.45 16.25 14.4 15.65 13.75 15.55 13.65 12.15 16.25 11.3 16.9 12.1 16.2 14.85 13.8 15.15 13.5 15.25 13.4 15.2 13.2 15.15 13.2 14.65 13.4 13.85 14.05 11.45 15.45 10.5 16.05 11.45 15.35 13.95 13.35 14.7 12.75 14.1 12.75 13.75 12.95 11.7 14.15 10.75 14.75 9.65 15.2 10.7 14.55 13.65 12.8 14.15 12.5 14.2 12.25 14.05 12.1 10.1 13.8 8.75 14.25 10.0 13.7 12.85 12.2 13.4 12.05 13.7 11.75 13.75 11.7 13.7 11.65 13.55 11.55 13.4 11.6 13.1 11.7 12.6 11.85 10.45 12.55 9.6 12.75 8.05 13.2 9.55 12.7 13.0 11.55 13.4 11.35 13.45 11.3 13.45 11.25 13.35 11.15 13.2 11.05 12.95 11.05 12.6 11.15 9.2 11.9 7.5 12.25 Q7.05 12.4 7.1 12.75 L5.55 10.9 5.4 10.15 3.75 9.55 4.6 8.8 2.9 7.75 Q3.35 7.55 3.75 7.3 1.45 5.8 1.05 3.15 0.85 1.85 2.0 1.1 L2.05 1.05 3.15 1.25 3.75 1.4 2.5 1.4 1.55 2.0 1.4 3.2 Q1.45 4.75 2.7 5.9 3.65 6.8 4.8 6.7 L10.85 6.25 11.0 5.25 11.0 5.15 10.45 4.7 6.9 2.85 5.15 1.85 6.4 2.3 Q9.2 3.35 11.25 5.05 L11.6 5.45 11.45 6.25 12.45 6.75 11.55 7.55 12.95 8.1 12.25 9.05 12.65 9.8 Q14.15 12.5 16.65 14.25 L17.7 14.75 18.55 15.3 18.65 15.8 19.4 15.85 19.55 16.2 19.0 15.95 18.65 16.1 19.5 16.95 19.75 16.6 19.95 17.0 20.65 17.2 20.9 17.5 20.5 17.2 20.2 17.25 20.35 17.4 20.9 17.9 21.0 17.9 21.05 17.7 22.65 19.8 23.25 19.95 23.45 19.05 23.6 20.1 25.35 21.4 25.95 21.35 26.5 20.55 26.5 20.05 26.55 19.15 Q26.65 16.0 24.1 14.25 L22.75 13.55 23.15 16.7 M29.05 24.8 L29.05 24.9 27.55 23.5 29.05 24.8 M9.7 15.8 L9.3 15.35 9.4 15.4 9.7 15.8 M22.45 15.3 L22.3 15.2 22.15 15.3 22.1 15.45 22.15 15.65 22.3 15.7 22.45 15.65 22.5 15.45 22.45 15.3 M19.65 17.95 L19.4 17.9 19.0 18.1 19.45 19.15 20.25 18.75 20.25 18.55 20.35 18.95 20.0 19.3 19.85 19.35 19.1 19.1 Q18.8 18.85 18.8 18.5 L18.75 18.15 19.1 17.8 19.65 17.95 M22.2 19.7 L16.55 14.5 12.8 18.7 14.5 20.1 15.15 19.6 15.8 19.9 16.25 20.55 15.8 21.5 18.5 23.9 18.55 23.85 19.55 22.8 22.3 19.8 22.2 19.7 M14.15 17.95 L14.55 17.4 Q15.1 17.4 15.5 17.75 15.85 18.05 15.85 18.5 L15.3 19.1 14.4 18.95 14.15 17.95 M16.25 16.3 L16.1 15.75 16.25 15.9 16.45 16.45 16.25 16.3 M16.45 15.4 L16.85 15.45 16.5 15.45 16.45 15.4 M17.15 15.6 L17.35 15.75 Q17.7 16.05 17.7 16.5 L17.65 16.45 17.5 16.1 17.5 15.9 17.15 15.6 M25.95 22.8 L22.75 19.95 19.85 23.2 18.85 24.55 19.0 24.7 21.65 27.05 22.1 27.5 25.95 22.8 M11.9 7.05 L12.0 6.95 Q11.9 6.8 11.65 6.8 L11.45 6.65 11.3 6.9 11.35 7.15 11.35 7.3 11.9 7.05 M10.1 7.25 Q10.7 7.75 11.15 6.95 L11.1 6.9 10.5 6.65 10.3 6.6 10.05 6.8 10.1 7.25 M10.45 7.75 L10.15 7.65 9.7 6.9 8.6 6.65 9.3 7.25 9.05 7.55 8.15 7.75 7.9 7.35 7.85 6.95 7.1 6.8 7.6 7.65 7.1 8.2 6.6 8.05 6.15 7.3 6.45 6.85 4.4 7.05 4.4 7.45 4.5 7.4 5.15 7.15 5.55 7.3 5.85 8.05 4.95 8.2 4.4 7.9 4.85 8.6 10.8 7.85 10.9 7.85 11.15 7.7 Q11.05 7.5 11.0 7.7 L10.45 7.75 M10.6 8.25 Q10.35 8.3 10.2 8.45 L10.15 8.7 10.35 8.95 10.0 8.85 Q10.15 7.7 8.7 8.4 L9.3 9.0 8.75 9.5 Q8.1 9.7 7.9 9.1 L7.8 8.65 7.0 8.65 7.4 9.15 6.85 9.85 5.9 9.4 5.9 9.1 6.05 8.95 5.2 8.85 5.15 8.85 5.2 8.9 5.6 9.55 5.75 10.15 6.1 10.35 Q7.0 10.05 6.85 10.85 L6.7 11.25 7.0 12.2 12.2 11.0 12.3 11.0 12.4 10.9 12.8 10.8 12.85 10.55 Q12.7 10.0 12.1 10.0 L11.9 9.95 Q11.4 9.5 12.05 9.35 L11.3 8.05 Q10.9 7.9 11.35 8.6 L10.95 9.2 10.55 9.05 11.0 8.9 11.25 8.5 10.6 8.25 M12.15 8.05 L11.95 8.0 11.75 8.15 11.85 8.5 12.05 8.45 12.45 8.35 12.15 8.05 M12.5 9.8 L12.55 9.75 Q12.4 9.6 12.2 9.55 L11.9 9.6 12.05 9.9 12.5 9.8 M10.55 10.5 L10.15 10.6 9.75 10.5 9.6 10.15 Q9.6 9.95 9.75 9.85 9.9 9.7 10.15 9.7 10.4 9.7 10.55 9.85 L10.7 10.15 10.55 10.5 M11.3 16.9 L11.25 16.9 11.3 16.9 M5.55 7.7 L5.05 7.35 4.4 7.55 5.25 8.0 5.55 7.85 5.55 7.7 M4.35 8.35 L3.75 7.5 Q3.45 7.8 3.9 8.05 L4.35 8.35 M8.1 7.05 L8.2 7.5 8.45 7.7 Q9.1 7.75 8.65 7.05 8.4 6.7 8.1 7.05 M8.35 9.4 L8.9 9.2 8.85 9.05 Q8.5 8.4 8.05 8.85 L8.35 9.4 M6.8 7.85 Q7.5 7.85 7.1 7.4 L6.8 7.2 6.45 7.2 6.8 7.85 M7.05 9.15 L6.0 9.2 6.4 9.35 6.55 9.4 Q7.0 9.55 7.05 9.15 M5.35 9.6 L5.45 9.4 Q5.3 9.25 5.2 9.25 L4.4 9.4 5.35 9.6 M6.6 10.8 L6.5 10.65 6.15 10.55 5.85 10.65 5.7 10.8 5.85 11.0 6.15 11.05 6.5 11.0 6.6 10.8 M9.85 10.2 L9.85 10.25 9.95 10.35 10.05 10.4 10.3 10.25 Q9.9 9.5 9.85 10.2 M8.15 10.15 L7.95 10.25 8.05 10.65 8.3 10.6 Q8.75 10.15 8.15 10.15 M7.75 9.95 L8.3 9.9 Q8.85 10.1 8.55 10.6 L8.35 10.9 7.95 10.65 7.75 9.95 M18.15 15.45 L18.25 15.55 18.3 15.4 17.55 14.75 17.35 14.7 17.5 14.85 18.15 15.45 M16.6 16.6 L17.25 16.75 17.4 16.85 16.95 16.9 16.6 16.6 M17.8 17.65 L18.15 17.95 18.0 18.85 17.45 19.2 Q17.1 19.2 16.9 18.85 L16.7 17.9 17.1 18.8 Q17.5 19.15 17.8 18.65 L18.05 18.2 17.5 17.55 17.8 17.65 M14.95 17.7 Q14.1 17.5 14.5 18.6 L14.7 18.9 Q15.3 18.9 15.5 18.35 L15.5 17.95 14.95 17.7 M17.35 19.85 Q17.85 19.85 18.2 20.15 L18.45 20.5 18.25 20.35 17.65 20.0 17.25 20.25 16.95 20.45 17.55 21.3 18.2 21.0 18.5 20.8 18.5 20.85 18.0 21.45 Q17.5 21.45 17.15 21.15 16.8 20.85 16.8 20.45 L17.35 19.85 M19.85 18.05 L20.0 18.15 20.2 18.4 19.85 18.05 M11.95 17.65 L12.0 17.65 11.95 17.65 M12.8 17.0 L12.8 16.85 15.75 14.05 12.8 17.0 M15.35 21.1 L15.75 20.65 Q16.0 19.95 15.2 19.95 L14.95 20.05 14.9 20.1 14.6 20.6 15.35 21.1 M13.0 20.1 L13.35 20.45 14.0 20.45 12.95 19.55 13.0 20.1" fill="#000000" fill-rule="evenodd" stroke="none"/>
    <path d="M27.8 29.2 L23.15 29.2 22.0 28.25 26.85 22.9 24.35 26.35 27.8 29.2" fill="#dde0e3" fill-rule="evenodd" stroke="none"/>
    <path d="M9.9 16.0 L9.75 15.9 9.7 15.8 9.4 15.4 9.3 15.35 8.8 14.75 7.65 13.5 7.1 12.75 Q7.05 12.4 7.5 12.25 L7.6 12.75 8.05 13.2 8.75 14.25 9.65 15.2 10.5 16.05 11.3 16.9 11.25 16.9 11.3 16.9 11.95 17.65 12.0 17.65 12.5 18.25 9.9 16.0 M26.5 20.05 L26.5 20.55 25.95 21.35 25.35 20.85 24.95 18.65 24.55 17.1 24.55 19.85 23.05 14.0 24.35 16.65 24.05 15.25 Q24.95 16.7 25.2 18.25 25.4 19.75 25.75 21.1 L26.4 20.05 26.5 20.05 M20.25 18.55 L20.25 18.45 20.2 18.4 20.0 18.15 19.85 18.05 19.75 17.95 19.65 17.95 19.1 17.8 17.7 16.5 Q17.7 16.05 17.35 15.75 L17.15 15.6 17.0 15.45 16.85 15.45 16.45 15.4 Q15.95 15.25 16.05 15.6 L16.1 15.75 16.25 16.3 15.85 15.9 Q15.55 16.0 15.4 16.2 14.9 16.75 14.55 17.4 L14.15 17.95 14.0 17.85 13.2 18.55 14.5 20.1 12.8 18.7 16.55 14.5 22.2 19.7 21.6 20.4 20.35 18.95 20.25 18.55 M19.4 17.9 L19.4 18.3 Q19.65 19.0 20.25 18.75 L19.45 19.15 19.0 18.1 19.4 17.9 M22.75 20.2 L22.35 20.8 25.25 22.9 25.5 22.8 22.75 20.2 M24.9 23.65 L21.95 21.05 20.55 22.65 23.45 25.25 24.9 23.65 M19.85 23.2 L22.75 19.95 25.95 22.8 23.05 26.05 19.85 23.2 M21.65 27.05 L19.0 24.7 21.8 27.1 21.65 27.05 M4.8 4.85 Q7.65 6.45 10.95 5.25 L11.0 5.25 10.85 6.25 4.8 6.7 Q3.65 6.8 2.7 5.9 1.45 4.75 1.4 3.2 L1.55 2.0 2.5 1.4 2.45 2.1 4.8 4.85 M10.15 7.65 L10.45 7.75 10.8 7.85 4.85 8.6 4.4 7.9 4.95 8.2 5.1 8.4 Q6.1 8.55 6.6 8.05 L7.1 8.2 7.6 7.65 7.1 6.8 7.85 6.95 7.9 7.35 8.15 7.75 8.3 8.0 9.9 7.7 10.15 7.65 M12.85 10.55 L12.8 10.8 12.4 10.9 12.85 10.55 M12.2 11.0 L7.0 12.2 6.7 11.25 7.2 12.0 8.7 11.7 8.35 10.9 8.55 10.6 Q8.85 10.1 8.3 9.9 L7.75 9.95 7.4 9.15 7.0 8.65 7.8 8.65 7.9 9.1 Q8.1 9.7 8.75 9.5 L9.85 11.4 11.8 10.9 12.2 11.0 M6.1 10.35 L5.75 10.15 5.6 9.55 6.1 10.35 M5.2 8.9 L5.15 8.85 5.2 8.85 5.2 8.9 M10.15 8.7 L10.15 8.65 10.15 8.7 M10.4 9.05 L10.35 9.0 10.4 9.05 M12.6 11.15 L12.3 11.25 9.6 12.25 12.8 11.55 13.0 11.55 9.55 12.7 9.25 12.65 9.1 12.35 9.2 11.9 12.6 11.15 M13.4 11.35 L13.45 11.25 13.45 11.3 13.4 11.35 M10.45 12.55 L10.05 12.9 12.55 12.2 12.85 12.2 10.0 13.7 Q9.3 13.5 9.5 12.85 L9.6 12.75 10.45 12.55 M13.7 11.75 L13.7 11.65 13.75 11.7 13.7 11.75 M13.55 11.55 L13.45 11.6 13.4 11.6 13.55 11.55 M13.65 12.8 L10.7 14.55 Q10.45 14.55 10.3 14.35 L10.1 13.8 14.05 12.1 13.5 12.4 10.85 13.9 13.35 12.95 13.65 12.8 M10.75 14.75 L11.7 14.15 11.4 14.65 13.95 13.35 11.45 15.35 10.75 14.75 M13.75 12.95 L14.1 12.75 14.05 12.8 13.75 12.95 M11.45 15.45 L13.85 14.05 12.2 15.3 12.3 15.35 14.4 14.05 14.85 13.8 12.1 16.2 Q11.85 16.2 11.65 16.0 L11.45 15.45 M12.15 16.25 L15.55 13.65 14.8 14.5 15.65 13.75 16.25 14.4 13.5 17.45 12.8 17.0 15.75 14.05 12.8 16.85 12.15 16.25 M6.95 6.0 L6.95 5.9 Q3.35 5.6 2.05 2.3 L1.65 2.7 1.8 3.65 Q2.2 5.3 3.8 6.2 L6.95 6.0 M5.25 8.0 L4.9 7.75 5.55 7.7 5.55 7.85 5.25 8.0 M4.4 7.05 L4.5 7.4 4.4 7.45 4.4 7.05 M8.45 7.7 L8.6 7.35 Q8.7 6.8 8.1 7.05 8.4 6.7 8.65 7.05 9.1 7.75 8.45 7.7 M8.35 9.4 Q9.0 9.1 8.2 8.85 L8.05 8.85 Q8.5 8.4 8.85 9.05 L8.9 9.2 8.35 9.4 M6.8 7.2 L7.1 7.4 Q7.5 7.85 6.8 7.85 L6.85 7.55 6.8 7.2 M7.05 9.15 Q7.0 9.55 6.55 9.4 L6.4 9.35 7.05 9.15 M10.05 10.4 L10.1 10.15 Q10.0 9.65 9.85 10.2 9.9 9.5 10.3 10.25 L10.05 10.4 M8.15 10.15 Q8.75 10.15 8.3 10.6 L8.05 10.65 8.15 10.15 M15.55 14.5 L13.45 16.65 15.5 15.1 15.65 14.95 15.9 14.7 16.0 14.5 Q15.9 13.95 15.55 14.5 M16.5 15.45 L16.85 15.45 16.75 15.6 Q16.8 16.5 17.5 16.1 L17.65 16.45 17.25 16.75 16.6 16.6 16.45 16.45 16.25 15.9 16.5 15.45 M17.4 16.85 L18.75 18.15 18.8 18.5 18.15 17.95 17.8 17.65 16.95 16.9 17.4 16.85 M15.5 17.95 L15.5 18.35 Q15.3 18.9 14.7 18.9 L14.5 18.6 Q14.1 17.5 14.95 17.7 L14.7 17.9 Q14.5 18.25 14.8 18.45 15.6 18.9 15.5 17.95 M15.85 18.5 L17.35 19.85 16.8 20.45 15.3 19.1 15.85 18.5 M18.45 20.5 L18.5 20.8 18.2 21.0 17.55 21.3 16.95 20.45 17.25 20.25 17.45 20.9 17.7 21.0 Q18.4 21.0 18.25 20.35 L18.45 20.5 M18.5 20.85 L19.95 22.15 21.3 20.7 19.85 19.35 20.0 19.3 21.6 20.4 19.55 22.8 18.0 21.45 18.5 20.85 M17.3 17.7 Q16.55 18.15 17.3 18.6 17.7 18.85 17.85 18.4 L17.9 18.1 17.3 17.7 M16.7 17.9 L17.5 17.55 18.05 18.2 17.8 18.65 Q17.5 19.15 17.1 18.8 L16.7 17.9 M15.35 21.1 L15.4 20.7 15.25 20.25 14.95 20.1 14.9 20.1 14.95 20.05 15.2 19.95 Q16.0 19.95 15.75 20.65 L15.35 21.1 M15.8 21.5 L18.55 23.85 18.5 23.9 15.8 21.5" fill="#9a9f35" fill-rule="evenodd" stroke="none"/>
    <path d="M23.45 19.05 L23.15 16.7 22.75 13.55 23.05 14.0 24.55 19.85 24.55 17.1 24.95 18.65 25.35 20.85 25.95 21.35 25.35 21.4 23.6 20.1 23.45 19.05 M22.45 15.3 L22.5 15.45 22.45 15.65 22.3 15.7 22.15 15.65 22.1 15.45 22.15 15.3 22.3 15.2 22.45 15.3 M21.6 20.4 L22.2 19.7 22.3 19.8 19.55 22.8 18.55 23.85 15.8 21.5 16.25 20.55 15.8 19.9 15.15 19.6 14.5 20.1 13.2 18.55 14.0 17.85 14.15 17.95 14.4 18.95 15.3 19.1 16.8 20.45 Q16.8 20.85 17.15 21.15 17.5 21.45 18.0 21.45 L19.55 22.8 21.6 20.4 M19.85 23.2 L23.05 26.05 25.95 22.8 22.1 27.5 21.65 27.05 21.8 27.1 19.0 24.7 18.85 24.55 19.85 23.2 M11.35 7.15 L11.3 6.9 Q11.75 6.85 11.5 7.15 L11.35 7.15 M10.05 6.8 Q10.5 6.65 10.35 7.05 L10.1 7.25 10.05 6.8 M6.6 8.05 Q6.1 8.55 5.1 8.4 L4.95 8.2 5.85 8.05 5.55 7.3 5.15 7.15 4.5 7.4 4.4 7.05 6.45 6.85 6.15 7.3 6.6 8.05 M6.7 11.25 L6.85 10.85 Q7.0 10.05 6.1 10.35 L5.6 9.55 5.2 8.9 5.2 8.85 6.05 8.95 5.9 9.1 5.9 9.4 6.85 9.85 7.4 9.15 7.75 9.95 7.95 10.65 8.35 10.9 8.7 11.7 7.2 12.0 6.7 11.25 M10.35 8.95 L10.15 8.7 10.15 8.65 10.8 8.6 10.45 9.0 10.4 9.05 10.35 9.0 10.35 8.95 M11.75 8.15 L12.0 8.35 11.85 8.5 11.75 8.15 M12.25 9.65 L12.3 9.75 Q12.15 9.8 12.05 9.9 L11.9 9.6 12.25 9.65 M9.2 11.9 L9.1 12.35 9.25 12.65 9.55 12.7 8.05 13.2 7.6 12.75 7.5 12.25 9.2 11.9 M10.7 14.55 L9.65 15.2 10.75 14.75 11.45 15.35 10.5 16.05 11.45 15.45 11.65 16.0 Q11.85 16.2 12.1 16.2 L11.3 16.9 12.15 16.25 12.8 16.85 12.8 17.0 13.5 17.45 12.5 18.25 12.0 17.65 11.95 17.65 11.3 16.9 10.5 16.05 9.65 15.2 8.75 14.25 8.05 13.2 9.6 12.75 9.5 12.85 Q9.3 13.5 10.0 13.7 L8.75 14.25 10.1 13.8 10.3 14.35 Q10.45 14.55 10.7 14.55 M6.95 6.0 L3.8 6.2 Q2.2 5.3 1.8 3.65 L1.65 2.7 2.05 2.3 Q3.35 5.6 6.95 5.9 L6.95 6.0 M5.25 8.0 L4.4 7.55 5.05 7.35 5.55 7.7 4.9 7.75 5.25 8.0 M4.35 8.35 L3.9 8.05 Q3.45 7.8 3.75 7.5 L4.35 8.35 M8.45 7.7 L8.2 7.5 8.1 7.05 Q8.7 6.8 8.6 7.35 L8.45 7.7 M8.05 8.85 L8.2 8.85 Q9.0 9.1 8.35 9.4 L8.05 8.85 M6.8 7.2 L6.85 7.55 6.8 7.85 6.45 7.2 6.8 7.2 M6.4 9.35 L6.0 9.2 7.05 9.15 6.4 9.35 M6.6 10.8 L6.5 11.0 6.15 11.05 5.85 11.0 5.7 10.8 5.85 10.65 6.15 10.55 6.5 10.65 6.6 10.8 M5.35 9.6 L4.4 9.4 5.2 9.25 Q5.3 9.25 5.45 9.4 L5.35 9.6 M10.05 10.4 L9.95 10.35 9.85 10.25 9.85 10.2 Q10.0 9.65 10.1 10.15 L10.05 10.4 M8.05 10.65 L7.95 10.25 8.15 10.15 8.05 10.65 M14.9 20.1 L14.95 20.1 15.25 20.25 15.4 20.7 15.35 21.1 14.6 20.6 14.9 20.1 M13.0 20.1 L12.95 19.55 14.0 20.45 13.35 20.45 13.0 20.1" fill="#353612" fill-rule="evenodd" stroke="none"/>
    <path d="M24.25 13.55 L24.65 13.65 24.55 14.2 24.4 14.3 24.3 13.95 24.25 13.55 M3.75 1.4 L4.9 1.7 5.15 1.85 6.9 2.85 10.45 4.7 4.8 4.85 2.45 2.1 2.5 1.4 3.75 1.4 M19.8 16.6 L19.75 16.6 19.8 16.6 M21.0 17.6 L21.05 17.7 21.0 17.9 20.9 17.9 21.0 17.65 21.0 17.6 M22.75 13.55 L24.1 14.25 25.0 15.85 25.65 17.5 26.4 20.05 25.75 21.1 Q25.4 19.75 25.2 18.25 24.95 16.7 24.05 15.25 L24.35 16.65 23.05 14.0 22.75 13.55 M20.5 17.2 L20.35 17.4 20.2 17.25 20.5 17.2 M20.25 18.45 L20.25 18.55 20.25 18.75 Q19.65 19.0 19.4 18.3 L19.4 17.9 19.65 17.95 19.75 17.95 19.7 18.15 Q19.7 18.85 20.25 18.5 L20.25 18.45 M20.35 18.95 L21.6 20.4 20.0 19.3 20.35 18.95 M14.55 17.4 Q14.9 16.75 15.4 16.2 15.55 16.0 15.85 15.9 L16.25 16.3 16.45 16.45 16.6 16.6 16.95 16.9 17.8 17.65 17.5 17.55 16.7 17.9 16.9 18.85 Q17.1 19.2 17.45 19.2 L18.0 18.85 18.15 17.95 18.8 18.5 Q18.8 18.85 19.1 19.1 L19.85 19.35 21.3 20.7 19.95 22.15 18.5 20.85 18.5 20.8 18.45 20.5 18.2 20.15 Q17.85 19.85 17.35 19.85 L15.85 18.5 Q15.85 18.05 15.5 17.75 15.1 17.4 14.55 17.4 M16.1 15.75 L16.05 15.6 Q15.95 15.25 16.45 15.4 L16.5 15.45 16.25 15.9 16.1 15.75 M16.85 15.45 L17.0 15.45 16.95 15.5 Q16.6 16.0 17.2 16.0 L17.5 15.9 17.5 16.1 Q16.8 16.5 16.75 15.6 L16.85 15.45 M17.7 16.5 L19.1 17.8 18.75 18.15 17.4 16.85 17.25 16.75 17.65 16.45 17.7 16.5 M24.9 23.65 L23.45 25.25 20.55 22.65 21.95 21.05 24.9 23.65 M11.9 7.05 L11.35 7.3 11.35 7.15 11.5 7.15 Q11.75 6.85 11.3 6.9 L11.45 6.65 11.65 6.8 11.9 7.05 M11.1 6.9 L11.15 6.95 Q10.7 7.75 10.1 7.25 L10.35 7.05 Q10.5 6.65 10.05 6.8 L10.3 6.6 10.5 6.65 10.45 6.75 Q10.7 7.3 11.1 6.9 M10.15 7.65 L9.9 7.7 8.3 8.0 8.15 7.75 9.05 7.55 9.3 7.25 8.6 6.65 9.7 6.9 10.15 7.65 M10.15 8.7 L10.2 8.45 Q10.35 8.3 10.6 8.25 L10.85 8.5 Q11.15 8.75 11.25 8.5 L11.0 8.9 10.55 9.05 10.95 9.2 11.8 10.9 9.85 11.4 8.75 9.5 9.3 9.0 8.7 8.4 Q10.15 7.7 10.0 8.85 L10.35 8.95 10.35 9.0 10.4 9.05 10.45 9.0 10.8 8.6 10.15 8.65 10.15 8.7 M12.15 8.05 L12.35 8.3 12.45 8.35 12.05 8.45 11.85 8.5 12.0 8.35 11.75 8.15 11.95 8.0 12.15 8.05 M12.3 9.75 L12.5 9.8 12.05 9.9 Q12.15 9.8 12.3 9.75 M12.2 9.55 L12.25 9.65 11.9 9.6 12.2 9.55 M10.55 10.5 L10.7 10.15 10.55 9.85 Q10.4 9.7 10.15 9.7 9.9 9.7 9.75 9.85 9.6 9.95 9.6 10.15 L9.75 10.5 10.15 10.6 10.55 10.5 M12.3 11.25 L12.3 11.4 12.8 11.55 9.6 12.25 12.3 11.25 M12.6 11.85 L12.55 12.2 10.05 12.9 10.45 12.55 12.6 11.85 M13.45 11.6 L13.1 11.7 13.4 11.6 13.45 11.6 M11.7 14.15 L13.75 12.95 14.05 12.8 13.75 13.2 13.95 13.35 11.4 14.65 11.7 14.15 M13.85 14.05 L14.65 13.4 14.4 14.05 12.3 15.35 12.2 15.3 13.85 14.05 M15.15 13.2 L15.2 13.2 15.25 13.4 15.15 13.5 15.15 13.25 15.15 13.2 M2.75 1.85 Q3.8 2.45 4.85 2.5 L5.3 2.2 Q4.55 1.5 3.45 1.45 2.75 1.25 2.75 1.85 M18.15 15.45 L18.3 15.4 18.25 15.55 18.15 15.45 M17.55 14.75 L17.5 14.85 17.35 14.7 17.55 14.75 M15.55 14.5 Q15.45 14.7 15.5 14.85 L15.65 14.95 15.5 15.1 13.45 16.65 15.55 14.5 M15.5 17.95 Q15.6 18.9 14.8 18.45 14.5 18.25 14.7 17.9 L14.95 17.7 15.5 17.95 M17.3 17.7 L17.25 17.95 Q17.4 18.85 17.9 18.1 L17.85 18.4 Q17.7 18.85 17.3 18.6 16.55 18.15 17.3 17.7 M19.0 15.95 L19.25 16.4 Q19.45 16.6 19.75 16.6 L19.5 16.95 18.65 16.1 19.0 15.95 M13.35 12.95 L10.85 13.9 13.5 12.4 13.3 12.65 13.35 12.95 M15.15 17.9 L14.8 17.9 14.8 18.35 15.15 18.35 15.15 17.9 M17.8 20.75 L18.05 20.3 17.55 20.3 17.8 20.75 M17.25 20.25 L17.65 20.0 18.25 20.35 Q18.4 21.0 17.7 21.0 L17.45 20.9 17.25 20.25" fill="#ffff66" fill-rule="evenodd" stroke="none"/>
  </g>
</svg>
