<?xml version="1.0" encoding="UTF-8" standalone="no"?>
<svg xmlns:ffdec="https://www.free-decompiler.com/flash" xmlns:xlink="http://www.w3.org/1999/xlink" ffdec:objectType="shape" height="28.25px" width="28.15px" xmlns="http://www.w3.org/2000/svg">
  <g transform="matrix(1.0, 0.0, 0.0, 1.0, -1.05, -1.1)">
    <path d="M23.85 19.75 L24.45 19.95 24.5 19.95 24.5 19.5 24.7 19.7 25.95 21.15 25.8 21.9 25.9 22.0 25.95 22.1 26.25 22.3 26.8 22.55 27.55 22.3 27.85 22.35 28.4 22.7 28.55 23.0 28.6 23.3 28.65 23.8 28.75 23.9 29.15 24.35 29.2 24.65 28.1 23.55 28.25 23.2 28.15 22.7 Q27.4 22.35 26.7 23.0 L25.35 24.35 25.15 24.55 24.05 25.8 23.75 26.35 24.0 26.8 24.2 27.0 24.7 26.75 26.05 25.55 28.15 23.75 27.8 24.2 27.65 24.35 26.95 25.05 24.95 27.05 27.25 29.35 26.7 29.35 24.6 27.3 24.4 27.3 23.95 27.05 23.65 26.9 23.5 26.6 Q23.45 26.3 23.55 26.05 L23.85 25.3 23.35 24.6 23.25 24.6 22.55 24.55 Q21.3 24.8 20.4 24.1 L19.45 22.95 18.9 22.05 18.35 22.0 18.1 21.75 17.95 21.4 Q17.6 20.2 16.75 19.25 L16.3 19.1 15.95 18.55 Q16.25 18.8 16.65 18.9 L16.25 15.8 16.5 16.25 16.6 16.45 16.85 17.45 17.05 19.05 17.65 20.1 18.3 21.45 18.5 21.55 18.7 21.7 18.8 21.55 18.9 20.55 18.85 19.95 Q18.65 18.9 18.1 18.0 L24.3 25.0 24.35 24.9 26.35 22.75 26.25 22.7 19.7 17.3 20.05 17.55 Q22.2 19.25 24.5 20.65 L24.6 20.7 25.4 21.15 25.5 21.35 25.45 21.0 Q25.5 20.3 24.3 20.05 L24.0 20.0 22.8 19.4 23.85 19.75 M23.5 18.75 L21.85 18.15 20.75 17.65 19.45 16.8 20.1 17.1 20.8 17.2 Q19.9 16.3 18.65 15.9 L18.2 15.7 16.95 14.9 17.55 15.2 18.25 15.5 17.0 14.4 15.7 13.6 14.9 13.05 15.35 13.2 15.65 13.25 15.75 13.25 Q14.9 12.35 13.75 11.8 L13.25 11.35 13.35 11.4 14.0 11.7 Q13.9 11.3 13.45 11.0 L11.6 9.95 12.2 10.05 12.05 9.9 12.0 9.7 11.1 8.9 9.9 8.35 9.8 8.3 10.15 8.15 10.1 8.1 9.1 7.1 8.25 6.55 8.0 6.35 8.25 6.4 8.35 6.35 8.3 6.35 Q8.35 5.75 7.2 5.45 L6.75 5.3 6.6 5.25 6.85 5.15 Q7.0 4.5 6.1 4.3 L5.45 4.25 5.6 4.05 5.6 3.85 4.7 2.95 3.3 2.1 Q2.75 1.7 1.8 1.35 L1.5 1.3 1.15 1.55 1.05 1.25 1.25 1.1 1.55 1.1 Q3.25 1.9 4.75 2.95 L9.6 7.0 11.3 8.7 13.05 10.4 13.95 11.25 16.25 13.5 17.7 14.85 18.75 15.55 19.8 16.4 21.5 17.45 23.1 18.5 23.5 18.75 M4.9 4.4 L4.9 4.45 5.1 5.7 6.25 6.95 6.2 5.65 6.2 5.7 6.5 6.8 6.5 6.85 7.8 8.5 7.6 6.9 7.85 7.4 8.2 8.45 9.1 10.15 9.3 10.15 9.4 9.6 9.4 9.5 9.3 8.75 9.45 9.2 9.9 10.45 10.75 12.0 10.95 10.4 10.95 10.25 11.25 10.75 11.7 12.05 12.35 13.7 12.65 14.15 12.85 14.0 12.55 12.0 12.95 12.75 13.55 14.55 14.05 15.55 14.7 16.5 14.65 16.05 14.65 15.45 14.25 13.55 14.85 14.85 15.1 16.05 15.45 17.6 15.55 17.85 14.85 16.8 14.75 16.8 14.4 16.5 12.45 14.05 11.25 12.95 9.85 11.4 Q8.45 9.2 6.3 7.35 L5.95 7.15 5.35 6.4 4.65 5.7 Q2.95 4.7 1.9 3.05 L2.7 3.9 3.95 4.85 4.65 5.2 4.9 4.4 M21.35 24.25 L20.85 21.65 21.75 24.25 22.6 24.35 22.95 24.05 22.9 23.9 18.55 18.8 18.95 19.75 19.2 20.8 19.25 21.9 20.85 24.3 21.35 24.25" fill="#000000" fill-rule="evenodd" stroke="none"/>
    <path d="M20.75 17.65 L21.25 18.2 22.05 18.8 22.95 19.35 23.85 19.75 22.8 19.4 19.5 17.1 20.05 17.55 19.7 17.3 26.25 22.7 24.55 24.05 24.05 23.55 23.0 22.4 21.9 21.3 20.8 20.2 19.7 19.1 18.65 18.05 17.25 16.8 16.5 16.25 16.25 15.8 16.2 15.75 16.2 15.9 16.35 17.05 16.35 17.9 15.95 17.45 15.25 15.85 14.85 14.85 14.25 13.55 14.15 13.4 14.5 15.4 12.95 12.75 12.55 12.0 12.25 11.65 12.65 13.25 12.1 12.5 11.25 10.75 10.95 10.25 10.95 10.4 10.8 10.0 10.75 11.05 10.7 11.25 10.35 10.85 9.45 9.2 9.3 8.75 9.2 8.4 9.1 9.55 9.05 9.55 8.35 8.45 7.85 7.4 7.6 6.9 7.45 7.4 7.4 7.5 Q6.5 6.75 6.2 5.7 L6.2 5.65 6.15 5.55 6.05 6.1 6.05 6.25 5.7 5.85 4.9 4.45 4.9 4.4 4.8 4.2 4.4 4.55 3.5 3.95 2.6 3.25 1.8 2.5 1.15 1.6 1.1 1.55 1.15 1.55 1.5 1.3 1.8 1.35 2.3 1.9 3.85 3.05 5.2 3.75 5.6 3.85 5.6 4.05 5.45 4.25 6.85 5.15 6.6 5.25 6.75 5.3 6.65 5.3 8.0 6.35 8.25 6.55 8.05 6.55 10.1 8.1 10.15 8.15 9.8 8.3 12.05 9.9 12.2 10.05 11.6 9.95 12.1 10.35 13.35 11.4 13.25 11.35 13.75 11.8 13.05 11.5 15.35 13.2 14.9 13.05 15.7 13.6 15.05 13.4 17.55 15.2 16.95 14.9 18.2 15.7 17.3 15.35 20.1 17.1 19.45 16.8 20.75 17.65 M29.2 24.65 L29.2 25.05 28.5 24.3 27.8 24.2 28.15 23.75 26.05 25.55 25.4 25.3 25.1 25.05 25.15 24.55 25.35 24.35 26.7 23.0 Q27.4 22.35 28.15 22.7 L28.25 23.2 28.1 23.55 29.2 24.65 M29.2 25.8 L29.2 28.8 26.6 26.15 26.9 25.2 26.95 25.05 27.65 24.35 29.2 25.8 M24.6 20.7 L25.35 21.0 25.45 21.0 25.5 21.35 25.4 21.15 24.6 20.7 M24.0 20.0 L23.15 19.65 22.8 19.4 24.0 20.0 M25.75 22.85 L25.85 22.7 18.25 16.5 25.3 23.1 25.75 22.85 M27.2 23.0 Q27.05 23.65 27.65 23.65 28.25 23.55 28.1 22.9 L27.2 23.0 M8.3 6.35 L8.35 6.35 8.25 6.4 8.3 6.35 M16.6 16.45 L16.5 16.25 17.15 17.2 18.35 19.0 Q18.8 19.75 18.55 20.65 L18.1 19.9 17.4 18.15 16.6 16.45" fill="#be8ad5" fill-rule="evenodd" stroke="none"/>
    <path d="M1.1 1.55 L1.15 1.6 1.8 2.5 2.6 3.25 3.5 3.95 4.4 4.55 4.8 4.2 4.9 4.4 4.65 5.2 3.95 4.85 2.7 3.9 1.9 3.05 1.7 2.85 Q1.2 2.25 1.1 1.55 M4.9 4.45 L5.7 5.85 6.05 6.25 6.05 6.1 6.15 5.55 6.2 5.65 6.25 6.95 5.1 5.7 4.9 4.45 M6.2 5.7 Q6.5 6.75 7.4 7.5 L7.45 7.4 7.6 6.9 7.8 8.5 6.5 6.85 6.5 6.8 6.2 5.7 M7.85 7.4 L8.35 8.45 9.05 9.55 9.1 9.55 9.2 8.4 9.3 8.75 9.4 9.5 9.4 9.6 9.3 10.15 9.1 10.15 8.2 8.45 7.85 7.4 M9.45 9.2 L10.35 10.85 10.7 11.25 10.75 11.05 10.8 10.0 10.95 10.4 10.75 12.0 9.9 10.45 9.45 9.2 M11.25 10.75 L12.1 12.5 12.65 13.25 12.25 11.65 12.55 12.0 12.85 14.0 12.65 14.15 12.35 13.7 11.7 12.05 11.25 10.75 M12.95 12.75 L14.5 15.4 14.15 13.4 14.25 13.55 14.65 15.45 14.65 16.05 14.7 16.5 14.05 15.55 13.55 14.55 12.95 12.75 M14.85 14.85 L15.25 15.85 15.95 17.45 16.35 17.9 16.35 17.05 16.2 15.9 16.2 15.75 16.25 15.8 16.65 18.9 Q16.25 18.8 15.95 18.55 L15.55 17.85 15.45 17.6 15.1 16.05 14.85 14.85 M16.5 16.25 L17.25 16.8 18.65 18.05 19.7 19.1 20.8 20.2 21.9 21.3 23.0 22.4 24.05 23.55 24.55 24.05 26.25 22.7 26.35 22.75 24.35 24.9 24.3 25.0 18.1 18.0 Q18.65 18.9 18.85 19.95 L18.9 20.55 18.8 21.55 18.7 21.7 18.5 21.55 18.3 21.45 17.65 20.1 17.05 19.05 16.85 17.45 16.6 16.45 17.4 18.15 18.1 19.9 18.55 20.65 Q18.8 19.75 18.35 19.0 L17.15 17.2 16.5 16.25 M20.05 17.55 L19.5 17.1 22.8 19.4 23.15 19.65 23.7 20.05 24.15 20.35 24.5 20.65 Q22.2 19.25 20.05 17.55 M29.2 28.8 L28.85 29.25 27.25 29.35 24.95 27.05 26.95 25.05 26.9 25.2 26.6 26.15 29.2 28.8 M21.35 24.25 L20.85 24.3 19.25 21.9 19.2 20.8 18.95 19.75 18.55 18.8 22.9 23.9 22.95 24.05 22.6 24.35 21.75 24.25 20.85 21.65 21.35 24.25 M26.05 25.55 L24.7 26.75 24.2 27.0 24.0 26.8 23.75 26.35 24.05 25.8 25.15 24.55 25.1 25.05 25.4 25.3 26.05 25.55" fill="#9847bc" fill-rule="evenodd" stroke="none"/>
    <path d="M23.85 19.75 L22.95 19.35 22.05 18.8 21.25 18.2 20.75 17.65 21.85 18.15 23.5 18.75 23.65 18.8 24.5 19.5 24.5 19.95 24.45 19.95 23.85 19.75 M20.1 17.1 L17.3 15.35 18.2 15.7 18.65 15.9 Q19.9 16.3 20.8 17.2 L20.1 17.1 M17.55 15.2 L15.05 13.4 15.7 13.6 17.0 14.4 18.25 15.5 17.55 15.2 M15.35 13.2 L13.05 11.5 13.75 11.8 Q14.9 12.35 15.75 13.25 L15.65 13.25 15.35 13.2 M13.35 11.4 L12.1 10.35 11.6 9.95 13.45 11.0 Q13.9 11.3 14.0 11.7 L13.35 11.4 M12.05 9.9 L9.8 8.3 9.9 8.35 11.1 8.9 12.0 9.7 12.05 9.9 M10.1 8.1 L8.05 6.55 8.25 6.55 9.1 7.1 10.1 8.1 M8.0 6.35 L6.65 5.3 6.75 5.3 7.2 5.45 Q8.35 5.75 8.3 6.35 L8.25 6.4 8.0 6.35 M6.85 5.15 L5.45 4.25 6.1 4.3 Q7.0 4.5 6.85 5.15 M5.6 3.85 L5.2 3.75 3.85 3.05 2.3 1.9 1.8 1.35 Q2.75 1.7 3.3 2.1 L4.7 2.95 5.6 3.85 M29.2 25.05 L29.2 25.8 27.65 24.35 27.8 24.2 28.5 24.3 29.2 25.05 M24.5 20.65 L24.15 20.35 23.7 20.05 23.15 19.65 24.0 20.0 24.3 20.05 Q25.5 20.3 25.45 21.0 L25.35 21.0 24.6 20.7 24.5 20.65 M25.75 22.85 L25.3 23.1 18.25 16.5 25.85 22.7 25.75 22.85 M27.2 23.0 L28.1 22.9 Q28.25 23.55 27.65 23.65 27.05 23.65 27.2 23.0" fill="#e6d7f0" fill-rule="evenodd" stroke="none"/>
  </g>
</svg>
