<?xml version="1.0" encoding="UTF-8" standalone="no"?>
<svg xmlns:ffdec="https://www.free-decompiler.com/flash" xmlns:xlink="http://www.w3.org/1999/xlink" ffdec:objectType="shape" height="28.2px" width="28.35px" xmlns="http://www.w3.org/2000/svg">
  <g transform="matrix(1.0, 0.0, 0.0, 1.0, -0.8, -1.0)">
    <path d="M24.9 28.1 L24.7 28.0 24.9 28.05 24.9 28.1 M26.95 26.75 L26.95 26.7 26.95 26.75" fill="#000000" fill-rule="evenodd" stroke="none"/>
    <path d="M1.1 1.5 L2.35 1.45 3.65 1.85 Q4.9 2.25 5.9 3.05 6.55 3.6 6.45 4.4 L8.1 5.55 8.3 5.85 Q9.4 6.05 10.0 7.2 L10.1 7.55 11.65 9.25 Q12.65 9.6 12.95 10.6 L13.05 10.85 Q14.25 11.45 14.95 12.65 L15.3 13.1 17.7 15.95 18.25 16.65 21.65 20.25 22.5 21.5 Q24.05 22.2 25.0 23.45 24.6 24.4 23.9 24.75 L23.5 25.0 Q22.15 24.15 21.8 22.45 L21.75 22.2 20.65 21.5 19.9 20.6 19.0 19.4 17.4 17.4 14.3 14.0 13.75 13.15 Q12.85 12.85 12.35 11.75 L12.2 11.5 Q11.15 10.95 10.55 10.0 L10.05 9.15 9.0 8.2 Q8.2 7.55 7.8 6.65 L6.6 5.85 5.75 4.75 Q4.2 4.45 2.95 3.55 1.75 2.75 1.1 1.5 M25.25 23.8 L26.0 22.75 26.45 21.1 Q26.5 20.4 27.0 19.9 L27.5 19.8 27.5 20.0 27.75 20.0 27.75 19.75 28.1 19.7 Q28.8 20.3 28.5 21.35 L28.0 23.6 Q27.75 25.35 29.15 26.55 L29.15 26.6 28.95 26.5 29.15 26.65 29.15 28.95 26.35 29.2 25.45 28.3 24.9 28.05 24.7 28.0 24.9 28.1 26.1 29.2 25.5 29.2 25.35 29.1 Q25.9 29.2 25.45 29.05 L25.35 29.05 24.15 28.1 23.9 27.7 24.1 27.75 Q24.35 27.6 24.55 27.5 L23.7 27.65 23.45 27.4 23.6 27.3 23.3 27.1 Q23.6 26.95 23.85 26.75 L24.05 26.15 23.2 26.1 22.85 26.35 Q22.45 26.7 23.6 26.2 L23.8 26.2 23.85 26.65 22.95 27.05 22.95 27.2 23.85 27.95 22.7 27.8 22.7 27.75 22.65 27.8 21.8 27.9 21.65 27.9 20.05 28.0 20.0 28.0 19.95 27.95 19.95 28.0 19.55 27.9 20.3 27.4 20.4 27.4 Q20.9 27.7 21.1 27.65 L21.4 27.4 Q21.45 27.15 21.8 27.1 21.75 26.75 21.6 27.1 L21.05 27.0 20.95 27.15 21.05 27.5 20.35 27.15 19.4 27.6 19.35 27.6 19.1 27.7 18.95 27.55 19.2 27.2 19.4 27.15 18.95 27.15 18.85 27.4 18.85 26.85 Q19.95 26.2 21.15 26.55 22.7 26.4 23.85 25.25 L25.2 23.9 25.25 23.8 M20.45 19.9 L20.6 20.35 Q21.85 21.15 22.7 22.4 L23.55 22.6 22.8 21.7 22.3 21.6 Q21.35 21.1 21.25 20.1 L21.05 20.0 20.8 19.9 20.45 19.9 Q20.25 18.95 19.4 18.55 L19.2 18.5 19.15 18.6 19.2 18.7 Q19.5 19.15 19.85 19.15 L20.15 19.5 20.45 19.9 M24.3 23.45 L24.05 23.15 24.25 23.45 24.3 23.45 M27.5 24.3 L27.2 23.95 27.55 24.75 27.5 24.3 M27.55 23.7 Q27.85 24.15 27.7 23.5 L28.05 22.5 27.85 22.2 27.9 22.25 28.25 21.15 27.75 20.85 27.95 20.65 Q28.15 20.25 27.8 20.6 27.45 21.0 28.15 21.2 L28.05 21.7 27.5 22.05 27.95 22.6 27.7 22.95 27.7 23.5 27.55 23.7 M26.5 24.55 L26.55 24.35 26.35 24.7 26.4 24.65 26.4 24.85 26.4 24.9 26.5 24.95 26.75 25.1 26.6 25.55 26.15 25.9 26.4 26.0 26.6 25.8 26.75 25.1 27.05 25.45 27.3 25.4 27.15 25.2 26.75 24.4 26.5 24.55 M27.35 22.65 L27.25 22.85 Q26.9 23.4 27.25 23.25 L27.4 22.75 27.35 22.65 M26.75 23.05 Q26.9 22.5 26.65 22.0 L26.75 22.85 26.55 23.0 26.5 23.4 26.1 23.55 26.35 23.05 25.9 23.65 26.6 23.55 26.75 23.05 M27.25 20.2 L27.25 20.3 28.2 20.3 27.55 20.1 Q27.3 20.0 27.25 20.2 M27.2 20.6 Q27.1 19.9 27.15 20.5 26.55 20.8 27.15 21.15 26.7 21.3 27.05 22.05 L27.2 21.3 27.2 21.05 27.2 20.6 M11.4 9.5 L11.3 9.7 11.75 10.1 12.2 10.3 12.25 10.3 12.75 10.95 12.8 10.95 12.35 10.1 Q12.25 9.45 11.4 9.5 M13.6 11.9 L14.25 12.55 14.3 12.55 14.25 12.45 Q13.85 11.4 13.3 11.25 L12.75 11.3 13.6 11.9 M10.65 8.15 L9.7 7.7 Q10.2 8.7 11.2 9.4 L10.65 8.15 M7.25 5.45 L7.6 5.65 8.0 6.05 6.75 4.7 6.3 4.7 Q6.2 5.4 7.25 5.45 M5.85 4.0 L5.85 3.7 Q5.25 2.65 4.1 2.45 L3.0 2.25 Q4.35 2.95 5.45 4.05 L5.85 4.0 M9.55 7.25 L9.05 6.4 Q8.7 6.05 8.3 6.25 8.35 6.95 9.3 7.2 9.8 7.85 9.55 7.25 M15.65 14.25 L15.75 14.75 16.9 15.7 Q16.7 16.2 17.3 16.35 L17.55 16.45 18.15 17.55 19.1 18.25 18.5 17.05 18.0 16.85 Q17.6 15.95 16.95 15.65 L16.35 14.45 15.7 14.3 Q15.55 13.1 14.5 12.9 14.3 13.5 14.75 13.65 L15.6 14.2 15.65 14.25 M20.1 26.9 L20.1 26.65 19.9 26.65 19.9 26.9 20.1 26.9 M19.75 27.05 L19.85 26.85 19.65 26.85 19.75 27.05 M28.05 26.9 L28.1 26.75 Q28.95 26.7 29.05 27.5 L29.0 27.9 29.05 27.85 29.05 27.6 29.05 27.5 Q29.05 27.0 28.55 26.7 27.6 26.55 28.2 27.45 L28.45 27.5 28.4 27.45 28.2 27.2 28.05 26.9 M27.95 26.7 L28.0 26.7 27.15 25.7 Q27.4 26.35 27.95 26.7 M28.35 26.95 L28.25 27.05 28.5 27.5 28.5 27.45 Q28.9 27.2 28.35 26.95 M28.35 26.15 L28.0 25.6 28.55 26.65 28.35 26.15 M26.0 25.0 L26.15 24.9 25.35 25.05 25.65 24.25 25.3 25.1 26.0 25.0 M25.35 26.05 L25.7 25.8 25.8 25.35 25.7 25.35 24.85 26.35 24.35 26.3 24.35 26.35 24.4 26.35 24.85 26.35 25.35 26.05 M25.95 26.75 L26.0 26.45 25.65 27.1 Q24.8 27.25 23.95 26.8 L24.65 27.45 24.85 27.3 25.6 27.3 25.95 26.75 M26.6 27.35 L26.6 27.3 26.6 27.35 M25.95 27.75 L25.95 27.7 26.1 27.55 Q26.55 27.05 26.65 26.4 L26.6 26.2 26.2 27.05 Q25.95 27.5 25.2 27.7 L25.95 27.75 M26.95 26.75 L26.95 26.85 26.95 26.75 26.95 26.7 26.95 26.75 M27.8 28.35 L27.5 28.05 27.15 27.65 Q27.35 28.2 27.8 28.35 M26.8 28.4 L26.5 28.6 26.25 28.6 Q27.4 28.65 26.45 28.95 L26.65 29.05 Q27.3 28.8 26.8 28.4 M22.3 27.35 L22.4 27.3 22.5 27.35 22.25 27.05 22.25 27.35 22.3 27.35 M24.6 25.55 L24.4 25.65 Q24.9 26.05 25.1 25.0 L24.6 25.55" fill="#91ffa6" fill-rule="evenodd" stroke="none"/>
    <path d="M25.0 23.45 L25.25 23.8 25.2 23.9 23.85 25.25 23.2 25.6 Q21.95 25.15 21.5 23.8 21.05 22.55 20.15 21.85 L19.7 21.2 19.6 20.9 18.2 19.65 17.45 18.65 16.9 18.05 16.35 17.35 13.55 14.25 13.3 13.8 12.8 13.3 Q12.55 13.3 12.45 13.15 11.9 12.7 11.7 12.0 10.9 11.65 10.4 10.9 L9.25 9.55 9.0 8.9 Q8.15 8.5 7.7 7.85 L6.25 6.35 5.55 5.7 Q5.05 5.3 4.4 5.25 3.5 5.0 2.95 4.5 1.55 3.25 1.1 1.5 1.75 2.75 2.95 3.55 4.2 4.45 5.75 4.75 L6.6 5.85 7.8 6.65 Q8.2 7.55 9.0 8.2 L10.05 9.15 10.55 10.0 Q11.15 10.95 12.2 11.5 L12.35 11.75 Q12.85 12.85 13.75 13.15 L14.3 14.0 17.4 17.4 19.0 19.4 19.9 20.6 20.65 21.5 21.75 22.2 21.8 22.45 Q22.15 24.15 23.5 25.0 L23.9 24.75 Q24.6 24.4 25.0 23.45 M24.25 29.2 L24.1 29.1 Q22.55 28.35 20.65 28.7 19.25 29.0 18.4 27.8 L18.85 26.85 18.85 27.4 18.75 27.5 Q18.9 27.95 18.95 27.55 L19.1 27.7 19.55 27.9 19.95 28.0 20.0 28.0 20.05 28.0 21.65 27.9 21.8 28.05 21.95 28.05 21.95 28.15 22.6 28.0 23.6 28.4 Q24.4 28.6 24.15 28.1 L25.35 29.05 25.15 29.2 24.75 29.2 24.3 28.6 24.7 29.2 24.25 29.2 M21.8 27.9 L22.65 27.8 22.55 27.9 21.8 27.9 M22.7 27.8 L23.85 27.95 24.0 28.1 23.4 28.3 22.7 27.8 M25.35 29.1 L25.5 29.2 25.25 29.2 25.35 29.1" fill="#37b563" fill-rule="evenodd" stroke="none"/>
    <path d="M20.45 19.9 L20.8 19.9 21.05 20.0 21.25 20.1 Q21.35 21.1 22.3 21.6 L22.8 21.7 23.55 22.6 22.7 22.4 Q21.85 21.15 20.6 20.35 L20.45 19.9 20.15 19.5 19.85 19.15 Q19.5 19.15 19.2 18.7 L19.15 18.6 19.2 18.5 19.4 18.55 Q20.25 18.95 20.45 19.9 M24.3 23.45 L24.25 23.45 24.05 23.15 24.3 23.45 M15.65 14.25 L15.6 14.2 14.75 13.65 Q14.3 13.5 14.5 12.9 15.55 13.1 15.7 14.3 L16.35 14.45 16.95 15.65 Q17.6 15.95 18.0 16.85 L18.5 17.05 19.1 18.25 18.15 17.55 17.55 16.45 17.3 16.35 Q16.7 16.2 16.9 15.7 L15.75 14.75 15.65 14.25 M9.55 7.25 Q9.8 7.85 9.3 7.2 8.35 6.95 8.3 6.25 8.7 6.05 9.05 6.4 L9.55 7.25 M5.85 4.0 L5.45 4.05 Q4.35 2.95 3.0 2.25 L4.1 2.45 Q5.25 2.65 5.85 3.7 L5.85 4.0 M7.25 5.45 Q6.2 5.4 6.3 4.7 L6.75 4.7 8.0 6.05 7.6 5.65 7.25 5.45 M10.65 8.15 L11.2 9.4 Q10.2 8.7 9.7 7.7 L10.65 8.15 M13.6 11.9 L12.75 11.3 13.3 11.25 Q13.85 11.4 14.25 12.45 L14.3 12.55 14.25 12.55 13.6 11.9 M11.4 9.5 Q12.25 9.45 12.35 10.1 L12.8 10.95 12.75 10.95 12.25 10.3 12.2 10.3 11.75 10.1 11.3 9.7 11.4 9.5" fill="#ffffff" fill-rule="evenodd" stroke="none"/>
    <path d="M25.0 23.45 Q24.05 22.2 22.5 21.5 L21.65 20.25 18.25 16.65 17.7 15.95 15.3 13.1 14.95 12.65 Q14.25 11.45 13.05 10.85 L12.95 10.6 Q12.65 9.6 11.65 9.25 L10.1 7.55 10.0 7.2 Q9.4 6.05 8.3 5.85 L8.1 5.55 6.45 4.4 Q6.55 3.6 5.9 3.05 4.9 2.25 3.65 1.85 L2.35 1.45 1.1 1.5 Q1.55 3.25 2.95 4.5 3.5 5.0 4.4 5.25 5.05 5.3 5.55 5.7 L6.25 6.35 7.7 7.85 Q8.15 8.5 9.0 8.9 L9.25 9.55 10.4 10.9 Q10.9 11.65 11.7 12.0 11.9 12.7 12.45 13.15 12.55 13.3 12.8 13.3 L13.3 13.8 13.55 14.25 16.35 17.35 16.9 18.05 17.45 18.65 18.2 19.65 19.6 20.9 19.7 21.2 20.15 21.85 Q21.05 22.55 21.5 23.8 21.95 25.15 23.2 25.6 L23.85 25.25 Q22.7 26.4 21.15 26.55 19.95 26.2 18.85 26.85 L18.4 27.8 Q19.25 29.0 20.65 28.7 22.55 28.35 24.1 29.1 L24.25 29.2 23.2 28.95 19.6 29.0 18.4 28.45 18.3 27.55 18.4 27.0 Q19.25 26.0 20.55 26.35 L22.85 25.8 Q21.65 25.0 21.2 23.85 L21.1 23.65 20.95 23.25 20.9 23.0 Q20.6 22.9 20.25 22.5 L19.7 21.75 19.35 21.2 19.1 21.05 Q17.8 19.95 16.95 18.55 L15.75 17.15 14.3 15.65 13.5 14.85 12.9 13.9 12.5 13.6 12.4 13.5 12.2 13.35 11.75 12.8 11.6 12.5 11.55 12.35 Q10.9 12.1 10.6 11.6 L9.35 10.15 Q8.7 9.7 8.45 9.05 L8.3 8.9 7.25 7.55 6.2 7.0 5.65 6.4 Q5.3 5.75 4.6 5.7 L3.4 5.15 3.05 4.95 Q1.65 3.85 1.05 2.25 L0.8 1.45 Q1.05 0.85 1.75 1.05 L3.5 1.3 4.45 1.7 4.7 1.9 Q6.45 2.55 6.95 4.25 L7.5 4.6 8.25 5.3 8.55 5.6 9.25 5.95 10.0 6.75 11.15 8.35 12.25 9.25 13.6 10.6 14.0 11.1 Q14.5 12.05 15.3 12.7 L16.6 13.95 16.95 14.45 18.0 15.8 19.15 17.25 19.9 18.0 21.35 19.65 22.05 20.35 25.4 23.45 Q26.2 22.55 26.1 21.25 26.05 20.4 26.6 19.8 27.1 19.2 27.95 19.4 29.0 20.15 28.85 21.2 L28.4 23.85 Q28.15 25.3 29.15 26.1 L29.15 26.55 Q27.75 25.35 28.0 23.6 L28.5 21.35 Q28.8 20.3 28.1 19.7 L27.75 19.75 27.5 19.75 27.5 19.8 27.0 19.9 Q26.5 20.4 26.45 21.1 L26.0 22.75 25.25 23.8 25.0 23.45 M18.95 27.55 Q18.9 27.95 18.75 27.5 L18.85 27.4 18.95 27.15 19.4 27.15 19.2 27.2 18.95 27.55 M19.95 28.0 L19.95 27.95 20.0 28.0 19.95 28.0 M21.65 27.9 L21.8 27.9 22.55 27.9 22.65 27.8 22.7 27.75 22.7 27.8 23.4 28.3 24.0 28.1 23.85 27.95 22.95 27.2 22.95 27.05 23.85 26.65 23.8 26.2 23.6 26.2 Q22.45 26.7 22.85 26.35 L23.2 26.1 24.05 26.15 23.85 26.75 Q23.6 26.95 23.3 27.1 L23.6 27.3 23.45 27.4 23.7 27.65 24.55 27.5 Q24.35 27.6 24.1 27.75 L23.9 27.7 24.15 28.1 Q24.4 28.6 23.6 28.4 L22.6 28.0 21.95 28.15 21.95 28.05 21.8 28.05 21.65 27.9 M25.35 29.05 L25.45 29.05 Q25.9 29.2 25.35 29.1 L25.25 29.2 25.15 29.2 25.35 29.05 M26.1 29.2 L24.9 28.1 24.9 28.05 25.45 28.3 26.35 29.2 26.1 29.2 M29.15 26.65 L28.95 26.5 29.15 26.6 29.15 26.65 M25.95 26.75 L25.6 27.3 24.85 27.3 24.65 27.45 23.95 26.8 Q24.8 27.25 25.65 27.1 L26.0 26.45 25.95 26.75 M24.7 29.2 L24.3 28.6 24.75 29.2 24.7 29.2" fill="#174824" fill-rule="evenodd" stroke="none"/>
    <path d="M27.5 19.8 L27.5 19.75 27.75 19.75 27.75 20.0 27.5 20.0 27.5 19.8 M27.2 20.6 L27.2 21.05 27.2 21.3 27.05 22.05 Q26.7 21.3 27.15 21.15 26.55 20.8 27.15 20.5 27.1 19.9 27.2 20.6 M27.25 20.2 Q27.3 20.0 27.55 20.1 L28.2 20.3 27.25 20.3 27.25 20.2 M26.75 23.05 L26.6 23.55 25.9 23.65 26.35 23.05 26.1 23.55 26.5 23.4 26.55 23.0 26.75 22.85 26.65 22.0 Q26.9 22.5 26.75 23.05 M27.35 22.65 L27.4 22.75 27.25 23.25 Q26.9 23.4 27.25 22.85 L27.35 22.65 M26.5 24.55 L26.75 24.4 27.15 25.2 27.3 25.4 27.05 25.45 26.75 25.1 26.6 25.8 26.4 26.0 26.15 25.9 26.6 25.55 26.75 25.1 26.5 24.95 26.4 24.9 26.4 24.85 26.4 24.65 26.35 24.7 26.55 24.35 26.5 24.55 M27.55 23.7 L27.7 23.5 27.7 22.95 27.95 22.6 27.5 22.05 28.05 21.7 28.15 21.2 Q27.45 21.0 27.8 20.6 28.15 20.25 27.95 20.65 L27.75 20.85 28.25 21.15 27.9 22.25 27.85 22.2 28.05 22.5 27.7 23.5 Q27.85 24.15 27.55 23.7 M27.5 24.3 L27.55 24.75 27.2 23.95 27.5 24.3 M19.1 27.7 L19.35 27.6 19.4 27.6 20.35 27.15 21.05 27.5 20.95 27.15 21.05 27.0 21.6 27.1 Q21.75 26.75 21.8 27.1 21.45 27.15 21.4 27.4 L21.1 27.65 Q20.9 27.7 20.4 27.4 L20.3 27.4 19.55 27.9 19.1 27.7 M19.75 27.05 L19.65 26.85 19.85 26.85 19.75 27.05 M20.1 26.9 L19.9 26.9 19.9 26.65 20.1 26.65 20.1 26.9 M28.35 26.15 L28.55 26.65 28.0 25.6 28.35 26.15 M28.35 26.95 Q28.9 27.2 28.5 27.45 L28.5 27.5 28.25 27.05 28.35 26.95 M27.95 26.7 Q27.4 26.35 27.15 25.7 L28.0 26.7 27.95 26.7 M28.05 26.9 L28.2 27.2 28.4 27.45 28.45 27.5 28.2 27.45 Q27.6 26.55 28.55 26.7 29.05 27.0 29.05 27.5 L29.05 27.6 29.05 27.85 29.0 27.9 29.05 27.5 Q28.95 26.7 28.1 26.75 L28.05 26.9 M25.35 26.05 L24.85 26.35 24.4 26.35 24.35 26.35 24.35 26.3 24.85 26.35 25.7 25.35 25.8 25.35 25.7 25.8 25.35 26.05 M26.0 25.0 L25.3 25.1 25.65 24.25 25.35 25.05 26.15 24.9 26.0 25.0 M25.95 27.75 L25.2 27.7 Q25.95 27.5 26.2 27.05 L26.6 26.2 26.65 26.4 Q26.55 27.05 26.1 27.55 L25.95 27.7 25.95 27.75 M26.6 27.35 L26.6 27.3 26.6 27.35 M26.95 26.75 L26.95 26.85 26.95 26.75 M27.8 28.35 Q27.35 28.2 27.15 27.65 L27.5 28.05 27.8 28.35 M26.8 28.4 Q27.3 28.8 26.65 29.05 L26.45 28.95 Q27.4 28.65 26.25 28.6 L26.5 28.6 26.8 28.4 M24.6 25.55 L25.1 25.0 Q24.9 26.05 24.4 25.65 L24.6 25.55 M22.3 27.35 L22.25 27.35 22.25 27.05 22.5 27.35 22.4 27.3 22.3 27.35" fill="#247339" fill-rule="evenodd" stroke="none"/>
  </g>
</svg>
