<?xml version="1.0" encoding="UTF-8" standalone="no"?>
<svg xmlns:ffdec="https://www.free-decompiler.com/flash" xmlns:xlink="http://www.w3.org/1999/xlink" ffdec:objectType="shape" height="11.5px" width="17.1px" xmlns="http://www.w3.org/2000/svg">
  <g transform="matrix(1.0, 0.0, 0.0, 1.0, 10.1, 8.4)">
    <path d="M4.3 -7.0 L5.05 -7.65 5.6 -7.0 5.55 -6.95 5.15 -6.7 4.9 -7.05 4.85 -6.5 4.1 -6.05 4.3 -7.0 M3.65 -6.2 L3.55 -5.7 2.7 -5.15 2.55 -5.8 2.55 -5.05 1.95 -4.75 1.65 -4.8 1.55 -5.4 1.8 -5.55 1.9 -5.65 3.6 -6.55 3.65 -6.2 M5.85 -6.0 L6.6 -1.9 6.75 -1.75 Q6.45 -0.75 5.6 -0.1 4.6 0.6 3.45 0.9 L3.2 0.95 3.15 0.9 Q2.7 0.8 2.85 0.5 L2.9 -0.2 2.45 -0.05 2.2 0.25 1.8 0.75 0.85 0.95 0.7 0.9 1.2 0.45 0.3 0.85 0.25 0.8 -0.3 1.05 0.0 0.05 1.45 -0.95 1.5 -1.2 1.6 -3.5 1.6 -3.85 1.5 -4.35 4.3 -5.85 5.0 -4.5 5.85 -6.0 M2.65 -3.75 L2.9 -3.25 2.95 -3.0 2.5 -2.55 3.65 -2.35 4.25 -1.6 4.35 -2.4 5.0 -2.7 4.55 -3.4 4.7 -4.15 4.5 -4.2 4.1 -4.05 2.65 -3.75 M-0.35 -2.55 L-0.45 -3.1 -0.55 -3.55 -0.55 -3.6 -0.55 -3.7 1.3 -4.25 1.35 -3.95 1.3 -3.95 1.3 -3.9 1.35 -3.7 1.2 -1.45 1.2 -1.35 1.2 -1.25 -0.05 -0.2 -0.2 -0.15 -0.3 -0.3 -0.3 -1.1 Q-0.05 -0.85 0.35 -0.75 L0.45 -0.7 0.3 -1.4 0.45 -2.95 -0.35 -2.55 M4.75 -2.1 L4.35 -0.35 5.55 -1.1 5.55 -1.3 5.0 -2.1 4.75 -2.1 M-5.9 -3.15 L-6.7 -3.15 -6.95 -3.85 -6.8 -3.1 -7.8 -3.1 -8.1 -4.0 -6.7 -4.0 -5.9 -3.15 M-8.75 -3.15 Q-9.0 -3.2 -9.15 -3.35 L-9.3 -3.65 -9.2 -4.2 -8.1 -4.0 -7.9 -3.05 -8.05 -3.05 -8.75 -3.15 M-5.1 -3.1 L-5.3 -4.05 -4.2 -4.25 -4.0 -3.3 -5.1 -3.1 M-7.85 -1.7 L-7.4 -0.6 -7.15 -0.45 -6.0 -1.6 -6.7 -2.75 -8.15 -2.15 -7.85 -1.7 M-7.85 2.55 L-8.3 2.4 -9.75 1.35 -9.4 0.3 -9.5 -0.4 Q-9.6 -1.75 -9.05 -2.9 L-8.75 -3.0 -8.0 -2.85 -3.75 -3.05 -0.8 -3.65 -0.6 -2.5 -1.55 -2.7 -1.1 -1.4 -1.4 -0.75 -0.55 -1.05 -0.65 0.2 -0.6 0.25 -0.55 0.25 -0.25 0.25 -0.45 0.8 -0.95 1.4 -1.9 2.1 -2.6 2.4 -5.3 2.85 -6.15 2.85 -5.65 2.15 -6.65 2.05 -7.05 1.35 -7.4 2.15 -8.05 2.0 -8.15 2.1 -7.85 2.55 M-6.05 -0.5 L-6.2 -0.3 -5.75 0.75 -6.0 1.2 -5.1 1.45 -4.6 2.1 -4.5 1.95 -4.2 1.25 -3.9 0.95 -3.8 0.85 -3.05 0.7 -3.75 0.05 -3.75 -0.15 -3.9 -1.3 -4.9 -0.4 -6.05 -0.5 M-2.25 -3.6 L-2.4 -4.45 -1.2 -4.65 -1.05 -3.8 -2.25 -3.6 M-2.45 -4.45 L-2.4 -3.6 -3.8 -3.3 -4.05 -4.2 -2.45 -4.45" fill="#8cc4ec" fill-rule="evenodd" stroke="none"/>
    <path d="M4.1 -6.05 L4.85 -6.5 4.9 -7.05 5.15 -6.7 5.55 -6.95 5.6 -7.0 5.05 -7.65 4.3 -7.0 3.6 -6.55 1.9 -5.65 1.8 -5.55 1.55 -5.4 1.65 -4.8 1.95 -4.75 2.55 -5.05 2.55 -5.8 2.7 -5.15 3.55 -5.7 3.65 -6.2 3.8 -5.85 4.1 -6.05 M5.85 -6.0 L5.9 -6.25 5.5 -6.6 4.3 -5.85 1.5 -4.35 1.6 -3.85 1.6 -3.5 1.5 -1.2 1.45 -0.95 0.0 0.05 -0.3 1.05 0.25 0.8 0.3 0.85 1.2 0.45 0.7 0.9 0.85 0.95 3.0 1.0 3.05 1.0 3.2 0.95 3.45 0.9 Q4.6 0.6 5.6 -0.1 6.45 -0.75 6.75 -1.75 L6.6 -1.9 5.85 -6.0 M5.6 -7.8 L5.9 -6.85 6.3 -5.6 6.95 -2.8 7.0 -2.05 7.0 -1.65 6.3 -0.75 5.45 0.2 4.1 0.95 3.55 1.2 -0.45 1.55 -1.05 2.05 Q-1.6 2.5 -2.3 2.75 L-2.65 2.85 -6.55 3.1 -7.35 2.95 -9.55 1.95 -10.1 1.35 -9.65 0.3 -9.75 -0.25 -9.4 -2.7 -9.45 -2.9 -9.6 -4.35 -9.4 -4.45 -9.3 -4.4 -8.55 -4.35 -6.35 -4.25 -1.3 -4.9 1.2 -5.6 Q2.8 -6.2 4.15 -7.25 L4.25 -7.35 5.2 -8.3 5.2 -8.4 5.6 -7.8 M0.9 -4.3 L1.0 -4.35 1.3 -4.5 1.3 -5.4 -1.05 -4.65 -0.8 -3.95 -0.05 -4.0 0.9 -4.3 M-0.3 -1.1 L-0.3 -0.3 -0.2 -0.15 -0.05 -0.2 1.2 -1.25 1.2 -1.35 1.2 -1.45 1.35 -3.7 1.3 -3.9 1.3 -3.95 1.35 -3.95 1.3 -4.25 -0.55 -3.7 -0.55 -3.6 -0.55 -3.55 -0.45 -3.1 -0.35 -2.55 -0.3 -1.1 M-6.7 -4.0 L-8.1 -4.0 -7.8 -3.1 -6.8 -3.1 -6.95 -3.85 -6.7 -3.15 -5.9 -3.15 -5.5 -3.15 -5.35 -3.8 -5.55 -4.1 -6.7 -4.0 M-5.1 -3.1 L-4.0 -3.3 -4.2 -4.25 -5.3 -4.05 -5.1 -3.1 M-8.75 -3.15 L-8.05 -3.05 -7.9 -3.05 -8.1 -4.0 -9.2 -4.2 -9.3 -3.65 -9.15 -3.35 Q-9.0 -3.2 -8.75 -3.15 M-0.6 -2.5 L-0.8 -3.65 -3.75 -3.05 -8.0 -2.85 -8.75 -3.0 -9.05 -2.9 Q-9.6 -1.75 -9.5 -0.4 L-9.4 0.3 -9.75 1.35 -8.3 2.4 -7.85 2.55 -6.15 2.85 -5.3 2.85 -2.6 2.4 -1.9 2.1 -0.95 1.4 -0.45 0.8 -0.25 0.25 -0.55 0.25 -0.6 0.25 -0.65 0.2 -0.55 -1.05 -0.6 -2.5 M-2.45 -4.45 L-4.05 -4.2 -3.8 -3.3 -2.4 -3.6 -2.45 -4.45 M-2.25 -3.6 L-1.05 -3.8 -1.2 -4.65 -2.4 -4.45 -2.25 -3.6" fill="#273370" fill-rule="evenodd" stroke="none"/>
    <path d="M4.3 -5.85 L5.5 -6.6 5.9 -6.25 5.85 -6.0 5.0 -4.5 4.3 -5.85 M-0.35 -2.55 L0.45 -2.95 0.3 -1.4 0.45 -0.7 0.35 -0.75 Q-0.05 -0.85 -0.3 -1.1 L-0.35 -2.55 M4.75 -2.1 L5.0 -2.1 5.55 -1.3 5.55 -1.1 4.35 -0.35 4.75 -2.1 M-5.9 -3.15 L-6.7 -4.0 -5.55 -4.1 -5.35 -3.8 -5.5 -3.15 -5.9 -3.15 M-0.55 -1.05 L-1.4 -0.75 -1.1 -1.4 -1.55 -2.7 -0.6 -2.5 -0.55 -1.05 M-6.05 -0.5 L-4.9 -0.4 -3.9 -1.3 -3.75 -0.15 -3.75 0.05 -3.05 0.7 -3.8 0.85 -3.9 0.95 -4.2 1.25 -4.5 1.95 -4.6 2.1 -5.1 1.45 -6.0 1.2 -5.75 0.75 -6.2 -0.3 -6.05 -0.5" fill="#0033ff" fill-rule="evenodd" stroke="none"/>
    <path d="M4.3 -7.0 L4.1 -6.05 3.8 -5.85 3.65 -6.2 3.6 -6.55 4.3 -7.0 M3.2 0.95 L3.05 1.0 3.0 1.0 0.85 0.95 1.8 0.75 2.2 0.25 2.45 -0.05 2.9 -0.2 2.85 0.5 Q2.7 0.8 3.15 0.9 L3.2 0.95 M2.65 -3.75 L4.1 -4.05 4.5 -4.2 4.7 -4.15 4.55 -3.4 5.0 -2.7 4.35 -2.4 4.25 -1.6 3.65 -2.35 2.5 -2.55 2.95 -3.0 2.9 -3.25 2.65 -3.75 M0.9 -4.3 L-0.05 -4.0 -0.8 -3.95 -1.05 -4.65 1.3 -5.4 1.3 -4.5 1.0 -4.35 0.9 -4.3 M-7.85 -1.7 L-8.15 -2.15 -6.7 -2.75 -6.0 -1.6 -7.15 -0.45 -7.4 -0.6 -7.85 -1.7 M-7.85 2.55 L-8.15 2.1 -8.05 2.0 -7.4 2.15 -7.05 1.35 -6.65 2.05 -5.65 2.15 -6.15 2.85 -7.85 2.55" fill="#ffffff" fill-rule="evenodd" stroke="none"/>
  </g>
</svg>
