<?xml version="1.0" encoding="UTF-8" standalone="no"?>
<svg xmlns:ffdec="https://www.free-decompiler.com/flash" xmlns:xlink="http://www.w3.org/1999/xlink" ffdec:objectType="shape" height="28.0px" width="27.85px" xmlns="http://www.w3.org/2000/svg">
  <g transform="matrix(1.0, 0.0, 0.0, 1.0, -1.25, -1.1)">
    <path d="M1.4 2.3 L1.75 1.7 Q2.2 1.3 2.8 1.1 3.95 1.1 4.25 2.25 L4.35 3.35 4.3 3.6 5.75 3.4 Q6.35 3.6 6.9 3.95 L7.2 4.2 Q7.45 5.1 7.15 6.0 L8.5 5.75 Q10.0 6.0 10.15 7.55 L9.9 8.45 11.3 8.3 12.45 8.95 12.75 9.15 Q13.2 10.1 12.65 10.95 L13.9 10.85 Q15.0 11.05 15.45 12.05 15.8 12.8 15.2 13.6 15.75 13.9 16.45 13.6 17.4 13.75 17.9 14.45 18.4 15.45 17.85 16.3 L17.9 16.4 Q19.15 16.05 20.05 16.9 L20.35 17.15 Q20.65 18.1 20.2 18.95 L20.2 19.0 Q20.65 19.35 21.0 19.3 L21.95 19.4 22.8 20.3 22.95 21.3 22.8 21.75 23.9 21.85 Q24.7 21.55 25.45 22.15 26.6 23.0 26.25 24.55 L27.5 23.6 26.95 24.3 25.05 26.05 23.9 27.45 24.15 27.55 Q25.0 28.15 25.6 29.1 L23.6 27.35 24.85 25.9 23.3 25.75 Q21.85 24.9 22.15 23.4 L22.35 22.6 22.3 22.5 Q21.95 22.25 21.25 22.5 L20.95 22.5 Q19.7 22.0 19.75 20.7 L19.95 19.75 18.75 19.7 Q17.2 19.45 17.25 17.95 L17.3 17.0 17.25 16.9 16.3 17.05 Q15.2 16.9 14.85 15.95 14.55 15.15 14.8 14.3 L14.7 14.2 13.75 14.25 Q12.1 14.1 12.2 12.5 12.2 12.05 12.35 11.65 L10.6 11.35 Q10.05 11.1 9.8 10.5 L9.55 9.5 9.5 8.95 8.05 9.2 Q6.85 8.85 6.75 7.4 L6.7 6.45 Q5.45 7.25 4.45 6.2 3.8 5.6 3.95 4.65 L4.05 4.25 2.65 4.55 Q1.15 4.4 1.25 2.8 1.25 3.25 1.75 3.75 2.35 4.35 3.15 4.25 L4.15 3.25 4.15 2.5 4.15 2.45 3.9 2.05 3.15 1.45 2.1 1.55 1.5 2.1 1.4 2.3 M27.4 23.9 Q27.9 23.45 28.1 24.1 L28.2 24.55 29.1 25.95 Q28.45 25.25 28.15 24.45 L27.75 24.0 27.4 23.9 M21.85 19.4 L20.8 19.45 Q19.0 20.7 20.9 21.85 L21.8 22.15 Q22.65 21.85 22.8 20.85 L22.65 20.15 21.85 19.4 M22.6 22.4 Q23.05 22.15 22.65 21.9 22.1 22.2 22.6 22.4 M23.65 22.1 Q21.65 23.1 22.9 25.05 L23.15 25.35 24.1 25.75 Q24.95 25.7 25.45 25.0 26.3 23.9 25.75 23.05 L24.9 22.2 23.65 22.1 M12.4 9.2 L11.65 8.65 10.4 8.85 Q9.8 9.2 9.8 9.95 9.85 10.8 10.7 11.15 L11.65 11.4 12.15 11.0 Q13.0 10.3 12.4 9.2 M12.65 11.2 Q12.1 11.4 12.65 11.3 L12.65 11.2 M12.95 11.4 L12.45 12.15 Q12.35 13.35 13.25 13.9 14.45 14.25 15.1 13.25 L15.25 12.95 14.95 11.65 14.3 11.2 12.95 11.4 M5.0 3.8 L4.5 4.2 Q3.9 5.15 4.65 6.0 5.6 6.9 6.5 6.0 L6.95 5.1 6.9 4.35 6.15 3.7 5.0 3.8 M8.95 6.1 L7.85 6.15 Q6.45 7.05 7.5 8.4 8.0 9.0 8.9 8.85 9.9 8.55 9.8 7.55 L9.65 6.7 8.95 6.1 M7.1 6.25 Q6.8 6.65 7.2 6.3 L7.1 6.25 M17.65 14.7 L16.9 14.0 15.75 14.05 15.7 14.05 Q14.9 14.5 14.9 15.25 14.85 16.25 15.8 16.5 L16.75 16.45 17.3 16.25 Q18.1 15.65 17.65 14.7 M17.65 16.5 Q17.2 17.0 17.7 16.6 L17.65 16.5 M20.05 17.25 L19.4 16.7 18.25 16.7 17.4 17.7 Q17.3 18.65 18.2 19.35 19.1 19.65 19.75 19.0 20.6 18.2 20.05 17.25 M15.15 13.85 Q14.7 14.4 15.25 14.0 L15.15 13.85 M20.05 19.35 Q20.35 19.05 19.95 19.3 19.75 19.65 20.05 19.35" fill="#000000" fill-rule="evenodd" stroke="none"/>
    <path d="M27.85 29.1 L25.6 29.1 Q25.0 28.15 24.15 27.55 L23.9 27.45 25.05 26.05 Q26.2 25.15 27.45 24.4 L27.65 24.3 27.6 24.5 26.75 25.55 25.75 26.55 26.15 27.1 26.5 27.6 26.7 28.15 27.85 29.1 M2.1 1.55 L3.15 1.45 Q2.4 2.15 3.6 2.4 L3.8 2.3 3.35 3.1 2.9 3.4 Q2.1 3.3 1.8 2.6 L2.1 1.55 M4.15 2.45 L4.15 2.5 4.1 2.5 4.15 2.45 M22.55 20.45 L21.85 21.35 20.95 21.1 20.55 20.15 20.8 19.45 21.85 19.4 Q21.35 20.2 22.3 20.5 L22.55 20.45 M25.45 23.75 L25.1 24.4 23.9 24.55 23.7 24.35 Q22.7 23.3 23.65 22.1 L24.9 22.2 24.4 22.55 Q24.55 23.45 25.45 23.75 M11.65 8.65 L11.4 8.95 11.4 9.35 12.15 9.6 12.05 9.9 11.1 10.65 10.4 10.15 10.2 9.25 10.4 8.85 11.65 8.65 M14.8 12.2 L14.55 12.9 13.6 13.15 Q12.65 12.55 12.95 11.4 L14.3 11.2 14.15 11.55 14.7 12.2 14.8 12.2 M6.65 4.75 L6.25 5.55 5.3 5.6 Q4.8 5.3 4.75 4.65 L4.75 4.15 5.0 3.8 6.15 3.7 Q5.65 4.25 6.4 4.65 L6.65 4.75 M7.85 6.15 L8.95 6.1 Q8.35 6.3 8.8 6.85 9.15 7.2 9.45 7.05 L9.2 7.65 Q8.5 8.15 7.9 7.65 L7.55 7.4 7.65 6.5 7.85 6.15 M16.9 14.0 Q16.35 14.45 17.0 14.95 L17.25 15.05 16.6 15.8 Q15.75 16.0 15.4 15.15 L15.7 14.05 15.75 14.05 16.9 14.0 M19.4 16.7 L19.2 16.9 Q19.1 17.1 19.15 17.4 L19.8 17.7 19.85 17.75 19.6 18.2 18.8 18.5 18.05 18.1 17.85 17.2 18.25 16.7 19.4 16.7" fill="#dde0e3" fill-rule="evenodd" stroke="none"/>
    <path d="M26.95 24.3 L27.4 23.9 27.75 24.0 28.15 24.45 Q28.45 25.25 29.1 25.95 L29.1 28.7 28.75 29.1 27.85 29.1 26.7 28.15 26.5 27.6 26.15 27.1 25.75 26.55 26.75 25.55 27.6 24.5 27.65 24.3 27.45 24.4 Q26.2 25.15 25.05 26.05 L26.95 24.3 M3.15 1.45 L3.9 2.05 3.8 2.3 3.6 2.4 Q2.4 2.15 3.15 1.45 M22.55 20.45 L22.3 20.5 Q21.35 20.2 21.85 19.4 L22.65 20.15 22.55 20.45 M25.75 23.05 L25.45 23.75 Q24.55 23.45 24.4 22.55 L24.9 22.2 25.75 23.05 M11.65 8.65 L12.4 9.2 12.15 9.6 11.4 9.35 11.4 8.95 11.65 8.65 M14.95 11.65 L14.8 12.2 14.7 12.2 14.15 11.55 14.3 11.2 14.95 11.65 M6.9 4.35 L6.65 4.75 6.4 4.65 Q5.65 4.25 6.15 3.7 L6.9 4.35 M9.45 7.05 Q9.15 7.2 8.8 6.85 8.35 6.3 8.95 6.1 L9.65 6.7 9.45 7.05 M16.9 14.0 L17.65 14.7 17.25 15.05 17.0 14.95 Q16.35 14.45 16.9 14.0 M19.85 17.75 L19.8 17.7 19.15 17.4 Q19.1 17.1 19.2 16.9 L19.4 16.7 20.05 17.25 19.85 17.75" fill="#ffffff" fill-rule="evenodd" stroke="none"/>
    <path d="M1.25 2.8 L1.4 2.3 1.5 2.1 2.1 1.55 1.8 2.6 Q2.1 3.3 2.9 3.4 L3.35 3.1 3.8 2.3 3.9 2.05 4.15 2.45 4.1 2.5 4.15 2.5 4.15 3.25 3.15 4.25 Q2.35 4.35 1.75 3.75 1.25 3.25 1.25 2.8 M20.8 19.45 L20.55 20.15 20.95 21.1 21.85 21.35 22.55 20.45 22.65 20.15 22.8 20.85 Q22.65 21.85 21.8 22.15 L20.9 21.85 Q19.0 20.7 20.8 19.45 M22.6 22.4 Q22.1 22.2 22.65 21.9 23.05 22.15 22.6 22.4 M23.65 22.1 Q22.7 23.3 23.7 24.35 L23.9 24.55 25.1 24.4 25.45 23.75 25.75 23.05 Q26.3 23.9 25.45 25.0 24.95 25.7 24.1 25.75 L23.15 25.35 22.9 25.05 Q21.65 23.1 23.65 22.1 M12.15 9.6 L12.4 9.2 Q13.0 10.3 12.15 11.0 L11.65 11.4 10.7 11.15 Q9.85 10.8 9.8 9.95 9.8 9.2 10.4 8.85 L10.2 9.25 10.4 10.15 11.1 10.65 12.05 9.9 12.15 9.6 M12.65 11.2 L12.65 11.3 Q12.1 11.4 12.65 11.2 M14.8 12.2 L14.95 11.65 15.25 12.95 15.1 13.25 Q14.45 14.25 13.25 13.9 12.35 13.35 12.45 12.15 L12.95 11.4 Q12.65 12.55 13.6 13.15 L14.55 12.9 14.8 12.2 M5.0 3.8 L4.75 4.15 4.75 4.65 Q4.8 5.3 5.3 5.6 L6.25 5.55 6.65 4.75 6.9 4.35 6.95 5.1 6.5 6.0 Q5.6 6.9 4.65 6.0 3.9 5.15 4.5 4.2 L5.0 3.8 M7.85 6.15 L7.65 6.5 7.55 7.4 7.9 7.65 Q8.5 8.15 9.2 7.65 L9.45 7.05 9.65 6.7 9.8 7.55 Q9.9 8.55 8.9 8.85 8.0 9.0 7.5 8.4 6.45 7.05 7.85 6.15 M7.1 6.25 L7.2 6.3 Q6.8 6.65 7.1 6.25 M17.25 15.05 L17.65 14.7 Q18.1 15.65 17.3 16.25 L16.75 16.45 15.8 16.5 Q14.85 16.25 14.9 15.25 14.9 14.5 15.7 14.05 L15.4 15.15 Q15.75 16.0 16.6 15.8 L17.25 15.05 M17.65 16.5 L17.7 16.6 Q17.2 17.0 17.65 16.5 M19.85 17.75 L20.05 17.25 Q20.6 18.2 19.75 19.0 19.1 19.65 18.2 19.35 17.3 18.65 17.4 17.7 L18.25 16.7 17.85 17.2 18.05 18.1 18.8 18.5 19.6 18.2 19.85 17.75 M20.05 19.35 Q19.75 19.65 19.95 19.3 20.35 19.05 20.05 19.35 M15.15 13.85 L15.25 14.0 Q14.7 14.4 15.15 13.85" fill="#a5acb4" fill-rule="evenodd" stroke="none"/>
  </g>
</svg>
