<?xml version="1.0" encoding="UTF-8" standalone="no"?>
<svg xmlns:ffdec="https://www.free-decompiler.com/flash" xmlns:xlink="http://www.w3.org/1999/xlink" ffdec:objectType="shape" height="25.5px" width="23.95px" xmlns="http://www.w3.org/2000/svg">
  <g transform="matrix(1.0, 0.0, 0.0, 1.0, -3.05, -3.0)">
    <path d="M3.05 13.65 L3.25 11.5 Q3.95 7.6 7.3 5.4 10.3 3.35 14.05 3.05 18.25 2.7 21.95 4.55 26.45 6.75 26.95 11.85 27.35 16.45 23.55 19.45 L23.15 19.4 22.9 19.1 22.25 19.1 21.15 17.85 Q24.2 14.6 25.45 10.4 L25.5 10.1 25.3 9.8 20.4 17.2 19.35 16.6 Q21.4 12.8 22.15 8.4 L22.5 6.6 Q19.9 11.0 18.45 16.2 L18.3 16.25 16.1 15.8 15.85 8.0 15.65 5.15 14.9 4.85 14.8 9.35 15.15 15.8 13.4 16.05 10.0 8.65 8.9 6.65 Q9.95 11.75 12.45 16.3 L10.3 17.4 Q8.7 14.55 6.55 12.0 L5.35 10.65 5.2 11.25 Q6.5 14.2 8.65 16.55 L9.75 17.8 8.65 19.0 8.4 19.0 Q4.55 16.85 3.65 12.65 L3.45 11.6 3.05 13.65" fill="#ffffff" fill-rule="evenodd" stroke="none"/>
    <path d="M3.05 13.65 L3.45 11.6 3.65 12.65 Q4.55 16.85 8.4 19.0 L8.2 19.6 7.3 19.3 Q3.85 17.5 3.05 13.65 M9.75 17.8 L8.65 16.55 Q6.5 14.2 5.2 11.25 L5.35 10.65 6.55 12.0 Q8.7 14.55 10.3 17.4 L10.3 17.45 10.25 17.5 10.15 17.75 9.75 17.8 M12.45 16.3 Q9.95 11.75 8.9 6.65 L10.0 8.65 13.4 16.05 13.4 16.5 12.75 16.55 12.45 16.3 M15.15 15.8 L14.8 9.35 14.9 4.85 15.65 5.15 15.85 8.0 16.1 15.8 15.95 16.05 15.65 16.15 15.25 16.05 15.15 15.8 M18.45 16.2 Q19.9 11.0 22.5 6.6 L22.15 8.4 Q21.4 12.8 19.35 16.6 L18.9 16.7 18.6 16.55 18.45 16.2 M20.4 17.2 L25.3 9.8 25.5 10.1 25.45 10.4 Q24.2 14.6 21.15 17.85 L21.1 17.9 20.6 17.75 20.4 17.35 20.4 17.2" fill="#cccccc" fill-rule="evenodd" stroke="none"/>
    <path d="M8.4 19.0 L8.65 19.0 9.7 19.85 Q11.35 21.25 13.4 22.0 L13.4 23.25 12.4 22.75 Q10.1 21.45 8.2 19.6 L8.4 19.0 M18.3 16.25 L18.45 16.2 18.6 16.55 18.9 16.7 17.95 18.45 17.05 20.15 17.95 19.55 20.4 17.35 20.6 17.75 21.1 17.9 19.75 19.4 17.2 21.55 17.25 22.35 18.65 21.7 Q20.6 20.7 22.25 19.1 L22.9 19.1 23.15 19.4 Q21.9 21.0 20.1 21.85 L17.35 23.0 17.05 28.0 16.7 28.4 16.4 28.1 16.3 27.2 14.95 27.15 14.05 20.35 13.6 20.15 12.75 16.55 13.4 16.5 14.8 19.7 15.25 16.05 15.65 16.15 15.95 19.8 18.3 16.25 M13.45 21.4 L12.55 20.85 Q11.0 19.65 10.15 17.75 L10.25 17.5 10.9 17.9 Q12.45 18.9 13.5 20.2 L13.45 21.4" fill="#c7bd9e" fill-rule="evenodd" stroke="none"/>
    <path d="M16.7 28.4 L13.95 28.5 13.4 28.2 13.4 23.25 13.4 22.0 13.45 21.4 13.5 20.2 13.6 20.15 14.05 20.35 14.95 27.15 16.3 27.2 16.4 28.1 16.7 28.4" fill="#958257" fill-rule="evenodd" stroke="none"/>
  </g>
</svg>
