<?xml version="1.0" encoding="UTF-8" standalone="no"?>
<svg xmlns:ffdec="https://www.free-decompiler.com/flash" xmlns:xlink="http://www.w3.org/1999/xlink" ffdec:objectType="shape" height="27.15px" width="27.65px" xmlns="http://www.w3.org/2000/svg">
  <g transform="matrix(1.0, 0.0, 0.0, 1.0, -1.3, -1.75)">
    <path d="M19.55 2.2 L19.55 2.25 18.85 2.25 19.55 2.2 M22.95 2.4 L23.0 2.4 23.0 2.5 22.95 2.4 M15.65 5.05 L15.7 4.65 15.9 4.2 15.65 5.05 M17.8 2.55 L18.55 2.3 18.65 2.3 17.8 2.6 17.8 2.55 M23.9 7.95 L23.95 7.9 24.0 7.9 23.9 7.95 M15.95 5.15 L15.95 5.05 Q15.95 4.3 16.5 3.9 L16.55 3.95 15.95 5.15 M19.4 4.85 L19.3 5.0 19.25 5.0 19.4 4.85 M19.15 11.6 L19.25 11.55 19.15 11.6" fill="#999999" fill-rule="evenodd" stroke="none"/>
    <path d="M19.55 2.25 L21.3 2.15 22.3 1.95 20.15 2.8 Q20.65 4.15 19.65 5.3 L20.85 6.5 21.1 6.65 22.15 4.95 22.7 3.65 23.0 2.5 23.0 2.4 23.05 2.25 23.2 2.9 Q23.0 5.15 21.4 6.9 L21.1 7.2 20.7 7.5 19.95 8.1 19.5 8.5 19.3 8.65 19.1 8.8 20.4 7.95 21.3 7.2 22.05 6.4 22.65 5.45 23.1 4.5 23.3 3.65 23.75 2.15 Q24.5 2.1 25.2 2.55 L25.65 3.5 25.55 3.0 25.2 2.25 25.7 2.0 27.15 2.3 27.9 2.65 28.15 3.25 Q28.05 4.55 27.55 5.8 L26.9 7.15 26.0 8.4 25.1 9.65 24.0 10.75 22.8 11.7 21.55 12.5 20.25 13.25 18.85 13.95 17.45 14.6 16.1 15.25 15.1 15.75 13.35 17.05 12.05 18.15 11.15 19.0 10.65 19.5 8.6 22.1 8.2 22.75 7.8 23.35 7.15 24.7 6.8 25.4 6.45 26.1 6.1 26.9 Q4.8 27.6 3.3 27.55 L2.7 27.25 1.55 26.65 1.65 25.4 2.2 23.9 2.6 23.15 3.85 24.15 5.1 24.95 6.3 23.45 7.4 21.95 8.5 20.5 9.6 19.2 10.65 18.05 11.15 17.45 12.2 16.25 13.25 15.1 11.05 13.3 11.9 12.55 13.0 11.75 Q13.5 11.35 14.05 11.1 L14.1 11.25 14.2 11.5 14.45 11.8 15.15 12.2 16.4 12.35 16.6 12.3 16.7 12.3 19.15 11.6 18.45 9.85 16.55 10.0 16.35 10.0 Q15.45 10.05 14.75 9.55 L14.7 9.5 14.55 9.5 14.2 9.1 14.3 8.95 Q14.4 8.55 14.6 8.5 L14.5 8.2 14.45 7.95 14.55 7.8 14.8 8.05 14.8 8.15 Q14.95 9.0 15.25 8.15 L15.65 7.25 16.05 6.25 15.65 5.05 15.9 4.2 16.2 3.85 16.5 3.9 Q15.95 4.3 15.95 5.05 L15.95 5.15 16.0 5.25 16.1 5.6 17.35 4.25 16.85 3.7 16.8 3.55 17.8 3.85 18.95 3.05 Q19.9 2.45 18.95 2.55 L19.0 2.5 18.8 2.6 18.7 2.6 17.9 2.8 17.15 3.15 17.8 2.6 18.65 2.3 18.75 2.25 18.85 2.25 19.55 2.25 M24.0 7.9 L24.95 6.35 25.6 4.65 25.65 4.5 25.25 5.4 24.3 6.95 23.15 8.45 22.55 9.1 21.9 9.7 21.25 10.3 20.55 10.8 Q22.55 9.7 23.9 7.95 L24.0 7.9 M19.8 3.05 L19.8 3.0 19.1 3.3 17.95 4.15 19.3 5.0 19.4 4.85 19.85 3.95 19.9 3.25 19.8 3.05 M18.85 5.4 L17.65 4.4 16.65 5.8 Q16.55 5.9 16.6 6.05 L16.7 6.1 17.85 6.05 18.95 5.5 18.85 5.4 M20.55 7.05 Q20.2 6.3 19.25 5.75 L18.75 6.05 16.95 6.6 16.25 6.35 15.45 8.85 16.2 8.9 17.1 8.95 17.9 8.7 19.35 7.95 20.55 7.05 M15.95 9.45 L17.2 9.4 18.7 9.0 15.2 9.1 15.95 9.45 M19.15 11.6 L19.25 11.55 19.15 11.6 M10.4 13.85 L10.9 13.35 12.05 14.25 11.7 14.75 10.4 13.85 M7.9 16.45 L9.6 14.6 10.2 14.0 11.65 14.9 12.1 14.3 13.05 15.0 12.5 15.65 11.45 16.8 10.45 17.95 9.4 19.15 8.15 20.65 7.05 22.15 5.65 23.95 5.1 24.75 2.65 23.05 5.6 19.05 5.75 18.85 6.8 17.65 7.9 16.45" fill="#e4f1fa" fill-rule="evenodd" stroke="none"/>
    <path d="M27.9 2.65 Q28.65 3.3 28.65 4.2 L28.65 5.35 28.15 4.95 28.6 5.6 28.0 5.55 28.4 6.2 28.25 6.6 27.75 6.2 28.2 6.85 28.0 7.3 27.45 6.85 27.85 7.55 27.65 7.95 27.1 7.45 27.5 8.2 27.2 8.6 26.7 8.0 27.0 8.85 26.6 9.35 26.15 8.7 26.35 9.75 25.95 10.05 25.55 9.45 25.75 10.35 23.85 12.15 22.1 13.55 Q20.25 14.9 18.3 15.75 L15.7 17.05 Q14.75 17.55 13.95 18.15 L11.35 20.55 Q10.3 21.7 9.4 23.05 8.7 24.15 8.45 25.55 8.3 26.35 8.3 27.25 7.7 28.4 6.25 28.6 L3.8 28.7 Q2.1 28.35 1.55 26.65 L2.7 27.25 3.3 27.55 Q4.8 27.6 6.1 26.9 L6.45 26.1 6.8 25.4 7.15 24.7 7.8 23.35 8.2 22.75 8.6 22.1 10.65 19.5 11.15 19.0 12.05 18.15 13.35 17.05 15.1 15.75 16.1 15.25 17.45 14.6 18.85 13.95 20.25 13.25 21.55 12.5 22.8 11.7 24.0 10.75 25.1 9.65 26.0 8.4 26.9 7.15 27.55 5.8 Q28.05 4.55 28.15 3.25 L27.9 2.65 M19.15 11.6 L18.9 11.65 16.7 12.2 15.15 12.0 14.45 11.4 14.25 10.3 14.2 9.35 14.2 9.1 14.55 9.5 14.7 9.5 14.75 9.55 Q15.45 10.05 16.35 10.0 L16.55 10.0 18.45 9.85 19.15 11.6 M23.15 14.55 L22.45 13.75 25.0 11.4 23.15 14.55" fill="#adc8d1" fill-rule="evenodd" stroke="none"/>
    <path d="M23.15 14.55 L21.65 14.35 22.45 13.75 23.15 14.55" fill="#77a3b3" fill-rule="evenodd" stroke="none"/>
    <path d="M21.25 1.85 L22.7 1.75 23.7 1.85 24.85 2.05 26.75 1.8 27.8 2.3 Q28.75 2.95 28.9 4.0 29.05 5.35 28.6 6.45 L28.3 7.2 27.5 8.65 26.55 9.9 25.45 11.3 Q24.0 13.1 23.2 14.95 L21.25 14.5 19.2 15.6 17.85 16.2 16.4 16.85 15.25 17.5 13.25 19.05 12.3 20.05 11.85 20.6 10.95 21.65 9.8 23.1 9.25 24.15 Q8.85 25.25 8.8 26.4 L8.6 27.45 7.4 28.25 6.4 28.75 4.6 28.9 3.2 28.65 Q2.6 28.5 2.15 28.05 1.5 27.6 1.35 26.8 L1.3 26.6 1.4 25.2 1.6 24.45 2.2 23.4 2.85 22.4 3.85 21.15 4.85 19.85 5.85 18.6 6.85 17.3 7.75 16.25 8.65 15.2 9.85 14.05 11.1 12.9 12.4 11.8 13.95 10.75 14.15 8.9 Q14.2 8.4 14.4 8.0 L14.45 7.95 14.5 8.2 14.6 8.5 Q14.4 8.55 14.3 8.95 L14.2 9.1 14.2 9.35 14.25 10.3 14.45 11.4 15.15 12.0 16.7 12.2 18.9 11.65 19.15 11.6 16.7 12.3 16.6 12.3 16.4 12.35 15.15 12.2 14.45 11.8 14.2 11.5 14.1 11.25 14.05 11.1 Q13.5 11.35 13.0 11.75 L11.9 12.55 11.05 13.3 13.25 15.1 12.2 16.25 11.15 17.45 10.65 18.05 9.6 19.2 8.5 20.5 7.4 21.95 6.3 23.45 5.1 24.95 3.85 24.15 2.6 23.15 2.2 23.9 1.65 25.4 1.55 26.65 Q2.1 28.35 3.8 28.7 L6.25 28.6 Q7.7 28.4 8.3 27.25 8.3 26.35 8.45 25.55 8.7 24.15 9.4 23.05 10.3 21.7 11.35 20.55 L13.95 18.15 Q14.75 17.55 15.7 17.05 L18.3 15.75 Q20.25 14.9 22.1 13.55 L23.85 12.15 25.75 10.35 25.55 9.45 25.95 10.05 26.35 9.75 26.15 8.7 26.6 9.35 27.0 8.85 26.7 8.0 27.2 8.6 27.5 8.2 27.1 7.45 27.65 7.95 27.85 7.55 27.45 6.85 28.0 7.3 28.2 6.85 27.75 6.2 28.25 6.6 28.4 6.2 28.0 5.55 28.6 5.6 28.15 4.95 28.65 5.35 28.65 4.2 Q28.65 3.3 27.9 2.65 L27.15 2.3 25.7 2.0 25.2 2.25 25.55 3.0 25.65 3.5 25.2 2.55 Q24.5 2.1 23.75 2.15 L23.3 3.65 23.1 4.5 22.65 5.45 22.05 6.4 21.3 7.2 20.4 7.95 19.1 8.8 19.3 8.65 19.5 8.5 19.95 8.1 20.7 7.5 21.1 7.2 21.4 6.9 Q23.0 5.15 23.2 2.9 L23.05 2.25 23.0 2.4 22.95 2.4 20.55 2.9 20.5 3.65 Q20.55 4.6 19.65 5.3 20.65 4.15 20.15 2.8 L22.3 1.95 21.3 2.15 19.55 2.25 19.55 2.2 19.65 2.25 20.6 2.1 21.25 1.85 M14.55 7.8 L14.8 7.45 14.8 8.05 14.55 7.8 M15.6 5.7 L15.65 5.05 16.05 6.25 15.65 7.25 15.25 8.15 Q14.95 9.0 14.8 8.15 L15.25 7.35 15.6 5.7 M16.2 3.85 L17.8 2.55 17.8 2.6 17.15 3.15 17.9 2.8 18.7 2.6 17.95 3.1 17.4 3.6 17.55 3.5 18.95 2.55 Q19.9 2.45 18.95 3.05 L17.8 3.85 16.8 3.55 16.85 3.7 17.35 4.25 16.1 5.6 16.65 4.3 16.55 3.95 16.5 3.9 16.2 3.85 M23.9 7.95 Q22.55 9.7 20.55 10.8 L21.25 10.3 21.9 9.7 22.55 9.1 23.15 8.45 24.3 6.95 25.25 5.4 25.65 4.5 25.6 4.65 24.95 6.35 24.0 7.9 23.95 7.9 23.9 7.95 M21.1 6.65 L20.85 6.5 19.65 5.3 21.1 6.65 M22.45 13.75 L21.65 14.35 23.15 14.55 25.0 11.4 22.45 13.75 M19.3 5.0 L17.95 4.15 19.1 3.3 19.8 3.0 19.8 3.05 18.2 4.15 19.25 5.0 19.3 5.0 M16.6 6.05 Q16.55 5.9 16.65 5.8 L17.65 4.4 18.85 5.4 17.75 4.6 16.6 6.05 M18.85 5.4 L18.95 5.5 17.85 6.05 18.85 5.4 M16.2 8.9 L15.45 8.85 16.25 6.35 16.95 6.6 18.75 6.05 19.25 5.75 Q20.2 6.3 20.55 7.05 L19.25 5.9 18.4 6.35 17.6 6.7 16.55 6.75 16.45 6.75 15.75 8.85 16.2 8.9 M15.95 9.45 L15.2 9.1 18.7 9.0 17.2 9.4 15.95 9.45 M7.9 16.45 L6.8 17.65 5.75 18.85 5.6 19.05 2.65 23.05 5.1 24.75 5.65 23.95 7.05 22.15 8.15 20.65 9.4 19.15 10.45 17.95 11.45 16.8 12.5 15.65 13.05 15.0 12.1 14.3 11.65 14.9 10.2 14.0 9.6 14.6 7.9 16.45 M10.4 13.85 L11.7 14.75 12.05 14.25 10.9 13.35 10.4 13.85" fill="#666666" fill-rule="evenodd" stroke="none"/>
    <path d="M21.25 1.85 L20.6 2.1 19.65 2.25 21.25 1.85 M19.65 5.3 Q20.55 4.6 20.5 3.65 L20.55 2.9 22.95 2.4 23.0 2.5 22.7 3.65 22.15 4.95 21.1 6.65 19.65 5.3 M14.8 7.45 L15.25 6.4 15.6 5.7 15.25 7.35 14.8 8.15 14.8 8.05 14.8 7.45 M18.7 2.6 L18.8 2.6 19.0 2.5 18.95 2.55 17.55 3.5 17.4 3.6 18.7 2.6 M16.1 5.6 L16.0 5.25 16.65 4.3 16.1 5.6 M19.8 3.05 L19.9 3.25 19.85 3.95 19.4 4.85 19.25 5.0 18.2 4.15 19.8 3.05 M16.6 6.05 L17.75 4.6 18.85 5.4 17.85 6.05 16.7 6.1 16.6 6.05 M20.55 7.05 L19.35 7.95 17.9 8.7 17.1 8.95 16.2 8.9 15.75 8.85 16.45 6.75 16.55 6.75 17.6 6.7 18.4 6.35 19.25 5.9 20.55 7.05" fill="#133d53" fill-rule="evenodd" stroke="none"/>
  </g>
</svg>
