<?xml version="1.0" encoding="UTF-8" standalone="no"?>
<svg xmlns:ffdec="https://www.free-decompiler.com/flash" xmlns:xlink="http://www.w3.org/1999/xlink" ffdec:objectType="shape" height="22.15px" width="28.15px" xmlns="http://www.w3.org/2000/svg">
  <g transform="matrix(1.0, 0.0, 0.0, 1.0, -0.95, -5.1)">
    <path d="M24.35 11.35 L25.15 11.05 26.4 10.4 Q26.55 9.4 25.75 8.85 L24.8 8.3 24.2 8.0 23.55 7.65 23.35 7.3 24.75 7.8 Q25.7 8.35 26.35 9.3 26.7 9.9 26.7 10.65 25.3 11.7 23.55 12.1 L17.75 13.0 16.95 13.05 12.05 12.95 10.2 12.7 4.4 11.35 3.8 11.0 3.4 10.65 Q3.4 9.55 4.2 8.75 L5.45 7.8 5.6 7.8 6.8 7.35 6.55 7.65 4.9 8.55 4.6 8.7 Q3.6 9.2 3.75 10.4 L5.55 11.3 5.75 11.35 5.9 11.4 Q6.5 11.9 7.25 11.85 L7.45 11.95 10.35 12.3 11.1 12.55 13.45 12.7 16.15 12.6 16.85 12.65 18.5 12.5 22.15 12.15 22.7 12.0 23.0 11.9 Q23.7 11.85 24.2 11.4 L24.35 11.35 M26.3 7.3 L27.7 8.1 Q28.7 8.7 29.1 9.9 L29.1 10.25 Q28.5 14.25 28.75 18.35 L28.85 19.8 28.95 22.1 28.6 23.35 28.2 23.8 27.55 24.25 27.3 24.4 26.15 25.3 Q24.85 26.05 23.35 26.4 L21.65 26.75 11.7 27.15 8.15 26.7 7.0 26.45 Q5.45 26.1 4.1 25.4 L3.1 24.6 2.7 24.3 1.6 23.4 Q1.05 22.55 1.15 21.6 L1.3 20.2 Q1.6 16.25 1.15 12.3 L1.0 10.9 Q0.9 10.4 1.05 9.95 L1.25 9.4 1.75 8.6 2.05 8.4 Q3.55 7.55 5.15 6.8 5.6 6.35 6.2 6.2 L9.45 5.6 12.35 5.25 16.2 5.1 19.45 5.4 22.25 5.7 Q23.2 5.95 24.15 6.35 L26.3 7.3 M27.6 22.6 Q27.4 20.65 27.35 18.65 L27.3 15.1 Q27.3 13.15 27.65 11.3 L27.7 10.8 27.45 10.1 27.75 10.5 27.8 10.95 27.6 13.15 Q27.05 17.85 27.85 22.45 L27.8 23.45 28.45 22.45 28.55 21.45 Q28.25 19.45 28.25 17.5 L28.25 15.3 28.45 13.1 28.7 10.1 28.65 9.8 Q27.95 8.3 26.55 7.6 24.9 6.8 23.15 6.3 L19.75 5.65 16.5 5.5 14.0 5.5 10.65 5.8 6.75 6.5 6.65 6.5 6.65 6.55 5.45 6.8 3.9 7.5 3.55 7.7 Q2.0 8.4 1.45 9.95 1.3 10.35 1.4 10.75 L1.65 12.35 Q2.1 15.85 1.85 19.35 L1.6 21.15 1.6 21.5 1.6 21.55 Q1.55 22.55 2.2 23.3 L2.3 23.45 2.3 22.25 2.75 18.3 2.65 15.5 2.35 11.7 Q2.25 11.05 2.5 10.45 L2.65 10.1 Q2.25 11.1 2.5 12.2 L2.8 14.1 2.9 16.05 2.85 18.8 2.55 22.6 2.65 23.75 4.1 24.75 4.2 23.4 4.4 20.15 4.3 16.4 4.1 12.6 Q4.1 12.2 4.35 12.0 4.15 13.8 4.3 15.7 L4.5 19.15 4.45 22.05 4.35 23.5 Q4.2 24.1 4.4 24.75 L4.45 24.9 6.75 25.95 6.75 24.55 6.95 20.65 6.85 16.75 6.7 14.0 Q6.65 13.35 7.0 12.85 6.8 15.2 7.1 17.65 L7.15 19.5 7.0 23.15 6.9 24.6 6.85 25.65 7.1 26.0 10.15 26.5 10.05 25.15 10.35 21.2 10.25 17.6 10.1 14.45 10.2 13.6 10.3 16.0 10.45 19.7 10.3 23.9 10.2 25.35 10.55 26.5 13.6 26.7 13.6 25.75 13.5 22.9 13.5 19.9 13.4 17.25 13.4 14.2 13.45 13.95 13.5 14.55 13.6 16.95 13.7 19.6 13.7 21.35 Q13.6 22.65 13.65 24.0 L13.7 25.75 13.85 26.7 16.3 26.7 16.45 25.75 16.5 22.0 16.45 19.3 16.65 15.55 16.65 13.9 16.8 15.45 16.75 16.35 16.6 18.2 16.6 22.9 16.55 25.75 16.5 26.7 19.6 26.5 19.9 25.4 19.8 22.4 19.7 19.3 19.8 15.6 19.9 13.6 20.0 14.5 19.85 18.35 Q19.8 20.2 19.9 22.05 L20.05 25.4 19.95 26.5 23.0 26.0 23.1 25.9 23.15 25.8 23.2 24.45 23.0 21.3 23.0 17.9 23.15 14.15 23.1 12.85 23.35 13.6 23.4 16.0 Q23.15 18.4 23.15 20.8 23.1 22.8 23.4 24.75 L23.4 25.95 25.7 24.9 25.8 23.7 Q25.65 21.75 25.65 19.8 L25.75 16.4 25.9 13.0 25.8 12.0 26.05 12.9 26.05 13.75 Q25.85 15.65 25.8 17.6 25.7 20.65 25.95 23.7 L26.0 24.75 27.5 23.75 27.6 22.6" fill="#372e1e" fill-rule="evenodd" stroke="none"/>
    <path d="M23.55 7.65 L23.3 7.75 Q22.3 7.05 21.15 7.1 L20.65 6.75 19.8 6.7 19.35 6.45 Q18.7 6.65 18.1 6.45 L17.95 6.45 Q17.35 6.65 16.9 6.25 L12.6 6.4 12.45 6.25 Q11.15 6.3 10.0 6.7 L9.65 6.8 Q9.25 6.8 9.0 7.1 7.75 7.05 6.7 7.75 L6.55 7.65 6.8 7.35 5.6 7.8 5.45 7.8 4.2 8.75 Q3.4 9.55 3.4 10.65 L3.8 11.0 4.4 11.35 10.2 12.7 12.05 12.95 16.95 13.05 17.75 13.0 23.55 12.1 Q25.3 11.7 26.7 10.65 26.7 9.9 26.35 9.3 25.7 8.35 24.75 7.8 L23.35 7.3 23.55 7.65 M5.75 11.35 L5.9 11.35 5.9 11.4 5.75 11.35 M24.25 11.35 L24.35 11.35 24.2 11.4 24.25 11.35 M27.85 22.45 Q27.05 17.85 27.6 13.15 L27.8 10.95 27.75 10.5 27.45 10.1 27.7 10.8 27.65 11.3 Q27.3 13.15 27.3 15.1 L27.35 18.65 Q27.4 20.65 27.6 22.6 L25.95 23.7 Q25.7 20.65 25.8 17.6 25.85 15.65 26.05 13.75 L26.05 12.9 25.8 12.0 25.9 13.0 25.75 16.4 25.65 19.8 Q25.65 21.75 25.8 23.7 L25.75 23.8 Q24.7 24.55 23.4 24.75 23.1 22.8 23.15 20.8 23.15 18.4 23.4 16.0 L23.35 13.6 23.1 12.85 23.15 14.15 23.0 17.9 23.0 21.3 23.2 24.45 23.25 24.8 20.05 25.4 19.9 22.05 Q19.8 20.2 19.85 18.35 L20.0 14.5 19.9 13.6 19.8 15.6 19.7 19.3 19.8 22.4 19.9 25.4 18.85 25.55 16.55 25.75 16.6 22.9 16.6 18.2 16.75 16.35 16.8 15.45 16.65 13.9 16.65 15.55 16.45 19.3 16.5 22.0 16.45 25.75 15.95 25.75 15.5 25.7 13.7 25.75 13.65 24.0 Q13.6 22.65 13.7 21.35 L13.7 19.6 13.6 16.95 13.5 14.55 13.45 13.95 13.4 14.2 13.4 17.25 13.5 19.9 13.5 22.9 13.6 25.75 10.2 25.35 10.3 23.9 10.45 19.7 10.3 16.0 10.2 13.6 10.1 14.45 10.25 17.6 10.35 21.2 10.05 25.15 10.05 25.35 9.7 25.35 6.9 24.6 7.0 23.15 7.15 19.5 7.1 17.65 Q6.8 15.2 7.0 12.85 6.65 13.35 6.7 14.0 L6.85 16.75 6.95 20.65 6.75 24.55 6.45 24.5 Q5.3 24.15 4.35 23.5 L4.45 22.05 4.5 19.15 4.3 15.7 Q4.15 13.8 4.35 12.0 4.1 12.2 4.1 12.6 L4.3 16.4 4.4 20.15 4.2 23.4 2.55 22.6 2.85 18.8 2.9 16.05 2.8 14.1 2.5 12.2 Q2.25 11.1 2.65 10.1 L2.5 10.45 Q2.25 11.05 2.35 11.7 L2.65 15.5 2.75 18.3 2.3 22.25 1.6 21.15 1.85 19.35 Q2.1 15.85 1.65 12.35 L1.4 10.75 Q1.3 10.35 1.45 9.95 2.0 8.4 3.55 7.7 L3.9 7.5 5.45 6.8 6.65 6.55 6.65 6.5 6.75 6.5 10.65 5.8 14.0 5.5 16.5 5.5 19.75 5.65 23.15 6.3 Q24.9 6.8 26.55 7.6 27.95 8.3 28.65 9.8 L28.7 10.1 28.45 13.1 28.25 15.3 28.25 17.5 Q28.25 19.45 28.55 21.45 L28.3 21.9 27.85 22.45" fill="#c7bd9e" fill-rule="evenodd" stroke="none"/>
    <path d="M23.55 7.65 L24.2 8.0 24.8 8.3 25.75 8.85 Q26.55 9.4 26.4 10.4 L25.15 11.05 24.35 11.35 24.25 11.35 Q23.65 10.65 22.8 10.45 L21.45 10.1 17.85 9.25 14.15 9.05 10.25 9.75 6.15 10.95 5.9 11.35 5.75 11.35 5.55 11.3 3.75 10.4 Q3.6 9.2 4.6 8.7 L4.9 8.55 6.55 7.65 6.7 7.75 Q7.75 7.05 9.0 7.1 9.25 6.8 9.65 6.8 L10.0 6.7 Q11.15 6.3 12.45 6.25 L12.6 6.4 16.9 6.25 Q17.35 6.65 17.95 6.45 L18.1 6.45 Q18.7 6.65 19.35 6.45 L19.8 6.7 20.65 6.75 21.15 7.1 Q22.3 7.05 23.3 7.75 L23.55 7.65 M27.85 22.45 L28.3 21.9 28.55 21.45 28.45 22.45 27.8 23.45 27.85 22.45 M1.6 21.15 L2.3 22.25 2.3 23.45 2.2 23.3 Q1.55 22.55 1.6 21.55 L1.6 21.5 1.6 21.15 M2.55 22.6 L4.2 23.4 4.1 24.75 2.65 23.75 2.55 22.6 M4.35 23.5 Q5.3 24.15 6.45 24.5 L6.75 24.55 6.75 25.95 4.45 24.9 4.4 24.75 Q4.2 24.1 4.35 23.5 M6.9 24.6 L9.7 25.35 10.05 25.35 10.05 25.15 10.15 26.5 7.1 26.0 6.85 25.65 6.9 24.6 M10.2 25.35 L13.6 25.75 13.6 26.7 10.55 26.5 10.2 25.35 M13.7 25.75 L15.5 25.7 15.95 25.75 16.45 25.75 16.3 26.7 13.85 26.7 13.7 25.75 M16.55 25.75 L18.85 25.55 19.9 25.4 19.6 26.5 16.5 26.7 16.55 25.75 M20.05 25.4 L23.25 24.8 23.2 24.45 23.15 25.8 23.1 25.9 23.0 26.0 19.95 26.5 20.05 25.4 M23.4 24.75 Q24.7 24.55 25.75 23.8 L25.8 23.7 25.7 24.9 23.4 25.95 23.4 24.75 M25.95 23.7 L27.6 22.6 27.5 23.75 26.0 24.75 25.95 23.7" fill="#ac986a" fill-rule="evenodd" stroke="none"/>
    <path d="M5.9 11.35 L6.15 10.95 10.25 9.75 14.15 9.05 17.85 9.25 21.45 10.1 22.8 10.45 Q23.65 10.65 24.25 11.35 L24.2 11.4 Q23.7 11.85 23.0 11.9 L22.7 12.0 22.15 12.15 18.5 12.5 16.85 12.65 16.15 12.6 13.45 12.7 11.1 12.55 10.35 12.3 7.45 11.95 7.25 11.85 Q6.5 11.9 5.9 11.4 L5.9 11.35" fill="#836d4b" fill-rule="evenodd" stroke="none"/>
  </g>
</svg>
