<?xml version="1.0" encoding="UTF-8" standalone="no"?>
<svg xmlns:ffdec="https://www.free-decompiler.com/flash" xmlns:xlink="http://www.w3.org/1999/xlink" ffdec:objectType="shape" height="27.55px" width="27.0px" xmlns="http://www.w3.org/2000/svg">
  <g transform="matrix(1.0, 0.0, 0.0, 1.0, -1.7, -1.5)">
    <path d="M22.8 11.4 L22.45 12.5 22.05 13.05 Q21.5 13.1 20.85 13.4 L20.5 12.9 20.5 12.7 20.5 12.65 20.45 12.55 20.35 12.5 20.2 12.55 20.05 12.8 20.0 12.95 20.65 13.8 Q22.5 13.8 23.2 11.9 23.5 11.05 23.0 9.85 L22.65 8.7 22.65 8.65 Q22.25 7.3 20.85 6.85 L20.2 6.7 19.6 7.0 18.05 6.4 17.3 6.95 17.15 7.45 17.25 7.4 17.4 7.4 17.9 6.75 18.6 6.85 19.35 7.25 19.35 7.3 Q21.45 6.6 22.35 8.75 22.85 9.9 22.8 11.4 M2.85 21.9 L3.55 19.85 Q4.7 12.9 8.4 6.8 L9.0 5.75 Q9.9 4.05 10.05 2.4 L10.2 2.25 12.05 2.85 12.8 3.2 18.1 4.2 Q22.2 5.2 25.55 7.35 L26.2 7.6 27.1 8.0 26.95 8.15 25.7 8.8 Q25.9 8.45 25.6 8.65 25.3 8.85 25.15 9.3 L25.6 9.95 Q25.15 10.65 25.05 11.4 24.3 15.6 22.65 19.55 L22.1 20.9 22.15 20.9 21.9 21.35 21.8 21.5 Q20.8 23.6 19.4 25.05 L19.2 25.25 19.05 25.35 18.8 25.25 18.3 26.2 18.3 26.25 18.25 26.2 17.95 25.65 Q14.65 25.6 11.55 24.4 L7.9 22.95 7.7 22.85 Q6.9 22.4 6.25 22.3 L6.05 22.25 5.75 22.0 5.7 21.35 4.4 21.4 4.85 19.7 3.9 21.7 2.85 21.9 M26.5 8.9 L26.45 9.0 26.45 8.95 26.5 8.9 M11.7 5.4 L12.65 5.35 13.05 5.85 11.7 6.55 Q11.85 6.9 12.2 6.8 L13.45 6.35 12.75 4.85 12.15 4.8 11.25 5.5 11.55 6.4 11.45 5.9 11.7 5.4 M13.75 8.9 L13.55 9.4 Q12.7 10.45 12.8 11.8 L12.9 12.35 Q13.75 13.25 14.95 12.65 16.0 11.9 16.3 10.65 L16.35 9.4 15.9 8.7 14.25 8.5 13.75 8.9 M14.65 7.4 L15.05 6.75 15.6 6.6 16.6 7.7 15.95 8.6 16.25 8.9 17.9 9.0 Q17.3 10.5 17.6 12.45 L17.8 12.75 18.05 12.45 18.7 9.5 18.8 9.0 20.0 8.85 20.2 8.4 Q20.2 7.9 19.3 7.8 L17.1 7.95 16.9 7.15 15.6 6.25 14.7 6.75 14.65 7.4 M12.45 7.75 L11.5 10.15 10.05 10.4 10.45 8.75 9.8 8.15 Q8.25 10.15 8.1 12.8 L8.3 13.3 8.75 13.15 9.85 11.3 10.95 11.0 10.8 12.55 Q10.75 13.15 11.25 13.4 L11.85 13.3 12.95 9.2 Q13.15 8.25 12.6 7.75 L12.45 7.75 M14.0 10.5 L14.35 9.85 15.05 9.55 Q15.9 9.85 15.0 11.0 L14.45 11.7 Q13.1 11.85 14.0 10.5 M6.55 14.9 Q5.7 16.05 6.35 17.35 6.9 18.6 8.35 18.55 L9.15 17.95 9.7 18.25 10.25 18.05 Q10.8 17.5 10.75 17.0 L10.65 16.65 10.3 17.55 9.4 17.5 8.3 17.9 7.4 17.85 Q6.4 16.65 6.95 14.9 L6.45 13.65 7.0 12.4 6.1 13.5 6.55 14.9 M18.25 13.1 L17.0 13.1 17.0 13.65 18.25 13.65 18.25 13.1 M17.3 16.1 Q17.1 16.1 16.95 16.25 16.75 16.35 16.8 16.55 L16.95 16.85 17.3 16.95 17.7 16.85 17.85 16.55 17.7 16.25 Q17.5 16.1 17.3 16.1 M16.7 13.15 L15.25 13.75 16.6 13.7 16.7 13.15 M16.3 14.6 L15.2 14.8 15.15 15.3 16.45 15.1 16.4 14.6 16.3 14.6 M18.6 14.4 L18.5 14.6 18.6 14.75 18.8 14.85 19.05 14.75 19.15 14.6 19.05 14.4 18.8 14.3 18.6 14.4 M18.0 15.0 L18.0 14.35 16.95 14.35 16.95 15.0 18.0 15.0 M16.9 16.0 L17.9 15.65 16.95 15.85 Q16.85 15.8 16.9 16.0 M18.9 16.05 L18.6 15.95 18.35 16.05 18.25 16.3 18.35 16.6 18.6 16.7 18.9 16.6 19.0 16.3 18.9 16.05 M19.0 15.55 L18.4 15.6 18.4 15.7 19.0 15.55 M16.4 16.0 L16.2 15.7 15.75 15.6 15.3 15.7 15.1 16.0 15.3 16.25 15.75 16.35 16.2 16.25 16.4 16.0 M16.15 16.9 L16.25 16.7 16.25 16.55 15.05 16.7 15.0 17.4 Q15.6 17.25 16.15 16.9 M13.0 13.7 L11.75 13.7 11.75 14.55 13.0 14.55 13.0 13.7 M14.65 16.5 L14.7 15.9 13.15 16.25 13.15 16.75 14.65 16.5 M11.6 17.6 L12.55 17.6 12.7 17.25 11.6 17.6 M11.75 16.65 L11.65 16.9 12.75 16.85 12.8 16.2 Q12.2 16.3 11.75 16.65 M11.4 13.95 L11.4 13.85 11.35 13.85 11.4 13.95 M14.85 14.05 L14.95 13.45 13.55 13.75 Q13.45 13.75 13.5 13.95 13.4 14.1 13.45 14.25 L14.85 14.05 M14.7 15.4 L14.75 14.85 13.35 15.05 13.35 15.65 13.5 15.6 14.7 15.4 M13.15 17.85 L14.65 17.5 14.65 16.85 13.15 17.15 13.15 17.85 M11.7 15.75 L12.8 15.75 12.8 15.2 11.7 15.2 11.7 15.75 M14.5 22.3 L16.0 22.55 Q18.0 22.25 19.15 20.75 L19.35 19.55 Q18.8 18.05 17.25 18.0 L16.45 18.6 16.1 18.4 Q15.3 17.95 15.0 19.0 L14.95 19.35 13.85 20.0 14.5 22.3 M14.35 20.1 L15.35 19.45 15.4 18.7 16.6 19.3 16.95 18.9 Q17.0 18.3 17.75 18.25 18.55 18.2 18.9 18.85 L19.05 19.25 Q18.95 20.75 17.65 21.75 16.45 22.65 15.0 22.05 L14.35 20.1" fill="#fddbca" fill-rule="evenodd" stroke="none"/>
    <path d="M28.4 7.15 L28.7 7.35 27.0 9.35 26.9 9.9 Q26.8 13.1 25.6 16.35 23.45 22.5 20.2 28.05 20.0 28.4 20.05 28.85 L19.65 29.05 19.15 29.0 18.75 28.8 17.85 28.0 15.35 27.55 13.0 27.3 Q7.95 25.75 3.65 22.95 L1.7 22.65 2.85 20.9 3.1 20.35 3.5 17.5 Q4.35 12.8 6.9 8.6 L8.6 5.55 9.25 4.25 9.85 1.5 15.05 3.15 19.35 4.25 Q22.75 5.2 25.65 6.85 L25.7 6.85 25.8 6.85 25.8 6.8 27.1 7.2 28.4 7.15 M26.95 8.15 L27.1 8.0 26.2 7.6 25.55 7.35 Q22.2 5.2 18.1 4.2 L12.8 3.2 12.05 2.85 10.2 2.25 10.05 2.4 Q9.9 4.05 9.0 5.75 L8.4 6.8 Q4.7 12.9 3.55 19.85 L2.85 21.9 Q2.5 22.0 3.05 22.3 L4.7 22.9 7.25 24.15 12.0 26.05 16.45 27.1 17.4 27.25 19.5 28.25 Q19.35 27.05 20.2 25.95 L21.9 23.5 Q25.8 16.7 26.45 9.0 L26.5 8.9 26.95 8.15 M3.9 21.7 L4.85 19.7 4.4 21.4 5.7 21.35 5.75 22.0 6.05 22.25 6.25 22.3 5.6 22.25 5.5 21.45 3.9 21.7 M7.9 22.95 L11.55 24.4 Q14.65 25.6 17.95 25.65 L18.25 26.2 18.15 26.2 17.75 26.05 16.5 25.7 Q12.0 25.05 7.9 22.95 M18.3 26.2 L18.8 25.25 19.05 25.35 19.2 25.25 19.4 25.05 Q20.8 23.6 21.8 21.5 L21.9 21.35 21.95 21.4 21.55 22.05 20.65 24.2 Q20.05 25.65 18.9 25.7 L18.5 26.15 18.3 26.2 M22.15 20.9 L22.1 20.9 22.65 19.55 Q24.3 15.6 25.05 11.4 25.15 10.65 25.6 9.95 L25.15 9.3 Q25.3 8.85 25.6 8.65 25.9 8.45 25.7 8.8 L25.5 9.4 25.5 9.45 25.65 9.7 25.5 10.8 24.95 13.5 Q24.25 17.45 22.15 20.9" fill="#742c05" fill-rule="evenodd" stroke="none"/>
    <path d="M2.85 21.9 L3.9 21.7 5.5 21.45 5.6 22.25 6.25 22.3 Q6.9 22.4 7.7 22.85 L7.9 22.95 Q12.0 25.05 16.5 25.7 L17.75 26.05 18.15 26.2 18.25 26.2 18.3 26.25 18.3 26.2 18.5 26.15 18.9 25.7 Q20.05 25.65 20.65 24.2 L21.55 22.05 21.95 21.4 21.9 21.35 22.15 20.9 Q24.25 17.45 24.95 13.5 L25.5 10.8 25.65 9.7 25.5 9.45 25.5 9.4 25.7 8.8 26.95 8.15 26.5 8.9 26.45 8.95 26.45 9.0 Q25.8 16.7 21.9 23.5 L20.2 25.95 Q19.35 27.05 19.5 28.25 L17.4 27.25 16.45 27.1 12.0 26.05 7.25 24.15 4.7 22.9 3.05 22.3 Q2.5 22.0 2.85 21.9" fill="#fab896" fill-rule="evenodd" stroke="none"/>
    <path d="M22.8 11.4 Q22.85 9.9 22.35 8.75 21.45 6.6 19.35 7.3 L19.35 7.25 18.6 6.85 17.9 6.75 17.4 7.4 17.25 7.4 17.15 7.45 17.3 6.95 18.05 6.4 19.6 7.0 20.2 6.7 20.85 6.85 Q22.25 7.3 22.65 8.65 L22.65 8.7 23.0 9.85 Q23.5 11.05 23.2 11.9 22.5 13.8 20.65 13.8 L20.0 12.95 20.05 12.8 20.2 12.55 20.35 12.5 20.45 12.55 20.5 12.65 20.5 12.7 20.5 12.9 20.85 13.4 Q21.5 13.1 22.05 13.05 L22.45 12.5 22.8 11.4 M6.55 14.9 L6.1 13.5 7.0 12.4 6.45 13.65 6.95 14.9 Q6.4 16.65 7.4 17.85 L8.3 17.9 9.4 17.5 10.3 17.55 10.65 16.65 10.75 17.0 Q10.8 17.5 10.25 18.05 L9.7 18.25 9.15 17.95 8.35 18.55 Q6.9 18.6 6.35 17.35 5.7 16.05 6.55 14.9 M14.0 10.5 Q13.1 11.85 14.45 11.7 L15.0 11.0 Q15.9 9.85 15.05 9.55 L14.35 9.85 14.0 10.5 M12.45 7.75 L12.6 7.75 Q13.15 8.25 12.95 9.2 L11.85 13.3 11.25 13.4 Q10.75 13.15 10.8 12.55 L10.95 11.0 9.85 11.3 8.75 13.15 8.3 13.3 8.1 12.8 Q8.25 10.15 9.8 8.15 L10.45 8.75 10.05 10.4 11.5 10.15 12.45 7.75 M14.65 7.4 L14.7 6.75 15.6 6.25 16.9 7.15 17.1 7.95 19.3 7.8 Q20.2 7.9 20.2 8.4 L20.0 8.85 18.8 9.0 18.7 9.5 18.05 12.45 17.8 12.75 17.6 12.45 Q17.3 10.5 17.9 9.0 L16.25 8.9 15.95 8.6 16.6 7.7 15.6 6.6 15.05 6.75 14.65 7.4 M13.75 8.9 L14.25 8.5 15.9 8.7 16.35 9.4 16.3 10.65 Q16.0 11.9 14.95 12.65 13.75 13.25 12.9 12.35 L12.8 11.8 Q12.7 10.45 13.55 9.4 L13.75 8.9 M11.7 5.4 L11.45 5.9 11.55 6.4 11.25 5.5 12.15 4.8 12.75 4.85 13.45 6.35 12.2 6.8 Q11.85 6.9 11.7 6.55 L13.05 5.85 12.65 5.35 11.7 5.4 M18.25 13.1 L18.25 13.65 17.0 13.65 17.0 13.1 18.25 13.1 M18.0 15.0 L16.95 15.0 16.95 14.35 18.0 14.35 18.0 15.0 M18.6 14.4 L18.8 14.3 19.05 14.4 19.15 14.6 19.05 14.75 18.8 14.85 18.6 14.75 18.5 14.6 18.6 14.4 M16.3 14.6 L16.4 14.6 16.45 15.1 15.15 15.3 15.2 14.8 16.3 14.6 M16.7 13.15 L16.6 13.7 15.25 13.75 16.7 13.15 M17.3 16.1 Q17.5 16.1 17.7 16.25 L17.85 16.55 17.7 16.85 17.3 16.95 16.95 16.85 16.8 16.55 Q16.75 16.35 16.95 16.25 17.1 16.1 17.3 16.1 M16.9 16.0 Q16.85 15.8 16.95 15.85 L17.9 15.65 16.9 16.0 M16.15 16.9 Q15.6 17.25 15.0 17.4 L15.05 16.7 16.25 16.55 16.25 16.7 16.15 16.9 M16.4 16.0 L16.2 16.25 15.75 16.35 15.3 16.25 15.1 16.0 15.3 15.7 15.75 15.6 16.2 15.7 16.4 16.0 M19.0 15.55 L18.4 15.7 18.4 15.6 19.0 15.55 M18.9 16.05 L19.0 16.3 18.9 16.6 18.6 16.7 18.35 16.6 18.25 16.3 18.35 16.05 18.6 15.95 18.9 16.05 M13.0 13.7 L13.0 14.55 11.75 14.55 11.75 13.7 13.0 13.7 M14.7 15.4 L13.5 15.6 13.35 15.65 13.35 15.05 14.75 14.85 14.7 15.4 M14.85 14.05 L13.45 14.25 Q13.4 14.1 13.5 13.95 13.45 13.75 13.55 13.75 L14.95 13.45 14.85 14.05 M11.4 13.95 L11.35 13.85 11.4 13.85 11.4 13.95 M11.75 16.65 Q12.2 16.3 12.8 16.2 L12.75 16.85 11.65 16.9 11.75 16.65 M11.6 17.6 L12.7 17.25 12.55 17.6 11.6 17.6 M14.65 16.5 L13.15 16.75 13.15 16.25 14.7 15.9 14.65 16.5 M13.15 17.85 L13.15 17.15 14.65 16.85 14.65 17.5 13.15 17.85 M11.7 15.75 L11.7 15.2 12.8 15.2 12.8 15.75 11.7 15.75 M14.35 20.1 L15.0 22.05 Q16.45 22.65 17.65 21.75 18.95 20.75 19.05 19.25 L18.9 18.85 Q18.55 18.2 17.75 18.25 17.0 18.3 16.95 18.9 L16.6 19.3 15.4 18.7 15.35 19.45 14.35 20.1 M14.5 22.3 L13.85 20.0 14.95 19.35 15.0 19.0 Q15.3 17.95 16.1 18.4 L16.45 18.6 17.25 18.0 Q18.8 18.05 19.35 19.55 L19.15 20.75 Q18.0 22.25 16.0 22.55 L14.5 22.3" fill="#c54a0a" fill-rule="evenodd" stroke="none"/>
  </g>
</svg>
