<?xml version="1.0" encoding="UTF-8" standalone="no"?>
<svg xmlns:ffdec="https://www.free-decompiler.com/flash" xmlns:xlink="http://www.w3.org/1999/xlink" ffdec:objectType="shape" height="25.7px" width="25.2px" xmlns="http://www.w3.org/2000/svg">
  <g transform="matrix(1.0, 0.0, 0.0, 1.0, -2.15, -2.0)">
    <path d="M6.95 5.4 L13.35 8.5 17.7 7.35 19.2 7.2 21.0 7.1 21.5 7.25 20.65 5.9 19.65 4.6 Q18.6 3.65 17.3 3.25 L16.9 3.15 11.8 3.3 Q8.95 3.7 7.05 5.25 L6.8 5.3 6.95 5.4 M4.55 9.55 L4.65 8.35 Q4.55 5.6 2.35 5.7 2.05 5.35 2.25 5.15 4.7 3.2 6.55 3.5 9.3 3.8 12.55 2.5 L16.9 2.3 17.5 2.55 Q19.15 3.85 20.6 5.25 23.45 7.35 24.55 11.9 L26.1 18.05 27.1 25.6 27.35 27.35 26.4 27.7 22.4 25.7 Q21.6 25.1 20.15 24.9 L20.0 24.75 12.25 23.65 Q9.2 23.1 6.75 21.95 5.6 21.2 4.8 20.05 6.8 22.45 10.25 22.85 L15.95 23.55 18.6 23.7 21.8 24.35 Q24.15 25.0 25.75 26.8 L25.95 26.6 25.9 23.7 25.65 20.95 24.05 13.0 Q23.3 9.3 21.1 7.35 L19.7 7.85 13.6 8.8 20.3 15.35 23.05 15.25 23.35 15.1 22.85 15.55 20.65 15.9 22.4 18.65 23.45 20.95 17.15 13.25 Q17.45 16.35 17.35 19.3 17.45 20.25 16.95 21.3 L16.7 12.95 10.05 8.4 10.0 8.2 9.9 8.45 9.65 17.95 9.25 17.85 Q8.7 13.1 9.4 7.95 7.65 7.25 6.05 6.4 5.65 6.25 5.4 5.95 5.9 6.7 4.9 8.85 L4.55 9.55" fill="#006600" fill-rule="evenodd" stroke="none"/>
    <path d="M7.05 5.25 Q8.95 3.7 11.8 3.3 L16.9 3.15 17.3 3.25 Q18.6 3.65 19.65 4.6 L20.65 5.9 21.5 7.25 21.0 7.1 19.2 7.2 17.7 7.35 13.35 8.5 6.95 5.4 7.05 5.25 M4.55 9.55 L4.9 8.85 Q5.9 6.7 5.4 5.95 5.65 6.25 6.05 6.4 7.65 7.25 9.4 7.95 8.7 13.1 9.25 17.85 L9.65 17.95 9.9 8.45 10.05 8.4 16.7 12.95 16.95 21.3 Q17.45 20.25 17.35 19.3 17.45 16.35 17.15 13.25 L23.45 20.95 22.4 18.65 20.65 15.9 22.85 15.55 23.35 15.1 23.05 15.25 20.3 15.35 13.6 8.8 19.7 7.85 21.1 7.35 Q23.3 9.3 24.05 13.0 L25.65 20.95 25.9 23.7 25.95 26.6 25.75 26.8 Q24.15 25.0 21.8 24.35 L18.6 23.7 15.95 23.55 10.25 22.85 Q6.8 22.45 4.8 20.05 L4.05 18.25 Q2.8 14.7 4.55 9.55" fill="#00cc00" fill-rule="evenodd" stroke="none"/>
  </g>
</svg>
