<?xml version="1.0" encoding="UTF-8" standalone="no"?>
<svg xmlns:ffdec="https://www.free-decompiler.com/flash" xmlns:xlink="http://www.w3.org/1999/xlink" ffdec:objectType="shape" height="23.85px" width="23.8px" xmlns="http://www.w3.org/2000/svg">
  <g transform="matrix(1.0, 0.0, 0.0, 1.0, -3.15, -3.35)">
    <path d="M23.3 23.45 L24.0 22.0 25.55 17.9 Q25.8 16.3 25.7 14.6 L26.0 15.75 26.3 18.1 26.25 19.5 Q26.35 22.15 24.45 24.05 L23.3 23.45 M24.75 12.8 L25.25 13.8 25.1 16.6 24.95 17.8 Q24.0 20.65 22.65 23.25 L21.85 23.45 20.9 22.65 18.15 20.85 13.0 15.25 8.8 10.1 4.85 5.05 7.55 6.3 Q11.2 8.2 15.55 9.65 L24.75 12.8" fill="#b8a476" fill-rule="evenodd" stroke="none"/>
    <path d="M24.45 24.05 Q26.35 22.15 26.25 19.5 L26.3 18.1 26.0 15.75 25.7 14.6 Q25.8 16.3 25.55 17.9 L24.0 22.0 23.3 23.45 22.45 24.1 22.0 24.15 20.85 23.55 19.95 23.6 17.9 21.35 17.0 20.3 10.5 12.95 5.15 6.4 5.15 6.35 5.1 6.45 Q7.2 10.95 9.65 15.2 L14.25 22.95 Q15.75 25.45 18.1 26.05 21.35 26.9 23.85 24.8 L24.45 24.05 M25.35 11.75 L26.35 14.65 Q26.95 16.5 26.95 18.35 26.9 20.4 26.5 22.3 26.15 23.85 25.15 24.95 22.55 27.9 18.75 27.0 16.75 26.65 15.0 25.75 L10.15 18.25 Q7.5 14.0 5.5 9.45 3.95 6.2 3.15 3.35 5.5 4.25 7.75 5.45 12.0 7.7 16.45 9.3 L25.35 11.75 M24.75 12.8 L15.55 9.65 Q11.2 8.2 7.55 6.3 L4.85 5.05 8.8 10.1 13.0 15.25 18.15 20.85 20.9 22.65 21.85 23.45 22.65 23.25 Q24.0 20.65 24.95 17.8 L25.1 16.6 25.25 13.8 24.75 12.8" fill="#57492d" fill-rule="evenodd" stroke="none"/>
    <path d="M23.3 23.45 L24.45 24.05 23.85 24.8 Q21.35 26.9 18.1 26.05 15.75 25.45 14.25 22.95 L9.65 15.2 Q7.2 10.95 5.1 6.45 L5.15 6.4 10.5 12.95 17.0 20.3 17.9 21.35 19.95 23.6 20.85 23.55 22.0 24.15 22.45 24.1 23.3 23.45" fill="#806c42" fill-rule="evenodd" stroke="none"/>
  </g>
</svg>
