<?xml version="1.0" encoding="UTF-8" standalone="no"?>
<svg xmlns:ffdec="https://www.free-decompiler.com/flash" xmlns:xlink="http://www.w3.org/1999/xlink" ffdec:objectType="shape" height="24.85px" width="27.65px" xmlns="http://www.w3.org/2000/svg">
  <g transform="matrix(1.0, 0.0, 0.0, 1.0, -1.1, -2.35)">
    <path d="M9.15 25.95 Q7.45 24.9 5.55 24.9 L5.0 22.85 3.6 23.05 2.35 18.8 1.9 19.1 1.7 19.7 1.1 19.25 1.2 17.45 Q1.65 11.25 3.35 5.45 L3.1 5.0 3.35 3.95 3.6 3.5 3.95 3.0 4.65 3.75 14.45 4.45 Q20.65 4.85 26.45 2.35 L27.2 3.9 26.85 5.0 27.9 8.3 Q29.45 13.8 28.2 19.4 L27.45 19.3 27.05 20.9 26.65 21.1 26.45 22.4 25.2 23.4 24.65 24.75 19.85 25.9 19.4 26.55 Q16.85 26.0 14.3 26.65 L13.75 25.9 13.05 26.55 12.7 26.6 12.3 26.25 11.05 27.2 9.9 26.4 9.55 26.15 Q10.35 26.55 11.15 25.75 L11.05 25.35 10.95 22.35 12.05 9.65 12.1 11.15 11.3 25.95 12.7 25.0 12.9 25.55 13.4 25.2 13.85 25.3 14.2 25.35 14.55 25.7 14.8 25.95 16.0 25.7 16.8 25.55 17.55 25.0 18.9 25.5 18.85 23.25 Q18.45 16.8 18.55 10.0 L18.75 11.65 19.25 18.85 19.6 24.65 21.95 24.9 Q23.9 24.35 25.2 22.15 L24.85 20.15 24.8 15.85 25.4 19.1 25.55 21.4 25.7 18.9 24.65 8.4 25.2 10.7 Q25.9 13.9 26.2 17.45 L26.4 19.25 26.55 19.75 26.6 19.85 27.0 18.8 27.65 18.7 Q29.0 13.45 26.8 8.2 L26.35 5.45 23.45 6.3 19.05 7.35 5.15 6.7 4.2 11.55 4.5 6.5 4.45 6.2 3.7 5.7 3.2 8.3 Q2.55 12.15 2.05 16.05 L1.8 18.05 2.25 18.45 2.7 18.45 3.0 19.05 3.45 19.25 3.7 20.95 4.2 22.35 5.0 21.4 5.45 21.75 6.05 20.6 6.55 16.5 Q6.85 13.55 7.9 11.1 L7.45 16.6 Q7.55 19.85 6.7 22.9 L8.15 24.7 9.15 25.95 M25.75 4.65 L26.45 3.95 21.15 4.55 Q12.55 6.3 3.9 4.0 L3.8 4.55 Q3.75 5.4 4.45 5.25 L6.45 6.0 10.55 6.55 9.95 6.55 15.4 7.05 Q20.8 7.1 25.75 4.65 M22.25 15.45 Q22.9 18.7 22.55 22.2 L22.3 24.1 21.5 13.15 21.2 9.45 22.25 15.45 M14.15 6.65 L13.8 6.65 13.55 6.65 14.15 6.65 M5.75 10.6 L6.35 8.65 6.15 10.75 4.3 22.2 4.5 20.35 Q4.9 15.45 5.75 10.6 M16.3 13.6 L16.3 9.15 16.6 11.35 Q17.3 16.3 17.15 21.35 L17.1 24.45 16.5 23.85 16.3 13.6" fill="#57492d" fill-rule="evenodd" stroke="none"/>
    <path d="M7.45 16.6 L7.9 11.1 Q6.85 13.55 6.55 16.5 L6.05 20.6 6.15 10.75 6.35 8.65 5.75 10.6 3.4 17.0 2.45 16.9 2.9 15.75 2.2 15.0 2.05 16.05 Q2.55 12.15 3.2 8.3 L3.7 5.7 4.45 6.2 4.5 6.5 4.2 11.55 5.15 6.7 19.05 7.35 23.45 6.3 26.35 5.45 26.8 8.2 Q26.55 11.15 26.85 14.1 L26.95 15.7 26.2 17.45 Q25.9 13.9 25.2 10.7 L24.65 8.4 25.7 18.9 25.4 19.1 24.8 15.85 24.85 20.15 24.45 19.85 23.95 20.1 23.75 21.3 22.25 15.45 21.2 9.45 21.5 13.15 Q21.4 16.7 20.75 20.05 L20.3 22.25 19.25 18.85 18.75 11.65 18.55 10.0 Q18.45 16.8 18.85 23.25 L18.2 23.7 17.15 21.35 Q17.3 16.3 16.6 11.35 L16.3 9.15 16.3 13.6 15.8 22.2 15.5 17.55 15.0 22.2 12.85 21.95 12.75 19.25 12.35 13.75 12.1 11.15 12.05 9.65 10.95 22.35 10.25 22.6 9.0 20.9 8.15 21.65 7.45 16.6 M4.45 5.25 Q3.75 5.4 3.8 4.55 L3.9 4.0 Q12.55 6.3 21.15 4.55 L26.45 3.95 25.75 4.65 15.9 5.7 4.4 5.0 4.45 5.25 M14.15 6.65 L14.65 6.65 13.8 6.65 14.15 6.65" fill="#d5d0c1" fill-rule="evenodd" stroke="none"/>
    <path d="M9.55 26.15 L9.15 25.95 8.15 24.7 6.7 22.9 Q7.55 19.85 7.45 16.6 L8.15 21.65 9.0 20.9 10.25 22.6 10.95 22.35 11.05 25.35 11.15 25.75 Q10.35 26.55 9.55 26.15 M6.05 20.6 L5.45 21.75 5.0 21.4 4.2 22.35 3.7 20.95 3.45 19.25 3.0 19.05 2.7 18.45 2.25 18.45 1.8 18.05 2.05 16.05 2.2 15.0 2.9 15.75 2.45 16.9 3.4 17.0 5.75 10.6 Q4.9 15.45 4.5 20.35 L4.3 22.2 6.15 10.75 6.05 20.6 M26.8 8.2 Q29.0 13.45 27.65 18.7 L27.0 18.8 26.6 19.85 26.55 19.75 26.4 19.25 26.2 17.45 26.95 15.7 26.85 14.1 Q26.55 11.15 26.8 8.2 M25.7 18.9 L25.55 21.4 25.4 19.1 25.7 18.9 M24.85 20.15 L25.2 22.15 Q23.9 24.35 21.95 24.9 L19.6 24.65 19.25 18.85 20.3 22.25 20.75 20.05 Q21.4 16.7 21.5 13.15 L22.3 24.1 22.55 22.2 Q22.9 18.7 22.25 15.45 L23.75 21.3 23.95 20.1 24.45 19.85 24.85 20.15 M18.85 23.25 L18.9 25.5 17.55 25.0 16.8 25.55 16.0 25.7 14.8 25.95 14.55 25.7 14.2 25.35 13.85 25.3 13.4 25.2 12.9 25.55 12.7 25.0 11.3 25.95 12.1 11.15 12.35 13.75 12.75 19.25 12.85 21.95 15.0 22.2 15.5 17.55 15.8 22.2 16.3 13.6 16.5 23.85 17.1 24.45 17.15 21.35 18.2 23.7 18.85 23.25 M25.75 4.65 Q20.8 7.1 15.4 7.05 L9.95 6.55 10.55 6.55 6.45 6.0 4.45 5.25 4.4 5.0 15.9 5.7 25.75 4.65 M13.8 6.65 L14.65 6.65 14.15 6.65 13.55 6.65 13.8 6.65" fill="#aca488" fill-rule="evenodd" stroke="none"/>
  </g>
</svg>
