<?xml version="1.0" encoding="UTF-8" standalone="no"?>
<svg xmlns:ffdec="https://www.free-decompiler.com/flash" xmlns:xlink="http://www.w3.org/1999/xlink" ffdec:objectType="shape" height="24.7px" width="26.75px" xmlns="http://www.w3.org/2000/svg">
  <g transform="matrix(1.0, 0.0, 0.0, 1.0, -1.55, -2.8)">
    <path d="M24.45 4.05 L25.3 3.3 26.55 3.5 Q27.6 7.05 28.2 10.75 28.45 12.25 28.1 13.45 L27.35 15.2 25.95 17.1 24.8 18.25 23.9 20.65 22.6 22.65 19.55 26.05 18.35 27.05 15.05 27.3 11.0 25.45 10.35 26.25 10.25 26.8 10.2 27.1 10.0 27.25 Q8.55 25.2 7.8 22.7 L6.35 18.4 4.15 16.65 1.55 13.9 Q1.7 11.8 2.2 9.55 L3.65 3.1 3.85 2.8 4.85 3.05 4.9 3.8 Q6.05 5.65 8.0 5.65 L12.75 6.25 16.6 6.3 19.9 5.3 21.7 5.05 Q23.3 4.8 24.45 4.05 M26.45 5.1 L25.95 4.5 Q24.95 4.8 24.05 5.4 22.6 6.2 20.8 6.3 L17.2 6.65 15.65 7.35 12.7 8.6 Q10.65 9.4 8.25 9.85 L14.8 7.4 14.15 7.35 8.6 7.05 7.5 6.9 5.45 5.75 Q4.5 5.3 3.9 4.05 L3.45 5.2 3.2 6.3 2.75 9.65 Q2.4 12.35 2.6 14.8 3.8 16.65 5.6 17.35 L6.9 17.9 8.35 18.45 9.8 18.8 11.2 19.1 12.85 19.35 14.65 19.35 16.15 19.3 17.65 19.1 19.45 18.7 20.6 18.4 21.7 18.1 22.8 17.85 24.2 17.35 24.55 17.1 26.05 15.85 Q27.3 14.5 27.8 12.5 L26.45 5.1 M24.2 18.45 L24.15 18.3 24.0 18.2 21.8 18.65 19.6 19.0 17.75 19.45 16.25 19.6 13.6 19.75 14.3 20.75 Q14.85 21.5 15.75 21.95 L16.75 22.0 15.9 23.0 15.25 23.05 14.7 22.35 12.6 19.75 7.05 18.7 7.0 18.7 7.3 19.7 7.45 20.3 7.8 21.45 9.95 26.7 10.5 25.15 Q11.0 24.85 11.45 25.15 12.75 25.2 14.0 25.8 16.05 26.9 18.4 26.4 L19.55 24.95 20.8 23.55 22.65 21.6 Q23.6 20.7 24.0 19.3 L24.2 18.45" fill="#666666" fill-rule="evenodd" stroke="none"/>
    <path d="M26.45 5.1 L27.8 12.5 Q27.3 14.5 26.05 15.85 L24.55 17.1 24.2 17.35 22.8 17.85 21.7 18.1 20.6 18.4 19.45 18.7 17.65 19.1 16.15 19.3 14.65 19.35 12.85 19.35 11.2 19.1 9.8 18.8 8.35 18.45 6.9 17.9 5.6 17.35 Q3.8 16.65 2.6 14.8 2.4 12.35 2.75 9.65 L3.2 6.3 3.45 5.2 3.9 4.05 Q4.5 5.3 5.45 5.75 L7.5 6.9 8.6 7.05 14.15 7.35 14.8 7.4 8.25 9.85 Q10.65 9.4 12.7 8.6 L15.65 7.35 17.2 6.65 20.8 6.3 Q22.6 6.2 24.05 5.4 24.95 4.8 25.95 4.5 L26.45 5.1 M24.2 18.45 L24.0 19.3 Q23.6 20.7 22.65 21.6 L20.8 23.55 19.55 24.95 18.4 26.4 Q16.05 26.9 14.0 25.8 12.75 25.2 11.45 25.15 11.0 24.85 10.5 25.15 L9.95 26.7 7.8 21.45 7.45 20.3 7.3 19.7 8.45 19.65 9.35 19.95 10.95 20.55 12.3 21.25 13.85 22.0 14.7 22.35 15.25 23.05 15.9 23.0 16.75 22.0 15.75 21.95 17.15 21.45 18.5 20.75 19.85 20.15 21.35 19.65 22.95 19.05 Q23.55 18.85 24.2 18.45" fill="#cccccc" fill-rule="evenodd" stroke="none"/>
    <path d="M15.75 21.95 Q14.85 21.5 14.3 20.75 L13.6 19.75 16.25 19.6 17.75 19.45 19.6 19.0 21.8 18.65 24.0 18.2 24.15 18.3 24.2 18.45 Q23.55 18.85 22.95 19.05 L21.35 19.65 19.85 20.15 18.5 20.75 17.15 21.45 15.75 21.95 M7.3 19.7 L7.0 18.7 7.05 18.7 12.6 19.75 14.7 22.35 13.85 22.0 12.3 21.25 10.95 20.55 9.35 19.95 8.45 19.65 7.3 19.7" fill="#999999" fill-rule="evenodd" stroke="none"/>
  </g>
</svg>
