<?xml version="1.0" encoding="UTF-8" standalone="no"?>
<svg xmlns:ffdec="https://www.free-decompiler.com/flash" xmlns:xlink="http://www.w3.org/1999/xlink" ffdec:objectType="shape" height="24.4px" width="26.5px" xmlns="http://www.w3.org/2000/svg">
  <g transform="matrix(1.0, 0.0, 0.0, 1.0, -1.9, -2.8)">
    <path d="M21.7 3.8 L22.8 3.8 23.45 4.2 24.1 3.8 24.75 4.05 24.9 4.15 25.0 4.05 25.15 3.85 25.6 5.15 25.55 5.15 25.4 8.05 24.85 8.1 24.6 4.6 24.3 8.1 23.4 8.2 23.0 5.25 22.9 4.9 22.75 8.05 19.35 8.05 19.25 5.35 19.0 8.05 15.4 8.05 11.25 8.05 10.95 5.35 10.85 8.05 7.5 8.05 7.2 5.0 7.0 5.75 6.8 8.2 5.8 8.1 5.65 4.65 5.35 8.1 4.85 8.05 4.65 5.15 4.6 5.15 5.1 3.95 5.2 4.15 5.35 4.2 Q5.55 4.05 5.8 4.0 L6.1 3.8 6.5 4.15 8.3 3.85 Q8.6 5.45 9.6 6.15 L10.0 5.15 Q10.3 4.6 10.0 3.85 L15.3 3.8 16.3 4.05 17.5 3.75 20.4 3.85 20.45 5.45 Q20.55 6.4 21.1 6.65 L21.85 4.65 21.7 3.8 M22.95 8.75 Q22.7 9.55 22.6 10.4 L22.45 12.15 24.35 11.0 25.65 12.6 25.85 10.7 27.15 14.45 Q28.0 16.65 27.9 19.35 L27.55 19.95 27.65 22.55 26.6 23.6 Q25.2 24.75 23.5 25.2 L23.4 24.3 22.1 22.2 20.65 25.95 16.65 26.0 15.85 23.5 15.2 23.45 15.0 22.2 15.2 22.0 Q16.75 20.5 17.15 18.45 L17.1 18.45 17.05 16.6 Q17.0 18.95 15.55 20.9 L15.25 21.1 15.05 20.7 14.35 16.2 15.75 16.15 15.0 13.85 15.35 11.95 14.55 12.75 Q14.3 12.95 14.3 13.4 L14.2 9.1 15.3 8.7 16.3 9.2 Q16.4 12.1 16.9 14.9 L17.05 16.2 16.9 9.0 22.95 8.75 M24.8 16.35 L23.05 16.6 22.3 15.1 20.8 18.95 21.95 19.4 21.8 20.8 21.9 20.8 23.1 19.45 Q23.45 19.8 23.9 20.0 L24.75 20.45 24.8 20.25 23.65 18.25 24.8 16.35 M20.95 25.95 L20.95 25.85 20.95 25.95 M17.05 4.6 Q17.0 6.3 17.1 8.0 L17.35 7.4 17.55 6.65 17.6 5.1 17.2 4.6 17.05 4.6 M13.15 4.6 L13.0 4.6 12.6 5.1 13.1 8.0 13.15 4.6 M13.95 4.9 Q13.5 6.3 14.1 7.6 L16.25 8.0 Q16.95 6.65 16.4 4.9 15.35 3.95 14.2 4.4 L13.95 4.9 M13.7 13.0 L12.15 11.65 12.15 12.35 12.45 14.3 11.4 15.8 12.55 16.15 12.75 17.25 13.2 18.3 13.7 17.2 14.1 18.45 Q14.15 20.95 14.5 23.5 L14.1 23.85 13.6 26.0 7.35 25.4 7.5 23.6 9.1 23.5 7.8 21.5 8.35 18.95 6.15 20.45 4.35 19.65 5.15 22.0 3.75 23.65 3.05 23.05 2.55 22.55 2.5 19.2 Q2.6 17.25 3.0 15.4 3.55 13.15 4.25 10.85 L4.85 9.0 5.4 8.9 8.7 8.85 12.1 8.9 13.7 9.1 13.7 13.0 M6.8 10.45 L6.35 10.65 5.9 10.55 5.35 11.05 5.95 12.05 Q5.65 12.95 5.65 13.85 5.65 14.05 5.95 14.25 L6.9 12.7 7.7 14.4 7.8 14.0 7.9 13.65 7.9 12.5 8.55 12.3 8.65 12.15 7.9 11.3 7.6 9.55 6.8 10.45 M6.3 25.1 L4.6 24.25 3.75 23.65 6.1 24.45 6.3 25.1" fill="#8cc4ec" fill-rule="evenodd" stroke="none"/>
    <path d="M20.4 3.85 L21.7 3.8 21.85 4.65 21.1 6.65 Q20.55 6.4 20.45 5.45 L20.4 3.85 M24.8 16.35 L23.65 18.25 24.8 20.25 24.75 20.45 23.9 20.0 Q23.45 19.8 23.1 19.45 L21.9 20.8 21.8 20.8 21.95 19.4 20.8 18.95 22.3 15.1 23.05 16.6 24.8 16.35 M13.95 4.9 L14.2 4.4 Q15.35 3.95 16.4 4.9 16.95 6.65 16.25 8.0 L14.1 7.6 Q13.5 6.3 13.95 4.9 M6.8 10.45 L7.6 9.55 7.9 11.3 8.65 12.15 8.55 12.3 7.9 12.5 7.9 13.65 7.8 14.0 7.7 14.4 6.9 12.7 5.95 14.25 Q5.65 14.05 5.65 13.85 5.65 12.95 5.95 12.05 L5.35 11.05 5.9 10.55 6.35 10.65 6.8 10.45" fill="#ffffff" fill-rule="evenodd" stroke="none"/>
    <path d="M8.3 3.85 L6.5 4.15 6.1 3.8 5.8 4.0 Q5.55 4.05 5.35 4.2 L5.2 4.15 5.1 3.95 4.6 5.15 4.65 5.15 4.85 8.05 5.35 8.1 5.65 4.65 5.8 8.1 6.8 8.2 7.0 5.75 7.2 5.0 7.5 8.05 10.85 8.05 10.95 5.35 11.25 8.05 15.4 8.05 19.0 8.05 19.25 5.35 19.35 8.05 22.75 8.05 22.9 4.9 23.0 5.25 23.4 8.2 24.3 8.1 24.6 4.6 24.85 8.1 25.4 8.05 25.55 5.15 25.6 5.15 25.15 3.85 25.0 4.05 24.9 4.15 24.75 4.05 24.1 3.8 23.45 4.2 22.8 3.8 21.7 3.8 20.4 3.85 17.5 3.75 16.3 4.05 15.3 3.8 10.0 3.85 8.6 3.75 8.3 3.85 M24.1 2.8 L25.4 2.9 25.9 3.35 26.15 8.3 25.75 8.9 27.05 12.4 27.85 15.1 28.4 19.55 Q28.5 21.55 28.2 23.65 L27.7 23.9 26.35 25.1 24.85 25.85 21.8 26.7 18.6 27.1 16.0 26.85 15.1 24.45 14.85 25.0 14.7 25.35 14.3 26.5 14.3 26.85 10.8 27.15 7.35 26.4 4.4 25.4 Q3.65 25.15 3.0 24.55 L2.0 23.65 1.9 21.7 2.0 17.95 Q2.15 16.1 2.65 14.3 3.45 11.55 4.4 8.95 L4.1 8.35 4.35 3.4 4.85 2.9 7.85 2.9 11.8 3.1 15.4 3.0 17.15 2.9 20.4 2.8 Q22.2 3.15 24.1 2.8 M22.95 8.75 L16.9 9.0 17.05 16.2 16.9 14.9 Q16.4 12.1 16.3 9.2 L15.3 8.7 14.2 9.1 14.3 13.4 14.05 15.3 Q13.85 15.95 14.35 16.2 L15.05 20.7 15.25 21.1 15.55 20.9 Q17.0 18.95 17.05 16.6 L17.1 18.45 17.15 18.45 Q16.75 20.5 15.2 22.0 L15.0 22.2 15.2 23.45 15.85 23.5 16.65 26.0 20.65 25.95 20.95 25.95 23.5 25.2 Q25.2 24.75 26.6 23.6 L27.65 22.55 27.55 19.95 27.9 19.35 Q28.0 16.65 27.15 14.45 L25.85 10.7 25.35 9.0 22.95 8.75 M17.05 4.6 L17.2 4.6 17.6 5.1 17.55 6.65 17.35 7.4 17.1 8.0 Q17.0 6.3 17.05 4.6 M13.15 4.6 L13.1 8.0 12.6 5.1 13.0 4.6 13.15 4.6 M13.7 13.0 L13.7 9.1 12.1 8.9 8.7 8.85 5.4 8.9 4.85 9.0 4.25 10.85 Q3.55 13.15 3.0 15.4 2.6 17.25 2.5 19.2 L2.55 22.55 3.05 23.05 3.75 23.65 4.6 24.25 6.3 25.1 6.65 25.8 7.35 25.4 13.6 26.0 14.1 23.85 14.5 23.5 Q14.15 20.95 14.1 18.45 L13.7 17.2 13.8 16.6 13.1 14.85 13.7 13.55 13.7 13.0" fill="#273370" fill-rule="evenodd" stroke="none"/>
    <path d="M8.3 3.85 L8.6 3.75 10.0 3.85 Q10.3 4.6 10.0 5.15 L9.6 6.15 Q8.6 5.45 8.3 3.85 M25.85 10.7 L25.65 12.6 24.35 11.0 22.45 12.15 22.6 10.4 Q22.7 9.55 22.95 8.75 L25.35 9.0 25.85 10.7 M14.3 13.4 Q14.3 12.95 14.55 12.75 L15.35 11.95 15.0 13.85 15.75 16.15 14.35 16.2 Q13.85 15.95 14.05 15.3 L14.3 13.4 M20.65 25.95 L22.1 22.2 23.4 24.3 23.5 25.2 20.95 25.95 20.65 25.95 M20.95 25.95 L20.95 25.85 20.95 25.95 M13.7 17.2 L13.2 18.3 12.75 17.25 12.55 16.15 11.4 15.8 12.45 14.3 12.15 12.35 12.15 11.65 13.7 13.0 13.7 13.55 13.1 14.85 13.8 16.6 13.7 17.2 M3.75 23.65 L5.15 22.0 4.35 19.65 6.15 20.45 8.35 18.95 7.8 21.5 9.1 23.5 7.5 23.6 7.35 25.4 6.65 25.8 6.3 25.1 6.1 24.45 3.75 23.65" fill="#0033ff" fill-rule="evenodd" stroke="none"/>
  </g>
</svg>
