<?xml version="1.0" encoding="UTF-8" standalone="no"?>
<svg xmlns:ffdec="https://www.free-decompiler.com/flash" xmlns:xlink="http://www.w3.org/1999/xlink" ffdec:objectType="shape" height="9.1px" width="15.2px" xmlns="http://www.w3.org/2000/svg">
  <g transform="matrix(1.0, 0.0, 0.0, 1.0, 9.3, 7.55)">
    <path d="M5.8 -6.45 L5.9 -5.1 5.85 -4.45 5.0 -3.7 3.5 -2.1 2.2 -0.15 2.1 0.0 2.0 0.15 1.7 0.6 0.7 1.4 -0.3 1.5 -0.5 1.45 -0.75 1.35 -1.3 1.1 -1.6 0.8 -2.4 0.2 -3.45 -0.2 -4.0 -0.35 -5.1 -0.5 -6.15 -0.5 -8.4 -0.35 -8.85 -0.2 -8.9 -0.2 -9.0 -0.3 -9.1 -0.55 -9.25 -2.9 -9.25 -3.6 -9.3 -3.95 -7.05 -3.7 -3.35 -3.95 0.8 -4.8 2.1 -5.15 3.5 -5.85 4.7 -6.7 5.45 -7.55 5.8 -6.45 M0.0 -3.85 L0.45 -2.25 1.0 -1.9 1.9 -1.15 2.25 -0.85 2.25 -0.9 2.5 -1.3 3.45 -2.7 3.55 -2.8 4.1 -3.45 4.95 -4.15 5.4 -4.55 5.45 -4.5 5.05 -4.15 4.35 -3.55 3.75 -2.9 3.65 -2.8 3.35 -2.4 2.7 -1.5 2.35 -0.8 2.35 -0.75 2.3 -0.7 2.35 -0.65 2.5 -0.9 2.85 -1.4 4.05 -2.9 4.85 -3.7 5.3 -4.15 5.5 -4.4 5.6 -4.65 5.55 -5.95 5.35 -6.8 5.3 -6.9 4.4 -6.05 3.4 -5.45 2.15 -4.9 -0.35 -4.15 -1.9 -3.85 -3.45 -3.6 -5.55 -3.4 -7.3 -3.45 -9.0 -3.65 -8.95 -3.45 -7.6 -3.25 -6.3 -3.25 -3.2 -3.5 -0.7 -3.95 0.8 -4.35 2.2 -4.75 3.05 -5.15 4.4 -5.85 5.35 -6.35 4.45 -5.75 3.05 -4.95 1.5 -4.35 0.0 -3.85 -0.05 -3.85 0.0 -3.85 M0.4 -2.05 L-1.2 -0.3 -1.6 0.3 -1.25 0.75 -0.75 1.15 -0.3 1.25 Q0.9 1.25 1.75 0.4 L2.2 -0.3 2.1 -0.7 0.85 -1.75 0.4 -2.05 M-8.95 -3.3 L-9.0 -3.35 -9.05 -3.15 -8.8 -0.6 -8.75 -0.55 -8.3 -0.45 Q-5.95 -0.8 -3.6 -0.5 L-3.3 -0.45 -2.65 -0.2 -1.75 0.45 -1.4 0.7 Q-2.25 -0.4 -3.55 -0.7 L-5.7 -0.95 -6.75 -0.95 -8.05 -0.8 -8.55 -0.75 -8.6 -0.85 -8.4 -0.95 -7.6 -1.0 -7.6 -1.25 -7.8 -2.55 -7.9 -3.05 -8.85 -3.3 -8.95 -3.35 -8.95 -3.3 M-7.4 -1.0 L-4.6 -1.05 -4.25 -1.05 -3.9 -0.95 -3.55 -0.9 -3.35 -0.85 -3.2 -0.8 -2.85 -0.65 -2.55 -0.5 -2.25 -0.3 -1.95 -0.05 -1.7 0.15 -1.65 0.0 -1.5 -0.15 -1.35 -0.4 -1.25 -0.55 0.15 -2.3 -0.2 -3.8 -1.15 -3.65 -2.1 -3.5 -3.05 -3.35 -4.0 -3.25 -5.0 -3.2 -5.95 -3.1 -6.9 -3.05 -7.9 -3.05 -7.4 -1.1 -7.4 -1.0" fill="#666666" fill-rule="evenodd" stroke="none"/>
    <path d="M0.0 -3.85 L1.5 -4.35 3.05 -4.95 4.45 -5.75 5.35 -6.35 4.4 -5.85 3.05 -5.15 2.2 -4.75 0.8 -4.35 -0.7 -3.95 -3.2 -3.5 -6.3 -3.25 -7.6 -3.25 -8.95 -3.45 -9.0 -3.65 -7.3 -3.45 -5.55 -3.4 -3.45 -3.6 -1.9 -3.85 -0.35 -4.15 2.15 -4.9 3.4 -5.45 4.4 -6.05 5.3 -6.9 5.35 -6.8 5.55 -5.95 5.6 -4.65 5.5 -4.4 5.3 -4.15 4.85 -3.7 4.05 -2.9 2.85 -1.4 2.5 -0.9 2.35 -0.65 2.3 -0.7 2.35 -0.75 2.35 -0.8 2.7 -1.5 3.35 -2.4 3.65 -2.8 3.75 -2.9 4.35 -3.55 5.05 -4.15 5.45 -4.5 5.4 -4.55 4.95 -4.15 4.1 -3.45 3.55 -2.8 3.45 -2.7 2.5 -1.3 2.25 -0.9 2.25 -0.85 1.9 -1.15 1.0 -1.9 0.45 -2.25 0.0 -3.85 M-7.4 -1.0 L-7.4 -1.1 -7.9 -3.05 -6.9 -3.05 -5.95 -3.1 -5.0 -3.2 -4.0 -3.25 -3.05 -3.35 -2.1 -3.5 -1.15 -3.65 -0.2 -3.8 0.15 -2.3 -1.25 -0.55 -1.35 -0.4 -1.5 -0.15 -1.65 0.0 -1.7 0.15 -1.95 -0.05 -2.25 -0.3 -2.55 -0.5 -2.85 -0.65 -3.2 -0.8 -3.35 -0.85 -3.55 -0.9 -3.9 -0.95 -4.25 -1.05 -4.6 -1.05 -7.4 -1.0 M-8.95 -3.3 L-8.95 -3.35 -8.85 -3.3 -7.9 -3.05 -7.8 -2.55 -7.6 -1.25 -7.6 -1.0 -8.4 -0.95 -8.6 -0.85 -8.55 -0.75 -8.05 -0.8 -6.75 -0.95 -5.7 -0.95 -3.55 -0.7 Q-2.25 -0.4 -1.4 0.7 L-1.75 0.45 -2.65 -0.2 -3.3 -0.45 -3.6 -0.5 Q-5.95 -0.8 -8.3 -0.45 L-8.75 -0.55 -8.8 -0.6 -9.05 -3.15 -9.0 -3.35 -8.95 -3.3 M0.4 -2.05 L0.85 -1.75 2.1 -0.7 2.2 -0.3 1.75 0.4 Q0.9 1.25 -0.3 1.25 L-0.75 1.15 -1.25 0.75 -1.6 0.3 -1.2 -0.3 0.4 -2.05" fill="#ffffff" fill-rule="evenodd" stroke="none"/>
  </g>
</svg>
