<?xml version="1.0" encoding="UTF-8" standalone="no"?>
<svg xmlns:ffdec="https://www.free-decompiler.com/flash" xmlns:xlink="http://www.w3.org/1999/xlink" ffdec:objectType="shape" height="24.7px" width="26.4px" xmlns="http://www.w3.org/2000/svg">
  <g transform="matrix(1.0, 0.0, 0.0, 1.0, -2.1, -2.7)">
    <path d="M27.05 4.25 L27.05 4.15 27.05 4.25 M3.6 4.25 L3.55 4.25 3.55 4.15 3.6 4.25 M14.25 14.75 L14.3 14.55 Q14.5 13.95 14.35 14.8 L14.25 14.75" fill="#999999" fill-rule="evenodd" stroke="none"/>
    <path d="M3.6 4.25 Q5.55 3.25 7.8 3.2 L14.0 2.7 20.05 2.85 24.95 3.45 27.05 4.25 28.5 14.05 Q26.75 15.2 25.3 16.85 23.95 18.4 22.75 20.25 20.95 23.2 19.65 26.4 L19.6 26.55 Q16.15 28.0 12.6 26.95 L11.1 26.4 Q8.85 21.05 5.25 16.9 L2.8 14.65 2.1 14.05 3.55 4.25 3.6 4.25 M16.4 3.35 L10.0 3.65 4.3 4.45 3.85 4.95 3.75 5.8 3.75 5.9 3.8 5.9 Q7.35 4.25 11.25 4.35 14.75 3.95 18.15 4.3 L23.75 5.15 26.9 6.0 26.7 4.95 Q22.3 3.2 17.45 3.35 L16.55 3.35 16.4 3.35 M21.5 21.15 L24.2 16.9 Q25.65 14.75 27.9 13.65 L26.95 7.6 26.65 6.35 Q21.25 4.75 15.8 4.55 L15.7 15.05 19.55 21.4 20.0 22.5 20.6 21.55 20.05 22.6 20.4 23.55 21.5 21.15 M20.6 21.25 Q22.35 17.05 25.55 14.4 L27.25 12.9 26.5 8.25 27.4 13.35 Q26.5 13.6 25.2 14.8 22.4 17.3 20.7 21.25 L20.6 21.25 M11.1 21.45 Q12.25 18.5 14.1 16.3 L15.05 15.1 15.3 14.65 15.55 13.2 15.4 5.35 15.2 4.55 14.85 12.95 14.85 4.55 11.65 4.7 Q7.65 4.75 4.0 6.15 L3.7 6.3 2.85 12.75 3.25 13.0 3.25 12.95 3.3 12.9 3.35 12.75 3.4 12.75 3.35 12.95 5.45 14.75 2.8 12.95 2.7 13.65 Q4.9 14.6 6.55 16.85 8.1 18.95 9.3 21.55 L10.15 23.3 11.1 21.45 M9.95 21.4 L9.95 21.2 8.2 18.15 Q7.3 16.55 6.15 15.45 L6.45 15.7 Q8.6 18.05 10.05 21.05 10.6 19.1 11.8 17.55 L14.25 14.75 14.35 14.8 13.85 15.3 Q11.35 17.55 10.15 21.45 L9.95 21.4 M18.9 21.6 L17.9 19.5 16.45 16.55 Q15.9 15.4 15.25 15.5 L14.7 16.25 Q12.7 18.5 11.7 21.6 L10.75 23.95 11.45 25.9 19.25 26.1 19.95 24.25 18.9 21.6" fill="#666666" fill-rule="evenodd" stroke="none"/>
    <path d="M16.55 3.35 L17.45 3.35 Q22.3 3.2 26.7 4.95 L26.9 6.0 23.75 5.15 18.15 4.3 Q14.75 3.95 11.25 4.35 7.35 4.25 3.8 5.9 L3.75 5.9 3.75 5.8 3.85 4.95 4.3 4.45 10.0 3.65 16.4 3.35 16.55 3.35 M19.55 21.4 L15.7 15.05 15.8 4.55 Q21.25 4.75 26.65 6.35 L26.95 7.6 27.9 13.65 Q25.65 14.75 24.2 16.9 L21.5 21.15 20.7 21.25 Q22.4 17.3 25.2 14.8 26.5 13.6 27.4 13.35 L26.5 8.25 27.25 12.9 25.55 14.4 Q22.35 17.05 20.6 21.25 L19.55 21.4 M9.3 21.55 Q8.1 18.95 6.55 16.85 4.9 14.6 2.7 13.65 L2.8 12.95 5.45 14.75 3.35 12.95 3.4 12.75 3.35 12.75 3.3 12.9 3.25 12.95 3.25 13.0 2.85 12.75 3.7 6.3 4.0 6.15 Q7.65 4.75 11.65 4.7 L14.85 4.55 14.85 12.95 15.2 4.55 15.4 5.35 15.55 13.2 15.3 14.65 15.05 15.1 14.1 16.3 Q12.25 18.5 11.1 21.45 L10.15 21.45 Q11.35 17.55 13.85 15.3 L14.35 14.8 Q14.5 13.95 14.3 14.55 L14.25 14.75 11.8 17.55 Q10.6 19.1 10.05 21.05 8.6 18.05 6.45 15.7 L6.15 15.45 Q7.3 16.55 8.2 18.15 L9.95 21.2 9.95 21.4 9.3 21.55 M11.7 21.6 Q12.7 18.5 14.7 16.25 L15.25 15.5 Q15.9 15.4 16.45 16.55 L17.9 19.5 18.9 21.6 11.7 21.6" fill="#ffffff" fill-rule="evenodd" stroke="none"/>
    <path d="M21.5 21.15 L20.4 23.55 20.05 22.6 20.6 21.55 20.0 22.5 19.55 21.4 20.6 21.25 20.7 21.25 21.5 21.15 M11.1 21.45 L10.15 23.3 9.3 21.55 9.95 21.4 10.15 21.45 11.1 21.45 M18.9 21.6 L19.95 24.25 19.25 26.1 11.45 25.9 10.75 23.95 11.7 21.6 18.9 21.6" fill="#e0e0e0" fill-rule="evenodd" stroke="none"/>
  </g>
</svg>
