<?xml version="1.0" encoding="UTF-8" standalone="no"?>
<svg xmlns:ffdec="https://www.free-decompiler.com/flash" xmlns:xlink="http://www.w3.org/1999/xlink" ffdec:objectType="shape" height="25.35px" width="27.45px" xmlns="http://www.w3.org/2000/svg">
  <g transform="matrix(1.0, 0.0, 0.0, 1.0, -1.35, -2.55)">
    <path d="M3.5 3.6 Q3.4 3.05 3.55 3.0 L5.25 2.6 7.1 2.9 8.4 3.0 9.5 3.25 11.25 3.8 12.65 4.3 14.25 4.6 Q15.05 5.0 15.9 4.6 L17.8 4.1 19.55 3.6 21.05 3.2 22.75 2.8 23.55 2.65 24.75 2.6 Q25.85 2.4 26.55 3.05 L26.85 3.65 25.2 3.6 23.8 3.6 22.35 3.8 20.9 4.2 19.4 4.6 18.0 5.05 16.5 5.75 14.75 6.4 Q13.55 5.95 12.55 5.3 L11.15 4.65 9.45 4.1 7.7 3.9 5.85 3.7 4.2 3.7 3.5 3.6 M28.75 9.65 Q28.95 10.95 28.2 11.6 L27.05 12.9 26.0 14.35 25.05 15.75 24.1 17.35 23.25 18.9 22.4 20.6 21.6 22.25 20.75 24.35 20.25 25.55 19.65 26.85 Q17.45 27.9 15.1 27.9 L13.65 27.8 12.2 27.25 10.35 26.55 8.95 22.8 8.3 21.1 7.45 19.5 6.55 17.95 5.65 16.45 4.65 14.9 3.65 13.5 2.3 11.55 1.4 10.0 1.35 9.8 1.5 9.55 2.45 10.4 3.25 11.4 4.05 12.4 4.85 13.5 5.65 14.55 6.6 15.9 6.7 16.05 8.25 18.9 8.5 19.4 9.9 22.4 10.1 22.8 10.3 23.85 11.0 26.15 11.8 26.4 13.45 27.2 15.15 27.4 16.6 27.35 18.35 26.75 19.5 26.2 19.8 24.8 20.3 23.1 21.25 21.0 22.3 18.9 23.15 17.3 24.05 15.85 25.05 14.35 26.15 12.7 26.8 11.8 Q27.45 10.9 28.2 10.15 L28.75 9.65" fill="#81399f" fill-rule="evenodd" stroke="none"/>
    <path d="M26.85 3.65 L27.55 5.65 27.9 7.0 28.35 8.35 28.75 9.65 28.2 10.15 Q27.45 10.9 26.8 11.8 L26.15 12.7 25.05 14.35 24.05 15.85 23.15 17.3 22.3 18.9 21.25 21.0 20.3 23.1 18.5 21.05 17.15 19.6 15.9 18.5 14.95 17.85 10.1 22.8 9.9 22.4 10.55 21.8 10.45 21.1 9.35 18.9 8.5 19.4 8.25 18.9 8.55 18.75 9.05 18.3 7.4 15.45 6.7 16.05 6.6 15.9 7.25 15.05 5.75 11.8 4.6 12.95 5.65 14.55 4.85 13.5 4.05 12.4 3.25 11.4 2.45 10.4 1.5 9.55 1.9 8.35 2.3 6.95 2.7 5.65 3.5 3.6 4.2 3.7 5.85 3.7 7.7 3.9 9.45 4.1 11.15 4.65 12.55 5.3 Q13.55 5.95 14.75 6.4 L16.5 5.75 18.0 5.05 19.4 4.6 20.9 4.2 22.35 3.8 23.8 3.6 25.2 3.6 26.85 3.65 M27.25 10.1 L26.05 8.8 24.75 11.3 25.8 12.75 26.9 10.9 27.25 10.1 M26.95 7.25 L26.3 8.4 27.45 9.8 27.25 8.65 26.95 7.25 M22.9 9.45 L24.35 10.8 25.65 8.4 24.25 7.05 22.9 9.45 M22.25 9.8 L20.7 8.55 20.0 10.15 19.2 11.55 20.6 12.9 22.25 9.8 M21.55 5.0 L21.2 4.6 19.25 5.25 18.85 6.35 20.5 7.55 21.55 5.0 M23.8 6.6 L23.25 6.2 22.05 5.4 20.95 7.85 22.6 9.2 23.2 8.0 23.8 6.6 M24.95 5.8 L24.5 6.6 25.9 8.0 26.8 6.8 26.1 4.45 24.95 5.8 M25.15 4.6 L24.3 4.1 22.7 4.1 22.35 4.85 24.15 6.35 25.15 4.6 M21.75 19.4 L20.85 18.9 19.65 21.0 19.9 21.6 20.35 22.45 21.75 19.4 M21.2 18.3 L21.65 18.75 23.45 16.25 22.8 15.45 21.2 18.3 M20.9 13.15 L21.8 13.8 22.55 14.55 24.1 11.4 22.6 10.1 20.9 13.15 M22.35 14.95 L20.7 13.55 19.1 16.35 20.75 17.85 22.35 14.95 M24.5 11.8 L23.0 15.05 23.65 15.95 25.6 12.95 24.5 11.8 M12.1 6.4 L13.6 9.55 14.7 8.65 13.7 6.45 12.65 5.85 12.1 6.4 M10.95 5.25 L9.05 4.6 8.65 5.0 9.75 7.55 11.35 6.35 10.95 5.25 M11.85 5.95 L12.25 5.75 11.35 5.4 11.85 5.95 M14.15 10.55 L14.75 11.6 14.75 9.85 14.7 9.65 Q14.6 9.65 14.55 9.75 L14.1 10.2 14.15 10.55 M11.6 6.85 L10.0 8.15 11.55 11.15 13.05 9.95 11.6 6.85 M18.7 11.15 L20.2 8.15 18.65 6.85 17.15 9.95 18.7 11.15 M15.7 9.6 L15.55 10.15 15.5 11.6 16.4 10.0 15.7 9.6 M17.55 5.85 L16.5 6.45 15.45 8.6 16.6 9.55 18.15 6.4 17.55 5.85 M3.4 6.8 L4.3 8.0 5.75 6.6 4.2 4.3 3.4 6.8 M2.75 10.3 L4.45 12.75 5.45 11.3 4.15 8.8 2.75 10.3 M2.75 9.8 L3.95 8.4 3.3 7.25 2.95 8.6 2.75 9.8 M6.05 6.35 L7.9 4.85 7.5 4.1 4.75 4.25 5.5 5.25 6.05 6.35 M7.3 9.45 L5.95 7.05 4.6 8.4 5.85 10.8 7.3 9.45 M9.3 7.85 L8.15 5.4 6.4 6.6 7.65 9.2 9.3 7.85 M7.95 9.8 L9.65 12.9 11.05 11.55 9.55 8.55 7.95 9.8 M9.3 13.15 L7.6 10.1 6.15 11.4 7.65 14.55 9.3 13.15 M7.9 14.95 L9.45 17.85 11.1 16.35 9.55 13.55 7.9 14.95 M18.75 16.95 L17.6 19.2 19.05 20.85 20.45 18.45 18.75 16.95 M17.15 14.85 L18.75 16.1 20.3 13.35 18.95 11.95 17.15 14.85 M15.8 17.3 L17.3 18.85 18.4 16.7 16.8 15.45 15.8 17.3 M15.5 12.8 L15.45 13.7 16.7 14.5 18.45 11.55 16.95 10.4 15.5 12.8 M16.3 15.15 L15.45 14.5 15.55 16.45 16.3 15.15 M14.75 13.7 L14.7 12.8 13.3 10.4 11.8 11.55 13.55 14.5 14.75 13.7 M14.2 14.85 L14.7 16.15 14.75 14.5 14.2 14.85 M11.45 16.95 L9.8 18.45 11.15 20.85 12.6 19.2 11.45 16.95 M14.45 17.3 L13.45 15.45 11.8 16.7 12.95 18.85 14.45 17.3 M11.3 11.95 L9.9 13.35 11.45 16.1 13.1 14.85 11.3 11.95" fill="#be89d6" fill-rule="evenodd" stroke="none"/>
    <path d="M10.1 22.8 L14.95 17.85 15.9 18.5 17.15 19.6 18.5 21.05 20.3 23.1 19.8 24.8 19.5 26.2 18.35 26.75 16.6 27.35 15.15 27.4 13.45 27.2 11.8 26.4 11.0 26.15 10.3 23.85 10.1 22.8" fill="#55266a" fill-rule="evenodd" stroke="none"/>
  </g>
</svg>
