<?xml version="1.0" encoding="UTF-8" standalone="no"?>
<svg xmlns:ffdec="https://www.free-decompiler.com/flash" xmlns:xlink="http://www.w3.org/1999/xlink" ffdec:objectType="shape" height="25.25px" width="26.15px" xmlns="http://www.w3.org/2000/svg">
  <g transform="matrix(1.0, 0.0, 0.0, 1.0, -2.05, -2.5)">
    <path d="M27.6 3.05 Q28.2 3.75 28.2 4.7 L28.2 5.2 Q27.8 6.45 26.6 6.85 L24.05 7.45 25.1 16.6 25.1 17.2 20.5 17.5 20.0 18.6 19.6 19.55 18.8 21.95 18.25 23.6 17.6 25.3 17.35 26.05 17.15 26.4 Q16.7 27.45 15.55 27.7 14.55 27.9 13.75 27.2 L12.85 26.2 12.4 25.15 12.2 24.45 11.9 23.65 11.2 21.35 Q10.9 20.45 10.75 19.55 10.5 18.0 9.7 17.55 L5.8 17.05 5.5 17.05 5.15 17.2 5.05 16.55 5.1 15.2 6.2 7.45 Q4.15 7.2 2.55 5.8 2.25 5.6 2.15 5.2 1.8 4.0 2.6 3.05 3.1 2.5 4.0 2.5 L9.0 4.25 11.8 4.7 15.05 5.1 16.9 5.1 20.05 4.65 Q23.2 3.55 26.4 2.95 L27.6 3.05 M23.5 5.7 L26.2 5.65 27.15 4.5 27.15 4.4 27.2 4.1 24.05 4.3 23.65 5.0 23.35 5.7 23.5 5.7 M23.65 6.55 L23.4 6.15 21.15 6.45 Q20.45 6.3 19.95 7.0 L18.05 9.1 Q16.3 10.65 14.3 10.0 L13.95 9.7 Q15.85 10.2 17.6 9.0 19.1 8.05 20.25 6.55 L17.45 6.75 10.25 6.35 10.0 6.55 Q9.3 6.75 9.75 7.5 L9.85 7.7 Q10.65 9.5 11.95 10.9 L13.6 12.4 Q12.65 11.95 11.8 11.3 10.2 9.9 9.4 7.6 L9.1 6.55 6.8 6.15 Q6.55 6.35 6.5 6.85 6.15 11.55 5.4 16.3 L9.15 16.6 Q11.7 17.75 14.45 17.85 L17.0 17.4 19.7 17.05 22.6 16.3 24.8 16.3 Q24.1 11.75 23.75 7.15 L23.65 6.55 M24.4 7.05 L24.75 7.15 Q26.1 7.05 27.3 6.3 28.1 5.4 27.8 4.25 27.15 3.65 27.05 5.4 26.0 6.6 24.3 6.35 23.95 6.75 24.4 7.05 M22.95 5.65 L23.5 4.45 19.5 5.15 18.8 5.2 15.7 5.35 10.15 4.8 7.45 4.55 7.8 5.6 10.9 6.1 13.1 6.25 16.85 6.3 19.3 6.1 22.95 5.65 M3.0 4.1 L2.95 4.4 4.05 5.65 6.4 6.1 6.7 5.7 7.35 5.55 6.9 4.45 3.0 4.1 M2.95 4.55 L2.5 4.0 Q2.05 4.55 2.4 5.55 4.3 7.45 6.4 6.6 5.75 5.8 4.3 5.85 L3.0 5.2 2.95 4.55 M19.95 17.7 L19.35 17.95 18.6 18.2 18.55 19.6 18.4 21.3 18.2 22.85 19.95 17.7 M11.95 18.4 L12.05 19.05 12.35 21.3 13.0 24.95 12.7 20.65 12.85 21.55 12.9 21.6 13.4 25.75 Q13.5 26.6 14.35 27.0 L15.5 27.05 Q16.5 27.05 16.75 25.9 L16.75 25.75 Q16.85 23.0 17.6 20.6 L17.2 24.8 17.2 25.05 17.3 25.65 18.25 18.3 15.05 18.65 11.95 18.35 11.95 18.4 M10.4 17.75 L12.05 22.95 11.75 20.2 11.6 18.3 Q11.0 17.95 10.4 17.75" fill="#666666" fill-rule="evenodd" stroke="none"/>
    <path d="M22.95 5.65 L19.3 6.1 16.85 6.3 13.1 6.25 10.9 6.1 7.8 5.6 7.45 4.55 10.15 4.8 15.7 5.35 18.8 5.2 19.5 5.15 23.5 4.45 22.95 5.65 M19.95 17.7 L18.2 22.85 18.4 21.3 18.55 19.6 18.6 18.2 19.35 17.95 19.95 17.7 M10.4 17.75 Q11.0 17.95 11.6 18.3 L11.75 20.2 12.05 22.95 10.4 17.75 M11.95 18.4 L11.95 18.35 15.05 18.65 18.25 18.3 17.3 25.65 17.2 25.05 17.2 24.8 17.6 20.6 Q16.85 23.0 16.75 25.75 L16.75 25.9 Q16.5 27.05 15.5 27.05 L14.35 27.0 Q13.5 26.6 13.4 25.75 L12.9 21.6 12.85 21.55 12.7 20.65 13.0 24.95 12.35 21.3 12.05 19.05 11.95 18.4" fill="#dadada" fill-rule="evenodd" stroke="none"/>
    <path d="M24.4 7.05 Q23.95 6.75 24.3 6.35 26.0 6.6 27.05 5.4 27.15 3.65 27.8 4.25 28.1 5.4 27.3 6.3 26.1 7.05 24.75 7.15 L24.4 7.05 M23.65 6.55 L23.75 7.15 Q24.1 11.75 24.8 16.3 L22.6 16.3 19.7 17.05 17.0 17.4 14.45 17.85 Q11.7 17.75 9.15 16.6 L5.4 16.3 Q6.15 11.55 6.5 6.85 6.55 6.35 6.8 6.15 L9.1 6.55 9.4 7.6 Q10.2 9.9 11.8 11.3 12.65 11.95 13.6 12.4 L11.95 10.9 Q10.65 9.5 9.85 7.7 L9.75 7.5 Q9.3 6.75 10.0 6.55 L10.25 6.35 17.45 6.75 20.25 6.55 Q19.1 8.05 17.6 9.0 15.85 10.2 13.95 9.7 L14.3 10.0 Q16.3 10.65 18.05 9.1 L19.95 7.0 Q20.45 6.3 21.15 6.45 L23.4 6.15 23.65 6.55 M2.95 4.55 L3.0 5.2 4.3 5.85 Q5.75 5.8 6.4 6.6 4.3 7.45 2.4 5.55 2.05 4.55 2.5 4.0 L2.95 4.55" fill="#ffffff" fill-rule="evenodd" stroke="none"/>
  </g>
</svg>
