<?xml version="1.0" encoding="UTF-8" standalone="no"?>
<svg xmlns:ffdec="https://www.free-decompiler.com/flash" xmlns:xlink="http://www.w3.org/1999/xlink" ffdec:objectType="shape" height="24.95px" width="25.7px" xmlns="http://www.w3.org/2000/svg">
  <g transform="matrix(1.0, 0.0, 0.0, 1.0, -2.3, -3.0)">
    <path d="M4.65 5.6 L4.5 6.55 4.3 6.55 3.7 9.25 Q4.8 9.7 5.6 10.95 L6.45 11.2 Q7.7 11.7 8.9 12.55 L11.85 14.75 Q12.25 13.2 13.05 11.9 13.3 11.6 13.8 11.55 14.45 11.7 15.1 12.25 15.65 12.4 16.05 13.2 L16.7 15.4 17.3 15.4 19.3 14.55 Q23.35 14.55 23.25 9.25 L23.45 8.6 25.75 10.4 26.75 10.1 Q26.4 9.0 26.5 8.05 L26.5 7.95 26.6 7.9 27.45 10.4 27.05 11.9 Q26.6 12.55 25.95 12.65 25.35 12.8 24.85 13.2 L22.5 14.55 Q20.75 15.25 19.25 16.35 L17.05 18.0 Q15.25 19.35 13.65 17.4 L11.95 17.3 9.5 16.35 Q7.55 15.65 6.35 13.4 L5.4 13.2 3.35 11.3 Q2.75 10.6 2.9 9.55 L3.2 5.5 Q3.25 4.35 3.8 4.0 L4.05 4.25 4.65 5.6 M6.35 13.4 L6.35 13.35 6.35 13.4 M20.3 17.05 L20.3 17.15 18.55 22.3 17.8 23.55 17.6 23.4 17.05 25.6 17.0 25.7 15.1 26.7 13.7 26.4 13.55 25.75 13.4 25.3 12.25 20.45 12.2 20.6 Q12.4 23.0 12.85 25.2 L11.6 22.7 10.7 20.3 9.65 17.55 10.55 18.0 10.75 19.45 11.15 20.6 11.45 21.25 11.2 18.15 13.35 18.1 Q13.8 18.25 14.25 18.65 15.95 20.15 18.1 18.8 L17.85 23.0 18.65 18.4 20.3 17.05" fill="#796d55" fill-rule="evenodd" stroke="none"/>
    <path d="M27.45 10.4 L26.6 7.9 26.5 7.95 26.5 8.05 Q26.4 9.0 26.75 10.1 L25.75 10.4 23.45 8.6 23.25 9.25 Q23.35 14.55 19.3 14.55 L17.3 15.4 16.7 15.4 16.05 13.2 Q15.65 12.4 15.1 12.25 14.45 11.7 13.8 11.55 13.3 11.6 13.05 11.9 12.25 13.2 11.85 14.75 L8.9 12.55 Q7.7 11.7 6.45 11.2 L5.6 10.95 Q4.8 9.7 3.7 9.25 L4.3 6.55 4.5 6.55 4.65 5.6 Q6.35 7.0 8.25 7.25 L11.75 8.1 15.35 8.45 19.15 7.8 Q20.95 6.85 22.8 6.0 L24.2 5.65 Q25.35 5.05 26.35 4.1 L27.45 10.4 M6.35 13.4 L6.35 13.35 6.35 13.4" fill="#aca488" fill-rule="evenodd" stroke="none"/>
    <path d="M21.1 5.9 L23.95 4.7 Q25.3 4.35 26.35 3.15 L26.45 3.2 27.25 4.5 27.45 5.3 27.8 7.5 28.0 10.0 Q28.0 11.35 27.45 12.3 L26.95 12.65 26.45 13.4 Q24.9 14.3 23.6 15.3 22.15 16.5 20.95 16.9 L20.35 19.05 19.75 21.1 18.4 25.15 18.05 25.85 17.4 26.65 16.8 27.2 16.05 27.65 Q14.15 28.45 12.45 27.05 L12.2 26.65 Q11.3 24.6 10.75 22.7 9.8 19.5 8.5 16.8 8.05 16.65 7.7 16.35 L6.3 15.1 Q4.55 12.65 2.3 11.6 L2.5 9.05 2.7 5.1 Q2.8 3.2 3.8 3.0 4.4 3.45 4.65 4.65 L6.95 5.85 9.2 6.85 12.45 7.9 14.65 8.05 17.3 7.4 Q19.2 6.6 21.1 5.9 M27.45 10.4 L26.35 4.1 Q25.35 5.05 24.2 5.65 L22.8 6.0 Q20.95 6.85 19.15 7.8 L15.35 8.45 11.75 8.1 8.25 7.25 Q6.35 7.0 4.65 5.6 L4.05 4.25 3.8 4.0 Q3.25 4.35 3.2 5.5 L2.9 9.55 Q2.75 10.6 3.35 11.3 L5.4 13.2 6.35 13.4 Q7.55 15.65 9.5 16.35 L11.95 17.3 13.65 17.4 Q15.25 19.35 17.05 18.0 L19.25 16.35 Q20.75 15.25 22.5 14.55 L24.85 13.2 Q25.35 12.8 25.95 12.65 26.6 12.55 27.05 11.9 L27.45 10.4 M20.3 17.15 L20.3 17.0 20.3 17.05 18.65 18.4 17.85 23.0 18.1 18.8 Q15.95 20.15 14.25 18.65 13.8 18.25 13.35 18.1 L11.2 18.15 11.45 21.25 11.15 20.6 10.75 19.45 10.55 18.0 9.65 17.55 10.7 20.3 11.6 22.7 12.85 25.2 Q12.4 23.0 12.2 20.6 L12.25 20.45 13.4 25.3 13.55 25.75 13.7 26.4 15.1 26.7 17.0 25.7 17.05 25.6 17.6 23.4 17.8 23.55 18.55 22.3 20.3 17.15" fill="#57492d" fill-rule="evenodd" stroke="none"/>
  </g>
</svg>
