<?xml version="1.0" encoding="UTF-8" standalone="no"?>
<svg xmlns:ffdec="https://www.free-decompiler.com/flash" xmlns:xlink="http://www.w3.org/1999/xlink" ffdec:objectType="shape" height="26.35px" width="27.05px" xmlns="http://www.w3.org/2000/svg">
  <g transform="matrix(1.0, 0.0, 0.0, 1.0, -1.45, -2.1)">
    <path d="M28.25 5.7 L28.3 5.9 28.4 6.35 28.5 7.3 25.3 10.6 23.55 14.4 22.15 17.15 19.15 23.6 17.25 27.5 17.2 27.6 17.15 27.75 16.95 28.0 17.0 28.45 15.1 28.2 15.0 28.2 13.1 28.45 13.1 28.0 12.95 27.75 12.9 27.6 12.85 27.5 10.95 23.6 7.9 17.15 6.55 14.4 4.8 10.6 1.5 7.15 1.5 6.2 1.5 6.15 1.7 5.95 1.8 5.9 2.0 5.45 Q3.2 4.35 4.75 3.85 8.25 2.65 11.85 2.2 L12.1 2.2 15.0 2.1 15.1 2.1 17.95 2.2 18.25 2.2 Q21.8 2.65 25.3 3.85 26.85 4.35 28.05 5.45 L28.25 5.7 M21.8 11.8 L23.0 11.05 Q25.15 9.45 26.95 7.35 L27.1 7.2 27.1 7.15 27.1 7.05 27.1 6.8 27.1 6.65 27.15 6.35 27.15 6.3 Q24.75 4.65 22.0 3.95 L16.35 3.15 16.1 3.6 15.5 4.5 15.55 6.0 15.6 9.8 15.7 13.45 15.7 13.65 Q18.85 13.4 21.8 11.8 M21.9 16.35 L24.6 11.1 Q21.85 12.95 18.75 13.85 L15.45 14.4 15.2 14.4 15.05 14.4 15.0 14.4 11.35 13.85 Q8.2 12.95 5.45 11.1 L8.2 16.35 10.55 21.1 14.15 21.1 15.0 21.15 15.1 21.15 15.9 21.1 19.5 21.1 Q20.6 18.65 21.9 16.35 M13.7 3.15 L8.1 3.95 Q5.3 4.65 2.95 6.3 L2.95 6.4 Q2.65 6.7 2.95 7.2 L3.2 7.45 Q4.95 9.55 7.1 11.05 L8.3 11.8 Q11.3 13.4 14.55 13.65 L14.55 13.55 14.55 13.4 14.55 11.65 14.6 7.95 14.6 5.2 14.6 4.7 14.6 4.6 14.0 3.6 13.7 3.15" fill="#990000" fill-rule="evenodd" stroke="none"/>
    <path d="M21.9 16.35 Q20.6 18.65 19.5 21.1 L15.9 21.1 15.1 21.15 15.0 21.15 14.15 21.1 10.55 21.1 8.2 16.35 5.45 11.1 Q8.2 12.95 11.35 13.85 L15.0 14.4 15.05 14.4 15.2 14.4 15.45 14.4 18.75 13.85 Q21.85 12.95 24.6 11.1 L21.9 16.35" fill="#cc0000" fill-rule="evenodd" stroke="none"/>
  </g>
</svg>
