<?xml version="1.0" encoding="UTF-8" standalone="no"?>
<svg xmlns:ffdec="https://www.free-decompiler.com/flash" xmlns:xlink="http://www.w3.org/1999/xlink" ffdec:objectType="shape" height="25.55px" width="27.25px" xmlns="http://www.w3.org/2000/svg">
  <g transform="matrix(1.0, 0.0, 0.0, 1.0, -1.65, -2.45)">
    <path d="M21.95 12.25 L22.05 12.0 20.7 12.35 16.25 12.95 12.9 12.8 8.35 11.85 8.7 12.15 Q10.2 12.9 11.8 13.1 L15.25 13.5 18.8 13.1 Q20.4 12.95 21.95 12.25 M22.95 11.15 Q23.65 11.3 23.15 12.0 22.3 13.1 21.75 14.55 L20.55 17.6 19.05 21.35 18.4 23.25 Q15.25 22.35 12.2 23.25 L8.65 14.5 7.3 11.6 7.2 11.25 13.8 12.15 18.3 12.0 21.4 11.55 22.95 11.15" fill="#009966" fill-rule="evenodd" stroke="none"/>
    <path d="M22.8 5.45 L20.6 8.9 20.25 9.6 19.4 11.35 Q22.4 10.9 24.95 9.25 25.9 8.65 26.95 8.2 27.8 7.65 27.85 6.65 L27.65 5.9 Q26.05 4.6 24.1 4.4 23.4 4.5 22.8 5.45 M22.0 5.3 L23.0 4.2 15.35 3.6 13.35 3.6 7.55 4.2 8.55 5.4 10.4 8.25 12.0 11.2 12.4 11.75 13.25 11.8 15.35 11.9 18.15 11.75 18.5 11.2 20.2 8.25 22.0 5.3 M20.75 2.65 L22.55 2.75 Q26.1 2.8 28.6 5.3 L28.9 6.65 28.75 7.4 28.55 7.95 28.05 8.85 24.4 10.65 22.65 15.15 21.2 18.3 19.95 21.6 19.4 23.2 17.65 28.0 12.85 27.85 11.7 24.8 10.6 21.6 9.35 18.3 8.7 16.8 Q7.25 13.75 6.2 10.65 4.5 9.1 2.55 8.85 L2.4 8.75 2.0 8.0 1.75 7.4 Q1.45 6.45 2.0 5.3 L2.9 4.55 Q4.4 3.8 6.0 3.5 7.9 2.9 9.85 2.65 L15.25 2.45 17.15 2.55 20.75 2.65 M21.95 12.25 Q20.4 12.95 18.8 13.1 L15.25 13.5 11.8 13.1 Q10.2 12.9 8.7 12.15 L8.35 11.85 12.9 12.8 16.25 12.95 20.7 12.35 22.05 12.0 21.95 12.25 M22.95 11.15 L21.4 11.55 18.3 12.0 13.8 12.15 7.2 11.25 7.3 11.6 8.65 14.5 12.2 23.25 Q15.25 22.35 18.4 23.25 L19.05 21.35 20.55 17.6 21.75 14.55 Q22.3 13.1 23.15 12.0 23.65 11.3 22.95 11.15 M6.8 4.3 Q4.95 4.6 3.0 5.8 L2.7 6.45 Q2.7 7.7 3.6 8.2 L4.95 8.75 8.2 10.6 Q9.45 11.25 11.15 11.35 L9.85 8.95 7.65 5.5 6.95 4.5 6.8 4.3 M13.65 23.5 L12.2 23.35 13.35 26.55 Q13.65 27.25 14.35 27.3 L15.35 27.3 Q16.35 27.4 17.0 26.95 L18.35 23.35 16.9 23.55 Q15.25 23.2 13.65 23.5" fill="#01653f" fill-rule="evenodd" stroke="none"/>
    <path d="M22.0 5.3 L20.2 8.25 18.5 11.2 18.15 11.75 15.35 11.9 13.25 11.8 12.4 11.75 12.0 11.2 10.4 8.25 8.55 5.4 7.55 4.2 13.35 3.6 15.35 3.6 23.0 4.2 22.0 5.3 M13.65 23.5 Q15.25 23.2 16.9 23.55 L18.35 23.35 17.0 26.95 Q16.35 27.4 15.35 27.3 L14.35 27.3 Q13.65 27.25 13.35 26.55 L12.2 23.35 13.65 23.5" fill="#01784b" fill-rule="evenodd" stroke="none"/>
  </g>
</svg>
