<?xml version="1.0" encoding="UTF-8" standalone="no"?>
<svg xmlns:ffdec="https://www.free-decompiler.com/flash" xmlns:xlink="http://www.w3.org/1999/xlink" ffdec:objectType="shape" height="25.25px" width="26.1px" xmlns="http://www.w3.org/2000/svg">
  <g transform="matrix(1.0, 0.0, 0.0, 1.0, -1.3, -2.65)">
    <path d="M2.75 22.15 Q1.7 19.4 3.45 17.1 L3.8 16.75 6.0 17.15 Q10.9 15.8 13.2 11.25 20.8 9.25 25.9 3.35 L26.5 2.75 26.75 2.65 27.4 3.15 Q27.35 9.55 24.9 15.55 24.55 16.4 23.75 16.85 21.55 17.95 19.7 19.75 L19.6 20.45 19.45 20.75 19.2 20.95 18.75 21.25 Q13.4 21.5 9.95 26.3 L9.75 27.5 Q6.9 28.75 5.0 26.05 L3.0 22.9 3.65 22.4 Q4.6 25.45 7.15 26.8 L7.4 26.2 7.35 26.25 7.05 26.4 6.85 26.45 6.8 26.4 6.7 26.15 6.7 25.9 6.7 25.8 6.05 25.05 Q4.7 23.75 4.3 22.25 L5.25 22.6 6.15 24.3 Q8.75 21.15 12.3 19.8 L11.5 20.25 11.3 20.65 Q8.55 22.3 6.45 24.6 L7.85 25.6 Q11.55 21.25 16.3 20.5 L15.55 20.05 Q13.0 17.95 12.7 14.5 L12.7 14.4 12.4 13.6 Q9.25 16.85 4.9 18.15 L4.75 19.1 Q4.65 20.4 5.0 21.5 L4.15 21.5 4.0 19.65 4.2 17.85 Q3.75 17.4 3.55 18.0 L3.45 18.2 3.4 18.25 3.4 18.3 3.4 18.35 3.35 19.35 3.5 21.7 2.75 22.15 M26.5 3.75 Q24.6 7.7 24.15 11.9 23.9 13.5 23.95 15.25 L26.0 8.75 26.35 7.3 26.45 5.6 26.5 3.75 M24.4 6.7 L24.45 6.6 25.3 4.85 21.4 8.3 21.2 8.5 19.05 9.85 17.45 10.65 Q16.2 11.25 15.1 11.9 L15.05 11.95 Q14.3 14.55 15.6 16.7 L16.1 17.3 Q18.35 15.0 21.3 13.55 L16.25 17.55 18.05 18.75 Q20.15 16.25 23.1 14.9 L23.05 13.95 17.75 17.45 Q19.8 14.65 23.05 13.45 23.3 9.95 24.4 6.7 M20.35 17.55 L18.6 19.0 19.0 19.25 21.25 17.55 22.85 16.05 23.25 15.6 20.35 17.55 M13.9 11.95 Q13.75 11.95 13.7 12.05 13.0 12.6 13.25 13.4 13.6 15.65 14.6 17.6 L15.55 18.85 16.9 19.05 Q14.5 16.85 14.0 13.75 L14.05 13.75 Q14.3 13.0 14.1 12.1 L14.2 11.95 Q14.2 11.7 13.9 11.95 M14.85 19.6 Q11.3 21.5 8.0 24.45 9.8 21.25 13.65 20.0 L14.85 19.6 M17.8 20.25 L17.75 20.35 Q18.8 19.65 17.8 20.25 M14.9 21.45 Q13.9 21.9 12.95 22.55 11.4 23.55 9.9 24.7 L8.85 25.8 14.9 21.45 M17.1 19.75 Q16.85 20.25 17.25 19.9 L17.7 19.6 17.1 19.75 M8.55 26.45 L8.5 26.5 Q7.9 26.85 8.35 27.25 L8.5 27.15 8.55 26.45" fill="#006600" fill-rule="evenodd" stroke="none"/>
    <path d="M3.5 21.7 L3.35 19.35 4.0 19.65 4.15 21.5 3.5 21.7 M3.45 18.2 L3.55 18.0 Q3.75 17.4 4.2 17.85 L3.7 17.9 3.45 18.2 M5.0 21.5 Q4.65 20.4 4.75 19.1 L4.9 18.15 Q9.25 16.85 12.4 13.6 L12.7 14.4 Q10.8 14.95 9.3 16.65 7.65 18.35 5.3 18.2 L5.0 18.6 4.95 18.8 4.9 18.85 4.9 19.2 4.9 19.5 5.45 19.5 Q10.0 18.35 12.7 14.5 13.0 17.95 15.55 20.05 L16.3 20.5 Q11.55 21.25 7.85 25.6 L6.45 24.6 Q8.55 22.3 11.3 20.65 L11.5 20.25 12.3 19.8 Q8.75 21.15 6.15 24.3 L5.25 22.6 5.45 22.35 Q5.65 21.6 5.0 21.5 M4.3 22.25 Q4.7 23.75 6.05 25.05 L6.7 25.8 6.7 25.9 6.7 26.15 6.8 26.4 6.85 26.45 7.05 26.4 7.35 26.25 7.4 26.2 7.15 26.8 Q4.6 25.45 3.65 22.4 L4.3 22.25 M24.45 6.6 L24.45 6.45 Q22.95 7.0 21.4 8.3 L25.3 4.85 24.45 6.6 M19.05 9.85 L15.1 11.9 Q16.2 11.25 17.45 10.65 L19.05 9.85 M15.05 11.95 L15.3 12.75 16.55 12.4 Q21.5 10.85 24.4 6.7 23.3 9.95 23.05 13.45 19.8 14.65 17.75 17.45 L23.05 13.95 23.1 14.9 Q20.15 16.25 18.05 18.75 L16.25 17.55 21.3 13.55 Q18.35 15.0 16.1 17.3 L15.6 16.7 Q14.3 14.55 15.05 11.95 M20.35 17.55 L23.25 15.6 22.85 16.05 21.25 17.55 19.0 19.25 18.6 19.0 20.35 17.55 M13.9 11.95 Q14.2 11.7 14.2 11.95 L14.1 12.1 13.9 11.95 M14.0 13.75 Q14.5 16.85 16.9 19.05 L15.55 18.85 14.6 17.6 Q13.6 15.65 13.25 13.4 L13.75 13.8 14.0 13.75 M14.85 19.6 L13.65 20.0 Q9.8 21.25 8.0 24.45 11.3 21.5 14.85 19.6 M14.9 21.45 L8.85 25.8 9.9 24.7 Q11.4 23.55 12.95 22.55 13.9 21.9 14.9 21.45 M17.8 20.25 Q18.8 19.65 17.75 20.35 L17.8 20.25 M8.55 26.45 L8.5 27.15 8.35 27.25 Q7.9 26.85 8.5 26.5 L8.55 26.45 M17.1 19.75 L17.7 19.6 17.25 19.9 Q16.85 20.25 17.1 19.75" fill="#009933" fill-rule="evenodd" stroke="none"/>
    <path d="M3.35 19.35 L3.4 18.35 3.4 18.3 3.4 18.25 3.45 18.2 3.7 17.9 4.2 17.85 4.0 19.65 3.35 19.35 M12.7 14.4 L12.7 14.5 Q10.0 18.35 5.45 19.5 L4.9 19.5 4.9 19.2 4.9 18.85 4.95 18.8 5.0 18.6 5.3 18.2 Q7.65 18.35 9.3 16.65 10.8 14.95 12.7 14.4 M24.45 6.6 L24.4 6.7 Q21.5 10.85 16.55 12.4 L15.3 12.75 15.05 11.95 15.1 11.9 19.05 9.85 21.2 8.5 21.4 8.3 Q22.95 7.0 24.45 6.45 L24.45 6.6 M13.25 13.4 Q13.0 12.6 13.7 12.05 13.75 11.95 13.9 11.95 L14.1 12.1 Q14.3 13.0 14.05 13.75 L14.0 13.75 13.75 13.8 13.25 13.4" fill="#ffffff" fill-rule="evenodd" stroke="none"/>
    <path d="M26.5 3.75 L26.45 5.6 26.35 7.3 26.0 8.75 23.95 15.25 Q23.9 13.5 24.15 11.9 24.6 7.7 26.5 3.75" fill="#928d7e" fill-rule="evenodd" stroke="none"/>
    <path d="M3.0 22.9 Q2.6 24.15 1.8 25.15 L1.55 24.65 1.3 24.2 2.75 22.15 3.5 21.7 4.15 21.5 5.0 21.5 Q5.65 21.6 5.45 22.35 L5.25 22.6 4.3 22.25 3.65 22.4 3.0 22.9" fill="#666666" fill-rule="evenodd" stroke="none"/>
  </g>
</svg>
