<?xml version="1.0" encoding="UTF-8" standalone="no"?>
<svg xmlns:ffdec="https://www.free-decompiler.com/flash" xmlns:xlink="http://www.w3.org/1999/xlink" ffdec:objectType="shape" height="25.3px" width="27.6px" xmlns="http://www.w3.org/2000/svg">
  <g transform="matrix(1.0, 0.0, 0.0, 1.0, -1.15, -2.4)">
    <path d="M26.4 3.8 L23.8 5.3 21.9 6.2 18.35 8.2 Q20.5 9.3 21.75 11.9 22.55 13.65 22.4 15.6 22.1 17.8 21.35 19.55 L21.05 20.6 22.4 18.6 23.7 16.6 24.15 15.75 26.35 11.15 27.15 9.55 25.9 4.55 27.5 8.55 27.7 7.9 26.9 3.55 Q26.6 3.55 26.4 3.8 M26.3 2.6 L26.5 2.5 Q26.9 2.25 27.3 2.75 27.9 3.55 28.0 4.7 28.1 6.0 28.75 7.2 28.55 10.55 26.7 13.25 L25.0 16.15 24.35 17.45 23.85 18.45 22.9 20.3 22.0 22.4 22.0 22.45 Q21.2 24.65 19.4 26.05 17.7 27.4 15.45 27.65 13.35 27.85 11.55 26.55 9.8 25.25 8.75 23.3 L8.35 22.55 7.35 20.65 6.15 18.45 Q3.3 13.45 1.15 7.65 L2.25 3.85 Q2.5 2.8 3.1 2.45 L5.7 4.15 Q8.55 6.3 11.9 7.3 L12.05 7.3 13.95 7.75 14.05 7.45 Q14.2 7.05 14.45 7.05 15.05 7.1 15.25 7.75 L15.65 7.65 Q17.65 7.55 19.5 6.5 20.25 6.05 21.05 5.7 L24.05 4.1 25.65 3.2 26.3 2.6 M20.8 13.7 L20.8 13.25 Q20.5 11.9 19.85 11.05 L18.6 10.0 18.55 9.95 17.85 9.75 16.45 9.15 15.8 9.0 15.9 9.15 16.55 10.45 17.05 11.65 17.05 11.95 15.8 13.65 16.0 15.5 16.1 17.8 16.05 18.0 Q15.95 18.0 15.85 18.15 L15.55 17.4 15.15 14.3 14.75 12.05 14.5 10.45 14.5 10.55 14.15 12.35 13.9 14.4 13.8 15.65 13.5 18.1 13.45 18.25 13.1 18.15 12.95 17.5 Q12.75 16.5 12.9 15.8 L13.1 14.6 13.15 13.65 12.5 13.4 12.1 12.2 11.8 10.85 11.8 10.6 13.25 8.95 12.25 9.25 Q11.75 9.45 11.3 9.85 10.75 10.15 10.3 10.55 9.25 11.75 9.05 13.55 L8.95 14.45 9.05 17.2 Q9.15 18.7 10.0 19.7 L10.45 20.2 Q11.2 21.15 12.4 21.7 L17.0 21.8 19.5 20.25 19.6 20.15 20.3 18.95 20.8 17.25 20.95 14.85 20.85 14.0 20.8 13.7 M20.45 22.5 L20.05 22.05 18.0 22.6 15.8 23.25 15.45 23.75 15.55 26.4 Q16.9 26.75 18.0 26.1 L19.5 25.25 20.0 24.9 20.2 24.05 20.35 23.25 20.45 22.5 M11.4 8.1 Q8.85 7.05 6.1 5.3 L5.0 4.65 3.55 3.65 3.05 3.55 2.2 7.9 2.45 8.55 4.0 4.55 2.8 9.55 3.5 11.2 5.85 15.6 6.55 16.9 8.9 20.6 8.8 20.0 8.0 17.2 Q7.75 16.1 7.65 15.0 L7.65 14.45 Q7.85 11.25 9.7 9.7 10.4 9.05 11.15 8.5 L11.5 8.1 11.4 8.1 M16.25 11.6 L15.25 10.05 15.7 12.1 16.25 11.6 M12.85 12.05 L13.9 9.6 12.6 11.05 12.85 12.05 M10.4 22.15 L9.8 22.1 Q9.9 24.45 11.85 25.75 13.0 26.45 14.5 26.5 L14.65 23.45 10.4 22.15" fill="#666666" fill-rule="evenodd" stroke="none"/>
    <path d="M20.45 22.5 L20.35 23.25 20.2 24.05 20.0 24.9 19.5 25.25 18.0 26.1 Q16.9 26.75 15.55 26.4 L15.45 23.75 15.8 23.25 18.0 22.6 20.05 22.05 20.45 22.5 M10.4 22.15 L14.65 23.45 14.5 26.5 Q13.0 26.45 11.85 25.75 9.9 24.45 9.8 22.1 L10.4 22.15" fill="#999999" fill-rule="evenodd" stroke="none"/>
    <path d="M26.4 3.8 Q26.6 3.55 26.9 3.55 L27.7 7.9 27.5 8.55 25.9 4.55 27.15 9.55 26.35 11.15 24.15 15.75 23.7 16.6 22.4 18.6 21.05 20.6 21.35 19.55 Q22.1 17.8 22.4 15.6 22.55 13.65 21.75 11.9 20.5 9.3 18.35 8.2 L21.9 6.2 23.8 5.3 26.4 3.8 M11.4 8.1 L11.5 8.1 11.15 8.5 Q10.4 9.05 9.7 9.7 7.85 11.25 7.65 14.45 L7.65 15.0 Q7.75 16.1 8.0 17.2 L8.8 20.0 8.9 20.6 6.55 16.9 5.85 15.6 3.5 11.2 2.8 9.55 4.0 4.55 2.45 8.55 2.2 7.9 3.05 3.55 3.55 3.65 5.0 4.65 6.1 5.3 Q8.85 7.05 11.4 8.1" fill="#cccccc" fill-rule="evenodd" stroke="none"/>
  </g>
</svg>
