<?xml version="1.0" encoding="UTF-8" standalone="no"?>
<svg xmlns:ffdec="https://www.free-decompiler.com/flash" xmlns:xlink="http://www.w3.org/1999/xlink" ffdec:objectType="shape" height="24.9px" width="27.65px" xmlns="http://www.w3.org/2000/svg">
  <g transform="matrix(1.0, 0.0, 0.0, 1.0, -1.25, -2.7)">
    <path d="M26.75 2.8 L27.2 2.95 28.9 7.05 27.6 8.6 Q26.4 10.05 25.35 11.65 23.7 13.95 22.2 16.55 20.75 18.95 19.4 21.65 L18.7 23.05 18.55 23.35 17.5 27.3 17.3 27.4 17.05 27.55 15.0 27.6 12.65 27.3 12.6 27.1 12.5 26.6 11.3 23.15 9.45 19.05 8.0 16.45 6.45 14.0 Q4.05 10.1 1.25 7.05 L2.95 2.95 3.75 2.7 Q4.65 3.05 5.55 3.5 L7.25 4.3 Q10.25 5.8 13.45 6.3 L15.15 6.3 16.75 6.3 18.3 5.95 Q22.4 4.65 26.4 2.7 L26.75 2.8 M26.35 4.65 L26.45 4.6 27.7 6.4 27.5 6.05 27.15 5.1 27.0 4.6 26.3 3.85 24.9 4.45 Q20.1 6.75 15.0 7.6 L14.7 7.55 12.3 7.1 Q8.05 5.8 3.85 3.85 L3.5 4.3 3.3 4.5 3.15 4.6 2.95 4.95 Q2.45 6.05 2.55 6.55 L3.1 5.55 3.75 4.65 3.85 4.75 3.05 7.1 Q5.5 10.1 7.7 13.65 L8.55 15.0 9.55 16.45 10.8 17.95 11.75 19.05 12.6 19.95 13.85 20.9 15.15 21.5 Q16.3 21.3 16.95 20.45 L19.3 18.05 20.4 16.8 21.3 15.5 22.5 13.65 25.5 9.05 26.95 6.75 26.25 4.8 26.3 4.75 26.35 4.65 M11.85 20.85 Q12.9 23.25 13.55 26.1 L16.6 26.1 Q17.3 22.65 18.8 19.9 L19.1 19.25 17.75 20.85 16.45 21.95 15.0 22.35 Q14.15 22.0 13.45 21.5 L12.2 20.4 11.05 19.25 11.85 20.85" fill="#313566" fill-rule="evenodd" stroke="none"/>
    <path d="M26.35 4.65 L26.3 4.75 26.25 4.8 26.95 6.75 25.5 9.05 22.5 13.65 21.3 15.5 20.4 16.8 19.3 18.05 16.95 20.45 Q16.3 21.3 15.15 21.5 L13.85 20.9 12.6 19.95 11.75 19.05 10.8 17.95 9.55 16.45 8.55 15.0 7.7 13.65 Q5.5 10.1 3.05 7.1 L3.85 4.75 3.75 4.65 3.1 5.55 2.55 6.55 Q2.45 6.05 2.95 4.95 L3.15 4.6 3.3 4.5 3.5 4.3 3.85 3.85 Q8.05 5.8 12.3 7.1 L14.7 7.55 15.0 7.6 Q20.1 6.75 24.9 4.45 L26.3 3.85 27.0 4.6 27.15 5.1 27.5 6.05 27.7 6.4 26.45 4.6 26.35 4.65 M25.65 5.0 L25.4 5.1 24.7 5.3 24.15 5.8 23.85 5.6 Q23.45 5.8 23.05 6.15 L23.45 7.3 23.65 7.25 24.2 6.4 24.35 6.05 25.05 6.15 Q25.65 6.1 25.7 5.15 L25.65 5.0 M22.65 6.75 L22.1 6.1 21.7 6.6 21.6 6.9 Q21.65 7.65 22.25 7.95 L22.7 8.1 Q23.05 7.4 22.65 6.75 M7.35 7.2 Q7.15 8.3 7.75 8.1 8.3 8.0 8.45 7.3 8.7 6.3 8.05 6.1 L7.35 7.2 M5.65 5.9 L5.75 6.1 Q6.0 7.3 6.75 7.3 L7.1 6.15 Q6.7 5.1 6.0 5.8 L5.5 5.4 Q4.8 4.95 4.35 5.15 L4.6 5.65 5.65 5.9" fill="#0066cc" fill-rule="evenodd" stroke="none"/>
    <path d="M11.85 20.85 L11.05 19.25 12.2 20.4 13.45 21.5 Q14.15 22.0 15.0 22.35 L16.45 21.95 17.75 20.85 19.1 19.25 18.8 19.9 Q17.3 22.65 16.6 26.1 L13.55 26.1 Q12.9 23.25 11.85 20.85" fill="#01407e" fill-rule="evenodd" stroke="none"/>
    <path d="M22.65 6.75 Q23.05 7.4 22.7 8.1 L22.25 7.95 Q21.65 7.65 21.6 6.9 L21.7 6.6 22.1 6.1 22.65 6.75 M25.65 5.0 L25.7 5.15 Q25.65 6.1 25.05 6.15 L24.35 6.05 24.2 6.4 23.65 7.25 23.45 7.3 23.05 6.15 Q23.45 5.8 23.85 5.6 L24.15 5.8 24.7 5.3 25.4 5.1 25.65 5.0 M5.65 5.9 L4.6 5.65 4.35 5.15 Q4.8 4.95 5.5 5.4 L6.0 5.8 Q6.7 5.1 7.1 6.15 L6.75 7.3 Q6.0 7.3 5.75 6.1 L5.65 5.9 M7.35 7.2 L8.05 6.1 Q8.7 6.3 8.45 7.3 8.3 8.0 7.75 8.1 7.15 8.3 7.35 7.2" fill="#ffffff" fill-rule="evenodd" stroke="none"/>
  </g>
</svg>
