<?xml version="1.0" encoding="UTF-8" standalone="no"?>
<svg xmlns:ffdec="https://www.free-decompiler.com/flash" xmlns:xlink="http://www.w3.org/1999/xlink" ffdec:objectType="shape" height="26.3px" width="23.2px" xmlns="http://www.w3.org/2000/svg">
  <g transform="matrix(1.0, 0.0, 0.0, 1.0, -3.4, -2.0)">
    <path d="M20.1 3.45 Q22.85 3.1 25.5 2.1 L26.5 2.3 26.6 2.45 26.55 4.55 Q25.35 12.4 21.1 19.0 19.25 21.85 19.0 25.25 18.85 27.35 17.2 27.85 12.3 29.6 11.35 24.45 11.0 22.2 9.9 20.3 L6.9 14.8 Q4.9 10.95 3.7 6.75 3.1 4.5 3.7 2.3 L4.5 2.0 Q5.75 2.6 7.15 2.9 L5.6 2.8 Q7.75 5.95 9.15 9.7 10.55 13.45 14.55 13.55 L15.8 13.5 Q18.95 13.85 20.35 11.05 L21.4 8.9 20.55 10.95 Q19.85 12.9 18.15 13.35 15.2 14.2 12.5 13.4 10.05 12.9 9.15 10.4 7.8 6.45 5.15 3.1 L4.3 2.4 3.8 2.7 3.75 3.15 3.85 3.65 3.95 3.6 Q6.85 5.1 7.75 8.9 L8.9 12.7 Q10.75 17.9 11.65 23.25 15.0 25.0 18.65 23.25 19.7 17.7 21.45 12.4 22.7 8.55 24.8 5.05 L23.45 8.9 Q21.1 14.45 19.8 20.4 22.15 17.0 23.7 13.15 25.6 8.6 26.15 4.15 L25.1 4.65 25.2 4.4 26.0 3.55 26.4 3.75 26.6 3.2 26.45 2.7 25.8 2.4 Q23.85 4.45 22.45 6.9 L24.55 3.0 20.3 3.45 20.1 3.45 M5.35 4.7 L4.15 4.15 Q4.5 8.6 6.55 13.1 8.25 17.0 10.45 20.4 9.05 14.55 6.95 8.85 L5.35 4.7 M12.0 23.95 L12.05 25.2 12.3 26.6 Q14.4 28.7 17.2 27.25 L17.8 26.9 18.1 25.6 18.25 23.95 Q15.05 24.75 12.0 23.95" fill="#6a713e" fill-rule="evenodd" stroke="none"/>
    <path d="M22.45 6.9 Q23.85 4.45 25.8 2.4 L26.45 2.7 26.6 3.2 26.4 3.75 26.0 3.55 25.2 4.4 25.1 4.65 24.95 4.7 24.8 5.05 Q22.7 8.55 21.45 12.4 19.7 17.7 18.65 23.25 15.0 25.0 11.65 23.25 10.75 17.9 8.9 12.7 L7.75 8.9 Q6.85 5.1 3.95 3.6 L3.85 3.65 3.75 3.15 3.8 2.7 4.3 2.4 5.15 3.1 Q7.8 6.45 9.15 10.4 10.05 12.9 12.5 13.4 15.2 14.2 18.15 13.35 19.85 12.9 20.55 10.95 L21.4 8.9 22.45 6.9" fill="#ffff99" fill-rule="evenodd" stroke="none"/>
    <path d="M20.1 3.45 L20.3 3.45 24.55 3.0 22.45 6.9 21.4 8.9 20.35 11.05 Q18.95 13.85 15.8 13.5 L14.55 13.55 Q10.55 13.45 9.15 9.7 7.75 5.95 5.6 2.8 L7.15 2.9 9.35 3.1 17.05 3.6 20.1 3.45 M25.1 4.65 L26.15 4.15 Q25.6 8.6 23.7 13.15 22.15 17.0 19.8 20.4 21.1 14.45 23.45 8.9 L24.8 5.05 24.95 4.7 25.1 4.65 M12.0 23.95 Q15.05 24.75 18.25 23.95 L18.1 25.6 17.8 26.9 17.2 27.25 Q14.4 28.7 12.3 26.6 L12.05 25.2 12.0 23.95 M5.35 4.7 L6.95 8.85 Q9.05 14.55 10.45 20.4 8.25 17.0 6.55 13.1 4.5 8.6 4.15 4.15 L5.35 4.7" fill="#b0ba69" fill-rule="evenodd" stroke="none"/>
  </g>
</svg>
