<?xml version="1.0" encoding="UTF-8" standalone="no"?>
<svg xmlns:ffdec="https://www.free-decompiler.com/flash" xmlns:xlink="http://www.w3.org/1999/xlink" ffdec:objectType="shape" height="9.15px" width="15.0px" xmlns="http://www.w3.org/2000/svg">
  <g transform="matrix(1.0, 0.0, 0.0, 1.0, 9.15, 7.7)">
    <path d="M5.6 -7.7 L5.8 -7.55 5.85 -5.75 5.1 -4.6 3.9 -2.75 2.7 -1.35 2.35 -1.0 1.55 0.0 1.25 0.45 1.25 0.5 0.25 1.4 0.0 1.45 -0.7 1.45 -1.0 1.3 -1.8 0.75 -2.8 0.15 -3.9 -0.25 -5.2 -0.6 -6.55 -0.9 -7.5 -1.05 -8.3 -1.25 -8.6 -1.25 -9.05 -1.3 -9.15 -3.35 -5.9 -3.6 -1.6 -3.1 0.85 -3.25 1.3 -3.4 2.05 -3.85 2.5 -4.2 2.95 -4.55 3.45 -5.05 4.25 -5.95 4.8 -6.65 5.35 -7.5 5.45 -7.7 5.6 -7.7 M5.35 -7.15 L5.25 -7.05 5.2 -6.95 4.8 -6.4 4.75 -6.25 4.25 -5.65 3.3 -4.55 3.2 -4.45 Q2.7 -3.95 2.05 -3.6 L1.75 -3.4 1.6 -3.35 0.95 -3.0 0.85 -2.9 0.4 -2.7 0.2 -2.6 -0.05 -2.6 -0.2 -2.65 -1.65 -2.8 -1.85 -2.8 -3.7 -2.95 -3.9 -3.0 -4.1 -3.0 -5.95 -3.2 -6.25 -3.2 -7.3 -3.25 -7.5 -3.3 -7.85 -3.3 -8.05 -3.3 -8.6 -3.2 -8.8 -3.2 -8.95 -3.15 -8.85 -2.65 -8.85 -2.5 -8.85 -2.35 -8.85 -2.3 -8.85 -1.95 -8.85 -1.65 -8.55 -1.6 -8.25 -1.55 -7.25 -1.4 -6.95 -1.3 -6.25 -1.2 -6.1 -1.2 -5.65 -1.05 -5.05 -0.95 -4.5 -0.75 -4.35 -0.75 -2.7 -0.15 -1.5 0.35 -1.4 0.4 -0.7 -0.4 -0.55 -0.45 0.1 -0.9 0.2 -0.9 0.35 -1.0 0.8 -1.2 1.25 -1.25 1.55 -1.35 1.75 -1.2 1.9 -0.95 2.0 -1.1 2.15 -1.2 2.65 -1.75 3.55 -2.7 3.95 -3.25 3.95 -3.3 4.0 -3.35 4.3 -3.8 4.35 -3.9 4.9 -4.8 5.05 -5.05 5.3 -5.35 5.3 -5.4 5.55 -5.9 5.55 -6.1 5.6 -6.7 5.6 -6.85 5.55 -7.25 5.45 -7.25 5.4 -7.2 5.35 -7.15 M1.6 -0.45 L1.4 -1.05 1.3 -1.05 Q0.1 -1.0 -0.75 -0.15 L-1.4 0.7 -1.4 0.75 Q-1.2 1.1 -0.75 1.15 L-0.3 1.3 Q0.45 1.15 1.0 0.55 L1.2 0.3 1.6 -0.45" fill="#81399f" fill-rule="evenodd" stroke="none"/>
    <path d="M1.6 -0.45 L1.2 0.3 1.0 0.55 Q0.45 1.15 -0.3 1.3 L-0.75 1.15 Q-1.2 1.1 -1.4 0.75 L-1.4 0.7 -0.75 -0.15 Q0.1 -1.0 1.3 -1.05 L1.4 -1.05 1.6 -0.45" fill="#55266a" fill-rule="evenodd" stroke="none"/>
    <path d="M5.25 -7.05 L5.3 -7.05 5.35 -7.15 5.4 -7.2 5.45 -7.25 5.5 -6.95 5.6 -6.85 5.6 -6.7 5.45 -6.7 5.4 -6.15 5.55 -6.1 5.55 -5.9 5.35 -5.95 5.3 -5.4 5.3 -5.35 5.05 -5.05 4.6 -5.2 4.45 -5.25 4.15 -4.0 4.35 -3.9 4.3 -3.8 4.15 -3.85 4.0 -3.35 3.95 -3.3 3.95 -3.25 3.55 -2.7 3.05 -2.95 2.65 -1.75 2.15 -1.2 2.35 -1.75 1.6 -2.0 1.25 -1.25 0.8 -1.2 0.75 -1.45 0.15 -1.15 0.35 -1.0 0.2 -0.9 0.1 -0.9 -0.1 -0.95 -0.6 -0.55 -0.55 -0.45 -0.7 -0.4 -0.8 -0.4 -1.5 0.2 -1.5 0.35 -2.7 -0.15 -4.0 -1.0 -4.35 -0.75 -4.5 -0.75 -4.1 -1.1 -5.15 -2.0 -5.75 -1.5 -5.05 -0.95 -5.65 -1.05 -5.95 -1.35 -6.1 -1.2 -6.25 -1.2 -6.0 -1.4 -6.95 -2.35 -7.45 -1.85 -6.95 -1.4 -6.95 -1.3 -7.25 -1.4 -7.6 -1.7 -7.8 -1.55 -7.7 -1.85 -8.5 -2.75 -8.85 -2.35 -8.85 -2.5 -8.55 -2.8 -8.8 -3.2 -8.6 -3.2 -8.4 -2.95 -8.05 -3.3 -7.85 -3.3 -8.3 -2.9 -7.55 -2.05 -7.1 -2.5 -7.5 -3.3 -7.3 -3.25 -7.3 -3.2 -7.25 -3.2 -6.9 -2.7 -6.25 -3.2 -5.95 -3.2 -5.05 -2.25 -4.1 -3.0 -3.9 -3.0 -3.7 -2.95 -2.8 -2.05 -1.85 -2.8 -1.65 -2.8 -1.8 -2.7 -1.25 -2.15 -1.15 -2.05 -1.05 -1.95 -1.0 -1.95 -0.85 -1.8 -0.05 -2.3 -0.25 -2.55 -0.2 -2.65 -0.05 -2.6 0.15 -2.45 0.2 -2.5 0.2 -2.6 0.4 -2.7 0.7 -2.45 0.85 -2.9 0.95 -3.0 0.85 -2.3 1.5 -2.15 1.95 -3.25 1.6 -3.35 1.75 -3.4 2.0 -3.35 2.1 -3.6 2.05 -3.35 2.85 -3.15 3.25 -4.35 3.3 -4.3 3.05 -3.1 3.6 -2.85 3.9 -3.95 3.25 -4.35 3.2 -4.45 3.3 -4.55 3.95 -4.15 4.25 -5.4 4.2 -5.55 4.25 -5.65 4.35 -5.6 4.45 -5.8 4.5 -5.8 4.45 -5.5 Q4.7 -5.3 5.05 -5.2 L5.2 -6.05 4.75 -6.25 4.8 -6.4 5.2 -6.3 5.3 -6.85 5.2 -6.95 5.25 -7.05 M-3.9 -3.0 L-4.95 -2.15 -3.9 -1.2 -3.0 -1.9 -3.2 -2.1 -3.4 -2.3 -3.6 -2.5 -3.9 -3.0 M2.4 -1.85 L2.85 -3.0 2.05 -3.25 1.65 -2.1 2.4 -1.85 M0.55 -1.9 L0.1 -2.15 -0.7 -1.7 -0.1 -1.3 0.65 -1.7 0.55 -1.9 M1.75 -1.2 L2.0 -1.1 1.9 -0.95 1.75 -1.2 M1.2 -1.45 L1.45 -2.05 0.85 -2.2 1.2 -1.45 M-8.85 -2.3 L-8.25 -1.55 -8.55 -1.6 -8.85 -1.95 -8.85 -2.3 M-5.2 -2.1 L-6.0 -3.1 -6.75 -2.5 -5.8 -1.55 -5.2 -2.1 M-2.55 -0.35 L-1.8 -1.05 -2.85 -1.8 -3.85 -1.15 -2.9 -0.5 -2.55 -0.35 M-1.85 -2.65 L-2.65 -1.95 -1.7 -1.15 -1.05 -1.65 -1.5 -2.1 -1.85 -2.65 M-2.5 -0.3 L-1.7 0.15 -1.6 0.05 -1.5 0.05 -1.05 -0.5 -1.75 -0.95 -2.5 -0.3 M-0.35 -1.1 L-0.9 -1.55 -1.55 -1.05 -0.9 -0.65 -0.35 -1.1" fill="#be89d6" fill-rule="evenodd" stroke="none"/>
  </g>
</svg>
