<?xml version="1.0" encoding="UTF-8" standalone="no"?>
<svg xmlns:ffdec="https://www.free-decompiler.com/flash" xmlns:xlink="http://www.w3.org/1999/xlink" ffdec:objectType="shape" height="19.55px" width="27.5px" xmlns="http://www.w3.org/2000/svg">
  <g transform="matrix(1.0, 0.0, 0.0, 1.0, -1.3, -5.15)">
    <path d="M11.05 22.6 L9.45 20.4 6.1 16.05 Q3.9 13.75 2.1 10.75 L1.45 9.25 Q1.05 7.95 1.65 6.8 2.0 6.1 2.45 5.5 L2.75 5.2 3.1 5.15 3.2 5.15 3.4 5.35 5.1 7.2 8.0 9.6 10.4 11.0 Q15.85 13.65 21.05 10.35 L23.35 8.75 25.05 7.2 26.65 5.4 26.7 5.3 26.85 5.2 26.9 5.15 Q27.35 5.2 27.7 5.5 28.55 6.55 28.8 8.2 L28.7 9.05 27.4 5.7 27.35 5.75 27.55 7.15 28.1 9.15 28.0 9.15 Q26.35 11.95 24.25 14.2 22.25 16.25 20.7 18.25 L20.5 18.15 18.7 18.5 16.1 18.55 15.1 18.65 9.45 18.25 9.4 18.25 Q7.35 15.0 4.75 12.7 3.05 11.25 2.0 9.15 L2.8 5.85 2.75 5.7 1.45 9.05 1.65 9.65 3.5 11.9 5.95 14.4 8.0 17.2 11.25 22.0 11.05 22.6 M28.25 10.1 Q27.5 11.95 26.35 13.25 L23.95 15.9 Q23.05 16.85 22.35 17.95 L20.7 20.25 19.05 22.6 18.85 22.0 20.95 19.1 21.2 18.7 22.1 17.05 Q24.7 13.4 27.9 10.55 L28.25 10.1 M18.8 22.95 Q17.15 24.65 15.1 24.7 13.1 24.7 11.3 22.95 L11.35 22.5 11.25 22.0 Q10.85 20.1 9.85 19.05 L12.6 18.75 20.35 19.05 Q19.0 20.6 18.6 22.45 18.5 22.95 18.8 22.95 M20.65 11.75 L22.95 10.1 23.55 9.3 21.85 10.55 19.0 11.9 15.75 12.9 Q15.1 13.15 14.4 12.9 L11.1 11.9 Q8.65 11.0 6.65 9.25 L6.55 9.35 7.2 10.05 Q8.85 11.5 10.85 12.45 12.85 13.4 15.0 13.4 L17.15 13.2 Q19.0 12.95 20.65 11.75" fill="#666666" fill-rule="evenodd" stroke="none"/>
    <path d="M11.05 22.6 L11.25 22.0 8.0 17.2 5.95 14.4 3.5 11.9 1.65 9.65 1.45 9.05 2.75 5.7 2.8 5.85 2.0 9.15 Q3.05 11.25 4.75 12.7 7.35 15.0 9.4 18.25 L9.45 18.25 15.1 18.65 16.1 18.55 18.7 18.5 20.5 18.15 20.7 18.25 Q22.25 16.25 24.25 14.2 26.35 11.95 28.0 9.15 L28.1 9.15 27.55 7.15 27.35 5.75 27.4 5.7 28.7 9.05 28.65 9.15 28.25 10.1 27.9 10.55 Q24.7 13.4 22.1 17.05 L21.2 18.7 20.95 19.1 18.85 22.0 19.05 22.6 18.95 22.95 18.8 22.95 Q18.5 22.95 18.6 22.45 19.0 20.6 20.35 19.05 L12.6 18.75 9.85 19.05 Q10.85 20.1 11.25 22.0 L11.35 22.5 11.3 22.95 11.2 22.85 11.05 22.6 M20.65 11.75 Q19.0 12.95 17.15 13.2 L15.0 13.4 Q12.85 13.4 10.85 12.45 8.85 11.5 7.2 10.05 L6.55 9.35 6.65 9.25 Q8.65 11.0 11.1 11.9 L14.4 12.9 Q15.1 13.15 15.75 12.9 L19.0 11.9 21.85 10.55 23.55 9.3 22.95 10.1 20.65 11.75" fill="#404040" fill-rule="evenodd" stroke="none"/>
  </g>
</svg>
