<?xml version="1.0" encoding="UTF-8" standalone="no"?>
<svg xmlns:ffdec="https://www.free-decompiler.com/flash" xmlns:xlink="http://www.w3.org/1999/xlink" ffdec:objectType="shape" height="27.35px" width="27.25px" xmlns="http://www.w3.org/2000/svg">
  <g transform="matrix(1.0, 0.0, 0.0, 1.0, -1.35, -1.5)">
    <path d="M26.75 24.3 L23.4 21.35 22.6 20.55 19.3 16.9 18.65 16.2 13.95 11.5 13.25 10.85 9.65 7.55 8.8 6.7 5.9 3.35 5.2 2.55 4.0 2.75 2.4 4.05 2.85 4.85 4.7 3.8 3.0 5.1 3.9 6.5 4.05 6.75 5.3 8.35 5.9 9.15 7.15 10.8 7.5 13.15 Q7.6 13.85 8.1 14.4 8.65 15.45 9.55 16.3 L10.4 17.2 12.85 19.7 13.8 20.6 Q13.8 21.0 14.25 21.25 15.3 22.6 16.9 22.75 L19.3 23.05 20.95 24.3 21.75 24.9 23.35 26.1 23.6 26.3 25.0 27.15 26.3 25.5 25.25 27.35 26.0 27.75 27.35 26.2 27.55 25.0 26.75 24.3 M4.65 1.5 L6.05 2.3 16.6 13.5 27.8 24.2 28.6 25.55 26.15 28.85 Q24.95 28.35 23.9 27.75 L21.2 25.85 Q19.9 24.6 18.3 24.2 L15.25 23.55 13.25 23.2 11.15 23.1 Q9.05 21.5 7.35 19.35 L7.0 18.85 Q6.95 15.2 5.95 11.8 L5.25 10.05 4.75 9.35 4.05 8.5 2.4 6.2 1.35 3.95 4.65 1.5 M9.35 20.85 L11.3 21.75 Q13.0 22.35 14.8 22.6 L7.55 15.3 7.95 17.85 Q8.25 19.5 9.35 20.85" fill="#55266a" fill-rule="evenodd" stroke="none"/>
    <path d="M26.75 24.3 L25.55 23.7 25.55 25.4 27.55 25.0 27.35 26.2 26.0 27.75 25.25 27.35 26.3 25.5 25.0 27.15 23.6 26.3 24.5 24.75 Q24.75 24.0 24.45 23.55 24.15 23.05 23.55 23.0 L23.25 23.0 Q22.25 23.2 21.5 23.8 21.2 24.0 20.95 24.3 L19.3 23.05 16.9 22.75 Q15.3 22.6 14.25 21.25 13.8 21.0 13.8 20.6 L13.75 20.25 Q13.45 18.6 12.75 17.2 L9.55 16.3 Q8.65 15.45 8.1 14.4 7.6 13.85 7.5 13.15 L7.15 10.8 5.9 9.15 6.35 8.6 Q7.2 7.6 7.2 6.45 7.1 5.9 6.65 5.65 L5.4 5.6 Q4.65 5.8 3.9 6.5 L3.0 5.1 4.7 3.8 2.85 4.85 2.4 4.05 4.0 2.75 5.2 2.55 4.8 4.55 6.5 4.55 5.9 3.35 8.8 6.7 8.35 12.25 11.45 12.5 11.3 12.05 10.5 11.8 9.7 11.6 9.65 7.55 13.25 10.85 13.0 13.4 15.35 13.5 15.5 13.4 14.75 12.8 13.95 12.75 13.95 11.5 18.65 16.2 17.4 16.2 17.35 15.4 16.75 14.65 16.6 14.8 16.75 17.15 19.3 16.9 22.6 20.55 18.5 20.45 18.35 19.65 18.05 18.85 17.65 18.7 17.7 20.0 17.6 21.95 23.4 21.35 26.75 24.3 M4.05 6.75 L5.75 6.55 5.3 8.35 4.05 6.75 M10.4 17.2 Q11.8 17.25 12.45 18.2 L12.85 19.7 10.4 17.2 M11.1 15.05 L14.05 16.0 15.05 19.05 15.15 18.1 14.8 15.25 14.75 15.25 11.1 15.05 M23.35 26.1 L21.75 24.9 23.55 24.45 23.35 26.1" fill="#b483d1" fill-rule="evenodd" stroke="none"/>
    <path d="M27.55 25.0 L25.55 25.4 25.55 23.7 26.75 24.3 27.55 25.0 M23.4 21.35 L17.6 21.95 17.7 20.0 17.65 18.7 18.05 18.85 18.35 19.65 18.5 20.45 22.6 20.55 23.4 21.35 M19.3 16.9 L16.75 17.15 16.6 14.8 16.75 14.65 17.35 15.4 17.4 16.2 18.65 16.2 19.3 16.9 M13.95 11.5 L13.95 12.75 14.75 12.8 15.5 13.4 15.35 13.5 13.0 13.4 13.25 10.85 13.95 11.5 M9.65 7.55 L9.7 11.6 10.5 11.8 11.3 12.05 11.45 12.5 8.35 12.25 8.8 6.7 9.65 7.55 M5.9 3.35 L6.5 4.55 4.8 4.55 5.2 2.55 5.9 3.35 M3.9 6.5 Q4.65 5.8 5.4 5.6 L6.65 5.65 Q7.1 5.9 7.2 6.45 7.2 7.6 6.35 8.6 L5.9 9.15 5.3 8.35 5.75 6.55 4.05 6.75 3.9 6.5 M9.55 16.3 L12.75 17.2 Q13.45 18.6 13.75 20.25 L13.8 20.6 12.85 19.7 12.45 18.2 Q11.8 17.25 10.4 17.2 L9.55 16.3 M20.95 24.3 Q21.2 24.0 21.5 23.8 22.25 23.2 23.25 23.0 L23.55 23.0 Q24.15 23.05 24.45 23.55 24.75 24.0 24.5 24.75 L23.6 26.3 23.35 26.1 23.55 24.45 21.75 24.9 20.95 24.3 M9.35 20.85 Q8.25 19.5 7.95 17.85 L7.55 15.3 14.8 22.6 Q13.0 22.35 11.3 21.75 L9.35 20.85 M11.1 15.05 L14.75 15.25 14.8 15.25 15.15 18.1 15.05 19.05 14.05 16.0 11.1 15.05" fill="#7a41ab" fill-rule="evenodd" stroke="none"/>
  </g>
</svg>
