<?xml version="1.0" encoding="UTF-8" standalone="no"?>
<svg xmlns:ffdec="https://www.free-decompiler.com/flash" xmlns:xlink="http://www.w3.org/1999/xlink" ffdec:objectType="shape" height="27.1px" width="27.5px" xmlns="http://www.w3.org/2000/svg">
  <g transform="matrix(1.0, 0.0, 0.0, 1.0, -0.95, -1.5)">
    <path d="M28.25 2.6 L27.9 3.7 27.45 4.8 26.8 6.25 26.1 7.5 25.3 8.8 24.55 10.05 23.8 11.3 23.05 12.55 22.25 13.75 21.4 15.0 20.5 16.3 19.55 17.7 18.35 19.15 17.8 19.95 14.2 24.6 13.45 25.4 15.35 26.75 Q16.3 27.25 17.1 26.4 L17.7 25.75 17.65 24.25 Q18.55 25.25 17.75 26.3 16.55 27.85 15.05 26.85 L13.7 25.7 13.25 25.55 Q11.75 27.6 9.4 28.4 6.95 29.05 5.3 27.5 L4.95 27.0 4.05 25.25 3.6 26.4 3.35 26.75 3.3 26.8 3.2 26.95 3.15 27.1 2.0 27.1 0.95 26.1 Q1.2 25.35 1.85 26.3 L2.5 26.8 2.85 26.75 3.0 26.45 3.1 26.4 3.25 26.2 3.9 24.9 Q3.4 22.9 3.9 20.95 4.25 19.55 5.45 18.75 L6.95 17.85 Q12.55 14.0 17.8 9.8 L28.4 1.5 28.45 1.9 28.35 2.3 27.9 2.35 17.7 10.7 Q12.1 14.9 6.8 19.15 L5.65 19.85 4.75 20.7 4.4 21.5 Q4.3 22.8 4.45 24.1 L4.45 24.2 4.75 24.1 Q5.55 23.7 6.3 24.25 L6.25 24.45 5.05 24.45 Q4.65 24.5 4.65 24.7 L4.85 25.55 Q5.35 27.25 7.15 27.7 10.25 28.2 12.4 25.7 L13.5 24.5 17.45 19.75 18.1 18.95 18.75 18.1 19.4 17.25 20.05 16.4 20.7 15.5 21.3 14.65 21.95 13.75 22.95 12.25 23.75 11.05 24.55 9.9 25.3 8.65 26.0 7.35 26.65 6.05 27.25 4.7 27.9 3.3 28.25 2.6" fill="#666666" fill-rule="evenodd" stroke="none"/>
    <path d="M28.35 2.3 L28.35 2.35 28.25 2.6 27.9 3.3 27.25 4.7 26.65 6.05 26.0 7.35 25.3 8.65 24.55 9.9 23.75 11.05 22.95 12.25 21.95 13.75 21.3 14.65 20.7 15.5 20.05 16.4 19.4 17.25 18.75 18.1 18.1 18.95 17.45 19.75 13.5 24.5 12.4 25.7 Q10.25 28.2 7.15 27.7 5.35 27.25 4.85 25.55 L4.65 24.7 Q4.65 24.5 5.05 24.45 L6.25 25.9 6.85 25.8 7.0 25.2 7.25 25.1 7.95 24.6 8.0 24.3 8.2 24.0 10.4 23.05 10.65 23.0 12.05 22.15 11.75 21.1 Q14.05 19.8 16.05 18.2 L17.15 17.2 18.25 16.2 19.25 15.1 20.15 14.0 21.3 12.7 22.35 11.35 23.35 10.0 24.25 8.65 25.2 7.25 26.05 5.8 26.85 4.35 27.65 2.85 27.9 2.35 28.35 2.3 M4.75 24.1 L4.45 24.2 4.45 24.1 4.5 24.0 4.75 24.1" fill="#cccccc" fill-rule="evenodd" stroke="none"/>
    <path d="M5.05 24.45 L6.25 24.45 6.3 24.25 Q5.55 23.7 4.75 24.1 L4.5 24.0 4.45 24.1 Q4.3 22.8 4.4 21.5 L4.75 20.7 5.65 19.85 6.8 19.15 Q12.1 14.9 17.7 10.7 L27.9 2.35 27.65 2.85 26.85 4.35 26.05 5.8 25.2 7.25 24.25 8.65 23.35 10.0 22.35 11.35 21.3 12.7 20.15 14.0 19.25 15.1 18.25 16.2 17.15 17.2 16.05 18.2 Q14.05 19.8 11.75 21.1 L12.05 22.15 10.65 23.0 10.4 23.05 8.2 24.0 8.0 24.3 7.95 24.6 7.25 25.1 7.0 25.2 6.85 25.8 6.25 25.9 5.05 24.45" fill="#ffffff" fill-rule="evenodd" stroke="none"/>
  </g>
</svg>
