<?xml version="1.0" encoding="UTF-8" standalone="no"?>
<svg xmlns:ffdec="https://www.free-decompiler.com/flash" xmlns:xlink="http://www.w3.org/1999/xlink" ffdec:objectType="shape" height="25.45px" width="26.35px" xmlns="http://www.w3.org/2000/svg">
  <g transform="matrix(1.0, 0.0, 0.0, 1.0, -1.85, -2.25)">
    <path d="M23.9 9.75 L24.15 8.45 Q24.55 6.25 24.15 4.35 23.9 3.35 24.2 3.55 24.9 2.45 25.5 3.55 25.55 4.85 25.85 6.15 26.25 8.4 25.1 9.2 L24.95 9.5 Q24.4 9.45 23.85 9.85 L23.9 9.75 M21.8 9.5 L21.95 3.95 21.6 3.5 23.5 3.5 23.7 5.0 Q23.95 7.5 23.05 9.75 L23.05 9.9 21.8 9.65 21.8 9.5 M8.75 9.45 L8.55 3.7 16.2 3.45 18.75 3.8 18.55 9.45 18.7 9.65 18.95 6.8 19.0 4.0 18.95 3.45 20.2 3.55 Q20.0 6.2 19.95 9.4 L19.95 9.7 20.05 9.65 20.1 9.5 20.4 6.85 20.35 4.0 20.2 3.55 21.55 3.7 21.4 9.45 21.45 9.5 Q19.55 10.55 17.7 10.2 L14.25 10.1 10.5 10.0 9.45 9.9 8.7 9.5 8.75 9.45 M14.9 23.05 L14.95 22.9 14.55 20.8 Q14.2 18.85 14.3 17.4 L14.3 17.25 Q14.3 14.15 14.55 11.2 L14.85 10.5 17.05 10.55 Q17.65 10.35 17.65 11.1 L17.8 11.1 18.3 10.6 23.4 10.4 23.85 10.6 25.0 10.4 25.5 10.8 25.9 10.6 26.75 13.2 Q22.25 17.3 18.45 22.4 L16.75 22.75 17.9 21.25 17.8 21.35 17.9 21.05 17.95 21.0 17.9 14.05 23.8 11.05 Q21.2 11.35 18.9 13.1 L17.9 13.75 Q18.25 12.15 17.65 11.25 17.35 14.75 17.6 18.25 L17.55 20.7 17.4 21.15 Q16.95 22.3 16.05 23.0 L15.2 23.2 15.0 23.05 14.95 23.15 14.9 23.05 M26.1 17.75 L27.2 15.95 27.25 16.1 27.45 17.5 27.05 17.65 26.05 17.85 26.1 17.75 M17.25 4.55 L17.15 4.4 15.85 4.25 13.1 4.35 Q12.6 6.5 13.05 9.25 L17.15 9.1 Q17.05 6.95 17.25 4.55 M27.65 19.6 L27.65 19.65 Q28.1 22.75 27.1 25.8 24.9 26.8 22.3 26.8 L24.0 24.6 26.45 24.15 26.4 21.5 27.65 19.6 M11.1 4.1 L11.15 6.8 11.45 9.65 11.5 6.55 11.35 3.65 Q11.1 3.9 11.1 4.1 M14.35 10.95 L14.05 15.25 Q11.45 13.1 8.55 12.2 L7.1 11.75 9.65 12.8 Q11.55 13.55 13.2 15.0 L13.45 15.05 13.55 15.45 13.85 15.75 14.05 15.85 14.1 17.25 10.25 17.95 14.1 18.5 14.55 22.35 11.35 21.15 10.75 20.85 6.2 16.15 3.35 13.2 4.3 10.6 4.75 10.8 5.15 10.4 6.3 10.6 9.2 10.2 9.25 10.4 11.0 10.55 14.35 10.95 M10.0 4.2 Q9.7 5.5 9.75 6.85 L10.0 9.5 10.05 9.65 Q10.25 9.95 10.15 9.55 L10.1 9.2 Q10.25 6.4 10.05 4.0 L10.0 4.2 M7.1 9.75 Q6.35 8.45 6.45 6.4 L6.6 3.5 8.55 3.5 8.2 3.95 8.3 9.5 8.35 9.65 7.1 9.9 7.1 9.75 M5.9 4.15 Q5.75 6.9 6.25 9.75 L6.3 9.85 5.75 9.5 Q5.2 9.5 5.0 9.2 4.0 6.8 4.55 3.65 L4.65 3.55 Q5.2 2.5 5.95 3.55 5.85 3.8 5.9 4.15 M2.9 15.95 L4.15 17.95 3.1 17.65 2.9 17.5 Q2.75 16.8 2.9 16.1 L2.9 15.95 M2.5 19.6 L3.7 21.5 3.7 24.15 6.1 24.55 7.85 26.8 Q5.35 27.05 3.05 25.8 2.25 23.85 2.4 21.65 L2.5 19.6 M14.15 18.3 L11.35 17.95 14.1 17.65 14.15 18.3 M11.5 21.5 Q13.15 21.5 14.6 22.75 L14.8 23.65 14.6 24.75 14.75 25.25 14.85 25.45 13.15 25.35 12.35 25.35 11.75 24.9 Q11.65 25.0 11.7 25.05 L13.0 25.85 Q14.05 26.15 13.75 26.45 L13.7 26.45 13.15 26.9 11.45 27.0 Q11.25 27.0 11.2 26.9 L10.65 26.05 10.4 25.35 9.55 22.95 12.2 22.95 12.2 22.8 11.9 22.35 11.2 21.5 11.5 21.5 M17.55 22.9 L18.25 22.7 Q17.75 23.0 18.3 23.0 L20.6 22.95 19.05 27.0 17.55 26.95 16.4 26.75 16.4 26.5 16.3 26.35 17.2 26.1 18.5 25.2 18.4 25.0 15.45 25.65 15.05 24.8 15.2 23.8 Q16.3 23.2 17.55 22.9" fill="#8055aa" fill-rule="evenodd" stroke="none"/>
    <path d="M22.65 24.0 L22.6 21.8 22.7 20.4 26.0 20.1 25.85 23.35 22.65 24.0 M17.05 5.0 L17.05 8.8 13.3 8.8 13.3 5.0 17.05 5.0 M4.2 20.1 L7.45 20.4 Q7.95 21.65 7.6 23.2 L7.5 24.0 4.3 23.35 4.2 20.1" fill="#bfaad5" fill-rule="evenodd" stroke="none"/>
    <path d="M23.85 9.85 Q24.4 9.45 24.95 9.5 L25.1 9.2 Q26.25 8.4 25.85 6.15 25.55 4.85 25.5 3.55 24.9 2.45 24.2 3.55 23.9 3.35 24.15 4.35 24.55 6.25 24.15 8.45 L23.9 9.75 Q23.8 9.75 23.85 9.85 M25.85 2.7 Q26.55 3.05 26.55 3.95 L26.45 8.3 26.25 9.9 27.85 15.85 28.0 16.7 28.0 16.75 28.2 22.95 28.1 24.5 27.3 26.7 23.5 27.45 23.05 27.55 20.8 27.7 17.35 27.65 Q16.25 27.35 15.35 26.45 L15.05 26.35 Q14.4 26.35 14.1 26.7 L13.1 27.25 11.25 27.6 7.5 27.55 2.85 26.7 2.3 24.35 1.95 23.15 Q1.55 18.65 2.6 14.35 3.15 11.95 4.1 10.3 3.3 8.2 3.5 6.15 L3.9 3.35 Q3.9 3.05 4.15 2.8 L5.05 2.35 5.75 2.65 6.2 2.85 14.75 3.25 23.85 2.9 24.9 2.25 25.45 2.55 25.75 2.7 25.85 2.7 M23.05 9.75 Q23.95 7.5 23.7 5.0 L23.5 3.5 21.6 3.5 21.95 3.95 21.8 9.5 21.75 9.65 21.8 9.65 23.05 9.9 23.05 9.75 M8.7 9.5 L9.45 9.9 10.5 10.0 14.25 10.1 17.7 10.2 Q19.55 10.55 21.45 9.5 L21.4 9.45 21.55 3.7 20.2 3.55 20.35 4.0 20.4 6.85 20.1 9.5 20.05 9.65 19.95 9.7 19.95 9.4 Q20.0 6.2 20.2 3.55 L18.95 3.45 19.0 4.0 18.95 6.8 18.7 9.65 18.55 9.45 18.75 3.8 16.2 3.45 8.55 3.7 8.75 9.45 8.65 9.5 8.7 9.5 M14.95 23.15 L15.0 23.05 15.2 23.2 16.05 23.0 Q16.95 22.3 17.4 21.15 L17.55 20.7 17.6 18.25 Q17.35 14.75 17.65 11.25 18.25 12.15 17.9 13.75 L18.9 13.1 Q21.2 11.35 23.8 11.05 L17.9 14.05 17.95 21.0 17.9 21.05 17.8 21.35 17.9 21.25 16.75 22.75 18.45 22.4 Q22.25 17.3 26.75 13.2 L25.9 10.6 25.5 10.8 25.0 10.4 23.85 10.6 23.4 10.4 18.3 10.6 17.8 11.1 17.65 11.1 Q17.65 10.35 17.05 10.55 L14.85 10.5 14.55 11.2 Q14.3 14.15 14.3 17.25 L14.3 17.4 Q14.2 18.85 14.55 20.8 L14.95 22.9 14.9 23.05 14.9 23.15 14.95 23.15 M26.45 20.05 L26.45 20.85 Q26.9 19.75 27.65 19.25 L27.55 18.1 25.5 18.6 Q25.5 17.2 26.6 15.95 L27.15 15.3 26.95 13.85 Q23.4 16.95 20.0 20.8 L19.4 21.45 18.5 22.5 21.4 22.4 19.5 27.0 21.75 26.9 Q22.7 25.95 23.2 24.7 L23.1 24.75 22.2 24.8 21.95 23.7 21.9 21.7 21.85 20.9 Q21.5 20.1 22.15 19.9 L22.4 19.8 23.8 19.6 26.2 19.35 26.45 20.05 M26.1 17.75 L26.05 17.85 27.05 17.65 27.45 17.5 27.25 16.1 27.2 15.95 26.1 17.75 M22.65 24.0 L25.85 23.35 26.0 20.1 22.7 20.4 22.6 21.8 22.65 24.0 M27.65 19.6 L26.4 21.5 26.45 24.15 24.0 24.6 22.3 26.8 Q24.9 26.8 27.1 25.8 28.1 22.75 27.65 19.65 L27.65 19.6 M17.25 4.55 Q17.05 6.95 17.15 9.1 L13.05 9.25 Q12.6 6.5 13.1 4.35 L15.85 4.25 17.15 4.4 17.25 4.55 M14.35 10.95 L11.0 10.55 9.25 10.4 9.2 10.2 6.3 10.6 5.15 10.4 4.75 10.8 4.3 10.6 3.35 13.2 6.2 16.15 10.75 20.85 11.35 21.15 14.55 22.35 14.1 18.5 10.25 17.95 14.1 17.25 14.05 15.85 13.85 15.75 13.55 15.45 13.45 15.05 13.2 15.0 Q11.55 13.55 9.65 12.8 L7.1 11.75 8.55 12.2 Q11.45 13.1 14.05 15.25 L14.35 10.95 M11.1 4.1 Q11.1 3.9 11.35 3.65 L11.5 6.55 11.45 9.65 11.15 6.8 11.1 4.1 M17.05 5.0 L13.3 5.0 13.3 8.8 17.05 8.8 17.05 5.0 M7.1 9.9 L8.35 9.65 8.3 9.5 8.2 3.95 8.55 3.5 6.6 3.5 6.45 6.4 Q6.35 8.45 7.1 9.75 L7.1 9.85 7.1 9.9 M10.0 4.2 L10.05 4.0 Q10.25 6.4 10.1 9.2 L10.15 9.55 Q10.25 9.95 10.05 9.65 L10.0 9.5 9.75 6.85 Q9.7 5.5 10.0 4.2 M2.9 15.95 L2.9 16.1 Q2.75 16.8 2.9 17.5 L3.1 17.65 4.15 17.95 2.9 15.95 M5.9 4.15 Q5.85 3.8 5.95 3.55 5.2 2.5 4.65 3.55 L4.55 3.65 Q4.0 6.8 5.0 9.2 5.2 9.5 5.75 9.5 L6.3 9.85 6.25 9.75 Q5.75 6.9 5.9 4.15 M7.95 24.8 L6.75 24.7 Q7.4 25.85 8.4 26.9 L10.65 27.0 8.75 22.4 11.6 22.5 10.75 21.5 10.3 21.05 Q6.95 17.25 3.25 13.7 L3.05 15.3 Q4.25 16.8 4.7 18.55 L2.65 18.1 2.55 19.25 Q3.3 19.9 3.7 20.85 L3.65 20.05 3.95 19.35 6.35 19.6 7.7 19.8 8.05 19.9 Q8.6 20.3 8.3 20.9 L8.25 21.7 8.2 23.7 7.95 24.8 M2.5 19.6 L2.4 21.65 Q2.25 23.85 3.05 25.8 5.35 27.05 7.85 26.8 L6.1 24.55 3.7 24.15 3.7 21.5 2.5 19.6 M4.2 20.1 L4.3 23.35 7.5 24.0 7.6 23.2 Q7.95 21.65 7.45 20.4 L4.2 20.1 M17.55 22.9 Q16.3 23.2 15.2 23.8 L15.05 24.8 15.45 25.65 18.4 25.0 18.5 25.2 17.2 26.1 16.3 26.35 16.4 26.5 16.4 26.75 17.55 26.95 19.05 27.0 20.6 22.95 18.3 23.0 Q17.75 23.0 18.25 22.7 L17.55 22.9 M11.5 21.5 L11.2 21.5 11.9 22.35 12.2 22.8 12.2 22.95 9.55 22.95 10.4 25.35 10.65 26.05 11.2 26.9 Q11.25 27.0 11.45 27.0 L13.15 26.9 13.7 26.45 13.75 26.45 Q14.05 26.15 13.0 25.85 L11.7 25.05 Q11.65 25.0 11.75 24.9 L12.35 25.35 13.15 25.35 14.85 25.45 14.75 25.25 14.6 24.75 14.8 23.65 14.6 22.75 Q13.15 21.5 11.5 21.5 M14.15 18.3 L14.1 17.65 11.35 17.95 14.15 18.3" fill="#51366d" fill-rule="evenodd" stroke="none"/>
    <path d="M22.2 24.8 L23.1 24.75 23.2 24.7 Q22.7 25.95 21.75 26.9 L19.5 27.0 21.4 22.4 18.5 22.5 19.4 21.45 20.0 20.8 Q23.4 16.95 26.95 13.85 L27.15 15.3 26.6 15.95 Q25.5 17.2 25.5 18.6 L27.55 18.1 27.65 19.25 Q26.9 19.75 26.45 20.85 L26.45 20.05 26.9 19.5 26.9 19.2 Q26.6 18.8 26.2 19.35 L23.8 19.6 25.1 16.85 25.0 16.8 Q23.35 17.9 22.4 19.8 L22.15 19.9 Q21.5 20.1 21.85 20.9 21.55 21.05 21.4 21.35 21.2 21.5 21.35 21.8 21.7 22.5 21.9 21.7 L21.95 23.7 Q21.15 24.8 20.95 26.05 L20.95 26.55 21.1 26.5 Q21.85 25.7 22.2 24.8 M3.65 20.05 L3.7 20.85 Q3.3 19.9 2.55 19.25 L2.65 18.1 4.7 18.55 Q4.25 16.8 3.05 15.3 L3.25 13.7 Q6.95 17.25 10.3 21.05 L10.75 21.5 11.6 22.5 8.75 22.4 10.65 27.0 8.4 26.9 Q7.4 25.85 6.75 24.7 L7.95 24.8 Q8.25 25.95 9.3 26.5 L9.35 26.45 9.25 26.05 Q8.95 24.6 8.2 23.7 L8.25 21.7 Q8.5 22.4 8.8 21.85 L8.75 21.35 8.3 20.9 Q8.6 20.3 8.05 19.9 L7.7 19.8 Q6.75 18.05 5.15 16.8 L5.0 16.85 6.35 19.6 3.95 19.35 3.25 18.95 3.15 19.05 3.65 20.05" fill="#ffffcc" fill-rule="evenodd" stroke="none"/>
    <path d="M22.2 24.8 Q21.85 25.7 21.1 26.5 L20.95 26.55 20.95 26.05 Q21.15 24.8 21.95 23.7 L22.2 24.8 M21.9 21.7 Q21.7 22.5 21.35 21.8 21.2 21.5 21.4 21.35 21.55 21.05 21.85 20.9 L21.9 21.7 M22.4 19.8 Q23.35 17.9 25.0 16.8 L25.1 16.85 23.8 19.6 22.4 19.8 M26.2 19.35 Q26.6 18.8 26.9 19.2 L26.9 19.5 26.45 20.05 26.2 19.35 M7.95 24.8 L8.2 23.7 Q8.95 24.6 9.25 26.05 L9.35 26.45 9.3 26.5 Q8.25 25.95 7.95 24.8 M8.25 21.7 L8.3 20.9 8.75 21.35 8.8 21.85 Q8.5 22.4 8.25 21.7 M7.7 19.8 L6.35 19.6 5.0 16.85 5.15 16.8 Q6.75 18.05 7.7 19.8 M3.95 19.35 L3.65 20.05 3.15 19.05 3.25 18.95 3.95 19.35" fill="#ff3399" fill-rule="evenodd" stroke="none"/>
  </g>
</svg>
