<?xml version="1.0" encoding="UTF-8" standalone="no"?>
<svg xmlns:ffdec="https://www.free-decompiler.com/flash" xmlns:xlink="http://www.w3.org/1999/xlink" ffdec:objectType="shape" height="22.35px" width="27.2px" xmlns="http://www.w3.org/2000/svg">
  <g transform="matrix(1.0, 0.0, 0.0, 1.0, -1.6, -4.1)">
    <path d="M24.8 4.7 L24.2 5.2 24.25 5.25 24.5 7.2 25.0 6.85 24.8 4.7 M23.85 7.15 L23.9 5.2 17.3 5.0 Q17.4 6.8 17.7 7.15 L17.85 7.05 18.15 6.25 18.3 5.35 18.55 7.25 19.1 7.3 19.2 5.4 19.5 6.25 19.8 7.1 21.05 7.15 21.2 5.25 21.6 7.4 22.5 7.3 22.55 5.3 23.2 7.5 23.85 7.15 M24.9 7.85 L24.8 7.85 24.8 8.0 26.45 10.8 27.5 13.05 27.7 14.55 27.4 14.0 26.15 10.85 24.35 7.9 24.2 7.65 17.7 8.0 Q17.25 13.6 17.15 19.05 15.7 20.2 13.85 20.5 L13.15 20.35 10.45 22.5 9.8 23.2 Q6.85 19.2 3.4 15.7 L3.25 15.25 3.25 15.15 Q2.3 15.15 3.05 14.75 L3.95 15.65 5.7 17.5 7.4 19.6 9.25 22.2 9.75 22.85 10.3 22.15 12.9 20.15 12.85 8.75 13.1 8.3 12.8 8.15 11.1 7.95 5.85 8.0 3.95 11.45 3.5 12.4 3.0 13.55 2.95 14.1 3.0 12.5 3.45 11.55 5.35 8.05 5.2 8.05 3.2 11.65 2.8 12.65 2.5 13.7 2.3 15.0 4.65 17.55 Q7.75 21.2 10.3 25.35 L10.55 25.45 Q10.9 25.25 10.5 24.7 L10.1 23.7 10.7 22.95 Q11.65 21.95 12.85 21.15 L13.6 20.7 10.8 23.05 10.25 23.65 11.1 24.9 Q14.0 26.45 17.75 25.7 L18.9 25.25 19.35 24.5 20.3 23.25 Q22.9 19.4 25.95 16.0 L26.9 14.9 27.3 14.8 27.55 14.9 27.6 15.0 27.4 15.05 27.3 15.05 27.15 15.25 27.0 15.75 Q23.95 18.75 21.4 22.3 L20.0 24.45 19.8 24.85 Q19.5 25.9 20.15 25.25 23.55 19.75 28.05 15.0 L28.05 14.3 Q28.05 13.65 27.65 12.9 L26.75 10.75 Q26.2 9.2 25.1 8.05 L24.9 7.85 M27.65 11.45 L28.8 14.75 Q24.7 18.6 21.65 23.45 L19.7 26.05 19.2 25.8 15.6 26.25 Q13.2 26.8 10.95 25.65 L10.75 26.05 6.0 19.9 1.6 14.75 Q2.5 11.7 4.0 8.85 L4.65 7.65 Q4.25 6.3 4.7 5.1 L5.0 4.35 5.6 4.3 6.5 4.3 7.1 4.45 8.9 4.5 9.3 4.45 10.15 4.4 13.9 4.3 25.3 4.1 Q25.9 4.9 25.9 5.95 L25.75 7.65 27.65 11.45 M12.15 5.6 L12.1 7.25 12.5 7.3 12.7 7.15 12.8 7.05 13.0 6.85 13.05 6.2 13.0 5.5 13.0 5.2 6.45 5.2 6.5 7.15 7.15 7.5 7.55 7.35 7.8 5.3 7.85 7.3 9.05 7.25 9.4 5.25 9.85 6.0 9.35 7.15 10.85 7.25 11.35 5.4 11.25 7.3 11.8 7.25 12.0 5.65 12.15 5.6 M13.35 8.25 L13.4 19.35 14.55 19.75 15.3 19.55 16.8 18.75 Q17.2 15.25 16.95 11.75 L16.65 8.3 14.75 8.3 14.2 7.95 13.35 8.25 M13.95 7.75 L16.65 7.75 17.0 7.25 16.75 4.95 13.55 5.2 13.4 7.2 13.95 7.75 M16.3 7.1 L16.35 7.05 16.35 7.1 16.3 7.1 M5.55 4.7 L5.3 6.85 6.0 7.3 6.15 5.15 5.55 4.7" fill="#313566" fill-rule="evenodd" stroke="none"/>
    <path d="M24.8 8.0 L24.8 7.85 24.9 7.85 24.8 8.0" fill="#4b589a" fill-rule="evenodd" stroke="none"/>
    <path d="M24.8 4.7 L25.0 6.85 24.5 7.2 24.25 5.25 24.2 5.2 24.8 4.7 M23.85 7.15 L23.2 7.5 22.55 5.3 22.5 7.3 21.6 7.4 21.2 5.25 21.05 7.15 19.8 7.1 19.5 6.25 19.2 5.4 19.1 7.3 18.55 7.25 18.3 5.35 18.15 6.25 17.85 7.05 17.7 7.15 Q17.4 6.8 17.3 5.0 L23.9 5.2 23.85 7.15 M24.8 8.0 L24.9 7.85 25.1 8.05 Q26.2 9.2 26.75 10.75 L26.45 10.8 24.8 8.0 M19.35 24.5 L18.9 25.25 17.75 25.7 Q14.0 26.45 11.1 24.9 L11.25 24.6 Q11.5 23.65 10.8 23.05 L13.6 20.7 12.85 21.15 Q11.65 21.95 10.7 22.95 L10.45 22.5 13.15 20.35 13.85 20.5 Q15.7 20.2 17.15 19.05 17.25 13.6 17.7 8.0 L24.2 7.65 24.35 7.9 26.15 10.85 Q25.65 11.05 25.25 11.35 24.8 11.55 24.45 11.9 L25.8 11.85 26.75 12.7 Q27.0 13.5 26.7 14.25 L26.4 14.7 25.9 15.35 25.0 14.7 Q24.55 14.3 24.1 14.25 21.3 13.4 20.85 15.9 L21.2 15.9 21.2 15.8 23.25 14.95 Q23.8 15.3 23.9 16.0 L23.75 17.85 22.9 18.55 21.65 17.45 Q20.35 17.3 19.45 18.35 18.95 18.9 18.9 19.9 L19.7 19.1 20.15 18.85 20.85 18.7 21.1 19.4 21.2 20.4 20.45 21.8 Q19.75 22.95 19.35 24.5 M3.2 11.65 L5.2 8.05 5.35 8.05 3.45 11.55 3.2 11.65 M3.95 11.45 L5.85 8.0 11.1 7.95 12.8 8.15 13.1 8.3 12.85 8.75 12.9 20.15 10.3 22.15 9.8 20.8 10.55 19.8 10.85 19.65 Q10.95 19.65 11.1 19.8 L11.9 20.55 11.95 20.5 11.95 20.4 11.8 19.6 Q11.6 18.65 10.85 18.0 L10.2 18.0 Q9.2 18.15 8.7 18.85 L7.85 18.65 Q7.45 18.55 7.2 18.25 6.65 17.65 6.7 16.7 L7.2 15.9 8.4 15.85 9.05 16.55 9.15 15.75 8.3 14.9 Q7.2 13.95 6.1 14.7 L4.0 14.6 3.85 14.05 4.45 12.95 6.55 13.0 6.4 12.5 Q5.5 11.25 3.95 11.45 M13.35 8.25 L14.2 7.95 14.75 8.3 16.65 8.3 16.95 11.75 Q17.2 15.25 16.8 18.75 L15.3 19.55 14.55 19.75 13.4 19.35 13.35 8.25 M12.15 5.6 L12.0 5.65 11.8 7.25 11.25 7.3 11.35 5.4 10.85 7.25 9.35 7.15 9.85 6.0 9.4 5.25 9.05 7.25 7.85 7.3 7.8 5.3 7.55 7.35 7.15 7.5 6.5 7.15 6.45 5.2 13.0 5.2 13.0 5.5 13.05 6.2 13.0 6.85 12.8 7.05 12.7 7.15 12.5 7.3 12.1 7.25 12.15 5.6 M5.55 4.7 L6.15 5.15 6.0 7.3 5.3 6.85 5.55 4.7" fill="#8d9bc7" fill-rule="evenodd" stroke="none"/>
    <path d="M27.65 12.9 Q28.05 13.65 28.05 14.3 L28.05 15.0 Q23.55 19.75 20.15 25.25 L20.0 24.45 21.4 22.3 Q23.95 18.75 27.0 15.75 L27.15 15.25 27.3 15.05 27.4 15.05 27.6 15.0 27.55 14.9 27.3 14.8 26.9 14.9 25.95 16.0 Q22.9 19.4 20.3 23.25 L22.05 19.25 22.15 19.15 Q24.6 18.95 24.55 16.05 L24.7 14.9 25.5 15.6 Q26.2 15.6 26.75 15.0 L27.4 14.0 27.7 14.55 27.5 13.05 27.65 12.9 M10.1 23.7 L10.5 24.7 10.3 25.35 Q7.75 21.2 4.65 17.55 L2.3 15.0 2.5 13.7 2.8 12.65 3.0 12.5 2.95 14.1 3.05 14.75 Q2.3 15.15 3.25 15.15 L3.25 15.25 3.4 15.7 Q6.85 19.2 9.8 23.2 L10.1 23.7 M3.0 13.55 L3.5 12.4 Q3.95 12.35 3.4 13.05 L3.0 13.55 M9.25 22.2 L7.4 19.6 8.2 19.9 Q8.8 19.6 9.45 19.4 L9.6 19.45 Q8.75 20.85 9.25 22.2 M5.7 17.5 L3.95 15.65 4.6 15.85 6.45 15.1 5.55 16.85 5.7 17.5" fill="#ffff00" fill-rule="evenodd" stroke="none"/>
    <path d="M26.75 10.75 L27.65 12.9 27.5 13.05 26.45 10.8 26.75 10.75 M20.15 25.25 Q19.5 25.9 19.8 24.85 L20.0 24.45 20.15 25.25 M20.3 23.25 L19.35 24.5 Q19.75 22.95 20.45 21.8 L21.2 20.4 21.1 19.4 20.85 18.7 20.15 18.85 19.7 19.1 18.9 19.9 Q18.95 18.9 19.45 18.35 20.35 17.3 21.65 17.45 L22.9 18.55 23.75 17.85 23.9 16.0 Q23.8 15.3 23.25 14.95 L21.2 15.8 21.2 15.9 20.85 15.9 Q21.3 13.4 24.1 14.25 24.55 14.3 25.0 14.7 L25.9 15.35 26.4 14.7 26.7 14.25 Q27.0 13.5 26.75 12.7 L25.8 11.85 24.45 11.9 Q24.8 11.55 25.25 11.35 25.65 11.05 26.15 10.85 L27.4 14.0 26.75 15.0 Q26.2 15.6 25.5 15.6 L24.7 14.9 24.55 16.05 Q24.6 18.95 22.15 19.15 L22.05 19.25 20.3 23.25 M11.1 24.9 L10.25 23.65 10.8 23.05 Q11.5 23.65 11.25 24.6 L11.1 24.9 M10.7 22.95 L10.1 23.7 9.8 23.2 10.45 22.5 10.7 22.95 M10.5 24.7 Q10.9 25.25 10.55 25.45 L10.3 25.35 10.5 24.7 M2.8 12.65 L3.2 11.65 3.45 11.55 3.0 12.5 2.8 12.65 M2.95 14.1 L3.0 13.55 3.4 13.05 Q3.95 12.35 3.5 12.4 L3.95 11.45 Q5.5 11.25 6.4 12.5 L6.55 13.0 4.45 12.95 3.85 14.05 4.0 14.6 6.1 14.7 Q7.2 13.95 8.3 14.9 L9.15 15.75 9.05 16.55 8.4 15.85 7.2 15.9 6.7 16.7 Q6.65 17.65 7.2 18.25 7.45 18.55 7.85 18.65 L8.7 18.85 Q9.2 18.15 10.2 18.0 L10.85 18.0 Q11.6 18.65 11.8 19.6 L11.95 20.4 11.95 20.5 11.9 20.55 11.1 19.8 Q10.95 19.65 10.85 19.65 L10.55 19.8 9.8 20.8 10.3 22.15 9.75 22.85 9.25 22.2 Q8.75 20.85 9.6 19.45 L9.45 19.4 Q8.8 19.6 8.2 19.9 L7.4 19.6 5.7 17.5 5.55 16.85 6.45 15.1 4.6 15.85 3.95 15.65 3.05 14.75 2.95 14.1" fill="#ff9900" fill-rule="evenodd" stroke="none"/>
    <path d="M13.95 7.75 L13.4 7.2 13.55 5.2 16.75 4.95 17.0 7.25 16.65 7.75 13.95 7.75 M16.3 7.1 L16.35 7.1 16.35 7.05 16.3 7.1" fill="#cdd5e7" fill-rule="evenodd" stroke="none"/>
  </g>
</svg>
