<?xml version="1.0" encoding="UTF-8" standalone="no"?>
<svg xmlns:ffdec="https://www.free-decompiler.com/flash" xmlns:xlink="http://www.w3.org/1999/xlink" ffdec:objectType="shape" height="22.15px" width="26.1px" xmlns="http://www.w3.org/2000/svg">
  <g transform="matrix(1.0, 0.0, 0.0, 1.0, -2.05, -3.6)">
    <path d="M25.4 5.5 L25.45 5.55 Q25.7 5.75 25.55 4.85 L25.5 4.8 24.7 4.9 23.65 4.6 22.1 5.05 20.15 4.7 17.45 4.55 16.8 4.55 13.75 4.45 12.0 4.6 11.0 4.75 11.1 5.25 11.7 5.25 12.15 5.25 12.15 4.85 12.2 4.7 12.25 4.7 12.55 4.95 14.25 5.35 14.6 5.45 14.45 5.75 14.35 6.0 13.4 5.8 7.95 6.0 7.9 6.0 7.7 6.0 9.45 6.55 10.35 6.85 10.65 6.95 10.7 6.95 10.8 7.0 11.4 7.2 12.4 7.65 13.45 8.3 12.7 8.05 12.0 7.85 11.9 7.8 10.5 7.25 7.4 6.1 7.35 6.05 6.95 6.05 6.3 7.0 6.15 7.2 5.9 7.65 5.8 7.75 4.45 9.55 Q3.55 10.65 3.3 12.15 L3.3 12.3 3.2 13.0 3.2 13.2 2.9 16.35 2.9 19.25 2.9 19.85 2.95 19.9 3.55 20.35 3.55 20.4 Q6.55 22.65 10.05 24.35 11.35 25.05 12.7 25.15 L13.35 22.7 12.35 22.4 5.5 20.05 4.3 19.6 4.65 19.7 4.9 19.8 5.0 19.8 5.3 19.9 12.25 22.05 14.4 20.05 14.9 19.55 15.2 17.7 15.1 13.6 15.1 13.45 15.05 13.0 15.05 9.5 15.05 8.8 15.1 8.2 15.15 8.85 15.15 9.35 15.25 12.95 15.45 19.55 15.9 20.0 18.0 21.95 22.0 21.4 24.2 20.85 24.55 20.75 24.75 20.65 27.35 19.85 Q27.55 17.8 27.35 15.7 L27.1 14.05 27.0 13.45 26.3 10.4 25.9 9.35 25.7 8.95 25.7 8.9 24.35 6.75 23.95 6.2 19.5 7.55 18.8 7.8 18.35 7.95 17.0 8.4 16.8 8.4 16.55 8.4 16.65 8.35 18.55 7.75 20.25 7.05 21.2 6.7 23.3 6.1 22.3 5.85 21.05 6.2 20.75 6.15 20.2 6.05 16.85 5.8 15.75 6.0 15.4 5.55 15.5 5.5 15.55 5.5 17.1 4.9 17.3 4.85 17.65 5.0 19.15 5.1 20.85 5.15 20.95 5.1 Q21.2 5.6 21.85 5.45 L23.25 5.6 Q23.55 5.6 23.55 5.1 L23.6 5.1 23.9 5.35 24.8 5.5 Q24.8 4.95 25.15 5.2 L25.2 5.25 25.4 5.5 M26.05 4.4 Q26.5 5.05 26.4 5.85 L26.5 7.35 26.7 8.4 27.55 12.2 Q28.0 13.9 28.05 15.5 L28.15 17.95 28.05 19.95 24.9 22.3 Q23.05 23.7 20.85 24.65 L19.6 25.3 17.95 25.75 17.1 25.6 16.3 22.7 13.95 22.7 13.15 25.4 10.65 25.25 Q6.95 23.7 4.0 21.2 3.4 20.75 2.8 20.4 L2.5 20.2 2.35 20.05 Q2.0 19.2 2.1 17.9 L2.1 15.5 2.1 15.35 2.1 15.15 3.45 8.45 3.55 8.1 3.85 6.55 3.95 5.05 4.0 4.5 4.4 4.05 8.5 4.25 10.15 3.95 10.5 4.0 15.1 3.6 17.15 3.9 18.65 3.85 21.35 4.1 21.85 4.25 25.6 4.1 26.05 4.4 M21.75 9.3 L21.8 9.3 24.9 8.8 25.65 8.95 25.7 8.95 24.4 9.15 22.9 9.75 22.65 9.85 21.3 10.35 20.7 10.6 19.9 10.9 16.45 12.1 16.3 12.15 Q17.45 11.4 18.6 11.05 L20.85 10.2 21.15 10.1 22.15 9.75 24.25 9.2 22.3 9.55 20.15 9.85 16.85 10.25 16.85 10.2 19.65 9.65 21.75 9.3 M25.6 6.1 L24.2 6.15 25.85 8.5 25.6 6.1 M20.6 18.2 L23.45 18.15 26.7 18.55 23.85 18.7 21.55 19.1 19.0 19.6 Q18.35 19.5 18.5 19.2 L24.85 18.4 17.55 18.6 20.6 18.2 M24.05 22.25 L25.85 20.9 20.55 21.9 17.7 22.45 16.9 22.7 17.55 25.15 18.05 25.15 19.15 24.75 Q21.8 24.05 24.05 22.25 M14.2 4.95 Q14.7 5.05 14.25 5.35 14.05 4.9 14.2 4.95 M15.2 5.85 L15.1 5.8 14.85 5.95 14.9 5.8 15.0 5.65 15.1 5.65 15.15 5.65 15.2 5.85 M13.55 10.2 L14.65 10.5 13.5 10.35 13.5 10.3 13.55 10.2 M13.05 10.3 L8.8 9.65 5.0 9.05 5.7 8.9 8.65 9.25 9.25 9.4 11.15 9.8 13.05 10.1 13.05 10.3 M5.8 5.45 L5.9 5.25 Q6.4 5.9 7.0 5.45 L7.15 5.25 7.95 5.45 9.3 5.25 9.5 5.35 Q10.6 6.0 10.75 4.8 L6.9 4.6 4.6 4.85 4.85 5.5 5.75 5.45 5.75 5.5 5.8 5.45 M5.8 7.3 L6.65 6.15 4.75 6.0 4.7 6.1 4.65 6.55 4.65 6.7 4.4 8.5 4.25 9.25 5.55 7.6 5.8 7.3 M6.0 17.15 L8.6 17.35 13.9 18.35 5.95 17.2 5.25 17.1 6.0 17.15 M13.25 22.25 L17.15 22.15 17.05 21.7 15.15 19.85 13.25 21.75 13.15 22.05 13.25 22.25" fill="#313566" fill-rule="evenodd" stroke="none"/>
    <path d="M25.45 5.55 L25.4 5.5 25.4 5.45 25.45 5.45 25.45 5.55 M17.3 4.85 L17.1 4.9 17.05 4.95 16.8 4.55 17.45 4.55 18.25 4.6 17.5 4.95 17.3 4.85 M18.55 7.75 L16.65 8.35 16.5 8.3 16.05 6.7 16.25 6.75 18.65 7.7 18.55 7.75 M16.8 8.4 L17.0 8.4 18.35 7.95 18.8 7.8 19.7 8.2 20.55 8.6 21.75 9.3 19.65 9.65 19.15 9.45 16.8 8.4 M25.7 8.9 L25.7 8.95 25.9 9.35 26.3 10.4 27.0 13.45 26.25 13.1 23.9 12.2 23.85 12.15 22.3 11.35 20.6 10.65 20.7 10.6 21.3 10.35 22.65 9.85 22.9 9.75 23.5 9.6 24.4 9.15 25.7 8.95 25.65 8.95 25.6 8.9 25.7 8.9 M27.35 15.7 Q27.55 17.8 27.35 19.85 L24.75 20.65 24.55 20.75 24.2 20.85 26.55 19.85 26.75 19.75 Q27.25 19.4 26.7 19.15 L24.95 19.45 17.6 19.9 17.35 19.9 15.9 20.0 15.45 19.55 15.25 12.95 17.55 12.05 18.05 11.8 18.5 11.65 Q18.75 11.85 19.15 11.95 L21.0 12.65 Q21.9 13.0 22.8 13.5 L24.2 14.2 Q25.6 14.8 26.9 15.55 L27.35 15.7 M15.05 13.0 L15.1 13.45 15.1 13.6 15.2 17.7 14.9 19.55 14.4 20.05 13.1 19.95 11.45 20.0 10.35 19.9 7.9 19.65 4.95 19.25 4.65 19.35 4.55 19.45 4.55 19.5 4.55 19.6 4.65 19.7 4.3 19.6 5.5 20.05 5.55 20.1 5.9 20.5 7.55 21.75 7.15 21.65 6.55 21.45 5.65 21.0 3.05 19.8 2.95 19.85 2.95 19.9 2.9 19.85 2.9 19.25 3.0 19.15 3.45 18.75 3.85 18.45 Q4.85 17.8 5.95 17.2 L13.9 18.35 8.6 17.35 6.0 17.15 6.4 16.95 Q7.35 16.4 8.4 15.95 L9.5 15.45 12.2 14.25 14.95 13.05 15.05 13.0 M3.2 13.2 L3.2 13.0 3.3 12.3 3.3 12.15 Q3.55 10.65 4.45 9.55 L5.8 7.75 5.9 7.65 6.15 7.2 6.3 7.0 6.5 7.05 6.85 7.15 7.0 7.2 8.55 7.75 10.6 8.55 10.0 8.9 9.25 9.4 8.65 9.25 5.7 8.9 5.0 9.05 8.8 9.65 7.7 10.25 5.7 11.4 4.3 12.35 3.3 13.1 3.25 13.1 3.2 13.2 M11.9 7.8 L12.0 7.85 11.95 7.85 11.9 7.8 M12.4 7.65 L11.4 7.2 10.8 7.0 10.7 6.95 10.65 6.95 10.35 6.85 9.45 6.55 7.95 6.0 13.4 5.8 14.35 6.0 14.15 6.55 13.9 7.3 13.65 7.2 12.4 7.65 M11.7 5.25 L11.1 5.25 11.0 4.75 12.0 4.6 11.95 4.6 Q11.65 4.8 11.65 5.15 L11.7 5.25 M22.15 9.75 L21.15 10.1 20.85 10.2 20.15 9.85 22.3 9.55 22.5 9.65 22.15 9.75 M25.55 8.05 L25.55 8.0 25.55 8.05 M20.6 18.2 L17.55 18.6 24.85 18.4 18.5 19.2 Q18.35 19.5 19.0 19.6 L21.55 19.1 23.85 18.7 26.7 18.55 23.45 18.15 20.6 18.2 M15.2 5.85 L15.05 5.95 15.05 6.1 15.05 6.15 15.1 6.2 15.35 6.35 15.4 6.55 15.85 8.0 Q15.1 7.65 14.4 7.45 L14.55 6.85 14.7 6.25 14.85 5.95 15.1 5.8 15.2 5.85 M5.8 5.45 L5.75 5.45 4.85 5.5 4.6 4.85 6.9 4.6 10.75 4.8 Q10.6 6.0 9.5 5.35 L9.3 5.25 7.95 5.45 7.15 5.25 7.0 5.45 Q6.4 5.9 5.9 5.25 L5.8 5.45 M5.8 7.3 L5.55 7.6 4.25 9.25 4.4 8.5 4.65 6.7 4.65 6.55 4.8 6.6 5.15 6.75 6.05 6.95 5.8 7.3" fill="#c7e9fa" fill-rule="evenodd" stroke="none"/>
    <path d="M25.45 5.55 L25.45 5.45 25.4 5.45 25.4 5.5 25.2 5.25 25.15 5.2 Q24.8 4.95 24.8 5.5 L23.9 5.35 23.6 5.1 23.55 5.1 Q23.55 5.6 23.25 5.6 L21.85 5.45 Q21.2 5.6 20.95 5.1 L20.85 5.15 19.15 5.1 17.65 5.0 17.3 4.85 17.5 4.95 18.25 4.6 17.45 4.55 20.15 4.7 22.1 5.05 23.65 4.6 24.7 4.9 25.5 4.8 25.55 4.85 Q25.7 5.75 25.45 5.55 M17.1 4.9 L15.55 5.5 15.5 5.5 15.55 5.35 Q15.85 4.8 15.2 4.6 L14.9 4.7 14.75 4.7 14.55 5.05 14.6 5.4 14.6 5.45 14.25 5.35 12.55 4.95 12.25 4.7 12.2 4.7 12.15 4.85 12.15 5.25 11.7 5.25 11.65 5.15 Q11.65 4.8 11.95 4.6 L12.0 4.6 13.75 4.45 16.8 4.55 17.05 4.95 17.1 4.9 M15.75 6.0 L16.85 5.8 20.2 6.05 20.15 6.05 Q19.6 6.1 19.55 6.55 19.55 7.2 20.2 7.0 L20.25 7.05 18.55 7.75 18.65 7.7 16.25 6.75 16.05 6.7 16.05 6.65 15.75 6.0 M21.05 6.2 L22.3 5.85 23.3 6.1 21.2 6.7 21.2 6.65 21.05 6.2 M16.65 8.35 L16.55 8.4 16.8 8.4 19.15 9.45 19.65 9.65 16.85 10.2 16.8 9.5 16.55 8.4 16.5 8.3 16.65 8.35 M18.8 7.8 L19.5 7.55 23.95 6.2 24.35 6.75 25.7 8.9 25.6 8.9 25.65 8.95 24.9 8.8 21.8 9.3 21.75 9.3 20.55 8.6 19.7 8.2 18.8 7.8 M27.0 13.45 L27.1 14.05 27.35 15.7 26.9 15.55 Q25.6 14.8 24.2 14.2 L22.8 13.5 Q21.9 13.0 21.0 12.65 L19.15 11.95 Q18.75 11.85 18.5 11.65 L18.05 11.8 17.55 12.05 15.25 12.95 15.15 9.35 15.15 8.85 15.1 8.2 15.05 8.8 14.8 8.65 Q14.5 8.65 14.35 8.95 L14.25 9.0 13.85 8.95 14.35 7.5 14.4 7.45 Q15.1 7.65 15.85 8.0 L16.2 9.4 16.3 10.15 Q16.35 10.65 16.85 10.5 L16.85 10.35 16.85 10.25 20.15 9.85 20.85 10.2 18.6 11.05 Q17.45 11.4 16.3 12.15 L16.45 12.1 19.9 10.9 20.7 10.6 20.6 10.65 22.3 11.35 23.85 12.15 23.9 12.2 26.25 13.1 27.0 13.45 M24.2 20.85 L22.0 21.4 18.0 21.95 15.9 20.0 17.35 19.9 17.6 19.9 24.95 19.45 26.7 19.15 Q27.25 19.4 26.75 19.75 L26.55 19.85 24.2 20.85 M15.05 9.5 L15.05 13.0 14.95 13.05 12.2 14.25 9.5 15.45 8.4 15.95 Q7.35 16.4 6.4 16.95 L6.0 17.15 5.25 17.1 5.95 17.2 Q4.85 17.8 3.85 18.45 L3.45 18.75 3.0 19.15 2.9 19.25 2.9 16.35 3.2 13.2 3.25 13.1 3.3 13.1 4.3 12.35 5.7 11.4 7.7 10.25 8.8 9.65 13.05 10.3 13.05 10.55 13.35 10.6 13.4 10.55 13.5 10.35 14.65 10.5 13.55 10.2 13.55 10.0 13.65 10.0 13.75 9.85 13.75 9.75 13.8 9.7 13.85 9.75 14.0 9.95 Q14.55 10.3 14.8 9.7 L15.05 9.5 M14.4 20.05 L12.25 22.05 5.3 19.9 5.0 19.8 4.9 19.8 4.65 19.7 4.55 19.6 4.55 19.5 4.55 19.45 4.65 19.35 4.95 19.25 7.9 19.65 10.35 19.9 11.45 20.0 13.1 19.95 14.4 20.05 M5.5 20.05 L12.35 22.4 13.35 22.7 12.7 25.15 Q11.35 25.05 10.05 24.35 6.55 22.65 3.55 20.4 L3.55 20.35 2.95 19.9 2.95 19.85 3.05 19.8 5.65 21.0 6.55 21.45 7.15 21.65 7.55 21.75 5.9 20.5 5.55 20.1 5.5 20.05 M6.3 7.0 L6.95 6.05 7.35 6.05 7.4 6.1 10.5 7.25 11.9 7.8 11.95 7.85 12.0 7.85 12.7 8.05 13.45 8.3 12.4 7.65 13.65 7.2 13.9 7.3 13.65 7.8 13.45 8.3 Q13.05 9.15 13.05 10.1 L11.15 9.8 9.25 9.4 10.0 8.9 10.6 8.55 8.55 7.75 7.0 7.2 6.85 7.15 6.5 7.05 6.3 7.0 M9.45 6.55 L7.7 6.0 7.9 6.0 7.95 6.0 9.45 6.55 M22.9 9.75 L24.4 9.15 23.5 9.6 22.9 9.75 M22.15 9.75 L22.5 9.65 22.3 9.55 24.25 9.2 22.15 9.75 M25.55 8.05 L25.55 8.0 25.55 8.05 M25.6 6.1 L25.85 8.5 24.2 6.15 25.6 6.1 M24.05 22.25 Q21.8 24.05 19.15 24.75 L18.05 25.15 17.55 25.15 16.9 22.7 17.7 22.45 20.55 21.9 25.85 20.9 24.05 22.25 M14.2 4.95 Q14.05 4.9 14.25 5.35 14.7 5.05 14.2 4.95 M15.35 6.35 L15.1 6.2 15.05 6.15 15.05 6.1 15.05 5.95 15.2 5.85 15.35 6.35 M12.3 10.75 Q12.2 10.15 11.5 10.2 L11.2 10.3 Q10.85 10.55 10.75 10.95 L10.15 11.1 Q9.4 10.9 9.0 11.6 8.85 11.95 9.1 12.15 L9.8 12.1 10.1 12.05 10.25 11.95 10.5 11.9 10.85 11.8 Q11.6 11.65 11.65 11.05 L12.15 11.0 12.3 10.75 M13.05 12.05 L13.05 12.15 Q13.15 12.65 13.6 12.5 L14.05 12.3 Q14.45 11.9 13.85 11.7 13.4 11.7 13.05 12.05 M16.4 10.65 L16.1 10.7 15.85 11.0 Q15.75 11.25 16.0 11.4 16.3 11.5 16.5 11.25 16.95 10.85 16.4 10.65 M4.65 6.55 L4.7 6.1 4.75 6.0 6.65 6.15 5.8 7.3 6.05 6.95 5.15 6.75 4.8 6.6 4.65 6.55 M7.15 12.1 L6.7 12.3 Q6.2 12.65 6.1 13.25 6.05 13.6 6.3 13.8 6.85 14.15 7.2 13.6 7.7 13.4 7.8 12.8 7.85 12.2 7.15 12.1 M5.85 14.15 Q6.2 13.65 5.6 13.45 5.2 13.5 5.1 13.9 L5.05 13.85 Q4.3 13.4 3.95 14.1 3.75 14.15 3.8 14.35 L4.0 14.95 4.5 15.45 4.7 15.4 Q5.1 15.05 4.75 14.55 L5.15 14.85 5.45 14.9 Q5.85 14.7 5.8 14.2 L5.85 14.15 M9.8 13.75 L9.7 13.7 9.65 13.7 Q9.45 13.7 9.35 13.9 9.05 13.9 8.9 14.15 L8.9 14.4 Q8.75 14.25 8.45 14.25 8.05 14.3 8.05 14.7 L8.25 14.95 Q8.8 15.25 9.1 14.75 L9.35 14.75 9.75 14.6 9.85 14.55 10.55 13.9 10.8 13.8 10.9 13.65 Q10.9 13.15 10.35 13.1 L10.15 13.15 Q9.85 13.3 9.9 13.65 L9.8 13.75 M12.45 13.15 Q12.55 12.55 11.95 12.5 11.7 12.5 11.5 12.65 L11.4 12.8 Q11.25 13.25 11.8 13.35 L12.05 13.45 12.45 13.15 M13.25 22.25 L13.15 22.05 13.25 21.75 15.15 19.85 17.05 21.7 17.15 22.15 13.25 22.25" fill="#85b3d3" fill-rule="evenodd" stroke="none"/>
    <path d="M20.2 6.05 L20.75 6.15 21.05 6.2 21.2 6.65 21.2 6.7 20.25 7.05 20.2 7.0 Q19.55 7.2 19.55 6.55 19.6 6.1 20.15 6.05 L20.2 6.05 M15.05 8.8 L15.05 9.5 14.8 9.7 Q14.55 10.3 14.0 9.95 L13.85 9.75 13.8 9.7 13.75 9.75 13.75 9.85 13.65 10.0 13.55 10.0 13.85 8.95 14.25 9.0 14.35 8.95 Q14.5 8.65 14.8 8.65 L15.05 8.8 M12.3 10.75 L12.15 11.0 11.65 11.05 Q11.6 11.65 10.85 11.8 L10.5 11.9 10.25 11.95 10.1 12.05 9.8 12.1 9.1 12.15 Q8.85 11.95 9.0 11.6 9.4 10.9 10.15 11.1 L10.75 10.95 Q10.85 10.55 11.2 10.3 L11.5 10.2 Q12.2 10.15 12.3 10.75 M13.05 12.05 Q13.4 11.7 13.85 11.7 14.45 11.9 14.05 12.3 L13.6 12.5 Q13.15 12.65 13.05 12.15 L13.05 12.05 M16.4 10.65 Q16.95 10.85 16.5 11.25 16.3 11.5 16.0 11.4 15.75 11.25 15.85 11.0 L16.1 10.7 16.4 10.65 M7.15 12.1 Q7.85 12.2 7.8 12.8 7.7 13.4 7.2 13.6 6.85 14.15 6.3 13.8 6.05 13.6 6.1 13.25 6.2 12.65 6.7 12.3 L7.15 12.1 M9.8 13.75 L9.9 13.65 Q9.85 13.3 10.15 13.15 L10.35 13.1 Q10.9 13.15 10.9 13.65 L10.8 13.8 10.55 13.9 9.85 14.55 9.75 14.6 9.35 14.75 9.1 14.75 Q8.8 15.25 8.25 14.95 L8.05 14.7 Q8.05 14.3 8.45 14.25 8.75 14.25 8.9 14.4 L8.9 14.15 Q9.05 13.9 9.35 13.9 9.45 13.7 9.65 13.7 L9.7 13.7 9.8 13.75 M5.85 14.15 L5.8 14.2 Q5.85 14.7 5.45 14.9 L5.15 14.85 4.75 14.55 Q5.1 15.05 4.7 15.4 L4.5 15.45 4.0 14.95 3.8 14.35 Q3.75 14.15 3.95 14.1 4.3 13.4 5.05 13.85 L5.1 13.9 Q5.2 13.5 5.6 13.45 6.2 13.65 5.85 14.15 M12.45 13.15 L12.05 13.45 11.8 13.35 Q11.25 13.25 11.4 12.8 L11.5 12.65 Q11.7 12.5 11.95 12.5 12.55 12.55 12.45 13.15" fill="#3e7eae" fill-rule="evenodd" stroke="none"/>
    <path d="M15.5 5.5 L15.4 5.55 15.75 6.0 16.05 6.65 16.05 6.7 16.5 8.3 16.55 8.4 16.8 9.5 16.85 10.2 16.85 10.25 16.85 10.35 16.85 10.5 Q16.35 10.65 16.3 10.15 L16.2 9.4 15.85 8.0 15.4 6.55 15.35 6.35 15.2 5.85 15.15 5.65 15.1 5.65 15.0 5.65 14.9 5.8 14.85 5.95 14.7 6.25 14.55 6.85 14.4 7.45 14.35 7.5 13.85 8.95 13.55 10.0 13.55 10.2 13.5 10.3 13.5 10.35 13.4 10.55 13.35 10.6 13.05 10.55 13.05 10.3 13.05 10.1 Q13.05 9.15 13.45 8.3 L13.65 7.8 13.9 7.3 14.15 6.55 14.35 6.0 14.45 5.75 14.6 5.45 14.6 5.4 14.55 5.05 14.75 4.7 14.9 4.7 15.2 4.6 Q15.85 4.8 15.55 5.35 L15.5 5.5" fill="#cccccc" fill-rule="evenodd" stroke="none"/>
  </g>
</svg>
