<?xml version="1.0" encoding="UTF-8" standalone="no"?>
<svg xmlns:ffdec="https://www.free-decompiler.com/flash" xmlns:xlink="http://www.w3.org/1999/xlink" ffdec:objectType="shape" height="25.35px" width="26.3px" xmlns="http://www.w3.org/2000/svg">
  <g transform="matrix(1.0, 0.0, 0.0, 1.0, -2.8, -2.6)">
    <path d="M19.2 21.45 L19.15 21.55 18.55 22.1 18.25 22.3 16.75 22.9 Q15.6 22.75 14.65 22.9 L13.5 22.35 11.85 21.05 10.0 18.95 8.1 16.35 Q5.6 12.9 3.9 9.1 L4.6 9.45 Q5.9 9.9 7.15 9.1 7.45 9.8 8.35 10.2 L9.0 10.5 Q9.2 11.3 8.6 11.7 L9.0 11.9 9.25 12.5 9.8 12.65 9.75 13.2 10.3 13.45 10.6 14.35 13.4 17.3 13.35 18.0 14.45 18.25 14.55 19.0 15.25 19.2 15.05 19.75 Q16.0 19.75 16.2 20.55 L17.55 20.85 19.45 19.2 Q19.85 20.5 19.2 21.45 M24.0 21.95 L24.15 21.4 22.25 19.6 22.05 19.55 21.3 20.95 Q20.5 22.45 18.95 23.45 L18.7 25.4 Q21.05 25.9 22.55 24.3 23.45 23.45 24.0 21.95 M11.9 22.5 L15.2 23.2 Q17.1 23.4 18.75 22.3 L19.9 21.4 Q20.9 20.15 21.5 18.7 L24.6 21.0 Q24.75 22.85 23.65 24.65 L22.65 25.9 Q20.8 27.55 18.3 27.65 15.9 27.75 13.8 26.75 L15.0 26.05 14.95 24.55 14.6 24.1 13.65 23.85 Q12.65 23.45 11.9 22.5 M18.25 22.3 L18.2 22.25 18.25 22.3" fill="#666666" fill-rule="evenodd" stroke="none"/>
    <path d="M29.1 3.15 L29.1 6.15 27.5 7.15 24.8 9.1 Q23.0 10.45 21.5 12.0 L20.4 11.0 19.95 10.55 19.7 10.2 20.55 9.15 20.8 9.4 21.2 9.45 21.4 9.3 21.5 9.0 Q21.55 8.6 21.1 8.5 L21.3 8.3 23.45 6.45 26.1 4.6 Q27.5 3.6 29.1 3.15 M21.6 10.05 L21.6 10.1 Q21.6 10.55 22.05 10.6 22.2 10.65 22.3 10.5 22.75 9.9 22.05 9.6 L21.95 9.65 21.85 9.6 21.75 9.6 Q21.4 9.85 21.6 10.05" fill="#aca488" fill-rule="evenodd" stroke="none"/>
    <path d="M8.6 4.2 L10.2 5.25 Q13.3 7.85 16.8 10.0 18.8 11.15 20.2 13.25 20.6 13.85 20.65 14.65 20.85 16.55 20.65 18.45 L20.25 20.05 19.2 21.45 Q19.85 20.5 19.45 19.2 L17.55 20.85 16.2 20.55 Q16.0 19.75 15.05 19.75 L15.25 19.2 14.55 19.0 14.45 18.25 13.35 18.0 13.4 17.3 10.6 14.35 10.3 13.45 9.75 13.2 9.8 12.65 9.25 12.5 9.0 11.9 8.6 11.7 Q9.2 11.3 9.0 10.5 L8.35 10.2 Q7.45 9.8 7.15 9.1 8.5 8.1 9.05 6.7 L9.25 6.15 Q7.85 8.25 5.4 8.4 L4.35 8.25 Q2.75 6.4 4.1 4.45 4.9 3.3 6.4 3.3 L7.05 3.45 5.7 3.7 Q4.35 4.1 4.45 5.3 L5.1 5.35 5.6 5.05 7.05 4.8 8.05 5.4 8.85 4.7 8.6 4.2 M21.55 15.75 Q21.8 17.35 22.95 18.4 L24.85 19.9 25.75 20.75 25.65 21.45 24.15 20.45 Q22.1 18.7 21.45 16.0 L21.2 14.15 21.55 15.75 M24.0 21.95 Q23.45 23.45 22.55 24.3 21.05 25.9 18.7 25.4 L18.95 23.45 Q20.5 22.45 21.3 20.95 L22.05 19.55 22.25 19.6 24.15 21.4 24.0 21.95 M13.8 26.75 Q12.25 25.7 11.9 23.8 L11.9 22.5 Q12.65 23.45 13.65 23.85 L14.6 24.1 14.95 24.55 15.0 26.05 13.8 26.75 M10.45 7.3 L12.65 8.8 Q14.3 9.75 15.75 11.05 L17.55 12.85 19.6 14.8 20.15 15.05 20.3 14.35 20.1 13.6 Q19.75 12.4 18.7 11.65 L15.65 9.55 10.2 5.7 9.65 6.35 10.45 7.3 M18.25 22.3 L18.2 22.25 18.25 22.3" fill="#999999" fill-rule="evenodd" stroke="none"/>
    <path d="M21.1 8.5 Q21.55 8.6 21.5 9.0 L21.4 9.3 21.2 9.45 20.8 9.4 20.55 9.15 20.55 8.9 20.8 8.55 Q20.45 8.9 20.9 9.1 L21.1 9.05 Q21.45 8.7 20.95 8.5 L21.05 8.5 21.1 8.5 M21.95 12.3 Q22.3 12.7 22.1 13.25 21.55 14.55 22.3 16.15 22.85 17.45 23.75 18.55 L25.35 20.2 26.1 21.2 Q25.9 22.1 24.9 21.8 L24.7 23.15 23.85 25.25 23.25 26.15 22.5 26.9 Q21.05 28.1 19.2 27.95 L15.0 27.75 Q12.7 27.45 11.6 25.3 10.65 23.35 10.75 21.2 L5.95 14.25 4.25 11.6 Q2.8 9.3 2.8 6.6 2.8 5.0 4.0 3.7 4.25 3.4 4.65 3.2 L6.7 2.6 Q9.8 4.15 12.6 6.2 L16.3 8.8 18.2 10.0 18.95 9.2 19.55 9.15 19.95 8.85 19.15 10.35 Q18.7 10.25 18.95 10.55 L20.95 13.15 21.45 12.75 21.95 12.3 M21.95 9.65 L22.05 9.6 Q22.75 9.9 22.3 10.5 22.2 10.65 22.05 10.6 21.6 10.55 21.6 10.1 L21.6 10.05 21.65 10.1 22.0 10.15 Q22.35 9.8 21.95 9.65 M19.2 21.45 L20.25 20.05 20.65 18.45 Q20.85 16.55 20.65 14.65 20.6 13.85 20.2 13.25 18.8 11.15 16.8 10.0 13.3 7.85 10.2 5.25 L8.6 4.2 8.45 3.85 7.1 3.45 7.05 3.45 6.4 3.3 Q4.9 3.3 4.1 4.45 2.75 6.4 4.35 8.25 L5.4 8.4 Q7.85 8.25 9.25 6.15 L9.05 6.7 Q8.5 8.1 7.15 9.1 5.9 9.9 4.6 9.45 L3.9 9.1 Q5.6 12.9 8.1 16.35 L10.0 18.95 11.85 21.05 13.5 22.35 14.65 22.9 Q15.6 22.75 16.75 22.9 L18.25 22.3 18.55 22.1 19.15 21.55 19.2 21.45 M21.55 15.75 L21.2 14.15 21.45 16.0 Q22.1 18.7 24.15 20.45 L25.65 21.45 25.75 20.75 24.85 19.9 22.95 18.4 Q21.8 17.35 21.55 15.75 M13.8 26.75 Q15.9 27.75 18.3 27.65 20.8 27.55 22.65 25.9 L23.65 24.65 Q24.75 22.85 24.6 21.0 L21.5 18.7 Q20.9 20.15 19.9 21.4 L18.75 22.3 Q17.1 23.4 15.2 23.2 L11.9 22.5 11.9 23.8 Q12.25 25.7 13.8 26.75" fill="#454545" fill-rule="evenodd" stroke="none"/>
    <path d="M20.95 8.5 Q21.45 8.7 21.1 9.05 L20.9 9.1 Q20.45 8.9 20.8 8.55 L20.95 8.5 M21.6 10.05 Q21.4 9.85 21.75 9.6 L21.85 9.6 21.95 9.65 Q22.35 9.8 22.0 10.15 L21.65 10.1 21.6 10.05 M7.05 3.45 L7.1 3.45 8.45 3.85 8.6 4.2 8.85 4.7 8.05 5.4 7.05 4.8 5.6 5.05 5.1 5.35 4.45 5.3 Q4.35 4.1 5.7 3.7 L7.05 3.45 M10.45 7.3 L9.65 6.35 10.2 5.7 15.65 9.55 18.7 11.65 Q19.75 12.4 20.1 13.6 L20.3 14.35 20.15 15.05 19.6 14.8 17.55 12.85 15.75 11.05 Q14.3 9.75 12.65 8.8 L10.45 7.3" fill="#ffffff" fill-rule="evenodd" stroke="none"/>
    <path d="M29.1 3.15 Q27.5 3.6 26.1 4.6 L23.45 6.45 21.3 8.3 21.1 8.5 21.05 8.5 20.95 8.5 20.8 8.55 20.55 8.9 20.55 9.15 19.7 10.2 19.95 10.55 20.4 11.0 21.5 12.0 Q23.0 10.45 24.8 9.1 L27.5 7.15 29.1 6.15 29.1 6.75 28.35 7.2 25.9 8.7 Q23.6 10.1 21.95 12.3 L21.45 12.75 20.95 12.5 19.35 10.7 19.15 10.35 19.95 8.85 22.15 6.95 Q23.55 5.9 25.05 5.0 L28.3 3.0 29.1 2.6 29.1 3.15" fill="#57492d" fill-rule="evenodd" stroke="none"/>
  </g>
</svg>
