<?xml version="1.0" encoding="UTF-8" standalone="no"?>
<svg xmlns:ffdec="https://www.free-decompiler.com/flash" xmlns:xlink="http://www.w3.org/1999/xlink" ffdec:objectType="shape" height="26.15px" width="27.6px" xmlns="http://www.w3.org/2000/svg">
  <g transform="matrix(1.0, 0.0, 0.0, 1.0, -1.3, -0.5)">
    <path d="M5.8 6.6 L5.85 6.6 5.95 6.7 5.8 6.6" fill="#3a3832" fill-rule="evenodd" stroke="none"/>
    <path d="M22.8 14.0 L22.75 14.0 22.8 14.0" fill="#9f9c8e" fill-rule="evenodd" stroke="none"/>
    <path d="M22.8 13.4 L22.75 13.4 22.8 13.4" fill="#797466" fill-rule="evenodd" stroke="none"/>
    <path d="M27.05 6.0 L28.25 8.5 28.25 8.6 27.0 10.05 24.85 11.7 24.3 12.2 23.25 13.0 22.35 10.8 21.7 9.35 22.05 9.0 26.7 5.6 27.05 6.0 M11.85 5.85 L10.05 5.8 12.25 5.6 13.75 5.5 14.05 5.45 13.8 5.1 12.35 2.7 14.65 4.95 14.85 0.5 15.25 4.85 17.1 3.15 16.0 4.35 15.6 4.95 15.35 5.35 15.3 5.4 16.6 5.55 18.05 5.65 19.25 5.75 18.3 5.8 17.55 5.85 15.5 5.9 18.1 9.1 15.15 6.5 14.75 12.95 14.7 12.05 Q14.5 12.55 13.9 12.7 13.25 12.85 13.0 12.15 L13.0 11.5 Q13.2 10.6 13.95 10.4 L14.1 10.45 14.15 10.4 14.2 10.45 14.65 10.9 14.5 8.55 13.45 9.75 Q12.4 10.65 11.35 10.5 L10.1 10.0 Q9.95 9.8 9.95 9.6 L9.95 9.25 10.0 8.65 Q10.0 8.4 10.15 8.1 11.15 6.45 12.85 6.05 L13.3 5.95 13.4 5.9 12.55 5.85 11.85 5.85 M2.6 8.7 L2.15 8.2 1.95 7.9 Q2.45 6.05 3.5 4.85 L4.4 5.55 4.25 5.8 Q3.25 7.1 2.65 8.55 L2.6 8.7 M4.3 10.25 L2.95 9.25 4.95 6.2 5.1 6.05 5.8 6.6 5.95 6.7 6.2 6.9 4.6 9.75 4.3 10.3 4.3 10.25 M8.8 8.85 Q7.75 10.45 7.2 12.5 L6.5 11.95 4.95 10.8 5.8 9.4 7.2 7.6 8.6 8.65 8.8 8.85" fill="#ffffff" fill-rule="evenodd" stroke="none"/>
    <path d="M27.05 6.0 L26.7 5.6 22.05 9.0 21.7 9.35 22.35 10.8 23.25 13.0 24.3 12.2 24.85 11.7 27.0 10.05 28.25 8.6 28.25 8.5 27.05 6.0 M18.3 5.8 L19.25 6.45 20.9 7.9 21.45 8.95 21.5 8.9 21.9 8.6 24.25 7.05 26.9 4.75 28.9 8.8 28.85 8.9 Q26.6 11.55 23.95 13.3 L23.4 13.7 23.25 13.8 Q22.65 16.05 22.75 18.6 L22.45 19.85 22.0 20.5 20.95 21.4 Q19.8 22.15 18.6 22.55 L18.55 23.1 Q18.4 25.25 17.35 26.65 L13.7 26.5 Q12.9 26.6 12.45 25.9 L11.85 22.8 11.85 22.65 10.0 21.85 8.3 20.5 7.9 19.85 7.45 18.05 7.25 15.8 7.25 15.65 6.95 13.35 7.05 13.1 6.3 12.65 6.25 12.55 6.1 12.45 4.65 11.35 4.05 11.55 Q2.7 11.15 2.15 9.8 L2.3 9.3 1.3 8.05 3.3 4.05 4.65 5.25 5.05 4.85 7.05 6.5 7.2 7.05 8.8 8.25 9.1 8.5 10.2 7.15 Q10.95 6.35 11.85 5.85 L12.55 5.85 11.75 6.25 Q10.3 7.15 9.3 8.65 L9.1 9.1 8.9 9.4 Q8.1 11.05 7.65 12.8 L7.55 13.4 7.55 14.0 7.9 15.8 7.9 16.55 7.95 18.35 8.4 19.8 Q9.3 21.4 11.1 22.0 L11.75 22.2 12.6 22.3 14.95 22.35 17.9 22.25 18.7 22.15 Q20.1 21.9 21.3 20.8 L21.95 19.8 22.25 18.35 Q22.3 16.3 22.75 14.15 L22.8 14.0 22.8 13.4 Q22.35 11.3 21.5 9.55 L21.4 9.4 21.25 9.1 Q20.25 7.35 18.6 6.35 L17.55 5.85 18.3 5.8 M12.25 5.6 L12.6 5.45 13.8 5.1 14.05 5.45 13.75 5.5 12.25 5.6 M15.6 4.95 L15.9 4.95 18.05 5.65 16.6 5.55 15.95 5.4 15.35 5.35 15.6 4.95 M2.6 8.7 L2.4 9.45 Q2.95 10.55 3.95 11.0 L4.5 11.0 6.6 6.85 5.95 5.95 5.55 5.6 4.8 5.1 4.25 5.8 4.4 5.55 3.5 4.85 Q2.45 6.05 1.95 7.9 L2.15 8.2 2.6 8.7 M4.3 10.25 L4.15 10.45 4.05 10.5 2.75 9.25 2.75 9.15 4.9 5.65 5.85 6.6 5.8 6.6 5.1 6.05 4.95 6.2 2.95 9.25 4.3 10.25 M8.8 8.85 L8.6 8.65 7.2 7.6 5.8 9.4 4.95 10.8 6.5 11.95 7.2 12.5 Q7.75 10.45 8.8 8.85 M12.6 22.8 L12.6 23.25 Q12.65 24.5 13.1 25.6 L17.2 25.75 17.5 24.25 17.8 22.8 15.15 22.95 12.85 22.85 12.6 22.8" fill="#454545" fill-rule="evenodd" stroke="none"/>
    <path d="M4.25 5.8 L4.8 5.1 5.55 5.6 5.95 5.95 6.6 6.85 4.5 11.0 3.95 11.0 Q2.95 10.55 2.4 9.45 L2.6 8.7 2.65 8.55 Q3.25 7.1 4.25 5.8 M5.85 6.6 L4.9 5.65 2.75 9.15 2.75 9.25 4.05 10.5 4.15 10.45 4.3 10.25 4.3 10.3 4.6 9.75 6.2 6.9 5.95 6.7 5.85 6.6 M12.6 22.8 L12.85 22.85 15.15 22.95 17.8 22.8 17.5 24.25 17.2 25.75 13.1 25.6 Q12.65 24.5 12.6 23.25 L12.6 22.8" fill="#cccccc" fill-rule="evenodd" stroke="none"/>
    <path d="M22.8 13.4 L22.8 14.0 22.75 14.15 Q22.3 16.3 22.25 18.35 L21.95 19.8 21.3 20.8 Q20.1 21.9 18.7 22.15 L17.9 22.25 14.95 22.35 12.6 22.3 11.75 22.2 11.1 22.0 Q9.3 21.4 8.4 19.8 L7.95 18.35 7.9 16.55 7.9 15.8 7.55 14.0 7.55 13.4 7.7 13.15 8.3 13.75 8.35 14.05 Q8.5 14.85 9.0 15.7 L9.0 16.0 9.2 17.55 Q9.45 18.5 10.1 19.1 11.05 19.85 12.2 20.05 L12.4 20.1 13.4 20.2 16.6 20.2 17.9 20.1 17.95 20.1 Q19.7 19.85 20.9 18.1 L21.4 17.3 21.3 15.7 21.9 14.75 22.45 13.65 22.55 13.55 22.7 13.45 22.75 13.4 22.8 13.4 M22.8 14.0 L22.75 14.0 22.8 14.0" fill="#666666" fill-rule="evenodd" stroke="none"/>
    <path d="M17.55 5.85 L18.6 6.35 Q20.25 7.35 21.25 9.1 L21.4 9.4 21.5 9.55 Q22.35 11.3 22.8 13.4 L22.75 13.4 22.7 13.45 22.55 13.55 22.45 13.65 21.9 14.75 21.3 15.7 21.4 17.3 20.9 18.1 Q19.7 19.85 17.95 20.1 L17.9 20.1 16.6 20.2 13.4 20.2 12.4 20.1 12.2 20.05 Q11.05 19.85 10.1 19.1 9.45 18.5 9.2 17.55 L9.0 16.0 9.0 15.7 Q8.5 14.85 8.35 14.05 L8.3 13.75 7.7 13.15 7.55 13.4 7.65 12.8 Q8.1 11.05 8.9 9.4 L9.1 9.1 9.3 8.65 Q10.3 7.15 11.75 6.25 L12.55 5.85 13.4 5.9 13.3 5.95 12.85 6.05 Q11.15 6.45 10.15 8.1 10.0 8.4 10.0 8.65 L9.95 9.25 9.95 9.6 Q9.95 9.8 10.1 10.0 L11.35 10.5 Q12.4 10.65 13.45 9.75 L14.5 8.55 14.65 10.9 14.2 10.45 14.15 10.4 14.1 10.45 13.95 10.4 Q13.2 10.6 13.0 11.5 L13.0 12.15 Q13.25 12.85 13.9 12.7 14.5 12.55 14.7 12.05 L14.75 12.95 15.15 6.5 18.1 9.1 15.5 5.9 17.55 5.85 M15.35 5.35 L15.95 5.4 16.6 5.55 15.3 5.4 15.35 5.35 M14.05 5.45 L13.75 5.5 14.05 5.45" fill="#999999" fill-rule="evenodd" stroke="none"/>
  </g>
</svg>
