<?xml version="1.0" encoding="UTF-8" standalone="no"?>
<svg xmlns:ffdec="https://www.free-decompiler.com/flash" xmlns:xlink="http://www.w3.org/1999/xlink" ffdec:objectType="shape" height="24.0px" width="28.3px" xmlns="http://www.w3.org/2000/svg">
  <g transform="matrix(1.0, 0.0, 0.0, 1.0, -0.8, -2.95)">
    <path d="M25.1 5.45 Q25.75 6.0 26.0 6.9 L26.45 8.05 26.45 8.15 26.35 8.6 26.3 8.65 24.75 9.95 23.15 10.8 21.7 8.5 21.15 7.85 Q23.0 6.45 24.85 5.55 L25.1 5.45 M24.5 8.55 L24.55 8.85 Q25.05 9.7 25.55 8.95 25.4 7.35 24.5 8.55 M24.25 7.35 L24.3 7.25 Q24.9 6.65 24.3 6.0 L23.6 6.45 23.85 7.05 24.25 7.35 M20.5 9.15 L20.65 9.2 21.1 9.2 21.2 9.0 Q21.75 9.35 22.1 10.1 L22.05 10.2 21.85 10.35 21.8 10.4 21.8 10.45 21.7 10.8 21.65 10.95 21.7 10.95 21.7 11.0 21.75 11.15 21.7 11.15 21.75 11.25 21.9 11.45 21.95 11.6 21.9 11.75 21.4 11.15 20.55 10.0 Q20.0 9.2 19.8 8.3 L20.1 8.3 20.3 9.05 20.5 9.15 M21.2 13.2 L20.85 13.6 20.65 14.1 Q20.65 14.95 21.45 14.65 L21.95 14.05 21.9 13.85 Q21.75 13.45 21.2 13.2 M13.05 7.65 L12.9 7.6 Q12.55 7.35 12.4 7.45 L12.75 7.05 17.25 7.2 19.1 8.9 19.1 8.95 20.4 10.65 21.75 12.7 Q22.25 13.45 22.3 14.55 L22.3 14.65 22.15 15.1 21.45 17.65 20.6 20.05 20.45 20.35 20.4 20.3 20.35 20.3 20.3 20.4 20.3 20.45 20.35 20.45 19.65 21.3 19.2 21.8 19.1 21.5 18.4 21.5 Q18.15 21.75 18.3 22.2 L17.5 22.35 16.2 22.8 15.1 22.95 14.95 22.95 14.8 22.95 13.7 22.8 12.4 22.35 11.65 22.2 Q11.75 21.75 11.5 21.5 L10.8 21.5 10.7 21.8 10.25 21.3 9.6 20.45 9.6 20.4 9.55 20.3 9.5 20.3 9.45 20.35 9.3 20.05 8.45 17.65 7.75 15.1 7.6 14.65 7.6 14.55 Q7.65 13.45 8.15 12.7 8.85 11.5 9.5 10.65 L10.6 9.2 12.3 7.5 12.2 8.05 11.05 9.4 Q11.1 10.25 12.05 10.65 L13.5 11.45 14.8 12.65 Q16.3 11.85 17.8 10.5 L18.75 9.65 18.9 9.45 17.75 8.05 17.65 7.8 Q17.5 7.2 17.0 7.6 L16.85 7.65 Q16.5 7.15 15.8 7.4 L14.2 7.4 Q13.45 7.25 13.05 7.65 M20.25 18.3 L20.7 18.35 20.8 18.25 Q20.7 17.5 20.25 17.2 L20.05 17.05 19.7 17.35 19.6 17.6 19.55 18.3 19.95 18.3 20.25 18.3 M10.7 11.8 Q11.25 11.3 11.0 10.75 L10.3 10.25 Q10.15 10.2 10.1 10.35 9.55 11.55 10.7 11.8 M19.6 10.25 L18.9 10.75 Q18.65 11.3 19.2 11.8 20.35 11.55 19.8 10.35 L19.6 10.25 M4.8 5.45 L5.05 5.55 Q6.9 6.45 8.75 7.85 L8.2 8.5 Q7.35 9.5 6.75 10.8 L5.15 9.95 3.6 8.65 3.55 8.6 3.45 8.15 3.45 8.05 3.9 6.9 Q4.15 6.0 4.8 5.45 M8.8 9.2 L9.25 9.2 9.4 9.15 9.6 9.05 9.8 8.3 10.1 8.3 9.35 10.0 8.5 11.15 8.0 11.75 7.95 11.6 8.0 11.45 8.15 11.25 8.2 11.15 8.2 11.0 8.2 10.95 8.25 10.95 8.2 10.8 8.1 10.45 8.1 10.4 8.05 10.35 7.85 10.2 7.8 10.1 Q8.15 9.35 8.7 9.0 L8.8 9.2 M5.65 7.35 L6.05 7.05 6.3 6.45 5.6 6.0 Q5.0 6.65 5.6 7.25 L5.65 7.35 M5.4 8.55 Q4.5 7.35 4.35 8.95 4.85 9.7 5.35 8.85 L5.4 8.55 M8.0 13.85 L7.95 14.05 8.45 14.65 Q9.25 14.95 9.25 14.1 L9.05 13.6 8.7 13.2 Q8.15 13.45 8.0 13.85 M10.0 18.3 L10.35 18.3 10.3 17.6 10.2 17.35 9.85 17.05 9.65 17.2 Q9.2 17.5 9.1 18.25 L9.2 18.35 9.7 18.3 9.95 18.3 10.0 18.3" fill="#666666" fill-rule="evenodd" stroke="none"/>
    <path d="M26.8 3.55 Q27.6 4.05 28.1 5.2 L28.6 6.6 Q28.9 7.7 28.55 8.55 28.25 9.2 27.5 9.45 L27.0 9.1 27.15 8.95 27.85 8.35 Q28.55 6.85 27.75 5.6 L27.75 5.5 27.0 4.35 26.9 4.2 26.85 4.2 26.8 4.15 25.9 3.85 25.85 3.85 Q25.25 3.95 24.85 4.55 L24.65 4.7 24.45 4.8 24.45 4.55 24.55 4.2 24.65 3.85 24.7 3.8 Q24.85 3.65 25.05 3.6 25.5 3.2 26.1 3.3 L26.6 3.45 26.8 3.55 M24.1 6.3 L24.3 6.4 Q24.65 6.7 24.25 7.0 L24.0 7.0 Q23.55 6.6 23.95 6.35 L24.0 6.35 24.1 6.3 M25.05 8.25 L25.2 8.3 Q25.55 8.7 25.1 8.95 L24.9 8.85 Q24.55 8.45 25.05 8.25 M20.7 8.05 Q21.35 8.3 20.75 9.05 20.1 8.9 20.5 8.2 L20.7 8.05 M21.95 10.8 L21.95 10.7 22.0 10.55 22.35 10.35 22.7 10.8 Q22.7 11.2 22.3 11.3 L22.2 11.3 22.0 11.15 21.95 10.95 21.95 10.9 21.95 10.8 M20.95 13.85 L21.25 13.55 Q21.7 13.75 21.55 14.0 21.0 14.7 20.95 13.85 M19.95 18.3 L19.8 18.15 19.75 18.0 Q19.45 17.35 20.15 17.25 L20.35 17.35 20.5 17.65 20.55 17.9 20.4 18.15 20.25 18.3 19.95 18.3 M10.7 11.25 Q9.85 11.55 10.35 10.5 L10.9 11.05 10.7 11.25 M19.0 11.05 L19.55 10.5 Q20.05 11.55 19.2 11.25 L19.0 11.05 M5.25 3.8 L5.25 3.85 5.35 4.2 5.45 4.55 5.45 4.8 5.25 4.7 5.05 4.55 Q4.65 3.95 4.05 3.85 L4.0 3.85 Q3.5 3.8 3.15 4.15 L3.1 4.15 3.05 4.2 3.0 4.2 2.9 4.35 Q2.45 4.85 2.15 5.5 L2.15 5.6 Q1.35 6.85 2.05 8.35 L2.75 8.95 2.9 9.1 2.4 9.45 Q1.65 9.2 1.35 8.55 1.0 7.7 1.3 6.6 L1.8 5.2 Q2.3 4.05 3.1 3.55 L3.3 3.45 3.8 3.3 Q4.4 3.2 4.9 3.6 L5.2 3.8 5.25 3.8 M4.8 8.95 Q4.35 8.7 4.7 8.3 L4.85 8.25 Q5.35 8.45 5.0 8.85 L4.8 8.95 M9.4 8.2 Q9.8 8.9 9.15 9.05 8.55 8.3 9.2 8.05 L9.4 8.2 M5.95 6.35 Q6.35 6.6 5.9 7.0 L5.65 7.0 Q5.25 6.7 5.6 6.4 L5.8 6.3 5.95 6.35 M7.9 11.15 L7.7 11.3 7.6 11.3 Q7.2 11.2 7.2 10.8 7.25 10.4 7.55 10.35 7.8 10.35 7.9 10.55 L7.95 10.7 8.0 10.7 8.0 10.8 8.0 10.9 7.95 10.9 7.95 10.95 7.9 11.15 M8.65 13.55 L8.95 13.85 Q8.9 14.7 8.35 14.0 8.2 13.75 8.65 13.55 M9.7 18.3 L9.5 18.15 9.4 17.9 9.4 17.65 9.6 17.35 9.75 17.25 Q10.45 17.35 10.15 18.0 L10.1 18.15 10.0 18.3 9.95 18.3 9.7 18.3 M11.4 22.3 L11.05 22.3 10.75 22.1 10.95 21.6 Q11.6 21.4 11.45 22.1 L11.4 22.3 M18.5 22.3 L18.45 22.1 Q18.3 21.4 18.95 21.6 L19.15 22.1 18.85 22.3 18.5 22.3" fill="#cccccc" fill-rule="evenodd" stroke="none"/>
    <path d="M26.8 3.55 L26.6 3.45 26.1 3.3 Q25.5 3.2 25.05 3.6 24.85 3.65 24.7 3.8 L24.65 3.85 24.55 4.2 24.45 4.55 24.45 4.8 24.65 4.7 24.85 4.55 Q25.25 3.95 25.85 3.85 L25.9 3.85 26.8 4.15 26.85 4.2 26.9 4.2 27.0 4.35 27.75 5.5 27.75 5.6 Q28.55 6.85 27.85 8.35 L27.15 8.95 27.0 9.1 27.5 9.45 Q28.25 9.2 28.55 8.55 28.9 7.7 28.6 6.6 L28.1 5.2 Q27.6 4.05 26.8 3.55 M26.85 3.3 L27.05 3.45 27.2 3.55 Q28.25 4.35 28.75 5.8 L29.0 6.7 29.1 7.35 29.0 7.95 Q28.75 8.9 28.0 9.6 L27.0 9.75 26.75 9.65 26.05 9.9 24.5 10.8 22.55 12.15 Q22.45 12.15 22.4 12.25 L22.5 13.3 22.65 14.05 22.55 14.8 22.45 15.1 22.4 15.55 22.15 16.8 Q21.75 18.9 20.9 20.85 L20.4 22.2 20.05 22.85 19.7 23.45 Q18.8 25.25 17.25 26.3 16.25 26.9 15.1 26.95 L14.8 26.95 Q13.65 26.9 12.65 26.3 11.1 25.25 10.2 23.45 L9.85 22.85 9.5 22.2 9.0 20.85 Q8.15 18.9 7.75 16.8 L7.5 15.55 7.45 15.1 7.35 14.8 7.25 14.05 7.4 13.3 7.5 12.25 7.35 12.15 5.4 10.8 3.85 9.9 3.15 9.65 2.9 9.75 1.9 9.6 Q1.15 8.9 0.9 7.95 L0.8 7.35 0.9 6.7 1.15 5.8 Q1.65 4.35 2.7 3.55 L2.9 3.45 3.05 3.3 3.25 3.1 4.4 2.95 5.05 3.25 Q5.6 3.55 5.75 4.25 L5.75 4.3 5.75 4.4 5.75 4.45 5.75 4.9 5.7 5.0 5.65 5.0 6.45 5.65 8.0 6.75 9.85 7.8 10.35 7.95 10.95 7.8 12.15 6.9 Q12.9 6.35 13.9 6.7 L15.1 6.6 16.9 6.6 Q17.7 6.6 18.45 7.3 L19.15 7.9 19.35 8.05 20.05 7.8 21.9 6.75 23.45 5.65 24.25 5.0 24.2 5.0 24.15 4.9 24.15 4.45 24.15 4.4 24.15 4.3 24.2 4.25 Q24.3 3.55 24.85 3.25 25.15 2.95 25.5 2.95 L26.65 3.1 26.85 3.3 M25.7 4.3 L25.65 4.4 25.45 4.7 25.95 6.15 26.75 7.45 27.15 8.2 27.2 8.3 Q27.45 8.0 27.55 8.05 L27.8 7.5 27.9 6.8 Q27.35 5.15 26.1 4.25 L25.9 4.2 25.9 4.25 25.7 4.3 M25.1 5.45 L24.85 5.55 Q23.0 6.45 21.15 7.85 L21.7 8.5 23.15 10.8 24.75 9.95 26.3 8.65 26.35 8.6 26.45 8.15 26.45 8.05 26.0 6.9 Q25.75 6.0 25.1 5.45 M24.1 6.3 L24.0 6.35 23.95 6.35 Q23.55 6.6 24.0 7.0 L24.25 7.0 Q24.65 6.7 24.3 6.4 L24.1 6.3 M24.25 7.35 L23.85 7.05 23.6 6.45 24.3 6.0 Q24.9 6.65 24.3 7.25 L24.25 7.35 M24.5 8.55 Q25.4 7.35 25.55 8.95 25.05 9.7 24.55 8.85 L24.5 8.55 M25.05 8.25 Q24.55 8.45 24.9 8.85 L25.1 8.95 Q25.55 8.7 25.2 8.3 L25.05 8.25 M20.7 8.05 L20.5 8.2 Q20.1 8.9 20.75 9.05 21.35 8.3 20.7 8.05 M20.5 9.15 L20.3 9.05 20.1 8.3 19.8 8.3 Q20.0 9.2 20.55 10.0 L21.4 11.15 21.9 11.75 21.95 11.6 21.9 11.45 21.75 11.25 21.7 11.15 21.75 11.15 21.7 11.0 21.7 10.95 21.65 10.95 21.7 10.8 21.8 10.45 21.8 10.4 21.85 10.35 22.05 10.2 22.1 10.1 Q21.75 9.35 21.2 9.0 L21.1 9.2 20.65 9.2 20.5 9.15 M21.95 10.8 L21.9 10.85 21.95 10.9 21.95 10.95 21.95 11.05 22.0 11.15 22.2 11.3 22.3 11.3 Q22.7 11.2 22.7 10.8 L22.35 10.35 22.0 10.55 21.95 10.7 21.95 10.8 M21.2 13.2 Q21.75 13.45 21.9 13.85 L21.95 14.05 21.45 14.65 Q20.65 14.95 20.65 14.1 L20.85 13.6 21.2 13.2 M20.95 13.85 Q21.0 14.7 21.55 14.0 21.7 13.75 21.25 13.55 L20.95 13.85 M12.2 8.05 L12.3 7.5 10.6 9.2 9.5 10.65 Q8.85 11.5 8.15 12.7 7.65 13.45 7.6 14.55 L7.6 14.65 7.75 15.1 8.45 17.65 9.3 20.05 9.45 20.35 9.5 20.3 9.55 20.3 9.6 20.4 9.6 20.45 10.25 21.3 10.7 21.8 10.8 21.5 11.5 21.5 Q11.75 21.75 11.65 22.2 L12.4 22.35 13.7 22.8 14.8 22.95 14.95 22.95 15.1 22.95 16.2 22.8 17.5 22.35 18.3 22.2 Q18.15 21.75 18.4 21.5 L19.1 21.5 19.2 21.8 19.65 21.3 20.35 20.45 20.3 20.45 20.3 20.4 20.35 20.3 20.4 20.3 20.45 20.35 20.6 20.05 21.45 17.65 22.15 15.1 22.3 14.65 22.3 14.55 Q22.25 13.45 21.75 12.7 L20.4 10.65 19.1 8.95 19.1 8.9 17.25 7.2 12.75 7.05 12.4 7.45 Q12.55 7.35 12.9 7.6 L13.05 7.65 13.35 8.2 13.45 8.4 Q13.1 9.5 12.3 8.5 L12.35 8.35 12.4 8.5 Q12.75 8.8 12.95 8.4 13.25 7.85 12.65 7.7 L12.35 7.8 12.25 8.1 12.2 8.05 M16.85 7.65 L17.0 7.6 Q17.5 7.2 17.65 7.8 L17.3 7.6 Q17.0 7.6 16.95 7.9 16.8 8.45 17.3 8.55 L16.85 8.55 Q16.5 8.05 16.85 7.65 M20.25 18.3 L20.4 18.15 20.55 17.9 20.5 17.65 20.35 17.35 20.15 17.25 Q19.45 17.35 19.75 18.0 L19.8 18.15 19.95 18.3 19.55 18.3 19.6 17.6 19.7 17.35 20.05 17.05 20.25 17.2 Q20.7 17.5 20.8 18.25 L20.7 18.35 20.25 18.3 M10.7 11.25 L10.9 11.05 10.35 10.5 Q9.85 11.55 10.7 11.25 M10.7 11.8 Q9.55 11.55 10.1 10.35 10.15 10.2 10.3 10.25 L11.0 10.75 Q11.25 11.3 10.7 11.8 M19.6 10.25 L19.8 10.35 Q20.35 11.55 19.2 11.8 18.65 11.3 18.9 10.75 L19.6 10.25 M19.0 11.05 L19.2 11.25 Q20.05 11.55 19.55 10.5 L19.0 11.05 M5.25 3.8 L5.2 3.8 4.9 3.6 Q4.4 3.2 3.8 3.3 L3.3 3.45 3.1 3.55 Q2.3 4.05 1.8 5.2 L1.3 6.6 Q1.0 7.7 1.35 8.55 1.65 9.2 2.4 9.45 L2.9 9.1 2.75 8.95 2.05 8.35 Q1.35 6.85 2.15 5.6 L2.15 5.5 Q2.45 4.85 2.9 4.35 L3.0 4.2 3.05 4.2 3.1 4.15 3.15 4.15 Q3.5 3.8 4.0 3.85 L4.05 3.85 Q4.65 3.95 5.05 4.55 L5.25 4.7 5.45 4.8 5.45 4.55 5.35 4.2 5.25 3.85 5.25 3.8 M4.0 4.2 L3.8 4.25 Q2.55 5.15 2.0 6.8 L2.1 7.5 2.35 8.05 2.7 8.3 2.75 8.2 3.15 7.45 3.95 6.15 4.5 4.7 4.25 4.4 4.2 4.3 4.0 4.25 4.0 4.2 M4.8 5.45 Q4.15 6.0 3.9 6.9 L3.45 8.05 3.45 8.15 3.55 8.6 3.6 8.65 5.15 9.95 6.75 10.8 Q7.35 9.5 8.2 8.5 L8.75 7.85 Q6.9 6.45 5.05 5.55 L4.8 5.45 M4.8 8.95 L5.0 8.85 Q5.35 8.45 4.85 8.25 L4.7 8.3 Q4.35 8.7 4.8 8.95 M8.8 9.2 L8.7 9.0 Q8.15 9.35 7.8 10.1 L7.85 10.2 8.05 10.35 8.1 10.4 8.1 10.45 8.2 10.8 8.25 10.95 8.2 10.95 8.2 11.0 8.2 11.15 8.15 11.25 8.0 11.45 7.95 11.6 8.0 11.75 8.5 11.15 9.35 10.0 10.1 8.3 9.8 8.3 9.6 9.05 9.4 9.15 9.25 9.2 8.8 9.2 M9.4 8.2 L9.2 8.05 Q8.55 8.3 9.15 9.05 9.8 8.9 9.4 8.2 M5.95 6.35 L5.8 6.3 5.6 6.4 Q5.25 6.7 5.65 7.0 L5.9 7.0 Q6.35 6.6 5.95 6.35 M5.4 8.55 L5.35 8.85 Q4.85 9.7 4.35 8.95 4.5 7.35 5.4 8.55 M5.65 7.35 L5.6 7.25 Q5.0 6.65 5.6 6.0 L6.3 6.45 6.05 7.05 5.65 7.35 M8.0 10.8 L8.0 10.7 7.95 10.7 7.9 10.55 Q7.8 10.35 7.55 10.35 7.25 10.4 7.2 10.8 7.2 11.2 7.6 11.3 L7.7 11.3 7.9 11.15 7.95 11.05 7.95 10.95 7.95 10.9 8.0 10.9 8.0 10.85 8.0 10.8 M8.0 13.85 Q8.15 13.45 8.7 13.2 L9.05 13.6 9.25 14.1 Q9.25 14.95 8.45 14.65 L7.95 14.05 8.0 13.85 M10.0 18.3 L10.1 18.15 10.15 18.0 Q10.45 17.35 9.75 17.25 L9.6 17.35 9.4 17.65 9.4 17.9 9.5 18.15 9.7 18.3 9.2 18.35 9.1 18.25 Q9.2 17.5 9.65 17.2 L9.85 17.05 10.2 17.35 10.3 17.6 10.35 18.3 10.0 18.3 M8.65 13.55 Q8.2 13.75 8.35 14.0 8.9 14.7 8.95 13.85 L8.65 13.55 M11.4 22.3 L11.45 22.1 Q11.6 21.4 10.95 21.6 L10.75 22.1 11.05 22.3 11.4 22.3 M12.6 24.55 L12.3 25.0 Q12.85 25.9 12.95 24.85 L12.75 24.55 12.6 24.55 M17.3 24.55 L17.15 24.55 16.95 24.85 Q17.05 25.9 17.6 25.0 L17.3 24.55 M18.5 22.3 L18.85 22.3 19.15 22.1 18.95 21.6 Q18.3 21.4 18.45 22.1 L18.5 22.3" fill="#333333" fill-rule="evenodd" stroke="none"/>
    <path d="M13.05 7.65 Q13.45 7.25 14.2 7.4 L15.8 7.4 Q16.5 7.15 16.85 7.65 16.5 8.05 16.85 8.55 L17.3 8.55 17.65 8.3 17.75 8.05 18.9 9.45 18.75 9.65 17.8 10.5 Q16.3 11.85 14.8 12.65 L13.5 11.45 12.05 10.65 Q11.1 10.25 11.05 9.4 L12.2 8.05 12.25 8.1 12.35 8.35 12.3 8.5 Q13.1 9.5 13.45 8.4 L13.35 8.2 13.05 7.65 M12.6 24.55 L12.75 24.55 12.95 24.85 Q12.85 25.9 12.3 25.0 L12.6 24.55 M17.3 24.55 L17.6 25.0 Q17.05 25.9 16.95 24.85 L17.15 24.55 17.3 24.55" fill="#999999" fill-rule="evenodd" stroke="none"/>
    <path d="M17.65 7.8 L17.75 8.05 17.65 8.3 17.3 8.55 Q16.8 8.45 16.95 7.9 17.0 7.6 17.3 7.6 L17.65 7.8 M12.25 8.1 L12.35 7.8 12.65 7.7 Q13.25 7.85 12.95 8.4 12.75 8.8 12.4 8.5 L12.35 8.35 12.25 8.1" fill="#ffffff" fill-rule="evenodd" stroke="none"/>
  </g>
</svg>
