<?xml version="1.0" encoding="UTF-8" standalone="no"?>
<svg xmlns:ffdec="https://www.free-decompiler.com/flash" xmlns:xlink="http://www.w3.org/1999/xlink" ffdec:objectType="shape" height="8.35px" width="14.85px" xmlns="http://www.w3.org/2000/svg">
  <g transform="matrix(1.0, 0.0, 0.0, 1.0, 9.1, 7.0)">
    <path d="M5.65 -6.95 L5.75 -6.95 5.5 -6.1 5.25 -5.7 4.65 -5.05 4.25 -4.7 4.2 -4.75 4.2 -4.65 4.45 -4.0 4.8 -3.05 5.0 -2.0 3.5 -0.9 2.3 -0.45 2.2 -0.4 2.0 -0.2 1.1 0.95 0.8 1.15 -0.7 1.3 -1.8 0.75 -1.8 0.7 -1.8 0.6 -1.9 0.0 -2.05 -0.65 -2.75 -2.4 -2.9 -2.4 -4.1 -2.25 -5.15 -2.15 -6.7 -2.15 -7.85 -2.25 -8.25 -2.35 Q-8.6 -2.45 -8.85 -2.65 L-9.05 -2.8 -9.05 -2.95 -9.05 -3.05 -9.0 -3.1 -8.95 -3.15 -8.9 -3.15 -8.6 -3.05 -8.2 -2.9 -6.95 -2.7 -6.15 -2.65 -5.35 -2.65 -4.5 -2.7 -2.95 -2.8 -2.85 -2.9 -2.75 -2.95 -2.0 -3.15 -0.65 -3.3 0.8 -3.7 Q1.75 -4.05 2.6 -4.5 L3.6 -4.95 3.75 -5.05 3.95 -5.05 4.3 -5.3 5.4 -6.65 5.4 -6.9 5.45 -7.0 5.55 -7.0 5.65 -6.95 M3.65 -4.8 L2.7 -4.35 1.95 -4.0 0.35 -3.45 -0.6 -3.15 -0.85 -3.15 -0.75 -3.0 0.15 -2.85 2.05 -2.95 1.8 -2.9 0.05 -2.65 -1.9 -2.95 -2.05 -2.95 -2.5 -2.85 -2.6 -2.75 -2.1 -1.6 -1.8 -0.45 -1.7 -0.25 -1.55 0.35 -1.2 0.15 0.3 -0.3 1.55 -0.5 2.25 -0.7 3.55 -1.15 Q4.25 -1.25 4.65 -2.05 L4.65 -2.3 4.05 -4.5 3.95 -4.7 3.65 -4.8 M1.0 -0.1 L-0.5 0.05 -0.9 0.25 -1.4 0.5 Q-0.45 1.25 0.75 0.8 L0.8 0.75 1.35 0.4 1.8 -0.25 1.0 -0.1" fill="#666666" fill-rule="evenodd" stroke="none"/>
    <path d="M3.65 -4.8 L3.95 -4.7 4.05 -4.5 4.65 -2.3 4.65 -2.05 Q4.25 -1.25 3.55 -1.15 L2.25 -0.7 1.55 -0.5 0.3 -0.3 -1.2 0.15 -1.55 0.35 -1.7 -0.25 -1.8 -0.45 -2.1 -1.6 -2.6 -2.75 -2.5 -2.85 -2.05 -2.95 -1.9 -2.95 0.05 -2.65 1.8 -2.9 2.05 -2.95 0.15 -2.85 -0.75 -3.0 -0.85 -3.15 -0.6 -3.15 0.35 -3.45 1.95 -4.0 2.7 -4.35 3.65 -4.8" fill="#ffffff" fill-rule="evenodd" stroke="none"/>
    <path d="M1.0 -0.1 L1.8 -0.25 1.35 0.4 0.8 0.75 0.75 0.8 Q-0.45 1.25 -1.4 0.5 L-0.9 0.25 -0.5 0.05 1.0 -0.1" fill="#cccccc" fill-rule="evenodd" stroke="none"/>
  </g>
</svg>
