<?xml version="1.0" encoding="UTF-8" standalone="no"?>
<svg xmlns:ffdec="https://www.free-decompiler.com/flash" xmlns:xlink="http://www.w3.org/1999/xlink" ffdec:objectType="shape" height="22.25px" width="27.3px" xmlns="http://www.w3.org/2000/svg">
  <g transform="matrix(1.0, 0.0, 0.0, 1.0, -1.4, -3.95)">
    <path d="M25.55 5.7 L25.3 5.9 25.15 6.15 25.1 6.3 Q24.9 6.7 25.15 7.0 L26.2 8.2 Q28.1 10.65 28.6 14.1 L28.7 15.3 28.55 19.05 28.3 20.3 27.95 21.1 28.5 22.0 28.65 22.6 27.5 23.85 26.95 23.6 26.55 23.55 26.55 23.7 26.55 23.75 26.55 23.85 26.25 24.2 25.1 24.3 24.8 24.05 24.65 23.95 24.45 24.0 24.45 24.2 24.4 24.3 23.9 24.85 23.1 24.7 22.5 25.2 20.95 25.45 20.4 25.95 19.7 25.8 18.7 26.2 18.15 25.4 17.3 24.85 Q15.15 25.65 12.9 24.85 L12.05 25.4 11.95 25.75 11.85 25.9 11.55 26.2 10.5 25.8 9.85 25.95 9.3 25.45 Q8.1 25.4 7.0 24.6 L6.05 24.7 5.75 24.1 5.75 24.0 5.6 23.95 5.35 24.0 5.1 24.3 Q4.05 24.4 3.7 23.75 L3.65 23.55 3.6 23.5 2.75 23.85 1.7 22.85 1.8 22.0 2.0 21.3 1.85 20.35 1.65 19.05 Q1.0 15.2 2.2 11.55 3.1 8.85 4.7 6.95 L5.05 6.65 5.15 6.6 5.05 6.15 4.95 5.9 4.65 5.7 4.6 4.95 5.1 3.95 Q5.9 3.85 6.45 4.5 7.15 5.3 7.95 5.5 L8.0 5.45 8.1 5.3 8.2 5.2 8.6 5.2 9.2 5.7 10.05 5.55 10.5 5.8 11.0 5.7 11.45 6.0 15.15 5.8 18.0 5.95 18.75 6.0 19.2 5.7 19.7 5.8 20.15 5.55 21.0 5.7 21.65 5.2 22.0 5.2 22.1 5.3 22.2 5.45 Q23.15 5.0 23.8 4.35 24.3 3.85 25.2 4.0 L25.5 4.45 25.55 5.7 M28.25 17.05 L27.55 12.65 26.6 9.35 Q25.95 7.75 24.85 6.85 L24.6 6.65 24.85 5.65 24.9 5.25 24.9 4.9 24.9 4.7 24.6 4.65 24.25 4.75 23.9 5.25 23.6 5.65 23.5 5.75 23.35 5.65 23.25 5.65 22.9 5.8 22.4 6.2 21.85 5.7 21.0 6.25 19.7 6.4 19.2 6.15 19.15 6.2 18.85 6.5 18.5 6.5 18.1 6.5 17.65 6.45 17.05 6.85 16.3 6.65 15.65 6.75 15.35 6.95 15.1 6.95 14.85 7.0 14.7 7.1 13.9 6.65 13.2 6.85 12.55 6.45 11.8 6.5 11.05 6.2 10.5 6.4 9.2 6.25 8.35 5.7 7.8 6.2 7.3 5.8 6.95 5.55 6.8 5.55 6.7 5.75 5.65 4.65 5.3 4.7 5.25 4.9 5.3 5.3 5.35 5.65 5.6 6.65 4.6 7.75 Q3.7 9.25 3.05 10.9 1.95 13.85 2.0 17.05 2.2 19.7 3.2 21.75 L3.2 21.85 Q2.3 21.6 2.15 22.4 L2.2 22.4 2.35 22.4 2.6 22.3 2.7 22.35 2.85 22.65 2.8 22.8 3.0 23.25 3.95 23.05 4.0 23.25 4.05 23.3 4.5 23.85 6.3 23.5 6.3 23.7 6.35 23.95 7.2 24.1 7.5 24.55 9.65 24.95 10.2 25.55 10.75 25.2 11.35 25.5 11.8 25.1 12.25 24.5 Q15.05 24.3 18.15 24.45 18.35 25.35 19.1 25.5 L19.45 25.2 20.5 25.1 22.7 24.55 23.0 24.1 23.3 24.1 23.7 23.95 23.9 23.5 25.8 23.85 26.2 23.5 26.2 23.35 26.25 23.05 27.55 23.1 27.4 22.65 27.4 22.5 27.5 22.35 27.6 22.3 28.0 22.5 27.85 22.15 Q27.4 21.7 27.0 21.75 L27.25 21.3 Q28.25 19.25 28.25 17.05 M23.6 7.35 L22.35 7.4 22.0 7.7 21.35 7.7 21.4 7.6 Q22.3 7.0 23.3 6.45 L24.05 6.2 24.25 6.3 24.2 6.85 23.9 7.4 23.7 7.15 23.6 7.35 M20.65 7.9 L20.4 8.0 Q19.75 7.55 20.65 7.1 21.25 7.5 20.65 7.9 M21.3 23.85 Q20.9 23.85 20.7 24.25 L20.6 24.35 Q19.95 24.0 20.55 23.55 20.95 23.1 21.25 23.35 L21.4 23.3 Q21.95 23.65 21.3 23.85 M25.85 22.05 Q26.05 21.4 26.1 22.35 L25.95 22.5 25.4 22.35 Q25.2 23.0 24.55 23.1 L24.5 23.2 Q24.0 23.0 24.55 22.4 L25.1 22.5 Q25.35 21.7 25.85 22.1 L25.85 22.05 M23.5 22.75 Q23.45 24.1 22.5 23.45 22.7 22.75 23.4 22.6 L23.5 22.75 M13.75 8.0 Q14.05 8.4 13.85 8.5 13.05 8.45 13.5 7.7 L13.75 8.0 M15.05 8.2 L14.95 8.45 Q14.45 8.7 14.7 7.75 L15.05 8.2 M11.85 8.35 L11.7 8.3 10.65 8.2 10.5 7.2 10.85 7.4 11.05 7.65 Q12.25 7.3 13.0 8.35 L11.85 8.35 M18.35 8.35 L17.2 8.35 Q17.9 7.3 19.15 7.65 L19.55 7.1 19.85 7.7 19.55 8.2 18.5 8.3 18.35 8.35 M15.2 8.2 L15.3 7.85 15.45 7.7 15.65 7.85 15.7 8.2 15.65 8.55 15.45 8.7 15.3 8.55 15.2 8.2 M16.5 8.0 Q16.05 8.25 16.45 7.9 L16.7 7.7 Q17.1 8.4 16.5 8.0 M6.55 7.35 L6.6 7.35 6.5 7.15 6.35 7.4 6.0 6.85 5.95 6.5 6.0 6.3 8.1 7.1 8.85 7.7 8.25 7.7 7.85 7.4 6.6 7.35 6.55 7.35 M9.55 7.9 L9.45 7.65 Q9.3 6.75 9.85 7.45 10.25 7.95 9.85 8.0 L9.8 7.9 9.55 7.9 M4.8 22.35 L4.8 22.05 5.1 22.5 Q5.9 22.05 5.95 23.2 L5.7 23.25 4.8 22.35 M4.4 22.1 L4.6 22.05 4.3 22.5 4.15 22.1 Q4.5 21.55 4.35 22.05 L4.3 22.1 4.35 22.1 4.4 22.1 M11.75 24.35 Q11.35 23.85 11.8 24.1 12.05 24.8 11.75 24.35 M11.05 24.75 Q10.5 24.15 10.9 23.8 11.5 24.25 11.05 24.75 M9.25 23.45 Q10.1 23.65 9.65 24.35 L8.9 24.3 8.75 24.2 Q8.25 23.15 9.0 23.5 L9.25 23.45 M6.8 22.65 Q7.35 22.65 7.55 23.2 7.8 23.3 7.65 23.5 6.75 24.05 6.7 22.75 L6.8 22.65 M18.35 24.35 L18.4 24.1 18.55 24.0 18.7 24.1 18.75 24.35 18.7 24.6 18.55 24.75 18.4 24.6 18.35 24.35 M19.1 24.7 Q18.7 24.3 19.25 23.8 19.75 24.35 19.1 24.7" fill="#666666" fill-rule="evenodd" stroke="none"/>
    <path d="M2.0 17.05 Q1.95 13.85 3.05 10.9 3.7 9.25 4.6 7.75 L5.6 6.65 5.35 5.65 5.3 5.3 5.25 4.9 5.3 4.7 5.65 4.65 6.7 5.75 6.8 5.55 6.95 5.55 7.3 5.8 7.8 6.2 8.35 5.7 9.2 6.25 10.5 6.4 11.05 6.2 11.8 6.5 12.55 6.45 13.2 6.85 13.9 6.65 14.7 7.1 14.85 7.0 15.1 6.95 15.35 6.95 15.65 6.75 16.3 6.65 17.05 6.85 17.65 6.45 18.1 6.5 18.5 6.5 18.85 6.5 19.15 6.2 19.2 6.15 19.7 6.4 21.0 6.25 21.85 5.7 22.4 6.2 22.9 5.8 23.25 5.65 23.35 5.65 23.5 5.75 23.6 5.65 23.9 5.25 24.25 4.75 24.6 4.65 24.9 4.7 24.9 4.9 24.9 5.25 24.85 5.65 24.6 6.65 24.85 6.85 Q25.95 7.75 26.6 9.35 L27.55 12.65 28.25 17.05 28.2 17.1 Q27.95 18.85 26.8 19.85 27.65 17.45 26.95 15.0 L27.0 15.8 Q27.05 17.8 26.4 20.1 L26.25 19.95 25.75 20.35 Q24.35 20.6 24.2 19.85 L24.5 17.95 Q24.85 16.5 24.25 15.65 L24.2 15.65 Q24.15 17.9 23.55 20.4 L20.05 20.65 19.0 16.75 19.4 18.7 Q20.0 21.3 19.35 21.1 L18.9 20.45 17.8 19.05 Q17.05 18.0 16.55 17.9 16.7 19.7 17.25 21.35 L15.65 21.5 15.9 14.75 Q15.9 12.1 15.45 9.6 L15.45 9.65 15.5 18.95 Q15.5 21.05 15.1 21.35 L15.0 21.5 14.7 9.6 Q14.1 15.45 14.55 21.5 13.8 21.2 13.1 21.05 13.65 19.5 13.65 17.9 L12.5 19.15 10.6 21.05 11.1 16.75 10.1 20.95 6.65 20.4 5.95 15.55 5.85 15.75 Q5.3 17.7 6.05 20.15 L3.85 20.1 3.65 19.6 Q2.95 17.45 3.25 15.0 2.55 17.45 3.4 19.85 2.4 18.75 2.05 17.15 L2.0 17.05 M23.9 7.4 L24.2 6.85 24.25 6.3 24.05 6.2 23.3 6.45 Q22.3 7.0 21.4 7.6 L21.35 7.7 22.0 7.7 22.35 7.4 23.6 7.35 23.7 7.35 24.2 8.4 25.15 11.0 Q24.2 9.4 22.9 8.45 24.2 9.7 25.35 11.65 L25.55 10.9 23.9 7.4 M20.65 7.9 Q21.25 7.5 20.65 7.1 19.75 7.55 20.4 8.0 L21.6 12.8 21.45 11.1 20.65 7.9 M25.85 22.1 L25.85 22.05 25.85 22.1 M15.05 8.2 L14.7 7.75 Q14.45 8.7 14.95 8.45 L15.05 8.2 M13.75 8.0 L13.5 7.7 Q13.05 8.45 13.85 8.5 14.05 8.4 13.75 8.0 M11.85 8.35 L13.0 8.35 Q12.25 7.3 11.05 7.65 L10.85 7.4 10.5 7.2 10.65 8.2 11.7 8.3 11.5 8.65 11.1 12.05 11.15 12.15 11.4 11.9 Q11.95 10.2 11.85 8.35 M18.5 8.3 L19.55 8.2 19.85 7.7 19.55 7.1 19.15 7.65 Q17.9 7.3 17.2 8.35 L18.35 8.35 18.9 12.0 Q19.0 12.45 19.05 12.15 L19.05 12.05 18.65 8.65 18.5 8.3 M16.5 8.0 Q17.1 8.4 16.7 7.7 L16.45 7.9 Q16.05 8.25 16.5 8.0 M15.2 8.2 L15.3 8.55 15.45 8.7 15.65 8.55 15.7 8.2 15.65 7.85 15.45 7.7 15.3 7.85 15.2 8.2 M6.35 7.4 Q5.45 8.8 4.85 10.55 L4.65 11.25 4.85 11.65 Q5.55 10.3 6.6 9.2 L5.05 11.0 Q5.35 9.6 6.0 8.35 L6.55 7.35 6.6 7.35 7.85 7.4 8.25 7.7 8.85 7.7 8.1 7.1 6.0 6.3 5.95 6.5 6.0 6.85 6.35 7.4 M9.85 8.0 Q10.25 7.95 9.85 7.45 9.3 6.75 9.45 7.65 L9.55 7.9 8.8 11.05 8.6 12.8 9.85 8.0 M4.35 22.05 L4.4 22.1 4.35 22.1 4.35 22.05 M11.4 21.15 L13.35 18.25 12.4 21.05 11.4 21.15 M18.65 21.15 L17.8 21.05 16.85 18.25 18.35 20.65 18.65 21.15" fill="#ffffff" fill-rule="evenodd" stroke="none"/>
    <path d="M2.0 17.05 L2.05 17.15 Q2.4 18.75 3.4 19.85 2.55 17.45 3.25 15.0 2.95 17.45 3.65 19.6 L3.85 20.1 6.05 20.15 Q5.3 17.7 5.85 15.75 L5.95 15.55 6.65 20.4 10.1 20.95 11.1 16.75 10.6 21.05 12.5 19.15 13.65 17.9 Q13.65 19.5 13.1 21.05 13.8 21.2 14.55 21.5 14.1 15.45 14.7 9.6 L15.0 21.5 15.1 21.35 Q15.5 21.05 15.5 18.95 L15.45 9.65 15.45 9.6 Q15.9 12.1 15.9 14.75 L15.65 21.5 17.25 21.35 Q16.7 19.7 16.55 17.9 17.05 18.0 17.8 19.05 L18.9 20.45 19.35 21.1 Q20.0 21.3 19.4 18.7 L19.0 16.75 20.05 20.65 23.55 20.4 Q24.15 17.9 24.2 15.65 L24.25 15.65 Q24.85 16.5 24.5 17.95 L24.2 19.85 Q24.35 20.6 25.75 20.35 L26.25 19.95 26.4 20.1 Q27.05 17.8 27.0 15.8 L26.95 15.0 Q27.65 17.45 26.8 19.85 27.95 18.85 28.2 17.1 L28.25 17.05 Q28.25 19.25 27.25 21.3 L27.0 21.75 Q27.4 21.7 27.85 22.15 L28.0 22.5 27.6 22.3 27.5 22.35 27.4 22.5 27.4 22.65 27.55 23.1 26.25 23.05 26.2 23.35 26.2 23.5 25.8 23.85 23.9 23.5 23.7 23.95 23.3 24.1 23.0 24.1 22.7 24.55 20.5 25.1 19.45 25.2 19.1 25.5 Q18.35 25.35 18.15 24.45 15.05 24.3 12.25 24.5 L11.8 25.1 11.35 25.5 10.75 25.2 10.2 25.55 9.65 24.95 7.5 24.55 7.2 24.1 6.35 23.95 6.3 23.7 6.3 23.5 4.5 23.85 4.05 23.3 4.0 23.25 3.95 23.05 3.0 23.25 2.8 22.8 2.85 22.65 2.7 22.35 2.6 22.3 2.35 22.4 2.2 22.4 2.15 22.4 Q2.3 21.6 3.2 21.85 L3.2 21.75 Q2.2 19.7 2.0 17.05 M23.9 7.4 L25.55 10.9 25.35 11.65 Q24.2 9.7 22.9 8.45 24.2 9.4 25.15 11.0 L24.2 8.4 23.7 7.35 23.6 7.35 23.7 7.15 23.9 7.4 M20.4 8.0 L20.65 7.9 21.45 11.1 21.6 12.8 20.4 8.0 M25.85 22.1 Q25.35 21.7 25.1 22.5 L24.55 22.4 Q24.0 23.0 24.5 23.2 L24.55 23.1 Q25.2 23.0 25.4 22.35 L25.95 22.5 26.1 22.35 Q26.05 21.4 25.85 22.05 L25.85 22.1 M21.3 23.85 Q21.95 23.65 21.4 23.3 L21.25 23.35 Q20.95 23.1 20.55 23.55 19.95 24.0 20.6 24.35 L20.7 24.25 Q20.9 23.85 21.3 23.85 M23.5 22.75 L23.4 22.6 Q22.7 22.75 22.5 23.45 23.45 24.1 23.5 22.75 M11.7 8.3 L11.85 8.35 Q11.95 10.2 11.4 11.9 L11.15 12.15 11.1 12.05 11.5 8.65 11.7 8.3 M18.5 8.3 L18.65 8.65 19.05 12.05 19.05 12.15 Q19.0 12.45 18.9 12.0 L18.35 8.35 18.5 8.3 M6.55 7.35 L6.0 8.35 Q5.35 9.6 5.05 11.0 L6.6 9.2 Q5.55 10.3 4.85 11.65 L4.65 11.25 4.85 10.55 Q5.45 8.8 6.35 7.4 L6.5 7.15 6.6 7.35 6.55 7.35 M9.55 7.9 L9.8 7.9 9.85 8.0 8.6 12.8 8.8 11.05 9.55 7.9 M4.8 22.35 L5.7 23.25 5.95 23.2 Q5.9 22.05 5.1 22.5 L4.8 22.05 4.8 22.35 M4.4 22.1 L4.35 22.05 Q4.5 21.55 4.15 22.1 L4.3 22.5 4.6 22.05 4.4 22.1 M6.8 22.65 L6.7 22.75 Q6.75 24.05 7.65 23.5 7.8 23.3 7.55 23.2 7.35 22.65 6.8 22.65 M9.25 23.45 L9.0 23.5 Q8.25 23.15 8.75 24.2 L8.9 24.3 9.65 24.35 Q10.1 23.65 9.25 23.45 M11.05 24.75 Q11.5 24.25 10.9 23.8 10.5 24.15 11.05 24.75 M11.75 24.35 Q12.05 24.8 11.8 24.1 11.35 23.85 11.75 24.35 M11.4 21.15 L12.4 21.05 13.35 18.25 11.4 21.15 M18.65 21.15 L18.35 20.65 16.85 18.25 17.8 21.05 18.65 21.15 M19.1 24.7 Q19.75 24.35 19.25 23.8 18.7 24.3 19.1 24.7 M18.35 24.35 L18.4 24.6 18.55 24.75 18.7 24.6 18.75 24.35 18.7 24.1 18.55 24.0 18.4 24.1 18.35 24.35" fill="#cccccc" fill-rule="evenodd" stroke="none"/>
  </g>
</svg>
