<?xml version="1.0" encoding="UTF-8" standalone="no"?>
<svg xmlns:ffdec="https://www.free-decompiler.com/flash" xmlns:xlink="http://www.w3.org/1999/xlink" ffdec:objectType="shape" height="27.05px" width="27.8px" xmlns="http://www.w3.org/2000/svg">
  <g transform="matrix(1.0, 0.0, 0.0, 1.0, -1.15, -1.6)">
    <path d="M27.35 4.75 L27.85 6.4 27.9 6.55 28.35 8.1 28.65 9.45 28.85 11.25 28.95 13.1 28.95 14.1 28.75 15.2 28.0 17.15 26.75 18.8 Q25.9 19.7 24.9 20.0 L23.65 19.85 Q21.95 19.35 20.8 17.65 19.9 18.9 18.65 19.35 L18.2 19.25 18.1 19.95 17.95 21.9 17.9 24.0 Q17.8 25.5 18.0 27.1 L17.85 27.3 16.75 28.25 Q16.1 28.65 15.05 28.65 L14.05 28.6 Q12.7 28.4 12.1 27.1 L12.2 26.0 12.2 24.0 12.15 21.9 11.95 19.25 11.5 19.35 11.05 19.1 9.3 17.65 7.6 19.2 6.55 19.85 5.25 19.75 4.2 19.5 3.35 18.85 2.2 17.15 1.4 15.2 Q1.0 13.75 1.2 12.1 L1.35 10.35 Q1.4 9.0 1.9 7.45 L1.85 6.9 1.9 6.35 Q2.15 5.45 2.55 4.7 2.85 4.05 3.3 3.6 L4.35 2.75 5.65 2.25 7.15 1.9 8.65 1.75 10.15 1.75 11.55 1.85 12.95 2.05 14.35 2.25 16.25 2.1 18.05 1.85 19.15 1.75 20.25 1.65 22.15 1.6 23.6 1.85 Q24.5 2.0 25.35 2.5 26.0 2.85 26.55 3.45 L27.35 4.75 M25.45 3.2 Q24.75 2.65 23.95 2.4 L22.5 2.1 20.9 2.1 20.0 2.25 18.35 2.4 16.4 2.6 14.95 2.65 13.45 2.65 12.2 2.4 10.15 2.3 8.2 2.1 6.5 2.4 4.95 2.8 Q3.5 3.3 2.9 4.7 L2.2 6.25 2.05 6.85 2.05 6.9 2.45 6.15 3.7 4.95 Q4.3 4.45 5.0 4.05 L5.2 3.95 Q5.65 3.65 6.2 3.5 L7.3 3.1 8.5 3.15 10.3 3.3 11.6 3.5 Q12.6 3.55 13.15 4.35 L13.9 5.9 14.25 7.5 14.4 8.65 15.45 8.65 15.5 7.7 15.75 6.65 15.95 6.0 Q16.2 5.05 16.6 4.2 L17.1 3.6 18.75 3.35 20.3 3.15 21.55 2.95 Q22.8 2.75 24.05 3.35 24.9 3.7 25.7 4.3 L26.4 4.9 27.3 5.75 26.45 4.35 Q26.05 3.65 25.45 3.2 M22.6 5.35 L24.3 4.6 25.15 4.65 25.25 4.35 25.25 4.2 25.15 3.95 23.35 3.35 21.6 3.45 18.05 4.0 17.35 4.1 16.55 6.0 16.3 7.2 16.05 8.65 17.3 8.65 18.75 9.1 19.85 7.65 21.1 6.35 21.5 6.05 22.6 5.35 M21.5 15.55 L21.25 16.55 Q21.4 17.35 22.0 17.9 L23.05 18.75 Q23.7 19.3 24.4 19.3 25.5 19.1 26.25 18.45 27.05 17.7 27.5 16.75 L28.0 15.05 28.2 13.2 28.1 11.4 27.9 9.5 27.5 7.8 27.0 6.65 26.8 6.35 25.65 5.75 24.3 5.55 22.8 6.0 21.7 6.55 20.5 7.6 19.35 8.65 18.95 9.2 20.3 10.45 Q20.55 9.6 21.25 8.95 L22.85 7.5 Q23.75 6.9 24.75 6.4 L25.5 6.5 26.25 7.35 26.5 7.95 26.65 8.55 26.7 8.9 26.45 8.35 26.35 8.1 25.6 7.2 25.6 7.15 24.85 7.0 Q21.8 7.9 21.0 11.05 L20.9 11.5 Q21.65 13.0 21.55 14.7 23.0 13.1 22.6 10.75 L22.45 9.5 22.5 9.45 22.6 9.45 23.0 9.8 Q23.4 11.0 23.35 12.3 L23.25 13.5 23.05 14.1 22.4 14.9 Q22.1 15.15 21.65 15.2 L21.45 15.5 21.5 15.55 M17.2 25.95 L17.25 24.8 17.3 23.65 17.3 22.55 17.35 21.45 17.5 20.35 17.75 18.7 18.4 18.75 19.1 18.4 19.7 18.1 20.2 17.65 20.5 17.15 20.8 15.55 20.75 13.85 20.35 12.1 Q20.05 11.45 20.15 11.85 L20.25 12.1 19.65 11.25 18.95 10.45 17.8 9.8 15.95 9.4 14.9 9.4 13.0 9.6 11.8 10.1 10.75 10.95 Q10.25 11.45 9.9 12.1 L9.9 11.85 Q10.0 11.5 9.8 12.1 L9.35 13.85 9.3 15.55 Q9.35 16.35 9.7 17.1 L10.45 18.05 11.75 18.55 12.4 18.7 12.65 20.35 12.8 22.55 12.85 24.8 12.9 25.95 12.8 26.05 12.7 26.15 Q12.55 26.45 12.55 26.8 13.65 28.05 13.95 27.7 13.35 27.0 13.85 26.55 L14.7 27.3 14.6 27.75 14.5 27.9 14.4 27.9 14.5 27.95 15.6 27.95 15.65 27.9 15.6 27.9 15.5 27.7 15.4 27.3 16.25 26.55 16.3 26.55 Q16.75 26.9 16.35 27.45 L16.2 27.7 Q16.0 27.95 16.8 27.45 L17.55 26.8 Q17.7 26.45 17.35 26.15 L17.3 26.1 17.2 25.95 M12.15 4.05 L10.75 3.9 9.35 3.65 7.85 3.45 6.35 3.6 5.0 4.05 4.45 4.5 5.65 4.85 7.3 5.35 7.95 5.65 8.3 5.85 9.7 7.0 11.4 9.1 Q12.65 8.5 13.85 8.65 L13.55 7.0 13.25 5.85 12.65 4.7 12.15 4.05 M3.65 8.35 L3.45 8.85 3.45 8.75 3.45 8.5 3.5 7.85 Q3.7 7.3 4.2 6.85 4.7 6.3 5.35 6.4 L6.4 6.85 Q7.9 7.65 8.95 8.85 9.6 9.6 9.85 10.45 L11.2 9.2 10.75 8.65 9.65 7.6 8.35 6.65 Q7.55 6.05 6.65 5.75 L6.5 5.7 3.75 5.9 2.85 7.15 2.4 8.35 2.0 10.65 1.9 12.1 Q1.85 13.15 1.95 14.2 L2.35 15.9 3.15 17.35 3.95 18.4 Q4.5 19.0 5.2 19.2 5.95 19.5 6.7 19.0 L8.05 17.85 8.85 16.55 8.65 15.55 8.65 15.5 8.45 15.2 7.75 14.95 7.05 14.15 6.85 13.5 6.8 12.3 Q6.85 11.05 7.2 9.8 L7.5 9.45 7.6 9.45 7.6 9.5 7.55 9.65 7.55 12.5 Q7.6 13.95 8.6 14.7 8.6 13.05 9.2 11.5 L9.05 11.05 Q8.3 7.9 5.25 7.0 L4.5 7.15 3.65 8.35 M19.35 14.55 L19.75 14.75 19.8 15.55 19.75 15.85 18.75 15.8 18.5 15.6 Q18.35 15.0 18.95 14.7 L19.35 14.55 M17.1 18.8 L17.15 18.95 15.3 18.55 14.8 18.55 12.9 18.8 13.8 18.4 15.45 18.35 Q16.35 18.3 17.1 18.8 M13.85 22.45 L14.3 22.2 14.65 22.15 15.05 22.1 Q15.75 22.0 16.25 22.45 L16.2 22.5 13.85 22.45 M13.5 20.5 Q14.2 20.0 15.05 19.95 L16.05 20.15 Q17.0 20.2 16.5 20.75 L13.5 20.5 M10.4 15.85 Q10.2 15.2 10.45 14.75 L10.75 14.55 Q11.75 14.6 11.6 15.6 L11.4 15.8 10.4 15.85" fill="#65012f" fill-rule="evenodd" stroke="none"/>
    <path d="M26.45 8.35 L26.7 8.9 26.65 8.55 26.5 7.95 26.25 7.35 25.5 6.5 24.75 6.4 Q23.75 6.9 22.85 7.5 L21.25 8.95 Q20.55 9.6 20.3 10.45 L18.95 9.2 19.35 8.65 20.5 7.6 21.7 6.55 22.8 6.0 24.3 5.55 25.65 5.75 26.8 6.35 27.0 6.65 27.5 7.8 27.9 9.5 28.1 11.4 28.2 13.2 28.0 15.05 27.5 16.75 Q27.05 17.7 26.25 18.45 25.5 19.1 24.4 19.3 23.7 19.3 23.05 18.75 L22.0 17.9 Q21.4 17.35 21.25 16.55 L21.5 15.55 22.2 15.95 Q22.7 16.0 23.3 15.45 L23.45 15.15 23.9 14.15 24.25 13.1 24.6 12.0 24.75 10.9 Q24.85 9.45 25.8 8.45 L26.45 8.35 M20.35 12.1 L20.75 13.85 20.8 15.55 20.5 17.15 20.2 17.65 19.7 18.1 19.1 18.4 18.4 18.75 17.75 18.7 17.5 20.35 17.35 21.45 17.3 22.55 17.3 23.65 17.25 24.8 17.2 25.95 15.85 26.0 14.25 26.0 12.9 25.95 12.85 24.8 12.8 22.55 12.65 20.35 12.4 18.7 11.75 18.55 10.45 18.05 9.7 17.1 Q9.35 16.35 9.3 15.55 L9.35 13.85 9.8 12.1 9.9 12.1 Q10.25 11.45 10.75 10.95 L11.8 10.1 13.0 9.6 14.9 9.4 15.95 9.4 17.8 9.8 18.95 10.45 19.65 11.25 20.25 12.1 20.35 12.1 M8.65 15.55 L8.85 16.55 8.05 17.85 6.7 19.0 Q5.95 19.5 5.2 19.2 4.5 19.0 3.95 18.4 L3.15 17.35 2.35 15.9 1.95 14.2 Q1.85 13.15 1.9 12.1 L2.0 10.65 2.4 8.35 2.85 7.15 3.75 5.9 6.5 5.7 6.65 5.75 Q7.55 6.05 8.35 6.65 L9.65 7.6 10.75 8.65 11.2 9.2 9.85 10.45 Q9.6 9.6 8.95 8.85 7.9 7.65 6.4 6.85 L5.35 6.4 Q4.7 6.3 4.2 6.85 3.7 7.3 3.5 7.85 L3.45 8.5 3.45 8.75 3.45 8.85 3.65 8.35 4.3 8.45 Q5.15 9.4 5.35 10.9 L5.55 12.0 5.9 13.05 6.25 14.15 6.7 15.1 7.15 15.55 7.95 15.95 8.65 15.55 M19.35 14.55 L18.95 14.7 Q18.35 15.0 18.5 15.6 L18.75 15.8 19.75 15.85 19.8 15.55 19.75 14.75 19.35 14.55 M10.4 15.85 L11.4 15.8 11.6 15.6 Q11.75 14.6 10.75 14.55 L10.45 14.75 Q10.2 15.2 10.4 15.85 M13.5 20.5 L16.5 20.75 Q17.0 20.2 16.05 20.15 L15.05 19.95 Q14.2 20.0 13.5 20.5 M13.85 22.45 L16.2 22.5 16.25 22.45 Q15.75 22.0 15.05 22.1 L14.65 22.15 14.3 22.2 13.85 22.45 M17.1 18.8 Q16.35 18.3 15.45 18.35 L13.8 18.4 12.9 18.8 14.8 18.55 15.3 18.55 17.15 18.95 17.1 18.8" fill="#ffccff" fill-rule="evenodd" stroke="none"/>
    <path d="M25.45 3.2 Q26.05 3.65 26.45 4.35 L27.3 5.75 26.4 4.9 25.7 4.3 Q24.9 3.7 24.05 3.35 22.8 2.75 21.55 2.95 L20.3 3.15 18.75 3.35 17.1 3.6 16.6 4.2 Q16.2 5.05 15.95 6.0 L15.75 6.65 15.5 7.7 15.45 8.65 14.4 8.65 14.25 7.5 13.9 5.9 13.15 4.35 Q12.6 3.55 11.6 3.5 L10.3 3.3 8.5 3.15 7.3 3.1 6.2 3.5 Q5.65 3.65 5.2 3.95 L5.0 4.05 Q4.3 4.45 3.7 4.95 L2.45 6.15 2.05 6.9 2.05 6.85 2.2 6.25 2.9 4.7 Q3.5 3.3 4.95 2.8 L6.5 2.4 8.2 2.1 10.15 2.3 12.2 2.4 13.45 2.65 14.95 2.65 16.4 2.6 18.35 2.4 20.0 2.25 20.9 2.1 22.5 2.1 23.95 2.4 Q24.75 2.65 25.45 3.2 M21.5 15.55 L21.45 15.5 21.65 15.2 Q22.1 15.15 22.4 14.9 L23.05 14.1 23.25 13.5 23.35 12.3 Q23.4 11.0 23.0 9.8 L22.6 9.45 22.5 9.45 22.45 9.5 22.6 10.75 Q23.0 13.1 21.55 14.7 21.65 13.0 20.9 11.5 L21.0 11.05 Q21.8 7.9 24.85 7.0 L25.6 7.15 25.6 7.2 26.35 8.1 26.45 8.35 25.8 8.45 Q24.85 9.45 24.75 10.9 L24.6 12.0 24.25 13.1 23.9 14.15 23.45 15.15 23.3 15.45 Q22.7 16.0 22.2 15.95 L21.5 15.55 M12.9 25.95 L14.25 26.0 15.85 26.0 17.2 25.95 17.3 26.1 17.35 26.15 Q17.7 26.45 17.55 26.8 L16.8 27.45 Q16.0 27.95 16.2 27.7 L16.35 27.45 Q16.75 26.9 16.3 26.55 L16.25 26.55 15.4 27.3 15.5 27.7 15.6 27.9 15.6 27.95 14.5 27.95 14.5 27.9 14.6 27.75 14.7 27.3 13.85 26.55 Q13.35 27.0 13.95 27.7 13.65 28.05 12.55 26.8 12.55 26.45 12.7 26.15 L12.8 26.05 12.9 25.95 M3.65 8.35 L4.5 7.15 5.25 7.0 Q8.3 7.9 9.05 11.05 L9.2 11.5 Q8.6 13.05 8.6 14.7 7.6 13.95 7.55 12.5 L7.55 9.65 7.6 9.5 7.6 9.45 7.5 9.45 7.2 9.8 Q6.85 11.05 6.8 12.3 L6.85 13.5 7.05 14.15 7.75 14.95 8.45 15.2 8.65 15.5 8.65 15.55 7.95 15.95 7.15 15.55 6.7 15.1 6.25 14.15 5.9 13.05 5.55 12.0 5.35 10.9 Q5.15 9.4 4.3 8.45 L3.65 8.35" fill="#e19dde" fill-rule="evenodd" stroke="none"/>
  </g>
</svg>
