<?xml version="1.0" encoding="UTF-8" standalone="no"?>
<svg xmlns:ffdec="https://www.free-decompiler.com/flash" xmlns:xlink="http://www.w3.org/1999/xlink" ffdec:objectType="shape" height="26.6px" width="26.35px" xmlns="http://www.w3.org/2000/svg">
  <g transform="matrix(1.0, 0.0, 0.0, 1.0, -1.85, -1.75)">
    <path d="M12.85 2.4 L13.9 1.9 14.55 1.75 15.05 1.85 15.55 1.75 16.2 1.9 17.2 2.4 17.05 2.5 Q16.05 2.0 15.05 2.05 14.0 2.0 13.0 2.5 L12.85 2.4" fill="#666666" fill-rule="evenodd" stroke="none"/>
    <path d="M17.05 2.5 Q18.8 3.4 19.35 5.25 20.1 6.8 18.8 8.55 18.15 9.4 18.05 10.65 L17.65 14.25 Q17.45 16.05 18.05 17.7 L18.1 17.8 18.95 18.7 19.15 18.75 19.15 18.55 18.8 17.25 19.1 17.25 19.65 17.0 19.75 17.05 19.7 17.25 23.3 17.45 23.4 17.7 23.4 17.8 23.6 17.8 Q24.5 17.9 25.35 18.4 L25.55 18.8 26.2 19.15 26.3 19.7 26.2 19.85 26.1 19.9 26.25 20.15 27.4 20.95 27.2 21.45 27.65 22.35 26.7 23.35 Q26.2 23.8 26.1 23.45 L26.05 23.4 Q25.7 23.45 25.55 23.7 24.95 24.8 23.6 24.95 L23.4 24.1 23.05 24.3 21.8 25.25 Q20.75 25.75 20.35 25.1 L20.25 24.7 19.95 24.6 19.4 25.1 Q18.45 25.85 17.45 25.6 L16.45 24.8 15.55 25.35 14.55 25.35 13.6 24.8 12.6 25.6 Q11.55 25.85 10.65 25.1 L10.1 24.6 9.8 24.7 9.7 25.1 Q9.3 25.75 8.3 25.25 L7.0 24.3 6.7 24.1 6.45 24.95 Q5.1 24.8 4.5 23.7 L4.0 23.4 3.95 23.45 Q3.8 23.8 3.35 23.35 L2.4 22.35 2.85 21.45 2.7 20.95 3.85 20.15 3.95 19.9 3.9 19.85 3.8 19.7 3.9 19.15 4.5 18.8 4.7 18.4 Q5.5 17.9 6.45 17.8 L6.7 17.8 6.7 17.7 6.75 17.45 10.35 17.25 10.3 17.05 10.4 17.0 10.95 17.25 11.25 17.25 10.9 18.55 10.9 18.75 11.15 18.7 11.95 17.8 12.0 17.8 12.0 17.7 Q12.6 16.05 12.4 14.25 L12.0 10.65 Q11.9 9.4 11.25 8.55 9.9 6.8 10.7 5.25 11.25 3.4 13.0 2.5 14.0 2.0 15.05 2.05 16.05 2.0 17.05 2.5 M18.1 13.7 L18.25 11.65 Q18.45 10.15 19.15 9.0 L19.75 8.6 20.35 9.45 20.15 12.3 20.45 12.2 22.3 9.5 22.2 10.4 Q22.1 12.5 21.25 14.4 L23.75 12.25 23.5 13.2 Q23.05 14.85 21.6 16.2 L22.55 14.7 22.5 14.35 20.85 15.4 20.9 13.1 20.7 12.7 19.5 14.3 19.2 12.3 19.1 12.05 18.8 12.4 18.1 13.7 M19.35 5.25 L19.15 4.9 Q18.85 4.3 18.4 4.7 L18.15 5.0 Q17.7 5.4 18.05 5.95 L18.5 6.2 18.8 6.25 Q18.95 6.2 19.05 6.1 L19.35 5.25 M18.25 5.1 L18.4 4.85 18.65 4.75 18.95 4.85 19.05 5.1 18.95 5.35 18.65 5.45 18.4 5.35 18.25 5.1 M11.0 5.1 L11.15 4.85 11.4 4.75 11.7 4.85 11.8 5.1 11.7 5.35 11.4 5.45 11.15 5.35 11.0 5.1 M10.7 5.25 L11.0 6.1 11.25 6.25 11.55 6.2 12.0 5.95 Q12.35 5.4 11.9 5.0 L11.7 4.7 Q11.2 4.3 10.9 4.9 L10.7 5.25 M8.45 16.2 Q7.0 14.85 6.6 13.2 L6.3 12.25 8.85 14.4 Q7.95 12.5 7.85 10.4 7.75 9.95 7.8 9.5 8.45 10.95 9.6 12.2 L9.95 12.3 9.7 9.45 10.3 8.6 10.9 9.0 Q11.55 10.15 11.8 11.65 L12.0 13.7 11.25 12.4 10.95 12.05 10.85 12.3 Q10.65 13.3 10.6 14.3 L9.4 12.7 9.15 13.1 Q9.1 14.25 9.2 15.4 L7.55 14.35 Q7.45 14.55 7.5 14.7 L8.45 16.2 M12.2 8.3 Q12.75 10.35 14.1 12.45 L15.05 13.85 15.95 12.45 Q17.25 10.35 17.9 8.3 L17.55 7.5 Q16.2 6.7 15.05 6.8 13.85 6.7 12.5 7.5 L12.2 8.3" fill="#ffffff" fill-rule="evenodd" stroke="none"/>
    <path d="M14.35 7.4 L14.1 8.5 14.2 8.6 14.65 7.35 15.05 7.45 15.4 7.35 15.85 8.6 15.95 8.5 15.7 7.4 17.55 8.2 17.5 8.2 15.05 13.05 12.55 8.2 14.35 7.4" fill="#bebbb4" fill-rule="evenodd" stroke="none"/>
    <path d="M19.35 5.25 L19.05 6.1 Q18.95 6.2 18.8 6.25 L18.5 6.2 18.05 5.95 Q17.7 5.4 18.15 5.0 L18.4 4.7 Q18.85 4.3 19.15 4.9 L19.35 5.25 M18.25 5.1 L18.4 5.35 18.65 5.45 18.95 5.35 19.05 5.1 18.95 4.85 18.65 4.75 18.4 4.85 18.25 5.1 M10.7 5.25 L10.9 4.9 Q11.2 4.3 11.7 4.7 L11.9 5.0 Q12.35 5.4 12.0 5.95 L11.55 6.2 11.25 6.25 11.0 6.1 10.7 5.25 M11.0 5.1 L11.15 5.35 11.4 5.45 11.7 5.35 11.8 5.1 11.7 4.85 11.4 4.75 11.15 4.85 11.0 5.1 M14.65 7.35 L14.2 8.6 14.1 8.5 14.35 7.4 14.65 7.35 M15.7 7.4 L15.95 8.5 15.85 8.6 15.4 7.35 15.7 7.4" fill="#333333" fill-rule="evenodd" stroke="none"/>
    <path d="M27.65 22.35 Q28.15 22.05 27.8 22.65 L27.5 23.5 27.0 25.35 26.55 25.85 24.15 26.7 20.5 27.65 16.2 27.75 15.05 27.7 13.9 27.75 9.55 27.65 5.9 26.7 3.5 25.85 Q3.1 25.6 3.05 25.35 L2.55 23.5 2.25 22.65 Q1.9 22.05 2.4 22.35 L3.35 23.35 Q3.8 23.8 3.95 23.45 L4.0 23.4 4.5 23.7 Q5.1 24.8 6.45 24.95 L6.7 24.1 7.0 24.3 8.3 25.25 Q9.3 25.75 9.7 25.1 L9.8 24.7 10.1 24.6 10.65 25.1 Q11.55 25.85 12.6 25.6 L13.6 24.8 14.55 25.35 15.55 25.35 16.45 24.8 17.45 25.6 Q18.45 25.85 19.4 25.1 L19.95 24.6 20.25 24.7 20.35 25.1 Q20.75 25.75 21.8 25.25 L23.05 24.3 23.4 24.1 23.6 24.95 Q24.95 24.8 25.55 23.7 25.7 23.45 26.05 23.4 L26.1 23.45 Q26.2 23.8 26.7 23.35 L27.65 22.35 M18.1 13.7 L18.8 12.4 19.1 12.05 19.2 12.3 19.5 14.3 20.7 12.7 20.9 13.1 20.85 15.4 22.5 14.35 22.55 14.7 21.6 16.2 20.8 16.65 Q20.4 16.8 19.9 16.4 L18.4 16.85 18.05 15.1 Q17.95 14.35 18.1 13.7 M12.0 13.7 L12.0 15.1 11.7 16.85 10.15 16.4 Q9.65 16.8 9.25 16.65 L8.45 16.2 7.5 14.7 Q7.45 14.55 7.55 14.35 L9.2 15.4 Q9.1 14.25 9.15 13.1 L9.4 12.7 10.6 14.3 Q10.65 13.3 10.85 12.3 L10.95 12.05 11.25 12.4 12.0 13.7" fill="#cdd5e7" fill-rule="evenodd" stroke="none"/>
    <path d="M17.2 2.4 Q19.4 3.7 20.05 6.1 L20.05 7.2 19.8 7.65 19.5 8.2 20.05 8.1 20.95 9.25 21.05 10.5 Q21.2 9.4 22.2 9.0 L22.5 9.2 23.0 9.65 22.6 12.5 23.6 11.7 24.35 11.85 Q24.45 14.7 22.0 16.55 24.55 16.85 26.35 18.65 L26.85 19.45 Q27.1 20.25 27.6 20.75 L28.0 21.4 28.2 23.4 28.0 24.05 Q28.15 26.4 25.5 27.1 L21.0 27.85 18.4 28.3 15.05 28.35 11.7 28.3 9.05 27.85 4.55 27.1 Q1.9 26.4 2.1 24.05 L1.85 23.4 Q1.9 22.4 2.1 21.4 2.2 20.95 2.45 20.75 L3.25 19.45 Q3.35 19.0 3.7 18.65 5.45 16.85 8.05 16.55 5.55 14.7 5.7 11.85 L6.45 11.7 7.45 12.5 7.05 9.65 7.55 9.2 Q7.65 9.05 7.85 9.0 8.8 9.4 9.0 10.5 L9.1 9.25 10.05 8.1 10.6 8.2 10.25 7.65 10.05 7.2 Q9.9 6.65 10.05 6.1 10.6 3.7 12.85 2.4 L13.0 2.5 Q11.25 3.4 10.7 5.25 9.9 6.8 11.25 8.55 11.9 9.4 12.0 10.65 L12.4 14.25 Q12.6 16.05 12.0 17.7 L11.95 17.8 11.15 18.7 10.9 18.75 10.9 18.55 11.25 17.25 10.95 17.25 10.4 17.0 10.3 17.05 10.35 17.25 6.75 17.45 6.7 17.7 6.7 17.8 6.45 17.8 Q5.5 17.9 4.7 18.4 L4.5 18.8 3.9 19.15 3.8 19.7 3.9 19.85 3.95 19.9 3.85 20.15 2.7 20.95 2.85 21.45 2.4 22.35 Q1.9 22.05 2.25 22.65 L2.55 23.5 3.05 25.35 Q3.1 25.6 3.5 25.85 L5.9 26.7 9.55 27.65 13.9 27.75 15.05 27.7 16.2 27.75 20.5 27.65 24.15 26.7 26.55 25.85 27.0 25.35 27.5 23.5 27.8 22.65 Q28.15 22.05 27.65 22.35 L27.2 21.45 27.4 20.95 26.25 20.15 26.1 19.9 26.2 19.85 26.3 19.7 26.2 19.15 25.55 18.8 25.35 18.4 Q24.5 17.9 23.6 17.8 L23.4 17.8 23.4 17.7 23.3 17.45 19.7 17.25 19.75 17.05 19.65 17.0 19.1 17.25 18.8 17.25 19.15 18.55 19.15 18.75 18.95 18.7 18.1 17.8 18.05 17.7 Q17.45 16.05 17.65 14.25 L18.05 10.65 Q18.15 9.4 18.8 8.55 20.1 6.8 19.35 5.25 18.8 3.4 17.05 2.5 L17.2 2.4 M21.6 16.2 Q23.05 14.85 23.5 13.2 L23.75 12.25 21.25 14.4 Q22.1 12.5 22.2 10.4 L22.3 9.5 20.45 12.2 20.15 12.3 20.35 9.45 19.75 8.6 19.15 9.0 Q18.45 10.15 18.25 11.65 L18.1 13.7 Q17.95 14.35 18.05 15.1 L18.4 16.85 19.9 16.4 Q20.4 16.8 20.8 16.65 L21.6 16.2 M12.0 13.7 L11.8 11.65 Q11.55 10.15 10.9 9.0 L10.3 8.6 9.7 9.45 9.95 12.3 9.6 12.2 Q8.45 10.95 7.8 9.5 7.75 9.95 7.85 10.4 7.95 12.5 8.85 14.4 L6.3 12.25 6.6 13.2 Q7.0 14.85 8.45 16.2 L9.25 16.65 Q9.65 16.8 10.15 16.4 L11.7 16.85 12.0 15.1 12.0 13.7" fill="#313566" fill-rule="evenodd" stroke="none"/>
    <path d="M14.35 7.4 L12.55 8.2 15.05 13.05 17.5 8.2 17.55 8.2 15.7 7.4 15.4 7.35 15.05 7.45 14.65 7.35 14.35 7.4 M12.2 8.3 L12.5 7.5 Q13.85 6.7 15.05 6.8 16.2 6.7 17.55 7.5 L17.9 8.3 Q17.25 10.35 15.95 12.45 L15.05 13.85 14.1 12.45 Q12.75 10.35 12.2 8.3 M12.55 8.2 L12.5 8.2 12.55 8.2" fill="#3a3832" fill-rule="evenodd" stroke="none"/>
  </g>
</svg>
