<?xml version="1.0" encoding="UTF-8" standalone="no"?>
<svg xmlns:ffdec="https://www.free-decompiler.com/flash" xmlns:xlink="http://www.w3.org/1999/xlink" ffdec:objectType="shape" height="24.4px" width="27.0px" xmlns="http://www.w3.org/2000/svg">
  <g transform="matrix(1.0, 0.0, 0.0, 1.0, -1.6, -3.2)">
    <path d="M6.1 5.65 L2.8 5.75 Q3.3 5.2 4.05 5.35 10.65 4.85 17.2 5.0 L20.95 5.05 24.2 5.2 25.95 5.35 26.45 5.4 27.05 5.65 23.9 5.65 22.55 5.65 17.8 5.55 17.8 8.4 17.8 8.7 17.75 10.25 17.7 10.8 17.7 14.6 17.6 15.35 17.05 16.15 18.3 18.15 Q19.25 19.95 19.1 22.25 L18.25 24.25 17.3 25.65 Q15.45 27.0 13.65 26.2 L12.8 25.7 Q11.25 24.45 10.95 22.25 L10.9 21.85 Q10.8 19.7 11.6 17.95 12.7 15.55 14.85 15.5 L14.75 11.0 14.9 5.4 7.5 5.65 6.1 5.65 M21.2 21.5 L23.5 17.7 23.75 17.25 24.25 16.5 25.25 14.85 Q26.2 13.15 27.45 11.9 L27.5 12.0 26.95 12.65 25.9 14.1 24.9 15.75 23.9 17.55 22.85 19.25 21.8 21.1 19.2 25.35 21.1 23.1 23.35 19.8 24.35 18.2 25.0 17.2 26.6 14.95 27.45 13.35 27.95 12.55 27.5 5.2 27.05 4.8 24.7 4.15 21.6 4.05 Q14.95 3.7 8.4 3.9 L4.4 4.35 4.1 4.45 3.45 4.65 2.95 4.7 2.95 4.8 2.85 4.8 2.5 5.2 2.1 12.55 2.55 13.4 6.65 19.8 6.85 20.15 Q7.95 22.35 9.5 24.05 L10.85 25.35 8.2 21.1 6.45 18.0 Q4.65 14.85 2.5 11.9 L2.55 11.9 4.3 13.95 6.6 17.6 8.85 21.5 11.35 25.2 12.0 26.05 14.0 26.6 17.05 26.45 18.55 25.75 21.2 21.5 M27.45 4.35 L27.65 4.35 Q28.35 5.05 28.3 6.35 L28.3 9.4 28.45 11.05 28.6 12.8 27.9 14.05 27.1 15.15 26.15 16.65 25.15 18.1 24.15 19.85 Q22.45 22.95 20.05 25.45 L18.55 26.6 17.5 27.2 13.8 27.5 Q12.0 27.35 10.65 26.25 9.55 25.4 8.55 23.9 L4.65 17.8 2.0 13.75 1.8 13.5 1.6 12.35 Q1.65 9.3 1.85 6.35 L2.0 4.8 Q2.2 4.35 2.5 4.25 L3.0 4.1 6.15 3.55 9.1 3.25 10.5 3.25 15.0 3.35 19.5 3.25 23.95 3.7 26.45 3.9 27.35 4.3 27.45 4.35 M17.45 8.85 L17.45 8.65 17.55 5.55 15.1 5.4 15.25 11.0 15.2 15.5 16.85 15.55 17.2 14.75 17.0 11.35 16.95 11.0 17.35 10.35 17.45 8.85 M16.45 20.85 L16.6 20.3 16.65 18.5 Q16.4 17.6 15.55 17.35 14.2 16.9 13.35 18.45 L13.45 20.3 13.5 20.45 13.6 20.85 13.8 21.15 Q15.25 22.25 16.45 20.85 M18.45 21.6 Q18.75 18.7 16.9 17.2 L16.25 16.8 Q17.6 18.0 17.3 19.95 L17.05 21.05 Q16.3 23.3 14.3 22.75 13.35 22.35 13.0 21.25 L12.95 21.05 12.75 19.95 Q12.55 17.95 13.8 16.8 13.4 16.9 13.1 17.2 11.35 18.7 11.55 21.6 11.45 24.0 13.45 24.55 L16.55 24.6 Q17.35 24.4 18.0 23.55 18.5 22.85 18.45 21.6" fill="#313566" fill-rule="evenodd" stroke="none"/>
    <path d="M23.9 5.65 L27.05 5.65 26.45 5.4 25.95 5.35 24.2 5.2 20.95 5.05 17.2 5.0 Q10.65 4.85 4.05 5.35 3.3 5.2 2.8 5.75 L6.1 5.65 8.45 7.0 11.6 8.4 13.35 9.3 9.7 6.75 7.5 5.65 14.9 5.4 14.75 11.0 14.85 15.5 Q12.7 15.55 11.6 17.95 10.8 19.7 10.9 21.85 L10.95 22.25 Q9.95 21.55 8.85 21.3 L8.85 21.5 6.6 17.6 4.3 13.95 2.55 11.9 2.5 11.9 Q4.65 14.85 6.45 18.0 L8.2 21.1 6.65 19.8 2.55 13.4 2.1 12.55 2.5 5.2 2.85 4.8 2.95 4.8 2.95 4.7 3.45 4.65 4.1 4.45 4.4 4.35 8.4 3.9 Q14.95 3.7 21.6 4.05 L24.7 4.15 27.05 4.8 27.5 5.2 27.95 12.55 27.45 13.35 26.6 14.95 25.0 17.2 24.35 18.2 23.35 19.8 21.8 21.1 22.85 19.25 23.9 17.55 24.9 15.75 25.9 14.1 26.95 12.65 27.5 12.0 27.45 11.9 Q26.2 13.15 25.25 14.85 L24.25 16.5 23.75 17.25 23.5 17.7 21.2 21.5 21.05 21.25 Q20.05 21.7 19.1 22.25 19.25 19.95 18.3 18.15 L17.05 16.15 17.6 15.35 Q19.4 13.35 21.45 12.25 L25.25 9.65 25.65 9.45 25.75 9.4 17.75 10.25 17.8 8.7 21.55 7.0 23.9 5.65 M14.75 11.0 L12.25 10.25 9.3 9.8 6.4 9.3 4.25 9.4 4.55 9.5 4.8 9.8 7.1 11.35 Q9.9 13.25 12.8 15.7 L12.25 14.85 10.1 12.95 6.85 10.75 5.45 9.65 9.9 10.35 12.6 10.9 13.6 11.25 Q14.15 11.5 14.75 11.0 M22.55 5.65 L20.35 6.75 17.8 8.4 17.8 5.55 22.55 5.65 M22.1 17.2 L23.15 16.15 19.15 19.05 19.2 20.2 21.25 20.15 21.25 20.0 21.2 19.65 Q20.25 19.4 19.5 19.65 L19.5 19.45 19.45 19.25 22.1 17.2 M17.45 8.85 L17.35 10.35 15.25 11.0 15.1 5.4 17.55 5.55 17.45 8.65 16.65 9.3 17.45 8.85 M16.95 11.0 L17.0 11.35 17.2 14.75 16.85 15.55 15.2 15.5 15.25 11.0 16.05 11.1 16.95 11.0 M17.7 10.8 L24.55 9.65 17.7 14.6 17.7 10.8 M8.85 19.65 L8.85 19.95 9.7 20.4 10.65 20.35 10.95 19.65 10.85 19.05 6.8 16.15 10.55 19.25 10.5 19.65 9.15 19.6 8.85 19.65 M13.45 20.3 L13.5 20.35 13.5 20.45 13.45 20.3 M13.6 20.85 L13.75 20.1 Q13.95 18.65 15.0 18.45 L16.0 19.05 Q16.45 19.95 16.35 20.85 L16.45 20.85 Q15.25 22.25 13.8 21.15 L13.6 20.85 M17.05 21.05 L17.3 19.95 Q17.6 18.0 16.25 16.8 L16.9 17.2 Q18.75 18.7 18.45 21.6 L18.2 21.7 17.05 21.05 M11.55 21.6 Q11.35 18.7 13.1 17.2 13.4 16.9 13.8 16.8 12.55 17.95 12.75 19.95 L12.95 21.05 Q12.3 22.15 11.65 21.65 L11.55 21.6" fill="#c1c7e1" fill-rule="evenodd" stroke="none"/>
    <path d="M23.9 5.65 L21.55 7.0 17.8 8.7 17.8 8.4 20.35 6.75 22.55 5.65 23.9 5.65 M17.75 10.25 L25.75 9.4 25.65 9.45 25.25 9.65 21.45 12.25 Q19.4 13.35 17.6 15.35 L17.7 14.6 24.55 9.65 17.7 10.8 17.75 10.25 M19.1 22.25 Q20.05 21.7 21.05 21.25 L21.2 21.5 18.55 25.75 17.05 26.45 14.0 26.6 12.0 26.05 11.35 25.2 8.85 21.5 8.85 21.3 Q9.95 21.55 10.95 22.25 11.25 24.45 12.8 25.7 L13.65 26.2 Q15.45 27.0 17.3 25.65 L18.25 24.25 19.1 22.25 M21.8 21.1 L23.35 19.8 21.1 23.1 19.2 25.35 21.8 21.1 M6.65 19.8 L8.2 21.1 10.85 25.35 9.5 24.05 Q7.95 22.35 6.85 20.15 L6.65 19.8 M14.75 11.0 Q14.15 11.5 13.6 11.25 L12.6 10.9 9.9 10.35 5.45 9.65 6.85 10.75 10.1 12.95 12.25 14.85 12.8 15.7 Q9.9 13.25 7.1 11.35 L4.8 9.8 4.55 9.5 4.25 9.4 6.4 9.3 9.3 9.8 12.25 10.25 14.75 11.0 M7.5 5.65 L9.7 6.75 13.35 9.3 11.6 8.4 8.45 7.0 6.1 5.65 7.5 5.65 M22.1 17.2 L19.45 19.25 19.5 19.45 19.5 19.65 Q20.25 19.4 21.2 19.65 L21.25 20.0 21.25 20.15 19.2 20.2 19.15 19.05 23.15 16.15 22.1 17.2 M17.45 8.65 L17.45 8.85 16.65 9.3 17.45 8.65 M17.35 10.35 L16.95 11.0 16.05 11.1 15.25 11.0 17.35 10.35 M8.85 19.65 L9.15 19.6 10.5 19.65 10.55 19.25 6.8 16.15 10.85 19.05 10.95 19.65 10.65 20.35 9.7 20.4 8.85 19.95 8.85 19.65 M13.45 20.3 L13.35 18.45 Q14.2 16.9 15.55 17.35 16.4 17.6 16.65 18.5 L16.6 20.3 16.45 20.85 16.35 20.85 Q16.45 19.95 16.0 19.05 L15.0 18.45 Q13.95 18.65 13.75 20.1 L13.6 20.85 13.5 20.45 13.5 20.35 13.45 20.3 M17.05 21.05 L18.2 21.7 18.45 21.6 Q18.5 22.85 18.0 23.55 17.35 24.4 16.55 24.6 L13.45 24.55 Q11.45 24.0 11.55 21.6 L11.65 21.65 Q12.3 22.15 12.95 21.05 L13.0 21.25 Q13.35 22.35 14.3 22.75 16.3 23.3 17.05 21.05" fill="#8993c5" fill-rule="evenodd" stroke="none"/>
  </g>
</svg>
