<?xml version="1.0" encoding="UTF-8" standalone="no"?>
<svg xmlns:ffdec="https://www.free-decompiler.com/flash" xmlns:xlink="http://www.w3.org/1999/xlink" ffdec:objectType="shape" height="27.55px" width="28.25px" xmlns="http://www.w3.org/2000/svg">
  <g transform="matrix(1.0, 0.0, 0.0, 1.0, -0.95, -1.35)">
    <path d="M27.15 5.3 L27.45 4.75 26.45 3.5 15.8 2.55 15.05 2.2 14.25 2.55 3.6 3.5 2.8 4.4 2.6 4.8 2.8 5.2 2.8 5.25 3.0 5.1 Q3.3 4.15 4.3 3.95 L5.9 3.9 7.5 3.55 9.05 3.5 10.45 3.35 11.95 3.25 13.35 3.1 14.4 3.1 15.35 3.1 16.4 3.1 18.2 3.15 19.75 3.35 21.5 3.5 22.95 3.65 24.65 3.95 25.9 4.0 Q26.9 4.15 27.15 5.35 L27.15 5.3 M27.5 3.3 L28.0 4.2 27.7 5.8 27.6 6.2 27.4 6.2 27.15 6.2 27.2 6.35 27.55 7.5 Q28.3 9.7 28.65 12.1 L28.95 12.3 29.0 12.35 29.2 13.15 27.55 15.4 24.65 20.1 23.2 22.3 22.2 24.15 20.65 27.05 20.0 27.9 19.55 27.9 17.4 28.65 11.6 28.35 Q11.05 28.05 10.5 27.9 10.25 28.0 9.9 27.7 L9.6 27.25 7.9 24.05 6.4 21.55 4.8 19.1 2.55 15.35 1.0 13.4 0.95 12.8 1.0 12.35 1.4 12.1 2.1 8.6 2.85 6.2 2.6 6.1 Q2.0 5.25 2.0 4.25 L2.2 3.9 3.15 3.1 3.6 2.7 5.55 2.45 6.1 2.0 7.5 1.75 7.95 2.15 8.55 2.05 8.95 1.7 10.6 1.45 11.05 1.75 11.45 1.55 12.15 1.75 12.8 1.35 13.25 1.75 17.25 1.35 Q17.7 2.0 18.25 1.9 L19.0 1.75 19.5 1.45 22.15 2.15 22.35 1.9 22.55 1.75 24.35 2.45 Q25.8 2.2 27.1 3.25 L27.5 3.3 M28.3 12.25 L26.95 6.45 26.95 6.4 26.95 6.35 Q26.95 5.5 26.1 4.9 25.25 4.3 24.45 4.0 L23.4 3.9 22.4 3.9 21.2 3.9 20.2 3.95 19.25 4.2 18.1 4.35 16.95 4.45 15.3 4.8 13.8 4.85 12.7 4.85 18.6 3.9 17.35 4.0 18.65 3.75 4.35 4.4 3.85 4.9 3.65 5.0 3.6 5.2 3.35 5.9 3.15 6.15 3.05 6.1 3.05 6.3 2.75 8.1 2.5 9.25 1.9 11.6 1.75 12.15 2.2 12.5 2.4 12.6 2.35 11.35 Q2.4 10.0 2.9 8.8 2.95 8.7 3.0 8.75 L2.9 10.15 2.75 11.45 2.75 11.75 2.75 11.9 2.95 12.7 3.0 12.75 4.35 12.95 Q4.95 12.65 5.55 12.5 L6.9 12.35 8.65 12.25 10.45 12.1 12.15 12.1 13.65 12.25 14.95 12.3 16.25 12.3 17.6 12.3 18.15 12.3 18.8 12.3 20.1 12.3 22.05 12.15 22.7 12.15 24.4 12.05 26.55 12.1 27.55 12.35 27.6 12.4 23.9 12.35 22.7 17.4 22.15 19.85 21.55 21.8 21.5 22.05 21.6 21.85 Q22.0 20.55 22.55 19.8 L23.25 18.45 Q23.75 17.45 24.4 16.6 L25.2 15.4 Q25.55 14.75 26.2 14.15 L26.6 13.9 27.15 13.5 27.65 12.75 27.55 12.95 26.5 14.75 26.25 15.2 26.1 15.4 24.75 17.4 22.45 21.1 21.45 22.65 21.4 22.65 20.65 24.0 20.15 25.05 19.75 26.5 20.05 26.5 20.75 25.7 21.9 23.55 23.1 21.75 24.3 19.8 25.15 18.45 26.25 16.75 27.25 15.0 Q27.75 14.25 28.45 13.8 L28.55 12.85 28.15 12.5 28.0 12.4 28.3 12.25 M3.45 11.6 L3.35 11.3 3.1 10.35 3.45 9.4 3.85 9.1 4.7 9.5 4.9 10.05 Q5.15 11.0 4.65 11.7 L3.85 11.95 3.45 11.6 M19.25 10.75 L20.95 10.7 22.0 10.75 23.05 10.85 24.85 11.2 26.35 11.6 28.1 12.05 19.25 10.75 M20.9 22.5 L21.65 20.4 22.0 19.0 22.35 17.6 22.7 16.15 23.05 14.7 23.45 13.1 23.55 12.75 23.65 12.5 23.2 12.4 22.7 13.95 22.1 15.8 21.55 17.45 20.85 19.65 19.9 21.85 19.75 22.25 19.75 21.95 19.75 21.75 Q20.05 20.4 20.5 19.15 21.1 17.2 21.85 15.2 L22.4 13.9 23.05 12.4 20.75 12.55 20.2 14.15 Q19.75 16.25 18.95 18.1 L18.85 18.1 19.8 14.5 20.35 12.8 19.55 12.6 17.75 12.7 16.0 12.7 14.2 12.6 12.4 12.6 10.65 12.6 11.5 14.8 12.6 17.8 10.4 13.1 10.1 12.85 8.05 12.7 8.6 14.3 9.0 15.6 9.1 16.0 Q9.45 18.0 10.3 20.0 9.85 18.1 9.9 16.35 L10.15 17.5 10.4 18.9 10.55 20.3 10.55 20.55 10.5 20.55 9.85 19.4 9.4 18.2 9.0 16.8 8.6 15.4 8.1 13.5 7.75 13.0 Q7.25 12.65 6.65 12.75 L6.25 12.85 6.8 14.5 7.05 15.25 7.7 17.6 8.15 19.15 8.45 20.55 9.15 22.75 9.35 23.15 9.75 24.4 10.25 25.15 10.5 25.55 10.65 27.1 12.8 27.9 13.85 28.15 14.9 28.2 15.05 28.2 17.3 27.9 19.5 27.1 Q19.25 25.5 20.3 24.4 L20.65 23.0 20.7 22.95 20.85 22.7 20.9 22.5 M5.15 6.45 L5.4 6.9 7.0 6.85 6.8 7.2 Q6.2 7.8 5.45 7.65 L5.1 8.55 4.55 8.6 4.2 8.55 4.1 8.55 Q3.55 8.4 3.65 7.45 3.7 6.85 3.9 6.35 L4.1 6.0 4.9 6.2 6.55 5.0 5.15 6.4 5.15 6.45 M4.85 6.9 L4.4 6.55 4.05 7.05 4.15 7.7 4.35 7.95 4.95 7.4 5.05 7.3 4.85 6.9 M4.55 10.5 L4.3 9.85 3.75 9.9 3.6 10.5 3.75 11.0 4.05 11.25 Q4.6 11.05 4.55 10.5 M7.2 16.75 Q6.75 14.95 6.15 13.7 5.95 13.2 6.25 12.85 L4.9 13.2 4.1 13.25 3.55 13.25 3.45 13.85 3.45 13.9 4.85 15.4 5.55 16.3 Q5.9 17.25 6.5 18.0 L7.1 18.9 7.5 19.8 8.0 20.7 8.35 21.6 8.7 22.3 8.4 21.0 8.05 19.6 7.65 18.2 7.2 16.75 M8.75 22.9 L8.15 21.85 7.1 20.4 5.25 17.45 4.2 15.85 3.95 15.4 3.8 15.2 2.95 13.9 2.35 13.0 2.15 12.7 1.9 12.55 1.7 12.6 1.5 12.85 Q1.55 13.55 2.25 14.45 L3.35 16.0 4.4 17.65 5.3 19.2 6.45 20.9 7.0 21.8 8.2 23.65 8.7 24.7 10.05 26.6 10.35 26.5 10.3 26.25 9.45 24.2 8.75 22.9" fill="#313566" fill-rule="evenodd" stroke="none"/>
    <path d="M27.15 5.3 L27.15 5.35 Q26.9 4.15 25.9 4.0 L24.65 3.95 22.95 3.65 21.5 3.5 19.75 3.35 18.2 3.15 16.4 3.1 15.35 3.1 14.4 3.1 13.35 3.1 11.95 3.25 10.45 3.35 9.05 3.5 7.5 3.55 5.9 3.9 4.3 3.95 Q3.3 4.15 3.0 5.1 L2.8 5.25 2.8 5.2 2.6 4.8 2.8 4.4 3.6 3.5 14.25 2.55 15.05 2.2 15.8 2.55 26.45 3.5 27.45 4.75 27.15 5.3 M1.9 11.6 Q2.0 11.05 2.3 11.25 L2.35 11.35 2.4 12.6 2.2 12.5 1.75 12.15 1.9 11.6 M2.75 11.45 L3.45 11.6 3.85 11.95 4.65 11.7 19.25 10.75 28.1 12.05 28.3 12.25 28.0 12.4 27.65 12.75 27.15 13.5 26.6 13.9 26.2 14.15 25.85 13.7 24.6 13.5 24.6 13.6 Q23.6 15.05 22.85 17.25 L22.7 17.4 23.9 12.35 27.6 12.4 27.55 12.35 26.55 12.1 24.4 12.05 22.7 12.15 22.05 12.15 20.1 12.3 18.8 12.3 18.15 12.3 17.6 12.3 16.25 12.3 14.95 12.3 13.65 12.25 12.15 12.1 10.45 12.1 8.65 12.25 6.9 12.35 5.55 12.5 Q4.95 12.65 4.35 12.95 L3.0 12.75 2.95 12.7 2.75 11.9 2.75 11.75 2.75 11.45 M21.9 23.55 L20.75 25.7 20.05 26.5 19.75 26.5 20.15 25.05 20.65 24.0 21.4 22.65 21.9 23.55 M23.45 13.1 L22.8 13.95 22.7 13.95 23.2 12.4 23.65 12.5 23.55 12.75 23.45 13.1 M22.4 13.9 L20.75 13.15 20.2 14.15 20.75 12.55 23.05 12.4 22.4 13.9 M19.8 14.5 L19.3 14.3 Q18.65 13.65 17.7 13.8 L16.15 13.5 14.45 13.65 12.7 14.15 Q11.9 14.5 11.5 14.8 L10.65 12.6 12.4 12.6 14.2 12.6 16.0 12.7 17.75 12.7 19.55 12.6 20.35 12.8 19.8 14.5 M10.4 13.1 L9.55 13.85 10.15 17.5 9.9 16.35 Q9.85 18.1 10.3 20.0 9.45 18.0 9.1 16.0 L9.0 15.6 8.6 14.3 8.05 12.7 10.1 12.85 10.4 13.1 M8.1 13.5 L6.75 13.8 6.8 14.5 6.25 12.85 6.65 12.75 Q7.25 12.65 7.75 13.0 L8.1 13.5 M9.15 22.75 L9.5 22.65 11.0 23.3 12.4 23.8 14.25 23.8 15.2 23.8 16.2 23.8 18.0 23.6 19.25 23.15 Q20.05 22.7 20.9 22.5 L20.85 22.7 20.7 22.95 20.65 22.95 20.65 23.0 20.3 24.4 Q19.25 25.5 19.5 27.1 L17.3 27.9 15.05 28.2 14.9 28.2 13.85 28.15 12.8 27.9 10.65 27.1 10.5 25.55 10.25 25.15 9.75 24.4 9.35 23.15 9.15 22.75 M7.2 16.75 L7.05 16.6 6.3 14.9 Q5.9 13.85 5.5 15.2 L5.6 16.05 5.55 16.3 4.85 15.4 3.45 13.9 3.45 13.85 3.55 13.25 4.1 13.25 4.9 13.2 6.25 12.85 Q5.95 13.2 6.15 13.7 6.75 14.95 7.2 16.75 M8.75 22.9 L9.45 24.2 10.3 26.25 10.35 26.5 10.05 26.6 8.7 24.7 8.2 23.65 8.6 23.45 8.75 22.9" fill="#949dcb" fill-rule="evenodd" stroke="none"/>
    <path d="M1.9 11.6 L2.5 9.25 2.75 8.1 3.05 6.3 3.05 6.1 3.15 6.15 3.35 5.9 3.6 5.2 3.65 5.0 3.85 4.9 4.35 4.4 18.65 3.75 17.35 4.0 18.6 3.9 12.7 4.85 13.8 4.85 15.3 4.8 16.95 4.45 18.1 4.35 19.25 4.2 20.2 3.95 21.2 3.9 22.4 3.9 23.4 3.9 24.45 4.0 Q25.25 4.3 26.1 4.9 26.95 5.5 26.95 6.35 L26.95 6.4 26.95 6.45 28.3 12.25 28.1 12.05 26.35 11.6 24.85 11.2 23.05 10.85 22.0 10.75 20.95 10.7 19.25 10.75 4.65 11.7 Q5.15 11.0 4.9 10.05 L4.7 9.5 3.85 9.1 3.45 9.4 3.1 10.35 3.35 11.3 3.45 11.6 2.75 11.45 2.9 10.15 3.0 8.75 Q2.95 8.7 2.9 8.8 2.4 10.0 2.35 11.35 L2.3 11.25 Q2.0 11.05 1.9 11.6 M28.0 12.4 L28.15 12.5 28.55 12.85 28.45 13.8 Q27.75 14.25 27.25 15.0 L26.25 16.75 25.15 18.45 24.3 19.8 23.1 21.75 21.9 23.55 21.4 22.65 21.45 22.65 22.45 21.1 24.75 17.4 26.1 15.4 26.25 15.2 26.5 14.75 27.55 12.95 27.65 12.75 28.0 12.4 M26.2 14.15 Q25.55 14.75 25.2 15.4 L24.4 16.6 Q23.75 17.45 23.25 18.45 L22.55 19.8 Q22.0 20.55 21.6 21.85 L21.55 21.8 22.15 19.85 22.7 17.4 22.85 17.25 Q23.6 15.05 24.6 13.6 L24.6 13.5 25.85 13.7 26.2 14.15 M23.45 13.1 L23.05 14.7 22.7 16.15 22.35 17.6 22.0 19.0 21.65 20.4 20.9 22.5 Q20.05 22.7 19.25 23.15 L18.0 23.6 16.2 23.8 15.2 23.8 14.25 23.8 12.4 23.8 11.0 23.3 9.5 22.65 9.15 22.75 8.45 20.55 8.15 19.15 7.7 17.6 7.05 15.25 6.8 14.5 6.75 13.8 8.1 13.5 8.6 15.4 9.0 16.8 9.4 18.2 9.85 19.4 10.5 20.55 10.55 20.55 10.55 20.3 10.4 18.9 10.15 17.5 9.55 13.85 10.4 13.1 12.6 17.8 11.5 14.8 Q11.9 14.5 12.7 14.15 L14.45 13.65 16.15 13.5 17.7 13.8 Q18.65 13.65 19.3 14.3 L19.8 14.5 18.85 18.1 18.95 18.1 Q19.75 16.25 20.2 14.15 L20.75 13.15 22.4 13.9 21.85 15.2 Q21.1 17.2 20.5 19.15 20.05 20.4 19.75 21.75 L19.75 21.95 19.75 22.25 19.9 21.85 20.85 19.65 21.55 17.45 22.1 15.8 22.7 13.95 22.8 13.95 23.45 13.1 M20.7 22.95 L20.65 23.0 20.65 22.95 20.7 22.95 M5.15 6.4 L6.55 5.0 4.9 6.2 4.1 6.0 3.9 6.35 Q3.7 6.85 3.65 7.45 3.55 8.4 4.1 8.55 L4.2 8.55 4.55 8.6 5.1 8.55 5.45 7.65 Q6.2 7.8 6.8 7.2 L7.0 6.85 5.4 6.9 5.15 6.45 5.15 6.4 M5.55 16.3 L5.6 16.05 5.5 15.2 Q5.9 13.85 6.3 14.9 L7.05 16.6 7.2 16.75 7.65 18.2 8.05 19.6 8.4 21.0 8.7 22.3 8.35 21.6 8.0 20.7 7.5 19.8 7.1 18.9 6.5 18.0 Q5.9 17.25 5.55 16.3 M8.2 23.65 L7.0 21.8 6.45 20.9 5.3 19.2 4.4 17.65 3.35 16.0 2.25 14.45 Q1.55 13.55 1.5 12.85 L1.7 12.6 1.9 12.55 2.15 12.7 2.35 13.0 2.95 13.9 3.8 15.2 3.95 15.4 4.2 15.85 5.25 17.45 7.1 20.4 8.15 21.85 8.75 22.9 8.6 23.45 8.2 23.65" fill="#d1d6e9" fill-rule="evenodd" stroke="none"/>
    <path d="M4.85 6.9 L5.05 7.3 4.95 7.4 4.35 7.95 4.15 7.7 4.05 7.05 4.4 6.55 4.85 6.9 M4.55 10.5 Q4.6 11.05 4.05 11.25 L3.75 11.0 3.6 10.5 3.75 9.9 4.3 9.85 4.55 10.5" fill="#ffffff" fill-rule="evenodd" stroke="none"/>
  </g>
</svg>
