<?xml version="1.0" encoding="UTF-8" standalone="no"?>
<svg xmlns:ffdec="https://www.free-decompiler.com/flash" xmlns:xlink="http://www.w3.org/1999/xlink" ffdec:objectType="shape" height="27.05px" width="28.6px" xmlns="http://www.w3.org/2000/svg">
  <g transform="matrix(1.0, 0.0, 0.0, 1.0, -0.8, -1.65)">
    <path d="M23.3 5.5 L23.55 6.5 23.9 9.7 24.7 16.4 22.5 16.4 19.6 17.2 16.9 17.55 14.35 18.0 Q11.6 17.95 9.05 16.7 L5.3 16.4 6.05 10.7 6.65 5.55 9.0 5.85 9.45 7.45 Q10.25 9.6 11.7 11.0 L13.5 12.15 11.85 10.55 Q10.65 9.1 9.85 7.35 L9.55 6.25 9.65 6.05 Q10.85 5.25 12.05 5.7 L15.55 6.3 20.15 5.85 19.45 6.75 17.5 8.5 Q15.75 9.8 13.85 9.25 L14.2 9.6 Q16.2 10.3 17.95 8.65 L19.6 6.75 20.4 5.85 23.3 5.5" fill="#ff0000" fill-rule="evenodd" stroke="none"/>
    <path d="M25.95 2.4 L20.85 4.1 18.7 4.4 12.8 4.35 7.5 3.65 5.65 2.95 3.35 2.1 3.05 2.25 2.75 2.95 2.75 3.25 Q2.85 2.9 3.2 3.35 L4.45 4.3 Q5.2 4.7 6.2 5.0 L6.5 5.15 7.0 4.85 19.2 5.4 25.2 4.45 26.25 3.75 26.75 3.0 Q26.85 2.35 27.3 2.8 L26.95 4.65 Q25.8 5.8 24.25 6.05 L24.15 6.05 24.3 6.45 25.35 6.45 23.95 6.85 24.2 9.55 Q26.95 8.5 28.9 6.45 L28.7 5.55 28.25 3.8 28.1 3.1 27.6 2.6 25.95 2.4 M27.5 5.3 Q27.85 4.8 27.8 4.1 L27.85 4.1 27.95 4.3 Q28.15 4.8 27.45 5.5 L26.45 6.1 26.35 6.1 27.5 5.3 M28.75 3.35 L28.7 4.2 29.4 6.3 Q29.25 7.0 28.6 7.5 L25.1 9.55 24.25 10.05 25.0 16.7 25.0 17.35 20.4 17.65 19.9 18.85 19.5 19.9 18.7 22.45 18.15 24.25 17.5 26.1 17.25 26.85 17.05 27.3 Q16.6 28.4 15.45 28.65 14.45 28.85 13.65 28.1 L12.75 27.05 12.3 25.9 12.1 25.15 11.8 24.3 11.1 21.8 10.65 19.9 Q10.4 18.25 9.6 17.75 7.7 17.1 5.7 17.2 L5.4 17.2 5.05 17.35 4.95 16.65 5.0 15.2 5.65 10.85 5.85 9.5 5.4 9.55 3.6 8.85 Q1.65 8.2 0.8 6.4 L1.05 5.8 1.05 5.75 0.95 5.3 0.95 4.75 Q1.15 4.1 1.5 3.55 L1.6 2.4 2.25 1.9 3.3 1.65 6.45 2.55 10.35 3.6 15.8 4.25 18.35 4.0 Q22.8 2.65 27.4 1.9 L28.75 3.35 M23.3 5.5 L20.4 5.85 19.6 6.75 17.95 8.65 Q16.2 10.3 14.2 9.6 L13.85 9.25 Q15.75 9.8 17.5 8.5 L19.45 6.75 20.15 5.85 15.55 6.3 12.05 5.7 Q10.85 5.25 9.65 6.05 L9.55 6.25 9.85 7.35 Q10.65 9.1 11.85 10.55 L13.5 12.15 11.7 11.0 Q10.25 9.6 9.45 7.45 L9.0 5.85 6.65 5.55 6.05 10.7 5.3 16.4 9.05 16.7 Q11.6 17.95 14.35 18.0 L16.9 17.55 19.6 17.2 22.5 16.4 24.7 16.4 23.9 9.7 23.55 6.5 23.3 5.5 M6.0 5.6 L3.7 4.85 Q2.9 4.3 2.7 3.5 L2.55 3.2 2.35 2.95 1.95 3.9 Q1.85 4.15 1.9 4.5 L1.6 4.9 1.6 5.95 1.5 6.4 Q2.05 7.15 3.05 7.6 L5.85 9.2 6.1 6.85 Q4.35 6.6 2.95 5.45 3.75 6.0 4.65 6.25 L6.3 6.0 6.0 5.6 M19.85 17.9 L19.25 18.15 18.5 18.45 18.45 19.95 18.3 21.75 18.1 23.4 19.85 17.9 M10.3 17.9 L11.95 23.55 11.65 20.55 11.5 18.5 10.3 17.9 M11.95 19.35 L12.25 21.7 Q12.5 23.75 12.9 25.7 L12.6 21.05 12.75 22.05 12.8 22.1 13.3 26.6 Q13.4 27.5 14.25 27.9 L15.4 27.95 Q16.4 27.95 16.65 26.7 L16.65 26.6 Q16.75 23.6 17.5 21.0 L17.1 25.55 17.1 25.85 17.2 26.45 18.15 18.5 14.95 18.9 11.85 18.6 11.85 18.65 11.95 19.35" fill="#65012f" fill-rule="evenodd" stroke="none"/>
    <path d="M19.85 17.9 L18.1 23.4 18.3 21.75 18.45 19.95 18.5 18.45 19.25 18.15 19.85 17.9 M11.95 19.35 L11.85 18.65 11.85 18.6 14.95 18.9 18.15 18.5 17.2 26.45 17.1 25.85 17.1 25.55 17.5 21.0 Q16.75 23.6 16.65 26.6 L16.65 26.7 Q16.4 27.95 15.4 27.95 L14.25 27.9 Q13.4 27.5 13.3 26.6 L12.8 22.1 12.75 22.05 12.6 21.05 12.9 25.7 Q12.5 23.75 12.25 21.7 L11.95 19.35 M10.3 17.9 L11.5 18.5 11.65 20.55 11.95 23.55 10.3 17.9" fill="#990000" fill-rule="evenodd" stroke="none"/>
    <path d="M27.5 5.3 L26.35 6.1 26.45 6.1 27.45 5.5 Q28.15 4.8 27.95 4.3 L27.85 4.1 27.8 4.1 Q27.85 4.8 27.5 5.3 M25.95 2.4 L27.6 2.6 28.1 3.1 28.25 3.8 28.7 5.55 28.9 6.45 Q26.95 8.5 24.2 9.55 L23.95 6.85 25.35 6.45 24.3 6.45 24.15 6.05 24.25 6.05 Q25.8 5.8 26.95 4.65 L27.3 2.8 Q26.85 2.35 26.75 3.0 L26.25 3.75 25.2 4.45 19.2 5.4 7.0 4.85 6.5 5.15 6.2 5.0 Q5.2 4.7 4.45 4.3 L3.2 3.35 Q2.85 2.9 2.75 3.25 L2.75 2.95 3.05 2.25 3.35 2.1 5.65 2.95 7.5 3.65 12.8 4.35 18.7 4.4 20.85 4.1 25.95 2.4 M6.0 5.6 L6.3 6.0 4.65 6.25 Q3.75 6.0 2.95 5.45 4.35 6.6 6.1 6.85 L5.85 9.2 3.05 7.6 Q2.05 7.15 1.5 6.4 L1.6 5.95 1.6 4.9 1.9 4.5 Q1.85 4.15 1.95 3.9 L2.35 2.95 2.55 3.2 2.7 3.5 Q2.9 4.3 3.7 4.85 L6.0 5.6" fill="#cc0000" fill-rule="evenodd" stroke="none"/>
  </g>
</svg>
