<?xml version="1.0" encoding="UTF-8" standalone="no"?>
<svg xmlns:ffdec="https://www.free-decompiler.com/flash" xmlns:xlink="http://www.w3.org/1999/xlink" ffdec:objectType="shape" height="24.65px" width="26.4px" xmlns="http://www.w3.org/2000/svg">
  <g transform="matrix(1.0, 0.0, 0.0, 1.0, -1.9, -2.8)">
    <path d="M3.35 4.25 L3.35 4.2 3.4 4.2 3.35 4.25" fill="#999999" fill-rule="evenodd" stroke="none"/>
    <path d="M26.25 13.6 L27.05 12.9 26.95 12.25 27.0 12.25 27.2 13.35 26.6 13.6 26.25 13.6 M26.65 10.25 L26.5 9.4 26.65 10.2 26.65 10.25 M20.8 20.65 L20.4 21.25 20.6 20.85 20.8 20.65 M7.0 16.65 L5.95 15.45 7.05 16.6 7.0 16.65 M8.2 18.5 L8.35 18.4 9.85 21.1 11.0 18.5 11.25 18.35 9.85 21.45 9.75 21.4 8.2 18.5" fill="#666666" fill-rule="evenodd" stroke="none"/>
    <path d="M3.4 4.2 L5.45 3.5 9.2 3.0 12.3 2.8 15.35 2.8 18.35 2.85 21.15 3.05 24.7 3.7 26.85 4.2 26.85 4.25 28.3 14.1 25.25 17.0 Q23.8 18.55 22.65 20.35 L20.9 23.3 19.4 26.4 19.4 26.55 16.8 27.1 15.1 27.45 12.4 26.95 10.9 26.4 9.7 23.9 8.3 21.4 6.75 19.15 4.95 17.0 2.6 14.65 1.9 14.1 3.35 4.25 3.4 4.2 M21.3 4.8 L25.15 5.65 26.7 6.05 26.5 4.95 24.35 4.2 22.05 3.7 16.35 3.4 16.2 3.35 16.05 3.35 16.2 3.9 16.25 3.9 17.6 4.3 21.3 4.8 M26.55 6.6 L24.45 5.8 22.3 5.35 21.0 5.1 17.5 4.7 16.0 4.7 15.6 5.0 15.6 6.5 15.55 15.15 16.05 16.0 15.95 15.9 Q15.6 15.55 15.1 15.55 L14.95 15.7 14.6 16.15 Q13.55 17.3 12.9 18.6 L11.6 21.3 10.55 24.0 11.35 25.9 11.55 26.0 15.25 26.7 16.5 26.65 18.7 26.2 18.95 26.05 19.75 24.25 19.1 22.5 17.3 18.7 16.3 16.65 16.2 16.25 16.4 16.5 17.5 18.4 19.55 21.95 19.8 22.55 20.4 21.55 19.85 22.6 20.2 23.6 Q21.55 20.4 23.6 17.55 24.3 16.3 25.3 15.4 L26.8 14.15 27.7 13.7 27.45 11.9 27.15 10.0 26.55 6.6 M15.7 3.4 L15.15 3.15 Q14.85 3.15 14.65 3.4 14.4 3.6 14.4 3.95 L14.65 4.55 Q14.85 4.75 15.15 4.75 L15.7 4.55 15.9 3.95 15.7 3.4 M12.05 4.7 L8.3 5.0 6.05 5.45 3.8 6.15 3.6 6.35 3.4 7.25 3.2 8.6 3.1 9.6 2.95 10.55 2.65 12.75 3.05 12.85 3.15 12.75 3.4 12.95 5.25 14.7 2.6 12.95 2.5 13.7 Q4.0 14.35 5.25 15.55 L6.85 17.55 7.3 18.25 7.35 18.3 9.95 23.3 11.55 20.1 12.3 18.7 13.9 16.3 14.7 15.05 14.8 14.95 14.9 14.85 15.0 14.55 15.15 13.9 15.4 11.6 Q15.5 9.1 15.25 6.65 L15.2 5.1 14.95 6.75 14.65 12.75 14.65 6.65 14.55 5.2 14.45 5.05 14.25 4.9 12.05 4.7 M11.4 3.45 L8.8 3.8 4.1 4.45 3.65 4.95 3.55 5.9 6.3 4.9 8.4 4.5 11.95 4.3 14.05 4.2 14.05 4.0 14.45 3.3 11.4 3.45" fill="#254e29" fill-rule="evenodd" stroke="none"/>
    <path d="M21.3 4.8 L17.6 4.3 Q17.7 3.95 17.3 3.75 L16.2 3.9 16.05 3.35 16.2 3.35 16.35 3.4 22.05 3.7 21.3 4.8 M21.0 5.1 L20.65 5.6 Q20.4 4.9 19.65 5.4 18.2 6.35 16.95 7.7 15.65 9.05 15.65 11.0 L16.15 11.45 16.4 11.55 18.65 9.1 Q18.45 9.8 18.85 10.4 L19.1 10.6 Q19.65 10.8 20.1 10.6 21.1 10.0 22.3 9.65 23.45 9.4 24.4 8.85 25.6 8.0 26.55 6.6 L27.15 10.0 27.1 9.95 26.65 10.2 26.5 9.4 26.65 10.25 Q25.75 10.95 25.3 11.85 L25.1 12.35 25.4 12.9 26.1 12.85 26.35 12.65 26.95 12.25 27.05 12.9 26.25 13.6 Q24.6 14.1 23.55 15.25 L23.05 15.9 22.7 15.6 Q21.4 15.7 20.15 16.4 L19.3 16.95 Q20.8 15.8 21.75 14.45 22.0 14.05 21.6 13.75 23.0 13.75 24.2 12.9 L24.7 12.6 Q25.1 11.9 24.7 11.1 24.2 10.15 23.3 10.25 L21.75 11.1 20.75 11.05 19.75 11.7 Q19.5 11.95 19.4 12.4 19.7 13.0 20.35 13.15 L21.0 13.1 21.3 13.65 20.2 13.8 Q18.5 14.5 17.75 16.2 17.15 17.55 18.4 17.65 L17.5 18.4 16.4 16.5 17.1 15.25 17.15 15.0 16.65 14.7 15.55 15.15 15.6 6.5 17.05 5.2 17.5 4.7 21.0 5.1 M27.45 11.9 L27.7 13.7 26.8 14.15 26.75 13.85 26.6 13.6 27.2 13.35 27.0 12.25 27.45 11.9 M23.6 17.55 Q21.55 20.4 20.2 23.6 L19.85 22.6 20.4 21.55 19.8 22.55 19.55 21.95 20.6 20.85 20.4 21.25 20.8 20.65 22.1 19.7 22.9 17.85 23.6 17.55 M16.3 16.65 L17.3 18.7 Q16.55 20.15 16.05 21.85 L16.0 22.25 16.4 23.0 Q14.85 23.7 14.5 25.4 L14.45 25.75 15.15 26.2 Q16.65 25.4 17.3 23.7 L17.4 23.55 18.0 23.5 19.1 22.5 19.75 24.25 18.95 26.05 18.7 26.2 19.65 24.15 19.35 23.95 17.8 24.95 Q16.95 25.65 16.5 26.65 L15.25 26.7 11.55 26.0 12.85 24.75 Q13.55 23.65 13.85 22.45 L14.3 20.75 14.35 20.5 13.9 20.15 Q12.6 20.2 11.6 21.3 L12.9 18.6 Q13.55 17.3 14.6 16.15 L13.45 17.9 Q13.1 18.4 13.35 18.9 L14.4 18.65 15.2 17.85 16.3 16.65 M8.3 5.0 L8.25 5.9 10.1 6.9 11.8 5.05 12.05 4.7 14.25 4.9 14.45 5.05 14.3 5.45 14.65 6.65 14.65 12.75 14.2 12.55 13.2 13.1 Q12.8 12.35 12.0 13.25 L10.75 14.4 10.35 14.2 Q8.1 14.4 7.05 16.6 L5.95 15.45 7.0 16.65 6.85 17.55 5.25 15.55 6.25 14.6 6.85 13.9 7.5 14.2 7.8 14.15 Q8.6 13.45 8.95 12.35 L9.05 11.9 9.0 11.75 8.2 11.85 7.9 12.15 8.65 9.9 8.7 9.65 8.6 9.45 6.85 8.75 Q7.8 8.0 8.3 6.7 L8.3 6.5 Q7.7 6.0 6.95 6.35 5.4 7.2 5.8 8.65 4.85 8.65 4.25 9.25 L4.1 9.45 5.7 7.1 5.75 6.7 4.9 6.55 Q3.9 7.45 3.2 8.6 L3.4 7.25 3.75 7.25 6.05 5.45 8.3 5.0 M11.95 4.3 L11.4 3.45 14.45 3.3 14.05 4.0 14.05 4.2 11.95 4.3 M8.8 3.8 L8.4 4.5 6.3 4.9 Q6.15 3.95 5.2 4.4 4.05 4.95 3.55 5.9 L3.65 4.95 4.1 4.45 8.8 3.8 M11.7 8.85 L11.85 9.5 12.7 9.95 Q13.9 9.15 14.5 7.75 L14.15 7.35 13.85 7.15 12.1 8.05 12.25 7.4 Q11.75 6.6 11.0 7.3 L9.95 8.25 Q8.55 9.4 8.95 11.0 L9.05 11.15 10.0 11.3 Q11.25 10.4 11.7 8.85 M15.25 6.65 Q15.5 9.1 15.4 11.6 L15.15 13.9 15.0 14.55 15.15 13.85 14.85 13.0 14.65 12.75 14.95 6.75 15.25 6.65 M14.8 14.95 L14.7 15.05 13.9 16.3 12.3 18.7 11.55 20.1 9.95 23.3 7.35 18.3 Q7.6 18.8 8.1 18.6 L8.2 18.5 9.75 21.4 9.85 21.45 11.25 18.35 13.85 15.95 14.45 15.2 14.8 14.95 M3.1 9.6 Q3.4 9.95 3.7 9.85 L3.35 10.15 2.95 10.55 3.1 9.6 M8.35 18.4 L9.55 17.7 Q9.3 18.2 9.95 18.35 L10.9 18.5 11.0 18.5 9.85 21.1 8.35 18.4" fill="#649b6a" fill-rule="evenodd" stroke="none"/>
    <path d="M22.05 3.7 L24.35 4.2 26.5 4.95 26.7 6.05 25.15 5.65 21.3 4.8 22.05 3.7 M21.0 5.1 L22.3 5.35 24.45 5.8 26.55 6.6 Q25.6 8.0 24.4 8.85 23.45 9.4 22.3 9.65 21.1 10.0 20.1 10.6 19.65 10.8 19.1 10.6 L18.85 10.4 Q18.45 9.8 18.65 9.1 L20.25 6.7 20.6 5.85 20.65 5.6 21.0 5.1 M19.55 21.95 L17.5 18.4 18.4 17.65 18.9 17.2 19.3 16.95 20.15 16.4 Q21.4 15.7 22.7 15.6 L23.05 15.9 22.5 17.1 22.65 17.55 22.9 17.85 22.1 19.7 20.8 20.65 20.6 20.85 19.55 21.95 M17.3 18.7 L19.1 22.5 18.0 23.5 17.4 23.55 17.4 23.2 17.3 22.8 Q17.15 22.6 17.0 22.55 L16.7 22.65 16.4 23.0 16.0 22.25 16.05 21.85 Q16.55 20.15 17.3 18.7 M11.55 26.0 L11.35 25.9 10.55 24.0 11.6 21.3 Q12.6 20.2 13.9 20.15 L14.35 20.5 14.3 20.75 13.85 22.45 Q13.55 23.65 12.85 24.75 L11.55 26.0 M21.3 13.65 L21.0 13.1 20.35 13.15 Q19.7 13.0 19.4 12.4 19.5 11.95 19.75 11.7 L20.75 11.05 21.75 11.1 23.3 10.25 Q24.2 10.15 24.7 11.1 25.1 11.9 24.7 12.6 L24.2 12.9 Q23.0 13.75 21.6 13.75 L21.3 13.65 M12.05 4.7 L11.8 5.05 10.1 6.9 8.25 5.9 8.3 5.0 12.05 4.7 M4.1 9.45 L4.25 9.25 Q4.85 8.65 5.8 8.65 L6.85 8.75 8.6 9.45 8.7 9.65 8.65 9.9 7.9 12.15 Q7.1 12.75 6.85 13.7 L6.85 13.9 6.25 14.6 5.25 15.55 Q4.0 14.35 2.5 13.7 L2.6 12.95 5.25 14.7 3.4 12.95 3.15 12.75 3.05 12.85 2.65 12.75 2.95 10.55 3.35 10.15 3.7 9.85 3.85 9.7 4.1 9.45 M13.2 13.1 L14.2 12.55 14.65 12.75 14.85 13.0 15.15 13.85 15.0 14.55 14.9 14.85 14.8 14.95 14.45 15.2 13.85 15.95 11.25 18.35 11.0 18.5 10.9 18.5 9.95 18.35 Q9.3 18.2 9.55 17.7 L10.1 17.0 10.55 16.7 12.7 14.2 13.15 13.3 13.2 13.1 M11.4 3.45 L11.95 4.3 8.4 4.5 8.8 3.8 11.4 3.45 M12.1 8.05 L11.7 8.85 Q11.25 10.4 10.0 11.3 L9.05 11.15 8.95 11.0 Q8.55 9.4 9.95 8.25 L11.0 7.3 Q11.75 6.6 12.25 7.4 L12.1 8.05" fill="#416345" fill-rule="evenodd" stroke="none"/>
    <path d="M17.6 4.3 L16.25 3.9 16.2 3.9 17.3 3.75 Q17.7 3.95 17.6 4.3 M20.65 5.6 L20.6 5.85 20.25 6.7 18.65 9.1 16.4 11.55 16.15 11.45 15.65 11.0 Q15.65 9.05 16.95 7.7 18.2 6.35 19.65 5.4 20.4 4.9 20.65 5.6 M26.8 14.15 L25.3 15.4 Q24.3 16.3 23.6 17.55 L22.9 17.85 22.65 17.55 22.5 17.1 23.05 15.9 23.55 15.25 Q24.6 14.1 26.25 13.6 L26.6 13.6 26.75 13.85 26.8 14.15 M15.6 6.5 L15.6 5.0 16.0 4.7 17.5 4.7 17.05 5.2 15.6 6.5 M21.6 13.75 Q22.0 14.05 21.75 14.45 20.8 15.8 19.3 16.95 L18.9 17.2 18.4 17.65 Q17.15 17.55 17.75 16.2 18.5 14.5 20.2 13.8 L21.3 13.65 21.6 13.75 M3.2 8.6 Q3.9 7.45 4.9 6.55 L5.75 6.7 5.7 7.1 4.1 9.45 3.85 9.7 3.7 9.85 Q3.4 9.95 3.1 9.6 L3.2 8.6 M5.8 8.65 Q5.4 7.2 6.95 6.35 7.7 6.0 8.3 6.5 L8.3 6.7 Q7.8 8.0 6.85 8.75 L5.8 8.65 M6.85 17.55 L7.0 16.65 7.05 16.6 Q8.1 14.4 10.35 14.2 L10.75 14.4 12.0 13.25 Q12.8 12.35 13.2 13.1 L13.15 13.3 12.7 14.2 10.55 16.7 10.1 17.0 9.55 17.7 8.35 18.4 8.2 18.5 8.1 18.6 Q7.6 18.8 7.35 18.3 L7.3 18.25 6.85 17.55 M14.65 6.65 L14.3 5.45 14.45 5.05 14.55 5.2 14.65 6.65 M14.95 6.75 L15.2 5.1 15.25 6.65 14.95 6.75 M17.4 23.55 L17.3 23.7 Q16.65 25.4 15.15 26.2 L14.45 25.75 14.5 25.4 Q14.85 23.7 16.4 23.0 L16.7 22.65 17.0 22.55 Q17.15 22.6 17.3 22.8 L17.4 23.2 17.4 23.55" fill="#233625" fill-rule="evenodd" stroke="none"/>
    <path d="M27.15 10.0 L27.45 11.9 27.0 12.25 26.95 12.25 26.35 12.65 26.1 12.85 25.4 12.9 25.1 12.35 25.3 11.85 Q25.75 10.95 26.65 10.25 L26.65 10.2 27.1 9.95 27.15 10.0 M16.4 16.5 L16.2 16.25 16.3 16.65 15.2 17.85 14.4 18.65 13.35 18.9 Q13.1 18.4 13.45 17.9 L14.6 16.15 14.95 15.7 15.1 15.55 Q15.6 15.55 15.95 15.9 L16.05 16.0 15.55 15.15 16.65 14.7 17.15 15.0 17.1 15.25 16.4 16.5 M18.7 26.2 L16.5 26.65 Q16.95 25.65 17.8 24.95 L19.35 23.95 19.65 24.15 18.7 26.2 M6.05 5.45 L3.75 7.25 3.4 7.25 3.6 6.35 3.8 6.15 6.05 5.45 M7.9 12.15 L8.2 11.85 9.0 11.75 9.05 11.9 8.95 12.35 Q8.6 13.45 7.8 14.15 L7.5 14.2 6.85 13.9 6.85 13.7 Q7.1 12.75 7.9 12.15 M12.1 8.05 L13.85 7.15 14.15 7.35 14.5 7.75 Q13.9 9.15 12.7 9.95 L11.85 9.5 11.7 8.85 12.1 8.05 M3.55 5.9 Q4.05 4.95 5.2 4.4 6.15 3.95 6.3 4.9 L3.55 5.9" fill="#b1cdb3" fill-rule="evenodd" stroke="none"/>
    <path d="M15.7 3.4 L15.9 3.95 15.7 4.55 15.15 4.75 Q14.85 4.75 14.65 4.55 L14.4 3.95 Q14.4 3.6 14.65 3.4 14.85 3.15 15.15 3.15 L15.7 3.4" fill="#b0ba69" fill-rule="evenodd" stroke="none"/>
  </g>
</svg>
