<?xml version="1.0" encoding="UTF-8" standalone="no"?>
<svg xmlns:ffdec="https://www.free-decompiler.com/flash" xmlns:xlink="http://www.w3.org/1999/xlink" ffdec:objectType="shape" height="27.05px" width="27.65px" xmlns="http://www.w3.org/2000/svg">
  <g transform="matrix(1.0, 0.0, 0.0, 1.0, -1.2, -1.6)">
    <path d="M26.2 3.4 L27.0 3.35 Q27.75 3.85 28.25 4.8 L28.0 5.75 Q27.8 7.7 28.0 10.0 L28.35 14.2 28.75 14.7 Q29.0 16.15 28.45 17.5 L27.7 17.9 27.4 18.5 26.9 18.8 26.5 19.85 25.75 20.35 Q25.45 21.5 24.7 22.05 L24.15 22.65 23.55 23.05 23.2 23.85 22.55 24.15 22.1 24.75 21.7 25.1 20.9 26.05 20.7 26.5 Q19.7 26.9 18.65 27.5 L17.1 28.3 14.05 28.55 Q12.3 28.2 10.7 27.35 L9.75 26.75 9.4 26.5 8.35 25.1 6.85 23.85 6.5 23.05 4.45 20.9 4.3 20.35 Q3.35 19.95 3.2 18.85 L1.65 17.5 1.2 16.25 Q1.9 13.25 2.0 10.0 L2.05 7.95 1.9 4.8 Q2.2 3.75 3.05 3.35 L3.9 3.4 Q5.5 2.4 7.2 2.4 L13.6 1.7 15.0 1.6 15.05 1.6 Q19.7 1.6 24.4 2.8 L25.75 3.15 Q25.95 3.2 26.2 3.4 M27.8 14.5 L27.65 13.1 27.2 8.6 27.1 5.65 27.3 4.9 26.75 4.2 Q25.95 4.25 25.1 3.8 L24.55 3.8 20.05 2.75 15.95 2.9 15.95 3.55 16.0 3.55 16.35 3.6 17.2 3.1 17.25 3.3 17.1 3.5 18.0 3.7 18.2 3.7 18.3 3.7 18.3 3.6 18.9 2.95 18.95 2.95 18.8 3.7 20.4 3.95 21.0 3.4 21.1 3.5 21.2 3.6 21.1 3.8 22.25 4.3 23.05 3.75 23.15 3.7 23.25 3.8 23.25 4.1 23.25 4.15 22.85 4.55 23.85 4.9 24.25 4.6 25.15 4.3 25.3 4.3 25.3 4.5 25.3 4.75 24.95 5.15 25.35 5.15 25.4 5.15 26.05 4.95 26.15 4.9 26.85 5.0 26.6 5.8 Q26.3 6.65 26.35 7.75 26.3 8.55 25.85 9.0 L25.3 9.0 25.4 8.6 25.9 7.05 26.15 5.55 24.85 5.6 Q24.3 5.0 23.75 5.15 L22.85 5.1 Q19.65 4.0 16.15 4.2 L17.65 7.25 16.85 8.2 16.5 8.6 16.3 8.85 15.75 8.35 15.25 7.25 Q14.75 6.2 15.35 5.95 15.0 4.8 14.8 5.0 L15.0 6.2 Q14.95 7.4 14.45 8.15 L14.0 8.6 13.85 8.45 13.95 8.35 14.55 6.45 14.45 6.45 14.45 6.5 14.0 7.8 13.85 8.35 12.6 8.25 12.9 9.15 12.85 9.4 Q12.4 9.5 12.3 8.85 L11.85 6.65 Q11.7 6.0 11.95 5.25 L12.0 5.25 12.2 7.0 Q12.75 5.45 13.8 4.3 L7.85 4.75 7.25 5.1 6.85 4.9 5.6 5.25 5.25 5.6 3.9 5.55 4.2 7.05 4.7 8.45 Q5.0 9.0 4.65 9.15 L4.6 9.2 4.1 8.6 Q3.45 7.4 3.75 5.6 L3.5 5.4 3.3 5.15 3.3 4.9 3.5 5.1 3.6 5.1 3.65 5.1 3.65 5.0 3.7 5.0 3.8 5.0 3.9 4.9 5.2 5.15 4.75 4.3 6.1 4.9 7.1 4.55 6.8 3.8 6.9 3.7 Q6.95 3.65 7.0 3.75 L7.8 4.3 7.8 4.35 8.95 3.75 8.85 3.6 8.95 3.5 9.05 3.4 9.65 3.95 11.25 3.7 11.1 2.95 11.15 3.0 11.55 3.3 11.8 3.55 11.8 3.7 11.9 3.7 12.05 3.7 12.95 3.5 12.8 3.3 12.85 2.95 Q12.9 2.85 13.0 2.9 L14.05 3.55 14.05 3.5 14.0 3.35 14.05 3.15 14.25 2.5 8.25 3.2 4.95 3.8 3.9 4.2 Q3.2 3.95 3.0 4.55 2.65 4.95 2.75 5.4 L2.85 7.4 2.7 10.95 2.25 14.5 1.95 15.45 2.2 16.1 2.15 16.7 2.55 17.05 2.7 16.3 Q3.2 16.5 2.95 17.45 3.6 18.5 3.95 17.85 L4.3 18.1 4.25 19.25 Q5.1 20.55 5.05 19.3 L5.2 19.3 5.5 19.65 5.5 20.7 6.4 21.95 6.6 20.95 Q7.2 21.35 6.8 22.3 L7.6 23.15 7.8 22.75 7.9 22.7 Q8.35 23.1 8.2 24.1 L9.2 25.05 9.35 24.35 Q8.65 22.7 7.35 21.65 L7.15 20.85 Q6.6 20.75 6.4 20.25 L5.95 19.3 3.9 17.4 3.6 16.6 Q2.4 15.95 3.05 14.9 L3.35 12.9 Q3.35 12.35 3.75 12.2 L3.85 12.35 Q3.55 14.1 3.6 15.5 L4.2 17.0 4.9 17.7 6.65 19.8 Q6.4 18.95 6.55 17.9 6.6 17.65 7.0 17.45 L7.05 17.6 7.3 19.45 7.25 20.25 7.75 21.3 8.2 21.75 Q9.85 23.5 10.25 25.15 L9.8 25.1 Q9.7 25.0 9.7 25.35 L11.15 26.65 11.35 26.55 12.15 27.05 15.9 27.5 17.8 26.7 18.9 26.65 20.35 25.35 20.3 24.95 19.65 24.9 21.2 22.5 Q21.7 21.7 22.45 21.05 L22.8 20.25 22.75 20.05 22.9 17.8 Q22.85 17.3 23.15 17.45 L23.4 17.9 23.45 19.8 23.6 19.65 24.15 19.05 Q25.7 17.65 26.45 15.5 L26.1 12.85 Q25.95 12.3 26.3 12.2 26.8 12.25 26.8 12.9 L27.0 14.9 Q27.6 15.95 26.45 16.6 L26.15 17.4 24.1 19.3 24.0 19.65 Q23.75 19.9 23.65 20.25 23.5 20.75 22.9 20.85 L22.75 21.65 22.2 21.95 Q21.05 23.0 20.8 24.45 L20.85 25.05 21.85 24.1 Q21.7 23.1 22.15 22.7 L22.25 23.35 23.25 22.3 Q22.85 21.35 23.45 20.95 L23.65 21.95 24.6 20.7 24.55 20.2 Q24.5 19.15 25.0 19.3 25.05 20.55 25.8 19.25 25.65 18.15 26.1 17.85 26.35 18.4 27.1 17.45 26.85 16.5 27.35 16.3 27.5 17.5 27.9 16.85 L28.1 15.45 27.8 14.5 M7.05 16.8 Q6.9 15.5 7.05 14.45 7.1 14.05 7.4 14.1 L7.7 17.05 7.8 17.8 7.7 17.8 7.6 17.7 Q7.25 17.45 7.05 16.8 M8.7 17.55 L10.35 14.65 10.5 14.6 Q10.8 14.95 10.55 15.3 L9.15 17.6 8.7 17.55 M11.0 18.7 L11.1 18.65 Q11.4 18.65 11.45 19.3 L12.15 21.35 12.25 22.05 11.8 21.7 Q10.8 20.5 11.0 18.7 M14.4 19.4 L14.55 18.8 14.7 18.6 14.8 18.8 14.9 19.35 Q14.8 20.75 14.1 21.9 L13.35 21.95 14.4 19.4 M15.15 19.35 L15.25 18.8 15.35 18.6 15.65 19.4 16.7 21.95 Q16.45 22.3 16.05 21.75 15.35 20.75 15.15 19.35 M18.6 19.3 Q18.55 18.5 18.95 18.65 L19.05 18.7 Q19.25 20.35 18.25 21.5 L17.8 22.05 17.95 21.45 18.6 19.3 M20.9 17.6 L19.6 15.25 Q19.4 15.0 19.55 14.6 L19.7 14.7 Q20.45 16.35 21.35 17.55 L20.9 17.6 M22.35 17.05 L22.65 14.1 Q23.05 14.05 23.1 14.4 23.25 15.5 23.0 16.8 23.0 17.45 22.55 17.8 L22.35 17.8 22.25 17.8 22.35 17.05 M25.15 16.1 Q23.85 15.6 24.0 13.85 L25.05 14.6 25.4 15.25 25.6 15.8 25.25 16.1 25.2 16.1 25.15 16.1 M22.15 5.45 Q22.7 7.85 21.15 9.05 L21.1 9.15 Q21.1 8.7 21.45 8.15 22.05 6.85 22.05 5.55 L22.15 5.45 M23.25 6.0 Q24.05 7.0 24.4 8.6 23.3 8.25 23.0 6.0 L23.25 6.0 M20.25 9.25 Q18.75 8.05 19.2 5.45 L19.35 5.55 Q19.3 7.45 20.35 9.05 L20.25 9.25 M22.55 11.2 Q22.7 12.25 22.25 13.05 21.9 13.55 21.6 13.5 L21.95 11.45 22.05 9.6 22.2 9.65 22.55 11.2 M24.9 12.25 L24.95 12.6 Q23.7 12.6 23.6 10.55 23.55 9.9 23.65 9.4 L23.75 9.55 Q23.8 11.1 24.9 12.25 M26.7 10.45 Q26.75 11.5 26.25 12.2 L25.65 12.4 26.2 11.0 26.3 9.85 Q26.7 9.5 26.7 10.45 M20.5 13.6 Q18.9 12.35 19.4 10.2 L19.45 10.15 Q19.3 11.05 20.2 12.25 L21.05 13.25 20.5 13.6 M21.5 21.35 Q20.4 20.95 19.95 18.4 20.45 18.65 20.95 20.05 L21.5 21.15 21.5 21.35 M15.6 4.4 L15.45 4.8 Q15.6 6.55 16.35 7.95 L17.1 7.25 15.6 4.4 M15.65 3.15 L15.45 2.5 Q15.25 2.2 15.0 2.2 14.75 2.2 14.6 2.5 L14.4 3.15 14.6 3.8 Q14.75 4.05 15.0 4.1 L15.45 3.8 15.65 3.15 M18.15 5.35 Q18.7 7.6 17.4 9.35 L17.3 9.4 17.2 9.15 17.75 7.25 Q18.1 6.4 18.05 5.25 L18.15 5.35 M10.85 5.4 L10.9 5.55 Q11.35 7.9 9.9 9.25 L9.75 9.05 10.55 6.4 10.85 5.4 M14.45 4.9 L14.6 4.2 14.15 4.2 12.55 7.4 13.45 8.2 14.45 4.9 M14.85 9.8 Q15.2 11.05 14.65 12.25 L13.85 13.3 13.85 13.2 14.85 9.8 M11.75 9.95 L11.85 9.85 Q11.8 11.7 12.65 13.5 L12.35 13.5 Q11.85 13.25 11.7 12.55 11.4 11.25 11.75 9.95 M15.7 11.4 L16.15 13.1 16.2 13.2 Q16.3 13.65 15.8 12.9 14.75 11.55 15.1 9.85 L15.25 10.0 15.7 11.4 M18.3 9.95 Q18.65 10.65 18.45 11.75 L18.05 12.9 17.75 13.5 17.35 13.45 17.35 13.4 17.5 13.2 Q18.4 11.7 18.15 9.85 L18.3 9.95 M5.95 13.85 L6.0 13.85 6.0 14.45 Q5.75 15.55 4.95 16.1 L4.45 15.8 4.65 15.2 Q5.15 14.3 5.95 13.85 M9.0 13.25 L9.5 12.75 10.05 11.55 Q10.35 10.25 10.7 10.15 11.1 12.5 9.55 13.6 L9.0 13.25 M7.85 9.65 L8.0 9.6 8.15 11.45 8.45 13.5 Q8.2 13.35 8.1 13.2 7.15 11.5 7.85 9.65 M5.2 12.2 L5.95 10.25 6.45 9.4 Q6.7 10.6 6.45 11.45 6.0 12.65 5.2 12.6 L5.2 12.2 M3.6 11.75 Q3.1 10.6 3.6 9.75 L4.4 12.4 Q3.9 12.4 3.6 11.75 M7.9 5.45 L8.05 5.55 8.45 7.25 8.95 9.05 8.95 9.15 8.85 9.2 Q7.4 7.85 7.9 5.45 M6.85 6.0 L7.05 6.0 6.9 6.85 Q6.5 8.45 5.65 8.6 L6.85 6.0 M8.7 21.5 L8.6 21.3 Q9.3 20.55 9.5 19.6 9.65 18.7 10.1 18.3 L9.8 19.3 8.7 21.5 M18.2 14.3 L18.25 14.05 Q18.95 15.0 18.7 16.25 18.4 17.5 17.7 18.2 16.9 17.85 17.55 16.85 L18.15 15.4 18.2 14.3 M15.6 14.2 Q15.6 15.7 16.0 17.65 L15.95 17.7 Q15.0 16.25 15.35 14.65 L15.6 14.2 M11.8 14.05 Q11.7 14.8 11.85 15.4 L12.55 16.85 Q13.2 17.85 12.4 18.2 11.55 17.35 11.35 16.2 11.15 15.0 11.8 14.05 M14.4 14.3 L14.5 14.2 Q15.35 15.85 14.1 17.7 L14.0 17.6 14.3 15.9 14.4 14.3 M14.5 22.75 L14.75 22.85 14.75 23.1 Q14.7 24.6 13.75 25.75 L13.35 25.5 Q13.85 24.0 14.5 22.75 M11.55 22.9 L11.9 22.55 12.0 22.65 12.0 24.05 Q12.05 24.95 12.5 25.65 L12.4 25.95 12.3 26.1 12.15 26.1 Q11.2 24.9 11.55 22.9 M15.5 22.5 L16.7 25.5 16.1 25.15 Q15.65 24.6 15.35 23.9 L15.5 22.5 M18.15 22.55 L18.5 22.9 Q18.85 24.35 18.1 25.75 L17.8 26.1 Q17.45 25.75 17.7 25.15 18.15 24.1 18.1 22.65 L18.15 22.55" fill="#6a713e" fill-rule="evenodd" stroke="none"/>
    <path d="M15.75 8.35 L16.3 8.85 16.5 8.6 16.85 8.2 17.65 7.25 16.15 4.2 Q19.65 4.0 22.85 5.1 L23.75 5.15 Q24.3 5.0 24.85 5.6 L26.15 5.55 25.9 7.05 25.4 8.6 25.3 9.0 25.85 9.0 Q26.3 8.55 26.35 7.75 26.3 6.65 26.6 5.8 L26.85 5.0 26.15 4.9 26.05 4.95 25.4 5.15 25.35 5.15 24.95 5.15 25.3 4.75 25.3 4.5 25.3 4.3 25.15 4.3 24.25 4.6 23.85 4.9 22.85 4.55 23.25 4.15 23.25 4.1 23.25 3.8 23.15 3.7 23.05 3.75 22.25 4.3 21.1 3.8 21.2 3.6 21.1 3.5 21.0 3.4 20.4 3.95 18.8 3.7 18.95 2.95 18.9 2.95 18.3 3.6 18.3 3.7 18.2 3.7 18.0 3.7 17.1 3.5 17.25 3.3 17.2 3.1 16.35 3.6 16.0 3.55 15.95 3.55 15.95 2.9 20.05 2.75 24.55 3.8 25.1 3.8 Q25.95 4.25 26.75 4.2 L27.3 4.9 27.1 5.65 27.2 8.6 27.65 13.1 27.8 14.5 27.0 14.9 26.8 12.9 Q26.8 12.25 26.3 12.2 25.95 12.3 26.1 12.85 L26.45 15.5 Q25.85 15.9 25.25 16.1 L25.6 15.8 25.4 15.25 25.05 14.6 24.0 13.85 Q23.85 15.6 25.15 16.1 L24.2 16.2 Q23.5 16.45 23.0 16.8 23.25 15.5 23.1 14.4 23.05 14.05 22.65 14.1 L22.35 17.05 21.35 17.55 Q20.45 16.35 19.7 14.7 L19.55 14.6 Q19.4 15.0 19.6 15.25 L20.9 17.6 19.05 18.7 18.95 18.65 Q18.55 18.5 18.6 19.3 L15.65 19.4 15.35 18.6 15.25 18.8 15.15 19.35 14.9 19.35 14.8 18.8 14.7 18.6 14.55 18.8 14.4 19.4 11.45 19.3 Q11.4 18.65 11.1 18.65 L11.0 18.7 9.45 17.65 9.15 17.6 10.55 15.3 Q10.8 14.95 10.5 14.6 L10.35 14.65 8.7 17.55 7.7 17.05 7.4 14.1 Q7.1 14.05 7.05 14.45 6.9 15.5 7.05 16.8 L5.85 16.2 Q4.7 16.3 3.6 15.5 3.55 14.1 3.85 12.35 L3.75 12.2 Q3.35 12.35 3.35 12.9 L3.05 14.9 2.7 14.65 2.25 14.5 2.7 10.95 2.85 7.4 2.75 5.4 Q2.65 4.95 3.0 4.55 3.2 3.95 3.9 4.2 L4.95 3.8 8.25 3.2 14.25 2.5 14.05 3.15 14.0 3.35 14.05 3.5 14.05 3.55 13.0 2.9 Q12.9 2.85 12.85 2.95 L12.8 3.3 12.95 3.5 12.05 3.7 11.9 3.7 11.8 3.7 11.8 3.55 11.55 3.3 11.15 3.0 11.1 2.95 11.25 3.7 9.65 3.95 9.05 3.4 8.95 3.5 8.85 3.6 8.95 3.75 7.8 4.35 7.8 4.3 7.0 3.75 Q6.95 3.65 6.9 3.7 L6.8 3.8 7.1 4.55 6.1 4.9 4.75 4.3 5.2 5.15 3.9 4.9 3.8 5.0 3.7 5.0 3.65 5.0 3.65 5.1 3.6 5.1 3.5 5.1 3.3 4.9 3.3 5.15 3.5 5.4 3.75 5.6 Q3.45 7.4 4.1 8.6 L4.6 9.2 4.65 9.15 Q5.0 9.0 4.7 8.45 L4.2 7.05 3.9 5.55 5.25 5.6 5.6 5.25 6.85 4.9 7.25 5.1 7.85 4.75 13.8 4.3 Q12.75 5.45 12.2 7.0 L12.0 5.25 11.95 5.25 Q11.7 6.0 11.85 6.65 L12.3 8.85 Q12.4 9.5 12.85 9.4 L12.9 9.15 12.6 8.25 13.85 8.35 13.85 8.45 14.0 8.6 14.45 8.15 15.75 8.35 M20.5 13.6 L21.05 13.25 20.2 12.25 Q19.3 11.05 19.45 10.15 L19.4 10.2 Q18.9 12.35 20.5 13.6 M26.7 10.45 Q26.7 9.5 26.3 9.85 L26.2 11.0 25.65 12.4 26.25 12.2 Q26.75 11.5 26.7 10.45 M24.9 12.25 Q23.8 11.1 23.75 9.55 L23.65 9.4 Q23.55 9.9 23.6 10.55 23.7 12.6 24.95 12.6 L24.9 12.25 M22.55 11.2 L22.2 9.65 22.05 9.6 21.95 11.45 21.6 13.5 Q21.9 13.55 22.25 13.05 22.7 12.25 22.55 11.2 M20.25 9.25 L20.35 9.05 Q19.3 7.45 19.35 5.55 L19.2 5.45 Q18.75 8.05 20.25 9.25 M23.25 6.0 L23.0 6.0 Q23.3 8.25 24.4 8.6 24.05 7.0 23.25 6.0 M22.15 5.45 L22.05 5.55 Q22.05 6.85 21.45 8.15 21.1 8.7 21.1 9.15 L21.15 9.05 Q22.7 7.85 22.15 5.45 M18.15 5.35 L18.05 5.25 Q18.1 6.4 17.75 7.25 L17.2 9.15 17.3 9.4 17.4 9.35 Q18.7 7.6 18.15 5.35 M10.85 5.4 L10.55 6.4 9.75 9.05 9.9 9.25 Q11.35 7.9 10.9 5.55 L10.85 5.4 M11.75 9.95 Q11.4 11.25 11.7 12.55 11.85 13.25 12.35 13.5 L12.65 13.5 Q11.8 11.7 11.85 9.85 L11.75 9.95 M14.85 9.8 L13.85 13.2 13.85 13.3 14.65 12.25 Q15.2 11.05 14.85 9.8 M18.3 9.95 L18.15 9.85 Q18.4 11.7 17.5 13.2 L17.35 13.4 17.35 13.45 17.75 13.5 18.05 12.9 18.45 11.75 Q18.65 10.65 18.3 9.95 M15.7 11.4 L15.25 10.0 15.1 9.85 Q14.75 11.55 15.8 12.9 16.3 13.65 16.2 13.2 L16.15 13.1 15.7 11.4 M6.85 6.0 L5.65 8.6 Q6.5 8.45 6.9 6.85 L7.05 6.0 6.85 6.0 M7.9 5.45 Q7.4 7.85 8.85 9.2 L8.95 9.15 8.95 9.05 8.45 7.25 8.05 5.55 7.9 5.45 M3.6 11.75 Q3.9 12.4 4.4 12.4 L3.6 9.75 Q3.1 10.6 3.6 11.75 M5.2 12.2 L5.2 12.6 Q6.0 12.65 6.45 11.45 6.7 10.6 6.45 9.4 L5.95 10.25 5.2 12.2 M7.85 9.65 Q7.15 11.5 8.1 13.2 8.2 13.35 8.45 13.5 L8.15 11.45 8.0 9.6 7.85 9.65 M9.0 13.25 L9.55 13.6 Q11.1 12.5 10.7 10.15 10.35 10.25 10.05 11.55 L9.5 12.75 9.0 13.25 M5.95 13.85 Q5.15 14.3 4.65 15.2 L4.45 15.8 4.95 16.1 Q5.75 15.55 6.0 14.45 L6.0 13.85 5.95 13.85 M15.6 14.2 L15.35 14.65 Q15.0 16.25 15.95 17.7 L16.0 17.65 Q15.6 15.7 15.6 14.2 M18.2 14.3 L18.15 15.4 17.55 16.85 Q16.9 17.85 17.7 18.2 18.4 17.5 18.7 16.25 18.95 15.0 18.25 14.05 L18.2 14.3 M14.4 14.3 L14.3 15.9 14.0 17.6 14.1 17.7 Q15.35 15.85 14.5 14.2 L14.4 14.3 M11.8 14.05 Q11.15 15.0 11.35 16.2 11.55 17.35 12.4 18.2 13.2 17.85 12.55 16.85 L11.85 15.4 Q11.7 14.8 11.8 14.05" fill="#ffffcc" fill-rule="evenodd" stroke="none"/>
    <path d="M15.75 8.35 L14.45 8.15 Q14.95 7.4 15.0 6.2 L14.8 5.0 Q15.0 4.8 15.35 5.95 14.75 6.2 15.25 7.25 L15.75 8.35 M13.85 8.45 L13.85 8.35 14.0 7.8 14.45 6.5 14.45 6.45 14.55 6.45 13.95 8.35 13.85 8.45 M2.25 14.5 L2.7 14.65 3.05 14.9 Q2.4 15.95 3.6 16.6 L3.9 17.4 5.95 19.3 6.4 20.25 Q6.6 20.75 7.15 20.85 L7.35 21.65 Q8.65 22.7 9.35 24.35 L9.2 25.05 8.2 24.1 Q8.35 23.1 7.9 22.7 L7.8 22.75 7.6 23.15 6.8 22.3 Q7.2 21.35 6.6 20.95 L6.4 21.95 5.5 20.7 5.5 19.65 5.2 19.3 5.05 19.3 Q5.1 20.55 4.25 19.25 L4.3 18.1 3.95 17.85 Q3.6 18.5 2.95 17.45 3.2 16.5 2.7 16.3 L2.55 17.05 2.15 16.7 2.2 16.1 1.95 15.45 2.25 14.5 M3.6 15.5 Q4.7 16.3 5.85 16.2 L7.05 16.8 Q7.25 17.45 7.6 17.7 L7.7 17.8 7.8 17.8 7.7 17.05 8.7 17.55 9.15 17.6 9.45 17.65 11.0 18.7 Q10.8 20.5 11.8 21.7 L12.25 22.05 12.15 21.35 11.45 19.3 14.4 19.4 13.35 21.95 14.1 21.9 Q14.8 20.75 14.9 19.35 L15.15 19.35 Q15.35 20.75 16.05 21.75 16.45 22.3 16.7 21.95 L15.65 19.4 18.6 19.3 17.95 21.45 17.8 22.05 18.25 21.5 Q19.25 20.35 19.05 18.7 L20.9 17.6 21.35 17.55 22.35 17.05 22.25 17.8 22.35 17.8 22.55 17.8 Q23.0 17.45 23.0 16.8 23.5 16.45 24.2 16.2 L25.15 16.1 25.2 16.1 25.25 16.1 Q25.85 15.9 26.45 15.5 25.7 17.65 24.15 19.05 L23.6 19.65 23.45 19.8 23.4 17.9 23.15 17.45 Q22.85 17.3 22.9 17.8 L22.75 20.05 22.8 20.25 22.45 21.05 Q21.7 21.7 21.2 22.5 L19.65 24.9 20.3 24.95 20.35 25.35 18.9 26.65 17.8 26.7 15.9 27.5 12.15 27.05 11.35 26.55 11.15 26.65 9.7 25.35 Q9.7 25.0 9.8 25.1 L10.25 25.15 Q9.85 23.5 8.2 21.75 L7.75 21.3 7.25 20.25 7.3 19.45 7.05 17.6 7.0 17.45 Q6.6 17.65 6.55 17.9 6.4 18.95 6.65 19.8 L4.9 17.7 4.2 17.0 3.6 15.5 M27.0 14.9 L27.8 14.5 28.1 15.45 27.9 16.85 Q27.5 17.5 27.35 16.3 26.85 16.5 27.1 17.45 26.35 18.4 26.1 17.85 25.65 18.15 25.8 19.25 25.05 20.55 25.0 19.3 24.5 19.15 24.55 20.2 L24.6 20.7 23.65 21.95 23.45 20.95 Q22.85 21.35 23.25 22.3 L22.25 23.35 22.15 22.7 Q21.7 23.1 21.85 24.1 L20.85 25.05 20.8 24.45 Q21.05 23.0 22.2 21.95 L22.75 21.65 22.9 20.85 Q23.5 20.75 23.65 20.25 23.75 19.9 24.0 19.65 L24.1 19.3 26.15 17.4 26.45 16.6 Q27.6 15.95 27.0 14.9 M21.5 21.35 L21.5 21.15 20.95 20.05 Q20.45 18.65 19.95 18.4 20.4 20.95 21.5 21.35 M15.6 4.4 L17.1 7.25 16.35 7.95 Q15.6 6.55 15.45 4.8 L15.6 4.4 M15.65 3.15 L15.45 3.8 15.0 4.1 Q14.75 4.05 14.6 3.8 L14.4 3.15 14.6 2.5 Q14.75 2.2 15.0 2.2 15.25 2.2 15.45 2.5 L15.65 3.15 M14.45 4.9 L13.45 8.2 12.55 7.4 14.15 4.2 14.6 4.2 14.45 4.9 M8.7 21.5 L9.8 19.3 10.1 18.3 Q9.65 18.7 9.5 19.6 9.3 20.55 8.6 21.3 L8.7 21.5 M11.55 22.9 Q11.2 24.9 12.15 26.1 L12.3 26.1 12.4 25.95 12.5 25.65 Q12.05 24.95 12.0 24.05 L12.0 22.65 11.9 22.55 11.55 22.9 M14.5 22.75 Q13.85 24.0 13.35 25.5 L13.75 25.75 Q14.7 24.6 14.75 23.1 L14.75 22.85 14.5 22.75 M18.15 22.55 L18.1 22.65 Q18.15 24.1 17.7 25.15 17.45 25.75 17.8 26.1 L18.1 25.75 Q18.85 24.35 18.5 22.9 L18.15 22.55 M15.5 22.5 L15.35 23.9 Q15.65 24.6 16.1 25.15 L16.7 25.5 15.5 22.5" fill="#c6c18e" fill-rule="evenodd" stroke="none"/>
  </g>
</svg>
