<?xml version="1.0" encoding="UTF-8" standalone="no"?>
<svg xmlns:ffdec="https://www.free-decompiler.com/flash" xmlns:xlink="http://www.w3.org/1999/xlink" ffdec:objectType="shape" height="26.1px" width="26.9px" xmlns="http://www.w3.org/2000/svg">
  <g transform="matrix(1.0, 0.0, 0.0, 1.0, -1.75, -2.0)">
    <path d="M26.9 12.5 L27.15 6.05 26.35 6.1 Q25.55 5.65 27.8 3.55 L18.2 5.0 12.1 4.95 9.7 2.9 4.05 5.35 3.15 12.15 10.35 23.75 16.05 27.1 18.45 26.4 23.05 21.95 23.3 19.55 26.9 12.5 M28.15 2.85 L28.65 11.5 26.5 15.0 26.65 17.2 24.15 20.0 23.45 23.3 20.1 26.9 16.15 28.1 7.75 23.95 4.35 17.25 4.25 14.55 Q-0.15 9.35 3.2 3.2 L10.3 2.65 11.85 4.1 25.45 2.0 28.15 2.85 M24.15 6.75 L23.55 7.35 Q19.95 7.2 23.85 6.2 L24.15 6.75 M20.4 7.65 Q19.25 8.25 18.25 7.45 L18.3 7.35 Q19.1 6.8 19.95 6.8 L20.25 6.85 Q20.9 7.25 20.4 7.65 M12.95 7.3 Q9.1 7.15 12.65 7.1 L12.95 7.3 M15.95 7.95 L15.9 7.9 15.85 7.95 Q14.1 6.4 16.35 7.8 L15.95 7.95 M6.2 6.15 L6.25 6.6 Q5.8 7.1 5.3 6.9 L4.05 6.0 4.1 5.6 4.35 5.35 5.0 5.55 6.1 5.9 6.2 6.15 M9.4 7.05 L8.75 7.35 Q8.15 7.2 7.95 6.85 7.1 5.3 9.4 7.05" fill="#666666" fill-rule="evenodd" stroke="none"/>
    <path d="M3.15 12.15 L4.05 5.35 9.7 2.9 12.1 4.95 18.2 5.0 27.8 3.55 Q25.55 5.65 26.35 6.1 L27.15 6.05 26.9 12.5 24.75 12.2 21.7 16.15 20.75 16.25 20.8 15.9 20.65 15.45 20.3 15.25 19.95 15.45 Q19.8 15.6 19.8 15.9 L19.9 16.3 18.9 16.35 Q19.45 19.45 17.75 19.0 L14.8 20.1 10.45 19.0 10.55 17.4 Q11.15 18.45 11.6 17.2 11.15 16.4 10.65 17.05 L10.55 17.25 Q10.45 14.85 8.65 16.3 L6.55 13.25 3.15 12.15 M23.85 6.2 Q19.95 7.2 23.55 7.35 L24.15 6.75 Q24.75 6.9 24.6 6.4 24.35 5.4 23.85 6.2 M20.4 7.65 Q20.9 7.25 20.25 6.85 L19.95 6.8 Q19.1 6.8 18.3 7.35 L18.25 7.45 Q19.25 8.25 20.4 7.65 M22.25 8.1 Q22.0 8.1 21.85 8.4 L21.65 9.15 21.85 9.9 22.25 10.2 22.7 9.9 22.85 9.15 22.7 8.4 22.25 8.1 M24.4 9.95 L24.0 10.2 Q23.85 10.5 23.85 10.85 L24.0 11.5 24.4 11.75 24.8 11.5 24.95 10.85 24.8 10.2 24.4 9.95 M20.5 10.85 L20.4 11.05 Q21.0 14.2 20.5 10.85 M12.95 7.3 L12.65 7.1 Q9.1 7.15 12.95 7.3 M15.85 7.95 Q15.35 8.35 15.4 8.55 16.55 11.65 15.95 7.95 L16.35 7.8 Q14.1 6.4 15.85 7.95 M17.0 11.75 L16.65 11.6 Q16.45 11.55 16.3 11.75 16.15 11.85 16.15 12.1 L16.3 12.5 16.65 12.65 17.0 12.5 17.15 12.1 17.0 11.75 M19.6 9.35 Q19.25 8.65 18.9 9.35 L19.0 9.55 19.45 9.8 Q19.95 9.8 19.6 9.35 M6.2 6.15 L6.1 5.9 5.0 5.55 4.35 5.35 4.1 5.6 4.05 6.0 5.3 6.9 Q5.8 7.1 6.25 6.6 L6.2 6.15 M8.75 7.35 Q9.6 11.5 9.75 7.2 L9.4 7.05 Q7.1 5.3 7.95 6.85 8.15 7.2 8.75 7.35 M7.4 7.15 Q5.65 9.7 7.55 7.3 L7.4 7.15 M10.7 14.5 Q12.15 14.75 9.95 14.1 10.3 14.5 10.7 14.5 M11.8 20.3 Q12.65 19.9 12.25 20.6 L11.8 20.3 M14.35 16.5 L14.35 16.2 13.7 15.7 13.25 15.85 12.9 16.5 12.9 17.3 Q13.25 18.2 14.0 17.95 L14.2 17.1 14.35 16.5 M13.25 15.15 L13.75 15.2 13.95 14.65 14.05 14.15 13.3 13.4 12.7 13.8 Q12.65 14.8 13.25 15.15 M16.8 16.15 L17.05 16.4 Q17.65 16.1 17.75 15.5 L17.1 14.95 Q16.3 15.45 16.8 16.15 M17.25 17.25 L16.75 17.55 Q18.1 18.4 17.25 17.25 M8.7 13.8 Q8.8 12.9 8.0 13.2 L7.75 13.5 Q7.5 14.3 8.2 14.85 8.65 15.1 8.85 14.4 L8.7 13.8 M9.9 11.65 L9.45 11.35 Q8.75 11.35 9.0 12.0 9.3 12.85 10.0 12.5 10.7 12.0 9.9 11.65" fill="#ffffff" fill-rule="evenodd" stroke="none"/>
    <path d="M26.9 12.5 L23.3 19.55 23.05 21.95 18.45 26.4 16.05 27.1 10.35 23.75 3.15 12.15 6.55 13.25 8.65 16.3 Q10.45 14.85 10.55 17.25 L10.65 17.05 Q11.15 16.4 11.6 17.2 11.15 18.45 10.55 17.4 L10.45 19.0 14.8 20.1 17.75 19.0 Q19.45 19.45 18.9 16.35 L19.9 16.3 19.8 15.9 Q19.8 15.6 19.95 15.45 L20.3 15.25 20.65 15.45 20.8 15.9 20.75 16.25 21.7 16.15 24.75 12.2 26.9 12.5 M23.85 6.2 Q24.35 5.4 24.6 6.4 24.75 6.9 24.15 6.75 L23.85 6.2 M22.25 8.1 L22.7 8.4 22.85 9.15 22.7 9.9 22.25 10.2 21.85 9.9 21.65 9.15 21.85 8.4 Q22.0 8.1 22.25 8.1 M20.5 10.85 Q21.0 14.2 20.4 11.05 L20.5 10.85 M24.4 9.95 L24.8 10.2 24.95 10.85 24.8 11.5 24.4 11.75 24.0 11.5 23.85 10.85 Q23.85 10.5 24.0 10.2 L24.4 9.95 M15.85 7.95 L15.9 7.9 15.95 7.95 Q16.55 11.65 15.4 8.55 15.35 8.35 15.85 7.95 M17.0 11.75 L17.15 12.1 17.0 12.5 16.65 12.65 16.3 12.5 16.15 12.1 Q16.15 11.85 16.3 11.75 16.45 11.55 16.65 11.6 L17.0 11.75 M19.6 9.35 Q19.95 9.8 19.45 9.8 L19.0 9.55 18.9 9.35 Q19.25 8.65 19.6 9.35 M9.4 7.05 L9.75 7.2 Q9.6 11.5 8.75 7.35 L9.4 7.05 M7.4 7.15 L7.55 7.3 Q5.65 9.7 7.4 7.15 M9.9 11.65 Q10.7 12.0 10.0 12.5 9.3 12.85 9.0 12.0 8.75 11.35 9.45 11.35 L9.9 11.65 M8.7 13.8 L8.85 14.4 Q8.65 15.1 8.2 14.85 7.5 14.3 7.75 13.5 L8.0 13.2 Q8.8 12.9 8.7 13.8 M17.25 17.25 Q18.1 18.4 16.75 17.55 L17.25 17.25 M16.8 16.15 Q16.3 15.45 17.1 14.95 L17.75 15.5 Q17.65 16.1 17.05 16.4 L16.8 16.15 M13.25 15.15 Q12.65 14.8 12.7 13.8 L13.3 13.4 14.05 14.15 13.95 14.65 13.75 15.2 13.25 15.15 M14.35 16.5 L14.2 17.1 14.0 17.95 Q13.25 18.2 12.9 17.3 L12.9 16.5 13.25 15.85 13.7 15.7 14.35 16.2 14.35 16.5 M11.8 20.3 L12.25 20.6 Q12.65 19.9 11.8 20.3 M10.7 14.5 Q10.3 14.5 9.95 14.1 12.15 14.75 10.7 14.5" fill="#cccccc" fill-rule="evenodd" stroke="none"/>
  </g>
</svg>
