<?xml version="1.0" encoding="UTF-8" standalone="no"?>
<svg xmlns:ffdec="https://www.free-decompiler.com/flash" xmlns:xlink="http://www.w3.org/1999/xlink" ffdec:objectType="shape" height="23.75px" width="27.85px" xmlns="http://www.w3.org/2000/svg">
  <g transform="matrix(1.0, 0.0, 0.0, 1.0, -1.0, -3.35)">
    <path d="M2.4 8.35 L2.1 10.1 2.15 10.05 3.0 9.85 2.5 12.1 Q2.15 14.3 2.3 14.05 L2.45 13.75 2.65 13.55 2.9 13.5 3.6 9.45 Q3.75 8.6 4.2 7.85 L3.55 13.8 3.75 13.65 4.0 14.0 Q3.5 16.3 3.25 18.75 L3.35 18.65 3.85 18.35 4.05 18.4 4.1 18.35 4.35 17.0 4.1 16.2 Q4.25 13.95 5.1 12.3 L5.25 12.5 4.55 19.15 4.65 19.25 4.8 19.2 4.85 19.25 4.95 19.25 5.25 19.85 5.2 21.1 5.65 18.35 6.0 17.95 6.0 21.45 6.35 20.3 Q6.65 21.0 6.5 21.65 6.3 22.5 6.5 23.2 L6.65 23.5 7.25 23.1 8.15 23.3 8.15 22.9 Q7.85 21.05 8.6 19.7 L8.95 20.3 9.25 24.0 8.8 24.25 8.75 25.05 9.4 24.7 Q9.3 22.5 9.6 21.1 L10.1 22.65 10.25 21.0 Q11.3 22.45 11.15 24.5 L11.5 23.5 Q11.8 22.65 11.7 21.65 L11.35 21.35 Q10.9 19.75 11.3 18.5 L11.85 19.0 12.0 21.1 12.5 21.45 Q12.65 23.45 13.8 24.9 L13.1 19.15 Q13.0 18.15 13.15 17.1 12.95 15.85 13.15 14.8 L13.4 14.0 13.5 17.9 13.6 18.5 14.4 20.9 Q15.05 20.75 14.9 19.5 14.8 18.7 14.95 18.0 L15.2 17.1 Q15.6 18.25 15.35 20.25 L15.15 22.55 15.15 25.75 15.6 25.3 Q15.45 23.2 16.1 21.45 17.0 22.8 16.95 24.9 L17.45 25.0 17.9 25.3 Q17.0 23.7 17.75 21.85 L17.9 21.85 Q18.2 21.05 18.45 22.2 L19.1 24.5 19.25 23.85 Q19.45 22.35 19.2 20.95 L18.6 20.35 Q18.6 17.3 18.25 14.65 19.05 15.15 19.05 16.65 19.1 18.25 19.6 19.85 L19.95 21.1 20.55 21.0 Q20.7 23.0 21.4 24.7 L21.9 24.15 Q21.05 22.85 21.5 21.1 L21.7 20.25 22.1 19.8 Q22.85 19.65 23.3 20.7 L23.6 21.35 22.8 17.35 Q22.6 16.45 22.75 15.45 L22.9 15.45 Q24.3 16.7 23.9 19.05 L24.4 19.6 Q24.8 19.45 24.35 18.8 23.95 18.35 24.15 17.45 24.2 17.35 24.3 17.35 L24.55 17.35 24.6 17.3 24.9 17.2 Q23.5 15.3 22.55 12.3 L22.55 12.1 22.75 12.2 23.7 14.2 23.8 13.95 24.1 13.8 Q24.8 14.7 25.2 15.9 L25.1 16.7 25.65 17.1 Q25.6 16.45 25.7 15.9 L25.9 15.55 26.25 14.95 26.5 13.4 Q25.55 11.45 25.0 9.4 L25.0 9.3 25.6 10.35 Q26.15 10.35 26.45 11.15 L26.95 12.2 27.0 10.75 26.55 10.25 26.45 9.9 26.45 9.0 26.55 9.0 27.25 9.5 27.25 9.45 27.45 8.85 27.55 8.8 27.4 8.15 27.55 7.55 Q27.35 6.0 26.5 4.5 L26.1 3.8 24.85 4.3 24.5 4.5 Q24.35 3.45 23.45 3.45 L22.85 3.8 22.7 4.0 22.8 4.9 Q22.25 4.2 21.5 4.0 21.1 4.45 21.3 5.15 L21.15 5.15 Q20.55 5.45 20.15 4.2 L20.1 4.2 19.85 5.1 19.35 4.3 18.8 3.75 18.3 4.65 17.35 4.5 Q16.65 3.7 16.4 4.7 16.05 4.95 15.85 4.5 L15.65 4.1 15.35 4.65 14.5 4.6 15.05 4.95 15.35 5.6 15.35 6.5 Q16.15 8.25 16.2 10.35 16.05 10.95 15.65 10.75 L15.3 10.45 15.15 10.1 14.75 8.45 14.35 6.9 13.45 10.05 13.05 10.35 12.85 10.05 13.15 7.9 13.4 6.5 Q13.4 5.85 13.55 5.3 L13.75 4.75 13.45 4.65 13.4 4.45 13.4 4.4 13.25 4.25 13.1 4.25 12.9 4.2 12.25 4.25 12.05 4.65 12.0 4.65 11.8 4.4 11.65 4.2 10.15 4.0 10.05 4.5 10.05 4.65 9.65 4.65 9.45 4.25 9.05 3.85 9.0 3.8 Q8.7 3.85 8.5 4.05 8.3 4.25 8.2 4.6 L7.95 4.45 7.8 4.0 7.4 3.6 7.15 3.85 6.9 4.2 6.85 4.5 6.35 4.85 5.55 4.05 4.75 4.0 4.6 4.05 4.45 3.85 4.4 3.65 3.1 3.8 2.85 4.35 1.65 7.35 1.25 8.6 1.85 7.5 Q2.05 7.4 2.3 7.25 L2.3 8.1 2.4 8.35 M26.65 3.35 L27.25 4.15 Q28.55 6.3 28.85 9.25 L28.7 9.45 28.6 9.4 28.35 10.25 28.2 10.55 28.35 11.55 28.3 11.9 28.1 12.25 27.9 12.35 Q27.55 13.25 27.4 14.8 L26.95 17.75 26.55 18.2 26.35 19.3 25.8 21.0 25.3 21.2 25.15 21.25 24.75 22.25 24.45 22.9 23.9 23.1 23.55 24.0 23.3 24.25 22.85 24.35 22.15 26.15 20.6 26.25 20.3 25.8 19.65 26.2 18.3 26.4 18.1 26.65 17.25 26.45 16.75 27.0 15.9 26.8 15.8 26.65 15.35 27.1 14.95 26.85 14.0 26.2 13.7 26.65 12.7 27.1 12.35 27.0 11.9 26.45 11.35 26.6 11.15 26.85 Q10.95 26.7 10.8 26.65 L10.6 26.4 10.45 26.25 9.7 26.8 9.5 26.65 9.1 26.0 8.8 25.9 8.45 25.7 8.25 25.35 8.0 24.4 7.55 24.5 7.25 23.95 6.7 24.4 5.3 24.0 5.0 23.1 4.8 23.1 4.5 22.85 4.2 22.5 4.05 21.15 3.7 19.5 3.65 19.45 Q3.5 19.45 3.45 19.3 3.15 19.25 2.95 19.05 L2.7 18.1 2.15 17.55 2.05 17.1 2.15 15.45 Q1.3 13.65 1.6 11.35 L1.75 9.75 Q1.75 8.85 1.9 8.0 L1.0 9.25 Q1.55 6.55 2.55 4.0 L2.8 3.35 14.1 3.45 15.25 3.35 26.65 3.35 M23.85 11.45 Q25.5 11.85 26.25 14.0 26.45 14.65 25.95 14.7 24.75 13.8 24.15 12.3 L23.85 11.45 M22.4 13.3 L22.9 15.05 Q22.7 14.65 22.65 14.25 L22.4 13.3 M21.15 15.5 L21.3 15.15 Q22.35 16.65 22.25 18.8 L22.2 19.45 21.6 18.95 21.3 17.15 21.3 17.85 21.3 18.8 Q21.6 20.6 20.9 20.8 L20.85 20.6 20.05 17.85 20.45 17.0 20.1 14.8 Q21.05 15.4 21.25 16.65 L21.15 15.5 M22.9 22.9 L23.0 22.45 22.8 22.45 22.9 22.9 M12.25 14.65 L12.7 15.3 12.5 16.2 12.25 17.05 12.05 14.95 12.25 14.65 M10.05 14.05 L10.15 13.95 10.05 15.25 10.05 14.05 M4.4 11.05 Q4.35 9.95 4.7 8.8 L5.05 9.85 Q5.1 10.6 4.45 10.95 L4.4 11.05 M8.0 14.3 L7.7 17.1 7.6 16.35 7.55 20.35 7.45 22.65 7.35 23.05 Q6.9 22.05 6.8 20.55 L6.7 19.8 6.9 19.2 Q6.15 17.25 7.45 15.55 L7.6 15.6 7.95 14.2 8.0 14.3 M6.95 14.2 L7.25 12.55 7.15 13.35 6.95 14.2 M6.0 14.2 L5.85 13.15 6.2 12.1 6.45 12.85 6.0 14.2 M5.25 16.65 Q5.2 14.5 6.1 14.65 6.2 16.3 5.6 17.7 5.25 17.8 5.25 16.65 M10.05 15.8 L9.9 17.55 9.75 18.5 Q9.45 17.8 9.45 17.05 L9.5 15.7 10.05 15.8 M8.75 16.25 Q9.7 18.1 9.25 20.45 L8.85 20.1 8.6 18.5 8.5 17.45 8.5 16.7 8.75 16.25 M3.4 14.25 Q2.85 15.2 2.7 16.65 L2.85 16.45 3.3 16.15 3.3 14.5 3.4 14.25 M5.85 21.85 L5.75 23.35 5.95 21.85 5.85 21.85 M16.45 18.2 L16.25 18.8 Q15.6 16.8 15.9 14.85 16.75 16.2 16.45 18.2 M17.15 17.45 L17.65 18.0 Q18.1 20.0 17.15 21.45 16.3 19.35 17.0 17.45 L17.15 17.45 M10.25 18.65 Q10.15 17.1 10.95 16.1 L11.05 19.4 11.05 19.8 Q10.35 20.15 10.25 18.65" fill="#57492d" fill-rule="evenodd" stroke="none"/>
    <path d="M24.85 4.3 L26.1 3.8 26.5 4.5 Q27.35 6.0 27.55 7.55 L27.4 8.15 27.55 8.8 27.45 8.85 27.25 9.45 27.25 9.5 26.55 9.0 26.45 9.0 26.45 9.9 26.55 10.25 27.0 10.75 26.95 12.2 26.45 11.15 Q26.15 10.35 25.6 10.35 L25.0 9.3 25.0 9.4 Q25.55 11.45 26.5 13.4 L26.25 14.95 25.9 15.55 25.7 15.9 Q25.6 16.45 25.65 17.1 L25.1 16.7 25.2 15.9 Q24.8 14.7 24.1 13.8 L23.8 13.95 23.7 14.2 22.75 12.2 22.55 12.1 22.55 12.3 Q23.5 15.3 24.9 17.2 L24.6 17.3 24.55 17.35 24.3 17.35 Q24.2 17.35 24.15 17.45 23.95 18.35 24.35 18.8 24.8 19.45 24.4 19.6 L23.9 19.05 Q24.3 16.7 22.9 15.45 L22.75 15.45 Q22.6 16.45 22.8 17.35 L23.6 21.35 23.3 20.7 Q22.85 19.65 22.1 19.8 L21.7 20.25 21.5 21.1 Q21.05 22.85 21.9 24.15 L21.4 24.7 Q20.7 23.0 20.55 21.0 L19.95 21.1 19.6 19.85 Q19.1 18.25 19.05 16.65 19.05 15.15 18.25 14.65 18.6 17.3 18.6 20.35 L19.2 20.95 Q19.45 22.35 19.25 23.85 L19.1 24.5 18.45 22.2 Q18.2 21.05 17.9 21.85 L17.75 21.85 Q17.0 23.7 17.9 25.3 L17.45 25.0 16.95 24.9 Q17.0 22.8 16.1 21.45 15.45 23.2 15.6 25.3 L15.15 25.75 15.15 22.55 15.35 20.25 Q15.6 18.25 15.2 17.1 L14.95 18.0 Q14.8 18.7 14.9 19.5 15.05 20.75 14.4 20.9 L13.6 18.5 13.5 17.9 13.4 14.0 13.15 14.8 Q12.95 15.85 13.15 17.1 13.0 18.15 13.1 19.15 L13.8 24.9 Q12.65 23.45 12.5 21.45 L12.0 21.1 11.85 19.0 11.3 18.5 Q10.9 19.75 11.35 21.35 L11.7 21.65 Q11.8 22.65 11.5 23.5 L11.15 24.5 Q11.3 22.45 10.25 21.0 L10.1 22.65 9.6 21.1 Q9.3 22.5 9.4 24.7 L8.75 25.05 8.8 24.25 9.25 24.0 8.95 20.3 8.6 19.7 Q7.85 21.05 8.15 22.9 L8.15 23.3 7.25 23.1 6.65 23.5 6.5 23.2 Q6.3 22.5 6.5 21.65 6.65 21.0 6.35 20.3 L6.0 21.45 6.0 17.95 5.65 18.35 5.2 21.1 5.25 19.85 4.95 19.25 4.85 19.25 4.8 19.2 4.65 19.25 4.55 19.15 5.25 12.5 5.1 12.3 Q4.25 13.95 4.1 16.2 L4.35 17.0 4.1 18.35 4.05 18.4 3.85 18.35 3.35 18.65 3.25 18.75 Q3.5 16.3 4.0 14.0 L3.75 13.65 3.55 13.8 4.2 7.85 Q3.75 8.6 3.6 9.45 L2.9 13.5 2.65 13.55 2.45 13.75 2.3 14.05 Q2.15 14.3 2.5 12.1 L3.0 9.85 2.15 10.05 2.1 10.1 2.4 8.35 2.95 7.45 3.8 5.25 3.9 4.2 2.3 7.25 Q2.05 7.4 1.85 7.5 L1.25 8.6 1.65 7.35 2.85 4.35 3.1 3.8 4.4 3.65 4.45 3.85 4.6 4.05 4.75 4.0 5.55 4.05 6.35 4.85 6.85 4.5 6.9 4.2 7.15 3.85 7.4 3.6 7.8 4.0 7.95 4.45 8.2 4.6 Q8.3 4.25 8.5 4.05 8.7 3.85 9.0 3.8 L9.05 3.85 9.45 4.25 9.65 4.65 10.05 4.65 10.05 4.5 10.15 4.0 11.65 4.2 11.8 4.4 12.0 4.65 12.05 4.65 12.25 4.25 12.9 4.2 13.1 4.25 13.25 4.25 13.4 4.4 13.4 4.45 13.45 4.65 13.75 4.75 13.55 5.3 Q13.4 5.85 13.4 6.5 L13.15 7.9 12.95 8.0 Q12.3 8.7 12.85 10.05 L13.05 10.35 13.45 10.05 14.35 6.9 14.75 8.45 14.35 9.45 14.55 9.7 15.15 10.1 15.3 10.45 Q15.4 13.0 16.2 15.15 L16.5 12.25 16.8 12.75 17.7 14.7 18.0 14.9 Q18.6 12.5 17.8 10.6 L17.45 10.5 16.75 10.6 16.5 10.8 16.2 10.35 Q16.15 8.25 15.35 6.5 L15.35 5.6 15.05 4.95 14.5 4.6 15.35 4.65 15.65 4.1 15.85 4.5 Q16.05 4.95 16.4 4.7 16.65 3.7 17.35 4.5 L18.3 4.65 18.8 3.75 19.35 4.3 19.85 5.1 20.1 4.2 20.15 4.2 Q20.55 5.45 21.15 5.15 L21.3 5.15 Q21.1 4.45 21.5 4.0 22.25 4.2 22.8 4.9 L22.7 4.0 22.85 3.8 23.45 3.45 Q24.35 3.45 24.5 4.5 L24.05 5.4 23.75 5.7 23.7 5.75 23.6 5.75 23.15 5.9 23.2 5.9 Q23.55 7.4 24.4 8.45 L25.05 8.35 24.7 6.35 25.5 7.25 Q26.3 8.8 27.0 8.15 L26.3 7.25 26.2 6.15 26.95 6.8 25.95 4.85 25.45 4.3 24.85 4.3 M22.6 5.95 L22.5 6.05 Q22.3 8.35 23.85 10.05 L23.9 9.95 Q23.35 8.9 23.1 7.5 L23.15 7.5 23.8 8.3 23.8 8.15 23.1 6.25 22.75 6.0 22.6 5.95 M20.45 5.8 Q20.2 5.8 20.0 5.6 L19.35 7.5 19.45 7.95 19.8 8.55 19.85 8.55 19.35 8.95 Q19.7 11.15 20.5 12.95 L21.3 12.85 21.2 12.65 Q20.5 11.5 20.8 10.25 L21.65 11.4 21.6 10.7 Q22.45 11.7 23.25 11.35 L23.3 10.75 22.55 8.85 Q21.8 7.5 20.8 7.45 L21.0 7.05 21.3 6.25 21.25 6.15 Q20.95 5.8 20.45 5.8 M21.3 8.55 L22.8 11.4 Q22.1 10.75 21.4 9.05 L21.3 8.55 M22.9 22.9 L22.8 22.45 23.0 22.45 22.9 22.9 M21.15 15.5 L21.25 16.65 Q21.05 15.4 20.1 14.8 L20.45 17.0 20.05 17.85 20.85 20.6 20.9 20.8 Q21.6 20.6 21.3 18.8 L21.3 17.85 21.3 17.15 21.6 18.95 22.2 19.45 22.25 18.8 Q22.35 16.65 21.3 15.15 L21.15 15.5 M22.4 13.3 L22.65 14.25 Q22.7 14.65 22.9 15.05 L22.4 13.3 M23.85 11.45 L24.15 12.3 Q24.75 13.8 25.95 14.7 26.45 14.65 26.25 14.0 25.5 11.85 23.85 11.45 M12.25 14.65 L12.4 12.1 Q12.5 10.8 11.8 10.35 L11.1 11.05 11.3 11.55 11.15 14.05 11.25 14.4 11.35 13.1 11.8 12.5 12.1 13.0 11.9 14.95 12.05 14.95 12.25 17.05 12.5 16.2 12.7 15.3 12.25 14.65 M12.15 8.1 Q12.5 7.25 11.95 7.05 10.65 8.4 11.45 9.65 L12.15 8.1 M10.2 8.85 Q10.8 8.0 10.95 6.9 L10.5 5.9 10.15 6.45 Q9.85 7.7 10.2 8.85 M10.15 13.95 Q10.3 12.2 10.85 10.4 L10.95 9.85 10.6 9.25 Q9.6 11.25 9.85 13.35 L10.05 14.05 10.05 15.25 10.15 13.95 M16.4 8.1 L16.35 8.1 Q15.75 9.25 16.8 9.85 L16.95 9.5 Q17.25 8.8 16.9 8.3 L16.4 8.1 M17.8 8.8 L18.0 9.1 18.15 9.2 18.7 9.1 18.7 7.95 17.9 7.0 17.7 7.0 17.5 7.85 17.8 8.8 M19.65 10.95 Q19.3 9.9 18.55 9.85 L18.4 10.5 Q18.2 12.55 19.35 14.0 L19.65 14.15 19.35 11.25 19.5 11.35 Q19.55 11.3 19.6 11.4 L19.8 11.7 19.8 11.45 19.65 10.95 M5.4 6.0 L5.35 6.05 5.1 7.65 Q5.75 7.25 5.5 8.85 5.35 9.9 5.55 9.85 6.95 8.4 6.65 6.35 L6.35 5.15 5.3 4.5 4.5 5.7 4.3 6.25 4.25 7.75 5.35 6.05 5.4 6.0 M9.7 5.05 L9.05 6.4 9.1 6.65 9.5 6.6 9.65 6.4 9.9 5.6 9.7 5.05 M4.4 11.05 L4.45 10.95 Q5.1 10.6 5.05 9.85 L4.7 8.8 Q4.35 9.95 4.4 11.05 M8.4 6.65 L8.3 6.35 8.2 6.2 Q7.95 6.0 7.7 5.9 L7.45 6.35 Q6.65 7.8 6.35 9.9 L6.25 11.05 7.45 9.25 6.9 11.6 8.0 9.5 8.6 9.75 Q8.85 11.65 8.05 13.35 L8.95 13.4 9.3 12.3 9.25 12.1 9.0 12.1 Q9.4 9.9 8.8 7.85 L7.9 8.15 Q8.45 7.4 8.4 6.65 M6.1 8.75 L5.65 9.6 5.75 8.3 6.05 7.05 Q6.6 7.5 6.1 8.75 M6.95 14.2 L7.15 13.35 7.25 12.55 6.95 14.2 M8.0 14.3 L7.95 14.2 7.6 15.6 7.45 15.55 Q6.15 17.25 6.9 19.2 L6.7 19.8 6.8 20.55 Q6.9 22.05 7.35 23.05 L7.45 22.65 7.55 20.35 7.6 16.35 7.7 17.1 8.0 14.3 M6.0 14.2 L6.45 12.85 6.2 12.1 5.85 13.15 6.0 14.2 M17.15 17.45 L17.0 17.45 Q16.3 19.35 17.15 21.45 18.1 20.0 17.65 18.0 L17.15 17.45 M16.45 18.2 Q16.75 16.2 15.9 14.85 15.6 16.8 16.25 18.8 L16.45 18.2 M5.85 21.85 L5.95 21.85 5.75 23.35 5.85 21.85 M3.4 14.25 L3.3 14.5 3.3 16.15 2.85 16.45 2.7 16.65 Q2.85 15.2 3.4 14.25 M8.75 16.25 L8.5 16.7 8.5 17.45 8.6 18.5 8.85 20.1 9.25 20.45 Q9.7 18.1 8.75 16.25 M10.05 15.8 L9.5 15.7 9.45 17.05 Q9.45 17.8 9.75 18.5 L9.9 17.55 10.05 15.8 M5.25 16.65 Q5.25 17.8 5.6 17.7 6.2 16.3 6.1 14.65 5.2 14.5 5.25 16.65 M15.35 15.15 Q15.25 14.05 15.3 12.55 15.35 11.0 14.4 10.35 13.5 11.8 14.15 13.6 L14.85 14.85 15.35 15.15 M10.25 18.65 Q10.35 20.15 11.05 19.8 L11.05 19.4 10.95 16.1 Q10.15 17.1 10.25 18.65" fill="#836b45" fill-rule="evenodd" stroke="none"/>
    <path d="M24.85 4.3 L25.45 4.3 25.95 4.85 26.95 6.8 26.2 6.15 26.3 7.25 27.0 8.15 Q26.3 8.8 25.5 7.25 L24.7 6.35 25.05 8.35 24.4 8.45 Q23.55 7.4 23.2 5.9 L23.15 5.9 23.6 5.75 23.7 5.75 23.75 5.7 24.05 5.4 24.5 4.5 24.85 4.3 M16.2 10.35 L16.5 10.8 16.75 10.6 17.45 10.5 17.8 10.6 Q18.6 12.5 18.0 14.9 L17.7 14.7 16.8 12.75 16.5 12.25 16.2 15.15 Q15.4 13.0 15.3 10.45 L15.65 10.75 Q16.05 10.95 16.2 10.35 M15.15 10.1 L14.55 9.7 14.35 9.45 14.75 8.45 15.15 10.1 M12.85 10.05 Q12.3 8.7 12.95 8.0 L13.15 7.9 12.85 10.05 M2.3 7.25 L3.9 4.2 3.8 5.25 2.95 7.45 2.4 8.35 2.3 8.1 2.3 7.25 M20.45 5.8 Q20.95 5.8 21.25 6.15 L21.3 6.25 21.0 7.05 20.8 7.45 Q21.8 7.5 22.55 8.85 L23.3 10.75 23.25 11.35 Q22.45 11.7 21.6 10.7 L21.65 11.4 20.8 10.25 Q20.5 11.5 21.2 12.65 L21.3 12.85 20.5 12.95 Q19.7 11.15 19.35 8.95 L19.85 8.55 19.8 8.55 19.45 7.95 19.35 7.5 20.0 5.6 Q20.2 5.8 20.45 5.8 M22.6 5.95 L22.75 6.0 23.1 6.25 23.8 8.15 23.8 8.3 23.15 7.5 23.1 7.5 Q23.35 8.9 23.9 9.95 L23.85 10.05 Q22.3 8.35 22.5 6.05 L22.6 5.95 M21.3 8.55 L21.4 9.05 Q22.1 10.75 22.8 11.4 L21.3 8.55 M10.2 8.85 Q9.85 7.7 10.15 6.45 L10.5 5.9 10.95 6.9 Q10.8 8.0 10.2 8.85 M12.15 8.1 L11.45 9.65 Q10.65 8.4 11.95 7.05 12.5 7.25 12.15 8.1 M12.05 14.95 L11.9 14.95 12.1 13.0 11.8 12.5 11.35 13.1 11.25 14.4 11.15 14.05 11.3 11.55 11.1 11.05 11.8 10.35 Q12.5 10.8 12.4 12.1 L12.25 14.65 12.05 14.95 M10.05 14.05 L9.85 13.35 Q9.6 11.25 10.6 9.25 L10.95 9.85 10.85 10.4 Q10.3 12.2 10.15 13.95 L10.05 14.05 M17.8 8.8 L17.5 7.85 17.7 7.0 17.9 7.0 18.7 7.95 18.7 9.1 18.15 9.2 18.0 9.1 17.8 8.8 M16.4 8.1 L16.9 8.3 Q17.25 8.8 16.95 9.5 L16.8 9.85 Q15.75 9.25 16.35 8.1 L16.4 8.1 M19.65 10.95 L19.8 11.45 19.8 11.7 19.6 11.4 Q19.55 11.3 19.5 11.35 L19.35 11.25 19.65 14.15 19.35 14.0 Q18.2 12.55 18.4 10.5 L18.55 9.85 Q19.3 9.9 19.65 10.95 M9.7 5.05 L9.9 5.6 9.65 6.4 9.5 6.6 9.1 6.65 9.05 6.4 9.7 5.05 M5.4 6.0 L5.35 6.05 4.25 7.75 4.3 6.25 4.5 5.7 5.3 4.5 6.35 5.15 6.65 6.35 Q6.95 8.4 5.55 9.85 5.35 9.9 5.5 8.85 5.75 7.25 5.1 7.65 L5.35 6.05 5.4 6.0 M8.4 6.65 Q8.45 7.4 7.9 8.15 L8.8 7.85 Q9.4 9.9 9.0 12.1 L9.25 12.1 9.3 12.3 8.95 13.4 8.05 13.35 Q8.85 11.65 8.6 9.75 L8.0 9.5 6.9 11.6 7.45 9.25 6.25 11.05 6.35 9.9 Q6.65 7.8 7.45 6.35 L7.7 5.9 Q7.95 6.0 8.2 6.2 L8.3 6.35 8.4 6.65 M6.1 8.75 Q6.6 7.5 6.05 7.05 L5.75 8.3 5.65 9.6 6.1 8.75 M15.35 15.15 L14.85 14.85 14.15 13.6 Q13.5 11.8 14.4 10.35 15.35 11.0 15.3 12.55 15.25 14.05 15.35 15.15" fill="#aa8d60" fill-rule="evenodd" stroke="none"/>
  </g>
</svg>
