<?xml version="1.0" encoding="UTF-8" standalone="no"?>
<svg xmlns:ffdec="https://www.free-decompiler.com/flash" xmlns:xlink="http://www.w3.org/1999/xlink" ffdec:objectType="shape" height="8.7px" width="15.8px" xmlns="http://www.w3.org/2000/svg">
  <g transform="matrix(1.0, 0.0, 0.0, 1.0, 9.3, 7.2)">
    <path d="M5.75 -7.15 L5.7 -7.1 6.0 -6.9 6.5 -4.45 5.4 -3.5 4.0 -2.35 3.15 -1.45 2.55 -0.8 2.15 -0.25 2.0 0.0 1.85 0.2 1.75 0.3 0.75 1.2 0.05 1.5 -1.2 1.2 -1.3 1.15 -1.45 1.05 -2.55 0.4 -3.5 0.1 -4.35 -0.05 -6.25 0.0 -8.2 -0.15 -8.8 -0.2 -9.3 -0.4 -9.25 -1.15 -9.15 -3.4 -6.65 -3.0 -4.55 -3.05 0.0 -3.9 2.65 -4.95 Q4.35 -5.8 5.65 -7.2 L5.75 -7.15 M6.15 -4.75 L6.1 -5.35 6.05 -5.65 5.65 -6.55 5.5 -6.6 3.8 -5.3 3.95 -5.3 2.4 -4.5 Q0.4 -3.7 -1.7 -3.3 L-1.75 -3.3 -3.1 -3.1 -6.5 -2.8 -8.9 -3.0 Q-9.2 -2.95 -9.15 -2.25 L-9.1 -0.65 -9.05 -0.55 -4.45 -0.4 -2.75 -0.4 -2.35 -0.4 -1.55 -0.4 0.35 -0.45 1.35 -0.55 1.7 -0.7 2.65 -1.5 3.15 -2.2 3.2 -2.4 3.15 -2.45 2.7 -3.75 3.25 -2.9 3.6 -2.45 4.9 -3.45 6.1 -4.55 6.15 -4.75 M-1.25 0.35 L-2.05 0.3 -2.0 0.35 Q-1.8 0.4 -1.55 0.55 L-1.3 0.7 -0.75 1.0 -0.65 1.0 0.25 1.0 0.35 0.95 0.35 0.9 0.35 0.85 1.1 0.2 1.05 0.2 -0.65 0.45 -1.25 0.35" fill="#57492d" fill-rule="evenodd" stroke="none"/>
    <path d="M-8.9 -3.0 L-6.5 -2.8 -3.1 -3.1 -1.75 -3.3 -1.7 -3.3 Q0.4 -3.7 2.4 -4.5 L3.95 -5.3 3.8 -5.3 5.5 -6.6 5.65 -6.55 6.05 -5.65 6.1 -5.35 6.15 -4.75 Q5.65 -4.3 5.65 -4.8 L5.6 -4.9 Q5.05 -5.05 4.45 -4.6 L4.25 -3.1 3.25 -2.9 2.7 -3.75 3.15 -2.45 Q2.75 -1.6 1.7 -1.25 L-0.1 -1.4 -2.0 -1.6 -2.95 -1.4 -7.45 -1.3 -7.9 -0.9 -8.2 -0.95 -8.6 -1.35 -8.7 -1.55 -8.7 -1.65 Q-8.5 -2.1 -8.65 -2.2 L-8.9 -3.0" fill="#aca488" fill-rule="evenodd" stroke="none"/>
    <path d="M6.15 -4.75 L6.1 -4.55 4.9 -3.45 3.6 -2.45 3.25 -2.9 4.25 -3.1 4.45 -4.6 Q5.05 -5.05 5.6 -4.9 L5.65 -4.8 Q5.65 -4.3 6.15 -4.75 M3.15 -2.45 L3.2 -2.4 3.15 -2.2 2.65 -1.5 1.7 -0.7 1.35 -0.55 0.35 -0.45 -1.55 -0.4 -2.35 -0.4 -2.75 -0.4 -4.45 -0.4 -9.05 -0.55 -9.1 -0.65 -9.15 -2.25 Q-9.2 -2.95 -8.9 -3.0 L-8.65 -2.2 Q-8.5 -2.1 -8.7 -1.65 L-8.7 -1.55 -8.6 -1.35 -8.2 -0.95 -7.9 -0.9 -7.45 -1.3 -2.95 -1.4 -2.0 -1.6 -0.1 -1.4 1.7 -1.25 Q2.75 -1.6 3.15 -2.45 M-1.25 0.35 L-0.65 0.45 1.05 0.2 1.1 0.2 0.35 0.85 0.35 0.9 0.35 0.95 0.25 1.0 -0.65 1.0 -0.75 1.0 -1.3 0.7 -1.55 0.55 Q-1.8 0.4 -2.0 0.35 L-2.05 0.3 -1.25 0.35" fill="#796d55" fill-rule="evenodd" stroke="none"/>
  </g>
</svg>
