<?xml version="1.0" encoding="UTF-8" standalone="no"?>
<svg xmlns:ffdec="https://www.free-decompiler.com/flash" xmlns:xlink="http://www.w3.org/1999/xlink" ffdec:objectType="shape" height="24.85px" width="27.45px" xmlns="http://www.w3.org/2000/svg">
  <g transform="matrix(1.0, 0.0, 0.0, 1.0, -1.4, -2.55)">
    <path d="M27.25 2.55 L27.75 3.2 Q27.8 4.35 28.3 5.45 L28.3 6.25 28.55 7.95 28.85 11.1 28.0 12.95 27.65 13.0 27.3 13.25 26.9 13.9 26.35 14.15 Q25.65 14.9 25.55 16.0 L25.05 16.75 Q23.8 18.6 22.7 20.95 L21.1 23.6 20.7 24.55 Q20.0 25.95 18.8 26.6 L17.65 27.05 15.2 27.4 14.4 27.2 Q12.35 26.9 10.9 24.95 10.35 24.2 10.4 23.15 L9.7 22.65 Q8.75 21.9 8.3 20.65 7.65 18.95 6.5 18.0 L6.4 17.2 Q5.55 17.1 5.2 16.2 4.8 15.1 3.8 14.7 2.7 13.95 2.4 12.7 L1.4 11.9 1.55 10.4 1.75 7.7 Q1.85 5.1 2.45 3.0 3.7 2.55 4.75 3.95 L6.3 4.4 7.7 4.75 11.9 5.1 13.85 5.45 17.95 5.0 22.3 4.5 Q23.55 4.45 24.8 3.75 L26.15 3.15 Q26.75 3.2 27.25 2.55 M22.2 17.75 L21.95 17.05 21.95 14.8 Q22.1 13.25 23.25 12.8 L23.95 13.35 Q24.8 14.0 24.65 15.55 L24.9 15.3 25.9 13.95 Q26.3 13.65 26.3 12.95 L27.85 11.3 28.1 10.65 27.7 7.75 26.9 3.65 Q25.8 3.9 24.85 4.85 L24.95 5.45 Q25.05 6.6 24.45 7.2 L24.85 5.95 24.85 5.45 23.85 4.8 23.5 5.3 23.05 6.6 23.2 7.45 22.85 6.8 22.55 5.45 19.55 5.85 19.5 6.25 19.4 6.6 19.25 6.85 18.05 6.85 17.65 5.95 13.25 6.4 12.75 6.0 10.55 6.1 Q11.25 7.1 10.95 8.4 10.65 9.6 9.95 10.1 L9.0 10.25 8.45 9.8 8.25 9.05 Q7.8 7.15 8.95 5.9 7.1 5.95 5.5 4.85 L4.7 4.95 3.4 3.9 2.8 4.1 Q2.9 7.45 2.2 10.7 L2.35 11.6 3.05 12.05 3.25 12.95 5.15 14.6 Q5.15 12.1 6.8 11.0 L7.35 11.55 Q8.75 13.4 7.55 15.65 L7.35 15.85 7.35 15.9 5.95 15.75 Q6.0 16.15 6.7 16.2 L7.1 16.45 7.35 17.0 7.35 17.7 Q8.0 18.4 8.7 18.2 9.75 18.65 9.8 20.05 L9.85 21.4 10.45 22.05 Q11.2 24.3 12.85 25.45 13.2 24.5 13.95 23.65 L14.5 23.25 Q16.6 23.2 16.6 25.9 17.95 25.45 19.1 24.85 L19.95 24.0 23.05 18.15 22.4 17.9 Q22.3 17.75 22.2 17.75 M23.05 18.15 L23.1 18.15 23.05 18.15 M20.6 8.35 L21.2 8.5 Q22.0 8.9 21.95 10.1 L21.7 11.55 21.15 12.6 Q20.55 13.45 19.8 12.75 18.85 12.05 19.25 10.3 19.55 8.85 20.6 8.35 M21.75 9.85 L20.9 9.2 20.3 9.65 19.95 10.25 20.05 12.0 20.65 12.55 Q21.45 12.35 21.7 11.45 L21.8 11.0 21.9 10.45 21.75 9.85 M24.95 11.65 L25.85 11.75 26.4 10.95 26.65 10.3 Q26.9 9.35 26.25 8.65 L25.75 8.2 Q24.4 9.1 24.8 11.2 L24.95 11.65 M26.1 7.35 Q27.05 7.85 27.1 9.1 27.25 11.25 25.8 12.3 24.95 12.4 24.65 11.2 23.95 8.4 26.1 7.35 M24.25 14.1 Q23.7 13.45 23.05 13.7 22.2 14.8 22.65 16.65 L23.4 17.05 24.15 16.55 24.45 15.2 24.25 14.1 M16.3 8.9 Q16.5 10.5 15.15 11.65 L14.4 11.15 Q12.85 9.0 14.75 7.0 14.95 6.85 15.15 7.0 15.75 7.25 16.0 7.9 L16.3 8.9 15.85 8.2 15.45 7.8 14.7 8.25 14.25 10.3 14.9 10.7 15.4 10.85 Q15.95 10.3 16.15 9.5 L16.3 8.9 M10.45 7.9 L10.55 7.35 10.1 6.65 9.75 6.25 9.35 6.55 9.1 7.0 9.05 8.7 9.15 9.05 10.15 8.95 10.45 7.9 M11.5 11.9 Q11.15 11.9 10.95 12.25 10.7 12.6 10.7 13.15 10.7 13.65 10.95 14.0 11.15 14.35 11.5 14.35 11.85 14.35 12.1 14.0 L12.3 13.15 12.1 12.25 Q11.85 11.9 11.5 11.9 M10.4 12.0 Q10.75 11.15 11.55 10.95 13.5 12.5 12.35 14.95 11.75 16.25 10.7 16.1 L10.25 15.25 Q9.65 13.6 10.4 12.0 M3.95 8.05 L4.2 8.9 4.4 9.2 Q5.2 9.55 5.45 8.45 L5.85 7.05 5.7 6.55 4.9 5.9 4.2 6.55 3.95 8.05 M4.6 10.25 L4.3 10.1 Q3.05 8.75 3.6 7.0 L4.3 6.15 5.1 5.65 Q6.65 6.85 5.8 9.05 5.4 10.2 4.6 10.25 M6.45 12.05 Q5.8 12.95 5.9 14.15 L6.25 14.55 7.0 14.7 Q7.7 14.05 7.5 12.9 7.3 12.0 6.7 12.0 L6.45 12.05 M11.45 19.6 Q11.7 17.85 12.85 17.25 13.85 17.3 14.25 18.5 L14.1 20.8 14.0 21.05 13.4 22.05 12.4 22.3 12.0 21.9 Q11.2 20.8 11.45 19.6 M17.2 20.85 Q17.65 19.15 18.75 18.7 L19.75 19.15 19.9 19.65 19.6 19.4 19.15 19.25 Q17.5 20.3 18.5 22.25 19.65 22.4 19.95 20.9 L20.05 20.65 Q20.0 22.8 18.4 23.4 17.5 23.4 17.1 22.3 L17.2 20.85 M18.3 14.4 L17.55 13.85 Q15.95 14.1 16.3 16.0 L16.4 16.35 17.15 16.65 18.15 15.9 18.3 14.85 18.3 14.4 M16.95 12.7 Q17.3 12.75 17.65 13.0 L18.4 14.1 Q19.0 15.35 18.4 16.75 17.7 18.2 16.3 17.9 15.4 17.3 15.3 16.2 15.05 13.65 16.95 12.7 M13.9 19.25 L13.75 18.7 13.0 18.1 12.45 18.6 12.05 19.35 Q11.85 20.3 12.65 21.15 13.25 21.35 13.55 20.4 L13.9 19.25 M15.2 23.85 L14.45 24.15 Q14.0 24.6 14.1 25.5 L14.25 25.95 15.1 26.35 15.4 26.4 Q16.0 25.95 15.95 24.95 L15.9 24.5 15.2 23.85" fill="#6a713e" fill-rule="evenodd" stroke="none"/>
    <path d="M24.45 7.2 Q25.05 6.6 24.95 5.45 L24.85 4.85 Q25.8 3.9 26.9 3.65 L27.7 7.75 28.1 10.65 27.85 11.3 26.3 12.95 Q26.3 13.65 25.9 13.95 L24.9 15.3 24.65 15.55 Q24.8 14.0 23.95 13.35 L23.25 12.8 Q22.1 13.25 21.95 14.8 L21.95 17.05 22.2 17.75 20.05 20.45 20.05 20.25 19.9 19.65 19.75 19.15 18.75 18.7 Q17.65 19.15 17.2 20.85 L15.45 21.1 14.2 20.85 Q14.15 20.75 14.1 20.8 L14.25 18.5 Q13.85 17.3 12.85 17.25 11.7 17.85 11.45 19.6 L9.5 17.65 Q8.6 16.8 8.05 15.7 L7.55 15.65 Q8.75 13.4 7.35 11.55 L6.8 11.0 Q5.15 12.1 5.15 14.6 L3.25 12.95 3.05 12.05 2.35 11.6 2.2 10.7 Q2.9 7.45 2.8 4.1 L3.4 3.9 4.7 4.95 5.5 4.85 Q7.1 5.95 8.95 5.9 7.8 7.15 8.25 9.05 L8.45 9.8 9.0 10.25 9.95 10.1 Q10.65 9.6 10.95 8.4 11.25 7.1 10.55 6.1 L12.75 6.0 13.25 6.4 17.65 5.95 18.05 6.85 19.25 6.85 19.4 6.6 19.5 6.25 19.55 5.85 22.55 5.45 22.85 6.8 23.2 7.45 24.05 7.35 24.45 7.2 M23.05 18.15 L23.1 18.15 23.05 18.15 M7.35 15.9 L7.35 15.85 7.35 15.9 M20.6 8.35 Q19.55 8.85 19.25 10.3 18.85 12.05 19.8 12.75 20.55 13.45 21.15 12.6 L21.7 11.55 21.95 10.1 Q22.0 8.9 21.2 8.5 L20.6 8.35 M26.1 7.35 Q23.95 8.4 24.65 11.2 24.95 12.4 25.8 12.3 27.25 11.25 27.1 9.1 27.05 7.85 26.1 7.35 M16.3 8.9 L16.0 7.9 Q15.75 7.25 15.15 7.0 14.95 6.85 14.75 7.0 12.85 9.0 14.4 11.15 L15.15 11.65 Q16.5 10.5 16.3 8.9 M10.4 12.0 Q9.65 13.6 10.25 15.25 L10.7 16.1 Q11.75 16.25 12.35 14.95 13.5 12.5 11.55 10.95 10.75 11.15 10.4 12.0 M4.6 10.25 Q5.4 10.2 5.8 9.05 6.65 6.85 5.1 5.65 L4.3 6.15 3.6 7.0 Q3.05 8.75 4.3 10.1 L4.6 10.25 M16.95 12.7 Q15.05 13.65 15.3 16.2 15.4 17.3 16.3 17.9 17.7 18.2 18.4 16.75 19.0 15.35 18.4 14.1 L17.65 13.0 Q17.3 12.75 16.95 12.7" fill="#ffff99" fill-rule="evenodd" stroke="none"/>
    <path d="M22.2 17.75 Q22.3 17.75 22.4 17.9 L23.05 18.15 19.95 24.0 19.1 24.85 Q17.95 25.45 16.6 25.9 16.6 23.2 14.5 23.25 L13.95 23.65 Q13.2 24.5 12.85 25.45 11.2 24.3 10.45 22.05 L9.85 21.4 9.8 20.05 Q9.75 18.65 8.7 18.2 8.0 18.4 7.35 17.7 L7.35 17.0 7.1 16.45 6.7 16.2 Q6.0 16.15 5.95 15.75 L7.35 15.9 7.35 15.85 7.55 15.65 8.05 15.7 Q8.6 16.8 9.5 17.65 L11.45 19.6 Q11.2 20.8 12.0 21.9 L12.4 22.3 13.4 22.05 14.0 21.05 14.1 20.8 Q14.15 20.75 14.2 20.85 L15.45 21.1 17.2 20.85 17.1 22.3 Q17.5 23.4 18.4 23.4 20.0 22.8 20.05 20.65 L20.0 20.6 20.0 20.5 20.05 20.45 22.2 17.75" fill="#c7c763" fill-rule="evenodd" stroke="none"/>
    <path d="M23.2 7.45 L23.05 6.6 23.5 5.3 23.85 4.8 24.85 5.45 24.85 5.95 24.45 7.2 24.05 7.35 23.2 7.45 M24.95 11.65 L24.8 11.2 Q24.4 9.1 25.75 8.2 L26.25 8.65 Q26.9 9.35 26.65 10.3 L26.4 10.95 25.85 11.75 24.95 11.65 M21.75 9.85 L21.9 10.45 21.8 11.0 21.7 11.45 Q21.45 12.35 20.65 12.55 L20.05 12.0 19.95 10.25 20.3 9.65 20.9 9.2 21.75 9.85 M24.25 14.1 L24.45 15.2 24.15 16.55 23.4 17.05 22.65 16.65 Q22.2 14.8 23.05 13.7 23.7 13.45 24.25 14.1 M16.3 8.9 L16.15 9.5 Q15.95 10.3 15.4 10.85 L14.9 10.7 14.25 10.3 14.7 8.25 15.45 7.8 15.85 8.2 16.3 8.9 M11.5 11.9 Q11.85 11.9 12.1 12.25 L12.3 13.15 12.1 14.0 Q11.85 14.35 11.5 14.35 11.15 14.35 10.95 14.0 10.7 13.65 10.7 13.15 10.7 12.6 10.95 12.25 11.15 11.9 11.5 11.9 M10.45 7.9 L10.15 8.95 9.15 9.05 9.05 8.7 9.1 7.0 9.35 6.55 9.75 6.25 10.1 6.65 10.55 7.35 10.45 7.9 M3.95 8.05 L4.2 6.55 4.9 5.9 5.7 6.55 5.85 7.05 5.45 8.45 Q5.2 9.55 4.4 9.2 L4.2 8.9 3.95 8.05 M6.45 12.05 L6.7 12.0 Q7.3 12.0 7.5 12.9 7.7 14.05 7.0 14.7 L6.25 14.55 5.9 14.15 Q5.8 12.95 6.45 12.05 M19.9 19.65 L20.05 20.25 20.05 20.45 20.0 20.5 20.0 20.6 20.05 20.65 19.95 20.9 Q19.65 22.4 18.5 22.25 17.5 20.3 19.15 19.25 L19.6 19.4 19.9 19.65 M18.3 14.4 L18.3 14.85 18.15 15.9 17.15 16.65 16.4 16.35 16.3 16.0 Q15.95 14.1 17.55 13.85 L18.3 14.4 M13.9 19.25 L13.55 20.4 Q13.25 21.35 12.65 21.15 11.85 20.3 12.05 19.35 L12.45 18.6 13.0 18.1 13.75 18.7 13.9 19.25 M15.2 23.85 L15.9 24.5 15.95 24.95 Q16.0 25.95 15.4 26.4 L15.1 26.35 14.25 25.95 14.1 25.5 Q14.0 24.6 14.45 24.15 L15.2 23.85" fill="#414224" fill-rule="evenodd" stroke="none"/>
  </g>
</svg>
