<?xml version="1.0" encoding="UTF-8" standalone="no"?>
<svg xmlns:ffdec="https://www.free-decompiler.com/flash" xmlns:xlink="http://www.w3.org/1999/xlink" ffdec:objectType="shape" height="24.0px" width="28.5px" xmlns="http://www.w3.org/2000/svg">
  <g transform="matrix(1.0, 0.0, 0.0, 1.0, -0.8, -3.2)">
    <path d="M25.5 3.35 L27.1 3.2 27.5 7.15 27.7 7.85 Q28.7 10.5 29.3 13.2 28.7 13.35 28.25 13.75 26.85 15.0 25.85 16.65 L22.35 22.65 21.95 23.45 Q20.75 25.9 18.35 26.6 15.9 27.45 13.4 27.05 11.4 26.75 9.8 25.55 8.6 24.55 7.85 22.95 5.8 18.7 2.9 14.9 2.0 13.65 0.8 13.2 0.8 12.85 0.95 12.55 2.8 8.1 2.95 3.2 L11.45 3.45 12.35 3.85 Q14.95 3.7 17.7 3.85 L18.6 3.45 Q20.1 3.7 21.65 3.45 L25.5 3.35 M26.35 4.5 Q26.75 4.05 26.05 3.75 L23.4 3.9 23.2 4.0 Q22.3 3.8 21.55 4.35 L20.9 4.8 20.45 4.35 19.9 4.5 18.9 4.45 18.35 4.3 18.15 4.55 17.3 4.45 16.75 4.55 16.35 4.65 16.15 4.85 Q15.75 4.45 15.1 4.45 L14.4 4.35 13.65 4.65 13.05 4.55 12.05 4.65 11.7 4.3 10.95 4.55 10.0 4.45 9.55 4.5 6.9 4.1 6.65 4.15 5.4 4.1 5.0 4.2 4.0 4.1 3.85 4.0 Q3.7 4.3 3.7 4.65 L3.65 7.05 4.75 7.25 4.5 4.95 4.8 5.0 5.25 7.3 6.65 7.45 6.15 5.0 6.45 5.0 7.2 7.5 8.6 7.6 7.85 5.4 7.95 5.3 Q8.75 6.4 9.0 7.65 L10.8 7.85 10.55 6.75 10.4 5.6 10.45 5.4 10.5 5.4 11.3 7.9 13.1 8.05 12.9 5.5 12.95 5.4 13.1 5.4 13.45 8.1 14.85 8.1 14.85 5.8 Q14.85 5.5 15.05 5.8 L15.15 5.7 15.25 8.1 16.65 8.1 17.05 5.4 17.15 5.4 17.15 5.45 Q17.4 6.7 16.95 8.05 L18.8 7.9 19.5 5.45 19.65 5.45 19.65 5.6 19.3 7.85 21.1 7.65 21.2 7.05 Q21.3 5.6 22.2 5.4 L21.45 7.6 22.85 7.5 23.8 4.85 23.85 4.9 Q24.0 6.35 23.4 7.45 L24.85 7.3 25.45 4.6 25.35 7.25 26.35 6.85 26.45 6.65 26.35 4.5 M21.55 9.45 L21.45 8.6 20.85 8.65 21.1 9.6 21.35 11.6 21.3 11.6 20.7 9.75 20.5 8.65 16.65 9.0 16.6 9.0 16.65 9.05 16.65 9.95 16.5 13.8 16.4 13.9 16.3 13.95 15.5 14.0 16.15 14.35 Q19.05 14.7 20.8 17.3 21.55 18.45 21.8 20.0 L23.2 16.85 22.7 15.7 21.65 12.9 Q22.5 14.3 22.85 15.75 L23.0 16.25 23.15 16.6 23.25 16.65 23.7 16.0 23.65 15.95 Q22.5 14.05 22.1 11.9 L21.55 9.45 M21.9 9.45 L22.55 12.55 Q23.0 14.2 23.85 15.7 L23.85 15.75 24.7 14.85 27.1 12.35 25.7 8.6 26.05 8.55 26.7 10.35 27.25 12.3 27.25 12.45 27.2 12.5 27.15 12.45 26.05 13.6 Q25.05 14.7 24.2 15.95 23.05 17.7 22.3 19.4 L21.85 20.3 21.9 21.05 22.6 19.8 23.3 18.55 26.0 14.9 28.05 12.4 28.05 12.3 26.65 8.35 26.5 7.7 21.85 8.55 21.9 9.45 M8.75 20.25 L8.7 20.4 Q8.5 21.9 9.2 23.15 9.95 24.5 11.35 25.1 L13.4 25.8 Q15.0 26.0 16.65 25.8 L18.7 25.05 20.4 23.7 Q21.7 22.45 21.35 20.4 L20.05 17.8 Q19.35 16.75 18.45 16.0 17.2 15.05 15.65 14.95 13.85 14.8 12.45 15.4 10.65 16.15 9.85 17.65 L8.75 20.25 M14.7 10.1 L14.8 9.85 15.05 9.75 15.25 9.85 15.35 10.1 15.25 10.35 15.05 10.45 14.8 10.35 14.7 10.1 M15.1 8.85 Q14.95 8.85 14.95 8.95 14.35 9.85 14.65 10.85 L15.5 10.7 15.6 10.15 Q15.9 9.35 15.1 8.85 M13.4 9.95 L13.4 9.0 9.55 8.65 9.4 9.75 8.75 11.6 8.65 11.65 Q8.55 10.7 8.95 9.6 L9.25 8.65 8.6 8.6 8.5 9.45 7.7 12.85 Q7.25 14.5 6.4 15.95 L6.9 16.6 8.4 12.9 6.9 16.85 8.25 20.0 8.3 19.75 Q8.7 18.5 9.4 17.4 10.95 14.8 13.9 14.35 L14.55 14.0 13.75 13.95 13.65 13.9 13.55 13.8 13.4 9.95 M15.45 11.45 L14.6 11.45 14.6 13.2 15.45 13.2 15.45 11.45 M4.0 8.55 L4.35 8.6 2.95 12.35 Q4.3 13.35 5.4 14.85 L6.2 15.7 6.75 14.55 7.5 12.5 8.15 9.45 8.25 8.55 3.6 7.7 3.4 8.35 1.9 12.5 Q4.1 14.1 5.6 16.55 L8.15 21.05 8.2 20.3 Q6.45 15.6 2.9 12.45 L2.75 12.45 2.75 12.3 Q3.0 10.25 4.0 8.55 M15.3 14.45 L15.3 14.0 14.75 14.0 14.75 14.45 15.3 14.45" fill="#333333" fill-rule="evenodd" stroke="none"/>
    <path d="M21.55 4.35 Q21.15 4.9 21.75 4.95 L22.15 4.8 22.75 4.95 Q24.2 4.35 25.75 4.55 L26.1 4.55 26.35 4.5 26.45 6.65 26.35 6.85 25.35 7.25 25.45 4.6 24.85 7.3 23.4 7.45 Q24.0 6.35 23.85 4.9 L23.8 4.85 22.85 7.5 21.45 7.6 22.2 5.4 Q21.3 5.6 21.2 7.05 L21.1 7.65 19.3 7.85 19.65 5.6 19.65 5.45 19.5 5.45 18.8 7.9 16.95 8.05 Q17.4 6.7 17.15 5.45 L17.15 5.4 17.05 5.4 16.65 8.1 15.25 8.1 15.15 5.7 15.05 5.8 Q14.85 5.5 14.85 5.8 L14.85 8.1 13.45 8.1 13.1 5.4 14.5 5.25 15.95 5.2 16.15 4.85 16.35 4.65 16.75 4.55 16.45 5.0 16.5 5.25 18.45 5.55 19.25 5.25 20.6 5.4 20.8 5.1 Q20.65 4.35 19.9 4.5 L20.45 4.35 20.9 4.8 21.55 4.35 M21.1 9.6 L21.55 9.45 22.1 11.9 Q22.5 14.05 23.65 15.95 L23.7 16.0 23.25 16.65 23.15 16.6 23.0 16.25 22.85 15.75 Q22.5 14.3 21.65 12.9 L22.7 15.7 23.2 16.85 21.8 20.0 Q21.55 18.45 20.8 17.3 19.05 14.7 16.15 14.35 L15.5 14.0 16.3 13.95 16.4 13.9 16.5 13.8 16.65 9.95 20.7 9.75 21.3 11.6 21.35 11.6 21.1 9.6 M16.65 9.05 L16.6 9.0 16.65 9.0 16.65 9.05 M21.9 9.45 L22.7 9.25 25.7 8.6 27.1 12.35 24.7 14.85 23.85 15.75 23.85 15.7 Q23.0 14.2 22.55 12.55 L21.9 9.45 M26.05 8.55 L26.65 8.35 28.05 12.3 28.05 12.4 26.0 14.9 23.3 18.55 22.6 19.8 21.9 21.05 21.85 20.3 22.3 19.4 Q23.05 17.7 24.2 15.95 25.05 14.7 26.05 13.6 L27.15 12.45 27.2 12.5 27.25 12.45 27.25 12.3 26.7 10.35 26.05 8.55 M21.35 20.4 L21.25 20.3 20.6 21.0 19.2 22.25 Q17.55 23.35 15.7 23.45 L12.85 23.15 11.75 22.8 Q9.75 22.05 8.95 20.2 8.85 20.0 8.75 20.25 L9.85 17.65 Q10.65 16.15 12.45 15.4 13.85 14.8 15.65 14.95 17.2 15.05 18.45 16.0 19.35 16.75 20.05 17.8 L21.35 20.4 M18.9 4.45 L18.15 4.55 18.35 4.3 18.9 4.45 M10.95 4.55 L11.7 4.3 12.05 4.65 Q11.65 5.0 12.15 5.2 L12.8 5.3 12.95 5.4 12.9 5.5 13.1 8.05 11.3 7.9 10.5 5.4 10.45 5.4 10.4 5.6 10.55 6.75 10.8 7.85 9.0 7.65 Q8.75 6.4 7.95 5.3 L7.85 5.4 8.6 7.6 7.2 7.5 6.45 5.0 7.25 4.75 10.45 5.15 Q11.0 5.5 11.05 4.9 L10.95 4.55 M13.4 9.95 L13.55 13.8 13.65 13.9 13.75 13.95 14.55 14.0 13.9 14.35 Q10.95 14.8 9.4 17.4 8.7 18.5 8.3 19.75 L8.25 20.0 6.9 16.85 8.4 12.9 6.9 16.6 6.4 15.95 Q7.25 14.5 7.7 12.85 L8.5 9.45 8.95 9.6 Q8.55 10.7 8.65 11.65 L8.75 11.6 9.4 9.75 13.4 9.95 M15.45 11.45 L15.45 13.2 14.6 13.2 14.6 11.45 15.45 11.45 M4.8 5.0 L5.1 4.85 5.3 4.6 5.85 4.85 6.15 5.0 6.65 7.45 5.25 7.3 4.8 5.0 M4.5 4.95 L4.75 7.25 3.65 7.05 3.7 4.65 Q3.7 4.3 3.85 4.0 L4.0 4.1 Q3.7 4.85 4.4 4.85 L4.5 4.95 M3.4 8.35 L4.0 8.55 Q3.0 10.25 2.75 12.3 L2.75 12.45 2.9 12.45 Q6.45 15.6 8.2 20.3 L8.15 21.05 5.6 16.55 Q4.1 14.1 1.9 12.5 L3.4 8.35 M4.35 8.6 L8.15 9.45 7.5 12.5 6.75 14.55 6.2 15.7 5.4 14.85 Q4.3 13.35 2.95 12.35 L4.35 8.6 M15.3 14.45 L14.75 14.45 14.75 14.0 15.3 14.0 15.3 14.45 M17.1 18.0 L17.0 17.05 16.8 16.55 Q16.2 15.65 15.3 15.7 L14.45 15.5 Q12.65 15.95 12.85 17.7 L13.15 18.35 Q14.15 19.6 15.7 19.1 L16.75 18.3 17.1 18.0 M14.4 20.35 L14.45 21.15 Q14.65 21.75 15.35 21.55 15.8 21.3 15.75 20.85 15.7 20.35 15.15 20.1 L14.75 20.05 14.4 20.35" fill="#666666" fill-rule="evenodd" stroke="none"/>
    <path d="M15.1 8.85 Q15.9 9.35 15.6 10.15 L15.5 10.7 14.65 10.85 Q14.35 9.85 14.95 8.95 14.95 8.85 15.1 8.85 M14.7 10.1 L14.8 10.35 15.05 10.45 15.25 10.35 15.35 10.1 15.25 9.85 15.05 9.75 14.8 9.85 14.7 10.1" fill="#cccccc" fill-rule="evenodd" stroke="none"/>
    <path d="M21.1 9.6 L20.85 8.65 21.45 8.6 21.55 9.45 21.1 9.6 M16.65 9.95 L16.65 9.05 16.65 9.0 20.5 8.65 20.7 9.75 16.65 9.95 M25.7 8.6 L22.7 9.25 21.9 9.45 21.85 8.55 26.5 7.7 26.65 8.35 26.05 8.55 25.7 8.6 M21.35 20.4 Q21.7 22.45 20.4 23.7 L18.7 25.05 16.65 25.8 Q15.0 26.0 13.4 25.8 L11.35 25.1 Q9.95 24.5 9.2 23.15 8.5 21.9 8.7 20.4 L8.75 20.25 Q8.85 20.0 8.95 20.2 9.75 22.05 11.75 22.8 L12.85 23.15 15.7 23.45 Q17.55 23.35 19.2 22.25 L20.6 21.0 21.25 20.3 21.35 20.4 M9.4 9.75 L9.55 8.65 13.4 9.0 13.4 9.95 9.4 9.75 M8.5 9.45 L8.6 8.6 9.25 8.65 8.95 9.6 8.5 9.45 M4.0 8.55 L3.4 8.35 3.6 7.7 8.25 8.55 8.15 9.45 4.35 8.6 4.0 8.55" fill="#4f4f4f" fill-rule="evenodd" stroke="none"/>
    <path d="M26.35 4.5 L26.1 4.55 25.75 4.55 Q24.2 4.35 22.75 4.95 L22.15 4.8 21.75 4.95 Q21.15 4.9 21.55 4.35 22.3 3.8 23.2 4.0 L23.4 3.9 26.05 3.75 Q26.75 4.05 26.35 4.5 M19.9 4.5 Q20.65 4.35 20.8 5.1 L20.6 5.4 19.25 5.25 18.45 5.55 16.5 5.25 16.45 5.0 16.75 4.55 17.3 4.45 18.15 4.55 18.9 4.45 19.9 4.5 M16.15 4.85 L15.95 5.2 14.5 5.25 13.1 5.4 12.95 5.4 12.8 5.3 12.15 5.2 Q11.65 5.0 12.05 4.65 L13.05 4.55 13.65 4.65 14.4 4.35 15.1 4.45 Q15.75 4.45 16.15 4.85 M10.95 4.55 L11.05 4.9 Q11.0 5.5 10.45 5.15 L7.25 4.75 6.45 5.0 6.15 5.0 5.85 4.85 5.3 4.6 5.1 4.85 4.8 5.0 4.5 4.95 4.4 4.85 Q3.7 4.85 4.0 4.1 L5.0 4.2 5.4 4.1 6.65 4.15 6.9 4.1 9.55 4.5 10.0 4.45 10.95 4.55 M14.4 20.35 L14.75 20.05 15.15 20.1 Q15.7 20.35 15.75 20.85 15.8 21.3 15.35 21.55 14.65 21.75 14.45 21.15 L14.4 20.35 M17.1 18.0 L16.75 18.3 15.7 19.1 Q14.15 19.6 13.15 18.35 L12.85 17.7 Q12.65 15.95 14.45 15.5 L15.3 15.7 Q16.2 15.65 16.8 16.55 L17.0 17.05 17.1 18.0" fill="#999999" fill-rule="evenodd" stroke="none"/>
  </g>
</svg>
