<?xml version="1.0" encoding="UTF-8" standalone="no"?>
<svg xmlns:ffdec="https://www.free-decompiler.com/flash" xmlns:xlink="http://www.w3.org/1999/xlink" ffdec:objectType="shape" height="23.05px" width="28.0px" xmlns="http://www.w3.org/2000/svg">
  <g transform="matrix(1.0, 0.0, 0.0, 1.0, -1.05, -3.55)">
    <path d="M2.85 13.85 L2.85 13.9 2.8 13.9 2.85 13.85" fill="#57492d" fill-rule="evenodd" stroke="none"/>
    <path d="M7.65 4.7 L26.55 4.65 26.5 6.9 7.75 6.75 7.65 4.7 M3.85 10.8 L8.3 11.55 8.3 12.7 3.5 11.95 3.75 11.15 3.85 10.8 M2.5 15.9 L8.8 16.75 8.65 17.25 2.15 16.9 2.5 15.9 M21.9 16.75 L28.35 15.9 28.7 16.9 22.0 17.25 21.9 16.75 M21.75 11.65 L21.75 11.6 21.8 11.6 21.75 11.65 M22.35 11.55 L27.05 10.75 27.15 11.15 27.2 11.45 27.3 11.9 22.4 12.7 22.35 11.55 M8.9 8.5 L8.9 8.7 8.85 8.55 8.85 8.5 8.9 8.5 M8.95 8.85 L9.45 9.4 9.9 11.95 Q10.0 12.7 10.55 13.3 L10.0 9.1 16.7 9.2 20.6 9.45 20.2 13.3 21.2 9.4 21.75 8.85 19.9 18.1 19.15 20.2 18.25 16.65 Q17.7 14.9 17.45 15.1 L17.55 15.5 17.7 16.15 Q18.75 18.65 17.75 21.0 15.3 21.85 12.95 21.0 L12.65 20.3 12.5 19.4 Q12.6 17.9 12.95 16.5 L13.4 14.75 12.8 15.8 Q11.75 18.15 11.4 20.0 L10.8 18.1 8.95 8.85 M21.8 8.7 L21.8 8.5 21.8 8.55 21.8 8.7 M3.3 4.75 L3.45 7.15 1.85 5.9 1.4 5.25 1.4 4.8 1.5 4.35 1.55 4.3 2.05 4.35 3.25 4.75 3.3 4.75" fill="#836b45" fill-rule="evenodd" stroke="none"/>
    <path d="M7.65 4.2 L27.15 4.2 27.45 4.45 Q27.3 5.4 27.3 6.45 L27.2 7.2 Q27.2 7.65 26.85 7.9 L26.15 8.15 22.2 8.5 21.85 11.15 Q24.65 11.25 27.1 10.35 L27.15 11.15 27.05 10.75 22.35 11.55 21.8 11.6 21.75 11.6 21.75 11.65 Q21.25 12.65 21.6 13.4 L24.1 13.1 27.1 12.55 27.4 12.35 27.4 12.6 27.25 12.85 22.5 13.6 21.4 14.05 21.2 15.2 21.3 16.25 28.4 15.45 28.5 16.05 28.7 16.9 28.35 15.9 21.9 16.75 21.05 16.75 Q20.05 17.1 20.65 18.15 L23.95 17.95 27.65 17.65 28.7 17.3 28.8 17.25 29.05 18.1 20.4 18.85 19.5 23.3 19.4 23.85 Q18.7 26.65 15.75 26.6 13.95 26.55 12.6 25.95 L12.2 25.6 11.85 25.15 Q10.75 22.05 10.25 18.8 L1.8 18.1 2.05 17.35 3.05 17.65 5.25 17.65 8.5 18.05 8.6 17.9 10.1 18.15 10.1 16.95 8.8 16.75 2.5 15.9 2.65 15.65 2.7 15.5 9.75 16.35 9.45 15.2 8.9 13.8 3.45 12.85 3.3 12.65 3.3 12.55 3.4 12.3 4.7 12.8 8.55 13.2 9.1 13.4 Q9.55 12.45 8.9 11.65 L8.9 11.6 8.3 11.55 3.85 10.8 3.9 10.5 Q6.3 11.35 8.85 11.15 L8.5 8.5 7.75 8.35 7.8 7.75 9.8 7.75 Q11.65 7.65 13.55 7.7 15.3 7.5 17.15 7.7 L20.9 7.75 24.45 7.75 26.05 7.5 Q26.65 7.55 26.5 6.9 L26.55 4.65 7.65 4.7 7.65 4.2 M21.8 8.5 L21.5 8.15 18.75 8.05 15.35 7.95 12.0 8.05 9.95 8.1 Q9.1 7.85 8.9 8.5 L8.85 8.5 8.8 8.5 8.85 8.55 8.9 8.7 8.95 8.85 10.8 18.1 11.05 20.05 11.95 24.5 12.15 24.85 Q12.7 25.5 13.5 25.8 L13.95 25.8 Q15.9 26.4 17.6 25.45 L18.8 24.5 19.9 18.1 21.75 8.85 21.8 8.7 21.8 8.55 21.8 8.5 M3.3 4.45 L3.3 4.75 3.25 4.75 2.05 4.35 1.55 4.3 1.5 4.35 1.4 4.8 1.4 5.25 1.85 5.9 3.45 7.15 3.5 7.5 Q2.3 7.25 1.45 6.1 0.85 5.25 1.1 4.2 L1.4 3.85 Q2.55 3.4 3.3 4.45 M3.75 4.2 L3.8 4.25 3.75 4.25 3.75 4.2" fill="#372e1e" fill-rule="evenodd" stroke="none"/>
    <path d="M26.5 6.9 Q26.65 7.55 26.05 7.5 L24.45 7.75 20.9 7.75 17.15 7.7 Q15.3 7.5 13.55 7.7 11.65 7.65 9.8 7.75 L7.8 7.75 7.75 6.75 26.5 6.9 M8.3 11.55 L8.9 11.6 8.9 11.65 Q9.55 12.45 9.1 13.4 L8.55 13.2 4.7 12.8 3.4 12.3 3.5 11.95 8.3 12.7 8.3 11.55 M8.8 16.75 L10.1 16.95 10.1 18.15 8.6 17.9 8.5 18.05 5.25 17.65 3.05 17.65 2.05 17.35 2.15 16.9 8.65 17.25 8.8 16.75 M28.8 17.25 L28.7 17.3 27.65 17.65 23.95 17.95 20.65 18.15 Q20.05 17.1 21.05 16.75 L21.9 16.75 22.0 17.25 28.7 16.9 28.8 17.25 M27.4 12.35 L27.1 12.55 24.1 13.1 21.6 13.4 Q21.25 12.65 21.75 11.65 L21.8 11.6 22.35 11.55 22.4 12.7 27.3 11.9 27.4 12.35 M8.9 8.5 Q9.1 7.85 9.95 8.1 L12.0 8.05 15.35 7.95 18.75 8.05 21.5 8.15 21.8 8.5 21.8 8.7 21.75 8.85 21.2 9.4 20.2 13.3 20.6 9.45 16.7 9.2 10.0 9.1 10.55 13.3 Q10.0 12.7 9.9 11.95 L9.45 9.4 8.95 8.85 8.9 8.7 8.9 8.5 M10.8 18.1 L11.4 20.0 Q11.75 18.15 12.8 15.8 L13.4 14.75 12.95 16.5 Q12.6 17.9 12.5 19.4 L12.65 20.3 12.95 21.0 Q15.3 21.85 17.75 21.0 18.75 18.65 17.7 16.15 L17.55 15.5 17.45 15.1 Q17.7 14.9 18.25 16.65 L19.15 20.2 19.9 18.1 18.8 24.5 17.6 25.45 Q15.9 26.4 13.95 25.8 L13.5 25.8 Q12.7 25.5 12.15 24.85 L11.95 24.5 11.05 20.05 10.8 18.1" fill="#594631" fill-rule="evenodd" stroke="none"/>
    <path d="M7.65 4.2 L7.65 4.7 7.75 6.75 7.8 7.75 7.75 8.35 3.55 8.45 3.5 7.5 3.45 7.15 3.3 4.75 3.3 4.45 3.35 3.85 4.25 3.7 Q5.85 3.45 7.45 3.65 L7.65 4.2 M4.25 4.1 L3.75 4.1 3.75 4.2 3.75 4.25 3.8 5.6 3.95 8.05 7.2 8.25 7.3 7.6 Q7.25 5.75 7.35 4.2 L4.25 4.1" fill="#333333" fill-rule="evenodd" stroke="none"/>
    <path d="M5.3 4.9 L5.1 4.95 4.8 5.25 4.75 5.3 4.85 5.65 5.15 5.9 5.15 7.0 5.25 7.1 Q5.55 7.1 5.65 6.9 L5.55 6.2 5.5 5.9 5.85 5.65 5.9 5.5 Q5.9 4.95 5.3 4.9 M3.8 4.25 L3.8 4.2 4.0 4.15 Q3.75 4.2 4.25 4.4 L6.8 4.6 6.8 7.8 4.35 7.65 3.95 4.55 3.8 5.6 3.75 4.25 3.8 4.25" fill="#cccccc" fill-rule="evenodd" stroke="none"/>
    <path d="M4.0 4.15 L4.05 4.1 4.1 4.1 4.25 4.1 7.35 4.2 Q7.25 5.75 7.3 7.6 L7.2 8.25 3.95 8.05 3.8 5.6 3.95 4.55 4.35 7.65 6.8 7.8 6.8 4.6 4.25 4.4 Q3.75 4.2 4.0 4.15" fill="#999999" fill-rule="evenodd" stroke="none"/>
    <path d="M5.3 4.9 Q5.9 4.95 5.9 5.5 L5.85 5.65 5.5 5.9 5.55 6.2 5.65 6.9 Q5.55 7.1 5.25 7.1 L5.15 7.0 5.15 5.9 4.85 5.65 4.75 5.3 4.8 5.25 5.1 4.95 5.3 4.9" fill="#000000" fill-rule="evenodd" stroke="none"/>
  </g>
</svg>
