<?xml version="1.0" encoding="UTF-8" standalone="no"?>
<svg xmlns:ffdec="https://www.free-decompiler.com/flash" xmlns:xlink="http://www.w3.org/1999/xlink" ffdec:objectType="shape" height="27.8px" width="27.75px" xmlns="http://www.w3.org/2000/svg">
  <g transform="matrix(1.0, 0.0, 0.0, 1.0, -1.1, -1.25)">
    <path d="M26.85 4.0 L26.85 2.5 26.25 2.0 Q20.5 2.25 14.9 2.0 L13.0 2.05 7.85 2.05 3.4 2.25 Q3.3 2.2 3.35 2.3 L3.3 2.3 Q2.9 2.9 3.1 3.8 L3.1 4.0 3.1 5.6 3.15 7.15 3.6 8.2 3.6 8.3 14.6 9.45 15.0 9.45 15.95 9.45 26.35 8.3 26.3 7.95 26.05 7.8 25.95 7.2 25.9 5.85 25.95 5.2 24.6 5.55 23.3 5.75 23.3 5.85 23.45 7.55 Q23.6 8.55 23.05 8.55 L22.95 7.65 22.85 6.15 Q23.05 5.75 22.65 5.45 L20.55 6.2 18.75 5.9 18.8 6.75 18.85 8.05 18.9 8.25 Q19.1 9.05 18.25 8.8 L18.3 8.1 18.3 6.7 18.25 5.9 17.4 5.9 17.9 5.65 18.0 4.85 18.4 2.45 18.55 2.35 18.6 4.2 18.5 5.15 Q20.05 6.2 21.85 5.4 L22.5 4.95 22.8 3.95 23.05 2.6 Q23.3 2.65 23.25 3.05 L23.3 3.75 23.25 4.9 25.9 4.7 26.1 3.95 26.3 2.6 26.45 3.8 Q26.35 4.3 26.4 5.05 L26.5 5.7 26.6 7.15 26.55 7.6 26.7 7.45 26.8 7.15 26.85 5.6 26.85 4.0 M3.45 3.8 L3.6 2.75 3.85 3.95 4.05 4.7 6.7 4.9 6.65 3.75 6.75 2.8 6.85 2.6 6.9 2.8 7.15 3.95 7.45 4.95 Q8.55 5.7 9.85 5.8 10.75 5.9 11.5 5.15 L11.35 4.2 11.4 2.35 11.5 2.45 11.9 4.85 12.0 5.65 12.85 6.05 11.9 6.05 11.75 5.9 11.65 6.7 11.65 8.1 11.65 8.8 Q10.95 8.9 11.05 8.25 L11.05 8.05 11.15 6.75 11.25 5.9 Q9.85 6.45 8.35 5.9 L7.35 5.65 7.1 6.15 6.95 7.65 6.85 8.55 Q6.55 8.7 6.5 8.15 L6.5 7.55 6.65 5.85 6.65 5.6 Q5.3 5.8 4.05 5.2 L4.0 5.85 4.0 7.2 3.85 7.7 Q3.6 8.15 3.35 7.15 L3.45 5.7 3.5 5.05 Q3.65 4.45 3.45 3.8 M27.3 2.45 L27.45 6.55 27.3 8.5 27.2 9.1 Q28.25 11.5 28.6 14.25 L28.85 17.85 26.2 20.45 Q25.1 21.65 24.15 22.95 L20.7 27.3 19.15 28.4 15.0 29.05 13.55 29.05 10.85 28.4 9.5 27.85 9.1 27.5 5.8 22.95 Q4.6 20.95 3.05 19.55 L1.2 18.05 Q0.95 15.8 1.35 13.7 1.7 11.35 2.75 9.1 2.4 7.25 2.5 5.1 L2.6 2.45 Q2.7 1.95 3.25 1.7 L5.3 1.4 6.1 1.45 Q9.5 1.05 12.9 1.45 L15.55 1.35 15.95 1.4 17.55 1.4 Q20.8 1.2 23.85 1.45 L24.25 1.35 25.4 1.3 Q26.35 1.3 27.1 1.9 L27.3 2.45 M23.35 11.1 L23.25 9.85 23.3 9.85 Q23.95 10.75 23.8 12.05 L23.75 12.25 25.85 12.35 26.15 12.05 26.25 11.4 25.9 9.85 26.05 9.65 26.2 9.75 26.7 11.15 26.65 12.5 23.55 12.75 21.15 13.8 Q19.85 14.1 18.5 13.4 L17.4 13.45 18.45 12.95 18.45 11.9 18.4 10.95 Q19.0 11.0 18.95 12.15 L18.95 12.95 Q19.6 13.9 21.1 13.35 L22.3 12.75 23.0 12.5 23.25 12.25 23.35 11.85 23.35 11.65 23.35 11.1 M26.75 9.5 L26.6 8.8 23.05 9.6 20.0 9.85 16.75 10.0 15.65 10.1 15.65 11.2 15.7 22.4 15.55 23.1 16.65 22.65 16.65 22.15 16.85 10.8 Q16.8 10.6 16.9 10.5 17.15 10.2 17.05 10.8 L17.05 12.6 17.0 14.05 16.95 17.15 Q16.65 17.95 17.45 18.0 L18.8 17.7 18.8 17.6 18.75 15.35 18.8 14.8 18.9 14.7 Q19.75 15.8 19.25 17.55 21.85 18.95 23.85 16.95 L24.0 16.05 23.65 13.55 Q24.35 13.95 24.4 14.9 L24.6 16.95 Q25.45 17.2 26.35 16.5 L26.85 15.95 26.75 15.4 26.7 14.4 26.75 13.0 26.8 13.05 27.65 17.0 26.95 17.5 27.15 17.2 27.15 17.05 26.9 16.55 Q26.05 17.2 25.1 17.4 L24.75 17.4 Q24.65 17.4 24.7 17.55 L24.95 19.2 24.95 19.4 23.25 21.6 Q21.85 23.8 21.05 26.3 L23.35 22.65 Q25.35 19.5 28.15 17.55 L28.15 16.4 27.9 13.65 27.65 12.35 27.25 11.2 26.75 9.5 M24.35 18.2 L24.1 17.7 22.15 18.2 19.85 18.4 19.15 18.05 Q18.2 18.85 16.95 18.4 L16.95 19.0 16.95 21.75 16.95 22.5 18.65 22.4 18.75 21.65 18.95 19.2 18.95 19.3 Q19.25 20.55 19.2 22.0 L19.2 22.45 Q19.5 23.35 21.05 23.1 L21.75 23.1 22.5 22.5 22.65 22.25 22.7 22.1 23.1 21.5 23.8 20.55 24.2 20.1 24.3 19.9 24.35 18.2 M21.15 24.6 L21.8 23.35 21.55 23.4 20.05 23.5 18.7 22.85 18.25 23.1 21.15 24.6 M20.95 24.65 Q19.1 23.6 17.7 23.3 L16.85 23.0 Q16.0 23.5 14.6 23.45 13.7 23.45 13.1 23.0 L10.8 23.75 Q9.9 24.15 9.0 24.7 L8.8 24.8 8.8 24.85 Q9.45 25.8 9.35 26.7 11.0 28.1 13.4 28.15 L18.1 27.95 Q19.7 27.95 20.65 26.7 20.45 25.85 21.05 24.8 L20.9 24.7 20.95 24.65 M6.55 11.65 L6.6 12.2 7.65 12.8 10.95 12.95 10.9 12.15 Q10.8 10.95 11.55 10.95 L11.5 11.9 11.5 12.95 12.55 13.45 11.45 13.4 Q10.05 14.2 8.75 13.8 L6.4 12.75 3.35 12.5 3.2 11.15 3.75 9.75 3.85 9.65 4.0 9.85 3.7 11.4 3.65 11.5 3.85 11.95 Q4.85 12.9 6.2 12.15 L6.15 12.05 Q5.85 10.85 6.5 9.8 L6.65 9.85 6.55 11.1 6.55 11.65 M12.9 10.8 L12.95 10.5 Q13.35 10.35 13.1 10.8 L13.3 22.15 13.5 22.85 14.35 23.0 14.25 22.4 14.25 11.2 14.3 10.15 13.25 10.0 10.0 9.85 6.9 9.6 3.4 8.8 3.2 9.5 2.65 11.2 2.3 12.35 Q2.1 12.95 2.05 13.7 L1.8 16.05 1.75 16.4 1.75 17.55 Q4.6 19.6 6.55 22.65 L8.9 26.3 Q8.05 23.7 6.65 21.6 L5.05 19.4 5.25 17.4 4.8 17.4 Q3.65 17.25 3.05 16.55 L2.8 17.05 2.75 17.1 2.75 17.2 2.8 17.3 2.35 17.0 2.35 16.95 3.0 13.85 3.15 13.05 3.2 13.0 3.2 14.4 3.2 15.4 3.1 15.95 3.65 16.5 Q4.4 17.25 5.35 16.95 L5.55 14.9 Q5.6 13.95 6.3 13.55 L5.95 16.05 6.1 16.95 6.2 17.15 6.95 17.6 Q8.7 18.5 10.7 17.55 10.25 15.85 11.0 14.7 L11.2 17.3 11.2 17.6 Q11.65 18.2 12.5 18.0 13.25 17.95 12.95 17.15 L12.9 14.05 12.85 12.6 12.9 10.8 M14.5 13.0 L14.55 15.2 14.6 17.65 14.7 21.25 14.75 22.45 14.9 22.5 15.0 22.5 15.15 22.45 15.3 22.25 Q15.2 17.55 15.45 13.0 L15.3 13.6 15.3 13.5 15.3 12.65 15.3 11.7 15.15 10.05 15.0 10.05 14.9 10.05 14.75 10.05 14.65 12.55 14.75 13.45 14.55 13.0 14.55 12.85 14.5 13.0 M7.2 22.1 L7.65 22.85 8.25 23.1 9.1 23.1 Q10.4 23.25 10.7 22.45 10.45 20.95 10.7 19.2 10.7 19.0 11.0 19.2 L11.15 21.65 11.3 22.4 12.95 22.5 12.95 21.75 12.95 19.0 12.95 18.4 Q11.85 18.85 10.75 18.05 L5.6 18.2 5.65 19.9 5.7 20.0 6.1 20.55 6.8 21.5 6.85 21.5 7.2 22.1 M8.75 24.6 L11.7 23.1 11.25 22.85 9.85 23.5 7.95 23.25 8.75 24.6" fill="#666666" fill-rule="evenodd" stroke="none"/>
    <path d="M3.1 4.0 L3.1 3.8 Q2.9 2.9 3.3 2.3 L3.35 2.3 Q3.3 2.2 3.4 2.25 L7.85 2.05 13.0 2.05 14.9 2.0 Q20.5 2.25 26.25 2.0 L26.85 2.5 26.85 4.0 26.45 3.8 26.3 2.6 26.1 3.95 23.3 3.75 23.25 3.05 Q23.3 2.65 23.05 2.6 L22.8 3.95 22.1 4.5 18.6 4.2 18.55 2.35 18.4 2.45 18.0 4.85 15.95 5.55 Q13.9 5.85 11.9 4.85 L11.5 2.45 11.4 2.35 11.35 4.2 7.85 4.5 7.15 3.95 6.9 2.8 6.85 2.6 6.75 2.8 6.65 3.75 3.85 3.95 3.6 2.75 3.45 3.8 3.1 4.0 M26.85 5.6 L26.8 7.15 26.6 7.15 26.5 5.7 26.85 5.6 M23.3 5.85 L25.5 6.1 25.9 5.85 25.95 7.2 23.45 7.55 23.3 5.85 M3.15 7.15 L3.1 5.6 3.45 5.7 3.35 7.15 3.15 7.15 M22.85 6.15 L22.95 7.65 18.85 8.05 18.8 6.75 Q20.3 7.4 22.0 6.75 L22.85 6.15 M26.25 11.4 L25.05 11.8 24.3 11.65 24.05 10.3 25.9 9.85 26.25 11.4 M26.2 9.75 L26.75 9.5 27.25 11.2 26.7 11.15 26.2 9.75 M15.65 11.2 L16.35 10.95 16.85 10.8 16.65 22.15 15.7 22.4 15.65 11.2 M17.05 10.8 L18.4 10.95 18.45 11.9 17.05 12.6 17.05 10.8 M23.35 11.65 L21.75 12.4 19.5 12.2 19.1 10.6 23.25 10.4 23.35 11.1 23.35 11.65 M17.0 14.05 L18.55 13.9 18.75 16.55 16.95 17.15 17.0 14.05 M24.0 16.05 Q22.7 16.75 21.0 17.1 L19.75 17.0 19.55 14.25 Q21.8 14.4 23.65 13.35 L23.65 13.55 24.0 16.05 M26.75 15.4 L26.0 15.8 25.2 15.95 24.55 13.4 25.4 13.2 26.35 13.05 26.7 14.4 26.75 15.4 M27.15 17.2 L25.4 18.65 25.35 17.85 25.7 17.85 Q26.35 18.0 27.0 17.2 L27.15 17.05 27.15 17.2 M28.15 16.4 Q27.4 15.8 27.35 14.7 L27.15 12.65 27.65 12.35 27.9 13.65 28.15 16.4 M16.95 19.0 L18.95 19.2 18.75 21.65 16.95 21.75 16.95 19.0 M22.7 22.1 L19.8 22.35 Q20.3 20.6 19.9 19.0 21.85 19.65 23.65 18.65 L24.35 18.2 24.3 19.9 23.8 20.55 23.1 21.5 22.7 22.1 M11.65 6.7 L15.0 7.4 18.3 6.7 18.3 8.1 11.65 8.1 11.65 6.7 M11.15 6.75 L11.05 8.05 6.95 7.65 7.1 6.15 Q8.55 7.4 10.4 7.1 L11.15 6.75 M11.55 10.95 L12.9 10.8 12.85 12.6 11.5 11.9 11.55 10.95 M13.1 10.8 L13.95 11.2 14.25 11.2 14.25 22.4 13.3 22.15 13.1 10.8 M3.2 9.5 L3.75 9.75 3.2 11.15 2.65 11.2 3.2 9.5 M4.0 9.85 L5.9 10.3 5.6 11.65 3.7 11.4 4.0 9.85 M6.55 11.1 L6.65 10.4 10.8 10.6 10.45 12.2 8.25 12.4 6.55 11.65 6.55 11.1 M4.0 5.85 Q4.65 6.45 5.7 6.05 L6.65 5.85 6.5 7.55 4.0 7.2 4.0 5.85 M2.3 12.35 Q2.9 12.55 2.75 13.1 L1.8 15.95 1.8 16.05 2.05 13.7 Q2.1 12.95 2.3 12.35 M2.8 17.05 L4.25 17.85 4.4 18.2 4.5 18.65 2.75 17.2 2.75 17.1 2.8 17.05 M3.2 14.4 L3.6 13.05 5.5 13.2 4.75 15.95 3.2 15.4 3.2 14.4 M6.3 13.55 L7.05 13.6 10.35 14.25 10.2 17.0 7.75 16.85 7.05 16.5 5.95 16.05 6.3 13.55 M12.95 17.15 L11.2 16.55 11.45 13.9 12.9 14.05 12.95 17.15 M5.6 18.2 Q6.85 19.2 8.45 19.3 L9.8 19.05 9.9 19.45 10.2 22.35 7.2 22.1 6.85 21.5 6.8 21.5 6.1 20.55 5.65 19.9 5.6 18.2 M11.0 19.2 L12.95 19.0 12.95 21.75 11.15 21.65 11.0 19.2" fill="#ffffff" fill-rule="evenodd" stroke="none"/>
    <path d="M3.1 4.0 L3.45 3.8 Q3.65 4.45 3.5 5.05 L3.45 5.7 3.1 5.6 3.1 4.0 M3.85 3.95 L6.65 3.75 6.7 4.9 4.05 4.7 3.85 3.95 M7.15 3.95 L7.85 4.5 11.35 4.2 11.5 5.15 Q10.75 5.9 9.85 5.8 8.55 5.7 7.45 4.95 L7.15 3.95 M11.9 4.85 Q13.9 5.85 15.95 5.55 L18.0 4.85 17.9 5.65 17.4 5.9 18.25 5.9 18.3 6.7 15.0 7.4 11.65 6.7 11.75 5.9 11.9 6.05 12.85 6.05 12.0 5.65 11.9 4.85 M18.6 4.2 L22.1 4.5 22.8 3.95 22.5 4.95 21.85 5.4 Q20.05 6.2 18.5 5.15 L18.6 4.2 M23.3 3.75 L26.1 3.95 25.9 4.7 23.25 4.9 23.3 3.75 M26.45 3.8 L26.85 4.0 26.85 5.6 26.5 5.7 26.4 5.05 Q26.35 4.3 26.45 3.8 M26.8 7.15 L26.7 7.45 26.55 7.6 26.6 7.15 26.8 7.15 M23.3 5.85 L23.3 5.75 24.6 5.55 25.95 5.2 25.9 5.85 25.5 6.1 23.3 5.85 M25.95 7.2 L26.05 7.8 26.3 7.95 26.35 8.3 15.95 9.45 15.0 9.45 14.6 9.45 3.6 8.3 3.6 8.2 3.15 7.15 3.35 7.15 Q3.6 8.15 3.85 7.7 L4.0 7.2 6.5 7.55 6.5 8.15 Q6.55 8.7 6.85 8.55 L6.95 7.65 11.05 8.05 11.05 8.25 Q10.95 8.9 11.65 8.8 L11.65 8.1 18.3 8.1 18.25 8.8 Q19.1 9.05 18.9 8.25 L18.85 8.05 22.95 7.65 23.05 8.55 Q23.6 8.55 23.45 7.55 L25.95 7.2 M18.8 6.75 L18.75 5.9 20.55 6.2 22.65 5.45 Q23.05 5.75 22.85 6.15 L22.0 6.75 Q20.3 7.4 18.8 6.75 M26.25 11.4 L26.15 12.05 25.85 12.35 23.75 12.25 23.8 12.05 Q23.95 10.75 23.3 9.85 L23.25 9.85 23.35 11.1 23.25 10.4 19.1 10.6 19.5 12.2 21.75 12.4 23.35 11.65 23.35 11.85 23.25 12.25 23.0 12.5 22.3 12.75 21.1 13.35 Q19.6 13.9 18.95 12.95 L18.95 12.15 Q19.0 11.0 18.4 10.95 L17.05 10.8 Q17.15 10.2 16.9 10.5 16.8 10.6 16.85 10.8 L16.35 10.95 15.65 11.2 15.65 10.1 16.75 10.0 20.0 9.85 23.05 9.6 26.6 8.8 26.75 9.5 26.2 9.75 26.05 9.65 25.9 9.85 24.05 10.3 24.3 11.65 25.05 11.8 26.25 11.4 M26.7 11.15 L27.25 11.2 27.65 12.35 27.15 12.65 27.35 14.7 Q27.4 15.8 28.15 16.4 L28.15 17.55 Q25.35 19.5 23.35 22.65 L21.05 26.3 Q21.85 23.8 23.25 21.6 L24.95 19.4 24.95 19.2 24.7 17.55 Q24.65 17.4 24.75 17.4 L25.1 17.4 Q26.05 17.2 26.9 16.55 L27.15 17.05 27.0 17.2 Q26.35 18.0 25.7 17.85 L25.35 17.85 25.4 18.65 27.15 17.2 26.95 17.5 27.65 17.0 26.8 13.05 26.75 13.0 26.7 14.4 26.35 13.05 25.4 13.2 24.55 13.4 25.2 15.95 26.0 15.8 26.75 15.4 26.85 15.95 26.35 16.5 Q25.45 17.2 24.6 16.95 L24.4 14.9 Q24.35 13.95 23.65 13.55 L23.65 13.35 Q21.8 14.4 19.55 14.25 L19.75 17.0 21.0 17.1 Q22.7 16.75 24.0 16.05 L23.85 16.95 Q21.85 18.95 19.25 17.55 19.75 15.8 18.9 14.7 L18.8 14.8 18.75 15.35 18.8 17.6 18.8 17.7 17.45 18.0 Q16.65 17.95 16.95 17.15 L18.75 16.55 18.55 13.9 17.0 14.05 17.05 12.6 18.45 11.9 18.45 12.95 17.4 13.45 18.5 13.4 Q19.85 14.1 21.15 13.8 L23.55 12.75 26.65 12.5 26.7 11.15 M16.95 19.0 L16.95 18.4 Q18.2 18.85 19.15 18.05 L19.85 18.4 22.15 18.2 24.1 17.7 24.35 18.2 23.65 18.65 Q21.85 19.65 19.9 19.0 20.3 20.6 19.8 22.35 L22.7 22.1 22.65 22.25 22.5 22.5 21.75 23.1 21.05 23.1 Q19.5 23.35 19.2 22.45 L19.2 22.0 Q19.25 20.55 18.95 19.3 L18.95 19.2 16.95 19.0 M24.3 19.9 L24.2 20.1 23.8 20.55 24.3 19.9 M21.15 24.6 L18.25 23.1 18.7 22.85 20.05 23.5 21.55 23.4 21.8 23.35 21.15 24.6 M20.95 24.65 L20.9 24.7 21.05 24.8 Q20.45 25.85 20.65 26.7 19.7 27.95 18.1 27.95 L13.4 28.15 Q11.0 28.1 9.35 26.7 9.45 25.8 8.8 24.85 L8.8 24.8 9.0 24.7 Q9.9 24.15 10.8 23.75 L13.1 23.0 Q13.7 23.45 14.6 23.45 16.0 23.5 16.85 23.0 L17.7 23.3 Q19.1 23.6 20.95 24.65 M11.15 6.75 L10.4 7.1 Q8.55 7.4 7.1 6.15 L7.35 5.65 8.35 5.9 Q9.85 6.45 11.25 5.9 L11.15 6.75 M11.55 10.95 Q10.8 10.95 10.9 12.15 L10.95 12.95 7.65 12.8 6.6 12.2 6.55 11.65 8.25 12.4 10.45 12.2 10.8 10.6 6.65 10.4 6.55 11.1 6.65 9.85 6.5 9.8 Q5.85 10.85 6.15 12.05 L6.2 12.15 Q4.85 12.9 3.85 11.95 L3.65 11.5 3.7 11.4 5.6 11.65 5.9 10.3 4.0 9.85 3.85 9.65 3.75 9.75 3.2 9.5 3.4 8.8 6.9 9.6 10.0 9.85 13.25 10.0 14.3 10.15 14.25 11.2 13.95 11.2 13.1 10.8 Q13.35 10.35 12.95 10.5 L12.9 10.8 11.55 10.95 M14.55 13.0 L14.75 13.45 14.65 12.55 14.75 10.05 14.9 10.05 15.0 10.05 15.15 10.05 15.3 11.7 15.3 12.65 15.3 13.5 15.3 13.6 15.45 13.0 Q15.2 17.55 15.3 22.25 L15.15 22.45 15.0 22.5 14.9 22.5 14.75 22.45 14.7 21.25 14.6 17.65 14.55 15.2 14.5 13.0 14.55 13.0 M6.65 5.85 L5.7 6.05 Q4.65 6.45 4.0 5.85 L4.05 5.2 Q5.3 5.8 6.65 5.6 L6.65 5.85 M2.65 11.2 L3.2 11.15 3.35 12.5 6.4 12.75 8.75 13.8 Q10.05 14.2 11.45 13.4 L12.55 13.45 11.5 12.95 11.5 11.9 12.85 12.6 12.9 14.05 11.45 13.9 11.2 16.55 12.95 17.15 Q13.25 17.95 12.5 18.0 11.65 18.2 11.2 17.6 L11.2 17.3 11.0 14.7 Q10.25 15.85 10.7 17.55 8.7 18.5 6.95 17.6 L6.2 17.15 6.1 16.95 5.95 16.05 7.05 16.5 7.75 16.85 10.2 17.0 10.35 14.25 7.05 13.6 6.3 13.55 Q5.6 13.95 5.55 14.9 L5.35 16.95 Q4.4 17.25 3.65 16.5 L3.1 15.95 3.2 15.4 4.75 15.95 5.5 13.2 3.6 13.05 3.2 14.4 3.2 13.0 3.15 13.05 3.0 13.85 2.35 16.95 2.35 17.0 2.8 17.3 2.75 17.2 4.5 18.65 4.4 18.2 4.25 17.85 2.8 17.05 3.05 16.55 Q3.65 17.25 4.8 17.4 L5.25 17.4 5.05 19.4 6.65 21.6 Q8.05 23.7 8.9 26.3 L6.55 22.65 Q4.6 19.6 1.75 17.55 L1.75 16.4 1.8 16.05 1.8 15.95 2.75 13.1 Q2.9 12.55 2.3 12.35 L2.65 11.2 M7.2 22.1 L10.2 22.35 9.9 19.45 9.8 19.05 8.45 19.3 Q6.85 19.2 5.6 18.2 L10.75 18.05 Q11.85 18.85 12.95 18.4 L12.95 19.0 11.0 19.2 Q10.7 19.0 10.7 19.2 10.45 20.95 10.7 22.45 10.4 23.25 9.1 23.1 L8.25 23.1 7.65 22.85 7.2 22.1 M5.65 19.9 L6.1 20.55 5.7 20.0 5.65 19.9 M8.75 24.6 L7.95 23.25 9.85 23.5 11.25 22.85 11.7 23.1 8.75 24.6 M11.15 21.65 L12.95 21.75 12.95 22.5 11.3 22.4 11.15 21.65 M14.25 22.4 L14.35 23.0 13.5 22.85 13.3 22.15 14.25 22.4 M15.7 22.4 L16.65 22.15 16.65 22.65 15.55 23.1 15.7 22.4 M18.75 21.65 L18.65 22.4 16.95 22.5 16.95 21.75 18.75 21.65" fill="#cccccc" fill-rule="evenodd" stroke="none"/>
  </g>
</svg>
