<?xml version="1.0" encoding="UTF-8" standalone="no"?>
<svg xmlns:ffdec="https://www.free-decompiler.com/flash" xmlns:xlink="http://www.w3.org/1999/xlink" ffdec:objectType="shape" height="25.25px" width="27.4px" xmlns="http://www.w3.org/2000/svg">
  <g transform="matrix(1.0, 0.0, 0.0, 1.0, -1.35, -2.65)">
    <path d="M2.2 11.7 L1.95 9.15 Q1.75 7.55 2.55 6.3 L2.5 6.45 3.1 5.95 4.95 4.75 5.8 4.5 8.0 3.75 17.65 3.15 Q21.75 3.25 25.35 5.0 L26.35 5.6 Q27.3 6.35 27.6 6.35 L27.65 6.85 Q28.3 9.15 27.8 11.7 L27.7 11.65 26.6 12.45 Q24.1 14.05 21.1 14.6 L15.15 14.95 11.75 14.95 Q8.85 14.9 6.2 13.9 4.0 13.15 2.25 11.7 L2.2 11.7 M8.4 4.8 Q6.95 5.05 5.65 5.65 4.85 6.05 4.1 6.55 L4.9 7.3 Q6.8 8.35 9.3 8.65 L15.15 9.0 20.5 8.7 22.95 8.2 Q24.55 7.85 25.8 6.9 L25.1 6.1 24.35 5.5 Q22.9 4.85 21.5 4.5 21.0 4.55 21.3 4.65 L18.65 4.45 13.15 4.2 8.8 4.7 8.55 4.75 8.4 4.8 M26.7 8.75 L26.85 8.4 26.8 7.5 26.3 7.25 Q25.95 7.35 25.7 7.55 24.55 8.2 23.6 9.15 20.0 10.5 16.1 10.0 L14.85 9.9 Q10.9 10.6 7.4 9.35 L6.45 8.8 Q5.25 7.7 3.7 7.25 L3.25 7.5 3.05 7.95 3.35 8.75 7.9 9.8 11.65 10.25 14.85 10.95 17.45 10.45 Q22.2 9.9 26.7 8.75 M27.8 12.2 L27.75 12.2 27.8 12.2 M18.6 19.55 L18.1 24.85 11.9 24.85 11.4 19.55 18.6 19.55" fill="#343d69" fill-rule="evenodd" stroke="none"/>
    <path d="M27.8 11.7 Q28.3 9.15 27.65 6.85 L27.6 6.35 Q27.3 6.35 26.35 5.6 L25.35 5.0 Q21.75 3.25 17.65 3.15 L8.0 3.75 5.8 4.5 4.95 4.75 3.1 5.95 2.5 6.45 2.55 6.3 Q1.75 7.55 1.95 9.15 L2.2 11.7 2.25 12.2 Q2.25 13.3 3.1 13.7 3.65 13.95 4.85 14.55 6.05 15.2 7.4 15.45 L10.85 16.2 14.85 16.5 15.65 16.45 20.95 16.0 Q23.25 15.7 25.3 14.65 L26.6 13.85 27.3 13.45 27.8 12.2 27.8 11.7 M8.4 4.8 L4.9 6.35 Q8.15 8.2 12.05 8.15 L18.35 8.1 21.85 7.65 Q23.6 7.2 25.05 6.4 L21.55 4.75 21.3 4.65 Q21.0 4.55 21.5 4.5 22.9 4.85 24.35 5.5 L25.1 6.1 25.8 6.9 Q24.55 7.85 22.95 8.2 L20.5 8.7 15.15 9.0 9.3 8.65 Q6.8 8.35 4.9 7.3 L4.1 6.55 Q4.85 6.05 5.65 5.65 6.95 5.05 8.4 4.8 M28.6 9.95 L28.6 12.7 Q28.6 13.3 28.0 13.8 26.55 15.05 24.55 15.9 22.75 16.75 20.55 16.95 L19.85 27.05 Q17.65 27.9 15.15 27.9 12.75 27.9 10.65 27.2 L10.55 27.1 10.15 27.05 9.45 16.8 Q6.55 16.6 3.95 15.2 2.7 14.45 1.95 13.35 L1.55 12.2 1.35 9.2 Q1.3 7.7 1.7 6.45 1.8 6.1 2.15 5.9 L3.85 4.95 4.8 4.5 Q6.75 3.55 8.85 3.05 L10.65 2.8 17.6 2.65 Q21.6 2.75 25.25 4.4 L28.2 6.15 Q28.85 6.6 28.75 7.2 28.55 8.55 28.6 9.95 M20.05 16.85 L15.1 17.2 14.85 17.2 12.05 17.1 10.1 17.2 10.75 26.45 14.3 27.1 Q16.85 27.3 19.25 26.4 L20.05 16.85" fill="#1c2139" fill-rule="evenodd" stroke="none"/>
    <path d="M2.2 11.7 L2.25 11.7 Q4.0 13.15 6.2 13.9 8.85 14.9 11.75 14.95 L15.15 14.95 21.1 14.6 Q24.1 14.05 26.6 12.45 L27.7 11.65 27.8 11.7 27.8 12.2 27.3 13.45 26.6 13.85 25.3 14.65 Q23.25 15.7 20.95 16.0 L15.65 16.45 14.85 16.5 10.85 16.2 7.4 15.45 Q6.05 15.2 4.85 14.55 3.65 13.95 3.1 13.7 2.25 13.3 2.25 12.2 L2.2 11.7 M21.3 4.65 L21.55 4.75 25.05 6.4 Q23.6 7.2 21.85 7.65 L18.35 8.1 12.05 8.15 Q8.15 8.2 4.9 6.35 L8.4 4.8 8.55 4.75 8.8 4.7 13.15 4.2 18.65 4.45 21.3 4.65 M27.8 12.2 L27.75 12.2 27.8 12.2 M18.6 19.55 L11.4 19.55 11.9 24.85 18.1 24.85 18.6 19.55 M20.05 16.85 L19.25 26.4 Q16.85 27.3 14.3 27.1 L10.75 26.45 10.1 17.2 12.05 17.1 14.85 17.2 15.1 17.2 20.05 16.85" fill="#282f51" fill-rule="evenodd" stroke="none"/>
    <path d="M26.7 8.75 Q22.2 9.9 17.45 10.45 L14.85 10.95 11.65 10.25 7.9 9.8 3.35 8.75 3.05 7.95 3.25 7.5 3.7 7.25 Q5.25 7.7 6.45 8.8 L7.4 9.35 Q10.9 10.6 14.85 9.9 L16.1 10.0 Q20.0 10.5 23.6 9.15 24.55 8.2 25.7 7.55 25.95 7.35 26.3 7.25 L26.8 7.5 26.85 8.4 26.7 8.75" fill="#8f98c9" fill-rule="evenodd" stroke="none"/>
  </g>
</svg>
