<?xml version="1.0" encoding="UTF-8" standalone="no"?>
<svg xmlns:ffdec="https://www.free-decompiler.com/flash" xmlns:xlink="http://www.w3.org/1999/xlink" ffdec:objectType="shape" height="25.45px" width="28.75px" xmlns="http://www.w3.org/2000/svg">
  <g transform="matrix(1.0, 0.0, 0.0, 1.0, -0.7, -2.15)">
    <path d="M28.3 15.2 L27.7 13.85 27.95 13.2 Q25.35 9.8 24.05 5.85 23.9 7.1 23.35 8.2 L22.6 7.75 22.4 7.05 Q22.6 5.6 23.65 5.0 L24.0 3.6 Q21.35 7.6 16.7 6.35 12.65 5.55 9.4 6.95 L6.5 3.75 5.7 3.55 3.35 12.55 Q2.7 12.8 2.4 13.35 L2.65 13.35 2.2 14.85 2.0 15.2 2.15 15.65 2.55 16.45 2.3 17.4 2.7 17.6 2.65 18.05 Q2.65 18.4 3.15 18.05 L3.5 18.8 3.0 20.3 3.9 21.2 4.0 21.7 Q3.55 22.2 4.25 22.4 L4.75 22.4 5.35 23.7 6.2 23.85 6.55 24.3 7.0 24.5 7.45 25.4 8.5 25.45 9.4 26.4 10.7 26.3 11.3 26.75 11.85 26.5 13.0 26.7 13.65 26.3 14.4 26.8 17.4 26.75 18.15 26.5 19.0 26.75 20.1 26.05 21.7 26.2 Q23.5 24.9 25.65 23.95 L25.6 23.15 26.35 22.4 26.8 21.3 26.45 20.85 27.15 20.35 27.35 20.35 Q28.05 20.05 27.2 19.3 L28.05 17.95 28.0 17.15 27.8 16.5 27.9 16.0 28.3 15.8 Q29.35 15.6 28.3 15.2 M7.8 21.45 L7.65 20.3 7.75 19.5 7.15 18.85 8.25 16.8 Q7.85 14.7 9.05 12.85 L10.0 11.3 10.7 10.9 11.0 9.95 11.2 9.35 10.85 8.7 Q10.4 8.75 9.85 8.0 L9.7 7.55 Q10.45 7.15 10.85 8.65 L10.9 7.75 11.4 8.0 12.0 9.1 12.05 8.6 12.7 9.0 16.8 8.7 17.8 8.25 17.85 8.3 17.6 9.05 Q18.25 8.8 18.8 7.6 19.25 8.35 18.6 9.1 L18.25 9.45 18.6 9.95 19.45 11.2 Q22.55 15.4 22.25 20.45 L22.2 21.45 22.05 21.65 21.85 21.9 21.85 22.1 22.05 22.7 21.1 24.95 20.35 24.7 18.9 25.65 18.0 25.35 17.2 25.65 16.6 25.45 15.9 25.85 15.25 25.5 14.45 25.7 13.5 25.35 12.6 25.7 11.85 25.4 10.3 25.25 10.0 24.85 9.2 24.55 Q7.8 23.65 8.25 22.15 L7.8 21.45 M19.3 8.75 L19.3 7.95 Q19.4 7.5 19.65 7.15 L20.0 7.55 19.6 8.7 19.3 8.75 M25.15 2.7 L25.25 6.15 Q27.1 8.4 27.5 11.25 L28.35 11.75 28.45 12.2 29.25 12.95 28.85 14.15 29.45 15.55 28.95 16.5 29.05 17.95 28.85 18.55 28.4 19.15 28.6 19.95 28.6 20.55 28.6 20.95 28.1 21.3 27.75 21.6 27.8 22.4 27.0 23.45 27.1 24.45 26.35 25.25 25.85 25.55 25.15 25.6 24.65 26.75 23.8 27.2 22.8 27.05 10.65 27.6 Q9.1 27.6 8.45 26.55 L7.6 26.8 6.55 26.3 Q5.8 24.9 4.6 23.95 4.05 23.45 3.7 22.75 L3.0 22.4 2.85 21.6 2.1 21.05 2.25 18.65 1.5 18.15 1.0 17.45 1.45 16.45 0.7 15.5 1.75 13.65 1.15 12.95 Q3.75 10.35 4.15 6.95 4.4 4.7 5.6 2.7 7.5 3.65 8.95 5.15 L9.7 5.75 Q15.2 5.2 20.65 5.75 L24.55 2.15 24.8 2.25 25.15 2.7 M20.85 6.9 Q21.6 7.35 20.5 8.2 L20.25 8.4 20.25 7.8 Q20.25 7.45 20.4 7.2 L20.85 6.9 M21.0 19.05 L21.4 19.5 Q21.1 14.2 17.05 10.1 16.2 9.2 14.9 9.4 L11.95 10.15 Q9.1 13.05 9.0 16.85 L8.35 17.85 8.25 18.15 8.25 18.3 8.1 18.45 8.7 19.45 8.65 20.85 Q8.65 22.6 9.7 23.95 L10.2 23.95 10.65 24.3 11.4 24.3 11.85 24.65 Q12.85 24.55 13.5 25.15 L19.75 24.55 Q19.85 23.3 21.0 22.65 L21.1 21.65 21.4 21.25 Q21.5 20.95 21.1 20.75 L21.1 20.55 21.1 20.5 21.05 20.55 14.0 20.15 21.3 19.85 21.0 19.05 M9.7 20.1 Q9.1 20.45 9.15 19.85 L9.15 19.8 9.7 20.1 M8.45 7.2 L9.5 8.2 9.25 8.2 8.3 7.65 8.45 7.2 M5.95 8.35 Q4.85 6.9 5.6 4.9 6.85 5.25 7.2 7.5 L6.15 8.25 5.95 8.35 M13.5 19.25 L13.6 19.35 13.5 19.3 13.5 19.25 M17.9 17.2 L17.95 16.95 19.7 18.4 20.35 19.25 19.65 18.85 17.9 17.2 M11.85 17.05 L11.9 17.25 10.6 18.95 12.0 19.2 12.1 19.35 9.75 19.3 10.65 18.35 10.7 18.3 11.85 17.05 M13.05 19.3 L13.1 19.4 13.0 19.4 13.05 19.3" fill="#594631" fill-rule="evenodd" stroke="none"/>
    <path d="M3.35 12.55 L5.7 3.55 6.5 3.75 9.4 6.95 Q12.65 5.55 16.7 6.35 21.35 7.6 24.0 3.6 L23.65 5.0 Q22.6 5.6 22.4 7.05 L22.6 7.75 23.35 8.2 Q23.9 7.1 24.05 5.85 25.35 9.8 27.95 13.2 L27.7 13.85 28.3 15.2 27.45 14.9 27.1 15.3 27.4 15.7 27.9 16.0 27.8 16.5 26.55 16.25 26.65 16.75 27.0 17.25 28.0 17.15 28.05 17.95 27.2 19.3 26.45 19.45 27.15 20.35 26.45 20.85 25.35 20.35 25.15 21.3 24.75 20.65 24.1 20.65 24.35 22.1 22.6 20.05 22.65 21.6 Q22.65 22.3 22.2 21.45 L22.25 20.45 Q22.55 15.4 19.45 11.2 L20.55 10.9 Q21.0 10.55 21.0 10.0 21.05 9.45 20.65 9.05 20.2 8.65 19.6 8.7 L20.0 7.55 19.65 7.15 Q19.4 7.5 19.3 7.95 L19.3 8.75 Q19.0 8.75 18.85 9.1 18.65 9.45 18.6 9.95 L18.25 9.45 18.6 9.1 Q19.25 8.35 18.8 7.6 18.25 8.8 17.6 9.05 L17.85 8.3 17.8 8.25 16.8 8.7 12.7 9.0 12.05 8.6 12.0 9.1 11.4 8.0 10.9 7.75 10.85 8.65 Q10.45 7.15 9.7 7.55 L9.85 8.0 Q10.4 8.75 10.85 8.7 L11.2 9.35 11.0 9.95 10.65 9.25 9.7 8.95 8.95 9.45 8.8 10.35 9.45 11.2 10.0 11.3 9.05 12.85 Q7.85 14.7 8.25 16.8 L7.15 18.85 7.75 19.5 7.65 20.3 7.8 21.45 7.3 21.15 7.45 20.4 7.15 20.0 6.65 21.6 6.1 22.1 5.7 21.3 6.05 20.25 5.9 19.7 Q5.05 21.65 4.45 21.3 L4.0 21.7 3.9 21.2 3.0 20.3 3.5 18.8 3.15 18.05 4.6 16.7 2.7 17.6 2.3 17.4 2.55 16.45 2.15 15.65 3.9 14.4 3.9 14.25 3.8 14.2 Q3.05 14.4 2.2 14.85 L2.65 13.35 3.05 13.3 Q4.3 12.85 3.35 12.55 M20.85 6.9 L20.4 7.2 Q20.25 7.45 20.25 7.8 L20.25 8.4 20.5 8.2 Q21.6 7.35 20.85 6.9 M27.35 18.15 Q26.4 16.55 25.6 17.45 L26.25 18.45 27.45 18.35 27.35 18.15 M25.85 15.1 Q26.15 14.9 26.55 14.8 L26.2 14.55 25.35 14.6 25.3 14.95 25.85 15.1 M23.1 19.3 Q23.7 21.1 24.1 20.0 24.05 18.9 23.0 18.45 L23.1 19.3 M23.35 16.35 L22.4 15.8 23.0 17.2 23.3 17.35 Q23.8 17.05 23.5 16.5 L23.35 16.35 M24.8 15.95 Q23.75 14.9 23.55 15.7 L23.7 15.95 Q24.8 17.0 24.8 15.95 M25.65 19.9 L25.6 19.2 25.05 18.75 Q24.65 18.45 24.2 18.3 L25.65 19.9 M5.95 8.35 L6.15 8.25 7.2 7.5 Q6.85 5.25 5.6 4.9 4.85 6.9 5.95 8.35 M8.45 7.2 L8.3 7.65 9.25 8.2 9.5 8.2 8.45 7.2 M6.75 18.1 L7.4 16.9 6.9 17.15 Q6.45 17.6 6.55 18.3 L6.75 18.1 M5.2 16.85 L5.1 17.4 5.6 17.15 Q6.75 16.6 6.25 15.75 L5.2 16.85 M5.9 14.35 L5.65 14.25 Q4.5 14.7 5.2 15.4 L5.9 14.35 M4.35 18.9 Q3.6 19.65 3.75 20.4 5.2 19.2 5.1 18.2 L4.35 18.9" fill="#9b7857" fill-rule="evenodd" stroke="none"/>
    <path d="M8.65 20.85 L8.7 19.45 8.1 18.45 8.25 18.3 8.25 18.15 8.35 17.85 9.0 16.85 Q9.1 13.05 11.95 10.15 L14.9 9.4 Q16.2 9.2 17.05 10.1 21.1 14.2 21.4 19.5 L21.0 19.05 19.6 17.6 18.65 16.95 17.05 16.15 15.2 15.55 15.1 12.4 15.0 15.55 12.8 16.0 11.25 16.85 Q10.2 17.65 9.45 19.0 L9.15 19.8 9.15 19.85 Q9.1 20.45 9.7 20.1 L14.0 20.15 21.05 20.55 21.1 20.55 21.1 20.75 20.7 21.0 20.4 21.2 19.5 21.25 18.15 21.7 10.65 21.6 8.65 20.85 M13.0 11.15 L13.2 11.55 14.1 11.9 16.7 11.75 Q17.05 10.9 16.4 10.0 L13.45 9.9 Q13.2 10.15 13.1 10.55 L13.0 11.15" fill="#cdb8a5" fill-rule="evenodd" stroke="none"/>
    <path d="M13.5 19.25 L13.55 19.05 14.05 18.5 15.45 18.7 16.4 18.6 16.5 18.75 17.25 18.15 16.5 17.3 16.25 17.45 15.7 16.95 15.55 17.15 15.45 17.25 15.25 17.25 14.6 17.0 14.55 16.9 13.8 17.1 13.45 16.65 13.3 17.45 12.65 18.1 12.5 18.0 11.9 17.25 11.85 17.05 12.6 16.65 13.45 16.6 Q13.4 16.2 13.85 16.2 L14.55 16.25 15.9 16.25 16.8 16.45 17.95 16.95 17.9 17.2 17.65 17.95 17.7 18.05 18.3 19.3 17.55 19.45 16.85 19.4 14.5 19.4 13.6 19.35 13.5 19.25 M12.0 19.2 L12.2 18.55 12.3 18.25 12.45 18.15 12.55 18.2 13.05 19.3 13.0 19.4 12.1 19.35 12.0 19.2" fill="#ffffff" fill-rule="evenodd" stroke="none"/>
    <path d="M10.0 11.3 L9.45 11.2 8.8 10.35 8.95 9.45 9.7 8.95 10.65 9.25 11.0 9.95 10.7 10.9 10.0 11.3 M18.6 9.95 Q18.65 9.45 18.85 9.1 19.0 8.75 19.3 8.75 L19.6 8.7 Q20.2 8.65 20.65 9.05 21.05 9.45 21.0 10.0 21.0 10.55 20.55 10.9 L19.45 11.2 18.6 9.95" fill="#000000" fill-rule="evenodd" stroke="none"/>
    <path d="M14.0 20.15 L9.7 20.1 9.15 19.8 9.45 19.0 Q10.2 17.65 11.25 16.85 L12.8 16.0 15.0 15.55 15.1 12.4 15.2 15.55 17.05 16.15 18.65 16.95 19.6 17.6 21.0 19.05 21.3 19.85 14.0 20.15 M11.9 17.25 L12.5 18.0 12.65 18.1 13.3 17.45 13.45 16.65 13.8 17.1 14.55 16.9 14.6 17.0 15.25 17.25 15.45 17.25 15.55 17.15 15.7 16.95 16.25 17.45 16.5 17.3 17.25 18.15 16.5 18.75 16.4 18.6 15.45 18.7 14.05 18.5 13.55 19.05 13.5 19.25 13.5 19.3 13.6 19.35 14.5 19.4 16.85 19.4 17.55 19.45 18.3 19.3 17.7 18.05 17.65 17.95 17.9 17.2 19.65 18.85 20.35 19.25 19.7 18.4 17.95 16.95 16.8 16.45 15.9 16.25 14.55 16.25 13.85 16.2 Q13.4 16.2 13.45 16.6 L12.6 16.65 11.85 17.05 10.7 18.3 10.65 18.35 9.75 19.3 12.1 19.35 13.0 19.4 13.1 19.4 13.05 19.3 12.55 18.2 12.45 18.15 12.3 18.25 12.2 18.55 12.0 19.2 10.6 18.95 11.9 17.25" fill="#480000" fill-rule="evenodd" stroke="none"/>
    <path d="M3.35 12.55 Q4.3 12.85 3.05 13.3 L2.65 13.35 2.4 13.35 Q2.7 12.8 3.35 12.55 M2.2 14.85 Q3.05 14.4 3.8 14.2 L3.9 14.25 3.9 14.4 2.15 15.65 2.0 15.2 2.2 14.85 M2.7 17.6 L4.6 16.7 3.15 18.05 Q2.65 18.4 2.65 18.05 L2.7 17.6 M4.0 21.7 L4.45 21.3 Q5.05 21.65 5.9 19.7 L6.05 20.25 5.7 21.3 6.1 22.1 6.65 21.6 7.15 20.0 7.45 20.4 7.3 21.15 7.8 21.45 8.25 22.15 Q7.8 23.65 9.2 24.55 L10.0 24.85 10.3 25.25 11.85 25.4 12.6 25.7 13.5 25.35 14.45 25.7 15.25 25.5 15.9 25.85 16.6 25.45 17.2 25.65 18.0 25.35 18.9 25.65 20.35 24.7 21.1 24.95 22.05 22.7 21.85 22.1 21.85 21.9 22.05 21.65 22.2 21.45 Q22.65 22.3 22.65 21.6 L22.6 20.05 24.35 22.1 24.1 20.65 24.75 20.65 25.15 21.3 25.35 20.35 26.45 20.85 26.8 21.3 26.35 22.4 25.6 23.15 25.65 23.95 Q23.5 24.9 21.7 26.2 L20.1 26.05 19.0 26.75 18.15 26.5 17.4 26.75 14.4 26.8 13.65 26.3 13.0 26.7 11.85 26.5 11.3 26.75 10.7 26.3 9.4 26.4 8.5 25.45 7.45 25.4 7.0 24.5 6.55 24.3 6.2 23.85 5.35 23.7 4.75 22.4 4.25 22.4 Q3.55 22.2 4.0 21.7 M27.15 20.35 L26.45 19.45 27.2 19.3 Q28.05 20.05 27.35 20.35 L27.15 20.35 M28.0 17.15 L27.0 17.25 26.65 16.75 26.55 16.25 27.8 16.5 28.0 17.15 M27.9 16.0 L27.4 15.7 27.1 15.3 27.45 14.9 28.3 15.2 Q29.35 15.6 28.3 15.8 L27.9 16.0 M25.85 15.1 L25.3 14.95 25.35 14.6 26.2 14.55 26.55 14.8 Q26.15 14.9 25.85 15.1 M27.35 18.15 L27.45 18.35 26.25 18.45 25.6 17.45 Q26.4 16.55 27.35 18.15 M24.8 15.95 Q24.8 17.0 23.7 15.95 L23.55 15.7 Q23.75 14.9 24.8 15.95 M23.35 16.35 L23.5 16.5 Q23.8 17.05 23.3 17.35 L23.0 17.2 22.4 15.8 23.35 16.35 M23.1 19.3 L23.0 18.45 Q24.05 18.9 24.1 20.0 23.7 21.1 23.1 19.3 M25.65 19.9 L24.2 18.3 Q24.65 18.45 25.05 18.75 L25.6 19.2 25.65 19.9 M5.9 14.35 L5.2 15.4 Q4.5 14.7 5.65 14.25 L5.9 14.35 M5.2 16.85 L6.25 15.75 Q6.75 16.6 5.6 17.15 L5.1 17.4 5.2 16.85 M6.75 18.1 L6.55 18.3 Q6.45 17.6 6.9 17.15 L7.4 16.9 6.75 18.1 M4.35 18.9 L5.1 18.2 Q5.2 19.2 3.75 20.4 3.6 19.65 4.35 18.9" fill="#6c513e" fill-rule="evenodd" stroke="none"/>
    <path d="M8.65 20.85 L10.65 21.6 18.15 21.7 19.5 21.25 20.4 21.2 20.7 21.0 21.1 20.75 Q21.5 20.95 21.4 21.25 L21.1 21.65 21.0 22.65 Q19.85 23.3 19.75 24.55 L13.5 25.15 Q12.85 24.55 11.85 24.65 L11.4 24.3 10.65 24.3 10.2 23.95 9.7 23.95 Q8.65 22.6 8.65 20.85" fill="#b38f77" fill-rule="evenodd" stroke="none"/>
    <path d="M13.0 11.15 L13.1 10.55 Q13.2 10.15 13.45 9.9 L16.4 10.0 Q17.05 10.9 16.7 11.75 L14.1 11.9 13.2 11.55 13.0 11.15" fill="#333333" fill-rule="evenodd" stroke="none"/>
  </g>
</svg>
