<?xml version="1.0" encoding="UTF-8" standalone="no"?>
<svg xmlns:ffdec="https://www.free-decompiler.com/flash" xmlns:xlink="http://www.w3.org/1999/xlink" ffdec:objectType="shape" height="28.75px" width="28.1px" xmlns="http://www.w3.org/2000/svg">
  <g transform="matrix(1.0, 0.0, 0.0, 1.0, -1.15, -0.8)">
    <path d="M9.85 16.1 L9.85 16.15 9.85 16.1" fill="#254e29" fill-rule="evenodd" stroke="none"/>
    <path d="M10.4 6.35 L11.9 5.6 12.45 6.05 13.65 6.1 14.2 6.7 14.55 7.05 14.85 7.0 Q15.55 7.0 16.15 6.05 L17.25 6.05 17.9 5.6 19.4 6.4 Q18.55 6.35 18.3 7.05 L18.3 7.2 19.55 8.2 19.9 8.4 20.15 8.9 19.6 9.0 Q17.7 9.8 15.55 10.7 L15.55 10.2 15.35 8.75 15.25 8.6 14.85 8.35 14.45 8.6 14.35 8.7 14.15 10.2 14.1 10.7 14.0 10.65 Q12.7 9.95 11.15 9.35 L9.85 8.85 9.5 8.9 9.75 8.4 9.9 8.35 10.05 8.2 10.15 8.2 11.35 7.15 11.4 7.05 11.25 6.9 10.4 6.35 M20.75 9.5 L21.3 10.75 20.75 10.95 20.75 10.25 20.6 9.75 20.75 9.5 M22.1 11.6 Q22.65 12.5 22.25 13.25 L22.1 13.55 21.45 13.35 20.7 13.35 Q20.2 13.95 21.05 14.6 L20.95 15.8 20.25 15.8 20.15 15.95 20.15 16.5 20.6 17.0 Q20.75 17.9 20.35 19.0 L19.9 18.95 19.65 19.0 Q19.35 19.5 19.85 20.3 L20.0 20.55 19.7 21.9 19.0 21.45 16.55 23.05 17.0 22.65 17.1 22.45 Q17.2 21.9 16.8 21.85 L16.7 21.75 Q18.1 21.25 19.0 19.9 19.4 19.3 19.4 18.8 L19.15 18.7 16.75 20.35 15.4 21.45 14.85 22.1 Q14.55 21.2 13.75 20.75 L12.15 19.75 10.45 18.7 10.4 18.9 10.45 19.15 11.15 20.35 11.2 20.4 11.25 20.45 Q12.05 21.3 13.0 21.75 12.15 22.2 12.95 22.8 13.7 23.5 14.3 23.05 14.7 23.15 14.75 22.7 L14.75 22.6 14.85 22.55 14.95 22.6 15.1 22.95 Q15.2 23.1 15.4 23.05 L16.0 23.3 14.85 23.5 Q13.9 23.6 13.0 23.0 L10.7 21.45 10.1 22.05 9.65 20.55 10.25 19.2 9.8 18.85 9.3 19.0 8.95 17.1 9.6 16.15 9.65 15.95 9.2 15.6 8.75 15.8 8.65 14.6 Q9.1 14.15 9.2 13.5 L8.7 13.15 Q8.15 13.7 7.65 13.55 L7.2 12.6 7.55 11.6 Q7.45 12.0 7.75 12.45 L7.9 12.65 9.2 12.4 9.35 11.8 9.85 12.7 9.95 12.9 9.85 13.4 12.3 15.2 11.75 15.2 Q11.4 15.85 12.4 16.1 L13.5 16.75 14.25 16.7 Q14.3 17.05 14.6 16.9 L14.85 16.8 15.4 16.75 15.45 16.7 Q16.45 16.8 17.65 15.95 L18.05 15.4 17.95 15.2 17.35 15.2 19.7 13.6 19.75 12.9 19.8 12.7 20.3 11.8 20.7 12.45 21.25 12.4 22.05 12.5 22.1 11.6 M8.35 10.75 L8.65 10.15 8.9 9.5 9.1 9.75 8.95 10.3 8.95 10.95 8.35 10.75 M15.25 13.3 L15.4 13.55 15.8 13.95 17.95 13.7 Q16.3 14.0 14.85 15.0 L13.9 14.6 11.75 13.7 12.35 13.85 14.0 13.95 Q14.5 13.75 14.45 13.3 L15.15 13.4 15.25 13.3 M13.75 8.7 Q12.4 7.8 11.05 7.8 10.9 7.8 10.8 7.95 L10.75 8.2 10.75 8.45 10.95 8.7 12.95 9.5 13.5 9.6 13.65 9.35 13.75 9.1 13.75 8.7 M18.65 7.7 L18.5 7.65 Q16.95 7.8 15.95 8.7 L15.95 9.1 16.05 9.35 16.2 9.6 16.45 9.65 18.75 8.7 Q19.15 8.45 18.85 8.0 L18.65 7.7 M9.85 16.1 L9.85 16.15 Q10.3 17.05 11.05 17.5 L11.3 17.55 13.55 18.35 13.65 18.4 12.15 18.5 12.1 18.7 Q12.3 19.35 13.05 19.6 L13.55 19.9 13.75 20.0 14.35 19.6 14.65 19.5 14.75 19.15 14.95 19.15 15.1 19.5 15.4 19.6 15.95 19.75 Q16.35 19.95 16.6 19.45 17.35 19.4 17.6 18.7 L17.55 18.55 15.95 18.5 16.15 18.35 18.4 17.55 18.65 17.5 Q19.5 17.15 19.85 16.15 L19.8 16.1 Q19.8 15.4 19.3 15.85 18.35 16.6 17.35 16.85 15.8 16.85 14.85 17.85 14.2 17.5 13.55 17.35 11.85 16.95 10.45 15.85 9.85 15.35 9.85 16.1" fill="#3e7d40" fill-rule="evenodd" stroke="none"/>
    <path d="M23.85 1.25 Q24.0 1.65 23.6 2.3 L22.15 4.35 20.9 6.1 Q19.95 5.85 18.85 4.9 L19.1 4.9 Q19.85 4.3 20.7 3.9 L22.95 2.0 Q23.3 1.45 23.85 1.25 M5.85 1.25 Q6.9 2.3 8.1 3.05 9.25 3.7 10.4 4.6 L10.8 4.9 9.65 5.8 9.05 6.05 8.95 6.05 7.55 4.3 5.85 1.45 5.85 1.25 M18.8 26.05 L18.8 25.95 Q19.3 25.5 19.6 25.95 L19.05 27.15 18.9 27.35 18.8 26.05 M10.5 26.05 L10.55 25.9 Q11.2 25.65 11.45 26.35 L11.15 27.4 11.05 27.35 10.5 26.05 M17.35 26.1 L17.25 26.2 16.55 26.15 16.5 26.15 16.45 26.15 15.95 26.2 15.7 25.85 15.55 26.2 14.95 26.2 14.9 26.15 14.75 26.2 14.2 26.2 14.0 26.1 Q13.9 26.1 13.85 26.2 L13.35 26.2 Q13.2 26.05 13.1 26.05 L13.0 26.15 12.85 26.3 Q12.6 26.45 12.4 26.1 L12.4 25.8 Q13.05 25.2 14.15 25.15 15.95 24.8 17.35 25.8 L17.35 26.1" fill="#cccccc" fill-rule="evenodd" stroke="none"/>
    <path d="M18.85 4.9 Q18.45 4.45 18.95 4.0 L20.2 3.05 21.8 2.0 Q22.65 1.5 23.65 1.25 L23.85 1.25 Q23.3 1.45 22.95 2.0 L20.7 3.9 Q19.85 4.3 19.1 4.9 L18.85 4.9 M5.85 1.25 L6.0 1.3 Q7.0 1.5 7.9 2.05 L9.55 2.95 Q10.4 3.45 11.0 4.45 11.25 4.85 10.8 4.9 L10.4 4.6 Q9.25 3.7 8.1 3.05 6.9 2.3 5.85 1.25" fill="#ffffff" fill-rule="evenodd" stroke="none"/>
    <path d="M10.9 11.35 Q10.15 10.85 9.85 10.05 L10.6 10.55 Q11.65 11.3 12.95 11.8 11.85 11.9 10.9 11.35 M16.75 11.8 L17.6 11.45 19.8 10.1 19.8 10.15 19.55 10.6 Q18.45 12.05 16.75 11.8" fill="#ff3399" fill-rule="evenodd" stroke="none"/>
    <path d="M8.05 23.35 Q7.45 21.9 7.45 20.2 L7.2 19.05 6.95 17.6 6.95 15.2 Q5.5 14.1 5.45 12.3 5.45 10.9 6.4 10.15 L7.15 9.35 8.25 7.6 8.15 7.0 8.55 6.45 Q6.75 4.4 5.55 1.95 L5.35 1.3 5.55 1.05 5.75 0.85 5.95 0.8 Q7.55 1.05 8.9 2.2 L11.65 4.35 11.95 4.1 12.85 5.1 16.75 5.2 17.7 4.1 18.1 4.35 22.45 1.2 Q23.15 0.7 23.9 0.85 L24.25 1.35 24.35 1.65 23.05 3.8 21.35 6.2 21.25 6.45 21.5 6.75 21.55 7.05 21.55 7.25 21.45 7.6 23.15 10.35 Q24.35 10.85 24.2 12.3 L23.9 13.7 23.05 14.7 22.7 15.2 Q23.05 17.35 22.45 19.35 22.05 20.7 21.9 22.15 L21.7 23.15 21.65 23.3 20.7 22.6 Q21.7 20.25 21.9 17.8 L22.2 15.2 Q22.3 14.45 22.8 14.05 23.65 13.35 23.4 12.25 23.05 10.6 21.75 9.95 L21.3 9.6 21.7 9.3 20.85 8.15 20.0 7.8 20.0 7.6 20.0 7.35 20.15 7.05 19.4 6.4 17.9 5.6 17.25 6.05 16.15 6.05 Q15.55 7.0 14.85 7.0 L14.55 7.05 14.2 6.7 13.65 6.1 12.45 6.05 11.9 5.6 10.4 6.35 10.3 6.4 9.55 7.05 9.85 7.6 9.7 7.75 9.45 7.95 9.3 8.05 9.2 8.1 8.85 8.15 8.0 9.3 8.3 9.5 8.2 9.9 7.95 10.15 7.0 11.05 Q5.6 12.85 7.1 14.45 L7.3 14.8 7.65 16.5 8.15 19.25 8.7 21.95 8.9 23.1 8.05 23.35 M21.4 24.4 L21.2 24.75 19.9 28.05 Q19.3 29.3 18.15 29.5 L16.6 29.25 14.85 29.3 12.1 29.45 11.0 29.35 10.15 28.6 Q9.2 27.5 8.95 25.7 8.85 24.9 8.35 24.5 L9.75 24.2 Q10.9 26.05 12.95 25.15 L14.85 24.7 Q16.35 24.55 17.75 25.2 18.7 25.5 19.6 24.85 L20.3 23.45 21.4 24.4 M18.85 4.9 Q19.95 5.85 20.9 6.1 L22.15 4.35 23.6 2.3 Q24.0 1.65 23.85 1.25 L23.65 1.25 Q22.65 1.5 21.8 2.0 L20.2 3.05 18.95 4.0 Q18.45 4.45 18.85 4.9 M19.55 8.2 Q19.9 7.6 20.4 8.3 L20.75 8.95 20.75 9.5 20.6 9.75 20.5 10.1 20.15 11.45 Q19.9 12.3 19.15 12.6 L16.25 12.55 15.25 13.3 15.15 13.4 14.45 13.3 13.95 12.75 13.15 12.95 11.6 12.7 10.5 12.35 Q10.0 11.95 9.85 11.35 9.55 10.3 9.1 9.75 L8.9 9.5 Q8.75 8.8 9.25 8.25 L10.15 8.2 10.05 8.2 9.9 8.35 9.75 8.4 9.5 8.9 9.55 9.1 11.05 10.25 Q12.4 11.1 13.75 11.45 L13.8 11.15 14.0 10.65 14.1 10.7 14.15 10.2 14.35 8.7 14.45 8.6 14.8 9.2 Q14.65 9.9 14.85 10.8 L14.95 11.35 14.9 10.85 Q14.55 9.6 15.25 8.6 L15.35 8.75 15.55 10.2 15.55 11.0 15.85 11.25 15.95 11.45 16.0 11.45 17.85 10.7 19.4 9.65 20.15 9.0 20.15 8.9 19.9 8.4 19.55 8.2 M9.95 12.9 L10.1 13.3 Q10.45 13.6 10.95 13.9 L12.65 14.85 Q14.1 15.25 14.85 16.35 L15.55 15.8 Q17.8 14.95 19.6 13.3 L19.7 13.05 19.75 12.9 19.7 13.6 17.35 15.2 Q16.6 15.4 15.9 15.85 15.2 16.25 15.45 16.7 L15.4 16.75 14.85 16.8 14.6 16.9 Q14.3 17.05 14.25 16.7 14.5 16.35 14.05 15.95 13.3 15.5 12.3 15.2 L9.85 13.4 9.95 12.9 M10.8 4.9 Q11.25 4.85 11.0 4.45 10.4 3.45 9.55 2.95 L7.9 2.05 Q7.0 1.5 6.0 1.3 L5.85 1.25 5.85 1.45 7.55 4.3 8.95 6.05 9.05 6.05 9.65 5.8 10.8 4.9 M10.9 11.35 Q11.85 11.9 12.95 11.8 11.65 11.3 10.6 10.55 L9.85 10.05 Q10.15 10.85 10.9 11.35 M16.75 11.8 Q18.45 12.05 19.55 10.6 L19.8 10.15 19.8 10.1 17.6 11.45 16.75 11.8 M9.85 16.15 L9.85 16.1 10.55 16.65 Q11.15 17.15 11.9 17.3 13.7 17.6 14.75 19.15 L14.65 19.5 14.35 19.6 14.15 18.75 13.65 18.4 13.55 18.35 12.55 17.8 11.3 17.55 11.05 17.5 Q10.3 17.05 9.85 16.15 M19.8 16.1 L19.85 16.15 Q19.5 17.15 18.65 17.5 L18.4 17.55 17.15 17.85 16.15 18.35 15.95 18.5 15.4 19.6 15.1 19.5 14.95 19.15 Q15.95 17.55 17.85 17.2 L19.15 16.65 19.8 16.1 M11.2 20.4 L11.15 20.35 10.45 19.15 10.4 18.9 10.45 18.8 10.45 18.95 10.95 19.6 12.1 20.55 14.25 22.2 14.75 22.6 14.75 22.7 Q14.7 23.15 14.3 23.05 L14.3 23.0 Q13.9 22.1 13.25 21.75 L11.2 20.4 M14.95 22.6 L15.45 22.2 Q16.4 21.2 17.75 20.75 18.95 20.1 19.25 18.8 L19.0 19.9 18.55 20.35 16.45 21.75 Q15.8 22.25 15.45 22.9 L15.4 23.05 Q15.2 23.1 15.1 22.95 L14.95 22.6 M18.8 26.05 Q18.4 26.05 18.05 26.35 L17.35 26.7 14.85 26.75 12.0 26.65 11.45 26.35 Q11.2 25.65 10.55 25.9 L10.5 26.05 9.4 25.65 9.55 26.1 10.15 27.55 Q10.85 29.05 12.4 28.75 L15.55 28.35 17.35 28.75 Q18.95 29.05 19.65 27.55 L20.3 25.65 19.6 25.95 Q19.3 25.5 18.8 25.95 L18.8 26.05 M17.35 26.1 L17.9 25.9 17.9 25.85 17.35 25.8 Q15.95 24.8 14.15 25.15 13.05 25.2 12.4 25.8 L11.8 25.85 11.75 25.9 11.8 25.9 12.4 26.1 Q12.6 26.45 12.85 26.3 L13.0 26.15 13.35 26.2 13.85 26.2 14.2 26.2 14.75 26.2 14.95 26.2 15.55 26.2 15.95 26.2 16.45 26.15 16.55 26.15 17.25 26.2 17.35 26.1" fill="#152d16" fill-rule="evenodd" stroke="none"/>
    <path d="M21.65 23.3 Q22.05 24.15 22.75 24.55 23.05 24.6 23.35 24.8 L23.65 24.85 24.35 24.7 24.7 24.45 25.4 23.45 26.0 22.3 26.25 21.45 26.4 19.75 26.3 17.05 Q26.25 15.3 26.65 13.55 26.8 12.75 27.2 12.1 28.0 10.75 29.25 10.2 L28.65 10.8 Q28.3 10.95 28.1 11.35 27.15 12.65 27.05 14.25 26.9 15.8 27.05 17.5 L27.05 21.5 27.05 21.6 26.6 23.05 26.05 24.25 25.1 25.3 Q24.45 25.75 23.65 25.8 L22.45 25.5 22.1 25.15 21.4 24.4 20.3 23.45 19.6 24.85 Q18.7 25.5 17.75 25.2 16.35 24.55 14.85 24.7 L12.95 25.15 Q10.9 26.05 9.75 24.2 L8.35 24.5 7.4 25.1 6.35 25.6 5.25 25.2 4.25 24.3 Q3.45 23.05 3.3 21.5 3.15 19.45 3.3 17.5 L3.3 14.25 Q3.15 12.65 2.25 11.35 L1.75 10.8 1.15 10.2 Q2.35 10.75 3.15 12.1 L3.7 13.55 4.05 17.05 3.95 19.75 Q3.85 21.55 4.8 23.15 L5.25 23.7 6.0 24.2 Q7.1 24.1 8.05 23.35 L8.9 23.1 8.7 21.95 8.15 19.25 7.65 16.5 7.3 14.8 7.1 14.45 Q5.6 12.85 7.0 11.05 L7.95 10.15 8.2 9.9 8.3 9.5 8.0 9.3 8.85 8.15 9.2 8.1 9.3 8.05 9.45 7.95 9.7 7.75 9.85 7.6 9.55 7.05 10.3 6.4 10.4 6.35 11.25 6.9 11.4 7.05 11.35 7.15 10.15 8.2 9.25 8.25 Q8.75 8.8 8.9 9.5 L8.65 10.15 8.35 10.75 Q8.0 10.7 7.8 11.0 L7.55 11.6 7.2 12.6 7.65 13.55 Q8.15 13.7 8.7 13.15 L9.2 13.5 Q9.1 14.15 8.65 14.6 L8.75 15.8 9.2 15.6 9.65 15.95 9.6 16.15 8.95 17.1 9.3 19.0 9.8 18.85 10.25 19.2 9.65 20.55 10.1 22.05 10.7 21.45 13.0 23.0 Q13.9 23.6 14.85 23.5 L16.0 23.3 16.55 23.05 19.0 21.45 19.7 21.9 20.0 20.55 19.85 20.3 Q19.35 19.5 19.65 19.0 L19.9 18.95 20.35 19.0 Q20.75 17.9 20.6 17.0 L20.15 16.5 20.15 15.95 20.25 15.8 20.95 15.8 21.05 14.6 Q20.2 13.95 20.7 13.35 L21.45 13.35 22.1 13.55 22.25 13.25 Q22.65 12.5 22.1 11.6 L21.8 11.05 Q21.65 10.75 21.3 10.75 L20.75 9.5 20.75 8.95 20.4 8.3 Q19.9 7.6 19.55 8.2 L18.3 7.2 18.3 7.05 Q18.55 6.35 19.4 6.4 L20.15 7.05 20.0 7.35 20.0 7.6 20.0 7.8 20.85 8.15 21.7 9.3 21.3 9.6 21.75 9.95 Q23.05 10.6 23.4 12.25 23.65 13.35 22.8 14.05 22.3 14.45 22.2 15.2 L21.9 17.8 Q21.7 20.25 20.7 22.6 L21.65 23.3 M20.6 9.75 L20.75 10.25 20.75 10.95 20.5 11.35 20.3 11.8 19.8 12.7 19.75 12.9 19.7 13.05 19.6 13.3 Q17.8 14.95 15.55 15.8 L14.85 16.35 Q14.1 15.25 12.65 14.85 L10.95 13.9 Q10.45 13.6 10.1 13.3 L9.95 12.9 9.85 12.7 9.35 11.8 9.25 11.35 8.95 10.95 8.95 10.3 9.1 9.75 Q9.55 10.3 9.85 11.35 10.0 11.95 10.5 12.35 L11.6 12.7 13.15 12.95 13.95 12.75 14.45 13.3 Q14.5 13.75 14.0 13.95 L12.35 13.85 11.75 13.7 13.9 14.6 14.85 15.0 Q16.3 14.0 17.95 13.7 L15.8 13.95 15.4 13.55 15.25 13.3 16.25 12.55 19.15 12.6 Q19.9 12.3 20.15 11.45 L20.5 10.1 20.6 9.75 M14.45 8.6 L14.85 8.35 15.25 8.6 Q14.55 9.6 14.9 10.85 L14.95 11.35 14.85 10.8 Q14.65 9.9 14.8 9.2 L14.45 8.6 M15.55 10.2 L15.55 10.7 Q17.7 9.8 19.6 9.0 L20.15 8.9 20.15 9.0 19.4 9.65 17.85 10.7 16.0 11.45 15.95 11.45 15.85 11.25 15.55 11.0 15.55 10.2 M14.0 10.65 L13.8 11.15 13.75 11.45 Q12.4 11.1 11.05 10.25 L9.55 9.1 9.5 8.9 9.85 8.85 11.15 9.35 Q12.7 9.95 14.0 10.65 M11.3 17.55 L12.55 17.8 13.55 18.35 11.3 17.55 M14.75 19.15 Q13.7 17.6 11.9 17.3 11.15 17.15 10.55 16.65 L9.85 16.1 Q9.85 15.35 10.45 15.85 11.85 16.95 13.55 17.35 14.2 17.5 14.85 17.85 15.8 16.85 17.35 16.85 18.35 16.6 19.3 15.85 19.8 15.4 19.8 16.1 L19.15 16.65 17.85 17.2 Q15.95 17.55 14.95 19.15 L14.75 19.15 M18.4 17.55 L16.15 18.35 17.15 17.85 18.4 17.55 M11.2 20.4 L13.25 21.75 13.0 21.75 Q12.05 21.3 11.25 20.45 L11.2 20.4 M14.75 22.6 L14.25 22.2 12.1 20.55 10.95 19.6 10.45 18.95 10.45 18.8 10.4 18.9 10.45 18.7 12.15 19.75 13.75 20.75 Q14.55 21.2 14.85 22.1 L15.4 21.45 16.75 20.35 19.15 18.7 19.4 18.8 Q19.4 19.3 19.0 19.9 18.1 21.25 16.7 21.75 L16.45 21.75 18.55 20.35 19.0 19.9 19.25 18.8 Q18.95 20.1 17.75 20.75 16.4 21.2 15.45 22.2 L14.95 22.6 14.85 22.55 14.75 22.6 M11.45 23.4 Q12.05 24.35 13.3 24.15 L13.25 23.95 12.85 23.55 11.75 23.3 Q11.6 23.2 11.45 23.4 M16.35 24.15 L16.65 24.35 17.05 24.05 18.2 23.6 18.5 23.5 18.45 23.1 18.35 22.95 18.1 22.7 Q17.1 23.15 16.45 23.9 L16.35 24.15 M11.45 26.35 L12.0 26.65 14.85 26.75 17.35 26.7 18.05 26.35 Q18.4 26.05 18.8 26.05 L18.9 27.35 19.05 27.15 19.6 25.95 20.3 25.65 19.65 27.55 Q18.95 29.05 17.35 28.75 L15.55 28.35 12.4 28.75 Q10.85 29.05 10.15 27.55 L9.55 26.1 9.4 25.65 10.5 26.05 11.05 27.35 11.15 27.4 11.45 26.35" fill="#01653f" fill-rule="evenodd" stroke="none"/>
    <path d="M21.3 10.75 Q21.65 10.75 21.8 11.05 L22.1 11.6 22.05 12.5 21.25 12.4 20.7 12.45 20.3 11.8 20.5 11.35 20.75 10.95 21.3 10.75 M16.55 23.05 L16.0 23.3 15.4 23.05 15.45 22.9 Q15.8 22.25 16.45 21.75 L16.7 21.75 16.8 21.85 Q17.2 21.9 17.1 22.45 L17.0 22.65 16.55 23.05 M7.55 11.6 L7.8 11.0 Q8.0 10.7 8.35 10.75 L8.95 10.95 9.25 11.35 9.35 11.8 9.2 12.4 7.9 12.65 7.75 12.45 Q7.45 12.0 7.55 11.6 M13.75 8.7 L13.75 9.1 13.65 9.35 13.5 9.6 12.95 9.5 10.95 8.7 10.75 8.45 10.75 8.2 10.8 7.95 Q10.9 7.8 11.05 7.8 12.4 7.8 13.75 8.7 M18.65 7.7 L18.85 8.0 Q19.15 8.45 18.75 8.7 L16.45 9.65 16.2 9.6 16.05 9.35 15.95 9.1 15.95 8.7 Q16.95 7.8 18.5 7.65 L18.65 7.7 M12.3 15.2 Q13.3 15.5 14.05 15.95 14.5 16.35 14.25 16.7 L13.5 16.75 12.4 16.1 Q11.4 15.85 11.75 15.2 L12.3 15.2 M15.45 16.7 Q15.2 16.25 15.9 15.85 16.6 15.4 17.35 15.2 L17.95 15.2 18.05 15.4 17.65 15.95 Q16.45 16.8 15.45 16.7 M13.65 18.4 L14.15 18.75 14.35 19.6 13.75 20.0 13.55 19.9 13.05 19.6 Q12.3 19.35 12.1 18.7 L12.15 18.5 13.65 18.4 M15.95 18.5 L17.55 18.55 17.6 18.7 Q17.35 19.4 16.6 19.45 16.35 19.95 15.95 19.75 L15.4 19.6 15.95 18.5 M13.25 21.75 Q13.9 22.1 14.3 23.0 L14.3 23.05 Q13.7 23.5 12.95 22.8 12.15 22.2 13.0 21.75 L13.25 21.75" fill="#89c589" fill-rule="evenodd" stroke="none"/>
    <path d="M11.45 23.4 Q11.6 23.2 11.75 23.3 L12.85 23.55 13.25 23.95 13.3 24.15 Q12.05 24.35 11.45 23.4 M16.35 24.15 L16.45 23.9 Q17.1 23.15 18.1 22.7 L18.35 22.95 18.45 23.1 18.5 23.5 18.2 23.6 17.05 24.05 16.65 24.35 16.35 24.15" fill="#000000" fill-rule="evenodd" stroke="none"/>
    <path d="M17.35 25.8 L17.9 25.85 17.9 25.9 17.35 26.1 17.35 25.8 M16.55 26.15 L16.45 26.15 16.5 26.15 16.55 26.15 M15.95 26.2 L15.55 26.2 15.7 25.85 15.95 26.2 M14.95 26.2 L14.75 26.2 14.9 26.15 14.95 26.2 M14.2 26.2 L13.85 26.2 Q13.9 26.1 14.0 26.1 L14.2 26.2 M13.35 26.2 L13.0 26.15 13.1 26.05 Q13.2 26.05 13.35 26.2 M12.4 26.1 L11.8 25.9 11.8 25.85 12.4 25.8 12.4 26.1" fill="#990000" fill-rule="evenodd" stroke="none"/>
  </g>
</svg>
