<?xml version="1.0" encoding="UTF-8" standalone="no"?>
<svg xmlns:ffdec="https://www.free-decompiler.com/flash" xmlns:xlink="http://www.w3.org/1999/xlink" ffdec:objectType="shape" height="25.95px" width="27.75px" xmlns="http://www.w3.org/2000/svg">
  <g transform="matrix(1.0, 0.0, 0.0, 1.0, -1.2, -2.3)">
    <path d="M5.7 6.15 L5.8 6.1 Q9.65 2.3 15.15 2.3 20.65 2.3 24.5 6.1 L24.6 6.2 23.05 6.25 Q21.9 8.7 19.8 10.35 L18.65 11.2 18.5 11.9 16.25 12.85 16.95 13.1 17.9 14.6 17.85 14.8 17.8 14.8 17.6 14.8 17.25 14.65 Q16.95 14.85 16.6 15.0 L16.85 15.8 17.3 15.5 19.1 16.2 19.8 15.45 19.75 14.4 Q20.8 15.3 22.25 14.95 L23.4 14.8 23.55 14.0 24.15 14.1 24.7 13.6 24.75 12.45 25.8 12.6 26.15 12.35 26.3 11.9 26.05 11.35 27.75 11.15 Q28.35 13.05 28.4 15.25 28.35 20.65 24.5 24.45 20.65 28.25 15.15 28.25 9.65 28.25 5.8 24.45 1.9 20.65 1.9 15.25 1.9 13.1 2.55 11.2 L4.05 11.45 3.95 12.2 4.0 12.25 4.15 12.4 5.35 12.45 5.45 13.6 6.0 14.1 6.6 14.0 6.65 14.4 6.9 14.95 7.15 15.25 Q8.85 15.6 10.35 14.4 L10.3 15.15 10.7 15.8 11.05 16.2 12.95 15.6 13.65 15.9 13.95 15.8 14.45 15.2 14.05 14.95 13.5 15.0 12.85 14.65 12.7 14.75 13.15 13.1 14.1 12.5 12.2 12.2 Q9.3 9.45 7.1 6.25 L5.7 6.15" fill="url(#gradient0)" fill-rule="evenodd" stroke="none"/>
    <path d="M24.6 6.2 L28.6 5.95 28.95 6.75 28.7 7.1 28.3 7.45 27.75 7.75 28.35 8.1 28.65 8.5 28.3 9.25 27.35 9.65 27.75 11.15 26.05 11.35 26.3 11.9 26.15 12.35 25.8 12.6 24.75 12.45 24.7 13.6 24.15 14.1 23.55 14.0 23.4 14.8 22.25 14.95 Q20.8 15.3 19.75 14.4 L19.8 15.45 19.1 16.2 17.3 15.5 16.85 15.8 16.6 15.0 Q16.95 14.85 17.25 14.65 L17.6 14.8 17.8 14.8 17.85 14.8 17.9 14.6 16.95 13.1 16.25 12.85 18.5 11.9 18.65 11.2 19.8 10.35 Q21.9 8.7 23.05 6.25 L24.6 6.2 M2.55 11.2 L2.35 11.15 2.4 10.65 2.75 9.65 1.85 8.95 1.5 8.5 1.6 8.2 1.8 8.05 2.4 7.75 1.4 6.9 1.2 6.65 1.2 6.5 1.25 6.3 1.65 5.9 5.7 6.15 7.1 6.25 Q9.3 9.45 12.2 12.2 L14.1 12.5 13.15 13.1 12.7 14.75 12.85 14.65 13.5 15.0 14.05 14.95 14.45 15.2 13.95 15.8 13.65 15.9 12.95 15.6 11.05 16.2 10.7 15.8 10.3 15.15 10.35 14.4 Q8.85 15.6 7.15 15.25 L6.9 14.95 6.65 14.4 6.6 14.0 6.0 14.1 5.45 13.6 5.35 12.45 4.15 12.4 4.0 12.25 3.95 12.2 4.05 11.45 2.55 11.2" fill="#ffffff" fill-rule="evenodd" stroke="none"/>
  </g>
  <defs>
    <radialGradient cx="0" cy="0" gradientTransform="matrix(0.0267, 0.0, 0.0, 0.0262, 15.1, 15.25)" gradientUnits="userSpaceOnUse" id="gradient0" r="819.2" spreadMethod="pad">
      <stop offset="0.35294117647058826" stop-color="#ffffff"/>
      <stop offset="0.6470588235294118" stop-color="#000000" stop-opacity="0.0"/>
    </radialGradient>
  </defs>
</svg>
