<?xml version="1.0" encoding="UTF-8" standalone="no"?>
<svg xmlns:ffdec="https://www.free-decompiler.com/flash" xmlns:xlink="http://www.w3.org/1999/xlink" ffdec:objectType="shape" height="25.05px" width="27.45px" xmlns="http://www.w3.org/2000/svg">
  <g transform="matrix(1.0, 0.0, 0.0, 1.0, -1.35, -2.5)">
    <path d="M24.7 7.4 Q26.0 7.2 26.7 6.55 L27.05 6.4 Q26.95 5.35 25.9 4.95 20.95 2.9 15.6 2.85 L15.0 2.85 12.55 3.15 Q9.4 3.35 6.2 4.2 5.25 4.55 4.4 5.05 3.75 5.3 3.3 5.8 L3.1 6.25 3.15 6.4 3.65 6.9 5.45 7.4 8.25 7.65 9.45 7.15 10.7 6.8 15.15 7.2 19.45 6.8 Q20.85 6.55 21.85 7.65 L24.7 7.4 M23.0 8.4 L22.95 8.4 21.7 8.55 21.55 8.7 21.45 9.05 21.55 9.2 23.0 9.15 22.95 9.0 23.1 8.95 23.8 9.45 Q24.85 10.55 25.7 12.2 L26.65 14.75 27.5 18.2 27.65 18.25 27.75 17.25 27.9 14.95 28.1 12.25 28.3 8.3 28.15 7.15 28.15 7.0 27.95 6.9 27.85 6.8 26.45 7.45 25.55 7.75 24.9 8.0 23.0 8.4 M17.4 20.8 L17.95 17.65 18.55 14.0 19.45 10.4 19.95 8.65 19.35 11.75 18.65 15.4 18.1 18.9 19.2 14.2 20.3 10.45 Q20.6 9.5 21.05 8.55 L21.25 7.9 21.3 7.9 Q21.3 7.45 20.9 7.45 L20.45 7.3 17.1 7.65 15.15 7.75 14.05 7.7 13.05 7.65 9.4 7.45 9.0 7.55 8.9 7.75 8.95 7.95 9.1 8.55 9.9 10.45 Q10.9 13.0 11.45 15.8 L12.1 18.9 11.15 13.55 10.4 9.9 10.2 8.9 10.7 10.45 11.55 14.0 12.2 17.7 12.6 20.4 12.75 20.8 12.7 21.15 12.7 21.2 13.75 26.55 14.1 26.9 15.0 26.95 16.05 26.8 16.45 26.0 17.2 22.7 17.4 21.2 17.4 21.15 17.4 20.8 M23.2 9.9 L21.7 9.8 Q20.55 10.5 20.1 12.2 19.7 13.55 19.45 15.05 L18.8 18.0 Q20.15 15.2 22.1 12.65 L19.7 16.95 Q19.05 18.1 18.7 19.45 18.15 20.95 17.9 22.65 19.85 17.15 23.25 12.75 23.75 12.0 24.55 11.4 L23.2 9.9 M25.0 12.0 L24.95 12.15 24.7 12.15 Q23.3 13.45 22.25 15.25 20.5 18.3 19.2 21.55 L18.5 23.2 Q17.95 24.5 17.55 25.9 17.25 26.95 16.45 27.55 L13.6 27.4 13.35 27.15 12.3 24.75 9.55 18.45 8.75 16.8 6.95 13.9 5.5 12.05 5.45 12.05 5.25 12.15 4.65 13.3 4.05 15.15 3.15 18.9 2.6 20.95 2.1 22.8 2.1 20.4 2.0 17.55 1.75 13.95 1.6 12.7 Q1.3 11.2 1.35 9.5 1.4 8.2 1.7 6.95 1.8 6.25 2.3 5.9 3.55 4.9 5.0 4.15 L7.2 3.45 10.65 2.9 15.15 2.5 16.05 2.5 17.75 2.7 22.95 3.45 Q25.95 3.9 27.95 5.7 28.75 6.35 28.8 7.65 L28.5 12.7 28.5 13.0 28.25 15.8 27.9 23.0 27.45 20.9 27.0 18.9 26.1 15.2 25.0 12.0 M7.15 8.4 Q5.35 8.25 3.75 7.45 L2.3 6.8 Q2.1 6.85 2.0 7.0 1.9 7.15 1.95 7.25 1.4 9.8 1.8 12.3 L2.35 17.25 2.45 18.15 2.55 18.2 3.45 14.7 Q4.0 11.85 5.95 9.75 6.35 9.3 6.75 9.0 L7.2 9.0 7.15 9.2 8.4 9.4 8.6 9.3 8.7 8.9 8.7 8.75 8.4 8.55 7.2 8.4 7.15 8.4 M6.75 10.05 L5.6 11.4 8.15 14.3 9.15 15.8 12.25 22.65 11.5 19.3 11.25 18.5 8.45 13.3 11.4 18.0 10.85 15.05 10.0 12.15 Q9.65 11.05 9.1 10.4 L9.1 10.2 8.95 10.0 6.8 10.05 6.75 10.05" fill="#1d3d30" fill-rule="evenodd" stroke="none"/>
    <path d="M24.7 7.4 Q23.85 6.75 23.85 5.5 23.05 4.65 21.95 5.0 21.05 5.85 19.85 5.5 L19.95 5.2 20.0 4.05 Q19.55 3.3 18.8 3.7 L18.45 4.65 18.7 5.25 17.25 5.9 16.8 5.55 15.8 4.75 15.0 4.45 Q14.25 4.65 13.65 5.15 L13.7 4.95 13.55 4.5 13.2 4.3 Q12.95 4.3 12.8 4.5 L12.65 4.95 12.8 5.4 13.2 5.55 12.95 5.9 11.5 5.25 Q11.95 4.3 11.4 3.7 L10.5 3.75 10.1 4.65 10.35 5.5 Q9.0 5.7 7.9 4.9 6.5 4.7 6.25 5.8 L6.25 6.25 Q6.15 7.05 5.45 7.4 L3.65 6.9 3.15 6.4 3.1 6.25 3.3 5.8 Q3.75 5.3 4.4 5.05 5.25 4.55 6.2 4.2 9.4 3.35 12.55 3.15 L15.0 2.85 15.6 2.85 Q20.95 2.9 25.9 4.95 26.95 5.35 27.05 6.4 L26.7 6.55 Q26.0 7.2 24.7 7.4 M24.8 5.25 Q24.45 5.35 24.25 5.65 23.85 6.2 24.35 6.55 24.85 6.85 25.2 6.3 25.65 5.55 24.8 5.25 M27.75 17.25 L27.75 16.5 27.35 13.3 27.05 11.75 26.95 11.15 27.15 11.3 27.5 11.0 27.65 10.25 27.5 9.5 27.15 9.2 26.85 9.5 Q26.7 9.8 26.7 10.25 L26.7 10.5 26.2 9.55 25.5 9.4 24.8 8.55 23.0 8.4 24.9 8.0 25.55 7.75 26.45 7.45 27.85 6.8 27.95 6.9 28.15 7.0 28.15 7.15 28.3 8.3 28.1 12.25 27.9 14.95 27.75 17.25 M12.75 20.8 L12.6 20.4 12.2 17.7 11.55 14.0 10.7 10.45 10.2 8.9 10.4 9.9 11.15 13.55 12.1 18.9 11.45 15.8 Q10.9 13.0 9.9 10.45 L9.1 8.55 8.95 7.95 8.9 7.75 9.0 7.55 9.4 7.45 13.05 7.65 14.05 7.7 15.15 7.75 17.1 7.65 20.45 7.3 20.9 7.45 Q21.3 7.45 21.3 7.9 L21.25 7.9 21.05 8.55 Q20.6 9.5 20.3 10.45 L19.2 14.2 18.1 18.9 18.65 15.4 19.35 11.75 19.95 8.65 19.45 10.4 18.55 14.0 17.95 17.65 17.4 20.8 15.0 22.2 12.75 20.8 M17.4 4.5 L17.1 4.3 16.75 4.5 Q16.6 4.7 16.6 4.95 L16.75 5.4 Q16.9 5.55 17.1 5.55 L17.4 5.4 17.55 4.95 17.4 4.5 M27.15 8.0 L27.05 8.4 27.15 8.8 27.35 8.95 27.55 8.8 27.65 8.4 27.55 8.0 27.35 7.8 27.15 8.0 M12.5 12.2 Q11.8 12.8 12.45 13.75 L13.4 15.15 13.85 14.9 13.8 13.15 Q13.65 12.0 12.65 12.2 L12.5 12.2 M12.5 9.95 Q12.6 10.85 13.3 10.5 L13.4 10.4 Q13.2 9.5 12.55 9.8 12.45 9.85 12.5 9.95 M17.5 12.15 L17.1 12.2 Q16.45 12.55 16.35 13.15 L16.4 14.75 16.55 15.05 Q18.05 14.65 18.0 12.7 L17.5 12.15 M16.9 10.25 Q17.4 11.05 17.65 9.95 L17.4 9.8 Q17.15 9.8 16.95 9.95 L16.9 10.25 M2.8 9.0 L3.1 8.5 Q3.25 7.6 2.75 8.3 2.3 8.8 2.8 9.0 M2.35 17.25 L1.8 12.3 Q1.4 9.8 1.95 7.25 1.9 7.15 2.0 7.0 2.1 6.85 2.3 6.8 L3.75 7.45 Q5.35 8.25 7.15 8.4 L5.3 8.55 4.65 9.4 3.55 9.8 2.95 13.45 Q2.5 14.85 2.4 16.5 L2.35 17.25 M2.6 9.3 L2.5 9.5 Q2.3 10.7 3.05 11.3 L3.35 10.7 3.35 9.65 3.25 9.4 2.6 9.3 M5.65 5.5 Q5.15 5.1 4.85 5.7 4.8 6.85 5.8 6.55 6.4 5.95 5.65 5.5 M15.85 18.15 L15.75 18.5 15.85 18.85 Q15.95 19.0 16.15 19.0 L16.45 18.85 16.55 18.5 16.45 18.15 16.15 18.0 Q15.95 18.0 15.85 18.15 M13.8 18.15 L13.7 18.5 13.8 18.85 14.1 19.0 14.4 18.85 14.5 18.5 14.4 18.15 Q14.25 18.0 14.1 18.0 13.9 18.0 13.8 18.15 M15.15 19.55 L15.0 19.65 Q14.5 19.05 14.0 19.5 L13.5 19.95 14.1 21.05 Q14.35 21.65 15.15 21.7 L15.55 21.55 Q16.6 21.1 16.6 19.95 16.35 19.25 15.6 19.4 L15.15 19.55" fill="#637663" fill-rule="evenodd" stroke="none"/>
    <path d="M5.45 7.4 Q6.15 7.05 6.25 6.25 L6.25 5.8 Q6.5 4.7 7.9 4.9 9.0 5.7 10.35 5.5 L10.1 4.65 10.5 3.75 11.4 3.7 Q11.95 4.3 11.5 5.25 L12.95 5.9 13.2 5.55 12.8 5.4 12.65 4.95 12.8 4.5 Q12.95 4.3 13.2 4.3 L13.55 4.5 13.7 4.95 13.65 5.15 Q14.25 4.65 15.0 4.45 L15.8 4.75 16.8 5.55 17.25 5.9 18.7 5.25 18.45 4.65 18.8 3.7 Q19.55 3.3 20.0 4.05 L19.95 5.2 19.85 5.5 Q21.05 5.85 21.95 5.0 23.05 4.65 23.85 5.5 23.85 6.75 24.7 7.4 L21.85 7.65 Q20.85 6.55 19.45 6.8 L15.15 7.2 10.7 6.8 9.45 7.15 8.25 7.65 5.45 7.4 M24.8 5.25 Q25.65 5.55 25.2 6.3 24.85 6.85 24.35 6.55 23.85 6.2 24.25 5.65 24.45 5.35 24.8 5.25 M27.75 17.25 L27.65 18.25 27.5 18.2 26.65 14.75 25.7 12.2 Q24.85 10.55 23.8 9.45 L23.1 8.95 22.95 9.0 23.0 9.15 21.55 9.2 21.45 9.05 21.55 8.7 21.7 8.55 22.95 8.4 23.0 8.4 24.8 8.55 25.5 9.4 26.2 9.55 26.7 10.5 26.7 10.25 Q26.7 9.8 26.85 9.5 L27.15 9.2 27.5 9.5 27.65 10.25 27.5 11.0 27.15 11.3 26.95 11.15 27.05 11.75 27.35 13.3 27.75 16.5 27.75 17.25 M12.75 20.8 L15.0 22.2 17.4 20.8 17.4 21.15 17.4 21.2 17.2 22.7 16.45 26.0 16.05 26.8 15.0 26.95 14.1 26.9 13.75 26.55 12.7 21.2 12.7 21.15 12.75 20.8 M23.2 9.9 L24.55 11.4 Q23.75 12.0 23.25 12.75 19.85 17.15 17.9 22.65 18.15 20.95 18.7 19.45 19.05 18.1 19.7 16.95 L22.1 12.65 Q20.15 15.2 18.8 18.0 L19.45 15.05 Q19.7 13.55 20.1 12.2 20.55 10.5 21.7 9.8 L23.2 9.9 M27.15 8.0 L27.35 7.8 27.55 8.0 27.65 8.4 27.55 8.8 27.35 8.95 27.15 8.8 27.05 8.4 27.15 8.0 M17.4 4.5 L17.55 4.95 17.4 5.4 17.1 5.55 Q16.9 5.55 16.75 5.4 L16.6 4.95 Q16.6 4.7 16.75 4.5 L17.1 4.3 17.4 4.5 M12.5 9.95 Q12.45 9.85 12.55 9.8 13.2 9.5 13.4 10.4 L13.3 10.5 Q12.6 10.85 12.5 9.95 M12.5 12.2 L12.65 12.2 Q13.65 12.0 13.8 13.15 L13.85 14.9 13.4 15.15 12.45 13.75 Q11.8 12.8 12.5 12.2 M16.9 10.25 L16.95 9.95 Q17.15 9.8 17.4 9.8 L17.65 9.95 Q17.4 11.05 16.9 10.25 M17.5 12.15 L18.0 12.7 Q18.05 14.65 16.55 15.05 L16.4 14.75 16.35 13.15 Q16.45 12.55 17.1 12.2 L17.5 12.15 M2.8 9.0 Q2.3 8.8 2.75 8.3 3.25 7.6 3.1 8.5 L2.8 9.0 M2.35 17.25 L2.4 16.5 Q2.5 14.85 2.95 13.45 L3.55 9.8 4.65 9.4 5.3 8.55 7.15 8.4 7.2 8.4 8.4 8.55 8.7 8.75 8.7 8.9 8.6 9.3 8.4 9.4 7.15 9.2 7.2 9.0 6.75 9.0 Q6.35 9.3 5.95 9.75 4.0 11.85 3.45 14.7 L2.55 18.2 2.45 18.15 2.35 17.25 M2.6 9.3 L3.25 9.4 3.35 9.65 3.35 10.7 3.05 11.3 Q2.3 10.7 2.5 9.5 L2.6 9.3 M6.75 10.05 L6.8 10.05 8.95 10.0 9.1 10.2 9.1 10.4 Q9.65 11.05 10.0 12.15 L10.85 15.05 11.4 18.0 8.45 13.3 11.25 18.5 11.5 19.3 12.25 22.65 9.15 15.8 8.15 14.3 5.6 11.4 6.75 10.05 M5.65 5.5 Q6.4 5.95 5.8 6.55 4.8 6.85 4.85 5.7 5.15 5.1 5.65 5.5 M15.85 18.15 Q15.95 18.0 16.15 18.0 L16.45 18.15 16.55 18.5 16.45 18.85 16.15 19.0 Q15.95 19.0 15.85 18.85 L15.75 18.5 15.85 18.15 M13.8 18.15 Q13.9 18.0 14.1 18.0 14.25 18.0 14.4 18.15 L14.5 18.5 14.4 18.85 14.1 19.0 13.8 18.85 13.7 18.5 13.8 18.15 M15.15 19.55 L15.6 19.4 Q16.35 19.25 16.6 19.95 16.6 21.1 15.55 21.55 L15.15 21.7 Q14.35 21.65 14.1 21.05 L13.5 19.95 14.0 19.5 Q14.5 19.05 15.0 19.65 L15.15 19.55" fill="#4b584b" fill-rule="evenodd" stroke="none"/>
  </g>
</svg>
