<?xml version="1.0" encoding="UTF-8" standalone="no"?>
<svg xmlns:ffdec="https://www.free-decompiler.com/flash" xmlns:xlink="http://www.w3.org/1999/xlink" ffdec:objectType="shape" height="20.15px" width="26.75px" xmlns="http://www.w3.org/2000/svg">
  <g transform="matrix(1.0, 0.0, 0.0, 1.0, -1.65, -4.3)">
    <path d="M23.4 4.8 Q26.15 6.05 27.6 8.35 L28.25 9.4 28.4 9.6 28.35 9.65 28.25 10.65 28.2 10.8 28.15 10.8 28.1 10.9 28.0 10.8 27.95 10.85 28.05 10.25 28.0 9.85 27.4 9.3 27.35 9.3 27.25 9.25 26.3 9.4 25.8 9.7 25.65 9.9 Q25.9 9.25 26.55 9.15 L27.75 9.3 27.85 9.35 27.9 9.4 27.95 9.5 27.85 8.9 25.45 6.4 Q24.25 5.45 22.9 4.75 L23.7 5.95 23.6 6.35 23.6 6.45 Q23.0 8.3 21.8 9.75 21.05 10.65 19.9 10.85 L21.0 10.0 22.8 7.85 Q23.55 6.8 23.4 5.65 L22.3 4.3 23.4 4.8 M21.85 11.5 L22.25 11.85 22.25 11.9 22.5 11.65 22.45 11.8 22.35 12.15 22.2 12.6 22.0 13.1 22.0 13.05 22.1 12.6 22.15 12.05 22.0 11.75 20.45 11.55 21.85 11.5 M24.55 11.25 L23.5 11.15 Q24.45 10.85 25.3 11.5 L25.55 10.2 25.6 10.05 25.45 12.9 25.35 13.05 25.3 12.55 25.35 12.0 25.35 11.9 25.35 11.85 25.3 11.7 24.55 11.25 M7.55 11.8 L7.5 11.65 7.75 11.9 7.75 11.85 8.15 11.5 9.55 11.55 8.0 11.75 7.85 12.05 7.9 12.6 8.0 13.05 8.0 13.1 7.8 12.6 7.65 12.15 7.55 11.8 M4.7 11.7 L4.65 11.85 4.65 11.9 4.65 12.0 4.7 12.55 4.65 13.05 4.55 12.9 4.4 10.05 4.45 10.2 4.7 11.5 Q5.55 10.85 6.5 11.15 L5.45 11.25 4.7 11.7 M6.3 5.95 L7.1 4.75 4.55 6.4 2.15 8.9 2.05 9.5 2.1 9.4 2.15 9.35 2.25 9.3 3.45 9.15 Q4.1 9.25 4.35 9.9 L4.2 9.7 3.7 9.4 2.75 9.25 2.65 9.3 2.6 9.3 2.0 9.85 1.95 10.25 2.05 10.85 2.0 10.8 1.9 10.9 1.85 10.8 1.8 10.8 1.75 10.65 1.65 9.65 1.65 9.6 1.75 9.4 2.4 8.35 Q3.85 6.05 6.6 4.8 L7.7 4.3 6.6 5.65 Q6.45 6.8 7.2 7.85 L9.0 10.0 10.1 10.85 Q8.95 10.65 8.2 9.75 7.0 8.3 6.4 6.45 L6.4 6.35 6.3 5.95" fill="#ffffff" fill-rule="evenodd" stroke="none"/>
    <path d="M21.45 20.2 Q21.1 20.9 21.05 21.4 L20.65 22.55 Q19.6 24.5 17.5 24.0 L17.15 24.05 16.45 24.45 16.6 24.05 Q18.2 22.15 20.5 20.8 L21.45 20.1 21.45 20.2 M9.75 21.85 L11.65 23.45 11.8 23.45 Q12.15 23.05 11.6 22.75 L9.8 21.8 9.75 21.85 M8.95 21.4 L8.55 20.2 8.55 20.1 9.5 20.8 Q11.8 22.15 13.4 24.05 L13.55 24.45 12.85 24.05 12.5 24.0 Q10.4 24.5 9.35 22.55 L8.95 21.4 M20.2 21.8 L18.4 22.75 Q17.85 23.05 18.2 23.45 L18.35 23.45 Q19.4 22.85 20.25 21.85 L20.2 21.8" fill="#990000" fill-rule="evenodd" stroke="none"/>
    <path d="M9.75 21.85 L9.8 21.8 11.6 22.75 Q12.15 23.05 11.8 23.45 L11.65 23.45 9.75 21.85 M20.2 21.8 L20.25 21.85 Q19.4 22.85 18.35 23.45 L18.2 23.45 Q17.85 23.05 18.4 22.75 L20.2 21.8" fill="#ff0000" fill-rule="evenodd" stroke="none"/>
  </g>
</svg>
