<?xml version="1.0" encoding="UTF-8" standalone="no"?>
<svg xmlns:ffdec="https://www.free-decompiler.com/flash" xmlns:xlink="http://www.w3.org/1999/xlink" ffdec:objectType="shape" height="10.05px" width="16.1px" xmlns="http://www.w3.org/2000/svg">
  <g transform="matrix(1.0, 0.0, 0.0, 1.0, 7.5, 5.15)">
    <path d="M2.0 -1.35 L2.05 -1.35 2.5 -1.35 2.5 -2.1 2.0 -2.1 0.8 -2.25 -0.65 -2.45 -2.05 -2.7 -2.1 -1.8 -1.35 -1.65 -1.35 -2.5 -1.2 -1.6 -0.6 -1.5 -0.55 -1.5 -0.4 -1.55 -0.35 -2.3 -0.25 -1.6 -0.25 -1.45 0.6 -1.35 0.65 -2.15 0.7 -2.2 0.85 -1.35 1.6 -1.35 1.6 -2.05 1.65 -1.35 2.0 -1.35 M3.05 -2.3 L3.4 -1.75 4.4 -0.2 5.1 1.05 5.2 1.25 6.8 4.45 4.3 4.9 Q1.45 5.0 -0.85 3.75 L-1.55 3.65 -2.45 3.6 -4.15 3.3 -6.15 2.45 -7.05 1.8 -7.3 1.5 -7.45 1.05 -7.5 0.35 -7.3 -1.6 -7.0 -2.55 -6.8 -3.2 -6.7 -5.0 -6.6 -5.05 -6.5 -5.15 -5.75 -4.55 -4.15 -3.65 -2.2 -3.0 -0.35 -2.65 1.5 -2.45 3.05 -2.3 M3.05 -1.5 L2.85 -2.1 2.65 -2.05 2.75 -1.55 2.75 -1.4 2.9 -1.45 3.0 -1.45 3.05 -1.5 M5.4 2.2 L4.85 1.25 4.45 0.25 Q4.15 -0.9 3.25 -1.1 L2.75 -1.05 1.45 -1.0 -1.75 -1.35 -1.85 -0.65 -1.9 0.0 -1.45 1.95 -1.1 2.4 -0.8 2.55 -0.7 2.55 -0.05 2.7 1.65 3.0 -0.1 2.95 -0.2 3.5 0.3 4.0 2.3 4.45 2.35 4.45 2.65 4.45 6.35 4.3 6.4 4.3 6.4 4.2 5.85 3.3 5.4 2.2 M7.8 -3.3 L7.95 -2.5 8.1 -2.7 8.05 -3.7 7.3 -3.2 7.2 -3.15 7.55 -2.25 7.7 -2.25 7.75 -2.3 7.7 -2.35 7.75 -3.3 7.8 -3.3 M8.3 -4.0 L8.45 -2.6 8.5 -2.2 8.5 -2.15 8.6 -1.2 8.6 -0.95 8.6 -0.55 8.55 -0.5 8.5 -0.45 Q8.25 -0.55 8.15 -0.75 L8.15 -0.8 8.1 -0.8 8.0 -0.9 7.9 -1.05 Q7.25 -2.1 6.9 -3.3 L6.9 -3.4 Q7.6 -3.5 8.05 -4.0 L8.15 -4.05 8.3 -4.0 M7.9 -2.0 L7.75 -1.9 8.2 -1.1 8.2 -1.5 8.3 -1.55 8.3 -2.2 8.2 -2.25 7.9 -2.0 M-5.05 -3.65 L-6.25 -4.4 -6.3 -3.5 -5.85 -3.2 -5.8 -3.95 -5.7 -3.9 -5.75 -3.15 -5.1 -2.8 -5.1 -3.1 -5.0 -3.45 -4.95 -3.1 -4.95 -2.7 -4.25 -2.4 -4.2 -2.95 -4.15 -3.25 -4.1 -2.9 -4.05 -2.35 -3.6 -2.2 -3.35 -2.15 -3.25 -2.95 -3.2 -2.85 -3.2 -2.1 -2.3 -1.85 -2.15 -2.75 -3.25 -3.0 -5.05 -3.65 M-6.85 -1.9 L-7.15 0.3 -7.15 1.15 -7.1 1.2 -6.8 1.7 -5.8 2.35 -4.9 2.85 -3.6 3.15 -2.35 3.4 -1.5 3.3 -1.4 3.1 -1.35 3.1 -1.9 2.7 -3.8 1.9 -3.95 1.8 -4.8 1.1 -3.55 1.65 -2.3 2.15 -1.2 2.6 -1.9 1.45 -1.95 1.25 -2.1 0.3 -2.05 -0.4 -1.9 -1.4 -3.8 -1.95 -5.25 -2.6 -6.45 -3.2 -6.6 -3.0 -6.85 -1.9" fill="#273370" fill-rule="evenodd" stroke="none"/>
    <path d="M2.0 -1.35 L1.65 -1.35 1.6 -2.05 1.6 -1.35 0.85 -1.35 0.7 -2.2 0.8 -2.25 2.0 -2.1 2.0 -1.35 M0.65 -2.15 L0.6 -1.35 -0.25 -1.45 -0.25 -1.6 0.65 -2.15 M-0.6 -1.5 L-1.2 -1.6 -1.35 -2.5 -1.35 -1.65 -2.1 -1.8 -2.05 -2.7 -0.65 -2.45 -0.6 -1.5 M0.75 -0.2 L0.05 -0.15 -0.6 -0.55 -0.75 -0.35 -0.6 0.3 -0.7 0.35 -0.85 0.65 -0.85 0.75 -0.9 0.85 -0.9 1.1 -0.8 1.1 -0.5 1.1 -0.2 1.0 -0.1 1.15 0.05 1.3 0.45 1.5 0.6 1.4 0.35 0.65 1.0 -0.1 0.95 -0.2 0.75 -0.2 M2.75 -1.55 L2.9 -1.45 2.75 -1.4 2.75 -1.55 M3.0 -1.45 L3.05 -1.5 3.0 -1.45 M0.3 4.0 L-0.2 3.5 -0.1 2.95 1.65 3.0 -0.05 2.7 -0.7 2.55 -0.8 2.55 -1.1 2.4 -1.45 1.95 -1.9 0.0 -1.85 -0.65 -1.75 -1.35 1.45 -1.0 2.75 -1.05 3.25 -1.1 Q4.15 -0.9 4.45 0.25 L4.85 1.25 5.4 2.2 4.85 3.45 5.85 3.3 6.4 4.2 6.35 4.25 6.35 4.3 2.65 4.45 3.15 3.8 3.05 3.6 2.7 3.65 2.6 3.7 Q2.5 3.3 2.0 3.0 L1.05 3.45 0.25 3.2 0.3 4.0 M3.1 -0.55 L2.9 -0.6 2.1 0.55 1.5 0.2 1.4 0.2 1.2 0.35 1.35 0.8 1.5 1.1 1.55 1.15 1.7 1.3 1.75 1.6 1.75 1.85 2.05 2.65 3.2 1.9 4.0 2.4 3.8 1.3 4.25 0.9 Q4.55 0.95 4.3 0.6 L4.1 0.55 3.55 0.6 3.25 -0.35 3.1 -0.55 M7.8 -3.3 L7.75 -3.3 7.7 -2.35 7.75 -2.3 7.7 -2.25 7.55 -2.25 7.2 -3.15 7.3 -3.2 8.05 -3.7 8.1 -2.7 7.95 -2.5 7.8 -3.3 M7.9 -2.0 L8.0 -1.65 8.2 -1.5 8.2 -1.1 7.75 -1.9 7.9 -2.0 M2.35 4.45 L2.3 4.45 2.3 4.4 2.35 4.45 M-5.1 -3.1 L-5.1 -2.8 -5.75 -3.15 -5.7 -3.9 -5.8 -3.95 -5.85 -3.2 -6.3 -3.5 -6.25 -4.4 -5.05 -3.65 -5.25 -3.45 -5.4 -3.1 -5.1 -3.1 M-3.25 -3.0 L-2.15 -2.75 -2.3 -1.85 -3.2 -2.1 -3.2 -2.85 -3.25 -2.95 -3.25 -3.0 M-3.6 -2.2 L-4.05 -2.35 -4.1 -2.9 -3.6 -2.2 M-4.2 -2.95 L-4.25 -2.4 -4.95 -2.7 -4.95 -3.1 -4.2 -2.95 M-6.85 -1.9 L-6.8 -1.85 -6.55 -2.0 -6.45 -2.0 -6.35 -0.75 Q-6.05 -0.75 -6.0 -1.05 L-5.8 -1.7 -5.7 -1.9 -4.85 -1.9 -5.25 -2.6 -3.8 -1.95 -1.9 -1.4 -2.05 -0.4 -2.1 0.3 -1.95 1.25 -2.4 0.95 -2.15 0.0 -2.55 0.0 -3.1 0.25 -3.85 -0.55 -3.95 -0.5 -3.85 0.65 Q-4.2 0.7 -4.45 0.9 L-4.5 1.0 -4.55 1.05 -3.55 1.45 -3.55 1.65 -4.8 1.1 -3.95 1.8 -5.15 2.1 -5.85 1.35 -5.95 1.4 -5.8 2.35 -6.8 1.7 -7.1 1.2 -7.05 1.25 -6.85 1.2 -6.4 0.65 -6.5 0.5 -6.55 0.45 -6.65 0.45 -7.05 0.25 -7.15 0.3 -6.85 -1.9 M-5.35 -1.15 L-5.45 -1.1 -5.5 -0.45 -5.7 -0.35 -5.8 -0.3 -5.9 -0.25 -5.95 -0.2 -6.0 -0.15 -6.0 -0.1 -6.05 0.0 -6.0 0.1 -5.9 0.15 -5.75 0.15 -5.35 0.2 -4.95 0.75 -4.9 0.75 -4.85 0.65 -4.85 0.0 -4.3 -0.35 -4.35 -0.45 -4.95 -0.65 -5.35 -1.15 M-1.9 1.45 L-1.2 2.6 -2.3 2.15 -2.35 1.85 -1.9 1.45 M-3.8 1.9 L-1.9 2.7 -1.35 3.1 -1.4 3.1 -1.5 3.3 -2.35 3.4 -3.6 3.15 -3.45 2.95 -3.8 2.75 -3.8 1.9" fill="#8cc4ec" fill-rule="evenodd" stroke="none"/>
    <path d="M0.7 -2.2 L0.65 -2.15 -0.25 -1.6 -0.35 -2.3 -0.4 -1.55 -0.55 -1.5 -0.6 -1.5 -0.65 -2.45 0.8 -2.25 0.7 -2.2 M5.85 3.3 L4.85 3.45 5.4 2.2 5.85 3.3 M3.1 -0.55 L3.25 -0.35 3.55 0.6 4.1 0.55 4.3 0.6 Q4.55 0.95 4.25 0.9 L3.8 1.3 4.0 2.4 3.2 1.9 2.05 2.65 1.75 1.85 1.75 1.6 1.7 1.3 1.55 1.15 1.5 1.1 1.35 0.8 1.2 0.35 1.4 0.2 1.5 0.2 2.1 0.55 2.9 -0.6 3.1 -0.55 M-5.25 -2.6 L-4.85 -1.9 -5.7 -1.9 -5.8 -1.7 -6.0 -1.05 Q-6.05 -0.75 -6.35 -0.75 L-6.45 -2.0 -6.55 -2.0 -6.8 -1.85 -6.85 -1.9 -6.6 -3.0 -6.45 -3.2 -5.25 -2.6 M-5.8 2.35 L-5.95 1.4 -5.85 1.35 -5.15 2.1 -3.95 1.8 -3.8 1.9 -3.8 2.75 -3.45 2.95 -3.6 3.15 -4.9 2.85 -5.8 2.35 M-3.55 1.65 L-3.55 1.45 -4.55 1.05 -4.5 1.0 -4.45 0.9 Q-4.2 0.7 -3.85 0.65 L-3.95 -0.5 -3.85 -0.55 -3.1 0.25 -2.55 0.0 -2.15 0.0 -2.4 0.95 -1.95 1.25 -1.9 1.45 -2.35 1.85 -2.3 2.15 -3.55 1.65" fill="#0033ff" fill-rule="evenodd" stroke="none"/>
    <path d="M2.0 -2.1 L2.5 -2.1 2.5 -1.35 2.05 -1.35 2.0 -1.35 2.0 -2.1 M0.75 -0.2 L0.95 -0.2 1.0 -0.1 0.35 0.65 0.6 1.4 0.45 1.5 0.05 1.3 -0.1 1.15 -0.2 1.0 -0.5 1.1 -0.8 1.1 -0.9 1.1 -0.9 0.85 -0.85 0.75 -0.85 0.65 -0.7 0.35 -0.6 0.3 -0.75 -0.35 -0.6 -0.55 0.05 -0.15 0.75 -0.2 M2.75 -1.55 L2.65 -2.05 2.85 -2.1 3.05 -1.5 3.0 -1.45 2.9 -1.45 2.75 -1.55 M0.3 4.0 L0.25 3.2 1.05 3.45 2.0 3.0 Q2.5 3.3 2.6 3.7 L2.7 3.65 3.05 3.6 3.15 3.8 2.65 4.45 2.35 4.45 2.3 4.4 2.3 4.45 0.3 4.0 M8.2 -1.5 L8.0 -1.65 7.9 -2.0 8.2 -2.25 8.3 -2.2 8.3 -1.55 8.2 -1.5 M-5.1 -3.1 L-5.4 -3.1 -5.25 -3.45 -5.05 -3.65 -3.25 -3.0 -3.25 -2.95 -3.35 -2.15 -3.6 -2.2 -4.1 -2.9 -4.15 -3.25 -4.2 -2.95 -4.95 -3.1 -5.0 -3.45 -5.1 -3.1 M-7.15 0.3 L-7.05 0.25 -6.65 0.45 -6.55 0.45 -6.5 0.5 -6.4 0.65 -6.85 1.2 -7.05 1.25 -7.1 1.2 -7.15 1.15 -7.15 0.3 M-5.35 -1.15 L-4.95 -0.65 -4.35 -0.45 -4.3 -0.35 -4.85 0.0 -4.85 0.65 -4.9 0.75 -4.95 0.75 -5.35 0.2 -5.75 0.15 -5.9 0.15 -6.0 0.1 -6.05 0.0 -6.0 -0.1 -6.0 -0.15 -5.95 -0.2 -5.9 -0.25 -5.8 -0.3 -5.7 -0.35 -5.5 -0.45 -5.45 -1.1 -5.35 -1.15" fill="#ffffff" fill-rule="evenodd" stroke="none"/>
  </g>
</svg>
