<?xml version="1.0" encoding="UTF-8" standalone="no"?>
<svg xmlns:ffdec="https://www.free-decompiler.com/flash" xmlns:xlink="http://www.w3.org/1999/xlink" ffdec:objectType="shape" height="28.2px" width="28.3px" xmlns="http://www.w3.org/2000/svg">
  <g transform="matrix(1.0, 0.0, 0.0, 1.0, -0.85, -0.9)">
    <path d="M19.25 24.8 L19.25 24.95 19.15 25.35 Q18.8 28.2 17.9 28.1 L11.9 28.15 11.15 26.35 11.05 25.7 10.95 25.25 10.85 24.95 11.45 24.85 11.8 24.8 18.05 24.65 18.65 24.7 19.25 24.8 M8.6 3.4 L10.4 3.2 13.75 3.0 15.7 3.0 17.9 3.1 19.1 3.1 24.05 3.6 16.95 4.15 15.8 4.25 13.85 4.35 11.85 4.1 9.7 4.0 7.5 3.75 7.35 3.75 8.95 3.45 8.6 3.4 M17.45 26.95 Q17.05 27.4 17.7 27.65 L17.9 27.45 18.05 27.05 17.85 26.8 Q17.6 26.75 17.45 26.95 M12.85 27.1 L12.7 26.7 12.4 26.5 Q12.2 26.5 12.1 26.7 11.95 26.85 11.95 27.1 L12.1 27.55 12.4 27.7 12.7 27.55 12.85 27.1" fill="#666666" fill-rule="evenodd" stroke="none"/>
    <path d="M7.8 5.95 L8.05 6.0 8.45 6.05 8.7 6.1 8.75 6.1 14.5 6.7 14.6 9.05 10.8 9.6 9.1 13.15 8.05 15.5 7.35 15.3 5.2 14.5 1.8 13.05 Q1.6 12.7 2.1 12.2 L2.1 12.15 Q1.9 11.7 1.9 12.05 1.8 9.85 1.95 7.75 L2.25 6.1 2.55 5.8 2.4 5.05 3.6 5.2 4.6 5.45 4.45 5.7 4.3 5.7 Q4.1 5.65 4.0 5.85 L3.9 6.25 4.0 6.6 4.3 6.75 4.65 6.6 4.75 6.25 4.65 5.85 4.55 5.75 4.9 5.5 5.9 5.65 6.05 8.9 6.2 5.7 7.2 5.85 7.75 5.95 7.8 6.0 7.8 5.95 M26.1 6.1 L26.6 6.0 Q26.8 6.5 27.0 6.25 L27.2 5.85 27.35 5.75 27.7 6.05 28.0 12.0 27.85 12.35 27.9 12.4 28.2 12.45 28.05 12.45 27.85 12.6 28.0 13.2 28.05 13.25 27.55 13.65 26.8 13.85 26.65 13.9 23.85 14.95 22.7 15.0 22.15 15.35 21.15 13.55 23.5 13.15 20.9 12.8 21.85 10.65 20.8 12.1 20.6 7.8 20.35 12.0 19.85 10.95 19.05 9.45 15.4 9.05 15.55 6.45 16.05 6.85 Q15.5 7.35 16.2 7.8 16.85 7.5 16.4 6.9 L21.55 6.85 Q21.55 7.25 21.7 7.45 L21.95 7.7 22.15 7.4 22.2 6.75 23.25 6.6 Q23.0 7.45 23.7 6.95 L23.8 6.55 24.0 6.65 24.25 9.1 Q23.4 8.65 23.85 9.7 24.0 9.95 24.25 9.6 L24.3 11.4 Q23.5 11.55 24.25 12.0 L24.35 12.05 24.55 14.15 24.8 14.3 Q25.15 14.25 25.05 13.5 L24.95 8.55 24.75 6.7 Q24.85 6.5 25.05 6.45 25.15 6.25 25.35 6.3 25.6 7.05 26.05 6.4 L26.1 6.1 M25.85 8.85 L25.65 8.7 Q25.55 8.7 25.45 8.85 L25.35 9.05 25.45 9.3 25.65 9.45 25.85 9.3 25.95 9.05 25.85 8.85 M26.0 11.85 L26.1 11.6 26.0 11.35 25.8 11.25 25.6 11.35 25.5 11.6 25.6 11.85 25.8 12.0 26.0 11.85 M22.05 15.4 L21.95 15.5 21.8 15.2 22.05 15.4 M21.65 16.2 L19.25 24.8 18.65 24.7 18.7 24.3 18.55 23.95 18.3 23.95 18.15 24.25 18.05 24.65 11.8 24.8 Q12.4 24.3 11.65 23.95 10.95 24.2 11.45 24.8 L11.45 24.85 10.85 24.95 10.7 24.55 8.4 15.75 11.15 10.05 11.35 10.35 13.2 10.7 15.1 10.7 14.55 11.15 Q14.55 11.95 15.4 11.8 L15.5 11.55 Q15.65 11.2 15.3 10.7 L18.7 10.85 19.7 12.9 17.7 13.15 19.15 13.4 19.15 13.75 19.2 13.85 19.6 13.5 20.0 13.55 18.8 15.65 20.35 14.4 20.45 15.75 20.2 15.75 20.05 15.95 20.05 16.2 20.2 16.7 20.5 16.9 20.6 18.9 20.65 16.85 20.85 16.75 Q21.1 16.25 20.8 15.9 L20.7 15.85 20.75 14.7 21.15 15.55 21.5 16.1 21.65 16.2 M11.2 10.05 L11.25 9.9 11.3 9.9 11.2 10.05 M27.4 13.25 L27.45 13.2 27.45 12.75 27.0 12.75 27.0 13.3 27.35 13.3 27.4 13.25 M25.7 13.3 L25.55 13.6 25.7 13.95 25.95 14.1 26.2 13.95 26.35 13.6 26.2 13.3 25.95 13.15 Q25.8 13.1 25.7 13.3 M24.15 13.6 Q23.7 14.45 24.3 14.05 24.55 13.9 24.15 13.6 M22.3 13.55 Q22.15 13.55 22.0 13.7 L21.9 14.05 22.0 14.35 22.3 14.5 22.55 14.35 22.7 14.05 22.55 13.7 22.3 13.55 M14.05 7.7 Q14.4 7.3 14.1 7.15 13.5 7.35 14.05 7.7 M11.85 7.55 L11.9 7.7 12.2 7.9 Q12.75 7.7 12.45 7.3 L12.2 7.2 11.95 7.3 11.85 7.55 M10.2 6.9 Q9.8 7.0 10.05 7.5 L10.25 7.6 Q10.85 7.2 10.2 6.9 M11.85 11.9 L12.2 11.75 12.3 11.35 12.2 11.0 11.85 10.85 Q11.65 10.8 11.55 11.0 L11.45 11.35 11.55 11.75 Q11.65 11.9 11.85 11.9 M17.85 7.2 L17.65 7.3 17.55 7.55 17.65 7.8 17.85 7.9 18.05 7.8 18.15 7.55 18.05 7.3 17.85 7.2 M20.1 6.95 L19.5 6.95 19.8 7.6 20.1 6.95 M18.65 11.6 Q18.2 10.75 17.9 11.65 L18.0 11.85 18.65 11.6 M4.35 8.7 Q3.7 9.35 4.45 9.35 4.7 9.35 4.55 8.95 L4.35 8.7 M3.15 6.35 Q3.75 6.0 3.1 5.6 2.65 5.95 2.8 6.25 L3.15 6.35 M4.25 11.25 L4.05 11.35 Q3.95 11.5 4.0 11.6 L4.05 11.85 4.25 12.0 4.45 11.85 4.55 11.6 4.45 11.35 4.25 11.25 M4.85 11.25 L4.85 13.95 4.95 13.85 5.6 6.35 5.45 6.4 Q5.1 7.45 5.0 8.6 4.85 9.9 4.85 11.25 M7.9 6.75 L7.8 7.15 7.9 7.55 8.2 7.7 8.55 7.55 8.65 7.15 8.55 6.75 8.2 6.6 Q8.0 6.55 7.9 6.75 M6.2 7.05 Q6.7 7.5 6.55 6.7 6.45 6.2 6.25 6.7 6.15 6.8 6.2 7.05 M6.05 8.9 L5.85 9.05 5.75 9.35 5.85 9.7 6.1 9.85 6.4 9.7 6.5 9.35 6.4 9.05 Q6.25 8.85 6.1 8.9 L6.05 8.9 M6.2 11.75 L6.1 11.5 5.9 11.35 5.65 11.5 5.55 11.75 5.65 12.0 5.9 12.1 6.1 12.0 6.2 11.75 M8.05 14.0 L7.8 13.55 Q7.05 13.9 7.7 14.4 L7.8 14.5 8.05 14.0 M5.65 13.75 L5.55 14.0 5.65 14.2 5.9 14.35 6.1 14.2 6.2 14.0 6.1 13.75 5.9 13.6 5.65 13.75 M9.2 16.5 L9.35 16.75 Q9.8 17.0 9.9 16.2 L9.8 15.8 9.55 15.55 Q8.8 15.7 9.2 16.5 M4.4 13.3 Q4.25 13.1 4.1 13.15 L3.85 13.3 3.75 13.6 3.85 13.95 4.1 14.1 4.4 13.95 4.5 13.6 4.4 13.3 M2.65 13.2 L2.8 13.3 3.0 13.2 3.05 12.95 3.0 12.7 2.8 12.6 2.65 12.7 2.55 12.95 2.65 13.2 M9.95 19.3 L10.5 19.3 10.5 18.6 9.95 18.6 9.95 19.3 M15.55 18.05 L15.95 17.65 Q16.65 16.8 16.25 16.05 L16.15 15.85 Q16.0 15.05 15.2 14.95 14.7 14.9 14.35 15.2 L13.95 15.5 Q13.75 15.7 13.7 16.05 13.55 16.65 13.8 17.2 L13.8 17.25 13.9 17.35 14.05 17.55 14.2 17.7 14.5 18.05 14.65 22.4 15.4 22.15 15.55 18.05 M11.1 13.5 L10.95 13.1 Q10.8 12.9 10.7 12.95 L10.45 13.1 10.3 13.5 10.45 13.9 10.7 14.05 10.95 13.9 11.1 13.5 M10.85 21.1 Q10.65 21.1 10.55 21.25 10.4 21.4 10.4 21.65 L10.55 22.05 Q10.65 22.2 10.85 22.2 L11.15 22.05 11.3 21.65 11.15 21.25 10.85 21.1 M19.85 19.3 L20.0 19.25 Q20.35 19.15 19.9 18.95 19.15 18.95 19.85 19.3 M19.25 21.1 Q19.05 21.1 18.95 21.25 L18.85 21.65 18.95 22.05 Q19.05 22.2 19.25 22.2 L19.6 22.05 19.7 21.65 19.6 21.25 Q19.45 21.1 19.25 21.1" fill="#999999" fill-rule="evenodd" stroke="none"/>
    <path d="M7.4 5.25 L9.2 5.55 11.9 5.8 14.35 5.8 18.15 5.8 21.7 5.5 25.4 4.9 26.75 4.55 27.0 4.1 26.65 3.4 Q24.85 2.5 22.95 2.3 L21.6 2.1 20.1 2.05 17.65 1.75 13.4 1.8 12.35 1.85 9.2 2.1 6.85 2.4 6.65 2.45 6.8 2.15 7.85 1.95 10.1 1.55 12.25 1.45 14.3 1.3 16.7 1.4 19.0 1.65 21.3 1.85 22.15 1.95 Q24.8 2.05 27.05 3.55 27.8 3.9 28.55 4.4 L29.15 13.55 28.5 13.85 27.2 14.65 25.75 15.3 22.4 16.05 22.05 17.65 21.05 21.35 20.4 23.95 Q19.75 26.75 18.55 29.1 L11.55 29.1 Q10.85 28.0 10.4 26.5 L9.65 24.0 Q8.4 20.15 7.7 16.05 L4.25 15.3 2.85 14.6 1.6 13.85 1.45 13.8 1.2 13.65 0.85 13.55 1.15 7.9 1.2 6.65 Q1.25 5.7 1.45 4.85 L1.5 4.65 1.95 3.6 Q3.65 2.8 5.45 2.45 L5.55 2.75 Q4.65 2.8 3.9 3.35 L3.15 3.45 3.65 3.55 3.05 4.1 3.25 4.25 4.95 4.8 4.6 5.45 3.6 5.2 2.4 5.05 2.55 5.8 2.25 6.1 1.95 7.75 Q1.8 9.85 1.9 12.05 1.9 11.7 2.1 12.15 L2.1 12.2 Q1.6 12.7 1.8 13.05 L5.2 14.5 7.35 15.3 8.05 15.5 9.1 13.15 10.8 9.6 14.6 9.05 14.5 6.7 8.75 6.1 8.7 6.1 8.45 6.05 8.05 6.0 7.8 5.95 7.4 5.25 M6.9 3.2 L7.45 3.15 9.65 2.8 13.5 2.9 17.15 2.95 19.15 2.95 19.45 2.95 25.1 3.6 22.95 4.25 18.0 4.45 16.4 4.45 15.65 4.45 11.65 4.6 Q9.1 4.8 6.7 4.05 L6.6 3.85 7.35 3.75 7.5 3.75 9.7 4.0 11.85 4.1 13.85 4.35 15.8 4.25 16.95 4.15 24.05 3.6 19.1 3.1 17.9 3.1 15.7 3.0 13.75 3.0 10.4 3.2 8.6 3.4 6.9 3.2 M26.6 6.0 L26.65 5.75 27.2 5.85 27.0 6.25 Q26.8 6.5 26.6 6.0 M27.35 5.75 Q27.4 5.3 27.65 5.45 28.35 5.6 27.7 6.05 L27.35 5.75 M28.0 12.0 Q28.6 11.85 28.35 12.35 L28.3 12.4 28.2 12.45 27.9 12.4 27.85 12.35 28.0 12.0 M28.05 13.25 Q28.6 13.2 28.65 12.65 L28.65 12.6 Q28.65 8.65 28.1 5.2 L27.85 4.65 27.6 4.4 24.4 5.45 23.25 5.7 15.55 6.45 15.4 9.05 19.05 9.45 19.85 10.95 20.35 12.0 20.35 12.1 19.3 10.65 19.5 11.1 18.9 10.05 18.6 9.95 15.2 9.8 11.5 9.85 11.3 9.9 11.25 9.9 11.2 10.05 11.15 10.05 8.4 15.75 10.7 24.55 10.85 24.95 10.95 25.25 11.05 25.7 11.15 26.35 11.9 28.15 17.9 28.1 Q18.8 28.2 19.15 25.35 L19.25 24.95 19.25 24.8 21.65 16.2 Q22.15 16.35 22.0 15.85 L21.95 15.5 22.05 15.4 22.35 15.65 22.15 15.35 22.7 15.0 23.85 14.95 26.65 13.9 26.8 13.85 27.55 13.65 28.05 13.25 M16.05 6.85 L16.4 6.9 Q16.85 7.5 16.2 7.8 15.5 7.35 16.05 6.85 M21.55 6.85 L22.2 6.75 22.15 7.4 21.95 7.7 21.7 7.45 Q21.55 7.25 21.55 6.85 M23.25 6.6 L23.8 6.55 23.7 6.95 Q23.0 7.45 23.25 6.6 M24.25 9.1 L24.25 9.6 Q24.0 9.95 23.85 9.7 23.4 8.65 24.25 9.1 M24.3 11.4 L24.35 12.05 24.25 12.0 Q23.5 11.55 24.3 11.4 M25.05 13.5 L25.05 13.85 24.75 6.7 24.95 8.55 25.05 13.5 M25.35 6.3 L25.55 6.05 26.1 6.1 26.05 6.4 Q25.6 7.05 25.35 6.3 M26.0 11.85 L25.8 12.0 25.6 11.85 25.5 11.6 25.6 11.35 25.8 11.25 26.0 11.35 26.1 11.6 26.0 11.85 M25.85 8.85 L25.95 9.05 25.85 9.3 25.65 9.45 25.45 9.3 25.35 9.05 25.45 8.85 Q25.55 8.7 25.65 8.7 L25.85 8.85 M19.15 13.4 L19.6 13.5 19.2 13.85 19.15 13.75 19.15 13.4 M20.45 15.75 L20.5 16.9 20.2 16.7 20.05 16.2 20.05 15.95 20.2 15.75 20.45 15.75 M20.65 16.85 L20.7 15.85 20.8 15.9 Q21.1 16.25 20.85 16.75 L20.65 16.85 M22.3 13.55 L22.55 13.7 22.7 14.05 22.55 14.35 22.3 14.5 22.0 14.35 21.9 14.05 22.0 13.7 Q22.15 13.55 22.3 13.55 M24.15 13.6 Q24.55 13.9 24.3 14.05 23.7 14.45 24.15 13.6 M25.7 13.3 Q25.8 13.1 25.95 13.15 L26.2 13.3 26.35 13.6 26.2 13.95 25.95 14.1 25.7 13.95 25.55 13.6 25.7 13.3 M27.4 13.25 L27.35 13.3 27.0 13.3 27.0 12.75 27.45 12.75 27.45 13.2 27.4 13.25 M14.05 7.7 Q13.5 7.35 14.1 7.15 14.4 7.3 14.05 7.7 M10.2 6.9 Q10.85 7.2 10.25 7.6 L10.05 7.5 Q9.8 7.0 10.2 6.9 M11.85 7.55 L11.95 7.3 12.2 7.2 12.45 7.3 Q12.75 7.7 12.2 7.9 L11.9 7.7 11.85 7.55 M15.1 10.7 L15.3 10.7 Q15.65 11.2 15.5 11.55 L15.4 11.8 Q14.55 11.95 14.55 11.15 L15.1 10.7 M11.85 11.9 Q11.65 11.9 11.55 11.75 L11.45 11.35 11.55 11.0 Q11.65 10.8 11.85 10.85 L12.2 11.0 12.3 11.35 12.2 11.75 11.85 11.9 M18.65 11.6 L18.0 11.85 17.9 11.65 Q18.2 10.75 18.65 11.6 M20.1 6.95 L19.8 7.6 19.5 6.95 20.1 6.95 M17.85 7.2 L18.05 7.3 18.15 7.55 18.05 7.8 17.85 7.9 17.65 7.8 17.55 7.55 17.65 7.3 17.85 7.2 M5.85 2.35 L5.85 2.4 5.8 2.35 5.85 2.35 M6.4 2.25 L6.25 2.4 6.25 2.25 6.4 2.25 M5.85 5.0 L5.9 5.65 4.9 5.5 5.55 4.95 5.8 5.0 5.85 5.0 M6.05 8.9 L6.05 9.2 6.05 8.9 6.1 8.9 Q6.25 8.85 6.4 9.05 L6.5 9.35 6.4 9.7 6.1 9.85 5.85 9.7 5.75 9.35 5.85 9.05 6.05 8.9 M6.2 5.7 L6.2 5.05 6.8 5.15 7.75 5.95 7.2 5.85 6.2 5.7 M4.45 5.7 L4.25 6.0 4.55 5.75 4.65 5.85 4.75 6.25 4.65 6.6 4.3 6.75 4.0 6.6 3.9 6.25 4.0 5.85 Q4.1 5.65 4.3 5.7 L4.45 5.7 M6.2 11.75 L6.1 12.0 5.9 12.1 5.65 12.0 5.55 11.75 5.65 11.5 5.9 11.35 6.1 11.5 6.2 11.75 M6.2 7.05 Q6.15 6.8 6.25 6.7 6.45 6.2 6.55 6.7 6.7 7.5 6.2 7.05 M7.9 6.75 Q8.0 6.55 8.2 6.6 L8.55 6.75 8.65 7.15 8.55 7.55 8.2 7.7 7.9 7.55 7.8 7.15 7.9 6.75 M4.85 11.25 Q4.85 9.9 5.0 8.6 5.1 7.45 5.45 6.4 L5.6 6.35 4.95 13.85 4.85 13.95 4.85 11.25 M4.25 11.25 L4.45 11.35 4.55 11.6 4.45 11.85 4.25 12.0 4.05 11.85 4.0 11.6 Q3.95 11.5 4.05 11.35 L4.25 11.25 M3.15 6.35 L2.8 6.25 Q2.65 5.95 3.1 5.6 3.75 6.0 3.15 6.35 M4.35 8.7 L4.55 8.95 Q4.7 9.35 4.45 9.35 3.7 9.35 4.35 8.7 M9.95 19.3 L9.95 18.6 10.5 18.6 10.5 19.3 9.95 19.3 M2.65 13.2 L2.55 12.95 2.65 12.7 2.8 12.6 3.0 12.7 3.05 12.95 3.0 13.2 2.8 13.3 2.65 13.2 M4.4 13.3 L4.5 13.6 4.4 13.95 4.1 14.1 3.85 13.95 3.75 13.6 3.85 13.3 4.1 13.15 Q4.25 13.1 4.4 13.3 M9.2 16.5 Q8.8 15.7 9.55 15.55 L9.8 15.8 9.9 16.2 Q9.8 17.0 9.35 16.75 L9.2 16.5 M5.65 13.75 L5.9 13.6 6.1 13.75 6.2 14.0 6.1 14.2 5.9 14.35 5.65 14.2 5.55 14.0 5.65 13.75 M8.05 14.0 L7.8 14.5 7.7 14.4 Q7.05 13.9 7.8 13.55 L8.05 14.0 M10.85 21.1 L11.15 21.25 11.3 21.65 11.15 22.05 10.85 22.2 Q10.65 22.2 10.55 22.05 L10.4 21.65 Q10.4 21.4 10.55 21.25 10.65 21.1 10.85 21.1 M11.1 13.5 L10.95 13.9 10.7 14.05 10.45 13.9 10.3 13.5 10.45 13.1 10.7 12.95 Q10.8 12.9 10.95 13.1 L11.1 13.5 M19.25 21.1 Q19.45 21.1 19.6 21.25 L19.7 21.65 19.6 22.05 19.25 22.2 Q19.05 22.2 18.95 22.05 L18.85 21.65 18.95 21.25 Q19.05 21.1 19.25 21.1 M19.85 19.3 Q19.15 18.95 19.9 18.95 20.35 19.15 20.0 19.25 L19.85 19.3 M18.05 24.65 L18.15 24.25 18.3 23.95 18.55 23.95 18.7 24.3 18.65 24.7 18.05 24.65 M11.8 24.8 L11.45 24.85 11.45 24.8 Q10.95 24.2 11.65 23.95 12.4 24.3 11.8 24.8 M17.45 26.95 Q17.6 26.75 17.85 26.8 L18.05 27.05 17.9 27.45 17.7 27.65 Q17.05 27.4 17.45 26.95 M12.85 27.1 L12.7 27.55 12.4 27.7 12.1 27.55 11.95 27.1 Q11.95 26.85 12.1 26.7 12.2 26.5 12.4 26.5 L12.7 26.7 12.85 27.1" fill="#404040" fill-rule="evenodd" stroke="none"/>
    <path d="M15.55 18.05 L15.4 22.15 14.65 22.4 14.5 18.05 14.2 17.7 14.05 17.55 13.9 17.35 13.8 17.25 13.8 17.2 Q13.55 16.65 13.7 16.05 13.75 15.7 13.95 15.5 L14.35 15.2 Q14.7 14.9 15.2 14.95 16.0 15.05 16.15 15.85 L16.25 16.05 Q16.65 16.8 15.95 17.65 L15.55 18.05" fill="#333333" fill-rule="evenodd" stroke="none"/>
    <path d="M6.65 2.45 L6.85 2.4 9.2 2.1 12.35 1.85 13.4 1.8 17.65 1.75 20.1 2.05 21.6 2.1 22.95 2.3 Q24.85 2.5 26.65 3.4 L27.0 4.1 26.75 4.55 25.4 4.9 21.7 5.5 18.15 5.8 14.35 5.8 11.9 5.8 9.2 5.55 7.4 5.25 6.7 4.05 Q9.1 4.8 11.65 4.6 L15.65 4.45 16.4 4.45 18.0 4.45 22.95 4.25 25.1 3.6 19.45 2.95 19.15 2.95 17.15 2.95 13.5 2.9 9.65 2.8 7.45 3.15 6.9 3.2 6.35 3.15 6.65 2.45 M4.95 4.8 L3.25 4.25 3.05 4.1 3.65 3.55 5.5 3.85 4.95 4.8 M3.9 3.35 Q4.65 2.8 5.55 2.75 L5.75 3.15 3.9 3.35 M26.6 6.0 L26.1 6.1 25.55 6.05 25.35 6.3 Q25.15 6.25 25.05 6.45 24.85 6.5 24.75 6.7 L25.05 13.85 25.05 13.5 Q25.15 14.25 24.8 14.3 L24.55 14.15 24.35 12.05 24.3 11.4 24.25 9.6 24.25 9.1 24.0 6.65 23.8 6.55 23.25 6.6 22.2 6.75 21.55 6.85 16.4 6.9 16.05 6.85 15.55 6.45 23.25 5.7 24.4 5.45 27.6 4.4 27.85 4.65 28.1 5.2 Q28.65 8.65 28.65 12.6 L28.65 12.65 Q28.6 13.2 28.05 13.25 L28.0 13.2 27.85 12.6 28.05 12.45 28.2 12.45 28.3 12.4 28.35 12.35 Q28.6 11.85 28.0 12.0 L27.7 6.05 Q28.35 5.6 27.65 5.45 27.4 5.3 27.35 5.75 L27.2 5.85 26.65 5.75 26.6 6.0 M21.95 15.5 L22.0 15.85 Q22.15 16.35 21.65 16.2 L21.5 16.1 21.15 15.55 20.75 14.7 20.75 14.35 21.8 15.2 21.95 15.5 M11.15 10.05 L11.2 10.05 11.3 9.9 11.5 9.85 15.2 9.8 18.6 9.95 18.9 10.05 19.5 11.1 20.25 12.8 19.7 12.9 18.7 10.85 15.3 10.7 15.1 10.7 13.2 10.7 11.35 10.35 11.15 10.05 M5.55 4.95 L5.85 4.7 5.85 5.0 5.8 5.0 5.55 4.95 M6.2 5.05 L6.2 4.65 6.8 5.15 6.2 5.05" fill="#cccccc" fill-rule="evenodd" stroke="none"/>
    <path d="M6.65 2.45 L6.35 3.15 6.9 3.2 8.6 3.4 8.95 3.45 7.35 3.75 6.6 3.85 6.7 4.05 7.4 5.25 7.8 5.95 7.8 6.0 7.75 5.95 6.8 5.15 6.2 4.65 6.2 5.05 6.2 5.7 6.05 8.9 5.9 5.65 5.85 5.0 5.85 4.7 5.55 4.95 4.9 5.5 4.55 5.75 4.25 6.0 4.45 5.7 4.6 5.45 4.95 4.8 5.5 3.85 3.65 3.55 3.15 3.45 3.9 3.35 5.75 3.15 5.55 2.75 5.45 2.45 4.75 0.95 5.8 2.35 5.85 2.4 5.85 2.35 5.9 0.9 6.2 0.9 6.25 2.25 6.25 2.4 6.4 2.25 7.35 0.95 6.8 2.15 6.65 2.45 M19.5 11.1 L19.3 10.65 20.35 12.1 20.35 12.0 20.6 7.8 20.8 12.1 21.85 10.65 20.9 12.8 23.5 13.15 21.15 13.55 22.15 15.35 22.35 15.65 22.05 15.4 21.8 15.2 20.75 14.35 20.75 14.7 20.7 15.85 20.65 16.85 20.6 18.9 20.5 16.9 20.45 15.75 20.35 14.4 18.8 15.65 20.0 13.55 19.6 13.5 19.15 13.4 17.7 13.15 19.7 12.9 20.25 12.8 19.5 11.1 M6.05 8.9 L6.05 9.2 6.05 8.9" fill="#ffffff" fill-rule="evenodd" stroke="none"/>
  </g>
</svg>
