<?xml version="1.0" encoding="UTF-8" standalone="no"?>
<svg xmlns:ffdec="https://www.free-decompiler.com/flash" xmlns:xlink="http://www.w3.org/1999/xlink" ffdec:objectType="shape" height="26.2px" width="27.65px" xmlns="http://www.w3.org/2000/svg">
  <g transform="matrix(1.0, 0.0, 0.0, 1.0, -1.3, -1.95)">
    <path d="M23.85 4.95 L23.25 3.85 23.8 3.3 Q25.35 3.95 25.65 5.45 L26.65 4.5 26.8 3.65 26.0 3.4 25.9 2.55 26.2 2.1 26.6 1.95 27.0 2.1 27.5 2.6 26.75 2.55 Q26.1 3.45 27.2 3.45 L27.5 3.35 27.5 4.7 27.25 5.3 Q26.6 4.9 26.35 5.6 26.15 6.25 26.95 6.4 L26.4 7.15 26.7 7.5 27.15 7.6 28.2 7.1 28.95 7.7 28.9 8.05 Q28.6 9.2 27.75 8.8 L28.45 8.25 28.6 8.05 28.0 7.5 27.15 7.6 Q25.45 8.5 24.3 9.9 L22.95 11.2 21.8 12.25 21.8 12.3 21.6 12.55 21.55 12.95 21.65 13.5 24.3 12.4 24.7 12.65 Q26.0 14.05 25.15 15.65 L25.4 14.5 24.8 14.0 20.55 15.35 20.2 15.5 19.9 16.25 20.0 16.5 22.2 16.45 22.0 18.0 23.55 18.85 23.7 19.7 23.3 20.35 Q22.65 19.3 21.1 19.35 L20.5 18.95 20.4 19.7 19.45 19.85 17.65 18.25 17.5 18.05 17.4 17.75 17.2 18.05 17.15 18.15 17.2 18.7 17.25 18.9 18.05 19.8 16.85 19.75 16.25 19.2 Q16.7 18.2 16.05 17.4 L16.65 17.5 17.15 17.15 17.35 16.85 17.7 17.0 18.0 17.15 18.05 17.1 18.2 16.4 20.05 17.3 Q20.4 18.3 21.15 18.8 L21.15 18.6 20.8 17.55 21.8 17.45 20.65 17.15 20.6 17.05 20.4 17.0 20.4 16.85 18.45 16.0 19.2 15.4 19.2 14.15 Q20.15 14.0 20.9 13.45 L20.85 13.3 20.75 13.35 19.2 14.05 18.85 12.95 18.9 12.7 18.95 12.5 18.95 12.35 19.25 12.15 18.45 12.4 17.1 12.6 17.05 12.5 16.8 12.0 16.6 11.95 16.75 13.1 16.0 14.25 16.05 14.25 16.95 13.15 17.05 13.0 17.1 12.75 17.7 12.8 18.25 12.65 18.6 15.35 18.55 15.4 17.4 16.45 17.1 16.6 16.25 14.6 16.2 14.65 16.4 15.75 16.7 16.65 16.7 16.9 15.8 17.0 15.65 16.85 14.7 16.5 14.55 16.35 15.6 16.15 Q16.0 15.9 15.95 15.45 L16.0 14.95 15.9 14.6 15.0 15.45 Q13.95 15.1 14.15 13.5 L15.0 12.4 Q15.2 11.65 14.6 11.3 L13.35 10.75 Q12.15 11.1 12.05 12.25 L11.6 12.05 11.5 12.1 Q11.35 12.55 12.05 12.7 12.7 14.4 13.55 15.7 L14.25 16.35 13.65 17.2 13.25 17.25 14.1 17.35 14.15 17.3 14.65 16.85 15.65 17.3 Q16.4 18.75 15.35 20.05 14.95 20.55 14.8 21.15 L14.7 21.8 Q13.95 22.3 14.1 23.05 L14.15 23.1 Q14.8 23.05 14.85 22.2 L14.9 21.9 15.3 20.4 16.05 19.55 Q16.65 20.2 17.7 20.2 L18.3 21.0 Q18.3 21.65 18.7 22.05 L18.75 22.05 18.8 21.1 Q18.2 20.55 18.45 20.15 L20.1 21.75 20.15 21.95 Q20.0 22.5 19.45 22.7 L20.75 24.55 Q21.6 25.6 21.25 26.8 L21.15 26.6 20.95 26.25 Q20.3 25.4 19.3 25.85 L18.7 26.7 Q17.4 24.1 16.65 21.45 L16.75 21.1 16.5 20.65 16.1 20.45 15.45 21.0 Q15.15 21.9 15.5 22.75 L15.85 23.6 15.65 23.65 12.35 23.25 Q13.3 22.55 13.85 21.4 L14.5 19.8 Q14.95 18.75 14.25 18.0 14.05 18.1 14.15 18.3 L14.15 18.45 14.1 18.85 12.35 20.9 Q11.7 20.05 10.6 20.15 L10.05 21.1 9.5 21.05 Q8.3 21.5 7.8 22.65 L7.35 21.45 7.35 20.8 8.75 19.7 8.3 18.2 10.1 18.25 10.4 17.55 10.5 16.8 10.25 16.55 9.85 16.25 9.4 16.45 9.15 16.9 4.35 16.7 4.3 15.75 4.4 15.3 4.95 14.65 8.2 14.9 8.45 13.4 8.45 13.25 Q8.45 12.55 7.9 12.05 7.35 11.55 6.6 11.5 L8.05 11.55 9.0 12.35 10.2 10.75 9.0 8.95 10.75 11.4 11.95 11.3 Q12.35 10.8 12.0 10.45 10.1 8.45 8.75 6.55 8.15 5.7 7.45 6.05 L7.95 5.2 8.7 4.9 9.8 5.8 10.5 7.0 12.0 9.45 Q14.2 8.2 16.7 9.15 L17.05 8.45 Q17.75 6.95 18.6 5.55 L19.3 4.75 19.95 4.9 Q21.05 5.3 21.15 6.4 L20.2 8.0 20.3 7.25 20.15 7.0 18.9 8.35 Q17.85 9.7 17.45 11.2 L17.5 11.55 17.8 11.5 19.0 10.4 20.7 12.0 Q21.6 10.75 23.05 10.4 L23.9 9.8 24.55 8.85 25.1 7.55 25.0 7.2 Q25.75 7.15 25.55 6.35 L25.1 5.2 24.6 4.4 24.55 4.35 Q24.15 3.95 23.85 4.45 L23.8 4.65 23.85 4.95 M27.25 8.85 L26.5 8.95 25.55 9.7 26.5 8.65 26.65 8.6 27.25 8.85 M20.8 27.6 L20.5 27.8 18.55 28.05 20.5 27.75 20.8 27.6 M3.95 10.55 L3.7 10.1 3.0 9.9 2.6 9.55 Q1.65 10.4 1.4 11.75 L1.3 11.4 Q1.7 9.85 2.65 8.4 L3.4 8.9 3.45 9.0 3.6 9.8 3.7 9.85 3.95 10.3 3.95 10.55 M2.25 7.85 L2.05 7.2 2.25 6.4 Q1.6 4.9 2.95 4.05 L2.95 3.8 3.05 3.6 3.2 3.35 3.45 3.2 4.3 3.65 4.5 4.4 5.3 4.8 5.4 5.4 4.7 6.3 4.6 7.95 Q6.15 8.65 6.0 10.5 5.95 10.95 6.05 11.4 L4.75 10.85 4.7 10.2 3.8 9.6 3.65 8.75 3.85 8.7 4.55 9.3 4.85 9.5 5.1 9.4 5.2 8.75 4.45 8.3 Q3.75 7.5 3.95 6.2 L4.15 5.85 4.15 5.6 4.0 5.05 3.95 4.8 3.5 4.5 Q3.4 4.5 3.35 4.6 L3.25 5.25 3.4 5.5 3.65 5.35 3.65 5.6 3.55 6.05 3.3 7.1 3.3 7.0 3.3 6.8 3.05 6.4 2.3 6.5 2.1 6.9 2.25 7.85 M24.15 7.35 Q24.3 7.2 24.5 7.2 24.7 7.2 24.85 7.35 L25.0 7.7 24.85 8.05 24.5 8.2 24.15 8.05 24.0 7.7 Q24.0 7.5 24.15 7.35 M27.15 12.65 L26.65 12.45 Q25.8 11.9 26.1 11.05 L26.35 10.7 27.0 10.25 28.05 10.75 28.25 11.2 28.15 11.65 Q28.2 11.2 27.7 11.1 L27.3 10.9 26.8 11.1 26.5 11.5 Q26.4 12.2 26.8 12.5 L27.15 12.65 M14.3 9.75 Q14.25 10.25 14.65 10.5 L15.4 11.1 16.0 11.8 16.55 11.8 Q16.4 10.9 15.7 10.3 15.05 9.8 14.5 9.65 L14.3 9.75 M19.85 12.05 L19.65 12.0 19.4 12.1 19.85 12.05 M6.1 3.85 L6.1 2.95 6.35 2.65 6.85 2.2 7.2 2.15 Q7.8 2.15 8.15 2.8 L8.2 3.35 7.9 3.95 7.75 3.3 7.35 2.9 6.75 2.85 6.3 3.25 6.1 3.85 M8.8 14.75 Q9.7 14.85 10.4 15.45 L10.65 15.6 Q10.35 14.65 9.65 14.25 L9.65 14.1 Q11.25 14.25 12.1 15.85 L12.25 15.95 Q12.45 15.45 11.85 15.15 12.35 14.65 12.0 14.15 L11.5 14.8 10.15 13.75 Q10.3 12.85 9.85 12.2 L9.5 12.9 9.65 13.75 8.8 14.75 M3.3 13.3 L3.75 13.65 4.0 13.9 3.85 14.2 3.55 14.6 2.5 14.7 2.3 13.95 2.5 13.55 3.3 13.3 M8.8 19.1 L11.1 18.85 Q10.9 19.35 11.15 19.4 L12.4 17.9 Q12.35 17.4 12.9 17.3 L12.4 17.35 12.15 16.95 12.1 17.8 11.55 18.35 10.1 18.3 8.8 19.1 M10.8 16.5 L10.9 16.5 11.75 16.4 10.65 16.35 10.8 16.5" fill="#66ff00" fill-rule="evenodd" stroke="none"/>
    <path d="M27.5 2.6 L27.6 2.95 27.5 3.35 27.2 3.45 Q26.1 3.45 26.75 2.55 L27.5 2.6 M27.25 5.3 L27.35 5.55 Q27.4 6.1 26.95 6.4 26.15 6.25 26.35 5.6 26.6 4.9 27.25 5.3 M27.75 8.8 L27.25 8.85 26.65 8.6 26.5 8.65 25.55 9.7 24.25 10.85 23.15 11.75 Q22.25 12.45 21.8 12.3 L21.8 12.25 22.95 11.2 24.3 9.9 Q25.45 8.5 27.15 7.6 L28.0 7.5 28.6 8.05 28.45 8.25 27.75 8.8 M25.15 15.65 L24.85 15.85 Q23.35 15.9 22.2 16.45 L20.0 16.5 19.9 16.25 20.2 15.5 20.55 15.35 24.8 14.0 25.4 14.5 25.15 15.65 M23.3 20.35 L23.15 20.65 Q22.45 21.3 21.65 20.8 L21.2 21.55 20.1 21.75 18.45 20.15 18.05 19.8 17.25 18.9 17.2 18.7 17.15 18.15 17.2 18.05 17.4 17.75 17.5 18.05 17.65 18.25 19.45 19.85 20.4 19.7 20.5 18.95 21.1 19.35 Q22.65 19.3 23.3 20.35 M21.25 26.8 L21.05 27.35 20.8 27.6 20.5 27.75 18.55 28.05 17.75 27.8 15.85 23.6 15.5 22.75 Q15.15 21.9 15.45 21.0 L16.1 20.45 16.5 20.65 16.75 21.1 16.65 21.45 Q17.4 24.1 18.7 26.7 L19.3 25.85 Q20.3 25.4 20.95 26.25 L21.15 26.6 21.25 26.8 M12.35 23.25 L11.6 23.65 10.75 23.3 Q10.2 23.05 10.0 22.5 L9.05 23.65 8.05 23.45 7.8 22.65 Q8.3 21.5 9.5 21.05 L10.05 21.1 10.6 20.15 Q11.7 20.05 12.35 20.9 L14.1 18.85 14.15 18.45 14.15 18.3 Q14.05 18.1 14.25 18.0 14.95 18.75 14.5 19.8 L13.85 21.4 Q13.3 22.55 12.35 23.25 M8.3 18.2 L7.15 18.05 4.65 17.45 Q4.0 17.35 4.35 16.7 L9.15 16.9 9.4 16.45 9.85 16.25 10.25 16.55 10.5 16.8 10.4 17.55 10.1 18.25 8.3 18.2 M8.45 13.4 L8.3 13.4 6.65 12.3 5.05 12.2 Q4.6 12.2 4.3 11.75 3.95 11.25 3.95 10.55 L3.95 10.3 3.7 9.85 3.6 9.8 3.45 9.0 3.4 8.9 2.65 8.4 2.25 7.85 2.1 6.9 2.3 6.5 3.05 6.4 3.3 6.8 3.3 7.0 3.3 7.1 3.55 6.05 3.65 5.6 3.65 5.35 3.4 5.5 3.25 5.25 3.35 4.6 Q3.4 4.5 3.5 4.5 L3.95 4.8 4.0 5.05 4.15 5.6 4.15 5.85 3.95 6.2 Q3.75 7.5 4.45 8.3 L5.2 8.75 5.1 9.4 4.85 9.5 4.55 9.3 3.85 8.7 3.65 8.75 3.8 9.6 4.7 10.2 4.75 10.85 6.05 11.4 6.45 11.5 6.6 11.5 Q7.35 11.55 7.9 12.05 8.45 12.55 8.45 13.25 L8.45 13.4 M3.0 9.9 L3.1 10.35 2.3 11.35 2.3 11.65 Q2.2 12.25 1.8 12.1 L1.5 11.85 1.4 11.75 Q1.65 10.4 2.6 9.55 L3.0 9.9 M9.0 8.95 L8.1 7.95 Q7.3 7.15 7.45 6.05 8.15 5.7 8.75 6.55 10.1 8.45 12.0 10.45 12.35 10.8 11.95 11.3 L10.75 11.4 9.0 8.95 M20.2 8.0 L19.0 10.4 17.8 11.5 17.5 11.55 17.45 11.2 Q17.85 9.7 18.9 8.35 L20.15 7.0 20.3 7.25 20.2 8.0 M25.0 7.2 L24.9 7.15 23.85 4.95 23.8 4.65 23.85 4.45 Q24.15 3.95 24.55 4.35 L24.6 4.4 25.1 5.2 25.55 6.35 Q25.75 7.15 25.0 7.2 M27.15 12.65 L26.8 12.5 Q26.4 12.2 26.5 11.5 L26.8 11.1 27.3 10.9 27.7 11.1 Q28.2 11.2 28.15 11.65 L27.85 12.35 27.15 12.65 M14.55 16.35 L14.25 16.35 13.55 15.7 Q12.7 14.4 12.05 12.7 12.4 12.7 12.25 12.45 L12.05 12.25 Q12.15 11.1 13.35 10.75 L14.6 11.3 Q15.2 11.65 15.0 12.4 L14.15 13.5 Q13.95 15.1 15.0 15.45 L15.9 14.6 16.0 14.95 15.95 15.45 Q16.0 15.9 15.6 16.15 L14.55 16.35 M6.1 3.85 L6.3 3.25 6.75 2.85 7.35 2.9 7.75 3.3 7.9 3.95 7.7 4.3 7.45 4.65 7.25 4.75 Q6.25 4.75 6.1 3.9 L6.1 3.85" fill="#5ac701" fill-rule="evenodd" stroke="none"/>
    <path d="M20.75 13.35 L20.85 13.3 20.9 13.45 20.75 13.35" fill="#b0fd62" fill-rule="evenodd" stroke="none"/>
    <path d="M20.9 13.45 Q20.15 14.0 19.2 14.15 L19.2 15.4 18.45 16.0 20.4 16.85 20.4 17.0 20.6 17.05 20.65 17.15 21.8 17.45 20.8 17.55 21.15 18.6 21.15 18.8 Q20.4 18.3 20.05 17.3 L18.2 16.4 18.05 17.1 18.0 17.15 17.7 17.0 17.35 16.85 17.15 17.15 16.65 17.5 16.05 17.4 Q16.7 18.2 16.25 19.2 L16.85 19.75 18.05 19.8 18.45 20.15 Q18.2 20.55 18.8 21.1 L18.75 22.05 18.7 22.05 Q18.3 21.65 18.3 21.0 L17.7 20.2 Q16.65 20.2 16.05 19.55 L15.3 20.4 14.9 21.9 14.85 22.2 Q14.8 23.05 14.15 23.1 L14.1 23.05 Q13.95 22.3 14.7 21.8 L14.8 21.15 Q14.95 20.55 15.35 20.05 16.4 18.75 15.65 17.3 L14.65 16.85 14.15 17.3 14.1 17.35 13.25 17.25 13.65 17.2 14.25 16.35 14.55 16.35 14.7 16.5 15.65 16.85 15.8 17.0 16.7 16.9 16.7 16.65 16.4 15.75 16.2 14.65 16.25 14.6 17.1 16.6 17.4 16.45 18.55 15.4 18.6 15.35 18.25 12.65 17.7 12.8 17.1 12.75 17.05 13.0 16.95 13.15 16.05 14.25 16.0 14.25 16.75 13.1 16.6 11.95 16.8 12.0 17.05 12.5 17.1 12.6 18.45 12.4 19.25 12.15 18.95 12.35 18.95 12.5 18.9 12.7 18.85 12.95 19.2 14.05 20.75 13.35 20.9 13.45 M12.05 12.7 Q11.35 12.55 11.5 12.1 L11.6 12.05 12.05 12.25 12.25 12.45 Q12.4 12.7 12.05 12.7 M14.3 9.75 L14.5 9.65 Q15.05 9.8 15.7 10.3 16.4 10.9 16.55 11.8 L16.0 11.8 15.4 11.1 14.65 10.5 Q14.25 10.25 14.3 9.75 M19.85 12.05 L19.4 12.1 19.65 12.0 19.85 12.05 M8.8 14.75 L9.65 13.75 9.5 12.9 9.85 12.2 Q10.3 12.85 10.15 13.75 L11.5 14.8 12.0 14.15 Q12.35 14.65 11.85 15.15 12.45 15.45 12.25 15.95 L12.1 15.85 Q11.25 14.25 9.65 14.1 L9.65 14.25 Q10.35 14.65 10.65 15.6 L10.4 15.45 Q9.7 14.85 8.8 14.75 M10.8 16.5 L10.65 16.35 11.75 16.4 10.9 16.5 10.8 16.5 M8.8 19.1 L10.1 18.3 11.55 18.35 12.1 17.8 12.15 16.95 12.4 17.35 12.9 17.3 Q12.35 17.4 12.4 17.9 L11.15 19.4 Q10.9 19.35 11.1 18.85 L8.8 19.1" fill="#ff0000" fill-rule="evenodd" stroke="none"/>
  </g>
</svg>
