<?xml version="1.0" encoding="UTF-8" standalone="no"?>
<svg xmlns:ffdec="https://www.free-decompiler.com/flash" xmlns:xlink="http://www.w3.org/1999/xlink" ffdec:objectType="shape" height="27.65px" width="28.8px" xmlns="http://www.w3.org/2000/svg">
  <g transform="matrix(1.0, 0.0, 0.0, 1.0, -0.65, -1.25)">
    <path d="M20.75 8.15 L17.05 8.1 17.2 4.65 20.75 8.15 M20.7 12.75 Q20.65 13.15 20.75 13.55 L21.0 13.8 21.65 13.4 21.15 16.35 19.7 17.9 19.15 17.65 19.05 17.65 18.05 20.2 17.75 18.25 17.2 17.9 16.85 18.1 17.05 11.6 21.95 11.45 21.55 12.9 21.05 12.55 20.7 12.75 M13.15 5.0 L13.25 8.1 9.45 8.15 13.15 5.0 M8.7 11.45 L8.75 14.8 8.3 11.45 8.7 11.45 M10.6 16.0 L10.2 17.9 9.1 11.45 13.2 11.6 13.4 20.1 12.05 17.9 12.25 15.5 11.75 14.8 11.3 16.45 10.6 16.0 M11.15 13.6 L11.0 13.0 10.65 12.7 Q10.4 12.7 10.3 13.0 L10.1 13.6 10.3 14.25 Q10.4 14.5 10.65 14.5 L11.0 14.25 11.15 13.6 M20.2 15.25 L20.05 14.85 Q19.9 14.7 19.7 14.7 19.5 14.7 19.4 14.85 19.25 15.0 19.25 15.25 L19.4 15.65 19.7 15.8 20.05 15.65 20.2 15.25" fill="#6a713e" fill-rule="evenodd" stroke="none"/>
    <path d="M29.45 3.6 L29.25 3.65 29.45 3.5 29.45 3.6 M28.85 4.25 L29.45 4.55 29.45 4.85 28.85 4.25 M28.05 5.55 L27.9 5.9 28.05 6.25 28.45 6.4 28.8 6.25 28.95 5.9 28.8 5.55 28.45 5.4 28.05 5.55 M27.8 6.35 L27.75 6.05 Q27.75 5.75 28.0 5.55 28.2 5.3 28.6 5.3 28.95 5.3 29.2 5.55 L29.45 6.05 29.2 6.6 28.6 6.8 Q28.2 6.8 28.0 6.6 L27.95 6.55 27.85 6.4 27.8 6.35 M27.95 7.0 L27.9 7.8 26.55 7.75 27.0 7.1 27.25 7.4 27.45 7.5 Q27.85 7.75 27.95 7.0 M25.4 7.2 L25.25 6.45 24.75 6.25 24.5 7.15 24.3 7.1 Q23.7 7.3 24.15 7.7 L24.15 8.3 16.6 8.35 16.5 7.75 Q16.05 6.3 16.7 4.8 16.75 4.5 17.15 4.3 L18.15 4.05 18.4 3.95 18.1 3.3 18.9 3.75 19.05 4.75 17.2 4.65 17.05 8.1 20.75 8.15 23.45 8.2 24.75 5.75 25.4 6.2 25.8 7.95 Q26.2 7.95 26.5 8.4 L26.75 9.4 26.3 11.1 25.95 13.0 25.35 13.45 24.95 12.4 24.65 11.95 24.6 12.0 24.5 12.1 24.1 12.6 23.45 13.6 23.15 14.1 23.1 14.3 22.8 15.0 22.6 15.5 21.75 18.3 21.2 19.75 21.1 20.05 21.0 20.35 20.55 21.45 20.4 21.7 19.9 22.65 19.05 24.55 18.1 26.1 18.05 26.05 16.9 26.0 16.5 25.45 16.4 12.9 16.45 11.85 17.6 10.95 23.65 10.95 Q24.35 10.95 24.9 11.5 L25.3 12.3 25.3 12.65 Q25.85 12.4 25.4 11.05 L26.0 10.9 26.2 10.45 26.35 10.25 Q26.35 9.05 25.55 8.3 L25.3 8.05 25.4 7.2 M20.7 12.75 L21.05 12.55 21.55 12.9 21.95 11.45 17.05 11.6 16.85 18.1 17.2 17.9 17.75 18.25 18.05 20.2 19.05 17.65 19.15 17.65 19.7 17.9 21.15 16.35 21.65 13.4 21.0 13.8 20.75 13.55 Q20.65 13.15 20.7 12.75 M12.05 3.35 L11.85 3.95 12.1 4.05 13.15 4.3 Q13.55 4.5 13.55 4.8 L13.8 8.15 13.25 8.1 13.15 5.0 Q13.05 4.4 12.75 4.45 L11.5 4.8 11.05 4.6 11.4 3.7 12.05 3.35 M4.7 8.3 Q4.3 9.2 4.05 10.15 L4.05 10.45 4.3 10.9 4.9 11.05 Q4.6 12.45 5.0 12.5 L5.0 12.35 5.35 11.55 Q8.5 10.05 12.75 10.95 L13.45 11.25 13.85 11.85 13.85 12.9 13.7 25.55 13.25 26.05 12.2 26.05 11.4 23.9 10.65 22.6 9.45 20.05 8.4 17.4 8.05 16.5 7.35 15.15 6.65 13.8 5.65 12.1 5.6 11.9 5.25 12.2 4.9 13.45 4.35 13.0 4.3 11.65 4.0 11.35 Q3.3 10.25 3.65 9.0 3.4 8.2 4.05 7.85 L4.4 7.65 Q4.4 6.9 4.7 6.4 5.0 5.85 5.4 5.85 L5.15 6.5 4.95 6.95 5.0 8.05 4.7 8.3 M0.85 1.7 L0.65 1.7 0.65 1.5 1.05 1.7 1.3 2.25 1.05 2.85 0.65 3.05 0.65 2.6 0.7 2.6 0.8 2.45 Q1.05 2.2 0.85 1.7 M2.0 3.85 L1.75 4.45 1.2 4.7 0.65 4.45 0.65 3.25 Q0.9 3.0 1.2 3.0 L1.75 3.25 2.0 3.85 M1.5 3.8 L1.45 3.3 1.2 3.25 1.1 3.4 Q1.5 4.4 1.5 3.8 M2.5 5.0 L2.7 5.5 2.5 6.05 Q2.3 6.25 2.0 6.25 1.65 6.25 1.45 6.05 L1.25 5.5 1.45 5.0 Q1.65 4.75 2.0 4.75 2.3 4.75 2.5 5.0 M2.45 5.0 L2.1 4.85 Q1.85 4.85 1.7 5.0 L1.55 5.35 1.7 5.7 2.1 5.85 2.45 5.7 2.6 5.35 2.45 5.0 M3.6 6.5 Q3.45 6.35 3.3 6.35 3.1 6.35 3.0 6.5 L2.85 6.75 3.0 7.05 3.3 7.15 3.6 7.05 3.7 6.75 3.6 6.5 M3.7 6.5 L3.9 7.05 3.7 7.65 3.1 7.85 Q2.7 7.85 2.5 7.65 L2.25 7.05 Q2.25 6.7 2.5 6.5 2.7 6.25 3.1 6.25 3.45 6.25 3.7 6.5 M8.7 11.45 L8.3 11.45 8.75 14.8 8.7 11.45 M8.8 15.1 L8.75 15.1 8.8 15.2 8.8 15.1 M20.2 15.25 L20.05 15.65 19.7 15.8 19.4 15.65 19.25 15.25 Q19.25 15.0 19.4 14.85 19.5 14.7 19.7 14.7 19.9 14.7 20.05 14.85 L20.2 15.25 M11.15 13.6 L11.0 14.25 10.65 14.5 Q10.4 14.5 10.3 14.25 L10.1 13.6 10.3 13.0 Q10.4 12.7 10.65 12.7 L11.0 13.0 11.15 13.6 M10.6 16.0 L11.3 16.45 11.75 14.8 12.25 15.5 12.05 17.9 13.4 20.1 13.2 11.6 9.1 11.45 10.2 17.9 10.6 16.0" fill="#484929" fill-rule="evenodd" stroke="none"/>
    <path d="M16.9 2.55 L16.7 1.9 Q16.55 1.6 16.25 1.6 L15.95 1.6 15.1 1.55 14.75 1.45 13.8 1.7 13.4 2.55 13.3 3.15 12.55 3.1 14.1 1.25 16.2 1.25 17.3 2.4 17.7 3.1 16.95 3.15 16.9 2.55 M6.0 7.55 L5.9 6.15 6.7 8.1 6.3 8.1 6.0 7.55 M18.2 26.1 L19.05 26.6 18.1 27.55 17.25 27.7 Q14.9 30.25 12.95 27.45 L12.5 27.65 11.7 27.35 11.4 26.7 12.1 26.1 11.8 26.85 12.55 26.95 13.2 26.95 13.5 26.95 13.7 27.0 14.05 27.65 14.85 28.0 15.0 28.1 15.1 28.1 15.4 28.2 15.8 27.8 16.05 27.45 16.35 27.1 16.4 27.05 16.7 27.0 18.0 26.8 18.2 26.1" fill="#54552f" fill-rule="evenodd" stroke="none"/>
    <path d="M29.2 3.65 L29.25 3.65 29.45 3.6 29.45 4.4 29.15 4.3 29.0 4.0 29.15 3.75 29.2 3.65 M27.95 5.85 L28.1 5.6 Q28.2 5.45 28.4 5.45 L28.65 5.6 28.8 5.85 28.65 6.15 28.4 6.25 28.1 6.15 27.95 5.85 M27.95 6.55 L28.0 6.7 27.95 7.0 Q27.85 7.75 27.45 7.5 L27.25 7.4 27.2 6.75 Q27.2 6.5 27.35 6.4 27.45 6.25 27.6 6.25 L27.8 6.35 27.85 6.4 27.95 6.55 M24.15 7.7 Q23.7 7.3 24.3 7.1 L24.5 7.15 24.75 6.25 25.25 6.45 25.4 7.2 25.1 7.6 Q24.8 7.95 24.35 7.9 L24.15 7.7 M16.9 26.0 L18.05 26.05 18.1 26.1 18.2 26.1 18.0 26.8 17.5 26.8 17.0 26.45 16.85 26.3 16.9 26.0 M16.6 8.35 L24.15 8.3 24.2 8.35 17.0 8.75 16.75 8.7 16.6 8.35 M18.9 9.1 L20.35 9.2 20.3 9.45 18.8 9.8 17.0 9.85 15.7 9.75 15.75 12.05 15.5 22.4 15.4 22.95 15.2 9.65 14.8 9.2 14.75 8.35 14.75 8.15 15.1 4.65 15.85 5.05 15.95 8.95 16.2 9.1 16.4 9.1 18.9 9.1 M15.45 25.15 L15.7 25.9 15.15 26.3 14.7 25.8 14.9 25.25 15.45 25.15 M16.25 1.7 Q16.4 2.3 15.85 2.1 L15.6 1.95 14.75 2.25 14.6 2.2 14.05 2.05 13.8 1.7 14.75 1.45 15.1 1.55 15.95 1.6 16.25 1.7 M15.5 3.1 L16.2 3.05 16.25 3.1 Q16.0 3.7 15.65 3.5 L15.35 3.5 15.45 3.1 15.5 3.1 M14.85 3.15 L14.9 3.5 Q14.35 3.95 14.05 3.35 L14.0 3.0 14.1 2.95 14.3 3.15 Q14.6 3.35 14.85 3.15 M13.25 8.1 L13.8 8.15 14.0 8.2 14.05 8.25 13.95 8.35 13.6 8.7 13.5 8.7 Q9.8 9.4 5.85 8.05 L6.3 8.1 6.7 8.1 9.45 8.15 13.25 8.1 M5.4 5.85 L5.85 5.9 5.9 6.15 6.0 7.55 Q5.65 7.55 5.4 7.25 5.15 6.95 5.15 6.5 L5.4 5.85 M0.65 2.15 L0.65 1.7 0.85 1.7 Q0.9 2.3 0.65 2.15 M1.2 3.25 L1.45 3.3 1.5 3.8 Q1.45 4.0 1.15 3.4 L1.2 3.25 M2.4 5.2 L2.5 5.4 2.4 5.6 2.15 5.7 1.9 5.6 1.8 5.4 1.9 5.2 2.15 5.1 2.4 5.2 M12.2 26.05 L13.25 26.05 13.25 26.45 12.8 26.8 12.55 26.95 11.8 26.85 12.1 26.1 12.2 26.05 M16.05 27.45 L15.8 27.8 15.4 27.95 15.1 28.1 15.0 28.1 14.85 28.0 14.15 27.2 15.5 27.3 15.75 27.15 16.1 27.15 16.05 27.45" fill="#ffffff" fill-rule="evenodd" stroke="none"/>
    <path d="M29.2 3.65 L29.25 3.65 29.2 3.65 M29.45 4.4 L29.45 4.55 28.85 4.25 29.0 4.0 29.15 4.3 29.45 4.4 M28.05 5.55 L28.45 5.4 28.8 5.55 28.95 5.9 28.8 6.25 28.45 6.4 28.05 6.25 27.9 5.9 28.05 5.55 M27.95 5.85 L28.1 6.15 28.4 6.25 28.65 6.15 28.8 5.85 28.65 5.6 28.4 5.45 Q28.2 5.45 28.1 5.6 L27.95 5.85 M27.0 7.1 L27.2 6.75 27.25 7.4 27.0 7.1 M25.4 7.2 L25.3 8.05 25.1 7.6 25.4 7.2 M25.55 8.3 Q26.35 9.05 26.35 10.25 L26.2 10.45 Q26.45 10.0 26.1 9.65 L25.7 9.45 25.3 10.85 25.4 11.05 Q25.85 12.4 25.3 12.65 L25.3 12.3 25.3 12.25 25.2 11.65 25.05 11.1 24.75 10.65 24.25 10.25 24.1 9.95 18.0 10.35 24.6 10.85 24.9 11.5 Q24.35 10.95 23.65 10.95 L17.6 10.95 16.45 11.85 16.75 10.8 17.45 10.4 16.2 10.45 16.0 12.3 Q15.75 19.0 16.05 25.6 L16.0 26.15 15.7 25.9 15.45 25.15 15.5 22.4 15.75 12.05 15.75 9.95 17.0 9.85 18.8 9.8 22.0 9.55 20.3 9.45 20.35 9.2 25.2 9.45 25.55 8.3 M16.4 12.9 L16.5 25.45 16.9 26.0 16.05 25.6 16.4 12.9 M18.4 3.95 L18.15 4.05 18.2 3.9 18.4 3.95 M16.7 4.8 Q16.05 6.3 16.5 7.75 L16.6 8.35 16.75 8.7 17.0 8.75 18.9 9.1 16.4 9.1 16.25 8.45 16.05 4.65 15.85 5.05 15.1 4.65 14.75 8.15 14.75 8.35 14.5 8.85 13.85 9.05 13.95 8.35 14.05 8.25 14.0 8.2 13.8 8.15 13.55 4.8 14.05 4.6 13.9 4.3 13.25 3.8 13.55 3.7 13.65 3.5 13.55 3.25 13.3 3.15 13.4 2.55 13.55 2.7 13.7 2.7 13.9 2.5 14.6 2.2 14.75 2.25 14.75 2.35 14.4 2.55 14.2 2.5 14.1 2.95 14.0 3.0 14.05 3.35 Q14.35 3.95 14.9 3.5 L14.85 3.15 14.8 3.1 14.95 3.05 15.25 2.9 15.45 3.1 15.35 3.5 15.15 4.0 16.2 3.9 16.7 3.3 16.55 2.7 16.9 2.55 16.95 3.15 Q16.5 3.55 16.9 3.75 L17.0 3.8 16.75 3.9 Q15.9 4.6 16.7 4.8 M16.2 3.05 L16.25 2.75 16.25 3.1 16.2 3.05 M11.85 3.95 L12.1 3.9 12.1 4.05 11.85 3.95 M14.4 5.2 L14.1 4.75 14.05 7.8 14.4 5.2 M13.7 9.05 L8.2 9.6 14.5 9.95 14.9 25.25 14.7 25.8 14.25 26.1 14.35 25.35 14.2 10.45 12.85 10.35 13.5 10.8 13.85 11.85 13.45 11.25 12.75 10.95 Q8.5 10.05 5.35 11.55 L5.7 10.85 12.45 10.35 6.35 9.9 5.95 10.2 Q4.95 11.0 5.0 12.35 L5.0 12.5 Q4.6 12.45 4.9 11.05 5.35 10.55 4.85 10.05 L4.5 9.45 4.05 10.45 4.05 10.15 Q4.3 9.2 4.7 8.3 L4.7 8.95 5.15 9.4 6.45 9.2 13.5 8.7 13.6 8.7 13.7 9.05 M0.65 2.15 Q0.9 2.3 0.85 1.7 1.05 2.2 0.8 2.45 L0.7 2.6 0.65 2.6 0.65 2.15 M1.5 3.8 Q1.5 4.4 1.1 3.4 L1.2 3.25 1.15 3.4 Q1.45 4.0 1.5 3.8 M2.4 5.2 L2.15 5.1 1.9 5.2 1.8 5.4 1.9 5.6 2.15 5.7 2.4 5.6 2.5 5.4 2.4 5.2 M2.45 5.0 L2.6 5.35 2.45 5.7 2.1 5.85 1.7 5.7 1.55 5.35 1.7 5.0 Q1.85 4.85 2.1 4.85 L2.45 5.0 M13.25 26.05 L13.7 25.55 13.85 12.9 14.2 25.4 13.8 25.75 13.9 26.25 13.25 26.45 13.25 26.05 M3.6 6.5 L3.7 6.75 3.6 7.05 3.3 7.15 3.0 7.05 2.85 6.75 3.0 6.5 Q3.1 6.35 3.3 6.35 3.45 6.35 3.6 6.5 M18.0 26.8 L16.7 27.0 17.5 26.8 18.0 26.8 M16.35 27.1 L16.05 27.45 16.1 27.15 16.35 27.1 M15.8 27.8 L15.4 28.2 15.1 28.1 15.4 27.95 15.8 27.8 M14.85 28.0 L14.05 27.65 13.7 27.0 13.5 26.95 13.9 26.75 Q14.25 26.8 14.15 27.2 L14.85 28.0 M13.2 26.95 L12.55 26.95 12.8 26.8 13.2 26.95 M16.85 26.3 L17.0 26.45 16.7 26.45 16.85 26.3" fill="#b0ba69" fill-rule="evenodd" stroke="none"/>
    <path d="M16.25 1.6 L16.25 1.7 15.95 1.6 16.25 1.6" fill="#ffff66" fill-rule="evenodd" stroke="none"/>
    <path d="M25.3 8.05 L25.55 8.3 25.2 9.45 20.35 9.2 18.9 9.1 17.0 8.75 24.2 8.35 24.15 8.3 24.15 7.7 24.35 7.9 Q24.8 7.95 25.1 7.6 L25.3 8.05 M18.1 3.3 L18.4 3.95 18.2 3.9 17.8 3.65 17.0 3.8 16.9 3.75 Q16.5 3.55 16.95 3.15 L17.7 3.1 18.1 3.3 M20.3 9.45 L22.0 9.55 18.8 9.8 20.3 9.45 M17.0 9.85 L15.75 9.95 15.75 12.05 15.7 9.75 17.0 9.85 M15.5 22.4 L15.45 25.15 14.9 25.25 14.5 9.95 8.2 9.6 13.7 9.05 13.85 9.1 13.85 9.05 14.5 8.85 14.75 8.35 14.8 9.2 15.2 9.65 15.4 22.95 15.5 22.4 M16.0 26.15 L16.05 25.6 16.9 26.0 16.85 26.3 16.7 26.45 16.0 26.15 M14.75 2.25 L15.6 1.95 15.85 2.1 Q16.4 2.3 16.25 1.7 L16.25 1.6 Q16.55 1.6 16.7 1.9 L16.9 2.55 16.55 2.7 16.3 2.6 Q16.2 2.6 16.25 2.75 L16.2 3.05 15.5 3.1 15.9 2.55 15.8 2.5 15.65 2.45 15.25 2.9 14.95 3.05 14.75 2.35 14.75 2.25 M13.8 1.7 L14.05 2.05 14.6 2.2 13.9 2.5 13.7 2.7 13.55 2.7 13.4 2.55 13.8 1.7 M14.85 3.15 Q14.6 3.35 14.3 3.15 L14.1 2.95 14.2 2.5 14.4 2.55 14.8 3.1 14.85 3.15 M12.05 3.35 L12.55 3.1 13.3 3.15 13.55 3.25 13.65 3.5 13.55 3.7 13.25 3.8 12.5 3.65 12.1 3.9 11.85 3.95 12.05 3.35 M13.5 8.7 L6.45 9.2 5.15 9.4 4.7 8.95 4.7 8.3 5.0 8.05 4.95 6.95 5.15 6.5 Q5.15 6.95 5.4 7.25 5.65 7.55 6.0 7.55 L6.3 8.1 5.85 8.05 Q9.8 9.4 13.5 8.7 M14.35 25.35 L14.25 26.1 13.9 26.25 13.8 25.75 14.2 25.4 14.35 25.35 M15.75 27.15 L15.5 27.3 14.55 27.15 14.5 26.5 14.9 26.65 15.85 26.75 Q16.25 26.85 15.75 27.15" fill="#ffff00" fill-rule="evenodd" stroke="none"/>
    <path d="M26.2 10.45 L26.0 10.9 25.4 11.05 25.3 10.85 25.7 9.45 26.1 9.65 Q26.45 10.0 26.2 10.45 M25.3 12.3 L24.9 11.5 24.6 10.85 18.0 10.35 24.1 9.95 24.25 10.25 24.75 10.65 25.05 11.1 25.2 11.65 25.3 12.25 25.3 12.3 M16.45 11.85 L16.4 12.9 16.05 25.6 Q15.75 19.0 16.0 12.3 L16.2 10.45 17.45 10.4 16.75 10.8 16.45 11.85 M18.15 4.05 L17.15 4.3 Q16.75 4.5 16.7 4.8 15.9 4.6 16.75 3.9 L17.0 3.8 17.8 3.65 18.2 3.9 18.15 4.05 M15.7 25.9 L16.0 26.15 16.7 26.45 17.0 26.45 17.5 26.8 16.7 27.0 16.4 27.05 16.35 27.1 16.1 27.15 15.75 27.15 Q16.25 26.85 15.85 26.75 L14.9 26.65 14.5 26.5 14.55 27.15 15.5 27.3 14.15 27.2 Q14.25 26.8 13.9 26.75 L13.5 26.95 13.2 26.95 12.8 26.8 13.25 26.45 13.9 26.25 14.25 26.1 14.7 25.8 15.15 26.3 15.7 25.9 M14.75 2.35 L14.95 3.05 14.8 3.1 14.4 2.55 14.75 2.35 M15.25 2.9 L15.65 2.45 15.8 2.5 15.9 2.55 15.5 3.1 15.45 3.1 15.25 2.9 M16.25 2.75 Q16.2 2.6 16.3 2.6 L16.55 2.7 16.7 3.3 16.2 3.9 15.15 4.0 15.35 3.5 15.65 3.5 Q16.0 3.7 16.25 3.1 L16.25 2.75 M15.85 5.05 L16.05 4.65 16.25 8.45 16.4 9.1 16.2 9.1 15.95 8.95 15.85 5.05 M12.1 3.9 L12.5 3.65 13.25 3.8 13.9 4.3 14.05 4.6 13.55 4.8 Q13.55 4.5 13.15 4.3 L12.1 4.05 12.1 3.9 M14.4 5.2 L14.05 7.8 14.1 4.75 14.4 5.2 M13.85 9.05 L13.85 9.1 13.7 9.05 13.6 8.7 13.95 8.35 13.85 9.05 M4.05 10.45 L4.5 9.45 4.85 10.05 Q5.35 10.55 4.9 11.05 L4.3 10.9 4.05 10.45 M5.0 12.35 Q4.95 11.0 5.95 10.2 L6.35 9.9 12.45 10.35 5.7 10.85 5.35 11.55 5.0 12.35 M13.85 11.85 L13.5 10.8 12.85 10.35 14.2 10.45 14.35 25.35 14.2 25.4 13.85 12.9 13.85 11.85" fill="#000000" fill-rule="evenodd" stroke="none"/>
  </g>
</svg>
