<?xml version="1.0" encoding="UTF-8" standalone="no"?>
<svg xmlns:ffdec="https://www.free-decompiler.com/flash" xmlns:xlink="http://www.w3.org/1999/xlink" ffdec:objectType="shape" height="28.0px" width="28.3px" xmlns="http://www.w3.org/2000/svg">
  <g transform="matrix(1.0, 0.0, 0.0, 1.0, -0.9, -1.05)">
    <path d="M22.95 10.4 Q24.4 10.2 25.9 10.4 L28.2 10.85 28.2 10.8 28.25 9.75 28.25 7.75 Q28.1 5.9 27.25 4.3 L27.2 4.3 Q26.25 2.6 24.75 1.6 L24.4 1.65 23.9 2.05 Q22.5 3.3 21.9 5.15 L21.3 7.4 Q20.95 9.1 21.2 10.8 L21.25 10.85 21.45 10.85 Q22.15 10.5 22.95 10.4 M26.2 2.25 Q27.35 3.4 27.95 4.85 28.5 6.1 28.6 7.65 L28.9 11.05 29.2 11.25 29.0 17.5 28.6 17.95 28.3 26.0 27.4 26.15 Q27.3 26.35 27.5 26.55 28.45 27.6 28.7 29.0 L21.0 29.05 22.2 26.2 21.2 26.05 Q21.0 22.7 21.1 19.3 21.0 19.15 20.8 19.15 20.45 19.25 20.45 19.65 L20.45 19.75 Q19.85 21.7 18.9 23.45 L17.35 25.25 Q16.35 25.95 15.05 26.1 L15.0 26.1 Q13.8 25.95 12.85 25.35 L12.7 25.25 Q11.8 24.55 11.2 23.45 10.2 21.7 9.6 19.75 L9.6 19.65 Q9.6 19.25 9.25 19.15 9.05 19.15 8.95 19.3 L8.85 26.05 7.9 26.2 9.05 29.05 1.35 29.0 Q1.6 27.6 2.55 26.55 L2.65 26.15 1.75 26.0 1.45 17.95 1.05 17.5 0.9 11.25 1.2 11.05 1.45 7.65 Q1.55 6.1 2.1 4.85 2.65 3.4 3.85 2.25 4.5 1.6 5.2 1.15 5.3 1.05 5.45 1.05 L6.5 1.8 Q8.0 3.15 8.65 5.3 L8.85 6.15 Q9.25 8.4 9.2 10.7 L9.3 12.45 9.35 12.5 9.45 12.5 9.6 12.0 Q10.05 9.3 11.65 7.15 L12.7 6.1 Q13.6 5.35 14.8 5.2 L15.2 5.2 15.3 5.2 16.3 5.45 Q17.55 6.0 18.4 7.15 19.3 8.3 19.85 9.7 L20.5 12.0 20.65 12.5 20.7 12.5 20.75 12.45 20.9 10.7 Q20.8 8.4 21.25 6.15 L21.45 5.3 Q22.05 3.15 23.6 1.8 L24.6 1.05 24.85 1.15 26.2 2.25 M22.85 10.85 L22.75 10.85 22.65 10.85 22.5 10.9 21.6 11.35 21.6 11.4 21.55 11.45 22.35 11.4 22.55 11.6 21.75 16.85 Q24.15 16.5 26.5 16.8 L27.25 17.0 Q27.8 17.2 28.35 17.0 L28.35 16.6 28.4 11.85 27.8 11.45 Q25.4 10.55 22.85 10.85 M21.25 14.45 L21.3 14.6 21.65 14.1 Q22.2 13.0 22.35 11.8 L21.65 11.85 21.1 12.1 21.6 12.0 Q22.2 12.5 21.6 13.25 21.25 13.65 20.8 13.4 L20.95 14.15 21.0 14.15 Q20.8 14.2 20.9 14.4 L21.0 14.9 21.1 15.5 21.05 15.85 21.15 16.0 21.3 15.95 21.4 15.6 21.3 14.6 21.25 14.45 M28.0 23.95 L28.0 17.85 27.65 17.8 23.8 17.4 22.8 17.45 21.7 17.6 21.65 18.65 21.6 19.95 21.6 25.45 28.0 25.45 28.0 23.95 M21.7 12.75 L21.55 12.45 21.25 12.3 Q21.05 12.3 20.95 12.45 20.8 12.55 20.8 12.75 L20.95 13.1 Q21.05 13.25 21.25 13.25 L21.55 13.1 21.7 12.75 M19.75 14.8 L20.65 14.35 20.6 14.1 19.65 10.8 19.5 10.3 18.25 7.75 Q17.35 6.5 16.0 5.95 L15.05 5.75 Q13.9 5.75 12.95 6.55 L12.7 6.75 Q11.7 7.6 11.2 8.85 10.0 11.5 9.45 14.1 L9.4 14.35 10.35 14.8 10.45 14.85 10.5 14.85 11.05 15.15 12.95 10.1 13.7 12.35 13.75 12.3 14.7 10.3 14.9 9.85 14.95 8.55 14.95 8.2 14.9 7.85 14.8 6.4 13.7 6.65 13.45 6.8 Q13.0 7.1 12.7 7.55 L11.7 9.05 10.8 10.8 10.15 12.65 10.05 13.25 10.0 13.3 10.0 13.35 9.95 13.55 9.95 13.85 9.95 13.9 9.9 13.95 9.9 14.05 9.85 14.1 9.8 14.1 9.85 13.4 Q10.0 12.6 10.3 11.9 L10.65 11.0 11.45 9.15 Q12.0 8.2 12.7 7.35 L13.0 7.0 Q13.3 6.7 13.7 6.6 L15.2 6.2 15.9 6.3 Q17.35 6.75 18.05 8.15 L18.6 9.2 19.5 11.2 19.8 11.9 20.2 13.4 20.3 14.1 20.25 14.1 20.2 14.05 20.2 14.0 20.15 13.95 20.15 13.9 20.1 13.85 20.15 13.85 20.1 13.55 20.05 13.35 20.05 13.3 20.05 13.25 19.9 12.65 19.45 11.3 19.25 10.8 18.0 8.4 17.8 8.05 Q17.15 6.8 15.9 6.4 15.4 6.25 14.9 6.4 L14.95 6.45 15.0 6.5 15.05 8.2 15.05 8.45 15.05 8.55 15.05 9.8 15.1 9.8 15.1 9.75 15.15 9.8 15.65 10.65 15.9 10.95 16.3 11.7 16.4 11.95 16.35 12.0 16.25 11.9 16.2 11.85 16.2 11.8 15.15 10.15 15.05 9.9 14.8 10.35 Q14.15 11.25 13.8 12.3 L13.75 12.4 13.75 12.5 13.75 12.55 14.0 15.1 14.05 16.85 13.75 20.85 13.6 21.7 12.85 21.25 12.7 21.1 Q11.8 20.35 11.2 19.25 L11.0 18.9 10.5 18.85 9.8 18.85 Q9.65 19.55 10.05 20.25 L10.45 21.15 Q11.2 23.1 12.7 24.45 L12.85 24.6 13.95 25.4 14.7 25.65 15.05 25.75 15.4 25.65 16.1 25.4 17.35 24.45 17.8 24.05 Q18.95 22.8 19.65 21.15 L20.0 20.25 Q20.4 19.55 20.3 18.85 L19.55 18.85 19.1 18.9 18.95 19.15 Q18.2 20.5 17.05 21.35 L16.75 21.55 16.45 21.7 Q15.95 19.3 16.0 16.85 L16.05 15.1 Q16.1 12.45 17.15 10.1 L17.35 10.7 19.0 15.15 19.75 14.8 M20.95 15.25 L20.9 14.9 19.5 15.5 Q19.15 16.3 19.5 16.95 L20.75 16.5 20.95 15.25 M21.05 16.55 L20.9 17.45 20.75 18.4 20.6 18.45 20.55 18.6 20.65 18.7 21.0 18.55 21.05 18.45 21.2 17.5 21.35 16.6 21.3 16.4 21.1 16.2 Q20.85 16.25 20.95 16.45 L21.05 16.55 M20.7 17.25 L19.1 17.65 19.1 17.7 19.0 17.65 18.85 18.0 Q18.75 18.15 18.8 18.35 L20.6 18.45 20.7 17.25 M5.3 1.6 Q3.75 2.6 2.85 4.3 1.95 5.9 1.85 7.75 1.75 8.7 1.8 9.75 L1.85 10.8 1.9 10.85 4.15 10.4 Q5.65 10.2 7.1 10.4 L8.65 10.85 8.8 10.85 8.9 10.8 Q9.1 9.1 8.75 7.4 L8.15 5.15 Q7.5 3.3 6.15 2.05 L5.65 1.65 5.3 1.6 M7.2 10.85 Q4.65 10.55 2.25 11.45 L1.65 11.85 1.7 16.6 1.7 17.0 Q2.2 17.2 2.8 17.0 L3.55 16.8 Q5.9 16.5 8.35 16.85 L7.5 11.6 7.75 11.4 8.55 11.45 8.5 11.4 8.45 11.35 7.55 10.9 7.4 10.85 7.3 10.85 7.2 10.85 M9.1 14.15 L9.25 13.4 Q8.8 13.65 8.45 13.25 7.85 12.5 8.5 12.0 L8.95 12.1 8.4 11.85 7.7 11.8 Q7.85 13.0 8.45 14.1 L8.75 14.6 8.8 14.45 8.8 14.6 8.65 15.6 8.75 15.95 8.9 16.0 9.0 15.85 9.0 15.5 9.05 14.9 9.15 14.4 9.1 14.15 M9.25 12.75 L9.15 12.45 8.8 12.3 Q8.6 12.3 8.5 12.45 L8.35 12.75 8.5 13.1 8.8 13.25 9.15 13.1 9.25 12.75 M9.1 15.25 L9.3 16.5 10.55 16.95 Q10.9 16.3 10.55 15.5 L9.2 14.9 9.1 15.25 M7.25 17.45 L6.25 17.4 2.45 17.8 2.1 17.85 2.1 23.95 2.1 25.45 8.45 25.45 8.45 19.95 8.4 18.65 8.4 17.6 7.25 17.45 M9.45 18.45 L9.35 18.4 9.15 17.45 9.0 16.55 9.1 16.45 9.0 16.2 Q8.85 16.25 8.75 16.4 L8.7 16.6 8.85 17.5 9.0 18.45 9.05 18.55 Q9.15 18.75 9.4 18.7 L9.5 18.6 9.45 18.45 11.3 18.35 11.25 18.0 11.05 17.65 10.95 17.7 10.95 17.65 9.35 17.25 9.45 18.45 M18.55 15.3 L17.8 13.25 17.8 13.3 17.0 11.25 16.6 13.5 16.55 13.55 16.5 13.9 16.45 14.55 16.45 14.8 16.5 15.3 16.45 15.55 16.45 16.6 16.55 17.6 16.6 17.9 16.8 19.95 16.9 20.9 16.95 21.05 Q17.8 20.2 18.25 19.1 L18.35 18.95 18.3 18.95 18.4 18.65 18.4 18.7 18.65 18.7 18.7 18.55 18.7 18.35 18.9 17.35 19.0 17.1 19.1 16.85 19.05 16.8 19.1 16.7 19.0 16.55 18.85 15.65 18.85 15.45 18.85 15.4 18.8 15.15 18.75 15.1 18.55 15.3 M18.8 16.85 L18.8 16.8 18.85 16.85 18.8 16.85 M11.7 18.65 L11.75 18.95 11.7 18.95 12.45 20.25 12.7 20.6 12.85 20.8 13.1 21.05 13.2 20.55 13.35 20.2 13.4 19.75 13.45 19.5 13.5 18.95 13.5 18.85 13.55 18.55 13.65 17.65 13.65 16.65 13.65 16.1 13.65 15.4 13.65 15.3 13.6 14.85 13.55 14.1 13.5 13.9 13.55 13.9 13.05 11.25 11.5 15.2 11.5 15.3 11.3 15.1 11.25 15.15 Q11.05 15.2 11.2 15.4 L11.25 15.45 11.2 15.65 11.05 16.55 11.0 16.7 11.0 16.8 10.95 16.85 Q10.85 17.05 11.05 17.1 L11.15 17.35 11.4 18.35 11.4 18.55 11.4 18.7 11.65 18.7 11.7 18.65 M11.3 16.8 L11.25 16.85 11.2 16.85 11.3 16.8 M7.1 27.05 L6.3 27.0 6.2 27.0 5.15 27.0 4.7 27.05 3.45 27.0 3.2 27.0 2.4 28.45 8.1 28.5 7.3 27.0 7.1 27.05 M27.65 28.45 L26.9 27.0 26.6 27.0 25.35 27.05 24.9 27.0 23.85 27.0 23.75 27.0 22.95 27.05 22.75 27.0 21.95 28.5 27.65 28.45" fill="#525252" fill-rule="evenodd" stroke="none"/>
    <path d="M24.75 1.6 Q26.25 2.6 27.2 4.3 L27.25 4.3 Q28.1 5.9 28.25 7.75 L28.25 9.75 28.2 10.8 28.2 10.85 25.9 10.4 Q24.4 10.2 22.95 10.4 L23.15 6.3 Q25.2 6.05 27.25 6.75 L27.9 7.0 Q27.8 6.75 27.55 6.7 L26.75 6.45 23.15 6.2 Q23.2 4.6 23.9 3.25 L24.1 2.7 24.25 2.25 Q24.45 1.85 24.75 1.6 M22.8 17.45 L23.8 17.4 27.65 17.8 28.0 17.85 28.0 23.95 22.95 24.3 22.9 21.0 25.05 20.95 27.65 21.1 22.9 20.8 22.8 17.45 M10.35 14.8 L9.4 14.35 9.45 14.1 Q10.0 11.5 11.2 8.85 11.7 7.6 12.7 6.75 L12.95 6.55 Q13.9 5.75 15.05 5.75 L16.0 5.95 Q17.35 6.5 18.25 7.75 L19.5 10.3 19.65 10.8 20.6 14.1 20.65 14.35 19.75 14.8 19.75 14.65 19.55 14.1 19.4 13.65 18.9 12.2 18.8 11.85 17.8 9.55 17.7 9.45 16.45 8.85 16.35 8.8 16.25 8.7 Q15.7 8.3 15.05 8.2 L15.0 6.5 14.95 6.45 14.9 6.4 Q15.4 6.25 15.9 6.4 17.15 6.8 17.8 8.05 L18.0 8.4 19.25 10.8 19.45 11.3 19.9 12.65 20.05 13.25 20.05 13.3 20.05 13.35 20.1 13.55 20.15 13.85 20.1 13.85 20.15 13.9 20.15 13.95 20.2 14.0 20.2 14.05 20.25 14.1 20.3 14.1 20.2 13.4 19.8 11.9 19.5 11.2 18.6 9.2 18.05 8.15 Q17.35 6.75 15.9 6.3 L15.2 6.2 13.7 6.6 Q13.3 6.7 13.0 7.0 L12.7 7.35 Q12.0 8.2 11.45 9.15 L10.65 11.0 10.3 11.9 Q10.0 12.6 9.85 13.4 L9.8 14.1 9.85 14.1 9.9 14.05 9.9 13.95 9.95 13.9 9.95 13.85 9.95 13.55 10.0 13.35 10.0 13.3 10.05 13.25 10.15 12.65 10.8 10.8 11.7 9.05 12.7 7.55 Q13.0 7.1 13.45 6.8 L13.7 6.65 14.8 6.4 14.9 7.85 14.95 8.2 14.9 8.2 14.3 8.4 13.0 9.05 12.8 9.15 12.7 9.15 12.45 9.3 12.25 9.5 11.9 10.2 11.4 11.55 11.15 12.2 10.65 13.65 10.5 14.1 10.35 14.65 10.35 14.8 M19.55 18.85 L20.3 18.85 Q20.4 19.55 20.0 20.25 L19.65 21.15 Q18.95 22.8 17.8 24.05 L17.35 24.45 16.1 25.4 15.4 25.65 15.05 25.75 14.7 25.65 13.95 25.4 12.85 24.6 12.7 24.45 Q11.2 23.1 10.45 21.15 L10.05 20.25 Q9.65 19.55 9.8 18.85 L10.5 18.85 10.65 19.4 11.0 20.0 11.45 20.8 12.25 22.05 12.55 22.35 12.7 22.55 12.85 22.7 13.7 23.25 13.95 23.35 15.4 23.4 15.95 23.25 16.5 23.0 17.35 22.3 17.8 21.9 18.0 21.7 19.3 19.55 19.35 19.5 19.4 19.4 19.55 18.85 M10.5 14.85 L10.45 14.85 10.5 14.85 M5.3 1.6 L5.8 2.25 5.95 2.7 6.15 3.25 Q6.8 4.6 6.9 6.2 L3.35 6.45 2.55 6.7 2.2 7.0 Q2.45 6.8 2.8 6.75 4.85 6.05 6.9 6.3 L7.1 10.4 Q5.65 10.2 4.15 10.4 L1.9 10.85 1.85 10.8 1.8 9.75 Q1.75 8.7 1.85 7.75 1.95 5.9 2.85 4.3 3.75 2.6 5.3 1.6 M2.1 23.95 L2.1 17.85 2.45 17.8 6.25 17.4 7.25 17.45 7.15 20.8 2.4 21.1 5.0 20.95 7.15 21.0 7.1 24.3 2.1 23.95 M13.25 24.35 L13.6 24.65 14.1 25.0 15.5 25.05 16.45 24.45 16.45 24.4 16.35 24.4 Q16.15 24.45 16.0 24.6 L15.0 25.05 14.7 25.05 Q13.9 24.85 13.3 24.25 L13.25 24.25 12.85 23.9 12.8 23.8 12.8 23.85 12.85 24.0 13.25 24.35 M10.25 19.8 L11.0 21.45 12.1 23.3 12.55 23.7 12.6 23.65 12.5 23.55 11.95 22.85 10.95 21.15 10.1 19.35 10.25 19.8 M19.95 19.35 L19.1 21.15 18.1 22.85 17.8 23.3 17.55 23.55 17.45 23.65 17.55 23.7 17.8 23.45 17.95 23.3 19.05 21.45 19.85 19.8 19.95 19.35 M16.85 24.2 L17.35 23.8 17.35 23.6 16.85 24.1 16.8 24.2 16.85 24.2" fill="#ffffff" fill-rule="evenodd" stroke="none"/>
    <path d="M22.95 10.4 Q22.15 10.5 21.45 10.85 L21.25 10.85 21.2 10.8 Q20.95 9.1 21.3 7.4 L21.9 5.15 Q22.5 3.3 23.9 2.05 L24.4 1.65 24.75 1.6 Q24.45 1.85 24.25 2.25 L24.1 2.7 23.9 3.25 Q23.2 4.6 23.15 6.2 L22.05 6.45 21.6 6.7 21.65 6.7 23.15 6.3 22.95 10.4 M21.0 14.15 L21.05 14.15 21.2 14.35 21.25 14.45 21.3 14.6 21.4 15.6 21.3 15.95 21.15 16.0 21.05 15.85 21.1 15.5 21.0 14.9 20.9 14.4 Q20.8 14.2 21.0 14.15 M28.0 23.95 L28.0 25.45 21.6 25.45 21.6 19.95 21.65 18.65 21.7 17.6 22.8 17.45 22.9 20.8 Q22.4 20.75 22.0 21.05 L21.9 21.1 22.9 21.0 22.95 24.3 28.0 23.95 M19.75 14.8 L19.0 15.15 17.35 10.7 17.15 10.1 Q16.1 12.45 16.05 15.1 L16.0 16.85 Q15.95 19.3 16.45 21.7 L16.75 21.55 17.05 21.35 Q18.2 20.5 18.95 19.15 L19.1 18.9 19.55 18.85 19.4 19.4 19.35 19.5 19.3 19.55 18.0 21.7 17.8 21.9 17.35 22.3 16.5 23.0 15.95 23.25 15.4 23.4 13.95 23.35 13.7 23.25 12.85 22.7 12.7 22.55 12.55 22.35 12.25 22.05 11.45 20.8 11.0 20.0 10.65 19.4 10.5 18.85 11.0 18.9 11.2 19.25 Q11.8 20.35 12.7 21.1 L12.85 21.25 13.6 21.7 13.75 20.85 14.05 16.85 14.0 15.1 13.75 12.55 13.75 12.5 13.75 12.4 13.8 12.3 Q14.15 11.25 14.8 10.35 L15.05 9.9 15.15 10.15 16.2 11.8 16.2 11.85 16.25 11.9 16.35 12.0 16.4 11.95 16.3 11.7 15.9 10.95 15.65 10.65 15.15 9.8 15.1 9.75 15.1 9.8 15.05 9.8 15.05 8.55 15.05 8.45 15.05 8.2 Q15.7 8.3 16.25 8.7 L16.35 8.8 16.45 8.85 17.7 9.45 17.8 9.55 18.8 11.85 18.9 12.2 19.4 13.65 19.55 14.1 19.75 14.65 19.75 14.8 M14.95 8.2 L14.95 8.55 14.9 9.85 14.7 10.3 13.75 12.3 13.7 12.35 12.95 10.1 11.05 15.15 10.5 14.85 10.45 14.85 10.35 14.8 10.35 14.65 10.5 14.1 10.65 13.65 11.15 12.2 11.4 11.55 11.9 10.2 12.25 9.5 12.45 9.3 12.7 9.15 12.8 9.15 13.0 9.05 14.3 8.4 14.9 8.2 14.95 8.2 M21.05 16.55 L20.95 16.45 Q20.85 16.25 21.1 16.2 L21.3 16.4 21.35 16.6 21.2 17.5 21.05 18.45 21.0 18.55 20.65 18.7 20.55 18.6 20.6 18.45 20.75 18.4 20.9 17.45 21.05 16.55 M6.9 6.2 Q6.8 4.6 6.15 3.25 L5.95 2.7 5.8 2.25 5.3 1.6 5.65 1.65 6.15 2.05 Q7.5 3.3 8.15 5.15 L8.75 7.4 Q9.1 9.1 8.9 10.8 L8.8 10.85 8.65 10.85 7.1 10.4 6.9 6.3 8.45 6.7 8.0 6.45 6.9 6.2 M9.1 14.15 L9.15 14.4 9.05 14.9 9.0 15.5 9.0 15.85 8.9 16.0 8.75 15.95 8.65 15.6 8.8 14.6 8.8 14.45 8.85 14.35 9.05 14.15 9.1 14.15 M2.1 23.95 L7.1 24.3 7.15 21.0 8.15 21.1 8.05 21.05 Q7.6 20.75 7.15 20.8 L7.25 17.45 8.4 17.6 8.4 18.65 8.45 19.95 8.45 25.45 2.1 25.45 2.1 23.95 M9.45 18.45 L9.5 18.6 9.4 18.7 Q9.15 18.75 9.05 18.55 L9.0 18.45 8.85 17.5 8.7 16.6 8.75 16.4 Q8.85 16.25 9.0 16.2 L9.1 16.45 9.0 16.55 9.15 17.45 9.35 18.4 9.45 18.45 M18.55 15.3 L18.75 15.1 18.8 15.15 18.85 15.4 18.85 15.45 18.85 15.65 19.0 16.55 19.1 16.7 19.05 16.8 19.1 16.85 19.0 17.1 18.9 17.35 18.7 18.35 18.7 18.55 18.65 18.7 18.4 18.7 18.4 18.65 18.35 18.55 18.55 17.65 18.65 17.15 18.8 16.85 18.85 16.85 18.8 16.8 18.8 16.75 18.7 16.55 18.55 15.55 18.55 15.3 M11.7 18.65 L11.65 18.7 11.4 18.7 11.4 18.55 11.4 18.35 11.15 17.35 11.05 17.1 Q10.85 17.05 10.95 16.85 L11.0 16.8 11.0 16.7 11.05 16.55 11.2 15.65 11.25 15.45 11.2 15.4 Q11.05 15.2 11.25 15.15 L11.3 15.1 11.5 15.3 11.55 15.55 11.4 16.55 11.3 16.75 11.3 16.8 11.2 16.85 11.25 16.85 11.4 17.15 11.5 17.65 11.7 18.55 11.7 18.65 M13.75 20.85 L14.0 21.25 14.15 21.35 Q14.5 21.45 14.65 21.05 L14.7 21.05 14.85 21.15 15.0 21.2 15.55 21.2 15.85 21.0 15.9 21.05 15.9 21.1 15.95 21.1 16.0 21.1 16.15 20.9 16.05 20.85 15.95 20.9 15.95 20.85 15.85 20.75 Q15.5 21.2 14.95 21.0 L14.85 20.9 14.75 20.9 Q14.5 20.95 14.35 21.25 L14.25 21.2 13.8 20.8 13.75 20.85" fill="#d7d7d7" fill-rule="evenodd" stroke="none"/>
    <path d="M23.15 6.2 L26.75 6.45 27.55 6.7 Q27.8 6.75 27.9 7.0 L27.25 6.75 Q25.2 6.05 23.15 6.3 L21.65 6.7 21.6 6.7 22.05 6.45 23.15 6.2 M22.9 20.8 L27.65 21.1 25.05 20.95 22.9 21.0 21.9 21.1 22.0 21.05 Q22.4 20.75 22.9 20.8 M6.9 6.3 Q4.85 6.05 2.8 6.75 2.45 6.8 2.2 7.0 L2.55 6.7 3.35 6.45 6.9 6.2 8.0 6.45 8.45 6.7 6.9 6.3 M7.15 21.0 L5.0 20.95 2.4 21.1 7.15 20.8 Q7.6 20.75 8.05 21.05 L8.15 21.1 7.15 21.0 M7.1 27.05 L7.3 27.0 8.1 28.5 2.4 28.45 3.2 27.0 3.45 27.0 4.7 27.05 5.15 27.0 6.2 27.0 6.3 27.0 7.1 27.05 M27.65 28.45 L21.95 28.5 22.75 27.0 22.95 27.05 23.75 27.0 23.85 27.0 24.9 27.0 25.35 27.05 26.6 27.0 26.9 27.0 27.65 28.45" fill="#999999" fill-rule="evenodd" stroke="none"/>
    <path d="M28.35 16.6 L28.35 17.0 Q27.8 17.2 27.25 17.0 L26.5 16.8 Q24.15 16.5 21.75 16.85 L22.55 11.6 22.35 11.4 21.55 11.45 21.6 11.4 21.6 11.35 22.5 10.9 22.65 10.85 22.75 10.85 22.85 10.85 22.85 11.35 22.8 12.25 22.75 13.75 22.75 14.1 22.75 14.7 22.75 15.85 22.95 15.85 23.4 15.9 24.85 16.05 25.5 16.15 26.95 16.3 28.35 16.6 M21.0 14.15 L20.95 14.15 20.8 13.4 Q21.25 13.65 21.6 13.25 22.2 12.5 21.6 12.0 L21.1 12.1 21.65 11.85 22.35 11.8 Q22.2 13.0 21.65 14.1 L21.3 14.6 21.25 14.45 21.2 14.35 21.05 14.15 21.0 14.15 M21.7 12.75 L21.55 13.1 21.25 13.25 Q21.05 13.25 20.95 13.1 L20.8 12.75 Q20.8 12.55 20.95 12.45 21.05 12.3 21.25 12.3 L21.55 12.45 21.7 12.75 M20.95 15.25 L20.75 16.5 19.5 16.95 Q19.15 16.3 19.5 15.5 L20.9 14.9 20.95 15.25 M1.7 16.6 L3.15 16.3 4.6 16.15 5.2 16.05 6.65 15.9 7.1 15.85 7.3 15.85 7.3 14.7 7.3 14.1 7.3 13.75 7.25 12.25 7.2 11.35 7.2 10.85 7.3 10.85 7.4 10.85 7.55 10.9 8.45 11.35 8.5 11.4 8.55 11.45 7.75 11.4 7.5 11.6 8.35 16.85 Q5.9 16.5 3.55 16.8 L2.8 17.0 Q2.2 17.2 1.7 17.0 L1.7 16.6 M8.8 14.45 L8.75 14.6 8.45 14.1 Q7.85 13.0 7.7 11.8 L8.4 11.85 8.95 12.1 8.5 12.0 Q7.85 12.5 8.45 13.25 8.8 13.65 9.25 13.4 L9.1 14.15 9.05 14.15 8.85 14.35 8.8 14.45 M9.25 12.75 L9.15 13.1 8.8 13.25 8.5 13.1 8.35 12.75 8.5 12.45 Q8.6 12.3 8.8 12.3 L9.15 12.45 9.25 12.75 M9.1 15.25 L9.2 14.9 10.55 15.5 Q10.9 16.3 10.55 16.95 L9.3 16.5 9.1 15.25" fill="#604837" fill-rule="evenodd" stroke="none"/>
    <path d="M22.85 10.85 Q25.4 10.55 27.8 11.45 L28.4 11.85 28.35 16.6 26.95 16.3 25.5 16.15 24.85 16.05 23.4 15.9 22.95 15.85 22.75 15.85 22.75 14.7 22.75 14.1 22.75 13.75 22.8 12.25 22.85 11.35 22.85 10.85 M1.7 16.6 L1.65 11.85 2.25 11.45 Q4.65 10.55 7.2 10.85 L7.2 11.35 7.25 12.25 7.3 13.75 7.3 14.1 7.3 14.7 7.3 15.85 7.1 15.85 6.65 15.9 5.2 16.05 4.6 16.15 3.15 16.3 1.7 16.6" fill="#9b7857" fill-rule="evenodd" stroke="none"/>
    <path d="M13.75 20.85 L13.8 20.8 14.25 21.2 14.35 21.25 Q14.5 20.95 14.75 20.9 L14.85 20.9 14.95 21.0 Q15.5 21.2 15.85 20.75 L15.95 20.85 15.95 20.9 16.05 20.85 16.15 20.9 16.0 21.1 15.95 21.1 15.9 21.1 15.9 21.05 15.85 21.0 15.55 21.2 15.0 21.2 14.85 21.15 14.7 21.05 14.65 21.05 Q14.5 21.45 14.15 21.35 L14.0 21.25 13.75 20.85 M10.25 19.8 L10.1 19.35 10.95 21.15 11.95 22.85 12.5 23.55 12.6 23.65 12.55 23.7 12.1 23.3 11.0 21.45 10.25 19.8 M13.25 24.35 L12.85 24.0 12.8 23.85 12.8 23.8 12.85 23.9 13.25 24.25 13.3 24.25 Q13.9 24.85 14.7 25.05 L15.0 25.05 16.0 24.6 Q16.15 24.45 16.35 24.4 L16.45 24.4 16.45 24.45 15.5 25.05 14.1 25.0 13.6 24.65 13.25 24.35 M19.95 19.35 L19.85 19.8 19.05 21.45 17.95 23.3 17.8 23.45 17.55 23.7 17.45 23.65 17.55 23.55 17.8 23.3 18.1 22.85 19.1 21.15 19.95 19.35 M16.85 24.2 L16.8 24.2 16.85 24.1 17.35 23.6 17.35 23.8 16.85 24.2" fill="#666666" fill-rule="evenodd" stroke="none"/>
  </g>
</svg>
