<?xml version="1.0" encoding="UTF-8" standalone="no"?>
<svg xmlns:ffdec="https://www.free-decompiler.com/flash" xmlns:xlink="http://www.w3.org/1999/xlink" ffdec:objectType="shape" height="27.1px" width="27.1px" xmlns="http://www.w3.org/2000/svg">
  <g transform="matrix(1.0, 0.0, 0.0, 1.0, -1.55, -1.6)">
    <path d="M26.0 1.6 Q27.05 1.6 27.85 2.4 28.65 3.2 28.65 4.25 L28.65 26.05 Q28.65 27.1 27.85 27.9 27.05 28.7 26.0 28.7 L4.2 28.7 Q3.15 28.7 2.35 27.9 1.55 27.1 1.55 26.05 L1.55 4.25 Q1.55 3.2 2.35 2.4 3.15 1.6 4.2 1.6 L26.0 1.6 M27.6 22.45 L27.6 4.25 Q27.6 3.6 27.15 3.15 26.65 2.65 26.0 2.65 L25.05 2.65 5.45 2.65 4.2 2.65 Q3.55 2.65 3.1 3.15 2.6 3.6 2.6 4.25 L2.6 22.45 2.6 26.05 Q2.6 26.7 3.1 27.2 3.55 27.65 4.2 27.65 L7.25 27.65 7.35 28.2 7.3 27.65 23.45 27.65 23.5 28.2 23.55 27.65 26.0 27.65 Q26.65 27.65 27.15 27.2 L27.6 26.05 27.6 22.6 28.1 22.45 27.6 22.45 M2.6 22.45 L2.4 22.4 2.6 22.45" fill="#ffffff" fill-rule="evenodd" stroke="none"/>
    <path d="M2.6 22.45 L2.6 4.25 Q2.6 3.6 3.1 3.15 3.55 2.65 4.2 2.65 L5.45 2.65 25.05 2.65 26.0 2.65 Q26.65 2.65 27.15 3.15 27.6 3.6 27.6 4.25 L27.6 22.45 26.6 22.4 23.35 26.25 23.45 27.65 7.3 27.65 7.15 25.9 4.3 22.55 2.6 22.45 4.15 22.9 7.0 26.4 7.25 27.65 4.2 27.65 Q3.55 27.65 3.1 27.2 2.6 26.7 2.6 26.05 L2.6 22.45 M27.6 22.6 L27.6 26.05 27.15 27.2 Q26.65 27.65 26.0 27.65 L23.55 27.65 23.7 26.45 26.85 22.8 27.6 22.6 M22.65 6.1 L7.75 6.4 5.45 2.65 7.7 6.6 15.3 6.4 15.5 11.0 14.85 11.0 14.65 17.4 14.2 11.0 12.95 11.0 13.7 18.95 13.8 19.9 13.7 20.2 13.3 20.3 13.3 21.8 14.1 21.8 14.9 21.6 15.35 21.05 15.55 20.05 15.7 17.85 15.75 16.95 15.9 20.45 16.1 11.0 15.65 11.0 15.55 6.4 22.8 6.45 25.05 2.65 22.65 6.1 M23.2 13.65 L23.2 14.35 22.8 14.35 22.8 13.65 22.85 12.65 Q22.85 12.45 23.0 12.5 L23.15 12.7 23.2 13.65 M26.3 12.25 L26.35 11.0 25.0 11.0 25.0 20.45 26.35 20.45 26.35 16.75 26.4 15.0 26.6 14.35 27.15 14.15 27.15 10.8 Q26.55 10.85 26.3 12.25 M22.1 11.2 L21.6 12.3 Q21.4 13.0 21.45 14.25 L21.45 17.05 Q21.4 18.1 21.5 18.65 L21.75 19.65 22.25 20.35 Q22.55 20.65 23.0 20.65 L23.75 20.35 24.25 19.55 24.5 18.55 24.55 17.2 24.55 16.5 23.25 16.5 23.25 17.75 23.2 18.7 23.0 18.95 22.85 18.8 22.8 17.95 22.8 15.9 24.55 15.9 24.55 14.65 24.4 12.5 Q24.25 11.7 23.9 11.3 23.5 10.8 22.95 10.8 22.45 10.8 22.1 11.2 M10.1 12.1 L9.8 11.2 Q9.55 10.8 9.2 10.8 8.95 10.8 8.75 11.0 L8.4 11.5 8.4 8.9 7.0 8.9 7.0 20.45 8.4 20.45 8.4 13.7 Q8.35 12.95 8.45 12.75 8.45 12.45 8.6 12.5 L8.75 12.7 8.8 13.8 8.8 20.45 10.15 20.45 10.15 13.9 10.1 12.1 M3.5 9.9 Q3.3 10.45 3.25 11.1 L3.2 12.95 3.2 16.35 Q3.2 18.05 3.35 18.9 3.45 19.75 3.9 20.25 4.25 20.75 4.9 20.75 5.5 20.7 5.9 20.15 L6.45 18.8 6.55 16.3 6.55 15.8 5.15 15.8 5.15 17.3 5.1 18.5 4.9 18.75 4.65 18.5 4.6 17.4 4.6 12.0 4.65 10.9 Q4.7 10.6 4.9 10.6 L5.1 10.85 5.15 11.95 5.15 13.9 6.55 13.9 6.55 12.8 6.45 10.45 5.9 9.15 Q5.45 8.65 4.85 8.65 4.4 8.6 4.05 8.95 3.65 9.3 3.5 9.9 M17.65 10.8 Q17.15 10.8 16.85 11.1 16.5 11.35 16.35 11.95 16.2 12.45 16.2 13.6 16.2 14.4 16.35 15.0 16.45 15.55 17.1 16.3 L17.85 17.3 17.95 18.15 17.9 18.8 17.7 18.95 17.5 18.75 17.45 17.7 17.45 17.15 16.25 17.15 16.25 17.6 Q16.25 18.75 16.4 19.35 16.5 19.95 16.9 20.3 17.25 20.65 17.8 20.65 L18.6 20.3 19.05 19.4 19.2 17.65 19.05 16.1 18.25 14.95 17.65 14.2 17.5 13.75 17.45 13.15 17.5 12.65 17.7 12.5 17.85 12.65 17.9 13.5 17.9 14.05 19.1 14.05 19.1 13.5 19.05 12.4 18.9 11.7 18.4 11.05 17.65 10.8 M12.8 10.8 Q12.25 10.85 11.95 12.25 L12.0 11.0 10.65 11.0 10.65 20.45 12.0 20.45 12.0 16.75 12.05 15.0 12.25 14.35 Q12.4 14.15 12.8 14.15 L12.8 10.8 M20.95 20.45 L20.95 8.9 19.55 8.9 19.55 20.45 20.95 20.45" fill="#d3d7fa" fill-rule="evenodd" stroke="none"/>
    <path d="M27.6 22.45 L28.1 22.45 27.6 22.6 26.85 22.8 23.7 26.45 23.55 27.65 23.5 28.2 23.45 27.65 23.35 26.25 26.6 22.4 27.6 22.45 M7.3 27.65 L7.35 28.2 7.25 27.65 7.0 26.4 4.15 22.9 2.6 22.45 2.4 22.4 2.6 22.45 4.3 22.55 7.15 25.9 7.3 27.65 M22.65 6.1 L25.05 2.65 22.8 6.45 15.55 6.4 15.65 11.0 16.1 11.0 15.9 20.45 15.75 16.95 15.7 17.85 15.55 20.05 15.35 21.05 14.9 21.6 14.1 21.8 13.3 21.8 13.3 20.3 13.7 20.2 13.8 19.9 13.7 18.95 12.95 11.0 14.2 11.0 14.65 17.4 14.85 11.0 15.5 11.0 15.3 6.4 7.7 6.6 5.45 2.65 7.75 6.4 22.65 6.1 M22.1 11.2 Q22.45 10.8 22.95 10.8 23.5 10.8 23.9 11.3 24.25 11.7 24.4 12.5 L24.55 14.65 24.55 15.9 22.8 15.9 22.8 17.95 22.85 18.8 23.0 18.95 23.2 18.7 23.25 17.75 23.25 16.5 24.55 16.5 24.55 17.2 24.5 18.55 24.25 19.55 23.75 20.35 23.0 20.65 Q22.55 20.65 22.25 20.35 L21.75 19.65 21.5 18.65 Q21.4 18.1 21.45 17.05 L21.45 14.25 Q21.4 13.0 21.6 12.3 L22.1 11.2 M26.3 12.25 Q26.55 10.85 27.15 10.8 L27.15 14.15 26.6 14.35 26.4 15.0 26.35 16.75 26.35 20.45 25.0 20.45 25.0 11.0 26.35 11.0 26.3 12.25 M23.2 13.65 L23.15 12.7 23.0 12.5 Q22.85 12.45 22.85 12.65 L22.8 13.65 22.8 14.35 23.2 14.35 23.2 13.65 M20.95 20.45 L19.55 20.45 19.55 8.9 20.95 8.9 20.95 20.45 M12.8 10.8 L12.8 14.15 Q12.4 14.15 12.25 14.35 L12.05 15.0 12.0 16.75 12.0 20.45 10.65 20.45 10.65 11.0 12.0 11.0 11.95 12.25 Q12.25 10.85 12.8 10.8 M17.65 10.8 L18.4 11.05 18.9 11.7 19.05 12.4 19.1 13.5 19.1 14.05 17.9 14.05 17.9 13.5 17.85 12.65 17.7 12.5 17.5 12.65 17.45 13.15 17.5 13.75 17.65 14.2 18.25 14.95 19.05 16.1 19.2 17.65 19.05 19.4 18.6 20.3 17.8 20.65 Q17.25 20.65 16.9 20.3 16.5 19.95 16.4 19.35 16.25 18.75 16.25 17.6 L16.25 17.15 17.45 17.15 17.45 17.7 17.5 18.75 17.7 18.95 17.9 18.8 17.95 18.15 17.85 17.3 17.1 16.3 Q16.45 15.55 16.35 15.0 16.2 14.4 16.2 13.6 16.2 12.45 16.35 11.95 16.5 11.35 16.85 11.1 17.15 10.8 17.65 10.8 M3.5 9.9 Q3.65 9.3 4.05 8.95 4.4 8.6 4.85 8.65 5.45 8.65 5.9 9.15 L6.45 10.45 6.55 12.8 6.55 13.9 5.15 13.9 5.15 11.95 5.1 10.85 4.9 10.6 Q4.7 10.6 4.65 10.9 L4.6 12.0 4.6 17.4 4.65 18.5 4.9 18.75 5.1 18.5 5.15 17.3 5.15 15.8 6.55 15.8 6.55 16.3 6.45 18.8 5.9 20.15 Q5.5 20.7 4.9 20.75 4.25 20.75 3.9 20.25 3.45 19.75 3.35 18.9 3.2 18.05 3.2 16.35 L3.2 12.95 3.25 11.1 Q3.3 10.45 3.5 9.9 M10.1 12.1 L10.15 13.9 10.15 20.45 8.8 20.45 8.8 13.8 8.75 12.7 8.6 12.5 Q8.45 12.45 8.45 12.75 8.35 12.95 8.4 13.7 L8.4 20.45 7.0 20.45 7.0 8.9 8.4 8.9 8.4 11.5 8.75 11.0 Q8.95 10.8 9.2 10.8 9.55 10.8 9.8 11.2 L10.1 12.1" fill="#333333" fill-rule="evenodd" stroke="none"/>
  </g>
</svg>
