<?xml version="1.0" encoding="UTF-8" standalone="no"?>
<svg xmlns:ffdec="https://www.free-decompiler.com/flash" xmlns:xlink="http://www.w3.org/1999/xlink" ffdec:objectType="shape" height="26.6px" width="26.6px" xmlns="http://www.w3.org/2000/svg">
  <g transform="matrix(1.0, 0.0, 0.0, 1.0, -1.9, -1.95)">
    <path d="M28.35 2.1 L28.5 2.4 28.5 28.05 28.35 28.4 28.0 28.55 2.4 28.55 2.05 28.4 1.9 28.05 1.9 2.4 Q1.9 2.2 2.05 2.1 2.15 1.95 2.4 1.95 L28.0 1.95 28.35 2.1 M27.55 6.2 L27.55 6.0 27.55 5.4 27.55 2.9 24.25 2.9 24.2 2.85 24.15 2.9 3.3 2.9 3.2 2.65 3.05 2.9 2.85 2.9 2.85 22.15 2.65 22.3 2.7 22.55 2.8 22.75 2.85 22.75 2.85 27.55 14.7 27.55 27.55 27.55 27.55 6.2" fill="#414756" fill-rule="evenodd" stroke="none"/>
    <path d="M25.8 3.15 L25.8 3.05 Q25.9 2.85 25.95 2.95 L26.9 3.8 Q27.4 4.55 27.55 5.4 L27.55 6.0 27.55 6.2 26.95 7.05 26.3 7.0 Q26.95 6.85 26.85 6.0 L26.55 4.6 25.8 3.15 M24.25 2.9 L24.5 3.2 24.65 3.5 24.6 3.9 24.45 4.3 23.9 4.4 23.95 3.65 23.8 3.05 24.15 2.9 24.2 2.85 24.25 2.9 M24.55 4.3 L25.0 4.25 25.5 4.3 25.7 5.85 25.7 6.9 Q25.2 7.45 25.35 8.05 L25.8 8.3 26.1 8.7 26.0 9.0 Q26.4 9.55 26.05 9.95 L25.5 10.25 25.05 10.4 26.15 11.25 Q26.8 11.75 26.6 12.4 L26.4 12.45 25.5 12.2 Q26.65 12.05 25.5 11.15 L24.55 10.4 24.5 10.25 24.5 10.15 24.95 10.1 25.5 9.5 25.5 9.25 Q25.05 9.1 25.45 8.5 L25.5 8.35 24.8 8.0 Q24.95 6.8 25.45 5.85 25.75 5.3 25.45 4.8 L24.55 4.3 M24.0 6.8 L23.85 6.85 22.9 6.25 23.25 5.5 24.55 5.35 23.75 5.5 23.35 6.25 24.0 6.8 M22.5 7.3 L22.3 7.5 21.8 7.55 22.5 6.95 22.5 7.3 M23.25 12.3 L24.35 12.4 24.45 12.15 24.5 11.7 25.05 12.1 24.9 12.4 24.6 12.75 23.25 12.3 M4.6 19.6 L4.25 19.2 4.6 19.3 4.6 19.6 M4.7 14.65 L4.8 14.65 5.65 15.5 5.8 15.65 5.75 15.75 5.55 16.0 4.95 14.9 4.7 14.65 M6.75 15.7 L6.8 15.7 6.9 16.0 7.0 16.45 7.15 16.7 6.8 17.35 6.9 17.45 6.35 17.1 6.25 17.0 6.3 16.95 6.6 16.1 6.65 15.75 6.75 15.7 M7.45 15.4 L7.5 15.4 8.0 15.75 8.4 16.45 8.2 17.3 8.0 17.25 7.6 16.95 7.8 16.05 7.45 15.4 M7.65 18.1 L8.1 18.55 8.3 18.95 7.75 19.25 7.55 19.3 5.7 19.5 5.8 19.05 7.0 18.9 7.4 18.7 7.7 18.55 7.65 18.1 M3.05 22.8 L3.3 22.55 4.25 22.4 3.9 23.1 3.6 23.3 Q3.2 23.55 3.05 22.8 M4.35 23.6 L7.1 23.8 7.4 24.45 5.9 24.35 4.4 24.2 Q3.95 24.0 4.35 23.6 M4.15 25.8 L5.45 26.4 7.3 26.35 Q8.15 25.85 8.25 25.05 L8.25 23.85 8.55 24.2 Q9.15 24.85 9.0 25.75 8.8 26.8 7.85 27.1 L6.5 27.4 5.25 26.8 4.15 25.8 M7.7 23.25 Q6.95 22.65 6.05 22.75 L5.6 22.4 8.0 22.35 8.5 22.6 8.5 22.85 Q8.4 23.5 7.7 23.25 M7.55 21.85 L7.05 21.65 6.85 21.3 7.8 21.25 Q8.2 20.85 7.95 20.55 L7.75 20.3 7.75 20.25 7.85 19.65 8.2 19.85 8.5 20.4 Q8.4 20.55 8.45 20.65 8.75 21.1 8.6 21.7 L7.55 21.85 M6.1 21.45 L6.05 21.45 6.05 21.4 6.1 21.45 M5.95 21.2 L5.4 20.9 Q5.45 20.3 5.9 20.6 L6.4 20.25 Q6.1 20.6 6.4 21.05 L5.95 21.05 5.95 21.2" fill="#000000" fill-rule="evenodd" stroke="none"/>
    <path d="M27.55 5.4 Q27.4 4.55 26.9 3.8 L25.95 2.95 Q25.9 2.85 25.8 3.05 L25.8 3.15 Q25.45 2.7 25.4 3.2 L25.5 4.3 25.0 4.25 24.55 4.3 24.45 4.3 24.6 3.9 24.65 3.5 24.5 3.2 24.25 2.9 27.55 2.9 27.55 5.4 M26.3 7.0 L26.95 7.05 27.55 6.2 27.55 27.55 14.7 27.55 17.95 22.05 19.2 18.75 16.6 16.2 17.15 14.9 21.4 18.8 Q23.35 20.9 24.95 23.45 L26.6 26.5 27.05 27.55 27.2 27.2 26.65 22.8 Q26.1 19.9 25.2 17.2 L23.8 14.0 23.2 13.05 21.95 11.2 Q20.45 8.95 18.5 7.4 L18.3 7.25 17.05 6.3 13.7 13.2 12.15 11.25 Q13.45 6.75 15.4 2.9 12.85 6.1 12.05 7.8 11.15 9.5 11.1 11.6 12.0 13.35 13.25 14.55 L12.7 15.7 10.6 13.75 Q7.95 11.35 6.0 8.15 4.65 6.05 3.65 3.75 L3.3 2.9 24.15 2.9 23.8 3.05 Q23.35 2.85 23.1 3.45 L22.5 4.7 Q21.55 4.85 21.05 5.35 L21.05 5.5 21.9 5.6 21.6 7.5 21.8 7.55 22.3 7.5 22.5 7.3 Q22.65 7.85 23.15 8.15 L23.0 8.25 22.9 8.4 23.1 9.0 22.8 9.4 22.35 10.05 22.4 10.45 22.3 11.4 22.95 12.15 23.25 12.3 24.6 12.75 24.9 12.4 25.05 12.1 25.5 12.2 26.4 12.45 26.6 12.4 Q26.8 11.75 26.15 11.25 L25.05 10.4 25.5 10.25 26.05 9.95 Q26.4 9.55 26.0 9.0 L26.1 8.7 25.8 8.3 25.35 8.05 Q25.2 7.45 25.7 6.9 L25.9 7.1 26.3 7.0 M24.55 5.35 L24.45 5.75 24.0 6.8 23.35 6.25 23.75 5.5 24.55 5.35 M2.85 22.15 L2.85 2.9 3.05 2.9 3.0 3.0 Q3.15 6.05 3.75 8.9 4.35 11.85 5.25 14.5 L5.65 15.5 4.8 14.65 4.7 14.65 4.35 14.4 4.05 14.55 Q3.75 15.35 4.35 16.15 L5.15 17.25 4.95 18.05 3.85 18.35 Q3.6 19.1 4.25 19.2 L4.6 19.6 4.4 21.25 4.45 21.45 3.05 22.05 2.85 22.15 M7.75 19.25 L7.85 19.35 10.15 22.05 11.75 23.55 12.65 24.25 16.0 17.45 17.65 19.05 Q16.45 23.6 14.7 27.55 L2.85 27.55 2.85 22.75 3.05 22.8 Q3.2 23.55 3.6 23.3 L3.9 23.1 Q3.8 23.4 4.0 23.5 L4.35 23.6 Q3.95 24.0 4.4 24.2 L5.9 24.35 7.4 24.45 Q7.5 25.2 6.6 25.4 L5.3 25.05 4.25 24.4 3.75 24.3 Q3.5 25.3 4.15 25.8 L5.25 26.8 6.5 27.4 7.85 27.1 Q8.8 26.8 9.0 25.75 9.15 24.85 8.55 24.2 L8.25 23.85 7.7 23.25 Q8.4 23.5 8.5 22.85 L8.5 22.6 8.0 22.35 7.9 22.0 7.55 21.85 8.6 21.7 Q8.75 21.1 8.45 20.65 8.4 20.55 8.5 20.4 L8.2 19.85 7.85 19.65 7.55 19.3 7.75 19.25 M7.05 21.65 L6.1 21.45 6.05 21.4 5.95 21.2 5.95 21.05 6.4 21.05 6.85 21.3 7.05 21.65" fill="#59648c" fill-rule="evenodd" stroke="none"/>
    <path d="M25.8 3.15 L26.55 4.6 26.85 6.0 Q26.95 6.85 26.3 7.0 L25.9 7.1 25.7 6.9 25.7 5.85 25.5 4.3 25.4 3.2 Q25.45 2.7 25.8 3.15 M24.45 4.3 L24.55 4.3 25.45 4.8 Q25.75 5.3 25.45 5.85 24.95 6.8 24.8 8.0 L25.5 8.35 25.45 8.5 Q25.05 9.1 25.5 9.25 L25.5 9.5 24.95 10.1 24.5 10.15 24.5 10.25 24.55 10.4 25.5 11.15 Q26.65 12.05 25.5 12.2 L25.05 12.1 24.5 11.7 24.45 12.15 24.35 12.4 23.25 12.3 22.95 12.15 22.3 11.4 22.4 10.45 22.35 10.05 22.8 9.4 23.1 9.0 22.9 8.4 23.0 8.25 23.15 8.15 Q22.65 7.85 22.5 7.3 L22.5 6.95 21.8 7.55 21.6 7.5 21.9 5.6 21.05 5.5 21.05 5.35 Q21.55 4.85 22.5 4.7 L23.1 3.45 Q23.35 2.85 23.8 3.05 L23.95 3.65 23.9 4.4 24.45 4.3 M24.0 6.8 L24.45 5.75 24.55 5.35 23.25 5.5 22.9 6.25 23.85 6.85 24.0 6.8 M2.85 22.15 L3.05 22.05 4.45 21.45 4.4 21.25 4.6 19.6 4.6 19.3 4.25 19.2 Q3.6 19.1 3.85 18.35 L4.95 18.05 5.15 17.25 4.35 16.15 Q3.75 15.35 4.05 14.55 L4.35 14.4 4.7 14.65 4.95 14.9 5.55 16.0 5.75 15.75 5.8 15.65 6.15 15.45 6.65 15.75 6.6 16.1 6.3 16.95 6.25 17.0 6.35 17.1 6.9 17.45 7.1 17.55 7.65 18.1 7.7 18.55 7.4 18.7 7.0 18.9 5.8 19.05 5.7 19.5 7.55 19.3 7.85 19.65 7.75 20.25 7.75 20.3 7.95 20.55 Q8.2 20.85 7.8 21.25 L6.85 21.3 6.4 21.05 Q6.1 20.6 6.4 20.25 L5.9 20.6 Q5.45 20.3 5.4 20.9 L5.95 21.2 6.05 21.4 6.05 21.45 6.1 21.45 7.05 21.65 7.55 21.85 7.9 22.0 8.0 22.35 5.6 22.4 6.05 22.75 Q6.95 22.65 7.7 23.25 L8.25 23.85 8.25 25.05 Q8.15 25.85 7.3 26.35 L5.45 26.4 4.15 25.8 Q3.5 25.3 3.75 24.3 L4.25 24.4 5.3 25.05 6.6 25.4 Q7.5 25.2 7.4 24.45 L7.1 23.8 4.35 23.6 4.0 23.5 Q3.8 23.4 3.9 23.1 L4.25 22.4 3.3 22.55 3.05 22.8 2.85 22.75 2.8 22.75 2.7 22.55 2.65 22.3 2.85 22.15 M6.8 15.7 L6.75 15.55 Q6.65 14.75 7.45 15.4 L7.8 16.05 7.6 16.95 7.35 16.8 7.15 16.7 7.0 16.45 6.9 16.0 6.8 15.7" fill="#ff0000" fill-rule="evenodd" stroke="none"/>
    <path d="M15.9 15.65 L15.55 15.25 17.25 11.45 18.55 12.65 19.0 13.1 Q21.8 15.85 24.0 18.9 L21.7 14.45 21.3 13.8 Q19.8 11.5 17.9 9.65 L17.5 9.3 14.75 14.55 14.35 14.05 17.15 8.0 Q17.75 8.05 18.25 8.45 L18.45 8.6 18.65 8.8 18.8 8.95 Q21.15 11.2 22.9 14.15 L22.95 14.25 Q24.35 16.6 25.2 19.25 25.8 21.25 26.05 23.5 L23.5 20.1 Q20.7 16.15 17.0 13.35 L15.9 15.65 M6.75 15.7 Q4.95 12.45 4.35 8.55 L4.1 6.8 8.2 12.5 Q10.25 15.15 12.85 17.25 L13.8 15.15 14.3 15.65 12.55 19.15 9.7 16.45 Q7.65 14.1 6.05 11.35 L6.9 13.55 8.0 15.75 7.5 15.4 7.45 15.4 Q6.65 14.75 6.75 15.55 L6.8 15.7 6.75 15.7 M15.35 16.75 L12.5 22.65 Q11.8 22.5 11.3 21.9 9.05 19.6 7.35 16.8 L7.6 16.95 8.0 17.25 8.2 17.3 8.4 16.45 10.5 19.4 12.25 21.3 14.95 16.45 15.35 16.75" fill="#ffff99" fill-rule="evenodd" stroke="none"/>
    <path d="M13.25 14.55 Q12.0 13.35 11.1 11.6 11.15 9.5 12.05 7.8 12.85 6.1 15.4 2.9 13.45 6.75 12.15 11.25 L13.7 13.2 14.35 14.05 14.75 14.55 17.5 9.3 17.9 9.65 Q19.8 11.5 21.3 13.8 L21.7 14.45 24.0 18.9 Q21.8 15.85 19.0 13.1 L18.55 12.65 17.25 11.45 15.55 15.25 15.9 15.65 16.6 16.2 19.2 18.75 17.95 22.05 14.7 27.55 Q16.45 23.6 17.65 19.05 L16.0 17.45 15.35 16.75 14.95 16.45 12.25 21.3 10.5 19.4 8.4 16.45 8.0 15.75 6.9 13.55 6.05 11.35 Q7.65 14.1 9.7 16.45 L12.55 19.15 14.3 15.65 13.8 15.15 13.25 14.55" fill="#d53e3e" fill-rule="evenodd" stroke="none"/>
    <path d="M3.3 2.9 L3.65 3.75 Q4.65 6.05 6.0 8.15 7.95 11.35 10.6 13.75 L12.7 15.7 13.25 14.55 13.8 15.15 12.85 17.25 Q10.25 15.15 8.2 12.5 L4.1 6.8 4.35 8.55 Q4.95 12.45 6.75 15.7 L6.65 15.75 6.15 15.45 5.8 15.65 5.65 15.5 5.25 14.5 Q4.35 11.85 3.75 8.9 3.15 6.05 3.0 3.0 L3.05 2.9 3.2 2.65 3.3 2.9 M13.7 13.2 L17.05 6.3 18.3 7.25 18.5 7.4 Q20.45 8.95 21.95 11.2 L23.2 13.05 23.8 14.0 25.2 17.2 Q26.1 19.9 26.65 22.8 L27.2 27.2 27.05 27.55 26.6 26.5 24.95 23.45 Q23.35 20.9 21.4 18.8 L17.15 14.9 16.6 16.2 15.9 15.65 17.0 13.35 Q20.7 16.15 23.5 20.1 L26.05 23.5 Q25.8 21.25 25.2 19.25 24.35 16.6 22.95 14.25 L22.9 14.15 Q21.15 11.2 18.8 8.95 L18.65 8.8 18.45 8.6 18.25 8.45 Q17.75 8.05 17.15 8.0 L14.35 14.05 13.7 13.2 M7.15 16.7 L7.35 16.8 Q9.05 19.6 11.3 21.9 11.8 22.5 12.5 22.65 L15.35 16.75 16.0 17.45 12.65 24.25 11.75 23.55 10.15 22.05 7.85 19.35 7.75 19.25 8.3 18.95 8.1 18.55 7.65 18.1 7.1 17.55 6.9 17.45 6.8 17.35 7.15 16.7" fill="#9ca5be" fill-rule="evenodd" stroke="none"/>
  </g>
</svg>
