<?xml version="1.0" encoding="UTF-8" standalone="no"?>
<svg xmlns:ffdec="https://www.free-decompiler.com/flash" xmlns:xlink="http://www.w3.org/1999/xlink" ffdec:objectType="shape" height="25.9px" width="26.1px" xmlns="http://www.w3.org/2000/svg">
  <g transform="matrix(1.0, 0.0, 0.0, 1.0, -1.55, -2.25)">
    <path d="M15.85 2.4 L15.25 2.45 16.4 3.05 10.6 2.55 15.85 2.25 15.85 2.4 M8.25 8.3 L6.65 8.3 6.65 7.0 8.25 7.0 8.25 8.3" fill="#cec7b8" fill-rule="evenodd" stroke="none"/>
    <path d="M21.55 3.35 L22.8 4.05 18.7 3.45 16.4 3.05 15.25 2.45 15.85 2.4 21.55 3.35" fill="#fbfaf9" fill-rule="evenodd" stroke="none"/>
    <path d="M16.4 3.05 L18.7 3.45 Q18.35 5.15 19.0 7.8 19.6 10.4 21.2 11.6 22.8 12.8 24.5 11.85 L25.85 10.5 27.65 9.9 27.05 18.85 11.65 18.95 26.4 17.4 8.0 18.05 27.2 16.0 16.0 15.0 23.35 12.4 10.2 15.4 4.85 13.2 14.4 11.65 9.0 11.35 16.5 10.45 8.6 9.85 16.05 7.85 12.9 5.95 12.35 4.7 Q10.15 2.25 6.75 3.2 4.8 3.75 3.7 5.45 L3.55 6.95 3.5 8.0 3.05 8.45 Q3.75 9.3 3.95 10.1 L3.45 10.05 5.65 11.35 3.45 11.3 Q3.25 11.3 3.15 11.8 L4.45 24.0 Q6.4 25.6 8.7 26.6 12.15 28.25 15.85 27.7 19.75 27.25 23.35 25.5 20.4 27.25 17.1 27.9 12.65 28.7 8.6 27.15 5.0 25.7 3.15 22.35 1.95 20.15 1.7 17.6 1.1 11.8 2.75 6.3 3.4 4.15 5.25 2.85 L10.6 2.55 16.4 3.05 M27.05 18.95 L27.0 20.2 17.85 19.85 13.25 20.0 27.05 18.95" fill="#938676" fill-rule="evenodd" stroke="none"/>
    <path d="M21.55 3.35 L15.85 2.4 15.85 2.25 21.55 3.35 M18.7 3.45 L22.8 4.05 27.25 7.4 27.35 7.8 27.65 9.9 25.85 10.5 24.5 11.85 Q22.8 12.8 21.2 11.6 19.6 10.4 19.0 7.8 18.35 5.15 18.7 3.45" fill="#c7c2b3" fill-rule="evenodd" stroke="none"/>
    <path d="M27.05 18.85 L27.05 18.95 13.25 20.0 5.65 22.2 14.9 21.45 6.5 24.5 10.0 26.5 Q12.65 27.85 15.6 27.2 20.95 26.2 25.55 23.25 L26.05 22.85 17.7 21.05 23.8 20.2 17.85 19.85 27.0 20.2 26.8 22.95 23.35 25.5 Q19.75 27.25 15.85 27.7 12.15 28.25 8.7 26.6 6.4 25.6 4.45 24.0 L3.15 11.8 Q3.25 11.3 3.45 11.3 L5.65 11.35 3.45 10.05 3.95 10.1 Q3.75 9.3 3.05 8.45 L3.5 8.0 3.55 6.95 3.7 5.45 Q4.8 3.75 6.75 3.2 10.15 2.25 12.35 4.7 L12.9 5.95 16.05 7.85 8.6 9.85 16.5 10.45 9.0 11.35 14.4 11.65 4.85 13.2 10.2 15.4 23.35 12.4 16.0 15.0 27.2 16.0 8.0 18.05 26.4 17.4 11.65 18.95 27.05 18.85 M8.25 8.3 L8.25 7.0 6.65 7.0 6.65 8.3 8.25 8.3 M4.55 13.55 L5.05 18.85 10.2 16.35 5.55 17.65 4.55 13.55" fill="#675649" fill-rule="evenodd" stroke="none"/>
    <path d="M17.7 21.05 L14.9 21.45 5.65 22.2 13.25 20.0 17.85 19.85 23.8 20.2 17.7 21.05" fill="#38332d" fill-rule="evenodd" stroke="none"/>
    <path d="M17.7 21.05 L26.05 22.85 25.55 23.25 Q20.95 26.2 15.6 27.2 12.65 27.85 10.0 26.5 L6.5 24.5 14.9 21.45 17.7 21.05" fill="#32302b" fill-rule="evenodd" stroke="none"/>
    <path d="M4.55 13.55 L5.55 17.65 10.2 16.35 5.05 18.85 4.55 13.55" fill="#4b3b2f" fill-rule="evenodd" stroke="none"/>
  </g>
</svg>
