<?xml version="1.0" encoding="UTF-8" standalone="no"?>
<svg xmlns:ffdec="https://www.free-decompiler.com/flash" xmlns:xlink="http://www.w3.org/1999/xlink" ffdec:objectType="shape" height="27.05px" width="23.25px" xmlns="http://www.w3.org/2000/svg">
  <g transform="matrix(1.0, 0.0, 0.0, 1.0, -3.3, -1.9)">
    <path d="M3.3 12.35 Q3.4 9.85 4.5 7.55 5.6 5.2 7.8 3.8 9.75 2.7 11.75 2.25 L16.5 2.0 Q14.35 3.1 11.95 3.7 L9.2 4.4 7.1 9.75 6.2 10.9 7.35 5.45 4.95 8.45 4.4 8.4 4.25 8.65 3.3 12.35" fill="#596558" fill-rule="evenodd" stroke="none"/>
    <path d="M17.2 2.1 L20.25 3.85 20.15 5.0 22.95 7.05 25.85 11.3 26.15 11.45 Q26.7 13.5 26.5 15.7 26.3 18.1 25.4 20.25 L24.95 21.3 Q23.75 23.2 22.05 24.75 20.25 26.35 17.9 27.0 L16.45 27.2 16.1 27.85 13.9 27.95 13.4 27.45 Q10.0 27.6 7.6 24.9 L8.8 24.3 8.0 23.4 6.2 23.25 4.35 21.55 3.5 18.5 3.3 12.35 4.25 8.65 4.4 8.4 4.95 8.45 7.35 5.45 6.2 10.9 5.55 11.45 6.0 13.05 6.8 12.65 Q8.05 11.9 8.35 10.6 L7.1 9.75 9.2 4.4 11.95 3.7 Q14.35 3.1 16.5 2.0 L17.2 2.1 M22.4 8.95 L19.4 8.95 19.4 11.0 22.4 11.0 22.4 8.95 M17.55 5.4 L17.6 7.25 18.25 7.75 18.75 7.7 18.0 6.1 17.55 5.4 M7.6 13.7 L10.7 15.95 11.05 14.65 10.05 13.45 11.35 12.45 11.55 11.45 9.3 11.3 7.55 13.25 7.6 13.7 M8.6 21.85 L9.8 21.85 Q11.05 21.1 11.45 19.8 L11.95 18.2 11.0 17.05 9.7 18.75 9.15 19.7 8.6 21.85" fill="#179b3a" fill-rule="evenodd" stroke="none"/>
    <path d="M17.2 2.1 L18.1 2.35 Q20.05 2.7 21.85 3.8 23.7 5.05 24.7 7.05 25.65 8.95 26.05 11.0 L25.85 11.3 22.95 7.05 20.15 5.0 20.25 3.85 17.2 2.1 M17.55 5.4 L18.0 6.1 18.75 7.7 18.25 7.75 17.6 7.25 17.55 5.4" fill="#4bb76c" fill-rule="evenodd" stroke="none"/>
    <path d="M22.4 8.95 L22.4 11.0 19.4 11.0 19.4 8.95 22.4 8.95" fill="#49bb6b" fill-rule="evenodd" stroke="none"/>
    <path d="M24.95 21.3 Q24.5 23.75 22.75 25.45 20.85 27.25 18.65 28.1 16.4 28.95 14.0 28.95 11.45 28.95 9.25 27.75 7.2 26.6 5.8 24.85 L5.2 24.1 5.3 23.4 6.45 24.15 7.6 24.9 Q10.0 27.6 13.4 27.45 L13.9 27.95 16.1 27.85 16.45 27.2 17.9 27.0 Q20.25 26.35 22.05 24.75 23.75 23.2 24.95 21.3" fill="#243e21" fill-rule="evenodd" stroke="none"/>
    <path d="M7.6 13.7 L7.55 13.25 9.3 11.3 11.55 11.45 11.35 12.45 10.05 13.45 11.05 14.65 10.7 15.95 7.6 13.7" fill="#47b56a" fill-rule="evenodd" stroke="none"/>
    <path d="M5.2 24.1 Q4.05 21.95 3.65 19.5 L3.5 18.5 4.35 21.55 6.2 23.25 6.45 24.15 5.3 23.4 5.2 24.1" fill="#273f26" fill-rule="evenodd" stroke="none"/>
    <path d="M25.85 11.3 L26.05 11.0 26.15 11.45 25.85 11.3" fill="#40b764" fill-rule="evenodd" stroke="none"/>
    <path d="M6.45 24.15 L6.2 23.25 8.0 23.4 8.8 24.3 7.6 24.9 6.45 24.15" fill="#afe7d2" fill-rule="evenodd" stroke="none"/>
    <path d="M8.6 21.85 L9.15 19.7 9.7 18.75 11.0 17.05 11.95 18.2 11.45 19.8 Q11.05 21.1 9.8 21.85 L8.6 21.85" fill="#e5f1ed" fill-rule="evenodd" stroke="none"/>
    <path d="M7.1 9.75 L8.35 10.6 Q8.05 11.9 6.8 12.65 L6.0 13.05 5.55 11.45 6.2 10.9 7.1 9.75" fill="#5dbb7b" fill-rule="evenodd" stroke="none"/>
  </g>
</svg>
