<?xml version="1.0" encoding="UTF-8" standalone="no"?>
<svg xmlns:ffdec="https://www.free-decompiler.com/flash" xmlns:xlink="http://www.w3.org/1999/xlink" ffdec:objectType="shape" height="26.7px" width="21.9px" xmlns="http://www.w3.org/2000/svg">
  <g transform="matrix(1.0, 0.0, 0.0, 1.0, -4.2, -1.8)">
    <path d="M21.0 2.0 L20.6 2.3 Q17.9 1.65 19.6 3.75 L20.3 4.6 9.65 4.9 Q6.15 4.3 8.4 6.7 L8.55 7.15 7.25 23.95 4.8 21.35 4.8 14.95 4.9 11.75 4.95 11.4 4.95 10.7 4.8 9.5 4.8 10.85 4.8 11.15 4.8 12.05 4.8 13.9 4.65 6.75 11.05 1.9 21.0 2.0 M19.05 23.2 L18.75 23.2 18.35 24.05 15.65 23.5 15.6 23.1 Q15.2 21.8 14.45 22.95 L14.45 23.0 14.35 23.65 11.2 23.9 11.2 5.85 11.1 5.45 12.45 5.6 18.5 7.9 19.05 23.2" fill="#2f3d5c" fill-rule="evenodd" stroke="none"/>
    <path d="M20.6 2.3 L25.45 6.6 25.55 15.75 25.15 9.5 25.25 20.7 22.7 21.35 22.9 23.7 21.8 25.95 19.95 27.4 11.35 27.75 7.25 23.95 8.55 7.15 8.4 6.7 Q6.15 4.3 9.65 4.9 L10.65 5.4 11.2 5.85 11.2 23.9 14.35 23.65 Q14.75 24.0 15.15 23.9 L15.65 23.5 18.35 24.05 18.9 24.35 18.75 23.2 19.05 23.2 19.25 23.4 20.4 24.25 20.6 23.05 20.25 22.6 20.3 4.6 19.6 3.75 Q17.9 1.65 20.6 2.3 M23.05 10.6 L23.2 10.35 23.05 10.1 22.65 10.0 22.25 10.1 22.1 10.35 22.25 10.6 22.65 10.7 23.05 10.6 M18.5 7.9 L12.45 5.6 18.6 5.8 18.5 7.9" fill="#233041" fill-rule="evenodd" stroke="none"/>
    <path d="M20.6 2.3 L21.0 2.0 26.1 5.85 25.95 22.95 19.75 28.5 10.05 28.4 4.2 22.3 4.4 6.3 8.9 1.8 11.05 1.9 4.65 6.75 4.5 22.0 11.2 28.25 19.95 27.4 21.8 25.95 25.6 22.45 25.55 15.75 25.45 6.6 20.6 2.3" fill="#607198" fill-rule="evenodd" stroke="none"/>
    <path d="M20.4 24.25 L19.25 23.4 19.5 4.75 20.25 22.6 20.4 23.05 20.4 24.25" fill="#fafafb" fill-rule="evenodd" stroke="none"/>
    <path d="M25.55 15.75 L25.6 22.45 21.8 25.95 22.9 23.7 22.7 21.35 25.25 20.7 25.15 9.5 25.55 15.75 M23.05 10.6 L22.65 10.7 22.25 10.6 22.1 10.35 22.25 10.1 22.65 10.0 23.05 10.1 23.2 10.35 23.05 10.6" fill="#405178" fill-rule="evenodd" stroke="none"/>
    <path d="M15.65 23.5 L15.15 23.9 Q14.75 24.0 14.35 23.65 L14.45 23.0 14.45 22.95 Q15.2 21.8 15.6 23.1 L15.65 23.5" fill="#1e2a3a" fill-rule="evenodd" stroke="none"/>
    <path d="M19.25 23.4 L19.05 23.2 18.5 7.9 18.6 5.8 12.45 5.6 11.1 5.45 10.65 5.4 9.65 4.9 20.3 4.6 20.25 22.6 19.5 4.75 19.25 23.4 M18.75 23.2 L18.9 24.35 18.35 24.05 18.75 23.2" fill="#626eaf" fill-rule="evenodd" stroke="none"/>
    <path d="M20.25 22.6 L20.6 23.05 20.4 23.05 20.25 22.6" fill="#485289" fill-rule="evenodd" stroke="none"/>
    <path d="M20.6 23.05 L20.4 24.25 20.4 23.05 20.6 23.05" fill="#5c6099" fill-rule="evenodd" stroke="none"/>
    <path d="M11.2 5.85 L10.65 5.4 11.1 5.45 11.2 5.85" fill="#737cb8" fill-rule="evenodd" stroke="none"/>
    <path d="M4.95 10.7 L4.95 11.4 4.8 11.15 4.8 10.85 4.95 10.7 M4.9 11.75 L4.8 14.95 4.8 13.9 4.8 12.05 4.9 11.75" fill="#242d3d" fill-rule="evenodd" stroke="none"/>
    <path d="M4.8 10.85 L4.8 9.5 4.95 10.7 4.8 10.85" fill="#202a3a" fill-rule="evenodd" stroke="none"/>
    <path d="M4.95 11.4 L4.9 11.75 4.8 12.05 4.8 11.15 4.95 11.4" fill="#1d2530" fill-rule="evenodd" stroke="none"/>
    <path d="M19.95 27.4 L11.2 28.25 4.5 22.0 4.65 6.75 4.8 13.9 4.8 14.95 4.8 21.35 7.25 23.95 11.35 27.75 19.95 27.4" fill="#4c596e" fill-rule="evenodd" stroke="none"/>
  </g>
</svg>
