<?xml version="1.0" encoding="UTF-8" standalone="no"?>
<svg xmlns:ffdec="https://www.free-decompiler.com/flash" xmlns:xlink="http://www.w3.org/1999/xlink" ffdec:objectType="shape" height="23.45px" width="27.7px" xmlns="http://www.w3.org/2000/svg">
  <g transform="matrix(1.0, 0.0, 0.0, 1.0, -1.35, -3.3)">
    <path d="M22.45 4.7 Q21.25 4.85 20.4 4.05 L19.95 3.6 22.45 4.7 M24.7 7.0 L23.05 5.05 23.5 5.35 27.0 8.0 25.1 7.45 25.05 7.35 24.85 7.3 24.7 7.0" fill="#716e63" fill-rule="evenodd" stroke="none"/>
    <path d="M22.45 4.7 L23.05 5.05 24.7 7.0 23.4 6.85 20.3 6.0 19.55 5.15 14.65 5.0 15.35 4.5 15.2 3.3 19.95 3.6 20.4 4.05 Q21.25 4.85 22.45 4.7" fill="#4e4346" fill-rule="evenodd" stroke="none"/>
    <path d="M15.2 3.3 L15.35 4.5 14.65 5.0 19.55 5.15 14.9 6.15 13.9 5.7 13.4 6.15 12.75 6.85 Q11.65 7.1 10.6 8.1 L8.65 10.0 Q5.45 13.35 7.95 17.55 L8.75 18.4 9.15 18.85 12.85 17.7 14.05 16.0 14.35 16.5 15.2 16.25 15.6 16.55 17.25 17.25 21.45 16.95 23.4 15.65 23.75 15.4 25.45 13.85 26.0 13.25 25.45 12.4 25.45 9.7 24.85 9.0 25.1 7.45 27.0 8.0 27.7 9.75 28.85 13.1 27.55 12.55 Q27.75 15.65 26.85 18.65 L27.3 18.85 28.15 17.95 26.5 20.8 25.85 20.5 24.45 21.1 24.2 21.55 23.55 21.65 22.4 22.8 20.95 22.4 20.35 22.95 18.9 22.8 18.35 22.25 18.5 21.6 18.2 21.2 16.95 22.25 15.95 21.25 15.2 21.9 15.8 22.25 16.05 22.8 15.8 23.25 16.2 23.95 17.35 24.4 16.6 26.2 14.7 26.6 13.75 26.25 15.05 25.8 12.2 26.1 11.1 26.35 11.05 26.35 7.65 25.25 Q2.5 23.5 1.85 17.85 1.35 13.75 3.35 10.05 L3.85 9.15 3.95 9.15 4.65 9.25 5.1 8.85 4.5 8.45 4.6 8.35 8.75 5.15 12.85 5.05 12.1 4.6 11.85 3.85 15.2 3.3 M10.95 6.05 L10.65 6.75 11.85 6.4 11.8 5.95 10.95 6.05 M13.4 5.05 L14.4 5.25 14.9 4.45 13.4 5.05 M7.6 7.9 L7.0 8.55 7.5 9.95 7.85 8.55 9.3 7.75 7.6 7.9 M4.5 11.7 L3.45 12.85 3.8 13.45 5.9 11.8 4.5 11.7 M9.6 20.4 Q9.85 20.3 10.05 20.15 L9.9 19.55 8.25 19.7 9.6 20.4 M16.1 20.25 L17.25 19.95 18.25 19.0 15.3 18.4 15.6 19.05 15.7 19.95 14.15 20.4 15.7 20.9 Q16.45 21.05 16.1 20.25" fill="#201924" fill-rule="evenodd" stroke="none"/>
    <path d="M19.55 5.15 L20.3 6.0 23.4 6.85 22.7 8.1 21.25 8.25 21.2 6.95 19.7 6.6 Q18.05 9.05 15.1 9.4 L13.05 9.9 14.9 6.15 19.55 5.15 M23.5 5.35 Q27.7 7.0 28.7 11.25 29.75 15.5 27.45 19.4 25.0 23.5 20.7 25.35 16.0 27.45 11.1 26.35 L14.7 26.6 16.6 26.2 18.25 25.8 20.8 25.05 23.05 23.95 23.65 23.5 26.5 20.8 28.15 17.95 28.85 13.1 27.7 9.75 27.0 8.0 23.5 5.35 M11.05 26.35 Q8.55 25.85 6.15 24.75 1.5 22.5 1.35 17.35 1.25 13.3 3.35 10.05 1.35 13.75 1.85 17.85 2.5 23.5 7.65 25.25 L11.05 26.35 M4.6 8.35 Q7.25 5.3 11.35 4.1 L8.75 5.15 4.6 8.35" fill="#bfa6d7" fill-rule="evenodd" stroke="none"/>
    <path d="M13.4 5.05 L14.9 4.45 14.4 5.25 13.4 5.05" fill="#524540" fill-rule="evenodd" stroke="none"/>
    <path d="M11.35 4.1 L11.85 3.85 12.1 4.6 12.85 5.05 8.75 5.15 11.35 4.1" fill="#5c415e" fill-rule="evenodd" stroke="none"/>
    <path d="M23.4 6.85 L24.7 7.0 24.85 7.3 24.85 9.0 25.45 9.7 25.45 12.4 25.45 13.85 23.75 15.4 23.95 15.0 23.4 13.85 22.7 13.65 22.6 13.15 21.8 12.6 20.85 13.0 21.1 14.25 22.35 14.6 22.55 15.4 23.4 15.65 21.45 16.95 Q17.35 13.95 12.35 14.0 L11.65 14.0 9.15 18.85 8.75 18.4 8.6 17.6 14.25 6.15 13.4 6.15 13.9 5.7 14.9 6.15 13.05 9.9 15.1 9.4 Q18.05 9.05 19.7 6.6 L21.2 6.95 21.25 8.25 22.7 8.1 23.4 6.85" fill="#8d6aaf" fill-rule="evenodd" stroke="none"/>
    <path d="M7.95 17.55 Q5.45 13.35 8.65 10.0 L10.6 8.1 Q11.65 7.1 12.75 6.85 L13.3 6.8 7.85 16.95 7.95 17.55" fill="#eae6f1" fill-rule="evenodd" stroke="none"/>
    <path d="M8.75 18.4 L7.95 17.55 7.85 16.95 13.3 6.8 12.75 6.85 13.4 6.15 14.25 6.15 8.6 17.6 8.75 18.4" fill="#ada2b5" fill-rule="evenodd" stroke="none"/>
    <path d="M23.75 15.4 L23.4 15.65 22.55 15.4 22.35 14.6 21.1 14.25 20.85 13.0 21.8 12.6 22.6 13.15 22.7 13.65 23.4 13.85 23.95 15.0 23.75 15.4" fill="#7648a9" fill-rule="evenodd" stroke="none"/>
    <path d="M24.85 9.0 L24.85 7.3 25.05 7.35 25.1 7.45 24.85 9.0 M25.45 12.4 L26.0 13.25 25.45 13.85 25.45 12.4" fill="#51366e" fill-rule="evenodd" stroke="none"/>
    <path d="M28.85 13.1 L28.15 17.95 27.3 18.85 26.85 18.65 Q27.75 15.65 27.55 12.55 L28.85 13.1" fill="#4d4b50" fill-rule="evenodd" stroke="none"/>
    <path d="M26.5 20.8 L23.65 23.5 21.25 23.25 21.6 24.25 23.05 23.95 20.8 25.05 20.3 24.95 19.55 24.25 19.95 23.1 18.65 22.95 18.7 22.85 18.9 22.8 20.35 22.95 20.95 22.4 22.05 23.25 22.4 22.8 23.55 21.65 24.2 21.55 24.45 21.1 25.85 20.5 26.5 20.8" fill="#614873" fill-rule="evenodd" stroke="none"/>
    <path d="M23.65 23.5 L23.05 23.95 21.6 24.25 21.25 23.25 23.65 23.5 M22.4 22.8 L22.05 23.25 20.95 22.4 22.4 22.8" fill="#4a3b58" fill-rule="evenodd" stroke="none"/>
    <path d="M21.45 16.95 L17.25 17.25 16.8 16.65 15.65 16.35 13.25 15.4 12.85 17.7 9.15 18.85 11.65 14.0 12.35 14.0 Q17.35 13.95 21.45 16.95" fill="#603a7e" fill-rule="evenodd" stroke="none"/>
    <path d="M15.6 16.55 L15.2 16.25 14.35 16.5 14.05 16.0 12.85 17.7 13.25 15.4 15.65 16.35 15.6 16.55" fill="#482963" fill-rule="evenodd" stroke="none"/>
    <path d="M17.25 19.95 L16.6 19.45 16.8 18.9 15.6 19.05 15.3 18.4 18.25 19.0 17.25 19.95 M15.7 19.95 L16.1 20.25 Q16.45 21.05 15.7 20.9 L14.15 20.4 15.7 19.95" fill="#4b1592" fill-rule="evenodd" stroke="none"/>
    <path d="M17.25 17.25 L15.6 16.55 15.65 16.35 16.8 16.65 17.25 17.25" fill="#4b2761" fill-rule="evenodd" stroke="none"/>
    <path d="M18.9 22.8 L18.7 22.85 18.65 22.95 15.8 23.25 16.05 22.8 15.8 22.25 15.95 21.25 16.95 22.25 18.2 21.2 18.5 21.6 18.35 22.25 18.9 22.8" fill="#381274" fill-rule="evenodd" stroke="none"/>
    <path d="M17.25 19.95 L16.1 20.25 15.7 19.95 15.6 19.05 16.8 18.9 16.6 19.45 17.25 19.95 M15.8 22.25 L15.2 21.9 15.95 21.25 15.8 22.25" fill="#a638f0" fill-rule="evenodd" stroke="none"/>
    <path d="M17.35 24.4 L16.2 23.95 15.8 23.25 18.65 22.95 18.0 24.5 17.35 24.4" fill="#6b27ac" fill-rule="evenodd" stroke="none"/>
    <path d="M18.25 25.8 L16.6 26.2 17.35 24.4 18.0 24.5 18.9 24.4 19.4 24.5 18.25 25.8 M14.7 26.6 L11.1 26.35 12.2 26.1 13.75 26.25 14.7 26.6" fill="#533d5a" fill-rule="evenodd" stroke="none"/>
    <path d="M12.2 26.1 L15.05 25.8 13.75 26.25 12.2 26.1" fill="#5b2e89" fill-rule="evenodd" stroke="none"/>
    <path d="M20.8 25.05 L18.25 25.8 19.4 24.5 18.9 24.4 19.55 24.25 20.3 24.95 20.8 25.05" fill="#6b576e" fill-rule="evenodd" stroke="none"/>
    <path d="M18.65 22.95 L19.95 23.1 19.55 24.25 18.9 24.4 18.0 24.5 18.65 22.95" fill="#f3d2f9" fill-rule="evenodd" stroke="none"/>
    <path d="M10.95 6.05 L11.8 5.95 11.85 6.4 10.65 6.75 10.95 6.05" fill="#9f38c5" fill-rule="evenodd" stroke="none"/>
    <path d="M7.6 7.9 L9.3 7.75 7.85 8.55 7.5 9.95 7.0 8.55 7.6 7.9" fill="#9742e8" fill-rule="evenodd" stroke="none"/>
    <path d="M3.85 9.15 L4.5 8.45 5.1 8.85 4.65 9.25 3.95 9.15 3.85 9.15" fill="#3b1d7c" fill-rule="evenodd" stroke="none"/>
    <path d="M4.5 11.7 L5.9 11.8 3.8 13.45 3.45 12.85 4.5 11.7" fill="#47167d" fill-rule="evenodd" stroke="none"/>
    <path d="M9.6 20.4 L8.25 19.7 9.9 19.55 10.05 20.15 Q9.85 20.3 9.6 20.4" fill="#492d6b" fill-rule="evenodd" stroke="none"/>
  </g>
</svg>
