<?xml version="1.0" encoding="UTF-8" standalone="no"?>
<svg xmlns:ffdec="https://www.free-decompiler.com/flash" xmlns:xlink="http://www.w3.org/1999/xlink" ffdec:objectType="shape" height="8.5px" width="14.9px" xmlns="http://www.w3.org/2000/svg">
  <g transform="matrix(1.0, 0.0, 0.0, 1.0, 9.15, 6.85)">
    <path d="M-4.15 -2.3 L-4.15 -2.25 -4.2 -2.25 -4.2 -2.3 -4.15 -2.3 M-1.0 -0.15 L-0.95 -0.15 -1.0 -0.15" fill="#cc0000" fill-rule="evenodd" stroke="none"/>
    <path d="M5.65 -6.8 L5.7 -6.75 5.75 -6.7 5.15 -5.65 4.35 -4.85 4.1 -4.65 3.8 -4.4 3.4 -3.6 2.95 -2.55 2.1 -1.0 1.1 0.7 0.85 1.1 0.65 1.25 0.2 1.55 -0.2 1.65 -0.8 1.6 -1.05 1.5 -1.35 1.4 -1.6 1.25 -1.65 1.2 -2.5 -0.15 -3.55 -1.3 -3.6 -1.3 -5.25 -1.95 -6.05 -2.15 -7.65 -2.25 -8.95 -2.4 -9.0 -2.45 -9.1 -2.5 -9.15 -2.55 -9.15 -2.85 -9.1 -3.0 -9.05 -3.0 -8.95 -3.05 -8.85 -3.0 -5.05 -2.75 Q-2.15 -2.8 0.5 -3.5 2.15 -3.9 3.5 -4.95 L3.6 -5.0 3.8 -5.15 5.25 -6.5 5.35 -6.65 5.55 -6.85 5.6 -6.8 5.65 -6.8 M-1.0 -0.15 L-0.55 -0.15 0.95 -0.45 1.55 -0.6 2.3 -1.9 2.2 -2.4 2.65 -2.8 3.05 -3.5 3.35 -4.1 Q2.6 -3.6 1.75 -3.3 L-0.2 -2.75 -0.8 -2.7 -1.15 -2.65 -1.5 -2.6 -3.6 -2.25 -3.95 -2.25 -4.15 -2.3 -4.2 -2.3 -4.2 -2.25 -4.15 -2.25 -3.25 -1.6 -3.0 -1.4 -2.75 -1.2 -1.85 -0.4 -1.55 -0.2 -1.0 -0.15 -0.95 -0.15 -1.0 -0.15 M2.7 -3.15 L2.05 -2.9 2.0 -2.8 Q0.25 -2.05 -1.7 -1.95 L-2.7 -1.95 -2.75 -2.0 -1.7 -2.2 -1.5 -2.2 2.0 -2.9 2.0 -2.95 2.6 -3.15 2.7 -3.15" fill="#01653f" fill-rule="evenodd" stroke="none"/>
    <path d="M-4.15 -2.3 L-3.95 -2.25 -3.6 -2.25 -1.5 -2.6 -1.15 -2.65 -0.8 -2.7 -0.2 -2.75 1.75 -3.3 Q2.6 -3.6 3.35 -4.1 L3.05 -3.5 2.65 -2.8 2.2 -2.4 2.3 -1.9 1.55 -0.6 0.95 -0.45 -0.55 -0.15 -1.0 -0.15 -1.55 -0.2 -1.85 -0.4 -2.75 -1.2 -3.0 -1.4 -3.25 -1.6 -4.15 -2.25 -4.15 -2.3 M2.7 -3.15 L2.6 -3.15 2.0 -2.95 2.0 -2.9 -1.5 -2.2 -1.7 -2.2 -2.75 -2.0 -2.7 -1.95 -1.7 -1.95 Q0.25 -2.05 2.0 -2.8 L2.05 -2.9 2.7 -3.15" fill="#009966" fill-rule="evenodd" stroke="none"/>
  </g>
</svg>
