<?xml version="1.0" encoding="UTF-8" standalone="no"?>
<svg xmlns:ffdec="https://www.free-decompiler.com/flash" xmlns:xlink="http://www.w3.org/1999/xlink" ffdec:objectType="shape" height="26.9px" width="26.45px" xmlns="http://www.w3.org/2000/svg">
  <g transform="matrix(1.0, 0.0, 0.0, 1.0, -1.8, -2.1)">
    <path d="M23.3 8.95 L23.6 9.25 24.05 10.25 23.35 10.05 23.3 8.95 M22.4 7.95 L23.1 8.7 Q22.8 8.7 22.6 8.5 L22.4 7.95" fill="#f78a6e" fill-rule="evenodd" stroke="none"/>
    <path d="M24.8 10.75 L25.1 11.35 23.85 11.15 22.4 11.65 22.05 13.35 21.6 12.8 21.15 13.2 20.4 11.95 20.4 11.65 20.95 6.6 22.4 7.95 22.6 8.5 Q22.8 8.7 23.1 8.7 L23.3 8.95 23.35 10.05 24.05 10.25 24.8 10.75" fill="#d46652" fill-rule="evenodd" stroke="none"/>
    <path d="M23.6 9.25 L24.8 10.75 24.05 10.25 23.6 9.25" fill="#fcbca3" fill-rule="evenodd" stroke="none"/>
    <path d="M28.15 20.55 L28.25 22.85 28.05 25.75 27.6 28.6 23.3 29.0 18.8 28.7 17.0 28.35 15.0 27.85 12.05 26.55 9.7 24.8 7.9 23.4 Q5.5 21.3 4.0 18.25 3.15 16.5 2.65 14.7 2.35 13.7 2.2 12.7 L1.9 10.75 1.8 7.8 Q1.85 6.35 2.15 4.95 L2.35 4.05 2.05 6.8 2.2 12.65 2.2 12.7 2.45 13.5 3.4 16.15 4.6 18.6 6.1 20.9 8.0 22.95 9.05 23.85 10.05 24.7 11.15 25.55 12.05 26.25 13.5 27.05 16.25 27.8 19.0 28.45 21.7 28.65 24.4 28.6 27.1 28.2 27.75 25.3 28.05 22.95 28.15 20.55 M2.45 3.75 L2.65 2.95 Q3.5 2.4 4.55 2.4 L8.5 2.15 12.2 2.65 15.85 3.55 Q17.6 4.25 19.35 5.1 L19.15 7.25 19.6 7.35 20.2 5.8 20.95 6.6 20.4 11.65 17.85 9.55 11.55 6.0 11.75 5.4 12.05 3.9 10.85 3.75 10.25 5.1 10.8 5.85 5.8 5.6 5.6 7.95 4.85 9.15 4.3 7.75 4.4 7.25 2.45 3.75" fill="#826b5e" fill-rule="evenodd" stroke="none"/>
    <path d="M19.35 5.1 L20.2 5.8 19.6 7.35 19.15 7.25 19.35 5.1" fill="#6e5345" fill-rule="evenodd" stroke="none"/>
    <path d="M11.55 6.0 L17.85 9.55 20.25 12.15 18.8 12.6 18.1 12.3 17.55 13.1 18.55 14.2 18.1 14.4 17.9 14.85 15.45 14.55 12.05 11.75 8.6 8.9 8.1 8.55 7.85 10.1 7.25 11.4 6.9 12.55 7.0 13.05 6.45 13.2 5.6 7.95 5.8 5.6 10.8 5.85 11.55 6.0 M15.95 14.95 L15.6 15.0 15.55 14.95 15.95 14.95 M15.05 14.75 L15.0 14.8 14.7 14.55 14.75 14.55 15.05 14.75" fill="#3b1a18" fill-rule="evenodd" stroke="none"/>
    <path d="M20.4 11.65 L20.4 11.95 20.25 12.15 17.85 9.55 20.4 11.65" fill="#682e2a" fill-rule="evenodd" stroke="none"/>
    <path d="M20.4 11.95 L21.15 13.2 21.35 15.3 21.45 16.2 22.35 16.6 21.2 17.05 19.75 16.55 18.4 19.2 18.5 19.7 17.55 19.65 15.45 15.85 14.7 15.8 12.55 16.7 13.8 15.05 15.15 14.95 15.6 15.0 15.95 14.95 17.75 15.35 19.2 15.85 19.4 15.45 18.55 14.2 17.55 13.1 18.1 12.3 18.8 12.6 20.25 12.15 20.4 11.95" fill="#b32c18" fill-rule="evenodd" stroke="none"/>
    <path d="M26.1 13.6 L26.35 14.15 25.75 14.45 Q24.95 14.35 24.4 13.8 L23.95 13.4 24.15 15.2 23.35 15.35 22.05 13.65 22.05 13.35 22.4 11.65 23.85 11.15 25.25 12.95 24.45 12.85 25.2 13.95 25.65 14.0 26.1 13.6" fill="#e88063" fill-rule="evenodd" stroke="none"/>
    <path d="M21.15 13.2 L21.6 12.8 22.05 13.35 22.05 13.65 21.5 13.45 21.6 14.8 21.35 15.3 21.15 13.2" fill="#f69971" fill-rule="evenodd" stroke="none"/>
    <path d="M23.35 15.35 L23.05 16.0 22.35 16.6 21.45 16.2 21.35 15.3 21.6 14.8 21.5 13.45 22.05 13.65 23.35 15.35" fill="#fbcca9" fill-rule="evenodd" stroke="none"/>
    <path d="M25.15 11.4 L25.75 12.8 25.5 12.7 24.95 11.9 25.15 11.4" fill="#fcebd9" fill-rule="evenodd" stroke="none"/>
    <path d="M26.35 14.15 L26.95 15.6 25.3 16.05 24.55 16.95 22.9 16.2 23.05 16.0 23.35 15.35 24.15 15.2 23.95 13.4 24.4 13.8 Q24.95 14.35 25.75 14.45 L26.35 14.15" fill="#a4584a" fill-rule="evenodd" stroke="none"/>
    <path d="M25.1 11.35 L25.15 11.4 24.95 11.9 25.5 12.7 25.75 12.8 26.1 13.6 25.65 14.0 25.2 13.95 24.45 12.85 25.25 12.95 23.85 11.15 25.1 11.35" fill="#fcc79d" fill-rule="evenodd" stroke="none"/>
    <path d="M23.05 16.0 L22.9 16.2 22.35 16.6 23.05 16.0" fill="#d15e4d" fill-rule="evenodd" stroke="none"/>
    <path d="M22.9 16.2 L24.55 16.95 26.05 19.4 25.0 19.85 25.45 21.05 25.0 21.45 24.4 20.15 23.35 20.25 22.25 22.65 20.95 21.9 20.15 24.15 20.5 24.85 19.75 24.85 18.2 24.4 17.6 21.4 18.75 21.15 18.5 19.7 18.4 19.2 19.75 16.55 21.2 17.05 22.35 16.6 22.9 16.2 M21.65 18.75 L22.65 21.15 22.7 19.35 21.65 18.75" fill="#591d17" fill-rule="evenodd" stroke="none"/>
    <path d="M26.95 15.6 L27.35 16.9 28.15 20.55 28.05 22.95 27.75 25.3 27.1 28.2 26.7 26.6 25.9 26.85 25.25 24.7 Q24.85 22.85 25.45 21.05 L26.05 19.4 24.55 16.95 25.3 16.05 26.95 15.6 M25.75 26.15 L26.8 25.9 27.05 25.8 26.35 25.45 25.95 25.65 25.75 26.15" fill="#644b3e" fill-rule="evenodd" stroke="none"/>
    <path d="M25.75 26.15 L26.35 25.45 27.05 25.8 26.8 25.9 25.75 26.15" fill="#f05f56" fill-rule="evenodd" stroke="none"/>
    <path d="M26.35 25.45 L25.75 26.15 25.95 25.65 26.35 25.45" fill="#d34d45" fill-rule="evenodd" stroke="none"/>
    <path d="M19.75 24.85 L20.5 24.85 20.15 24.15 20.95 21.9 22.25 22.65 23.35 20.25 24.4 20.15 25.0 21.45 25.45 21.05 Q24.85 22.85 25.25 24.7 L25.9 26.85 26.7 26.6 27.1 28.2 24.4 28.6 21.7 28.65 19.0 28.45 16.25 27.8 13.5 27.05 14.4 27.2 15.15 26.8 16.25 26.75 16.35 25.65 18.2 26.4 19.75 24.85" fill="#291c18" fill-rule="evenodd" stroke="none"/>
    <path d="M25.45 21.05 L25.0 19.85 26.05 19.4 25.45 21.05" fill="#28271d" fill-rule="evenodd" stroke="none"/>
    <path d="M21.65 18.75 L22.7 19.35 22.65 21.15 21.65 18.75" fill="#dc392a" fill-rule="evenodd" stroke="none"/>
    <path d="M19.75 24.85 L18.2 26.4 16.35 25.65 14.35 26.25 12.9 25.55 13.9 26.85 15.15 26.8 14.4 27.2 13.5 27.05 12.05 26.25 12.0 25.1 14.15 25.75 15.05 24.4 14.1 23.8 14.4 23.0 13.5 22.1 13.2 22.75 12.0 23.3 11.4 23.4 10.65 23.7 10.05 24.7 9.05 23.85 9.85 23.65 10.5 22.35 10.2 20.6 12.7 21.25 12.3 18.05 13.35 19.55 13.9 21.7 15.35 21.7 15.55 23.0 16.35 21.1 17.55 19.65 18.5 19.7 18.75 21.15 17.6 21.4 18.2 24.4 19.75 24.85" fill="#992a1f" fill-rule="evenodd" stroke="none"/>
    <path d="M15.45 20.35 L16.35 21.1 15.55 23.0 15.35 21.7 13.9 21.7 13.35 19.55 13.5 19.05 15.45 20.35" fill="#e6481a" fill-rule="evenodd" stroke="none"/>
    <path d="M16.35 25.65 L16.25 26.75 15.15 26.8 13.9 26.85 12.9 25.55 14.35 26.25 16.35 25.65" fill="#56150b" fill-rule="evenodd" stroke="none"/>
    <path d="M17.9 14.85 L18.1 14.4 18.55 14.2 19.4 15.45 19.2 15.85 17.75 15.35 17.9 15.2 17.9 14.85" fill="#7d1d19" fill-rule="evenodd" stroke="none"/>
    <path d="M14.7 15.8 L15.45 15.85 17.55 19.65 16.35 21.1 15.45 20.35 13.95 16.7 14.7 15.8" fill="#fde5cf" fill-rule="evenodd" stroke="none"/>
    <path d="M12.05 11.75 L15.45 14.55 17.9 14.85 17.9 15.2 17.75 15.35 15.95 14.95 15.55 14.95 15.05 14.75 14.75 14.55 13.65 13.55 12.05 11.75" fill="#7d2119" fill-rule="evenodd" stroke="none"/>
    <path d="M7.0 13.05 L6.9 12.55 7.6 12.35 7.25 11.4 7.85 10.1 8.6 8.9 12.05 11.75 13.65 13.55 14.7 14.55 15.0 14.8 15.15 14.95 13.8 15.05 12.55 16.7 14.7 15.8 13.95 16.7 13.25 18.65 13.5 19.05 13.35 19.55 12.3 18.05 9.25 17.2 9.65 15.2 7.0 13.05" fill="#c55434" fill-rule="evenodd" stroke="none"/>
    <path d="M15.6 15.0 L15.15 14.95 15.0 14.8 15.05 14.75 15.55 14.95 15.6 15.0" fill="#7d1406" fill-rule="evenodd" stroke="none"/>
    <path d="M14.75 14.55 L14.7 14.55 13.65 13.55 14.75 14.55" fill="#8b1c18" fill-rule="evenodd" stroke="none"/>
    <path d="M13.95 16.7 L15.45 20.35 13.5 19.05 13.25 18.65 13.95 16.7" fill="#f89d52" fill-rule="evenodd" stroke="none"/>
    <path d="M6.45 13.2 L7.0 13.05 9.65 15.2 9.25 17.2 12.3 18.05 12.7 21.25 10.2 20.6 10.0 21.3 10.5 22.35 9.85 23.65 9.05 23.85 8.0 22.95 6.1 20.9 4.6 18.6 3.4 16.15 2.45 13.5 2.2 12.7 2.2 12.65 2.05 6.8 2.95 7.05 3.1 8.5 4.55 10.4 Q4.55 11.5 4.95 12.3 5.35 13.05 5.9 13.05 L6.45 13.2 M2.85 10.9 L2.25 11.35 2.5 12.6 3.25 11.45 2.85 10.9 M6.95 14.5 L7.15 16.85 8.15 17.35 6.95 14.5" fill="#462920" fill-rule="evenodd" stroke="none"/>
    <path d="M10.5 22.35 L10.0 21.3 10.2 20.6 10.5 22.35" fill="#912411" fill-rule="evenodd" stroke="none"/>
    <path d="M13.35 22.9 L14.05 23.6 13.2 23.65 12.6 23.15 13.35 22.9" fill="#fee4c7" fill-rule="evenodd" stroke="none"/>
    <path d="M10.05 24.7 L10.65 23.7 11.15 25.55 10.05 24.7 M11.4 23.4 L12.0 23.3 13.2 23.65 14.05 23.6 13.35 22.9 13.2 22.75 13.5 22.1 14.4 23.0 14.1 23.8 15.05 24.4 14.15 25.75 12.0 25.1 11.4 23.4" fill="#f46129" fill-rule="evenodd" stroke="none"/>
    <path d="M10.65 23.7 L11.4 23.4 12.0 25.1 12.05 26.25 11.15 25.55 10.65 23.7 M12.0 23.3 L13.2 22.75 13.35 22.9 12.6 23.15 13.2 23.65 12.0 23.3" fill="#fbb387" fill-rule="evenodd" stroke="none"/>
    <path d="M11.75 5.4 L11.5 4.3 10.25 5.1 10.85 3.75 12.05 3.9 11.75 5.4" fill="#d1615b" fill-rule="evenodd" stroke="none"/>
    <path d="M11.75 5.4 L11.55 6.0 10.8 5.85 10.25 5.1 11.5 4.3 11.75 5.4" fill="#ef7976" fill-rule="evenodd" stroke="none"/>
    <path d="M7.85 10.1 L8.1 8.55 8.6 8.9 7.85 10.1" fill="#81332a" fill-rule="evenodd" stroke="none"/>
    <path d="M5.6 7.95 L6.45 13.2 5.9 13.05 4.55 10.4 4.85 9.15 5.6 7.95" fill="#b4b1a4" fill-rule="evenodd" stroke="none"/>
    <path d="M6.9 12.55 L7.25 11.4 7.6 12.35 6.9 12.55" fill="#ce7968" fill-rule="evenodd" stroke="none"/>
    <path d="M5.9 13.05 Q5.35 13.05 4.95 12.3 4.55 11.5 4.55 10.4 L5.9 13.05" fill="#7c7972" fill-rule="evenodd" stroke="none"/>
    <path d="M2.2 12.7 L2.45 13.5 2.2 12.7" fill="#756d56" fill-rule="evenodd" stroke="none"/>
    <path d="M6.95 14.5 L8.15 17.35 7.15 16.85 6.95 14.5" fill="#62443e" fill-rule="evenodd" stroke="none"/>
    <path d="M2.35 4.05 L2.4 3.65 2.45 3.75 4.4 7.25 4.3 7.75 4.85 9.15 4.55 10.4 3.1 8.5 2.95 7.05 2.05 6.8 2.35 4.05" fill="#504b40" fill-rule="evenodd" stroke="none"/>
    <path d="M2.2 12.65 L2.2 12.7 2.2 12.65 M2.85 10.9 L3.25 11.45 2.5 12.6 2.25 11.35 2.85 10.9" fill="#99372d" fill-rule="evenodd" stroke="none"/>
  </g>
</svg>
