<?xml version="1.0" encoding="UTF-8" standalone="no"?>
<svg xmlns:ffdec="https://www.free-decompiler.com/flash" xmlns:xlink="http://www.w3.org/1999/xlink" ffdec:objectType="shape" height="23.2px" width="27.75px" xmlns="http://www.w3.org/2000/svg">
  <g transform="matrix(1.0, 0.0, 0.0, 1.0, -1.3, -3.65)">
    <path d="M20.15 4.55 L20.65 5.25 18.9 6.5 18.7 6.85 12.55 7.75 16.3 4.05 12.2 3.65 19.25 3.65 18.8 3.95 20.05 4.0 20.15 4.55" fill="#a2a189" fill-rule="evenodd" stroke="none"/>
    <path d="M10.85 3.8 L12.2 3.65 16.3 4.05 12.55 7.75 9.65 8.3 8.1 6.85 9.3 6.3 Q9.95 6.3 10.4 5.85 L10.85 4.7 11.35 4.6 11.55 4.25 11.35 3.95 10.85 3.8" fill="#f6f7ea" fill-rule="evenodd" stroke="none"/>
    <path d="M19.05 6.85 L20.6 9.35 20.75 16.3 15.65 15.55 19.7 14.55 9.15 14.6 8.3 12.75 8.1 12.4 8.45 11.7 6.95 10.4 8.1 9.7 9.65 8.3 12.55 7.75 18.7 6.85 19.05 6.85" fill="#4a5125" fill-rule="evenodd" stroke="none"/>
    <path d="M21.95 4.15 L21.9 4.65 Q21.55 7.0 19.05 6.65 L18.9 6.5 20.65 5.25 20.15 4.55 21.25 4.0 21.95 4.15 M19.25 3.65 L19.9 3.65 20.05 4.0 18.8 3.95 19.25 3.65" fill="#f5f7e9" fill-rule="evenodd" stroke="none"/>
    <path d="M18.9 6.5 L19.05 6.65 19.05 6.85 18.7 6.85 18.9 6.5" fill="#e7e2da" fill-rule="evenodd" stroke="none"/>
    <path d="M19.05 6.65 Q21.55 7.0 21.9 4.65 L21.95 4.15 24.5 5.25 23.65 5.8 24.5 7.2 24.7 7.4 27.25 8.1 26.4 13.45 25.2 13.3 24.7 12.2 25.6 12.3 Q25.95 11.15 25.05 10.45 24.95 10.4 24.35 11.0 L23.2 12.15 22.45 10.4 20.6 9.35 19.05 6.85 19.05 6.65 M28.6 11.2 L29.0 13.25 28.95 13.45 28.25 15.05 28.1 15.05 28.6 11.2 M23.55 8.65 L23.6 7.3 23.3 7.35 Q23.4 8.75 23.55 8.65 M24.0 14.0 L23.45 12.7 24.7 12.2 24.0 14.0" fill="#bbbb9e" fill-rule="evenodd" stroke="none"/>
    <path d="M24.7 7.4 L24.5 7.2 24.5 5.25 25.2 5.6 24.7 7.4" fill="#d0d2a9" fill-rule="evenodd" stroke="none"/>
    <path d="M27.25 8.1 L24.7 7.4 25.2 5.6 27.25 7.9 27.25 8.1" fill="#f4f4ea" fill-rule="evenodd" stroke="none"/>
    <path d="M21.25 4.0 L20.15 4.55 20.05 4.0 19.9 3.65 21.25 4.0" fill="#dadbaf" fill-rule="evenodd" stroke="none"/>
    <path d="M20.6 9.35 L22.45 10.4 23.2 12.15 22.2 13.15 23.45 12.7 24.0 14.0 24.5 13.65 24.7 14.2 24.8 15.75 24.75 15.8 24.8 16.5 24.85 16.85 24.8 17.2 Q25.0 17.45 25.5 17.55 L25.85 17.55 27.75 18.3 27.25 19.55 27.05 19.55 26.05 19.35 26.4 19.9 25.0 19.35 24.6 18.9 Q24.1 18.9 23.65 19.35 L22.95 19.2 21.95 20.45 18.7 20.8 18.0 20.6 17.65 21.5 17.5 21.7 12.55 20.45 12.75 19.85 13.25 19.55 13.4 19.7 15.25 19.85 13.75 19.35 13.1 14.9 8.8 15.05 8.3 12.75 9.15 14.6 19.7 14.55 15.65 15.55 20.75 16.3 20.6 9.35 M23.3 18.1 Q23.35 14.5 22.45 16.55 L22.25 17.0 Q22.1 17.45 22.3 18.1 L19.9 18.3 23.3 18.1 M19.9 18.3 L19.9 16.45 17.85 16.45 17.85 18.4 19.9 18.4 19.9 18.3 M20.0 19.35 Q18.0 20.9 20.85 19.35 20.25 19.15 20.0 19.35" fill="#6d6f30" fill-rule="evenodd" stroke="none"/>
    <path d="M23.55 8.65 Q23.4 8.75 23.3 7.35 L23.6 7.3 23.55 8.65" fill="#fafbf0" fill-rule="evenodd" stroke="none"/>
    <path d="M23.2 12.15 L24.35 11.0 Q24.95 10.4 25.05 10.45 25.95 11.15 25.6 12.3 L24.7 12.2 25.2 13.3 24.5 13.65 24.0 14.0 24.7 12.2 23.45 12.7 22.2 13.15 23.2 12.15" fill="#f0f0e5" fill-rule="evenodd" stroke="none"/>
    <path d="M26.4 13.45 L27.25 8.1 27.25 7.9 28.6 11.2 28.1 15.05 26.55 13.8 26.4 13.45 M24.5 7.2 L23.65 5.8 24.5 5.25 24.5 7.2" fill="#f5f5ed" fill-rule="evenodd" stroke="none"/>
    <path d="M25.2 13.3 L26.4 13.45 26.55 13.8 26.4 14.0 25.0 14.9 24.7 14.2 24.5 13.65 25.2 13.3" fill="#979146" fill-rule="evenodd" stroke="none"/>
    <path d="M26.4 14.0 L26.7 15.8 25.0 14.9 26.4 14.0 M24.8 15.75 L25.0 15.6 24.8 16.5 24.75 15.8 24.8 15.75" fill="#f8f8ef" fill-rule="evenodd" stroke="none"/>
    <path d="M28.25 15.05 L28.95 13.45 28.1 17.55 28.25 15.05 M27.75 18.3 L28.05 17.85 27.55 20.05 27.25 20.05 27.25 19.55 27.75 18.3" fill="#eeece3" fill-rule="evenodd" stroke="none"/>
    <path d="M25.85 17.55 Q26.35 14.15 26.6 17.2 26.6 17.35 25.85 17.55" fill="#f8faf4" fill-rule="evenodd" stroke="none"/>
    <path d="M28.1 15.05 L28.25 15.05 28.1 17.55 28.05 17.85 27.75 18.3 25.85 17.55 25.5 17.55 24.85 16.85 24.8 16.5 25.0 15.6 24.8 15.75 24.7 14.2 25.0 14.9 26.7 15.8 26.4 14.0 26.55 13.8 28.1 15.05 M25.85 17.55 Q26.6 17.35 26.6 17.2 26.35 14.15 25.85 17.55" fill="#c1cf77" fill-rule="evenodd" stroke="none"/>
    <path d="M26.4 19.9 L26.05 19.35 27.05 19.55 26.4 19.9" fill="#ede7e4" fill-rule="evenodd" stroke="none"/>
    <path d="M27.25 20.45 L27.25 20.05 27.55 20.05 27.25 20.45" fill="#a4aa63" fill-rule="evenodd" stroke="none"/>
    <path d="M25.2 20.25 L26.55 20.05 26.2 20.95 25.2 20.25 M26.2 21.15 L26.15 21.55 25.55 22.1 25.0 22.2 26.2 21.15" fill="#f3f1e9" fill-rule="evenodd" stroke="none"/>
    <path d="M25.0 19.35 L26.4 19.9 27.05 19.55 27.25 19.55 27.25 20.05 27.25 20.45 26.15 21.55 26.2 21.15 26.2 20.95 26.55 20.05 25.2 20.25 25.0 19.35 M22.95 24.0 Q22.95 23.25 23.55 22.75 24.15 22.2 25.0 22.2 L25.55 22.1 23.15 24.55 22.95 24.0" fill="#a7a754" fill-rule="evenodd" stroke="none"/>
    <path d="M23.65 19.35 Q24.1 18.9 24.6 18.9 L25.0 19.35 25.2 20.25 26.2 20.95 26.2 21.15 25.0 22.2 Q24.15 22.2 23.55 22.75 22.95 23.25 22.95 24.0 L22.1 24.35 22.1 22.6 21.95 20.45 22.95 19.2 23.9 20.3 23.65 19.35" fill="#585913" fill-rule="evenodd" stroke="none"/>
    <path d="M22.3 18.1 Q22.1 17.45 22.25 17.0 L22.45 16.55 Q23.35 14.5 23.3 18.1 L22.3 18.1" fill="#afaa3f" fill-rule="evenodd" stroke="none"/>
    <path d="M19.9 18.3 L19.9 18.4 17.85 18.4 17.85 16.45 19.9 16.45 19.9 18.3" fill="#9ea24c" fill-rule="evenodd" stroke="none"/>
    <path d="M22.3 18.1 L23.3 18.1 19.9 18.3 22.3 18.1" fill="#494c08" fill-rule="evenodd" stroke="none"/>
    <path d="M20.0 19.35 Q20.25 19.15 20.85 19.35 18.0 20.9 20.0 19.35" fill="#918c22" fill-rule="evenodd" stroke="none"/>
    <path d="M24.85 16.85 L25.5 17.55 Q25.0 17.45 24.8 17.2 L24.85 16.85" fill="#4c550c" fill-rule="evenodd" stroke="none"/>
    <path d="M8.3 12.75 L8.8 15.05 13.1 14.9 12.35 15.75 Q10.4 16.55 8.8 15.05 L8.1 12.4 8.3 12.75" fill="#767e53" fill-rule="evenodd" stroke="none"/>
    <path d="M13.1 14.9 L13.75 19.35 13.4 19.7 13.25 19.55 13.25 19.35 6.45 14.1 6.95 11.85 8.45 11.7 8.1 12.4 8.8 15.05 Q10.4 16.55 12.35 15.75 L13.1 14.9" fill="#989e7a" fill-rule="evenodd" stroke="none"/>
    <path d="M4.6 23.05 L4.4 22.95 4.7 22.4 6.6 21.5 7.45 17.95 7.65 18.25 7.25 17.4 7.0 16.5 6.75 15.45 6.45 14.1 13.25 19.35 9.65 18.85 8.8 20.6 8.65 21.15 8.3 24.9 4.6 23.05" fill="#c4c4ae" fill-rule="evenodd" stroke="none"/>
    <path d="M13.25 19.55 L12.75 19.85 12.55 20.45 8.8 20.6 9.65 18.85 13.25 19.35 13.25 19.55" fill="#8a8852" fill-rule="evenodd" stroke="none"/>
    <path d="M13.75 19.35 L15.25 19.85 13.4 19.7 13.75 19.35" fill="#4a420d" fill-rule="evenodd" stroke="none"/>
    <path d="M18.35 21.3 Q19.2 21.25 19.7 21.7 L19.6 21.8 Q18.9 22.2 18.05 22.05 L18.2 21.7 18.35 21.3" fill="#95964a" fill-rule="evenodd" stroke="none"/>
    <path d="M18.05 22.05 L17.65 21.5 18.2 21.7 18.05 22.05" fill="#f8f4ee" fill-rule="evenodd" stroke="none"/>
    <path d="M18.7 20.8 L18.35 21.3 18.0 20.6 18.7 20.8" fill="#f5f2e9" fill-rule="evenodd" stroke="none"/>
    <path d="M21.95 20.45 L20.4 23.45 18.9 23.85 18.2 22.95 17.5 21.7 17.65 21.5 18.05 22.05 Q18.9 22.2 19.6 21.8 L19.7 21.7 Q19.2 21.25 18.35 21.3 L18.7 20.8 21.95 20.45 M18.0 20.6 L18.35 21.3 18.2 21.7 17.65 21.5 18.0 20.6" fill="#f8f7f3" fill-rule="evenodd" stroke="none"/>
    <path d="M17.5 21.7 L18.2 22.95 18.2 24.55 18.35 25.25 15.85 25.15 15.15 21.7 15.5 25.15 13.1 25.1 13.1 23.3 10.65 22.3 10.95 22.95 Q10.4 23.4 9.5 23.45 L8.65 21.15 8.8 20.6 12.55 20.45 17.5 21.7" fill="#514915" fill-rule="evenodd" stroke="none"/>
    <path d="M29.0 13.25 Q29.15 16.1 28.4 18.9 27.0 23.95 22.05 25.7 17.65 27.4 13.05 26.6 8.3 26.05 4.6 23.05 L8.3 24.9 9.4 25.25 11.55 25.8 18.35 25.95 20.05 25.6 21.6 25.1 23.15 24.55 25.55 22.1 26.15 21.55 27.25 20.45 27.55 20.05 28.05 17.85 28.1 17.55 28.95 13.45 29.0 13.25 M4.2 22.75 L3.4 22.0 4.05 22.2 4.05 22.6 4.2 22.75 M1.45 12.85 L1.65 11.95 1.65 12.05 1.45 12.85 M2.9 9.3 L4.05 7.45 4.05 7.55 3.35 8.65 2.9 9.3 M15.5 25.15 L15.15 21.7 15.85 25.15 15.5 25.15" fill="#342e0c" fill-rule="evenodd" stroke="none"/>
    <path d="M18.2 22.95 L18.9 23.85 18.55 24.35 18.2 24.55 18.2 22.95" fill="#d9d5a0" fill-rule="evenodd" stroke="none"/>
    <path d="M18.9 23.85 L20.4 23.45 19.45 24.65 21.25 24.9 21.6 25.1 20.05 25.6 18.35 25.95 11.55 25.8 13.1 25.1 15.5 25.15 15.85 25.15 18.35 25.25 19.0 25.2 19.45 24.9 19.3 24.55 18.55 24.35 18.9 23.85" fill="#a4ae5a" fill-rule="evenodd" stroke="none"/>
    <path d="M8.65 21.15 L9.5 23.45 Q10.4 23.4 10.95 22.95 L10.65 22.3 13.1 23.3 9.4 25.25 8.3 24.9 8.65 21.15" fill="#9d943d" fill-rule="evenodd" stroke="none"/>
    <path d="M13.1 23.3 L13.1 25.1 11.55 25.8 9.4 25.25 13.1 23.3" fill="#e4e592" fill-rule="evenodd" stroke="none"/>
    <path d="M18.35 25.25 L18.2 24.55 18.55 24.35 19.3 24.55 19.45 24.9 19.0 25.2 18.35 25.25" fill="#83892c" fill-rule="evenodd" stroke="none"/>
    <path d="M22.95 19.2 L23.65 19.35 23.9 20.3 22.95 19.2" fill="#e3e1cf" fill-rule="evenodd" stroke="none"/>
    <path d="M21.95 20.45 L22.1 22.6 22.1 24.35 21.25 24.9 19.45 24.65 20.4 23.45 21.95 20.45" fill="#7b8531" fill-rule="evenodd" stroke="none"/>
    <path d="M22.1 24.35 L22.95 24.0 23.15 24.55 21.6 25.1 21.25 24.9 22.1 24.35" fill="#c3cc71" fill-rule="evenodd" stroke="none"/>
    <path d="M4.7 7.9 L4.9 8.3 4.35 8.85 Q3.5 10.4 3.35 8.65 L4.05 7.55 4.7 7.9" fill="#d7dfb2" fill-rule="evenodd" stroke="none"/>
    <path d="M4.05 7.45 L10.85 3.8 11.35 3.95 11.55 4.25 11.35 4.6 10.85 4.7 8.2 5.75 9.3 6.3 8.1 6.85 9.65 8.3 8.1 9.7 7.1 9.7 5.4 8.1 5.4 7.2 4.7 7.9 4.05 7.55 4.05 7.45" fill="#bdbc9b" fill-rule="evenodd" stroke="none"/>
    <path d="M1.65 11.85 L1.8 11.3 2.65 10.7 2.15 10.6 2.9 9.3 3.35 8.65 Q3.5 10.4 4.35 8.85 L4.9 8.3 5.4 8.1 7.1 9.7 3.7 12.05 2.55 11.45 2.85 11.85 1.65 11.85" fill="#a6a784" fill-rule="evenodd" stroke="none"/>
    <path d="M4.9 8.3 L4.7 7.9 5.4 7.2 5.4 8.1 4.9 8.3" fill="#f6f8f4" fill-rule="evenodd" stroke="none"/>
    <path d="M10.85 4.7 L10.4 5.85 Q9.95 6.3 9.3 6.3 L8.2 5.75 10.85 4.7" fill="#e6f4be" fill-rule="evenodd" stroke="none"/>
    <path d="M3.4 22.0 L3.15 21.7 1.3 16.3 3.35 15.05 Q5.35 16.45 4.55 14.45 L3.5 14.55 3.7 12.05 7.1 9.7 8.1 9.7 6.95 10.4 8.45 11.7 6.95 11.85 6.45 14.1 6.75 15.45 6.7 16.6 4.05 22.2 3.4 22.0" fill="#676020" fill-rule="evenodd" stroke="none"/>
    <path d="M3.5 14.55 L4.55 14.45 Q5.35 16.45 3.35 15.05 L3.5 14.55" fill="#a29e37" fill-rule="evenodd" stroke="none"/>
    <path d="M6.75 15.45 L7.0 16.5 6.7 16.6 6.75 15.45" fill="#3e351d" fill-rule="evenodd" stroke="none"/>
    <path d="M7.0 16.5 L7.25 17.4 7.25 17.75 6.6 21.5 4.7 22.4 4.05 22.6 4.05 22.2 6.7 16.6 7.0 16.5" fill="#8f8b69" fill-rule="evenodd" stroke="none"/>
    <path d="M7.45 17.95 L6.6 21.5 7.25 17.75 7.45 17.95" fill="#a8a38f" fill-rule="evenodd" stroke="none"/>
    <path d="M7.25 17.4 L7.65 18.25 7.45 17.95 7.25 17.75 7.25 17.4" fill="#f4f4f0" fill-rule="evenodd" stroke="none"/>
    <path d="M1.3 16.3 L1.3 15.6 1.8 13.45 1.8 13.3 2.55 12.9 2.85 11.85 2.55 11.45 3.7 12.05 3.5 14.55 3.35 15.05 1.3 16.3" fill="#9fa855" fill-rule="evenodd" stroke="none"/>
    <path d="M1.8 11.3 L2.15 10.6 2.65 10.7 1.8 11.3" fill="#edf6e8" fill-rule="evenodd" stroke="none"/>
    <path d="M1.65 11.95 L1.65 11.85 2.85 11.85 2.55 12.9 1.8 13.3 1.65 12.05 1.65 11.95" fill="#f2f5e7" fill-rule="evenodd" stroke="none"/>
    <path d="M1.3 13.65 L1.45 12.85 1.65 12.05 1.8 13.3 1.8 13.45 1.3 13.65" fill="#abb38d" fill-rule="evenodd" stroke="none"/>
    <path d="M1.3 15.6 L1.3 13.65 1.8 13.45 1.3 15.6" fill="#58621a" fill-rule="evenodd" stroke="none"/>
    <path d="M4.4 22.95 L4.2 22.75 4.05 22.6 4.7 22.4 4.4 22.95" fill="#bab394" fill-rule="evenodd" stroke="none"/>
  </g>
</svg>
