<?xml version="1.0" encoding="UTF-8" standalone="no"?>
<svg xmlns:ffdec="https://www.free-decompiler.com/flash" xmlns:xlink="http://www.w3.org/1999/xlink" ffdec:objectType="shape" height="153.3px" width="98.35px" xmlns="http://www.w3.org/2000/svg">
  <g transform="matrix(1.0, 0.0, 0.0, 1.0, -3.9, -1.25)">
    <path d="M101.7 154.15 L102.25 154.55 101.2 154.55 101.7 154.15" fill="#e8e5df" fill-rule="evenodd" stroke="none"/>
    <path d="M20.15 3.15 Q21.6 4.55 22.65 6.3 L24.4 9.95 25.05 11.95 25.45 13.75 25.45 13.95 25.75 17.8 21.2 25.85 20.2 26.05 19.2 26.65 14.8 28.25 13.95 28.2 Q11.75 28.0 10.1 26.65 L6.9 23.6 Q5.55 22.1 4.75 20.25 L4.5 19.35 Q3.95 17.2 3.9 15.0 3.85 12.8 4.3 10.6 4.7 8.65 5.75 6.85 6.7 5.2 8.15 3.95 9.65 2.55 11.65 1.85 13.8 1.0 16.1 1.35 18.4 1.65 20.15 3.15 M8.55 17.25 L9.35 16.4 7.75 16.4 8.55 17.25 M13.65 4.9 L13.65 3.75 11.25 3.6 10.75 4.15 9.75 4.9 Q9.5 5.35 9.75 5.8 10.25 6.8 9.3 6.9 L8.5 9.1 6.65 9.65 6.85 11.45 7.3 12.25 Q8.35 13.6 10.15 12.7 11.75 13.8 11.5 12.7 L13.5 11.15 12.9 9.35 13.4 9.25 Q13.9 9.15 13.45 8.95 L13.1 8.75 12.95 6.5 13.65 4.9 M9.1 13.45 L9.6 15.3 10.4 14.45 10.1 13.45 9.1 13.45" fill="#dcddd0" fill-rule="evenodd" stroke="none"/>
    <path d="M13.65 4.9 L12.95 6.5 13.1 8.75 13.45 8.95 Q13.9 9.15 13.4 9.25 L12.9 9.35 13.5 11.15 11.5 12.7 Q11.75 13.8 10.15 12.7 8.35 13.6 7.3 12.25 L6.85 11.45 6.65 9.65 8.5 9.1 9.3 6.9 Q10.25 6.8 9.75 5.8 9.5 5.35 9.75 4.9 L10.75 4.15 11.25 3.6 13.65 3.75 13.65 4.9 M8.55 17.25 L7.75 16.4 9.35 16.4 8.55 17.25" fill="#fdfdfd" fill-rule="evenodd" stroke="none"/>
    <path d="M25.45 13.75 L25.05 11.95 24.4 9.95 22.65 6.3 Q21.6 4.55 20.15 3.15 21.95 4.45 23.15 6.3 24.2 7.95 24.9 9.75 L25.55 11.6 25.55 11.65 25.45 13.8 25.45 13.75" fill="#b4aa92" fill-rule="evenodd" stroke="none"/>
    <path d="M25.45 13.8 L25.55 11.65 26.3 16.45 25.75 17.8 25.45 13.95 25.45 13.8" fill="#71634f" fill-rule="evenodd" stroke="none"/>
    <path d="M25.45 13.75 L25.45 13.8 25.45 13.95 25.45 13.75" fill="#b0a58e" fill-rule="evenodd" stroke="none"/>
    <path d="M4.75 20.25 Q5.55 22.1 6.9 23.6 L10.1 26.65 Q11.75 28.0 13.95 28.2 L14.8 28.25 19.2 26.65 20.2 26.05 21.2 25.85 25.75 17.8 26.3 16.45 Q26.1 18.3 25.5 20.0 L24.65 22.05 22.7 25.4 21.45 26.65 18.55 28.4 Q16.75 29.2 15.0 28.95 L14.2 28.9 Q11.8 28.5 10.0 27.15 8.2 25.8 6.9 24.15 5.5 22.35 4.75 20.25" fill="#c2ad8f" fill-rule="evenodd" stroke="none"/>
    <path d="M9.1 13.45 L10.1 13.45 10.4 14.45 9.6 15.3 9.1 13.45" fill="#fefdfa" fill-rule="evenodd" stroke="none"/>
  </g>
</svg>
