<?xml version="1.0" encoding="UTF-8" standalone="no"?>
<svg xmlns:ffdec="https://www.free-decompiler.com/flash" xmlns:xlink="http://www.w3.org/1999/xlink" ffdec:objectType="shape" height="27.45px" width="27.6px" xmlns="http://www.w3.org/2000/svg">
  <g transform="matrix(1.0, 0.0, 0.0, 1.0, -1.05, -1.35)">
    <path d="M24.45 4.45 L26.85 8.4 26.3 8.2 25.75 7.7 25.6 6.7 25.1 6.05 Q24.75 5.9 24.5 6.3 24.25 6.65 24.15 7.4 L23.9 7.4 23.9 5.8 24.45 4.45 M27.4 9.3 L27.75 9.85 27.6 9.8 27.4 9.3 M27.9 10.2 L28.2 12.95 27.6 10.6 27.35 10.35 27.9 10.2" fill="#c5bcbc" fill-rule="evenodd" stroke="none"/>
    <path d="M8.55 27.4 L6.5 25.9 7.9 26.5 7.1 25.0 8.05 23.6 6.6 23.15 6.2 20.85 6.05 23.65 3.55 22.6 2.3 20.55 5.5 18.6 5.2 14.95 4.65 17.3 3.1 15.95 5.8 13.8 6.2 13.7 6.35 13.4 6.2 13.15 5.8 13.0 6.7 12.35 5.35 12.1 5.0 13.0 1.05 15.75 2.25 8.5 2.75 7.95 5.75 9.7 5.2 5.55 6.85 3.55 15.1 1.35 15.9 2.35 Q15.9 3.25 16.7 3.9 17.45 4.5 18.55 4.5 L18.8 5.0 20.7 8.5 18.55 8.2 18.8 9.0 12.45 8.2 11.65 8.5 10.75 8.3 11.6 9.15 12.45 8.5 11.65 10.6 9.1 11.45 11.65 11.4 11.9 12.5 11.2 12.75 8.25 13.1 9.75 17.0 12.95 18.6 12.95 18.9 10.3 22.05 10.55 23.4 9.0 24.45 9.5 25.25 9.7 26.45 9.0 27.25 8.55 27.4 M15.0 2.05 L14.6 1.95 14.2 2.05 14.05 2.3 14.2 2.55 14.6 2.65 15.0 2.55 15.15 2.3 15.0 2.05" fill="#2f4f90" fill-rule="evenodd" stroke="none"/>
    <path d="M15.0 2.05 L15.15 2.3 15.0 2.55 14.6 2.65 14.2 2.55 14.05 2.3 14.2 2.05 14.6 1.95 15.0 2.05" fill="#6075b0" fill-rule="evenodd" stroke="none"/>
    <path d="M15.1 1.35 L21.55 2.7 22.3 4.5 18.8 5.0 18.55 4.5 19.1 3.15 15.9 2.35 15.1 1.35" fill="#5c7fb2" fill-rule="evenodd" stroke="none"/>
    <path d="M15.9 2.35 L19.1 3.15 18.55 4.5 Q17.45 4.5 16.7 3.9 15.9 3.25 15.9 2.35" fill="#4671b9" fill-rule="evenodd" stroke="none"/>
    <path d="M2.25 8.5 L3.9 6.65 2.75 7.95 2.25 8.5" fill="#c3c9dc" fill-rule="evenodd" stroke="none"/>
    <path d="M12.45 8.2 L12.45 8.5 11.6 9.15 10.75 8.3 11.65 8.5 12.45 8.2" fill="#061c58" fill-rule="evenodd" stroke="none"/>
    <path d="M20.95 17.55 L11.2 12.75 11.9 12.5 11.65 11.4 11.65 10.6 12.45 8.5 12.45 8.2 18.8 9.0 20.95 10.1 22.55 15.15 22.4 15.55 22.0 15.7 21.15 15.4 19.7 16.1 21.5 15.95 21.5 16.2 20.6 16.8 20.95 17.55 M20.15 14.1 L17.25 14.1 18.7 15.1 20.15 14.1" fill="#96abc7" fill-rule="evenodd" stroke="none"/>
    <path d="M22.8 4.2 L23.8 4.3 23.9 5.8 23.9 7.4 22.55 9.0 20.7 8.5 18.8 5.0 22.3 4.5 22.8 4.2" fill="#e6f0f7" fill-rule="evenodd" stroke="none"/>
    <path d="M20.7 8.5 L22.55 9.0 22.8 9.3 22.0 10.1 20.95 10.1 18.8 9.0 18.55 8.2 20.7 8.5" fill="#4b6ba8" fill-rule="evenodd" stroke="none"/>
    <path d="M22.5 3.2 L24.45 4.45 23.9 5.8 23.8 4.3 22.8 4.2 22.5 3.2" fill="#cbced8" fill-rule="evenodd" stroke="none"/>
    <path d="M21.55 2.7 L22.5 3.2 22.8 4.2 22.3 4.5 21.55 2.7" fill="#a6c2e1" fill-rule="evenodd" stroke="none"/>
    <path d="M22.55 9.0 L23.9 7.4 24.15 7.4 24.15 7.7 24.15 8.5 24.15 9.3 23.35 9.3 22.8 9.3 22.55 9.0" fill="#b5c8e5" fill-rule="evenodd" stroke="none"/>
    <path d="M24.15 7.7 L24.15 7.4 Q24.25 6.65 24.5 6.3 24.75 5.9 25.1 6.05 L25.6 6.7 25.75 7.7 24.7 7.7 24.15 7.7" fill="#6e748d" fill-rule="evenodd" stroke="none"/>
    <path d="M26.85 8.4 L27.1 8.5 26.25 9.65 26.8 9.55 27.35 10.35 27.6 10.6 26.3 11.15 24.15 8.5 24.15 7.7 24.7 7.7 26.3 8.2 26.85 8.4 M28.65 16.75 L25.6 23.65 25.85 23.05 26.3 22.05 25.75 19.95 26.2 15.65 22.55 17.8 22.8 16.5 24.4 15.4 25.75 14.9 26.8 14.1 27.6 14.9 27.25 16.85 27.6 17.2 28.65 16.75 M24.5 24.8 L23.6 25.6 Q19.85 28.8 14.9 28.8 L15.05 28.3 24.5 24.8 M23.35 9.3 L23.1 10.1 22.0 10.1 22.8 9.3 23.35 9.3" fill="#20396a" fill-rule="evenodd" stroke="none"/>
    <path d="M23.35 9.3 L24.15 9.3 24.9 9.7 23.1 10.1 23.35 9.3" fill="#718ec3" fill-rule="evenodd" stroke="none"/>
    <path d="M24.15 9.3 L24.15 8.5 26.3 11.15 26.8 14.1 25.75 14.9 24.7 14.6 24.4 15.4 22.8 16.5 22.55 15.15 20.95 10.1 22.0 10.1 23.1 10.1 24.9 9.7 24.15 9.3 M25.8 13.75 L26.05 13.05 25.8 12.4 Q25.5 12.1 25.1 12.1 24.7 12.1 24.45 12.4 24.15 12.65 24.15 13.05 24.15 13.45 24.45 13.75 L25.1 14.0 25.8 13.75" fill="#3b5c9f" fill-rule="evenodd" stroke="none"/>
    <path d="M25.75 7.7 L26.3 8.2 24.7 7.7 25.75 7.7" fill="#7783a5" fill-rule="evenodd" stroke="none"/>
    <path d="M27.1 8.5 L27.4 9.3 27.6 9.8 26.8 9.55 26.25 9.65 27.1 8.5" fill="#5a72a7" fill-rule="evenodd" stroke="none"/>
    <path d="M27.75 9.85 L27.9 10.2 27.35 10.35 26.8 9.55 27.6 9.8 27.75 9.85" fill="#a5bdf4" fill-rule="evenodd" stroke="none"/>
    <path d="M28.2 12.95 L28.4 13.8 27.6 14.9 26.8 14.1 26.3 11.15 27.6 10.6 28.2 12.95" fill="#719dc8" fill-rule="evenodd" stroke="none"/>
    <path d="M25.8 13.75 L25.1 14.0 24.45 13.75 Q24.15 13.45 24.15 13.05 24.15 12.65 24.45 12.4 24.7 12.1 25.1 12.1 25.5 12.1 25.8 12.4 L26.05 13.05 25.8 13.75" fill="#6996d1" fill-rule="evenodd" stroke="none"/>
    <path d="M24.4 15.4 L24.7 14.6 25.75 14.9 24.4 15.4" fill="#aed1f4" fill-rule="evenodd" stroke="none"/>
    <path d="M28.4 13.8 L28.65 16.75 27.6 17.2 27.25 16.85 27.6 14.9 28.4 13.8" fill="#88a8dc" fill-rule="evenodd" stroke="none"/>
    <path d="M22.0 15.7 L21.5 15.95 19.7 16.1 21.15 15.4 22.0 15.7" fill="#c4cdd4" fill-rule="evenodd" stroke="none"/>
    <path d="M20.95 17.55 L21.7 17.25 21.5 16.2 21.5 15.95 22.0 15.7 22.4 15.55 22.55 15.15 22.8 16.5 22.55 17.8 22.55 18.1 22.05 19.45 18.3 20.75 17.75 20.5 15.35 18.6 14.55 18.1 14.35 17.15 12.95 18.6 9.75 17.0 8.25 13.1 11.2 12.75 20.95 17.55" fill="#7791b3" fill-rule="evenodd" stroke="none"/>
    <path d="M25.6 23.65 L24.5 24.8 15.05 28.3 Q15.05 27.05 13.45 26.15 11.8 25.25 9.5 25.25 L9.0 24.45 10.55 23.4 10.85 22.55 10.3 22.05 12.95 18.9 13.3 20.05 14.05 18.9 14.45 19.5 15.35 18.6 17.75 20.5 18.05 21.25 18.3 20.75 22.05 19.45 23.1 19.7 22.55 18.1 22.55 17.8 26.2 15.65 25.75 19.95 25.2 22.35 25.4 22.85 Q25.6 23.05 25.85 23.05 L25.6 23.65 M12.15 21.55 L13.75 24.2 16.45 23.15 12.15 21.55" fill="#44609d" fill-rule="evenodd" stroke="none"/>
    <path d="M21.5 16.2 L21.7 17.25 20.95 17.55 20.6 16.8 21.5 16.2" fill="#233b65" fill-rule="evenodd" stroke="none"/>
    <path d="M22.05 19.45 L22.55 18.1 23.1 19.7 22.05 19.45" fill="#092978" fill-rule="evenodd" stroke="none"/>
    <path d="M26.3 22.05 L25.2 22.35 25.75 19.95 26.3 22.05" fill="#bee9f7" fill-rule="evenodd" stroke="none"/>
    <path d="M25.85 23.05 Q25.6 23.05 25.4 22.85 L25.2 22.35 26.3 22.05 25.85 23.05" fill="#7289b9" fill-rule="evenodd" stroke="none"/>
    <path d="M20.15 14.1 L18.7 15.1 17.25 14.1 20.15 14.1" fill="#646e78" fill-rule="evenodd" stroke="none"/>
    <path d="M11.65 10.6 L11.65 11.4 9.1 11.45 11.65 10.6" fill="#061644" fill-rule="evenodd" stroke="none"/>
    <path d="M14.55 18.1 L15.35 18.6 14.45 19.5 14.05 18.9 14.55 18.1 M17.75 20.5 L18.3 20.75 18.05 21.25 17.75 20.5" fill="#233a5c" fill-rule="evenodd" stroke="none"/>
    <path d="M12.95 18.6 L14.35 17.15 14.55 18.1 14.05 18.9 13.3 20.05 12.95 18.9 12.95 18.6" fill="#8ba2bc" fill-rule="evenodd" stroke="none"/>
    <path d="M10.55 23.4 L10.3 22.05 10.85 22.55 10.55 23.4" fill="#a0cbf4" fill-rule="evenodd" stroke="none"/>
    <path d="M12.15 21.55 L16.45 23.15 13.75 24.2 12.15 21.55" fill="#1e3670" fill-rule="evenodd" stroke="none"/>
    <path d="M14.9 28.8 L12.85 28.75 13.2 27.8 12.1 27.25 11.75 27.5 11.9 28.55 8.55 27.4 9.0 27.25 9.7 26.45 9.5 25.25 Q11.8 25.25 13.45 26.15 15.05 27.05 15.05 28.3 L14.9 28.8" fill="#5d7fb9" fill-rule="evenodd" stroke="none"/>
    <path d="M6.5 25.9 L3.55 22.6 6.05 23.65 6.2 20.85 6.6 23.15 8.05 23.6 7.1 25.0 7.9 26.5 6.5 25.9 M7.1 25.0 L6.3 24.75 6.65 25.75 7.1 25.0" fill="#6189bf" fill-rule="evenodd" stroke="none"/>
    <path d="M12.85 28.75 L11.9 28.55 11.75 27.5 12.1 27.25 13.2 27.8 12.85 28.75" fill="#4769a1" fill-rule="evenodd" stroke="none"/>
    <path d="M3.9 6.65 L6.85 3.55 5.2 5.55 5.75 9.7 2.75 7.95 3.9 6.65" fill="#6283c4" fill-rule="evenodd" stroke="none"/>
    <path d="M5.0 13.0 L5.35 12.1 6.7 12.35 5.8 13.0 5.8 13.8 5.0 13.0" fill="#507ac0" fill-rule="evenodd" stroke="none"/>
    <path d="M5.8 13.0 L6.2 13.15 6.35 13.4 6.2 13.7 5.8 13.8 5.8 13.0" fill="#5782c7" fill-rule="evenodd" stroke="none"/>
    <path d="M2.3 20.55 L1.05 15.75 5.0 13.0 5.8 13.8 3.1 15.95 2.5 16.9 3.2 18.0 4.2 17.3 4.65 17.3 5.2 14.95 5.5 18.6 2.3 20.55" fill="#4e6ea7" fill-rule="evenodd" stroke="none"/>
    <path d="M3.1 15.95 L4.65 17.3 4.2 17.3 3.2 18.0 2.5 16.9 3.1 15.95" fill="#6a99d4" fill-rule="evenodd" stroke="none"/>
    <path d="M7.1 25.0 L6.65 25.75 6.3 24.75 7.1 25.0" fill="#355aa3" fill-rule="evenodd" stroke="none"/>
  </g>
</svg>
