<?xml version="1.0" encoding="UTF-8" standalone="no"?>
<svg xmlns:ffdec="https://www.free-decompiler.com/flash" xmlns:xlink="http://www.w3.org/1999/xlink" ffdec:objectType="shape" height="22.45px" width="27.15px" xmlns="http://www.w3.org/2000/svg">
  <g transform="matrix(1.0, 0.0, 0.0, 1.0, -1.5, -3.8)">
    <path d="M20.65 5.45 L20.6 5.5 18.25 4.85 18.05 4.95 14.4 5.75 15.25 6.3 15.6 6.55 16.2 7.05 14.7 7.8 16.15 7.95 15.95 8.2 14.2 9.4 14.4 11.25 12.95 11.2 9.9 13.05 8.1 11.75 7.05 12.7 13.05 21.9 3.1 18.2 2.65 16.85 2.4 12.5 2.95 12.2 2.65 11.4 3.1 11.25 3.45 11.2 3.65 11.0 3.6 10.75 Q3.5 10.6 3.25 10.55 L6.05 7.1 5.0 7.3 6.5 5.45 7.65 4.95 9.65 3.95 12.75 3.8 14.55 3.8 16.9 4.35 20.65 5.45 M20.15 5.6 L18.75 6.95 18.75 5.85 18.85 5.45 20.15 5.6 M18.6 8.2 L19.9 8.2 20.0 7.7 20.5 7.45 20.85 7.45 21.4 7.85 20.95 8.2 19.9 8.2 19.1 8.3 18.95 8.8 17.9 8.45 18.6 8.2 M20.9 7.2 L22.35 6.55 22.75 6.85 21.85 7.55 20.9 7.2 M21.15 9.15 L21.6 9.35 21.9 10.4 21.05 10.4 20.8 9.9 Q20.5 9.65 20.15 9.65 L19.8 9.55 19.3 8.9 21.15 9.15 M20.95 10.55 L21.05 11.15 19.3 10.4 19.55 10.4 20.15 10.55 20.7 10.4 20.95 10.55 M10.25 6.05 L10.15 5.85 9.95 5.75 9.75 5.85 9.65 6.05 9.75 6.25 9.95 6.35 10.15 6.25 10.25 6.05 M11.2 5.2 L13.3 4.3 12.55 4.0 11.2 5.2 M9.95 9.55 L9.35 11.4 10.3 11.05 10.6 9.5 10.05 9.5 10.0 9.4 9.95 9.55 M11.95 8.8 L11.6 7.6 10.7 8.2 11.95 8.8 M4.9 11.2 L4.1 11.7 5.6 13.25 6.05 13.25 6.05 12.25 4.9 11.2 M6.9 16.45 L6.8 16.2 Q6.65 16.05 6.5 16.05 L6.25 16.2 6.1 16.45 6.25 16.75 6.5 16.85 6.8 16.75 6.9 16.45 M4.0 14.4 L4.8 17.45 5.2 16.0 4.0 14.4" fill="#ef7d4d" fill-rule="evenodd" stroke="none"/>
    <path d="M20.6 5.5 L20.15 5.6 18.85 5.45 18.85 5.35 18.25 4.85 20.6 5.5" fill="#eaa580" fill-rule="evenodd" stroke="none"/>
    <path d="M18.85 5.35 L18.85 5.45 18.75 5.85 18.85 5.35" fill="#c55f65" fill-rule="evenodd" stroke="none"/>
    <path d="M20.6 5.5 L20.65 5.45 22.35 6.55 20.9 7.2 20.85 7.45 20.5 7.45 20.0 7.7 19.9 8.2 18.6 8.2 18.6 7.6 17.9 7.55 18.75 6.95 20.15 5.6 20.6 5.5 M20.95 8.2 L20.25 8.8 21.15 9.15 19.3 8.9 19.1 9.15 18.95 8.8 19.1 8.3 19.9 8.2 20.95 8.2 M21.6 9.35 L22.1 9.65 21.9 10.4 21.6 9.35 M20.15 9.65 L20.15 9.8 20.15 10.05 19.65 9.9 19.8 9.55 20.15 9.65" fill="#fcc066" fill-rule="evenodd" stroke="none"/>
    <path d="M11.2 5.2 L12.55 4.0 13.3 4.3 11.2 5.2" fill="#cb6046" fill-rule="evenodd" stroke="none"/>
    <path d="M18.75 6.95 L17.9 7.55 18.6 7.6 18.6 8.2 17.9 8.45 17.7 7.45 Q17.45 7.05 17.1 7.05 L17.45 6.55 18.75 6.95 M16.15 7.95 L14.7 7.8 16.2 7.05 15.6 6.55 16.4 6.45 15.35 5.7 15.25 6.3 14.4 5.75 18.05 4.95 17.8 6.2 16.5 6.45 17.0 6.45 16.65 7.45 16.15 7.95" fill="#d75a45" fill-rule="evenodd" stroke="none"/>
    <path d="M18.05 9.05 L17.8 9.3 16.8 9.6 17.45 8.45 16.65 7.95 16.65 7.45 17.1 7.05 Q17.45 7.05 17.7 7.45 L17.9 8.45 18.05 8.8 18.05 9.05 M15.25 9.15 L16.65 8.45 16.05 9.3 15.7 9.4 15.25 9.15" fill="#b84642" fill-rule="evenodd" stroke="none"/>
    <path d="M15.95 8.2 L16.15 7.95 16.65 7.45 17.0 6.45 16.5 6.45 17.8 6.2 18.05 4.95 18.25 4.85 18.85 5.35 18.75 5.85 18.75 6.95 17.45 6.55 17.1 7.05 16.65 7.45 16.65 7.95 17.45 8.45 16.8 9.6 17.8 9.3 17.35 9.7 16.2 9.9 16.05 9.3 16.65 8.45 15.25 9.15 15.95 8.2 M15.6 6.55 L15.25 6.3 15.35 5.7 16.4 6.45 15.6 6.55 M15.7 9.4 L15.35 9.75 14.9 9.4 15.25 9.15 15.7 9.4" fill="#92352d" fill-rule="evenodd" stroke="none"/>
    <path d="M11.95 8.8 L10.7 8.2 11.6 7.6 11.95 8.8" fill="#c5503a" fill-rule="evenodd" stroke="none"/>
    <path d="M14.4 11.25 L14.2 9.4 15.95 8.2 15.25 9.15 14.9 9.4 15.35 9.75 15.7 9.4 16.05 9.3 16.2 9.9 16.65 12.9 15.15 14.25 15.1 18.35 14.4 11.25" fill="#db543f" fill-rule="evenodd" stroke="none"/>
    <path d="M13.05 21.9 L7.05 12.7 8.1 11.75 9.9 13.05 12.95 11.2 14.4 11.25 15.1 18.35 15.15 14.25 16.65 12.9 16.2 9.9 17.35 9.7 17.8 9.3 18.05 9.05 18.15 9.4 18.25 9.9 19.1 10.15 19.3 10.4 21.05 11.15 20.95 10.55 21.05 10.4 21.9 10.4 22.1 9.65 26.5 11.45 26.65 11.9 26.65 12.4 23.05 12.25 22.65 11.95 22.35 12.75 22.7 13.85 21.55 16.75 25.05 15.5 25.85 16.55 26.75 15.7 26.65 15.05 25.15 14.1 25.15 13.5 25.25 13.4 25.4 13.15 27.35 12.9 27.5 12.95 28.1 16.75 27.75 17.15 27.0 18.6 25.4 21.65 22.25 21.55 24.55 22.05 22.55 23.75 19.45 26.1 19.1 26.15 8.15 24.85 6.45 23.95 9.75 24.35 13.05 21.9 M23.65 12.9 L24.05 12.9 24.7 13.25 24.7 13.5 24.35 13.75 24.1 13.65 24.0 13.4 22.95 13.0 23.65 12.9 M28.3 18.35 L28.65 17.35 28.65 19.05 28.4 19.55 28.3 18.35 M20.25 18.2 L20.6 17.25 19.5 17.6 19.65 18.1 20.25 18.2 M5.75 23.6 L4.75 22.9 4.75 22.85 4.8 22.85 5.75 23.6 M10.05 9.5 L10.6 9.5 10.3 11.05 9.35 11.4 9.95 9.55 10.0 9.5 10.05 9.5 M20.15 12.05 L17.3 11.4 17.8 14.0 20.15 12.05 M4.9 11.2 L6.05 12.25 6.05 13.25 5.6 13.25 4.1 11.7 4.9 11.2" fill="#f9954d" fill-rule="evenodd" stroke="none"/>
    <path d="M20.15 12.05 L17.8 14.0 17.3 11.4 20.15 12.05" fill="#fdb855" fill-rule="evenodd" stroke="none"/>
    <path d="M21.85 7.55 L22.75 6.85 24.8 9.15 26.65 11.6 27.5 12.95 27.35 12.9 26.65 11.9 26.5 11.45 22.1 9.65 21.6 9.35 21.15 9.15 20.25 8.8 20.95 8.2 21.4 7.85 21.85 7.55" fill="#fcc960" fill-rule="evenodd" stroke="none"/>
    <path d="M18.25 9.9 L18.15 9.4 18.75 9.05 18.05 8.8 17.9 8.45 18.95 8.8 19.1 9.15 19.2 9.3 18.25 9.9" fill="#ce5845" fill-rule="evenodd" stroke="none"/>
    <path d="M19.2 9.3 L19.1 9.15 19.3 8.9 19.8 9.55 19.65 9.9 19.55 9.65 19.2 9.3" fill="#dd6b48" fill-rule="evenodd" stroke="none"/>
    <path d="M19.3 10.4 L19.1 10.15 19.55 9.65 19.65 9.9 20.15 10.05 20.0 10.15 19.55 10.4 19.3 10.4" fill="#d7644d" fill-rule="evenodd" stroke="none"/>
    <path d="M20.85 7.45 L20.9 7.2 21.85 7.55 21.4 7.85 20.85 7.45 M21.05 10.4 L20.95 10.55 20.7 10.4 20.15 9.8 20.15 9.65 Q20.5 9.65 20.8 9.9 L21.05 10.4 M19.1 10.15 L18.25 9.9 19.2 9.3 19.55 9.65 19.1 10.15 M18.15 9.4 L18.05 9.05 18.05 8.8 18.75 9.05 18.15 9.4 M20.15 10.55 L19.55 10.4 20.0 10.15 20.15 10.55" fill="#b43c2f" fill-rule="evenodd" stroke="none"/>
    <path d="M20.15 9.8 L20.7 10.4 20.15 10.55 20.0 10.15 20.15 10.05 20.15 9.8" fill="#ca5542" fill-rule="evenodd" stroke="none"/>
    <path d="M28.65 17.35 L28.3 18.35 27.0 18.6 27.75 17.15 28.1 16.75 27.5 12.95 28.65 17.35" fill="#f8b96c" fill-rule="evenodd" stroke="none"/>
    <path d="M25.15 14.1 L26.65 15.05 26.75 15.7 25.85 16.55 25.05 15.5 21.55 16.75 22.7 13.85 24.1 13.65 24.35 13.75 25.15 14.1" fill="#fcb657" fill-rule="evenodd" stroke="none"/>
    <path d="M26.65 11.9 L27.35 12.9 25.4 13.15 25.25 13.4 24.7 13.25 24.05 12.9 23.65 12.9 24.1 12.5 22.8 12.65 22.6 12.9 22.35 12.75 22.65 11.95 23.05 12.25 26.65 12.4 26.65 11.9" fill="#df6847" fill-rule="evenodd" stroke="none"/>
    <path d="M22.6 12.9 L22.8 12.65 24.1 12.5 23.65 12.9 22.95 13.0 22.6 13.0 22.6 12.9 M24.7 13.25 L25.25 13.4 25.15 13.5 24.7 13.5 24.7 13.25" fill="#98382e" fill-rule="evenodd" stroke="none"/>
    <path d="M22.35 12.75 L22.6 12.9 22.6 13.0 22.8 13.5 24.0 13.4 24.1 13.65 22.7 13.85 22.35 12.75 M24.7 13.5 L25.15 13.5 25.15 14.1 24.35 13.75 24.7 13.5" fill="#b85c38" fill-rule="evenodd" stroke="none"/>
    <path d="M24.0 13.4 L22.8 13.5 22.6 13.0 22.95 13.0 24.0 13.4" fill="#9d4230" fill-rule="evenodd" stroke="none"/>
    <path d="M19.45 26.1 L22.55 23.75 24.55 22.05 22.25 21.55 25.4 21.65 25.75 22.35 26.45 22.3 26.8 21.9 26.9 23.05 25.55 23.7 22.65 24.95 19.45 26.1 M19.1 26.15 L15.4 26.25 12.95 26.0 11.15 25.65 8.15 24.85 19.1 26.15" fill="#cf6e5e" fill-rule="evenodd" stroke="none"/>
    <path d="M25.4 21.65 L27.0 18.6 28.3 18.35 28.4 19.55 28.65 19.05 26.9 23.05 26.8 21.9 26.45 22.3 25.75 22.35 25.4 21.65" fill="#f4cfc2" fill-rule="evenodd" stroke="none"/>
    <path d="M20.25 18.2 L19.65 18.1 19.5 17.6 20.6 17.25 20.25 18.2" fill="#ffb754" fill-rule="evenodd" stroke="none"/>
    <path d="M3.1 18.2 L13.05 21.9 9.75 24.35 6.45 23.95 5.75 23.6 4.8 22.85 3.1 18.2" fill="#fcbc5f" fill-rule="evenodd" stroke="none"/>
    <path d="M3.25 10.55 Q3.5 10.6 3.6 10.75 L3.65 11.0 3.45 11.2 3.1 11.25 3.25 10.55 M2.65 11.4 L2.95 12.2 2.4 12.5 2.65 16.85 1.5 14.85 3.1 9.4 2.65 11.4" fill="#f7be93" fill-rule="evenodd" stroke="none"/>
    <path d="M9.65 3.95 L7.65 4.95 7.3 4.85 9.65 3.95 M6.5 5.45 L5.0 7.3 6.05 7.1 3.25 10.55 3.1 11.25 2.65 11.4 3.1 9.4 6.4 5.45 6.5 5.45" fill="#f7b37d" fill-rule="evenodd" stroke="none"/>
    <path d="M7.65 4.95 L6.5 5.45 6.4 5.45 7.3 4.85 7.65 4.95" fill="#ecb194" fill-rule="evenodd" stroke="none"/>
    <path d="M10.25 6.05 L10.15 6.25 9.95 6.35 9.75 6.25 9.65 6.05 9.75 5.85 9.95 5.75 10.15 5.85 10.25 6.05" fill="#c8664a" fill-rule="evenodd" stroke="none"/>
    <path d="M9.95 9.55 L10.0 9.4 10.0 9.5 9.95 9.55" fill="#fe974f" fill-rule="evenodd" stroke="none"/>
    <path d="M10.0 9.4 L10.05 9.5 10.0 9.5 10.0 9.4" fill="#feac63" fill-rule="evenodd" stroke="none"/>
    <path d="M4.0 14.4 L5.2 16.0 4.8 17.45 4.0 14.4" fill="#f5a881" fill-rule="evenodd" stroke="none"/>
    <path d="M6.9 16.45 L6.8 16.75 6.5 16.85 6.25 16.75 6.1 16.45 6.25 16.2 6.5 16.05 Q6.65 16.05 6.8 16.2 L6.9 16.45" fill="#db6141" fill-rule="evenodd" stroke="none"/>
    <path d="M2.65 16.85 L3.1 18.2 4.8 22.85 4.75 22.85 4.75 22.9 3.0 19.7 Q2.25 18.15 1.8 16.5 L1.5 14.85 2.65 16.85" fill="#fbf4b6" fill-rule="evenodd" stroke="none"/>
    <path d="M4.75 22.85 L4.8 22.85 4.75 22.85" fill="#f0c7a2" fill-rule="evenodd" stroke="none"/>
  </g>
</svg>
