<?xml version="1.0" encoding="UTF-8" standalone="no"?>
<svg xmlns:ffdec="https://www.free-decompiler.com/flash" xmlns:xlink="http://www.w3.org/1999/xlink" ffdec:objectType="shape" height="27.05px" width="21.25px" xmlns="http://www.w3.org/2000/svg">
  <g transform="matrix(1.0, 0.0, 0.0, 1.0, -4.65, -1.6)">
    <path d="M21.8 8.55 L21.65 8.9 21.5 12.9 19.3 9.05 18.2 7.6 17.65 6.4 17.1 5.7 17.35 4.0 17.35 3.05 21.8 8.55" fill="#1b273f" fill-rule="evenodd" stroke="none"/>
    <path d="M17.35 3.05 L17.35 4.0 16.3 2.6 16.8 2.55 17.35 3.05 M17.1 5.7 L17.65 6.4 17.1 6.45 17.1 7.4 16.55 7.15 16.55 7.6 16.25 7.6 14.55 6.9 14.45 6.7 14.05 6.9 13.25 5.7 14.35 5.95 14.6 5.95 15.15 5.95 16.0 6.4 16.65 6.65 16.8 5.95 17.1 5.7 M15.6 1.6 L16.25 2.1 16.2 2.4 15.6 1.6 M12.7 9.3 Q12.7 9.0 12.85 8.8 L13.25 8.6 13.8 10.05 12.7 9.3 12.4 10.5 11.55 10.75 11.0 10.5 11.0 9.3 11.3 8.35 12.7 9.3 M10.75 7.15 L10.75 8.1 10.45 9.55 10.2 9.8 10.2 9.0 9.65 8.85 10.75 7.15" fill="#214277" fill-rule="evenodd" stroke="none"/>
    <path d="M17.65 6.4 L18.2 7.6 18.05 7.7 17.1 7.4 17.1 6.45 17.65 6.4" fill="#2756a1" fill-rule="evenodd" stroke="none"/>
    <path d="M18.2 7.6 L19.3 9.05 19.3 13.4 19.3 13.9 18.45 14.1 17.9 14.1 17.9 14.85 Q16.05 17.35 14.85 14.45 L14.7 13.8 14.6 12.9 14.65 11.25 13.8 12.2 13.25 13.65 13.45 14.9 14.05 14.6 14.6 15.25 14.35 17.25 14.05 16.75 13.25 16.3 13.25 18.95 13.5 18.95 14.35 20.15 14.05 20.4 12.4 21.1 11.3 20.6 10.7 19.9 9.1 20.6 9.35 16.3 9.65 16.3 9.95 17.5 9.9 16.05 11.8 12.55 11.85 11.95 12.1 11.45 12.4 10.5 12.7 9.3 13.8 10.05 14.35 9.55 16.0 10.05 16.4 10.5 16.55 9.55 Q17.15 9.55 17.6 9.0 18.05 8.45 18.05 7.7 L18.2 7.6 M6.9 12.75 L7.2 10.85 7.3 11.8 7.45 13.65 6.9 12.75 M21.25 14.1 L21.8 14.85 22.0 16.2 22.35 15.35 Q22.7 15.35 22.95 15.7 L23.15 16.55 23.15 19.2 21.3 17.95 20.95 16.05 21.25 14.1 M20.4 17.25 Q19.7 17.25 19.25 16.7 18.75 16.15 18.75 15.35 L18.75 14.85 19.55 15.35 20.4 14.6 20.4 17.25 M14.9 17.75 L15.15 17.75 15.15 20.15 14.6 20.15 14.6 17.95 14.6 17.75 14.9 17.75 M18.75 20.4 L19.05 18.95 20.95 18.95 Q21.55 18.95 21.95 19.4 22.35 19.8 22.35 20.4 L21.25 21.1 21.0 21.35 20.95 21.55 20.9 21.75 20.75 21.9 20.15 22.05 18.75 20.6 18.75 20.4 M11.0 9.3 L11.0 10.5 10.75 11.25 10.45 11.8 9.35 12.2 9.9 11.0 10.2 9.8 10.45 9.55 11.0 9.3 M7.7 15.35 L8.55 14.6 8.25 17.5 7.7 15.35 M8.0 18.45 L7.45 20.4 6.9 20.4 Q6.9 19.6 7.25 19.05 7.55 18.45 8.0 18.45" fill="#0d101c" fill-rule="evenodd" stroke="none"/>
    <path d="M16.55 7.6 L16.55 7.15 17.1 7.4 18.05 7.7 Q18.05 8.45 17.6 9.0 17.15 9.55 16.55 9.55 L16.55 7.6" fill="#1c2c4d" fill-rule="evenodd" stroke="none"/>
    <path d="M12.4 3.75 L13.95 2.75 14.9 4.5 14.6 5.95 14.35 5.95 14.35 5.15 13.8 4.95 13.95 3.25 12.4 3.75 M15.15 4.5 L15.95 4.55 Q16.25 4.95 15.7 5.2 L15.45 5.45 15.15 4.5" fill="#81aadd" fill-rule="evenodd" stroke="none"/>
    <path d="M12.45 3.8 L12.4 3.75 13.95 3.25 13.8 4.95 12.45 3.8 M15.45 5.45 L15.15 5.95 14.6 5.95 14.9 4.5 15.15 4.5 15.45 5.45" fill="#d9e0f2" fill-rule="evenodd" stroke="none"/>
    <path d="M15.7 5.2 L16.55 5.7 16.0 5.7 16.0 6.4 15.15 5.95 15.45 5.45 15.7 5.2" fill="#365892" fill-rule="evenodd" stroke="none"/>
    <path d="M16.55 5.7 L16.8 5.95 16.65 6.65 16.0 6.4 16.0 5.7 16.55 5.7" fill="#1b2946" fill-rule="evenodd" stroke="none"/>
    <path d="M16.25 2.1 L16.8 2.55 16.3 2.6 16.2 2.4 16.25 2.1" fill="#4674ba" fill-rule="evenodd" stroke="none"/>
    <path d="M14.05 6.9 L14.45 6.7 14.55 6.9 14.35 9.55 13.8 10.05 13.25 8.6 11.55 6.65 14.05 6.9" fill="#4691db" fill-rule="evenodd" stroke="none"/>
    <path d="M13.25 8.6 L12.85 8.8 Q12.7 9.0 12.7 9.3 L11.3 8.35 10.75 8.1 10.75 7.15 11.3 6.65 11.55 6.65 13.25 8.6" fill="#336ec0" fill-rule="evenodd" stroke="none"/>
    <path d="M16.25 7.6 L16.55 7.6 16.55 9.55 16.4 10.5 16.0 10.05 16.25 7.6" fill="#2d5292" fill-rule="evenodd" stroke="none"/>
    <path d="M12.4 10.5 L12.1 11.45 11.65 11.45 11.55 10.75 12.4 10.5" fill="#2364bc" fill-rule="evenodd" stroke="none"/>
    <path d="M12.1 11.45 L11.85 11.95 11.0 11.45 10.75 11.25 11.0 10.5 11.55 10.75 11.65 11.45 12.1 11.45" fill="#1c2d4b" fill-rule="evenodd" stroke="none"/>
    <path d="M11.85 11.95 L11.8 12.55 10.75 12.9 11.0 11.45 11.85 11.95" fill="#376cb4" fill-rule="evenodd" stroke="none"/>
    <path d="M13.8 12.2 L14.65 11.25 14.6 12.9 14.4 12.4 13.8 12.2" fill="#1d3b69" fill-rule="evenodd" stroke="none"/>
    <path d="M21.65 8.9 L22.35 13.4 22.05 14.1 21.5 12.9 21.65 8.9 M14.7 13.8 L14.35 14.1 14.05 13.2 13.25 13.65 13.8 12.2 14.4 12.4 14.6 12.9 14.7 13.8" fill="#274f89" fill-rule="evenodd" stroke="none"/>
    <path d="M14.35 14.1 L14.05 14.6 13.45 14.9 13.25 13.65 14.05 13.2 14.35 14.1" fill="#3b6cba" fill-rule="evenodd" stroke="none"/>
    <path d="M11.8 12.55 L9.9 16.05 9.7 16.1 9.65 16.3 9.35 16.3 8.55 14.6 9.35 13.4 10.15 13.15 10.45 12.45 10.75 12.9 11.8 12.55" fill="#1a2f7c" fill-rule="evenodd" stroke="none"/>
    <path d="M20.4 17.25 L20.7 17.25 20.95 18.7 20.95 18.95 19.05 18.95 18.75 20.4 15.85 20.15 15.7 20.15 16.15 18.9 16.15 18.7 15.45 17.75 15.15 17.75 14.9 17.75 14.6 15.25 14.05 14.6 14.35 14.1 14.7 13.8 14.85 14.45 Q16.05 17.35 17.9 14.85 L18.75 15.35 Q18.75 16.15 19.25 16.7 19.7 17.25 20.4 17.25" fill="#1c2c48" fill-rule="evenodd" stroke="none"/>
    <path d="M14.6 15.25 L14.9 17.75 14.6 17.75 14.35 17.25 14.6 15.25" fill="#355588" fill-rule="evenodd" stroke="none"/>
    <path d="M20.4 14.6 L19.55 15.35 19.3 13.9 19.3 13.4 19.85 13.9 20.4 14.6" fill="#1a3173" fill-rule="evenodd" stroke="none"/>
    <path d="M18.75 15.35 L17.9 14.85 17.9 14.1 18.45 14.1 18.75 14.85 18.75 15.35" fill="#1f3d73" fill-rule="evenodd" stroke="none"/>
    <path d="M19.55 15.35 L18.75 14.85 18.45 14.1 19.3 13.9 19.55 15.35" fill="#090711" fill-rule="evenodd" stroke="none"/>
    <path d="M22.35 13.4 L24.7 13.9 24.8 14.1 23.9 15.5 22.35 15.1 22.05 14.35 22.05 14.1 22.35 13.4" fill="#1a263c" fill-rule="evenodd" stroke="none"/>
    <path d="M21.5 12.9 L22.05 14.1 22.05 14.35 21.8 14.85 21.25 14.1 20.15 13.4 20.15 12.2 21.5 12.9" fill="#a2c0e8" fill-rule="evenodd" stroke="none"/>
    <path d="M20.15 13.4 L21.25 14.1 20.95 16.05 20.7 17.25 20.4 17.25 20.4 14.6 19.85 13.9 20.15 13.4" fill="#3f71bb" fill-rule="evenodd" stroke="none"/>
    <path d="M21.8 14.85 L22.05 14.35 22.35 15.1 22.35 15.35 22.0 16.2 21.8 14.85" fill="#597199" fill-rule="evenodd" stroke="none"/>
    <path d="M24.8 14.1 L25.9 17.0 23.15 16.55 22.95 15.7 Q22.7 15.35 22.35 15.35 L22.35 15.1 23.9 15.5 24.8 14.1" fill="#44649c" fill-rule="evenodd" stroke="none"/>
    <path d="M24.55 13.4 L23.3 12.7 23.7 11.45 24.55 13.4" fill="#1e283c" fill-rule="evenodd" stroke="none"/>
    <path d="M20.95 18.95 L20.95 18.7 21.3 17.95 23.15 19.2 23.45 19.9 22.9 19.7 22.9 20.4 22.35 20.4 Q22.35 19.8 21.95 19.4 21.55 18.95 20.95 18.95" fill="#2e374b" fill-rule="evenodd" stroke="none"/>
    <path d="M24.8 23.95 L22.15 26.6 20.95 25.0 21.5 27.05 20.45 27.6 20.0 27.65 17.9 26.15 17.9 24.7 18.45 23.5 20.65 22.75 20.9 21.75 20.95 21.55 21.0 21.35 21.25 21.35 21.5 21.85 21.75 22.35 22.35 21.1 Q22.6 21.1 22.75 20.9 L22.9 20.4 24.8 23.95 M20.95 18.7 L20.7 17.25 20.95 16.05 21.3 17.95 20.95 18.7 M9.9 16.05 L9.95 17.5 9.65 16.3 9.7 16.1 9.9 16.05 M9.35 16.3 L9.1 20.6 9.9 21.1 9.9 22.3 9.65 23.5 7.45 23.05 7.45 20.4 8.0 18.45 8.25 17.5 8.55 14.6 9.35 16.3 M12.4 21.1 L14.05 20.4 14.8 20.5 13.8 21.35 12.95 21.85 Q12.8 21.55 12.6 21.55 L12.4 21.6 12.4 21.1 M7.45 15.1 Q7.45 14.3 7.8 13.75 8.1 13.15 8.55 13.15 L9.35 13.4 8.55 14.6 7.7 15.35 7.45 15.35 7.45 15.1 M7.7 25.8 L8.8 24.95 10.45 25.2 10.45 25.45 9.65 25.9 8.9 26.85 7.7 25.8 M15.45 25.45 L15.5 25.75 Q15.55 26.55 14.6 26.15 L14.6 25.9 15.2 25.8 15.45 25.45 M12.1 26.9 Q13.25 27.45 12.85 28.05 L12.65 28.15 12.1 27.8 11.85 26.9 12.1 26.9 M16.8 28.3 L16.8 27.85 17.65 27.85 18.2 27.85 16.8 28.3" fill="#f1edf8" fill-rule="evenodd" stroke="none"/>
    <path d="M25.35 22.8 L24.8 23.95 22.9 20.4 22.9 19.7 23.45 19.9 Q24.25 19.9 24.8 20.75 25.35 21.6 25.35 22.8" fill="#809fd4" fill-rule="evenodd" stroke="none"/>
    <path d="M15.85 20.15 L18.75 20.4 18.75 20.6 17.9 21.6 16.25 21.85 15.7 21.35 15.15 21.15 14.95 20.75 15.15 20.4 Q15.3 20.25 15.6 20.2 L15.85 20.15" fill="#92bdec" fill-rule="evenodd" stroke="none"/>
    <path d="M17.9 21.6 L18.75 20.6 20.15 22.05 17.9 21.6" fill="#38527a" fill-rule="evenodd" stroke="none"/>
    <path d="M21.25 21.35 L21.0 21.35 21.25 21.1 21.25 21.35 M20.9 21.75 L20.65 22.75 20.15 22.8 20.15 22.05 20.75 21.9 20.9 21.75" fill="#213351" fill-rule="evenodd" stroke="none"/>
    <path d="M22.35 21.1 L21.75 22.35 21.5 21.85 22.35 21.1" fill="#899bc4" fill-rule="evenodd" stroke="none"/>
    <path d="M15.15 17.75 L15.45 17.75 16.15 18.9 15.7 20.15 15.15 20.15 15.15 17.75" fill="#3a5986" fill-rule="evenodd" stroke="none"/>
    <path d="M13.5 18.95 L13.25 18.95 14.05 16.75 14.35 17.25 14.6 17.75 14.6 17.95 13.5 18.95" fill="#71a8e5" fill-rule="evenodd" stroke="none"/>
    <path d="M14.35 20.15 L13.5 18.95 14.6 17.95 14.6 20.15 14.35 20.15" fill="#101829" fill-rule="evenodd" stroke="none"/>
    <path d="M15.45 17.75 L16.15 18.7 16.15 18.9 15.45 17.75" fill="#aec7ea" fill-rule="evenodd" stroke="none"/>
    <path d="M13.25 18.95 L13.25 16.3 14.05 16.75 13.25 18.95" fill="#23385f" fill-rule="evenodd" stroke="none"/>
    <path d="M11.3 20.6 L12.4 21.1 12.4 21.6 10.45 21.35 11.3 20.6" fill="#e0e4f1" fill-rule="evenodd" stroke="none"/>
    <path d="M14.6 22.05 L15.55 22.45 15.7 21.35 16.25 21.85 16.55 22.3 16.0 22.55 16.0 23.25 14.05 22.55 14.6 22.05" fill="#254477" fill-rule="evenodd" stroke="none"/>
    <path d="M16.55 22.3 L16.55 23.5 16.0 23.25 16.0 22.55 16.55 22.3" fill="#15274a" fill-rule="evenodd" stroke="none"/>
    <path d="M10.45 25.2 L11.0 23.75 11.0 24.7 10.75 25.9 10.45 25.45 10.45 25.2" fill="#4e81c7" fill-rule="evenodd" stroke="none"/>
    <path d="M13.8 21.35 L14.6 22.05 14.05 22.55 12.95 22.05 12.95 21.85 13.8 21.35" fill="#2a4674" fill-rule="evenodd" stroke="none"/>
    <path d="M20.0 27.7 L15.7 28.65 16.25 28.3 16.8 28.3 18.2 27.85 18.2 27.1 20.0 27.65 20.0 27.7 M18.45 23.5 L17.9 24.7 16.55 23.5 16.55 22.3 16.25 21.85 17.9 21.6 20.15 22.05 20.15 22.8 18.45 23.5 M11.85 25.9 L12.4 25.45 13.25 26.15 12.7 26.65 12.1 26.9 11.85 26.9 11.3 26.65 12.25 26.4 11.85 25.9 M13.25 25.2 L12.65 24.35 14.35 24.25 13.25 25.2 M14.6 24.25 L15.45 24.0 15.45 25.45 15.2 25.8 14.6 25.9 14.6 25.7 14.6 24.25 M9.65 25.9 L9.65 27.2 8.9 26.85 9.65 25.9" fill="#355b96" fill-rule="evenodd" stroke="none"/>
    <path d="M15.7 28.65 L13.45 28.5 12.65 28.15 12.85 28.05 Q13.25 27.45 12.1 26.9 L12.7 26.65 14.6 26.15 Q15.55 26.55 15.5 25.75 L15.45 25.45 15.45 24.0 14.6 24.25 14.35 24.25 12.65 24.35 13.25 25.2 14.05 25.7 13.25 26.15 12.4 25.45 11.85 25.9 11.3 26.65 10.75 26.4 10.75 25.9 11.0 24.7 11.0 23.75 10.45 25.2 8.8 24.95 9.65 23.5 9.9 22.3 12.15 23.2 12.95 22.05 14.05 22.55 16.0 23.25 16.55 23.5 17.9 24.7 17.9 26.15 18.2 27.1 18.2 27.85 17.65 27.85 15.7 27.65 16.25 28.3 15.7 28.65 M15.7 20.15 L15.85 20.15 15.6 20.2 Q15.3 20.25 15.15 20.4 L14.95 20.75 15.15 21.15 15.7 21.35 15.55 22.45 14.6 22.05 13.8 21.35 14.8 20.5 14.05 20.4 14.35 20.15 14.6 20.15 15.15 20.15 15.7 20.15 M9.1 20.6 L10.7 19.9 11.3 20.6 10.45 21.35 9.9 21.1 9.1 20.6" fill="#5e9ad9" fill-rule="evenodd" stroke="none"/>
    <path d="M9.9 22.3 L9.9 21.1 10.45 21.35 12.4 21.6 12.6 21.55 Q12.8 21.55 12.95 21.85 L12.95 22.05 12.15 23.2 9.9 22.3" fill="#2b4677" fill-rule="evenodd" stroke="none"/>
    <path d="M14.05 25.7 L13.25 25.2 14.35 24.25 14.6 24.25 14.6 25.7 14.05 25.7" fill="#99c2ef" fill-rule="evenodd" stroke="none"/>
    <path d="M13.25 26.15 L14.05 25.7 14.6 25.7 14.6 25.9 14.6 26.15 12.7 26.65 13.25 26.15" fill="#223653" fill-rule="evenodd" stroke="none"/>
    <path d="M11.3 26.65 L11.85 25.9 12.25 26.4 11.3 26.65" fill="#1b396d" fill-rule="evenodd" stroke="none"/>
    <path d="M13.45 28.5 Q9.85 28.5 7.3 26.2 4.7 23.85 4.7 20.6 L6.6 20.6 6.05 23.05 7.7 25.8 8.9 26.85 9.65 27.2 10.45 27.0 10.75 26.4 11.3 26.65 11.85 26.9 12.1 27.8 12.65 28.15 13.45 28.5" fill="#9fc5f1" fill-rule="evenodd" stroke="none"/>
    <path d="M20.45 27.6 L20.0 27.7 20.0 27.65 20.45 27.6" fill="#4c6288" fill-rule="evenodd" stroke="none"/>
    <path d="M10.2 5.6 L10.6 5.1 12.0 5.3 10.2 5.6" fill="#2d3f5b" fill-rule="evenodd" stroke="none"/>
    <path d="M17.35 4.0 L17.1 5.7 16.8 5.95 16.55 5.7 15.7 5.2 Q16.25 4.95 15.95 4.55 L15.15 4.5 14.9 4.5 13.95 2.75 15.6 1.6 16.2 2.4 16.3 2.6 17.35 4.0 M19.3 9.05 L21.5 12.9 20.15 12.2 20.15 13.4 19.85 13.9 19.3 13.4 19.3 9.05 M25.9 17.0 L25.35 22.8 Q25.35 21.6 24.8 20.75 24.25 19.9 23.45 19.9 L23.15 19.2 23.15 16.55 25.9 17.0 M4.7 20.6 L4.65 20.15 5.8 19.4 7.45 15.35 7.7 15.35 8.25 17.5 8.0 18.45 Q7.55 18.45 7.25 19.05 6.9 19.6 6.9 20.4 L6.6 20.6 4.7 20.6 M9.95 5.95 L10.2 5.6 12.0 5.3 10.6 5.1 12.45 3.8 13.8 4.95 14.35 5.15 14.35 5.95 13.25 5.7 14.05 6.9 11.55 6.65 11.3 6.65 9.95 5.95 M14.55 6.9 L16.25 7.6 16.0 10.05 14.35 9.55 14.55 6.9 M10.2 9.8 L9.9 11.0 Q9.35 11.0 8.95 11.5 L8.8 11.75 9.65 8.85 10.2 9.0 10.2 9.8" fill="#6181c3" fill-rule="evenodd" stroke="none"/>
    <path d="M10.75 8.1 L11.3 8.35 11.0 9.3 10.45 9.55 10.75 8.1" fill="#162045" fill-rule="evenodd" stroke="none"/>
    <path d="M21.65 8.9 L21.8 8.55 23.7 11.45 23.3 12.7 24.55 13.4 24.7 13.9 22.35 13.4 21.65 8.9 M5.1 16.8 L6.9 12.75 7.45 13.65 7.3 11.8 9.95 5.95 11.3 6.65 10.75 7.15 9.65 8.85 8.8 11.75 8.55 13.15 Q8.1 13.15 7.8 13.75 7.45 14.3 7.45 15.1 L5.1 16.8" fill="#1f3457" fill-rule="evenodd" stroke="none"/>
    <path d="M9.9 11.0 L9.35 12.2 8.55 13.15 8.8 11.75 8.95 11.5 Q9.35 11.0 9.9 11.0" fill="#7099d5" fill-rule="evenodd" stroke="none"/>
    <path d="M9.35 12.2 L10.45 11.8 10.45 12.45 10.15 13.15 9.35 13.4 8.55 13.15 9.35 12.2" fill="#436191" fill-rule="evenodd" stroke="none"/>
    <path d="M10.45 11.8 L10.75 11.25 11.0 11.45 10.75 12.9 10.45 12.45 10.45 11.8" fill="#1d325b" fill-rule="evenodd" stroke="none"/>
    <path d="M4.65 18.7 L5.1 16.8 7.45 15.1 7.45 15.35 5.8 19.4 Q5.8 19.1 5.5 18.9 L4.65 18.7" fill="#405b8c" fill-rule="evenodd" stroke="none"/>
    <path d="M4.65 20.15 L4.65 18.7 5.5 18.9 Q5.8 19.1 5.8 19.4 L4.65 20.15" fill="#274471" fill-rule="evenodd" stroke="none"/>
    <path d="M22.15 26.6 L21.5 27.05 20.95 25.0 22.15 26.6 M21.25 21.35 L21.25 21.1 22.35 20.4 22.9 20.4 22.75 20.9 Q22.6 21.1 22.35 21.1 L21.5 21.85 21.25 21.35 M20.65 22.75 L18.45 23.5 20.15 22.8 20.65 22.75 M17.9 26.15 L20.0 27.65 18.2 27.1 17.9 26.15 M7.45 20.4 L7.45 23.05 9.65 23.5 8.8 24.95 7.7 25.8 6.05 23.05 6.6 20.6 6.9 20.4 7.45 20.4 M10.75 25.9 L10.75 26.4 10.45 27.0 9.65 27.2 9.65 25.9 10.45 25.45 10.75 25.9 M16.25 28.3 L15.7 27.65 17.65 27.85 16.8 27.85 16.8 28.3 16.25 28.3" fill="#8aacdb" fill-rule="evenodd" stroke="none"/>
  </g>
</svg>
