<?xml version="1.0" encoding="UTF-8" standalone="no"?>
<svg xmlns:ffdec="https://www.free-decompiler.com/flash" xmlns:xlink="http://www.w3.org/1999/xlink" ffdec:objectType="shape" height="26.6px" width="25.1px" xmlns="http://www.w3.org/2000/svg">
  <g transform="matrix(1.0, 0.0, 0.0, 1.0, -2.55, -1.75)">
    <path d="M21.15 1.95 L17.7 2.8 17.3 3.75 16.5 3.0 16.55 3.8 13.5 3.9 11.6 3.35 14.15 2.45 Q17.65 1.35 21.15 1.95" fill="#2f7e9d" fill-rule="evenodd" stroke="none"/>
    <path d="M23.85 3.25 L22.9 3.75 Q22.3 6.0 20.4 7.2 L20.55 8.15 Q20.2 9.5 18.95 10.15 18.2 13.3 16.5 16.05 L17.1 16.7 16.0 18.0 16.5 20.7 Q14.15 22.8 11.05 23.4 9.5 22.75 8.75 21.35 9.05 20.55 8.8 19.9 L8.55 19.2 7.85 19.1 8.3 10.35 Q9.1 9.55 8.6 8.6 L8.35 8.15 9.8 6.45 9.25 6.3 6.7 7.15 7.45 6.3 Q9.2 4.25 11.6 3.35 L13.5 3.9 16.55 3.8 16.5 3.0 17.3 3.75 17.7 2.8 21.15 1.95 23.85 3.25" fill="#2c94b7" fill-rule="evenodd" stroke="none"/>
    <path d="M6.7 7.15 L9.25 6.3 9.8 6.45 8.35 8.15 8.6 8.6 Q9.1 9.55 8.3 10.35 L7.85 19.1 8.55 19.2 8.8 19.9 Q9.05 20.55 8.75 21.35 9.5 22.75 11.05 23.4 14.15 22.8 16.5 20.7 L16.0 18.0 17.1 16.7 16.5 16.05 Q18.2 13.3 18.95 10.15 20.2 9.5 20.55 8.15 L20.4 7.2 Q22.3 6.0 22.9 3.75 L23.85 3.25 Q27.1 6.5 27.45 10.95 L27.65 14.05 Q24.95 21.25 18.65 25.25 11.5 29.85 6.05 24.1 4.0 21.85 3.15 19.3 L2.55 17.5 Q3.1 13.0 5.5 9.1 L6.7 7.15" fill="#4aabce" fill-rule="evenodd" stroke="none"/>
    <path d="M2.55 17.5 L3.15 19.3 Q4.0 21.85 6.05 24.1 11.5 29.85 18.65 25.25 24.95 21.25 27.65 14.05 26.25 21.95 19.65 26.1 12.45 30.7 6.2 25.85 3.9 24.05 3.1 21.2 2.55 19.35 2.55 17.5" fill="#4687a6" fill-rule="evenodd" stroke="none"/>
  </g>
</svg>
