<?xml version="1.0" encoding="UTF-8" standalone="no"?>
<svg xmlns:ffdec="https://www.free-decompiler.com/flash" xmlns:xlink="http://www.w3.org/1999/xlink" ffdec:objectType="shape" height="25.65px" width="26.95px" xmlns="http://www.w3.org/2000/svg">
  <g transform="matrix(1.0, 0.0, 0.0, 1.0, -1.5, -2.55)">
    <path d="M24.3 22.0 L24.1 20.55 Q24.8 20.75 24.75 21.75 L24.75 22.0 24.3 22.0" fill="#c7fcfb" fill-rule="evenodd" stroke="none"/>
    <path d="M26.6 15.2 L27.0 15.1 27.05 14.95 27.3 15.65 27.3 15.8 Q26.8 15.7 26.6 15.2" fill="#19b787" fill-rule="evenodd" stroke="none"/>
    <path d="M7.0 8.15 L7.45 8.15 7.65 8.2 Q8.1 8.5 7.2 8.65 L7.05 8.55 7.0 8.4 7.0 8.15" fill="#12dcad" fill-rule="evenodd" stroke="none"/>
    <path d="M19.05 20.8 Q19.95 21.25 19.05 21.4 L19.05 21.25 19.05 20.8" fill="#2befc1" fill-rule="evenodd" stroke="none"/>
    <path d="M3.15 15.2 L2.95 14.5 Q3.65 14.7 3.15 15.2" fill="#15d4b8" fill-rule="evenodd" stroke="none"/>
    <path d="M13.4 4.1 L12.9 5.2 10.65 4.6 13.4 4.1 M7.7 5.2 L9.75 4.75 9.25 5.2 7.7 5.2" fill="#1cad96" fill-rule="evenodd" stroke="none"/>
    <path d="M11.1 5.7 L10.2 5.95 Q9.65 5.0 10.9 5.65 L11.1 5.7" fill="#0eba81" fill-rule="evenodd" stroke="none"/>
    <path d="M21.1 2.55 Q20.0 2.85 20.5 3.7 L21.55 3.75 21.5 2.6 23.75 3.95 25.6 9.9 25.6 10.15 24.6 8.15 23.4 9.15 21.55 8.25 21.85 7.5 21.95 7.4 Q22.1 7.1 20.2 5.0 L19.8 4.5 19.3 5.95 14.75 7.4 8.65 8.2 10.05 6.6 8.35 6.45 10.2 5.95 11.1 5.7 12.9 5.2 13.4 4.1 16.7 3.45 18.75 3.75 18.6 3.05 21.1 2.55" fill="#103d2c" fill-rule="evenodd" stroke="none"/>
    <path d="M21.5 2.6 L21.55 3.75 20.5 3.7 Q20.0 2.85 21.1 2.55 L21.5 2.6" fill="#139765" fill-rule="evenodd" stroke="none"/>
    <path d="M18.6 3.05 L18.75 3.75 16.7 3.45 18.6 3.05" fill="#10c278" fill-rule="evenodd" stroke="none"/>
    <path d="M26.3 12.65 L26.05 13.35 25.0 13.7 Q23.6 12.0 24.35 11.1 L25.6 13.1 26.1 11.9 26.2 12.35 26.3 12.65" fill="#1a2c1f" fill-rule="evenodd" stroke="none"/>
    <path d="M27.05 17.15 L26.8 16.9 Q27.6 16.45 27.35 16.95 L27.15 17.25 27.05 17.15" fill="#8dfbfe" fill-rule="evenodd" stroke="none"/>
    <path d="M27.5 20.8 Q26.5 21.1 26.2 19.0 L26.15 18.85 Q26.45 17.85 27.25 18.25 L27.35 18.2 Q28.5 18.45 27.2 19.2 L27.3 19.8 Q26.7 20.15 27.35 20.7 L27.5 20.8" fill="#abfaf5" fill-rule="evenodd" stroke="none"/>
    <path d="M27.3 19.8 Q28.0 20.05 27.55 20.6 L27.5 20.8 27.35 20.7 Q26.7 20.15 27.3 19.8" fill="#e7fcfc" fill-rule="evenodd" stroke="none"/>
    <path d="M20.65 6.7 L21.35 9.35 20.0 7.15 20.65 6.7" fill="#28d59f" fill-rule="evenodd" stroke="none"/>
    <path d="M21.8 10.55 L22.25 12.75 22.25 12.8 Q20.75 11.2 21.8 10.55" fill="#3fd3a2" fill-rule="evenodd" stroke="none"/>
    <path d="M24.0 10.45 L23.9 10.3 23.65 9.85 Q24.75 9.85 24.0 10.45" fill="#0c281b" fill-rule="evenodd" stroke="none"/>
    <path d="M10.35 17.95 L15.3 17.15 17.65 17.05 19.4 17.25 19.3 16.15 20.6 17.15 21.3 17.3 19.3 17.6 17.95 18.6 15.9 18.6 15.45 18.95 9.25 20.05 9.7 18.0 10.3 18.0 10.35 17.95" fill="#0eaa73" fill-rule="evenodd" stroke="none"/>
    <path d="M15.4 10.4 L15.35 10.2 14.9 10.3 15.35 8.3 15.4 10.4" fill="#06fefd" fill-rule="evenodd" stroke="none"/>
    <path d="M7.45 12.5 L7.2 11.55 Q7.5 10.0 9.5 10.55 L10.65 10.1 11.3 10.55 Q12.3 11.05 11.55 11.55 L7.45 12.5" fill="#0cfbf0" fill-rule="evenodd" stroke="none"/>
    <path d="M14.9 10.3 L15.35 10.2 15.4 10.4 14.9 10.3" fill="#0afffe" fill-rule="evenodd" stroke="none"/>
    <path d="M7.7 6.7 L7.6 6.9 7.0 6.95 7.7 6.7" fill="#017849" fill-rule="evenodd" stroke="none"/>
    <path d="M7.45 8.15 L7.0 8.15 8.1 7.7 7.45 8.15" fill="#095b40" fill-rule="evenodd" stroke="none"/>
    <path d="M6.55 9.1 L6.1 8.85 6.35 8.55 7.0 8.4 7.05 8.55 7.2 8.65 7.25 8.85 Q7.6 9.6 6.55 9.1" fill="#13bf96" fill-rule="evenodd" stroke="none"/>
    <path d="M9.5 8.85 L9.5 9.1 8.05 9.0 9.5 8.85" fill="#23bb86" fill-rule="evenodd" stroke="none"/>
    <path d="M10.65 9.1 L10.4 9.1 9.5 8.85 10.65 9.1" fill="#11af7e" fill-rule="evenodd" stroke="none"/>
    <path d="M14.5 14.45 Q13.75 15.1 13.85 14.0 14.8 14.1 14.5 14.45" fill="#0d9567" fill-rule="evenodd" stroke="none"/>
    <path d="M8.35 20.05 Q9.35 20.15 9.0 20.45 8.2 21.05 8.35 20.05" fill="#0e9b66" fill-rule="evenodd" stroke="none"/>
    <path d="M10.4 23.7 Q11.5 23.95 10.35 23.75 L10.2 23.7 10.4 23.7" fill="#0d2618" fill-rule="evenodd" stroke="none"/>
    <path d="M14.1 26.55 L13.9 26.5 13.85 26.4 13.9 26.3 14.1 26.25 14.35 26.3 14.45 26.4 14.35 26.5 14.1 26.55" fill="#0ef0e3" fill-rule="evenodd" stroke="none"/>
    <path d="M22.95 20.8 L23.65 20.55 24.1 20.55 24.3 22.0 23.85 21.75 23.7 20.8 23.65 21.75 22.95 21.75 22.05 21.0 22.95 20.8" fill="#3ff6e2" fill-rule="evenodd" stroke="none"/>
    <path d="M23.65 20.55 L22.95 20.8 22.95 20.55 22.7 19.55 Q22.75 18.75 23.65 19.1 L23.65 20.55" fill="#0ea56c" fill-rule="evenodd" stroke="none"/>
    <path d="M22.05 21.0 L22.95 21.75 22.85 22.85 20.5 23.5 19.75 20.6 20.65 20.35 19.05 18.1 20.85 18.15 21.1 19.55 21.6 20.3 22.05 21.0" fill="#13241c" fill-rule="evenodd" stroke="none"/>
    <path d="M23.65 21.75 L23.7 20.8 23.85 21.75 23.65 21.75" fill="#19fdf8" fill-rule="evenodd" stroke="none"/>
    <path d="M6.1 6.7 L5.95 6.7 Q6.35 7.2 5.65 7.15 L5.65 6.95 Q5.6 6.05 6.1 6.7" fill="#07c586" fill-rule="evenodd" stroke="none"/>
    <path d="M4.7 6.7 Q4.55 7.65 4.15 6.45 L4.25 6.45 4.65 6.55 4.7 6.7" fill="#0b6242" fill-rule="evenodd" stroke="none"/>
    <path d="M1.55 10.55 Q2.6 10.6 1.75 11.0 L1.7 11.05 1.55 10.55" fill="#26dc9e" fill-rule="evenodd" stroke="none"/>
    <path d="M5.85 17.6 L5.1 18.45 6.0 22.7 5.4 20.55 Q3.85 19.3 4.55 17.45 L3.6 16.7 4.55 16.2 4.7 15.65 5.85 17.6" fill="#11251e" fill-rule="evenodd" stroke="none"/>
    <path d="M6.55 13.25 Q7.85 12.85 7.25 13.75 6.55 14.8 6.55 13.25" fill="#0e261c" fill-rule="evenodd" stroke="none"/>
    <path d="M12.9 5.2 L11.1 5.7 10.9 5.65 Q9.65 5.0 10.2 5.95 L8.35 6.45 7.7 6.7 7.0 6.95 6.1 6.7 Q5.6 6.05 5.65 6.95 L5.65 7.15 4.7 6.7 4.65 6.55 4.25 6.45 4.05 6.0 7.7 5.2 9.25 5.2 9.75 4.75 10.65 4.6 12.9 5.2" fill="#0ee2a1" fill-rule="evenodd" stroke="none"/>
    <path d="M19.3 5.95 L19.8 4.5 20.2 5.0 20.2 5.7 Q20.1 6.85 19.35 6.1 L19.3 5.95" fill="#25ce9a" fill-rule="evenodd" stroke="none"/>
    <path d="M20.2 5.0 Q22.1 7.1 21.95 7.4 L21.85 7.5 21.55 8.25 23.4 9.15 24.6 8.15 25.6 10.15 25.75 10.85 25.95 11.2 25.95 11.4 26.1 11.9 25.6 13.1 24.35 11.1 Q23.6 12.0 25.0 13.7 L26.05 13.35 26.3 12.65 26.85 14.25 27.05 14.95 27.0 15.1 26.6 15.2 25.9 14.95 25.2 14.95 24.5 15.35 25.2 16.4 23.65 16.9 24.0 18.6 26.15 18.85 26.2 19.0 Q26.5 21.1 27.5 20.8 L27.9 20.8 26.65 23.05 19.45 25.05 19.45 24.75 19.45 24.35 9.7 26.7 9.75 27.35 8.8 28.05 6.05 26.7 1.7 11.05 1.75 11.0 Q2.6 10.6 1.55 10.55 L1.55 10.45 1.7 9.85 2.1 9.0 2.2 9.4 6.1 8.85 6.55 9.1 7.0 10.55 7.2 11.55 7.45 12.5 8.0 13.95 Q5.4 14.35 4.7 15.65 L4.55 16.2 3.6 16.7 4.55 17.45 Q3.85 19.3 5.4 20.55 L6.0 22.7 5.1 18.45 5.85 17.6 6.35 17.95 7.95 18.4 8.05 18.4 8.15 18.45 Q8.55 18.35 8.45 17.9 L6.75 17.1 6.55 15.8 8.05 14.95 9.2 17.45 10.3 18.0 9.7 18.0 9.25 20.05 15.45 18.95 15.9 18.6 17.95 18.6 19.3 17.6 21.3 17.3 20.6 17.15 19.3 16.15 19.4 17.25 17.65 17.05 15.3 17.15 10.35 17.95 Q13.75 15.9 17.9 15.6 15.7 14.15 13.8 15.8 L9.8 16.2 13.15 14.7 13.15 14.0 17.4 13.8 19.05 14.95 19.75 14.2 21.9 15.15 21.2 15.85 23.25 16.65 23.85 15.7 22.25 12.75 21.8 10.55 21.35 9.35 20.65 6.7 20.2 5.7 20.2 5.0 M24.0 10.45 Q24.75 9.85 23.65 9.85 L23.9 10.3 24.0 10.45 M22.95 21.75 L23.65 21.75 23.85 21.75 24.3 22.0 24.75 22.0 Q25.65 21.95 25.35 20.8 25.15 20.1 24.1 20.3 L24.1 20.55 23.65 20.55 23.65 19.1 Q22.75 18.75 22.7 19.55 L22.25 19.3 21.1 19.55 20.85 18.15 19.05 18.1 20.65 20.35 19.75 20.6 20.5 23.5 22.85 22.85 22.95 21.75 M6.55 13.25 Q6.55 14.8 7.25 13.75 7.85 12.85 6.55 13.25 M3.6 14.45 L3.6 14.7 3.8 14.8 Q4.8 14.55 3.6 14.45 M3.15 15.2 Q3.65 14.7 2.95 14.5 L3.15 15.2 M8.35 20.05 Q8.2 21.05 9.0 20.45 9.35 20.15 8.35 20.05 M14.05 21.5 L13.7 20.7 8.4 22.65 9.2 23.6 10.2 22.7 10.2 23.7 10.35 23.75 Q11.5 23.95 10.4 23.7 L12.45 22.95 19.05 21.25 19.05 21.4 Q19.95 21.25 19.05 20.8 L14.05 21.5 M14.5 14.45 Q14.8 14.1 13.85 14.0 13.75 15.1 14.5 14.45" fill="#0f6042" fill-rule="evenodd" stroke="none"/>
    <path d="M27.9 20.8 L27.5 20.8 27.55 20.6 Q28.0 20.05 27.3 19.8 L27.2 19.2 Q28.5 18.45 27.35 18.2 L27.25 18.25 Q26.45 17.85 26.15 18.85 L24.0 18.6 23.65 16.9 25.2 16.4 25.9 15.2 25.9 14.95 26.6 15.2 Q26.8 15.7 27.3 15.8 L27.3 15.65 28.45 19.4 27.9 20.8 M27.05 17.15 L27.15 17.25 27.35 16.95 Q27.6 16.45 26.8 16.9 L27.05 17.15" fill="#45faf0" fill-rule="evenodd" stroke="none"/>
    <path d="M25.2 14.95 L25.9 14.95 25.9 15.2 25.2 14.95" fill="#1ad6a3" fill-rule="evenodd" stroke="none"/>
    <path d="M25.2 16.4 L24.5 15.35 25.2 14.95 25.9 15.2 25.2 16.4" fill="#12d191" fill-rule="evenodd" stroke="none"/>
    <path d="M14.75 7.4 L19.3 5.95 19.35 6.1 Q20.1 6.85 20.2 5.7 L20.65 6.7 20.0 7.15 21.35 9.35 21.8 10.55 Q20.75 11.2 22.25 12.8 L22.25 12.75 23.85 15.7 23.25 16.65 21.2 15.85 21.9 15.15 19.75 14.2 19.05 14.95 17.4 13.8 13.15 14.0 13.15 14.7 9.8 16.2 13.8 15.8 Q15.7 14.15 17.9 15.6 13.75 15.9 10.35 17.95 L10.3 18.0 9.2 17.45 8.05 14.95 6.55 15.8 6.75 17.1 8.45 17.9 Q8.55 18.35 8.15 18.45 L8.05 18.4 7.95 18.4 6.35 17.95 5.85 17.6 4.7 15.65 Q5.4 14.35 8.0 13.95 L7.45 12.5 11.55 11.55 13.15 11.3 Q13.9 11.0 14.0 10.55 14.1 10.1 13.5 9.75 L11.8 9.35 14.3 8.85 14.75 7.4 M14.6 10.8 L16.2 10.65 15.65 7.4 14.3 8.85 14.6 10.8" fill="#16a573" fill-rule="evenodd" stroke="none"/>
    <path d="M8.35 6.45 L10.05 6.6 8.65 8.2 14.75 7.4 14.3 8.85 11.8 9.35 10.65 9.1 9.5 8.85 8.05 9.0 9.5 9.1 10.65 9.6 7.0 10.55 6.55 9.1 Q7.6 9.6 7.25 8.85 L7.2 8.65 Q8.1 8.5 7.65 8.2 L7.45 8.15 8.1 7.7 7.0 8.15 7.0 8.4 6.35 8.55 6.1 8.85 2.2 9.4 2.1 9.0 2.25 8.6 2.6 7.9 3.6 6.05 4.05 6.0 4.25 6.45 4.15 6.45 Q4.55 7.65 4.7 6.7 L5.65 7.15 Q6.35 7.2 5.95 6.7 L6.1 6.7 7.0 6.95 7.6 6.9 7.7 6.7 8.35 6.45 M1.7 9.85 L1.55 10.45 1.55 10.15 1.7 9.85" fill="#168a61" fill-rule="evenodd" stroke="none"/>
    <path d="M14.6 10.8 L14.3 8.85 15.65 7.4 16.2 10.65 14.6 10.8 M15.4 10.4 L15.35 8.3 14.9 10.3 15.4 10.4" fill="#11f0d3" fill-rule="evenodd" stroke="none"/>
    <path d="M7.2 11.55 L7.0 10.55 10.65 9.6 10.4 9.1 10.65 9.1 11.8 9.35 13.5 9.75 Q14.1 10.1 14.0 10.55 13.9 11.0 13.15 11.3 L11.55 11.55 Q12.3 11.05 11.3 10.55 L10.65 10.1 9.5 10.55 Q7.5 10.0 7.2 11.55" fill="#10d7a8" fill-rule="evenodd" stroke="none"/>
    <path d="M9.5 8.85 L10.4 9.1 10.65 9.6 9.5 9.1 9.5 8.85" fill="#3df0d5" fill-rule="evenodd" stroke="none"/>
    <path d="M10.2 22.7 L9.2 23.6 8.4 22.65 13.7 20.7 14.05 21.5 11.8 22.2 10.2 22.7" fill="#0e261d" fill-rule="evenodd" stroke="none"/>
    <path d="M12.45 22.95 L10.4 23.7 10.2 23.7 10.2 22.7 11.8 22.2 13.85 22.2 12.45 22.95" fill="#10efc4" fill-rule="evenodd" stroke="none"/>
    <path d="M14.05 21.5 L19.05 20.8 19.05 21.25 12.45 22.95 13.85 22.2 11.8 22.2 14.05 21.5" fill="#0fb17c" fill-rule="evenodd" stroke="none"/>
    <path d="M9.75 27.35 L9.7 26.7 19.45 24.35 19.45 24.75 19.45 25.05 10.0 27.85 Q10.1 27.3 9.75 27.35 M14.1 26.55 L14.35 26.5 14.45 26.4 14.35 26.3 14.1 26.25 13.9 26.3 13.85 26.4 13.9 26.5 14.1 26.55" fill="#32faef" fill-rule="evenodd" stroke="none"/>
    <path d="M19.45 25.05 L26.65 23.05 9.65 28.2 10.0 27.85 19.45 25.05" fill="#418a6f" fill-rule="evenodd" stroke="none"/>
    <path d="M8.8 28.05 L9.75 27.35 Q10.1 27.3 10.0 27.85 L9.65 28.2 8.8 28.05" fill="#3e8569" fill-rule="evenodd" stroke="none"/>
    <path d="M24.1 20.55 L24.1 20.3 Q25.15 20.1 25.35 20.8 25.65 21.95 24.75 22.0 L24.75 21.75 Q24.8 20.75 24.1 20.55" fill="#1eead3" fill-rule="evenodd" stroke="none"/>
    <path d="M22.7 19.55 L22.95 20.55 21.8 20.3 22.25 19.3 22.7 19.55" fill="#0fd494" fill-rule="evenodd" stroke="none"/>
    <path d="M21.6 20.3 L21.1 19.55 22.25 19.3 21.8 20.3 21.6 20.3" fill="#14dea4" fill-rule="evenodd" stroke="none"/>
    <path d="M22.95 20.8 L22.05 21.0 21.6 20.3 21.8 20.3 22.95 20.55 22.95 20.8" fill="#108d5c" fill-rule="evenodd" stroke="none"/>
    <path d="M3.6 14.45 Q4.8 14.55 3.8 14.8 L3.6 14.7 3.6 14.45" fill="#20dabc" fill-rule="evenodd" stroke="none"/>
  </g>
</svg>
