<?xml version="1.0" encoding="UTF-8" standalone="no"?>
<svg xmlns:ffdec="https://www.free-decompiler.com/flash" xmlns:xlink="http://www.w3.org/1999/xlink" ffdec:objectType="shape" height="22.75px" width="27.4px" xmlns="http://www.w3.org/2000/svg">
  <g transform="matrix(1.0, 0.0, 0.0, 1.0, -1.3, -3.65)">
    <path d="M26.35 14.15 L25.8 14.3 Q25.85 13.55 26.35 14.05 L26.35 14.15" fill="#070a18" fill-rule="evenodd" stroke="none"/>
    <path d="M11.7 4.55 L9.7 8.1 9.8 9.15 12.4 9.45 9.05 9.45 7.85 12.45 5.5 13.75 6.95 16.4 6.9 16.8 6.2 19.1 7.2 20.2 2.4 18.45 2.7 17.45 3.4 16.8 3.55 16.0 1.5 16.7 1.4 15.25 1.95 12.85 4.85 8.45 6.95 6.9 Q9.25 5.65 11.7 4.55" fill="#353751" fill-rule="evenodd" stroke="none"/>
    <path d="M20.3 5.0 L20.45 5.15 20.7 5.2 21.05 5.5 21.55 5.75 22.05 6.0 22.55 5.7 Q23.95 6.4 25.3 7.25 25.5 7.4 25.7 6.95 L26.05 7.25 26.2 7.9 25.85 8.65 25.5 9.0 25.15 9.2 24.75 9.6 24.95 10.15 24.95 10.55 24.75 10.55 24.2 10.5 24.3 9.85 23.85 9.55 24.75 8.75 23.25 9.0 24.3 8.05 23.2 6.75 22.65 7.3 22.7 7.85 21.6 8.1 22.7 9.05 21.9 9.35 21.55 9.35 Q20.95 9.35 20.55 10.0 20.1 10.6 20.1 11.45 L17.85 11.45 13.05 12.25 11.45 10.6 13.2 9.55 12.4 9.45 9.8 9.15 9.7 8.1 11.7 4.55 18.9 3.65 19.3 4.0 19.7 4.0 19.95 3.85 20.9 4.6 20.3 5.0 M21.0 7.55 L21.15 7.25 21.0 7.0 20.55 6.85 Q20.3 6.85 20.15 7.0 L19.95 7.25 20.15 7.55 20.55 7.65 21.0 7.55 M20.35 8.85 Q21.0 9.1 20.45 8.85 L20.35 8.85 M16.05 5.3 L15.95 5.45 Q16.3 5.85 16.05 5.3 M19.85 4.4 L19.3 4.4 19.3 4.8 19.85 4.8 19.85 4.4 M18.25 5.25 L17.8 5.25 18.0 5.5 18.25 5.25 M19.9 5.65 L19.4 5.65 19.65 6.1 19.9 5.65 M17.6 7.05 L17.2 6.8 16.7 7.25 16.35 7.6 15.6 8.0 13.85 9.45 19.9 9.05 17.6 7.05 M14.9 5.9 L15.1 7.05 15.45 6.1 14.9 5.9" fill="#090c35" fill-rule="evenodd" stroke="none"/>
    <path d="M14.9 5.9 L15.45 6.1 15.1 7.05 14.9 5.9" fill="#292fad" fill-rule="evenodd" stroke="none"/>
    <path d="M12.4 9.45 L13.2 9.55 11.45 10.6 9.8 11.7 9.5 11.8 7.85 12.85 7.85 12.45 9.05 9.45 12.4 9.45" fill="#bdbec0" fill-rule="evenodd" stroke="none"/>
    <path d="M16.7 7.25 L17.6 7.05 19.9 9.05 13.85 9.45 15.6 8.0 16.35 7.6 16.7 7.25" fill="#e9e9ea" fill-rule="evenodd" stroke="none"/>
    <path d="M18.25 5.25 L18.0 5.5 17.8 5.25 18.25 5.25" fill="#14199a" fill-rule="evenodd" stroke="none"/>
    <path d="M17.6 7.05 L16.7 7.25 17.2 6.8 17.6 7.05" fill="#5c65e0" fill-rule="evenodd" stroke="none"/>
    <path d="M16.05 5.3 Q16.3 5.85 15.95 5.45 L16.05 5.3" fill="#4243e8" fill-rule="evenodd" stroke="none"/>
    <path d="M19.85 4.4 L19.85 4.8 19.3 4.8 19.3 4.4 19.85 4.4" fill="#1d2596" fill-rule="evenodd" stroke="none"/>
    <path d="M22.65 4.65 L22.3 4.25 23.1 4.85 22.65 4.65 M21.6 4.05 L21.6 4.25 21.4 5.0 21.6 5.4 21.05 5.5 20.7 5.2 20.3 5.0 20.9 4.6 19.95 3.85 19.7 4.0 19.3 4.0 18.9 3.65 21.6 4.05 M26.2 7.9 L26.05 7.25 25.7 6.95 25.25 6.5 Q27.65 8.05 28.4 10.8 L28.55 11.15 27.05 10.25 27.2 9.75 26.85 9.45 27.45 9.4 27.0 9.15 27.0 8.55 26.55 8.85 26.05 8.65 26.2 7.9" fill="#3442ac" fill-rule="evenodd" stroke="none"/>
    <path d="M21.6 4.25 L21.75 5.0 21.4 5.0 21.6 4.25" fill="#7089f4" fill-rule="evenodd" stroke="none"/>
    <path d="M22.3 4.25 L22.65 4.65 21.75 5.0 21.6 4.25 21.6 4.05 22.3 4.25" fill="#4254bd" fill-rule="evenodd" stroke="none"/>
    <path d="M21.75 5.0 L22.65 4.65 23.1 4.85 25.25 6.5 25.7 6.95 Q25.5 7.4 25.3 7.25 23.95 6.4 22.55 5.7 L22.05 6.0 21.55 5.75 22.05 5.7 21.6 5.4 21.4 5.0 21.75 5.0 M22.65 5.25 L22.65 5.45 23.15 5.45 23.15 5.25 22.65 5.25" fill="#161d83" fill-rule="evenodd" stroke="none"/>
    <path d="M21.55 5.75 L21.05 5.5 21.6 5.4 22.05 5.7 21.55 5.75" fill="#91aef3" fill-rule="evenodd" stroke="none"/>
    <path d="M21.0 7.55 L20.55 7.65 20.15 7.55 19.95 7.25 20.15 7.0 Q20.3 6.85 20.55 6.85 L21.0 7.0 21.15 7.25 21.0 7.55" fill="#0f118f" fill-rule="evenodd" stroke="none"/>
    <path d="M22.65 7.3 L23.2 6.75 23.05 7.15 22.65 7.3" fill="#6674ef" fill-rule="evenodd" stroke="none"/>
    <path d="M20.7 5.2 L20.45 5.15 20.3 5.0 20.7 5.2" fill="#0f127f" fill-rule="evenodd" stroke="none"/>
    <path d="M19.9 5.65 L19.65 6.1 19.4 5.65 19.9 5.65" fill="#101480" fill-rule="evenodd" stroke="none"/>
    <path d="M20.1 11.45 Q20.1 10.6 20.55 10.0 20.95 9.35 21.55 9.35 L21.2 10.45 21.55 10.5 Q22.25 10.3 22.05 9.7 L21.9 9.35 22.7 9.05 21.6 8.1 22.7 7.85 22.65 7.3 23.05 7.15 23.2 6.75 24.3 8.05 23.25 9.0 24.75 8.75 23.85 9.55 24.3 9.85 24.2 10.5 24.2 10.7 22.95 10.25 22.25 11.05 21.7 11.45 20.8 12.2 20.1 11.45" fill="#1a20a0" fill-rule="evenodd" stroke="none"/>
    <path d="M20.35 8.85 L20.45 8.85 Q21.0 9.1 20.35 8.85" fill="#0f1188" fill-rule="evenodd" stroke="none"/>
    <path d="M21.55 9.35 L21.9 9.35 22.05 9.7 Q22.25 10.3 21.55 10.5 L21.2 10.45 21.55 9.35" fill="#586bf2" fill-rule="evenodd" stroke="none"/>
    <path d="M22.65 5.25 L23.15 5.25 23.15 5.45 22.65 5.45 22.65 5.25" fill="#3741d6" fill-rule="evenodd" stroke="none"/>
    <path d="M25.85 8.65 L26.2 7.9 26.05 8.65 25.85 8.65" fill="#1c238c" fill-rule="evenodd" stroke="none"/>
    <path d="M24.95 10.15 L24.75 9.6 25.15 9.2 25.85 9.6 25.65 9.95 24.95 10.15" fill="#7d98f8" fill-rule="evenodd" stroke="none"/>
    <path d="M25.15 9.2 L25.5 9.0 25.85 9.6 25.15 9.2" fill="#2c37cc" fill-rule="evenodd" stroke="none"/>
    <path d="M24.2 10.5 L24.75 10.55 25.5 10.9 25.65 9.95 25.85 9.6 25.5 9.0 25.85 8.65 26.05 8.65 26.55 8.85 27.0 8.55 27.0 9.15 27.45 9.4 26.85 9.45 27.2 9.75 27.05 10.25 28.55 11.15 28.55 11.2 28.5 13.3 Q28.3 21.75 20.15 24.5 L19.8 24.3 20.7 23.75 21.05 23.35 21.25 23.15 21.75 22.55 20.55 22.4 20.15 21.85 19.8 21.1 20.45 20.15 20.65 19.85 21.2 19.0 20.2 18.8 19.85 19.0 19.3 18.6 19.65 18.05 19.85 17.65 20.6 16.55 21.6 15.5 21.35 14.95 22.1 14.95 22.75 16.05 24.2 15.05 23.7 14.65 24.55 14.3 24.75 14.3 25.4 14.15 25.65 13.75 25.7 13.65 Q25.5 12.5 24.9 13.35 L24.55 14.25 24.5 14.25 24.45 14.2 24.3 13.55 24.25 12.4 Q24.25 11.8 24.2 12.2 L24.2 10.7 24.2 10.5 M27.95 13.75 L28.4 13.9 28.35 13.2 28.1 13.35 27.95 13.75 M25.8 14.3 L26.3 14.6 26.45 14.55 26.35 14.5 26.35 14.15 26.35 14.05 Q25.85 13.55 25.8 14.3 M22.15 22.6 L22.5 22.9 22.85 22.6 22.15 22.6" fill="#101447" fill-rule="evenodd" stroke="none"/>
    <path d="M26.3 14.6 L25.8 14.3 26.35 14.15 26.35 14.5 26.3 14.6" fill="#596dd7" fill-rule="evenodd" stroke="none"/>
    <path d="M27.95 13.75 L28.1 13.35 28.35 13.2 27.95 13.75" fill="#85a6fc" fill-rule="evenodd" stroke="none"/>
    <path d="M28.35 13.2 L28.4 13.9 27.95 13.75 28.35 13.2" fill="#3f55c0" fill-rule="evenodd" stroke="none"/>
    <path d="M28.55 11.2 Q29.95 21.75 19.3 25.4 12.6 27.7 6.25 24.75 L8.45 25.35 9.2 25.35 11.35 25.75 12.25 26.1 Q16.1 26.65 19.45 24.85 L19.6 24.65 20.15 24.5 Q28.3 21.75 28.5 13.3 L28.55 11.2 M2.7 21.35 Q1.1 18.6 1.35 15.4 L1.4 15.25 1.5 16.7 Q1.5 18.5 2.25 20.35 L2.7 21.35 M1.95 12.85 Q2.65 10.8 4.1 9.15 L5.15 8.1 4.85 8.45 1.95 12.85" fill="#58585a" fill-rule="evenodd" stroke="none"/>
    <path d="M26.3 14.6 L26.35 14.5 26.45 14.55 26.3 14.6" fill="#060916" fill-rule="evenodd" stroke="none"/>
    <path d="M24.95 10.55 L24.95 10.15 25.65 9.95 25.5 10.9 24.95 10.55" fill="#404edf" fill-rule="evenodd" stroke="none"/>
    <path d="M24.75 10.55 L24.95 10.55 25.5 10.9 24.75 10.55" fill="#4d5ee4" fill-rule="evenodd" stroke="none"/>
    <path d="M22.25 11.05 L22.95 10.25 24.2 10.7 24.2 12.2 21.5 12.95 20.8 12.2 21.7 11.45 Q22.25 12.0 22.35 11.3 L22.25 11.05" fill="#85a1f9" fill-rule="evenodd" stroke="none"/>
    <path d="M21.5 12.95 L24.2 12.2 Q24.25 11.8 24.25 12.4 L24.3 13.55 24.45 14.2 23.3 13.75 23.9 14.4 24.55 14.3 23.7 14.65 24.2 15.05 22.75 16.05 22.1 14.95 21.35 14.95 21.6 15.5 20.6 16.55 19.55 16.35 Q18.25 16.0 18.4 16.9 L16.45 16.9 17.9 15.0 18.8 15.3 20.95 14.65 20.05 13.7 20.45 13.35 21.5 12.95 M24.9 13.35 L25.65 13.75 25.4 14.15 24.75 14.3 24.55 14.25 24.9 13.35 M23.0 14.55 L23.0 14.15 22.55 14.15 22.55 14.55 23.0 14.55" fill="#131873" fill-rule="evenodd" stroke="none"/>
    <path d="M24.75 14.3 L24.55 14.3 23.9 14.4 23.3 13.75 24.45 14.2 24.5 14.25 24.55 14.25 24.75 14.3" fill="#4857e4" fill-rule="evenodd" stroke="none"/>
    <path d="M24.9 13.35 Q25.5 12.5 25.7 13.65 L25.65 13.75 24.9 13.35" fill="#6476e9" fill-rule="evenodd" stroke="none"/>
    <path d="M21.7 11.45 L22.25 11.05 22.35 11.3 Q22.25 12.0 21.7 11.45" fill="#b7d5fc" fill-rule="evenodd" stroke="none"/>
    <path d="M11.45 10.6 L13.05 12.25 17.85 11.45 20.1 11.45 20.8 12.2 21.5 12.95 20.45 13.35 20.05 13.7 20.95 14.65 18.8 15.3 17.9 15.0 16.45 16.9 13.95 16.5 12.3 17.4 9.45 17.0 8.55 14.9 9.65 11.9 9.8 11.7 11.45 10.6" fill="#4253ae" fill-rule="evenodd" stroke="none"/>
    <path d="M20.6 16.55 L19.85 17.65 19.3 17.5 18.6 16.9 18.4 16.9 Q18.25 16.0 19.55 16.35 L20.6 16.55" fill="#5f73f1" fill-rule="evenodd" stroke="none"/>
    <path d="M19.85 17.65 L19.65 18.05 19.3 17.5 19.85 17.65" fill="#171e6c" fill-rule="evenodd" stroke="none"/>
    <path d="M19.65 18.05 L19.3 18.6 18.6 18.25 18.6 16.9 19.3 17.5 19.65 18.05" fill="#2f38c0" fill-rule="evenodd" stroke="none"/>
    <path d="M18.6 18.25 L19.3 18.6 19.3 19.2 17.85 19.55 17.15 19.55 18.95 20.3 18.75 20.3 16.75 20.65 16.8 19.35 18.6 18.25" fill="#91a3f9" fill-rule="evenodd" stroke="none"/>
    <path d="M19.3 18.6 L19.85 19.0 19.85 19.4 19.95 20.0 20.25 20.25 20.45 20.15 19.8 21.1 19.45 20.5 18.95 20.3 17.15 19.55 17.85 19.55 19.1 19.75 19.3 19.2 19.3 18.6 M20.2 18.8 L21.2 19.0 20.65 19.85 20.2 18.8" fill="#3d44d2" fill-rule="evenodd" stroke="none"/>
    <path d="M19.85 19.0 L20.2 18.8 20.65 19.85 20.45 20.15 20.25 20.25 19.95 20.0 19.85 19.4 19.85 19.0" fill="#7d86f8" fill-rule="evenodd" stroke="none"/>
    <path d="M23.0 14.55 L22.55 14.55 22.55 14.15 23.0 14.15 23.0 14.55" fill="#2730cd" fill-rule="evenodd" stroke="none"/>
    <path d="M22.15 22.6 L22.85 22.6 22.5 22.9 22.15 22.6" fill="#030616" fill-rule="evenodd" stroke="none"/>
    <path d="M19.3 19.2 L19.1 19.75 17.85 19.55 19.3 19.2" fill="#1f2683" fill-rule="evenodd" stroke="none"/>
    <path d="M18.95 20.3 L19.45 20.5 18.55 20.9 18.75 20.3 18.95 20.3" fill="#0e1088" fill-rule="evenodd" stroke="none"/>
    <path d="M6.25 24.75 Q4.4 23.85 3.2 22.1 L2.7 21.35 2.25 20.35 Q1.5 18.5 1.5 16.7 L3.55 16.0 3.4 16.8 2.7 17.45 2.4 18.45 7.2 20.2 9.05 20.05 6.9 16.8 6.95 16.4 7.85 12.85 9.5 11.8 9.55 11.85 9.65 11.9 8.55 14.9 9.45 17.0 12.3 17.4 13.95 16.5 16.45 16.9 18.4 16.9 18.6 16.9 18.6 18.25 16.8 19.35 16.75 20.65 18.55 20.9 19.45 20.5 19.8 21.1 20.15 21.85 20.0 22.05 19.65 22.0 18.9 21.85 17.65 22.35 17.85 22.95 18.05 23.25 18.55 23.35 18.55 23.55 20.7 23.75 19.8 24.3 19.25 24.5 19.45 24.85 Q16.1 26.65 12.25 26.1 L11.35 25.75 11.85 25.15 11.1 24.7 9.2 25.35 8.45 25.35 6.25 24.75 M16.75 24.45 L17.55 23.6 15.15 23.7 16.75 24.45" fill="#0f122a" fill-rule="evenodd" stroke="none"/>
    <path d="M20.15 21.85 L20.55 22.4 20.0 22.05 20.15 21.85" fill="#3539d7" fill-rule="evenodd" stroke="none"/>
    <path d="M20.55 22.4 L20.5 22.8 20.5 23.0 19.1 22.95 19.1 23.55 18.55 23.55 18.55 23.35 18.55 22.75 17.85 22.95 17.65 22.35 18.9 21.85 19.25 22.2 19.65 22.0 20.0 22.05 20.55 22.4" fill="#7387f8" fill-rule="evenodd" stroke="none"/>
    <path d="M19.65 22.0 L19.25 22.2 18.9 21.85 19.65 22.0" fill="#272fb9" fill-rule="evenodd" stroke="none"/>
    <path d="M21.05 23.35 L20.7 23.75 18.55 23.55 19.1 23.55 19.45 23.5 Q19.8 23.3 19.1 22.95 L20.5 23.0 21.05 23.35" fill="#3a42e0" fill-rule="evenodd" stroke="none"/>
    <path d="M19.1 23.55 L19.1 22.95 Q19.8 23.3 19.45 23.5 L19.1 23.55" fill="#535ff7" fill-rule="evenodd" stroke="none"/>
    <path d="M20.55 22.4 L21.75 22.55 21.25 23.15 20.5 22.8 20.55 22.4" fill="#2f3ad7" fill-rule="evenodd" stroke="none"/>
    <path d="M21.25 23.15 L21.05 23.35 20.5 23.0 20.5 22.8 21.25 23.15" fill="#4a5af1" fill-rule="evenodd" stroke="none"/>
    <path d="M19.8 24.3 L20.15 24.5 19.6 24.65 19.25 24.5 19.8 24.3" fill="#242ec0" fill-rule="evenodd" stroke="none"/>
    <path d="M19.6 24.65 L19.45 24.85 19.25 24.5 19.6 24.65" fill="#202397" fill-rule="evenodd" stroke="none"/>
    <path d="M9.8 11.7 L9.65 11.9 9.55 11.85 9.5 11.8 9.8 11.7" fill="#1b1d31" fill-rule="evenodd" stroke="none"/>
    <path d="M7.85 12.85 L6.95 16.4 5.5 13.75 7.85 12.45 7.85 12.85" fill="#eaeaea" fill-rule="evenodd" stroke="none"/>
    <path d="M6.9 16.8 L9.05 20.05 7.2 20.2 6.2 19.1 6.9 16.8" fill="#d1d1d1" fill-rule="evenodd" stroke="none"/>
    <path d="M11.35 25.75 L9.2 25.35 11.1 24.7 11.85 25.15 11.35 25.75" fill="#445389" fill-rule="evenodd" stroke="none"/>
    <path d="M18.75 20.3 L18.55 20.9 16.75 20.65 18.75 20.3" fill="#3741df" fill-rule="evenodd" stroke="none"/>
    <path d="M17.85 22.95 L18.55 22.75 18.55 23.35 18.05 23.25 17.85 22.95" fill="#3238cc" fill-rule="evenodd" stroke="none"/>
    <path d="M16.75 24.45 L15.15 23.7 17.55 23.6 16.75 24.45" fill="#243a90" fill-rule="evenodd" stroke="none"/>
  </g>
</svg>
