<?xml version="1.0" encoding="UTF-8" standalone="no"?>
<svg xmlns:ffdec="https://www.free-decompiler.com/flash" xmlns:xlink="http://www.w3.org/1999/xlink" ffdec:objectType="shape" height="27.05px" width="21.45px" xmlns="http://www.w3.org/2000/svg">
  <g transform="matrix(1.0, 0.0, 0.0, 1.0, -4.4, -1.7)">
    <path d="M5.3 9.8 L6.6 9.2 6.8 8.25 Q7.25 9.15 7.15 10.2 6.8 13.55 5.6 16.65 L4.7 14.3 4.65 12.75 4.65 12.5 5.3 9.8" fill="#512122" fill-rule="evenodd" stroke="none"/>
    <path d="M24.7 13.4 L24.55 15.45 24.2 14.7 24.7 13.4" fill="#e45c7c" fill-rule="evenodd" stroke="none"/>
    <path d="M23.75 12.15 L23.75 11.5 21.1 11.65 20.65 9.95 21.45 9.6 21.45 8.85 21.8 8.55 23.4 8.55 23.6 9.5 24.85 9.5 25.4 9.1 25.85 12.55 24.7 13.2 23.9 13.15 23.75 12.15" fill="#532222" fill-rule="evenodd" stroke="none"/>
    <path d="M19.0 7.4 L19.7 7.85 20.45 6.75 22.55 7.15 23.75 5.65 25.4 9.1 24.85 9.5 23.6 9.5 23.4 8.55 21.8 8.55 21.45 8.85 21.45 9.6 20.65 9.95 21.1 11.65 23.75 11.5 23.75 12.15 22.8 12.15 23.5 14.05 23.05 13.45 22.55 14.05 22.1 12.85 21.35 14.05 21.65 17.85 22.55 18.4 23.85 18.75 24.7 18.15 24.45 16.45 24.15 15.95 24.2 14.7 24.55 15.45 24.7 13.4 24.7 13.2 25.85 12.55 25.7 15.1 Q25.2 21.1 21.35 25.9 L20.65 25.95 19.75 26.75 18.2 26.95 17.3 27.55 13.2 26.95 12.3 27.75 11.0 27.4 9.75 26.75 9.75 25.8 8.35 25.3 7.65 25.5 6.95 25.1 5.85 23.0 7.35 21.45 7.45 21.95 8.6 22.25 9.15 21.6 8.85 20.75 9.55 20.15 10.4 20.4 10.9 21.1 9.8 21.8 10.95 21.85 12.15 23.35 14.0 22.45 16.0 23.1 16.4 22.25 17.2 21.85 17.25 21.05 17.7 21.2 18.05 20.35 18.9 20.1 19.15 18.8 18.55 18.9 19.3 18.05 19.9 18.1 20.4 17.85 19.95 17.6 20.05 16.75 17.6 18.6 16.15 16.45 17.75 16.0 17.35 15.45 15.8 15.05 15.95 14.05 15.35 13.6 15.15 14.55 13.55 14.8 13.75 15.6 12.55 15.4 11.35 15.95 10.95 15.65 Q11.7 14.55 10.85 14.45 L10.5 14.05 10.85 13.45 10.75 13.0 11.05 12.45 10.95 11.9 12.65 8.0 15.25 6.95 18.75 8.3 19.0 7.4 M21.05 19.2 Q20.7 18.35 21.0 19.3 L21.05 19.2 M19.0 23.3 L18.9 23.1 18.65 23.0 18.4 23.1 18.3 23.3 18.4 23.5 18.65 23.6 18.9 23.5 19.0 23.3" fill="#9b2d37" fill-rule="evenodd" stroke="none"/>
    <path d="M23.5 5.2 L21.15 5.3 19.5 5.2 20.25 4.45 18.65 4.3 20.9 3.9 18.1 2.45 17.25 2.6 18.2 2.8 17.95 4.5 19.25 5.2 18.9 5.65 18.05 5.85 15.0 6.5 12.95 5.25 12.15 5.65 12.15 8.0 10.95 9.1 8.85 10.0 9.8 14.7 8.35 18.15 7.65 17.95 6.85 18.55 5.5 18.0 4.6 18.15 4.4 18.15 4.6 13.85 4.7 14.3 5.6 16.65 Q6.8 13.55 7.15 10.2 7.25 9.15 6.8 8.25 L6.6 9.2 5.3 9.8 Q6.65 4.8 11.15 2.8 L9.1 4.35 9.65 4.7 8.3 6.0 7.95 5.8 7.7 5.85 7.5 6.1 7.4 6.45 7.5 6.55 7.9 6.95 8.1 7.65 10.0 5.85 11.7 6.75 11.45 6.3 11.6 4.75 12.25 4.7 12.6 5.1 13.25 4.85 13.35 4.35 13.8 4.15 14.3 4.35 14.9 3.35 14.05 2.5 13.1 2.4 13.95 2.1 11.2 2.75 12.8 2.15 Q19.1 0.5 23.5 5.2 M11.1 7.85 L9.8 8.65 10.95 8.45 11.1 7.85 M9.1 13.8 L8.6 15.1 9.25 14.7 9.1 13.8" fill="#933035" fill-rule="evenodd" stroke="none"/>
    <path d="M18.05 5.85 L18.8 6.05 19.0 7.4 18.75 8.3 15.25 6.95 12.65 8.0 12.15 8.0 12.15 5.65 12.95 5.25 15.0 6.5 18.05 5.85" fill="#d9a0ab" fill-rule="evenodd" stroke="none"/>
    <path d="M19.5 5.2 L21.15 5.3 23.5 5.2 23.75 5.65 22.55 7.15 20.45 6.75 19.7 7.85 19.0 7.4 18.8 6.05 18.05 5.85 18.9 5.65 19.25 5.2 19.5 5.2" fill="#bc5665" fill-rule="evenodd" stroke="none"/>
    <path d="M19.5 5.2 L19.25 5.2 17.95 4.5 18.2 2.8 17.25 2.6 18.1 2.45 20.9 3.9 18.65 4.3 20.25 4.45 19.5 5.2 M11.2 2.75 L13.95 2.1 13.1 2.4 14.05 2.5 14.9 3.35 14.3 4.35 13.8 4.15 13.35 4.35 13.25 4.85 12.6 5.1 12.25 4.7 11.6 4.75 11.45 6.3 11.7 6.75 10.0 5.85 8.1 7.65 7.9 6.95 7.5 6.55 7.4 6.45 7.5 6.1 7.7 5.85 7.95 5.8 8.3 6.0 9.65 4.7 9.1 4.35 11.15 2.8 11.15 2.75 11.2 2.75" fill="#c73445" fill-rule="evenodd" stroke="none"/>
    <path d="M11.1 7.85 L10.95 8.45 9.8 8.65 11.1 7.85" fill="#651e1e" fill-rule="evenodd" stroke="none"/>
    <path d="M8.35 18.15 L9.8 14.7 8.85 10.0 9.55 10.85 10.05 10.05 10.7 10.6 10.95 9.1 12.15 8.0 12.65 8.0 10.95 11.9 10.75 13.0 10.85 13.45 10.5 14.05 10.5 16.45 10.25 19.05 10.6 18.2 10.5 17.5 10.9 18.0 10.5 19.9 8.65 18.8 8.35 18.15" fill="#c97687" fill-rule="evenodd" stroke="none"/>
    <path d="M8.85 10.0 L10.95 9.1 10.7 10.6 10.05 10.05 9.55 10.85 8.85 10.0" fill="#a85b64" fill-rule="evenodd" stroke="none"/>
    <path d="M10.95 11.9 L11.05 12.45 10.75 13.0 10.95 11.9" fill="#e484a4" fill-rule="evenodd" stroke="none"/>
    <path d="M4.6 18.15 L5.5 18.0 6.85 18.55 7.65 17.95 8.35 18.15 8.65 18.8 10.5 19.9 10.9 18.0 10.5 17.5 10.5 16.45 10.5 14.05 10.85 14.45 Q11.7 14.55 10.95 15.65 L11.35 15.95 12.55 15.4 13.75 15.6 13.55 14.8 15.15 14.55 15.35 13.6 15.95 14.05 15.8 15.05 17.35 15.45 17.75 16.0 16.15 16.45 17.6 18.6 20.05 16.75 19.95 17.6 20.4 17.85 19.9 18.1 19.3 18.05 18.55 18.9 19.15 18.8 18.9 20.1 18.05 20.35 17.7 21.2 17.25 21.05 17.2 21.85 16.4 22.25 16.0 23.1 14.0 22.45 12.15 23.35 10.95 21.85 9.8 21.8 10.9 21.1 10.4 20.4 9.55 20.15 8.85 20.75 9.15 21.6 8.6 22.25 7.45 21.95 7.35 21.45 5.85 23.0 5.05 21.0 5.55 20.75 6.6 20.25 5.75 19.05 5.05 18.8 4.6 18.15 M8.3 20.3 L8.55 19.9 8.1 19.9 8.3 20.3" fill="#af344a" fill-rule="evenodd" stroke="none"/>
    <path d="M9.1 13.8 L9.25 14.7 8.6 15.1 9.1 13.8" fill="#c3334b" fill-rule="evenodd" stroke="none"/>
    <path d="M10.5 17.5 L10.6 18.2 10.25 19.05 10.5 16.45 10.5 17.5" fill="#ec94b1" fill-rule="evenodd" stroke="none"/>
    <path d="M23.5 14.05 L22.8 12.15 23.75 12.15 23.9 13.15 24.7 13.2 24.7 13.4 24.2 14.7 24.15 15.95 24.45 16.45 23.95 16.85 23.55 17.95 22.55 18.4 21.65 17.85 21.35 14.05 22.1 12.85 22.55 14.05 22.75 17.7 23.45 16.75 23.5 14.05" fill="#cc3e5c" fill-rule="evenodd" stroke="none"/>
    <path d="M22.55 14.05 L23.05 13.45 23.5 14.05 23.45 16.75 22.75 17.7 22.55 14.05" fill="#6e1d24" fill-rule="evenodd" stroke="none"/>
    <path d="M24.45 16.45 L24.7 18.15 23.85 18.75 22.55 18.4 23.55 17.95 23.95 16.85 24.45 16.45" fill="#ea5583" fill-rule="evenodd" stroke="none"/>
    <path d="M4.65 12.5 L4.65 12.75 4.6 12.75 4.65 12.5" fill="#67393b" fill-rule="evenodd" stroke="none"/>
    <path d="M4.7 14.3 L4.6 13.85 4.6 12.75 4.65 12.75 4.7 14.3" fill="#5e252a" fill-rule="evenodd" stroke="none"/>
    <path d="M4.4 18.15 L4.6 18.15 5.05 18.8 5.2 20.4 5.55 20.75 5.05 21.0 4.4 18.15" fill="#de6e9a" fill-rule="evenodd" stroke="none"/>
    <path d="M5.55 20.75 L5.2 20.4 5.05 18.8 5.75 19.05 6.6 20.25 5.55 20.75" fill="#f8559a" fill-rule="evenodd" stroke="none"/>
    <path d="M19.0 23.3 L18.9 23.5 18.65 23.6 18.4 23.5 18.3 23.3 18.4 23.1 18.65 23.0 18.9 23.1 19.0 23.3" fill="#ce4f52" fill-rule="evenodd" stroke="none"/>
    <path d="M21.35 25.9 Q19.85 27.65 17.45 28.25 11.15 30.05 6.95 25.1 L7.65 25.5 8.35 25.3 9.75 25.8 9.75 26.75 11.0 27.4 12.3 27.75 13.2 26.95 17.3 27.55 18.2 26.95 19.75 26.75 20.65 25.95 21.35 25.9" fill="#c05b64" fill-rule="evenodd" stroke="none"/>
    <path d="M21.05 19.2 L21.0 19.3 Q20.7 18.35 21.05 19.2" fill="#cc505f" fill-rule="evenodd" stroke="none"/>
    <path d="M8.3 20.3 L8.1 19.9 8.55 19.9 8.3 20.3" fill="#ac2c32" fill-rule="evenodd" stroke="none"/>
  </g>
</svg>
