<?xml version="1.0" encoding="UTF-8" standalone="no"?>
<svg xmlns:ffdec="https://www.free-decompiler.com/flash" xmlns:xlink="http://www.w3.org/1999/xlink" ffdec:objectType="shape" height="9.75px" width="15.95px" xmlns="http://www.w3.org/2000/svg">
  <g transform="matrix(1.0, 0.0, 0.0, 1.0, 9.4, 8.0)">
    <path d="M5.9 -6.5 L5.3 -6.55 4.65 -6.1 5.15 -6.2 5.7 -6.1 Q6.2 -5.05 5.6 -3.8 L4.55 -2.05 Q5.5 -3.7 5.55 -5.35 L5.55 -5.85 5.4 -5.95 Q4.25 -5.95 3.95 -4.9 L3.8 -4.5 3.3 -2.85 3.3 -2.7 3.3 -2.4 3.4 -1.75 3.6 -1.3 3.75 -1.05 3.8 -1.1 3.85 -1.05 4.0 -1.0 4.05 -1.05 4.15 -1.0 Q4.5 -1.1 4.75 -1.3 6.0 -2.85 6.2 -4.75 6.3 -5.7 5.9 -6.5 M5.5 -6.9 L6.0 -6.75 6.4 -6.4 Q6.8 -4.7 6.05 -3.0 L5.15 -1.15 5.0 -1.0 4.45 -0.55 3.9 -0.4 3.25 -0.25 2.8 0.0 2.75 0.0 2.2 0.4 1.7 0.7 1.3 0.95 1.25 1.0 0.75 1.45 0.0 1.75 Q-2.65 1.35 -2.8 -1.25 L-2.75 -1.6 -2.65 -1.95 -2.05 -1.8 -2.1 -0.8 -1.6 0.4 -1.4 0.6 -0.65 0.95 Q0.25 1.45 0.9 0.8 L1.05 0.55 1.2 0.4 1.05 0.3 0.5 0.75 -0.55 0.7 -0.6 0.65 -0.5 0.5 -0.05 0.1 0.5 -0.25 0.0 -1.05 Q-0.4 -1.75 -0.35 -2.5 L-0.35 -3.3 -0.4 -3.25 -1.3 -3.05 -1.95 -2.6 -2.0 -2.45 -2.05 -2.4 -2.05 -2.3 -2.5 -2.4 -2.0 -3.1 -1.75 -3.3 -0.9 -3.45 Q-0.6 -3.55 -0.35 -3.75 L-0.2 -3.95 0.1 -4.35 0.5 -4.65 0.8 -4.75 1.55 -4.9 1.6 -4.95 1.65 -5.0 1.65 -4.95 2.05 -5.15 3.25 -5.75 3.75 -6.0 4.95 -6.7 5.5 -6.9 M3.45 -4.75 L3.85 -5.35 3.8 -5.6 3.8 -5.75 3.65 -5.65 3.0 -5.35 2.55 -5.1 1.7 -4.75 1.65 -4.7 1.45 -4.6 1.25 -4.55 0.95 -4.45 0.7 -4.4 0.55 -4.35 0.45 -4.25 0.2 -3.6 0.2 -2.5 Q0.2 -2.05 0.35 -1.6 0.5 -1.0 0.8 -0.5 L1.2 -0.15 2.25 0.0 1.8 -0.1 1.4 -0.3 1.25 -0.55 1.35 -0.65 1.4 -0.6 1.5 -0.85 2.0 -1.2 2.95 -1.55 3.1 -1.55 3.0 -1.9 2.25 -1.6 1.9 -1.4 1.7 -1.35 1.65 -1.45 1.75 -1.65 2.65 -2.2 3.0 -2.3 3.0 -3.2 3.3 -4.25 3.45 -4.75 M2.55 -0.35 L2.65 -0.45 2.8 -0.5 3.6 -0.8 3.35 -1.0 2.25 -0.35 2.55 -0.35" fill="#006600" fill-rule="evenodd" stroke="none"/>
    <path d="M4.95 -6.7 L5.35 -7.95 5.45 -8.0 Q5.85 -7.55 5.5 -6.9 L4.95 -6.7 M-2.65 -1.95 L-3.6 -2.2 -4.55 -2.4 -5.45 -2.65 -6.4 -2.85 -7.1 -3.05 -8.2 -3.4 -9.2 -3.85 -9.35 -4.05 -9.4 -4.2 -9.35 -4.25 -9.35 -4.3 -9.2 -4.4 -8.5 -4.05 -7.7 -3.75 -6.9 -3.5 -6.1 -3.2 -5.7 -3.1 -3.9 -2.7 -2.5 -2.4 -2.05 -2.3 -1.55 -2.1 -1.45 -1.9 Q-1.55 -1.8 -1.75 -1.75 L-2.05 -1.8 -2.65 -1.95" fill="#666666" fill-rule="evenodd" stroke="none"/>
    <path d="M3.45 -4.75 L3.3 -4.25 3.0 -3.2 3.0 -2.3 2.65 -2.2 1.75 -1.65 1.65 -1.45 1.7 -1.35 1.9 -1.4 2.25 -1.6 3.0 -1.9 3.1 -1.55 2.95 -1.55 2.0 -1.2 1.5 -0.85 1.4 -0.6 1.35 -0.65 1.25 -0.55 1.4 -0.3 1.8 -0.1 2.25 0.0 1.2 -0.15 0.8 -0.5 Q0.5 -1.0 0.35 -1.6 0.2 -2.05 0.2 -2.5 L0.2 -3.6 0.45 -4.25 0.55 -4.35 0.7 -4.4 0.95 -4.45 1.25 -4.55 1.45 -4.6 1.65 -4.7 1.7 -4.75 2.55 -5.1 3.0 -5.35 3.65 -5.65 3.8 -5.75 3.8 -5.6 2.05 -4.6 1.3 -4.35 1.1 -4.25 Q0.95 -4.1 1.1 -3.95 L1.7 -3.95 2.7 -4.3 Q3.1 -4.45 3.45 -4.75 M0.75 -4.25 L0.7 -4.25 0.6 -4.1 0.4 -3.75 0.3 -3.3 Q0.15 -2.7 0.3 -2.1 L0.65 -1.2 1.15 -0.65 1.1 -0.95 1.0 -1.25 0.85 -1.8 0.7 -3.3 Q0.7 -3.75 0.85 -4.1 L0.75 -4.25 M-2.05 -2.3 L-2.05 -2.4 -2.0 -2.45 -1.95 -2.6 -1.3 -3.05 -0.4 -3.25 -0.35 -3.3 -0.35 -2.5 Q-0.4 -1.75 0.0 -1.05 L0.5 -0.25 -0.05 0.1 -0.5 0.5 -0.6 0.65 -0.55 0.7 0.5 0.75 1.05 0.3 1.2 0.4 1.05 0.55 0.9 0.8 Q0.25 1.45 -0.65 0.95 L-1.4 0.6 -1.6 0.4 -2.1 -0.8 -2.05 -1.8 -1.75 -1.75 Q-1.55 -1.8 -1.45 -1.9 L-1.55 -2.1 -2.05 -2.3 M2.55 -0.35 L2.25 -0.35 3.35 -1.0 3.6 -0.8 2.8 -0.5 2.65 -0.45 2.55 -0.35 M-0.85 -2.5 L-0.45 -2.95 -0.5 -3.0 -0.8 -3.1 -1.45 -2.85 -1.6 -2.75 -1.65 -2.65 -1.6 -2.5 -1.45 -2.45 -0.85 -2.5" fill="#009933" fill-rule="evenodd" stroke="none"/>
    <path d="M5.9 -6.5 Q6.3 -5.7 6.2 -4.75 6.0 -2.85 4.75 -1.3 4.5 -1.1 4.15 -1.0 L4.05 -1.05 4.0 -1.0 3.85 -1.05 3.8 -1.1 3.75 -1.05 3.6 -1.3 3.4 -1.75 3.3 -2.4 3.3 -2.7 3.3 -2.85 3.8 -4.5 3.95 -4.9 Q4.25 -5.95 5.4 -5.95 L5.55 -5.85 5.55 -5.35 Q5.5 -3.7 4.55 -2.05 L5.6 -3.8 Q6.2 -5.05 5.7 -6.1 L5.15 -6.2 4.65 -6.1 5.3 -6.55 5.9 -6.5" fill="#928d7e" fill-rule="evenodd" stroke="none"/>
    <path d="M3.8 -5.6 L3.85 -5.35 3.45 -4.75 Q3.1 -4.45 2.7 -4.3 L1.7 -3.95 1.1 -3.95 Q0.95 -4.1 1.1 -4.25 L1.3 -4.35 2.05 -4.6 3.8 -5.6 M0.75 -4.25 L0.85 -4.1 Q0.7 -3.75 0.7 -3.3 L0.85 -1.8 1.0 -1.25 1.1 -0.95 1.15 -0.65 0.65 -1.2 0.3 -2.1 Q0.15 -2.7 0.3 -3.3 L0.4 -3.75 0.6 -4.1 0.7 -4.25 0.75 -4.25 M-0.85 -2.5 L-1.45 -2.45 -1.6 -2.5 -1.65 -2.65 -1.6 -2.75 -1.45 -2.85 -0.8 -3.1 -0.5 -3.0 -0.45 -2.95 -0.85 -2.5" fill="#ffffff" fill-rule="evenodd" stroke="none"/>
  </g>
</svg>
