<?xml version="1.0" encoding="UTF-8" standalone="no"?>
<svg xmlns:ffdec="https://www.free-decompiler.com/flash" xmlns:xlink="http://www.w3.org/1999/xlink" ffdec:objectType="shape" height="26.2px" width="25.9px" xmlns="http://www.w3.org/2000/svg">
  <g transform="matrix(1.0, 0.0, 0.0, 1.0, -2.0, -2.1)">
    <path d="M13.6 18.45 L13.65 19.65 12.75 18.0 13.6 18.45" fill="#c4dbed" fill-rule="evenodd" stroke="none"/>
    <path d="M20.55 24.6 L23.4 25.0 22.65 27.05 26.1 27.5 26.15 27.65 26.45 27.55 27.65 27.65 27.35 19.55 27.9 28.3 14.95 26.55 14.9 26.35 20.45 27.25 20.3 24.45 20.55 24.6 M17.75 5.45 L16.8 5.8 17.1 4.9 17.75 5.45 M5.45 4.4 L4.65 4.95 3.0 3.65 2.4 3.55 2.65 6.35 2.9 5.55 3.05 6.0 3.15 6.4 2.8 6.8 2.9 7.0 3.15 7.2 3.25 6.85 3.45 7.45 3.4 8.4 3.1 8.9 4.3 14.85 4.65 15.25 4.85 15.05 5.1 15.3 5.35 15.15 5.45 15.95 5.05 15.9 5.05 17.15 5.3 16.9 5.15 17.55 5.55 17.6 5.45 18.55 5.75 18.55 6.25 19.85 3.8 17.3 2.8 10.05 2.95 9.5 2.65 9.0 2.5 7.35 2.65 8.25 3.05 7.5 2.45 6.95 2.0 2.1 4.65 2.55 2.65 2.6 3.3 3.5 3.8 3.5 3.95 3.85 4.9 4.05 5.45 4.4 M8.4 20.65 L8.95 20.95 7.85 21.45 7.45 21.0 8.4 20.65 M9.3 20.8 L10.7 20.75 10.9 20.35 11.45 20.8 11.65 20.6 11.65 21.0 12.25 21.3 12.35 21.05 11.7 20.3 11.25 20.1 10.95 20.2 11.15 19.05 14.45 22.4 14.85 22.85 15.0 23.0 13.05 21.65 12.7 21.65 13.4 22.6 14.5 24.15 14.75 24.3 14.9 24.25 14.9 24.1 14.75 23.9 15.05 23.35 15.5 23.7 15.65 24.35 16.3 24.45 16.6 24.6 16.55 24.15 17.65 24.75 15.75 24.7 15.6 25.1 15.9 25.55 11.15 21.65 10.95 21.3 10.85 21.15 10.7 21.4 9.3 20.8 M4.25 15.65 L4.15 16.7 4.5 17.2 4.25 15.65 M11.65 25.35 L11.75 24.8 12.55 24.55 15.95 25.95 15.0 25.75 14.85 26.25 Q14.25 25.8 13.6 25.8 12.9 25.75 12.55 26.25 L11.65 25.35 M15.05 23.05 L15.6 23.2 15.55 23.35 15.6 23.5 15.05 23.05 M22.45 27.3 L21.85 25.75 20.85 26.6 21.05 26.8 21.05 27.15 22.0 27.45 22.45 27.3" fill="#949595" fill-rule="evenodd" stroke="none"/>
    <path d="M8.95 20.95 L9.3 20.8 10.7 21.4 10.6 21.65 10.2 22.35 10.9 23.35 11.75 23.4 12.25 24.6 10.6 24.3 7.85 21.45 8.95 20.95" fill="#3a4243" fill-rule="evenodd" stroke="none"/>
    <path d="M6.25 19.85 L5.75 18.55 5.45 18.55 5.55 17.6 5.15 17.55 5.3 16.9 5.75 16.65 5.8 15.95 8.2 19.7 8.4 20.65 7.45 21.0 6.25 19.85" fill="#595c57" fill-rule="evenodd" stroke="none"/>
    <path d="M3.15 6.4 L3.3 6.65 3.25 6.85 3.15 7.2 2.9 7.0 2.8 6.8 3.15 6.4 M3.45 7.45 L3.7 8.2 3.4 8.4 3.45 7.45 M2.45 6.95 L3.05 7.5 2.65 8.25 2.5 7.35 2.45 6.95 M2.65 9.0 L2.95 9.5 2.8 10.05 2.65 9.0" fill="#c5dbda" fill-rule="evenodd" stroke="none"/>
    <path d="M11.95 5.85 L11.85 5.95 12.2 6.6 10.1 6.55 10.7 7.8 11.1 7.55 11.5 7.8 11.85 7.55 11.65 7.95 12.35 7.8 13.6 8.9 13.4 10.3 13.8 10.4 15.05 10.65 14.8 11.15 10.9 10.7 10.7 10.45 10.45 10.55 10.35 10.85 10.2 10.7 9.6 10.65 9.55 10.85 9.85 11.3 9.2 11.5 7.35 9.65 7.05 10.35 6.0 10.35 5.7 8.65 4.6 8.85 4.9 8.15 4.6 8.25 3.55 7.45 3.75 8.25 3.7 8.2 3.45 7.45 3.25 6.85 3.3 6.65 3.15 6.4 3.05 6.0 3.2 5.85 4.3 6.15 4.45 5.8 4.6 6.25 5.25 6.5 5.2 5.6 4.65 4.95 5.45 4.4 5.65 4.6 5.15 5.1 6.0 5.5 5.6 6.2 7.95 6.3 6.5 5.85 9.95 6.5 10.2 5.3 8.5 4.3 8.9 3.95 8.55 3.65 13.05 4.65 12.3 4.55 11.85 5.25 12.0 5.45 11.95 5.85 M14.35 12.25 L14.0 11.95 14.4 11.45 14.75 11.75 14.35 12.25 M5.5 8.0 L5.3 7.45 4.3 7.4 5.5 8.0 M5.2 6.9 L5.05 7.05 5.25 7.35 5.2 6.9" fill="#5b605d" fill-rule="evenodd" stroke="none"/>
    <path d="M8.25 4.5 L8.5 4.3 10.2 5.3 9.95 6.5 6.5 5.85 7.95 6.3 5.6 6.2 6.0 5.5 5.15 5.1 5.65 4.6 5.45 4.4 4.9 4.05 8.05 4.8 8.25 4.5 M4.65 4.95 L5.2 5.6 5.25 6.5 4.6 6.25 4.45 5.8 4.3 6.15 3.2 5.85 3.05 6.0 2.9 5.55 2.65 6.35 2.4 3.55 3.0 3.65 4.65 4.95 M5.5 8.0 L4.3 7.4 5.3 7.45 5.5 8.0 M5.2 6.9 L5.25 7.35 5.05 7.05 5.2 6.9" fill="#373c3a" fill-rule="evenodd" stroke="none"/>
    <path d="M6.15 2.75 L8.15 3.3 8.0 3.65 8.2 3.95 6.9 3.45 6.85 3.8 8.25 4.5 8.05 4.8 4.9 4.05 3.95 3.85 3.8 3.5 3.3 3.5 2.65 2.6 4.65 2.55 6.15 2.75 M4.35 3.1 L5.25 3.55 4.8 3.05 4.35 3.1" fill="#5f6564" fill-rule="evenodd" stroke="none"/>
    <path d="M4.35 3.1 L4.8 3.05 5.25 3.55 4.35 3.1" fill="#e1eff4" fill-rule="evenodd" stroke="none"/>
    <path d="M4.75 8.95 L4.95 9.0 5.05 9.2 5.0 9.4 4.8 9.45 4.65 9.4 4.55 9.25 Q4.5 9.1 4.6 9.05 L4.75 8.95" fill="#656b69" fill-rule="evenodd" stroke="none"/>
    <path d="M5.3 16.9 L5.05 17.15 5.05 15.9 5.45 15.95 5.7 15.7 5.8 15.95 5.75 16.65 5.3 16.9" fill="#3c423a" fill-rule="evenodd" stroke="none"/>
    <path d="M3.75 8.25 L5.15 11.6 4.45 10.7 5.55 13.4 5.25 11.75 6.3 14.8 5.65 15.1 5.7 15.7 5.45 15.95 5.35 15.15 5.1 15.3 4.85 15.05 4.65 15.25 4.3 14.85 3.1 8.9 3.4 8.4 3.7 8.2 3.75 8.25 M6.7 14.95 L6.55 13.4 7.1 15.25 6.7 14.95 M7.85 15.25 L7.6 12.85 7.9 11.95 8.35 12.55 8.15 13.15 8.45 13.2 Q8.65 14.8 10.4 15.2 L11.1 18.3 12.3 18.2 13.3 19.65 13.0 20.25 14.85 21.55 14.3 21.6 14.8 21.65 14.4 22.1 14.45 22.4 11.15 19.05 11.15 18.8 7.85 15.25 M14.95 21.6 L16.4 22.55 17.0 22.55 16.85 22.7 16.85 23.15 16.2 22.95 Q15.8 22.95 15.6 23.2 L15.05 23.05 15.0 23.0 14.85 22.85 15.4 22.0 14.95 21.6 M6.55 13.25 L6.35 12.5 7.15 13.35 6.55 13.25 M4.25 15.65 L4.5 17.2 4.15 16.7 4.25 15.65 M14.5 24.15 L14.75 23.9 14.9 24.1 14.9 24.25 14.75 24.3 14.5 24.15 M18.95 23.45 L17.9 23.2 17.9 22.95 18.95 23.45" fill="#4c585a" fill-rule="evenodd" stroke="none"/>
    <path d="M7.6 12.85 L7.35 11.25 7.9 11.95 7.6 12.85" fill="#2d3732" fill-rule="evenodd" stroke="none"/>
    <path d="M5.15 11.6 L5.25 11.75 5.55 13.4 4.45 10.7 5.15 11.6" fill="#323a36" fill-rule="evenodd" stroke="none"/>
    <path d="M6.3 14.8 L6.7 14.95 7.1 15.25 Q7.2 15.1 7.4 15.1 L7.85 15.25 11.15 18.8 11.15 19.05 10.95 20.2 10.9 20.35 10.7 20.75 9.3 20.8 8.95 20.95 8.4 20.65 8.2 19.7 5.8 15.95 5.7 15.7 5.65 15.1 6.3 14.8" fill="#51696d" fill-rule="evenodd" stroke="none"/>
    <path d="M26.3 15.25 L26.15 14.25 26.45 14.05 27.35 19.55 27.65 27.65 26.45 27.55 26.0 26.55 26.1 27.5 22.65 27.05 23.4 25.0 20.55 24.6 20.45 24.0 21.35 23.25 21.8 23.5 22.3 23.3 21.85 23.65 22.65 23.65 22.65 22.0 20.65 21.2 20.5 20.3 20.5 17.3 20.15 17.5 19.8 16.3 18.65 16.4 15.35 13.05 15.8 12.15 14.9 12.85 15.1 11.15 20.35 15.85 22.15 15.0 23.1 14.45 23.4 14.7 23.5 15.15 23.95 14.95 24.35 15.5 25.35 15.4 25.55 14.7 25.45 17.05 26.25 17.0 26.35 15.75 26.5 15.6 26.3 15.25 M24.95 21.3 L24.2 21.35 25.0 24.35 24.3 23.9 24.15 25.0 25.9 25.2 25.35 24.5 26.1 24.9 25.85 24.1 25.55 24.1 25.2 23.8 24.95 21.3 M26.2 21.7 L26.75 21.55 26.6 20.05 26.15 19.9 26.2 21.7 M25.85 19.05 L26.3 19.05 25.8 17.35 25.85 19.05 M26.35 26.35 L27.1 26.65 26.35 26.0 26.35 26.35" fill="#605d53" fill-rule="evenodd" stroke="none"/>
    <path d="M25.8 13.1 L25.5 13.4 25.85 13.85 25.8 13.1 M24.9 12.35 L22.55 9.8 22.45 10.25 24.7 12.65 24.5 12.2 24.85 12.35 24.9 12.35 M26.15 14.25 L26.3 15.25 25.9 15.1 25.75 14.3 25.55 14.7 25.35 15.4 24.35 15.5 23.95 14.95 23.5 15.15 23.4 14.7 23.1 14.45 22.15 15.0 21.9 14.65 19.95 15.3 16.75 12.1 17.0 11.9 15.05 10.65 13.8 10.4 Q14.35 9.7 13.95 8.6 13.55 7.5 12.5 6.65 L11.85 5.95 11.95 5.85 14.55 6.35 14.9 5.7 13.8 4.9 15.4 4.55 15.55 4.25 16.35 4.35 16.55 4.7 16.6 4.45 17.55 4.45 25.95 12.95 26.15 14.25 M24.0 13.8 L24.05 12.95 23.2 13.2 24.0 13.8 M17.75 5.45 L17.95 5.6 18.0 6.65 19.4 8.0 18.95 7.0 21.35 8.65 17.4 4.65 16.95 4.8 17.1 4.9 16.8 5.8 17.75 5.45 M16.05 5.95 L16.4 5.45 14.55 5.0 15.05 5.6 16.05 5.95 M16.65 6.25 L17.4 6.65 16.8 6.0 16.65 6.25" fill="#f2f8fb" fill-rule="evenodd" stroke="none"/>
    <path d="M12.5 6.65 Q13.55 7.5 13.95 8.6 14.35 9.7 13.8 10.4 L13.4 10.3 13.6 8.9 12.35 7.8 11.65 7.95 11.85 7.55 11.5 7.8 11.1 7.55 10.7 7.8 10.1 6.55 12.2 6.6 12.35 6.65 12.5 6.65" fill="#94aec1" fill-rule="evenodd" stroke="none"/>
    <path d="M11.85 5.95 L12.5 6.65 12.35 6.65 12.2 6.6 11.85 5.95" fill="#93a29a" fill-rule="evenodd" stroke="none"/>
    <path d="M24.9 12.35 L24.85 12.35 24.5 12.2 24.7 12.65 22.45 10.25 22.55 9.8 24.9 12.35 M25.8 13.1 L25.85 13.85 25.5 13.4 25.8 13.1 M24.0 13.8 L23.2 13.2 24.05 12.95 24.0 13.8 M16.05 5.95 L15.05 5.6 14.55 5.0 16.4 5.45 16.05 5.95 M17.1 4.9 L16.95 4.8 17.4 4.65 21.35 8.65 18.95 7.0 19.4 8.0 18.0 6.65 17.95 5.6 17.75 5.45 17.1 4.9 M16.65 6.25 L16.8 6.0 17.4 6.65 16.65 6.25" fill="#98a6c1" fill-rule="evenodd" stroke="none"/>
    <path d="M14.85 26.25 L14.9 26.35 14.95 26.55 12.55 26.25 Q12.9 25.75 13.6 25.8 14.25 25.8 14.85 26.25" fill="#455b72" fill-rule="evenodd" stroke="none"/>
    <path d="M10.6 21.65 L10.7 23.0 11.05 22.45 12.35 24.15 12.55 24.55 11.75 24.8 11.65 25.35 10.6 24.3 12.25 24.6 11.75 23.4 10.9 23.35 10.2 22.35 10.6 21.65" fill="#4e657a" fill-rule="evenodd" stroke="none"/>
    <path d="M13.4 22.6 L12.7 21.65 13.05 21.65 15.0 23.0 15.05 23.05 15.6 23.5 16.55 24.15 16.6 24.6 16.3 24.45 16.0 23.95 15.65 24.35 15.5 23.7 15.05 23.35 13.4 22.6 M10.7 21.4 L10.8 21.6 10.95 21.3 11.15 21.65 12.65 23.3 12.25 23.45 12.35 24.15 11.05 22.45 10.7 23.0 10.6 21.65 10.7 21.4 M11.7 20.3 L12.35 21.05 12.25 21.3 11.65 21.0 11.65 20.6 11.7 20.3" fill="#95b4d3" fill-rule="evenodd" stroke="none"/>
    <path d="M10.95 21.3 L10.8 21.6 10.7 21.4 10.85 21.15 10.95 21.3 M12.35 24.15 L12.25 23.45 12.65 23.3 11.15 21.65 15.9 25.55 16.2 25.95 15.95 25.95 12.55 24.55 12.35 24.15 M14.75 23.9 L14.5 24.15 13.4 22.6 15.05 23.35 14.75 23.9 M15.65 24.35 L16.0 23.95 16.3 24.45 15.65 24.35" fill="#c9e3f3" fill-rule="evenodd" stroke="none"/>
    <path d="M10.9 20.35 L10.95 20.2 11.25 20.1 11.7 20.3 11.65 20.6 11.45 20.8 10.9 20.35" fill="#3d5362" fill-rule="evenodd" stroke="none"/>
    <path d="M14.9 21.5 L14.95 21.6 15.4 22.0 14.85 22.85 14.45 22.4 14.4 22.1 14.8 21.65 14.9 21.5" fill="#2f3839" fill-rule="evenodd" stroke="none"/>
    <path d="M14.85 21.55 L14.9 21.5 14.8 21.65 14.3 21.6 14.85 21.55" fill="#293537" fill-rule="evenodd" stroke="none"/>
    <path d="M17.8 22.45 L16.6 22.4 15.9 20.8 17.8 22.45" fill="#cde9f6" fill-rule="evenodd" stroke="none"/>
    <path d="M20.3 24.1 L20.3 24.45 20.45 27.25 14.9 26.35 14.85 26.25 15.0 25.75 15.95 25.95 16.2 25.95 15.9 25.55 15.6 25.1 15.75 24.7 17.65 24.75 16.55 24.15 15.6 23.5 15.55 23.35 15.6 23.2 Q15.8 22.95 16.2 22.95 L16.85 23.15 20.3 24.1" fill="#bbcad5" fill-rule="evenodd" stroke="none"/>
    <path d="M20.45 24.0 L20.55 24.6 20.3 24.45 20.3 24.1 20.45 24.0" fill="#b4c1c5" fill-rule="evenodd" stroke="none"/>
    <path d="M22.5 22.5 L22.45 22.8 22.15 23.0 21.85 22.9 21.65 22.6 21.75 22.3 Q21.85 22.15 22.05 22.15 L22.35 22.2 22.5 22.5" fill="#fafaea" fill-rule="evenodd" stroke="none"/>
    <path d="M19.8 16.3 L20.15 17.5 20.5 17.3 20.5 20.3 19.8 16.3" fill="#2d3d3b" fill-rule="evenodd" stroke="none"/>
    <path d="M22.45 27.3 L22.0 27.45 21.05 27.15 21.05 26.8 20.85 26.6 21.85 25.75 22.45 27.3" fill="#596a77" fill-rule="evenodd" stroke="none"/>
    <path d="M26.1 27.5 L26.0 26.55 26.45 27.55 26.15 27.65 26.1 27.5" fill="#9aadb4" fill-rule="evenodd" stroke="none"/>
    <path d="M24.95 21.3 L25.2 23.8 25.55 24.1 25.85 24.1 26.1 24.9 25.35 24.5 25.9 25.2 24.15 25.0 24.3 23.9 25.0 24.35 24.2 21.35 24.95 21.3" fill="#2c3230" fill-rule="evenodd" stroke="none"/>
    <path d="M26.35 26.35 L26.35 26.0 27.1 26.65 26.35 26.35" fill="#889b9c" fill-rule="evenodd" stroke="none"/>
    <path d="M26.3 15.25 L26.5 15.6 26.35 15.75 26.25 17.0 25.45 17.05 25.55 14.7 25.75 14.3 25.9 15.1 26.3 15.25 M25.85 19.05 L25.8 17.35 26.3 19.05 25.85 19.05 M26.2 21.7 L26.15 19.9 26.6 20.05 26.75 21.55 26.2 21.7" fill="#9fb4be" fill-rule="evenodd" stroke="none"/>
    <path d="M22.15 15.0 L20.35 15.85 15.1 11.15 14.9 12.85 15.8 12.15 15.35 13.05 18.65 16.4 19.8 16.3 20.5 20.3 20.65 21.2 22.65 22.0 22.65 23.65 21.85 23.65 22.3 23.3 21.8 23.5 21.35 23.25 20.45 24.0 20.3 24.1 16.85 23.15 16.85 22.7 17.0 22.55 16.4 22.55 14.95 21.6 14.9 21.5 14.85 21.55 13.0 20.25 13.3 19.65 12.3 18.2 11.1 18.3 10.4 15.2 Q8.65 14.8 8.45 13.2 L8.15 13.15 8.35 12.55 7.9 11.95 7.35 11.25 7.6 12.85 7.85 15.25 7.4 15.1 Q7.2 15.1 7.1 15.25 L6.55 13.4 6.7 14.95 6.3 14.8 5.25 11.75 5.15 11.6 3.75 8.25 3.55 7.45 4.6 8.25 4.9 8.15 4.6 8.85 5.7 8.65 6.0 10.35 7.05 10.35 7.35 9.65 9.2 11.5 9.85 11.3 9.55 10.85 9.6 10.65 10.2 10.7 10.35 10.85 10.45 10.55 10.7 10.45 10.9 10.7 14.8 11.15 15.05 10.65 17.0 11.9 16.75 12.1 19.95 15.3 21.9 14.65 22.15 15.0 M26.45 14.05 L26.15 14.25 25.95 12.95 17.55 4.45 16.6 4.45 16.55 4.7 16.35 4.35 15.55 4.25 15.4 4.55 13.8 4.9 14.9 5.7 14.55 6.35 11.95 5.85 12.0 5.45 11.85 5.25 12.3 4.55 13.05 4.65 8.55 3.65 8.9 3.95 8.5 4.3 8.25 4.5 6.85 3.8 6.9 3.45 8.2 3.95 8.0 3.65 8.15 3.3 6.15 2.75 17.7 4.25 26.25 12.9 26.45 14.05 M22.5 22.5 L22.35 22.2 22.05 22.15 Q21.85 22.15 21.75 22.3 L21.65 22.6 21.85 22.9 22.15 23.0 22.45 22.8 22.5 22.5 M14.35 12.25 L14.75 11.75 14.4 11.45 14.0 11.95 14.35 12.25 M4.75 8.95 L4.6 9.05 Q4.5 9.1 4.55 9.25 L4.65 9.4 4.8 9.45 5.0 9.4 5.05 9.2 4.95 9.0 4.75 8.95 M6.55 13.25 L7.15 13.35 6.35 12.5 6.55 13.25 M13.6 18.45 L12.75 18.0 13.65 19.65 13.6 18.45 M18.95 23.45 L17.9 22.95 17.9 23.2 18.95 23.45 M17.8 22.45 L15.9 20.8 16.6 22.4 17.8 22.45" fill="#c5c5c5" fill-rule="evenodd" stroke="none"/>
  </g>
</svg>
