<?xml version="1.0" encoding="UTF-8" standalone="no"?>
<svg xmlns:ffdec="https://www.free-decompiler.com/flash" xmlns:xlink="http://www.w3.org/1999/xlink" ffdec:objectType="shape" height="26.35px" width="26.05px" xmlns="http://www.w3.org/2000/svg">
  <g transform="matrix(1.0, 0.0, 0.0, 1.0, -2.05, -1.85)">
    <path d="M20.0 13.25 L21.85 10.6 22.3 10.65 23.0 10.0 22.0 7.75 22.65 6.7 22.1 6.2 19.9 7.85 16.9 9.55 16.45 5.0 15.85 4.8 14.9 7.8 13.8 10.0 10.25 7.2 9.8 7.35 8.35 6.4 7.9 6.85 9.45 9.55 7.95 9.1 7.9 9.1 7.4 9.8 10.3 12.5 10.15 13.85 10.15 13.9 9.15 15.0 Q7.05 17.4 5.55 20.1 L6.65 20.65 Q7.9 18.0 9.9 15.75 L10.15 15.45 10.25 16.1 10.75 20.9 Q10.8 21.5 11.4 21.85 L12.0 21.65 Q11.45 19.45 11.35 17.2 11.25 16.05 11.3 14.9 L11.3 14.55 Q11.65 14.4 11.95 14.2 L12.35 13.35 11.85 15.5 12.35 15.75 12.85 15.45 13.8 13.6 14.05 13.7 15.3 14.4 16.15 14.05 17.2 14.0 Q18.4 16.85 20.8 18.8 L21.65 18.45 21.7 17.7 Q21.75 15.15 19.55 13.8 L20.0 13.25 M8.95 12.7 L6.15 9.7 5.55 8.95 6.1 8.15 5.25 6.1 5.9 5.15 9.15 5.1 9.6 4.6 9.65 3.35 10.95 2.0 Q11.85 2.35 12.75 2.85 L13.3 3.35 13.7 3.9 14.2 4.1 17.8 1.85 Q20.2 3.4 22.8 3.95 L23.65 4.0 24.7 6.3 25.9 8.1 22.05 12.2 21.55 12.05 20.9 12.4 20.95 13.65 22.0 13.75 25.95 17.8 Q27.75 19.8 28.1 22.65 28.1 23.95 27.15 24.85 26.2 25.75 24.85 25.75 L24.15 25.35 Q22.8 24.3 21.35 23.5 L20.25 23.0 20.05 22.95 17.55 22.55 Q16.35 22.7 15.45 23.3 L15.35 23.35 13.25 24.15 11.7 25.0 11.05 24.9 9.7 24.85 6.85 24.25 Q5.1 23.85 3.55 23.1 2.55 22.55 2.05 22.8 2.35 20.8 3.65 19.05 5.75 16.2 8.45 14.25 L9.15 13.7 9.75 13.5 9.9 13.1 9.55 12.8 8.95 12.7" fill="#cacab5" fill-rule="evenodd" stroke="none"/>
    <path d="M10.3 12.5 L7.4 9.8 7.9 9.1 7.95 9.1 9.45 9.55 7.9 6.85 8.35 6.4 9.8 7.35 10.25 7.2 13.8 10.0 14.9 7.8 15.85 4.8 16.45 5.0 16.9 9.55 19.9 7.85 22.1 6.2 22.65 6.7 22.0 7.75 23.0 10.0 22.3 10.65 21.85 10.6 20.0 13.25 19.95 12.55 19.3 12.0 18.0 12.85 18.1 13.5 19.55 13.8 Q21.75 15.15 21.7 17.7 L21.65 18.45 20.8 18.8 Q18.4 16.85 17.2 14.0 L17.2 13.25 15.8 13.05 16.15 14.05 15.3 14.4 14.05 13.7 14.7 12.8 14.4 12.4 12.95 12.8 12.95 13.4 13.8 13.6 12.85 15.45 12.35 15.75 11.85 15.5 12.35 13.35 12.3 12.8 10.3 12.5 M28.1 22.65 L28.1 23.7 Q27.85 25.75 26.25 26.85 L25.3 26.15 24.85 25.75 Q26.2 25.75 27.15 24.85 28.1 23.95 28.1 22.65 M8.6 27.25 Q6.35 27.85 4.15 26.55 L2.75 25.25 Q1.95 24.15 2.05 22.8 2.55 22.55 3.55 23.1 5.1 23.85 6.85 24.25 L9.7 24.85 11.05 24.9 11.7 25.0 10.2 26.05 8.6 27.25" fill="#96986b" fill-rule="evenodd" stroke="none"/>
    <path d="M10.3 12.5 L12.3 12.8 12.35 13.35 11.95 14.2 Q11.65 14.4 11.3 14.55 L11.3 14.9 Q11.25 16.05 11.35 17.2 11.45 19.45 12.0 21.65 L11.4 21.85 Q10.8 21.5 10.75 20.9 L10.25 16.1 10.15 15.45 9.9 15.75 Q7.9 18.0 6.65 20.65 L5.55 20.1 Q7.05 17.4 9.15 15.0 L10.15 13.9 10.15 13.85 10.3 12.5 M13.8 13.6 L12.95 13.4 12.95 12.8 14.4 12.4 14.7 12.8 14.05 13.7 13.8 13.6 M16.15 14.05 L15.8 13.05 17.2 13.25 17.2 14.0 16.15 14.05 M19.55 13.8 L18.1 13.5 18.0 12.85 19.3 12.0 19.95 12.55 20.0 13.25 19.55 13.8 M22.05 12.2 L22.3 12.8 22.0 13.75 20.95 13.65 20.9 12.4 21.55 12.05 22.05 12.2 M9.15 13.7 L8.8 13.25 8.95 12.75 8.95 12.7 9.55 12.8 9.9 13.1 9.75 13.5 9.15 13.7" fill="#993333" fill-rule="evenodd" stroke="none"/>
    <path d="M24.15 25.35 L24.15 25.45 23.55 25.45 22.35 24.9 21.2 24.4 19.2 23.9 Q16.25 23.45 13.45 24.65 L13.25 24.15 15.35 23.35 15.45 23.3 Q16.35 22.7 17.55 22.55 L20.05 22.95 20.25 23.0 21.35 23.5 Q22.8 24.3 24.15 25.35" fill="#fefdcf" fill-rule="evenodd" stroke="none"/>
    <path d="M13.25 24.15 L13.45 24.65 Q16.25 23.45 19.2 23.9 L21.2 24.4 22.35 24.9 23.55 25.45 24.15 25.45 24.15 25.35 24.85 25.75 25.3 26.15 Q25.55 26.55 25.2 26.55 L24.2 26.6 22.6 26.65 18.8 26.9 14.1 26.75 11.15 26.6 Q10.35 26.5 10.2 26.05 L11.7 25.0 13.25 24.15" fill="#fcfc1b" fill-rule="evenodd" stroke="none"/>
    <path d="M26.25 26.85 L27.15 27.7 27.15 27.8 25.65 27.9 24.35 28.0 12.8 28.15 8.7 27.75 8.55 27.65 8.6 27.25 10.2 26.05 Q10.35 26.5 11.15 26.6 L14.1 26.75 18.8 26.9 22.6 26.65 24.2 26.6 25.2 26.55 Q25.55 26.55 25.3 26.15 L26.25 26.85" fill="#b1b103" fill-rule="evenodd" stroke="none"/>
  </g>
</svg>
