<?xml version="1.0" encoding="UTF-8" standalone="no"?>
<svg xmlns:ffdec="https://www.free-decompiler.com/flash" xmlns:xlink="http://www.w3.org/1999/xlink" ffdec:objectType="shape" height="22.05px" width="26.05px" xmlns="http://www.w3.org/2000/svg">
  <g transform="matrix(1.0, 0.0, 0.0, 1.0, -1.85, -3.95)">
    <path d="M21.25 4.3 L21.2 4.3 22.1 4.3 21.25 4.3 M20.0 4.3 L19.85 4.4 19.85 4.3 20.0 4.3 M27.9 20.25 L27.8 20.7 27.55 20.85 27.9 20.25" fill="#4b4a34" fill-rule="evenodd" stroke="none"/>
    <path d="M21.0 5.3 L21.1 5.1 21.25 4.3 22.1 4.3 25.95 9.15 21.0 5.3 M10.5 5.75 L10.05 6.6 Q9.6 6.95 8.95 6.95 8.95 6.45 9.4 6.1 9.85 5.75 10.5 5.75 M7.95 7.3 L3.9 10.2 3.8 9.55 4.65 9.45 5.3 8.95 Q5.45 8.6 5.25 8.3 5.0 7.95 4.4 7.8 L7.95 7.3 M8.35 18.4 L14.55 19.1 8.8 19.35 8.45 18.65 8.35 18.4 M18.95 20.45 L20.0 20.65 Q19.6 22.9 18.05 21.15 L18.95 20.45 M21.2 20.6 Q21.2 19.6 22.05 18.9 22.85 18.15 24.05 18.15 24.85 20.0 22.9 20.35 L21.2 20.6 M27.3 13.25 L21.65 17.15 23.2 14.45 23.8 10.5 23.85 11.1 Q24.65 15.1 26.35 11.8 L26.6 11.85 27.5 12.3 27.3 13.25 M25.2 14.4 L25.35 14.05 25.2 13.7 24.85 13.55 Q24.65 13.55 24.5 13.7 L24.35 14.05 24.5 14.4 24.85 14.55 25.2 14.4 M13.65 7.7 L14.7 7.45 Q15.1 7.15 15.1 6.75 16.1 6.75 16.85 7.4 17.55 8.05 17.55 8.95 17.15 9.0 17.05 9.2 15.7 11.15 18.55 11.15 21.05 13.05 17.85 13.9 L17.1 13.9 15.1 12.75 Q15.1 12.5 15.4 12.3 15.65 12.1 16.0 12.1 L15.7 9.95 13.65 7.7 M7.1 11.95 Q6.8 12.4 6.95 12.7 7.6 14.9 8.5 12.2 L8.5 15.25 8.75 16.15 5.15 14.75 7.1 11.95 M18.75 17.55 Q18.75 17.3 18.9 17.15 19.05 17.0 19.3 17.0 L19.7 17.15 19.85 17.55 19.7 17.95 19.3 18.1 18.9 17.95 18.75 17.55" fill="#918c5b" fill-rule="evenodd" stroke="none"/>
    <path d="M21.0 5.3 L20.6 5.5 Q20.3 5.55 20.1 5.25 19.85 4.9 19.85 4.4 L20.0 4.3 21.2 4.3 21.25 4.3 21.1 5.1 21.0 5.3 M15.9 4.45 L15.75 5.15 Q15.5 5.45 15.15 5.45 L14.6 5.15 Q14.35 4.85 14.35 4.45 L15.35 3.95 15.9 4.45 M11.3 4.8 L11.3 5.6 10.5 5.75 Q9.85 5.75 9.4 6.1 8.95 6.45 8.95 6.95 L8.45 6.95 Q8.45 6.05 9.3 5.45 10.1 4.8 11.3 4.8 M23.8 10.5 L25.6 10.9 Q26.35 11.25 26.35 11.8 24.65 15.1 23.85 11.1 L23.8 10.5 M25.2 14.4 L24.85 14.55 24.5 14.4 24.35 14.05 24.5 13.7 Q24.65 13.55 24.85 13.55 L25.2 13.7 25.35 14.05 25.2 14.4 M15.1 6.75 Q15.1 7.15 14.7 7.45 L13.65 7.7 Q12.0 7.0 14.6 6.55 L15.1 6.75 M18.55 11.15 Q15.7 11.15 17.05 9.2 17.15 9.0 17.55 8.95 L18.95 10.0 19.0 10.7 18.55 11.15 M4.4 7.8 Q5.0 7.95 5.25 8.3 5.45 8.6 5.3 8.95 L4.65 9.45 3.8 9.55 4.4 7.8 M7.1 11.95 L7.15 11.95 7.15 11.9 7.2 11.85 7.75 11.6 8.5 12.2 Q7.6 14.9 6.95 12.7 6.8 12.4 7.1 11.95" fill="#ffff66" fill-rule="evenodd" stroke="none"/>
    <path d="M19.85 4.4 Q19.85 4.9 20.1 5.25 20.3 5.55 20.6 5.5 L21.0 5.3 25.95 9.15 26.6 11.85 26.35 11.8 Q26.35 11.25 25.6 10.9 L23.8 10.5 23.2 14.45 21.65 17.15 27.3 13.25 27.7 17.3 27.35 16.4 Q25.7 14.4 24.05 18.15 22.85 18.15 22.05 18.9 21.2 19.6 21.2 20.6 L20.0 20.65 18.95 20.45 17.55 17.35 14.55 19.1 8.35 18.4 1.85 17.3 3.9 10.2 7.95 7.3 8.45 6.95 8.95 6.95 Q9.6 6.95 10.05 6.6 L10.5 5.75 11.3 5.6 11.3 4.8 14.35 4.45 Q14.35 4.85 14.6 5.15 L15.15 5.45 Q15.5 5.45 15.75 5.15 L15.9 4.45 19.85 4.3 19.85 4.4 M20.75 14.8 Q20.45 14.5 20.05 14.5 19.65 14.5 19.35 14.8 19.05 15.05 19.05 15.45 19.05 15.85 19.35 16.15 L20.05 16.4 20.75 16.15 21.05 15.45 Q21.05 15.05 20.75 14.8 M15.1 6.75 L14.6 6.55 Q12.0 7.0 13.65 7.7 L15.7 9.95 16.0 12.1 Q15.65 12.1 15.4 12.3 15.1 12.5 15.1 12.75 L15.15 13.15 Q15.65 15.95 17.1 13.9 L17.85 13.9 Q21.05 13.05 18.55 11.15 L19.0 10.7 18.95 10.0 17.55 8.95 Q17.55 8.05 16.85 7.4 16.1 6.75 15.1 6.75 M8.5 12.2 L7.75 11.6 7.2 11.85 7.15 11.9 7.15 11.95 7.1 11.95 5.15 14.75 8.75 16.15 15.95 15.1 8.5 15.25 8.5 12.2 M8.45 18.65 L8.8 19.35 12.8 21.2 8.95 21.85 7.25 20.35 8.45 18.65 M18.75 17.55 L18.9 17.95 19.3 18.1 19.7 17.95 19.85 17.55 19.7 17.15 19.3 17.0 Q19.05 17.0 18.9 17.15 18.75 17.3 18.75 17.55" fill="#6a674a" fill-rule="evenodd" stroke="none"/>
    <path d="M1.85 17.3 L8.35 18.4 8.45 18.65 7.25 20.35 8.95 21.85 12.8 21.2 8.8 19.35 14.55 19.1 17.55 17.35 18.95 20.45 18.05 21.15 Q19.6 22.9 20.0 20.65 L21.2 20.6 22.9 20.35 Q24.85 20.0 24.05 18.15 25.7 14.4 27.35 16.4 L27.7 17.3 27.9 20.25 27.55 20.85 Q24.05 24.45 19.15 25.55 14.35 26.55 9.7 25.35 4.95 24.15 3.9 20.85 3.3 18.95 1.85 17.3 M20.75 14.8 Q21.05 15.05 21.05 15.45 L20.75 16.15 20.05 16.4 19.35 16.15 Q19.05 15.85 19.05 15.45 19.05 15.05 19.35 14.8 19.65 14.5 20.05 14.5 20.45 14.5 20.75 14.8 M15.1 12.75 L17.1 13.9 Q15.65 15.95 15.15 13.15 L15.1 12.75 M8.5 15.25 L15.95 15.1 8.75 16.15 8.5 15.25" fill="#4e4b36" fill-rule="evenodd" stroke="none"/>
  </g>
</svg>
