<?xml version="1.0" encoding="UTF-8" standalone="no"?>
<svg xmlns:ffdec="https://www.free-decompiler.com/flash" xmlns:xlink="http://www.w3.org/1999/xlink" ffdec:objectType="shape" height="25.5px" width="25.8px" xmlns="http://www.w3.org/2000/svg">
  <g transform="matrix(1.0, 0.0, 0.0, 1.0, -2.1, -2.3)">
    <path d="M5.5 11.55 L5.45 11.65 5.45 11.55 5.5 11.55" fill="#787801" fill-rule="evenodd" stroke="none"/>
    <path d="M21.5 22.05 L23.85 20.05 Q23.05 23.05 19.5 23.65 L18.3 23.85 18.05 23.9 14.3 23.65 14.0 23.6 Q10.15 22.55 7.55 19.5 L6.9 18.65 6.15 17.4 5.7 16.05 5.45 14.55 5.3 12.9 5.3 12.55 5.45 11.65 5.5 11.55 5.5 10.55 5.85 10.15 5.85 13.6 Q6.4 17.65 9.65 20.35 11.2 21.7 13.2 22.3 L13.8 22.45 19.95 22.6 21.5 22.05 M24.65 9.4 Q22.1 6.1 18.0 5.15 L13.0 4.6 Q8.9 5.4 5.25 7.6 L4.4 8.1 5.7 5.9 6.6 5.2 Q10.3 2.6 14.85 2.35 19.2 2.05 22.65 4.5 26.35 7.15 27.55 11.5 28.6 15.65 26.7 19.5 27.65 15.3 25.75 11.35 L24.65 9.4" fill="#ffffff" fill-rule="evenodd" stroke="none"/>
    <path d="M22.8 11.85 L22.7 11.55 22.6 11.35 22.25 11.0 21.15 11.15 21.3 11.8 21.9 12.25 20.15 11.9 19.75 12.45 20.4 13.85 20.7 14.2 20.25 14.8 Q18.85 10.7 15.4 8.0 L12.45 8.55 12.2 9.25 11.4 9.25 10.9 9.55 11.0 10.3 10.35 10.75 Q10.2 10.75 10.2 10.9 L10.15 11.15 10.85 11.9 8.65 11.55 8.85 8.7 7.8 9.75 Q7.25 10.45 7.65 11.1 8.95 13.3 11.45 12.8 L11.65 13.8 Q11.85 15.4 11.45 16.75 L12.3 17.1 12.65 16.55 13.2 16.55 14.65 17.75 Q15.85 18.7 17.35 18.8 21.25 16.2 22.8 11.85 M15.45 11.35 L15.45 11.05 14.85 10.6 13.35 11.8 13.35 12.65 14.3 12.75 15.45 11.35 M5.85 13.6 L6.65 11.55 7.75 9.75 8.8 8.65 Q10.8 6.9 13.85 6.75 L16.7 6.8 Q18.95 7.45 21.1 8.85 21.95 9.4 22.4 10.25 23.55 12.3 23.95 14.65 24.55 18.95 21.5 22.05 L19.95 22.6 13.8 22.45 15.4 21.15 16.5 22.15 17.15 22.15 17.75 21.25 18.7 21.55 19.1 21.05 20.55 21.2 20.85 20.8 21.2 20.3 21.5 19.75 21.85 19.7 22.55 18.75 21.85 17.95 21.55 18.1 21.35 18.35 20.1 18.9 19.95 19.75 18.25 19.6 17.45 20.75 16.65 20.85 15.6 19.45 15.15 19.6 13.85 21.4 14.15 19.65 13.45 19.1 11.7 20.65 12.35 20.95 12.75 20.35 13.2 22.3 Q11.2 21.7 9.65 20.35 6.4 17.65 5.85 13.6 M23.85 20.05 L25.0 17.55 Q25.95 13.5 24.65 9.4 L25.75 11.35 Q27.65 15.3 26.7 19.5 L25.6 21.35 Q22.9 25.0 18.4 26.1 14.2 27.15 10.35 25.1 6.55 23.05 4.8 19.2 3.1 15.35 3.75 11.2 4.0 9.55 4.4 8.1 L5.25 7.6 Q8.9 5.4 13.0 4.6 8.6 6.1 5.85 9.7 L5.85 10.15 5.5 10.55 5.5 11.55 5.45 11.55 5.45 11.65 5.3 12.55 4.7 12.9 5.3 12.9 5.45 14.55 4.8 15.05 5.1 16.05 5.7 16.05 6.15 17.4 5.7 17.8 5.5 19.15 6.2 19.4 6.65 19.15 6.9 18.65 7.55 19.5 Q10.15 22.55 14.0 23.6 L13.2 24.1 13.35 24.65 Q13.75 25.25 14.45 25.3 L14.9 25.05 15.05 24.7 14.85 24.05 14.3 23.65 18.05 23.9 17.4 24.3 17.7 25.15 18.2 25.2 18.65 24.95 18.8 24.15 18.3 23.85 19.5 23.65 Q23.05 23.05 23.85 20.05 M23.25 14.65 L22.9 14.85 21.6 17.15 21.75 17.45 22.15 17.5 23.6 16.6 23.85 15.25 23.25 14.65 M12.7 10.9 L13.45 9.4 14.85 8.75 16.15 9.95 Q18.45 12.2 19.15 15.2 17.9 16.25 16.8 17.6 L13.0 15.3 Q12.85 13.55 12.3 11.85 L12.7 10.9 M8.85 17.75 L9.75 17.6 10.05 16.85 9.5 16.45 8.5 16.95 8.85 17.75 M10.5 18.4 L10.0 18.1 9.4 18.6 9.5 19.8 10.65 20.5 11.65 19.3 11.45 18.35 11.2 18.15 10.5 18.4 M9.75 22.6 L9.9 22.25 9.75 21.85 9.4 21.7 Q9.2 21.7 9.05 21.85 8.9 22.0 8.9 22.25 L9.05 22.6 9.4 22.75 9.75 22.6 M6.9 20.1 L7.05 21.1 7.95 21.2 8.1 20.65 7.75 20.1 6.9 20.1 M21.75 24.15 L21.95 24.05 22.05 23.8 21.95 23.55 21.75 23.5 21.55 23.55 21.45 23.8 21.55 24.05 21.75 24.15" fill="#ffff66" fill-rule="evenodd" stroke="none"/>
    <path d="M15.45 11.35 L14.3 12.75 13.35 12.65 13.35 11.8 14.85 10.6 15.45 11.05 15.45 11.35 M22.8 11.85 Q21.25 16.2 17.35 18.8 15.85 18.7 14.65 17.75 L13.2 16.55 12.65 16.55 12.3 17.1 11.45 16.75 Q11.85 15.4 11.65 13.8 L11.45 12.8 Q8.95 13.3 7.65 11.1 7.25 10.45 7.8 9.75 L8.85 8.7 8.65 11.55 10.85 11.9 10.15 11.15 10.2 10.9 Q10.2 10.75 10.35 10.75 L11.0 10.3 10.9 9.55 11.4 9.25 12.2 9.25 12.45 8.55 15.4 8.0 Q18.85 10.7 20.25 14.8 L20.7 14.2 20.4 13.85 19.75 12.45 20.15 11.9 21.9 12.25 21.3 11.8 21.15 11.15 22.25 11.0 22.6 11.35 22.7 11.55 22.8 11.85 M21.5 22.05 Q24.55 18.95 23.95 14.65 23.55 12.3 22.4 10.25 21.95 9.4 21.1 8.85 18.95 7.45 16.7 6.8 L13.85 6.75 Q10.8 6.9 8.8 8.65 L7.75 9.75 6.65 11.55 5.85 13.6 5.85 10.15 5.85 9.7 Q8.6 6.1 13.0 4.6 L18.0 5.15 Q22.1 6.1 24.65 9.4 25.95 13.5 25.0 17.55 L23.85 20.05 21.5 22.05 M13.2 22.3 L12.75 20.35 12.35 20.95 11.7 20.65 13.45 19.1 14.15 19.65 13.85 21.4 15.15 19.6 15.6 19.45 16.65 20.85 17.45 20.75 18.25 19.6 19.95 19.75 20.1 18.9 21.35 18.35 21.55 18.1 21.85 17.95 22.55 18.75 21.85 19.7 21.5 19.75 21.2 20.3 20.85 20.8 20.55 21.2 19.1 21.05 18.7 21.55 17.75 21.25 17.15 22.15 16.5 22.15 15.4 21.15 13.8 22.45 13.2 22.3 M23.25 14.65 L23.85 15.25 23.6 16.6 22.15 17.5 21.75 17.45 21.6 17.15 22.9 14.85 23.25 14.65 M5.3 12.55 L5.3 12.9 4.7 12.9 5.3 12.55 M5.45 14.55 L5.7 16.05 5.1 16.05 4.8 15.05 5.45 14.55 M6.15 17.4 L6.9 18.65 6.65 19.15 6.2 19.4 5.5 19.15 5.7 17.8 6.15 17.4 M14.0 23.6 L14.3 23.65 14.85 24.05 15.05 24.7 14.9 25.05 14.45 25.3 Q13.75 25.25 13.35 24.65 L13.2 24.1 14.0 23.6 M18.05 23.9 L18.3 23.85 18.8 24.15 18.65 24.95 18.2 25.2 17.7 25.15 17.4 24.3 18.05 23.9 M12.7 10.9 L12.3 11.85 Q12.85 13.55 13.0 15.3 L16.8 17.6 Q17.9 16.25 19.15 15.2 18.45 12.2 16.15 9.95 L14.85 8.75 13.45 9.4 12.7 10.9 M10.5 18.4 L11.2 18.15 11.45 18.35 11.65 19.3 10.65 20.5 9.5 19.8 9.4 18.6 10.0 18.1 10.5 18.4 M8.85 17.75 L8.5 16.95 9.5 16.45 10.05 16.85 9.75 17.6 8.85 17.75 M6.9 20.1 L7.75 20.1 8.1 20.65 7.95 21.2 7.05 21.1 6.9 20.1 M9.75 22.6 L9.4 22.75 9.05 22.6 8.9 22.25 Q8.9 22.0 9.05 21.85 9.2 21.7 9.4 21.7 L9.75 21.85 9.9 22.25 9.75 22.6 M21.75 24.15 L21.55 24.05 21.45 23.8 21.55 23.55 21.75 23.5 21.95 23.55 22.05 23.8 21.95 24.05 21.75 24.15" fill="#918c5b" fill-rule="evenodd" stroke="none"/>
    <path d="M5.7 5.9 L4.4 8.1 Q4.0 9.55 3.75 11.2 3.1 15.35 4.8 19.2 6.55 23.05 10.35 25.1 14.2 27.15 18.4 26.1 22.9 25.0 25.6 21.35 23.5 24.95 19.7 26.65 15.75 28.4 11.6 27.45 7.95 26.5 5.4 23.65 2.5 20.4 2.15 16.15 1.75 12.05 3.85 8.45 4.65 7.05 5.7 5.9" fill="#4b4a34" fill-rule="evenodd" stroke="none"/>
  </g>
</svg>
