<?xml version="1.0" encoding="UTF-8" standalone="no"?>
<svg xmlns:ffdec="https://www.free-decompiler.com/flash" xmlns:xlink="http://www.w3.org/1999/xlink" ffdec:objectType="shape" height="28.0px" width="27.1px" xmlns="http://www.w3.org/2000/svg">
  <g transform="matrix(1.0, 0.0, 0.0, 1.0, -1.5, -1.05)">
    <path d="M26.7 16.75 L25.9 15.15 27.1 16.3 28.6 20.6 18.8 29.05 1.5 11.05 1.8 8.05 11.5 1.05 16.45 6.3 11.6 1.8 11.5 1.65 11.35 1.7 2.9 7.9 2.0 11.0 19.0 28.5 21.5 26.6 27.95 19.65 26.7 16.75 M3.05 8.2 L3.55 8.65 18.75 24.05 26.25 17.7 22.85 23.85 22.6 24.25 22.85 23.85 21.4 26.5 18.9 28.3 15.9 22.35 16.85 25.4 14.15 20.85 14.8 23.4 14.4 23.65 5.65 11.45 5.95 14.1 3.05 8.2 M20.15 13.5 L22.85 16.75 11.45 6.15 10.35 5.9 7.75 8.6 6.65 7.95 11.0 4.85 20.15 13.5 M20.45 16.6 L19.8 16.6 19.8 17.0 20.45 17.0 20.45 16.6 M20.7 17.6 L19.95 17.75 19.35 17.35 19.15 16.5 17.15 16.45 19.45 17.8 18.15 18.7 17.3 17.9 18.45 17.6 16.3 16.35 18.0 16.0 16.3 15.2 18.45 15.1 17.3 14.4 17.05 13.65 19.35 15.2 17.55 15.4 19.5 16.1 20.8 16.3 Q21.35 17.0 20.7 17.6 M11.85 7.75 L12.0 7.65 14.1 9.35 13.05 10.2 12.8 10.65 11.95 11.5 14.5 12.25 14.75 12.9 15.85 13.5 16.3 14.35 15.85 15.0 14.3 14.85 14.5 13.3 12.2 12.85 12.35 12.2 9.85 10.75 10.0 9.85 10.8 10.0 11.05 10.75 Q11.65 11.65 12.25 10.55 L11.75 9.7 13.4 9.65 Q13.95 9.25 13.45 9.0 L8.95 9.75 11.65 8.25 11.85 7.75 M15.25 13.95 L14.85 14.35 15.55 14.55 Q16.1 14.0 15.25 13.95 M18.65 20.1 L15.45 16.85 19.2 19.55 18.65 20.1 M19.6 26.65 L20.95 23.35 19.9 24.15 19.6 26.65" fill="#4b4a34" fill-rule="evenodd" stroke="none"/>
    <path d="M11.6 1.8 L11.35 1.7 11.5 1.65 11.6 1.8" fill="#b7ad7d" fill-rule="evenodd" stroke="none"/>
    <path d="M22.85 23.85 L22.6 24.25 22.85 23.85" fill="#ffff99" fill-rule="evenodd" stroke="none"/>
    <path d="M26.7 16.75 L24.25 18.35 25.65 17.1 25.8 16.4 15.05 6.55 21.25 13.25 21.05 13.85 20.2 13.45 11.1 4.35 6.2 7.7 3.55 8.65 3.05 8.2 2.9 7.9 11.35 1.7 11.6 1.8 16.45 6.3 25.9 15.15 26.7 16.75 M24.05 17.5 L18.95 22.9 12.35 16.8 12.6 16.05 18.0 20.9 23.8 16.8 24.05 17.5" fill="#ffffff" fill-rule="evenodd" stroke="none"/>
    <path d="M20.2 13.45 L21.05 13.85 21.25 13.25 15.05 6.55 25.8 16.4 25.65 17.1 24.25 18.35 26.7 16.75 27.95 19.65 21.5 26.6 21.4 26.5 22.85 23.85 26.25 17.7 18.75 24.05 3.55 8.65 6.2 7.7 6.65 7.95 7.75 8.6 10.35 5.9 11.45 6.15 22.85 16.75 20.15 13.5 20.2 13.45 M24.05 17.5 L23.8 16.8 18.0 20.9 12.6 16.05 12.35 16.8 18.95 22.9 24.05 17.5 M20.7 17.6 Q21.35 17.0 20.8 16.3 L19.5 16.1 17.55 15.4 19.35 15.2 17.05 13.65 17.3 14.4 18.45 15.1 16.3 15.2 18.0 16.0 16.3 16.35 18.45 17.6 17.3 17.9 18.15 18.7 19.45 17.8 17.15 16.45 19.15 16.5 19.35 17.35 19.95 17.75 20.7 17.6 M11.85 7.75 L11.65 8.25 8.95 9.75 13.45 9.0 Q13.95 9.25 13.4 9.65 L11.75 9.7 12.25 10.55 Q11.65 11.65 11.05 10.75 L10.8 10.0 10.0 9.85 9.85 10.75 12.35 12.2 12.2 12.85 14.5 13.3 14.3 14.85 15.85 15.0 16.3 14.35 15.85 13.5 14.75 12.9 14.5 12.25 11.95 11.5 12.8 10.65 13.05 10.2 14.1 9.35 12.0 7.65 11.85 7.75 M18.65 20.1 L19.2 19.55 15.45 16.85 18.65 20.1" fill="#ffff66" fill-rule="evenodd" stroke="none"/>
    <path d="M2.9 7.9 L3.05 8.2 5.95 14.1 5.65 11.45 14.4 23.65 14.8 23.4 14.15 20.85 16.85 25.4 15.9 22.35 18.9 28.3 21.4 26.5 21.5 26.6 19.0 28.5 2.0 11.0 2.9 7.9 M6.2 7.7 L11.1 4.35 20.2 13.45 20.15 13.5 11.0 4.85 6.65 7.95 6.2 7.7 M20.45 16.6 L20.45 17.0 19.8 17.0 19.8 16.6 20.45 16.6 M15.25 13.95 Q16.1 14.0 15.55 14.55 L14.85 14.35 15.25 13.95 M19.6 26.65 L19.9 24.15 20.95 23.35 19.6 26.65" fill="#918c5b" fill-rule="evenodd" stroke="none"/>
  </g>
</svg>
