<?xml version="1.0" encoding="UTF-8" standalone="no"?>
<svg xmlns:ffdec="https://www.free-decompiler.com/flash" xmlns:xlink="http://www.w3.org/1999/xlink" ffdec:objectType="shape" height="21.8px" width="27.9px" xmlns="http://www.w3.org/2000/svg">
  <g transform="matrix(1.0, 0.0, 0.0, 1.0, -1.15, -3.9)">
    <path d="M28.45 22.0 L27.55 23.7 25.8 24.65 Q24.55 25.45 23.1 25.3 21.45 25.05 19.8 25.25 L16.4 25.45 9.65 25.6 8.5 25.7 5.1 25.1 3.35 24.5 Q2.0 23.8 1.4 22.6 L1.15 21.25 Q1.1 18.2 2.1 15.35 L2.35 14.75 2.65 14.25 3.45 13.3 4.35 12.5 5.7 11.4 10.85 7.8 15.85 3.9 17.8 4.95 18.8 5.9 19.05 6.2 19.95 7.1 20.9 7.95 23.05 9.75 25.25 12.2 25.55 12.65 16.1 4.25 3.95 13.2 1.7 18.0 1.7 18.05 1.6 18.55 1.6 21.45 6.0 25.1 15.2 24.95 24.3 24.55 26.3 23.95 Q27.65 23.4 28.45 22.0 M26.2 13.65 L29.05 18.6 28.9 20.7 26.35 13.9 26.2 13.65" fill="#ffffff" fill-rule="evenodd" stroke="none"/>
    <path d="M25.75 12.85 L26.2 13.6 26.15 13.6 26.2 13.65 26.35 13.9 26.55 19.15 22.8 21.65 18.5 19.3 20.9 14.9 16.6 9.45 13.3 10.2 13.5 15.35 7.6 16.35 2.55 22.0 1.6 18.55 1.7 18.05 1.8 18.0 1.7 18.0 3.95 13.2 15.45 7.6 22.65 13.75 23.8 14.45 Q25.5 15.3 25.75 13.0 L25.75 12.85" fill="#666666" fill-rule="evenodd" stroke="none"/>
    <path d="M26.2 13.6 L26.2 13.65 26.15 13.6 26.2 13.6 M28.9 20.7 L28.45 22.0 Q27.65 23.4 26.3 23.95 L24.3 24.55 15.2 24.95 6.0 25.1 1.6 21.45 1.6 18.55 2.55 22.0 7.6 16.35 13.5 15.35 13.3 10.2 16.6 9.45 20.9 14.9 18.5 19.3 22.8 21.65 26.55 19.15 26.35 13.9 28.9 20.7 M1.7 18.05 L1.7 18.0 1.8 18.0 1.7 18.05" fill="#333333" fill-rule="evenodd" stroke="none"/>
    <path d="M25.55 12.65 L25.75 12.85 25.75 13.0 Q25.5 15.3 23.8 14.45 L22.65 13.75 15.45 7.6 3.95 13.2 16.1 4.25 25.55 12.65" fill="#999999" fill-rule="evenodd" stroke="none"/>
  </g>
</svg>
