<?xml version="1.0" encoding="UTF-8" standalone="no"?>
<svg xmlns:ffdec="https://www.free-decompiler.com/flash" xmlns:xlink="http://www.w3.org/1999/xlink" ffdec:objectType="shape" height="27.85px" width="24.65px" xmlns="http://www.w3.org/2000/svg">
  <g transform="matrix(1.0, 0.0, 0.0, 1.0, -2.8, -1.2)">
    <path d="M27.45 10.1 L23.7 15.75 26.5 20.2 27.35 21.85 20.6 22.15 16.7 27.95 15.85 29.05 15.85 29.0 15.6 28.9 15.35 28.6 14.9 28.2 14.5 27.7 11.05 22.1 4.2 21.85 2.85 20.65 6.6 14.55 2.8 8.5 10.15 8.2 14.45 1.2 14.55 1.25 15.25 1.8 15.85 2.4 16.7 3.55 19.85 8.2 26.6 8.7 27.45 10.1 M22.2 10.55 L22.25 10.6 20.8 12.9 19.95 14.1 22.35 18.25 19.85 14.1 22.2 10.55 M10.6 10.15 L10.45 9.95 11.1 9.95 11.45 9.5 11.6 9.25 12.45 7.55 Q13.2 5.95 14.4 4.95 L15.8 7.15 15.25 6.4 Q15.0 5.85 14.45 5.55 L14.4 5.75 11.75 9.55 11.45 10.1 10.6 10.15 M9.05 10.0 L9.0 10.15 6.6 10.5 8.35 13.35 Q7.1 12.2 6.1 10.5 L6.0 10.3 6.0 10.0 9.05 10.0 M8.6 14.55 Q8.9 14.6 8.45 14.85 L7.85 16.3 Q7.3 18.15 6.15 18.7 L6.15 18.55 6.95 17.2 8.4 14.9 8.6 14.55 M24.65 19.6 L21.55 14.6 24.65 9.4 18.75 9.0 14.45 2.8 10.35 9.0 4.15 9.3 7.35 14.5 4.15 19.85 10.35 20.15 14.55 26.45 18.75 20.15 24.65 19.6 M17.15 20.0 L14.55 23.8 15.4 22.35 17.05 19.95 17.15 20.0 M12.9 21.5 L14.55 24.1 11.95 20.2 12.9 21.5" fill="#666666" fill-rule="evenodd" stroke="none"/>
    <path d="M22.2 10.55 L19.85 14.1 22.35 18.25 19.95 14.1 20.8 12.9 22.25 10.6 22.2 10.55 M9.0 10.15 L9.15 11.15 Q10.6 12.35 12.5 12.2 13.6 12.9 14.3 14.2 L15.0 13.65 16.6 12.15 Q18.0 12.2 19.4 11.4 L20.55 10.15 20.35 9.45 19.95 9.2 19.45 9.3 Q18.7 9.95 19.0 11.0 L16.55 11.5 16.85 10.65 Q16.3 10.15 16.05 11.2 15.7 12.5 14.65 13.4 L14.3 13.0 Q13.35 11.9 12.55 10.45 L12.35 10.9 12.35 11.2 10.7 11.25 10.6 10.15 11.45 10.1 11.75 9.55 14.4 5.75 14.45 5.55 Q15.0 5.85 15.25 6.4 L15.8 7.15 14.4 4.95 Q13.2 5.95 12.45 7.55 L11.6 9.25 11.45 9.5 11.1 9.95 10.45 9.95 9.05 10.0 6.0 10.0 6.0 10.3 6.1 10.5 Q7.1 12.2 8.35 13.35 L6.6 10.5 9.0 10.15 M24.65 19.6 L18.75 20.15 14.55 26.45 10.35 20.15 4.15 19.85 7.35 14.5 4.15 9.3 10.35 9.0 14.45 2.8 18.75 9.0 24.65 9.4 21.55 14.6 24.65 19.6 M8.6 14.55 L8.4 14.9 6.95 17.2 6.15 18.55 6.15 18.7 Q7.3 18.15 7.85 16.3 L8.45 14.85 Q8.9 14.6 8.6 14.55 M9.55 16.9 L9.75 16.9 10.25 16.9 Q11.0 16.35 10.3 15.95 8.85 15.65 8.35 17.1 8.5 17.85 9.15 18.05 11.4 18.3 12.75 16.55 L13.25 17.05 13.9 18.1 14.85 20.5 15.45 18.05 Q15.8 16.75 16.65 16.75 18.15 18.45 20.05 17.35 20.45 16.6 19.95 15.85 19.15 15.25 18.5 15.85 18.2 16.6 18.8 16.85 L19.05 16.8 19.5 16.3 19.8 16.7 19.05 17.3 Q18.0 17.35 17.25 16.7 L14.85 14.75 15.55 15.75 14.65 17.4 13.85 16.0 14.3 14.7 14.2 14.7 13.15 15.6 Q11.85 16.95 9.85 17.3 L9.3 16.95 9.55 16.9 M18.2 12.9 L17.85 12.65 17.3 12.6 16.8 13.3 18.05 13.45 18.2 12.9 M10.7 12.85 L10.55 13.2 Q11.3 13.8 12.0 13.45 12.1 12.9 11.65 12.5 L11.4 12.4 Q10.9 12.4 10.7 12.85 M13.95 19.1 L13.8 18.85 Q13.55 19.3 13.45 20.0 13.3 21.15 14.05 21.9 L14.0 20.5 13.95 19.1 M10.35 19.6 L10.85 20.4 Q12.25 19.45 12.9 17.85 L11.4 18.7 10.35 19.6 M12.9 21.5 L11.95 20.2 14.55 24.1 12.9 21.5 M17.05 19.95 L15.4 22.35 14.55 23.8 17.15 20.0 18.15 19.95 18.15 19.85 16.15 17.95 Q16.1 19.2 17.05 19.95 M15.4 18.7 L15.05 21.5 15.7 21.6 Q16.15 20.05 15.4 18.7" fill="#999999" fill-rule="evenodd" stroke="none"/>
    <path d="M10.6 10.15 L10.7 11.25 12.35 11.2 12.35 10.9 12.55 10.45 Q13.35 11.9 14.3 13.0 L14.65 13.4 Q15.7 12.5 16.05 11.2 16.3 10.15 16.85 10.65 L16.55 11.5 19.0 11.0 Q18.7 9.95 19.45 9.3 L19.95 9.2 20.35 9.45 20.55 10.15 19.4 11.4 Q18.0 12.2 16.6 12.15 L15.0 13.65 14.3 14.2 Q13.6 12.9 12.5 12.2 10.6 12.35 9.15 11.15 L9.0 10.15 9.05 10.0 10.45 9.95 10.6 10.15 M9.55 16.9 L9.3 16.95 9.85 17.3 Q11.85 16.95 13.15 15.6 L14.2 14.7 14.3 14.7 13.85 16.0 14.65 17.4 15.55 15.75 14.85 14.75 17.25 16.7 Q18.0 17.35 19.05 17.3 L19.8 16.7 19.5 16.3 19.05 16.8 18.8 16.85 Q18.2 16.6 18.5 15.85 19.15 15.25 19.95 15.85 20.45 16.6 20.05 17.35 18.15 18.45 16.65 16.75 15.8 16.75 15.45 18.05 L14.85 20.5 13.9 18.1 13.25 17.05 12.75 16.55 Q11.4 18.3 9.15 18.05 8.5 17.85 8.35 17.1 8.85 15.65 10.3 15.95 11.0 16.35 10.25 16.9 L9.75 16.9 9.55 16.9 M10.35 19.6 L11.4 18.7 12.9 17.85 Q12.25 19.45 10.85 20.4 L10.35 19.6 M13.95 19.1 L14.0 20.5 14.05 21.9 Q13.3 21.15 13.45 20.0 13.55 19.3 13.8 18.85 L13.95 19.1 M10.7 12.85 Q10.9 12.4 11.4 12.4 L11.65 12.5 Q12.1 12.9 12.0 13.45 11.3 13.8 10.55 13.2 L10.7 12.85 M18.2 12.9 L18.05 13.45 16.8 13.3 17.3 12.6 17.85 12.65 18.2 12.9 M17.15 20.0 L17.05 19.95 Q16.1 19.2 16.15 17.95 L18.15 19.85 18.15 19.95 17.15 20.0 M15.4 18.7 Q16.15 20.05 15.7 21.6 L15.05 21.5 15.4 18.7" fill="#333333" fill-rule="evenodd" stroke="none"/>
  </g>
</svg>
