<?xml version="1.0" encoding="UTF-8" standalone="no"?>
<svg xmlns:ffdec="https://www.free-decompiler.com/flash" xmlns:xlink="http://www.w3.org/1999/xlink" ffdec:objectType="shape" height="27.6px" width="27.85px" xmlns="http://www.w3.org/2000/svg">
  <g transform="matrix(1.0, 0.0, 0.0, 1.0, -1.15, -1.45)">
    <path d="M27.15 12.3 L27.2 12.3 27.2 12.25 16.65 1.6 16.45 1.55 12.85 3.65 Q11.45 4.75 10.55 6.4 L10.0 7.5 9.9 7.75 9.6 8.8 19.55 19.7 20.0 20.1 20.4 19.0 22.6 15.9 24.6 13.9 Q25.85 12.9 27.15 12.3 M28.2 12.25 L17.45 1.6 16.9 1.55 27.4 12.25 28.2 12.25 M21.75 18.55 L21.5 19.05 21.25 19.75 Q22.95 17.35 25.1 15.55 L27.5 13.55 28.6 12.65 28.5 12.55 Q27.15 13.2 25.95 14.0 L23.6 15.9 23.15 16.4 Q25.2 13.7 28.15 12.45 L27.5 12.35 24.95 13.95 22.8 16.05 Q21.55 17.5 20.6 19.25 20.35 19.65 20.35 20.15 L20.55 20.25 20.95 19.85 21.3 19.3 21.75 18.55 M24.35 16.55 L22.55 18.55 21.05 20.2 19.85 21.35 19.4 21.75 19.2 21.9 Q14.95 25.05 11.6 28.9 L11.6 28.95 11.2 29.05 10.65 28.7 1.15 17.75 1.25 17.3 1.2 16.85 1.25 16.05 1.25 15.9 1.35 15.6 1.4 15.3 1.6 14.9 Q3.25 11.65 6.4 9.75 L7.85 9.0 9.4 8.45 Q9.75 7.1 10.55 6.05 L12.1 4.3 Q13.95 2.3 16.6 1.45 L17.65 1.65 17.95 1.45 18.15 1.5 29.0 12.35 28.8 12.65 24.35 16.55 M18.25 20.6 L19.7 20.3 19.4 19.8 9.15 8.95 8.05 9.15 7.1 9.55 7.1 9.5 7.05 9.55 6.3 10.05 4.4 11.65 Q2.7 13.25 1.6 15.35 L1.85 15.7 11.35 26.65 12.45 25.15 14.35 22.9 Q15.2 21.9 16.4 21.5 L14.15 23.35 12.65 24.95 11.35 26.85 11.45 28.3 11.45 28.4 11.7 27.8 12.5 26.45 Q15.0 22.5 19.4 21.45 L19.75 20.55 19.1 20.6 Q18.0 20.75 17.0 21.2 L18.25 20.6 M11.25 27.1 L11.15 26.85 1.9 16.15 1.5 15.65 1.5 15.75 1.5 17.25 11.35 28.45 11.3 28.0 11.3 27.7 11.3 27.45 11.25 27.1 M1.55 17.75 L11.05 28.75 1.6 17.65 Q1.25 17.45 1.55 17.75 M16.1 23.15 L14.75 24.15 13.15 26.05 11.9 27.9 Q14.8 24.8 18.05 22.05 L16.1 23.15" fill="#000099" fill-rule="evenodd" stroke="none"/>
    <path d="M27.2 12.25 L27.15 12.3 Q25.85 12.9 24.6 13.9 L22.6 15.9 20.4 19.0 9.9 7.75 10.0 7.5 10.55 6.4 Q11.45 4.75 12.85 3.65 L16.45 1.55 16.65 1.6 27.2 12.25 M10.15 11.5 Q8.7 11.65 8.05 13.05 L7.95 12.95 7.75 13.85 7.05 12.65 7.25 13.85 6.7 14.85 5.95 14.9 Q5.05 15.45 4.65 16.2 4.3 16.75 4.6 17.3 L4.85 16.15 5.4 17.05 Q5.3 16.4 5.7 15.65 6.05 15.35 6.5 15.4 6.6 15.25 6.75 15.4 L8.5 13.0 8.9 13.15 8.95 12.35 9.05 12.15 9.3 11.95 9.4 12.0 9.9 12.55 10.4 11.8 11.4 12.9 Q10.2 13.2 9.3 14.15 L9.15 14.5 9.2 14.65 9.6 14.5 9.75 14.65 10.45 14.05 10.7 14.05 10.85 13.35 11.6 13.1 12.65 14.3 12.05 14.1 Q11.3 14.2 10.8 14.95 L11.05 15.5 10.5 14.95 9.65 15.55 Q9.8 16.35 9.25 17.25 L8.5 17.45 8.3 18.4 8.0 18.5 8.35 18.65 8.6 17.7 9.0 17.95 9.7 17.2 9.9 16.7 Q10.5 16.7 10.15 16.15 L10.05 15.9 10.4 15.3 10.7 16.15 Q11.45 15.85 11.65 14.95 L11.65 14.65 Q11.8 13.9 12.2 14.7 L12.35 14.75 Q12.35 14.65 12.45 14.7 L12.85 14.55 13.75 15.55 13.3 16.05 13.45 16.0 13.65 15.95 14.05 15.85 15.4 17.35 15.2 17.75 14.3 17.85 14.1 18.05 14.5 18.2 14.55 18.05 Q15.15 17.85 15.35 18.35 L15.5 18.15 15.75 17.75 16.35 18.4 15.6 18.7 15.35 19.05 15.05 19.2 Q14.55 19.15 14.55 19.7 L14.6 19.85 14.8 19.75 14.95 19.45 15.65 19.45 15.9 19.05 16.6 18.7 18.25 20.6 17.0 21.2 16.4 21.5 Q15.2 21.9 14.35 22.9 L12.45 25.15 11.35 26.65 1.85 15.7 1.6 15.35 Q2.7 13.25 4.4 11.65 L6.3 10.05 7.05 9.55 7.1 9.55 8.05 9.15 9.05 10.3 9.3 10.55 10.15 11.5 M9.05 10.3 L8.8 10.25 8.6 10.45 8.05 10.3 6.3 11.95 3.8 13.9 3.65 14.95 3.2 14.5 Q3.1 14.9 3.3 15.4 L3.45 15.8 3.35 14.9 4.0 15.35 4.05 14.75 4.7 14.5 Q5.15 13.45 5.7 12.65 L6.65 12.2 7.4 11.15 7.5 12.0 7.75 11.05 8.1 10.55 8.7 11.0 8.9 10.4 9.15 10.5 9.05 10.3 M9.0 14.9 Q8.2 15.45 7.55 16.45 L6.85 16.25 6.55 16.8 6.7 17.4 6.5 17.95 6.0 17.85 5.85 18.3 5.95 18.55 6.0 18.5 Q6.3 18.45 6.2 18.2 L6.35 18.4 7.15 17.15 7.0 16.55 7.65 17.1 Q7.75 16.1 8.45 15.7 L8.65 15.35 9.0 15.15 9.0 14.9 M11.3 28.0 L11.35 28.45 1.5 17.25 1.5 15.75 1.5 15.65 1.9 16.15 11.15 26.85 11.25 27.1 4.15 19.25 11.3 27.45 11.3 27.7 5.95 21.75 11.3 28.0 M10.1 19.05 L10.3 18.7 10.6 18.45 10.7 18.2 9.85 18.65 9.65 19.45 9.25 19.4 9.25 19.6 9.0 20.05 9.1 20.55 9.2 20.6 Q9.7 20.7 9.8 20.25 L10.0 19.5 9.9 19.0 10.1 19.05 M8.4 20.4 L8.4 19.75 9.2 19.4 8.45 19.25 Q8.0 20.0 8.1 20.7 L8.4 20.4 M7.15 19.55 L7.15 19.75 7.3 19.3 7.85 19.3 7.95 18.55 7.4 19.1 7.15 19.55 M11.2 15.2 L11.1 15.15 Q11.45 14.65 11.2 15.2 M11.55 16.65 L11.5 17.2 10.75 17.75 10.7 17.8 11.15 17.95 11.45 17.9 11.6 17.7 11.9 16.95 12.25 16.85 12.65 16.4 12.65 16.25 11.55 16.65 M13.4 18.5 L13.0 19.0 13.0 19.15 13.25 18.8 13.8 18.6 14.05 18.5 Q14.0 17.9 13.4 18.5 M12.75 19.85 Q12.5 20.35 12.9 19.85 L13.05 19.65 Q12.8 19.7 12.75 19.85" fill="#ffffff" fill-rule="evenodd" stroke="none"/>
    <path d="M20.4 19.0 L20.0 20.1 19.55 19.7 9.6 8.8 9.9 7.75 20.4 19.0 M28.2 12.25 L27.4 12.25 16.9 1.55 17.45 1.6 28.2 12.25 M23.15 16.4 L22.9 16.7 Q22.25 17.6 21.75 18.55 L21.3 19.3 20.95 19.85 20.55 20.25 20.35 20.15 Q20.35 19.65 20.6 19.25 21.55 17.5 22.8 16.05 L24.95 13.95 27.5 12.35 28.15 12.45 Q25.2 13.7 23.15 16.4 M10.4 11.8 L10.9 11.5 10.15 11.5 9.3 10.55 9.05 10.3 8.05 9.15 9.15 8.95 19.4 19.8 19.7 20.3 18.25 20.6 16.6 18.7 16.55 18.55 16.35 18.4 15.75 17.75 Q16.45 18.0 15.95 17.45 L15.4 17.35 14.05 15.85 14.2 15.55 13.75 15.55 12.85 14.55 13.0 14.3 12.65 14.3 11.6 13.1 11.55 12.95 11.4 12.9 10.4 11.8 M9.3 10.55 L9.55 10.45 9.3 10.55 M16.4 21.5 L17.0 21.2 Q18.0 20.75 19.1 20.6 L19.75 20.55 19.4 21.45 Q15.0 22.5 12.5 26.45 L11.7 27.8 11.45 28.4 11.45 28.3 11.35 26.85 12.65 24.95 14.15 23.35 16.4 21.5" fill="#dbdce6" fill-rule="evenodd" stroke="none"/>
    <path d="M11.25 27.1 L11.3 27.45 4.15 19.25 11.25 27.1 M11.3 27.7 L11.3 28.0 5.95 21.75 11.3 27.7" fill="#cccccc" fill-rule="evenodd" stroke="none"/>
    <path d="M10.15 11.5 L10.9 11.5 10.4 11.8 9.9 12.55 9.4 12.0 9.3 11.95 9.05 12.15 8.95 12.35 8.9 13.15 8.5 13.0 6.75 15.4 Q6.6 15.25 6.5 15.4 6.05 15.35 5.7 15.65 5.3 16.4 5.4 17.05 L4.85 16.15 4.6 17.3 Q4.3 16.75 4.65 16.2 5.05 15.45 5.95 14.9 L6.7 14.85 7.25 13.85 7.05 12.65 7.75 13.85 7.95 12.95 8.05 13.05 Q8.7 11.65 10.15 11.5 M11.4 12.9 L11.55 12.95 11.6 13.1 10.85 13.35 10.7 14.05 10.45 14.05 9.75 14.65 9.6 14.5 9.2 14.65 9.15 14.5 9.3 14.15 Q10.2 13.2 11.4 12.9 M12.65 14.3 L13.0 14.3 12.85 14.55 12.45 14.7 Q12.35 14.65 12.35 14.75 L12.2 14.7 Q11.8 13.9 11.65 14.65 L11.65 14.95 Q11.45 15.85 10.7 16.15 L10.4 15.3 10.05 15.9 10.15 16.15 Q10.5 16.7 9.9 16.7 L9.7 17.2 9.0 17.95 8.6 17.7 8.35 18.65 8.0 18.5 8.3 18.4 8.5 17.45 9.25 17.25 Q9.8 16.35 9.65 15.55 L10.5 14.95 11.05 15.5 10.8 14.95 Q11.3 14.2 12.05 14.1 L12.65 14.3 M13.75 15.55 L14.2 15.55 14.05 15.85 13.65 15.95 13.45 16.0 13.3 16.05 13.75 15.55 M15.4 17.35 L15.95 17.45 Q16.45 18.0 15.75 17.75 L15.5 18.15 15.35 18.35 Q15.15 17.85 14.55 18.05 L14.5 18.2 14.1 18.05 14.3 17.85 15.2 17.75 15.4 17.35 M16.35 18.4 L16.55 18.55 16.6 18.7 15.9 19.05 15.65 19.45 14.95 19.45 14.8 19.75 14.6 19.85 14.55 19.7 Q14.55 19.15 15.05 19.2 L15.35 19.05 15.6 18.7 16.35 18.4 M9.3 10.55 L9.55 10.45 9.3 10.55 M9.05 10.3 L9.15 10.5 8.9 10.4 8.7 11.0 8.1 10.55 7.75 11.05 7.5 12.0 7.4 11.15 6.65 12.2 5.7 12.65 Q5.15 13.45 4.7 14.5 L4.05 14.75 4.0 15.35 3.35 14.9 3.45 15.8 3.3 15.4 Q3.1 14.9 3.2 14.5 L3.65 14.95 3.8 13.9 6.3 11.95 8.05 10.3 8.6 10.45 8.8 10.25 9.05 10.3 M9.0 14.9 L9.0 15.15 8.65 15.35 8.45 15.7 Q7.75 16.1 7.65 17.1 L7.0 16.55 7.15 17.15 6.35 18.4 6.2 18.2 Q6.3 18.45 6.0 18.5 L5.95 18.55 5.85 18.3 6.0 17.85 6.5 17.95 6.7 17.4 6.55 16.8 6.85 16.25 7.55 16.45 Q8.2 15.45 9.0 14.9 M7.15 19.55 L7.4 19.1 7.95 18.55 7.85 19.3 7.3 19.3 7.15 19.75 7.15 19.55 M8.4 20.4 L8.1 20.7 Q8.0 20.0 8.45 19.25 L9.2 19.4 8.4 19.75 8.4 20.4 M10.1 19.05 L9.9 19.0 10.0 19.5 9.8 20.25 Q9.7 20.7 9.2 20.6 L9.1 20.55 9.0 20.05 9.25 19.6 9.25 19.4 9.65 19.45 9.85 18.65 10.7 18.2 10.6 18.45 10.3 18.7 10.1 19.05 M11.55 16.65 L12.65 16.25 12.65 16.4 12.25 16.85 11.9 16.95 11.6 17.7 11.45 17.9 11.15 17.95 10.7 17.8 10.75 17.75 11.5 17.2 11.55 16.65 M11.2 15.2 Q11.45 14.65 11.1 15.15 L11.2 15.2 M13.4 18.5 Q14.0 17.9 14.05 18.5 L13.8 18.6 13.25 18.8 13.0 19.15 13.0 19.0 13.4 18.5 M12.75 19.85 Q12.8 19.7 13.05 19.65 L12.9 19.85 Q12.5 20.35 12.75 19.85" fill="#666666" fill-rule="evenodd" stroke="none"/>
    <path d="M23.15 16.4 L23.6 15.9 25.95 14.0 Q27.15 13.2 28.5 12.55 L28.6 12.65 27.5 13.55 25.1 15.55 Q22.95 17.35 21.25 19.75 L21.5 19.05 21.75 18.55 Q22.25 17.6 22.9 16.7 L23.15 16.4 M1.55 17.75 Q1.25 17.45 1.6 17.65 L11.05 28.75 1.55 17.75 M16.1 23.15 L18.05 22.05 Q14.8 24.8 11.9 27.9 L13.15 26.05 14.75 24.15 16.1 23.15" fill="#6a5f81" fill-rule="evenodd" stroke="none"/>
  </g>
</svg>
