<?xml version="1.0" encoding="UTF-8" standalone="no"?>
<svg xmlns:ffdec="https://www.free-decompiler.com/flash" xmlns:xlink="http://www.w3.org/1999/xlink" ffdec:objectType="shape" height="27.3px" width="27.5px" xmlns="http://www.w3.org/2000/svg">
  <g transform="matrix(1.0, 0.0, 0.0, 1.0, -1.2, -1.25)">
    <path d="M28.2 2.25 L28.35 2.45 28.1 1.95 27.95 1.8 27.45 1.6 27.85 1.25 Q30.65 5.5 24.1 8.8 20.7 10.45 18.85 13.9 L18.9 17.4 12.45 28.55 12.2 28.3 11.7 22.4 10.05 20.4 13.05 22.85 13.05 26.15 18.8 16.8 16.4 12.45 16.35 12.4 16.0 11.75 14.85 12.3 12.5 12.2 9.8 14.55 5.35 16.5 7.15 18.0 3.8 17.2 3.65 17.25 1.5 17.65 7.5 23.65 6.9 23.1 6.5 22.7 1.2 17.5 13.05 11.0 16.2 11.15 25.55 3.2 Q23.9 3.7 27.2 1.6 L26.8 2.2 26.15 3.05 20.5 10.45 28.05 2.3 27.35 1.7 27.4 1.65 Q27.9 1.9 28.2 2.25 M27.35 1.6 L27.45 1.6 27.35 1.6 M16.35 11.6 Q18.0 13.05 16.45 11.6 L16.35 11.6 M19.6 10.0 L18.9 9.8 18.65 9.85 Q20.55 13.3 19.6 10.0 M17.95 10.65 Q19.3 11.35 18.2 10.65 L17.95 10.65 M17.85 10.95 L17.65 10.9 Q19.45 15.1 18.4 11.25 L17.85 10.95" fill="#6f6453" fill-rule="evenodd" stroke="none"/>
    <path d="M28.2 2.25 L28.1 1.95 28.35 2.45 28.2 2.25 M27.45 1.6 L27.4 1.65 27.35 1.6 27.45 1.6 M28.05 2.3 L20.5 10.45 26.15 3.05 27.6 2.45 Q27.8 2.3 28.05 2.3 M26.8 2.2 L27.2 1.6 27.35 1.7 26.8 2.2 M6.5 22.7 L6.9 23.1 6.7 23.45 6.1 23.75 5.9 23.65 Q5.75 23.3 6.05 23.05 L6.35 22.8 6.5 22.7 M7.5 23.65 L1.5 17.65 3.65 17.25 7.55 21.8 3.8 17.2 7.15 18.0 5.35 16.5 9.8 14.55 8.3 15.8 14.85 12.55 16.4 12.45 18.8 16.8 13.05 26.15 13.05 22.85 10.05 20.4 11.7 22.4 12.2 28.3 12.2 28.4 7.5 23.65 M14.85 12.3 L16.0 11.75 16.35 12.4 14.85 12.3 M18.9 9.8 L18.95 10.2 19.15 10.5 19.45 10.45 19.6 10.0 Q20.55 13.3 18.65 9.85 L18.9 9.8 M17.85 10.95 L18.4 11.25 Q19.45 15.1 17.65 10.9 L17.85 10.95" fill="#aca488" fill-rule="evenodd" stroke="none"/>
    <path d="M28.1 1.95 L28.2 2.25 Q27.9 1.9 27.4 1.65 L27.45 1.6 27.95 1.8 28.1 1.95 M27.35 1.7 L28.05 2.3 Q27.8 2.3 27.6 2.45 L26.15 3.05 26.8 2.2 27.35 1.7 M3.65 17.25 L3.8 17.2 7.55 21.8 3.65 17.25 M9.8 14.55 L12.5 12.2 14.85 12.3 16.35 12.4 16.4 12.45 14.85 12.55 8.3 15.8 9.8 14.55 M16.35 11.6 L16.45 11.6 Q18.0 13.05 16.35 11.6 M19.6 10.0 L19.45 10.45 19.15 10.5 18.95 10.2 18.9 9.8 19.6 10.0 M17.95 10.65 L18.2 10.65 Q19.3 11.35 17.95 10.65" fill="#dcd7cd" fill-rule="evenodd" stroke="none"/>
  </g>
</svg>
