<?xml version="1.0" encoding="UTF-8" standalone="no"?>
<svg xmlns:ffdec="https://www.free-decompiler.com/flash" xmlns:xlink="http://www.w3.org/1999/xlink" ffdec:objectType="shape" height="28.05px" width="27.25px" xmlns="http://www.w3.org/2000/svg">
  <g transform="matrix(1.0, 0.0, 0.0, 1.0, -1.35, -1.3)">
    <path d="M24.65 26.15 L9.4 12.15 6.55 12.4 5.9 10.9 4.9 9.5 1.35 8.4 2.05 5.45 1.35 4.8 Q1.5 4.0 2.0 3.4 3.75 1.3 6.6 1.3 L11.75 1.4 12.4 1.4 13.3 5.0 11.8 6.55 12.55 9.25 28.6 28.9 28.3 29.35 24.95 26.35 24.85 26.25 27.6 28.55 27.95 28.5 14.5 12.95 16.3 14.35 11.15 7.85 10.85 6.95 10.45 7.15 10.2 7.0 10.2 6.7 12.55 5.0 11.85 1.5 9.4 1.7 8.9 1.65 4.1 2.0 4.0 4.35 3.9 4.55 4.0 6.1 6.5 7.65 6.9 7.55 9.55 6.4 9.95 6.35 10.05 6.45 Q8.6 7.45 7.2 8.5 L10.95 8.55 6.95 9.8 8.3 10.25 9.45 9.8 9.5 10.1 8.4 10.8 6.5 10.0 7.15 11.05 10.1 10.65 10.2 10.85 11.25 10.65 11.7 10.7 12.05 10.9 11.95 11.15 11.4 11.35 10.6 11.95 11.35 12.15 12.05 11.85 11.9 12.35 16.8 17.05 16.6 17.15 11.6 12.6 10.8 12.9 22.8 24.45 20.05 21.35 24.65 26.15 M11.3 2.1 L11.25 2.35 11.05 2.45 10.9 2.4 10.9 2.35 10.8 2.1 10.9 1.9 11.05 1.8 11.25 1.9 11.3 1.95 11.3 2.1 M10.15 9.6 L10.2 9.7 10.15 9.85 10.0 9.85 9.85 9.85 9.8 9.7 9.85 9.6 10.0 9.5 10.15 9.6 M10.45 3.8 L10.75 4.05 11.0 4.0 11.15 4.25 10.45 5.4 8.95 5.75 8.95 5.95 8.75 6.15 8.35 5.9 6.95 6.9 6.45 5.95 7.4 4.15 7.25 5.65 8.25 4.65 8.65 5.35 10.1 4.9 10.45 3.8 M9.9 2.95 L10.05 3.05 10.15 3.2 10.05 3.4 9.95 3.45 9.9 3.45 9.75 3.4 9.65 3.2 9.75 3.05 Q9.8 2.95 9.9 2.95 M6.1 3.25 L5.95 3.3 6.75 2.8 8.65 2.45 4.95 4.1 6.1 3.25 M5.75 5.6 L7.2 3.15 6.05 5.65 5.75 5.6 M7.85 5.65 L8.2 5.5 8.15 5.35 7.85 5.65 M4.4 3.75 L4.4 3.35 5.55 3.1 4.4 3.75 M2.65 4.7 L2.8 4.0 2.2 4.45 2.65 4.7 M3.15 2.6 L3.0 2.5 1.8 3.75 1.85 3.95 1.8 4.15 1.9 4.3 3.1 2.8 3.15 2.6 M5.35 2.25 L8.3 1.95 4.8 2.85 4.95 2.45 5.35 2.25 M3.55 7.15 L3.35 7.1 3.55 7.45 3.55 7.15 M4.05 8.05 L4.55 7.9 4.25 7.25 4.05 7.25 4.05 8.05 M2.85 7.85 L2.5 8.2 3.05 8.5 2.85 7.85 M2.05 7.55 L2.25 7.65 3.2 6.7 2.85 5.15 2.05 7.55 M14.4 15.35 L19.8 20.7 19.65 20.9 14.4 15.35" fill="#828102" fill-rule="evenodd" stroke="none"/>
    <path d="M24.65 26.15 L20.05 21.35 22.8 24.45 10.8 12.9 11.6 12.6 16.6 17.15 16.8 17.05 11.9 12.35 12.05 11.85 11.35 12.15 10.6 11.95 11.4 11.35 11.95 11.15 12.05 10.9 11.7 10.7 11.25 10.65 10.2 10.85 10.1 10.65 7.15 11.05 6.5 10.0 8.4 10.8 9.5 10.1 9.45 9.8 8.3 10.25 6.95 9.8 10.95 8.55 7.2 8.5 Q8.6 7.45 10.05 6.45 L9.95 6.35 9.55 6.4 6.9 7.55 6.5 7.65 4.0 6.1 3.9 4.55 4.0 4.35 4.1 2.0 8.9 1.65 9.4 1.7 11.85 1.5 12.55 5.0 10.2 6.7 10.2 7.0 10.45 7.15 10.85 6.95 11.15 7.85 16.3 14.35 14.5 12.95 27.95 28.5 27.6 28.55 24.85 26.25 24.95 26.35 26.85 28.25 24.65 26.15 M11.3 2.1 L11.3 1.95 11.25 1.9 11.05 1.8 10.9 1.9 10.8 2.1 10.9 2.35 10.9 2.4 11.05 2.45 11.25 2.35 11.3 2.1 M10.45 3.8 L10.1 4.9 8.65 5.35 8.25 4.65 7.25 5.65 7.4 4.15 6.45 5.95 6.95 6.9 8.35 5.9 8.75 6.15 8.95 5.95 8.95 5.75 10.45 5.4 11.15 4.25 11.0 4.0 10.75 4.05 10.45 3.8 M10.15 9.6 L10.0 9.5 9.85 9.6 9.8 9.7 9.85 9.85 10.0 9.85 10.15 9.85 10.2 9.7 10.15 9.6 M9.9 2.95 Q9.8 2.95 9.75 3.05 L9.65 3.2 9.75 3.4 9.9 3.45 9.95 3.45 10.05 3.4 10.15 3.2 10.05 3.05 9.9 2.95 M5.75 5.6 L6.05 5.65 7.2 3.15 5.75 5.6 M6.1 3.25 L4.95 4.1 8.65 2.45 6.75 2.8 5.95 3.3 6.1 3.25 M7.85 5.65 L8.15 5.35 8.2 5.5 7.85 5.65 M5.35 2.25 L4.95 2.45 4.8 2.85 8.3 1.95 5.35 2.25 M3.15 2.6 L3.1 2.8 1.9 4.3 1.8 4.15 1.85 3.95 1.8 3.75 3.0 2.5 3.15 2.6 M2.65 4.7 L2.2 4.45 2.8 4.0 2.65 4.7 M4.4 3.75 L5.55 3.1 4.4 3.35 4.4 3.75 M3.55 7.15 L3.55 7.45 3.35 7.1 3.55 7.15 M4.05 8.05 L4.05 7.25 4.25 7.25 4.55 7.9 4.05 8.05 M2.85 7.85 L3.05 8.5 2.5 8.2 2.85 7.85 M2.05 7.55 L2.85 5.15 3.2 6.7 2.25 7.65 2.05 7.55 M14.4 15.35 L19.65 20.9 19.8 20.7 14.4 15.35" fill="#c6c502" fill-rule="evenodd" stroke="none"/>
  </g>
</svg>
