<?xml version="1.0" encoding="UTF-8" standalone="no"?>
<svg xmlns:ffdec="https://www.free-decompiler.com/flash" xmlns:xlink="http://www.w3.org/1999/xlink" ffdec:objectType="shape" height="8.0px" width="15.0px" xmlns="http://www.w3.org/2000/svg">
  <g transform="matrix(1.0, 0.0, 0.0, 1.0, 9.15, 6.45)">
    <path d="M-9.0 -1.3 L-9.1 -2.75 -9.05 -3.4 -8.8 -3.4 -6.6 -3.1 -2.95 -2.9 -0.8 -3.05 -0.25 -3.15 0.1 -3.25 0.15 -3.25 0.2 -3.35 0.4 -3.55 0.55 -3.6 0.7 -3.5 0.7 -3.45 1.2 -3.5 1.95 -3.8 3.45 -4.6 3.7 -4.75 4.5 -5.4 4.95 -5.8 5.35 -6.2 5.65 -6.45 5.7 -6.4 5.85 -4.45 5.5 -4.15 Q4.3 -3.35 3.4 -2.2 L2.75 -1.5 2.4 -1.0 1.9 -0.45 1.75 -0.15 1.55 0.2 1.0 1.0 Q0.45 1.45 -0.3 1.55 L-0.55 1.55 -1.55 1.2 Q-1.7 1.15 -1.8 1.05 L-2.0 0.9 -2.75 0.35 Q-4.05 -0.25 -5.4 -0.65 L-6.75 -1.0 -7.35 -1.1 -8.1 -1.2 -8.85 -1.25 -9.0 -1.3 M1.6 -3.55 L1.05 -3.3 1.45 -2.85 1.75 -2.55 2.05 -1.8 1.85 -0.65 1.85 -0.6 2.7 -1.65 Q3.9 -3.35 5.6 -4.55 L5.55 -5.9 5.5 -5.9 5.45 -5.85 5.4 -5.85 Q4.1 -4.75 2.6 -4.0 L1.9 -3.65 1.6 -3.55 M1.4 -2.75 L0.95 -3.0 1.2 -2.65 1.05 -2.5 1.05 -2.45 1.25 -2.0 1.25 -1.95 1.2 -1.9 1.1 -1.9 0.9 -2.35 0.85 -2.3 0.8 -2.25 0.8 -2.2 0.65 -2.15 0.0 -2.15 -0.1 -1.75 -0.2 -1.7 -0.25 -1.7 -0.3 -1.7 -0.35 -1.8 -0.25 -2.3 0.0 -2.7 0.2 -3.1 Q-0.6 -2.9 -1.05 -2.3 L-1.35 -1.9 -1.6 -1.45 -1.7 -0.9 -1.6 -0.55 Q-1.15 0.1 -0.35 0.25 0.45 0.35 1.1 -0.1 L1.7 -0.8 Q2.1 -1.5 1.8 -2.2 L1.4 -2.75 M0.45 -2.4 L0.35 -2.85 0.15 -2.45 0.45 -2.4 M0.75 -2.55 L0.95 -2.6 0.7 -3.05 0.6 -3.05 0.75 -2.55 M1.3 -0.05 L0.9 0.2 -0.7 0.35 -1.4 -0.05 -1.75 -0.45 -1.75 -0.2 Q-1.6 0.5 -1.1 0.9 L-0.5 1.3 -0.4 1.35 -0.2 1.4 0.1 0.95 0.05 0.75 0.05 0.65 Q0.3 0.95 0.1 1.35 L1.2 0.5 1.4 0.1 1.4 -0.05 1.3 -0.05 M-7.75 -1.7 L-7.55 -2.65 -7.5 -2.65 -7.55 -1.5 -7.5 -1.4 -6.8 -1.25 -5.7 -1.0 -4.7 -0.65 -3.6 -0.25 -2.8 0.15 Q-2.25 0.4 -1.8 0.75 L-1.4 1.0 -1.45 0.9 -1.9 -0.15 -1.9 -0.55 -1.9 -1.1 -1.85 -1.4 -1.65 -1.9 -0.9 -2.75 -1.85 -2.7 -2.15 -2.75 -3.6 -2.75 -4.7 -2.8 -5.8 -2.85 -7.4 -3.05 -8.75 -3.2 -8.9 -3.05 -8.9 -1.6 -8.8 -1.5 -8.15 -1.4 -7.9 -1.4 -7.7 -1.6 -7.75 -1.7" fill="#666666" fill-rule="evenodd" stroke="none"/>
    <path d="M-8.85 -1.25 L-9.0 -1.25 -9.0 -1.3 -8.85 -1.25 M1.6 -3.55 L1.9 -3.65 2.6 -4.0 Q4.1 -4.75 5.4 -5.85 L5.45 -5.85 5.5 -5.9 5.55 -5.9 5.6 -4.55 Q3.9 -3.35 2.7 -1.65 L1.85 -0.6 1.85 -0.65 2.05 -1.8 1.75 -2.55 1.45 -2.85 1.05 -3.3 1.6 -3.55 M-7.75 -1.7 L-7.7 -1.6 -7.9 -1.4 -8.15 -1.4 -8.8 -1.5 -8.9 -1.6 -8.9 -3.05 -8.75 -3.2 -7.4 -3.05 -5.8 -2.85 -4.7 -2.8 -3.6 -2.75 -2.15 -2.75 -1.85 -2.7 -0.9 -2.75 -1.65 -1.9 -1.85 -1.4 -1.9 -1.1 -1.9 -0.55 -1.9 -0.15 -1.45 0.9 -1.4 1.0 -1.8 0.75 Q-2.25 0.4 -2.8 0.15 L-3.6 -0.25 -4.7 -0.65 -5.7 -1.0 -6.8 -1.25 -7.5 -1.4 -7.55 -1.5 -7.5 -2.65 -7.55 -2.65 -7.75 -1.7" fill="#cccccc" fill-rule="evenodd" stroke="none"/>
    <path d="M1.3 -0.05 L1.4 -0.05 1.4 0.1 1.2 0.5 0.1 1.35 Q0.3 0.95 0.05 0.65 L0.05 0.75 0.1 0.95 -0.2 1.4 -0.4 1.35 -0.5 1.3 -1.1 0.9 Q-1.6 0.5 -1.75 -0.2 L-1.75 -0.45 -1.4 -0.05 -0.7 0.35 0.9 0.2 1.3 -0.05" fill="#999999" fill-rule="evenodd" stroke="none"/>
  </g>
</svg>
