<?xml version="1.0" encoding="UTF-8" standalone="no"?>
<svg xmlns:ffdec="https://www.free-decompiler.com/flash" xmlns:xlink="http://www.w3.org/1999/xlink" ffdec:objectType="shape" height="28.0px" width="26.85px" xmlns="http://www.w3.org/2000/svg">
  <g transform="matrix(1.0, 0.0, 0.0, 1.0, -1.65, -1.0)">
    <path d="M2.6 17.1 L2.85 16.15 3.1 16.0 3.25 15.85 3.35 15.6 2.45 14.1 3.2 10.75 Q3.85 10.4 4.7 10.15 4.9 9.3 4.4 8.5 L6.85 5.75 7.5 5.65 8.0 5.95 8.5 5.85 8.8 4.6 Q11.05 3.1 13.75 2.9 L14.15 3.1 14.25 3.55 14.6 3.8 15.4 3.8 15.85 3.3 16.2 2.9 Q18.9 3.0 21.1 4.35 L21.35 5.7 Q24.35 5.55 25.4 8.6 L25.3 9.75 25.4 10.25 26.45 10.7 27.55 14.05 26.75 15.65 Q27.25 16.3 27.35 17.1 L25.9 19.25 23.9 21.9 23.4 22.5 24.1 7.85 22.1 7.4 21.1 7.25 19.15 7.0 17.65 6.95 15.9 6.85 15.0 6.8 13.85 6.8 12.5 6.8 11.5 6.9 10.8 6.95 9.75 7.0 8.65 7.25 7.45 7.45 5.8 7.75 6.4 22.35 4.05 19.25 2.6 17.1 M21.1 18.3 L21.05 17.45 17.2 17.45 16.9 17.8 16.9 17.9 16.85 18.45 16.95 19.05 18.1 19.2 18.3 20.8 17.0 20.75 Q15.8 22.2 15.75 24.2 L17.25 21.5 16.75 23.7 Q16.6 24.55 16.6 25.5 L17.75 25.15 18.15 21.85 18.75 23.3 18.75 23.1 Q18.45 21.7 18.75 20.25 L19.25 20.25 19.4 23.4 19.5 23.6 19.75 21.3 20.8 21.25 21.75 22.75 22.15 22.6 21.0 20.7 19.7 20.6 20.0 19.3 21.0 19.15 21.1 18.3 M21.5 17.4 L21.5 17.9 22.8 17.9 22.8 17.4 21.5 17.4 M20.45 22.0 L20.5 22.2 20.05 22.7 20.6 23.5 21.15 22.75 21.0 21.65 19.95 21.6 20.45 22.0 M22.7 18.95 L21.95 19.8 20.25 19.8 20.2 20.25 21.9 20.35 22.55 19.85 23.05 20.5 22.7 18.95 M20.55 17.9 L20.7 18.35 17.3 18.45 17.55 18.0 20.55 17.9 M23.0 22.5 L15.1 27.2 15.15 16.95 23.5 16.85 23.0 22.5 M13.25 8.65 L14.3 8.55 14.65 11.85 13.65 9.85 13.25 8.65 M12.95 8.7 L12.15 9.4 8.9 9.65 7.9 9.15 12.95 8.7 M11.8 10.35 Q11.4 10.7 11.75 10.2 L11.8 10.35 M12.45 10.35 L12.25 9.95 13.1 9.1 13.15 10.0 13.55 10.8 Q13.8 11.5 13.65 12.25 13.45 13.25 12.85 14.1 L11.95 15.3 12.65 15.75 12.8 15.05 13.6 14.55 13.9 14.35 14.65 12.85 14.7 16.3 6.3 16.2 6.25 9.6 6.85 9.3 7.85 9.15 7.65 9.7 7.4 9.3 Q6.9 10.9 6.75 12.5 6.6 14.2 6.8 15.9 L7.3 15.75 7.5 15.15 8.0 15.6 8.45 15.45 8.8 15.7 9.8 15.25 9.55 14.9 9.65 14.35 11.8 14.25 12.0 14.8 12.5 14.2 11.7 11.4 12.45 10.35 M11.35 9.8 L11.15 10.7 9.8 10.95 9.25 10.05 11.35 9.8 M8.15 9.6 L8.75 10.1 8.6 10.45 8.6 10.75 8.7 11.05 8.9 11.25 9.15 11.35 9.05 15.0 8.25 14.8 8.15 9.6 M7.25 10.1 L7.25 9.95 7.95 10.85 7.8 14.6 7.2 14.7 6.9 15.05 7.25 10.1 M11.55 15.0 L10.2 15.0 10.2 15.55 11.55 15.55 11.55 15.0 M14.4 15.0 L13.15 15.0 13.15 15.75 14.4 15.75 14.4 15.0 M15.65 18.1 L15.7 18.55 16.1 18.85 16.25 18.6 Q16.4 17.95 15.65 18.1 M17.25 24.85 L16.8 25.0 17.6 21.8 17.25 24.85 M9.8 13.7 L10.05 11.4 11.15 11.3 11.65 13.6 9.8 13.7 M16.0 19.8 Q15.8 19.8 15.7 19.95 L15.55 20.3 15.7 20.65 16.0 20.8 16.35 20.65 16.45 20.3 16.35 19.95 16.0 19.8 M17.0 20.0 L16.55 20.0 16.55 20.45 17.0 20.45 17.0 20.0" fill="#ffffff" fill-rule="evenodd" stroke="none"/>
    <path d="M6.4 22.35 L5.8 7.75 7.45 7.45 8.65 7.25 9.75 7.0 10.8 6.95 11.5 6.9 12.5 6.8 13.85 6.8 15.0 6.8 15.9 6.85 17.65 6.95 19.15 7.0 21.1 7.25 22.1 7.4 24.1 7.85 23.4 22.5 23.35 22.8 23.25 22.9 21.2 24.1 19.1 25.35 17.0 26.5 14.9 27.6 6.45 22.9 6.4 22.35 M22.95 8.1 L23.05 8.3 22.95 8.5 22.75 8.6 22.55 8.5 22.45 8.3 22.55 8.1 22.75 8.0 22.95 8.1 M23.55 8.05 L21.6 7.7 21.95 8.45 21.85 8.55 21.15 8.25 21.55 7.7 20.65 7.65 19.2 7.6 17.85 7.75 17.8 7.75 17.7 7.9 17.05 7.75 16.9 7.7 16.85 7.65 16.95 7.5 15.2 7.15 15.2 7.95 19.3 8.2 19.35 7.85 19.45 7.7 Q19.85 7.6 19.9 7.85 L19.8 8.0 23.4 8.85 23.55 8.05 M23.5 11.8 L23.4 9.4 21.45 9.05 19.75 8.8 15.2 8.55 15.15 16.3 17.85 16.25 19.05 16.4 20.95 16.25 23.5 16.2 23.5 13.55 23.5 11.8 M21.5 17.4 L22.8 17.4 22.8 17.9 21.5 17.9 21.5 17.4 M21.1 18.3 L21.0 19.15 20.0 19.3 19.7 20.6 21.0 20.7 22.15 22.6 21.75 22.75 20.8 21.25 19.75 21.3 19.5 23.6 19.4 23.4 19.25 20.25 18.75 20.25 Q18.45 21.7 18.75 23.1 L18.75 23.3 18.15 21.85 17.75 25.15 16.6 25.5 Q16.6 24.55 16.75 23.7 L17.25 21.5 15.75 24.2 Q15.8 22.2 17.0 20.75 L18.3 20.8 18.1 19.2 16.95 19.05 16.85 18.45 16.9 17.9 16.9 17.8 17.2 17.45 21.05 17.45 21.1 18.3 M20.55 17.9 L17.55 18.0 17.3 18.45 20.7 18.35 20.55 17.9 M22.7 18.95 L23.05 20.5 22.55 19.85 21.9 20.35 20.2 20.25 20.25 19.8 21.95 19.8 22.7 18.95 M20.45 22.0 L19.95 21.6 21.0 21.65 21.15 22.75 20.6 23.5 20.05 22.7 20.5 22.2 20.45 22.0 M23.0 22.5 L23.5 16.85 15.15 16.95 15.1 27.2 23.0 22.5 M13.3 7.55 L13.7 7.7 13.7 7.85 13.25 7.85 13.25 7.75 13.3 7.55 M13.25 8.65 L13.65 9.85 14.65 11.85 14.3 8.55 13.25 8.65 M11.65 7.55 L11.4 8.0 11.15 7.55 11.65 7.55 M14.6 7.95 L14.6 7.15 12.9 7.55 13.0 7.75 Q13.0 7.95 12.5 8.0 L12.25 7.85 12.15 7.35 12.05 7.3 8.55 7.6 8.4 7.7 8.65 8.2 8.65 8.25 7.7 8.4 7.9 8.2 8.2 7.7 6.3 8.05 6.4 8.85 10.15 8.3 10.15 8.15 10.15 7.6 10.45 8.1 10.5 8.2 14.6 7.95 M11.35 9.8 L9.25 10.05 9.8 10.95 11.15 10.7 11.35 9.8 M12.45 10.35 L11.7 11.4 12.5 14.2 12.0 14.8 11.8 14.25 9.65 14.35 9.55 14.9 9.8 15.25 8.8 15.7 8.45 15.45 8.0 15.6 7.5 15.15 7.3 15.75 6.8 15.9 Q6.6 14.2 6.75 12.5 6.9 10.9 7.4 9.3 L7.65 9.7 7.85 9.15 6.85 9.3 6.25 9.6 6.3 16.2 14.7 16.3 14.65 12.85 13.9 14.35 13.6 14.55 12.8 15.05 12.65 15.75 11.95 15.3 12.85 14.1 Q13.45 13.25 13.65 12.25 13.8 11.5 13.55 10.8 L13.15 10.0 13.1 9.1 12.25 9.95 12.45 10.35 M11.8 10.35 L11.75 10.2 Q11.4 10.7 11.8 10.35 M12.95 8.7 L7.9 9.15 8.9 9.65 12.15 9.4 12.95 8.7 M18.4 8.0 L18.3 7.75 18.6 7.65 18.4 8.0 M16.5 7.65 L16.45 7.75 16.3 7.8 16.15 7.75 16.15 7.65 Q16.1 7.05 16.5 7.55 L16.5 7.65 M8.95 8.25 L8.95 8.0 9.35 8.2 9.35 8.25 8.95 8.25 M7.25 8.5 L7.05 8.6 6.85 8.5 6.75 8.3 6.85 8.1 7.05 8.0 7.25 8.1 7.35 8.3 7.25 8.5 M7.25 10.1 L6.9 15.05 7.2 14.7 7.8 14.6 7.95 10.85 7.25 9.95 7.25 10.1 M8.15 9.6 L8.25 14.8 9.05 15.0 9.15 11.35 8.9 11.25 8.7 11.05 8.6 10.75 8.6 10.45 8.75 10.1 8.15 9.6 M14.7 20.2 L14.65 16.95 6.35 16.85 6.8 22.5 14.5 27.1 14.7 24.35 14.7 23.4 14.7 20.35 14.7 20.2 M15.65 18.1 Q16.4 17.95 16.25 18.6 L16.1 18.85 15.7 18.55 15.65 18.1 M14.4 15.0 L14.4 15.75 13.15 15.75 13.15 15.0 14.4 15.0 M11.55 15.0 L11.55 15.55 10.2 15.55 10.2 15.0 11.55 15.0 M17.0 20.0 L17.0 20.45 16.55 20.45 16.55 20.0 17.0 20.0 M16.0 19.8 L16.35 19.95 16.45 20.3 16.35 20.65 16.0 20.8 15.7 20.65 15.55 20.3 15.7 19.95 Q15.8 19.8 16.0 19.8 M9.8 13.7 L11.65 13.6 11.15 11.3 10.05 11.4 9.8 13.7 M17.25 24.85 L17.6 21.8 16.8 25.0 17.25 24.85" fill="#666666" fill-rule="evenodd" stroke="none"/>
    <path d="M22.95 8.1 L22.75 8.0 22.55 8.1 22.45 8.3 22.55 8.5 22.75 8.6 22.95 8.5 23.05 8.3 22.95 8.1 M23.55 8.05 L23.4 8.85 19.8 8.0 19.9 7.85 Q19.85 7.6 19.45 7.7 L19.35 7.85 19.3 8.2 15.2 7.95 15.2 7.15 16.95 7.5 16.85 7.65 16.9 7.7 17.05 7.75 17.7 7.9 17.8 7.75 17.85 7.75 19.2 7.6 20.65 7.65 21.55 7.7 21.15 8.25 21.85 8.55 21.95 8.45 21.6 7.7 23.55 8.05 M13.3 7.55 L13.25 7.75 13.25 7.85 13.7 7.85 13.7 7.7 13.3 7.55 M14.6 7.95 L10.5 8.2 10.45 8.1 10.15 7.6 10.15 8.15 10.15 8.3 6.4 8.85 6.3 8.05 8.2 7.7 7.9 8.2 7.7 8.4 8.65 8.25 8.65 8.2 8.4 7.7 8.55 7.6 12.05 7.3 12.15 7.35 12.25 7.85 12.5 8.0 Q13.0 7.95 13.0 7.75 L12.9 7.55 14.6 7.15 14.6 7.95 M11.65 7.55 L11.15 7.55 11.4 8.0 11.65 7.55 M18.4 8.0 L18.6 7.65 18.3 7.75 18.4 8.0 M16.5 7.65 L16.5 7.55 Q16.1 7.05 16.15 7.65 L16.15 7.75 16.3 7.8 16.45 7.75 16.5 7.65 M8.95 8.25 L9.35 8.25 9.35 8.2 8.95 8.0 8.95 8.25 M7.25 8.5 L7.35 8.3 7.25 8.1 7.05 8.0 6.85 8.1 6.75 8.3 6.85 8.5 7.05 8.6 7.25 8.5" fill="#c4cc82" fill-rule="evenodd" stroke="none"/>
    <path d="M20.25 12.0 L20.4 12.25 20.35 12.8 20.2 13.0 20.0 13.2 19.7 13.25 19.25 13.0 19.05 12.8 19.0 12.5 19.05 12.2 Q18.85 12.3 18.8 12.4 L18.7 13.15 18.3 12.45 18.05 13.35 17.6 12.2 17.0 13.35 17.15 11.8 16.75 11.95 17.65 11.15 18.55 10.55 Q20.6 9.75 22.15 11.3 L22.35 11.6 22.35 11.7 22.15 11.65 21.7 11.5 21.75 12.55 21.35 11.75 21.15 12.8 20.05 11.5 19.7 11.75 20.0 11.85 20.25 12.0 M21.45 9.05 L23.4 9.4 23.5 11.8 23.3 11.15 Q22.8 9.85 21.45 9.05 M23.5 13.55 L23.5 16.2 20.95 16.25 21.55 15.95 Q22.95 15.05 23.5 13.55 M17.85 16.25 L15.15 16.3 15.2 8.55 19.75 8.8 19.0 8.95 Q17.3 9.45 16.45 11.3 L16.05 12.5 15.9 13.65 Q15.8 15.65 17.85 16.25 M23.2 11.6 L22.85 11.95 21.75 10.6 Q20.55 9.65 19.2 9.95 17.05 10.5 16.05 12.5 16.5 11.5 17.15 10.65 18.4 9.2 20.25 9.35 22.5 9.6 23.2 11.6 M9.1 17.55 L8.6 17.7 8.5 17.55 8.2 17.45 7.4 17.85 7.45 19.65 6.9 20.5 7.65 20.2 7.1 21.55 8.3 22.35 9.35 21.85 9.4 21.3 Q9.4 21.0 9.55 20.85 L9.75 20.9 10.4 20.65 11.25 20.0 12.1 19.65 12.55 18.95 13.15 18.9 13.65 18.1 13.2 18.1 13.05 18.45 12.65 18.6 12.25 18.45 12.1 18.05 9.8 18.0 9.4 18.7 8.95 18.8 9.1 17.55 M7.95 17.75 L8.45 18.45 8.45 19.05 8.0 19.65 7.85 19.2 Q7.6 18.4 7.95 17.75 M8.05 20.65 L8.45 20.45 8.9 20.65 9.05 21.1 8.9 21.55 8.45 21.75 Q8.2 21.75 8.05 21.55 L7.85 21.1 8.05 20.65 M9.25 20.0 L9.5 19.65 9.95 19.45 10.6 20.0 9.95 20.6 9.25 20.0 M14.7 24.35 L14.5 27.1 6.8 22.5 6.35 16.85 14.65 16.95 14.7 20.2 14.0 19.85 14.3 19.15 12.4 20.75 Q11.5 21.55 10.9 22.6 L10.5 22.9 10.35 22.9 9.7 22.5 13.75 18.9 12.45 19.85 Q10.4 21.15 8.85 22.9 L10.45 23.35 10.95 24.05 11.4 24.25 11.8 24.25 12.55 23.9 13.0 24.1 13.2 26.0 14.1 25.05 14.7 24.35 M14.7 20.35 L14.7 23.4 14.1 22.5 14.1 21.85 14.6 21.6 14.7 20.35 M9.8 18.85 L9.8 18.4 10.25 18.4 10.25 18.85 9.8 18.85 M11.25 18.3 L11.7 18.45 11.9 18.85 11.7 19.25 11.25 19.4 10.8 19.25 10.6 18.85 10.8 18.45 Q11.0 18.3 11.25 18.3 M12.8 21.45 L13.35 21.65 13.55 22.05 13.35 22.5 12.8 22.65 12.3 22.5 12.05 22.05 Q12.05 21.8 12.3 21.65 L12.8 21.45 M13.45 20.85 Q13.45 20.6 13.6 20.45 13.75 20.3 14.0 20.3 14.25 20.3 14.4 20.45 L14.55 20.85 14.4 21.25 14.0 21.4 13.6 21.25 13.45 20.85 M12.15 22.8 L12.3 23.2 12.15 23.65 11.7 23.8 11.3 23.65 11.1 23.2 11.3 22.8 Q11.45 22.6 11.7 22.6 L12.15 22.8 M12.8 23.05 L13.85 22.8 14.1 24.0 13.65 24.65 13.4 23.85 12.85 23.5 12.8 23.05" fill="#3069c9" fill-rule="evenodd" stroke="none"/>
    <path d="M24.35 1.4 L24.7 1.0 25.85 1.3 Q25.25 1.6 25.45 2.45 L24.35 3.1 23.95 3.9 23.2 4.0 22.85 4.35 24.7 6.25 26.0 7.75 Q29.1 11.95 28.35 17.15 L27.8 20.1 Q27.3 22.0 25.8 23.45 L22.85 26.05 20.1 27.8 18.6 28.35 15.0 29.0 12.4 28.4 9.9 27.95 Q8.0 27.4 6.45 26.05 4.95 24.75 3.95 23.15 3.05 21.65 2.4 20.0 L1.85 17.8 1.65 15.45 Q1.65 14.1 1.8 12.85 2.15 10.1 3.8 8.0 L5.5 5.95 7.05 3.95 7.05 3.35 7.4 3.1 7.55 3.6 7.85 3.85 8.2 3.75 8.35 3.25 11.75 2.6 15.0 1.9 17.75 2.3 21.25 3.3 21.5 3.1 21.45 3.25 21.55 3.7 21.9 3.95 21.95 3.95 22.45 3.85 22.55 3.7 22.6 3.2 22.4 2.9 22.7 2.85 23.2 2.45 23.2 2.65 23.45 3.0 23.6 3.2 23.75 3.15 23.85 3.05 24.1 2.8 Q24.3 2.25 23.8 2.15 L23.9 2.1 24.3 1.5 24.2 1.75 24.35 2.1 24.7 2.25 25.05 2.1 25.2 1.75 25.05 1.4 24.7 1.25 Q24.5 1.25 24.35 1.4 M27.35 17.1 Q27.25 16.3 26.75 15.65 L27.55 14.05 26.45 10.7 25.4 10.25 25.3 9.75 25.4 8.6 Q24.35 5.55 21.35 5.7 L21.1 4.35 Q18.9 3.0 16.2 2.9 L15.85 3.3 15.4 3.8 14.6 3.8 14.25 3.55 14.15 3.1 13.75 2.9 Q11.05 3.1 8.8 4.6 L8.5 5.85 8.0 5.95 7.5 5.65 6.85 5.75 4.4 8.5 Q4.9 9.3 4.7 10.15 3.85 10.4 3.2 10.75 L2.45 14.1 3.35 15.6 3.25 15.85 3.1 16.0 2.85 16.15 2.6 17.1 Q2.6 19.15 3.7 21.2 L5.05 21.9 5.05 23.0 Q6.05 24.6 7.7 25.75 L9.15 25.9 9.5 26.85 10.7 27.4 14.2 28.05 14.85 27.65 15.55 27.8 16.9 28.05 18.95 27.25 Q19.8 26.9 20.5 26.85 L20.85 25.9 22.25 25.75 25.0 23.15 24.95 21.9 26.2 21.2 26.95 19.75 Q27.55 18.5 27.35 17.1 M27.3 15.5 Q27.6 16.25 27.7 15.5 L27.55 15.25 Q27.2 15.3 27.3 15.5 M26.0 9.85 L26.25 9.4 25.75 9.4 26.0 9.85 M25.85 22.35 L25.9 22.15 25.85 21.95 25.65 21.85 25.5 21.95 25.4 22.15 25.5 22.35 25.65 22.45 25.85 22.35 M14.95 2.8 L14.75 2.9 14.65 3.15 14.75 3.4 14.95 3.5 15.15 3.4 15.25 3.15 15.15 2.9 14.95 2.8 M5.65 1.0 L6.2 1.3 5.65 2.2 4.95 2.05 4.75 1.6 Q4.65 1.25 4.95 1.0 4.7 1.7 5.35 1.8 6.05 1.55 5.65 1.0 M6.5 2.05 L6.75 2.05 7.0 2.25 6.85 3.35 6.1 3.45 Q5.5 3.05 5.8 2.35 L6.1 2.1 6.0 2.15 5.85 2.5 6.0 2.85 6.35 3.0 6.7 2.85 6.85 2.5 6.7 2.15 6.5 2.05 M7.85 5.0 L8.05 5.45 8.25 5.0 7.85 5.0 M4.5 22.4 L4.3 21.95 4.1 22.2 Q4.0 22.5 4.45 22.6 L4.5 22.4 M2.4 15.3 L2.3 15.45 Q2.8 16.25 2.75 15.35 L2.4 15.3 M21.4 26.05 L21.15 26.15 21.05 26.4 21.15 26.65 21.4 26.75 21.65 26.65 21.75 26.4 21.65 26.15 21.4 26.05 M8.85 26.1 L8.35 26.1 8.35 26.5 8.85 26.5 8.85 26.1 M14.95 28.55 Q15.1 27.85 14.65 28.25 14.85 28.85 14.95 28.55" fill="#717645" fill-rule="evenodd" stroke="none"/>
    <path d="M27.35 17.1 Q27.55 18.5 26.95 19.75 L26.2 21.2 24.95 21.9 25.0 23.15 22.25 25.75 20.85 25.9 20.5 26.85 Q19.8 26.9 18.95 27.25 L16.9 28.05 15.55 27.8 14.85 27.65 14.2 28.05 10.7 27.4 9.5 26.85 9.15 25.9 7.7 25.75 Q6.05 24.6 5.05 23.0 L5.05 21.9 3.7 21.2 Q2.6 19.15 2.6 17.1 L4.05 19.25 6.4 22.35 6.45 22.9 14.9 27.6 17.0 26.5 19.1 25.35 21.2 24.1 23.25 22.9 23.35 22.8 23.4 22.5 23.9 21.9 25.9 19.25 27.35 17.1" fill="#d1d8e9" fill-rule="evenodd" stroke="none"/>
    <path d="M20.25 12.0 L20.0 11.85 19.7 11.75 20.05 11.5 21.15 12.8 21.35 11.75 21.75 12.55 21.7 11.5 22.15 11.65 22.35 11.7 22.35 11.6 22.15 11.3 Q20.6 9.75 18.55 10.55 L17.65 11.15 16.75 11.95 17.15 11.8 17.0 13.35 17.6 12.2 18.05 13.35 18.3 12.45 18.7 13.15 18.8 12.4 Q18.85 12.3 19.05 12.2 L19.0 12.5 19.05 12.8 19.25 13.0 19.7 13.25 20.0 13.2 20.2 13.0 20.35 12.8 20.4 12.25 20.25 12.0 M21.45 9.05 Q22.8 9.85 23.3 11.15 L23.5 11.8 23.5 13.55 Q22.95 15.05 21.55 15.95 L20.95 16.25 19.05 16.4 17.85 16.25 Q15.8 15.65 15.9 13.65 L16.05 12.5 16.45 11.3 Q17.3 9.45 19.0 8.95 L19.75 8.8 21.45 9.05 M23.2 11.6 Q22.5 9.6 20.25 9.35 18.4 9.2 17.15 10.65 16.5 11.5 16.05 12.5 17.05 10.5 19.2 9.95 20.55 9.65 21.75 10.6 L22.85 11.95 23.2 11.6 M26.0 9.85 L25.75 9.4 26.25 9.4 26.0 9.85 M27.3 15.5 Q27.2 15.3 27.55 15.25 L27.7 15.5 Q27.6 16.25 27.3 15.5 M25.85 22.35 L25.65 22.45 25.5 22.35 25.4 22.15 25.5 21.95 25.65 21.85 25.85 21.95 25.9 22.15 25.85 22.35 M14.95 2.8 L15.15 2.9 15.25 3.15 15.15 3.4 14.95 3.5 14.75 3.4 14.65 3.15 14.75 2.9 14.95 2.8 M7.85 5.0 L8.25 5.0 8.05 5.45 7.85 5.0 M7.95 17.75 Q7.6 18.4 7.85 19.2 L8.0 19.65 8.45 19.05 8.45 18.45 7.95 17.75 M9.1 17.55 L8.95 18.8 9.4 18.7 9.8 18.0 12.1 18.05 12.25 18.45 12.65 18.6 13.05 18.45 13.2 18.1 13.65 18.1 13.15 18.9 12.55 18.95 12.1 19.65 11.25 20.0 10.4 20.65 9.75 20.9 9.55 20.85 Q9.4 21.0 9.4 21.3 L9.35 21.85 8.3 22.35 7.1 21.55 7.65 20.2 6.9 20.5 7.45 19.65 7.4 17.85 8.2 17.45 8.5 17.55 8.6 17.7 9.1 17.55 M2.4 15.3 L2.75 15.35 Q2.8 16.25 2.3 15.45 L2.4 15.3 M4.5 22.4 L4.45 22.6 Q4.0 22.5 4.1 22.2 L4.3 21.95 4.5 22.4 M9.25 20.0 L9.95 20.6 10.6 20.0 9.95 19.45 9.5 19.65 9.25 20.0 M8.05 20.65 L7.85 21.1 8.05 21.55 Q8.2 21.75 8.45 21.75 L8.9 21.55 9.05 21.1 8.9 20.65 8.45 20.45 8.05 20.65 M14.7 20.2 L14.7 20.35 14.6 21.6 14.1 21.85 14.1 22.5 14.7 23.4 14.7 24.35 14.1 25.05 13.2 26.0 13.0 24.1 12.55 23.9 11.8 24.25 11.4 24.25 10.95 24.05 10.45 23.35 8.85 22.9 Q10.4 21.15 12.45 19.85 L13.75 18.9 9.7 22.5 10.35 22.9 10.5 22.9 10.9 22.6 Q11.5 21.55 12.4 20.75 L14.3 19.15 14.0 19.85 14.7 20.2 M9.8 18.85 L10.25 18.85 10.25 18.4 9.8 18.4 9.8 18.85 M11.25 18.3 Q11.0 18.3 10.8 18.45 L10.6 18.85 10.8 19.25 11.25 19.4 11.7 19.25 11.9 18.85 11.7 18.45 11.25 18.3 M12.8 21.45 L12.3 21.65 Q12.05 21.8 12.05 22.05 L12.3 22.5 12.8 22.65 13.35 22.5 13.55 22.05 13.35 21.65 12.8 21.45 M13.45 20.85 L13.6 21.25 14.0 21.4 14.4 21.25 14.55 20.85 14.4 20.45 Q14.25 20.3 14.0 20.3 13.75 20.3 13.6 20.45 13.45 20.6 13.45 20.85 M12.15 22.8 L11.7 22.6 Q11.45 22.6 11.3 22.8 L11.1 23.2 11.3 23.65 11.7 23.8 12.15 23.65 12.3 23.2 12.15 22.8 M12.8 23.05 L12.85 23.5 13.4 23.85 13.65 24.65 14.1 24.0 13.85 22.8 12.8 23.05 M14.95 28.55 Q14.85 28.85 14.65 28.25 15.1 27.85 14.95 28.55 M8.85 26.1 L8.85 26.5 8.35 26.5 8.35 26.1 8.85 26.1 M21.4 26.05 L21.65 26.15 21.75 26.4 21.65 26.65 21.4 26.75 21.15 26.65 21.05 26.4 21.15 26.15 21.4 26.05" fill="#333333" fill-rule="evenodd" stroke="none"/>
    <path d="M7.4 3.1 Q7.7 2.5 8.15 3.0 L8.35 3.25 8.2 3.75 7.85 3.85 7.55 3.6 7.4 3.1 M21.5 3.1 L21.95 2.75 Q22.25 2.75 22.4 2.9 L22.6 3.2 22.55 3.7 22.45 3.85 21.95 3.95 21.9 3.95 21.55 3.7 21.45 3.25 21.5 3.1 M23.2 2.45 Q23.3 2.1 23.65 2.1 L23.8 2.15 Q24.3 2.25 24.1 2.8 L23.85 3.05 23.75 3.15 23.6 3.2 23.45 3.0 23.2 2.65 23.2 2.45 M24.3 1.5 L24.35 1.4 Q24.5 1.25 24.7 1.25 L25.05 1.4 25.2 1.75 25.05 2.1 24.7 2.25 24.35 2.1 24.2 1.75 24.3 1.5 M5.65 1.0 Q6.05 1.55 5.35 1.8 4.7 1.7 4.95 1.0 L5.65 1.0 M6.5 2.05 L6.7 2.15 6.85 2.5 6.7 2.85 6.35 3.0 6.0 2.85 5.85 2.5 6.0 2.15 6.1 2.1 6.35 2.0 6.5 2.05" fill="#cecfaf" fill-rule="evenodd" stroke="none"/>
  </g>
</svg>
