<?xml version="1.0" encoding="UTF-8" standalone="no"?>
<svg xmlns:ffdec="https://www.free-decompiler.com/flash" xmlns:xlink="http://www.w3.org/1999/xlink" ffdec:objectType="shape" height="28.25px" width="23.85px" xmlns="http://www.w3.org/2000/svg">
  <g transform="matrix(1.0, 0.0, 0.0, 1.0, -3.0, -1.0)">
    <path d="M9.35 10.3 L3.85 10.3 3.9 10.0 Q4.1 9.3 4.55 8.9 L9.75 4.2 25.85 4.1 25.95 5.55 Q25.9 6.2 25.45 6.2 L22.35 6.25 18.2 6.3 15.3 6.2 Q14.55 6.25 14.05 6.55 13.05 7.0 12.2 7.75 L9.35 10.3 M22.15 12.95 L21.7 12.3 21.5 11.55 22.85 10.9 23.25 11.55 23.7 12.2 24.15 13.4 24.15 13.45 25.7 15.7 25.25 16.05 24.7 16.0 23.8 15.7 22.8 14.8 22.4 13.95 22.2 13.1 22.15 12.95 M21.6 13.25 L21.75 13.5 22.05 14.05 22.4 14.6 20.7 15.45 21.25 16.3 21.3 16.4 21.45 16.65 21.5 16.35 21.4 16.15 21.3 15.5 22.6 15.0 22.9 15.95 22.95 16.5 Q22.25 17.35 20.95 17.4 20.1 17.35 19.6 16.8 L19.35 16.4 18.95 14.6 19.05 14.15 Q19.15 13.5 19.55 13.1 L21.6 13.25 M20.1 14.0 L20.3 14.7 20.75 14.55 20.2 13.95 20.1 13.9 20.1 14.0 M19.25 17.1 L20.2 18.25 18.85 18.8 18.25 17.95 17.6 17.2 18.0 18.1 18.5 19.05 17.15 19.7 16.75 18.85 15.55 16.35 15.2 15.65 14.6 14.3 15.9 13.7 16.4 14.7 16.85 15.7 16.95 15.8 16.95 15.65 16.8 14.45 17.9 13.95 18.1 15.05 18.25 15.95 18.95 16.75 19.25 17.1 M17.4 21.2 L18.75 20.65 19.0 20.7 19.85 20.2 22.5 18.25 Q23.05 17.85 23.95 18.0 L23.1 18.75 19.85 20.55 19.2 20.75 Q18.95 20.85 18.95 21.1 L17.75 21.65 17.7 21.65 Q17.05 22.0 17.4 21.2 M21.2 22.35 Q22.4 21.35 23.75 20.3 L24.5 20.05 24.75 20.15 24.6 20.3 23.6 21.0 22.1 21.9 21.2 22.35 M20.45 21.45 L18.25 22.7 19.25 21.6 Q19.95 21.0 20.95 20.6 22.55 19.75 24.25 19.15 L24.5 19.25 20.45 21.45 M24.15 21.2 L24.95 21.1 24.35 21.65 23.9 22.0 23.5 22.2 23.45 22.2 22.95 22.25 22.8 22.25 23.45 21.55 24.15 21.2 M25.2 22.65 L24.65 23.3 Q23.9 24.25 22.6 24.25 L23.1 23.65 Q23.95 22.9 25.2 22.65 M5.95 2.3 L6.15 2.25 6.25 2.25 Q7.05 2.55 7.15 3.2 L6.85 3.45 5.95 2.55 5.9 2.5 5.95 2.3 M8.1 4.4 L8.3 4.65 8.3 4.7 7.9 5.0 7.75 4.9 7.7 4.7 8.1 4.4 M6.7 14.75 L7.85 14.55 6.2 15.35 4.75 15.95 6.7 14.75 M5.6 16.15 L7.35 15.35 7.6 15.45 7.55 15.7 5.55 16.6 5.2 16.55 Q4.85 16.25 5.6 16.15 M7.75 18.75 L8.1 19.25 8.1 19.8 7.75 20.65 8.45 20.85 Q9.3 21.2 9.65 22.2 L9.9 23.15 8.65 23.7 8.15 22.85 7.8 22.25 7.6 21.85 7.25 21.4 7.4 21.95 7.6 22.45 7.8 22.95 8.2 23.9 6.8 24.6 5.9 22.75 5.85 22.7 4.15 19.2 6.55 18.15 7.75 18.75 M10.3 21.8 L9.8 21.3 Q8.4 19.7 9.6 17.9 L10.75 18.15 Q12.95 19.1 12.85 21.25 L12.55 21.7 10.3 21.8 M14.0 20.55 Q12.45 20.05 12.15 18.45 11.95 17.45 12.4 16.65 L14.1 15.9 14.6 16.1 15.15 16.6 15.45 17.1 14.2 17.75 13.85 17.25 13.55 16.9 13.5 16.85 13.5 16.9 13.5 17.45 13.6 18.25 Q13.8 19.35 15.05 19.85 L14.7 18.65 16.0 18.2 16.25 19.2 Q16.3 19.8 15.65 20.2 L14.0 20.55 M6.55 19.7 L6.45 19.6 6.15 20.0 6.35 20.4 Q6.5 20.55 6.75 20.55 L6.6 19.8 6.55 19.7 M11.1 19.8 L10.7 19.05 10.05 18.5 11.6 21.45 11.1 19.8" fill="#ffffff" fill-rule="evenodd" stroke="none"/>
    <path d="M8.3 4.65 L8.4 4.6 8.3 4.7 8.3 4.65" fill="#666666" fill-rule="evenodd" stroke="none"/>
    <path d="M25.95 5.55 L26.05 10.35 9.35 10.3 12.2 7.75 Q13.05 7.0 14.05 6.55 14.55 6.25 15.3 6.2 L18.2 6.3 22.35 6.25 25.45 6.2 Q25.9 6.2 25.95 5.55 M23.65 3.75 L23.6 2.25 23.6 2.15 23.15 1.7 22.75 1.5 12.6 1.5 Q11.85 1.45 11.75 2.2 L11.75 1.85 12.2 1.35 13.15 1.2 23.25 1.3 23.55 1.55 Q23.95 2.4 23.75 3.3 L23.65 3.75 M5.95 2.3 L5.9 2.5 5.8 2.5 5.65 2.3 5.95 2.3 M5.95 2.55 L6.85 3.45 4.55 5.3 3.7 4.55 Q3.1 4.75 3.8 5.35 L4.05 5.7 Q3.5 5.65 3.25 4.8 L3.3 4.65 3.35 3.9 3.6 3.75 3.8 3.6 4.15 3.25 4.1 4.0 4.05 4.1 4.35 4.0 4.55 3.7 4.55 3.6 4.4 3.25 5.3 2.4 5.35 2.3 5.4 2.95 5.3 3.2 5.45 3.3 Q6.05 3.2 5.95 2.55 M7.15 3.2 Q7.05 2.55 6.25 2.25 L6.65 2.25 Q7.4 2.5 7.2 3.1 L7.15 3.2 M8.1 4.4 Q8.2 4.25 8.25 4.35 L8.4 4.6 8.3 4.65 8.1 4.4 M7.9 5.0 L5.85 6.7 5.6 6.45 7.7 4.7 7.75 4.9 7.9 5.0 M5.0 7.4 L4.9 7.5 4.85 7.05 5.0 7.4 M3.9 27.5 L3.9 25.15 25.05 25.25 26.15 25.4 26.15 27.6 25.8 27.9 21.6 27.9 19.45 27.9 16.45 27.9 12.25 27.9 9.45 27.95 5.9 28.0 4.25 27.95 3.9 27.5" fill="#cccccc" fill-rule="evenodd" stroke="none"/>
    <path d="M22.75 1.5 L23.15 1.7 23.6 2.15 23.6 2.25 23.65 3.75 23.5 3.75 23.4 2.1 22.75 1.5 M11.75 2.2 Q11.85 1.45 12.6 1.5 L12.05 2.1 11.9 3.7 Q11.9 3.6 11.8 3.65 L11.75 3.6 11.75 2.8 11.75 2.7 11.75 2.2 M5.35 2.3 L5.65 2.3 5.8 2.5 5.7 2.85 5.4 2.95 5.35 2.3 M4.4 3.25 L4.55 3.6 4.35 4.0 4.05 4.1 4.1 4.0 4.15 3.25 4.4 3.25 M4.05 5.7 L3.8 5.35 Q3.1 4.75 3.7 4.55 L4.55 5.3 4.1 5.7 4.05 5.7 M7.35 3.7 Q8.05 4.15 7.55 4.5 6.2 5.4 5.0 6.4 L6.25 4.9 4.5 6.0 Q5.4 4.55 7.25 3.65 L7.35 3.7 M5.85 6.7 L5.0 7.4 4.85 7.05 5.6 6.45 5.85 6.7 M3.9 27.5 L4.25 27.95 5.9 28.0 9.45 27.95 12.25 27.9 16.45 27.9 19.45 27.9 21.6 27.9 25.8 27.9 26.15 27.6 26.15 28.65 25.2 28.75 3.95 28.65 3.9 27.5" fill="#999999" fill-rule="evenodd" stroke="none"/>
    <path d="M22.15 12.95 L22.2 13.1 21.75 13.5 21.6 13.25 22.15 12.95 M22.4 13.95 L22.8 14.8 22.6 15.0 21.3 15.5 21.4 16.15 21.25 16.3 20.7 15.45 22.4 14.6 22.05 14.05 22.4 13.95 M23.8 15.7 L24.7 16.0 24.6 17.7 20.95 20.6 Q19.95 21.0 19.25 21.6 L18.25 22.7 20.45 21.45 24.35 19.65 23.75 20.3 Q22.4 21.35 21.2 22.35 L21.15 22.4 19.25 23.5 18.8 22.7 16.05 23.45 17.75 21.65 18.95 21.1 19.85 21.1 19.85 20.55 23.1 18.75 23.95 18.0 Q23.05 17.85 22.5 18.25 L19.85 20.2 18.75 20.05 18.75 20.65 17.4 21.2 17.3 21.25 Q16.15 21.7 15.1 22.3 15.5 21.6 16.05 21.15 17.15 20.0 18.5 19.05 L18.85 18.8 20.2 18.25 19.25 17.1 19.6 16.8 Q20.1 17.35 20.95 17.4 22.25 17.35 22.95 16.5 L22.9 15.95 23.8 15.7 M24.15 13.45 L24.15 13.4 24.2 13.4 24.15 13.45 M20.2 13.95 L20.75 14.55 20.3 14.7 20.1 14.0 20.2 13.95 M21.3 16.4 L21.5 16.35 21.45 16.65 21.3 16.4 M23.6 21.0 L24.15 21.2 23.45 21.55 22.8 22.25 22.95 22.25 23.45 22.2 20.75 23.5 22.15 22.0 22.1 21.9 23.6 21.0 M20.5 25.0 L20.45 25.0 20.5 24.95 20.5 25.0 M6.7 14.75 L7.7 13.7 7.05 13.3 5.6 14.0 5.8 13.5 5.1 13.2 5.15 12.7 7.25 11.45 7.25 11.7 6.85 12.3 7.3 13.0 9.6 11.9 9.3 12.35 16.45 11.55 14.75 13.85 17.4 12.55 18.4 13.2 16.4 14.7 15.9 13.7 14.6 14.3 15.2 15.65 14.6 16.1 14.1 15.9 12.4 16.65 Q11.95 17.45 12.15 18.45 12.45 20.05 14.0 20.55 L12.85 21.25 Q12.95 19.1 10.75 18.15 L9.6 17.9 Q8.4 19.7 9.8 21.3 L10.3 21.8 9.65 22.2 Q9.3 21.2 8.45 20.85 L7.75 20.65 8.1 19.8 8.1 19.25 7.75 18.75 9.5 17.5 9.0 16.9 6.8 17.8 6.9 16.95 5.65 16.7 5.55 16.6 7.55 15.7 9.4 15.1 9.5 14.5 7.35 15.35 5.6 16.15 6.2 15.35 7.85 14.55 6.7 14.75 M16.85 15.7 L16.95 15.65 16.95 15.8 16.85 15.7 M18.1 15.05 Q18.5 14.85 18.95 14.6 L19.35 16.4 18.95 16.75 18.25 15.95 18.1 15.05 M6.15 20.0 L6.55 19.7 6.6 19.8 6.75 20.55 Q6.5 20.55 6.35 20.4 L6.15 20.0 M7.6 22.45 L7.8 22.25 8.15 22.85 7.8 22.95 7.6 22.45 M7.6 21.85 L7.4 21.95 7.25 21.4 7.6 21.85 M18.25 17.95 L18.0 18.1 17.6 17.2 18.25 17.95 M16.75 18.85 L16.25 19.2 16.0 18.2 14.7 18.65 15.05 19.85 Q13.8 19.35 13.6 18.25 L13.5 17.45 13.85 17.25 14.2 17.75 15.45 17.1 15.15 16.6 15.55 16.35 16.75 18.85 M13.9 14.55 L13.6 14.05 12.85 13.85 12.15 14.05 Q11.85 14.25 11.85 14.55 L12.15 15.1 12.85 15.3 13.6 15.1 13.9 14.55 M13.55 16.9 L13.5 16.9 13.5 16.85 13.55 16.9 M11.1 19.8 L11.6 21.45 10.05 18.5 10.7 19.05 11.1 19.8" fill="#2158d8" fill-rule="evenodd" stroke="none"/>
    <path d="M24.15 13.4 L23.7 12.2 23.25 11.55 22.85 10.9 21.5 11.55 21.7 12.3 22.15 12.95 21.6 13.25 19.55 13.1 Q19.15 13.5 19.05 14.15 L18.95 14.6 Q18.5 14.85 18.1 15.05 L17.9 13.95 16.8 14.45 16.95 15.65 16.85 15.7 16.4 14.7 18.4 13.2 17.4 12.55 14.75 13.85 16.45 11.55 9.3 12.35 9.6 11.9 7.3 13.0 6.85 12.3 7.25 11.7 7.25 11.45 5.15 12.7 5.1 13.2 5.8 13.5 5.6 14.0 7.05 13.3 7.7 13.7 6.7 14.75 4.75 15.95 6.2 15.35 5.6 16.15 Q4.85 16.25 5.2 16.55 L5.55 16.6 5.65 16.7 6.9 16.95 6.8 17.8 9.0 16.9 9.5 17.5 7.75 18.75 6.55 18.15 4.15 19.2 5.85 22.7 5.9 22.75 6.8 24.6 8.2 23.9 7.8 22.95 8.15 22.85 8.65 23.7 9.9 23.15 9.65 22.2 10.3 21.8 12.55 21.7 12.85 21.25 14.0 20.55 15.65 20.2 Q16.3 19.8 16.25 19.2 L16.75 18.85 17.15 19.7 18.5 19.05 18.0 18.1 18.25 17.95 18.85 18.8 18.5 19.05 Q17.15 20.0 16.05 21.15 15.5 21.6 15.1 22.3 16.15 21.7 17.3 21.25 L17.4 21.2 Q17.05 22.0 17.7 21.65 L17.75 21.65 16.05 23.45 18.8 22.7 19.25 23.5 21.15 22.4 21.2 22.35 22.1 21.9 22.15 22.0 20.75 23.5 23.45 22.2 23.5 22.2 23.9 22.0 24.35 21.65 24.95 21.1 24.15 21.2 23.6 21.0 24.6 20.3 24.75 20.15 24.5 20.05 23.75 20.3 24.35 19.65 20.45 21.45 24.5 19.25 24.25 19.15 Q22.55 19.75 20.95 20.6 L24.6 17.7 24.7 16.0 25.25 16.05 25.7 15.7 24.15 13.45 24.2 13.4 24.15 13.4 M22.2 13.1 L22.4 13.95 22.05 14.05 21.75 13.5 22.2 13.1 M22.8 14.8 L23.8 15.7 22.9 15.95 22.6 15.0 22.8 14.8 M20.1 14.0 L20.1 13.9 20.2 13.95 20.1 14.0 M21.25 16.3 L21.4 16.15 21.5 16.35 21.3 16.4 21.25 16.3 M19.6 16.8 L19.25 17.1 18.95 16.75 19.35 16.4 19.6 16.8 M18.75 20.65 L18.75 20.05 19.85 20.2 19.0 20.7 18.75 20.65 M19.85 20.55 L19.85 21.1 18.95 21.1 Q18.95 20.85 19.2 20.75 L19.85 20.55 M25.2 22.65 Q23.95 22.9 23.1 23.65 L22.6 24.25 Q23.9 24.25 24.65 23.3 L25.2 22.65 M20.45 25.0 L3.9 24.95 3.8 10.5 4.6 10.6 26.05 10.55 26.15 25.1 20.5 25.0 20.5 24.95 20.45 25.0 M7.35 15.35 L9.5 14.5 9.4 15.1 7.55 15.7 7.6 15.45 7.35 15.35 M14.6 16.1 L15.2 15.65 15.55 16.35 15.15 16.6 14.6 16.1 M6.15 20.0 L6.45 19.6 6.55 19.7 6.15 20.0 M7.6 22.45 L7.4 21.95 7.6 21.85 7.8 22.25 7.6 22.45 M13.9 14.55 L13.6 15.1 12.85 15.3 12.15 15.1 11.85 14.55 Q11.85 14.25 12.15 14.05 L12.85 13.85 13.6 14.05 13.9 14.55 M13.5 16.9 L13.55 16.9 13.85 17.25 13.5 17.45 13.5 16.9" fill="#13347d" fill-rule="evenodd" stroke="none"/>
    <path d="M25.95 5.55 L25.85 4.1 9.75 4.2 4.55 8.9 Q4.1 9.3 3.9 10.0 L3.85 10.3 9.35 10.3 26.05 10.35 25.95 5.55 M26.6 4.5 L26.5 4.6 26.6 28.35 26.8 29.1 Q15.2 29.1 3.65 29.25 L3.45 9.5 3.4 8.95 4.55 7.85 4.35 7.25 4.7 6.8 4.1 6.05 3.65 5.85 3.0 4.85 3.15 3.95 5.65 1.8 6.8 2.1 7.5 2.75 7.55 3.4 7.65 3.7 8.15 3.8 8.45 3.9 8.85 4.2 9.45 3.7 11.3 3.7 11.35 1.65 12.05 1.0 23.45 1.1 23.65 1.25 Q24.35 2.15 24.15 3.25 L24.15 3.75 26.4 3.85 Q27.15 4.0 26.6 4.5 M22.75 1.5 L23.4 2.1 23.5 3.75 23.65 3.75 23.75 3.3 Q23.95 2.4 23.55 1.55 L23.25 1.3 13.15 1.2 12.2 1.35 11.75 1.85 11.75 2.2 11.75 2.7 11.75 2.8 11.75 3.6 11.8 3.65 Q11.9 3.6 11.9 3.7 L12.05 2.1 12.6 1.5 22.75 1.5 M23.1 3.75 L23.05 3.25 Q23.15 2.4 22.7 1.7 L13.0 1.65 12.5 2.1 12.35 3.7 23.1 3.75 M6.25 2.25 L6.15 2.25 5.95 2.3 5.65 2.3 5.35 2.3 5.3 2.4 4.4 3.25 4.15 3.25 3.8 3.6 3.6 3.75 3.35 3.9 3.3 4.65 3.25 4.8 Q3.5 5.65 4.05 5.7 L4.1 5.7 4.55 5.3 6.85 3.45 7.15 3.2 7.2 3.1 Q7.4 2.5 6.65 2.25 L6.25 2.25 M5.9 2.5 L5.95 2.55 Q6.05 3.2 5.45 3.3 L5.3 3.2 5.4 2.95 5.7 2.85 5.8 2.5 5.9 2.5 M4.55 3.6 L4.55 3.7 4.35 4.0 4.55 3.6 M7.35 3.7 L7.25 3.65 Q5.4 4.55 4.5 6.0 L6.25 4.9 5.0 6.4 Q6.2 5.4 7.55 4.5 8.05 4.15 7.35 3.7 M8.4 4.6 L8.25 4.35 Q8.2 4.25 8.1 4.4 L7.7 4.7 5.6 6.45 4.85 7.05 4.9 7.5 5.0 7.4 5.85 6.7 7.9 5.0 8.3 4.7 8.4 4.6 M20.5 25.0 L26.15 25.1 26.05 10.55 4.6 10.6 3.8 10.5 3.9 24.95 20.45 25.0 20.5 25.0 M26.15 27.6 L26.15 25.4 25.05 25.25 3.9 25.15 3.9 27.5 3.95 28.65 25.2 28.75 26.15 28.65 26.15 27.6" fill="#000066" fill-rule="evenodd" stroke="none"/>
  </g>
</svg>
