<?xml version="1.0" encoding="UTF-8" standalone="no"?>
<svg xmlns:ffdec="https://www.free-decompiler.com/flash" xmlns:xlink="http://www.w3.org/1999/xlink" ffdec:objectType="shape" height="28.1px" width="27.9px" xmlns="http://www.w3.org/2000/svg">
  <g transform="matrix(1.0, 0.0, 0.0, 1.0, -1.15, -1.2)">
    <path d="M26.2 7.7 L26.35 7.65 26.35 7.7 26.2 7.7 M27.45 7.45 L27.25 7.5 27.45 7.45 M23.0 4.75 L23.05 4.75 23.15 4.85 23.0 4.75 M23.2 4.85 L23.35 4.85 23.45 4.9 23.2 4.85 M19.65 6.4 L19.65 6.45 19.4 6.3 19.65 6.4 M22.8 5.05 L22.9 5.0 22.85 5.05 22.8 5.05 M24.9 6.25 L25.0 7.15 24.9 6.25 M23.5 9.25 L23.4 9.25 23.4 9.2 23.5 9.25 M8.95 21.8 L8.9 21.8 8.95 21.75 8.95 21.8 M9.55 21.85 L9.65 21.65 9.55 21.85 M7.9 22.8 L7.9 22.85 7.8 22.85 7.9 22.8" fill="#7e7e01" fill-rule="evenodd" stroke="none"/>
    <path d="M25.65 3.65 L25.9 3.5 25.95 3.05 25.8 2.8 25.1 2.7 25.0 3.15 25.15 3.4 24.55 4.5 Q25.05 4.45 25.45 4.0 L25.65 3.65 M21.7 1.55 L21.7 1.5 21.95 1.45 21.65 1.7 21.95 2.3 22.45 2.4 22.2 3.0 22.0 2.7 22.0 2.6 21.9 2.7 21.85 2.7 21.7 2.95 21.45 3.7 21.0 3.85 21.0 4.2 21.1 4.25 21.5 4.45 21.75 5.15 22.05 4.95 22.45 4.7 22.7 4.7 23.0 4.75 23.15 4.85 23.2 4.85 23.45 4.9 24.3 5.4 25.3 6.55 25.25 7.1 25.2 7.3 25.15 7.35 25.0 7.15 24.9 6.25 24.7 6.0 24.15 5.4 23.95 5.3 23.0 5.1 22.75 5.2 22.85 5.05 22.9 5.0 22.6 5.0 22.05 5.45 21.7 5.85 20.9 6.3 19.75 5.25 20.35 4.2 19.75 4.45 19.4 4.8 19.3 4.5 21.05 3.4 21.7 1.55 M22.3 1.5 L23.0 1.8 23.9 1.9 24.7 2.15 Q25.8 2.45 26.3 3.45 27.35 3.75 27.55 4.8 L27.9 5.05 28.0 5.25 27.75 5.2 Q27.55 5.2 27.4 5.35 L27.3 5.7 27.45 6.0 27.85 6.15 28.15 6.0 28.25 5.9 28.55 6.8 28.5 6.75 Q28.15 6.5 27.85 6.75 L27.9 7.45 28.1 7.5 Q28.65 7.7 28.7 7.15 L28.8 7.45 Q27.2 7.95 26.45 9.4 L25.7 10.95 23.7 11.45 22.65 11.65 Q21.9 11.9 21.3 12.35 L20.45 13.0 19.85 12.6 5.1 28.55 7.8 24.9 6.25 26.4 7.95 24.45 8.15 24.6 8.55 24.4 9.2 23.85 11.85 20.95 14.55 18.1 17.85 14.6 19.15 12.85 Q19.3 12.55 19.05 12.55 L20.0 12.45 20.55 12.65 22.05 10.95 22.4 11.15 22.65 11.1 22.95 10.75 23.25 10.75 24.65 10.7 23.65 10.3 23.35 10.4 23.2 10.05 22.65 9.95 22.05 10.45 21.5 10.3 21.35 11.0 20.35 11.8 20.85 11.15 21.3 10.15 21.3 10.0 20.45 10.95 20.15 10.95 19.85 11.05 19.55 10.65 19.65 10.55 21.2 8.8 21.55 9.1 19.95 10.7 21.45 9.6 Q21.7 9.9 22.15 9.8 L22.9 9.35 23.6 9.5 24.15 10.3 25.45 10.55 Q25.65 10.5 25.45 10.3 L24.8 10.2 24.15 9.5 24.55 8.3 25.1 7.75 25.25 7.95 25.4 7.95 25.7 8.35 26.1 8.5 27.5 7.9 27.6 7.55 27.25 7.5 27.45 7.45 27.05 7.5 26.35 7.65 26.2 7.7 26.2 7.75 26.2 7.8 26.15 7.85 25.9 7.9 Q25.55 7.55 26.1 7.6 L26.35 7.25 28.0 6.2 27.25 6.3 27.3 5.9 26.8 5.75 26.45 5.95 26.3 6.3 26.35 6.55 25.95 6.6 25.9 6.35 27.2 5.0 26.9 4.95 26.95 4.8 27.45 4.55 27.0 3.95 26.75 4.0 Q26.35 4.15 26.6 4.5 L25.75 5.4 25.5 5.45 25.3 5.15 26.3 3.85 26.0 3.55 24.8 4.75 24.35 4.45 24.85 2.85 24.55 2.7 23.7 4.25 22.8 4.0 23.15 2.4 22.7 2.1 22.65 1.8 22.3 1.5 M2.5 23.4 L2.4 23.0 2.65 22.75 2.9 23.05 2.7 23.4 2.5 23.4 M1.6 20.25 L2.05 20.05 2.3 20.05 2.55 20.05 3.7 20.6 4.15 20.1 4.1 19.75 4.2 19.45 4.35 19.3 Q4.55 19.15 4.8 19.1 L6.35 20.25 7.05 19.6 8.1 20.45 8.15 20.6 8.25 20.7 8.05 20.95 7.1 20.1 6.6 20.7 6.6 21.0 5.1 19.9 5.0 19.75 4.7 19.65 4.5 19.75 4.4 19.95 4.55 20.35 4.0 20.95 2.95 20.55 2.95 20.6 2.95 20.65 3.0 20.8 3.2 20.95 5.5 23.15 Q5.7 23.0 5.85 22.9 L5.7 23.45 6.0 23.95 5.7 24.95 5.2 25.8 4.95 25.45 5.65 24.25 5.05 24.05 5.25 23.95 Q5.65 23.65 5.45 23.25 L5.1 23.3 2.6 21.15 1.6 20.25 M7.05 17.05 L7.2 16.85 10.1 19.3 17.75 10.8 17.45 10.55 17.8 10.0 17.9 11.3 17.5 11.75 Q16.95 12.45 16.55 13.3 L16.55 13.5 17.15 13.15 17.15 13.35 19.35 11.65 19.75 11.3 19.9 11.55 19.3 11.9 19.1 12.05 19.1 12.1 17.7 13.5 8.25 23.95 7.65 24.25 6.2 25.6 6.45 24.95 6.55 24.55 6.8 24.15 6.5 23.55 6.9 23.15 6.25 22.2 7.05 22.7 8.05 22.4 Q8.25 22.6 8.5 22.6 L8.9 22.45 9.55 21.85 9.65 21.65 16.3 13.9 14.25 15.7 Q13.05 16.45 12.1 17.55 L10.45 19.65 10.45 19.85 9.9 20.55 9.85 20.4 Q9.75 20.2 9.6 20.35 L7.95 21.85 7.0 22.2 Q6.4 22.15 5.9 21.7 L5.55 21.65 5.05 21.25 5.4 20.9 6.95 22.1 7.35 21.65 7.15 20.6 7.9 21.45 9.4 19.85 9.5 19.75 9.4 19.5 9.25 19.3 Q8.25 18.0 7.05 17.05 M18.3 9.4 L18.9 8.4 18.8 5.25 19.1 5.35 19.4 4.85 19.2 5.6 19.15 5.55 19.2 5.65 18.95 5.95 Q18.7 6.4 19.05 7.0 L19.25 7.25 19.3 8.25 18.3 9.4 M23.8 2.75 L24.3 2.45 24.05 2.0 23.3 2.1 23.4 2.5 22.95 3.65 23.3 3.95 23.8 2.75 M20.7 4.35 Q20.4 4.35 20.2 4.6 L20.0 5.1 20.25 5.65 20.75 5.8 21.3 5.55 21.45 5.05 21.25 4.55 Q21.0 4.3 20.7 4.35 M19.4 6.3 L19.4 6.25 19.65 6.4 19.4 6.3 M19.85 6.6 L20.45 6.85 20.55 6.9 Q20.65 7.3 20.9 7.05 L20.9 6.95 21.35 6.8 21.3 7.05 20.55 7.75 20.0 8.85 19.05 9.7 19.5 9.1 19.8 9.0 19.95 8.65 19.75 7.8 20.35 7.7 20.25 7.05 19.8 6.85 19.85 6.6 M21.65 7.9 L22.4 8.5 22.15 8.85 22.15 8.9 21.45 8.25 21.65 7.9 M23.4 9.2 L23.5 9.2 23.55 9.25 23.5 9.25 23.4 9.2 M24.75 9.65 L24.8 9.75 25.0 9.85 25.4 9.95 Q25.7 9.95 25.9 9.75 L26.1 9.2 25.8 8.65 25.25 8.4 Q24.9 8.4 24.7 8.65 24.5 8.85 24.55 9.15 L24.75 9.65 M19.0 10.65 L19.05 10.65 19.0 10.7 19.0 10.65 M21.0 8.25 L21.0 8.2 21.05 8.2 21.0 8.25 M19.0 10.7 L18.9 10.85 19.0 10.7 M5.3 25.95 L5.6 26.15 5.85 26.05 5.25 26.65 5.2 26.3 5.3 25.95 M4.45 26.5 L4.1 26.25 4.3 25.95 3.9 25.4 4.45 24.65 3.2 23.4 3.4 23.15 3.45 22.85 4.3 23.55 4.3 23.85 4.7 24.45 4.15 25.1 4.65 26.0 4.45 26.5 M4.45 26.9 L4.55 26.65 5.05 26.9 4.45 27.55 4.4 27.55 4.55 27.2 4.45 26.9 M7.3 23.4 L7.15 23.85 7.25 23.9 7.7 23.85 8.25 23.1 8.1 22.85 7.9 22.8 7.8 22.85 7.3 23.4" fill="#ffff00" fill-rule="evenodd" stroke="none"/>
    <path d="M25.65 3.65 L25.45 4.0 Q25.05 4.45 24.55 4.5 L25.15 3.4 25.65 3.65 M5.05 28.65 L5.0 28.65 4.4 28.95 4.15 28.85 3.8 28.5 3.75 28.25 Q3.65 27.8 3.9 27.4 L3.35 26.8 3.3 26.25 1.7 24.6 1.75 23.95 2.35 23.8 2.5 23.4 2.7 23.4 2.65 23.65 3.75 24.6 2.7 24.0 2.3 24.5 3.8 25.85 3.75 26.45 3.95 26.7 4.45 26.9 4.55 27.2 4.4 27.55 4.1 28.35 4.75 28.7 6.2 27.0 5.9 27.0 4.6 28.25 6.25 26.4 7.8 24.9 5.1 28.55 5.05 28.65 M2.65 22.75 L3.05 22.3 1.65 20.8 1.6 20.25 2.6 21.15 2.15 20.75 Q3.4 22.4 5.15 23.4 5.55 23.7 5.45 23.25 5.65 23.65 5.25 23.95 L5.05 24.05 4.45 23.8 5.15 24.4 4.6 25.5 4.9 25.95 4.85 26.3 5.2 26.3 5.25 26.65 5.05 26.9 4.55 26.65 4.45 26.5 4.65 26.0 4.15 25.1 4.7 24.45 4.3 23.85 4.3 23.55 3.45 22.85 2.9 23.05 2.65 22.75 M8.1 20.45 L9.1 19.55 6.75 17.4 7.05 17.05 Q8.25 18.0 9.25 19.3 L9.4 19.5 9.5 19.75 9.4 19.85 9.25 19.3 6.95 17.25 9.2 19.6 8.25 20.7 8.15 20.6 8.1 20.45 M17.8 10.0 L18.3 9.4 19.3 8.25 19.25 7.25 19.05 7.0 Q18.7 6.4 18.95 5.95 L19.2 5.65 Q19.15 6.45 19.6 7.05 L19.7 7.1 19.85 7.1 19.95 7.1 20.05 7.5 19.35 7.7 19.65 8.7 18.35 10.05 18.6 10.5 18.3 10.75 18.5 11.2 16.95 13.15 17.9 12.2 17.15 13.15 16.55 13.5 16.55 13.3 Q16.95 12.45 17.5 11.75 L17.9 11.3 17.8 10.0 M26.95 4.8 L26.9 4.95 25.75 5.4 26.6 4.5 26.95 4.8 M26.35 6.55 L26.3 6.3 26.45 5.95 26.8 5.75 27.3 5.9 27.25 6.3 26.35 6.55 M26.35 7.25 L26.1 7.6 Q25.55 7.55 25.9 7.9 L26.15 7.85 26.1 8.05 25.8 7.95 26.05 8.3 27.25 7.5 27.6 7.55 27.5 7.9 26.1 8.5 25.7 8.35 25.4 7.95 25.3 6.2 25.3 6.55 24.3 5.4 23.45 4.9 23.35 4.85 24.1 4.95 22.65 4.5 22.1 4.5 22.05 4.95 21.75 5.15 21.5 4.45 21.1 4.25 21.0 4.2 21.0 3.85 21.2 4.2 21.6 3.95 22.0 2.7 22.2 3.0 22.0 4.1 22.9 2.5 22.5 4.1 23.85 4.55 24.6 2.85 24.1 4.6 24.95 5.1 25.15 5.55 25.6 5.75 26.45 5.45 25.55 5.95 25.75 6.85 26.0 6.95 27.2 6.55 26.0 7.4 26.35 7.25 M26.35 7.65 L27.05 7.5 26.35 7.7 26.35 7.65 M25.1 7.75 L24.55 8.3 25.0 7.15 25.15 7.35 25.1 7.75 M25.45 10.3 Q25.65 10.5 25.45 10.55 L24.15 10.3 23.6 9.5 23.7 9.35 23.55 9.25 23.5 9.2 23.4 9.2 23.4 9.25 22.9 9.35 22.15 9.8 Q21.7 9.9 21.45 9.6 L22.2 9.6 22.55 8.7 23.0 9.05 23.45 8.55 22.4 8.5 21.65 7.9 21.65 7.75 21.4 7.55 21.6 7.5 21.35 6.8 20.9 6.95 Q20.7 6.6 20.5 6.8 L20.45 6.85 19.85 6.6 19.65 6.45 19.65 6.4 19.4 6.25 19.4 6.3 19.2 5.6 19.4 4.85 19.4 4.8 19.75 4.45 Q19.25 5.4 20.0 6.15 20.7 6.65 21.45 6.35 L21.7 5.85 22.05 5.45 Q21.35 6.45 22.1 7.5 22.95 8.7 24.25 8.3 23.85 8.75 24.05 9.25 L24.45 10.0 24.75 10.35 25.45 10.3 M19.65 10.55 L19.55 10.65 19.05 10.65 19.0 10.65 18.85 10.2 19.05 9.7 20.0 8.85 20.55 7.75 21.3 7.05 21.2 7.65 21.35 8.05 20.9 7.95 20.75 8.35 20.85 8.7 19.65 10.55 M19.85 11.05 L20.15 10.95 20.55 11.3 21.3 10.15 20.85 11.15 20.35 11.8 19.9 11.55 19.75 11.3 19.85 11.05 M23.25 10.75 L22.95 10.75 22.65 11.1 22.4 11.15 22.05 10.95 20.55 12.65 20.0 12.45 19.05 12.55 18.5 12.85 19.1 12.1 19.1 12.05 20.15 12.05 20.7 12.15 21.75 10.55 22.5 10.55 22.8 10.05 23.0 10.05 23.25 10.45 23.25 10.75 M23.4 2.5 L23.8 2.75 23.3 3.95 22.95 3.65 23.4 2.5 M22.75 5.2 Q22.25 5.5 22.2 6.1 L22.15 6.45 Q22.55 7.65 23.8 7.95 L24.15 8.0 24.0 8.1 23.1 7.9 Q22.0 7.1 22.15 6.05 L22.35 5.6 22.8 5.05 22.85 5.05 22.75 5.2 M21.0 8.25 L20.95 8.4 21.0 8.2 21.0 8.25 M22.15 8.85 L22.2 9.1 22.15 8.9 22.15 8.85 M19.2 9.85 L19.15 10.2 19.45 10.15 19.35 10.0 20.3 9.2 Q19.85 9.1 19.4 9.55 L19.2 9.85 M2.95 20.55 L4.0 20.95 4.55 20.35 4.4 19.95 4.5 19.75 4.7 19.65 5.0 19.75 5.1 19.9 4.4 21.2 4.65 21.3 5.15 20.65 5.1 20.2 6.85 21.35 7.15 20.6 7.35 21.65 6.95 22.1 5.4 20.9 5.05 21.25 5.55 21.65 5.9 21.7 6.55 22.95 6.1 23.5 6.45 23.95 6.25 24.95 6.35 24.95 6.45 24.95 6.2 25.6 5.85 26.05 5.6 26.15 5.3 25.95 5.2 25.8 5.7 24.95 6.0 23.95 5.7 23.45 5.85 22.9 Q5.7 23.0 5.5 23.15 L3.2 20.95 5.6 23.05 5.45 22.45 2.95 20.55 M2.95 20.65 L2.95 20.6 2.95 20.65 M9.6 20.35 L8.55 21.85 8.8 22.1 8.9 22.45 8.5 22.6 Q8.25 22.6 8.05 22.4 L7.95 21.85 9.6 20.35 M14.25 15.7 L10.45 19.85 10.45 19.65 12.1 17.55 Q13.05 16.45 14.25 15.7 M7.9 22.8 L8.1 22.85 8.25 23.1 7.7 23.85 7.25 23.9 7.15 23.85 7.3 23.4 Q7.3 23.7 7.5 23.6 8.0 23.35 7.9 22.85 L7.9 22.8" fill="#9c9b01" fill-rule="evenodd" stroke="none"/>
    <path d="M25.15 3.4 L25.0 3.15 25.1 2.7 25.8 2.8 25.95 3.05 25.9 3.5 25.65 3.65 25.15 3.4 M21.95 1.45 L22.3 1.5 22.65 1.8 22.7 2.1 22.45 2.4 21.95 2.3 21.65 1.7 21.95 1.45 M28.0 5.25 L28.1 5.35 28.25 5.7 28.25 5.9 28.15 6.0 27.85 6.15 27.45 6.0 27.3 5.7 27.4 5.35 Q27.55 5.2 27.75 5.2 L28.0 5.25 M28.55 6.8 L28.7 7.15 Q28.65 7.7 28.1 7.5 L27.9 7.45 27.85 6.75 Q28.15 6.5 28.5 6.75 L28.55 6.8 M18.8 5.25 L18.8 4.8 19.3 4.5 19.4 4.8 19.4 4.85 19.1 5.35 18.8 5.25 M26.6 4.5 Q26.35 4.15 26.75 4.0 L27.0 3.95 27.45 4.55 26.95 4.8 26.6 4.5 M21.55 9.1 L21.2 8.8 20.95 8.4 21.0 8.25 21.05 8.2 21.45 8.25 22.15 8.9 22.2 9.1 21.95 9.3 21.85 9.3 21.7 9.1 21.55 9.1 M19.55 10.65 L19.85 11.05 19.75 11.3 19.35 11.65 17.15 13.35 17.15 13.15 17.9 12.2 18.9 11.2 18.9 10.85 19.0 10.7 19.05 10.65 19.55 10.65 M19.05 12.55 Q19.3 12.55 19.15 12.85 L17.85 14.6 14.55 18.1 11.85 20.95 9.2 23.85 8.55 24.4 8.15 24.6 7.95 24.45 6.25 26.4 4.6 28.25 4.6 28.2 4.6 28.25 4.55 28.25 4.45 27.55 5.05 26.9 5.25 26.65 5.85 26.05 6.2 25.6 7.65 24.25 8.25 23.95 17.7 13.5 17.5 13.9 18.5 12.85 19.05 12.55 M23.8 2.75 L23.4 2.5 23.3 2.1 24.05 2.0 24.3 2.45 23.8 2.75 M20.75 4.55 L21.05 4.65 Q21.3 5.15 20.8 5.0 L20.7 4.95 20.75 4.55 M23.85 5.7 Q24.0 5.7 24.2 5.85 L24.4 6.15 24.25 6.5 23.95 6.65 23.6 6.5 23.4 6.15 Q23.4 5.95 23.55 5.8 L23.85 5.7 M25.8 9.05 L25.6 9.25 25.4 9.3 25.3 9.15 25.4 8.9 25.5 8.7 25.8 9.05 M9.65 21.65 L9.85 21.1 8.95 21.8 8.95 21.75 9.9 20.55 10.45 19.85 14.25 15.7 16.3 13.9 9.65 21.65" fill="#ffffff" fill-rule="evenodd" stroke="none"/>
    <path d="M20.75 4.55 L20.7 4.95 20.8 5.0 Q21.3 5.15 21.05 4.65 L21.25 5.05 21.05 5.5 20.3 4.7 20.75 4.55 M23.95 5.3 L24.15 5.4 24.7 6.0 24.85 6.8 24.45 7.5 24.0 7.4 Q23.15 7.1 22.65 6.3 L22.6 5.7 Q22.9 5.35 23.35 5.3 L23.95 5.3 M23.85 5.7 L23.55 5.8 Q23.4 5.95 23.4 6.15 L23.6 6.5 23.95 6.65 24.25 6.5 24.4 6.15 24.2 5.85 Q24.0 5.7 23.85 5.7 M25.7 9.6 L25.05 9.0 25.05 8.65 25.5 8.7 25.4 8.9 25.3 9.15 25.4 9.3 25.6 9.25 25.8 9.05 25.9 9.3 25.7 9.6" fill="#ff0000" fill-rule="evenodd" stroke="none"/>
    <path d="M21.05 5.5 L20.35 5.25 20.3 4.7 21.05 5.5 M22.6 5.7 L22.65 6.3 Q23.15 7.1 24.0 7.4 L24.45 7.5 23.45 7.45 Q22.65 7.3 22.35 6.5 L22.6 5.7 M25.05 8.65 L25.05 9.0 25.7 9.6 25.1 9.85 25.0 9.85 24.8 9.75 24.75 9.65 24.75 9.15 25.05 8.65" fill="#990000" fill-rule="evenodd" stroke="none"/>
    <path d="M21.7 1.5 L21.85 1.35 22.1 1.2 22.9 1.55 23.9 1.7 24.8 2.1 25.15 2.1 27.35 3.75 27.8 4.6 28.3 5.05 28.65 5.65 29.05 7.4 Q29.1 7.85 28.75 8.1 27.9 8.3 27.15 8.75 26.95 8.8 26.85 9.1 L26.3 10.35 25.65 11.4 Q23.9 11.4 22.5 12.25 L20.4 13.6 19.9 13.15 5.6 28.85 4.0 29.3 Q3.6 29.2 3.5 28.75 L3.4 27.65 3.4 27.3 2.9 26.2 1.15 24.4 1.15 24.15 Q1.3 23.45 2.0 23.4 L2.05 23.1 Q2.2 22.4 2.7 22.1 2.0 21.6 1.45 20.95 1.1 20.6 1.3 20.25 1.5 19.8 2.15 19.9 L3.7 20.15 3.95 19.15 4.7 18.85 6.2 19.95 6.95 19.2 8.1 20.05 8.65 19.55 6.35 17.45 7.25 16.5 9.9 18.85 17.3 10.75 16.95 10.45 18.15 8.7 18.35 7.95 18.5 5.2 Q18.5 4.95 18.65 4.8 L20.3 3.45 Q20.55 3.2 20.9 3.05 21.15 2.2 21.7 1.55 L21.05 3.4 19.3 4.5 18.8 4.8 18.8 5.25 18.9 8.4 18.3 9.4 17.8 10.0 17.45 10.55 17.75 10.8 10.1 19.3 7.2 16.85 7.05 17.05 6.75 17.4 9.1 19.55 8.1 20.45 7.05 19.6 6.35 20.25 4.8 19.1 Q4.55 19.15 4.35 19.3 L4.2 19.45 4.1 19.75 4.15 20.1 3.7 20.6 2.55 20.05 2.3 20.05 2.05 20.05 1.6 20.25 1.65 20.8 3.05 22.3 2.65 22.75 2.4 23.0 2.5 23.4 2.35 23.8 1.75 23.95 1.7 24.6 3.3 26.25 3.35 26.8 3.9 27.4 Q3.65 27.8 3.75 28.25 L3.8 28.5 4.15 28.85 4.4 28.95 5.0 28.65 5.05 28.65 5.1 28.55 19.85 12.6 20.45 13.0 21.3 12.35 Q21.9 11.9 22.65 11.65 L23.7 11.45 25.7 10.95 26.45 9.4 Q27.2 7.95 28.8 7.45 L28.7 7.15 28.55 6.8 28.25 5.9 28.25 5.7 28.1 5.35 28.0 5.25 27.9 5.05 27.55 4.8 Q27.35 3.75 26.3 3.45 25.8 2.45 24.7 2.15 L23.9 1.9 23.0 1.8 22.3 1.5 21.95 1.45 21.7 1.5 M26.9 4.95 L27.2 5.0 25.9 6.35 25.95 6.6 26.35 6.55 27.25 6.3 28.0 6.2 26.35 7.25 26.0 7.4 27.2 6.55 26.0 6.95 25.75 6.85 25.55 5.95 26.45 5.45 25.6 5.75 25.15 5.55 24.95 5.1 24.1 4.6 24.6 2.85 23.85 4.55 22.5 4.1 22.9 2.5 22.0 4.1 22.2 3.0 22.45 2.4 22.7 2.1 23.15 2.4 22.8 4.0 23.7 4.25 24.55 2.7 24.85 2.85 24.35 4.45 24.8 4.75 26.0 3.55 26.3 3.85 25.3 5.15 25.5 5.45 25.75 5.4 26.9 4.95 M26.15 7.85 L26.2 7.8 26.2 7.75 26.2 7.7 26.35 7.7 27.05 7.5 27.45 7.45 27.25 7.5 26.05 8.3 25.8 7.95 26.1 8.05 26.15 7.85 M25.4 7.95 L25.25 7.95 25.1 7.75 25.15 7.35 25.2 7.3 25.25 7.1 25.3 6.55 25.3 6.2 25.4 7.95 M24.55 8.3 L24.15 9.5 24.8 10.2 25.45 10.3 24.75 10.35 24.45 10.0 24.05 9.25 Q23.85 8.75 24.25 8.3 22.95 8.7 22.1 7.5 21.35 6.45 22.05 5.45 L22.6 5.0 22.9 5.0 22.8 5.05 22.35 5.6 22.15 6.05 Q22.0 7.1 23.1 7.9 L24.0 8.1 24.15 8.0 23.8 7.95 Q22.55 7.65 22.15 6.45 L22.2 6.1 Q22.25 5.5 22.75 5.2 L23.0 5.1 23.95 5.3 23.35 5.3 Q22.9 5.35 22.6 5.7 L22.35 6.5 Q22.65 7.3 23.45 7.45 L24.45 7.5 24.85 6.8 24.7 6.0 24.9 6.25 25.0 7.15 24.55 8.3 M23.6 9.5 L22.9 9.35 23.4 9.25 23.5 9.25 23.55 9.25 23.7 9.35 23.6 9.5 M21.45 9.6 L19.95 10.7 21.55 9.1 21.7 9.1 21.85 9.3 21.95 9.3 22.2 9.1 22.15 8.85 22.4 8.5 23.45 8.55 23.0 9.05 22.55 8.7 22.2 9.6 21.45 9.6 M21.2 8.8 L19.65 10.55 20.85 8.7 20.75 8.35 20.9 7.95 21.35 8.05 21.2 7.65 21.3 7.05 21.35 6.8 21.6 7.5 21.4 7.55 21.65 7.75 21.65 7.9 21.45 8.25 21.05 8.2 21.0 8.2 20.95 8.4 21.2 8.8 M20.15 10.95 L20.45 10.95 21.3 10.0 21.3 10.15 20.55 11.3 20.15 10.95 M20.35 11.8 L21.35 11.0 21.5 10.3 22.05 10.45 22.65 9.95 23.2 10.05 23.35 10.4 23.65 10.3 24.65 10.7 23.25 10.75 23.25 10.45 23.0 10.05 22.8 10.05 22.5 10.55 21.75 10.55 20.7 12.15 20.15 12.05 19.1 12.05 19.3 11.9 19.9 11.55 20.35 11.8 M21.0 3.85 L21.45 3.7 21.7 2.95 21.85 2.7 21.9 2.7 22.0 2.6 22.0 2.7 21.6 3.95 21.2 4.2 21.0 3.85 M22.05 4.95 L22.1 4.5 22.65 4.5 24.1 4.95 23.35 4.85 23.2 4.85 23.15 4.85 23.05 4.75 23.0 4.75 22.7 4.7 22.45 4.7 22.05 4.95 M21.05 4.65 L20.75 4.55 20.3 4.7 20.35 5.25 21.05 5.5 21.25 5.05 21.05 4.65 M20.7 4.35 Q21.0 4.3 21.25 4.55 L21.45 5.05 21.3 5.55 20.75 5.8 20.25 5.65 20.0 5.1 20.2 4.6 Q20.4 4.35 20.7 4.35 M21.7 5.85 L21.45 6.35 Q20.7 6.65 20.0 6.15 19.25 5.4 19.75 4.45 L20.35 4.2 19.75 5.25 20.9 6.3 21.7 5.85 M19.2 5.6 L19.4 6.3 19.65 6.45 19.85 6.6 19.8 6.85 20.25 7.05 20.35 7.7 19.75 7.8 19.95 8.65 19.8 9.0 19.5 9.1 19.05 9.7 18.85 10.2 19.0 10.65 19.0 10.7 18.9 10.85 18.9 11.2 17.9 12.2 16.95 13.15 18.5 11.2 18.3 10.75 18.6 10.5 18.35 10.05 19.65 8.7 19.35 7.7 20.05 7.5 19.95 7.1 19.85 7.1 19.7 7.1 19.6 7.05 Q19.15 6.45 19.2 5.65 L19.15 5.55 19.2 5.6 M20.45 6.85 L20.5 6.8 Q20.7 6.6 20.9 6.95 L20.9 7.05 Q20.65 7.3 20.55 6.9 L20.45 6.85 M25.7 9.6 L25.9 9.3 25.8 9.05 25.5 8.7 25.05 8.65 24.75 9.15 24.75 9.65 24.55 9.15 Q24.5 8.85 24.7 8.65 24.9 8.4 25.25 8.4 L25.8 8.65 26.1 9.2 25.9 9.75 Q25.7 9.95 25.4 9.95 L25.0 9.85 25.1 9.85 25.7 9.6 M19.1 12.1 L18.5 12.85 17.5 13.9 17.7 13.5 19.1 12.1 M19.2 9.85 L19.4 9.55 Q19.85 9.1 20.3 9.2 L19.35 10.0 19.45 10.15 19.15 10.2 19.2 9.85 M5.1 19.9 L6.6 21.0 6.6 20.7 7.1 20.1 8.05 20.95 8.25 20.7 9.2 19.6 6.95 17.25 9.25 19.3 9.4 19.85 7.9 21.45 7.15 20.6 6.85 21.35 5.1 20.2 5.15 20.65 4.65 21.3 4.4 21.2 5.1 19.9 M3.2 20.95 L3.0 20.8 2.95 20.65 2.95 20.6 2.95 20.55 5.45 22.45 5.6 23.05 3.2 20.95 M5.2 25.8 L5.3 25.95 5.2 26.3 4.85 26.3 4.9 25.95 4.6 25.5 5.15 24.4 4.45 23.8 5.05 24.05 5.65 24.25 4.95 25.45 5.2 25.8 M6.45 24.95 L6.35 24.95 6.25 24.95 6.45 23.95 6.1 23.5 6.55 22.95 5.9 21.7 Q6.4 22.15 7.0 22.2 L7.95 21.85 8.05 22.4 7.05 22.7 6.25 22.2 6.9 23.15 6.5 23.55 6.8 24.15 6.55 24.55 6.45 24.95 M3.45 22.85 L3.4 23.15 3.2 23.4 4.45 24.65 3.9 25.4 4.3 25.95 4.1 26.25 4.45 26.5 4.55 26.65 4.45 26.9 3.95 26.7 3.75 26.45 3.8 25.85 2.3 24.5 2.7 24.0 3.75 24.6 2.65 23.65 2.7 23.4 2.9 23.05 3.45 22.85 M5.45 23.25 Q5.55 23.7 5.15 23.4 3.4 22.4 2.15 20.75 L2.6 21.15 5.1 23.3 5.45 23.25 M8.95 21.8 L9.85 21.1 9.65 21.65 9.55 21.85 8.9 22.45 8.8 22.1 8.55 21.85 9.6 20.35 Q9.75 20.2 9.85 20.4 L9.9 20.55 8.95 21.75 8.9 21.8 8.95 21.8 M7.9 22.85 Q8.0 23.35 7.5 23.6 7.3 23.7 7.3 23.4 L7.8 22.85 7.9 22.85 M4.6 28.25 L5.9 27.0 6.2 27.0 4.75 28.7 4.1 28.35 4.4 27.55 4.45 27.55 4.55 28.25 4.6 28.25 4.6 28.2 4.6 28.25" fill="#414b21" fill-rule="evenodd" stroke="none"/>
  </g>
</svg>
