<?xml version="1.0" encoding="UTF-8" standalone="no"?>
<svg xmlns:ffdec="https://www.free-decompiler.com/flash" xmlns:xlink="http://www.w3.org/1999/xlink" ffdec:objectType="shape" height="27.95px" width="28.45px" xmlns="http://www.w3.org/2000/svg">
  <g transform="matrix(1.0, 0.0, 0.0, 1.0, -0.85, -1.1)">
    <path d="M27.65 17.95 L27.15 17.85 25.9 18.45 26.7 17.5 26.35 17.6 25.0 18.6 Q20.6 22.75 14.75 23.6 L14.7 23.65 14.75 23.65 Q15.6 23.65 16.25 24.2 16.85 24.7 16.85 25.45 L17.1 25.85 Q17.1 26.4 17.25 26.25 L18.95 25.4 19.5 25.1 17.35 26.8 17.1 27.05 16.55 28.35 23.0 24.7 22.75 24.85 Q19.6 26.95 16.5 28.55 14.0 29.85 12.5 27.9 L12.95 27.45 12.4 27.95 9.9 24.8 10.4 24.05 9.75 24.35 6.95 20.15 6.05 18.2 7.8 16.75 5.6 17.45 6.55 16.4 5.0 16.8 Q3.8 15.1 3.3 13.2 3.8 15.05 5.2 16.6 L6.95 16.2 5.85 17.3 8.55 16.4 6.4 18.25 7.15 19.95 7.2 20.0 8.95 22.65 9.55 23.7 10.7 23.9 10.95 24.05 10.2 24.6 11.4 26.55 12.45 27.5 13.3 27.1 12.8 25.95 13.3 25.4 13.35 25.25 13.25 25.25 12.65 25.55 12.55 24.5 Q13.15 23.55 14.35 23.45 L18.15 22.55 Q21.6 21.35 23.95 19.1 L24.05 19.05 24.15 18.95 24.5 18.55 23.05 16.6 23.45 16.75 24.75 18.5 26.15 17.3 26.9 17.45 26.5 18.0 27.3 17.55 27.65 17.95 M28.25 20.75 L28.75 19.9 28.85 19.4 28.8 19.3 28.55 18.85 29.15 19.5 28.6 20.5 29.3 20.25 28.8 21.7 Q27.5 22.2 26.25 22.85 L28.7 21.45 29.1 20.5 27.6 21.45 28.25 20.75 M22.95 16.55 L22.15 16.65 22.6 15.95 21.55 13.6 20.65 13.65 21.05 13.05 19.75 10.05 19.2 10.0 19.35 9.7 Q19.6 9.3 18.9 9.45 L19.4 8.85 19.45 9.1 19.4 9.3 Q20.0 9.1 19.75 9.45 L19.5 9.85 19.8 9.95 20.8 11.35 21.15 13.15 21.85 13.5 22.4 14.65 Q23.15 15.6 22.5 16.4 L22.95 16.55 M19.3 8.3 L18.7 6.9 17.4 6.95 18.55 6.05 18.05 4.85 17.55 4.55 17.3 3.6 17.75 4.55 18.3 4.95 18.65 6.15 17.65 6.8 18.95 6.9 19.3 8.3 M16.9 2.9 L16.65 2.85 16.6 2.65 16.2 1.45 15.2 1.5 14.5 1.65 13.95 2.55 12.25 2.4 Q9.35 2.85 6.9 4.15 L2.7 4.65 2.55 5.2 2.4 5.4 1.95 5.45 1.5 6.7 1.25 6.65 1.15 6.65 0.9 6.95 0.85 6.6 Q0.75 6.0 1.25 6.45 L1.55 5.55 2.3 5.0 Q2.1 4.1 3.25 4.4 L4.6 4.1 7.05 3.95 Q10.3 2.1 13.75 2.25 L14.65 1.35 15.55 1.1 16.7 1.6 16.8 2.7 16.9 2.9 M1.0 7.65 L1.6 8.8 Q2.9 9.0 4.15 8.45 L2.2 9.75 2.9 11.6 3.1 12.3 2.7 11.9 2.0 9.6 2.9 9.0 1.95 9.2 1.0 8.35 1.0 7.65 M14.7 23.65 L14.65 23.65 14.7 23.65 M15.8 24.4 L13.4 24.0 12.75 25.1 13.9 24.75 12.95 26.15 14.15 27.4 14.95 27.3 15.35 26.5 15.55 26.3 Q16.15 25.7 15.3 26.25 L13.9 25.3 15.8 24.4 M15.25 24.9 L14.4 25.2 15.5 25.9 16.1 25.7 16.15 25.65 16.15 25.85 15.25 27.1 16.2 26.65 16.9 26.3 16.95 25.8 15.95 24.55 15.25 24.9 M16.75 27.15 Q17.25 26.45 18.1 25.95 L15.1 27.6 13.55 27.3 12.9 28.1 14.15 28.75 16.1 27.85 14.75 28.8 Q15.85 28.9 16.35 27.9 L16.75 27.15" fill="#666666" fill-rule="evenodd" stroke="none"/>
    <path d="M14.75 23.6 L14.75 23.65 14.7 23.65 14.75 23.6" fill="#c6c4b3" fill-rule="evenodd" stroke="none"/>
    <path d="M14.75 23.6 Q20.6 22.75 25.0 18.6 L26.35 17.6 26.7 17.5 25.9 18.45 27.15 17.85 27.65 17.95 28.1 18.2 28.3 18.45 28.35 18.5 28.55 18.85 28.8 19.3 28.85 19.4 23.25 22.8 28.75 19.9 28.25 20.75 Q22.95 23.05 17.9 26.45 L17.35 26.8 19.5 25.1 18.95 25.4 17.25 26.25 Q17.1 26.4 17.1 25.85 L22.85 22.85 16.85 25.45 Q16.85 24.7 16.25 24.2 15.6 23.65 14.75 23.65 L14.75 23.6 M23.05 16.6 L24.5 18.55 24.15 18.95 24.15 18.8 24.05 18.55 23.75 18.45 23.5 18.55 23.35 18.8 23.5 19.05 23.75 19.15 23.95 19.1 Q21.6 21.35 18.15 22.55 L14.35 23.45 Q13.15 23.55 12.55 24.5 L12.65 25.55 13.25 25.25 13.3 25.4 12.8 25.95 11.4 26.55 10.2 24.6 10.95 24.05 10.7 23.9 9.55 23.7 8.95 22.65 10.1 21.75 9.3 19.75 7.3 19.65 7.15 19.95 6.4 18.25 8.55 16.4 5.85 17.3 6.95 16.2 5.2 16.6 Q3.8 15.05 3.3 13.2 L3.1 12.3 2.9 11.6 2.2 9.75 4.15 8.45 Q2.9 9.0 1.6 8.8 L1.0 7.65 0.85 7.0 0.9 6.95 1.15 6.65 1.25 6.65 1.5 6.7 Q1.25 7.35 2.1 7.2 L2.25 7.05 2.15 6.2 2.85 6.7 Q3.6 6.05 2.75 5.4 L2.4 5.4 2.55 5.2 2.7 4.65 6.9 4.15 Q9.35 2.85 12.25 2.4 L13.95 2.55 14.5 1.65 14.2 3.55 14.1 3.45 Q13.15 3.0 13.3 4.15 L12.15 5.1 12.75 4.3 12.3 3.95 11.15 4.25 10.8 4.85 8.3 6.2 7.3 6.4 7.0 6.95 6.8 6.25 Q6.0 6.55 6.15 5.8 L5.4 6.15 5.15 6.85 Q6.25 7.25 5.35 8.55 L5.4 8.9 6.55 7.7 7.7 7.1 Q8.35 7.25 8.85 6.65 L9.15 6.4 9.25 5.95 9.95 5.8 10.4 6.3 10.65 5.65 Q11.55 5.75 11.35 6.0 L11.35 6.1 15.35 4.25 12.55 5.25 13.55 4.45 14.15 4.35 14.95 3.6 15.7 2.65 15.2 1.5 16.2 1.45 16.6 2.65 16.65 2.85 16.9 2.9 17.05 2.9 17.3 3.6 17.55 4.55 18.05 4.85 18.55 6.05 17.4 6.95 18.7 6.9 19.3 8.3 19.45 8.75 19.4 8.85 18.9 9.45 Q19.6 9.3 19.35 9.7 L19.2 10.0 19.75 10.05 21.05 13.05 20.65 13.65 21.55 13.6 22.6 15.95 22.15 16.65 22.95 16.55 23.0 16.55 23.05 16.6 M20.35 14.7 L19.75 14.55 Q19.4 14.55 19.2 14.7 L18.95 15.05 19.2 15.4 19.75 15.55 20.35 15.4 20.55 15.05 20.35 14.7 M21.75 15.25 L21.35 15.45 21.15 15.85 21.35 16.3 21.75 16.45 22.2 16.3 22.35 15.85 22.2 15.45 21.75 15.25 M21.6 18.05 L22.0 17.4 21.6 16.85 20.55 17.0 20.35 17.15 20.2 17.6 18.15 18.5 17.3 18.3 16.6 18.65 16.35 19.1 16.4 19.55 15.0 19.4 14.2 19.65 13.95 20.0 14.25 21.1 14.6 20.0 Q15.7 19.65 15.05 20.6 L15.0 20.8 Q15.75 21.45 16.35 20.1 L17.4 19.6 17.9 19.95 18.2 20.45 17.85 21.15 18.8 21.0 19.4 20.5 19.95 20.35 Q20.75 20.75 21.65 19.65 L21.95 19.35 22.85 19.4 23.3 18.4 Q22.6 17.85 22.15 18.5 L21.6 18.05 M21.6 20.45 Q20.4 20.45 19.15 21.35 L20.35 21.6 21.6 20.45 M15.4 3.9 L15.65 4.0 15.95 3.9 16.05 3.55 15.95 3.25 15.65 3.1 15.4 3.25 15.25 3.55 15.4 3.9 M15.75 6.05 L16.3 6.65 16.6 5.95 Q16.2 5.15 15.8 5.75 L15.0 6.0 12.95 6.35 12.45 7.2 13.3 7.9 13.45 6.8 13.85 7.35 14.7 6.75 15.0 6.7 15.25 6.6 15.75 6.05 M14.15 8.4 L14.15 8.3 13.5 8.6 Q13.55 9.3 14.15 8.4 M11.9 7.35 L11.25 7.5 11.1 7.0 10.6 6.8 10.1 7.2 10.25 7.6 9.85 8.2 11.25 8.8 11.5 7.95 12.55 7.65 11.9 7.35 M10.55 10.55 L10.85 10.5 11.9 9.95 12.8 9.0 9.65 10.15 Q9.4 10.8 10.3 10.5 L10.55 10.55 M9.85 13.65 L10.85 12.85 11.3 13.0 12.5 12.2 12.8 11.65 13.6 11.6 14.05 11.8 14.35 11.0 14.7 11.2 16.05 10.4 Q16.55 10.45 16.5 9.9 16.45 9.5 16.95 9.6 L17.15 9.75 17.3 9.65 17.45 9.4 17.25 9.05 Q16.75 8.8 16.3 9.35 L16.2 9.7 15.05 9.9 15.1 10.2 15.05 10.15 14.7 10.45 13.8 10.3 12.8 11.6 Q12.3 11.25 12.05 11.45 L11.8 11.95 11.25 12.3 10.75 12.1 9.9 12.4 8.15 11.6 8.55 11.3 8.55 10.9 9.2 10.8 9.4 10.55 8.6 10.25 7.9 11.0 6.05 11.95 Q6.3 12.6 6.9 11.85 L6.9 12.4 6.85 14.3 Q6.55 15.05 7.3 15.0 L8.45 14.5 9.0 14.5 9.4 14.25 9.5 14.45 9.65 14.9 9.8 15.25 Q9.9 15.4 10.05 15.4 L10.45 15.7 11.5 15.45 12.35 15.2 12.65 14.5 13.35 14.0 13.6 13.45 13.3 13.25 12.4 12.85 9.85 13.65 M14.8 11.3 L14.45 11.95 13.65 12.95 Q14.5 12.65 14.2 13.25 L14.1 13.35 Q13.75 14.1 14.7 13.65 L15.75 13.55 15.05 12.2 Q15.4 12.15 15.2 11.9 L14.95 11.5 14.8 11.3 M15.85 12.0 L15.75 12.0 Q15.8 12.6 16.15 12.9 L16.35 13.05 16.9 12.55 17.35 12.55 17.9 11.8 18.8 11.35 17.85 11.0 17.5 11.55 Q16.6 10.8 16.1 11.65 L15.85 12.0 M3.45 6.15 L3.55 7.4 5.1 6.75 4.65 5.65 3.45 6.15 M3.25 4.95 Q3.1 4.7 3.0 5.1 3.5 5.6 3.25 4.95 M5.05 11.75 L5.65 11.05 6.2 11.0 6.25 10.9 6.35 10.75 Q6.2 10.6 6.4 10.6 L6.5 10.65 6.85 10.9 7.4 9.8 Q7.05 9.65 6.7 9.95 L6.55 9.9 6.3 9.95 5.35 10.3 Q4.75 10.1 4.85 11.0 L4.8 11.55 Q4.7 12.05 5.05 11.75 M8.35 8.5 L8.25 8.45 Q8.55 8.0 8.35 8.5 M9.35 9.1 L9.4 8.95 8.95 8.85 9.2 7.4 7.25 8.7 Q7.4 9.15 7.75 9.0 L7.5 9.15 8.0 10.0 8.4 9.35 9.3 9.65 10.4 8.95 9.35 9.2 9.35 9.1 M9.3 16.9 Q9.85 17.2 9.25 17.0 L9.3 16.9 M10.9 17.7 L11.15 16.7 Q10.65 16.05 10.25 16.9 L10.25 17.15 9.2 16.3 8.6 17.25 9.05 18.05 8.95 18.75 9.95 18.65 Q10.0 17.85 10.75 18.35 L10.95 18.35 Q11.5 19.0 11.6 18.2 L11.6 17.75 10.9 17.7 M19.75 12.75 L18.25 12.75 18.25 13.6 19.75 13.6 19.75 12.75 M18.25 15.2 L17.8 16.0 Q17.3 15.95 17.1 16.2 L17.1 16.4 18.05 16.5 17.1 17.25 Q16.8 18.0 17.3 17.8 L17.45 17.75 18.05 17.5 19.2 16.85 18.85 16.1 Q19.2 15.9 19.05 15.65 L18.9 15.45 18.25 15.2 M16.05 14.75 L17.3 15.0 17.7 14.35 18.1 14.2 17.55 13.7 16.25 13.95 15.9 14.3 16.0 14.75 Q14.8 14.7 14.35 15.55 L14.35 15.75 15.9 15.4 16.05 14.75 M16.9 16.5 L16.15 16.45 15.95 17.05 14.15 17.35 14.15 18.2 13.45 18.55 14.1 18.95 15.45 17.75 Q16.25 18.15 16.85 16.9 L16.9 16.5 M13.8 15.7 Q12.45 15.65 11.75 16.75 12.2 17.3 12.9 17.0 L13.25 16.45 13.25 16.15 Q13.9 16.45 13.85 15.85 L13.8 15.7 M12.25 19.85 L12.35 19.3 12.7 19.4 12.95 19.15 13.4 18.55 11.75 19.3 11.25 19.05 10.65 19.85 11.0 21.2 11.55 21.45 Q10.85 21.55 11.0 22.1 L11.2 22.25 12.1 22.3 12.3 22.6 12.85 22.75 12.95 21.55 14.1 21.45 Q14.25 20.85 13.55 20.95 L13.2 21.0 12.6 21.15 12.5 20.95 12.25 19.85 M14.8 22.55 L15.4 22.15 16.05 22.45 16.65 21.95 16.35 21.35 14.95 21.9 Q14.7 22.1 14.8 22.55 M16.1 25.7 L15.5 25.9 14.4 25.2 15.25 24.9 16.1 25.7 M16.2 26.65 L15.25 27.1 16.15 25.85 16.2 26.65" fill="#f1f0ed" fill-rule="evenodd" stroke="none"/>
    <path d="M16.85 25.45 L22.85 22.85 17.1 25.85 16.85 25.45 M17.35 26.8 L17.9 26.45 Q22.95 23.05 28.25 20.75 L27.6 21.45 29.1 20.5 28.7 21.45 26.25 22.85 23.0 24.7 16.55 28.35 17.1 27.05 17.35 26.8 M28.75 19.9 L23.25 22.8 28.85 19.4 28.75 19.9 M24.15 18.95 L24.05 19.05 23.95 19.1 23.75 19.15 23.5 19.05 23.35 18.8 23.5 18.55 23.75 18.45 24.05 18.55 24.15 18.8 24.15 18.95 M12.8 25.95 L13.3 27.1 12.45 27.5 11.4 26.55 12.8 25.95 M8.95 22.65 L7.2 20.0 7.15 19.95 7.3 19.65 9.3 19.75 10.1 21.75 8.95 22.65 M21.75 15.25 L22.2 15.45 22.35 15.85 22.2 16.3 21.75 16.45 21.35 16.3 21.15 15.85 21.35 15.45 21.75 15.25 M15.2 1.5 L15.7 2.65 14.95 3.6 14.15 4.35 13.55 4.45 13.5 4.25 13.3 4.15 Q13.15 3.0 14.1 3.45 L14.2 3.55 14.5 1.65 15.2 1.5 M2.4 5.4 L2.75 5.4 Q3.6 6.05 2.85 6.7 L2.15 6.2 2.25 7.05 2.1 7.2 Q1.25 7.35 1.5 6.7 L1.95 5.45 2.4 5.4 M21.6 18.05 L22.15 18.5 Q22.6 17.85 23.3 18.4 L22.85 19.4 21.95 19.35 21.65 19.65 Q20.75 20.75 19.95 20.35 L20.6 19.9 20.8 19.9 21.95 19.0 21.55 18.6 20.75 19.1 20.0 19.05 18.2 20.45 17.9 19.95 Q18.8 20.1 18.8 19.2 L18.75 18.85 21.6 18.05 M15.4 3.9 L15.25 3.55 15.4 3.25 15.65 3.1 15.95 3.25 16.05 3.55 15.95 3.9 15.65 4.0 15.4 3.9 M15.75 6.05 L15.8 5.75 Q16.2 5.15 16.6 5.95 L16.3 6.65 15.75 6.05 M9.9 12.4 L9.3 13.1 8.5 13.2 8.2 13.25 7.7 13.85 Q7.25 14.05 6.85 14.3 L6.9 12.4 7.75 11.75 8.15 11.6 9.9 12.4 M8.45 14.5 L9.25 13.6 9.85 13.65 12.4 12.85 13.3 13.25 12.6 13.35 12.3 14.1 Q11.85 14.85 12.1 13.95 L12.1 13.75 11.0 13.85 10.8 14.45 10.4 14.3 9.65 14.9 9.5 14.45 9.4 14.25 9.0 14.5 8.45 14.5 M13.35 14.0 L12.65 14.5 12.85 14.15 13.35 14.0 M11.5 15.45 L10.45 15.7 10.05 15.4 Q10.2 14.45 10.5 15.1 L10.65 15.3 11.5 14.55 11.5 15.45 M3.25 4.95 Q3.5 5.6 3.0 5.1 3.1 4.7 3.25 4.95 M3.45 6.15 L4.65 5.65 5.1 6.75 3.55 7.4 3.45 6.15 M10.95 18.35 L10.9 17.7 11.6 17.75 11.6 18.2 Q11.5 19.0 10.95 18.35 M11.75 19.3 L11.9 19.7 12.25 19.85 12.5 20.95 Q12.15 20.65 12.05 21.1 L12.0 21.35 11.55 21.45 11.0 21.2 10.65 19.85 11.25 19.05 11.75 19.3 M15.8 24.4 L13.9 25.3 15.3 26.25 Q16.15 25.7 15.55 26.3 L15.35 26.5 14.95 27.3 14.15 27.4 12.95 26.15 13.9 24.75 12.75 25.1 13.4 24.0 15.8 24.4 M15.25 24.9 L15.95 24.55 16.95 25.8 16.9 26.3 16.2 26.65 16.15 25.85 16.15 25.65 16.1 25.7 15.25 24.9 M16.75 27.15 L16.35 27.9 Q15.85 28.9 14.75 28.8 L16.1 27.85 14.15 28.75 12.9 28.1 13.55 27.3 15.1 27.6 18.1 25.95 Q17.25 26.45 16.75 27.15" fill="#c9c7ba" fill-rule="evenodd" stroke="none"/>
    <path d="M20.35 14.7 L20.55 15.05 20.35 15.4 19.75 15.55 19.2 15.4 18.95 15.05 19.2 14.7 Q19.4 14.55 19.75 14.55 L20.35 14.7 M13.55 4.45 L12.55 5.25 15.35 4.25 11.35 6.1 11.35 6.0 Q11.55 5.75 10.65 5.65 L10.4 6.3 9.95 5.8 9.25 5.95 9.15 6.4 8.85 6.65 Q8.35 7.25 7.7 7.1 L6.55 7.7 5.4 8.9 5.35 8.55 Q6.25 7.25 5.15 6.85 L5.4 6.15 6.15 5.8 Q6.0 6.55 6.8 6.25 L7.0 6.95 7.3 6.4 8.3 6.2 10.8 4.85 11.15 4.25 12.3 3.95 12.75 4.3 12.15 5.1 13.3 4.15 13.5 4.25 13.55 4.45 M17.9 19.95 L17.4 19.6 16.35 20.1 Q15.75 21.45 15.0 20.8 L15.05 20.6 Q15.7 19.65 14.6 20.0 L14.25 21.1 13.95 20.0 14.2 19.65 15.0 19.4 16.4 19.55 16.35 19.1 16.6 18.65 17.3 18.3 18.15 18.5 20.2 17.6 20.35 17.15 20.55 17.0 21.6 16.85 22.0 17.4 21.6 18.05 18.75 18.85 18.8 19.2 Q18.8 20.1 17.9 19.95 M19.95 20.35 L19.4 20.5 18.8 21.0 17.85 21.15 18.2 20.45 20.0 19.05 20.75 19.1 21.55 18.6 21.95 19.0 20.8 19.9 20.6 19.9 19.95 20.35 M21.6 20.45 L20.35 21.6 19.15 21.35 Q20.4 20.45 21.6 20.45 M15.8 5.75 L15.75 6.05 15.25 6.6 15.0 6.7 14.7 6.75 13.85 7.35 13.45 6.8 13.3 7.9 12.45 7.2 12.95 6.35 15.0 6.0 15.8 5.75 M9.9 12.4 L10.75 12.1 11.25 12.3 11.8 11.95 12.05 11.45 Q12.3 11.25 12.8 11.6 L13.8 10.3 14.7 10.45 15.05 10.15 15.1 10.2 15.05 9.9 16.2 9.7 16.3 9.35 Q16.75 8.8 17.25 9.05 L17.45 9.4 17.3 9.65 17.15 9.75 16.95 9.6 Q16.45 9.5 16.5 9.9 16.55 10.45 16.05 10.4 L14.7 11.2 14.35 11.0 14.05 11.8 13.6 11.6 12.8 11.65 12.5 12.2 11.3 13.0 10.85 12.85 9.85 13.65 9.25 13.6 8.45 14.5 7.3 15.0 Q6.55 15.05 6.85 14.3 7.25 14.05 7.7 13.85 L8.2 13.25 8.5 13.2 9.3 13.1 9.9 12.4 M10.55 10.55 L10.3 10.5 Q9.4 10.8 9.65 10.15 L12.8 9.0 11.9 9.95 10.85 10.5 10.55 10.55 M11.9 7.35 L12.55 7.65 11.5 7.95 11.25 8.8 9.85 8.2 10.25 7.6 10.1 7.2 10.6 6.8 11.1 7.0 11.25 7.5 11.9 7.35 M14.15 8.4 Q13.55 9.3 13.5 8.6 L14.15 8.3 14.15 8.4 M13.3 13.25 L13.6 13.45 13.35 14.0 12.85 14.15 12.65 14.5 12.35 15.2 11.5 15.45 11.5 14.55 10.65 15.3 10.5 15.1 Q10.2 14.45 10.05 15.4 9.9 15.4 9.8 15.25 L9.65 14.9 10.4 14.3 10.8 14.45 11.0 13.85 12.1 13.75 12.1 13.95 Q11.85 14.85 12.3 14.1 L12.6 13.35 13.3 13.25 M15.85 12.0 L16.1 11.65 Q16.6 10.8 17.5 11.55 L17.85 11.0 18.8 11.35 17.9 11.8 17.35 12.55 16.9 12.55 16.35 13.05 16.15 12.9 Q15.8 12.6 15.75 12.0 L15.85 12.0 M14.8 11.3 L14.95 11.5 15.2 11.9 Q15.4 12.15 15.05 12.2 L15.75 13.55 14.7 13.65 Q13.75 14.1 14.1 13.35 L14.2 13.25 Q14.5 12.65 13.65 12.95 L14.45 11.95 14.8 11.3 M9.35 9.1 L9.35 9.2 10.4 8.95 9.3 9.65 8.4 9.35 8.0 10.0 7.5 9.15 7.75 9.0 Q7.4 9.15 7.25 8.7 L9.2 7.4 8.95 8.85 9.4 8.95 9.35 9.1 M8.35 8.5 Q8.55 8.0 8.25 8.45 L8.35 8.5 M5.05 11.75 Q4.7 12.05 4.8 11.55 L4.85 11.0 Q4.75 10.1 5.35 10.3 L6.3 9.95 6.55 9.9 6.7 9.95 Q7.05 9.65 7.4 9.8 L6.85 10.9 6.5 10.65 6.4 10.6 Q6.2 10.6 6.35 10.75 L6.25 10.9 6.2 11.0 5.65 11.05 5.05 11.75 M6.9 12.4 L6.9 11.85 Q6.3 12.6 6.05 11.95 L7.9 11.0 8.6 10.25 9.4 10.55 9.2 10.8 8.55 10.9 8.55 11.3 8.15 11.6 7.75 11.75 6.9 12.4 M10.95 18.35 L10.75 18.35 Q10.0 17.85 9.95 18.65 L8.95 18.75 9.05 18.05 8.6 17.25 9.2 16.3 10.25 17.15 10.25 16.9 Q10.65 16.05 11.15 16.7 L10.9 17.7 10.95 18.35 M9.3 16.9 L9.25 17.0 Q9.85 17.2 9.3 16.9 M16.9 16.5 L16.85 16.9 Q16.25 18.15 15.45 17.75 L14.1 18.95 13.45 18.55 14.15 18.2 14.15 17.35 15.95 17.05 16.15 16.45 16.9 16.5 M16.05 14.75 L15.9 15.4 14.35 15.75 14.35 15.55 Q14.8 14.7 16.0 14.75 L15.9 14.3 16.25 13.95 17.55 13.7 18.1 14.2 17.7 14.35 17.3 15.0 16.05 14.75 M18.25 15.2 L18.9 15.45 19.05 15.65 Q19.2 15.9 18.85 16.1 L19.2 16.85 18.05 17.5 17.45 17.75 17.3 17.8 Q16.8 18.0 17.1 17.25 L18.05 16.5 17.1 16.4 17.1 16.2 Q17.3 15.95 17.8 16.0 L18.25 15.2 M19.75 12.75 L19.75 13.6 18.25 13.6 18.25 12.75 19.75 12.75 M11.75 19.3 L13.4 18.55 12.95 19.15 12.7 19.4 12.35 19.3 12.25 19.85 11.9 19.7 11.75 19.3 M13.8 15.7 L13.85 15.85 Q13.9 16.45 13.25 16.15 L13.25 16.45 12.9 17.0 Q12.2 17.3 11.75 16.75 12.45 15.65 13.8 15.7 M12.5 20.95 L12.6 21.15 13.2 21.0 13.55 20.95 Q14.25 20.85 14.1 21.45 L12.95 21.55 12.85 22.75 12.3 22.6 12.1 22.3 11.2 22.25 11.0 22.1 Q10.85 21.55 11.55 21.45 L12.0 21.35 12.05 21.1 Q12.15 20.65 12.5 20.95 M14.8 22.55 Q14.7 22.1 14.95 21.9 L16.35 21.35 16.65 21.95 16.05 22.45 15.4 22.15 14.8 22.55" fill="#78745c" fill-rule="evenodd" stroke="none"/>
  </g>
</svg>
