<?xml version="1.0" encoding="UTF-8" standalone="no"?>
<svg xmlns:ffdec="https://www.free-decompiler.com/flash" xmlns:xlink="http://www.w3.org/1999/xlink" ffdec:objectType="shape" height="25.4px" width="25.3px" xmlns="http://www.w3.org/2000/svg">
  <g transform="matrix(1.0, 0.0, 0.0, 1.0, -2.65, -2.35)">
    <path d="M25.7 3.1 L25.6 4.45 25.6 3.25 25.2 2.8 24.85 3.05 24.75 4.6 24.45 3.45 24.4 3.4 22.55 2.5 22.45 2.35 25.45 2.35 25.7 3.1 M25.6 4.45 L25.6 4.5 25.55 4.55 25.6 4.45 M25.25 21.85 L25.3 22.9 24.85 22.0 24.4 23.6 22.45 24.05 23.35 24.55 22.3 24.45 21.9 24.1 22.3 23.45 Q23.1 23.45 23.7 22.95 24.3 22.4 24.3 21.7 L24.75 21.35 25.25 21.85 M27.95 6.05 L27.85 6.6 27.65 6.8 27.95 6.05" fill="#c6c502" fill-rule="evenodd" stroke="none"/>
    <path d="M25.6 4.45 L25.7 3.1 26.9 4.9 27.05 6.8 27.05 25.6 26.7 26.65 25.1 24.4 25.3 22.9 25.25 21.85 25.6 4.5 25.6 4.45" fill="#cccccc" fill-rule="evenodd" stroke="none"/>
    <path d="M24.75 4.6 L24.85 3.05 25.2 2.8 25.6 3.25 25.6 4.45 25.55 4.55 25.15 4.75 24.75 4.6 M25.3 22.9 L25.1 24.4 24.6 24.7 23.35 24.55 22.45 24.05 24.4 23.6 24.85 22.0 25.3 22.9 M26.7 26.65 L27.05 25.6 27.85 25.6 27.75 27.5 26.0 27.75 25.6 27.4 25.8 26.85 26.7 26.65 M27.05 6.8 L26.9 4.9 Q27.35 4.9 27.65 5.25 L27.95 6.05 27.65 6.8 27.05 6.8" fill="#7e7e01" fill-rule="evenodd" stroke="none"/>
    <path d="M24.45 3.45 L24.75 4.6 25.15 4.75 25.55 4.55 25.6 4.5 25.25 21.85 24.75 21.35 24.3 21.7 24.45 3.45 M27.05 25.6 L27.05 6.8 27.65 6.8 27.85 6.6 27.85 25.6 27.05 25.6 M26.0 27.75 L5.35 27.4 5.0 27.2 4.45 27.25 2.65 24.6 2.65 24.3 3.05 23.65 5.1 23.05 5.75 3.15 6.5 3.35 6.5 3.75 6.3 3.75 6.3 9.65 5.8 23.0 22.3 23.45 21.9 24.1 22.3 24.45 4.3 24.15 4.3 24.1 4.3 24.15 3.8 24.1 Q3.4 24.8 3.85 25.45 4.25 26.15 4.9 26.25 L14.65 26.95 25.8 26.85 25.6 27.4 26.0 27.75" fill="#025f01" fill-rule="evenodd" stroke="none"/>
    <path d="M22.45 2.35 L22.55 2.5 24.4 3.4 6.5 3.35 5.75 3.15 5.35 2.9 4.5 2.95 3.7 3.65 3.05 23.65 2.65 24.3 2.65 3.15 3.05 2.5 22.45 2.35" fill="#01c701" fill-rule="evenodd" stroke="none"/>
    <path d="M24.4 3.4 L24.45 3.45 24.3 21.7 Q24.3 22.4 23.7 22.95 23.1 23.45 22.3 23.45 L5.8 23.0 6.3 9.65 6.3 11.85 7.5 11.85 7.5 5.85 9.25 11.85 10.1 11.85 11.9 5.85 11.9 11.85 13.1 11.85 13.1 3.75 11.55 3.75 9.7 9.9 7.8 3.75 6.5 3.75 6.5 3.35 24.4 3.4 M20.85 8.85 Q20.85 8.25 21.3 7.85 21.6 7.45 22.1 7.45 22.45 7.45 22.8 7.8 23.2 8.2 23.2 9.15 23.2 10.2 22.75 10.65 L22.1 10.95 Q21.65 10.95 21.35 10.55 20.85 10.1 20.85 9.5 L20.85 8.85 M24.4 9.15 Q24.35 7.8 23.65 7.0 23.05 6.4 22.1 6.4 21.25 6.4 20.85 7.1 L20.85 6.5 19.8 6.5 19.8 13.55 20.85 13.55 20.85 11.25 Q21.15 12.0 22.1 12.0 23.05 12.0 23.65 11.35 24.35 10.6 24.4 9.15 M15.4 10.3 L15.6 9.9 Q15.7 9.75 16.1 9.65 L17.2 9.4 17.5 9.25 17.5 10.05 17.2 10.4 Q16.75 10.9 16.05 10.9 L15.6 10.8 15.4 10.3 M15.05 6.95 Q14.6 7.4 14.45 8.25 L15.6 8.25 Q15.65 7.85 15.85 7.7 16.1 7.45 16.6 7.45 17.0 7.45 17.25 7.7 L17.5 8.2 16.8 8.4 15.9 8.65 Q15.1 8.8 14.65 9.3 14.25 9.7 14.25 10.4 14.25 11.0 14.65 11.45 15.1 11.95 16.0 11.95 17.05 11.95 17.5 11.25 L17.75 11.85 18.95 11.85 Q18.6 11.4 18.6 10.95 L18.6 8.05 Q18.55 7.4 18.1 6.95 17.65 6.4 16.5 6.4 15.55 6.4 15.05 6.95 M3.05 23.65 L3.7 3.65 4.5 2.95 5.35 2.9 5.75 3.15 5.1 23.05 3.05 23.65 M4.3 24.15 L4.3 24.1 4.3 24.15 M16.15 15.95 L16.2 17.0 15.7 17.05 16.15 15.95 M17.35 15.7 L17.2 15.65 Q15.0 14.8 15.35 17.2 15.4 17.65 15.95 17.9 17.3 18.25 17.8 16.9 L17.65 18.65 17.45 18.3 14.75 17.95 14.8 15.05 14.4 15.1 14.05 18.25 11.45 18.2 11.5 15.9 Q10.85 16.8 10.9 18.05 10.85 19.65 12.0 20.8 13.15 21.9 14.8 21.95 16.4 21.9 17.55 20.8 18.65 19.65 18.7 18.05 18.65 16.65 17.85 15.6 L17.8 16.55 17.6 15.9 17.35 15.7 M13.95 16.1 L13.45 15.4 11.65 16.75 12.75 18.1 13.95 16.1 M13.35 16.15 L12.8 17.2 12.35 16.6 13.05 15.8 13.35 16.15 M12.55 14.85 L17.05 14.85 Q16.05 14.15 14.8 14.15 13.5 14.15 12.55 14.85 M13.8 19.45 L13.7 19.15 13.4 19.05 13.1 19.15 13.0 19.45 13.1 19.7 13.4 19.8 13.7 19.7 13.8 19.45 M14.05 20.65 L11.5 18.7 14.1 18.9 14.05 20.65 M15.25 19.9 L15.35 20.5 14.75 18.9 16.9 19.2 15.35 19.25 15.25 19.9" fill="#009900" fill-rule="evenodd" stroke="none"/>
    <path d="M24.4 9.15 Q24.35 10.6 23.65 11.35 23.05 12.0 22.1 12.0 21.15 12.0 20.85 11.25 L20.85 13.55 19.8 13.55 19.8 6.5 20.85 6.5 20.85 7.1 Q21.25 6.4 22.1 6.4 23.05 6.4 23.65 7.0 24.35 7.8 24.4 9.15 M20.85 8.85 L20.85 9.5 Q20.85 10.1 21.35 10.55 21.65 10.95 22.1 10.95 L22.75 10.65 Q23.2 10.2 23.2 9.15 23.2 8.2 22.8 7.8 22.45 7.45 22.1 7.45 21.6 7.45 21.3 7.85 20.85 8.25 20.85 8.85 M6.5 3.75 L7.8 3.75 9.7 9.9 11.55 3.75 13.1 3.75 13.1 11.85 11.9 11.85 11.9 5.85 10.1 11.85 9.25 11.85 7.5 5.85 7.5 11.85 6.3 11.85 6.3 9.65 6.3 3.75 6.5 3.75 M15.05 6.95 Q15.55 6.4 16.5 6.4 17.65 6.4 18.1 6.95 18.55 7.4 18.6 8.05 L18.6 10.95 Q18.6 11.4 18.95 11.85 L17.75 11.85 17.5 11.25 Q17.05 11.95 16.0 11.95 15.1 11.95 14.65 11.45 14.25 11.0 14.25 10.4 14.25 9.7 14.65 9.3 15.1 8.8 15.9 8.65 L16.8 8.4 17.5 8.2 17.25 7.7 Q17.0 7.45 16.6 7.45 16.1 7.45 15.85 7.7 15.65 7.85 15.6 8.25 L14.45 8.25 Q14.6 7.4 15.05 6.95 M15.4 10.3 L15.6 10.8 16.05 10.9 Q16.75 10.9 17.2 10.4 L17.5 10.05 17.5 9.25 17.2 9.4 16.1 9.65 Q15.7 9.75 15.6 9.9 L15.4 10.3" fill="#ffffff" fill-rule="evenodd" stroke="none"/>
    <path d="M25.1 24.4 L26.7 26.65 25.8 26.85 14.65 26.95 4.9 26.25 Q4.25 26.15 3.85 25.45 3.4 24.8 3.8 24.1 L4.3 24.15 22.3 24.45 23.35 24.55 24.6 24.7 25.1 24.4" fill="#666666" fill-rule="evenodd" stroke="none"/>
    <path d="M15.25 19.9 L15.35 19.25 16.9 19.2 14.75 18.9 15.35 20.5 15.25 19.9 M14.05 20.65 L14.1 18.9 11.5 18.7 14.05 20.65 M13.8 19.45 L13.7 19.7 13.4 19.8 13.1 19.7 13.0 19.45 13.1 19.15 13.4 19.05 13.7 19.15 13.8 19.45 M12.55 14.85 Q13.5 14.15 14.8 14.15 16.05 14.15 17.05 14.85 L12.55 14.85 M13.35 16.15 L13.05 15.8 12.35 16.6 12.8 17.2 13.35 16.15 M13.95 16.1 L12.75 18.1 11.65 16.75 13.45 15.4 13.95 16.1 M17.35 15.7 L17.6 15.9 17.8 16.55 17.85 15.6 Q18.65 16.65 18.7 18.05 18.65 19.65 17.55 20.8 16.4 21.9 14.8 21.95 13.15 21.9 12.0 20.8 10.85 19.65 10.9 18.05 10.85 16.8 11.5 15.9 L11.45 18.2 14.05 18.25 14.4 15.1 14.8 15.05 14.75 17.95 17.45 18.3 17.65 18.65 17.8 16.9 Q17.3 18.25 15.95 17.9 15.4 17.65 15.35 17.2 15.0 14.8 17.2 15.65 L17.35 15.7 M16.15 15.95 L15.7 17.05 16.2 17.0 16.15 15.95" fill="#000000" fill-rule="evenodd" stroke="none"/>
  </g>
</svg>
