<?xml version="1.0" encoding="UTF-8" standalone="no"?>
<svg xmlns:ffdec="https://www.free-decompiler.com/flash" xmlns:xlink="http://www.w3.org/1999/xlink" ffdec:objectType="shape" height="26.6px" width="22.05px" xmlns="http://www.w3.org/2000/svg">
  <g transform="matrix(1.0, 0.0, 0.0, 1.0, -4.0, -1.95)">
    <path d="M20.75 4.8 L21.35 3.0 21.05 2.5 18.45 2.5 11.7 2.35 10.05 2.5 9.0 2.5 8.7 3.0 9.25 4.6 10.65 8.9 10.7 8.85 11.2 9.0 14.9 9.15 15.15 9.15 18.85 9.0 19.35 8.85 19.4 8.9 20.75 4.8 M22.0 2.85 L20.1 8.85 19.2 9.4 19.1 10.35 20.75 10.7 20.9 11.05 Q24.2 18.65 26.05 26.8 L24.4 28.55 5.65 28.55 4.0 26.8 Q5.85 18.65 9.15 11.05 L9.3 10.7 10.95 10.35 10.85 9.4 9.95 8.85 8.05 2.85 8.95 1.95 21.1 1.95 22.0 2.85 M11.55 9.65 L11.5 10.35 18.55 10.35 18.5 9.65 15.05 9.45 11.55 9.65 M14.9 10.65 L11.05 10.85 Q9.8 10.7 9.45 11.75 6.8 19.05 4.6 26.55 L5.95 28.1 24.1 28.1 25.45 26.55 Q23.25 19.05 20.6 11.75 20.25 10.7 19.0 10.85 L15.15 10.65 15.1 10.65 15.0 10.65 14.9 10.65 M10.35 13.4 L19.55 13.4 19.65 13.4 19.8 13.4 19.9 13.45 19.9 14.4 19.95 25.25 10.1 25.25 10.15 13.85 10.15 13.45 10.25 13.4 10.35 13.4 M10.6 24.65 L19.45 24.65 19.45 13.7 10.6 13.7 10.6 24.65" fill="#666666" fill-rule="evenodd" stroke="none"/>
    <path d="M9.25 4.6 L9.3 4.65 9.3 4.7 9.45 4.7 11.45 4.7 15.4 4.7 15.55 4.7 Q18.05 4.95 20.6 4.8 L20.75 4.8 19.4 8.9 19.35 8.85 18.85 9.0 15.15 9.15 14.9 9.15 11.2 9.0 10.7 8.85 10.65 8.9 9.25 4.6" fill="#9b200b" fill-rule="evenodd" stroke="none"/>
    <path d="M16.55 23.0 L17.65 22.7 16.55 23.85 16.55 23.0 M16.45 21.25 L17.6 21.25 17.6 22.6 16.45 22.6 16.45 21.25 M15.0 22.75 L15.0 21.15 16.3 21.3 16.25 22.65 15.05 22.75 16.3 23.0 16.45 23.95 15.0 22.75 M14.9 21.0 L14.55 22.95 16.75 24.2 17.75 23.35 18.3 23.9 18.45 23.75 18.3 22.8 17.85 20.85 14.9 20.7 15.5 20.9 14.9 21.0 M14.35 22.45 L13.65 22.45 13.65 23.9 14.35 23.9 14.35 22.45 M11.6 22.5 L12.55 23.0 11.8 23.35 Q12.35 23.9 12.9 23.2 L12.9 23.15 12.85 23.0 12.8 22.85 Q12.9 22.7 13.05 22.65 L11.3 21.8 11.6 22.5 M12.85 19.9 L13.55 19.9 13.55 19.25 12.85 19.25 12.85 19.9 M16.95 17.55 L17.45 17.75 18.3 17.4 18.35 16.7 18.1 15.95 16.7 15.55 16.2 16.05 13.9 16.2 13.5 16.95 14.15 14.45 13.1 15.3 13.3 14.5 11.55 16.1 11.1 16.15 11.0 17.15 11.75 17.1 12.75 15.7 13.25 15.75 13.05 16.65 13.45 17.35 13.95 17.2 Q15.15 16.5 15.2 17.65 14.15 18.3 12.85 18.2 L12.45 17.6 11.95 18.4 12.05 18.9 13.0 19.0 13.7 18.65 14.6 18.85 13.9 19.65 13.2 20.3 14.85 20.25 Q16.15 20.0 17.15 20.65 L18.05 20.2 18.1 19.95 15.9 20.0 17.55 19.7 17.85 19.15 16.65 19.05 16.15 18.85 18.2 18.3 15.75 18.05 16.45 16.75 16.95 17.0 16.95 17.55 M10.6 24.65 L10.6 13.7 19.45 13.7 19.45 24.65 10.6 24.65" fill="#ccc2a6" fill-rule="evenodd" stroke="none"/>
    <path d="M11.55 9.65 L15.05 9.45 18.5 9.65 18.55 10.35 11.5 10.35 11.55 9.65" fill="#b7b5c4" fill-rule="evenodd" stroke="none"/>
    <path d="M14.9 10.65 L15.0 10.65 15.1 10.65 15.15 10.65 19.0 10.85 Q20.25 10.7 20.6 11.75 23.25 19.05 25.45 26.55 L24.1 28.1 5.95 28.1 4.6 26.55 Q6.8 19.05 9.45 11.75 9.8 10.7 11.05 10.85 L14.9 10.65 M19.55 13.4 L19.4 12.5 10.7 12.6 10.35 13.4 10.25 13.4 10.15 13.45 10.15 13.85 Q7.8 19.45 6.4 25.4 L6.4 26.05 Q15.15 26.4 23.85 25.85 22.35 20.05 19.9 14.4 L19.9 13.45 19.8 13.4 19.65 13.4 19.55 13.4" fill="#e3e3e8" fill-rule="evenodd" stroke="none"/>
    <path d="M10.35 13.4 L10.7 12.6 19.4 12.5 19.55 13.4 10.35 13.4 M19.9 14.4 Q22.35 20.05 23.85 25.85 15.15 26.4 6.4 26.05 L6.4 25.4 Q7.8 19.45 10.15 13.85 L10.1 25.25 19.95 25.25 19.9 14.4" fill="#9e8c78" fill-rule="evenodd" stroke="none"/>
    <path d="M16.95 17.55 L16.95 17.0 16.45 16.75 15.75 18.05 18.2 18.3 16.15 18.85 16.65 19.05 17.85 19.15 17.55 19.7 15.9 20.0 18.1 19.95 18.05 20.2 17.15 20.65 Q16.15 20.0 14.85 20.25 L13.2 20.3 13.9 19.65 14.6 18.85 13.7 18.65 13.0 19.0 12.05 18.9 11.95 18.4 12.45 17.6 12.85 18.2 Q14.15 18.3 15.2 17.65 15.15 16.5 13.95 17.2 L13.45 17.35 13.05 16.65 13.25 15.75 12.75 15.7 11.75 17.1 11.0 17.15 11.1 16.15 11.55 16.1 13.3 14.5 13.1 15.3 14.15 14.45 13.5 16.95 13.9 16.2 16.2 16.05 16.7 15.55 18.1 15.95 18.35 16.7 18.3 17.4 17.45 17.75 16.95 17.55 M12.85 19.9 L12.85 19.25 13.55 19.25 13.55 19.9 12.85 19.9 M11.6 22.5 L11.3 21.8 13.05 22.65 Q12.9 22.7 12.8 22.85 L12.85 23.0 12.9 23.15 12.9 23.2 Q12.35 23.9 11.8 23.35 L12.55 23.0 11.6 22.5 M14.35 22.45 L14.35 23.9 13.65 23.9 13.65 22.45 14.35 22.45 M14.9 21.0 L15.5 20.9 14.9 20.7 17.85 20.85 18.3 22.8 18.45 23.75 18.3 23.9 17.75 23.35 16.75 24.2 14.55 22.95 14.9 21.0 M15.0 22.75 L16.45 23.95 16.3 23.0 15.05 22.75 16.25 22.65 16.3 21.3 15.0 21.15 15.0 22.75 M16.45 21.25 L16.45 22.6 17.6 22.6 17.6 21.25 16.45 21.25 M16.55 23.0 L16.55 23.85 17.65 22.7 16.55 23.0" fill="#424348" fill-rule="evenodd" stroke="none"/>
    <path d="M18.45 2.5 L21.05 2.5 21.35 3.0 20.75 4.8 20.6 4.8 Q18.05 4.95 15.55 4.7 L15.4 4.7 11.45 4.7 9.45 4.7 9.3 4.7 9.3 4.65 9.25 4.6 8.7 3.0 9.0 2.5 10.05 2.5 9.75 3.35 10.6 3.8 10.95 3.3 Q15.8 4.05 20.35 2.8 L18.45 2.5" fill="#da2310" fill-rule="evenodd" stroke="none"/>
    <path d="M18.45 2.5 L20.35 2.8 Q15.8 4.05 10.95 3.3 L10.6 3.8 9.75 3.35 10.05 2.5 11.7 2.35 18.45 2.5" fill="#f5847e" fill-rule="evenodd" stroke="none"/>
  </g>
</svg>
