<?xml version="1.0" encoding="UTF-8" standalone="no"?>
<svg xmlns:ffdec="https://www.free-decompiler.com/flash" xmlns:xlink="http://www.w3.org/1999/xlink" ffdec:objectType="shape" height="16.9px" width="26.25px" xmlns="http://www.w3.org/2000/svg">
  <g transform="matrix(1.0, 0.0, 0.0, 1.0, -1.95, -6.65)">
    <path d="M4.15 6.9 L27.95 6.9 27.95 21.2 25.8 23.3 2.2 23.3 2.2 8.8 4.15 6.9" fill="#ece6d2" fill-rule="evenodd" stroke="none"/>
    <path d="M27.95 21.2 L25.8 23.3 M2.2 8.8 L4.15 6.9" ffdec:has-small-stroke="true" ffdec:original-stroke-width="0.5" fill="none" stroke="#333333" stroke-linecap="round" stroke-linejoin="round" stroke-width="1.0"/>
    <path d="M4.15 6.9 L27.95 6.9 27.95 21.2 M25.8 23.3 L2.2 23.3 2.2 8.8" ffdec:has-small-stroke="true" ffdec:original-stroke-width="0.5" fill="none" stroke="#333333" stroke-linecap="round" stroke-linejoin="round" stroke-width="1.0"/>
    <path d="M21.95 11.75 L21.85 11.5 21.5 11.6 20.25 12.2 20.2 12.15 20.1 11.5 20.1 11.45 23.4 10.3 23.5 10.4 23.45 11.35 23.4 12.6 23.4 14.7 23.5 17.15 23.65 17.3 24.65 17.4 24.7 17.45 24.7 17.8 24.65 17.85 22.8 17.8 20.6 17.85 20.55 17.8 20.55 17.45 20.6 17.4 21.15 17.35 21.7 17.25 21.9 17.05 22.0 15.0 22.0 13.7 21.95 12.15 21.95 11.75 M4.6 10.2 L6.2 10.25 7.9 10.2 7.95 10.25 7.95 10.65 7.9 10.7 7.25 10.75 7.1 10.95 7.0 12.6 7.0 15.8 7.05 17.2 7.8 17.2 9.7 17.05 9.8 17.0 9.9 16.7 10.0 16.0 10.05 15.95 10.4 15.95 10.45 16.0 10.35 17.8 10.3 17.85 6.4 17.8 5.0 17.85 4.95 17.8 4.95 17.55 5.4 17.25 5.45 16.55 5.5 12.6 5.4 10.95 5.25 10.75 4.6 10.7 4.55 10.65 4.55 10.25 4.6 10.2 M16.8 12.75 L16.85 12.8 16.85 13.1 16.8 13.15 16.35 13.25 16.2 13.5 15.8 14.35 14.75 16.75 14.3 17.9 13.35 17.9 12.7 16.15 11.75 13.75 11.35 13.2 11.05 13.15 11.0 13.1 11.0 12.8 11.05 12.75 12.5 12.75 13.75 12.75 13.85 12.8 13.85 13.1 13.75 13.15 13.25 13.2 13.15 13.35 13.8 15.25 14.25 16.4 14.9 14.85 15.4 13.35 15.3 13.2 14.8 13.15 14.7 13.1 14.7 12.8 14.8 12.75 15.75 12.75 16.8 12.75 M17.75 17.7 L17.5 17.1 Q17.5 16.75 17.75 16.5 18.0 16.25 18.35 16.25 18.65 16.25 18.9 16.5 L19.15 17.1 18.9 17.7 18.35 17.95 17.75 17.7" fill="#000000" fill-rule="evenodd" stroke="none"/>
    <path d="M23.55 20.7 L25.15 20.7 M7.65 20.7 L10.0 20.7 M7.7 21.95 L10.0 21.95 M11.2 20.7 L13.8 20.7 M11.15 21.95 L13.75 21.95 M15.0 20.7 L18.05 20.7 M14.95 21.95 L18.0 21.95 M19.25 20.7 L22.4 20.7 M19.3 21.95 L22.35 21.95" ffdec:has-small-stroke="true" ffdec:original-stroke-width="0.5" fill="none" stroke="#333333" stroke-linecap="round" stroke-linejoin="round" stroke-width="1.0"/>
    <path d="M23.65 19.4 L25.1 19.4 M7.65 19.4 L10.05 19.4 M11.2 19.4 L13.8 19.4 M15.0 19.4 L18.1 19.4 M19.35 19.4 L22.4 19.4" ffdec:has-small-stroke="true" ffdec:original-stroke-width="0.5" fill="none" stroke="#333333" stroke-linecap="round" stroke-linejoin="round" stroke-width="1.0"/>
  </g>
</svg>
