<?xml version="1.0" encoding="UTF-8" standalone="no"?>
<svg xmlns:ffdec="https://www.free-decompiler.com/flash" xmlns:xlink="http://www.w3.org/1999/xlink" ffdec:objectType="shape" height="8.85px" width="15.0px" xmlns="http://www.w3.org/2000/svg">
  <g transform="matrix(1.0, 0.0, 0.0, 1.0, 9.15, 7.2)">
    <path d="M5.4 -6.35 L5.3 -6.85 4.85 -6.4 3.55 -5.15 2.0 -3.85 1.0 -3.2 0.65 -3.1 -0.6 -2.95 -1.85 -3.15 -8.1 -3.65 -8.85 -3.4 -8.9 -3.35 -8.95 -3.2 -8.95 -3.05 -8.75 -1.75 -8.75 -1.7 -8.6 -1.65 -8.55 -1.7 -8.5 -1.7 -8.4 -1.75 -7.8 -1.95 -7.85 -1.95 Q-7.85 -2.6 -8.0 -3.15 L-8.05 -3.25 -8.1 -3.35 -8.05 -3.45 -8.0 -3.5 -7.9 -3.45 -7.95 -3.3 -7.85 -3.15 -7.8 -2.9 -7.65 -2.0 -7.65 -1.95 -7.4 -2.0 -4.85 -1.85 -4.05 -1.6 -3.3 -1.3 -2.2 -0.7 -1.9 -0.5 -1.8 -0.5 -1.8 -0.45 -1.4 -0.6 -0.55 -0.9 0.3 -1.1 1.6 -1.2 1.75 -1.2 1.8 -2.1 1.85 -1.2 2.1 -1.15 2.55 -1.75 3.3 -2.65 4.1 -3.65 5.0 -4.65 5.6 -5.15 5.45 -6.2 5.4 -6.35 M2.05 -0.8 L2.05 -0.75 1.5 0.65 Q1.15 1.4 0.35 1.6 L-0.3 1.6 -1.2 1.15 -1.55 0.8 -1.8 0.5 -2.5 -0.3 -2.95 -0.65 -4.35 -1.3 -5.85 -1.6 -7.05 -1.65 -8.5 -1.4 -8.65 -1.4 -8.7 -1.3 -9.0 -1.4 -9.15 -2.95 -9.15 -3.3 -9.15 -3.5 -5.0 -3.8 -1.1 -3.15 1.05 -3.4 Q2.2 -3.95 3.0 -4.95 4.05 -6.3 5.45 -7.2 5.85 -6.2 5.85 -5.1 L3.75 -2.9 2.9 -1.85 2.55 -1.4 2.05 -0.8 M1.75 -1.1 L-0.35 -0.75 -1.55 -0.3 -1.65 -0.2 -1.7 -0.1 -1.35 0.6 Q-0.8 1.2 0.05 1.25 L0.75 1.05 1.25 0.7 1.45 0.45 1.6 0.15 1.7 -0.1 1.75 -0.9 1.75 -1.1" fill="#313566" fill-rule="evenodd" stroke="none"/>
    <path d="M5.4 -6.35 L5.4 -6.4 5.15 -6.35 5.1 -6.3 5.15 -6.15 5.3 -6.05 5.45 -6.2 5.6 -5.15 5.0 -4.65 4.1 -3.65 3.3 -2.65 2.55 -1.75 2.1 -1.15 1.85 -1.2 1.8 -2.1 1.75 -1.2 1.6 -1.2 0.3 -1.1 -0.55 -0.9 -1.4 -0.6 -1.8 -0.45 -1.8 -0.5 -1.9 -0.5 -2.2 -0.7 -3.3 -1.3 -4.05 -1.6 -4.85 -1.85 -7.4 -2.0 -7.65 -1.95 -7.65 -2.0 -7.8 -2.9 -7.85 -3.15 -7.95 -3.3 -7.9 -3.45 -8.0 -3.5 -8.05 -3.45 -8.1 -3.35 -8.05 -3.25 -8.0 -3.15 Q-7.85 -2.6 -7.85 -1.95 L-7.8 -1.95 -8.4 -1.75 -8.5 -1.7 -8.55 -1.7 -8.6 -1.65 -8.75 -1.7 -8.75 -1.75 -8.95 -3.05 -8.95 -3.2 -8.9 -3.35 -8.85 -3.4 -8.1 -3.65 -1.85 -3.15 -0.6 -2.95 0.65 -3.1 1.0 -3.2 2.0 -3.85 3.55 -5.15 4.85 -6.4 5.3 -6.85 5.4 -6.35 M4.85 -5.75 L5.0 -5.8 5.05 -5.9 5.0 -6.0 4.85 -6.05 4.75 -6.0 4.7 -5.9 4.75 -5.8 4.85 -5.75 M-6.85 -3.5 L-6.85 -3.6 -7.3 -3.45 -7.25 -3.25 -7.05 -3.15 -6.85 -3.5 M-6.65 -3.2 L-6.25 -3.35 -6.25 -3.4 -6.6 -3.55 -6.65 -3.2 M-5.8 -3.3 L-5.85 -3.35 -5.9 -3.3 -5.95 -3.25 -5.9 -3.15 -5.85 -3.15 -5.8 -3.15 -5.75 -3.25 -5.8 -3.3" fill="#0066cc" fill-rule="evenodd" stroke="none"/>
    <path d="M1.75 -1.1 L1.75 -0.9 1.7 -0.1 1.6 0.15 1.45 0.45 1.25 0.7 0.75 1.05 0.05 1.25 Q-0.8 1.2 -1.35 0.6 L-1.7 -0.1 -1.65 -0.2 -1.55 -0.3 -0.35 -0.75 1.75 -1.1" fill="#01407e" fill-rule="evenodd" stroke="none"/>
    <path d="M5.45 -6.2 L5.3 -6.05 5.15 -6.15 5.1 -6.3 5.15 -6.35 5.4 -6.4 5.4 -6.35 5.45 -6.2 M4.85 -5.75 L4.75 -5.8 4.7 -5.9 4.75 -6.0 4.85 -6.05 5.0 -6.0 5.05 -5.9 5.0 -5.8 4.85 -5.75 M-5.8 -3.3 L-5.75 -3.25 -5.8 -3.15 -5.85 -3.15 -5.9 -3.15 -5.95 -3.25 -5.9 -3.3 -5.85 -3.35 -5.8 -3.3 M-6.65 -3.2 L-6.6 -3.55 -6.25 -3.4 -6.25 -3.35 -6.65 -3.2 M-6.85 -3.5 L-7.05 -3.15 -7.25 -3.25 -7.3 -3.45 -6.85 -3.6 -6.85 -3.5" fill="#ffffff" fill-rule="evenodd" stroke="none"/>
  </g>
</svg>
