<?xml version="1.0" encoding="UTF-8" standalone="no"?>
<svg xmlns:ffdec="https://www.free-decompiler.com/flash" xmlns:xlink="http://www.w3.org/1999/xlink" ffdec:objectType="shape" height="26.0px" width="27.95px" xmlns="http://www.w3.org/2000/svg">
  <g transform="matrix(1.0, 0.0, 0.0, 1.0, -1.05, -2.65)">
    <path d="M8.15 9.4 L8.55 9.95 8.65 10.1 8.8 9.4 8.8 9.25 9.05 8.3 Q9.35 7.2 9.9 6.45 L10.45 5.5 Q9.5 7.25 9.05 9.3 L8.7 10.6 8.65 10.55 Q8.15 10.3 8.15 9.4 M8.3 12.8 L8.15 12.8 Q7.55 12.25 8.3 12.8 M17.6 10.35 L17.6 10.4 17.5 10.35 17.6 10.35 M3.45 11.55 L5.25 11.8 6.85 12.1 7.6 12.4 6.6 12.1 4.55 11.7 3.45 11.55" fill="#333333" fill-rule="evenodd" stroke="none"/>
    <path d="M21.3 5.65 L21.45 5.6 22.9 4.7 24.85 3.3 25.25 3.2 25.5 3.2 25.55 3.25 25.85 3.45 26.35 4.15 Q25.35 5.7 24.55 7.5 L24.35 7.95 24.15 8.4 Q23.3 6.35 21.3 5.65 M22.5 5.95 Q23.7 5.7 24.6 4.75 L25.25 3.85 25.3 3.75 25.05 3.7 Q23.6 4.1 22.6 5.3 L22.4 5.7 22.5 5.95 M14.6 12.25 L14.55 12.15 Q13.8 11.95 13.2 12.5 L13.2 12.55 13.2 12.65 13.3 12.75 Q14.2 13.15 14.6 12.3 L14.6 12.25 M17.15 9.2 L17.2 9.15 18.35 9.25 18.45 9.35 18.45 9.6 18.3 9.95 17.6 10.35 17.5 10.35 17.6 10.4 17.0 11.45 Q16.25 11.95 15.35 11.8 L15.15 11.65 Q14.8 11.2 15.25 10.85 16.15 10.05 17.15 10.25 L16.75 10.0 Q16.05 9.65 17.05 9.25 L16.75 9.65 16.95 9.9 17.05 9.9 17.85 9.65 17.9 9.55 17.9 9.5 17.85 9.4 17.8 9.25 17.15 9.2 M16.05 10.5 L15.8 10.75 Q15.5 11.35 16.2 11.25 17.0 11.1 16.85 10.5 16.45 10.25 16.05 10.5 M14.0 13.35 Q13.3 13.5 12.8 13.05 L12.7 12.7 Q13.75 11.6 15.15 12.3 L15.45 12.5 15.2 12.85 14.0 13.35 M13.25 13.9 L13.3 14.6 Q11.85 15.55 10.7 14.75 10.5 14.15 11.05 13.8 12.05 13.35 13.2 13.8 L13.25 13.9 M11.3 13.95 Q11.2 14.0 11.2 14.2 L11.45 14.55 11.95 14.6 Q12.75 14.45 12.65 13.8 L11.4 13.85 11.3 13.95" fill="#d3cac2" fill-rule="evenodd" stroke="none"/>
    <path d="M19.85 12.35 L19.85 12.4 19.8 12.35 19.85 12.35" fill="#9e8c78" fill-rule="evenodd" stroke="none"/>
    <path d="M22.5 5.95 L22.4 5.7 22.6 5.3 Q23.6 4.1 25.05 3.7 L25.3 3.75 25.25 3.85 24.6 4.75 Q23.7 5.7 22.5 5.95 M25.45 12.65 L27.2 12.45 25.85 13.05 23.6 14.1 21.35 15.35 21.05 15.15 Q21.2 14.85 21.5 14.65 22.5 13.9 23.65 13.35 24.55 12.9 25.45 12.65 M8.8 9.4 L8.55 9.3 Q8.15 9.3 8.3 8.7 8.7 6.1 10.7 4.45 L10.8 4.55 9.7 6.15 Q8.75 7.6 8.8 9.25 L8.8 9.4 M14.6 12.25 L14.6 12.3 Q14.2 13.15 13.3 12.75 L13.2 12.65 13.2 12.55 13.2 12.5 Q13.8 11.95 14.55 12.15 L14.6 12.25 M17.05 9.25 L17.15 9.2 17.8 9.25 17.85 9.4 17.9 9.5 17.9 9.55 17.85 9.65 17.05 9.9 16.95 9.9 16.75 9.65 17.05 9.25 M16.05 10.5 Q16.45 10.25 16.85 10.5 17.0 11.1 16.2 11.25 15.5 11.35 15.8 10.75 L16.05 10.5 M2.55 6.55 L2.65 6.5 Q4.55 6.1 5.95 7.25 L5.8 7.35 4.0 7.0 2.55 6.55 M2.9 11.35 L4.05 11.15 Q5.95 10.85 7.75 11.65 L7.85 11.75 6.95 11.8 Q4.9 11.15 2.9 11.35 M11.3 13.95 L11.4 13.85 12.65 13.8 Q12.75 14.45 11.95 14.6 L11.45 14.55 11.2 14.2 Q11.2 14.0 11.3 13.95" fill="#ffffff" fill-rule="evenodd" stroke="none"/>
    <path d="M24.15 8.4 L24.35 7.95 24.55 7.5 Q25.35 5.7 26.35 4.15 L25.85 3.45 25.55 3.25 25.5 3.2 25.25 3.2 24.85 3.3 22.9 4.7 21.45 5.6 21.3 5.65 Q20.85 5.95 20.95 6.45 L21.0 7.05 Q22.55 7.5 23.2 9.0 L24.15 8.4 M26.4 3.85 L26.6 4.45 26.55 4.6 Q25.2 6.4 24.5 8.45 L24.45 8.6 Q24.05 9.5 23.05 9.45 L22.65 9.65 Q21.95 10.05 21.5 10.75 L21.3 11.25 Q21.15 11.5 21.15 11.9 20.8 12.05 20.55 12.3 L18.15 14.9 19.9 15.55 20.3 15.6 20.25 15.55 20.7 15.0 21.25 14.4 Q23.05 12.8 24.4 12.55 L26.85 11.95 28.5 11.25 29.0 11.0 28.1 12.6 28.05 12.7 Q27.55 14.05 26.7 15.05 L26.15 15.6 Q24.8 17.0 22.05 17.0 L22.5 18.05 22.8 18.6 20.35 16.85 20.2 16.75 19.45 16.65 17.85 16.2 17.6 16.85 16.5 17.05 16.05 17.4 15.7 17.8 Q14.45 18.95 14.55 20.6 L14.0 21.05 13.9 21.15 Q13.0 21.85 12.85 23.2 L12.9 23.35 12.8 23.35 12.8 23.55 12.95 24.7 12.9 27.0 Q11.75 29.0 9.65 28.6 L8.8 28.45 6.7 27.3 5.25 26.1 5.1 25.95 4.95 25.8 3.6 24.45 2.35 22.45 2.1 21.6 Q1.55 19.5 3.5 18.25 L5.75 18.05 6.9 18.1 7.95 18.0 Q8.75 17.85 9.3 17.1 9.35 16.75 9.55 16.5 L9.95 15.95 10.35 15.85 10.8 15.7 9.15 14.05 8.75 13.8 6.35 14.1 4.25 13.75 Q2.55 12.1 1.15 11.55 L1.05 11.5 2.95 10.9 7.5 10.8 7.9 11.05 7.65 10.25 Q7.25 8.95 6.3 8.0 L5.75 8.35 4.25 8.1 3.55 7.8 Q2.35 7.05 1.1 6.7 L1.8 6.25 Q2.4 5.85 3.15 5.8 L4.0 5.85 Q3.4 4.7 3.2 3.3 L3.05 2.65 5.9 5.85 6.1 6.0 6.65 6.55 7.8 8.05 7.8 7.95 8.1 7.15 8.5 6.35 9.3 5.3 10.45 4.2 11.4 3.3 11.4 3.75 11.45 5.3 11.5 6.2 11.5 7.35 11.15 8.75 10.35 10.1 9.7 10.8 9.05 11.25 9.5 12.25 9.9 13.0 Q10.3 13.35 10.85 13.55 10.95 13.4 11.2 13.35 L12.3 13.25 12.2 12.65 12.65 12.3 13.65 11.8 14.15 11.7 Q14.8 11.55 14.6 11.45 L14.65 11.4 14.7 11.25 15.9 10.1 16.15 9.5 Q17.05 8.75 18.1 8.7 L18.65 9.0 18.75 9.15 20.1 7.6 20.65 5.65 Q23.05 4.35 25.15 2.65 26.1 2.85 26.4 3.85 M22.2 9.45 L22.55 9.1 Q21.95 7.8 21.3 7.8 L20.6 7.85 20.45 7.95 19.55 9.15 20.65 9.8 21.2 10.5 22.2 9.45 M25.7 12.6 L25.45 12.6 25.0 12.7 Q22.35 13.15 20.7 15.05 L20.6 15.7 20.45 15.8 20.3 15.95 20.2 16.0 19.9 15.9 18.6 15.45 Q17.5 15.1 15.9 13.95 15.2 13.4 14.4 13.6 L14.45 13.8 15.15 14.25 15.8 14.75 Q17.9 16.0 20.15 16.5 L20.55 16.65 22.1 17.9 20.75 16.15 20.85 16.15 Q24.15 15.25 26.7 13.05 24.3 15.35 21.15 16.35 22.3 17.0 23.55 16.75 25.4 16.35 26.6 14.8 27.75 13.25 28.5 11.45 27.2 12.3 25.7 12.6 M20.85 11.55 L20.95 10.95 Q20.4 10.0 19.3 9.6 L18.95 10.0 Q20.0 10.45 20.6 11.7 L20.85 11.55 M8.3 12.8 L8.35 12.6 7.75 11.45 7.45 11.15 2.7 11.05 Q2.0 11.15 1.9 11.5 L4.4 13.55 4.65 13.7 6.35 13.9 7.75 13.65 Q8.35 13.5 8.85 13.65 L9.35 13.85 10.4 14.7 Q9.9 14.25 10.5 13.85 L9.75 13.25 9.3 12.35 8.8 11.25 9.45 10.6 10.0 10.0 10.85 8.6 11.2 7.0 11.15 6.25 11.2 4.35 11.25 3.65 10.85 4.1 10.75 4.2 9.65 5.25 9.1 5.8 Q8.75 6.25 8.55 6.8 8.25 7.45 8.25 8.15 L8.15 9.4 7.65 8.5 7.0 7.55 5.85 6.1 5.8 6.05 5.75 6.0 5.65 6.0 5.6 6.0 5.55 5.95 Q4.75 4.45 3.6 3.4 L3.25 3.05 Q3.5 5.05 5.35 6.05 L5.5 6.1 5.65 6.15 5.65 6.4 6.4 7.2 Q5.65 6.6 4.65 6.4 L3.6 6.3 1.7 6.6 2.35 6.95 4.25 7.75 5.1 7.9 6.2 7.85 Q7.3 8.2 7.7 9.4 L8.4 11.8 8.95 13.1 8.9 13.15 8.65 12.95 8.3 12.8 M17.15 9.2 L17.05 9.25 Q16.05 9.65 16.75 10.0 L17.15 10.25 Q16.15 10.05 15.25 10.85 14.8 11.2 15.15 11.65 L15.35 11.8 Q16.25 11.95 17.0 11.45 L17.6 10.4 17.6 10.35 18.3 9.95 18.45 9.6 18.45 9.35 18.35 9.25 17.2 9.15 17.15 9.2 M19.85 12.35 L19.95 12.15 20.0 12.1 20.15 11.85 19.9 11.2 19.4 10.75 18.4 10.25 18.1 10.6 15.9 12.6 Q15.5 12.95 15.65 13.45 L16.65 14.2 16.75 14.3 Q17.55 14.85 17.85 14.75 L17.9 14.65 19.85 12.4 19.85 12.35 M9.05 17.85 L8.95 17.95 8.15 18.5 8.95 19.05 Q11.0 20.45 12.4 22.5 L13.0 21.5 13.4 20.7 Q12.2 18.9 10.3 17.7 L10.0 17.6 9.05 17.85 M2.55 20.6 L2.55 20.85 Q2.35 22.25 3.4 23.4 L5.3 25.4 5.6 25.7 7.75 27.45 Q9.0 28.4 10.4 28.15 L10.8 28.0 11.3 27.8 Q12.4 27.25 12.7 25.8 12.65 24.55 12.0 23.3 L11.8 22.95 11.85 22.9 11.8 22.85 11.8 22.9 11.5 23.15 10.65 23.4 9.8 23.35 8.8 22.75 Q7.5 22.0 7.45 20.7 L7.55 20.4 7.9 21.15 8.9 22.25 Q9.95 23.25 11.25 23.1 L11.25 22.75 10.9 21.85 Q9.7 20.1 7.85 19.15 L7.6 19.05 Q6.1 18.3 4.7 18.35 3.65 18.6 3.15 19.3 2.7 19.8 2.55 20.6 M17.45 16.55 L17.65 16.1 16.25 15.35 16.7 16.55 17.05 16.7 17.45 16.55 M16.2 16.8 L16.3 16.65 16.4 16.5 Q16.55 16.3 16.3 15.9 L15.45 14.95 15.05 14.6 13.95 14.05 13.8 14.3 13.65 14.5 12.95 15.2 11.95 15.35 11.5 15.75 11.05 16.3 Q13.1 17.25 14.45 19.1 L14.5 19.0 16.2 16.8 M13.25 13.9 L13.2 13.8 Q12.05 13.35 11.05 13.8 10.5 14.15 10.7 14.75 11.85 15.55 13.3 14.6 L13.25 13.9 M14.0 13.35 L15.2 12.85 15.45 12.5 15.15 12.3 Q13.75 11.6 12.7 12.7 L12.8 13.05 Q13.3 13.5 14.0 13.35 M10.4 16.5 L10.15 16.5 9.95 16.65 Q11.65 17.8 13.0 19.3 L13.85 20.6 14.15 20.5 14.05 19.6 Q13.9 19.05 13.0 18.1 11.75 16.9 10.4 16.5" fill="#51443c" fill-rule="evenodd" stroke="none"/>
    <path d="M20.85 11.55 L20.6 11.7 Q20.0 10.45 18.95 10.0 L19.3 9.6 Q20.4 10.0 20.95 10.95 L20.85 11.55 M25.7 12.6 Q27.2 12.3 28.5 11.45 27.75 13.25 26.6 14.8 25.4 16.35 23.55 16.75 22.3 17.0 21.15 16.35 24.3 15.35 26.7 13.05 24.15 15.25 20.85 16.15 L20.75 16.15 22.1 17.9 20.55 16.65 20.15 16.5 Q17.9 16.0 15.8 14.75 L15.15 14.25 14.45 13.8 14.4 13.6 Q15.2 13.4 15.9 13.95 17.5 15.1 18.6 15.45 L19.9 15.9 20.2 16.0 20.3 15.95 20.45 15.8 20.6 15.7 20.7 15.05 Q22.35 13.15 25.0 12.7 L25.45 12.6 25.7 12.6 M25.45 12.65 Q24.55 12.9 23.65 13.35 22.5 13.9 21.5 14.65 21.2 14.85 21.05 15.15 L21.35 15.35 23.6 14.1 25.85 13.05 27.2 12.45 25.45 12.65 M8.15 9.4 L8.25 8.15 Q8.25 7.45 8.55 6.8 8.75 6.25 9.1 5.8 L9.65 5.25 10.75 4.2 10.85 4.1 11.25 3.65 11.2 4.35 11.15 6.25 11.2 7.0 10.85 8.6 10.0 10.0 9.45 10.6 8.8 11.25 9.3 12.35 9.75 13.25 10.5 13.85 Q9.9 14.25 10.4 14.7 L9.35 13.85 8.85 13.65 Q8.35 13.5 7.75 13.65 L6.35 13.9 4.65 13.7 4.4 13.55 1.9 11.5 Q2.0 11.15 2.7 11.05 L7.45 11.15 7.75 11.45 8.35 12.6 8.3 12.8 8.65 12.95 8.9 13.15 8.95 13.1 8.4 11.8 7.7 9.4 Q7.3 8.2 6.2 7.85 L5.1 7.9 4.25 7.75 2.35 6.95 1.7 6.6 3.6 6.3 4.65 6.4 Q5.65 6.6 6.4 7.2 L5.65 6.4 5.65 6.15 5.5 6.1 5.35 6.05 Q3.5 5.05 3.25 3.05 L3.6 3.4 Q4.75 4.45 5.55 5.95 L5.6 6.0 5.65 6.0 5.75 6.0 5.8 6.05 5.85 6.1 7.0 7.55 7.65 8.5 8.15 9.4 Q8.15 10.3 8.65 10.55 L8.7 10.6 9.05 9.3 Q9.5 7.25 10.45 5.5 L9.9 6.45 Q9.35 7.2 9.05 8.3 L8.8 9.25 Q8.75 7.6 9.7 6.15 L10.8 4.55 10.7 4.45 Q8.7 6.1 8.3 8.7 8.15 9.3 8.55 9.3 L8.8 9.4 8.65 10.1 8.55 9.95 8.15 9.4 M8.3 12.8 Q7.55 12.25 8.15 12.8 L8.3 12.8 M3.45 11.55 L4.55 11.7 6.6 12.1 7.6 12.4 6.85 12.1 5.25 11.8 3.45 11.55 M2.9 11.35 Q4.9 11.15 6.95 11.8 L7.85 11.75 7.75 11.65 Q5.95 10.85 4.05 11.15 L2.9 11.35 M2.55 6.55 L4.0 7.0 5.8 7.35 5.95 7.25 Q4.55 6.1 2.65 6.5 L2.55 6.55 M10.4 16.5 Q11.75 16.9 13.0 18.1 13.9 19.05 14.05 19.6 L14.15 20.5 13.85 20.6 13.0 19.3 Q11.65 17.8 9.95 16.65 L10.15 16.5 10.4 16.5" fill="#51954d" fill-rule="evenodd" stroke="none"/>
    <path d="M17.45 16.55 L17.05 16.7 16.7 16.55 16.25 15.35 17.65 16.1 17.45 16.55" fill="#366433" fill-rule="evenodd" stroke="none"/>
    <path d="M24.15 8.4 L23.2 9.0 Q22.55 7.5 21.0 7.05 L20.95 6.45 Q20.85 5.95 21.3 5.65 23.3 6.35 24.15 8.4 M22.2 9.45 L21.2 10.5 20.65 9.8 19.55 9.15 20.45 7.95 Q21.55 8.35 22.2 9.45 M19.85 12.4 L17.9 14.65 17.85 14.75 Q17.55 14.85 16.75 14.3 L16.65 14.2 15.65 13.45 Q15.5 12.95 15.9 12.6 L18.1 10.6 Q19.2 11.15 19.8 12.35 L19.85 12.4 M13.0 21.5 L12.4 22.5 Q11.0 20.45 8.95 19.05 L8.15 18.5 8.95 17.95 9.05 17.85 10.65 18.75 12.0 19.8 12.95 21.45 13.0 21.5 M10.8 28.0 L10.4 28.15 Q9.0 28.4 7.75 27.45 L5.6 25.7 5.3 25.4 3.4 23.4 Q2.35 22.25 2.55 20.85 L2.55 20.6 2.65 20.55 Q4.0 20.0 5.45 20.0 5.5 20.7 5.9 21.4 7.45 23.95 10.2 25.05 L10.5 25.15 11.2 25.3 11.0 27.05 10.95 27.3 10.8 28.0 M11.5 15.75 L12.65 15.95 Q13.8 15.65 14.2 14.75 L15.8 16.15 15.95 16.5 16.1 16.75 16.2 16.75 16.2 16.8 14.5 19.0 14.45 19.1 Q13.1 17.25 11.05 16.3 L11.5 15.75" fill="#baa8a0" fill-rule="evenodd" stroke="none"/>
    <path d="M20.45 7.95 L20.6 7.85 21.3 7.8 Q21.95 7.8 22.55 9.1 L22.2 9.45 Q21.55 8.35 20.45 7.95 M18.1 10.6 L18.4 10.25 19.4 10.75 19.9 11.2 20.15 11.85 20.0 12.1 19.95 12.15 19.85 12.35 19.8 12.35 Q19.2 11.15 18.1 10.6 M9.05 17.85 L10.0 17.6 10.3 17.7 Q12.2 18.9 13.4 20.7 L13.0 21.5 12.95 21.45 12.0 19.8 10.65 18.75 9.05 17.85 M2.55 20.6 Q2.7 19.8 3.15 19.3 3.65 18.6 4.7 18.35 6.1 18.3 7.6 19.05 L7.85 19.15 Q9.7 20.1 10.9 21.85 L11.25 22.75 11.25 23.1 Q9.95 23.25 8.9 22.25 L7.9 21.15 7.55 20.4 7.45 20.7 Q7.5 22.0 8.8 22.75 L9.8 23.35 10.65 23.4 11.5 23.15 11.8 22.9 11.8 22.85 11.85 22.9 11.8 22.95 12.0 23.3 Q12.65 24.55 12.7 25.8 12.4 27.25 11.3 27.8 L10.8 28.0 10.95 27.3 11.0 27.05 11.2 25.3 10.5 25.15 10.2 25.05 Q7.45 23.95 5.9 21.4 5.5 20.7 5.45 20.0 4.0 20.0 2.65 20.55 L2.55 20.6 M11.5 15.75 L11.95 15.35 12.95 15.2 13.65 14.5 13.8 14.3 13.95 14.05 15.05 14.6 15.45 14.95 16.3 15.9 Q16.55 16.3 16.4 16.5 L16.3 16.65 16.2 16.8 16.2 16.75 16.1 16.75 15.95 16.5 15.8 16.15 14.2 14.75 Q13.8 15.65 12.65 15.95 L11.5 15.75" fill="#967b72" fill-rule="evenodd" stroke="none"/>
  </g>
</svg>
