<?xml version="1.0" encoding="UTF-8" standalone="no"?>
<svg xmlns:ffdec="https://www.free-decompiler.com/flash" xmlns:xlink="http://www.w3.org/1999/xlink" ffdec:objectType="shape" height="26.6px" width="25.95px" xmlns="http://www.w3.org/2000/svg">
  <g transform="matrix(1.0, 0.0, 0.0, 1.0, -2.05, -1.7)">
    <path d="M20.4 21.7 L20.45 21.85 20.35 21.65 20.4 21.7" fill="#7e7e01" fill-rule="evenodd" stroke="none"/>
    <path d="M25.5 22.6 L25.35 22.5 25.4 22.45 25.5 22.6" fill="#ffff00" fill-rule="evenodd" stroke="none"/>
    <path d="M26.55 26.25 L26.7 25.5 26.75 25.45 26.55 26.25 M25.35 22.5 L25.3 22.4 25.35 22.35 25.4 22.45 25.35 22.5" fill="#9c9b01" fill-rule="evenodd" stroke="none"/>
    <path d="M23.75 20.15 Q23.3 20.45 23.2 20.05 L23.25 19.8 Q23.85 18.75 24.5 19.3 L24.5 19.4 24.5 19.45 23.75 20.15 M23.1 19.7 L21.75 19.35 20.95 19.45 20.2 19.4 Q20.0 19.3 20.05 18.9 L20.1 18.8 20.25 18.7 20.75 18.6 22.55 19.05 23.1 19.7 M24.4 22.7 L24.55 22.6 Q25.35 23.3 26.3 23.55 L26.9 23.7 26.7 23.9 26.25 24.1 Q25.1 24.0 24.5 23.0 L24.4 22.7 M7.15 3.85 L7.5 3.9 9.6 4.6 9.55 4.65 Q7.7 4.55 5.75 3.8 L4.85 3.35 7.15 3.85 M12.85 6.55 L13.6 7.3 13.65 7.35 13.75 7.75 Q12.3 7.0 11.6 5.3 L10.6 2.85 12.85 6.55 M12.8 10.25 L12.85 10.95 14.0 12.3 16.75 16.25 16.15 15.75 19.6 19.9 20.1 20.6 21.1 21.85 20.2 21.1 20.4 21.7 20.35 21.65 12.15 11.35 12.85 9.25 12.8 10.25 M23.4 24.75 L23.0 24.3 22.8 23.75 22.1 23.3 21.75 23.3 21.65 23.25 21.6 23.2 21.6 23.0 21.65 22.95 21.65 22.9 21.8 22.8 22.4 22.7 22.9 23.0 23.2 24.1 23.4 24.75 M11.1 5.5 L11.3 5.85 11.9 7.05 12.0 7.4 11.75 7.95 11.7 7.95 Q11.05 7.7 10.95 7.0 L10.8 7.1 10.4 7.25 9.9 7.0 9.55 7.0 9.2 6.95 Q9.15 6.45 9.75 6.75 L10.1 6.9 10.6 6.1 10.6 5.85 11.1 5.5 M6.35 4.8 L7.45 5.2 7.65 5.8 Q7.55 6.05 7.1 5.65 L6.65 5.35 6.45 5.1 6.35 4.8 M9.6 5.85 L9.35 5.9 9.55 5.6 9.6 5.85 M9.6 8.35 L10.25 8.35 Q10.7 8.55 10.25 8.5 L9.6 8.35" fill="#ffffff" fill-rule="evenodd" stroke="none"/>
    <path d="M21.35 20.3 L22.0 21.05 22.95 20.2 23.45 21.0 24.0 20.7 23.15 21.4 22.9 20.75 22.15 21.55 20.65 19.9 20.65 19.85 20.75 19.95 21.35 20.3 M26.7 25.5 L27.0 24.75 27.2 24.55 26.75 25.45 26.7 25.5 M25.3 22.4 L25.3 22.2 25.4 22.25 25.35 22.35 25.3 22.4 M24.1 21.85 L23.4 23.05 23.55 23.5 23.5 23.65 23.45 25.1 23.4 24.75 23.2 24.1 23.5 23.65 23.05 23.25 23.75 22.3 22.95 22.8 21.95 22.45 22.05 21.95 Q22.4 22.35 23.0 22.35 23.6 22.3 24.1 21.85 M20.1 20.6 L20.2 20.5 20.35 20.35 20.45 20.4 21.3 22.05 21.2 22.15 21.1 22.5 20.45 21.85 20.4 21.7 20.2 21.1 21.1 21.85 20.1 20.6" fill="#414b21" fill-rule="evenodd" stroke="none"/>
    <path d="M24.5 19.45 L24.2 19.95 23.75 20.15 24.5 19.45 M23.25 19.8 L23.1 19.7 22.55 19.05 20.75 18.6 20.2 18.6 19.95 18.65 20.0 18.7 19.9 18.7 19.85 19.1 19.9 19.1 20.05 19.25 20.0 19.35 14.0 12.3 12.85 10.95 12.8 10.25 13.75 7.75 13.65 7.35 13.6 7.3 12.85 6.55 10.7 2.35 9.5 3.95 7.5 3.9 7.15 3.85 4.25 2.95 4.55 6.55 4.5 8.25 4.1 8.65 3.7 8.9 3.3 9.15 2.8 9.25 5.8 11.65 7.5 13.35 10.3 12.5 11.0 13.0 23.45 27.3 23.55 27.25 25.95 27.55 Q25.95 26.25 26.25 25.25 26.4 24.55 26.7 23.9 L26.9 23.7 24.55 22.6 24.4 22.7 23.85 23.25 24.9 23.85 26.1 24.45 25.5 24.9 25.65 26.45 25.35 26.75 24.85 26.75 24.65 26.2 24.7 25.95 24.85 25.8 24.85 25.65 24.95 25.3 25.1 24.6 23.85 24.0 24.5 25.65 23.95 26.1 23.45 25.1 23.5 23.65 23.55 23.5 23.4 23.05 24.1 21.85 24.75 21.6 24.75 21.45 Q24.6 21.4 24.6 21.5 23.75 21.75 23.05 22.2 L22.65 21.75 22.9 20.75 23.15 21.4 24.0 20.7 24.6 19.55 24.5 19.4 24.5 19.3 Q23.85 18.75 23.25 19.8 M21.75 19.35 L22.2 19.55 22.45 20.05 21.95 20.3 21.35 20.3 20.75 19.95 20.95 19.45 21.75 19.35 M26.55 26.25 L26.6 28.3 23.6 27.8 23.45 27.8 10.45 13.1 7.15 13.8 Q5.85 11.9 3.9 10.55 L2.05 9.25 Q2.95 8.3 4.2 8.0 L3.6 2.75 Q3.8 2.6 4.0 2.6 L5.6 2.9 9.4 3.4 10.5 1.7 11.2 2.6 12.35 4.6 Q13.1 6.15 14.65 7.25 L14.15 8.7 13.35 10.0 13.35 10.8 19.95 18.25 20.0 18.2 22.65 18.35 23.35 18.95 23.95 18.85 24.45 18.4 25.4 19.55 24.75 20.35 25.45 21.55 25.3 22.2 25.3 22.4 25.35 22.5 25.5 22.6 26.6 22.85 27.3 22.9 28.0 23.65 27.2 24.55 27.0 24.75 26.7 25.5 26.55 26.25 M21.1 22.5 L21.2 22.15 21.3 22.05 20.45 20.4 22.05 21.95 21.95 22.45 21.7 22.65 21.5 22.7 Q21.2 22.7 21.1 22.5 M11.3 5.85 L11.1 5.5 10.55 4.45 10.2 5.35 10.6 5.85 10.6 6.1 9.95 6.5 9.8 5.9 9.55 5.6 9.35 5.9 9.6 5.85 9.75 6.15 9.7 6.25 9.65 6.45 9.2 6.4 8.35 5.5 7.8 6.55 8.3 6.5 8.55 6.6 8.85 6.8 8.2 7.0 7.4 6.95 6.65 5.35 7.1 5.65 Q7.55 6.05 7.65 5.8 L7.45 5.2 6.35 4.8 5.9 5.05 6.0 5.55 7.25 6.95 6.25 7.35 6.95 7.85 7.0 8.2 7.0 8.6 6.4 8.65 6.3 8.35 6.15 8.05 6.35 9.2 7.15 9.05 6.35 9.75 5.8 9.2 4.9 9.4 6.3 10.6 4.55 9.25 5.8 8.75 5.0 3.95 9.8 5.25 10.45 4.05 11.4 5.95 11.3 5.85 M12.0 7.4 L11.9 7.05 13.2 7.9 12.55 8.65 12.05 9.8 11.5 10.05 11.4 9.95 11.45 9.8 11.75 9.6 11.3 9.5 11.1 9.4 10.9 9.05 9.75 8.8 11.15 10.7 8.6 7.95 9.6 8.35 10.25 8.5 11.3 8.9 11.7 7.95 11.75 7.95 12.1 7.8 12.0 7.4 M10.4 7.25 L10.8 7.1 10.95 8.1 10.85 8.1 10.25 7.5 9.35 7.7 9.05 7.1 10.4 7.25 M10.35 11.05 L10.5 11.4 7.95 12.5 7.3 11.3 7.25 11.15 7.95 11.45 8.8 10.75 9.0 10.0 9.1 9.55 8.85 9.05 9.25 9.45 9.35 9.75 9.35 9.95 9.75 11.0 10.0 11.3 10.15 11.1 10.35 11.05 M11.55 12.15 L23.5 26.6 11.15 12.75 Q10.35 12.05 11.4 12.1 L11.55 12.15 M8.25 8.65 L8.6 10.1 8.45 10.2 7.45 10.0 7.75 9.55 7.7 8.25 8.25 8.65 M7.65 7.9 L7.35 7.8 7.25 7.35 7.8 7.75 7.65 7.9 M6.55 6.75 L6.0 6.15 6.05 6.75 6.55 6.75 M19.6 19.9 L16.15 15.75 16.75 16.25 19.6 19.9" fill="#666666" fill-rule="evenodd" stroke="none"/>
    <path d="M23.75 20.15 L24.2 19.95 24.5 19.45 24.5 19.4 24.6 19.55 24.0 20.7 23.45 21.0 22.95 20.2 22.0 21.05 21.35 20.3 21.95 20.3 22.45 20.05 22.2 19.55 21.75 19.35 23.1 19.7 23.25 19.8 23.2 20.05 Q23.3 20.45 23.75 20.15 M22.9 20.75 L22.65 21.75 23.05 22.2 Q23.75 21.75 24.6 21.5 24.6 21.4 24.75 21.45 L24.75 21.6 24.1 21.85 Q23.6 22.3 23.0 22.35 22.4 22.35 22.05 21.95 L20.45 20.4 20.35 20.35 20.2 20.5 20.1 20.6 19.6 19.9 16.75 16.25 14.0 12.3 20.0 19.35 20.05 19.25 19.9 19.1 19.85 19.1 19.9 18.7 20.0 18.7 20.2 18.6 20.75 18.6 20.25 18.7 20.1 18.8 20.05 18.9 Q20.0 19.3 20.2 19.4 L20.95 19.45 20.75 19.95 20.65 19.85 20.65 19.9 22.15 21.55 22.9 20.75 M23.45 25.1 L23.95 26.1 24.5 25.65 23.85 24.0 25.1 24.6 24.95 25.3 24.85 25.65 24.85 25.8 24.7 25.95 24.65 26.2 24.85 26.75 25.35 26.75 25.65 26.45 25.5 24.9 26.1 24.45 24.9 23.85 23.85 23.25 24.4 22.7 24.5 23.0 Q25.1 24.0 26.25 24.1 L26.7 23.9 Q26.4 24.55 26.25 25.25 25.95 26.25 25.95 27.55 L23.55 27.25 23.45 27.3 11.0 13.0 10.3 12.5 7.5 13.35 5.8 11.65 2.8 9.25 3.3 9.15 3.7 8.9 4.1 8.65 4.5 8.25 4.55 6.55 4.25 2.95 7.15 3.85 4.85 3.35 5.75 3.8 Q7.7 4.55 9.55 4.65 L9.6 4.6 7.5 3.9 9.5 3.95 10.7 2.35 12.85 6.55 10.6 2.85 11.6 5.3 Q12.3 7.0 13.75 7.75 L12.8 10.25 12.85 9.25 12.15 11.35 20.35 21.65 20.45 21.85 21.1 22.5 Q21.2 22.7 21.5 22.7 L21.7 22.65 21.95 22.45 22.95 22.8 23.75 22.3 23.05 23.25 23.5 23.65 23.2 24.1 22.9 23.0 22.4 22.7 21.8 22.8 21.65 22.9 21.65 22.95 21.6 23.0 21.6 23.2 21.65 23.25 21.75 23.3 22.1 23.3 22.8 23.75 23.0 24.3 23.4 24.75 23.45 25.1 M24.55 22.6 L26.9 23.7 26.3 23.55 Q25.35 23.3 24.55 22.6 M11.3 5.85 L11.4 5.95 10.45 4.05 9.8 5.25 5.0 3.95 5.8 8.75 4.55 9.25 6.3 10.6 4.9 9.4 5.8 9.2 6.35 9.75 7.15 9.05 6.35 9.2 6.15 8.05 6.3 8.35 6.4 8.65 7.0 8.6 7.0 8.2 6.95 7.85 6.25 7.35 7.25 6.95 6.0 5.55 5.9 5.05 6.35 4.8 6.45 5.1 6.65 5.35 7.4 6.95 8.2 7.0 8.85 6.8 8.55 6.6 8.3 6.5 7.8 6.55 8.35 5.5 9.2 6.4 9.65 6.45 9.7 6.25 9.75 6.15 9.6 5.85 9.55 5.6 9.8 5.9 9.95 6.5 10.6 6.1 10.1 6.9 9.75 6.75 Q9.15 6.45 9.2 6.95 L9.55 7.0 9.9 7.0 10.4 7.25 9.05 7.1 9.35 7.7 10.25 7.5 10.85 8.1 10.95 8.1 10.8 7.1 10.95 7.0 Q11.05 7.7 11.7 7.95 L11.3 8.9 10.25 8.5 Q10.7 8.55 10.25 8.35 L9.6 8.35 8.6 7.95 11.15 10.7 9.75 8.8 10.9 9.05 11.1 9.4 11.3 9.5 11.75 9.6 11.45 9.8 11.4 9.95 11.5 10.05 12.05 9.8 12.55 8.65 13.2 7.9 11.9 7.05 11.3 5.85 M10.6 5.85 L10.2 5.35 10.55 4.45 11.1 5.5 10.6 5.85 M11.75 7.95 L12.0 7.4 12.1 7.8 11.75 7.95 M11.55 12.15 L11.4 12.1 Q10.35 12.05 11.15 12.75 L23.5 26.6 11.55 12.15 M10.35 11.05 L10.15 11.1 10.0 11.3 9.75 11.0 9.35 9.95 9.35 9.75 9.25 9.45 8.85 9.05 9.1 9.55 9.0 10.0 8.8 10.75 7.95 11.45 7.25 11.15 7.3 11.3 7.95 12.5 10.5 11.4 10.35 11.05 M6.55 6.75 L6.05 6.75 6.0 6.15 6.55 6.75 M7.65 7.9 L7.8 7.75 7.25 7.35 7.35 7.8 7.65 7.9 M8.25 8.65 L7.7 8.25 7.75 9.55 7.45 10.0 8.45 10.2 8.6 10.1 8.25 8.65" fill="#cccccc" fill-rule="evenodd" stroke="none"/>
  </g>
</svg>
