<?xml version="1.0" encoding="UTF-8" standalone="no"?>
<svg xmlns:ffdec="https://www.free-decompiler.com/flash" xmlns:xlink="http://www.w3.org/1999/xlink" ffdec:objectType="shape" height="26.85px" width="26.45px" xmlns="http://www.w3.org/2000/svg">
  <g transform="matrix(1.0, 0.0, 0.0, 1.0, -1.95, -1.9)">
    <path d="M27.85 22.7 L27.8 22.4 27.6 21.5 Q26.35 18.2 23.65 15.85 L21.75 14.3 21.05 13.8 20.5 13.55 Q20.3 13.4 20.4 13.2 L20.7 12.9 21.3 12.85 23.95 10.0 24.5 9.25 23.95 8.5 24.75 6.55 24.15 5.65 21.05 5.6 20.65 5.15 20.6 3.95 19.35 2.65 17.65 3.45 17.15 3.95 16.75 4.45 16.25 4.65 12.85 2.5 Q10.55 4.0 8.1 4.5 L7.3 4.55 6.3 6.75 5.15 8.45 8.8 12.35 9.3 12.2 9.9 12.55 9.85 13.75 8.85 13.85 5.1 17.65 Q3.6 19.3 3.15 21.6 L3.2 23.15 3.15 23.2 3.2 23.25 Q3.25 24.65 3.7 25.45 4.15 26.25 4.85 26.25 L3.95 27.15 14.15 27.7 Q17.75 28.2 21.05 26.95 23.4 27.1 25.4 26.35 27.9 25.35 27.85 22.7 M24.05 5.05 L24.5 5.1 24.95 5.1 25.65 6.0 Q25.2 6.65 25.1 7.5 24.95 8.5 25.45 9.3 L25.25 9.55 22.25 12.65 22.25 12.7 22.4 13.25 22.0 13.7 22.8 14.25 23.8 15.0 Q27.0 17.25 28.1 21.0 29.2 24.65 26.3 26.95 25.6 27.45 24.8 27.65 L17.3 28.75 3.45 28.1 3.75 26.95 3.5 26.55 Q1.6 24.6 2.05 22.0 2.15 21.0 2.55 20.0 L2.7 19.5 3.9 17.95 8.15 13.75 7.8 12.8 8.1 12.15 4.15 8.15 Q5.3 7.4 5.8 6.2 L6.4 4.2 8.85 3.7 Q10.05 3.45 11.1 2.8 11.55 2.45 12.1 2.25 L12.55 1.9 12.95 2.05 16.15 3.85 16.55 3.8 17.1 3.6 17.55 3.0 18.1 2.5 19.25 1.95 19.3 2.0 Q20.7 2.4 21.1 3.7 L21.3 4.35 Q21.45 4.85 21.95 4.95 L24.05 5.05 M20.0 12.6 L20.1 13.9 20.1 13.95 21.05 15.0 Q23.05 17.25 24.5 19.85 L23.45 20.4 Q22.25 17.85 20.4 15.75 L20.1 15.45 20.05 16.05 19.55 20.6 Q19.5 21.15 18.95 21.5 L18.35 21.35 19.0 17.1 19.05 14.9 19.05 14.6 18.4 14.25 18.05 13.45 18.1 12.9 20.0 12.6 M16.65 13.7 L16.45 13.75 15.8 12.9 16.1 12.55 17.45 12.9 17.45 13.5 16.65 13.7 M14.4 14.1 L13.45 14.05 13.4 13.35 14.75 13.15 14.4 14.1 M11.2 13.85 L10.8 13.35 10.8 12.7 11.45 12.15 12.65 12.95 12.55 13.6 11.2 13.85" fill="#333333" fill-rule="evenodd" stroke="none"/>
    <path d="M18.65 24.5 L18.75 24.5 18.7 24.5 18.65 24.5" fill="#596a5c" fill-rule="evenodd" stroke="none"/>
    <path d="M7.45 24.4 Q11.25 22.0 15.8 23.35 L17.2 23.7 17.0 24.2 Q12.05 22.95 7.15 24.85 L6.8 24.95 7.5 24.4 7.45 24.4" fill="#cccccc" fill-rule="evenodd" stroke="none"/>
    <path d="M17.2 23.7 L18.65 24.5 18.7 24.5 20.1 25.5 19.75 25.9 9.35 26.45 Q7.55 26.55 5.75 25.6 L7.5 24.4 6.8 24.95 7.15 24.85 Q12.05 22.95 17.0 24.2 L17.2 23.7" fill="#999999" fill-rule="evenodd" stroke="none"/>
    <path d="M21.05 26.95 Q17.75 28.2 14.15 27.7 L3.95 27.15 4.85 26.25 5.75 25.6 Q7.55 26.55 9.35 26.45 L19.75 25.9 20.1 25.5 21.05 26.95" fill="#666666" fill-rule="evenodd" stroke="none"/>
    <path d="M3.2 23.25 L3.15 23.2 3.2 23.15 3.15 21.6 Q3.6 19.3 5.1 17.65 L8.85 13.85 9.85 13.75 9.9 12.55 9.3 12.2 8.8 12.35 5.15 8.45 6.3 6.75 7.3 4.55 8.1 4.5 Q10.55 4.0 12.85 2.5 L16.25 4.65 16.75 4.45 17.15 3.95 17.65 3.45 19.35 2.65 20.6 3.95 20.65 5.15 21.05 5.6 24.15 5.65 24.75 6.55 23.95 8.5 24.5 9.25 23.95 10.0 21.3 12.85 20.7 12.9 20.4 13.2 Q20.3 13.4 20.5 13.55 L21.05 13.8 21.75 14.3 23.65 15.85 Q26.35 18.2 27.6 21.5 L27.8 22.4 27.85 22.7 Q27.75 23.75 25.4 24.6 22.75 25.55 18.75 24.5 L18.65 24.5 17.2 23.7 15.8 23.35 Q11.25 22.0 7.45 24.4 L4.3 24.55 Q3.3 24.05 3.2 23.25 M20.0 12.6 L22.75 10.05 22.25 9.4 20.8 9.85 22.25 7.25 21.85 6.85 20.45 7.75 20.0 7.6 16.65 10.25 15.6 8.15 14.7 5.3 14.15 5.5 13.7 9.85 10.85 8.2 8.75 6.65 8.25 7.15 8.85 8.15 7.9 10.25 8.6 10.9 9.0 10.85 10.8 13.35 11.2 13.85 Q9.1 15.15 9.15 17.6 L9.2 18.3 10.0 18.6 Q12.25 16.75 13.45 14.05 L14.4 14.1 15.25 14.45 16.45 13.75 16.65 13.7 17.55 15.45 18.05 15.75 Q18.25 15.6 18.5 15.5 L18.05 13.45 18.4 14.25 19.05 14.6 19.05 14.9 19.0 17.1 18.35 21.35 18.95 21.5 Q19.5 21.15 19.55 20.6 L20.05 16.05 20.1 15.45 20.4 15.75 Q22.25 17.85 23.45 20.4 L24.5 19.85 Q23.05 17.25 21.05 15.0 L20.1 13.95 20.1 13.9 20.0 12.6" fill="#ffffff" fill-rule="evenodd" stroke="none"/>
    <path d="M3.2 23.25 Q3.3 24.05 4.3 24.55 L7.45 24.4 7.5 24.4 5.75 25.6 4.85 26.25 Q4.15 26.25 3.7 25.45 3.25 24.65 3.2 23.25 M18.75 24.5 Q22.75 25.55 25.4 24.6 27.75 23.75 27.85 22.7 27.9 25.35 25.4 26.35 23.4 27.1 21.05 26.95 L20.1 25.5 18.7 24.5 18.75 24.5 M10.8 13.35 L9.0 10.85 8.6 10.9 7.9 10.25 8.85 8.15 8.25 7.15 8.75 6.65 10.85 8.2 13.7 9.85 14.15 5.5 14.7 5.3 15.6 8.15 16.65 10.25 20.0 7.6 20.45 7.75 21.85 6.85 22.25 7.25 20.8 9.85 22.25 9.4 22.75 10.05 20.0 12.6 18.1 12.9 18.05 13.45 18.5 15.5 Q18.25 15.6 18.05 15.75 L17.55 15.45 16.65 13.7 17.45 13.5 17.45 12.9 16.1 12.55 15.8 12.9 16.45 13.75 15.25 14.45 14.4 14.1 14.75 13.15 13.4 13.35 13.45 14.05 Q12.25 16.75 10.0 18.6 L9.2 18.3 9.15 17.6 Q9.1 15.15 11.2 13.85 L12.55 13.6 12.65 12.95 11.45 12.15 10.8 12.7 10.8 13.35" fill="#c6d0c7" fill-rule="evenodd" stroke="none"/>
  </g>
</svg>
