<?xml version="1.0" encoding="UTF-8" standalone="no"?>
<svg xmlns:ffdec="https://www.free-decompiler.com/flash" xmlns:xlink="http://www.w3.org/1999/xlink" ffdec:objectType="shape" height="25.65px" width="27.05px" xmlns="http://www.w3.org/2000/svg">
  <g transform="matrix(1.0, 0.0, 0.0, 1.0, -1.7, -2.55)">
    <path d="M23.0 3.25 L22.0 3.2 21.05 3.6 20.65 3.9 20.05 3.95 19.6 4.05 20.2 4.2 19.0 5.1 18.3 4.95 18.75 5.35 17.9 5.95 17.7 5.85 16.5 5.25 12.45 4.15 Q8.7 3.25 5.35 5.4 L10.5 4.55 Q12.0 4.4 13.1 5.25 14.3 6.1 14.75 7.5 L14.1 8.05 14.1 8.0 Q13.3 5.1 10.5 5.4 12.85 6.05 14.0 8.15 L13.25 8.8 Q12.4 6.7 10.25 6.25 L8.65 6.4 Q5.35 7.3 3.8 10.35 4.75 9.65 5.8 9.05 9.4 7.0 13.1 8.95 L12.4 9.55 Q11.55 8.85 10.4 8.8 7.85 8.6 5.7 10.2 4.2 11.35 3.45 13.0 L4.0 13.8 4.9 14.75 Q7.35 12.25 10.65 11.15 L10.35 11.25 9.95 11.45 6.25 14.75 6.2 14.9 6.25 14.95 5.95 15.2 6.0 15.2 4.55 16.4 4.25 16.65 3.35 17.45 3.3 17.35 Q1.8 15.05 1.7 12.25 1.6 8.65 3.9 5.95 5.2 4.45 7.3 3.7 L12.9 3.4 Q15.95 3.95 18.7 3.3 21.35 2.55 24.15 2.55 26.15 2.95 27.8 4.45 29.05 6.15 28.65 8.15 L28.2 8.45 28.1 9.2 27.5 10.95 26.8 10.0 27.05 8.75 26.4 8.4 Q26.85 6.85 26.1 5.5 L26.35 5.6 27.65 6.75 Q27.5 5.4 26.6 4.55 25.55 3.65 24.3 3.35 L22.85 3.15 23.0 3.25 M20.9 21.45 L21.7 20.7 Q23.2 21.5 24.1 23.35 L25.65 26.4 24.25 24.6 24.2 26.8 23.7 24.95 23.45 27.0 23.3 27.1 23.2 25.6 23.0 26.0 22.05 27.65 21.75 27.75 21.75 27.6 Q23.25 25.2 22.45 22.5 21.75 21.85 20.9 21.45 M4.3 7.1 Q3.0 8.3 2.9 10.35 3.95 7.85 6.25 6.45 6.9 6.1 6.3 6.05 5.2 6.35 4.3 7.1" fill="#666666" fill-rule="evenodd" stroke="none"/>
    <path d="M17.95 8.85 L17.35 8.55 17.45 8.45 18.8 7.3 19.65 6.55 19.95 6.3 20.95 5.5 21.9 4.65 22.05 4.5 22.55 4.25 22.7 4.25 23.85 4.6 24.45 5.2 24.5 5.2 24.75 5.55 24.75 5.65 24.65 5.9 24.5 5.9 24.2 5.8 24.0 5.5 23.95 5.45 23.8 5.35 22.95 5.1 22.35 5.55 20.65 6.8 19.8 7.4 18.55 8.4 17.95 8.85 M14.05 11.3 L14.6 11.75 13.15 13.0 12.0 14.15 10.45 15.85 Q10.05 15.95 9.75 16.15 L9.55 16.35 9.5 16.45 9.35 16.9 9.35 16.95 9.2 17.15 8.85 17.15 8.75 17.15 8.6 17.1 8.3 16.9 8.05 16.7 8.0 16.5 8.0 16.35 8.0 16.3 9.15 15.25 9.2 15.2 9.85 14.7 12.45 12.65 13.25 12.0 14.05 11.3" fill="#f9a799" fill-rule="evenodd" stroke="none"/>
    <path d="M17.35 8.55 L16.3 8.35 16.25 8.4 21.45 4.1 21.9 3.9 23.85 3.95 Q24.75 4.3 25.45 5.3 L25.6 5.55 26.0 6.5 24.95 7.65 22.8 9.8 20.3 12.0 19.95 11.35 18.6 9.45 17.95 8.85 18.55 8.4 19.8 7.4 20.65 6.8 22.35 5.55 22.95 5.1 23.8 5.35 23.95 5.45 24.0 5.5 24.2 5.8 24.5 5.9 24.65 5.9 24.75 5.65 24.75 5.55 24.5 5.2 24.45 5.2 23.85 4.6 22.7 4.25 22.55 4.25 22.05 4.5 21.9 4.65 20.95 5.5 19.95 6.3 19.65 6.55 18.8 7.3 17.45 8.45 17.35 8.55 M26.0 10.15 L26.15 10.3 26.55 10.5 27.15 11.45 27.15 11.55 27.2 13.2 25.1 15.1 22.85 17.25 21.9 14.95 21.55 14.3 26.0 10.15 M12.0 10.45 L15.45 7.4 16.35 7.25 16.35 7.3 16.4 7.35 14.35 9.25 12.9 9.95 12.45 10.2 12.0 10.45 M2.85 19.5 Q3.05 18.65 3.6 17.9 L7.95 14.05 10.2 12.8 11.0 12.35 6.6 16.4 12.45 11.55 12.5 11.5 13.05 11.25 13.85 11.2 14.05 11.3 13.25 12.0 12.45 12.65 9.85 14.7 9.2 15.2 9.15 15.25 8.0 16.3 8.0 16.35 8.0 16.5 8.05 16.7 8.3 16.9 8.6 17.1 8.75 17.15 8.85 17.15 9.2 17.15 9.35 16.95 9.35 16.9 9.5 16.45 9.55 16.35 9.75 16.15 Q10.05 15.95 10.45 15.85 L12.0 14.15 13.15 13.0 14.6 11.75 15.5 12.75 16.5 14.5 16.75 15.05 14.1 17.4 12.15 19.25 11.75 19.55 11.7 19.65 9.95 20.85 9.75 20.95 8.6 20.0 9.8 18.75 9.7 18.5 9.15 18.6 8.6 18.7 7.55 19.35 7.05 17.7 6.95 17.7 6.9 17.75 6.85 17.85 6.6 18.4 6.45 18.65 6.2 19.5 6.1 18.5 6.1 18.2 6.1 18.1 6.15 17.5 6.2 17.0 6.1 16.85 6.05 16.9 5.85 17.5 5.65 18.05 5.45 19.35 5.45 20.15 5.5 20.75 4.7 21.05 4.65 20.65 4.35 20.15 4.15 19.95 3.9 19.75 3.5 20.7 2.85 19.5 M17.85 17.8 L18.85 21.05 18.35 21.5 14.0 25.3 13.35 25.6 13.1 25.6 12.85 25.5 12.9 25.4 13.0 25.15 13.0 25.05 11.5 24.85 11.35 23.8 17.85 17.8" fill="#f13a1b" fill-rule="evenodd" stroke="none"/>
    <path d="M23.0 3.25 Q24.45 3.45 25.55 4.7 L26.1 5.5 Q26.85 6.85 26.4 8.4 L26.3 8.6 25.9 9.2 25.95 9.25 26.0 9.25 26.4 9.65 26.8 10.0 27.5 10.95 Q28.2 12.3 27.7 14.0 L26.75 15.75 26.05 16.45 22.75 19.6 22.65 19.75 21.7 20.7 20.9 21.45 18.7 23.6 18.6 23.55 14.65 27.35 14.0 27.8 12.3 28.2 12.1 28.2 Q10.5 28.15 9.15 26.95 L7.55 25.35 Q4.6 25.45 3.0 23.25 1.15 20.75 2.9 17.9 L3.35 17.45 4.25 16.65 4.55 16.4 6.0 15.2 6.25 15.0 6.35 14.95 6.25 14.95 6.2 14.9 6.25 14.75 9.95 11.45 10.35 11.25 10.65 11.15 12.4 9.55 13.1 8.95 13.25 8.8 14.0 8.15 14.1 8.05 14.75 7.5 15.25 7.0 15.45 6.8 15.65 6.75 15.6 6.8 15.9 6.6 16.4 6.6 17.3 6.4 17.9 5.95 18.75 5.35 19.0 5.1 20.2 4.2 20.65 3.9 21.05 3.6 22.0 3.2 23.0 3.25 M26.0 6.5 L25.6 5.55 25.45 5.3 Q24.75 4.3 23.85 3.95 L21.9 3.9 21.45 4.1 16.25 8.4 16.3 8.35 17.35 8.55 17.95 8.85 18.6 9.45 19.95 11.35 20.3 12.0 20.8 12.9 25.15 8.85 25.5 8.55 25.8 8.1 Q26.1 7.35 26.0 6.5 M27.2 13.2 L27.15 11.55 27.15 11.45 26.55 10.5 26.15 10.3 26.0 10.15 25.35 9.95 21.2 13.7 21.55 14.3 21.9 14.95 22.85 17.25 22.85 17.3 22.9 17.45 23.05 18.55 25.95 15.8 Q26.8 15.1 26.95 14.2 L27.2 13.2 M22.5 17.3 L22.35 16.85 21.3 14.5 21.0 13.85 20.65 13.05 20.5 12.8 20.15 12.15 19.9 11.7 18.5 9.65 17.75 9.0 17.5 8.9 17.35 8.85 17.15 8.75 16.5 8.6 16.4 8.6 16.0 8.7 16.0 8.75 15.4 9.05 15.25 9.15 15.05 9.3 Q14.95 9.3 14.9 9.4 L14.25 9.7 13.5 10.0 12.95 10.25 12.4 10.45 12.3 10.5 12.2 10.5 12.0 10.6 11.7 10.75 10.75 11.2 10.0 11.7 9.45 12.2 7.9 13.85 8.25 13.6 8.75 13.25 10.15 12.35 11.1 11.8 11.25 11.7 11.8 11.45 12.05 11.35 12.25 11.3 12.9 11.05 13.1 11.0 13.55 10.85 14.25 11.15 14.3 11.15 14.35 11.2 14.45 11.25 14.5 11.25 14.75 11.4 15.1 11.65 Q15.8 12.15 16.1 12.8 L17.0 14.85 17.5 16.0 17.8 16.75 17.9 16.95 18.15 17.5 18.25 17.8 18.3 17.9 19.1 20.4 19.15 20.6 19.2 20.75 19.3 22.0 19.3 22.45 20.9 20.85 20.85 20.8 20.9 20.75 20.95 20.45 21.0 20.05 20.9 19.35 20.85 19.2 20.85 19.15 20.75 18.8 19.7 16.0 18.9 14.25 18.8 14.1 18.5 13.55 17.15 11.45 17.1 11.4 16.55 10.7 15.95 10.15 15.7 9.95 15.25 9.7 15.35 9.75 15.45 9.8 15.75 9.9 16.0 10.0 16.25 10.1 16.35 10.15 16.4 10.15 16.85 10.5 17.9 11.75 17.95 11.8 18.75 13.35 18.85 13.6 19.2 14.35 19.3 14.55 19.6 15.15 19.95 15.8 20.6 17.0 20.65 17.1 20.75 17.3 21.15 18.4 21.25 18.8 21.25 19.0 21.3 19.55 21.3 20.15 21.25 20.45 21.25 20.5 22.4 19.4 22.45 19.35 22.5 19.2 22.6 18.3 22.55 17.65 22.55 17.6 22.5 17.3 M14.05 11.3 L13.85 11.2 13.05 11.25 12.5 11.5 12.45 11.55 6.6 16.4 11.0 12.35 10.2 12.8 7.95 14.05 3.6 17.9 Q3.05 18.65 2.85 19.5 L2.75 19.95 2.75 20.15 2.75 20.2 Q2.7 21.55 3.35 22.9 3.75 23.65 4.7 24.05 6.05 24.8 7.45 24.05 L7.7 22.95 6.95 22.65 Q6.15 22.2 5.55 21.25 L5.5 20.75 5.45 20.15 5.45 19.35 5.65 18.05 5.85 17.5 6.05 16.9 6.1 16.85 6.2 17.0 6.15 17.5 6.1 18.1 6.1 18.2 6.1 18.5 6.2 19.5 6.2 19.55 Q6.5 21.35 8.35 21.75 L10.3 22.15 11.1 21.8 11.3 21.7 17.25 16.2 16.75 15.05 16.5 14.5 15.5 12.75 14.6 11.75 14.05 11.3 M12.0 10.45 L12.45 10.2 12.9 9.95 14.35 9.25 16.4 7.35 16.35 7.3 16.35 7.25 15.45 7.4 12.0 10.45 M17.85 17.8 L17.55 17.0 11.55 22.35 8.2 23.2 Q8.15 24.45 8.65 25.4 L9.0 25.9 Q10.3 27.45 12.3 27.55 L13.35 27.5 18.8 22.45 18.85 22.3 18.9 21.9 18.85 21.05 17.85 17.8" fill="#561105" fill-rule="evenodd" stroke="none"/>
    <path d="M26.0 6.5 Q26.1 7.35 25.8 8.1 L25.5 8.55 25.15 8.85 20.8 12.9 20.3 12.0 22.8 9.8 24.95 7.65 26.0 6.5 M27.2 13.2 L26.95 14.2 Q26.8 15.1 25.95 15.8 L23.05 18.55 22.9 17.45 22.85 17.3 22.85 17.25 25.1 15.1 27.2 13.2 M21.55 14.3 L21.2 13.7 25.35 9.95 26.0 10.15 21.55 14.3 M16.75 15.05 L17.25 16.2 11.3 21.7 11.1 21.8 10.3 22.15 8.35 21.75 Q6.5 21.35 6.2 19.55 L6.2 19.5 6.45 18.65 6.6 18.4 6.85 17.85 6.9 17.75 6.95 17.7 7.05 17.7 7.55 19.35 8.6 18.7 9.15 18.6 9.7 18.5 9.8 18.75 8.6 20.0 9.75 20.95 9.95 20.85 11.7 19.65 11.75 19.55 12.15 19.25 14.1 17.4 16.75 15.05 M5.5 20.75 L5.55 21.25 Q6.15 22.2 6.95 22.65 L7.7 22.95 7.45 24.05 Q6.05 24.8 4.7 24.05 3.75 23.65 3.35 22.9 2.7 21.55 2.75 20.2 L2.75 20.15 2.75 19.95 2.85 19.5 3.5 20.7 3.9 19.75 4.15 19.95 4.35 20.15 4.65 20.65 4.7 21.05 5.5 20.75 M18.85 21.05 L18.9 21.9 18.85 22.3 18.8 22.45 13.35 27.5 12.3 27.55 Q10.3 27.45 9.0 25.9 L8.65 25.4 Q8.15 24.45 8.2 23.2 L11.55 22.35 17.55 17.0 17.85 17.8 11.35 23.8 11.5 24.85 13.0 25.05 13.0 25.15 12.9 25.4 12.85 25.5 13.1 25.6 13.35 25.6 14.0 25.3 18.35 21.5 18.85 21.05" fill="#b5240b" fill-rule="evenodd" stroke="none"/>
    <path d="M19.1 20.4 L18.3 17.9 18.25 17.8 18.15 17.5 17.9 16.95 17.8 16.75 17.5 16.0 17.0 14.85 16.1 12.8 Q15.8 12.15 15.1 11.65 L14.75 11.4 14.5 11.25 14.45 11.25 14.35 11.2 14.3 11.15 14.25 11.15 13.55 10.85 13.1 11.0 12.9 11.05 12.25 11.3 12.05 11.35 11.8 11.45 11.25 11.7 11.1 11.8 10.15 12.35 8.75 13.25 8.25 13.6 7.9 13.85 9.45 12.2 10.0 11.7 10.75 11.2 11.7 10.75 12.0 10.6 12.2 10.5 12.3 10.5 12.4 10.45 12.95 10.25 13.5 10.0 14.25 9.7 14.9 9.4 Q14.95 9.3 15.05 9.3 L15.25 9.15 15.4 9.05 16.0 8.75 16.0 8.7 16.4 8.6 16.5 8.6 17.15 8.75 17.35 8.85 17.5 8.9 17.75 9.0 18.5 9.65 19.9 11.7 20.15 12.15 20.5 12.8 20.65 13.05 21.0 13.85 21.3 14.5 22.35 16.85 22.5 17.3 21.15 18.4 20.75 17.3 20.65 17.1 20.6 17.0 19.95 15.8 19.6 15.15 19.3 14.55 19.2 14.35 18.85 13.6 18.75 13.35 17.95 11.8 17.9 11.75 16.85 10.5 16.4 10.15 16.35 10.15 16.25 10.1 16.0 10.0 15.75 9.9 15.45 9.8 15.35 9.75 15.25 9.7 15.7 9.95 15.95 10.15 16.55 10.7 17.1 11.4 17.15 11.45 18.5 13.55 18.8 14.1 18.9 14.25 19.7 16.0 20.75 18.8 19.1 20.4" fill="#ffffff" fill-rule="evenodd" stroke="none"/>
    <path d="M22.5 17.3 L22.55 17.6 22.55 17.65 22.6 18.3 22.5 19.2 22.45 19.35 22.4 19.4 21.25 20.5 21.25 20.45 21.3 20.15 21.3 19.55 21.25 19.0 21.25 18.8 21.15 18.4 22.5 17.3 M20.75 18.8 L20.85 19.15 20.85 19.2 20.9 19.35 21.0 20.05 20.95 20.45 20.9 20.75 20.85 20.8 20.9 20.85 19.3 22.45 19.3 22.0 19.2 20.75 19.15 20.6 19.1 20.4 20.75 18.8" fill="#cccccc" fill-rule="evenodd" stroke="none"/>
  </g>
</svg>
