<?xml version="1.0" encoding="UTF-8" standalone="no"?>
<svg xmlns:ffdec="https://www.free-decompiler.com/flash" xmlns:xlink="http://www.w3.org/1999/xlink" ffdec:objectType="shape" height="26.8px" width="27.65px" xmlns="http://www.w3.org/2000/svg">
  <g transform="matrix(1.0, 0.0, 0.0, 1.0, -1.2, -1.7)">
    <path d="M10.45 22.55 L11.65 22.8 Q14.85 23.25 18.05 22.8 L19.6 22.55 20.25 22.45 21.6 22.2 21.85 22.05 23.9 21.65 Q22.8 22.55 21.5 22.6 L16.1 23.15 13.4 23.15 10.65 23.05 8.7 22.65 6.8 22.0 6.55 21.85 8.05 21.95 8.2 22.05 9.85 22.35 10.45 22.55 M24.55 19.3 L24.75 18.95 27.0 19.05 26.9 19.7 27.3 20.4 28.0 22.0 Q28.4 23.0 28.4 24.25 L28.5 25.7 28.7 26.25 28.85 26.5 28.85 26.7 27.4 26.65 26.0 27.05 25.8 27.15 Q21.9 28.25 17.85 28.4 14.1 28.6 10.4 28.35 6.3 27.95 2.55 26.65 L1.2 26.75 1.3 26.4 1.35 26.2 1.6 25.65 1.7 25.55 Q1.65 24.6 1.75 23.75 L2.05 22.0 Q2.3 20.9 3.2 19.9 L3.1 19.15 3.45 19.1 4.1 19.15 5.3 18.95 5.5 19.3 3.9 19.45 3.55 19.55 3.45 19.55 3.6 19.8 3.45 20.3 2.75 21.3 Q2.35 22.35 2.2 23.5 2.1 24.35 2.15 25.25 L2.1 25.3 1.8 26.15 1.75 26.15 2.0 26.35 2.25 26.35 2.8 26.3 2.85 26.3 10.9 27.85 Q15.2 28.15 19.65 27.8 22.85 27.75 26.0 26.65 L27.45 26.2 28.4 26.3 28.25 26.05 Q27.85 24.8 27.85 23.6 L27.45 21.6 26.75 20.35 26.45 19.9 26.5 19.8 26.5 19.55 26.15 19.45 24.55 19.3 M3.2 24.1 L3.2 24.3 2.45 25.45 2.6 25.05 3.2 24.1 M26.15 25.0 Q26.35 24.75 26.8 25.2 L27.2 25.5 27.0 25.6 25.8 25.6 26.95 25.5 26.15 25.0 M3.8 25.05 L3.8 25.1 3.15 25.5 3.7 25.55 3.6 25.65 2.75 25.65 3.8 25.05 M3.75 25.55 L4.3 25.6 3.6 25.65 3.75 25.55 M27.6 25.45 L26.75 24.1 27.6 25.0 27.6 25.45" fill="#333333" fill-rule="evenodd" stroke="none"/>
    <path d="M23.75 20.3 L24.55 19.3 26.15 19.45 26.5 19.55 26.5 19.8 26.45 19.9 26.75 20.35 27.45 21.6 27.85 23.6 Q27.85 24.8 28.25 26.05 L27.2 25.5 26.8 25.2 Q26.35 24.75 26.15 25.0 L25.95 24.95 24.4 25.15 21.9 25.3 19.45 25.55 16.55 25.7 15.1 25.7 13.6 25.7 12.1 25.7 10.65 25.6 9.15 25.55 7.6 25.4 6.1 25.25 4.0 25.15 3.95 24.95 3.8 25.05 2.75 25.65 1.8 26.15 2.1 25.3 2.15 25.25 Q2.1 24.35 2.2 23.5 2.35 22.35 2.75 21.3 L3.45 20.3 3.6 19.8 3.45 19.55 3.55 19.55 3.9 19.45 5.5 19.3 6.5 20.5 5.6 20.95 Q5.2 21.55 5.7 22.25 L7.9 23.45 Q10.5 24.35 13.35 24.45 17.45 24.75 21.35 23.55 L23.0 22.85 24.35 22.05 24.65 21.8 Q24.75 21.7 24.8 21.7 25.0 21.0 24.6 20.45 L23.75 20.3 M3.2 24.1 L2.6 25.05 2.45 25.45 3.2 24.3 3.2 24.1 M27.6 25.45 L27.6 25.0 26.75 24.1 27.6 25.45" fill="#e2a0bd" fill-rule="evenodd" stroke="none"/>
    <path d="M21.85 22.05 L23.75 20.3 24.6 20.45 Q25.0 21.0 24.8 21.7 24.75 21.7 24.65 21.8 L24.35 22.05 23.0 22.85 21.35 23.55 Q17.45 24.75 13.35 24.45 10.5 24.35 7.9 23.45 L5.7 22.25 Q5.2 21.55 5.6 20.95 L6.5 20.5 8.05 21.95 6.55 21.85 6.8 22.0 8.7 22.65 10.65 23.05 13.4 23.15 16.1 23.15 21.5 22.6 Q22.8 22.55 23.9 21.65 L21.85 22.05 M28.25 26.05 L28.4 26.3 27.45 26.2 26.0 26.65 Q22.85 27.75 19.65 27.8 15.2 28.15 10.9 27.85 L2.85 26.3 2.8 26.3 2.25 26.35 2.0 26.35 1.75 26.15 1.8 26.15 2.75 25.65 3.6 25.65 4.3 25.6 3.75 25.55 3.7 25.55 3.15 25.5 3.8 25.1 3.8 25.05 3.95 24.95 4.0 25.15 6.1 25.25 7.6 25.4 9.15 25.55 10.65 25.6 12.1 25.7 13.6 25.7 15.1 25.7 16.55 25.7 19.45 25.55 21.9 25.3 24.4 25.15 25.95 24.95 26.15 25.0 26.95 25.5 25.8 25.6 27.0 25.6 27.2 25.5 28.25 26.05 M27.0 25.85 L26.95 25.85 27.05 25.95 27.0 25.85" fill="#b66588" fill-rule="evenodd" stroke="none"/>
    <path d="M19.6 22.55 L20.55 22.05 22.6 20.45 22.9 20.15 23.45 19.45 23.9 18.9 Q25.7 16.3 25.75 13.0 25.7 8.6 22.6 5.5 19.45 2.4 15.0 2.45 10.55 2.4 7.45 5.5 4.3 8.6 4.3 13.0 4.25 16.3 6.1 18.9 L6.5 19.45 7.35 20.35 7.45 20.45 9.6 22.15 10.45 22.55 9.85 22.35 8.2 22.05 8.05 21.95 6.5 20.5 5.5 19.3 5.3 18.95 Q3.55 16.3 3.55 13.0 3.55 8.3 6.9 5.0 10.25 1.7 15.0 1.7 19.75 1.7 23.1 5.0 26.45 8.3 26.45 13.0 26.45 16.3 24.75 18.95 L24.55 19.3 23.75 20.3 21.85 22.05 21.6 22.2 20.25 22.45 19.6 22.55" fill="#39394f" fill-rule="evenodd" stroke="none"/>
    <path d="M10.45 22.55 L9.6 22.15 7.45 20.45 7.35 20.35 6.5 19.45 6.1 18.9 Q4.25 16.3 4.3 13.0 4.3 8.6 7.45 5.5 10.55 2.4 15.0 2.45 19.45 2.4 22.6 5.5 25.7 8.6 25.75 13.0 25.7 16.3 23.9 18.9 L23.45 19.45 22.9 20.15 22.6 20.45 20.55 22.05 19.6 22.55 18.05 22.8 Q14.85 23.25 11.65 22.8 L10.45 22.55" fill="url(#gradient0)" fill-rule="evenodd" stroke="none"/>
  </g>
  <defs>
    <radialGradient cx="0" cy="0" gradientTransform="matrix(0.0179, 0.0, 0.0, 0.0176, 12.35, 8.05)" gradientUnits="userSpaceOnUse" id="gradient0" r="819.2" spreadMethod="pad">
      <stop offset="0.07450980392156863" stop-color="#ffffff"/>
      <stop offset="0.5490196078431373" stop-color="#ff3366"/>
      <stop offset="1.0" stop-color="#780125"/>
    </radialGradient>
  </defs>
</svg>
