<?xml version="1.0" encoding="UTF-8" standalone="no"?>
<svg xmlns:ffdec="https://www.free-decompiler.com/flash" xmlns:xlink="http://www.w3.org/1999/xlink" ffdec:objectType="shape" height="27.8px" width="22.5px" xmlns="http://www.w3.org/2000/svg">
  <g transform="matrix(1.0, 0.0, 0.0, 1.0, -3.95, -1.25)">
    <path d="M26.35 1.4 L26.45 1.75 26.45 4.8 26.35 5.15 26.05 5.3 23.85 5.3 23.85 25.0 26.05 25.0 26.35 25.15 26.45 25.5 26.45 28.55 26.35 28.9 26.05 29.05 4.4 29.05 4.1 28.9 3.95 28.55 3.95 25.5 4.1 25.15 Q4.2 25.0 4.4 25.0 L7.0 25.0 7.0 5.3 4.4 5.3 4.1 5.15 3.95 4.8 3.95 1.75 4.1 1.4 Q4.2 1.25 4.4 1.25 L26.05 1.25 26.35 1.4 M16.5 4.3 L25.65 4.3 25.65 2.25 24.2 2.25 13.45 2.25 6.9 2.25 6.85 2.25 4.8 2.25 4.8 4.3 15.0 4.3 15.1 4.35 15.1 4.3 15.65 4.3 16.5 4.3 M21.85 5.15 L21.8 5.15 21.8 25.05 23.0 25.05 23.0 5.15 22.95 5.15 21.85 5.15 M15.45 15.0 L15.45 14.75 15.55 14.45 15.6 14.4 15.85 14.25 15.9 14.25 Q18.2 13.9 19.9 11.65 L20.05 11.5 20.95 9.95 20.95 7.4 20.95 5.3 9.9 5.3 9.9 7.5 9.9 10.2 10.55 11.3 10.65 11.45 10.75 11.6 Q12.45 14.05 14.85 14.25 L14.95 14.25 15.25 14.4 15.25 14.45 15.35 14.75 15.35 15.05 15.35 15.25 15.25 15.6 14.95 15.75 Q12.45 15.9 10.7 18.6 L9.9 19.9 9.9 25.0 20.95 25.0 20.95 20.4 19.95 18.65 19.95 18.6 Q18.15 16.1 15.9 15.8 L15.85 15.8 15.6 15.65 15.55 15.65 15.45 15.3 15.45 15.0 M20.95 11.75 L20.65 12.15 Q19.05 14.35 16.95 15.05 18.95 15.7 20.6 18.0 L20.95 18.5 20.95 11.75 M9.1 8.8 L9.1 5.15 7.8 5.15 7.8 8.8 7.85 8.8 7.85 25.05 9.1 25.05 9.1 8.8 M10.1 12.25 L9.9 11.95 9.9 18.15 10.0 18.0 Q11.55 15.65 13.55 15.0 11.6 14.35 10.1 12.25 M4.8 26.0 L4.8 28.05 15.35 28.05 25.65 28.05 25.65 26.0 4.8 26.0" fill="#333333" fill-rule="evenodd" stroke="none"/>
    <path d="M20.95 7.4 L20.95 9.95 20.05 11.5 19.9 11.65 Q18.2 13.9 15.9 14.25 L15.85 14.25 15.6 14.4 15.55 14.45 15.45 14.75 15.45 15.0 15.4 15.0 15.35 15.05 15.35 14.75 15.25 14.45 15.25 14.4 14.95 14.25 14.85 14.25 Q12.45 14.05 10.75 11.6 L10.65 11.45 10.55 11.3 9.9 10.2 9.9 7.5 9.95 7.5 17.45 7.5 20.9 7.4 20.95 7.4" fill="#ffffff" fill-rule="evenodd" stroke="none"/>
    <path d="M20.95 7.4 L20.9 7.4 17.45 7.5 9.95 7.5 9.9 7.5 9.9 5.3 20.95 5.3 20.95 7.4 M15.35 15.05 L15.4 15.0 15.45 15.0 15.45 15.3 15.55 15.65 15.6 15.65 15.85 15.8 15.9 15.8 Q18.15 16.1 19.95 18.6 L19.95 18.65 20.95 20.4 20.95 25.0 9.9 25.0 9.9 19.9 10.7 18.6 Q12.45 15.9 14.95 15.75 L15.25 15.6 15.35 15.25 15.35 15.05 M14.65 18.05 L13.8 17.05 Q11.0 17.5 11.05 20.35 L11.65 21.05 13.05 21.15 Q14.95 20.6 14.65 18.05" fill="#9197b7" fill-rule="evenodd" stroke="none"/>
    <path d="M14.65 18.05 Q14.95 20.6 13.05 21.15 L11.65 21.05 11.05 20.35 Q11.0 17.5 13.8 17.05 L14.65 18.05" fill="#ccd0dd" fill-rule="evenodd" stroke="none"/>
    <path d="M6.9 2.25 L13.45 2.25 24.2 2.25 25.65 2.25 25.65 4.3 16.5 4.3 16.85 3.25 16.55 3.35 15.65 4.3 15.1 4.3 Q15.2 3.85 14.45 3.5 L13.95 3.9 15.0 4.3 4.8 4.3 4.8 2.25 6.85 2.25 6.55 2.3 5.95 2.75 5.65 3.05 6.1 4.15 6.35 3.85 6.7 3.1 8.1 3.7 8.35 3.3 8.75 3.75 8.85 3.7 9.1 3.55 8.85 2.7 8.3 2.5 7.75 2.85 6.9 2.25 M24.2 2.25 L21.7 2.35 21.05 3.15 20.5 3.1 19.8 2.4 19.65 3.3 19.05 3.25 18.7 2.8 13.45 2.25 12.7 3.1 Q10.9 2.5 9.3 3.75 L11.6 3.9 12.15 3.5 13.25 4.2 13.65 3.7 13.4 3.2 15.6 3.15 15.95 2.85 17.0 2.85 17.3 3.15 17.4 3.45 17.35 3.55 17.85 3.85 18.3 3.5 21.55 3.6 22.1 3.0 22.6 3.8 23.75 2.8 24.2 3.35 23.75 3.7 24.15 4.15 24.55 4.2 24.85 3.0 24.2 2.25 M22.95 5.15 L23.0 5.15 23.0 25.05 21.8 25.05 21.8 5.15 21.85 5.15 21.85 8.8 22.95 8.8 22.95 5.15 M9.1 8.8 L9.1 25.05 7.85 25.05 7.85 8.8 9.1 8.8 M19.25 26.25 L17.5 26.65 17.2 26.45 16.75 26.5 16.35 27.1 15.6 26.65 15.15 27.2 13.85 26.35 13.5 27.0 12.5 26.05 11.95 26.25 11.8 26.95 12.35 27.0 Q13.1 27.95 14.25 27.95 L14.65 27.8 15.35 28.05 15.85 27.55 16.25 27.95 Q17.5 27.8 18.7 27.2 L19.05 27.6 19.25 27.7 19.8 27.35 20.1 27.65 22.55 26.8 22.1 26.4 20.5 26.15 19.45 26.6 19.25 26.25 M11.3 27.05 L10.6 26.25 10.15 26.3 9.75 26.65 8.3 26.5 8.35 27.25 Q9.3 27.9 10.45 27.85 L10.65 27.35 11.4 27.3 11.3 27.05 M6.8 26.9 L6.75 26.8 6.2 26.1 5.1 26.75 5.9 26.95 6.45 27.85 Q7.35 27.65 8.0 26.6 L7.3 26.3 6.8 26.9 M4.8 26.0 L25.65 26.0 25.65 28.05 15.35 28.05 4.8 28.05 4.8 26.0 M25.3 27.7 L25.5 26.5 24.55 26.2 22.8 26.5 22.95 27.6 23.3 27.95 24.0 27.85 24.25 27.4 24.75 27.75 25.3 27.7" fill="#c4c2d3" fill-rule="evenodd" stroke="none"/>
    <path d="M16.5 4.3 L15.65 4.3 16.55 3.35 16.85 3.25 16.5 4.3 M15.1 4.3 L15.1 4.35 15.0 4.3 13.95 3.9 14.45 3.5 Q15.2 3.85 15.1 4.3 M6.85 2.25 L6.9 2.25 7.75 2.85 8.3 2.5 8.85 2.7 9.1 3.55 8.85 3.7 8.75 3.75 8.35 3.3 8.1 3.7 6.7 3.1 6.35 3.85 6.1 4.15 5.65 3.05 5.95 2.75 6.55 2.3 6.85 2.25 M24.2 2.25 L24.85 3.0 24.55 4.2 24.15 4.15 23.75 3.7 24.2 3.35 23.75 2.8 22.6 3.8 22.1 3.0 21.55 3.6 18.3 3.5 17.85 3.85 17.35 3.55 17.4 3.45 17.3 3.15 17.0 2.85 15.95 2.85 15.6 3.15 13.4 3.2 13.65 3.7 13.25 4.2 12.15 3.5 11.6 3.9 9.3 3.75 Q10.9 2.5 12.7 3.1 L13.45 2.25 18.7 2.8 19.05 3.25 19.65 3.3 19.8 2.4 20.5 3.1 21.05 3.15 21.7 2.35 24.2 2.25 M21.85 5.15 L22.95 5.15 22.95 8.8 21.85 8.8 21.85 5.15 M7.85 8.8 L7.8 8.8 7.8 5.15 9.1 5.15 9.1 8.8 7.85 8.8 M6.8 26.9 L7.3 26.3 8.0 26.6 Q7.35 27.65 6.45 27.85 L5.9 26.95 5.1 26.75 6.2 26.1 6.75 26.8 6.8 26.9 M11.3 27.05 L11.4 27.3 10.65 27.35 10.45 27.85 Q9.3 27.9 8.35 27.25 L8.3 26.5 9.75 26.65 10.15 26.3 10.6 26.25 11.3 27.05 M19.25 26.25 L19.45 26.6 20.5 26.15 22.1 26.4 22.55 26.8 20.1 27.65 19.8 27.35 19.25 27.7 19.05 27.6 18.7 27.2 Q17.5 27.8 16.25 27.95 L15.85 27.55 15.35 28.05 14.65 27.8 14.25 27.95 Q13.1 27.95 12.35 27.0 L11.8 26.95 11.95 26.25 12.5 26.05 13.5 27.0 13.85 26.35 15.15 27.2 15.6 26.65 16.35 27.1 16.75 26.5 17.2 26.45 17.5 26.65 19.25 26.25 M25.3 27.7 L24.75 27.75 24.25 27.4 24.0 27.85 23.3 27.95 22.95 27.6 22.8 26.5 24.55 26.2 25.5 26.5 25.3 27.7" fill="#928faf" fill-rule="evenodd" stroke="none"/>
  </g>
</svg>
