<?xml version="1.0" encoding="UTF-8" standalone="no"?>
<svg xmlns:ffdec="https://www.free-decompiler.com/flash" xmlns:xlink="http://www.w3.org/1999/xlink" ffdec:objectType="shape" height="10.75px" width="14.75px" xmlns="http://www.w3.org/2000/svg">
  <g transform="matrix(1.0, 0.0, 0.0, 1.0, 9.4, 9.2)">
    <path d="M5.35 -8.65 L5.1 -7.75 4.25 -6.05 3.25 -4.5 3.2 -4.45 2.9 -3.6 2.1 -1.2 1.8 -0.6 1.4 0.25 0.8 1.3 -1.05 1.15 -1.8 0.4 -2.5 -0.9 -2.7 -1.2 -3.35 -2.5 -3.6 -2.9 Q-5.25 -3.4 -6.8 -4.05 L-8.5 -4.3 -9.15 -4.1 -9.4 -4.0 -9.3 -4.55 -7.3 -4.7 -6.05 -4.3 -3.25 -3.35 -2.15 -3.15 0.6 -3.25 1.75 -3.7 3.0 -4.55 3.2 -4.85 Q4.2 -6.4 4.85 -8.1 L5.0 -8.65 5.05 -9.1 5.1 -9.2 Q5.4 -9.0 5.35 -8.65 M2.55 -3.85 L2.4 -3.75 1.55 -3.3 0.25 -2.8 -0.65 -2.7 -2.9 -2.8 -3.2 -2.85 -3.15 -2.7 -2.55 -1.35 -2.35 -1.05 -2.1 -0.6 -0.6 -0.35 0.95 -0.65 Q1.35 -0.75 1.5 -0.95 L1.8 -1.8 1.9 -2.5 1.95 -2.5 1.9 -1.55 2.6 -3.75 2.55 -3.85 M1.35 -0.5 L0.1 -0.2 -1.1 -0.2 -1.95 -0.4 Q-1.8 0.4 -0.95 1.1 -0.2 1.75 0.75 1.1 L1.45 0.0 1.45 -0.05 1.45 -0.2 1.45 -0.65 1.35 -0.5" fill="#6a713e" fill-rule="evenodd" stroke="none"/>
    <path d="M2.55 -3.85 L2.6 -3.75 1.9 -1.55 1.95 -2.5 1.9 -2.5 1.8 -1.8 1.5 -0.95 Q1.35 -0.75 0.95 -0.65 L-0.6 -0.35 -2.1 -0.6 -2.35 -1.05 -2.55 -1.35 -3.15 -2.7 -3.2 -2.85 -2.9 -2.8 -0.65 -2.7 0.25 -2.8 1.55 -3.3 2.4 -3.75 2.55 -3.85" fill="#ffff99" fill-rule="evenodd" stroke="none"/>
    <path d="M1.35 -0.5 L1.45 -0.65 1.45 -0.2 1.45 -0.05 1.45 0.0 0.75 1.1 Q-0.2 1.75 -0.95 1.1 -1.8 0.4 -1.95 -0.4 L-1.1 -0.2 0.1 -0.2 1.35 -0.5" fill="#b0ba69" fill-rule="evenodd" stroke="none"/>
  </g>
</svg>
