<?xml version="1.0" encoding="UTF-8" standalone="no"?>
<svg xmlns:ffdec="https://www.free-decompiler.com/flash" xmlns:xlink="http://www.w3.org/1999/xlink" ffdec:objectType="shape" height="9.0px" width="15.05px" xmlns="http://www.w3.org/2000/svg">
  <g transform="matrix(1.0, 0.0, 0.0, 1.0, 9.1, 7.55)">
    <path d="M5.4 -7.55 L5.5 -7.45 5.95 -5.3 4.5 -3.2 2.15 -0.4 1.8 0.05 1.45 0.55 Q1.0 1.15 0.3 1.35 L-1.15 1.15 -1.45 0.95 Q-2.0 0.45 -2.65 0.05 L-3.9 -0.65 -4.9 -0.95 -5.55 -1.1 -8.5 -0.95 -8.85 -0.8 -9.0 -0.9 -9.1 -3.1 -8.15 -3.6 -4.95 -3.75 -2.0 -3.3 -0.65 -3.2 Q0.65 -3.2 1.75 -3.8 L3.25 -5.05 4.15 -6.1 5.15 -7.3 5.4 -7.55 M2.95 -4.1 L2.3 -3.65 Q1.3 -2.85 0.1 -2.65 L-2.4 -2.75 -3.7 -3.0 -5.0 -3.3 -0.45 -2.7 0.95 -3.0 2.2 -3.65 2.9 -4.15 3.3 -4.55 3.9 -5.2 3.35 -4.5 2.95 -4.2 2.95 -4.1 M2.3 -1.0 L2.35 -0.95 4.95 -4.6 3.4 -2.05 4.95 -4.1 5.65 -5.3 5.25 -7.1 3.7 -5.15 1.9 -3.65 Q0.85 -3.05 -0.35 -2.95 L-2.6 -3.1 -4.35 -3.35 -7.2 -3.4 -7.25 -3.15 -7.1 -3.0 -7.1 -2.95 -6.95 -1.9 -7.1 -1.7 -7.2 -2.95 -7.35 -3.2 -7.35 -3.35 -7.8 -3.3 -8.6 -3.15 -8.8 -3.0 -8.6 -1.2 -8.35 -1.25 -8.25 -1.25 -6.0 -1.4 -4.45 -1.2 -4.8 -1.3 -6.9 -1.55 -8.1 -1.45 -6.6 -1.65 -4.45 -1.3 -1.45 -0.05 -0.1 -0.05 0.5 -0.15 1.6 -0.55 2.05 -1.05 2.55 -2.05 2.3 -1.0" fill="#333333" fill-rule="evenodd" stroke="none"/>
    <path d="M2.95 -4.1 L2.95 -4.2 3.35 -4.5 3.9 -5.2 3.3 -4.55 2.9 -4.15 2.2 -3.65 0.95 -3.0 -0.45 -2.7 -5.0 -3.3 -3.7 -3.0 -2.4 -2.75 0.1 -2.65 Q1.3 -2.85 2.3 -3.65 L2.95 -4.1 M2.3 -1.0 L2.55 -2.05 2.05 -1.05 1.6 -0.55 0.5 -0.15 -0.1 -0.05 -1.45 -0.05 -4.45 -1.3 -6.6 -1.65 -8.1 -1.45 -6.9 -1.55 -4.8 -1.3 -4.45 -1.2 -6.0 -1.4 -8.25 -1.25 -8.35 -1.25 -8.6 -1.2 -8.8 -3.0 -8.6 -3.15 -7.8 -3.3 -7.35 -3.35 -7.35 -3.2 -7.2 -2.95 -7.1 -1.7 -6.95 -1.9 -7.1 -2.95 -7.1 -3.0 -7.25 -3.15 -7.2 -3.4 -4.35 -3.35 -2.6 -3.1 -0.35 -2.95 Q0.85 -3.05 1.9 -3.65 L3.7 -5.15 5.25 -7.1 5.65 -5.3 4.95 -4.1 3.4 -2.05 4.95 -4.6 2.35 -0.95 2.3 -1.0" fill="#666666" fill-rule="evenodd" stroke="none"/>
  </g>
</svg>
