<?xml version="1.0" encoding="UTF-8" standalone="no"?>
<svg xmlns:ffdec="https://www.free-decompiler.com/flash" xmlns:xlink="http://www.w3.org/1999/xlink" ffdec:objectType="shape" height="6.95px" width="15.25px" xmlns="http://www.w3.org/2000/svg">
  <g transform="matrix(1.0, 0.0, 0.0, 1.0, 9.3, 5.5)">
    <path d="M5.3 -3.35 L5.75 -3.8 5.85 -3.95 5.8 -5.0 5.75 -5.1 5.4 -4.7 5.1 -4.4 Q4.25 -3.65 3.2 -3.15 L2.75 -2.9 2.4 -2.75 2.35 -2.75 2.25 -2.65 1.75 -2.5 1.7 -2.45 0.6 -2.1 -0.5 -1.75 -3.0 -1.25 -3.2 -1.25 -3.3 -1.2 -4.3 -1.05 -4.8 -1.0 -7.1 -0.8 -7.4 -0.85 -8.45 -0.95 -8.5 -0.95 -8.7 -1.0 -8.8 -0.95 -8.95 0.0 -8.95 0.1 -6.7 0.5 -4.8 0.45 -4.35 0.45 -2.0 0.25 -1.25 0.0 -0.2 -0.5 -0.05 -0.55 1.8 -1.15 Q2.5 -1.2 3.15 -1.6 L3.45 -1.85 5.05 -3.1 5.3 -3.35 M3.3 -3.55 L5.0 -4.65 5.75 -5.5 5.95 -5.3 5.9 -3.95 5.45 -3.1 3.6 -1.7 3.2 -1.5 2.15 -0.6 1.4 0.7 0.7 1.4 -1.4 1.15 -2.15 0.8 -2.25 0.8 -4.35 0.7 -4.95 0.7 -5.85 0.7 -8.35 0.55 Q-8.95 0.5 -9.3 0.1 L-9.05 -1.1 -8.95 -1.2 -6.6 -1.15 -4.3 -1.4 -2.65 -1.65 -0.5 -2.05 1.95 -2.9 3.3 -3.55 M0.0 -0.55 L-1.45 0.5 -1.4 0.6 Q-0.05 1.45 1.25 0.8 L1.35 0.5 1.9 -0.7 0.0 -0.55" fill="#55266a" fill-rule="evenodd" stroke="none"/>
    <path d="M3.95 -3.25 L3.7 -2.75 3.3 -2.15 3.0 -1.8 2.9 -1.85 2.25 -1.75 2.2 -1.8 2.15 -1.9 2.25 -1.95 2.9 -2.1 3.2 -2.65 3.7 -3.3 3.95 -3.25 M5.05 -3.1 L4.85 -3.35 4.1 -2.55 4.1 -2.65 4.75 -3.7 4.9 -3.65 5.0 -3.6 5.2 -3.5 5.25 -3.45 5.3 -3.35 5.05 -3.1 M5.8 -5.0 L5.45 -4.2 5.75 -3.9 5.7 -3.85 5.55 -3.8 5.15 -4.1 5.4 -4.7 5.75 -5.1 5.8 -5.0 M2.4 -2.75 L2.45 -2.7 2.5 -2.65 Q2.25 -1.95 1.6 -2.3 L1.7 -2.45 1.75 -2.5 2.2 -2.6 2.25 -2.65 2.35 -2.75 2.4 -2.75 M0.6 -2.1 L1.55 -1.9 1.6 -1.85 0.45 -1.7 1.5 -1.6 1.65 -1.35 1.55 -1.35 0.45 -1.35 0.4 -1.35 Q-0.45 -0.7 -1.35 -0.15 L-1.45 -0.2 0.3 -1.7 -0.1 -1.6 -0.75 -1.3 -1.35 -1.15 -0.5 -1.75 0.6 -2.1 M-3.0 -1.25 L-2.45 -1.1 -1.8 -1.4 -1.75 -1.3 -2.2 -0.85 -2.15 -0.8 Q-2.5 -0.2 -3.2 0.1 L-3.7 0.1 -4.5 -0.2 Q-5.05 -0.4 -5.4 -0.75 L-5.4 -0.8 -5.4 -0.85 -4.4 -0.5 -3.5 -0.2 -3.2 -0.25 -2.55 -0.7 -3.3 -0.95 -3.35 -1.0 -3.3 -1.2 -3.2 -1.25 -3.0 -1.25 M-7.1 -0.8 L-7.9 -0.3 -7.95 -0.3 -8.6 -0.9 -8.5 -0.95 -8.45 -0.95 -7.9 -0.55 -7.4 -0.85 -7.1 -0.8 M0.0 -0.55 L1.9 -0.7 1.35 0.5 1.25 0.8 Q-0.05 1.45 -1.4 0.6 L-1.45 0.5 0.0 -0.55 M-6.75 -0.25 L-6.45 -0.5 -5.2 0.2 -6.4 -0.15 -7.0 0.35 -7.0 0.25 -6.75 -0.25" fill="#7a41ab" fill-rule="evenodd" stroke="none"/>
    <path d="M5.3 -3.35 L5.25 -3.45 5.2 -3.5 5.0 -3.6 4.9 -3.65 4.75 -3.7 4.1 -2.65 4.1 -2.55 4.85 -3.35 5.05 -3.1 3.45 -1.85 3.15 -1.6 Q2.5 -1.2 1.8 -1.15 L-0.05 -0.55 -0.2 -0.5 -1.25 0.0 -2.0 0.25 -4.35 0.45 -4.8 0.45 -6.7 0.5 -8.95 0.1 -8.95 0.0 -8.8 -0.95 -8.7 -1.0 -8.5 -0.95 -8.6 -0.9 -7.95 -0.3 -7.9 -0.3 -7.1 -0.8 -4.8 -1.0 -4.3 -1.05 -3.3 -1.2 -3.35 -1.0 -3.3 -0.95 -2.55 -0.7 -3.2 -0.25 -3.5 -0.2 -4.4 -0.5 -5.4 -0.85 -5.4 -0.8 -5.4 -0.75 Q-5.05 -0.4 -4.5 -0.2 L-3.7 0.1 -3.2 0.1 Q-2.5 -0.2 -2.15 -0.8 L-2.2 -0.85 -1.75 -1.3 -1.8 -1.4 -2.45 -1.1 -3.0 -1.25 -0.5 -1.75 -1.35 -1.15 -0.75 -1.3 -0.1 -1.6 0.3 -1.7 -1.45 -0.2 -1.35 -0.15 Q-0.45 -0.7 0.4 -1.35 L0.45 -1.35 1.55 -1.35 1.65 -1.35 1.5 -1.6 0.45 -1.7 1.6 -1.85 1.55 -1.9 0.6 -2.1 1.7 -2.45 1.6 -2.3 Q2.25 -1.95 2.5 -2.65 L2.45 -2.7 2.4 -2.75 2.75 -2.9 3.2 -3.15 Q4.25 -3.65 5.1 -4.4 L5.4 -4.7 5.15 -4.1 5.55 -3.8 5.7 -3.85 5.75 -3.9 5.45 -4.2 5.8 -5.0 5.85 -3.95 5.75 -3.8 5.3 -3.35 M3.95 -3.25 L3.7 -3.3 3.2 -2.65 2.9 -2.1 2.25 -1.95 2.15 -1.9 2.2 -1.8 2.25 -1.75 2.9 -1.85 3.0 -1.8 3.3 -2.15 3.7 -2.75 3.95 -3.25 M2.25 -2.65 L2.2 -2.6 1.75 -2.5 2.25 -2.65 M-7.4 -0.85 L-7.9 -0.55 -8.45 -0.95 -7.4 -0.85 M-6.75 -0.25 L-7.0 0.25 -7.0 0.35 -6.4 -0.15 -5.2 0.2 -6.45 -0.5 -6.75 -0.25" fill="#b483d1" fill-rule="evenodd" stroke="none"/>
  </g>
</svg>
