<?xml version="1.0" encoding="UTF-8" standalone="no"?>
<svg xmlns:ffdec="https://www.free-decompiler.com/flash" xmlns:xlink="http://www.w3.org/1999/xlink" ffdec:objectType="shape" height="14.55px" width="33.35px" xmlns="http://www.w3.org/2000/svg">
  <g transform="matrix(1.0, 0.0, 0.0, 1.0, 9.55, 14.45)">
    <path d="M-0.55 -1.4 L0.55 -1.1 0.85 -1.05 1.25 -1.15 1.4 -1.45 1.7 -1.5 2.4 -1.8 2.45 -1.95 2.6 -2.05 4.95 -2.75 5.2 -2.8 6.6 -3.35 6.25 -3.75 10.65 -5.5 11.8 -6.05 12.95 -6.6 13.95 -7.2 14.85 -7.75 16.0 -8.5 17.05 -9.2 18.05 -9.85 18.7 -10.35 19.85 -11.25 20.7 -12.0 21.5 -12.7 Q21.9 -13.1 22.4 -13.35 L22.75 -13.5 21.95 -12.8 21.05 -11.95 19.9 -10.95 18.85 -10.25 16.55 -8.65 13.9 -6.9 10.65 -5.05 10.05 -4.7 9.65 -4.5 9.2 -4.25 6.4 -2.9 3.4 -1.55 2.15 -1.0 0.75 -0.55 Q-0.05 -0.4 -0.7 -0.9 L-1.1 -1.25 -1.1 -1.35 -1.1 -1.4 -0.7 -1.45 -0.55 -1.4" fill="#cccccc" fill-rule="evenodd" stroke="none"/>
    <path d="M-0.55 -1.4 Q-0.3 -1.5 -0.35 -1.75 L-0.45 -1.85 Q-0.7 -1.95 -0.75 -1.7 L-1.25 -1.7 Q-1.4 -2.3 -1.2 -2.9 L-0.9 -2.9 Q-0.9 -2.65 -0.65 -2.75 -0.5 -2.8 -0.5 -2.95 L-0.7 -3.2 -1.05 -3.15 -0.35 -3.5 -0.3 -3.55 0.9 -4.0 2.05 -4.5 6.05 -6.3 12.05 -8.9 18.65 -11.8 19.45 -12.2 20.25 -12.6 21.0 -12.95 22.35 -13.65 23.55 -14.25 22.75 -13.5 22.4 -13.35 Q21.9 -13.1 21.5 -12.7 L20.7 -12.0 19.85 -11.25 18.7 -10.35 18.05 -9.85 17.05 -9.2 16.0 -8.5 14.85 -7.75 13.95 -7.2 12.95 -6.6 11.8 -6.05 10.65 -5.5 6.25 -3.75 6.6 -3.35 5.2 -2.8 4.95 -2.75 2.6 -2.05 2.45 -1.95 2.4 -1.8 1.7 -1.5 1.4 -1.45 1.25 -1.15 0.85 -1.05 0.55 -1.1 -0.55 -1.4" fill="#ffffff" fill-rule="evenodd" stroke="none"/>
    <path d="M5.5 -7.3 L5.55 -7.05 4.95 -6.15 6.3 -6.7 12.15 -9.25 18.85 -12.25 23.8 -14.45 23.6 -14.2 23.35 -13.95 23.2 -13.8 21.75 -12.4 Q21.0 -11.7 20.15 -11.1 L18.95 -10.1 17.3 -8.9 15.1 -7.45 12.65 -6.0 10.15 -4.5 8.15 -3.3 7.35 -2.8 5.3 -1.8 3.15 -0.85 3.05 -0.85 1.95 -0.4 2.1 -0.4 0.25 0.1 -0.75 -0.2 -1.2 -0.55 -1.25 -0.65 -1.9 -1.3 -6.25 -1.1 -6.5 -1.05 -8.3 -0.7 -8.8 -0.5 -9.05 -0.5 -9.0 -0.55 -9.05 -0.75 -9.05 -0.8 -8.4 -1.05 -6.3 -1.5 -2.0 -1.65 -1.85 -1.7 -1.85 -2.8 -1.9 -2.8 -5.85 -3.25 -7.7 -3.75 -8.75 -4.25 -9.55 -4.85 -9.5 -4.9 -9.15 -4.95 -9.1 -4.85 -8.7 -4.55 -7.65 -4.05 -5.85 -3.65 -1.8 -3.2 -1.75 -3.3 -0.45 -4.0 1.0 -4.55 1.35 -4.65 3.95 -5.7 4.1 -5.75 4.95 -6.6 5.4 -7.3 5.5 -7.3 M22.75 -13.5 L23.55 -14.25 22.35 -13.65 21.0 -12.95 20.25 -12.6 19.45 -12.2 18.65 -11.8 12.05 -8.9 6.05 -6.3 2.05 -4.5 0.9 -4.0 -0.3 -3.55 -0.35 -3.5 -1.05 -3.15 -0.7 -3.2 -0.5 -2.95 Q-0.5 -2.8 -0.65 -2.75 -0.9 -2.65 -0.9 -2.9 L-1.2 -2.9 Q-1.4 -2.3 -1.25 -1.7 L-0.75 -1.7 Q-0.7 -1.95 -0.45 -1.85 L-0.35 -1.75 Q-0.3 -1.5 -0.55 -1.4 L-0.7 -1.45 -1.1 -1.4 -1.1 -1.35 -1.1 -1.25 -0.7 -0.9 Q-0.05 -0.4 0.75 -0.55 L2.15 -1.0 3.4 -1.55 6.4 -2.9 9.2 -4.25 9.65 -4.5 10.05 -4.7 10.65 -5.05 13.9 -6.9 16.55 -8.65 18.85 -10.25 19.9 -10.95 21.05 -11.95 21.95 -12.8 22.75 -13.5" fill="#666666" fill-rule="evenodd" stroke="none"/>
  </g>
</svg>
