<?xml version="1.0" encoding="UTF-8" standalone="no"?>
<svg xmlns:ffdec="https://www.free-decompiler.com/flash" xmlns:xlink="http://www.w3.org/1999/xlink" ffdec:objectType="shape" height="14.0px" width="17.7px" xmlns="http://www.w3.org/2000/svg">
  <g transform="matrix(1.0, 0.0, 0.0, 1.0, 10.85, 11.5)">
    <path d="M-9.85 -2.85 L-10.25 -3.3 -10.3 -4.0 -10.25 -4.7 -10.25 -5.4 -10.35 -5.4 -10.85 -7.7 Q-10.55 -8.35 -9.9 -8.2 L-8.9 -8.05 -7.05 -7.95 -6.7 -8.05 Q-2.9 -8.0 0.65 -9.3 L1.15 -9.5 2.15 -9.9 2.5 -10.05 3.85 -10.75 Q4.3 -10.95 4.35 -11.4 L4.35 -11.5 Q4.9 -11.35 5.0 -10.75 L5.15 -9.95 5.4 -9.25 5.45 -8.85 5.55 -8.25 5.65 -7.9 5.75 -7.85 Q6.05 -5.95 6.75 -4.1 L6.8 -3.95 6.85 -3.7 Q6.9 -2.85 6.1 -2.05 L4.65 -0.8 3.5 0.0 1.65 0.6 1.45 0.6 Q0.95 1.7 -0.25 1.7 L-1.1 1.55 Q-3.0 2.65 -5.25 2.5 -7.95 2.25 -9.95 0.45 L-9.85 0.2 Q-9.15 1.05 -8.05 1.25 L-7.75 1.35 -5.2 1.8 -5.8 0.9 -7.55 0.4 Q-7.7 0.35 -7.8 0.25 L-7.9 -0.45 -8.75 -1.5 -7.9 -0.75 -7.8 -1.9 -7.65 -1.9 -6.25 -1.6 -4.85 -1.6 -4.75 0.15 -4.8 0.85 -5.4 0.95 -4.75 1.85 -2.5 1.55 -4.45 -0.55 -4.2 -0.8 -3.95 -1.0 -3.8 -1.1 -3.65 -1.2 -3.35 -1.3 -4.25 -2.15 -4.75 -2.55 -5.25 -2.95 -7.4 -5.0 Q-7.65 -5.3 -8.05 -5.25 L-9.0 -5.3 -9.95 -5.4 -10.0 -5.35 -10.15 -4.95 Q-9.05 -3.8 -7.6 -3.1 L-9.35 -2.4 -9.2 -2.15 -9.55 -2.55 -8.15 -3.2 -9.65 -4.2 -9.85 -4.4 -9.85 -2.85 M4.45 -10.55 L4.3 -10.45 4.15 -10.45 1.35 -9.0 1.4 -8.8 1.85 -7.25 2.65 -7.5 2.25 -8.45 2.35 -8.6 2.4 -8.55 2.75 -7.55 3.45 -7.95 3.15 -9.0 Q3.6 -8.65 3.5 -8.0 L4.25 -8.35 4.15 -9.3 4.25 -9.25 4.5 -8.55 4.7 -8.6 4.75 -8.6 4.45 -10.55 M1.0 -8.65 Q0.55 -8.9 0.15 -8.65 L-0.25 -8.45 -1.35 -8.2 Q-0.95 -7.35 -0.95 -6.35 L1.5 -7.2 1.1 -8.7 1.0 -8.65 M1.7 -6.8 L1.65 -6.7 0.35 -6.25 0.6 -4.65 0.7 -1.45 0.75 -1.45 0.75 -1.2 1.25 -0.95 2.15 -2.4 2.25 -2.45 2.3 -3.65 2.1 -6.7 2.35 -6.0 Q2.65 -4.4 2.5 -2.75 L3.5 -4.25 3.25 -3.8 1.45 -0.9 1.45 0.25 1.7 0.35 1.8 0.4 3.75 -0.35 4.3 -2.25 3.6 -2.0 5.0 -8.3 4.65 -8.05 Q3.25 -7.2 1.7 -6.8 M5.0 -1.85 L4.9 -1.9 4.85 -1.9 4.45 -3.55 4.7 -3.75 5.3 -4.35 5.85 -4.9 5.2 -8.4 4.45 -5.3 4.5 -5.45 3.8 -2.35 4.2 -2.5 4.5 -2.45 4.55 -2.2 4.5 -1.8 4.4 -1.45 4.2 -0.6 5.0 -1.3 5.05 -1.35 5.95 -2.25 5.95 -2.3 6.05 -2.75 6.0 -2.8 5.5 -2.25 5.0 -1.85 M5.95 -2.3 L6.25 -2.65 6.65 -3.25 6.65 -3.35 6.55 -3.35 5.95 -2.3 M0.75 -0.85 L0.65 -0.85 -1.55 -1.9 0.55 -1.2 0.55 -1.85 0.3 -5.65 0.25 -6.25 -2.3 -5.5 -1.05 -4.9 -1.05 -4.8 -2.55 -5.5 -3.05 -5.45 -6.4 -5.3 -7.45 -5.2 -5.9 -3.8 -3.1 -1.6 -3.05 -1.55 -2.9 -1.35 -4.05 -0.6 -2.5 1.25 -2.45 1.25 -2.35 1.35 -1.9 1.25 -1.8 0.5 -1.65 0.85 Q-1.3 1.25 -0.75 1.35 L-0.6 1.35 -0.35 1.35 0.6 1.05 0.9 0.75 1.05 0.4 1.1 -0.25 0.8 -0.85 0.75 -0.85 M5.05 -2.25 L5.55 -2.55 5.95 -2.95 6.4 -3.55 5.9 -4.6 4.65 -3.45 5.05 -2.25 M-10.35 -7.4 L-10.0 -6.0 -9.2 -5.75 -9.6 -7.3 -9.05 -5.75 -5.9 -5.8 -6.4 -7.25 -6.3 -7.25 -5.85 -5.8 -4.35 -5.9 -4.7 -7.2 -4.6 -7.2 -4.15 -5.9 -2.65 -6.0 -2.95 -7.4 -2.8 -7.35 -2.45 -6.05 -1.4 -6.25 -1.7 -8.1 -4.7 -7.65 -6.8 -7.6 -9.55 -7.6 -10.25 -7.75 -10.15 -7.55 -10.35 -7.4 M-8.1 -7.35 L-7.6 -5.8 -7.75 -5.9 -8.2 -7.35 -8.1 -7.35 M-5.45 -3.85 L-2.6 -3.05 -1.8 -2.9 -1.05 -2.55 -1.05 -2.45 -3.7 -3.0 -5.1 -3.55 -5.45 -3.85 M-5.0 -1.35 L-7.75 -1.8 -7.7 0.15 Q-7.05 0.7 -6.15 0.75 L-5.05 0.7 -5.0 -1.35" fill="#51366d" fill-rule="evenodd" stroke="none"/>
    <path d="M-9.85 0.2 L-9.65 -0.65 -9.65 -2.1 -9.85 -2.85 -9.85 -4.4 -9.65 -4.2 -8.15 -3.2 -9.55 -2.55 -9.2 -2.15 -8.8 -1.55 -8.75 -1.5 -7.9 -0.45 -7.8 0.25 Q-7.7 0.35 -7.55 0.4 L-5.8 0.9 -5.2 1.8 -7.75 1.35 -8.05 1.25 Q-9.15 1.05 -9.85 0.2 M4.45 -10.55 L4.75 -8.6 4.7 -8.6 4.5 -8.55 4.25 -9.25 4.15 -9.3 4.25 -8.35 3.5 -8.0 Q3.6 -8.65 3.15 -9.0 L3.45 -7.95 2.75 -7.55 2.4 -8.55 2.35 -8.6 2.25 -8.45 2.65 -7.5 1.85 -7.25 1.4 -8.8 1.35 -9.0 4.15 -10.45 4.3 -10.45 4.45 -10.55 M1.7 -6.8 Q3.25 -7.2 4.65 -8.05 L5.0 -8.3 3.6 -2.0 4.3 -2.25 3.75 -0.35 1.8 0.4 1.7 0.35 1.45 0.25 1.45 -0.9 3.25 -3.8 3.5 -4.25 2.5 -2.75 Q2.65 -4.4 2.35 -6.0 L2.1 -6.7 2.3 -3.65 2.25 -2.45 2.15 -2.4 1.25 -0.95 0.75 -1.2 0.75 -1.45 0.7 -1.45 0.6 -4.65 0.35 -6.25 1.65 -6.7 1.7 -6.8 M5.95 -2.3 L6.55 -3.35 6.65 -3.35 6.65 -3.25 6.25 -2.65 5.95 -2.3 M0.75 -0.85 L0.8 -0.85 1.1 -0.25 1.05 0.4 0.9 0.75 0.6 1.05 -0.35 1.35 -0.6 1.35 -0.75 1.35 Q-1.3 1.25 -1.65 0.85 L-1.8 0.5 -1.9 1.25 -2.35 1.35 -2.45 1.25 -2.5 1.25 -4.05 -0.6 -2.9 -1.35 -3.05 -1.55 -3.1 -1.6 -5.9 -3.8 -7.45 -5.2 -6.4 -5.3 -3.05 -5.45 -2.55 -5.5 -1.05 -4.8 -1.05 -4.9 -2.3 -5.5 0.25 -6.25 0.3 -5.65 0.55 -1.85 0.55 -1.2 -1.55 -1.9 0.65 -0.85 0.75 -0.85 M-5.45 -3.85 L-5.1 -3.55 -3.7 -3.0 -1.05 -2.45 -1.05 -2.55 -1.8 -2.9 -2.6 -3.05 -5.45 -3.85 M-8.1 -7.35 L-8.2 -7.35 -7.75 -5.9 -7.6 -5.8 -8.1 -7.35 M-10.35 -7.4 L-10.15 -7.55 -10.25 -7.75 -9.55 -7.6 -6.8 -7.6 -4.7 -7.65 -1.7 -8.1 -1.4 -6.25 -2.45 -6.05 -2.8 -7.35 -2.95 -7.4 -2.65 -6.0 -4.15 -5.9 -4.6 -7.2 -4.7 -7.2 -4.35 -5.9 -5.85 -5.8 -6.3 -7.25 -6.4 -7.25 -5.9 -5.8 -9.05 -5.75 -9.6 -7.3 -9.2 -5.75 -10.0 -6.0 -10.35 -7.4" fill="#8055aa" fill-rule="evenodd" stroke="none"/>
    <path d="M1.0 -8.65 L1.1 -8.7 1.5 -7.2 -0.95 -6.35 Q-0.95 -7.35 -1.35 -8.2 L-0.25 -8.45 0.15 -8.65 Q0.55 -8.9 1.0 -8.65 M5.05 -2.25 L4.65 -3.45 5.9 -4.6 6.4 -3.55 5.95 -2.95 5.55 -2.55 5.05 -2.25 M-5.0 -1.35 L-5.05 0.7 -6.15 0.75 Q-7.05 0.7 -7.7 0.15 L-7.75 -1.8 -5.0 -1.35" fill="#bfaad5" fill-rule="evenodd" stroke="none"/>
    <path d="M-9.2 -2.15 L-9.35 -2.4 -7.6 -3.1 Q-9.05 -3.8 -10.15 -4.95 L-10.0 -5.35 -9.95 -5.4 -9.0 -5.3 -8.05 -5.25 Q-7.65 -5.3 -7.4 -5.0 L-5.25 -2.95 -4.75 -2.55 -4.25 -2.15 -3.35 -1.3 -3.65 -1.2 -3.8 -1.1 -3.95 -1.0 -4.2 -0.8 -4.45 -0.55 -2.5 1.55 -4.75 1.85 -5.4 0.95 -4.8 0.85 -3.75 1.55 -3.6 1.6 -3.55 1.45 -4.75 0.15 -4.85 -1.6 -6.25 -1.6 -5.4 -1.9 -6.6 -3.1 -7.2 -3.8 Q-7.45 -4.15 -7.8 -4.15 L-6.55 -2.45 -7.65 -1.9 -7.8 -1.9 -7.9 -0.75 -8.75 -1.5 -8.8 -1.55 -9.2 -2.15 M4.7 -3.75 L4.45 -3.55 4.85 -1.9 4.9 -1.9 5.0 -1.85 5.0 -1.3 4.2 -0.6 4.4 -1.45 4.5 -1.8 4.55 -2.2 4.5 -2.45 4.2 -2.5 3.8 -2.35 4.5 -5.45 4.45 -5.3 5.2 -8.4 5.85 -4.9 5.3 -4.35 5.45 -6.25 4.7 -3.75 M5.5 -2.25 L6.0 -2.8 6.05 -2.75 5.95 -2.3 5.95 -2.25 5.05 -1.35 5.5 -2.25" fill="#ffffcc" fill-rule="evenodd" stroke="none"/>
    <path d="M-4.8 0.85 L-4.75 0.15 -3.55 1.45 -3.6 1.6 -3.75 1.55 -4.8 0.85 M-6.25 -1.6 L-7.65 -1.9 -6.55 -2.45 -7.8 -4.15 Q-7.45 -4.15 -7.2 -3.8 L-6.6 -3.1 -5.4 -1.9 -6.25 -1.6 M5.0 -1.85 L5.5 -2.25 5.05 -1.35 5.0 -1.3 5.0 -1.85 M5.3 -4.35 L4.7 -3.75 5.45 -6.25 5.3 -4.35" fill="#ff3399" fill-rule="evenodd" stroke="none"/>
  </g>
</svg>
