<?xml version="1.0" encoding="UTF-8" standalone="no"?>
<svg xmlns:ffdec="https://www.free-decompiler.com/flash" xmlns:xlink="http://www.w3.org/1999/xlink" ffdec:objectType="shape" height="7.4px" width="15.25px" xmlns="http://www.w3.org/2000/svg">
  <g transform="matrix(1.0, 0.0, 0.0, 1.0, 6.85, 4.45)">
    <path d="M0.75 -1.4 L2.1 -1.2 3.15 -1.1 3.3 -1.1 Q3.3 -1.6 3.7 -1.15 L4.75 0.45 5.05 0.95 5.45 1.7 5.55 2.0 5.5 2.1 5.45 2.15 5.4 2.15 5.15 2.2 4.7 2.35 4.0 2.45 3.0 2.65 2.4 2.75 0.2 2.95 -1.2 2.75 -2.85 2.25 Q-3.65 1.95 -4.35 1.45 L-5.25 0.65 -5.35 0.55 -5.95 -0.1 -6.3 -0.6 -6.4 -0.75 -6.45 -0.85 -6.8 -1.45 -6.65 -2.85 Q-6.35 -3.45 -6.45 -4.25 L-6.3 -4.45 -6.05 -4.35 -5.75 -4.05 -5.7 -4.0 -5.2 -3.6 -4.65 -3.25 -4.3 -3.0 -4.05 -2.9 -3.7 -2.7 -2.65 -2.3 -2.25 -2.15 -1.85 -2.05 -0.55 -1.7 0.75 -1.4 M0.2 -0.8 L-2.85 -1.65 -4.3 -2.3 -4.65 -2.5 -5.3 -2.9 -5.35 -2.95 -5.55 -3.1 -5.85 -3.25 -5.9 -3.25 -6.05 -3.35 -6.1 -3.4 -6.6 -1.55 -6.4 -1.15 -6.35 -1.05 -5.9 -0.45 -5.3 0.25 -5.25 0.3 -4.35 1.0 -2.9 1.8 -3.8 1.1 -4.85 0.1 -5.05 -0.15 -6.0 -1.45 -6.1 -1.6 -6.25 -1.8 -6.3 -1.95 -6.2 -1.9 -6.05 -1.65 -5.05 -0.45 -4.95 -0.35 -4.35 0.4 -3.55 1.1 -2.15 2.05 -1.6 2.35 -0.55 2.65 0.4 2.7 1.2 2.5 1.35 2.45 2.3 2.1 3.1 1.85 4.2 1.5 4.4 1.45 4.6 1.4 4.75 1.1 3.95 -0.4 3.45 -0.45 3.25 -0.45 2.45 -0.55 0.2 -0.8 M1.05 -1.1 L0.6 -1.2 -0.15 -1.35 -1.15 -1.6 -2.95 -2.15 -4.05 -2.7 -4.65 -3.0 -5.0 -3.2 -5.2 -3.35 -5.95 -3.95 -6.0 -3.95 -6.05 -3.9 -6.05 -3.85 -6.0 -3.8 -5.85 -3.6 -5.35 -3.2 -5.3 -3.1 -4.65 -2.7 -4.65 -2.65 -4.2 -2.4 -3.85 -2.25 -3.1 -1.95 -2.2 -1.6 -1.6 -1.45 -0.35 -1.1 1.1 -0.85 2.1 -0.7 3.2 -0.6 3.4 -0.55 3.85 -0.55 3.55 -0.8 3.25 -0.95 3.15 -0.95 1.9 -1.05 1.05 -1.1 M7.35 -2.05 L8.25 -3.1 8.3 -3.05 8.4 -2.9 8.35 -2.85 8.3 -0.55 7.8 -1.25 7.5 -1.8 7.35 -2.05 M5.1 1.75 L5.1 1.7 4.95 1.35 Q4.85 1.3 4.7 1.5 L4.25 1.6 4.1 1.65 3.6 1.8 2.6 2.15 1.3 2.65 2.55 2.45 3.3 2.3 4.2 2.05 4.45 1.95 5.0 1.8 5.1 1.75 M8.2 -2.25 L7.8 -1.7 8.15 -1.15 8.25 -1.15 8.25 -2.55 8.15 -2.65 7.7 -2.0 7.75 -1.8 8.2 -2.3 8.2 -2.25" fill="#666666" fill-rule="evenodd" stroke="none"/>
    <path d="M0.2 -0.8 L2.45 -0.55 3.25 -0.45 3.45 -0.45 3.95 -0.4 4.75 1.1 4.6 1.4 4.4 1.45 4.2 1.5 3.1 1.85 2.3 2.1 1.35 2.45 1.2 2.5 0.4 2.7 -0.55 2.65 -1.6 2.35 -2.15 2.05 -3.55 1.1 -4.35 0.4 -4.95 -0.35 -5.05 -0.45 -6.05 -1.65 -6.2 -1.9 -6.3 -1.95 -6.25 -1.8 -6.1 -1.6 -6.0 -1.45 -5.05 -0.15 -4.85 0.1 -3.8 1.1 -2.9 1.8 -4.35 1.0 -5.25 0.3 -5.3 0.25 -5.9 -0.45 -6.35 -1.05 -6.4 -1.15 -6.6 -1.55 -6.1 -3.4 -6.05 -3.35 -5.9 -3.25 -5.85 -3.25 -5.55 -3.1 -5.35 -2.95 -5.3 -2.9 -4.65 -2.5 -4.3 -2.3 -2.85 -1.65 0.2 -0.8 M1.05 -1.1 L1.9 -1.05 3.15 -0.95 3.25 -0.95 3.55 -0.8 3.85 -0.55 3.4 -0.55 3.2 -0.6 2.1 -0.7 1.1 -0.85 -0.35 -1.1 -1.6 -1.45 -2.2 -1.6 -3.1 -1.95 -3.85 -2.25 -4.2 -2.4 -4.65 -2.65 -4.65 -2.7 -5.3 -3.1 -5.35 -3.2 -5.85 -3.6 -6.0 -3.8 -6.05 -3.85 -6.05 -3.9 -6.0 -3.95 -5.95 -3.95 -5.2 -3.35 -5.0 -3.2 -4.65 -3.0 -4.05 -2.7 -2.95 -2.15 -1.15 -1.6 -0.15 -1.35 0.6 -1.2 1.05 -1.1 M8.2 -2.25 L8.2 -2.3 7.75 -1.8 7.7 -2.0 8.15 -2.65 8.25 -2.55 8.25 -1.15 8.15 -1.15 7.8 -1.7 8.2 -2.25 M5.1 1.75 L5.0 1.8 4.45 1.95 4.2 2.05 3.3 2.3 2.55 2.45 1.3 2.65 2.6 2.15 3.6 1.8 4.1 1.65 4.25 1.6 4.7 1.5 Q4.85 1.3 4.95 1.35 L5.1 1.7 5.1 1.75" fill="#ffffff" fill-rule="evenodd" stroke="none"/>
  </g>
</svg>
