<?xml version="1.0" encoding="UTF-8" standalone="no"?>
<svg xmlns:ffdec="https://www.free-decompiler.com/flash" xmlns:xlink="http://www.w3.org/1999/xlink" ffdec:objectType="shape" height="12.45px" width="16.15px" xmlns="http://www.w3.org/2000/svg">
  <g transform="matrix(1.0, 0.0, 0.0, 1.0, 10.35, 10.95)">
    <path d="M5.35 -7.4 L5.4 -7.5 5.35 -7.5 5.2 -8.05 5.2 -8.15 5.05 -8.8 4.85 -9.1 4.85 -9.15 4.8 -9.15 4.2 -8.55 1.2 -6.8 1.3 -5.25 1.4 -3.45 1.3 -3.45 1.25 -3.4 1.2 -3.45 1.15 -3.45 1.25 -5.65 1.05 -6.8 -0.55 -6.4 -0.15 -2.35 -0.25 -2.3 -0.35 -2.5 -1.05 -1.85 -2.25 -0.75 -2.25 -0.8 -1.15 -1.9 -0.35 -2.6 -0.5 -3.9 -0.65 -6.25 -0.7 -6.3 -0.8 -6.3 -6.0 -5.55 Q-7.8 -5.4 -9.5 -5.55 L-9.55 -5.5 -9.55 -5.4 -9.55 -5.35 -9.1 -3.0 -9.05 -2.75 Q-9.2 -2.4 -8.9 -2.4 L-8.1 -2.3 Q-5.7 -2.0 -3.55 -0.75 -2.65 -0.25 -2.1 0.65 L-1.95 0.8 -1.8 0.85 -1.75 0.85 -1.7 0.6 -1.5 0.7 -1.0 1.0 -0.05 1.1 Q1.35 0.7 1.25 -0.85 L1.85 -1.65 2.25 -2.2 3.15 -3.25 3.4 -3.45 4.1 -4.35 4.15 -4.35 4.55 -5.0 5.25 -6.05 5.5 -6.4 5.45 -6.75 5.45 -7.0 5.35 -7.4 M5.45 -8.3 L5.75 -6.95 5.65 -5.9 4.55 -3.9 Q3.25 -2.05 1.5 -0.6 L1.3 0.4 0.85 1.15 0.45 1.4 Q-0.2 1.65 -0.8 1.4 L-1.45 1.3 Q-2.1 1.25 -2.15 0.7 L-3.05 -0.1 Q-3.95 -0.75 -4.95 -1.15 L-8.1 -2.05 -8.65 -2.1 -8.65 -2.05 -9.25 -2.4 Q-9.35 -4.05 -9.85 -5.45 L-9.95 -5.6 -10.15 -5.9 -10.3 -6.5 -10.15 -7.25 -7.7 -6.9 -4.85 -7.1 -1.65 -7.6 1.25 -8.4 Q2.8 -8.9 3.85 -10.1 L4.6 -10.95 4.9 -10.4 5.45 -8.3 M4.75 -9.5 L4.45 -10.5 4.25 -10.25 3.5 -9.4 3.25 -9.2 Q2.1 -8.45 0.8 -8.05 L0.9 -7.95 1.0 -7.85 1.05 -7.75 1.2 -7.0 2.0 -7.3 1.9 -7.9 2.0 -7.9 2.1 -7.35 2.95 -7.8 2.85 -8.35 2.9 -8.4 2.95 -8.4 3.1 -7.95 3.15 -7.95 3.8 -8.4 3.7 -8.95 3.8 -8.95 3.95 -8.5 4.0 -8.5 4.45 -8.95 4.3 -9.5 4.35 -9.55 4.4 -9.55 4.6 -9.2 4.75 -9.5 M0.65 -7.95 L0.7 -8.05 0.65 -8.0 -0.95 -7.55 -0.6 -6.5 0.8 -6.85 0.65 -7.95 M4.55 -4.65 L4.45 -4.5 3.35 -3.2 2.1 -1.75 1.5 -1.0 1.35 -0.8 1.45 -0.9 1.95 -1.3 4.25 -3.85 5.55 -6.25 5.4 -6.15 5.2 -5.85 5.3 -5.95 4.55 -4.65 M-0.85 -1.7 L-0.1 -2.35 -0.05 -2.35 -0.1 -2.3 1.2 -3.3 0.75 -2.8 0.4 -2.55 -0.35 -1.95 -0.35 -1.9 -1.85 -0.25 -2.05 0.0 -1.8 0.2 -1.7 0.45 -2.1 0.0 Q-2.7 -0.65 -3.45 -1.1 L-3.95 -1.45 -4.4 -1.65 -6.15 -2.3 -6.85 -2.45 -6.85 -2.5 -6.9 -2.5 -8.15 -2.65 -8.8 -2.8 -8.65 -2.85 -8.55 -2.85 -8.2 -2.8 -8.2 -2.95 -8.1 -3.15 -8.15 -3.35 -8.15 -4.0 -8.15 -5.25 -8.1 -5.3 -8.0 -5.3 -7.95 -5.25 -7.85 -4.25 -7.85 -3.65 -7.95 -2.9 -7.95 -2.7 -7.1 -2.65 -6.85 -2.65 -6.85 -2.6 -6.8 -2.6 -5.95 -2.3 -4.55 -1.85 -3.7 -1.4 -2.45 -0.5 -2.2 -0.2 -1.75 -0.7 -1.1 -1.4 -0.85 -1.7 M-7.55 -5.65 L-5.45 -5.8 -5.05 -5.85 -5.15 -6.0 -5.2 -6.05 -5.25 -6.15 -5.25 -6.2 -5.25 -6.45 -5.0 -5.85 -3.85 -6.0 -4.0 -6.3 -4.1 -6.8 -4.0 -6.8 -3.85 -6.25 -3.75 -6.05 -3.85 -6.0 -1.45 -6.35 -1.5 -6.45 -1.55 -6.55 -1.55 -6.65 -1.6 -6.75 -1.55 -7.1 -1.45 -7.1 -1.45 -7.05 -1.45 -6.95 -1.45 -6.8 -1.4 -6.7 -1.3 -6.4 -0.9 -6.45 -0.95 -6.75 -1.05 -7.25 -1.1 -7.55 Q-4.55 -6.75 -8.05 -6.6 L-9.2 -6.7 -9.85 -6.9 -9.9 -6.9 -9.9 -6.85 -9.8 -6.15 Q-9.7 -5.55 -9.0 -5.75 L-9.15 -6.5 -9.1 -6.55 -9.05 -6.55 -8.95 -6.35 -8.85 -5.95 -8.8 -5.7 -7.7 -5.65 -7.75 -5.85 -7.85 -6.25 -7.9 -6.45 -7.8 -6.45 -7.55 -5.7 -7.65 -5.65 -7.55 -5.65 M-2.85 -6.8 L-2.8 -6.8 -2.65 -6.2 -2.75 -6.2 -2.85 -6.8 M-6.45 -5.8 L-6.55 -5.7 -6.75 -6.35 -6.5 -5.95 -6.45 -5.8" fill="#313566" fill-rule="evenodd" stroke="none"/>
    <path d="M5.35 -7.4 L5.45 -7.0 5.45 -6.75 5.35 -6.35 5.2 -6.65 4.8 -6.85 Q3.45 -6.75 2.9 -5.35 L2.95 -5.25 3.45 -5.4 3.6 -5.35 Q4.3 -4.4 3.5 -3.65 3.2 -4.0 2.75 -3.95 1.3 -3.95 1.0 -2.3 L1.15 -2.3 1.5 -2.5 1.8 -2.45 1.85 -2.35 1.85 -1.65 1.25 -0.85 Q1.35 0.7 -0.05 1.1 L-1.0 1.0 -1.5 0.7 -1.85 -0.25 -0.35 -1.9 -0.35 -1.95 0.4 -2.55 0.75 -2.8 1.2 -3.3 -0.1 -2.3 -0.05 -2.35 -0.1 -2.35 -0.85 -1.7 -1.05 -1.85 -0.35 -2.5 -0.25 -2.3 -0.15 -2.35 -0.55 -6.4 1.05 -6.8 1.25 -5.65 1.15 -3.45 1.2 -3.45 1.25 -3.4 1.3 -3.45 1.4 -3.45 1.3 -5.25 1.2 -6.8 4.2 -8.55 4.8 -9.15 4.85 -9.15 4.85 -9.1 5.05 -8.8 5.2 -8.15 5.0 -8.05 5.0 -8.0 4.85 -7.75 Q5.0 -7.45 5.35 -7.4 M-9.1 -3.0 L-9.55 -5.35 -9.55 -5.4 -9.55 -5.5 -9.5 -5.55 Q-7.8 -5.4 -6.0 -5.55 L-0.8 -6.3 -0.7 -6.3 -0.65 -6.25 -0.5 -3.9 -0.35 -2.6 -1.15 -1.9 -3.15 -1.85 Q-3.65 -1.55 -3.95 -2.0 L-3.75 -2.75 Q-3.45 -3.15 -3.0 -2.95 L-2.9 -2.95 -2.85 -3.05 Q-3.6 -4.0 -4.7 -3.6 L-5.25 -3.1 -5.8 -2.6 Q-6.2 -2.5 -6.35 -2.85 -6.85 -3.8 -5.75 -4.05 L-5.75 -4.1 -5.95 -4.25 Q-6.95 -4.8 -7.85 -4.25 L-7.95 -5.25 -8.0 -5.3 -8.1 -5.3 -8.15 -5.25 -8.15 -4.0 -8.45 -3.65 -8.65 -3.2 -9.1 -3.0 M4.75 -9.5 L4.6 -9.2 4.4 -9.55 4.35 -9.55 4.3 -9.5 4.45 -8.95 4.0 -8.5 3.95 -8.5 3.8 -8.95 3.7 -8.95 3.8 -8.4 3.15 -7.95 3.1 -7.95 2.95 -8.4 2.9 -8.4 2.85 -8.35 2.95 -7.8 2.1 -7.35 2.0 -7.9 1.9 -7.9 2.0 -7.3 1.2 -7.0 1.05 -7.75 1.0 -7.85 0.9 -7.95 0.8 -8.05 Q2.1 -8.45 3.25 -9.2 L3.5 -9.4 4.25 -10.25 4.45 -10.5 4.75 -9.5 M1.45 -0.9 L1.35 -0.8 1.5 -1.0 1.45 -0.9 M-7.55 -5.7 L-7.8 -6.45 -7.9 -6.45 -7.85 -6.25 -7.75 -5.85 -7.7 -5.65 -8.8 -5.7 -8.85 -5.95 -8.95 -6.35 -9.05 -6.55 -9.1 -6.55 -9.15 -6.5 -9.0 -5.75 Q-9.7 -5.55 -9.8 -6.15 L-9.9 -6.85 -9.9 -6.9 -9.85 -6.9 -9.2 -6.7 -8.05 -6.6 Q-4.55 -6.75 -1.1 -7.55 L-1.05 -7.25 -0.95 -6.75 -0.9 -6.45 -1.3 -6.4 -1.4 -6.7 -1.45 -6.8 -1.45 -6.95 -1.45 -7.05 -1.45 -7.1 -1.55 -7.1 -1.6 -6.75 -1.55 -6.65 -1.55 -6.55 -1.5 -6.45 -1.45 -6.35 -3.85 -6.0 -3.75 -6.05 -3.85 -6.25 -4.0 -6.8 -4.1 -6.8 -4.0 -6.3 -3.85 -6.0 -5.0 -5.85 -5.25 -6.45 -5.25 -6.2 -5.25 -6.15 -5.2 -6.05 -5.15 -6.0 -5.05 -5.85 -5.45 -5.8 -7.55 -5.65 -7.55 -5.7 M-6.45 -5.8 L-6.5 -5.95 -6.75 -6.35 -6.55 -5.7 -6.45 -5.8 M-2.85 -6.8 L-2.75 -6.2 -2.65 -6.2 -2.8 -6.8 -2.85 -6.8 M-1.75 -0.7 L-1.65 -0.9 -1.1 -1.4 -1.75 -0.7" fill="#8d9bc7" fill-rule="evenodd" stroke="none"/>
    <path d="M0.65 -8.0 L0.65 -7.95 0.8 -6.85 -0.6 -6.5 -0.95 -7.55 0.65 -8.0" fill="#cdd5e7" fill-rule="evenodd" stroke="none"/>
    <path d="M5.2 -8.15 L5.2 -8.05 5.35 -7.5 5.4 -7.5 5.35 -7.4 Q5.0 -7.45 4.85 -7.75 L5.0 -8.0 5.0 -8.05 5.2 -8.15 M5.45 -6.75 L5.5 -6.4 5.25 -6.05 5.05 -5.95 4.55 -6.35 Q4.0 -6.3 3.6 -5.9 L3.65 -5.85 3.65 -5.8 Q4.4 -5.8 4.55 -5.0 L4.15 -4.35 4.1 -4.35 3.4 -3.45 3.15 -3.25 Q2.35 -3.75 1.8 -3.05 L1.85 -2.95 1.95 -2.9 2.05 -2.8 2.25 -2.2 1.85 -1.65 1.85 -2.35 1.8 -2.45 1.5 -2.5 1.15 -2.3 1.0 -2.3 Q1.3 -3.95 2.75 -3.95 3.2 -4.0 3.5 -3.65 4.3 -4.4 3.6 -5.35 L3.45 -5.4 2.95 -5.25 2.9 -5.35 Q3.45 -6.75 4.8 -6.85 L5.2 -6.65 5.35 -6.35 5.45 -6.75 M-1.5 0.7 L-1.7 0.6 -1.75 0.85 -1.8 0.85 -1.8 0.8 -2.1 0.0 -1.7 0.45 -1.8 0.2 -2.05 0.0 -1.85 -0.25 -1.5 0.7 M-9.05 -2.75 L-9.1 -3.0 -8.65 -3.2 -8.45 -3.65 -8.15 -4.0 -8.15 -3.35 -8.25 -3.15 -8.4 -2.95 -8.55 -2.85 -8.65 -2.85 -8.8 -2.8 -9.05 -2.75 M-1.15 -1.9 L-2.25 -0.8 -2.25 -0.75 -1.05 -1.85 -0.85 -1.7 -1.1 -1.4 -1.65 -0.9 -1.75 -0.7 -2.2 -0.2 Q-2.45 -0.85 -2.05 -1.35 L-1.8 -1.6 -1.85 -1.7 -3.7 -1.4 -4.55 -1.85 -4.5 -2.2 Q-4.45 -2.75 -4.0 -3.05 L-4.0 -3.2 -4.25 -3.15 -5.95 -2.3 -6.8 -2.6 -6.85 -2.65 -7.1 -2.65 -7.2 -2.9 Q-7.35 -3.45 -6.95 -3.85 L-7.0 -3.95 -7.15 -3.95 -7.85 -3.65 -7.85 -4.25 Q-6.95 -4.8 -5.95 -4.25 L-5.75 -4.1 -5.75 -4.05 Q-6.85 -3.8 -6.35 -2.85 -6.2 -2.5 -5.8 -2.6 L-5.25 -3.1 -4.7 -3.6 Q-3.6 -4.0 -2.85 -3.05 L-2.9 -2.95 -3.0 -2.95 Q-3.45 -3.15 -3.75 -2.75 L-3.95 -2.0 Q-3.65 -1.55 -3.15 -1.85 L-1.15 -1.9 M3.35 -3.2 L4.45 -4.5 4.55 -4.65 4.5 -4.5 Q4.15 -3.65 3.35 -3.2 M1.95 -1.3 L1.45 -0.9 1.5 -1.0 2.1 -1.75 1.95 -1.3 M-6.9 -2.5 L-6.85 -2.5 -6.85 -2.45 -6.15 -2.3 -6.25 -2.3 -6.85 -2.45 -6.9 -2.5 M-4.4 -1.65 L-3.95 -1.45 -4.05 -1.45 -4.4 -1.65" fill="#ff9900" fill-rule="evenodd" stroke="none"/>
    <path d="M5.25 -6.05 L4.55 -5.0 Q4.4 -5.8 3.65 -5.8 L3.65 -5.85 3.6 -5.9 Q4.0 -6.3 4.55 -6.35 L5.05 -5.95 5.25 -6.05 M3.15 -3.25 L2.25 -2.2 2.05 -2.8 1.95 -2.9 1.85 -2.95 1.8 -3.05 Q2.35 -3.75 3.15 -3.25 M-1.8 0.85 L-1.95 0.8 -2.1 0.65 Q-2.65 -0.25 -3.55 -0.75 -5.7 -2.0 -8.1 -2.3 L-8.9 -2.4 Q-9.2 -2.4 -9.05 -2.75 L-8.8 -2.8 -8.15 -2.65 -6.9 -2.5 -6.85 -2.45 -6.25 -2.3 -6.15 -2.3 -4.4 -1.65 -4.05 -1.45 -3.95 -1.45 -3.45 -1.1 Q-2.7 -0.65 -2.1 0.0 L-1.8 0.8 -1.8 0.85 M3.35 -3.2 Q4.15 -3.65 4.5 -4.5 L4.55 -4.65 5.3 -5.95 5.2 -5.85 5.4 -6.15 5.55 -6.25 4.25 -3.85 1.95 -1.3 2.1 -1.75 3.35 -3.2 M-7.85 -3.65 L-7.15 -3.95 -7.0 -3.95 -6.95 -3.85 Q-7.35 -3.45 -7.2 -2.9 L-7.1 -2.65 -7.95 -2.7 -7.95 -2.9 -7.85 -3.65 M-5.95 -2.3 L-4.25 -3.15 -4.0 -3.2 -4.0 -3.05 Q-4.45 -2.75 -4.5 -2.2 L-4.55 -1.85 -5.95 -2.3 M-3.7 -1.4 L-1.85 -1.7 -1.8 -1.6 -2.05 -1.35 Q-2.45 -0.85 -2.2 -0.2 L-2.45 -0.5 -3.7 -1.4 M-8.15 -3.35 L-8.1 -3.15 -8.2 -2.95 -8.2 -2.8 -8.55 -2.85 -8.4 -2.95 -8.25 -3.15 -8.15 -3.35" fill="#ffff00" fill-rule="evenodd" stroke="none"/>
  </g>
</svg>
