<?xml version="1.0" encoding="UTF-8" standalone="no"?>
<svg xmlns:ffdec="https://www.free-decompiler.com/flash" xmlns:xlink="http://www.w3.org/1999/xlink" ffdec:objectType="shape" height="8.45px" width="15.1px" xmlns="http://www.w3.org/2000/svg">
  <g transform="matrix(1.0, 0.0, 0.0, 1.0, 9.1, 7.05)">
    <path d="M2.05 -1.0 Q2.15 -1.75 1.85 -2.5 L1.0 -3.8 0.9 -3.8 0.05 -3.6 -0.45 -3.4 -0.7 -3.2 -1.15 -2.4 -1.45 -0.9 -1.3 0.6 -1.2 0.7 Q-0.65 1.3 0.2 1.15 L1.45 0.4 Q2.0 -0.2 2.05 -1.0 M-0.3 -3.6 L0.2 -3.8 0.95 -3.95 1.55 -3.35 1.65 -3.35 2.3 -3.75 3.5 -4.65 4.8 -5.85 5.35 -6.45 5.55 -7.0 5.7 -7.05 5.75 -7.0 6.0 -5.5 5.45 -4.9 4.5 -3.9 3.35 -2.95 2.1 -2.25 2.15 -0.9 Q2.1 -0.15 1.65 0.45 1.05 1.3 0.0 1.4 L-0.55 1.3 -1.1 1.05 -1.5 0.6 -1.45 0.5 -1.5 0.25 -1.65 -1.4 -1.75 -1.45 -2.85 -1.65 -4.0 -1.7 -4.15 -1.7 -4.25 -1.45 -5.8 -1.4 -5.85 -1.6 -6.5 -1.4 -7.5 -1.55 -8.65 -1.45 -8.9 -1.45 -9.0 -1.5 -9.05 -2.7 -9.05 -3.0 -8.45 -3.0 -8.45 -3.05 -8.1 -3.55 -7.75 -3.8 Q-7.15 -3.75 -6.75 -3.35 L-6.5 -3.25 -5.9 -3.0 -5.85 -3.0 -5.85 -3.05 -5.75 -3.15 -4.45 -3.2 -4.35 -3.15 -4.25 -2.9 -4.15 -2.9 -3.15 -2.9 -1.25 -2.7 -0.75 -3.3 -0.3 -3.6 M-8.1 -3.25 L-8.15 -2.6 -7.45 -1.95 -5.9 -1.7 -5.85 -1.8 -5.95 -2.1 -6.0 -2.85 -6.8 -3.15 -7.5 -3.5 -7.7 -3.5 -8.1 -3.25 M-8.8 -2.8 L-8.85 -2.75 -8.75 -1.65 -8.0 -1.75 -8.0 -1.8 -8.45 -2.8 -8.8 -2.8 M1.7 -3.2 L1.7 -3.1 2.1 -2.35 2.25 -2.4 2.4 -2.45 4.35 -3.95 5.9 -5.6 5.75 -6.75 5.65 -6.85 5.4 -6.35 4.8 -5.7 3.45 -4.4 1.7 -3.2 M-5.75 -2.95 L-5.8 -2.9 -5.6 -1.65 -5.5 -1.65 -4.35 -1.7 -4.35 -1.85 -4.45 -3.0 -4.65 -3.1 -5.75 -2.95 M-4.75 -1.9 L-4.65 -2.0 -4.8 -2.8 -4.85 -2.8 -5.35 -2.75 -5.35 -2.65 -5.25 -1.9 -4.75 -1.9 M-5.1 -2.9 L-4.65 -2.9 -4.5 -1.85 -5.45 -1.75 -5.65 -2.85 -5.1 -2.9 M-4.2 -2.75 L-4.1 -1.9 -4.05 -1.9 -2.4 -1.8 -1.6 -1.7 -1.35 -2.5 -2.75 -2.75 -3.8 -2.75 -4.15 -2.75 -4.2 -2.75" fill="#3a3832" fill-rule="evenodd" stroke="none"/>
    <path d="M-1.45 -0.9 L-1.15 -2.4 -0.7 -3.2 -0.45 -3.4 0.05 -3.6 0.9 -3.8 1.0 -3.8 1.85 -2.5 Q2.15 -1.75 2.05 -1.0 L1.75 -0.8 1.65 -0.75 Q1.0 -0.35 0.2 -0.4 L-0.55 -0.5 Q-1.05 -0.55 -1.4 -0.9 L-1.45 -0.9 M-0.3 -3.25 L-0.2 -3.2 0.8 -2.65 1.5 -2.0 1.9 -1.3 1.75 -2.5 1.25 -3.25 0.9 -3.65 -0.3 -3.25 M-5.75 -2.95 L-4.65 -3.1 -4.45 -3.0 -4.35 -1.85 -4.35 -1.7 -5.5 -1.65 -5.6 -1.65 -5.8 -2.9 -5.75 -2.95 M-5.35 -2.65 L-5.35 -2.75 -4.85 -2.8 -4.8 -2.8 -4.65 -2.0 -4.75 -1.9 -4.9 -2.6 -5.35 -2.65 M-5.1 -2.9 L-5.65 -2.85 -5.45 -1.75 -4.5 -1.85 -4.65 -2.9 -5.1 -2.9" fill="#9f9c8e" fill-rule="evenodd" stroke="none"/>
    <path d="M-0.3 -3.25 L0.9 -3.65 1.25 -3.25 1.75 -2.5 1.9 -1.3 1.5 -2.0 0.8 -2.65 -0.2 -3.2 -0.3 -3.25" fill="#ffffff" fill-rule="evenodd" stroke="none"/>
    <path d="M1.7 -3.2 L3.45 -4.4 4.8 -5.7 5.4 -6.35 5.65 -6.85 5.75 -6.75 5.9 -5.6 4.35 -3.95 2.4 -2.45 2.25 -2.4 2.1 -2.35 1.7 -3.1 1.7 -3.2 M-8.8 -2.8 L-8.45 -2.8 -8.0 -1.8 -8.0 -1.75 -8.75 -1.65 -8.85 -2.75 -8.8 -2.8 M-8.1 -3.25 L-7.7 -3.5 -7.5 -3.5 -6.8 -3.15 -6.0 -2.85 -5.95 -2.1 -5.85 -1.8 -5.9 -1.7 -7.45 -1.95 -8.15 -2.6 -8.1 -3.25 M-5.35 -2.65 L-4.9 -2.6 -4.75 -1.9 -5.25 -1.9 -5.35 -2.65 M-4.2 -2.75 L-4.15 -2.75 -3.8 -2.75 -2.75 -2.75 -1.35 -2.5 -1.6 -1.7 -2.4 -1.8 -4.05 -1.9 -4.1 -1.9 -4.2 -2.75" fill="#d5d0c1" fill-rule="evenodd" stroke="none"/>
    <path d="M2.05 -1.0 Q2.0 -0.2 1.45 0.4 L0.2 1.15 Q-0.65 1.3 -1.2 0.7 L-1.3 0.6 -1.45 -0.9 -1.4 -0.9 Q-1.05 -0.55 -0.55 -0.5 L0.2 -0.4 Q1.0 -0.35 1.65 -0.75 L1.75 -0.8 2.05 -1.0" fill="#797466" fill-rule="evenodd" stroke="none"/>
  </g>
</svg>
