<?xml version="1.0" encoding="UTF-8" standalone="no"?>
<svg xmlns:ffdec="https://www.free-decompiler.com/flash" xmlns:xlink="http://www.w3.org/1999/xlink" ffdec:objectType="shape" height="10.45px" width="15.85px" xmlns="http://www.w3.org/2000/svg">
  <g transform="matrix(1.0, 0.0, 0.0, 1.0, 9.95, 8.75)">
    <path d="M5.4 -6.55 L5.35 -7.3 5.3 -7.35 5.35 -8.1 5.3 -8.2 5.25 -8.3 4.3 -7.45 2.3 -6.25 2.5 -6.3 1.35 -5.9 0.65 -5.7 0.4 -5.85 Q1.3 -6.1 2.15 -6.55 L4.0 -7.55 4.75 -8.1 5.35 -8.75 5.4 -8.7 5.7 -8.15 5.7 -7.75 5.7 -7.4 5.6 -7.25 5.65 -7.1 5.7 -6.95 5.7 -6.8 5.85 -5.6 5.9 -4.1 5.9 -3.85 5.9 -2.45 4.65 -1.35 3.4 -0.35 2.05 0.55 0.75 1.3 0.5 1.35 0.5 1.25 -0.55 1.45 -1.0 1.35 -1.05 1.45 -1.1 1.55 -1.2 1.6 Q-2.2 1.8 -3.2 1.6 L-5.3 1.0 -7.25 0.45 -7.8 0.35 -8.1 -0.8 -8.8 0.3 -9.8 0.1 -9.55 -0.7 -9.5 -0.75 -9.95 -5.35 -9.8 -6.1 -9.2 -5.95 -8.05 -5.6 -6.35 -5.35 -4.5 -5.3 -2.6 -5.35 -0.7 -5.6 -0.25 -5.7 -0.2 -5.7 0.25 -5.8 0.3 -5.8 0.0 -5.55 0.0 -5.1 -0.15 -4.8 -1.55 -4.5 -2.8 -4.35 -4.65 -4.4 -5.1 -4.45 -6.55 -3.75 Q-6.85 -3.55 -7.15 -3.5 L-7.45 -3.55 -6.85 -3.85 -5.45 -4.45 -6.1 -4.45 -7.65 -4.55 -8.0 -4.65 -8.1 -4.7 -7.9 -4.15 -7.9 -4.0 -8.05 -4.0 -8.25 -4.3 -8.25 -4.75 -8.25 -5.1 -8.2 -5.15 -8.05 -4.8 -7.25 -4.7 -7.35 -4.9 -7.25 -5.0 -7.05 -4.7 -6.25 -4.75 -7.8 -5.25 -8.1 -5.3 -9.05 -5.6 -9.4 -5.75 -9.3 -5.15 -9.2 -4.8 -9.25 -3.45 -9.25 -2.5 -9.2 -2.05 -9.2 -0.65 -9.3 -0.2 -8.8 -0.05 -8.2 -1.3 -8.1 -1.3 -8.2 -1.9 -7.9 -3.7 -7.9 -1.95 -7.75 -0.75 -7.55 -0.2 Q-7.4 0.05 -7.1 0.05 L-6.65 0.25 -5.2 0.65 -4.25 0.9 -2.85 1.15 -1.35 1.45 -1.3 1.1 -1.5 1.0 -0.05 -0.95 0.5 -1.7 0.6 -1.7 0.65 -1.65 0.3 -1.1 -1.2 0.95 -1.15 0.95 0.3 1.0 0.9 0.35 0.85 -1.2 0.65 -1.65 0.5 -2.2 0.3 -3.5 0.3 -4.1 0.4 -4.85 0.45 -4.65 0.5 -4.05 0.5 -3.95 0.6 -4.05 0.65 -4.1 0.7 -3.95 0.5 -3.8 0.55 -3.45 0.65 -2.25 0.7 -2.0 1.4 -1.0 1.75 -0.4 2.6 -1.1 3.75 -2.1 4.05 -2.25 2.9 -1.2 1.85 -0.3 2.05 0.25 2.15 0.15 2.25 0.1 2.8 -0.25 4.0 -1.1 5.5 -2.35 5.65 -2.5 5.55 -3.3 5.4 -6.55 M0.75 -5.2 L0.95 -5.3 1.0 -5.5 1.1 -5.4 1.1 -5.3 2.15 -5.75 2.1 -5.85 2.2 -5.95 2.3 -5.8 3.1 -6.2 3.05 -6.35 3.1 -6.45 3.3 -6.35 3.85 -6.75 3.85 -6.95 3.9 -7.05 4.1 -6.9 4.55 -7.15 4.5 -7.3 4.55 -7.4 4.75 -7.3 4.9 -7.45 5.0 -7.45 5.05 -7.4 4.9 -7.2 4.15 -6.7 3.3 -6.15 2.15 -5.55 0.8 -5.05 0.75 -5.2 M1.1 -4.45 L2.25 -5.4 1.15 -4.35 1.1 -4.45 M2.95 -3.95 L4.4 -5.35 3.25 -4.0 2.55 -3.25 1.65 -2.4 1.05 -1.9 0.95 -2.05 1.25 -2.45 2.15 -3.3 2.95 -3.95 M0.2 -2.55 L0.1 -2.55 -2.7 -3.6 -3.2 -3.75 -3.45 -3.9 -3.0 -3.8 -2.1 -3.5 -0.8 -3.1 Q-0.25 -2.95 0.25 -2.6 L0.2 -2.55 M1.1 0.55 L1.15 0.6 1.15 0.75 1.85 0.35 1.2 -0.8 1.1 0.55 M-5.6 -4.8 L-5.6 -5.1 -5.55 -5.1 -5.5 -5.0 -5.4 -4.75 -4.85 -4.75 -4.9 -5.05 -4.8 -5.0 Q-4.7 -4.85 -4.75 -4.7 L-3.8 -4.7 -3.85 -5.05 -3.75 -4.9 -3.7 -4.7 -2.75 -4.7 -2.75 -4.95 -2.7 -4.9 -2.6 -4.7 -1.65 -4.8 -1.6 -5.0 -1.55 -5.0 -1.55 -4.8 -0.7 -4.95 -0.65 -5.25 -0.55 -5.0 -0.45 -5.1 -0.35 -5.3 -0.55 -5.5 -3.05 -5.15 -4.05 -5.1 -7.1 -5.25 -7.15 -5.25 -7.15 -5.15 Q-6.55 -4.7 -5.75 -4.75 L-5.6 -4.8 M-8.8 -5.4 L-8.7 -5.3 -8.65 -5.15 -8.7 -5.0 -8.8 -4.9 -8.9 -5.0 -8.9 -5.15 -8.9 -5.3 -8.8 -5.4 M-4.45 -0.4 L-3.35 0.0 -1.55 0.75 -1.55 0.85 -1.65 0.9 -3.4 0.1 -4.55 -0.4 -5.6 -0.8 -4.45 -0.4" fill="#313566" fill-rule="evenodd" stroke="none"/>
    <path d="M5.4 -6.55 L5.55 -3.3 2.55 -3.25 3.25 -4.0 3.3 -4.0 3.9 -4.4 4.85 -5.65 5.4 -6.55 M5.65 -2.5 L5.5 -2.35 4.0 -1.1 2.8 -0.25 2.25 0.1 2.15 0.15 2.9 -1.2 4.05 -2.25 3.75 -2.1 2.6 -1.1 1.65 -0.95 1.4 -1.0 0.7 -2.0 0.65 -2.25 1.0 -2.45 1.25 -2.45 0.95 -2.05 1.05 -1.9 1.65 -2.4 5.65 -2.5 M0.55 -3.45 L0.5 -3.8 0.7 -3.95 0.95 -3.45 1.0 -3.4 0.55 -3.45 M0.6 -4.05 L0.5 -3.95 0.5 -4.05 0.6 -4.05 M0.3 -4.1 L0.3 -3.5 -0.05 -3.55 0.1 -4.1 0.3 -4.1 M0.5 -2.2 L0.65 -1.65 0.85 -1.2 0.3 -1.1 0.65 -1.65 0.6 -1.7 0.5 -1.7 -0.05 -0.95 -1.25 -0.5 -2.3 -0.25 -3.35 0.0 -4.45 -0.4 -3.05 -0.9 -1.75 -1.35 -0.95 -1.65 0.5 -2.2 M-2.85 1.15 L-4.25 0.9 -5.2 0.65 -6.65 0.25 -7.1 0.05 -4.55 -0.4 -3.4 0.1 -2.85 1.15 M-7.9 -1.95 L-7.9 -3.7 -8.2 -1.9 -8.85 -1.9 -9.2 -2.05 -9.25 -2.5 -9.25 -3.45 -9.2 -4.8 -8.25 -4.3 -8.05 -4.0 -7.9 -4.0 -7.9 -4.15 -6.85 -3.85 -7.45 -3.55 -7.15 -3.5 Q-6.85 -3.55 -6.55 -3.75 L-3.8 -3.0 -4.3 -2.85 -5.8 -2.35 -7.4 -2.0 -7.9 -1.95 M-5.1 -4.45 L-4.65 -4.4 -2.8 -4.35 -1.55 -4.5 -0.15 -4.8 -0.2 -4.7 -0.6 -4.35 -0.4 -4.25 -0.6 -3.65 -1.7 -3.8 -2.25 -3.85 -5.1 -4.45 M0.65 -5.7 L1.35 -5.9 0.75 -5.4 0.7 -5.65 0.65 -5.7 M1.3 -3.9 L2.55 -3.9 2.95 -3.95 2.15 -3.3 1.25 -3.4 1.35 -3.5 1.4 -3.65 1.3 -3.9 M-5.6 -4.8 L-5.75 -4.75 Q-6.55 -4.7 -7.15 -5.15 L-7.15 -5.25 -7.1 -5.25 -4.05 -5.1 -3.05 -5.15 -0.55 -5.5 -0.35 -5.3 -0.45 -5.1 -0.55 -5.0 -0.65 -5.25 -0.7 -4.95 -1.55 -4.8 -1.55 -5.0 -1.6 -5.0 -1.65 -4.8 -2.6 -4.7 -2.7 -4.9 -2.75 -4.95 -2.75 -4.7 -3.7 -4.7 -3.75 -4.9 -3.85 -5.05 -3.8 -4.7 -4.75 -4.7 Q-4.7 -4.85 -4.8 -5.0 L-4.9 -5.05 -4.85 -4.75 -5.4 -4.75 -5.5 -5.0 -5.55 -5.1 -5.6 -5.1 -5.6 -4.8" fill="#c7e9fa" fill-rule="evenodd" stroke="none"/>
    <path d="M1.35 -5.9 L2.5 -6.3 2.3 -6.25 4.3 -7.45 5.25 -8.3 5.3 -8.2 5.35 -8.1 5.3 -7.35 5.35 -7.3 5.4 -6.55 4.85 -5.65 3.9 -4.4 3.3 -4.0 3.25 -4.0 4.4 -5.35 2.95 -3.95 2.55 -3.9 1.3 -3.9 1.15 -4.35 2.25 -5.4 1.1 -4.45 0.8 -5.05 2.15 -5.55 3.3 -6.15 4.15 -6.7 4.9 -7.2 5.05 -7.4 5.0 -7.45 4.9 -7.45 4.75 -7.3 4.55 -7.4 4.5 -7.3 4.55 -7.15 4.1 -6.9 3.9 -7.05 3.85 -6.95 3.85 -6.75 3.3 -6.35 3.1 -6.45 3.05 -6.35 3.1 -6.2 2.3 -5.8 2.2 -5.95 2.1 -5.85 2.15 -5.75 1.1 -5.3 1.1 -5.4 1.0 -5.5 0.95 -5.3 0.75 -5.2 0.7 -5.25 0.75 -5.4 1.35 -5.9 M5.55 -3.3 L5.65 -2.5 1.65 -2.4 2.55 -3.25 5.55 -3.3 M2.15 0.15 L2.05 0.25 1.85 -0.3 2.9 -1.2 2.15 0.15 M2.6 -1.1 L1.75 -0.4 1.4 -1.0 1.65 -0.95 2.6 -1.1 M0.65 -2.25 L0.55 -3.45 1.0 -3.4 1.25 -3.4 2.15 -3.3 1.25 -2.45 1.0 -2.45 0.65 -2.25 M0.65 -4.1 L0.6 -4.05 0.5 -4.05 0.45 -4.65 0.65 -4.1 M0.4 -4.85 L0.3 -4.1 0.1 -4.1 0.3 -4.95 0.35 -4.95 0.4 -4.85 M0.3 -3.5 L0.5 -2.2 -0.95 -1.65 -1.75 -1.35 -3.05 -0.9 -4.45 -0.4 -5.6 -0.8 -4.55 -0.4 -7.1 0.05 Q-7.4 0.05 -7.55 -0.2 L-7.75 -0.75 -7.9 -1.95 -7.4 -2.0 -5.8 -2.35 -4.3 -2.85 -3.8 -3.0 -6.55 -3.75 -5.1 -4.45 -2.25 -3.85 -1.7 -3.8 -0.6 -3.65 Q-0.75 -3.35 -0.55 -3.1 L-0.4 -3.0 -0.3 -3.0 -0.25 -3.0 -0.05 -3.55 0.3 -3.5 M0.85 -1.2 L0.9 0.35 0.3 1.0 -1.15 0.95 -1.2 0.95 0.3 -1.1 0.85 -1.2 M-0.05 -0.95 L-1.5 1.0 -1.3 1.1 -1.35 1.45 -2.85 1.15 -3.4 0.1 -1.65 0.9 -1.55 0.85 -1.55 0.75 -3.35 0.0 -2.3 -0.25 -1.25 -0.5 -0.05 -0.95 M-8.2 -1.9 L-8.1 -1.3 -8.2 -1.3 -8.8 -0.05 -9.3 -0.2 -9.2 -0.65 -9.2 -2.05 -8.85 -1.9 -8.2 -1.9 M-9.2 -4.8 L-9.3 -5.15 -9.4 -5.75 -9.05 -5.6 -8.1 -5.3 -7.8 -5.25 -6.25 -4.75 -7.05 -4.7 -7.25 -5.0 -7.35 -4.9 -7.25 -4.7 -8.05 -4.8 -8.2 -5.15 -8.25 -5.1 -8.25 -4.75 -8.25 -4.3 -9.2 -4.8 M-7.9 -4.15 L-8.1 -4.7 -8.0 -4.65 -7.65 -4.55 -6.1 -4.45 -5.45 -4.45 -6.85 -3.85 -7.9 -4.15 M0.2 -2.55 L0.25 -2.6 Q-0.25 -2.95 -0.8 -3.1 L-2.1 -3.5 -3.0 -3.8 -3.45 -3.9 -3.2 -3.75 -2.7 -3.6 0.1 -2.55 0.2 -2.55 M1.1 0.55 L1.2 -0.8 1.85 0.35 1.15 0.75 1.15 0.6 1.1 0.55 M-8.8 -5.4 L-8.9 -5.3 -8.9 -5.15 -8.9 -5.0 -8.8 -4.9 -8.7 -5.0 -8.65 -5.15 -8.7 -5.3 -8.8 -5.4 M-5.6 -2.0 L-5.75 -1.95 Q-5.85 -1.5 -5.45 -1.3 L-5.35 -1.3 -5.2 -1.35 Q-5.25 -1.75 -5.55 -1.95 L-5.6 -2.0 M-6.2 -1.45 L-6.6 -1.8 Q-6.95 -1.6 -6.75 -1.25 -6.6 -0.95 -6.25 -1.05 L-6.2 -1.45 M-0.4 -4.25 L-0.6 -4.35 -0.2 -4.7 -0.4 -4.25 M-2.55 -2.05 L-2.35 -2.15 Q-2.35 -2.55 -2.65 -2.7 L-2.8 -2.8 -3.0 -2.7 Q-3.0 -2.25 -2.55 -2.05 M-3.55 -2.65 L-3.7 -2.6 Q-3.8 -2.1 -3.4 -1.85 L-3.1 -1.95 -3.1 -2.2 -3.55 -2.65 M-4.65 -2.25 L-4.8 -2.1 -4.7 -1.8 -4.7 -1.75 -4.4 -1.5 -4.3 -1.55 -4.15 -1.7 -4.15 -1.8 -4.65 -2.25" fill="#85b3d3" fill-rule="evenodd" stroke="none"/>
    <path d="M-6.2 -1.45 L-6.25 -1.05 Q-6.6 -0.95 -6.75 -1.25 -6.95 -1.6 -6.6 -1.8 L-6.2 -1.45 M-5.6 -2.0 L-5.55 -1.95 Q-5.25 -1.75 -5.2 -1.35 L-5.35 -1.3 -5.45 -1.3 Q-5.85 -1.5 -5.75 -1.95 L-5.6 -2.0 M-4.65 -2.25 L-4.15 -1.8 -4.15 -1.7 -4.3 -1.55 -4.4 -1.5 -4.7 -1.75 -4.7 -1.8 -4.8 -2.1 -4.65 -2.25 M-3.55 -2.65 L-3.1 -2.2 -3.1 -1.95 -3.4 -1.85 Q-3.8 -2.1 -3.7 -2.6 L-3.55 -2.65 M-2.55 -2.05 Q-3.0 -2.25 -3.0 -2.7 L-2.8 -2.8 -2.65 -2.7 Q-2.35 -2.55 -2.35 -2.15 L-2.55 -2.05" fill="#3e83a8" fill-rule="evenodd" stroke="none"/>
    <path d="M0.7 -3.95 L0.65 -4.1 0.45 -4.65 0.4 -4.85 0.35 -4.95 0.3 -4.95 0.1 -4.1 -0.05 -3.55 -0.25 -3.0 -0.3 -3.0 -0.4 -3.0 -0.55 -3.1 Q-0.75 -3.35 -0.6 -3.65 L-0.4 -4.25 -0.2 -4.7 -0.15 -4.8 0.0 -5.1 0.0 -5.55 0.3 -5.8 0.4 -5.85 0.65 -5.7 0.7 -5.65 0.75 -5.4 0.7 -5.25 0.75 -5.2 0.8 -5.05 1.1 -4.45 1.15 -4.35 1.3 -3.9 1.4 -3.65 1.35 -3.5 1.25 -3.4 1.0 -3.4 0.95 -3.45 0.7 -3.95" fill="#999999" fill-rule="evenodd" stroke="none"/>
  </g>
</svg>
