<?xml version="1.0" encoding="UTF-8" standalone="no"?>
<svg xmlns:ffdec="https://www.free-decompiler.com/flash" xmlns:xlink="http://www.w3.org/1999/xlink" ffdec:objectType="shape" height="8.2px" width="15.0px" xmlns="http://www.w3.org/2000/svg">
  <g transform="matrix(1.0, 0.0, 0.0, 1.0, 9.05, 6.75)">
    <path d="M5.5 -6.55 L5.25 -6.45 4.8 -6.25 3.8 -5.6 3.3 -5.2 3.2 -5.1 3.65 -4.15 3.7 -4.0 3.95 -4.25 5.6 -5.5 5.5 -6.55 M-2.25 -0.15 L-2.3 -0.65 -1.85 -1.65 -2.25 -1.9 -2.25 -2.05 -3.0 -2.05 -5.2 -1.95 -5.35 -1.9 -8.75 -1.45 -8.85 -1.45 -9.05 -2.85 -9.05 -3.05 -5.55 -3.45 -3.9 -3.5 -1.8 -3.35 -1.7 -3.45 -1.1 -3.35 -0.75 -3.35 -0.65 -3.45 -0.3 -3.75 0.75 -4.7 Q1.25 -5.1 1.8 -5.3 L2.4 -5.45 3.05 -5.25 3.2 -5.4 3.75 -5.75 5.4 -6.7 5.45 -6.75 5.65 -6.65 5.85 -6.25 Q6.05 -5.65 5.8 -5.25 L4.05 -4.0 3.95 -3.9 3.85 -3.8 3.7 -3.6 3.5 -3.3 2.85 -2.35 2.75 -2.2 2.7 -2.15 2.1 -1.15 Q2.2 1.0 0.0 1.45 L-0.4 1.4 -2.05 0.45 -2.15 0.4 -2.25 -0.15 Q-2.05 0.7 -1.95 -0.25 L-1.8 -1.15 -1.75 -1.45 -1.85 -1.35 -1.9 -1.25 -2.15 -0.5 -2.25 -0.15 M1.9 -3.0 L1.8 -3.05 1.55 -3.85 1.6 -4.05 1.65 -3.95 Q1.7 -3.6 1.9 -3.35 2.3 -3.0 2.85 -3.15 L3.25 -3.45 3.45 -4.05 2.95 -5.0 2.05 -5.2 1.6 -5.05 Q0.35 -4.2 -0.75 -3.1 L-0.95 -3.1 -1.2 -3.05 Q-1.8 -2.45 -1.65 -1.6 L-1.65 -1.55 -1.65 -1.5 -1.75 -1.1 Q-2.0 -0.4 -1.75 0.25 L-1.75 0.2 -1.7 0.3 -1.7 0.35 -1.6 0.45 -0.15 0.9 0.65 1.1 1.65 0.3 1.65 -0.8 1.45 -0.7 1.25 -0.55 -0.1 -0.35 -0.3 -0.4 Q-0.85 -0.65 -1.05 -1.25 -1.25 -1.95 -0.95 -2.6 L-1.0 -1.75 -0.7 -0.9 -0.35 -0.6 0.95 -0.7 1.55 -1.1 2.3 -2.0 2.7 -2.75 2.6 -2.85 2.55 -2.75 Q2.2 -2.75 1.95 -3.0 L1.9 -3.0 M-8.8 -1.65 L-5.35 -2.05 -4.6 -2.1 -2.1 -2.2 -1.85 -3.05 -1.8 -3.2 -2.6 -3.3 -3.5 -3.3 -5.5 -3.25 -8.95 -2.85 -8.8 -1.65 M-2.2 -3.15 L-2.15 -3.05 -2.2 -2.95 -2.25 -2.9 -2.4 -2.9 -2.45 -3.0 -2.4 -3.1 -2.3 -3.15 -2.2 -3.15 M-2.35 -2.65 L-2.25 -2.55 -2.3 -2.4 -2.4 -2.35 -2.5 -2.4 -2.6 -2.5 -2.5 -2.6 -2.45 -2.65 -2.35 -2.65 M-1.8 -2.05 L-1.45 -3.05 -1.6 -3.15 -1.95 -2.1 -1.8 -2.05" fill="#454545" fill-rule="evenodd" stroke="none"/>
    <path d="M-1.65 -1.5 L-1.65 -1.55 -1.65 -1.6 Q-1.8 -2.45 -1.2 -3.05 L-0.95 -3.1 -0.75 -3.1 Q0.35 -4.2 1.6 -5.05 L2.05 -5.2 2.95 -5.0 3.45 -4.05 3.25 -3.45 2.85 -3.15 Q2.3 -3.0 1.9 -3.35 1.7 -3.6 1.65 -3.95 L1.6 -4.05 1.55 -3.85 1.8 -3.05 1.9 -3.0 1.85 -2.95 1.65 -2.75 0.35 -1.2 -0.25 -1.1 Q-0.8 -1.25 -1.0 -1.75 L-0.95 -2.6 Q-1.25 -1.95 -1.05 -1.25 -0.85 -0.65 -0.3 -0.4 L-1.25 0.35 Q-1.8 -0.1 -1.7 -1.05 L-1.65 -1.5 M1.25 -0.55 L1.45 -0.7 1.65 -0.8 1.65 0.3 1.35 -0.35 1.25 -0.55 M3.15 -4.05 Q3.15 -4.65 2.6 -4.85 L2.35 -4.95 1.3 -4.75 0.75 -4.3 -0.7 -2.95 Q-0.8 -2.7 -0.5 -2.6 L-0.4 -2.6 1.45 -4.2 1.55 -4.1 2.55 -4.15 Q2.7 -3.75 3.1 -4.0 L3.15 -4.05" fill="#999999" fill-rule="evenodd" stroke="none"/>
    <path d="M5.5 -6.55 L5.6 -5.5 3.95 -4.25 3.7 -4.0 3.65 -4.15 3.2 -5.1 3.3 -5.2 3.8 -5.6 4.8 -6.25 5.25 -6.45 5.5 -6.55 M-2.35 -2.65 L-2.45 -2.65 -2.5 -2.6 -2.6 -2.5 -2.5 -2.4 -2.4 -2.35 -2.3 -2.4 -2.25 -2.55 -2.35 -2.65 M-2.2 -3.15 L-2.3 -3.15 -2.4 -3.1 -2.45 -3.0 -2.4 -2.9 -2.25 -2.9 -2.2 -2.95 -2.15 -3.05 -2.2 -3.15 M-8.8 -1.65 L-8.95 -2.85 -5.5 -3.25 -3.5 -3.3 -2.6 -3.3 -1.8 -3.2 -1.85 -3.05 -2.1 -2.2 -4.6 -2.1 -5.35 -2.05 -8.8 -1.65" fill="#aca488" fill-rule="evenodd" stroke="none"/>
    <path d="M3.15 -4.05 L3.1 -4.0 Q2.7 -3.75 2.55 -4.15 L1.55 -4.1 1.45 -4.2 -0.4 -2.6 -0.5 -2.6 Q-0.8 -2.7 -0.7 -2.95 L0.75 -4.3 1.3 -4.75 2.35 -4.95 2.6 -4.85 Q3.15 -4.65 3.15 -4.05" fill="#ffffff" fill-rule="evenodd" stroke="none"/>
    <path d="M-2.25 -0.15 L-2.15 -0.5 -1.9 -1.25 -1.85 -1.35 -1.75 -1.45 -1.8 -1.15 -1.95 -0.25 Q-2.05 0.7 -2.25 -0.15 M1.9 -3.0 L1.95 -3.0 Q2.2 -2.75 2.55 -2.75 L2.6 -2.85 2.7 -2.75 2.3 -2.0 1.55 -1.1 0.95 -0.7 -0.35 -0.6 -0.7 -0.9 -1.0 -1.75 Q-0.8 -1.25 -0.25 -1.1 L0.35 -1.2 1.65 -2.75 1.85 -2.95 1.9 -3.0 M-0.3 -0.4 L-0.1 -0.35 1.25 -0.55 1.35 -0.35 1.65 0.3 0.65 1.1 -0.15 0.9 -1.6 0.45 -1.7 0.35 -1.7 0.3 -1.75 0.2 -1.75 0.25 Q-2.0 -0.4 -1.75 -1.1 L-1.65 -1.5 -1.7 -1.05 Q-1.8 -0.1 -1.25 0.35 L-0.3 -0.4" fill="#666666" fill-rule="evenodd" stroke="none"/>
  </g>
</svg>
