<?xml version="1.0" encoding="UTF-8" standalone="no"?>
<svg xmlns:ffdec="https://www.free-decompiler.com/flash" xmlns:xlink="http://www.w3.org/1999/xlink" ffdec:objectType="shape" height="8.45px" width="15.1px" xmlns="http://www.w3.org/2000/svg">
  <g transform="matrix(1.0, 0.0, 0.0, 1.0, 9.1, 7.05)">
    <path d="M5.75 -6.75 L5.65 -6.85 5.4 -6.35 4.8 -5.7 3.45 -4.4 1.75 -3.2 1.75 -3.1 2.1 -2.35 2.25 -2.35 2.4 -2.45 4.35 -3.95 5.9 -5.6 5.75 -6.75 M5.55 -7.0 L5.7 -7.05 5.8 -7.0 6.0 -5.5 5.5 -4.9 4.5 -3.9 3.4 -2.95 2.1 -2.2 2.2 -0.85 Q2.15 -0.15 1.7 0.45 1.05 1.3 0.05 1.4 L-0.55 1.35 -1.05 1.05 -1.45 0.6 -1.45 0.55 -1.5 0.3 -1.6 -1.4 -1.7 -1.45 -2.8 -1.65 -3.95 -1.7 -4.1 -1.7 -4.25 -1.45 -5.75 -1.35 -5.85 -1.55 -6.45 -1.35 -7.5 -1.55 -8.65 -1.45 -8.85 -1.4 -9.0 -1.5 -9.05 -2.65 -9.05 -3.0 -8.45 -2.95 -8.4 -3.05 -8.1 -3.55 -7.75 -3.8 Q-7.15 -3.75 -6.7 -3.35 L-6.45 -3.25 -5.85 -3.0 -5.8 -3.0 -5.85 -3.05 -5.75 -3.15 -4.45 -3.2 -4.35 -3.15 -4.25 -2.9 -4.1 -2.9 -3.1 -2.9 -1.2 -2.7 -0.75 -3.3 -0.25 -3.6 0.25 -3.8 1.0 -3.95 1.55 -3.35 1.7 -3.35 2.35 -3.75 3.55 -4.65 4.8 -5.85 5.4 -6.45 5.55 -7.0 M2.05 -1.0 L1.9 -2.5 1.05 -3.8 0.9 -3.8 0.1 -3.6 -0.45 -3.4 -0.65 -3.2 -1.15 -2.4 -1.45 -0.85 -1.25 0.6 -1.2 0.75 Q-0.6 1.3 0.2 1.15 L1.5 0.45 Q2.0 -0.2 2.05 -1.0 M-8.45 -2.75 L-8.8 -2.8 -8.85 -2.75 -8.75 -1.6 -7.95 -1.75 -8.0 -1.8 Q-8.45 -2.2 -8.45 -2.75 M-6.8 -3.15 L-7.5 -3.5 -7.7 -3.5 -8.05 -3.25 -8.1 -2.6 -7.45 -1.9 -5.9 -1.65 -5.8 -1.75 -5.9 -2.1 -5.95 -2.85 -6.8 -3.15 M-4.7 -1.9 L-4.6 -1.95 -4.75 -2.8 -4.8 -2.8 -5.35 -2.75 -5.35 -2.65 -5.25 -1.9 -4.7 -1.9 M-5.75 -2.95 L-5.75 -2.9 -5.6 -1.65 -5.5 -1.6 -4.35 -1.65 -4.3 -1.8 Q-4.3 -2.45 -4.45 -3.0 L-4.6 -3.1 -5.75 -2.95 M-5.6 -2.85 L-5.05 -2.9 -4.65 -2.9 -4.5 -1.8 -5.45 -1.75 -5.6 -2.85 M-4.15 -2.75 L-4.2 -2.75 -4.05 -1.9 -2.35 -1.75 -1.55 -1.65 -1.3 -2.45 -1.3 -2.5 -2.7 -2.75 -3.8 -2.75 -4.15 -2.75" fill="#3a3832" fill-rule="evenodd" stroke="none"/>
    <path d="M5.75 -6.75 L5.9 -5.6 4.35 -3.95 2.4 -2.45 2.25 -2.35 2.1 -2.35 1.75 -3.1 1.75 -3.2 3.45 -4.4 4.8 -5.7 5.4 -6.35 5.65 -6.85 5.75 -6.75 M1.3 -3.25 L1.75 -2.5 1.9 -1.25 1.55 -1.95 0.8 -2.65 -0.2 -3.2 -0.3 -3.25 0.9 -3.65 1.3 -3.25 M-6.8 -3.15 L-5.95 -2.85 -5.9 -2.1 -5.8 -1.75 -5.9 -1.65 -7.45 -1.9 -8.1 -2.6 -8.05 -3.25 -7.7 -3.5 -7.5 -3.5 -6.8 -3.15 M-8.45 -2.75 Q-8.45 -2.2 -8.0 -1.8 L-7.95 -1.75 -8.75 -1.6 -8.85 -2.75 -8.8 -2.8 -8.45 -2.75 M-4.7 -1.9 L-5.25 -1.9 -5.35 -2.65 -4.9 -2.6 -4.7 -1.9 M-4.15 -2.75 L-3.8 -2.75 -2.7 -2.75 -1.3 -2.5 -1.3 -2.45 -1.55 -1.65 -2.35 -1.75 -4.05 -1.9 -4.2 -2.75 -4.15 -2.75" fill="#ffffff" fill-rule="evenodd" stroke="none"/>
    <path d="M-5.35 -2.65 L-5.35 -2.75 -4.8 -2.8 -4.75 -2.8 -4.6 -1.95 -4.7 -1.9 -4.9 -2.6 -5.35 -2.65 M-5.6 -2.85 L-5.45 -1.75 -4.5 -1.8 -4.65 -2.9 -5.05 -2.9 -5.6 -2.85 M-5.75 -2.95 L-4.6 -3.1 -4.45 -3.0 Q-4.3 -2.45 -4.3 -1.8 L-4.35 -1.65 -5.5 -1.6 -5.6 -1.65 -5.75 -2.9 -5.75 -2.95" fill="#cccccc" fill-rule="evenodd" stroke="none"/>
    <path d="M-1.45 -0.85 L-1.15 -2.4 -0.65 -3.2 -0.45 -3.4 0.1 -3.6 0.9 -3.8 1.05 -3.8 1.9 -2.5 2.05 -1.0 1.75 -0.8 1.7 -0.75 Q1.0 -0.35 0.25 -0.35 L-0.5 -0.45 Q-1.05 -0.55 -1.4 -0.85 L-1.45 -0.85 M1.3 -3.25 L0.9 -3.65 -0.3 -3.25 -0.2 -3.2 0.8 -2.65 1.55 -1.95 1.9 -1.25 1.75 -2.5 1.3 -3.25" fill="#999999" fill-rule="evenodd" stroke="none"/>
    <path d="M2.05 -1.0 Q2.0 -0.2 1.5 0.45 L0.2 1.15 Q-0.6 1.3 -1.2 0.75 L-1.25 0.6 -1.45 -0.85 -1.4 -0.85 Q-1.05 -0.55 -0.5 -0.45 L0.25 -0.35 Q1.0 -0.35 1.7 -0.75 L1.75 -0.8 2.05 -1.0" fill="#666666" fill-rule="evenodd" stroke="none"/>
  </g>
</svg>
