<?xml version="1.0" encoding="UTF-8" standalone="no"?>
<svg xmlns:ffdec="https://www.free-decompiler.com/flash" xmlns:xlink="http://www.w3.org/1999/xlink" ffdec:objectType="shape" height="8.95px" width="15.0px" xmlns="http://www.w3.org/2000/svg">
  <g transform="matrix(1.0, 0.0, 0.0, 1.0, 8.85, 7.05)">
    <path d="M-0.5 -3.1 L-0.4 -3.05 -0.35 -2.95 -0.4 -2.85 -0.5 -2.8 -0.6 -2.85 -0.65 -2.95 -0.6 -3.05 -0.5 -3.1 M1.55 -3.5 L1.6 -3.65 1.65 -3.7 1.8 -3.65 1.75 -3.45 1.6 -3.5 1.55 -3.5 M2.1 -2.9 L2.15 -2.95 2.35 -2.95 2.35 -2.9 2.35 -2.75 2.15 -2.75 2.1 -2.9 M2.65 -1.85 L2.5 -1.95 2.6 -2.1 2.7 -2.0 2.65 -1.85 M2.9 -2.85 L2.85 -2.8 2.75 -2.75 2.65 -2.95 2.75 -3.05 2.85 -3.05 2.9 -3.0 2.9 -2.85 M2.5 -3.85 L2.5 -3.7 2.25 -3.7 2.3 -3.9 2.35 -3.95 2.4 -3.9 2.5 -3.9 2.5 -3.85 M5.45 -6.2 L5.5 -6.3 5.6 -6.35 5.7 -6.3 5.7 -6.2 5.7 -6.1 5.6 -6.05 5.5 -6.1 5.45 -6.2 M5.9 -5.65 L5.85 -5.5 5.7 -5.5 5.65 -5.7 5.75 -5.75 5.85 -5.7 5.9 -5.65 M4.5 -4.7 L4.6 -4.65 4.65 -4.55 4.6 -4.4 4.5 -4.35 4.4 -4.4 4.35 -4.55 4.4 -4.65 4.5 -4.7 M4.1 -5.05 L4.15 -5.15 4.25 -5.2 4.35 -5.15 4.4 -5.05 4.35 -4.95 4.25 -4.95 4.15 -4.95 4.1 -5.05 M-1.2 -1.2 L-1.1 -1.15 -1.05 -1.05 -1.1 -0.95 -1.2 -0.9 -1.3 -0.95 -1.35 -1.05 -1.3 -1.15 -1.2 -1.2 M-1.0 -2.05 L-0.95 -2.15 -0.85 -2.2 -0.75 -2.15 -0.7 -2.05 -0.75 -1.95 -0.85 -1.9 -0.95 -1.95 -1.0 -2.05 M-6.8 -2.45 L-6.7 -2.4 -6.65 -2.3 -6.7 -2.25 -6.8 -2.2 -6.85 -2.25 -6.9 -2.3 -6.85 -2.4 -6.8 -2.45 M-1.95 -2.7 L-1.9 -2.8 -1.8 -2.9 -1.65 -2.8 -1.6 -2.7 -1.65 -2.6 -1.8 -2.55 -1.9 -2.6 -1.95 -2.7 M-4.55 -2.6 L-4.45 -2.55 -4.4 -2.4 -4.45 -2.3 Q-4.45 -2.25 -4.55 -2.25 L-4.65 -2.3 -4.7 -2.4 -4.65 -2.55 -4.55 -2.6 M-4.45 -1.65 L-4.5 -1.65 -4.6 -1.75 -4.6 -1.85 -4.55 -1.9 -4.35 -1.85 -4.4 -1.65 -4.45 -1.65 M-1.75 -1.9 L-1.7 -1.8 -1.75 -1.65 -1.9 -1.6 -2.0 -1.65 -2.05 -1.8 -2.0 -1.9 -1.9 -1.95 -1.75 -1.9 M-6.65 -1.75 L-6.6 -1.65 -6.65 -1.55 -6.75 -1.5 -6.85 -1.55 -6.9 -1.65 -6.85 -1.75 -6.75 -1.8 -6.65 -1.75" fill="#ffffff" fill-rule="evenodd" stroke="none"/>
    <path d="M-0.5 -3.1 L-0.6 -3.05 -0.65 -2.95 -0.6 -2.85 -0.5 -2.8 -0.4 -2.85 -0.35 -2.95 -0.4 -3.05 -0.5 -3.1 M1.55 -3.5 Q0.7 -3.45 -0.05 -3.0 L0.0 -2.55 0.2 -2.3 1.0 -1.9 1.65 -1.85 2.05 -2.15 2.15 -2.75 2.35 -2.75 2.35 -2.9 2.6 -2.1 2.5 -1.95 2.65 -1.85 2.55 -1.15 2.4 -0.6 1.75 0.35 1.55 0.4 1.4 0.45 0.65 0.55 0.3 0.45 -0.3 0.1 -0.65 -0.2 -1.45 -1.05 -0.8 -3.05 0.45 -3.45 1.75 -3.8 2.35 -2.95 2.15 -2.95 2.1 -2.9 2.05 -3.0 1.75 -3.45 1.8 -3.65 1.65 -3.7 1.6 -3.65 1.55 -3.5 M2.9 -2.85 L2.95 -2.6 2.8 -2.35 2.75 -2.35 2.0 -3.85 2.0 -3.9 2.35 -4.05 2.35 -4.0 2.4 -3.9 2.35 -3.95 2.3 -3.9 2.25 -3.7 2.5 -3.7 2.5 -3.85 2.85 -3.05 2.75 -3.05 2.65 -2.95 2.75 -2.75 2.85 -2.8 2.9 -2.85 M5.45 -6.2 L5.5 -6.1 5.6 -6.05 5.7 -6.1 5.7 -6.2 5.7 -6.3 5.6 -6.35 5.5 -6.3 5.45 -6.2 M5.85 -5.7 L5.75 -5.75 5.65 -5.7 5.7 -5.5 5.85 -5.5 5.9 -5.65 6.0 -5.55 5.65 -5.1 5.55 -5.15 5.2 -6.0 5.7 -6.65 5.85 -5.7 M4.55 -5.45 L4.85 -4.6 3.05 -3.1 2.7 -4.15 4.4 -5.45 4.55 -5.45 M4.1 -5.05 L4.15 -4.95 4.25 -4.95 4.35 -4.95 4.4 -5.05 4.35 -5.15 4.25 -5.2 4.15 -5.15 4.1 -5.05 M4.5 -4.7 L4.4 -4.65 4.35 -4.55 4.4 -4.4 4.5 -4.35 4.6 -4.4 4.65 -4.55 4.6 -4.65 4.5 -4.7 M-1.0 -2.05 L-0.95 -1.95 -0.85 -1.9 -0.75 -1.95 -0.7 -2.05 -0.75 -2.15 -0.85 -2.2 -0.95 -2.15 -1.0 -2.05 M-1.2 -1.2 L-1.3 -1.15 -1.35 -1.05 -1.3 -0.95 -1.2 -0.9 -1.1 -0.95 -1.05 -1.05 -1.1 -1.15 -1.2 -1.2 M-7.65 -2.5 L-6.85 -2.5 -6.35 -2.5 -6.35 -1.4 -6.3 -1.35 -7.5 -1.4 -8.65 -1.35 -8.65 -2.15 -8.6 -2.4 -7.65 -2.5 M-6.8 -2.45 L-6.85 -2.4 -6.9 -2.3 -6.85 -2.25 -6.8 -2.2 -6.7 -2.25 -6.65 -2.3 -6.7 -2.4 -6.8 -2.45 M-4.55 -2.6 L-4.65 -2.55 -4.7 -2.4 -4.65 -2.3 -4.55 -2.25 Q-4.45 -2.25 -4.45 -2.3 L-4.4 -2.4 -4.45 -2.55 -4.55 -2.6 M-1.95 -2.7 L-1.9 -2.6 -1.8 -2.55 -1.65 -2.6 -1.6 -2.7 -1.65 -2.8 -1.8 -2.9 -1.9 -2.8 -1.95 -2.7 M-1.25 -3.1 L-1.05 -3.05 -1.75 -1.15 -2.25 -1.45 -2.05 -3.0 -1.25 -3.1 M-4.5 -1.65 L-4.95 -1.65 -5.05 -2.65 -2.45 -2.85 -2.5 -1.65 -2.55 -1.6 -4.45 -1.65 -4.4 -1.65 -4.35 -1.85 -4.55 -1.9 -4.6 -1.85 -4.6 -1.75 -4.5 -1.65 M-1.75 -1.9 L-1.9 -1.95 -2.0 -1.9 -2.05 -1.8 -2.0 -1.65 -1.9 -1.6 -1.75 -1.65 -1.7 -1.8 -1.75 -1.9 M-6.65 -1.75 L-6.75 -1.8 -6.85 -1.75 -6.9 -1.65 -6.85 -1.55 -6.75 -1.5 -6.65 -1.55 -6.6 -1.65 -6.65 -1.75" fill="#666666" fill-rule="evenodd" stroke="none"/>
    <path d="M-0.9 -3.2 L0.45 -3.6 1.5 -3.95 2.5 -4.35 3.6 -5.0 4.4 -5.55 4.4 -5.85 4.5 -6.05 4.6 -6.25 4.75 -6.4 5.15 -6.3 5.6 -7.0 5.75 -7.05 6.15 -5.45 5.8 -4.9 5.6 -4.55 5.55 -4.45 Q5.4 -4.3 5.25 -4.3 L5.15 -4.25 4.9 -4.35 4.85 -4.3 4.85 -4.35 3.75 -3.2 3.3 -2.8 3.0 -2.25 2.9 -2.0 2.85 -1.85 2.8 -1.7 2.75 -1.1 2.5 -0.15 2.25 0.35 2.05 0.75 1.5 1.4 Q1.05 1.75 0.5 1.85 L-0.5 1.85 -1.1 1.55 -1.5 1.15 -1.65 0.9 -1.7 0.55 -1.75 -0.85 -2.25 -1.2 -2.95 -1.4 -3.8 -1.5 -4.55 -1.45 -4.9 -1.45 -5.25 -1.0 -5.45 -0.9 -5.6 -0.9 -6.15 -1.15 -6.2 -1.2 -7.5 -1.3 -8.85 -1.15 -8.8 -2.55 -8.25 -2.7 -6.5 -2.7 -6.05 -3.15 -5.95 -3.1 -5.55 -3.0 -5.3 -2.9 -5.15 -2.8 -2.65 -3.0 -1.8 -3.15 -0.95 -3.2 -0.9 -3.2 M2.35 -2.95 L1.75 -3.8 0.45 -3.45 -0.8 -3.05 -1.45 -1.05 -0.65 -0.2 -0.3 0.1 0.3 0.45 0.65 0.55 1.4 0.45 1.55 0.4 1.75 0.35 2.4 -0.6 2.55 -1.15 2.65 -1.85 2.7 -2.0 2.6 -2.1 2.35 -2.9 2.35 -2.95 M2.4 -3.9 L2.35 -4.0 2.35 -4.05 2.0 -3.9 2.0 -3.85 2.75 -2.35 2.8 -2.35 2.95 -2.6 2.9 -2.85 2.9 -3.0 2.85 -3.05 2.5 -3.85 2.5 -3.9 2.4 -3.9 M5.05 -6.25 Q4.7 -6.3 4.6 -6.0 L4.55 -5.85 4.6 -5.75 4.7 -5.85 4.9 -6.05 5.05 -6.05 5.1 -6.2 5.05 -6.25 M4.85 -5.95 Q4.75 -5.25 5.2 -4.7 L5.35 -4.65 5.45 -4.75 5.45 -5.0 5.35 -5.45 4.95 -5.9 4.85 -5.95 M5.85 -5.7 L5.7 -6.65 5.2 -6.0 5.55 -5.15 5.65 -5.1 6.0 -5.55 5.9 -5.65 5.85 -5.7 M4.55 -5.45 L4.4 -5.45 2.7 -4.15 3.05 -3.1 4.85 -4.6 4.55 -5.45 M-1.2 -0.3 L-1.35 -0.35 -1.45 -0.3 -1.5 -0.15 -1.45 -0.05 -1.35 0.0 -1.2 -0.05 -1.15 -0.15 -1.2 -0.3 M-1.05 0.85 L-1.1 0.75 -1.2 0.7 -1.35 0.75 -1.4 0.85 -1.35 0.95 -1.2 1.05 -1.1 0.95 -1.05 0.85 M-0.75 1.7 L-0.65 1.65 -0.6 1.55 -0.65 1.4 -0.75 1.35 -0.85 1.4 -0.9 1.55 -0.85 1.65 -0.75 1.7 M-7.65 -2.5 L-8.6 -2.4 -8.65 -2.15 -8.65 -1.35 -7.5 -1.4 -6.3 -1.35 -6.35 -1.4 -6.35 -2.5 -6.85 -2.5 -7.65 -2.5 M-5.8 -2.7 L-5.9 -2.65 -6.1 -2.5 -6.15 -1.85 -6.05 -1.55 -5.6 -1.25 -5.35 -1.4 -5.25 -1.55 Q-5.1 -1.85 -5.2 -2.2 L-5.55 -2.65 -5.8 -2.7 M-6.15 -2.65 L-5.85 -2.75 -5.6 -2.7 -5.5 -2.8 -5.8 -3.0 -5.9 -2.95 -6.35 -2.7 -6.15 -2.65 M-4.45 -1.65 L-2.55 -1.6 -2.5 -1.65 -2.45 -2.85 -5.05 -2.65 -4.95 -1.65 -4.5 -1.65 -4.45 -1.65 M-1.25 -3.1 L-2.05 -3.0 -2.25 -1.45 -1.75 -1.15 -1.05 -3.05 -1.25 -3.1" fill="#333333" fill-rule="evenodd" stroke="none"/>
    <path d="M2.15 -2.75 L2.05 -2.15 1.65 -1.85 1.0 -1.9 0.2 -2.3 0.0 -2.55 -0.05 -3.0 Q0.7 -3.45 1.55 -3.5 L1.6 -3.5 1.75 -3.45 2.05 -3.0 2.1 -2.9 2.15 -2.75" fill="#999999" fill-rule="evenodd" stroke="none"/>
    <path d="M5.05 -6.25 L5.1 -6.2 5.05 -6.05 4.9 -6.05 4.7 -5.85 4.6 -5.75 4.55 -5.85 4.6 -6.0 Q4.7 -6.3 5.05 -6.25 M-0.75 1.7 L-0.85 1.65 -0.9 1.55 -0.85 1.4 -0.75 1.35 -0.65 1.4 -0.6 1.55 -0.65 1.65 -0.75 1.7 M-1.05 0.85 L-1.1 0.95 -1.2 1.05 -1.35 0.95 -1.4 0.85 -1.35 0.75 -1.2 0.7 -1.1 0.75 -1.05 0.85 M-1.2 -0.3 L-1.15 -0.15 -1.2 -0.05 -1.35 0.0 -1.45 -0.05 -1.5 -0.15 -1.45 -0.3 -1.35 -0.35 -1.2 -0.3 M-6.15 -2.65 L-6.35 -2.7 -5.9 -2.95 -5.8 -3.0 -5.5 -2.8 -5.6 -2.7 -5.85 -2.75 -6.15 -2.65" fill="#cccccc" fill-rule="evenodd" stroke="none"/>
  </g>
</svg>
