<?xml version="1.0" encoding="UTF-8" standalone="no"?>
<svg xmlns:ffdec="https://www.free-decompiler.com/flash" xmlns:xlink="http://www.w3.org/1999/xlink" ffdec:objectType="shape" height="403.1px" width="599.6px" xmlns="http://www.w3.org/2000/svg">
  <g transform="matrix(1.0, 0.0, 0.0, 1.0, 299.8, 201.55)">
    <path d="M198.4 -200.05 L198.4 200.05 101.45 200.05 101.45 -200.05 198.4 -200.05 M201.4 200.05 L201.4 -200.05 299.8 -200.05 299.8 200.05 201.4 200.05 M-1.5 -200.05 L-1.5 200.05 -98.45 200.05 -98.45 -200.05 -1.5 -200.05 M1.5 200.05 L1.5 -200.05 98.45 -200.05 98.45 200.05 1.5 200.05 M-101.45 200.05 L-199.6 200.05 Q-199.6 200.65 -200.05 201.1 -200.5 201.55 -201.1 201.55 -201.7 201.55 -202.15 201.1 L-202.6 200.05 -299.8 200.05 -299.8 -200.05 -101.45 -200.05 -101.45 200.05" fill="url(#gradient0)" fill-rule="evenodd" stroke="none"/>
    <path d="M198.4 -200.05 Q198.4 -200.65 198.85 -201.1 199.3 -201.55 199.9 -201.55 200.5 -201.55 200.95 -201.1 L201.4 -200.05 201.4 200.05 200.95 201.1 Q200.5 201.55 199.9 201.55 199.3 201.55 198.85 201.1 198.4 200.65 198.4 200.05 L198.4 -200.05 M-1.5 -200.05 L-1.05 -201.1 0.0 -201.55 1.05 -201.1 1.5 -200.05 1.5 200.05 1.05 201.1 0.0 201.55 -1.05 201.1 -1.5 200.05 -1.5 -200.05 M98.45 -200.05 Q98.45 -200.65 98.9 -201.1 99.35 -201.55 99.95 -201.55 100.55 -201.55 101.0 -201.1 101.45 -200.65 101.45 -200.05 L101.45 200.05 Q101.45 200.65 101.0 201.1 100.55 201.55 99.95 201.55 99.35 201.55 98.9 201.1 98.45 200.65 98.45 200.05 L98.45 -200.05 M-101.45 -200.05 Q-101.45 -200.65 -101.0 -201.1 -100.55 -201.55 -99.95 -201.55 -99.35 -201.55 -98.9 -201.1 -98.45 -200.65 -98.45 -200.05 L-98.45 200.05 Q-98.45 200.65 -98.9 201.1 -99.35 201.55 -99.95 201.55 -100.55 201.55 -101.0 201.1 -101.45 200.65 -101.45 200.05 L-101.45 -200.05" fill="#5b5235" fill-rule="evenodd" stroke="none"/>
  </g>
  <defs>
    <linearGradient gradientTransform="matrix(0.0, 0.244, -0.2991, 0.0, 0.0, 37.1)" gradientUnits="userSpaceOnUse" id="gradient0" spreadMethod="pad" x1="-819.2" x2="819.2">
      <stop offset="0.0" stop-color="#f9ede6"/>
      <stop offset="1.0" stop-color="#7d6744"/>
    </linearGradient>
  </defs>
</svg>
