<?xml version="1.0" encoding="UTF-8" standalone="no"?>
<svg xmlns:ffdec="https://www.free-decompiler.com/flash" xmlns:xlink="http://www.w3.org/1999/xlink" ffdec:objectType="shape" height="288.35px" width="465.5px" xmlns="http://www.w3.org/2000/svg">
  <g transform="matrix(1.0, 0.0, 0.0, 1.0, 232.75, 144.2)">
    <path d="M201.85 -122.5 L201.6 -122.35 201.6 -122.5 201.85 -122.5 M201.05 8.25 L201.6 8.1 201.6 8.25 201.05 8.25 M-217.95 8.25 L-218.5 8.25 -218.5 7.15 -217.95 8.25 M201.6 75.6 L201.6 75.65 201.0 75.65 201.6 75.6 M-218.5 75.65 L-218.5 75.75 -218.55 75.7 -218.5 75.65 M-218.55 -121.85 L-218.5 -121.85 -218.5 -121.65 -218.55 -121.85 M-218.5 -58.05 L-218.85 -59.2 -218.5 -59.2 -218.5 -58.05" fill="#60584a" fill-rule="evenodd" stroke="none"/>
    <path d="M201.85 -122.5 L201.6 -122.5 201.6 -122.35 201.85 -122.5 228.15 -140.1 201.85 -122.5 M201.95 -59.2 L201.6 -59.2 -218.5 -59.2 201.6 -59.2 201.95 -59.2 226.75 -69.15 201.95 -59.2 M201.6 -76.2 L201.6 -122.35 201.6 -76.2 M201.6 -59.2 L201.6 -5.1 201.6 -59.2 M201.05 8.25 L201.6 8.25 201.6 8.1 201.05 8.25 -217.95 8.25 201.05 8.25 M-218.5 8.25 L-217.95 8.25 -218.5 7.15 -218.5 8.25 -218.5 64.65 -218.5 8.25 M201.0 75.65 L201.6 75.65 201.6 75.6 201.0 75.65 -218.5 75.65 201.0 75.65 M-218.5 75.75 L-218.5 75.65 -218.55 75.7 -218.5 75.75 -218.5 142.65 -218.5 75.75 M201.6 142.65 L-218.5 142.65 -231.75 142.65 -231.75 -143.2 -223.55 -143.2 231.75 -143.2 231.75 142.65 201.6 142.65 201.6 75.65 201.6 142.65 M201.6 65.95 L201.6 8.25 201.6 65.95 M229.85 70.1 L201.6 75.6 229.85 70.1 M-218.55 -121.85 L-223.55 -143.2 -218.55 -121.85 -218.5 -121.65 -218.5 -121.85 -218.55 -121.85 M229.05 -0.45 L201.6 8.1 229.05 -0.45 M201.6 -122.5 L-218.5 -121.85 201.6 -122.5 M-218.5 -75.75 L-218.5 -121.65 -218.5 -75.75 M-218.5 -58.05 L-218.5 -59.2 -218.85 -59.2 -218.5 -58.05 -218.5 -5.55 -218.5 -58.05 M-222.8 -71.45 L-218.85 -59.2 -222.8 -71.45 M-224.5 70.8 L-218.55 75.7 -224.5 70.8 M-222.8 -1.45 L-218.5 7.15 -222.8 -1.45" fill="#998e7d" fill-rule="evenodd" stroke="none"/>
    <path d="M201.85 -122.5 L201.6 -122.5 201.6 -122.35 201.85 -122.5 228.15 -140.1 M-218.5 -59.2 L201.6 -59.2 201.95 -59.2 M201.6 -5.1 L201.6 -59.2 M201.6 -122.35 L201.6 -76.2 M201.05 8.25 L201.6 8.25 201.6 8.1 201.05 8.25 -217.95 8.25 -218.5 8.25 -218.5 64.65 M201.0 75.65 L201.6 75.65 201.6 75.6 M201.0 75.65 L-218.5 75.65 -218.5 75.75 -218.5 142.65 201.6 142.65 201.6 75.65 M201.6 8.25 L201.6 65.95 M201.6 142.65 L201.6 143.15 M201.6 142.65 L231.75 142.65 M-223.55 -143.2 L-218.55 -121.85 -218.5 -121.85 201.6 -122.5 M201.6 8.1 L229.05 -0.45 M-218.5 -121.85 L-218.5 -121.65 -218.5 -75.75 M-218.55 -121.85 L-218.5 -121.65 M-231.75 142.65 L-218.5 142.65 -218.5 143.15 M-218.5 -58.05 L-218.5 -59.2 -218.85 -59.2 -218.5 -58.05 -218.5 -5.55 M-218.85 -59.2 L-222.8 -71.45 M-217.95 8.25 L-218.5 7.15 -218.5 8.25 M-218.5 7.15 L-222.8 -1.45" fill="none" stroke="#000000" stroke-linecap="round" stroke-linejoin="round" stroke-width="2.0"/>
    <path d="M201.95 -59.2 L226.75 -69.15 M201.6 75.6 L201.0 75.65 M201.6 75.6 L229.85 70.1 M-218.5 75.75 L-218.55 75.7 -224.5 70.8" fill="none" stroke="#000000" stroke-linecap="round" stroke-linejoin="round" stroke-width="2.0"/>
  </g>
</svg>
