<?xml version="1.0" encoding="UTF-8" standalone="no"?>
<svg xmlns:ffdec="https://www.free-decompiler.com/flash" xmlns:xlink="http://www.w3.org/1999/xlink" ffdec:objectType="shape" height="76.0px" width="402.95px" xmlns="http://www.w3.org/2000/svg">
  <g transform="matrix(1.0, 0.0, 0.0, 1.0, 201.5, 38.0)">
    <path d="M-62.15 12.85 L-62.15 11.75 -62.1 12.9 -62.15 12.85 M-48.35 -28.2 L-48.05 -28.45 -48.0 -28.45 -48.35 -28.2 M145.9 -17.3 L146.55 -16.7 145.9 -17.25 145.9 -17.3 M163.95 -17.1 L164.45 -17.7 163.95 -17.1 M-97.0 -14.9 L-97.85 -14.35 -97.0 -14.95 -97.0 -14.9 M-57.1 23.15 L-57.2 22.95 -57.1 23.05 -57.1 23.15 M-56.35 25.5 L-56.45 25.3 -56.35 25.45 -56.35 25.5" fill="#000000" fill-rule="evenodd" stroke="none"/>
    <path d="M-26.4 -37.0 L-21.2 -36.35 -19.85 -34.65 -18.05 -34.0 -17.5 -33.0 -18.7 -31.35 -20.85 -33.9 -20.9 -33.95 Q-24.45 -31.5 -27.65 -34.9 L-30.2 -34.95 Q-31.6 -32.85 -35.1 -33.55 -36.5 -33.8 -37.55 -34.45 -38.05 -34.85 -38.25 -35.6 L-38.4 -35.9 -40.0 -34.55 -42.35 -33.8 -43.9 -34.7 -44.7 -33.8 Q-45.35 -33.15 -46.5 -32.95 L-48.3 -33.8 -51.25 -31.8 -51.35 -33.5 -46.75 -34.65 -40.75 -37.7 -38.25 -36.5 -35.45 -37.15 Q-33.8 -37.4 -32.2 -37.1 -30.85 -36.85 -29.5 -36.25 L-28.3 -37.0 -26.4 -37.0 M-62.15 11.75 Q-63.8 -4.9 -55.25 -18.95 -52.35 -23.75 -48.65 -28.0 L-48.35 -28.2 -48.0 -28.45 Q-45.0 -29.65 -47.1 -26.95 -48.75 -24.85 -49.45 -22.35 L-49.75 -20.75 -49.95 -20.1 -50.05 -19.05 -51.4 -12.1 -50.55 -13.8 -50.65 -12.95 -48.65 -17.8 -45.4 -24.55 Q-43.45 -27.7 -39.8 -27.95 L-39.25 -27.8 -37.75 -26.55 -36.5 -7.0 -36.5 -11.25 -34.65 -27.75 Q-33.25 -28.5 -31.55 -28.2 L-30.85 -27.95 -30.35 -27.6 -29.15 -26.35 -29.0 -26.1 -25.9 -12.4 -26.8 -28.05 -22.5 -28.35 -21.2 -26.7 -17.6 -18.25 -18.5 -26.6 Q-5.7 -12.05 -5.7 7.6 L-5.75 10.7 -9.3 20.85 -19.1 28.85 -19.5 27.5 -19.7 27.05 Q-20.45 25.95 -22.0 25.85 L-23.05 25.8 -22.9 21.7 -23.75 21.75 Q-26.85 23.2 -28.65 26.6 L-29.2 25.0 -31.7 26.8 -37.3 26.1 -40.75 22.55 -43.25 23.4 -47.4 20.85 Q-47.9 21.15 -48.25 21.6 -50.45 24.35 -49.8 28.1 L-57.75 19.75 -57.1 23.05 -57.2 22.95 -55.9 27.05 -55.4 28.9 Q-60.85 21.9 -62.1 12.9 L-62.15 11.75 M145.85 -16.9 L148.25 -14.75 154.15 -14.85 154.6 28.25 147.3 29.0 145.4 31.45 145.85 -16.9 M146.55 -16.7 L145.9 -17.3 145.5 -18.9 164.9 -19.3 164.45 -17.7 163.95 -17.1 162.75 -15.65 148.1 -15.25 146.55 -16.7 M164.45 -17.25 L164.15 31.45 162.3 28.3 155.2 28.65 155.35 -14.65 162.7 -14.95 164.45 -17.25 M164.15 32.65 Q155.35 33.15 145.45 32.15 L145.4 31.95 147.35 29.4 161.15 28.9 164.15 32.65 M-181.8 -27.0 L-181.4 -24.8 -173.15 -24.05 -173.65 28.45 -200.15 28.55 -199.6 -32.5 -145.5 -31.3 -144.2 31.95 -200.05 32.2 -200.2 28.95 -172.35 28.45 -172.4 -24.0 -165.15 -23.7 -163.7 -26.8 -180.95 -27.9 -181.8 -27.0 M-56.45 25.3 L-56.4 25.4 -56.35 25.45 -56.45 25.3" fill="#ede9e0" fill-rule="evenodd" stroke="none"/>
    <path d="M-3.0 -18.5 L-4.2 -18.5 -4.2 35.8 18.25 35.8 18.25 -18.5 17.1 -18.5 -2.95 -18.5 -3.0 -18.5 M8.85 -6.6 L10.7 -7.95 Q10.6 -9.45 9.35 -10.3 5.1 -13.35 3.1 -8.45 2.6 -7.3 2.85 -6.1 L3.25 -5.45 3.75 -4.85 Q4.05 -4.55 4.45 -4.35 6.0 -3.55 4.1 -3.1 -0.7 -4.6 1.45 -9.45 4.3 -15.8 10.1 -12.1 13.1 -10.15 12.2 -6.35 L7.9 -4.2 7.15 0.95 5.85 0.4 6.05 -4.65 4.05 -8.1 7.25 -10.85 8.85 -6.6 M20.25 -18.3 L19.25 -18.3 19.25 35.65 41.95 35.65 41.95 -18.3 40.85 -18.3 20.25 -18.3 M29.7 -14.4 L31.45 -0.6 32.35 -9.6 33.45 -6.5 36.4 -2.5 33.6 -1.55 33.95 -0.05 33.3 1.1 29.95 1.05 29.55 -6.85 26.85 -8.05 25.55 -6.5 26.8 -11.4 28.55 -12.5 29.7 -14.4 M24.7 -0.1 L21.9 -1.7 25.3 -5.85 27.4 -4.45 27.4 -3.45 23.6 -1.45 24.7 -0.1 M33.25 -4.6 L33.3 -3.2 34.25 -3.55 33.25 -4.6 M141.9 -33.9 L67.55 -34.5 67.35 -27.85 141.95 -28.3 142.05 -32.4 143.35 -19.05 144.25 -20.0 165.8 -19.8 166.4 36.5 Q154.55 37.2 142.7 37.15 102.95 37.05 63.2 36.2 L64.75 36.1 -5.25 36.85 -5.15 17.15 Q-5.65 25.8 -10.3 31.65 L-9.6 30.3 Q-5.65 20.85 -5.75 10.7 L-5.7 7.6 Q-5.7 -12.05 -18.5 -26.6 L-21.05 -29.0 -17.6 -18.25 -21.2 -26.7 Q-21.2 -27.7 -21.7 -28.4 -22.25 -29.15 -22.95 -29.15 L-23.4 -29.35 -28.4 -28.95 -27.8 -23.3 -25.9 -12.4 -29.0 -26.1 -29.7 -29.2 -34.25 -29.35 Q-35.45 -29.1 -36.5 -28.5 L-36.5 -11.25 -36.5 -7.0 -37.75 -26.55 -37.95 -29.35 -42.65 -29.2 -45.4 -24.55 -48.65 -17.8 -44.0 -29.1 -47.1 -29.15 -47.1 -29.1 -48.05 -28.45 -48.35 -28.2 -48.65 -28.0 Q-52.35 -23.75 -55.25 -18.95 -63.8 -4.9 -62.15 11.75 L-62.15 12.85 Q-63.15 24.65 -55.9 33.95 L-54.8 35.25 Q-35.65 38.75 -16.8 35.65 -15.0 35.35 -13.35 34.45 L-11.95 33.55 Q-13.8 35.35 -16.05 36.85 L-17.35 37.4 Q-32.2 38.4 -47.15 37.3 L-50.95 37.35 Q-54.9 36.75 -57.5 33.75 L-58.2 32.75 -59.75 30.3 Q-61.2 27.8 -61.95 24.9 L-62.6 21.95 -61.9 36.8 Q-131.55 33.3 -201.5 33.95 L-201.2 -33.35 -143.6 -33.35 -138.35 -11.65 Q-126.5 -18.5 -113.05 -13.45 -110.65 -12.6 -108.75 -11.05 L-108.1 -20.0 -63.6 -19.7 -62.75 -3.95 Q-59.3 -16.85 -50.85 -28.05 L-52.95 -29.5 -52.15 -33.55 Q-46.75 -35.5 -41.35 -37.8 -40.3 -38.2 -39.05 -37.8 L-37.95 -37.25 -35.45 -37.15 -38.25 -36.5 -40.75 -37.7 -46.75 -34.65 -51.35 -33.5 -51.25 -31.8 -50.9 -30.5 -52.45 -31.35 -52.45 -29.9 -50.5 -29.85 -49.55 -29.0 -46.8 -30.7 -48.1 -33.0 -47.45 -32.8 -46.2 -30.95 -42.7 -31.85 -43.9 -34.7 -42.2 -31.95 -38.7 -32.6 -38.7 -33.3 -38.6 -35.55 -37.65 -32.15 -30.55 -32.05 -30.1 -34.4 -29.9 -34.75 Q-29.7 -34.4 -29.75 -33.7 L-29.8 -32.4 -22.15 -31.65 -20.85 -33.9 -21.55 -30.5 -20.65 -29.65 -18.7 -31.35 -17.5 -33.0 -18.05 -34.0 -19.85 -34.65 -21.2 -36.35 -26.4 -37.0 -21.65 -37.05 -19.45 -34.85 -17.35 -34.1 -16.75 -30.4 -18.3 -28.35 Q-8.8 -16.55 -5.05 -2.1 L-5.05 -19.05 41.9 -19.1 42.75 -18.55 66.2 -18.6 66.7 -35.5 141.75 -35.15 141.9 -33.9 M79.7 -24.05 L79.7 -26.45 67.5 -26.6 67.5 -24.45 68.15 26.8 79.9 26.45 79.6 -0.5 79.35 6.4 79.7 -24.05 M44.4 -17.25 L42.75 -17.25 42.75 35.1 66.55 35.1 66.55 -17.25 64.95 -17.25 44.4 -17.25 M48.6 -12.2 L60.85 -10.55 57.6 -9.55 56.5 -10.55 48.1 -10.3 48.6 -12.2 M49.4 -7.5 L49.1 -7.5 49.0 -8.95 56.3 -9.35 55.95 -8.4 60.0 -8.4 54.8 -7.25 55.2 -8.85 52.4 -7.15 Q51.25 -8.4 50.5 -7.0 L50.05 -6.85 49.4 -7.5 M60.55 -6.25 L62.45 -5.65 Q63.1 -3.75 61.25 -4.2 60.95 -4.15 60.8 -4.6 L60.8 -4.75 59.45 -5.1 Q59.25 -5.2 59.2 -5.6 L57.0 -3.9 49.45 -4.55 59.75 -6.95 60.55 -6.25 M60.65 -2.6 L60.45 -1.6 51.6 -2.1 60.65 -2.6 M94.85 -24.1 L94.85 -26.6 80.65 -26.6 80.65 -24.05 80.65 26.8 94.85 26.8 94.85 -24.1 M126.95 -24.45 L126.95 -26.65 111.2 -26.65 111.2 -24.35 111.2 26.6 126.95 26.6 126.95 -24.45 M110.25 -24.35 L110.25 -26.55 95.35 -26.55 95.35 -24.15 95.35 26.8 110.25 26.8 110.25 -24.35 M145.85 -16.9 L144.65 -17.4 143.9 33.4 145.4 31.45 147.3 29.0 154.6 28.25 154.15 -14.85 148.25 -14.75 145.85 -16.9 M145.9 -17.25 L146.55 -16.7 148.1 -15.25 162.75 -15.65 163.95 -17.1 164.45 -17.7 165.35 -18.65 164.45 -17.25 162.7 -14.95 155.35 -14.65 155.2 28.65 162.3 28.3 164.15 31.45 165.65 34.0 Q165.5 14.85 165.75 -4.0 165.85 -11.3 165.4 -18.6 L164.9 -19.3 145.5 -18.9 Q145.1 -18.95 145.15 -18.45 145.25 -17.85 145.9 -17.25 M142.1 -24.7 L142.1 -26.95 127.6 -26.95 127.6 -24.45 127.6 26.65 142.1 26.65 142.1 -24.7 M171.9 -6.85 Q170.6 -5.3 170.45 -3.45 170.05 1.55 170.05 6.65 L170.05 7.45 170.2 7.75 172.35 6.65 175.55 5.4 Q186.75 1.2 197.5 6.55 L199.35 7.7 198.85 -4.5 198.8 -4.6 197.95 -5.9 197.25 -6.75 193.15 -9.95 192.3 -10.35 Q181.85 -13.6 172.7 -7.5 L171.9 -6.85 M200.95 -3.9 L201.45 38.0 169.8 37.85 168.95 -3.75 Q173.6 -13.25 185.25 -12.3 195.45 -12.35 200.95 -3.9 M172.5 36.05 L197.3 36.2 198.35 36.2 197.2 36.35 196.95 36.4 197.15 36.4 199.7 36.25 199.15 8.85 Q197.45 6.95 195.15 6.15 181.95 1.2 170.15 9.2 L170.05 36.0 172.5 36.05 M145.4 31.95 L143.85 33.95 144.55 35.4 165.25 34.45 164.15 32.65 161.15 28.9 147.35 29.4 145.4 31.95 M142.3 35.9 L142.45 27.5 68.35 27.95 68.3 35.25 142.3 35.9 M34.6 6.6 L27.1 5.9 27.55 4.95 36.05 5.45 35.9 7.65 34.65 8.25 34.0 9.8 31.45 8.65 31.05 7.5 34.6 6.6 M36.25 4.0 L27.1 3.95 25.95 2.75 36.55 2.9 36.25 4.0 M37.6 29.25 L30.75 17.3 24.15 28.85 37.6 29.25 M22.4 29.35 L31.05 16.6 38.3 29.95 22.55 30.5 22.4 29.35 M6.5 18.95 L-0.3 29.55 12.15 29.7 6.5 18.95 M13.5 30.5 L-0.9 29.7 6.6 17.2 13.5 30.5 M-181.8 -27.0 L-180.95 -27.9 -163.7 -26.8 -165.15 -23.7 -172.4 -24.0 -172.35 28.45 -200.2 28.95 -200.05 32.2 -144.2 31.95 -145.5 -31.3 -199.6 -32.5 -200.15 28.55 -173.65 28.45 -173.15 -24.05 -181.4 -24.8 -181.8 -27.0 M-136.2 -8.2 L-131.2 -10.5 -134.2 -8.0 -135.15 -1.7 -136.2 -8.2 M-109.0 -8.75 Q-115.3 -14.9 -124.15 -13.95 -130.5 -13.6 -136.35 -10.9 L-136.95 -10.0 -139.0 2.8 -128.6 -1.25 -137.5 3.1 -138.35 32.55 -108.55 32.75 -108.7 31.15 -117.25 29.1 -118.05 11.55 -108.15 13.7 -109.15 2.95 -120.8 -1.25 -108.6 2.3 -109.0 -8.75 M-143.05 -26.5 L-141.45 32.75 -139.65 32.45 -139.5 -13.4 -143.05 -26.5 M-96.35 -15.35 L-103.35 -9.05 -105.05 -8.6 -106.7 -6.65 -106.6 -3.45 -105.85 33.7 -84.1 34.0 -84.45 -18.65 -107.2 -18.7 -106.7 -8.95 -97.85 -14.35 -97.0 -14.9 -96.35 -15.35 M-105.6 -1.0 L-104.1 -1.7 -94.45 -8.3 -104.05 0.0 -105.6 -1.0 M-91.6 -10.25 L-89.15 -12.75 -89.35 -10.55 -91.6 -10.25 M-89.1 -13.1 L-89.85 -15.95 -94.45 -16.7 -93.65 -17.3 -88.8 -16.65 -89.1 -13.1 M-90.15 -7.45 Q-95.55 -3.2 -101.2 0.6 -102.3 1.35 -103.65 1.7 L-102.6 7.25 -88.55 -2.4 -90.15 -7.45 M-87.55 -6.45 L-87.25 -2.15 -102.75 8.85 -103.9 8.1 -104.65 1.6 -90.05 -8.7 -87.55 -6.45 M-68.95 -14.1 L-79.7 -14.2 -68.9 -15.4 -68.95 -14.1 M-79.75 -8.95 L-79.75 -10.3 -68.6 -10.9 -68.5 -9.5 -79.75 -8.95 M-69.75 -6.05 L-79.7 -6.4 -68.55 -6.5 -69.75 -6.05 M-68.7 -11.85 L-79.75 -11.35 -79.75 -12.5 -68.8 -13.05 -68.7 -11.85 M-49.75 -20.75 L-49.45 -22.35 -48.7 -23.75 -49.75 -20.75 M-50.05 -19.05 L-50.55 -13.8 -51.4 -12.1 -50.05 -19.05 M-17.45 -30.7 L-17.65 -31.4 -18.8 -28.85 -17.45 -30.7 M-28.3 -37.0 L-29.5 -36.25 Q-30.85 -36.85 -32.2 -37.1 L-28.3 -37.0 M-64.0 -19.0 L-83.2 -19.0 -83.2 33.75 -64.0 33.75 -64.0 -19.0 M-9.85 23.2 L-11.2 25.6 -18.25 34.1 -9.35 21.6 -9.85 23.2 M-22.4 29.5 L-21.75 28.85 -21.45 32.65 -20.05 32.75 -21.75 33.55 -22.4 29.5 M-38.6 32.05 Q-38.6 32.25 -39.4 31.75 L-41.35 27.8 -40.9 25.95 Q-38.55 28.4 -38.6 32.05 M-57.2 22.95 L-57.1 23.15 -55.6 25.45 -54.95 26.25 -48.9 31.5 -54.45 27.75 -56.4 25.4 -56.45 25.3 -56.35 25.5 -51.1 33.4 -52.75 34.45 -53.35 33.35 -52.35 32.95 -55.9 27.05 -57.2 22.95 M-75.65 19.8 L-69.85 18.9 -67.95 20.4 -68.0 17.6 -66.1 16.4 -68.05 7.0 -70.1 6.45 -69.25 2.9 -73.05 6.65 -74.85 5.9 -75.65 6.9 -79.8 3.6 -78.65 7.95 -79.8 7.8 -80.2 9.4 -81.1 8.4 -79.75 7.0 -80.35 2.45 -76.4 5.9 -74.6 5.15 -73.7 6.0 -68.45 1.95 -69.5 5.85 -66.95 7.55 -65.5 17.25 -67.45 18.35 -66.7 22.2 -69.85 19.9 -75.65 19.8 M-80.25 9.8 L-79.75 20.4 -77.9 20.15 -80.8 22.1 -80.45 19.2 -80.95 18.3 -80.25 9.8 M-80.85 24.3 L-80.85 30.9 -66.75 30.9 -66.75 24.3 -80.85 24.3 M-45.65 27.3 L-45.7 26.4 -42.35 31.85 -41.4 28.05 -41.65 33.8 -45.65 27.3 M-66.0 31.4 L-81.25 31.4 -81.25 23.55 -66.0 23.55 -66.0 31.4 M-116.8 12.8 L-116.75 28.25 -108.75 29.9 -108.15 15.0 -116.8 12.8 M-104.55 31.0 L-86.35 31.0 -86.35 23.45 -104.55 23.45 -104.55 31.0 M-85.8 23.05 L-85.8 31.6 -104.95 31.6 -104.95 23.05 -85.8 23.05 M-129.9 11.45 Q-129.6 11.65 -129.6 11.95 L-129.9 12.5 -130.7 12.7 -131.45 12.5 -131.8 11.95 -131.45 11.45 Q-131.15 11.2 -130.7 11.2 -130.25 11.2 -129.9 11.45 M-136.5 5.75 L-135.9 3.75 -134.45 4.35 -136.5 5.75 M-134.6 17.15 L-135.75 17.55 -136.55 15.75 -134.4 14.7 -134.6 17.15 M-136.35 14.5 L-135.85 13.1 -134.15 12.8 -136.35 14.5 M-132.15 14.75 Q-132.15 14.2 -131.75 13.85 -131.4 13.45 -130.9 13.45 -130.4 13.45 -130.0 13.85 -129.65 14.2 -129.65 14.75 -129.65 15.3 -130.0 15.7 -130.4 16.05 -130.9 16.05 -131.4 16.05 -131.75 15.7 -132.15 15.3 -132.15 14.75 M-136.45 8.25 Q-136.1 7.85 -135.6 7.85 -135.1 7.85 -134.75 8.25 -134.4 8.6 -134.4 9.1 -134.4 9.6 -134.75 10.0 -135.1 10.35 -135.6 10.35 -136.1 10.35 -136.45 10.0 -136.8 9.6 -136.8 9.1 -136.8 8.6 -136.45 8.25 M-131.9 17.05 Q-131.55 16.55 -131.05 16.55 -130.55 16.55 -130.15 17.05 -129.8 17.55 -129.8 18.25 -129.8 18.95 -130.15 19.45 -130.55 19.95 -131.05 19.95 -131.55 19.95 -131.9 19.45 -132.3 18.95 -132.3 18.25 -132.3 17.55 -131.9 17.05 M-132.3 21.1 L-130.35 20.45 -130.4 23.25 -132.35 23.75 -132.3 21.1 M-134.65 18.85 L-134.5 20.9 -136.2 21.85 -136.0 19.1 -134.55 18.55 -134.65 18.85 M-134.5 22.6 Q-134.25 23.1 -134.25 23.8 -134.25 24.5 -134.5 25.0 -134.8 25.5 -135.2 25.5 L-135.85 25.0 -136.15 23.8 -135.85 22.6 Q-135.6 22.1 -135.2 22.1 -134.8 22.1 -134.5 22.6 M-131.2 26.9 Q-131.7 26.9 -132.05 26.55 -132.45 26.15 -132.45 25.65 -132.45 25.15 -132.05 24.8 -131.7 24.4 -131.2 24.4 -130.7 24.4 -130.3 24.8 -129.95 25.15 -129.95 25.65 -129.95 26.15 -130.3 26.55 -130.7 26.9 -131.2 26.9 M-129.9 27.25 L-129.7 28.35 -132.15 29.35 -132.25 28.1 -129.9 27.25 M-133.4 27.45 L-136.25 28.0 -134.15 26.45 -133.4 27.45 M-133.5 29.25 L-133.5 29.85 -136.1 29.85 Q-134.8 29.25 -133.5 29.25" fill="#424348" fill-rule="evenodd" stroke="none"/>
    <path d="M-18.7 -31.35 L-20.65 -29.65 -21.55 -30.5 -20.85 -33.9 -22.15 -31.65 -29.8 -32.4 -29.75 -33.7 Q-29.7 -34.4 -29.9 -34.75 L-30.1 -34.4 -30.55 -32.05 -37.65 -32.15 -38.6 -35.55 -38.7 -33.3 -38.7 -32.6 -42.2 -31.95 -43.9 -34.7 -42.7 -31.85 -46.2 -30.95 -47.45 -32.8 -48.1 -33.0 -46.8 -30.7 -49.55 -29.0 -50.5 -29.85 -52.45 -29.9 -52.45 -31.35 -50.9 -30.5 -51.25 -31.8 -48.3 -33.8 -46.5 -32.95 Q-45.35 -33.15 -44.7 -33.8 L-43.9 -34.7 -42.35 -33.8 -40.0 -34.55 -38.4 -35.9 -38.25 -35.6 Q-38.05 -34.85 -37.55 -34.45 -36.5 -33.8 -35.1 -33.55 -31.6 -32.85 -30.2 -34.95 L-27.65 -34.9 Q-24.45 -31.5 -20.9 -33.95 L-20.85 -33.9 -18.7 -31.35 M-11.95 33.55 L-13.35 34.45 Q-15.0 35.35 -16.8 35.65 -35.65 38.75 -54.8 35.25 L-55.9 33.95 Q-63.15 24.65 -62.15 12.85 L-62.1 12.9 Q-60.85 21.9 -55.4 28.9 L-55.9 27.05 -52.35 32.95 -53.35 33.35 -52.75 34.45 -51.1 33.4 -56.35 25.5 -56.35 25.45 -56.4 25.4 -54.45 27.75 -48.9 31.5 -54.95 26.25 -55.6 25.45 -57.1 23.15 -57.1 23.05 -57.75 19.75 -49.8 28.1 Q-50.45 24.35 -48.25 21.6 -47.9 21.15 -47.4 20.85 L-43.25 23.4 -40.75 22.55 -37.3 26.1 -31.7 26.8 -29.2 25.0 -28.65 26.6 Q-26.85 23.2 -23.75 21.75 L-22.9 21.7 -23.05 25.8 -22.0 25.85 Q-20.45 25.95 -19.7 27.05 L-19.5 27.5 -19.1 28.85 -9.3 20.85 -5.75 10.7 Q-5.65 20.85 -9.6 30.3 L-10.3 31.65 -11.95 33.55 M-48.05 -28.45 L-47.1 -29.1 -47.1 -29.15 -44.0 -29.1 -48.65 -17.8 -50.65 -12.95 -50.55 -13.8 -50.05 -19.05 -49.95 -20.1 -49.75 -20.75 -48.7 -23.75 -49.45 -22.35 Q-48.75 -24.85 -47.1 -26.95 -45.0 -29.65 -48.0 -28.45 L-48.05 -28.45 M-45.4 -24.55 L-42.65 -29.2 -37.95 -29.35 -37.75 -26.55 -39.25 -27.8 -39.8 -27.95 Q-43.45 -27.7 -45.4 -24.55 M-36.5 -11.25 L-36.5 -28.5 Q-35.45 -29.1 -34.25 -29.35 L-29.7 -29.2 -29.0 -26.1 -29.15 -26.35 -30.35 -27.6 -30.85 -27.95 -31.55 -28.2 Q-33.25 -28.5 -34.65 -27.75 L-36.5 -11.25 M-25.9 -12.4 L-27.8 -23.3 -28.4 -28.95 -23.4 -29.35 -22.95 -29.15 Q-22.25 -29.15 -21.7 -28.4 -21.2 -27.7 -21.2 -26.7 L-22.5 -28.35 -26.8 -28.05 -25.9 -12.4 M-17.6 -18.25 L-21.05 -29.0 -18.5 -26.6 -17.6 -18.25 M145.4 31.45 L143.9 33.4 144.65 -17.4 145.85 -16.9 145.4 31.45 M145.9 -17.3 L145.9 -17.25 Q145.25 -17.85 145.15 -18.45 145.1 -18.95 145.5 -18.9 L145.9 -17.3 M164.45 -17.7 L164.9 -19.3 165.4 -18.6 Q165.85 -11.3 165.75 -4.0 165.5 14.85 165.65 34.0 L164.15 31.45 164.45 -17.25 165.35 -18.65 164.45 -17.7 M164.15 32.65 L165.25 34.45 144.55 35.4 143.85 33.95 145.4 31.95 145.45 32.15 Q155.35 33.15 164.15 32.65 M-143.05 -26.5 L-139.5 -13.4 -139.65 32.45 -141.45 32.75 -143.05 -26.5 M-17.45 -30.7 L-18.8 -28.85 -17.65 -31.4 -17.45 -30.7 M-9.85 23.2 L-9.35 21.6 -18.25 34.1 -11.2 25.6 -9.85 23.2 M-38.6 32.05 Q-38.55 28.4 -40.9 25.95 L-41.35 27.8 -39.4 31.75 Q-38.6 32.25 -38.6 32.05 M-22.4 29.5 L-21.75 33.55 -20.05 32.75 -21.45 32.65 -21.75 28.85 -22.4 29.5 M-45.65 27.3 L-41.65 33.8 -41.4 28.05 -42.35 31.85 -45.7 26.4 -45.65 27.3" fill="#beb5a7" fill-rule="evenodd" stroke="none"/>
    <path d="M-2.95 -18.5 L17.1 -18.5 17.2 31.7 -3.15 32.25 -2.75 -18.15 -2.95 -18.5 M8.85 -6.6 L7.25 -10.85 4.05 -8.1 6.05 -4.65 5.85 0.4 7.15 0.95 7.9 -4.2 12.2 -6.35 Q13.1 -10.15 10.1 -12.1 4.3 -15.8 1.45 -9.45 -0.7 -4.6 4.1 -3.1 6.0 -3.55 4.45 -4.35 4.05 -4.55 3.75 -4.85 L3.25 -5.45 2.85 -6.1 Q2.6 -7.3 3.1 -8.45 5.1 -13.35 9.35 -10.3 10.6 -9.45 10.7 -7.95 L8.85 -6.6 M40.85 -18.3 L41.0 31.65 20.45 32.25 20.7 -17.35 20.25 -18.3 40.85 -18.3 M24.7 -0.1 L23.6 -1.45 27.4 -3.45 27.4 -4.45 25.3 -5.85 21.9 -1.7 24.7 -0.1 M29.7 -14.4 L28.55 -12.5 26.8 -11.4 25.55 -6.5 26.85 -8.05 29.55 -6.85 29.95 1.05 33.3 1.1 33.95 -0.05 33.6 -1.55 36.4 -2.5 33.45 -6.5 32.35 -9.6 31.45 -0.6 29.7 -14.4 M36.25 4.0 L36.55 2.9 25.95 2.75 27.1 3.95 36.25 4.0 M34.6 6.6 L31.05 7.5 31.45 8.65 34.0 9.8 34.65 8.25 35.9 7.65 36.05 5.45 27.55 4.95 27.1 5.9 34.6 6.6 M22.4 29.35 L22.55 30.5 38.3 29.95 31.05 16.6 22.4 29.35 M13.5 30.5 L6.6 17.2 -0.9 29.7 13.5 30.5" fill="#ebf2fa" fill-rule="evenodd" stroke="none"/>
    <path d="M64.95 -17.25 L64.55 24.05 45.15 24.15 44.4 -17.25 64.95 -17.25 M60.55 -6.25 L59.75 -6.95 49.45 -4.55 57.0 -3.9 59.2 -5.6 Q59.25 -5.2 59.45 -5.1 L60.8 -4.75 60.8 -4.6 Q60.95 -4.15 61.25 -4.2 63.1 -3.75 62.45 -5.65 L60.55 -6.25 M49.4 -7.5 L50.05 -6.85 50.5 -7.0 Q51.25 -8.4 52.4 -7.15 L55.2 -8.85 54.8 -7.25 60.0 -8.4 55.95 -8.4 56.3 -9.35 49.0 -8.95 49.1 -7.5 49.4 -7.5 M48.6 -12.2 L48.1 -10.3 56.5 -10.55 57.6 -9.55 60.85 -10.55 48.6 -12.2 M60.65 -2.6 L51.6 -2.1 60.45 -1.6 60.65 -2.6 M173.5 -6.65 L175.8 -8.4 Q186.25 -13.1 195.5 -7.15 L195.75 -5.15 Q185.2 -11.0 175.0 -4.75 L175.1 1.95 173.3 2.85 173.5 -6.65 M-80.85 24.3 L-66.75 24.3 -66.75 30.9 -80.85 30.9 -80.85 24.3 M-104.55 31.0 L-104.55 23.45 -86.35 23.45 -86.35 31.0 -104.55 31.0" fill="#ffffff" fill-rule="evenodd" stroke="none"/>
    <path d="M64.95 -17.25 L66.55 -17.25 66.55 35.1 42.75 35.1 42.75 -17.25 44.4 -17.25 45.15 24.15 64.55 24.05 64.95 -17.25" fill="#c7c8cf" fill-rule="evenodd" stroke="none"/>
    <path d="M37.6 29.25 L24.15 28.85 30.75 17.3 37.6 29.25 M6.5 18.95 L12.15 29.7 -0.3 29.55 6.5 18.95" fill="#990000" fill-rule="evenodd" stroke="none"/>
    <path d="M-3.0 -18.5 L-2.95 -18.5 -2.75 -18.15 -3.0 -18.5" fill="#c9d3da" fill-rule="evenodd" stroke="none"/>
    <path d="M17.1 -18.5 L18.25 -18.5 18.25 35.8 -4.2 35.8 -4.2 -18.5 -3.0 -18.5 -2.75 -18.15 -3.15 32.25 17.2 31.7 17.1 -18.5 M20.25 -18.3 L20.7 -17.35 20.45 32.25 41.0 31.65 40.85 -18.3 41.95 -18.3 41.95 35.65 19.25 35.65 19.25 -18.3 20.25 -18.3" fill="#acbbc6" fill-rule="evenodd" stroke="none"/>
    <path d="M-106.6 -3.45 L-105.6 -1.0 -104.05 0.0 -94.45 -8.3 -91.6 -10.25 -89.35 -10.55 -89.15 -12.75 -89.05 -12.85 -89.1 -13.1 -88.8 -16.65 -93.65 -17.3 -94.45 -16.7 -96.35 -15.35 -97.0 -14.95 -97.85 -14.35 -106.7 -8.95 -107.2 -18.7 -84.45 -18.65 -84.1 34.0 -105.85 33.7 -106.6 -3.45 M-87.55 -6.45 L-90.05 -8.7 -104.65 1.6 -103.9 8.1 -102.75 8.85 -87.25 -2.15 -87.55 -6.45 M-68.95 -14.1 L-68.9 -15.4 -79.7 -14.2 -68.95 -14.1 M-79.75 -8.95 L-68.5 -9.5 -68.6 -10.9 -79.75 -10.3 -79.75 -8.95 M-69.75 -6.05 L-68.55 -6.5 -79.7 -6.4 -69.75 -6.05 M-68.7 -11.85 L-68.8 -13.05 -79.75 -12.5 -79.75 -11.35 -68.7 -11.85 M-64.0 -19.0 L-64.0 33.75 -83.2 33.75 -83.2 -19.0 -64.0 -19.0 M-75.65 19.8 L-69.85 19.9 -66.7 22.2 -67.45 18.35 -65.5 17.25 -66.95 7.55 -69.5 5.85 -68.45 1.95 -73.7 6.0 -74.6 5.15 -76.4 5.9 -80.35 2.45 -79.75 7.0 -81.1 8.4 -80.2 9.4 -80.25 9.8 -80.95 18.3 -80.45 19.2 -80.8 22.1 -77.9 20.15 -77.35 19.75 -75.65 19.8 M-66.0 31.4 L-66.0 23.55 -81.25 23.55 -81.25 31.4 -66.0 31.4 M-85.8 23.05 L-104.95 23.05 -104.95 31.6 -85.8 31.6 -85.8 23.05" fill="#cccccc" fill-rule="evenodd" stroke="none"/>
    <path d="M-80.2 9.4 L-79.8 7.8 -78.65 7.95 -79.8 3.6 -75.65 6.9 -74.85 5.9 -73.05 6.65 -69.25 2.9 -70.1 6.45 -68.05 7.0 -66.1 16.4 -68.0 17.6 -67.95 20.4 -69.85 18.9 -75.65 19.8 -77.35 19.75 -77.9 20.15 -79.75 20.4 -80.25 9.8 -80.2 9.4" fill="#8ebed7" fill-rule="evenodd" stroke="none"/>
    <path d="M-106.6 -3.45 L-106.7 -6.65 -105.05 -8.6 -103.35 -9.05 -96.35 -15.35 -94.45 -16.7 -89.85 -15.95 -89.1 -13.1 -89.05 -12.85 -89.15 -12.75 -91.6 -10.25 -94.45 -8.3 -104.1 -1.7 -105.6 -1.0 -106.6 -3.45 M-96.35 -15.35 L-97.0 -14.9 -97.0 -14.95 -96.35 -15.35 M-90.15 -7.45 L-88.55 -2.4 -102.6 7.25 -103.65 1.7 Q-102.3 1.35 -101.2 0.6 -95.55 -3.2 -90.15 -7.45" fill="#ffff66" fill-rule="evenodd" stroke="none"/>
    <path d="M142.05 -32.4 L141.95 -28.3 67.35 -27.85 67.55 -34.5 141.9 -33.9 142.05 -33.9 142.05 -32.4 M79.7 -24.05 L79.35 6.4 79.6 -0.5 79.9 26.45 68.15 26.8 67.5 -24.45 79.7 -24.05 M94.85 -24.1 L94.85 26.8 80.65 26.8 80.65 -24.05 94.85 -24.1 M126.95 -24.45 L126.95 26.6 111.2 26.6 111.2 -24.35 126.95 -24.45 M95.35 -24.15 L110.25 -24.35 110.25 26.8 95.35 26.8 95.35 -24.15 M127.6 -24.45 L142.1 -24.7 142.1 26.65 127.6 26.65 127.6 -24.45 M142.3 35.9 L68.3 35.25 68.35 27.95 142.45 27.5 142.3 35.9" fill="#eeead9" fill-rule="evenodd" stroke="none"/>
    <path d="M67.5 -24.45 L67.5 -26.6 79.7 -26.45 79.7 -24.05 67.5 -24.45 M80.65 -24.05 L80.65 -26.6 94.85 -26.6 94.85 -24.1 80.65 -24.05 M111.2 -24.35 L111.2 -26.65 126.95 -26.65 126.95 -24.45 111.2 -24.35 M95.35 -24.15 L95.35 -26.55 110.25 -26.55 110.25 -24.35 95.35 -24.15 M127.6 -24.45 L127.6 -26.95 142.1 -26.95 142.1 -24.7 127.6 -24.45" fill="#c8c1a4" fill-rule="evenodd" stroke="none"/>
    <path d="M172.35 6.65 L171.9 -6.85 172.7 -7.5 Q181.85 -13.6 192.3 -10.35 L193.15 -9.95 197.25 -6.75 197.95 -5.9 197.5 6.55 Q186.75 1.2 175.55 5.4 L172.35 6.65 M198.8 -4.6 L198.85 -4.5 198.8 -4.5 198.8 -4.6 M173.5 -6.65 L173.3 2.85 175.1 1.95 175.0 -4.75 Q185.2 -11.0 195.75 -5.15 L195.5 -7.15 Q186.25 -13.1 175.8 -8.4 L173.5 -6.65 M172.5 36.05 L172.45 9.25 Q181.8 4.2 192.15 6.9 194.95 7.55 197.4 9.0 L197.3 36.2 172.5 36.05" fill="#9197b7" fill-rule="evenodd" stroke="none"/>
    <path d="M172.35 6.65 L170.2 7.75 170.05 7.45 170.05 6.65 Q170.05 1.55 170.45 -3.45 170.6 -5.3 171.9 -6.85 L172.35 6.65 M197.95 -5.9 L198.8 -4.6 198.8 -4.5 198.85 -4.5 199.35 7.7 197.5 6.55 197.95 -5.9 M197.3 36.2 L197.4 9.0 Q194.95 7.55 192.15 6.9 181.8 4.2 172.45 9.25 L172.5 36.05 170.05 36.0 170.15 9.2 Q181.95 1.2 195.15 6.15 197.45 6.95 199.15 8.85 L199.7 36.25 197.15 36.4 197.2 36.35 198.35 36.2 197.3 36.2" fill="#586087" fill-rule="evenodd" stroke="none"/>
    <path d="M-136.35 -10.9 L-136.2 -8.2 -135.15 -1.7 -134.2 -8.0 -131.2 -10.5 Q-119.55 -13.15 -109.55 -7.7 -109.5 -7.6 -109.35 -7.8 -109.05 -8.15 -109.0 -8.75 L-108.6 2.3 -120.8 -1.25 -109.15 2.95 -108.15 13.7 -118.05 11.55 -117.25 29.1 -108.7 31.15 -108.55 32.75 -138.35 32.55 -137.5 3.1 -128.6 -1.25 -139.0 2.8 -136.95 -10.0 -136.35 -10.9 M-122.1 -1.95 Q-115.4 -1.45 -109.6 1.45 -109.3 -0.6 -112.45 -1.6 -122.3 -4.75 -132.35 -2.0 L-137.9 1.1 Q-136.0 0.9 -132.6 -0.3 -127.55 -2.2 -122.1 -1.95 M-129.9 11.45 Q-130.25 11.2 -130.7 11.2 -131.15 11.2 -131.45 11.45 L-131.8 11.95 -131.45 12.5 -130.7 12.7 -129.9 12.5 -129.6 11.95 Q-129.6 11.65 -129.9 11.45 M-136.5 5.75 L-134.45 4.35 -135.9 3.75 -136.5 5.75 M-136.45 8.25 Q-136.8 8.6 -136.8 9.1 -136.8 9.6 -136.45 10.0 -136.1 10.35 -135.6 10.35 -135.1 10.35 -134.75 10.0 -134.4 9.6 -134.4 9.1 -134.4 8.6 -134.75 8.25 -135.1 7.85 -135.6 7.85 -136.1 7.85 -136.45 8.25 M-132.15 14.75 Q-132.15 15.3 -131.75 15.7 -131.4 16.05 -130.9 16.05 -130.4 16.05 -130.0 15.7 -129.65 15.3 -129.65 14.75 -129.65 14.2 -130.0 13.85 -130.4 13.45 -130.9 13.45 -131.4 13.45 -131.75 13.85 -132.15 14.2 -132.15 14.75 M-136.35 14.5 L-134.15 12.8 -135.85 13.1 -136.35 14.5 M-134.6 17.15 L-134.4 14.7 -136.55 15.75 -135.75 17.55 -134.6 17.15 M-132.3 21.1 L-132.35 23.75 -130.4 23.25 -130.35 20.45 -132.3 21.1 M-131.9 17.05 Q-132.3 17.55 -132.3 18.25 -132.3 18.95 -131.9 19.45 -131.55 19.95 -131.05 19.95 -130.55 19.95 -130.15 19.45 -129.8 18.95 -129.8 18.25 -129.8 17.55 -130.15 17.05 -130.55 16.55 -131.05 16.55 -131.55 16.55 -131.9 17.05 M-134.5 22.6 Q-134.8 22.1 -135.2 22.1 -135.6 22.1 -135.85 22.6 L-136.15 23.8 -135.85 25.0 -135.2 25.5 Q-134.8 25.5 -134.5 25.0 -134.25 24.5 -134.25 23.8 -134.25 23.1 -134.5 22.6 M-134.65 18.85 L-134.55 18.55 -136.0 19.1 -136.2 21.85 -134.5 20.9 -134.65 18.85 M-131.2 26.9 Q-130.7 26.9 -130.3 26.55 -129.95 26.15 -129.95 25.65 -129.95 25.15 -130.3 24.8 -130.7 24.4 -131.2 24.4 -131.7 24.4 -132.05 24.8 -132.45 25.15 -132.45 25.65 -132.45 26.15 -132.05 26.55 -131.7 26.9 -131.2 26.9 M-129.9 27.25 L-132.25 28.1 -132.15 29.35 -129.7 28.35 -129.9 27.25 M-133.4 27.45 L-134.15 26.45 -136.25 28.0 -133.4 27.45 M-133.5 29.25 Q-134.8 29.25 -136.1 29.85 L-133.5 29.85 -133.5 29.25" fill="#60574a" fill-rule="evenodd" stroke="none"/>
    <path d="M-116.8 12.8 L-108.15 15.0 -108.75 29.9 -116.75 28.25 -116.8 12.8" fill="#999999" fill-rule="evenodd" stroke="none"/>
    <path d="M-136.2 -8.2 L-136.35 -10.9 Q-130.5 -13.6 -124.15 -13.95 -115.3 -14.9 -109.0 -8.75 -109.05 -8.15 -109.35 -7.8 -109.5 -7.6 -109.55 -7.7 -119.55 -13.15 -131.2 -10.5 L-136.2 -8.2 M-122.1 -1.95 Q-127.55 -2.2 -132.6 -0.3 -136.0 0.9 -137.9 1.1 L-132.35 -2.0 Q-122.3 -4.75 -112.45 -1.6 -109.3 -0.6 -109.6 1.45 -115.4 -1.45 -122.1 -1.95" fill="#9b8f82" fill-rule="evenodd" stroke="none"/>
  </g>
</svg>
