<?xml version="1.0" encoding="UTF-8" standalone="no"?>
<svg xmlns:ffdec="https://www.free-decompiler.com/flash" xmlns:xlink="http://www.w3.org/1999/xlink" ffdec:objectType="shape" height="68.5px" width="440.15px" xmlns="http://www.w3.org/2000/svg">
  <g transform="matrix(1.0, 0.0, 0.0, 1.0, 226.4, 34.3)">
    <path d="M10.95 -17.3 L12.15 -22.6 12.5 -22.7 Q17.2 -25.7 22.55 -23.25 L23.45 -23.3 Q30.4 -25.0 37.2 -22.7 L38.5 -23.15 Q44.7 -25.7 50.65 -23.1 L64.0 -23.85 65.15 -23.25 74.1 -23.05 Q76.3 -24.15 78.7 -24.25 L88.75 -23.4 89.1 -12.95 98.55 -13.05 Q103.75 -15.4 109.0 -12.8 L113.7 -13.1 118.15 -13.55 Q123.15 -14.65 127.9 -12.6 L128.15 26.45 128.3 26.3 128.3 26.45 128.2 27.3 139.35 -23.75 145.8 -21.55 145.8 -20.55 147.8 -19.6 136.1 31.55 134.4 30.6 134.15 31.75 128.55 31.0 128.1 29.0 127.9 31.4 127.9 31.45 120.9 31.4 120.1 32.0 119.3 31.4 4.4 30.6 4.45 3.4 4.5 3.4 4.4 -17.15 10.95 -17.3 M20.75 -19.85 L20.9 -19.85 21.05 -18.6 20.75 -13.7 15.3 -13.7 15.8 -20.2 20.75 -19.85 M16.9 -15.6 L19.2 -15.35 18.75 -19.1 16.95 -18.85 16.8 -15.6 16.9 -15.6 M8.25 -9.4 L9.15 -8.35 7.65 2.15 7.15 -8.05 6.3 -9.45 6.9 -10.6 7.5 -12.85 9.2 -11.3 8.25 -9.4 M16.7 -9.8 Q16.15 -9.9 16.45 -10.25 18.3 -12.75 20.35 -9.75 L18.0 -8.65 19.7 -6.85 18.55 -5.1 20.0 0.65 19.35 1.2 20.05 8.9 18.4 10.0 19.45 10.9 19.2 12.25 19.4 14.5 18.4 17.5 17.05 14.7 17.9 13.4 17.05 12.65 17.1 11.35 16.4 9.85 17.65 8.15 17.5 6.35 18.4 5.7 18.2 3.85 Q15.45 2.45 16.8 -0.45 18.65 -0.55 17.25 -1.65 16.85 -1.85 16.7 -2.2 16.45 -2.7 16.7 -2.9 L17.05 -3.05 Q17.95 -3.2 17.7 -4.65 L17.15 -6.2 Q17.95 -7.35 15.9 -8.65 L16.7 -9.8 M5.2 -16.45 L5.3 28.9 11.35 28.95 11.3 23.85 11.25 23.85 10.9 -16.65 5.2 -16.45 M32.2 -15.1 L32.2 -19.7 29.25 -19.7 29.25 -15.1 32.2 -15.1 M34.05 -20.8 L34.05 -14.15 27.5 -14.15 27.5 -20.8 34.05 -20.8 M38.35 -21.95 L38.05 -21.45 Q37.0 -18.0 37.15 -14.45 L37.75 6.7 37.75 6.85 37.7 29.45 49.95 29.55 50.35 3.85 49.8 -21.5 Q49.8 -22.5 48.7 -22.6 L47.35 -23.05 Q42.5 -24.35 38.35 -21.95 M35.7 -22.2 Q31.05 -24.35 26.05 -22.5 L25.9 -22.4 24.45 -22.0 25.7 29.25 36.65 29.4 35.7 -22.2 M12.95 -22.4 L12.85 28.9 24.8 29.05 23.15 -21.9 22.55 -22.55 22.05 -22.85 Q17.35 -24.3 12.95 -22.4 M30.25 -5.9 L29.0 -8.6 30.6 -9.95 28.6 -10.65 30.3 -11.5 33.15 -9.85 31.2 -8.0 32.2 -7.15 32.2 -5.3 Q31.0 -4.0 32.35 -2.8 L31.9 0.35 32.7 2.5 32.15 3.25 33.1 4.5 32.65 6.95 32.95 8.85 31.15 10.7 31.85 12.45 31.3 13.6 32.05 14.45 32.2 16.95 33.25 19.3 32.7 20.65 31.15 20.7 31.2 18.8 30.35 15.35 29.45 14.05 29.95 12.25 29.15 10.75 31.0 8.45 29.0 6.0 31.2 5.35 29.7 3.0 29.25 0.3 30.85 -1.9 29.95 -4.6 30.25 -5.9 M52.55 -22.45 L51.3 -22.1 51.5 29.05 51.5 29.1 51.5 29.15 51.8 30.0 52.9 30.0 63.25 29.9 63.25 -22.45 52.55 -22.45 M55.25 -12.75 L54.9 -14.45 59.0 -17.4 56.65 -17.95 55.55 -16.9 54.2 -18.75 Q54.55 -19.95 55.75 -20.2 59.0 -20.95 61.15 -18.55 L61.05 -16.1 60.8 -15.25 Q60.5 -14.35 59.35 -14.25 L57.2 -14.2 59.15 -13.4 57.65 -7.65 56.25 -12.3 55.25 -12.75 M43.7 -10.1 L42.5 -12.0 42.8 -12.0 Q46.9 -11.3 45.65 -8.5 L45.0 -4.15 45.7 2.55 46.45 3.1 46.25 4.85 46.05 5.2 Q46.1 5.95 47.5 8.0 L46.05 10.0 46.4 11.4 45.35 12.7 45.9 17.15 45.4 18.7 45.65 19.7 43.15 19.5 44.15 16.85 44.1 11.35 43.2 9.7 45.25 8.0 42.5 5.8 42.8 4.3 Q43.95 3.7 42.7 1.9 44.8 -1.1 42.85 -4.4 L43.5 -5.5 43.25 -6.65 43.65 -7.55 42.55 -8.75 43.7 -10.1 M45.95 -15.95 L45.95 -19.95 42.05 -19.95 42.05 -15.95 45.95 -15.95 M40.9 -14.55 L40.9 -20.8 47.2 -20.8 47.2 -14.55 40.9 -14.55 M78.4 -15.5 Q80.6 -16.1 78.15 -16.65 L78.45 -20.4 Q83.2 -20.8 82.35 -15.55 L81.15 -14.15 81.75 -12.15 80.9 -10.1 81.8 -8.55 81.15 -6.7 81.2 -6.4 81.3 -5.95 Q81.3 -5.2 80.6 -5.35 L79.35 -7.35 79.75 -8.4 78.55 -9.75 79.4 -12.5 78.4 -15.5 M68.85 -18.7 L68.4 -18.7 68.4 -18.3 68.85 -18.3 68.85 -18.7 M79.7 -17.9 Q80.15 -18.2 79.7 -17.95 L79.7 -17.9 M79.3 -0.9 L80.15 -3.55 81.8 -2.35 Q81.95 -0.85 82.4 0.6 83.3 3.5 81.9 5.45 L81.8 5.4 Q80.95 4.0 80.05 5.1 L81.75 7.6 81.55 9.5 82.05 14.85 81.35 15.75 81.85 22.05 Q84.55 24.3 82.4 26.75 L79.45 27.05 78.5 25.3 80.95 24.25 78.05 23.3 79.3 20.75 79.4 13.65 80.1 13.1 80.25 11.3 79.3 10.3 80.15 8.35 78.4 4.45 80.5 3.0 80.4 -0.45 79.3 -0.9 M70.65 -4.45 L70.3 -1.05 71.15 0.4 70.65 19.5 71.9 21.45 69.8 24.45 69.4 21.95 68.45 19.9 69.65 17.85 68.95 0.55 68.35 -1.05 69.3 -4.35 69.65 -4.7 69.95 -4.75 70.65 -4.45 M67.0 -19.65 L68.45 -20.65 70.8 -18.05 70.2 -17.0 71.1 -14.85 69.75 -12.9 70.6 -10.55 69.9 -8.8 70.6 -7.45 69.35 -5.1 68.05 -8.7 68.7 -11.15 67.85 -13.6 68.8 -15.55 67.7 -17.65 67.0 -19.65 M65.2 -22.4 L64.95 30.3 73.25 29.95 73.5 -22.5 65.2 -22.4 M85.65 15.7 L85.8 29.5 88.65 29.7 87.45 -22.55 85.5 -22.55 85.0 2.8 84.45 -22.2 83.85 -22.9 75.95 -22.95 74.75 29.9 75.8 29.85 83.85 29.55 84.85 29.5 85.3 1.9 85.65 15.7 M93.2 -6.35 Q91.85 -6.4 91.8 -7.8 91.75 -10.5 94.3 -11.35 L95.75 -10.25 Q98.9 -6.95 96.2 -4.25 L96.4 -2.75 95.65 -1.9 95.45 -0.2 93.4 -2.0 93.9 -3.2 93.2 -6.35 M94.5 -8.6 L94.4 -7.95 Q93.75 -6.7 95.2 -6.8 L94.5 -8.6 M89.6 -12.4 L90.15 30.45 98.1 29.8 98.1 -12.15 89.6 -12.4 M104.6 -9.4 L104.3 -9.6 104.05 -9.4 103.9 -8.9 Q103.9 -8.6 104.05 -8.4 L104.3 -8.2 104.6 -8.4 104.7 -8.9 104.6 -9.4 M103.8 -11.95 Q105.0 -11.85 105.75 -10.95 108.3 -7.9 105.1 -5.3 L106.4 -4.0 105.4 -1.55 105.85 0.1 103.7 0.95 103.0 -2.0 103.75 -3.2 102.15 -6.1 102.6 -7.1 102.2 -8.15 Q101.45 -10.9 103.8 -11.95 M103.4 -13.3 L101.85 -13.3 Q99.85 -13.55 100.0 -12.45 L100.55 29.75 107.35 30.2 107.6 -12.5 106.25 -12.9 104.85 -13.1 103.4 -13.3 M114.6 -12.7 Q111.45 -13.15 108.9 -11.4 L109.75 30.25 118.4 29.9 118.1 -11.85 114.6 -12.7 M156.9 -25.45 L156.85 -25.4 156.9 -25.4 180.35 -25.45 181.5 -29.9 156.9 -25.45 M141.1 -13.45 L139.9 -12.9 140.9 -19.2 142.2 -16.1 141.15 -14.55 141.1 -13.45 M124.6 -12.6 L123.5 -12.65 Q121.55 -12.9 119.85 -11.9 120.0 9.25 121.0 30.4 121.05 31.1 121.1 30.45 L121.3 30.35 127.3 30.25 126.8 -12.15 124.6 -12.6 M138.55 -5.5 L138.1 -6.4 138.8 -6.75 138.6 -9.0 139.55 -9.85 139.95 -10.75 Q140.3 -11.15 140.15 -10.55 L137.95 0.8 Q137.45 0.65 137.45 0.55 137.35 -2.35 138.55 -5.5 M184.1 12.45 L184.35 24.0 213.25 23.7 212.85 -24.6 151.65 -24.6 151.65 -24.65 150.1 -24.4 149.8 -23.9 150.2 24.15 183.55 24.0 183.25 9.95 183.25 8.35 183.2 6.2 183.15 4.8 182.65 -17.2 176.15 -17.3 176.25 -20.35 191.45 -20.15 191.75 -18.05 183.4 -17.05 183.9 4.85 183.95 6.25 184.0 8.35 184.05 9.95 184.05 11.25 184.1 12.45 M146.05 -19.1 L143.6 -9.35 Q138.85 10.45 134.45 30.35 L135.75 30.4 144.1 -8.35 146.05 -19.1 M145.1 -21.35 L139.35 -22.7 129.05 29.5 129.2 29.5 132.8 30.75 145.1 -21.35 M203.55 -25.65 L207.45 -25.85 183.35 -29.9 181.4 -26.1 203.55 -25.55 204.85 -25.55 203.55 -25.65 M181.45 -30.6 L213.15 -25.35 213.75 32.35 149.9 32.35 149.1 32.65 149.2 -25.0 181.45 -30.6 M213.25 24.3 L150.15 24.75 150.1 31.0 212.5 31.3 213.25 24.3 M184.85 26.4 L184.75 26.65 184.65 26.4 184.85 26.4 M134.85 11.2 Q134.75 10.8 135.0 10.5 135.2 10.15 135.6 10.1 L136.3 10.25 136.7 10.9 136.55 11.6 135.95 11.95 135.2 11.8 134.85 11.2 M136.35 8.6 L135.7 8.5 135.4 7.95 Q135.35 7.6 135.55 7.35 135.7 7.05 136.05 7.05 L136.65 7.15 137.0 7.7 136.85 8.3 136.35 8.6 M137.75 1.7 L138.35 5.45 136.65 5.7 136.0 1.95 137.75 1.7 M7.75 14.95 L9.25 14.95 9.25 20.1 7.75 20.1 7.75 14.95 M9.3 5.1 L9.65 7.25 8.1 13.95 8.4 3.25 9.3 5.1 M-48.5 -33.3 L-47.55 -33.3 -47.3 0.25 -30.05 -12.05 -26.7 -14.35 Q-24.3 -16.0 -21.45 -15.95 -20.0 -15.8 -18.7 -15.15 -11.2 -11.35 -15.45 -3.65 -11.35 -4.55 -8.5 -2.05 -2.1 3.5 -5.8 10.8 -0.6 11.6 1.15 15.65 1.85 17.2 2.0 19.25 2.15 21.45 1.15 23.2 L0.6 24.0 Q-4.8 30.5 -13.6 30.7 L-36.15 31.2 -47.1 31.3 -102.7 33.2 Q-104.95 32.6 -107.25 31.45 L-108.1 33.6 -132.2 33.3 -132.55 32.2 -132.55 -1.35 Q-132.5 -8.3 -125.65 -9.8 L-125.5 -11.7 -126.7 -12.25 -127.15 -17.2 -125.35 -19.25 -125.4 -20.4 Q-122.65 -23.65 -118.45 -22.95 -116.0 -22.55 -114.8 -20.6 L-114.85 -19.25 -113.4 -18.15 -113.3 -23.6 -103.15 -34.3 -55.5 -33.45 -75.15 -33.45 -75.15 -11.75 -75.15 -2.15 -48.5 -2.15 -48.5 -17.35 -48.5 -33.3 M8.45 20.2 Q8.75 20.2 8.95 20.5 L9.15 21.1 8.95 21.75 8.45 22.0 Q8.15 22.0 7.95 21.75 L7.75 21.1 7.95 20.5 8.45 20.2 M1.15 19.75 L1.15 19.25 Q1.05 16.25 -0.9 14.15 -3.0 11.9 -5.95 11.9 -8.9 11.9 -10.95 14.15 -13.05 16.35 -13.05 19.5 -13.05 22.65 -10.95 24.9 -8.9 27.1 -5.95 27.1 -3.0 27.1 -0.9 24.9 1.05 22.75 1.15 19.75 M18.05 18.2 Q18.5 17.4 19.1 17.4 19.7 17.4 20.15 18.2 20.6 18.95 20.6 20.05 20.6 21.15 20.15 21.95 19.7 22.7 19.1 22.7 18.5 22.7 18.05 21.95 17.6 21.15 17.6 20.05 17.6 18.95 18.05 18.2 M-224.0 32.0 L-203.9 31.9 -203.85 31.9 -202.4 31.5 -202.55 -4.65 Q-203.45 -5.85 -204.55 -6.65 -212.25 -12.2 -221.45 -8.15 -224.5 -6.9 -224.55 -3.7 -224.95 13.7 -224.85 31.1 -224.85 32.2 -224.0 32.0 M-225.15 -4.2 Q-224.95 -6.4 -223.0 -7.8 L-221.75 -8.5 -219.15 -9.8 -218.65 -11.6 -220.45 -12.6 -220.65 -17.2 -218.8 -19.25 -218.9 -20.6 Q-216.65 -23.4 -212.8 -23.1 L-211.45 -22.65 -210.0 -22.0 -208.8 -21.0 -208.3 -20.4 -208.35 -19.25 -206.5 -17.2 -206.9 -12.25 -208.5 -11.6 -207.8 -9.8 Q-204.7 -9.1 -202.65 -6.7 L-202.2 -6.05 -201.85 -5.35 -201.7 -4.6 -200.85 0.35 Q-201.2 -3.4 -199.15 -6.45 L-198.55 -7.25 -197.3 -8.15 -195.95 -9.0 -193.9 -9.8 -193.1 -11.1 -194.95 -12.6 -195.15 -17.2 -193.35 -19.25 -193.4 -20.4 Q-190.8 -23.55 -187.05 -22.8 L-185.3 -22.3 -184.55 -22.0 -183.9 -21.55 -182.8 -20.6 -182.85 -19.25 -181.0 -17.2 -181.2 -12.6 -183.0 -11.45 -182.5 -9.8 Q-177.65 -8.8 -176.05 -4.25 L-175.9 -3.25 -176.3 33.5 -197.15 32.5 -197.4 32.5 -200.85 32.25 -202.85 33.85 -225.25 33.5 -226.1 32.0 -226.3 30.65 -226.4 24.85 Q-226.5 16.6 -226.1 8.45 -225.8 2.1 -225.15 -4.2 M-209.4 -18.5 L-209.6 -18.8 -210.2 -18.85 Q-214.1 -20.6 -218.5 -18.5 -220.3 -16.9 -220.1 -14.75 -220.0 -13.3 -218.85 -12.55 L-218.75 -14.45 -217.45 -15.3 Q-212.7 -17.85 -208.45 -14.45 L-208.4 -12.6 Q-206.2 -13.45 -207.1 -16.1 -207.45 -17.2 -208.55 -17.95 L-209.4 -18.5 M-217.7 -13.7 L-218.1 -10.05 -209.1 -10.05 -209.2 -13.95 -210.35 -12.55 -212.6 -12.2 -213.95 -12.6 -214.45 -12.75 -209.8 -13.7 Q-212.45 -16.7 -216.85 -14.55 L-217.1 -14.1 -217.3 -13.85 Q-217.45 -13.7 -217.7 -13.7 M-218.35 -19.75 L-208.9 -20.15 Q-213.0 -24.05 -217.8 -20.45 L-218.35 -19.75 M-189.05 -19.4 L-189.25 -19.35 -191.65 -18.5 -192.9 -17.75 Q-195.9 -15.4 -193.5 -12.5 L-193.25 -14.45 -191.95 -15.3 Q-187.1 -18.0 -182.95 -14.45 L-182.9 -12.6 Q-180.6 -13.4 -181.65 -16.05 -183.5 -20.7 -189.05 -19.4 M-190.75 -13.05 L-188.1 -12.7 -185.45 -13.05 Q-184.35 -13.45 -184.35 -14.0 -184.35 -14.55 -185.45 -14.9 L-188.1 -15.3 -190.75 -14.9 Q-191.85 -14.55 -191.85 -14.0 -191.85 -13.45 -190.75 -13.05 M-187.85 -10.05 L-183.6 -10.05 Q-183.6 -11.8 -183.95 -13.5 -184.1 -14.2 -184.9 -13.15 -186.55 -11.95 -188.6 -12.05 L-189.4 -12.35 Q-191.3 -12.85 -192.55 -13.8 L-192.6 -10.05 -189.6 -10.05 -191.3 -9.9 Q-197.25 -9.2 -199.15 -4.1 L-199.2 -3.65 -199.5 31.1 -199.3 32.05 -198.3 31.95 -196.65 31.8 -196.55 31.7 -185.3 31.7 -182.7 31.7 -177.6 32.1 -176.9 31.5 -176.7 31.1 Q-177.0 16.6 -177.9 2.2 L-177.95 -2.3 -178.2 -2.45 -178.4 -4.55 -178.35 -4.55 -178.4 -4.95 -178.45 -5.4 Q-178.6 -7.1 -180.45 -8.1 -184.05 -9.85 -187.85 -10.05 M-191.6 -21.1 L-192.8 -20.35 -183.4 -20.35 Q-187.2 -23.45 -191.6 -21.1 M-192.2 -11.85 L-184.05 -11.8 Q-186.95 -10.45 -190.1 -11.15 L-192.2 -11.85 M-159.95 -22.3 L-155.5 -23.45 Q-149.2 -23.8 -143.3 -21.3 L-141.3 -20.4 -141.25 -23.8 Q-152.6 -30.6 -164.55 -25.15 L-167.05 -23.6 -166.5 -20.7 -164.9 -21.1 Q-169.65 -19.05 -170.05 -14.3 L-169.9 -13.55 Q-169.2 -12.35 -168.5 -13.45 -167.9 -14.3 -167.6 -15.35 -154.2 -21.75 -140.75 -15.35 L-139.25 -12.95 -138.65 -13.65 Q-137.55 -15.4 -139.05 -16.75 -148.05 -24.85 -160.25 -22.25 L-159.95 -22.3 M-167.7 -23.8 L-165.1 -26.1 Q-152.95 -30.9 -141.6 -24.7 L-141.05 -24.35 -140.9 -20.15 -139.0 -18.85 Q-137.75 -17.9 -137.3 -16.4 -136.8 -14.85 -137.25 -13.3 L-140.65 -11.3 -140.95 -10.2 Q-133.1 -5.9 -133.65 3.55 -134.05 10.9 -134.0 18.45 -134.0 24.7 -136.5 30.4 -137.5 32.75 -139.9 33.5 -143.35 34.55 -146.9 34.05 -156.9 33.85 -166.65 33.95 -168.95 34.0 -170.45 32.25 -175.3 26.7 -174.6 19.0 -174.2 14.9 -174.45 10.8 -175.0 3.0 -172.9 -4.15 -171.6 -8.5 -167.5 -10.35 L-167.8 -11.55 Q-169.1 -11.8 -170.25 -12.75 -171.65 -13.85 -171.05 -15.45 -169.85 -18.55 -167.55 -20.65 L-167.7 -23.8 M-142.45 -12.8 Q-149.75 -17.4 -159.1 -15.7 -162.05 -15.25 -164.7 -13.95 L-165.5 -13.3 -166.3 -10.75 -165.4 -11.15 -165.35 -12.25 -165.35 -12.6 -164.95 -12.0 -159.25 -12.15 -151.3 -12.65 Q-147.3 -12.3 -143.35 -11.25 L-142.9 -12.55 -142.5 -11.7 -142.05 -10.75 -142.4 -12.75 -142.45 -12.8 M-166.7 -13.25 Q-162.6 -16.35 -157.7 -16.55 L-160.9 -16.65 -166.5 -14.25 -166.7 -13.25 M-164.7 -9.05 L-163.05 -7.25 -155.65 -5.85 -151.0 -5.9 -144.1 -7.55 -142.7 -8.85 -142.8 -7.9 -150.55 -5.4 -156.0 -5.3 -161.1 -5.8 Q-164.65 -6.1 -164.7 -9.05 M-142.45 -9.55 Q-153.5 -13.2 -164.6 -10.05 L-164.75 -10.0 Q-174.25 -6.4 -173.55 3.9 -173.1 9.95 -173.3 16.1 -173.6 23.65 -170.85 30.45 -169.7 33.35 -166.2 33.35 -152.95 33.45 -139.8 32.65 L-138.2 32.05 Q-135.35 28.6 -135.3 24.05 -135.15 13.8 -135.15 3.4 -135.15 0.0 -136.35 -3.45 -137.9 -8.0 -142.45 -9.55 M-141.9 -14.25 L-144.5 -15.0 -141.65 -13.25 -141.9 -14.25 M-122.7 -18.9 L-124.15 -18.9 -124.15 -18.15 -124.85 -17.7 Q-128.05 -15.1 -125.35 -12.55 L-125.25 -14.45 Q-120.1 -18.3 -114.95 -14.45 -114.95 -13.55 -114.5 -12.8 L-114.05 -12.9 Q-112.95 -14.3 -113.65 -16.05 -114.35 -17.75 -115.5 -18.65 L-115.5 -18.9 -115.8 -18.9 Q-117.85 -20.25 -121.25 -19.35 L-122.7 -18.9 M-124.85 -19.75 L-115.4 -20.15 Q-118.9 -23.75 -123.5 -21.1 L-124.85 -19.75 M-122.55 -13.35 L-120.0 -13.05 -117.3 -13.35 Q-116.2 -13.7 -116.2 -14.15 -116.2 -14.6 -117.3 -14.9 L-120.0 -15.25 -122.65 -14.9 Q-123.8 -14.6 -123.8 -14.15 L-123.8 -14.1 -124.55 -13.8 -124.6 -10.05 -115.6 -10.05 -115.65 -13.65 Q-117.75 -12.6 -120.05 -12.2 -121.55 -12.0 -122.45 -13.2 L-122.55 -13.35 M-123.8 -11.7 L-116.4 -11.75 Q-119.25 -10.2 -122.8 -11.3 L-123.8 -11.7 M-109.95 31.95 L-108.9 32.05 -108.7 31.2 Q-108.75 13.85 -109.1 -3.45 -109.1 -4.25 -109.4 -4.9 -111.4 -8.9 -116.15 -9.65 L-123.5 -9.35 Q-129.6 -9.1 -131.1 -3.65 L-131.2 -2.7 -131.3 31.95 -130.05 32.0 -110.8 32.15 -109.95 31.95 M-96.4 -29.75 L-94.85 -29.85 -92.8 -28.4 -93.6 -26.7 -91.8 -27.7 Q-91.55 -28.05 -91.65 -28.2 -91.8 -28.5 -92.25 -28.6 L-92.35 -29.8 -88.7 -31.1 -83.1 -29.95 -83.55 -28.65 -84.7 -28.3 -85.65 -26.2 -81.05 -27.7 -79.0 -25.05 Q-79.5 -24.1 -80.35 -23.8 L-80.25 -23.5 -91.05 -22.85 -85.25 -24.25 -87.45 -25.05 -86.65 -28.4 -89.9 -24.25 -89.25 -28.45 -93.15 -24.6 -95.25 -24.8 -95.55 -25.65 -94.6 -28.1 -95.55 -28.65 -96.65 -28.65 -100.15 -23.2 -100.85 -24.15 -97.15 -30.3 -96.4 -29.75 M-83.3 -26.0 L-83.3 -24.55 -81.95 -24.55 -81.95 -26.0 -83.3 -26.0 M-115.0 -12.0 L-114.4 -9.8 -113.8 -12.0 -115.0 -12.0 M-108.6 -6.15 L-107.6 1.7 -104.15 -2.2 -107.6 2.45 -107.65 3.85 -103.05 -1.8 -103.75 -2.6 -103.75 -11.65 -103.8 -32.95 -112.75 -23.0 -113.2 -9.45 -108.6 -6.15 M-102.5 -12.4 L-102.5 -2.15 -76.3 -2.15 -76.3 -17.3 -76.3 -33.3 -102.5 -33.3 -102.5 -12.4 M-85.65 -17.85 L-87.65 -17.8 -88.6 -17.8 -82.15 -18.6 -85.4 -19.95 -86.05 -20.75 -90.9 -20.8 -80.8 -22.25 -81.6 -20.2 -78.95 -19.8 -79.05 -18.9 -82.15 -18.6 -81.5 -18.0 -85.65 -17.85 M-92.1 -16.4 L-90.6 -15.6 -89.3 -10.55 -90.2 -8.55 -89.95 -7.35 -91.6 -6.4 -92.15 -5.15 Q-93.6 -6.45 -95.45 -5.95 L-98.3 -5.5 -99.9 -6.1 -100.65 -8.9 -100.2 -9.75 -100.75 -12.9 -97.75 -14.4 -96.75 -16.15 -94.2 -15.6 -94.15 -15.6 -92.1 -16.4 M-96.85 -12.7 L-99.5 -12.55 -97.35 -9.5 Q-97.45 -9.0 -97.7 -8.9 L-99.3 -8.75 -98.55 -7.35 -91.55 -8.15 -91.9 -15.05 -92.8 -15.1 -93.3 -14.25 -96.45 -14.5 -96.85 -12.7 M-58.65 -28.4 L-61.9 -24.25 -61.25 -28.45 -65.15 -24.6 -67.25 -24.8 -67.55 -25.65 -66.6 -28.1 -67.55 -28.65 -68.65 -28.65 -70.3 -25.15 -72.15 -23.2 -72.85 -24.15 -69.15 -30.3 -68.4 -29.75 -64.8 -28.4 -65.6 -26.7 -63.8 -27.7 -64.25 -28.6 -64.35 -29.8 -60.7 -31.1 -55.1 -29.95 -55.55 -28.65 -56.7 -28.3 -57.65 -26.2 -53.05 -27.75 -51.3 -26.4 -50.95 -25.3 -52.25 -23.5 -63.05 -22.85 -57.25 -24.25 -59.45 -25.05 -58.65 -28.4 M-55.3 -26.0 L-55.3 -24.55 -53.95 -24.55 -53.95 -26.0 -55.3 -26.0 M-64.1 -16.4 L-62.6 -15.7 -61.35 -11.4 -62.2 -8.55 -61.95 -7.35 -63.6 -6.4 -64.15 -5.15 Q-67.1 -6.8 -70.6 -5.5 L-72.1 -6.3 -72.65 -8.9 -72.2 -9.75 -72.8 -12.75 -72.2 -13.65 -69.75 -14.4 -68.3 -16.1 -66.0 -15.8 -64.1 -16.4 M-60.05 -17.8 L-60.35 -17.8 -59.85 -17.85 -55.0 -18.3 -54.15 -18.6 -54.6 -19.05 -56.1 -19.85 -56.15 -19.9 -57.9 -20.75 -57.9 -20.8 -62.95 -20.85 -52.8 -22.25 -53.45 -20.35 -50.95 -19.8 -51.05 -18.9 -54.15 -18.6 -53.5 -18.0 -56.3 -17.9 -60.05 -17.8 M-68.6 -12.9 L-71.45 -12.2 -69.3 -9.55 -69.4 -9.25 -71.3 -8.75 -70.55 -7.35 -63.55 -8.15 -63.9 -15.05 -65.3 -14.25 -68.45 -14.5 -68.6 -12.9 M-48.25 15.35 L-48.25 -1.25 -75.2 -1.25 -75.2 19.8 -75.2 30.1 -48.25 30.1 -48.25 15.35 M-70.3 17.45 L-69.5 17.05 -69.05 15.9 -67.35 16.2 -66.2 16.4 -65.2 15.55 Q-62.0 15.35 -61.8 18.4 L-61.3 21.45 -62.2 23.45 -62.35 25.4 -63.6 25.6 -64.15 26.85 -72.15 25.75 -72.65 23.1 -71.4 21.95 -73.05 19.55 -71.65 18.1 -70.3 17.45 M-57.25 13.9 L-55.9 13.8 -54.15 13.4 -55.05 12.65 -57.9 11.25 -57.9 11.2 -62.95 11.15 -52.8 9.75 -53.6 11.8 -50.95 12.2 -51.05 13.1 -54.15 13.4 -53.5 14.0 -57.4 14.1 -60.6 14.2 -57.25 13.9 M-28.8 -6.15 L-28.35 -9.05 -28.4 -8.6 Q-28.4 -5.7 -26.35 -3.65 -24.35 -1.6 -21.45 -1.6 -18.55 -1.6 -16.5 -3.65 -14.5 -5.7 -14.5 -8.6 -14.5 -11.5 -16.5 -13.55 -18.55 -15.6 -21.45 -15.6 -24.35 -15.6 -26.35 -13.55 -27.9 -12.0 -28.25 -9.9 L-27.8 -13.5 -30.1 -11.7 -47.15 0.85 -47.4 8.25 -33.95 -2.15 -27.3 -3.6 -28.8 -6.15 M-23.35 -8.55 Q-23.35 -7.8 -22.8 -7.25 -22.25 -6.7 -21.5 -6.7 -20.75 -6.7 -20.2 -7.25 -19.65 -7.8 -19.65 -8.55 -19.65 -9.3 -20.2 -9.85 -20.75 -10.4 -21.5 -10.4 -22.25 -10.4 -22.8 -9.85 -23.35 -9.3 -23.35 -8.55 M-23.4 -6.7 Q-24.15 -7.45 -24.15 -8.5 -24.15 -9.55 -23.4 -10.25 -22.7 -11.0 -21.65 -11.0 -20.6 -11.0 -19.85 -10.25 -19.15 -9.55 -19.15 -8.5 -19.15 -7.45 -19.85 -6.7 -20.6 -6.0 -21.65 -6.0 -22.7 -6.0 -23.4 -6.7 M-29.45 -2.8 Q-32.65 -2.8 -34.9 -0.55 L-36.15 1.05 Q-37.15 2.75 -37.15 4.85 -37.15 6.95 -36.15 8.65 L-34.9 10.25 Q-32.65 12.5 -29.45 12.5 -26.25 12.5 -24.0 10.25 -21.75 8.0 -21.75 4.85 -21.75 1.7 -24.0 -0.55 -26.25 -2.8 -29.45 -2.8 M-18.4 -0.4 Q-20.65 1.8 -20.65 4.95 -20.65 8.1 -18.4 10.35 -16.15 12.55 -13.0 12.55 -9.85 12.55 -7.6 10.35 -5.35 8.1 -5.35 4.95 -5.35 1.8 -7.6 -0.4 -9.85 -2.65 -13.0 -2.65 -16.15 -2.65 -18.4 -0.4 M-76.4 15.65 L-76.4 -1.2 -102.65 -1.2 -102.65 18.8 -102.65 30.45 -76.4 30.45 -76.4 15.65 M-97.05 16.4 L-96.7 16.0 -96.15 16.05 -92.7 15.55 Q-90.85 15.55 -90.2 17.35 L-89.7 19.0 -89.3 21.45 -90.2 23.45 -90.35 25.4 -91.6 25.6 -92.15 26.85 -100.15 25.75 -100.65 23.1 -99.4 21.95 -101.05 19.55 -99.65 18.1 -97.75 17.6 -97.05 16.4 M-85.4 12.05 L-85.9 11.25 -90.9 11.2 -80.8 9.75 -81.6 11.8 -78.95 12.2 -79.05 13.1 -82.15 13.4 -81.5 14.0 -85.45 14.1 -88.6 14.2 -85.4 13.95 -84.3 13.85 -82.15 13.4 -83.75 12.55 -84.65 12.25 -85.4 12.05 M-9.1 4.6 Q-9.1 6.05 -10.1 7.05 -11.1 8.05 -12.55 8.05 -14.0 8.05 -15.0 7.05 -16.0 6.05 -16.0 4.6 -16.0 3.15 -15.0 2.15 -14.0 1.15 -12.55 1.15 -11.1 1.15 -10.1 2.15 -9.1 3.15 -9.1 4.6 M-14.35 2.9 Q-15.1 3.6 -15.1 4.65 -15.1 5.7 -14.35 6.45 -13.6 7.15 -12.55 7.15 -11.5 7.15 -10.75 6.45 -10.0 5.7 -10.0 4.65 -10.0 3.6 -10.75 2.9 -11.5 2.15 -12.55 2.15 -13.6 2.15 -14.35 2.9 M-15.15 13.95 L-14.5 12.9 -15.8 12.9 -15.15 13.95 M-19.0 21.3 Q-18.2 20.5 -18.2 19.35 -18.2 18.2 -19.0 17.4 -19.85 16.6 -21.0 16.6 -22.15 16.6 -22.95 17.4 -23.8 18.2 -23.8 19.35 -23.8 20.5 -22.95 21.3 -22.15 22.1 -21.0 22.1 -19.85 22.1 -19.0 21.3 M-17.65 19.45 Q-17.65 20.85 -18.6 21.85 -19.6 22.8 -21.0 22.8 -22.4 22.8 -23.35 21.85 -24.35 20.85 -24.35 19.45 -24.35 18.05 -23.35 17.1 -22.4 16.1 -21.0 16.1 -19.6 16.1 -18.6 17.1 -17.65 18.05 -17.65 19.45 M-15.85 14.25 Q-18.05 12.05 -21.1 12.05 -24.15 12.05 -26.3 14.25 -28.5 16.4 -28.5 19.45 -28.5 22.5 -26.3 24.7 -24.15 26.85 -21.1 26.85 -18.05 26.85 -15.85 24.7 -13.7 22.5 -13.7 19.45 -13.7 16.4 -15.85 14.25 M-7.8 17.05 Q-6.8 16.0 -5.35 16.0 -3.9 16.0 -2.85 17.05 -1.85 18.1 -1.85 19.55 -1.85 21.0 -2.85 22.05 -3.9 23.1 -5.35 23.1 -6.8 23.1 -7.8 22.05 -8.85 21.0 -8.85 19.55 -8.85 18.1 -7.8 17.05 M-5.45 16.5 Q-6.65 16.5 -7.5 17.4 -8.35 18.25 -8.35 19.45 -8.35 20.65 -7.5 21.55 -6.65 22.4 -5.45 22.4 -4.25 22.4 -3.4 21.55 -2.55 20.65 -2.55 19.45 -2.55 18.25 -3.4 17.4 -4.25 16.5 -5.45 16.5 M-29.3 1.35 Q-28.05 1.35 -27.15 2.25 -26.3 3.15 -26.3 4.4 -26.3 5.65 -27.15 6.55 -28.05 7.45 -29.3 7.45 -30.55 7.45 -31.4 6.55 -32.3 5.65 -32.3 4.4 -32.3 3.15 -31.4 2.25 -30.55 1.35 -29.3 1.35 M-29.35 2.2 Q-30.3 2.2 -30.95 2.85 -31.6 3.5 -31.6 4.4 -31.6 5.3 -30.95 5.95 -30.3 6.6 -29.35 6.6 -28.4 6.6 -27.75 5.95 -27.1 5.3 -27.1 4.4 -27.1 3.5 -27.75 2.85 -28.4 2.2 -29.35 2.2 M-21.5 9.1 L-22.0 10.05 -20.15 10.4 -21.5 9.1 M-47.35 14.05 L-47.35 16.8 Q-43.55 13.2 -38.8 11.5 L-36.7 10.95 -38.05 7.15 -36.65 0.3 -47.45 9.15 -47.35 14.05 M-30.85 14.1 L-30.55 13.95 -28.2 12.9 -31.9 12.75 -30.85 14.1 M-37.2 16.35 L-36.15 16.5 Q-35.35 16.75 -34.75 17.35 -33.75 18.35 -33.75 19.75 -33.75 21.15 -34.75 22.15 -35.35 22.75 -36.15 23.0 L-37.2 23.15 Q-38.65 23.15 -39.65 22.15 -40.65 21.15 -40.65 19.75 -40.65 18.35 -39.65 17.35 -38.65 16.35 -37.2 16.35 M-36.15 17.0 L-37.25 16.8 Q-38.45 16.8 -39.25 17.65 -40.1 18.45 -40.1 19.65 -40.1 20.85 -39.25 21.7 -38.45 22.5 -37.25 22.5 L-36.15 22.3 -35.2 21.7 Q-34.4 20.85 -34.4 19.65 -34.4 18.45 -35.2 17.65 -35.65 17.2 -36.15 17.0 M-43.5 24.85 L-43.7 22.9 -42.2 25.0 Q-40.1 27.1 -37.1 27.1 L-36.15 27.05 Q-33.75 26.75 -31.95 25.0 -29.85 22.85 -29.85 19.85 -29.85 16.85 -31.95 14.75 -33.75 12.95 -36.15 12.65 L-37.1 12.6 Q-40.1 12.6 -42.2 14.75 -43.75 16.25 -44.2 18.25 L-44.5 15.3 -47.3 17.55 -47.1 26.8 -47.05 30.25 -40.05 27.95 -40.0 27.95 -40.05 27.9 -43.5 24.85 M-29.2 22.35 L-30.0 24.55 -31.25 25.7 -36.15 28.05 -42.15 30.15 -42.25 30.25 -36.15 30.35 Q-29.05 30.1 -22.2 27.95 L-24.35 27.45 Q-28.05 26.15 -29.2 22.35 M-29.3 17.5 L-27.95 13.75 -30.65 15.0 -29.3 17.5 M-6.75 28.05 L-7.3 28.0 Q-11.25 27.15 -13.45 23.6 -14.15 24.65 -15.1 25.35 -20.25 29.4 -27.1 30.2 L-10.45 29.65 Q-6.75 29.1 -6.75 28.05 M-55.3 6.0 L-55.3 7.45 -53.95 7.45 -53.95 6.0 -55.3 6.0 M-52.6 4.55 L-52.3 4.95 -52.1 5.45 -50.95 6.7 -52.25 8.5 -63.05 9.15 -57.25 7.75 -59.45 6.95 -58.65 3.6 -61.9 7.75 -61.25 3.55 -65.15 7.4 -67.25 7.2 -67.55 6.35 -66.6 3.9 -67.55 3.35 -68.85 3.65 -72.15 8.8 -72.85 7.85 -69.15 1.7 -68.4 2.25 -66.75 2.15 -64.8 3.6 -65.6 5.3 -63.8 4.3 Q-63.55 3.95 -63.65 3.8 -63.8 3.5 -64.25 3.4 L-64.35 2.2 -60.7 0.9 -55.1 2.05 -55.55 3.35 -56.7 3.7 -57.65 5.8 Q-55.95 4.0 -53.6 4.15 L-53.05 4.35 Q-52.85 4.4 -52.6 4.55 M-78.95 6.7 L-80.25 8.5 -91.05 9.15 -85.25 7.75 -87.45 6.95 -86.65 3.6 -89.9 7.75 -89.25 3.55 -93.15 7.4 -95.25 7.2 -95.55 6.35 -94.6 3.9 -95.55 3.35 -96.85 3.65 -100.15 8.8 -100.85 7.85 -97.15 1.7 -96.4 2.25 -92.8 3.6 -93.6 5.3 -91.8 4.3 Q-91.55 3.95 -91.65 3.8 -91.8 3.5 -92.25 3.4 L-92.35 2.2 -88.7 0.9 -83.1 2.05 -83.55 3.35 -84.7 3.7 -85.65 5.8 Q-83.8 3.8 -81.0 4.3 L-80.55 4.55 -80.3 5.0 -80.1 5.45 Q-79.7 5.5 -79.5 5.8 L-78.95 6.7 M-65.3 17.75 L-68.45 17.5 -68.85 19.3 -71.5 19.6 -69.35 22.5 -69.35 22.85 -69.55 23.3 -71.3 23.25 -70.55 24.65 -63.55 23.85 Q-61.75 19.3 -64.7 16.9 L-65.3 17.75 M-83.3 6.0 L-83.3 7.45 -81.95 7.45 -81.95 6.0 -83.3 6.0 M-93.3 17.75 L-96.45 17.5 -96.85 19.3 -99.5 19.45 -97.35 22.5 Q-97.15 24.55 -99.3 23.25 L-98.55 24.65 -91.55 23.85 -90.9 20.95 -92.2 16.85 -93.3 17.75 M-103.55 19.05 L-103.95 0.4 -107.65 4.8 -107.45 22.2 -107.35 30.45 -103.35 30.75 -103.55 20.5 -103.55 19.05" fill="#424348" fill-rule="evenodd" stroke="none"/>
    <path d="M51.5 29.05 L51.3 -22.1 52.55 -22.45 52.9 30.0 51.8 30.0 51.5 29.15 51.5 29.1 51.5 29.05 M79.7 -17.9 L79.7 -17.95 Q80.15 -18.2 79.7 -17.9 M68.85 -18.7 L68.85 -18.3 68.4 -18.3 68.4 -18.7 68.85 -18.7 M85.5 -22.55 L85.65 15.7 85.3 1.9 84.85 29.5 83.85 29.55 83.85 -22.9 84.45 -22.2 85.0 2.8 85.5 -22.55 M75.8 29.85 L74.75 29.9 75.95 -22.95 75.8 29.85 M-23.35 -8.55 Q-23.35 -9.3 -22.8 -9.85 -22.25 -10.4 -21.5 -10.4 -20.75 -10.4 -20.2 -9.85 -19.65 -9.3 -19.65 -8.55 -19.65 -7.8 -20.2 -7.25 -20.75 -6.7 -21.5 -6.7 -22.25 -6.7 -22.8 -7.25 -23.35 -7.8 -23.35 -8.55 M-14.35 2.9 Q-13.6 2.15 -12.55 2.15 -11.5 2.15 -10.75 2.9 -10.0 3.6 -10.0 4.65 -10.0 5.7 -10.75 6.45 -11.5 7.15 -12.55 7.15 -13.6 7.15 -14.35 6.45 -15.1 5.7 -15.1 4.65 -15.1 3.6 -14.35 2.9 M-19.0 21.3 Q-19.85 22.1 -21.0 22.1 -22.15 22.1 -22.95 21.3 -23.8 20.5 -23.8 19.35 -23.8 18.2 -22.95 17.4 -22.15 16.6 -21.0 16.6 -19.85 16.6 -19.0 17.4 -18.2 18.2 -18.2 19.35 -18.2 20.5 -19.0 21.3 M-5.45 16.5 Q-4.25 16.5 -3.4 17.4 -2.55 18.25 -2.55 19.45 -2.55 20.65 -3.4 21.55 -4.25 22.4 -5.45 22.4 -6.65 22.4 -7.5 21.55 -8.35 20.65 -8.35 19.45 -8.35 18.25 -7.5 17.4 -6.65 16.5 -5.45 16.5 M-29.35 2.2 Q-28.4 2.2 -27.75 2.85 -27.1 3.5 -27.1 4.4 -27.1 5.3 -27.75 5.95 -28.4 6.6 -29.35 6.6 -30.3 6.6 -30.95 5.95 -31.6 5.3 -31.6 4.4 -31.6 3.5 -30.95 2.85 -30.3 2.2 -29.35 2.2 M-36.15 17.0 Q-35.65 17.2 -35.2 17.65 -34.4 18.45 -34.4 19.65 -34.4 20.85 -35.2 21.7 L-36.15 22.3 -37.25 22.5 Q-38.45 22.5 -39.25 21.7 -40.1 20.85 -40.1 19.65 -40.1 18.45 -39.25 17.65 -38.45 16.8 -37.25 16.8 L-36.15 17.0" fill="#625948" fill-rule="evenodd" stroke="none"/>
    <path d="M-33.95 -2.15 L-47.4 8.25 -47.15 0.85 -30.1 -11.7 -27.8 -13.5 -28.25 -9.9 Q-27.9 -12.0 -26.35 -13.55 -24.35 -15.6 -21.45 -15.6 -18.55 -15.6 -16.5 -13.55 -14.5 -11.5 -14.5 -8.6 -14.5 -5.7 -16.5 -3.65 -18.55 -1.6 -21.45 -1.6 -24.35 -1.6 -26.35 -3.65 -28.4 -5.7 -28.4 -8.6 L-28.35 -9.05 -28.8 -6.15 -33.95 -2.15 M-23.4 -6.7 Q-22.7 -6.0 -21.65 -6.0 -20.6 -6.0 -19.85 -6.7 -19.15 -7.45 -19.15 -8.5 -19.15 -9.55 -19.85 -10.25 -20.6 -11.0 -21.65 -11.0 -22.7 -11.0 -23.4 -10.25 -24.15 -9.55 -24.15 -8.5 -24.15 -7.45 -23.4 -6.7" fill="#e4b1cb" fill-rule="evenodd" stroke="none"/>
    <path d="M-29.45 -2.8 Q-26.25 -2.8 -24.0 -0.55 -21.75 1.7 -21.75 4.85 -21.75 8.0 -24.0 10.25 -26.25 12.5 -29.45 12.5 -32.65 12.5 -34.9 10.25 L-36.15 8.65 Q-37.15 6.95 -37.15 4.85 -37.15 2.75 -36.15 1.05 L-34.9 -0.55 Q-32.65 -2.8 -29.45 -2.8 M-29.3 1.35 Q-30.55 1.35 -31.4 2.25 -32.3 3.15 -32.3 4.4 -32.3 5.65 -31.4 6.55 -30.55 7.45 -29.3 7.45 -28.05 7.45 -27.15 6.55 -26.3 5.65 -26.3 4.4 -26.3 3.15 -27.15 2.25 -28.05 1.35 -29.3 1.35 M-38.05 7.15 L-47.35 14.05 -47.45 9.15 -36.65 0.3 -38.05 7.15" fill="#6666cc" fill-rule="evenodd" stroke="none"/>
    <path d="M-18.4 -0.4 Q-16.15 -2.65 -13.0 -2.65 -9.85 -2.65 -7.6 -0.4 -5.35 1.8 -5.35 4.95 -5.35 8.1 -7.6 10.35 -9.85 12.55 -13.0 12.55 -16.15 12.55 -18.4 10.35 -20.65 8.1 -20.65 4.95 -20.65 1.8 -18.4 -0.4 M-9.1 4.6 Q-9.1 3.15 -10.1 2.15 -11.1 1.15 -12.55 1.15 -14.0 1.15 -15.0 2.15 -16.0 3.15 -16.0 4.6 -16.0 6.05 -15.0 7.05 -14.0 8.05 -12.55 8.05 -11.1 8.05 -10.1 7.05 -9.1 6.05 -9.1 4.6" fill="#33cc99" fill-rule="evenodd" stroke="none"/>
    <path d="M-37.2 16.35 Q-38.65 16.35 -39.65 17.35 -40.65 18.35 -40.65 19.75 -40.65 21.15 -39.65 22.15 -38.65 23.15 -37.2 23.15 L-36.15 23.0 Q-35.35 22.75 -34.75 22.15 -33.75 21.15 -33.75 19.75 -33.75 18.35 -34.75 17.35 -35.35 16.75 -36.15 16.5 L-37.2 16.35 M-47.1 26.8 L-47.3 17.55 -44.5 15.3 -44.2 18.25 Q-43.75 16.25 -42.2 14.75 -40.1 12.6 -37.1 12.6 L-36.15 12.65 Q-33.75 12.95 -31.95 14.75 -29.85 16.85 -29.85 19.85 -29.85 22.85 -31.95 25.0 -33.75 26.75 -36.15 27.05 L-37.1 27.1 Q-40.1 27.1 -42.2 25.0 L-43.7 22.9 -43.5 24.85 -47.1 26.8" fill="#ffcc33" fill-rule="evenodd" stroke="none"/>
    <path d="M-17.65 19.45 Q-17.65 18.05 -18.6 17.1 -19.6 16.1 -21.0 16.1 -22.4 16.1 -23.35 17.1 -24.35 18.05 -24.35 19.45 -24.35 20.85 -23.35 21.85 -22.4 22.8 -21.0 22.8 -19.6 22.8 -18.6 21.85 -17.65 20.85 -17.65 19.45 M-15.85 14.25 Q-13.7 16.4 -13.7 19.45 -13.7 22.5 -15.85 24.7 -18.05 26.85 -21.1 26.85 -24.15 26.85 -26.3 24.7 -28.5 22.5 -28.5 19.45 -28.5 16.4 -26.3 14.25 -24.15 12.05 -21.1 12.05 -18.05 12.05 -15.85 14.25" fill="#993399" fill-rule="evenodd" stroke="none"/>
    <path d="M8.25 -9.4 L9.2 -11.3 7.5 -12.85 6.9 -10.6 6.3 -9.45 7.15 -8.05 7.65 2.15 9.15 -8.35 8.25 -9.4 M5.2 -16.45 L10.9 -16.65 11.25 23.85 11.3 23.85 11.35 28.95 5.3 28.9 5.2 -16.45 M146.05 -19.1 L144.1 -8.35 135.75 30.4 134.45 30.35 Q138.85 10.45 143.6 -9.35 L146.05 -19.1 M9.3 5.1 L8.4 3.25 8.1 13.95 9.65 7.25 9.3 5.1 M7.75 14.95 L7.75 20.1 9.25 20.1 9.25 14.95 7.75 14.95 M1.15 19.75 Q1.05 22.75 -0.9 24.9 -3.0 27.1 -5.95 27.1 -8.9 27.1 -10.95 24.9 -13.05 22.65 -13.05 19.5 -13.05 16.35 -10.95 14.15 -8.9 11.9 -5.95 11.9 -3.0 11.9 -0.9 14.15 1.05 16.25 1.15 19.25 L1.15 19.75 M8.45 20.2 L7.95 20.5 7.75 21.1 7.95 21.75 Q8.15 22.0 8.45 22.0 L8.95 21.75 9.15 21.1 8.95 20.5 Q8.75 20.2 8.45 20.2 M-7.8 17.05 Q-8.85 18.1 -8.85 19.55 -8.85 21.0 -7.8 22.05 -6.8 23.1 -5.35 23.1 -3.9 23.1 -2.85 22.05 -1.85 21.0 -1.85 19.55 -1.85 18.1 -2.85 17.05 -3.9 16.0 -5.35 16.0 -6.8 16.0 -7.8 17.05" fill="#999999" fill-rule="evenodd" stroke="none"/>
    <path d="M94.5 -8.6 L95.2 -6.8 Q93.75 -6.7 94.4 -7.95 L94.5 -8.6 M93.2 -6.35 L93.9 -3.2 93.4 -2.0 95.45 -0.2 95.65 -1.9 96.4 -2.75 96.2 -4.25 Q98.9 -6.95 95.75 -10.25 L94.3 -11.35 Q91.75 -10.5 91.8 -7.8 91.85 -6.4 93.2 -6.35 M89.6 -12.4 L98.1 -12.15 98.1 29.8 90.15 30.45 89.6 -12.4 M103.4 -13.3 L104.85 -13.1 106.25 -12.9 107.6 -12.5 107.35 30.2 100.55 29.75 100.0 -12.45 Q99.85 -13.55 101.85 -13.3 L103.4 -13.3 M103.8 -11.95 Q101.45 -10.9 102.2 -8.15 L102.6 -7.1 102.15 -6.1 103.75 -3.2 103.0 -2.0 103.7 0.95 105.85 0.1 105.4 -1.55 106.4 -4.0 105.1 -5.3 Q108.3 -7.9 105.75 -10.95 105.0 -11.85 103.8 -11.95 M104.6 -9.4 L104.7 -8.9 104.6 -8.4 104.3 -8.2 104.05 -8.4 Q103.9 -8.6 103.9 -8.9 L104.05 -9.4 104.3 -9.6 104.6 -9.4 M-6.75 28.05 Q-6.75 29.1 -10.45 29.65 L-27.1 30.2 Q-20.25 29.4 -15.1 25.35 -14.15 24.65 -13.45 23.6 -11.25 27.15 -7.3 28.0 L-6.75 28.05" fill="#666666" fill-rule="evenodd" stroke="none"/>
    <path d="M-29.3 17.5 L-30.65 15.0 -27.95 13.75 -29.3 17.5 M-29.2 22.35 Q-28.05 26.15 -24.35 27.45 L-22.2 27.95 Q-29.05 30.1 -36.15 30.35 L-42.25 30.25 -42.15 30.15 -36.15 28.05 -31.25 25.7 -30.0 24.55 -29.2 22.35" fill="#561d56" fill-rule="evenodd" stroke="none"/>
    <path d="M-38.05 7.15 L-36.7 10.95 -38.8 11.5 Q-43.55 13.2 -47.35 16.8 L-47.35 14.05 -38.05 7.15 M-30.85 14.1 L-31.9 12.75 -28.2 12.9 -30.55 13.95 -30.85 14.1" fill="#28297b" fill-rule="evenodd" stroke="none"/>
    <path d="M-47.1 26.8 L-43.5 24.85 -40.05 27.9 -40.05 27.95 -47.05 30.25 -47.1 26.8" fill="#c78b01" fill-rule="evenodd" stroke="none"/>
    <path d="M-15.15 13.95 L-15.8 12.9 -14.5 12.9 -15.15 13.95 M-21.5 9.1 L-20.15 10.4 -22.0 10.05 -21.5 9.1" fill="#207d5a" fill-rule="evenodd" stroke="none"/>
    <path d="M-33.95 -2.15 L-28.8 -6.15 -27.3 -3.6 -33.95 -2.15" fill="#ca6498" fill-rule="evenodd" stroke="none"/>
    <path d="M-48.5 -33.3 L-48.5 -17.35 -58.25 -12.9 -56.3 -17.9 -53.5 -18.0 -54.15 -18.6 -51.05 -18.9 -50.95 -19.8 -53.45 -20.35 -52.8 -22.25 -62.95 -20.85 -57.9 -20.8 -57.9 -20.75 -56.15 -19.9 -56.1 -19.85 -54.6 -19.05 -55.0 -18.3 -59.85 -17.85 -60.35 -17.8 -60.05 -17.8 -64.1 -16.4 -66.0 -15.8 -68.3 -16.1 -69.75 -14.4 -72.2 -13.65 -72.8 -12.75 -75.15 -11.75 -75.15 -33.45 -55.5 -33.45 -48.5 -33.45 -48.5 -33.3 M-209.0 -4.0 L-209.8 -2.1 Q-208.8 -0.7 -208.85 0.85 L-209.15 6.85 Q-209.95 16.65 -209.85 26.7 L-208.65 29.2 -209.85 30.75 -212.05 30.75 -212.35 27.5 Q-212.05 22.4 -211.35 17.3 -211.0 14.55 -211.35 11.9 -212.15 6.45 -211.2 1.05 L-212.5 -2.55 -212.05 -4.1 -215.95 -7.5 -221.15 -5.7 -221.8 -4.6 -223.25 -4.7 Q-223.7 -5.7 -222.65 -6.35 -213.4 -11.9 -204.65 -6.1 L-204.65 -4.55 -206.55 -5.1 -209.0 -4.0 M-210.2 -18.85 L-209.6 -18.8 -209.4 -18.5 -208.75 -17.2 Q-213.4 -19.2 -218.15 -17.15 L-218.35 -17.35 Q-216.7 -18.35 -215.1 -19.4 L-210.2 -18.85 M-191.65 -18.5 L-189.25 -19.35 -189.05 -19.4 -186.75 -19.4 Q-182.3 -19.2 -182.85 -16.7 -184.5 -18.0 -186.65 -18.25 -188.3 -18.5 -189.8 -17.85 -191.85 -16.95 -193.2 -17.05 L-192.85 -17.7 -191.65 -18.5 M-178.4 -4.95 L-178.35 -4.55 -178.4 -4.55 -180.8 -4.05 -181.35 -3.0 -182.3 -1.7 -181.55 -0.1 -182.7 2.25 -182.1 3.75 -182.7 31.7 -185.3 31.7 -185.9 28.9 -185.0 27.7 -184.35 4.2 Q-186.45 2.35 -184.5 0.25 L-185.3 -0.75 -185.2 -2.1 -186.0 -4.85 Q-185.8 -5.65 -186.55 -6.05 -191.2 -8.35 -196.1 -5.4 L-196.4 -4.3 -197.8 -4.65 -197.6 -5.25 Q-190.15 -10.7 -181.15 -7.55 -178.8 -6.75 -178.4 -4.95 M-124.15 -18.15 L-124.15 -18.9 -122.7 -18.9 -115.8 -18.9 -115.5 -18.9 -115.5 -18.65 -115.5 -17.35 -124.15 -17.35 -124.15 -18.15 M-123.75 -2.6 L-123.95 -3.5 Q-124.25 -6.1 -122.15 -7.55 L-128.9 -6.25 Q-128.8 -7.45 -127.65 -7.9 -121.65 -9.95 -115.35 -8.8 -111.6 -8.25 -110.65 -5.4 L-117.7 -7.35 -116.2 -2.55 -116.3 -2.35 Q-120.2 2.15 -123.75 -2.6 M-83.3 -26.0 L-81.95 -26.0 -81.95 -24.55 -83.3 -24.55 -83.3 -26.0 M-96.4 -29.75 L-97.15 -30.3 -100.85 -24.15 -100.15 -23.2 -96.65 -28.65 -95.55 -28.65 -94.6 -28.1 -95.55 -25.65 -95.25 -24.8 -93.15 -24.6 -89.25 -28.45 -89.9 -24.25 -86.65 -28.4 -87.45 -25.05 -85.25 -24.25 -91.05 -22.85 -80.25 -23.5 -80.35 -23.8 Q-79.5 -24.1 -79.0 -25.05 L-81.05 -27.7 -85.65 -26.2 -84.7 -28.3 -83.55 -28.65 -83.1 -29.95 -88.7 -31.1 -92.35 -29.8 -92.25 -28.6 Q-91.8 -28.5 -91.65 -28.2 -91.55 -28.05 -91.8 -27.7 L-93.6 -26.7 -92.8 -28.4 -94.85 -29.85 -96.4 -29.75 M-76.3 -17.3 L-87.2 -13.0 -85.65 -17.85 -81.5 -18.0 -82.15 -18.6 -79.05 -18.9 -78.95 -19.8 -81.6 -20.2 -80.8 -22.25 -90.9 -20.8 -86.05 -20.75 -85.4 -19.95 -82.15 -18.6 -88.6 -17.8 -87.65 -17.8 -92.1 -16.4 -94.15 -15.6 -94.2 -15.6 -96.75 -16.15 -97.75 -14.4 -100.75 -12.9 -102.5 -12.4 -102.5 -33.3 -76.3 -33.3 -76.3 -17.3 M-55.3 -26.0 L-53.95 -26.0 -53.95 -24.55 -55.3 -24.55 -55.3 -26.0 M-58.65 -28.4 L-59.45 -25.05 -57.25 -24.25 -63.05 -22.85 -52.25 -23.5 -50.95 -25.3 -51.3 -26.4 -53.05 -27.75 -57.65 -26.2 -56.7 -28.3 -55.55 -28.65 -55.1 -29.95 -60.7 -31.1 -64.35 -29.8 -64.25 -28.6 -63.8 -27.7 -65.6 -26.7 -64.8 -28.4 -68.4 -29.75 -69.15 -30.3 -72.85 -24.15 -72.15 -23.2 -70.3 -25.15 -68.65 -28.65 -67.55 -28.65 -66.6 -28.1 -67.55 -25.65 -67.25 -24.8 -65.15 -24.6 -61.25 -28.45 -61.9 -24.25 -58.65 -28.4 M-75.2 19.8 L-75.2 -1.25 -48.25 -1.25 -48.25 15.35 -59.9 18.75 -57.4 14.1 -53.5 14.0 -54.15 13.4 -51.05 13.1 -50.95 12.2 -53.6 11.8 -52.8 9.75 -62.95 11.15 -57.9 11.2 -57.9 11.25 -55.05 12.65 -55.9 13.8 -57.25 13.9 -56.95 12.8 -67.35 16.2 -69.05 15.9 -69.5 17.05 -70.3 17.45 -75.2 19.8 M-102.65 18.8 L-102.65 -1.2 -76.4 -1.2 -76.4 15.65 -87.3 19.65 -85.45 14.1 -81.5 14.0 -82.15 13.4 -79.05 13.1 -78.95 12.2 -81.6 11.8 -80.8 9.75 -90.9 11.2 -85.9 11.25 -85.4 12.05 -96.15 16.05 -96.7 16.0 -97.05 16.4 -102.65 18.8 M-52.6 4.55 Q-52.85 4.4 -53.05 4.35 L-53.6 4.15 Q-55.95 4.0 -57.65 5.8 L-56.7 3.7 -55.55 3.35 -55.1 2.05 -60.7 0.9 -64.35 2.2 -64.25 3.4 Q-63.8 3.5 -63.65 3.8 -63.55 3.95 -63.8 4.3 L-65.6 5.3 -64.8 3.6 -66.75 2.15 -68.4 2.25 -69.15 1.7 -72.85 7.85 -72.15 8.8 -68.85 3.65 -67.55 3.35 -66.6 3.9 -67.55 6.35 -67.25 7.2 -65.15 7.4 -61.25 3.55 -61.9 7.75 -58.65 3.6 -59.45 6.95 -57.25 7.75 -63.05 9.15 -52.25 8.5 -50.95 6.7 -52.1 5.45 -52.3 4.95 -52.6 4.55 M-55.3 6.0 L-53.95 6.0 -53.95 7.45 -55.3 7.45 -55.3 6.0 M-78.95 6.7 L-79.5 5.8 Q-79.7 5.5 -80.1 5.45 L-80.3 5.0 -80.55 4.55 -81.0 4.3 Q-83.8 3.8 -85.65 5.8 L-84.7 3.7 -83.55 3.35 -83.1 2.05 -88.7 0.9 -92.35 2.2 -92.25 3.4 Q-91.8 3.5 -91.65 3.8 -91.55 3.95 -91.8 4.3 L-93.6 5.3 -92.8 3.6 -96.4 2.25 -97.15 1.7 -100.85 7.85 -100.15 8.8 -96.85 3.65 -95.55 3.35 -94.6 3.9 -95.55 6.35 -95.25 7.2 -93.15 7.4 -89.25 3.55 -89.9 7.75 -86.65 3.6 -87.45 6.95 -85.25 7.75 -91.05 9.15 -80.25 8.5 -78.95 6.7 M-83.3 6.0 L-81.95 6.0 -81.95 7.45 -83.3 7.45 -83.3 6.0 M-84.65 12.25 L-83.75 12.55 -84.3 13.85 -85.4 13.95 -84.65 12.25 M-119.6 23.6 Q-119.4 23.35 -119.1 23.35 -118.8 23.35 -118.55 23.6 L-118.35 24.15 -118.55 24.75 -119.1 24.95 -119.6 24.75 -119.85 24.15 -119.6 23.6 M-118.65 20.4 L-118.85 20.95 Q-119.05 21.15 -119.35 21.15 L-119.85 20.95 -120.05 20.4 -119.85 19.9 -119.35 19.65 Q-119.05 19.65 -118.85 19.9 L-118.65 20.4 M-121.4 15.0 Q-121.25 15.15 -121.25 15.4 L-121.4 15.85 -121.85 16.0 -122.25 15.85 -122.45 15.4 -122.25 15.0 -121.85 14.8 -121.4 15.0 M-121.2 9.45 L-120.65 9.65 -120.45 10.15 -120.65 10.65 -121.2 10.85 -121.7 10.65 -121.95 10.15 -121.7 9.65 -121.2 9.45 M-117.7 5.1 Q-117.45 5.35 -117.45 5.7 L-117.7 6.35 -118.35 6.6 -118.95 6.35 -119.25 5.7 -118.95 5.1 Q-118.7 4.8 -118.35 4.8 -118.0 4.8 -117.7 5.1 M-116.3 0.1 Q-115.95 0.45 -115.95 0.95 -115.95 1.45 -116.3 1.85 -116.7 2.2 -117.2 2.2 -117.7 2.2 -118.05 1.85 -118.45 1.45 -118.45 0.95 -118.45 0.45 -118.05 0.1 -117.7 -0.3 -117.2 -0.3 -116.7 -0.3 -116.3 0.1" fill="#ffffff" fill-rule="evenodd" stroke="none"/>
    <path d="M-48.5 -17.35 L-48.5 -2.15 -75.15 -2.15 -75.15 -11.75 -72.8 -12.75 -72.2 -9.75 -72.65 -8.9 -72.1 -6.3 -70.6 -5.5 Q-67.1 -6.8 -64.15 -5.15 L-63.6 -6.4 -61.95 -7.35 -62.2 -8.55 -61.35 -11.4 -62.6 -15.7 -64.1 -16.4 -60.05 -17.8 -56.3 -17.9 -58.25 -12.9 -48.5 -17.35 M-76.3 -17.3 L-76.3 -2.15 -102.5 -2.15 -102.5 -12.4 -100.75 -12.9 -100.2 -9.75 -100.65 -8.9 -99.9 -6.1 -98.3 -5.5 -95.45 -5.95 Q-93.6 -6.45 -92.15 -5.15 L-91.6 -6.4 -89.95 -7.35 -90.2 -8.55 -89.3 -10.55 -90.6 -15.6 -92.1 -16.4 -87.65 -17.8 -85.65 -17.85 -87.2 -13.0 -76.3 -17.3 M-55.0 -18.3 L-54.6 -19.05 -54.15 -18.6 -55.0 -18.3 M-75.2 19.8 L-70.3 17.45 -71.65 18.1 -73.05 19.55 -71.4 21.95 -72.65 23.1 -72.15 25.75 -64.15 26.85 -63.6 25.6 -62.35 25.4 -62.2 23.45 -61.3 21.45 -61.8 18.4 Q-62.0 15.35 -65.2 15.55 L-66.2 16.4 -67.35 16.2 -56.95 12.8 -57.25 13.9 -60.6 14.2 -57.4 14.1 -59.9 18.75 -48.25 15.35 -48.25 30.1 -75.2 30.1 -75.2 19.8 M-55.9 13.8 L-55.05 12.65 -54.15 13.4 -55.9 13.8 M-102.65 18.8 L-97.05 16.4 -97.75 17.6 -99.65 18.1 -101.05 19.55 -99.4 21.95 -100.65 23.1 -100.15 25.75 -92.15 26.85 -91.6 25.6 -90.35 25.4 -90.2 23.45 -89.3 21.45 -89.7 19.0 -90.2 17.35 Q-90.85 15.55 -92.7 15.55 L-96.15 16.05 -85.4 12.05 -84.65 12.25 -85.4 13.95 -88.6 14.2 -85.45 14.1 -87.3 19.65 -76.4 15.65 -76.4 30.45 -102.65 30.45 -102.65 18.8 M-83.75 12.55 L-82.15 13.4 -84.3 13.85 -83.75 12.55" fill="#0099ff" fill-rule="evenodd" stroke="none"/>
    <path d="M-108.6 -6.15 L-103.75 -11.65 -103.75 -2.6 -103.05 -1.8 -107.65 3.85 -107.6 2.45 -104.15 -2.2 -107.6 1.7 -108.6 -6.15 M-107.45 22.2 L-103.55 19.05 -103.55 20.5 -103.35 30.75 -107.35 30.45 -107.45 22.2 M-103.55 20.5 L-103.6 20.5 -103.55 20.5" fill="#0172ad" fill-rule="evenodd" stroke="none"/>
    <path d="M-103.75 -11.65 L-108.6 -6.15 -113.2 -9.45 -112.75 -23.0 -103.8 -32.95 -103.75 -11.65 M-107.45 22.2 L-107.65 4.8 -103.95 0.4 -103.55 19.05 -107.45 22.2" fill="#ebf2fa" fill-rule="evenodd" stroke="none"/>
    <path d="M-96.85 -12.7 L-96.45 -14.5 -93.3 -14.25 -92.8 -15.1 -91.9 -15.05 -91.55 -8.15 -98.55 -7.35 -99.3 -8.75 -97.7 -8.9 Q-97.45 -9.0 -97.35 -9.5 L-99.5 -12.55 -96.85 -12.7 M-68.6 -12.9 L-68.45 -14.5 -65.3 -14.25 -63.9 -15.05 -63.55 -8.15 -70.55 -7.35 -71.3 -8.75 -69.4 -9.25 -69.3 -9.55 -71.45 -12.2 -68.6 -12.9 M-65.3 17.75 L-64.7 16.9 Q-61.75 19.3 -63.55 23.85 L-70.55 24.65 -71.3 23.25 -69.55 23.3 -69.35 22.85 -69.35 22.5 -71.5 19.6 -68.85 19.3 -68.45 17.5 -65.3 17.75 M-93.3 17.75 L-92.2 16.85 -90.9 20.95 -91.55 23.85 -98.55 24.65 -99.3 23.25 Q-97.15 24.55 -97.35 22.5 L-99.5 19.45 -96.85 19.3 -96.45 17.5 -93.3 17.75" fill="#cc0000" fill-rule="evenodd" stroke="none"/>
    <path d="M-212.05 -4.1 Q-217.9 -4.8 -223.35 -2.55 L-223.55 -2.35 -224.0 32.0 Q-224.85 32.2 -224.85 31.1 -224.95 13.7 -224.55 -3.7 -224.5 -6.9 -221.45 -8.15 -212.25 -12.2 -204.55 -6.65 -203.45 -5.85 -202.55 -4.65 L-202.4 31.5 -203.85 31.9 -203.9 31.9 -203.7 -1.95 -209.0 -4.0 -206.55 -5.1 -204.65 -4.55 -204.65 -6.1 Q-213.4 -11.9 -222.65 -6.35 -223.7 -5.7 -223.25 -4.7 L-221.8 -4.6 -221.15 -5.7 -215.95 -7.5 -212.05 -4.1 M-210.2 -18.85 L-215.1 -19.4 Q-216.7 -18.35 -218.35 -17.35 L-218.15 -17.15 Q-213.4 -19.2 -208.75 -17.2 L-209.4 -18.5 -208.55 -17.95 Q-207.45 -17.2 -207.1 -16.1 -206.2 -13.45 -208.4 -12.6 L-208.45 -14.45 Q-212.7 -17.85 -217.45 -15.3 L-218.75 -14.45 -218.85 -12.55 Q-220.0 -13.3 -220.1 -14.75 -220.3 -16.9 -218.5 -18.5 -214.1 -20.6 -210.2 -18.85 M-159.95 -22.3 L-160.25 -22.25 Q-148.05 -24.85 -139.05 -16.75 -137.55 -15.4 -138.65 -13.65 L-139.25 -12.95 -138.9 -14.45 Q-142.75 -19.25 -149.4 -20.35 -160.35 -21.9 -168.95 -15.8 -170.2 -14.95 -169.9 -13.55 L-170.05 -14.3 Q-169.65 -19.05 -164.9 -21.1 L-159.95 -22.3 M-142.45 -12.75 L-142.45 -12.8 -142.4 -12.75 -142.45 -12.75 M-142.7 -8.85 L-142.45 -9.55 Q-137.9 -8.0 -136.35 -3.45 -135.15 0.0 -135.15 3.4 -135.15 13.8 -135.3 24.05 -135.35 28.6 -138.2 32.05 L-139.8 32.65 Q-152.95 33.45 -166.2 33.35 -169.7 33.35 -170.85 30.45 -173.6 23.65 -173.3 16.1 -173.1 9.95 -173.55 3.9 -174.25 -6.4 -164.75 -10.0 L-164.7 -9.05 Q-164.65 -6.1 -161.1 -5.8 L-156.0 -5.3 -156.55 -3.15 -158.25 -1.6 Q-158.0 -4.0 -160.5 -4.7 L-161.35 -5.0 -164.1 -3.15 -166.15 -3.7 Q-169.6 -2.45 -169.65 1.45 L-169.8 2.95 Q-170.25 5.5 -168.45 7.2 L-171.2 7.15 -172.5 11.6 Q-172.5 12.35 -171.6 12.9 -170.75 13.45 -169.5 13.45 L-169.7 14.0 Q-172.35 15.5 -171.15 18.45 L-170.9 18.85 -171.05 22.8 Q-172.15 25.85 -169.55 28.15 L-167.9 30.3 Q-164.75 32.5 -161.9 30.1 L-161.5 29.75 -157.5 30.75 Q-155.25 32.2 -152.2 30.75 L-151.6 30.45 -149.85 30.65 -148.55 31.65 Q-145.3 32.95 -142.65 30.8 L-142.45 30.65 -138.8 30.35 -137.75 28.65 -137.9 27.7 -137.45 23.15 -137.6 20.2 Q-136.95 19.05 -136.45 17.0 -136.05 15.35 -137.4 14.15 L-137.6 12.25 Q-134.25 9.25 -136.7 5.35 L-137.2 4.75 -136.7 2.2 -140.7 -0.4 Q-142.05 -4.1 -145.75 -5.6 L-148.75 -3.4 -150.55 -5.4 -142.8 -7.9 -142.7 -8.85 M-169.7 26.9 L-169.7 26.95 -169.75 26.9 -169.7 26.9 M-124.15 -18.15 L-124.15 -17.35 -115.5 -17.35 -115.5 -18.65 Q-114.35 -17.75 -113.65 -16.05 -112.95 -14.3 -114.05 -12.9 L-114.5 -12.8 Q-114.95 -13.55 -114.95 -14.45 -120.1 -18.3 -125.25 -14.45 L-125.35 -12.55 Q-128.05 -15.1 -124.85 -17.7 L-124.15 -18.15 M-115.8 -18.9 L-122.7 -18.9 -121.25 -19.35 Q-117.85 -20.25 -115.8 -18.9 M-122.55 -13.35 L-122.45 -13.2 Q-121.55 -12.0 -120.05 -12.2 -117.75 -12.6 -115.65 -13.65 L-115.6 -10.05 -124.6 -10.05 -124.55 -13.8 -123.8 -14.1 Q-123.7 -13.7 -122.65 -13.35 L-122.55 -13.35 M-123.8 -11.7 L-122.8 -11.3 Q-119.25 -10.2 -116.4 -11.75 L-123.8 -11.7 M-116.2 -2.55 L-117.7 -7.35 -110.65 -5.4 Q-111.6 -8.25 -115.35 -8.8 -121.65 -9.95 -127.65 -7.9 -128.8 -7.45 -128.9 -6.25 L-122.15 -7.55 Q-124.25 -6.1 -123.95 -3.5 L-123.75 -2.6 -129.95 -0.8 -130.05 32.0 -131.3 31.95 -131.2 -2.7 -131.1 -3.65 Q-129.6 -9.1 -123.5 -9.35 L-116.15 -9.65 Q-111.4 -8.9 -109.4 -4.9 -109.1 -4.25 -109.1 -3.45 -108.75 13.85 -108.7 31.2 L-108.9 32.05 -109.95 31.95 -110.3 -0.95 -116.2 -2.55" fill="#c1d6ec" fill-rule="evenodd" stroke="none"/>
    <path d="M-224.0 32.0 L-223.55 -2.35 -223.35 -2.55 Q-217.9 -4.8 -212.05 -4.1 L-212.5 -2.55 -211.2 1.05 Q-212.15 6.45 -211.35 11.9 -211.0 14.55 -211.35 17.3 -212.05 22.4 -212.35 27.5 L-212.05 30.75 -209.85 30.75 -208.65 29.2 -209.85 26.7 Q-209.95 16.65 -209.15 6.85 L-208.85 0.85 Q-208.8 -0.7 -209.8 -2.1 L-209.0 -4.0 -203.7 -1.95 -203.9 31.9 -224.0 32.0 M-123.75 -2.6 Q-120.2 2.15 -116.3 -2.35 L-116.2 -2.55 -110.3 -0.95 -109.95 31.95 -110.8 32.15 -130.05 32.0 -129.95 -0.8 -123.75 -2.6 M-116.3 0.1 Q-116.7 -0.3 -117.2 -0.3 -117.7 -0.3 -118.05 0.1 -118.45 0.45 -118.45 0.95 -118.45 1.45 -118.05 1.85 -117.7 2.2 -117.2 2.2 -116.7 2.2 -116.3 1.85 -115.95 1.45 -115.95 0.95 -115.95 0.45 -116.3 0.1 M-117.7 5.1 Q-118.0 4.8 -118.35 4.8 -118.7 4.8 -118.95 5.1 L-119.25 5.7 -118.95 6.35 -118.35 6.6 -117.7 6.35 -117.45 5.7 Q-117.45 5.35 -117.7 5.1 M-121.2 9.45 L-121.7 9.65 -121.95 10.15 -121.7 10.65 -121.2 10.85 -120.65 10.65 -120.45 10.15 -120.65 9.65 -121.2 9.45 M-121.4 15.0 L-121.85 14.8 -122.25 15.0 -122.45 15.4 -122.25 15.85 -121.85 16.0 -121.4 15.85 -121.25 15.4 Q-121.25 15.15 -121.4 15.0 M-118.65 20.4 L-118.85 19.9 Q-119.05 19.65 -119.35 19.65 L-119.85 19.9 -120.05 20.4 -119.85 20.95 -119.35 21.15 Q-119.05 21.15 -118.85 20.95 L-118.65 20.4 M-119.6 23.6 L-119.85 24.15 -119.6 24.75 -119.1 24.95 -118.55 24.75 -118.35 24.15 -118.55 23.6 Q-118.8 23.35 -119.1 23.35 -119.4 23.35 -119.6 23.6" fill="#9999ff" fill-rule="evenodd" stroke="none"/>
    <path d="M-213.95 -12.6 L-212.6 -12.2 -210.35 -12.55 -209.2 -13.95 -209.1 -10.05 -218.1 -10.05 -217.7 -13.7 -213.95 -12.6 M-139.25 -12.95 L-140.75 -15.35 Q-154.2 -21.75 -167.6 -15.35 -167.9 -14.3 -168.5 -13.45 -169.2 -12.35 -169.9 -13.55 -170.2 -14.95 -168.95 -15.8 -160.35 -21.9 -149.4 -20.35 -142.75 -19.25 -138.9 -14.45 L-139.25 -12.95 M-165.5 -13.3 L-165.35 -12.25 -165.4 -11.15 -166.3 -10.75 -165.5 -13.3 M-142.5 -11.7 L-142.45 -12.75 -142.4 -12.75 -142.05 -10.75 -142.5 -11.7 M-166.7 -13.25 L-166.5 -14.25 -160.9 -16.65 -157.7 -16.55 Q-162.6 -16.35 -166.7 -13.25 M-141.9 -14.25 L-141.65 -13.25 -144.5 -15.0 -141.9 -14.25" fill="#70a2d1" fill-rule="evenodd" stroke="none"/>
    <path d="M-218.35 -19.75 L-217.8 -20.45 Q-213.0 -24.05 -208.9 -20.15 L-218.35 -19.75 M-191.6 -21.1 Q-187.2 -23.45 -183.4 -20.35 L-192.8 -20.35 -191.6 -21.1 M-164.9 -21.1 L-166.5 -20.7 -167.05 -23.6 -164.55 -25.15 Q-152.6 -30.6 -141.25 -23.8 L-141.3 -20.4 -143.3 -21.3 Q-149.2 -23.8 -155.5 -23.45 L-159.95 -22.3 -164.9 -21.1 M-124.85 -19.75 L-123.5 -21.1 Q-118.9 -23.75 -115.4 -20.15 L-124.85 -19.75" fill="#d3d3b6" fill-rule="evenodd" stroke="none"/>
    <path d="M-213.95 -12.6 L-217.7 -13.7 Q-217.45 -13.7 -217.3 -13.85 L-217.1 -14.1 -216.85 -14.55 Q-212.45 -16.7 -209.8 -13.7 L-214.45 -12.75 -213.95 -12.6 M-190.75 -13.05 Q-191.85 -13.45 -191.85 -14.0 -191.85 -14.55 -190.75 -14.9 L-188.1 -15.3 -185.45 -14.9 Q-184.35 -14.55 -184.35 -14.0 -184.35 -13.45 -185.45 -13.05 L-188.1 -12.7 -190.75 -13.05 M-165.5 -13.3 L-164.7 -13.95 Q-162.05 -15.25 -159.1 -15.7 -149.75 -17.4 -142.45 -12.8 L-142.45 -12.75 -142.5 -11.7 -142.9 -12.55 -143.35 -11.25 Q-147.3 -12.3 -151.3 -12.65 L-159.25 -12.15 -164.95 -12.0 -165.35 -12.6 -165.35 -12.25 -165.5 -13.3 M-155.65 -5.85 L-163.05 -7.25 -164.7 -9.05 -164.75 -10.0 -164.6 -10.05 Q-153.5 -13.2 -142.45 -9.55 L-142.7 -8.85 -144.1 -7.55 -151.0 -5.9 -153.35 -7.0 -155.65 -5.85 M-123.8 -14.1 L-123.8 -14.15 Q-123.8 -14.6 -122.65 -14.9 L-120.0 -15.25 -117.3 -14.9 Q-116.2 -14.6 -116.2 -14.15 -116.2 -13.7 -117.3 -13.35 L-120.0 -13.05 -122.55 -13.35 -122.65 -13.35 Q-123.7 -13.7 -123.8 -14.1" fill="#999677" fill-rule="evenodd" stroke="none"/>
    <path d="M-155.65 -5.85 L-153.35 -7.0 -151.0 -5.9 -155.65 -5.85 M-156.0 -5.3 L-150.55 -5.4 -148.75 -3.4 -145.75 -5.6 Q-142.05 -4.1 -140.7 -0.4 L-136.7 2.2 -137.2 4.75 -136.7 5.35 Q-134.25 9.25 -137.6 12.25 L-140.7 12.15 Q-141.4 10.15 -139.65 11.1 L-138.6 10.0 Q-139.65 9.45 -140.75 8.85 L-141.7 7.3 -141.4 4.5 -143.05 5.4 -144.2 5.25 -144.3 8.15 -143.4 8.15 -142.4 10.2 -142.65 12.2 -145.05 14.25 -141.55 16.85 Q-141.95 20.5 -145.9 20.45 L-146.95 17.05 Q-149.2 19.0 -149.15 23.05 -149.15 23.85 -149.9 24.25 L-151.15 25.05 -150.35 26.95 -153.05 29.45 -155.75 29.5 -155.2 26.25 -153.55 25.6 -155.75 22.5 Q-156.4 21.5 -155.9 20.35 L-152.75 17.85 -157.4 17.1 -158.75 14.65 -158.0 13.1 -156.3 12.25 -155.45 7.35 Q-155.6 6.2 -157.3 6.35 L-156.55 8.45 Q-156.4 9.5 -157.8 9.35 -160.35 12.25 -163.25 10.15 L-162.45 12.15 -162.35 13.1 -161.25 13.85 -161.35 15.7 -163.15 16.95 -165.5 15.85 -165.7 13.5 Q-168.5 14.75 -166.25 17.75 L-161.85 18.4 -159.3 20.35 -160.0 22.3 -164.3 21.15 -164.35 22.45 -163.35 22.75 -162.55 28.0 -166.2 25.2 -168.65 26.2 -169.7 26.95 -169.7 26.9 -169.1 24.15 -167.2 23.65 -166.3 21.3 -169.05 20.85 -170.2 18.75 -169.8 17.75 -169.25 17.3 -169.7 14.0 -169.5 13.45 -166.0 10.8 -164.55 10.6 -164.9 8.25 Q-163.3 8.05 -162.5 6.7 -162.1 5.95 -162.6 5.4 L-164.35 6.15 -166.7 6.25 -168.1 5.2 -168.3 5.3 -168.45 5.55 -167.2 7.85 -166.75 8.9 -166.9 10.0 -170.2 11.9 -172.5 11.6 -171.2 7.15 -168.45 7.2 Q-170.25 5.5 -169.8 2.95 L-169.65 1.45 Q-169.6 -2.45 -166.15 -3.7 L-164.1 -3.15 -161.35 -5.0 -160.5 -4.7 Q-158.0 -4.0 -158.25 -1.6 L-156.55 -3.15 -156.0 -5.3 M-139.2 22.8 L-139.25 26.1 -141.2 27.15 -143.25 23.85 -140.05 21.45 -139.2 22.8 M-139.85 13.65 L-137.85 13.65 -137.85 18.35 -139.85 18.35 -139.85 13.65 M-151.75 1.75 L-150.55 2.9 -148.4 1.75 -148.85 -0.35 -150.55 1.6 -151.75 1.75 M-149.0 7.9 L-150.45 5.25 -150.65 8.55 Q-148.65 10.55 -146.45 9.25 -147.7 8.6 -149.0 7.9 M-152.65 3.7 Q-152.85 3.45 -153.1 3.35 L-156.4 4.15 -158.0 3.6 -157.65 5.45 -152.95 5.35 Q-151.85 4.5 -152.65 3.7 M-159.2 4.95 L-159.2 1.5 -161.25 1.5 -161.25 4.95 -159.2 4.95 M-158.9 23.15 Q-157.95 23.15 -157.25 23.6 -156.55 24.0 -156.55 24.6 -156.55 25.2 -157.25 25.65 L-158.9 26.05 Q-159.85 26.05 -160.55 25.65 -161.25 25.2 -161.25 24.6 -161.25 24.0 -160.55 23.6 -159.85 23.15 -158.9 23.15 M-151.6 16.4 L-152.05 17.25 -148.95 18.4 -147.6 15.25 -148.05 13.65 Q-146.55 12.0 -148.2 10.95 L-152.35 13.4 Q-153.9 11.25 -154.65 12.7 -153.45 16.2 -149.8 15.0 L-151.6 16.4 M-147.9 26.1 L-146.35 24.3 Q-145.2 23.45 -144.35 26.05 L-143.65 28.35 -146.9 29.1 -147.9 26.1" fill="#993333" fill-rule="evenodd" stroke="none"/>
    <path d="M-172.5 11.6 L-170.2 11.9 -166.9 10.0 -166.75 8.9 -167.2 7.85 -168.45 5.55 -168.3 5.3 -168.1 5.2 -166.7 6.25 -164.35 6.15 -162.6 5.4 Q-162.1 5.95 -162.5 6.7 -163.3 8.05 -164.9 8.25 L-164.55 10.6 -166.0 10.8 -169.5 13.45 Q-170.75 13.45 -171.6 12.9 -172.5 12.35 -172.5 11.6 M-169.7 14.0 L-169.25 17.3 -169.8 17.75 -170.2 18.75 -169.05 20.85 -166.3 21.3 -167.2 23.65 -169.1 24.15 -169.7 26.9 -169.75 26.9 -169.7 26.95 -168.65 26.2 -166.2 25.2 -162.55 28.0 -163.35 22.75 -164.35 22.45 -164.3 21.15 -160.0 22.3 -159.3 20.35 -161.85 18.4 -166.25 17.75 Q-168.5 14.75 -165.7 13.5 L-165.5 15.85 -163.15 16.95 -161.35 15.7 -161.25 13.85 -162.35 13.1 -162.45 12.15 -163.25 10.15 Q-160.35 12.25 -157.8 9.35 -156.4 9.5 -156.55 8.45 L-157.3 6.35 Q-155.6 6.2 -155.45 7.35 L-156.3 12.25 -158.0 13.1 -158.75 14.65 -157.4 17.1 -152.75 17.85 -155.9 20.35 Q-156.4 21.5 -155.75 22.5 L-153.55 25.6 -155.2 26.25 -155.75 29.5 -153.05 29.45 -150.35 26.95 -151.15 25.05 -149.9 24.25 Q-149.15 23.85 -149.15 23.05 -149.2 19.0 -146.95 17.05 L-145.9 20.45 Q-141.95 20.5 -141.55 16.85 L-145.05 14.25 -142.65 12.2 -142.4 10.2 -143.4 8.15 -144.3 8.15 -144.2 5.25 -143.05 5.4 -141.4 4.5 -141.7 7.3 -140.75 8.85 Q-139.65 9.45 -138.6 10.0 L-139.65 11.1 Q-141.4 10.15 -140.7 12.15 L-137.6 12.25 -137.4 14.15 Q-136.05 15.35 -136.45 17.0 -136.95 19.05 -137.6 20.2 L-137.45 23.15 -137.9 27.7 -137.75 28.65 -138.8 30.35 -142.45 30.65 -142.65 30.8 Q-145.3 32.95 -148.55 31.65 L-149.85 30.65 -151.6 30.45 -152.2 30.75 Q-155.25 32.2 -157.5 30.75 L-161.5 29.75 -161.9 30.1 Q-164.75 32.5 -167.9 30.3 L-169.55 28.15 Q-172.15 25.85 -171.05 22.8 L-170.9 18.85 -171.15 18.45 Q-172.35 15.5 -169.7 14.0 M-139.85 13.65 L-139.85 18.35 -137.85 18.35 -137.85 13.65 -139.85 13.65 M-139.2 22.8 L-140.05 21.45 -143.25 23.85 -141.2 27.15 -139.25 26.1 -139.2 22.8 M-151.75 1.75 L-150.55 1.6 -148.85 -0.35 -148.4 1.75 -150.55 2.9 -151.75 1.75 M-152.65 3.7 Q-151.85 4.5 -152.95 5.35 L-157.65 5.45 -158.0 3.6 -156.4 4.15 -153.1 3.35 Q-152.85 3.45 -152.65 3.7 M-149.0 7.9 Q-147.7 8.6 -146.45 9.25 -148.65 10.55 -150.65 8.55 L-150.45 5.25 -149.0 7.9 M-159.2 4.95 L-161.25 4.95 -161.25 1.5 -159.2 1.5 -159.2 4.95 M-147.9 26.1 L-146.9 29.1 -143.65 28.35 -144.35 26.05 Q-145.2 23.45 -146.35 24.3 L-147.9 26.1 M-151.6 16.4 L-149.8 15.0 Q-153.45 16.2 -154.65 12.7 -153.9 11.25 -152.35 13.4 L-148.2 10.95 Q-146.55 12.0 -148.05 13.65 L-147.6 15.25 -148.95 18.4 -152.05 17.25 -151.6 16.4 M-158.9 23.15 Q-159.85 23.15 -160.55 23.6 -161.25 24.0 -161.25 24.6 -161.25 25.2 -160.55 25.65 -159.85 26.05 -158.9 26.05 L-157.25 25.65 Q-156.55 25.2 -156.55 24.6 -156.55 24.0 -157.25 23.6 -157.95 23.15 -158.9 23.15" fill="#550000" fill-rule="evenodd" stroke="none"/>
    <path d="M-189.05 -19.4 Q-183.5 -20.7 -181.65 -16.05 -180.6 -13.4 -182.9 -12.6 L-182.95 -14.45 Q-187.1 -18.0 -191.95 -15.3 L-193.25 -14.45 -193.5 -12.5 Q-195.9 -15.4 -192.9 -17.75 L-191.65 -18.5 -192.85 -17.7 -193.2 -17.05 Q-191.85 -16.95 -189.8 -17.85 -188.3 -18.5 -186.65 -18.25 -184.5 -18.0 -182.85 -16.7 -182.3 -19.2 -186.75 -19.4 L-189.05 -19.4 M-187.85 -10.05 Q-184.05 -9.85 -180.45 -8.1 -178.6 -7.1 -178.45 -5.4 L-178.4 -4.95 Q-178.8 -6.75 -181.15 -7.55 -190.15 -10.7 -197.6 -5.25 L-197.8 -4.65 -196.4 -4.3 -196.1 -5.4 Q-191.2 -8.35 -186.55 -6.05 -185.8 -5.65 -186.0 -4.85 -192.4 -5.4 -197.35 -2.0 L-197.9 -1.45 -198.3 31.95 -199.3 32.05 -199.5 31.1 -199.2 -3.65 -199.15 -4.1 Q-197.25 -9.2 -191.3 -9.9 L-189.6 -10.05 -187.85 -10.05 M-178.4 -4.55 L-178.2 -2.45 -180.8 -4.05 -178.4 -4.55 M-177.9 2.2 Q-177.0 16.6 -176.7 31.1 L-176.9 31.5 -177.6 32.1 -177.9 2.2" fill="#cdf3eb" fill-rule="evenodd" stroke="none"/>
    <path d="M-189.6 -10.05 L-192.6 -10.05 -192.55 -13.8 Q-191.3 -12.85 -189.4 -12.35 L-188.6 -12.05 Q-186.55 -11.95 -184.9 -13.15 -184.1 -14.2 -183.95 -13.5 -183.6 -11.8 -183.6 -10.05 L-187.85 -10.05 -189.6 -10.05 M-192.2 -11.85 L-190.1 -11.15 Q-186.95 -10.45 -184.05 -11.8 L-192.2 -11.85" fill="#91c8b7" fill-rule="evenodd" stroke="none"/>
    <path d="M-178.2 -2.45 L-177.95 -2.3 -177.9 2.2 -177.6 32.1 -182.7 31.7 -182.1 3.75 -182.7 2.25 -181.55 -0.1 -182.3 -1.7 -181.35 -3.0 -180.8 -4.05 -178.2 -2.45 M-185.3 31.7 L-196.55 31.7 -196.65 31.8 -198.3 31.95 -197.9 -1.45 -197.35 -2.0 Q-192.4 -5.4 -186.0 -4.85 L-185.2 -2.1 -185.3 -0.75 -184.5 0.25 Q-186.45 2.35 -184.35 4.2 L-185.0 27.7 -185.9 28.9 -185.3 31.7" fill="#16e9a9" fill-rule="evenodd" stroke="none"/>
    <path d="M156.9 -25.4 L156.9 -25.45 181.5 -29.9 180.35 -25.45 156.9 -25.4 M203.55 -25.55 L181.4 -26.1 183.35 -29.9 207.45 -25.85 203.55 -25.65 203.55 -25.55" fill="#b1a27c" fill-rule="evenodd" stroke="none"/>
    <path d="M213.25 24.3 L212.5 31.3 150.1 31.0 150.15 24.75 213.25 24.3 M184.85 26.4 L184.65 26.4 184.75 26.65 184.85 26.4" fill="#cbbfa7" fill-rule="evenodd" stroke="none"/>
    <path d="M183.25 9.95 L183.55 24.0 150.2 24.15 149.8 -23.9 150.1 -24.4 151.65 -24.65 151.65 -24.6 212.85 -24.6 213.25 23.7 184.35 24.0 184.1 12.45 185.85 12.65 185.5 11.15 184.05 11.25 184.05 9.95 185.35 9.9 185.55 8.2 184.0 8.35 183.95 6.25 185.45 6.25 185.45 5.2 183.9 4.85 183.4 -17.05 191.75 -18.05 191.45 -20.15 176.25 -20.35 176.15 -17.3 182.65 -17.2 183.15 4.8 179.6 4.55 179.65 5.9 183.2 6.2 183.25 8.35 179.75 8.1 179.9 9.95 183.25 9.95 M158.3 -3.85 L158.9 -7.5 Q163.0 -15.1 170.2 -10.85 172.25 -9.65 172.45 -7.3 L172.15 -7.5 171.7 -7.6 171.3 -7.45 170.75 -6.6 172.25 -5.7 170.35 -0.05 Q163.15 3.9 158.85 -2.45 L159.15 -2.3 160.45 -3.75 158.3 -3.85 M156.0 -5.75 Q156.0 -1.75 158.8 1.05 161.6 3.85 165.6 3.85 169.6 3.85 172.4 1.05 175.2 -1.75 175.2 -5.75 175.2 -9.75 172.4 -12.55 169.6 -15.35 165.6 -15.35 161.6 -15.35 158.8 -12.55 156.0 -9.75 156.0 -5.75 M168.65 -11.0 L163.35 -9.75 160.8 -8.3 Q159.85 -4.0 163.1 -2.15 L163.45 -4.1 168.0 -5.3 168.35 -2.95 163.25 -0.35 Q163.55 -0.05 163.85 -0.1 167.25 -0.5 170.1 -1.75 L170.55 -1.95 169.8 -6.65 163.1 -5.4 162.7 -6.85 169.55 -9.7 168.65 -11.0 M197.95 4.4 L197.15 4.65 Q196.8 4.85 196.8 5.15 L197.15 5.7 197.95 5.9 198.8 5.7 199.1 5.15 198.8 4.65 Q198.45 4.4 197.95 4.4 M195.5 6.05 L195.5 4.5 192.0 4.5 192.0 6.05 195.5 6.05 M197.3 12.25 L199.3 12.25 199.3 10.25 197.3 10.25 197.3 12.25 M195.75 10.55 L192.15 10.55 192.15 12.25 195.75 12.25 195.75 10.55 M197.2 7.85 L197.2 9.85 199.25 9.85 199.25 7.85 197.2 7.85 M195.6 10.3 L195.6 7.95 192.1 7.95 192.1 10.3 195.6 10.3 M190.6 4.8 L186.35 4.8 186.35 6.15 190.6 6.15 190.6 4.8 M186.7 9.7 L190.7 9.7 190.7 7.4 186.7 7.4 186.7 9.7 M188.8 10.75 L187.45 11.05 Q186.85 11.3 186.85 11.65 L187.45 12.3 188.8 12.55 190.2 12.3 190.75 11.65 Q190.75 11.3 190.2 11.05 189.6 10.75 188.8 10.75 M178.35 4.4 L176.35 4.4 176.35 6.0 178.35 6.0 178.35 4.4 M173.2 4.1 Q172.25 4.1 171.6 4.5 170.95 4.85 170.95 5.4 170.95 5.95 171.6 6.35 L173.2 6.7 174.8 6.35 Q175.45 5.95 175.45 5.4 175.45 4.85 174.8 4.5 174.15 4.1 173.2 4.1 M176.75 11.8 Q176.75 12.15 177.05 12.4 L177.65 12.65 178.3 12.4 178.55 11.8 178.3 11.2 177.65 10.95 177.05 11.2 Q176.75 11.45 176.75 11.8 M175.35 9.85 L175.35 8.0 171.25 8.0 171.25 9.85 175.35 9.85 M176.65 9.85 L178.35 9.85 178.35 8.1 176.65 8.1 176.65 9.85 M165.45 4.7 L162.4 4.7 162.4 7.05 165.45 7.05 165.45 4.7 M164.85 7.95 Q164.45 7.55 163.9 7.55 163.35 7.55 163.0 7.95 162.6 8.3 162.6 8.8 162.6 9.3 163.0 9.7 163.35 10.05 163.9 10.05 L164.85 9.7 165.2 8.8 Q165.2 8.3 164.85 7.95 M170.15 6.45 L170.15 4.55 166.65 4.55 166.65 6.45 170.15 6.45 M166.7 8.05 L166.7 10.25 170.05 10.25 170.05 8.05 166.7 8.05 M163.8 10.9 Q163.2 10.9 162.8 11.25 162.35 11.55 162.35 12.0 162.35 12.45 162.8 12.8 L163.8 13.1 164.85 12.8 Q165.25 12.45 165.25 12.0 165.25 11.55 164.85 11.25 164.4 10.9 163.8 10.9 M166.65 11.3 L166.65 12.9 170.15 12.9 170.15 11.3 166.65 11.3 M171.4 12.8 L175.5 12.8 175.5 11.1 171.4 11.1 171.4 12.8" fill="#e3ddd0" fill-rule="evenodd" stroke="none"/>
    <path d="M184.1 12.45 L184.05 11.25 185.5 11.15 185.85 12.65 184.1 12.45 M184.05 9.95 L184.0 8.35 185.55 8.2 185.35 9.9 184.05 9.95 M183.95 6.25 L183.9 4.85 185.45 5.2 185.45 6.25 183.95 6.25 M183.15 4.8 L183.2 6.2 179.65 5.9 179.6 4.55 183.15 4.8 M183.25 8.35 L183.25 9.95 179.9 9.95 179.75 8.1 183.25 8.35 M156.0 -5.75 Q156.0 -9.75 158.8 -12.55 161.6 -15.35 165.6 -15.35 169.6 -15.35 172.4 -12.55 175.2 -9.75 175.2 -5.75 175.2 -1.75 172.4 1.05 169.6 3.85 165.6 3.85 161.6 3.85 158.8 1.05 156.0 -1.75 156.0 -5.75 M158.3 -3.85 L160.45 -3.75 159.15 -2.3 158.85 -2.45 Q163.15 3.9 170.35 -0.05 L172.25 -5.7 170.75 -6.6 171.3 -7.45 171.7 -7.6 172.15 -7.5 172.45 -7.3 Q172.25 -9.65 170.2 -10.85 163.0 -15.1 158.9 -7.5 L158.3 -3.85 M168.65 -11.0 L169.55 -9.7 162.7 -6.85 163.1 -5.4 169.8 -6.65 170.55 -1.95 170.1 -1.75 Q167.25 -0.5 163.85 -0.1 163.55 -0.05 163.25 -0.35 L168.35 -2.95 168.0 -5.3 163.45 -4.1 163.1 -2.15 Q159.85 -4.0 160.8 -8.3 L163.35 -9.75 168.65 -11.0 M197.95 4.4 Q198.45 4.4 198.8 4.65 L199.1 5.15 198.8 5.7 197.95 5.9 197.15 5.7 196.8 5.15 Q196.8 4.85 197.15 4.65 L197.95 4.4 M195.5 6.05 L192.0 6.05 192.0 4.5 195.5 4.5 195.5 6.05 M195.75 10.55 L195.75 12.25 192.15 12.25 192.15 10.55 195.75 10.55 M197.3 12.25 L197.3 10.25 199.3 10.25 199.3 12.25 197.3 12.25 M195.6 10.3 L192.1 10.3 192.1 7.95 195.6 7.95 195.6 10.3 M197.2 7.85 L199.25 7.85 199.25 9.85 197.2 9.85 197.2 7.85 M176.75 11.8 Q176.75 11.45 177.05 11.2 L177.65 10.95 178.3 11.2 178.55 11.8 178.3 12.4 177.65 12.65 177.05 12.4 Q176.75 12.15 176.75 11.8 M173.2 4.1 Q174.15 4.1 174.8 4.5 175.45 4.85 175.45 5.4 175.45 5.95 174.8 6.35 L173.2 6.7 171.6 6.35 Q170.95 5.95 170.95 5.4 170.95 4.85 171.6 4.5 172.25 4.1 173.2 4.1 M178.35 4.4 L178.35 6.0 176.35 6.0 176.35 4.4 178.35 4.4 M188.8 10.75 Q189.6 10.75 190.2 11.05 190.75 11.3 190.75 11.65 L190.2 12.3 188.8 12.55 187.45 12.3 186.85 11.65 Q186.85 11.3 187.45 11.05 L188.8 10.75 M186.7 9.7 L186.7 7.4 190.7 7.4 190.7 9.7 186.7 9.7 M190.6 4.8 L190.6 6.15 186.35 6.15 186.35 4.8 190.6 4.8 M175.35 9.85 L171.25 9.85 171.25 8.0 175.35 8.0 175.35 9.85 M176.65 9.85 L176.65 8.1 178.35 8.1 178.35 9.85 176.65 9.85 M165.45 4.7 L165.45 7.05 162.4 7.05 162.4 4.7 165.45 4.7 M164.85 7.95 Q165.2 8.3 165.2 8.8 L164.85 9.7 163.9 10.05 Q163.35 10.05 163.0 9.7 162.6 9.3 162.6 8.8 162.6 8.3 163.0 7.95 163.35 7.55 163.9 7.55 164.45 7.55 164.85 7.95 M163.8 10.9 Q164.4 10.9 164.85 11.25 165.25 11.55 165.25 12.0 165.25 12.45 164.85 12.8 L163.8 13.1 162.8 12.8 Q162.35 12.45 162.35 12.0 162.35 11.55 162.8 11.25 163.2 10.9 163.8 10.9 M166.7 8.05 L170.05 8.05 170.05 10.25 166.7 10.25 166.7 8.05 M170.15 6.45 L166.65 6.45 166.65 4.55 170.15 4.55 170.15 6.45 M171.4 12.8 L171.4 11.1 175.5 11.1 175.5 12.8 171.4 12.8 M166.65 11.3 L170.15 11.3 170.15 12.9 166.65 12.9 166.65 11.3" fill="#bfaeac" fill-rule="evenodd" stroke="none"/>
    <path d="M20.75 -19.85 L15.8 -20.2 20.7 -20.15 20.75 -19.85 M48.7 -22.6 Q49.8 -22.5 49.8 -21.5 L50.35 3.85 49.95 29.55 37.7 29.45 37.75 6.85 37.75 6.7 37.15 -14.45 Q37.0 -18.0 38.05 -21.45 L38.35 -21.95 38.25 28.25 49.15 28.55 48.7 -22.6 M25.9 -22.4 L26.4 27.5 35.0 28.05 35.7 -22.2 36.65 29.4 25.7 29.25 24.45 -22.0 25.9 -22.4 M22.55 -22.55 L23.15 -21.9 24.8 29.05 12.85 28.9 12.95 -22.4 14.0 28.1 22.3 27.1 22.55 -22.55" fill="#006666" fill-rule="evenodd" stroke="none"/>
    <path d="M112.45 -9.85 L112.05 -4.15 Q114.25 -4.25 113.35 -7.6 L114.6 -7.0 114.0 -5.85 115.0 -2.2 116.05 -3.7 115.45 -5.35 116.1 -6.05 115.9 -8.75 114.05 -8.95 112.45 -9.85 M114.65 -1.05 L115.1 -1.2 115.25 -1.6 115.1 -2.0 114.65 -2.15 114.25 -2.0 114.05 -1.6 114.25 -1.2 Q114.4 -1.05 114.65 -1.05 M114.6 -12.7 L118.1 -11.85 118.4 29.9 109.75 30.25 108.9 -11.4 Q111.45 -13.15 114.6 -12.7 M115.2 3.0 L114.0 3.9 113.3 0.6 113.2 16.9 113.8 8.65 115.25 7.15 113.8 7.2 Q113.95 6.2 114.4 5.4 L114.75 5.6 116.35 4.55 115.2 3.0 M114.6 10.8 L114.6 18.3 116.1 18.3 116.1 10.8 114.6 10.8 M114.7 22.55 Q115.7 20.1 113.85 18.5 L113.6 18.5 113.05 23.3 114.35 24.8 112.35 26.35 114.6 28.45 116.1 24.15 114.7 22.55" fill="#dbbadc" fill-rule="evenodd" stroke="none"/>
    <path d="M141.1 -13.45 L141.15 -14.55 142.2 -16.1 140.9 -19.2 139.9 -12.9 141.1 -13.45 M138.55 -5.5 Q137.35 -2.35 137.45 0.55 137.45 0.65 137.95 0.8 L140.15 -10.55 Q140.3 -11.15 139.95 -10.75 L139.55 -9.85 138.6 -9.0 138.8 -6.75 138.1 -6.4 138.55 -5.5 M145.1 -21.35 L132.8 30.75 129.2 29.5 129.05 29.5 139.35 -22.7 145.1 -21.35 M137.75 1.7 L136.0 1.95 136.65 5.7 138.35 5.45 137.75 1.7 M136.35 8.6 L136.85 8.3 137.0 7.7 136.65 7.15 136.05 7.05 Q135.7 7.05 135.55 7.35 135.35 7.6 135.4 7.95 L135.7 8.5 136.35 8.6 M134.85 11.2 L135.2 11.8 135.95 11.95 136.55 11.6 136.7 10.9 136.3 10.25 135.6 10.1 Q135.2 10.15 135.0 10.5 134.75 10.8 134.85 11.2" fill="#ffcc00" fill-rule="evenodd" stroke="none"/>
    <path d="M124.6 -12.6 L126.8 -12.15 127.3 30.25 121.3 30.35 121.1 30.45 Q121.05 31.1 121.0 30.4 120.0 9.25 119.85 -11.9 121.55 -12.9 123.5 -12.65 L124.6 -12.6 M124.45 -7.7 Q123.75 -3.8 123.5 0.25 L122.95 0.4 Q121.85 1.4 123.05 2.1 L123.85 4.1 125.35 2.4 125.35 -9.05 123.85 -9.0 Q124.55 -8.4 124.45 -7.7 M122.5 -8.3 L122.5 -4.35 123.5 -4.35 123.5 -8.3 122.5 -8.3 M123.05 5.7 Q122.55 6.15 123.15 6.7 123.65 7.2 124.2 6.85 L123.3 7.95 123.85 11.95 124.8 14.5 125.35 12.3 124.85 11.7 124.75 11.15 124.75 8.75 125.2 6.0 123.05 5.7 M123.55 17.05 L123.55 26.3 125.3 26.3 125.3 17.05 123.55 17.05" fill="#ccffff" fill-rule="evenodd" stroke="none"/>
    <path d="M114.65 -1.05 Q114.4 -1.05 114.25 -1.2 L114.05 -1.6 114.25 -2.0 114.65 -2.15 115.1 -2.0 115.25 -1.6 115.1 -1.2 114.65 -1.05 M112.45 -9.85 L114.05 -8.95 115.9 -8.75 116.1 -6.05 115.45 -5.35 116.05 -3.7 115.0 -2.2 114.0 -5.85 114.6 -7.0 113.35 -7.6 Q114.25 -4.25 112.05 -4.15 L112.45 -9.85 M114.7 22.55 L116.1 24.15 114.6 28.45 112.35 26.35 114.35 24.8 113.05 23.3 113.6 18.5 113.85 18.5 Q115.7 20.1 114.7 22.55 M114.6 10.8 L116.1 10.8 116.1 18.3 114.6 18.3 114.6 10.8 M115.2 3.0 L116.35 4.55 114.75 5.6 114.4 5.4 Q113.95 6.2 113.8 7.2 L115.25 7.15 113.8 8.65 113.2 16.9 113.3 0.6 114.0 3.9 115.2 3.0" fill="#990000" fill-rule="evenodd" stroke="none"/>
    <path d="M122.5 -8.3 L123.5 -8.3 123.5 -4.35 122.5 -4.35 122.5 -8.3 M124.45 -7.7 Q124.55 -8.4 123.85 -9.0 L125.35 -9.05 125.35 2.4 123.85 4.1 123.05 2.1 Q121.85 1.4 122.95 0.4 L123.5 0.25 Q123.75 -3.8 124.45 -7.7 M123.55 17.05 L125.3 17.05 125.3 26.3 123.55 26.3 123.55 17.05 M123.05 5.7 L125.2 6.0 124.75 8.75 124.75 11.15 124.85 11.7 125.35 12.3 124.8 14.5 123.85 11.95 123.3 7.95 124.2 6.85 Q123.65 7.2 123.15 6.7 122.55 6.15 123.05 5.7" fill="#000099" fill-rule="evenodd" stroke="none"/>
    <path d="M16.9 -15.6 L16.8 -15.6 16.95 -18.85 18.75 -19.1 19.2 -15.35 16.9 -15.6 M15.8 -20.2 L15.3 -13.7 20.75 -13.7 21.05 -18.6 20.9 -19.85 20.75 -19.85 20.7 -20.15 15.8 -20.2 M16.7 -9.8 L15.9 -8.65 Q17.95 -7.35 17.15 -6.2 L17.7 -4.65 Q17.95 -3.2 17.05 -3.05 L16.7 -2.9 Q16.45 -2.7 16.7 -2.2 16.85 -1.85 17.25 -1.65 18.65 -0.55 16.8 -0.45 15.45 2.45 18.2 3.85 L18.4 5.7 17.5 6.35 17.65 8.15 16.4 9.85 17.1 11.35 17.05 12.65 17.9 13.4 17.05 14.7 18.4 17.5 19.4 14.5 19.2 12.25 19.45 10.9 18.4 10.0 20.05 8.9 19.35 1.2 20.0 0.65 18.55 -5.1 19.7 -6.85 18.0 -8.65 20.35 -9.75 Q18.3 -12.75 16.45 -10.25 16.15 -9.9 16.7 -9.8 M34.05 -20.8 L27.5 -20.8 27.5 -14.15 34.05 -14.15 34.05 -20.8 M32.2 -15.1 L29.25 -15.1 29.25 -19.7 32.2 -19.7 32.2 -15.1 M38.35 -21.95 Q42.5 -24.35 47.35 -23.05 L48.7 -22.6 49.15 28.55 38.25 28.25 38.35 -21.95 M25.9 -22.4 L26.05 -22.5 Q31.05 -24.35 35.7 -22.2 L35.0 28.05 26.4 27.5 25.9 -22.4 M22.55 -22.55 L22.3 27.1 14.0 28.1 12.95 -22.4 Q17.35 -24.3 22.05 -22.85 L22.55 -22.55 M30.25 -5.9 L29.95 -4.6 30.85 -1.9 29.25 0.3 29.7 3.0 31.2 5.35 29.0 6.0 31.0 8.45 29.15 10.75 29.95 12.25 29.45 14.05 30.35 15.35 31.2 18.8 31.15 20.7 32.7 20.65 33.25 19.3 32.2 16.95 32.05 14.45 31.3 13.6 31.85 12.45 31.15 10.7 32.95 8.85 32.65 6.95 33.1 4.5 32.15 3.25 32.7 2.5 31.9 0.35 32.35 -2.8 Q31.0 -4.0 32.2 -5.3 L32.2 -7.15 31.2 -8.0 33.15 -9.85 30.3 -11.5 28.6 -10.65 30.6 -9.95 29.0 -8.6 30.25 -5.9 M40.9 -14.55 L47.2 -14.55 47.2 -20.8 40.9 -20.8 40.9 -14.55 M45.95 -15.95 L42.05 -15.95 42.05 -19.95 45.95 -19.95 45.95 -15.95 M43.7 -10.1 L42.55 -8.75 43.65 -7.55 43.25 -6.65 43.5 -5.5 42.85 -4.4 Q44.8 -1.1 42.7 1.9 43.95 3.7 42.8 4.3 L42.5 5.8 45.25 8.0 43.2 9.7 44.1 11.35 44.15 16.85 43.15 19.5 45.65 19.7 45.4 18.7 45.9 17.15 45.35 12.7 46.4 11.4 46.05 10.0 47.5 8.0 Q46.1 5.95 46.05 5.2 L46.25 4.85 46.45 3.1 45.7 2.55 45.0 -4.15 45.65 -8.5 Q46.9 -11.3 42.8 -12.0 L42.5 -12.0 43.7 -10.1 M18.05 18.2 Q17.6 18.95 17.6 20.05 17.6 21.15 18.05 21.95 18.5 22.7 19.1 22.7 19.7 22.7 20.15 21.95 20.6 21.15 20.6 20.05 20.6 18.95 20.15 18.2 19.7 17.4 19.1 17.4 18.5 17.4 18.05 18.2" fill="#01a3a2" fill-rule="evenodd" stroke="none"/>
    <path d="M52.55 -22.45 L63.25 -22.45 63.25 29.9 52.9 30.0 52.55 -22.45 M51.5 29.15 L51.5 29.1 51.5 29.15 M55.25 -12.75 L56.25 -12.3 57.65 -7.65 59.15 -13.4 57.2 -14.2 59.35 -14.25 Q60.5 -14.35 60.8 -15.25 L61.05 -16.1 61.15 -18.55 Q59.0 -20.95 55.75 -20.2 54.55 -19.95 54.2 -18.75 L55.55 -16.9 56.65 -17.95 59.0 -17.4 54.9 -14.45 55.25 -12.75 M78.4 -15.5 L79.4 -12.5 78.55 -9.75 79.75 -8.4 79.35 -7.35 80.6 -5.35 Q81.3 -5.2 81.3 -5.95 L81.2 -6.4 81.15 -6.7 81.8 -8.55 80.9 -10.1 81.75 -12.15 81.15 -14.15 82.35 -15.55 Q83.2 -20.8 78.45 -20.4 L78.15 -16.65 Q80.6 -16.1 78.4 -15.5 M67.0 -19.65 L67.7 -17.65 68.8 -15.55 67.85 -13.6 68.7 -11.15 68.05 -8.7 69.35 -5.1 70.6 -7.45 69.9 -8.8 70.6 -10.55 69.75 -12.9 71.1 -14.85 70.2 -17.0 70.8 -18.05 68.45 -20.65 67.0 -19.65 M70.65 -4.45 L69.95 -4.75 69.65 -4.7 69.3 -4.35 68.35 -1.05 68.95 0.55 69.65 17.85 68.45 19.9 69.4 21.95 69.8 24.45 71.9 21.45 70.65 19.5 71.15 0.4 70.3 -1.05 70.65 -4.45 M79.3 -0.9 L80.4 -0.45 80.5 3.0 78.4 4.45 80.15 8.35 79.3 10.3 80.25 11.3 80.1 13.1 79.4 13.65 79.3 20.75 78.05 23.3 80.95 24.25 78.5 25.3 79.45 27.05 82.4 26.75 Q84.55 24.3 81.85 22.05 L81.35 15.75 82.05 14.85 81.55 9.5 81.75 7.6 80.05 5.1 Q80.95 4.0 81.8 5.4 L81.9 5.45 Q83.3 3.5 82.4 0.6 81.95 -0.85 81.8 -2.35 L80.15 -3.55 79.3 -0.9 M85.5 -22.55 L87.45 -22.55 88.65 29.7 85.8 29.5 85.65 15.7 85.5 -22.55 M65.2 -22.4 L73.5 -22.5 73.25 29.95 64.95 30.3 65.2 -22.4 M83.85 29.55 L75.8 29.85 75.95 -22.95 83.85 -22.9 83.85 29.55" fill="#92846d" fill-rule="evenodd" stroke="none"/>
  </g>
</svg>
