<?xml version="1.0" encoding="UTF-8" standalone="no"?>
<svg xmlns:ffdec="https://www.free-decompiler.com/flash" xmlns:xlink="http://www.w3.org/1999/xlink" ffdec:objectType="shape" height="64.3px" width="436.0px" xmlns="http://www.w3.org/2000/svg">
  <g transform="matrix(1.0, 0.0, 0.0, 1.0, 218.0, 32.15)">
    <path d="M210.6 -27.0 L211.1 -26.3 211.75 -4.9 217.05 -4.75 218.0 22.2 217.9 29.05 193.15 30.1 Q181.95 29.15 170.5 29.8 L169.15 29.35 169.25 27.95 131.95 29.4 Q122.15 28.75 112.5 29.6 109.65 29.75 107.65 28.1 L107.6 29.85 Q90.4 31.25 73.1 30.75 L68.15 30.75 Q41.35 31.3 14.45 30.6 10.55 30.5 6.7 30.75 -13.05 31.25 -32.5 31.25 L-32.45 31.65 -32.8 32.0 -33.05 32.15 -33.4 32.1 -33.8 31.4 -34.05 31.5 -72.5 30.95 -73.3 31.4 -105.55 30.35 -105.45 11.0 -103.0 9.8 -102.85 -23.75 Q-97.7 -29.7 -89.2 -29.6 -82.0 -29.55 -77.2 -24.1 L-76.1 -0.75 -75.8 -26.4 -51.45 -26.1 -51.1 -11.95 -34.85 -11.45 -34.7 -12.75 -34.5 -11.7 -34.5 -32.15 105.15 -32.15 107.05 6.55 Q109.45 8.05 112.2 9.0 L116.6 9.4 119.1 1.1 118.8 0.05 Q120.5 -7.7 119.5 -15.55 121.65 -18.2 125.6 -18.0 L142.95 -18.75 143.65 -18.75 143.9 -32.1 157.1 -30.75 154.8 -10.65 159.9 9.55 166.55 9.75 166.8 -1.1 167.6 -2.2 169.6 -2.65 Q170.8 -4.6 170.5 -7.8 169.95 -13.75 169.8 -19.7 169.7 -22.6 171.25 -23.95 172.3 -24.8 173.6 -25.25 176.25 -26.35 178.95 -26.85 L194.1 -27.5 210.45 -27.4 210.6 -27.0 M210.55 -11.7 L210.05 -13.2 209.85 -15.05 208.35 -13.8 207.5 -13.6 207.85 -13.75 208.9 -15.3 210.2 -15.25 210.3 -26.05 196.7 -26.6 186.3 -26.6 180.1 -26.2 Q175.6 -25.1 171.3 -22.85 L171.1 -3.25 180.05 -5.2 180.1 -5.2 180.3 -26.05 181.05 -5.1 183.95 -5.0 210.55 -4.6 210.55 -11.7 M195.85 -24.3 Q199.45 -25.45 203.75 -24.35 L203.75 -23.5 206.6 -24.2 Q206.1 -24.65 206.7 -25.1 L206.95 -25.15 Q209.45 -25.0 209.75 -22.7 L208.0 -18.3 197.6 -18.5 Q194.75 -17.1 191.3 -18.1 L190.65 -17.85 190.2 -18.35 188.7 -17.95 187.35 -18.6 185.9 -18.5 182.7 -17.85 186.25 -24.45 186.3 -24.45 188.15 -24.7 189.6 -23.85 195.2 -23.65 195.3 -23.65 195.2 -23.75 Q194.65 -23.85 195.05 -24.05 L195.5 -24.2 196.65 -23.7 Q192.0 -21.95 187.75 -24.15 L185.95 -23.75 183.35 -18.55 185.25 -19.05 186.25 -19.9 187.65 -19.35 188.55 -18.8 190.7 -19.05 191.3 -18.45 197.0 -18.55 196.95 -18.6 Q196.25 -19.55 197.85 -19.7 L206.55 -19.25 207.35 -18.85 208.9 -23.75 207.3 -24.5 207.2 -24.5 207.25 -24.4 Q206.2 -22.65 203.25 -22.9 202.8 -22.85 202.8 -23.25 L203.05 -23.55 Q199.95 -24.85 195.85 -24.3 M179.6 22.45 L182.0 21.0 183.6 21.25 191.25 14.35 189.8 11.35 182.45 17.45 185.65 8.7 179.8 7.8 184.0 5.8 179.15 1.8 186.05 3.0 189.1 -3.55 190.35 3.3 191.65 2.35 191.75 3.95 201.05 0.2 199.1 3.45 Q205.35 0.8 212.1 -0.2 214.4 -0.55 215.35 1.3 L215.0 13.5 215.0 13.55 215.05 13.55 216.5 12.3 216.3 -4.4 178.8 -4.0 179.1 22.8 178.9 27.3 194.95 28.3 Q203.4 28.6 211.75 28.2 L216.4 27.2 216.5 26.9 213.05 20.75 203.6 26.6 209.1 19.05 206.05 19.95 204.2 21.7 200.6 25.35 Q198.15 27.95 195.4 27.95 194.45 27.35 195.5 26.8 L196.55 26.15 Q204.7 20.4 210.4 12.45 L212.35 12.75 Q215.35 7.25 214.1 1.0 204.9 0.75 197.6 6.0 L199.2 7.2 Q192.5 16.3 182.5 23.05 L181.9 22.1 179.6 22.45 M209.35 11.85 L209.35 11.75 209.3 11.8 Q201.05 15.9 196.1 23.45 196.7 21.65 199.1 19.05 202.65 15.1 207.1 12.25 208.25 11.5 209.5 11.5 209.95 11.7 209.35 11.85 M216.05 13.45 L214.7 14.35 214.4 11.55 213.75 12.8 Q212.85 14.9 211.1 14.15 L207.25 18.7 210.5 18.1 205.3 25.35 213.35 20.2 215.95 24.65 216.2 21.55 216.65 21.1 216.05 13.45 M183.95 -5.5 Q185.7 -11.4 192.1 -12.85 L191.95 -13.0 Q192.15 -14.2 193.3 -14.65 L193.75 -14.75 194.3 -14.55 194.6 -14.0 194.5 -14.05 193.6 -14.3 192.75 -14.05 Q192.35 -13.85 192.35 -13.5 192.35 -13.15 192.75 -12.9 L193.6 -12.7 194.5 -12.9 194.85 -13.45 195.2 -12.75 201.15 -10.8 201.15 -10.85 203.0 -11.65 201.45 -10.6 202.5 -9.4 197.55 -11.8 188.9 -11.0 Q184.95 -8.9 183.95 -5.4 L183.95 -5.5 M172.1 -15.9 L172.5 -20.35 177.45 -22.65 177.35 -17.9 172.1 -15.9 M172.95 -19.75 L172.65 -17.05 177.1 -18.6 177.35 -22.1 172.95 -19.75 M168.85 1.35 L176.2 -1.1 176.35 5.1 176.2 5.2 176.05 5.15 175.85 5.6 Q173.3 4.9 170.45 6.35 168.85 7.15 168.35 6.05 L168.85 1.35 M169.55 2.05 L169.05 5.85 175.75 4.5 175.65 -0.15 169.55 2.05 M171.65 13.75 L168.75 14.4 143.7 15.8 121.9 15.3 116.1 15.55 Q113.65 16.15 111.05 15.15 L107.7 14.5 Q107.6 16.85 109.65 18.05 110.65 18.65 111.7 18.65 138.8 20.25 165.75 17.9 L168.6 17.8 167.6 17.8 169.4 17.1 170.5 16.05 171.75 14.0 171.65 13.75 M171.8 9.7 Q169.8 9.05 168.0 10.25 L167.2 10.45 164.65 10.4 Q141.6 11.35 118.6 11.0 L112.35 10.65 Q110.15 10.6 108.35 9.2 L107.5 8.35 107.95 12.6 109.7 13.9 109.7 13.95 Q120.65 14.7 131.7 14.45 142.35 14.25 153.05 14.6 161.15 15.0 168.75 13.25 171.2 12.55 171.8 10.4 L171.8 9.7 M178.0 13.1 L177.7 -3.85 168.1 -1.2 168.2 9.45 173.35 8.05 171.75 12.65 173.6 12.55 170.6 18.05 170.6 18.1 170.65 18.15 Q172.2 16.95 173.0 18.25 L172.25 21.45 Q173.2 21.9 172.6 23.7 L171.25 26.85 171.5 27.7 170.65 27.75 171.5 27.85 177.3 28.05 177.8 11.1 177.95 13.1 178.05 14.25 178.0 13.1 M188.95 -2.3 L186.3 3.4 180.4 2.4 184.1 5.75 181.1 7.6 186.4 8.25 183.55 15.95 189.75 10.55 192.25 13.9 195.35 10.9 193.8 8.75 199.85 1.1 191.5 4.55 191.35 3.5 191.35 3.35 191.3 3.4 Q190.85 3.65 190.45 3.95 L189.85 3.55 189.0 -2.3 189.0 -2.4 188.95 -2.3 M197.05 6.85 L194.45 8.95 195.9 10.35 Q197.0 8.85 197.65 7.2 L197.25 7.05 197.05 6.85 M196.6 12.95 L197.05 12.8 Q198.0 12.65 198.1 13.9 L197.85 15.25 Q196.9 17.9 195.45 20.1 193.1 23.7 189.75 24.65 196.1 20.6 197.55 13.35 L196.6 12.95 M200.7 12.5 L200.7 12.55 200.75 12.55 205.8 10.25 200.5 13.5 200.75 9.5 200.7 12.5 M171.9 23.4 L171.1 23.45 169.15 23.85 162.9 24.25 Q136.05 25.5 109.25 24.65 L108.4 25.25 109.75 27.8 168.75 27.25 171.9 23.4 M169.05 22.8 L169.15 22.9 168.8 22.8 169.05 22.8 M169.2 23.0 L169.4 22.85 169.15 22.7 170.0 22.35 171.7 19.05 156.15 20.45 157.65 20.6 Q141.45 20.95 125.2 20.75 L113.7 20.7 Q110.5 20.7 107.6 19.75 107.7 20.45 107.95 21.15 108.55 23.05 110.45 23.95 L111.95 23.9 Q124.2 23.3 136.45 24.4 L162.0 23.5 169.2 23.0 M153.75 -10.3 L153.05 -10.85 143.65 -12.75 143.45 -17.3 Q133.6 -17.95 123.85 -16.8 121.85 -16.6 121.1 -14.85 L120.45 0.5 156.05 0.7 153.75 -10.3 M154.7 -30.55 L145.15 -30.55 145.15 -12.6 154.7 -12.6 154.7 -30.55 M158.5 9.55 L156.05 2.25 154.35 1.95 153.65 2.3 120.2 2.2 118.3 9.45 158.5 9.55 M93.95 -13.8 Q93.9 -15.0 94.35 -15.95 94.8 -16.95 95.45 -17.0 96.1 -17.1 96.6 -16.25 97.1 -15.4 97.15 -14.0 L97.2 -4.5 99.5 -1.55 99.75 11.3 99.7 17.85 102.3 17.55 102.2 11.1 102.2 11.05 102.5 4.15 103.05 2.65 103.8 19.2 -30.55 19.25 -30.5 7.1 -30.2 9.45 -29.85 17.85 -28.15 17.85 -28.5 11.45 -28.55 1.95 -10.5 1.4 -10.5 14.25 -10.5 17.85 -8.95 17.45 -8.8 14.05 -8.8 1.45 8.7 1.7 8.65 14.1 8.65 14.35 9.05 17.35 11.4 17.85 11.65 13.95 11.3 12.4 Q10.95 11.25 11.6 10.6 12.4 9.8 13.65 9.45 L14.15 2.2 15.0 1.6 Q17.45 -0.15 19.8 1.25 L20.6 9.25 23.85 10.8 23.95 13.55 23.95 17.85 28.5 17.45 28.95 13.5 31.0 12.95 31.85 6.25 Q36.8 4.8 42.05 5.55 L44.1 7.0 45.05 12.6 46.45 13.5 47.35 17.85 49.75 17.85 49.5 13.35 Q49.45 8.7 51.1 5.25 52.75 1.75 55.2 1.65 57.6 1.55 59.35 4.9 61.05 8.2 61.1 13.1 L61.15 15.55 61.15 15.65 61.2 15.55 62.35 13.1 62.55 5.3 Q62.65 3.25 63.85 1.8 65.7 -0.5 68.5 1.0 L69.15 1.75 Q71.45 6.85 70.55 12.6 L70.6 13.0 71.45 14.0 Q72.85 15.75 72.1 17.85 L73.3 17.55 73.1 12.6 73.7 -0.2 76.35 -4.35 76.6 -14.45 Q76.6 -15.55 77.3 -16.25 78.0 -17.0 78.95 -16.95 79.85 -16.95 80.5 -16.15 81.1 -15.4 81.05 -14.35 L80.65 -3.15 82.15 -0.55 84.85 -5.1 85.4 -14.2 Q85.4 -15.2 85.8 -15.95 86.2 -16.7 86.8 -16.95 L88.0 -16.9 88.9 -15.75 Q89.25 -14.95 89.2 -14.05 L89.05 -5.2 89.8 -4.45 90.55 -2.65 Q91.75 4.5 91.8 11.85 L91.95 17.6 93.3 17.85 98.85 17.85 98.4 -1.75 95.95 -4.7 92.95 -1.35 93.35 17.65 Q92.4 17.95 92.45 17.1 L92.6 11.45 92.55 -2.2 94.15 -4.3 93.95 -13.8 M102.85 -17.65 L5.5 -17.65 8.45 -13.85 11.45 -10.15 11.45 -10.1 11.5 -10.1 10.6 -1.4 15.65 -1.25 15.6 -14.05 Q16.8 -15.15 19.2 -15.1 L21.8 -15.3 31.3 -14.95 31.45 -13.7 32.05 -0.65 35.0 -0.35 34.7 -13.45 34.8 -14.45 34.8 -14.55 34.85 -15.3 Q41.9 -17.1 48.55 -15.25 L48.25 -14.2 49.2 -0.35 52.0 -0.6 51.85 -13.75 Q53.05 -15.7 55.25 -16.45 59.85 -17.95 61.55 -14.0 L62.6 -0.6 66.6 -0.7 66.6 0.05 Q47.1 1.2 27.55 0.5 10.95 -0.85 -5.25 0.0 L-5.85 -0.35 -27.8 -0.15 -27.75 -0.7 -27.8 -0.8 -28.1 -1.0 -28.05 -4.6 -27.75 -8.5 Q-27.6 -9.5 -26.9 -10.15 L-26.35 -10.3 Q-24.35 -10.3 -23.4 -8.4 L-23.45 -0.9 -21.1 -1.05 -21.6 -9.55 -20.0 -11.9 -20.0 -11.8 -19.95 -11.85 -16.95 -14.8 -16.4 -15.05 Q-12.65 -16.65 -9.4 -14.95 -4.65 -12.15 -4.15 -6.5 L-4.0 -6.1 -4.35 -1.55 -1.25 -1.55 -2.05 -9.9 1.0 -14.45 4.4 -17.55 4.4 -17.65 -31.25 -17.65 -31.25 -13.45 -31.4 -5.8 -31.85 -10.0 Q-32.25 -14.55 -32.9 -19.1 -33.55 -23.75 -31.75 -27.45 L-31.65 -19.5 102.1 -19.5 102.65 -27.65 102.85 -17.65 M88.15 -14.15 L87.95 -15.8 86.45 -15.75 86.35 -12.75 86.3 -10.25 85.85 -6.2 86.0 -6.2 88.1 -6.85 88.1 -7.05 88.15 -14.15 M96.2 -14.55 Q96.35 -16.6 95.0 -15.55 L95.4 -5.85 96.2 -14.55 M88.0 -5.4 L86.15 -5.45 83.0 -0.65 83.0 17.85 91.3 17.65 90.15 -2.0 88.0 -5.4 M107.2 22.5 L107.4 24.0 108.1 23.95 107.2 22.5 M106.9 17.2 L107.2 18.5 108.1 18.8 106.9 17.2 M107.2 13.55 L106.75 12.85 106.95 13.4 107.2 13.55 M16.5 28.95 Q29.4 29.3 42.2 29.25 L67.75 29.15 76.95 29.05 91.15 28.75 105.55 28.55 Q106.05 28.55 106.2 28.2 L104.4 -31.1 -33.65 -31.0 -32.6 28.5 -32.45 28.8 -17.75 29.65 Q-5.2 29.85 7.45 29.35 L16.4 29.0 16.65 29.0 16.5 28.95 M79.75 -14.85 L78.9 -15.85 77.5 -14.95 77.45 -14.05 77.45 -5.35 77.4 -4.55 79.4 -4.3 79.9 -14.65 79.75 -14.8 79.75 -14.85 M52.6 -7.55 L61.25 -7.4 60.85 -12.25 52.55 -12.9 52.55 -12.85 52.5 -7.55 52.5 -7.45 52.5 -7.4 52.55 -7.45 52.6 -7.55 M52.75 -13.35 L52.75 -13.25 52.85 -13.25 60.3 -13.8 59.55 -15.2 59.25 -15.25 Q55.45 -16.35 52.75 -13.35 M64.6 1.7 L63.95 2.45 Q63.45 3.0 63.35 3.65 62.8 7.9 63.2 12.15 L69.05 11.5 69.75 11.75 68.85 2.25 67.9 1.65 Q66.2 0.75 64.6 1.7 M52.5 -6.9 L52.85 -0.45 61.85 -0.6 60.95 -6.8 52.55 -6.9 52.5 -6.95 52.5 -6.9 M36.1 -6.65 L36.5 -0.35 47.7 -0.4 47.3 -6.75 36.15 -6.65 36.1 -6.7 36.1 -6.65 M52.7 9.7 L50.3 10.25 50.7 17.85 55.0 17.85 55.05 16.65 52.8 14.95 52.7 9.7 M54.1 9.8 L53.65 13.9 55.75 15.75 57.5 13.9 57.45 10.15 54.1 9.8 M58.05 10.2 L58.0 14.5 56.2 17.35 60.55 17.85 59.85 10.25 58.05 10.2 M63.2 12.35 L63.5 13.9 62.65 15.3 62.5 17.85 71.35 17.55 71.2 14.8 69.6 13.6 69.7 12.3 63.25 12.35 63.2 12.3 63.2 12.35 M49.95 9.2 L60.3 9.2 56.65 2.75 53.35 2.6 49.95 9.2 M79.35 -3.55 L76.9 -3.75 74.5 0.5 74.25 17.85 81.65 17.85 81.55 0.3 79.35 -3.55 M47.35 -7.55 L47.3 -14.45 36.05 -14.65 36.1 -7.35 47.35 -7.55 M29.5 -9.65 L28.75 -9.55 16.6 -9.9 30.2 -10.2 30.45 -13.7 16.6 -13.25 16.6 -9.9 16.6 -1.2 30.6 -0.45 29.5 -9.65 M8.85 -11.2 L5.0 -16.5 -0.55 -10.9 8.85 -11.2 M19.0 2.1 L15.55 2.55 15.25 7.05 19.4 7.2 19.0 2.1 M7.2 7.35 L7.2 3.3 -7.9 3.3 -7.9 7.35 7.2 7.35 M19.4 7.65 L15.25 7.35 15.2 10.25 13.0 10.9 12.25 17.85 23.0 17.85 22.75 11.3 20.45 10.15 20.3 10.35 19.65 10.3 19.4 7.65 M32.0 7.15 L32.2 8.6 32.25 13.3 43.55 13.2 43.0 7.05 42.2 6.4 32.0 7.15 M32.1 13.9 L29.8 14.4 29.75 17.85 46.3 17.85 44.7 13.5 43.45 14.05 32.1 13.9 M9.55 -1.7 L9.9 -9.9 -0.55 -10.1 -0.4 -1.55 9.55 -1.7 M7.25 17.55 L7.25 8.05 -7.7 8.05 -7.7 17.55 7.25 17.55 M-6.3 -10.1 Q-8.25 -14.5 -13.25 -14.5 -18.65 -14.5 -19.75 -9.2 L-5.75 -8.8 -5.75 -8.9 -6.3 -10.1 M-20.45 -8.6 L-20.45 -1.45 -6.0 -1.45 -6.0 -8.6 -20.45 -8.6 M-27.15 -1.0 L-24.6 -1.35 -24.55 -8.2 -26.9 -9.0 -27.15 -1.1 -27.2 -1.0 -27.15 -1.0 M-27.0 7.35 L-26.9 7.35 -12.3 7.6 -11.95 2.7 -27.0 2.65 -26.8 4.3 -27.0 7.35 M-24.35 14.15 L-15.45 14.15 -15.45 10.25 -24.35 10.25 -24.35 14.15 M-24.75 15.15 L-24.75 9.7 -14.7 9.7 -14.7 15.15 -24.75 15.15 M-12.2 7.95 L-27.0 7.95 -27.0 17.85 -12.2 17.85 -12.2 7.95 M-53.15 -25.35 L-74.75 -25.4 -75.0 0.25 -73.0 1.2 Q-72.3 2.5 -73.0 3.9 L-73.45 4.5 -74.0 5.15 -74.05 5.3 -71.9 6.65 -73.0 9.2 -72.35 11.25 -73.0 12.3 -72.35 25.55 -52.5 25.15 -52.8 -24.2 -53.15 -25.35 M-49.25 -9.9 L-50.4 -10.25 -51.0 24.6 -50.6 29.95 -48.45 29.95 -48.15 17.6 -49.25 -9.9 M-35.6 -10.6 L-36.9 -10.5 Q-37.6 -10.05 -37.65 -8.95 -37.9 -3.8 -37.8 1.35 L-37.15 23.85 -36.55 29.65 -33.8 29.1 -35.6 -10.6 M-39.8 -9.8 L-42.95 -10.45 -42.85 22.4 -43.2 29.05 -42.9 29.5 -42.55 29.8 -41.55 30.15 -40.6 30.55 -40.1 30.5 -39.65 30.5 -39.25 30.35 -38.95 30.05 -39.8 -9.8 M-44.85 -10.3 L-47.2 -10.1 -46.95 24.15 -47.5 29.85 -44.1 29.45 -44.85 -10.3 M-67.8 -19.75 L-72.7 -16.4 Q-71.05 -20.75 -65.1 -22.0 L-64.5 -21.25 -60.15 -23.1 -59.25 -22.25 -59.6 -20.9 -61.05 -21.25 Q-63.2 -20.05 -64.95 -18.4 -66.6 -16.85 -67.95 -18.0 L-67.75 -19.6 -67.65 -19.8 -67.75 -19.75 -67.8 -19.75 M-69.55 -16.3 L-68.45 -15.9 -58.45 -20.65 -57.7 -19.55 -68.6 -13.95 -70.1 -14.7 -71.95 -13.4 -72.15 -13.7 Q-72.0 -16.15 -69.55 -16.3 M-66.75 -12.85 L-66.45 -11.9 -69.3 -10.85 -66.75 -12.85 M-57.45 -15.55 L-57.4 -15.5 -56.3 -13.7 -60.0 -12.15 -60.75 -14.8 Q-59.45 -15.65 -58.0 -16.15 -57.45 -16.35 -57.45 -15.55 M-57.7 -17.6 Q-57.15 -17.4 -57.75 -16.95 -59.25 -16.0 -60.85 -15.15 L-61.35 -16.0 -57.9 -17.75 -57.7 -17.6 M-67.6 -9.85 L-66.05 -10.75 -65.15 -8.65 -67.75 -7.65 -68.8 -8.15 -67.6 -9.85 M-62.25 -14.4 L-64.45 -13.2 Q-64.75 -13.05 -64.9 -13.05 L-65.45 -13.65 -62.65 -15.25 -62.25 -14.4 M-64.75 -11.75 L-62.05 -13.85 -61.45 -11.35 -63.8 -9.55 -64.75 -11.75 M-73.45 7.3 L-73.4 7.1 -73.45 7.15 -75.05 6.9 -74.25 2.0 -76.1 1.75 -76.4 4.0 -77.95 -0.45 -79.7 -1.5 -80.0 -13.6 -80.55 -15.0 -92.25 -15.7 -78.85 -16.1 -78.2 -15.15 -79.3 -13.6 -78.55 -3.0 -77.65 -3.0 -76.95 -2.55 -77.8 -17.65 -78.35 -24.4 Q-82.4 -27.6 -87.6 -27.95 -94.65 -28.9 -100.5 -24.8 -101.15 -24.35 -101.3 -23.65 -102.05 -20.6 -101.95 -17.2 L-101.95 -16.0 -101.15 10.1 -99.4 10.05 -99.1 11.1 -104.2 11.65 -104.5 25.0 -104.55 25.0 -104.55 25.05 -104.55 25.1 -104.65 25.3 -104.35 28.2 -101.0 28.7 -101.0 28.85 -74.55 29.5 -74.85 25.55 -74.7 25.5 -74.65 25.4 -74.65 11.25 -73.8 10.65 -74.7 10.25 -74.75 8.5 -73.45 7.3 M-76.0 10.35 L-75.3 11.4 -78.05 11.7 -78.6 11.65 Q-79.8 11.2 -79.75 8.3 -79.7 4.1 -78.65 0.9 L-77.75 10.15 -76.0 10.35 M-69.9 12.3 Q-68.95 9.9 -66.4 10.3 L-65.65 10.35 -53.9 3.55 -55.25 11.45 -55.3 13.15 Q-56.0 14.0 -57.05 14.4 -58.9 15.1 -60.65 16.45 -64.9 19.85 -69.9 20.8 L-69.95 19.05 -70.5 18.45 -69.9 12.3 M-52.4 29.3 L-52.5 25.3 -57.25 26.2 Q-64.8 27.2 -72.35 26.45 L-72.3 30.2 -52.4 29.3 M-67.55 11.35 L-68.75 12.4 -69.15 19.2 -69.65 20.25 -68.6 20.4 -56.1 12.65 -56.4 11.55 -55.85 10.9 -55.7 5.25 -62.6 9.8 -63.25 9.65 -65.8 11.65 -67.55 11.35 M-81.25 -17.85 L-78.0 -17.2 -101.3 -17.55 -81.25 -17.85 M-114.35 -17.65 L-112.85 -17.05 Q-109.3 -15.55 -108.0 -11.95 -104.55 -2.4 -106.0 7.6 -106.3 9.55 -107.4 11.05 -108.7 12.7 -108.1 13.5 L-106.7 14.65 -106.55 15.05 Q-106.0 16.35 -106.45 17.7 -107.3 20.2 -109.8 20.25 L-110.15 23.55 Q-110.25 25.15 -111.2 26.65 -113.95 31.0 -118.85 31.75 L-120.2 32.05 Q-127.4 31.5 -134.8 32.1 -138.8 32.5 -141.65 29.7 -144.7 26.65 -145.35 22.1 -145.85 24.95 -147.4 27.2 -148.6 29.0 -150.75 29.4 -165.5 32.8 -180.85 31.0 -184.05 30.55 -186.0 27.9 L-186.1 29.75 -187.35 29.85 -188.4 30.9 Q-200.7 31.7 -212.8 30.25 -217.25 29.7 -217.7 25.35 -218.2 20.8 -217.9 16.3 -217.05 3.65 -210.05 -6.7 -207.9 -9.95 -208.1 -13.55 -212.65 -14.8 -214.6 -19.55 -212.7 -25.25 -207.55 -27.4 -203.5 -29.1 -200.15 -25.95 -196.9 -22.8 -195.15 -18.25 L-192.65 -11.4 Q-189.4 -1.7 -187.6 8.15 -186.25 2.8 -183.1 -1.75 L-179.15 -6.5 Q-176.75 -8.9 -175.45 -10.75 L-180.85 -18.95 -180.7 -20.0 Q-177.1 -23.35 -172.25 -24.2 L-171.75 -25.0 Q-169.3 -26.05 -166.75 -25.45 -163.0 -25.8 -162.05 -22.9 L-155.6 -21.55 -153.85 -18.5 Q-158.6 -16.4 -159.0 -11.35 -149.2 1.1 -145.95 16.75 -144.95 5.45 -141.0 -5.1 L-139.45 -8.5 Q-137.35 -12.4 -138.15 -16.3 L-144.55 -19.25 Q-142.9 -20.45 -140.85 -21.25 -135.95 -23.2 -130.65 -23.55 -123.8 -24.45 -118.3 -20.35 L-119.75 -17.55 -119.95 -11.3 -119.6 -12.8 Q-118.8 -16.65 -114.5 -17.6 L-114.35 -17.65 M-115.35 -12.95 L-118.4 -6.95 -112.65 10.7 Q-107.85 6.3 -108.9 -0.45 L-109.35 -3.75 Q-110.1 -9.2 -114.1 -12.7 -114.45 -13.0 -115.0 -13.0 L-115.35 -12.95 M-106.7 4.55 Q-105.45 -6.0 -111.2 -14.7 -112.9 -17.2 -115.65 -16.3 L-115.5 -16.55 -115.9 -16.45 -119.7 -10.95 -119.45 -9.7 -118.8 -7.75 -118.7 -8.55 Q-118.3 -12.7 -114.65 -13.65 -109.4 -10.4 -108.3 -3.7 -106.95 4.2 -110.85 11.2 L-112.05 11.75 -111.0 16.35 Q-110.95 17.5 -110.4 18.25 -109.9 19.0 -109.2 18.95 -108.5 18.9 -108.0 18.05 -107.55 17.2 -107.65 16.15 -107.65 15.45 -108.3 14.95 -108.95 14.45 -109.9 14.45 L-110.0 13.05 -106.7 4.55 M-97.55 -15.3 L-100.15 -15.4 -95.6 -15.5 -97.55 -15.3 M-112.0 18.05 Q-112.4 13.5 -113.95 9.15 L-114.4 7.6 Q-115.65 3.1 -117.3 -0.85 -120.6 -8.5 -121.15 -16.55 L-119.35 -19.15 Q-119.55 -21.3 -122.6 -21.95 -131.6 -24.05 -140.35 -20.65 L-140.4 -20.6 -140.35 -20.55 -142.45 -19.1 -141.35 -18.65 Q-138.65 -20.0 -137.25 -17.75 L-137.1 -16.45 -137.05 -14.95 Q-137.8 -10.15 -139.65 -5.7 -144.25 5.3 -144.6 17.2 -145.55 24.15 -140.8 28.75 -138.75 30.65 -135.85 30.6 L-118.8 29.65 Q-114.9 29.3 -113.05 25.8 -111.05 22.15 -112.0 18.05 M-121.25 14.15 Q-122.2 13.35 -122.45 12.05 -122.65 11.05 -121.85 10.25 -119.2 7.55 -118.0 11.05 L-119.4 12.05 -120.1 10.5 -120.85 11.7 -118.4 13.45 Q-117.2 13.15 -116.45 12.15 -115.7 11.05 -116.1 9.7 -117.3 8.8 -118.55 8.05 -119.85 7.3 -121.3 7.6 -125.2 8.7 -124.1 12.7 L-123.35 12.95 -125.05 13.0 -125.2 12.85 Q-126.35 10.3 -124.65 7.95 L-124.6 7.8 -124.65 7.85 -126.0 6.95 -126.1 6.5 Q-125.85 3.55 -122.85 3.65 -121.7 4.2 -120.6 4.7 L-119.3 3.45 -119.25 3.05 Q-118.65 0.4 -120.8 -1.15 L-123.05 1.8 -123.55 0.9 -123.35 0.15 -124.45 -1.3 Q-124.95 -2.1 -124.75 -2.85 -124.0 -5.3 -125.25 -6.25 L-125.3 -6.5 -125.25 -6.6 -125.0 -6.75 Q-124.15 -7.0 -123.8 -6.25 L-123.5 -1.8 -122.4 -0.8 -121.75 -2.0 -119.8 -2.2 Q-115.6 1.8 -119.45 5.95 L-116.95 7.35 Q-115.75 8.2 -115.2 9.45 -113.55 13.0 -117.2 14.85 L-116.1 15.15 Q-113.45 15.85 -112.25 18.25 L-112.65 19.8 Q-116.2 18.35 -119.25 20.5 L-119.95 23.25 -124.2 18.9 -125.2 22.2 -126.8 21.35 -126.8 21.3 Q-130.8 21.8 -132.75 25.25 L-134.1 23.2 -132.7 20.3 Q-130.5 18.5 -128.35 20.05 -128.85 20.8 -130.0 20.3 -133.1 20.6 -132.9 23.9 -131.0 20.6 -127.25 20.3 -128.05 19.4 -128.4 18.1 -129.35 14.5 -132.7 15.25 L-132.85 15.7 Q-131.55 16.35 -130.9 17.35 L-131.15 18.75 -132.75 20.1 Q-133.45 20.15 -133.8 19.7 -135.9 17.15 -139.3 17.4 L-140.4 19.55 -140.2 20.55 -142.2 20.35 -143.05 18.6 -142.3 16.65 Q-141.55 14.95 -139.9 14.25 -136.4 12.7 -134.3 16.25 L-133.9 15.35 Q-131.8 12.5 -128.7 14.75 L-129.75 13.3 Q-130.0 13.0 -130.25 13.05 L-130.55 13.35 -130.75 12.5 -130.35 12.45 Q-127.95 12.75 -127.35 15.55 L-126.55 14.8 Q-124.0 12.65 -121.25 14.25 L-120.35 15.1 -120.3 15.15 Q-119.75 16.65 -118.8 15.25 L-121.25 14.15 M-113.2 11.75 L-113.2 11.85 Q-113.6 11.2 -113.2 11.75 M-84.65 8.05 L-84.45 7.55 -84.0 7.35 Q-83.75 7.35 -83.55 7.55 L-83.35 8.05 -83.55 8.55 Q-83.75 8.75 -84.0 8.75 L-84.45 8.55 -84.65 8.05 M-88.0 6.25 L-87.25 6.0 -85.15 7.5 -85.25 9.05 -85.5 9.1 Q-88.6 10.6 -91.7 9.1 -91.3 6.9 -88.85 7.0 L-88.0 6.25 M-88.25 4.7 Q-87.75 4.9 -87.75 5.2 -87.75 5.5 -88.25 5.75 L-89.45 5.95 -90.65 5.75 -91.15 5.2 -90.65 4.7 -89.45 4.45 -88.25 4.7 M-99.55 14.2 L-98.15 13.35 -96.4 13.85 -96.7 15.05 -97.95 15.45 -98.05 22.35 -98.25 22.35 Q-100.7 18.85 -99.55 14.2 M-97.1 9.25 L-97.5 8.45 -97.25 8.1 Q-97.9 7.05 -98.5 7.65 L-98.2 9.1 -98.35 9.25 Q-100.1 9.0 -99.4 6.55 -96.85 5.4 -95.0 7.15 L-93.4 6.95 -92.6 7.8 -97.1 9.25 M-82.45 14.25 L-80.0 14.25 -80.0 21.75 -82.45 21.75 -82.45 14.25 M-128.85 -11.25 Q-127.4 -11.05 -126.65 -9.6 -126.45 -9.25 -126.85 -8.85 L-129.0 -9.25 -127.95 -6.65 -129.1 -4.5 Q-132.6 -5.65 -134.45 -2.65 L-131.25 -3.45 Q-129.7 -3.1 -128.65 -2.2 -123.95 2.05 -127.2 8.1 L-126.9 11.25 -127.25 11.05 Q-128.0 5.05 -133.3 3.65 -138.05 7.05 -135.1 11.45 L-133.2 11.5 -131.85 9.7 -132.9 9.1 -134.0 9.05 Q-134.35 8.6 -134.15 8.2 -133.8 7.45 -132.8 7.5 L-130.4 9.05 Q-129.95 10.25 -130.8 11.25 -134.0 15.1 -137.5 11.4 L-142.1 10.1 -141.6 8.9 Q-139.85 7.45 -137.85 8.65 -137.45 4.2 -133.65 2.25 -129.15 2.65 -127.7 6.85 -125.8 1.8 -129.15 -1.85 -132.65 -2.55 -134.55 0.35 L-134.9 0.5 -135.8 0.2 -136.0 -0.1 -135.95 -2.15 Q-134.9 -7.05 -129.9 -6.45 L-130.5 -7.85 -130.65 -8.0 Q-131.35 -10.45 -128.85 -11.25 M-155.2 -19.65 Q-156.2 -22.0 -158.75 -21.9 -161.5 -22.25 -163.25 -20.95 L-164.35 -16.75 -164.2 -21.85 -163.2 -23.35 Q-165.85 -25.35 -169.2 -24.7 L-170.15 -24.3 -170.9 -23.75 -170.1 -19.2 -171.4 -23.05 Q-173.55 -23.65 -175.55 -22.2 L-176.35 -21.25 Q-178.6 -21.5 -180.25 -19.75 L-180.5 -19.3 -176.9 -18.05 -176.55 -17.4 -176.6 -17.35 -170.65 -17.15 -170.85 -18.5 -168.45 -18.45 -164.9 -15.9 Q-162.6 -15.55 -161.4 -17.25 L-160.7 -18.4 Q-158.35 -17.15 -156.0 -18.05 -154.65 -18.6 -155.2 -19.65 M-137.8 9.7 Q-139.3 8.55 -141.0 9.5 L-137.8 9.7 M-122.05 15.25 L-123.95 14.8 -125.5 15.75 Q-127.45 17.2 -126.25 19.3 L-125.15 17.9 Q-122.2 17.45 -120.55 20.4 -119.85 17.35 -122.05 15.25 M-121.85 5.95 L-123.5 4.95 -124.6 5.95 -124.05 7.3 -121.85 5.95 M-119.35 17.8 L-119.2 19.1 Q-116.55 16.85 -113.35 18.45 -115.9 14.9 -119.1 16.9 L-119.35 17.8 M-141.95 19.2 L-139.45 16.25 -135.5 16.7 -138.3 14.35 Q-141.95 15.6 -141.95 19.2 M-186.55 15.8 Q-186.3 22.0 -183.5 27.05 -181.95 29.75 -178.5 29.75 -167.2 30.2 -155.9 29.15 L-155.65 29.15 -152.9 28.7 Q-151.7 28.55 -150.65 27.55 -145.2 22.75 -147.55 15.7 -150.3 5.8 -155.25 -3.15 L-157.8 -8.1 Q-158.9 -10.3 -160.45 -9.65 L-161.05 -9.15 -161.3 -8.0 -161.3 -7.9 -158.45 -1.4 -160.1 -7.45 -157.9 -0.95 -157.9 -0.75 Q-158.0 -0.2 -158.2 -0.7 L-159.45 -1.75 -162.0 -8.8 -163.45 -8.7 -164.55 -4.2 -163.15 -2.0 -162.45 -0.35 Q-161.7 4.05 -166.15 4.7 L-166.15 4.8 -162.9 14.65 -164.05 15.35 -167.8 1.3 -167.85 -0.15 -167.95 -1.2 -168.0 -0.2 -168.0 1.25 -168.15 4.4 -168.75 5.0 -169.9 15.1 -170.8 14.65 -169.7 5.05 -174.7 1.8 -173.25 -2.85 -172.3 -4.45 -176.55 0.0 -174.85 -1.95 Q-171.95 -5.05 -171.15 -9.05 L-171.3 -9.0 -172.55 -7.85 Q-176.65 -4.15 -178.8 1.1 L-178.3 -1.2 Q-177.35 -4.6 -175.15 -7.25 L-173.9 -8.75 -175.4 -9.55 -177.4 -7.7 Q-186.5 2.3 -186.55 15.8 M-84.85 19.9 Q-83.8 20.2 -83.8 20.65 -83.8 21.1 -84.85 21.4 L-87.35 21.7 -89.85 21.4 Q-90.9 21.1 -90.9 20.65 -90.9 20.2 -89.85 19.9 L-87.35 19.6 -84.85 19.9 M-175.85 -13.4 Q-175.85 -12.1 -174.5 -11.2 -173.2 -10.3 -171.3 -10.3 L-170.15 -10.45 -171.2 -15.75 -173.5 -15.2 -178.85 -17.7 -175.85 -13.4 M-168.95 -11.35 L-168.75 -11.25 -168.75 -11.2 -168.7 -11.2 -168.4 -10.95 Q-165.9 -9.4 -163.0 -10.35 L-162.8 -11.25 -159.8 -11.2 -160.0 -12.15 -157.9 -16.35 -160.05 -17.25 -162.7 -11.6 -162.45 -12.8 -161.05 -16.6 -165.0 -14.65 -169.65 -17.8 -168.95 -11.35 M-181.4 -20.2 L-181.4 -20.3 Q-180.8 -20.85 -181.4 -20.2 M-187.8 15.4 Q-189.75 2.55 -193.25 -9.7 -194.55 -14.2 -196.15 -18.45 -197.85 -22.9 -201.55 -25.7 -203.35 -27.05 -205.65 -27.5 L-207.85 -26.4 Q-209.75 -25.4 -211.2 -23.6 -212.35 -22.2 -213.1 -20.4 L-213.45 -18.95 -211.6 -16.65 -209.45 -14.5 -206.75 -14.85 -204.1 -18.85 Q-204.1 -19.65 -204.65 -20.2 -205.2 -20.8 -206.0 -20.8 L-206.05 -20.8 -206.05 -20.7 -209.85 -19.35 Q-210.7 -18.95 -210.65 -19.65 L-210.55 -20.25 -209.4 -23.0 -208.7 -23.1 -206.35 -22.85 -205.75 -22.2 -207.4 -22.6 -209.05 -22.25 -210.05 -20.75 -208.7 -20.2 -205.4 -21.8 -205.7 -23.75 -205.45 -24.3 -205.05 -24.5 Q-204.8 -24.45 -204.65 -24.2 L-204.55 -23.65 -204.55 -23.35 -204.35 -21.7 -204.35 -21.6 -203.9 -20.8 -201.9 -21.55 -201.75 -21.6 Q-200.8 -21.35 -202.2 -20.6 L-203.65 -20.05 -203.7 -20.1 -203.7 -20.0 -202.4 -19.05 -201.55 -18.4 -200.15 -17.65 -201.5 -17.7 -203.6 -18.75 -201.9 -15.8 -196.65 -2.45 -202.05 -15.2 -203.3 -17.15 -203.45 -17.25 Q-203.75 -18.15 -204.25 -16.6 -205.0 -14.35 -204.65 -11.95 L-205.2 0.9 -204.95 -11.75 -204.85 -14.95 -205.15 -13.95 -205.05 -14.45 -205.2 -13.95 -208.05 -9.15 Q-210.0 -4.65 -212.25 -0.35 -215.05 4.9 -216.0 10.7 L-216.85 16.6 -217.05 19.2 -216.85 21.15 -216.45 26.3 -216.45 26.4 -216.35 26.3 -213.9 25.1 -202.35 18.95 Q-201.65 18.05 -201.55 16.6 -201.3 12.35 -201.45 8.05 L-202.2 -10.85 -203.65 -16.9 -202.15 -11.95 -201.5 -3.9 -200.85 3.4 Q-199.85 11.4 -201.75 18.9 L-189.3 24.25 -187.5 25.5 Q-186.55 24.3 -186.85 22.35 L-187.8 15.4 M-164.95 -2.85 L-165.85 -0.95 -165.45 -3.65 -167.1 -6.35 -166.55 1.45 -165.9 3.5 Q-165.0 3.45 -164.4 2.85 -163.05 1.65 -163.0 0.1 L-164.95 -2.85 M-163.95 -8.6 L-167.2 -8.55 -164.95 -4.95 -163.95 -8.6 M-169.1 -1.85 L-169.05 -8.15 -171.25 -3.95 -173.5 1.3 -169.55 3.7 -169.3 1.0 -169.1 -1.8 -169.1 -1.85 M-213.45 25.15 L-216.0 26.9 Q-214.3 29.0 -211.45 29.5 -200.15 30.3 -188.85 29.65 L-187.75 27.65 -188.35 25.85 -190.5 24.85 Q-196.3 22.2 -202.05 19.5 L-213.45 25.15" fill="#424348" fill-rule="evenodd" stroke="none"/>
    <path d="M207.5 -13.6 L204.95 -12.95 203.0 -11.65 201.15 -10.85 201.15 -10.8 195.2 -12.75 194.85 -13.45 194.85 -13.5 194.6 -14.0 194.3 -14.55 193.75 -14.75 193.3 -14.65 Q192.15 -14.2 191.95 -13.0 L192.1 -12.85 Q185.7 -11.4 183.95 -5.5 L183.95 -5.0 181.05 -5.1 180.3 -26.05 180.1 -5.2 180.05 -5.2 171.1 -3.25 171.3 -22.85 Q175.6 -25.1 180.1 -26.2 L186.3 -26.6 196.7 -26.6 210.3 -26.05 210.2 -15.25 208.9 -15.3 207.85 -13.75 207.5 -13.6 M186.25 -24.45 L182.7 -17.85 185.9 -18.5 187.35 -18.6 188.7 -17.95 190.2 -18.35 190.65 -17.85 191.3 -18.1 Q194.75 -17.1 197.6 -18.5 L208.0 -18.3 209.75 -22.7 Q209.45 -25.0 206.95 -25.15 L206.7 -25.1 Q206.1 -24.65 206.6 -24.2 L203.75 -23.5 203.75 -24.35 Q199.45 -25.45 195.85 -24.3 L195.35 -24.25 195.5 -24.2 195.05 -24.05 Q194.65 -23.85 195.2 -23.75 L195.2 -23.65 189.6 -23.85 188.15 -24.7 186.3 -24.45 186.25 -24.5 186.2 -24.45 186.25 -24.45 M172.1 -15.9 L177.35 -17.9 177.45 -22.65 172.5 -20.35 172.1 -15.9" fill="#ffff00" fill-rule="evenodd" stroke="none"/>
    <path d="M207.5 -13.6 L208.35 -13.8 209.85 -15.05 210.05 -13.2 210.55 -11.7 Q207.25 -10.8 205.15 -12.55 L205.1 -12.6 204.95 -12.95 207.5 -13.6 M188.9 -11.0 L197.55 -11.8 Q197.75 -11.1 196.9 -10.8 L196.1 -10.5 Q192.15 -9.4 188.9 -11.0 M194.85 -13.45 L194.5 -12.9 193.6 -12.7 192.75 -12.9 Q192.35 -13.15 192.35 -13.5 192.35 -13.85 192.75 -14.05 L193.6 -14.3 194.5 -14.05 194.6 -14.0 194.85 -13.5 194.85 -13.45 M96.9 -27.9 Q94.7 -29.1 91.45 -28.85 L69.1 -27.45 60.1 -27.35 59.55 -26.9 Q59.45 -26.4 60.15 -26.3 L69.65 -25.85 96.55 -27.95 Q96.75 -27.55 96.9 -27.9 M99.15 -25.3 L82.65 -25.8 62.95 -24.0 59.75 -23.65 59.05 -23.3 Q71.1 -21.55 83.6 -22.9 L87.15 -23.05 Q88.75 -20.55 91.8 -21.45 L95.0 -21.65 96.6 -22.25 96.85 -22.6 Q97.25 -23.35 98.2 -23.55 99.5 -23.85 99.25 -24.95 L99.15 -25.3 M93.95 -13.8 L94.15 -4.3 92.55 -2.2 92.6 11.45 91.8 11.85 Q91.75 4.5 90.55 -2.65 L89.8 -4.45 89.05 -5.2 89.2 -14.05 93.95 -13.8 M85.4 -14.2 L84.85 -5.1 82.15 -0.55 80.65 -3.15 81.05 -14.35 85.4 -14.2 M76.6 -14.45 L76.35 -4.35 73.7 -0.2 73.1 12.6 70.55 12.6 Q71.45 6.85 69.15 1.75 L68.5 1.0 Q65.7 -0.5 63.85 1.8 62.65 3.25 62.55 5.3 L62.35 13.1 61.1 13.1 Q61.05 8.2 59.35 4.9 57.6 1.55 55.2 1.65 52.75 1.75 51.1 5.25 49.45 8.7 49.5 13.35 L46.45 13.5 45.05 12.6 44.1 7.0 42.05 5.55 Q36.8 4.8 31.85 6.25 L31.0 12.95 28.95 13.5 23.95 13.55 23.85 10.8 20.6 9.25 19.8 1.25 Q17.45 -0.15 15.0 1.6 L14.15 2.2 13.65 9.45 Q12.4 9.8 11.6 10.6 10.95 11.25 11.3 12.4 L11.65 13.95 8.65 14.1 8.7 1.7 -8.8 1.45 -8.8 14.05 -10.5 14.25 -10.5 1.4 -28.55 1.95 -28.5 11.45 -30.2 9.45 -30.5 7.1 -30.55 19.25 103.8 19.2 103.05 2.65 102.5 4.15 99.75 11.3 99.5 -1.55 97.2 -4.5 97.15 -14.0 101.55 -14.2 102.85 -17.65 102.65 -27.65 102.1 -19.5 -31.65 -19.5 -31.75 -27.45 Q-33.55 -23.75 -32.9 -19.1 -32.25 -14.55 -31.85 -10.0 L-31.4 -5.8 -31.25 -13.45 -16.95 -14.8 -19.95 -11.85 -20.0 -11.9 -21.6 -9.55 -21.1 -1.05 -23.45 -0.9 -23.4 -8.4 Q-24.35 -10.3 -26.35 -10.3 L-26.9 -10.15 Q-27.6 -9.5 -27.75 -8.5 L-28.05 -4.6 -28.1 -1.0 -27.8 -0.8 -27.75 -0.7 -27.8 -0.15 -5.85 -0.35 -5.25 0.0 Q10.95 -0.85 27.55 0.5 47.1 1.2 66.6 0.05 L66.6 -0.7 62.6 -0.6 61.55 -14.0 76.6 -14.45 M61.2 15.55 L61.15 15.65 61.15 15.55 61.2 15.55 M102.2 11.05 L102.2 11.1 102.15 11.05 102.2 11.05 M8.45 -13.85 L15.6 -14.05 15.65 -1.25 10.6 -1.4 11.5 -10.1 11.45 -10.15 8.45 -13.85 M31.45 -13.7 L34.7 -13.45 35.0 -0.35 32.05 -0.65 31.45 -13.7 M34.8 -14.45 L34.7 -14.5 34.8 -14.55 34.8 -14.45 M48.25 -14.2 L51.85 -13.75 52.0 -0.6 49.2 -0.35 48.25 -14.2 M1.0 -14.45 L-2.05 -9.9 -1.25 -1.55 -4.35 -1.55 -4.0 -6.1 -4.15 -6.5 Q-4.65 -12.15 -9.4 -14.95 L1.0 -14.45 M93.3 17.75 L93.3 17.85 93.3 17.75 M16.4 29.0 L7.45 29.35 Q-5.2 29.85 -17.75 29.65 L-32.45 28.8 -32.6 28.5 -33.65 -31.0 104.4 -31.1 106.2 28.2 Q106.05 28.55 105.55 28.55 L91.15 28.75 76.95 29.05 67.75 29.15 42.2 29.25 Q29.4 29.3 16.5 28.95 L16.4 28.95 16.4 29.0 M49.35 -21.9 L50.6 -22.95 49.9 -24.7 52.05 -25.45 51.8 -24.95 51.5 -24.5 51.9 -22.9 54.4 -22.75 Q55.35 -23.1 55.75 -24.15 55.6 -27.1 52.5 -27.7 49.05 -28.55 47.3 -25.25 L44.9 -23.85 45.5 -23.05 47.65 -23.2 49.35 -21.9 M38.25 -25.9 L35.25 -25.15 31.85 -25.65 30.05 -25.85 29.65 -27.05 25.2 -26.85 24.9 -27.6 Q21.05 -29.45 19.75 -25.1 19.4 -24.0 20.0 -23.05 21.95 -19.9 25.65 -21.1 L32.05 -23.25 Q35.1 -21.3 38.95 -23.2 L39.8 -22.3 41.6 -22.7 Q42.05 -26.25 38.25 -25.9 M9.35 -22.6 L10.6 -22.5 Q11.75 -21.1 13.5 -22.1 14.55 -22.75 14.6 -23.85 L17.3 -24.25 Q16.7 -27.3 12.85 -26.7 L10.75 -26.1 8.55 -26.05 -6.15 -24.5 -12.5 -24.35 -16.15 -24.45 -16.95 -26.35 -18.25 -27.05 -18.55 -28.75 Q-21.8 -30.4 -24.85 -27.65 -26.5 -26.15 -27.25 -24.0 L-27.3 -23.6 -25.2 -21.95 -24.2 -23.0 Q-24.75 -25.1 -22.15 -26.3 L-21.15 -26.75 -22.45 -23.6 -20.95 -22.9 -18.45 -24.4 -18.35 -22.35 Q-17.2 -21.6 -16.0 -22.0 -15.35 -22.2 -14.75 -22.55 L-14.15 -21.8 -7.6 -21.45 2.0 -22.7 8.2 -23.1 9.35 -22.6" fill="#ffccff" fill-rule="evenodd" stroke="none"/>
    <path d="M215.0 13.5 L215.35 1.3 Q214.4 -0.55 212.1 -0.2 205.35 0.8 199.1 3.45 L201.05 0.2 191.75 3.95 191.65 2.35 190.35 3.3 189.1 -3.55 186.05 3.0 179.15 1.8 184.0 5.8 179.8 7.8 185.65 8.7 182.45 17.45 189.8 11.35 191.25 14.35 183.6 21.25 182.0 21.0 179.6 22.45 179.1 22.8 178.8 -4.0 216.3 -4.4 216.5 12.3 215.05 13.55 215.0 13.5 M195.4 27.95 Q198.15 27.95 200.6 25.35 L204.2 21.7 206.05 19.95 209.1 19.05 203.6 26.6 213.05 20.75 216.5 26.9 216.4 27.2 211.75 28.2 Q203.4 28.6 194.95 28.3 L195.4 27.95 M168.85 1.35 L168.35 6.05 Q168.85 7.15 170.45 6.35 173.3 4.9 175.85 5.6 L176.05 5.15 176.2 5.2 176.35 5.1 176.2 -1.1 168.85 1.35 M170.6 18.05 L173.6 12.55 171.75 12.65 173.35 8.05 168.2 9.45 168.1 -1.2 177.7 -3.85 178.0 13.1 177.95 13.1 177.8 11.1 177.3 28.05 171.5 27.85 171.5 27.7 171.25 26.85 172.6 23.7 Q173.2 21.9 172.25 21.45 L173.0 18.25 Q172.2 16.95 170.65 18.15 L170.6 18.05 M197.05 6.85 L197.25 7.05 197.65 7.2 Q197.0 8.85 195.9 10.35 L194.45 8.95 197.05 6.85" fill="#ff99cc" fill-rule="evenodd" stroke="none"/>
    <path d="M179.6 22.45 L181.9 22.1 182.5 23.05 Q192.5 16.3 199.2 7.2 L197.6 6.0 Q204.9 0.75 214.1 1.0 215.35 7.25 212.35 12.75 L210.4 12.45 Q204.7 20.4 196.55 26.15 L195.5 26.8 Q194.45 27.35 195.4 27.95 L194.95 28.3 178.9 27.3 179.1 22.8 179.6 22.45 M209.3 11.8 L209.35 11.85 Q209.95 11.7 209.5 11.5 208.25 11.5 207.1 12.25 202.65 15.1 199.1 19.05 196.7 21.65 196.1 23.45 201.05 15.9 209.3 11.8 M196.6 12.95 L197.55 13.35 Q196.1 20.6 189.75 24.65 193.1 23.7 195.45 20.1 196.9 17.9 197.85 15.25 L198.1 13.9 Q198.0 12.65 197.05 12.8 L196.6 12.95 M200.75 12.55 L200.7 12.5 200.75 9.5 200.5 13.5 205.8 10.25 200.75 12.55" fill="#958c5e" fill-rule="evenodd" stroke="none"/>
    <path d="M195.85 -24.3 Q199.95 -24.85 203.05 -23.55 L202.8 -23.25 Q202.8 -22.85 203.25 -22.9 206.2 -22.65 207.25 -24.4 L207.3 -24.5 208.9 -23.75 207.35 -18.85 206.55 -19.25 197.85 -19.7 Q196.25 -19.55 196.95 -18.6 L197.0 -18.55 191.3 -18.45 190.7 -19.05 188.55 -18.8 187.65 -19.35 186.25 -19.9 185.25 -19.05 183.35 -18.55 185.95 -23.75 187.75 -24.15 Q192.0 -21.95 196.65 -23.7 L195.5 -24.2 195.35 -24.25 195.85 -24.3 M216.05 13.45 L216.65 21.1 216.2 21.55 215.95 24.65 213.35 20.2 205.3 25.35 210.5 18.1 207.25 18.7 211.1 14.15 Q212.85 14.9 213.75 12.8 L214.4 11.55 214.7 14.35 216.05 13.45 M191.35 3.5 L191.5 4.55 199.85 1.1 193.8 8.75 195.35 10.9 192.25 13.9 189.75 10.55 183.55 15.95 186.4 8.25 181.1 7.6 184.1 5.75 180.4 2.4 186.3 3.4 188.95 -2.3 189.0 -2.3 189.85 3.55 190.45 3.95 Q190.85 3.65 191.3 3.4 L191.35 3.5 M154.7 -30.55 L154.7 -12.6 145.15 -12.6 145.15 -30.55 154.7 -30.55 M88.15 -14.15 L88.1 -7.05 86.75 -7.1 86.3 -10.25 86.35 -12.75 86.95 -14.95 88.15 -14.15 M77.45 -14.05 L78.35 -15.3 79.75 -14.85 79.75 -14.8 78.7 -5.35 77.45 -5.35 77.45 -14.05 M63.25 12.35 L69.7 12.3 69.6 13.6 71.2 14.8 71.35 17.55 62.5 17.85 62.65 15.3 63.5 13.9 63.2 12.35 63.25 12.35 M19.0 2.1 L19.4 7.2 15.25 7.05 15.55 2.55 19.0 2.1 M5.55 3.95 L5.95 4.2 6.0 4.6 Q1.05 7.1 -4.9 5.25 L-5.15 4.35 Q-4.8 4.05 -4.4 4.15 0.75 3.35 5.55 3.95 M-24.35 14.15 L-24.35 10.25 -15.45 10.25 -15.45 14.15 -24.35 14.15 M-22.15 5.85 Q-24.05 6.2 -24.45 4.75 L-23.2 3.3 -13.25 3.75 -13.2 5.1 -13.8 5.55 -22.15 5.85 M-73.45 7.15 L-73.45 7.3 -74.75 8.5 -74.7 10.25 -76.0 10.35 -77.75 10.15 -78.65 0.9 Q-79.7 4.1 -79.75 8.3 -79.8 11.2 -78.6 11.65 L-78.05 11.7 -78.1 24.35 -104.5 25.0 -104.2 11.65 -99.1 11.1 -99.4 10.05 -101.15 10.1 -101.95 -16.0 -100.15 -15.4 -97.55 -15.3 -80.55 -15.0 -80.0 -13.6 -79.7 -1.5 -77.95 -0.45 -76.4 4.0 -76.1 1.75 -74.25 2.0 -75.05 6.9 -73.45 7.15 M-101.95 -17.2 Q-102.05 -20.6 -101.3 -23.65 -101.15 -24.35 -100.5 -24.8 -94.65 -28.9 -87.6 -27.95 -82.4 -27.6 -78.35 -24.4 L-77.8 -17.65 -81.25 -17.85 -101.3 -17.55 -101.95 -17.2 M-97.1 9.25 L-92.6 7.8 -93.4 6.95 -95.0 7.15 Q-96.85 5.4 -99.4 6.55 -100.1 9.0 -98.35 9.25 L-98.2 9.1 -98.5 7.65 Q-97.9 7.05 -97.25 8.1 L-97.5 8.45 -97.1 9.25 M-99.55 14.2 Q-100.7 18.85 -98.25 22.35 L-98.05 22.35 -97.95 15.45 -96.7 15.05 -96.4 13.85 -98.15 13.35 -99.55 14.2 M-88.25 4.7 L-89.45 4.45 -90.65 4.7 -91.15 5.2 -90.65 5.75 -89.45 5.95 -88.25 5.75 Q-87.75 5.5 -87.75 5.2 -87.75 4.9 -88.25 4.7 M-88.0 6.25 L-88.85 7.0 Q-91.3 6.9 -91.7 9.1 -88.6 10.6 -85.5 9.1 L-85.25 9.05 -85.15 7.5 -87.25 6.0 -88.0 6.25 M-84.65 8.05 L-84.45 8.55 -84.0 8.75 Q-83.75 8.75 -83.55 8.55 L-83.35 8.05 -83.55 7.55 Q-83.75 7.35 -84.0 7.35 L-84.45 7.55 -84.65 8.05 M-82.45 14.25 L-82.45 21.75 -80.0 21.75 -80.0 14.25 -82.45 14.25 M-84.85 19.9 L-87.35 19.6 -89.85 19.9 Q-90.9 20.2 -90.9 20.65 -90.9 21.1 -89.85 21.4 L-87.35 21.7 -84.85 21.4 Q-83.8 21.1 -83.8 20.65 -83.8 20.2 -84.85 19.9" fill="#ffffff" fill-rule="evenodd" stroke="none"/>
    <path d="M204.95 -12.95 L205.1 -12.6 205.15 -12.55 Q207.25 -10.8 210.55 -11.7 L210.55 -4.6 183.95 -5.0 183.95 -5.5 183.95 -5.4 Q184.95 -8.9 188.9 -11.0 192.15 -9.4 196.1 -10.5 L196.9 -10.8 Q197.75 -11.1 197.55 -11.8 L202.5 -9.4 201.45 -10.6 203.0 -11.65 204.95 -12.95" fill="#fee1e0" fill-rule="evenodd" stroke="none"/>
    <path d="M172.95 -19.75 L177.35 -22.1 177.1 -18.6 172.65 -17.05 172.95 -19.75 M169.55 2.05 L175.65 -0.15 175.75 4.5 169.05 5.85 169.55 2.05" fill="#c5cad8" fill-rule="evenodd" stroke="none"/>
    <path d="M171.8 9.7 L171.8 10.4 Q171.2 12.55 168.75 13.25 161.15 15.0 153.05 14.6 142.35 14.25 131.7 14.45 120.65 14.7 109.7 13.95 L109.7 13.9 107.95 12.6 107.5 8.35 108.35 9.2 Q110.15 10.6 112.35 10.65 L118.6 11.0 Q141.6 11.35 164.65 10.4 L167.2 10.45 168.0 10.25 Q169.8 9.05 171.8 9.7 M153.75 -10.3 L156.05 0.7 120.45 0.5 121.1 -14.85 Q121.85 -16.6 123.85 -16.8 133.6 -17.95 143.45 -17.3 L143.65 -12.75 153.05 -10.85 153.75 -10.3" fill="#c1e2a0" fill-rule="evenodd" stroke="none"/>
    <path d="M171.65 13.75 L171.75 14.0 170.5 16.05 169.4 17.1 167.6 17.8 168.6 17.8 165.75 17.9 Q138.8 20.25 111.7 18.65 110.65 18.65 109.65 18.05 107.6 16.85 107.7 14.5 L111.05 15.15 Q113.65 16.15 116.1 15.55 L121.9 15.3 143.7 15.8 168.75 14.4 171.65 13.75" fill="#99cc33" fill-rule="evenodd" stroke="none"/>
    <path d="M171.9 23.4 L168.75 27.25 109.75 27.8 108.4 25.25 109.25 24.65 Q136.05 25.5 162.9 24.25 L169.15 23.85 171.1 23.45 171.9 23.4" fill="#cc9933" fill-rule="evenodd" stroke="none"/>
    <path d="M169.05 22.8 L168.8 22.8 169.15 22.9 169.2 23.0 162.0 23.5 136.45 24.4 Q124.2 23.3 111.95 23.9 L110.45 23.95 Q108.55 23.05 107.95 21.15 107.7 20.45 107.6 19.75 110.5 20.7 113.7 20.7 L125.2 20.75 Q141.45 20.95 157.65 20.6 L156.15 20.45 171.7 19.05 170.0 22.35 169.15 22.7 169.05 22.8" fill="#996633" fill-rule="evenodd" stroke="none"/>
    <path d="M158.5 9.55 L118.3 9.45 120.2 2.2 153.65 2.3 154.35 1.95 156.05 2.25 158.5 9.55" fill="#578628" fill-rule="evenodd" stroke="none"/>
    <path d="M99.15 -25.3 L99.25 -24.95 Q99.5 -23.85 98.2 -23.55 97.25 -23.35 96.85 -22.6 L96.6 -22.25 95.0 -21.65 91.8 -21.45 Q88.75 -20.55 87.15 -23.05 L83.6 -22.9 Q71.1 -21.55 59.05 -23.3 L59.75 -23.65 62.95 -24.0 82.65 -25.8 99.15 -25.3 M96.9 -27.9 Q96.75 -27.55 96.55 -27.95 L69.65 -25.85 60.15 -26.3 Q59.45 -26.4 59.55 -26.9 L60.1 -27.35 69.1 -27.45 91.45 -28.85 Q94.7 -29.1 96.9 -27.9 M49.35 -21.9 L47.65 -23.2 45.5 -23.05 44.9 -23.85 47.3 -25.25 Q49.05 -28.55 52.5 -27.7 55.6 -27.1 55.75 -24.15 55.35 -23.1 54.4 -22.75 L51.9 -22.9 51.5 -24.5 51.8 -24.95 52.05 -25.45 49.9 -24.7 50.6 -22.95 49.35 -21.9 M38.25 -25.9 Q42.05 -26.25 41.6 -22.7 L39.8 -22.3 38.95 -23.2 Q35.1 -21.3 32.05 -23.25 L25.65 -21.1 Q21.95 -19.9 20.0 -23.05 19.4 -24.0 19.75 -25.1 21.05 -29.45 24.9 -27.6 L25.2 -26.85 29.65 -27.05 30.05 -25.85 31.85 -25.65 35.25 -25.15 38.25 -25.9 M9.35 -22.6 L8.2 -23.1 2.0 -22.7 -7.6 -21.45 -14.15 -21.8 -14.75 -22.55 Q-15.35 -22.2 -16.0 -22.0 -17.2 -21.6 -18.35 -22.35 L-18.45 -24.4 -20.95 -22.9 -22.45 -23.6 -21.15 -26.75 -22.15 -26.3 Q-24.75 -25.1 -24.2 -23.0 L-25.2 -21.95 -27.3 -23.6 -27.25 -24.0 Q-26.5 -26.15 -24.85 -27.65 -21.8 -30.4 -18.55 -28.75 L-18.25 -27.05 -16.95 -26.35 -16.15 -24.45 -12.5 -24.35 -6.15 -24.5 8.55 -26.05 10.75 -26.1 12.85 -26.7 Q16.7 -27.3 17.3 -24.25 L14.6 -23.85 Q14.55 -22.75 13.5 -22.1 11.75 -21.1 10.6 -22.5 L9.35 -22.6" fill="#fe25fe" fill-rule="evenodd" stroke="none"/>
    <path d="M97.15 -14.0 Q97.1 -15.4 96.6 -16.25 96.1 -17.1 95.45 -17.0 94.8 -16.95 94.35 -15.95 93.9 -15.0 93.95 -13.8 L89.2 -14.05 Q89.25 -14.95 88.9 -15.75 L88.0 -16.9 86.8 -16.95 Q86.2 -16.7 85.8 -15.95 85.4 -15.2 85.4 -14.2 L81.05 -14.35 Q81.1 -15.4 80.5 -16.15 79.85 -16.95 78.95 -16.95 78.0 -17.0 77.3 -16.25 76.6 -15.55 76.6 -14.45 L61.55 -14.0 Q59.85 -17.95 55.25 -16.45 53.05 -15.7 51.85 -13.75 L48.25 -14.2 48.55 -15.25 Q41.9 -17.1 34.85 -15.3 L34.8 -14.55 34.7 -14.5 34.8 -14.45 34.7 -13.45 31.45 -13.7 31.3 -14.95 21.8 -15.3 19.2 -15.1 Q16.8 -15.15 15.6 -14.05 L8.45 -13.85 5.5 -17.65 102.85 -17.65 101.55 -14.2 97.15 -14.0 M92.6 11.45 L92.45 17.1 Q92.4 17.95 93.35 17.65 L93.3 17.75 93.3 17.85 91.95 17.6 91.8 11.85 92.6 11.45 M73.1 12.6 L73.3 17.55 72.1 17.85 Q72.85 15.75 71.45 14.0 L70.6 13.0 70.55 12.6 73.1 12.6 M62.35 13.1 L61.2 15.55 61.15 15.55 61.1 13.1 62.35 13.1 M49.5 13.35 L49.75 17.85 47.35 17.85 46.45 13.5 49.5 13.35 M28.95 13.5 L28.5 17.45 23.95 17.85 23.95 13.55 28.95 13.5 M11.65 13.95 L11.4 17.85 9.05 17.35 8.65 14.35 8.65 14.1 11.65 13.95 M-8.8 14.05 L-8.95 17.45 -10.5 17.85 -10.5 14.25 -8.8 14.05 M-28.5 11.45 L-28.15 17.85 -29.85 17.85 -30.2 9.45 -28.5 11.45 M102.5 4.15 L102.2 11.05 102.15 11.05 102.2 11.1 102.3 17.55 99.7 17.85 99.75 11.3 102.5 4.15 M-31.25 -13.45 L-31.25 -17.65 4.4 -17.65 4.4 -17.55 1.0 -14.45 -9.4 -14.95 Q-12.65 -16.65 -16.4 -15.05 L-16.95 -14.8 -31.25 -13.45" fill="#e29cda" fill-rule="evenodd" stroke="none"/>
    <path d="M86.35 -12.75 L86.45 -15.75 87.95 -15.8 88.15 -14.15 86.95 -14.95 86.35 -12.75 M88.1 -7.05 L88.1 -6.85 86.0 -6.2 85.85 -6.2 86.3 -10.25 86.75 -7.1 88.1 -7.05 M96.2 -14.55 L95.4 -5.85 95.0 -15.55 Q96.35 -16.6 96.2 -14.55 M79.75 -14.85 L78.35 -15.3 77.45 -14.05 77.5 -14.95 78.9 -15.85 79.75 -14.85 M77.45 -5.35 L78.7 -5.35 79.75 -14.8 79.9 -14.65 79.4 -4.3 77.4 -4.55 77.45 -5.35 M5.55 3.95 Q0.75 3.35 -4.4 4.15 -4.8 4.05 -5.15 4.35 L-4.9 5.25 Q1.05 7.1 6.0 4.6 L5.95 4.2 5.55 3.95 M7.2 7.35 L-7.9 7.35 -7.9 3.3 7.2 3.3 7.2 7.35 M-27.0 7.35 L-26.8 4.3 -27.0 2.65 -11.95 2.7 -12.3 7.6 -26.9 7.35 -27.0 7.35 M-22.15 5.85 L-13.8 5.55 -13.2 5.1 -13.25 3.75 -23.2 3.3 -24.45 4.75 Q-24.05 6.2 -22.15 5.85" fill="#9197b7" fill-rule="evenodd" stroke="none"/>
    <path d="M88.0 -5.4 L90.15 -2.0 91.3 17.65 83.0 17.85 83.0 -0.65 86.15 -5.45 88.0 -5.4" fill="#ff9900" fill-rule="evenodd" stroke="none"/>
    <path d="M93.35 17.65 L92.95 -1.35 95.95 -4.7 98.4 -1.75 98.85 17.85 93.3 17.85 93.3 17.75 93.35 17.65" fill="#0099ff" fill-rule="evenodd" stroke="none"/>
    <path d="M52.5 -7.55 L52.55 -12.85 52.55 -12.9 60.85 -12.25 61.25 -7.4 52.6 -7.55 52.5 -7.55 M52.85 -13.25 L52.75 -13.35 Q55.45 -16.35 59.25 -15.25 L59.55 -15.2 60.3 -13.8 52.85 -13.25" fill="#00ffcc" fill-rule="evenodd" stroke="none"/>
    <path d="M64.6 1.7 Q66.2 0.75 67.9 1.65 L68.85 2.25 69.75 11.75 69.05 11.5 63.2 12.15 Q62.8 7.9 63.35 3.65 63.45 3.0 63.95 2.45 L64.6 1.7 M-147.55 15.7 Q-148.65 22.55 -155.2 25.05 L-159.0 25.85 Q-168.5 26.35 -177.9 25.4 -179.05 25.75 -180.05 25.05 -185.25 21.75 -186.55 15.8 -186.5 2.3 -177.4 -7.7 L-175.4 -9.55 -174.5 -8.85 -175.15 -7.25 Q-177.35 -4.6 -178.3 -1.2 L-178.8 1.1 Q-178.6 1.95 -178.0 1.55 -175.45 -0.45 -173.25 -2.85 L-174.7 1.8 -169.7 5.05 -170.8 14.65 -169.9 15.1 -168.75 5.0 -168.15 4.4 -168.0 1.25 -167.8 1.3 -164.05 15.35 -162.9 14.65 -166.15 4.8 -166.15 4.7 Q-161.7 4.05 -162.45 -0.35 L-163.15 -2.0 -164.55 -4.2 -163.8 -6.0 -161.85 -6.55 Q-161.35 -4.3 -160.15 -2.4 -159.4 -1.15 -158.2 -0.7 -158.0 -0.2 -157.9 -0.75 L-157.9 -0.95 -160.45 -9.65 Q-158.9 -10.3 -157.8 -8.1 L-155.25 -3.15 Q-150.3 5.8 -147.55 15.7 M-171.3 -10.3 Q-173.2 -10.3 -174.5 -11.2 -175.85 -12.1 -175.85 -13.4 -173.95 -13.4 -172.6 -12.5 -171.3 -11.6 -171.3 -10.3 M-168.75 -11.25 L-168.95 -11.35 -168.45 -13.1 -162.45 -12.8 -162.7 -11.6 -162.8 -11.25 -163.0 -10.35 Q-165.9 -9.4 -168.4 -10.95 L-168.7 -11.2 -168.75 -11.25 M-161.3 -8.0 L-161.25 -7.95 -161.3 -7.9 -161.3 -8.0 M-164.95 -2.85 L-163.0 0.1 Q-163.05 1.65 -164.4 2.85 -165.0 3.45 -165.9 3.5 L-166.55 1.45 -164.95 -2.85 M-169.1 -1.85 L-169.1 -1.8 -169.15 -1.85 -169.1 -1.85 M-169.3 1.0 L-169.55 3.7 -173.5 1.3 -171.25 -3.95 -169.3 1.0" fill="#cccccc" fill-rule="evenodd" stroke="none"/>
    <path d="M52.5 -7.55 L52.6 -7.55 52.55 -7.45 52.5 -7.45 52.5 -7.55 M52.55 -6.9 L60.95 -6.8 61.85 -0.6 52.85 -0.45 52.5 -6.9 52.55 -6.9" fill="#00ffff" fill-rule="evenodd" stroke="none"/>
    <path d="M36.15 -6.65 L47.3 -6.75 47.7 -0.4 36.5 -0.35 36.1 -6.65 36.15 -6.65" fill="#0033ff" fill-rule="evenodd" stroke="none"/>
    <path d="M52.7 9.7 L52.8 14.95 55.05 16.65 55.0 17.85 50.7 17.85 50.3 10.25 52.7 9.7 M58.05 10.2 L59.85 10.25 60.55 17.85 56.2 17.35 58.0 14.5 58.05 10.2" fill="#009966" fill-rule="evenodd" stroke="none"/>
    <path d="M54.1 9.8 L57.45 10.15 57.5 13.9 55.75 15.75 53.65 13.9 54.1 9.8" fill="#00cc33" fill-rule="evenodd" stroke="none"/>
    <path d="M49.95 9.2 L53.35 2.6 56.65 2.75 60.3 9.2 49.95 9.2" fill="#006633" fill-rule="evenodd" stroke="none"/>
    <path d="M79.35 -3.55 L81.55 0.3 81.65 17.85 74.25 17.85 74.5 0.5 76.9 -3.75 79.35 -3.55" fill="#ff3399" fill-rule="evenodd" stroke="none"/>
    <path d="M47.35 -7.55 L36.1 -7.35 36.05 -14.65 47.3 -14.45 47.35 -7.55" fill="#003399" fill-rule="evenodd" stroke="none"/>
    <path d="M29.5 -9.65 L30.6 -0.45 16.6 -1.2 16.6 -9.9 16.6 -13.25 30.45 -13.7 30.2 -10.2 16.6 -9.9 28.75 -9.55 29.5 -9.65 M-24.75 15.15 L-14.7 15.15 -14.7 9.7 -24.75 9.7 -24.75 15.15 M-12.2 7.95 L-12.2 17.85 -27.0 17.85 -27.0 7.95 -12.2 7.95" fill="#99ccff" fill-rule="evenodd" stroke="none"/>
    <path d="M8.85 -11.2 L-0.55 -10.9 5.0 -16.5 8.85 -11.2" fill="#339966" fill-rule="evenodd" stroke="none"/>
    <path d="M19.4 7.65 L19.65 10.3 20.3 10.35 20.45 10.15 22.75 11.3 23.0 17.85 12.25 17.85 13.0 10.9 15.2 10.25 15.25 7.35 19.4 7.65" fill="#ff00cc" fill-rule="evenodd" stroke="none"/>
    <path d="M32.1 13.9 L43.45 14.05 44.7 13.5 46.3 17.85 29.75 17.85 29.8 14.4 32.1 13.9 M32.0 7.15 L42.2 6.4 43.0 7.05 43.55 13.2 32.25 13.3 32.2 8.6 32.0 7.15" fill="#cccc99" fill-rule="evenodd" stroke="none"/>
    <path d="M9.55 -1.7 L-0.4 -1.55 -0.55 -10.1 9.9 -9.9 9.55 -1.7" fill="#33ff33" fill-rule="evenodd" stroke="none"/>
    <path d="M7.25 17.55 L-7.7 17.55 -7.7 8.05 7.25 8.05 7.25 17.55" fill="#9966cc" fill-rule="evenodd" stroke="none"/>
    <path d="M-6.3 -10.1 L-5.75 -8.9 -5.75 -8.8 -19.75 -9.2 Q-18.65 -14.5 -13.25 -14.5 -8.25 -14.5 -6.3 -10.1" fill="#7c7dbe" fill-rule="evenodd" stroke="none"/>
    <path d="M-20.45 -8.6 L-6.0 -8.6 -6.0 -1.45 -20.45 -1.45 -20.45 -8.6" fill="#333366" fill-rule="evenodd" stroke="none"/>
    <path d="M-27.15 -1.1 L-26.9 -9.0 -24.55 -8.2 -24.6 -1.35 -27.15 -1.0 -27.15 -1.1" fill="#ff66ff" fill-rule="evenodd" stroke="none"/>
    <path d="M-53.15 -25.35 L-52.8 -24.2 -52.5 25.15 -72.35 25.55 -73.0 12.3 -72.35 11.25 -73.0 9.2 -71.9 6.65 -74.05 5.3 -74.0 5.15 -73.45 4.5 -73.0 3.9 Q-72.3 2.5 -73.0 1.2 L-75.0 0.25 -74.75 -25.4 -53.15 -25.35 M-67.75 -19.6 L-67.95 -18.0 Q-66.6 -16.85 -64.95 -18.4 -63.2 -20.05 -61.05 -21.25 L-59.6 -20.9 -59.25 -22.25 -60.15 -23.1 -64.5 -21.25 -65.1 -22.0 Q-71.05 -20.75 -72.7 -16.4 L-67.8 -19.75 -67.75 -19.6 M-69.55 -16.3 Q-72.0 -16.15 -72.15 -13.7 L-71.95 -13.4 -70.1 -14.7 -68.6 -13.95 -57.7 -19.55 -58.45 -20.65 -68.45 -15.9 -69.55 -16.3 M-66.75 -12.85 L-69.3 -10.85 -66.45 -11.9 -66.75 -12.85 M-67.6 -9.85 L-68.8 -8.15 -67.75 -7.65 -65.15 -8.65 -66.05 -10.75 -67.6 -9.85 M-57.7 -17.6 L-57.9 -17.75 -61.35 -16.0 -60.85 -15.15 Q-59.25 -16.0 -57.75 -16.95 -57.15 -17.4 -57.7 -17.6 M-57.45 -15.55 Q-57.45 -16.35 -58.0 -16.15 -59.45 -15.65 -60.75 -14.8 L-60.0 -12.15 -56.3 -13.7 -57.4 -15.5 -57.45 -15.55 M-64.75 -11.75 L-63.8 -9.55 -61.45 -11.35 -62.05 -13.85 -64.75 -11.75 M-62.25 -14.4 L-62.65 -15.25 -65.45 -13.65 -64.9 -13.05 Q-64.75 -13.05 -64.45 -13.2 L-62.25 -14.4 M-69.9 12.3 L-70.5 18.45 -69.95 19.05 -69.9 20.8 Q-64.9 19.85 -60.65 16.45 -58.9 15.1 -57.05 14.4 -56.0 14.0 -55.3 13.15 L-55.25 11.45 -53.9 3.55 -65.65 10.35 -66.4 10.3 Q-68.95 9.9 -69.9 12.3" fill="#e2a5fe" fill-rule="evenodd" stroke="none"/>
    <path d="M-51.0 24.6 L-50.4 -10.25 -49.25 -9.9 Q-50.45 2.9 -49.95 15.95 L-49.75 24.4 -51.0 24.6 M-37.15 23.85 L-37.8 1.35 Q-37.9 -3.8 -37.65 -8.95 -37.6 -10.05 -36.9 -10.5 L-35.6 -10.6 -35.3 23.8 -37.15 23.85 M-42.85 22.4 L-42.95 -10.45 -39.8 -9.8 -39.9 23.5 -42.8 24.0 -42.85 22.4 M-46.95 24.15 L-47.2 -10.1 -44.85 -10.3 -45.35 24.05 -46.95 24.15" fill="#7ba0dd" fill-rule="evenodd" stroke="none"/>
    <path d="M-67.8 -19.75 L-67.75 -19.75 -67.75 -19.6 -67.8 -19.75" fill="#cc33ff" fill-rule="evenodd" stroke="none"/>
    <path d="M-74.7 10.25 L-73.8 10.65 -74.65 11.25 -74.65 25.4 -74.85 25.55 -74.55 29.5 -101.0 28.85 -101.0 28.7 -104.35 28.2 -104.65 25.3 -104.55 25.1 -104.55 25.05 -104.55 25.0 -104.5 25.0 -78.1 24.35 -78.05 11.7 -75.3 11.4 -76.0 10.35 -74.7 10.25 M-101.95 -16.0 L-101.95 -17.2 -101.3 -17.55 -78.0 -17.2 -81.25 -17.85 -77.8 -17.65 -76.95 -2.55 -77.65 -3.0 -78.55 -3.0 -79.3 -13.6 -78.2 -15.15 -78.85 -16.1 -92.25 -15.7 -80.55 -15.0 -97.55 -15.3 -95.6 -15.5 -100.15 -15.4 -101.95 -16.0" fill="#c5cbd8" fill-rule="evenodd" stroke="none"/>
    <path d="M-67.55 11.35 L-65.8 11.65 -63.25 9.65 -62.6 9.8 -55.7 5.25 -55.85 10.9 -56.4 11.55 -56.1 12.65 -68.6 20.4 -69.65 20.25 -69.15 19.2 -68.75 12.4 -67.55 11.35 M-52.4 29.3 L-72.3 30.2 -72.35 26.45 Q-64.8 27.2 -57.25 26.2 L-52.5 25.3 -52.4 29.3" fill="#ab64ca" fill-rule="evenodd" stroke="none"/>
    <path d="M-51.0 24.6 L-49.75 24.4 -49.95 15.95 Q-50.45 2.9 -49.25 -9.9 L-48.15 17.6 -48.45 29.95 -50.6 29.95 -51.0 24.6 M-37.15 23.85 L-35.3 23.8 -35.6 -10.6 -33.8 29.1 -36.55 29.65 -37.15 23.85 M-42.85 22.4 L-42.8 24.0 -39.9 23.5 -39.8 -9.8 -38.95 30.05 -39.25 30.35 -39.65 30.5 -40.1 30.5 -40.6 30.55 -41.55 30.15 -42.55 29.8 -42.9 29.5 -43.2 29.05 -42.85 22.4 M-46.95 24.15 L-45.35 24.05 -44.85 -10.3 -44.1 29.45 -47.5 29.85 -46.95 24.15" fill="#3065bc" fill-rule="evenodd" stroke="none"/>
    <path d="M-119.45 -9.7 L-119.7 -10.95 -115.9 -16.45 -115.5 -16.55 -115.65 -16.3 Q-112.9 -17.2 -111.2 -14.7 -105.45 -6.0 -106.7 4.55 L-110.7 12.9 -109.9 14.45 Q-108.95 14.45 -108.3 14.95 -107.65 15.45 -107.65 16.15 L-109.05 17.25 -111.0 16.35 -112.05 11.75 -110.85 11.2 Q-106.95 4.2 -108.3 -3.7 -109.4 -10.4 -114.65 -13.65 -116.65 -13.65 -118.05 -12.5 -119.45 -11.35 -119.45 -9.7 M-121.15 -16.55 Q-120.6 -8.5 -117.3 -0.85 -115.65 3.1 -114.4 7.6 L-113.95 9.15 Q-112.4 13.5 -112.0 18.05 L-112.15 18.1 -112.25 18.25 Q-113.45 15.85 -116.1 15.15 L-117.2 14.85 Q-113.55 13.0 -115.2 9.45 -115.75 8.2 -116.95 7.35 L-119.45 5.95 Q-115.6 1.8 -119.8 -2.2 L-121.75 -2.0 -122.4 -0.8 -123.5 -1.8 -123.8 -6.25 Q-124.15 -7.0 -125.0 -6.75 L-125.25 -6.6 -125.3 -6.5 -125.25 -6.25 Q-124.0 -5.3 -124.75 -2.85 -124.95 -2.1 -124.45 -1.3 L-123.35 0.15 -123.55 0.9 -123.05 1.8 -120.8 -1.15 Q-118.65 0.4 -119.25 3.05 L-119.3 3.45 -120.6 4.7 Q-121.7 4.2 -122.85 3.65 -125.85 3.55 -126.1 6.5 L-126.0 6.95 -124.65 7.85 -124.65 7.95 Q-126.35 10.3 -125.2 12.85 L-125.05 13.0 -123.35 12.95 -124.1 12.7 Q-125.2 8.7 -121.3 7.6 -119.85 7.3 -118.55 8.05 -117.3 8.8 -116.1 9.7 -115.7 11.05 -116.45 12.15 -117.2 13.15 -118.4 13.45 L-120.85 11.7 -120.1 10.5 -119.4 12.05 -118.0 11.05 Q-119.2 7.55 -121.85 10.25 -122.65 11.05 -122.45 12.05 -122.2 13.35 -121.25 14.15 L-121.25 14.25 Q-124.0 12.65 -126.55 14.8 L-127.35 15.55 Q-127.95 12.75 -130.35 12.45 L-130.75 12.5 -130.55 13.35 -130.25 13.05 Q-130.0 13.0 -129.75 13.3 L-128.7 14.75 Q-131.8 12.5 -133.9 15.35 L-134.3 16.25 Q-136.4 12.7 -139.9 14.25 -141.55 14.95 -142.3 16.65 L-143.05 18.6 -142.2 20.35 -140.2 20.55 -140.4 19.55 -139.3 17.4 Q-135.9 17.15 -133.8 19.7 -133.45 20.15 -132.75 20.1 L-132.7 20.3 -134.1 23.2 -132.75 25.25 Q-130.8 21.8 -126.8 21.3 L-126.8 21.35 -125.2 22.2 -124.2 18.9 -119.95 23.25 -119.25 20.5 Q-116.2 18.35 -112.65 19.8 -113.55 22.45 -115.8 24.05 L-117.35 25.0 -135.25 25.6 Q-143.1 25.15 -144.6 17.2 -144.25 5.3 -139.65 -5.7 -137.8 -10.15 -137.05 -14.95 L-137.1 -16.45 Q-129.25 -18.9 -121.45 -16.65 L-121.15 -16.55 M-141.35 -18.65 L-142.45 -19.1 -140.35 -20.55 -140.35 -20.65 Q-131.6 -24.05 -122.6 -21.95 -119.55 -21.3 -119.35 -19.15 -124.6 -21.9 -130.95 -21.25 -136.5 -21.25 -141.35 -18.65 M-113.2 11.75 Q-113.6 11.2 -113.2 11.85 L-113.2 11.75 M-128.85 -11.25 Q-131.35 -10.45 -130.65 -8.0 L-130.5 -7.85 -129.9 -6.45 Q-134.9 -7.05 -135.95 -2.15 L-136.0 -0.1 -135.8 0.2 -134.9 0.5 -134.55 0.35 Q-132.65 -2.55 -129.15 -1.85 -125.8 1.8 -127.7 6.85 -129.15 2.65 -133.65 2.25 -137.45 4.2 -137.85 8.65 -139.85 7.45 -141.6 8.9 L-142.1 10.1 -137.5 11.4 Q-134.0 15.1 -130.8 11.25 -129.95 10.25 -130.4 9.05 L-132.8 7.5 Q-133.8 7.45 -134.15 8.2 -134.35 8.6 -134.0 9.05 L-132.9 9.1 -131.85 9.7 -133.2 11.5 -135.1 11.45 Q-138.05 7.05 -133.3 3.65 -128.0 5.05 -127.25 11.05 L-126.9 11.25 -127.2 8.1 Q-123.95 2.05 -128.65 -2.2 -129.7 -3.1 -131.25 -3.45 L-134.45 -2.65 Q-132.6 -5.65 -129.1 -4.5 L-127.95 -6.65 -129.0 -9.25 -126.85 -8.85 Q-126.45 -9.25 -126.65 -9.6 -127.4 -11.05 -128.85 -11.25" fill="#ffddb5" fill-rule="evenodd" stroke="none"/>
    <path d="M-119.45 -9.7 Q-119.45 -11.35 -118.05 -12.5 -116.65 -13.65 -114.65 -13.65 -118.3 -12.7 -118.7 -8.55 L-118.8 -7.75 -119.45 -9.7 M-111.0 16.35 L-109.05 17.25 -107.65 16.15 Q-107.55 17.2 -108.0 18.05 -108.5 18.9 -109.2 18.95 -109.9 19.0 -110.4 18.25 -110.95 17.5 -111.0 16.35 M-109.9 14.45 L-110.7 12.9 -106.7 4.55 -110.0 13.05 -109.9 14.45 M-112.0 18.05 Q-111.05 22.15 -113.05 25.8 -114.9 29.3 -118.8 29.65 L-135.85 30.6 Q-138.75 30.65 -140.8 28.75 -145.55 24.15 -144.6 17.2 -143.1 25.15 -135.25 25.6 L-117.35 25.0 -115.8 24.05 Q-113.55 22.45 -112.65 19.8 L-112.25 18.25 -112.15 18.1 -112.0 18.05 M-137.1 -16.45 L-137.25 -17.75 Q-138.65 -20.0 -141.35 -18.65 -136.5 -21.25 -130.95 -21.25 -124.6 -21.9 -119.35 -19.15 L-121.15 -16.55 -121.45 -16.65 Q-129.25 -18.9 -137.1 -16.45" fill="#ddb482" fill-rule="evenodd" stroke="none"/>
    <path d="M-155.2 -19.65 Q-154.65 -18.6 -156.0 -18.05 -158.35 -17.15 -160.7 -18.4 L-161.4 -17.25 Q-162.6 -15.55 -164.9 -15.9 L-168.45 -18.45 -170.85 -18.5 -170.65 -17.15 -176.6 -17.35 -176.55 -17.4 -176.9 -18.05 -180.5 -19.3 -180.25 -19.75 Q-178.6 -21.5 -176.35 -21.25 L-175.55 -22.2 Q-173.55 -23.65 -171.4 -23.05 L-170.1 -19.2 -170.9 -23.75 -170.15 -24.3 -169.2 -24.7 Q-165.85 -25.35 -163.2 -23.35 L-164.2 -21.85 -164.35 -16.75 -163.25 -20.95 Q-161.5 -22.25 -158.75 -21.9 -156.2 -22.0 -155.2 -19.65 M-186.55 15.8 Q-185.25 21.75 -180.05 25.05 -179.05 25.75 -177.9 25.4 -168.5 26.35 -159.0 25.85 L-155.2 25.05 Q-148.65 22.55 -147.55 15.7 -145.2 22.75 -150.65 27.55 -151.7 28.55 -152.9 28.7 L-155.65 29.15 -155.9 29.15 Q-167.2 30.2 -178.5 29.75 -181.95 29.75 -183.5 27.05 -186.3 22.0 -186.55 15.8 M-160.45 -9.65 L-157.9 -0.95 -160.1 -7.45 -158.45 -1.4 -161.3 -7.9 -161.25 -7.95 -161.3 -8.0 -161.05 -9.15 -160.45 -9.65 M-158.2 -0.7 Q-159.4 -1.15 -160.15 -2.4 -161.35 -4.3 -161.85 -6.55 L-163.8 -6.0 -164.55 -4.2 -163.45 -8.7 -162.0 -8.8 -159.45 -1.75 -158.2 -0.7 M-167.8 1.3 L-168.0 1.25 -168.0 -0.2 -167.85 -0.15 -167.8 1.3 M-173.25 -2.85 Q-175.45 -0.45 -178.0 1.55 -178.6 1.95 -178.8 1.1 -176.65 -4.15 -172.55 -7.85 L-171.3 -9.0 -171.15 -9.05 Q-171.95 -5.05 -174.85 -1.95 L-176.55 0.0 -172.3 -4.45 -173.25 -2.85 M-175.15 -7.25 L-174.5 -8.85 -175.4 -9.55 -173.9 -8.75 -175.15 -7.25 M-175.85 -13.4 L-178.85 -17.7 -173.5 -15.2 -171.2 -15.75 -170.15 -10.45 -171.3 -10.3 Q-171.3 -11.6 -172.6 -12.5 -173.95 -13.4 -175.85 -13.4 M-168.95 -11.35 L-169.65 -17.8 -165.0 -14.65 -161.05 -16.6 -162.45 -12.8 -168.45 -13.1 -168.95 -11.35 M-162.7 -11.6 L-160.05 -17.25 -157.9 -16.35 -160.0 -12.15 -159.8 -11.2 -162.8 -11.25 -162.7 -11.6 M-166.55 1.45 L-167.1 -6.35 -165.45 -3.65 -165.85 -0.95 -164.95 -2.85 -166.55 1.45 M-163.95 -8.6 L-164.95 -4.95 -167.2 -8.55 -163.95 -8.6 M-171.25 -3.95 L-169.05 -8.15 -169.1 -1.85 -169.15 -1.85 -169.1 -1.8 -169.3 1.0 -171.25 -3.95" fill="#9d9d9d" fill-rule="evenodd" stroke="none"/>
    <path d="M-121.25 14.15 L-118.8 15.25 Q-119.75 16.65 -120.3 15.15 L-120.3 15.1 -120.35 15.1 -121.25 14.25 -121.25 14.15 M-132.75 20.1 L-131.15 18.75 -130.9 17.35 Q-131.55 16.35 -132.85 15.7 L-132.7 15.25 Q-129.35 14.5 -128.4 18.1 -128.05 19.4 -127.25 20.3 -131.0 20.6 -132.9 23.9 -133.1 20.6 -130.0 20.3 -128.85 20.8 -128.35 20.05 -130.5 18.5 -132.7 20.3 L-132.75 20.1 M-137.8 9.7 L-141.0 9.5 Q-139.3 8.55 -137.8 9.7 M-121.85 5.95 L-124.05 7.3 -124.6 5.95 -123.5 4.95 -121.85 5.95 M-122.05 15.25 Q-119.85 17.35 -120.55 20.4 -122.2 17.45 -125.15 17.9 L-126.25 19.3 Q-127.45 17.2 -125.5 15.75 L-123.95 14.8 -122.05 15.25 M-119.35 17.8 L-119.1 16.9 Q-115.9 14.9 -113.35 18.45 -116.55 16.85 -119.2 19.1 L-119.35 17.8 M-141.95 19.2 Q-141.95 15.6 -138.3 14.35 L-135.5 16.7 -139.45 16.25 -141.95 19.2" fill="#894b01" fill-rule="evenodd" stroke="none"/>
    <path d="M-211.6 -16.65 L-213.45 -18.95 -213.1 -20.4 Q-212.35 -22.2 -211.2 -23.6 -209.75 -25.4 -207.85 -26.4 L-205.65 -27.5 Q-203.35 -27.05 -201.55 -25.7 -197.85 -22.9 -196.15 -18.45 -194.55 -14.2 -193.25 -9.7 -189.75 2.55 -187.8 15.4 L-189.3 24.25 -201.75 18.9 Q-199.85 11.4 -200.85 3.4 L-201.5 -3.9 -202.15 -11.95 -202.05 -15.2 -196.65 -2.45 -201.9 -15.8 -201.5 -17.7 -200.15 -17.65 -201.55 -18.4 -202.4 -19.05 Q-202.85 -19.65 -202.4 -20.35 L-202.2 -20.6 Q-200.8 -21.35 -201.75 -21.6 L-201.9 -21.55 Q-203.0 -21.55 -203.75 -22.15 -204.4 -22.7 -204.55 -23.35 L-204.55 -23.65 -204.65 -24.2 Q-204.8 -24.45 -205.05 -24.5 L-205.45 -24.3 -205.7 -23.75 Q-206.3 -24.3 -206.35 -23.3 L-206.35 -22.85 -208.7 -23.1 -209.4 -23.0 -210.55 -20.25 -210.65 -19.65 Q-210.7 -18.95 -209.85 -19.35 L-206.05 -20.7 -206.0 -20.8 Q-205.2 -20.8 -204.65 -20.2 -204.1 -19.65 -204.1 -18.85 L-210.55 -16.05 -211.6 -16.65 M-203.65 -20.05 L-203.7 -20.0 -203.7 -20.1 -203.65 -20.05 M-204.65 -11.95 L-202.2 -10.85 -201.45 8.05 Q-201.3 12.35 -201.55 16.6 -201.65 18.05 -202.35 18.95 L-213.9 25.1 Q-215.2 25.1 -216.1 23.4 L-216.85 21.15 -217.05 19.2 -216.85 16.6 -216.0 10.7 Q-215.05 4.9 -212.25 -0.35 -210.0 -4.65 -208.05 -9.15 L-204.95 -11.75 -205.2 0.9 -204.65 -11.95 M-190.5 24.85 L-213.45 25.15 -202.05 19.5 Q-196.3 22.2 -190.5 24.85" fill="#ccc2a6" fill-rule="evenodd" stroke="none"/>
    <path d="M-211.6 -16.65 L-210.55 -16.05 -204.1 -18.85 -206.75 -14.85 -209.45 -14.5 -211.6 -16.65 M-206.35 -22.85 L-206.35 -23.3 Q-206.3 -24.3 -205.7 -23.75 L-205.4 -21.8 -208.7 -20.2 -210.05 -20.75 -209.05 -22.25 -207.4 -22.6 -205.75 -22.2 -206.35 -22.85 M-204.55 -23.35 Q-204.4 -22.7 -203.75 -22.15 -203.0 -21.55 -201.9 -21.55 L-203.9 -20.8 -204.35 -21.6 -204.35 -21.7 -204.55 -23.35 M-202.2 -20.6 L-202.4 -20.35 Q-202.85 -19.65 -202.4 -19.05 L-203.7 -20.0 -203.65 -20.05 -202.2 -20.6 M-201.5 -17.7 L-201.9 -15.8 -203.6 -18.75 -201.5 -17.7 M-202.05 -15.2 L-202.15 -11.95 -203.65 -16.9 -202.2 -10.85 -204.65 -11.95 Q-205.0 -14.35 -204.25 -16.6 -203.75 -18.15 -203.45 -17.25 L-203.4 -17.2 -203.3 -17.15 -202.05 -15.2 M-189.3 24.25 L-187.8 15.4 -186.85 22.35 Q-186.55 24.3 -187.5 25.5 L-189.3 24.25 M-205.15 -13.95 L-204.85 -14.95 -204.95 -11.75 -208.05 -9.15 -205.2 -13.95 -205.15 -13.95 M-216.85 21.15 L-216.1 23.4 Q-215.2 25.1 -213.9 25.1 L-216.35 26.3 -216.45 26.3 -216.85 21.15 M-190.5 24.85 L-188.35 25.85 -187.75 27.65 -188.85 29.65 Q-200.15 30.3 -211.45 29.5 -214.3 29.0 -216.0 26.9 L-213.45 25.15 -190.5 24.85" fill="#9e8c78" fill-rule="evenodd" stroke="none"/>
  </g>
</svg>
