<?xml version="1.0" encoding="UTF-8" standalone="no"?>
<svg xmlns:ffdec="https://www.free-decompiler.com/flash" xmlns:xlink="http://www.w3.org/1999/xlink" ffdec:objectType="shape" height="297.55px" width="477.0px" xmlns="http://www.w3.org/2000/svg">
  <g transform="matrix(1.0, 0.0, 0.0, 1.0, 238.5, 148.8)">
    <path d="M226.65 -142.0 L226.95 -141.3 226.95 -78.8 227.0 -78.8 227.0 -78.75 226.9 -76.6 226.95 -76.2 226.95 -8.8 227.05 -8.8 227.0 -7.15 227.0 -6.8 226.95 -6.8 226.95 61.2 227.05 61.2 227.0 63.2 226.95 63.2 226.95 139.8 226.65 140.5 225.95 140.8 -225.9 140.8 Q-226.3 140.8 -226.6 140.5 L-226.9 139.8 -226.9 -141.3 -226.6 -142.0 Q-226.3 -142.3 -225.9 -142.3 L225.95 -142.3 226.65 -142.0 M238.2 -148.5 L238.5 -147.8 238.5 147.75 238.2 148.45 237.5 148.75 -237.5 148.75 -238.2 148.45 -238.5 147.75 -238.5 -147.8 -238.2 -148.5 -237.5 -148.8 237.5 -148.8 238.2 -148.5 M224.95 -2.3 L224.95 -6.8 -224.9 -6.8 -224.9 -2.3 224.95 -2.3 M224.95 -72.3 L224.95 -76.8 -224.9 -76.8 -224.9 -72.3 224.95 -72.3 M224.95 -78.8 L224.95 -140.3 -224.9 -140.3 -224.9 -78.8 224.95 -78.8 M224.95 -8.8 L224.95 -70.3 -224.9 -70.3 -224.9 -8.8 224.95 -8.8 M224.95 67.7 L224.95 63.2 -224.9 63.2 -224.9 67.7 224.95 67.7 M224.95 138.8 L224.95 69.7 -224.9 69.7 -224.9 138.8 224.95 138.8 M236.5 146.75 L236.5 -146.8 -236.5 -146.8 -236.5 146.75 236.5 146.75 M224.95 61.2 L224.95 -0.3 -224.9 -0.3 -224.9 61.2 224.95 61.2" fill="#424348" fill-rule="evenodd" stroke="none"/>
    <path d="M226.65 -142.0 L225.95 -142.3 -225.9 -142.3 Q-226.3 -142.3 -226.6 -142.0 L-226.9 -141.3 -226.9 139.8 -226.6 140.5 Q-226.3 140.8 -225.9 140.8 L225.95 140.8 226.65 140.5 226.95 139.8 226.95 63.2 227.0 63.2 227.05 61.2 226.95 61.2 226.95 -6.8 227.0 -6.8 227.0 -7.15 227.05 -8.8 226.95 -8.8 226.95 -76.2 226.9 -76.6 227.0 -78.75 227.0 -78.8 226.95 -78.8 226.95 -141.3 226.65 -142.0 M224.95 -72.3 L-224.9 -72.3 -224.9 -76.8 224.95 -76.8 224.95 -72.3 M224.95 -2.3 L-224.9 -2.3 -224.9 -6.8 224.95 -6.8 224.95 -2.3 M224.95 67.7 L-224.9 67.7 -224.9 63.2 224.95 63.2 224.95 67.7 M236.5 146.75 L-236.5 146.75 -236.5 -146.8 236.5 -146.8 236.5 146.75" fill="#d0c4a8" fill-rule="evenodd" stroke="none"/>
  </g>
</svg>
