<?xml version="1.0" encoding="UTF-8" standalone="no"?>
<svg xmlns:ffdec="https://www.free-decompiler.com/flash" xmlns:xlink="http://www.w3.org/1999/xlink" ffdec:objectType="shape" height="13.55px" width="18.25px" xmlns="http://www.w3.org/2000/svg">
  <g transform="matrix(1.0, 0.0, 0.0, 1.0, 11.1, 11.55)">
    <path d="M-10.85 -3.75 L-11.05 -3.9 -11.1 -4.4 -10.9 -5.05 -10.2 -6.3 -10.75 -6.8 Q-11.0 -7.5 -10.4 -7.85 L-10.2 -8.2 Q-9.9 -8.35 -9.65 -8.05 L-9.55 -7.95 -8.8 -8.3 Q-8.35 -8.4 -8.0 -8.0 L-7.5 -8.0 -7.1 -7.85 -7.0 -7.75 Q-6.5 -8.25 -5.8 -8.15 L-4.9 -8.1 -4.6 -8.05 -4.0 -7.95 -3.35 -8.25 -2.65 -8.1 -1.95 -8.45 -1.15 -8.35 -0.15 -8.55 0.05 -8.5 0.6 -9.05 Q1.0 -9.25 1.45 -9.05 L2.15 -9.65 2.65 -9.75 3.1 -10.3 3.4 -10.4 3.55 -10.65 4.4 -11.35 5.05 -11.55 5.45 -11.1 Q5.6 -10.35 5.0 -9.95 6.1 -9.05 6.65 -7.65 L7.05 -6.5 7.15 -5.35 6.85 -4.45 6.8 -4.4 6.7 -4.3 Q6.3 -4.0 6.3 -3.5 L6.45 -2.95 6.6 -2.65 6.55 -2.55 5.5 -1.5 5.25 -1.25 4.85 -0.95 3.8 -0.35 3.6 -0.25 3.4 0.05 2.95 0.05 2.7 0.4 1.75 0.55 1.65 0.55 1.0 1.35 0.05 1.9 -1.75 1.7 -2.3 1.35 -3.25 1.55 -3.4 1.45 -3.7 1.15 -4.1 1.45 Q-4.5 1.55 -4.8 1.25 L-4.9 1.2 -5.65 1.1 -5.95 0.95 -6.05 1.0 -6.3 0.95 -6.85 1.15 -7.35 0.95 -8.0 1.0 -8.3 0.85 -8.6 0.6 -9.35 0.6 -9.35 0.4 -9.5 -0.25 -9.65 -0.9 -9.15 -1.0 -8.85 -0.8 -8.65 -0.9 -8.65 -1.1 -8.3 -0.65 -8.4 -0.45 -8.5 -0.5 -8.85 -0.25 Q-8.95 0.0 -8.7 0.05 L-8.55 0.25 -7.65 0.3 -7.55 0.45 -6.65 0.55 -6.15 0.75 -5.05 0.85 -4.45 0.95 -4.0 0.9 -3.9 0.95 Q-3.6 1.15 -3.25 0.95 L-2.9 1.15 -1.8 0.9 Q-1.35 1.55 -0.55 1.5 L0.75 1.1 1.45 0.2 1.55 -0.2 1.95 -0.05 2.1 0.1 2.55 0.05 2.85 -0.25 Q3.65 -0.6 4.25 -1.1 L4.4 -1.2 Q4.75 -1.05 5.15 -1.55 L5.35 -1.65 6.05 -2.05 6.2 -2.5 6.25 -2.5 6.25 -2.55 6.1 -2.9 6.05 -3.05 5.95 -3.35 5.9 -3.35 5.9 -3.4 5.95 -3.6 5.95 -3.65 6.05 -3.85 6.15 -3.9 6.15 -3.95 6.6 -4.8 6.45 -6.5 6.15 -7.45 5.7 -8.4 4.65 -9.65 4.55 -9.9 4.85 -10.35 5.0 -10.8 4.6 -11.1 4.35 -11.0 4.1 -10.8 3.7 -10.05 3.3 -9.7 3.2 -9.6 3.15 -9.6 2.95 -9.65 2.8 -9.6 2.3 -9.15 Q1.5 -9.25 1.0 -8.65 L0.25 -8.45 -0.05 -8.4 -0.45 -8.25 Q-0.6 -8.15 -0.7 -8.15 L-1.4 -7.8 -1.95 -8.0 -2.65 -7.65 -3.05 -7.8 -3.85 -7.65 -4.6 -7.6 -5.35 -7.55 -5.4 -7.55 -5.55 -7.65 Q-5.8 -7.85 -6.05 -7.65 L-6.9 -7.4 -7.05 -7.45 Q-7.5 -7.75 -7.9 -7.45 -8.15 -7.7 -8.45 -7.8 L-8.75 -7.95 Q-9.2 -7.9 -9.45 -7.55 L-10.15 -7.65 -10.25 -7.55 Q-10.45 -7.2 -10.2 -6.8 L-9.8 -6.55 -9.8 -6.3 -10.35 -5.4 -10.75 -4.4 -10.85 -3.75 M3.75 -9.05 L4.15 -9.4 4.3 -9.4 4.35 -9.5 4.5 -9.1 4.3 -9.0 4.0 -8.8 3.75 -9.0 3.75 -9.05 M0.0 -7.15 L-0.2 -7.15 -0.3 -7.2 -0.35 -7.3 0.15 -7.65 1.0 -7.85 1.6 -8.0 1.9 -8.25 2.0 -8.25 2.15 -8.15 1.9 -7.85 1.85 -7.85 1.75 -7.85 1.15 -7.5 0.0 -7.15 M-9.35 -6.7 L-9.35 -6.75 -9.15 -6.95 -8.25 -7.05 -7.75 -6.7 -7.7 -6.65 -7.75 -6.55 -8.15 -6.6 -8.25 -6.65 -8.3 -6.65 -8.35 -6.65 -8.45 -6.6 -9.35 -6.7 M-7.7 -6.55 Q-7.5 -6.9 -7.1 -6.75 L-6.85 -6.5 -6.9 -6.35 Q-7.35 -6.2 -7.7 -6.55 M-6.3 -6.4 L-6.45 -6.55 -6.4 -6.7 Q-6.15 -6.9 -5.9 -6.7 L-5.8 -6.55 -5.85 -6.4 -6.2 -6.35 -6.3 -6.4 M-5.65 -6.6 L-5.55 -6.6 -5.25 -6.9 -3.85 -6.9 -3.15 -7.0 -2.95 -6.9 -3.05 -6.65 -4.55 -6.45 -5.0 -6.5 -5.25 -6.45 -5.5 -6.5 -5.55 -6.55 -5.65 -6.6 M-2.9 -6.9 L-2.35 -7.0 -2.3 -6.95 -2.35 -6.7 -2.85 -6.7 -2.9 -6.9 M-1.95 -7.05 Q-1.85 -7.35 -1.5 -7.3 L-1.15 -7.35 -0.95 -7.4 -0.7 -7.3 -0.7 -7.25 -0.65 -7.25 -0.85 -7.0 -1.75 -6.9 -1.95 -7.05 M2.65 -8.35 L2.85 -8.7 3.35 -8.85 3.5 -8.7 3.4 -8.55 2.85 -8.2 2.65 -8.35 M1.7 -0.6 Q1.5 -0.85 1.9 -1.05 L2.3 -0.85 1.7 -0.6 M4.4 -1.85 L4.7 -2.15 4.8 -2.15 4.95 -2.05 5.0 -2.0 Q4.75 -1.55 4.4 -1.75 L4.4 -1.85 M3.15 -1.1 L3.2 -1.05 Q3.05 -0.8 2.7 -0.8 L2.6 -0.85 2.55 -0.9 2.55 -1.0 2.8 -1.2 2.9 -1.2 3.15 -1.1 M3.95 -1.45 Q3.75 -1.1 3.4 -1.3 3.35 -1.65 3.75 -1.7 L3.95 -1.5 3.95 -1.45 M5.5 -2.95 L5.55 -2.95 5.65 -3.0 Q6.15 -2.75 5.65 -2.4 L5.2 -2.45 5.5 -2.95 M-7.85 -0.85 L-7.3 -0.9 -7.2 -0.9 -7.05 -0.75 Q-7.3 -0.35 -7.75 -0.55 L-8.0 -0.8 -7.85 -0.8 -7.85 -0.85 M-6.6 -0.9 L-6.0 -0.75 -5.95 -0.45 Q-6.2 -0.25 -6.4 -0.45 L-6.65 -0.6 -6.6 -0.9 M-5.4 -0.2 L-5.6 -0.25 -5.7 -0.45 -5.6 -0.6 -5.4 -0.65 -5.2 -0.6 -5.1 -0.45 -5.2 -0.25 -5.4 -0.2 M-4.45 -0.4 L-4.35 -0.45 -4.2 -0.4 -4.15 -0.3 -4.2 -0.15 -4.35 -0.1 -4.45 -0.15 -4.5 -0.3 -4.45 -0.4 M-2.8 -0.1 L-2.35 -0.1 -2.35 0.15 -2.7 0.2 -2.8 -0.1 M-3.75 -0.35 L-3.35 -0.25 -2.85 -0.1 -3.0 0.1 -3.25 0.05 -3.35 0.05 -3.45 -0.05 -3.65 -0.05 -3.75 -0.35" fill="#666666" fill-rule="evenodd" stroke="none"/>
    <path d="M-10.85 -3.75 L-10.75 -4.4 -10.35 -5.4 -9.8 -6.3 -9.8 -6.55 -10.2 -6.8 Q-10.45 -7.2 -10.25 -7.55 L-10.15 -7.65 -9.45 -7.55 Q-9.2 -7.9 -8.75 -7.95 L-8.45 -7.8 Q-8.15 -7.7 -7.9 -7.45 -7.5 -7.75 -7.05 -7.45 L-6.9 -7.4 -6.05 -7.65 Q-5.8 -7.85 -5.55 -7.65 L-5.4 -7.55 -5.35 -7.55 -4.6 -7.6 -3.85 -7.65 -3.05 -7.8 -2.65 -7.65 -1.95 -8.0 -1.4 -7.8 -0.7 -8.15 Q-0.6 -8.15 -0.45 -8.25 L-0.05 -8.4 0.25 -8.45 1.0 -8.65 Q1.5 -9.25 2.3 -9.15 L2.8 -9.6 2.95 -9.65 3.15 -9.6 3.2 -9.6 3.3 -9.7 3.7 -10.05 4.1 -10.8 4.35 -11.0 4.6 -11.1 5.0 -10.8 4.85 -10.35 4.55 -9.9 4.65 -9.65 5.7 -8.4 6.15 -7.45 6.45 -6.5 6.6 -4.8 6.15 -3.95 6.15 -3.9 6.05 -3.85 5.95 -3.65 5.95 -3.6 5.8 -3.95 4.9 -2.8 Q4.1 -2.95 4.1 -3.9 L2.8 -2.0 Q2.25 -2.5 2.15 -3.15 L1.5 -1.3 0.1 -0.9 -0.6 -0.7 -1.1 -0.65 -1.65 -1.05 -1.75 -2.0 -2.4 -1.0 -2.5 -1.05 -2.7 -0.9 -4.95 -1.0 -5.05 -1.1 Q-5.45 -1.5 -5.4 -2.05 L-5.85 -1.25 -6.05 -1.3 -6.15 -1.4 Q-6.45 -1.9 -6.4 -2.5 L-6.65 -2.4 -6.8 -2.15 -7.15 -1.6 -7.75 -1.25 -7.95 -1.25 Q-8.5 -1.45 -8.85 -1.8 L-9.25 -2.5 -9.3 -1.8 -9.15 -1.0 -9.65 -0.9 -9.85 -2.4 Q-9.95 -3.3 -10.85 -3.75 M4.3 -9.0 L4.5 -9.1 4.35 -9.5 4.3 -9.4 4.15 -9.4 3.75 -9.05 3.35 -8.85 2.85 -8.7 2.65 -8.35 2.25 -8.2 2.0 -8.25 1.9 -8.25 1.6 -8.0 1.0 -7.85 0.15 -7.65 -0.35 -7.3 -0.65 -7.25 -0.7 -7.25 -0.7 -7.3 -0.95 -7.4 -1.15 -7.35 -1.5 -7.3 Q-1.85 -7.35 -1.95 -7.05 L-2.1 -6.95 -2.2 -7.0 -2.3 -6.95 -2.35 -7.0 -2.9 -6.9 -2.95 -6.9 -3.15 -7.0 -3.85 -6.9 -5.25 -6.9 -5.55 -6.6 -5.65 -6.6 -5.8 -6.55 -5.9 -6.7 Q-6.15 -6.9 -6.4 -6.7 L-6.45 -6.55 -6.3 -6.4 -6.55 -6.45 -6.65 -6.55 -6.85 -6.5 -7.1 -6.75 Q-7.5 -6.9 -7.7 -6.55 L-7.75 -6.55 -7.7 -6.65 -7.75 -6.7 -8.25 -7.05 -9.15 -6.95 -9.35 -6.75 -9.35 -6.7 -9.5 -6.65 -9.8 -6.4 -9.25 -6.05 -9.1 -5.9 -9.0 -4.15 -8.6 -6.05 -7.7 -5.9 -7.55 -5.7 -7.25 -3.5 -6.95 -3.5 -6.4 -4.7 -6.3 -5.15 -6.05 -5.55 -5.7 -5.3 -5.2 -4.1 -5.0 -5.5 -4.5 -6.35 -3.55 -6.4 -3.0 -6.05 -2.7 -4.95 -2.65 -5.0 -2.7 -6.1 Q-2.4 -6.75 -1.65 -6.65 L-1.05 -6.7 -0.7 -6.75 -0.55 -6.9 -0.4 -6.95 -0.35 -6.95 -0.2 -7.15 0.0 -7.15 Q0.3 -5.95 0.85 -4.9 L1.0 -4.9 0.75 -6.9 1.25 -7.05 1.75 -7.5 2.0 -7.5 3.3 -6.2 2.65 -7.7 3.1 -8.25 3.9 -8.45 4.85 -7.2 4.85 -7.35 4.2 -8.75 4.3 -9.0 M-8.35 -6.65 L-8.3 -6.65 -8.25 -6.65 -8.35 -6.65" fill="#ffffff" fill-rule="evenodd" stroke="none"/>
    <path d="M5.95 -3.6 L5.9 -3.4 5.9 -3.35 5.95 -3.35 6.05 -3.05 6.1 -2.9 6.25 -2.55 6.25 -2.5 6.2 -2.5 6.05 -2.05 5.35 -1.65 5.15 -1.55 Q4.75 -1.05 4.4 -1.2 L4.25 -1.1 Q3.65 -0.6 2.85 -0.25 L2.55 0.05 2.1 0.1 1.95 -0.05 1.55 -0.2 1.45 0.2 0.75 1.1 -0.55 1.5 Q-1.35 1.55 -1.8 0.9 L-2.9 1.15 -3.25 0.95 Q-3.6 1.15 -3.9 0.95 L-4.0 0.9 -4.45 0.95 -5.05 0.85 -6.15 0.75 -6.65 0.55 -7.55 0.45 -7.65 0.3 -8.55 0.25 -8.7 0.05 Q-8.95 0.0 -8.85 -0.25 L-8.5 -0.5 -8.4 -0.45 -8.3 -0.65 -8.65 -1.1 -8.65 -0.9 -8.85 -0.8 -9.15 -1.0 -9.3 -1.8 -9.25 -2.5 -8.85 -1.8 Q-8.5 -1.45 -7.95 -1.25 L-7.75 -1.25 -7.15 -1.6 -6.8 -2.15 -6.65 -2.4 -6.4 -2.5 Q-6.45 -1.9 -6.15 -1.4 L-6.05 -1.3 -5.85 -1.25 -5.4 -2.05 Q-5.45 -1.5 -5.05 -1.1 L-4.95 -1.0 -2.7 -0.9 -2.5 -1.05 -2.4 -1.0 -1.75 -2.0 -1.65 -1.05 -1.1 -0.65 -0.6 -0.7 0.1 -0.9 1.5 -1.3 2.15 -3.15 Q2.25 -2.5 2.8 -2.0 L4.1 -3.9 Q4.1 -2.95 4.9 -2.8 L5.8 -3.95 5.95 -3.6 M3.75 -9.05 L3.75 -9.0 4.0 -8.8 4.3 -9.0 4.2 -8.75 4.85 -7.35 4.85 -7.2 3.9 -8.45 3.1 -8.25 2.65 -7.7 3.3 -6.2 2.0 -7.5 1.75 -7.5 1.25 -7.05 0.75 -6.9 1.0 -4.9 0.85 -4.9 Q0.3 -5.95 0.0 -7.15 L1.15 -7.5 1.75 -7.85 1.85 -7.85 1.9 -7.85 2.15 -8.15 2.0 -8.25 2.25 -8.2 2.65 -8.35 2.85 -8.2 3.4 -8.55 3.5 -8.7 3.35 -8.85 3.75 -9.05 M-0.2 -7.15 L-0.35 -6.95 -0.4 -6.95 -0.55 -6.9 -0.7 -6.75 -1.05 -6.7 -1.65 -6.65 Q-2.4 -6.75 -2.7 -6.1 L-2.65 -5.0 -2.7 -4.95 -3.0 -6.05 -3.55 -6.4 -4.5 -6.35 -5.0 -5.5 -5.2 -4.1 -5.7 -5.3 -6.05 -5.55 -6.3 -5.15 -6.4 -4.7 -6.95 -3.5 -7.25 -3.5 -7.55 -5.7 -7.7 -5.9 -8.6 -6.05 -9.0 -4.15 -9.1 -5.9 -9.25 -6.05 -9.8 -6.4 -9.5 -6.65 -9.35 -6.7 -8.45 -6.6 -8.35 -6.65 -8.25 -6.65 -8.15 -6.6 -7.75 -6.55 -7.7 -6.55 Q-7.35 -6.2 -6.9 -6.35 L-6.85 -6.5 -6.65 -6.55 -6.55 -6.45 -6.3 -6.4 -6.2 -6.35 -5.85 -6.4 -5.8 -6.55 -5.65 -6.6 -5.55 -6.55 -5.5 -6.5 -5.25 -6.45 -5.0 -6.5 -4.55 -6.45 -3.05 -6.65 -2.95 -6.9 -2.9 -6.9 -2.85 -6.7 -2.35 -6.7 -2.3 -6.95 -2.2 -7.0 -2.1 -6.95 -1.95 -7.05 -1.75 -6.9 -0.85 -7.0 -0.65 -7.25 -0.35 -7.3 -0.3 -7.2 -0.2 -7.15 M1.7 -0.6 L2.3 -0.85 1.9 -1.05 Q1.5 -0.85 1.7 -0.6 M5.5 -2.95 L5.2 -2.45 5.65 -2.4 Q6.15 -2.75 5.65 -3.0 L5.55 -2.95 5.5 -2.95 M3.95 -1.45 L3.95 -1.5 3.75 -1.7 Q3.35 -1.65 3.4 -1.3 3.75 -1.1 3.95 -1.45 M3.15 -1.1 L2.9 -1.2 2.8 -1.2 2.55 -1.0 2.55 -0.9 2.6 -0.85 2.7 -0.8 Q3.05 -0.8 3.2 -1.05 L3.15 -1.1 M4.4 -1.85 L4.4 -1.75 Q4.75 -1.55 5.0 -2.0 L4.95 -2.05 4.8 -2.15 4.7 -2.15 4.4 -1.85 M-4.45 -0.4 L-4.5 -0.3 -4.45 -0.15 -4.35 -0.1 -4.2 -0.15 -4.15 -0.3 -4.2 -0.4 -4.35 -0.45 -4.45 -0.4 M-5.4 -0.2 L-5.2 -0.25 -5.1 -0.45 -5.2 -0.6 -5.4 -0.65 -5.6 -0.6 -5.7 -0.45 -5.6 -0.25 -5.4 -0.2 M-6.6 -0.9 L-6.65 -0.6 -6.4 -0.45 Q-6.2 -0.25 -5.95 -0.45 L-6.0 -0.75 -6.6 -0.9 M-7.85 -0.85 L-7.85 -0.8 -8.0 -0.8 -7.75 -0.55 Q-7.3 -0.35 -7.05 -0.75 L-7.2 -0.9 -7.3 -0.9 -7.85 -0.85 M-3.75 -0.35 L-3.65 -0.05 -3.45 -0.05 -3.35 0.05 -3.25 0.05 -3.0 0.1 -2.85 -0.1 -3.35 -0.25 -3.75 -0.35 M-2.8 -0.1 L-2.7 0.2 -2.35 0.15 -2.35 -0.1 -2.8 -0.1" fill="#cccccc" fill-rule="evenodd" stroke="none"/>
  </g>
</svg>
