<?xml version="1.0" encoding="UTF-8" standalone="no"?>
<svg xmlns:ffdec="https://www.free-decompiler.com/flash" xmlns:xlink="http://www.w3.org/1999/xlink" ffdec:objectType="shape" height="390.45px" width="212.4px" xmlns="http://www.w3.org/2000/svg">
  <g transform="matrix(1.0, 0.0, 0.0, 1.0, 131.25, 228.6)">
    <path d="M10.75 -213.9 L10.85 -213.85 10.75 -213.9 M14.4 -212.65 L14.3 -212.75 13.1 -213.05 Q11.95 -213.2 11.0 -213.75 L10.85 -213.7 4.85 -215.15 Q-18.85 -220.05 -42.55 -216.55 L-45.35 -216.05 -47.75 -215.65 -48.65 -215.5 -48.65 -215.45 -66.4 -210.25 -66.7 -210.3 -67.1 -210.15 -67.55 -210.05 -67.85 -209.95 -68.2 -209.85 -68.7 -209.55 -70.45 -208.7 -70.6 -208.5 -70.65 -208.5 -70.9 -208.5 -74.4 -206.9 -74.65 -206.85 -75.1 -206.5 -75.25 -206.35 -80.35 -203.45 Q-89.75 -197.95 -97.9 -190.85 L-98.05 -190.8 -98.35 -190.6 -98.45 -190.55 -98.75 -190.1 -98.8 -190.05 -100.5 -188.35 -100.55 -188.35 Q-116.8 -172.05 -119.95 -149.25 L-120.25 -146.05 -120.4 -142.85 -120.4 161.85 -121.4 161.85 -121.4 -142.85 -121.35 -144.9 Q-120.45 -175.2 -92.4 -196.75 -73.05 -211.6 -48.4 -216.55 L-48.45 -216.3 -46.4 -216.85 -43.65 -217.4 -43.35 -217.45 -41.85 -217.7 -41.75 -217.7 -22.6 -219.0 Q18.35 -219.0 47.25 -196.75 63.85 -184.0 70.95 -168.2 64.15 -186.2 46.15 -200.35 16.55 -223.55 -25.2 -223.5 -66.95 -223.55 -96.55 -200.35 -125.85 -177.4 -126.0 -145.0 L-126.0 -144.6 -126.0 -142.7 -126.0 161.85 -127.0 161.85 -127.0 -142.7 -127.0 -144.6 -127.0 -145.0 Q-126.85 -177.9 -97.15 -201.15 -67.35 -224.55 -25.2 -224.5 16.95 -224.55 46.75 -201.15 73.75 -179.95 75.85 -150.1 L75.85 -150.05 76.1 -147.15 76.2 -145.4 76.2 -145.35 76.25 -142.8 76.2 -140.2 76.2 161.85 75.2 161.85 75.2 -145.35 Q74.35 -163.1 64.15 -177.25 45.3 -203.25 14.4 -212.65 M-130.2 161.85 L-131.2 161.85 -131.2 -145.15 -131.2 -147.1 -131.2 -147.5 Q-131.05 -181.05 -100.1 -204.75 -69.05 -228.6 -25.15 -228.6 18.8 -228.6 49.85 -204.75 78.1 -183.1 80.7 -153.3 L81.05 -149.75 81.05 -149.7 81.15 -147.85 81.15 161.85 80.15 161.85 80.15 -147.85 80.05 -149.65 79.7 -153.2 Q77.1 -182.6 49.25 -203.95 18.4 -227.6 -25.15 -227.6 -68.65 -227.6 -99.5 -203.95 -130.05 -180.55 -130.2 -147.5 L-130.2 -147.1 -130.2 -147.05 -130.2 -145.15 -130.2 161.85" fill="#424348" fill-rule="evenodd" stroke="none"/>
    <path d="M10.85 -213.7 L11.0 -213.75 Q11.95 -213.2 13.1 -213.05 L14.3 -212.75 14.4 -212.65 Q16.15 -201.45 12.35 -190.4 L11.9 -189.75 10.6 -190.2 Q10.95 -199.45 8.75 -208.85 8.05 -211.95 10.85 -213.7 M-100.55 -188.35 L-100.5 -188.35 -98.8 -190.05 -98.75 -190.1 -98.45 -190.55 -98.35 -190.6 -98.05 -190.8 -97.9 -190.85 Q-90.7 -186.75 -94.55 -176.0 -97.4 -168.1 -96.05 -159.6 -95.55 -156.55 -96.95 -153.9 L-98.05 -154.0 -100.55 -188.35 M-75.25 -206.35 L-75.1 -206.5 -74.65 -206.85 -74.4 -206.9 -70.9 -208.5 -70.65 -208.5 -70.6 -208.5 -70.45 -208.7 -68.7 -209.55 -68.2 -209.85 -67.85 -209.95 -67.55 -210.05 -67.1 -210.15 -66.7 -210.3 -66.4 -210.25 -65.4 -209.7 -64.75 -208.25 -66.1 -199.4 -64.35 -200.7 -62.25 -198.95 Q-70.0 -184.4 -66.8 -168.0 L-66.35 -166.4 -67.4 -165.2 -66.65 -156.4 -67.1 -155.65 -66.55 -141.25 -67.9 -140.95 Q-72.5 -171.85 -73.9 -201.85 L-75.25 -206.35 M-48.65 -215.45 L-48.65 -215.5 -47.75 -215.65 -45.35 -216.05 -42.55 -216.55 Q-42.85 -194.75 -42.5 -172.55 -42.5 -171.85 -42.8 -171.15 L-44.15 -170.85 -44.2 -157.45 -45.4 -157.4 Q-49.9 -180.8 -46.0 -203.95 -49.85 -209.05 -48.65 -215.45 M3.9 -201.15 Q7.55 -172.6 8.55 -142.75 L8.25 -141.65 Q7.3 -140.85 6.15 -141.1 L3.8 -141.7 Q4.8 -162.25 3.5 -182.95 3.0 -191.35 2.65 -199.75 L3.9 -201.15 M44.4 -169.0 L42.8 -170.7 Q36.95 -184.8 42.0 -197.75 L43.15 -198.15 Q50.55 -185.25 48.3 -167.75 47.05 -157.75 48.75 -147.8 50.1 -139.75 48.8 -131.7 L45.45 -130.65 Q40.15 -144.2 44.05 -159.7 45.2 -164.4 44.4 -169.0 M32.1 -180.05 Q39.15 -161.45 35.15 -138.9 L34.8 -137.6 Q26.95 -139.35 29.1 -151.35 31.7 -165.55 32.1 -180.05 M52.9 -128.6 L50.9 -128.4 50.3 -129.05 Q48.5 -147.6 52.4 -165.5 55.3 -150.55 53.4 -133.15 L52.9 -128.6 M60.1 -106.15 Q60.0 -102.0 60.35 -97.85 62.8 -69.2 61.65 -40.35 60.75 -17.35 61.1 5.7 L59.75 7.15 58.85 5.8 58.65 -6.95 58.1 -13.3 Q56.95 -21.05 56.6 -28.85 L55.45 -41.3 60.6 -121.05 60.1 -106.15 M70.1 -113.45 Q71.5 -85.1 72.25 -56.8 73.05 -26.5 69.1 3.35 L67.8 4.7 67.15 3.3 Q71.5 -20.8 70.75 -45.0 69.9 -74.15 68.45 -103.3 68.2 -108.3 70.1 -113.45 M52.35 -79.8 Q52.85 -64.6 54.05 -49.4 54.25 -46.9 52.2 -45.55 49.85 -46.0 49.8 -48.45 49.55 -61.95 51.0 -75.35 L52.35 -79.8 M11.2 -53.05 L10.25 -51.8 Q2.5 -72.4 8.25 -92.65 L9.05 -92.85 Q15.75 -74.25 11.2 -53.05 M21.3 -39.5 L20.65 -39.7 Q18.95 -61.15 20.5 -82.5 L22.0 -39.85 21.3 -39.5 M1.05 -6.7 Q10.25 18.65 4.6 43.5 L4.05 44.7 3.35 44.45 Q-6.25 18.8 0.65 -7.75 L1.05 -6.7 M10.85 -7.5 L12.0 -6.65 12.0 28.2 Q8.5 12.15 9.35 -3.6 9.45 -5.65 10.85 -7.5 M56.0 25.0 L54.65 10.8 Q53.65 0.75 55.55 -9.25 L56.9 24.55 56.0 25.0 M17.7 15.05 L18.75 40.4 17.05 40.1 17.1 15.45 17.7 15.05 M13.8 30.25 L12.65 39.8 11.55 40.6 Q9.6 36.0 11.35 31.1 L11.9 29.7 12.7 29.35 13.8 30.25 M31.8 85.1 Q36.8 104.55 32.25 123.2 29.65 106.7 30.3 89.85 L31.8 85.1 M12.55 83.0 L14.05 82.25 Q22.15 103.5 14.0 123.9 13.2 125.85 11.3 123.9 L10.1 122.45 9.3 126.3 5.45 125.55 5.5 81.65 6.3 81.1 Q9.75 86.0 9.75 92.05 10.45 87.3 12.55 83.0 M68.65 49.7 Q68.8 44.7 70.1 39.9 L69.2 79.5 68.05 79.85 68.65 49.7 M61.05 161.85 L61.05 159.65 Q61.05 150.9 57.6 142.95 55.0 137.05 54.65 130.65 L53.7 134.0 51.8 133.35 54.65 67.65 55.05 115.2 56.95 85.7 Q58.15 68.8 61.9 52.2 59.6 83.55 60.65 115.05 L62.1 161.85 61.05 161.85 M64.65 161.85 L66.45 130.05 67.9 161.85 64.65 161.85 M-20.25 161.85 L-24.65 161.85 -22.85 132.25 Q-22.5 135.5 -22.45 138.8 -22.3 150.45 -20.25 161.85 M-101.7 161.85 L-104.85 161.85 Q-104.35 156.85 -104.6 151.75 -104.95 145.25 -104.7 138.8 L-104.2 129.2 -101.7 161.85 M-106.2 161.85 L-112.4 161.85 -112.15 152.1 -111.0 150.85 -111.55 122.95 -112.05 122.35 -110.0 88.65 -108.0 118.95 Q-107.9 120.9 -108.9 122.65 L-109.3 123.35 -106.2 161.85 M-2.8 -175.4 L-1.75 -186.75 Q4.95 -156.05 -1.9 -127.75 -2.1 -126.95 -3.0 -128.4 -10.2 -139.55 -6.05 -156.05 -3.65 -165.55 -2.8 -175.4 M-15.75 -196.65 L-15.05 -197.05 -15.2 -179.9 -14.5 -180.5 Q-9.4 -157.1 -12.15 -133.1 -14.15 -115.75 -15.15 -97.65 L-16.4 -97.45 -17.35 -98.35 -15.9 -134.1 Q-20.3 -141.25 -19.35 -149.6 -16.75 -173.05 -15.75 -196.65 M-39.45 -175.15 L-39.05 -202.25 -38.5 -175.95 -39.45 -175.15 M-60.1 -134.4 Q-61.3 -156.55 -60.3 -178.6 -57.8 -156.9 -56.0 -134.15 -55.95 -133.4 -57.3 -133.15 L-60.1 -134.4 M-37.95 -131.15 L-41.3 -132.75 Q-43.2 -153.85 -39.5 -174.45 L-36.35 -132.1 -37.95 -131.15 M-84.65 -180.95 L-82.35 -143.6 Q-90.75 -142.5 -88.85 -155.25 -86.9 -168.2 -85.3 -181.3 L-84.65 -180.95 M-113.6 -160.35 Q-113.6 -127.0 -108.9 -93.65 -107.6 -84.5 -107.65 -75.05 -107.65 -73.2 -107.95 -71.3 L-108.65 -70.6 Q-107.4 -65.35 -107.85 -59.75 -108.05 -57.35 -109.25 -55.45 L-112.15 -56.45 Q-114.25 -92.75 -114.65 -129.25 -114.7 -136.5 -115.25 -144.05 -115.8 -151.25 -114.4 -158.55 L-113.6 -160.35 M-82.3 -74.8 L-84.0 -77.75 -85.35 -59.4 -86.0 -59.1 -86.7 -59.3 -87.6 -61.0 Q-91.9 -79.4 -89.75 -97.2 L-88.75 -97.45 Q-85.25 -95.4 -84.4 -91.35 -79.55 -84.2 -82.3 -74.8 M-106.3 -87.4 Q-107.1 -106.35 -107.45 -125.25 L-103.85 -86.9 -105.1 -85.5 -105.8 -85.7 Q-106.25 -86.55 -106.3 -87.4 M-99.05 -12.4 L-95.9 70.15 -96.8 70.25 -99.4 69.65 -99.45 -9.9 -99.05 -12.4 M-89.05 -6.5 Q-88.7 10.0 -85.35 26.3 L-83.6 7.9 Q-81.95 16.7 -81.0 27.2 -80.85 28.85 -81.3 30.45 -81.6 31.55 -82.3 32.5 L-85.35 29.65 -89.1 33.15 Q-94.85 28.65 -93.5 20.1 -91.8 9.05 -90.85 -2.25 L-89.05 -6.5 M-113.6 -9.2 Q-113.25 23.3 -112.2 55.65 -112.15 56.5 -112.5 57.35 L-114.15 57.35 Q-115.25 25.3 -113.85 -6.9 L-113.6 -9.2 M-110.45 -40.15 L-108.95 7.95 -110.2 8.3 -110.95 -6.55 -110.45 -40.15 M-5.9 -64.6 L-5.9 -70.6 -5.15 -72.4 -4.05 -72.5 -3.55 -43.9 -4.8 -43.35 Q-6.55 -50.9 -6.1 -58.75 L-5.9 -64.6 M-10.2 -55.45 Q-10.35 -34.4 -12.05 -12.65 -19.75 -40.2 -12.8 -64.4 -7.5 -61.75 -9.65 -56.5 L-10.2 -55.45 M-14.35 -73.25 L-13.6 -86.65 -13.45 -73.65 -14.35 -73.25 M-75.45 -94.45 L-75.1 -64.9 -76.25 -71.25 Q-77.65 -79.9 -76.4 -88.7 L-75.45 -94.45 M-67.7 -94.45 L-66.35 -94.8 Q-64.8 -71.05 -66.0 -47.65 -66.0 -47.25 -66.45 -46.85 -68.0 -47.35 -68.2 -48.85 -69.9 -62.65 -68.85 -76.7 L-69.3 -77.4 -67.7 -94.45 M-60.1 -71.15 L-60.8 -71.6 Q-63.85 -83.4 -61.75 -94.9 -56.55 -84.9 -58.95 -72.8 -59.2 -71.7 -60.1 -71.15 M-18.2 -25.55 L-19.15 -26.45 -17.7 -65.25 -17.0 -25.75 -18.2 -25.55 M-11.75 -5.15 L-7.9 38.45 -10.3 37.35 -12.5 -0.85 -11.75 -5.15 M-40.3 32.35 L-41.25 32.8 -41.8 33.0 -42.45 33.0 -43.15 32.85 -43.8 32.6 Q-48.05 15.7 -43.25 -0.55 L-41.65 0.2 Q-38.65 15.9 -40.2 31.95 L-40.3 32.35 M-50.55 1.8 Q-44.6 14.35 -49.2 30.4 L-52.1 29.6 Q-55.2 17.2 -52.9 4.55 L-51.55 2.05 -50.55 1.8 M-46.5 70.0 Q-43.95 93.6 -45.75 116.95 -45.9 118.85 -46.2 120.75 L-48.15 120.45 -47.9 73.6 -46.5 70.0 M-24.4 88.55 Q-22.85 109.1 -26.8 127.9 -27.0 128.85 -28.1 129.05 -31.0 128.3 -30.75 125.4 -26.7 81.65 -27.05 37.7 -26.3 63.2 -24.4 88.55 M-87.35 85.55 Q-85.35 94.5 -85.95 104.0 L-86.3 109.9 -89.2 110.95 Q-92.05 103.5 -90.95 95.2 -90.25 89.8 -87.35 85.55 M-101.8 49.05 Q-98.85 78.45 -99.5 108.05 L-99.65 108.9 -100.1 109.2 Q-100.7 109.5 -101.4 109.6 L-102.25 109.5 -102.9 109.05 -103.15 108.85 Q-104.75 98.15 -104.0 86.9 -102.75 68.0 -101.8 49.05 M-27.8 131.65 Q-24.15 141.3 -25.7 151.55 L-26.1 154.15 -26.9 154.75 -27.8 154.15 Q-30.45 143.65 -29.15 133.0 L-27.8 131.65 M-1.75 128.2 L-0.85 89.85 Q1.9 108.0 -0.1 125.95 L-0.55 128.25 -1.75 128.2" fill="#ac9e88" fill-rule="evenodd" stroke="none"/>
    <path d="M14.4 -212.65 Q45.3 -203.25 64.15 -177.25 74.35 -163.1 75.2 -145.35 L75.2 161.85 67.9 161.85 66.45 130.05 64.65 161.85 62.1 161.85 60.65 115.05 Q59.6 83.55 61.9 52.2 58.15 68.8 56.95 85.7 L55.05 115.2 54.65 67.65 51.8 133.35 53.7 134.0 54.65 130.65 Q55.0 137.05 57.6 142.95 61.05 150.9 61.05 159.65 L61.05 161.85 -20.25 161.85 Q-22.3 150.45 -22.45 138.8 -22.5 135.5 -22.85 132.25 L-24.65 161.85 -101.7 161.85 -104.2 129.2 -104.7 138.8 Q-104.95 145.25 -104.6 151.75 -104.35 156.85 -104.85 161.85 L-106.2 161.85 -109.3 123.35 -108.9 122.65 Q-107.9 120.9 -108.0 118.95 L-110.0 88.65 -112.05 122.35 -111.55 122.95 -111.0 150.85 -112.15 152.1 -112.4 161.85 -120.4 161.85 -120.4 -142.85 -120.25 -146.05 -119.95 -149.25 Q-116.8 -172.05 -100.55 -188.35 L-98.05 -154.0 -96.95 -153.9 Q-95.55 -156.55 -96.05 -159.6 -97.4 -168.1 -94.55 -176.0 -90.7 -186.75 -97.9 -190.85 -89.75 -197.95 -80.35 -203.45 L-75.25 -206.35 -73.9 -201.85 Q-72.5 -171.85 -67.9 -140.95 L-66.55 -141.25 -67.1 -155.65 -66.65 -156.4 -67.4 -165.2 -66.35 -166.4 -66.8 -168.0 Q-70.0 -184.4 -62.25 -198.95 L-64.35 -200.7 -66.1 -199.4 -64.75 -208.25 -65.4 -209.7 -66.4 -210.25 -48.65 -215.45 Q-49.85 -209.05 -46.0 -203.95 -49.9 -180.8 -45.4 -157.4 L-44.2 -157.45 -44.15 -170.85 -42.8 -171.15 Q-42.5 -171.85 -42.5 -172.55 -42.85 -194.75 -42.55 -216.55 -18.85 -220.05 4.85 -215.15 L10.85 -213.7 Q8.05 -211.95 8.75 -208.85 10.95 -199.45 10.6 -190.2 L11.9 -189.75 12.35 -190.4 Q16.15 -201.45 14.4 -212.65 M-70.65 -208.5 L-70.6 -208.5 -70.65 -208.5 M3.9 -201.15 L2.65 -199.75 Q3.0 -191.35 3.5 -182.95 4.8 -162.25 3.8 -141.7 L6.15 -141.1 Q7.3 -140.85 8.25 -141.65 L8.55 -142.75 Q7.55 -172.6 3.9 -201.15 M68.65 49.7 L68.05 79.85 69.2 79.5 70.1 39.9 Q68.8 44.7 68.65 49.7 M12.55 83.0 Q10.45 87.3 9.75 92.05 9.75 86.0 6.3 81.1 L5.5 81.65 5.45 125.55 9.3 126.3 10.1 122.45 11.3 123.9 Q13.2 125.85 14.0 123.9 22.15 103.5 14.05 82.25 L12.55 83.0 M31.8 85.1 L30.3 89.85 Q29.65 106.7 32.25 123.2 36.8 104.55 31.8 85.1 M13.8 30.25 L12.7 29.35 11.9 29.7 11.35 31.1 Q9.6 36.0 11.55 40.6 L12.65 39.8 13.8 30.25 M17.7 15.05 L17.1 15.45 17.05 40.1 18.75 40.4 17.7 15.05 M56.0 25.0 L56.9 24.55 55.55 -9.25 Q53.65 0.75 54.65 10.8 L56.0 25.0 M10.85 -7.5 Q9.45 -5.65 9.35 -3.6 8.5 12.15 12.0 28.2 L12.0 -6.65 10.85 -7.5 M1.05 -6.7 L0.65 -7.75 Q-6.25 18.8 3.35 44.45 L4.05 44.7 4.6 43.5 Q10.25 18.65 1.05 -6.7 M21.3 -39.5 L22.0 -39.85 20.5 -82.5 Q18.95 -61.15 20.65 -39.7 L21.3 -39.5 M11.2 -53.05 Q15.75 -74.25 9.05 -92.85 L8.25 -92.65 Q2.5 -72.4 10.25 -51.8 L11.2 -53.05 M52.35 -79.8 L51.0 -75.35 Q49.55 -61.95 49.8 -48.45 49.85 -46.0 52.2 -45.55 54.25 -46.9 54.05 -49.4 52.85 -64.6 52.35 -79.8 M70.1 -113.45 Q68.2 -108.3 68.45 -103.3 69.9 -74.15 70.75 -45.0 71.5 -20.8 67.15 3.3 L67.8 4.7 69.1 3.35 Q73.05 -26.5 72.25 -56.8 71.5 -85.1 70.1 -113.45 M60.1 -106.15 L60.6 -121.05 55.45 -41.3 56.6 -28.85 Q56.95 -21.05 58.1 -13.3 L58.65 -6.95 58.85 5.8 59.75 7.15 61.1 5.7 Q60.75 -17.35 61.65 -40.35 62.8 -69.2 60.35 -97.85 60.0 -102.0 60.1 -106.15 M52.9 -128.6 L53.4 -133.15 Q55.3 -150.55 52.4 -165.5 48.5 -147.6 50.3 -129.05 L50.9 -128.4 52.9 -128.6 M32.1 -180.05 Q31.7 -165.55 29.1 -151.35 26.95 -139.35 34.8 -137.6 L35.15 -138.9 Q39.15 -161.45 32.1 -180.05 M44.4 -169.0 Q45.2 -164.4 44.05 -159.7 40.15 -144.2 45.45 -130.65 L48.8 -131.7 Q50.1 -139.75 48.75 -147.8 47.05 -157.75 48.3 -167.75 50.55 -185.25 43.15 -198.15 L42.0 -197.75 Q36.95 -184.8 42.8 -170.7 L44.4 -169.0 M-101.8 49.05 Q-102.75 68.0 -104.0 86.9 -104.75 98.15 -103.15 108.85 L-102.9 109.05 -102.25 109.5 -101.4 109.6 Q-100.7 109.5 -100.1 109.2 L-99.65 108.9 -99.5 108.05 Q-98.85 78.45 -101.8 49.05 M-87.35 85.55 Q-90.25 89.8 -90.95 95.2 -92.05 103.5 -89.2 110.95 L-86.3 109.9 -85.95 104.0 Q-85.35 94.5 -87.35 85.55 M-24.4 88.55 Q-26.3 63.2 -27.05 37.7 -26.7 81.65 -30.75 125.4 -31.0 128.3 -28.1 129.05 -27.0 128.85 -26.8 127.9 -22.85 109.1 -24.4 88.55 M-46.5 70.0 L-47.9 73.6 -48.15 120.45 -46.2 120.75 Q-45.9 118.85 -45.75 116.95 -43.95 93.6 -46.5 70.0 M-50.55 1.8 L-51.55 2.05 -52.9 4.55 Q-55.2 17.2 -52.1 29.6 L-49.2 30.4 Q-44.6 14.35 -50.55 1.8 M-40.3 32.35 L-40.2 31.95 Q-38.65 15.9 -41.65 0.2 L-43.25 -0.55 Q-48.05 15.7 -43.8 32.6 L-43.15 32.85 -42.45 33.0 -41.8 33.0 -41.25 32.8 -40.3 32.35 M-11.75 -5.15 L-12.5 -0.85 -10.3 37.35 -7.9 38.45 -11.75 -5.15 M-18.2 -25.55 L-17.0 -25.75 -17.7 -65.25 -19.15 -26.45 -18.2 -25.55 M-60.1 -71.15 Q-59.2 -71.7 -58.95 -72.8 -56.55 -84.9 -61.75 -94.9 -63.85 -83.4 -60.8 -71.6 L-60.1 -71.15 M-67.7 -94.45 L-69.3 -77.4 -68.85 -76.7 Q-69.9 -62.65 -68.2 -48.85 -68.0 -47.35 -66.45 -46.85 -66.0 -47.25 -66.0 -47.65 -64.8 -71.05 -66.35 -94.8 L-67.7 -94.45 M-75.45 -94.45 L-76.4 -88.7 Q-77.65 -79.9 -76.25 -71.25 L-75.1 -64.9 -75.45 -94.45 M-14.35 -73.25 L-13.45 -73.65 -13.6 -86.65 -14.35 -73.25 M-10.2 -55.45 L-9.65 -56.5 Q-7.5 -61.75 -12.8 -64.4 -19.75 -40.2 -12.05 -12.65 -10.35 -34.4 -10.2 -55.45 M-5.9 -64.6 L-6.1 -58.75 Q-6.55 -50.9 -4.8 -43.35 L-3.55 -43.9 -4.05 -72.5 -5.15 -72.4 -5.9 -70.6 -5.9 -64.6 M-110.45 -40.15 L-110.95 -6.55 -110.2 8.3 -108.95 7.95 -110.45 -40.15 M-113.6 -9.2 L-113.85 -6.9 Q-115.25 25.3 -114.15 57.35 L-112.5 57.35 Q-112.15 56.5 -112.2 55.65 -113.25 23.3 -113.6 -9.2 M-89.05 -6.5 L-90.85 -2.25 Q-91.8 9.05 -93.5 20.1 -94.85 28.65 -89.1 33.15 L-85.35 29.65 -82.3 32.5 Q-81.6 31.55 -81.3 30.45 -80.85 28.85 -81.0 27.2 -81.95 16.7 -83.6 7.9 L-85.35 26.3 Q-88.7 10.0 -89.05 -6.5 M-99.05 -12.4 L-99.45 -9.9 -99.4 69.65 -96.8 70.25 -95.9 70.15 -99.05 -12.4 M-106.3 -87.4 Q-106.25 -86.55 -105.8 -85.7 L-105.1 -85.5 -103.85 -86.9 -107.45 -125.25 Q-107.1 -106.35 -106.3 -87.4 M-82.3 -74.8 Q-79.55 -84.2 -84.4 -91.35 -85.25 -95.4 -88.75 -97.45 L-89.75 -97.2 Q-91.9 -79.4 -87.6 -61.0 L-86.7 -59.3 -86.0 -59.1 -85.35 -59.4 -84.0 -77.75 -82.3 -74.8 M-113.6 -160.35 L-114.4 -158.55 Q-115.8 -151.25 -115.25 -144.05 -114.7 -136.5 -114.65 -129.25 -114.25 -92.75 -112.15 -56.45 L-109.25 -55.45 Q-108.05 -57.35 -107.85 -59.75 -107.4 -65.35 -108.65 -70.6 L-107.95 -71.3 Q-107.65 -73.2 -107.65 -75.05 -107.6 -84.5 -108.9 -93.65 -113.6 -127.0 -113.6 -160.35 M-84.65 -180.95 L-85.3 -181.3 Q-86.9 -168.2 -88.85 -155.25 -90.75 -142.5 -82.35 -143.6 L-84.65 -180.95 M-37.95 -131.15 L-36.35 -132.1 -39.5 -174.45 Q-43.2 -153.85 -41.3 -132.75 L-37.95 -131.15 M-60.1 -134.4 L-57.3 -133.15 Q-55.95 -133.4 -56.0 -134.15 -57.8 -156.9 -60.3 -178.6 -61.3 -156.55 -60.1 -134.4 M-39.45 -175.15 L-38.5 -175.95 -39.05 -202.25 -39.45 -175.15 M-15.75 -196.65 Q-16.75 -173.05 -19.35 -149.6 -20.3 -141.25 -15.9 -134.1 L-17.35 -98.35 -16.4 -97.45 -15.15 -97.65 Q-14.15 -115.75 -12.15 -133.1 -9.4 -157.1 -14.5 -180.5 L-15.2 -179.9 -15.05 -197.05 -15.75 -196.65 M-2.8 -175.4 Q-3.65 -165.55 -6.05 -156.05 -10.2 -139.55 -3.0 -128.4 -2.1 -126.95 -1.9 -127.75 4.95 -156.05 -1.75 -186.75 L-2.8 -175.4 M-1.75 128.2 L-0.55 128.25 -0.1 125.95 Q1.9 108.0 -0.85 89.85 L-1.75 128.2 M-27.8 131.65 L-29.15 133.0 Q-30.45 143.65 -27.8 154.15 L-26.9 154.75 -26.1 154.15 -25.7 151.55 Q-24.15 141.3 -27.8 131.65" fill="#d6cdba" fill-rule="evenodd" stroke="none"/>
    <path d="M10.75 -213.9 L10.85 -213.85 10.75 -213.9 M-126.0 161.85 L-126.0 -142.7 -126.0 -144.6 -126.0 -145.0 Q-125.85 -177.4 -96.55 -200.35 -66.95 -223.55 -25.2 -223.5 16.55 -223.55 46.15 -200.35 64.15 -186.2 70.95 -168.2 63.85 -184.0 47.25 -196.75 18.35 -219.0 -22.6 -219.0 L-41.75 -217.7 -41.85 -217.7 -43.35 -217.45 -43.65 -217.4 -46.4 -216.85 -48.45 -216.3 -48.4 -216.55 Q-73.05 -211.6 -92.4 -196.75 -120.45 -175.2 -121.35 -144.9 L-121.4 -142.85 -121.4 161.85 -126.0 161.85" fill="#625948" fill-rule="evenodd" stroke="none"/>
    <path d="M76.2 161.85 L76.2 -140.2 76.25 -142.8 76.2 -145.35 76.2 -145.4 76.1 -147.15 75.85 -150.05 75.85 -150.1 Q73.75 -179.95 46.75 -201.15 16.95 -224.55 -25.2 -224.5 -67.35 -224.55 -97.15 -201.15 -126.85 -177.9 -127.0 -145.0 L-127.0 -144.6 -127.0 -142.7 -127.0 161.85 -130.2 161.85 -130.2 -145.15 -130.2 -147.05 -130.2 -147.1 -130.2 -147.5 Q-130.05 -180.55 -99.5 -203.95 -68.65 -227.6 -25.15 -227.6 18.4 -227.6 49.25 -203.95 77.1 -182.6 79.7 -153.2 L80.05 -149.65 80.15 -147.85 80.15 161.85 76.2 161.85" fill="#ede9e0" fill-rule="evenodd" stroke="none"/>
  </g>
</svg>
