<?xml version="1.0" encoding="UTF-8" standalone="no"?>
<svg xmlns:ffdec="https://www.free-decompiler.com/flash" xmlns:xlink="http://www.w3.org/1999/xlink" ffdec:objectType="shape" height="81.75px" width="17.7px" xmlns="http://www.w3.org/2000/svg">
  <g transform="matrix(1.0, 0.0, 0.0, 1.0, 8.85, 40.85)">
    <path d="M-8.2 -31.65 Q-8.25 -33.0 -7.65 -34.0 L-5.4 -36.85 -3.95 -38.55 Q-2.9 -39.9 -1.25 -40.5 1.2 -41.4 3.35 -39.85 5.0 -38.55 5.2 -36.65 7.6 -35.0 8.7 -32.3 L8.85 32.05 Q8.55 34.4 6.55 35.7 L5.2 36.5 Q4.0 40.5 -0.05 40.9 -3.85 40.2 -5.2 36.5 -8.2 35.2 -8.85 32.05 L-8.85 -14.2 -8.25 -31.0 -8.15 31.1 -8.0 32.0 -7.75 32.8 Q-6.75 35.45 -4.15 36.45 L-3.8 37.5 -3.25 38.35 Q-1.1 40.75 1.85 39.6 4.05 38.9 4.15 36.45 L4.95 35.95 5.7 35.45 Q7.8 34.0 8.3 31.55 L7.85 -32.3 7.65 -33.0 7.4 -33.6 Q6.35 -35.75 4.15 -36.6 L3.3 -38.8 2.95 -39.15 1.2 -39.85 Q-1.55 -40.4 -3.45 -38.2 L-4.15 -36.6 -4.75 -36.25 -5.25 -35.9 -5.8 -35.2 -6.4 -34.55 -8.2 -31.65 M2.4 -37.55 L3.3 -35.15 2.95 -34.85 3.05 -34.3 1.75 -33.1 0.0 -34.95 -1.7 -33.1 -2.85 -33.9 -3.35 -35.65 -2.6 -37.5 -0.15 -39.25 2.4 -37.55 M7.0 -25.85 L6.95 -25.35 5.95 -25.6 6.0 -26.1 6.35 -26.4 6.3 -27.75 Q6.2 -30.7 5.1 -33.35 L4.95 -31.0 2.6 -31.4 4.25 -31.7 3.5 -33.15 3.7 -34.45 4.15 -34.7 4.85 -34.6 5.1 -34.45 6.35 -33.2 Q7.2 -32.15 7.2 -30.85 L7.0 -25.85 M2.0 -36.85 L0.0 -38.05 -2.3 -36.2 -1.55 -35.55 -1.85 -34.15 0.15 -35.95 2.05 -34.4 1.75 -35.8 2.15 -36.45 2.0 -36.85 M-0.15 -33.75 L0.6 -33.45 0.65 -31.4 1.35 -31.75 2.15 -31.55 1.95 -30.8 0.0 -30.0 -2.25 -31.3 -1.35 -31.75 -0.65 -31.4 -0.15 -33.75 M-6.7 -22.15 L-5.8 -17.5 -5.8 -20.7 Q-5.7 -22.9 -5.1 -24.9 -4.45 -27.0 -2.4 -28.0 -0.4 -29.05 1.5 -28.6 4.2 -27.9 5.3 -25.25 5.65 -24.4 5.6 -23.55 5.5 -19.95 5.65 -16.4 L6.55 -21.4 6.7 -22.25 7.0 -11.05 6.65 -10.7 6.05 -10.2 5.4 -10.5 4.55 -9.25 4.5 -7.95 5.85 -7.05 6.05 -6.25 6.6 -8.65 7.1 0.05 6.4 0.85 6.45 1.8 5.45 1.7 5.1 -1.2 5.05 -1.25 4.9 -1.15 4.15 0.05 3.55 0.15 2.8 10.25 2.8 9.8 2.7 12.0 4.25 11.8 2.7 13.3 2.65 14.5 3.4 15.6 3.95 15.8 4.2 16.25 5.25 16.3 5.9 15.65 5.65 19.15 5.2 17.05 4.25 17.45 2.5 15.9 Q2.2 19.55 2.85 23.15 3.2 24.95 2.25 26.45 1.6 27.45 0.45 27.85 L-1.1 26.95 Q-1.7 26.55 -1.85 25.95 -3.1 21.0 -2.5 15.9 L-3.95 17.4 -5.1 16.9 -5.8 18.9 -6.05 17.2 -5.9 16.2 -5.6 15.7 -4.3 16.3 -3.95 15.8 -3.4 15.6 -2.6 14.5 -2.65 13.3 -4.25 11.8 -2.9 11.95 -2.75 9.8 -2.8 10.25 -3.55 2.4 -3.5 1.25 -3.75 0.15 -4.45 0.0 -4.65 -0.95 -5.05 -1.3 -5.25 -0.9 -4.8 0.9 -5.15 1.5 -6.4 1.8 -6.4 0.85 -6.9 0.35 -6.6 -8.65 -6.05 -6.2 -5.8 -7.05 -5.1 -7.25 -4.5 -7.95 -5.45 -10.25 -6.0 -10.2 -6.6 -10.6 -6.75 -22.05 -6.7 -22.15 M5.45 -29.0 L4.5 -28.75 3.55 -29.0 Q3.15 -29.3 3.15 -29.65 L3.55 -30.25 4.5 -30.55 5.45 -30.25 5.85 -29.65 Q5.85 -29.3 5.45 -29.0 M-6.95 -26.4 L-6.15 -32.7 -5.65 -33.95 -5.4 -34.3 -3.8 -34.65 -3.5 -33.15 -4.25 -31.7 -2.55 -31.4 -4.95 -31.0 -4.9 -33.15 -5.85 -32.55 -6.35 -26.4 -5.95 -25.6 -6.9 -25.35 -6.95 -26.4 M-3.45 -30.3 Q-3.05 -30.05 -3.05 -29.65 -3.05 -29.25 -3.45 -28.95 -3.85 -28.7 -4.4 -28.7 -4.95 -28.7 -5.35 -28.95 -5.75 -29.25 -5.75 -29.65 L-5.35 -30.3 -4.4 -30.6 Q-3.85 -30.6 -3.45 -30.3 M4.05 -26.3 L3.9 -26.45 Q0.35 -29.35 -3.4 -26.8 -6.3 -24.3 -4.9 -20.75 -4.1 -18.75 -2.0 -17.95 0.6 -17.0 3.05 -18.5 5.45 -20.0 5.5 -22.8 5.5 -24.9 4.05 -26.3 M-3.3 -24.45 L-2.2 -25.2 Q-3.6 -23.35 -2.0 -21.6 -0.95 -20.35 0.7 -20.75 1.9 -20.75 2.7 -21.95 L2.2 -25.3 Q3.9 -24.3 3.7 -22.35 3.35 -19.45 0.6 -18.95 -3.4 -19.2 -3.55 -23.3 L-3.3 -24.45 M-2.5 -17.35 L-1.85 -17.1 -1.05 -14.1 -1.85 -12.85 Q-0.2 -8.05 -0.75 -2.9 L-1.95 -10.4 -3.05 -15.95 -2.5 -17.35 M-5.9 -15.6 L-6.2 -13.15 -3.75 -9.9 -4.55 -15.5 -5.9 -15.6 M1.7 -16.5 L2.5 -17.35 3.0 -15.55 2.25 -14.65 2.55 -14.0 0.75 -2.9 1.7 -16.5 M2.2 -23.4 L1.4 -21.6 Q-0.05 -20.25 -1.6 -21.85 -2.55 -22.85 -1.95 -23.9 L-0.45 -22.1 Q-0.15 -21.8 0.35 -21.7 1.85 -22.35 1.9 -23.8 L2.2 -23.4 M3.9 -2.8 L3.45 -3.55 3.55 -1.05 5.15 -2.35 6.2 -1.2 6.25 -4.3 3.7 -7.3 3.55 -4.7 4.3 -5.05 5.25 -4.45 5.25 -3.05 3.9 -2.8 M5.9 -15.6 L4.55 -15.8 3.75 -9.9 5.75 -11.65 5.75 -12.45 6.2 -13.15 5.9 -15.6 M2.15 -17.55 L-1.6 -17.3 -3.75 -18.0 -1.55 20.45 Q-2.65 22.4 -2.0 24.6 L-1.75 25.3 Q-1.25 26.65 0.25 26.9 L1.45 25.6 1.85 24.95 Q2.6 22.5 1.6 20.45 L3.75 -18.0 2.15 -17.55 M-6.25 -4.3 L-6.2 -1.2 -5.15 -2.35 -3.55 -1.05 -3.45 -3.55 -3.85 -2.8 -5.25 -3.05 -4.95 -4.8 -4.3 -5.05 -3.5 -4.7 -3.7 -7.3 -5.85 -4.45 -6.25 -4.3 M-6.35 8.25 L-6.6 2.95 -5.2 6.85 -4.6 6.0 -5.1 5.55 -5.1 4.3 -4.3 3.8 -3.6 4.55 -4.15 5.1 -3.45 6.3 -4.8 8.05 -4.3 7.85 -3.4 8.65 -3.55 10.2 -3.25 10.85 -3.7 11.4 -4.35 10.9 -4.4 8.9 -5.5 9.4 -6.1 11.95 -6.35 8.25 M-4.95 13.35 L-4.0 13.35 -4.0 14.6 -5.0 14.6 -5.0 13.45 -5.0 13.35 -4.95 13.35 M6.25 12.0 L5.55 9.4 4.4 8.9 3.65 11.25 3.5 11.1 3.95 8.0 4.85 8.05 3.45 6.3 4.05 5.1 3.65 4.85 4.3 3.8 5.15 4.3 4.4 6.3 5.15 6.95 5.7 6.45 6.4 2.75 6.9 7.35 6.25 12.0 M5.0 13.55 L5.15 14.05 5.0 14.6 4.55 14.8 Q4.3 14.8 4.15 14.6 L3.95 14.05 4.15 13.55 4.55 13.3 Q4.75 13.3 4.95 13.45 L5.0 13.55 M-1.0 -0.7 L0.0 8.85 1.05 -1.85 0.55 20.5 -0.55 20.65 -1.0 -0.7 M0.45 21.6 L0.9 22.1 Q1.75 23.3 1.15 24.75 L0.45 25.25 -0.1 25.25 Q-1.75 24.1 -1.35 22.2 L-0.45 21.8 -0.55 23.8 0.2 24.55 0.35 23.85 0.45 21.6 M4.35 34.7 L3.85 34.6 3.45 33.4 4.05 31.7 2.6 31.35 4.75 30.7 5.35 32.95 5.65 32.5 6.5 27.7 6.1 27.5 6.0 28.65 5.25 29.05 5.75 30.15 4.85 30.4 3.15 29.35 4.15 26.4 3.0 27.75 3.05 28.85 0.5 29.25 2.15 28.15 2.35 26.65 4.65 25.15 5.1 25.9 3.75 22.0 3.1 19.75 3.65 19.35 4.95 20.3 5.05 21.45 5.8 20.9 6.2 26.4 6.65 26.9 7.15 27.45 7.25 28.55 Q7.65 32.7 4.35 34.7 M-6.5 26.55 L-5.8 20.9 -5.05 21.45 -4.75 20.0 -3.65 19.35 -3.1 19.75 -5.05 25.9 -4.65 25.15 -2.35 26.65 -2.15 28.15 -0.45 29.25 -3.05 28.85 -3.0 27.75 -4.15 26.4 -3.1 29.35 -5.1 30.4 -5.7 30.15 -5.25 29.05 -6.0 28.65 -6.15 27.5 -5.85 32.05 -5.8 32.4 -5.55 32.6 -4.8 32.95 -4.75 30.7 -2.65 31.45 -4.2 31.95 -3.4 33.4 -3.8 34.6 -4.85 34.3 Q-7.1 32.15 -6.75 28.7 L-6.5 26.55 M0.65 31.25 L0.9 33.0 0.0 33.6 -0.85 32.85 -0.65 31.25 -2.1 31.45 0.0 29.9 2.25 31.05 1.95 31.6 0.65 31.25 M-2.2 33.1 L-1.7 33.05 0.0 34.85 2.2 33.1 2.65 34.55 Q2.95 35.5 2.8 36.45 2.5 38.3 0.75 38.85 L-0.25 38.8 Q-2.6 38.05 -3.35 35.55 L-2.2 33.1 M0.15 28.9 L0.15 29.25 -0.05 29.25 -0.05 28.9 0.15 28.9" fill="#000000" fill-rule="evenodd" stroke="none"/>
    <path d="M-6.4 -34.55 L-5.8 -35.2 Q-5.55 -35.2 -5.4 -35.4 -5.25 -35.6 -5.25 -35.9 L-4.75 -36.25 -4.05 -35.75 Q-3.8 -35.3 -3.8 -34.65 L-5.4 -34.3 -5.65 -33.95 -6.15 -32.7 -6.95 -26.4 -7.15 -26.6 Q-7.75 -30.75 -6.4 -34.55 M-3.45 -38.2 Q-1.55 -40.4 1.2 -39.85 L2.95 -39.15 3.3 -38.8 3.05 -37.9 Q2.75 -37.55 2.4 -37.55 L-0.15 -39.25 -2.6 -37.5 -3.45 -38.2 M7.0 -25.85 L7.2 -30.85 Q7.2 -32.15 6.35 -33.2 L5.1 -34.45 4.85 -34.6 4.15 -34.7 Q3.05 -35.5 4.25 -36.3 L5.25 -35.95 5.35 -35.3 Q7.5 -33.75 7.75 -31.15 8.0 -28.4 7.55 -25.95 L7.0 -25.85 M-6.7 -22.15 L-6.75 -22.05 -6.6 -10.6 -7.25 -10.0 -7.35 -10.15 -7.7 -16.35 Q-8.0 -19.7 -7.35 -22.9 -7.2 -23.6 -6.6 -23.2 L-6.7 -22.15 M-5.15 1.5 L-4.8 0.9 -5.25 -0.9 -5.05 -1.3 -4.65 -0.95 -4.45 0.0 -3.75 0.15 -3.5 1.25 -3.55 2.4 -3.95 3.15 Q-4.6 3.95 -5.5 3.5 L-5.6 2.55 -5.05 2.05 -5.15 1.5 M4.15 0.05 L4.9 -1.15 5.1 -1.2 5.45 1.7 5.9 3.1 5.3 3.85 4.8 3.6 4.1 2.7 Q3.5 1.3 4.15 0.05 M6.65 -10.7 L7.0 -11.05 6.7 -22.25 6.55 -21.4 6.7 -22.9 7.2 -21.9 7.35 -15.6 7.6 -12.8 Q7.85 -11.2 7.15 -9.85 L7.1 -9.75 6.95 -9.8 6.65 -10.7 M4.05 -26.3 L4.4 -25.1 3.55 -24.7 2.95 -25.25 Q2.05 -26.3 0.85 -26.6 L-0.8 -26.4 Q-2.5 -25.95 -3.85 -25.0 L-4.15 -25.0 -3.4 -26.8 Q0.35 -29.35 3.9 -26.45 L4.05 -26.3 M1.1 -25.05 Q1.5 -24.65 1.5 -24.05 1.5 -23.45 1.1 -23.0 0.7 -22.6 0.1 -22.6 -0.5 -22.6 -0.9 -23.0 -1.3 -23.45 -1.3 -24.05 -1.3 -24.65 -0.9 -25.05 -0.5 -25.5 0.1 -25.5 0.7 -25.5 1.1 -25.05 M-1.0 -16.4 L-0.45 -16.65 0.75 -16.35 0.75 -15.35 Q-0.15 -12.3 0.0 -8.65 L-0.05 -1.9 -0.95 -14.85 -1.35 -15.6 -1.0 -16.4 M-6.1 11.95 L-6.05 12.4 -5.3 11.8 -4.4 12.25 -4.95 13.35 -5.0 13.35 -5.0 13.45 -5.05 13.6 -5.25 14.15 Q-5.5 15.0 -6.45 15.1 L-6.7 14.6 -7.0 13.15 Q-7.3 10.15 -7.05 7.25 L-6.35 8.25 -6.1 11.95 M6.25 12.0 L6.9 7.35 Q7.45 7.85 7.45 8.35 L7.4 14.55 6.8 14.85 6.2 14.6 5.1 13.65 5.0 13.55 4.95 13.45 Q4.35 12.8 4.75 12.05 L6.2 12.8 6.25 12.0 M-0.45 21.8 L0.45 21.6 0.35 23.85 -0.55 23.8 -0.45 21.8 M6.65 26.9 L6.6 18.0 6.7 18.1 7.15 24.05 7.55 27.7 7.7 30.6 Q7.65 32.9 6.0 34.55 4.95 35.6 4.35 34.7 7.65 32.7 7.25 28.55 L7.15 27.45 6.65 26.9 M-5.85 32.05 L-5.55 32.6 -5.8 32.4 -5.85 32.05 M-4.85 34.3 L-5.75 34.6 -6.6 33.4 Q-8.15 30.85 -7.7 27.8 -7.25 24.9 -7.1 22.0 L-6.6 18.1 -6.5 26.55 -6.75 28.7 Q-7.1 32.15 -4.85 34.3" fill="#a89d8c" fill-rule="evenodd" stroke="none"/>
    <path d="M-8.25 -31.0 L-8.2 -31.65 -6.4 -34.55 Q-7.75 -30.75 -7.15 -26.6 L-6.95 -26.4 -6.9 -25.35 -5.95 -25.6 -6.35 -26.4 -5.85 -32.55 -4.9 -33.15 -4.95 -31.0 -2.55 -31.4 -4.25 -31.7 -3.5 -33.15 -3.8 -34.65 Q-3.8 -35.3 -4.05 -35.75 L-4.75 -36.25 -4.15 -36.6 -3.45 -38.2 -2.6 -37.5 -3.35 -35.65 -2.85 -33.9 -1.7 -33.1 0.0 -34.95 1.75 -33.1 3.05 -34.3 2.95 -34.85 3.3 -35.15 2.4 -37.55 Q2.75 -37.55 3.05 -37.9 L3.3 -38.8 4.15 -36.6 Q6.35 -35.75 7.4 -33.6 L7.65 -33.0 7.85 -32.3 8.3 31.55 Q7.8 34.0 5.7 35.45 L4.95 35.95 4.15 36.45 Q4.05 38.9 1.85 39.6 -1.1 40.75 -3.25 38.35 L-3.8 37.5 -4.15 36.45 Q-6.75 35.45 -7.75 32.8 L-8.0 32.0 -8.15 31.1 -8.25 -31.0 M-5.8 -35.2 L-5.25 -35.9 Q-5.25 -35.6 -5.4 -35.4 -5.55 -35.2 -5.8 -35.2 M4.15 -34.7 L3.7 -34.45 3.5 -33.15 4.25 -31.7 2.6 -31.4 4.95 -31.0 5.1 -33.35 Q6.2 -30.7 6.3 -27.75 L6.35 -26.4 6.0 -26.1 5.95 -25.6 6.95 -25.35 7.0 -25.85 7.55 -25.95 Q8.0 -28.4 7.75 -31.15 7.5 -33.75 5.35 -35.3 L5.25 -35.95 4.25 -36.3 Q3.05 -35.5 4.15 -34.7 M2.0 -36.85 L2.15 -36.45 1.75 -35.8 2.05 -34.4 0.15 -35.95 -1.85 -34.15 -1.55 -35.55 -2.3 -36.2 0.0 -38.05 2.0 -36.85 M-0.15 -33.75 L-0.65 -31.4 -1.35 -31.75 -2.25 -31.3 0.0 -30.0 1.95 -30.8 2.15 -31.55 1.35 -31.75 0.65 -31.4 0.6 -33.45 -0.15 -33.75 M6.55 -21.4 L5.65 -16.4 Q5.5 -19.95 5.6 -23.55 5.65 -24.4 5.3 -25.25 4.2 -27.9 1.5 -28.6 -0.4 -29.05 -2.4 -28.0 -4.45 -27.0 -5.1 -24.9 -5.7 -22.9 -5.8 -20.7 L-5.8 -17.5 -6.7 -22.15 -6.6 -23.2 Q-7.2 -23.6 -7.35 -22.9 -8.0 -19.7 -7.7 -16.35 L-7.35 -10.15 -7.25 -10.0 -6.6 -10.6 -6.0 -10.2 -5.45 -10.25 -4.5 -7.95 -5.1 -7.25 -5.8 -7.05 -6.05 -6.2 -6.6 -8.65 -6.9 0.35 -6.4 0.85 -6.4 1.8 -5.15 1.5 -5.05 2.05 -5.6 2.55 -5.5 3.5 Q-4.6 3.95 -3.95 3.15 L-3.55 2.4 -2.8 10.25 -2.75 9.8 -2.9 11.95 -4.25 11.8 -2.65 13.3 -2.6 14.5 -3.4 15.6 -3.95 15.8 -4.3 16.3 -5.6 15.7 -5.9 16.2 -6.05 17.2 -5.8 18.9 -5.1 16.9 -3.95 17.4 -2.5 15.9 Q-3.1 21.0 -1.85 25.95 -1.7 26.55 -1.1 26.95 L0.45 27.85 Q1.6 27.45 2.25 26.45 3.2 24.95 2.85 23.15 2.2 19.55 2.5 15.9 L4.25 17.45 5.2 17.05 5.65 19.15 5.9 15.65 5.25 16.3 4.2 16.25 3.95 15.8 3.4 15.6 2.65 14.5 2.7 13.3 4.25 11.8 2.7 12.0 2.8 9.8 2.8 10.25 3.55 0.15 4.15 0.05 Q3.5 1.3 4.1 2.7 L4.8 3.6 5.3 3.85 5.9 3.1 5.45 1.7 6.45 1.8 6.4 0.85 7.1 0.05 6.6 -8.65 6.05 -6.25 5.85 -7.05 4.5 -7.95 4.55 -9.25 5.4 -10.5 6.05 -10.2 6.65 -10.7 6.95 -9.8 7.1 -9.75 7.15 -9.85 Q7.85 -11.2 7.6 -12.8 L7.35 -15.6 7.2 -21.9 6.7 -22.9 6.55 -21.4 M4.9 -1.15 L5.05 -1.25 5.1 -1.2 4.9 -1.15 M5.45 -29.0 Q5.85 -29.3 5.85 -29.65 L5.45 -30.25 4.5 -30.55 3.55 -30.25 3.15 -29.65 Q3.15 -29.3 3.55 -29.0 L4.5 -28.75 5.45 -29.0 M-3.45 -30.3 Q-3.85 -30.6 -4.4 -30.6 L-5.35 -30.3 -5.75 -29.65 Q-5.75 -29.25 -5.35 -28.95 -4.95 -28.7 -4.4 -28.7 -3.85 -28.7 -3.45 -28.95 -3.05 -29.25 -3.05 -29.65 -3.05 -30.05 -3.45 -30.3 M-3.4 -26.8 L-4.15 -25.0 -3.85 -25.0 Q-2.5 -25.95 -0.8 -26.4 L0.85 -26.6 Q2.05 -26.3 2.95 -25.25 L3.55 -24.7 4.4 -25.1 4.05 -26.3 Q5.5 -24.9 5.5 -22.8 5.45 -20.0 3.05 -18.5 0.6 -17.0 -2.0 -17.95 -4.1 -18.75 -4.9 -20.75 -6.3 -24.3 -3.4 -26.8 M-5.9 -15.6 L-4.55 -15.5 -3.75 -9.9 -6.2 -13.15 -5.9 -15.6 M-2.5 -17.35 L-3.05 -15.95 -1.95 -10.4 -0.75 -2.9 Q-0.2 -8.05 -1.85 -12.85 L-1.05 -14.1 -1.85 -17.1 -2.5 -17.35 M-3.3 -24.45 L-3.55 -23.3 Q-3.4 -19.2 0.6 -18.95 3.35 -19.45 3.7 -22.35 3.9 -24.3 2.2 -25.3 L2.7 -21.95 Q1.9 -20.75 0.7 -20.75 -0.95 -20.35 -2.0 -21.6 -3.6 -23.35 -2.2 -25.2 L-3.3 -24.45 M1.1 -25.05 Q0.7 -25.5 0.1 -25.5 -0.5 -25.5 -0.9 -25.05 -1.3 -24.65 -1.3 -24.05 -1.3 -23.45 -0.9 -23.0 -0.5 -22.6 0.1 -22.6 0.7 -22.6 1.1 -23.0 1.5 -23.45 1.5 -24.05 1.5 -24.65 1.1 -25.05 M2.2 -23.4 L1.9 -23.8 Q1.85 -22.35 0.35 -21.7 -0.15 -21.8 -0.45 -22.1 L-1.95 -23.9 Q-2.55 -22.85 -1.6 -21.85 -0.05 -20.25 1.4 -21.6 L2.2 -23.4 M1.7 -16.5 L0.75 -2.9 2.55 -14.0 2.25 -14.65 3.0 -15.55 2.5 -17.35 1.7 -16.5 M-1.0 -16.4 L-1.35 -15.6 -0.95 -14.85 -0.05 -1.9 0.0 -8.65 Q-0.15 -12.3 0.75 -15.35 L0.75 -16.35 -0.45 -16.65 -1.0 -16.4 M2.15 -17.55 L3.75 -18.0 1.6 20.45 Q2.6 22.5 1.85 24.95 L1.45 25.6 0.25 26.9 Q-1.25 26.65 -1.75 25.3 L-2.0 24.6 Q-2.65 22.4 -1.55 20.45 L-3.75 -18.0 -1.6 -17.3 2.15 -17.55 M5.9 -15.6 L6.2 -13.15 5.75 -12.45 5.75 -11.65 3.75 -9.9 4.55 -15.8 5.9 -15.6 M3.9 -2.8 L5.25 -3.05 5.25 -4.45 4.3 -5.05 3.55 -4.7 3.7 -7.3 6.25 -4.3 6.2 -1.2 5.15 -2.35 3.55 -1.05 3.45 -3.55 3.9 -2.8 M-6.25 -4.3 L-5.85 -4.45 -3.7 -7.3 -3.5 -4.7 -4.3 -5.05 -4.95 -4.8 -5.25 -3.05 -3.85 -2.8 -3.45 -3.55 -3.55 -1.05 -5.15 -2.35 -6.2 -1.2 -6.25 -4.3 M-6.1 11.95 L-5.5 9.4 -4.4 8.9 -4.35 10.9 -3.7 11.4 -3.25 10.85 -3.55 10.2 -3.4 8.65 -4.3 7.85 -4.8 8.05 -3.45 6.3 -4.15 5.1 -3.6 4.55 -4.3 3.8 -5.1 4.3 -5.1 5.55 -4.6 6.0 -5.2 6.85 -6.6 2.95 -6.35 8.25 -7.05 7.25 Q-7.3 10.15 -7.0 13.15 L-6.7 14.6 -6.45 15.1 Q-5.5 15.0 -5.25 14.15 L-5.05 13.6 -5.0 13.45 -5.0 14.6 -4.0 14.6 -4.0 13.35 -4.95 13.35 -4.4 12.25 -5.3 11.8 -6.05 12.4 -6.1 11.95 M6.9 7.35 L6.4 2.75 5.7 6.45 5.15 6.95 4.4 6.3 5.15 4.3 4.3 3.8 3.65 4.85 4.05 5.1 3.45 6.3 4.85 8.05 3.95 8.0 3.5 11.1 3.65 11.25 4.4 8.9 5.55 9.4 6.25 12.0 6.2 12.8 4.75 12.05 Q4.35 12.8 4.95 13.45 4.75 13.3 4.55 13.3 L4.15 13.55 3.95 14.05 4.15 14.6 Q4.3 14.8 4.55 14.8 L5.0 14.6 5.15 14.05 5.0 13.55 5.1 13.65 6.2 14.6 6.8 14.85 7.4 14.55 7.45 8.35 Q7.45 7.85 6.9 7.35 M-1.0 -0.7 L-0.55 20.65 0.55 20.5 1.05 -1.85 0.0 8.85 -1.0 -0.7 M0.45 21.6 L-0.45 21.8 -1.35 22.2 Q-1.75 24.1 -0.1 25.25 L0.45 25.25 1.15 24.75 Q1.75 23.3 0.9 22.1 L0.45 21.6 M-0.55 23.8 L0.35 23.85 0.2 24.55 -0.55 23.8 M6.65 26.9 L6.2 26.4 5.8 20.9 5.05 21.45 4.95 20.3 3.65 19.35 3.1 19.75 3.75 22.0 5.1 25.9 4.65 25.15 2.35 26.65 2.15 28.15 0.5 29.25 3.05 28.85 3.0 27.75 4.15 26.4 3.15 29.35 4.85 30.4 5.75 30.15 5.25 29.05 6.0 28.65 6.1 27.5 6.5 27.7 5.65 32.5 5.35 32.95 4.75 30.7 2.6 31.35 4.05 31.7 3.45 33.4 3.85 34.6 4.35 34.7 Q4.95 35.6 6.0 34.55 7.65 32.9 7.7 30.6 L7.55 27.7 7.15 24.05 6.7 18.1 6.6 18.0 6.65 26.9 M-5.85 32.05 L-6.15 27.5 -6.0 28.65 -5.25 29.05 -5.7 30.15 -5.1 30.4 -3.1 29.35 -4.15 26.4 -3.0 27.75 -3.05 28.85 -0.45 29.25 -2.15 28.15 -2.35 26.65 -4.65 25.15 -5.05 25.9 -3.1 19.75 -3.65 19.35 -4.75 20.0 -5.05 21.45 -5.8 20.9 -6.5 26.55 -6.6 18.1 -7.1 22.0 Q-7.25 24.9 -7.7 27.8 -8.15 30.85 -6.6 33.4 L-5.75 34.6 -4.85 34.3 -3.8 34.6 -3.4 33.4 -4.2 31.95 -2.65 31.45 -4.75 30.7 -4.8 32.95 -5.55 32.6 -5.85 32.05 M0.65 31.25 L1.95 31.6 2.25 31.05 0.0 29.9 -2.1 31.45 -0.65 31.25 -0.85 32.85 0.0 33.6 0.9 33.0 0.65 31.25 M0.15 28.9 L-0.05 28.9 -0.05 29.25 0.15 29.25 0.15 28.9 M-2.2 33.1 L-3.35 35.55 Q-2.6 38.05 -0.25 38.8 L0.75 38.85 Q2.5 38.3 2.8 36.45 2.95 35.5 2.65 34.55 L2.2 33.1 0.0 34.85 -1.7 33.05 -2.2 33.1" fill="#625948" fill-rule="evenodd" stroke="none"/>
  </g>
</svg>
