<?xml version="1.0" encoding="UTF-8" standalone="no"?>
<svg xmlns:ffdec="https://www.free-decompiler.com/flash" xmlns:xlink="http://www.w3.org/1999/xlink" ffdec:objectType="shape" height="327.65px" width="152.35px" xmlns="http://www.w3.org/2000/svg">
  <g transform="matrix(1.0, 0.0, 0.0, 1.0, 76.15, 163.8)">
    <path d="M12.75 -163.65 L13.1 -163.8 75.75 -163.8 76.1 -163.65 76.2 -163.35 76.2 -100.6 76.1 -100.3 Q75.95 -100.15 75.75 -100.15 L13.1 -100.15 Q12.9 -100.15 12.75 -100.3 L12.65 -100.6 12.65 -163.35 12.75 -163.65 M18.3 -157.95 L18.6 -158.1 69.3 -158.1 70.75 -159.5 16.75 -159.5 16.75 -105.15 17.95 -106.35 17.95 -157.65 18.3 -157.35 Q18.15 -157.45 18.15 -157.65 L18.3 -157.95 M15.85 -159.95 L15.95 -160.3 16.3 -160.4 72.15 -160.4 72.5 -160.3 72.6 -159.95 72.6 -104.05 72.5 -103.7 72.15 -103.6 16.3 -103.6 15.95 -103.7 15.85 -104.05 15.85 -159.95 M29.65 -146.7 L29.7 -146.8 30.0 -146.9 58.2 -146.9 59.0 -147.7 28.75 -147.7 28.75 -147.55 28.75 -117.25 29.55 -118.05 29.55 -146.45 29.65 -146.7 M19.7 -157.2 L28.35 -148.6 59.9 -148.6 68.4 -157.2 19.7 -157.2 M27.85 -147.8 L18.85 -156.75 18.85 -107.25 27.85 -116.35 27.85 -147.8 M71.7 -159.25 L70.1 -157.6 70.1 -107.15 71.7 -105.5 71.7 -159.25 M59.8 -147.25 L58.8 -146.25 58.8 -118.35 59.8 -117.35 59.8 -147.25 M57.9 -146.0 L30.45 -146.0 30.45 -118.5 57.9 -118.5 57.9 -146.0 M75.3 -162.9 L13.55 -162.9 13.55 -101.05 75.3 -101.05 75.3 -162.9 M69.2 -156.7 L60.7 -148.15 60.7 -116.5 69.2 -108.05 69.2 -156.7 M-76.15 -163.35 L-76.05 -163.65 -75.7 -163.8 -13.05 -163.8 -12.7 -163.65 -12.6 -163.35 -12.6 -100.6 -12.7 -100.3 Q-12.85 -100.15 -13.05 -100.15 L-75.7 -100.15 -76.05 -100.3 -76.15 -100.6 -76.15 -163.35 M-70.5 -157.95 L-70.2 -158.1 -19.5 -158.1 -18.05 -159.5 -72.05 -159.5 -72.05 -105.15 -70.85 -106.35 -70.85 -157.65 -70.5 -157.35 -70.65 -157.65 -70.5 -157.95 M-60.95 -147.8 L-69.95 -156.75 -69.95 -107.25 -60.95 -116.35 -60.95 -147.8 M-72.85 -160.3 L-72.5 -160.4 -16.65 -160.4 -16.3 -160.3 -16.2 -159.95 -16.2 -104.05 -16.3 -103.7 -16.65 -103.6 -72.5 -103.6 -72.85 -103.7 -72.95 -104.05 -72.95 -159.95 -72.85 -160.3 M-59.15 -146.7 L-59.1 -146.8 -58.8 -146.9 -30.6 -146.9 -29.8 -147.7 -60.05 -147.7 -60.05 -147.55 -60.05 -117.25 -59.25 -118.05 -59.25 -146.45 -59.15 -146.7 M-69.1 -157.2 L-60.45 -148.6 -28.9 -148.6 -20.4 -157.2 -69.1 -157.2 M-17.1 -159.25 L-18.7 -157.6 -18.7 -107.15 -17.1 -105.5 -17.1 -159.25 M-29.0 -147.25 L-30.0 -146.25 -30.0 -118.35 -29.0 -117.35 -29.0 -147.25 M-30.9 -146.0 L-58.35 -146.0 -58.35 -118.5 -30.9 -118.5 -30.9 -146.0 M-13.5 -162.9 L-75.25 -162.9 -75.25 -101.05 -13.5 -101.05 -13.5 -162.9 M-19.6 -156.7 L-28.1 -148.15 -28.1 -116.5 -19.6 -108.05 -19.6 -156.7 M-29.5 -116.6 L-30.55 -117.6 -58.45 -117.6 -59.45 -116.6 -29.5 -116.6 M-18.85 -106.0 Q-18.95 -105.9 -19.15 -105.9 L-70.05 -105.9 -71.45 -104.5 -17.3 -104.5 -18.85 -106.0 M-19.6 -106.8 L-28.55 -115.7 -60.3 -115.7 -69.15 -106.8 -19.6 -106.8 M-59.15 -58.7 L-59.1 -58.8 -58.8 -58.9 -30.6 -58.9 -29.8 -59.7 -60.05 -59.7 -60.05 -59.55 -60.05 -29.25 -59.25 -30.05 -59.25 -58.45 -59.15 -58.7 M-76.05 -75.65 L-75.7 -75.8 -13.05 -75.8 -12.7 -75.65 -12.6 -75.35 -12.6 -12.6 -12.7 -12.3 Q-12.85 -12.15 -13.05 -12.15 L-75.7 -12.15 -76.05 -12.3 -76.15 -12.6 -76.15 -75.35 -76.05 -75.65 M-70.5 -69.95 L-70.2 -70.1 -19.5 -70.1 -18.05 -71.5 -72.05 -71.5 -72.05 -17.15 -70.85 -18.35 -70.85 -69.65 -70.5 -69.35 -70.65 -69.65 -70.5 -69.95 M-60.95 -59.8 L-69.95 -68.75 -69.95 -19.25 -60.95 -28.35 -60.95 -59.8 M-72.95 -71.95 L-72.85 -72.3 -72.5 -72.4 -16.65 -72.4 -16.3 -72.3 -16.2 -71.95 -16.2 -16.05 -16.3 -15.7 -16.65 -15.6 -72.5 -15.6 -72.85 -15.7 -72.95 -16.05 -72.95 -71.95 M-69.1 -69.2 L-60.45 -60.6 -28.9 -60.6 -20.4 -69.2 -69.1 -69.2 M-17.1 -71.25 L-18.7 -69.6 -18.7 -19.15 -17.1 -17.5 -17.1 -71.25 M-19.6 -68.7 L-28.1 -60.15 -28.1 -28.5 -19.6 -20.05 -19.6 -68.7 M-29.0 -59.25 L-30.0 -58.25 -30.0 -30.35 -29.0 -29.35 -29.0 -59.25 M-30.9 -58.0 L-58.35 -58.0 -58.35 -30.5 -30.9 -30.5 -30.9 -58.0 M-13.5 -74.9 L-75.25 -74.9 -75.25 -13.05 -13.5 -13.05 -13.5 -74.9 M59.3 -116.6 L58.25 -117.6 30.35 -117.6 29.35 -116.6 59.3 -116.6 M71.5 -104.5 L69.95 -106.0 69.65 -105.9 18.75 -105.9 17.35 -104.5 71.5 -104.5 M60.25 -115.7 L28.5 -115.7 19.65 -106.8 69.2 -106.8 60.25 -115.7 M29.65 -58.7 L29.7 -58.8 30.0 -58.9 58.2 -58.9 59.0 -59.7 28.75 -59.7 28.75 -59.55 28.75 -29.25 29.55 -30.05 29.55 -58.45 29.65 -58.7 M15.95 -72.3 L16.3 -72.4 72.15 -72.4 72.5 -72.3 72.6 -71.95 72.6 -16.05 72.5 -15.7 72.15 -15.6 16.3 -15.6 15.95 -15.7 15.85 -16.05 15.85 -71.95 15.95 -72.3 M18.3 -69.95 L18.6 -70.1 69.3 -70.1 70.75 -71.5 16.75 -71.5 16.75 -17.15 17.95 -18.35 17.95 -69.65 18.3 -69.35 Q18.15 -69.45 18.15 -69.65 L18.3 -69.95 M12.75 -75.65 L13.1 -75.8 75.75 -75.8 76.1 -75.65 76.2 -75.35 76.2 -12.6 76.1 -12.3 Q75.95 -12.15 75.75 -12.15 L13.1 -12.15 Q12.9 -12.15 12.75 -12.3 L12.65 -12.6 12.65 -75.35 12.75 -75.65 M19.7 -69.2 L28.35 -60.6 59.9 -60.6 68.4 -69.2 19.7 -69.2 M27.85 -59.8 L18.85 -68.75 18.85 -19.25 27.85 -28.35 27.85 -59.8 M71.7 -71.25 L70.1 -69.6 70.1 -19.15 71.7 -17.5 71.7 -71.25 M69.2 -68.7 L60.7 -60.15 60.7 -28.5 69.2 -20.05 69.2 -68.7 M59.8 -59.25 L58.8 -58.25 58.8 -30.35 59.8 -29.35 59.8 -59.25 M57.9 -58.0 L30.45 -58.0 30.45 -30.5 57.9 -30.5 57.9 -58.0 M75.3 -74.9 L13.55 -74.9 13.55 -13.05 75.3 -13.05 75.3 -74.9 M69.95 -18.0 L69.65 -17.9 18.75 -17.9 17.35 -16.5 71.5 -16.5 69.95 -18.0 M59.3 -28.6 L58.25 -29.6 30.35 -29.6 29.35 -28.6 59.3 -28.6 M75.75 12.2 Q75.95 12.2 76.1 12.35 L76.2 12.65 76.2 75.4 76.1 75.7 75.75 75.85 13.1 75.85 12.75 75.7 12.65 75.4 12.65 12.65 12.75 12.35 Q12.9 12.2 13.1 12.2 L75.75 12.2 M60.25 -27.7 L28.5 -27.7 19.65 -18.8 69.2 -18.8 60.25 -27.7 M29.65 29.3 L29.7 29.2 30.0 29.1 58.2 29.1 59.0 28.3 28.75 28.3 28.75 28.45 28.75 58.75 29.55 57.95 29.55 29.55 29.65 29.3 M18.3 18.05 Q18.4 17.9 18.6 17.9 L69.3 17.9 70.75 16.5 16.75 16.5 16.75 70.85 17.95 69.65 17.95 18.35 18.3 18.65 18.15 18.35 18.3 18.05 M15.85 16.05 L15.95 15.7 16.3 15.6 72.15 15.6 72.5 15.7 72.6 16.05 72.6 71.95 72.5 72.3 72.15 72.4 16.3 72.4 15.95 72.3 15.85 71.95 15.85 16.05 M30.35 58.4 L29.35 59.4 59.3 59.4 58.25 58.4 30.35 58.4 M19.7 18.8 L28.35 27.4 59.9 27.4 68.4 18.8 19.7 18.8 M27.85 59.65 L27.85 28.2 18.85 19.25 18.85 68.75 27.85 59.65 M30.45 30.0 L30.45 57.5 57.9 57.5 57.9 30.0 30.45 30.0 M59.8 28.75 L58.8 29.75 58.8 57.65 59.8 58.65 59.8 28.75 M71.7 16.75 L70.1 18.4 70.1 68.85 71.7 70.5 71.7 16.75 M69.2 19.3 L60.7 27.85 60.7 59.5 69.2 67.95 69.2 19.3 M28.5 60.3 L19.65 69.2 69.2 69.2 60.25 60.3 28.5 60.3 M75.3 13.1 L13.55 13.1 13.55 74.95 75.3 74.95 75.3 13.1 M-18.85 -18.0 Q-18.95 -17.9 -19.15 -17.9 L-70.05 -17.9 -71.45 -16.5 -17.3 -16.5 -18.85 -18.0 M-29.5 -28.6 L-30.55 -29.6 -58.45 -29.6 -59.45 -28.6 -29.5 -28.6 M-13.05 12.2 Q-12.85 12.2 -12.7 12.35 L-12.6 12.65 -12.6 75.4 -12.7 75.7 -13.05 75.85 -75.7 75.85 -76.05 75.7 -76.15 75.4 -76.15 12.65 -76.05 12.35 -75.7 12.2 -13.05 12.2 M-28.55 -27.7 L-60.3 -27.7 -69.15 -18.8 -19.6 -18.8 -28.55 -27.7 M-59.15 29.3 L-59.1 29.2 -58.8 29.1 -30.6 29.1 -29.8 28.3 -60.05 28.3 -60.05 28.45 -60.05 58.75 -59.25 57.95 -59.25 29.55 -59.15 29.3 M-70.5 18.05 Q-70.4 17.9 -70.2 17.9 L-19.5 17.9 -18.05 16.5 -72.05 16.5 -72.05 70.85 -70.85 69.65 -70.85 18.35 -70.5 18.65 -70.65 18.35 -70.5 18.05 M-72.95 16.05 L-72.85 15.7 -72.5 15.6 -16.65 15.6 -16.3 15.7 -16.2 16.05 -16.2 71.95 -16.3 72.3 -16.65 72.4 -72.5 72.4 -72.85 72.3 -72.95 71.95 -72.95 16.05 M-60.95 28.2 L-69.95 19.25 -69.95 68.75 -60.95 59.65 -60.95 28.2 M-58.45 58.4 L-59.45 59.4 -29.5 59.4 -30.55 58.4 -58.45 58.4 M-69.1 18.8 L-60.45 27.4 -28.9 27.4 -20.4 18.8 -69.1 18.8 M-58.35 30.0 L-58.35 57.5 -30.9 57.5 -30.9 30.0 -58.35 30.0 M-29.0 28.75 L-30.0 29.75 -30.0 57.65 -29.0 58.65 -29.0 28.75 M-17.1 16.75 L-18.7 18.4 -18.7 68.85 -17.1 70.5 -17.1 16.75 M-28.1 27.85 L-28.1 59.5 -19.6 67.95 -19.6 19.3 -28.1 27.85 M-60.3 60.3 L-69.15 69.2 -19.6 69.2 -28.55 60.3 -60.3 60.3 M-13.5 13.1 L-75.25 13.1 -75.25 74.95 -13.5 74.95 -13.5 13.1 M-18.85 70.0 L-19.15 70.1 -70.05 70.1 -71.45 71.5 -17.3 71.5 -18.85 70.0 M-70.5 106.05 Q-70.4 105.9 -70.2 105.9 L-19.5 105.9 -18.05 104.5 -72.05 104.5 -72.05 158.85 -70.85 157.65 -70.85 106.35 -70.5 106.65 -70.65 106.35 -70.5 106.05 M-17.1 104.75 L-18.7 106.4 -18.7 156.85 -17.1 158.5 -17.1 104.75 M-16.3 103.7 L-16.2 104.05 -16.2 159.95 -16.3 160.3 -16.65 160.4 -72.5 160.4 -72.85 160.3 -72.95 159.95 -72.95 104.05 -72.85 103.7 -72.5 103.6 -16.65 103.6 -16.3 103.7 M-13.05 100.2 Q-12.85 100.2 -12.7 100.35 L-12.6 100.65 -12.6 163.4 -12.7 163.7 -13.05 163.85 -75.7 163.85 -76.05 163.7 -76.15 163.4 -76.15 100.65 -76.05 100.35 -75.7 100.2 -13.05 100.2 M-59.15 117.3 L-59.1 117.2 -58.8 117.1 -30.6 117.1 -29.8 116.3 -60.05 116.3 -60.05 116.45 -60.05 146.75 -59.25 145.95 -59.25 117.55 -59.15 117.3 M-70.05 158.1 L-71.45 159.5 -17.3 159.5 -18.85 158.0 -19.15 158.1 -70.05 158.1 M-69.95 156.75 L-60.95 147.65 -60.95 116.2 -69.95 107.25 -69.95 156.75 M-58.45 146.4 L-59.45 147.4 -29.5 147.4 -30.55 146.4 -58.45 146.4 M-69.15 157.2 L-19.6 157.2 -28.55 148.3 -60.3 148.3 -69.15 157.2 M-58.35 118.0 L-58.35 145.5 -30.9 145.5 -30.9 118.0 -58.35 118.0 M-29.0 116.75 L-30.0 117.75 -30.0 145.65 -29.0 146.65 -29.0 116.75 M-75.25 162.95 L-13.5 162.95 -13.5 101.1 -75.25 101.1 -75.25 162.95 M-28.1 115.85 L-28.1 147.5 -19.6 155.95 -19.6 107.3 -28.1 115.85 M-28.9 115.4 L-20.4 106.8 -69.1 106.8 -60.45 115.4 -28.9 115.4 M69.95 70.0 L69.65 70.1 18.75 70.1 17.35 71.5 71.5 71.5 69.95 70.0 M72.15 103.6 L72.5 103.7 72.6 104.05 72.6 159.95 72.5 160.3 72.15 160.4 16.3 160.4 15.95 160.3 15.85 159.95 15.85 104.05 15.95 103.7 16.3 103.6 72.15 103.6 M18.3 106.05 Q18.4 105.9 18.6 105.9 L69.3 105.9 70.75 104.5 16.75 104.5 16.75 158.85 17.95 157.65 17.95 106.35 18.3 106.65 18.15 106.35 18.3 106.05 M71.7 104.75 L70.1 106.4 70.1 156.85 71.7 158.5 71.7 104.75 M75.75 100.2 Q75.95 100.2 76.1 100.35 L76.2 100.65 76.2 163.4 76.1 163.7 75.75 163.85 13.1 163.85 12.75 163.7 12.65 163.4 12.65 100.65 12.75 100.35 Q12.9 100.2 13.1 100.2 L75.75 100.2 M29.65 117.3 L29.7 117.2 30.0 117.1 58.2 117.1 59.0 116.3 28.75 116.3 28.75 116.45 28.75 146.75 29.55 145.95 29.55 117.55 29.65 117.3 M18.75 158.1 L17.35 159.5 71.5 159.5 69.95 158.0 69.65 158.1 18.75 158.1 M30.35 146.4 L29.35 147.4 59.3 147.4 58.25 146.4 30.35 146.4 M19.65 157.2 L69.2 157.2 60.25 148.3 28.5 148.3 19.65 157.2 M27.85 147.65 L27.85 116.2 18.85 107.25 18.85 156.75 27.85 147.65 M30.45 118.0 L30.45 145.5 57.9 145.5 57.9 118.0 30.45 118.0 M59.8 116.75 L58.8 117.75 58.8 145.65 59.8 146.65 59.8 116.75 M13.55 162.95 L75.3 162.95 75.3 101.1 13.55 101.1 13.55 162.95 M60.7 115.85 L60.7 147.5 69.2 155.95 69.2 107.3 60.7 115.85 M59.9 115.4 L68.4 106.8 19.7 106.8 28.35 115.4 59.9 115.4" fill="#424348" fill-rule="evenodd" stroke="none"/>
    <path d="M18.3 -157.95 L16.75 -159.5 70.75 -159.5 69.3 -158.1 18.6 -158.1 18.3 -157.95 M-70.5 -157.95 L-72.05 -159.5 -18.05 -159.5 -19.5 -158.1 -70.2 -158.1 -70.5 -157.95 M-29.5 -116.6 L-59.45 -116.6 -58.45 -117.6 -30.55 -117.6 -29.5 -116.6 M-72.05 -71.5 L-18.05 -71.5 -19.5 -70.1 -70.2 -70.1 -70.5 -69.95 -72.05 -71.5 M59.3 -116.6 L29.35 -116.6 30.35 -117.6 58.25 -117.6 59.3 -116.6 M16.75 -71.5 L70.75 -71.5 69.3 -70.1 18.6 -70.1 18.3 -69.95 16.75 -71.5 M59.3 -28.6 L29.35 -28.6 30.35 -29.6 58.25 -29.6 59.3 -28.6 M16.75 16.5 L70.75 16.5 69.3 17.9 18.6 17.9 Q18.4 17.9 18.3 18.05 L16.75 16.5 M30.35 58.4 L58.25 58.4 59.3 59.4 29.35 59.4 30.35 58.4 M-29.5 -28.6 L-59.45 -28.6 -58.45 -29.6 -30.55 -29.6 -29.5 -28.6 M-72.05 16.5 L-18.05 16.5 -19.5 17.9 -70.2 17.9 Q-70.4 17.9 -70.5 18.05 L-72.05 16.5 M-58.45 58.4 L-30.55 58.4 -29.5 59.4 -59.45 59.4 -58.45 58.4 M-72.05 104.5 L-18.05 104.5 -19.5 105.9 -70.2 105.9 Q-70.4 105.9 -70.5 106.05 L-72.05 104.5 M-58.45 146.4 L-30.55 146.4 -29.5 147.4 -59.45 147.4 -58.45 146.4 M16.75 104.5 L70.75 104.5 69.3 105.9 18.6 105.9 Q18.4 105.9 18.3 106.05 L16.75 104.5 M30.35 146.4 L58.25 146.4 59.3 147.4 29.35 147.4 30.35 146.4" fill="#786756" fill-rule="evenodd" stroke="none"/>
    <path d="M16.75 -159.5 L18.3 -157.95 18.15 -157.65 Q18.15 -157.45 18.3 -157.35 L17.95 -157.65 17.95 -106.35 16.75 -105.15 16.75 -159.5 M29.65 -146.7 L29.55 -146.45 29.55 -118.05 28.75 -117.25 28.75 -147.55 29.65 -146.7 M59.8 -147.25 L59.8 -117.35 58.8 -118.35 58.8 -146.25 59.8 -147.25 M71.7 -159.25 L71.7 -105.5 70.1 -107.15 70.1 -157.6 71.7 -159.25 M-72.05 -159.5 L-70.5 -157.95 -70.65 -157.65 -70.5 -157.35 -70.85 -157.65 -70.85 -106.35 -72.05 -105.15 -72.05 -159.5 M-60.05 -147.55 L-59.15 -146.7 -59.25 -146.45 -59.25 -118.05 -60.05 -117.25 -60.05 -147.55 M-29.0 -147.25 L-29.0 -117.35 -30.0 -118.35 -30.0 -146.25 -29.0 -147.25 M-17.1 -159.25 L-17.1 -105.5 -18.7 -107.15 -18.7 -157.6 -17.1 -159.25 M-60.05 -59.55 L-59.15 -58.7 -59.25 -58.45 -59.25 -30.05 -60.05 -29.25 -60.05 -59.55 M-70.5 -69.95 L-70.65 -69.65 -70.5 -69.35 -70.85 -69.65 -70.85 -18.35 -72.05 -17.15 -72.05 -71.5 -70.5 -69.95 M-17.1 -71.25 L-17.1 -17.5 -18.7 -19.15 -18.7 -69.6 -17.1 -71.25 M-29.0 -59.25 L-29.0 -29.35 -30.0 -30.35 -30.0 -58.25 -29.0 -59.25 M28.75 -59.55 L29.65 -58.7 29.55 -58.45 29.55 -30.05 28.75 -29.25 28.75 -59.55 M18.3 -69.95 L18.15 -69.65 Q18.15 -69.45 18.3 -69.35 L17.95 -69.65 17.95 -18.35 16.75 -17.15 16.75 -71.5 18.3 -69.95 M71.7 -71.25 L71.7 -17.5 70.1 -19.15 70.1 -69.6 71.7 -71.25 M59.8 -59.25 L59.8 -29.35 58.8 -30.35 58.8 -58.25 59.8 -59.25 M28.75 28.45 L29.65 29.3 29.55 29.55 29.55 57.95 28.75 58.75 28.75 28.45 M16.75 16.5 L18.3 18.05 18.15 18.35 18.3 18.65 17.95 18.35 17.95 69.65 16.75 70.85 16.75 16.5 M71.7 16.75 L71.7 70.5 70.1 68.85 70.1 18.4 71.7 16.75 M59.8 28.75 L59.8 58.65 58.8 57.65 58.8 29.75 59.8 28.75 M-60.05 28.45 L-59.15 29.3 -59.25 29.55 -59.25 57.95 -60.05 58.75 -60.05 28.45 M-72.05 16.5 L-70.5 18.05 -70.65 18.35 -70.5 18.65 -70.85 18.35 -70.85 69.65 -72.05 70.85 -72.05 16.5 M-17.1 16.75 L-17.1 70.5 -18.7 68.85 -18.7 18.4 -17.1 16.75 M-29.0 28.75 L-29.0 58.65 -30.0 57.65 -30.0 29.75 -29.0 28.75 M-70.5 106.05 L-70.65 106.35 -70.5 106.65 -70.85 106.35 -70.85 157.65 -72.05 158.85 -72.05 104.5 -70.5 106.05 M-17.1 104.75 L-17.1 158.5 -18.7 156.85 -18.7 106.4 -17.1 104.75 M-60.05 116.45 L-59.15 117.3 -59.25 117.55 -59.25 145.95 -60.05 146.75 -60.05 116.45 M-29.0 116.75 L-29.0 146.65 -30.0 145.65 -30.0 117.75 -29.0 116.75 M18.3 106.05 L18.15 106.35 18.3 106.65 17.95 106.35 17.95 157.65 16.75 158.85 16.75 104.5 18.3 106.05 M71.7 104.75 L71.7 158.5 70.1 156.85 70.1 106.4 71.7 104.75 M28.75 116.45 L29.65 117.3 29.55 117.55 29.55 145.95 28.75 146.75 28.75 116.45 M59.8 116.75 L59.8 146.65 58.8 145.65 58.8 117.75 59.8 116.75" fill="#9e8c78" fill-rule="evenodd" stroke="none"/>
    <path d="M15.85 -159.95 L15.85 -104.05 15.95 -103.7 16.3 -103.6 72.15 -103.6 72.5 -103.7 72.6 -104.05 72.6 -159.95 72.5 -160.3 72.15 -160.4 16.3 -160.4 15.95 -160.3 15.85 -159.95 M27.85 -147.8 L27.85 -116.35 18.85 -107.25 18.85 -156.75 27.85 -147.8 M69.2 -156.7 L69.2 -108.05 60.7 -116.5 60.7 -148.15 69.2 -156.7 M75.3 -162.9 L75.3 -101.05 13.55 -101.05 13.55 -162.9 75.3 -162.9 M57.9 -146.0 L57.9 -118.5 30.45 -118.5 30.45 -146.0 57.9 -146.0 M-72.85 -160.3 L-72.95 -159.95 -72.95 -104.05 -72.85 -103.7 -72.5 -103.6 -16.65 -103.6 -16.3 -103.7 -16.2 -104.05 -16.2 -159.95 -16.3 -160.3 -16.65 -160.4 -72.5 -160.4 -72.85 -160.3 M-60.95 -147.8 L-60.95 -116.35 -69.95 -107.25 -69.95 -156.75 -60.95 -147.8 M-19.6 -156.7 L-19.6 -108.05 -28.1 -116.5 -28.1 -148.15 -19.6 -156.7 M-13.5 -162.9 L-13.5 -101.05 -75.25 -101.05 -75.25 -162.9 -13.5 -162.9 M-30.9 -146.0 L-30.9 -118.5 -58.35 -118.5 -58.35 -146.0 -30.9 -146.0 M-72.95 -71.95 L-72.95 -16.05 -72.85 -15.7 -72.5 -15.6 -16.65 -15.6 -16.3 -15.7 -16.2 -16.05 -16.2 -71.95 -16.3 -72.3 -16.65 -72.4 -72.5 -72.4 -72.85 -72.3 -72.95 -71.95 M-60.95 -59.8 L-60.95 -28.35 -69.95 -19.25 -69.95 -68.75 -60.95 -59.8 M-19.6 -68.7 L-19.6 -20.05 -28.1 -28.5 -28.1 -60.15 -19.6 -68.7 M-13.5 -74.9 L-13.5 -13.05 -75.25 -13.05 -75.25 -74.9 -13.5 -74.9 M-30.9 -58.0 L-30.9 -30.5 -58.35 -30.5 -58.35 -58.0 -30.9 -58.0 M15.95 -72.3 L15.85 -71.95 15.85 -16.05 15.95 -15.7 16.3 -15.6 72.15 -15.6 72.5 -15.7 72.6 -16.05 72.6 -71.95 72.5 -72.3 72.15 -72.4 16.3 -72.4 15.95 -72.3 M27.85 -59.8 L27.85 -28.35 18.85 -19.25 18.85 -68.75 27.85 -59.8 M69.2 -68.7 L69.2 -20.05 60.7 -28.5 60.7 -60.15 69.2 -68.7 M75.3 -74.9 L75.3 -13.05 13.55 -13.05 13.55 -74.9 75.3 -74.9 M57.9 -58.0 L57.9 -30.5 30.45 -30.5 30.45 -58.0 57.9 -58.0 M15.85 16.05 L15.85 71.95 15.95 72.3 16.3 72.4 72.15 72.4 72.5 72.3 72.6 71.95 72.6 16.05 72.5 15.7 72.15 15.6 16.3 15.6 15.95 15.7 15.85 16.05 M30.45 30.0 L57.9 30.0 57.9 57.5 30.45 57.5 30.45 30.0 M27.85 59.65 L18.85 68.75 18.85 19.25 27.85 28.2 27.85 59.65 M69.2 19.3 L69.2 67.95 60.7 59.5 60.7 27.85 69.2 19.3 M75.3 13.1 L75.3 74.95 13.55 74.95 13.55 13.1 75.3 13.1 M-60.95 28.2 L-60.95 59.65 -69.95 68.75 -69.95 19.25 -60.95 28.2 M-72.95 16.05 L-72.95 71.95 -72.85 72.3 -72.5 72.4 -16.65 72.4 -16.3 72.3 -16.2 71.95 -16.2 16.05 -16.3 15.7 -16.65 15.6 -72.5 15.6 -72.85 15.7 -72.95 16.05 M-58.35 30.0 L-30.9 30.0 -30.9 57.5 -58.35 57.5 -58.35 30.0 M-28.1 27.85 L-19.6 19.3 -19.6 67.95 -28.1 59.5 -28.1 27.85 M-13.5 13.1 L-13.5 74.95 -75.25 74.95 -75.25 13.1 -13.5 13.1 M-16.3 103.7 L-16.65 103.6 -72.5 103.6 -72.85 103.7 -72.95 104.05 -72.95 159.95 -72.85 160.3 -72.5 160.4 -16.65 160.4 -16.3 160.3 -16.2 159.95 -16.2 104.05 -16.3 103.7 M-69.95 156.75 L-69.95 107.25 -60.95 116.2 -60.95 147.65 -69.95 156.75 M-58.35 118.0 L-30.9 118.0 -30.9 145.5 -58.35 145.5 -58.35 118.0 M-28.1 115.85 L-19.6 107.3 -19.6 155.95 -28.1 147.5 -28.1 115.85 M-75.25 162.95 L-75.25 101.1 -13.5 101.1 -13.5 162.95 -75.25 162.95 M72.15 103.6 L16.3 103.6 15.95 103.7 15.85 104.05 15.85 159.95 15.95 160.3 16.3 160.4 72.15 160.4 72.5 160.3 72.6 159.95 72.6 104.05 72.5 103.7 72.15 103.6 M30.45 118.0 L57.9 118.0 57.9 145.5 30.45 145.5 30.45 118.0 M27.85 147.65 L18.85 156.75 18.85 107.25 27.85 116.2 27.85 147.65 M60.7 115.85 L69.2 107.3 69.2 155.95 60.7 147.5 60.7 115.85 M13.55 162.95 L13.55 101.1 75.3 101.1 75.3 162.95 13.55 162.95" fill="#ede9e0" fill-rule="evenodd" stroke="none"/>
    <path d="M28.75 -147.55 L28.75 -147.7 59.0 -147.7 58.2 -146.9 30.0 -146.9 29.7 -146.8 29.65 -146.7 28.75 -147.55 M-60.05 -147.55 L-60.05 -147.7 -29.8 -147.7 -30.6 -146.9 -58.8 -146.9 -59.1 -146.8 -59.15 -146.7 -60.05 -147.55 M-18.85 -106.0 L-17.3 -104.5 -71.45 -104.5 -70.05 -105.9 -19.15 -105.9 Q-18.95 -105.9 -18.85 -106.0 M-59.15 -58.7 L-60.05 -59.55 -60.05 -59.7 -29.8 -59.7 -30.6 -58.9 -58.8 -58.9 -59.1 -58.8 -59.15 -58.7 M71.5 -104.5 L17.35 -104.5 18.75 -105.9 69.65 -105.9 69.95 -106.0 71.5 -104.5 M29.65 -58.7 L28.75 -59.55 28.75 -59.7 59.0 -59.7 58.2 -58.9 30.0 -58.9 29.7 -58.8 29.65 -58.7 M69.95 -18.0 L71.5 -16.5 17.35 -16.5 18.75 -17.9 69.65 -17.9 69.95 -18.0 M29.65 29.3 L28.75 28.45 28.75 28.3 59.0 28.3 58.2 29.1 30.0 29.1 29.7 29.2 29.65 29.3 M-18.85 -18.0 L-17.3 -16.5 -71.45 -16.5 -70.05 -17.9 -19.15 -17.9 Q-18.95 -17.9 -18.85 -18.0 M-59.15 29.3 L-60.05 28.45 -60.05 28.3 -29.8 28.3 -30.6 29.1 -58.8 29.1 -59.1 29.2 -59.15 29.3 M-18.85 70.0 L-17.3 71.5 -71.45 71.5 -70.05 70.1 -19.15 70.1 -18.85 70.0 M-60.05 116.45 L-60.05 116.3 -29.8 116.3 -30.6 117.1 -58.8 117.1 -59.1 117.2 -59.15 117.3 -60.05 116.45 M-70.05 158.1 L-19.15 158.1 -18.85 158.0 -17.3 159.5 -71.45 159.5 -70.05 158.1 M69.95 70.0 L71.5 71.5 17.35 71.5 18.75 70.1 69.65 70.1 69.95 70.0 M28.75 116.45 L28.75 116.3 59.0 116.3 58.2 117.1 30.0 117.1 29.7 117.2 29.65 117.3 28.75 116.45 M18.75 158.1 L69.65 158.1 69.95 158.0 71.5 159.5 17.35 159.5 18.75 158.1" fill="#baad9e" fill-rule="evenodd" stroke="none"/>
    <path d="M19.7 -157.2 L68.4 -157.2 59.9 -148.6 28.35 -148.6 19.7 -157.2 M-69.1 -157.2 L-20.4 -157.2 -28.9 -148.6 -60.45 -148.6 -69.1 -157.2 M-69.1 -69.2 L-20.4 -69.2 -28.9 -60.6 -60.45 -60.6 -69.1 -69.2 M19.7 -69.2 L68.4 -69.2 59.9 -60.6 28.35 -60.6 19.7 -69.2 M19.7 18.8 L68.4 18.8 59.9 27.4 28.35 27.4 19.7 18.8 M-69.1 18.8 L-20.4 18.8 -28.9 27.4 -60.45 27.4 -69.1 18.8 M-28.9 115.4 L-60.45 115.4 -69.1 106.8 -20.4 106.8 -28.9 115.4 M59.9 115.4 L28.35 115.4 19.7 106.8 68.4 106.8 59.9 115.4" fill="#ffffff" fill-rule="evenodd" stroke="none"/>
    <path d="M-19.6 -106.8 L-69.15 -106.8 -60.3 -115.7 -28.55 -115.7 -19.6 -106.8 M60.25 -115.7 L69.2 -106.8 19.65 -106.8 28.5 -115.7 60.25 -115.7 M60.25 -27.7 L69.2 -18.8 19.65 -18.8 28.5 -27.7 60.25 -27.7 M28.5 60.3 L60.25 60.3 69.2 69.2 19.65 69.2 28.5 60.3 M-28.55 -27.7 L-19.6 -18.8 -69.15 -18.8 -60.3 -27.7 -28.55 -27.7 M-60.3 60.3 L-28.55 60.3 -19.6 69.2 -69.15 69.2 -60.3 60.3 M-69.15 157.2 L-60.3 148.3 -28.55 148.3 -19.6 157.2 -69.15 157.2 M19.65 157.2 L28.5 148.3 60.25 148.3 69.2 157.2 19.65 157.2" fill="#cfc2af" fill-rule="evenodd" stroke="none"/>
  </g>
</svg>
