<?xml version="1.0" encoding="UTF-8" standalone="no"?>
<svg xmlns:ffdec="https://www.free-decompiler.com/flash" xmlns:xlink="http://www.w3.org/1999/xlink" ffdec:objectType="shape" height="141.45px" width="87.95px" xmlns="http://www.w3.org/2000/svg">
  <g transform="matrix(1.0, 0.0, 0.0, 1.0, 44.0, 70.75)">
    <path d="M21.7 -43.95 L21.9 -43.7 Q22.65 -40.6 19.7 -39.6 L22.25 -38.05 22.35 -37.0 20.5 -36.9 Q23.35 -33.85 21.8 -29.9 L20.1 -29.6 19.75 -29.8 Q17.55 -31.65 19.05 -33.95 L19.6 -33.95 20.85 -33.4 20.95 -32.0 19.85 -31.35 20.8 -31.0 21.2 -31.6 21.2 -31.95 Q21.15 -34.35 19.45 -36.4 L18.1 -37.95 17.75 -37.45 17.9 -29.55 17.9 -28.2 25.0 -28.0 25.0 -29.15 24.95 -44.1 20.75 -44.65 17.8 -44.65 17.7 -40.6 19.5 -40.65 21.05 -42.65 20.65 -43.0 19.6 -41.45 19.35 -41.15 18.8 -41.55 18.65 -43.6 20.75 -44.65 21.7 -43.95 M9.15 -48.15 Q9.9 -45.85 11.5 -44.4 13.8 -42.3 16.65 -41.1 L16.85 -45.75 26.1 -45.95 26.1 -26.8 16.7 -26.8 16.45 -38.7 Q13.65 -40.1 10.95 -42.0 8.65 -43.65 7.75 -46.5 L6.7 -48.35 Q5.9 -49.35 4.8 -49.65 2.05 -49.75 1.05 -47.05 0.45 -45.5 0.7 -44.15 0.35 -42.8 0.7 -41.65 1.8 -38.1 3.55 -34.75 L3.2 -33.55 3.65 -34.4 3.65 -34.3 3.75 -34.1 Q4.95 -33.35 5.95 -32.2 L8.8 -28.7 Q20.65 -14.05 35.6 -2.55 L43.5 4.1 Q44.15 4.65 43.9 5.4 39.95 7.85 35.4 8.9 L25.05 10.2 16.4 57.7 16.05 67.95 15.35 68.9 Q12.7 69.85 10.1 70.05 0.15 71.3 -9.7 70.15 -12.75 69.95 -15.4 68.9 L-16.15 67.95 Q-15.8 64.15 -16.15 60.35 -16.2 59.65 -16.4 59.0 L-17.8 54.85 -25.15 10.2 Q-30.05 9.95 -34.6 8.7 L-40.7 7.25 Q-42.8 6.6 -44.0 5.15 -43.6 3.6 -42.35 2.65 -31.3 -5.3 -21.7 -15.1 -18.4 -18.4 -15.4 -22.0 -10.55 -27.75 -5.2 -33.05 L-4.05 -34.2 -1.3 -37.3 -2.35 -41.25 Q-2.75 -43.1 -2.05 -44.8 L-0.95 -47.25 -4.55 -49.75 -3.85 -45.6 -5.0 -45.05 -6.15 -45.95 Q-7.55 -47.2 -7.05 -49.2 L-6.75 -50.1 -6.35 -50.85 -5.85 -51.7 Q-6.7 -57.0 -6.6 -62.25 -6.55 -65.95 -4.6 -69.25 -3.75 -70.6 -2.1 -70.75 1.65 -68.55 2.7 -64.2 3.8 -59.45 0.75 -55.9 -0.15 -54.85 -1.35 -54.85 -2.5 -55.55 -3.3 -56.8 -6.1 -61.25 -2.9 -65.55 L-2.35 -65.95 Q-1.35 -65.25 -1.15 -64.35 -0.75 -62.6 -1.05 -60.65 L-1.1 -59.0 -0.85 -57.3 -0.85 -57.45 Q2.5 -60.55 0.55 -65.15 -0.15 -66.8 -1.5 -67.6 L-2.95 -68.35 -4.35 -67.1 Q-6.7 -62.75 -5.75 -57.85 -5.3 -55.5 -4.25 -53.2 L-2.65 -53.65 1.25 -51.65 5.85 -51.5 Q8.3 -50.6 9.15 -48.15 M29.75 -4.85 Q23.85 -9.95 18.45 -15.55 12.8 -21.35 8.0 -27.9 L5.3 -31.1 Q4.4 -32.05 3.2 -32.55 -1.3 -34.35 -4.9 -31.15 -7.05 -29.3 -8.8 -26.95 -14.1 -19.7 -20.4 -13.45 L-34.85 -0.45 -36.85 1.1 Q-28.95 -1.35 -20.45 -1.95 L-4.0 -2.7 Q4.05 -3.1 12.05 -2.55 L28.0 -0.75 33.6 0.25 36.8 1.1 35.35 -0.1 29.75 -4.85 M-2.1 -25.95 L-3.2 -20.9 -5.8 -10.95 Q-6.55 -8.25 -8.35 -6.3 L-11.55 -5.25 -12.15 -7.1 -9.5 -8.95 -2.25 -27.2 -2.1 -25.95 M-25.75 -0.3 L-16.65 54.05 -14.85 58.65 -14.05 57.9 -13.55 57.75 -11.75 57.4 Q-0.8 54.25 10.15 57.05 L13.5 57.75 14.0 57.9 14.8 58.65 15.55 57.3 25.7 -0.3 15.35 -1.3 7.85 -1.9 Q-3.75 -2.75 -15.45 -1.3 L-25.75 -0.3 M-26.95 -0.1 L-35.15 1.35 Q-38.6 1.85 -41.4 3.8 L-42.7 4.75 Q-39.8 6.2 -36.75 7.0 L-29.95 8.5 -25.2 9.55 -26.95 -0.1 M26.85 -0.1 L25.1 9.55 Q33.1 8.5 40.6 5.55 L42.6 4.75 Q39.5 2.25 35.4 1.5 L26.85 -0.1 M14.4 59.4 L14.25 59.25 13.8 58.85 Q10.95 56.85 7.1 56.7 L1.75 56.3 -5.1 56.6 -6.45 56.65 -9.75 57.25 Q-11.4 57.6 -12.75 58.45 L-14.0 59.45 -14.65 60.1 -14.6 60.15 Q-16.25 62.35 -14.9 65.7 -6.35 63.4 2.6 63.75 L9.45 64.8 14.9 65.7 14.8 60.75 14.4 59.4 M11.4 65.9 L10.85 66.2 Q-0.4 69.45 -11.45 65.9 L-14.7 67.15 -14.4 68.05 -7.2 69.0 0.2 69.55 Q7.3 70.05 14.15 68.2 L14.6 67.15 11.4 65.9" fill="#000000" fill-rule="evenodd" stroke="none"/>
    <path d="M20.1 -29.6 L21.8 -29.9 Q23.35 -33.85 20.5 -36.9 L22.35 -37.0 22.25 -38.05 19.7 -39.6 Q22.65 -40.6 21.9 -43.7 L21.7 -43.95 22.45 -43.4 22.45 -29.35 25.0 -29.15 25.0 -28.0 17.9 -28.2 17.9 -29.55 20.1 -29.6 M19.6 -41.45 L20.65 -43.0 21.05 -42.65 19.5 -40.65 19.6 -41.45 M19.6 -33.95 L19.45 -36.4 Q21.15 -34.35 21.2 -31.95 L21.2 -31.6 20.8 -31.0 19.85 -31.35 20.95 -32.0 20.85 -33.4 19.6 -33.95" fill="#333333" fill-rule="evenodd" stroke="none"/>
    <path d="M20.1 -29.6 L17.9 -29.55 17.75 -37.45 18.1 -37.95 19.45 -36.4 19.6 -33.95 19.05 -33.95 Q17.55 -31.65 19.75 -29.8 L20.1 -29.6 M25.0 -29.15 L22.45 -29.35 22.45 -43.4 21.7 -43.95 20.75 -44.65 18.65 -43.6 18.8 -41.55 19.35 -41.15 19.6 -41.45 19.5 -40.65 17.7 -40.6 17.8 -44.65 20.75 -44.65 24.95 -44.1 25.0 -29.15" fill="#666666" fill-rule="evenodd" stroke="none"/>
    <path d="M-20.4 -13.45 Q-14.1 -19.7 -8.8 -26.95 -7.05 -29.3 -4.9 -31.15 -1.3 -34.35 3.2 -32.55 4.4 -32.05 5.3 -31.1 L8.0 -27.9 Q12.8 -21.35 18.45 -15.55 23.85 -9.95 29.75 -4.85 22.4 -8.4 16.35 -14.2 14.0 -16.5 11.9 -19.1 9.15 -22.5 7.15 -26.25 L6.25 -28.3 Q5.8 -29.5 4.65 -29.55 4.3 -29.15 4.3 -28.7 L4.4 -25.35 4.4 -24.45 4.45 -24.0 Q3.35 -22.2 4.45 -20.05 6.7 -15.65 8.4 -11.25 9.3 -8.9 10.5 -6.65 1.1 -7.4 -8.35 -6.3 -6.55 -8.25 -5.8 -10.95 L-3.2 -20.9 -2.1 -25.95 -1.7 -27.3 -0.75 -29.0 -1.0 -30.4 -2.7 -31.4 Q-5.75 -29.95 -6.55 -26.5 -6.85 -25.3 -7.6 -24.3 L-9.7 -21.35 -11.15 -18.75 Q-12.65 -15.95 -15.2 -14.0 L-20.2 -9.65 Q-22.2 -7.8 -24.65 -6.85 L-14.7 -18.35 -20.4 -13.45 M35.35 -0.1 L36.8 1.1 33.6 0.25 28.0 -0.75 12.05 -2.55 Q4.05 -3.1 -4.0 -2.7 L-20.45 -1.95 Q-28.95 -1.35 -36.85 1.1 L-34.85 -0.45 -31.65 -1.5 -30.9 -1.35 -30.05 -2.0 -26.0 -3.1 -18.45 -3.5 -0.55 -4.45 4.65 -4.8 20.6 -2.95 21.35 -2.9 24.7 -2.55 Q30.45 -2.6 35.35 -0.1 M-12.1 -9.75 Q-12.75 -8.45 -13.9 -7.55 L-15.65 -5.85 -18.8 -5.7 -8.35 -17.75 Q-10.05 -13.65 -12.1 -9.75 M9.7 -14.55 Q12.7 -12.6 14.2 -9.45 L14.9 -7.5 Q15.0 -6.95 15.4 -6.45 L15.75 -6.05 13.05 -6.35 9.7 -14.55 M16.3 -10.55 L24.6 -4.95 Q23.25 -4.75 21.95 -5.3 19.25 -6.35 17.05 -8.1 L16.3 -10.55 M12.35 60.75 Q12.0 60.75 11.8 61.3 11.55 61.8 11.55 62.5 L11.8 63.75 Q12.0 64.25 12.35 64.25 12.7 64.25 12.95 63.75 L13.15 62.5 12.95 61.3 Q12.7 60.75 12.35 60.75 M-14.6 60.15 L-14.3 61.05 -12.85 60.55 -12.6 62.85 -12.95 64.8 -10.3 64.25 -10.8 63.45 -10.7 60.9 -10.4 59.2 Q-0.3 56.55 9.95 59.1 11.75 59.65 13.2 60.75 L13.5 60.6 14.15 60.3 14.4 60.1 14.45 59.75 14.4 59.4 14.8 60.75 14.9 65.7 9.45 64.8 2.6 63.75 Q-6.35 63.4 -14.9 65.7 -16.25 62.35 -14.6 60.15 M14.25 59.25 L7.1 56.7 Q10.95 56.85 13.8 58.85 L14.25 59.25 M-5.1 56.6 Q-8.85 57.15 -12.4 58.55 -13.3 58.8 -14.0 59.45 L-12.75 58.45 Q-11.4 57.6 -9.75 57.25 L-6.45 56.65 -5.1 56.6 M11.4 65.9 L14.6 67.15 14.15 68.2 Q7.3 70.05 0.2 69.55 L-7.2 69.0 -14.4 68.05 -14.7 67.15 -11.45 65.9 Q-0.4 69.45 10.85 66.2 L11.4 65.9" fill="#6d6c29" fill-rule="evenodd" stroke="none"/>
    <path d="M-20.4 -13.45 L-14.7 -18.35 -24.65 -6.85 Q-22.2 -7.8 -20.2 -9.65 L-15.2 -14.0 Q-12.65 -15.95 -11.15 -18.75 L-9.7 -21.35 -7.6 -24.3 Q-6.85 -25.3 -6.55 -26.5 -5.75 -29.95 -2.7 -31.4 L-1.0 -30.4 -0.75 -29.0 -1.7 -27.3 -2.1 -25.95 -2.25 -27.2 -9.5 -8.95 -12.15 -7.1 -11.55 -5.25 -8.35 -6.3 Q1.1 -7.4 10.5 -6.65 9.3 -8.9 8.4 -11.25 6.7 -15.65 4.45 -20.05 3.35 -22.2 4.45 -24.0 L4.4 -24.45 4.4 -25.35 4.3 -28.7 Q4.3 -29.15 4.65 -29.55 5.8 -29.5 6.25 -28.3 L7.15 -26.25 Q9.15 -22.5 11.9 -19.1 14.0 -16.5 16.35 -14.2 22.4 -8.4 29.75 -4.85 L35.35 -0.1 Q30.45 -2.6 24.7 -2.55 L21.35 -2.9 20.6 -2.95 4.65 -4.8 -0.55 -4.45 -18.45 -3.5 -26.0 -3.1 -30.05 -2.0 -30.9 -1.35 -31.65 -1.5 -34.85 -0.45 -20.4 -13.45 M-12.1 -9.75 Q-10.05 -13.65 -8.35 -17.75 L-18.8 -5.7 -15.65 -5.85 -13.9 -7.55 Q-12.75 -8.45 -12.1 -9.75 M16.3 -10.55 L17.05 -8.1 Q19.25 -6.35 21.95 -5.3 23.25 -4.75 24.6 -4.95 L16.3 -10.55 M9.7 -14.55 L13.05 -6.35 15.75 -6.05 15.4 -6.45 Q15.0 -6.95 14.9 -7.5 L14.2 -9.45 Q12.7 -12.6 9.7 -14.55 M14.4 59.4 L14.45 59.75 14.4 60.1 14.15 60.3 13.5 60.6 13.2 60.75 Q11.75 59.65 9.95 59.1 -0.3 56.55 -10.4 59.2 L-10.7 60.9 -10.8 63.45 -10.3 64.25 -12.95 64.8 -12.6 62.85 -12.85 60.55 -14.3 61.05 -14.6 60.15 -14.65 60.1 -14.0 59.45 Q-13.3 58.8 -12.4 58.55 -8.85 57.15 -5.1 56.6 L1.75 56.3 7.1 56.7 14.25 59.25 14.4 59.4 M12.35 60.75 Q12.7 60.75 12.95 61.3 L13.15 62.5 12.95 63.75 Q12.7 64.25 12.35 64.25 12.0 64.25 11.8 63.75 L11.55 62.5 Q11.55 61.8 11.8 61.3 12.0 60.75 12.35 60.75" fill="#d0cf84" fill-rule="evenodd" stroke="none"/>
    <path d="M-26.95 -0.1 L-25.2 9.55 -29.95 8.5 -36.75 7.0 Q-39.8 6.2 -42.7 4.75 L-41.4 3.8 Q-38.6 1.85 -35.15 1.35 L-26.95 -0.1 M26.85 -0.1 L35.4 1.5 Q39.5 2.25 42.6 4.75 L40.6 5.55 Q33.1 8.5 25.1 9.55 L26.85 -0.1" fill="#f1f0dc" fill-rule="evenodd" stroke="none"/>
    <path d="M-25.75 -0.3 L-15.45 -1.3 Q-3.75 -2.75 7.85 -1.9 L15.35 -1.3 25.7 -0.3 15.55 57.3 14.8 58.65 14.0 57.9 13.5 57.75 10.15 57.05 Q-0.8 54.25 -11.75 57.4 L-13.55 57.75 -14.05 57.9 -14.85 58.65 -16.65 54.05 -25.75 -0.3" fill="url(#gradient0)" fill-rule="evenodd" stroke="none"/>
  </g>
  <defs>
    <radialGradient cx="0" cy="0" gradientTransform="matrix(0.0964, 0.0, 0.0, 0.0964, -0.4, 25.6)" gradientUnits="userSpaceOnUse" id="gradient0" r="819.2" spreadMethod="pad">
      <stop offset="0.0" stop-color="#ffffff"/>
      <stop offset="1.0" stop-color="#ffff00"/>
    </radialGradient>
  </defs>
</svg>
