<?xml version="1.0" encoding="UTF-8" standalone="no"?>
<svg xmlns:ffdec="https://www.free-decompiler.com/flash" xmlns:xlink="http://www.w3.org/1999/xlink" ffdec:objectType="shape" height="304.25px" width="156.2px" xmlns="http://www.w3.org/2000/svg">
  <g transform="matrix(1.0, 0.0, 0.0, 1.0, 78.1, 152.1)">
    <path d="M28.8 -151.8 Q31.1 -152.6 32.55 -151.2 38.6 -145.1 38.9 -136.15 39.0 -133.05 39.8 -130.1 53.3 -118.0 58.45 -100.05 L71.25 -55.75 Q72.7 -51.4 74.45 -47.2 L77.15 -40.15 Q78.85 -35.7 77.45 -31.1 75.65 -25.05 70.6 -21.35 66.2 -18.15 61.25 -15.7 57.75 -13.9 54.1 -12.7 L47.5 -10.4 45.4 1.0 43.05 12.5 41.55 21.0 39.35 32.15 Q38.5 36.0 38.15 40.0 L37.95 42.7 Q37.65 43.2 37.6 44.0 37.4 47.55 37.45 51.15 37.7 60.55 38.95 70.0 40.7 83.1 40.3 96.4 39.9 110.1 36.8 123.35 33.95 135.3 31.65 147.5 L31.3 150.4 30.85 150.9 21.4 150.65 8.3 151.1 -4.1 152.05 Q-8.75 152.3 -13.4 151.95 L-20.5 151.05 -21.95 150.65 Q-23.35 144.45 -25.45 138.45 L-27.7 131.7 -26.65 134.25 -30.2 123.35 Q-31.7 118.6 -33.75 113.9 L-37.15 106.25 Q-38.5 103.35 -39.25 100.05 -40.2 95.95 -41.45 91.8 -42.95 86.65 -43.75 81.4 -44.7 75.05 -44.7 68.8 -44.7 62.05 -46.2 55.6 -47.2 51.2 -48.6 46.9 -49.8 43.15 -51.15 39.4 L-54.45 30.35 -57.7 20.7 -59.85 13.05 -60.95 8.65 -62.8 1.35 Q-64.1 -4.2 -64.95 -9.85 L-65.55 -11.9 Q-68.45 -15.15 -71.9 -18.15 -77.85 -23.5 -78.05 -31.3 -78.35 -45.55 -76.25 -59.5 -74.05 -74.1 -73.1 -89.55 -72.2 -104.8 -68.3 -119.35 -67.55 -122.05 -67.55 -124.8 -67.45 -134.95 -58.9 -140.65 -57.35 -141.65 -55.6 -142.2 -34.65 -149.0 -12.55 -147.25 -1.6 -146.8 8.9 -144.35 18.65 -148.65 28.8 -151.8 M36.5 -132.55 L38.5 -131.3 Q37.75 -134.1 37.8 -136.95 38.0 -145.65 31.45 -150.6 21.55 -148.9 12.05 -145.05 9.0 -143.85 11.75 -143.8 L16.7 -142.1 Q21.9 -140.2 27.05 -137.75 31.95 -135.35 36.5 -132.55 M-71.2 -95.0 Q-71.95 -89.2 -72.25 -83.2 -72.5 -78.35 -73.15 -73.45 -76.2 -51.2 -76.45 -29.7 -76.5 -26.65 -75.1 -23.85 -71.45 -16.7 -63.75 -13.65 L-62.9 -13.2 Q-57.8 -10.65 -52.35 -9.15 L-40.0 -6.65 -25.8 -5.4 Q-15.9 -4.75 -6.1 -5.25 L4.7 -5.6 25.05 -8.2 Q31.1 -9.1 36.85 -10.5 42.7 -11.9 48.35 -13.7 L52.45 -15.0 Q56.8 -16.15 60.85 -17.9 66.2 -20.15 70.3 -24.1 73.6 -27.2 75.8 -31.15 76.2 -31.85 76.25 -32.7 76.5 -37.0 74.9 -40.9 73.55 -44.3 72.45 -47.85 L70.55 -54.35 70.25 -55.35 Q64.1 -74.85 59.25 -94.85 53.55 -118.35 34.25 -132.5 28.45 -136.75 21.3 -138.9 23.75 -135.4 24.15 -130.85 L24.2 -128.4 Q22.4 -117.5 15.25 -108.85 L6.3 -98.45 Q-4.2 -86.5 -19.55 -82.4 -27.5 -80.3 -35.6 -81.85 -44.35 -83.3 -50.7 -89.4 -37.45 -79.1 -20.9 -83.0 -4.1 -86.95 7.35 -100.1 10.35 -103.5 12.25 -107.45 1.35 -103.2 -9.9 -100.55 -17.45 -98.8 -25.35 -98.95 L-32.35 -99.45 Q-16.3 -98.7 -0.95 -103.65 -20.25 -100.1 -39.65 -101.2 -44.05 -101.8 -48.25 -103.0 -57.5 -105.9 -64.55 -112.55 -56.75 -99.15 -41.6 -95.15 -34.85 -93.25 -27.7 -93.25 -21.05 -93.65 -14.4 -95.5 L-5.35 -97.95 -5.3 -97.95 0.55 -100.6 Q-11.7 -93.45 -25.85 -92.6 -41.3 -92.4 -54.15 -100.65 -63.15 -106.4 -67.1 -115.7 L-71.2 -95.0 M13.0 -140.85 L10.35 -142.2 Q-4.05 -146.65 -19.3 -146.4 L-40.0 -145.5 Q-53.35 -144.9 -61.9 -135.85 -65.15 -132.35 -64.3 -127.6 L-64.25 -127.45 -63.1 -123.65 -62.95 -123.3 -61.6 -121.2 Q-58.7 -117.5 -52.9 -116.25 -34.2 -112.2 -14.95 -114.5 L4.65 -116.6 Q15.35 -118.2 18.1 -128.8 20.1 -136.6 13.0 -140.85 M20.2 -119.2 Q24.75 -128.7 19.55 -139.3 L15.3 -141.7 Q18.3 -139.15 19.25 -134.4 20.2 -129.85 18.25 -125.5 17.2 -122.7 15.1 -120.3 12.05 -116.9 7.6 -115.7 L-0.6 -114.9 -7.4 -113.65 -19.2 -112.45 -31.0 -112.35 -42.8 -113.4 Q-48.5 -114.0 -53.9 -115.9 -59.85 -117.8 -64.05 -122.45 -65.15 -124.05 -65.65 -126.0 -67.55 -118.7 -63.85 -113.6 -60.95 -111.15 -57.8 -109.0 -55.8 -107.6 -53.5 -106.6 -48.25 -104.25 -42.6 -103.15 -36.85 -102.0 -31.05 -102.15 L-19.4 -102.45 -8.1 -103.4 2.95 -105.35 Q8.05 -106.35 12.3 -109.55 17.45 -113.35 20.2 -119.2 M44.4 -4.55 L44.6 -9.5 Q35.4 -6.85 26.15 -5.4 L18.15 -4.35 6.75 -3.4 -0.65 -2.1 Q-2.4 6.1 -1.8 14.5 L-1.8 14.65 -1.8 23.4 -1.85 30.85 Q-1.9 33.0 -2.25 35.1 -2.75 38.2 -3.65 41.3 -4.75 45.15 -4.85 49.3 -4.95 53.75 -4.25 58.25 L-4.15 58.9 -2.85 65.9 -2.6 66.95 Q-1.15 72.95 -0.8 79.1 -0.4 85.8 -1.0 92.75 L-1.75 103.5 -2.05 114.15 -2.2 126.15 -2.35 133.85 -2.4 145.7 -2.5 149.6 -0.6 149.75 -0.55 149.75 7.65 149.4 15.75 149.0 Q22.55 148.5 29.3 148.95 L29.35 148.75 34.75 123.3 Q37.6 109.95 38.7 96.3 39.3 88.65 38.45 81.0 L35.3 52.85 Q35.15 48.45 35.5 44.1 35.9 39.1 36.9 34.2 37.7 30.15 38.85 26.2 40.0 22.2 40.55 18.2 L41.8 8.9 Q42.35 4.8 43.45 0.75 L44.25 -3.3 44.4 -4.5 44.4 -4.55 M-15.25 12.1 L-17.6 -2.2 Q-33.3 -3.45 -49.1 -6.3 L-51.55 -6.9 Q-53.65 -7.5 -55.7 -8.25 L-60.75 -9.75 -62.4 -9.95 -61.25 -2.05 -60.8 0.1 -60.45 1.6 -59.15 7.25 Q-58.0 12.3 -56.25 17.35 L-53.0 26.25 Q-51.25 30.8 -50.0 35.35 L-47.8 42.45 -45.6 49.4 Q-44.35 53.7 -43.75 58.15 -43.15 62.8 -43.05 67.55 -43.0 72.1 -42.45 76.4 L-41.55 83.25 -40.5 89.05 Q-39.4 94.05 -37.7 99.0 L-34.1 108.65 -30.7 117.55 -27.75 125.7 Q-26.15 130.1 -24.95 134.65 -23.4 140.4 -20.85 145.8 L-20.15 147.25 -19.2 149.2 -4.05 150.05 -3.9 150.05 -4.05 149.6 -4.0 149.35 Q-3.05 143.15 -3.65 136.9 L-4.2 126.05 -4.3 114.85 -4.45 105.95 -4.85 95.4 -5.45 86.15 Q-6.0 79.55 -6.05 73.0 L-6.05 65.2 -6.05 65.15 Q-6.15 62.75 -6.4 60.4 -7.0 54.1 -8.4 48.25 -9.35 44.15 -10.7 40.05 -12.05 35.85 -12.75 31.5 L-14.1 21.1 -15.0 13.75 -15.25 12.15 -15.25 12.1 M-10.0 -1.75 L-11.35 -2.2 Q-12.9 -1.7 -14.85 -2.15 -15.15 3.7 -14.15 9.65 L-13.35 15.45 -12.6 22.3 Q-12.0 27.25 -11.0 31.95 -9.85 37.3 -8.25 42.45 L-6.4 48.3 -4.1 38.9 Q-2.95 34.35 -3.0 29.4 L-3.15 20.9 -3.3 7.2 -3.3 -1.1 -3.4 -1.95 -8.7 -1.75 -10.0 -1.75 M-2.75 78.7 L-3.6 76.7 -2.7 88.55 -2.4 86.6 Q-1.55 82.6 -2.75 78.7" fill="#000000" fill-rule="evenodd" stroke="none"/>
    <path d="M36.5 -132.55 L36.2 -133.5 36.35 -134.5 36.05 -135.0 Q35.1 -139.1 33.1 -143.0 32.3 -144.55 30.5 -145.1 28.35 -145.75 26.05 -145.05 L20.55 -143.75 Q18.55 -143.25 16.7 -142.1 L11.75 -143.8 Q9.0 -143.85 12.05 -145.05 21.55 -148.9 31.45 -150.6 38.0 -145.65 37.8 -136.95 37.75 -134.1 38.5 -131.3 L36.5 -132.55 M24.2 -128.4 L24.15 -130.85 Q23.75 -135.4 21.3 -138.9 28.45 -136.75 34.25 -132.5 53.55 -118.35 59.25 -94.85 64.1 -74.85 70.25 -55.35 L70.55 -54.35 72.45 -47.85 Q73.55 -44.3 74.9 -40.9 76.5 -37.0 76.25 -32.7 76.2 -31.85 75.8 -31.15 73.6 -27.2 70.3 -24.1 66.2 -20.15 60.85 -17.9 56.8 -16.15 52.45 -15.0 L48.35 -13.7 Q42.7 -11.9 36.85 -10.5 31.1 -9.1 25.05 -8.2 L4.7 -5.6 -6.1 -5.25 Q-15.9 -4.75 -25.8 -5.4 L-40.0 -6.65 -52.35 -9.15 Q-57.8 -10.65 -62.9 -13.2 L-63.75 -13.65 Q-71.45 -16.7 -75.1 -23.85 -76.5 -26.65 -76.45 -29.7 -76.2 -51.2 -73.15 -73.45 -72.5 -78.35 -72.25 -83.2 -71.95 -89.2 -71.2 -95.0 -66.95 -79.8 -55.3 -68.65 -50.95 -64.5 -45.95 -61.4 -31.95 -52.95 -15.5 -54.0 -2.45 -55.2 9.35 -60.95 13.8 -63.05 18.55 -64.55 31.05 -68.65 42.1 -75.85 L13.45 -66.85 46.95 -89.9 46.1 -91.25 23.55 -81.7 Q35.65 -92.7 45.35 -105.8 45.8 -106.4 45.75 -107.25 45.65 -111.1 42.7 -112.05 L42.45 -112.0 42.25 -112.45 42.2 -112.65 42.1 -112.65 32.75 -98.8 Q38.25 -107.6 39.3 -117.95 L39.05 -119.4 38.1 -120.5 25.0 -98.1 Q30.1 -109.95 33.3 -122.5 L33.45 -124.1 25.55 -131.55 24.2 -128.4 M-5.3 -97.95 L-5.35 -97.95 -5.35 -98.0 -5.3 -97.95 M18.25 -125.5 Q20.2 -129.85 19.25 -134.4 18.3 -139.15 15.3 -141.7 L19.55 -139.3 Q24.75 -128.7 20.2 -119.2 L18.25 -125.5 M26.45 -57.55 L31.85 -62.4 34.6 -64.75 Q30.05 -62.2 25.95 -58.95 L20.75 -55.05 16.85 -52.4 12.2 -49.5 8.0 -47.35 1.0 -44.1 Q-2.4 -42.55 -5.85 -41.25 L-10.6 -39.5 -15.6 -38.15 -20.65 -37.05 -25.75 -36.95 -30.95 -37.45 -33.3 -38.15 Q-35.05 -38.75 -36.4 -37.55 L-36.95 -36.4 Q-32.1 -33.0 -26.15 -32.1 L-19.5 -31.25 Q-14.25 -31.9 -9.15 -33.4 -4.4 -34.7 -0.05 -37.2 L6.35 -41.1 Q7.9 -42.05 9.4 -43.15 L15.3 -47.7 20.9 -52.55 26.45 -57.55 M-66.8 -78.9 L-66.7 -78.05 Q-66.05 -75.1 -64.3 -72.25 L-60.7 -66.85 -56.95 -62.05 Q-54.3 -58.95 -51.3 -56.25 -48.4 -53.65 -45.1 -51.6 -41.9 -49.65 -38.45 -48.15 -34.9 -46.6 -31.3 -45.8 -26.15 -44.5 -20.8 -44.3 L-13.85 -44.6 Q-8.5 -45.15 -3.5 -46.9 L-10.65 -45.8 -20.15 -46.1 -25.45 -47.05 -30.1 -48.3 Q-34.75 -49.9 -39.4 -52.2 L-45.25 -55.8 Q-49.95 -59.1 -54.0 -63.25 -57.95 -67.35 -61.4 -71.9 L-66.05 -78.1 -66.8 -78.9" fill="#454262" fill-rule="evenodd" stroke="none"/>
    <path d="M16.7 -142.1 Q18.55 -143.25 20.55 -143.75 L26.05 -145.05 Q28.35 -145.75 30.5 -145.1 32.3 -144.55 33.1 -143.0 35.1 -139.1 36.05 -135.0 L36.35 -134.5 36.2 -133.5 36.5 -132.55 Q31.95 -135.35 27.05 -137.75 21.9 -140.2 16.7 -142.1 M24.2 -128.4 L25.55 -131.55 33.45 -124.1 33.3 -122.5 Q30.1 -109.95 25.0 -98.1 L38.1 -120.5 39.05 -119.4 39.3 -117.95 Q38.25 -107.6 32.75 -98.8 L42.1 -112.65 42.2 -112.65 42.25 -112.45 42.45 -112.0 42.7 -112.05 Q45.65 -111.1 45.75 -107.25 45.8 -106.4 45.35 -105.8 35.65 -92.7 23.55 -81.7 L46.1 -91.25 46.95 -89.9 13.45 -66.85 42.1 -75.85 Q31.05 -68.65 18.55 -64.55 13.8 -63.05 9.35 -60.95 -2.45 -55.2 -15.5 -54.0 -31.95 -52.95 -45.95 -61.4 -50.95 -64.5 -55.3 -68.65 -66.95 -79.8 -71.2 -95.0 L-67.1 -115.7 Q-63.15 -106.4 -54.15 -100.65 -41.3 -92.4 -25.85 -92.6 -11.7 -93.45 0.55 -100.6 L-5.3 -97.95 -5.35 -98.0 -5.35 -97.95 -14.4 -95.5 Q-21.05 -93.65 -27.7 -93.25 -34.85 -93.25 -41.6 -95.15 -56.75 -99.15 -64.55 -112.55 -57.5 -105.9 -48.25 -103.0 -44.05 -101.8 -39.65 -101.2 -20.25 -100.1 -0.95 -103.65 -16.3 -98.7 -32.35 -99.45 L-25.35 -98.95 Q-17.45 -98.8 -9.9 -100.55 1.35 -103.2 12.25 -107.45 10.35 -103.5 7.35 -100.1 -4.1 -86.95 -20.9 -83.0 -37.45 -79.1 -50.7 -89.4 -44.35 -83.3 -35.6 -81.85 -27.5 -80.3 -19.55 -82.4 -4.2 -86.5 6.3 -98.45 L15.25 -108.85 Q22.4 -117.5 24.2 -128.4 M13.0 -140.85 Q20.1 -136.6 18.1 -128.8 15.35 -118.2 4.65 -116.6 L-14.95 -114.5 Q-34.2 -112.2 -52.9 -116.25 -58.7 -117.5 -61.6 -121.2 L-62.95 -123.3 -63.1 -123.65 -64.25 -127.45 -64.3 -127.6 Q-65.15 -132.35 -61.9 -135.85 -53.35 -144.9 -40.0 -145.5 L-19.3 -146.4 Q-4.05 -146.65 10.35 -142.2 L13.0 -140.85 M18.25 -125.5 L20.2 -119.2 Q17.45 -113.35 12.3 -109.55 8.05 -106.35 2.95 -105.35 L-8.1 -103.4 -19.4 -102.45 -31.05 -102.15 Q-36.85 -102.0 -42.6 -103.15 -48.25 -104.25 -53.5 -106.6 -55.8 -107.6 -57.8 -109.0 -60.95 -111.15 -63.85 -113.6 -67.55 -118.7 -65.65 -126.0 -65.15 -124.05 -64.05 -122.45 -59.85 -117.8 -53.9 -115.9 -48.5 -114.0 -42.8 -113.4 L-31.0 -112.35 -19.2 -112.45 -7.4 -113.65 -0.6 -114.9 7.6 -115.7 Q12.05 -116.9 15.1 -120.3 17.2 -122.7 18.25 -125.5 M26.45 -57.55 L20.9 -52.55 15.3 -47.7 9.4 -43.15 Q7.9 -42.05 6.35 -41.1 L-0.05 -37.2 Q-4.4 -34.7 -9.15 -33.4 -14.25 -31.9 -19.5 -31.25 L-26.15 -32.1 Q-32.1 -33.0 -36.95 -36.4 L-36.4 -37.55 Q-35.05 -38.75 -33.3 -38.15 L-30.95 -37.45 -25.75 -36.95 -20.65 -37.05 -15.6 -38.15 -10.6 -39.5 -5.85 -41.25 Q-2.4 -42.55 1.0 -44.1 L8.0 -47.35 12.2 -49.5 16.85 -52.4 20.75 -55.05 25.95 -58.95 Q30.05 -62.2 34.6 -64.75 L31.85 -62.4 26.45 -57.55 M-66.8 -78.9 L-66.05 -78.1 -61.4 -71.9 Q-57.95 -67.35 -54.0 -63.25 -49.95 -59.1 -45.25 -55.8 L-39.4 -52.2 Q-34.75 -49.9 -30.1 -48.3 L-25.45 -47.05 -20.15 -46.1 -10.65 -45.8 -3.5 -46.9 Q-8.5 -45.15 -13.85 -44.6 L-20.8 -44.3 Q-26.15 -44.5 -31.3 -45.8 -34.9 -46.6 -38.45 -48.15 -41.9 -49.65 -45.1 -51.6 -48.4 -53.65 -51.3 -56.25 -54.3 -58.95 -56.95 -62.05 L-60.7 -66.85 -64.3 -72.25 Q-66.05 -75.1 -66.7 -78.05 L-66.8 -78.9" fill="#242435" fill-rule="evenodd" stroke="none"/>
    <path d="M-1.8 14.5 L-1.75 14.55 -1.8 14.65 -1.8 14.5 M-6.05 65.15 L-6.05 65.2 -6.2 65.2 -6.05 65.15" fill="#edb192" fill-rule="evenodd" stroke="none"/>
    <path d="M44.4 -4.5 L44.3 -4.55 44.4 -4.55 44.4 -4.5 M-15.25 12.1 L-15.25 12.15 -15.3 12.1 -15.25 12.1 M-4.05 149.6 L-3.9 150.05 -4.05 150.05 -4.05 149.6" fill="#ffe3d5" fill-rule="evenodd" stroke="none"/>
    <path d="M-1.75 14.55 L-0.25 11.7 Q0.75 9.65 1.9 7.65 2.45 6.8 3.25 6.1 4.05 5.3 5.0 5.0 L15.1 2.7 26.65 0.6 37.95 -1.8 44.25 -3.3 43.45 0.75 Q42.35 4.8 41.8 8.9 L40.55 18.2 Q40.0 22.2 38.85 26.2 37.7 30.15 36.9 34.2 35.9 39.1 35.5 44.1 35.15 48.45 35.3 52.85 L38.45 81.0 Q39.3 88.65 38.7 96.3 37.6 109.95 34.75 123.3 L29.35 148.75 29.3 148.95 Q22.55 148.5 15.75 149.0 L7.65 149.4 -0.55 149.75 -0.6 149.75 Q0.25 144.15 0.75 138.3 L1.7 125.45 2.2 115.1 2.5 107.1 2.9 96.5 3.15 83.6 3.0 75.5 Q2.95 74.75 2.55 74.25 L0.35 71.05 -1.85 67.8 -2.6 66.95 -2.85 65.9 -4.15 58.9 -4.25 58.25 Q-4.95 53.75 -4.85 49.3 -4.75 45.15 -3.65 41.3 -2.75 38.2 -2.25 35.1 -1.9 33.0 -1.85 30.85 L-1.8 23.4 -1.8 14.65 -1.75 14.55 M15.0 68.95 L15.1 65.8 9.55 73.75 10.2 75.35 11.7 75.8 Q13.3 74.95 14.05 73.05 14.8 71.1 15.0 68.95 M-15.0 13.75 L-14.1 21.1 -12.75 31.5 Q-12.05 35.85 -10.7 40.05 -9.35 44.15 -8.4 48.25 -7.0 54.1 -6.4 60.4 -6.15 62.75 -6.05 65.15 L-6.2 65.2 -7.55 68.4 Q-8.05 70.15 -8.9 71.75 -10.3 74.5 -10.2 77.55 L-9.75 85.2 -8.5 98.05 -7.45 108.4 -6.6 118.7 -5.7 128.95 -4.8 139.15 -4.0 149.35 -4.05 149.6 -4.05 150.05 -19.2 149.2 -20.15 147.25 -20.85 145.8 Q-23.4 140.4 -24.95 134.65 -26.15 130.1 -27.75 125.7 L-30.7 117.55 -34.1 108.65 -37.7 99.0 Q-39.4 94.05 -40.5 89.05 L-41.55 83.25 -42.45 76.4 Q-43.0 72.1 -43.05 67.55 -43.15 62.8 -43.75 58.15 -44.35 53.7 -45.6 49.4 L-47.8 42.45 -50.0 35.35 Q-51.25 30.8 -53.0 26.25 L-56.25 17.35 Q-58.0 12.3 -59.15 7.25 L-60.45 1.6 -60.8 0.1 -61.25 -2.05 -59.55 -1.85 Q-53.4 0.5 -47.2 1.9 -41.05 3.25 -34.7 3.65 L-27.25 4.15 Q-20.2 5.15 -16.6 11.25 L-15.8 12.75 -15.7 12.85 -15.0 13.75 M-24.8 68.6 L-24.45 74.7 -19.9 78.65 -19.6 78.7 -19.0 78.7 -18.2 78.55 Q-17.3 78.3 -16.95 77.45 -21.2 74.15 -24.15 69.7 L-24.8 68.6" fill="#998b77" fill-rule="evenodd" stroke="none"/>
    <path d="M-1.8 14.5 Q-2.4 6.1 -0.65 -2.1 L6.75 -3.4 18.15 -4.35 26.15 -5.4 Q35.4 -6.85 44.6 -9.5 L44.4 -4.55 44.3 -4.55 44.4 -4.5 44.25 -3.3 37.95 -1.8 26.65 0.6 15.1 2.7 5.0 5.0 Q4.05 5.3 3.25 6.1 2.45 6.8 1.9 7.65 0.75 9.65 -0.25 11.7 L-1.75 14.55 -1.8 14.5 M15.0 68.95 Q14.8 71.1 14.05 73.05 13.3 74.95 11.7 75.8 L10.2 75.35 9.55 73.75 15.1 65.8 15.0 68.95 M-2.6 66.95 L-1.85 67.8 0.35 71.05 2.55 74.25 Q2.95 74.75 3.0 75.5 L3.15 83.6 2.9 96.5 2.5 107.1 2.2 115.1 1.7 125.45 0.75 138.3 Q0.25 144.15 -0.6 149.75 L-2.5 149.6 -2.4 145.7 -2.35 133.85 -2.2 126.15 -2.05 114.15 -1.75 103.5 -1.0 92.75 Q-0.4 85.8 -0.8 79.1 -1.15 72.95 -2.6 66.95 M-61.25 -2.05 L-62.4 -9.95 -60.75 -9.75 -55.7 -8.25 Q-53.65 -7.5 -51.55 -6.9 L-49.1 -6.3 Q-33.3 -3.45 -17.6 -2.2 L-15.25 12.1 -15.3 12.1 -15.25 12.15 -15.0 13.75 -15.7 12.85 -15.8 12.75 -16.6 11.25 Q-20.2 5.15 -27.25 4.15 L-34.7 3.65 Q-41.05 3.25 -47.2 1.9 -53.4 0.5 -59.55 -1.85 L-61.25 -2.05 M-6.05 65.2 L-6.05 73.0 Q-6.0 79.55 -5.45 86.15 L-4.85 95.4 -4.45 105.95 -4.3 114.85 -4.2 126.05 -3.65 136.9 Q-3.05 143.15 -4.0 149.35 L-4.8 139.15 -5.7 128.95 -6.6 118.7 -7.45 108.4 -8.5 98.05 -9.75 85.2 -10.2 77.55 Q-10.3 74.5 -8.9 71.75 -8.05 70.15 -7.55 68.4 L-6.2 65.2 -6.05 65.2 M-24.8 68.6 L-24.15 69.7 Q-21.2 74.15 -16.95 77.45 -17.3 78.3 -18.2 78.55 L-19.0 78.7 -19.6 78.7 -19.9 78.65 -24.45 74.7 -24.8 68.6" fill="#5e5446" fill-rule="evenodd" stroke="none"/>
  </g>
</svg>
