<?xml version="1.0" encoding="UTF-8" standalone="no"?>
<svg xmlns:ffdec="https://www.free-decompiler.com/flash" xmlns:xlink="http://www.w3.org/1999/xlink" ffdec:objectType="shape" height="143.4px" width="160.35px" xmlns="http://www.w3.org/2000/svg">
  <g transform="matrix(1.0, 0.0, 0.0, 1.0, 95.05, 86.1)">
    <path d="M-53.7 -28.85 Q-52.3 -33.5 -54.7 -38.3 L-57.65 -44.1 -63.0 -54.5 Q-64.45 -57.65 -65.5 -61.2 -63.75 -56.8 -61.2 -52.6 -61.45 -56.1 -62.35 -59.45 -63.5 -63.95 -65.15 -68.4 L-66.25 -71.6 Q-67.25 -74.95 -69.9 -77.15 L-70.65 -77.25 -71.65 -77.0 Q-75.35 -75.0 -78.65 -72.25 -76.1 -75.85 -72.3 -77.95 L-73.4 -78.25 Q-76.7 -78.3 -79.55 -76.5 -83.4 -73.95 -85.45 -69.75 -88.4 -64.9 -89.75 -59.55 L-92.05 -50.5 Q-93.35 -45.5 -94.05 -40.3 -94.8 -34.6 -92.15 -29.85 L-90.75 -27.7 -90.25 -27.1 -89.7 -26.45 -89.6 -26.35 -89.55 -26.3 Q-85.65 -21.95 -80.65 -18.8 L-76.25 -19.8 Q-74.55 -20.25 -72.8 -21.1 -74.85 -22.8 -76.1 -24.95 -78.85 -29.5 -82.65 -32.5 L-82.75 -32.0 -81.65 -29.85 Q-79.75 -25.95 -76.65 -22.9 L-76.0 -22.25 -77.2 -22.9 Q-78.15 -23.5 -78.9 -24.3 -82.35 -28.35 -83.6 -33.35 L-83.0 -33.7 -82.65 -33.75 -82.35 -33.5 -74.5 -24.45 -73.4 -23.2 -73.0 -22.7 -71.95 -21.8 Q-68.8 -21.95 -66.0 -22.9 L-64.95 -24.1 -63.75 -25.55 -63.15 -26.35 Q-60.6 -29.8 -56.8 -31.45 L-56.45 -31.05 -56.4 -31.0 -56.4 -30.9 -56.75 -30.6 -57.05 -30.45 -57.25 -30.35 -57.3 -30.35 Q-59.7 -29.4 -61.45 -26.75 L-61.6 -26.5 -63.05 -24.7 -64.75 -23.2 -65.85 -22.45 -66.0 -22.35 -56.45 -23.8 -56.15 -24.2 -55.9 -24.55 -54.4 -27.05 -54.05 -27.9 -54.0 -27.9 -53.7 -28.85 M-75.05 46.5 L-72.9 36.1 Q-74.95 36.75 -76.9 36.15 L-78.15 35.55 -78.9 33.5 Q-79.1 32.7 -78.85 31.9 -78.4 30.35 -76.95 29.5 L-73.6 27.55 -74.95 19.65 -76.05 14.5 -78.55 2.6 -80.35 -7.85 Q-80.85 -11.45 -81.6 -14.95 L-81.9 -16.4 Q-85.95 -17.4 -89.0 -19.95 -89.75 -20.5 -89.9 -21.45 -90.45 -25.05 -92.15 -28.15 -94.1 -31.65 -94.85 -35.35 -95.2 -37.2 -95.0 -39.35 -94.6 -43.4 -93.45 -47.35 -92.35 -51.3 -91.6 -55.4 -90.45 -61.95 -87.65 -67.75 -86.2 -70.85 -83.75 -73.6 -80.1 -77.7 -75.05 -78.85 L-72.5 -79.1 -71.45 -78.35 -64.45 -77.6 Q-58.1 -76.25 -51.45 -76.15 L-48.55 -76.6 -48.1 -76.4 Q-43.6 -77.95 -39.4 -80.5 -36.35 -82.4 -33.1 -83.6 -28.9 -85.05 -24.45 -85.55 L-15.0 -86.1 -6.2 -85.7 2.15 -84.0 4.4 -83.15 Q9.5 -81.0 14.35 -78.1 16.7 -76.75 19.45 -76.0 21.85 -75.2 24.4 -75.55 L35.25 -77.65 38.85 -78.15 40.0 -78.65 41.25 -78.45 42.2 -79.15 45.0 -79.15 Q49.5 -77.7 52.7 -74.4 56.2 -70.85 58.2 -66.15 60.05 -61.75 61.2 -57.15 L63.4 -48.85 Q64.7 -44.15 65.2 -39.35 65.7 -34.7 63.05 -30.7 60.6 -27.05 60.3 -22.6 L60.3 -22.5 60.05 -21.35 Q59.65 -19.5 57.9 -18.75 L55.25 -17.75 51.9 -16.4 51.8 -16.4 51.15 -12.2 50.9 -10.6 Q49.7 -9.5 49.6 -8.0 49.45 -4.8 48.85 -1.7 48.0 3.05 47.45 7.65 L46.0 17.4 44.5 24.85 44.3 25.6 47.85 26.95 49.9 28.0 Q51.85 29.05 52.9 31.0 L55.2 35.8 58.1 36.5 61.35 37.55 Q62.35 39.95 61.05 42.1 59.6 44.4 56.6 44.15 L54.5 45.75 54.4 46.3 Q53.95 48.05 52.45 49.15 51.15 50.1 49.6 50.7 L49.0 50.7 47.45 53.1 Q46.55 54.3 45.05 54.65 L42.8 54.3 Q40.95 55.65 39.05 56.1 L36.25 54.75 35.3 56.25 29.25 57.15 23.3 56.95 Q18.6 56.3 14.1 54.55 L2.15 49.9 Q-4.0 47.55 -10.2 45.5 L-11.35 45.0 -21.4 47.8 -30.65 50.55 -43.25 54.5 Q-48.25 56.0 -53.5 56.9 -56.0 57.5 -58.55 56.95 L-58.7 56.85 -59.9 56.45 -61.1 55.7 -63.15 54.1 -65.65 51.35 -66.55 50.4 -67.0 50.0 -67.75 50.15 -70.5 50.55 -71.05 50.55 Q-70.7 50.3 -70.6 49.7 L-70.55 49.65 -70.35 49.6 -68.45 49.0 Q-66.65 48.3 -65.95 46.25 -64.9 43.3 -64.35 40.1 L-63.9 38.1 -63.85 37.9 -63.95 38.05 -63.95 37.9 -64.0 37.6 -64.1 36.45 -64.1 34.85 -64.1 34.7 -63.8 33.15 -63.75 33.0 -63.75 32.9 -63.7 32.75 -63.65 32.6 -63.2 31.4 -62.25 30.25 Q-58.65 27.9 -54.45 26.8 L-54.2 26.85 Q-57.75 29.35 -61.95 31.0 -62.4 31.15 -62.75 31.45 -63.7 34.85 -62.8 38.45 -62.25 40.7 -60.9 42.7 L-61.3 43.15 -63.2 40.35 Q-64.55 42.85 -65.15 45.5 L-65.35 46.4 -66.4 48.8 -65.5 50.0 -65.25 50.3 -64.75 50.9 -63.5 52.15 -63.4 52.25 -61.1 54.15 -59.05 55.15 Q-55.9 56.4 -52.65 55.6 L-43.65 53.3 Q-40.15 52.4 -36.85 51.3 L-37.65 51.45 -30.85 49.6 -21.1 46.45 -10.15 43.2 0.6 39.95 8.85 37.15 10.2 37.65 10.9 37.8 11.6 37.75 12.4 37.2 12.35 35.75 12.1 33.8 12.25 31.9 12.25 31.85 12.9 30.0 12.85 33.7 12.75 36.75 14.25 39.05 Q16.35 42.6 20.3 44.15 L27.45 46.7 31.9 48.35 Q32.95 50.05 34.4 51.3 36.65 53.25 39.25 54.7 L40.35 54.85 41.45 54.1 41.95 53.6 42.3 53.2 41.7 52.35 37.55 46.4 37.75 45.75 37.95 45.5 Q38.5 45.0 38.75 45.8 39.8 49.55 42.75 51.65 44.05 52.75 45.55 53.0 L46.15 52.65 46.4 52.4 46.45 52.35 Q47.6 50.8 46.6 49.15 44.85 45.95 42.6 43.05 L42.45 40.2 42.45 40.15 42.7 39.7 Q42.8 39.6 42.95 39.6 L43.55 40.35 43.6 40.75 43.55 41.15 43.35 41.6 48.2 48.1 48.85 48.75 Q49.4 49.4 50.5 49.6 L51.2 49.2 51.55 48.95 Q52.7 47.9 52.6 46.35 L52.2 45.05 48.0 38.2 47.3 37.2 47.3 36.85 47.4 35.4 47.75 35.35 48.2 35.85 48.1 36.45 54.0 44.5 54.6 44.05 56.15 42.75 56.65 41.3 Q54.3 37.05 52.55 32.55 51.25 29.25 47.9 27.95 L47.65 27.85 Q43.1 26.25 38.55 25.25 L28.95 23.0 22.95 22.05 Q21.0 21.95 19.15 22.1 L16.1 22.65 15.65 22.75 9.5 23.9 3.75 25.25 0.45 25.95 -2.7 26.6 -8.45 27.9 -14.2 29.15 -19.95 30.45 -25.8 31.45 -33.35 32.35 Q-34.55 32.3 -35.7 32.85 L-39.35 34.45 -42.55 35.5 -43.6 35.85 Q-45.75 36.1 -47.9 35.8 L-48.7 35.65 -48.85 35.65 -48.95 35.6 -53.0 33.95 -57.0 36.5 -56.3 39.5 -55.75 41.25 -55.5 42.05 Q-55.3 43.2 -55.7 44.25 L-56.0 44.85 -56.1 45.0 -56.1 45.05 Q-56.7 46.05 -57.95 46.05 L-57.95 46.0 -57.95 45.8 Q-57.85 45.55 -58.05 45.25 L-58.1 45.15 -58.0 45.2 -57.85 45.2 -57.4 45.1 Q-56.75 44.95 -56.5 44.45 L-56.4 43.5 Q-56.6 41.25 -57.4 39.3 L-57.85 40.05 -57.9 40.05 -57.9 40.0 -57.9 39.95 -57.75 38.15 -57.8 36.3 -58.9 35.4 -58.95 35.35 -58.7 35.3 Q-56.2 34.75 -53.9 33.6 L-51.15 32.4 -51.0 33.15 -51.7 33.95 -50.45 33.8 Q-47.35 36.3 -43.7 35.5 L-42.45 35.05 -42.0 34.9 -40.8 34.45 -39.1 33.85 -33.05 31.95 -26.0 30.4 -19.05 29.0 -12.45 27.7 -12.1 27.6 -12.45 27.55 Q-19.9 26.95 -26.95 25.3 -32.2 24.25 -37.3 22.3 L-55.65 14.35 Q-59.95 12.25 -64.05 14.55 -64.9 15.0 -65.55 15.8 -68.85 19.35 -71.8 23.15 -72.3 23.85 -72.25 24.8 L-71.75 31.0 -71.5 32.9 -71.5 33.05 -71.45 32.95 -70.6 30.25 Q-69.9 28.65 -68.8 27.35 -66.65 24.7 -64.75 21.7 -63.9 20.35 -63.2 18.8 L-62.7 17.35 -62.45 17.7 -62.15 18.1 Q-63.6 21.8 -66.15 25.15 -68.5 28.1 -70.0 31.55 -72.3 37.0 -73.55 42.8 L-73.85 44.35 -74.4 44.7 -74.75 45.3 -75.05 46.5 M-72.0 50.55 L-73.35 50.6 -74.65 49.9 Q-74.1 49.85 -73.8 49.4 L-73.05 49.65 -72.4 49.75 -71.8 47.15 -71.0 42.6 Q-70.45 38.9 -68.95 35.65 -66.2 29.6 -61.2 25.25 L-57.85 22.0 -57.8 22.0 -57.7 22.0 -57.5 22.2 -57.4 22.4 -57.35 22.85 Q-59.75 25.9 -62.6 28.35 -65.65 30.95 -67.55 34.55 -70.05 39.4 -70.75 44.9 L-70.9 45.05 Q-71.85 47.15 -72.1 49.55 L-72.3 50.05 -72.05 50.5 -72.0 50.55 M-82.05 -17.35 L-82.45 -19.9 Q-87.05 -21.6 -90.0 -25.45 -90.8 -20.1 -86.2 -18.55 L-82.05 -17.35 M20.45 -72.4 L20.3 -73.2 20.3 -73.35 20.25 -73.45 20.15 -74.0 20.15 -75.0 Q18.55 -76.2 16.55 -76.9 12.65 -78.1 9.2 -80.25 L7.75 -81.15 1.7 -83.6 Q-2.5 -85.4 -6.85 -85.7 L-15.25 -85.9 -23.7 -85.5 Q-28.5 -85.1 -32.95 -83.35 L-36.5 -81.75 -44.55 -77.2 Q-45.8 -76.55 -47.2 -76.3 -49.0 -76.3 -50.15 -74.9 L-49.85 -73.8 -50.05 -73.7 -50.05 -73.75 -50.4 -73.35 -50.45 -73.2 -50.5 -72.8 -50.55 -72.35 -51.7 -71.55 Q-52.55 -70.75 -52.25 -69.7 L-51.7 -68.25 -51.8 -68.05 -52.05 -66.6 -52.0 -65.4 Q-53.7 -63.3 -52.85 -60.7 L-51.6 -57.95 -52.0 -56.9 -51.05 -55.2 Q-51.9 -53.25 -51.35 -51.3 -50.95 -49.95 -49.7 -48.95 L-49.45 -48.7 -49.4 -48.35 -49.5 -47.65 Q-49.6 -46.85 -49.05 -46.25 L-48.05 -45.4 -47.6 -45.1 Q-47.45 -43.3 -46.3 -42.05 -44.9 -40.55 -42.6 -40.5 L-41.55 -40.75 -41.3 -41.05 -40.7 -41.6 -40.15 -42.05 -39.5 -42.3 -38.4 -42.05 -37.05 -42.95 -36.45 -42.35 Q-35.1 -42.6 -33.85 -43.1 -32.25 -43.55 -31.45 -45.2 L-34.85 -50.75 -37.7 -56.15 Q-38.9 -58.9 -39.25 -61.85 L-39.7 -68.05 Q-39.75 -72.15 -37.9 -75.8 -35.75 -80.15 -31.5 -82.2 -27.15 -83.8 -22.65 -84.7 L-17.7 -84.9 -8.5 -84.5 Q-4.15 -84.5 -0.2 -83.2 5.5 -81.1 8.3 -74.9 9.45 -72.35 9.7 -69.5 10.4 -61.1 6.2 -53.85 L1.4 -44.9 2.6 -43.7 Q3.55 -42.45 5.05 -42.25 5.95 -42.0 6.6 -42.55 L7.0 -42.95 8.7 -42.1 9.6 -42.35 Q10.6 -41.25 12.1 -40.85 14.9 -40.2 16.65 -42.45 17.55 -43.55 17.5 -44.85 L17.55 -45.05 18.6 -46.25 19.15 -47.25 19.2 -48.15 19.2 -48.3 20.55 -49.8 Q21.5 -51.35 21.3 -53.1 L20.95 -55.3 21.9 -56.9 21.7 -57.65 21.7 -57.7 21.5 -57.95 22.85 -60.15 Q23.65 -61.55 23.05 -62.95 L21.9 -65.4 22.0 -66.6 21.85 -67.7 21.6 -68.25 22.2 -69.05 Q22.75 -70.0 22.1 -71.1 L21.0 -72.15 20.55 -72.3 20.45 -72.4 M5.6 -53.65 L6.2 -54.85 7.8 -59.2 Q9.15 -63.9 9.2 -68.7 9.25 -73.3 6.6 -76.85 3.95 -80.4 0.1 -82.3 L-1.2 -82.75 -2.2 -83.05 -3.6 -83.35 -12.75 -84.1 -22.65 -83.85 Q-26.85 -83.5 -30.7 -81.85 -33.5 -80.55 -35.55 -78.15 -39.35 -73.8 -39.2 -68.0 -39.1 -63.0 -37.55 -58.35 -36.55 -55.35 -35.0 -52.75 L-34.7 -52.25 -34.6 -52.1 Q-32.85 -49.3 -31.4 -46.15 -29.7 -42.5 -27.15 -39.45 -26.75 -36.05 -25.75 -32.75 L-23.65 -25.7 -21.85 -20.4 -20.45 -16.95 -19.2 -14.0 -18.4 -12.25 -18.15 -11.65 -17.95 -11.2 -17.9 -11.1 -17.55 -10.35 -17.0 -9.8 -16.2 -9.85 -15.15 -30.05 -15.05 -29.25 -14.95 -30.05 -14.1 -13.7 -14.1 -11.4 -13.85 -9.8 -13.5 -9.4 -13.3 -9.45 Q-12.7 -10.05 -12.25 -10.8 L-11.7 -11.65 -11.4 -12.2 Q-10.65 -13.55 -10.05 -15.0 L-8.1 -20.45 -7.7 -21.85 -7.05 -24.05 -5.1 -30.05 Q-3.5 -34.7 -2.9 -39.45 -1.55 -40.95 -0.6 -42.85 1.45 -47.05 4.05 -51.05 L5.25 -52.95 5.6 -53.65 M-7.6 -51.1 L-1.5 -53.35 Q2.55 -54.9 6.3 -57.3 5.7 -56.45 4.45 -55.85 -1.35 -52.95 -7.6 -51.1 M-36.35 -57.25 L-33.3 -55.6 Q-28.1 -52.8 -22.5 -51.1 -25.6 -51.8 -28.6 -53.0 -32.8 -54.75 -36.35 -57.25 M-51.05 -25.2 L-50.05 -30.3 -50.0 -30.45 -49.95 -31.0 Q-49.6 -33.55 -49.4 -36.15 -49.0 -42.15 -49.95 -47.9 -51.6 -49.1 -51.95 -50.95 -52.35 -53.15 -51.75 -55.4 L-52.5 -56.1 -52.6 -56.85 -52.6 -57.7 -52.55 -58.2 -52.35 -58.65 Q-54.05 -59.9 -53.9 -62.1 -53.8 -63.85 -52.55 -65.35 L-52.8 -66.65 -52.65 -67.45 -52.35 -68.2 -52.4 -68.2 Q-53.1 -69.9 -52.3 -71.65 L-51.55 -73.05 -51.0 -73.15 -50.7 -74.15 -50.85 -75.3 -60.1 -76.0 -62.4 -76.45 -66.15 -77.3 -70.6 -78.0 -69.85 -77.8 Q-69.2 -77.5 -68.7 -76.85 -66.95 -74.6 -65.75 -71.75 -62.95 -64.9 -61.5 -57.75 -60.35 -51.8 -57.65 -46.5 -54.55 -40.35 -52.4 -33.8 L-52.2 -33.15 -51.95 -32.0 Q-51.8 -30.7 -52.0 -29.5 L-52.4 -28.05 Q-53.05 -26.45 -54.4 -25.0 L-52.7 -15.05 Q-52.75 -19.25 -51.6 -23.2 L-51.35 -24.05 -51.05 -25.2 M-27.25 -35.85 L-27.35 -37.35 -27.4 -37.9 Q-29.7 -40.3 -31.3 -43.0 L-32.55 -42.3 Q-33.35 -41.8 -34.45 -41.55 L-37.15 -41.9 -37.8 -41.5 -38.6 -41.25 -38.85 -41.25 -39.6 -41.6 -41.0 -40.25 Q-41.95 -39.35 -43.3 -39.5 -47.7 -40.25 -47.9 -44.65 L-48.85 -44.7 -48.9 -41.65 -48.9 -39.65 Q-48.85 -35.35 -49.4 -30.85 -49.75 -28.25 -50.35 -25.75 L-51.55 -19.6 -51.8 -17.9 -52.05 -16.1 Q-52.65 -11.0 -50.3 -6.45 -48.15 -2.35 -44.05 -0.2 -40.15 1.8 -35.7 1.7 L-27.7 1.6 -18.9 1.5 Q-14.8 1.45 -10.6 1.7 L-1.65 1.7 6.75 1.6 Q11.2 1.55 15.2 -0.95 19.35 -3.55 21.05 -8.0 L22.0 -11.6 22.0 -11.85 22.1 -15.1 22.0 -15.8 Q21.4 -20.7 20.3 -25.6 19.35 -30.05 19.25 -34.5 L18.8 -41.95 18.8 -42.0 18.55 -44.6 17.85 -44.65 17.65 -43.65 17.5 -43.25 17.4 -42.85 Q16.85 -40.9 15.05 -40.1 11.7 -38.65 9.55 -41.6 L8.75 -41.25 7.95 -41.5 Q7.45 -41.65 7.05 -41.9 L6.95 -41.6 Q3.75 -41.3 1.4 -43.35 L0.5 -41.85 Q-0.65 -39.5 -2.7 -37.9 -2.65 -37.3 -2.75 -36.65 L-2.75 -36.4 -2.9 -35.45 -3.1 -34.35 -3.45 -32.5 Q-4.75 -26.3 -6.9 -20.45 L-8.1 -17.7 -9.55 -14.05 -11.2 -10.55 -11.25 -10.55 -11.8 -9.55 -12.35 -8.7 -14.0 -6.3 -15.25 -4.5 Q-16.2 -5.7 -16.95 -7.25 L-17.45 -8.4 -17.55 -8.55 -17.7 -8.85 -17.7 -8.9 -18.2 -9.9 -18.55 -10.6 -19.7 -13.0 -20.85 -15.5 -22.4 -19.2 -23.0 -20.75 -25.8 -28.7 Q-26.95 -32.2 -27.25 -35.85 M-58.05 -28.15 L-56.45 -30.65 Q-56.7 -28.75 -57.8 -27.3 -58.45 -26.4 -59.25 -25.8 L-59.25 -25.75 -59.75 -25.4 -60.1 -25.25 -58.7 -27.2 -58.05 -28.15 M-56.95 -15.45 L-55.9 -15.75 -54.45 -16.15 -55.35 -23.05 -55.8 -23.1 -61.45 -22.3 -61.5 -22.3 -63.6 -21.8 -63.9 -21.75 -65.8 -21.5 Q-69.45 -21.25 -72.55 -19.85 L-73.85 -19.55 -80.45 -17.75 -79.6 -11.5 -70.5 -12.7 -65.0 -13.8 -56.95 -15.45 M-63.7 -13.45 L-79.45 -10.6 -78.5 -5.3 -78.2 -3.8 -76.75 3.8 Q-75.9 8.25 -75.2 12.95 L-75.15 13.35 -74.35 18.65 -73.95 21.45 -73.0 27.2 -72.95 24.05 -72.9 23.65 -72.65 22.95 -72.55 22.85 -72.5 22.75 -72.1 22.2 -69.35 18.75 Q-66.75 15.85 -63.7 13.65 -62.45 12.75 -60.9 12.4 -57.85 12.8 -54.95 13.9 L-52.35 15.1 -49.65 16.3 -49.85 15.4 -50.4 11.45 -50.55 10.0 -52.05 0.1 Q-52.9 -4.95 -53.4 -10.0 -53.65 -12.65 -54.3 -15.15 L-60.6 -14.0 -60.65 -14.0 -63.7 -13.45 M-50.7 -3.7 L-50.6 -1.15 -50.3 1.05 -50.1 2.1 Q-49.35 6.75 -48.85 11.45 L-48.1 16.2 -48.0 16.9 -37.15 21.65 -37.0 21.7 Q-29.95 24.0 -22.7 25.25 L-8.75 26.9 -5.6 26.5 -3.3 25.9 -3.1 25.85 0.0 25.35 6.9 23.9 13.15 22.45 14.7 22.15 18.5 21.25 20.55 -2.5 21.0 -5.8 Q19.3 -2.95 16.55 -0.95 12.9 2.2 8.15 2.5 3.3 2.55 -1.3 3.9 -5.75 5.0 -10.25 5.15 -15.05 5.5 -20.0 5.4 -24.7 5.35 -29.4 4.3 -34.05 3.1 -38.6 2.5 -43.15 1.9 -46.75 -0.85 L-49.8 -3.75 -50.05 -4.05 -50.35 -4.4 -50.3 -4.1 -50.65 -3.85 -50.7 -3.7 M-17.3 -49.1 L-15.2 -48.0 Q-12.95 -48.65 -11.55 -49.5 L-11.7 -48.9 -14.7 -47.15 -15.4 -47.3 Q-17.3 -47.95 -18.55 -49.65 L-17.3 -49.1 M59.5 -26.5 Q62.4 -30.2 63.85 -34.9 65.0 -38.7 63.95 -42.35 62.2 -48.15 61.05 -54.05 59.95 -59.7 57.75 -65.1 56.1 -69.15 53.45 -72.6 49.65 -77.55 43.35 -78.55 L42.2 -77.95 Q45.0 -76.35 47.15 -73.9 L48.6 -72.25 Q45.55 -75.05 42.0 -76.95 L41.4 -77.25 41.35 -77.25 39.5 -76.4 Q37.25 -73.35 36.05 -70.05 L33.5 -62.6 33.1 -61.2 32.65 -59.9 32.3 -58.6 32.0 -57.35 31.65 -56.0 31.35 -54.7 31.35 -54.65 30.85 -52.5 31.35 -53.35 31.95 -54.25 32.8 -55.6 32.9 -55.8 35.55 -61.15 34.8 -58.85 33.95 -56.7 33.0 -54.65 32.05 -52.65 31.0 -50.7 30.05 -48.8 28.65 -46.3 24.55 -38.3 Q21.9 -32.85 24.25 -27.65 L24.45 -27.25 25.35 -25.5 26.35 -23.8 33.05 -22.8 33.0 -22.8 35.9 -22.35 33.45 -25.0 33.35 -25.1 Q31.0 -27.6 28.4 -29.5 L28.25 -29.65 26.65 -30.75 26.45 -30.85 26.5 -31.05 26.65 -31.35 26.7 -31.45 Q29.5 -30.3 31.5 -27.95 L34.1 -24.9 35.9 -22.9 Q38.45 -22.05 41.45 -21.75 L42.45 -21.85 44.15 -23.9 47.15 -27.65 Q49.75 -30.9 52.6 -33.75 L52.95 -33.7 53.5 -33.35 Q52.8 -30.15 51.1 -27.45 L50.2 -26.15 48.45 -24.2 46.4 -22.55 46.35 -22.5 45.95 -22.25 Q47.9 -24.05 49.2 -26.05 51.15 -28.95 52.7 -32.0 L52.45 -32.65 Q49.7 -30.45 47.85 -27.45 L44.9 -23.4 42.75 -21.1 43.2 -20.8 44.05 -20.4 47.1 -19.6 50.6 -18.8 52.8 -20.25 57.15 -23.95 59.5 -26.5 M27.85 -27.25 L27.35 -28.0 26.7 -29.4 26.55 -29.85 26.35 -30.65 26.9 -29.65 29.5 -26.0 29.85 -25.55 29.35 -25.9 29.15 -26.05 Q28.4 -26.6 27.85 -27.3 L27.85 -27.25 M21.95 -30.2 Q21.55 -32.9 22.85 -35.75 L26.2 -43.35 28.1 -47.85 29.5 -51.4 30.8 -55.0 32.05 -58.65 33.2 -62.35 35.0 -68.8 Q36.25 -73.4 38.8 -77.25 L40.45 -77.9 40.5 -77.95 37.1 -77.4 32.45 -76.2 20.65 -75.3 Q21.0 -74.9 20.8 -74.4 L20.65 -74.0 Q22.9 -71.65 22.55 -68.45 22.7 -65.6 23.55 -62.0 23.75 -61.25 23.6 -60.35 23.4 -59.2 22.3 -58.65 22.8 -57.4 22.45 -56.1 L21.6 -55.15 Q23.05 -51.1 20.45 -48.25 L19.9 -47.9 Q19.1 -37.65 20.9 -27.4 L21.1 -26.2 21.15 -25.95 Q22.2 -20.5 22.6 -15.05 L24.35 -25.0 Q22.9 -26.8 22.3 -28.7 L21.95 -30.2 M34.9 -21.5 L30.4 -22.4 30.2 -22.45 25.3 -23.05 24.35 -16.15 26.4 -15.6 26.7 -15.55 37.1 -13.35 45.05 -11.9 48.4 -11.4 48.6 -11.45 48.65 -11.45 Q49.5 -11.0 49.6 -12.1 L49.7 -12.75 50.35 -17.75 43.75 -19.55 42.45 -19.85 42.15 -20.2 39.9 -20.85 34.9 -21.5 M22.15 21.15 L26.35 21.65 33.95 23.1 41.0 24.8 41.8 25.0 43.2 25.35 43.4 24.45 44.85 15.95 44.85 15.9 44.9 15.8 46.3 6.2 46.45 5.2 47.65 -2.75 48.75 -10.6 35.2 -13.1 24.2 -15.15 23.85 -12.9 23.8 -12.75 23.7 -12.0 Q23.0 -8.1 22.45 -4.05 L22.4 -3.65 22.1 -1.55 21.5 2.55 20.95 6.75 20.5 11.1 20.1 15.05 19.5 20.5 19.4 21.0 21.2 21.05 22.15 21.15 M59.6 -22.2 Q60.15 -23.9 59.85 -25.35 57.0 -21.7 52.4 -19.9 L51.95 -17.35 52.35 -17.45 Q54.05 -18.0 55.75 -18.7 L58.8 -20.1 59.6 -22.2 M57.15 41.25 L57.2 42.95 Q58.7 42.8 59.6 42.25 L60.55 41.25 60.8 40.55 Q61.05 39.4 60.55 37.7 L55.45 36.3 Q56.5 38.4 57.15 40.95 L57.15 41.25 M0.1 41.15 L-1.7 41.7 -7.7 43.65 -9.5 44.2 Q-6.65 45.45 -3.15 46.5 0.4 47.6 3.7 48.95 L11.9 51.8 12.1 51.85 15.15 53.05 19.35 54.4 21.4 54.85 25.75 55.65 26.25 55.7 29.85 55.75 30.15 55.75 Q32.4 55.65 34.45 55.0 L34.95 54.45 35.25 54.0 Q32.1 49.75 27.4 47.9 25.4 47.1 23.3 46.6 19.65 45.65 16.7 43.35 14.6 41.6 13.25 39.3 L12.45 39.3 10.9 39.05 9.35 38.75 0.1 41.2 1.15 40.8 0.1 41.15 M-72.75 33.05 L-72.75 31.85 Q-72.7 30.5 -73.1 29.2 L-73.3 28.7 -78.05 31.2 -78.5 32.35 -78.45 32.5 -78.35 33.0 -78.4 32.95 -78.3 33.45 Q-78.1 34.95 -76.75 35.45 L-74.15 35.65 -72.75 35.05 -72.75 33.5 -72.75 33.05" fill="#000000" fill-rule="evenodd" stroke="none"/>
    <path d="M-52.0 -29.5 Q-51.8 -30.7 -51.95 -32.0 L-52.2 -33.15 -52.4 -33.8 Q-54.55 -40.35 -57.65 -46.5 -60.35 -51.8 -61.5 -57.75 -62.95 -64.9 -65.75 -71.75 -66.95 -74.6 -68.7 -76.85 -69.2 -77.5 -69.85 -77.8 L-70.6 -78.0 -66.15 -77.3 -62.4 -76.45 -60.1 -76.0 -50.85 -75.3 -50.7 -74.15 -51.0 -73.15 -51.55 -73.05 -52.3 -71.65 Q-53.1 -69.9 -52.4 -68.2 L-52.35 -68.2 -52.65 -67.45 -52.8 -66.65 -52.55 -65.35 Q-53.8 -63.85 -53.9 -62.1 -54.05 -59.9 -52.35 -58.65 L-52.55 -58.2 -52.6 -57.7 -52.6 -56.85 -52.5 -56.1 -51.75 -55.4 Q-52.35 -53.15 -51.95 -50.95 -51.6 -49.1 -49.95 -47.9 -49.0 -42.15 -49.4 -36.15 -49.6 -33.55 -49.95 -31.0 L-50.0 -30.45 -50.05 -30.3 -51.05 -25.2 -51.3 -26.25 -51.6 -27.7 -51.9 -29.2 -52.0 -29.5 M20.9 -27.4 Q19.1 -37.65 19.9 -47.9 L20.45 -48.25 Q23.05 -51.1 21.6 -55.15 L22.45 -56.1 Q22.8 -57.4 22.3 -58.65 23.4 -59.2 23.6 -60.35 23.75 -61.25 23.55 -62.0 22.7 -65.6 22.55 -68.45 22.9 -71.65 20.65 -74.0 L20.8 -74.4 Q21.0 -74.9 20.65 -75.3 L32.45 -76.2 37.1 -77.4 40.5 -77.95 40.45 -77.9 38.8 -77.25 Q36.25 -73.4 35.0 -68.8 L33.2 -62.35 32.05 -58.65 30.8 -55.0 29.5 -51.4 28.1 -47.85 26.2 -43.35 22.85 -35.75 Q21.55 -32.9 21.95 -30.2 L21.45 -28.95 20.9 -27.4" fill="#454262" fill-rule="evenodd" stroke="none"/>
    <path d="M-92.15 -29.85 Q-94.8 -34.6 -94.05 -40.3 -93.35 -45.5 -92.05 -50.5 L-89.75 -59.55 Q-88.4 -64.9 -85.45 -69.75 -83.4 -73.95 -79.55 -76.5 -76.7 -78.3 -73.4 -78.25 L-72.3 -77.95 Q-76.1 -75.85 -78.65 -72.25 -75.35 -75.0 -71.65 -77.0 L-70.65 -77.25 -69.9 -77.15 Q-67.25 -74.95 -66.25 -71.6 L-65.15 -68.4 Q-63.5 -63.95 -62.35 -59.45 -61.45 -56.1 -61.2 -52.6 -63.75 -56.8 -65.5 -61.2 -64.45 -57.65 -63.0 -54.5 L-57.65 -44.1 -54.7 -38.3 Q-52.3 -33.5 -53.7 -28.85 L-57.45 -26.8 -57.4 -27.05 -56.15 -30.6 -56.15 -30.7 -56.45 -31.05 -56.8 -31.45 Q-60.6 -29.8 -63.15 -26.35 L-63.75 -25.55 -65.4 -24.95 -66.05 -24.75 Q-68.75 -23.7 -71.7 -23.65 L-72.55 -23.8 -74.5 -24.45 -82.35 -33.5 -82.65 -33.75 -83.0 -33.7 -83.6 -33.35 Q-82.35 -28.35 -78.9 -24.3 -78.15 -23.5 -77.2 -22.9 L-78.95 -23.2 Q-82.55 -24.3 -85.9 -26.0 -89.2 -27.65 -92.15 -29.9 L-92.15 -29.85 M-57.3 -30.35 L-57.25 -30.35 -57.3 -30.3 -57.3 -30.35 M20.55 -72.3 L21.0 -72.15 22.1 -71.1 Q22.75 -70.0 22.2 -69.05 L21.6 -68.25 21.85 -67.7 22.0 -66.6 21.9 -65.4 23.05 -62.95 Q23.65 -61.55 22.85 -60.15 L21.5 -57.95 21.7 -57.7 21.7 -57.65 21.9 -56.9 20.95 -55.3 21.3 -53.1 Q21.5 -51.35 20.55 -49.8 L19.2 -48.3 19.2 -48.15 19.15 -47.25 18.6 -46.25 17.55 -45.05 17.5 -44.85 Q17.55 -43.55 16.65 -42.45 14.9 -40.2 12.1 -40.85 10.6 -41.25 9.6 -42.35 L8.7 -42.1 7.0 -42.95 6.6 -42.55 Q5.95 -42.0 5.05 -42.25 3.55 -42.45 2.6 -43.7 L1.4 -44.9 6.2 -53.85 Q10.4 -61.1 9.7 -69.5 9.45 -72.35 8.3 -74.9 5.5 -81.1 -0.2 -83.2 -4.15 -84.5 -8.5 -84.5 L-17.7 -84.9 -22.65 -84.7 Q-27.15 -83.8 -31.5 -82.2 -35.75 -80.15 -37.9 -75.8 -39.75 -72.15 -39.7 -68.05 L-39.25 -61.85 Q-38.9 -58.9 -37.7 -56.15 L-34.85 -50.75 -31.45 -45.2 Q-32.25 -43.55 -33.85 -43.1 -35.1 -42.6 -36.45 -42.35 L-37.05 -42.95 -38.4 -42.05 -39.5 -42.3 -40.15 -42.05 -40.7 -41.6 -41.3 -41.05 -41.55 -40.75 -42.6 -40.5 Q-44.9 -40.55 -46.3 -42.05 -47.45 -43.3 -47.6 -45.1 L-48.05 -45.4 -49.05 -46.25 Q-49.6 -46.85 -49.5 -47.65 L-49.4 -48.35 -49.45 -48.7 -49.7 -48.95 Q-50.95 -49.95 -51.35 -51.3 -51.9 -53.25 -51.05 -55.2 L-52.0 -56.9 -51.6 -57.95 -52.85 -60.7 Q-53.7 -63.3 -52.0 -65.4 L-52.05 -66.6 -51.8 -68.05 -51.7 -68.25 -52.25 -69.7 Q-52.55 -70.75 -51.7 -71.55 L-50.55 -72.35 -50.5 -72.8 -50.45 -73.2 -50.4 -73.35 -50.05 -73.75 -50.05 -73.7 -49.85 -73.8 -50.15 -74.9 Q-49.0 -76.3 -47.2 -76.3 -45.8 -76.55 -44.55 -77.2 L-36.5 -81.75 -32.95 -83.35 Q-28.5 -85.1 -23.7 -85.5 L-15.25 -85.9 -6.85 -85.7 Q-2.5 -85.4 1.7 -83.6 L7.75 -81.15 9.2 -80.25 Q12.65 -78.1 16.55 -76.9 18.55 -76.2 20.15 -75.0 L20.15 -74.0 20.25 -73.45 20.3 -73.35 20.3 -73.2 20.45 -72.4 20.4 -72.45 Q19.0 -72.75 18.85 -71.55 L18.2 -70.9 19.3 -70.05 18.75 -69.3 Q19.45 -68.3 20.65 -68.75 L20.6 -69.45 20.2 -69.85 21.1 -70.2 21.0 -70.8 20.1 -71.15 20.95 -71.95 20.55 -72.3 M-48.6 -75.1 L-48.25 -74.7 -47.4 -74.55 -46.55 -74.7 Q-46.2 -74.85 -46.2 -75.1 L-46.55 -75.5 -47.4 -75.65 -48.25 -75.5 -48.6 -75.1 M-47.75 -73.25 L-47.85 -73.5 -48.05 -73.6 -48.25 -73.5 -48.35 -73.25 -48.25 -73.0 Q-48.15 -72.9 -48.05 -72.9 -47.95 -72.9 -47.85 -73.0 L-47.75 -73.25 M-47.9 -74.15 Q-48.4 -74.05 -47.9 -74.05 L-47.9 -74.15 M-49.15 -73.9 L-49.5 -73.75 -49.65 -73.4 -49.5 -73.05 -49.15 -72.9 -48.8 -73.05 -48.65 -73.4 -48.8 -73.75 -49.15 -73.9 M-49.65 -71.7 L-49.4 -71.15 -49.1 -70.95 -49.5 -71.0 -50.6 -70.8 -51.05 -70.3 Q-51.05 -70.0 -50.6 -69.8 L-49.5 -69.6 -48.4 -69.8 Q-47.95 -70.0 -47.95 -70.3 -47.95 -70.6 -48.4 -70.8 L-48.9 -70.95 -48.35 -71.15 -48.15 -71.7 -48.35 -72.2 -48.9 -72.45 -49.4 -72.2 -49.65 -71.7 M-49.7 -68.75 L-49.2 -68.6 -48.7 -68.75 -48.5 -69.1 -48.7 -69.45 -49.2 -69.6 -49.7 -69.45 -49.9 -69.1 -49.7 -68.75 M-50.4 -67.05 L-50.8 -67.2 -51.2 -67.05 -51.35 -66.65 -51.2 -66.25 -50.8 -66.1 Q-50.55 -66.1 -50.4 -66.25 -50.25 -66.4 -50.25 -66.65 L-50.4 -67.05 M-49.7 -68.05 L-49.95 -67.95 -50.1 -67.75 -49.95 -67.55 -49.7 -67.45 -49.4 -67.55 -49.3 -67.75 -49.4 -67.95 -49.7 -68.05 M-49.7 -66.25 L-49.6 -66.0 -49.4 -65.9 -49.2 -66.0 -49.1 -66.25 -49.2 -66.5 -49.4 -66.6 -49.6 -66.5 -49.7 -66.25 M-48.8 -63.0 L-50.2 -63.3 -51.55 -63.0 -52.15 -62.4 Q-52.15 -62.05 -51.55 -61.75 L-50.2 -61.5 -48.8 -61.75 Q-48.25 -62.05 -48.25 -62.4 -48.25 -62.75 -48.8 -63.0 M-49.2 -64.85 L-49.95 -65.1 -50.7 -64.85 -51.0 -64.35 -50.7 -63.8 -49.95 -63.6 -49.2 -63.8 Q-48.9 -64.05 -48.9 -64.35 L-49.2 -64.85 M-50.9 -56.95 L-50.7 -56.45 -50.25 -56.25 Q-50.0 -56.25 -49.8 -56.45 L-49.6 -56.95 -49.8 -57.45 Q-50.0 -57.65 -50.25 -57.65 L-50.7 -57.45 -50.9 -56.95 M-50.6 -60.4 L-50.55 -59.65 -49.7 -59.35 -48.65 -60.7 -49.15 -61.3 -50.6 -60.4 M-48.75 -58.75 L-49.15 -58.9 -49.55 -58.75 -49.7 -58.35 -49.55 -57.95 -49.15 -57.8 Q-48.9 -57.8 -48.75 -57.95 -48.6 -58.1 -48.6 -58.35 L-48.75 -58.75 M-48.65 -56.3 Q-48.5 -56.15 -48.45 -56.6 -49.25 -56.9 -48.65 -56.3 M-47.2 -53.6 Q-48.8 -53.3 -49.9 -52.25 L-50.05 -51.75 Q-48.5 -51.1 -46.9 -52.15 L-46.65 -52.2 -46.3 -53.25 -47.2 -53.6 M-47.55 -54.6 L-47.85 -55.05 -48.55 -55.25 -49.25 -55.05 -49.55 -54.6 -49.25 -54.15 -48.55 -53.95 -47.85 -54.15 Q-47.55 -54.35 -47.55 -54.6 M-48.1 -49.85 Q-46.85 -50.05 -46.6 -51.45 L-46.6 -51.55 -48.35 -50.8 -48.1 -49.85 M-45.05 -45.75 L-46.5 -44.95 -46.45 -43.9 -44.75 -44.55 -44.4 -45.25 -45.05 -45.75 M-41.6 -44.3 Q-41.8 -44.7 -42.1 -44.7 -42.4 -44.7 -42.6 -44.3 L-42.8 -43.4 -42.6 -42.45 -42.1 -42.1 Q-41.8 -42.1 -41.6 -42.45 L-41.4 -43.4 -41.6 -44.3 M-42.65 -47.1 Q-44.15 -45.45 -44.9 -42.95 L-44.95 -42.65 -44.1 -42.15 -41.95 -46.6 -42.65 -47.1 M-46.45 -49.45 L-46.9 -49.65 -47.35 -49.45 -47.55 -48.95 -47.35 -48.45 -46.9 -48.25 -46.45 -48.45 -46.25 -48.95 -46.45 -49.45 M-47.75 -48.25 L-48.3 -48.0 -48.55 -47.4 -48.3 -46.8 Q-48.1 -46.55 -47.75 -46.55 -47.4 -46.55 -47.15 -46.8 L-46.95 -47.4 -47.15 -48.0 -47.75 -48.25 M-46.0 -47.6 L-46.35 -47.45 -46.5 -47.1 -46.35 -46.75 -46.0 -46.6 -45.65 -46.75 -45.5 -47.1 -45.65 -47.45 -46.0 -47.6 M-27.25 -35.85 Q-26.95 -32.2 -25.8 -28.7 L-23.0 -20.75 -22.4 -19.2 -20.85 -15.5 -19.7 -13.0 -18.55 -10.6 -18.2 -9.9 -19.0 -9.6 -19.4 -9.25 -19.95 -10.05 Q-19.25 -11.8 -20.8 -12.85 L-21.0 -14.15 -21.7 -14.6 -21.55 -12.8 -20.7 -12.2 -20.45 -9.75 -19.6 -9.15 -20.4 -8.7 -21.65 -8.95 -22.7 -8.65 -21.05 -11.4 -23.1 -11.0 -22.9 -11.4 Q-22.35 -12.35 -22.2 -13.2 -22.35 -14.05 -23.0 -14.55 L-23.2 -14.65 -23.2 -14.6 -23.3 -14.6 -23.45 -14.3 -22.95 -13.15 -25.95 -9.7 -25.7 -9.6 -23.55 -10.35 -21.4 -11.2 -23.8 -7.85 -27.25 -7.6 -32.1 -7.45 Q-36.85 -7.35 -41.4 -8.35 -45.2 -9.15 -47.7 -12.1 L-48.3 -12.9 Q-50.05 -15.45 -51.1 -18.35 L-51.3 -19.4 -51.4 -19.5 -51.55 -19.6 -50.35 -25.75 Q-49.75 -28.25 -49.4 -30.85 -48.85 -35.35 -48.9 -39.65 L-48.9 -41.65 Q-48.3 -39.45 -46.2 -38.25 -42.8 -36.35 -39.35 -38.35 -36.15 -38.35 -33.4 -39.9 L-33.05 -39.7 -33.85 -38.35 -33.05 -37.9 -32.2 -39.25 -31.75 -39.0 -32.1 -38.0 Q-32.25 -37.2 -32.8 -36.5 -33.35 -35.9 -34.1 -35.4 -35.0 -34.9 -35.2 -33.9 -33.9 -33.25 -32.9 -34.25 L-31.7 -35.1 -33.5 -33.15 -33.5 -32.95 Q-32.6 -32.6 -31.1 -32.35 L-29.35 -31.6 -29.0 -30.95 -28.4 -31.5 Q-29.65 -33.3 -32.0 -33.75 L-30.1 -35.3 -32.4 -35.35 Q-31.5 -36.45 -30.9 -37.75 -30.7 -38.1 -30.75 -38.5 L-29.8 -38.05 -29.7 -38.0 -29.9 -37.5 -29.35 -37.05 -28.8 -35.6 -29.45 -34.4 -28.45 -33.15 -27.9 -31.8 Q-27.4 -33.15 -28.85 -34.25 -27.75 -35.85 -29.0 -37.5 L-28.95 -37.6 -27.85 -36.4 -27.85 -36.3 -27.85 -36.2 -27.35 -35.85 -27.25 -35.85 M-11.2 -10.55 L-9.55 -14.05 -8.1 -17.7 -6.9 -20.45 Q-4.75 -26.3 -3.45 -32.5 L-3.1 -34.35 -2.9 -35.45 -1.85 -36.15 -1.75 -35.35 Q-2.8 -34.4 -2.6 -33.0 L-1.3 -35.05 Q-1.5 -36.05 -1.25 -36.75 L0.3 -38.4 Q0.6 -37.35 1.45 -36.45 0.5 -37.2 -0.6 -36.85 L-0.6 -36.75 1.2 -34.5 Q-0.95 -35.0 -1.95 -33.25 L-0.15 -33.2 1.7 -33.6 3.15 -33.2 0.3 -36.5 3.35 -35.15 Q3.6 -36.0 2.65 -36.8 1.75 -37.55 1.2 -38.6 L1.0 -39.05 2.05 -40.0 Q2.8 -39.55 3.6 -39.25 L8.35 -38.95 Q9.05 -38.15 10.1 -37.85 12.4 -37.1 14.75 -37.9 15.8 -38.25 16.75 -38.85 18.65 -40.1 18.8 -41.95 L19.25 -34.5 Q19.35 -30.05 20.3 -25.6 21.4 -20.7 22.0 -15.8 L22.1 -15.1 22.05 -15.1 22.0 -15.0 21.9 -14.9 Q21.45 -12.15 19.75 -10.05 L19.15 -9.7 Q18.05 -8.7 16.5 -8.4 L11.55 -7.85 -3.45 -7.85 -5.25 -7.95 -7.15 -8.2 -7.25 -8.3 -7.75 -8.5 -8.05 -8.45 -9.2 -9.05 -9.2 -9.1 -5.55 -8.3 -8.0 -11.35 -4.3 -10.45 -7.15 -14.7 -6.0 -16.45 -1.95 -16.25 -2.55 -17.35 -4.25 -18.25 -1.4 -17.3 -1.0 -17.9 Q-3.2 -19.15 -3.6 -21.55 L-4.05 -22.9 -4.35 -22.5 Q-4.5 -20.3 -3.1 -18.75 L-5.5 -19.1 -5.8 -18.7 -4.05 -17.15 Q-5.8 -17.9 -7.1 -16.6 -8.2 -15.55 -7.55 -14.05 L-6.75 -12.05 -8.75 -11.8 -8.75 -11.0 -7.7 -9.8 -9.35 -9.9 -9.7 -9.55 -10.05 -9.9 -9.25 -11.0 Q-9.5 -12.25 -8.55 -13.1 L-8.3 -13.2 -8.2 -15.1 -8.8 -13.65 Q-10.2 -12.8 -9.85 -11.2 L-10.25 -11.0 -10.4 -10.15 -11.2 -10.55 M22.0 -11.85 L22.0 -11.6 21.9 -11.65 22.0 -11.85 M-56.95 -15.45 L-65.0 -13.8 -70.5 -12.7 -79.6 -11.5 -80.45 -17.75 -73.85 -19.55 -72.55 -19.85 Q-69.45 -21.25 -65.8 -21.5 L-63.9 -21.75 -63.6 -21.8 -58.95 -21.7 Q-58.1 -21.7 -57.6 -21.35 L-57.0 -17.25 -57.0 -16.1 -56.95 -15.45 M-0.65 -29.1 L0.05 -28.4 -1.65 -28.6 -3.25 -28.25 -3.3 -28.1 -0.25 -25.7 -2.55 -25.95 Q-3.65 -25.75 -4.0 -24.6 L-4.0 -23.9 -3.15 -24.7 -1.45 -25.15 0.9 -24.4 1.15 -24.65 Q0.7 -25.65 -0.15 -26.45 L-2.05 -28.05 -1.3 -28.1 2.35 -27.25 -1.7 -32.4 Q-2.25 -31.55 -1.8 -30.75 L-0.65 -29.1 M-2.75 -29.25 Q-3.25 -30.55 -2.35 -31.1 L-2.95 -30.9 Q-4.25 -29.0 -4.1 -26.8 L-4.5 -25.25 -3.75 -26.55 Q-4.5 -28.1 -3.1 -29.2 L-2.75 -29.25 M-34.95 -47.65 L-35.55 -47.05 -35.85 -45.7 -35.85 -45.45 -36.35 -45.75 Q-36.65 -45.75 -36.85 -45.4 L-37.1 -44.65 -36.85 -43.85 Q-36.65 -43.55 -36.35 -43.55 -36.05 -43.55 -35.8 -43.85 L-35.6 -44.4 -35.55 -44.3 Q-35.3 -43.75 -34.95 -43.75 -34.6 -43.75 -34.3 -44.3 -34.1 -44.75 -34.05 -45.35 L-33.95 -45.25 -33.35 -45.05 -32.7 -45.25 -32.45 -45.8 -32.7 -46.3 -33.35 -46.55 -33.95 -46.3 -34.05 -46.2 -34.3 -47.05 Q-34.6 -47.65 -34.95 -47.65 M-38.75 -44.9 L-38.65 -44.7 -38.5 -44.65 -38.3 -44.7 -38.25 -44.9 -38.3 -45.05 -38.5 -45.15 -38.65 -45.05 -38.75 -44.9 M-39.85 -44.6 L-40.15 -44.75 -40.4 -44.6 -40.55 -44.35 -40.4 -44.05 Q-40.3 -43.95 -40.15 -43.95 L-39.85 -44.05 -39.75 -44.35 -39.85 -44.6 M-38.95 -43.8 L-39.35 -43.6 -39.55 -43.15 -39.35 -42.7 Q-39.2 -42.5 -38.95 -42.5 -38.7 -42.5 -38.5 -42.7 -38.35 -42.9 -38.35 -43.15 L-38.5 -43.6 -38.95 -43.8 M-31.4 -32.15 L-32.0 -31.9 -32.25 -31.3 -32.0 -30.7 -31.4 -30.45 Q-31.05 -30.45 -30.8 -30.7 L-30.55 -31.3 -30.8 -31.9 -31.4 -32.15 M-31.2 -30.35 L-31.65 -30.05 -31.85 -29.4 -31.65 -28.7 -31.2 -28.45 Q-30.95 -28.45 -30.75 -28.7 L-30.55 -29.4 -30.75 -30.05 -31.2 -30.35 M-31.65 -26.05 L-28.55 -26.7 -31.55 -23.85 -27.8 -23.65 Q-27.05 -23.45 -26.9 -22.7 L-26.65 -22.55 Q-26.6 -22.45 -26.45 -22.45 L-26.1 -22.5 Q-25.5 -23.8 -27.35 -24.25 L-29.35 -24.75 Q-28.05 -25.6 -27.55 -26.95 L-27.55 -27.15 -29.95 -27.4 Q-28.95 -28.2 -28.95 -29.65 L-29.05 -30.4 -29.2 -30.55 -30.05 -28.55 Q-30.15 -28.0 -30.55 -27.6 L-32.0 -26.3 Q-32.05 -25.9 -31.65 -26.05 M-27.8 -30.9 L-27.85 -30.75 -27.8 -28.1 -27.55 -28.05 Q-26.0 -27.2 -26.85 -25.3 L-26.15 -25.0 -25.1 -23.0 Q-24.45 -23.7 -25.35 -24.75 L-26.1 -25.65 Q-25.75 -27.55 -27.3 -28.7 -26.9 -29.9 -27.75 -30.85 L-27.8 -30.9 M-24.8 -20.3 Q-23.35 -19.9 -23.8 -18.2 -23.95 -17.7 -23.6 -17.3 -22.3 -16.65 -22.35 -15.05 L-22.3 -14.9 Q-21.35 -15.3 -22.1 -16.35 L-23.15 -17.85 Q-22.95 -19.5 -24.25 -20.6 L-24.55 -21.9 -24.8 -20.3 M-24.6 -19.1 L-26.35 -19.15 Q-24.7 -20.6 -25.95 -22.05 L-26.55 -21.6 -26.35 -21.15 -29.0 -17.6 Q-28.1 -16.75 -26.75 -17.9 -26.15 -18.4 -25.3 -18.6 -26.95 -18.0 -27.5 -16.5 L-27.6 -15.9 Q-25.3 -16.55 -23.35 -15.5 -23.2 -16.4 -24.45 -16.65 L-26.0 -17.1 -24.4 -18.6 Q-24.25 -19.0 -24.6 -19.1 M-28.05 -22.8 L-28.55 -23.0 -29.05 -22.8 -29.25 -22.35 -29.05 -21.9 -28.55 -21.7 Q-28.25 -21.7 -28.05 -21.9 L-27.85 -22.35 -28.05 -22.8 M-28.7 -20.8 L-28.9 -20.15 -28.7 -19.45 Q-28.5 -19.2 -28.2 -19.2 -27.9 -19.2 -27.7 -19.45 L-27.5 -20.15 -27.7 -20.8 Q-27.9 -21.1 -28.2 -21.1 L-28.7 -20.8 M-25.55 -12.45 L-25.35 -11.7 -24.9 -11.4 -24.45 -11.7 -24.25 -12.45 -24.45 -13.2 -24.9 -13.5 -25.35 -13.2 -25.55 -12.45 M-26.0 -15.25 L-26.2 -14.85 -26.0 -14.4 -25.55 -14.25 -25.1 -14.4 -24.9 -14.85 -25.1 -15.25 -25.55 -15.45 -26.0 -15.25 M-22.0 -8.15 L-21.95 -8.2 -21.9 -8.15 -22.0 -8.15 M-1.25 -22.8 Q-0.95 -22.8 -0.75 -23.0 L-0.55 -23.55 -0.75 -24.05 -1.25 -24.3 -1.75 -24.05 -1.95 -23.55 -1.75 -23.0 -1.25 -22.8 M-1.45 -21.2 L-1.95 -21.4 -2.45 -21.2 -2.65 -20.7 -2.45 -20.2 -1.95 -20.0 Q-1.65 -20.0 -1.45 -20.2 L-1.25 -20.7 -1.45 -21.2 M-4.8 -23.35 Q-5.7 -22.7 -5.7 -21.65 L-5.65 -20.95 Q-6.95 -20.1 -7.15 -18.55 -7.2 -18.1 -6.85 -18.2 -6.2 -18.15 -6.25 -18.85 -6.35 -20.3 -5.05 -20.35 L-4.8 -23.35 M-5.75 -14.05 L-5.95 -13.45 -5.75 -12.85 -5.3 -12.6 Q-5.05 -12.6 -4.85 -12.85 L-4.65 -13.45 -4.85 -14.05 -5.3 -14.3 -5.75 -14.05 M-4.2 -15.9 L-4.8 -15.7 -5.05 -15.25 -4.8 -14.8 -4.2 -14.6 -3.6 -14.8 Q-3.35 -15.0 -3.35 -15.25 L-3.6 -15.7 -4.2 -15.9 M24.25 -27.65 Q21.9 -32.85 24.55 -38.3 L28.65 -46.3 30.05 -48.8 31.0 -50.7 32.05 -52.65 33.0 -54.65 33.95 -56.7 34.8 -58.85 35.55 -61.15 32.9 -55.8 32.8 -55.6 31.95 -54.25 31.35 -53.35 30.85 -52.5 31.35 -54.65 31.35 -54.7 31.65 -56.0 32.0 -57.35 32.3 -58.6 32.65 -59.9 33.1 -61.2 33.5 -62.6 36.05 -70.05 Q37.25 -73.35 39.5 -76.4 L41.35 -77.25 41.4 -77.25 42.0 -76.95 Q45.55 -75.05 48.6 -72.25 L47.15 -73.9 Q45.0 -76.35 42.2 -77.95 L43.35 -78.55 Q49.65 -77.55 53.45 -72.6 56.1 -69.15 57.75 -65.1 59.95 -59.7 61.05 -54.05 62.2 -48.15 63.95 -42.35 65.0 -38.7 63.85 -34.9 62.4 -30.2 59.5 -26.5 L55.6 -23.5 Q54.75 -22.95 53.8 -22.55 52.05 -21.8 50.1 -21.65 49.2 -21.95 48.45 -22.5 L48.65 -22.8 49.0 -23.2 50.2 -26.15 51.1 -27.45 Q52.8 -30.15 53.5 -33.35 L52.95 -33.7 52.6 -33.75 Q49.75 -30.9 47.15 -27.65 L44.15 -23.9 43.85 -23.9 40.1 -23.8 Q37.0 -24.0 34.1 -24.9 L31.5 -27.95 Q29.5 -30.3 26.7 -31.45 L26.65 -31.35 26.5 -31.05 Q26.15 -30.9 26.3 -30.5 L26.55 -29.85 26.7 -29.4 27.35 -28.0 27.85 -27.25 27.9 -27.1 28.25 -26.55 28.1 -26.3 27.85 -25.9 Q27.05 -25.75 26.35 -26.2 25.25 -26.85 24.4 -27.8 L24.25 -27.65 M18.25 -75.2 L18.1 -74.9 Q18.1 -74.7 18.25 -74.55 18.35 -74.45 18.55 -74.45 L18.9 -74.55 19.0 -74.9 18.9 -75.2 18.55 -75.35 18.25 -75.2 M19.2 -74.45 L19.05 -74.2 19.2 -73.9 19.5 -73.8 19.85 -73.9 19.95 -74.2 19.85 -74.45 19.5 -74.6 19.2 -74.45 M19.3 -73.45 L18.95 -73.6 18.65 -73.45 18.5 -73.15 18.65 -72.8 18.95 -72.7 19.3 -72.8 19.4 -73.15 19.3 -73.45 M19.4 -68.35 L19.1 -68.2 18.95 -67.85 19.1 -67.5 Q19.2 -67.35 19.4 -67.35 19.6 -67.35 19.75 -67.5 L19.85 -67.85 19.75 -68.2 19.4 -68.35 M20.05 -66.9 L20.25 -66.45 Q20.4 -66.3 20.65 -66.3 L21.1 -66.45 21.25 -66.9 21.1 -67.3 20.65 -67.5 20.25 -67.3 20.05 -66.9 M19.35 -66.0 L19.2 -65.65 Q19.2 -65.45 19.35 -65.3 19.5 -65.15 19.7 -65.15 19.9 -65.15 20.05 -65.3 L20.2 -65.65 20.05 -66.0 19.7 -66.15 19.35 -66.0 M18.5 -62.05 Q18.5 -61.7 19.05 -61.45 L20.25 -61.25 21.5 -61.45 Q22.0 -61.7 22.0 -62.05 L21.5 -62.6 20.25 -62.85 19.05 -62.6 Q18.5 -62.4 18.5 -62.05 M19.45 -63.25 L20.25 -63.05 21.1 -63.25 21.4 -63.8 21.1 -64.3 20.25 -64.55 19.45 -64.3 Q19.1 -64.1 19.1 -63.8 19.1 -63.5 19.45 -63.25 M18.85 -60.9 Q19.0 -59.45 20.25 -58.9 L20.55 -58.9 21.15 -59.35 19.55 -61.3 18.85 -60.9 M19.15 -59.1 L18.85 -58.95 18.7 -58.7 18.85 -58.4 Q18.95 -58.3 19.15 -58.3 L19.5 -58.4 19.6 -58.7 19.5 -58.95 19.15 -59.1 M19.65 -57.4 L19.8 -57.05 20.1 -56.95 20.45 -57.05 20.55 -57.4 20.45 -57.7 20.1 -57.85 19.8 -57.7 19.65 -57.4 M18.45 -56.7 L18.3 -56.3 Q18.3 -56.05 18.45 -55.9 18.6 -55.75 18.8 -55.75 19.0 -55.75 19.15 -55.9 L19.3 -56.3 19.15 -56.7 18.8 -56.85 18.45 -56.7 M19.1 -55.15 L18.35 -54.95 Q18.05 -54.75 18.05 -54.45 18.05 -54.15 18.35 -53.95 L19.1 -53.75 19.85 -53.95 20.15 -54.45 19.85 -54.95 19.1 -55.15 M16.3 -53.7 L16.0 -53.25 16.95 -52.3 16.55 -52.15 16.3 -51.8 17.75 -49.85 18.6 -50.55 17.45 -52.0 19.85 -50.95 20.45 -51.75 16.8 -53.85 16.3 -53.7 M28.4 -29.5 L28.35 -29.45 28.25 -29.65 28.4 -29.5 M17.85 -47.45 L17.4 -47.65 Q17.15 -47.65 17.0 -47.45 L16.8 -47.05 17.0 -46.6 Q17.15 -46.45 17.4 -46.45 L17.85 -46.6 18.0 -47.05 17.85 -47.45 M17.35 -49.1 L17.0 -49.25 16.7 -49.1 16.55 -48.75 16.7 -48.4 Q16.8 -48.25 17.0 -48.25 L17.35 -48.4 17.45 -48.75 17.35 -49.1 M15.65 -47.45 L15.2 -47.25 15.0 -46.85 15.2 -46.4 15.65 -46.25 16.1 -46.4 16.3 -46.85 16.1 -47.25 15.65 -47.45 M12.7 -46.55 Q12.1 -44.0 13.55 -42.0 L13.75 -41.95 14.0 -42.4 13.95 -45.4 13.6 -46.3 13.15 -46.7 12.7 -46.55 M14.35 -44.35 Q14.75 -43.4 15.6 -43.0 L15.95 -42.9 16.6 -43.45 15.0 -45.2 14.35 -44.35 M10.6 -43.95 L10.45 -42.7 Q10.3 -42.1 10.85 -41.85 L11.4 -41.9 Q12.65 -43.05 12.2 -44.55 L11.5 -45.1 Q10.6 -44.85 10.6 -43.95 M5.45 -47.55 Q4.5 -46.75 4.15 -45.7 L4.15 -45.75 3.9 -46.35 3.25 -46.65 2.65 -46.35 Q2.35 -46.1 2.35 -45.75 2.35 -45.4 2.65 -45.1 2.9 -44.85 3.25 -44.85 L3.9 -45.1 4.05 -45.35 3.95 -43.85 5.15 -43.55 5.6 -44.9 5.55 -44.65 Q5.55 -44.15 5.8 -43.8 6.0 -43.45 6.35 -43.45 6.7 -43.45 6.95 -43.8 L7.15 -44.65 6.95 -45.5 Q6.7 -45.85 6.35 -45.85 L5.8 -45.5 5.75 -45.45 6.2 -46.95 5.45 -47.55 M7.5 -45.3 L7.75 -45.2 8.05 -45.3 8.15 -45.6 8.05 -45.85 7.75 -46.0 7.5 -45.85 7.35 -45.6 7.5 -45.3 M7.75 -44.3 L7.55 -43.8 7.75 -43.25 Q7.95 -43.05 8.25 -43.05 L8.75 -43.25 8.95 -43.8 8.75 -44.3 8.25 -44.55 7.75 -44.3 M9.25 -45.4 Q8.55 -45.0 9.3 -44.75 9.8 -45.1 9.25 -45.4 M2.05 -37.7 L2.5 -37.5 Q2.75 -37.5 2.95 -37.7 L3.15 -38.15 2.95 -38.6 2.5 -38.8 2.05 -38.6 1.85 -38.15 2.05 -37.7 M1.55 -33.5 L1.0 -33.25 0.75 -32.7 Q0.75 -32.35 1.0 -32.1 L1.55 -31.9 2.15 -32.1 2.35 -32.7 2.15 -33.25 1.55 -33.5 M0.6 -31.0 L0.4 -30.55 0.6 -30.1 1.05 -29.9 Q1.3 -29.9 1.5 -30.1 L1.7 -30.55 1.5 -31.0 Q1.3 -31.2 1.05 -31.2 L0.6 -31.0 M30.4 -22.4 L30.25 -22.35 30.2 -22.45 30.4 -22.4 M26.7 -15.55 L27.1 -15.95 27.55 -17.9 27.95 -19.15 28.4 -20.75 28.75 -20.85 34.9 -21.5 39.9 -20.85 42.15 -20.2 42.45 -19.85 43.75 -19.55 50.35 -17.75 49.7 -12.75 49.6 -12.1 Q49.5 -11.0 48.65 -11.45 L48.6 -11.45 48.4 -11.4 45.05 -11.9 37.1 -13.35 26.7 -15.55 M44.55 -22.5 L44.6 -22.55 44.6 -22.45 44.55 -22.5" fill="#ffffff" fill-rule="evenodd" stroke="none"/>
    <path d="M-73.85 44.35 L-73.55 42.8 Q-72.3 37.0 -70.0 31.55 -68.5 28.1 -66.15 25.15 -63.6 21.8 -62.15 18.1 L-62.45 17.7 Q-62.0 17.1 -62.8 16.75 L-62.95 16.8 -63.75 17.65 -64.4 18.75 -66.85 22.25 -69.65 25.9 -70.6 26.8 Q-71.45 27.45 -71.55 28.6 L-71.75 31.0 -72.25 24.8 Q-72.3 23.85 -71.8 23.15 -68.85 19.35 -65.55 15.8 -64.9 15.0 -64.05 14.55 -59.95 12.25 -55.65 14.35 L-37.3 22.3 Q-32.2 24.25 -26.95 25.3 -19.9 26.95 -12.45 27.55 L-12.45 27.7 -19.05 29.0 -26.0 30.4 -33.05 31.95 -39.1 33.85 -40.8 34.45 -40.9 34.45 -41.4 34.5 -43.05 34.35 -43.4 34.3 -45.7 33.25 Q-46.8 32.65 -47.95 32.2 -48.1 32.0 -48.3 31.9 L-48.95 31.6 -49.0 31.55 Q-49.5 30.75 -50.5 30.8 -52.15 31.05 -53.8 31.7 L-54.5 31.95 Q-56.55 32.55 -58.4 33.7 L-58.6 33.8 Q-60.4 34.35 -60.0 36.15 L-59.8 36.85 -59.0 39.95 -58.45 42.0 -57.8 44.3 -57.5 44.95 -57.35 45.05 -57.4 45.1 -57.85 45.2 -58.0 45.2 -58.1 45.15 -58.9 43.9 Q-59.55 42.85 -60.65 42.55 L-60.9 42.7 Q-62.25 40.7 -62.8 38.45 -63.7 34.85 -62.75 31.45 -62.4 31.15 -61.95 31.0 -57.75 29.35 -54.2 26.85 L-54.45 26.8 Q-58.65 27.9 -62.25 30.25 L-63.2 31.4 -63.65 32.6 -63.7 32.75 -63.75 32.9 -63.75 33.0 -63.8 33.15 -64.1 34.7 -64.1 34.85 -64.1 36.45 -64.5 37.3 -66.05 41.5 -67.5 45.65 Q-68.4 47.4 -70.15 48.35 L-69.8 46.35 Q-69.65 45.3 -70.5 44.9 L-70.7 44.9 -70.75 44.9 Q-70.05 39.4 -67.55 34.55 -65.65 30.95 -62.6 28.35 -59.75 25.9 -57.35 22.85 L-57.4 22.4 -57.5 22.2 -57.7 22.0 -57.8 22.0 -57.85 22.0 -61.2 25.25 Q-66.2 29.6 -68.95 35.65 -70.45 38.9 -71.0 42.6 L-71.8 47.15 -72.4 49.75 -73.05 49.65 -73.8 49.4 -73.6 49.0 -73.15 47.7 -72.7 46.2 Q-72.4 44.8 -73.55 44.25 L-73.7 44.25 -73.85 44.35 M-71.45 32.95 L-71.5 33.05 -71.5 32.9 -71.45 32.95 M-56.1 45.0 L-56.0 44.85 -55.7 44.25 Q-55.3 43.2 -55.5 42.05 L-55.45 41.85 -55.1 40.5 Q-54.75 39.4 -53.9 38.55 -52.75 37.45 -51.2 36.95 L-49.05 36.3 -48.8 36.25 Q-48.15 36.2 -47.9 35.8 -45.75 36.1 -43.6 35.85 L-42.55 35.5 -39.35 34.45 -35.7 32.85 Q-34.55 32.3 -33.35 32.35 L-25.8 31.45 -19.95 30.45 -14.2 29.15 -8.45 27.9 -2.7 26.6 0.45 25.95 3.75 25.25 9.5 23.9 15.65 22.75 16.1 22.65 19.15 22.1 Q21.0 21.95 22.95 22.05 L28.95 23.0 38.55 25.25 Q43.1 26.25 47.65 27.85 L47.9 27.95 Q51.25 29.25 52.55 32.55 54.3 37.05 56.65 41.3 L56.15 42.75 54.6 44.05 54.5 43.9 54.1 43.5 Q52.35 41.9 51.3 39.8 L49.35 36.15 49.3 36.1 Q49.05 35.25 48.3 35.0 L47.95 35.0 Q47.55 35.05 47.35 35.35 47.05 35.85 47.15 36.45 L47.3 36.85 47.3 37.2 48.0 38.2 52.2 45.05 52.6 46.35 Q52.7 47.9 51.55 48.95 51.55 48.8 51.4 48.85 L50.15 48.7 49.95 48.5 Q48.25 47.1 46.95 45.3 L46.8 45.0 45.75 42.85 44.9 40.8 Q44.45 39.55 43.25 39.1 42.65 39.2 42.5 39.8 L42.45 40.15 42.45 40.2 42.6 43.05 Q44.85 45.95 46.6 49.15 47.6 50.8 46.45 52.35 L46.4 52.4 46.15 52.65 45.95 52.6 44.55 52.15 44.05 51.65 41.45 48.1 40.4 46.2 Q39.8 45.0 38.6 44.6 L38.4 44.65 Q38.0 44.8 37.95 45.2 L37.95 45.5 37.75 45.75 37.55 46.4 41.7 52.35 41.05 52.25 39.8 51.95 39.25 51.6 36.7 49.45 35.85 48.65 Q34.35 47.1 32.45 46.1 30.5 45.1 28.45 44.45 L26.4 43.8 24.25 43.05 21.2 41.8 19.0 40.7 15.4 37.95 15.15 37.75 14.25 36.95 Q13.25 35.65 12.95 34.1 L13.0 33.95 13.0 33.9 12.95 33.85 12.85 33.7 12.9 30.0 12.25 31.85 12.25 31.9 11.7 32.8 Q11.3 33.3 11.2 33.95 L11.15 34.05 Q10.8 34.5 10.7 35.15 L5.6 36.3 2.0 37.2 1.7 37.05 1.25 37.15 -1.9 37.9 -5.85 39.0 -8.75 39.75 -12.45 40.8 -14.75 41.4 -16.65 41.9 -21.6 43.3 -22.55 43.55 -24.65 44.15 -24.9 44.1 -25.4 44.2 -26.1 44.4 -32.2 46.15 -36.7 47.4 -38.8 48.05 -41.85 49.0 -46.05 50.35 -50.7 52.0 Q-53.3 53.0 -55.95 53.65 L-56.85 53.85 Q-57.9 54.1 -58.7 53.55 L-61.15 51.7 -61.45 51.45 -62.45 49.2 Q-63.1 47.1 -63.15 44.9 -63.15 44.5 -63.3 44.25 L-63.15 43.9 -62.35 45.05 -61.95 45.45 -59.8 46.8 -57.7 46.7 Q-56.6 46.15 -56.1 45.0 M-48.85 35.65 L-48.7 35.65 -48.85 35.65 M5.6 -53.65 L5.25 -52.95 4.05 -51.05 Q1.45 -47.05 -0.6 -42.85 -1.55 -40.95 -2.9 -39.45 -3.5 -34.7 -5.1 -30.05 L-7.05 -24.05 -7.7 -21.85 -8.1 -20.45 -10.05 -15.0 Q-10.65 -13.55 -11.4 -12.2 L-11.65 -12.55 -13.05 -16.6 -13.5 -18.45 -14.15 -22.85 -14.2 -23.7 -14.6 -28.05 -14.8 -29.75 -15.0 -30.6 -15.05 -30.8 -15.1 -30.6 -15.45 -27.75 -15.6 -26.75 -15.8 -24.6 -16.1 -20.2 Q-16.3 -17.9 -16.95 -15.75 L-17.6 -13.55 -18.15 -11.65 -18.4 -12.25 -19.2 -14.0 -20.45 -16.95 -21.85 -20.4 -23.65 -25.7 -25.75 -32.75 Q-26.75 -36.05 -27.15 -39.45 -29.7 -42.5 -31.4 -46.15 -32.85 -49.3 -34.6 -52.1 L-34.7 -52.25 -34.3 -52.0 -31.2 -49.95 -28.05 -48.0 Q-26.2 -46.95 -24.25 -46.1 L-20.0 -44.35 -16.05 -43.05 -14.45 -43.0 Q-12.35 -43.65 -10.35 -44.6 L-5.75 -46.8 -0.75 -49.3 -0.15 -49.6 0.4 -49.9 0.95 -50.2 3.0 -51.7 4.9 -53.1 5.4 -53.5 5.6 -53.65 M-75.2 12.95 Q-75.9 8.25 -76.75 3.8 L-78.2 -3.8 -78.5 -5.3 -79.45 -10.6 -63.7 -13.45 -56.9 -13.25 -56.6 -12.25 -56.45 -11.1 -56.15 -9.25 -55.55 -4.9 -55.45 -4.5 -55.3 -3.55 -54.6 0.8 -54.3 2.3 -54.1 4.1 -53.95 4.5 -53.85 5.05 -53.15 9.4 -52.6 13.7 Q-52.35 14.35 -52.35 15.1 L-54.95 13.9 Q-57.85 12.8 -60.9 12.4 -62.45 12.75 -63.7 13.65 -66.75 15.85 -69.35 18.75 L-72.1 22.2 -72.3 21.95 -72.35 21.8 -72.65 20.65 -72.95 19.65 -74.3 15.45 -75.2 12.95 M22.15 21.15 L22.2 20.95 22.45 18.95 23.05 14.6 23.25 13.0 23.45 10.95 23.6 10.1 24.2 5.75 24.35 4.5 25.05 0.1 25.55 -4.25 25.6 -4.75 25.65 -5.2 26.1 -7.65 26.45 -9.85 26.9 -12.05 27.0 -12.4 27.15 -12.95 33.15 -13.15 34.0 -13.05 34.8 -13.05 35.0 -13.0 35.1 -13.0 35.2 -13.05 35.2 -13.1 48.75 -10.6 47.65 -2.75 46.45 5.2 46.3 5.75 45.9 7.25 Q45.15 9.35 44.8 11.5 L44.0 14.7 42.75 19.0 41.5 23.2 41.05 24.45 Q40.95 24.65 41.0 24.8 L33.95 23.1 26.35 21.65 22.15 21.15 M44.85 15.95 L44.9 15.8 44.85 15.9 44.85 15.95 M57.15 41.25 L57.15 40.95 Q56.5 38.4 55.45 36.3 L60.55 37.7 Q61.05 39.4 60.8 40.55 L60.2 40.85 Q58.7 41.55 57.15 41.25 M-78.35 33.0 L-78.45 32.5 -78.5 32.35 -78.05 31.2 -73.3 28.7 -73.1 29.2 Q-72.7 30.5 -72.75 31.85 L-72.75 33.05 -73.35 33.2 -73.4 33.25 -74.15 33.5 -77.05 33.7 Q-78.0 33.7 -78.35 33.0" fill="#ffe3d5" fill-rule="evenodd" stroke="none"/>
    <path d="M-62.45 17.7 L-62.7 17.35 -63.2 18.8 Q-63.9 20.35 -64.75 21.7 -66.65 24.7 -68.8 27.35 -69.9 28.65 -70.6 30.25 L-71.45 32.95 -71.5 32.9 -71.75 31.0 -71.55 28.6 Q-71.45 27.45 -70.6 26.8 L-69.65 25.9 -66.85 22.25 -64.4 18.75 -63.75 17.65 -62.95 16.8 -62.8 16.75 Q-62.0 17.1 -62.45 17.7 M-40.8 34.45 L-42.0 34.9 -42.45 35.05 -43.7 35.5 Q-47.35 36.3 -50.45 33.8 L-51.7 33.95 -51.0 33.15 -51.15 32.4 -53.9 33.6 Q-56.2 34.75 -58.7 35.3 L-58.95 35.35 -58.9 35.4 -57.8 36.3 -57.75 38.15 -57.9 39.95 -57.9 40.0 -57.9 40.05 -57.85 40.05 -57.4 39.3 Q-56.6 41.25 -56.4 43.5 L-56.5 44.45 Q-56.75 44.95 -57.4 45.1 L-57.35 45.05 -57.5 44.95 -57.8 44.3 -58.45 42.0 -59.0 39.95 -59.8 36.85 -60.0 36.15 Q-60.4 34.35 -58.6 33.8 L-58.4 33.7 Q-56.55 32.55 -54.5 31.95 L-53.8 31.7 Q-52.15 31.05 -50.5 30.8 -49.5 30.75 -49.0 31.55 L-48.95 31.6 -48.3 31.9 Q-48.1 32.0 -47.95 32.2 -46.8 32.65 -45.7 33.25 L-43.4 34.3 -43.05 34.35 -41.4 34.5 -40.9 34.45 -40.8 34.45 M-57.95 46.05 Q-56.7 46.05 -56.1 45.05 L-56.1 45.0 Q-56.6 46.15 -57.7 46.7 L-59.8 46.8 -61.95 45.45 -62.35 45.05 -63.15 43.9 -63.3 44.25 Q-63.15 44.5 -63.15 44.9 -63.1 47.1 -62.45 49.2 L-61.45 51.45 -61.15 51.7 -58.7 53.55 Q-57.9 54.1 -56.85 53.85 L-55.95 53.65 Q-53.3 53.0 -50.7 52.0 L-46.05 50.35 -41.85 49.0 -38.8 48.05 -36.7 47.4 -32.2 46.15 -26.1 44.4 -25.4 44.2 -24.9 44.1 -24.65 44.15 -22.55 43.55 -21.6 43.3 -16.65 41.9 -14.75 41.4 -12.45 40.8 -8.75 39.75 -5.85 39.0 -1.9 37.9 1.25 37.15 1.7 37.05 2.0 37.2 5.6 36.3 10.7 35.15 Q10.8 34.5 11.15 34.05 L11.2 33.95 Q11.3 33.3 11.7 32.8 L12.25 31.9 12.1 33.8 12.35 35.75 12.4 37.2 11.6 37.75 10.9 37.8 10.2 37.65 8.85 37.15 0.6 39.95 -10.15 43.2 -21.1 46.45 -30.85 49.6 -37.65 51.45 -36.85 51.3 Q-40.15 52.4 -43.65 53.3 L-52.65 55.6 Q-55.9 56.4 -59.05 55.15 L-61.1 54.15 -63.4 52.25 -63.5 52.15 -64.75 50.9 -65.25 50.3 -65.5 50.0 -66.4 48.8 -65.35 46.4 -65.15 45.5 Q-64.55 42.85 -63.2 40.35 L-61.3 43.15 Q-61.45 43.55 -60.95 44.15 L-59.25 45.85 -58.7 46.1 Q-58.6 46.35 -58.2 46.25 L-57.95 46.05 M-55.5 42.05 L-55.75 41.25 -56.3 39.5 -57.0 36.5 -53.0 33.95 -48.95 35.6 -48.85 35.65 -48.7 35.65 -47.9 35.8 Q-48.15 36.2 -48.8 36.25 L-49.05 36.3 -51.2 36.95 Q-52.75 37.45 -53.9 38.55 -54.75 39.4 -55.1 40.5 L-55.45 41.85 -55.5 42.05 M54.6 44.05 L54.0 44.5 48.1 36.45 48.2 35.85 47.75 35.35 47.4 35.4 47.3 36.85 47.15 36.45 Q47.05 35.85 47.35 35.35 47.55 35.05 47.95 35.0 L48.3 35.0 Q49.05 35.25 49.3 36.1 L49.35 36.15 51.3 39.8 Q52.35 41.9 54.1 43.5 L54.5 43.9 54.6 44.05 M51.55 48.95 L51.2 49.2 50.5 49.6 Q49.4 49.4 48.85 48.75 L48.2 48.1 43.35 41.6 43.55 41.15 43.6 40.75 43.55 40.35 42.95 39.6 Q42.8 39.6 42.7 39.7 L42.45 40.15 42.5 39.8 Q42.65 39.2 43.25 39.1 44.45 39.55 44.9 40.8 L45.75 42.85 46.8 45.0 46.95 45.3 Q48.25 47.1 49.95 48.5 L50.15 48.7 51.4 48.85 Q51.55 48.8 51.55 48.95 M46.15 52.65 L45.55 53.0 Q44.05 52.75 42.75 51.65 39.8 49.55 38.75 45.8 38.5 45.0 37.95 45.5 L37.95 45.2 Q38.0 44.8 38.4 44.65 L38.6 44.6 Q39.8 45.0 40.4 46.2 L41.45 48.1 44.05 51.65 44.55 52.15 45.95 52.6 46.15 52.65 M41.7 52.35 L42.3 53.2 41.95 53.6 41.45 54.1 40.35 54.85 39.25 54.7 Q36.65 53.25 34.4 51.3 32.95 50.05 31.9 48.35 L27.45 46.7 20.3 44.15 Q16.35 42.6 14.25 39.05 L12.75 36.75 12.85 33.7 12.95 33.85 13.0 33.9 13.0 33.95 12.95 34.1 Q13.25 35.65 14.25 36.95 L15.15 37.75 15.4 37.95 19.0 40.7 21.2 41.8 24.25 43.05 26.4 43.8 28.45 44.45 Q30.5 45.1 32.45 46.1 34.35 47.1 35.85 48.65 L36.7 49.45 39.25 51.6 39.8 51.95 41.05 52.25 41.7 52.35 M-64.1 36.45 L-64.0 37.6 -63.95 37.9 -63.95 38.05 -63.9 38.1 -64.35 40.1 Q-64.9 43.3 -65.95 46.25 -66.65 48.3 -68.45 49.0 L-70.35 49.6 -70.55 49.65 -70.15 48.35 Q-68.4 47.4 -67.5 45.65 L-66.05 41.5 -64.5 37.3 -64.1 36.45 M-34.7 -52.25 L-35.0 -52.75 Q-36.55 -55.35 -37.55 -58.35 -39.1 -63.0 -39.2 -68.0 -39.35 -73.8 -35.55 -78.15 -33.5 -80.55 -30.7 -81.85 -26.85 -83.5 -22.65 -83.85 L-12.75 -84.1 -3.6 -83.35 -2.2 -83.05 -1.2 -82.75 0.1 -82.3 Q3.95 -80.4 6.6 -76.85 9.25 -73.3 9.2 -68.7 9.15 -63.9 7.8 -59.2 L6.2 -54.85 5.6 -53.65 5.4 -53.5 4.9 -53.1 3.0 -51.7 0.95 -50.2 0.4 -49.9 -0.15 -49.6 -0.75 -49.3 -5.75 -46.8 -10.35 -44.6 Q-12.35 -43.65 -14.45 -43.0 L-16.05 -43.05 -20.0 -44.35 -24.25 -46.1 Q-26.2 -46.95 -28.05 -48.0 L-31.2 -49.95 -34.3 -52.0 -34.7 -52.25 M-11.4 -12.2 L-11.7 -11.65 -12.25 -10.8 Q-12.7 -10.05 -13.3 -9.45 L-13.5 -9.4 -13.85 -9.8 -14.1 -11.4 -14.1 -13.7 -14.95 -30.05 -15.05 -29.25 -15.15 -30.05 -16.2 -9.85 -17.0 -9.8 -17.55 -10.35 -17.9 -11.1 -17.95 -11.2 -18.15 -11.65 -17.6 -13.55 -16.95 -15.75 Q-16.3 -17.9 -16.1 -20.2 L-15.8 -24.6 -15.6 -26.75 -15.45 -27.75 -15.1 -30.6 -15.05 -30.8 -15.0 -30.6 -14.8 -29.75 -14.6 -28.05 -14.2 -23.7 -14.15 -22.85 -13.5 -18.45 -13.05 -16.6 -11.65 -12.55 -11.4 -12.2 M-36.35 -57.25 Q-32.8 -54.75 -28.6 -53.0 -25.6 -51.8 -22.5 -51.1 -28.1 -52.8 -33.3 -55.6 L-36.35 -57.25 M-7.6 -51.1 Q-1.35 -52.95 4.45 -55.85 5.7 -56.45 6.3 -57.3 2.55 -54.9 -1.5 -53.35 L-7.6 -51.1 M-63.7 -13.45 L-60.65 -14.0 -60.6 -14.0 -54.3 -15.15 Q-53.65 -12.65 -53.4 -10.0 -52.9 -4.95 -52.05 0.1 L-50.55 10.0 -50.4 11.45 -49.85 15.4 -49.65 16.3 -52.35 15.1 Q-52.35 14.35 -52.6 13.7 L-53.15 9.4 -53.85 5.05 -53.95 4.5 -54.1 4.1 -54.3 2.3 -54.6 0.8 -55.3 -3.55 -55.45 -4.5 -55.55 -4.9 -56.15 -9.25 -56.45 -11.1 -56.6 -12.25 -56.9 -13.25 -63.7 -13.45 M-72.1 22.2 L-72.5 22.75 -72.55 22.85 -72.65 22.95 -72.9 23.65 -72.95 24.05 -73.0 27.2 -73.95 21.45 -74.35 18.65 -75.15 13.35 -75.2 12.95 -74.3 15.45 -72.95 19.65 -72.65 20.65 -72.35 21.8 -72.3 21.95 -72.1 22.2 M-17.3 -49.1 L-18.55 -49.65 Q-17.3 -47.95 -15.4 -47.3 L-14.7 -47.15 -11.7 -48.9 -11.55 -49.5 Q-12.95 -48.65 -15.2 -48.0 L-17.3 -49.1 M35.2 -13.1 L35.2 -13.05 35.1 -13.0 35.0 -13.0 34.8 -13.05 34.0 -13.05 33.15 -13.15 27.15 -12.95 27.0 -12.4 26.9 -12.05 26.45 -9.85 26.1 -7.65 25.65 -5.2 25.6 -4.75 25.55 -4.25 25.05 0.1 24.35 4.5 24.2 5.75 23.6 10.1 23.45 10.95 23.25 13.0 23.05 14.6 22.45 18.95 22.2 20.95 22.15 21.15 21.2 21.05 19.4 21.0 19.5 20.5 20.1 15.05 20.5 11.1 20.95 6.75 21.5 2.55 22.1 -1.55 22.4 -3.65 22.45 -4.05 Q23.0 -8.1 23.7 -12.0 L23.8 -12.75 23.85 -12.9 24.2 -15.15 35.2 -13.1 M41.0 24.8 Q40.95 24.65 41.05 24.45 L41.5 23.2 42.75 19.0 44.0 14.7 44.8 11.5 Q45.15 9.35 45.9 7.25 L46.3 5.75 46.45 5.2 46.3 6.2 44.9 15.8 44.85 15.95 43.4 24.45 43.2 25.35 41.8 25.0 41.0 24.8 M60.8 40.55 L60.55 41.25 59.6 42.25 Q58.7 42.8 57.2 42.95 L57.15 41.25 Q58.7 41.55 60.2 40.85 L60.8 40.55 M0.1 41.2 L9.35 38.75 10.9 39.05 12.45 39.3 13.25 39.3 Q14.6 41.6 16.7 43.35 19.65 45.65 23.3 46.6 25.4 47.1 27.4 47.9 32.1 49.75 35.25 54.0 L34.95 54.45 34.45 55.0 Q32.4 55.65 30.15 55.75 L29.85 55.75 26.25 55.7 25.75 55.65 21.4 54.85 19.35 54.4 15.15 53.05 12.1 51.85 11.9 51.8 3.7 48.95 Q0.4 47.6 -3.15 46.5 -6.65 45.45 -9.5 44.2 L-7.7 43.65 -1.7 41.7 0.1 41.15 0.1 41.2 M-72.75 33.05 L-72.75 33.5 -72.75 35.05 -74.15 35.65 -76.75 35.45 Q-78.1 34.95 -78.3 33.45 L-78.4 32.95 -78.35 33.0 Q-78.0 33.7 -77.05 33.7 L-74.15 33.5 -73.4 33.25 -73.35 33.2 -72.75 33.05" fill="#edb192" fill-rule="evenodd" stroke="none"/>
    <path d="M-53.7 -28.85 L-54.0 -27.9 -54.05 -27.9 -54.4 -27.05 -55.9 -24.55 -56.15 -24.2 -56.45 -23.8 -66.0 -22.35 -65.85 -22.45 -64.75 -23.2 -63.05 -24.7 -61.6 -26.5 -61.45 -26.75 Q-59.7 -29.4 -57.3 -30.35 L-57.3 -30.3 -57.25 -30.35 -57.05 -30.45 -56.75 -30.6 -56.4 -30.9 -56.4 -31.0 -56.45 -31.05 -56.15 -30.7 -56.15 -30.6 -57.4 -27.05 -57.45 -26.8 -53.7 -28.85 M-63.75 -25.55 L-64.95 -24.1 -66.0 -22.9 Q-68.8 -21.95 -71.95 -21.8 L-73.0 -22.7 -73.4 -23.2 -74.5 -24.45 -72.55 -23.8 -71.7 -23.65 Q-68.75 -23.7 -66.05 -24.75 L-65.4 -24.95 -63.75 -25.55 M-77.2 -22.9 L-76.0 -22.25 -76.65 -22.9 Q-79.75 -25.95 -81.65 -29.85 L-82.75 -32.0 -82.65 -32.5 Q-78.85 -29.5 -76.1 -24.95 -74.85 -22.8 -72.8 -21.1 -74.55 -20.25 -76.25 -19.8 L-80.65 -18.8 Q-85.65 -21.95 -89.55 -26.3 L-89.6 -26.35 -89.7 -26.45 -90.25 -27.1 -90.75 -27.7 -92.15 -29.85 -92.15 -29.9 Q-89.2 -27.65 -85.9 -26.0 -82.55 -24.3 -78.95 -23.2 L-77.2 -22.9 M-82.05 -17.35 L-86.2 -18.55 Q-90.8 -20.1 -90.0 -25.45 -87.05 -21.6 -82.45 -19.9 L-82.05 -17.35 M-48.9 -41.65 L-48.85 -44.7 -47.9 -44.65 Q-47.7 -40.25 -43.3 -39.5 -41.95 -39.35 -41.0 -40.25 L-39.6 -41.6 -38.85 -41.25 -38.6 -41.25 -37.8 -41.5 -37.15 -41.9 -34.45 -41.55 Q-33.35 -41.8 -32.55 -42.3 L-31.3 -43.0 Q-29.7 -40.3 -27.4 -37.9 L-27.35 -37.35 -27.25 -35.85 -27.35 -35.85 -27.85 -36.2 -27.85 -36.3 -27.85 -36.4 -28.95 -37.6 -28.8 -38.45 Q-29.0 -39.3 -29.7 -39.25 L-29.75 -39.0 -29.8 -38.75 -29.85 -38.65 -29.65 -38.25 -29.7 -38.0 -29.8 -38.05 -30.75 -38.5 -30.85 -38.95 -31.3 -39.65 -31.75 -39.0 -32.2 -39.25 -32.1 -39.4 -33.0 -39.8 -33.05 -39.7 -33.4 -39.9 Q-36.15 -38.35 -39.35 -38.35 -42.8 -36.35 -46.2 -38.25 -48.3 -39.45 -48.9 -41.65 M-18.2 -9.9 L-17.7 -8.9 -17.7 -8.85 -17.55 -8.55 -17.45 -8.4 -16.95 -7.25 Q-16.2 -5.7 -15.25 -4.5 L-14.0 -6.3 -12.35 -8.7 -11.8 -9.55 -11.25 -10.55 -11.2 -10.55 -10.4 -10.15 -10.6 -9.15 -10.05 -9.9 -9.7 -9.55 Q-10.25 -9.0 -9.9 -8.45 L-9.2 -9.05 -8.05 -8.45 -8.25 -8.3 -8.45 -7.85 -8.25 -7.4 -7.75 -7.2 Q-7.45 -7.2 -7.25 -7.4 L-7.05 -7.85 -7.15 -8.2 -5.25 -7.95 -3.45 -7.85 11.55 -7.85 16.5 -8.4 Q18.05 -8.7 19.15 -9.7 L19.75 -10.05 Q21.45 -12.15 21.9 -14.9 L22.0 -15.0 22.05 -15.1 22.1 -15.1 22.0 -11.85 21.9 -11.65 22.0 -11.6 21.05 -8.0 Q19.35 -3.55 15.2 -0.95 11.2 1.55 6.75 1.6 L-1.65 1.7 -10.6 1.7 Q-14.8 1.45 -18.9 1.5 L-27.7 1.6 -35.7 1.7 Q-40.15 1.8 -44.05 -0.2 -48.15 -2.35 -50.3 -6.45 -52.65 -11.0 -52.05 -16.1 L-51.8 -17.9 -51.55 -19.6 -51.4 -19.5 -51.3 -19.4 -51.1 -18.35 Q-50.05 -15.45 -48.3 -12.9 L-47.7 -12.1 Q-45.2 -9.15 -41.4 -8.35 -36.85 -7.35 -32.1 -7.45 L-27.25 -7.6 -23.8 -7.85 -24.15 -7.4 -23.95 -7.25 Q-22.95 -7.6 -22.0 -8.15 L-21.9 -8.15 -19.4 -7.4 Q-19.15 -8.0 -19.85 -8.4 L-20.4 -8.7 -19.6 -9.15 -19.05 -8.7 -19.4 -9.25 -19.0 -9.6 -18.2 -9.9 M-2.9 -35.45 L-2.75 -36.4 -2.75 -36.65 Q-2.65 -37.3 -2.7 -37.9 -0.65 -39.5 0.5 -41.85 L1.4 -43.35 Q3.75 -41.3 6.95 -41.6 L7.05 -41.9 Q7.45 -41.65 7.95 -41.5 L8.75 -41.25 9.55 -41.6 Q11.7 -38.65 15.05 -40.1 16.85 -40.9 17.4 -42.85 L17.5 -43.25 17.65 -43.65 17.85 -44.65 18.55 -44.6 18.8 -42.0 18.8 -41.95 Q18.65 -40.1 16.75 -38.85 15.8 -38.25 14.75 -37.9 12.4 -37.1 10.1 -37.85 9.05 -38.15 8.35 -38.95 L3.6 -39.25 Q2.8 -39.55 2.05 -40.0 L1.0 -39.05 0.6 -39.9 Q0.0 -39.6 0.2 -38.7 L0.3 -38.4 -1.25 -36.75 -0.65 -37.85 Q-0.15 -38.4 -0.55 -39.0 -0.6 -38.65 -0.95 -38.2 -1.85 -37.25 -1.85 -36.15 L-2.9 -35.45 M-58.05 -28.15 L-58.7 -27.2 -60.1 -25.25 -59.75 -25.4 -59.25 -25.75 -59.25 -25.8 Q-58.45 -26.4 -57.8 -27.3 -56.7 -28.75 -56.45 -30.65 L-58.05 -28.15 M-63.6 -21.8 L-61.5 -22.3 -61.45 -22.3 -55.8 -23.1 -55.35 -23.05 -54.45 -16.15 -55.9 -15.75 -56.95 -15.45 -57.0 -16.1 -57.0 -17.25 -57.6 -21.35 Q-58.1 -21.7 -58.95 -21.7 L-63.6 -21.8 M-22.65 -7.3 L-22.85 -6.8 Q-22.85 -6.5 -22.65 -6.3 L-22.15 -6.1 Q-21.85 -6.1 -21.65 -6.3 L-21.45 -6.8 -21.65 -7.3 -22.15 -7.5 -22.65 -7.3 M-21.25 -5.7 L-21.65 -5.4 -21.85 -4.75 -21.65 -4.05 -21.25 -3.8 Q-21.0 -3.8 -20.8 -4.05 L-20.65 -4.75 Q-20.65 -5.15 -20.8 -5.4 L-21.25 -5.7 M-21.7 -2.15 L-17.8 -3.9 -20.25 -0.8 -19.95 -0.5 -18.45 -0.95 -16.2 -1.0 -16.2 -1.1 -19.2 -1.6 -17.05 -4.2 -19.75 -3.75 Q-19.1 -4.4 -18.9 -5.2 L-18.7 -6.5 -19.85 -6.7 -19.45 -6.15 Q-19.7 -3.65 -21.75 -2.15 L-21.7 -2.15 M-11.15 -7.4 L-10.5 -5.05 -12.95 -5.25 -11.1 -2.95 Q-12.55 -3.4 -13.5 -2.35 L-14.2 -1.55 -13.75 -1.15 -13.15 -1.25 Q-13.25 -1.85 -12.45 -2.25 -11.15 -2.65 -10.2 -1.8 -9.9 -1.55 -9.75 -1.65 L-9.65 -2.0 -10.2 -3.1 -11.05 -4.2 -10.05 -4.1 -8.95 -3.1 -8.15 -3.45 -11.0 -7.9 -11.15 -7.4 M-11.9 -6.55 Q-12.65 -7.2 -13.5 -6.2 -14.3 -5.25 -13.9 -4.0 L-14.1 -2.6 -13.2 -4.0 -13.45 -5.05 -12.4 -6.35 -11.9 -6.55 M-18.05 -6.7 L-17.5 -4.9 Q-16.0 -4.15 -16.9 -2.65 L-16.9 -2.45 -15.85 -0.85 Q-15.3 -1.8 -16.1 -2.8 -15.7 -4.5 -17.1 -5.55 -17.0 -6.65 -18.0 -6.9 L-18.2 -6.8 -18.05 -6.7 M-17.5 -0.4 L-18.0 -0.2 -18.2 0.25 -18.0 0.7 Q-17.8 0.9 -17.5 0.9 L-17.0 0.7 -16.8 0.25 -17.0 -0.2 -17.5 -0.4 M-13.05 -0.3 L-12.8 0.1 -12.3 0.25 -11.75 0.1 -11.55 -0.3 -11.75 -0.7 -12.3 -0.85 -12.8 -0.7 -13.05 -0.3 M-9.05 -6.4 L-8.9 -5.9 -8.5 -5.7 Q-8.25 -5.7 -8.1 -5.9 -7.95 -6.1 -7.95 -6.4 L-8.1 -6.9 Q-8.25 -7.1 -8.5 -7.1 L-8.9 -6.9 -9.05 -6.4 M24.25 -27.65 L24.4 -27.8 Q25.25 -26.85 26.35 -26.2 27.05 -25.75 27.85 -25.9 L28.1 -26.3 28.25 -26.55 27.9 -27.1 27.85 -27.25 27.85 -27.3 Q28.4 -26.6 29.15 -26.05 L29.35 -25.9 29.85 -25.55 29.5 -26.0 26.9 -29.65 26.35 -30.65 26.55 -29.85 26.3 -30.5 Q26.15 -30.9 26.5 -31.05 L26.45 -30.85 26.65 -30.75 28.25 -29.65 28.35 -29.45 28.4 -29.5 Q31.0 -27.6 33.35 -25.1 L33.45 -25.0 35.9 -22.35 33.0 -22.8 33.05 -22.8 26.35 -23.8 25.35 -25.5 24.45 -27.25 24.25 -27.65 M34.1 -24.9 Q37.0 -24.0 40.1 -23.8 L43.85 -23.9 44.15 -23.9 42.45 -21.85 41.45 -21.75 Q38.45 -22.05 35.9 -22.9 L34.1 -24.9 M50.2 -26.15 L49.0 -23.2 48.65 -22.8 48.45 -22.5 Q49.2 -21.95 50.1 -21.65 52.05 -21.8 53.8 -22.55 54.75 -22.95 55.6 -23.5 L59.5 -26.5 57.15 -23.95 52.8 -20.25 50.6 -18.8 47.1 -19.6 44.05 -20.4 43.2 -20.8 42.75 -21.1 44.9 -23.4 47.85 -27.45 Q49.7 -30.45 52.45 -32.65 L52.7 -32.0 Q51.15 -28.95 49.2 -26.05 47.9 -24.05 45.95 -22.25 L46.35 -22.5 46.4 -22.55 48.45 -24.2 50.2 -26.15 M3.2 -41.9 Q2.9 -41.9 2.7 -41.7 L2.5 -41.2 2.7 -40.7 Q2.9 -40.5 3.2 -40.5 L3.7 -40.7 3.9 -41.2 3.7 -41.7 3.2 -41.9 M30.4 -22.4 L34.9 -21.5 28.75 -20.85 28.4 -20.75 27.95 -19.15 27.55 -17.9 27.1 -15.95 26.7 -15.55 26.4 -15.6 24.35 -16.15 25.3 -23.05 30.2 -22.45 30.25 -22.35 30.4 -22.4 M59.6 -22.2 L58.8 -20.1 55.75 -18.7 Q54.05 -18.0 52.35 -17.45 L51.95 -17.35 52.4 -19.9 Q57.0 -21.7 59.85 -25.35 60.15 -23.9 59.6 -22.2 M44.55 -22.5 L44.6 -22.45 44.6 -22.55 44.55 -22.5" fill="#d9e3e8" fill-rule="evenodd" stroke="none"/>
    <path d="M-51.05 -25.2 L-51.35 -24.05 -51.6 -23.2 Q-52.75 -19.25 -52.7 -15.05 L-54.4 -25.0 Q-53.05 -26.45 -52.4 -28.05 L-52.0 -29.5 -51.9 -29.2 -51.6 -27.7 -51.3 -26.25 -51.05 -25.2 M20.9 -27.4 L21.45 -28.95 21.95 -30.2 22.3 -28.7 Q22.9 -26.8 24.35 -25.0 L22.6 -15.05 Q22.2 -20.5 21.15 -25.95 L21.1 -26.2 20.9 -27.4" fill="#242435" fill-rule="evenodd" stroke="none"/>
    <path d="M20.55 -72.3 L20.95 -71.95 20.1 -71.15 21.0 -70.8 21.1 -70.2 20.2 -69.85 20.6 -69.45 20.65 -68.75 Q19.45 -68.3 18.75 -69.3 L19.3 -70.05 18.2 -70.9 18.85 -71.55 Q19.0 -72.75 20.4 -72.45 L20.45 -72.4 20.55 -72.3 M-46.0 -47.6 L-45.65 -47.45 -45.5 -47.1 -45.65 -46.75 -46.0 -46.6 -46.35 -46.75 -46.5 -47.1 -46.35 -47.45 -46.0 -47.6 M-47.75 -48.25 L-47.15 -48.0 -46.95 -47.4 -47.15 -46.8 Q-47.4 -46.55 -47.75 -46.55 -48.1 -46.55 -48.3 -46.8 L-48.55 -47.4 -48.3 -48.0 -47.75 -48.25 M-46.45 -49.45 L-46.25 -48.95 -46.45 -48.45 -46.9 -48.25 -47.35 -48.45 -47.55 -48.95 -47.35 -49.45 -46.9 -49.65 -46.45 -49.45 M-42.65 -47.1 L-41.95 -46.6 -44.1 -42.15 -44.95 -42.65 -44.9 -42.95 Q-44.15 -45.45 -42.65 -47.1 M-41.6 -44.3 L-41.4 -43.4 -41.6 -42.45 Q-41.8 -42.1 -42.1 -42.1 L-42.6 -42.45 -42.8 -43.4 -42.6 -44.3 Q-42.4 -44.7 -42.1 -44.7 -41.8 -44.7 -41.6 -44.3 M-45.05 -45.75 L-44.4 -45.25 -44.75 -44.55 -46.45 -43.9 -46.5 -44.95 -45.05 -45.75 M-48.1 -49.85 L-48.35 -50.8 -46.6 -51.55 -46.6 -51.45 Q-46.85 -50.05 -48.1 -49.85 M-47.55 -54.6 Q-47.55 -54.35 -47.85 -54.15 L-48.55 -53.95 -49.25 -54.15 -49.55 -54.6 -49.25 -55.05 -48.55 -55.25 -47.85 -55.05 -47.55 -54.6 M-47.2 -53.6 L-46.3 -53.25 -46.65 -52.2 -46.9 -52.15 Q-48.5 -51.1 -50.05 -51.75 L-49.9 -52.25 Q-48.8 -53.3 -47.2 -53.6 M-48.65 -56.3 Q-49.25 -56.9 -48.45 -56.6 -48.5 -56.15 -48.65 -56.3 M-48.75 -58.75 L-48.6 -58.35 Q-48.6 -58.1 -48.75 -57.95 -48.9 -57.8 -49.15 -57.8 L-49.55 -57.95 -49.7 -58.35 -49.55 -58.75 -49.15 -58.9 -48.75 -58.75 M-50.6 -60.4 L-49.15 -61.3 -48.65 -60.7 -49.7 -59.35 -50.55 -59.65 -50.6 -60.4 M-50.9 -56.95 L-50.7 -57.45 -50.25 -57.65 Q-50.0 -57.65 -49.8 -57.45 L-49.6 -56.95 -49.8 -56.45 Q-50.0 -56.25 -50.25 -56.25 L-50.7 -56.45 -50.9 -56.95 M-49.2 -64.85 L-48.9 -64.35 Q-48.9 -64.05 -49.2 -63.8 L-49.95 -63.6 -50.7 -63.8 -51.0 -64.35 -50.7 -64.85 -49.95 -65.1 -49.2 -64.85 M-48.8 -63.0 Q-48.25 -62.75 -48.25 -62.4 -48.25 -62.05 -48.8 -61.75 L-50.2 -61.5 -51.55 -61.75 Q-52.15 -62.05 -52.15 -62.4 L-51.55 -63.0 -50.2 -63.3 -48.8 -63.0 M-49.7 -66.25 L-49.6 -66.5 -49.4 -66.6 -49.2 -66.5 -49.1 -66.25 -49.2 -66.0 -49.4 -65.9 -49.6 -66.0 -49.7 -66.25 M-49.7 -68.05 L-49.4 -67.95 -49.3 -67.75 -49.4 -67.55 -49.7 -67.45 -49.95 -67.55 -50.1 -67.75 -49.95 -67.95 -49.7 -68.05 M-50.4 -67.05 L-50.25 -66.65 Q-50.25 -66.4 -50.4 -66.25 -50.55 -66.1 -50.8 -66.1 L-51.2 -66.25 -51.35 -66.65 -51.2 -67.05 -50.8 -67.2 -50.4 -67.05 M-49.7 -68.75 L-49.9 -69.1 -49.7 -69.45 -49.2 -69.6 -48.7 -69.45 -48.5 -69.1 -48.7 -68.75 -49.2 -68.6 -49.7 -68.75 M-49.65 -71.7 L-49.4 -72.2 -48.9 -72.45 -48.35 -72.2 -48.15 -71.7 -48.35 -71.15 -48.9 -70.95 -48.4 -70.8 Q-47.95 -70.6 -47.95 -70.3 -47.95 -70.0 -48.4 -69.8 L-49.5 -69.6 -50.6 -69.8 Q-51.05 -70.0 -51.05 -70.3 L-50.6 -70.8 -49.5 -71.0 -49.1 -70.95 -49.4 -71.15 -49.65 -71.7 M-49.15 -73.9 L-48.8 -73.75 -48.65 -73.4 -48.8 -73.05 -49.15 -72.9 -49.5 -73.05 -49.65 -73.4 -49.5 -73.75 -49.15 -73.9 M-47.9 -74.15 L-47.9 -74.05 Q-48.4 -74.05 -47.9 -74.15 M-47.75 -73.25 L-47.85 -73.0 Q-47.95 -72.9 -48.05 -72.9 -48.15 -72.9 -48.25 -73.0 L-48.35 -73.25 -48.25 -73.5 -48.05 -73.6 -47.85 -73.5 -47.75 -73.25 M-48.6 -75.1 L-48.25 -75.5 -47.4 -75.65 -46.55 -75.5 -46.2 -75.1 Q-46.2 -74.85 -46.55 -74.7 L-47.4 -74.55 -48.25 -74.7 -48.6 -75.1 M-33.05 -39.7 L-33.0 -39.8 -32.1 -39.4 -32.2 -39.25 -33.05 -37.9 -33.85 -38.35 -33.05 -39.7 M-31.75 -39.0 L-31.3 -39.65 -30.85 -38.95 -30.75 -38.5 Q-30.7 -38.1 -30.9 -37.75 -31.5 -36.45 -32.4 -35.35 L-30.1 -35.3 -32.0 -33.75 Q-29.65 -33.3 -28.4 -31.5 L-29.0 -30.95 -29.35 -31.6 -31.1 -32.35 Q-32.6 -32.6 -33.5 -32.95 L-33.5 -33.15 -31.7 -35.1 -32.9 -34.25 Q-33.9 -33.25 -35.2 -33.9 -35.0 -34.9 -34.1 -35.4 -33.35 -35.9 -32.8 -36.5 -32.25 -37.2 -32.1 -38.0 L-31.75 -39.0 M-29.7 -38.0 L-29.65 -38.25 -29.85 -38.65 -29.8 -38.75 -29.75 -39.0 -29.7 -39.25 Q-29.0 -39.3 -28.8 -38.45 L-28.95 -37.6 -29.0 -37.5 Q-27.75 -35.85 -28.85 -34.25 -27.4 -33.15 -27.9 -31.8 L-28.45 -33.15 -29.45 -34.4 -28.8 -35.6 -29.35 -37.05 -29.9 -37.5 -29.7 -38.0 M-23.8 -7.85 L-21.4 -11.2 -23.55 -10.35 -25.7 -9.6 -25.95 -9.7 -22.95 -13.15 -23.45 -14.3 -23.3 -14.6 -23.2 -14.6 -23.2 -14.65 -23.0 -14.55 Q-22.35 -14.05 -22.2 -13.2 -22.35 -12.35 -22.9 -11.4 L-23.1 -11.0 -21.05 -11.4 -22.7 -8.65 -21.65 -8.95 -20.4 -8.7 -19.85 -8.4 Q-19.15 -8.0 -19.4 -7.4 L-21.9 -8.15 -21.95 -8.2 -22.0 -8.15 Q-22.95 -7.6 -23.95 -7.25 L-24.15 -7.4 -23.8 -7.85 M-19.6 -9.15 L-20.45 -9.75 -20.7 -12.2 -21.55 -12.8 -21.7 -14.6 -21.0 -14.15 -20.8 -12.85 Q-19.25 -11.8 -19.95 -10.05 L-19.4 -9.25 -19.05 -8.7 -19.6 -9.15 M-1.85 -36.15 Q-1.85 -37.25 -0.95 -38.2 -0.6 -38.65 -0.55 -39.0 -0.15 -38.4 -0.65 -37.85 L-1.25 -36.75 Q-1.5 -36.05 -1.3 -35.05 L-2.6 -33.0 Q-2.8 -34.4 -1.75 -35.35 L-1.85 -36.15 M0.3 -38.4 L0.2 -38.7 Q0.0 -39.6 0.6 -39.9 L1.0 -39.05 1.2 -38.6 Q1.75 -37.55 2.65 -36.8 3.6 -36.0 3.35 -35.15 L0.3 -36.5 3.15 -33.2 1.7 -33.6 -0.15 -33.2 -1.95 -33.25 Q-0.95 -35.0 1.2 -34.5 L-0.6 -36.75 -0.6 -36.85 Q0.5 -37.2 1.45 -36.45 0.6 -37.35 0.3 -38.4 M-2.75 -29.25 L-3.1 -29.2 Q-4.5 -28.1 -3.75 -26.55 L-4.5 -25.25 -4.1 -26.8 Q-4.25 -29.0 -2.95 -30.9 L-2.35 -31.1 Q-3.25 -30.55 -2.75 -29.25 M-0.65 -29.1 L-1.8 -30.75 Q-2.25 -31.55 -1.7 -32.4 L2.35 -27.25 -1.3 -28.1 -2.05 -28.05 -0.15 -26.45 Q0.7 -25.65 1.15 -24.65 L0.9 -24.4 -1.45 -25.15 -3.15 -24.7 -4.0 -23.9 -4.0 -24.6 Q-3.65 -25.75 -2.55 -25.95 L-0.25 -25.7 -3.3 -28.1 -3.25 -28.25 -1.65 -28.6 0.05 -28.4 -0.65 -29.1 M-38.95 -43.8 L-38.5 -43.6 -38.35 -43.15 Q-38.35 -42.9 -38.5 -42.7 -38.7 -42.5 -38.95 -42.5 -39.2 -42.5 -39.35 -42.7 L-39.55 -43.15 -39.35 -43.6 -38.95 -43.8 M-39.85 -44.6 L-39.75 -44.35 -39.85 -44.05 -40.15 -43.95 Q-40.3 -43.95 -40.4 -44.05 L-40.55 -44.35 -40.4 -44.6 -40.15 -44.75 -39.85 -44.6 M-38.75 -44.9 L-38.65 -45.05 -38.5 -45.15 -38.3 -45.05 -38.25 -44.9 -38.3 -44.7 -38.5 -44.65 -38.65 -44.7 -38.75 -44.9 M-34.95 -47.65 Q-34.6 -47.65 -34.3 -47.05 L-34.05 -46.2 -33.95 -46.3 -33.35 -46.55 -32.7 -46.3 -32.45 -45.8 -32.7 -45.25 -33.35 -45.05 -33.95 -45.25 -34.05 -45.35 Q-34.1 -44.75 -34.3 -44.3 -34.6 -43.75 -34.95 -43.75 -35.3 -43.75 -35.55 -44.3 L-35.6 -44.4 -35.8 -43.85 Q-36.05 -43.55 -36.35 -43.55 -36.65 -43.55 -36.85 -43.85 L-37.1 -44.65 -36.85 -45.4 Q-36.65 -45.75 -36.35 -45.75 L-35.85 -45.45 -35.85 -45.7 -35.55 -47.05 -34.95 -47.65 M-26.0 -15.25 L-25.55 -15.45 -25.1 -15.25 -24.9 -14.85 -25.1 -14.4 -25.55 -14.25 -26.0 -14.4 -26.2 -14.85 -26.0 -15.25 M-25.55 -12.45 L-25.35 -13.2 -24.9 -13.5 -24.45 -13.2 -24.25 -12.45 -24.45 -11.7 -24.9 -11.4 -25.35 -11.7 -25.55 -12.45 M-28.7 -20.8 L-28.2 -21.1 Q-27.9 -21.1 -27.7 -20.8 L-27.5 -20.15 -27.7 -19.45 Q-27.9 -19.2 -28.2 -19.2 -28.5 -19.2 -28.7 -19.45 L-28.9 -20.15 -28.7 -20.8 M-28.05 -22.8 L-27.85 -22.35 -28.05 -21.9 Q-28.25 -21.7 -28.55 -21.7 L-29.05 -21.9 -29.25 -22.35 -29.05 -22.8 -28.55 -23.0 -28.05 -22.8 M-24.6 -19.1 Q-24.25 -19.0 -24.4 -18.6 L-26.0 -17.1 -24.45 -16.65 Q-23.2 -16.4 -23.35 -15.5 -25.3 -16.55 -27.6 -15.9 L-27.5 -16.5 Q-26.95 -18.0 -25.3 -18.6 -26.15 -18.4 -26.75 -17.9 -28.1 -16.75 -29.0 -17.6 L-26.35 -21.15 -26.55 -21.6 -25.95 -22.05 Q-24.7 -20.6 -26.35 -19.15 L-24.6 -19.1 M-24.8 -20.3 L-24.55 -21.9 -24.25 -20.6 Q-22.95 -19.5 -23.15 -17.85 L-22.1 -16.35 Q-21.35 -15.3 -22.3 -14.9 L-22.35 -15.05 Q-22.3 -16.65 -23.6 -17.3 -23.95 -17.7 -23.8 -18.2 -23.35 -19.9 -24.8 -20.3 M-27.8 -30.9 L-27.75 -30.85 Q-26.9 -29.9 -27.3 -28.7 -25.75 -27.55 -26.1 -25.65 L-25.35 -24.75 Q-24.45 -23.7 -25.1 -23.0 L-26.15 -25.0 -26.85 -25.3 Q-26.0 -27.2 -27.55 -28.05 L-27.8 -28.1 -27.85 -30.75 -27.8 -30.9 M-31.65 -26.05 Q-32.05 -25.9 -32.0 -26.3 L-30.55 -27.6 Q-30.15 -28.0 -30.05 -28.55 L-29.2 -30.55 -29.05 -30.4 -28.95 -29.65 Q-28.95 -28.2 -29.95 -27.4 L-27.55 -27.15 -27.55 -26.95 Q-28.05 -25.6 -29.35 -24.75 L-27.35 -24.25 Q-25.5 -23.8 -26.1 -22.5 L-26.45 -22.45 Q-26.6 -22.45 -26.65 -22.55 L-26.9 -22.7 Q-27.05 -23.45 -27.8 -23.65 L-31.55 -23.85 -28.55 -26.7 -31.65 -26.05 M-31.2 -30.35 L-30.75 -30.05 -30.55 -29.4 -30.75 -28.7 Q-30.95 -28.45 -31.2 -28.45 L-31.65 -28.7 -31.85 -29.4 -31.65 -30.05 -31.2 -30.35 M-31.4 -32.15 L-30.8 -31.9 -30.55 -31.3 -30.8 -30.7 Q-31.05 -30.45 -31.4 -30.45 L-32.0 -30.7 -32.25 -31.3 -32.0 -31.9 -31.4 -32.15 M-21.7 -2.15 L-21.75 -2.15 Q-19.7 -3.65 -19.45 -6.15 L-19.85 -6.7 -18.7 -6.5 -18.9 -5.2 Q-19.1 -4.4 -19.75 -3.75 L-17.05 -4.2 -19.2 -1.6 -16.2 -1.1 -16.2 -1.0 -18.45 -0.95 -19.95 -0.5 -20.25 -0.8 -17.8 -3.9 -21.7 -2.15 M-21.25 -5.7 L-20.8 -5.4 Q-20.65 -5.15 -20.65 -4.75 L-20.8 -4.05 Q-21.0 -3.8 -21.25 -3.8 L-21.65 -4.05 -21.85 -4.75 -21.65 -5.4 -21.25 -5.7 M-22.65 -7.3 L-22.15 -7.5 -21.65 -7.3 -21.45 -6.8 -21.65 -6.3 Q-21.85 -6.1 -22.15 -6.1 L-22.65 -6.3 Q-22.85 -6.5 -22.85 -6.8 L-22.65 -7.3 M-1.25 -22.8 L-1.75 -23.0 -1.95 -23.55 -1.75 -24.05 -1.25 -24.3 -0.75 -24.05 -0.55 -23.55 -0.75 -23.0 Q-0.95 -22.8 -1.25 -22.8 M-9.7 -9.55 L-9.35 -9.9 -7.7 -9.8 -8.75 -11.0 -8.75 -11.8 -6.75 -12.05 -7.55 -14.05 Q-8.2 -15.55 -7.1 -16.6 -5.8 -17.9 -4.05 -17.15 L-5.8 -18.7 -5.5 -19.1 -3.1 -18.75 Q-4.5 -20.3 -4.35 -22.5 L-4.05 -22.9 -3.6 -21.55 Q-3.2 -19.15 -1.0 -17.9 L-1.4 -17.3 -4.25 -18.25 -2.55 -17.35 -1.95 -16.25 -6.0 -16.45 -7.15 -14.7 -4.3 -10.45 -8.0 -11.35 -5.55 -8.3 -9.2 -9.1 -9.2 -9.05 -9.9 -8.45 Q-10.25 -9.0 -9.7 -9.55 M-8.05 -8.45 L-7.75 -8.5 -7.25 -8.3 -7.15 -8.2 -7.05 -7.85 -7.25 -7.4 Q-7.45 -7.2 -7.75 -7.2 L-8.25 -7.4 -8.45 -7.85 -8.25 -8.3 -8.05 -8.45 M-4.8 -23.35 L-5.05 -20.35 Q-6.35 -20.3 -6.25 -18.85 -6.2 -18.15 -6.85 -18.2 -7.2 -18.1 -7.15 -18.55 -6.95 -20.1 -5.65 -20.95 L-5.7 -21.65 Q-5.7 -22.7 -4.8 -23.35 M-1.45 -21.2 L-1.25 -20.7 -1.45 -20.2 Q-1.65 -20.0 -1.95 -20.0 L-2.45 -20.2 -2.65 -20.7 -2.45 -21.2 -1.95 -21.4 -1.45 -21.2 M-10.4 -10.15 L-10.25 -11.0 -9.85 -11.2 Q-10.2 -12.8 -8.8 -13.65 L-8.2 -15.1 -8.3 -13.2 -8.55 -13.1 Q-9.5 -12.25 -9.25 -11.0 L-10.05 -9.9 -10.6 -9.15 -10.4 -10.15 M-4.2 -15.9 L-3.6 -15.7 -3.35 -15.25 Q-3.35 -15.0 -3.6 -14.8 L-4.2 -14.6 -4.8 -14.8 -5.05 -15.25 -4.8 -15.7 -4.2 -15.9 M-5.75 -14.05 L-5.3 -14.3 -4.85 -14.05 -4.65 -13.45 -4.85 -12.85 Q-5.05 -12.6 -5.3 -12.6 L-5.75 -12.85 -5.95 -13.45 -5.75 -14.05 M-9.05 -6.4 L-8.9 -6.9 -8.5 -7.1 Q-8.25 -7.1 -8.1 -6.9 L-7.95 -6.4 Q-7.95 -6.1 -8.1 -5.9 -8.25 -5.7 -8.5 -5.7 L-8.9 -5.9 -9.05 -6.4 M-13.05 -0.3 L-12.8 -0.7 -12.3 -0.85 -11.75 -0.7 -11.55 -0.3 -11.75 0.1 -12.3 0.25 -12.8 0.1 -13.05 -0.3 M-17.5 -0.4 L-17.0 -0.2 -16.8 0.25 -17.0 0.7 -17.5 0.9 Q-17.8 0.9 -18.0 0.7 L-18.2 0.25 -18.0 -0.2 -17.5 -0.4 M-18.05 -6.7 L-18.2 -6.8 -18.0 -6.9 Q-17.0 -6.65 -17.1 -5.55 -15.7 -4.5 -16.1 -2.8 -15.3 -1.8 -15.85 -0.85 L-16.9 -2.45 -16.9 -2.65 Q-16.0 -4.15 -17.5 -4.9 L-18.05 -6.7 M-11.9 -6.55 L-12.4 -6.35 -13.45 -5.05 -13.2 -4.0 -14.1 -2.6 -13.9 -4.0 Q-14.3 -5.25 -13.5 -6.2 -12.65 -7.2 -11.9 -6.55 M-11.15 -7.4 L-11.0 -7.9 -8.15 -3.45 -8.95 -3.1 -10.05 -4.1 -11.05 -4.2 -10.2 -3.1 -9.65 -2.0 -9.75 -1.65 Q-9.9 -1.55 -10.2 -1.8 -11.15 -2.65 -12.45 -2.25 -13.25 -1.85 -13.15 -1.25 L-13.75 -1.15 -14.2 -1.55 -13.5 -2.35 Q-12.55 -3.4 -11.1 -2.95 L-12.95 -5.25 -10.5 -5.05 -11.15 -7.4 M16.3 -53.7 L16.8 -53.85 20.45 -51.75 19.85 -50.95 17.45 -52.0 18.6 -50.55 17.75 -49.85 16.3 -51.8 16.55 -52.15 16.95 -52.3 16.0 -53.25 16.3 -53.7 M19.1 -55.15 L19.85 -54.95 20.15 -54.45 19.85 -53.95 19.1 -53.75 18.35 -53.95 Q18.05 -54.15 18.05 -54.45 18.05 -54.75 18.35 -54.95 L19.1 -55.15 M18.45 -56.7 L18.8 -56.85 19.15 -56.7 19.3 -56.3 19.15 -55.9 Q19.0 -55.75 18.8 -55.75 18.6 -55.75 18.45 -55.9 18.3 -56.05 18.3 -56.3 L18.45 -56.7 M19.65 -57.4 L19.8 -57.7 20.1 -57.85 20.45 -57.7 20.55 -57.4 20.45 -57.05 20.1 -56.95 19.8 -57.05 19.65 -57.4 M19.15 -59.1 L19.5 -58.95 19.6 -58.7 19.5 -58.4 19.15 -58.3 Q18.95 -58.3 18.85 -58.4 L18.7 -58.7 18.85 -58.95 19.15 -59.1 M18.85 -60.9 L19.55 -61.3 21.15 -59.35 20.55 -58.9 20.25 -58.9 Q19.0 -59.45 18.85 -60.9 M19.45 -63.25 Q19.1 -63.5 19.1 -63.8 19.1 -64.1 19.45 -64.3 L20.25 -64.55 21.1 -64.3 21.4 -63.8 21.1 -63.25 20.25 -63.05 19.45 -63.25 M18.5 -62.05 Q18.5 -62.4 19.05 -62.6 L20.25 -62.85 21.5 -62.6 22.0 -62.05 Q22.0 -61.7 21.5 -61.45 L20.25 -61.25 19.05 -61.45 Q18.5 -61.7 18.5 -62.05 M19.35 -66.0 L19.7 -66.15 20.05 -66.0 20.2 -65.65 20.05 -65.3 Q19.9 -65.15 19.7 -65.15 19.5 -65.15 19.35 -65.3 19.2 -65.45 19.2 -65.65 L19.35 -66.0 M20.05 -66.9 L20.25 -67.3 20.65 -67.5 21.1 -67.3 21.25 -66.9 21.1 -66.45 20.65 -66.3 Q20.4 -66.3 20.25 -66.45 L20.05 -66.9 M19.4 -68.35 L19.75 -68.2 19.85 -67.85 19.75 -67.5 Q19.6 -67.35 19.4 -67.35 19.2 -67.35 19.1 -67.5 L18.95 -67.85 19.1 -68.2 19.4 -68.35 M19.3 -73.45 L19.4 -73.15 19.3 -72.8 18.95 -72.7 18.65 -72.8 18.5 -73.15 18.65 -73.45 18.95 -73.6 19.3 -73.45 M19.2 -74.45 L19.5 -74.6 19.85 -74.45 19.95 -74.2 19.85 -73.9 19.5 -73.8 19.2 -73.9 19.05 -74.2 19.2 -74.45 M18.25 -75.2 L18.55 -75.35 18.9 -75.2 19.0 -74.9 18.9 -74.55 18.55 -74.45 Q18.35 -74.45 18.25 -74.55 18.1 -74.7 18.1 -74.9 L18.25 -75.2 M9.25 -45.4 Q9.8 -45.1 9.3 -44.75 8.55 -45.0 9.25 -45.4 M7.75 -44.3 L8.25 -44.55 8.75 -44.3 8.95 -43.8 8.75 -43.25 8.25 -43.05 Q7.95 -43.05 7.75 -43.25 L7.55 -43.8 7.75 -44.3 M7.5 -45.3 L7.35 -45.6 7.5 -45.85 7.75 -46.0 8.05 -45.85 8.15 -45.6 8.05 -45.3 7.75 -45.2 7.5 -45.3 M5.45 -47.55 L6.2 -46.95 5.75 -45.45 5.8 -45.5 6.35 -45.85 Q6.7 -45.85 6.95 -45.5 L7.15 -44.65 6.95 -43.8 Q6.7 -43.45 6.35 -43.45 6.0 -43.45 5.8 -43.8 5.55 -44.15 5.55 -44.65 L5.6 -44.9 5.15 -43.55 3.95 -43.85 4.05 -45.35 3.9 -45.1 3.25 -44.85 Q2.9 -44.85 2.65 -45.1 2.35 -45.4 2.35 -45.75 2.35 -46.1 2.65 -46.35 L3.25 -46.65 3.9 -46.35 4.15 -45.75 4.15 -45.7 Q4.5 -46.75 5.45 -47.55 M10.6 -43.95 Q10.6 -44.85 11.5 -45.1 L12.2 -44.55 Q12.65 -43.05 11.4 -41.9 L10.85 -41.85 Q10.3 -42.1 10.45 -42.7 L10.6 -43.95 M14.35 -44.35 L15.0 -45.2 16.6 -43.45 15.95 -42.9 15.6 -43.0 Q14.75 -43.4 14.35 -44.35 M12.7 -46.55 L13.15 -46.7 13.6 -46.3 13.95 -45.4 14.0 -42.4 13.75 -41.95 13.55 -42.0 Q12.1 -44.0 12.7 -46.55 M15.65 -47.45 L16.1 -47.25 16.3 -46.85 16.1 -46.4 15.65 -46.25 15.2 -46.4 15.0 -46.85 15.2 -47.25 15.65 -47.45 M17.35 -49.1 L17.45 -48.75 17.35 -48.4 17.0 -48.25 Q16.8 -48.25 16.7 -48.4 L16.55 -48.75 16.7 -49.1 17.0 -49.25 17.35 -49.1 M17.85 -47.45 L18.0 -47.05 17.85 -46.6 17.4 -46.45 Q17.15 -46.45 17.0 -46.6 L16.8 -47.05 17.0 -47.45 Q17.15 -47.65 17.4 -47.65 L17.85 -47.45 M3.2 -41.9 L3.7 -41.7 3.9 -41.2 3.7 -40.7 3.2 -40.5 Q2.9 -40.5 2.7 -40.7 L2.5 -41.2 2.7 -41.7 Q2.9 -41.9 3.2 -41.9 M0.6 -31.0 L1.05 -31.2 Q1.3 -31.2 1.5 -31.0 L1.7 -30.55 1.5 -30.1 Q1.3 -29.9 1.05 -29.9 L0.6 -30.1 0.4 -30.55 0.6 -31.0 M1.55 -33.5 L2.15 -33.25 2.35 -32.7 2.15 -32.1 1.55 -31.9 1.0 -32.1 Q0.75 -32.35 0.75 -32.7 L1.0 -33.25 1.55 -33.5 M2.05 -37.7 L1.85 -38.15 2.05 -38.6 2.5 -38.8 2.95 -38.6 3.15 -38.15 2.95 -37.7 Q2.75 -37.5 2.5 -37.5 L2.05 -37.7" fill="#a0bbc5" fill-rule="evenodd" stroke="none"/>
    <path d="M-71.05 50.55 L-72.0 50.55 -72.05 50.5 -72.3 50.05 -72.1 49.55 Q-71.85 47.15 -70.9 45.05 L-70.75 44.9 -70.7 44.9 -70.5 44.9 Q-69.65 45.3 -69.8 46.35 L-70.15 48.35 -70.55 49.65 -70.6 49.7 Q-70.7 50.3 -71.05 50.55 M-74.65 49.9 L-75.15 49.85 Q-75.85 49.7 -75.7 48.95 L-75.05 46.5 -74.75 45.3 -74.4 44.7 -73.85 44.35 -73.7 44.25 -73.55 44.25 Q-72.4 44.8 -72.7 46.2 L-73.15 47.7 -73.6 49.0 -73.8 49.4 Q-74.1 49.85 -74.65 49.9 M-58.1 45.15 L-58.05 45.25 Q-57.85 45.55 -57.95 45.8 L-57.95 46.0 -57.95 46.05 -58.2 46.25 Q-58.6 46.35 -58.7 46.1 L-59.25 45.85 -60.95 44.15 Q-61.45 43.55 -61.3 43.15 L-60.9 42.7 -60.65 42.55 Q-59.55 42.85 -58.9 43.9 L-58.1 45.15" fill="#ffccff" fill-rule="evenodd" stroke="none"/>
  </g>
</svg>
