<?xml version="1.0" encoding="UTF-8" standalone="no"?>
<svg xmlns:ffdec="https://www.free-decompiler.com/flash" xmlns:xlink="http://www.w3.org/1999/xlink" ffdec:objectType="shape" height="130.65px" width="118.25px" xmlns="http://www.w3.org/2000/svg">
  <g transform="matrix(1.0, 0.0, 0.0, 1.0, 59.15, 65.35)">
    <path d="M5.1 -64.6 L14.45 -64.85 Q18.8 -64.15 22.75 -62.5 26.95 -60.8 30.8 -58.5 L35.2 -55.6 38.55 -52.95 42.75 -48.75 46.75 -44.15 49.05 -40.95 Q51.1 -37.65 52.75 -33.9 54.0 -31.2 54.9 -28.3 56.1 -24.65 56.95 -20.8 L58.3 -13.5 58.75 -9.9 Q59.25 -4.2 59.0 1.6 58.5 13.1 56.95 24.65 L56.15 27.9 Q51.7 39.25 44.85 49.0 L44.55 49.6 Q43.65 52.25 42.0 54.5 38.15 59.75 35.05 65.3 L34.15 42.9 26.0 49.6 23.05 51.75 Q14.25 57.85 2.95 62.0 L-2.15 62.15 Q-12.95 58.45 -22.5 52.1 -28.95 47.75 -35.15 42.3 L-35.05 64.3 -47.05 47.45 -47.9 45.85 -49.75 42.1 -51.1 39.25 -52.3 37.0 -54.0 33.95 -54.3 33.35 Q-56.3 29.25 -57.1 24.85 L-57.05 25.65 -57.6 21.4 -58.5 12.95 Q-58.85 8.8 -58.8 4.55 -59.65 -5.8 -58.35 -16.2 -56.45 -31.1 -47.5 -43.25 -37.75 -56.6 -23.7 -62.05 L-18.15 -63.95 Q-11.35 -66.2 -4.3 -64.8 L-2.2 -64.1 -0.2 -63.5 0.1 -63.55 5.1 -64.6 M4.9 -63.2 L3.9 -63.05 0.25 -62.2 -0.25 -62.3 -4.85 -63.0 -5.45 -63.1 Q-9.95 -64.1 -14.55 -63.05 -27.8 -59.8 -38.1 -50.75 L-42.5 -46.7 Q-55.5 -32.95 -57.6 -14.15 L-57.7 -13.4 -57.75 -13.05 -57.75 -13.0 -57.9 11.9 -57.9 12.0 -57.75 14.8 -57.75 14.9 -57.55 17.65 -57.5 17.7 -57.45 18.35 -57.2 20.4 -57.1 21.05 -55.95 26.75 -54.25 32.3 -55.35 24.95 -55.55 23.3 -55.6 22.65 Q-56.75 11.1 -55.75 -0.35 -55.0 -9.0 -52.8 -17.4 L-49.95 -26.2 -47.7 -31.7 -44.85 -37.65 -47.0 -32.7 -46.95 -32.75 -51.65 -18.35 Q-55.3 -3.75 -55.4 11.0 L-55.4 11.85 -55.15 19.05 -54.6 25.7 -54.6 25.8 -54.25 28.65 -53.45 32.45 -52.65 34.55 -51.3 37.45 -52.0 32.7 -52.65 26.3 -52.9 20.85 -52.95 20.8 -52.4 7.1 Q-51.8 0.5 -50.35 -6.05 -51.95 2.95 -52.15 11.9 L-52.15 12.0 -52.15 12.75 -52.15 14.25 Q-52.2 20.8 -51.4 27.4 L-51.45 27.2 -51.15 29.8 -51.1 29.85 -50.95 31.05 -50.35 34.7 -50.3 35.05 -49.8 37.55 -49.25 39.95 -48.2 43.2 -47.85 44.05 Q-46.9 45.85 -45.5 47.05 -47.1 41.75 -48.15 36.15 -50.4 24.35 -50.6 12.5 L-50.6 12.35 Q-50.8 3.4 -49.75 -5.65 -48.35 -18.2 -43.7 -29.55 L-41.15 -35.25 -40.55 -36.45 -39.55 -38.35 -41.45 -33.8 -43.9 -26.95 Q-47.65 -14.7 -49.0 -1.9 -50.4 11.3 -49.1 24.5 -48.65 29.35 -47.85 34.0 L-47.05 37.55 -46.4 41.35 -45.7 44.3 -45.6 44.7 -45.2 46.15 -40.75 55.85 -40.65 56.05 -40.45 56.4 -39.9 57.2 -40.0 56.9 -40.1 56.6 -42.25 48.5 -42.7 46.45 -43.05 44.95 Q-44.2 39.25 -44.85 33.5 -46.65 17.55 -45.45 1.9 L-45.45 2.0 Q-46.25 17.3 -44.3 32.6 L-44.6 30.8 Q-43.7 39.2 -41.85 46.85 -40.85 50.9 -39.65 53.9 L-39.6 53.95 -39.45 54.35 -38.55 56.3 -35.2 62.4 -36.3 41.85 -36.35 41.35 -36.8 32.65 -37.5 23.0 -38.1 13.9 Q-38.35 9.3 -38.2 4.55 L-38.15 0.7 -37.95 -4.6 -37.75 -7.25 Q-37.25 -14.5 -36.15 -21.4 -35.4 -25.95 -33.8 -30.2 L-32.25 -33.7 -29.95 -37.9 -29.9 -37.95 -29.15 -39.15 -31.1 -35.0 -32.3 -32.1 -35.6 -22.15 Q-36.7 -17.85 -37.15 -13.35 L-37.05 -13.8 Q-37.45 -11.1 -37.45 -8.5 L-37.4 -6.25 -36.35 0.3 Q-35.75 2.55 -34.1 4.25 -34.95 -3.6 -33.65 -11.55 L-33.25 -13.8 -33.1 -14.6 -33.05 -14.85 -32.55 -17.05 -32.05 -19.15 -31.85 -19.75 -30.25 -25.4 -28.85 -29.65 -29.6 -25.5 -30.0 -23.35 -31.25 -16.95 -32.05 -12.8 -31.7 -14.35 -31.95 -11.85 -32.05 -9.3 -32.35 -2.9 -32.35 -2.25 -33.1 -7.2 -33.45 5.6 -34.95 4.15 -36.3 2.05 -36.9 0.65 -37.3 -0.7 -37.35 2.4 -37.4 9.3 -37.4 9.4 -37.35 9.3 -35.3 39.8 Q-29.0 47.25 -20.25 53.1 -12.65 58.2 -3.85 61.1 -0.35 62.2 3.2 61.05 21.95 54.45 34.6 40.3 L36.65 5.05 36.95 -0.7 36.3 1.8 Q35.55 4.5 33.2 5.65 L32.85 -4.9 32.55 -1.85 31.95 1.4 Q31.15 4.9 28.7 7.45 L28.75 -2.05 28.65 -0.65 Q27.95 4.15 24.3 7.6 L22.6 8.95 23.5 -2.35 23.25 -0.6 Q22.2 5.45 18.55 10.4 L15.15 11.45 Q16.85 1.5 15.3 -8.45 15.45 0.1 12.6 8.05 L11.25 10.7 11.0 11.05 Q14.4 -4.25 9.9 -19.15 L9.25 -21.2 4.4 -19.75 6.4 -22.05 -0.2 -19.35 -6.75 -22.05 -4.7 -19.6 -9.6 -21.2 -10.05 -19.7 Q-14.8 -4.55 -11.4 11.1 -13.5 7.55 -14.35 3.4 L-15.65 -8.45 -15.7 11.6 -19.2 10.05 -19.5 9.45 -23.3 0.15 -23.35 -0.05 -24.0 -4.35 -23.15 9.1 Q-25.6 7.05 -27.0 4.15 L-28.3 0.85 -29.25 -1.9 -29.15 7.3 -31.4 3.9 -31.45 3.7 -31.85 1.05 Q-31.25 3.2 -29.95 5.3 L-29.95 4.6 -29.95 1.85 -29.95 -1.9 -29.8 -7.35 -29.75 -8.4 -29.7 -9.2 Q-29.65 -17.7 -26.55 -25.65 L-25.8 -27.4 Q-28.9 -17.6 -28.8 -7.35 L-28.75 -5.5 -28.65 -4.05 -28.6 -4.0 -28.45 -2.55 -24.75 6.45 -24.65 6.6 -23.95 7.5 Q-24.75 5.0 -24.75 2.1 -24.8 -7.85 -23.9 -17.8 L-23.7 -19.9 -22.2 -24.65 -20.85 -28.8 -20.85 -28.75 -21.9 -23.35 -22.75 -15.55 Q-23.15 -9.75 -22.6 -3.95 L-21.95 1.25 Q-21.15 6.45 -18.0 10.2 -17.5 10.15 -18.0 9.1 L-19.85 4.1 Q-20.9 0.35 -21.0 -3.55 L-19.45 -17.3 -20.5 -1.8 Q-20.35 2.15 -18.8 5.85 L-18.75 5.95 Q-17.8 8.2 -16.35 10.35 L-17.0 5.65 -17.0 6.5 Q-17.55 0.8 -17.15 -5.05 L-16.55 -10.9 Q-15.3 -19.6 -12.0 -27.65 L-13.5 -20.7 -14.45 -8.2 -14.65 -5.95 Q-14.4 -1.25 -13.25 3.45 L-13.55 -1.9 -13.55 -2.0 -13.55 -2.3 Q-13.65 -9.9 -12.15 -17.35 L-10.9 -22.0 Q-9.85 -25.0 -7.5 -25.45 L-0.2 -19.85 7.1 -25.45 7.85 -25.15 Q9.85 -24.2 10.75 -21.35 14.05 -11.0 13.2 -0.15 L13.1 3.05 Q14.65 -4.1 14.45 -11.1 L13.85 -14.6 11.9 -26.85 11.85 -27.0 12.4 -25.75 13.2 -22.95 16.3 -8.4 16.85 -5.5 Q17.2 -0.1 16.8 5.25 L16.65 6.5 16.6 5.55 16.5 9.8 17.2 8.6 17.6 7.75 18.95 4.0 19.1 3.2 19.85 -1.85 Q20.25 -4.8 20.15 -7.65 L19.8 -11.6 18.95 -17.7 19.25 -17.1 19.35 -16.7 20.05 -12.7 20.5 -8.85 Q20.75 -5.1 20.4 -1.6 L19.85 2.05 Q18.95 6.7 17.7 9.95 L17.6 10.15 17.75 10.0 Q21.1 5.05 22.2 -0.85 L22.5 -2.7 22.45 -3.85 Q22.9 -6.0 22.8 -8.6 L22.35 -15.7 21.8 -20.0 Q21.45 -22.05 21.35 -24.35 L20.4 -29.2 23.45 -16.95 23.55 -16.25 24.25 -10.6 24.55 -5.45 24.65 -0.4 Q24.4 3.6 23.55 7.5 L23.8 7.25 24.7 6.05 25.6 4.65 26.65 2.5 27.45 -0.45 27.85 -4.55 28.05 -11.4 Q28.05 -14.4 27.7 -17.45 L26.3 -24.5 25.45 -27.35 25.45 -27.4 25.5 -27.35 27.05 -23.8 27.9 -19.45 28.85 -12.85 28.85 -12.8 29.45 -0.85 29.45 -0.65 Q29.5 3.35 29.85 4.85 31.15 2.35 31.65 -0.1 L31.8 -1.6 31.85 -8.7 30.85 -19.45 30.2 -22.95 29.3 -27.45 30.85 -22.35 32.0 -17.9 32.4 -15.75 33.35 -9.55 33.9 -2.25 33.9 -0.5 Q33.85 2.9 34.05 3.9 L34.8 2.8 36.2 0.0 36.7 -1.2 37.05 -3.1 37.05 -4.1 37.05 -8.7 36.75 -12.95 36.2 -16.9 34.65 -24.25 Q33.8 -28.0 32.4 -31.6 L31.9 -32.75 29.95 -37.1 28.9 -39.1 30.6 -36.5 31.4 -34.95 Q33.05 -31.8 34.05 -28.4 L35.8 -22.15 37.05 -16.1 Q37.65 -12.55 37.9 -8.85 L38.2 -3.4 38.35 0.4 38.1 15.1 38.05 16.3 38.05 16.05 37.9 18.5 36.2 45.0 35.95 50.05 35.6 62.6 38.4 56.05 Q42.65 44.9 44.15 33.05 L44.15 32.85 44.2 32.35 44.2 32.5 44.75 26.15 Q44.65 32.4 43.85 38.55 L43.8 38.8 43.8 38.95 Q43.15 43.55 42.1 48.15 L41.55 50.4 41.0 52.35 39.55 57.2 Q41.3 54.6 42.55 51.65 L43.75 48.45 44.4 46.4 Q47.15 37.15 47.5 27.35 L47.55 7.25 48.15 16.0 48.15 20.85 Q48.1 26.9 47.65 32.95 L48.05 30.4 Q49.1 23.6 49.4 16.85 L49.4 16.8 49.5 13.35 49.5 13.2 49.35 4.4 Q49.05 -0.75 48.35 -5.8 L47.1 -12.65 45.85 -18.3 44.1 -24.8 43.1 -28.1 39.55 -38.1 40.75 -35.5 42.95 -30.45 44.8 -25.3 46.35 -20.0 47.7 -14.5 48.8 -8.85 49.2 -6.05 Q50.3 1.95 50.35 10.05 50.4 16.0 49.9 22.0 L48.7 31.75 48.45 33.15 48.05 35.25 47.7 36.75 Q46.35 42.1 45.35 47.1 L45.3 47.25 45.6 46.9 45.65 46.85 46.2 46.1 46.55 45.5 Q48.1 43.05 49.05 39.95 L50.25 35.55 Q51.55 29.65 51.9 23.5 52.6 9.25 50.15 -4.85 L49.95 -6.05 50.1 -5.35 Q54.45 14.95 51.5 34.75 L51.5 34.8 51.05 37.3 Q52.75 34.85 53.5 31.85 L53.8 30.2 54.05 28.5 54.15 27.95 54.35 26.0 Q55.15 18.85 55.15 11.8 L55.15 9.4 55.15 9.25 Q54.95 0.75 53.7 -7.6 L53.55 -8.55 46.15 -34.25 44.4 -37.9 46.4 -33.95 48.25 -29.75 49.85 -25.5 51.25 -21.15 52.5 -16.75 53.55 -12.3 54.4 -7.9 Q55.75 0.2 55.9 8.45 L55.95 10.0 55.95 11.6 55.8 16.35 55.8 16.8 55.7 18.95 55.65 19.15 55.45 21.75 Q55.0 26.8 54.05 31.5 L54.05 31.45 53.95 32.05 53.85 32.35 54.45 30.75 55.3 27.6 56.15 23.25 Q57.35 16.75 57.85 10.0 58.55 0.3 57.55 -9.3 L56.55 -16.7 54.05 -27.35 53.85 -27.75 Q50.55 -34.35 46.9 -40.6 L43.8 -45.2 36.9 -51.9 35.8 -52.75 Q26.1 -60.1 14.25 -62.9 L4.9 -63.2 M-13.25 3.45 L-13.25 3.55 -13.25 3.45 M-44.85 -37.65 L-44.8 -37.8 -44.85 -37.65 M44.45 -18.1 L46.65 -5.35 46.7 -4.85 46.75 -4.0 46.6 -5.35 45.6 -11.2 44.55 -16.25 43.8 -19.25 41.8 -25.7 39.5 -32.1 42.15 -25.2 44.45 -18.1" fill="#000000" fill-rule="evenodd" stroke="none"/>
    <path d="M-5.45 -63.1 L-4.85 -63.0 -0.25 -62.3 0.25 -62.2 3.9 -63.05 4.9 -63.2 3.55 -61.35 9.65 -60.1 6.15 -58.25 Q9.7 -58.15 13.05 -56.9 14.1 -56.45 14.1 -55.55 L6.05 -53.25 Q9.95 -51.9 12.95 -49.15 13.85 -48.35 12.95 -47.55 L5.55 -48.25 7.8 -46.4 Q10.6 -44.25 10.4 -41.35 L2.95 -44.1 Q4.15 -42.1 4.7 -39.9 5.25 -37.7 4.55 -36.5 L1.35 -41.4 0.25 -32.15 -0.15 -33.65 -1.3 -42.2 -5.8 -36.5 -2.45 -47.55 -11.2 -44.0 -4.7 -51.65 -12.25 -50.7 -4.3 -56.35 -10.15 -58.95 -2.8 -60.6 -5.45 -63.1 M56.15 23.25 L55.3 27.6 54.45 30.75 54.1 31.35 54.05 31.45 54.05 31.5 Q55.0 26.8 55.45 21.75 L55.65 19.15 55.7 18.95 55.8 16.8 55.8 16.35 55.95 11.6 56.15 23.25 M53.55 -8.55 L53.7 -7.6 Q54.95 0.75 55.15 9.25 L55.15 9.4 55.1 12.0 55.15 11.8 Q55.15 18.85 54.35 26.0 L54.15 27.95 54.05 28.5 53.8 30.2 53.5 31.85 Q52.75 34.85 51.05 37.3 L51.5 34.8 51.5 34.75 Q54.45 14.95 50.1 -5.35 L50.0 -6.3 47.95 -23.05 53.9 10.9 53.55 -8.55 M50.15 -4.85 Q52.6 9.25 51.9 23.5 51.55 29.65 50.25 35.55 L49.05 39.95 Q48.1 43.05 46.55 45.5 L46.4 45.4 46.2 46.1 45.65 46.85 45.6 46.9 45.45 47.0 45.35 47.1 Q46.35 42.1 47.7 36.75 L48.05 35.25 48.45 33.15 48.7 31.75 49.9 22.0 Q50.4 16.0 50.35 10.05 L50.65 12.35 Q51.15 6.4 50.65 0.45 L50.15 -4.85 M43.1 -28.1 L44.1 -24.8 45.85 -18.3 47.1 -12.65 48.35 -5.8 Q49.05 -0.75 49.35 4.4 L49.5 13.2 49.5 13.35 49.4 16.8 49.4 16.85 Q49.1 23.6 48.05 30.4 L47.65 32.95 Q48.1 26.9 48.15 20.85 L48.15 16.0 47.55 7.25 46.75 -4.0 46.7 -4.85 46.65 -5.35 44.45 -18.1 45.1 -17.3 45.15 -17.3 45.15 -17.35 45.4 -17.4 45.4 -17.65 43.05 -26.65 43.1 -28.1 M47.5 27.35 Q47.15 37.15 44.4 46.4 L43.75 48.45 42.55 51.65 Q41.3 54.6 39.55 57.2 L41.0 52.35 41.55 50.4 42.1 48.15 Q43.15 43.55 43.8 38.95 L43.85 38.55 Q44.65 32.4 44.75 26.15 L44.2 32.5 44.2 32.35 44.3 31.1 44.15 33.05 Q42.65 44.9 38.4 56.05 L35.6 62.6 35.95 50.05 36.2 45.0 37.9 18.5 38.05 16.05 38.05 16.3 38.1 15.1 38.35 0.4 38.2 -3.4 37.9 -8.85 Q37.65 -12.55 37.05 -16.1 L35.8 -22.15 34.05 -28.4 Q33.05 -31.8 31.4 -34.95 33.1 -32.2 34.45 -28.75 L36.05 -23.65 37.65 -16.75 38.4 -12.5 39.0 -8.2 39.55 -3.75 Q40.75 9.25 40.7 22.15 L41.7 -3.1 42.0 2.8 Q42.9 23.7 41.45 44.65 43.7 34.25 44.3 23.55 L45.6 3.55 44.9 43.15 47.5 27.35 M29.95 -37.1 L31.9 -32.75 32.55 -31.0 32.4 -31.6 Q33.8 -28.0 34.65 -24.25 L36.2 -16.9 36.75 -12.95 37.05 -8.7 37.05 -4.1 37.05 -3.1 36.7 -1.2 36.2 0.0 34.8 2.8 34.05 3.9 Q33.85 2.9 33.9 -0.5 L33.9 -2.25 33.35 -9.55 32.4 -15.75 32.0 -17.9 32.9 -16.3 35.65 -2.3 35.75 -2.75 Q36.15 -6.2 35.85 -9.65 L35.1 -15.15 33.85 -21.6 32.3 -28.05 30.45 -34.4 29.4 -37.6 29.95 -37.1 M30.85 -22.35 L29.3 -27.45 28.9 -29.25 31.35 -21.9 30.85 -22.35 M31.85 -8.7 L31.8 -1.6 31.65 -0.1 Q31.15 2.35 29.85 4.85 29.5 3.35 29.45 -0.65 L29.45 -0.85 28.85 -12.8 28.9 -12.8 28.85 -12.85 27.9 -19.45 27.05 -23.8 28.3 -22.6 31.85 -8.7 M25.5 -27.35 L25.45 -27.4 25.45 -27.35 24.1 -28.6 21.5 -35.1 21.6 -34.95 21.65 -35.05 26.85 -26.1 25.5 -27.35 M26.3 -24.5 L27.7 -17.45 25.2 -25.5 26.3 -24.5 M26.65 2.5 L25.6 4.65 24.7 6.05 23.8 7.25 23.55 7.5 Q24.4 3.6 24.65 -0.4 L24.55 -5.45 24.25 -10.6 23.55 -16.25 23.45 -16.95 20.4 -29.2 21.35 -24.35 20.15 -28.1 20.3 -29.9 22.55 -23.5 24.3 -17.75 25.6 -12.05 26.35 -6.25 26.7 -0.4 26.65 2.5 M22.5 -2.7 L22.2 -0.85 Q21.1 5.05 17.75 10.0 L17.7 9.95 Q18.95 6.7 19.85 2.05 L20.4 -1.6 Q20.75 -5.1 20.5 -8.85 L20.05 -12.7 19.35 -16.7 Q19.55 -16.15 19.8 -16.2 L20.0 -16.35 20.9 -11.6 22.2 -4.6 22.5 -2.7 M18.95 -17.7 L19.8 -11.6 20.15 -7.65 Q20.25 -4.8 19.85 -1.85 L19.1 3.2 18.95 4.0 17.6 7.75 17.2 8.6 16.5 9.8 16.6 5.55 16.65 6.5 16.8 5.25 Q17.2 -0.1 16.85 -5.5 L16.3 -8.4 13.2 -22.95 12.4 -25.75 11.85 -27.0 11.9 -26.85 10.55 -30.6 12.1 -27.45 14.8 -21.15 17.0 -14.75 18.7 -8.2 19.4 -4.9 18.45 -18.65 18.95 -17.7 M13.85 -14.6 L14.45 -11.1 Q14.65 -4.1 13.1 3.05 L13.2 -0.15 Q14.05 -11.0 10.75 -21.35 9.85 -24.2 7.85 -25.15 L7.1 -25.45 -0.2 -19.85 -7.5 -25.45 Q-9.85 -25.0 -10.9 -22.0 L-12.15 -17.35 Q-13.65 -9.9 -13.55 -2.3 L-13.65 -2.9 -13.55 -2.0 -13.55 -1.9 -13.25 3.45 Q-14.4 -1.25 -14.65 -5.95 L-14.45 -8.2 Q-14.0 -13.0 -12.95 -17.9 -11.65 -23.95 -7.0 -27.75 L-5.95 -27.8 0.45 -24.55 7.55 -27.5 8.0 -27.2 Q10.0 -24.6 11.4 -21.7 L13.6 -15.8 13.85 -14.6 M-13.5 -20.7 L-12.0 -27.65 Q-15.3 -19.6 -16.55 -10.9 L-17.15 -5.05 Q-17.55 0.8 -17.0 6.5 L-17.0 5.65 -16.35 10.35 Q-17.8 8.2 -18.75 5.95 L-18.65 5.9 -18.8 5.85 Q-20.35 2.15 -20.5 -1.8 L-19.55 1.15 Q-19.0 -11.7 -14.15 -23.7 -13.05 -26.5 -11.5 -28.35 L-13.5 -20.7 M-21.0 -3.55 Q-20.9 0.35 -19.85 4.1 L-18.0 9.1 Q-17.5 10.15 -18.0 10.2 -21.15 6.45 -21.95 1.25 L-22.6 -3.95 Q-23.15 -9.75 -22.75 -15.55 L-21.0 -3.55 M-22.2 -24.65 L-23.7 -19.9 -23.9 -17.8 Q-24.8 -7.85 -24.75 2.1 -24.75 5.0 -23.95 7.5 L-24.65 6.6 -24.75 6.45 -28.45 -2.55 -28.6 -4.0 -28.65 -4.05 -28.75 -5.5 -28.8 -7.35 -27.15 -2.7 -27.15 -4.7 Q-26.75 -15.8 -22.35 -25.95 L-22.2 -24.65 M-29.8 -7.35 L-29.95 -1.9 -29.95 1.85 -29.95 4.6 -29.95 5.3 Q-31.25 3.2 -31.85 1.05 -32.3 -0.6 -32.35 -2.25 L-32.35 -2.9 -32.05 -9.3 -31.95 -11.85 -31.7 -14.35 -32.05 -12.8 -31.25 -16.95 -31.15 -16.9 -30.9 -16.95 Q-30.55 -17.5 -30.35 -18.2 L-30.25 -18.6 -29.8 -7.35 M-30.0 -23.35 L-29.6 -25.5 -29.8 -24.0 -30.0 -23.35 M-28.85 -29.65 L-30.25 -25.4 -30.1 -27.8 -28.45 -31.5 -28.85 -29.65 M-31.85 -19.75 L-32.05 -19.15 -32.55 -17.05 -33.05 -14.85 -33.1 -14.6 -33.25 -13.8 -33.7 -11.6 -33.65 -11.55 Q-34.95 -3.6 -34.1 4.25 -35.75 2.55 -36.35 0.3 L-37.4 -6.25 -37.45 -8.5 Q-37.45 -11.1 -37.05 -13.8 L-37.15 -13.35 Q-36.7 -17.85 -35.6 -22.15 -36.2 -19.3 -36.4 -16.3 -36.7 -11.05 -35.7 -5.95 L-31.95 -22.7 -31.85 -19.75 M-33.8 -30.2 Q-35.4 -25.95 -36.15 -21.4 -37.25 -14.5 -37.75 -7.25 L-37.95 -4.6 -38.15 0.7 -38.2 4.55 Q-38.35 9.3 -38.1 13.9 L-37.5 23.0 -36.8 32.65 -36.35 41.35 -36.4 41.35 -36.3 41.85 -35.2 62.4 -38.55 56.3 -39.45 54.35 -39.35 54.25 -39.6 53.95 -39.65 53.9 Q-40.85 50.9 -41.85 46.85 -43.7 39.2 -44.6 30.8 L-44.3 32.6 Q-46.25 17.3 -45.45 2.0 -45.25 12.6 -43.95 23.5 -42.6 35.1 -39.4 46.4 L-37.75 51.55 Q-39.1 37.2 -41.15 22.85 -43.25 7.85 -42.45 -7.2 -42.15 -13.15 -40.75 -18.95 L-40.65 -19.25 Q-41.15 -8.95 -40.8 1.6 -40.55 8.25 -39.9 14.9 -40.65 4.85 -40.1 -5.1 -39.65 -14.05 -37.55 -22.9 L-36.6 -26.3 -33.8 -30.2 M-45.45 1.9 Q-46.65 17.55 -44.85 33.5 -44.2 39.25 -43.05 44.95 L-42.7 46.45 -42.25 48.5 -40.1 56.6 -40.0 56.9 -39.9 57.2 -40.45 56.4 -40.65 56.05 -40.75 55.85 -45.2 46.15 -45.6 44.7 -45.6 44.65 -45.7 44.3 -46.4 41.35 -47.05 37.55 -47.85 34.0 -47.4 35.4 Q-47.65 20.65 -47.2 5.9 -46.9 -4.5 -44.7 -14.7 L-45.1 -11.0 -44.7 -12.6 -45.45 1.9 M-43.7 -29.55 Q-48.35 -18.2 -49.75 -5.65 -50.8 3.4 -50.6 12.35 L-50.65 12.5 -50.6 12.5 Q-50.4 24.35 -48.15 36.15 -47.1 41.75 -45.5 47.05 -46.9 45.85 -47.85 44.05 L-48.2 43.2 -49.25 39.95 -49.8 37.55 -50.3 35.05 -50.35 34.7 -50.95 31.05 -51.1 29.85 -51.15 29.8 -51.45 27.2 -51.4 27.4 Q-52.2 20.8 -52.15 14.25 L-52.15 12.75 -52.1 12.15 -52.15 12.0 -52.15 11.9 Q-51.95 2.95 -50.35 -6.05 -51.8 0.5 -52.4 7.1 L-52.4 6.9 Q-51.7 -3.95 -49.35 -14.5 -47.15 -24.4 -43.25 -33.15 L-43.5 -31.55 -43.7 -29.55 M-52.95 20.8 L-52.9 20.85 -52.65 26.3 -52.0 32.7 -51.3 37.45 -52.65 34.55 -53.45 32.45 -54.25 28.65 -54.6 25.8 -54.6 25.7 -55.15 19.05 -55.4 11.85 -55.3 11.85 -55.4 11.0 Q-55.3 -3.75 -51.65 -18.35 L-53.65 -3.0 Q-55.05 9.05 -52.95 20.8 M-55.6 22.65 L-55.55 23.3 -55.35 24.95 -54.25 32.3 -55.95 26.75 -57.1 21.05 -57.2 20.4 -57.45 18.35 -57.5 17.7 -57.55 17.65 -57.75 14.9 -57.75 14.8 -55.6 22.65 M-57.9 12.0 L-57.9 11.9 -57.9 12.0 M19.5 -32.3 L19.15 -31.9 19.1 -33.15 19.5 -32.3 M19.15 -19.7 L18.05 -21.45 17.85 -24.25 19.15 -19.7 M-10.5 -51.75 L-10.6 -51.65 -10.5 -51.65 -10.5 -51.75 M-46.2 5.8 L-46.2 5.45 -46.25 6.0 -46.2 5.8 M-42.85 39.25 L-42.8 39.35 -42.8 39.3 -42.85 39.15 -42.85 39.1 -42.85 39.25 M38.0 47.25 L38.0 47.95 38.05 47.3 38.0 47.25 M39.2 35.5 L39.05 36.6 39.05 37.1 39.2 35.5" fill="#482d00" fill-rule="evenodd" stroke="none"/>
    <path d="M4.9 -63.2 L14.25 -62.9 Q26.1 -60.1 35.8 -52.75 L36.9 -51.9 50.25 -30.6 Q47.3 -35.1 43.6 -38.95 L39.75 -42.7 35.8 -46.45 Q34.7 -47.45 33.1 -47.95 L40.7 -27.05 39.1 -29.15 35.65 -33.25 Q32.9 -36.3 29.8 -38.75 L25.3 -42.15 25.2 -42.0 Q25.25 -41.35 25.55 -40.75 L27.8 -35.65 Q29.5 -31.9 30.55 -28.1 L32.3 -20.65 31.35 -21.9 28.9 -29.25 29.3 -27.45 30.2 -22.95 26.85 -26.1 21.65 -35.05 21.6 -34.95 21.5 -35.1 24.1 -28.6 19.5 -32.3 19.1 -33.15 19.15 -31.9 19.15 -19.7 17.85 -24.25 18.05 -21.45 12.05 -28.6 18.45 -18.65 19.4 -4.9 18.7 -8.2 17.0 -14.75 14.8 -21.15 12.1 -27.45 10.55 -30.6 11.9 -26.85 13.85 -14.6 13.6 -15.8 11.4 -21.7 Q10.0 -24.6 8.0 -27.2 L7.55 -27.5 0.45 -24.55 -5.95 -27.8 -7.0 -27.75 Q-11.65 -23.95 -12.95 -17.9 -14.0 -13.0 -14.45 -8.2 L-13.5 -20.7 -11.5 -28.35 Q-13.05 -26.5 -14.15 -23.7 -19.0 -11.7 -19.55 1.15 L-20.5 -1.8 -19.45 -17.3 -21.0 -3.55 -22.75 -15.55 -21.9 -23.35 -18.9 -17.45 -18.8 -17.45 -18.85 -17.4 -18.9 -17.4 -18.65 -16.9 -12.65 -28.75 -18.75 -19.5 -20.85 -28.75 -20.85 -28.8 -21.25 -36.2 Q-27.1 -31.55 -29.8 -24.0 L-29.6 -25.5 -28.85 -29.65 -28.45 -31.5 -30.1 -27.8 -28.5 -37.25 -31.1 -35.0 -29.15 -39.15 -29.9 -37.95 -29.95 -37.9 -32.25 -33.7 -34.3 -31.3 -42.95 -17.1 -41.45 -33.8 -39.55 -38.35 -40.55 -36.45 -41.15 -35.25 -41.0 -35.9 -40.65 -37.35 -40.45 -38.0 -40.45 -38.05 -40.45 -38.2 -39.3 -42.25 -44.85 -37.65 -53.6 -25.75 Q-51.15 -33.45 -47.0 -40.2 -44.95 -43.6 -42.5 -46.7 L-38.1 -50.75 Q-27.8 -59.8 -14.55 -63.05 -9.95 -64.1 -5.45 -63.1 L-2.8 -60.6 -10.15 -58.95 -4.3 -56.35 -12.25 -50.7 -4.7 -51.65 -11.2 -44.0 -2.45 -47.55 -5.8 -36.5 -1.3 -42.2 -0.15 -33.65 0.25 -32.15 1.35 -41.4 4.55 -36.5 Q5.25 -37.7 4.7 -39.9 4.15 -42.1 2.95 -44.1 L10.4 -41.35 Q10.6 -44.25 7.8 -46.4 L5.55 -48.25 12.95 -47.55 Q13.85 -48.35 12.95 -49.15 9.95 -51.9 6.05 -53.25 L14.1 -55.55 Q14.1 -56.45 13.05 -56.9 9.7 -58.15 6.15 -58.25 L9.65 -60.1 3.55 -61.35 4.9 -63.2 M43.8 -45.2 L46.9 -40.6 Q50.55 -34.35 53.85 -27.75 L51.65 -31.85 48.7 -37.0 45.15 -43.05 43.8 -45.2 M56.55 -16.7 L57.55 -9.3 Q58.55 0.3 57.85 10.0 57.35 16.75 56.15 23.25 L55.95 11.6 55.95 10.0 55.9 8.45 Q55.75 0.2 54.4 -7.9 L53.55 -12.3 52.5 -16.75 51.25 -21.15 49.85 -25.5 48.25 -29.75 46.4 -33.95 49.1 -30.35 51.55 -26.7 53.75 -22.9 Q55.4 -19.9 56.55 -16.7 M54.45 30.75 L53.85 32.35 53.95 32.05 54.05 31.45 54.1 31.35 54.45 30.75 M46.15 -34.25 L53.55 -8.55 53.9 10.9 47.95 -23.05 50.0 -6.3 50.1 -5.35 49.95 -6.05 50.15 -4.85 50.65 0.45 Q51.15 6.4 50.65 12.35 L50.35 10.05 Q50.3 1.95 49.2 -6.05 L48.8 -8.85 47.7 -14.5 46.35 -20.0 44.8 -25.3 42.95 -30.45 40.75 -35.5 39.55 -38.1 43.1 -28.1 43.05 -26.65 34.4 -46.0 46.15 -34.25 M55.15 9.4 L55.15 11.8 55.1 12.0 55.15 9.4 M46.55 45.5 L46.2 46.1 46.4 45.4 46.55 45.5 M45.6 46.9 L45.3 47.25 45.35 47.1 45.45 47.0 45.6 46.9 M47.55 7.25 L47.5 27.35 44.9 43.15 45.6 3.55 44.3 23.55 Q43.7 34.25 41.45 44.65 42.9 23.7 42.0 2.8 L41.7 -3.1 40.7 22.15 Q40.75 9.25 39.55 -3.75 L39.0 -8.2 38.4 -12.5 37.65 -16.75 36.05 -23.65 34.45 -28.75 Q33.1 -32.2 31.4 -34.95 L30.6 -36.5 43.8 -19.25 44.55 -16.25 45.6 -11.2 46.6 -5.35 46.75 -4.0 47.55 7.25 M43.8 38.95 L43.8 38.8 43.85 38.55 43.8 38.95 M44.2 32.35 L44.15 32.85 44.15 33.05 44.3 31.1 44.2 32.35 M31.9 -32.75 L32.4 -31.6 32.55 -31.0 31.9 -32.75 M30.85 -19.45 L31.85 -8.7 28.3 -22.6 30.85 -19.45 M28.85 -12.8 L28.85 -12.85 28.9 -12.8 28.85 -12.8 M27.7 -17.45 Q28.05 -14.4 28.05 -11.4 L27.85 -4.55 27.45 -0.45 26.65 2.5 26.7 -0.4 26.35 -6.25 25.6 -12.05 24.3 -17.75 22.55 -23.5 20.3 -29.9 25.2 -25.5 27.7 -17.45 M21.35 -24.35 Q21.45 -22.05 21.8 -20.0 L22.35 -15.7 22.8 -8.6 Q22.9 -6.0 22.45 -3.85 L22.5 -2.7 22.2 -4.6 20.9 -11.6 20.0 -16.35 19.95 -16.5 20.15 -28.1 21.35 -24.35 M17.75 10.0 L17.6 10.15 17.7 9.95 17.75 10.0 M-13.55 -2.3 L-13.55 -2.0 -13.65 -2.9 -13.55 -2.3 M-13.25 3.45 L-13.25 3.55 -13.25 3.45 M-18.75 5.95 L-18.8 5.85 -18.65 5.9 -18.75 5.95 M-28.8 -7.35 Q-28.9 -17.6 -25.8 -27.4 L-26.55 -25.65 Q-29.65 -17.7 -29.7 -9.2 L-29.75 -8.4 -29.8 -7.35 -30.25 -18.6 Q-28.5 -24.3 -25.4 -29.3 L-22.95 -32.95 -22.35 -25.95 Q-26.75 -15.8 -27.15 -4.7 L-27.15 -2.7 -28.8 -7.35 M-33.1 -14.6 L-33.25 -13.8 -33.65 -11.55 -33.7 -11.6 -33.25 -13.8 -33.1 -14.6 M-35.6 -22.15 L-32.3 -32.1 -31.05 -33.6 -31.95 -22.7 -35.7 -5.95 Q-36.7 -11.05 -36.4 -16.3 -36.2 -19.3 -35.6 -22.15 M-36.35 41.35 L-36.3 41.85 -36.4 41.35 -36.35 41.35 M-39.45 54.35 L-39.6 53.95 -39.35 54.25 -39.45 54.35 M-45.45 2.0 L-45.45 1.9 -44.7 -12.6 -45.1 -11.0 -44.7 -14.7 Q-46.9 -4.5 -47.2 5.9 -47.65 20.65 -47.4 35.4 L-47.85 34.0 Q-48.65 29.35 -49.1 24.5 -50.4 11.3 -49.0 -1.9 -47.65 -14.7 -43.9 -26.95 L-43.55 -13.15 -40.75 -18.95 Q-42.15 -13.15 -42.45 -7.2 -43.25 7.85 -41.15 22.85 -39.1 37.2 -37.75 51.55 L-39.4 46.4 Q-42.6 35.1 -43.95 23.5 -45.25 12.6 -45.45 2.0 M-45.6 44.7 L-45.7 44.3 -45.6 44.65 -45.6 44.7 M-50.6 12.35 L-50.6 12.5 -50.65 12.5 -50.6 12.35 M-52.15 12.75 L-52.15 12.0 -52.1 12.15 -52.15 12.75 M-52.4 7.1 L-52.95 20.8 Q-55.05 9.05 -53.65 -3.0 L-51.65 -18.35 -46.95 -32.75 -41.5 -39.4 -43.25 -33.15 Q-47.15 -24.4 -49.35 -14.5 -51.7 -3.95 -52.4 6.9 L-52.4 7.1 M-55.4 11.85 L-55.4 11.0 -55.3 11.85 -55.4 11.85 M-44.85 -37.65 L-44.8 -37.8 -44.85 -37.65 M-47.7 -31.7 L-49.95 -26.2 -52.8 -17.4 Q-55.0 -9.0 -55.75 -0.35 -56.75 11.1 -55.6 22.65 L-57.75 14.8 -57.9 12.0 -57.9 11.9 -57.75 -13.0 Q-56.45 -13.05 -56.15 -14.2 -53.65 -23.85 -47.7 -31.7 M-57.7 -13.4 L-57.6 -14.15 -57.65 -13.5 -57.7 -13.4 M32.9 -16.3 L34.4 -14.9 33.55 -21.1 32.3 -27.15 30.4 -33.1 27.95 -38.95 29.4 -37.6 30.45 -34.4 32.3 -28.05 33.85 -21.6 35.1 -15.15 35.85 -9.65 Q36.15 -6.2 35.75 -2.75 L35.65 -2.3 32.9 -16.3 M-10.5 -51.75 L-10.5 -51.65 -10.6 -51.65 -10.5 -51.75 M-40.65 -19.25 L-36.6 -26.3 -37.55 -22.9 Q-39.65 -14.05 -40.1 -5.1 -40.65 4.85 -39.9 14.9 -40.55 8.25 -40.8 1.6 -41.15 -8.95 -40.65 -19.25 M-46.2 5.8 L-46.25 6.0 -46.2 5.45 -46.2 5.8 M-42.85 39.25 L-42.85 39.1 -42.85 39.15 -42.8 39.3 -42.8 39.35 -42.85 39.25 M39.2 35.5 L39.05 37.1 39.05 36.6 39.2 35.5 M38.0 47.25 L38.05 47.3 38.0 47.95 38.0 47.25" fill="#996600" fill-rule="evenodd" stroke="none"/>
    <path d="M36.9 -51.9 L43.8 -45.2 45.15 -43.05 48.7 -37.0 51.65 -31.85 53.85 -27.75 54.05 -27.35 56.55 -16.7 Q55.4 -19.9 53.75 -22.9 L51.55 -26.7 49.1 -30.35 46.4 -33.95 44.4 -37.9 46.15 -34.25 34.4 -46.0 43.05 -26.65 45.4 -17.65 45.4 -17.4 45.15 -17.35 45.15 -17.3 45.1 -17.3 44.45 -18.1 42.15 -25.2 39.5 -32.1 41.8 -25.7 43.8 -19.25 30.6 -36.5 28.9 -39.1 29.95 -37.1 29.4 -37.6 27.95 -38.95 30.4 -33.1 32.3 -27.15 33.55 -21.1 34.4 -14.9 32.9 -16.3 32.0 -17.9 30.85 -22.35 31.35 -21.9 32.3 -20.65 30.55 -28.1 Q29.5 -31.9 27.8 -35.65 L25.55 -40.75 Q25.25 -41.35 25.2 -42.0 L25.3 -42.15 29.8 -38.75 Q32.9 -36.3 35.65 -33.25 L39.1 -29.15 40.7 -27.05 33.1 -47.95 Q34.7 -47.45 35.8 -46.45 L39.75 -42.7 43.6 -38.95 Q47.3 -35.1 50.25 -30.6 L36.9 -51.9 M30.2 -22.95 L30.85 -19.45 28.3 -22.6 27.05 -23.8 25.5 -27.35 26.85 -26.1 30.2 -22.95 M25.45 -27.35 L26.3 -24.5 25.2 -25.5 20.3 -29.9 20.15 -28.1 19.95 -16.5 20.0 -16.35 19.8 -16.2 Q19.55 -16.15 19.35 -16.7 L19.25 -17.1 18.95 -17.7 18.45 -18.65 12.05 -28.6 18.05 -21.45 19.15 -19.7 19.15 -31.9 19.5 -32.3 24.1 -28.6 25.45 -27.35 M-21.9 -23.35 L-20.85 -28.75 -18.75 -19.5 -12.65 -28.75 -18.65 -16.9 -18.9 -17.4 -18.85 -17.4 -18.8 -17.45 -18.9 -17.45 -21.9 -23.35 M-20.85 -28.8 L-22.2 -24.65 -22.35 -25.95 -22.95 -32.95 -25.4 -29.3 Q-28.5 -24.3 -30.25 -18.6 L-30.35 -18.2 Q-30.55 -17.5 -30.9 -16.95 L-31.15 -16.9 -31.25 -16.95 -30.0 -23.35 -29.8 -24.0 Q-27.1 -31.55 -21.25 -36.2 L-20.85 -28.8 M-30.25 -25.4 L-31.85 -19.75 -31.95 -22.7 -31.05 -33.6 -32.3 -32.1 -31.1 -35.0 -28.5 -37.25 -30.1 -27.8 -30.25 -25.4 M-32.25 -33.7 L-33.8 -30.2 -36.6 -26.3 -40.65 -19.25 -40.75 -18.95 -43.55 -13.15 -43.9 -26.95 -41.45 -33.8 -42.95 -17.1 -34.3 -31.3 -32.25 -33.7 M-41.15 -35.25 L-43.7 -29.55 -43.5 -31.55 -43.25 -33.15 -41.5 -39.4 -46.95 -32.75 -47.0 -32.7 -44.85 -37.65 -47.7 -31.7 Q-53.65 -23.85 -56.15 -14.2 -56.45 -13.05 -57.75 -13.0 L-57.75 -13.05 -57.7 -13.4 -57.65 -13.5 -57.6 -14.15 Q-55.5 -32.95 -42.5 -46.7 -44.95 -43.6 -47.0 -40.2 -51.15 -33.45 -53.6 -25.75 L-44.85 -37.65 -39.3 -42.25 -40.45 -38.2 -40.45 -38.05 -40.45 -38.0 -40.65 -37.35 -41.0 -35.9 -41.15 -35.25" fill="#fedeab" fill-rule="evenodd" stroke="none"/>
    <path d="M-31.85 1.05 L-31.45 3.7 -31.4 3.9 -29.15 7.3 -29.25 -1.9 -28.3 0.85 -27.0 4.15 Q-25.6 7.05 -23.15 9.1 L-24.0 -4.35 -23.35 -0.05 -23.3 0.15 -19.5 9.45 -19.2 10.05 -15.7 11.6 -15.65 -8.45 -14.35 3.4 -14.2 12.6 -17.7 12.2 -22.15 6.5 -21.9 10.8 Q-25.6 9.35 -27.4 5.6 L-26.95 9.3 Q-31.45 7.05 -32.5 2.05 L-32.5 8.35 -37.35 2.4 -37.3 -0.7 -36.9 0.65 -36.3 2.05 -34.95 4.15 -33.45 5.6 -33.1 -7.2 -32.35 -2.25 Q-32.3 -0.6 -31.85 1.05 M-10.05 -19.7 L-9.6 -21.2 -4.7 -19.6 -6.75 -22.05 -0.2 -19.35 6.4 -22.05 4.4 -19.75 9.25 -21.2 9.9 -19.15 2.0 -18.0 2.7 -19.2 -0.1 -18.0 -0.5 -18.15 Q-1.95 -18.75 -3.3 -18.8 L-3.15 -18.25 -10.05 -19.7 M12.6 8.05 Q15.45 0.1 15.3 -8.45 16.85 1.5 15.15 11.45 L18.55 10.4 Q22.2 5.45 23.25 -0.6 L23.5 -2.35 22.6 8.95 24.3 7.6 Q27.95 4.15 28.65 -0.65 L28.75 -2.05 28.7 7.45 Q31.15 4.9 31.95 1.4 L32.55 -1.85 32.85 -4.9 33.2 5.65 Q35.55 4.5 36.3 1.8 L36.95 -0.7 36.65 5.05 31.8 9.35 31.75 5.0 Q30.3 9.0 26.75 10.7 L27.3 5.5 Q25.4 10.75 20.5 11.35 L21.15 8.65 19.55 11.5 14.05 12.45 14.55 8.3 11.7 12.75 12.6 8.05" fill="#edb192" fill-rule="evenodd" stroke="none"/>
    <path d="M-14.35 3.4 Q-13.5 7.55 -11.4 11.1 -14.8 -4.55 -10.05 -19.7 L-3.15 -18.25 -3.3 -18.8 Q-1.95 -18.75 -0.5 -18.15 L-0.1 -18.0 2.7 -19.2 2.0 -18.0 9.9 -19.15 Q14.4 -4.25 11.0 11.05 L11.25 10.7 12.6 8.05 11.7 12.75 14.55 8.3 14.05 12.45 19.55 11.5 21.15 8.65 20.5 11.35 Q25.4 10.75 27.3 5.5 L26.75 10.7 Q30.3 9.0 31.75 5.0 L31.8 9.35 36.65 5.05 34.6 40.3 Q21.95 54.45 3.2 61.05 -0.35 62.2 -3.85 61.1 -12.65 58.2 -20.25 53.1 -29.0 47.25 -35.3 39.8 L-37.35 9.3 -37.4 9.3 -37.35 2.4 -32.5 8.35 -32.5 2.05 Q-31.45 7.05 -26.95 9.3 L-27.4 5.6 Q-25.6 9.35 -21.9 10.8 L-22.15 6.5 -17.7 12.2 -14.2 12.6 -14.35 3.4" fill="#ffe3d5" fill-rule="evenodd" stroke="none"/>
    <path d="M38.95 12.2 Q33.95 6.75 27.55 4.3 24.9 3.5 22.25 3.0 L16.35 2.65 Q13.55 2.85 10.9 3.85 L9.9 4.15 8.2 4.8 Q8.6 3.45 9.7 2.65 L10.65 2.45 16.5 1.75 22.4 2.05 Q25.0 2.6 27.6 3.6 33.7 6.15 38.25 11.25 L38.95 12.2 M-9.4 2.65 Q-8.3 3.45 -7.9 4.8 L-9.55 4.15 -10.6 3.85 Q-13.25 2.85 -16.05 2.65 L-21.95 3.0 -27.2 4.3 Q-33.65 6.75 -38.65 12.2 L-37.95 11.25 Q-33.4 6.15 -27.25 3.6 -24.7 2.6 -22.1 2.05 L-16.2 1.75 -10.35 2.45 -9.4 2.65" fill="#000000" fill-rule="evenodd" stroke="none"/>
    <path d="M-1.4 38.55 L-0.5 38.85 0.85 38.75 2.8 38.7 Q3.15 38.8 2.95 39.15 L2.7 39.35 1.0 40.05 -0.35 40.65 -0.45 40.65 -0.6 40.7 -1.25 40.55 -1.45 40.45 -4.05 38.95 -4.7 38.6 Q-5.2 38.35 -5.3 37.9 -5.55 37.6 -5.3 37.25 -4.4 36.05 -4.1 34.6 L-3.75 33.6 -3.15 30.85 -3.05 29.35 Q-3.0 27.85 -3.1 26.4 -3.2 25.05 -3.55 23.8 L-3.55 23.75 -3.5 23.7 -3.45 23.7 -3.35 23.7 -3.2 24.0 -3.15 24.0 Q-2.55 25.3 -2.25 26.75 L-1.8 29.15 -1.95 28.7 Q-1.85 29.45 -1.9 30.55 L-2.05 31.9 Q-2.4 35.1 -3.7 38.1 L-0.4 40.5 Q-0.3 39.7 -1.25 38.7 L-1.4 38.55" fill="#edb192" fill-rule="evenodd" stroke="none"/>
    <path d="M-1.8 29.15 Q-0.45 33.25 -1.75 37.25 L-1.8 37.55 -1.75 37.95 -1.4 38.55 -1.25 38.7 Q-0.3 39.7 -0.4 40.5 L-3.7 38.1 Q-2.4 35.1 -2.05 31.9 L-1.9 30.55 Q-1.85 29.45 -1.95 28.7 L-1.8 29.15" fill="#000000" fill-rule="evenodd" stroke="none"/>
  </g>
</svg>
