<?xml version="1.0" encoding="UTF-8" standalone="no"?>
<svg xmlns:ffdec="https://www.free-decompiler.com/flash" xmlns:xlink="http://www.w3.org/1999/xlink" ffdec:objectType="shape" height="8.95px" width="15.95px" xmlns="http://www.w3.org/2000/svg">
  <g transform="matrix(1.0, 0.0, 0.0, 1.0, 8.0, 4.45)">
    <path d="M-6.1 -3.5 L-5.55 -3.65 -5.4 -3.6 -4.7 -3.65 -4.3 -3.75 -2.3 -4.35 -1.95 -4.2 1.2 -4.05 1.9 -4.25 2.7 -4.45 2.9 -4.4 3.5 -4.3 4.35 -4.0 4.9 -3.85 5.6 -3.75 5.9 -3.75 6.25 -3.65 6.5 -3.55 5.75 -3.4 5.05 -3.3 3.25 -3.15 3.5 -3.5 3.5 -3.55 2.6 -3.25 2.6 -3.2 2.65 -3.15 1.05 -2.9 -1.3 -2.95 -2.05 -3.1 -2.75 -3.25 -3.1 -3.55 -3.15 -3.35 -3.05 -3.3 -3.05 -3.2 -2.55 -2.85 -3.2 -2.9 -4.75 -3.15 -6.1 -3.5 M6.45 -3.15 Q5.75 -2.8 5.3 -2.15 L4.7 -1.45 3.6 -0.6 2.4 -0.05 1.1 0.35 -0.3 0.45 -1.05 0.3 Q-2.45 -0.05 -3.7 -0.85 L-3.9 -1.0 -4.05 -1.15 -4.7 -1.8 -5.9 -2.8 -6.35 -3.1 -6.35 -3.2 -5.5 -2.95 -4.75 -2.85 -3.35 -2.65 -2.0 -2.55 -0.75 -2.45 0.45 -2.5 1.2 -2.55 1.85 -2.6 3.0 -2.6 4.3 -2.75 5.0 -2.85 6.45 -3.15" fill="#ffccff" fill-rule="evenodd" stroke="none"/>
    <path d="M6.5 -3.55 L7.65 -3.7 7.95 -3.55 7.95 -3.45 7.85 -3.2 6.45 -3.15 5.0 -2.85 4.3 -2.75 3.0 -2.6 1.85 -2.6 1.2 -2.55 0.45 -2.5 -0.75 -2.45 -2.0 -2.55 -3.35 -2.65 -4.75 -2.85 -5.5 -2.95 -6.35 -3.2 -7.6 -3.35 -7.8 -3.25 -8.0 -3.4 -7.95 -3.7 -7.45 -3.85 -7.45 -3.8 -6.1 -3.5 -4.75 -3.15 -3.2 -2.9 -2.55 -2.85 -3.05 -3.2 -3.05 -3.3 -3.15 -3.35 -3.1 -3.55 -2.75 -3.25 -2.05 -3.1 -1.3 -2.95 1.05 -2.9 2.65 -3.15 2.6 -3.2 2.6 -3.25 3.5 -3.55 3.5 -3.5 3.25 -3.15 5.05 -3.3 5.75 -3.4 6.5 -3.55" fill="#000000" fill-rule="evenodd" stroke="none"/>
    <path d="M0.2 4.4 L-0.55 4.5 Q-1.3 4.3 -1.55 3.6 L-1.65 2.85 -1.4 2.15 Q-0.95 1.55 -0.15 1.55 L0.45 1.7 Q1.0 1.9 1.3 2.45 L1.4 3.15 1.35 3.4 0.2 4.4" fill="#edb192" fill-rule="evenodd" stroke="none"/>
  </g>
</svg>
