<?xml version="1.0" encoding="UTF-8" standalone="no"?>
<svg xmlns:ffdec="https://www.free-decompiler.com/flash" xmlns:xlink="http://www.w3.org/1999/xlink" ffdec:objectType="shape" height="24.15px" width="79.9px" xmlns="http://www.w3.org/2000/svg">
  <g transform="matrix(1.0, 0.0, 0.0, 1.0, 39.95, 12.05)">
    <path d="M22.85 -10.95 L22.3 -11.1 20.55 -11.4 Q16.75 -11.95 13.15 -10.8 L10.35 -6.95 12.65 -10.7 10.9 -10.0 10.85 -10.0 11.25 -10.55 15.85 -11.85 Q25.75 -13.2 33.05 -5.95 35.95 -3.0 37.55 -0.2 35.55 -3.15 33.15 -5.35 28.75 -9.3 22.85 -10.95 M23.05 -9.75 L23.55 -9.65 26.75 -8.55 Q28.7 -7.7 30.45 -6.3 32.75 -4.55 34.6 -1.9 L35.45 -0.65 37.0 2.35 39.95 2.8 33.2 6.55 33.35 6.3 Q34.0 4.8 34.0 3.35 34.0 1.1 32.2 -1.05 29.75 -4.0 27.2 -5.2 29.6 2.35 26.25 9.4 L26.15 9.65 25.8 10.25 27.85 10.0 27.95 10.15 29.1 11.55 Q28.15 10.95 27.15 10.8 L26.7 10.9 26.45 10.95 26.25 11.25 26.2 11.5 26.2 11.9 26.2 12.1 26.2 12.05 Q25.25 11.2 23.95 11.45 L18.35 11.35 16.75 11.6 16.35 11.8 16.35 11.75 16.4 11.25 16.4 11.2 16.25 11.0 14.9 10.95 16.25 10.25 16.4 10.15 16.2 9.65 15.65 8.1 Q13.2 0.55 15.8 -7.05 L13.25 -5.95 13.1 -5.9 10.95 -4.95 10.25 -4.7 10.7 -5.1 11.4 -5.75 11.55 -6.2 12.0 -7.9 11.6 -7.45 11.4 -7.35 Q11.15 -8.05 12.1 -8.65 15.0 -10.45 18.55 -10.2 L23.05 -9.75 M26.6 -5.4 L26.6 -5.55 Q22.25 -7.8 17.45 -7.4 L17.35 -7.25 16.8 -6.45 Q13.8 1.95 17.3 9.8 L17.45 10.2 23.85 10.55 24.7 10.15 24.85 10.0 Q29.6 3.05 26.6 -5.4 M22.65 -3.35 Q23.4 -1.85 23.4 0.3 23.4 2.45 22.65 4.0 21.9 5.5 20.85 5.5 19.8 5.5 19.05 4.0 18.3 2.45 18.3 0.3 18.3 -1.85 19.05 -3.35 19.8 -4.9 20.85 -4.9 21.9 -4.9 22.65 -3.35 M20.5 -0.55 Q21.25 -0.15 21.55 -0.85 22.0 -1.95 20.85 -2.2 20.45 -2.2 20.25 -1.8 L20.1 -1.3 Q20.05 -0.8 20.5 -0.55 M-36.35 0.95 L-34.6 -1.9 Q-28.7 -10.2 -18.55 -10.2 L-17.1 -10.2 -17.05 -10.2 -14.55 -9.75 -14.15 -9.6 -12.1 -8.65 Q-11.15 -8.05 -11.4 -7.35 L-11.6 -7.45 -12.0 -7.9 -11.55 -6.2 -11.4 -5.75 -10.5 -4.95 -10.25 -4.7 -10.65 -4.85 -12.65 -5.7 -12.75 -5.75 -15.8 -7.05 -15.55 -6.3 -15.55 -6.25 -15.55 -6.0 -15.5 -5.95 -15.45 -5.9 -15.45 -5.75 -15.3 -5.35 -15.25 -4.95 -15.15 -4.5 -14.75 -2.75 -14.75 -2.55 -14.65 -2.05 -14.5 -0.55 -14.5 -0.3 -14.5 0.15 -14.6 3.05 -14.95 6.05 -15.1 6.6 -15.5 7.9 -16.05 9.35 -16.15 9.6 -16.2 9.65 -16.4 10.15 -15.95 10.4 -14.9 10.95 -16.25 11.0 -16.4 11.2 -16.4 11.25 -16.35 11.75 -16.35 11.8 -16.75 11.6 -18.35 11.35 -23.95 11.45 Q-25.25 11.2 -26.2 12.05 L-26.2 12.1 -26.2 11.9 -26.2 11.5 -26.25 11.25 -26.45 10.95 -26.7 10.9 -27.15 10.8 Q-28.15 10.95 -29.1 11.55 L-27.85 10.0 -27.6 10.05 -25.8 10.25 -26.1 9.65 -26.25 9.4 Q-29.6 2.35 -27.2 -5.2 -29.75 -4.0 -32.2 -1.05 -34.4 1.6 -33.9 4.5 L-33.25 6.45 -33.2 6.55 -39.95 2.8 -37.0 2.35 -36.35 0.95 M-10.85 -10.0 L-12.65 -10.7 -10.35 -6.95 -13.15 -10.8 -22.3 -11.1 Q-29.5 -9.25 -34.45 -4.0 L-34.55 -3.95 -36.45 -1.75 -37.55 -0.2 -36.5 -1.8 -35.45 -3.25 -33.05 -5.95 Q-25.75 -13.2 -15.85 -11.85 L-13.0 -11.05 -12.2 -10.8 -11.25 -10.55 -11.0 -10.2 -10.85 -10.0 M-15.75 5.0 L-15.7 4.7 -15.65 3.15 -15.65 0.15 -15.7 -2.5 Q-16.1 -4.45 -16.8 -6.45 L-17.35 -7.25 -17.45 -7.4 Q-22.25 -7.8 -26.6 -5.55 L-26.6 -5.4 Q-29.6 3.05 -24.8 10.0 L-24.7 10.15 -23.8 10.55 -17.45 10.2 -17.25 9.8 Q-16.75 8.65 -16.4 7.5 -15.6 6.9 -15.55 5.8 L-15.6 5.4 -15.75 5.0 M-20.3 -0.3 Q-19.9 -0.65 -19.95 -1.15 -19.95 -2.2 -20.95 -2.4 L-21.2 -2.3 Q-21.75 -1.75 -21.7 -0.9 L-21.45 -0.35 -20.3 -0.3 M-19.05 -3.35 Q-18.3 -1.85 -18.3 0.3 -18.3 2.45 -19.05 4.0 -19.8 5.5 -20.85 5.5 -21.9 5.5 -22.65 4.0 -23.4 2.45 -23.4 0.3 -23.4 -1.85 -22.65 -3.35 -21.9 -4.9 -20.85 -4.9 -19.8 -4.9 -19.05 -3.35" fill="#000000" fill-rule="evenodd" stroke="none"/>
    <path d="M20.55 -11.4 L21.4 -11.25 21.75 -11.0 22.85 -10.95 Q28.75 -9.3 33.15 -5.35 L33.25 -5.2 Q34.6 -3.4 35.35 -1.3 L35.45 -0.65 34.6 -1.9 Q32.75 -4.55 30.45 -6.3 L30.1 -6.6 Q28.55 -7.8 26.75 -8.55 L23.55 -9.65 23.15 -9.75 23.05 -9.75 18.55 -10.2 Q15.0 -10.45 12.1 -8.65 11.15 -8.05 11.4 -7.35 L11.6 -7.45 12.0 -7.9 11.55 -6.2 11.4 -5.75 10.7 -5.1 10.5 -5.25 Q10.0 -5.65 10.05 -6.25 10.15 -7.8 10.6 -9.25 L10.75 -9.65 10.9 -10.0 12.65 -10.7 10.35 -6.95 13.15 -10.8 Q16.75 -11.95 20.55 -11.4 M10.95 -4.95 L13.1 -5.9 13.0 -5.6 12.5 -5.15 10.95 -4.95 M-14.55 -9.75 L-17.05 -10.2 -17.1 -10.2 -18.55 -10.2 Q-28.7 -10.2 -34.6 -1.9 L-36.35 0.95 Q-36.1 -1.05 -35.15 -2.9 L-35.1 -3.1 -36.4 -1.7 -36.45 -1.75 -34.55 -3.95 -34.5 -3.9 -34.45 -4.0 Q-29.5 -9.25 -22.3 -11.1 L-13.15 -10.8 -10.35 -6.95 -12.65 -10.7 -10.85 -10.0 -10.8 -9.85 -10.75 -9.5 -10.05 -7.85 Q-9.7 -6.85 -9.8 -5.85 L-9.85 -5.7 -10.5 -4.95 -11.4 -5.75 -11.55 -6.2 -12.0 -7.9 -11.6 -7.45 -11.4 -7.35 Q-11.15 -8.05 -12.1 -8.65 L-14.15 -9.6 -14.15 -9.75 -14.55 -9.75 M-12.65 -5.7 L-10.65 -4.85 -11.1 -4.75 Q-11.7 -4.65 -12.2 -4.95 -12.55 -5.1 -12.6 -5.5 L-12.65 -5.7 M-35.45 -3.25 L-36.5 -1.8 -36.5 -2.0 -36.45 -2.1 -35.45 -3.25" fill="#edb192" fill-rule="evenodd" stroke="none"/>
    <path d="M26.6 -5.4 Q29.6 3.05 24.85 10.0 L24.7 10.15 23.85 10.55 17.45 10.2 17.3 9.8 Q13.8 1.95 16.8 -6.45 L17.35 -7.25 17.45 -7.4 Q22.25 -7.8 26.6 -5.55 L26.6 -5.4 M22.65 -3.35 Q21.9 -4.9 20.85 -4.9 19.8 -4.9 19.05 -3.35 18.3 -1.85 18.3 0.3 18.3 2.45 19.05 4.0 19.8 5.5 20.85 5.5 21.9 5.5 22.65 4.0 23.4 2.45 23.4 0.3 23.4 -1.85 22.65 -3.35 M26.0 4.5 L26.4 3.1 26.45 2.6 26.55 2.15 26.7 1.4 26.55 1.1 Q25.7 0.7 24.85 0.45 L24.75 0.45 Q24.35 0.65 24.6 1.0 L24.25 2.1 23.9 3.55 Q22.6 4.0 22.55 5.45 L22.6 6.0 22.4 6.25 21.3 6.75 20.65 6.7 Q19.2 6.2 18.55 4.8 18.0 3.7 17.85 2.55 L17.75 1.65 Q17.85 1.15 17.45 1.0 L17.4 0.9 17.2 0.85 16.4 1.0 16.0 1.25 Q15.9 1.6 16.1 1.8 L16.35 4.35 17.0 6.35 Q17.3 7.6 18.1 8.7 18.75 9.6 19.85 9.9 L21.6 9.95 21.9 9.9 Q23.4 9.65 24.25 8.35 L24.8 7.6 Q25.45 7.5 25.85 6.85 26.3 6.2 26.2 5.4 L26.0 4.5 M-16.4 7.5 Q-16.75 8.65 -17.25 9.8 L-17.45 10.2 -23.8 10.55 -24.7 10.15 -24.8 10.0 Q-29.6 3.05 -26.6 -5.4 L-26.6 -5.55 Q-22.25 -7.8 -17.45 -7.4 L-17.35 -7.25 -16.8 -6.45 Q-16.1 -4.45 -15.7 -2.5 L-15.65 0.15 -15.65 3.15 -15.7 4.7 -15.75 5.0 Q-16.0 4.45 -16.5 4.2 L-16.35 3.15 -16.2 2.4 -16.05 0.95 -16.15 0.7 Q-16.55 0.4 -17.1 0.45 L-17.2 0.5 -17.3 0.6 -17.5 1.15 -17.5 1.25 -17.65 2.05 -18.1 4.05 Q-19.35 4.35 -19.5 5.7 L-19.5 6.35 -20.45 6.95 -20.65 7.05 -21.3 6.9 -22.55 6.2 -22.95 5.8 -23.55 4.75 -24.4 1.95 -24.45 1.75 Q-24.35 1.1 -24.95 1.0 L-26.1 1.2 -26.55 1.65 -26.7 2.2 -26.6 2.95 -26.3 4.35 -25.7 6.35 -25.05 7.75 Q-24.55 8.8 -23.55 9.45 L-23.2 9.65 Q-21.95 10.3 -20.55 10.2 -19.8 10.15 -19.2 9.75 L-18.95 9.6 -18.45 9.15 Q-18.05 8.95 -18.0 8.6 L-17.75 8.15 -17.65 8.0 -17.2 7.9 -16.4 7.5 M-19.05 -3.35 Q-19.8 -4.9 -20.85 -4.9 -21.9 -4.9 -22.65 -3.35 -23.4 -1.85 -23.4 0.3 -23.4 2.45 -22.65 4.0 -21.9 5.5 -20.85 5.5 -19.8 5.5 -19.05 4.0 -18.3 2.45 -18.3 0.3 -18.3 -1.85 -19.05 -3.35" fill="#482d00" fill-rule="evenodd" stroke="none"/>
    <path d="M13.1 -5.9 L13.25 -5.95 15.8 -7.05 Q13.2 0.55 15.65 8.1 L16.2 9.65 16.4 10.15 16.25 10.25 16.15 10.2 15.15 9.05 Q14.3 7.85 13.85 6.4 L13.55 5.55 12.9 2.65 12.65 -0.3 12.65 -3.25 13.0 -5.6 13.1 -5.9 M27.95 10.15 L27.85 10.0 25.8 10.25 26.15 9.65 26.25 9.4 Q29.6 2.35 27.2 -5.2 29.75 -4.0 32.2 -1.05 34.0 1.1 34.0 3.35 34.0 4.8 33.35 6.3 L32.4 7.05 29.65 9.1 29.4 9.3 27.95 10.15 M20.5 -0.55 Q20.05 -0.8 20.1 -1.3 L20.25 -1.8 Q20.45 -2.2 20.85 -2.2 22.0 -1.95 21.55 -0.85 21.25 -0.15 20.5 -0.55 M26.0 4.5 L26.2 5.4 Q26.3 6.2 25.85 6.85 25.45 7.5 24.8 7.6 L23.85 7.45 Q22.75 7.0 22.6 6.0 L22.55 5.45 Q22.6 4.0 23.9 3.55 L24.0 3.5 24.4 3.4 Q25.6 3.6 26.0 4.5 M-33.25 6.45 L-33.9 4.5 Q-34.4 1.6 -32.2 -1.05 -29.75 -4.0 -27.2 -5.2 -29.6 2.35 -26.25 9.4 L-26.1 9.65 -25.8 10.25 -27.6 10.05 -27.75 9.9 Q-29.65 9.1 -31.35 7.9 L-32.75 6.85 -33.25 6.45 M-15.95 10.4 L-16.4 10.15 -16.2 9.65 -16.15 9.6 -16.05 9.35 -15.5 7.9 -15.1 6.6 -14.95 6.05 -14.6 3.05 -14.5 0.15 -14.5 -0.3 -14.5 -0.55 -14.65 -2.05 -14.75 -2.55 -14.75 -2.75 -15.15 -4.5 -15.25 -4.95 -15.3 -5.35 -15.45 -5.75 -15.45 -5.9 -15.5 -5.95 -15.55 -6.0 -15.55 -6.25 -15.55 -6.3 -15.8 -7.05 -12.75 -5.75 -12.7 -5.4 -12.45 -2.45 -12.45 -2.1 -12.45 -1.9 -12.45 0.85 -12.7 3.8 -13.05 5.95 Q-13.35 7.4 -14.15 8.7 L-15.2 9.95 -15.95 10.4 M-16.4 7.5 L-17.2 7.9 -17.65 8.0 Q-18.5 8.0 -19.1 7.3 L-19.5 6.35 -19.5 5.7 Q-19.35 4.35 -18.1 4.05 L-17.75 3.95 Q-17.0 3.9 -16.5 4.2 -16.0 4.45 -15.75 5.0 L-15.6 5.4 -15.55 5.8 Q-15.6 6.9 -16.4 7.5 M-20.3 -0.3 L-21.45 -0.35 -21.7 -0.9 Q-21.75 -1.75 -21.2 -2.3 L-20.95 -2.4 Q-19.95 -2.2 -19.95 -1.15 -19.9 -0.65 -20.3 -0.3" fill="#ffffff" fill-rule="evenodd" stroke="none"/>
    <path d="M23.9 3.55 L24.25 2.1 24.6 1.0 Q24.35 0.65 24.75 0.45 L24.85 0.45 Q25.7 0.7 26.55 1.1 L26.7 1.4 26.55 2.15 26.45 2.6 26.4 3.1 26.0 4.5 Q25.6 3.6 24.4 3.4 L24.0 3.5 23.9 3.55 M24.8 7.6 L24.25 8.35 Q23.4 9.65 21.9 9.9 L21.6 9.95 19.85 9.9 Q18.75 9.6 18.1 8.7 17.3 7.6 17.0 6.35 L16.35 4.35 16.1 1.8 Q15.9 1.6 16.0 1.25 L16.4 1.0 17.2 0.85 17.4 0.9 17.45 1.0 Q17.85 1.15 17.75 1.65 L17.85 2.55 Q18.0 3.7 18.55 4.8 19.2 6.2 20.65 6.7 L21.3 6.75 22.4 6.25 22.6 6.0 Q22.75 7.0 23.85 7.45 L24.8 7.6 M-17.65 8.0 L-17.75 8.15 -18.0 8.6 Q-18.05 8.95 -18.45 9.15 L-18.95 9.6 -19.2 9.75 Q-19.8 10.15 -20.55 10.2 -21.95 10.3 -23.2 9.65 L-23.55 9.45 Q-24.55 8.8 -25.05 7.75 L-25.7 6.35 -26.3 4.35 -26.6 2.95 -26.7 2.2 -26.55 1.65 -26.1 1.2 -24.95 1.0 Q-24.35 1.1 -24.45 1.75 L-24.4 1.95 -23.55 4.75 -22.95 5.8 -22.55 6.2 -21.3 6.9 -20.65 7.05 -20.45 6.95 -19.5 6.35 -19.1 7.3 Q-18.5 8.0 -17.65 8.0 M-18.1 4.05 L-17.65 2.05 -17.5 1.25 -17.5 1.15 -17.3 0.6 -17.2 0.5 -17.1 0.45 Q-16.55 0.4 -16.15 0.7 L-16.05 0.95 -16.2 2.4 -16.35 3.15 -16.5 4.2 Q-17.0 3.9 -17.75 3.95 L-18.1 4.05" fill="#996600" fill-rule="evenodd" stroke="none"/>
  </g>
</svg>
