<?xml version="1.0" encoding="UTF-8" standalone="no"?>
<svg xmlns:ffdec="https://www.free-decompiler.com/flash" xmlns:xlink="http://www.w3.org/1999/xlink" ffdec:objectType="shape" height="11.8px" width="16.8px" xmlns="http://www.w3.org/2000/svg">
  <g transform="matrix(1.0, 0.0, 0.0, 1.0, 9.05, 7.4)">
    <path d="M4.85 -3.45 L5.0 -3.05 5.0 -1.8 4.9 -1.65 Q4.95 -1.0 5.25 -0.45 L5.3 -0.4 Q5.5 0.3 6.05 0.3 L6.4 0.25 7.2 -1.75 7.25 -2.55 7.2 -3.35 Q7.0 -4.85 6.25 -6.15 L5.85 -6.6 4.35 -6.7 4.2 -6.6 Q3.65 -6.25 3.45 -5.6 L3.25 -4.85 3.25 -4.05 Q3.25 -3.9 3.4 -3.85 L3.5 -3.9 3.55 -3.85 3.85 -4.9 4.4 -6.0 4.8 -6.35 5.4 -6.2 5.9 -5.55 5.7 -5.75 5.05 -6.05 Q4.4 -5.55 4.1 -4.7 L3.8 -3.4 4.45 -2.7 4.7 -2.15 4.45 -4.2 4.85 -3.45 M4.05 -7.1 L4.65 -7.35 5.55 -7.35 Q6.55 -6.35 7.05 -5.05 L7.45 -3.75 7.55 -3.1 7.55 -3.05 Q7.4 -1.6 6.9 -0.25 L6.55 0.45 6.5 0.6 6.35 0.65 6.2 0.7 6.05 0.7 6.05 0.8 6.5 1.2 7.0 1.45 7.15 1.45 Q7.85 2.0 7.7 2.9 7.45 3.9 6.5 4.25 L5.25 4.3 4.85 4.1 2.8 2.6 Q1.7 3.1 0.6 2.6 L-0.1 2.25 -0.45 2.1 -2.1 3.3 -2.6 3.6 -3.05 3.8 Q-3.85 4.1 -4.55 3.6 L-4.7 3.45 Q-6.2 2.15 -6.45 0.15 L-6.6 0.2 -8.4 -0.15 -9.05 -0.45 -8.95 -2.2 -8.9 -2.3 -6.6 -2.1 -6.5 -2.75 -6.45 -3.0 -6.25 -3.5 -5.6 -4.15 -4.85 -4.35 -4.45 -4.3 -4.1 -4.25 -2.7 -3.8 -1.4 -3.2 0.05 -4.05 2.5 -4.35 2.7 -4.45 2.9 -4.95 Q2.95 -5.7 3.35 -6.3 L3.85 -6.95 4.05 -7.1 M1.65 1.25 Q1.65 0.4 2.0 -0.1 L2.25 -0.45 2.25 -0.3 2.1 -0.05 Q1.9 0.35 2.0 0.85 L2.25 1.75 2.65 2.1 3.4 2.7 4.8 3.7 4.85 3.75 4.9 3.8 5.15 4.05 6.2 4.15 7.0 3.65 7.4 3.0 Q7.55 2.55 7.35 2.1 L7.25 1.85 6.9 1.65 6.15 1.3 Q5.65 0.95 5.45 0.4 5.15 0.05 4.6 0.1 L4.15 0.35 3.75 0.8 3.55 1.15 Q3.4 1.15 3.55 0.95 L3.6 0.75 3.75 0.5 Q4.1 -0.1 4.8 -0.15 L4.9 -0.25 4.85 -0.35 Q4.75 -1.1 4.0 -1.05 3.2 -0.85 2.75 -0.1 L2.85 -0.6 3.1 -0.85 Q3.55 -1.25 4.1 -1.2 L4.3 -1.2 4.6 -1.3 4.1 -2.55 3.9 -2.85 2.8 -3.8 1.1 -4.1 Q0.2 -4.05 -0.5 -3.55 L-1.55 -2.3 -1.65 -2.05 Q-1.9 -1.4 -1.75 -0.7 L-1.25 0.8 -1.35 0.8 -1.6 0.95 Q-2.5 1.05 -3.0 0.35 -3.45 -0.3 -3.55 -1.05 L-3.5 -1.25 -3.5 -1.5 -3.15 -2.35 -3.3 -2.4 -4.65 -2.6 -4.9 -2.3 Q-5.2 -1.9 -5.15 -1.3 L-5.15 -0.75 Q-5.45 -1.45 -5.25 -2.1 L-4.8 -2.8 -4.7 -2.8 -2.9 -2.6 -2.0 -1.95 -1.95 -2.2 -1.55 -2.9 -2.8 -3.6 -4.3 -4.0 -5.1 -3.9 -5.2 -3.85 Q-5.95 -3.55 -6.05 -2.8 L-6.05 -2.75 -6.15 -1.3 Q-6.25 0.75 -5.2 2.55 L-4.7 3.1 Q-4.25 3.55 -3.5 3.6 L-3.15 3.55 -2.8 3.35 Q-1.6 2.75 -0.65 1.85 L-1.0 1.2 0.15 2.05 0.65 2.3 2.4 2.45 2.3 2.35 2.05 2.0 1.65 1.25 M5.25 2.75 L5.4 2.8 5.9 3.15 6.0 3.25 6.2 3.55 5.6 3.65 5.0 3.25 5.05 2.85 5.25 2.75 M6.7 2.3 L6.75 2.15 7.05 2.1 7.2 2.4 6.75 3.25 Q6.5 2.8 6.65 2.35 L6.7 2.3 M0.25 -0.3 L0.15 0.15 -0.25 0.35 -0.65 0.3 -0.85 -0.1 -0.8 -0.5 -0.45 -0.75 0.0 -0.65 0.25 -0.3 M-8.55 -1.7 L-8.55 -0.65 -6.55 -0.4 -6.55 -0.45 -6.5 -0.45 -6.45 -1.3 -6.45 -1.45 -6.8 -1.6 -8.55 -1.7 M-3.05 -2.35 L-3.05 -2.3 Q-3.5 -1.4 -3.2 -0.45 L-2.85 0.15 -2.55 0.5 -1.75 0.75 -2.1 -0.95 -2.25 -1.4 -2.5 -1.8 -3.05 -2.35" fill="#65012f" fill-rule="evenodd" stroke="none"/>
    <path d="M5.9 -5.55 L5.4 -6.2 4.8 -6.35 4.4 -6.0 3.85 -4.9 3.55 -3.85 3.5 -3.9 3.4 -3.85 Q3.25 -3.9 3.25 -4.05 L3.25 -4.85 3.45 -5.6 Q3.65 -6.25 4.2 -6.6 L4.35 -6.7 5.85 -6.6 6.25 -6.15 Q7.0 -4.85 7.2 -3.35 L7.25 -2.55 7.2 -1.75 6.4 0.25 6.05 0.3 Q5.5 0.3 5.3 -0.4 L5.25 -0.45 Q4.95 -1.0 4.9 -1.65 L5.0 -1.8 5.0 -3.05 4.85 -3.45 5.05 -4.05 5.2 -4.45 5.6 -5.05 5.75 -5.0 5.95 -4.9 6.0 -5.4 5.9 -5.55 M4.8 3.7 L3.4 2.7 2.65 2.1 2.25 1.75 2.0 0.85 Q1.9 0.35 2.1 -0.05 L2.25 -0.3 2.25 -0.45 2.0 -0.1 Q1.65 0.4 1.65 1.25 L1.2 1.25 0.05 1.2 -0.3 1.15 -1.25 0.8 -1.75 -0.7 Q-1.9 -1.4 -1.65 -2.05 L-1.55 -2.3 -0.5 -3.55 Q0.2 -4.05 1.1 -4.1 L2.8 -3.8 3.9 -2.85 4.1 -2.55 4.6 -1.3 4.3 -1.2 4.1 -1.2 Q3.55 -1.25 3.1 -0.85 L2.85 -0.6 2.75 -0.1 Q3.2 -0.85 4.0 -1.05 4.75 -1.1 4.85 -0.35 L4.9 -0.25 4.8 -0.15 Q4.1 -0.1 3.75 0.5 L3.6 0.75 3.55 0.95 Q3.4 1.15 3.55 1.15 L3.75 0.8 4.15 0.35 4.6 0.1 Q5.15 0.05 5.45 0.4 5.65 0.95 6.15 1.3 L6.9 1.65 6.05 2.45 5.25 2.35 Q5.05 2.35 4.95 2.5 4.45 3.0 4.8 3.7 M-4.7 3.1 L-5.2 2.55 Q-6.25 0.75 -6.15 -1.3 L-6.05 -2.75 -6.05 -2.8 Q-5.95 -3.55 -5.2 -3.85 L-5.1 -3.9 -4.3 -4.0 -2.8 -3.6 -1.55 -2.9 -1.95 -2.2 -2.0 -1.95 -2.9 -2.6 -4.7 -2.8 -4.8 -2.8 -5.25 -2.1 Q-5.45 -1.45 -5.15 -0.75 L-5.15 -1.3 -4.9 -1.35 -4.3 -1.4 -3.55 -1.05 Q-3.45 -0.3 -3.0 0.35 -2.5 1.05 -1.6 0.95 L-1.9 1.75 -3.15 2.95 -4.6 3.1 -4.7 3.1 M0.25 -0.3 L0.0 -0.65 -0.45 -0.75 -0.8 -0.5 -0.85 -0.1 -0.65 0.3 -0.25 0.35 0.15 0.15 0.25 -0.3" fill="#ffccff" fill-rule="evenodd" stroke="none"/>
    <path d="M4.85 -3.45 L4.45 -4.2 4.7 -2.15 4.45 -2.7 3.8 -3.4 4.1 -4.7 Q4.4 -5.55 5.05 -6.05 L5.7 -5.75 5.9 -5.55 6.0 -5.4 5.95 -4.9 5.75 -5.0 5.6 -5.05 5.2 -4.45 5.05 -4.05 4.85 -3.45 M4.8 3.7 Q4.45 3.0 4.95 2.5 5.05 2.35 5.25 2.35 L6.05 2.45 6.9 1.65 7.25 1.85 7.35 2.1 Q7.55 2.55 7.4 3.0 L7.0 3.65 6.2 4.15 5.15 4.05 4.9 3.8 4.85 3.75 4.8 3.7 M-1.25 0.8 L-0.3 1.15 0.05 1.2 1.2 1.25 1.65 1.25 2.05 2.0 2.3 2.35 2.4 2.45 0.65 2.3 0.15 2.05 -1.0 1.2 -0.65 1.85 Q-1.6 2.75 -2.8 3.35 L-3.15 3.55 -3.5 3.6 Q-4.25 3.55 -4.7 3.1 L-4.6 3.1 -3.15 2.95 -1.9 1.75 -1.6 0.95 -1.35 0.8 -1.25 0.8 M-5.15 -1.3 Q-5.2 -1.9 -4.9 -2.3 L-4.65 -2.6 -3.3 -2.4 -3.15 -2.35 -3.5 -1.5 -3.5 -1.25 -3.55 -1.05 -4.3 -1.4 -4.9 -1.35 -5.15 -1.3 M5.25 2.75 L5.05 2.85 5.0 3.25 5.6 3.65 6.2 3.55 6.0 3.25 5.9 3.15 5.4 2.8 5.25 2.75 M6.7 2.3 L6.65 2.35 Q6.5 2.8 6.75 3.25 L7.2 2.4 7.05 2.1 6.75 2.15 6.7 2.3 M-8.55 -1.7 L-6.8 -1.6 -6.45 -1.45 -6.45 -1.3 -6.5 -0.45 -6.55 -0.45 -6.55 -0.4 -8.55 -0.65 -8.55 -1.7 M-3.05 -2.35 L-2.5 -1.8 -2.25 -1.4 -2.1 -0.95 -1.75 0.75 -2.55 0.5 -2.85 0.15 -3.2 -0.45 Q-3.5 -1.4 -3.05 -2.3 L-3.05 -2.35" fill="#e19dde" fill-rule="evenodd" stroke="none"/>
  </g>
</svg>
