<?xml version="1.0" encoding="UTF-8" standalone="no"?>
<svg xmlns:ffdec="https://www.free-decompiler.com/flash" xmlns:xlink="http://www.w3.org/1999/xlink" ffdec:objectType="shape" height="14.25px" width="78.4px" xmlns="http://www.w3.org/2000/svg">
  <g transform="matrix(1.0, 0.0, 0.0, 1.0, 39.2, 7.1)">
    <path d="M28.3 -3.35 L26.75 -4.05 23.55 -5.0 23.05 -5.1 17.3 -5.45 14.8 -5.1 Q12.95 -4.8 11.5 -3.6 L11.4 -3.3 11.5 -3.15 11.6 -3.1 11.8 -3.5 Q11.85 -2.3 11.4 -1.65 L10.7 -1.1 10.15 -1.6 10.1 -2.05 Q10.2 -3.8 10.9 -5.3 L12.65 -5.9 10.35 -2.7 13.15 -6.0 13.8 -6.15 21.5 -6.7 25.8 -5.6 Q29.05 -4.55 31.85 -2.8 L32.45 -2.35 34.1 -0.35 34.4 0.2 34.7 0.9 35.25 1.95 34.8 1.65 30.45 -2.15 30.15 -2.35 29.25 -2.9 28.3 -3.35 M10.95 -1.0 L13.1 -1.8 13.0 -1.55 11.7 -0.85 10.95 -1.0 M-36.05 0.85 L-32.15 -2.1 -31.65 -2.5 -27.95 -4.5 -27.85 -4.65 Q-24.2 -5.9 -20.3 -6.5 -17.95 -6.8 -15.5 -6.55 -14.4 -6.25 -13.45 -5.65 -11.4 -4.45 -9.95 -2.9 L-11.95 -5.5 -10.4 -5.0 -10.3 -4.75 -9.65 -3.1 -9.45 -2.0 -10.1 -1.45 -11.0 -2.0 Q-11.5 -2.65 -11.4 -3.55 L-11.2 -3.25 Q-10.6 -3.3 -11.3 -3.8 -12.7 -4.85 -14.4 -5.05 -21.25 -6.05 -27.7 -3.45 L-29.65 -2.6 Q-32.35 -1.2 -34.4 0.95 L-35.35 2.05 -35.8 2.2 -34.7 -0.1 -36.05 0.85" fill="#edb192" fill-rule="evenodd" stroke="none"/>
    <path d="M24.3 -1.5 L23.95 -1.6 22.95 -1.7 22.65 -0.95 Q21.9 0.55 20.85 0.55 19.8 0.55 19.05 -0.95 L18.6 -2.15 18.65 -2.15 18.65 -2.2 15.6 -2.05 15.55 -1.3 Q15.9 1.8 17.3 4.85 L17.45 5.25 23.85 5.6 24.7 5.2 24.85 5.05 Q26.6 2.4 27.35 -0.4 L26.45 -0.9 26.15 -1.0 25.4 -1.25 25.15 -1.3 24.3 -1.5 M10.7 -1.1 L11.4 -1.65 Q11.85 -2.3 11.8 -3.5 L11.6 -3.1 11.5 -3.15 11.4 -3.3 11.5 -3.6 Q12.95 -4.8 14.8 -5.1 L17.3 -5.45 23.05 -5.1 23.55 -5.0 26.75 -4.05 28.3 -3.35 29.25 -2.9 30.15 -2.35 30.45 -2.15 34.8 1.65 35.25 1.95 36.15 2.1 38.0 2.4 Q39.15 2.15 39.2 2.75 L31.05 4.15 Q31.9 3.95 32.45 2.9 L32.45 2.8 31.1 1.1 Q29.6 -0.1 27.85 -0.2 L27.8 -0.05 Q27.3 2.25 26.25 4.45 L26.15 4.7 25.8 5.3 27.65 5.1 27.75 5.15 28.0 5.2 29.1 6.6 Q28.15 6.0 27.15 5.85 L26.7 5.95 26.45 6.0 26.25 6.3 26.2 6.55 26.2 6.95 26.2 7.15 26.2 7.1 Q25.25 6.25 23.95 6.5 L18.35 6.4 16.75 6.65 16.35 6.85 16.35 6.8 16.4 6.3 16.4 6.25 16.25 6.05 14.9 6.0 16.25 5.3 16.4 5.2 16.2 4.7 15.65 3.15 Q14.95 1.0 14.7 -1.1 L14.6 -2.15 13.1 -1.8 10.95 -1.0 10.25 -0.75 10.7 -1.1 M31.85 -2.8 Q29.05 -4.55 25.8 -5.6 L21.5 -6.7 13.8 -6.15 13.15 -6.0 10.35 -2.7 12.65 -5.9 10.9 -5.3 11.25 -5.75 13.85 -6.4 15.85 -6.9 23.05 -6.7 Q26.5 -6.05 29.45 -4.4 L31.85 -2.8 M-10.4 -5.0 L-11.95 -5.5 -9.95 -2.9 Q-11.4 -4.45 -13.45 -5.65 -14.4 -6.25 -15.5 -6.55 -17.95 -6.8 -20.3 -6.5 -24.2 -5.9 -27.85 -4.65 L-27.95 -4.5 -31.65 -2.5 -32.15 -2.1 -36.05 0.85 -37.15 2.0 -32.6 -2.1 Q-29.45 -4.5 -25.65 -5.7 L-20.85 -6.45 -16.45 -6.9 Q-13.4 -6.75 -10.75 -5.25 L-10.7 -5.2 Q-10.3 -5.05 -10.4 -5.0 M-35.8 2.2 L-35.35 2.05 -34.4 0.95 Q-32.35 -1.2 -29.65 -2.6 L-27.7 -3.45 Q-21.25 -6.05 -14.4 -5.05 -12.7 -4.85 -11.3 -3.8 -10.6 -3.3 -11.2 -3.25 L-11.4 -3.55 Q-11.5 -2.65 -11.0 -2.0 L-10.1 -1.45 -10.0 -1.35 -10.25 -1.4 -11.6 -1.5 -12.45 -1.8 -14.75 -2.5 -14.65 -1.35 -14.95 1.1 -15.1 1.65 -15.5 2.95 -16.05 4.4 -16.15 4.65 -16.2 4.7 -16.4 5.2 -15.95 5.45 -14.9 6.0 -16.25 6.05 -16.4 6.25 -16.4 6.3 -16.35 6.8 -16.35 6.85 -16.75 6.65 -18.35 6.4 -23.95 6.5 Q-25.25 6.25 -26.2 7.1 L-26.2 7.15 -26.2 6.95 -26.2 6.55 -26.25 6.3 -26.45 6.0 -26.7 5.95 -27.15 5.85 Q-28.15 6.0 -29.1 6.6 L-27.85 5.05 -27.7 5.1 -27.4 5.1 -25.8 5.3 -26.1 4.7 -26.25 4.45 -27.6 0.7 -27.8 -0.7 Q-29.75 0.05 -31.05 1.0 -32.55 2.1 -33.05 3.55 L-31.1 4.4 -33.0 4.3 -34.25 4.2 -36.5 3.55 -37.25 3.35 Q-37.95 3.05 -38.7 2.9 -39.2 2.9 -39.2 2.65 L-35.8 2.2 M-16.15 -2.6 L-17.65 -2.75 -18.45 -2.7 -18.75 -1.6 -19.05 -0.95 Q-19.8 0.55 -20.85 0.55 -21.85 0.55 -22.6 -0.85 L-22.95 -2.05 -24.7 -1.7 -26.4 -1.15 -27.35 -0.55 -27.05 0.5 Q-26.3 2.85 -24.8 5.05 L-24.7 5.2 -23.8 5.6 -17.45 5.25 -17.25 4.85 Q-16.75 3.7 -16.4 2.55 -15.6 1.95 -15.55 0.85 L-15.6 0.45 -15.75 0.05 -15.7 -0.25 -15.65 -1.6 -15.6 -2.55 -16.15 -2.6" fill="#000000" fill-rule="evenodd" stroke="none"/>
    <path d="M23.95 -1.6 L24.3 -1.5 24.15 -1.45 24.0 -1.45 23.9 -1.4 23.95 -1.5 23.95 -1.6 M25.15 -1.3 L25.4 -1.25 26.15 -1.0 26.0 -0.45 25.2 -1.25 25.15 -1.3 M24.8 2.65 L24.25 3.4 Q23.4 4.7 21.9 4.95 L21.6 5.0 19.85 4.95 Q18.75 4.65 18.1 3.75 17.3 2.65 17.0 1.4 L16.35 -0.6 16.2 -1.45 16.15 -1.9 17.1 -1.95 17.85 -2.05 17.9 -2.05 18.55 -0.15 Q19.2 1.25 20.65 1.75 L21.3 1.8 22.4 1.3 22.6 1.05 Q22.75 2.05 23.85 2.5 L24.8 2.65 M-17.65 -2.75 L-16.15 -2.6 -16.35 -1.6 -16.5 -0.75 -17.75 -1.0 -18.1 -0.9 -17.9 -1.75 -17.65 -2.75 M-26.4 -1.15 L-24.7 -1.7 -24.15 -1.8 -23.7 -0.6 -23.55 -0.2 -22.95 0.85 -22.55 1.25 -21.3 1.95 -20.65 2.1 -20.45 2.0 -19.5 1.4 -19.1 2.35 Q-18.5 3.05 -17.65 3.05 L-17.75 3.2 -18.0 3.65 Q-18.05 4.0 -18.45 4.2 L-18.95 4.65 -19.2 4.8 Q-19.8 5.2 -20.55 5.25 -21.95 5.35 -23.2 4.7 L-23.55 4.5 Q-24.55 3.85 -25.05 2.8 L-25.7 1.4 -26.1 0.2 -26.4 -1.15" fill="#996600" fill-rule="evenodd" stroke="none"/>
    <path d="M23.95 -1.6 L23.95 -1.5 23.9 -1.4 Q22.6 -0.95 22.55 0.5 L22.6 1.05 22.4 1.3 21.3 1.8 20.65 1.75 Q19.2 1.25 18.55 -0.15 L17.9 -2.05 17.85 -2.05 17.1 -1.95 16.15 -1.9 16.2 -1.45 16.35 -0.6 17.0 1.4 Q17.3 2.65 18.1 3.75 18.75 4.65 19.85 4.95 L21.6 5.0 21.9 4.95 Q23.4 4.7 24.25 3.4 L24.8 2.65 Q25.45 2.55 25.85 1.9 26.3 1.25 26.2 0.45 L26.0 -0.45 26.15 -1.0 26.45 -0.9 27.35 -0.4 Q26.6 2.4 24.85 5.05 L24.7 5.2 23.85 5.6 17.45 5.25 17.3 4.85 Q15.9 1.8 15.55 -1.3 L15.6 -2.05 18.65 -2.2 18.65 -2.15 18.6 -2.15 19.05 -0.95 Q19.8 0.55 20.85 0.55 21.9 0.55 22.65 -0.95 L22.95 -1.7 23.95 -1.6 M-17.65 -2.75 L-17.9 -1.75 -18.1 -0.9 Q-19.35 -0.6 -19.5 0.75 L-19.5 1.4 -20.45 2.0 -20.65 2.1 -21.3 1.95 -22.55 1.25 -22.95 0.85 -23.55 -0.2 -23.7 -0.6 -24.15 -1.8 -24.7 -1.7 -22.95 -2.05 -22.6 -0.85 Q-21.85 0.55 -20.85 0.55 -19.8 0.55 -19.05 -0.95 L-18.75 -1.6 -18.45 -2.7 -17.65 -2.75 M-16.5 -0.75 L-16.35 -1.6 -16.15 -2.6 -15.6 -2.55 -15.65 -1.6 -15.7 -0.25 -15.75 0.05 -16.5 -0.75 M-16.4 2.55 Q-16.75 3.7 -17.25 4.85 L-17.45 5.25 -23.8 5.6 -24.7 5.2 -24.8 5.05 Q-26.3 2.85 -27.05 0.5 L-27.35 -0.55 -26.4 -1.15 -26.1 0.2 -25.7 1.4 -25.05 2.8 Q-24.55 3.85 -23.55 4.5 L-23.2 4.7 Q-21.95 5.35 -20.55 5.25 -19.8 5.2 -19.2 4.8 L-18.95 4.65 -18.45 4.2 Q-18.05 4.0 -18.0 3.65 L-17.75 3.2 -17.65 3.05 -17.2 2.95 -16.4 2.55" fill="#482d00" fill-rule="evenodd" stroke="none"/>
    <path d="M23.9 -1.4 L24.0 -1.45 24.15 -1.45 24.3 -1.5 25.15 -1.3 25.2 -1.25 26.0 -0.45 26.2 0.45 Q26.3 1.25 25.85 1.9 25.45 2.55 24.8 2.65 L23.85 2.5 Q22.75 2.05 22.6 1.05 L22.55 0.5 Q22.6 -0.95 23.9 -1.4 M29.25 -2.9 L30.15 -2.35 29.25 -2.9 M13.1 -1.8 L14.6 -2.15 14.7 -1.1 Q14.95 1.0 15.65 3.15 L16.2 4.7 16.4 5.2 16.25 5.3 16.15 5.25 15.15 4.1 Q14.3 2.9 13.85 1.45 L13.55 0.6 13.25 -0.55 13.05 -0.95 12.85 -0.95 13.0 -1.55 13.1 -1.8 M28.0 5.2 L27.75 5.15 27.65 5.1 25.8 5.3 26.15 4.7 26.25 4.45 Q27.3 2.25 27.8 -0.05 L27.85 -0.2 Q29.6 -0.1 31.1 1.1 L32.45 2.8 32.45 2.9 Q31.9 3.95 31.05 4.15 L31.0 4.15 28.0 5.2 M-18.1 -0.9 L-17.75 -1.0 -16.5 -0.75 -15.75 0.05 -15.6 0.45 -15.55 0.85 Q-15.6 1.95 -16.4 2.55 L-17.2 2.95 -17.65 3.05 Q-18.5 3.05 -19.1 2.35 L-19.5 1.4 -19.5 0.75 Q-19.35 -0.6 -18.1 -0.9 M-15.95 5.45 L-16.4 5.2 -16.2 4.7 -16.15 4.65 -16.05 4.4 -15.5 2.95 -15.1 1.65 -14.95 1.1 -14.65 -1.35 -14.75 -2.5 -12.45 -1.8 -12.95 0.65 -13.05 1.0 Q-13.35 2.45 -14.15 3.75 L-15.2 5.0 -15.95 5.45 M-31.1 4.4 L-33.05 3.55 Q-32.55 2.1 -31.05 1.0 -29.75 0.05 -27.8 -0.7 L-27.6 0.7 -26.25 4.45 -26.1 4.7 -25.8 5.3 -27.4 5.1 -27.7 5.1 -27.75 5.05 -28.15 4.95 -30.05 4.65 -31.1 4.4" fill="#ffffff" fill-rule="evenodd" stroke="none"/>
  </g>
</svg>
