<?xml version="1.0" encoding="UTF-8" standalone="no"?>
<svg xmlns:ffdec="https://www.free-decompiler.com/flash" xmlns:xlink="http://www.w3.org/1999/xlink" ffdec:objectType="shape" height="8.25px" width="80.4px" xmlns="http://www.w3.org/2000/svg">
  <g transform="matrix(1.0, 0.0, 0.0, 1.0, 40.2, 4.1)">
    <path d="M15.2 -0.4 L14.9 -0.5 20.35 0.5 14.85 -1.15 14.4 -1.0 14.15 -0.8 13.9 -0.55 13.85 -0.2 13.95 -0.1 14.0 -0.05 14.4 0.05 Q19.1 2.1 24.35 2.0 27.85 1.95 31.15 0.7 L27.95 1.4 24.75 1.65 Q21.55 1.75 18.5 0.85 L24.25 1.3 29.45 0.0 29.35 0.0 26.3 0.55 20.2 0.9 15.2 -0.4 M31.6 -2.65 L30.7 -2.6 27.7 -2.1 Q21.75 -1.95 15.95 -3.3 L12.85 -3.6 Q12.1 -3.55 11.6 -2.85 L10.65 -1.6 11.55 -3.25 9.6 -2.55 9.5 -2.55 9.6 -2.6 10.05 -2.85 Q13.05 -4.65 16.75 -3.85 L20.75 -2.9 22.55 -2.45 26.05 -2.2 29.05 -2.55 33.05 -2.85 34.25 -2.6 31.6 -2.65 M11.1 -0.25 L11.2 -0.5 11.7 -1.4 Q12.15 -2.05 13.1 -2.3 L15.8 -2.0 Q20.65 -0.45 25.9 -0.7 L28.3 -1.0 30.95 -1.55 33.95 -1.6 34.85 -1.1 36.2 -0.2 37.15 0.05 39.75 1.05 40.2 1.3 39.9 1.45 35.2 1.0 34.6 1.0 34.0 1.2 34.15 1.45 34.45 1.85 33.75 1.75 32.8 1.6 31.55 2.05 31.65 2.75 30.6 2.3 29.1 2.7 29.2 3.45 28.1 2.9 26.4 3.15 26.3 3.7 25.45 3.25 24.1 3.3 23.95 3.85 23.25 3.95 23.05 3.25 21.25 3.1 20.75 3.85 20.7 3.9 20.65 3.85 20.35 3.45 20.3 2.95 18.8 2.65 18.45 3.45 18.35 3.6 18.15 3.8 17.9 3.75 17.95 3.35 18.0 2.85 18.0 2.6 Q17.6 2.35 17.15 2.25 L17.1 2.25 16.15 2.9 15.85 3.05 15.75 2.8 15.7 2.8 15.75 2.75 15.9 2.25 15.95 2.1 15.95 2.05 16.0 2.0 15.2 1.85 14.45 2.25 14.15 2.4 14.1 2.45 14.2 2.15 14.25 1.85 14.25 1.65 14.1 1.55 13.8 1.3 13.1 1.5 12.1 1.8 12.05 1.8 12.05 1.75 12.0 1.7 12.0 1.65 12.45 1.1 12.55 0.8 12.45 0.7 11.9 0.8 9.4 1.05 9.4 1.0 Q10.5 0.6 11.1 -0.25 M-31.55 -2.65 L-34.25 -2.6 -33.05 -2.85 -29.05 -2.55 -26.05 -2.2 -22.55 -2.45 -20.75 -2.9 -16.75 -3.85 Q-13.05 -4.65 -10.0 -2.85 L-9.6 -2.6 -9.5 -2.55 -9.6 -2.55 -11.55 -3.25 -10.65 -1.6 -11.6 -2.85 Q-12.1 -3.55 -12.85 -3.6 L-15.95 -3.3 Q-21.75 -1.95 -27.7 -2.1 L-30.7 -2.6 -31.55 -2.65 M-29.45 0.0 L-24.25 1.3 -18.5 0.85 Q-21.55 1.75 -24.75 1.65 L-27.95 1.4 -31.15 0.7 Q-27.85 1.95 -24.35 2.0 -19.1 2.1 -14.4 0.05 L-14.0 -0.05 -13.95 -0.1 -13.85 -0.2 -13.9 -0.55 -14.15 -0.8 -14.4 -1.0 -14.85 -1.15 -20.35 0.5 -14.9 -0.5 -15.2 -0.4 -20.2 0.9 -26.3 0.55 -29.35 0.0 -29.45 0.0 M-33.9 -1.6 L-30.95 -1.55 -28.3 -1.0 -25.9 -0.7 Q-20.65 -0.45 -15.8 -2.0 L-13.1 -2.3 Q-12.15 -2.05 -11.7 -1.4 L-11.2 -0.5 -11.05 -0.25 Q-10.5 0.6 -9.4 1.0 L-9.4 1.05 -11.9 0.8 -12.45 0.7 -12.55 0.8 -12.4 1.1 -12.0 1.65 -12.0 1.7 -12.05 1.75 -12.05 1.8 -12.1 1.8 -13.1 1.5 -13.8 1.3 -14.1 1.55 -14.25 1.65 -14.25 1.85 -14.15 2.15 -14.1 2.45 -14.15 2.4 -14.4 2.25 -15.2 1.85 -16.0 2.0 -15.95 2.05 -15.95 2.1 -15.9 2.25 -15.7 2.75 -15.7 2.8 -15.75 2.8 -15.85 3.05 -16.1 2.9 -17.1 2.25 -17.15 2.25 Q-17.6 2.35 -18.0 2.6 L-18.0 2.85 -17.95 3.35 -17.9 3.75 -18.15 3.8 -18.35 3.6 -18.4 3.45 -18.8 2.65 -20.3 2.95 -20.35 3.45 -20.65 3.85 -20.7 3.9 -20.7 3.85 -21.25 3.1 -23.05 3.25 -23.25 3.95 -23.95 3.85 -24.1 3.3 -25.45 3.25 -26.3 3.7 -26.4 3.15 -28.1 2.9 -29.2 3.45 -29.1 2.7 -30.6 2.3 -31.65 2.75 -31.55 2.05 -32.8 1.6 -33.75 1.75 -34.45 1.85 -34.15 1.45 -34.0 1.2 -34.55 1.0 -35.2 1.0 -39.9 1.45 -40.2 1.3 -39.75 1.05 -37.15 0.05 -36.2 -0.2 -34.85 -1.1 -33.9 -1.6" fill="#000000" fill-rule="evenodd" stroke="none"/>
    <path d="M15.2 -0.4 L20.2 0.9 26.3 0.55 29.35 0.0 29.45 0.0 24.25 1.3 18.5 0.85 Q21.55 1.75 24.75 1.65 L27.95 1.4 31.15 0.7 Q27.85 1.95 24.35 2.0 19.1 2.1 14.4 0.05 L14.0 -0.05 13.95 -0.1 13.85 -0.2 13.9 -0.55 14.15 -0.8 14.4 -1.0 14.85 -1.15 20.35 0.5 14.9 -0.5 15.2 -0.4 M-29.45 0.0 L-29.35 0.0 -26.3 0.55 -20.2 0.9 -15.2 -0.4 -14.9 -0.5 -20.35 0.5 -14.85 -1.15 -14.4 -1.0 -14.15 -0.8 -13.9 -0.55 -13.85 -0.2 -13.95 -0.1 -14.0 -0.05 -14.4 0.05 Q-19.1 2.1 -24.35 2.0 -27.85 1.95 -31.15 0.7 L-27.95 1.4 -24.75 1.65 Q-21.55 1.75 -18.5 0.85 L-24.25 1.3 -29.45 0.0" fill="#ffffff" fill-rule="evenodd" stroke="none"/>
    <path d="M9.6 -2.55 L11.55 -3.25 10.65 -1.6 11.6 -2.85 Q12.1 -3.55 12.85 -3.6 L15.95 -3.3 Q21.75 -1.95 27.7 -2.1 L30.7 -2.6 31.6 -2.65 30.55 -2.3 31.45 -2.25 31.5 -2.25 31.85 -2.25 32.6 -2.25 32.9 -2.2 33.95 -1.6 30.95 -1.55 28.3 -1.0 25.9 -0.7 Q20.65 -0.45 15.8 -2.0 L13.1 -2.3 Q12.15 -2.05 11.7 -1.4 L11.2 -0.5 11.1 -0.25 11.05 -0.35 10.7 -0.75 9.75 -1.95 9.6 -2.5 9.6 -2.55 M10.05 -2.85 L9.6 -2.6 9.75 -2.75 10.05 -2.85 M12.45 1.1 L12.3 1.0 11.9 0.8 12.45 0.7 12.55 0.8 12.45 1.1 M13.1 1.5 L13.8 1.3 14.1 1.55 14.25 1.65 14.25 1.85 14.2 2.15 13.1 1.5 M14.45 2.25 L15.2 1.85 16.0 2.0 15.95 2.05 15.95 2.1 15.9 2.25 15.75 2.75 15.7 2.75 14.45 2.25 M16.15 2.9 L17.1 2.25 17.15 2.25 Q17.6 2.35 18.0 2.6 L18.0 2.85 17.95 3.35 17.75 3.3 16.15 2.9 M18.45 3.45 L18.8 2.65 20.3 2.95 20.35 3.45 20.65 3.85 18.45 3.45 M20.75 3.85 L21.25 3.1 23.05 3.25 23.25 3.95 23.95 3.85 24.1 3.3 25.45 3.25 26.3 3.7 26.4 3.15 28.1 2.9 29.2 3.45 29.1 2.7 30.6 2.3 31.65 2.75 31.55 2.05 32.8 1.6 33.75 1.75 33.25 2.1 32.75 2.35 32.2 2.6 29.95 3.35 27.45 3.85 Q24.45 4.4 21.4 3.95 L20.75 3.85 M34.15 1.45 L34.0 1.2 34.6 1.0 34.2 1.4 34.15 1.45 M-31.55 -2.65 L-30.7 -2.6 -27.7 -2.1 Q-21.75 -1.95 -15.95 -3.3 L-12.85 -3.6 Q-12.1 -3.55 -11.6 -2.85 L-10.65 -1.6 -11.55 -3.25 -9.6 -2.55 -9.6 -2.5 -9.75 -1.95 -10.7 -0.75 -11.05 -0.35 -11.05 -0.25 -11.2 -0.5 -11.7 -1.4 Q-12.15 -2.05 -13.1 -2.3 L-15.8 -2.0 Q-20.65 -0.45 -25.9 -0.7 L-28.3 -1.0 -30.95 -1.55 -33.9 -1.6 -32.9 -2.2 -32.6 -2.25 -31.85 -2.25 -31.8 -2.25 -31.5 -2.25 -31.45 -2.25 -30.55 -2.3 -31.55 -2.65 M-9.6 -2.6 L-10.0 -2.85 -9.75 -2.75 -9.6 -2.6 M-34.55 1.0 L-34.0 1.2 -34.15 1.45 -34.2 1.4 -34.55 1.0 M-33.75 1.75 L-32.8 1.6 -31.55 2.05 -31.65 2.75 -30.6 2.3 -29.1 2.7 -29.2 3.45 -28.1 2.9 -26.4 3.15 -26.3 3.7 -25.45 3.25 -24.1 3.3 -23.95 3.85 -23.25 3.95 -23.05 3.25 -21.25 3.1 -20.7 3.85 -21.4 3.95 Q-24.45 4.4 -27.45 3.85 L-29.95 3.35 -32.2 2.6 -32.75 2.35 -33.25 2.1 -33.75 1.75 M-20.65 3.85 L-20.35 3.45 -20.3 2.95 -18.8 2.65 -18.4 3.45 -20.65 3.85 M-17.95 3.35 L-18.0 2.85 -18.0 2.6 Q-17.6 2.35 -17.15 2.25 L-17.1 2.25 -16.1 2.9 -17.75 3.3 -17.95 3.35 M-15.7 2.75 L-15.9 2.25 -15.95 2.1 -15.95 2.05 -16.0 2.0 -15.2 1.85 -14.4 2.25 -15.7 2.75 M-14.15 2.15 L-14.25 1.85 -14.25 1.65 -14.1 1.55 -13.8 1.3 -13.1 1.5 -14.15 2.15 M-12.4 1.1 L-12.55 0.8 -12.45 0.7 -11.9 0.8 -12.3 1.0 -12.4 1.1" fill="#edb192" fill-rule="evenodd" stroke="none"/>
  </g>
</svg>
