<?xml version="1.0" encoding="UTF-8" standalone="no"?>
<svg xmlns:ffdec="https://www.free-decompiler.com/flash" xmlns:xlink="http://www.w3.org/1999/xlink" ffdec:objectType="shape" height="11.35px" width="16.5px" xmlns="http://www.w3.org/2000/svg">
  <g transform="matrix(1.0, 0.0, 0.0, 1.0, 8.25, 5.65)">
    <path d="M6.5 -4.9 L7.9 -5.1 8.25 -5.1 6.65 -3.3 6.55 -3.15 5.4 -2.25 4.25 -1.5 Q3.6 -1.1 2.85 -0.8 L1.35 -0.45 0.0 -0.35 -1.35 -0.55 -2.35 -0.75 -3.85 -1.25 -5.2 -1.95 -6.4 -2.95 -6.55 -3.1 -6.65 -3.1 -7.0 -3.6 -7.85 -4.95 -8.0 -5.0 -8.25 -5.25 -7.95 -5.3 -6.75 -5.2 -5.7 -4.95 -4.2 -4.65 -2.7 -4.45 -1.3 -4.35 0.15 -4.35 1.0 -4.35 1.9 -4.35 3.1 -4.4 4.35 -4.6 5.65 -4.8 6.5 -4.9 M-6.1 -3.45 L-5.2 -2.7 -4.05 -1.95 -2.65 -1.4 -1.15 -1.15 0.35 -1.1 1.75 -1.2 3.0 -1.5 4.15 -1.9 5.5 -2.75 5.75 -2.95 6.15 -3.3 6.3 -3.45 6.45 -3.65 7.2 -4.6 7.0 -4.7 0.65 -4.05 -7.35 -4.95 -7.15 -4.6 -6.1 -3.45" fill="#000000" fill-rule="evenodd" stroke="none"/>
    <path d="M-6.75 -5.2 L-5.25 -5.15 -5.3 -5.15 -4.5 -5.25 -3.4 -5.35 -2.75 -5.45 -2.25 -5.6 -1.35 -5.65 -0.6 -5.6 0.2 -5.55 1.25 -5.6 2.35 -5.55 3.55 -5.4 4.75 -5.3 5.55 -5.2 5.7 -5.15 5.95 -5.1 6.2 -5.05 6.5 -4.9 5.65 -4.8 4.35 -4.6 3.1 -4.4 1.9 -4.35 1.0 -4.35 0.15 -4.35 -1.3 -4.35 -2.7 -4.45 -4.2 -4.65 -5.7 -4.95 -6.75 -5.2 M6.65 -3.3 L6.65 -3.1 6.2 -2.5 5.95 -2.05 5.45 -1.25 4.35 -0.1 3.85 0.4 3.4 0.7 2.0 1.25 0.9 1.5 -0.25 1.6 -1.7 1.35 -2.85 0.85 -3.9 0.2 -4.75 -0.7 -5.0 -1.05 -5.2 -1.25 -5.8 -2.0 -6.4 -2.7 -6.6 -2.95 -6.65 -3.1 -6.55 -3.1 -6.4 -2.95 -5.2 -1.95 -3.85 -1.25 -2.35 -0.75 -1.35 -0.55 0.0 -0.35 1.35 -0.45 2.85 -0.8 Q3.6 -1.1 4.25 -1.5 L5.4 -2.25 6.55 -3.15 6.65 -3.3" fill="#ffccff" fill-rule="evenodd" stroke="none"/>
    <path d="M5.75 -2.95 L5.8 -3.3 5.8 -3.4 5.55 -3.75 3.05 -4.0 1.8 -3.85 0.65 -3.6 Q0.5 -3.6 0.45 -3.45 L0.0 -2.35 -0.05 -2.3 -0.35 -3.2 -0.6 -3.5 -1.0 -3.7 -3.75 -4.15 -5.0 -4.05 -5.5 -3.95 -6.0 -3.65 -6.1 -3.45 -7.15 -4.6 -7.35 -4.95 0.65 -4.05 7.0 -4.7 7.2 -4.6 6.45 -3.65 6.3 -3.45 6.15 -3.3 5.75 -2.95" fill="#990000" fill-rule="evenodd" stroke="none"/>
    <path d="M-6.1 -3.45 L-6.0 -3.65 -5.5 -3.95 -5.0 -4.05 -3.75 -4.15 -1.0 -3.7 -0.6 -3.5 -0.35 -3.2 -0.05 -2.3 0.0 -2.35 0.45 -3.45 Q0.5 -3.6 0.65 -3.6 L1.8 -3.85 3.05 -4.0 5.55 -3.75 5.8 -3.4 5.8 -3.3 5.75 -2.95 5.5 -2.75 4.15 -1.9 3.0 -1.5 1.75 -1.2 0.35 -1.1 -1.15 -1.15 -2.65 -1.4 -4.05 -1.95 -5.2 -2.7 -6.1 -3.45" fill="#cc0000" fill-rule="evenodd" stroke="none"/>
    <path d="M-1.15 4.35 L-1.1 4.15 -0.5 3.55 -0.1 3.5 0.3 3.5 0.6 3.6 0.85 3.75 1.05 4.05 1.15 4.55 Q1.15 5.15 0.7 5.45 0.0 5.95 -0.65 5.45 L-0.95 5.1 -1.15 4.35" fill="#edb192" fill-rule="evenodd" stroke="none"/>
  </g>
</svg>
