<?xml version="1.0" encoding="UTF-8" standalone="no"?>
<svg xmlns:ffdec="https://www.free-decompiler.com/flash" xmlns:xlink="http://www.w3.org/1999/xlink" ffdec:objectType="shape" height="12.5px" width="16.5px" xmlns="http://www.w3.org/2000/svg">
  <g transform="matrix(1.0, 0.0, 0.0, 1.0, 8.25, 6.25)">
    <path d="M-6.75 -5.95 L-6.5 -6.0 -5.25 -5.85 -4.15 -5.8 -2.6 -5.8 -1.2 -5.8 0.1 -5.75 1.25 -5.85 2.6 -5.75 4.0 -5.65 5.4 -5.65 6.3 -5.5 5.75 -5.35 5.65 -5.4 5.65 -5.35 3.1 -4.8 1.9 -4.7 0.15 -4.7 -1.3 -4.7 -2.7 -4.85 -4.2 -5.1 -5.7 -5.6 -6.75 -5.95 M5.7 -1.85 L5.6 -1.7 5.6 -1.65 4.65 0.05 Q4.2 1.35 2.9 1.95 L2.3 2.25 Q1.4 2.8 0.35 2.95 L-1.35 2.8 -1.75 2.65 -2.6 2.25 -2.75 2.15 -4.05 1.1 -4.85 0.05 -5.95 -1.65 -6.0 -1.7 -6.0 -1.95 -5.95 -1.95 -5.2 -1.15 -5.15 -1.1 Q-3.25 0.6 -0.25 1.1 1.95 1.25 3.8 -0.15 L4.8 -0.95 4.8 -1.0 4.85 -1.05 5.7 -1.85" fill="#ffccff" fill-rule="evenodd" stroke="none"/>
    <path d="M5.8 -2.65 L5.85 -2.9 5.8 -3.3 5.8 -3.55 5.45 -3.95 5.25 -4.05 3.1 -4.1 1.8 -3.95 0.65 -3.6 0.45 -3.4 0.2 -2.65 0.15 -2.45 0.0 -1.75 -0.05 -1.7 -0.2 -2.65 -0.2 -2.7 Q-0.4 -3.4 -1.0 -3.7 L-1.6 -4.0 -4.5 -4.35 -5.5 -4.1 -5.6 -4.05 -5.65 -4.0 Q-6.05 -3.85 -6.1 -3.35 L-7.35 -5.55 0.65 -4.25 7.0 -5.2 7.2 -5.1 Q6.6 -3.7 5.8 -2.65" fill="#990000" fill-rule="evenodd" stroke="none"/>
    <path d="M-6.1 -3.35 Q-6.05 -3.85 -5.65 -4.0 L-5.6 -4.05 -5.5 -4.1 -4.5 -4.35 -1.6 -4.0 -1.0 -3.7 Q-0.4 -3.4 -0.2 -2.7 L-0.2 -2.65 -0.05 -1.7 0.0 -1.75 0.15 -2.45 0.2 -2.65 0.45 -3.4 0.65 -3.6 1.8 -3.95 3.1 -4.1 5.25 -4.05 5.45 -3.95 5.8 -3.55 5.8 -3.3 5.85 -2.9 5.8 -2.65 5.2 -2.0 Q2.65 0.6 -1.7 -0.1 -3.05 -0.35 -4.05 -1.2 L-5.5 -2.65 -6.1 -3.35" fill="#cc0000" fill-rule="evenodd" stroke="none"/>
    <path d="M6.3 -5.5 L7.9 -5.85 8.25 -5.8 8.25 -5.75 6.45 -2.75 5.7 -1.85 4.85 -1.05 4.8 -1.0 4.8 -0.95 3.8 -0.15 Q1.95 1.25 -0.25 1.1 -3.25 0.6 -5.15 -1.1 L-5.2 -1.15 -5.95 -1.95 Q-7.2 -3.45 -7.85 -5.6 L-7.95 -5.65 -8.25 -6.0 -7.9 -6.15 -7.45 -6.25 -6.75 -5.95 -5.7 -5.6 -4.2 -5.1 -2.7 -4.85 -1.3 -4.7 0.15 -4.7 1.9 -4.7 3.1 -4.8 5.65 -5.35 5.75 -5.35 6.3 -5.5 M5.8 -2.65 Q6.6 -3.7 7.2 -5.1 L7.0 -5.2 0.65 -4.25 -7.35 -5.55 -6.1 -3.35 -5.5 -2.65 -4.05 -1.2 Q-3.05 -0.35 -1.7 -0.1 2.65 0.6 5.2 -2.0 L5.8 -2.65" fill="#000000" fill-rule="evenodd" stroke="none"/>
    <path d="M1.05 5.7 L0.6 6.15 Q-0.25 6.5 -0.9 5.85 -1.25 5.4 -1.15 4.75 L-0.95 4.35 -0.3 3.85 Q0.95 3.85 1.15 5.0 L1.05 5.7" fill="#edb192" fill-rule="evenodd" stroke="none"/>
  </g>
</svg>
