<?xml version="1.0" encoding="UTF-8" standalone="no"?>
<svg xmlns:ffdec="https://www.free-decompiler.com/flash" xmlns:xlink="http://www.w3.org/1999/xlink" ffdec:objectType="shape" height="127.2px" width="599.8px" xmlns="http://www.w3.org/2000/svg">
  <g transform="matrix(1.0, 0.0, 0.0, 1.0, 299.9, 63.6)">
    <path d="M31.55 -53.85 Q34.05 -52.85 36.6 -52.0 41.6 -50.15 46.7 -48.6 54.25 -46.4 62.15 -45.05 69.85 -43.65 77.85 -43.5 L69.75 -44.75 77.95 -44.6 Q84.75 -44.55 91.45 -46.05 L85.85 -46.05 Q80.2 -46.1 74.6 -46.3 66.15 -46.9 57.9 -48.6 50.2 -50.05 42.8 -52.55 L56.15 -47.2 31.55 -53.85 M36.8 -47.95 L36.8 -48.7 Q33.0 -51.35 28.55 -52.5 23.95 -53.6 19.45 -53.35 28.55 -51.75 36.8 -47.95 M30.05 -48.65 L30.2 -49.35 24.1 -51.35 22.7 -50.4 23.1 -50.05 Q25.95 -48.25 29.45 -48.1 L30.05 -48.65 M166.7 -58.0 L172.5 -57.25 184.0 -55.5 195.4 -53.4 206.75 -50.95 218.65 -48.05 225.0 -46.8 231.45 -45.8 237.9 -45.15 206.1 -52.85 196.3 -54.75 186.45 -56.25 181.55 -56.8 176.6 -57.3 166.7 -58.0 M115.9 -53.65 Q124.1 -54.7 132.1 -57.5 L131.5 -58.05 Q125.65 -56.55 119.55 -55.6 110.55 -54.2 101.5 -53.75 90.25 -53.25 78.95 -54.35 L88.2 -52.95 102.05 -52.25 Q109.1 -52.45 115.9 -53.65 M127.65 -52.4 L111.35 -50.3 94.85 -49.5 Q81.15 -49.45 67.5 -51.4 74.85 -49.95 82.3 -49.25 L96.5 -48.7 110.3 -49.35 124.05 -51.15 Q131.4 -52.35 138.45 -54.6 L127.65 -52.4 M299.9 -55.2 L297.5 -54.85 283.1 -53.9 268.6 -55.0 Q275.45 -53.6 282.4 -53.35 289.25 -53.1 296.3 -53.7 L299.9 -54.0 299.9 -49.25 299.65 -49.25 Q291.35 -48.95 283.0 -49.5 274.6 -50.0 266.55 -51.7 258.15 -53.4 249.65 -55.65 256.6 -52.75 263.65 -51.0 270.65 -49.2 277.95 -48.55 L292.15 -48.15 299.9 -48.8 299.9 -47.05 295.9 -47.0 281.2 -47.8 266.6 -49.6 251.95 -51.45 244.6 -52.5 255.6 -49.75 Q261.1 -48.6 266.7 -48.0 L280.4 -46.25 294.15 -46.2 299.9 -46.75 299.9 -40.95 -104.95 -41.15 -105.05 -59.95 -104.35 -60.95 299.9 -60.95 299.9 -55.2 M-299.7 -60.95 L-111.85 -60.95 -106.8 -60.6 -106.55 -53.1 -299.7 -52.7 -299.7 -60.95 M-299.7 -49.65 L-292.2 -49.55 -292.2 63.6 -299.05 63.6 -299.7 61.2 -299.7 55.3 -298.0 62.0 -297.2 61.6 Q-298.8 53.65 -299.45 45.7 L-299.7 42.2 Q-300.1 35.2 -299.7 28.2 -299.45 23.45 -298.8 18.7 L-299.7 24.35 -299.7 -49.65 M-89.4 63.6 L-89.4 -37.95 -50.4 -37.95 -50.4 63.6 -58.75 63.6 -59.35 57.95 -59.15 63.6 -65.2 63.6 -66.25 59.25 -68.95 48.9 -66.1 63.6 -72.0 63.6 -72.4 60.35 -73.65 48.75 -74.7 37.15 -75.85 21.7 -76.45 12.0 -76.9 11.9 -76.75 17.8 -76.2 29.6 -75.4 41.3 -74.25 52.95 -72.95 63.6 -76.45 63.6 -76.55 63.15 -78.35 53.05 -78.7 52.75 -77.1 63.6 -89.4 63.6 M211.5 -56.25 L222.4 -53.15 Q227.75 -51.7 233.25 -50.6 238.7 -49.3 244.25 -48.5 L255.25 -46.55 Q260.5 -45.85 265.85 -46.65 L252.2 -48.55 238.5 -50.35 Q224.95 -52.65 211.5 -56.25 M198.0 -48.0 L205.45 -46.35 Q212.8 -44.75 220.25 -43.85 L230.7 -43.3 198.0 -48.0 M280.5 63.6 L280.6 -37.8 299.9 -37.9 299.9 41.1 299.5 41.15 299.05 53.3 298.05 32.75 Q296.85 36.65 296.6 40.65 296.15 48.6 299.4 55.8 L299.9 47.4 299.9 62.95 299.35 63.6 297.9 63.6 Q293.05 42.2 292.6 20.15 290.95 34.45 293.0 48.55 294.1 56.2 297.05 63.6 L293.1 63.6 Q291.4 56.55 291.75 49.25 L291.2 55.35 Q290.95 59.65 291.85 63.6 L289.2 63.6 287.5 51.95 Q287.65 57.3 288.1 62.65 L288.2 63.6 285.15 63.6 Q284.7 59.9 284.55 56.2 284.35 50.35 284.85 44.6 L284.25 51.15 Q283.8 57.3 284.35 63.6 L280.5 63.6 M287.65 -2.4 L287.5 -19.3 287.25 -13.35 287.65 -2.4 M286.9 47.25 Q286.9 47.85 287.25 48.45 L286.75 17.9 Q286.65 32.55 286.9 47.25 M-152.55 -54.75 L-157.55 -54.4 -162.55 -54.05 -122.45 -54.05 -122.8 -54.35 -137.65 -54.8 -152.55 -54.75 M-154.5 -58.5 L-145.4 -58.65 -136.2 -58.6 -127.1 -58.35 -122.75 -58.0 -129.7 -58.65 -141.05 -59.0 -146.65 -59.0 -152.35 -58.85 -157.95 -58.5 -163.65 -58.05 -154.5 -58.5 M-178.2 -56.4 L-166.3 -56.35 -154.4 -56.2 -142.55 -56.0 -130.2 -55.6 -117.25 -55.0 -110.8 -54.7 -117.7 -55.4 -131.65 -56.45 -145.6 -56.9 -159.6 -56.95 -175.4 -56.65 -184.2 -56.4 -178.2 -56.4 M-195.65 -53.95 L-179.25 -53.4 -163.05 -54.25 -195.65 -53.95 M290.45 45.8 L291.05 45.35 288.45 11.55 290.45 45.8 M-298.4 -48.95 L-298.95 -44.15 -298.9 -18.75 -298.4 -48.95 M-297.2 -30.95 Q-297.7 -24.6 -297.8 -18.2 -297.9 -11.85 -297.6 -5.45 L-296.8 7.25 -296.0 -43.75 -297.2 -30.95 M-226.95 -55.35 L-226.3 -54.5 -224.15 -55.75 -224.25 -56.65 -242.6 -57.1 -226.95 -55.35 M-282.75 -57.65 L-296.85 -57.0 -255.55 -57.75 -264.6 -57.85 -273.7 -57.85 -282.75 -57.65 M-297.7 43.9 L-298.1 44.05 Q-299.6 47.7 -297.85 51.15 L-296.55 53.25 -295.1 52.2 -297.0 44.4 -297.7 43.9 M-122.05 -54.0 L-121.0 -53.55 -116.65 -53.75 -122.05 -54.0 M8.4 -49.15 L8.95 -48.6 15.3 -47.35 Q24.65 -45.75 34.2 -45.7 L22.05 -47.75 9.25 -49.3 8.4 -49.15 M-14.6 -45.95 Q-7.4 -44.05 0.1 -43.0 L5.0 -42.5 9.6 -42.45 -14.6 -45.95 M3.1 -46.65 L-10.25 -48.15 22.9 -43.9 16.35 -45.15 3.1 -46.65 M-13.9 -48.2 L-14.45 -48.7 -19.6 -49.7 -70.15 -53.65 -13.9 -48.2 M-34.2 -45.45 L-43.7 -45.9 -53.2 -46.1 -58.6 -46.15 -43.65 -44.5 -34.65 -43.95 -25.55 -43.75 -16.55 -43.7 -15.3 -43.8 -34.2 -45.45 M-28.9 -47.35 L-37.85 -48.15 -55.8 -49.8 -75.1 -51.65 -85.45 -53.25 -80.15 -52.15 -69.6 -50.4 -59.05 -49.15 -43.15 -48.25 -28.9 -47.35 M-58.0 20.6 L-56.9 16.0 Q-55.9 11.4 -56.15 6.6 -56.5 0.95 -57.6 -4.6 L-58.0 20.6 M-67.05 -17.45 Q-68.3 -9.55 -68.45 -1.55 -68.8 14.25 -65.05 29.55 L-63.9 29.55 -63.25 28.2 -64.1 29.05 -64.85 28.95 -66.45 17.45 Q-68.6 0.05 -67.05 -17.45 M-71.4 -4.8 Q-71.7 2.3 -71.0 9.5 L-69.7 18.95 -67.9 28.25 -66.55 33.7 -66.3 33.3 -67.65 27.25 -69.5 15.0 -70.85 -0.35 -71.2 -9.6 -71.4 -4.8 M-64.4 -6.5 Q-65.65 0.1 -64.8 6.75 -63.95 13.4 -61.7 19.9 L-64.4 -6.5 M-60.05 4.05 L-61.7 2.75 -61.1 10.85 -60.2 11.35 -59.5 10.85 -60.05 4.05 M-73.85 0.1 L-73.2 8.05 -71.95 14.8 -73.85 0.1 M-86.65 -14.8 L-87.25 -1.4 Q-87.45 5.25 -87.3 11.95 L-86.8 25.3 -86.25 32.0 -85.6 38.6 -86.65 -14.8 M-71.6 -44.6 L-71.65 -44.0 -71.4 -43.6 -55.1 -42.85 Q-63.2 -44.95 -71.6 -44.6 M-93.25 -58.7 L-91.25 -57.85 Q-85.35 -55.25 -78.7 -54.7 L-94.0 -59.05 -93.25 -58.7 M-109.95 -55.0 L-108.3 -54.75 -106.75 -55.35 Q-108.4 -55.95 -109.95 -55.0 M-97.5 -57.45 L-97.55 -57.5 -97.55 -57.45 -97.7 -57.05 -91.7 -54.9 -97.5 -57.1 -97.5 -57.45 M-62.0 54.45 L-62.9 54.85 -63.25 54.85 -63.6 54.85 -65.1 51.35 Q-67.95 44.4 -69.55 36.85 -71.25 29.05 -71.55 21.05 -71.8 30.15 -69.8 38.9 -67.8 47.7 -63.55 55.6 L-62.15 55.1 -61.75 54.8 -61.35 54.55 -61.05 54.15 -60.75 53.75 -60.55 53.3 -60.35 52.65 -60.8 53.4 -61.05 53.7 -61.25 54.0 -61.65 54.2 -62.0 54.45 M-65.15 35.75 L-65.1 37.3 Q-64.85 43.2 -61.0 47.65 L-60.25 45.95 -61.2 47.0 Q-64.45 41.95 -65.15 35.75 M-58.35 36.7 L-57.5 36.35 Q-56.35 30.15 -55.5 23.95 -54.6 17.7 -54.2 11.4 -53.8 5.2 -53.8 -1.05 -53.8 -9.85 -54.95 -18.6 L-54.5 -5.85 Q-54.4 0.45 -54.75 6.8 -55.05 13.1 -55.7 19.45 -56.6 28.2 -58.35 36.7 M-85.05 61.6 L-84.65 61.25 -83.95 43.2 -85.05 61.6" fill="#d8d0ab" fill-rule="evenodd" stroke="none"/>
    <path d="M127.65 -52.4 L138.45 -54.6 Q131.4 -52.35 124.05 -51.15 L110.3 -49.35 96.5 -48.7 82.3 -49.25 Q74.85 -49.95 67.5 -51.4 81.15 -49.45 94.85 -49.5 L111.35 -50.3 127.65 -52.4 M115.9 -53.65 Q109.1 -52.45 102.05 -52.25 L88.2 -52.95 78.95 -54.35 Q90.25 -53.25 101.5 -53.75 110.55 -54.2 119.55 -55.6 125.65 -56.55 131.5 -58.05 L132.1 -57.5 Q124.1 -54.7 115.9 -53.65 M166.7 -58.0 L176.6 -57.3 181.55 -56.8 186.45 -56.25 196.3 -54.75 206.1 -52.85 237.9 -45.15 231.45 -45.8 225.0 -46.8 218.65 -48.05 206.75 -50.95 195.4 -53.4 184.0 -55.5 172.5 -57.25 166.7 -58.0 M30.05 -48.65 L29.45 -48.1 Q25.95 -48.25 23.1 -50.05 L22.7 -50.4 24.1 -51.35 30.2 -49.35 30.05 -48.65 M36.8 -47.95 Q28.55 -51.75 19.45 -53.35 23.95 -53.6 28.55 -52.5 33.0 -51.35 36.8 -48.7 L36.8 -47.95 M31.55 -53.85 L56.15 -47.2 42.8 -52.55 Q50.2 -50.05 57.9 -48.6 66.15 -46.9 74.6 -46.3 80.2 -46.1 85.85 -46.05 L91.45 -46.05 Q84.75 -44.55 77.95 -44.6 L69.75 -44.75 77.85 -43.5 Q69.85 -43.65 62.15 -45.05 54.25 -46.4 46.7 -48.6 41.6 -50.15 36.6 -52.0 34.05 -52.85 31.55 -53.85 M89.0 -20.7 L83.2 -21.6 131.9 -17.15 140.0 -16.75 148.0 -16.6 156.05 -16.65 164.05 -16.85 159.8 -16.25 155.5 -15.8 151.2 -15.5 142.6 -15.4 129.65 -16.15 112.25 -17.8 100.6 -19.25 89.0 -20.7 M78.85 -19.55 L80.45 -18.65 79.85 -18.2 Q70.1 -21.0 60.15 -18.75 67.7 -22.9 76.3 -22.3 L81.35 -21.5 71.3 -21.65 Q75.35 -21.45 78.85 -19.55 M68.15 -16.4 L68.2 -16.95 75.45 -16.25 68.15 -16.4 M66.85 63.6 L65.95 47.9 65.25 47.3 64.8 41.8 63.45 25.15 Q63.05 19.65 63.3 14.2 63.65 6.95 65.5 0.05 L66.4 -3.45 65.95 1.45 Q64.9 13.45 65.25 25.7 65.5 35.85 66.2 46.05 L67.25 63.6 66.85 63.6 M69.35 63.6 L69.8 31.65 70.2 52.65 70.75 50.9 Q71.15 57.4 72.65 63.6 L69.35 63.6 M138.3 63.6 L138.4 62.95 138.4 63.6 138.3 63.6 M142.8 63.6 Q143.0 57.45 143.7 51.25 L144.3 62.15 144.35 63.6 142.8 63.6 M148.95 63.6 L148.6 45.6 149.5 63.6 148.95 63.6 M153.3 63.6 L153.1 60.35 153.05 54.7 153.6 43.55 154.1 32.35 154.5 21.2 Q154.7 15.6 155.05 10.0 L155.75 2.55 154.9 19.3 154.4 35.95 154.3 46.15 154.5 56.35 154.8 63.6 153.3 63.6 M156.3 63.6 Q155.85 57.3 155.7 51.0 L155.55 38.95 155.65 28.65 Q155.8 20.8 156.35 13.15 L157.1 2.85 157.75 2.65 Q157.3 13.3 157.25 23.7 L157.35 36.6 157.5 48.4 157.95 63.6 156.3 63.6 M223.4 63.6 L223.4 63.2 Q223.65 56.9 223.05 50.45 223.9 57.05 223.8 63.6 L223.4 63.6 M225.65 63.6 L225.6 62.8 Q225.3 57.2 225.15 51.6 L224.95 40.3 224.95 29.1 225.1 17.65 226.2 63.6 225.65 63.6 M232.15 63.6 L232.15 62.6 Q232.2 59.5 232.65 56.5 L233.6 63.6 232.15 63.6 M238.15 63.6 L235.5 -9.5 236.2 -6.8 236.95 7.85 237.45 18.95 237.8 30.05 238.0 41.15 238.15 55.45 238.15 63.6 M241.5 63.6 L241.45 63.05 240.65 50.85 240.15 38.55 240.0 26.25 240.15 13.9 241.65 43.15 Q242.1 28.6 243.65 14.15 L244.7 4.45 243.85 48.9 Q244.05 55.15 245.1 61.35 L245.5 63.6 241.5 63.6 M256.75 63.6 L257.15 56.0 257.5 44.35 257.15 32.15 256.6 26.05 Q258.55 33.65 258.55 41.55 258.55 47.4 258.15 53.3 L257.3 63.6 256.75 63.6 M260.3 63.6 L260.35 62.6 261.25 47.5 261.85 32.4 262.15 17.3 262.65 36.4 262.8 46.75 262.55 57.05 262.15 63.6 260.3 63.6 M163.8 -10.15 Q163.05 -2.95 163.1 4.25 L163.2 16.55 163.15 31.55 162.9 39.0 Q162.25 29.6 162.2 20.3 L162.3 10.1 162.7 0.0 163.05 -5.05 163.5 -10.15 163.8 -10.15 M-28.45 63.6 L-28.2 33.9 -27.8 63.6 -28.45 63.6 M-24.65 63.6 L-24.6 62.9 -23.65 49.3 -23.25 40.6 -23.05 31.9 -22.9 23.2 Q-22.6 31.6 -22.6 39.65 -22.6 45.1 -22.75 50.55 L-22.95 55.95 -23.25 61.4 -23.4 63.6 -24.65 63.6 M-20.95 63.6 Q-21.15 56.45 -19.9 49.25 L-19.45 63.6 -20.95 63.6 M-15.1 63.6 L-15.4 59.15 -15.7 50.4 -15.8 41.7 -15.6 32.9 -15.2 24.2 -14.6 15.5 -13.8 6.8 -12.75 -1.95 -13.6 7.75 -14.25 17.4 -14.85 27.1 -15.2 36.7 -15.35 41.9 -15.35 47.0 -15.3 52.1 -15.2 57.2 -14.95 62.3 -14.85 63.6 -15.1 63.6 M-6.45 63.6 L-6.45 63.2 -6.65 48.8 -6.6 37.65 -6.1 26.45 -5.25 15.3 -4.1 4.1 -4.65 20.75 -4.95 37.35 -5.0 47.45 -4.95 57.55 -4.9 63.6 -6.45 63.6 M2.85 63.6 Q2.75 57.25 4.15 51.15 L4.85 48.15 5.25 48.35 5.3 63.6 2.85 63.6 M9.75 63.6 L9.65 61.05 8.05 63.15 9.85 60.3 10.15 63.6 9.75 63.6 M38.25 63.6 L38.25 49.85 37.85 34.2 37.7 18.4 37.75 7.85 38.4 20.35 39.05 32.75 Q39.5 41.1 39.5 49.6 L39.5 63.6 38.25 63.6 M41.8 63.6 L43.05 15.4 43.4 15.7 43.1 63.6 41.8 63.6 M51.25 63.6 L50.75 59.75 51.15 59.2 51.5 51.85 52.9 63.6 51.25 63.6 M38.35 -19.55 L26.45 -19.5 14.55 -19.6 2.7 -20.2 -9.15 -21.3 66.85 -21.75 52.65 -20.35 38.35 -19.55 M62.75 -9.8 L62.65 37.85 Q62.25 30.65 62.1 23.15 62.0 17.65 62.05 12.15 62.1 6.65 62.3 1.2 L62.75 -9.8 M178.15 -21.25 L189.95 -21.8 201.75 -22.6 Q192.4 -20.55 182.65 -19.65 L176.1 -19.2 164.45 -19.15 152.85 -19.45 141.3 -20.6 134.5 -21.7 142.2 -21.05 Q148.35 -20.85 154.5 -20.8 L166.35 -20.9 178.15 -21.25 M166.6 -25.65 L160.7 -26.15 168.35 -25.6 225.5 -27.6 219.7 -26.65 213.8 -25.95 202.0 -25.5 190.2 -25.25 Q184.25 -25.15 178.35 -25.3 L166.6 -25.65 M116.7 -19.55 L131.6 -18.1 146.45 -17.25 135.35 -17.45 125.4 -17.9 115.5 -18.95 105.8 -20.8 96.0 -22.8 106.75 -20.9 116.7 -19.55 M117.6 10.8 Q117.75 8.35 118.05 5.95 117.7 15.7 117.5 25.5 L117.3 43.4 117.55 61.3 117.35 57.95 117.1 46.2 117.0 34.4 Q117.0 28.5 117.15 22.6 L117.6 10.8 M152.1 15.95 L152.45 31.45 152.3 47.05 152.1 52.2 151.7 52.55 151.6 5.2 151.9 10.75 152.1 15.95 M299.9 -54.0 L296.3 -53.7 Q289.25 -53.1 282.4 -53.35 275.45 -53.6 268.6 -55.0 L283.1 -53.9 297.5 -54.85 299.9 -55.2 299.9 -54.0 M299.9 -46.75 L294.15 -46.2 280.4 -46.25 266.7 -48.0 Q261.1 -48.6 255.6 -49.75 L244.6 -52.5 251.95 -51.45 266.6 -49.6 281.2 -47.8 295.9 -47.0 299.9 -47.05 299.9 -46.75 M299.9 -48.8 L292.15 -48.15 277.95 -48.55 Q270.65 -49.2 263.65 -51.0 256.6 -52.75 249.65 -55.65 258.15 -53.4 266.55 -51.7 274.6 -50.0 283.0 -49.5 291.35 -48.95 299.65 -49.25 L299.9 -49.25 299.9 -48.8 M198.0 -48.0 L230.7 -43.3 220.25 -43.85 Q212.8 -44.75 205.45 -46.35 L198.0 -48.0 M211.5 -56.25 Q224.95 -52.65 238.5 -50.35 L252.2 -48.55 265.85 -46.65 Q260.5 -45.85 255.25 -46.55 L244.25 -48.5 Q238.7 -49.3 233.25 -50.6 227.75 -51.7 222.4 -53.15 L211.5 -56.25 M249.4 -29.9 L240.45 -29.8 226.2 -29.55 Q218.25 -29.25 210.3 -29.2 L194.45 -28.5 189.15 -28.3 196.75 -29.05 204.3 -29.7 211.9 -30.2 225.5 -31.0 Q234.5 -31.4 243.45 -31.3 L261.35 -30.55 267.25 -30.05 258.35 -30.0 249.4 -29.9 M263.8 -27.05 L268.75 -26.1 258.35 -27.35 235.0 -26.45 248.55 -27.85 263.8 -27.05 M267.05 -22.55 L251.05 -22.8 253.25 -23.15 Q260.25 -24.85 267.05 -22.55 M232.05 13.2 L232.65 2.55 Q232.3 14.55 232.2 26.65 232.15 35.8 232.35 44.65 L232.55 50.65 232.35 51.05 231.9 50.5 Q231.35 39.8 231.5 29.1 231.65 21.1 232.05 13.2 M250.8 37.1 L251.75 54.05 252.25 53.9 251.55 55.6 251.1 55.6 250.25 37.45 250.8 37.1 M252.7 52.2 L252.25 44.45 253.1 51.8 252.7 52.2 M249.1 55.05 L250.2 63.3 248.65 62.85 248.0 58.75 Q246.9 51.4 246.95 43.85 247.0 36.3 248.1 28.95 247.8 35.65 248.1 42.3 248.35 48.7 249.1 55.05 M299.9 41.1 L299.9 47.4 299.4 55.8 Q296.15 48.6 296.6 40.65 296.85 36.65 298.05 32.75 L299.05 53.3 299.5 41.15 299.9 41.1 M299.9 62.95 L299.9 63.6 299.35 63.6 299.9 62.95 M297.9 63.6 L297.05 63.6 Q294.1 56.2 293.0 48.55 290.95 34.45 292.6 20.15 293.05 42.2 297.9 63.6 M293.1 63.6 L291.85 63.6 Q290.95 59.65 291.2 55.35 L291.75 49.25 Q291.4 56.55 293.1 63.6 M289.2 63.6 L288.2 63.6 288.1 62.65 Q287.65 57.3 287.5 51.95 L289.2 63.6 M285.15 63.6 L284.35 63.6 Q283.8 57.3 284.25 51.15 L284.85 44.6 Q284.35 50.35 284.55 56.2 284.7 59.9 285.15 63.6 M273.05 -19.45 L272.35 -19.15 272.4 -19.9 273.05 -19.45 M272.15 -16.55 L261.4 -17.8 Q266.35 -19.1 270.9 -17.1 L272.15 -16.55 M287.65 -2.4 L287.25 -13.35 287.5 -19.3 287.65 -2.4 M286.9 47.25 Q286.65 32.55 286.75 17.9 L287.25 48.45 Q286.9 47.85 286.9 47.25 M290.45 45.8 L288.45 11.55 291.05 45.35 290.45 45.8 M-195.65 -53.95 L-163.05 -54.25 -179.25 -53.4 -195.65 -53.95 M-178.2 -56.4 L-184.2 -56.4 -175.4 -56.65 -159.6 -56.95 -145.6 -56.9 -131.65 -56.45 -117.7 -55.4 -110.8 -54.7 -117.25 -55.0 -130.2 -55.6 -142.55 -56.0 -154.4 -56.2 -166.3 -56.35 -178.2 -56.4 M-154.5 -58.5 L-163.65 -58.05 -157.95 -58.5 -152.35 -58.85 -146.65 -59.0 -141.05 -59.0 -129.7 -58.65 -122.75 -58.0 -127.1 -58.35 -136.2 -58.6 -145.4 -58.65 -154.5 -58.5 M-152.55 -54.75 L-137.65 -54.8 -122.8 -54.35 -122.45 -54.05 -162.55 -54.05 -157.55 -54.4 -152.55 -54.75 M-298.4 -48.95 L-298.9 -18.75 -298.95 -44.15 -298.4 -48.95 M-282.75 -57.65 L-273.7 -57.85 -264.6 -57.85 -255.55 -57.75 -296.85 -57.0 -282.75 -57.65 M-226.95 -55.35 L-242.6 -57.1 -224.25 -56.65 -224.15 -55.75 -226.3 -54.5 -226.95 -55.35 M-297.2 -30.95 L-296.0 -43.75 -296.8 7.25 -297.6 -5.45 Q-297.9 -11.85 -297.8 -18.2 -297.7 -24.6 -297.2 -30.95 M-299.7 28.2 L-299.7 24.35 -298.8 18.7 Q-299.45 23.45 -299.7 28.2 M-299.7 42.2 L-299.45 45.7 Q-298.8 53.65 -297.2 61.6 L-298.0 62.0 -299.7 55.3 -299.7 42.2 M-299.7 61.2 L-299.05 63.6 -299.7 63.6 -299.7 61.2 M-297.7 43.9 L-297.0 44.4 -295.1 52.2 -296.55 53.25 -297.85 51.15 Q-299.6 47.7 -298.1 44.05 L-297.7 43.9 M-28.9 -47.35 L-43.15 -48.25 -59.05 -49.15 -69.6 -50.4 -80.15 -52.15 -85.45 -53.25 -75.1 -51.65 -55.8 -49.8 -37.85 -48.15 -28.9 -47.35 M-34.2 -45.45 L-15.3 -43.8 -16.55 -43.7 -25.55 -43.75 -34.65 -43.95 -43.65 -44.5 -58.6 -46.15 -53.2 -46.1 -43.7 -45.9 -34.2 -45.45 M-13.9 -48.2 L-70.15 -53.65 -19.6 -49.7 -14.45 -48.7 -13.9 -48.2 M3.1 -46.65 L16.35 -45.15 22.9 -43.9 -10.25 -48.15 3.1 -46.65 M-14.6 -45.95 L9.6 -42.45 5.0 -42.5 0.1 -43.0 Q-7.4 -44.05 -14.6 -45.95 M8.4 -49.15 L9.25 -49.3 22.05 -47.75 34.2 -45.7 Q24.65 -45.75 15.3 -47.35 L8.95 -48.6 8.4 -49.15 M-122.05 -54.0 L-116.65 -53.75 -121.0 -53.55 -122.05 -54.0 M-97.5 -57.45 L-97.5 -57.1 -91.7 -54.9 -97.7 -57.05 -97.55 -57.45 -97.55 -57.5 -97.5 -57.45 M-109.95 -55.0 Q-108.4 -55.95 -106.75 -55.35 L-108.3 -54.75 -109.95 -55.0 M-93.25 -58.7 L-94.0 -59.05 -78.7 -54.7 Q-85.35 -55.25 -91.25 -57.85 L-93.25 -58.7 M-71.6 -44.6 Q-63.2 -44.95 -55.1 -42.85 L-71.4 -43.6 -71.65 -44.0 -71.6 -44.6 M-86.65 -14.8 L-85.6 38.6 -86.25 32.0 -86.8 25.3 -87.3 11.95 Q-87.45 5.25 -87.25 -1.4 L-86.65 -14.8 M-73.85 0.1 L-71.95 14.8 -73.2 8.05 -73.85 0.1 M-60.05 4.05 L-59.5 10.85 -60.2 11.35 -61.1 10.85 -61.7 2.75 -60.05 4.05 M-64.4 -6.5 L-61.7 19.9 Q-63.95 13.4 -64.8 6.75 -65.65 0.1 -64.4 -6.5 M-71.4 -4.8 L-71.2 -9.6 -70.85 -0.35 -69.5 15.0 -67.65 27.25 -66.3 33.3 -66.55 33.7 -67.9 28.25 -69.7 18.95 -71.0 9.5 Q-71.7 2.3 -71.4 -4.8 M-67.05 -17.45 Q-68.6 0.05 -66.45 17.45 L-64.85 28.95 -64.1 29.05 -63.25 28.2 -63.9 29.55 -65.05 29.55 Q-68.8 14.25 -68.45 -1.55 -68.3 -9.55 -67.05 -17.45 M-58.0 20.6 L-57.6 -4.6 Q-56.5 0.95 -56.15 6.6 -55.9 11.4 -56.9 16.0 L-58.0 20.6 M-72.95 63.6 L-74.25 52.95 -75.4 41.3 -76.2 29.6 -76.75 17.8 -76.9 11.9 -76.45 12.0 -75.85 21.7 -74.7 37.15 -73.65 48.75 -72.4 60.35 -72.0 63.6 -72.95 63.6 M-66.1 63.6 L-68.95 48.9 -66.25 59.25 -65.2 63.6 -66.1 63.6 M-59.15 63.6 L-59.35 57.95 -58.75 63.6 -59.15 63.6 M-77.1 63.6 L-78.7 52.75 -78.35 53.05 -76.55 63.15 -76.45 63.6 -77.1 63.6 M-58.35 36.7 Q-56.6 28.2 -55.7 19.45 -55.05 13.1 -54.75 6.8 -54.4 0.45 -54.5 -5.85 L-54.95 -18.6 Q-53.8 -9.85 -53.8 -1.05 -53.8 5.2 -54.2 11.4 -54.6 17.7 -55.5 23.95 -56.35 30.15 -57.5 36.35 L-58.35 36.7 M-65.15 35.75 Q-64.45 41.95 -61.2 47.0 L-60.25 45.95 -61.0 47.65 Q-64.85 43.2 -65.1 37.3 L-65.15 35.75 M-62.0 54.45 L-61.65 54.2 -61.25 54.0 -61.05 53.7 -60.8 53.4 -60.35 52.65 -60.55 53.3 -60.75 53.75 -61.05 54.15 -61.35 54.55 -61.75 54.8 -62.15 55.1 -63.55 55.6 Q-67.8 47.7 -69.8 38.9 -71.8 30.15 -71.55 21.05 -71.25 29.05 -69.55 36.85 -67.95 44.4 -65.1 51.35 L-63.6 54.85 -63.25 54.85 -62.9 54.85 -62.0 54.45 M-1.1 -15.8 L-16.75 -16.25 -24.6 -17.0 -11.45 -16.55 5.75 -16.55 Q14.55 -16.65 23.7 -17.05 L31.85 -17.35 14.55 -16.25 -1.1 -15.8 M-17.55 -21.5 L-10.7 -21.35 -19.85 -19.5 -17.55 -21.5 M-41.9 -19.1 L-43.3 -20.05 -35.65 -17.65 -37.6 -17.6 Q-39.9 -17.75 -41.9 -19.1 M-16.55 -6.85 L-20.2 43.8 -19.85 44.25 -20.6 44.25 -17.95 5.7 -16.55 -6.85 M-85.05 61.6 L-83.95 43.2 -84.65 61.25 -85.05 61.6" fill="#9a8c7c" fill-rule="evenodd" stroke="none"/>
    <path d="M67.25 63.6 L66.2 46.05 Q65.5 35.85 65.25 25.7 64.9 13.45 65.95 1.45 L66.4 -3.45 65.5 0.05 Q63.65 6.95 63.3 14.2 63.05 19.65 63.45 25.15 L64.8 41.8 65.25 47.3 65.95 47.9 66.85 63.6 52.9 63.6 51.5 51.85 51.15 59.2 50.75 59.75 51.25 63.6 43.1 63.6 43.4 15.7 43.05 15.4 41.8 63.6 39.5 63.6 39.5 49.6 Q39.5 41.1 39.05 32.75 L38.4 20.35 37.75 7.85 37.7 18.4 37.85 34.2 38.25 49.85 38.25 63.6 10.15 63.6 9.85 60.3 8.05 63.15 9.65 61.05 9.75 63.6 5.3 63.6 5.25 48.35 4.85 48.15 4.15 51.15 Q2.75 57.25 2.85 63.6 L-4.9 63.6 -4.95 57.55 -5.0 47.45 -4.95 37.35 -4.65 20.75 -4.1 4.1 -5.25 15.3 -6.1 26.45 -6.6 37.65 -6.65 48.8 -6.45 63.2 -6.45 63.6 -14.85 63.6 -14.95 62.3 -15.2 57.2 -15.3 52.1 -15.35 47.0 -15.35 41.9 -15.2 36.7 -14.85 27.1 -14.25 17.4 -13.6 7.75 -12.75 -1.95 -13.8 6.8 -14.6 15.5 -15.2 24.2 -15.6 32.9 -15.8 41.7 -15.7 50.4 -15.4 59.15 -15.1 63.6 -19.45 63.6 -19.9 49.25 Q-21.15 56.45 -20.95 63.6 L-23.4 63.6 -23.25 61.4 -22.95 55.95 -22.75 50.55 Q-22.6 45.1 -22.6 39.65 -22.6 31.6 -22.9 23.2 L-23.05 31.9 -23.25 40.6 -23.65 49.3 -24.6 62.9 -24.65 63.6 -27.8 63.6 -28.2 33.9 -28.45 63.6 -49.4 63.6 -49.4 -10.15 163.5 -10.15 163.05 -5.05 162.7 0.0 162.3 10.1 162.2 20.3 Q162.25 29.6 162.9 39.0 L163.15 31.55 163.2 16.55 163.1 4.25 Q163.05 -2.95 163.8 -10.15 L267.65 -10.15 267.65 63.6 262.15 63.6 262.55 57.05 262.8 46.75 262.65 36.4 262.15 17.3 261.85 32.4 261.25 47.5 260.35 62.6 260.3 63.6 257.3 63.6 258.15 53.3 Q258.55 47.4 258.55 41.55 258.55 33.65 256.6 26.05 L257.15 32.15 257.5 44.35 257.15 56.0 256.75 63.6 245.5 63.6 245.1 61.35 Q244.05 55.15 243.85 48.9 L244.7 4.45 243.65 14.15 Q242.1 28.6 241.65 43.15 L240.15 13.9 240.0 26.25 240.15 38.55 240.65 50.85 241.45 63.05 241.5 63.6 238.15 63.6 233.6 63.6 232.65 56.5 Q232.2 59.5 232.15 62.6 L232.15 63.6 226.2 63.6 225.1 17.65 224.95 29.1 224.95 40.3 225.15 51.6 Q225.3 57.2 225.6 62.8 L225.65 63.6 223.8 63.6 Q223.9 57.05 223.05 50.45 223.65 56.9 223.4 63.2 L223.4 63.6 157.95 63.6 157.5 48.4 157.35 36.6 157.25 23.7 Q157.3 13.3 157.75 2.65 L157.1 2.85 156.35 13.15 Q155.8 20.8 155.65 28.65 L155.55 38.95 155.7 51.0 Q155.85 57.3 156.3 63.6 L154.8 63.6 154.5 56.35 154.3 46.15 154.4 35.95 154.9 19.3 155.75 2.55 155.05 10.0 Q154.7 15.6 154.5 21.2 L154.1 32.35 153.6 43.55 153.05 54.7 153.1 60.35 153.3 63.6 149.5 63.6 148.6 45.6 148.95 63.6 144.35 63.6 144.3 62.15 143.7 51.25 Q143.0 57.45 142.8 63.6 L138.4 63.6 138.4 62.95 138.3 63.6 72.65 63.6 Q71.15 57.4 70.75 50.9 L70.2 52.65 69.8 31.65 69.35 63.6 67.25 63.6 M68.15 -16.4 L75.45 -16.25 68.2 -16.95 68.15 -16.4 M78.85 -19.55 Q75.35 -21.45 71.3 -21.65 L81.35 -21.5 76.3 -22.3 Q67.7 -22.9 60.15 -18.75 70.1 -21.0 79.85 -18.2 L80.45 -18.65 78.85 -19.55 M89.0 -20.7 L100.6 -19.25 112.25 -17.8 129.65 -16.15 142.6 -15.4 151.2 -15.5 155.5 -15.8 159.8 -16.25 164.05 -16.85 156.05 -16.65 148.0 -16.6 140.0 -16.75 131.9 -17.15 83.2 -21.6 89.0 -20.7 M238.15 63.6 L238.15 55.45 238.0 41.15 237.8 30.05 237.45 18.95 236.95 7.85 236.2 -6.8 235.5 -9.5 238.15 63.6 M166.6 -25.65 L178.35 -25.3 Q184.25 -25.15 190.2 -25.25 L202.0 -25.5 213.8 -25.95 219.7 -26.65 225.5 -27.6 168.35 -25.6 160.7 -26.15 166.6 -25.65 M178.15 -21.25 L166.35 -20.9 154.5 -20.8 Q148.35 -20.85 142.2 -21.05 L134.5 -21.7 141.3 -20.6 152.85 -19.45 164.45 -19.15 176.1 -19.2 182.65 -19.65 Q192.4 -20.55 201.75 -22.6 L189.95 -21.8 178.15 -21.25 M62.75 -9.8 L62.3 1.2 Q62.1 6.65 62.05 12.15 62.0 17.65 62.1 23.15 62.25 30.65 62.65 37.85 L62.75 -9.8 M38.35 -19.55 L52.65 -20.35 66.85 -21.75 -9.15 -21.3 2.7 -20.2 14.55 -19.6 26.45 -19.5 38.35 -19.55 M152.1 15.95 L151.9 10.75 151.6 5.2 151.7 52.55 152.1 52.2 152.3 47.05 152.45 31.45 152.1 15.95 M117.6 10.8 L117.15 22.6 Q117.0 28.5 117.0 34.4 L117.1 46.2 117.35 57.95 117.55 61.3 117.3 43.4 117.5 25.5 Q117.7 15.7 118.05 5.95 117.75 8.35 117.6 10.8 M116.7 -19.55 L106.75 -20.9 96.0 -22.8 105.8 -20.8 115.5 -18.95 125.4 -17.9 135.35 -17.45 146.45 -17.25 131.6 -18.1 116.7 -19.55 M249.1 55.05 Q248.35 48.7 248.1 42.3 247.8 35.65 248.1 28.95 247.0 36.3 246.95 43.85 246.9 51.4 248.0 58.75 L248.65 62.85 250.2 63.3 249.1 55.05 M252.7 52.2 L253.1 51.8 252.25 44.45 252.7 52.2 M250.8 37.1 L250.25 37.45 251.1 55.6 251.55 55.6 252.25 53.9 251.75 54.05 250.8 37.1 M232.05 13.2 Q231.65 21.1 231.5 29.1 231.35 39.8 231.9 50.5 L232.35 51.05 232.55 50.65 232.35 44.65 Q232.15 35.8 232.2 26.65 232.3 14.55 232.65 2.55 L232.05 13.2 M267.05 -22.55 Q260.25 -24.85 253.25 -23.15 L251.05 -22.8 267.05 -22.55 M263.8 -27.05 L248.55 -27.85 235.0 -26.45 258.35 -27.35 268.75 -26.1 263.8 -27.05 M249.4 -29.9 L258.35 -30.0 267.25 -30.05 261.35 -30.55 243.45 -31.3 Q234.5 -31.4 225.5 -31.0 L211.9 -30.2 204.3 -29.7 196.75 -29.05 189.15 -28.3 194.45 -28.5 210.3 -29.2 Q218.25 -29.25 226.2 -29.55 L240.45 -29.8 249.4 -29.9 M272.15 -16.55 L270.9 -17.1 Q266.35 -19.1 261.4 -17.8 L272.15 -16.55 M273.05 -19.45 L272.4 -19.9 272.35 -19.15 273.05 -19.45 M273.05 -36.5 L273.6 -36.05 273.65 -11.6 267.65 -11.15 -49.4 -11.15 -49.4 -36.35 273.05 -36.5 M-16.55 -6.85 L-17.95 5.7 -20.6 44.25 -19.85 44.25 -20.2 43.8 -16.55 -6.85 M-41.9 -19.1 Q-39.9 -17.75 -37.6 -17.6 L-35.65 -17.65 -43.3 -20.05 -41.9 -19.1 M-17.55 -21.5 L-19.85 -19.5 -10.7 -21.35 -17.55 -21.5 M-1.1 -15.8 L14.55 -16.25 31.85 -17.35 23.7 -17.05 Q14.55 -16.65 5.75 -16.55 L-11.45 -16.55 -24.6 -17.0 -16.75 -16.25 -1.1 -15.8" fill="#cdc598" fill-rule="evenodd" stroke="none"/>
    <path d="M267.65 63.6 L267.65 -10.15 163.8 -10.15 163.5 -10.15 -49.4 -10.15 -49.4 63.6 -50.4 63.6 -50.4 -37.95 -89.4 -37.95 -89.4 63.6 -90.4 63.6 -90.4 -35.8 -90.3 -36.3 -90.6 -36.75 -105.0 -39.5 -105.05 -39.55 Q-105.4 -39.65 -105.65 -39.85 L-106.0 -40.35 -106.05 -40.45 -106.1 -41.0 -106.5 -45.35 -108.1 -45.55 -108.15 -45.55 -108.25 -45.55 -246.4 -45.55 -246.3 63.6 -247.3 63.6 -247.4 -45.6 -291.25 -49.7 -291.2 63.6 -292.2 63.6 -292.2 -49.55 -299.7 -49.65 -299.7 -50.7 -291.1 -50.7 -246.9 -46.55 -108.55 -46.65 -108.25 -46.6 -106.8 -46.75 -106.5 -51.7 -299.7 -51.7 -299.7 -52.7 -106.55 -53.1 -106.8 -60.6 -111.85 -60.95 -299.7 -60.95 -299.7 -61.95 -110.45 -61.95 -110.3 -62.35 -106.95 -62.8 -105.1 -62.85 -104.05 -63.5 Q-103.1 -63.85 -102.3 -63.2 -101.9 -62.8 -101.25 -62.55 L-97.0 -62.65 -96.7 -61.95 299.9 -61.95 299.9 -60.95 -104.35 -60.95 -105.05 -59.95 -104.95 -41.15 299.9 -40.95 299.9 -39.95 -103.15 -39.95 -103.15 -39.8 -90.35 -37.95 -90.25 -38.8 -49.55 -38.8 -49.4 -37.45 273.45 -37.45 287.65 -39.15 294.8 -39.2 299.9 -39.05 299.9 -37.9 280.6 -37.8 280.5 63.6 279.45 63.6 279.45 -37.45 274.5 -36.4 274.45 -10.3 268.65 -10.1 268.6 63.6 267.65 63.6 M273.05 -36.5 L-49.4 -36.35 -49.4 -11.15 267.65 -11.15 273.65 -11.6 273.6 -36.05 273.05 -36.5 M-97.45 -62.15 L-102.8 -62.55 -103.3 -63.1 -103.8 -63.15 -104.35 -62.55 -109.25 -62.55 -109.5 -61.95 -109.35 -61.95 -108.6 -62.0 -106.2 -61.75 -105.55 -61.7 -98.85 -61.9 -97.45 -62.15 M-103.3 -62.55 Q-103.8 -61.95 -103.45 -62.55 -103.25 -62.85 -103.3 -62.55" fill="#333333" fill-rule="evenodd" stroke="none"/>
    <path d="M-299.7 -51.7 L-106.5 -51.7 -106.8 -46.75 -108.25 -46.6 -108.55 -46.65 -246.9 -46.55 -291.1 -50.7 -299.7 -50.7 -299.7 -51.7 M-291.2 63.6 L-291.25 -49.7 -247.4 -45.6 -247.3 63.6 -291.2 63.6 M299.9 -39.05 L294.8 -39.2 287.65 -39.15 273.45 -37.45 -49.4 -37.45 -49.55 -38.8 -90.25 -38.8 -90.35 -37.95 -103.15 -39.8 -103.15 -39.95 299.9 -39.95 299.9 -39.05 M268.6 63.6 L268.65 -10.1 274.45 -10.3 274.5 -36.4 279.45 -37.45 279.45 63.6 268.6 63.6" fill="#6f6453" fill-rule="evenodd" stroke="none"/>
    <path d="M-103.3 -62.55 Q-103.25 -62.85 -103.45 -62.55 -103.8 -61.95 -103.3 -62.55 M-97.45 -62.15 L-98.85 -61.9 -105.55 -61.7 -106.2 -61.75 -108.6 -62.0 -109.35 -61.95 -109.5 -61.95 -109.25 -62.55 -104.35 -62.55 -103.8 -63.15 -103.3 -63.1 -102.8 -62.55 -97.45 -62.15" fill="#999999" fill-rule="evenodd" stroke="none"/>
  </g>
</svg>
