<?xml version="1.0" encoding="UTF-8" standalone="no"?>
<svg xmlns:ffdec="https://www.free-decompiler.com/flash" xmlns:xlink="http://www.w3.org/1999/xlink" ffdec:objectType="shape" height="119.3px" width="124.1px" xmlns="http://www.w3.org/2000/svg">
  <g transform="matrix(1.0, 0.0, 0.0, 1.0, 62.05, 59.65)">
    <path d="M-42.15 -25.85 L-41.8 -26.6 -40.5 -29.2 Q-39.8 -30.55 -39.5 -32.1 L-38.3 -37.8 -37.45 -41.55 -36.5 -45.25 -35.4 -48.6 -34.15 -50.9 -32.65 -52.4 -30.85 -53.15 -27.65 -54.15 -26.45 -54.5 -24.2 -55.05 -22.05 -55.5 -20.55 -55.65 -19.15 -55.85 -14.55 -56.45 -18.75 -56.25 -21.6 -56.05 -24.45 -55.8 -26.05 -55.45 -27.65 -55.25 -27.7 -55.25 -31.55 -54.6 -31.5 -55.35 -29.6 -56.4 Q-28.2 -57.15 -26.5 -57.5 L-22.6 -57.6 -18.7 -57.85 -14.85 -58.1 -10.95 -58.4 -7.05 -58.7 -4.2 -58.8 -1.0 -58.9 2.2 -58.85 5.4 -58.75 8.55 -58.7 11.75 -58.5 14.9 -58.2 18.1 -57.85 21.8 -57.6 23.9 -57.35 26.0 -57.15 28.1 -56.9 Q29.95 -56.65 31.5 -55.35 L31.45 -54.9 30.9 -55.0 20.3 -56.2 14.6 -56.5 21.35 -55.7 17.5 -55.65 19.9 -55.3 22.2 -55.0 24.5 -54.7 28.05 -54.25 Q29.8 -53.95 31.2 -53.25 32.75 -52.55 33.75 -51.35 L35.2 -49.2 36.45 -46.5 37.25 -43.85 37.9 -41.1 38.55 -38.4 39.15 -35.7 40.0 -32.25 40.6 -30.15 41.0 -28.95 Q41.55 -27.25 42.4 -25.8 L39.65 -26.05 37.05 -26.0 33.45 -25.95 29.8 -25.85 26.75 -25.8 23.65 -25.7 20.2 -25.65 16.7 -25.75 13.1 -25.9 9.4 -26.25 8.8 -26.2 Q9.25 -25.95 9.8 -25.85 L11.05 -25.55 13.55 -25.15 15.55 -24.95 18.05 -24.75 21.75 -24.5 25.35 -24.4 42.25 -23.45 42.55 -22.35 40.35 -22.45 37.6 -22.7 34.85 -22.8 32.45 -22.95 28.75 -23.0 25.0 -23.1 22.7 -23.4 20.3 -23.6 16.9 -23.7 13.5 -23.8 9.8 -23.95 6.1 -24.1 4.0 -24.1 0.2 -24.0 -3.2 -23.95 -6.6 -23.85 -10.15 -23.7 -13.65 -23.5 -17.05 -23.35 -20.0 -23.3 -23.8 -23.2 -27.55 -23.3 -30.55 -23.4 -34.05 -23.6 -36.6 -23.7 -32.2 -24.0 -32.35 -24.0 -30.8 -24.1 -26.45 -24.4 -22.7 -24.6 -19.0 -24.9 -15.5 -25.0 -11.65 -25.45 -10.45 -25.9 -10.85 -26.05 -14.55 -26.3 -18.25 -26.6 -21.1 -26.4 -24.0 -26.35 -29.1 -26.1 -32.5 -25.9 -37.8 -25.85 -40.4 -25.45 -41.8 -25.7 -42.15 -25.85 M23.2 57.0 L23.25 57.0 23.2 57.2 23.2 57.0" fill="#4b589a" fill-rule="evenodd" stroke="none"/>
    <path d="M42.4 -25.8 Q41.55 -27.25 41.0 -28.95 L40.6 -30.15 40.0 -32.25 39.15 -35.7 38.55 -38.4 37.9 -41.1 37.25 -43.85 36.45 -46.5 35.2 -49.2 33.75 -51.35 Q32.75 -52.55 31.2 -53.25 29.8 -53.95 28.05 -54.25 L24.5 -54.7 22.2 -55.0 19.9 -55.3 17.5 -55.65 21.35 -55.7 14.6 -56.5 20.3 -56.2 30.9 -55.0 31.45 -54.9 31.5 -55.35 Q29.95 -56.65 28.1 -56.9 L26.0 -57.15 23.9 -57.35 21.8 -57.6 18.1 -57.85 14.9 -58.2 11.75 -58.5 8.55 -58.7 5.4 -58.75 2.2 -58.85 -1.0 -58.9 -4.2 -58.8 -7.05 -58.7 -10.95 -58.4 -14.85 -58.1 -18.7 -57.85 -22.6 -57.6 -26.5 -57.5 Q-28.2 -57.15 -29.6 -56.4 L-31.5 -55.35 -31.55 -54.6 -27.7 -55.25 -27.65 -55.25 -26.05 -55.45 -24.45 -55.8 -21.6 -56.05 -18.75 -56.25 -14.55 -56.45 -19.15 -55.85 -20.55 -55.65 -22.05 -55.5 -24.2 -55.05 -26.45 -54.5 -27.65 -54.15 -30.85 -53.15 -32.65 -52.4 -34.15 -50.9 -35.4 -48.6 -36.5 -45.25 -37.45 -41.55 -38.3 -37.8 -39.5 -32.1 Q-39.8 -30.55 -40.5 -29.2 L-41.8 -26.6 -42.15 -25.85 -42.2 -24.85 -42.1 -24.5 -41.5 -24.35 -21.1 -24.8 -26.45 -24.4 -30.8 -24.1 -32.35 -24.0 -32.2 -24.0 -36.6 -23.7 -42.15 -23.45 -42.85 -22.8 -42.8 -22.4 -42.6 -22.3 -39.45 -21.75 -32.1 -21.65 -30.5 -21.65 -29.6 -21.65 -26.3 -21.7 -23.05 -21.7 -19.55 -21.7 -16.1 -21.7 -12.2 -21.7 -8.35 -21.7 -4.45 -21.75 -0.65 -21.75 2.65 -21.75 6.55 -21.7 10.45 -21.7 14.35 -21.7 18.25 -21.7 22.15 -21.65 24.3 -21.55 28.1 -21.5 31.3 -21.5 35.2 -21.45 39.1 -21.35 Q41.35 -21.05 42.55 -22.35 L42.25 -23.45 25.35 -24.4 17.15 -24.9 42.15 -24.35 42.4 -25.8 M5.85 -59.6 L8.65 -59.5 11.45 -59.4 14.25 -59.25 17.05 -59.15 19.85 -58.95 21.25 -58.85 22.65 -58.85 24.05 -58.75 25.45 -58.65 26.85 -58.55 28.25 -58.5 30.1 -58.05 31.3 -57.35 32.3 -56.7 33.1 -55.75 33.75 -54.65 35.05 -53.8 36.05 -52.75 36.65 -51.6 37.35 -49.1 37.95 -46.6 38.25 -45.3 38.55 -44.1 38.85 -42.8 39.05 -41.6 39.35 -40.3 39.6 -39.1 39.9 -37.8 40.1 -36.6 40.4 -35.3 40.6 -34.1 41.05 -31.7 43.5 -33.7 43.9 -30.9 48.4 -33.25 47.45 -27.1 52.15 -29.25 51.45 -23.75 58.2 -21.9 53.2 -18.4 59.65 -17.15 54.8 -13.25 61.3 -10.75 60.75 -10.15 60.0 -9.35 59.15 -8.75 57.45 -7.75 62.05 -1.85 56.9 -1.1 62.05 5.35 56.55 7.6 57.65 8.85 58.65 10.05 59.75 11.25 60.75 12.45 61.0 12.9 61.2 13.25 61.3 13.7 61.35 14.15 55.7 14.7 58.55 18.85 52.55 20.3 52.85 21.6 52.85 22.25 52.95 23.5 51.7 23.75 49.6 24.55 Q48.6 25.05 47.7 25.65 L47.4 25.75 47.05 25.85 45.75 26.55 45.1 27.25 44.8 27.65 43.85 29.15 42.85 30.35 41.85 31.4 40.95 32.05 39.85 32.85 39.65 33.0 38.85 34.5 36.8 37.15 34.2 40.45 31.65 43.2 29.1 45.9 28.95 46.05 28.75 46.2 28.25 46.7 27.2 47.65 25.3 49.3 24.25 50.25 22.9 51.3 22.35 51.8 22.4 51.65 22.15 51.95 22.0 52.15 21.6 52.6 21.0 53.2 17.7 55.75 15.85 56.8 15.1 56.2 10.85 57.9 6.25 58.9 1.6 59.65 -3.2 59.55 -9.2 58.35 -12.75 57.3 -14.4 56.5 -15.05 56.2 -15.4 56.65 -16.55 56.75 -17.6 56.5 -19.6 54.9 -21.35 52.95 -21.4 52.85 -21.6 52.45 -23.3 51.25 -24.15 50.55 -25.35 49.45 -26.35 48.6 -26.45 48.45 -28.0 47.0 -30.1 44.9 -30.2 44.85 -30.25 44.75 -31.4 43.4 -33.2 41.2 -34.6 39.6 -36.05 38.05 -37.4 36.45 -37.9 35.65 -38.1 35.3 -39.6 32.75 Q-39.8 32.4 -40.2 32.2 L-41.75 31.0 -43.7 28.8 -44.2 28.2 Q-45.1 27.0 -46.55 26.5 L-46.9 26.4 -48.45 25.3 Q-50.05 24.4 -51.7 23.6 L-52.75 23.2 -52.75 21.75 -52.55 20.25 -58.4 18.95 -55.5 14.7 -61.35 14.05 -56.8 7.35 -62.05 5.35 -56.85 -1.1 -61.85 -2.1 -60.7 -3.35 -56.15 -7.6 -61.1 -10.55 -54.75 -13.25 -59.8 -17.3 -53.2 -18.4 -57.85 -22.05 -51.15 -23.65 -52.1 -29.3 -47.8 -27.05 -47.3 -27.2 -48.4 -33.25 -43.9 -30.9 -43.5 -33.7 -41.05 -31.7 -40.65 -33.4 -40.25 -35.1 -39.9 -36.8 -39.5 -38.55 -39.15 -40.3 -38.8 -42.0 -38.45 -43.7 -38.1 -45.5 -37.8 -46.8 -37.5 -48.15 -37.15 -49.45 -36.8 -50.75 -36.6 -51.3 -36.2 -51.8 -34.65 -53.65 -33.85 -54.6 -33.0 -55.6 -31.55 -56.95 -30.6 -57.35 -27.15 -58.25 -23.95 -58.55 -20.85 -58.9 -17.45 -59.1 -14.15 -59.3 -10.75 -59.4 -9.05 -59.45 -7.45 -59.55 -5.75 -59.55 -4.05 -59.6 -2.35 -59.6 -0.75 -59.65 0.95 -59.6 2.55 -59.6 4.25 -59.6 5.85 -59.6 M18.65 -19.3 L24.15 -17.4 22.55 -17.85 19.6 -18.85 16.8 -19.6 13.0 -20.3 10.65 -20.4 8.35 -20.15 5.95 -19.7 5.6 -19.55 2.9 -18.9 6.0 -20.4 -6.1 -20.4 -2.05 -18.7 -4.35 -19.35 -7.55 -20.0 -10.35 -20.15 -13.15 -19.95 -16.0 -19.45 -18.15 -18.95 -22.6 -18.3 -12.55 -20.5 -35.15 -20.25 -36.5 -18.9 -38.0 -17.4 -36.65 -17.55 -39.05 -15.0 -38.95 -14.45 -40.75 -11.75 -40.65 -11.0 -37.5 -10.5 -40.9 -5.35 -40.75 -4.7 -41.4 -2.55 -41.7 -1.3 -42.15 1.2 -42.5 4.0 -42.6 5.55 Q-42.7 8.15 -42.4 10.95 L-42.1 15.0 -41.85 18.4 -41.35 22.6 -40.65 26.7 -39.5 30.45 -37.85 33.95 -36.9 35.5 -35.9 36.9 -34.85 38.3 -33.8 39.6 -32.8 40.8 -30.8 43.0 -28.8 45.15 -26.75 47.1 -26.3 47.55 -25.6 48.15 -22.5 50.85 -21.7 51.55 -22.55 48.45 -22.8 46.95 -22.9 43.75 -22.75 40.55 -22.5 38.9 Q-21.8 35.3 -19.45 32.55 L-16.25 29.25 -12.6 26.1 -13.7 28.2 -11.35 27.75 -11.2 27.35 -11.3 26.65 -11.25 25.9 -11.1 25.45 -10.7 24.3 -10.05 22.65 -13.5 23.6 -15.65 23.9 -17.85 23.85 -20.0 23.55 -23.55 22.4 -25.75 21.15 -27.1 19.9 Q-28.25 18.4 -28.3 16.45 -28.3 14.5 -27.9 12.85 -27.5 11.05 -26.35 9.85 L-24.9 8.65 Q-23.7 7.95 -22.35 7.55 -20.5 6.9 -18.55 6.7 L-14.8 6.25 Q-13.1 6.55 -11.5 7.15 -10.05 7.7 -8.85 8.75 -7.75 9.65 -7.0 10.9 L-5.85 13.2 -5.5 14.25 -4.55 13.5 -3.6 12.85 Q-3.2 12.55 -2.75 12.35 L-1.1 11.8 2.0 12.1 Q3.1 12.45 4.05 13.1 L5.5 14.25 5.95 12.95 6.55 11.65 7.35 10.5 Q8.25 9.45 9.3 8.55 10.55 7.45 12.3 7.2 L15.15 6.8 Q17.55 6.4 19.95 6.7 21.9 6.95 23.55 7.85 25.65 8.9 26.95 11.05 L28.3 13.65 28.65 15.1 28.3 18.05 27.25 20.2 25.85 21.6 23.55 22.7 Q22.15 23.25 20.65 23.3 L17.5 23.75 15.8 23.55 10.0 22.75 10.65 24.7 10.95 25.75 11.35 27.75 14.3 28.35 13.15 26.2 14.7 27.8 16.05 29.3 17.45 30.8 20.1 33.75 Q21.5 35.25 22.1 37.15 L23.0 40.65 23.2 42.65 22.95 46.55 22.15 50.0 21.7 51.55 22.7 50.75 23.6 49.85 24.25 49.25 25.5 48.15 28.3 45.55 31.0 43.0 32.65 41.25 35.7 37.45 37.25 35.05 38.55 32.6 Q39.4 30.8 39.85 28.7 L40.65 24.6 41.05 21.8 41.25 20.5 41.5 19.1 41.9 16.3 35.7 10.0 36.9 10.85 39.7 13.4 41.9 16.3 42.25 12.4 42.45 8.55 42.55 5.6 42.5 3.25 42.2 0.85 41.5 -2.7 40.6 -5.2 37.5 -10.5 40.65 -11.0 40.75 -11.75 39.5 -13.55 39.15 -14.15 39.0 -14.8 39.05 -15.0 36.7 -17.6 38.05 -17.45 36.8 -18.65 35.15 -20.25 15.2 -20.5 18.65 -19.3 M39.05 -3.45 L39.65 -3.5 37.75 -5.8 38.15 -6.15 38.15 -6.9 36.15 -8.05 Q33.5 -9.3 30.55 -9.35 L27.9 -9.75 25.25 -10.35 22.7 -11.2 19.5 -12.75 16.5 -13.95 Q15.5 -14.45 14.45 -14.45 L12.3 -14.0 Q11.25 -13.65 10.4 -12.95 L9.6 -12.15 10.9 -12.4 10.7 -11.95 9.45 -9.85 11.45 -10.5 13.15 -10.0 15.75 -9.45 18.3 -8.7 19.55 -8.3 22.0 -7.2 25.1 -5.55 26.5 -4.8 27.9 -4.0 29.45 -3.5 31.0 -3.1 28.15 -6.1 30.0 -4.7 30.95 -4.1 31.9 -3.65 Q32.9 -3.25 34.0 -2.95 35.0 -2.55 36.05 -2.3 L34.75 -4.15 36.95 -3.55 39.05 -3.45 M10.8 -14.3 L13.2 -14.9 14.65 -14.9 17.85 -13.85 21.7 -12.5 Q24.55 -11.35 27.45 -10.9 L31.4 -10.4 33.8 -9.9 36.0 -9.1 37.1 -8.5 38.0 -7.75 38.8 -6.8 39.5 -5.9 38.05 -5.6 40.85 -2.8 35.9 -3.15 37.2 -1.9 36.9 -1.5 31.95 -3.1 32.7 -1.8 31.5 -2.05 Q29.55 -2.6 27.85 -3.3 26.7 -3.85 25.65 -4.5 L23.4 -5.85 20.5 -7.2 19.05 -7.65 17.55 -8.05 Q16.45 -8.4 15.45 -8.9 L13.35 -9.8 8.25 -8.85 9.8 -11.8 8.7 -10.75 10.8 -14.3 M15.55 3.5 L13.8 3.1 12.35 3.9 11.95 3.3 13.0 2.2 Q14.15 1.0 15.85 0.85 L10.25 0.65 13.2 -0.35 16.05 -0.7 18.1 -0.2 20.65 0.8 23.35 1.7 25.95 2.4 28.65 3.05 31.05 3.45 31.6 3.6 32.6 3.9 34.6 5.15 32.35 4.85 34.6 6.4 34.85 8.05 33.8 7.75 15.55 3.5 M43.6 -22.75 L43.95 -21.2 43.6 -20.7 35.45 -20.25 38.55 -17.25 37.65 -17.3 40.05 -14.9 39.95 -13.95 41.65 -11.1 41.1 -10.45 38.25 -9.9 42.2 -5.25 41.15 -4.95 41.75 -3.65 42.7 -1.2 43.3 1.35 43.5 3.95 43.4 6.75 43.1 11.15 42.55 18.25 41.75 25.25 41.15 29.9 41.4 30.3 42.15 29.6 Q43.25 28.6 43.75 27.0 44.25 25.5 44.25 24.0 44.25 21.1 43.75 18.2 L43.9 18.7 44.0 15.2 44.15 11.65 44.25 8.05 44.3 4.45 44.7 0.8 Q45.0 -1.25 46.0 -2.9 46.85 -4.4 48.25 -5.2 49.8 -6.1 51.3 -6.65 L54.1 -7.3 54.6 -7.4 53.85 -7.1 50.8 -5.9 51.25 -4.7 52.0 -2.25 52.35 0.25 52.4 2.8 52.3 4.05 52.1 5.85 51.9 7.7 51.6 9.45 50.75 13.05 50.15 15.15 49.55 17.25 48.9 19.35 48.3 21.35 47.85 22.75 47.45 24.05 51.65 22.6 51.8 20.0 57.25 18.5 55.8 15.9 54.8 13.75 58.25 13.4 60.35 13.15 55.85 7.65 55.35 7.05 59.35 5.4 60.9 4.75 55.6 -1.65 55.25 -2.05 58.25 -2.25 61.3 -2.45 59.85 -4.0 58.25 -5.45 56.65 -6.85 54.85 -8.15 59.35 -9.9 60.4 -10.3 59.0 -11.05 53.45 -13.3 57.7 -16.35 51.85 -18.35 56.85 -21.7 50.6 -23.35 51.55 -28.4 46.45 -25.85 47.6 -31.8 43.35 -29.5 43.0 -32.65 41.25 -31.0 42.05 -28.8 43.5 -25.6 43.1 -24.5 43.45 -23.2 43.5 -23.1 43.6 -22.75 M50.75 -3.45 L49.95 -5.0 47.15 -2.9 Q48.5 -2.0 49.1 -0.55 L47.45 -2.3 46.75 -2.3 Q45.55 0.35 45.55 3.35 L45.5 4.75 45.25 9.15 45.15 12.1 44.65 17.25 Q45.65 15.65 46.15 13.7 L46.65 11.25 46.8 9.9 46.55 5.35 46.2 2.75 47.15 4.35 47.55 5.85 48.2 10.4 48.1 11.75 47.3 14.7 Q46.9 16.15 45.9 17.3 L44.45 18.85 44.3 20.05 44.8 21.35 45.1 22.6 45.35 25.25 46.05 23.9 46.7 22.45 Q48.35 18.8 49.45 15.05 50.4 11.95 50.95 8.85 51.6 5.4 51.65 1.65 51.7 -1.0 50.75 -3.45 M-43.75 -23.4 L-43.65 -24.25 -43.6 -24.7 -43.5 -25.8 -43.45 -26.05 -42.8 -27.6 -42.25 -28.8 -41.5 -30.5 -41.3 -31.15 -43.25 -32.75 -43.35 -29.5 -47.6 -31.8 -46.55 -25.7 -51.55 -28.4 -50.6 -23.35 -56.8 -21.7 -51.85 -18.4 -58.55 -17.05 -53.45 -13.3 -60.25 -10.35 -60.35 -10.3 -60.3 -10.25 -60.1 -10.2 -54.85 -8.15 -61.3 -2.45 -55.25 -2.05 -60.9 4.75 -59.2 5.45 -55.35 7.05 -55.6 7.4 -60.35 13.15 -58.25 13.4 -54.8 13.85 -57.6 18.55 -57.15 18.95 -51.8 19.85 -51.65 22.6 -47.4 24.05 -48.0 22.3 -48.55 20.55 -49.2 18.55 -49.75 16.5 -50.3 14.45 -50.8 12.35 -51.15 10.3 -51.5 8.2 -51.75 6.1 -51.95 3.9 -52.05 1.55 -51.85 -0.85 -51.45 -3.2 -50.9 -5.65 -54.6 -7.55 -54.05 -7.5 -52.55 -7.25 -51.2 -6.9 -49.9 -6.35 -48.7 -5.7 -47.45 -4.7 -46.9 -4.1 -46.5 -3.5 -45.85 -1.85 -45.15 1.0 -44.9 2.5 -44.7 3.9 Q-44.15 7.45 -44.0 10.9 -43.8 14.6 -43.95 18.2 L-44.15 19.7 -44.7 23.65 -44.6 25.1 -44.1 26.45 -42.65 28.8 -41.15 30.25 -41.3 28.45 -41.5 26.65 -42.35 19.25 Q-42.95 14.35 -43.05 9.35 L-43.1 7.25 -43.05 5.25 -42.95 3.15 -42.9 1.1 Q-42.8 -2.2 -41.15 -4.95 L-42.2 -5.25 -38.2 -9.9 -39.55 -9.9 -41.15 -10.35 -41.3 -10.85 -41.3 -11.3 Q-41.05 -12.85 -39.95 -13.95 L-40.1 -14.6 -37.6 -17.3 -38.55 -17.25 -35.45 -20.25 -43.85 -20.75 -44.3 -21.35 -43.75 -23.4 M-49.4 0.35 L-48.65 -2.15 -47.35 -2.85 -49.8 -5.2 -50.7 -3.35 -50.9 -2.8 -51.15 -0.5 -51.25 1.75 -51.15 4.0 -50.95 6.2 -50.3 10.0 -49.5 13.75 -48.65 16.75 -47.65 19.6 -46.55 22.5 -45.3 25.25 -44.25 19.8 -44.9 18.5 -45.55 17.15 -46.5 15.25 -47.25 13.35 -48.05 10.25 -47.25 12.2 -46.05 14.8 -44.65 17.25 -44.95 13.45 -45.1 10.6 -45.25 7.7 -45.35 4.8 -45.55 1.9 -45.95 -0.2 -46.75 -2.3 -47.45 -2.3 -49.05 -0.55 -49.35 4.65 -49.4 5.2 -49.55 3.6 -49.4 0.35 M-10.45 -11.55 L-10.9 -12.3 -10.5 -12.6 -9.6 -12.15 Q-10.6 -13.6 -12.3 -14.25 L-14.3 -14.7 Q-16.45 -14.5 -18.3 -13.35 -20.05 -12.25 -21.9 -11.35 -23.1 -10.8 -24.4 -10.5 L-26.9 -9.8 -30.8 -9.35 Q-33.15 -9.55 -35.35 -8.65 L-36.75 -7.95 -38.15 -6.9 -37.85 -5.85 -37.85 -5.8 -37.9 -5.5 -38.5 -4.65 -38.6 -4.55 -39.65 -3.5 -38.95 -3.4 -37.85 -3.4 Q-36.1 -3.4 -34.75 -4.15 L-36.05 -2.3 -33.9 -2.9 -31.85 -3.75 Q-29.8 -4.6 -28.15 -6.1 L-31.0 -3.1 Q-29.25 -3.8 -27.55 -4.6 -25.85 -5.3 -24.2 -6.1 L-21.6 -7.3 -19.0 -8.45 -15.4 -9.4 Q-13.35 -9.8 -11.4 -10.5 L-9.7 -10.25 -10.45 -11.55 M-9.1 -10.55 L-8.25 -8.85 -10.6 -9.4 -13.15 -9.2 -17.05 -8.4 -20.8 -7.2 -24.3 -5.5 -27.75 -3.65 Q-28.95 -3.0 -30.2 -2.6 L-32.7 -1.8 -31.95 -3.1 Q-32.5 -2.75 -33.1 -2.55 -34.3 -2.0 -35.55 -1.6 L-36.9 -1.5 -37.2 -1.9 -35.9 -3.15 -40.85 -2.8 -38.05 -5.6 -39.5 -5.9 -38.15 -7.2 -35.1 -9.15 -31.95 -10.2 -28.95 -10.65 -26.1 -11.25 -23.3 -11.9 -20.1 -13.1 -16.75 -14.35 -13.95 -15.05 Q-12.3 -15.05 -11.1 -14.15 -10.2 -13.6 -9.55 -12.7 L-9.15 -12.15 -8.9 -11.45 -8.7 -10.75 -9.75 -11.8 -9.1 -10.55 M-31.75 7.3 L-34.1 8.25 -34.85 8.05 -34.6 6.4 -32.35 4.85 -34.4 4.95 -27.55 3.05 -25.35 2.35 -23.25 1.8 -21.25 1.2 -19.25 0.6 -17.25 -0.05 -15.6 -0.35 -14.0 -0.45 -12.35 -0.4 -10.75 -0.15 -10.2 0.4 -15.4 0.9 -14.5 0.95 -12.0 3.05 -12.35 3.9 -12.75 3.7 -13.8 3.1 -31.75 7.3 M-6.15 16.95 L-6.15 14.6 Q-6.25 12.9 -7.2 11.65 L-9.0 9.7 Q-10.35 8.45 -12.15 7.6 -14.0 6.85 -15.8 7.0 L-18.45 7.05 -21.05 7.8 Q-23.35 8.4 -25.2 9.9 -26.6 11.0 -27.25 12.6 -27.9 14.15 -27.8 16.0 L-27.4 15.05 -27.4 15.8 -27.1 17.4 Q-26.65 19.3 -25.15 20.35 L-23.25 21.55 -24.0 21.85 -21.85 22.55 -19.7 22.95 -17.5 23.05 -13.75 22.95 -10.95 22.15 Q-9.9 21.9 -8.95 21.35 L-7.8 20.35 Q-6.7 18.85 -6.15 16.95 M-7.35 18.05 Q-6.8 16.55 -6.95 15.15 -7.1 13.6 -7.4 12.05 -6.5 13.65 -6.45 15.5 -6.4 16.65 -6.8 17.8 L-7.1 18.5 -7.85 19.7 -7.35 18.05 M-4.55 14.75 Q-2.05 13.4 0.8 13.55 L3.65 14.25 5.0 14.5 3.55 13.8 Q1.4 12.8 -1.1 12.5 -3.25 12.65 -4.4 14.35 L-4.55 14.75 M-4.75 16.1 L-5.7 17.65 -4.9 17.65 -4.3 19.2 -5.15 22.65 -9.45 23.6 -9.9 25.1 -9.95 25.4 -10.05 26.65 -9.95 27.15 Q-9.65 27.9 -9.1 28.05 L-6.2 28.3 -5.3 28.95 -4.35 29.65 -2.45 30.9 -1.6 31.25 0.9 31.45 Q3.25 31.0 5.05 29.35 L6.1 28.45 6.25 28.3 8.1 28.45 8.75 28.4 9.2 28.15 Q9.95 27.65 10.2 26.8 L10.25 25.75 10.25 25.7 9.75 24.2 8.85 23.2 7.9 23.45 7.25 23.45 6.55 23.3 5.15 22.65 4.3 19.2 4.9 17.65 5.7 17.65 5.45 17.1 5.15 16.5 4.6 16.15 Q3.5 15.4 2.3 14.9 L-3.4 15.1 Q-4.2 15.45 -4.75 16.1 M-6.9 22.5 L-6.15 22.15 Q-4.25 20.9 -5.2 18.95 -5.55 18.8 -5.95 18.6 L-8.15 21.6 -6.9 22.5 M-36.55 7.9 L-38.35 8.0 Q-40.35 8.15 -42.1 8.95 L-42.25 8.5 -40.35 8.05 -36.55 7.9 M-35.65 10.05 L-41.9 16.3 -39.65 13.5 -37.1 11.0 -35.65 10.05 M-11.3 28.75 L-11.5 28.7 Q-14.15 29.25 -16.4 30.8 -18.8 32.5 -20.2 34.95 L-20.85 36.2 -21.75 39.05 -22.15 41.55 -22.1 45.3 -21.6 48.9 -21.5 49.35 -20.7 51.9 -20.55 52.25 -20.45 52.45 Q-19.05 55.05 -16.15 56.0 L-15.75 55.55 -16.6 52.75 Q-17.3 50.35 -17.4 47.95 -17.55 45.1 -17.15 42.3 L-16.95 41.35 Q-16.55 39.35 -15.65 37.55 L-14.05 35.95 Q-7.1 38.65 0.0 35.85 7.05 38.55 14.2 36.0 15.6 36.95 16.35 38.65 17.25 40.7 17.6 42.95 L17.8 45.55 Q17.75 50.85 15.65 55.65 L16.15 56.0 17.25 55.7 18.2 55.15 Q19.35 54.2 19.85 53.05 L20.95 51.05 21.35 50.0 22.4 45.45 Q22.7 43.2 22.45 41.05 22.2 39.0 21.4 37.1 L19.7 34.05 Q18.05 31.7 15.55 30.75 L12.95 29.9 10.9 29.65 6.55 29.35 Q4.15 31.8 1.1 32.45 L-0.8 32.15 -2.85 31.75 Q-4.9 31.0 -6.5 29.3 L-6.65 29.15 -7.15 29.5 -7.9 29.75 Q-8.8 29.9 -9.7 29.45 -10.45 29.05 -11.25 28.75 L-11.3 28.75 M-15.65 37.55 L-16.25 41.65 -16.3 42.3 -16.35 45.6 -15.85 51.75 -15.3 54.4 -14.6 55.25 -14.4 55.35 Q-13.4 56.0 -12.2 56.35 L-8.5 57.5 -4.0 58.15 -1.4 58.35 1.2 58.35 2.5 58.35 3.8 58.25 5.7 58.1 9.25 57.15 Q12.25 56.45 14.7 54.85 L15.15 54.3 15.55 53.6 16.15 52.0 16.55 50.35 16.75 48.65 16.7 44.55 16.65 44.05 15.95 39.95 Q15.6 38.6 14.8 37.55 14.35 36.95 13.55 36.65 L9.45 37.5 Q4.4 38.35 0.0 36.0 L-1.75 36.7 Q-3.45 37.55 -5.55 37.6 -7.5 37.8 -9.45 37.6 L-12.05 36.95 Q-13.6 36.4 -15.0 37.15 L-15.65 37.55 M-41.45 1.55 L-35.6 4.25 -41.55 2.2 -41.45 1.55 M-47.75 6.3 L-46.55 3.35 -46.2 2.75 -48.1 9.25 -47.8 6.55 -47.75 6.3 M-56.25 2.2 L-56.3 2.2 -56.25 2.15 -56.25 2.2 M49.4 1.35 L49.45 5.2 49.15 -0.35 49.4 1.35 M40.9 7.95 L41.9 8.55 Q39.35 7.8 36.45 7.7 L38.6 7.45 40.9 7.95 M41.5 1.55 L41.55 2.2 35.6 4.25 41.5 1.55 M27.0 17.6 L27.15 17.0 27.1 14.95 26.4 12.25 27.05 12.85 27.05 12.7 Q26.7 10.9 25.4 9.7 24.75 9.2 24.0 8.85 L20.35 7.95 16.55 7.55 13.3 7.9 Q11.75 8.0 10.4 8.8 9.0 9.6 7.9 10.85 6.75 12.0 6.45 13.75 6.25 15.05 6.3 16.45 L6.5 17.9 7.95 20.05 Q9.15 21.7 11.15 22.15 L14.85 23.05 15.15 23.05 17.45 23.1 19.65 23.0 22.9 22.1 24.0 21.85 23.25 21.55 23.85 21.5 24.3 21.1 25.8 19.65 27.0 17.6 M7.0 17.95 Q6.4 15.65 7.05 13.6 L7.55 12.15 7.3 13.65 Q7.0 15.65 7.35 17.6 L7.85 19.7 7.0 17.95 M6.2 18.65 L5.2 18.95 5.25 19.9 Q5.5 21.75 6.95 22.5 L8.0 21.8 7.85 21.1 Q7.5 19.6 6.2 18.65" fill="#000000" fill-rule="evenodd" stroke="none"/>
    <path d="M-42.15 -25.85 L-41.8 -25.7 -40.4 -25.45 -37.8 -25.85 -32.5 -25.9 -29.1 -26.1 -24.0 -26.35 -21.1 -26.4 -18.25 -26.6 -14.55 -26.3 -10.85 -26.05 -10.45 -25.9 -11.65 -25.45 -15.5 -25.0 -19.0 -24.9 -22.7 -24.6 -26.45 -24.4 -21.1 -24.8 -41.5 -24.35 -42.1 -24.5 -42.2 -24.85 -42.15 -25.85 M-36.6 -23.7 L-34.05 -23.6 -30.55 -23.4 -27.55 -23.3 -23.8 -23.2 -20.0 -23.3 -17.05 -23.35 -13.65 -23.5 -10.15 -23.7 -6.6 -23.85 -3.2 -23.95 0.2 -24.0 4.0 -24.1 6.1 -24.1 9.8 -23.95 13.5 -23.8 16.9 -23.7 20.3 -23.6 22.7 -23.4 25.0 -23.1 28.75 -23.0 32.45 -22.95 34.85 -22.8 37.6 -22.7 40.35 -22.45 42.55 -22.35 Q41.35 -21.05 39.1 -21.35 L35.2 -21.45 31.3 -21.5 28.1 -21.5 24.3 -21.55 22.15 -21.65 18.25 -21.7 14.35 -21.7 10.45 -21.7 6.55 -21.7 2.65 -21.75 -0.65 -21.75 -4.45 -21.75 -8.35 -21.7 -12.2 -21.7 -16.1 -21.7 -19.55 -21.7 -23.05 -21.7 -26.3 -21.7 -29.6 -21.65 -30.5 -21.65 -32.1 -21.65 -39.45 -21.75 -42.6 -22.3 -42.8 -22.4 -42.85 -22.8 -42.15 -23.45 -36.6 -23.7 M25.35 -24.4 L21.75 -24.5 18.05 -24.75 15.55 -24.95 13.55 -25.15 11.05 -25.55 9.8 -25.85 Q9.25 -25.95 8.8 -26.2 L9.4 -26.25 13.1 -25.9 16.7 -25.75 20.2 -25.65 23.65 -25.7 26.75 -25.8 29.8 -25.85 33.45 -25.95 37.05 -26.0 39.65 -26.05 42.4 -25.8 42.15 -24.35 17.15 -24.9 25.35 -24.4" fill="#2c3658" fill-rule="evenodd" stroke="none"/>
    <path d="M5.6 -19.55 L5.2 -19.35 Q3.3 -18.55 1.5 -18.4 L-2.05 -18.7 -6.1 -20.4 6.0 -20.4 2.9 -18.9 5.6 -19.55 M-18.15 -18.95 L-21.8 -18.15 -25.25 -18.1 -28.2 -17.95 -31.4 -18.0 -36.15 -18.6 -36.5 -18.9 -35.15 -20.25 -12.55 -20.5 -22.6 -18.3 -18.15 -18.95 M-16.25 29.25 L-13.35 26.0 -12.95 25.5 Q-12.4 24.85 -12.3 23.85 L-12.45 23.6 -13.5 23.6 -10.05 22.65 -10.7 24.3 -11.1 25.45 -11.25 25.9 -11.3 26.65 -11.2 27.35 -11.35 27.75 -13.7 28.2 -12.6 26.1 -16.25 29.25 M15.8 23.55 L12.95 24.1 13.0 24.75 Q13.15 25.3 13.45 25.85 13.9 26.9 14.7 27.8 L13.15 26.2 14.3 28.35 11.35 27.75 10.95 25.75 10.65 24.7 10.0 22.75 15.8 23.55 M36.8 -18.65 L36.5 -18.35 35.05 -18.15 32.05 -18.05 28.95 -18.25 25.65 -18.45 22.4 -18.75 18.65 -19.3 15.2 -20.5 35.15 -20.25 36.8 -18.65 M15.55 3.5 Q14.55 3.75 13.8 4.6 L13.2 5.1 12.8 5.15 12.35 5.0 11.95 4.6 9.85 0.85 9.6 0.15 9.85 -0.45 10.25 -0.95 10.7 -1.35 11.35 -1.6 11.85 -1.7 13.0 -1.7 14.1 -1.65 16.25 -1.15 17.65 -0.75 21.9 0.65 21.1 0.3 19.15 -0.65 17.15 -1.7 13.05 -3.45 9.2 -4.55 8.3 -4.4 8.15 -4.5 8.05 -4.6 7.9 -4.9 Q8.1 -5.2 8.35 -5.05 L11.25 -5.35 13.3 -4.7 15.35 -3.8 17.25 -2.85 19.3 -1.7 21.3 -0.7 23.3 0.2 25.3 1.15 27.25 2.05 28.55 2.55 Q29.75 3.1 31.05 3.45 L28.65 3.05 25.95 2.4 23.35 1.7 20.65 0.8 18.1 -0.2 16.05 -0.7 13.2 -0.35 10.25 0.65 15.85 0.85 Q14.15 1.0 13.0 2.2 L11.95 3.3 12.35 3.9 13.8 3.1 15.55 3.5 M32.6 3.9 L34.3 4.6 35.05 5.0 35.0 5.75 34.95 5.85 35.85 7.95 35.6 8.35 35.45 8.6 34.9 8.5 33.8 7.75 34.85 8.05 34.6 6.4 32.35 4.85 34.6 5.15 32.6 3.9 M47.15 4.35 L46.2 2.75 46.55 5.35 46.8 9.9 46.65 11.25 46.15 13.7 Q45.65 15.65 44.65 17.25 L45.15 12.1 45.25 9.15 45.5 4.75 45.55 3.35 Q45.55 0.35 46.75 -2.3 L47.45 -2.3 49.1 -0.55 Q48.5 -2.0 47.15 -2.9 L49.95 -5.0 50.75 -3.45 49.0 -0.9 49.35 0.05 49.9 2.75 Q50.1 4.4 49.5 5.55 L49.25 5.6 49.1 5.25 Q49.15 3.75 48.15 2.8 L48.0 2.9 Q47.3 3.3 47.15 4.35 M-50.9 -2.8 L-50.7 -3.35 -49.8 -5.2 -47.35 -2.85 -48.65 -2.15 -49.4 0.35 -49.35 -0.65 -50.9 -2.8 M-49.35 4.65 L-49.05 -0.55 -47.45 -2.3 -46.75 -2.3 -45.95 -0.2 -45.55 1.9 -45.35 4.8 -45.25 7.7 -45.1 10.6 -44.95 13.45 -44.65 17.25 -46.05 14.8 -47.25 12.2 -48.05 10.25 -48.1 9.25 -46.2 2.75 -46.55 3.35 -47.75 6.3 -47.4 4.5 Q-47.05 2.55 -48.7 1.2 L-49.35 4.65 M-12.75 3.7 L-12.35 3.9 -12.0 3.05 -14.5 0.95 -15.4 0.9 -10.2 0.4 -10.75 -0.15 -12.35 -0.4 -14.0 -0.45 -15.6 -0.35 -17.25 -0.05 -19.25 0.6 -21.25 1.2 -23.25 1.8 -25.35 2.35 -27.55 3.05 -34.4 4.95 -32.35 4.85 -34.6 6.4 -34.85 8.05 -34.1 8.25 -31.75 7.3 -32.0 7.5 -34.1 8.9 -35.75 9.05 -35.8 8.35 -35.15 4.75 -35.1 4.6 -34.85 4.35 -34.75 4.3 -32.3 3.8 -28.65 2.75 -26.2 1.7 -22.2 -0.3 -19.05 -1.85 Q-15.95 -3.5 -12.6 -4.6 L-9.35 -5.25 Q-8.3 -5.6 -7.45 -4.8 L-7.4 -4.6 -7.45 -4.45 -7.6 -4.2 -7.85 -4.05 -8.5 -4.15 Q-13.05 -3.95 -17.4 -1.75 L-23.6 1.25 -22.05 0.75 Q-18.35 -0.65 -14.55 -1.4 -12.15 -2.0 -10.1 -0.6 L-9.7 -0.15 Q-9.45 0.3 -9.5 0.8 L-10.15 3.4 -11.15 5.5 -11.4 5.75 -11.8 5.4 -12.2 4.15 -12.75 3.7 M-35.6 24.45 L-36.15 23.4 -36.05 23.4 Q-33.1 25.1 -30.4 27.1 -28.3 28.7 -26.9 30.6 -26.1 31.65 -25.75 33.0 L-25.85 33.1 -25.4 34.9 -24.5 38.4 Q-24.0 40.45 -24.05 42.65 L-24.55 42.9 -25.0 42.7 -26.0 40.35 -27.1 37.5 Q-27.65 35.7 -28.65 33.85 L-29.65 31.85 -30.75 29.9 -32.05 28.05 Q-32.8 27.05 -33.7 26.35 L-35.6 24.45 M49.4 1.35 L49.15 -0.35 49.45 5.2 49.4 1.35 M35.85 22.8 L36.7 22.5 Q35.95 23.8 35.5 25.25 L32.4 29.45 Q30.45 31.95 28.95 34.75 27.9 36.65 27.0 38.9 26.5 40.1 26.25 41.35 26.0 42.45 25.15 42.9 L24.7 42.6 24.7 40.6 25.2 37.65 25.8 35.75 26.75 33.3 Q27.2 32.1 27.8 31.0 L29.15 29.15 30.1 28.2 32.7 26.0 34.55 24.3 35.85 22.8" fill="#bca38b" fill-rule="evenodd" stroke="none"/>
    <path d="M5.6 -19.55 L5.95 -19.7 8.35 -20.15 10.65 -20.4 13.0 -20.3 16.8 -19.6 19.6 -18.85 22.55 -17.85 24.15 -17.4 18.65 -19.3 22.4 -18.75 25.65 -18.45 28.95 -18.25 32.05 -18.05 35.05 -18.15 36.5 -18.35 36.8 -18.65 38.05 -17.45 36.7 -17.6 39.05 -15.0 39.0 -14.8 39.15 -14.15 39.5 -13.55 40.75 -11.75 40.65 -11.0 37.5 -10.5 40.6 -5.2 41.5 -2.7 42.2 0.85 42.5 3.25 42.55 5.6 42.45 8.55 42.25 12.4 41.9 16.3 39.7 13.4 36.9 10.85 35.7 10.0 41.9 16.3 41.5 19.1 41.25 20.5 41.05 21.8 40.65 24.6 39.85 28.7 Q39.4 30.8 38.55 32.6 L37.25 35.05 35.7 37.45 32.65 41.25 31.0 43.0 28.3 45.55 25.5 48.15 24.25 49.25 23.6 49.85 22.7 50.75 21.7 51.55 22.15 50.0 22.95 46.55 23.2 42.65 23.0 40.65 22.1 37.15 Q21.5 35.25 20.1 33.75 L17.45 30.8 16.05 29.3 14.7 27.8 Q13.9 26.9 13.45 25.85 13.15 25.3 13.0 24.75 L12.95 24.1 15.8 23.55 17.5 23.75 20.65 23.3 Q22.15 23.25 23.55 22.7 L25.85 21.6 27.25 20.2 28.3 18.05 28.65 15.1 28.3 13.65 26.95 11.05 Q25.65 8.9 23.55 7.85 21.9 6.95 19.95 6.7 17.55 6.4 15.15 6.8 L12.3 7.2 Q10.55 7.45 9.3 8.55 8.25 9.45 7.35 10.5 L6.55 11.65 5.95 12.95 5.5 14.25 4.05 13.1 Q3.1 12.45 2.0 12.1 L-1.1 11.8 -2.75 12.35 Q-3.2 12.55 -3.6 12.85 L-4.55 13.5 -5.5 14.25 -5.85 13.2 -7.0 10.9 Q-7.75 9.65 -8.85 8.75 -10.05 7.7 -11.5 7.15 -13.1 6.55 -14.8 6.25 L-18.55 6.7 Q-20.5 6.9 -22.35 7.55 -23.7 7.95 -24.9 8.65 L-26.35 9.85 Q-27.5 11.05 -27.9 12.85 -28.3 14.5 -28.3 16.45 -28.25 18.4 -27.1 19.9 L-25.75 21.15 -23.55 22.4 -20.0 23.55 -17.85 23.85 -15.65 23.9 -13.5 23.6 -12.45 23.6 -12.3 23.85 Q-12.4 24.85 -12.95 25.5 L-13.35 26.0 -16.25 29.25 -19.45 32.55 Q-21.8 35.3 -22.5 38.9 L-22.75 40.55 -22.9 43.75 -22.8 46.95 -22.55 48.45 -21.7 51.55 -22.5 50.85 -25.6 48.15 -26.3 47.55 -26.75 47.1 -28.8 45.15 -30.8 43.0 -32.8 40.8 -33.8 39.6 -34.85 38.3 -35.9 36.9 -36.9 35.5 -37.85 33.95 -39.5 30.45 -40.65 26.7 -41.35 22.6 -41.85 18.4 -42.1 15.0 -42.4 10.95 Q-42.7 8.15 -42.6 5.55 L-42.5 4.0 -42.15 1.2 -41.7 -1.3 -41.4 -2.55 -40.75 -4.7 -40.9 -5.35 -37.5 -10.5 -40.65 -11.0 -40.75 -11.75 -38.95 -14.45 -39.05 -15.0 -36.65 -17.55 -38.0 -17.4 -36.5 -18.9 -36.15 -18.6 -31.4 -18.0 -28.2 -17.95 -25.25 -18.1 -21.8 -18.15 -18.15 -18.95 -16.0 -19.45 -13.15 -19.95 -10.35 -20.15 -7.55 -20.0 -4.35 -19.35 -2.05 -18.7 1.5 -18.4 Q3.3 -18.55 5.2 -19.35 L5.6 -19.55 M10.8 -14.3 L8.7 -10.75 9.8 -11.8 8.25 -8.85 13.35 -9.8 15.45 -8.9 Q16.45 -8.4 17.55 -8.05 L19.05 -7.65 20.5 -7.2 23.4 -5.85 25.65 -4.5 Q26.7 -3.85 27.85 -3.3 29.55 -2.6 31.5 -2.05 L32.7 -1.8 31.95 -3.1 36.9 -1.5 37.2 -1.9 35.9 -3.15 40.85 -2.8 38.05 -5.6 39.5 -5.9 38.8 -6.8 38.0 -7.75 37.1 -8.5 36.0 -9.1 33.8 -9.9 31.4 -10.4 27.45 -10.9 Q24.55 -11.35 21.7 -12.5 L17.85 -13.85 14.65 -14.9 13.2 -14.9 10.8 -14.3 M31.05 3.45 Q29.75 3.1 28.55 2.55 L27.25 2.05 25.3 1.15 23.3 0.2 21.3 -0.7 19.3 -1.7 17.25 -2.85 15.35 -3.8 13.3 -4.7 11.25 -5.35 8.35 -5.05 Q8.1 -5.2 7.9 -4.9 L8.05 -4.6 8.15 -4.5 8.3 -4.4 9.2 -4.55 13.05 -3.45 17.15 -1.7 19.15 -0.65 21.1 0.3 21.9 0.65 17.65 -0.75 16.25 -1.15 14.1 -1.65 13.0 -1.7 11.85 -1.7 11.35 -1.6 10.7 -1.35 10.25 -0.95 9.85 -0.45 9.6 0.15 9.85 0.85 11.95 4.6 12.35 5.0 12.8 5.15 13.2 5.1 13.8 4.6 Q14.55 3.75 15.55 3.5 L33.8 7.75 34.9 8.5 35.45 8.6 35.6 8.35 35.85 7.95 34.95 5.85 35.0 5.75 35.05 5.0 34.3 4.6 32.6 3.9 31.6 3.6 31.05 3.45 M47.15 4.35 Q47.3 3.3 48.0 2.9 L48.15 2.8 Q49.15 3.75 49.1 5.25 L49.25 5.6 49.5 5.55 Q50.1 4.4 49.9 2.75 L49.35 0.05 49.0 -0.9 50.75 -3.45 Q51.7 -1.0 51.65 1.65 51.6 5.4 50.95 8.85 50.4 11.95 49.45 15.05 48.35 18.8 46.7 22.45 L46.05 23.9 45.35 25.25 45.1 22.6 44.8 21.35 44.3 20.05 44.45 18.85 45.9 17.3 Q46.9 16.15 47.3 14.7 L48.1 11.75 48.2 10.4 47.55 5.85 47.15 4.35 M-50.9 -2.8 L-49.35 -0.65 -49.4 0.35 -49.55 3.6 -49.4 5.2 -49.35 4.65 -48.7 1.2 Q-47.05 2.55 -47.4 4.5 L-47.75 6.3 -47.8 6.55 -48.1 9.25 -48.05 10.25 -47.25 13.35 -46.5 15.25 -45.55 17.15 -44.9 18.5 -44.25 19.8 -45.3 25.25 -46.55 22.5 -47.65 19.6 -48.65 16.75 -49.5 13.75 -50.3 10.0 -50.95 6.2 -51.15 4.0 -51.25 1.75 -51.15 -0.5 -50.9 -2.8 M-8.7 -10.75 L-8.9 -11.45 -9.15 -12.15 -9.55 -12.7 Q-10.2 -13.6 -11.1 -14.15 -12.3 -15.05 -13.95 -15.05 L-16.75 -14.35 -20.1 -13.1 -23.3 -11.9 -26.1 -11.25 -28.95 -10.65 -31.95 -10.2 -35.1 -9.15 -38.15 -7.2 -39.5 -5.9 -38.05 -5.6 -40.85 -2.8 -35.9 -3.15 -37.2 -1.9 -36.9 -1.5 -35.55 -1.6 Q-34.3 -2.0 -33.1 -2.55 -32.5 -2.75 -31.95 -3.1 L-32.7 -1.8 -30.2 -2.6 Q-28.95 -3.0 -27.75 -3.65 L-24.3 -5.5 -20.8 -7.2 -17.05 -8.4 -13.15 -9.2 -10.6 -9.4 -8.25 -8.85 -9.1 -10.55 -8.7 -10.75 M-12.75 3.7 L-12.2 4.15 -11.8 5.4 -11.4 5.75 -11.15 5.5 -10.15 3.4 -9.5 0.8 Q-9.45 0.3 -9.7 -0.15 L-10.1 -0.6 Q-12.15 -2.0 -14.55 -1.4 -18.35 -0.65 -22.05 0.75 L-23.6 1.25 -17.4 -1.75 Q-13.05 -3.95 -8.5 -4.15 L-7.85 -4.05 -7.6 -4.2 -7.45 -4.45 -7.4 -4.6 -7.45 -4.8 Q-8.3 -5.6 -9.35 -5.25 L-12.6 -4.6 Q-15.95 -3.5 -19.05 -1.85 L-22.2 -0.3 -26.2 1.7 -28.65 2.75 -32.3 3.8 -34.75 4.3 -34.85 4.35 -35.1 4.6 -35.15 4.75 -35.8 8.35 -35.75 9.05 -34.1 8.9 -32.0 7.5 -31.75 7.3 -13.8 3.1 -12.75 3.7 M-4.75 16.1 Q-4.2 15.45 -3.4 15.1 L2.3 14.9 Q3.5 15.4 4.6 16.15 L5.15 16.5 5.45 17.1 5.7 17.65 4.9 17.65 4.3 19.2 5.15 22.65 6.55 23.3 7.25 23.45 7.9 23.45 8.85 23.2 9.75 24.2 10.25 25.7 10.25 25.75 10.2 26.8 Q9.95 27.65 9.2 28.15 L8.75 28.4 8.1 28.45 6.25 28.3 6.1 28.45 5.05 29.35 Q3.25 31.0 0.9 31.45 L-1.6 31.25 -2.45 30.9 -4.35 29.65 -5.3 28.95 -6.2 28.3 -9.1 28.05 Q-9.65 27.9 -9.95 27.15 L-10.05 26.65 -9.95 25.4 -9.9 25.1 -9.45 23.6 -5.15 22.65 -4.3 19.2 -4.9 17.65 -5.7 17.65 -4.75 16.1 M-36.55 7.9 L-40.35 8.05 -42.25 8.5 -42.1 8.95 Q-40.35 8.15 -38.35 8.0 L-36.55 7.9 M-35.65 10.05 L-37.1 11.0 -39.65 13.5 -41.9 16.3 -35.65 10.05 M-35.6 24.45 L-33.7 26.35 Q-32.8 27.05 -32.05 28.05 L-30.75 29.9 -29.65 31.85 -28.65 33.85 Q-27.65 35.7 -27.1 37.5 L-26.0 40.35 -25.0 42.7 -24.55 42.9 -24.05 42.65 Q-24.0 40.45 -24.5 38.4 L-25.4 34.9 -25.85 33.1 -25.75 33.0 Q-26.1 31.65 -26.9 30.6 -28.3 28.7 -30.4 27.1 -33.1 25.1 -36.05 23.4 L-36.15 23.4 -35.6 24.45 M-15.65 37.55 L-15.0 37.15 Q-13.6 36.4 -12.05 36.95 L-9.45 37.6 Q-7.5 37.8 -5.55 37.6 -3.45 37.55 -1.75 36.7 L0.0 36.0 Q4.4 38.35 9.45 37.5 L13.55 36.65 Q14.35 36.95 14.8 37.55 15.6 38.6 15.95 39.95 L16.65 44.05 16.7 44.55 16.75 48.65 16.55 50.35 16.15 52.0 15.55 53.6 15.15 54.3 14.7 54.85 Q12.25 56.45 9.25 57.15 L5.7 58.1 3.8 58.25 2.5 58.35 1.2 58.35 -1.4 58.35 -4.0 58.15 -8.5 57.5 -12.2 56.35 Q-13.4 56.0 -14.4 55.35 L-14.6 55.25 -15.3 54.4 -15.85 51.75 -16.35 45.6 -16.3 42.3 -16.25 41.65 -15.65 37.55 M-10.75 39.6 L-10.8 39.6 Q-11.35 38.85 -12.15 38.4 -12.6 38.45 -12.6 38.85 L-12.45 39.0 Q-12.2 39.1 -12.0 39.3 L-11.35 39.95 -10.5 40.7 -8.1 42.3 -6.3 42.95 -4.8 43.3 -4.7 43.35 -3.65 43.4 -3.05 43.5 3.1 43.75 4.7 43.55 4.85 43.15 Q4.8 42.9 4.55 42.95 L3.75 43.0 Q1.15 43.2 -1.4 43.0 L-2.4 42.85 -2.65 42.8 -6.85 42.1 -8.0 41.55 -10.75 39.6 M-41.45 1.55 L-41.55 2.2 -35.6 4.25 -41.45 1.55 M41.5 1.55 L35.6 4.25 41.55 2.2 41.5 1.55 M40.9 7.95 L38.6 7.45 36.45 7.7 Q39.35 7.8 41.9 8.55 L40.9 7.95 M35.85 22.8 L34.55 24.3 32.7 26.0 30.1 28.2 29.15 29.15 27.8 31.0 Q27.2 32.1 26.75 33.3 L25.8 35.75 25.2 37.65 24.7 40.6 24.7 42.6 25.15 42.9 Q26.0 42.45 26.25 41.35 26.5 40.1 27.0 38.9 27.9 36.65 28.95 34.75 30.45 31.95 32.4 29.45 L35.5 25.25 Q35.95 23.8 36.7 22.5 L35.85 22.8" fill="#dccfc0" fill-rule="evenodd" stroke="none"/>
    <path d="M10.7 -11.95 L10.9 -12.4 9.6 -12.15 10.4 -12.95 Q11.25 -13.65 12.3 -14.0 L14.45 -14.45 Q15.5 -14.45 16.5 -13.95 L19.5 -12.75 22.7 -11.2 25.25 -10.35 27.9 -9.75 30.55 -9.35 Q33.5 -9.3 36.15 -8.05 L38.15 -6.9 38.15 -6.15 37.75 -5.8 39.65 -3.5 39.05 -3.45 Q37.8 -4.0 36.6 -4.65 L34.2 -6.0 32.1 -6.85 28.8 -7.7 26.95 -8.25 23.55 -9.3 Q19.15 -10.75 15.15 -13.0 L13.95 -12.95 Q12.3 -12.9 10.7 -11.95 M43.6 -22.75 L43.5 -23.1 43.5 -23.15 43.45 -23.2 43.1 -24.5 43.5 -25.6 42.05 -28.8 41.25 -31.0 43.0 -32.65 43.35 -29.5 47.6 -31.8 46.45 -25.85 51.55 -28.4 50.6 -23.35 56.85 -21.7 51.85 -18.35 57.7 -16.35 53.45 -13.3 59.0 -11.05 60.4 -10.3 59.35 -9.9 55.8 -10.6 53.25 -11.25 49.75 -12.15 48.7 -12.65 48.65 -13.1 51.9 -15.65 46.75 -15.9 46.5 -16.55 49.2 -19.2 48.4 -19.4 47.15 -19.25 46.85 -19.4 47.45 -21.3 48.3 -23.05 48.05 -23.1 45.5 -21.8 45.3 -21.75 44.85 -23.4 44.8 -23.5 44.55 -23.15 44.25 -22.95 44.0 -22.7 43.6 -22.75 M-60.25 -10.35 L-53.45 -13.3 -58.55 -17.05 -51.85 -18.4 -56.8 -21.7 -50.6 -23.35 -51.55 -28.4 -46.55 -25.7 -47.6 -31.8 -43.35 -29.5 -43.25 -32.75 -41.3 -31.15 -41.5 -30.5 -42.25 -28.8 -42.8 -27.6 -43.45 -26.05 -43.5 -25.8 -43.6 -24.7 -43.65 -24.25 -43.75 -23.4 -46.35 -23.55 -46.15 -22.4 -46.05 -21.1 -49.6 -20.9 -48.15 -17.75 -48.4 -17.05 -48.55 -16.8 -48.75 -16.6 -49.45 -16.45 -50.65 -16.05 -49.15 -14.25 -49.05 -13.95 -49.05 -13.85 -50.95 -13.1 -54.25 -11.7 -56.65 -10.7 Q-58.3 -9.8 -60.1 -10.2 L-60.3 -10.25 -60.25 -10.35 M-37.85 -5.85 L-38.15 -6.9 -36.75 -7.95 -35.35 -8.65 Q-33.15 -9.55 -30.8 -9.35 L-26.9 -9.8 -24.4 -10.5 Q-23.1 -10.8 -21.9 -11.35 -20.05 -12.25 -18.3 -13.35 -16.45 -14.5 -14.3 -14.7 L-12.3 -14.25 Q-10.6 -13.6 -9.6 -12.15 L-10.5 -12.6 -10.9 -12.3 -10.45 -11.55 -11.0 -11.8 -11.85 -12.4 -12.95 -12.95 -13.75 -12.9 -15.25 -12.45 -16.85 -11.95 -18.35 -11.4 -19.9 -10.8 Q-23.6 -9.25 -27.5 -8.15 L-33.85 -6.9 -34.6 -6.3 -36.7 -4.55 Q-37.5 -3.8 -38.95 -3.4 L-39.65 -3.5 -38.6 -4.55 -38.5 -4.65 -37.9 -5.5 -37.85 -5.8 -37.85 -5.9 -37.85 -5.85 M-4.55 14.75 L-4.4 14.35 Q-3.25 12.65 -1.1 12.5 1.4 12.8 3.55 13.8 L5.0 14.5 3.65 14.25 0.8 13.55 Q-2.05 13.4 -4.55 14.75 M-6.9 22.5 L-8.15 21.6 -5.95 18.6 Q-5.55 18.8 -5.2 18.95 -4.25 20.9 -6.15 22.15 L-6.9 22.5 M6.2 18.65 Q7.5 19.6 7.85 21.1 L8.0 21.8 6.95 22.5 Q5.5 21.75 5.25 19.9 L5.2 18.95 6.2 18.65" fill="#cccccc" fill-rule="evenodd" stroke="none"/>
    <path d="M10.7 -11.95 Q12.3 -12.9 13.95 -12.95 L15.15 -13.0 Q19.15 -10.75 23.55 -9.3 L26.95 -8.25 28.8 -7.7 32.1 -6.85 34.2 -6.0 36.6 -4.65 Q37.8 -4.0 39.05 -3.45 L36.95 -3.55 34.75 -4.15 36.05 -2.3 Q35.0 -2.55 34.0 -2.95 32.9 -3.25 31.9 -3.65 L30.95 -4.1 30.0 -4.7 28.15 -6.1 31.0 -3.1 29.45 -3.5 27.9 -4.0 26.5 -4.8 25.1 -5.55 22.0 -7.2 19.55 -8.3 18.3 -8.7 15.75 -9.45 13.15 -10.0 11.45 -10.5 9.45 -9.85 10.7 -11.95 M54.1 -7.3 L51.3 -6.65 Q49.8 -6.1 48.25 -5.2 46.85 -4.4 46.0 -2.9 45.0 -1.25 44.7 0.8 L44.3 4.45 44.25 8.05 44.15 11.65 44.0 15.2 43.9 18.7 43.75 18.2 Q44.25 21.1 44.25 24.0 44.25 25.5 43.75 27.0 43.25 28.6 42.15 29.6 L41.4 30.3 41.15 29.9 41.75 25.25 42.55 18.25 43.1 11.15 43.4 6.75 43.5 3.95 43.3 1.35 42.7 -1.2 41.75 -3.65 41.15 -4.95 42.2 -5.25 38.25 -9.9 41.1 -10.45 41.65 -11.1 39.95 -13.95 40.05 -14.9 37.65 -17.3 38.55 -17.25 35.45 -20.25 43.6 -20.7 43.95 -21.2 43.6 -22.75 44.0 -22.7 44.25 -22.95 44.55 -23.15 44.8 -23.5 44.85 -23.4 45.3 -21.75 45.5 -21.8 48.05 -23.1 48.3 -23.05 47.45 -21.3 46.85 -19.4 47.15 -19.25 48.4 -19.4 49.2 -19.2 46.5 -16.55 46.75 -15.9 51.9 -15.65 48.65 -13.1 48.7 -12.65 49.75 -12.15 53.25 -11.25 55.8 -10.6 59.35 -9.9 54.85 -8.15 56.65 -6.85 58.25 -5.45 59.85 -4.0 61.3 -2.45 58.25 -2.25 Q58.55 -2.35 58.35 -2.65 L56.15 -5.75 54.8 -7.3 Q54.35 -7.75 54.1 -7.3 M43.5 -23.1 L43.45 -23.2 43.5 -23.15 43.5 -23.1 M55.6 -1.65 L60.9 4.75 59.35 5.4 58.35 4.0 56.8 2.0 54.65 -1.25 55.6 -1.65 M55.85 7.65 L60.35 13.15 58.25 13.4 Q58.3 12.75 57.85 12.3 L57.5 11.9 54.8 8.3 55.85 7.65 M-43.75 -23.4 L-44.3 -21.35 -43.85 -20.75 -35.45 -20.25 -38.55 -17.25 -37.6 -17.3 -40.1 -14.6 -39.95 -13.95 Q-41.05 -12.85 -41.3 -11.3 L-41.3 -10.85 -41.15 -10.35 -39.55 -9.9 -38.2 -9.9 -42.2 -5.25 -41.15 -4.95 Q-42.8 -2.2 -42.9 1.1 L-42.95 3.15 -43.05 5.25 -43.1 7.25 -43.05 9.35 Q-42.95 14.35 -42.35 19.25 L-41.5 26.65 -41.3 28.45 -41.15 30.25 -42.65 28.8 -44.1 26.45 -44.6 25.1 -44.7 23.65 -44.15 19.7 -43.95 18.2 Q-43.8 14.6 -44.0 10.9 -44.15 7.45 -44.7 3.9 L-44.9 2.5 -45.15 1.0 -45.85 -1.85 -46.5 -3.5 -46.9 -4.1 -47.45 -4.7 -48.7 -5.7 -49.9 -6.35 -51.2 -6.9 -52.55 -7.25 -54.05 -7.5 -54.85 -7.45 Q-55.75 -6.15 -57.0 -5.05 L-58.2 -4.0 -58.55 -3.55 -56.35 -2.85 -54.05 -2.05 -59.2 5.45 -60.9 4.75 -55.25 -2.05 -61.3 -2.45 -54.85 -8.15 -60.1 -10.2 Q-58.3 -9.8 -56.65 -10.7 L-54.25 -11.7 -50.95 -13.1 -49.05 -13.85 -49.05 -13.95 -49.15 -14.25 -50.65 -16.05 -49.45 -16.45 -48.75 -16.6 -48.55 -16.8 -48.4 -17.05 -48.15 -17.75 -49.6 -20.9 -46.05 -21.1 -46.15 -22.4 -46.35 -23.55 -43.75 -23.4 M-58.25 13.4 L-60.35 13.15 -55.6 7.4 -54.3 8.4 -56.0 10.4 -57.9 12.75 -58.25 13.4 M-60.3 -10.25 L-60.35 -10.3 -60.25 -10.35 -60.3 -10.25 M-37.85 -5.85 L-37.85 -5.9 -37.85 -5.8 -37.85 -5.85 M-38.95 -3.4 Q-37.5 -3.8 -36.7 -4.55 L-34.6 -6.3 -33.85 -6.9 -27.5 -8.15 Q-23.6 -9.25 -19.9 -10.8 L-18.35 -11.4 -16.85 -11.95 -15.25 -12.45 -13.75 -12.9 -12.95 -12.95 -11.85 -12.4 -11.0 -11.8 -10.45 -11.55 -9.7 -10.25 -11.4 -10.5 Q-13.35 -9.8 -15.4 -9.4 L-19.0 -8.45 -21.6 -7.3 -24.2 -6.1 Q-25.85 -5.3 -27.55 -4.6 -29.25 -3.8 -31.0 -3.1 L-28.15 -6.1 Q-29.8 -4.6 -31.85 -3.75 L-33.9 -2.9 -36.05 -2.3 -34.75 -4.15 Q-36.1 -3.4 -37.85 -3.4 L-38.95 -3.4 M-20.55 52.25 L-20.7 51.9 -21.5 49.35 -21.6 48.9 -22.1 45.3 -22.15 41.55 -21.75 39.05 -20.85 36.2 -20.2 34.95 Q-18.8 32.5 -16.4 30.8 -14.15 29.25 -11.5 28.7 L-11.3 28.75 Q-11.75 29.05 -11.25 29.45 L-9.65 30.55 -9.35 30.7 -7.25 31.7 Q-5.3 34.0 -2.3 34.7 -7.25 36.45 -12.5 35.05 L-14.1 34.75 -14.8 34.55 -15.0 34.5 -15.05 34.6 Q-18.5 37.85 -18.95 42.6 -19.4 47.7 -18.5 52.75 -19.1 53.05 -20.55 52.2 L-20.55 52.25 M10.9 29.65 L12.95 29.9 15.55 30.75 Q18.05 31.7 19.7 34.05 L21.4 37.1 Q22.2 39.0 22.45 41.05 22.7 43.2 22.4 45.45 L21.35 50.0 20.95 51.05 19.85 53.05 Q19.1 53.2 18.4 53.6 L17.85 53.7 Q19.15 48.0 18.65 42.25 L18.55 41.45 17.75 38.45 16.9 36.55 16.2 35.3 Q15.6 34.4 14.55 34.5 L7.8 35.6 Q5.0 35.65 2.45 34.75 L6.85 31.7 7.45 31.25 Q9.6 31.2 10.85 29.75 L10.9 29.65" fill="#999999" fill-rule="evenodd" stroke="none"/>
    <path d="M58.25 -2.25 L55.25 -2.05 55.6 -1.65 54.65 -1.25 56.8 2.0 58.35 4.0 59.35 5.4 55.35 7.05 55.85 7.65 54.8 8.3 57.5 11.9 57.85 12.3 Q58.3 12.75 58.25 13.4 L54.8 13.75 55.8 15.9 57.25 18.5 51.8 20.0 51.65 22.6 47.45 24.05 47.85 22.75 48.3 21.35 48.9 19.35 49.55 17.25 50.15 15.15 50.75 13.05 51.6 9.45 51.9 7.7 52.1 5.85 52.3 4.05 52.4 2.8 52.35 0.25 52.0 -2.25 51.25 -4.7 50.8 -5.9 53.85 -7.1 54.6 -7.4 54.1 -7.3 Q54.35 -7.75 54.8 -7.3 L56.15 -5.75 58.35 -2.65 Q58.55 -2.35 58.25 -2.25 M-54.05 -7.5 L-54.6 -7.55 -50.9 -5.65 -51.45 -3.2 -51.85 -0.85 -52.05 1.55 -51.95 3.9 -51.75 6.1 -51.5 8.2 -51.15 10.3 -50.8 12.35 -50.3 14.45 -49.75 16.5 -49.2 18.55 -48.55 20.55 -48.0 22.3 -47.4 24.05 -51.65 22.6 -51.8 19.85 -57.15 18.95 -57.6 18.55 -54.8 13.85 -58.25 13.4 -57.9 12.75 -56.0 10.4 -54.3 8.4 -55.6 7.4 -55.35 7.05 -59.2 5.45 -54.05 -2.05 -56.35 -2.85 -58.55 -3.55 -58.2 -4.0 -57.0 -5.05 Q-55.75 -6.15 -54.85 -7.45 L-54.05 -7.5 M-11.3 28.75 L-11.25 28.75 Q-10.45 29.05 -9.7 29.45 -8.8 29.9 -7.9 29.75 L-7.15 29.5 -6.65 29.15 -6.5 29.3 Q-4.9 31.0 -2.85 31.75 L-0.8 32.15 1.1 32.45 Q4.15 31.8 6.55 29.35 L10.9 29.65 10.85 29.75 Q9.6 31.2 7.45 31.25 L6.85 31.7 2.45 34.75 Q5.0 35.65 7.8 35.6 L14.55 34.5 Q15.6 34.4 16.2 35.3 L16.9 36.55 17.75 38.45 18.55 41.45 18.65 42.25 Q19.15 48.0 17.85 53.7 L18.4 53.6 Q19.1 53.2 19.85 53.05 19.35 54.2 18.2 55.15 L17.25 55.7 16.15 56.0 15.65 55.65 Q17.75 50.85 17.8 45.55 L17.6 42.95 Q17.25 40.7 16.35 38.65 15.6 36.95 14.2 36.0 7.05 38.55 0.0 35.85 -7.1 38.65 -14.05 35.95 L-15.65 37.55 Q-16.55 39.35 -16.95 41.35 L-17.15 42.3 Q-17.55 45.1 -17.4 47.95 -17.3 50.35 -16.6 52.75 L-15.75 55.55 -16.15 56.0 Q-19.05 55.05 -20.45 52.45 L-20.55 52.25 -20.55 52.2 Q-19.1 53.05 -18.5 52.75 -19.4 47.7 -18.95 42.6 -18.5 37.85 -15.05 34.6 L-15.0 34.5 -14.8 34.55 -14.1 34.75 -12.5 35.05 Q-7.25 36.45 -2.3 34.7 -5.3 34.0 -7.25 31.7 L-9.35 30.7 -9.65 30.55 -11.25 29.45 Q-11.75 29.05 -11.3 28.75 M-56.25 2.2 L-56.25 2.15 -56.3 2.2 -56.25 2.2" fill="#666666" fill-rule="evenodd" stroke="none"/>
    <path d="M-27.4 15.8 L-27.4 15.05 -27.8 16.0 Q-27.9 14.15 -27.25 12.6 -26.6 11.0 -25.2 9.9 -23.35 8.4 -21.05 7.8 L-18.45 7.05 -15.8 7.0 Q-14.0 6.85 -12.15 7.6 -10.35 8.45 -9.0 9.7 L-7.2 11.65 Q-6.25 12.9 -6.15 14.6 L-6.15 16.95 -6.95 18.4 -7.1 18.5 -6.8 17.8 Q-6.4 16.65 -6.45 15.5 -6.5 13.65 -7.4 12.05 -7.1 13.6 -6.95 15.15 -6.8 16.55 -7.35 18.05 -7.25 16.05 -8.0 14.2 L-8.4 13.3 Q-9.1 11.45 -10.9 10.7 L-13.5 9.85 -16.15 9.25 Q-13.4 10.25 -12.85 13.3 -12.5 15.35 -13.95 16.95 -15.05 18.25 -16.6 18.55 L-18.8 19.2 -22.35 18.9 Q-24.3 18.6 -25.15 16.95 -26.15 15.1 -25.6 13.15 L-25.25 12.2 Q-26.45 13.35 -26.85 15.0 L-27.2 15.65 -27.4 15.8 M-6.45 15.5 L-6.45 15.45 -6.45 15.5 M6.5 17.9 L6.3 16.45 Q6.25 15.05 6.45 13.75 6.75 12.0 7.9 10.85 9.0 9.6 10.4 8.8 11.75 8.0 13.3 7.9 L16.55 7.55 20.35 7.95 24.0 8.85 Q24.75 9.2 25.4 9.7 26.7 10.9 27.05 12.7 L27.05 12.85 26.4 12.25 27.1 14.95 27.15 17.0 27.0 17.6 26.7 15.2 Q26.55 14.15 26.0 13.3 23.5 9.55 18.9 9.3 L20.5 10.6 21.6 12.4 Q21.95 13.3 21.85 14.3 21.7 16.7 19.8 18.0 18.3 19.1 16.25 19.15 L13.9 19.1 Q11.9 19.3 10.4 17.95 8.45 16.2 8.7 13.55 L8.35 14.1 Q7.4 15.7 7.35 17.6 7.0 15.65 7.3 13.65 L7.55 12.15 7.05 13.6 Q6.4 15.65 7.0 17.95 L6.5 17.9" fill="#ffffff" fill-rule="evenodd" stroke="none"/>
    <path d="M-6.15 16.95 Q-6.7 18.85 -7.8 20.35 L-8.95 21.35 Q-9.9 21.9 -10.95 22.15 L-13.75 22.95 -17.5 23.05 -19.7 22.95 -21.85 22.55 -24.0 21.85 -23.25 21.55 -25.15 20.35 Q-26.65 19.3 -27.1 17.4 L-27.4 15.8 -27.2 15.65 -26.85 15.0 Q-26.45 13.35 -25.25 12.2 L-25.6 13.15 Q-26.15 15.1 -25.15 16.95 -24.3 18.6 -22.35 18.9 L-18.8 19.2 -16.6 18.55 Q-15.05 18.25 -13.95 16.95 -12.5 15.35 -12.85 13.3 -13.4 10.25 -16.15 9.25 L-13.5 9.85 -10.9 10.7 Q-9.1 11.45 -8.4 13.3 L-8.0 14.2 Q-7.25 16.05 -7.35 18.05 L-7.85 19.7 -7.1 18.5 -6.95 18.4 -6.15 16.95 M-6.45 15.5 L-6.45 15.45 -6.45 15.5 M6.5 17.9 L7.0 17.95 7.85 19.7 7.35 17.6 Q7.4 15.7 8.35 14.1 L8.7 13.55 Q8.45 16.2 10.4 17.95 11.9 19.3 13.9 19.1 L16.25 19.15 Q18.3 19.1 19.8 18.0 21.7 16.7 21.85 14.3 21.95 13.3 21.6 12.4 L20.5 10.6 18.9 9.3 Q23.5 9.55 26.0 13.3 26.55 14.15 26.7 15.2 L27.0 17.6 25.8 19.65 24.3 21.1 23.85 21.5 23.25 21.55 24.0 21.85 22.9 22.1 19.65 23.0 17.45 23.1 15.15 23.05 14.85 23.05 11.15 22.15 Q9.15 21.7 7.95 20.05 L6.5 17.9" fill="#ebe2dc" fill-rule="evenodd" stroke="none"/>
    <path d="M-8.7 -10.75 L-9.1 -10.55 -9.75 -11.8 -8.7 -10.75" fill="#cdb8a5" fill-rule="evenodd" stroke="none"/>
  </g>
</svg>
