<?xml version="1.0" encoding="UTF-8" standalone="no"?>
<svg xmlns:ffdec="https://www.free-decompiler.com/flash" xmlns:xlink="http://www.w3.org/1999/xlink" ffdec:objectType="shape" height="17.25px" width="32.45px" xmlns="http://www.w3.org/2000/svg">
  <g transform="matrix(1.0, 0.0, 0.0, 1.0, 19.35, 15.7)">
    <path d="M9.35 -11.95 L7.9 -13.05 7.85 -13.1 5.25 -13.2 Q4.05 -12.85 3.5 -11.75 2.85 -10.6 2.55 -9.3 L1.9 -6.7 1.3 -5.1 1.2 -4.95 1.4 -5.7 1.3 -5.8 1.1 -5.8 0.95 -5.45 0.65 -5.75 0.5 -5.65 0.4 -5.55 0.2 -5.1 0.2 -5.05 -0.3 -5.35 -0.45 -5.3 -0.55 -4.55 -1.15 -4.8 -1.25 -4.7 -1.3 -4.65 -1.35 -4.55 -1.35 -4.45 -1.35 -4.3 -1.9 -4.6 -2.05 -4.5 -2.0 -4.0 -2.05 -4.0 -2.15 -4.0 -2.3 -4.0 -2.35 -3.95 -2.55 -3.8 -2.7 -3.8 -2.9 -3.75 -3.05 -3.7 -3.2 -3.6 -3.4 -3.7 -3.6 -3.7 -3.85 -3.65 -3.9 -3.6 -4.25 -3.65 -4.65 -3.6 -4.95 -3.65 -5.25 -3.6 -5.85 -3.55 -6.05 -3.7 -6.2 -3.7 -6.35 -3.65 -6.45 -3.65 -6.5 -3.6 -6.6 -3.55 -6.9 -3.65 -7.05 -3.85 -7.4 -3.95 -7.65 -3.85 -7.7 -3.9 -8.1 -4.1 -9.15 -4.5 -10.1 -5.1 -11.45 -4.7 -10.75 -8.0 -9.5 -5.35 -7.15 -4.15 -5.2 -3.9 -4.9 -4.0 -4.75 -4.05 -4.5 -3.95 -4.25 -3.85 -4.05 -4.0 -3.9 -4.05 -3.7 -4.0 -3.4 -3.9 -3.0 -4.15 -2.9 -4.25 -2.5 -4.35 -2.4 -4.4 -2.2 -4.85 -1.7 -4.7 -1.65 -4.75 -1.6 -4.85 -1.6 -4.95 -1.55 -5.0 -1.55 -5.05 -1.45 -5.1 -1.4 -5.15 -1.35 -5.15 -0.8 -4.9 -0.45 -5.6 -0.3 -5.65 0.15 -5.45 0.3 -5.8 0.45 -6.0 0.55 -6.1 0.6 -6.1 0.65 -6.1 0.7 -6.1 0.8 -6.1 1.05 -6.05 1.25 -6.15 1.4 -6.05 Q2.0 -8.75 2.9 -11.4 3.2 -12.3 4.0 -12.85 5.1 -13.65 6.5 -13.75 L8.5 -13.25 8.85 -13.05 9.9 -12.0 10.45 -10.9 10.65 -9.75 10.85 -9.6 10.85 -9.45 12.25 -7.9 Q13.0 -7.0 13.1 -5.9 L13.1 -5.6 Q11.2 -6.6 9.2 -7.15 L7.95 -7.4 6.55 -6.25 7.1 -5.85 7.25 -5.65 7.25 -5.45 7.35 -5.15 7.55 -4.8 Q7.75 -4.1 7.45 -3.25 L7.4 -3.25 6.95 -2.65 5.85 -1.5 4.45 -0.25 3.85 0.45 3.8 0.55 3.75 0.65 3.65 0.75 3.45 0.85 3.25 0.9 3.15 1.0 3.05 1.05 3.0 1.1 2.95 1.15 2.9 1.15 2.85 1.2 2.8 1.2 2.7 1.2 2.25 1.4 Q1.85 1.25 1.5 1.4 L1.4 1.4 0.55 1.55 0.35 1.55 0.15 1.45 -1.25 1.4 -2.1 1.1 -2.45 1.2 -2.65 1.1 -2.85 0.95 -3.1 1.05 -3.35 1.1 -3.5 1.15 -3.65 1.1 -3.75 1.1 -3.9 1.25 -4.2 1.25 -4.65 1.35 -4.8 1.35 -5.05 1.3 -5.15 1.25 -5.3 1.3 -5.6 1.25 -5.85 1.1 -6.5 1.15 -6.7 1.15 -7.45 1.05 -8.4 0.9 -8.65 0.95 -8.85 0.9 -9.0 0.85 -9.1 0.7 -9.15 0.6 -9.55 0.55 -9.7 0.5 -9.85 0.4 -10.0 0.2 -9.9 0.0 -9.7 0.0 -9.6 0.0 Q-9.5 0.35 -9.15 0.35 L-8.9 0.3 -8.7 0.45 -8.4 0.5 -8.35 0.5 -8.0 0.65 -7.8 0.6 -7.65 0.55 -7.15 0.75 -6.75 0.65 -6.45 0.75 -6.35 0.7 -6.25 0.65 -6.0 0.75 -5.7 0.7 -5.6 0.65 -5.25 0.8 -5.1 0.75 -5.0 0.75 -4.5 0.85 -4.25 0.7 -3.9 0.8 -3.65 0.7 -3.55 0.65 -3.05 0.65 -2.8 0.5 -2.6 0.55 -2.4 0.55 -2.2 0.5 -1.9 0.65 -1.85 0.6 -1.75 0.6 -1.3 0.9 -0.95 0.85 -0.5 1.0 -0.3 0.95 0.2 1.15 0.65 1.05 1.05 1.1 1.2 1.05 1.25 1.0 1.7 1.0 1.95 0.9 2.35 0.9 2.5 0.8 2.55 0.75 2.7 0.75 2.9 0.65 2.9 0.6 2.95 0.55 3.05 0.55 3.35 0.35 3.4 0.3 3.65 0.05 3.65 -0.05 3.6 -0.15 4.0 -0.4 4.1 -0.55 4.15 -0.6 4.2 -0.6 6.9 -3.05 Q7.55 -3.9 6.9 -4.55 L6.85 -5.25 6.8 -5.6 6.55 -5.85 6.3 -5.85 6.15 -5.7 6.15 -5.55 Q5.75 -4.45 4.95 -3.5 L5.75 -5.6 5.95 -6.3 6.1 -6.45 6.45 -6.8 6.9 -7.8 7.5 -8.85 Q8.55 -10.2 10.2 -10.2 L10.1 -10.35 10.0 -10.65 9.85 -11.0 Q10.3 -11.1 10.0 -11.5 L10.0 -11.55 Q9.95 -12.0 9.55 -12.1 L9.35 -11.95 M8.6 -9.45 Q7.9 -9.1 7.6 -8.4 L7.4 -8.0 7.6 -7.7 9.35 -7.3 10.65 -6.9 8.25 -8.1 8.3 -8.15 Q9.95 -7.7 11.4 -6.75 L11.95 -6.4 12.3 -6.2 12.7 -6.0 12.9 -6.1 12.65 -6.95 12.25 -7.55 11.85 -8.1 11.55 -8.45 10.45 -9.35 10.4 -9.25 10.2 -9.25 10.2 -9.55 9.4 -9.75 8.9 -9.6 9.4 -9.2 9.35 -9.05 Q8.95 -9.1 8.7 -9.35 L8.6 -9.45 M-15.25 -14.9 L-14.95 -15.25 -14.8 -15.35 -14.6 -15.35 -13.85 -14.5 -13.85 -14.55 -13.55 -14.8 -13.5 -15.4 -13.4 -15.55 -13.1 -15.7 -12.8 -15.45 -12.75 -15.35 -12.7 -15.3 -12.6 -15.15 -12.55 -15.1 -12.6 -15.1 -12.55 -15.05 -12.6 -15.05 -13.2 -14.65 -13.4 -14.5 -13.75 -14.1 -13.85 -14.0 -13.9 -13.9 -14.05 -13.55 -14.25 -12.95 -14.25 -12.9 -14.35 -12.55 -14.45 -12.0 -14.75 -11.25 -15.35 -8.4 -15.45 -5.4 -15.4 -3.35 -15.85 -3.55 -15.9 -3.55 -16.1 -3.65 -17.7 -4.75 -17.95 -5.05 -17.85 -5.1 -16.65 -4.8 -16.9 -5.0 -17.2 -5.3 -18.25 -6.6 -18.7 -7.3 -19.05 -8.05 -19.05 -8.2 -18.9 -8.2 -16.3 -6.25 -16.65 -6.6 -17.0 -7.0 -17.3 -7.35 -18.35 -9.05 -18.6 -9.45 -19.3 -11.5 -19.35 -12.2 -19.3 -12.25 -19.2 -12.35 -19.1 -12.35 -15.95 -9.1 Q-17.2 -11.6 -17.7 -14.4 L-17.55 -15.1 -17.15 -15.05 -17.0 -14.95 -16.35 -14.15 -16.2 -13.95 -15.9 -13.5 -15.75 -13.2 -15.2 -12.4 Q-15.45 -13.5 -15.3 -14.65 L-15.25 -14.9 M-17.3 -14.8 Q-17.1 -12.05 -15.75 -9.45 L-15.35 -8.8 -15.15 -10.75 -15.05 -11.4 -15.0 -11.45 -15.65 -12.45 -17.3 -14.8 M-13.05 -14.95 L-12.9 -15.1 Q-12.85 -15.4 -13.1 -15.5 L-13.3 -15.35 -13.3 -15.1 Q-13.3 -14.9 -13.05 -14.95 M-14.5 -14.9 Q-14.7 -15.1 -14.9 -14.9 L-14.9 -13.1 -14.8 -12.45 -14.75 -12.35 -14.7 -12.35 -14.7 -12.4 -14.65 -12.45 -14.6 -12.65 -14.3 -13.6 -14.2 -13.95 -14.1 -14.1 -14.4 -14.7 -14.5 -14.9 M-18.9 -11.8 L-19.15 -12.05 -19.05 -11.65 -18.35 -9.4 -17.75 -8.3 -17.05 -7.35 -16.5 -6.7 -15.7 -5.9 -15.65 -7.0 -15.65 -7.35 -15.6 -7.85 -15.5 -8.4 -18.9 -11.8 M-11.2 -5.4 L-10.6 -5.65 -10.0 -5.55 -10.65 -7.4 -11.2 -5.4 M-18.8 -7.95 L-18.0 -6.55 -16.95 -5.35 -16.1 -4.65 -15.85 -4.55 -16.25 -4.5 -16.65 -4.55 -17.45 -4.85 -17.1 -4.5 Q-16.5 -4.0 -15.75 -3.65 L-15.7 -5.4 -15.85 -5.55 -18.8 -7.95" fill="#313566" fill-rule="evenodd" stroke="none"/>
    <path d="M-11.45 -4.7 L-10.1 -5.1 -9.15 -4.5 -8.1 -4.1 -7.7 -3.9 -7.65 -3.85 -7.4 -3.95 -7.05 -3.85 -6.9 -3.65 -6.6 -3.55 -6.5 -3.6 -6.45 -3.65 -6.35 -3.65 -6.2 -3.7 -6.05 -3.7 -5.85 -3.55 -5.25 -3.6 -4.95 -3.65 -4.65 -3.6 -4.25 -3.65 -3.9 -3.6 -3.85 -3.65 -3.6 -3.7 -3.4 -3.7 -3.2 -3.6 -3.05 -3.7 -2.9 -3.75 -2.7 -3.8 -2.55 -3.8 -2.35 -3.95 -2.3 -4.0 -2.15 -4.0 -2.05 -4.0 -2.0 -4.0 -2.05 -4.5 -1.9 -4.6 -1.35 -4.3 -1.35 -4.45 -1.35 -4.55 -1.3 -4.65 -1.25 -4.7 -1.15 -4.8 -0.55 -4.55 -0.45 -5.3 -0.3 -5.35 0.2 -5.05 0.2 -5.1 0.4 -5.55 0.5 -5.65 0.65 -5.75 0.95 -5.45 1.1 -5.8 1.3 -5.8 1.4 -5.7 1.2 -4.95 1.3 -5.1 1.9 -6.7 2.55 -9.3 Q2.85 -10.6 3.5 -11.75 4.05 -12.85 5.25 -13.2 L7.85 -13.1 7.9 -13.05 9.35 -11.95 9.3 -11.95 9.25 -11.75 9.45 -11.95 9.5 -11.95 Q9.95 -11.8 9.6 -11.5 L9.4 -11.5 9.25 -11.7 9.35 -11.2 Q9.5 -10.95 9.8 -11.0 L9.85 -11.0 10.0 -10.65 10.1 -10.35 10.2 -10.2 Q8.55 -10.2 7.5 -8.85 L6.9 -7.8 6.45 -6.8 6.1 -6.45 5.95 -6.3 5.75 -5.6 5.8 -6.25 5.65 -6.35 5.5 -6.3 4.3 -3.95 3.8 -3.05 Q3.5 -2.55 2.9 -2.3 L2.9 -2.2 2.6 -1.9 2.5 -1.9 2.4 -1.9 2.05 -1.45 1.85 -1.45 1.55 -1.25 0.5 -1.25 0.1 -1.15 -0.85 -1.15 -1.95 -1.15 -4.0 -0.95 -5.15 -0.85 -5.55 -0.8 -6.9 -1.05 -6.9 -0.9 Q-7.3 -0.75 -7.55 -1.05 L-7.7 -1.2 -8.15 -1.2 -8.45 -1.2 Q-8.8 -1.25 -9.05 -1.45 L-9.6 -1.4 -9.65 -1.65 -9.9 -2.4 -9.95 -2.55 Q-10.0 -3.25 -10.5 -3.45 L-10.7 -3.65 -11.3 -4.25 -11.45 -4.7 M4.95 -3.5 Q5.75 -4.45 6.15 -5.55 L6.15 -5.7 6.3 -5.85 6.55 -5.85 6.8 -5.6 6.85 -5.25 6.9 -4.55 6.85 -4.4 6.8 -4.0 6.45 -3.7 6.35 -3.35 5.15 -3.25 5.0 -3.4 4.95 -3.5 M6.3 -11.1 Q6.8 -10.95 6.45 -10.55 L6.25 -10.5 Q5.8 -10.7 6.15 -11.05 L6.3 -11.1 M6.15 -11.15 Q5.95 -11.15 5.85 -10.95 5.5 -10.45 5.95 -10.1 6.45 -9.7 6.75 -10.2 L6.8 -10.45 6.8 -10.55 6.8 -10.6 Q6.75 -11.15 6.15 -11.15 M-17.3 -14.8 L-15.65 -12.45 -15.0 -11.45 -15.05 -11.4 -15.15 -10.75 -15.35 -8.8 -15.75 -9.45 Q-17.1 -12.05 -17.3 -14.8 M-13.05 -14.95 Q-13.3 -14.9 -13.3 -15.1 L-13.3 -15.35 -13.1 -15.5 Q-12.85 -15.4 -12.9 -15.1 L-13.05 -14.95 M-14.5 -14.9 L-14.4 -14.7 -14.1 -14.1 -14.2 -13.95 -14.3 -13.6 -14.6 -12.65 -14.65 -12.45 -14.7 -12.4 -14.7 -12.35 -14.75 -12.35 -14.8 -12.45 -14.9 -13.1 -14.9 -14.9 Q-14.7 -15.1 -14.5 -14.9 M-15.65 -7.0 L-16.9 -8.5 -18.4 -10.65 -18.9 -11.8 -15.5 -8.4 -15.6 -7.85 -15.65 -7.35 -15.65 -7.0" fill="#ffffff" fill-rule="evenodd" stroke="none"/>
    <path d="M5.75 -5.6 L4.95 -3.5 5.0 -3.4 5.15 -3.25 6.35 -3.35 6.45 -3.7 6.8 -4.0 6.85 -4.4 6.9 -4.55 Q7.55 -3.9 6.9 -3.05 L4.2 -0.6 4.15 -0.6 4.1 -0.55 4.0 -0.4 3.6 -0.15 3.65 -0.05 3.65 0.05 3.4 0.3 3.35 0.35 3.05 0.55 2.95 0.55 2.9 0.6 2.9 0.65 2.7 0.75 2.55 0.75 2.5 0.8 2.35 0.9 1.95 0.9 1.7 1.0 1.25 1.0 1.2 1.05 1.05 1.1 0.65 1.05 0.2 1.15 -0.3 0.95 -0.5 1.0 -0.95 0.85 -1.3 0.9 -1.75 0.6 -1.85 0.6 -1.9 0.65 -2.2 0.5 -2.4 0.55 -2.6 0.55 -2.8 0.5 -3.05 0.65 -3.55 0.65 -3.65 0.7 -3.9 0.8 -4.25 0.7 -4.5 0.85 -5.0 0.75 -5.1 0.75 -5.25 0.8 -5.6 0.65 -5.7 0.7 -6.0 0.75 -6.25 0.65 -6.35 0.7 -6.45 0.75 -6.75 0.65 -7.15 0.75 -7.65 0.55 -7.8 0.6 -8.0 0.65 -8.35 0.5 -8.4 0.5 -8.7 0.45 -8.9 0.3 -9.15 0.35 Q-9.5 0.35 -9.6 0.0 L-9.7 0.0 -9.9 0.0 -9.75 -0.45 -9.7 -0.8 -9.6 -1.4 -9.05 -1.45 Q-8.8 -1.25 -8.45 -1.2 L-8.15 -1.2 -7.7 -1.2 -7.55 -1.05 Q-7.3 -0.75 -6.9 -0.9 L-6.9 -1.05 -5.55 -0.8 -5.15 -0.85 -4.0 -0.95 -1.95 -1.15 -0.85 -1.15 0.1 -1.15 0.5 -1.25 1.55 -1.25 1.85 -1.45 2.05 -1.45 2.4 -1.9 2.5 -1.9 2.6 -1.9 2.9 -2.2 2.9 -2.3 Q3.5 -2.55 3.8 -3.05 L4.3 -3.95 5.5 -6.3 5.65 -6.35 5.8 -6.25 5.75 -5.6 M-15.65 -7.0 L-15.7 -5.9 -16.5 -6.7 -17.05 -7.35 -17.75 -8.3 -18.35 -9.4 -19.05 -11.65 -19.15 -12.05 -18.9 -11.8 -18.4 -10.65 -16.9 -8.5 -15.65 -7.0 M-18.8 -7.95 L-15.85 -5.55 -15.7 -5.4 -15.75 -3.65 Q-16.5 -4.0 -17.1 -4.5 L-17.45 -4.85 -16.65 -4.55 -16.25 -4.5 -15.85 -4.55 -16.1 -4.65 -16.95 -5.35 -18.0 -6.55 -18.8 -7.95 M-11.2 -5.4 L-10.65 -7.4 -10.0 -5.55 -10.6 -5.65 -11.2 -5.4" fill="#cdd5e7" fill-rule="evenodd" stroke="none"/>
    <path d="M8.6 -9.45 L8.7 -9.35 Q8.95 -9.1 9.35 -9.05 L9.4 -9.2 8.9 -9.6 9.4 -9.75 10.2 -9.55 10.2 -9.25 10.4 -9.25 10.45 -9.35 11.55 -8.45 11.85 -8.1 12.25 -7.55 12.65 -6.95 12.9 -6.1 12.7 -6.0 12.3 -6.2 11.95 -6.4 11.4 -6.75 Q9.95 -7.7 8.3 -8.15 L8.25 -8.1 10.65 -6.9 9.35 -7.3 7.6 -7.7 7.4 -8.0 7.6 -8.4 Q7.9 -9.1 8.6 -9.45" fill="#bebbb4" fill-rule="evenodd" stroke="none"/>
    <path d="M9.35 -11.95 L9.55 -12.1 Q9.95 -12.0 10.0 -11.55 L10.0 -11.5 Q10.3 -11.1 9.85 -11.0 L9.8 -11.0 Q9.5 -10.95 9.35 -11.2 L9.25 -11.7 9.4 -11.5 9.6 -11.5 Q9.95 -11.8 9.5 -11.95 L9.45 -11.95 9.25 -11.75 9.3 -11.95 9.35 -11.95 M6.3 -11.1 L6.15 -11.05 Q5.8 -10.7 6.25 -10.5 L6.45 -10.55 Q6.8 -10.95 6.3 -11.1 M6.15 -11.15 Q6.75 -11.15 6.8 -10.6 L6.8 -10.55 6.8 -10.45 6.75 -10.2 Q6.45 -9.7 5.95 -10.1 5.5 -10.45 5.85 -10.95 5.95 -11.15 6.15 -11.15" fill="#000000" fill-rule="evenodd" stroke="none"/>
  </g>
</svg>
