<?xml version="1.0" encoding="UTF-8" standalone="no"?>
<svg xmlns:ffdec="https://www.free-decompiler.com/flash" xmlns:xlink="http://www.w3.org/1999/xlink" ffdec:objectType="shape" height="28.6px" width="46.1px" xmlns="http://www.w3.org/2000/svg">
  <g transform="matrix(1.0, 0.0, 0.0, 1.0, 22.9, -28.2)">
    <path d="M-15.65 37.55 L-16.25 41.65 -16.35 45.6 -15.85 51.75 -15.3 54.4 -15.25 54.55 -15.15 55.1 Q-15.0 55.7 -15.1 56.25 L-15.4 56.65 -16.55 56.75 -17.6 56.5 -19.6 54.9 -19.8 54.7 -19.8 54.65 -19.85 54.65 -20.05 54.35 -21.55 51.85 -21.75 51.35 -21.8 51.2 -22.55 48.45 -22.8 46.95 -22.9 43.75 -22.75 40.55 -22.5 38.9 Q-21.8 35.3 -19.45 32.55 L-17.7 30.7 -15.7 29.65 -14.8 29.2 -13.25 28.6 -10.9 28.2 -10.6 28.35 -8.4 28.75 -7.05 28.7 -6.0 28.45 -4.35 29.65 -2.45 30.9 -1.6 31.25 0.9 31.45 Q3.25 31.0 5.05 29.35 L6.25 28.3 7.9 28.45 8.1 28.45 8.25 28.45 12.55 29.05 14.1 29.35 14.2 29.4 16.8 30.55 17.5 30.95 17.7 31.1 20.1 33.75 Q21.5 35.25 22.1 37.15 L23.0 40.65 23.2 42.65 22.95 46.55 22.15 50.0 22.15 50.15 21.7 51.05 20.35 53.55 20.05 54.05 17.7 55.75 15.85 56.8 15.35 56.4 15.0 56.1 15.0 55.8 15.35 54.05 15.55 53.6 16.15 52.0 16.55 50.35 16.75 48.65 16.7 44.55 Q16.5 42.2 15.95 39.95 15.6 38.6 14.8 37.55 14.35 36.95 13.55 36.65 L9.45 37.5 Q4.4 38.35 0.0 36.0 L-1.75 36.7 Q-3.45 37.55 -5.55 37.6 -7.5 37.8 -9.45 37.6 L-12.05 36.95 Q-13.6 36.4 -15.0 37.15 L-15.65 37.55 -14.05 35.95 Q-7.1 38.65 0.0 35.85 7.05 38.55 14.2 36.0 15.6 36.95 16.35 38.65 17.8 41.9 17.8 45.55 17.75 50.85 15.65 55.65 L16.15 56.0 17.25 55.7 18.2 55.15 Q19.35 54.2 19.85 53.05 L20.95 51.05 21.35 50.0 22.4 45.45 Q22.7 43.2 22.45 41.05 22.2 39.0 21.4 37.1 L19.7 34.05 Q18.05 31.7 15.55 30.75 L12.95 29.9 10.9 29.65 6.55 29.35 Q4.15 31.8 1.1 32.45 L-0.8 32.15 -2.85 31.75 Q-4.95 30.95 -6.65 29.15 -8.15 30.25 -9.7 29.45 -10.45 29.05 -11.25 28.75 L-11.3 28.75 -11.5 28.7 Q-14.15 29.25 -16.4 30.8 -18.8 32.5 -20.2 34.95 L-20.85 36.2 -21.75 39.05 -22.15 41.55 -22.1 45.3 -21.6 48.9 -21.5 49.35 -20.7 51.9 -20.55 52.25 -20.45 52.45 Q-19.05 55.05 -16.15 56.0 L-15.75 55.55 -16.6 52.75 Q-17.3 50.35 -17.4 47.95 -17.55 45.1 -17.15 42.3 -16.75 39.75 -15.65 37.55" fill="#000000" fill-rule="evenodd" stroke="none"/>
    <path d="M-20.55 52.25 L-20.7 51.9 -21.5 49.35 -21.6 48.9 -22.1 45.3 -22.15 41.55 -21.75 39.05 -20.85 36.2 -20.2 34.95 Q-18.8 32.5 -16.4 30.8 -14.15 29.25 -11.5 28.7 L-11.3 28.75 Q-11.75 29.05 -11.25 29.45 L-9.35 30.7 -7.25 31.7 Q-5.3 34.0 -2.3 34.7 -7.25 36.45 -12.5 35.05 L-14.1 34.75 -15.0 34.5 -15.05 34.6 Q-18.5 37.85 -18.95 42.6 -19.4 47.7 -18.5 52.75 -19.1 53.05 -20.55 52.2 L-20.55 52.25 M10.9 29.65 L12.95 29.9 15.55 30.75 Q18.05 31.7 19.7 34.05 L21.4 37.1 Q22.2 39.0 22.45 41.05 22.7 43.2 22.4 45.45 L21.35 50.0 20.95 51.05 19.85 53.05 Q19.1 53.2 18.4 53.6 L17.85 53.7 Q19.15 48.0 18.65 42.25 18.45 40.3 17.75 38.45 L16.9 36.55 16.2 35.3 Q15.6 34.4 14.55 34.5 L7.8 35.6 Q5.0 35.65 2.45 34.75 L6.85 31.7 7.45 31.25 Q9.7 31.2 10.9 29.65" fill="#999999" fill-rule="evenodd" stroke="none"/>
    <path d="M-15.65 37.55 Q-16.75 39.75 -17.15 42.3 -17.55 45.1 -17.4 47.95 -17.3 50.35 -16.6 52.75 L-15.75 55.55 -16.15 56.0 Q-19.05 55.05 -20.45 52.45 L-20.55 52.25 -20.55 52.2 Q-19.1 53.05 -18.5 52.75 -19.4 47.7 -18.95 42.6 -18.5 37.85 -15.05 34.6 L-15.0 34.5 -14.1 34.75 -12.5 35.05 Q-7.25 36.45 -2.3 34.7 -5.3 34.0 -7.25 31.7 L-9.35 30.7 -11.25 29.45 Q-11.75 29.05 -11.3 28.75 L-11.25 28.75 Q-10.45 29.05 -9.7 29.45 -8.15 30.25 -6.65 29.15 -4.95 30.95 -2.85 31.75 L-0.8 32.15 1.1 32.45 Q4.15 31.8 6.55 29.35 L10.9 29.65 Q9.7 31.2 7.45 31.25 L6.85 31.7 2.45 34.75 Q5.0 35.65 7.8 35.6 L14.55 34.5 Q15.6 34.4 16.2 35.3 L16.9 36.55 17.75 38.45 Q18.45 40.3 18.65 42.25 19.15 48.0 17.85 53.7 L18.4 53.6 Q19.1 53.2 19.85 53.05 19.35 54.2 18.2 55.15 L17.25 55.7 16.15 56.0 15.65 55.65 Q17.75 50.85 17.8 45.55 17.8 41.9 16.35 38.65 15.6 36.95 14.2 36.0 7.05 38.55 0.0 35.85 -7.1 38.65 -14.05 35.95 L-15.65 37.55" fill="#666666" fill-rule="evenodd" stroke="none"/>
  </g>
</svg>
