<?xml version="1.0" encoding="UTF-8" standalone="no"?>
<svg xmlns:ffdec="https://www.free-decompiler.com/flash" xmlns:xlink="http://www.w3.org/1999/xlink" ffdec:objectType="shape" height="13.55px" width="24.25px" xmlns="http://www.w3.org/2000/svg">
  <g transform="matrix(1.0, 0.0, 0.0, 1.0, 12.1, 6.8)">
    <path d="M10.2 -5.55 L10.3 -5.0 9.75 -4.45 Q8.6 -3.8 7.0 -3.4 L6.2 -3.25 Q-0.05 -2.4 -6.45 -3.15 -9.0 -3.5 -10.55 -4.5 L-11.2 -4.95 -11.35 -5.05 -11.2 -5.75 -10.65 -6.0 -5.1 -6.15 -0.55 -6.2 4.15 -6.15 5.55 -6.1 7.25 -5.95 9.85 -5.7 10.2 -5.55" fill="#990000" fill-rule="evenodd" stroke="none"/>
    <path d="M11.2 -6.05 L12.15 -5.35 Q11.6 -4.6 10.5 -4.05 9.55 -3.55 8.3 -3.2 L4.05 -2.55 Q0.65 -2.15 -2.65 -2.4 L-6.75 -2.95 -9.35 -3.55 Q-10.1 -3.8 -10.7 -4.15 -11.85 -4.7 -12.1 -5.4 L-11.55 -6.2 -8.45 -6.45 -2.85 -6.75 3.65 -6.75 11.2 -6.05 M10.2 -5.55 L9.85 -5.7 7.25 -5.95 5.55 -6.1 4.15 -6.15 -0.55 -6.2 -5.1 -6.15 -10.65 -6.0 -11.2 -5.75 -11.35 -5.05 -11.2 -4.95 -10.55 -4.5 Q-9.0 -3.5 -6.45 -3.15 -0.05 -2.4 6.2 -3.25 L7.0 -3.4 Q8.6 -3.8 9.75 -4.45 L10.3 -5.0 10.2 -5.55" fill="#000000" fill-rule="evenodd" stroke="none"/>
    <path d="M4.9 5.5 Q4.45 6.45 3.35 6.55 -0.3 6.8 -3.9 6.7 L-4.45 6.3 Q-5.7 3.5 -2.6 2.15 L-1.9 1.95 Q2.5 1.25 4.8 4.6 5.1 5.0 4.9 5.5" fill="#bca38b" fill-rule="evenodd" stroke="none"/>
  </g>
</svg>
