<?xml version="1.0" encoding="UTF-8" standalone="no"?>
<svg xmlns:ffdec="https://www.free-decompiler.com/flash" xmlns:xlink="http://www.w3.org/1999/xlink" ffdec:objectType="shape" height="18.0px" width="24.25px" xmlns="http://www.w3.org/2000/svg">
  <g transform="matrix(1.0, 0.0, 0.0, 1.0, 12.1, 8.95)">
    <path d="M4.15 -7.65 L5.55 -7.5 7.25 -7.15 9.85 -6.6 10.2 -6.3 10.3 -5.05 9.75 -3.75 Q8.6 -2.35 7.0 -1.5 L6.2 -1.1 Q-0.05 0.85 -6.45 -0.85 -9.0 -1.7 -10.55 -3.9 L-11.2 -4.95 -11.35 -5.15 -11.2 -6.7 -10.65 -7.25 -5.1 -7.6 -0.55 -7.7 4.15 -7.65" fill="#990000" fill-rule="evenodd" stroke="none"/>
    <path d="M4.15 -7.65 L-0.55 -7.7 -5.1 -7.6 -10.65 -7.25 -11.2 -6.7 -11.35 -5.15 -11.2 -4.95 -10.55 -3.9 Q-9.0 -1.7 -6.45 -0.85 -0.05 0.85 6.2 -1.1 L7.0 -1.5 Q8.6 -2.35 9.75 -3.75 L10.3 -5.05 10.2 -6.3 9.85 -6.6 7.25 -7.15 5.55 -7.5 4.15 -7.65 M8.3 -1.0 L4.05 0.45 -2.65 0.8 Q-4.75 0.4 -6.75 -0.45 -8.15 -0.85 -9.35 -1.75 L-10.7 -3.1 Q-11.85 -4.35 -12.1 -5.95 L-11.55 -7.7 -8.45 -8.3 -2.85 -8.9 3.65 -8.9 Q7.55 -8.8 11.2 -7.35 L12.15 -5.8 Q11.6 -4.15 10.5 -2.9 9.55 -1.8 8.3 -1.0" fill="#000000" fill-rule="evenodd" stroke="none"/>
    <path d="M3.3 8.85 Q-0.35 9.1 -3.95 9.0 -4.35 9.0 -4.5 8.65 -5.75 6.0 -2.65 4.75 L-1.95 4.6 Q2.45 3.95 4.75 7.05 5.05 7.4 4.85 7.9 4.4 8.75 3.3 8.85" fill="#bca38b" fill-rule="evenodd" stroke="none"/>
  </g>
</svg>
