<?xml version="1.0" encoding="UTF-8" standalone="no"?>
<svg xmlns:ffdec="https://www.free-decompiler.com/flash" xmlns:xlink="http://www.w3.org/1999/xlink" ffdec:objectType="shape" height="15.3px" width="24.25px" xmlns="http://www.w3.org/2000/svg">
  <g transform="matrix(1.0, 0.0, 0.0, 1.0, 12.1, 7.65)">
    <path d="M10.2 -5.9 L10.3 -5.05 9.75 -4.2 Q8.6 -3.3 7.0 -2.75 L6.2 -2.45 Q-0.05 -1.2 -6.45 -2.3 -9.0 -2.85 -10.55 -4.35 L-11.2 -5.0 -11.35 -5.15 -11.2 -6.15 -10.65 -6.5 -5.1 -6.75 -0.55 -6.8 4.15 -6.75 5.55 -6.65 7.25 -6.4 9.85 -6.05 10.2 -5.9" fill="#990000" fill-rule="evenodd" stroke="none"/>
    <path d="M11.2 -6.55 L12.15 -5.55 Q11.6 -4.5 10.5 -3.65 L8.3 -2.45 4.05 -1.45 -2.65 -1.25 -6.75 -2.05 Q-8.15 -2.3 -9.35 -2.9 L-10.7 -3.8 Q-11.85 -4.6 -12.1 -5.65 L-11.55 -6.8 -8.45 -7.2 -2.85 -7.6 3.65 -7.6 Q7.55 -7.5 11.2 -6.55 M10.2 -5.9 L9.85 -6.05 7.25 -6.4 5.55 -6.65 4.15 -6.75 -0.55 -6.8 -5.1 -6.75 -10.65 -6.5 -11.2 -6.15 -11.35 -5.15 -11.2 -5.0 -10.55 -4.35 Q-9.0 -2.85 -6.45 -2.3 -0.05 -1.2 6.2 -2.45 L7.0 -2.75 Q8.6 -3.3 9.75 -4.2 L10.3 -5.05 10.2 -5.9" fill="#000000" fill-rule="evenodd" stroke="none"/>
    <path d="M3.3 7.45 Q-0.35 7.7 -3.95 7.6 L-4.5 7.2 Q-5.75 4.4 -2.65 3.05 L-1.95 2.85 Q2.45 2.15 4.75 5.5 5.05 5.9 4.85 6.4 4.4 7.35 3.3 7.45" fill="#bca38b" fill-rule="evenodd" stroke="none"/>
  </g>
</svg>
