<?xml version="1.0" encoding="UTF-8" standalone="no"?>
<svg xmlns:ffdec="https://www.free-decompiler.com/flash" xmlns:xlink="http://www.w3.org/1999/xlink" ffdec:objectType="shape" height="112.1px" width="120.6px" xmlns="http://www.w3.org/2000/svg">
  <g transform="matrix(1.0, 0.0, 0.0, 1.0, 60.3, 56.05)">
    <path d="M56.2 -13.95 L56.5 -14.75 Q56.9 -16.15 56.5 -17.3 54.35 -23.2 50.3 -27.95 L42.95 -36.05 36.05 -43.1 32.5 -45.8 Q27.95 -48.55 22.65 -49.85 L10.15 -53.3 5.1 -54.45 Q1.75 -55.2 -1.45 -54.55 -9.2 -53.6 -17.1 -51.55 L-28.9 -47.7 -32.6 -45.6 Q-42.45 -37.8 -50.25 -28.15 -53.7 -23.9 -56.25 -19.1 -56.9 -17.95 -56.8 -16.8 L-56.3 -14.8 -55.2 -12.85 -54.6 -12.75 Q-52.0 -15.9 -49.55 -19.15 -45.5 -24.65 -40.15 -29.15 -37.3 -31.6 -33.9 -33.3 L-30.55 -34.9 -32.75 -32.2 -36.45 -28.45 -37.85 -27.25 -43.8 -22.6 -31.65 -33.55 Q-36.8 -31.55 -40.75 -27.8 L-44.1 -24.65 Q-48.7 -20.05 -52.2 -14.4 L-54.35 -11.2 -53.6 -9.4 -44.2 -16.7 -41.75 -18.4 -34.15 -23.05 -32.75 -23.85 -28.9 -25.9 -32.15 -24.05 -43.75 -16.55 Q-48.8 -13.0 -53.2 -9.05 L-53.85 -8.35 -54.05 -7.8 -54.1 -7.7 -54.6 -5.25 -54.65 -2.55 Q-49.4 -8.35 -42.55 -12.15 L-37.4 -15.05 -32.2 -17.9 -26.85 -20.45 -20.15 -23.35 -13.05 -25.45 -7.65 -26.8 -2.25 -27.65 2.0 -27.6 -4.65 -26.9 -10.05 -25.8 -15.35 -24.35 -20.6 -22.6 -25.75 -20.35 -29.3 -18.65 -32.8 -16.85 -27.15 -18.8 -21.3 -20.4 -12.3 -22.4 -3.15 -23.4 3.55 -23.2 6.85 -22.9 13.4 -22.0 19.85 -20.65 25.45 -19.0 27.9 -18.3 30.35 -17.55 32.65 -16.85 16.0 -24.75 Q20.3 -23.2 24.55 -21.35 L33.2 -17.2 38.3 -14.45 43.35 -11.65 48.7 -8.2 51.1 -6.2 54.9 -2.45 55.0 -3.55 Q55.0 -5.25 54.45 -6.65 53.8 -8.25 52.4 -9.55 45.9 -15.8 38.2 -20.3 L29.95 -25.15 29.65 -25.35 28.75 -25.9 36.85 -21.4 38.0 -20.8 48.0 -13.75 48.35 -13.45 53.05 -9.45 54.3 -10.8 51.3 -16.0 Q49.75 -18.55 47.7 -20.95 L46.35 -22.4 Q42.0 -27.2 36.8 -30.45 L31.55 -33.55 43.55 -22.65 43.25 -22.85 Q37.9 -26.7 33.45 -31.5 L30.35 -34.85 Q32.7 -34.5 34.75 -33.1 L35.55 -32.5 40.3 -28.7 45.4 -23.75 50.1 -18.45 54.3 -12.85 55.65 -13.3 55.65 -13.35 56.2 -13.95 M43.55 -22.65 L43.65 -22.6 43.55 -22.65 M22.75 -50.85 L21.65 -51.3 Q33.0 -49.4 40.45 -40.6 L51.65 -27.35 Q55.85 -22.45 57.4 -16.2 L57.4 -15.2 Q57.05 -12.9 54.85 -11.5 L54.2 -8.95 54.8 -7.15 55.1 -6.0 Q55.5 -3.55 55.3 -1.2 56.9 2.1 57.9 5.9 59.45 12.25 60.1 18.65 60.65 24.55 59.7 30.15 L59.15 32.85 Q57.85 38.55 52.9 41.3 51.45 42.05 49.85 41.7 L46.35 42.6 43.85 43.3 Q39.3 43.6 34.75 42.3 L33.85 43.2 32.15 44.75 Q26.0 50.3 18.35 53.05 L14.25 54.35 14.1 54.4 Q6.65 56.3 -1.05 56.0 -10.25 55.45 -18.9 52.6 -28.1 49.7 -34.65 42.15 L-34.85 42.25 -36.2 42.6 -37.5 42.9 -44.55 43.25 -50.95 41.3 -53.5 40.85 Q-55.6 40.0 -57.1 38.2 -58.75 36.35 -59.2 33.9 -60.2 30.15 -60.3 26.25 -60.6 12.0 -55.45 -1.2 L-55.3 -2.25 -55.35 -4.6 Q-55.3 -6.1 -54.75 -7.55 L-54.45 -8.15 -54.3 -8.95 -55.0 -10.25 -54.95 -11.5 Q-57.3 -12.85 -57.55 -15.5 -57.8 -17.85 -56.4 -20.3 -52.1 -27.8 -46.35 -34.1 L-41.5 -39.55 Q-33.4 -48.95 -21.5 -51.4 L-22.9 -50.85 Q-13.95 -53.75 -4.65 -55.55 L-0.95 -56.05 Q11.25 -54.6 22.75 -50.85 M10.25 -10.95 L11.85 -11.25 13.6 -11.65 14.65 -11.85 Q21.4 -12.75 27.95 -9.75 32.9 -7.45 37.2 -4.45 L35.75 -6.95 Q32.2 -11.4 26.65 -12.8 21.1 -14.3 15.6 -13.5 L12.8 -12.85 11.35 -12.1 10.3 -11.15 10.2 -11.05 10.15 -10.95 10.25 -10.95 M15.55 -13.7 L17.75 -14.1 Q23.45 -14.65 28.85 -12.5 31.95 -11.3 34.7 -9.2 37.55 -7.1 37.4 -3.8 L27.8 -9.0 Q20.9 -12.65 14.05 -11.35 L11.45 -10.7 10.15 -10.25 8.8 -9.7 11.7 -13.0 15.55 -13.7 M-38.55 -12.6 Q-40.75 -4.15 -41.25 4.45 -41.6 10.7 -40.7 17.0 -40.15 21.45 -38.3 25.45 -37.1 28.1 -35.05 30.3 -31.7 33.75 -27.2 34.3 L-26.25 34.25 -27.7 36.45 -27.85 36.7 -28.15 37.1 -28.15 37.05 -29.7 38.55 -30.75 39.4 Q-32.45 40.65 -34.7 40.95 -32.4 43.95 -29.6 46.3 L-26.55 48.65 -24.95 49.7 -23.2 50.45 -19.55 51.8 -10.95 53.95 -2.35 55.25 -0.25 55.45 6.0 55.1 14.25 53.6 Q17.4 52.85 20.4 51.5 23.5 50.15 26.3 48.35 30.9 45.3 34.55 41.35 L33.15 40.65 Q30.45 39.6 28.5 37.45 L28.05 36.9 26.1 34.25 28.05 34.25 29.95 33.75 30.95 33.3 Q33.0 32.15 34.65 30.65 36.9 28.6 38.05 26.05 39.95 21.7 40.65 16.9 42.75 2.0 38.5 -12.45 L38.3 -13.1 38.2 -13.45 38.05 -14.05 Q32.75 -16.65 27.1 -18.4 21.55 -20.05 15.95 -21.0 7.9 -22.5 -0.1 -22.45 -8.5 -22.5 -16.65 -20.95 -25.05 -19.2 -33.25 -16.15 L-38.2 -14.05 -38.4 -13.15 -38.55 -12.6 M40.4 -12.65 L40.2 -12.8 40.35 -12.65 40.8 -12.35 38.6 -13.7 39.55 -10.75 39.7 -10.2 39.75 -10.2 42.15 3.2 42.2 3.7 Q42.85 10.35 41.65 17.0 40.75 21.75 38.55 26.05 35.85 31.15 30.85 33.85 L30.65 33.95 28.05 35.05 32.45 34.65 Q36.0 33.6 38.55 30.25 L38.65 30.1 39.8 28.45 39.9 28.3 Q42.15 24.8 43.3 20.9 L43.5 20.2 44.15 17.25 44.2 16.9 44.2 16.75 44.25 16.4 44.25 16.2 44.35 15.5 44.4 15.0 44.75 9.95 44.75 9.85 Q45.65 17.15 43.1 23.9 40.15 31.7 32.95 34.7 L30.65 35.55 28.35 35.5 27.9 35.3 27.6 35.2 Q29.4 38.7 33.5 38.8 37.65 39.0 41.05 36.6 44.15 34.4 45.95 30.8 L47.35 27.75 Q49.7 21.55 49.5 14.8 L49.15 9.15 49.7 11.95 49.7 12.15 50.05 15.9 50.05 16.0 50.05 16.1 50.05 17.55 48.05 27.85 Q46.3 32.7 42.75 35.95 L42.25 36.45 39.7 38.05 Q35.3 40.25 30.6 38.8 34.3 41.2 38.6 40.0 43.0 38.7 46.2 35.35 L47.25 34.35 48.8 32.3 49.7 30.75 Q51.5 27.45 52.1 23.75 L52.4 21.9 Q52.55 27.6 49.5 32.4 46.75 36.7 42.5 39.25 L36.45 42.0 44.5 42.35 Q49.15 41.5 52.3 37.55 55.0 34.05 55.7 29.75 56.75 24.4 56.2 18.9 L56.0 16.95 55.4 11.25 Q57.3 19.55 56.65 27.95 L56.45 29.6 55.2 33.25 Q53.45 37.6 50.35 41.05 53.9 41.25 55.95 38.25 58.45 34.5 59.2 29.9 60.55 23.95 59.65 18.0 59.75 24.0 58.7 29.75 L57.95 32.35 56.05 35.75 56.55 34.75 Q57.65 32.35 58.15 29.6 L58.7 25.5 58.8 24.4 Q59.25 17.4 58.05 10.45 57.3 5.7 55.75 1.2 L54.15 -1.75 53.85 -2.15 52.85 -3.25 52.6 -3.55 51.5 -4.55 51.35 -4.7 50.75 -5.25 50.45 -5.5 50.15 -5.75 49.85 -6.0 Q45.8 -9.5 41.25 -12.15 L40.8 -12.4 40.4 -12.65 M-39.65 -10.9 L-38.75 -13.7 -40.95 -12.35 -40.3 -12.8 Q-46.45 -9.65 -51.25 -4.8 L-52.2 -3.75 -53.85 -1.55 Q-57.5 4.8 -58.5 12.1 -59.55 19.9 -58.4 27.9 L-57.95 30.3 -57.1 33.3 -57.05 33.6 -56.25 35.6 -56.2 35.75 Q-58.65 32.05 -59.1 27.65 -59.7 22.8 -59.75 18.0 -60.45 23.95 -59.7 30.05 -59.45 32.1 -58.65 34.1 L-57.05 37.05 Q-55.9 39.0 -53.95 39.95 -52.5 40.7 -50.8 40.7 L-52.9 37.95 -53.45 37.15 -53.45 37.1 -54.2 35.75 Q-56.95 30.85 -56.95 25.25 -57.0 19.1 -55.95 13.2 L-55.95 13.1 -55.55 11.25 -56.0 14.4 -56.4 21.35 -56.4 21.55 -56.15 28.15 Q-55.95 31.05 -54.9 33.55 L-53.5 36.2 -53.1 36.8 -51.8 38.45 -51.6 38.65 -50.6 39.6 -49.25 40.55 Q-47.4 41.9 -45.2 42.4 L-40.95 42.8 Q-38.65 42.8 -36.45 42.0 L-37.45 41.75 -38.1 41.55 -38.05 41.55 Q-42.75 39.9 -46.4 36.3 -49.65 33.1 -51.2 28.9 -52.45 25.55 -52.55 21.9 -52.05 25.95 -50.3 29.75 -48.2 34.6 -44.3 37.75 -41.2 40.3 -37.15 40.55 L-36.45 40.55 -34.65 40.4 -33.75 40.2 -32.95 39.9 Q-31.9 39.5 -30.85 38.9 L-30.75 38.8 Q-32.75 39.6 -35.0 39.35 -42.85 37.95 -46.65 30.65 -49.45 25.3 -50.15 19.1 -50.65 14.25 -49.4 9.55 L-49.3 9.15 -49.4 10.15 Q-50.2 16.45 -48.9 22.15 -47.95 26.45 -45.75 30.35 L-44.3 32.85 -43.25 34.45 Q-40.35 38.45 -35.5 38.8 -32.9 39.1 -30.4 37.95 L-27.65 35.25 -28.65 34.85 -29.7 34.5 Q-36.45 31.5 -39.25 24.35 -41.7 18.25 -42.1 11.6 -42.6 3.8 -41.1 -3.9 L-39.65 -10.9 M-22.7 -10.85 L-25.85 -9.9 Q-29.25 -8.55 -32.5 -6.8 L-37.55 -3.8 Q-37.15 -8.1 -33.6 -10.25 -26.45 -14.45 -18.0 -14.25 L-15.75 -14.0 Q-13.4 -13.65 -11.35 -12.35 L-10.05 -11.05 -9.0 -9.65 -9.3 -9.75 -9.35 -9.8 -9.4 -9.8 Q-12.35 -11.65 -15.85 -11.85 -19.3 -11.95 -22.7 -10.85 M-37.3 -4.45 Q-28.55 -11.0 -18.05 -12.1 L-12.75 -11.65 -10.85 -11.1 Q-10.35 -11.55 -11.65 -12.4 -12.7 -13.1 -14.1 -13.05 L-15.75 -13.3 -18.0 -13.65 Q-26.7 -14.15 -34.05 -9.35 -36.75 -7.6 -37.3 -4.45 M-3.65 25.15 Q-2.6 26.6 -0.6 26.95 L2.6 27.5 Q0.25 29.2 -2.55 28.55 -6.15 27.5 -8.1 24.35 -5.3 20.0 -5.15 14.75 -5.05 11.05 -5.5 7.45 L-4.25 13.9 -4.1 15.8 Q-4.05 18.75 -4.4 21.75 L-4.45 22.25 -4.45 22.3 -4.45 22.4 -4.45 22.6 -4.45 22.65 -4.45 22.9 -4.45 22.95 -4.2 24.1 -3.65 25.15 M-33.3 34.3 Q-30.95 35.2 -28.05 35.05 L-28.25 35.25 Q-32.45 36.25 -35.95 33.35 -41.6 28.6 -43.65 21.4 -45.35 15.85 -44.95 9.85 L-44.95 12.15 -44.9 13.05 -44.7 15.0 -44.65 15.45 -43.95 18.95 Q-42.95 22.75 -41.0 26.3 L-38.75 29.85 -36.9 32.05 -36.15 32.7 -35.35 33.25 -33.3 34.3 M-13.15 26.55 L-12.65 26.3 Q-15.45 28.7 -16.9 32.2 -17.9 34.65 -18.55 37.4 L-18.7 38.0 -18.7 38.1 -19.15 46.9 -19.15 46.8 -19.45 44.3 -19.35 39.25 -19.25 38.6 -19.25 38.4 -19.1 37.6 Q-18.3 33.6 -16.8 30.45 -15.5 27.9 -13.15 26.55 M-15.8 32.4 L-15.75 32.35 -15.75 32.4 -15.8 32.4 M12.8 26.55 L12.5 26.3 12.9 26.5 12.95 26.55 13.4 26.85 Q16.05 28.7 17.2 32.05 20.85 39.1 18.95 46.9 L19.0 46.35 19.05 45.75 18.7 40.2 17.8 34.7 Q16.9 31.1 14.5 28.35 L12.8 26.55" fill="#000000" fill-rule="evenodd" stroke="none"/>
    <path d="M-37.85 -27.25 L-36.45 -28.45 -32.75 -32.2 -30.55 -34.9 -33.9 -33.3 Q-37.3 -31.6 -40.15 -29.15 -45.5 -24.65 -49.55 -19.15 -52.0 -15.9 -54.6 -12.75 L-55.2 -12.85 -56.3 -14.8 -56.8 -16.8 Q-56.9 -17.95 -56.25 -19.1 -53.7 -23.9 -50.25 -28.15 -42.45 -37.8 -32.6 -45.6 L-28.9 -47.7 -17.1 -51.55 Q-9.2 -53.6 -1.45 -54.55 1.75 -55.2 5.1 -54.45 L10.15 -53.3 22.65 -49.85 Q27.95 -48.55 32.5 -45.8 L36.05 -43.1 42.95 -36.05 50.3 -27.95 Q54.35 -23.2 56.5 -17.3 56.9 -16.15 56.5 -14.75 L56.2 -13.95 55.5 -14.2 Q53.75 -17.05 51.25 -19.45 L51.1 -19.6 Q48.3 -23.05 45.05 -25.85 L39.25 -30.2 35.55 -32.5 34.75 -33.1 Q32.7 -34.5 30.35 -34.85 L33.45 -31.5 Q37.9 -26.7 43.25 -22.85 L43.5 -22.65 43.55 -22.65 43.65 -22.6 43.55 -22.65 43.85 -22.65 45.6 -20.85 50.3 -14.55 32.25 -24.5 Q30.35 -25.55 28.25 -26.15 L29.65 -25.35 29.95 -25.15 38.2 -20.3 Q45.9 -15.8 52.4 -9.55 53.8 -8.25 54.45 -6.65 55.0 -5.25 55.0 -3.55 53.1 -6.85 49.95 -9.15 L46.35 -11.55 40.6 -15.1 36.1 -17.4 29.65 -20.35 24.3 -22.35 18.8 -24.3 16.2 -24.95 12.25 -25.75 17.0 -23.05 Q6.65 -24.7 -3.8 -24.55 L-10.1 -24.25 Q-2.5 -26.6 5.4 -27.1 L2.0 -27.6 -3.55 -27.8 -6.45 -27.6 -13.75 -26.3 -20.15 -24.4 -25.3 -22.65 -31.65 -19.95 Q-34.6 -18.6 -37.4 -17.05 L-41.6 -14.6 -47.1 -10.75 -48.9 -9.5 -54.1 -5.25 -54.6 -5.25 -54.1 -7.7 -54.05 -7.8 -53.85 -8.35 -53.2 -9.05 Q-48.8 -13.0 -43.75 -16.55 L-32.15 -24.05 -26.6 -26.9 Q-25.8 -27.45 -25.8 -28.0 -36.8 -24.7 -46.0 -17.2 L-48.85 -15.0 -37.85 -27.25 M55.65 -13.35 L55.65 -13.3 55.65 -13.35" fill="#eae0ca" fill-rule="evenodd" stroke="none"/>
    <path d="M56.2 -13.95 L55.65 -13.35 55.65 -13.3 54.3 -12.85 50.1 -18.45 45.4 -23.75 40.3 -28.7 35.55 -32.5 39.25 -30.2 45.05 -25.85 Q48.3 -23.05 51.1 -19.6 L51.25 -19.45 Q53.75 -17.05 55.5 -14.2 L56.2 -13.95 M43.25 -22.85 L43.55 -22.65 31.55 -33.55 36.8 -30.45 Q42.0 -27.2 46.35 -22.4 L47.7 -20.95 Q49.75 -18.55 51.3 -16.0 L54.3 -10.8 53.05 -9.45 48.35 -13.45 48.0 -13.75 38.0 -20.8 36.85 -21.4 28.75 -25.9 29.65 -25.35 28.25 -26.15 Q30.35 -25.55 32.25 -24.5 L50.3 -14.55 45.6 -20.85 43.85 -22.65 43.55 -22.65 43.5 -22.65 43.25 -22.85 M55.0 -3.55 L54.9 -2.45 51.1 -6.2 48.7 -8.2 43.35 -11.65 38.3 -14.45 33.2 -17.2 24.55 -21.35 Q20.3 -23.2 16.0 -24.75 L32.65 -16.85 30.35 -17.55 27.9 -18.3 25.45 -19.0 19.85 -20.65 13.4 -22.0 6.85 -22.9 3.55 -23.2 -3.15 -23.4 -12.3 -22.4 -21.3 -20.4 -27.15 -18.8 -32.8 -16.85 -29.3 -18.65 -25.75 -20.35 -20.6 -22.6 -15.35 -24.35 -10.05 -25.8 -4.65 -26.9 2.0 -27.6 -2.25 -27.65 -7.65 -26.8 -13.05 -25.45 -20.15 -23.35 -26.85 -20.45 -32.2 -17.9 -37.4 -15.05 -42.55 -12.15 Q-49.4 -8.35 -54.65 -2.55 L-54.6 -5.25 -54.1 -5.25 -48.9 -9.5 -47.1 -10.75 -41.6 -14.6 -37.4 -17.05 Q-34.6 -18.6 -31.65 -19.95 L-25.3 -22.65 -20.15 -24.4 -13.75 -26.3 -6.45 -27.6 -3.55 -27.8 2.0 -27.6 5.4 -27.1 Q-2.5 -26.6 -10.1 -24.25 L-3.8 -24.55 Q6.65 -24.7 17.0 -23.05 L12.25 -25.75 16.2 -24.95 18.8 -24.3 24.3 -22.35 29.65 -20.35 36.1 -17.4 40.6 -15.1 46.35 -11.55 49.95 -9.15 Q53.1 -6.85 55.0 -3.55 M-32.15 -24.05 L-28.9 -25.9 -32.75 -23.85 -34.15 -23.05 -41.75 -18.4 -44.2 -16.7 -53.6 -9.4 -54.35 -11.2 -52.2 -14.4 Q-48.7 -20.05 -44.1 -24.65 L-40.75 -27.8 Q-36.8 -31.55 -31.65 -33.55 L-43.8 -22.6 -37.85 -27.25 -48.85 -15.0 -46.0 -17.2 Q-36.8 -24.7 -25.8 -28.0 -25.8 -27.45 -26.6 -26.9 L-32.15 -24.05" fill="#bba786" fill-rule="evenodd" stroke="none"/>
    <path d="M15.55 -13.7 L11.7 -13.0 8.8 -9.7 10.15 -10.25 11.45 -10.7 14.05 -11.35 Q20.9 -12.65 27.8 -9.0 L37.4 -3.8 Q37.55 -7.1 34.7 -9.2 31.95 -11.3 28.85 -12.5 23.45 -14.65 17.75 -14.1 L15.55 -13.7 M-38.55 -12.6 L-35.05 -14.45 -31.25 -16.05 -27.4 -17.2 -22.75 -18.35 -18.55 -19.15 -14.45 -19.85 -10.5 -20.4 -5.7 -20.7 -5.6 -20.7 0.2 -20.8 0.45 -20.85 2.45 -20.85 14.1 -20.15 19.55 -19.3 23.75 -18.35 26.15 -17.65 27.7 -17.1 28.05 -16.95 30.85 -15.75 34.65 -14.2 37.85 -12.6 38.5 -12.45 Q42.75 2.0 40.65 16.9 39.95 21.7 38.05 26.05 36.9 28.6 34.65 30.65 33.0 32.15 30.95 33.3 L29.95 33.75 28.05 34.25 26.1 34.25 28.05 36.9 28.5 37.45 Q28.85 39.45 30.25 41.0 L30.95 41.85 Q28.9 44.95 25.85 46.8 L22.35 48.85 Q18.45 51.15 13.9 52.15 L5.75 53.2 -0.5 53.9 -7.25 53.2 Q-12.05 52.4 -16.7 51.05 L-18.5 50.35 -22.0 48.7 -25.1 46.8 Q-27.4 45.25 -29.35 43.15 L-30.55 41.7 Q-29.05 39.75 -28.35 37.45 L-28.15 37.1 -27.85 36.7 -27.7 36.45 -26.25 34.25 -27.2 34.3 Q-31.7 33.75 -35.05 30.3 -37.1 28.1 -38.3 25.45 -40.15 21.45 -40.7 17.0 -41.6 10.7 -41.25 4.45 -40.75 -4.15 -38.55 -12.6 M-9.3 -9.75 L-9.0 -9.65 -10.05 -11.05 -11.35 -12.35 Q-13.4 -13.65 -15.75 -14.0 L-18.0 -14.25 Q-26.45 -14.45 -33.6 -10.25 -37.15 -8.1 -37.55 -3.8 L-32.5 -6.8 Q-29.25 -8.55 -25.85 -9.9 L-22.7 -10.85 Q-19.1 -11.55 -15.75 -10.05 L-12.7 -8.35 Q-9.9 -6.35 -8.2 -3.4 L-7.15 -1.35 Q-7.55 -5.95 -9.3 -9.75 M-9.4 -9.8 L-9.35 -9.8 -9.4 -9.8 M-4.25 13.9 L-5.0 7.95 Q-5.45 5.0 -6.45 2.2 L-6.45 2.15 -6.5 2.2 -6.45 4.2 Q-6.1 7.7 -6.0 11.25 -5.95 13.45 -6.45 15.65 -7.3 19.65 -9.25 23.65 L-9.2 24.2 -7.85 25.7 Q-4.85 28.9 -0.7 29.3 3.7 29.5 7.15 26.6 L6.75 26.05 5.65 25.25 Q3.3 25.75 1.1 26.4 L-0.35 26.7 Q-2.2 26.4 -3.65 25.15 L-4.2 24.1 -4.45 22.95 -4.45 22.9 -4.45 22.65 -4.45 22.6 -4.45 22.4 -4.45 22.3 -4.45 22.25 -4.4 21.75 Q-4.05 18.75 -4.1 15.8 L-4.25 13.9 M-18.55 37.4 L-18.7 38.1 -18.7 38.0 -18.55 37.4 M-19.15 46.9 Q-18.45 47.3 -18.0 46.7 L-17.85 46.5 Q-18.35 43.45 -17.9 40.05 -17.4 35.45 -15.45 31.35 L-13.8 28.3 -12.6 26.5 -12.45 26.05 -12.35 25.9 -13.15 26.55 Q-15.5 27.9 -16.8 30.45 -18.3 33.6 -19.1 37.6 L-19.25 38.4 -19.25 38.6 -19.35 39.25 -19.45 44.3 -19.15 46.8 -19.15 46.9 M-15.8 32.4 L-15.75 32.4 -15.75 32.35 -15.8 32.4 M12.9 26.5 L12.5 26.3 12.8 26.55 12.9 27.15 Q15.15 29.5 16.45 32.8 L17.3 35.7 17.95 39.8 18.0 43.8 17.6 46.15 Q17.45 46.65 17.95 47.1 18.5 47.4 18.65 46.95 L19.05 45.75 19.0 46.35 18.95 46.9 Q20.85 39.1 17.2 32.05 16.05 28.7 13.4 26.85 L12.95 26.55 12.95 26.5 12.9 26.5" fill="#eed8cc" fill-rule="evenodd" stroke="none"/>
    <path d="M38.5 -12.45 L37.85 -12.6 34.65 -14.2 30.85 -15.75 28.05 -16.95 27.7 -17.1 26.15 -17.65 23.75 -18.35 19.55 -19.3 14.1 -20.15 2.45 -20.85 0.45 -20.85 0.2 -20.8 -5.6 -20.7 -5.7 -20.7 -10.5 -20.4 -14.45 -19.85 -18.55 -19.15 -22.75 -18.35 -27.4 -17.2 -31.25 -16.05 -35.05 -14.45 -38.55 -12.6 -38.4 -13.15 -38.2 -14.05 -33.25 -16.15 Q-25.05 -19.2 -16.65 -20.95 -8.5 -22.5 -0.1 -22.45 7.9 -22.5 15.95 -21.0 21.55 -20.05 27.1 -18.4 32.75 -16.65 38.05 -14.05 L38.2 -13.45 38.3 -13.1 38.5 -12.45 M-28.15 37.1 L-28.35 37.45 Q-29.05 39.75 -30.55 41.7 L-29.35 43.15 Q-27.4 45.25 -25.1 46.8 L-22.0 48.7 -18.5 50.35 -16.7 51.05 Q-12.05 52.4 -7.25 53.2 L-0.5 53.9 5.75 53.2 13.9 52.15 Q18.45 51.15 22.35 48.85 L25.85 46.8 Q28.9 44.95 30.95 41.85 L30.25 41.0 Q28.85 39.45 28.5 37.45 30.45 39.6 33.15 40.65 L34.55 41.35 Q30.9 45.3 26.3 48.35 23.5 50.15 20.4 51.5 17.4 52.85 14.25 53.6 L6.0 55.1 -0.25 55.45 -2.35 55.25 -10.95 53.95 -19.55 51.8 -23.2 50.45 -24.95 49.7 -26.55 48.65 -29.6 46.3 Q-32.4 43.95 -34.7 40.95 -32.45 40.65 -30.75 39.4 L-29.7 38.55 -28.15 37.05 -28.15 37.1 M-9.3 -9.75 Q-7.55 -5.95 -7.15 -1.35 L-8.2 -3.4 Q-9.9 -6.35 -12.7 -8.35 L-15.75 -10.05 Q-19.1 -11.55 -22.7 -10.85 -19.3 -11.95 -15.85 -11.85 -12.35 -11.65 -9.4 -9.8 L-9.35 -9.8 -9.3 -9.75 M-3.65 25.15 Q-2.2 26.4 -0.35 26.7 L1.1 26.4 Q3.3 25.75 5.65 25.25 L6.75 26.05 7.15 26.6 Q3.7 29.5 -0.7 29.3 -4.85 28.9 -7.85 25.7 L-9.2 24.2 -9.25 23.65 Q-7.3 19.65 -6.45 15.65 -5.95 13.45 -6.0 11.25 -6.1 7.7 -6.45 4.2 L-6.5 2.2 -6.45 2.15 -6.45 2.2 Q-5.45 5.0 -5.0 7.95 L-4.25 13.9 -5.5 7.45 Q-5.05 11.05 -5.15 14.75 -5.3 20.0 -8.1 24.35 -6.15 27.5 -2.55 28.55 0.25 29.2 2.6 27.5 L-0.6 26.95 Q-2.6 26.6 -3.65 25.15 M-18.55 37.4 Q-17.9 34.65 -16.9 32.2 -15.45 28.7 -12.65 26.3 L-13.15 26.55 -12.35 25.9 -12.45 26.05 -12.6 26.5 -13.8 28.3 -15.45 31.35 Q-17.4 35.45 -17.9 40.05 -18.35 43.45 -17.85 46.5 L-18.0 46.7 Q-18.45 47.3 -19.15 46.9 L-18.7 38.1 -18.55 37.4 M12.8 26.55 L14.5 28.35 Q16.9 31.1 17.8 34.7 L18.7 40.2 19.05 45.75 18.65 46.95 Q18.5 47.4 17.95 47.1 17.45 46.65 17.6 46.15 L18.0 43.8 17.95 39.8 17.3 35.7 16.45 32.8 Q15.15 29.5 12.9 27.15 L12.8 26.55 M12.95 26.55 L12.9 26.5 12.95 26.5 12.95 26.55" fill="#dab7a5" fill-rule="evenodd" stroke="none"/>
    <path d="M10.2 -11.05 L10.3 -11.15 11.35 -12.1 12.8 -12.85 15.6 -13.5 Q21.1 -14.3 26.65 -12.8 32.2 -11.4 35.75 -6.95 L37.2 -4.45 Q32.9 -7.45 27.95 -9.75 21.4 -12.75 14.65 -11.85 L13.6 -11.65 11.85 -11.25 10.25 -10.95 10.2 -11.05 M40.35 -12.65 L40.4 -12.65 40.8 -12.4 41.25 -12.15 Q45.8 -9.5 49.85 -6.0 L50.15 -5.75 50.45 -5.5 50.75 -5.25 51.35 -4.7 51.5 -4.55 52.6 -3.55 52.85 -3.25 53.85 -2.15 54.15 -1.75 55.75 1.2 50.2 -3.9 52.8 8.7 48.9 -4.9 45.95 -6.7 47.1 -2.25 46.9 -1.9 47.2 -0.05 46.3 -2.45 Q48.65 4.9 47.65 11.05 L47.2 6.9 Q46.1 -0.9 42.85 -8.3 L39.75 -10.2 39.7 -10.2 39.55 -10.75 38.6 -13.7 40.8 -12.35 40.35 -12.65 M58.8 24.4 L58.7 25.5 58.15 29.6 Q57.65 32.35 56.55 34.75 L56.05 35.75 57.95 32.35 58.7 29.75 Q59.75 24.0 59.65 18.0 60.55 23.95 59.2 29.9 58.45 34.5 55.95 38.25 53.9 41.25 50.35 41.05 53.45 37.6 55.2 33.25 L56.45 29.6 56.65 27.95 Q57.3 19.55 55.4 11.25 L56.0 16.95 56.2 18.9 Q56.75 24.4 55.7 29.75 55.0 34.05 52.3 37.55 49.15 41.5 44.5 42.35 L36.45 42.0 42.5 39.25 42.2 39.55 Q45.25 39.95 47.9 38.35 49.5 37.45 50.75 35.9 54.0 31.7 54.75 26.45 55.35 22.4 55.45 18.25 55.5 11.7 53.75 5.35 L55.75 12.05 Q58.55 21.8 56.7 31.9 L58.8 24.4 M49.7 30.75 L48.8 32.3 47.25 34.35 46.2 35.35 Q43.0 38.7 38.6 40.0 34.3 41.2 30.6 38.8 35.3 40.25 39.7 38.05 L42.25 36.45 42.75 35.95 Q46.3 32.7 48.05 27.85 L50.05 17.55 50.05 16.1 50.05 16.0 50.05 15.9 49.7 12.15 49.7 11.95 48.55 0.55 49.2 2.9 48.8 -0.1 49.75 3.5 Q51.45 10.3 51.9 17.05 52.4 24.1 49.7 30.75 M47.35 27.75 L45.95 30.8 Q44.15 34.4 41.05 36.6 37.65 39.0 33.5 38.8 29.4 38.7 27.6 35.2 L27.9 35.3 28.35 35.5 30.65 35.55 Q33.4 36.9 36.3 36.6 38.55 36.75 40.35 35.6 44.8 32.7 47.35 27.75 M44.75 9.85 L44.75 9.95 44.4 15.0 44.35 15.5 44.25 16.2 44.25 16.4 44.2 16.75 44.2 16.9 44.15 17.25 43.5 20.2 43.3 20.9 Q42.15 24.8 39.9 28.3 L39.8 28.45 38.65 30.1 38.55 30.25 Q36.0 33.6 32.45 34.65 L28.05 35.05 30.65 33.95 30.85 33.85 Q34.85 32.3 37.7 29.0 42.9 23.0 43.75 14.85 44.3 8.75 44.3 2.6 L44.75 9.85 M-53.85 -1.55 L-52.2 -3.75 -51.25 -4.8 Q-46.45 -9.65 -40.3 -12.8 L-40.95 -12.35 -38.75 -13.7 -39.65 -10.9 -42.7 -9.0 -45.35 5.8 -44.45 -7.9 -46.85 -6.6 Q-50.6 -4.45 -53.85 -1.55 M-29.7 34.5 L-28.65 34.85 -27.65 35.25 -28.25 35.25 -28.05 35.05 Q-30.95 35.2 -33.3 34.3 -34.75 33.7 -36.1 32.65 L-36.9 32.05 -38.75 29.85 -41.0 26.3 Q-42.95 22.75 -43.95 18.95 L-44.65 15.45 -44.7 15.0 -44.9 13.05 -44.95 12.15 -44.55 7.2 -43.9 14.55 Q-43.3 21.1 -40.3 26.65 -36.75 33.25 -29.7 34.5 M-30.4 37.95 Q-32.9 39.1 -35.5 38.8 -40.35 38.45 -43.25 34.45 L-44.3 32.85 -43.1 33.95 Q-37.7 39.1 -30.4 37.95 M-48.9 22.15 Q-50.2 16.45 -49.4 10.15 -49.65 16.15 -48.9 22.15 M-49.4 9.55 Q-50.65 14.25 -50.15 19.1 -49.45 25.3 -46.65 30.65 -42.85 37.95 -35.0 39.35 -32.75 39.6 -30.75 38.8 L-30.85 38.9 Q-31.9 39.5 -32.95 39.9 L-33.75 40.2 -34.65 40.4 -36.45 40.55 -37.15 40.55 Q-41.2 40.3 -44.3 37.75 -48.2 34.6 -50.3 29.75 -52.05 25.95 -52.55 21.9 -52.45 25.55 -51.2 28.9 -49.65 33.1 -46.4 36.3 -42.75 39.9 -38.05 41.55 L-38.1 41.55 -37.45 41.75 -36.45 42.0 Q-38.65 42.8 -40.95 42.8 L-45.2 42.4 Q-47.4 41.9 -49.25 40.55 L-50.6 39.6 -51.6 38.65 -51.8 38.45 -53.1 36.8 -53.5 36.2 -54.9 33.55 Q-55.95 31.05 -56.15 28.15 L-56.4 21.55 -56.4 21.35 -56.0 14.4 -55.95 16.15 Q-55.8 25.7 -50.9 33.9 -49.1 36.95 -46.0 38.5 -50.65 33.3 -52.65 26.35 -53.75 22.45 -53.65 18.25 L-53.3 9.55 Q-52.95 4.7 -51.35 0.3 L-51.4 1.0 Q-51.95 6.25 -52.8 11.45 L-52.9 12.5 -52.9 17.4 Q-52.7 24.7 -49.15 30.8 -46.95 34.6 -43.1 36.25 -48.0 32.2 -49.55 25.85 -51.3 18.65 -50.65 11.25 L-50.25 7.7 Q-49.55 2.55 -48.4 -2.55 L-48.55 0.0 -49.2 6.35 -49.4 9.55 M-55.95 13.1 L-55.95 13.2 Q-57.0 19.1 -56.95 25.25 -56.95 30.85 -54.2 35.75 L-53.45 37.1 -53.45 37.15 -52.9 37.95 -50.8 40.7 Q-52.5 40.7 -53.95 39.95 -55.9 39.0 -57.05 37.05 L-58.65 34.1 Q-59.45 32.1 -59.7 30.05 -60.45 23.95 -59.75 18.0 -59.7 22.8 -59.1 27.65 -58.65 32.05 -56.2 35.75 L-56.25 35.6 -57.05 33.6 -57.1 33.3 -57.95 30.3 -57.7 30.9 Q-59.5 15.5 -54.15 1.2 L-55.95 13.1 M-37.3 -4.45 Q-36.75 -7.6 -34.05 -9.35 -26.7 -14.15 -18.0 -13.65 L-15.75 -13.3 -14.1 -13.05 Q-12.7 -13.1 -11.65 -12.4 -10.35 -11.55 -10.85 -11.1 L-12.75 -11.65 -18.05 -12.1 Q-28.55 -11.0 -37.3 -4.45" fill="#776851" fill-rule="evenodd" stroke="none"/>
    <path d="M55.75 1.2 Q57.3 5.7 58.05 10.45 59.25 17.4 58.8 24.4 L56.7 31.9 Q58.55 21.8 55.75 12.05 L53.75 5.35 Q55.5 11.7 55.45 18.25 55.35 22.4 54.75 26.45 54.0 31.7 50.75 35.9 49.5 37.45 47.9 38.35 45.25 39.95 42.2 39.55 L42.5 39.25 Q46.75 36.7 49.5 32.4 52.55 27.6 52.4 21.9 L52.1 23.75 Q51.5 27.45 49.7 30.75 52.4 24.1 51.9 17.05 51.45 10.3 49.75 3.5 L48.8 -0.1 49.2 2.9 48.55 0.55 49.7 11.95 49.15 9.15 49.5 14.8 Q49.7 21.55 47.35 27.75 44.8 32.7 40.35 35.6 38.55 36.75 36.3 36.6 33.4 36.9 30.65 35.55 L32.95 34.7 Q40.15 31.7 43.1 23.9 45.65 17.15 44.75 9.85 L44.3 2.6 Q44.3 8.75 43.75 14.85 42.9 23.0 37.7 29.0 34.85 32.3 30.85 33.85 35.85 31.15 38.55 26.05 40.75 21.75 41.65 17.0 42.85 10.35 42.2 3.7 L42.15 3.2 39.75 -10.2 42.85 -8.3 Q46.1 -0.9 47.2 6.9 L47.65 11.05 Q48.65 4.9 46.3 -2.45 L47.2 -0.05 46.9 -1.9 47.1 -2.25 45.95 -6.7 48.9 -4.9 52.8 8.7 50.2 -3.9 55.75 1.2 M-39.65 -10.9 L-41.1 -3.9 Q-42.6 3.8 -42.1 11.6 -41.7 18.25 -39.25 24.35 -36.45 31.5 -29.7 34.5 -36.75 33.25 -40.3 26.65 -43.3 21.1 -43.9 14.55 L-44.55 7.2 -44.95 12.15 -44.95 9.85 Q-45.35 15.85 -43.65 21.4 -41.6 28.6 -35.95 33.35 -32.45 36.25 -28.25 35.25 L-27.65 35.25 -30.4 37.95 Q-37.7 39.1 -43.1 33.95 L-44.3 32.85 -45.75 30.35 Q-47.95 26.45 -48.9 22.15 -49.65 16.15 -49.4 10.15 L-49.3 9.15 -49.4 9.55 -49.2 6.35 -48.55 0.0 -48.4 -2.55 Q-49.55 2.55 -50.25 7.7 L-50.65 11.25 Q-51.3 18.65 -49.55 25.85 -48.0 32.2 -43.1 36.25 -46.95 34.6 -49.15 30.8 -52.7 24.7 -52.9 17.4 L-52.9 12.5 -52.8 11.45 Q-51.95 6.25 -51.4 1.0 L-51.35 0.3 Q-52.95 4.7 -53.3 9.55 L-53.65 18.25 Q-53.75 22.45 -52.65 26.35 -50.65 33.3 -46.0 38.5 -49.1 36.95 -50.9 33.9 -55.8 25.7 -55.95 16.15 L-56.0 14.4 -55.55 11.25 -55.95 13.1 -54.15 1.2 Q-59.5 15.5 -57.7 30.9 L-57.95 30.3 -58.4 27.9 Q-59.55 19.9 -58.5 12.1 -57.5 4.8 -53.85 -1.55 -50.6 -4.45 -46.85 -6.6 L-44.45 -7.9 -45.35 5.8 -42.7 -9.0 -39.65 -10.9 M-36.9 32.05 L-36.1 32.65 Q-34.75 33.7 -33.3 34.3 L-35.35 33.25 -36.15 32.7 -36.9 32.05" fill="#b5a793" fill-rule="evenodd" stroke="none"/>
    <path d="M41.2 13.55 L41.1 14.25 Q39.35 14.9 37.35 15.0 L35.1 14.85 38.8 14.45 41.2 13.55 M40.7 18.15 L40.5 18.75 Q36.95 18.5 33.8 16.75 33.55 16.45 34.05 16.5 L38.1 17.75 40.7 18.15 M20.0 17.85 Q16.8 16.9 14.6 14.4 12.35 11.9 11.9 8.8 L11.85 8.55 Q11.8 7.85 12.3 8.6 L13.05 9.85 Q13.7 11.3 14.65 12.6 L16.8 15.1 20.0 17.85 M-38.1 17.75 L-34.05 16.5 Q-33.55 16.45 -33.8 16.75 -36.95 18.45 -40.4 18.75 L-40.45 18.7 -40.55 18.15 -38.1 17.75 M-38.8 14.45 L-35.1 14.85 -37.35 15.0 Q-39.3 14.9 -41.0 14.25 L-41.05 13.6 -38.8 14.45 M-16.8 15.1 L-14.65 12.6 Q-13.7 11.3 -13.05 9.85 L-12.3 8.6 Q-11.8 7.85 -11.85 8.55 L-11.9 8.8 Q-12.35 11.9 -14.6 14.4 -16.8 16.9 -20.0 17.85 L-16.8 15.1" fill="#75614d" fill-rule="evenodd" stroke="none"/>
  </g>
</svg>
