<?xml version="1.0" encoding="UTF-8" standalone="no"?>
<svg xmlns:ffdec="https://www.free-decompiler.com/flash" xmlns:xlink="http://www.w3.org/1999/xlink" ffdec:objectType="shape" height="8.85px" width="27.0px" xmlns="http://www.w3.org/2000/svg">
  <g transform="matrix(1.0, 0.0, 0.0, 1.0, 13.5, 4.4)">
    <path d="M11.45 -2.9 Q11.4 -3.3 11.65 -3.65 L12.3 -4.05 12.55 -4.05 Q13.05 -3.95 13.3 -3.55 13.6 -3.05 13.5 -2.45 L13.2 -2.05 12.6 -1.9 Q11.9 -1.95 11.6 -2.55 12.15 -2.7 12.7 -2.95 L12.65 -3.05 12.35 -3.0 11.8 -2.95 11.45 -2.9 M-11.6 -2.25 L-11.75 -2.1 Q-12.0 -1.8 -12.35 -1.75 -13.1 -1.75 -13.4 -2.4 -13.6 -2.85 -13.45 -3.25 -13.3 -3.9 -12.55 -3.9 L-12.45 -3.9 Q-11.6 -3.6 -11.55 -2.7 L-11.65 -2.7 -13.0 -3.0 -12.8 -2.8 -12.2 -2.45 -11.6 -2.25 M-8.95 -2.65 Q-8.25 -3.2 -7.35 -3.4 L-7.05 -3.5 -5.7 -4.05 -3.7 -4.4 -1.8 -4.15 -1.1 -4.05 0.95 -3.95 2.25 -4.1 3.75 -4.3 4.75 -4.3 6.55 -3.7 Q7.3 -3.25 8.15 -3.0 L6.75 -3.1 6.65 -3.1 4.7 -2.9 3.15 -2.55 2.15 -2.4 1.1 -2.25 0.55 -2.2 -1.1 -2.2 -1.95 -2.3 -2.35 -2.35 -2.9 -2.5 -3.7 -2.65 -3.8 -2.7 -4.45 -2.85 -5.7 -2.95 -6.5 -2.9 -6.55 -2.9 -8.1 -2.75 -9.0 -2.6 -8.95 -2.65 M1.55 2.35 Q1.95 2.7 1.9 3.25 L1.2 4.15 -0.85 4.4 Q-1.6 4.2 -2.0 3.65 -2.4 3.2 -2.05 2.7 -1.4 1.85 -0.3 1.75 0.75 1.65 1.55 2.35" fill="#dab7a5" fill-rule="evenodd" stroke="none"/>
    <path d="M11.45 -2.9 L11.8 -2.95 12.35 -3.0 12.65 -3.05 12.7 -2.95 Q12.15 -2.7 11.6 -2.55 L9.4 -2.45 8.55 -2.55 8.2 -2.6 6.35 -2.8 5.75 -2.8 4.55 -2.55 Q3.1 -2.0 1.55 -1.85 L-1.55 -1.9 -2.75 -2.1 -4.0 -2.4 Q-5.45 -2.8 -6.9 -2.4 L-9.85 -2.15 -10.55 -2.15 -11.6 -2.25 -12.2 -2.45 -12.8 -2.8 -13.0 -3.0 -11.65 -2.7 -11.55 -2.7 -11.25 -2.65 -9.05 -2.6 -8.95 -2.65 -9.0 -2.6 -8.1 -2.75 -6.55 -2.9 -6.5 -2.9 -5.7 -2.95 -4.45 -2.85 -3.8 -2.7 -3.7 -2.65 -2.9 -2.5 -2.35 -2.35 -1.95 -2.3 -1.1 -2.2 0.55 -2.2 1.1 -2.25 2.15 -2.4 3.15 -2.55 4.7 -2.9 6.65 -3.1 6.75 -3.1 8.15 -3.0 8.25 -2.95 9.05 -2.85 11.45 -2.9" fill="#000000" fill-rule="evenodd" stroke="none"/>
  </g>
</svg>
