<?xml version="1.0" encoding="UTF-8" standalone="no"?>
<svg xmlns:ffdec="https://www.free-decompiler.com/flash" xmlns:xlink="http://www.w3.org/1999/xlink" ffdec:objectType="shape" height="12.45px" width="16.0px" xmlns="http://www.w3.org/2000/svg">
  <g transform="matrix(1.0, 0.0, 0.0, 1.0, 10.05, 10.55)">
    <path d="M5.85 -7.25 L5.95 -6.05 5.9 -5.7 5.75 -5.25 5.45 -4.75 5.35 -4.5 4.4 -3.4 2.75 -1.5 2.6 -1.3 2.2 -0.8 2.0 -0.25 1.75 0.45 1.55 0.85 0.9 1.65 0.35 1.9 -0.1 1.9 -0.6 1.8 -1.2 1.65 -1.5 1.6 -1.95 1.05 -3.3 0.0 -4.25 -0.55 Q-5.6 -1.25 -7.05 -1.55 L-8.4 -1.7 -8.4 -1.65 -9.0 -2.0 -9.3 -3.95 -9.5 -4.7 -9.65 -5.1 -9.75 -5.2 Q-10.15 -5.8 -10.05 -6.5 L-9.9 -6.85 -8.45 -6.5 -7.8 -6.5 -6.0 -6.6 -1.8 -7.1 Q1.2 -7.65 3.7 -9.3 L3.95 -9.55 4.85 -10.55 5.05 -10.2 5.35 -9.0 5.85 -7.25 M5.6 -5.7 L5.2 -5.15 4.75 -4.6 5.6 -5.85 5.75 -6.0 5.6 -7.1 5.55 -7.35 5.2 -8.65 5.05 -8.8 4.85 -8.6 4.55 -8.3 4.15 -7.95 Q3.05 -6.95 1.4 -6.45 L1.5 -5.9 1.55 -4.85 Q1.5 -4.0 1.6 -3.2 L1.55 -3.1 1.4 -2.65 1.65 -2.35 1.9 -1.9 1.95 -1.6 2.0 -1.5 2.05 -1.55 3.05 -2.7 3.3 -3.0 4.3 -4.1 4.55 -4.3 3.0 -2.4 2.05 -1.3 2.05 -1.1 2.2 -1.1 3.1 -2.3 4.15 -3.45 5.1 -4.55 5.7 -5.65 5.75 -5.8 5.75 -5.85 5.7 -5.8 5.6 -5.7 M0.1 -2.8 L0.3 -2.85 1.25 -2.7 1.25 -2.75 1.3 -2.9 1.45 -5.6 1.45 -5.85 1.3 -6.4 0.95 -6.3 Q2.55 -6.95 4.15 -8.05 L4.25 -8.15 4.9 -8.85 4.95 -9.1 5.0 -9.15 4.65 -10.15 3.9 -9.2 Q1.6 -7.6 -1.1 -6.95 -3.6 -6.3 -6.05 -6.35 L-6.1 -6.35 -7.85 -6.25 -8.4 -6.25 -8.95 -6.35 -9.65 -6.5 -9.7 -6.45 Q-9.7 -5.85 -9.35 -5.4 L-9.3 -5.35 -9.05 -5.3 -7.35 -5.25 -6.9 -5.3 -5.85 -5.35 -3.8 -5.45 -5.75 -5.15 -6.25 -5.1 -8.0 -5.1 -8.2 -5.1 -8.25 -5.1 -9.3 -5.2 -9.35 -5.1 -9.35 -5.0 -8.85 -2.3 -8.85 -2.15 -8.8 -2.05 -8.25 -1.95 -6.7 -1.7 -5.0 -1.15 -3.1 -0.25 -2.0 0.8 -1.85 1.0 -1.75 1.2 -1.6 1.25 -1.55 1.2 -1.5 1.05 -1.6 0.9 -1.75 0.5 -1.8 0.2 -1.75 -0.4 -1.4 -1.45 -0.55 -2.45 -0.35 -2.55 -0.15 -2.65 -0.35 -5.35 -0.45 -5.85 -0.3 -5.9 0.0 -2.8 0.0 -2.75 0.1 -2.8 M-8.2 -4.9 L-7.7 -2.6 -7.7 -2.35 -6.85 -2.25 -6.3 -2.1 -5.9 -1.95 -6.7 -2.15 -8.6 -2.4 -8.0 -2.4 -7.95 -2.45 -7.9 -2.75 -8.3 -4.9 -8.25 -5.0 -8.2 -4.9 M1.9 -0.85 L1.9 -1.05 1.8 -1.9 Q1.6 -2.5 1.0 -2.65 L-0.25 -2.4 -1.05 -1.75 -1.55 -0.7 -1.65 -0.15 -1.65 0.3 -1.5 0.45 -1.35 0.95 -1.35 1.0 -0.55 1.45 -0.2 1.55 Q0.5 1.5 1.0 1.05 L1.4 0.5 1.55 0.25 1.9 -0.85 M1.05 -0.4 L1.05 -0.6 1.05 -1.15 Q0.9 -1.7 0.35 -1.65 L0.15 -1.5 Q0.0 -0.8 0.45 -0.25 L0.6 -0.2 1.1 -0.35 1.05 -0.4 M0.3 -2.15 L0.45 -2.25 1.05 -2.35 1.2 -2.2 1.6 -1.4 1.45 -0.4 1.15 0.0 0.45 0.1 0.3 0.0 Q-0.25 -0.65 -0.15 -1.45 L0.3 -2.15 M-2.55 -0.2 L-3.25 -0.75 -3.75 -1.0 -5.2 -1.7 -3.5 -1.0 Q-2.4 -0.5 -1.75 0.5 L-2.55 -0.2" fill="#313566" fill-rule="evenodd" stroke="none"/>
    <path d="M1.95 -1.6 L2.05 -1.55 2.0 -1.5 1.95 -1.6 M3.0 -2.4 L3.1 -2.3 2.2 -1.1 2.05 -1.1 2.05 -1.3 3.0 -2.4 M5.7 -5.65 L5.6 -5.7 5.7 -5.8 5.75 -5.85 5.75 -5.8 5.7 -5.65 M0.1 -2.8 L0.0 -2.75 0.0 -2.8 0.1 -2.8 M-8.25 -5.1 L-8.2 -5.1 -8.2 -4.9 -8.25 -5.0 -8.25 -5.1" fill="#8d9bc7" fill-rule="evenodd" stroke="none"/>
    <path d="M1.95 -1.6 L1.9 -1.9 1.65 -2.35 1.4 -2.65 1.55 -3.1 1.6 -3.2 Q1.5 -4.0 1.55 -4.85 L1.5 -5.9 1.4 -6.45 Q3.05 -6.95 4.15 -7.95 L4.55 -8.3 4.85 -8.6 5.05 -8.8 5.2 -8.65 5.55 -7.35 5.6 -7.1 5.75 -6.0 5.6 -5.85 4.75 -4.6 5.2 -5.15 5.6 -5.7 5.7 -5.65 5.1 -4.55 4.15 -3.45 3.1 -2.3 3.0 -2.4 4.55 -4.3 4.3 -4.1 3.3 -3.0 3.05 -2.7 2.05 -1.55 1.95 -1.6 M-8.2 -5.1 L-8.0 -5.1 -6.25 -5.1 -5.75 -5.15 -3.8 -5.45 -5.85 -5.35 -6.9 -5.3 -7.35 -5.25 -9.05 -5.3 -9.3 -5.35 -9.35 -5.4 Q-9.7 -5.85 -9.7 -6.45 L-9.65 -6.5 -8.95 -6.35 -8.4 -6.25 -7.85 -6.25 -6.1 -6.35 -6.05 -6.35 Q-3.6 -6.3 -1.1 -6.95 1.6 -7.6 3.9 -9.2 L4.65 -10.15 5.0 -9.15 4.95 -9.1 4.9 -8.85 4.25 -8.15 4.15 -8.05 Q2.55 -6.95 0.95 -6.3 L1.3 -6.4 1.45 -5.85 1.45 -5.6 1.3 -2.9 1.25 -2.75 1.25 -2.7 0.3 -2.85 0.1 -2.8 0.0 -2.8 -0.3 -5.9 -0.45 -5.85 -0.35 -5.35 -0.15 -2.65 -0.35 -2.55 -0.55 -2.45 -1.4 -1.45 -1.75 -0.4 -1.8 0.2 -1.75 0.5 -1.6 0.9 -1.5 1.05 -1.55 1.2 -1.6 1.25 -1.75 1.2 -1.85 1.0 -2.0 0.8 -3.1 -0.25 -5.0 -1.15 -6.7 -1.7 -8.25 -1.95 -8.8 -2.05 -8.85 -2.15 -8.85 -2.3 -9.35 -5.0 -9.35 -5.1 -9.3 -5.2 -8.25 -5.1 -8.25 -5.0 -8.3 -4.9 -7.9 -2.75 -7.95 -2.45 -8.0 -2.4 -8.6 -2.4 -6.7 -2.15 -5.9 -1.95 -6.3 -2.1 -6.85 -2.25 -7.7 -2.35 -7.7 -2.6 -8.2 -4.9 -8.2 -5.1 M2.75 -3.45 L4.15 -5.65 4.75 -7.7 1.75 -4.55 4.1 -6.75 3.8 -6.1 3.5 -5.9 2.1 -2.8 3.65 -4.0 2.75 -3.45 M-5.9 -4.1 L-5.85 -4.1 -0.55 -3.65 Q-0.85 -4.15 -1.8 -4.0 L-5.65 -4.35 Q-6.4 -4.45 -5.9 -4.1 M-7.3 -3.5 L-1.0 -2.25 Q-1.2 -2.7 -2.15 -2.8 L-3.55 -3.2 -5.7 -3.65 -6.6 -3.7 -7.3 -3.5 M-2.55 -0.2 L-1.75 0.5 Q-2.4 -0.5 -3.5 -1.0 L-5.2 -1.7 -3.75 -1.0 -3.25 -0.75 -2.55 -0.2" fill="#c1c7e1" fill-rule="evenodd" stroke="none"/>
    <path d="M2.75 -3.45 L3.65 -4.0 2.1 -2.8 3.5 -5.9 3.8 -6.1 4.1 -6.75 1.75 -4.55 4.75 -7.7 4.15 -5.65 2.75 -3.45 M0.3 -2.15 L-0.15 -1.45 Q-0.25 -0.65 0.3 0.0 L0.45 0.1 1.15 0.0 1.45 -0.4 1.6 -1.4 1.2 -2.2 1.05 -2.35 0.45 -2.25 0.3 -2.15 M1.05 -0.4 L1.1 -0.35 0.6 -0.2 0.45 -0.25 Q0.0 -0.8 0.15 -1.5 L0.35 -1.65 Q0.9 -1.7 1.05 -1.15 L1.05 -0.6 1.05 -0.4 M1.9 -0.85 L1.55 0.25 1.4 0.5 1.0 1.05 Q0.5 1.5 -0.2 1.55 L-0.55 1.45 -1.35 1.0 -1.35 0.95 -1.5 0.45 -1.65 0.3 -1.65 -0.15 -1.55 -0.7 -1.05 -1.75 -0.25 -2.4 1.0 -2.65 Q1.6 -2.5 1.8 -1.9 L1.9 -1.05 1.9 -0.85 M-7.3 -3.5 L-6.6 -3.7 -5.7 -3.65 -3.55 -3.2 -2.15 -2.8 Q-1.2 -2.7 -1.0 -2.25 L-7.3 -3.5 M-5.9 -4.1 Q-6.4 -4.45 -5.65 -4.35 L-1.8 -4.0 Q-0.85 -4.15 -0.55 -3.65 L-5.85 -4.1 -5.9 -4.1" fill="#8993c5" fill-rule="evenodd" stroke="none"/>
  </g>
</svg>
