<?xml version="1.0" encoding="UTF-8" standalone="no"?>
<svg xmlns:ffdec="https://www.free-decompiler.com/flash" xmlns:xlink="http://www.w3.org/1999/xlink" ffdec:objectType="shape" height="20.55px" width="74.5px" xmlns="http://www.w3.org/2000/svg">
  <g transform="matrix(1.0, 0.0, 0.0, 1.0, 37.25, 11.1)">
    <path d="M14.9 -8.1 L14.6 -8.05 Q13.65 -8.25 14.05 -9.15 L14.35 -10.0 Q19.95 -10.85 25.1 -9.15 L27.8 -8.15 Q31.05 -6.9 33.3 -4.3 L35.25 -1.35 Q36.05 0.3 36.5 2.1 L36.65 2.95 Q36.55 4.45 35.5 5.3 L34.8 5.85 33.9 5.45 Q34.7 4.2 34.6 2.75 34.35 -0.15 32.35 -2.25 L32.2 -0.7 Q31.95 1.35 30.95 3.2 29.6 5.65 27.35 7.25 27.0 7.45 27.2 7.7 L28.85 8.35 31.5 8.15 31.1 8.9 Q30.1 9.7 28.7 9.3 L25.9 8.65 21.85 6.9 Q18.95 5.55 16.55 3.4 15.85 2.75 15.8 1.95 L18.1 4.05 17.85 3.45 17.5 2.45 Q15.9 -3.1 17.75 -8.5 L14.9 -8.1 M12.9 -10.3 Q14.35 -10.95 15.95 -11.1 L22.1 -10.7 27.25 -9.85 Q30.35 -8.95 33.25 -7.25 L33.55 -7.1 36.8 -4.35 Q33.8 -6.5 30.6 -7.9 27.15 -9.35 23.3 -10.15 L15.5 -10.6 12.9 -10.3 M18.5 -5.0 Q17.85 -1.1 19.1 2.7 19.6 4.25 20.8 5.05 23.0 6.5 25.7 6.55 L27.3 6.35 Q28.75 6.1 29.6 4.7 30.5 3.25 31.0 1.3 31.65 -1.15 31.05 -3.65 25.75 -7.65 19.15 -8.05 L18.5 -5.0 M-36.75 -4.35 L-33.55 -7.1 -33.25 -7.25 Q-30.35 -8.95 -27.25 -9.85 L-22.1 -10.7 -15.95 -11.1 Q-14.35 -10.95 -12.9 -10.3 L-15.5 -10.6 -23.3 -10.15 Q-27.15 -9.35 -30.6 -7.9 -33.8 -6.5 -36.75 -4.35 M-14.55 -8.05 L-14.9 -8.1 -17.75 -8.5 Q-15.9 -3.1 -17.5 2.45 L-17.85 3.45 -18.1 4.05 -15.8 1.95 Q-15.85 2.75 -16.55 3.4 -18.95 5.55 -21.85 6.9 L-25.9 8.65 -28.7 9.3 Q-30.1 9.7 -31.1 8.9 L-31.5 8.15 -28.85 8.35 -27.2 7.7 Q-27.0 7.45 -27.35 7.25 -29.6 5.65 -30.95 3.2 -31.95 1.35 -32.2 -0.7 L-32.35 -2.25 Q-34.35 -0.15 -34.6 2.75 -34.7 4.2 -33.9 5.45 L-34.8 5.85 -35.5 5.3 Q-36.55 4.45 -36.6 2.95 L-36.5 2.1 Q-36.05 0.3 -35.25 -1.35 L-33.3 -4.3 Q-31.05 -6.9 -27.8 -8.15 L-25.1 -9.15 Q-19.95 -10.85 -14.35 -10.0 L-14.05 -9.15 Q-13.65 -8.25 -14.55 -8.05 M-18.5 -5.0 L-19.15 -8.05 Q-25.75 -7.65 -31.05 -3.65 -31.65 -1.15 -31.0 1.3 -30.5 3.25 -29.6 4.7 -28.75 6.1 -27.3 6.35 L-25.7 6.55 Q-23.0 6.5 -20.8 5.05 -19.6 4.25 -19.1 2.7 -17.85 -1.1 -18.5 -5.0" fill="#000000" fill-rule="evenodd" stroke="none"/>
    <path d="M14.6 -8.05 L13.95 -7.5 12.15 -7.9 12.25 -10.05 12.85 -10.3 12.9 -10.3 15.5 -10.6 23.3 -10.15 Q27.15 -9.35 30.6 -7.9 33.8 -6.5 36.8 -4.35 L37.25 -3.7 33.75 -5.35 Q35.75 -3.2 36.5 -0.65 37.05 1.2 36.65 2.95 L36.5 2.1 Q36.05 0.3 35.25 -1.35 L33.3 -4.3 Q31.05 -6.9 27.8 -8.15 L25.1 -9.15 Q19.95 -10.85 14.35 -10.0 L14.05 -9.15 Q13.65 -8.25 14.6 -8.05 M-36.6 2.95 Q-37.05 1.2 -36.5 -0.65 -35.75 -3.2 -33.75 -5.35 L-37.25 -3.7 -36.75 -4.35 Q-33.8 -6.5 -30.6 -7.9 -27.15 -9.35 -23.3 -10.15 L-15.5 -10.6 -12.9 -10.3 -12.85 -10.3 -12.25 -10.05 -12.15 -7.9 -13.95 -7.5 -14.55 -8.05 Q-13.65 -8.25 -14.05 -9.15 L-14.35 -10.0 Q-19.95 -10.85 -25.1 -9.15 L-27.8 -8.15 Q-31.05 -6.9 -33.3 -4.3 L-35.25 -1.35 Q-36.05 0.3 -36.5 2.1 L-36.6 2.95" fill="#dab7a5" fill-rule="evenodd" stroke="none"/>
    <path d="M19.15 -1.9 L19.2 -0.85 Q19.2 0.35 19.5 1.4 20.0 3.05 21.15 4.3 21.95 5.1 23.1 5.35 25.2 5.8 27.1 4.75 29.8 3.3 30.1 0.55 L28.25 0.45 Q27.6 2.5 25.6 2.85 L23.65 2.7 22.55 2.15 Q21.4 1.4 21.1 -0.1 L20.75 -1.65 19.15 -1.9 M18.5 -5.0 L19.15 -8.05 Q25.75 -7.65 31.05 -3.65 31.65 -1.15 31.0 1.3 30.5 3.25 29.6 4.7 28.75 6.1 27.3 6.35 L25.7 6.55 Q23.0 6.5 20.8 5.05 19.6 4.25 19.1 2.7 17.85 -1.1 18.5 -5.0 M24.05 -6.05 Q23.35 -6.05 22.85 -5.5 22.3 -5.0 22.3 -4.25 22.3 -3.5 22.85 -2.95 23.35 -2.45 24.05 -2.45 24.75 -2.45 25.3 -2.95 25.8 -3.5 25.8 -4.25 25.8 -5.0 25.3 -5.5 24.75 -6.05 24.05 -6.05 M-26.2 -4.1 Q-26.2 -3.25 -25.6 -2.65 -25.05 -2.1 -24.2 -2.1 -23.35 -2.1 -22.75 -2.65 -22.2 -3.25 -22.2 -4.1 -22.2 -4.95 -22.75 -5.5 -23.35 -6.1 -24.2 -6.1 -25.05 -6.1 -25.6 -5.5 -26.2 -4.95 -26.2 -4.1 M-21.1 -0.1 Q-21.4 1.4 -22.55 2.15 L-23.65 2.7 -25.6 2.85 Q-27.6 2.5 -28.25 0.45 L-30.1 0.55 Q-29.8 3.3 -27.1 4.75 -25.2 5.8 -23.1 5.35 -21.95 5.1 -21.15 4.3 -20.0 3.05 -19.5 1.4 -19.2 0.35 -19.2 -0.85 L-19.15 -1.9 -20.75 -1.65 -21.1 -0.1 M-18.5 -5.0 Q-17.85 -1.1 -19.1 2.7 -19.6 4.25 -20.8 5.05 -23.0 6.5 -25.7 6.55 L-27.3 6.35 Q-28.75 6.1 -29.6 4.7 -30.5 3.25 -31.0 1.3 -31.65 -1.15 -31.05 -3.65 -25.75 -7.65 -19.15 -8.05 L-18.5 -5.0" fill="#493616" fill-rule="evenodd" stroke="none"/>
    <path d="M19.15 -1.9 L20.75 -1.65 21.1 -0.1 Q21.4 1.4 22.55 2.15 L23.65 2.7 25.6 2.85 Q27.6 2.5 28.25 0.45 L30.1 0.55 Q29.8 3.3 27.1 4.75 25.2 5.8 23.1 5.35 21.95 5.1 21.15 4.3 20.0 3.05 19.5 1.4 19.2 0.35 19.2 -0.85 L19.15 -1.9 M-21.1 -0.1 L-20.75 -1.65 -19.15 -1.9 -19.2 -0.85 Q-19.2 0.35 -19.5 1.4 -20.0 3.05 -21.15 4.3 -21.95 5.1 -23.1 5.35 -25.2 5.8 -27.1 4.75 -29.8 3.3 -30.1 0.55 L-28.25 0.45 Q-27.6 2.5 -25.6 2.85 L-23.65 2.7 -22.55 2.15 Q-21.4 1.4 -21.1 -0.1" fill="#a27033" fill-rule="evenodd" stroke="none"/>
    <path d="M33.9 5.45 L31.5 8.15 28.85 8.35 27.2 7.7 Q27.0 7.45 27.35 7.25 29.6 5.65 30.95 3.2 31.95 1.35 32.2 -0.7 L32.35 -2.25 Q34.35 -0.15 34.6 2.75 34.7 4.2 33.9 5.45 M15.8 1.95 Q14.45 -0.9 14.4 -3.95 14.4 -6.1 14.9 -8.1 L17.75 -8.5 Q15.9 -3.1 17.5 2.45 L17.85 3.45 18.1 4.05 15.8 1.95 M24.05 -6.05 Q24.75 -6.05 25.3 -5.5 25.8 -5.0 25.8 -4.25 25.8 -3.5 25.3 -2.95 24.75 -2.45 24.05 -2.45 23.35 -2.45 22.85 -2.95 22.3 -3.5 22.3 -4.25 22.3 -5.0 22.85 -5.5 23.35 -6.05 24.05 -6.05 M-14.9 -8.1 Q-14.4 -6.1 -14.4 -3.95 -14.45 -0.9 -15.8 1.95 L-18.1 4.05 -17.85 3.45 -17.5 2.45 Q-15.9 -3.1 -17.75 -8.5 L-14.9 -8.1 M-31.5 8.15 L-33.9 5.45 Q-34.7 4.2 -34.6 2.75 -34.35 -0.15 -32.35 -2.25 L-32.2 -0.7 Q-31.95 1.35 -30.95 3.2 -29.6 5.65 -27.35 7.25 -27.0 7.45 -27.2 7.7 L-28.85 8.35 -31.5 8.15 M-26.2 -4.1 Q-26.2 -4.95 -25.6 -5.5 -25.05 -6.1 -24.2 -6.1 -23.35 -6.1 -22.75 -5.5 -22.2 -4.95 -22.2 -4.1 -22.2 -3.25 -22.75 -2.65 -23.35 -2.1 -24.2 -2.1 -25.05 -2.1 -25.6 -2.65 -26.2 -3.25 -26.2 -4.1" fill="#ffffff" fill-rule="evenodd" stroke="none"/>
  </g>
</svg>
