<?xml version="1.0" encoding="UTF-8" standalone="no"?>
<svg xmlns:ffdec="https://www.free-decompiler.com/flash" xmlns:xlink="http://www.w3.org/1999/xlink" ffdec:objectType="shape" height="13.25px" width="74.5px" xmlns="http://www.w3.org/2000/svg">
  <g transform="matrix(1.0, 0.0, 0.0, 1.0, 37.25, 7.45)">
    <path d="M36.65 4.4 L35.85 1.95 35.65 1.55 35.3 0.9 35.25 0.8 33.3 -1.7 Q31.05 -3.9 27.8 -4.95 L25.1 -5.8 Q21.9 -6.7 18.6 -6.75 L18.3 -6.75 16.75 -6.7 14.45 -6.55 14.35 -6.5 Q13.8 -5.55 13.85 -4.5 L13.95 -4.4 12.15 -4.75 12.25 -6.55 12.9 -6.75 14.05 -6.85 14.45 -6.9 15.5 -7.0 16.8 -7.05 17.3 -7.05 23.3 -6.65 Q27.15 -5.95 30.6 -4.75 33.8 -3.55 36.8 -1.75 L37.25 -1.2 33.75 -2.6 Q35.75 -0.8 36.5 1.35 L36.8 2.7 36.8 3.4 36.85 3.4 36.8 3.8 36.75 3.8 36.65 4.4 M-12.9 -6.75 L-12.25 -6.55 -12.15 -4.75 -13.95 -4.4 -13.85 -4.5 Q-13.8 -5.55 -14.35 -6.5 L-14.45 -6.55 -16.75 -6.7 -18.3 -6.75 -18.55 -6.75 -25.1 -5.8 -27.8 -4.95 Q-31.05 -3.9 -33.3 -1.7 L-35.25 0.8 -35.3 0.9 -35.65 1.55 -35.85 1.95 -36.55 4.15 -36.65 4.05 -36.65 3.85 -36.7 3.5 -36.8 3.15 -36.8 2.7 -36.5 1.35 Q-35.75 -0.8 -33.75 -2.6 L-37.25 -1.2 -36.75 -1.75 Q-33.8 -3.55 -30.6 -4.75 -27.15 -5.95 -23.3 -6.65 L-17.3 -7.05 -16.75 -7.05 -15.5 -7.0 -14.4 -6.9 -14.05 -6.85 -12.9 -6.75" fill="#dab7a5" fill-rule="evenodd" stroke="none"/>
    <path d="M13.95 -4.4 L13.85 -4.5 Q13.8 -5.55 14.35 -6.5 L14.45 -6.55 16.75 -6.7 18.3 -6.75 18.6 -6.75 Q21.9 -6.7 25.1 -5.8 L27.8 -4.95 Q31.05 -3.9 33.3 -1.7 L35.25 0.8 35.3 0.9 35.65 1.55 35.85 1.95 36.65 4.4 36.55 4.85 33.15 4.5 Q32.65 4.5 32.5 4.3 L33.5 3.6 33.85 3.3 33.85 3.25 32.8 1.7 32.3 1.1 31.5 0.4 30.85 -0.2 Q29.5 2.05 27.35 3.6 27.0 3.8 27.2 4.05 L28.85 4.7 29.4 4.8 31.5 4.55 Q31.45 5.05 30.85 5.45 L29.3 5.8 28.7 5.65 25.9 5.0 21.85 3.25 Q18.95 1.9 16.55 -0.25 L16.35 -0.5 16.0 -1.1 15.8 -1.7 18.1 0.4 17.85 -0.2 17.5 -1.2 16.85 -4.4 15.6 -4.5 14.8 -4.55 14.3 -4.35 13.95 -4.4 M36.8 -1.75 Q33.8 -3.55 30.6 -4.75 27.15 -5.95 23.3 -6.65 L17.3 -7.05 16.8 -7.05 15.5 -7.0 14.45 -6.9 14.05 -6.85 12.9 -6.75 13.9 -7.1 14.4 -7.2 15.95 -7.45 22.1 -7.1 27.25 -6.4 Q30.35 -5.65 33.25 -4.2 L33.55 -4.05 36.8 -1.75 M19.2 -4.2 L18.4 -4.3 Q18.55 -2.6 19.1 -0.95 19.6 0.6 20.8 1.4 23.0 2.85 25.7 2.9 L27.3 2.7 Q28.75 2.45 29.6 1.05 L30.45 -0.55 29.5 -1.15 29.15 -1.35 27.8 -2.05 27.75 -2.05 25.0 -3.05 23.55 -3.4 21.1 -3.85 20.65 -3.95 19.2 -4.2 M-36.75 -1.75 L-33.55 -4.05 -33.25 -4.2 Q-30.35 -5.65 -27.25 -6.4 L-22.1 -7.1 -15.95 -7.45 -14.4 -7.2 -13.85 -7.1 -12.9 -6.75 -14.05 -6.85 -14.4 -6.9 -15.5 -7.0 -16.75 -7.05 -17.3 -7.05 -23.3 -6.65 Q-27.15 -5.95 -30.6 -4.75 -33.8 -3.55 -36.75 -1.75 M-13.95 -4.4 L-14.3 -4.35 -14.8 -4.55 -15.6 -4.5 -16.85 -4.4 -17.5 -1.2 -17.85 -0.2 -18.1 0.4 -15.8 -1.7 -16.0 -1.1 -16.3 -0.5 -16.55 -0.25 Q-18.95 1.9 -21.85 3.25 L-25.9 5.0 -28.7 5.65 -29.3 5.8 -30.8 5.45 Q-31.45 5.05 -31.45 4.55 L-29.4 4.8 -28.85 4.7 -27.2 4.05 Q-27.0 3.8 -27.35 3.6 -29.5 2.05 -30.8 -0.2 L-31.5 0.4 -32.3 1.1 -32.8 1.7 -33.8 3.25 -33.85 3.25 -33.8 3.3 -33.5 3.6 -32.5 4.3 Q-32.65 4.5 -33.15 4.5 L-35.9 4.8 -36.55 4.15 -35.85 1.95 -35.65 1.55 -35.3 0.9 -35.25 0.8 -33.3 -1.7 Q-31.05 -3.9 -27.8 -4.95 L-25.1 -5.8 -18.55 -6.75 -18.3 -6.75 -16.75 -6.7 -14.45 -6.55 -14.35 -6.5 Q-13.8 -5.55 -13.85 -4.5 L-13.95 -4.4 M-27.7 -2.05 L-27.8 -2.05 -29.15 -1.35 -29.5 -1.15 -30.4 -0.55 -29.6 1.05 Q-28.75 2.45 -27.3 2.7 L-25.7 2.9 Q-23.0 2.85 -20.8 1.4 -19.6 0.6 -19.1 -0.95 -18.55 -2.6 -18.35 -4.3 L-19.2 -4.2 -20.65 -3.95 -21.05 -3.85 -23.55 -3.4 -25.0 -3.05 -27.7 -2.05" fill="#000000" fill-rule="evenodd" stroke="none"/>
    <path d="M19.2 -4.2 L20.65 -3.95 21.1 -3.85 21.1 -3.75 Q21.4 -2.25 22.55 -1.5 L23.65 -0.95 25.6 -0.8 Q27.0 -1.05 27.75 -2.05 L27.8 -2.05 29.15 -1.35 29.5 -1.15 Q28.75 0.2 27.1 1.1 25.2 2.15 23.1 1.7 21.95 1.45 21.15 0.65 20.0 -0.6 19.5 -2.25 L19.2 -4.2 M-29.5 -1.15 L-29.15 -1.35 -27.8 -2.05 -27.7 -2.05 Q-27.0 -1.05 -25.6 -0.8 L-23.65 -0.95 -22.55 -1.5 Q-21.4 -2.25 -21.1 -3.75 L-21.05 -3.85 -20.65 -3.95 -19.2 -4.2 -19.5 -2.25 Q-20.0 -0.6 -21.15 0.65 -21.95 1.45 -23.1 1.7 -25.2 2.15 -27.1 1.1 -28.75 0.2 -29.5 -1.15" fill="#a27033" fill-rule="evenodd" stroke="none"/>
    <path d="M29.5 -1.15 L30.45 -0.55 29.6 1.05 Q28.75 2.45 27.3 2.7 L25.7 2.9 Q23.0 2.85 20.8 1.4 19.6 0.6 19.1 -0.95 18.55 -2.6 18.4 -4.3 L19.2 -4.2 19.5 -2.25 Q20.0 -0.6 21.15 0.65 21.95 1.45 23.1 1.7 25.2 2.15 27.1 1.1 28.75 0.2 29.5 -1.15 M21.1 -3.85 L23.55 -3.4 25.0 -3.05 27.75 -2.05 Q27.0 -1.05 25.6 -0.8 L23.65 -0.95 22.55 -1.5 Q21.4 -2.25 21.1 -3.75 L21.1 -3.85 M-27.7 -2.05 L-25.0 -3.05 -23.55 -3.4 -21.05 -3.85 -21.1 -3.75 Q-21.4 -2.25 -22.55 -1.5 L-23.65 -0.95 -25.6 -0.8 Q-27.0 -1.05 -27.7 -2.05 M-19.2 -4.2 L-18.35 -4.3 Q-18.55 -2.6 -19.1 -0.95 -19.6 0.6 -20.8 1.4 -23.0 2.85 -25.7 2.9 L-27.3 2.7 Q-28.75 2.45 -29.6 1.05 L-30.4 -0.55 -29.5 -1.15 Q-28.75 0.2 -27.1 1.1 -25.2 2.15 -23.1 1.7 -21.95 1.45 -21.15 0.65 -20.0 -0.6 -19.5 -2.25 L-19.2 -4.2" fill="#493616" fill-rule="evenodd" stroke="none"/>
    <path d="M14.8 -4.55 L15.6 -4.5 16.85 -4.4 17.5 -1.2 17.85 -0.2 18.1 0.4 15.8 -1.7 14.8 -4.55 M31.5 4.55 L29.4 4.8 28.85 4.7 27.2 4.05 Q27.0 3.8 27.35 3.6 29.5 2.05 30.85 -0.2 L31.5 0.4 32.3 1.1 32.8 1.7 33.85 3.25 33.85 3.3 33.5 3.6 32.5 4.3 31.5 4.55 M-14.8 -4.55 L-15.8 -1.7 -18.1 0.4 -17.85 -0.2 -17.5 -1.2 -16.85 -4.4 -15.6 -4.5 -14.8 -4.55 M-31.45 4.55 L-32.5 4.3 -33.5 3.6 -33.8 3.3 -33.8 3.25 -32.8 1.7 -32.3 1.1 -31.5 0.4 -30.8 -0.2 Q-29.5 2.05 -27.35 3.6 -27.0 3.8 -27.2 4.05 L-28.85 4.7 -29.4 4.8 -31.45 4.55" fill="#ffffff" fill-rule="evenodd" stroke="none"/>
  </g>
</svg>
