<?xml version="1.0" encoding="UTF-8" standalone="no"?>
<svg xmlns:ffdec="https://www.free-decompiler.com/flash" xmlns:xlink="http://www.w3.org/1999/xlink" ffdec:objectType="shape" height="9.1px" width="73.1px" xmlns="http://www.w3.org/2000/svg">
  <g transform="matrix(1.0, 0.0, 0.0, 1.0, 36.5, 5.45)">
    <path d="M35.65 2.8 L35.3 2.95 33.8 3.4 33.65 3.45 33.5 3.5 Q29.95 4.0 26.65 2.85 23.35 1.7 19.9 0.15 17.6 -0.8 15.0 -1.1 L14.7 -1.2 14.35 -1.25 14.05 -1.75 12.95 -3.65 12.9 -3.85 13.15 -4.2 Q14.15 -5.2 15.6 -5.4 18.75 -5.6 21.8 -4.65 27.7 -2.95 33.75 -2.75 L35.25 -2.65 35.15 -2.6 34.75 -2.55 35.05 -2.65 31.0 -2.7 26.8 -3.4 17.65 -5.0 Q15.9 -5.25 14.4 -4.3 L13.35 -3.35 13.5 -3.3 13.55 -3.1 14.65 -2.4 18.05 -1.35 Q20.7 -0.5 23.2 0.65 26.95 2.55 31.0 2.65 L33.75 2.35 35.65 2.8 M28.8 -2.4 L24.85 -2.3 Q28.9 -0.9 33.05 -1.0 L35.15 -0.95 35.3 -0.75 34.0 -0.65 Q29.25 -0.35 24.75 -1.75 L15.85 -4.3 20.2 -4.0 27.75 -2.55 28.8 -2.4 M-35.65 2.8 L-33.75 2.35 -31.0 2.65 Q-26.95 2.55 -23.2 0.65 -20.7 -0.5 -18.05 -1.35 L-14.65 -2.4 -13.55 -3.1 -13.5 -3.3 -13.35 -3.35 -14.4 -4.3 Q-15.9 -5.25 -17.65 -5.0 L-26.8 -3.4 -31.0 -2.7 -35.05 -2.65 -34.7 -2.55 -35.15 -2.6 -35.25 -2.65 -33.75 -2.75 Q-27.7 -2.95 -21.8 -4.65 -18.75 -5.6 -15.6 -5.4 -13.95 -5.2 -12.85 -3.9 L-12.8 -3.95 -12.75 -3.9 -13.0 -3.4 -13.7 -2.15 -14.2 -1.35 -14.6 -1.15 Q-17.45 -0.85 -19.9 0.15 -23.35 1.7 -26.65 2.85 -29.85 3.95 -33.25 3.55 L-33.75 3.35 -35.0 3.05 -35.65 2.8 M-28.8 -2.4 L-27.75 -2.55 -20.2 -4.0 -15.85 -4.3 -24.75 -1.75 Q-29.25 -0.35 -34.0 -0.65 L-35.3 -0.75 -35.15 -0.95 -33.05 -1.0 Q-28.9 -0.9 -24.85 -2.3 L-28.8 -2.4" fill="#dab7a5" fill-rule="evenodd" stroke="none"/>
    <path d="M34.75 -2.55 L28.8 -2.4 27.75 -2.55 20.2 -4.0 15.85 -4.3 24.75 -1.75 Q29.25 -0.35 34.0 -0.65 L35.3 -0.75 35.75 0.05 35.55 0.65 36.1 1.35 36.15 1.5 36.55 2.25 36.6 2.35 35.65 2.8 33.75 2.35 31.0 2.65 Q26.95 2.55 23.2 0.65 20.7 -0.5 18.05 -1.35 L14.65 -2.4 13.55 -3.1 13.5 -3.3 13.35 -3.35 14.4 -4.3 Q15.9 -5.25 17.65 -5.0 L26.8 -3.4 31.0 -2.7 35.05 -2.65 34.75 -2.55 M-34.7 -2.55 L-35.05 -2.65 -31.0 -2.7 -26.8 -3.4 -17.65 -5.0 Q-15.9 -5.25 -14.4 -4.3 L-13.35 -3.35 -13.5 -3.3 -13.55 -3.1 -14.65 -2.4 -18.05 -1.35 Q-20.7 -0.5 -23.2 0.65 -26.95 2.55 -31.0 2.65 L-33.75 2.35 -35.65 2.8 -36.5 2.4 -36.05 1.5 -35.95 1.2 -35.55 0.65 -35.75 0.05 -35.3 -0.75 -34.0 -0.65 Q-29.25 -0.35 -24.75 -1.75 L-15.85 -4.3 -20.2 -4.0 -27.75 -2.55 -28.8 -2.4 -34.7 -2.55" fill="#000000" fill-rule="evenodd" stroke="none"/>
  </g>
</svg>
