<?xml version="1.0" encoding="UTF-8" standalone="no"?>
<svg xmlns:ffdec="https://www.free-decompiler.com/flash" xmlns:xlink="http://www.w3.org/1999/xlink" ffdec:objectType="shape" height="12.3px" width="26.35px" xmlns="http://www.w3.org/2000/svg">
  <g transform="matrix(1.0, 0.0, 0.0, 1.0, 13.15, 6.15)">
    <path d="M7.75 -4.55 L7.2 -4.6 6.0 -4.75 4.65 -4.6 2.85 -4.25 0.8 -4.05 -1.15 -4.0 -3.1 -4.2 -3.8 -4.35 -5.1 -4.6 -6.95 -4.5 -9.05 -4.3 -8.6 -4.5 -7.05 -4.95 -5.5 -5.4 Q-4.65 -5.6 -3.9 -5.95 L-3.55 -6.15 -1.35 -6.0 -0.05 -5.9 3.85 -6.05 4.55 -5.95 Q5.3 -5.55 6.1 -5.25 L7.05 -4.9 7.75 -4.55 M-11.1 -4.0 L-12.25 -3.8 -12.2 -3.45 -12.05 -3.15 -11.45 -3.0 Q-12.2 -2.8 -12.8 -3.25 L-13.1 -3.8 -13.15 -4.2 -12.55 -4.65 -11.45 -4.3 -11.3 -4.2 -11.1 -4.0 M11.85 -3.0 L12.1 -3.2 Q12.35 -3.45 12.7 -3.5 L12.75 -3.6 12.65 -3.7 11.45 -3.9 11.7 -4.35 12.5 -4.55 13.2 -4.0 13.2 -3.65 13.0 -3.2 12.55 -2.9 11.85 -3.0 M-1.5 3.3 L1.4 3.35 Q1.75 4.05 1.65 4.8 L1.6 5.0 1.25 5.75 Q0.55 6.25 -0.25 6.15 L-0.85 5.9 -1.75 5.0 -1.9 4.15 -1.5 3.3" fill="#dab7a5" fill-rule="evenodd" stroke="none"/>
    <path d="M-9.05 -4.3 L-6.95 -4.5 -5.1 -4.6 -3.8 -4.35 -3.1 -4.2 -1.15 -4.0 0.8 -4.05 2.85 -4.25 4.65 -4.6 6.0 -4.75 7.2 -4.6 7.75 -4.55 11.45 -3.9 12.65 -3.7 12.75 -3.6 12.7 -3.5 Q12.35 -3.45 12.1 -3.2 L11.85 -3.0 10.25 -2.0 9.1 -1.4 7.3 -0.75 5.75 -0.25 4.15 0.1 2.5 0.35 0.8 0.4 -0.25 0.5 -2.0 0.45 -3.35 0.25 -4.85 -0.05 -6.85 -0.7 Q-7.55 -0.95 -8.25 -1.35 L-9.75 -2.1 -11.45 -3.0 -12.05 -3.15 -12.2 -3.45 -12.25 -3.8 -11.1 -4.0 -9.05 -4.3 M4.85 -4.4 L3.65 -4.15 1.9 -3.8 1.25 -3.8 0.75 -3.75 -0.6 -3.75 -2.75 -3.9 -3.7 -4.1 -4.55 -4.35 -4.6 -4.35 -4.7 -4.35 -5.0 -4.35 -5.7 -4.35 -8.55 -4.05 -10.65 -3.8 -11.25 -3.7 -11.25 -3.65 -11.3 -3.55 -11.15 -3.35 Q-9.55 -2.45 -7.7 -2.5 L-2.9 -2.6 -0.65 -2.6 0.0 -2.6 0.3 -2.6 1.85 -2.55 5.5 -2.55 9.85 -2.6 10.25 -2.6 10.45 -2.7 10.65 -2.8 11.1 -3.0 11.35 -3.05 11.65 -3.25 11.7 -3.3 11.85 -3.35 11.85 -3.45 11.6 -3.55 9.6 -3.9 5.7 -4.4 4.85 -4.4 M-6.7 -2.25 L-7.85 -2.25 -8.35 -2.25 -8.55 -2.25 -8.6 -2.2 -8.95 -2.2 Q-7.4 -1.35 -5.7 -0.85 L-5.2 -0.7 -2.0 -0.2 0.1 -0.1 2.65 -0.25 4.3 -0.5 6.8 -1.05 7.85 -1.35 8.55 -1.6 9.3 -1.9 9.65 -2.05 Q9.55 -2.35 9.25 -2.3 L6.9 -2.15 5.7 -2.2 3.5 -2.25 2.05 -2.25 1.35 -2.25 0.2 -2.25 -3.0 -2.3 -5.2 -2.25 -6.7 -2.25" fill="#000000" fill-rule="evenodd" stroke="none"/>
    <path d="M4.85 -4.4 L5.7 -4.4 9.6 -3.9 11.6 -3.55 11.85 -3.45 11.85 -3.35 11.7 -3.3 11.65 -3.25 11.35 -3.05 11.1 -3.0 10.65 -2.8 10.45 -2.7 10.25 -2.6 9.85 -2.6 5.5 -2.55 1.85 -2.55 0.3 -2.6 0.0 -2.6 -0.65 -2.6 -2.9 -2.6 -7.7 -2.5 Q-9.55 -2.45 -11.15 -3.35 L-11.3 -3.55 -11.25 -3.65 -11.25 -3.7 -10.65 -3.8 -8.55 -4.05 -5.7 -4.35 -5.0 -4.35 -4.7 -4.35 -4.6 -4.35 -4.55 -4.35 -3.7 -4.1 -2.75 -3.9 -0.6 -3.75 0.75 -3.75 1.25 -3.8 1.9 -3.8 3.65 -4.15 4.85 -4.4" fill="#ffffff" fill-rule="evenodd" stroke="none"/>
    <path d="M-6.7 -2.25 L-5.2 -2.25 -3.0 -2.3 0.2 -2.25 1.35 -2.25 2.05 -2.25 3.5 -2.25 5.7 -2.2 6.9 -2.15 9.25 -2.3 Q9.55 -2.35 9.65 -2.05 L9.3 -1.9 8.55 -1.6 7.85 -1.35 6.8 -1.05 4.3 -0.5 2.65 -0.25 0.1 -0.1 -2.0 -0.2 -5.2 -0.7 -5.7 -0.85 Q-7.4 -1.35 -8.95 -2.2 L-8.6 -2.2 -8.55 -2.25 -8.35 -2.25 -7.85 -2.25 -6.7 -2.25" fill="#990000" fill-rule="evenodd" stroke="none"/>
  </g>
</svg>
