<?xml version="1.0" encoding="UTF-8" standalone="no"?>
<svg xmlns:ffdec="https://www.free-decompiler.com/flash" xmlns:xlink="http://www.w3.org/1999/xlink" ffdec:objectType="shape" height="10.2px" width="27.0px" xmlns="http://www.w3.org/2000/svg">
  <g transform="matrix(1.0, 0.0, 0.0, 1.0, 13.5, 5.1)">
    <path d="M11.8 -2.95 L12.2 -3.3 12.2 -3.4 12.3 -3.45 12.7 -3.65 12.65 -3.75 12.35 -3.7 11.8 -3.65 11.45 -3.6 Q11.4 -4.0 11.65 -4.35 L12.3 -4.75 12.55 -4.75 Q13.05 -4.65 13.3 -4.25 13.6 -3.75 13.5 -3.15 L13.2 -2.75 12.6 -2.6 Q12.2 -2.6 11.9 -2.85 L11.8 -2.95 M8.15 -3.7 L6.75 -3.8 6.65 -3.8 4.7 -3.6 3.15 -3.25 2.15 -3.1 1.1 -2.95 0.55 -2.9 -1.1 -2.9 -1.95 -3.0 -2.35 -3.05 -2.9 -3.2 -3.7 -3.35 -3.8 -3.4 -4.45 -3.55 -5.7 -3.65 -6.5 -3.6 -6.55 -3.6 -8.1 -3.45 -9.0 -3.3 -8.95 -3.35 Q-8.25 -3.9 -7.35 -4.1 L-7.05 -4.2 -5.7 -4.75 -3.7 -5.1 -1.8 -4.85 -1.1 -4.75 0.95 -4.65 2.25 -4.8 3.75 -5.0 4.75 -5.0 6.55 -4.4 Q7.3 -3.95 8.15 -3.7 M-11.55 -3.4 L-11.65 -3.4 -13.0 -3.7 -12.8 -3.5 -12.2 -3.15 -12.15 -3.1 -11.65 -2.9 -11.75 -2.8 Q-11.9 -2.6 -12.15 -2.5 L-12.35 -2.45 Q-13.1 -2.45 -13.4 -3.1 -13.6 -3.55 -13.45 -3.95 -13.3 -4.6 -12.55 -4.6 L-12.45 -4.6 Q-11.6 -4.3 -11.55 -3.4 M11.6 -3.25 L11.6 -3.2 11.6 -3.25 M1.9 3.9 L1.2 4.8 -0.85 5.05 Q-1.6 4.85 -2.0 4.3 -2.4 3.85 -2.05 3.35 -1.4 2.5 -0.3 2.4 0.75 2.3 1.55 3.0 1.95 3.35 1.9 3.9" fill="#dab7a5" fill-rule="evenodd" stroke="none"/>
    <path d="M11.45 -3.6 L11.8 -3.65 12.35 -3.7 12.65 -3.75 12.7 -3.65 12.3 -3.45 12.2 -3.4 12.2 -3.3 11.8 -2.95 11.3 -2.7 9.65 -2.15 8.45 -1.85 7.1 -1.55 5.7 -1.3 4.0 -1.1 3.0 -1.05 1.6 -1.0 0.2 -1.0 -1.2 -1.0 -2.65 -1.05 -4.35 -1.1 -5.3 -1.15 -6.75 -1.3 -8.0 -1.5 -9.2 -1.85 -10.4 -2.35 -11.65 -2.9 -12.15 -3.1 -12.2 -3.15 -12.8 -3.5 -13.0 -3.7 -11.65 -3.4 -11.55 -3.4 -11.25 -3.35 -9.05 -3.3 -8.95 -3.35 -9.0 -3.3 -8.1 -3.45 -6.55 -3.6 -6.5 -3.6 -5.7 -3.65 -4.45 -3.55 -3.8 -3.4 -3.7 -3.35 -2.9 -3.2 -2.35 -3.05 -1.95 -3.0 -1.1 -2.9 0.55 -2.9 1.1 -2.95 2.15 -3.1 3.15 -3.25 4.7 -3.6 6.65 -3.8 6.75 -3.8 8.15 -3.7 8.25 -3.65 9.05 -3.55 11.45 -3.6 M11.6 -3.2 L11.6 -3.25 11.4 -3.15 9.9 -3.05 9.4 -3.15 8.55 -3.25 8.2 -3.3 6.35 -3.5 5.75 -3.5 4.55 -3.25 Q3.1 -2.7 1.55 -2.55 L-1.55 -2.6 -2.75 -2.8 -4.0 -3.1 Q-5.45 -3.5 -6.9 -3.1 L-9.85 -2.85 -10.45 -2.85 -11.0 -2.85 -9.4 -2.2 -7.75 -1.75 -6.05 -1.55 -4.85 -1.45 -3.65 -1.35 -2.4 -1.3 -1.2 -1.3 0.0 -1.25 1.25 -1.3 2.45 -1.3 3.7 -1.35 4.95 -1.45 6.4 -1.7 8.1 -2.1 9.05 -2.35 10.05 -2.6 11.6 -3.2" fill="#000000" fill-rule="evenodd" stroke="none"/>
    <path d="M11.6 -3.2 L10.05 -2.6 9.05 -2.35 8.1 -2.1 6.4 -1.7 4.95 -1.45 3.7 -1.35 2.45 -1.3 1.25 -1.3 0.0 -1.25 -1.2 -1.3 -2.4 -1.3 -3.65 -1.35 -4.85 -1.45 -6.05 -1.55 -7.75 -1.75 -9.4 -2.2 -11.0 -2.85 -10.45 -2.85 -9.85 -2.85 -6.9 -3.1 Q-5.45 -3.5 -4.0 -3.1 L-2.75 -2.8 -1.55 -2.6 1.55 -2.55 Q3.1 -2.7 4.55 -3.25 L5.75 -3.5 6.35 -3.5 8.2 -3.3 8.55 -3.25 9.4 -3.15 9.9 -3.05 11.4 -3.15 11.6 -3.25 11.6 -3.2" fill="#ffffff" fill-rule="evenodd" stroke="none"/>
  </g>
</svg>
