<?xml version="1.0" encoding="UTF-8" standalone="no"?>
<svg xmlns:ffdec="https://www.free-decompiler.com/flash" xmlns:xlink="http://www.w3.org/1999/xlink" ffdec:objectType="shape" height="219.4px" width="80.3px" xmlns="http://www.w3.org/2000/svg">
  <g transform="matrix(1.0, 0.0, 0.0, 1.0, 40.15, 109.7)">
    <path d="M36.8 48.65 L37.15 46.55 Q39.1 34.9 38.2 23.15 37.4 12.3 33.55 2.15 29.95 -7.5 23.9 -15.9 20.15 -21.1 15.45 -25.25 6.0 -33.6 -2.65 -42.35 -5.3 -45.05 -7.25 -48.15 -17.15 -64.0 -13.7 -82.75 -12.7 -88.3 -10.9 -93.75 -8.7 -100.45 -11.9 -106.8 -17.25 -110.45 -22.5 -106.2 -25.65 -103.7 -27.3 -100.0 -31.65 -90.1 -32.65 -79.2 -33.7 -67.9 -30.6 -57.0 -27.8 -46.9 -21.5 -37.65 -15.75 -29.15 -7.4 -22.95 L2.05 -15.7 Q10.6 -8.85 15.4 0.9 20.35 10.9 21.0 22.1 21.6 33.05 18.15 43.5 14.4 54.95 6.0 63.45 L4.1 65.4 0.85 68.2 Q-1.55 70.1 -4.2 71.6 L-24.15 82.9 Q-27.9 85.15 -31.05 88.1 -34.3 91.0 -36.25 94.95 -38.3 99.25 -35.1 102.9 L-32.6 105.2 Q-30.9 106.55 -28.75 106.9 -21.3 107.2 -14.2 104.15 -3.5 99.5 5.9 92.55 L13.85 86.6 Q22.9 79.55 28.6 69.9 34.45 59.95 36.8 48.65 M-12.65 -108.65 Q-10.45 -107.05 -9.45 -104.55 -8.4 -101.95 -9.05 -99.4 L-11.7 -88.05 Q-14.25 -76.65 -12.75 -65.0 -11.35 -53.85 -3.8 -45.65 3.1 -38.15 11.0 -31.3 19.15 -24.15 26.1 -15.8 L28.5 -12.5 Q32.4 -6.4 34.75 0.35 38.6 11.55 39.7 23.2 40.85 35.05 39.1 46.9 37.5 58.05 32.25 68.0 27.05 77.85 18.7 85.35 10.8 92.5 1.55 97.95 -7.25 103.25 -16.4 107.65 -20.75 109.7 -25.6 109.7 -30.7 109.65 -35.05 107.05 -40.3 103.75 -40.15 97.5 -40.05 94.1 -38.0 91.5 -35.75 88.7 -33.15 86.8 -28.0 83.05 -22.45 80.0 -13.15 74.95 -4.4 69.25 3.95 63.85 10.0 55.65 16.75 46.6 18.45 35.3 20.05 24.9 18.35 14.55 16.45 3.0 9.45 -6.35 3.2 -14.75 -5.65 -20.45 -14.3 -26.0 -20.7 -33.9 -28.0 -43.0 -31.6 -54.1 -35.2 -65.2 -34.45 -77.0 -33.8 -86.85 -30.65 -96.05 -28.35 -102.85 -22.9 -107.3 -18.0 -111.3 -12.65 -108.65" fill="#000000" fill-rule="evenodd" stroke="none"/>
    <path d="M-30.6 -57.0 Q-33.7 -67.9 -32.65 -79.2 -31.65 -90.1 -27.3 -100.0 -25.65 -103.7 -22.5 -106.2 -17.25 -110.45 -11.9 -106.8 -8.7 -100.45 -10.9 -93.75 -12.7 -88.3 -13.7 -82.75 -17.15 -64.0 -7.25 -48.15 -5.3 -45.05 -2.65 -42.35 6.0 -33.6 15.45 -25.25 20.15 -21.1 23.9 -15.9 29.95 -7.5 33.55 2.15 37.4 12.3 38.2 23.15 39.1 34.9 37.15 46.55 L36.8 48.65 Q33.55 54.95 29.7 61.1 L25.8 66.45 Q18.1 75.35 8.8 82.7 -0.05 89.75 -10.6 94.1 -21.4 98.5 -32.7 102.15 L-35.1 102.9 Q-38.3 99.25 -36.25 94.95 -34.3 91.0 -31.05 88.1 -27.9 85.15 -24.15 82.9 L-4.2 71.6 Q-1.55 70.1 0.85 68.2 L4.1 65.4 Q14.1 60.15 20.55 50.7 27.4 40.7 28.0 28.7 28.5 18.85 25.75 9.05 23.5 0.95 18.4 -5.8 L16.2 -8.55 Q8.45 -17.1 -1.25 -23.4 -9.8 -28.95 -16.85 -36.1 -24.75 -44.2 -29.55 -54.6 L-30.6 -57.0" fill="#ffffff" fill-rule="evenodd" stroke="none"/>
    <path d="M36.8 48.65 Q34.45 59.95 28.6 69.9 22.9 79.55 13.85 86.6 L5.9 92.55 Q-3.5 99.5 -14.2 104.15 -21.3 107.2 -28.75 106.9 -30.9 106.55 -32.6 105.2 L-35.1 102.9 -32.7 102.15 Q-21.4 98.5 -10.6 94.1 -0.05 89.75 8.8 82.7 18.1 75.35 25.8 66.45 L29.7 61.1 Q33.55 54.95 36.8 48.65 M4.1 65.4 L6.0 63.45 Q14.4 54.95 18.15 43.5 21.6 33.05 21.0 22.1 20.35 10.9 15.4 0.9 10.6 -8.85 2.05 -15.7 L-7.4 -22.95 Q-15.75 -29.15 -21.5 -37.65 -27.8 -46.9 -30.6 -57.0 L-29.55 -54.6 Q-24.75 -44.2 -16.85 -36.1 -9.8 -28.95 -1.25 -23.4 8.45 -17.1 16.2 -8.55 L18.4 -5.8 Q23.5 0.95 25.75 9.05 28.5 18.85 28.0 28.7 27.4 40.7 20.55 50.7 14.1 60.15 4.1 65.4" fill="#dbdce6" fill-rule="evenodd" stroke="none"/>
  </g>
</svg>
