<?xml version="1.0" encoding="UTF-8" standalone="no"?>
<svg xmlns:ffdec="https://www.free-decompiler.com/flash" xmlns:xlink="http://www.w3.org/1999/xlink" ffdec:objectType="shape" height="171.2px" width="589.25px" xmlns="http://www.w3.org/2000/svg">
  <g transform="matrix(1.0, 0.0, 0.0, 1.0, 293.7, 85.6)">
    <path d="M-277.6 50.7 L-279.1 51.15 -282.2 51.75 -285.25 52.05 -288.2 52.0 -289.6 51.5 -291.6 50.2 Q-292.95 48.9 -293.25 47.0 L-293.6 44.35 -293.7 42.4 -293.3 38.55 -292.4 34.85 -290.9 31.5 -289.05 28.5 -287.65 26.65 -285.75 24.35 -283.8 22.15 -281.8 20.0 -279.75 17.9 -278.25 16.4 -276.4 14.45 -274.45 12.25 -272.55 9.95 -270.65 7.7 -268.75 5.5 -266.9 3.25 -264.6 0.25 -263.15 -1.55 -261.75 -3.05 -259.9 -5.0 -258.1 -7.1 -256.3 -9.1 -254.45 -11.2 -252.65 -13.2 -250.85 -15.3 -249.1 -17.4 -247.1 -19.7 -244.8 -22.35 -243.05 -24.3 -241.2 -26.7 -239.35 -29.05 -237.65 -31.45 -235.55 -34.3 -233.85 -36.65 -232.2 -39.05 -230.55 -41.5 -228.9 -44.0 -227.5 -46.0 -226.15 -48.0 -224.8 -49.65 -222.05 -52.4 -219.2 -54.45 -216.6 -55.8 Q-215.3 -56.5 -213.9 -57.0 L-211.2 -57.9 -208.25 -58.45 -205.35 -58.45 -201.7 -58.1 -198.15 -57.2 Q-196.4 -56.8 -194.65 -56.0 L-191.4 -54.45 -188.8 -53.0 -188.3 -52.7 -185.85 -51.5 Q-181.75 -49.35 -177.5 -49.7 L-178.25 -50.4 -185.35 -57.3 -191.8 -63.5 Q-194.0 -65.7 -195.15 -68.7 -196.4 -72.05 -193.95 -74.75 -190.65 -78.45 -186.25 -80.6 L-180.35 -83.1 -180.05 -83.2 -179.4 -83.5 -176.65 -84.35 -174.0 -85.05 -173.95 -85.05 -171.15 -85.35 -169.3 -85.5 -167.65 -85.6 -166.45 -85.6 -164.4 -85.3 Q-163.1 -85.05 -161.95 -84.3 -159.25 -82.7 -157.2 -80.25 L-152.5 -74.6 -147.2 -68.25 -142.25 -62.85 -136.5 -57.0 -130.75 -57.75 -128.3 -58.3 -120.5 -60.4 -115.35 -62.15 Q-113.95 -62.7 -112.65 -63.55 -111.1 -64.55 -109.65 -65.65 L-104.35 -69.7 Q-103.4 -70.4 -102.3 -70.8 L-97.1 -72.35 Q-94.95 -72.95 -92.85 -72.4 -90.4 -71.95 -88.1 -70.9 L-85.15 -69.25 -82.45 -67.25 Q-77.5 -63.1 -73.35 -58.2 L-68.65 -52.8 -62.0 -45.1 -61.0 -43.85 -53.7 -35.8 -49.45 -31.0 -49.1 -30.6 -44.95 -25.6 -38.2 -29.2 Q-33.95 -31.4 -30.15 -34.35 L-23.2 -39.75 -21.95 -40.7 Q-16.5 -45.15 -10.35 -48.35 -7.35 -50.05 -4.1 -51.15 7.15 -54.4 18.9 -52.95 L18.15 -52.95 Q25.05 -52.25 31.55 -49.85 50.85 -42.7 62.0 -25.3 L61.7 -24.85 62.3 -23.2 Q65.8 -12.4 64.0 -1.05 L63.55 3.55 63.5 5.65 73.6 7.85 94.0 11.95 102.6 13.2 111.3 14.55 124.35 16.4 139.15 18.0 146.5 18.45 150.1 18.55 158.7 18.9 169.9 19.4 176.55 18.9 181.8 18.1 186.75 17.45 193.0 18.7 197.7 19.25 198.15 18.8 200.5 18.95 204.95 19.05 210.5 18.25 218.8 17.0 222.25 16.55 234.3 15.4 246.3 14.15 255.85 13.8 261.3 14.15 263.5 14.1 267.65 14.65 271.85 15.5 Q273.75 15.9 275.1 17.1 L277.2 19.15 278.15 19.95 279.25 21.05 280.6 23.1 282.1 25.7 283.15 26.3 Q284.4 26.9 285.3 27.95 L284.55 27.6 282.8 27.8 282.3 27.95 279.05 27.5 269.65 27.95 Q268.9 28.0 268.25 28.45 L266.9 28.35 266.5 27.95 265.9 26.25 266.9 25.15 267.6 25.25 269.0 26.6 277.6 26.25 278.9 26.2 279.9 26.15 279.95 25.7 280.4 25.35 Q281.1 24.75 280.85 23.95 280.25 21.7 277.5 21.55 L277.3 21.6 276.95 21.25 262.8 21.1 261.9 20.15 262.7 19.45 263.7 19.15 264.45 19.3 269.3 19.55 273.1 18.95 273.15 18.95 275.2 18.25 275.3 18.1 275.35 17.95 275.4 17.8 275.35 17.65 275.3 17.55 275.2 17.4 275.0 17.2 Q273.35 16.0 271.25 15.85 L270.4 16.15 270.1 16.1 260.35 14.85 253.0 14.8 239.45 16.0 231.95 17.0 219.5 18.45 212.45 19.25 201.3 19.95 192.4 18.8 187.8 18.25 186.0 18.3 179.65 19.7 177.35 20.2 171.75 21.15 159.2 20.6 146.05 20.05 132.75 19.2 116.5 16.9 101.25 14.6 83.2 11.1 62.1 6.7 55.75 5.4 49.1 4.25 42.6 3.1 36.05 1.75 24.4 -0.55 12.65 -2.1 7.2 -1.8 -0.5 -1.45 -6.9 -0.65 -14.45 0.6 -23.15 2.15 -29.8 2.95 -30.05 2.95 -30.75 2.8 -31.3 2.1 -29.15 1.9 -26.5 1.65 -25.5 1.4 -19.0 0.25 -1.85 -1.9 -1.2 -2.0 -0.5 -2.1 -0.45 -2.1 6.45 -2.85 7.95 -2.95 19.8 -2.6 29.8 -1.3 41.25 0.95 44.75 1.8 47.3 2.3 47.45 2.35 51.2 3.1 60.3 4.95 61.15 2.8 62.4 -1.7 62.95 -5.7 62.95 -5.75 63.05 -8.3 Q63.25 -20.0 56.5 -30.0 47.0 -44.1 30.25 -49.4 13.25 -54.9 -3.65 -49.6 -8.05 -48.15 -12.1 -45.9 -16.5 -43.5 -20.35 -40.2 L-24.2 -37.15 Q-27.4 -34.7 -30.2 -31.75 L-30.4 -31.55 -32.9 -29.0 -38.4 -23.3 -42.65 -18.9 -47.9 -13.25 Q-52.9 -7.55 -57.5 -1.3 L-60.7 3.45 -63.3 7.8 Q-65.6 11.95 -66.5 16.7 -67.3 20.6 -67.15 24.75 L-66.6 30.4 Q-66.35 32.45 -65.6 34.45 -62.3 43.85 -52.9 47.1 -48.15 48.7 -43.1 49.2 L-27.8 50.8 3.6 53.2 19.75 52.6 49.0 51.7 77.15 50.4 108.45 48.35 137.25 46.55 167.6 45.55 192.35 46.9 209.95 48.8 Q224.75 50.9 239.45 53.75 254.5 56.45 269.7 56.45 275.2 56.45 280.55 55.1 288.85 53.05 294.4 47.05 L294.45 46.0 294.2 45.1 294.6 44.6 Q295.15 43.95 295.1 43.15 L295.1 43.1 295.2 43.3 Q295.55 44.1 295.55 44.95 L295.4 46.65 295.15 48.7 291.6 51.15 290.5 51.85 Q287.85 53.55 284.95 54.5 279.05 56.5 272.65 57.05 L263.85 57.2 Q251.5 57.2 239.45 55.1 L234.55 53.95 220.15 51.4 212.9 50.45 205.85 49.5 197.85 48.45 184.5 47.4 179.6 47.2 177.95 47.1 169.6 47.0 158.05 47.15 144.85 47.55 137.05 47.85 133.7 48.0 126.9 48.35 102.6 49.6 92.7 50.5 86.95 51.05 79.45 51.45 68.25 52.1 57.0 52.5 56.6 54.05 Q55.0 58.8 52.65 63.35 50.6 67.25 48.1 70.8 L43.7 76.3 Q39.95 80.35 35.75 83.8 33.25 85.75 30.05 85.6 L24.45 84.9 13.9 83.2 -1.25 80.95 -7.5 80.55 -13.0 79.6 -20.0 78.6 -27.35 77.35 -31.3 76.4 -36.35 75.3 -41.25 74.0 Q-47.95 72.05 -53.95 68.6 -57.65 66.45 -60.9 63.8 -66.15 59.45 -70.95 54.9 -74.15 52.0 -77.8 50.15 -79.95 49.1 -82.15 48.35 L-88.65 46.6 Q-95.6 44.65 -102.8 45.2 L-110.95 45.35 -118.3 45.3 -122.8 44.4 Q-128.9 42.85 -134.8 40.5 L-144.7 36.35 -154.3 32.1 Q-159.6 29.6 -164.55 26.25 -167.45 24.35 -169.8 21.95 L-175.0 16.45 -180.0 10.75 Q-182.65 7.35 -184.85 3.6 L-187.8 -1.5 Q-189.25 -3.95 -191.25 -5.8 L-195.15 -9.35 -199.45 -12.6 Q-201.2 -13.8 -203.2 -14.55 L-207.2 -16.1 -207.9 -15.8 -208.8 -15.2 -208.95 -15.2 -209.35 -14.95 -209.3 -15.05 -210.15 -14.4 -210.55 -14.05 -215.95 -8.3 Q-221.7 -1.7 -227.7 4.6 L-228.0 4.9 -229.95 7.0 -231.85 9.15 -233.8 11.25 -235.7 13.45 -238.25 16.3 -240.75 19.2 -243.15 22.25 -245.55 25.3 -247.1 27.2 -249.5 30.15 -251.4 32.4 -253.6 34.95 -256.15 37.8 -258.8 40.55 -260.2 41.85 -261.85 43.25 -263.65 44.55 -265.4 45.65 -267.2 46.75 -268.9 47.55 -267.15 46.5 -264.1 44.3 -261.2 41.85 -258.55 39.2 -256.05 36.25 -254.65 34.55 -253.25 32.75 -251.85 30.95 -250.25 28.95 -248.75 27.2 -247.15 25.4 -245.55 23.6 -244.05 21.8 -242.5 20.0 -240.9 18.2 -239.3 16.4 -237.75 14.55 -236.2 12.7 -234.65 10.9 -233.05 9.1 -231.5 7.25 -231.1 6.75 -229.75 5.45 -227.1 2.65 -226.35 1.8 -225.5 0.95 -223.0 -1.85 -218.7 -6.5 -213.7 -11.65 -211.2 -14.1 -207.45 -17.5 -207.05 -17.85 -203.75 -21.25 -203.3 -21.7 -199.4 -29.4 -199.25 -29.75 -199.35 -29.45 -200.15 -26.45 -200.4 -25.75 Q-201.35 -23.65 -202.55 -21.7 -204.1 -19.25 -206.2 -17.2 -203.5 -16.45 -200.95 -14.95 L-199.35 -14.0 -190.15 -7.35 -189.15 -6.75 -189.9 -11.65 -190.3 -15.25 -190.45 -17.9 -190.25 -26.4 -189.85 -17.7 -189.55 -15.5 -189.0 -12.25 -188.7 -10.65 Q-185.45 4.0 -174.5 15.75 -167.95 22.8 -159.7 27.75 -150.9 33.1 -141.3 36.95 -130.2 41.5 -118.3 43.0 L-109.0 43.85 Q-94.2 42.85 -80.6 48.55 -73.55 51.5 -67.7 56.4 -63.4 60.05 -58.7 63.2 -55.15 65.7 -51.25 67.6 -31.65 77.45 -9.7 79.3 L6.8 80.7 26.85 83.05 Q31.15 83.3 35.05 81.45 36.95 80.55 38.55 79.0 42.55 74.9 45.95 70.35 52.05 62.1 56.05 52.55 25.3 54.4 -5.4 53.6 L-26.85 52.4 Q-41.55 51.8 -55.7 47.4 -58.15 46.65 -60.25 45.0 -65.3 40.9 -67.45 34.7 L-67.85 33.3 -68.8 28.5 -69.05 23.7 -68.85 19.05 -73.8 14.55 -69.25 15.0 -68.15 16.0 -67.55 14.3 -67.45 14.1 -65.15 8.65 -62.55 3.6 Q-61.2 1.05 -59.5 -1.25 -54.9 -7.55 -49.7 -13.45 L-46.55 -16.95 -42.25 -21.7 -35.9 -28.5 -38.55 -27.25 -40.75 -26.15 -47.0 -21.7 Q-50.15 -19.5 -52.9 -16.95 -57.3 -12.8 -61.0 -7.9 L-63.55 -4.6 -65.2 -2.4 -69.6 3.6 -70.9 5.4 -74.55 10.35 -72.95 7.7 Q-69.4 1.95 -65.3 -3.5 L-61.8 -8.2 -61.3 -8.8 -57.9 -12.95 -55.65 -15.45 -56.35 -17.3 -56.45 -17.45 -57.6 -20.15 Q-58.55 -22.25 -59.95 -24.1 L-62.65 -27.15 -68.45 -32.2 -69.05 -32.1 -69.2 -30.95 -69.4 -28.35 -69.4 -28.3 Q-70.25 -18.55 -77.8 -12.75 -83.15 -8.55 -89.95 -8.35 -106.35 -7.95 -114.8 -22.0 -107.3 -11.0 -94.4 -9.25 L-86.55 -9.65 Q-72.05 -13.15 -70.85 -28.15 L-70.85 -28.2 Q-70.6 -32.0 -71.65 -35.8 L-71.8 -36.2 Q-72.95 -38.7 -74.45 -40.95 -76.0 -43.45 -77.85 -45.55 -80.65 -48.5 -84.1 -50.25 L-87.4 -51.6 -92.4 -53.5 -93.45 -54.0 -90.35 -53.4 -91.05 -53.7 -90.3 -53.55 -93.2 -56.45 -88.0 -53.15 -85.4 -51.9 Q-83.55 -50.95 -81.75 -49.8 L-78.55 -47.3 -75.65 -44.45 -74.15 -42.6 -72.25 -40.1 -71.15 -38.5 -69.2 -35.85 -63.0 -29.1 -58.85 -24.4 -56.5 -21.2 -55.35 -19.4 -54.35 -17.75 -51.2 -20.25 -45.5 -24.8 -48.05 -27.8 -50.0 -30.25 -56.25 -37.55 -68.6 -51.0 -75.4 -58.3 Q-78.25 -61.35 -81.4 -64.0 -84.75 -66.9 -88.35 -69.25 L-91.5 -71.0 Q-94.7 -72.2 -98.05 -71.55 -100.25 -71.05 -102.35 -69.8 L-106.1 -67.25 -111.8 -62.65 -116.9 -58.1 -120.95 -54.35 -124.2 -51.65 Q-127.0 -49.55 -130.3 -47.85 -131.95 -47.0 -133.0 -45.25 L-133.65 -44.4 -134.35 -43.75 -135.2 -43.35 Q-134.6 -44.9 -133.4 -46.1 L-131.4 -47.95 -129.0 -49.5 -127.35 -50.75 -126.45 -51.4 -126.2 -51.6 -126.35 -51.35 -126.5 -51.15 -126.3 -51.35 -126.15 -51.5 -125.05 -52.45 -123.2 -54.05 -121.95 -55.1 -119.9 -56.95 -118.6 -58.15 -116.6 -60.4 -135.85 -56.4 -132.15 -53.5 -131.4 -52.95 -129.7 -51.95 -128.35 -51.4 -128.7 -51.15 -128.8 -51.05 -131.45 -51.75 Q-132.0 -51.85 -132.35 -52.1 L-135.5 -55.0 -144.5 -63.8 Q-147.2 -66.45 -149.7 -69.55 L-153.0 -73.45 -157.45 -78.75 -160.0 -81.45 Q-163.8 -84.65 -168.8 -84.7 L-171.9 -84.35 -177.4 -83.2 -180.3 -82.1 -182.45 -81.4 Q-185.4 -80.25 -187.55 -77.9 L-186.05 -80.05 Q-189.7 -78.55 -192.25 -75.6 L-192.2 -75.05 Q-195.75 -70.6 -192.0 -66.0 L-186.05 -59.5 -179.2 -52.5 Q-176.0 -49.25 -172.15 -47.15 L-158.65 -44.9 -155.0 -44.5 -146.05 -44.15 -144.15 -44.15 -145.7 -43.9 -148.6 -43.7 -163.2 -44.7 -162.75 -44.65 -165.1 -45.1 -177.75 -48.05 Q-183.55 -49.65 -188.7 -52.65 L-189.45 -53.05 -192.0 -54.35 -194.7 -55.5 -198.2 -56.6 -201.8 -57.7 -204.8 -58.2 Q-206.8 -58.55 -208.75 -58.2 L-212.35 -56.95 -215.85 -55.3 -217.8 -54.1 -220.7 -51.95 -223.35 -49.45 -224.85 -47.75 -226.2 -45.95 -227.2 -44.5 -229.2 -41.45 -230.7 -39.35 -232.9 -36.2 -234.2 -34.4 -235.9 -32.0 -237.5 -29.5 -238.8 -27.3 Q-239.65 -25.55 -240.95 -24.15 L-242.75 -22.1 -244.5 -20.1 -246.35 -18.1 -248.75 -15.5 -251.2 -12.9 -252.7 -11.15 -254.95 -8.7 -257.5 -5.95 -258.9 -4.4 -260.3 -2.8 -262.3 -0.35 -264.35 2.05 -266.35 4.45 -268.3 6.9 -269.95 8.7 -272.4 11.45 -273.7 12.8 -276.4 15.5 -279.1 18.2 -281.75 20.9 -284.1 23.4 -286.05 25.7 -287.85 28.15 -289.4 30.75 -291.05 34.0 -291.8 36.1 -292.35 38.15 -292.7 40.3 -292.95 42.45 -292.95 44.55 -292.9 46.35 Q-292.8 48.35 -291.35 49.85 -290.05 51.2 -288.2 51.05 L-277.6 50.7 M286.6 29.9 L287.55 31.5 288.55 33.0 290.1 34.95 291.4 37.0 291.0 38.35 291.25 38.95 Q292.4 39.6 293.4 40.6 L294.0 41.25 293.9 41.2 293.65 41.05 Q292.55 40.3 291.2 40.2 289.8 40.25 288.35 40.65 288.05 40.7 287.85 40.9 L287.35 41.4 286.3 41.55 280.6 42.3 277.0 42.8 272.25 43.35 272.15 41.4 280.4 40.6 286.95 39.85 287.75 39.55 Q289.2 39.25 289.75 37.85 291.0 34.85 287.55 34.1 L286.35 34.35 272.5 35.05 272.1 35.7 270.05 35.4 269.6 34.55 270.5 33.65 277.85 33.0 282.9 32.5 Q283.95 32.7 285.25 32.05 L285.65 32.05 285.65 31.75 286.0 31.35 286.6 29.9 M-141.15 -44.35 L-136.75 -43.75 -136.45 -43.55 Q-136.6 -43.35 -137.1 -43.35 L-138.05 -43.4 -142.1 -44.3 -141.15 -44.35 M-176.9 -49.1 L-179.25 -49.05 -175.75 -48.05 -176.9 -49.1 M-177.75 -21.05 L-175.75 -18.4 Q-174.15 -15.85 -173.05 -12.7 L-172.1 -10.05 -171.4 -8.05 -170.7 -5.95 Q-167.1 8.55 -153.95 15.35 L-152.6 16.0 Q-165.55 12.1 -169.7 -1.2 L-171.85 -7.55 -173.25 -11.1 -173.75 -12.35 -177.75 -21.05 M-119.35 -1.05 Q-118.95 -3.7 -119.15 -6.45 -119.55 -12.9 -121.25 -19.1 L-120.15 -16.2 Q-119.15 -13.45 -118.9 -10.35 L-118.4 -4.0 -118.4 -2.1 Q-119.7 11.3 -132.45 16.35 L-134.15 16.85 -134.3 16.85 -143.45 17.65 -138.2 16.8 -138.0 16.75 Q-124.35 14.15 -120.0 1.3 L-119.35 -1.05" fill="#000000" fill-rule="evenodd" stroke="none"/>
    <path d="M-288.2 51.05 Q-290.05 51.2 -291.35 49.85 -292.8 48.35 -292.9 46.35 L-292.95 44.55 -292.95 42.45 -292.7 40.3 -292.35 38.15 -291.8 36.1 -291.05 34.0 -289.4 30.75 -287.85 28.15 -286.05 25.7 -284.1 23.4 -281.75 20.9 -279.1 18.2 -276.4 15.5 -273.7 12.8 -272.4 11.45 -269.95 8.7 -268.3 6.9 -266.35 4.45 -264.35 2.05 -262.3 -0.35 -260.3 -2.8 -258.9 -4.4 -257.5 -5.95 -254.95 -8.7 -252.7 -11.15 -251.2 -12.9 -248.75 -15.5 -246.35 -18.1 -244.5 -20.1 -242.75 -22.1 -240.95 -24.15 Q-239.65 -25.55 -238.8 -27.3 L-237.5 -29.5 -235.9 -32.0 -234.2 -34.4 -232.9 -36.2 -230.7 -39.35 -229.2 -41.45 -227.2 -44.5 -226.2 -45.95 -224.85 -47.75 -223.35 -49.45 -220.7 -51.95 -217.8 -54.1 -215.85 -55.3 -212.35 -56.95 -208.75 -58.2 Q-206.8 -58.55 -204.8 -58.2 L-201.8 -57.7 -198.2 -56.6 -194.7 -55.5 -192.0 -54.35 -189.45 -53.05 -188.7 -52.65 Q-183.55 -49.65 -177.75 -48.05 L-165.1 -45.1 -163.2 -44.7 -148.6 -43.7 -145.7 -43.9 -144.15 -44.15 -146.05 -44.15 -155.0 -44.5 -157.2 -44.95 Q-160.75 -45.75 -164.2 -47.15 L-165.95 -48.1 Q-169.8 -50.4 -172.9 -53.75 L-177.8 -59.2 -184.35 -66.4 Q-187.5 -69.75 -189.45 -74.15 L-188.8 -75.7 -187.55 -77.9 Q-185.4 -80.25 -182.45 -81.4 L-180.3 -82.1 -177.4 -83.2 -171.9 -84.35 -168.8 -84.7 Q-163.8 -84.65 -160.0 -81.45 L-157.45 -78.75 -153.0 -73.45 -149.7 -69.55 Q-147.2 -66.45 -144.5 -63.8 L-135.5 -55.0 -132.35 -52.1 Q-132.0 -51.85 -131.45 -51.75 L-128.8 -51.05 -128.7 -51.15 -127.35 -50.75 -129.0 -49.5 -131.4 -47.95 -133.4 -46.1 Q-134.6 -44.9 -135.2 -43.35 L-134.35 -43.75 -133.65 -44.4 -133.0 -45.25 Q-131.95 -47.0 -130.3 -47.85 -127.0 -49.55 -124.2 -51.65 L-120.95 -54.35 -116.9 -58.1 -111.8 -62.65 -106.1 -67.25 -102.35 -69.8 Q-100.25 -71.05 -98.05 -71.55 -94.7 -72.2 -91.5 -71.0 L-88.35 -69.25 Q-84.75 -66.9 -81.4 -64.0 -78.25 -61.35 -75.4 -58.3 L-68.6 -51.0 -56.25 -37.55 -50.0 -30.25 -48.05 -27.8 -45.5 -24.8 -51.2 -20.25 -53.8 -22.05 -53.9 -22.15 Q-58.1 -25.35 -61.75 -29.2 L-65.0 -33.2 Q-67.25 -36.4 -70.4 -38.6 -70.65 -39.05 -71.2 -39.2 L-71.25 -39.35 -72.05 -40.15 -72.15 -40.15 -72.25 -40.1 -74.15 -42.6 -75.65 -44.45 -78.55 -47.3 -81.75 -49.8 Q-83.55 -50.95 -85.4 -51.9 L-88.0 -53.15 -93.2 -56.45 -90.3 -53.55 -91.05 -53.7 -90.35 -53.4 -93.45 -54.0 -92.4 -53.5 -87.4 -51.6 -84.1 -50.25 Q-80.65 -48.5 -77.85 -45.55 -76.0 -43.45 -74.45 -40.95 -72.95 -38.7 -71.8 -36.2 L-71.65 -35.8 Q-70.6 -32.0 -70.85 -28.2 L-70.85 -28.15 Q-72.5 -20.35 -78.9 -16.1 -80.85 -14.8 -83.15 -14.0 -99.35 -8.75 -112.05 -20.7 L-113.65 -22.4 Q-114.65 -23.55 -115.15 -25.0 L-114.8 -22.0 Q-113.8 -16.5 -109.95 -11.85 -102.3 -2.45 -93.85 5.85 -90.45 9.25 -86.05 11.1 L-71.8 17.35 -69.45 18.65 -68.85 19.05 -69.05 23.7 -68.8 28.5 -67.85 33.3 -67.45 34.7 -69.0 34.15 Q-81.5 30.0 -94.7 31.15 -103.65 31.5 -112.6 31.35 -117.7 30.75 -120.05 26.35 -123.0 20.8 -121.2 14.7 -118.75 6.55 -118.4 -2.1 L-118.4 -4.0 -118.9 -10.35 Q-119.15 -13.45 -120.15 -16.2 L-121.25 -19.1 Q-119.55 -12.9 -119.15 -6.45 -118.95 -3.7 -119.35 -1.05 -121.55 6.05 -127.5 10.55 -135.85 16.8 -146.3 14.9 -162.95 12.0 -169.55 -3.3 L-170.7 -5.95 -171.4 -8.05 -172.1 -10.05 -173.05 -12.7 Q-174.15 -15.85 -175.75 -18.4 L-177.75 -21.05 -180.4 -23.1 Q-182.3 -24.45 -184.35 -25.55 -190.5 -29.1 -197.45 -29.95 L-199.15 -29.55 -199.35 -29.45 -199.25 -29.75 -199.4 -29.4 Q-202.2 -27.8 -204.6 -25.75 L-218.45 -13.5 -230.6 -2.6 Q-237.7 3.8 -244.2 10.7 L-256.5 23.4 -256.65 23.5 -261.2 28.6 -264.45 32.15 -266.45 34.4 -268.9 36.9 -271.45 39.3 -274.1 41.6 -276.9 43.7 -279.65 45.95 Q-281.05 47.15 -282.55 48.05 L-285.15 49.65 Q-286.7 50.55 -288.2 51.05 M-132.15 -53.5 L-135.85 -56.4 -116.6 -60.4 -118.6 -58.15 -119.9 -56.95 -121.95 -55.1 -124.4 -54.75 -127.15 -54.25 -130.75 -53.9 -130.95 -53.95 -131.0 -53.95 -131.6 -54.1 -131.65 -54.1 -131.65 -54.05 -131.75 -54.1 -131.9 -54.05 -132.05 -53.95 -132.1 -53.85 -132.15 -53.6 -132.1 -53.55 -132.15 -53.5 M-69.4 -28.3 L-69.4 -28.35 -69.2 -30.95 -69.05 -32.1 -68.45 -32.2 -62.65 -27.15 -59.95 -24.1 Q-58.55 -22.25 -57.6 -20.15 L-56.45 -17.45 -56.35 -17.3 -56.45 -17.25 -56.65 -17.05 -57.7 -16.15 -59.55 -14.0 -64.15 -7.75 -67.1 -3.8 Q-69.95 0.0 -71.95 4.3 L-72.15 4.6 -73.65 7.3 -73.75 7.75 Q-74.45 8.95 -74.65 10.2 L-74.55 10.35 -73.95 10.3 -73.05 8.95 -70.9 5.4 -69.6 3.6 -65.2 -2.4 -63.55 -4.6 -61.0 -7.9 Q-57.3 -12.8 -52.9 -16.95 -50.15 -19.5 -47.0 -21.7 L-40.75 -26.15 -38.55 -27.25 -35.9 -28.5 -42.25 -21.7 -46.55 -16.95 -49.7 -13.45 Q-54.9 -7.55 -59.5 -1.25 -61.2 1.05 -62.55 3.6 L-65.15 8.65 -67.45 14.1 -67.55 14.3 -68.85 14.15 Q-80.6 12.55 -90.25 5.7 -95.1 2.25 -99.35 -2.0 L-105.35 -7.95 Q-97.55 -4.0 -88.75 -4.5 -80.2 -5.0 -74.55 -11.45 -72.8 -13.45 -71.7 -15.8 -68.9 -21.8 -69.4 -28.3 M294.2 45.1 L294.45 46.0 294.4 47.05 Q279.6 53.45 263.55 50.6 250.7 48.25 237.7 46.95 L210.7 44.35 184.05 42.65 Q171.95 42.4 159.9 42.55 146.05 42.75 132.35 42.4 L112.5 42.15 Q96.85 42.1 81.1 41.55 65.35 40.7 49.6 40.7 L17.65 40.55 -14.2 38.7 Q-25.85 38.45 -36.95 42.1 -40.15 43.05 -43.45 43.6 -55.7 44.75 -64.0 36.0 L-65.6 34.45 Q-66.35 32.45 -66.6 30.4 L-67.15 24.75 Q-67.3 20.6 -66.5 16.7 -65.6 11.95 -63.3 7.8 L-60.7 3.45 -57.5 -1.3 Q-52.9 -7.55 -47.9 -13.25 L-42.65 -18.9 -38.4 -23.3 -32.9 -29.0 -30.4 -31.55 -30.2 -31.75 Q-27.4 -34.7 -24.2 -37.15 L-20.35 -40.2 Q-16.5 -43.5 -12.1 -45.9 -8.05 -48.15 -3.65 -49.6 13.25 -54.9 30.25 -49.4 47.0 -44.1 56.5 -30.0 63.25 -20.0 63.05 -8.3 L61.9 -6.0 61.5 -5.65 60.65 -4.8 59.55 -3.55 Q56.8 -0.9 53.2 0.3 L50.2 0.95 Q45.7 1.3 41.25 0.95 L29.8 -1.3 19.8 -2.6 7.95 -2.95 5.35 -3.25 -0.2 -3.45 -5.9 -3.65 -8.25 -3.5 Q-14.5 -3.65 -20.8 -3.25 L-24.6 -3.1 -28.3 -2.6 Q-29.6 -2.3 -30.65 -1.55 L-31.85 -0.4 -32.1 -0.05 -32.15 0.05 -32.35 0.45 -32.65 1.5 Q-32.85 2.2 -32.35 2.7 -31.35 3.95 -30.05 3.05 L-29.8 2.95 -23.15 2.15 -14.45 0.6 -6.9 -0.65 -0.5 -1.45 7.2 -1.8 12.65 -2.1 24.4 -0.55 36.05 1.75 42.6 3.1 49.1 4.25 55.75 5.4 62.1 6.7 83.2 11.1 101.25 14.6 116.5 16.9 132.75 19.2 146.05 20.05 159.2 20.6 171.75 21.15 177.35 20.2 179.65 19.7 186.0 18.3 187.8 18.25 192.4 18.8 201.3 19.95 212.45 19.25 219.5 18.45 231.95 17.0 239.45 16.0 253.0 14.8 260.35 14.85 270.1 16.1 270.4 16.15 Q269.35 16.75 269.75 18.3 L270.2 18.75 273.15 18.95 273.1 18.95 269.3 19.55 264.45 19.3 263.7 19.15 262.7 19.45 261.9 20.15 262.8 21.1 276.95 21.25 277.3 21.6 Q276.0 21.75 275.35 23.0 274.75 24.05 275.6 25.05 L276.0 25.45 Q276.75 26.05 277.6 26.25 L269.0 26.6 267.6 25.25 266.9 25.15 265.9 26.25 266.5 27.95 266.9 28.35 268.25 28.45 Q268.9 28.0 269.65 27.95 L279.05 27.5 282.3 27.95 Q280.75 28.45 280.75 30.25 L280.85 30.75 Q281.7 32.2 282.9 32.5 L277.85 33.0 270.5 33.65 269.6 34.55 270.05 35.4 272.1 35.7 272.5 35.05 286.35 34.35 Q284.55 34.9 284.7 37.2 284.8 39.85 287.55 39.55 L287.75 39.55 286.95 39.85 280.4 40.6 272.15 41.4 272.25 43.35 277.0 42.8 280.6 42.3 286.3 41.55 287.35 41.4 Q285.4 43.6 287.3 46.3 287.95 47.2 288.95 47.25 292.1 47.35 294.2 45.1 M62.95 -5.75 L62.95 -5.7 62.9 -5.7 62.95 -5.75 M279.95 25.7 L279.9 26.15 278.9 26.2 279.95 25.7 M285.65 31.75 L285.65 32.05 285.25 32.05 285.3 32.0 285.65 31.75 M-137.1 -43.35 L-136.15 -43.25 Q-136.6 -44.8 -139.2 -44.9 -140.25 -44.95 -141.15 -45.3 -145.85 -47.4 -150.8 -48.8 -162.45 -52.25 -171.55 -60.2 L-174.3 -62.6 Q-169.3 -55.9 -161.55 -51.75 -151.9 -46.65 -141.15 -44.35 L-142.1 -44.3 -138.05 -43.4 -137.1 -43.35 M-144.85 -8.45 L-145.45 -8.25 Q-146.6 -8.05 -147.65 -7.25 -149.0 -6.15 -149.75 -4.8 -150.55 -3.45 -150.9 -1.65 -151.25 0.4 -150.4 2.15 -149.85 3.2 -148.95 3.55 L-147.35 4.8 -146.55 5.2 -143.45 5.05 Q-142.1 4.95 -140.95 4.05 -139.8 3.55 -138.95 2.55 -136.85 -0.05 -137.95 -3.15 -138.65 -5.05 -139.85 -6.25 -141.65 -8.35 -144.85 -8.45 M-85.7 -33.5 Q-86.0 -31.2 -84.2 -29.85 -82.3 -28.45 -80.05 -28.3 -77.95 -28.1 -76.2 -29.25 -73.05 -31.35 -74.3 -34.9 -75.95 -39.5 -81.0 -39.3 -85.15 -37.9 -85.7 -33.5 M-138.0 16.75 L-138.2 16.8 -138.0 16.75" fill="#ffe8df" fill-rule="evenodd" stroke="none"/>
    <path d="M-277.6 50.7 L-288.2 51.05 Q-286.7 50.55 -285.15 49.65 L-282.55 48.05 Q-281.05 47.15 -279.65 45.95 L-276.9 43.7 -274.1 41.6 -271.45 39.3 -268.9 36.9 -266.45 34.4 -264.45 32.15 -261.2 28.6 -256.65 23.5 -256.5 23.4 -244.2 10.7 Q-237.7 3.8 -230.6 -2.6 L-218.45 -13.5 -204.6 -25.75 Q-202.2 -27.8 -199.4 -29.4 L-203.3 -21.7 -203.75 -21.25 -207.05 -17.85 -207.45 -17.5 -211.2 -14.1 -213.7 -11.65 -218.7 -6.5 -223.0 -1.85 -225.5 0.95 -226.35 1.8 -227.1 2.65 -229.75 5.45 -231.1 6.75 -231.5 7.25 -233.05 9.1 -234.65 10.9 -236.2 12.7 -237.75 14.55 -239.3 16.4 -240.9 18.2 -242.5 20.0 -244.05 21.8 -245.55 23.6 -247.15 25.4 -248.75 27.2 -250.25 28.95 -251.85 30.95 -253.25 32.75 -254.65 34.55 -256.05 36.25 -258.55 39.2 -261.2 41.85 -264.1 44.3 -267.15 46.5 -268.9 47.55 -269.0 47.6 -269.4 47.8 -270.9 48.5 -274.35 49.75 Q-275.95 50.4 -277.6 50.7 M-165.1 -45.1 L-162.75 -44.65 -163.2 -44.7 -165.1 -45.1 M-155.0 -44.5 L-158.65 -44.9 -172.15 -47.15 Q-176.0 -49.25 -179.2 -52.5 L-186.05 -59.5 -192.0 -66.0 Q-195.75 -70.6 -192.2 -75.05 L-192.25 -75.6 Q-189.7 -78.55 -186.05 -80.05 L-187.55 -77.9 -188.8 -75.7 -189.45 -74.15 Q-187.5 -69.75 -184.35 -66.4 L-177.8 -59.2 -172.9 -53.75 Q-169.8 -50.4 -165.95 -48.1 L-164.2 -47.15 Q-160.75 -45.75 -157.2 -44.95 L-155.0 -44.5 M-128.7 -51.15 L-128.35 -51.4 -129.7 -51.95 -131.4 -52.95 -132.15 -53.5 -132.1 -53.55 -132.15 -53.6 -132.1 -53.85 -132.05 -53.95 -131.9 -54.05 -131.75 -54.1 -131.65 -54.05 -131.65 -54.1 -131.6 -54.1 -131.0 -53.95 -130.95 -53.95 -130.75 -53.9 -127.15 -54.25 -124.4 -54.75 -121.95 -55.1 -123.2 -54.05 -125.05 -52.45 -126.15 -51.5 -126.2 -51.6 -126.45 -51.4 -127.35 -50.75 -128.7 -51.15 M-126.3 -51.35 L-126.5 -51.15 -126.35 -51.35 -126.3 -51.35 M-51.2 -20.25 L-54.35 -17.75 -55.35 -19.4 -56.5 -21.2 -58.85 -24.4 -63.0 -29.1 -69.2 -35.85 -71.15 -38.5 -72.25 -40.1 -72.15 -40.15 -72.05 -40.15 -71.25 -39.35 -71.2 -39.2 Q-70.65 -39.05 -70.4 -38.6 -67.25 -36.4 -65.0 -33.2 L-61.75 -29.2 Q-58.1 -25.35 -53.9 -22.15 L-53.8 -22.05 -51.2 -20.25 M-70.85 -28.15 Q-72.05 -13.15 -86.55 -9.65 L-94.4 -9.25 Q-107.3 -11.0 -114.8 -22.0 -106.35 -7.95 -89.95 -8.35 -83.15 -8.55 -77.8 -12.75 -70.25 -18.55 -69.4 -28.3 -68.9 -21.8 -71.7 -15.8 -72.8 -13.45 -74.55 -11.45 -80.2 -5.0 -88.75 -4.5 -97.55 -4.0 -105.35 -7.95 L-99.35 -2.0 Q-95.1 2.25 -90.25 5.7 -80.6 12.55 -68.85 14.15 L-67.55 14.3 -68.15 16.0 -69.25 15.0 -73.8 14.55 -68.85 19.05 -69.45 18.65 -71.8 17.35 -86.05 11.1 Q-90.45 9.25 -93.85 5.85 -102.3 -2.45 -109.95 -11.85 -113.8 -16.5 -114.8 -22.0 L-115.15 -25.0 Q-114.65 -23.55 -113.65 -22.4 L-112.05 -20.7 Q-99.35 -8.75 -83.15 -14.0 -80.85 -14.8 -78.9 -16.1 -72.5 -20.35 -70.85 -28.15 M-56.35 -17.3 L-55.65 -15.45 -57.9 -12.95 -61.3 -8.8 -61.8 -8.2 -65.3 -3.5 Q-69.4 1.95 -72.95 7.7 L-74.55 10.35 -70.9 5.4 -73.05 8.95 -73.95 10.3 -74.55 10.35 -74.65 10.2 Q-74.45 8.95 -73.75 7.75 L-73.65 7.3 -72.15 4.6 -71.95 4.3 Q-69.95 0.0 -67.1 -3.8 L-64.15 -7.75 -59.55 -14.0 -57.7 -16.15 -56.65 -17.05 -56.45 -17.25 -56.35 -17.3 M-67.45 34.7 Q-65.3 40.9 -60.25 45.0 -58.15 46.65 -55.7 47.4 -41.55 51.8 -26.85 52.4 L-5.4 53.6 Q25.3 54.4 56.05 52.55 52.05 62.1 45.95 70.35 42.55 74.9 38.55 79.0 36.95 80.55 35.05 81.45 31.15 83.3 26.85 83.05 L6.8 80.7 -9.7 79.3 Q-31.65 77.45 -51.25 67.6 -55.15 65.7 -58.7 63.2 -63.4 60.05 -67.7 56.4 -73.55 51.5 -80.6 48.55 -94.2 42.85 -109.0 43.85 L-118.3 43.0 Q-130.2 41.5 -141.3 36.95 -150.9 33.1 -159.7 27.75 -167.95 22.8 -174.5 15.75 -185.45 4.0 -188.7 -10.65 L-189.0 -12.25 -189.55 -15.5 -189.85 -17.7 -190.25 -26.4 -190.45 -17.9 -190.3 -15.25 -189.9 -11.65 -189.15 -6.75 -190.15 -7.35 -199.35 -14.0 -200.95 -14.95 Q-203.5 -16.45 -206.2 -17.2 -204.1 -19.25 -202.55 -21.7 -201.35 -23.65 -200.4 -25.75 L-200.15 -26.45 -199.35 -29.45 -199.15 -29.55 -197.45 -29.95 Q-190.5 -29.1 -184.35 -25.55 -182.3 -24.45 -180.4 -23.1 L-177.75 -21.05 -173.75 -12.35 -173.25 -11.1 -171.85 -7.55 -169.7 -1.2 Q-165.55 12.1 -152.6 16.0 L-153.95 15.35 Q-167.1 8.55 -170.7 -5.95 L-169.55 -3.3 Q-162.95 12.0 -146.3 14.9 -135.85 16.8 -127.5 10.55 -121.55 6.05 -119.35 -1.05 L-120.0 1.3 Q-124.35 14.15 -138.0 16.75 L-138.2 16.8 -143.45 17.65 -134.3 16.85 -134.15 16.85 -132.45 16.35 Q-119.7 11.3 -118.4 -2.1 -118.75 6.55 -121.2 14.7 -123.0 20.8 -120.05 26.35 -117.7 30.75 -112.6 31.35 -103.65 31.5 -94.7 31.15 -81.5 30.0 -69.0 34.15 L-67.45 34.7 M294.4 47.05 Q288.85 53.05 280.55 55.1 275.2 56.45 269.7 56.45 254.5 56.45 239.45 53.75 224.75 50.9 209.95 48.8 L192.35 46.9 167.6 45.55 137.25 46.55 108.45 48.35 77.15 50.4 49.0 51.7 19.75 52.6 3.6 53.2 -27.8 50.8 -43.1 49.2 Q-48.15 48.7 -52.9 47.1 -62.3 43.85 -65.6 34.45 L-64.0 36.0 Q-55.7 44.75 -43.45 43.6 -40.15 43.05 -36.95 42.1 -25.85 38.45 -14.2 38.7 L17.65 40.55 49.6 40.7 Q65.35 40.7 81.1 41.55 96.85 42.1 112.5 42.15 L132.35 42.4 Q146.05 42.75 159.9 42.55 171.95 42.4 184.05 42.65 L210.7 44.35 237.7 46.95 Q250.7 48.25 263.55 50.6 279.6 53.45 294.4 47.05 M63.05 -8.3 L62.95 -5.75 62.9 -5.7 62.95 -5.7 62.4 -1.7 61.15 2.8 60.3 4.95 51.2 3.1 47.45 2.35 47.3 2.3 44.75 1.8 41.25 0.95 Q45.7 1.3 50.2 0.95 L53.2 0.3 Q56.8 -0.9 59.55 -3.55 L60.65 -4.8 61.5 -5.65 61.9 -6.0 63.05 -8.3 M7.95 -2.95 L6.45 -2.85 -0.45 -2.1 -0.5 -2.1 -1.2 -2.0 -1.85 -1.9 -19.0 0.25 -25.5 1.4 -26.5 1.65 -29.15 1.9 -31.3 2.1 -30.75 2.8 -30.05 2.95 -29.8 2.95 -30.05 3.05 Q-31.35 3.95 -32.35 2.7 -32.85 2.2 -32.65 1.5 L-32.35 0.45 -32.15 0.05 -32.1 -0.05 -31.85 -0.4 -30.65 -1.55 Q-29.6 -2.3 -28.3 -2.6 L-24.6 -3.1 -20.8 -3.25 Q-14.5 -3.65 -8.25 -3.5 L-5.9 -3.65 -0.2 -3.45 5.35 -3.25 7.95 -2.95 M-141.15 -44.35 Q-151.9 -46.65 -161.55 -51.75 -169.3 -55.9 -174.3 -62.6 L-171.55 -60.2 Q-162.45 -52.25 -150.8 -48.8 -145.85 -47.4 -141.15 -45.3 -140.25 -44.95 -139.2 -44.9 -136.6 -44.8 -136.15 -43.25 L-137.1 -43.35 Q-136.6 -43.35 -136.45 -43.55 L-136.75 -43.75 -141.15 -44.35 M-176.9 -49.1 L-175.75 -48.05 -179.25 -49.05 -176.9 -49.1" fill="#e3c4b3" fill-rule="evenodd" stroke="none"/>
    <path d="M295.1 43.1 L295.1 43.15 Q295.15 43.95 294.6 44.6 L294.2 45.1 Q292.1 47.35 288.95 47.25 287.95 47.2 287.3 46.3 285.4 43.6 287.35 41.4 L287.85 40.9 Q288.05 40.7 288.35 40.65 289.8 40.25 291.2 40.2 292.55 40.3 293.65 41.05 L293.9 41.2 294.0 41.25 Q294.65 42.1 295.1 43.1 M270.4 16.15 L271.25 15.85 Q273.35 16.0 275.0 17.2 L275.2 17.4 275.3 17.55 275.35 17.65 275.4 17.8 275.35 17.95 275.3 18.1 275.2 18.25 273.15 18.95 270.2 18.75 269.75 18.3 Q269.35 16.75 270.4 16.15 M277.3 21.6 L277.5 21.55 Q280.25 21.7 280.85 23.95 281.1 24.75 280.4 25.35 L279.95 25.7 278.9 26.2 277.6 26.25 Q276.75 26.05 276.0 25.45 L275.6 25.05 Q274.75 24.05 275.35 23.0 276.0 21.75 277.3 21.6 M282.3 27.95 L282.8 27.8 284.55 27.6 285.3 27.95 Q286.7 28.7 286.6 29.9 L286.0 31.35 285.65 31.75 285.3 32.0 285.25 32.05 Q283.95 32.7 282.9 32.5 281.7 32.2 280.85 30.75 L280.75 30.25 Q280.75 28.45 282.3 27.95 M286.35 34.35 L287.55 34.1 Q291.0 34.85 289.75 37.85 289.2 39.25 287.75 39.55 L287.55 39.55 Q284.8 39.85 284.7 37.2 284.55 34.9 286.35 34.35 M-144.85 -8.45 Q-141.65 -8.35 -139.85 -6.25 -138.65 -5.05 -137.95 -3.15 -136.85 -0.05 -138.95 2.55 -139.8 3.55 -140.95 4.05 -142.1 4.95 -143.45 5.05 L-146.55 5.2 -147.35 4.8 -148.95 3.55 Q-149.85 3.2 -150.4 2.15 -151.25 0.4 -150.9 -1.65 -150.55 -3.45 -149.75 -4.8 -149.0 -6.15 -147.65 -7.25 -146.6 -8.05 -145.45 -8.25 L-144.85 -8.45 M-146.85 -2.8 L-147.0 -1.15 -145.5 0.8 -144.2 0.85 Q-142.4 0.75 -141.25 -0.6 L-141.15 -2.9 -141.55 -3.4 -141.85 -0.8 Q-142.3 -0.5 -142.75 -0.35 L-144.2 -0.3 Q-147.35 -1.2 -145.85 -4.2 L-146.85 -2.8 M-81.5 -31.8 Q-79.05 -31.15 -77.8 -33.3 L-77.1 -34.7 -79.95 -37.05 -78.85 -35.1 Q-78.75 -33.75 -79.8 -32.7 L-80.45 -32.35 -83.25 -33.4 -81.5 -31.8 M-85.7 -33.5 Q-85.15 -37.9 -81.0 -39.3 -75.95 -39.5 -74.3 -34.9 -73.05 -31.35 -76.2 -29.25 -77.95 -28.1 -80.05 -28.3 -82.3 -28.45 -84.2 -29.85 -86.0 -31.2 -85.7 -33.5" fill="#f5b8d8" fill-rule="evenodd" stroke="none"/>
    <path d="M-146.85 -2.8 L-145.85 -4.2 Q-147.35 -1.2 -144.2 -0.3 L-142.75 -0.35 Q-142.3 -0.5 -141.85 -0.8 L-141.55 -3.4 -141.15 -2.9 -141.25 -0.6 Q-142.4 0.75 -144.2 0.85 L-145.5 0.8 -147.0 -1.15 -146.85 -2.8 M-81.5 -31.8 L-83.25 -33.4 -80.45 -32.35 -79.8 -32.7 Q-78.75 -33.75 -78.85 -35.1 L-79.95 -37.05 -77.1 -34.7 -77.8 -33.3 Q-79.05 -31.15 -81.5 -31.8" fill="#ca228f" fill-rule="evenodd" stroke="none"/>
    <path d="M-128.15 9.7 L-128.7 10.25 -128.2 9.75 -128.15 9.7 M-115.65 -24.1 L-114.7 -24.6 -114.7 -24.55 -115.65 -24.1 M-91.75 -34.6 L-91.3 -35.05 -91.75 -34.55 -91.75 -34.6 M-104.4 -28.95 L-104.5 -28.1 -104.55 -28.1 -104.4 -28.95 M-91.4 -3.35 L-91.1 -2.8 -91.4 -3.35 M-74.65 2.75 L-74.9 3.15 -74.65 2.75 M-44.3 -25.55 L-43.85 -25.7 -43.9 -25.65 -44.3 -25.55" fill="#000000" fill-rule="evenodd" stroke="none"/>
    <path d="M-148.05 -13.95 L-134.4 -15.1 -127.25 -15.3 -125.4 -15.05 -125.5 -14.75 -125.5 -14.7 -125.3 -14.75 -125.1 -14.95 -125.3 -16.3 -126.25 -16.65 -127.4 -16.75 -131.7 -17.05 -132.25 -16.95 -140.05 -16.0 Q-133.8 -17.5 -127.4 -18.35 L-124.4 -18.4 -123.25 -17.9 -123.35 -17.05 -122.1 -13.8 -136.65 -12.2 -142.75 -10.8 Q-144.35 -10.5 -145.8 -9.9 L-145.7 -9.8 -145.9 -9.8 -145.6 -9.75 -145.15 -9.75 -133.4 -11.65 -123.1 -11.65 -123.55 -10.0 Q-129.15 -4.4 -136.5 -1.35 -138.35 -0.6 -139.75 0.6 L-141.0 1.1 -138.7 0.5 Q-131.35 -1.85 -124.7 -6.15 L-122.3 -3.85 Q-125.2 4.25 -132.1 8.95 -135.55 11.35 -139.7 12.65 L-142.2 13.6 -142.15 13.65 -142.35 13.65 -142.15 14.3 -141.35 14.5 -138.95 13.8 Q-132.3 11.65 -127.05 6.95 -131.6 12.5 -138.6 14.6 -145.7 16.85 -153.05 15.05 -157.55 13.9 -161.5 11.05 L-162.9 6.85 -163.4 4.15 -163.45 1.6 -164.35 8.75 Q-165.7 0.6 -161.6 -6.2 -157.75 -12.7 -151.1 -15.95 -145.0 -18.9 -138.35 -19.45 L-134.2 -20.2 -124.35 -19.85 Q-125.55 -19.0 -127.05 -19.35 -133.95 -18.7 -140.65 -16.9 L-143.95 -16.3 Q-148.55 -15.45 -151.55 -12.35 L-148.05 -13.95 M-128.1 9.65 L-128.15 9.7 -128.2 9.75 -128.1 9.65 M-121.35 13.75 L-120.25 11.1 Q-117.95 5.7 -114.25 1.15 -112.7 1.3 -111.9 2.35 L-110.5 3.8 Q-108.4 5.2 -106.4 7.0 L-105.15 7.95 Q-101.95 9.75 -100.65 13.15 L-99.55 12.6 -98.4 13.45 -95.3 14.7 -121.65 22.6 -121.9 19.5 -117.3 13.2 -121.85 16.4 -121.35 13.75 M-121.65 22.85 L-102.35 17.1 Q-97.4 15.65 -92.45 15.6 L-92.0 17.15 Q-90.9 17.45 -90.0 18.1 -89.15 18.6 -88.9 19.3 L-84.95 22.25 -83.65 21.7 Q-81.75 22.15 -80.85 23.85 L-72.9 27.8 -70.6 27.4 -68.65 28.9 -67.5 33.0 -74.1 32.7 -74.35 31.15 -74.75 29.55 -75.05 32.3 -95.1 31.4 -88.05 23.45 -91.1 25.95 Q-93.7 28.05 -95.7 31.4 L-96.5 31.4 -94.3 23.7 -94.45 23.9 -94.9 24.6 -95.4 25.4 -99.1 31.15 -114.2 28.85 -118.9 28.05 Q-121.0 26.05 -121.6 23.15 L-121.65 22.85 M-119.75 -22.7 L-119.3 -22.85 -117.45 -22.6 -118.75 -20.9 Q-120.3 -19.2 -122.6 -18.7 L-123.8 -19.45 -124.05 -19.9 -119.95 -22.6 -119.75 -22.7 M-114.2 -24.85 L-113.75 -25.0 -113.2 -24.6 -113.2 -20.6 -116.3 -23.8 -115.65 -24.1 -114.7 -24.55 -114.7 -24.6 -114.2 -24.85 M-140.55 -1.55 L-140.05 -1.1 -132.0 -5.65 -131.95 -5.7 -127.3 -8.15 -128.8 -7.5 -127.75 -8.1 -129.6 -7.15 -141.15 -2.15 -140.7 -1.7 -140.55 -1.55 M-101.85 -27.0 L-101.75 -27.1 Q-96.85 -36.4 -89.15 -43.5 -97.0 -40.6 -101.75 -33.7 L-95.45 -39.3 Q-100.55 -33.6 -103.25 -26.7 L-103.45 -26.3 -104.5 -28.1 -104.4 -28.95 -103.5 -31.15 Q-100.4 -38.85 -93.15 -43.0 -90.15 -44.7 -86.9 -45.8 -80.45 -47.9 -74.8 -44.8 L-74.9 -44.3 -78.4 -45.6 Q-79.35 -46.0 -79.75 -45.3 -76.2 -45.3 -74.1 -42.95 -68.7 -36.75 -68.35 -28.45 -67.95 -32.8 -69.5 -36.95 -67.95 -36.1 -67.2 -34.65 -64.7 -29.6 -60.3 -26.35 L-59.9 -25.0 -66.2 -21.2 -59.9 -24.4 -59.45 -24.35 -59.1 -23.5 Q-60.5 -22.7 -62.0 -22.1 -68.85 -19.1 -74.95 -14.45 L-73.8 -15.6 Q-69.45 -20.85 -68.55 -27.45 L-69.75 -23.95 Q-72.35 -17.25 -77.9 -12.95 -83.25 -9.8 -89.3 -9.95 L-90.75 -10.35 -91.5 -11.95 -91.3 -12.6 Q-84.1 -16.25 -77.85 -21.1 L-72.15 -25.9 Q-79.15 -20.0 -86.95 -15.75 -90.4 -13.95 -94.1 -12.65 -97.45 -14.2 -95.9 -18.05 L-95.6 -18.65 -95.75 -19.2 -83.25 -27.9 -95.0 -20.75 -90.1 -27.65 -88.85 -29.0 -97.65 -20.6 -99.15 -21.4 -99.1 -24.2 Q-95.15 -31.15 -89.4 -36.55 L-87.0 -38.7 -91.3 -35.05 -91.75 -34.6 -91.9 -34.4 Q-96.6 -31.55 -100.0 -27.15 L-101.65 -24.85 -101.85 -27.0 M-105.6 -27.55 L-104.6 -25.55 -108.3 -20.05 -109.1 -20.7 -105.85 -25.9 -111.25 -23.85 -112.45 -24.5 -105.6 -27.55 M-106.75 -13.65 Q-108.25 -16.3 -110.1 -18.65 -111.8 -20.8 -112.75 -23.05 L-112.35 -23.55 -109.2 -19.4 -103.7 -10.7 -104.55 -9.15 Q-104.9 -8.35 -105.8 -7.85 L-106.35 -7.6 -106.75 -8.2 -105.25 -10.65 -106.75 -13.65 M-114.25 -20.55 Q-115.25 -12.4 -117.05 -4.5 -118.45 1.7 -120.2 7.65 L-122.1 13.7 -124.2 13.0 -120.15 0.2 -118.9 -3.85 Q-117.0 -10.25 -115.7 -16.9 L-115.0 -20.0 -114.7 -20.6 -114.25 -20.55 M-111.6 -15.45 L-112.85 -19.95 Q-112.6 -19.85 -112.5 -19.65 -108.1 -11.1 -105.05 -2.4 L-102.65 4.3 -99.35 11.7 -100.7 12.35 Q-103.55 7.1 -105.5 1.55 L-108.75 -7.45 -110.05 -10.85 -111.6 -15.45 M-121.25 -9.75 L-121.7 -8.7 -118.65 -6.85 -118.95 -6.0 -123.1 -7.85 Q-120.9 -15.6 -116.8 -22.3 L-115.9 -22.4 -120.45 -11.6 -121.0 -11.05 -121.25 -9.85 -121.25 -9.75 M-102.85 -10.75 L-102.5 -11.1 -97.25 -12.55 -97.1 -11.7 -100.95 -6.0 -95.75 -8.35 -95.3 -7.15 -95.15 -6.0 Q-95.1 -2.55 -96.2 0.85 L-90.9 -1.15 -88.85 -0.15 -88.9 4.65 -84.85 3.05 -84.9 3.85 -89.45 6.35 -90.45 15.15 -89.7 15.85 -83.45 11.9 -83.15 4.55 -82.45 11.2 -76.5 7.55 -75.6 8.55 -75.4 13.4 -70.1 9.65 -69.2 10.2 -69.95 12.4 -70.1 13.55 -70.25 19.2 -67.65 17.75 -67.8 18.5 -70.2 20.55 -70.35 27.0 -71.1 21.4 -74.8 25.35 -75.65 25.45 -76.5 15.6 -82.25 21.8 -83.15 21.5 -83.35 12.9 -88.6 16.9 -88.95 16.55 -89.4 16.65 -90.5 15.75 -90.8 15.25 Q-91.3 11.2 -90.65 7.05 L-98.15 12.25 -98.9 10.8 -99.05 10.1 Q-99.0 6.35 -97.8 2.6 L-101.75 4.55 -102.1 3.9 -97.55 1.45 -95.65 -6.75 Q-99.05 -5.05 -102.25 -3.05 L-104.3 -1.25 -104.45 -2.4 -104.8 -2.75 -98.85 -11.25 -102.75 -9.9 -102.85 -10.75 M-91.4 -3.35 L-90.9 -6.0 -87.4 -8.0 -83.4 -9.1 -81.75 -9.6 Q-80.2 -10.35 -78.8 -11.3 -68.75 -17.95 -57.95 -23.25 L-57.5 -23.05 -56.5 -21.05 -76.2 3.45 -75.45 3.7 -74.9 3.15 -74.65 2.75 -64.45 -6.2 Q-67.45 -2.5 -69.35 1.8 -70.25 3.75 -71.65 5.65 -72.15 6.3 -73.0 6.7 L-75.1 5.55 -75.35 5.5 -75.65 5.45 -75.7 5.35 -75.6 5.35 -75.55 5.3 -75.5 5.25 -75.4 5.2 -76.3 4.55 -81.3 4.75 -81.3 2.95 Q-83.5 3.2 -84.85 1.5 -85.5 0.75 -86.3 0.55 -89.25 -0.55 -91.1 -2.8 L-91.4 -3.35 M-76.55 -2.6 L-79.55 2.05 -69.0 -9.7 Q-73.85 -7.8 -78.05 -4.7 -80.5 -2.9 -83.15 -1.55 L-83.3 -1.1 -78.4 -3.6 -76.25 -3.7 -76.55 -2.6 M-68.65 3.3 L-67.75 1.7 Q-64.25 -4.3 -59.85 -10.0 L-55.05 -16.45 Q-50.8 -22.25 -44.4 -25.5 L-44.3 -25.55 -43.9 -25.65 -48.05 -20.5 -45.4 -22.95 -38.3 -28.8 Q-34.1 -31.95 -29.45 -34.2 L-29.4 -34.1 -39.4 -24.25 -38.9 -25.05 -50.3 -14.25 Q-56.65 -8.0 -62.6 -1.25 -65.45 1.95 -67.7 5.6 L-68.65 3.3 M-74.85 23.6 L-71.1 20.1 -70.5 11.05 -71.1 11.3 -75.35 14.45 -74.85 23.6 M-76.55 14.5 L-76.55 9.15 -82.45 12.5 -82.4 20.75 -76.55 14.5 M-90.45 5.65 L-90.4 1.55 -90.6 -0.15 -96.5 2.1 -97.95 10.8 -90.45 5.65 M-110.65 4.85 L-113.7 8.35 Q-111.8 7.7 -111.05 5.9 L-110.65 4.85" fill="#ffffff" fill-rule="evenodd" stroke="none"/>
    <path d="M65.0 -10.4 L65.55 -9.9 62.7 5.2 60.5 4.9 62.55 1.15 62.75 0.4 63.0 -1.05 59.8 4.8 58.5 4.65 Q63.55 -1.95 64.6 -10.2 L65.0 -10.4" fill="#dbdce6" fill-rule="evenodd" stroke="none"/>
    <path d="M-148.05 -13.95 L-142.1 -15.25 -138.7 -16.05 -132.25 -16.95 -131.7 -17.05 -127.4 -16.75 -125.3 -16.0 -125.4 -15.05 -127.25 -15.3 -134.4 -15.1 -148.05 -13.95 M-140.05 -16.0 L-141.15 -15.75 -141.75 -15.6 -145.5 -14.9 Q-139.4 -16.75 -133.2 -18.05 L-126.95 -19.0 -123.7 -18.75 -123.25 -17.9 -124.4 -18.4 -127.4 -18.35 Q-133.8 -17.5 -140.05 -16.0 M-122.1 -13.8 L-122.2 -13.1 -122.75 -12.55 -130.15 -12.2 -145.7 -9.8 -145.8 -9.9 Q-144.35 -10.5 -142.75 -10.8 L-136.65 -12.2 -122.1 -13.8 M-123.55 -10.0 L-124.15 -8.0 -133.45 -1.95 -139.75 0.6 Q-138.35 -0.6 -136.5 -1.35 -129.15 -4.4 -123.55 -10.0 M-124.7 -6.15 L-123.5 -6.95 -119.75 -5.35 Q-120.05 0.9 -124.35 5.55 L-127.35 8.9 -128.1 9.65 -128.2 9.75 -128.7 10.25 -133.75 14.35 -132.8 13.9 Q-126.55 9.6 -121.9 3.4 L-125.0 13.4 -126.2 14.25 Q-133.85 19.3 -143.0 20.0 -147.8 20.4 -152.45 18.6 L-152.15 19.3 -150.05 20.0 Q-142.5 21.45 -135.1 18.75 L-134.75 18.65 Q-129.05 17.2 -124.25 13.7 L-121.8 14.65 -121.35 13.75 -121.85 16.4 -117.3 13.2 -121.9 19.5 -121.65 22.6 -131.45 24.6 -131.5 24.3 -123.25 18.35 -121.3 16.45 Q-124.9 19.65 -129.05 22.0 -131.1 23.2 -133.3 23.9 -135.05 24.65 -135.6 25.65 -132.1 25.75 -128.65 24.75 L-123.5 23.35 -121.65 22.85 -121.6 23.15 Q-121.0 26.05 -118.9 28.05 L-114.2 28.85 -99.1 31.15 -101.35 37.5 -100.25 38.55 -99.55 37.9 Q-97.4 35.45 -95.95 32.7 L-95.95 32.65 -95.1 31.4 -75.05 32.3 -74.75 29.55 -74.35 31.15 -73.85 37.7 -73.85 37.8 -69.0 56.0 -77.65 52.25 -78.3 50.8 Q-80.2 44.2 -80.3 37.25 -81.1 43.15 -79.65 48.75 -87.3 46.75 -95.0 45.3 -97.65 44.8 -100.2 46.1 -104.3 44.3 -108.95 43.95 L-122.15 42.95 Q-131.5 41.3 -140.2 37.45 -143.45 36.1 -147.15 35.9 -148.15 35.95 -148.75 35.3 -152.45 30.9 -155.2 26.05 L-150.75 34.45 -151.0 34.65 -151.25 34.7 -151.55 34.7 Q-153.1 33.9 -154.25 32.3 L-154.95 32.55 Q-156.35 31.85 -157.0 30.65 -158.75 27.5 -160.1 24.05 -162.9 16.65 -164.35 8.75 L-163.45 1.6 -163.4 4.15 -162.9 6.85 -161.5 11.05 Q-157.55 13.9 -153.05 15.05 -145.7 16.85 -138.6 14.6 -131.6 12.5 -127.05 6.95 L-125.35 4.8 -128.6 7.65 Q-134.6 12.7 -142.15 13.65 L-142.2 13.6 -139.7 12.65 Q-135.55 11.35 -132.1 8.95 -125.2 4.25 -122.3 -3.85 L-124.7 -6.15 M-67.5 33.0 Q-65.65 40.8 -58.95 45.25 -53.35 48.95 -46.85 50.25 L-32.35 51.95 -19.15 52.8 -6.85 53.7 Q-16.2 56.4 -25.7 58.65 -29.3 59.6 -32.95 60.7 -42.2 63.45 -50.35 68.4 L-52.25 69.45 -59.35 63.7 Q-62.3 64.35 -64.0 61.8 -69.95 52.7 -72.3 41.9 L-73.8 34.4 -74.1 32.7 -67.5 33.0 M-122.45 -17.5 L-120.75 -17.5 -121.6 -15.8 -122.45 -17.5 M-140.55 -1.55 L-140.7 -1.7 -141.15 -2.15 -129.6 -7.15 -140.55 -1.55 M-128.8 -7.5 L-127.3 -8.15 -131.95 -5.7 -128.8 -7.5 M-92.7 -41.45 L-92.4 -41.2 -99.8 -31.5 -100.65 -30.0 -101.85 -27.0 -101.65 -24.85 -100.0 -27.15 Q-96.6 -31.55 -91.9 -34.4 L-95.85 -29.95 -100.45 -23.15 -99.45 -23.65 -99.1 -24.2 -99.15 -21.4 -97.65 -20.6 -98.25 -19.75 -98.3 -19.7 -98.3 -18.05 Q-97.05 -18.6 -95.75 -19.2 L-95.6 -18.65 -95.9 -18.05 Q-97.45 -14.2 -94.1 -12.65 L-96.15 -12.15 Q-98.65 -13.6 -99.15 -16.75 L-99.65 -18.35 Q-101.95 -19.2 -102.1 -22.0 -102.25 -24.55 -103.8 -26.65 L-104.55 -28.1 -104.5 -28.1 -103.45 -26.3 -103.25 -26.7 Q-100.55 -33.6 -95.45 -39.3 L-92.7 -41.45 M-91.9 -34.4 L-91.75 -34.6 -91.75 -34.55 -91.9 -34.4 M-90.1 -27.65 L-95.0 -20.75 -97.65 -19.6 -90.1 -27.65 M-91.3 -12.6 L-91.5 -11.95 -90.75 -10.35 -89.3 -9.95 Q-83.25 -9.8 -77.9 -12.95 -84.5 -7.05 -92.95 -8.35 L-93.3 -8.1 -92.8 -7.5 -87.4 -8.0 -90.9 -6.0 -91.4 -3.35 -93.2 -6.9 -94.0 -7.55 Q-95.6 -9.05 -95.6 -11.05 L-96.15 -12.15 -95.85 -12.05 Q-93.55 -11.45 -91.3 -12.6 M-106.3 -16.85 L-106.1 -17.55 -99.7 -18.05 -103.35 -12.6 -104.15 -13.6 -101.75 -16.9 -106.3 -16.85 M-110.05 -10.85 L-110.6 -12.2 -108.9 -6.0 -110.1 -5.9 -111.75 -14.85 -111.35 -14.6 -111.6 -15.45 -110.05 -10.85 M-112.95 -16.45 Q-112.8 -16.2 -112.8 -15.8 -112.8 -15.4 -112.95 -15.1 -113.1 -14.85 -113.35 -14.85 L-113.75 -15.1 -113.9 -15.8 -113.75 -16.45 -113.35 -16.75 -112.95 -16.45 M-118.5 -15.9 L-116.7 -17.05 -116.15 -16.6 -116.2 -15.9 -118.5 -15.9 M-114.8 -13.6 L-114.4 -13.9 -114.1 -10.5 Q-113.9 -7.95 -114.5 -5.55 L-116.15 -5.45 -114.8 -13.6 M-121.25 -9.75 L-121.25 -9.85 -121.0 -11.05 -120.45 -11.6 -120.4 -11.6 -119.8 -11.05 Q-119.55 -10.55 -119.55 -9.85 -119.55 -9.15 -119.8 -8.6 -120.05 -8.1 -120.4 -8.1 L-121.0 -8.6 -121.25 -9.75 M-112.5 -9.55 L-111.65 -9.3 Q-111.35 -9.1 -111.35 -8.8 -111.35 -8.5 -111.65 -8.25 L-112.5 -8.05 -113.3 -8.25 -113.65 -8.8 -113.3 -9.3 -112.5 -9.55 M-112.7 -0.5 L-112.3 -0.25 -107.4 -1.9 -107.15 -0.75 -111.3 1.15 -114.45 -1.1 -110.95 -5.9 -110.9 -5.5 Q-111.2 -3.0 -112.7 -0.5 M-106.0 -11.1 L-105.8 -10.6 -106.0 -10.05 -106.55 -9.85 -107.05 -10.05 -107.3 -10.6 -107.05 -11.1 -106.55 -11.35 -106.0 -11.1 M-78.4 -3.6 L-70.4 -8.8 -70.35 -8.8 -76.55 -2.6 -76.25 -3.7 -78.4 -3.6 M-76.3 4.55 L-75.4 5.2 -75.5 5.25 -75.55 5.3 -75.6 5.35 -75.7 5.35 -75.65 5.45 -75.35 5.5 -75.1 5.55 -73.0 6.7 Q-72.15 6.3 -71.65 5.65 -70.25 3.75 -69.35 1.8 -67.45 -2.5 -64.45 -6.2 L-74.65 2.75 Q-70.65 -2.75 -66.25 -7.85 L-61.95 -12.6 -56.1 -17.85 -55.45 -17.9 -55.25 -17.4 -63.7 -5.9 -68.65 3.3 -67.7 5.6 Q-65.45 1.95 -62.6 -1.25 -56.65 -8.0 -50.3 -14.25 L-38.9 -25.05 -39.4 -24.25 -49.8 -13.15 Q-54.3 -8.05 -57.95 -2.6 -62.3 3.85 -65.7 10.95 L-66.2 12.05 -66.85 11.75 -68.05 9.95 Q-68.2 9.75 -68.4 9.65 -69.0 9.2 -69.55 8.85 L-70.75 8.0 -74.75 7.7 -76.3 4.55 M-56.4 -19.6 L-55.85 -18.85 -60.6 -14.95 -56.4 -19.6 M-51.7 67.5 L-52.25 67.2 -51.75 67.55 -52.15 68.2 -45.55 64.45 Q-40.3 61.6 -34.7 60.1 L-16.0 55.1 Q-23.35 56.5 -30.55 58.45 L-37.05 60.25 Q-45.0 62.5 -51.7 67.5 M-95.4 25.4 L-94.9 24.6 -94.45 23.9 -94.3 23.7 -96.5 31.4 -95.7 31.4 -99.45 37.5 -100.25 37.15 -100.0 35.95 Q-98.45 30.35 -95.4 25.4 M-106.25 2.1 L-105.75 2.35 -105.5 3.3 -106.25 5.0 -104.95 4.65 -104.25 5.55 -104.5 6.15 -105.4 6.7 -107.5 4.6 -106.25 2.1 M-126.9 12.95 L-124.9 11.35 Q-131.5 16.0 -139.2 17.65 -143.5 18.35 -147.85 17.75 -156.15 17.3 -161.8 11.4 L-163.0 10.2 -160.15 13.5 Q-153.7 18.55 -145.45 18.35 L-139.75 18.3 Q-132.65 17.55 -126.9 12.95 M-161.8 16.3 Q-160.4 23.4 -156.45 29.5 L-154.7 31.4 Q-155.3 29.8 -156.85 27.4 L-159.05 23.5 -161.25 18.2 -161.8 16.3" fill="#cacdd9" fill-rule="evenodd" stroke="none"/>
    <path d="M65.55 -10.25 L65.8 -7.8 Q65.5 -0.45 64.05 6.45 L56.75 5.15 58.55 3.0 Q63.15 -2.75 64.45 -10.15 L64.6 -10.85 65.55 -10.25 M65.0 -10.4 L64.6 -10.2 Q63.55 -1.95 58.5 4.65 L59.8 4.8 63.0 -1.05 62.75 0.4 62.55 1.15 60.5 4.9 62.7 5.2 65.55 -9.9 65.0 -10.4 M-132.25 -16.95 L-138.7 -16.05 -142.1 -15.25 -148.05 -13.95 -151.55 -12.35 Q-148.55 -15.45 -143.95 -16.3 L-140.65 -16.9 Q-133.95 -18.7 -127.05 -19.35 -125.55 -19.0 -124.35 -19.85 L-134.2 -20.2 -138.35 -19.45 Q-145.0 -18.9 -151.1 -15.95 -157.75 -12.7 -161.6 -6.2 -165.7 0.6 -164.35 8.75 -162.9 16.65 -160.1 24.05 -158.75 27.5 -157.0 30.65 -156.35 31.85 -154.95 32.55 L-154.25 32.3 Q-153.1 33.9 -151.55 34.7 L-151.25 34.7 -151.0 34.65 -150.75 34.45 -155.2 26.05 Q-152.45 30.9 -148.75 35.3 -148.15 35.95 -147.15 35.9 -143.45 36.1 -140.2 37.45 -131.5 41.3 -122.15 42.95 L-108.95 43.95 Q-104.3 44.3 -100.2 46.1 -97.65 44.8 -95.0 45.3 -87.3 46.75 -79.65 48.75 -81.1 43.15 -80.3 37.25 -80.2 44.2 -78.3 50.8 L-77.65 52.25 -69.0 56.0 -73.85 37.8 -73.85 37.7 -74.35 31.15 -74.1 32.7 -73.8 34.4 -72.3 41.9 Q-69.95 52.7 -64.0 61.8 -62.3 64.35 -59.35 63.7 L-52.25 69.45 -50.35 68.4 Q-42.2 63.45 -32.95 60.7 -29.3 59.6 -25.7 58.65 -16.2 56.4 -6.85 53.7 L-19.15 52.8 -32.35 51.95 -46.85 50.25 Q-53.35 48.95 -58.95 45.25 -65.65 40.8 -67.5 33.0 L-68.65 28.9 -70.6 27.4 -72.9 27.8 -80.85 23.85 Q-81.75 22.15 -83.65 21.7 L-84.95 22.25 -88.9 19.3 Q-89.15 18.6 -90.0 18.1 -90.9 17.45 -92.0 17.15 L-92.45 15.6 Q-97.4 15.65 -102.35 17.1 L-121.65 22.85 -123.5 23.35 -128.65 24.75 Q-132.1 25.75 -135.6 25.65 -135.05 24.65 -133.3 23.9 -131.1 23.2 -129.05 22.0 -124.9 19.65 -121.3 16.45 L-123.25 18.35 -131.5 24.3 -131.85 24.65 -131.45 24.6 -121.65 22.6 -95.3 14.7 -98.4 13.45 -99.55 12.6 -100.65 13.15 Q-101.95 9.75 -105.15 7.95 L-106.4 7.0 Q-108.4 5.2 -110.5 3.8 L-111.9 2.35 Q-112.7 1.3 -114.25 1.15 -117.95 5.7 -120.25 11.1 L-121.35 13.75 -121.8 14.65 -124.25 13.7 Q-129.05 17.2 -134.75 18.65 L-135.1 18.75 Q-142.5 21.45 -150.05 20.0 L-152.15 19.3 -152.45 18.6 Q-147.8 20.4 -143.0 20.0 -133.85 19.3 -126.2 14.25 L-125.0 13.4 -121.9 3.4 Q-126.55 9.6 -132.8 13.9 L-133.75 14.35 -128.7 10.25 -128.15 9.7 -128.1 9.65 -127.35 8.9 -124.35 5.55 Q-120.05 0.9 -119.75 -5.35 L-123.5 -6.95 -124.7 -6.15 Q-131.35 -1.85 -138.7 0.5 L-141.0 1.1 -139.75 0.6 -133.45 -1.95 -124.15 -8.0 -123.55 -10.0 -123.1 -11.65 -133.4 -11.65 -145.15 -9.75 -145.6 -9.75 -145.9 -9.8 -145.7 -9.8 -130.15 -12.2 -122.75 -12.55 -122.2 -13.1 -122.1 -13.8 -123.35 -17.05 -123.25 -17.9 -123.7 -18.75 -126.95 -19.0 -133.2 -18.05 Q-139.4 -16.75 -145.5 -14.9 L-141.75 -15.6 -141.15 -15.75 -140.05 -16.0 -132.25 -16.95 M-125.4 -15.05 L-125.3 -16.0 -127.4 -16.75 -126.25 -16.65 -125.3 -16.3 -125.1 -14.95 -125.3 -14.75 -125.5 -14.7 -125.5 -14.75 -125.4 -15.05 M-113.75 -25.0 Q-109.8 -26.4 -106.1 -28.4 L-105.75 -28.8 Q-103.05 -35.6 -97.8 -40.65 -91.8 -46.3 -83.65 -46.95 L-79.9 -47.1 Q-76.7 -46.7 -74.1 -44.95 L-74.15 -44.3 Q-71.85 -40.05 -68.4 -37.25 -67.05 -36.2 -66.1 -34.75 L-61.4 -27.75 -59.9 -27.4 Q-59.5 -25.65 -58.35 -24.55 L-57.35 -23.75 -55.35 -19.25 -53.75 -19.35 Q-48.75 -23.95 -42.6 -27.1 -41.5 -27.7 -40.6 -28.5 -36.4 -31.9 -32.15 -33.9 -28.85 -35.55 -25.3 -36.5 -37.75 -26.45 -47.8 -14.15 -55.55 -4.7 -62.05 5.6 -63.1 7.2 -63.95 8.95 -69.25 20.05 -66.65 31.85 -65.85 35.6 -63.95 38.8 -60.95 43.7 -55.8 46.15 -52.05 48.05 -47.95 48.55 L-43.8 49.4 -15.3 52.1 -2.1 53.2 Q-16.65 57.6 -31.4 61.2 -38.85 62.95 -45.45 66.45 L-52.15 70.7 Q-56.75 68.65 -60.3 65.1 -65.5 64.3 -67.6 59.35 -68.95 56.1 -72.2 54.9 -75.3 53.65 -78.4 52.85 L-80.25 49.35 Q-88.15 46.4 -96.3 45.65 -97.0 45.45 -97.6 45.9 L-100.15 46.25 -105.3 45.4 Q-115.0 45.6 -124.55 43.7 L-129.05 42.45 Q-137.5 39.5 -145.95 36.9 L-148.55 36.35 -150.6 35.05 -152.45 35.0 -153.95 33.85 -154.4 33.3 -154.95 33.5 Q-157.9 31.85 -159.15 28.4 L-161.55 22.1 Q-165.35 12.4 -164.9 2.25 -164.75 -1.8 -162.9 -5.45 -159.4 -12.3 -152.8 -16.0 -148.7 -18.25 -144.2 -19.0 L-145.05 -18.65 Q-134.3 -20.9 -123.2 -22.0 L-120.7 -22.35 -119.75 -22.7 -119.95 -22.6 -124.05 -19.9 -123.8 -19.45 -122.6 -18.7 Q-120.3 -19.2 -118.75 -20.9 L-117.45 -22.6 -119.3 -22.85 -114.65 -24.65 -114.2 -24.85 -114.7 -24.6 -115.65 -24.1 -116.3 -23.8 -113.2 -20.6 -113.2 -24.6 -113.75 -25.0 M-122.45 -17.5 L-121.6 -15.8 -120.75 -17.5 -122.45 -17.5 M-131.95 -5.7 L-132.0 -5.65 -140.05 -1.1 -140.55 -1.55 -129.6 -7.15 -127.75 -8.1 -128.8 -7.5 -131.95 -5.7 M-92.4 -41.2 L-91.45 -42.35 -92.7 -41.45 -95.45 -39.3 -101.75 -33.7 Q-97.0 -40.6 -89.15 -43.5 -96.85 -36.4 -101.75 -27.1 L-101.85 -27.0 -100.65 -30.0 -99.8 -31.5 -92.4 -41.2 M-91.3 -35.05 L-87.0 -38.7 -89.4 -36.55 Q-95.15 -31.15 -99.1 -24.2 L-99.45 -23.65 -100.45 -23.15 -95.85 -29.95 -91.9 -34.4 -91.75 -34.55 -91.3 -35.05 M-97.65 -20.6 L-88.85 -29.0 -90.1 -27.65 -97.65 -19.6 -95.0 -20.75 -83.25 -27.9 -95.75 -19.2 Q-97.05 -18.6 -98.3 -18.05 L-98.3 -19.7 -98.25 -19.75 -97.65 -20.6 M-94.1 -12.65 Q-90.4 -13.95 -86.95 -15.75 -79.15 -20.0 -72.15 -25.9 L-77.85 -21.1 Q-84.1 -16.25 -91.3 -12.6 -93.55 -11.45 -95.85 -12.05 L-96.15 -12.15 -95.6 -11.05 Q-95.6 -9.05 -94.0 -7.55 L-93.2 -6.9 -91.4 -3.35 -91.1 -2.8 Q-89.25 -0.55 -86.3 0.55 -85.5 0.75 -84.85 1.5 -83.5 3.2 -81.3 2.95 L-81.3 4.75 -76.3 4.55 -74.75 7.7 -70.75 8.0 -69.55 8.85 Q-69.0 9.2 -68.4 9.65 -68.2 9.75 -68.05 9.95 L-66.85 11.75 -66.2 12.05 -65.7 10.95 Q-62.3 3.85 -57.95 -2.6 -54.3 -8.05 -49.8 -13.15 L-39.4 -24.25 -29.4 -34.1 -29.3 -34.2 -29.45 -34.2 Q-34.1 -31.95 -38.3 -28.8 L-45.4 -22.95 -48.05 -20.5 -43.9 -25.65 -43.85 -25.7 -44.3 -25.55 -44.4 -25.5 Q-50.8 -22.25 -55.05 -16.45 L-59.85 -10.0 Q-64.25 -4.3 -67.75 1.7 L-68.65 3.3 -63.7 -5.9 -55.25 -17.4 -55.45 -17.9 -56.1 -17.85 -61.95 -12.6 -66.25 -7.85 Q-70.65 -2.75 -74.65 2.75 L-74.9 3.15 -75.45 3.7 -76.2 3.45 -56.5 -21.05 -57.5 -23.05 -57.95 -23.25 Q-68.75 -17.95 -78.8 -11.3 -80.2 -10.35 -81.75 -9.6 L-83.4 -9.1 -87.4 -8.0 -92.8 -7.5 -93.3 -8.1 -92.95 -8.35 Q-84.5 -7.05 -77.9 -12.95 -72.35 -17.25 -69.75 -23.95 L-68.55 -27.45 Q-69.45 -20.85 -73.8 -15.6 L-74.95 -14.45 Q-68.85 -19.1 -62.0 -22.1 -60.5 -22.7 -59.1 -23.5 L-59.45 -24.35 -59.9 -24.4 -66.2 -21.2 -59.9 -25.0 -60.3 -26.35 Q-64.7 -29.6 -67.2 -34.65 -67.95 -36.1 -69.5 -36.95 -67.95 -32.8 -68.35 -28.45 -68.7 -36.75 -74.1 -42.95 -76.2 -45.3 -79.75 -45.3 -79.35 -46.0 -78.4 -45.6 L-74.9 -44.3 -74.8 -44.8 Q-80.45 -47.9 -86.9 -45.8 -90.15 -44.7 -93.15 -43.0 -100.4 -38.85 -103.5 -31.15 L-104.4 -28.95 -104.55 -28.1 -103.8 -26.65 Q-102.25 -24.55 -102.1 -22.0 -101.95 -19.2 -99.65 -18.35 L-99.15 -16.75 Q-98.65 -13.6 -96.15 -12.15 L-94.1 -12.65 M-105.6 -27.55 L-112.45 -24.5 -111.25 -23.85 -105.85 -25.9 -109.1 -20.7 -108.3 -20.05 -104.6 -25.55 -105.6 -27.55 M-104.05 -24.7 L-107.05 -19.1 -103.7 -19.0 Q-102.15 -20.3 -102.55 -22.5 L-102.75 -23.45 -104.05 -24.7 M-111.1 -23.15 L-109.6 -21.35 -107.6 -24.65 -111.1 -23.15 M-108.35 -15.05 L-109.15 -15.5 Q-109.25 -13.15 -107.45 -11.65 L-107.0 -12.85 Q-107.15 -14.2 -108.35 -15.05 M-103.9 -15.9 L-105.7 -15.9 -104.8 -14.5 -103.9 -15.9 M-106.3 -16.85 L-101.75 -16.9 -104.15 -13.6 -103.35 -12.6 -99.7 -18.05 -106.1 -17.55 -106.3 -16.85 M-106.75 -13.65 L-105.25 -10.65 -106.75 -8.2 -106.35 -7.6 -105.8 -7.85 Q-104.9 -8.35 -104.55 -9.15 L-103.7 -10.7 -109.2 -19.4 -112.35 -23.55 -112.75 -23.05 Q-111.8 -20.8 -110.1 -18.65 -108.25 -16.3 -106.75 -13.65 M-114.25 -20.55 L-114.7 -20.6 -115.0 -20.0 -115.7 -16.9 Q-117.0 -10.25 -118.9 -3.85 L-120.15 0.2 -124.2 13.0 -122.1 13.7 -120.2 7.65 Q-118.45 1.7 -117.05 -4.5 -115.25 -12.4 -114.25 -20.55 M-116.0 -19.8 L-116.45 -19.6 -117.45 -17.7 -116.15 -17.4 -115.85 -20.25 -116.0 -19.8 M-110.05 -10.85 L-108.75 -7.45 -105.5 1.55 Q-103.55 7.1 -100.7 12.35 L-99.35 11.7 -102.65 4.3 -105.05 -2.4 Q-108.1 -11.1 -112.5 -19.65 -112.6 -19.85 -112.85 -19.95 L-111.6 -15.45 -111.35 -14.6 -111.75 -14.85 -110.1 -5.9 -108.9 -6.0 -110.6 -12.2 -110.05 -10.85 M-119.95 -19.05 L-122.15 -18.15 -120.2 -17.8 -119.65 -18.6 -119.95 -19.05 M-118.4 -15.15 L-119.9 -12.65 -119.15 -10.15 -116.7 -15.0 -118.4 -15.15 M-118.5 -15.9 L-116.2 -15.9 -116.15 -16.6 -116.7 -17.05 -118.5 -15.9 M-112.95 -16.45 L-113.35 -16.75 -113.75 -16.45 -113.9 -15.8 -113.75 -15.1 -113.35 -14.85 Q-113.1 -14.85 -112.95 -15.1 -112.8 -15.4 -112.8 -15.8 -112.8 -16.2 -112.95 -16.45 M-113.45 -17.55 L-113.2 -17.95 -113.8 -20.25 -113.45 -17.55 M-114.8 -13.6 L-116.15 -5.45 -114.5 -5.55 Q-113.9 -7.95 -114.1 -10.5 L-114.4 -13.9 -114.8 -13.6 M-112.55 -14.25 L-113.0 -13.4 Q-113.9 -11.7 -113.45 -9.75 L-111.8 -9.95 -112.55 -14.25 M-120.45 -11.6 L-115.9 -22.4 -116.8 -22.3 Q-120.9 -15.6 -123.1 -7.85 L-118.95 -6.0 -118.65 -6.85 -121.7 -8.7 -121.25 -9.75 -121.0 -8.6 -120.4 -8.1 Q-120.05 -8.1 -119.8 -8.6 -119.55 -9.15 -119.55 -9.85 -119.55 -10.55 -119.8 -11.05 L-120.4 -11.6 -120.45 -11.6 M-112.5 -9.55 L-113.3 -9.3 -113.65 -8.8 -113.3 -8.25 -112.5 -8.05 -111.65 -8.25 Q-111.35 -8.5 -111.35 -8.8 -111.35 -9.1 -111.65 -9.3 L-112.5 -9.55 M-111.4 -7.2 L-113.35 -6.9 -113.9 -4.7 -116.1 -4.5 -115.0 -1.7 -111.4 -7.2 M-112.7 -0.5 Q-111.2 -3.0 -110.9 -5.5 L-110.95 -5.9 -114.45 -1.1 -111.3 1.15 -107.15 -0.75 -107.4 -1.9 -112.3 -0.25 -112.7 -0.5 M-111.55 -1.2 L-108.0 -2.75 -108.6 -5.7 -108.85 -5.15 Q-109.85 -5.05 -110.3 -4.2 L-111.5 -1.65 -111.55 -1.2 M-103.6 -9.0 L-105.6 -6.4 -105.45 -4.8 -105.1 -4.4 -103.9 -4.8 -101.55 -9.5 -103.6 -9.0 M-106.0 -11.1 L-106.55 -11.35 -107.05 -11.1 -107.3 -10.6 -107.05 -10.05 -106.55 -9.85 -106.0 -10.05 -105.8 -10.6 -106.0 -11.1 M-102.85 -10.75 L-102.75 -9.9 -98.85 -11.25 -104.8 -2.75 -104.45 -2.4 -104.3 -1.25 -102.25 -3.05 Q-99.05 -5.05 -95.65 -6.75 L-97.55 1.45 -102.1 3.9 -101.75 4.55 -97.8 2.6 Q-99.0 6.35 -99.05 10.1 L-98.9 10.8 -98.15 12.25 -90.65 7.05 Q-91.3 11.2 -90.8 15.25 L-90.5 15.75 -89.4 16.65 -88.95 16.55 -88.6 16.9 -83.35 12.9 -83.15 21.5 -82.25 21.8 -76.5 15.6 -75.65 25.45 -74.8 25.35 -71.1 21.4 -70.35 27.0 -70.2 20.55 -67.8 18.5 -67.65 17.75 -70.25 19.2 -70.1 13.55 -69.95 12.4 -69.2 10.2 -70.1 9.65 -75.4 13.4 -75.6 8.55 -76.5 7.55 -82.45 11.2 -83.15 4.55 -83.45 11.9 -89.7 15.85 -90.45 15.15 -89.45 6.35 -84.9 3.85 -84.85 3.05 -88.9 4.65 -88.85 -0.15 -90.9 -1.15 -96.2 0.85 Q-95.1 -2.55 -95.15 -6.0 L-95.3 -7.15 -95.75 -8.35 -100.95 -6.0 -97.1 -11.7 -97.25 -12.55 -102.5 -11.1 -102.85 -10.75 M-98.45 -13.3 L-100.0 -15.6 -103.1 -11.95 Q-101.05 -11.8 -99.35 -12.8 L-98.45 -13.3 M-92.05 -1.55 L-94.0 -5.3 -95.2 -0.45 -92.05 -1.55 M-96.75 -9.6 L-96.75 -9.8 Q-98.75 -9.25 -100.0 -6.65 -98.6 -7.05 -97.4 -7.75 -96.0 -8.75 -96.75 -9.6 M-78.4 -3.6 L-83.3 -1.1 -83.15 -1.55 Q-80.5 -2.9 -78.05 -4.7 -73.85 -7.8 -69.0 -9.7 L-79.55 2.05 -76.55 -2.6 -70.35 -8.8 -70.35 -8.85 -70.4 -8.8 -78.4 -3.6 M-96.35 -5.65 L-102.35 -2.55 -103.65 0.2 -102.2 3.2 -98.15 0.95 -96.35 -5.65 M-56.4 -19.6 L-60.6 -14.95 -55.85 -18.85 -56.4 -19.6 M-78.55 23.8 L-77.65 23.8 -77.1 17.0 -79.45 19.8 -80.15 21.2 -78.55 23.8 M-77.05 6.1 L-79.1 6.5 -82.25 8.0 -82.15 9.9 -77.0 6.6 -77.05 6.1 M-71.8 9.7 L-74.9 9.0 -74.85 12.15 -71.8 9.7 M-74.85 23.6 L-75.35 14.45 -71.1 11.3 -70.5 11.05 -71.1 20.1 -74.85 23.6 M-71.7 20.0 L-71.1 11.3 -74.75 14.6 -74.3 22.3 -71.7 20.0 M-77.05 14.15 L-77.05 9.9 -81.85 12.95 -81.55 18.4 -77.05 14.15 M-68.05 16.8 L-67.1 13.7 -68.9 10.35 -69.65 18.0 -68.05 16.8 M-68.7 20.35 L-69.45 21.05 -69.6 26.7 -69.1 27.4 -68.7 20.35 M-76.55 14.5 L-82.4 20.75 -82.45 12.5 -76.55 9.15 -76.55 14.5 M-72.6 26.65 L-71.5 26.3 -71.7 23.45 -74.2 25.65 -74.25 26.1 -72.6 26.65 M-51.7 67.5 Q-45.0 62.5 -37.05 60.25 L-30.55 58.45 Q-23.35 56.5 -16.0 55.1 L-34.7 60.1 Q-40.3 61.6 -45.55 64.45 L-52.15 68.2 -51.75 67.55 -52.25 67.2 -51.7 67.5 M-90.45 5.65 L-97.95 10.8 -96.5 2.1 -90.6 -0.15 -90.4 1.55 -90.45 5.65 M-90.6 1.9 L-90.75 0.7 -95.85 2.35 -97.5 9.95 -91.25 5.5 -90.65 3.05 -90.6 1.9 M-84.3 11.4 L-84.05 3.8 -88.65 6.6 -89.4 14.8 -84.3 11.4 M-88.35 2.05 L-88.55 4.05 -85.7 2.4 -88.35 2.05 M-100.25 7.9 L-98.85 4.2 -101.35 5.15 -101.0 6.5 -100.25 7.9 M-91.3 8.2 L-95.75 11.55 -97.3 13.2 -92.05 14.6 -91.3 8.2 M-95.4 25.4 Q-98.45 30.35 -100.0 35.95 L-100.25 37.15 -99.45 37.5 -95.7 31.4 Q-93.7 28.05 -91.1 25.95 L-88.05 23.45 -95.1 31.4 -95.95 32.65 -95.95 32.7 Q-97.4 35.45 -99.55 37.9 L-100.25 38.55 -101.35 37.5 -99.1 31.15 -95.4 25.4 M-87.5 17.5 L-87.85 17.95 -85.45 21.55 -84.85 21.15 -84.0 21.1 -84.15 14.5 -87.5 17.5 M-106.25 2.1 L-107.5 4.6 -105.4 6.7 -104.5 6.15 -104.25 5.55 -104.95 4.65 -106.25 5.0 -105.5 3.3 -105.75 2.35 -106.25 2.1 M-110.65 4.85 L-111.05 5.9 Q-111.8 7.7 -113.7 8.35 L-110.65 4.85 M-110.75 1.55 L-110.55 2.75 -108.4 4.1 -106.75 0.05 -110.75 1.55 M-114.7 0.85 L-116.6 -1.65 -117.9 4.6 -114.7 0.85 M-142.15 13.65 Q-134.6 12.7 -128.6 7.65 L-125.35 4.8 -127.05 6.95 Q-132.3 11.65 -138.95 13.8 L-141.35 14.5 -142.15 14.3 -142.35 13.65 -142.15 13.65 M-161.8 16.3 L-161.25 18.2 -159.05 23.5 -156.85 27.4 Q-155.3 29.8 -154.7 31.4 L-156.45 29.5 Q-160.4 23.4 -161.8 16.3 M-126.9 12.95 Q-132.65 17.55 -139.75 18.3 L-145.45 18.35 Q-153.7 18.55 -160.15 13.5 L-163.0 10.2 -161.8 11.4 Q-156.15 17.3 -147.85 17.75 -143.5 18.35 -139.2 17.65 -131.5 16.0 -124.9 11.35 L-126.9 12.95" fill="#474b63" fill-rule="evenodd" stroke="none"/>
  </g>
</svg>
