<?xml version="1.0" encoding="UTF-8" standalone="no"?>
<svg xmlns:ffdec="https://www.free-decompiler.com/flash" xmlns:xlink="http://www.w3.org/1999/xlink" ffdec:objectType="shape" height="93.2px" width="364.45px" xmlns="http://www.w3.org/2000/svg">
  <g transform="matrix(1.0, 0.0, 0.0, 1.0, 182.2, 46.6)">
    <path d="M-143.2 -7.65 L-143.9 -7.8 -144.45 -8.5 -142.3 -8.7 -139.65 -8.95 -138.65 -9.2 -135.35 -9.75 -132.15 -10.35 -117.85 -12.2 -118.7 -14.25 -122.05 -18.95 Q-123.6 -21.05 -125.7 -22.6 L-129.3 -25.15 -130.6 -25.85 -133.2 -27.0 Q-135.85 -28.05 -138.8 -28.5 L-140.8 -28.95 Q-143.65 -29.2 -146.6 -29.0 L-152.15 -28.35 -155.9 -27.15 Q-157.7 -26.45 -159.4 -25.55 L-160.1 -24.95 -161.05 -23.85 Q-166.05 -18.15 -170.65 -11.9 L-173.85 -7.15 -176.45 -2.8 Q-178.75 1.35 -179.65 6.1 -180.45 10.0 -180.3 14.15 L-179.75 19.8 Q-179.5 21.85 -178.75 23.85 -175.45 33.25 -166.05 36.5 -161.3 38.1 -156.25 38.6 L-140.95 40.2 -109.55 42.6 -93.4 42.0 -64.15 41.1 -36.0 39.8 -4.7 37.75 24.1 35.95 54.45 34.95 79.2 36.3 96.8 38.2 Q111.6 40.3 126.3 43.15 141.35 45.85 156.55 45.85 L158.65 45.8 158.4 45.75 158.25 45.6 158.1 45.45 157.5 45.4 156.55 44.7 155.95 44.5 Q155.5 43.7 154.7 43.2 L153.6 40.5 150.8 33.9 146.6 24.55 142.25 14.95 141.8 13.95 138.55 7.25 138.55 7.1 138.55 6.95 138.5 6.85 138.35 6.7 138.35 6.55 138.35 6.45 138.3 6.3 138.2 6.15 138.2 6.05 138.2 5.9 138.1 5.75 138.0 5.6 137.9 4.55 137.85 4.35 133.3 4.7 126.3 5.4 118.8 6.4 106.35 7.85 99.3 8.65 88.15 9.35 79.25 8.2 74.65 7.65 72.85 7.7 66.5 9.1 64.2 9.6 58.6 10.55 46.05 10.0 32.9 9.45 19.6 8.6 3.35 6.3 -11.9 4.0 -29.95 0.5 -51.05 -3.9 -57.4 -5.2 -64.05 -6.35 -70.55 -7.5 -77.1 -8.85 -88.75 -11.15 -93.35 -11.75 -96.9 -12.2 -100.5 -12.65 -105.95 -12.4 -111.7 -12.1 -116.85 -11.65 -121.9 -10.9 -127.6 -10.0 -131.9 -9.2 -136.3 -8.45 -139.6 -8.05 -142.95 -7.65 -143.2 -7.65 M-180.7 3.7 L-180.6 3.5 -178.3 -1.95 -175.7 -7.0 -172.65 -11.85 Q-168.05 -18.15 -162.85 -24.05 L-161.1 -26.0 -158.8 -28.4 -156.45 -30.95 -154.1 -33.5 -151.45 -36.5 -149.4 -38.7 Q-148.2 -40.05 -147.6 -41.75 L-147.2 -43.1 -146.0 -43.15 -145.2 -42.15 Q-143.4 -44.2 -140.5 -44.6 L-138.75 -44.65 -138.45 -43.95 Q-135.45 -46.0 -131.9 -45.55 L-131.45 -45.2 -127.25 -46.6 -125.6 -45.75 Q-124.65 -45.3 -124.25 -44.4 L-121.9 -44.3 -121.3 -43.9 Q-118.1 -45.55 -114.7 -44.55 -114.1 -44.4 -113.8 -43.8 L-113.55 -41.75 -112.95 -41.65 -111.55 -40.75 -110.85 -39.95 -109.35 -39.8 Q-107.1 -39.9 -105.3 -38.6 L-103.55 -36.75 Q-102.5 -35.2 -103.45 -33.65 -102.8 -32.85 -102.4 -31.7 L-102.3 -31.25 Q-99.75 -31.1 -98.15 -29.0 -96.4 -26.85 -97.1 -24.2 L-96.35 -22.95 Q-95.85 -21.95 -96.15 -20.75 -94.8 -19.95 -93.95 -18.8 -93.1 -17.65 -93.05 -16.25 -92.95 -14.5 -93.35 -13.2 L-90.4 -12.8 -83.35 -11.9 -71.9 -9.65 -68.4 -8.8 -65.85 -8.3 -65.7 -8.25 -61.95 -7.5 -53.4 -5.75 -52.8 -5.55 -49.75 -5.0 -49.65 -4.95 -39.55 -2.75 -19.15 1.35 -10.55 2.6 -1.85 3.95 11.2 5.8 26.0 7.4 33.35 7.85 36.95 7.95 45.55 8.3 56.75 8.8 63.4 8.3 68.65 7.5 73.6 6.85 79.85 8.1 84.55 8.65 85.0 8.2 87.35 8.35 91.8 8.45 97.35 7.65 105.65 6.4 109.1 5.95 121.15 4.8 133.15 3.55 133.75 3.5 141.0 3.4 148.15 3.55 153.85 3.95 Q157.0 4.45 160.1 5.5 L161.65 6.45 167.05 11.55 Q170.35 14.9 173.2 18.55 L177.2 24.05 180.4 28.75 Q182.1 31.3 182.25 34.4 L182.2 36.25 182.0 38.1 178.15 40.75 177.35 41.25 Q174.7 42.95 171.8 43.9 165.9 45.9 159.5 46.45 L150.7 46.6 Q138.35 46.6 126.3 44.5 L121.4 43.35 107.0 40.8 99.75 39.85 92.7 38.9 84.7 37.85 71.35 36.8 66.45 36.6 64.8 36.5 56.45 36.4 44.9 36.55 31.7 36.95 23.9 37.25 20.55 37.4 13.75 37.75 -10.55 39.0 -20.45 39.9 -26.2 40.45 -33.7 40.85 -44.9 41.5 -56.15 41.9 -56.2 42.0 Q-56.55 41.85 -57.1 42.0 L-57.1 41.95 Q-87.85 43.8 -118.55 43.0 L-140.0 41.8 Q-154.7 41.2 -168.85 36.8 -171.3 36.05 -173.4 34.4 -178.45 30.3 -180.6 24.1 L-181.0 22.7 -181.95 17.9 -182.2 13.1 -182.05 9.75 -181.7 7.7 -181.1 4.9 -180.7 3.7 M-105.2 -13.55 L-95.35 -13.3 -94.6 -13.6 -94.35 -14.3 -94.75 -16.6 Q-95.45 -19.2 -97.9 -19.45 L-98.1 -19.85 -97.55 -20.55 Q-97.3 -21.0 -97.2 -21.5 -96.9 -22.65 -98.0 -23.2 L-98.65 -23.55 Q-98.15 -24.2 -98.1 -25.0 -98.0 -26.9 -98.95 -28.35 -99.45 -29.15 -100.25 -29.6 -101.65 -30.3 -103.2 -30.7 L-103.15 -31.35 -103.25 -32.0 -103.55 -32.45 -104.55 -33.0 Q-103.8 -34.1 -104.15 -35.4 -104.8 -37.7 -106.95 -38.45 L-109.5 -39.1 -111.3 -39.0 -111.45 -39.0 -111.7 -39.7 -112.0 -40.3 Q-112.55 -41.1 -113.35 -41.2 L-114.35 -40.85 Q-114.2 -42.2 -115.2 -43.15 -116.4 -44.25 -118.2 -43.8 -120.0 -43.45 -121.45 -42.2 L-121.45 -42.55 -121.5 -42.9 -121.85 -43.45 -122.0 -43.65 -123.15 -44.1 -124.65 -43.5 Q-124.85 -44.4 -125.5 -45.0 -127.05 -46.45 -128.85 -45.6 L-131.15 -44.4 -132.25 -43.8 -132.25 -44.0 -132.3 -44.55 -132.55 -45.0 -132.85 -45.35 -133.45 -45.55 Q-135.6 -45.15 -137.5 -43.85 L-139.7 -42.1 -139.65 -42.2 -139.45 -42.7 -139.5 -43.25 -139.65 -43.75 Q-140.35 -44.25 -140.95 -44.0 -143.1 -43.25 -144.7 -41.85 L-145.7 -40.85 -146.15 -42.55 -146.6 -42.9 Q-147.2 -42.55 -147.4 -41.85 -147.9 -40.25 -148.8 -38.85 -150.2 -36.65 -152.0 -34.8 L-154.0 -32.7 -155.5 -30.75 -155.55 -30.5 -153.3 -30.3 -152.55 -30.65 -152.05 -30.75 -151.5 -30.7 -151.5 -30.6 -152.7 -30.45 -152.9 -30.4 -154.1 -29.85 Q-155.55 -29.9 -156.9 -29.15 -158.45 -28.2 -158.95 -26.65 L-158.55 -26.55 -158.5 -26.55 -157.95 -26.8 -156.7 -27.45 Q-150.7 -29.85 -144.1 -29.3 L-144.7 -29.4 -140.2 -29.0 -135.0 -27.95 Q-129.8 -26.5 -125.55 -23.15 -123.1 -21.3 -121.05 -18.6 L-120.2 -17.4 -118.1 -14.3 -117.4 -12.25 Q-116.35 -12.35 -116.9 -13.4 L-117.65 -14.75 Q-117.2 -15.5 -117.75 -16.25 L-118.3 -16.75 -117.8 -16.4 Q-117.15 -15.55 -117.05 -14.55 L-116.75 -14.2 -116.4 -13.45 -116.25 -12.6 -115.0 -12.5 -106.7 -13.45 -105.2 -13.55 M-134.9 -40.8 L-134.2 -40.8 -134.7 -40.2 -136.65 -40.0 Q-135.7 -40.25 -134.9 -40.8 M-133.85 -42.0 L-133.3 -42.0 -133.3 -41.4 -133.85 -41.4 -133.85 -42.0 M-132.45 -42.1 Q-131.95 -42.3 -132.25 -41.9 -132.65 -41.4 -132.45 -42.1 M-140.4 -41.2 Q-139.9 -41.0 -140.2 -40.55 -140.7 -40.1 -141.05 -40.65 L-140.4 -41.2 M-140.6 -42.3 L-140.95 -42.1 -142.75 -40.05 Q-143.4 -39.15 -144.35 -39.1 L-143.4 -40.7 -144.15 -39.7 -145.55 -38.35 -144.0 -41.15 -143.7 -41.8 -143.55 -41.75 -143.8 -40.7 -142.75 -41.65 -142.65 -41.6 -142.55 -41.4 Q-141.6 -42.65 -140.6 -42.3 M-138.6 -41.15 L-138.7 -40.8 -139.0 -40.7 -139.25 -40.8 -139.4 -41.15 -139.25 -41.45 -139.0 -41.6 -138.7 -41.45 -138.6 -41.15 M-138.9 -40.4 L-138.7 -40.25 -138.25 -39.85 -138.85 -40.0 -139.05 -40.15 -140.6 -39.45 -141.5 -39.8 -141.45 -39.9 -141.2 -39.9 -140.6 -39.7 -139.15 -40.25 -138.9 -40.4 M-135.05 -43.4 L-133.7 -44.15 -134.95 -42.2 -134.1 -42.65 Q-133.25 -43.0 -132.95 -42.65 L-133.6 -42.3 Q-134.6 -41.8 -135.6 -41.45 L-135.8 -41.45 -134.85 -43.25 -135.75 -42.1 -136.9 -40.6 -137.25 -40.35 Q-137.05 -41.95 -136.25 -43.05 L-138.0 -41.05 -137.5 -43.2 -137.45 -43.2 -137.35 -43.15 -137.35 -43.05 -137.4 -42.25 -135.55 -44.15 -136.2 -42.4 -135.05 -43.4 M-121.7 -39.4 L-121.65 -39.5 -121.3 -38.9 -121.7 -39.4 M-126.45 -40.35 L-126.35 -40.85 Q-126.3 -40.55 -125.95 -40.7 -125.4 -40.75 -125.05 -40.4 L-123.1 -39.8 -123.55 -39.5 Q-124.8 -39.85 -125.6 -40.3 L-126.05 -40.15 -126.45 -40.35 M-123.85 -40.9 L-123.3 -42.0 Q-123.75 -41.2 -124.5 -41.2 -124.05 -41.6 -124.2 -42.55 -124.3 -43.05 -124.0 -42.65 L-124.05 -41.7 -122.7 -42.45 Q-123.2 -41.55 -122.3 -41.65 -122.65 -40.65 -123.85 -40.9 M-126.65 -41.55 Q-127.05 -41.35 -126.6 -41.7 -126.1 -41.65 -126.65 -41.55 M-127.25 -40.65 Q-128.75 -39.3 -131.05 -39.8 -131.5 -39.85 -131.6 -40.05 L-132.45 -40.5 -132.45 -40.55 Q-133.45 -40.7 -132.95 -40.9 L-132.05 -40.75 -130.95 -40.15 Q-129.2 -39.65 -128.05 -40.55 L-127.25 -40.65 M-131.45 -43.5 L-131.4 -43.45 Q-131.95 -43.45 -131.35 -43.75 L-131.1 -43.8 -130.9 -43.65 Q-130.35 -43.2 -130.55 -42.6 L-128.8 -44.4 -128.75 -44.3 -129.7 -41.5 Q-128.85 -43.0 -127.55 -44.0 L-126.6 -44.15 -127.75 -42.4 -125.45 -42.6 -125.6 -42.55 Q-126.95 -42.4 -127.9 -41.65 -128.4 -41.25 -128.5 -41.8 L-127.3 -43.7 -130.0 -40.7 -130.15 -40.75 -129.3 -43.55 -130.85 -41.4 -131.2 -43.55 -131.4 -43.55 -131.45 -43.5 M-132.65 -28.55 L-131.75 -28.6 -130.75 -28.15 -130.15 -28.0 -129.65 -27.5 -130.25 -27.4 -133.65 -28.9 -134.2 -29.15 Q-133.3 -29.05 -132.65 -28.55 M-147.55 -39.6 L-147.55 -39.4 -147.6 -39.3 -146.3 -40.45 -147.3 -37.6 Q-147.45 -37.2 -147.75 -37.45 L-147.85 -37.7 -147.35 -39.05 -147.8 -38.35 -147.5 -38.85 -148.75 -37.75 -149.3 -37.7 Q-148.5 -38.35 -147.9 -39.55 L-147.55 -39.6 M-128.75 -27.0 L-128.25 -27.05 Q-126.9 -26.8 -126.6 -25.75 L-125.7 -25.25 -124.8 -24.55 -123.8 -24.3 -123.0 -23.5 Q-122.3 -22.9 -122.35 -21.95 L-122.4 -21.9 -122.75 -22.4 Q-123.1 -23.15 -123.9 -23.5 -124.0 -24.1 -124.6 -24.3 -124.9 -24.35 -125.4 -24.7 L-128.75 -27.0 M-146.65 -39.05 L-146.55 -39.35 -146.3 -39.5 -146.05 -39.35 -145.95 -39.05 -146.05 -38.7 -146.3 -38.6 -146.55 -38.7 -146.65 -39.05 M-146.35 -37.95 L-144.95 -38.35 Q-143.75 -38.85 -142.5 -39.85 -142.25 -40.05 -142.0 -39.7 L-142.05 -39.6 Q-143.45 -38.5 -145.1 -38.1 L-146.35 -37.95 M-148.2 -31.05 L-145.45 -30.9 -145.25 -30.8 Q-145.1 -30.45 -145.65 -30.65 L-147.45 -30.3 -148.05 -30.7 -149.65 -30.8 -150.65 -30.5 -149.45 -31.25 -148.2 -31.05 M-137.45 -10.5 L-137.4 -10.4 -140.9 -10.55 -143.15 -10.1 -138.5 -10.85 Q-137.9 -10.85 -137.45 -10.5 M-112.35 -34.6 L-112.95 -34.85 -113.0 -35.5 Q-112.6 -35.3 -112.55 -34.8 L-112.35 -34.6 -111.7 -33.95 -111.65 -33.9 -112.05 -34.0 -112.35 -34.6 M-115.2 -37.9 L-114.7 -39.55 -114.55 -38.9 -113.3 -39.0 -113.3 -38.55 Q-112.75 -38.25 -112.9 -37.9 L-114.25 -37.8 -113.95 -38.65 -114.15 -38.5 Q-114.6 -37.4 -115.2 -37.9 M-115.8 -38.45 Q-116.6 -38.55 -115.95 -39.0 L-115.75 -38.7 -115.8 -38.45 M-118.6 -38.8 L-118.1 -38.7 -118.25 -38.55 Q-119.3 -38.55 -120.3 -39.15 -119.45 -38.75 -118.6 -38.8 M-120.75 -38.5 L-121.3 -38.9 -117.85 -37.75 -117.3 -37.8 -118.1 -37.5 -120.75 -38.5 M-121.4 -40.5 L-121.5 -40.45 Q-122.0 -40.45 -121.55 -40.75 -121.2 -40.85 -121.4 -40.5 M-118.25 -42.5 Q-117.6 -43.3 -116.8 -42.95 L-117.95 -40.55 -117.1 -41.3 -116.15 -41.95 -115.8 -42.05 -116.0 -41.25 -116.45 -40.55 -116.85 -40.1 -115.4 -40.15 -118.05 -39.1 -116.05 -41.6 -118.65 -39.5 -118.85 -39.45 -117.25 -42.65 Q-119.15 -41.4 -120.3 -39.55 L-120.45 -39.5 -120.45 -39.65 -120.3 -40.75 -120.35 -42.1 -120.4 -42.05 -120.45 -42.05 -120.45 -42.15 -120.35 -42.25 -120.3 -42.25 -119.9 -41.85 -119.95 -40.45 -118.25 -42.5 M-110.8 -37.7 L-110.9 -37.8 -110.95 -37.9 -110.9 -37.9 -110.85 -37.9 -110.45 -37.5 -110.45 -35.95 Q-109.6 -36.95 -108.2 -37.65 -108.6 -36.35 -109.4 -35.1 -107.9 -36.4 -105.95 -36.35 -106.5 -35.4 -107.55 -34.9 L-106.3 -34.85 -105.25 -34.4 -105.0 -34.0 -108.55 -33.3 -108.6 -33.45 -107.3 -34.15 -108.9 -34.1 -106.75 -36.0 -109.85 -34.5 -109.9 -34.55 Q-109.65 -35.95 -108.9 -37.0 L-110.75 -34.95 -110.9 -34.95 -110.65 -36.25 Q-110.55 -36.95 -110.8 -37.7 M-101.15 -27.0 Q-99.95 -27.3 -99.1 -26.6 L-101.8 -25.65 -101.2 -25.25 -100.15 -24.5 Q-99.55 -24.0 -99.95 -23.75 L-102.85 -24.6 -102.85 -24.75 -101.95 -24.9 -100.5 -24.35 -101.4 -24.95 -101.85 -25.15 Q-102.45 -25.15 -102.7 -25.6 L-100.2 -26.7 -103.25 -26.2 -103.1 -26.4 -100.65 -27.9 -102.0 -27.35 -103.75 -26.4 -103.6 -27.15 Q-103.2 -28.35 -103.4 -29.3 L-103.5 -28.6 -103.7 -28.0 Q-103.85 -27.45 -104.45 -27.05 L-103.6 -29.8 -103.0 -29.3 -103.2 -27.3 -101.7 -27.7 -100.05 -28.05 -101.9 -26.85 -101.15 -27.0 M-101.95 -18.2 L-101.8 -18.3 -101.95 -17.7 -101.55 -15.3 -101.25 -14.9 -101.05 -14.55 -101.75 -15.2 -102.2 -16.8 Q-102.5 -17.5 -101.95 -18.2 M-101.9 -21.4 L-101.3 -20.5 Q-102.1 -20.85 -102.2 -21.55 L-102.05 -22.0 -101.9 -21.4 M-103.25 -22.4 L-102.75 -22.6 -103.0 -21.85 -102.5 -21.05 -102.45 -20.2 -101.65 -19.6 -101.6 -19.45 -102.6 -19.95 -102.75 -20.8 -103.05 -21.1 Q-103.45 -21.7 -103.25 -22.4 M-104.85 -27.0 L-104.75 -26.25 Q-104.6 -25.25 -103.6 -24.65 L-103.9 -24.7 Q-104.95 -25.55 -104.85 -27.0 M-105.1 -28.95 L-104.55 -28.95 -104.85 -28.45 -105.1 -28.95 M-106.3 -28.45 Q-105.9 -28.4 -106.05 -28.05 -106.5 -27.0 -105.55 -26.3 L-105.5 -25.85 -104.75 -25.0 -104.5 -24.75 -103.5 -23.95 -104.9 -24.4 -105.25 -25.15 -106.75 -27.2 -106.3 -28.45 M-108.45 -31.8 L-108.1 -30.95 -107.6 -30.3 -107.5 -29.85 Q-106.65 -30.05 -106.7 -29.4 L-107.75 -29.65 -107.95 -30.3 -108.55 -30.8 -108.45 -31.8 M-107.45 -32.85 L-107.25 -32.75 -107.15 -32.55 -107.25 -32.35 Q-107.35 -32.25 -107.45 -32.25 -107.55 -32.25 -107.65 -32.35 L-107.75 -32.55 -107.65 -32.75 -107.45 -32.85 M-108.95 -32.45 L-108.95 -32.65 -108.7 -32.65 -108.7 -32.45 -108.95 -32.45 M-111.3 -34.95 L-111.25 -34.8 Q-110.7 -33.8 -109.6 -33.35 L-110.3 -33.35 -110.05 -33.25 -110.05 -32.8 -109.35 -32.65 -110.25 -32.6 Q-110.4 -33.25 -110.85 -33.55 L-110.45 -33.4 -110.8 -33.65 Q-111.3 -34.2 -111.3 -34.95 M-106.3 -31.9 Q-105.85 -32.95 -105.35 -32.45 L-105.65 -31.5 -105.35 -31.35 Q-104.65 -30.95 -104.9 -30.6 L-105.25 -30.2 -105.75 -30.15 Q-106.2 -30.75 -105.1 -30.95 L-105.6 -31.05 Q-106.35 -30.85 -106.2 -31.35 L-106.05 -31.65 Q-105.9 -31.9 -106.45 -31.65 L-106.3 -31.9 M-112.4 -36.85 L-112.2 -36.8 Q-112.55 -36.2 -112.4 -36.85 M-113.9 -36.4 L-113.9 -36.3 Q-113.25 -36.05 -113.7 -35.7 L-116.45 -36.6 -116.55 -36.75 -116.4 -37.5 Q-116.25 -37.65 -116.25 -37.0 -115.15 -36.45 -113.9 -36.4 M-118.55 -17.2 Q-118.95 -18.3 -119.8 -19.15 L-120.6 -19.8 Q-120.6 -20.7 -121.15 -21.3 L-121.65 -21.7 -120.6 -21.3 Q-120.1 -19.85 -119.15 -18.5 L-118.5 -17.2 -118.55 -17.2 M-100.7 -17.05 Q-100.25 -17.4 -100.6 -16.95 L-100.35 -16.25 -100.0 -15.35 -99.5 -14.45 Q-100.0 -14.45 -100.2 -14.9 L-100.75 -16.7 -100.7 -17.05 M-97.5 -19.15 L-97.45 -19.1 -97.45 -17.95 Q-97.55 -17.3 -97.9 -16.85 L-95.25 -17.05 Q-96.2 -16.15 -97.4 -15.55 L-95.6 -14.45 Q-95.1 -14.2 -95.15 -13.9 -97.0 -13.85 -98.45 -14.4 L-95.6 -14.2 Q-96.65 -15.05 -98.0 -15.05 -98.45 -14.85 -98.5 -15.4 L-96.05 -16.85 -99.05 -15.8 -97.8 -18.15 -99.25 -17.3 -99.35 -17.35 -99.2 -17.4 Q-98.15 -17.9 -97.5 -19.15 M-99.2 -18.85 L-99.1 -18.65 -99.2 -18.45 -99.4 -18.35 -99.6 -18.45 -99.7 -18.65 -99.6 -18.85 -99.4 -18.95 -99.2 -18.85 M-101.2 -23.3 L-101.2 -23.1 Q-101.8 -22.85 -101.2 -23.3 M-99.7 -23.05 L-99.6 -23.0 -99.55 -22.4 -99.9 -21.8 -99.35 -21.65 -99.1 -21.25 -99.1 -20.9 -99.6 -20.7 -99.55 -20.55 -99.5 -20.35 -100.2 -20.5 -100.25 -20.75 -99.8 -21.3 Q-100.0 -21.3 -100.15 -21.45 L-100.6 -21.55 -99.9 -22.7 -100.75 -22.05 -99.7 -23.05 M180.65 36.7 Q181.4 35.6 181.15 34.05 180.7 31.4 179.5 29.2 177.15 24.8 174.05 21.0 L171.0 17.35 165.65 11.3 160.8 6.9 Q159.6 5.95 158.15 5.5 L148.3 4.05 139.85 4.2 138.6 4.3 138.5 4.55 138.85 5.65 138.9 5.9 139.0 6.05 139.1 6.15 139.1 6.3 139.1 6.45 139.15 6.55 139.25 6.7 140.95 10.45 140.95 10.6 145.2 19.9 149.35 29.2 153.4 38.75 154.2 40.55 155.2 42.8 Q155.9 43.25 156.4 43.95 157.85 44.95 159.5 45.65 L159.45 45.75 159.55 45.75 Q163.5 45.5 167.4 44.5 172.7 43.2 176.85 40.3 L180.25 37.2 180.65 36.7" fill="#8189a3" fill-rule="evenodd" stroke="none"/>
    <path d="M-118.1 -14.3 L-120.2 -17.4 -121.05 -18.6 Q-123.1 -21.3 -125.55 -23.15 -129.8 -26.5 -135.0 -27.95 L-140.2 -29.0 -144.7 -29.4 -144.1 -29.3 Q-150.7 -29.85 -156.7 -27.45 L-157.95 -26.8 -158.5 -26.55 -158.55 -26.55 -158.95 -26.65 Q-158.45 -28.2 -156.9 -29.15 -155.55 -29.9 -154.1 -29.85 L-152.9 -30.4 -152.7 -30.45 -151.5 -30.6 -151.5 -30.7 -152.05 -30.75 -152.55 -30.65 -153.3 -30.3 -155.55 -30.5 -155.5 -30.75 -154.0 -32.7 -152.0 -34.8 Q-150.2 -36.65 -148.8 -38.85 -147.9 -40.25 -147.4 -41.85 -147.2 -42.55 -146.6 -42.9 L-146.15 -42.55 -145.7 -40.85 -144.7 -41.85 Q-143.1 -43.25 -140.95 -44.0 -140.35 -44.25 -139.65 -43.75 L-139.5 -43.25 -139.45 -42.7 -139.65 -42.2 -139.7 -42.1 -137.5 -43.85 Q-135.6 -45.15 -133.45 -45.55 L-132.85 -45.35 -132.55 -45.0 -132.3 -44.55 -132.25 -44.0 -132.25 -43.8 -131.15 -44.4 -128.85 -45.6 Q-127.05 -46.45 -125.5 -45.0 -124.85 -44.4 -124.65 -43.5 L-123.15 -44.1 -122.0 -43.65 -121.85 -43.45 -121.5 -42.9 -121.45 -42.55 -121.45 -42.2 Q-120.0 -43.45 -118.2 -43.8 -116.4 -44.25 -115.2 -43.15 -114.2 -42.2 -114.35 -40.85 L-113.35 -41.2 Q-112.55 -41.1 -112.0 -40.3 L-111.7 -39.7 -111.45 -39.0 -111.3 -39.0 -109.5 -39.1 -106.95 -38.45 Q-104.8 -37.7 -104.15 -35.4 -103.8 -34.1 -104.55 -33.0 L-103.55 -32.45 -103.25 -32.0 -103.15 -31.35 -103.2 -30.7 Q-101.65 -30.3 -100.25 -29.6 -99.45 -29.15 -98.95 -28.35 -98.0 -26.9 -98.1 -25.0 -98.15 -24.2 -98.65 -23.55 L-98.0 -23.2 Q-96.9 -22.65 -97.2 -21.5 -97.3 -21.0 -97.55 -20.55 L-98.1 -19.85 -97.9 -19.45 Q-95.45 -19.2 -94.75 -16.6 L-94.35 -14.3 -94.6 -13.6 -95.35 -13.3 -105.2 -13.55 -116.75 -14.2 -117.05 -14.55 Q-117.15 -15.55 -117.8 -16.4 L-118.3 -16.75 -117.75 -16.25 Q-117.2 -15.5 -117.65 -14.75 L-118.2 -14.7 Q-118.45 -15.2 -118.1 -14.3 M-131.45 -43.5 L-131.4 -43.55 -131.2 -43.55 -130.85 -41.4 -129.3 -43.55 -130.15 -40.75 -130.0 -40.7 -127.3 -43.7 -128.5 -41.8 Q-128.4 -41.25 -127.9 -41.65 -126.95 -42.4 -125.6 -42.55 L-125.45 -42.6 -127.75 -42.4 -126.6 -44.15 -127.55 -44.0 Q-128.85 -43.0 -129.7 -41.5 L-128.75 -44.3 -128.8 -44.4 -130.55 -42.6 Q-130.35 -43.2 -130.9 -43.65 L-131.1 -43.8 -131.35 -43.75 Q-131.95 -43.45 -131.4 -43.45 L-131.45 -43.5 M-127.25 -40.65 L-128.05 -40.55 Q-129.2 -39.65 -130.95 -40.15 L-132.05 -40.75 -132.95 -40.9 Q-133.45 -40.7 -132.45 -40.55 L-132.45 -40.5 -131.6 -40.05 Q-131.5 -39.85 -131.05 -39.8 -128.75 -39.3 -127.25 -40.65 M-126.65 -41.55 Q-126.1 -41.65 -126.6 -41.7 -127.05 -41.35 -126.65 -41.55 M-123.85 -40.9 Q-122.65 -40.65 -122.3 -41.65 -123.2 -41.55 -122.7 -42.45 L-124.05 -41.7 -124.0 -42.65 Q-124.3 -43.05 -124.2 -42.55 -124.05 -41.6 -124.5 -41.2 -123.75 -41.2 -123.3 -42.0 L-123.85 -40.9 M-126.45 -40.35 L-126.05 -40.15 -125.6 -40.3 Q-124.8 -39.85 -123.55 -39.5 L-123.1 -39.8 -125.05 -40.4 Q-125.4 -40.75 -125.95 -40.7 -126.3 -40.55 -126.35 -40.85 L-126.45 -40.35 M-121.7 -39.4 L-121.3 -38.9 -121.65 -39.5 -121.7 -39.4 M-135.05 -43.4 L-136.2 -42.4 -135.55 -44.15 -137.4 -42.25 -137.35 -43.05 -137.35 -43.15 -137.45 -43.2 -137.5 -43.2 -138.0 -41.05 -136.25 -43.05 Q-137.05 -41.95 -137.25 -40.35 L-136.9 -40.6 -135.75 -42.1 -134.85 -43.25 -135.8 -41.45 -135.6 -41.45 Q-134.6 -41.8 -133.6 -42.3 L-132.95 -42.65 Q-133.25 -43.0 -134.1 -42.65 L-134.95 -42.2 -133.7 -44.15 -135.05 -43.4 M-138.9 -40.4 L-139.15 -40.25 -140.6 -39.7 -141.2 -39.9 -141.45 -39.9 -141.5 -39.8 -140.6 -39.45 -139.05 -40.15 -138.85 -40.0 -138.25 -39.85 -138.7 -40.25 -138.9 -40.4 M-138.6 -41.15 L-138.7 -41.45 -139.0 -41.6 -139.25 -41.45 -139.4 -41.15 -139.25 -40.8 -139.0 -40.7 -138.7 -40.8 -138.6 -41.15 M-140.6 -42.3 Q-141.6 -42.65 -142.55 -41.4 L-142.65 -41.6 -142.75 -41.65 -143.8 -40.7 -143.55 -41.75 -143.7 -41.8 -144.0 -41.15 -145.55 -38.35 -144.15 -39.7 -143.4 -40.7 -144.35 -39.1 Q-143.4 -39.15 -142.75 -40.05 L-140.95 -42.1 -140.6 -42.3 M-140.4 -41.2 L-141.05 -40.65 Q-140.7 -40.1 -140.2 -40.55 -139.9 -41.0 -140.4 -41.2 M-132.45 -42.1 Q-132.65 -41.4 -132.25 -41.9 -131.95 -42.3 -132.45 -42.1 M-133.85 -42.0 L-133.85 -41.4 -133.3 -41.4 -133.3 -42.0 -133.85 -42.0 M-134.9 -40.8 Q-135.7 -40.25 -136.65 -40.0 L-134.7 -40.2 -134.2 -40.8 -134.9 -40.8 M-132.65 -28.55 Q-133.3 -29.05 -134.2 -29.15 L-133.65 -28.9 -130.25 -27.4 -129.65 -27.5 -130.15 -28.0 -130.75 -28.15 -131.75 -28.6 -132.65 -28.55 M-128.75 -27.0 L-125.4 -24.7 Q-124.9 -24.35 -124.6 -24.3 -124.0 -24.1 -123.9 -23.5 -123.1 -23.15 -122.75 -22.4 L-122.4 -21.9 -122.35 -21.95 Q-122.3 -22.9 -123.0 -23.5 L-123.8 -24.3 -124.8 -24.55 -125.7 -25.25 -126.6 -25.75 Q-126.9 -26.8 -128.25 -27.05 L-128.75 -27.0 M-147.55 -39.6 L-147.9 -39.55 Q-148.5 -38.35 -149.3 -37.7 L-148.75 -37.75 -147.5 -38.85 -147.8 -38.35 -147.35 -39.05 -147.85 -37.7 -147.75 -37.45 Q-147.45 -37.2 -147.3 -37.6 L-146.3 -40.45 -147.6 -39.3 -147.55 -39.4 -147.55 -39.6 M-148.2 -31.05 L-149.45 -31.25 -150.65 -30.5 -149.65 -30.8 -148.05 -30.7 -147.45 -30.3 -145.65 -30.65 Q-145.1 -30.45 -145.25 -30.8 L-145.45 -30.9 -148.2 -31.05 M-146.35 -37.95 L-145.1 -38.1 Q-143.45 -38.5 -142.05 -39.6 L-142.0 -39.7 Q-142.25 -40.05 -142.5 -39.85 -143.75 -38.85 -144.95 -38.35 L-146.35 -37.95 M-146.65 -39.05 L-146.55 -38.7 -146.3 -38.6 -146.05 -38.7 -145.95 -39.05 -146.05 -39.35 -146.3 -39.5 -146.55 -39.35 -146.65 -39.05 M-101.15 -27.0 L-101.9 -26.85 -100.05 -28.05 -101.7 -27.7 -103.2 -27.3 -103.0 -29.3 -103.6 -29.8 -104.45 -27.05 Q-103.85 -27.45 -103.7 -28.0 L-103.5 -28.6 -103.4 -29.3 Q-103.2 -28.35 -103.6 -27.15 L-103.75 -26.4 -102.0 -27.35 -100.65 -27.9 -103.1 -26.4 -103.25 -26.2 -100.2 -26.7 -102.7 -25.6 Q-102.45 -25.15 -101.85 -25.15 L-101.4 -24.95 -100.5 -24.35 -101.95 -24.9 -102.85 -24.75 -102.85 -24.6 -99.95 -23.75 Q-99.55 -24.0 -100.15 -24.5 L-101.2 -25.25 -101.8 -25.65 -99.1 -26.6 Q-99.95 -27.3 -101.15 -27.0 M-110.8 -37.7 Q-110.55 -36.95 -110.65 -36.25 L-110.9 -34.95 -110.75 -34.95 -108.9 -37.0 Q-109.65 -35.95 -109.9 -34.55 L-109.85 -34.5 -106.75 -36.0 -108.9 -34.1 -107.3 -34.15 -108.6 -33.45 -108.55 -33.3 -105.0 -34.0 -105.25 -34.4 -106.3 -34.85 -107.55 -34.9 Q-106.5 -35.4 -105.95 -36.35 -107.9 -36.4 -109.4 -35.1 -108.6 -36.35 -108.2 -37.65 -109.6 -36.95 -110.45 -35.95 L-110.45 -37.5 -110.85 -37.9 -110.9 -37.9 -110.95 -37.9 -110.9 -37.8 -110.8 -37.7 M-118.25 -42.5 L-119.95 -40.45 -119.9 -41.85 -120.3 -42.25 -120.35 -42.25 -120.45 -42.15 -120.45 -42.05 -120.4 -42.05 -120.35 -42.1 -120.3 -40.75 -120.45 -39.65 -120.45 -39.5 -120.3 -39.55 Q-119.15 -41.4 -117.25 -42.65 L-118.85 -39.45 -118.65 -39.5 -116.05 -41.6 -118.05 -39.1 -115.4 -40.15 -116.85 -40.1 -116.45 -40.55 -116.0 -41.25 -115.8 -42.05 -116.15 -41.95 -117.1 -41.3 -117.95 -40.55 -116.8 -42.95 Q-117.6 -43.3 -118.25 -42.5 M-121.4 -40.5 Q-121.2 -40.85 -121.55 -40.75 -122.0 -40.45 -121.5 -40.45 L-121.4 -40.5 M-120.75 -38.5 L-118.1 -37.5 -117.3 -37.8 -117.85 -37.75 -121.3 -38.9 -120.75 -38.5 M-118.6 -38.8 Q-119.45 -38.75 -120.3 -39.15 -119.3 -38.55 -118.25 -38.55 L-118.1 -38.7 -118.6 -38.8 M-115.8 -38.45 L-115.75 -38.7 -115.95 -39.0 Q-116.6 -38.55 -115.8 -38.45 M-115.2 -37.9 Q-114.6 -37.4 -114.15 -38.5 L-113.95 -38.65 -114.25 -37.8 -112.9 -37.9 Q-112.75 -38.25 -113.3 -38.55 L-113.3 -39.0 -114.55 -38.9 -114.7 -39.55 -115.2 -37.9 M-112.35 -34.6 L-112.55 -34.8 Q-112.6 -35.3 -113.0 -35.5 L-112.95 -34.85 -112.35 -34.6 -112.05 -34.0 -111.65 -33.9 -111.7 -33.95 -112.35 -34.6 M-113.9 -36.4 Q-115.15 -36.45 -116.25 -37.0 -116.25 -37.65 -116.4 -37.5 L-116.55 -36.75 -116.45 -36.6 -113.7 -35.7 Q-113.25 -36.05 -113.9 -36.3 L-113.9 -36.4 M-112.4 -36.85 Q-112.55 -36.2 -112.2 -36.8 L-112.4 -36.85 M-106.3 -31.9 L-106.45 -31.65 Q-105.9 -31.9 -106.05 -31.65 L-106.2 -31.35 Q-106.35 -30.85 -105.6 -31.05 L-105.1 -30.95 Q-106.2 -30.75 -105.75 -30.15 L-105.25 -30.2 -104.9 -30.6 Q-104.65 -30.95 -105.35 -31.35 L-105.65 -31.5 -105.35 -32.45 Q-105.85 -32.95 -106.3 -31.9 M-111.3 -34.95 Q-111.3 -34.2 -110.8 -33.65 L-110.45 -33.4 -110.85 -33.55 Q-110.4 -33.25 -110.25 -32.6 L-109.35 -32.65 -110.05 -32.8 -110.05 -33.25 -110.3 -33.35 -109.6 -33.35 Q-110.7 -33.8 -111.25 -34.8 L-111.3 -34.95 M-108.95 -32.45 L-108.7 -32.45 -108.7 -32.65 -108.95 -32.65 -108.95 -32.45 M-107.45 -32.85 L-107.65 -32.75 -107.75 -32.55 -107.65 -32.35 Q-107.55 -32.25 -107.45 -32.25 -107.35 -32.25 -107.25 -32.35 L-107.15 -32.55 -107.25 -32.75 -107.45 -32.85 M-108.45 -31.8 L-108.55 -30.8 -107.95 -30.3 -107.75 -29.65 -106.7 -29.4 Q-106.65 -30.05 -107.5 -29.85 L-107.6 -30.3 -108.1 -30.95 -108.45 -31.8 M-106.3 -28.45 L-106.75 -27.2 -105.25 -25.15 -104.9 -24.4 -103.5 -23.95 -104.5 -24.75 -104.75 -25.0 -105.5 -25.85 -105.55 -26.3 Q-106.5 -27.0 -106.05 -28.05 -105.9 -28.4 -106.3 -28.45 M-105.1 -28.95 L-104.85 -28.45 -104.55 -28.95 -105.1 -28.95 M-104.85 -27.0 Q-104.95 -25.55 -103.9 -24.7 L-103.6 -24.65 Q-104.6 -25.25 -104.75 -26.25 L-104.85 -27.0 M-103.25 -22.4 Q-103.45 -21.7 -103.05 -21.1 L-102.75 -20.8 -102.6 -19.95 -101.6 -19.45 -101.65 -19.6 -102.45 -20.2 -102.5 -21.05 -103.0 -21.85 -102.75 -22.6 -103.25 -22.4 M-101.9 -21.4 L-102.05 -22.0 -102.2 -21.55 Q-102.1 -20.85 -101.3 -20.5 L-101.9 -21.4 M-101.95 -18.2 Q-102.5 -17.5 -102.2 -16.8 L-101.75 -15.2 -101.05 -14.55 -101.25 -14.9 -101.55 -15.3 -101.95 -17.7 -101.8 -18.3 -101.95 -18.2 M-118.5 -17.2 L-119.15 -18.5 Q-120.1 -19.85 -120.6 -21.3 L-121.65 -21.7 -121.15 -21.3 Q-120.6 -20.7 -120.6 -19.8 L-119.8 -19.15 Q-118.95 -18.3 -118.55 -17.2 L-118.5 -17.15 -118.5 -17.2 M-99.7 -23.05 L-100.75 -22.05 -99.9 -22.7 -100.6 -21.55 -100.15 -21.45 Q-100.0 -21.3 -99.8 -21.3 L-100.25 -20.75 -100.2 -20.5 -99.5 -20.35 -99.55 -20.55 -99.6 -20.7 -99.1 -20.9 -99.1 -21.25 -99.35 -21.65 -99.9 -21.8 -99.55 -22.4 -99.6 -23.0 -99.7 -23.05 M-101.2 -23.3 Q-101.8 -22.85 -101.2 -23.1 L-101.2 -23.3 M-99.2 -18.85 L-99.4 -18.95 -99.6 -18.85 -99.7 -18.65 -99.6 -18.45 -99.4 -18.35 -99.2 -18.45 -99.1 -18.65 -99.2 -18.85 M-97.5 -19.15 Q-98.15 -17.9 -99.2 -17.4 L-99.35 -17.35 -99.25 -17.3 -97.8 -18.15 -99.05 -15.8 -96.05 -16.85 -98.5 -15.4 Q-98.45 -14.85 -98.0 -15.05 -96.65 -15.05 -95.6 -14.2 L-98.45 -14.4 Q-97.0 -13.85 -95.15 -13.9 -95.1 -14.2 -95.6 -14.45 L-97.4 -15.55 Q-96.2 -16.15 -95.25 -17.05 L-97.9 -16.85 Q-97.55 -17.3 -97.45 -17.95 L-97.45 -19.1 -97.5 -19.15 M-100.7 -17.05 L-100.75 -16.7 -100.2 -14.9 Q-100.0 -14.45 -99.5 -14.45 L-100.0 -15.35 -100.35 -16.25 -100.6 -16.95 Q-100.25 -17.4 -100.7 -17.05 M154.2 40.55 L153.4 38.75 149.35 29.2 145.2 19.9 140.95 10.6 140.95 10.45 139.25 6.7 139.15 6.55 139.1 6.45 139.1 6.3 139.1 6.15 139.0 6.05 138.9 5.9 138.85 5.65 138.5 4.55 138.6 4.3 139.85 4.2 148.3 4.05 158.15 5.5 Q159.6 5.95 160.8 6.9 L165.65 11.3 171.0 17.35 174.05 21.0 Q177.15 24.8 179.5 29.2 180.7 31.4 181.15 34.05 181.4 35.6 180.65 36.7 L174.75 38.8 Q164.75 41.7 154.2 40.55" fill="#ffffff" fill-rule="evenodd" stroke="none"/>
    <path d="M-118.1 -14.3 Q-118.45 -15.2 -118.2 -14.7 L-117.65 -14.75 -116.9 -13.4 Q-116.35 -12.35 -117.4 -12.25 L-118.1 -14.3 M-116.75 -14.2 L-105.2 -13.55 -106.7 -13.45 -115.0 -12.5 -116.25 -12.6 -116.4 -13.45 -116.75 -14.2 M180.65 36.7 L180.25 37.2 176.85 40.3 Q172.7 43.2 167.4 44.5 163.5 45.5 159.55 45.75 L159.5 45.65 Q157.85 44.95 156.4 43.95 155.9 43.25 155.2 42.8 L154.2 40.55 Q164.75 41.7 174.75 38.8 L180.65 36.7" fill="#dbdce6" fill-rule="evenodd" stroke="none"/>
    <path d="M-142.95 -7.65 L-143.2 -7.55 -143.2 -7.65 -142.95 -7.65 M-180.7 3.7 L-181.1 4.9 -180.9 4.15 -180.8 3.65 -180.7 3.7 M159.55 45.75 L159.45 45.75 159.5 45.65 159.55 45.75" fill="#e3c4b3" fill-rule="evenodd" stroke="none"/>
    <path d="M-118.5 -17.2 L-118.5 -17.15 -118.55 -17.2 -118.5 -17.2" fill="#000000" fill-rule="evenodd" stroke="none"/>
    <path d="M-50.2 -16.35 L-50.2 -16.3 -50.25 -16.3 -50.2 -16.35" fill="#ffe8df" fill-rule="evenodd" stroke="none"/>
  </g>
</svg>
