<?xml version="1.0" encoding="UTF-8" standalone="no"?>
<svg xmlns:ffdec="https://www.free-decompiler.com/flash" xmlns:xlink="http://www.w3.org/1999/xlink" ffdec:objectType="shape" height="32.1px" width="48.85px" xmlns="http://www.w3.org/2000/svg">
  <g transform="matrix(1.0, 0.0, 0.0, 1.0, 24.4, 12.8)">
    <path d="M7.75 -3.05 L11.95 -2.9 11.95 -0.4 7.15 -0.35 1.25 0.2 1.25 -2.65 5.25 -3.1 5.65 -9.65 1.9 -9.1 1.9 -11.95 6.45 -12.25 11.7 -12.35 11.65 -9.8 7.95 -9.65 7.75 -3.05 M16.7 -2.8 L19.1 -2.95 22.15 -2.85 22.1 -6.45 21.9 -10.2 17.05 -9.7 16.7 -2.8 M18.95 -12.65 L22.0 -12.75 Q23.4 -12.65 23.85 -11.7 L24.2 -9.95 24.45 -0.25 18.55 -0.25 14.4 0.2 14.95 -12.2 18.95 -12.65 M23.65 7.95 L24.15 18.6 Q16.4 18.45 12.55 18.6 L2.8 19.3 Q2.95 14.35 3.25 10.0 L3.9 4.4 17.8 4.05 Q20.55 3.95 21.7 4.55 23.55 5.55 23.65 7.95 M15.0 10.7 L17.9 10.7 17.9 12.3 Q19.1 12.7 19.15 13.45 19.15 14.05 18.2 14.45 L19.05 14.45 19.15 15.9 7.5 16.35 7.6 14.65 11.45 14.4 11.55 12.5 8.7 12.75 8.9 10.9 11.7 10.75 11.7 9.5 7.7 9.8 7.95 7.8 18.3 7.55 18.3 9.4 15.1 9.3 15.0 10.7 M18.5 6.8 L18.3 6.8 18.25 6.8 18.2 6.55 18.5 6.8 M19.05 6.5 L7.7 6.75 6.75 16.6 19.7 16.4 19.5 10.3 19.05 6.5 M16.7 14.45 Q14.9 13.5 16.5 12.4 L15.0 12.4 15.0 14.45 16.7 14.45 M-20.4 -3.05 L-20.0 -9.55 -23.75 -9.05 -23.75 -11.85 -19.2 -12.2 -14.0 -12.3 -14.05 -9.75 -17.7 -9.55 -17.9 -3.0 -13.7 -2.85 -13.7 -0.35 -18.5 -0.3 -24.4 0.25 -24.4 -2.6 -20.4 -3.05 M-3.65 -12.7 Q-2.3 -12.6 -1.85 -11.65 -1.55 -10.95 -1.5 -9.9 L-1.2 -0.15 -7.1 -0.15 -11.25 0.25 -10.7 -12.15 -6.7 -12.55 -3.65 -12.7 M-3.75 -10.15 L-8.65 -9.65 -8.95 -2.75 -6.55 -2.85 -3.5 -2.8 -3.55 -6.35 -3.75 -10.15 M-4.25 12.15 L-10.45 12.25 -10.35 15.9 -1.45 15.95 -1.45 18.4 -11.3 18.5 -23.95 19.3 -24.05 16.3 -15.45 16.0 -15.25 12.6 -21.15 13.15 -21.4 10.5 -14.95 10.0 -14.55 7.1 -23.2 8.0 -23.6 4.9 -1.8 4.3 -1.8 6.75 -10.15 6.85 -10.45 9.9 -4.25 9.8 -4.25 12.15" fill="#ffffff" fill-rule="evenodd" stroke="none"/>
  </g>
</svg>
