<?xml version="1.0" encoding="UTF-8" standalone="no"?>
<svg xmlns:ffdec="https://www.free-decompiler.com/flash" xmlns:xlink="http://www.w3.org/1999/xlink" ffdec:objectType="shape" height="400.1px" width="600.0px" xmlns="http://www.w3.org/2000/svg">
  <g transform="matrix(1.0, 0.0, 0.0, 1.0, 0.0, 0.05)">
    <path d="M600.0 75.75 L600.0 80.35 593.4 80.25 595.45 81.55 600.0 81.55 600.0 88.75 557.95 89.55 600.0 90.0 600.0 97.5 567.9 100.7 600.0 103.15 600.0 173.4 563.75 177.6 600.0 183.45 600.0 236.6 Q537.45 234.4 474.95 244.1 L463.15 245.9 461.8 259.4 495.05 272.45 Q491.45 273.4 487.9 275.0 486.25 275.4 484.7 276.7 483.15 277.65 481.7 279.15 480.3 280.6 479.05 282.4 477.75 284.25 476.7 286.55 474.5 291.2 472.45 296.15 L282.6 264.05 350.15 251.1 352.3 241.9 Q213.65 183.75 74.2 234.15 L76.05 250.6 111.9 257.1 Q58.8 278.55 5.45 291.1 2.6 291.8 0.0 292.95 L0.0 104.65 11.8 105.25 Q6.05 103.6 0.0 102.95 L0.0 95.6 Q20.55 97.3 41.1 95.3 61.25 93.9 81.05 90.4 L0.0 82.5 0.0 76.05 24.15 74.75 17.2 73.75 98.15 73.15 86.3 74.3 193.8 72.4 192.2 70.6 249.15 71.1 252.05 73.7 292.6 74.85 195.9 77.35 341.6 80.3 311.45 75.3 342.35 73.5 343.5 71.05 600.0 75.75 M0.0 87.2 L0.0 86.5 7.65 86.65 0.0 87.2 M510.25 82.1 Q544.3 87.65 577.85 81.55 L505.5 81.4 510.25 82.1 M530.05 87.65 Q422.85 81.45 314.85 86.85 L303.55 87.55 Q399.35 88.75 495.05 89.25 L530.05 87.65 M493.7 150.75 Q493.7 147.4 489.4 145.05 485.05 142.65 478.95 142.65 472.85 142.65 468.55 145.05 464.2 147.4 464.2 150.75 464.2 154.1 468.55 156.5 472.85 158.85 478.95 158.85 485.05 158.85 489.4 156.5 493.7 154.1 493.7 150.75 M549.0 100.15 L479.1 100.35 514.05 101.9 549.0 100.15 M398.6 78.5 Q375.4 73.85 352.05 77.6 L386.6 79.5 398.6 78.5 M413.2 168.65 L366.45 171.9 Q388.8 179.8 410.85 170.05 L413.2 168.65 M256.2 94.9 L254.3 93.35 137.9 97.0 Q197.2 100.05 253.7 95.2 L256.2 94.9 M297.7 96.45 Q373.45 101.95 449.25 96.3 L289.0 96.05 293.45 96.15 257.4 97.85 302.2 97.25 297.7 96.45 M166.2 84.9 L145.8 83.35 Q96.1 78.75 45.6 79.35 L46.1 82.75 186.75 85.9 166.2 84.9 M207.3 88.55 Q147.3 86.25 87.85 90.35 118.3 93.05 149.25 92.95 179.55 92.85 209.0 90.0 L207.3 88.55 M267.8 109.45 Q236.1 104.15 202.3 108.75 L264.05 110.45 267.8 109.45 M98.1 160.45 Q75.65 139.5 52.05 158.55 73.65 174.85 95.7 161.8 L98.1 160.45 M130.4 105.05 L73.5 105.3 110.65 106.65 130.4 105.05" fill="#999999" fill-rule="evenodd" stroke="none"/>
    <path d="M0.0 7.45 Q218.95 8.25 438.0 12.9 L407.1 13.75 384.35 14.0 363.1 13.85 367.5 14.7 357.9 14.45 381.4 16.7 Q433.0 23.1 484.45 17.3 499.8 15.55 516.0 15.3 L512.5 15.45 556.15 15.45 534.05 14.85 499.95 12.85 600.0 12.05 600.0 15.85 539.15 17.9 600.0 23.35 600.0 26.45 535.3 28.4 458.1 26.9 495.05 25.3 502.9 24.55 Q463.0 20.95 423.6 25.55 L433.45 26.45 471.75 30.85 453.15 31.55 Q526.45 34.6 600.0 34.1 L600.0 37.35 550.65 39.75 567.65 40.4 560.55 40.55 Q580.45 43.1 600.0 43.5 L600.0 49.15 544.6 48.95 468.1 47.1 0.0 45.9 0.0 45.85 126.2 42.9 0.0 37.65 0.0 30.55 10.85 31.4 5.0 31.55 Q41.8 38.2 78.55 33.15 L75.4 29.9 97.55 30.85 85.55 31.3 Q104.85 36.15 125.45 36.2 L152.7 34.9 165.95 34.45 193.15 35.95 179.35 33.0 349.1 27.45 311.85 25.3 387.1 22.9 Q289.35 13.75 190.05 20.2 L176.8 18.6 Q199.4 22.15 231.25 23.15 L250.85 24.1 73.55 29.25 66.45 29.15 Q32.4 21.2 0.0 24.1 L0.0 16.0 46.95 13.9 Q71.95 16.95 94.4 12.95 L96.0 12.45 106.55 12.55 0.0 7.65 0.0 7.45 M451.85 40.3 L461.65 40.0 462.65 37.95 Q429.1 33.95 395.05 37.35 L296.25 36.55 292.95 36.25 175.25 39.55 189.45 39.6 Q163.55 42.1 137.35 40.75 L131.45 40.35 Q196.0 47.4 262.4 42.45 L241.95 41.2 Q299.9 42.45 357.95 42.15 L371.75 42.05 439.8 40.7 451.85 40.3 M242.1 14.2 L197.25 14.05 233.5 14.85 242.1 14.2 M48.1 21.6 Q87.75 25.25 127.05 21.1 83.05 18.35 39.0 20.65 L48.1 21.6" fill="#0099ff" fill-rule="evenodd" stroke="none"/>
    <path d="M0.0 7.45 L0.0 -0.05 600.0 -0.05 600.0 12.05 499.95 12.85 534.05 14.85 516.0 15.3 Q499.8 15.55 484.45 17.3 433.0 23.1 381.4 16.7 L437.35 15.2 407.1 13.75 438.0 12.9 Q218.95 8.25 0.0 7.45 M600.0 15.85 L600.0 23.35 539.15 17.9 600.0 15.85 M0.0 16.0 L0.0 7.65 106.55 12.55 96.0 12.45 35.95 13.85 46.95 13.9 0.0 16.0 M458.1 26.9 L433.45 26.45 423.6 25.55 Q463.0 20.95 502.9 24.55 L495.05 25.3 458.1 26.9 M384.35 14.0 L367.5 14.7 363.1 13.85 384.35 14.0 M311.85 25.3 L250.85 24.1 231.25 23.15 Q199.4 22.15 176.8 18.6 L190.05 20.2 Q289.35 13.75 387.1 22.9 L311.85 25.3 M48.1 21.6 L39.0 20.65 Q83.05 18.35 127.05 21.1 87.75 25.25 48.1 21.6" fill="#0066ff" fill-rule="evenodd" stroke="none"/>
    <path d="M600.0 26.45 L600.0 34.1 Q526.45 34.6 453.15 31.55 L471.75 30.85 Q505.45 35.2 537.8 29.2 L535.3 28.4 600.0 26.45 M600.0 37.35 L600.0 38.3 567.65 40.4 550.65 39.75 600.0 37.35 M600.0 49.15 L600.0 57.05 517.3 61.2 515.95 60.45 Q499.8 52.7 483.15 59.8 L476.3 58.65 Q447.2 54.95 418.5 59.4 L417.25 58.45 Q312.35 54.8 203.4 54.4 159.05 54.25 114.45 56.55 L113.05 54.8 108.05 53.05 102.1 55.85 90.2 54.45 Q45.2 49.05 0.0 52.35 L0.0 45.9 468.1 47.1 447.55 48.3 557.55 50.4 544.6 48.95 600.0 49.15 M0.0 45.85 L0.0 37.65 126.2 42.9 0.0 45.85 M0.0 30.55 L0.0 24.1 Q32.4 21.2 66.45 29.15 L10.85 31.4 0.0 30.55 M451.85 40.3 L455.35 39.3 435.25 39.2 439.8 40.7 371.75 42.05 427.1 39.3 395.05 37.35 Q429.1 33.95 462.65 37.95 L461.65 40.0 451.85 40.3 M357.95 42.15 Q299.9 42.45 241.95 41.2 L189.45 39.6 175.25 39.55 292.95 36.25 296.25 36.55 357.95 42.15 M250.85 24.1 L311.85 25.3 349.1 27.45 179.35 33.0 163.05 33.35 165.95 34.45 152.7 34.9 156.8 34.5 97.55 30.85 75.4 29.9 73.55 29.25 250.85 24.1" fill="#00ccff" fill-rule="evenodd" stroke="none"/>
    <path d="M407.1 13.75 L437.35 15.2 381.4 16.7 357.9 14.45 367.5 14.7 384.35 14.0 407.1 13.75 M516.0 15.3 L534.05 14.85 556.15 15.45 512.5 15.45 516.0 15.3 M600.0 38.3 L600.0 43.5 Q580.45 43.1 560.55 40.55 L567.65 40.4 600.0 38.3 M600.0 57.05 L600.0 69.45 547.8 70.05 540.3 65.15 Q513.4 63.0 486.2 66.55 452.0 70.8 418.5 62.2 L409.35 68.45 387.6 64.35 383.6 65.15 Q355.6 66.95 327.45 62.7 L326.3 63.2 Q309.3 68.95 291.65 70.3 269.65 71.1 247.9 70.0 226.25 69.35 209.05 60.9 190.8 64.5 172.65 62.5 139.45 59.05 106.85 65.0 93.7 67.5 81.1 63.05 70.55 65.5 59.65 64.75 51.15 64.8 43.55 60.9 L0.0 64.45 0.0 52.35 Q45.2 49.05 90.2 54.45 L102.1 55.85 108.05 53.05 113.05 54.8 114.45 56.55 Q159.05 54.25 203.4 54.4 312.35 54.8 417.25 58.45 L418.5 59.4 Q447.2 54.95 476.3 58.65 L483.15 59.8 Q499.8 52.7 515.95 60.45 L517.3 61.2 600.0 57.05 M535.3 28.4 L537.8 29.2 Q505.45 35.2 471.75 30.85 L433.45 26.45 458.1 26.9 535.3 28.4 M544.6 48.95 L557.55 50.4 447.55 48.3 468.1 47.1 544.6 48.95 M439.8 40.7 L435.25 39.2 455.35 39.3 451.85 40.3 439.8 40.7 M395.05 37.35 L427.1 39.3 371.75 42.05 357.95 42.15 296.25 36.55 395.05 37.35 M241.95 41.2 L262.4 42.45 Q196.0 47.4 131.45 40.35 L137.35 40.75 Q163.55 42.1 189.45 39.6 L241.95 41.2 M73.55 29.25 L75.4 29.9 78.55 33.15 Q41.8 38.2 5.0 31.55 L10.85 31.4 66.45 29.15 73.55 29.25 M97.55 30.85 L156.8 34.5 152.7 34.9 125.45 36.2 Q104.85 36.15 85.55 31.3 L97.55 30.85 M165.95 34.45 L163.05 33.35 179.35 33.0 193.15 35.95 165.95 34.45 M242.1 14.2 L233.5 14.85 197.25 14.05 242.1 14.2 M96.0 12.45 L94.4 12.95 Q71.95 16.95 46.95 13.9 L35.95 13.85 96.0 12.45" fill="#ffffff" fill-rule="evenodd" stroke="none"/>
    <path d="M600.0 236.6 L600.0 400.05 0.0 400.05 0.0 292.95 Q2.6 291.8 5.45 291.1 58.8 278.55 111.9 257.1 L76.05 250.6 74.2 234.15 Q213.65 183.75 352.3 241.9 L350.15 251.1 282.6 264.05 472.45 296.15 Q474.5 291.2 476.7 286.55 477.75 284.25 479.05 282.4 480.3 280.6 481.7 279.15 483.15 277.65 484.7 276.7 486.25 275.4 487.9 275.0 491.45 273.4 495.05 272.45 L461.8 259.4 463.15 245.9 474.95 244.1 Q537.45 234.4 600.0 236.6" fill="#cccccc" fill-rule="evenodd" stroke="none"/>
    <path d="M600.0 69.45 L600.0 75.75 343.5 71.05 342.35 73.5 311.45 75.3 341.6 80.3 195.9 77.35 292.6 74.85 252.05 73.7 249.15 71.1 192.2 70.6 193.8 72.4 86.3 74.3 98.15 73.15 17.2 73.75 24.15 74.75 0.0 76.05 0.0 64.45 43.55 60.9 Q51.15 64.8 59.65 64.75 70.55 65.5 81.1 63.05 93.7 67.5 106.85 65.0 139.45 59.05 172.65 62.5 190.8 64.5 209.05 60.9 226.25 69.35 247.9 70.0 269.65 71.1 291.65 70.3 309.3 68.95 326.3 63.2 L327.45 62.7 Q355.6 66.95 383.6 65.15 L387.6 64.35 409.35 68.45 418.5 62.2 Q452.0 70.8 486.2 66.55 513.4 63.0 540.3 65.15 L547.8 70.05 600.0 69.45 M600.0 80.35 L600.0 81.55 595.45 81.55 593.4 80.25 600.0 80.35 M600.0 88.75 L600.0 90.0 557.95 89.55 600.0 88.75 M600.0 97.5 L600.0 103.15 567.9 100.7 600.0 97.5 M600.0 173.4 L600.0 183.45 563.75 177.6 600.0 173.4 M0.0 104.65 L0.0 102.95 Q6.05 103.6 11.8 105.25 L0.0 104.65 M0.0 95.6 L0.0 87.2 7.65 86.65 0.0 86.5 0.0 82.5 81.05 90.4 Q61.25 93.9 41.1 95.3 20.55 97.3 0.0 95.6 M510.25 82.1 L505.5 81.4 577.85 81.55 Q544.3 87.65 510.25 82.1 M549.0 100.15 L514.05 101.9 479.1 100.35 549.0 100.15 M493.7 150.75 Q493.7 154.1 489.4 156.5 485.05 158.85 478.95 158.85 472.85 158.85 468.55 156.5 464.2 154.1 464.2 150.75 464.2 147.4 468.55 145.05 472.85 142.65 478.95 142.65 485.05 142.65 489.4 145.05 493.7 147.4 493.7 150.75 M530.05 87.65 L495.05 89.25 Q399.35 88.75 303.55 87.55 L314.85 86.85 Q422.85 81.45 530.05 87.65 M398.6 78.5 L386.6 79.5 352.05 77.6 Q375.4 73.85 398.6 78.5 M413.2 168.65 L410.85 170.05 Q388.8 179.8 366.45 171.9 L413.2 168.65 M297.7 96.45 L302.2 97.25 257.4 97.85 293.45 96.15 289.0 96.05 449.25 96.3 Q373.45 101.95 297.7 96.45 M256.2 94.9 L253.7 95.2 Q197.2 100.05 137.9 97.0 L254.3 93.35 256.2 94.9 M207.3 88.55 L209.0 90.0 Q179.55 92.85 149.25 92.95 118.3 93.05 87.85 90.35 147.3 86.25 207.3 88.55 M166.2 84.9 L186.75 85.9 46.1 82.75 45.6 79.35 Q96.1 78.75 145.8 83.35 L166.2 84.9 M267.8 109.45 L264.05 110.45 202.3 108.75 Q236.1 104.15 267.8 109.45 M130.4 105.05 L110.65 106.65 73.5 105.3 130.4 105.05 M98.1 160.45 L95.7 161.8 Q73.65 174.85 52.05 158.55 75.65 139.5 98.1 160.45" fill="#666666" fill-rule="evenodd" stroke="none"/>
  </g>
</svg>
