<?xml version="1.0" encoding="UTF-8" standalone="no"?>
<svg xmlns:ffdec="https://www.free-decompiler.com/flash" xmlns:xlink="http://www.w3.org/1999/xlink" ffdec:objectType="shape" height="400.0px" width="600.0px" xmlns="http://www.w3.org/2000/svg">
  <g transform="matrix(1.0, 0.0, 0.0, 1.0, 0.0, 0.0)">
    <path d="M600.0 3.7 L600.0 12.2 526.25 11.55 Q550.8 -7.65 577.9 7.95 L580.0 6.4 Q589.4 0.0 600.0 3.7 M600.0 20.0 L600.0 27.9 596.6 26.1 Q582.2 28.0 567.85 26.1 L563.1 25.3 553.65 23.2 595.45 22.85 600.0 20.0 M600.0 45.65 L600.0 53.05 593.15 54.3 Q539.15 63.85 485.75 51.35 497.4 46.25 509.95 46.95 554.8 49.35 600.0 45.65 M600.0 128.6 L600.0 130.2 584.65 128.95 600.0 128.6 M600.0 178.45 L600.0 193.65 573.25 195.85 Q534.0 184.95 494.55 195.85 L493.45 196.25 576.2 197.35 600.0 198.75 600.0 202.6 552.8 207.6 600.0 212.3 600.0 226.9 Q557.05 213.9 513.0 220.8 497.5 223.2 481.7 223.6 L479.9 226.6 431.85 230.4 600.0 228.65 600.0 248.4 555.0 254.5 588.25 258.25 567.55 262.85 600.0 269.4 600.0 274.5 565.85 277.05 569.05 278.25 Q584.7 284.1 600.0 281.2 L600.0 304.65 595.45 304.55 593.4 307.55 600.0 307.3 600.0 318.55 Q471.25 314.05 343.5 327.7 L342.35 322.3 311.45 318.4 341.6 307.35 314.95 307.7 276.95 308.8 195.9 313.95 292.6 319.35 252.05 321.95 249.15 327.55 Q242.1 329.25 234.95 330.4 213.35 334.3 192.2 328.7 L193.8 324.7 Q140.35 316.35 86.3 320.65 L98.15 323.1 17.2 321.8 21.75 319.4 17.95 318.55 Q8.9 316.85 0.0 316.65 L0.0 301.1 Q41.45 300.45 81.05 285.15 L68.95 282.5 66.0 279.2 Q32.8 268.35 0.0 273.9 L0.0 257.25 10.1 253.5 0.0 254.45 0.0 245.35 Q27.2 248.25 54.0 243.55 L19.95 236.95 Q12.6 228.05 1.0 228.75 L0.0 228.85 0.0 208.75 Q30.65 208.25 61.1 203.45 L52.05 206.25 Q71.05 213.9 90.55 208.05 L98.1 205.3 69.25 202.05 Q34.75 195.95 0.0 197.65 L0.0 163.1 24.3 167.55 5.85 168.35 Q31.7 174.6 58.75 173.85 77.35 173.35 93.35 183.0 L47.85 186.15 47.75 189.05 142.9 185.65 123.5 183.9 122.05 182.55 Q120.6 181.2 118.95 180.1 114.25 176.8 108.8 175.95 L97.75 174.2 216.9 179.7 212.95 184.5 216.7 186.3 Q224.6 189.75 233.05 188.25 244.6 186.25 256.15 187.9 L227.3 192.35 262.55 197.6 207.5 205.35 225.35 209.0 Q217.15 211.2 208.85 212.9 194.15 215.7 179.2 213.6 177.25 213.3 175.25 214.0 178.5 217.75 190.5 219.05 211.7 220.6 232.5 216.05 L220.35 221.35 Q231.85 224.95 243.85 225.4 266.25 226.0 282.65 214.6 281.95 214.2 281.25 213.95 264.65 208.9 247.65 212.0 241.95 212.9 236.5 214.7 L232.25 209.9 Q243.25 211.55 254.3 210.3 273.6 207.95 292.7 203.75 L290.6 201.7 344.05 196.5 329.15 192.9 326.1 194.85 313.6 193.75 312.25 188.55 310.6 187.75 Q307.15 186.1 303.65 185.3 291.95 182.6 279.7 183.3 L275.45 183.55 268.45 176.8 352.3 164.05 350.15 159.4 331.45 159.25 324.7 165.6 288.25 161.45 292.95 158.15 320.2 156.5 268.0 152.5 320.3 144.6 321.4 147.1 324.8 147.05 328.5 143.85 379.15 144.6 Q379.3 148.4 380.4 150.6 381.5 152.85 382.95 152.55 384.4 152.25 385.35 149.6 386.25 147.0 386.15 144.0 L476.7 141.45 486.45 147.0 422.45 151.5 469.55 153.65 461.8 155.2 462.85 160.45 375.85 165.85 Q415.85 164.6 454.5 174.7 445.3 176.95 435.7 177.8 419.05 179.2 402.55 176.65 418.35 180.4 434.4 183.3 451.6 186.4 467.65 181.9 L463.8 174.95 498.9 168.9 500.7 165.35 579.4 167.2 567.7 175.8 570.95 176.75 Q585.4 178.6 600.0 178.45 M600.0 256.35 L600.0 258.4 590.7 257.95 600.0 256.35 M0.0 293.85 L0.0 292.15 7.65 293.5 0.0 293.85 M0.0 160.3 L0.0 137.2 73.65 147.7 77.4 149.35 81.0 147.85 131.5 149.5 134.2 152.95 Q107.8 158.55 80.8 158.0 40.3 157.2 0.0 160.3 M0.0 136.1 L0.0 121.25 29.35 126.75 62.65 126.95 66.45 129.6 Q32.8 128.3 0.0 136.1 M0.0 79.55 L0.0 70.25 Q263.65 41.45 528.45 70.35 L518.15 65.9 521.05 62.05 590.45 68.9 363.25 74.95 367.1 80.2 Q334.1 87.35 300.5 83.85 L300.15 77.85 301.6 77.1 Q251.45 81.25 200.65 77.7 L204.65 72.25 Q212.2 73.75 220.0 73.2 224.05 72.75 228.05 71.1 L233.2 68.85 204.3 67.85 202.05 66.15 Q121.6 59.3 41.4 68.65 L53.05 77.75 Q27.0 82.4 0.0 79.55 M0.0 60.0 L0.0 54.65 38.4 52.7 39.65 54.95 60.1 59.35 Q29.6 63.2 0.0 60.0 M0.0 43.65 L0.0 37.5 Q3.95 37.45 6.75 38.35 9.55 39.25 9.55 40.55 9.55 41.85 6.75 42.75 3.95 43.65 0.0 43.65 M0.0 27.95 L0.0 15.15 19.7 15.75 22.35 11.8 0.0 9.6 0.0 0.0 146.35 0.0 Q152.65 3.1 158.85 6.75 154.0 11.15 147.15 10.35 141.6 10.15 136.6 7.8 L134.8 5.4 45.35 8.55 123.95 22.35 21.3 19.45 Q14.6 25.2 6.1 27.2 L0.0 27.95 M276.55 0.0 L327.5 0.0 Q333.95 2.1 340.45 5.2 L337.35 8.1 356.65 15.0 Q353.55 20.2 347.1 19.55 336.7 18.35 327.65 13.0 L305.8 19.7 301.35 16.5 264.8 14.0 261.0 6.85 Q268.75 2.6 276.55 0.0 M533.05 15.7 Q533.05 15.1 533.5 14.65 533.95 14.2 534.55 14.2 535.15 14.2 535.6 14.65 536.05 15.1 536.05 15.7 L535.6 16.75 Q535.15 17.2 534.55 17.2 533.95 17.2 533.5 16.75 533.05 16.3 533.05 15.7 M584.25 85.0 Q581.25 85.0 579.15 84.25 577.05 83.55 577.05 82.5 577.05 81.45 579.15 80.7 581.25 80.0 584.25 80.0 587.25 80.0 589.35 80.7 591.45 81.45 591.45 82.5 591.45 83.55 589.35 84.25 587.25 85.0 584.25 85.0 M556.4 141.9 L557.15 142.6 542.85 140.55 Q550.4 136.25 556.4 141.9 M508.6 87.1 L508.8 81.95 561.8 80.3 560.6 85.05 508.6 87.1 M522.8 131.15 L525.35 127.7 572.2 123.85 576.65 127.75 Q552.35 143.8 526.05 132.65 L522.8 131.15 M506.9 181.4 L567.55 173.75 558.15 171.15 Q524.3 162.8 491.25 173.8 L494.5 182.5 501.4 182.05 Q501.5 184.85 502.15 186.55 502.75 188.3 503.65 188.75 504.5 189.2 505.3 188.2 506.1 187.25 506.55 185.2 507.0 183.15 506.9 181.4 M584.8 143.6 Q582.4 143.6 580.7 142.35 579.0 141.1 579.0 139.35 579.0 137.6 580.7 136.35 582.4 135.1 584.8 135.1 587.2 135.1 588.9 136.35 590.6 137.6 590.6 139.35 590.6 141.1 588.9 142.35 587.2 143.6 584.8 143.6 M580.9 180.0 Q578.9 180.0 577.5 181.4 576.1 182.8 576.1 184.8 576.1 186.8 577.5 188.2 578.9 189.6 580.9 189.6 582.9 189.6 584.3 188.2 585.7 186.8 585.7 184.8 585.7 182.8 584.3 181.4 582.9 180.0 580.9 180.0 M393.15 15.95 L390.7 14.0 357.95 14.45 356.45 9.6 395.55 12.15 393.15 15.95 M401.55 14.55 L400.9 11.55 411.05 12.75 401.55 14.55 M480.75 85.1 Q480.75 86.45 479.5 87.4 478.25 88.35 476.45 88.35 474.65 88.35 473.4 87.4 472.15 86.45 472.15 85.1 472.15 83.75 473.4 82.8 474.65 81.85 476.45 81.85 478.25 81.85 479.5 82.8 480.75 83.75 480.75 85.1 M422.45 57.65 L419.2 57.2 Q448.6 43.9 481.0 52.3 452.5 63.45 422.45 57.65 M422.95 31.0 L423.4 31.45 400.35 33.65 Q411.0 22.1 422.95 31.0 M414.7 14.05 L422.75 8.55 429.3 10.8 Q475.25 -3.5 521.45 9.05 473.7 31.55 414.7 14.05 M465.45 27.55 L462.6 27.95 459.8 27.55 Q458.6 27.2 458.6 26.65 458.6 26.1 459.8 25.7 L462.6 25.35 465.45 25.7 Q466.6 26.1 466.6 26.65 466.6 27.2 465.45 27.55 M381.3 87.7 Q377.45 86.3 377.45 84.3 377.45 82.3 381.3 80.85 385.1 79.45 390.55 79.45 396.0 79.45 399.85 80.85 403.65 82.3 403.65 84.3 403.65 86.3 399.85 87.7 396.0 89.15 390.55 89.15 385.1 89.15 381.3 87.7 M354.5 98.6 Q354.5 97.25 357.7 96.3 360.85 95.35 365.3 95.35 369.75 95.35 372.95 96.3 376.1 97.25 376.1 98.6 376.1 99.95 372.95 100.9 369.75 101.85 365.3 101.85 360.85 101.85 357.7 100.9 354.5 99.95 354.5 98.6 M360.35 39.45 Q360.35 40.65 359.5 41.5 358.6 42.35 357.4 42.35 356.2 42.35 355.35 41.5 354.45 40.65 354.45 39.45 354.45 38.25 355.35 37.4 356.2 36.55 357.4 36.55 358.6 36.55 359.5 37.4 360.35 38.25 360.35 39.45 M336.15 48.35 L338.25 44.9 Q357.25 41.45 375.3 48.45 L380.2 50.45 342.1 52.4 336.15 48.35 M324.25 175.9 Q323.35 175.0 322.1 175.0 320.85 175.0 319.95 175.9 319.05 176.8 319.05 178.05 319.05 179.3 319.95 180.2 320.85 181.1 322.1 181.1 323.35 181.1 324.25 180.2 325.15 179.3 325.15 178.05 325.15 176.8 324.25 175.9 M347.05 176.25 Q345.8 177.5 345.8 179.25 345.8 181.0 347.05 182.2 348.25 183.45 349.95 183.45 351.65 183.45 352.9 182.2 354.1 181.0 354.1 179.25 354.1 177.5 352.9 176.25 351.65 175.05 349.95 175.05 348.25 175.05 347.05 176.25 M376.9 190.25 Q409.4 198.3 440.9 186.9 L436.55 186.05 Q402.05 180.6 367.85 187.85 L376.9 190.25 M411.3 124.75 L408.65 123.9 Q440.75 117.6 472.95 123.65 441.95 132.15 411.3 124.75 M468.55 213.1 Q472.85 214.3 478.95 214.3 485.05 214.3 489.4 213.1 493.7 211.9 493.7 210.2 493.7 208.5 489.4 207.3 485.05 206.1 478.95 206.1 472.85 206.1 468.55 207.3 464.2 208.5 464.2 210.2 464.2 211.9 468.55 213.1 M464.95 201.8 Q464.95 199.95 459.9 198.65 454.85 197.35 447.7 197.35 440.55 197.35 435.5 198.65 430.45 199.95 430.45 201.8 430.45 203.65 435.5 204.95 440.55 206.25 447.7 206.25 454.85 206.25 459.9 204.95 464.95 203.65 464.95 201.8 M410.85 217.5 Q412.65 215.7 412.65 213.15 412.65 210.6 410.85 208.8 409.05 207.0 406.5 207.0 403.95 207.0 402.15 208.8 400.35 210.6 400.35 213.15 400.35 215.7 402.15 217.5 403.95 219.3 406.5 219.3 409.05 219.3 410.85 217.5 M469.7 268.25 L436.8 267.75 471.85 269.95 469.7 268.25 M452.7 259.75 Q453.6 260.65 454.85 260.65 456.1 260.65 457.0 259.75 457.9 258.9 457.9 257.65 457.9 256.4 457.0 255.5 456.1 254.65 454.85 254.65 453.6 254.65 452.7 255.5 451.8 256.4 451.8 257.65 451.8 258.9 452.7 259.75 M451.65 280.55 Q425.6 275.6 401.0 285.3 L454.75 281.3 451.65 280.55 M481.85 287.85 L456.35 288.2 303.55 291.4 Q348.7 296.1 394.1 297.75 462.35 299.65 530.05 291.15 L481.85 287.85 M382.2 235.0 L405.8 233.15 402.8 232.25 Q391.8 228.75 382.2 235.0 M372.4 242.2 L379.7 242.85 Q453.45 249.3 527.1 237.95 432.15 229.0 337.95 244.3 L363.35 250.35 375.7 245.55 372.4 242.2 M372.05 198.55 L366.45 199.5 413.2 201.15 Q392.95 195.5 372.05 198.55 M325.55 243.75 L268.55 250.25 326.7 247.4 325.55 243.75 M349.15 276.8 L353.7 278.2 Q372.15 283.7 390.25 276.7 L449.25 272.2 363.0 266.0 359.9 266.05 Q326.25 267.4 299.25 271.1 L299.75 270.85 Q301.85 268.15 294.0 266.95 275.5 263.85 257.4 268.75 L293.45 272.5 289.0 272.8 349.15 276.8 M353.6 256.1 Q333.6 248.35 315.75 259.75 L356.1 257.05 Q354.85 256.5 353.6 256.1 M329.65 283.4 L344.15 280.15 Q336.9 277.2 331.05 282.15 L329.65 283.4 M401.9 257.95 Q401.9 256.65 399.1 255.7 396.3 254.8 392.3 254.8 388.3 254.8 385.5 255.7 382.7 256.65 382.7 257.95 382.7 259.25 385.5 260.15 388.3 261.1 392.3 261.1 396.3 261.1 399.1 260.15 401.9 259.25 401.9 257.95 M359.4 213.95 Q336.9 218.2 314.2 221.35 L382.35 220.0 Q372.3 211.6 359.4 213.95 M398.6 311.35 L395.5 310.35 Q373.3 304.4 352.05 313.35 375.45 316.35 398.6 311.35 M466.5 308.35 Q466.5 307.2 465.7 306.35 464.85 305.55 463.7 305.55 462.55 305.55 461.75 306.35 460.9 307.2 460.9 308.35 460.9 309.5 461.75 310.3 462.55 311.15 463.7 311.15 464.85 311.15 465.7 310.3 466.5 309.5 466.5 308.35 M423.5 315.45 Q425.05 315.45 426.2 314.3 427.3 313.2 427.3 311.65 427.3 310.1 426.2 308.95 425.05 307.85 423.5 307.85 421.95 307.85 420.85 308.95 419.7 310.1 419.7 311.65 419.7 313.2 420.85 314.3 421.95 315.45 423.5 315.45 M571.6 238.35 Q571.6 237.4 570.95 236.7 570.25 236.0 569.3 236.0 568.35 236.0 567.7 236.7 567.0 237.4 567.0 238.35 567.0 239.3 567.7 240.0 568.35 240.7 569.3 240.7 570.25 240.7 570.95 240.0 571.6 239.3 571.6 238.35 M593.55 295.65 Q592.3 295.65 591.4 296.55 590.5 297.45 590.5 298.7 590.5 299.95 591.4 300.85 592.3 301.75 593.55 301.75 594.8 301.75 595.7 300.85 596.6 299.95 596.6 298.7 596.6 297.45 595.7 296.55 594.8 295.65 593.55 295.65 M548.35 240.35 Q548.35 238.2 545.6 236.7 542.8 235.2 538.85 235.2 534.9 235.2 532.15 236.7 529.35 238.2 529.35 240.35 529.35 242.5 532.15 244.0 534.9 245.5 538.85 245.5 542.8 245.5 545.6 244.0 548.35 242.5 548.35 240.35 M521.25 265.4 L523.35 268.1 546.7 264.2 549.0 263.7 546.55 263.2 Q537.1 257.3 526.55 260.7 L525.85 260.9 479.1 263.35 521.25 265.4 M523.65 277.25 Q522.7 278.2 522.7 279.55 522.7 280.9 523.65 281.8 524.55 282.75 525.9 282.75 527.25 282.75 528.2 281.8 529.1 280.9 529.1 279.55 529.1 278.2 528.2 277.25 527.25 276.35 525.9 276.35 524.55 276.35 523.65 277.25 M509.85 303.4 L505.5 305.05 578.1 305.65 Q544.45 290.5 509.85 303.4 M164.0 157.3 L165.3 160.8 124.8 159.25 164.0 157.3 M177.65 149.05 L178.15 149.75 164.65 148.45 Q172.15 142.75 177.65 149.05 M216.95 135.35 Q221.6 133.45 228.15 133.45 234.7 133.45 239.35 135.35 244.0 137.25 244.0 139.9 244.0 142.55 239.35 144.45 234.7 146.35 228.15 146.35 221.6 146.35 216.95 144.45 212.3 142.55 212.3 139.9 212.3 137.25 216.95 135.35 M180.2 86.9 Q176.8 88.25 172.0 88.25 167.2 88.25 163.8 86.9 160.4 85.55 160.4 83.6 160.4 81.65 163.8 80.3 167.2 78.95 172.0 78.95 176.8 78.95 180.2 80.3 183.6 81.65 183.6 83.6 183.6 85.55 180.2 86.9 M183.55 21.2 Q184.6 21.7 185.5 22.55 L128.3 23.75 Q156.6 10.0 183.55 21.2 M189.2 3.1 Q189.8 3.75 189.8 4.65 189.8 5.55 189.2 6.15 188.55 6.8 187.65 6.8 186.75 6.8 186.15 6.15 185.5 5.55 185.5 4.65 185.5 3.75 186.15 3.1 186.75 2.5 187.65 2.5 188.55 2.5 189.2 3.1 M210.35 13.7 L210.35 9.05 233.75 9.05 233.75 13.7 210.35 13.7 M307.15 89.5 L308.9 90.05 273.65 92.5 Q290.0 85.05 307.15 89.5 M195.2 189.95 Q158.35 185.85 122.05 194.85 160.45 203.0 197.45 190.15 L195.2 189.95 M321.5 149.05 Q321.0 149.35 320.5 149.6 L322.5 149.6 321.5 149.05 M320.15 151.2 Q316.85 151.65 313.75 153.4 L367.95 151.65 Q344.8 147.45 320.15 151.2 M256.25 152.65 L257.7 153.5 228.05 151.8 Q242.65 145.65 256.25 152.65 M260.45 106.45 L261.8 107.5 238.8 105.4 Q249.75 98.85 260.45 106.45 M302.6 108.4 Q301.85 109.15 300.8 109.15 299.75 109.15 299.0 108.4 298.25 107.65 298.25 106.55 298.25 105.45 299.0 104.7 299.75 103.95 300.8 103.95 301.85 103.95 302.6 104.7 303.35 105.45 303.35 106.55 303.35 107.65 302.6 108.4 M320.95 103.9 L308.45 105.85 Q309.45 104.7 310.7 103.85 316.05 100.05 320.95 103.9 M88.4 47.9 Q90.2 47.9 91.5 49.15 92.75 50.45 92.75 52.25 92.75 54.05 91.5 55.3 90.2 56.6 88.4 56.6 86.6 56.6 85.35 55.3 84.05 54.05 84.05 52.25 84.05 50.45 85.35 49.15 86.6 47.9 88.4 47.9 M50.7 116.3 Q50.7 118.15 45.95 119.45 41.2 120.8 34.45 120.8 27.7 120.8 22.95 119.45 18.2 118.15 18.2 116.3 18.2 114.45 22.95 113.1 27.7 111.8 34.45 111.8 41.2 111.8 45.95 113.1 50.7 114.45 50.7 116.3 M63.95 114.3 Q72.7 110.1 78.85 117.15 L60.55 117.55 Q61.6 115.4 63.95 114.3 M59.3 76.85 L64.55 72.95 85.0 74.85 80.95 77.6 Q69.2 85.85 59.3 76.85 M67.6 98.8 Q66.55 97.75 66.55 96.25 66.55 94.75 67.6 93.7 68.65 92.65 70.15 92.65 71.65 92.65 72.7 93.7 73.75 94.75 73.75 96.25 73.75 97.75 72.7 98.8 71.65 99.85 70.15 99.85 68.65 99.85 67.6 98.8 M35.75 94.6 Q37.5 93.25 40.05 93.25 42.6 93.25 44.4 94.6 46.15 96.0 46.15 97.95 46.15 99.9 44.4 101.25 42.6 102.65 40.05 102.65 37.5 102.65 35.75 101.25 33.95 99.9 33.95 97.95 33.95 96.0 35.75 94.6 M22.55 145.35 Q21.4 146.5 21.4 148.05 21.4 149.6 22.55 150.7 23.65 151.85 25.2 151.85 26.75 151.85 27.9 150.7 29.0 149.6 29.0 148.05 29.0 146.5 27.9 145.35 26.75 144.25 25.2 144.25 23.65 144.25 22.55 145.35 M32.15 189.2 Q33.8 187.55 33.8 185.2 33.8 182.85 32.15 181.2 30.5 179.55 28.15 179.55 25.8 179.55 24.15 181.2 22.5 182.85 22.5 185.2 22.5 187.55 24.15 189.2 25.8 190.85 28.15 190.85 30.5 190.85 32.15 189.2 M104.55 130.05 L106.25 130.95 76.2 130.55 Q90.4 123.1 104.55 130.05 M123.8 113.35 Q123.8 115.3 122.45 116.65 121.1 118.0 119.15 118.0 117.2 118.0 115.85 116.65 114.5 115.3 114.5 113.35 114.5 111.4 115.85 110.05 117.2 108.7 119.15 108.7 121.1 108.7 122.45 110.05 123.8 111.4 123.8 113.35 M87.7 197.85 L108.8 198.7 Q102.05 197.5 95.25 197.4 L87.7 197.85 M149.9 205.85 Q148.95 206.85 148.95 208.2 148.95 209.55 149.9 210.5 150.85 211.5 152.2 211.5 153.55 211.5 154.5 210.5 155.45 209.55 155.45 208.2 155.45 206.85 154.5 205.85 153.55 204.9 152.2 204.9 150.85 204.9 149.9 205.85 M124.65 223.35 Q70.55 213.0 12.45 224.7 54.0 236.0 96.65 229.35 L101.6 235.85 128.35 232.3 130.05 230.2 Q209.25 240.75 288.8 232.15 L257.55 230.7 254.35 231.0 152.35 226.4 151.05 224.7 131.95 225.1 138.2 225.65 128.2 225.1 Q126.65 223.65 124.65 223.35 M84.05 277.95 Q84.95 277.05 84.95 275.75 84.95 274.45 84.05 273.5 83.1 272.6 81.75 272.6 80.4 272.6 79.5 273.5 78.55 274.45 78.55 275.75 78.55 277.05 79.5 277.95 80.4 278.9 81.75 278.9 83.1 278.9 84.05 277.95 M181.7 281.55 Q139.1 276.55 96.85 283.6 L87.85 285.3 Q147.4 294.0 207.3 289.25 L209.0 286.05 197.65 283.85 196.85 283.1 Q190.0 277.2 181.7 281.55 M146.65 269.75 L147.55 264.25 74.95 267.3 83.35 268.7 Q115.6 276.55 145.5 271.2 L254.3 278.7 256.2 275.35 183.35 268.05 146.65 269.75 M68.7 240.55 L87.9 237.15 45.25 238.65 68.7 240.55 M17.2 220.7 Q17.9 220.0 17.9 219.05 17.9 218.1 17.2 217.4 16.5 216.7 15.55 216.7 14.6 216.7 13.9 217.4 13.2 218.1 13.2 219.05 13.2 220.0 13.9 220.7 14.6 221.4 15.55 221.4 16.5 221.4 17.2 220.7 M32.15 261.85 Q33.35 263.1 35.05 263.1 36.75 263.1 38.0 261.85 39.2 260.65 39.2 258.9 39.2 257.15 38.0 255.9 36.75 254.7 35.05 254.7 33.35 254.7 32.15 255.9 30.9 257.15 30.9 258.9 30.9 260.65 32.15 261.85 M46.1 302.0 L45.6 309.4 Q108.25 308.45 170.05 298.05 L186.75 295.1 46.1 302.0 M31.25 318.15 Q32.3 319.25 33.8 319.25 35.3 319.25 36.4 318.15 37.45 317.1 37.45 315.6 37.45 314.1 36.4 313.0 35.3 311.95 33.8 311.95 32.3 311.95 31.25 313.0 30.15 314.1 30.15 315.6 30.15 317.1 31.25 318.15 M154.0 311.35 Q152.75 312.6 152.75 314.35 152.75 316.1 154.0 317.3 155.2 318.55 156.9 318.55 158.6 318.55 159.85 317.3 161.05 316.1 161.05 314.35 161.05 312.6 159.85 311.35 158.6 310.15 156.9 310.15 155.2 310.15 154.0 311.35 M310.6 205.65 Q301.15 200.6 293.65 207.95 L293.3 211.4 Q331.25 216.15 367.95 205.05 L312.3 206.75 310.6 205.65 M311.9 226.0 Q309.75 226.0 308.25 227.5 306.75 229.0 306.75 231.15 306.75 233.3 308.25 234.8 309.75 236.3 311.9 236.3 314.05 236.3 315.55 234.8 317.05 233.3 317.05 231.15 317.05 229.0 315.55 227.5 314.05 226.0 311.9 226.0 M260.8 245.4 L267.8 243.3 264.05 241.15 202.3 244.9 Q231.55 253.5 260.8 245.4 M250.8 259.7 Q226.05 256.4 201.3 263.35 L249.8 263.55 247.5 262.1 252.45 260.15 250.8 259.7 M314.9 286.25 L316.35 283.7 239.2 286.2 314.9 286.25 M195.25 210.55 Q196.75 209.05 196.75 206.95 196.75 204.85 195.25 203.35 193.75 201.85 191.65 201.85 189.55 201.85 188.05 203.35 186.55 204.85 186.55 206.95 186.55 209.05 188.05 210.55 189.55 212.05 191.65 212.05 193.75 212.05 195.25 210.55 M180.75 264.8 L151.5 267.2 183.35 268.05 180.75 264.8 M217.2 296.3 Q218.7 296.3 219.8 295.2 220.85 294.15 220.85 292.65 220.85 291.15 219.8 290.05 218.7 289.0 217.2 289.0 215.7 289.0 214.65 290.05 213.55 291.15 213.55 292.65 213.55 294.15 214.65 295.2 215.7 296.3 217.2 296.3 M241.0 254.25 Q215.65 253.05 191.45 248.35 164.45 242.8 136.95 248.7 L165.7 252.2 Q203.55 257.3 241.0 254.25 M222.05 321.75 Q222.05 320.2 220.95 319.1 219.8 318.0 218.25 318.0 216.7 318.0 215.6 319.1 214.45 320.2 214.45 321.75 214.45 323.3 215.6 324.4 216.7 325.5 218.25 325.5 219.8 325.5 220.95 324.4 222.05 323.3 222.05 321.75" fill="#999999" fill-rule="evenodd" stroke="none"/>
    <path d="M600.0 193.65 L600.0 198.75 576.2 197.35 573.25 195.85 600.0 193.65 M600.0 258.4 L600.0 269.4 567.55 262.85 588.25 258.25 590.7 257.95 600.0 258.4 M600.0 304.65 L600.0 307.3 593.4 307.55 595.45 304.55 600.0 304.65 M600.0 318.55 L600.0 370.7 Q589.8 365.2 578.2 365.15 564.25 365.05 554.1 373.1 L600.0 371.55 600.0 386.1 594.8 387.25 600.0 388.8 600.0 400.0 460.45 400.0 464.6 398.85 428.6 397.85 436.3 400.0 291.85 400.0 296.45 397.75 Q278.15 392.7 260.0 398.15 L258.85 400.0 29.35 400.0 Q36.15 397.55 42.6 392.75 L65.0 395.1 Q70.4 396.35 75.95 396.35 85.05 396.35 93.5 392.45 65.65 385.15 36.8 387.95 L34.4 386.7 Q15.4 377.15 0.0 381.1 L0.0 348.0 Q18.15 350.25 32.2 337.35 L22.85 330.85 Q10.45 327.0 0.0 328.4 L0.0 316.65 Q8.9 316.85 17.95 318.55 L21.75 319.4 17.2 321.8 98.15 323.1 86.3 320.65 Q140.35 316.35 193.8 324.7 L192.2 328.7 Q213.35 334.3 234.95 330.4 242.1 329.25 249.15 327.55 L252.05 321.95 292.6 319.35 195.9 313.95 276.95 308.8 267.75 313.55 Q294.7 320.5 317.15 311.15 L314.95 307.7 341.6 307.35 311.45 318.4 342.35 322.3 343.5 327.7 Q471.25 314.05 600.0 318.55 M0.0 301.1 L0.0 293.85 7.65 293.5 0.0 292.15 0.0 273.9 Q32.8 268.35 66.0 279.2 L68.95 282.5 81.05 285.15 Q41.45 300.45 0.0 301.1 M0.0 257.25 L0.0 254.45 10.1 253.5 0.0 257.25 M496.55 132.8 Q497.75 134.05 497.75 135.8 497.75 137.55 496.55 138.75 495.3 140.0 493.55 140.0 491.8 140.0 490.6 138.75 489.35 137.55 489.35 135.8 489.35 134.05 490.6 132.8 491.8 131.6 493.55 131.6 495.3 131.6 496.55 132.8 M501.4 182.05 L506.9 181.4 Q507.0 183.15 506.55 185.2 506.1 187.25 505.3 188.2 504.5 189.2 503.65 188.75 502.75 188.3 502.15 186.55 501.5 184.85 501.4 182.05 M564.7 158.75 Q564.7 160.25 563.65 161.3 562.55 162.4 561.05 162.4 559.55 162.4 558.5 161.3 557.4 160.25 557.4 158.75 557.4 157.25 558.5 156.15 559.55 155.1 561.05 155.1 562.55 155.1 563.65 156.15 564.7 157.25 564.7 158.75 M595.85 156.25 Q595.4 156.65 594.8 156.65 594.2 156.65 593.8 156.25 593.35 155.85 593.35 155.25 593.35 154.65 593.8 154.25 594.2 153.85 594.8 153.85 595.4 153.85 595.85 154.25 596.25 154.65 596.25 155.25 596.25 155.85 595.85 156.25 M580.9 180.0 Q582.9 180.0 584.3 181.4 585.7 182.8 585.7 184.8 585.7 186.8 584.3 188.2 582.9 189.6 580.9 189.6 578.9 189.6 577.5 188.2 576.1 186.8 576.1 184.8 576.1 182.8 577.5 181.4 578.9 180.0 580.9 180.0 M379.15 144.6 L382.8 142.0 386.15 144.0 Q386.25 147.0 385.35 149.6 384.4 152.25 382.95 152.55 381.5 152.85 380.4 150.6 379.3 148.4 379.15 144.6 M331.85 129.65 Q330.9 130.6 329.55 130.6 328.2 130.6 327.25 129.65 326.3 128.7 326.3 127.35 326.3 126.0 327.25 125.05 328.2 124.1 329.55 124.1 330.9 124.1 331.85 125.05 332.8 126.0 332.8 127.35 332.8 128.7 331.85 129.65 M347.05 176.25 Q348.25 175.05 349.95 175.05 351.65 175.05 352.9 176.25 354.1 177.5 354.1 179.25 354.1 181.0 352.9 182.2 351.65 183.45 349.95 183.45 348.25 183.45 347.05 182.2 345.8 181.0 345.8 179.25 345.8 177.5 347.05 176.25 M324.25 175.9 Q325.15 176.8 325.15 178.05 325.15 179.3 324.25 180.2 323.35 181.1 322.1 181.1 320.85 181.1 319.95 180.2 319.05 179.3 319.05 178.05 319.05 176.8 319.95 175.9 320.85 175.0 322.1 175.0 323.35 175.0 324.25 175.9 M468.55 213.1 Q464.2 211.9 464.2 210.2 464.2 208.5 468.55 207.3 472.85 206.1 478.95 206.1 485.05 206.1 489.4 207.3 493.7 208.5 493.7 210.2 493.7 211.9 489.4 213.1 485.05 214.3 478.95 214.3 472.85 214.3 468.55 213.1 M410.85 217.5 Q409.05 219.3 406.5 219.3 403.95 219.3 402.15 217.5 400.35 215.7 400.35 213.15 400.35 210.6 402.15 208.8 403.95 207.0 406.5 207.0 409.05 207.0 410.85 208.8 412.65 210.6 412.65 213.15 412.65 215.7 410.85 217.5 M452.7 259.75 Q451.8 258.9 451.8 257.65 451.8 256.4 452.7 255.5 453.6 254.65 454.85 254.65 456.1 254.65 457.0 255.5 457.9 256.4 457.9 257.65 457.9 258.9 457.0 259.75 456.1 260.65 454.85 260.65 453.6 260.65 452.7 259.75 M456.35 288.2 L443.15 294.05 452.25 294.4 Q476.3 298.05 481.85 287.85 L530.05 291.15 Q462.35 299.65 394.1 297.75 348.7 296.1 303.55 291.4 L456.35 288.2 M372.05 198.55 Q392.95 195.5 413.2 201.15 L366.45 199.5 372.05 198.55 M359.9 266.05 L349.9 270.0 330.1 270.65 349.15 276.8 289.0 272.8 293.45 272.5 257.4 268.75 Q275.5 263.85 294.0 266.95 301.85 268.15 299.75 270.85 L299.25 271.1 Q326.25 267.4 359.9 266.05 M390.25 276.7 L415.5 272.0 363.0 266.0 449.25 272.2 390.25 276.7 M398.6 311.35 Q375.45 316.35 352.05 313.35 373.3 304.4 395.5 310.35 L398.6 311.35 M423.5 315.45 Q421.95 315.45 420.85 314.3 419.7 313.2 419.7 311.65 419.7 310.1 420.85 308.95 421.95 307.85 423.5 307.85 425.05 307.85 426.2 308.95 427.3 310.1 427.3 311.65 427.3 313.2 426.2 314.3 425.05 315.45 423.5 315.45 M466.5 308.35 Q466.5 309.5 465.7 310.3 464.85 311.15 463.7 311.15 462.55 311.15 461.75 310.3 460.9 309.5 460.9 308.35 460.9 307.2 461.75 306.35 462.55 305.55 463.7 305.55 464.85 305.55 465.7 306.35 466.5 307.2 466.5 308.35 M472.85 377.55 Q515.45 393.25 551.8 372.6 L547.35 367.15 Q506.65 361.35 467.5 375.55 L472.85 377.55 M452.45 375.85 L391.55 373.5 Q417.7 381.85 444.85 377.4 L452.45 375.85 M464.7 345.8 Q382.95 326.0 302.7 343.9 299.05 344.65 295.65 346.5 356.55 350.5 417.45 350.25 441.05 350.15 464.7 345.8 M346.4 379.45 Q310.5 374.45 272.5 386.85 268.75 388.05 264.8 388.5 344.0 395.8 422.85 386.4 L346.4 379.45 M593.55 295.65 Q594.8 295.65 595.7 296.55 596.6 297.45 596.6 298.7 596.6 299.95 595.7 300.85 594.8 301.75 593.55 301.75 592.3 301.75 591.4 300.85 590.5 299.95 590.5 298.7 590.5 297.45 591.4 296.55 592.3 295.65 593.55 295.65 M525.85 260.9 Q524.15 261.05 522.85 262.15 521.25 263.5 521.25 265.4 L479.1 263.35 525.85 260.9 M546.7 264.2 L546.55 263.2 549.0 263.7 546.7 264.2 M523.65 277.25 Q524.55 276.35 525.9 276.35 527.25 276.35 528.2 277.25 529.1 278.2 529.1 279.55 529.1 280.9 528.2 281.8 527.25 282.75 525.9 282.75 524.55 282.75 523.65 281.8 522.7 280.9 522.7 279.55 522.7 278.2 523.65 277.25 M539.75 342.1 Q566.9 345.65 578.65 338.4 L533.85 341.15 539.75 342.1 M516.8 338.3 Q487.55 331.7 457.85 336.65 476.35 338.8 494.4 342.9 506.6 345.8 516.8 338.3 M509.85 303.4 Q544.45 290.5 578.1 305.65 L505.5 305.05 509.85 303.4 M177.05 170.35 Q175.25 170.35 174.0 169.05 172.7 167.8 172.7 166.0 172.7 164.2 174.0 162.9 175.25 161.65 177.05 161.65 178.85 161.65 180.15 162.9 181.4 164.2 181.4 166.0 181.4 167.8 180.15 169.05 178.85 170.35 177.05 170.35 M73.65 147.7 Q73.7 144.1 74.8 141.7 75.9 139.3 77.45 139.35 78.95 139.45 80.0 141.9 81.05 144.4 81.0 147.85 L77.4 149.35 73.65 147.7 M22.55 145.35 Q23.65 144.25 25.2 144.25 26.75 144.25 27.9 145.35 29.0 146.5 29.0 148.05 29.0 149.6 27.9 150.7 26.75 151.85 25.2 151.85 23.65 151.85 22.55 150.7 21.4 149.6 21.4 148.05 21.4 146.5 22.55 145.35 M69.25 202.05 L98.1 205.3 90.55 208.05 Q71.05 213.9 52.05 206.25 L61.1 203.45 69.25 202.05 M84.05 277.95 Q83.1 278.9 81.75 278.9 80.4 278.9 79.5 277.95 78.55 277.05 78.55 275.75 78.55 274.45 79.5 273.5 80.4 272.6 81.75 272.6 83.1 272.6 84.05 273.5 84.95 274.45 84.95 275.75 84.95 277.05 84.05 277.95 M197.65 283.85 L209.0 286.05 207.3 289.25 Q147.4 294.0 87.85 285.3 L96.85 283.6 Q139.1 276.55 181.7 281.55 L158.9 285.7 161.6 286.65 Q180.3 293.6 197.65 283.85 M145.5 271.2 L146.65 269.75 183.35 268.05 256.2 275.35 254.3 278.7 145.5 271.2 M32.15 261.85 Q30.9 260.65 30.9 258.9 30.9 257.15 32.15 255.9 33.35 254.7 35.05 254.7 36.75 254.7 38.0 255.9 39.2 257.15 39.2 258.9 39.2 260.65 38.0 261.85 36.75 263.1 35.05 263.1 33.35 263.1 32.15 261.85 M27.7 284.55 L53.95 283.3 53.5 279.05 Q40.5 277.4 29.6 283.15 28.55 283.65 27.7 284.55 M46.1 302.0 L186.75 295.1 170.05 298.05 Q108.25 308.45 45.6 309.4 L46.1 302.0 M31.25 318.15 Q30.15 317.1 30.15 315.6 30.15 314.1 31.25 313.0 32.3 311.95 33.8 311.95 35.3 311.95 36.4 313.0 37.45 314.1 37.45 315.6 37.45 317.1 36.4 318.15 35.3 319.25 33.8 319.25 32.3 319.25 31.25 318.15 M32.75 368.8 L83.85 369.25 Q60.7 358.1 36.25 367.4 L32.75 368.8 M154.0 311.35 Q155.2 310.15 156.9 310.15 158.6 310.15 159.85 311.35 161.05 312.6 161.05 314.35 161.05 316.1 159.85 317.3 158.6 318.55 156.9 318.55 155.2 318.55 154.0 317.3 152.75 316.1 152.75 314.35 152.75 312.6 154.0 311.35 M150.75 331.85 L101.95 338.8 160.15 335.8 150.75 331.85 M125.45 355.65 Q102.7 342.9 72.55 352.6 L121.8 357.1 125.45 355.65 M104.45 394.75 L146.2 396.15 152.05 395.4 Q133.25 383.7 104.45 394.75 M260.8 245.4 Q231.55 253.5 202.3 244.9 L264.05 241.15 267.8 243.3 260.8 245.4 M314.9 286.25 L239.2 286.2 316.35 283.7 314.9 286.25 M222.05 321.75 Q222.05 323.3 220.95 324.4 219.8 325.5 218.25 325.5 216.7 325.5 215.6 324.4 214.45 323.3 214.45 321.75 214.45 320.2 215.6 319.1 216.7 318.0 218.25 318.0 219.8 318.0 220.95 319.1 222.05 320.2 222.05 321.75 M197.85 365.0 Q174.7 360.75 152.05 367.0 L193.85 366.25 197.85 365.0 M216.85 367.7 L307.05 359.85 204.5 353.25 214.9 355.75 195.75 363.15 212.35 362.3 216.85 367.7 M173.4 391.15 Q215.5 398.8 256.0 385.65 245.75 385.15 236.2 382.4 202.9 372.5 173.4 391.15" fill="#666666" fill-rule="evenodd" stroke="none"/>
    <path d="M600.0 3.7 Q589.4 0.0 580.0 6.4 L577.9 7.95 Q550.8 -7.65 526.25 11.55 L600.0 12.2 600.0 20.0 595.45 22.85 553.65 23.2 563.1 25.3 567.85 26.1 Q582.2 28.0 596.6 26.1 L600.0 27.9 600.0 45.65 Q554.8 49.35 509.95 46.95 497.4 46.25 485.75 51.35 539.15 63.85 593.15 54.3 L600.0 53.05 600.0 128.6 584.65 128.95 600.0 130.2 600.0 178.45 Q585.4 178.6 570.95 176.75 L567.7 175.8 579.4 167.2 500.7 165.35 498.9 168.9 463.8 174.95 467.65 181.9 Q451.6 186.4 434.4 183.3 418.35 180.4 402.55 176.65 419.05 179.2 435.7 177.8 445.3 176.95 454.5 174.7 415.85 164.6 375.85 165.85 L462.85 160.45 461.8 155.2 469.55 153.65 422.45 151.5 486.45 147.0 476.7 141.45 386.15 144.0 382.8 142.0 379.15 144.6 328.5 143.85 324.8 147.05 321.4 147.1 320.3 144.6 268.0 152.5 320.2 156.5 292.95 158.15 288.25 161.45 324.7 165.6 331.45 159.25 350.15 159.4 352.3 164.05 268.45 176.8 275.45 183.55 279.7 183.3 Q291.95 182.6 303.65 185.3 307.15 186.1 310.6 187.75 L312.25 188.55 313.6 193.75 326.1 194.85 329.15 192.9 344.05 196.5 290.6 201.7 292.7 203.75 Q273.6 207.95 254.3 210.3 243.25 211.55 232.25 209.9 L236.5 214.7 Q241.95 212.9 247.65 212.0 264.65 208.9 281.25 213.95 281.95 214.2 282.65 214.6 266.25 226.0 243.85 225.4 231.85 224.95 220.35 221.35 L232.5 216.05 Q211.7 220.6 190.5 219.05 178.5 217.75 175.25 214.0 177.25 213.3 179.2 213.6 194.15 215.7 208.85 212.9 217.15 211.2 225.35 209.0 L207.5 205.35 262.55 197.6 227.3 192.35 256.15 187.9 Q244.6 186.25 233.05 188.25 224.6 189.75 216.7 186.3 L212.95 184.5 216.9 179.7 97.75 174.2 108.8 175.95 Q114.25 176.8 118.95 180.1 120.6 181.2 122.05 182.55 L123.5 183.9 142.9 185.65 47.75 189.05 47.85 186.15 93.35 183.0 Q77.35 173.35 58.75 173.85 31.7 174.6 5.85 168.35 L24.3 167.55 0.0 163.1 0.0 160.3 Q40.3 157.2 80.8 158.0 107.8 158.55 134.2 152.95 L131.5 149.5 81.0 147.85 Q81.05 144.4 80.0 141.9 78.95 139.45 77.45 139.35 75.9 139.3 74.8 141.7 73.7 144.1 73.65 147.7 L0.0 137.2 0.0 136.1 Q32.8 128.3 66.45 129.6 L62.65 126.95 29.35 126.75 0.0 121.25 0.0 79.55 Q27.0 82.4 53.05 77.75 L41.4 68.65 Q121.6 59.3 202.05 66.15 L204.3 67.85 233.2 68.85 228.05 71.1 Q224.05 72.75 220.0 73.2 212.2 73.75 204.65 72.25 L200.65 77.7 Q251.45 81.25 301.6 77.1 L300.15 77.85 300.5 83.85 Q334.1 87.35 367.1 80.2 L363.25 74.95 590.45 68.9 521.05 62.05 518.15 65.9 528.45 70.35 Q263.65 41.45 0.0 70.25 L0.0 60.0 Q29.6 63.2 60.1 59.35 L39.65 54.95 38.4 52.7 0.0 54.65 0.0 43.65 Q3.95 43.65 6.75 42.75 9.55 41.85 9.55 40.55 9.55 39.25 6.75 38.35 3.95 37.45 0.0 37.5 L0.0 27.95 6.1 27.2 Q14.6 25.2 21.3 19.45 L123.95 22.35 45.35 8.55 134.8 5.4 136.6 7.8 Q141.6 10.15 147.15 10.35 154.0 11.15 158.85 6.75 152.65 3.1 146.35 0.0 L276.55 0.0 Q268.75 2.6 261.0 6.85 L264.8 14.0 301.35 16.5 305.8 19.7 327.65 13.0 Q336.7 18.35 347.1 19.55 353.55 20.2 356.65 15.0 L337.35 8.1 340.45 5.2 Q333.95 2.1 327.5 0.0 L600.0 0.0 600.0 3.7 M600.0 202.6 L600.0 212.3 552.8 207.6 600.0 202.6 M600.0 226.9 L600.0 228.65 431.85 230.4 479.9 226.6 481.7 223.6 Q497.5 223.2 513.0 220.8 557.05 213.9 600.0 226.9 M600.0 248.4 L600.0 256.35 590.7 257.95 588.25 258.25 555.0 254.5 600.0 248.4 M600.0 274.5 L600.0 281.2 Q584.7 284.1 569.05 278.25 L565.85 277.05 600.0 274.5 M0.0 245.35 L0.0 228.85 1.0 228.75 Q12.6 228.05 19.95 236.95 L54.0 243.55 Q27.2 248.25 0.0 245.35 M0.0 208.75 L0.0 197.65 Q34.75 195.95 69.25 202.05 L61.1 203.45 Q30.65 208.25 0.0 208.75 M0.0 15.15 L0.0 9.6 22.35 11.8 19.7 15.75 0.0 15.15 M584.25 85.0 Q587.25 85.0 589.35 84.25 591.45 83.55 591.45 82.5 591.45 81.45 589.35 80.7 587.25 80.0 584.25 80.0 581.25 80.0 579.15 80.7 577.05 81.45 577.05 82.5 577.05 83.55 579.15 84.25 581.25 85.0 584.25 85.0 M533.05 15.7 Q533.05 16.3 533.5 16.75 533.95 17.2 534.55 17.2 535.15 17.2 535.6 16.75 L536.05 15.7 Q536.05 15.1 535.6 14.65 535.15 14.2 534.55 14.2 533.95 14.2 533.5 14.65 533.05 15.1 533.05 15.7 M508.6 87.1 L560.6 85.05 561.8 80.3 508.8 81.95 508.6 87.1 M556.4 141.9 Q550.4 136.25 542.85 140.55 L557.15 142.6 556.4 141.9 M496.55 132.8 Q495.3 131.6 493.55 131.6 491.8 131.6 490.6 132.8 489.35 134.05 489.35 135.8 489.35 137.55 490.6 138.75 491.8 140.0 493.55 140.0 495.3 140.0 496.55 138.75 497.75 137.55 497.75 135.8 497.75 134.05 496.55 132.8 M522.8 131.15 L526.05 132.65 Q552.35 143.8 576.65 127.75 L572.2 123.85 525.35 127.7 522.8 131.15 M501.4 182.05 L494.5 182.5 491.25 173.8 Q524.3 162.8 558.15 171.15 L567.55 173.75 506.9 181.4 501.4 182.05 M576.2 197.35 L493.45 196.25 494.55 195.85 Q534.0 184.95 573.25 195.85 L576.2 197.35 M564.7 158.75 Q564.7 157.25 563.65 156.15 562.55 155.1 561.05 155.1 559.55 155.1 558.5 156.15 557.4 157.25 557.4 158.75 557.4 160.25 558.5 161.3 559.55 162.4 561.05 162.4 562.55 162.4 563.65 161.3 564.7 160.25 564.7 158.75 M584.8 143.6 Q587.2 143.6 588.9 142.35 590.6 141.1 590.6 139.35 590.6 137.6 588.9 136.35 587.2 135.1 584.8 135.1 582.4 135.1 580.7 136.35 579.0 137.6 579.0 139.35 579.0 141.1 580.7 142.35 582.4 143.6 584.8 143.6 M595.85 156.25 Q596.25 155.85 596.25 155.25 596.25 154.65 595.85 154.25 595.4 153.85 594.8 153.85 594.2 153.85 593.8 154.25 593.35 154.65 593.35 155.25 593.35 155.85 593.8 156.25 594.2 156.65 594.8 156.65 595.4 156.65 595.85 156.25 M465.45 27.55 Q466.6 27.2 466.6 26.65 466.6 26.1 465.45 25.7 L462.6 25.35 459.8 25.7 Q458.6 26.1 458.6 26.65 458.6 27.2 459.8 27.55 L462.6 27.95 465.45 27.55 M414.7 14.05 Q473.7 31.55 521.45 9.05 475.25 -3.5 429.3 10.8 L422.75 8.55 414.7 14.05 M422.95 31.0 Q411.0 22.1 400.35 33.65 L423.4 31.45 422.95 31.0 M422.45 57.65 Q452.5 63.45 481.0 52.3 448.6 43.9 419.2 57.2 L422.45 57.65 M480.75 85.1 Q480.75 83.75 479.5 82.8 478.25 81.85 476.45 81.85 474.65 81.85 473.4 82.8 472.15 83.75 472.15 85.1 472.15 86.45 473.4 87.4 474.65 88.35 476.45 88.35 478.25 88.35 479.5 87.4 480.75 86.45 480.75 85.1 M401.55 14.55 L411.05 12.75 400.9 11.55 401.55 14.55 M393.15 15.95 L395.55 12.15 356.45 9.6 357.95 14.45 390.7 14.0 393.15 15.95 M336.15 48.35 L342.1 52.4 380.2 50.45 375.3 48.45 Q357.25 41.45 338.25 44.9 L336.15 48.35 M360.35 39.45 Q360.35 38.25 359.5 37.4 358.6 36.55 357.4 36.55 356.2 36.55 355.35 37.4 354.45 38.25 354.45 39.45 354.45 40.65 355.35 41.5 356.2 42.35 357.4 42.35 358.6 42.35 359.5 41.5 360.35 40.65 360.35 39.45 M354.5 98.6 Q354.5 99.95 357.7 100.9 360.85 101.85 365.3 101.85 369.75 101.85 372.95 100.9 376.1 99.95 376.1 98.6 376.1 97.25 372.95 96.3 369.75 95.35 365.3 95.35 360.85 95.35 357.7 96.3 354.5 97.25 354.5 98.6 M381.3 87.7 Q385.1 89.15 390.55 89.15 396.0 89.15 399.85 87.7 403.65 86.3 403.65 84.3 403.65 82.3 399.85 80.85 396.0 79.45 390.55 79.45 385.1 79.45 381.3 80.85 377.45 82.3 377.45 84.3 377.45 86.3 381.3 87.7 M331.85 129.65 Q332.8 128.7 332.8 127.35 332.8 126.0 331.85 125.05 330.9 124.1 329.55 124.1 328.2 124.1 327.25 125.05 326.3 126.0 326.3 127.35 326.3 128.7 327.25 129.65 328.2 130.6 329.55 130.6 330.9 130.6 331.85 129.65 M376.9 190.25 L367.85 187.85 Q402.05 180.6 436.55 186.05 L440.9 186.9 Q409.4 198.3 376.9 190.25 M411.3 124.75 Q441.95 132.15 472.95 123.65 440.75 117.6 408.65 123.9 L411.3 124.75 M464.95 201.8 Q464.95 203.65 459.9 204.95 454.85 206.25 447.7 206.25 440.55 206.25 435.5 204.95 430.45 203.65 430.45 201.8 430.45 199.95 435.5 198.65 440.55 197.35 447.7 197.35 454.85 197.35 459.9 198.65 464.95 199.95 464.95 201.8 M469.7 268.25 L471.85 269.95 436.8 267.75 469.7 268.25 M451.65 280.55 L454.75 281.3 401.0 285.3 Q425.6 275.6 451.65 280.55 M372.4 242.2 L375.7 245.55 363.35 250.35 337.95 244.3 Q432.15 229.0 527.1 237.95 453.45 249.3 379.7 242.85 L372.4 242.2 M382.2 235.0 Q391.8 228.75 402.8 232.25 L405.8 233.15 382.2 235.0 M325.55 243.75 L326.7 247.4 268.55 250.25 325.55 243.75 M359.4 213.95 Q372.3 211.6 382.35 220.0 L314.2 221.35 Q336.9 218.2 359.4 213.95 M401.9 257.95 Q401.9 259.25 399.1 260.15 396.3 261.1 392.3 261.1 388.3 261.1 385.5 260.15 382.7 259.25 382.7 257.95 382.7 256.65 385.5 255.7 388.3 254.8 392.3 254.8 396.3 254.8 399.1 255.7 401.9 256.65 401.9 257.95 M329.65 283.4 L331.05 282.15 Q336.9 277.2 344.15 280.15 L329.65 283.4 M353.6 256.1 Q354.85 256.5 356.1 257.05 L315.75 259.75 Q333.6 248.35 353.6 256.1 M307.15 89.5 Q290.0 85.05 273.65 92.5 L308.9 90.05 307.15 89.5 M210.35 13.7 L233.75 13.7 233.75 9.05 210.35 9.05 210.35 13.7 M189.2 3.1 Q188.55 2.5 187.65 2.5 186.75 2.5 186.15 3.1 185.5 3.75 185.5 4.65 185.5 5.55 186.15 6.15 186.75 6.8 187.65 6.8 188.55 6.8 189.2 6.15 189.8 5.55 189.8 4.65 189.8 3.75 189.2 3.1 M183.55 21.2 Q156.6 10.0 128.3 23.75 L185.5 22.55 Q184.6 21.7 183.55 21.2 M180.2 86.9 Q183.6 85.55 183.6 83.6 183.6 81.65 180.2 80.3 176.8 78.95 172.0 78.95 167.2 78.95 163.8 80.3 160.4 81.65 160.4 83.6 160.4 85.55 163.8 86.9 167.2 88.25 172.0 88.25 176.8 88.25 180.2 86.9 M216.95 135.35 Q212.3 137.25 212.3 139.9 212.3 142.55 216.95 144.45 221.6 146.35 228.15 146.35 234.7 146.35 239.35 144.45 244.0 142.55 244.0 139.9 244.0 137.25 239.35 135.35 234.7 133.45 228.15 133.45 221.6 133.45 216.95 135.35 M177.65 149.05 Q172.15 142.75 164.65 148.45 L178.15 149.75 177.65 149.05 M164.0 157.3 L124.8 159.25 165.3 160.8 164.0 157.3 M177.05 170.35 Q178.85 170.35 180.15 169.05 181.4 167.8 181.4 166.0 181.4 164.2 180.15 162.9 178.85 161.65 177.05 161.65 175.25 161.65 174.0 162.9 172.7 164.2 172.7 166.0 172.7 167.8 174.0 169.05 175.25 170.35 177.05 170.35 M195.2 189.95 L197.45 190.15 Q160.45 203.0 122.05 194.85 158.35 185.85 195.2 189.95 M320.95 103.9 Q316.05 100.05 310.7 103.85 309.45 104.7 308.45 105.85 L320.95 103.9 M302.6 108.4 Q303.35 107.65 303.35 106.55 303.35 105.45 302.6 104.7 301.85 103.95 300.8 103.95 299.75 103.95 299.0 104.7 298.25 105.45 298.25 106.55 298.25 107.65 299.0 108.4 299.75 109.15 300.8 109.15 301.85 109.15 302.6 108.4 M260.45 106.45 Q249.75 98.85 238.8 105.4 L261.8 107.5 260.45 106.45 M256.25 152.65 Q242.65 145.65 228.05 151.8 L257.7 153.5 256.25 152.65 M320.15 151.2 Q344.8 147.45 367.95 151.65 L313.75 153.4 Q316.85 151.65 320.15 151.2 M321.5 149.05 L322.5 149.6 320.5 149.6 Q321.0 149.35 321.5 149.05 M88.4 47.9 Q86.6 47.9 85.35 49.15 84.05 50.45 84.05 52.25 84.05 54.05 85.35 55.3 86.6 56.6 88.4 56.6 90.2 56.6 91.5 55.3 92.75 54.05 92.75 52.25 92.75 50.45 91.5 49.15 90.2 47.9 88.4 47.9 M35.75 94.6 Q33.95 96.0 33.95 97.95 33.95 99.9 35.75 101.25 37.5 102.65 40.05 102.65 42.6 102.65 44.4 101.25 46.15 99.9 46.15 97.95 46.15 96.0 44.4 94.6 42.6 93.25 40.05 93.25 37.5 93.25 35.75 94.6 M67.6 98.8 Q68.65 99.85 70.15 99.85 71.65 99.85 72.7 98.8 73.75 97.75 73.75 96.25 73.75 94.75 72.7 93.7 71.65 92.65 70.15 92.65 68.65 92.65 67.6 93.7 66.55 94.75 66.55 96.25 66.55 97.75 67.6 98.8 M59.3 76.85 Q69.2 85.85 80.95 77.6 L85.0 74.85 64.55 72.95 59.3 76.85 M63.95 114.3 Q61.6 115.4 60.55 117.55 L78.85 117.15 Q72.7 110.1 63.95 114.3 M50.7 116.3 Q50.7 114.45 45.95 113.1 41.2 111.8 34.45 111.8 27.7 111.8 22.95 113.1 18.2 114.45 18.2 116.3 18.2 118.15 22.95 119.45 27.7 120.8 34.45 120.8 41.2 120.8 45.95 119.45 50.7 118.15 50.7 116.3 M123.8 113.35 Q123.8 111.4 122.45 110.05 121.1 108.7 119.15 108.7 117.2 108.7 115.85 110.05 114.5 111.4 114.5 113.35 114.5 115.3 115.85 116.65 117.2 118.0 119.15 118.0 121.1 118.0 122.45 116.65 123.8 115.3 123.8 113.35 M104.55 130.05 Q90.4 123.1 76.2 130.55 L106.25 130.95 104.55 130.05 M87.7 197.85 L95.25 197.4 Q102.05 197.5 108.8 198.7 L87.7 197.85 M124.65 223.35 Q126.65 223.65 128.2 225.1 L138.2 225.65 131.95 225.1 151.05 224.7 152.35 226.4 254.35 231.0 257.55 230.7 288.8 232.15 Q209.25 240.75 130.05 230.2 L128.35 232.3 101.6 235.85 96.65 229.35 Q54.0 236.0 12.45 224.7 70.55 213.0 124.65 223.35 M146.65 269.75 L145.5 271.2 Q115.6 276.55 83.35 268.7 L74.95 267.3 147.55 264.25 146.65 269.75 M310.6 205.65 L312.3 206.75 367.95 205.05 Q331.25 216.15 293.3 211.4 L293.65 207.95 Q301.15 200.6 310.6 205.65 M250.8 259.7 L252.45 260.15 247.5 262.1 249.8 263.55 201.3 263.35 Q226.05 256.4 250.8 259.7 M180.75 264.8 L183.35 268.05 151.5 267.2 180.75 264.8 M241.0 254.25 Q203.55 257.3 165.7 252.2 L136.95 248.7 Q164.45 242.8 191.45 248.35 215.65 253.05 241.0 254.25" fill="#cccccc" fill-rule="evenodd" stroke="none"/>
    <path d="M600.0 370.7 L600.0 371.55 554.1 373.1 Q564.25 365.05 578.2 365.15 589.8 365.2 600.0 370.7 M600.0 386.1 L600.0 388.8 594.8 387.25 600.0 386.1 M460.45 400.0 L436.3 400.0 428.6 397.85 464.6 398.85 460.45 400.0 M291.85 400.0 L258.85 400.0 260.0 398.15 Q278.15 392.7 296.45 397.75 L291.85 400.0 M29.35 400.0 L0.0 400.0 0.0 381.1 Q15.4 377.15 34.4 386.7 L36.8 387.95 Q65.65 385.15 93.5 392.45 85.05 396.35 75.95 396.35 70.4 396.35 65.0 395.1 L42.6 392.75 Q36.15 397.55 29.35 400.0 M0.0 348.0 L0.0 328.4 Q10.45 327.0 22.85 330.85 L32.2 337.35 Q18.15 350.25 0.0 348.0 M481.85 287.85 Q476.3 298.05 452.25 294.4 L443.15 294.05 456.35 288.2 481.85 287.85 M349.15 276.8 L330.1 270.65 349.9 270.0 359.9 266.05 363.0 266.0 415.5 272.0 390.25 276.7 Q372.15 283.7 353.7 278.2 L349.15 276.8 M314.95 307.7 L317.15 311.15 Q294.7 320.5 267.75 313.55 L276.95 308.8 314.95 307.7 M464.7 345.8 Q441.05 350.15 417.45 350.25 356.55 350.5 295.65 346.5 299.05 344.65 302.7 343.9 382.95 326.0 464.7 345.8 M452.45 375.85 L444.85 377.4 Q417.7 381.85 391.55 373.5 L452.45 375.85 M472.85 377.55 L467.5 375.55 Q506.65 361.35 547.35 367.15 L551.8 372.6 Q515.45 393.25 472.85 377.55 M346.4 379.45 L422.85 386.4 Q344.0 395.8 264.8 388.5 268.75 388.05 272.5 386.85 310.5 374.45 346.4 379.45 M571.6 238.35 Q571.6 239.3 570.95 240.0 570.25 240.7 569.3 240.7 568.35 240.7 567.7 240.0 567.0 239.3 567.0 238.35 567.0 237.4 567.7 236.7 568.35 236.0 569.3 236.0 570.25 236.0 570.95 236.7 571.6 237.4 571.6 238.35 M548.35 240.35 Q548.35 242.5 545.6 244.0 542.8 245.5 538.85 245.5 534.9 245.5 532.15 244.0 529.35 242.5 529.35 240.35 529.35 238.2 532.15 236.7 534.9 235.2 538.85 235.2 542.8 235.2 545.6 236.7 548.35 238.2 548.35 240.35 M521.25 265.4 Q521.25 263.5 522.85 262.15 524.15 261.05 525.85 260.9 L526.55 260.7 Q537.1 257.3 546.55 263.2 L546.7 264.2 523.35 268.1 521.25 265.4 M516.8 338.3 Q506.6 345.8 494.4 342.9 476.35 338.8 457.85 336.65 487.55 331.7 516.8 338.3 M539.75 342.1 L533.85 341.15 578.65 338.4 Q566.9 345.65 539.75 342.1 M32.15 189.2 Q30.5 190.85 28.15 190.85 25.8 190.85 24.15 189.2 22.5 187.55 22.5 185.2 22.5 182.85 24.15 181.2 25.8 179.55 28.15 179.55 30.5 179.55 32.15 181.2 33.8 182.85 33.8 185.2 33.8 187.55 32.15 189.2 M149.9 205.85 Q150.85 204.9 152.2 204.9 153.55 204.9 154.5 205.85 155.45 206.85 155.45 208.2 155.45 209.55 154.5 210.5 153.55 211.5 152.2 211.5 150.85 211.5 149.9 210.5 148.95 209.55 148.95 208.2 148.95 206.85 149.9 205.85 M181.7 281.55 Q190.0 277.2 196.85 283.1 L197.65 283.85 Q180.3 293.6 161.6 286.65 L158.9 285.7 181.7 281.55 M68.7 240.55 L45.25 238.65 87.9 237.15 68.7 240.55 M17.2 220.7 Q16.5 221.4 15.55 221.4 14.6 221.4 13.9 220.7 13.2 220.0 13.2 219.05 13.2 218.1 13.9 217.4 14.6 216.7 15.55 216.7 16.5 216.7 17.2 217.4 17.9 218.1 17.9 219.05 17.9 220.0 17.2 220.7 M27.7 284.55 Q28.55 283.65 29.6 283.15 40.5 277.4 53.5 279.05 L53.95 283.3 27.7 284.55 M32.75 368.8 L36.25 367.4 Q60.7 358.1 83.85 369.25 L32.75 368.8 M104.45 394.75 Q133.25 383.7 152.05 395.4 L146.2 396.15 104.45 394.75 M125.45 355.65 L121.8 357.1 72.55 352.6 Q102.7 342.9 125.45 355.65 M150.75 331.85 L160.15 335.8 101.95 338.8 150.75 331.85 M311.9 226.0 Q314.05 226.0 315.55 227.5 317.05 229.0 317.05 231.15 317.05 233.3 315.55 234.8 314.05 236.3 311.9 236.3 309.75 236.3 308.25 234.8 306.75 233.3 306.75 231.15 306.75 229.0 308.25 227.5 309.75 226.0 311.9 226.0 M195.25 210.55 Q193.75 212.05 191.65 212.05 189.55 212.05 188.05 210.55 186.55 209.05 186.55 206.95 186.55 204.85 188.05 203.35 189.55 201.85 191.65 201.85 193.75 201.85 195.25 203.35 196.75 204.85 196.75 206.95 196.75 209.05 195.25 210.55 M217.2 296.3 Q215.7 296.3 214.65 295.2 213.55 294.15 213.55 292.65 213.55 291.15 214.65 290.05 215.7 289.0 217.2 289.0 218.7 289.0 219.8 290.05 220.85 291.15 220.85 292.65 220.85 294.15 219.8 295.2 218.7 296.3 217.2 296.3 M173.4 391.15 Q202.9 372.5 236.2 382.4 245.75 385.15 256.0 385.65 215.5 398.8 173.4 391.15 M216.85 367.7 L212.35 362.3 195.75 363.15 214.9 355.75 204.5 353.25 307.05 359.85 216.85 367.7 M197.85 365.0 L193.85 366.25 152.05 367.0 Q174.7 360.75 197.85 365.0" fill="#333333" fill-rule="evenodd" stroke="none"/>
  </g>
</svg>
