<?xml version="1.0" encoding="UTF-8" standalone="no"?>
<svg xmlns:ffdec="https://www.free-decompiler.com/flash" xmlns:xlink="http://www.w3.org/1999/xlink" ffdec:objectType="shape" height="400.0px" width="600.0px" xmlns="http://www.w3.org/2000/svg">
  <g transform="matrix(1.0, 0.0, 0.0, 1.0, 0.0, 0.0)">
    <path d="M600.0 106.4 L600.0 114.65 543.7 119.95 546.1 115.55 538.4 112.45 540.1 119.65 531.3 118.3 596.9 131.45 596.55 134.85 568.25 135.75 565.4 133.6 562.25 135.95 425.3 135.15 484.05 148.0 487.55 148.9 568.5 158.8 531.7 165.05 574.25 173.8 582.6 177.55 584.65 175.8 590.25 179.35 593.25 174.65 598.85 174.8 600.0 177.3 600.0 184.7 518.55 177.15 514.45 189.15 510.4 187.95 513.0 175.55 506.4 176.05 506.4 185.75 502.25 187.6 499.7 176.5 467.4 177.35 489.5 183.7 383.55 174.6 382.75 168.4 412.2 172.0 416.85 172.35 438.15 170.3 Q440.1 173.05 442.25 170.65 L442.85 169.85 490.1 165.35 458.15 156.8 457.85 156.55 457.45 156.65 442.8 156.25 Q441.05 153.1 438.6 155.45 L438.0 156.1 431.8 155.95 426.85 155.8 337.2 153.3 335.8 150.8 Q341.4 150.8 345.35 145.85 349.3 140.9 349.3 133.9 L351.3 128.0 346.85 126.1 459.15 121.45 444.25 118.85 515.85 115.2 516.4 118.45 519.9 119.75 520.05 111.3 528.3 108.75 530.7 118.2 533.4 115.25 531.55 108.5 554.0 102.1 600.0 106.4 M600.0 199.4 L600.0 400.0 552.6 400.0 567.5 368.4 550.45 378.4 538.7 364.45 546.3 400.0 527.65 400.0 505.55 380.1 509.85 400.0 497.7 400.0 484.0 389.9 482.35 385.85 478.15 384.95 475.3 387.7 479.6 400.0 0.0 400.0 0.0 376.8 26.0 393.3 28.15 389.15 0.0 353.9 0.0 223.05 47.05 218.3 48.15 218.15 73.8 211.15 72.0 205.65 Q72.05 203.7 70.8 202.3 69.55 200.9 67.85 200.9 66.1 200.9 64.9 202.35 63.65 203.75 63.65 205.7 L49.5 208.45 Q49.2 204.45 47.95 202.5 46.7 200.55 45.2 201.1 43.65 201.65 42.8 204.4 41.9 207.15 42.1 209.7 L16.8 213.1 14.45 211.0 11.4 212.1 0.0 208.9 0.0 195.6 23.15 196.9 24.55 191.8 23.25 185.5 Q23.1 182.05 24.25 179.0 25.4 175.95 27.2 175.6 29.0 175.25 30.4 177.85 31.8 180.4 31.95 184.75 L32.9 192.7 31.65 195.95 49.2 197.4 46.85 193.35 46.25 188.8 53.45 197.95 60.6 199.15 57.8 193.85 59.05 190.1 69.7 201.1 74.3 202.2 69.6 197.4 72.1 198.2 75.35 191.05 80.9 201.05 88.5 198.75 85.45 195.7 85.15 189.05 Q85.25 190.35 86.2 191.25 87.25 192.2 88.7 192.2 L89.7 198.1 101.6 182.15 104.3 182.0 106.5 188.9 112.15 192.35 146.6 192.65 142.65 184.75 147.85 186.95 144.85 174.8 154.7 186.7 166.35 188.75 179.0 190.1 185.85 193.95 188.7 186.15 180.35 182.15 166.95 181.5 157.75 173.3 153.8 174.6 152.5 176.85 153.9 164.45 163.95 176.8 280.7 182.3 247.95 188.45 251.6 193.1 289.2 188.95 285.35 181.85 286.35 176.8 293.7 188.65 298.1 187.35 301.65 176.7 305.3 187.05 315.95 187.05 308.05 184.0 372.1 182.75 366.6 183.9 536.25 196.95 535.8 200.0 443.6 203.5 452.15 207.3 421.75 209.3 423.45 202.55 417.55 201.0 416.5 207.8 413.75 206.75 Q414.15 203.85 413.25 198.1 412.3 192.35 410.4 190.4 408.5 188.4 406.75 191.4 404.95 194.4 404.15 203.7 L378.3 196.65 376.7 196.5 368.1 197.1 Q368.05 195.9 367.35 195.15 366.65 194.4 365.75 194.5 364.85 194.55 364.25 195.45 363.65 196.3 363.7 197.4 L349.75 198.35 Q347.2 195.3 344.4 198.0 L343.6 198.8 330.5 199.7 343.0 201.1 Q342.9 206.15 343.95 210.75 344.95 215.3 346.5 215.8 348.05 216.25 349.25 212.4 350.45 208.5 350.55 201.7 L363.0 202.4 Q363.0 203.85 364.6 204.9 366.15 205.95 368.35 205.95 L375.5 210.2 375.7 210.3 404.55 211.75 411.1 211.9 500.75 217.7 501.1 217.55 506.65 215.45 508.2 213.35 522.7 213.65 Q524.5 217.35 527.55 214.85 L528.25 214.25 536.85 214.3 537.3 223.6 540.25 222.45 538.7 213.75 548.8 214.05 Q548.7 218.4 550.0 222.05 551.25 225.65 553.15 226.0 555.05 226.3 556.5 223.1 557.95 219.9 558.1 214.65 L562.9 214.7 Q562.95 219.25 564.1 222.3 565.2 225.3 566.75 225.2 568.25 225.05 569.3 221.85 570.35 218.65 570.25 214.5 L596.4 207.25 574.5 202.05 577.35 197.3 600.0 199.4 M0.0 170.6 L0.0 131.55 50.9 128.85 40.25 135.1 47.7 138.7 47.9 131.75 50.95 130.15 63.4 143.25 71.3 142.95 73.25 125.9 65.4 126.65 70.85 139.2 65.15 141.15 56.5 128.1 37.9 125.2 36.1 121.55 24.15 118.85 22.7 112.1 184.9 114.05 192.45 120.25 192.2 122.45 93.8 124.65 98.4 128.35 97.95 133.75 103.85 130.35 94.4 140.1 290.85 151.05 292.55 160.55 281.2 160.4 271.85 154.7 272.65 160.2 225.0 158.3 229.25 150.65 223.7 147.6 221.75 153.5 213.8 157.7 210.8 157.55 Q210.8 155.15 209.35 153.5 207.85 151.8 205.8 151.8 L132.4 154.15 146.0 159.8 40.8 167.15 68.9 171.5 0.0 170.6 M0.0 116.7 L0.0 111.15 14.35 112.2 11.35 117.4 0.0 116.7 M0.0 90.4 L0.0 87.75 177.6 86.4 178.8 89.1 199.9 93.45 0.0 90.4 M557.3 96.6 L485.8 80.45 582.8 79.65 553.05 90.55 557.3 96.6 M545.65 199.5 L546.3 197.05 549.9 197.05 550.1 200.15 545.65 199.5 M558.35 197.05 L566.85 197.15 568.05 201.85 557.7 201.1 558.35 197.05 M379.2 141.55 Q378.55 140.7 377.65 140.7 376.75 140.7 376.1 141.55 375.45 142.35 375.45 143.5 375.45 144.65 376.1 145.5 376.75 146.3 377.65 146.3 378.55 146.3 379.2 145.5 379.85 144.65 379.85 143.5 379.85 142.35 379.2 141.55 M387.65 140.95 Q386.8 141.75 386.8 142.9 386.8 144.05 387.65 144.9 388.45 145.7 389.65 145.7 390.85 145.7 391.7 144.9 392.5 144.05 392.5 142.9 392.5 141.75 391.7 140.95 390.85 140.1 389.65 140.1 388.45 140.1 387.65 140.95 M337.75 126.5 L346.35 126.15 344.1 132.05 340.25 131.45 Q340.25 129.4 339.55 127.95 338.8 126.5 337.75 126.5 M332.5 130.4 L295.75 128.05 Q295.8 125.8 294.35 124.25 292.9 122.65 290.9 122.7 288.9 122.7 287.5 124.35 286.1 125.95 286.1 128.15 L281.05 128.1 Q281.15 125.35 279.7 123.3 278.25 121.25 276.15 121.2 274.05 121.1 272.5 123.05 270.95 124.95 270.9 127.8 L268.85 127.7 263.45 123.0 258.7 127.0 223.75 124.4 222.2 120.7 273.6 108.8 204.5 105.35 198.85 99.7 223.65 102.7 208.5 94.85 233.95 91.95 232.25 89.4 197.4 86.25 280.15 85.6 Q280.15 87.9 281.1 89.6 282.0 91.25 283.4 91.3 284.75 91.35 285.75 89.75 286.7 88.15 286.7 85.75 L295.3 85.8 298.7 85.8 376.35 84.2 275.45 93.2 272.15 87.9 269.35 91.35 272.5 94.55 271.35 98.9 302.4 105.3 304.5 107.65 287.25 107.9 282.3 111.15 334.55 126.8 332.5 130.4 M216.35 123.9 L213.4 123.7 212.9 121.2 216.8 121.05 216.35 123.9 M206.3 123.25 L198.05 122.75 197.75 120.9 206.8 121.25 206.3 123.25 M298.05 151.15 L301.8 151.2 Q301.8 154.1 303.05 156.15 304.25 158.15 306.0 158.15 307.75 158.15 309.0 156.15 310.2 154.1 310.15 151.2 L314.65 151.2 315.2 160.05 325.9 151.05 327.4 151.0 328.2 155.55 320.55 161.2 298.85 160.55 298.05 151.15 M368.5 205.6 L368.9 202.55 373.25 202.65 373.1 203.4 368.5 205.6 M471.15 229.1 Q470.05 227.65 468.5 227.65 466.95 227.65 465.85 229.1 464.75 230.5 464.75 232.5 464.75 234.5 465.85 235.95 466.95 237.35 468.5 237.35 470.05 237.35 471.15 235.95 472.25 234.5 472.25 232.5 472.25 230.5 471.15 229.1 M407.85 242.2 Q404.9 242.2 402.85 244.85 400.75 247.5 400.75 251.25 400.75 255.0 402.85 257.65 404.9 260.3 407.85 260.3 410.8 260.3 412.9 257.65 414.95 255.0 414.95 251.25 414.95 247.5 412.9 244.85 410.8 242.2 407.85 242.2 M431.35 243.25 Q428.55 243.25 426.6 246.2 424.6 249.1 424.6 253.25 424.6 257.4 426.6 260.35 428.55 263.25 431.35 263.25 434.15 263.25 436.15 260.35 438.1 257.4 438.1 253.25 438.1 249.1 436.15 246.2 434.15 243.25 431.35 243.25 M385.15 240.55 L396.25 264.15 404.15 261.55 388.95 238.6 385.15 240.55 M324.75 203.5 Q323.0 205.2 323.0 207.6 323.0 210.0 324.75 211.75 326.45 213.45 328.85 213.45 331.25 213.45 333.0 211.75 334.7 210.0 334.7 207.6 334.7 205.2 333.0 203.5 331.25 201.75 328.85 201.75 326.45 201.75 324.75 203.5 M345.75 263.45 L350.5 274.85 354.8 272.45 352.6 266.85 357.8 263.1 354.15 258.8 345.75 263.45 M370.65 252.95 L375.4 269.95 383.6 266.3 370.65 252.95 M392.05 311.3 L384.0 298.55 381.25 301.4 389.7 313.4 392.05 311.3 M398.1 307.75 L406.8 307.75 406.8 298.95 398.1 298.95 398.1 307.75 M374.1 319.9 Q375.8 321.6 378.2 321.6 380.6 321.6 382.35 319.9 384.05 318.15 384.05 315.75 384.05 313.35 382.35 311.65 380.6 309.9 378.2 309.9 375.8 309.9 374.1 311.65 372.35 313.35 372.35 315.75 372.35 318.15 374.1 319.9 M352.9 317.65 L356.65 320.3 364.7 310.95 361.6 305.7 353.25 314.4 352.9 317.65 M348.8 298.0 Q346.7 295.9 343.7 295.9 340.7 295.9 338.6 298.0 336.5 300.1 336.5 303.1 336.5 306.1 338.6 308.2 340.7 310.3 343.7 310.3 346.7 310.3 348.8 308.2 350.9 306.1 350.9 303.1 350.9 300.1 348.8 298.0 M331.9 391.95 L336.05 388.9 351.05 388.0 338.95 385.95 339.45 371.05 326.1 385.3 314.25 384.2 326.5 355.95 318.15 355.5 304.45 379.6 301.95 380.25 298.85 384.6 281.85 385.0 275.4 379.7 280.1 357.95 298.55 374.2 279.75 340.45 266.15 358.9 247.25 350.05 272.15 384.6 266.7 384.15 286.6 398.9 283.6 386.85 298.45 388.75 304.2 398.5 311.45 390.9 326.05 387.55 331.9 391.95 M398.9 365.95 Q396.2 365.95 394.3 368.65 392.4 371.35 392.4 375.2 392.4 379.05 394.3 381.75 396.2 384.45 398.9 384.45 401.6 384.45 403.5 381.75 405.4 379.05 405.4 375.2 405.4 371.35 403.5 368.65 401.6 365.95 398.9 365.95 M453.2 325.1 L473.05 349.9 460.25 324.2 457.3 323.1 453.2 325.1 M472.55 332.2 L502.15 340.5 495.3 316.5 485.65 329.85 474.05 326.8 472.55 332.2 M458.75 352.65 L448.6 338.95 445.3 344.55 458.75 352.65 M581.5 216.4 Q580.7 215.3 579.6 215.3 578.5 215.3 577.7 216.4 576.9 217.45 576.9 218.95 576.9 220.45 577.7 221.55 578.5 222.6 579.6 222.6 580.7 222.6 581.5 221.55 582.3 220.45 582.3 218.95 582.3 217.45 581.5 216.4 M580.25 234.85 Q580.25 235.85 580.95 236.6 581.65 237.3 582.65 237.3 583.65 237.3 584.35 236.6 585.05 235.85 585.05 234.85 585.05 233.85 584.35 233.15 583.65 232.4 582.65 232.4 581.65 232.4 580.95 233.15 580.25 233.85 580.25 234.85 M565.85 237.7 L570.4 240.8 572.2 236.05 568.3 233.25 562.9 230.5 498.9 234.55 535.55 241.2 Q535.5 244.35 537.15 246.7 538.8 249.0 541.2 249.1 543.55 249.2 545.3 247.0 547.05 244.8 547.1 241.55 L550.15 241.5 Q550.3 245.8 551.8 248.35 553.25 250.9 555.15 250.6 557.05 250.3 558.35 247.35 559.6 244.35 559.4 240.8 L565.85 237.7 M580.35 292.55 L578.8 301.45 570.4 291.7 565.6 296.1 575.95 315.55 579.45 303.0 588.5 305.15 585.4 290.5 580.35 292.55 M578.25 284.65 L596.3 284.65 596.3 275.85 578.25 275.85 578.25 284.65 M495.9 293.4 Q495.9 297.35 497.5 300.15 499.1 302.9 501.4 302.9 503.7 302.9 505.3 300.15 506.9 297.35 506.9 293.4 506.9 289.45 505.3 286.7 503.7 283.9 501.4 283.9 499.1 283.9 497.5 286.7 495.9 289.45 495.9 293.4 M519.65 287.15 Q517.7 284.5 514.9 284.5 512.1 284.5 510.15 287.15 508.2 289.8 508.2 293.55 508.2 297.3 510.15 299.95 512.1 302.6 514.9 302.6 517.7 302.6 519.65 299.95 521.6 297.3 521.6 293.55 521.6 289.8 519.65 287.15 M542.3 293.1 Q540.5 294.9 540.5 297.45 540.5 300.0 542.3 301.85 544.1 303.65 546.65 303.65 549.2 303.65 551.0 301.85 552.8 300.0 552.8 297.45 552.8 294.9 551.0 293.1 549.2 291.25 546.65 291.25 544.1 291.25 542.3 293.1 M528.6 292.5 Q526.45 292.5 524.95 294.6 523.45 296.65 523.45 299.55 523.45 302.45 524.95 304.55 526.45 306.6 528.6 306.6 530.75 306.6 532.25 304.55 533.75 302.45 533.75 299.55 533.75 296.65 532.25 294.6 530.75 292.5 528.6 292.5 M539.6 335.35 Q536.65 338.25 536.65 342.35 536.65 346.45 539.6 349.4 542.5 352.3 546.6 352.3 550.7 352.3 553.65 349.4 556.55 346.45 556.55 342.35 556.55 338.25 553.65 335.35 550.7 332.4 546.6 332.4 542.5 332.4 539.6 335.35 M536.4 325.15 L515.7 348.35 522.15 353.15 538.05 327.75 536.4 325.15 M560.9 339.55 Q559.05 339.55 557.75 341.6 556.4 343.65 556.4 346.55 556.4 349.45 557.75 351.5 559.05 353.55 560.9 353.55 562.75 353.55 564.1 351.5 565.4 349.45 565.4 346.55 565.4 343.65 564.1 341.6 562.75 339.55 560.9 339.55 M511.95 374.95 L523.1 391.2 527.85 389.0 518.2 373.4 511.95 374.95 M578.2 341.35 Q574.9 341.35 572.6 343.7 570.25 346.05 570.25 349.35 570.25 352.65 572.6 355.0 574.9 357.35 578.2 357.35 581.5 357.35 583.85 355.0 586.15 352.65 586.15 349.35 586.15 346.05 583.85 343.7 581.5 341.35 578.2 341.35 M596.75 341.3 Q595.7 339.55 594.2 339.55 592.7 339.55 591.65 341.3 590.6 343.05 590.6 345.5 590.6 347.95 591.65 349.7 592.7 351.45 594.2 351.45 595.7 351.45 596.75 349.7 597.8 347.95 597.8 345.5 597.8 343.05 596.75 341.3 M569.5 393.85 L587.8 393.85 587.8 375.55 569.5 375.55 569.5 393.85 M260.45 95.05 Q260.45 97.1 261.55 98.6 262.6 100.05 264.15 100.05 265.7 100.05 266.8 98.6 267.85 97.1 267.85 95.05 267.85 93.0 266.8 91.55 265.7 90.05 264.15 90.05 262.6 90.05 261.55 91.55 260.45 93.0 260.45 95.05 M250.35 88.9 Q249.2 91.05 249.2 94.15 249.2 97.25 250.35 99.45 251.45 101.6 253.05 101.6 254.65 101.6 255.8 99.45 256.9 97.25 256.9 94.15 256.9 91.05 255.8 88.9 254.65 86.7 253.05 86.7 251.45 86.7 250.35 88.9 M307.9 105.55 L392.1 111.9 305.35 107.65 307.9 105.55 M182.4 197.9 Q182.4 200.6 188.5 202.55 194.55 204.45 203.1 204.45 211.65 204.45 217.75 202.55 223.8 200.6 223.8 197.9 223.8 195.2 217.75 193.3 211.65 191.35 203.1 191.35 194.55 191.35 188.5 193.3 182.4 195.2 182.4 197.9 M80.05 125.45 L77.1 142.45 83.35 140.2 90.3 124.6 80.05 125.45 M14.8 181.25 L13.0 192.65 10.1 183.45 14.8 181.25 M72.9 186.65 L68.75 187.9 71.1 184.25 72.9 186.65 M156.9 217.75 L162.2 231.75 177.6 227.95 178.85 219.1 187.75 214.15 172.95 205.8 167.35 211.8 144.85 212.25 141.6 227.25 153.0 229.45 152.9 218.65 156.9 217.75 M129.6 227.6 Q126.95 225.65 129.5 227.65 L129.6 227.6 M126.05 209.4 L129.35 216.1 132.65 209.4 126.05 209.4 M147.1 233.6 Q145.45 235.2 145.45 237.5 145.45 239.8 147.1 241.45 148.7 243.05 151.0 243.05 153.3 243.05 154.95 241.45 156.55 239.8 156.55 237.5 156.55 235.2 154.95 233.6 153.3 231.95 151.0 231.95 148.7 231.95 147.1 233.6 M106.8 218.05 L104.55 220.7 112.5 228.45 118.1 226.85 106.8 218.05 M86.05 215.4 L67.3 227.4 102.0 229.5 97.55 222.45 101.45 210.9 86.7 208.25 82.85 211.95 86.05 215.4 M84.35 235.35 Q82.8 232.95 80.6 232.95 78.4 232.95 76.85 235.35 75.3 237.7 75.3 241.05 75.3 244.4 76.85 246.8 78.4 249.15 80.6 249.15 82.8 249.15 84.35 246.8 85.9 244.4 85.9 241.05 85.9 237.7 84.35 235.35 M124.95 294.85 L123.95 318.4 134.2 309.75 131.8 322.65 135.7 325.05 148.3 304.65 133.2 306.25 127.7 293.0 124.95 294.85 M121.15 203.5 L133.3 207.55 175.6 198.2 121.15 203.5 M51.4 241.75 Q50.35 240.1 48.9 240.1 47.45 240.1 46.45 241.75 45.4 243.4 45.4 245.7 45.4 248.0 46.45 249.65 47.45 251.3 48.9 251.3 50.35 251.3 51.4 249.65 52.4 248.0 52.4 245.7 52.4 243.4 51.4 241.75 M70.45 241.55 Q70.45 239.25 68.85 237.65 67.25 236.0 64.95 236.0 62.65 236.0 61.05 237.65 59.45 239.25 59.45 241.55 59.45 243.85 61.05 245.5 62.65 247.1 64.95 247.1 67.25 247.1 68.85 245.5 70.45 243.85 70.45 241.55 M17.7 240.0 L17.7 265.2 25.7 265.2 25.7 240.0 17.7 240.0 M57.15 310.15 Q55.5 307.55 53.15 307.55 50.8 307.55 49.15 310.15 47.5 312.7 47.5 316.35 47.5 320.0 49.15 322.6 50.8 325.15 53.15 325.15 55.5 325.15 57.15 322.6 58.8 320.0 58.8 316.35 58.8 312.7 57.15 310.15 M28.95 336.25 Q27.2 333.8 24.75 333.8 22.3 333.8 20.6 336.25 18.85 338.7 18.85 342.15 18.85 345.6 20.6 348.05 22.3 350.5 24.75 350.5 27.2 350.5 28.95 348.05 30.65 345.6 30.65 342.15 30.65 338.7 28.95 336.25 M27.9 354.15 L43.2 384.2 48.9 384.7 51.6 377.6 65.45 381.95 54.05 343.75 48.05 372.9 31.1 351.7 27.9 354.15 M78.05 393.45 L90.95 368.05 96.85 366.15 99.25 376.05 109.65 365.2 116.45 366.0 112.8 332.4 111.75 335.0 103.15 323.7 100.05 325.55 101.2 334.65 97.25 341.2 92.8 339.75 88.95 340.85 82.4 331.05 73.5 391.4 78.05 393.45 M129.5 337.85 Q126.95 337.85 125.15 341.35 123.35 344.85 123.35 349.8 123.35 354.75 125.15 358.25 126.95 361.75 129.5 361.75 132.05 361.75 133.85 358.25 135.65 354.75 135.65 349.8 135.65 344.85 133.85 341.35 132.05 337.85 129.5 337.85 M142.95 340.55 Q140.95 344.1 140.95 349.15 140.95 354.2 142.95 357.8 144.95 361.35 147.75 361.35 150.55 361.35 152.55 357.8 154.55 354.2 154.55 349.15 154.55 344.1 152.55 340.55 150.55 336.95 147.75 336.95 144.95 336.95 142.95 340.55 M114.25 298.05 Q112.9 295.7 111.0 295.7 109.1 295.7 107.75 298.05 106.4 300.35 106.4 303.6 106.4 306.85 107.75 309.2 109.1 311.5 111.0 311.5 112.9 311.5 114.25 309.2 115.6 306.85 115.6 303.6 115.6 300.35 114.25 298.05 M88.5 299.8 Q86.8 302.15 86.85 305.1 87.1 317.3 99.0 316.8 L88.5 299.8 M105.25 358.35 L101.6 362.9 99.8 360.9 104.0 353.95 105.25 358.35 M114.9 390.55 L139.0 378.05 139.6 380.55 148.2 371.85 146.15 368.35 133.7 370.1 128.15 365.95 111.6 381.15 112.15 389.45 114.9 390.55 M304.6 216.3 L304.6 227.2 320.2 227.2 320.2 216.3 304.6 216.3 M264.6 223.0 L272.3 222.4 Q276.6 221.6 277.6 220.2 278.55 218.75 275.65 217.55 272.75 216.35 265.95 216.0 L262.2 213.6 258.1 215.45 255.15 214.3 250.95 213.55 194.5 218.1 215.35 223.65 214.15 218.75 235.25 227.05 238.55 232.7 242.55 231.9 243.25 220.65 246.0 222.75 Q245.7 226.6 247.0 230.75 248.3 234.9 250.5 235.8 252.7 236.7 254.55 233.8 256.4 230.9 256.9 224.7 L257.65 224.25 261.05 226.15 264.6 223.0 M258.15 271.5 L263.5 291.25 267.4 288.05 260.95 269.95 258.15 271.5 M251.85 283.95 Q249.9 280.45 247.2 280.45 244.5 280.45 242.6 283.95 240.65 287.4 240.65 292.3 240.65 297.2 242.6 300.7 244.5 304.15 247.2 304.15 249.9 304.15 251.85 300.7 253.75 297.2 253.75 292.3 253.75 287.4 251.85 283.95 M276.6 281.35 L269.1 296.2 274.8 300.95 289.55 293.25 285.8 302.6 290.6 303.6 296.4 294.1 292.5 289.15 279.9 292.0 280.9 282.5 276.6 281.35 M209.7 242.6 Q209.7 244.9 211.8 246.55 213.85 248.2 216.75 248.2 219.65 248.2 221.75 246.55 223.8 244.9 223.8 242.6 223.8 240.3 221.75 238.65 219.65 237.0 216.75 237.0 213.85 237.0 211.8 238.65 209.7 240.3 209.7 242.6 M173.65 244.2 Q171.1 244.2 169.3 246.05 167.5 247.85 167.5 250.4 167.5 252.95 169.3 254.8 171.1 256.6 173.65 256.6 176.2 256.6 178.0 254.8 179.8 252.95 179.8 250.4 179.8 247.85 178.0 246.05 176.2 244.2 173.65 244.2 M197.55 240.2 Q195.7 237.6 193.1 237.6 190.5 237.6 188.65 240.2 186.8 242.75 186.8 246.35 186.8 249.95 188.65 252.55 190.5 255.1 193.1 255.1 195.7 255.1 197.55 252.55 199.4 249.95 199.4 246.35 199.4 242.75 197.55 240.2 M207.85 318.45 L215.3 321.75 221.2 318.1 210.95 310.15 207.85 318.45 M200.05 371.95 L212.4 355.45 208.75 351.35 197.3 369.7 200.05 371.95" fill="#009933" fill-rule="evenodd" stroke="none"/>
    <path d="M552.6 400.0 L546.3 400.0 538.7 364.45 550.45 378.4 567.5 368.4 552.6 400.0 M527.65 400.0 L509.85 400.0 505.55 380.1 527.65 400.0 M497.7 400.0 L479.6 400.0 475.3 387.7 478.15 384.95 482.35 385.85 484.0 389.9 497.7 400.0 M0.0 376.8 L0.0 353.9 28.15 389.15 26.0 393.3 0.0 376.8 M431.35 243.25 Q434.15 243.25 436.15 246.2 438.1 249.1 438.1 253.25 438.1 257.4 436.15 260.35 434.15 263.25 431.35 263.25 428.55 263.25 426.6 260.35 424.6 257.4 424.6 253.25 424.6 249.1 426.6 246.2 428.55 243.25 431.35 243.25 M407.85 242.2 Q410.8 242.2 412.9 244.85 414.95 247.5 414.95 251.25 414.95 255.0 412.9 257.65 410.8 260.3 407.85 260.3 404.9 260.3 402.85 257.65 400.75 255.0 400.75 251.25 400.75 247.5 402.85 244.85 404.9 242.2 407.85 242.2 M385.15 240.55 L388.95 238.6 404.15 261.55 396.25 264.15 385.15 240.55 M370.65 252.95 L383.6 266.3 375.4 269.95 370.65 252.95 M345.75 263.45 L354.15 258.8 357.8 263.1 352.6 266.85 354.8 272.45 350.5 274.85 345.75 263.45 M458.75 352.65 L445.3 344.55 448.6 338.95 458.75 352.65 M472.55 332.2 L474.05 326.8 485.65 329.85 495.3 316.5 502.15 340.5 472.55 332.2 M453.2 325.1 L457.3 323.1 460.25 324.2 473.05 349.9 453.2 325.1 M398.9 365.95 Q401.6 365.95 403.5 368.65 405.4 371.35 405.4 375.2 405.4 379.05 403.5 381.75 401.6 384.45 398.9 384.45 396.2 384.45 394.3 381.75 392.4 379.05 392.4 375.2 392.4 371.35 394.3 368.65 396.2 365.95 398.9 365.95 M331.9 391.95 L326.05 387.55 311.45 390.9 304.2 398.5 298.45 388.75 283.6 386.85 286.6 398.9 266.7 384.15 272.15 384.6 247.25 350.05 266.15 358.9 279.75 340.45 298.55 374.2 280.1 357.95 275.4 379.7 281.85 385.0 298.85 384.6 301.95 380.25 304.45 379.6 318.15 355.5 326.5 355.95 314.25 384.2 326.1 385.3 339.45 371.05 338.95 385.95 351.05 388.0 336.05 388.9 331.9 391.95 M580.35 292.55 L585.4 290.5 588.5 305.15 579.45 303.0 575.95 315.55 565.6 296.1 570.4 291.7 578.8 301.45 580.35 292.55 M511.95 374.95 L518.2 373.4 527.85 389.0 523.1 391.2 511.95 374.95 M560.9 339.55 Q562.75 339.55 564.1 341.6 565.4 343.65 565.4 346.55 565.4 349.45 564.1 351.5 562.75 353.55 560.9 353.55 559.05 353.55 557.75 351.5 556.4 349.45 556.4 346.55 556.4 343.65 557.75 341.6 559.05 339.55 560.9 339.55 M536.4 325.15 L538.05 327.75 522.15 353.15 515.7 348.35 536.4 325.15 M539.6 335.35 Q542.5 332.4 546.6 332.4 550.7 332.4 553.65 335.35 556.55 338.25 556.55 342.35 556.55 346.45 553.65 349.4 550.7 352.3 546.6 352.3 542.5 352.3 539.6 349.4 536.65 346.45 536.65 342.35 536.65 338.25 539.6 335.35 M569.5 393.85 L569.5 375.55 587.8 375.55 587.8 393.85 569.5 393.85 M596.75 341.3 Q597.8 343.05 597.8 345.5 597.8 347.95 596.75 349.7 595.7 351.45 594.2 351.45 592.7 351.45 591.65 349.7 590.6 347.95 590.6 345.5 590.6 343.05 591.65 341.3 592.7 339.55 594.2 339.55 595.7 339.55 596.75 341.3 M578.2 341.35 Q581.5 341.35 583.85 343.7 586.15 346.05 586.15 349.35 586.15 352.65 583.85 355.0 581.5 357.35 578.2 357.35 574.9 357.35 572.6 355.0 570.25 352.65 570.25 349.35 570.25 346.05 572.6 343.7 574.9 341.35 578.2 341.35 M142.95 340.55 Q144.95 336.95 147.75 336.95 150.55 336.95 152.55 340.55 154.55 344.1 154.55 349.15 154.55 354.2 152.55 357.8 150.55 361.35 147.75 361.35 144.95 361.35 142.95 357.8 140.95 354.2 140.95 349.15 140.95 344.1 142.95 340.55 M129.5 337.85 Q132.05 337.85 133.85 341.35 135.65 344.85 135.65 349.8 135.65 354.75 133.85 358.25 132.05 361.75 129.5 361.75 126.95 361.75 125.15 358.25 123.35 354.75 123.35 349.8 123.35 344.85 125.15 341.35 126.95 337.85 129.5 337.85 M78.05 393.45 L73.5 391.4 82.4 331.05 88.95 340.85 92.8 339.75 97.25 341.2 101.2 334.65 100.05 325.55 103.15 323.7 111.75 335.0 112.8 332.4 116.45 366.0 109.65 365.2 99.25 376.05 96.85 366.15 90.95 368.05 78.05 393.45 M27.9 354.15 L31.1 351.7 48.05 372.9 54.05 343.75 65.45 381.95 51.6 377.6 48.9 384.7 43.2 384.2 27.9 354.15 M28.95 336.25 Q30.65 338.7 30.65 342.15 30.65 345.6 28.95 348.05 27.2 350.5 24.75 350.5 22.3 350.5 20.6 348.05 18.85 345.6 18.85 342.15 18.85 338.7 20.6 336.25 22.3 333.8 24.75 333.8 27.2 333.8 28.95 336.25 M114.9 390.55 L112.15 389.45 111.6 381.15 128.15 365.95 133.7 370.1 146.15 368.35 148.2 371.85 139.6 380.55 139.0 378.05 114.9 390.55 M105.25 358.35 L104.0 353.95 99.8 360.9 101.6 362.9 105.25 358.35 M200.05 371.95 L197.3 369.7 208.75 351.35 212.4 355.45 200.05 371.95" fill="#006633" fill-rule="evenodd" stroke="none"/>
    <path d="M577.15 0.0 L600.0 0.0 600.0 4.9 577.15 0.0 M600.0 34.55 L600.0 42.55 583.2 36.65 579.35 39.5 576.1 37.05 547.5 36.65 548.0 40.7 552.3 38.8 547.1 48.95 559.5 53.0 540.6 59.55 567.45 63.0 563.85 55.0 567.85 52.05 573.6 55.1 581.55 52.8 579.9 63.35 586.65 62.5 592.95 53.45 594.8 63.05 600.0 64.0 600.0 106.4 554.0 102.1 531.55 108.5 528.3 108.75 520.05 111.3 Q516.15 109.75 515.9 113.95 L515.85 115.2 444.25 118.85 459.15 121.45 346.85 126.1 346.35 126.15 337.75 126.5 334.55 126.8 282.3 111.15 287.25 107.9 304.5 107.65 305.35 107.65 392.1 111.9 307.9 105.55 Q307.95 103.0 307.45 100.6 306.95 98.15 306.15 97.15 305.3 96.1 304.45 96.9 303.55 97.65 303.0 99.95 302.45 102.2 302.4 105.3 L271.35 98.9 272.5 94.55 275.45 93.2 376.35 84.2 298.7 85.8 299.5 77.25 295.75 77.65 293.75 81.7 295.3 85.8 286.7 85.75 Q286.8 82.25 285.85 79.6 284.9 76.95 283.55 76.85 282.15 76.75 281.15 79.35 280.15 81.9 280.15 85.6 L197.4 86.25 232.25 89.4 233.95 91.95 208.5 94.85 223.65 102.7 198.85 99.7 204.5 105.35 273.6 108.8 222.2 120.7 216.8 121.05 212.9 121.2 206.8 121.25 197.75 120.9 Q197.85 119.65 197.45 118.3 197.0 116.95 196.25 116.3 195.45 115.65 194.6 115.95 193.75 116.25 193.15 117.4 192.55 118.5 192.45 120.25 L184.9 114.05 22.7 112.1 16.8 109.75 14.35 112.2 0.0 111.15 0.0 90.4 199.9 93.45 178.8 89.1 177.6 86.4 0.0 87.75 0.0 50.7 19.8 52.15 8.75 60.25 48.75 71.8 46.4 76.55 50.5 79.85 54.7 75.65 51.85 71.65 102.65 56.95 63.55 46.85 61.05 50.4 68.1 49.85 57.0 55.9 37.6 53.75 41.0 52.75 38.45 51.3 50.05 51.0 50.75 44.15 47.1 44.2 44.1 50.4 40.65 44.15 0.0 37.15 0.0 33.1 21.35 34.95 23.9 20.35 28.65 33.6 34.85 35.7 33.0 31.7 34.8 26.75 40.05 27.35 39.1 35.95 42.55 36.8 47.3 29.0 50.35 27.45 57.1 34.7 99.9 40.75 102.85 31.85 117.35 40.0 121.25 31.75 126.9 39.5 122.0 45.3 117.75 42.85 107.2 45.55 134.15 47.4 131.4 36.95 138.5 33.55 141.7 46.85 213.5 43.2 190.65 42.6 226.05 33.2 196.7 10.55 193.05 18.95 189.5 17.35 188.6 9.0 191.1 6.35 279.95 3.7 279.35 0.0 296.5 0.0 314.6 8.95 265.6 11.5 279.8 14.9 259.9 16.55 261.0 19.7 273.65 24.5 273.95 17.75 278.4 17.1 283.85 24.55 282.55 27.0 298.0 30.05 261.8 30.2 257.65 36.3 254.1 34.7 252.1 29.75 245.0 36.75 273.65 47.05 274.3 44.1 277.1 41.95 313.1 46.8 314.6 44.6 378.4 43.35 381.5 40.25 390.65 43.9 396.35 36.55 400.7 43.15 403.85 44.35 408.85 39.0 412.25 42.25 411.3 47.85 407.65 48.9 404.15 46.6 398.95 47.05 396.7 49.7 446.0 55.7 339.85 57.15 491.1 59.75 488.15 53.2 499.55 48.45 509.2 52.2 508.85 55.6 503.75 56.4 500.95 59.8 544.55 41.15 531.6 32.45 538.6 32.75 539.0 27.35 541.55 24.95 546.45 26.65 547.3 33.15 551.95 33.45 553.1 26.35 560.35 30.35 562.25 27.7 566.9 27.05 570.1 33.35 575.85 34.85 581.5 26.15 584.2 27.65 586.85 33.45 594.3 30.75 600.0 34.55 M600.0 114.65 L600.0 124.85 596.9 131.45 531.3 118.3 540.1 119.65 543.7 119.95 600.0 114.65 M600.0 140.0 L600.0 171.0 598.85 174.8 593.25 174.65 592.45 170.75 586.55 169.6 584.75 173.3 581.25 167.05 576.75 165.45 574.25 173.8 531.7 165.05 568.5 158.8 487.55 148.9 481.75 136.6 484.05 148.0 425.3 135.15 562.25 135.95 568.6 147.05 571.0 144.45 568.25 135.75 596.55 134.85 600.0 140.0 M600.0 184.7 L600.0 199.4 577.35 197.3 Q577.4 193.75 575.9 191.1 574.35 188.45 572.2 188.4 570.0 188.35 568.45 190.9 566.85 193.45 566.85 197.15 L558.35 197.05 Q558.4 194.55 557.15 192.8 555.9 191.05 554.15 191.05 552.4 191.05 551.15 192.8 549.9 194.55 549.9 197.05 L546.3 197.05 542.55 194.3 536.25 196.95 366.6 183.9 372.1 182.75 308.05 184.0 315.95 187.05 305.3 187.05 301.65 176.7 298.1 187.35 293.7 188.65 286.35 176.8 285.35 181.85 289.2 188.95 251.6 193.1 247.95 188.45 280.7 182.3 163.95 176.8 153.9 164.45 152.5 176.85 151.75 179.05 154.7 186.7 144.85 174.8 141.55 176.5 142.65 184.75 146.6 192.65 112.15 192.35 106.5 188.9 104.3 182.0 101.6 182.15 89.7 198.1 88.7 192.2 93.85 187.45 88.75 181.05 85.15 189.05 85.45 195.7 88.5 198.75 80.9 201.05 75.35 191.05 72.9 186.65 71.1 184.25 68.75 187.9 69.6 197.4 74.3 202.2 69.7 201.1 59.05 190.1 57.8 193.85 60.6 199.15 53.45 197.95 46.25 188.8 42.25 185.0 39.45 187.95 46.85 193.35 49.2 197.4 31.65 195.95 32.9 192.7 36.4 194.7 39.15 190.45 31.95 184.75 Q31.8 180.4 30.4 177.85 29.0 175.25 27.2 175.6 25.4 175.95 24.25 179.0 23.1 182.05 23.25 185.5 18.65 185.85 16.65 186.95 14.65 188.0 15.4 189.3 16.1 190.55 19.15 191.3 L24.55 191.8 23.15 196.9 0.0 195.6 0.0 170.6 68.9 171.5 40.8 167.15 146.0 159.8 132.4 154.15 205.8 151.8 198.9 161.6 203.8 167.15 210.8 157.55 213.8 157.7 218.15 164.1 225.0 158.3 272.65 160.2 280.2 164.35 281.2 160.4 292.55 160.55 298.85 160.55 320.55 161.2 328.2 155.55 332.05 166.35 337.2 153.3 426.85 155.8 424.75 165.85 431.75 168.7 431.8 155.95 438.0 156.1 438.15 170.3 416.85 172.35 411.05 167.35 412.2 172.0 382.75 168.4 383.55 174.6 489.5 183.7 467.4 177.35 499.7 176.5 502.25 187.6 506.4 185.75 506.4 176.05 513.0 175.55 510.4 187.95 514.45 189.15 518.55 177.15 600.0 184.7 M0.0 223.05 L0.0 208.9 11.4 212.1 14.45 211.0 16.8 213.1 42.1 209.7 47.05 218.3 0.0 223.05 M0.0 131.55 L0.0 116.7 11.35 117.4 Q11.1 121.2 12.75 124.55 14.4 127.85 17.05 128.35 19.65 128.8 21.75 126.15 23.8 123.5 24.15 118.85 L36.1 121.55 37.9 125.2 56.5 128.1 65.15 141.15 70.85 139.2 65.4 126.65 73.25 125.9 71.3 142.95 63.4 143.25 50.95 130.15 47.9 131.75 47.7 138.7 40.25 135.1 50.9 128.85 0.0 131.55 M577.0 64.2 L572.6 56.2 568.45 63.1 577.0 64.2 M509.65 71.5 L508.55 66.0 452.85 67.2 515.65 74.1 517.6 66.6 513.75 66.65 509.65 71.5 M523.25 67.4 L524.1 70.2 520.45 74.95 534.2 69.35 523.25 67.4 M491.9 59.75 L500.1 59.9 494.85 58.35 491.9 59.75 M557.3 96.6 L553.05 90.55 582.8 79.65 485.8 80.45 557.3 96.6 M349.3 133.9 Q349.3 140.9 345.35 145.85 341.4 150.8 335.8 150.8 L331.8 147.4 327.4 151.0 325.9 151.05 Q325.95 147.75 324.25 145.5 322.55 143.2 320.25 143.25 317.9 143.3 316.25 145.65 314.6 148.0 314.65 151.2 L310.15 151.2 305.65 147.75 301.8 151.2 298.05 151.15 Q298.05 148.7 297.05 146.95 296.0 145.15 294.5 145.1 293.0 145.05 291.95 146.8 290.9 148.55 290.85 151.05 L94.4 140.1 103.85 130.35 97.95 133.75 98.4 128.35 93.8 124.65 192.2 122.45 Q192.15 126.45 193.0 129.75 193.8 133.0 195.0 133.25 196.2 133.45 197.15 130.5 198.05 127.55 198.05 122.75 L206.3 123.25 Q206.2 126.15 207.2 128.5 208.15 130.85 209.65 131.05 211.1 131.25 212.2 129.2 213.3 127.1 213.4 123.7 L216.35 123.9 Q216.25 126.1 217.3 127.85 218.3 129.6 219.8 129.8 221.3 129.95 222.5 128.4 223.65 126.85 223.75 124.4 L258.7 127.0 Q258.55 131.35 259.95 135.0 261.35 138.65 263.45 139.0 265.55 139.3 267.15 136.15 268.75 132.95 268.85 127.7 L270.9 127.8 Q270.85 131.45 272.3 134.2 273.75 136.95 275.85 137.05 277.95 137.15 279.5 134.55 281.05 131.95 281.05 128.1 L286.1 128.15 Q286.15 132.2 287.6 135.05 289.0 137.85 291.0 137.8 293.0 137.75 294.4 134.9 295.8 132.0 295.75 128.05 L332.5 130.4 Q332.35 133.95 333.35 137.55 334.3 141.1 335.9 141.7 337.45 142.3 338.75 139.6 340.05 136.85 340.25 131.45 L344.1 132.05 Q343.9 133.45 344.35 136.6 344.8 139.75 345.85 140.95 346.85 142.1 347.8 140.6 348.75 139.1 349.3 133.9 M442.8 156.25 L457.45 156.65 451.7 168.4 459.4 166.35 458.15 156.8 490.1 165.35 442.85 169.85 442.8 156.25 M497.0 103.6 Q495.5 102.1 493.35 102.1 491.2 102.1 489.7 103.6 488.2 105.1 488.2 107.25 488.2 109.4 489.7 110.9 491.2 112.4 493.35 112.4 495.5 112.4 497.0 110.9 498.5 109.4 498.5 107.25 498.5 105.1 497.0 103.6 M498.85 136.7 Q497.6 136.7 496.7 138.5 495.8 140.25 495.8 142.75 495.8 145.25 496.7 147.05 497.6 148.8 498.85 148.8 500.1 148.8 501.0 147.05 501.9 145.25 501.9 142.75 501.9 140.25 501.0 138.5 500.1 136.7 498.85 136.7 M502.95 141.85 Q502.05 143.3 502.05 145.35 502.05 147.4 502.95 148.9 503.85 150.35 505.15 150.35 506.45 150.35 507.35 148.9 508.25 147.4 508.25 145.35 508.25 143.3 507.35 141.85 506.45 140.35 505.15 140.35 503.85 140.35 502.95 141.85 M535.8 200.0 L539.85 203.7 545.65 199.5 550.1 200.15 557.7 201.1 568.05 201.85 574.5 202.05 596.4 207.25 570.25 214.5 566.6 212.35 562.9 214.7 558.1 214.65 Q558.2 212.15 556.95 210.2 555.65 208.25 553.75 208.1 551.85 207.9 550.4 209.65 548.95 211.35 548.8 214.05 L538.7 213.75 536.85 214.3 528.25 214.25 522.7 213.65 508.2 213.35 506.65 215.45 501.1 217.55 498.9 212.2 496.7 214.3 500.75 217.7 411.1 211.9 413.75 206.75 416.5 207.8 421.75 209.3 452.15 207.3 443.6 203.5 535.8 200.0 M585.6 142.25 Q585.6 144.2 586.95 145.6 588.3 146.95 590.25 146.95 592.2 146.95 593.55 145.6 594.9 144.2 594.9 142.25 594.9 140.3 593.55 138.95 592.2 137.55 590.25 137.55 588.3 137.55 586.95 138.95 585.6 140.3 585.6 142.25 M570.7 139.8 L576.25 143.8 573.6 136.85 570.7 139.8 M449.9 37.45 Q451.35 38.9 451.35 40.95 451.35 43.0 449.9 44.5 448.4 45.95 446.3 45.95 444.2 45.95 442.75 44.5 441.25 43.0 441.25 40.95 441.25 38.9 442.75 37.45 444.2 35.95 446.3 35.95 448.4 35.95 449.9 37.45 M479.45 30.15 L525.35 32.2 478.8 41.6 482.35 33.9 479.45 30.15 M463.3 25.55 L378.4 29.5 377.15 24.55 316.65 16.2 488.8 14.75 456.7 19.5 463.3 25.55 M426.0 42.7 Q426.0 39.9 427.55 37.95 429.05 36.0 431.2 36.0 433.35 36.0 434.9 37.95 436.4 39.9 436.4 42.7 436.4 45.5 434.9 47.45 433.35 49.4 431.2 49.4 429.05 49.4 427.55 47.45 426.0 45.5 426.0 42.7 M424.35 46.75 Q422.8 48.25 420.65 48.25 418.5 48.25 417.0 46.75 415.45 45.2 415.45 43.05 415.45 40.9 417.0 39.4 418.5 37.85 420.65 37.85 422.8 37.85 424.35 39.4 425.85 40.9 425.85 43.05 425.85 45.2 424.35 46.75 M422.1 75.6 Q421.1 76.95 421.1 78.9 421.1 80.85 422.1 82.2 423.05 83.55 424.4 83.55 425.75 83.55 426.75 82.2 427.7 80.85 427.7 78.9 427.7 76.95 426.75 75.6 425.75 74.25 424.4 74.25 423.05 74.25 422.1 75.6 M433.2 75.2 Q432.35 74.35 431.15 74.35 429.95 74.35 429.15 75.2 428.3 76.0 428.3 77.2 428.3 78.4 429.15 79.25 429.95 80.05 431.15 80.05 432.35 80.05 433.2 79.25 434.0 78.4 434.0 77.2 434.0 76.0 433.2 75.2 M478.55 51.75 Q479.7 52.9 479.7 54.5 479.7 56.1 478.55 57.25 477.4 58.4 475.8 58.4 474.2 58.4 473.05 57.25 471.9 56.1 471.9 54.5 471.9 52.9 473.05 51.75 474.2 50.6 475.8 50.6 477.4 50.6 478.55 51.75 M452.35 77.1 Q451.8 76.6 451.1 76.6 450.4 76.6 449.9 77.1 449.35 77.6 449.35 78.3 449.35 79.0 449.9 79.5 450.4 80.0 451.1 80.0 451.8 80.0 452.35 79.5 452.85 79.0 452.85 78.3 452.85 77.6 452.35 77.1 M331.85 95.3 Q329.65 95.3 328.1 96.85 326.55 98.4 326.55 100.55 326.55 102.7 328.1 104.25 329.65 105.8 331.85 105.8 334.05 105.8 335.6 104.25 337.15 102.7 337.15 100.55 337.15 98.4 335.6 96.85 334.05 95.3 331.85 95.3 M333.05 49.1 L265.45 55.8 335.65 53.45 333.05 49.1 M363.7 197.4 L363.0 202.4 350.55 201.7 349.75 198.35 363.7 197.4 M368.35 205.95 L368.5 205.6 373.1 203.4 372.85 208.0 375.5 210.2 368.35 205.95 M368.9 202.55 L368.1 197.1 376.7 196.5 Q375.35 196.65 374.4 198.3 373.25 200.1 373.25 202.65 L368.9 202.55 M378.3 196.65 L404.15 203.7 404.55 211.75 375.7 210.3 380.5 207.25 384.2 208.25 387.95 201.9 385.2 200.4 382.0 201.25 378.3 196.65 M166.95 181.5 L180.35 182.15 179.0 190.1 166.35 188.75 166.95 181.5 M484.45 107.45 Q484.45 105.25 483.25 103.7 482.05 102.15 480.35 102.15 478.65 102.15 477.45 103.7 476.25 105.25 476.25 107.45 476.25 109.65 477.45 111.2 478.65 112.75 480.35 112.75 482.05 112.75 483.25 111.2 484.45 109.65 484.45 107.45 M469.8 103.4 Q468.45 102.05 466.6 102.05 464.75 102.05 463.45 103.4 462.1 104.7 462.1 106.6 462.1 108.5 463.45 109.85 464.75 111.15 466.6 111.15 468.45 111.15 469.8 109.85 471.1 108.5 471.1 106.6 471.1 104.7 469.8 103.4 M459.35 100.75 Q458.15 98.5 456.45 98.5 454.75 98.5 453.55 100.75 452.35 102.95 452.35 106.1 452.35 109.25 453.55 111.5 454.75 113.7 456.45 113.7 458.15 113.7 459.35 111.5 460.55 109.25 460.55 106.1 460.55 102.95 459.35 100.75 M431.4 101.75 Q430.3 100.65 428.75 100.65 427.2 100.65 426.1 101.75 425.0 102.85 425.0 104.4 425.0 105.95 426.1 107.05 427.2 108.15 428.75 108.15 430.3 108.15 431.4 107.05 432.5 105.95 432.5 104.4 432.5 102.85 431.4 101.75 M343.6 198.8 L343.0 201.1 330.5 199.7 343.6 198.8 M568.3 233.25 Q567.3 233.25 566.6 234.55 565.85 235.85 565.85 237.7 L559.4 240.8 Q559.3 236.85 557.85 234.5 556.35 232.1 554.45 232.4 552.55 232.65 551.3 235.45 550.0 238.2 550.15 241.5 L547.1 241.55 Q547.25 238.1 545.6 235.5 543.95 232.85 541.55 232.75 539.1 232.65 537.35 235.1 535.6 237.55 535.55 241.2 L498.9 234.55 562.9 230.5 568.3 233.25 M292.5 41.15 L292.5 32.5 309.4 32.5 309.4 41.15 292.5 41.15 M317.5 96.0 Q315.8 96.0 314.65 97.2 313.45 98.35 313.45 100.0 313.45 101.65 314.65 102.85 315.8 104.0 317.5 104.0 319.2 104.0 320.4 102.85 321.55 101.65 321.55 100.0 321.55 98.35 320.4 97.2 319.2 96.0 317.5 96.0 M259.35 46.9 L221.15 49.85 224.9 52.35 225.85 54.7 258.65 53.6 259.35 46.9 M241.0 30.0 L230.5 32.3 243.75 36.35 240.45 34.5 241.0 30.0 M168.35 31.1 Q169.55 32.65 169.55 34.85 169.55 37.05 168.35 38.65 167.1 40.2 165.35 40.2 163.6 40.2 162.4 38.65 161.15 37.05 161.15 34.85 161.15 32.65 162.4 31.1 163.6 29.5 165.35 29.5 167.1 29.5 168.35 31.1 M168.15 4.65 Q170.1 4.65 171.5 6.5 172.9 8.35 172.9 11.0 172.9 13.65 171.5 15.5 170.1 17.35 168.15 17.35 166.2 17.35 164.8 15.5 163.4 13.65 163.4 11.0 163.4 8.35 164.8 6.5 166.2 4.65 168.15 4.65 M186.5 13.15 Q186.5 15.6 184.8 17.35 183.05 19.05 180.65 19.05 178.25 19.05 176.55 17.35 174.8 15.6 174.8 13.15 174.8 10.7 176.55 9.0 178.25 7.25 180.65 7.25 183.05 7.25 184.8 9.0 186.5 10.7 186.5 13.15 M192.75 67.75 L198.2 79.0 202.85 77.85 195.35 65.25 192.75 67.75 M184.75 67.6 Q183.65 66.5 182.1 66.5 180.55 66.5 179.5 67.6 178.4 68.65 178.4 70.15 178.4 71.65 179.5 72.75 180.55 73.8 182.1 73.8 183.65 73.8 184.75 72.75 185.8 71.65 185.8 70.15 185.8 68.65 184.75 67.6 M181.1 52.5 L139.8 53.1 179.6 57.45 181.1 52.5 M170.25 67.7 Q169.45 68.45 169.45 69.55 169.45 70.65 170.25 71.45 171.0 72.2 172.1 72.2 173.2 72.2 174.0 71.45 174.75 70.65 174.75 69.55 174.75 68.45 174.0 67.7 173.2 66.9 172.1 66.9 171.0 66.9 170.25 67.7 M206.7 70.85 Q205.2 72.35 205.2 74.5 205.2 76.65 206.7 78.15 208.2 79.65 210.3 79.65 212.4 79.65 213.9 78.15 215.4 76.65 215.4 74.5 215.4 72.35 213.9 70.85 212.4 69.35 210.3 69.35 208.2 69.35 206.7 70.85 M211.75 54.35 L215.05 50.3 205.15 51.05 211.75 54.35 M182.4 197.9 Q182.4 195.2 188.5 193.3 194.55 191.35 203.1 191.35 211.65 191.35 217.75 193.3 223.8 195.2 223.8 197.9 223.8 200.6 217.75 202.55 211.65 204.45 203.1 204.45 194.55 204.45 188.5 202.55 182.4 200.6 182.4 197.9 M81.2 19.85 Q83.35 19.85 84.9 22.35 86.4 24.85 86.4 28.4 86.4 31.95 84.9 34.45 83.35 36.95 81.2 36.95 79.05 36.95 77.55 34.45 76.0 31.95 76.0 28.4 76.0 24.85 77.55 22.35 79.05 19.85 81.2 19.85 M158.25 29.45 Q159.9 31.8 159.9 35.15 159.9 38.5 158.25 40.9 156.6 43.25 154.3 43.25 152.0 43.25 150.35 40.9 148.7 38.5 148.7 35.15 148.7 31.8 150.35 29.45 152.0 27.05 154.3 27.05 156.6 27.05 158.25 29.45 M22.4 48.3 Q24.15 46.5 26.7 46.5 29.25 46.5 31.05 48.3 32.8 50.05 32.8 52.6 32.8 55.15 31.05 56.95 29.25 58.7 26.7 58.7 24.15 58.7 22.4 56.95 20.6 55.15 20.6 52.6 20.6 50.05 22.4 48.3 M17.0 29.35 Q17.0 30.6 16.15 31.5 15.25 32.4 14.0 32.4 12.75 32.4 11.9 31.5 11.0 30.6 11.0 29.35 11.0 28.1 11.9 27.2 12.75 26.3 14.0 26.3 15.25 26.3 16.15 27.2 17.0 28.1 17.0 29.35 M32.3 74.75 Q31.3 73.75 29.95 73.75 28.6 73.75 27.65 74.75 26.65 75.7 26.65 77.1 26.65 78.5 27.65 79.5 28.6 80.45 29.95 80.45 31.3 80.45 32.3 79.5 33.25 78.5 33.25 77.1 33.25 75.7 32.3 74.75 M57.45 74.2 Q56.25 75.35 56.25 77.05 56.25 78.75 57.45 79.95 58.6 81.1 60.3 81.1 62.0 81.1 63.2 79.95 64.35 78.75 64.35 77.05 64.35 75.35 63.2 74.2 62.0 73.0 60.3 73.0 58.6 73.0 57.45 74.2 M73.45 75.05 Q72.55 74.15 71.3 74.15 70.05 74.15 69.2 75.05 68.3 75.9 68.3 77.1 68.3 78.3 69.2 79.2 70.05 80.05 71.3 80.05 72.55 80.05 73.45 79.2 74.3 78.3 74.3 77.1 74.3 75.9 73.45 75.05 M71.35 101.7 Q70.45 100.35 69.2 100.35 67.95 100.35 67.1 101.7 66.2 103.0 66.2 104.85 66.2 106.7 67.1 108.05 67.95 109.35 69.2 109.35 70.45 109.35 71.35 108.05 72.2 106.7 72.2 104.85 72.2 103.0 71.35 101.7 M74.85 108.1 Q74.85 108.95 75.45 109.6 76.05 110.2 76.9 110.2 77.75 110.2 78.35 109.6 78.95 108.95 78.95 108.1 78.95 107.25 78.35 106.65 77.75 106.0 76.9 106.0 76.05 106.0 75.45 106.65 74.85 107.25 74.85 108.1 M80.05 125.45 L90.3 124.6 83.35 140.2 77.1 142.45 80.05 125.45 M14.8 181.25 L10.1 183.45 13.0 192.65 14.8 181.25 M99.15 108.2 Q99.15 106.5 97.95 105.35 96.75 104.15 95.05 104.15 93.35 104.15 92.15 105.35 90.95 106.5 90.95 108.2 90.95 109.9 92.15 111.1 93.35 112.25 95.05 112.25 96.75 112.25 97.95 111.1 99.15 109.9 99.15 108.2 M85.7 106.9 Q85.2 106.4 84.5 106.4 83.8 106.4 83.3 106.9 82.8 107.4 82.8 108.1 82.8 108.8 83.3 109.3 83.8 109.8 84.5 109.8 85.2 109.8 85.7 109.3 86.2 108.8 86.2 108.1 86.2 107.4 85.7 106.9 M156.9 217.75 L152.9 218.65 153.0 229.45 141.6 227.25 144.85 212.25 167.35 211.8 172.95 205.8 187.75 214.15 178.85 219.1 177.6 227.95 162.2 231.75 156.9 217.75 M126.05 209.4 L132.65 209.4 129.35 216.1 126.05 209.4 M129.6 227.6 L129.5 227.65 Q126.95 225.65 129.6 227.6 M106.8 218.05 L118.1 226.85 112.5 228.45 104.55 220.7 106.8 218.05 M86.05 215.4 L82.85 211.95 86.7 208.25 101.45 210.9 97.55 222.45 102.0 229.5 67.3 227.4 86.05 215.4 M121.15 203.5 L175.6 198.2 133.3 207.55 121.15 203.5 M63.65 205.7 Q63.65 208.15 64.9 209.85 66.15 211.55 67.9 211.55 69.6 211.55 70.85 209.8 72.05 208.05 72.0 205.65 L73.8 211.15 48.15 218.15 51.6 215.9 49.5 208.45 63.65 205.7 M265.95 216.0 Q272.75 216.35 275.65 217.55 278.55 218.75 277.6 220.2 276.6 221.6 272.3 222.4 L264.6 223.0 265.95 216.0 M257.65 224.25 L256.9 224.7 257.15 224.4 Q257.35 224.25 257.65 224.25 M246.0 222.75 L243.25 220.65 239.85 217.45 235.25 227.05 214.15 218.75 215.35 223.65 194.5 218.1 250.95 213.55 Q249.05 213.85 247.65 216.2 246.0 218.9 246.0 222.75 M255.15 214.3 L258.1 215.45 Q257.8 217.85 257.25 218.55 L256.15 218.6 Q255.55 218.0 255.3 216.5 255.05 214.95 255.15 214.3" fill="#00cc33" fill-rule="evenodd" stroke="none"/>
    <path d="M577.15 0.0 L600.0 4.9 600.0 34.55 594.3 30.75 586.85 33.45 584.2 27.65 581.5 26.15 575.85 34.85 570.1 33.35 566.9 27.05 562.25 27.7 560.35 30.35 553.1 26.35 551.95 33.45 547.3 33.15 546.45 26.65 541.55 24.95 539.0 27.35 538.6 32.75 531.6 32.45 544.55 41.15 500.95 59.8 503.75 56.4 508.85 55.6 509.2 52.2 499.55 48.45 488.15 53.2 491.1 59.75 339.85 57.15 446.0 55.7 396.7 49.7 398.95 47.05 404.15 46.6 407.65 48.9 411.3 47.85 412.25 42.25 408.85 39.0 403.85 44.35 400.7 43.15 396.35 36.55 390.65 43.9 381.5 40.25 378.4 43.35 314.6 44.6 313.1 46.8 277.1 41.95 274.3 44.1 273.65 47.05 245.0 36.75 252.1 29.75 254.1 34.7 257.65 36.3 261.8 30.2 298.0 30.05 282.55 27.0 283.85 24.55 278.4 17.1 273.95 17.75 273.65 24.5 261.0 19.7 259.9 16.55 279.8 14.9 265.6 11.5 314.6 8.95 296.5 0.0 577.15 0.0 M600.0 42.55 L600.0 64.0 594.8 63.05 592.95 53.45 586.65 62.5 579.9 63.35 581.55 52.8 573.6 55.1 567.85 52.05 563.85 55.0 567.45 63.0 540.6 59.55 559.5 53.0 547.1 48.95 552.3 38.8 548.0 40.7 547.5 36.65 576.1 37.05 579.35 39.5 583.2 36.65 600.0 42.55 M0.0 50.7 L0.0 37.15 40.65 44.15 44.1 50.4 47.1 44.2 50.75 44.15 50.05 51.0 38.45 51.3 41.0 52.75 37.6 53.75 57.0 55.9 68.1 49.85 61.05 50.4 63.55 46.85 102.65 56.95 51.85 71.65 48.75 71.8 8.75 60.25 19.8 52.15 0.0 50.7 M0.0 33.1 L0.0 0.0 279.35 0.0 279.95 3.7 191.1 6.35 188.6 9.0 189.5 17.35 193.05 18.95 196.7 10.55 226.05 33.2 190.65 42.6 213.5 43.2 141.7 46.85 138.5 33.55 131.4 36.95 134.15 47.4 107.2 45.55 117.75 42.85 122.0 45.3 126.9 39.5 121.25 31.75 117.35 40.0 102.85 31.85 99.9 40.75 57.1 34.7 50.35 27.45 47.3 29.0 42.55 36.8 39.1 35.95 40.05 27.35 34.8 26.75 33.0 31.7 34.85 35.7 28.65 33.6 23.9 20.35 21.35 34.95 0.0 33.1 M577.0 64.2 L568.45 63.1 572.6 56.2 577.0 64.2 M523.25 67.4 L534.2 69.35 520.45 74.95 524.1 70.2 523.25 67.4 M509.65 71.5 L513.75 66.65 517.6 66.6 515.65 74.1 452.85 67.2 508.55 66.0 509.65 71.5 M491.9 59.75 L494.85 58.35 500.1 59.9 491.9 59.75 M449.9 37.45 Q448.4 35.95 446.3 35.95 444.2 35.95 442.75 37.45 441.25 38.9 441.25 40.95 441.25 43.0 442.75 44.5 444.2 45.95 446.3 45.95 448.4 45.95 449.9 44.5 451.35 43.0 451.35 40.95 451.35 38.9 449.9 37.45 M463.3 25.55 L456.7 19.5 488.8 14.75 316.65 16.2 377.15 24.55 378.4 29.5 463.3 25.55 M479.45 30.15 L482.35 33.9 478.8 41.6 525.35 32.2 479.45 30.15 M424.35 46.75 Q425.85 45.2 425.85 43.05 425.85 40.9 424.35 39.4 422.8 37.85 420.65 37.85 418.5 37.85 417.0 39.4 415.45 40.9 415.45 43.05 415.45 45.2 417.0 46.75 418.5 48.25 420.65 48.25 422.8 48.25 424.35 46.75 M426.0 42.7 Q426.0 45.5 427.55 47.45 429.05 49.4 431.2 49.4 433.35 49.4 434.9 47.45 436.4 45.5 436.4 42.7 436.4 39.9 434.9 37.95 433.35 36.0 431.2 36.0 429.05 36.0 427.55 37.95 426.0 39.9 426.0 42.7 M478.55 51.75 Q477.4 50.6 475.8 50.6 474.2 50.6 473.05 51.75 471.9 52.9 471.9 54.5 471.9 56.1 473.05 57.25 474.2 58.4 475.8 58.4 477.4 58.4 478.55 57.25 479.7 56.1 479.7 54.5 479.7 52.9 478.55 51.75 M333.05 49.1 L335.65 53.45 265.45 55.8 333.05 49.1 M292.5 41.15 L309.4 41.15 309.4 32.5 292.5 32.5 292.5 41.15 M241.0 30.0 L240.45 34.5 243.75 36.35 230.5 32.3 241.0 30.0 M259.35 46.9 L258.65 53.6 225.85 54.7 224.9 52.35 221.15 49.85 259.35 46.9 M186.5 13.15 Q186.5 10.7 184.8 9.0 183.05 7.25 180.65 7.25 178.25 7.25 176.55 9.0 174.8 10.7 174.8 13.15 174.8 15.6 176.55 17.35 178.25 19.05 180.65 19.05 183.05 19.05 184.8 17.35 186.5 15.6 186.5 13.15 M168.15 4.65 Q166.2 4.65 164.8 6.5 163.4 8.35 163.4 11.0 163.4 13.65 164.8 15.5 166.2 17.35 168.15 17.35 170.1 17.35 171.5 15.5 172.9 13.65 172.9 11.0 172.9 8.35 171.5 6.5 170.1 4.65 168.15 4.65 M168.35 31.1 Q167.1 29.5 165.35 29.5 163.6 29.5 162.4 31.1 161.15 32.65 161.15 34.85 161.15 37.05 162.4 38.65 163.6 40.2 165.35 40.2 167.1 40.2 168.35 38.65 169.55 37.05 169.55 34.85 169.55 32.65 168.35 31.1 M181.1 52.5 L179.6 57.45 139.8 53.1 181.1 52.5 M211.75 54.35 L205.15 51.05 215.05 50.3 211.75 54.35 M158.25 29.45 Q156.6 27.05 154.3 27.05 152.0 27.05 150.35 29.45 148.7 31.8 148.7 35.15 148.7 38.5 150.35 40.9 152.0 43.25 154.3 43.25 156.6 43.25 158.25 40.9 159.9 38.5 159.9 35.15 159.9 31.8 158.25 29.45 M81.2 19.85 Q79.05 19.85 77.55 22.35 76.0 24.85 76.0 28.4 76.0 31.95 77.55 34.45 79.05 36.95 81.2 36.95 83.35 36.95 84.9 34.45 86.4 31.95 86.4 28.4 86.4 24.85 84.9 22.35 83.35 19.85 81.2 19.85 M17.0 29.35 Q17.0 28.1 16.15 27.2 15.25 26.3 14.0 26.3 12.75 26.3 11.9 27.2 11.0 28.1 11.0 29.35 11.0 30.6 11.9 31.5 12.75 32.4 14.0 32.4 15.25 32.4 16.15 31.5 17.0 30.6 17.0 29.35 M22.4 48.3 Q20.6 50.05 20.6 52.6 20.6 55.15 22.4 56.95 24.15 58.7 26.7 58.7 29.25 58.7 31.05 56.95 32.8 55.15 32.8 52.6 32.8 50.05 31.05 48.3 29.25 46.5 26.7 46.5 24.15 46.5 22.4 48.3" fill="#75e39b" fill-rule="evenodd" stroke="none"/>
    <path d="M600.0 124.85 L600.0 140.0 596.55 134.85 596.9 131.45 600.0 124.85 M600.0 171.0 L600.0 177.3 598.85 174.8 600.0 171.0 M528.3 108.75 L531.55 108.5 533.4 115.25 530.7 118.2 528.3 108.75 M520.05 111.3 L519.9 119.75 516.4 118.45 515.85 115.2 515.9 113.95 Q516.15 109.75 520.05 111.3 M346.85 126.1 L351.3 128.0 349.3 133.9 Q348.75 139.1 347.8 140.6 346.85 142.1 345.85 140.95 344.8 139.75 344.35 136.6 343.9 133.45 344.1 132.05 L346.35 126.15 346.85 126.1 M335.8 150.8 L337.2 153.3 332.05 166.35 328.2 155.55 327.4 151.0 331.8 147.4 335.8 150.8 M426.85 155.8 L431.8 155.95 431.75 168.7 424.75 165.85 426.85 155.8 M438.0 156.1 L438.6 155.45 Q441.05 153.1 442.8 156.25 L442.85 169.85 442.25 170.65 Q440.1 173.05 438.15 170.3 L438.0 156.1 M457.45 156.65 L457.85 156.55 458.15 156.8 459.4 166.35 451.7 168.4 457.45 156.65 M416.85 172.35 L412.2 172.0 411.05 167.35 416.85 172.35 M540.1 119.65 L538.4 112.45 546.1 115.55 543.7 119.95 540.1 119.65 M562.25 135.95 L565.4 133.6 568.25 135.75 571.0 144.45 568.6 147.05 562.25 135.95 M536.25 196.95 L542.55 194.3 546.3 197.05 545.65 199.5 539.85 203.7 535.8 200.0 536.25 196.95 M502.95 141.85 Q503.85 140.35 505.15 140.35 506.45 140.35 507.35 141.85 508.25 143.3 508.25 145.35 508.25 147.4 507.35 148.9 506.45 150.35 505.15 150.35 503.85 150.35 502.95 148.9 502.05 147.4 502.05 145.35 502.05 143.3 502.95 141.85 M498.85 136.7 Q500.1 136.7 501.0 138.5 501.9 140.25 501.9 142.75 501.9 145.25 501.0 147.05 500.1 148.8 498.85 148.8 497.6 148.8 496.7 147.05 495.8 145.25 495.8 142.75 495.8 140.25 496.7 138.5 497.6 136.7 498.85 136.7 M497.0 103.6 Q498.5 105.1 498.5 107.25 498.5 109.4 497.0 110.9 495.5 112.4 493.35 112.4 491.2 112.4 489.7 110.9 488.2 109.4 488.2 107.25 488.2 105.1 489.7 103.6 491.2 102.1 493.35 102.1 495.5 102.1 497.0 103.6 M549.9 197.05 Q549.9 194.55 551.15 192.8 552.4 191.05 554.15 191.05 555.9 191.05 557.15 192.8 558.4 194.55 558.35 197.05 L557.7 201.1 550.1 200.15 549.9 197.05 M566.85 197.15 Q566.85 193.45 568.45 190.9 570.0 188.35 572.2 188.4 574.35 188.45 575.9 191.1 577.4 193.75 577.35 197.3 L574.5 202.05 568.05 201.85 566.85 197.15 M570.7 139.8 L573.6 136.85 576.25 143.8 570.7 139.8 M585.6 142.25 Q585.6 140.3 586.95 138.95 588.3 137.55 590.25 137.55 592.2 137.55 593.55 138.95 594.9 140.3 594.9 142.25 594.9 144.2 593.55 145.6 592.2 146.95 590.25 146.95 588.3 146.95 586.95 145.6 585.6 144.2 585.6 142.25 M574.25 173.8 L576.75 165.45 581.25 167.05 584.75 173.3 586.55 169.6 592.45 170.75 593.25 174.65 590.25 179.35 584.65 175.8 582.6 177.55 574.25 173.8 M433.2 75.2 Q434.0 76.0 434.0 77.2 434.0 78.4 433.2 79.25 432.35 80.05 431.15 80.05 429.95 80.05 429.15 79.25 428.3 78.4 428.3 77.2 428.3 76.0 429.15 75.2 429.95 74.35 431.15 74.35 432.35 74.35 433.2 75.2 M422.1 75.6 Q423.05 74.25 424.4 74.25 425.75 74.25 426.75 75.6 427.7 76.95 427.7 78.9 427.7 80.85 426.75 82.2 425.75 83.55 424.4 83.55 423.05 83.55 422.1 82.2 421.1 80.85 421.1 78.9 421.1 76.95 422.1 75.6 M331.85 95.3 Q334.05 95.3 335.6 96.85 337.15 98.4 337.15 100.55 337.15 102.7 335.6 104.25 334.05 105.8 331.85 105.8 329.65 105.8 328.1 104.25 326.55 102.7 326.55 100.55 326.55 98.4 328.1 96.85 329.65 95.3 331.85 95.3 M452.35 77.1 Q452.85 77.6 452.85 78.3 452.85 79.0 452.35 79.5 451.8 80.0 451.1 80.0 450.4 80.0 449.9 79.5 449.35 79.0 449.35 78.3 449.35 77.6 449.9 77.1 450.4 76.6 451.1 76.6 451.8 76.6 452.35 77.1 M387.65 140.95 Q388.45 140.1 389.65 140.1 390.85 140.1 391.7 140.95 392.5 141.75 392.5 142.9 392.5 144.05 391.7 144.9 390.85 145.7 389.65 145.7 388.45 145.7 387.65 144.9 386.8 144.05 386.8 142.9 386.8 141.75 387.65 140.95 M379.2 141.55 Q379.85 142.35 379.85 143.5 379.85 144.65 379.2 145.5 378.55 146.3 377.65 146.3 376.75 146.3 376.1 145.5 375.45 144.65 375.45 143.5 375.45 142.35 376.1 141.55 376.75 140.7 377.65 140.7 378.55 140.7 379.2 141.55 M334.55 126.8 L337.75 126.5 Q338.8 126.5 339.55 127.95 340.25 129.4 340.25 131.45 340.05 136.85 338.75 139.6 337.45 142.3 335.9 141.7 334.3 141.1 333.35 137.55 332.35 133.95 332.5 130.4 L334.55 126.8 M295.75 128.05 Q295.8 132.0 294.4 134.9 293.0 137.75 291.0 137.8 289.0 137.85 287.6 135.05 286.15 132.2 286.1 128.15 286.1 125.95 287.5 124.35 288.9 122.7 290.9 122.7 292.9 122.65 294.35 124.25 295.8 125.8 295.75 128.05 M281.05 128.1 Q281.05 131.95 279.5 134.55 277.95 137.15 275.85 137.05 273.75 136.95 272.3 134.2 270.85 131.45 270.9 127.8 270.95 124.95 272.5 123.05 274.05 121.1 276.15 121.2 278.25 121.25 279.7 123.3 281.15 125.35 281.05 128.1 M268.85 127.7 Q268.75 132.95 267.15 136.15 265.55 139.3 263.45 139.0 261.35 138.65 259.95 135.0 258.55 131.35 258.7 127.0 L263.45 123.0 268.85 127.7 M223.75 124.4 Q223.65 126.85 222.5 128.4 221.3 129.95 219.8 129.8 218.3 129.6 217.3 127.85 216.25 126.1 216.35 123.9 L216.8 121.05 222.2 120.7 223.75 124.4 M213.4 123.7 Q213.3 127.1 212.2 129.2 211.1 131.25 209.65 131.05 208.15 130.85 207.2 128.5 206.2 126.15 206.3 123.25 L206.8 121.25 212.9 121.2 213.4 123.7 M198.05 122.75 Q198.05 127.55 197.15 130.5 196.2 133.45 195.0 133.25 193.8 133.0 193.0 129.75 192.15 126.45 192.2 122.45 L192.45 120.25 Q192.55 118.5 193.15 117.4 193.75 116.25 194.6 115.95 195.45 115.65 196.25 116.3 197.0 116.95 197.45 118.3 197.85 119.65 197.75 120.9 L198.05 122.75 M290.85 151.05 Q290.9 148.55 291.95 146.8 293.0 145.05 294.5 145.1 296.0 145.15 297.05 146.95 298.05 148.7 298.05 151.15 L298.85 160.55 292.55 160.55 290.85 151.05 M301.8 151.2 L305.65 147.75 310.15 151.2 Q310.2 154.1 309.0 156.15 307.75 158.15 306.0 158.15 304.25 158.15 303.05 156.15 301.8 154.1 301.8 151.2 M314.65 151.2 Q314.6 148.0 316.25 145.65 317.9 143.3 320.25 143.25 322.55 143.2 324.25 145.5 325.95 147.75 325.9 151.05 L315.2 160.05 314.65 151.2 M304.5 107.65 L302.4 105.3 Q302.45 102.2 303.0 99.95 303.55 97.65 304.45 96.9 305.3 96.1 306.15 97.15 306.95 98.15 307.45 100.6 307.95 103.0 307.9 105.55 L305.35 107.65 304.5 107.65 M272.5 94.55 L269.35 91.35 272.15 87.9 275.45 93.2 272.5 94.55 M298.7 85.8 L295.3 85.8 293.75 81.7 295.75 77.65 299.5 77.25 298.7 85.8 M286.7 85.75 Q286.7 88.15 285.75 89.75 284.75 91.35 283.4 91.3 282.0 91.25 281.1 89.6 280.15 87.9 280.15 85.6 280.15 81.9 281.15 79.35 282.15 76.75 283.55 76.85 284.9 76.95 285.85 79.6 286.8 82.25 286.7 85.75 M281.2 160.4 L280.2 164.35 272.65 160.2 271.85 154.7 281.2 160.4 M225.0 158.3 L218.15 164.1 213.8 157.7 221.75 153.5 223.7 147.6 229.25 150.65 225.0 158.3 M210.8 157.55 L203.8 167.15 198.9 161.6 205.8 151.8 Q207.85 151.8 209.35 153.5 210.8 155.15 210.8 157.55 M363.7 197.4 Q363.65 196.3 364.25 195.45 364.85 194.55 365.75 194.5 366.65 194.4 367.35 195.15 368.05 195.9 368.1 197.1 L368.9 202.55 368.5 205.6 368.35 205.95 Q366.15 205.95 364.6 204.9 363.0 203.85 363.0 202.4 L363.7 197.4 M376.7 196.5 L378.3 196.65 382.0 201.25 385.2 200.4 387.95 201.9 384.2 208.25 380.5 207.25 375.7 210.3 375.5 210.2 372.85 208.0 373.1 203.4 373.25 202.65 Q373.25 200.1 374.4 198.3 375.35 196.65 376.7 196.5 M404.15 203.7 Q404.95 194.4 406.75 191.4 408.5 188.4 410.4 190.4 412.3 192.35 413.25 198.1 414.15 203.85 413.75 206.75 L411.1 211.9 404.55 211.75 404.15 203.7 M416.5 207.8 L417.55 201.0 423.45 202.55 421.75 209.3 416.5 207.8 M152.5 176.85 L153.8 174.6 157.75 173.3 166.95 181.5 166.35 188.75 154.7 186.7 151.75 179.05 152.5 176.85 M180.35 182.15 L188.7 186.15 185.85 193.95 179.0 190.1 180.35 182.15 M144.85 174.8 L147.85 186.95 142.65 184.75 141.55 176.5 144.85 174.8 M88.7 192.2 Q87.25 192.2 86.2 191.25 85.25 190.35 85.15 189.05 L88.75 181.05 93.85 187.45 88.7 192.2 M75.35 191.05 L72.1 198.2 69.6 197.4 68.75 187.9 72.9 186.65 75.35 191.05 M46.25 188.8 L46.85 193.35 39.45 187.95 42.25 185.0 46.25 188.8 M32.9 192.7 L31.95 184.75 39.15 190.45 36.4 194.7 32.9 192.7 M23.25 185.5 L24.55 191.8 19.15 191.3 Q16.1 190.55 15.4 189.3 14.65 188.0 16.65 186.95 18.65 185.85 23.25 185.5 M459.35 100.75 Q460.55 102.95 460.55 106.1 460.55 109.25 459.35 111.5 458.15 113.7 456.45 113.7 454.75 113.7 453.55 111.5 452.35 109.25 452.35 106.1 452.35 102.95 453.55 100.75 454.75 98.5 456.45 98.5 458.15 98.5 459.35 100.75 M469.8 103.4 Q471.1 104.7 471.1 106.6 471.1 108.5 469.8 109.85 468.45 111.15 466.6 111.15 464.75 111.15 463.45 109.85 462.1 108.5 462.1 106.6 462.1 104.7 463.45 103.4 464.75 102.05 466.6 102.05 468.45 102.05 469.8 103.4 M484.45 107.45 Q484.45 109.65 483.25 111.2 482.05 112.75 480.35 112.75 478.65 112.75 477.45 111.2 476.25 109.65 476.25 107.45 476.25 105.25 477.45 103.7 478.65 102.15 480.35 102.15 482.05 102.15 483.25 103.7 484.45 105.25 484.45 107.45 M484.05 148.0 L481.75 136.6 487.55 148.9 484.05 148.0 M431.4 101.75 Q432.5 102.85 432.5 104.4 432.5 105.95 431.4 107.05 430.3 108.15 428.75 108.15 427.2 108.15 426.1 107.05 425.0 105.95 425.0 104.4 425.0 102.85 426.1 101.75 427.2 100.65 428.75 100.65 430.3 100.65 431.4 101.75 M471.15 229.1 Q472.25 230.5 472.25 232.5 472.25 234.5 471.15 235.95 470.05 237.35 468.5 237.35 466.95 237.35 465.85 235.95 464.75 234.5 464.75 232.5 464.75 230.5 465.85 229.1 466.95 227.65 468.5 227.65 470.05 227.65 471.15 229.1 M500.75 217.7 L496.7 214.3 498.9 212.2 501.1 217.55 500.75 217.7 M522.7 213.65 L528.25 214.25 527.55 214.85 Q524.5 217.35 522.7 213.65 M536.85 214.3 L538.7 213.75 540.25 222.45 537.3 223.6 536.85 214.3 M548.8 214.05 Q548.95 211.35 550.4 209.65 551.85 207.9 553.75 208.1 555.65 208.25 556.95 210.2 558.2 212.15 558.1 214.65 557.95 219.9 556.5 223.1 555.05 226.3 553.15 226.0 551.25 225.65 550.0 222.05 548.7 218.4 548.8 214.05 M562.9 214.7 L566.6 212.35 570.25 214.5 Q570.35 218.65 569.3 221.85 568.25 225.05 566.75 225.2 565.2 225.3 564.1 222.3 562.95 219.25 562.9 214.7 M350.55 201.7 Q350.45 208.5 349.25 212.4 348.05 216.25 346.5 215.8 344.95 215.3 343.95 210.75 342.9 206.15 343.0 201.1 L343.6 198.8 344.4 198.0 Q347.2 195.3 349.75 198.35 L350.55 201.7 M324.75 203.5 Q326.45 201.75 328.85 201.75 331.25 201.75 333.0 203.5 334.7 205.2 334.7 207.6 334.7 210.0 333.0 211.75 331.25 213.45 328.85 213.45 326.45 213.45 324.75 211.75 323.0 210.0 323.0 207.6 323.0 205.2 324.75 203.5 M348.8 298.0 Q350.9 300.1 350.9 303.1 350.9 306.1 348.8 308.2 346.7 310.3 343.7 310.3 340.7 310.3 338.6 308.2 336.5 306.1 336.5 303.1 336.5 300.1 338.6 298.0 340.7 295.9 343.7 295.9 346.7 295.9 348.8 298.0 M352.9 317.65 L353.25 314.4 361.6 305.7 364.7 310.95 356.65 320.3 352.9 317.65 M374.1 319.9 Q372.35 318.15 372.35 315.75 372.35 313.35 374.1 311.65 375.8 309.9 378.2 309.9 380.6 309.9 382.35 311.65 384.05 313.35 384.05 315.75 384.05 318.15 382.35 319.9 380.6 321.6 378.2 321.6 375.8 321.6 374.1 319.9 M398.1 307.75 L398.1 298.95 406.8 298.95 406.8 307.75 398.1 307.75 M392.05 311.3 L389.7 313.4 381.25 301.4 384.0 298.55 392.05 311.3 M568.3 233.25 L572.2 236.05 570.4 240.8 565.85 237.7 Q565.85 235.85 566.6 234.55 567.3 233.25 568.3 233.25 M580.25 234.85 Q580.25 233.85 580.95 233.15 581.65 232.4 582.65 232.4 583.65 232.4 584.35 233.15 585.05 233.85 585.05 234.85 585.05 235.85 584.35 236.6 583.65 237.3 582.65 237.3 581.65 237.3 580.95 236.6 580.25 235.85 580.25 234.85 M581.5 216.4 Q582.3 217.45 582.3 218.95 582.3 220.45 581.5 221.55 580.7 222.6 579.6 222.6 578.5 222.6 577.7 221.55 576.9 220.45 576.9 218.95 576.9 217.45 577.7 216.4 578.5 215.3 579.6 215.3 580.7 215.3 581.5 216.4 M559.4 240.8 Q559.6 244.35 558.35 247.35 557.05 250.3 555.15 250.6 553.25 250.9 551.8 248.35 550.3 245.8 550.15 241.5 550.0 238.2 551.3 235.45 552.55 232.65 554.45 232.4 556.35 232.1 557.85 234.5 559.3 236.85 559.4 240.8 M547.1 241.55 Q547.05 244.8 545.3 247.0 543.55 249.2 541.2 249.1 538.8 249.0 537.15 246.7 535.5 244.35 535.55 241.2 535.6 237.55 537.35 235.1 539.1 232.65 541.55 232.75 543.95 232.85 545.6 235.5 547.25 238.1 547.1 241.55 M578.25 284.65 L578.25 275.85 596.3 275.85 596.3 284.65 578.25 284.65 M528.6 292.5 Q530.75 292.5 532.25 294.6 533.75 296.65 533.75 299.55 533.75 302.45 532.25 304.55 530.75 306.6 528.6 306.6 526.45 306.6 524.95 304.55 523.45 302.45 523.45 299.55 523.45 296.65 524.95 294.6 526.45 292.5 528.6 292.5 M542.3 293.1 Q544.1 291.25 546.65 291.25 549.2 291.25 551.0 293.1 552.8 294.9 552.8 297.45 552.8 300.0 551.0 301.85 549.2 303.65 546.65 303.65 544.1 303.65 542.3 301.85 540.5 300.0 540.5 297.45 540.5 294.9 542.3 293.1 M519.65 287.15 Q521.6 289.8 521.6 293.55 521.6 297.3 519.65 299.95 517.7 302.6 514.9 302.6 512.1 302.6 510.15 299.95 508.2 297.3 508.2 293.55 508.2 289.8 510.15 287.15 512.1 284.5 514.9 284.5 517.7 284.5 519.65 287.15 M495.9 293.4 Q495.9 289.45 497.5 286.7 499.1 283.9 501.4 283.9 503.7 283.9 505.3 286.7 506.9 289.45 506.9 293.4 506.9 297.35 505.3 300.15 503.7 302.9 501.4 302.9 499.1 302.9 497.5 300.15 495.9 297.35 495.9 293.4 M250.35 88.9 Q251.45 86.7 253.05 86.7 254.65 86.7 255.8 88.9 256.9 91.05 256.9 94.15 256.9 97.25 255.8 99.45 254.65 101.6 253.05 101.6 251.45 101.6 250.35 99.45 249.2 97.25 249.2 94.15 249.2 91.05 250.35 88.9 M260.45 95.05 Q260.45 93.0 261.55 91.55 262.6 90.05 264.15 90.05 265.7 90.05 266.8 91.55 267.85 93.0 267.85 95.05 267.85 97.1 266.8 98.6 265.7 100.05 264.15 100.05 262.6 100.05 261.55 98.6 260.45 97.1 260.45 95.05 M317.5 96.0 Q319.2 96.0 320.4 97.2 321.55 98.35 321.55 100.0 321.55 101.65 320.4 102.85 319.2 104.0 317.5 104.0 315.8 104.0 314.65 102.85 313.45 101.65 313.45 100.0 313.45 98.35 314.65 97.2 315.8 96.0 317.5 96.0 M184.75 67.6 Q185.8 68.65 185.8 70.15 185.8 71.65 184.75 72.75 183.65 73.8 182.1 73.8 180.55 73.8 179.5 72.75 178.4 71.65 178.4 70.15 178.4 68.65 179.5 67.6 180.55 66.5 182.1 66.5 183.65 66.5 184.75 67.6 M192.75 67.75 L195.35 65.25 202.85 77.85 198.2 79.0 192.75 67.75 M170.25 67.7 Q171.0 66.9 172.1 66.9 173.2 66.9 174.0 67.7 174.75 68.45 174.75 69.55 174.75 70.65 174.0 71.45 173.2 72.2 172.1 72.2 171.0 72.2 170.25 71.45 169.45 70.65 169.45 69.55 169.45 68.45 170.25 67.7 M206.7 70.85 Q208.2 69.35 210.3 69.35 212.4 69.35 213.9 70.85 215.4 72.35 215.4 74.5 215.4 76.65 213.9 78.15 212.4 79.65 210.3 79.65 208.2 79.65 206.7 78.15 205.2 76.65 205.2 74.5 205.2 72.35 206.7 70.85 M51.85 71.65 L54.7 75.65 50.5 79.85 46.4 76.55 48.75 71.8 51.85 71.65 M57.45 74.2 Q58.6 73.0 60.3 73.0 62.0 73.0 63.2 74.2 64.35 75.35 64.35 77.05 64.35 78.75 63.2 79.95 62.0 81.1 60.3 81.1 58.6 81.1 57.45 79.95 56.25 78.75 56.25 77.05 56.25 75.35 57.45 74.2 M32.3 74.75 Q33.25 75.7 33.25 77.1 33.25 78.5 32.3 79.5 31.3 80.45 29.95 80.45 28.6 80.45 27.65 79.5 26.65 78.5 26.65 77.1 26.65 75.7 27.65 74.75 28.6 73.75 29.95 73.75 31.3 73.75 32.3 74.75 M74.85 108.1 Q74.85 107.25 75.45 106.65 76.05 106.0 76.9 106.0 77.75 106.0 78.35 106.65 78.95 107.25 78.95 108.1 78.95 108.95 78.35 109.6 77.75 110.2 76.9 110.2 76.05 110.2 75.45 109.6 74.85 108.95 74.85 108.1 M71.35 101.7 Q72.2 103.0 72.2 104.85 72.2 106.7 71.35 108.05 70.45 109.35 69.2 109.35 67.95 109.35 67.1 108.05 66.2 106.7 66.2 104.85 66.2 103.0 67.1 101.7 67.95 100.35 69.2 100.35 70.45 100.35 71.35 101.7 M73.45 75.05 Q74.3 75.9 74.3 77.1 74.3 78.3 73.45 79.2 72.55 80.05 71.3 80.05 70.05 80.05 69.2 79.2 68.3 78.3 68.3 77.1 68.3 75.9 69.2 75.05 70.05 74.15 71.3 74.15 72.55 74.15 73.45 75.05 M24.15 118.85 Q23.8 123.5 21.75 126.15 19.65 128.8 17.05 128.35 14.4 127.85 12.75 124.55 11.1 121.2 11.35 117.4 L14.35 112.2 16.8 109.75 22.7 112.1 24.15 118.85 M85.7 106.9 Q86.2 107.4 86.2 108.1 86.2 108.8 85.7 109.3 85.2 109.8 84.5 109.8 83.8 109.8 83.3 109.3 82.8 108.8 82.8 108.1 82.8 107.4 83.3 106.9 83.8 106.4 84.5 106.4 85.2 106.4 85.7 106.9 M99.15 108.2 Q99.15 109.9 97.95 111.1 96.75 112.25 95.05 112.25 93.35 112.25 92.15 111.1 90.95 109.9 90.95 108.2 90.95 106.5 92.15 105.35 93.35 104.15 95.05 104.15 96.75 104.15 97.95 105.35 99.15 106.5 99.15 108.2 M147.1 233.6 Q148.7 231.95 151.0 231.95 153.3 231.95 154.95 233.6 156.55 235.2 156.55 237.5 156.55 239.8 154.95 241.45 153.3 243.05 151.0 243.05 148.7 243.05 147.1 241.45 145.45 239.8 145.45 237.5 145.45 235.2 147.1 233.6 M124.95 294.85 L127.7 293.0 133.2 306.25 148.3 304.65 135.7 325.05 131.8 322.65 134.2 309.75 123.95 318.4 124.95 294.85 M84.35 235.35 Q85.9 237.7 85.9 241.05 85.9 244.4 84.35 246.8 82.8 249.15 80.6 249.15 78.4 249.15 76.85 246.8 75.3 244.4 75.3 241.05 75.3 237.7 76.85 235.35 78.4 232.95 80.6 232.95 82.8 232.95 84.35 235.35 M72.0 205.65 Q72.05 208.05 70.85 209.8 69.6 211.55 67.9 211.55 66.15 211.55 64.9 209.85 63.65 208.15 63.65 205.7 63.65 203.75 64.9 202.35 66.1 200.9 67.85 200.9 69.55 200.9 70.8 202.3 72.05 203.7 72.0 205.65 M49.5 208.45 L51.6 215.9 48.15 218.15 47.05 218.3 42.1 209.7 Q41.9 207.15 42.8 204.4 43.65 201.65 45.2 201.1 46.7 200.55 47.95 202.5 49.2 204.45 49.5 208.45 M70.45 241.55 Q70.45 243.85 68.85 245.5 67.25 247.1 64.95 247.1 62.65 247.1 61.05 245.5 59.45 243.85 59.45 241.55 59.45 239.25 61.05 237.65 62.65 236.0 64.95 236.0 67.25 236.0 68.85 237.65 70.45 239.25 70.45 241.55 M51.4 241.75 Q52.4 243.4 52.4 245.7 52.4 248.0 51.4 249.65 50.35 251.3 48.9 251.3 47.45 251.3 46.45 249.65 45.4 248.0 45.4 245.7 45.4 243.4 46.45 241.75 47.45 240.1 48.9 240.1 50.35 240.1 51.4 241.75 M57.15 310.15 Q58.8 312.7 58.8 316.35 58.8 320.0 57.15 322.6 55.5 325.15 53.15 325.15 50.8 325.15 49.15 322.6 47.5 320.0 47.5 316.35 47.5 312.7 49.15 310.15 50.8 307.55 53.15 307.55 55.5 307.55 57.15 310.15 M17.7 240.0 L25.7 240.0 25.7 265.2 17.7 265.2 17.7 240.0 M88.5 299.8 L99.0 316.8 Q87.1 317.3 86.85 305.1 86.8 302.15 88.5 299.8 M114.25 298.05 Q115.6 300.35 115.6 303.6 115.6 306.85 114.25 309.2 112.9 311.5 111.0 311.5 109.1 311.5 107.75 309.2 106.4 306.85 106.4 303.6 106.4 300.35 107.75 298.05 109.1 295.7 111.0 295.7 112.9 295.7 114.25 298.05 M304.6 216.3 L320.2 216.3 320.2 227.2 304.6 227.2 304.6 216.3 M265.95 216.0 L264.6 223.0 261.05 226.15 257.65 224.25 Q257.35 224.25 257.15 224.4 L256.9 224.7 Q256.4 230.9 254.55 233.8 252.7 236.7 250.5 235.8 248.3 234.9 247.0 230.75 245.7 226.6 246.0 222.75 246.0 218.9 247.65 216.2 249.05 213.85 250.95 213.55 L255.15 214.3 Q255.05 214.95 255.3 216.5 255.55 218.0 256.15 218.6 L257.25 218.55 Q257.8 217.85 258.1 215.45 L262.2 213.6 265.95 216.0 M243.25 220.65 L242.55 231.9 238.55 232.7 235.25 227.05 239.85 217.45 243.25 220.65 M209.7 242.6 Q209.7 240.3 211.8 238.65 213.85 237.0 216.75 237.0 219.65 237.0 221.75 238.65 223.8 240.3 223.8 242.6 223.8 244.9 221.75 246.55 219.65 248.2 216.75 248.2 213.85 248.2 211.8 246.55 209.7 244.9 209.7 242.6 M276.6 281.35 L280.9 282.5 279.9 292.0 292.5 289.15 296.4 294.1 290.6 303.6 285.8 302.6 289.55 293.25 274.8 300.95 269.1 296.2 276.6 281.35 M251.85 283.95 Q253.75 287.4 253.75 292.3 253.75 297.2 251.85 300.7 249.9 304.15 247.2 304.15 244.5 304.15 242.6 300.7 240.65 297.2 240.65 292.3 240.65 287.4 242.6 283.95 244.5 280.45 247.2 280.45 249.9 280.45 251.85 283.95 M258.15 271.5 L260.95 269.95 267.4 288.05 263.5 291.25 258.15 271.5 M207.85 318.45 L210.95 310.15 221.2 318.1 215.3 321.75 207.85 318.45 M197.55 240.2 Q199.4 242.75 199.4 246.35 199.4 249.95 197.55 252.55 195.7 255.1 193.1 255.1 190.5 255.1 188.65 252.55 186.8 249.95 186.8 246.35 186.8 242.75 188.65 240.2 190.5 237.6 193.1 237.6 195.7 237.6 197.55 240.2 M173.65 244.2 Q176.2 244.2 178.0 246.05 179.8 247.85 179.8 250.4 179.8 252.95 178.0 254.8 176.2 256.6 173.65 256.6 171.1 256.6 169.3 254.8 167.5 252.95 167.5 250.4 167.5 247.85 169.3 246.05 171.1 244.2 173.65 244.2" fill="#187e3c" fill-rule="evenodd" stroke="none"/>
  </g>
</svg>
