<?xml version="1.0" encoding="UTF-8" standalone="no"?>
<svg xmlns:ffdec="https://www.free-decompiler.com/flash" xmlns:xlink="http://www.w3.org/1999/xlink" ffdec:objectType="shape" height="400.0px" width="600.0px" xmlns="http://www.w3.org/2000/svg">
  <g transform="matrix(1.0, 0.0, 0.0, 1.0, 0.0, 0.0)">
    <path d="M600.0 22.85 L595.05 20.7 Q586.35 30.45 582.95 42.65 L589.6 12.35 586.65 17.9 Q578.8 10.1 565.0 3.55 L564.85 3.35 561.85 0.0 600.0 0.0 600.0 8.6 600.0 22.85 M600.0 8.6 L591.35 10.4 593.75 14.0 595.25 11.3 600.0 8.6 M575.6 94.15 L584.0 101.5 571.9 104.7 575.6 94.15 M546.5 0.0 L537.25 2.8 506.25 12.15 502.3 10.75 Q500.65 11.8 498.95 12.8 L499.4 0.0 546.5 0.0 M514.55 70.3 L514.65 77.5 493.4 56.05 494.15 49.35 501.2 44.1 514.55 70.3 M493.0 37.6 L494.5 26.75 499.5 22.85 493.0 37.6 M471.3 6.25 L454.0 0.0 478.5 0.0 Q473.5 2.35 471.3 6.25 M419.65 0.0 L407.7 7.9 407.35 0.0 419.65 0.0 M385.95 16.4 Q387.7 19.75 384.2 19.8 383.35 19.8 382.5 20.15 L381.3 29.1 384.1 31.1 391.0 29.0 390.15 24.75 394.7 24.85 396.7 32.4 374.95 32.25 375.4 29.25 348.3 24.85 356.2 28.65 352.95 32.15 350.25 31.95 348.55 27.8 341.45 27.15 293.0 30.5 253.0 41.95 248.85 40.45 255.1 38.35 251.5 36.05 261.2 32.65 247.45 26.15 222.7 34.55 226.3 26.6 219.8 28.3 225.7 20.6 219.5 13.6 231.45 5.6 222.05 0.0 391.85 0.0 389.5 2.45 301.4 6.6 357.95 9.5 355.5 13.1 340.85 13.6 384.3 14.15 385.95 16.4 M358.25 36.45 L358.75 38.9 360.4 40.5 313.95 40.0 329.0 36.0 308.1 32.75 343.4 33.4 348.2 33.55 358.25 36.45 M215.15 36.55 L212.15 35.9 205.8 38.3 203.7 26.95 208.45 22.2 215.15 36.55 M216.8 0.0 L202.9 6.35 193.7 0.0 216.8 0.0 M67.3 0.0 L89.2 8.45 86.8 14.3 78.2 6.3 67.3 0.0 M118.3 44.75 Q122.55 44.75 125.6 48.55 128.6 52.35 128.6 57.7 L118.3 44.75 M127.65 73.0 L128.85 95.45 88.75 120.65 130.1 115.0 131.1 120.3 140.85 123.6 142.45 118.15 134.1 115.1 149.7 116.25 152.9 114.55 155.9 116.05 143.4 130.85 151.7 142.4 136.95 161.8 124.45 183.45 128.1 176.8 127.45 174.5 131.0 168.55 124.15 175.9 119.2 173.0 135.45 146.15 132.2 142.75 142.15 147.35 146.15 142.6 129.45 134.2 127.35 137.75 123.9 134.2 129.45 129.75 112.55 124.55 85.8 140.9 88.0 136.1 84.6 134.25 73.6 146.2 87.15 152.9 74.3 156.15 66.15 149.9 57.45 146.3 36.3 152.7 27.75 153.95 24.65 151.35 26.15 150.55 26.45 150.6 26.5 150.3 29.3 148.5 33.65 150.2 38.6 147.75 34.6 142.35 37.1 137.0 52.45 133.75 48.35 131.05 49.1 119.5 52.0 117.8 56.75 115.7 55.3 133.15 62.8 130.4 61.85 118.4 71.95 109.2 112.2 93.3 118.65 87.4 127.65 73.0 M161.4 126.9 L162.35 125.1 Q162.35 122.2 164.0 120.15 165.65 118.1 168.0 118.1 L211.15 101.0 212.2 97.25 217.85 94.55 260.35 107.85 257.9 111.85 219.5 107.6 161.0 134.65 161.4 126.9 M304.6 126.4 L246.35 95.2 254.25 94.55 257.7 96.45 266.65 81.05 262.7 79.05 260.85 82.6 258.35 83.4 256.6 81.95 255.35 73.7 262.0 71.1 258.85 64.5 253.95 64.95 257.05 60.7 284.85 59.05 283.45 61.2 Q280.3 61.2 278.05 64.7 275.8 68.15 275.8 73.05 L269.0 83.6 310.4 121.1 304.6 126.4 M327.45 60.1 L415.6 65.15 407.05 68.55 410.6 71.2 408.15 78.35 422.2 77.15 417.55 71.65 435.9 77.0 426.8 76.5 423.45 85.3 454.05 97.6 394.95 95.3 389.45 92.65 391.4 87.5 379.7 88.4 386.55 95.0 288.3 91.15 296.45 77.5 327.45 60.1 M490.3 87.5 L495.7 82.1 492.95 88.95 490.3 87.5 M502.85 96.05 L512.55 93.3 508.15 99.95 503.6 96.7 502.75 96.5 502.85 96.05 M507.55 116.8 L508.5 121.85 512.1 124.9 510.6 128.5 Q513.1 133.0 508.6 131.4 L507.9 131.2 Q507.0 131.2 506.35 131.65 505.7 132.1 505.7 132.7 L487.75 146.45 447.75 158.15 430.35 185.5 382.55 167.1 381.5 163.75 366.15 157.4 375.35 152.45 424.7 179.5 Q427.25 179.5 429.1 176.2 430.9 172.85 430.9 168.15 L432.55 165.55 504.25 122.15 507.55 116.8 M363.05 155.9 L359.2 158.75 352.5 157.6 342.65 149.05 340.5 153.15 343.55 155.15 337.65 152.55 Q338.45 144.25 342.65 139.55 346.8 134.85 352.05 135.85 357.25 136.85 360.45 143.0 363.65 149.1 363.05 155.9 M397.95 189.7 L399.2 191.0 396.7 189.6 397.95 189.7 M404.45 194.05 L429.35 212.3 429.8 217.8 404.45 194.05 M436.65 225.9 L439.4 243.3 428.85 251.8 436.65 225.9 M503.75 246.0 L500.85 243.5 542.3 241.25 503.75 246.0 M600.0 237.5 L584.7 234.9 600.0 233.8 600.0 237.5 M600.0 227.85 L539.0 224.5 592.85 221.25 589.75 218.9 584.9 216.65 584.75 214.05 600.0 198.9 600.0 227.85 M504.15 222.6 L468.1 220.65 456.25 210.65 460.1 205.0 462.55 199.35 462.65 179.0 491.65 159.85 502.95 153.8 503.05 155.0 486.75 172.65 Q476.75 170.85 471.9 179.6 466.1 190.0 470.95 202.1 L479.5 212.15 504.15 222.6 M514.5 146.45 L542.45 130.05 543.75 125.85 532.7 127.9 530.35 126.95 529.75 129.2 526.0 129.95 517.3 113.15 520.35 110.6 520.5 109.1 520.4 103.45 523.45 110.95 Q523.45 115.1 528.3 118.05 533.15 120.95 540.05 120.95 540.6 120.95 541.0 121.25 541.35 121.5 541.35 121.9 L582.5 119.95 600.0 119.75 600.0 124.7 596.7 125.8 587.5 121.3 581.25 125.4 547.25 133.2 546.9 133.75 546.0 133.95 514.7 146.8 514.5 146.45 M528.35 75.85 Q540.2 78.2 555.8 75.4 L553.75 79.15 555.1 81.3 564.8 72.25 557.5 82.65 541.85 82.75 529.0 95.05 520.4 84.5 520.65 76.75 527.3 81.0 532.5 77.3 528.35 75.85 M476.75 71.45 L453.05 71.7 456.1 63.4 480.9 61.15 474.7 66.15 476.75 71.45 M537.2 98.75 Q538.5 97.4 540.35 97.4 542.2 97.4 543.55 98.75 544.85 100.05 544.85 101.95 544.85 103.85 543.55 105.2 542.2 106.5 540.35 106.5 538.5 106.5 537.2 105.2 535.85 103.85 535.85 101.95 535.85 100.05 537.2 98.75 M562.7 105.75 L558.2 105.85 553.95 100.7 568.3 76.65 562.7 105.75 M544.85 141.95 L539.9 146.35 535.75 146.9 539.05 141.45 544.85 141.95 M532.2 183.35 L548.95 172.65 Q541.25 189.95 532.2 183.35 M596.45 162.9 Q589.9 164.35 592.05 159.55 L592.45 159.0 Q600.35 158.7 597.3 162.35 L596.45 162.9 M600.0 195.3 L569.65 167.8 579.0 165.85 573.0 160.45 600.0 173.8 600.0 195.3 M466.7 42.4 Q467.3 41.45 468.15 41.45 469.0 41.45 469.6 42.4 470.2 43.3 470.2 44.65 470.2 46.0 469.6 46.95 469.0 47.85 468.15 47.85 467.3 47.85 466.7 46.95 466.1 46.0 466.1 44.65 466.1 43.3 466.7 42.4 M340.8 14.6 L329.4 15.55 345.35 17.7 340.8 14.6 M378.2 51.9 L382.75 51.55 386.6 54.1 378.2 51.9 M385.95 61.05 L395.5 58.5 405.1 61.1 385.95 61.05 M357.5 68.05 L349.5 65.8 348.25 62.9 337.05 63.95 339.95 67.95 357.5 68.05 M313.95 221.95 L308.35 224.0 294.65 215.8 308.8 204.15 312.9 210.6 305.7 207.4 299.65 215.65 306.1 218.45 309.3 217.2 313.1 211.5 313.95 221.95 M141.85 190.05 L139.1 187.7 147.65 182.3 157.25 186.0 141.85 190.05 M80.5 252.15 L82.7 253.8 77.8 269.8 85.3 272.1 87.4 278.65 97.25 290.7 96.55 286.55 101.2 285.0 139.6 346.9 144.05 357.75 121.4 331.35 123.75 337.65 135.3 356.1 139.5 360.7 158.4 377.0 157.55 387.7 107.55 333.9 111.75 344.55 108.55 339.55 81.55 286.3 82.35 297.5 75.6 278.4 73.95 269.45 80.8 255.4 78.05 256.2 80.5 252.15 M144.85 355.85 L150.2 360.4 146.65 358.75 144.85 355.85 M177.45 377.55 L192.85 376.9 183.65 380.9 177.45 377.55 M192.2 380.55 L187.55 384.75 186.85 382.2 192.2 380.55 M224.25 386.5 L230.5 389.55 238.5 387.4 229.85 393.95 224.25 386.5 M252.7 366.9 L246.5 358.75 250.25 354.45 278.9 370.25 310.2 358.4 297.4 367.25 294.85 373.25 288.55 376.3 290.35 372.75 265.0 372.85 263.6 376.65 265.75 378.85 266.05 386.2 261.45 394.2 252.7 366.9 M332.05 337.45 Q326.0 337.2 322.4 334.85 318.75 332.45 319.2 329.4 319.65 326.35 323.95 324.35 328.2 322.3 333.25 322.6 L332.05 337.45 M439.7 189.05 L439.95 176.65 448.35 164.8 479.25 155.8 439.7 189.05 M433.4 197.45 L427.3 199.15 421.35 195.75 432.05 193.65 433.4 197.45 M440.75 192.0 L447.4 188.6 442.85 199.2 440.75 192.0 M448.1 238.4 L453.25 221.7 468.8 235.25 465.6 241.15 450.0 242.45 448.1 238.4 M442.0 250.5 L435.1 251.6 443.1 245.6 442.0 250.5 M336.7 284.05 L340.65 289.45 328.9 289.6 336.7 284.05 M445.35 358.05 L483.95 381.2 485.75 381.0 487.3 383.7 500.65 394.05 502.75 389.8 Q506.5 389.8 509.15 394.15 510.7 396.75 511.35 400.0 L502.2 400.0 472.9 385.9 455.85 381.1 444.9 368.95 444.15 366.6 445.15 363.0 441.4 360.5 445.35 358.05 M519.55 400.0 L512.95 397.9 518.25 397.5 522.65 400.0 519.55 400.0 M366.2 340.4 L379.1 357.4 355.15 355.2 356.55 349.25 354.55 344.8 339.95 362.0 331.15 370.95 326.65 368.8 321.45 369.6 331.05 359.65 336.75 353.45 357.3 339.0 359.55 337.4 361.8 336.55 366.2 340.4 M416.2 366.65 L451.55 397.65 387.9 355.6 390.95 351.4 416.2 366.65 M341.45 342.8 L338.35 339.95 347.6 336.3 346.7 341.05 341.45 342.8 M450.9 308.3 Q450.9 310.4 449.4 311.9 447.9 313.4 445.75 313.4 443.6 313.4 442.1 311.9 440.6 310.4 440.6 308.3 440.6 306.2 442.1 304.7 443.6 303.2 445.75 303.2 447.9 303.2 449.4 304.7 450.9 306.2 450.9 308.3 M439.1 363.2 L432.65 362.4 432.2 359.25 439.45 362.35 439.1 363.2 M474.65 359.65 L465.65 351.35 471.05 353.5 474.65 359.65 M472.95 400.0 L466.4 389.85 479.0 393.8 490.15 400.0 472.95 400.0 M526.05 381.05 Q527.55 382.55 527.55 384.65 527.55 386.75 526.05 388.25 524.55 389.75 522.45 389.75 520.35 389.75 518.85 388.25 517.35 386.75 517.35 384.65 517.35 382.55 518.85 381.05 520.35 379.55 522.45 379.55 524.55 379.55 526.05 381.05 M288.85 27.75 L295.25 24.05 280.8 23.3 277.65 26.8 288.85 27.75 M276.35 23.05 L276.3 23.05 276.25 23.1 276.35 23.05 M256.45 6.7 Q258.45 5.9 258.45 4.75 258.45 3.6 256.45 2.8 254.45 2.0 251.6 2.0 248.75 2.0 246.75 2.8 244.75 3.6 244.75 4.75 244.75 5.9 246.75 6.7 248.75 7.5 251.6 7.5 254.45 7.5 256.45 6.7 M243.4 23.55 Q245.1 21.85 245.1 19.45 245.1 17.05 243.4 15.35 241.7 13.65 239.3 13.65 236.9 13.65 235.2 15.35 233.5 17.05 233.5 19.45 233.5 21.85 235.2 23.55 236.9 25.25 239.3 25.25 241.7 25.25 243.4 23.55 M251.7 17.7 Q250.3 17.7 249.3 18.5 248.3 19.3 248.3 20.4 248.3 21.5 249.3 22.3 250.3 23.1 251.7 23.1 253.1 23.1 254.1 22.3 255.1 21.5 255.1 20.4 255.1 19.3 254.1 18.5 253.1 17.7 251.7 17.7 M264.5 47.7 L261.7 43.0 273.95 45.2 264.5 47.7 M241.45 54.35 Q247.15 54.45 250.2 55.5 253.2 56.5 252.7 57.85 252.2 59.15 248.5 60.0 L240.8 60.7 241.45 54.35 M199.65 65.7 L192.95 60.1 216.5 60.4 208.6 66.95 199.65 65.7 M143.7 90.9 L143.6 91.25 149.95 99.35 196.45 76.9 200.5 79.1 202.45 82.75 178.7 106.1 159.65 108.0 145.4 100.55 143.6 91.25 143.5 90.85 143.7 90.9 M207.45 73.0 L228.35 80.9 214.2 83.9 207.45 73.0 M187.4 122.4 L190.8 114.2 164.95 130.9 187.4 122.4 M258.3 196.55 L257.85 200.2 250.3 200.25 236.95 202.5 232.9 197.3 244.8 190.7 258.3 196.55 M94.55 58.6 L92.45 57.3 94.0 49.9 101.2 57.0 96.9 55.5 94.55 58.6 M131.3 65.55 L138.5 66.65 133.65 88.9 131.3 65.55 M62.7 13.6 Q63.65 13.6 64.35 14.3 65.0 14.95 65.0 15.9 65.0 16.85 64.35 17.55 63.65 18.2 62.7 18.2 61.75 18.2 61.1 17.55 60.4 16.85 60.4 15.9 60.4 14.95 61.1 14.3 61.75 13.6 62.7 13.6 M34.85 22.0 L33.7 23.95 15.9 42.1 29.0 22.4 32.35 21.35 34.85 22.0 M46.9 29.55 Q47.0 27.2 48.15 25.7 49.25 24.15 50.75 24.3 52.25 24.4 53.25 26.1 54.25 27.8 54.2 29.95 L52.25 37.75 48.35 38.4 46.05 32.95 46.9 29.55 M0.0 71.7 Q0.05 70.45 0.55 69.5 1.1 68.5 1.85 68.5 L0.0 71.9 0.0 71.7 M0.0 159.7 L0.3 159.65 Q5.0 159.65 8.3 156.05 11.6 152.45 11.6 147.4 L12.35 145.15 9.4 140.4 11.2 135.7 15.85 133.45 19.75 137.7 Q19.75 140.85 17.65 143.05 15.55 145.25 12.55 145.25 L13.95 147.25 26.25 150.25 26.15 150.55 23.6 151.15 Q16.75 151.15 11.9 157.05 7.05 162.9 7.05 171.2 L6.9 172.1 Q6.9 173.9 4.7 175.2 2.75 176.35 0.0 176.5 L0.0 159.7 M48.45 114.4 L32.1 94.1 31.65 88.7 48.45 114.4 M25.95 82.3 L21.3 88.25 13.6 69.15 25.95 82.3 M78.1 117.4 L64.85 129.6 84.4 122.3 81.45 121.95 78.1 117.4 M31.1 133.8 Q31.1 134.4 30.7 134.8 30.3 135.2 29.75 135.2 29.2 135.2 28.8 134.8 28.4 134.4 28.4 133.8 28.4 133.2 28.8 132.8 29.2 132.4 29.75 132.4 30.3 132.4 30.7 132.8 31.1 133.2 31.1 133.8 M53.3 231.45 L53.5 231.65 43.4 241.65 46.5 235.55 53.3 231.45 M238.6 216.25 L237.7 211.6 241.5 209.3 254.0 217.0 255.35 222.75 238.6 216.25 M101.45 271.2 L114.35 271.2 111.0 276.7 117.3 283.05 111.05 284.55 101.45 271.2 M141.5 288.3 Q141.5 289.65 140.55 290.6 139.55 291.55 138.2 291.55 136.85 291.55 135.9 290.6 134.9 289.65 134.9 288.3 134.9 286.95 135.9 286.0 136.85 285.05 138.2 285.05 139.55 285.05 140.55 286.0 141.5 286.95 141.5 288.3 M8.6 270.35 L3.35 271.7 2.05 280.05 0.0 279.4 0.0 259.15 3.3 259.9 3.1 268.7 8.6 270.35 M29.0 335.85 Q30.0 334.85 31.4 334.85 32.8 334.85 33.8 335.85 34.8 336.85 34.8 338.25 34.8 339.65 33.8 340.65 32.8 341.65 31.4 341.65 30.0 341.65 29.0 340.65 28.0 339.65 28.0 338.25 28.0 336.85 29.0 335.85 M156.9 298.55 L170.4 306.45 170.15 315.35 173.3 313.3 179.45 318.25 174.05 324.25 168.6 319.4 152.05 301.4 156.9 298.55 M95.95 364.35 Q96.9 365.3 96.9 366.65 96.9 368.0 95.95 368.95 94.95 369.9 93.6 369.9 92.25 369.9 91.3 368.95 90.3 368.0 90.3 366.65 90.3 365.3 91.3 364.35 92.25 363.4 93.6 363.4 94.95 363.4 95.95 364.35 M226.7 283.1 L229.35 286.25 221.85 285.95 226.7 283.1 M161.75 400.0 L161.65 395.95 166.75 386.75 171.45 386.95 184.85 400.0 161.75 400.0 M197.7 400.0 L193.05 395.05 Q208.2 380.9 224.9 394.05 L225.45 395.05 220.8 400.0 197.7 400.0 M266.0 400.0 Q265.95 398.4 266.3 398.55 266.7 398.8 266.6 400.0 L266.0 400.0 M240.05 399.6 L233.8 399.55 245.55 388.4 240.05 399.6 M311.05 371.9 L309.65 377.5 305.75 371.8 313.45 366.6 311.05 371.9" fill="#999999" fill-rule="evenodd" stroke="none"/>
    <path d="M581.5 49.15 Q580.05 58.05 581.2 68.2 L578.7 61.75 581.5 49.15 M514.25 34.15 L520.55 25.55 519.45 28.65 514.25 34.15 M395.45 14.65 L395.95 21.35 393.6 16.7 395.45 14.65 M181.45 34.85 L183.3 37.55 180.95 40.2 181.45 34.85 M175.65 50.8 Q175.65 51.85 174.25 52.6 172.8 53.35 170.8 53.35 L175.65 50.8 M100.5 0.0 L100.4 0.35 100.15 0.0 100.5 0.0 M294.65 63.7 L298.95 61.05 305.3 62.0 Q305.65 65.25 304.35 68.45 303.05 71.65 300.85 72.3 298.65 72.9 296.85 70.6 295.05 68.25 294.65 63.7 M454.3 81.35 L456.75 80.05 461.1 83.1 454.3 81.35 M386.95 175.6 L397.95 189.7 396.7 189.6 390.8 186.3 386.95 175.6 M450.6 258.5 L470.3 250.45 468.4 253.4 450.6 258.5 M491.65 159.85 L514.5 146.45 514.7 146.8 502.95 153.8 491.65 159.85 M516.25 71.85 L517.75 73.1 Q518.95 75.55 516.95 72.85 L516.25 71.85 M487.1 68.05 L489.85 71.3 483.2 71.4 487.1 68.05 M596.7 125.8 L600.0 124.7 600.0 134.55 596.7 125.8 M441.25 28.95 L442.7 31.25 Q440.85 31.15 440.95 29.65 L441.25 28.95 M483.8 102.1 L491.75 108.55 482.5 108.95 483.8 102.1 M374.55 5.2 Q376.5 6.45 376.5 8.25 376.5 10.05 374.55 11.3 372.6 12.55 369.8 12.55 367.0 12.55 365.05 11.3 363.1 10.05 363.1 8.25 363.1 6.45 365.05 5.2 367.0 3.95 369.8 3.95 372.6 3.95 374.55 5.2 M342.05 107.5 L348.9 102.95 368.25 104.45 372.05 108.05 342.3 107.9 342.05 107.5 M82.7 253.8 L84.15 254.7 Q94.75 262.0 85.3 272.1 L77.8 269.8 82.7 253.8 M139.6 346.9 L139.05 344.3 144.85 355.85 146.65 358.75 144.05 357.75 139.6 346.9 M335.5 320.05 L333.3 320.6 326.05 314.0 330.75 306.2 338.5 317.3 335.5 320.05 M351.55 262.5 Q352.75 262.5 353.6 263.4 354.45 264.25 354.45 265.45 354.45 266.65 353.6 267.55 352.75 268.4 351.55 268.4 350.35 268.4 349.5 267.55 348.65 266.65 348.65 265.45 348.65 264.25 349.5 263.4 350.35 262.5 351.55 262.5 M403.1 312.3 Q403.1 310.0 404.4 308.35 405.7 306.7 407.5 306.7 L410.7 309.85 407.6 314.55 403.1 312.3 M348.2 331.9 L353.05 329.0 352.55 333.0 348.2 331.9 M439.1 363.2 L439.45 362.35 Q440.1 362.45 439.5 362.95 L439.1 363.2 M594.6 263.7 Q594.6 265.55 593.8 266.9 593.0 268.2 591.85 268.2 590.7 268.2 589.9 266.9 589.1 265.55 589.1 263.7 589.1 261.85 589.9 260.55 590.7 259.2 591.85 259.2 593.0 259.2 593.8 260.55 594.6 261.85 594.6 263.7 M250.8 76.95 Q251.95 78.0 250.4 76.65 L250.8 76.95 M193.15 72.35 L183.35 65.4 191.75 69.35 193.15 72.35 M239.35 85.7 L237.45 84.5 243.0 85.75 239.35 85.7 M217.1 64.55 Q217.65 65.1 216.85 64.45 L217.1 64.55 M242.05 136.0 Q242.05 137.15 241.25 137.95 240.45 138.75 239.35 138.75 238.25 138.75 237.45 137.95 236.65 137.15 236.65 136.0 236.65 134.85 237.45 134.05 238.25 133.25 239.35 133.25 240.45 133.25 241.25 134.05 242.05 134.85 242.05 136.0 M317.3 171.3 L319.1 172.05 318.65 176.3 313.9 174.2 317.3 171.3 M313.05 193.65 Q313.05 192.7 313.75 192.05 314.4 191.35 315.35 191.35 316.3 191.35 317.0 192.05 317.65 192.7 317.65 193.65 317.65 194.6 317.0 195.3 316.3 195.95 315.35 195.95 314.4 195.95 313.75 195.3 313.05 194.6 313.05 193.65 M7.7 65.2 L8.7 65.65 7.65 65.2 7.7 65.2 M3.6 0.0 L0.0 4.4 0.0 0.0 3.6 0.0 M26.25 150.25 L26.5 150.3 26.45 150.6 26.15 150.55 26.25 150.25 M51.05 118.0 Q49.7 118.95 49.9 117.45 L50.05 117.05 51.05 118.0 M114.0 167.25 Q113.65 167.25 113.45 166.85 113.2 166.4 113.2 165.8 L127.7 152.5 125.95 158.6 114.0 167.25 M23.4 296.8 L30.3 291.8 33.1 285.15 37.6 292.6 17.9 308.5 15.5 307.15 16.15 301.1 Q19.15 301.1 21.3 299.85 23.4 298.6 23.4 296.8 M244.5 254.75 Q244.5 256.4 243.0 257.55 241.5 258.7 239.35 258.7 237.2 258.7 235.7 257.55 234.2 256.4 234.2 254.75 234.2 253.1 235.7 251.95 237.2 250.8 239.35 250.8 241.5 250.8 243.0 251.95 244.5 253.1 244.5 254.75 M312.0 339.45 Q312.0 340.65 311.15 341.55 310.3 342.4 309.1 342.4 307.9 342.4 307.05 341.55 306.2 340.65 306.2 339.45 306.2 338.25 307.05 337.4 307.9 336.5 309.1 336.5 310.3 336.5 311.15 337.4 312.0 338.25 312.0 339.45 M252.2 388.3 L255.05 390.45 254.05 398.25 252.2 388.3 M281.95 386.8 L277.0 391.55 278.45 387.35 281.95 386.8 M282.15 382.15 L277.35 380.05 284.95 377.8 282.15 382.15" fill="#666666" fill-rule="evenodd" stroke="none"/>
    <path d="M599.7 143.05 L600.0 143.05 600.0 146.75 598.2 147.0 599.7 143.05 M600.0 162.5 L596.45 162.9 597.3 162.35 Q600.35 158.7 592.45 159.0 L600.0 155.8 600.0 162.5 M348.2 331.9 L336.75 335.2 337.1 326.8 340.8 322.55 353.05 329.0 348.2 331.9 M356.1 337.4 L359.55 337.4 357.3 339.0 356.1 337.4 M328.5 360.05 L324.6 364.6 321.95 362.1 328.5 360.05 M2.05 280.05 L0.0 284.15 0.0 279.4 2.05 280.05 M0.0 295.0 L1.4 295.55 0.0 297.1 0.0 295.0 M254.05 398.25 L240.05 399.6 245.55 388.4 252.2 388.3 254.05 398.25 M277.0 391.55 L281.95 386.8 284.9 392.6 277.0 391.55 M284.95 377.8 L288.55 376.3 294.85 373.25 298.75 373.6 302.05 383.9 291.95 388.55 290.5 384.5 282.15 382.15 284.95 377.8 M600.0 384.2 L600.0 400.0 590.4 400.0 600.0 384.2" fill="#cccccc" fill-rule="evenodd" stroke="none"/>
    <path d="M514.7 146.8 L503.05 155.0 502.95 153.8 514.7 146.8 M26.15 150.55 L24.65 151.35 23.6 151.15 26.15 150.55 M16.15 301.1 L7.65 302.25 12.25 296.85 20.65 295.0 23.4 296.8 Q23.4 298.6 21.3 299.85 19.15 301.1 16.15 301.1 M10.55 400.0 L9.5 400.0 Q12.35 381.85 10.55 400.0" fill="#333333" fill-rule="evenodd" stroke="none"/>
    <path d="M564.85 3.35 L565.0 3.55 521.5 43.05 518.75 48.1 515.7 54.95 510.55 48.9 519.45 28.65 520.55 25.55 522.25 20.9 524.7 19.85 564.85 3.35 M600.0 68.05 L599.45 68.25 Q571.85 48.95 600.0 32.55 L600.0 68.05 M222.7 34.55 L215.15 36.55 208.45 22.2 Q208.45 18.65 211.7 16.15 214.9 13.6 219.5 13.6 L225.7 20.6 219.8 28.3 226.3 26.6 222.7 34.55 M86.8 14.3 L104.05 34.05 112.65 45.0 110.0 52.45 118.65 87.4 112.2 93.3 108.45 90.3 110.65 68.05 106.95 78.7 101.15 76.45 94.35 63.65 73.15 84.75 71.05 107.55 Q63.65 107.55 58.4 98.3 53.15 89.05 53.15 75.95 L57.95 75.65 63.1 81.9 77.5 44.0 62.5 30.65 54.2 29.95 Q54.25 27.8 53.25 26.1 52.25 24.4 50.75 24.3 49.25 24.15 48.15 25.7 47.0 27.2 46.9 29.55 L12.6 67.65 8.7 65.65 7.7 65.2 33.7 23.95 34.85 22.0 47.45 0.7 51.3 0.0 67.3 0.0 78.2 6.3 86.8 14.3 M508.15 99.95 L513.8 107.45 507.55 116.8 504.25 122.15 432.55 165.55 507.0 109.35 485.5 97.65 486.6 92.5 502.75 96.5 503.6 96.7 508.15 99.95 M399.2 191.0 L404.45 194.05 429.8 217.8 429.35 212.3 433.1 216.55 377.7 290.15 389.85 290.0 Q389.85 300.6 376.6 308.3 L374.8 309.3 Q359.75 317.3 338.5 317.3 L330.75 306.2 326.05 314.0 333.3 320.6 335.5 320.05 333.25 322.6 Q328.2 322.3 323.95 324.35 319.65 326.35 319.2 329.4 318.75 332.45 322.4 334.85 326.0 337.2 332.05 337.45 L331.2 343.85 310.2 358.4 278.9 370.25 250.25 354.45 246.5 358.75 252.7 366.9 233.3 370.15 252.0 369.6 254.3 380.3 238.5 387.4 230.5 389.55 224.25 386.5 190.0 387.15 187.55 384.75 192.2 380.55 217.25 372.8 192.85 376.9 177.45 377.55 150.2 360.4 144.85 355.85 139.05 344.3 139.6 346.9 101.2 285.0 96.55 286.55 97.25 290.7 87.4 278.65 85.3 272.1 Q94.75 262.0 84.15 254.7 L82.7 253.8 80.5 252.15 78.2 249.4 89.85 226.55 124.45 183.45 136.95 161.8 151.7 142.4 174.0 149.0 156.95 159.9 147.65 182.3 139.1 187.7 141.85 190.05 130.3 212.05 129.65 211.95 Q124.35 212.55 128.15 216.1 L104.7 260.6 124.05 270.1 162.25 250.15 139.55 270.1 140.35 274.15 152.8 277.4 308.35 224.0 313.95 221.95 332.1 216.0 330.95 210.15 342.1 207.5 345.8 257.75 361.2 248.6 364.95 254.85 400.35 220.05 411.95 226.75 414.25 223.6 366.6 174.7 390.8 186.3 396.7 189.6 399.2 191.0 M580.5 240.25 L600.0 243.95 600.0 250.25 Q553.75 262.9 510.65 284.1 L545.1 284.05 Q538.2 294.35 550.55 294.95 550.8 294.75 551.1 294.65 L553.6 292.1 550.6 283.65 600.0 282.45 600.0 326.45 590.95 333.0 600.0 334.3 600.0 362.05 529.9 396.1 518.25 397.5 512.95 397.9 519.55 400.0 511.35 400.0 Q510.7 396.75 509.15 394.15 506.5 389.8 502.75 389.8 L490.8 379.15 485.75 381.0 483.95 381.2 445.35 358.05 418.85 341.35 413.25 341.35 396.0 324.75 403.1 312.3 407.6 314.55 410.7 309.85 407.5 306.7 433.6 273.4 436.55 277.45 432.1 288.75 452.45 287.7 453.8 291.85 495.6 283.95 518.3 259.2 486.9 261.75 580.5 240.25 M539.0 224.5 L518.5 225.75 584.9 216.65 589.75 218.9 592.85 221.25 539.0 224.5 M517.55 225.8 L504.15 222.6 479.5 212.15 470.95 202.1 Q466.1 190.0 471.9 179.6 476.75 170.85 486.75 172.65 L503.05 155.0 514.7 146.8 546.0 133.95 546.9 133.75 547.25 133.2 581.25 125.4 587.5 121.3 596.7 125.8 600.0 134.55 600.0 143.05 599.7 143.05 520.85 174.35 516.05 168.85 500.75 172.2 487.4 186.6 495.0 180.9 502.0 185.8 497.55 214.1 517.55 225.8 M544.85 141.95 L539.05 141.45 535.75 146.9 539.9 146.35 544.85 141.95 M516.8 195.9 Q514.75 197.9 511.85 197.9 508.95 197.9 506.95 195.9 504.9 193.85 504.9 190.95 504.9 188.05 506.95 186.05 508.95 184.0 511.85 184.0 514.75 184.0 516.8 186.05 518.8 188.05 518.8 190.95 518.8 193.85 516.8 195.9 M482.5 108.95 L472.4 116.4 455.35 94.15 456.3 91.3 483.8 102.1 482.5 108.95 M386.55 95.0 L379.7 88.4 391.4 87.5 389.45 92.65 394.95 95.3 397.95 96.75 389.5 100.7 386.75 98.75 386.55 95.0 M377.95 141.25 L379.95 145.0 384.05 147.45 387.7 154.35 363.85 142.3 366.05 137.2 375.35 134.4 378.15 136.35 379.15 139.0 377.95 141.25 M430.9 168.15 Q430.9 172.85 429.1 176.2 427.25 179.5 424.7 179.5 L389.6 153.55 416.15 155.85 428.65 168.35 430.9 168.15 M354.95 212.6 L351.3 211.95 359.65 189.85 Q370.9 202.5 356.9 211.5 L354.95 212.6 M351.55 262.5 Q350.35 262.5 349.5 263.4 348.65 264.25 348.65 265.45 348.65 266.65 349.5 267.55 350.35 268.4 351.55 268.4 352.75 268.4 353.6 267.55 354.45 266.65 354.45 265.45 354.45 264.25 353.6 263.4 352.75 262.5 351.55 262.5 M336.7 284.05 L328.9 289.6 340.65 289.45 336.7 284.05 M366.2 340.4 L383.75 344.35 390.95 351.4 387.9 355.6 451.55 397.65 416.2 366.65 460.7 400.0 338.2 400.0 334.3 373.55 335.35 371.0 335.0 368.65 339.95 362.0 354.55 344.8 356.55 349.25 355.15 355.2 379.1 357.4 366.2 340.4 M450.9 308.3 Q450.9 306.2 449.4 304.7 447.9 303.2 445.75 303.2 443.6 303.2 442.1 304.7 440.6 306.2 440.6 308.3 440.6 310.4 442.1 311.9 443.6 313.4 445.75 313.4 447.9 313.4 449.4 311.9 450.9 310.4 450.9 308.3 M474.65 359.65 L471.05 353.5 465.65 351.35 474.65 359.65 M526.05 381.05 Q524.55 379.55 522.45 379.55 520.35 379.55 518.85 381.05 517.35 382.55 517.35 384.65 517.35 386.75 518.85 388.25 520.35 389.75 522.45 389.75 524.55 389.75 526.05 388.25 527.55 386.75 527.55 384.65 527.55 382.55 526.05 381.05 M243.4 23.55 Q241.7 25.25 239.3 25.25 236.9 25.25 235.2 23.55 233.5 21.85 233.5 19.45 233.5 17.05 235.2 15.35 236.9 13.65 239.3 13.65 241.7 13.65 243.4 15.35 245.1 17.05 245.1 19.45 245.1 21.85 243.4 23.55 M275.8 73.05 Q275.8 68.15 278.05 64.7 280.3 61.2 283.45 61.2 300.2 89.5 276.5 74.55 275.9 74.15 275.8 73.05 M241.45 54.35 L240.8 60.7 236.6 61.35 234.4 60.35 231.6 62.45 235.85 67.5 225.7 65.15 223.5 56.65 226.3 52.65 239.6 51.65 241.45 54.35 M150.1 72.05 L168.65 65.15 182.25 77.8 180.0 80.5 171.85 74.85 159.2 78.2 153.7 86.25 153.45 94.4 143.7 90.9 143.5 90.85 142.15 76.8 150.1 72.05 M242.9 117.1 Q243.9 116.05 245.35 116.05 246.8 116.05 247.85 117.1 248.85 118.1 248.85 119.55 248.85 121.0 247.85 122.05 246.8 123.05 245.35 123.05 243.9 123.05 242.9 122.05 241.85 121.0 241.85 119.55 241.85 118.1 242.9 117.1 M186.6 140.5 Q188.25 140.5 189.4 141.65 190.55 142.8 190.55 144.45 190.55 146.1 189.4 147.25 188.25 148.4 186.6 148.4 184.95 148.4 183.8 147.25 182.65 146.1 182.65 144.45 182.65 142.8 183.8 141.65 184.95 140.5 186.6 140.5 M266.55 130.15 L289.9 142.85 289.4 149.35 263.0 134.05 266.55 130.15 M319.1 172.05 L317.3 171.3 314.85 167.65 322.05 161.3 329.15 170.35 319.1 172.05 M159.65 0.0 L159.65 20.4 138.65 20.4 138.65 0.0 159.65 0.0 M94.55 58.6 L96.9 55.5 101.2 57.0 94.0 49.9 92.45 57.3 94.55 58.6 M62.7 13.6 Q61.75 13.6 61.1 14.3 60.4 14.95 60.4 15.9 60.4 16.85 61.1 17.55 61.75 18.2 62.7 18.2 63.65 18.2 64.35 17.55 65.0 16.85 65.0 15.9 65.0 14.95 64.35 14.3 63.65 13.6 62.7 13.6 M11.2 135.7 L10.35 133.55 15.75 126.75 23.95 129.75 22.7 138.55 19.75 137.7 15.85 133.45 11.2 135.7 M24.65 151.35 L27.75 153.95 36.3 152.7 57.45 146.3 66.15 149.9 74.3 156.15 86.65 167.2 Q104.05 192.2 78.3 210.1 L78.1 209.95 45.55 173.6 43.85 177.45 36.1 177.0 35.15 167.3 7.05 171.2 Q7.05 162.9 11.9 157.05 16.75 151.15 23.6 151.15 L24.65 151.35 M6.9 172.1 L18.75 176.85 19.9 182.5 0.0 185.6 0.0 176.5 Q2.75 176.35 4.7 175.2 6.9 173.9 6.9 172.1 M0.0 248.45 L22.6 240.55 20.65 245.5 25.85 247.8 25.5 241.05 35.5 236.45 39.25 239.25 45.15 235.0 43.55 228.8 53.3 231.45 46.5 235.55 43.4 241.65 53.5 231.65 63.3 221.9 69.85 220.4 66.6 218.95 74.0 214.2 76.05 215.4 77.1 216.05 75.05 217.85 14.35 269.75 8.6 270.35 3.1 268.7 3.3 259.9 0.0 259.15 0.0 248.45 M62.25 220.55 L55.5 224.15 52.25 221.95 65.3 207.15 68.55 208.75 65.05 218.0 Q63.9 218.0 63.1 218.75 62.25 219.5 62.25 220.55 M254.0 217.0 L269.1 223.9 192.5 223.55 197.55 227.95 196.65 234.75 157.1 233.1 126.9 257.85 135.55 237.1 132.0 218.0 215.25 200.6 221.65 213.5 238.6 216.25 255.35 222.75 254.0 217.0 M101.45 271.2 L111.05 284.55 117.3 283.05 111.0 276.7 114.35 271.2 101.45 271.2 M141.5 288.3 Q141.5 286.95 140.55 286.0 139.55 285.05 138.2 285.05 136.85 285.05 135.9 286.0 134.9 286.95 134.9 288.3 134.9 289.65 135.9 290.6 136.85 291.55 138.2 291.55 139.55 291.55 140.55 290.6 141.5 289.65 141.5 288.3 M54.95 207.75 Q54.95 211.45 53.0 214.05 51.05 216.65 48.25 216.65 45.45 216.65 43.5 214.05 41.55 211.45 41.55 207.75 41.55 204.05 43.5 201.45 45.45 198.85 48.25 198.85 51.05 198.85 53.0 201.45 54.95 204.05 54.95 207.75 M37.6 292.6 L46.05 281.9 Q54.25 292.6 63.65 282.95 L63.9 282.85 79.95 300.65 83.3 299.75 108.55 339.55 111.75 344.55 138.1 393.4 133.2 400.0 123.35 400.0 119.7 373.45 113.75 373.1 116.45 390.4 113.4 394.1 109.1 391.55 109.45 400.0 82.05 400.0 Q76.25 388.6 68.8 399.2 68.5 399.55 68.35 400.0 L40.0 400.0 40.9 395.35 60.2 394.4 61.7 384.35 36.85 378.65 37.95 373.9 35.9 369.35 30.7 370.0 29.5 372.45 35.25 380.4 35.15 391.3 0.0 355.65 0.0 313.7 15.5 307.15 17.9 308.5 37.6 292.6 M77.25 316.4 L85.0 325.4 82.35 318.15 69.25 296.15 73.9 307.4 72.6 305.4 77.25 316.4 M29.0 335.85 Q28.0 336.85 28.0 338.25 28.0 339.65 29.0 340.65 30.0 341.65 31.4 341.65 32.8 341.65 33.8 340.65 34.8 339.65 34.8 338.25 34.8 336.85 33.8 335.85 32.8 334.85 31.4 334.85 30.0 334.85 29.0 335.85 M156.9 298.55 L152.05 301.4 168.6 319.4 174.05 324.25 179.45 318.25 173.3 313.3 170.15 315.35 170.4 306.45 156.9 298.55 M95.95 364.35 Q94.95 363.4 93.6 363.4 92.25 363.4 91.3 364.35 90.3 365.3 90.3 366.65 90.3 368.0 91.3 368.95 92.25 369.9 93.6 369.9 94.95 369.9 95.95 368.95 96.9 368.0 96.9 366.65 96.9 365.3 95.95 364.35 M98.85 376.75 Q96.75 376.75 95.25 378.25 93.75 379.75 93.75 381.9 93.75 384.05 95.25 385.55 96.75 387.05 98.85 387.05 100.95 387.05 102.45 385.55 103.95 384.05 103.95 381.9 103.95 379.75 102.45 378.25 100.95 376.75 98.85 376.75 M244.5 254.75 Q244.5 253.1 243.0 251.95 241.5 250.8 239.35 250.8 237.2 250.8 235.7 251.95 234.2 253.1 234.2 254.75 234.2 256.4 235.7 257.55 237.2 258.7 239.35 258.7 241.5 258.7 243.0 257.55 244.5 256.4 244.5 254.75 M217.05 243.95 L199.35 243.95 199.35 234.65 217.05 234.65 217.05 243.95 M226.7 283.1 L221.85 285.95 229.35 286.25 226.7 283.1 M312.0 339.45 Q312.0 338.25 311.15 337.4 310.3 336.5 309.1 336.5 307.9 336.5 307.05 337.4 306.2 338.25 306.2 339.45 306.2 340.65 307.05 341.55 307.9 342.4 309.1 342.4 310.3 342.4 311.15 341.55 312.0 340.65 312.0 339.45" fill="#f0f0f0" fill-rule="evenodd" stroke="none"/>
    <path d="M582.95 42.65 Q586.35 30.45 595.05 20.7 L600.0 22.85 600.0 32.55 Q571.85 48.95 599.45 68.25 L600.0 68.05 600.0 80.2 584.0 101.5 575.6 94.15 581.2 68.2 Q580.05 58.05 581.5 49.15 L582.95 42.65 M561.85 0.0 L564.85 3.35 524.7 19.85 537.25 2.8 546.5 0.0 561.85 0.0 M565.0 3.55 Q578.8 10.1 586.65 17.9 L555.8 75.4 Q540.2 78.2 528.35 75.85 L520.75 70.6 517.75 73.1 516.25 71.85 518.0 60.8 514.55 70.3 501.2 44.1 514.25 34.15 519.45 28.65 510.55 48.9 515.7 54.95 518.75 48.1 523.3 55.3 521.5 43.05 565.0 3.55 M499.4 0.0 L498.95 12.8 486.9 25.3 Q480.25 24.2 474.95 20.1 467.5 14.45 471.3 6.25 473.5 2.35 478.5 0.0 L499.4 0.0 M404.95 0.0 L395.45 14.65 393.6 16.7 390.35 18.25 385.95 16.4 384.3 14.15 340.85 13.6 355.5 13.1 357.95 9.5 301.4 6.6 389.5 2.45 391.85 0.0 404.95 0.0 M374.95 32.25 L358.25 36.45 348.2 33.55 350.25 31.95 352.95 32.15 356.2 28.65 348.3 24.85 375.4 29.25 374.95 32.25 M308.1 32.75 L293.0 30.5 341.45 27.15 335.55 30.7 343.4 33.4 308.1 32.75 M165.15 0.0 L181.45 34.85 180.95 40.2 175.65 50.8 170.8 53.35 Q153.5 53.35 141.25 37.75 129.0 22.1 129.0 0.0 L138.65 0.0 138.65 20.4 159.65 20.4 159.65 0.0 165.15 0.0 M104.05 34.05 L118.3 44.75 128.6 57.7 126.7 60.65 127.65 73.0 118.65 87.4 110.0 52.45 112.65 45.0 104.05 34.05 M155.9 116.05 L157.8 127.55 161.4 126.9 161.0 134.65 219.5 107.6 257.9 111.85 313.9 131.85 304.6 126.4 310.4 121.1 269.0 83.6 275.8 73.05 Q275.9 74.15 276.5 74.55 300.2 89.5 283.45 61.2 L284.85 59.05 294.65 63.7 Q295.05 68.25 296.85 70.6 298.65 72.9 300.85 72.3 303.05 71.65 304.35 68.45 305.65 65.25 305.3 62.0 L327.45 60.1 296.45 77.5 288.3 91.15 386.55 95.0 386.75 98.75 389.5 100.7 397.95 96.75 394.95 95.3 454.05 97.6 423.45 85.3 426.8 76.5 435.9 77.0 454.3 81.35 461.1 83.1 490.3 87.5 492.95 88.95 502.85 96.05 502.75 96.5 486.6 92.5 485.5 97.65 507.0 109.35 432.55 165.55 430.9 168.15 428.65 168.35 416.15 155.85 389.6 153.55 424.7 179.5 375.35 152.45 366.15 157.4 363.05 155.9 Q363.65 149.1 360.45 143.0 357.25 136.85 352.05 135.85 346.8 134.85 342.65 139.55 338.45 144.25 337.65 152.55 L327.45 131.65 322.7 135.05 313.9 135.25 314.0 139.25 325.3 145.8 326.1 156.15 373.45 172.2 375.85 170.5 386.95 175.6 390.8 186.3 366.6 174.7 414.25 223.6 411.95 226.75 400.35 220.05 364.95 254.85 361.2 248.6 345.8 257.75 342.1 207.5 330.95 210.15 332.1 216.0 313.95 221.95 313.1 211.5 312.9 210.6 308.8 204.15 294.65 215.8 308.35 224.0 152.8 277.4 140.35 274.15 139.55 270.1 162.25 250.15 124.05 270.1 104.7 260.6 128.15 216.1 128.75 216.15 Q132.4 215.25 130.3 212.05 L141.85 190.05 157.25 186.0 147.65 182.3 156.95 159.9 174.0 149.0 151.7 142.4 143.4 130.85 155.9 116.05 M410.6 71.2 L417.55 71.65 422.2 77.15 408.15 78.35 410.6 71.2 M433.1 216.55 L436.65 225.9 428.85 251.8 417.85 262.6 Q433.35 257.15 450.6 258.5 L468.4 253.4 503.75 246.0 542.3 241.25 580.5 240.25 486.9 261.75 518.3 259.2 495.6 283.95 453.8 291.85 452.45 287.7 432.1 288.75 436.55 277.45 433.6 273.4 407.5 306.7 Q405.7 306.7 404.4 308.35 403.1 310.0 403.1 312.3 L396.0 324.75 413.25 341.35 418.85 341.35 445.35 358.05 441.4 360.5 428.65 354.5 431.8 362.3 Q405.55 358.8 390.25 340.85 L389.15 327.6 387.4 339.15 384.7 335.6 Q375.75 323.5 376.6 308.3 389.85 300.6 389.85 290.0 L377.7 290.15 433.1 216.55 M518.5 225.75 L517.55 225.8 497.55 214.1 502.0 185.8 495.0 180.9 487.4 186.6 500.75 172.2 516.05 168.85 520.85 174.35 599.7 143.05 598.2 147.0 600.0 146.75 600.0 155.8 592.45 159.0 592.05 159.55 Q589.9 164.35 596.45 162.9 L600.0 162.5 600.0 173.8 573.0 160.45 579.0 165.85 569.65 167.8 600.0 195.3 600.0 198.9 584.75 214.05 584.9 216.65 518.5 225.75 M487.1 68.05 L483.2 71.4 478.35 75.55 476.75 71.45 474.7 66.15 480.9 61.15 487.1 68.05 M516.8 195.9 Q518.8 193.85 518.8 190.95 518.8 188.05 516.8 186.05 514.75 184.0 511.85 184.0 508.95 184.0 506.95 186.05 504.9 188.05 504.9 190.95 504.9 193.85 506.95 195.9 508.95 197.9 511.85 197.9 514.75 197.9 516.8 195.9 M532.2 183.35 Q541.25 189.95 548.95 172.65 L532.2 183.35 M441.25 28.95 L454.05 17.65 463.55 32.95 442.5 37.15 442.7 31.25 441.25 28.95 M441.35 7.05 L443.3 14.95 435.0 25.0 416.6 22.45 414.6 26.45 410.75 24.75 435.35 3.2 441.35 7.05 M483.8 102.1 L456.3 91.3 455.35 94.15 472.4 116.4 482.5 108.95 491.75 108.55 483.8 102.1 M374.55 5.2 Q372.6 3.95 369.8 3.95 367.0 3.95 365.05 5.2 363.1 6.45 363.1 8.25 363.1 10.05 365.05 11.3 367.0 12.55 369.8 12.55 372.6 12.55 374.55 11.3 376.5 10.05 376.5 8.25 376.5 6.45 374.55 5.2 M342.3 107.9 L372.05 108.05 368.25 104.45 348.9 102.95 342.05 107.5 334.25 109.1 339.85 113.45 342.3 107.9 M377.95 141.25 L379.15 139.0 378.15 136.35 375.35 134.4 366.05 137.2 363.85 142.3 387.7 154.35 384.05 147.45 379.95 145.0 377.95 141.25 M89.85 226.55 L78.2 249.4 46.0 277.95 46.05 281.9 37.6 292.6 33.1 285.15 30.3 291.8 23.4 296.8 20.65 295.0 12.25 296.85 7.65 302.25 16.15 301.1 15.5 307.15 0.0 313.7 0.0 306.8 89.85 226.55 M354.95 212.6 L356.9 211.5 Q370.9 202.5 359.65 189.85 L351.3 211.95 354.95 212.6 M529.9 396.1 L600.0 362.05 600.0 384.2 590.4 400.0 533.35 400.0 529.9 396.1 M600.0 282.45 L550.6 283.65 553.6 292.1 551.1 294.65 Q550.8 294.75 550.55 294.95 538.2 294.35 545.1 284.05 L510.65 284.1 Q553.75 262.9 600.0 250.25 L600.0 282.45 M339.95 362.0 L335.0 368.65 335.35 371.0 334.3 373.55 338.2 400.0 288.45 400.0 291.8 398.85 293.3 394.4 320.8 377.7 315.85 373.05 321.95 362.1 324.6 364.6 328.5 360.05 333.8 355.75 331.05 359.65 321.45 369.6 326.65 368.8 331.15 370.95 339.95 362.0 M376.6 330.5 L370.25 335.2 355.85 324.1 355.7 320.35 372.1 319.2 376.6 330.5 M346.7 341.05 L356.1 337.4 357.3 339.0 336.75 353.45 341.45 342.8 346.7 341.05 M594.6 263.7 Q594.6 261.85 593.8 260.55 593.0 259.2 591.85 259.2 590.7 259.2 589.9 260.55 589.1 261.85 589.1 263.7 589.1 265.55 589.9 266.9 590.7 268.2 591.85 268.2 593.0 268.2 593.8 266.9 594.6 265.55 594.6 263.7 M288.85 27.75 L277.65 26.8 280.8 23.3 295.25 24.05 288.85 27.75 M283.1 88.65 Q281.9 88.65 281.05 89.3 280.2 89.9 280.2 90.8 280.2 91.7 281.05 92.35 281.9 92.95 283.1 92.95 284.3 92.95 285.15 92.35 286.0 91.7 286.0 90.8 286.0 89.9 285.15 89.3 284.3 88.65 283.1 88.65 M183.35 65.4 L193.15 72.35 196.45 76.9 149.95 99.35 143.6 91.25 143.7 90.9 153.45 94.4 153.7 86.25 159.2 78.2 171.85 74.85 180.0 80.5 182.25 77.8 168.65 65.15 150.1 72.05 175.15 60.95 183.35 65.4 M242.9 117.1 Q241.85 118.1 241.85 119.55 241.85 121.0 242.9 122.05 243.9 123.05 245.35 123.05 246.8 123.05 247.85 122.05 248.85 121.0 248.85 119.55 248.85 118.1 247.85 117.1 246.8 116.05 245.35 116.05 243.9 116.05 242.9 117.1 M242.05 136.0 Q242.05 134.85 241.25 134.05 240.45 133.25 239.35 133.25 238.25 133.25 237.45 134.05 236.65 134.85 236.65 136.0 236.65 137.15 237.45 137.95 238.25 138.75 239.35 138.75 240.45 138.75 241.25 137.95 242.05 137.15 242.05 136.0 M266.55 130.15 L263.0 134.05 289.4 149.35 289.9 142.85 266.55 130.15 M186.6 140.5 Q184.95 140.5 183.8 141.65 182.65 142.8 182.65 144.45 182.65 146.1 183.8 147.25 184.95 148.4 186.6 148.4 188.25 148.4 189.4 147.25 190.55 146.1 190.55 144.45 190.55 142.8 189.4 141.65 188.25 140.5 186.6 140.5 M258.3 196.55 L244.8 190.7 232.9 197.3 236.95 202.5 250.3 200.25 257.85 200.2 258.3 196.55 M319.1 172.05 L329.15 170.35 322.05 161.3 314.85 167.65 317.3 171.3 313.9 174.2 318.65 176.3 319.1 172.05 M313.05 193.65 Q313.05 194.6 313.75 195.3 314.4 195.95 315.35 195.95 316.3 195.95 317.0 195.3 317.65 194.6 317.65 193.65 317.65 192.7 317.0 192.05 316.3 191.35 315.35 191.35 314.4 191.35 313.75 192.05 313.05 192.7 313.05 193.65 M71.05 107.55 L73.15 84.75 94.35 63.65 101.15 76.45 106.95 78.7 110.65 68.05 108.45 90.3 112.2 93.3 71.95 109.2 71.7 108.05 71.05 107.55 M47.45 0.7 L34.85 22.0 32.35 21.35 29.0 22.4 15.9 42.1 33.7 23.95 7.7 65.2 7.65 65.2 Q7.65 38.5 19.3 19.6 30.95 0.7 47.45 0.7 M12.6 67.65 L46.9 29.55 46.05 32.95 48.35 38.4 52.25 37.75 54.2 29.95 62.5 30.65 77.5 44.0 63.1 81.9 57.95 75.65 53.15 75.95 51.45 78.25 56.75 115.7 52.0 117.8 51.05 118.0 50.05 117.05 48.45 114.4 31.65 88.7 30.15 86.4 38.75 52.5 25.95 82.3 13.6 69.15 12.6 67.65 M1.85 68.5 L6.25 69.45 18.3 107.3 0.0 87.95 0.0 71.9 1.85 68.5 M74.3 156.15 L87.15 152.9 Q87.15 160.2 86.65 167.2 L74.3 156.15 M85.8 140.9 L112.55 124.55 129.45 129.75 123.9 134.2 127.35 137.75 126.0 139.9 132.2 142.75 135.45 146.15 119.2 173.0 116.1 172.7 114.0 167.25 125.95 158.6 127.7 152.5 113.2 165.8 85.8 140.9 M6.9 172.1 L7.05 171.2 35.15 167.3 36.1 177.0 43.85 177.45 45.55 173.6 78.1 209.95 76.05 215.4 74.0 214.2 66.6 218.95 65.05 218.0 68.55 208.75 65.3 207.15 52.25 221.95 55.5 224.15 62.25 220.55 63.3 221.9 53.5 231.65 53.3 231.45 43.55 228.8 35.9 224.4 28.4 229.45 35.5 236.45 25.5 241.05 22.6 240.55 0.0 248.45 0.0 185.6 19.9 182.5 18.75 176.85 6.9 172.1 M43.6 126.75 L31.6 124.35 22.35 92.9 43.6 126.75 M238.6 216.25 L221.65 213.5 215.25 200.6 132.0 218.0 135.55 237.1 126.9 257.85 157.1 233.1 196.65 234.75 197.55 227.95 192.5 223.55 269.1 223.9 254.0 217.0 241.5 209.3 237.7 211.6 238.6 216.25 M75.05 217.85 Q71.05 227.1 65.85 235.55 44.5 269.75 14.35 269.75 L75.05 217.85 M54.95 207.75 Q54.95 204.05 53.0 201.45 51.05 198.85 48.25 198.85 45.45 198.85 43.5 201.45 41.55 204.05 41.55 207.75 41.55 211.45 43.5 214.05 45.45 216.65 48.25 216.65 51.05 216.65 53.0 214.05 54.95 211.45 54.95 207.75 M0.0 355.65 L35.15 391.3 35.25 380.4 29.5 372.45 30.7 370.0 35.9 369.35 37.95 373.9 36.85 378.65 61.7 384.35 60.2 394.4 40.9 395.35 40.0 400.0 34.95 400.0 36.2 394.55 Q30.05 390.15 25.65 396.0 L27.7 400.0 10.55 400.0 Q12.35 381.85 9.5 400.0 L0.0 400.0 0.0 355.65 M48.35 388.2 Q48.35 389.65 49.35 390.7 50.35 391.7 51.8 391.7 53.25 391.7 54.25 390.7 55.25 389.65 55.25 388.2 55.25 386.75 54.25 385.75 53.25 384.7 51.8 384.7 50.35 384.7 49.35 385.75 48.35 386.75 48.35 388.2 M217.05 243.95 L217.05 234.65 199.35 234.65 199.35 243.95 217.05 243.95" fill="#cbcbcb" fill-rule="evenodd" stroke="none"/>
    <path d="M600.0 8.6 L595.25 11.3 593.75 14.0 591.35 10.4 600.0 8.6 M586.65 17.9 L589.6 12.35 582.95 42.65 581.5 49.15 578.7 61.75 581.2 68.2 575.6 94.15 571.9 104.7 584.0 101.5 600.0 80.2 600.0 119.75 582.5 119.95 541.35 121.9 Q541.35 121.5 541.0 121.25 540.6 120.95 540.05 120.95 533.15 120.95 528.3 118.05 523.45 115.1 523.45 110.95 L520.4 103.45 520.5 109.1 520.35 110.6 517.3 113.15 526.0 129.95 529.75 129.2 530.35 126.95 532.7 127.9 543.75 125.85 542.45 130.05 514.5 146.45 491.65 159.85 462.65 179.0 462.55 199.35 460.1 205.0 456.25 210.65 468.1 220.65 504.15 222.6 517.55 225.8 518.5 225.75 539.0 224.5 600.0 227.85 600.0 233.8 584.7 234.9 600.0 237.5 600.0 243.95 580.5 240.25 542.3 241.25 500.85 243.5 503.75 246.0 468.4 253.4 470.3 250.45 450.6 258.5 Q433.35 257.15 417.85 262.6 L428.85 251.8 439.4 243.3 436.65 225.9 433.1 216.55 429.35 212.3 404.45 194.05 399.2 191.0 397.95 189.7 386.95 175.6 375.85 170.5 373.45 172.2 326.1 156.15 325.3 145.8 314.0 139.25 313.9 135.25 322.7 135.05 327.45 131.65 337.65 152.55 343.55 155.15 340.5 153.15 342.65 149.05 352.5 157.6 359.2 158.75 363.05 155.9 366.15 157.4 381.5 163.75 382.55 167.1 430.35 185.5 447.75 158.15 487.75 146.45 505.7 132.7 Q505.7 132.1 506.35 131.65 507.0 131.2 507.9 131.2 L508.6 131.4 Q513.1 133.0 510.6 128.5 L512.1 124.9 508.5 121.85 507.55 116.8 513.8 107.45 508.15 99.95 512.55 93.3 502.85 96.05 492.95 88.95 495.7 82.1 490.3 87.5 461.1 83.1 456.75 80.05 454.3 81.35 435.9 77.0 417.55 71.65 410.6 71.2 407.05 68.55 415.6 65.15 327.45 60.1 305.3 62.0 298.95 61.05 294.65 63.7 284.85 59.05 257.05 60.7 253.95 64.95 258.85 64.5 262.0 71.1 255.35 73.7 256.6 81.95 258.35 83.4 260.85 82.6 262.7 79.05 266.65 81.05 257.7 96.45 254.25 94.55 246.35 95.2 304.6 126.4 313.9 131.85 257.9 111.85 260.35 107.85 217.85 94.55 212.2 97.25 211.15 101.0 168.0 118.1 Q165.65 118.1 164.0 120.15 162.35 122.2 162.35 125.1 L161.4 126.9 157.8 127.55 155.9 116.05 152.9 114.55 149.7 116.25 134.1 115.1 142.45 118.15 140.85 123.6 131.1 120.3 130.1 115.0 88.75 120.65 128.85 95.45 127.65 73.0 126.7 60.65 128.6 57.7 Q128.6 52.35 125.6 48.55 122.55 44.75 118.3 44.75 L104.05 34.05 86.8 14.3 89.2 8.45 67.3 0.0 100.15 0.0 100.4 0.35 100.5 0.0 129.0 0.0 Q129.0 22.1 141.25 37.75 153.5 53.35 170.8 53.35 172.8 53.35 174.25 52.6 175.65 51.85 175.65 50.8 L180.95 40.2 183.3 37.55 181.45 34.85 165.15 0.0 193.7 0.0 202.9 6.35 216.8 0.0 222.05 0.0 231.45 5.6 219.5 13.6 Q214.9 13.6 211.7 16.15 208.45 18.65 208.45 22.2 L203.7 26.95 205.8 38.3 212.15 35.9 215.15 36.55 222.7 34.55 247.45 26.15 261.2 32.65 251.5 36.05 255.1 38.35 248.85 40.45 253.0 41.95 293.0 30.5 308.1 32.75 329.0 36.0 313.95 40.0 360.4 40.5 358.75 38.9 358.25 36.45 374.95 32.25 396.7 32.4 394.7 24.85 390.15 24.75 391.0 29.0 384.1 31.1 381.3 29.1 382.5 20.15 Q383.35 19.8 384.2 19.8 387.7 19.75 385.95 16.4 L390.35 18.25 393.6 16.7 395.95 21.35 395.45 14.65 404.95 0.0 407.35 0.0 407.7 7.9 419.65 0.0 454.0 0.0 471.3 6.25 Q467.5 14.45 474.95 20.1 480.25 24.2 486.9 25.3 L498.95 12.8 Q500.65 11.8 502.3 10.75 L506.25 12.15 537.25 2.8 524.7 19.85 522.25 20.9 520.55 25.55 514.25 34.15 501.2 44.1 494.15 49.35 493.4 56.05 514.65 77.5 514.55 70.3 518.0 60.8 516.25 71.85 516.95 72.85 Q518.95 75.55 517.75 73.1 L520.75 70.6 528.35 75.85 532.5 77.3 527.3 81.0 520.65 76.75 520.4 84.5 529.0 95.05 541.85 82.75 557.5 82.65 564.8 72.25 555.1 81.3 553.75 79.15 555.8 75.4 586.65 17.9 M518.75 48.1 L521.5 43.05 523.3 55.3 518.75 48.1 M493.0 37.6 L499.5 22.85 494.5 26.75 493.0 37.6 M483.2 71.4 L489.85 71.3 487.1 68.05 480.9 61.15 456.1 63.4 453.05 71.7 476.75 71.45 478.35 75.55 483.2 71.4 M537.2 98.75 Q535.85 100.05 535.85 101.95 535.85 103.85 537.2 105.2 538.5 106.5 540.35 106.5 542.2 106.5 543.55 105.2 544.85 103.85 544.85 101.95 544.85 100.05 543.55 98.75 542.2 97.4 540.35 97.4 538.5 97.4 537.2 98.75 M562.7 105.75 L568.3 76.65 553.95 100.7 558.2 105.85 562.7 105.75 M466.7 42.4 Q466.1 43.3 466.1 44.65 466.1 46.0 466.7 46.95 467.3 47.85 468.15 47.85 469.0 47.85 469.6 46.95 470.2 46.0 470.2 44.65 470.2 43.3 469.6 42.4 469.0 41.45 468.15 41.45 467.3 41.45 466.7 42.4 M442.7 31.25 L442.5 37.15 463.55 32.95 454.05 17.65 441.25 28.95 440.95 29.65 Q440.85 31.15 442.7 31.25 M441.35 7.05 L435.35 3.2 410.75 24.75 414.6 26.45 416.6 22.45 435.0 25.0 443.3 14.95 441.35 7.05 M350.25 31.95 L348.2 33.55 343.4 33.4 335.55 30.7 341.45 27.15 348.55 27.8 350.25 31.95 M340.8 14.6 L345.35 17.7 329.4 15.55 340.8 14.6 M357.5 68.05 L339.95 67.95 337.05 63.95 348.25 62.9 349.5 65.8 357.5 68.05 M385.95 61.05 L405.1 61.1 395.5 58.5 385.95 61.05 M378.2 51.9 L386.6 54.1 382.75 51.55 378.2 51.9 M342.05 107.5 L342.3 107.9 339.85 113.45 334.25 109.1 342.05 107.5 M128.15 216.1 Q124.35 212.55 129.65 211.95 L130.3 212.05 Q132.4 215.25 128.75 216.15 L128.15 216.1 M124.45 183.45 L89.85 226.55 0.0 306.8 0.0 297.1 1.4 295.55 0.0 295.0 0.0 284.15 2.05 280.05 3.35 271.7 8.6 270.35 14.35 269.75 Q44.5 269.75 65.85 235.55 71.05 227.1 75.05 217.85 L77.1 216.05 76.05 215.4 78.1 209.95 78.3 210.1 Q104.05 192.2 86.65 167.2 87.15 160.2 87.15 152.9 L73.6 146.2 84.6 134.25 88.0 136.1 85.8 140.9 113.2 165.8 Q113.2 166.4 113.45 166.85 113.65 167.25 114.0 167.25 L116.1 172.7 119.2 173.0 124.15 175.9 131.0 168.55 127.45 174.5 128.1 176.8 124.45 183.45 M78.2 249.4 L80.5 252.15 78.05 256.2 80.8 255.4 73.95 269.45 75.6 278.4 82.35 297.5 81.55 286.3 108.55 339.55 83.3 299.75 79.95 300.65 63.9 282.85 63.65 282.95 Q54.25 292.6 46.05 281.9 L46.0 277.95 78.2 249.4 M150.2 360.4 L177.45 377.55 183.65 380.9 192.85 376.9 217.25 372.8 192.2 380.55 186.85 382.2 187.55 384.75 190.0 387.15 224.25 386.5 229.85 393.95 238.5 387.4 254.3 380.3 252.0 369.6 233.3 370.15 252.7 366.9 261.45 394.2 266.05 386.2 265.75 378.85 263.6 376.65 265.0 372.85 290.35 372.75 288.55 376.3 284.95 377.8 277.35 380.05 282.15 382.15 290.5 384.5 291.95 388.55 302.05 383.9 298.75 373.6 294.85 373.25 297.4 367.25 310.2 358.4 331.2 343.85 332.05 337.45 333.25 322.6 335.5 320.05 338.5 317.3 Q359.75 317.3 374.8 309.3 L376.6 308.3 Q375.75 323.5 384.7 335.6 L387.4 339.15 389.15 327.6 390.25 340.85 Q405.55 358.8 431.8 362.3 L428.65 354.5 441.4 360.5 445.15 363.0 444.15 366.6 444.9 368.95 455.85 381.1 472.9 385.9 502.2 400.0 490.15 400.0 479.0 393.8 466.4 389.85 472.95 400.0 460.7 400.0 416.2 366.65 390.95 351.4 383.75 344.35 366.2 340.4 361.8 336.55 359.55 337.4 356.1 337.4 346.7 341.05 347.6 336.3 338.35 339.95 341.45 342.8 336.75 353.45 331.05 359.65 333.8 355.75 328.5 360.05 321.95 362.1 315.85 373.05 320.8 377.7 293.3 394.4 291.8 398.85 288.45 400.0 266.6 400.0 Q266.7 398.8 266.3 398.55 265.95 398.4 266.0 400.0 L220.8 400.0 225.45 395.05 224.9 394.05 Q208.2 380.9 193.05 395.05 L197.7 400.0 184.85 400.0 171.45 386.95 166.75 386.75 161.65 395.95 161.75 400.0 133.2 400.0 138.1 393.4 111.75 344.55 107.55 333.9 157.55 387.7 158.4 377.0 139.5 360.7 135.3 356.1 123.75 337.65 121.4 331.35 144.05 357.75 146.65 358.75 150.2 360.4 M439.7 189.05 L479.25 155.8 448.35 164.8 439.95 176.65 439.7 189.05 M433.4 197.45 L432.05 193.65 421.35 195.75 427.3 199.15 433.4 197.45 M440.75 192.0 L442.85 199.2 447.4 188.6 440.75 192.0 M448.1 238.4 L450.0 242.45 465.6 241.15 468.8 235.25 453.25 221.7 448.1 238.4 M442.0 250.5 L443.1 245.6 435.1 251.6 442.0 250.5 M485.75 381.0 L490.8 379.15 502.75 389.8 500.65 394.05 487.3 383.7 485.75 381.0 M518.25 397.5 L529.9 396.1 533.35 400.0 522.65 400.0 518.25 397.5 M600.0 334.3 L590.95 333.0 600.0 326.45 600.0 334.3 M376.6 330.5 L372.1 319.2 355.7 320.35 355.85 324.1 370.25 335.2 376.6 330.5 M353.05 329.0 L340.8 322.55 337.1 326.8 336.75 335.2 348.2 331.9 352.55 333.0 353.05 329.0 M439.45 362.35 L432.2 359.25 432.65 362.4 439.1 363.2 439.5 362.95 Q440.1 362.45 439.45 362.35 M276.35 23.05 L276.25 23.1 276.3 23.05 276.35 23.05 M256.45 6.7 Q254.45 7.5 251.6 7.5 248.75 7.5 246.75 6.7 244.75 5.9 244.75 4.75 244.75 3.6 246.75 2.8 248.75 2.0 251.6 2.0 254.45 2.0 256.45 2.8 258.45 3.6 258.45 4.75 258.45 5.9 256.45 6.7 M251.7 17.7 Q253.1 17.7 254.1 18.5 255.1 19.3 255.1 20.4 255.1 21.5 254.1 22.3 253.1 23.1 251.7 23.1 250.3 23.1 249.3 22.3 248.3 21.5 248.3 20.4 248.3 19.3 249.3 18.5 250.3 17.7 251.7 17.7 M264.5 47.7 L273.95 45.2 261.7 43.0 264.5 47.7 M240.8 60.7 L248.5 60.0 Q252.2 59.15 252.7 57.85 253.2 56.5 250.2 55.5 247.15 54.45 241.45 54.35 L239.6 51.65 226.3 52.65 223.5 56.65 225.7 65.15 235.85 67.5 231.6 62.45 234.4 60.35 236.6 61.35 240.8 60.7 M250.8 76.95 L250.4 76.65 Q251.95 78.0 250.8 76.95 M283.1 88.65 Q284.3 88.65 285.15 89.3 286.0 89.9 286.0 90.8 286.0 91.7 285.15 92.35 284.3 92.95 283.1 92.95 281.9 92.95 281.05 92.35 280.2 91.7 280.2 90.8 280.2 89.9 281.05 89.3 281.9 88.65 283.1 88.65 M199.65 65.7 L208.6 66.95 216.5 60.4 192.95 60.1 199.65 65.7 M193.15 72.35 L191.75 69.35 183.35 65.4 175.15 60.95 150.1 72.05 142.15 76.8 143.5 90.85 143.6 91.25 145.4 100.55 159.65 108.0 178.7 106.1 202.45 82.75 200.5 79.1 196.45 76.9 193.15 72.35 M217.1 64.55 L216.85 64.45 Q217.65 65.1 217.1 64.55 M239.35 85.7 L243.0 85.75 237.45 84.5 239.35 85.7 M207.45 73.0 L214.2 83.9 228.35 80.9 207.45 73.0 M187.4 122.4 L164.95 130.9 190.8 114.2 187.4 122.4 M131.3 65.55 L133.65 88.9 138.5 66.65 131.3 65.55 M51.3 0.0 L47.45 0.7 Q30.95 0.7 19.3 19.6 7.65 38.5 7.65 65.2 L8.7 65.65 12.6 67.65 13.6 69.15 21.3 88.25 25.95 82.3 38.75 52.5 30.15 86.4 31.65 88.7 32.1 94.1 48.45 114.4 50.05 117.05 49.9 117.45 Q49.7 118.95 51.05 118.0 L52.0 117.8 49.1 119.5 48.35 131.05 52.45 133.75 37.1 137.0 34.6 142.35 38.6 147.75 33.65 150.2 29.3 148.5 26.5 150.3 26.25 150.25 13.95 147.25 12.55 145.25 Q15.55 145.25 17.65 143.05 19.75 140.85 19.75 137.7 L22.7 138.55 23.95 129.75 15.75 126.75 10.35 133.55 11.2 135.7 9.4 140.4 12.35 145.15 11.6 147.4 Q11.6 152.45 8.3 156.05 5.0 159.65 0.3 159.65 L0.0 159.7 0.0 87.95 18.3 107.3 6.25 69.45 1.85 68.5 Q1.1 68.5 0.55 69.5 0.05 70.45 0.0 71.7 L0.0 4.4 3.6 0.0 51.3 0.0 M53.15 75.95 Q53.15 89.05 58.4 98.3 63.65 107.55 71.05 107.55 L71.7 108.05 71.95 109.2 61.85 118.4 62.8 130.4 55.3 133.15 56.75 115.7 51.45 78.25 53.15 75.95 M78.1 117.4 L81.45 121.95 84.4 122.3 64.85 129.6 78.1 117.4 M31.1 133.8 Q31.1 133.2 30.7 132.8 30.3 132.4 29.75 132.4 29.2 132.4 28.8 132.8 28.4 133.2 28.4 133.8 28.4 134.4 28.8 134.8 29.2 135.2 29.75 135.2 30.3 135.2 30.7 134.8 31.1 134.4 31.1 133.8 M127.35 137.75 L129.45 134.2 146.15 142.6 142.15 147.35 132.2 142.75 126.0 139.9 127.35 137.75 M22.6 240.55 L25.5 241.05 25.85 247.8 20.65 245.5 22.6 240.55 M35.5 236.45 L28.4 229.45 35.9 224.4 43.55 228.8 45.15 235.0 39.25 239.25 35.5 236.45 M63.3 221.9 L62.25 220.55 Q62.25 219.5 63.1 218.75 63.9 218.0 65.05 218.0 L66.6 218.95 69.85 220.4 63.3 221.9 M43.6 126.75 L22.35 92.9 31.6 124.35 43.6 126.75 M77.25 316.4 L72.6 305.4 73.9 307.4 69.25 296.15 82.35 318.15 85.0 325.4 77.25 316.4 M68.35 400.0 Q68.5 399.55 68.8 399.2 76.25 388.6 82.05 400.0 L68.35 400.0 M109.45 400.0 L109.1 391.55 113.4 394.1 116.45 390.4 113.75 373.1 119.7 373.45 123.35 400.0 109.45 400.0 M48.35 388.2 Q48.35 386.75 49.35 385.75 50.35 384.7 51.8 384.7 53.25 384.7 54.25 385.75 55.25 386.75 55.25 388.2 55.25 389.65 54.25 390.7 53.25 391.7 51.8 391.7 50.35 391.7 49.35 390.7 48.35 389.65 48.35 388.2 M98.85 376.75 Q100.95 376.75 102.45 378.25 103.95 379.75 103.95 381.9 103.95 384.05 102.45 385.55 100.95 387.05 98.85 387.05 96.75 387.05 95.25 385.55 93.75 384.05 93.75 381.9 93.75 379.75 95.25 378.25 96.75 376.75 98.85 376.75 M312.9 210.6 L313.1 211.5 309.3 217.2 306.1 218.45 299.65 215.65 305.7 207.4 312.9 210.6 M254.05 398.25 L255.05 390.45 252.2 388.3 245.55 388.4 233.8 399.55 240.05 399.6 254.05 398.25 M281.95 386.8 L278.45 387.35 277.0 391.55 284.9 392.6 281.95 386.8 M311.05 371.9 L313.45 366.6 305.75 371.8 309.65 377.5 311.05 371.9 M27.7 400.0 L25.65 396.0 Q30.05 390.15 36.2 394.55 L34.95 400.0 27.7 400.0" fill="#555555" fill-rule="evenodd" stroke="none"/>
  </g>
</svg>
