<?xml version="1.0" encoding="UTF-8" standalone="no"?>
<svg xmlns:ffdec="https://www.free-decompiler.com/flash" xmlns:xlink="http://www.w3.org/1999/xlink" ffdec:objectType="shape" height="400.0px" width="600.0px" xmlns="http://www.w3.org/2000/svg">
  <g transform="matrix(1.0, 0.0, 0.0, 1.0, 0.0, 0.0)">
    <path d="M600.0 47.05 L578.35 48.85 576.85 51.65 600.0 59.1 600.0 63.0 576.05 63.45 577.3 61.4 570.6 64.5 569.85 64.65 566.85 65.15 564.8 65.5 567.2 62.1 564.4 65.05 564.6 62.0 569.05 57.8 563.7 57.8 561.15 57.8 543.9 57.8 542.4 57.8 522.3 57.75 542.75 59.0 543.0 59.4 518.25 68.15 543.95 60.45 546.55 68.0 541.0 68.55 539.15 68.7 539.35 70.55 545.35 83.15 Q545.35 85.8 547.4 87.7 549.4 89.6 552.25 89.6 L553.8 90.15 562.15 93.15 547.05 96.0 565.15 100.75 564.7 108.6 554.3 106.05 556.5 102.6 554.35 100.15 541.85 101.5 520.0 103.85 526.9 98.85 464.9 94.6 487.4 85.1 418.45 77.0 420.45 71.75 412.85 66.4 402.5 74.3 385.35 74.35 368.9 88.9 403.55 79.1 409.0 81.35 387.45 95.2 351.0 101.3 363.65 101.05 362.0 105.25 268.6 96.9 267.7 99.95 263.05 97.6 264.55 88.85 195.15 80.5 225.0 90.8 228.25 96.05 215.05 95.8 217.75 90.25 103.2 61.3 22.8 47.6 30.25 40.6 27.5 40.6 23.15 36.4 0.0 35.05 0.0 0.0 451.25 0.0 445.2 3.75 444.5 6.85 474.95 5.25 373.8 36.7 331.65 46.15 374.5 61.15 372.95 67.05 396.7 64.5 402.7 61.35 379.15 57.1 428.05 28.1 413.5 49.45 419.5 53.8 430.95 47.4 441.75 48.15 444.15 46.8 492.85 52.2 454.35 38.4 453.2 31.25 472.35 21.65 448.1 23.15 452.0 17.25 515.7 3.45 517.3 0.0 600.0 0.0 600.0 47.05 M598.0 5.35 Q598.0 3.7 594.15 2.55 590.25 1.4 584.8 1.4 579.35 1.4 575.5 2.55 571.6 3.7 571.6 5.35 571.6 7.0 575.5 8.15 579.35 9.3 584.8 9.3 590.25 9.3 594.15 8.15 598.0 7.0 598.0 5.35 M593.75 77.2 L600.0 79.7 600.0 91.65 568.7 98.0 567.25 93.25 571.0 91.95 579.85 88.95 573.25 85.6 573.25 85.55 593.8 83.6 593.6 77.65 593.75 77.2 M567.7 84.25 L567.4 82.9 Q567.05 82.3 566.55 82.3 L566.55 79.95 567.2 78.9 569.9 83.45 569.05 84.55 567.7 84.25 M524.6 77.75 Q522.35 76.7 519.2 76.7 516.05 76.7 513.85 77.75 511.6 78.8 511.6 80.25 511.6 81.7 513.85 82.75 516.05 83.8 519.2 83.8 522.35 83.8 524.6 82.75 526.8 81.7 526.8 80.25 526.8 78.8 524.6 77.75 M531.8 7.55 L529.15 11.0 506.75 15.8 506.55 21.7 559.9 9.4 531.8 7.55 M548.05 60.9 L546.85 59.95 552.9 59.15 560.15 62.6 559.45 66.3 554.9 66.95 551.0 63.4 548.05 60.9 M557.2 72.8 L558.55 72.9 558.3 76.3 557.2 72.8 M555.35 81.25 L554.4 77.8 556.6 81.9 555.5 81.6 555.35 81.25 M544.6 72.55 L542.65 70.3 547.6 71.5 547.9 75.05 544.6 72.55 M559.45 80.95 L559.25 81.05 559.3 80.85 559.45 80.95 M561.8 82.85 L561.45 82.2 561.6 80.2 561.8 80.6 561.8 82.85 M503.15 106.55 L503.85 112.2 480.25 110.7 497.75 105.05 503.15 106.55 M0.0 103.05 L0.0 101.1 Q4.1 101.1 7.05 99.95 9.95 98.8 9.95 97.15 9.95 95.5 7.05 94.35 4.1 93.2 0.0 93.2 L0.0 69.15 41.1 58.4 40.9 53.5 56.6 60.6 52.25 61.9 53.5 71.75 89.7 72.45 90.8 67.75 96.8 68.45 106.25 74.2 92.55 81.55 93.55 86.3 124.7 89.4 123.1 93.8 122.15 93.6 121.8 93.55 117.6 93.0 Q117.65 92.45 117.35 92.05 L116.55 91.55 Q116.1 91.5 115.75 91.9 115.35 92.25 115.3 92.8 L113.65 92.65 113.2 89.45 112.9 92.65 Q106.8 92.65 102.5 95.5 98.2 98.35 98.2 102.35 L101.8 109.5 93.75 109.4 95.15 99.6 90.8 100.45 89.15 106.3 65.85 105.85 73.45 96.2 65.55 93.6 68.1 90.8 64.65 88.05 0.0 103.05 M0.0 54.75 L0.0 54.15 1.8 53.85 0.0 54.75 M445.45 35.85 L438.65 25.65 446.7 24.85 443.9 30.65 445.45 35.85 M417.75 86.0 L421.1 88.25 388.65 95.1 417.75 86.0 M414.05 98.7 L444.7 87.95 443.75 84.85 462.7 94.4 441.4 101.6 414.05 98.7 M334.05 92.9 L335.8 89.1 280.1 87.1 334.05 92.9 M384.15 61.35 L376.7 58.15 388.75 62.1 384.15 61.35 M409.1 114.1 L399.55 112.65 403.5 109.8 406.25 110.05 415.6 114.05 409.1 114.1 M402.7 107.75 L381.55 101.15 395.65 102.2 390.8 101.0 400.45 100.95 400.1 104.95 402.7 107.75 M323.55 113.65 L311.2 112.95 311.5 108.25 381.15 113.45 333.75 113.6 323.55 113.65 M306.6 41.45 L360.7 34.8 317.65 23.9 332.7 18.55 315.3 16.0 309.1 20.9 278.25 15.9 277.7 18.9 279.55 22.0 274.55 22.05 273.15 25.8 277.9 28.8 269.05 35.45 269.35 39.55 293.7 45.55 322.7 44.35 306.6 41.45 M196.35 59.4 Q192.25 59.4 189.35 60.7 186.45 62.0 186.45 63.85 186.45 65.7 189.35 67.0 192.25 68.3 196.35 68.3 200.45 68.3 203.35 67.0 206.25 65.7 206.25 63.85 206.25 62.0 203.35 60.7 200.45 59.4 196.35 59.4 M181.3 25.55 L178.0 29.6 162.35 32.7 162.35 35.75 165.1 37.5 227.05 30.85 181.3 25.55 M259.2 30.35 L245.05 28.25 248.75 22.35 231.7 24.3 233.6 28.0 229.15 30.2 234.3 33.35 259.2 30.35 M258.4 48.15 L261.1 44.7 205.4 41.6 258.4 48.15 M190.3 94.9 L170.95 95.65 156.1 83.85 190.3 94.9 M145.65 90.2 L144.9 102.1 135.85 97.35 Q136.25 96.8 135.65 96.95 L135.3 97.1 128.7 95.05 128.9 90.9 129.05 90.1 145.65 90.2 M226.35 104.75 L226.3 104.75 226.4 104.7 226.35 104.75 M230.85 104.1 L236.7 102.85 240.25 105.15 230.85 104.1 M255.65 108.25 L256.1 104.5 249.65 100.05 274.2 112.6 256.25 112.2 262.0 110.2 255.65 108.25 M150.05 19.65 Q150.05 18.75 148.55 18.15 147.0 17.5 144.85 17.5 142.7 17.5 141.2 18.15 139.65 18.75 139.65 19.65 139.65 20.55 141.2 21.2 142.7 21.8 144.85 21.8 L148.55 21.2 Q150.05 20.55 150.05 19.65 M104.7 15.2 Q104.7 14.45 104.05 13.95 103.35 13.4 102.4 13.4 101.45 13.4 100.8 13.95 100.1 14.45 100.1 15.2 100.1 15.95 100.8 16.5 101.45 17.0 102.4 17.0 L104.05 16.5 Q104.7 15.95 104.7 15.2 M138.9 2.6 L129.35 6.85 Q132.1 8.15 134.85 9.4 L143.0 4.55 138.9 2.6 M99.7 39.7 L91.5 37.5 92.2 32.0 89.35 37.15 99.7 39.7 M98.75 102.95 L102.15 104.0 107.55 109.45 106.05 109.6 103.65 109.55 98.75 102.95 M112.7 47.55 L110.05 50.75 174.05 63.65 112.7 47.55 M31.9 31.05 L96.65 54.7 49.5 33.35 73.6 22.35 67.3 22.25 86.85 14.8 66.5 16.45 43.05 20.8 48.1 22.75 44.4 23.35 42.2 20.95 2.8 31.0 31.9 31.05 M43.65 31.1 Q43.65 32.1 42.95 32.85 42.2 33.55 41.15 33.55 40.1 33.55 39.4 32.85 38.65 32.1 38.65 31.1 38.65 30.1 39.4 29.4 40.1 28.65 41.15 28.65 42.2 28.65 42.95 29.4 43.65 30.1 43.65 31.1 M55.5 86.0 Q55.5 84.8 54.65 83.95 53.8 83.05 52.6 83.05 51.4 83.05 50.55 83.95 49.7 84.8 49.7 86.0 49.7 87.2 50.55 88.1 51.4 88.95 52.6 88.95 53.8 88.95 54.65 88.1 55.5 87.2 55.5 86.0 M78.55 93.25 Q78.55 92.15 77.8 91.4 77.05 90.65 76.0 90.65 74.95 90.65 74.2 91.4 73.45 92.15 73.45 93.25 73.45 94.35 74.2 95.1 74.95 95.85 76.0 95.85 77.05 95.85 77.8 95.1 78.55 94.35 78.55 93.25" fill="#d0c7b9" fill-rule="evenodd" stroke="none"/>
    <path d="M598.0 5.35 Q598.0 7.0 594.15 8.15 590.25 9.3 584.8 9.3 579.35 9.3 575.5 8.15 571.6 7.0 571.6 5.35 571.6 3.7 575.5 2.55 579.35 1.4 584.8 1.4 590.25 1.4 594.15 2.55 598.0 3.7 598.0 5.35 M600.0 59.1 L576.85 51.65 578.35 48.85 600.0 47.05 600.0 59.1 M517.3 0.0 L515.7 3.45 452.0 17.25 448.1 23.15 472.35 21.65 453.2 31.25 454.35 38.4 492.85 52.2 444.15 46.8 441.75 48.15 430.95 47.4 419.5 53.8 413.5 49.45 428.05 28.1 374.2 39.75 373.8 36.7 474.95 5.25 444.5 6.85 445.2 3.75 451.25 0.0 517.3 0.0 M396.7 64.5 L372.95 67.05 374.5 61.15 384.15 61.35 388.75 62.1 396.7 64.5 M22.8 47.6 L103.2 61.3 Q103.2 64.25 101.35 66.35 99.45 68.45 96.8 68.45 L90.8 67.75 89.7 72.45 53.5 71.75 52.25 61.9 56.6 60.6 40.9 53.5 41.1 58.4 0.0 69.15 0.0 54.75 1.8 53.85 22.8 47.6 M215.05 95.8 L228.25 96.05 225.0 90.8 195.15 80.5 264.55 88.85 263.05 97.6 267.7 99.95 309.8 104.1 311.5 108.25 311.2 112.95 323.55 113.65 Q320.5 113.65 318.35 115.95 316.2 118.25 316.2 121.5 L315.9 131.35 345.4 119.2 343.75 113.75 333.75 113.6 381.15 113.45 415.7 114.4 409.1 114.1 415.6 114.05 406.25 110.05 402.7 107.75 400.1 104.95 400.45 100.95 403.2 98.05 414.05 98.7 441.4 101.6 497.75 105.05 480.25 110.7 475.1 113.55 487.7 121.85 535.35 114.9 503.85 112.2 503.15 106.55 520.0 103.85 541.85 101.5 554.3 106.05 564.7 108.6 565.15 100.75 568.7 98.0 600.0 91.65 600.0 109.05 Q595.6 109.0 592.5 111.15 589.35 113.25 589.35 116.25 589.35 119.25 592.5 121.4 595.6 123.5 600.0 123.5 L600.0 127.75 576.9 124.5 575.0 119.6 563.3 116.65 559.4 120.95 544.3 119.7 548.4 123.5 557.35 124.9 559.85 123.75 600.0 135.2 600.0 146.0 534.45 124.0 527.05 137.95 519.15 137.95 600.0 149.85 600.0 165.1 555.15 167.5 581.25 175.8 600.0 167.3 600.0 182.9 573.35 184.4 500.1 179.45 538.9 192.05 529.15 193.7 540.65 196.5 540.2 198.05 515.1 191.1 513.65 186.8 514.35 190.8 505.4 188.8 541.2 200.9 Q541.2 205.75 543.65 209.15 546.05 212.5 549.5 212.55 L548.15 212.55 490.6 207.1 487.1 206.8 464.0 203.5 469.55 197.25 420.05 194.75 408.7 194.75 405.95 191.3 400.8 194.85 456.95 210.7 458.5 215.2 457.85 215.2 Q457.9 214.25 457.5 213.45 457.05 212.65 456.35 212.35 L454.95 212.3 Q454.25 212.6 453.85 213.4 453.4 214.15 453.4 215.15 L398.05 203.65 395.8 207.4 397.3 209.85 394.65 211.1 393.6 207.3 387.75 205.3 387.65 203.8 388.2 198.6 385.65 197.5 360.5 191.1 356.85 193.95 371.85 202.45 372.65 208.25 368.65 207.4 367.95 207.2 296.3 208.9 279.7 209.1 261.3 209.1 274.55 199.5 252.0 192.95 251.55 190.55 249.65 190.35 249.1 189.65 249.3 188.1 247.6 178.75 264.9 169.6 243.55 160.3 193.0 176.25 199.15 177.7 162.3 184.55 236.9 186.55 238.75 190.6 Q238.75 191.2 239.35 191.6 239.95 192.0 240.8 192.0 L240.8 194.55 238.45 195.4 235.0 191.1 235.75 197.1 234.85 197.05 Q234.75 195.5 234.25 194.5 233.75 193.45 233.05 193.2 232.3 192.9 231.65 193.5 231.0 194.1 230.65 195.3 230.25 196.5 230.35 197.6 L223.45 208.35 199.3 207.85 196.75 207.8 202.45 199.95 197.35 202.15 Q197.3 200.4 196.7 199.3 196.1 198.2 195.25 197.9 194.4 197.6 193.65 198.25 192.85 198.9 192.45 200.25 192.0 201.55 192.1 202.8 L188.8 200.4 189.4 197.45 186.25 196.25 184.35 199.45 183.85 200.05 176.25 199.55 176.6 191.65 173.4 194.4 172.65 189.4 167.45 190.85 164.6 185.15 160.3 190.8 156.65 187.55 156.05 195.2 153.3 192.0 154.35 199.95 150.0 202.5 143.6 199.5 146.95 208.15 140.95 208.35 136.7 208.45 103.8 209.4 125.1 192.9 106.05 188.3 118.55 177.45 103.4 173.1 166.55 160.9 46.75 156.9 46.75 152.75 46.8 152.4 73.6 148.5 90.65 147.35 106.0 143.05 97.35 137.75 99.1 131.7 96.3 133.5 85.3 133.95 82.55 132.8 68.3 137.75 Q67.2 137.75 66.45 138.25 65.7 138.7 65.7 139.4 L49.65 144.95 49.75 140.4 28.55 135.65 26.7 143.6 14.45 149.15 12.15 154.05 13.6 159.9 6.5 163.65 9.6 166.85 16.7 163.3 22.45 164.9 21.65 171.55 0.0 177.75 0.0 103.05 64.65 88.05 68.1 90.8 65.55 93.6 10.65 118.3 8.15 126.75 75.7 123.8 66.45 116.35 93.75 109.4 101.8 109.5 102.15 110.1 99.5 110.6 96.25 111.35 86.1 115.95 86.35 119.05 92.35 119.35 109.6 127.45 106.8 121.65 107.4 121.45 110.0 123.65 116.4 124.1 120.15 123.0 128.6 120.0 129.25 120.4 126.15 125.4 132.25 121.15 136.2 121.8 136.7 118.55 145.75 116.1 132.05 118.45 138.85 109.95 131.75 110.6 136.45 101.95 127.0 111.3 135.85 97.35 144.9 102.1 145.65 90.2 156.1 83.85 170.95 95.65 190.3 94.9 201.1 96.05 203.35 94.4 215.05 95.8 M387.45 95.2 L409.0 81.35 403.55 79.1 368.9 88.9 385.35 74.35 402.5 74.3 412.85 66.4 420.45 71.75 418.45 77.0 487.4 85.1 464.9 94.6 462.7 94.4 443.75 84.85 417.75 86.0 388.65 95.1 387.45 95.2 M541.0 68.55 L546.55 68.0 547.6 71.5 542.65 70.3 541.0 68.55 M543.95 60.45 L518.25 68.15 543.0 59.4 543.95 60.45 M542.75 59.0 L522.3 57.75 542.4 57.8 542.75 59.0 M543.9 57.8 L561.15 57.8 560.15 62.6 552.9 59.15 546.85 59.95 543.9 57.8 M563.7 57.8 L569.05 57.8 564.6 62.0 563.7 57.8 M564.8 65.5 L566.85 65.15 565.25 68.3 564.3 66.35 564.8 65.5 M569.85 64.65 L570.6 64.5 569.1 66.3 569.85 64.65 M576.05 63.45 L600.0 63.0 600.0 79.7 593.75 77.2 594.1 72.8 572.3 68.5 576.05 63.45 M531.8 7.55 L559.9 9.4 506.55 21.7 506.75 15.8 529.15 11.0 531.8 7.55 M524.6 77.75 Q526.8 78.8 526.8 80.25 526.8 81.7 524.6 82.75 522.35 83.8 519.2 83.8 516.05 83.8 513.85 82.75 511.6 81.7 511.6 80.25 511.6 78.8 513.85 77.75 516.05 76.7 519.2 76.7 522.35 76.7 524.6 77.75 M554.9 66.95 L559.45 66.3 559.35 66.8 558.55 72.9 557.2 72.8 554.9 66.95 M498.5 192.45 L497.25 186.6 473.8 187.5 498.5 192.45 M542.6 169.3 Q534.95 169.3 529.55 171.0 524.15 172.7 524.15 175.1 524.15 177.5 529.55 179.2 534.95 180.9 542.6 180.9 550.25 180.9 555.65 179.2 561.05 177.5 561.05 175.1 561.05 172.7 555.65 171.0 550.25 169.3 542.6 169.3 M600.0 205.7 L600.0 211.3 587.15 211.8 594.0 205.75 600.0 205.7 M0.0 207.85 L0.0 197.8 58.45 182.0 53.85 180.65 67.95 175.85 76.45 186.05 68.95 187.35 63.3 182.35 0.0 207.85 M0.0 101.1 L0.0 93.2 Q4.1 93.2 7.05 94.35 9.95 95.5 9.95 97.15 9.95 98.8 7.05 99.95 4.1 101.1 0.0 101.1 M445.45 35.85 L443.9 30.65 446.7 24.85 438.65 25.65 445.45 35.85 M377.7 146.55 L369.85 146.55 369.85 150.85 377.7 150.85 377.7 146.55 M375.75 202.9 L382.0 202.65 380.95 208.85 Q380.95 207.9 379.75 207.25 378.5 206.6 376.8 206.6 L375.75 202.9 M402.2 153.9 L403.9 160.65 414.95 166.05 413.1 153.1 415.85 152.9 414.85 136.35 412.2 135.05 408.25 142.0 405.0 139.4 408.05 148.1 408.05 148.2 408.1 148.25 408.25 148.55 406.8 150.6 403.15 144.85 403.9 152.55 403.65 153.85 396.35 144.6 402.2 153.9 M412.05 149.6 L411.1 148.4 411.6 147.05 412.05 149.6 M396.0 155.2 Q396.0 156.5 396.65 157.45 397.25 158.35 398.15 158.35 L398.65 158.85 399.35 162.9 404.9 166.5 401.65 160.75 402.65 160.45 403.05 159.75 397.6 150.1 396.0 155.2 M446.35 143.1 L448.4 139.35 444.3 141.7 439.9 143.55 438.6 144.05 426.0 155.25 425.55 154.9 425.35 153.95 428.95 144.7 430.0 142.1 433.05 134.25 430.55 137.55 429.1 130.65 427.4 136.4 423.9 138.65 423.8 137.45 Q423.6 136.8 423.25 136.5 422.9 136.15 422.5 136.3 L421.8 136.95 Q421.5 137.45 421.45 138.3 L416.6 152.8 418.15 166.45 422.0 163.85 422.05 163.9 431.15 166.85 437.05 171.35 450.5 168.0 438.05 164.1 438.75 162.15 439.9 160.55 452.2 150.4 441.7 154.2 436.75 154.7 435.0 157.8 430.8 158.9 434.05 154.6 436.5 154.0 Q440.6 154.0 443.5 150.8 446.35 147.6 446.35 143.1 M435.15 162.9 L433.75 163.15 435.1 159.85 436.05 162.0 435.15 162.9 M423.35 148.9 L422.65 148.8 422.65 148.6 423.95 146.05 423.35 148.9 M465.6 213.95 L465.7 215.3 463.1 215.25 457.25 210.8 465.6 213.95 M478.1 211.0 L477.35 211.75 474.0 209.85 478.1 211.0 M293.7 45.55 L269.35 39.55 269.05 35.45 277.9 28.8 273.15 25.8 274.55 22.05 279.55 22.0 277.7 18.9 278.25 15.9 309.1 20.9 315.3 16.0 332.7 18.55 317.65 23.9 360.7 34.8 306.6 41.45 300.3 41.05 293.7 45.55 M258.4 48.15 L205.4 41.6 261.1 44.7 258.4 48.15 M259.2 30.35 L234.3 33.35 229.15 30.2 233.6 28.0 231.7 24.3 248.75 22.35 245.05 28.25 259.2 30.35 M181.3 25.55 L227.05 30.85 165.1 37.5 162.35 35.75 162.35 32.7 178.0 29.6 181.3 25.55 M196.35 59.4 Q200.45 59.4 203.35 60.7 206.25 62.0 206.25 63.85 206.25 65.7 203.35 67.0 200.45 68.3 196.35 68.3 192.25 68.3 189.35 67.0 186.45 65.7 186.45 63.85 186.45 62.0 189.35 60.7 192.25 59.4 196.35 59.4 M226.4 104.7 L226.3 104.75 226.35 104.75 243.35 106.65 240.25 105.15 236.7 102.85 230.85 104.1 226.4 104.7 M166.15 114.65 L154.1 121.1 155.15 124.2 175.4 119.45 166.15 114.65 M174.1 153.35 Q174.1 150.8 171.4 149.0 168.7 147.2 164.9 147.2 161.1 147.2 158.4 149.0 155.7 150.8 155.7 153.35 155.7 155.9 158.4 157.7 161.1 159.5 164.9 159.5 168.7 159.5 171.4 157.7 174.1 155.9 174.1 153.35 M162.1 194.65 L163.5 187.75 163.75 195.95 Q162.7 199.25 162.15 195.2 L162.1 194.65 M241.8 188.35 L241.85 181.75 246.9 179.1 245.5 182.0 Q244.1 182.0 243.1 183.8 242.1 185.55 242.1 188.1 L241.8 188.35 M256.25 112.2 L274.2 112.6 249.65 100.05 256.1 104.5 255.65 108.25 Q253.75 108.35 252.8 109.05 251.85 109.7 252.1 110.5 252.35 111.3 253.65 111.8 L256.25 112.2 M261.6 143.75 Q261.6 142.2 258.75 141.1 255.85 140.0 251.8 140.0 247.75 140.0 244.9 141.1 242.0 142.2 242.0 143.75 242.0 145.3 244.9 146.4 247.75 147.5 251.8 147.5 255.85 147.5 258.75 146.4 261.6 145.3 261.6 143.75 M150.05 19.65 Q150.05 20.55 148.55 21.2 L144.85 21.8 Q142.7 21.8 141.2 21.2 139.65 20.55 139.65 19.65 139.65 18.75 141.2 18.15 142.7 17.5 144.85 17.5 147.0 17.5 148.55 18.15 150.05 18.75 150.05 19.65 M99.7 39.7 L89.35 37.15 92.2 32.0 91.5 37.5 99.7 39.7 M109.0 98.15 Q108.35 98.15 107.9 98.55 107.45 98.95 107.45 99.5 L101.0 100.35 102.15 104.0 98.75 102.95 98.2 102.35 Q98.2 98.35 102.5 95.5 106.8 92.65 112.9 92.65 L112.85 96.85 111.85 99.3 109.0 98.15 M114.85 104.6 L115.05 99.25 115.45 102.1 114.85 104.6 M117.2 97.55 L117.6 93.0 121.8 93.55 117.2 97.55 M115.3 92.8 L113.9 94.9 113.65 92.65 115.3 92.8 M123.1 93.8 L118.95 108.0 118.2 108.45 122.15 93.6 123.1 93.8 M128.7 95.05 L135.3 97.1 125.55 103.7 128.7 95.05 M112.7 47.55 L174.05 63.65 110.05 50.75 112.7 47.55 M66.5 16.45 L65.7 21.3 48.1 22.75 43.05 20.8 66.5 16.45 M42.2 20.95 L31.9 31.05 2.8 31.0 42.2 20.95 M78.55 93.25 Q78.55 94.35 77.8 95.1 77.05 95.85 76.0 95.85 74.95 95.85 74.2 95.1 73.45 94.35 73.45 93.25 73.45 92.15 74.2 91.4 74.95 90.65 76.0 90.65 77.05 90.65 77.8 91.4 78.55 92.15 78.55 93.25 M31.05 113.9 L29.3 114.05 31.15 113.6 31.05 113.9 M71.3 132.2 L71.75 131.15 Q71.75 130.55 71.3 130.1 70.85 129.65 70.2 129.65 69.55 129.65 69.1 130.1 68.65 130.55 68.65 131.15 68.65 131.75 69.1 132.2 69.55 132.65 70.2 132.65 70.85 132.65 71.3 132.2 M29.75 207.75 L36.2 210.45 22.7 210.5 29.75 207.75 M119.2 121.75 L119.7 121.7 119.75 122.05 119.1 122.05 119.2 121.75 M103.8 109.85 L103.65 109.55 106.05 109.6 103.8 109.85 M109.0 119.5 L108.65 119.35 108.65 119.3 108.95 119.3 109.0 119.5 M116.7 122.7 Q116.9 122.0 117.7 122.05 L117.9 122.2 116.7 122.7 M88.8 136.75 L96.65 137.95 89.7 140.25 89.6 140.15 88.8 136.75 M82.75 200.35 L75.25 208.55 74.15 205.0 75.65 200.25 90.2 191.25 82.75 200.35 M78.15 208.05 L81.95 202.0 Q81.95 204.5 80.85 206.3 79.7 208.05 78.15 208.05 M279.15 193.95 L278.75 199.3 324.15 194.35 279.15 193.95" fill="#b9ab95" fill-rule="evenodd" stroke="none"/>
    <path d="M559.85 123.75 L557.35 124.9 548.4 123.5 544.3 119.7 559.4 120.95 563.3 116.65 575.0 119.6 576.9 124.5 559.85 123.75 M600.0 149.85 L519.15 137.95 527.05 137.95 534.45 124.0 600.0 146.0 600.0 149.85 M480.25 110.7 L503.85 112.2 535.35 114.9 487.7 121.85 475.1 113.55 480.25 110.7 M514.35 190.8 L515.1 191.1 540.2 198.05 541.2 200.0 541.2 200.9 505.4 188.8 514.35 190.8 M538.9 192.05 L500.1 179.45 573.35 184.4 600.0 191.45 600.0 205.7 594.0 205.75 592.9 202.65 544.3 193.45 544.2 193.4 544.2 193.45 542.75 193.15 538.9 192.05 M600.0 167.3 L581.25 175.8 555.15 167.5 600.0 165.1 600.0 167.3 M542.6 169.3 Q550.25 169.3 555.65 171.0 561.05 172.7 561.05 175.1 561.05 177.5 555.65 179.2 550.25 180.9 542.6 180.9 534.95 180.9 529.55 179.2 524.15 177.5 524.15 175.1 524.15 172.7 529.55 171.0 534.95 169.3 542.6 169.3 M600.0 211.3 L600.0 211.85 580.9 214.7 587.15 211.8 600.0 211.3 M600.0 220.6 L600.0 326.95 558.7 336.6 541.1 343.7 536.65 350.85 544.65 350.75 548.9 348.15 558.1 339.15 558.1 342.85 600.0 345.0 600.0 392.95 565.3 386.85 575.6 369.05 583.65 366.6 587.15 359.95 581.25 353.15 556.65 358.7 556.75 362.95 552.95 363.15 526.05 351.4 520.65 357.65 526.9 363.25 520.1 367.5 512.7 371.6 516.1 377.45 455.3 378.8 464.6 382.05 467.9 379.5 545.55 397.2 546.75 400.0 173.7 400.0 203.9 388.8 224.15 391.3 214.65 382.05 208.6 378.2 245.4 366.95 222.25 363.9 229.35 359.5 270.45 360.05 269.55 354.4 232.05 354.2 234.6 351.25 230.35 346.65 233.15 341.1 229.8 338.9 189.4 353.05 193.2 353.4 170.75 357.8 184.5 347.95 178.85 349.1 182.0 346.0 176.55 350.1 167.7 356.0 165.55 355.0 172.7 334.0 160.6 353.45 158.7 353.1 157.15 342.7 154.7 351.0 151.65 342.1 150.35 353.0 146.25 352.15 141.9 346.1 141.65 350.2 134.05 349.9 125.8 340.35 128.1 348.0 124.65 345.15 125.1 350.35 107.15 351.55 102.5 351.95 98.15 352.3 96.25 351.1 93.75 351.15 89.45 347.85 79.75 348.9 78.95 342.4 79.55 337.1 75.85 339.9 68.7 350.75 65.35 350.35 58.5 345.0 59.95 349.75 40.4 344.55 49.1 341.15 38.3 340.85 35.55 337.85 35.7 337.7 62.2 326.05 56.15 325.6 62.85 321.15 Q62.85 317.8 60.75 315.45 58.65 313.1 55.65 313.1 L44.65 313.2 36.45 315.55 31.9 315.65 43.85 306.6 22.35 317.45 16.9 319.4 23.75 315.2 51.95 297.85 47.35 295.1 14.3 314.75 39.6 293.15 30.6 295.0 30.7 291.45 32.8 289.85 Q35.95 289.85 38.2 288.2 40.45 286.5 40.45 284.1 L39.2 281.15 27.45 276.05 Q30.85 276.05 33.25 272.1 35.6 268.15 35.6 262.6 L0.0 254.8 0.0 247.95 49.85 233.6 55.5 238.05 63.3 243.05 66.1 236.7 66.8 236.9 67.1 236.75 68.6 235.4 73.65 241.4 78.3 240.9 81.75 245.3 86.55 244.15 89.35 245.2 95.6 241.8 97.35 242.25 95.95 246.25 108.15 238.1 101.65 239.55 101.15 238.1 Q98.75 238.1 97.1 237.25 95.4 236.35 95.4 235.1 L102.95 225.05 100.0 225.65 107.25 220.65 99.6 219.15 110.4 212.95 103.8 209.4 136.7 208.45 Q136.7 212.2 138.3 214.85 139.85 217.45 142.1 217.45 L141.55 218.9 138.1 222.2 133.85 220.6 146.55 226.7 143.15 224.6 143.8 220.25 153.9 222.6 155.0 221.0 170.0 221.55 169.75 217.2 170.35 215.8 173.25 221.75 173.95 217.55 174.5 217.0 Q174.45 220.65 175.9 223.35 177.3 226.0 179.35 226.1 181.35 226.2 182.85 223.65 184.35 221.05 184.35 217.25 L185.15 219.25 Q185.2 221.4 186.1 222.85 187.0 224.25 188.25 224.2 189.5 224.1 190.35 222.6 191.2 221.05 191.1 219.05 L195.3 209.4 196.75 207.8 199.3 207.85 203.9 212.05 201.7 217.25 205.15 218.0 207.8 213.0 221.55 212.25 223.45 208.35 230.35 197.6 234.4 200.25 234.85 197.05 235.75 197.1 241.25 201.1 238.45 195.4 240.8 194.55 Q241.2 200.15 243.05 203.05 244.9 205.95 247.2 205.3 249.5 204.6 250.9 200.75 252.25 196.85 252.0 192.95 L274.55 199.5 261.3 209.1 279.7 209.1 279.35 213.95 299.7 212.1 296.3 208.9 367.95 207.2 374.25 215.8 368.65 207.4 372.65 208.25 377.15 213.7 379.9 217.0 381.2 211.05 382.3 212.0 383.8 216.75 395.85 214.25 394.65 211.1 397.3 209.85 395.8 207.4 398.05 203.65 453.4 215.15 453.9 219.05 Q453.3 219.05 452.85 219.75 452.4 220.4 452.4 221.35 L455.1 228.35 457.75 232.4 458.2 233.05 460.7 236.8 466.5 243.65 464.7 235.5 463.85 232.55 457.85 215.2 458.5 215.2 468.75 239.75 Q468.75 240.7 469.75 241.4 470.75 242.05 472.2 242.05 473.3 242.05 474.05 241.25 474.8 240.4 474.8 239.25 L478.15 247.4 481.55 243.45 484.3 243.4 Q489.1 243.4 492.5 241.25 495.9 239.1 495.9 236.05 L497.3 237.5 490.9 244.6 499.25 240.45 500.65 240.15 518.75 243.1 494.05 259.35 600.0 220.6 M169.4 400.0 L168.95 400.0 169.2 399.25 169.65 399.45 169.4 400.0 M138.35 400.0 L113.25 400.0 123.45 391.55 138.35 400.0 M7.85 400.0 L0.0 400.0 0.0 396.75 7.85 400.0 M0.0 375.8 L0.0 346.1 Q1.4 346.1 2.4 345.55 3.35 345.0 3.35 344.25 L7.45 350.9 28.75 350.5 6.3 369.2 16.0 369.65 8.6 374.4 25.25 375.8 19.2 370.45 36.7 363.15 41.75 368.15 Q41.75 371.25 44.3 373.45 46.8 375.6 50.35 375.6 L50.85 376.05 54.75 384.15 50.3 384.85 33.0 375.7 36.85 382.8 53.2 393.0 6.15 384.0 8.75 376.2 0.0 375.8 M0.0 303.45 L0.0 283.0 10.0 282.8 12.2 285.8 11.55 286.55 0.0 303.45 M0.0 228.45 L0.0 207.85 63.3 182.35 68.95 187.35 Q68.95 195.8 57.5 201.8 46.0 207.75 29.75 207.75 L22.7 210.5 36.2 210.45 46.6 210.35 42.65 217.8 35.45 217.55 29.5 223.25 0.0 228.45 M0.0 197.8 L0.0 185.5 53.85 180.65 58.45 182.0 0.0 197.8 M334.05 92.9 L280.1 87.1 335.8 89.1 334.05 92.9 M377.7 146.55 L377.7 150.85 369.85 150.85 369.85 146.55 377.7 146.55 M371.85 202.45 L356.85 193.95 360.5 191.1 385.65 197.5 385.2 199.95 Q383.85 199.95 382.95 200.75 382.0 201.55 382.0 202.65 L375.75 202.9 373.2 198.85 372.1 202.25 371.85 202.45 M420.05 194.75 L469.55 197.25 464.0 203.5 420.05 194.75 M548.15 212.55 L549.5 212.55 550.55 212.85 548.15 212.55 M438.05 164.1 L450.5 168.0 437.05 171.35 431.15 166.85 433.75 163.15 435.15 162.9 436.05 165.15 438.05 164.1 M465.7 215.3 L468.5 228.3 463.1 215.25 465.7 215.3 M472.65 218.8 L471.05 222.7 469.5 216.5 472.65 218.8 M450.8 234.3 L453.85 234.05 453.85 237.1 450.8 234.3 M460.65 240.65 L446.95 223.8 444.4 227.45 445.6 230.7 440.15 228.75 453.55 237.6 451.4 236.8 438.6 232.8 444.15 240.55 456.4 244.45 453.3 241.7 453.7 241.65 460.65 240.65 M483.85 227.05 L484.15 227.2 483.75 227.75 483.85 227.05 M483.05 284.2 L485.8 285.9 543.95 246.0 483.05 284.2 M336.95 295.95 L333.5 295.4 333.65 297.25 Q333.65 299.1 334.45 300.45 335.25 301.75 336.35 301.75 L339.65 306.5 Q339.65 311.45 343.65 314.95 347.6 318.4 353.25 318.4 L356.5 319.9 359.45 311.35 359.55 311.0 360.55 311.45 362.5 318.15 364.25 310.65 365.0 309.65 366.65 306.35 373.55 284.9 369.9 287.55 365.7 292.1 360.7 295.85 356.5 278.15 352.35 290.6 348.0 285.2 350.6 300.85 345.35 284.6 345.85 296.25 342.7 294.75 345.2 303.7 344.2 304.75 Q344.2 301.1 342.1 298.55 339.95 295.95 336.95 295.95 M354.4 295.95 L357.5 283.0 355.65 299.65 354.4 295.95 M380.7 291.95 L382.35 288.05 372.9 301.75 373.1 307.1 372.55 314.15 380.7 291.95 M388.3 295.9 L387.05 293.05 381.05 303.25 388.3 295.9 M364.8 294.45 L364.4 295.7 363.0 298.15 364.8 294.45 M381.55 320.4 L386.5 315.2 377.15 318.7 381.1 320.45 339.9 330.4 343.0 325.45 335.85 318.9 265.95 339.55 478.5 342.05 488.3 347.65 498.7 350.45 494.15 345.65 493.25 343.2 499.85 346.25 496.8 341.9 498.85 341.2 505.65 350.6 511.6 350.0 510.0 341.35 511.5 341.2 514.2 348.75 514.75 344.4 515.5 345.45 524.7 348.9 526.6 346.2 528.35 351.2 536.55 344.9 540.6 341.9 553.75 323.15 546.95 329.0 544.9 328.35 552.25 323.75 544.9 327.15 539.9 327.05 545.45 318.4 536.9 325.4 533.6 321.05 536.25 318.85 532.2 320.8 527.75 322.1 527.95 313.5 518.25 322.45 515.4 323.2 513.6 310.8 512.5 315.35 506.75 312.7 505.15 319.0 501.2 322.7 505.0 333.85 502.45 334.6 498.7 330.35 496.75 314.55 495.05 326.2 491.15 321.85 488.4 324.4 486.5 324.55 Q485.35 324.75 485.0 325.2 484.6 325.65 485.3 326.05 L487.8 326.6 488.05 328.8 461.2 310.75 461.7 305.85 475.45 290.05 448.3 307.25 448.7 313.9 456.1 316.1 460.35 312.7 463.45 316.6 461.0 322.05 434.35 315.3 497.5 271.1 500.3 264.3 496.45 260.7 412.85 312.75 418.85 312.3 416.3 315.85 381.55 320.4 M331.8 310.75 L343.55 318.45 341.5 315.7 Q341.5 310.3 337.25 306.5 333.0 302.7 326.95 302.7 L322.45 300.75 330.4 309.45 331.8 310.75 M363.55 388.15 Q361.6 389.65 361.6 391.75 361.6 393.85 363.55 395.35 365.45 396.85 368.2 396.85 370.95 396.85 372.9 395.35 374.8 393.85 374.8 391.75 374.8 389.65 372.9 388.15 370.95 386.65 368.2 386.65 365.45 386.65 363.55 388.15 M415.75 385.4 Q409.6 387.8 409.6 391.25 409.6 394.7 415.75 397.15 421.9 399.55 430.6 399.55 439.3 399.55 445.45 397.15 451.6 394.7 451.6 391.25 451.6 387.8 445.45 385.4 439.3 382.95 430.6 382.95 421.9 382.95 415.75 385.4 M538.7 331.75 L533.25 336.9 533.55 335.65 534.95 333.75 538.7 331.75 M514.3 340.45 L514.15 338.45 514.45 338.3 514.3 340.45 M120.15 123.0 L116.4 124.1 116.7 122.7 117.9 122.2 119.1 122.05 119.75 122.05 120.15 123.0 M92.35 119.35 L86.35 119.05 86.1 115.95 96.25 111.35 98.1 117.25 92.35 119.35 M99.5 110.6 L102.15 110.1 105.3 115.5 99.5 110.6 M66.45 116.35 L75.7 123.8 8.15 126.75 10.65 118.3 29.3 114.05 31.05 113.9 52.6 118.35 50.5 114.2 50.9 112.7 66.45 116.35 M226.4 104.7 L230.85 104.1 240.25 105.15 243.35 106.65 226.35 104.75 226.4 104.7 M166.15 114.65 L175.4 119.45 155.15 124.2 154.1 121.1 166.15 114.65 M249.1 189.65 L249.65 190.35 248.8 191.0 249.1 189.65 M255.65 108.25 L262.0 110.2 256.25 112.2 253.65 111.8 Q252.35 111.3 252.1 110.5 251.85 109.7 252.8 109.05 253.75 108.35 255.65 108.25 M261.6 143.75 Q261.6 145.3 258.75 146.4 255.85 147.5 251.8 147.5 247.75 147.5 244.9 146.4 242.0 145.3 242.0 143.75 242.0 142.2 244.9 141.1 247.75 140.0 251.8 140.0 255.85 140.0 258.75 141.1 261.6 142.2 261.6 143.75 M258.15 197.05 Q258.15 196.25 257.6 195.7 257.0 195.1 256.2 195.1 255.4 195.1 254.85 195.7 254.25 196.25 254.25 197.05 254.25 197.85 254.85 198.45 255.4 199.0 256.2 199.0 257.0 199.0 257.6 198.45 258.15 197.85 258.15 197.05 M45.0 147.85 Q46.95 147.85 48.3 147.0 49.65 146.15 49.65 144.95 L65.7 139.4 Q65.7 143.15 68.05 145.85 70.35 148.5 73.6 148.5 L46.8 152.4 45.0 147.85 M16.7 163.3 L9.6 166.85 6.5 163.65 13.6 159.9 13.85 160.15 16.7 163.3 M124.1 117.1 L125.75 114.3 128.55 113.7 127.65 115.75 124.1 117.1 M106.05 109.6 L107.55 109.45 108.25 115.3 108.45 116.6 108.95 119.3 108.65 119.3 Q108.65 118.2 108.1 117.45 107.55 116.65 106.8 116.65 L103.8 109.85 106.05 109.6 M96.65 137.95 L97.35 137.75 106.0 143.05 90.65 147.35 89.7 140.25 96.65 137.95 M146.95 208.15 L151.5 213.5 152.25 216.85 143.6 210.45 140.95 208.35 146.95 208.15 M154.0 219.7 L149.55 215.9 152.9 218.05 154.0 219.7 M85.8 223.5 L84.6 226.75 85.4 223.7 85.8 223.5 M90.0 221.7 L92.2 222.0 88.65 224.7 90.0 221.7 M105.85 301.4 L90.8 293.45 92.75 279.2 45.7 278.2 42.15 286.7 83.2 300.7 85.55 301.5 106.4 308.6 105.85 301.4 M150.65 257.0 L157.85 258.85 131.4 267.3 140.9 271.2 140.1 274.7 144.5 272.3 170.95 277.1 185.85 265.65 173.8 256.3 184.75 247.35 150.65 257.0 M58.05 225.85 L58.15 233.9 53.2 231.75 52.2 230.3 Q52.2 228.45 53.95 227.15 55.65 225.85 58.05 225.85 M60.95 226.6 L61.55 228.0 59.9 226.35 60.95 226.6 M1.8 305.9 L1.9 307.5 0.6 310.1 1.8 305.9 M3.55 304.85 L14.35 287.2 32.55 289.85 30.15 291.0 24.4 290.45 6.45 312.05 6.3 303.0 3.55 304.85 M28.0 292.3 L22.55 296.55 18.6 297.95 28.0 292.3 M61.9 260.85 L63.7 264.2 71.85 260.3 68.8 258.65 61.9 260.85 M47.6 320.5 L47.45 320.35 46.85 319.85 59.8 321.45 52.3 323.25 Q50.35 323.25 49.0 322.45 47.6 321.65 47.6 320.5 M33.35 327.65 L32.45 328.3 32.9 327.7 33.35 327.65 M75.05 325.15 L74.7 330.25 105.05 329.3 75.05 325.15 M39.45 363.05 L48.15 362.45 61.05 373.6 62.15 376.25 61.45 375.7 51.4 365.9 46.75 363.3 43.2 365.0 39.45 363.05 M52.45 362.3 L54.55 362.3 56.85 365.75 52.45 362.3 M1.45 387.1 L1.0 386.8 1.9 386.8 1.45 387.1 M49.1 385.9 L50.2 385.35 49.9 385.75 49.1 385.9 M73.15 363.5 L73.35 363.5 74.4 375.6 74.8 385.05 73.85 382.0 73.15 363.5 M80.3 374.65 L80.3 373.5 80.7 373.7 80.5 374.65 80.3 374.65 M55.55 391.95 L51.05 387.15 56.25 391.7 55.55 391.95 M108.2 329.75 L109.8 336.1 144.8 324.45 108.2 329.75 M109.25 370.05 L111.65 366.8 124.3 364.95 106.8 378.45 101.65 382.35 96.65 382.8 98.65 378.85 109.25 370.05 M159.7 382.0 L160.15 381.8 159.35 384.15 159.7 382.0 M171.2 378.0 L171.65 377.85 161.1 398.95 163.5 387.75 163.65 387.55 171.2 378.0 M175.6 376.6 L178.1 375.8 169.85 385.1 175.6 376.6 M184.85 374.6 L186.35 374.8 179.9 379.1 184.85 374.6 M191.55 375.35 L197.25 376.75 189.3 377.65 191.55 375.35 M158.6 382.5 L159.05 385.05 158.35 382.65 158.6 382.5 M297.55 244.5 Q295.7 241.85 293.1 241.85 290.5 241.85 288.7 244.5 286.85 247.1 286.85 250.8 286.85 254.5 288.7 257.15 290.5 259.75 293.1 259.75 295.7 259.75 297.55 257.15 299.35 254.5 299.35 250.8 299.35 247.1 297.55 244.5 M185.55 213.1 L186.05 210.7 186.9 210.35 185.55 213.1 M192.45 221.4 L196.95 221.2 200.45 217.45 192.45 221.4 M175.2 211.8 L175.8 211.85 175.4 213.1 175.2 211.8 M234.25 321.25 Q231.4 319.6 227.4 319.6 223.4 319.6 220.6 321.25 217.75 322.85 217.75 325.15 217.75 327.45 220.6 329.1 223.4 330.7 227.4 330.7 231.4 330.7 234.25 329.1 237.05 327.45 237.05 325.15 237.05 322.85 234.25 321.25 M261.0 379.6 L259.15 373.95 252.75 374.05 252.4 378.9 261.0 379.6 M279.15 193.95 L324.15 194.35 278.75 199.3 279.15 193.95" fill="#9d8a6c" fill-rule="evenodd" stroke="none"/>
    <path d="M428.05 28.1 L379.15 57.1 402.7 61.35 396.7 64.5 388.75 62.1 376.7 58.15 384.15 61.35 374.5 61.15 331.65 46.15 373.8 36.7 374.2 39.75 428.05 28.1 M0.0 35.05 L23.15 36.4 27.5 40.6 30.25 40.6 22.8 47.6 1.8 53.85 0.0 54.15 0.0 35.05 M103.2 61.3 L217.75 90.25 215.05 95.8 203.35 94.4 201.1 96.05 190.3 94.9 156.1 83.85 145.65 90.2 129.05 90.1 Q129.2 88.1 128.7 85.9 128.15 83.65 127.25 83.25 126.35 82.8 125.6 84.4 124.85 86.0 124.7 89.4 L93.55 86.3 92.55 81.55 106.25 74.2 96.8 68.45 Q99.45 68.45 101.35 66.35 103.2 64.25 103.2 61.3 M267.7 99.95 L268.6 96.9 362.0 105.25 363.65 101.05 351.0 101.3 387.45 95.2 388.65 95.1 421.1 88.25 417.75 86.0 443.75 84.85 444.7 87.95 414.05 98.7 403.2 98.05 400.45 100.95 390.8 101.0 395.65 102.2 381.55 101.15 402.7 107.75 406.25 110.05 403.5 109.8 399.55 112.65 409.1 114.1 415.7 114.4 381.15 113.45 311.5 108.25 309.8 104.1 267.7 99.95 M464.9 94.6 L526.9 98.85 520.0 103.85 503.15 106.55 497.75 105.05 441.4 101.6 462.7 94.4 464.9 94.6 M541.85 101.5 L554.35 100.15 556.5 102.6 554.3 106.05 541.85 101.5 M565.15 100.75 L547.05 96.0 562.15 93.15 553.8 90.15 553.85 90.15 558.0 90.0 555.6 84.85 555.5 81.6 556.6 81.9 558.35 86.95 559.15 90.65 562.25 84.6 562.8 84.95 Q562.8 88.4 564.1 90.85 565.4 93.25 567.25 93.25 L568.7 98.0 565.15 100.75 M569.05 84.55 L567.65 86.4 567.7 84.25 569.05 84.55 M571.0 91.95 L573.25 85.6 579.85 88.95 571.0 91.95 M559.85 123.75 L576.9 124.5 600.0 127.75 600.0 135.2 559.85 123.75 M600.0 123.5 Q595.6 123.5 592.5 121.4 589.35 119.25 589.35 116.25 589.35 113.25 592.5 111.15 595.6 109.0 600.0 109.05 L600.0 123.5 M514.35 190.8 L513.65 186.8 515.1 191.1 514.35 190.8 M540.65 196.5 L529.15 193.7 538.9 192.05 542.75 193.15 540.65 196.5 M573.35 184.4 L600.0 182.9 600.0 191.45 573.35 184.4 M600.0 211.85 L600.0 220.6 494.05 259.35 518.75 243.1 500.65 240.15 503.7 238.2 510.55 233.75 508.15 232.45 505.15 233.3 Q502.05 233.3 499.85 234.5 497.65 235.65 497.65 237.35 L497.6 237.35 497.3 237.5 495.9 236.05 497.85 233.9 496.95 231.75 506.8 226.45 498.25 227.05 496.75 221.0 499.3 216.3 484.15 227.2 483.85 227.05 484.3 223.05 490.6 207.1 548.15 212.55 550.55 212.85 580.9 214.7 600.0 211.85 M600.0 392.95 L600.0 400.0 546.75 400.0 545.55 397.2 467.9 379.5 464.6 382.05 455.3 378.8 516.1 377.45 517.45 381.7 565.3 386.85 600.0 392.95 M113.25 400.0 L7.85 400.0 0.0 396.75 0.0 375.8 8.75 376.2 6.15 384.0 53.2 393.0 55.55 391.95 56.25 391.7 62.7 397.0 62.7 390.55 68.95 395.7 71.35 392.05 81.05 392.5 82.55 386.4 83.45 386.9 83.6 394.85 87.65 394.4 96.65 382.8 101.65 382.35 98.85 386.6 92.8 393.45 99.05 389.6 100.3 390.3 97.35 394.95 99.9 396.3 105.45 393.0 119.9 384.75 116.7 382.15 109.0 386.15 107.5 386.6 112.6 381.85 124.65 380.7 128.2 385.3 125.2 387.1 123.45 391.55 113.25 400.0 M0.0 247.95 L0.0 228.45 29.5 223.25 35.45 217.55 42.65 217.8 46.6 210.35 36.2 210.45 29.75 207.75 Q46.0 207.75 57.5 201.8 68.95 195.8 68.95 187.35 L76.45 186.05 67.95 175.85 53.85 180.65 0.0 185.5 0.0 177.75 21.65 171.55 22.45 164.9 46.75 156.9 166.55 160.9 103.4 173.1 118.55 177.45 106.05 188.3 125.1 192.9 103.8 209.4 110.4 212.95 99.6 219.15 92.2 222.0 90.0 221.7 97.2 206.7 91.65 211.45 94.35 204.55 80.35 225.35 87.75 198.85 78.55 218.0 76.25 212.9 78.15 208.05 Q79.7 208.05 80.85 206.3 81.95 204.5 81.95 202.0 L86.65 198.1 82.75 200.35 90.2 191.25 75.65 200.25 74.15 205.0 70.45 199.3 68.5 202.6 69.6 214.4 66.25 206.5 68.3 226.25 66.85 226.4 Q66.85 220.45 63.7 216.25 60.5 212.0 56.0 212.0 L60.95 226.6 59.9 226.35 58.05 225.85 Q55.65 225.85 53.95 227.15 52.2 228.45 52.2 230.3 L42.3 221.95 49.85 233.6 0.0 247.95 M456.95 210.7 L400.8 194.85 405.95 191.3 408.7 194.75 420.05 194.75 464.0 203.5 487.1 206.8 485.45 209.35 484.35 208.65 484.1 208.55 478.1 211.0 474.0 209.85 477.35 211.75 472.65 218.8 469.5 216.5 467.95 212.85 466.9 208.85 465.6 213.95 457.25 210.8 456.95 210.7 M483.05 284.2 L543.95 246.0 485.8 285.9 483.05 284.2 M296.3 208.9 L299.7 212.1 279.35 213.95 279.7 209.1 296.3 208.9 M223.45 208.35 L221.55 212.25 207.8 213.0 203.9 212.05 199.3 207.85 223.45 208.35 M381.1 320.45 L381.55 320.4 416.3 315.85 418.85 312.3 412.85 312.75 496.45 260.7 500.3 264.3 497.5 271.1 434.35 315.3 461.0 322.05 463.45 316.6 460.35 312.7 456.1 316.1 448.7 313.9 448.3 307.25 475.45 290.05 461.7 305.85 461.2 310.75 488.05 328.8 498.75 339.8 498.85 341.2 496.8 341.9 489.35 337.9 476.75 335.4 478.5 342.05 265.95 339.55 335.85 318.9 343.0 325.45 339.9 330.4 381.1 320.45 M363.55 388.15 Q365.45 386.65 368.2 386.65 370.95 386.65 372.9 388.15 374.8 389.65 374.8 391.75 374.8 393.85 372.9 395.35 370.95 396.85 368.2 396.85 365.45 396.85 363.55 395.35 361.6 393.85 361.6 391.75 361.6 389.65 363.55 388.15 M415.75 385.4 Q421.9 382.95 430.6 382.95 439.3 382.95 445.45 385.4 451.6 387.8 451.6 391.25 451.6 394.7 445.45 397.15 439.3 399.55 430.6 399.55 421.9 399.55 415.75 397.15 409.6 394.7 409.6 391.25 409.6 387.8 415.75 385.4 M526.9 363.25 L520.65 357.65 526.05 351.4 552.95 363.15 526.9 363.25 M306.6 41.45 L322.7 44.35 293.7 45.55 300.3 41.05 306.6 41.45 M93.75 109.4 L66.45 116.35 50.9 112.7 32.85 112.6 31.15 113.6 29.3 114.05 10.65 118.3 65.55 93.6 73.45 96.2 65.85 105.85 89.15 106.3 90.8 100.45 95.15 99.6 93.75 109.4 M174.1 153.35 Q174.1 155.9 171.4 157.7 168.7 159.5 164.9 159.5 161.1 159.5 158.4 157.7 155.7 155.9 155.7 153.35 155.7 150.8 158.4 149.0 161.1 147.2 164.9 147.2 168.7 147.2 171.4 149.0 174.1 150.8 174.1 153.35 M154.35 199.95 L158.55 209.9 157.25 210.55 150.0 202.5 154.35 199.95 M161.5 211.65 L161.55 211.65 161.55 211.75 161.5 211.65 M176.25 199.55 L183.85 200.05 178.75 207.9 Q177.55 207.9 176.7 209.05 175.8 210.2 175.8 211.85 L175.2 211.8 174.4 206.75 176.25 199.55 M188.8 200.4 L192.1 202.8 186.9 210.35 186.05 210.7 185.5 209.15 188.8 200.4 M236.9 186.55 L162.3 184.55 199.15 177.7 193.0 176.25 243.55 160.3 264.9 169.6 247.6 178.75 246.9 179.1 241.85 181.75 239.7 178.4 238.6 184.35 Q237.9 184.35 237.4 185.0 236.9 185.65 236.9 186.55 M138.9 2.6 L143.0 4.55 134.85 9.4 Q132.1 8.15 129.35 6.85 L138.9 2.6 M104.7 15.2 Q104.7 15.95 104.05 16.5 L102.4 17.0 Q101.45 17.0 100.8 16.5 100.1 15.95 100.1 15.2 100.1 14.45 100.8 13.95 101.45 13.4 102.4 13.4 103.35 13.4 104.05 13.95 104.7 14.45 104.7 15.2 M66.5 16.45 L86.85 14.8 67.3 22.25 73.6 22.35 49.5 33.35 96.65 54.7 31.9 31.05 42.2 20.95 44.4 23.35 48.1 22.75 65.7 21.3 66.5 16.45 M43.65 31.1 Q43.65 30.1 42.95 29.4 42.2 28.65 41.15 28.65 40.1 28.65 39.4 29.4 38.65 30.1 38.65 31.1 38.65 32.1 39.4 32.85 40.1 33.55 41.15 33.55 42.2 33.55 42.95 32.85 43.65 32.1 43.65 31.1 M55.5 86.0 Q55.5 87.2 54.65 88.1 53.8 88.95 52.6 88.95 51.4 88.95 50.55 88.1 49.7 87.2 49.7 86.0 49.7 84.8 50.55 83.95 51.4 83.05 52.6 83.05 53.8 83.05 54.65 83.95 55.5 84.8 55.5 86.0 M71.3 132.2 Q70.85 132.65 70.2 132.65 69.55 132.65 69.1 132.2 68.65 131.75 68.65 131.15 68.65 130.55 69.1 130.1 69.55 129.65 70.2 129.65 70.85 129.65 71.3 130.1 71.75 130.55 71.75 131.15 L71.3 132.2 M85.3 133.95 L96.3 133.5 99.1 131.7 97.35 137.75 96.65 137.95 88.8 136.75 85.3 133.95 M86.9 220.9 L85.8 223.5 85.4 223.7 86.9 220.9 M150.65 257.0 L184.75 247.35 173.8 256.3 185.85 265.65 170.95 277.1 144.5 272.3 140.1 274.7 140.9 271.2 131.4 267.3 157.85 258.85 150.65 257.0 M16.9 319.4 L22.35 317.45 9.75 334.5 10.6 329.05 14.15 323.65 16.9 319.4 M31.9 315.65 L36.45 315.55 26.55 320.95 31.9 315.65 M35.55 337.85 L38.3 340.85 34.1 345.4 40.4 344.55 59.95 349.75 65.75 362.4 51.2 356.45 54.55 362.3 52.45 362.3 45.25 360.3 48.15 362.45 39.45 363.05 36.7 363.15 19.2 370.45 25.25 375.8 8.6 374.4 16.0 369.65 6.3 369.2 28.75 350.5 7.45 350.9 3.35 344.25 9.35 342.65 16.45 346.7 20.5 342.6 21.1 343.1 35.55 337.85 M65.35 350.35 L68.7 350.75 67.55 354.65 65.35 350.35 M79.75 348.9 L89.45 347.85 93.75 351.15 81.7 369.8 80.7 373.7 80.3 373.5 79.75 348.9 M98.15 352.3 L102.5 351.95 98.0 355.2 98.15 352.3 M107.15 351.55 L125.1 350.35 126.0 351.85 124.45 353.15 121.3 361.75 133.3 364.5 139.7 380.5 124.2 373.2 119.25 372.1 115.65 374.7 111.2 376.55 106.8 378.45 124.3 364.95 111.65 366.8 109.25 370.05 100.65 370.8 112.15 359.65 108.15 359.45 108.0 359.25 107.75 359.3 98.85 361.05 107.15 351.55 M134.05 349.9 L141.65 350.2 146.8 376.9 134.05 349.9 M146.25 352.15 L150.35 353.0 152.4 367.8 151.0 378.95 150.35 378.7 146.25 352.15 M158.7 353.1 L160.6 353.45 157.9 366.2 157.2 367.15 156.95 364.5 158.7 353.1 M165.55 355.0 L167.7 356.0 164.0 360.35 165.55 355.0 M170.75 357.8 L193.2 353.4 189.4 353.05 229.8 338.9 233.15 341.1 230.35 346.65 234.6 351.25 232.05 354.2 269.55 354.4 270.45 360.05 229.35 359.5 222.25 363.9 245.4 366.95 208.6 378.2 197.25 376.75 191.55 375.35 194.5 372.7 186.35 374.8 184.85 374.6 178.1 375.8 175.6 376.6 205.45 355.15 171.65 377.85 171.2 378.0 196.45 355.75 168.25 374.55 167.85 371.85 160.15 381.8 159.7 382.0 160.65 375.2 170.75 357.8 M61.9 260.85 L68.8 258.65 71.85 260.3 63.7 264.2 61.9 260.85 M47.45 320.35 L33.35 327.65 32.9 327.7 Q32.9 327.05 32.0 326.6 31.1 326.1 29.85 326.1 L46.85 319.85 47.45 320.35 M43.45 326.5 L38.2 327.4 47.6 320.5 Q47.6 321.65 49.0 322.45 50.35 323.25 52.3 323.25 L43.45 326.5 M75.05 325.15 L105.05 329.3 74.7 330.25 75.05 325.15 M1.45 387.1 L1.9 386.8 1.0 386.8 1.45 387.1 M50.35 375.6 Q46.8 375.6 44.3 373.45 41.75 371.25 41.75 368.15 L50.35 375.6 M73.15 363.5 L73.65 355.85 73.35 363.5 73.15 363.5 M51.4 365.9 L48.1 368.2 43.2 365.0 46.75 363.3 51.4 365.9 M108.2 329.75 L144.8 324.45 109.8 336.1 108.2 329.75 M144.8 383.8 L135.05 357.7 135.6 356.3 144.8 383.8 M158.4 381.35 L158.6 382.5 158.35 382.65 158.4 381.35 M297.55 244.5 Q299.35 247.1 299.35 250.8 299.35 254.5 297.55 257.15 295.7 259.75 293.1 259.75 290.5 259.75 288.7 257.15 286.85 254.5 286.85 250.8 286.85 247.1 288.7 244.5 290.5 241.85 293.1 241.85 295.7 241.85 297.55 244.5 M234.25 321.25 Q237.05 322.85 237.05 325.15 237.05 327.45 234.25 329.1 231.4 330.7 227.4 330.7 223.4 330.7 220.6 329.1 217.75 327.45 217.75 325.15 217.75 322.85 220.6 321.25 223.4 319.6 227.4 319.6 231.4 319.6 234.25 321.25" fill="#74654e" fill-rule="evenodd" stroke="none"/>
    <path d="M570.55 71.4 L572.3 68.5 594.1 72.8 593.75 77.2 593.6 77.65 574.1 78.7 570.55 71.4 M540.2 198.05 L540.65 196.5 542.75 193.15 544.2 193.45 541.2 200.0 540.2 198.05 M600.0 326.95 L600.0 335.55 558.1 342.85 558.1 339.15 558.8 337.2 558.7 336.6 600.0 326.95 M0.0 269.7 L0.0 254.8 35.6 262.6 0.0 269.7 M333.75 113.6 L343.75 113.75 345.4 119.2 316.2 121.5 Q316.2 118.25 318.35 115.95 320.5 113.65 323.55 113.65 L333.75 113.6 M520.1 367.5 L526.9 363.25 552.95 363.15 556.75 362.95 569.4 366.3 522.6 372.9 520.1 367.5 M592.9 202.65 L550.95 200.45 544.3 193.45 592.9 202.65 M50.9 112.7 L50.5 114.2 32.85 112.6 50.9 112.7 M49.75 140.4 L30.75 141.7 45.0 147.85 46.8 152.4 46.75 152.75 14.45 149.15 26.7 143.6 28.55 135.65 49.75 140.4 M89.6 140.15 L69.25 142.75 68.3 137.75 82.55 132.8 85.3 133.95 88.8 136.75 89.6 140.15 M13.6 159.9 L12.15 154.05 13.85 160.15 13.6 159.9 M45.7 278.2 L92.75 279.2 90.8 293.45 105.85 301.4 85.55 301.5 83.2 300.7 84.55 295.5 75.25 293.5 75.45 289.25 78.65 285.45 45.7 278.2 M27.45 276.05 L39.2 281.15 40.45 284.1 21.7 280.5 23.25 278.35 27.45 276.05 M124.45 353.15 L126.0 351.85 129.75 358.0 125.95 357.8 124.45 353.15 M135.05 357.7 L132.85 354.1 131.55 349.7 135.6 356.3 135.05 357.7" fill="#999999" fill-rule="evenodd" stroke="none"/>
    <path d="M573.25 85.55 Q573.25 84.7 572.3 84.1 571.3 83.45 569.9 83.45 L567.2 78.9 570.55 71.4 574.1 78.7 593.6 77.65 593.8 83.6 573.25 85.55 M498.5 192.45 L473.8 187.5 497.25 186.6 498.5 192.45 M541.2 200.9 L541.2 200.0 544.2 193.45 544.2 193.4 544.3 193.45 550.95 200.45 592.9 202.65 594.0 205.75 587.15 211.8 580.9 214.7 550.55 212.85 549.5 212.55 Q546.05 212.5 543.65 209.15 541.2 205.75 541.2 200.9 M600.0 335.55 L600.0 345.0 558.1 342.85 600.0 335.55 M0.0 283.0 L0.0 269.7 35.6 262.6 Q35.6 268.15 33.25 272.1 30.85 276.05 27.45 276.05 L23.25 278.35 Q17.7 282.05 12.2 285.8 L10.0 282.8 0.0 283.0 M345.4 119.2 L315.9 131.35 316.2 121.5 345.4 119.2 M516.1 377.45 L512.7 371.6 520.1 367.5 522.6 372.9 569.4 366.3 556.75 362.95 556.65 358.7 581.25 353.15 587.15 359.95 583.65 366.6 575.6 369.05 565.3 386.85 517.45 381.7 516.1 377.45 M50.5 114.2 L52.6 118.35 31.05 113.9 31.15 113.6 32.85 112.6 50.5 114.2 M49.65 144.95 Q49.65 146.15 48.3 147.0 46.95 147.85 45.0 147.85 L30.75 141.7 49.75 140.4 49.65 144.95 M73.6 148.5 Q70.35 148.5 68.05 145.85 65.7 143.15 65.7 139.4 65.7 138.7 66.45 138.25 67.2 137.75 68.3 137.75 L69.25 142.75 89.6 140.15 89.7 140.25 90.65 147.35 73.6 148.5 M14.45 149.15 L46.75 152.75 46.75 156.9 22.45 164.9 16.7 163.3 13.85 160.15 12.15 154.05 14.45 149.15 M105.85 301.4 L106.4 308.6 85.55 301.5 105.85 301.4 M83.2 300.7 L42.15 286.7 45.7 278.2 78.65 285.45 75.45 289.25 75.25 293.5 84.55 295.5 83.2 300.7 M40.45 284.1 Q40.45 286.5 38.2 288.2 35.95 289.85 32.8 289.85 L32.55 289.85 14.35 287.2 21.7 280.5 40.45 284.1 M133.3 364.5 L121.3 361.75 124.45 353.15 125.95 357.8 129.75 358.0 133.3 364.5 M261.0 379.6 L252.4 378.9 252.75 374.05 259.15 373.95 261.0 379.6" fill="#666666" fill-rule="evenodd" stroke="none"/>
    <path d="M553.8 90.15 L552.25 89.6 553.85 90.15 553.8 90.15 M545.35 83.15 L539.35 70.55 550.4 81.45 544.6 72.55 547.9 75.05 547.6 71.5 546.55 68.0 543.95 60.45 543.0 59.4 542.75 59.0 542.4 57.8 543.9 57.8 546.85 59.95 548.05 60.9 555.35 81.25 555.5 81.6 555.6 84.85 552.7 82.8 552.5 86.55 545.35 83.15 M561.15 57.8 L563.7 57.8 564.6 62.0 564.4 65.05 560.85 72.5 561.5 60.3 559.35 66.8 559.45 66.3 560.15 62.6 561.15 57.8 M570.6 64.5 L577.3 61.4 569.1 66.3 570.6 64.5 M566.55 82.3 Q565.0 82.3 563.9 83.1 562.8 83.85 562.8 84.95 L562.25 84.6 561.8 82.85 561.8 80.6 566.55 79.95 566.55 82.3 M551.0 63.4 L554.9 66.95 557.2 72.8 558.3 76.3 559.3 80.85 559.25 81.05 558.35 86.95 556.6 81.9 554.4 77.8 551.0 63.4 M565.25 68.3 L563.25 72.9 564.3 66.35 565.25 68.3 M561.45 82.2 L560.3 81.0 Q560.3 80.65 560.7 80.45 L561.6 80.2 561.45 82.2 M164.3 400.0 L160.8 400.0 161.1 398.95 171.65 377.85 205.45 355.15 175.6 376.6 169.85 385.1 178.1 375.8 184.85 374.6 179.9 379.1 186.35 374.8 194.5 372.7 191.55 375.35 189.3 377.65 177.5 383.0 Q172.05 383.0 168.2 388.0 164.3 392.95 164.3 400.0 M151.7 400.0 L149.25 400.0 146.35 390.65 144.8 383.8 135.6 356.3 131.55 349.7 132.85 354.1 128.1 348.0 125.8 340.35 134.05 349.9 146.8 376.9 149.75 387.5 151.7 400.0 M0.0 312.3 L0.0 303.45 11.55 286.55 1.8 305.9 0.6 310.1 0.0 312.3 M371.85 202.45 L372.1 202.25 376.65 207.55 377.15 213.7 372.65 208.25 371.85 202.45 M382.0 202.65 Q382.0 201.55 382.95 200.75 383.85 199.95 385.2 199.95 L385.8 208.5 Q384.35 208.5 383.35 209.55 382.3 210.55 382.3 212.0 L381.2 211.05 380.95 208.85 382.0 202.65 M387.65 203.8 L387.75 205.3 387.45 205.3 387.65 203.8 M458.5 215.2 L456.95 210.7 457.25 210.8 463.1 215.25 468.5 228.3 470.35 234.55 466.9 231.3 468.75 239.75 458.5 215.2 M413.1 153.1 L412.05 149.6 411.6 147.05 415.85 152.9 413.1 153.1 M408.3 148.45 L408.25 148.55 408.1 148.25 408.3 148.45 M406.8 150.6 Q405.6 150.6 404.75 151.2 403.9 151.75 403.9 152.55 L403.15 144.85 406.8 150.6 M396.0 155.2 L397.6 150.1 403.05 159.75 402.65 160.45 401.65 160.75 398.65 158.85 398.15 158.35 403.05 159.75 396.0 155.2 M446.35 143.1 Q446.35 147.6 443.5 150.8 440.6 154.0 436.5 154.0 L446.35 143.1 M434.05 154.6 L430.8 158.9 429.55 154.45 439.9 143.55 444.3 141.7 434.05 154.6 M435.0 157.8 L436.75 154.7 441.7 154.2 439.9 160.55 438.75 162.15 437.15 161.45 436.05 162.0 435.1 159.85 437.75 157.8 435.0 157.8 M422.05 163.9 L422.0 163.85 422.05 163.8 422.05 163.9 M416.6 152.8 L421.45 138.3 421.8 151.55 418.9 149.5 416.6 152.8 M423.9 138.65 L427.4 136.4 423.95 146.05 422.65 148.6 423.9 138.65 M430.55 137.55 L433.05 134.25 430.0 142.1 430.55 137.55 M428.95 144.7 L425.35 153.95 421.9 151.65 422.65 148.8 423.35 148.9 428.95 144.7 M426.0 155.25 L438.6 144.05 427.85 154.65 426.0 155.25 M408.05 148.1 L405.0 139.4 408.25 142.0 408.05 148.1 M484.35 208.65 L485.45 209.35 480.55 221.7 Q480.55 221.05 480.0 220.6 479.4 220.15 478.6 220.15 L484.35 208.65 M484.1 208.55 L470.15 231.3 467.95 212.85 469.5 216.5 471.05 222.7 472.65 218.8 477.35 211.75 478.1 211.0 484.1 208.55 M472.35 232.55 L476.35 224.65 Q476.35 227.9 475.2 230.25 474.0 232.55 472.35 232.55 M452.4 221.35 Q452.4 220.4 452.85 219.75 453.3 219.05 453.9 219.05 L454.7 223.15 452.4 221.35 M458.2 233.05 L458.95 233.3 460.7 236.8 458.2 233.05 M457.65 231.75 L457.75 232.4 455.1 228.35 457.5 231.45 457.65 231.75 M459.9 230.15 L458.1 222.8 463.85 232.55 464.7 235.5 459.9 230.15 M450.8 234.3 L445.6 230.7 444.4 227.45 446.95 223.8 460.65 240.65 454.1 237.85 453.85 237.1 453.85 234.05 450.8 234.3 M453.7 241.65 L453.3 241.7 444.15 240.55 438.6 232.8 451.4 236.8 447.15 236.75 453.7 241.65 M478.85 231.4 L484.3 223.05 483.85 227.05 483.75 227.75 480.85 232.45 478.85 231.4 M496.75 221.0 L498.25 227.05 Q493.9 227.05 490.8 229.95 487.7 232.8 487.7 236.9 L484.3 243.4 481.55 243.45 485.05 239.4 481.45 235.25 489.95 225.0 487.1 234.1 496.75 221.0 M497.65 237.35 Q497.65 235.65 499.85 234.5 502.05 233.3 505.15 233.3 L497.65 237.35 M503.7 238.2 L500.65 240.15 499.25 240.45 499.85 239.5 503.7 238.2 M472.2 242.05 L474.4 237.3 474.8 239.25 Q474.8 240.4 474.05 241.25 473.3 242.05 472.2 242.05 M207.8 213.0 L205.15 218.0 201.7 217.25 203.9 212.05 207.8 213.0 M195.3 209.4 L191.1 219.05 193.85 210.9 195.3 209.4 M185.15 219.25 L184.35 217.25 185.55 213.1 186.9 210.35 192.1 202.8 Q192.0 201.55 192.45 200.25 192.85 198.9 193.65 198.25 194.4 197.6 195.25 197.9 196.1 198.2 196.7 199.3 197.3 200.4 197.35 202.15 L190.55 211.65 185.15 219.25 M174.5 217.0 L173.95 217.55 173.25 210.4 174.4 206.75 175.2 211.8 175.4 213.1 174.5 217.0 M170.35 215.8 L169.75 217.2 167.4 210.2 167.45 190.85 172.65 189.4 173.4 194.4 171.75 198.8 170.35 215.8 M155.0 221.0 L153.9 222.6 142.1 217.45 Q139.85 217.45 138.3 214.85 136.7 212.2 136.7 208.45 L140.95 208.35 143.6 210.45 140.35 210.55 149.55 215.9 154.0 219.7 155.0 221.0 M143.8 220.25 L143.15 224.6 138.1 222.2 141.55 218.9 143.8 220.25 M100.0 225.65 L102.95 225.05 95.4 235.1 92.15 236.6 100.0 225.65 M101.15 238.1 L101.65 239.55 97.35 242.25 95.6 241.8 101.15 238.1 M68.6 235.4 L67.1 236.75 56.0 212.0 Q60.5 212.0 63.7 216.25 66.85 220.45 66.85 226.4 L68.6 235.4 M66.8 236.9 L66.1 236.7 64.6 233.7 66.8 236.9 M63.3 243.05 L55.5 238.05 55.4 235.65 63.3 243.05 M336.95 295.95 Q339.95 295.95 342.1 298.55 344.2 301.1 344.2 304.75 344.2 305.3 343.85 305.7 343.45 306.1 342.95 306.1 L336.95 295.95 M345.2 303.7 L342.7 294.75 345.85 296.25 348.6 306.1 345.2 303.7 M350.6 300.85 L348.0 285.2 352.35 290.6 350.6 300.85 M360.7 295.85 L365.7 292.1 364.8 294.45 363.0 298.15 364.4 295.7 363.55 299.05 360.55 311.45 359.55 311.0 360.7 295.85 M369.9 287.55 L373.55 284.9 366.65 306.35 369.9 287.55 M365.0 309.65 L364.25 310.65 364.45 309.6 365.0 309.65 M356.5 319.9 L353.25 318.4 350.65 310.9 354.4 295.95 355.65 299.65 356.15 309.5 356.5 319.9 M336.35 301.75 Q335.25 301.75 334.45 300.45 333.65 299.1 333.65 297.25 L336.35 301.75 M380.7 291.95 L372.55 314.15 373.1 307.1 380.7 291.95 M388.3 295.9 L381.05 303.25 387.05 293.05 388.3 295.9 M488.05 328.8 L487.8 326.6 498.75 337.45 498.7 330.35 502.45 334.6 498.75 339.8 488.05 328.8 M488.4 324.4 L491.15 321.85 495.05 326.2 496.55 333.5 488.4 324.4 M505.0 333.85 L501.2 322.7 505.15 319.0 507.4 335.8 505.0 333.85 M506.75 312.7 L512.5 315.35 511.85 327.45 509.6 325.4 511.5 341.2 510.0 341.35 508.95 338.4 506.75 312.7 M515.4 323.2 L518.25 322.45 515.05 329.95 515.4 323.2 M527.75 322.1 L532.2 320.8 526.45 325.6 527.75 322.1 M533.6 321.05 L536.9 325.4 533.1 330.7 535.1 325.35 520.0 341.1 519.95 337.85 533.6 321.05 M539.9 327.05 L544.9 327.15 538.7 331.75 534.95 333.75 539.9 327.05 M544.9 328.35 L546.95 329.0 540.6 341.9 536.55 344.9 539.8 339.05 531.15 343.6 532.2 340.2 544.9 328.35 M515.5 345.45 L514.75 344.4 514.3 340.45 514.45 338.3 524.15 318.35 519.5 336.75 515.5 345.45 M493.25 343.2 L494.15 345.65 484.95 342.8 488.3 347.65 478.5 342.05 476.75 335.4 488.5 339.15 493.25 343.2 M332.45 310.3 L331.8 310.75 330.4 309.45 332.45 310.3 M341.5 315.7 L333.4 310.1 326.95 302.7 Q333.0 302.7 337.25 306.5 341.5 310.3 341.5 315.7 M543.55 343.75 L558.8 337.2 558.1 339.15 548.9 348.15 543.55 343.75 M135.85 97.35 L127.0 111.3 125.75 114.3 124.1 117.1 124.9 112.85 119.7 121.7 119.2 121.75 119.65 112.8 Q122.1 112.8 123.85 110.15 125.55 107.45 125.55 103.7 L135.3 97.1 135.65 96.95 Q136.25 96.8 135.85 97.35 M131.75 110.6 L138.85 109.95 132.05 118.45 129.25 120.4 128.6 120.0 127.65 115.75 128.55 113.7 131.75 110.6 M136.7 118.55 L136.2 121.8 132.25 121.15 136.7 118.55 M107.4 121.45 L106.8 121.65 98.1 117.25 96.25 111.35 99.5 110.6 105.3 115.5 105.4 116.35 Q106.0 119.65 106.8 116.65 107.55 116.65 108.1 117.45 108.65 118.2 108.65 119.3 L108.65 119.35 Q108.15 119.35 107.8 120.0 107.4 120.6 107.4 121.45 M162.1 194.65 L162.15 195.2 Q162.7 199.25 163.75 195.95 L165.9 205.8 161.9 204.2 162.1 194.65 M160.3 190.8 L158.95 204.4 156.05 195.2 156.65 187.55 160.3 190.8 M161.55 211.65 Q162.0 211.65 162.35 211.2 L162.65 210.1 165.3 218.05 161.55 211.75 161.55 211.65 M183.85 200.05 L184.35 199.45 181.9 210.6 Q180.6 210.6 179.7 209.8 178.75 209.0 178.75 207.9 L183.85 200.05 M189.4 197.45 L188.8 200.4 185.5 209.15 183.05 209.65 189.4 197.45 M249.3 188.1 L249.1 189.65 248.8 191.0 248.55 191.2 249.3 188.1 M238.6 184.35 L238.75 190.6 236.9 186.55 Q236.9 185.65 237.4 185.0 237.9 184.35 238.6 184.35 M242.1 188.1 Q242.1 185.55 243.1 183.8 244.1 182.0 245.5 182.0 L243.9 188.7 242.1 188.1 M109.0 98.15 L111.85 99.3 111.0 102.55 109.0 98.15 M112.85 96.85 L112.9 92.65 113.2 89.45 113.65 92.65 113.9 94.9 112.85 96.85 M102.15 104.0 L101.0 100.35 107.45 99.5 111.6 114.5 114.85 104.6 115.45 102.1 116.5 110.95 115.05 119.3 108.25 115.3 107.55 109.45 102.15 104.0 M117.35 109.3 L117.2 97.55 121.8 93.55 122.15 93.6 118.2 108.45 117.35 109.3 M124.7 89.4 Q124.85 86.0 125.6 84.4 126.35 82.8 127.25 83.25 128.15 83.65 128.7 85.9 129.2 88.1 129.05 90.1 L128.9 90.9 119.6 111.9 118.95 108.0 123.1 93.8 124.7 89.4 M108.45 116.6 Q110.7 117.65 109.4 119.2 L109.0 119.5 108.95 119.3 108.45 116.6 M146.95 208.15 L143.6 199.5 150.0 202.5 157.25 210.55 155.65 213.75 151.5 213.5 146.95 208.15 M91.65 211.45 L86.9 220.9 85.4 223.7 84.6 226.75 84.05 228.6 84.95 220.5 78.3 236.05 78.25 230.7 80.35 225.35 94.35 204.55 91.65 211.45 M87.35 231.25 L95.25 224.35 90.8 237.55 86.6 241.55 87.35 231.25 M75.25 208.55 L71.15 220.05 69.6 214.4 68.5 202.6 70.45 199.3 74.15 205.0 75.25 208.55 M72.55 233.8 L76.25 212.9 78.55 218.0 76.15 226.0 74.25 238.65 72.55 233.8 M30.7 291.45 L30.6 295.0 10.0 317.5 4.25 336.05 6.45 312.05 24.4 290.45 30.15 291.0 28.0 292.3 18.6 297.95 22.55 296.55 19.25 301.9 30.7 291.45 M14.3 314.75 L47.35 295.1 51.95 297.85 23.75 315.2 45.1 296.45 13.55 319.45 13.45 316.05 14.3 314.75 M36.45 315.55 L44.65 313.2 Q35.65 317.15 26.7 321.15 L26.55 320.95 36.45 315.55 M55.65 313.1 Q58.65 313.1 60.75 315.45 62.85 317.8 62.85 321.15 L59.8 321.45 46.85 319.85 29.85 326.1 19.7 332.85 22.55 327.3 55.65 313.1 M56.15 325.6 L62.2 326.05 35.7 337.7 Q35.7 337.0 35.15 336.5 34.55 335.95 33.75 335.95 L56.15 325.6 M68.7 350.75 L75.85 339.9 76.0 366.25 78.95 342.4 79.75 348.9 80.3 373.5 80.3 374.65 75.05 371.8 74.4 375.6 73.35 363.5 73.65 355.85 73.15 363.5 73.85 382.0 59.7 362.5 69.85 384.75 62.15 376.25 61.05 373.6 64.7 376.35 56.85 365.75 54.55 362.3 51.2 356.45 65.75 362.4 71.0 372.7 67.55 354.65 68.7 350.75 M96.25 351.1 L98.15 352.3 98.0 355.2 85.85 378.1 98.85 361.05 107.75 359.3 93.55 377.4 83.45 386.9 82.55 386.4 83.0 379.55 96.25 351.1 M150.35 353.0 L151.65 342.1 154.7 351.0 152.4 367.8 150.35 353.0 M160.6 353.45 L172.7 334.0 165.55 355.0 164.0 360.35 158.8 371.9 157.9 366.2 160.6 353.45 M176.55 350.1 L182.0 346.0 178.85 349.1 176.55 350.1 M214.65 382.05 L224.15 391.3 203.9 388.8 190.75 387.15 169.65 399.45 169.2 399.25 174.6 389.5 214.65 382.05 M47.45 320.35 L47.6 320.5 38.2 327.4 43.45 326.5 29.45 336.9 21.1 343.1 20.5 342.6 32.45 328.3 33.35 327.65 47.45 320.35 M36.7 363.15 L39.45 363.05 43.2 365.0 48.1 368.2 51.4 365.9 61.45 375.7 56.55 374.8 55.65 378.9 50.85 376.05 50.35 375.6 41.75 368.15 36.7 363.15 M10.6 329.05 L11.35 326.1 14.15 323.65 10.6 329.05 M36.85 382.8 L33.0 375.7 50.3 384.85 50.2 385.35 49.1 385.9 36.85 382.8 M80.95 374.65 L80.5 374.65 80.7 373.7 81.7 369.8 80.95 374.65 M108.15 359.45 L112.15 359.65 100.65 370.8 109.25 370.05 98.65 378.85 93.75 378.7 108.15 359.45 M106.8 378.45 L111.2 376.55 108.15 381.7 112.6 381.85 107.5 386.6 100.3 390.3 99.05 389.6 107.3 382.8 98.85 386.6 101.65 382.35 106.8 378.45 M115.65 374.7 L119.25 372.1 124.2 373.2 115.65 374.7 M109.0 386.15 L116.7 382.15 119.9 384.75 105.45 393.0 114.4 386.8 109.0 386.15 M127.4 382.25 L139.05 382.55 141.75 390.15 127.4 382.25 M156.95 364.5 L157.2 367.15 153.6 390.8 152.35 385.2 156.95 364.5 M151.95 383.3 L150.85 381.25 151.65 381.85 151.95 383.3 M150.8 381.15 L150.35 380.7 150.35 378.7 151.0 378.95 150.8 381.15 M160.65 375.2 L159.7 382.0 159.35 384.15 159.05 385.05 158.6 382.5 158.4 381.35 158.55 378.75 160.65 375.2 M163.5 387.75 L163.55 387.55 163.65 387.55 163.5 387.75" fill="#23b129" fill-rule="evenodd" stroke="none"/>
    <path d="M539.35 70.55 L539.15 68.7 541.0 68.55 542.65 70.3 544.6 72.55 550.4 81.45 539.35 70.55 M564.4 65.05 L567.2 62.1 564.8 65.5 564.3 66.35 563.25 72.9 565.25 68.3 566.85 65.15 569.85 64.65 569.1 66.3 577.3 61.4 576.05 63.45 572.3 68.5 570.55 71.4 567.2 78.9 566.55 79.95 561.8 80.6 561.6 80.2 560.7 80.45 Q560.3 80.65 560.3 81.0 L559.45 80.95 559.3 80.85 558.3 76.3 558.55 72.9 559.35 66.8 561.5 60.3 560.85 72.5 564.4 65.05 M548.05 60.9 L551.0 63.4 554.4 77.8 555.35 81.25 548.05 60.9 M372.1 202.25 L373.2 198.85 375.75 202.9 376.8 206.6 376.65 207.55 372.1 202.25 M385.2 199.95 L385.65 197.5 388.2 198.6 387.65 203.8 387.45 205.3 Q386.75 205.3 386.3 206.25 385.8 207.15 385.8 208.5 L385.2 199.95 M453.4 215.15 Q453.4 214.15 453.85 213.4 454.25 212.6 454.95 212.3 L456.35 212.35 Q457.05 212.65 457.5 213.45 457.9 214.25 457.85 215.2 L463.85 232.55 458.1 222.8 459.9 230.15 Q458.9 230.15 458.2 230.55 457.5 230.9 457.5 231.45 L455.1 228.35 452.4 221.35 454.7 223.15 453.9 219.05 453.4 215.15 M487.1 206.8 L490.6 207.1 484.3 223.05 478.85 231.4 480.55 221.7 485.45 209.35 487.1 206.8 M403.65 153.85 L402.2 153.9 396.35 144.6 403.65 153.85 M411.1 148.4 L408.3 148.45 408.1 148.25 408.05 148.2 408.05 148.1 408.25 142.0 412.2 135.05 414.85 136.35 415.85 152.9 411.6 147.05 411.1 148.4 M444.3 141.7 L448.4 139.35 446.35 143.1 436.5 154.0 434.05 154.6 444.3 141.7 M441.7 154.2 L452.2 150.4 439.9 160.55 441.7 154.2 M421.45 138.3 Q421.5 137.45 421.8 136.95 L422.5 136.3 Q422.9 136.15 423.25 136.5 423.6 136.8 423.8 137.45 L423.9 138.65 422.65 148.6 422.65 148.8 421.9 151.65 421.8 151.55 421.45 138.3 M427.4 136.4 L429.1 130.65 430.55 137.55 430.0 142.1 428.95 144.7 423.35 148.9 423.95 146.05 427.4 136.4 M438.6 144.05 L439.9 143.55 429.55 154.45 427.85 154.65 438.6 144.05 M484.35 208.65 L478.6 220.15 476.35 224.65 472.35 232.55 470.35 234.55 468.5 228.3 465.7 215.3 465.6 213.95 466.9 208.85 467.95 212.85 470.15 231.3 484.1 208.55 484.35 208.65 M458.2 233.05 L457.75 232.4 457.65 231.75 458.95 233.3 458.2 233.05 M445.6 230.7 L450.8 234.3 453.85 237.1 454.1 237.85 453.55 237.6 440.15 228.75 445.6 230.7 M484.15 227.2 L499.3 216.3 496.75 221.0 487.1 234.1 489.95 225.0 481.45 235.25 480.85 232.45 483.75 227.75 484.15 227.2 M498.25 227.05 L506.8 226.45 496.95 231.75 487.7 236.9 Q487.7 232.8 490.8 229.95 493.9 227.05 498.25 227.05 M497.6 237.35 L497.65 237.35 505.15 233.3 508.15 232.45 510.55 233.75 503.7 238.2 499.85 239.5 Q500.3 237.25 498.2 237.3 L497.6 237.35 M196.75 207.8 L195.3 209.4 193.85 210.9 190.55 211.65 197.35 202.15 202.45 199.95 196.75 207.8 M99.6 219.15 L107.25 220.65 100.0 225.65 92.15 236.6 90.8 237.55 95.25 224.35 87.35 231.25 83.55 232.95 84.05 228.6 84.6 226.75 85.8 223.5 86.9 220.9 91.65 211.45 97.2 206.7 90.0 221.7 88.65 224.7 92.2 222.0 99.6 219.15 M67.1 236.75 L66.8 236.9 64.6 233.7 61.55 228.0 60.95 226.6 56.0 212.0 67.1 236.75 M55.5 238.05 L49.85 233.6 42.3 221.95 52.2 230.3 53.2 231.75 55.4 235.65 55.5 238.05 M333.65 297.25 L333.5 295.4 336.95 295.95 342.95 306.1 339.65 306.5 336.35 301.75 333.65 297.25 M345.85 296.25 L345.35 284.6 350.6 300.85 352.35 290.6 356.5 278.15 360.7 295.85 359.55 311.0 359.45 311.35 357.75 307.9 356.15 309.5 355.65 299.65 357.5 283.0 354.4 295.95 350.65 310.9 348.6 306.1 345.85 296.25 M365.7 292.1 L369.9 287.55 366.65 306.35 365.0 309.65 364.45 309.6 363.55 299.05 364.4 295.7 364.8 294.45 365.7 292.1 M373.1 307.1 L372.9 301.75 382.35 288.05 380.7 291.95 373.1 307.1 M487.8 326.6 L485.3 326.05 Q484.6 325.65 485.0 325.2 485.35 324.75 486.5 324.55 L488.4 324.4 496.55 333.5 495.05 326.2 496.75 314.55 498.7 330.35 498.75 337.45 487.8 326.6 M505.15 319.0 L506.75 312.7 508.95 338.4 507.4 335.8 505.15 319.0 M512.5 315.35 L513.6 310.8 515.4 323.2 515.05 329.95 518.25 322.45 527.95 313.5 527.75 322.1 526.45 325.6 532.2 320.8 536.25 318.85 533.6 321.05 519.95 337.85 519.5 336.75 524.15 318.35 514.45 338.3 514.15 338.45 511.85 327.45 512.5 315.35 M536.9 325.4 L545.45 318.4 539.9 327.05 534.95 333.75 533.55 335.65 531.75 333.85 533.1 330.7 536.9 325.4 M544.9 327.15 L552.25 323.75 544.9 328.35 532.2 340.2 533.25 336.9 538.7 331.75 544.9 327.15 M546.95 329.0 L553.75 323.15 540.6 341.9 546.95 329.0 M333.4 310.1 L332.45 310.3 330.4 309.45 322.45 300.75 326.95 302.7 333.4 310.1 M476.75 335.4 L489.35 337.9 Q489.0 337.9 488.75 338.3 488.5 338.65 488.5 339.15 L476.75 335.4 M543.55 343.75 L541.1 343.7 558.7 336.6 558.8 337.2 543.55 343.75 M127.0 111.3 L136.45 101.95 131.75 110.6 128.55 113.7 125.75 114.3 127.0 111.3 M102.15 110.1 L101.8 109.5 98.2 102.35 98.75 102.95 103.65 109.55 103.8 109.85 106.8 116.65 Q106.0 119.65 105.4 116.35 L105.3 115.5 102.15 110.1 M163.75 195.95 L163.5 187.75 162.1 194.65 161.9 204.2 162.65 210.1 162.35 211.2 Q162.0 211.65 161.55 211.65 L161.5 211.65 158.55 209.9 154.35 199.95 153.3 192.0 156.05 195.2 158.95 204.4 160.3 190.8 164.6 185.15 167.45 190.85 167.4 210.2 165.9 205.8 163.75 195.95 M173.4 194.4 L176.6 191.65 176.25 199.55 174.4 206.75 173.25 210.4 171.75 198.8 173.4 194.4 M184.35 199.45 L186.25 196.25 189.4 197.45 183.05 209.65 181.9 210.6 184.35 199.45 M247.6 178.75 L249.3 188.1 248.55 191.2 245.5 194.8 243.9 188.7 245.5 182.0 246.9 179.1 247.6 178.75 M238.6 184.35 L239.7 178.4 241.85 181.75 241.8 188.35 240.8 192.0 Q239.95 192.0 239.35 191.6 238.75 191.2 238.75 190.6 L238.6 184.35 M107.45 99.5 Q107.45 98.95 107.9 98.55 108.35 98.15 109.0 98.15 L111.0 102.55 111.85 99.3 112.85 96.85 113.9 94.9 115.3 92.8 Q115.35 92.25 115.75 91.9 116.1 91.5 116.55 91.55 L117.35 92.05 Q117.65 92.45 117.6 93.0 L117.2 97.55 117.35 109.3 116.5 110.95 115.45 102.1 115.05 99.25 114.85 104.6 111.6 114.5 107.45 99.5 M119.6 111.9 L128.9 90.9 128.7 95.05 125.55 103.7 Q125.55 107.45 123.85 110.15 122.1 112.8 119.65 112.8 L119.6 111.9 M149.55 215.9 L140.35 210.55 143.6 210.45 152.25 216.85 152.9 218.05 149.55 215.9 M82.75 200.35 L86.65 198.1 81.95 202.0 78.15 208.05 76.25 212.9 72.55 233.8 68.3 226.25 66.25 206.5 69.6 214.4 71.15 220.05 75.25 208.55 82.75 200.35 M80.35 225.35 L78.25 230.7 76.15 226.0 78.55 218.0 87.75 198.85 80.35 225.35 M32.8 289.85 L30.7 291.45 19.25 301.9 22.55 296.55 28.0 292.3 30.15 291.0 32.55 289.85 32.8 289.85 M30.6 295.0 L39.6 293.15 14.3 314.75 13.45 316.05 10.0 317.5 30.6 295.0 M23.75 315.2 L16.9 319.4 14.15 323.65 11.35 326.1 13.55 319.45 45.1 296.45 23.75 315.2 M44.65 313.2 L55.65 313.1 22.55 327.3 26.7 321.15 Q35.65 317.15 44.65 313.2 M62.85 321.15 L56.15 325.6 33.75 335.95 29.45 336.9 43.45 326.5 52.3 323.25 59.8 321.45 62.85 321.15 M59.95 349.75 L58.5 345.0 65.35 350.35 67.55 354.65 71.0 372.7 65.75 362.4 59.95 349.75 M75.85 339.9 L79.55 337.1 78.95 342.4 76.0 366.25 75.85 339.9 M93.75 351.15 L96.25 351.1 83.0 379.55 80.95 374.65 81.7 369.8 93.75 351.15 M102.5 351.95 L107.15 351.55 98.85 361.05 85.85 378.1 98.0 355.2 102.5 351.95 M125.1 350.35 L124.65 345.15 128.1 348.0 132.85 354.1 135.05 357.7 144.8 383.8 146.35 390.65 139.05 382.55 127.4 382.25 124.65 380.7 112.6 381.85 108.15 381.7 111.2 376.55 115.65 374.7 124.2 373.2 139.7 380.5 133.3 364.5 129.75 358.0 126.0 351.85 125.1 350.35 M141.65 350.2 L141.9 346.1 146.25 352.15 150.35 378.7 150.35 380.7 149.75 387.5 146.8 376.9 141.65 350.2 M154.7 351.0 L157.15 342.7 158.7 353.1 156.95 364.5 152.35 385.2 151.95 383.3 151.65 381.85 150.85 381.25 150.85 381.2 150.8 381.15 151.0 378.95 152.4 367.8 154.7 351.0 M167.7 356.0 L176.55 350.1 178.85 349.1 184.5 347.95 170.75 357.8 160.65 375.2 158.55 378.75 158.8 371.9 164.0 360.35 167.7 356.0 M208.6 378.2 L214.65 382.05 174.6 389.5 177.5 383.0 189.3 377.65 197.25 376.75 208.6 378.2 M11.55 286.55 L12.2 285.8 Q17.7 282.05 23.25 278.35 L21.7 280.5 14.35 287.2 3.55 304.85 1.9 307.5 1.8 305.9 11.55 286.55 M48.15 362.45 L45.25 360.3 52.45 362.3 56.85 365.75 64.7 376.35 61.05 373.6 48.15 362.45 M107.75 359.3 L108.0 359.25 108.15 359.45 93.75 378.7 93.55 377.4 107.75 359.3 M168.25 374.55 L196.45 355.75 171.2 378.0 163.65 387.55 163.55 387.55 168.25 374.55" fill="#98eba2" fill-rule="evenodd" stroke="none"/>
    <path d="M552.25 89.6 Q549.4 89.6 547.4 87.7 545.35 85.8 545.35 83.15 L552.5 86.55 552.7 82.8 555.6 84.85 558.0 90.0 553.85 90.15 552.25 89.6 M567.7 84.25 L567.65 86.4 569.05 84.55 569.9 83.45 Q571.3 83.45 572.3 84.1 573.25 84.7 573.25 85.55 L573.25 85.6 571.0 91.95 567.25 93.25 Q565.4 93.25 564.1 90.85 562.8 88.4 562.8 84.95 562.8 83.85 563.9 83.1 565.0 82.3 566.55 82.3 567.05 82.3 567.4 82.9 L567.7 84.25 M559.25 81.05 L559.45 80.95 560.3 81.0 561.45 82.2 561.8 82.85 562.25 84.6 559.15 90.65 558.35 86.95 559.25 81.05 M173.7 400.0 L169.4 400.0 169.65 399.45 190.75 387.15 203.9 388.8 173.7 400.0 M168.95 400.0 L164.3 400.0 Q164.3 392.95 168.2 388.0 172.05 383.0 177.5 383.0 L174.6 389.5 169.2 399.25 168.95 400.0 M160.8 400.0 L151.7 400.0 149.75 387.5 150.35 380.7 150.8 381.15 150.85 381.2 150.85 381.25 151.95 383.3 152.35 385.2 153.6 390.8 157.2 367.15 157.9 366.2 158.8 371.9 158.55 378.75 158.4 381.35 158.35 382.65 159.05 385.05 159.35 384.15 160.15 381.8 167.85 371.85 168.25 374.55 163.55 387.55 163.5 387.75 161.1 398.95 160.8 400.0 M149.25 400.0 L138.35 400.0 123.45 391.55 125.2 387.1 128.2 385.3 124.65 380.7 127.4 382.25 141.75 390.15 139.05 382.55 146.35 390.65 149.25 400.0 M0.0 346.1 L0.0 312.3 0.6 310.1 1.9 307.5 3.55 304.85 6.3 303.0 6.45 312.05 4.25 336.05 10.0 317.5 13.45 316.05 13.55 319.45 11.35 326.1 10.6 329.05 9.75 334.5 22.35 317.45 43.85 306.6 31.9 315.65 26.55 320.95 26.7 321.15 22.55 327.3 19.7 332.85 29.85 326.1 Q31.1 326.1 32.0 326.6 32.9 327.05 32.9 327.7 L32.45 328.3 20.5 342.6 16.45 346.7 9.35 342.65 3.35 344.25 Q3.35 345.0 2.4 345.55 1.4 346.1 0.0 346.1 M387.75 205.3 L393.6 207.3 394.65 211.1 395.85 214.25 383.8 216.75 382.3 212.0 Q382.3 210.55 383.35 209.55 384.35 208.5 385.8 208.5 385.8 207.15 386.3 206.25 386.75 205.3 387.45 205.3 L387.75 205.3 M402.2 153.9 L403.65 153.85 403.9 152.55 Q403.9 151.75 404.75 151.2 405.6 150.6 406.8 150.6 L408.25 148.55 408.3 148.45 411.1 148.4 412.05 149.6 413.1 153.1 414.95 166.05 403.9 160.65 402.2 153.9 M398.15 158.35 Q397.25 158.35 396.65 157.45 396.0 156.5 396.0 155.2 L403.05 159.75 398.15 158.35 M401.65 160.75 L404.9 166.5 399.35 162.9 398.65 158.85 401.65 160.75 M430.8 158.9 L435.0 157.8 437.75 157.8 435.1 159.85 433.75 163.15 431.15 166.85 422.05 163.9 422.05 163.8 422.0 163.85 418.15 166.45 416.6 152.8 418.9 149.5 421.8 151.55 421.9 151.65 425.35 153.95 425.55 154.9 426.0 155.25 427.85 154.65 429.55 154.45 430.8 158.9 M438.75 162.15 L438.05 164.1 436.05 165.15 435.15 162.9 436.05 162.0 437.15 161.45 438.75 162.15 M478.6 220.15 Q479.4 220.15 480.0 220.6 480.55 221.05 480.55 221.7 L478.85 231.4 480.85 232.45 481.45 235.25 485.05 239.4 481.55 243.45 478.15 247.4 474.8 239.25 474.4 237.3 472.2 242.05 Q470.75 242.05 469.75 241.4 468.75 240.7 468.75 239.75 L466.9 231.3 470.35 234.55 472.35 232.55 Q474.0 232.55 475.2 230.25 476.35 227.9 476.35 224.65 L478.6 220.15 M458.95 233.3 L457.65 231.75 457.5 231.45 Q457.5 230.9 458.2 230.55 458.9 230.15 459.9 230.15 L464.7 235.5 466.5 243.65 460.7 236.8 458.95 233.3 M454.1 237.85 L460.65 240.65 453.7 241.65 447.15 236.75 451.4 236.8 453.55 237.6 454.1 237.85 M444.15 240.55 L453.3 241.7 456.4 244.45 444.15 240.55 M496.95 231.75 L497.85 233.9 495.9 236.05 Q495.9 239.1 492.5 241.25 489.1 243.4 484.3 243.4 L487.7 236.9 496.95 231.75 M497.3 237.5 L497.6 237.35 498.2 237.3 Q500.3 237.25 499.85 239.5 L499.25 240.45 490.9 244.6 497.3 237.5 M376.65 207.55 L376.8 206.6 Q378.5 206.6 379.75 207.25 380.95 207.9 380.95 208.85 L381.2 211.05 379.9 217.0 377.15 213.7 376.65 207.55 M368.65 207.4 L374.25 215.8 367.95 207.2 368.65 207.4 M252.0 192.95 Q252.25 196.85 250.9 200.75 249.5 204.6 247.2 205.3 244.9 205.95 243.05 203.05 241.2 200.15 240.8 194.55 L240.8 192.0 241.8 188.35 242.1 188.1 243.9 188.7 245.5 194.8 248.55 191.2 248.8 191.0 249.65 190.35 251.55 190.55 252.0 192.95 M238.45 195.4 L241.25 201.1 235.75 197.1 235.0 191.1 238.45 195.4 M234.85 197.05 L234.4 200.25 230.35 197.6 Q230.25 196.5 230.65 195.3 231.0 194.1 231.65 193.5 232.3 192.9 233.05 193.2 233.75 193.45 234.25 194.5 234.75 195.5 234.85 197.05 M191.1 219.05 Q191.2 221.05 190.35 222.6 189.5 224.1 188.25 224.2 187.0 224.25 186.1 222.85 185.2 221.4 185.15 219.25 L190.55 211.65 193.85 210.9 191.1 219.05 M184.35 217.25 Q184.35 221.05 182.85 223.65 181.35 226.2 179.35 226.1 177.3 226.0 175.9 223.35 174.45 220.65 174.5 217.0 L175.4 213.1 175.8 211.85 Q175.8 210.2 176.7 209.05 177.55 207.9 178.75 207.9 178.75 209.0 179.7 209.8 180.6 210.6 181.9 210.6 L183.05 209.65 185.5 209.15 186.05 210.7 185.55 213.1 184.35 217.25 M173.95 217.55 L173.25 221.75 170.35 215.8 171.75 198.8 173.25 210.4 173.95 217.55 M169.75 217.2 L170.0 221.55 155.0 221.0 154.0 219.7 152.9 218.05 152.25 216.85 151.5 213.5 155.65 213.75 157.25 210.55 158.55 209.9 161.5 211.65 161.55 211.75 165.3 218.05 162.65 210.1 161.9 204.2 165.9 205.8 167.4 210.2 169.75 217.2 M153.9 222.6 L143.8 220.25 141.55 218.9 142.1 217.45 153.9 222.6 M143.15 224.6 L146.55 226.7 133.85 220.6 138.1 222.2 143.15 224.6 M95.4 235.1 Q95.4 236.35 97.1 237.25 98.75 238.1 101.15 238.1 L95.6 241.8 89.35 245.2 86.55 244.15 81.75 245.3 78.3 240.9 73.65 241.4 68.6 235.4 66.85 226.4 68.3 226.25 72.55 233.8 74.25 238.65 76.15 226.0 78.25 230.7 78.3 236.05 84.95 220.5 84.05 228.6 83.55 232.95 87.35 231.25 86.6 241.55 90.8 237.55 92.15 236.6 95.4 235.1 M101.65 239.55 L108.15 238.1 95.95 246.25 97.35 242.25 101.65 239.55 M66.1 236.7 L63.3 243.05 55.4 235.65 53.2 231.75 58.15 233.9 58.05 225.85 59.9 226.35 61.55 228.0 64.6 233.7 66.1 236.7 M344.2 304.75 L345.2 303.7 348.6 306.1 350.65 310.9 353.25 318.4 Q347.6 318.4 343.65 314.95 339.65 311.45 339.65 306.5 L342.95 306.1 Q343.45 306.1 343.85 305.7 344.2 305.3 344.2 304.75 M364.25 310.65 L362.5 318.15 360.55 311.45 363.55 299.05 364.45 309.6 364.25 310.65 M359.45 311.35 L356.5 319.9 356.15 309.5 357.75 307.9 359.45 311.35 M381.1 320.45 L377.15 318.7 386.5 315.2 381.55 320.4 381.1 320.45 M502.45 334.6 L505.0 333.85 507.4 335.8 508.95 338.4 510.0 341.35 511.6 350.0 505.65 350.6 498.85 341.2 498.75 339.8 502.45 334.6 M536.55 344.9 L528.35 351.2 526.6 346.2 524.7 348.9 515.5 345.45 519.5 336.75 519.95 337.85 520.0 341.1 535.1 325.35 533.1 330.7 531.75 333.85 533.55 335.65 533.25 336.9 532.2 340.2 531.15 343.6 539.8 339.05 536.55 344.9 M514.75 344.4 L514.2 348.75 511.5 341.2 509.6 325.4 511.85 327.45 514.15 338.45 514.3 340.45 514.75 344.4 M496.8 341.9 L499.85 346.25 493.25 343.2 488.5 339.15 Q488.5 338.65 488.75 338.3 489.0 337.9 489.35 337.9 L496.8 341.9 M494.15 345.65 L498.7 350.45 488.3 347.65 484.95 342.8 494.15 345.65 M332.45 310.3 L333.4 310.1 341.5 315.7 343.55 318.45 331.8 310.75 332.45 310.3 M541.1 343.7 L543.55 343.75 548.9 348.15 544.65 350.75 536.65 350.85 541.1 343.7 M132.05 118.45 L145.75 116.1 136.7 118.55 132.25 121.15 126.15 125.4 129.25 120.4 132.05 118.45 M128.6 120.0 L120.15 123.0 119.75 122.05 119.7 121.7 124.9 112.85 124.1 117.1 127.65 115.75 128.6 120.0 M116.4 124.1 L110.0 123.65 107.4 121.45 Q107.4 120.6 107.8 120.0 108.15 119.35 108.65 119.35 L109.0 119.5 109.4 119.2 Q110.7 117.65 108.45 116.6 L108.25 115.3 115.05 119.3 116.5 110.95 117.35 109.3 118.2 108.45 118.95 108.0 119.6 111.9 119.65 112.8 119.2 121.75 119.1 122.05 117.9 122.2 117.7 122.05 Q116.9 122.0 116.7 122.7 L116.4 124.1 M106.8 121.65 L109.6 127.45 92.35 119.35 98.1 117.25 106.8 121.65 M258.15 197.05 Q258.15 197.85 257.6 198.45 257.0 199.0 256.2 199.0 255.4 199.0 254.85 198.45 254.25 197.85 254.25 197.05 254.25 196.25 254.85 195.7 255.4 195.1 256.2 195.1 257.0 195.1 257.6 195.7 258.15 196.25 258.15 197.05 M35.7 337.7 L35.55 337.85 21.1 343.1 29.45 336.9 33.75 335.95 Q34.55 335.95 35.15 336.5 35.7 337.0 35.7 337.7 M38.3 340.85 L49.1 341.15 40.4 344.55 34.1 345.4 38.3 340.85 M36.85 382.8 L49.1 385.9 49.9 385.75 50.2 385.35 50.3 384.85 54.75 384.15 50.85 376.05 55.65 378.9 56.55 374.8 61.45 375.7 62.15 376.25 69.85 384.75 59.7 362.5 73.85 382.0 74.8 385.05 74.4 375.6 75.05 371.8 80.3 374.65 80.5 374.65 80.95 374.65 83.0 379.55 82.55 386.4 81.05 392.5 71.35 392.05 68.95 395.7 62.7 390.55 62.7 397.0 56.25 391.7 51.05 387.15 55.55 391.95 53.2 393.0 36.85 382.8 M98.65 378.85 L96.65 382.8 87.65 394.4 83.6 394.85 83.45 386.9 93.55 377.4 93.75 378.7 98.65 378.85 M105.45 393.0 L99.9 396.3 97.35 394.95 100.3 390.3 107.5 386.6 109.0 386.15 114.4 386.8 105.45 393.0 M99.05 389.6 L92.8 393.45 98.85 386.6 107.3 382.8 99.05 389.6 M192.45 221.4 L200.45 217.45 196.95 221.2 192.45 221.4" fill="#187317" fill-rule="evenodd" stroke="none"/>
  </g>
</svg>
