<?xml version="1.0" encoding="UTF-8" standalone="no"?>
<svg xmlns:ffdec="https://www.free-decompiler.com/flash" xmlns:xlink="http://www.w3.org/1999/xlink" ffdec:objectType="shape" height="400.0px" width="600.0px" xmlns="http://www.w3.org/2000/svg">
  <g transform="matrix(1.0, 0.0, 0.0, 1.0, 0.0, 0.0)">
    <path d="M600.0 128.45 Q575.75 128.2 551.75 122.35 546.1 121.05 541.5 117.85 L514.3 112.8 557.0 107.8 286.4 109.05 Q288.3 113.4 285.1 117.05 L283.4 118.55 281.35 119.45 Q251.0 120.85 222.2 114.85 L200.05 110.25 Q99.5 116.25 0.0 107.6 L0.0 0.0 600.0 0.0 600.0 107.65 597.5 107.95 600.0 108.3 600.0 128.45 M562.35 137.55 Q564.85 144.15 558.3 145.65 522.25 153.55 485.1 154.5 462.55 155.1 441.85 146.6 429.8 149.55 418.35 146.55 374.45 135.35 329.65 138.35 320.0 139.15 311.95 138.35 337.6 123.1 376.4 129.85 421.5 137.55 467.3 136.25 512.95 134.95 558.35 136.2 L562.35 137.55 M0.0 202.0 Q45.35 197.4 89.7 208.45 118.6 204.85 147.6 202.4 163.45 200.85 176.5 209.05 L172.65 209.9 171.75 210.5 Q86.15 224.05 0.0 219.1 L0.0 202.0 M214.0 235.65 Q240.95 232.8 268.85 235.55 L271.9 234.9 Q320.45 219.9 367.25 237.85 L415.0 241.2 422.75 245.1 462.6 249.35 442.6 250.2 Q354.85 249.1 267.8 250.6 212.55 251.55 157.15 248.6 162.4 246.15 168.0 244.65 190.65 238.05 214.0 235.65 M600.0 241.75 Q585.15 245.55 567.0 243.55 L470.0 233.65 466.9 233.3 Q456.2 231.75 455.3 226.55 L461.2 227.8 Q502.7 218.55 543.65 211.8 578.15 206.1 600.0 217.25 L600.0 241.75 M600.0 210.7 Q574.05 210.7 546.95 207.1 543.85 208.9 540.45 208.95 496.15 209.4 452.1 208.35 397.4 207.1 344.35 197.5 348.1 195.15 354.5 193.95 383.15 187.95 411.2 185.15 485.4 178.3 550.15 195.95 L595.9 195.45 550.3 188.15 550.65 183.85 Q562.2 179.65 575.85 179.75 588.35 180.5 600.0 184.5 L600.0 210.7 M347.5 209.25 Q347.1 218.6 338.35 217.9 324.45 217.35 310.65 213.9 L288.5 208.15 250.35 206.1 Q263.65 205.7 276.8 203.9 314.35 198.8 347.5 209.25 M350.45 328.9 Q312.45 330.15 273.95 335.25 L269.75 336.05 Q245.6 336.35 221.95 334.8 204.55 333.3 187.9 329.25 221.0 323.55 253.9 323.0 302.45 322.15 350.45 328.9 M283.3 293.4 Q313.85 288.6 344.9 289.85 L434.6 293.55 Q484.95 294.8 534.6 286.4 575.75 279.3 600.0 289.2 L600.0 308.2 Q563.1 304.45 525.3 307.55 476.65 312.1 427.8 306.45 L342.8 296.45 Q309.45 293.05 283.3 293.4 M250.85 280.7 L200.35 278.1 Q186.95 277.95 174.2 282.55 L121.65 288.2 Q75.4 281.25 27.05 280.6 13.35 280.45 0.0 282.15 L0.0 270.6 Q52.8 270.15 105.55 272.2 178.85 274.4 250.95 278.8 L257.4 278.25 Q254.1 279.45 250.85 280.7 M600.0 351.15 Q575.75 349.95 550.6 353.85 L541.45 355.25 493.25 346.4 Q517.9 341.55 543.4 334.85 577.9 325.55 600.0 332.8 L600.0 351.15 M253.05 378.25 L258.45 377.35 Q283.25 371.05 308.75 371.25 384.5 371.75 459.2 377.5 512.6 381.9 563.05 389.15 L558.25 393.75 499.1 394.5 Q449.0 392.7 399.05 387.6 348.95 382.25 298.7 380.85 273.3 380.15 247.95 380.75 L253.05 378.25 M17.05 125.15 Q44.5 109.65 80.2 119.35 102.5 117.15 125.95 119.75 177.7 125.5 224.25 127.25 154.25 141.2 86.7 130.1 50.55 133.35 17.05 125.15 M31.95 190.85 Q49.95 187.0 68.4 185.95 L168.3 182.05 Q129.9 198.4 83.1 191.55 57.8 188.0 31.95 190.85 M159.75 251.15 L160.7 254.55 90.55 259.15 Q119.9 246.8 159.75 251.15 M0.0 374.3 L0.0 355.15 Q29.95 349.95 60.15 348.85 110.4 346.15 161.35 353.6 L256.85 368.15 Q205.5 372.25 155.05 369.9 L56.0 364.65 Q24.35 362.35 0.0 374.3 M192.3 382.4 L200.55 381.5 220.4 380.55 223.1 380.55 Q211.65 385.1 199.05 382.9 L192.3 382.4 M187.05 208.45 L200.85 206.75 Q226.3 203.5 251.55 209.05 242.8 211.6 233.65 211.95 L187.05 208.45" fill="#ffffff" fill-rule="evenodd" stroke="none"/>
    <path d="M0.0 244.95 Q42.05 236.75 85.8 235.8 130.25 234.85 174.95 235.35 L214.0 235.65 Q190.65 238.05 168.0 244.65 162.4 246.15 157.15 248.6 212.55 251.55 267.8 250.6 354.85 249.1 442.6 250.2 L462.6 249.35 422.75 245.1 415.0 241.2 Q507.85 243.25 600.0 249.45 L600.0 289.2 Q575.75 279.3 534.6 286.4 484.95 294.8 434.6 293.55 L344.9 289.85 Q313.85 288.6 283.3 293.4 278.1 281.1 260.35 280.9 L250.85 280.7 Q254.1 279.45 257.4 278.25 L250.95 278.8 Q178.85 274.4 105.55 272.2 52.8 270.15 0.0 270.6 L0.0 244.95 M269.75 336.05 L233.95 337.45 Q280.95 350.2 330.8 347.5 384.6 344.85 438.95 348.8 446.95 349.0 447.25 341.05 401.2 325.45 350.45 328.9 302.45 322.15 253.9 323.0 221.0 323.55 187.9 329.25 204.55 333.3 221.95 334.8 245.6 336.35 269.75 336.05 M200.35 278.1 L174.2 282.55 Q186.95 277.95 200.35 278.1 M0.0 303.0 Q36.35 313.2 82.5 305.8 146.75 295.65 212.3 297.9 225.4 298.9 238.35 296.95 L205.0 309.9 207.55 312.25 Q353.4 313.05 499.4 325.95 549.55 330.5 600.0 329.2 L600.0 332.8 Q577.9 325.55 543.4 334.85 517.9 341.55 493.25 346.4 L541.45 355.25 508.8 357.25 Q551.4 373.2 600.0 372.8 L600.0 400.0 498.75 400.0 Q503.6 398.05 499.1 394.5 L558.25 393.75 563.05 389.15 Q512.6 381.9 459.2 377.5 384.5 371.75 308.75 371.25 283.25 371.05 258.45 377.35 L253.05 378.25 Q257.55 375.55 260.9 371.75 260.3 368.2 256.85 368.15 L161.35 353.6 Q110.4 346.15 60.15 348.85 29.95 349.95 0.0 355.15 L0.0 303.0 M159.75 251.15 Q119.9 246.8 90.55 259.15 L160.7 254.55 159.75 251.15 M0.0 395.75 Q5.7 398.55 11.75 400.0 L0.0 400.0 0.0 395.75 M40.65 400.0 Q49.8 398.0 59.55 393.55 60.15 393.25 60.55 392.6 87.05 395.35 111.85 381.45 152.3 381.75 192.3 382.4 L199.05 382.9 Q183.65 383.6 170.55 391.7 L166.8 394.05 Q177.45 397.4 188.7 400.0 L40.65 400.0 M200.55 381.5 L220.4 380.55 200.55 381.5" fill="#e2e0e7" fill-rule="evenodd" stroke="none"/>
    <path d="M562.35 137.55 L558.35 136.2 Q512.95 134.95 467.3 136.25 421.5 137.55 376.4 129.85 337.6 123.1 311.95 138.35 320.0 139.15 329.65 138.35 374.45 135.35 418.35 146.55 429.8 149.55 441.85 146.6 462.55 155.1 485.1 154.5 522.25 153.55 558.3 145.65 564.85 144.15 562.35 137.55 M0.0 107.6 Q99.5 116.25 200.05 110.25 L222.2 114.85 Q251.0 120.85 281.35 119.45 L283.4 118.55 285.1 117.05 Q288.3 113.4 286.4 109.05 L557.0 107.8 514.3 112.8 541.5 117.85 Q546.1 121.05 551.75 122.35 575.75 128.2 600.0 128.45 L600.0 184.5 Q588.35 180.5 575.85 179.75 562.2 179.65 550.65 183.85 L550.3 188.15 595.9 195.45 550.15 195.95 Q485.4 178.3 411.2 185.15 383.15 187.95 354.5 193.95 348.1 195.15 344.35 197.5 397.4 207.1 452.1 208.35 496.15 209.4 540.45 208.95 543.85 208.9 546.95 207.1 574.05 210.7 600.0 210.7 L600.0 217.25 Q578.15 206.1 543.65 211.8 502.7 218.55 461.2 227.8 L455.3 226.55 Q456.2 231.75 466.9 233.3 L470.0 233.65 567.0 243.55 Q585.15 245.55 600.0 241.75 L600.0 249.45 Q507.85 243.25 415.0 241.2 L367.25 237.85 Q320.45 219.9 271.9 234.9 L268.85 235.55 Q240.95 232.8 214.0 235.65 L174.95 235.35 Q130.25 234.85 85.8 235.8 42.05 236.75 0.0 244.95 L0.0 219.1 Q86.15 224.05 171.75 210.5 L172.65 209.9 176.5 209.05 Q163.45 200.85 147.6 202.4 118.6 204.85 89.7 208.45 45.35 197.4 0.0 202.0 L0.0 107.6 M600.0 108.3 L597.5 107.95 600.0 107.65 600.0 108.3 M347.5 209.25 Q314.35 198.8 276.8 203.9 263.65 205.7 250.35 206.1 L288.5 208.15 310.65 213.9 Q324.45 217.35 338.35 217.9 347.1 218.6 347.5 209.25 M350.45 328.9 Q401.2 325.45 447.25 341.05 446.95 349.0 438.95 348.8 384.6 344.85 330.8 347.5 280.95 350.2 233.95 337.45 L269.75 336.05 273.95 335.25 Q312.45 330.15 350.45 328.9 M283.3 293.4 Q309.45 293.05 342.8 296.45 L427.8 306.45 Q476.65 312.1 525.3 307.55 563.1 304.45 600.0 308.2 L600.0 329.2 Q549.55 330.5 499.4 325.95 353.4 313.05 207.55 312.25 L205.0 309.9 238.35 296.95 Q225.4 298.9 212.3 297.9 146.75 295.65 82.5 305.8 36.35 313.2 0.0 303.0 L0.0 282.15 Q13.35 280.45 27.05 280.6 75.4 281.25 121.65 288.2 L174.2 282.55 200.35 278.1 250.85 280.7 260.35 280.9 Q278.1 281.1 283.3 293.4 M541.45 355.25 L550.6 353.85 Q575.75 349.95 600.0 351.15 L600.0 372.8 Q551.4 373.2 508.8 357.25 L541.45 355.25 M253.05 378.25 L247.95 380.75 Q273.3 380.15 298.7 380.85 348.95 382.25 399.05 387.6 449.0 392.7 499.1 394.5 503.6 398.05 498.75 400.0 L188.7 400.0 Q177.45 397.4 166.8 394.05 L170.55 391.7 Q183.65 383.6 199.05 382.9 211.65 385.1 223.1 380.55 L220.4 380.55 200.55 381.5 192.3 382.4 Q152.3 381.75 111.85 381.45 87.05 395.35 60.55 392.6 60.15 393.25 59.55 393.55 49.8 398.0 40.65 400.0 L11.75 400.0 Q5.7 398.55 0.0 395.75 L0.0 374.3 Q24.35 362.35 56.0 364.65 L155.05 369.9 Q205.5 372.25 256.85 368.15 260.3 368.2 260.9 371.75 257.55 375.55 253.05 378.25 M31.95 190.85 Q57.8 188.0 83.1 191.55 129.9 198.4 168.3 182.05 L68.4 185.95 Q49.95 187.0 31.95 190.85 M17.05 125.15 Q50.55 133.35 86.7 130.1 154.25 141.2 224.25 127.25 177.7 125.5 125.95 119.75 102.5 117.15 80.2 119.35 44.5 109.65 17.05 125.15 M187.05 208.45 L233.65 211.95 Q242.8 211.6 251.55 209.05 226.3 203.5 200.85 206.75 L187.05 208.45" fill="#eeedf1" fill-rule="evenodd" stroke="none"/>
  </g>
</svg>
