<?xml version="1.0" encoding="UTF-8" standalone="no"?>
<svg xmlns:ffdec="https://www.free-decompiler.com/flash" xmlns:xlink="http://www.w3.org/1999/xlink" ffdec:objectType="shape" height="400.0px" width="600.0px" xmlns="http://www.w3.org/2000/svg">
  <g transform="matrix(1.0, 0.0, 0.0, 1.0, 0.0, 0.0)">
    <path d="M600.0 217.25 L599.95 217.25 600.0 217.25 M600.0 107.65 L600.0 108.3 597.5 107.95 600.0 107.65" fill="#eeedf1" fill-rule="evenodd" stroke="none"/>
    <path d="M600.0 330.05 L600.0 332.8 595.45 331.5 600.0 330.05" fill="#e2e0e7" fill-rule="evenodd" stroke="none"/>
    <path d="M485.3 236.0 Q469.8 236.8 457.05 229.45 L456.35 228.75 532.3 216.3 533.75 214.2 571.45 210.05 Q535.15 199.2 497.2 197.15 490.65 196.65 484.55 194.7 L479.6 193.25 Q481.4 196.5 484.15 199.15 491.25 205.95 500.45 209.05 L442.15 208.05 456.7 193.2 Q437.65 205.15 415.05 206.55 L445.1 189.4 379.6 202.95 389.9 195.15 385.2 196.05 383.55 194.9 344.35 197.5 Q446.2 159.1 550.45 186.7 L550.65 183.85 600.0 171.95 600.0 184.45 599.95 184.5 600.0 184.5 600.0 217.25 600.0 241.75 584.1 244.1 591.8 237.75 592.55 235.1 557.25 242.6 556.1 242.45 590.4 216.5 Q578.8 222.3 566.9 227.15 547.6 234.9 527.5 239.55 L517.3 238.5 523.85 238.5 Q531.2 238.0 538.25 236.1 544.9 234.35 550.35 230.95 L542.95 229.65 565.3 221.45 556.05 224.2 Q521.5 234.6 485.3 236.0 M542.15 75.4 Q546.25 70.4 552.1 66.9 535.95 71.2 524.3 82.95 535.2 83.75 542.15 75.4 M500.45 75.15 L487.3 79.95 Q522.75 81.8 551.3 58.15 L561.8 49.25 530.55 59.55 540.9 58.15 524.8 64.5 530.0 58.7 Q468.4 67.2 406.4 76.6 L463.75 78.9 444.6 85.45 500.45 75.15 M584.75 70.65 Q584.75 69.1 584.25 68.0 583.7 66.9 583.0 66.9 582.3 66.9 581.8 68.0 581.25 69.1 581.25 70.65 581.25 72.2 581.8 73.3 582.3 74.4 583.0 74.4 583.7 74.4 584.25 73.3 584.75 72.2 584.75 70.65 M600.0 217.25 L599.95 217.25 600.0 217.25 M600.0 137.65 L551.0 159.8 580.3 138.35 Q556.4 145.55 531.85 149.2 449.5 161.15 370.45 135.2 L392.6 144.35 Q338.65 135.4 284.35 142.25 L304.0 139.05 313.9 137.65 333.6 135.35 Q378.3 130.95 423.15 134.0 497.55 139.9 570.75 126.1 522.45 119.75 473.7 123.15 L522.7 107.95 Q446.1 107.4 371.65 89.3 L415.75 108.45 385.65 104.0 391.15 107.75 332.0 108.85 348.65 97.9 346.1 95.15 322.8 100.9 353.75 84.75 345.25 87.5 Q302.75 100.7 258.85 107.95 165.5 123.15 71.7 112.0 147.3 126.0 224.25 127.25 L175.6 133.95 258.25 145.05 Q223.1 146.6 188.4 140.45 L187.35 143.9 Q139.4 142.35 92.8 131.05 L159.55 154.5 Q107.7 148.65 58.05 133.35 56.6 134.35 55.25 135.4 30.55 153.6 0.0 156.25 L0.0 145.15 36.1 128.85 0.0 139.55 0.0 134.2 42.3 110.6 0.0 107.6 0.0 0.0 600.0 0.0 600.0 107.65 597.5 107.95 600.0 108.3 600.0 137.65 M0.0 202.0 Q22.45 199.45 42.9 189.95 L31.95 190.85 59.9 183.85 63.1 186.3 168.3 182.05 Q123.05 200.1 75.1 190.6 125.3 202.9 176.5 209.05 L162.95 212.75 168.2 217.45 164.3 219.25 162.35 217.1 Q116.85 218.8 76.1 201.95 L76.95 204.15 Q81.3 214.65 91.9 219.15 L80.75 219.7 79.4 217.4 68.2 211.7 67.1 206.55 67.1 213.25 72.1 220.0 50.45 220.4 51.3 215.95 45.2 214.45 47.9 206.4 31.7 211.35 45.25 201.3 49.05 201.65 46.65 200.15 52.1 194.95 49.2 197.0 Q26.7 212.4 0.0 218.05 L0.0 202.0 M276.05 230.55 Q278.25 229.9 280.55 229.85 347.8 224.35 415.0 241.2 L472.5 251.9 Q450.95 255.15 429.4 252.05 L415.05 249.95 464.55 263.85 357.45 254.9 364.15 259.05 367.75 269.35 363.6 270.0 Q355.65 260.75 344.85 255.25 331.55 248.55 316.8 249.95 L315.25 243.75 312.15 246.6 311.65 250.0 305.65 250.1 312.8 242.6 Q287.75 254.0 260.35 257.15 L242.2 258.25 262.85 250.7 Q237.5 254.2 212.05 254.7 L202.95 254.15 212.15 252.4 207.4 252.55 203.15 252.1 Q200.55 251.65 198.1 250.8 194.6 249.5 192.0 246.7 L280.4 230.7 276.05 230.55 M431.2 183.65 Q432.05 183.75 431.5 183.55 L431.2 183.65 M580.95 284.35 Q523.35 309.3 460.55 308.75 356.55 307.85 256.75 278.3 L243.35 270.0 Q346.7 300.2 454.65 294.4 517.95 290.6 580.95 284.35 M225.4 265.3 L223.15 266.45 Q220.9 266.45 219.35 267.45 217.75 268.4 217.75 269.8 L214.3 271.4 205.55 274.4 Q174.8 284.05 142.55 284.45 105.2 284.95 70.9 270.45 64.2 267.55 57.75 264.25 111.45 276.45 166.45 273.25 196.25 271.55 225.4 265.3 M133.95 96.0 L136.65 95.1 Q158.1 88.2 165.35 67.2 L155.15 71.45 163.9 65.95 Q104.4 88.95 41.75 77.5 83.7 105.25 131.55 90.05 L133.95 96.0 M279.25 82.15 L276.85 79.05 176.35 63.7 Q194.3 71.5 213.05 76.65 260.3 89.5 309.5 85.9 L279.25 82.15 M147.5 251.95 L159.85 253.9 90.55 259.15 Q118.05 247.25 147.5 251.95 M244.45 207.8 L251.55 209.05 Q219.5 212.85 187.05 208.45 215.7 203.4 244.45 207.8 M250.35 206.1 L271.8 203.9 Q310.1 200.5 347.5 209.7 L319.75 208.1 345.1 216.05 250.35 206.1" fill="#e9dcc0" fill-rule="evenodd" stroke="none"/>
    <path d="M584.75 70.65 Q584.75 72.2 584.25 73.3 583.7 74.4 583.0 74.4 582.3 74.4 581.8 73.3 581.25 72.2 581.25 70.65 581.25 69.1 581.8 68.0 582.3 66.9 583.0 66.9 583.7 66.9 584.25 68.0 584.75 69.1 584.75 70.65 M500.45 75.15 L444.6 85.45 463.75 78.9 406.4 76.6 Q468.4 67.2 530.0 58.7 L524.8 64.5 540.9 58.15 530.55 59.55 561.8 49.25 551.3 58.15 Q522.75 81.8 487.3 79.95 L500.45 75.15 M542.15 75.4 Q535.2 83.75 524.3 82.95 535.95 71.2 552.1 66.9 546.25 70.4 542.15 75.4 M600.0 171.95 L550.65 183.85 550.45 186.7 Q446.2 159.1 344.35 197.5 L383.55 194.9 385.2 196.05 389.9 195.15 379.6 202.95 445.1 189.4 415.05 206.55 Q437.65 205.15 456.7 193.2 L442.15 208.05 500.45 209.05 Q491.25 205.95 484.15 199.15 481.4 196.5 479.6 193.25 L484.55 194.7 Q490.65 196.65 497.2 197.15 535.15 199.2 571.45 210.05 L533.75 214.2 532.3 216.3 456.35 228.75 457.05 229.45 Q469.8 236.8 485.3 236.0 L463.45 237.85 461.8 241.85 415.0 241.2 Q347.8 224.35 280.55 229.85 278.25 229.9 276.05 230.55 206.5 245.0 141.65 225.6 152.0 227.7 162.7 224.65 L164.3 219.25 168.2 217.45 162.95 212.75 176.5 209.05 Q125.3 202.9 75.1 190.6 123.05 200.1 168.3 182.05 L63.1 186.3 59.9 183.85 31.95 190.85 42.9 189.95 Q22.45 199.45 0.0 202.0 L0.0 156.25 Q30.55 153.6 55.25 135.4 56.6 134.35 58.05 133.35 107.7 148.65 159.55 154.5 L92.8 131.05 Q139.4 142.35 187.35 143.9 L188.4 140.45 Q223.1 146.6 258.25 145.05 L175.6 133.95 224.25 127.25 Q147.3 126.0 71.7 112.0 165.5 123.15 258.85 107.95 302.75 100.7 345.25 87.5 L353.75 84.75 322.8 100.9 346.1 95.15 348.65 97.9 332.0 108.85 391.15 107.75 385.65 104.0 415.75 108.45 371.65 89.3 Q446.1 107.4 522.7 107.95 L473.7 123.15 Q522.45 119.75 570.75 126.1 497.55 139.9 423.15 134.0 378.3 130.95 333.6 135.35 L313.9 137.65 304.0 139.05 284.35 142.25 Q338.65 135.4 392.6 144.35 L370.45 135.2 Q449.5 161.15 531.85 149.2 556.4 145.55 580.3 138.35 L551.0 159.8 600.0 137.65 600.0 171.95 M517.3 238.5 L527.5 239.55 Q512.15 247.85 494.65 244.25 L491.3 243.6 517.3 238.5 M556.1 242.45 L557.25 242.6 556.3 242.75 556.1 242.45 M584.1 244.1 L600.0 241.75 600.0 249.45 579.0 248.1 584.1 244.1 M600.0 184.5 L599.95 184.5 600.0 184.45 600.0 184.5 M0.0 107.6 L42.3 110.6 0.0 134.2 0.0 107.6 M0.0 139.55 L36.1 128.85 0.0 145.15 0.0 139.55 M431.2 183.65 L431.5 183.55 Q432.05 183.75 431.2 183.65 M265.3 336.2 Q231.3 336.95 197.85 330.95 L187.9 329.25 Q264.4 317.7 341.15 327.65 L350.45 328.9 265.3 336.2 M407.4 372.8 L563.05 389.15 558.25 393.75 499.1 394.5 Q404.45 387.2 309.95 378.35 293.05 376.8 276.35 373.7 335.3 369.6 394.25 372.15 L407.4 372.8 M600.0 351.15 L493.25 346.4 562.45 330.85 Q576.9 334.95 591.85 332.3 L595.45 331.5 600.0 332.8 600.0 351.15 M0.0 355.15 L11.6 353.4 Q56.1 347.15 100.8 348.35 L0.0 374.3 0.0 355.15 M170.85 355.05 L256.85 368.15 Q215.15 370.5 175.65 356.8 L170.85 355.05 M279.25 82.15 L309.5 85.9 Q260.3 89.5 213.05 76.65 194.3 71.5 176.35 63.7 L276.85 79.05 279.25 82.15 M133.95 96.0 L131.55 90.05 Q83.7 105.25 41.75 77.5 104.4 88.95 163.9 65.95 L155.15 71.45 165.35 67.2 Q158.1 88.2 136.65 95.1 L133.95 96.0 M0.0 225.15 Q11.1 228.9 20.25 221.45 L21.85 220.05 24.35 220.15 Q14.8 231.3 0.0 232.2 L0.0 225.15 M131.0 222.05 L132.05 222.55 128.95 221.45 Q130.05 221.6 131.0 222.05 M91.9 219.15 L118.4 235.3 69.5 235.8 68.7 232.15 64.45 229.8 42.25 238.6 54.3 231.35 49.45 226.2 50.45 220.4 72.1 220.0 80.0 224.7 80.75 219.7 91.9 219.15 M45.25 201.3 L46.65 200.15 49.05 201.65 45.25 201.3 M250.35 206.1 L345.1 216.05 319.75 208.1 347.5 209.7 Q310.1 200.5 271.8 203.9 L250.35 206.1 M244.45 207.8 Q215.7 203.4 187.05 208.45 219.5 212.85 251.55 209.05 L244.45 207.8" fill="#d9c493" fill-rule="evenodd" stroke="none"/>
    <path d="M485.3 236.0 Q521.5 234.6 556.05 224.2 L565.3 221.45 542.95 229.65 550.35 230.95 Q544.9 234.35 538.25 236.1 531.2 238.0 523.85 238.5 L517.3 238.5 491.3 243.6 494.65 244.25 Q512.15 247.85 527.5 239.55 547.6 234.9 566.9 227.15 578.8 222.3 590.4 216.5 L556.1 242.45 556.3 242.75 557.25 242.6 592.55 235.1 591.8 237.75 584.1 244.1 579.0 248.1 600.0 249.45 600.0 284.6 593.4 279.95 580.95 284.35 Q517.95 290.6 454.65 294.4 346.7 300.2 243.35 270.0 L256.75 278.3 225.4 265.3 Q196.25 271.55 166.45 273.25 111.45 276.45 57.75 264.25 64.2 267.55 70.9 270.45 105.2 284.95 142.55 284.45 174.8 284.05 205.55 274.4 L175.45 284.75 175.0 289.45 0.0 288.65 0.0 232.2 Q14.8 231.3 24.35 220.15 L21.85 220.05 20.25 221.45 Q11.1 228.9 0.0 225.15 L0.0 218.05 Q26.7 212.4 49.2 197.0 L52.1 194.95 46.65 200.15 45.25 201.3 31.7 211.35 47.9 206.4 45.2 214.45 51.3 215.95 50.45 220.4 49.45 226.2 54.3 231.35 42.25 238.6 64.45 229.8 68.7 232.15 69.5 235.8 118.4 235.3 91.9 219.15 Q81.3 214.65 76.95 204.15 L76.1 201.95 Q116.85 218.8 162.35 217.1 L164.3 219.25 162.7 224.65 Q152.0 227.7 141.65 225.6 206.5 245.0 276.05 230.55 L280.4 230.7 192.0 246.7 Q194.6 249.5 198.1 250.8 200.55 251.65 203.15 252.1 L207.4 252.55 212.15 252.4 202.95 254.15 212.05 254.7 Q237.5 254.2 262.85 250.7 L242.2 258.25 260.35 257.15 Q287.75 254.0 312.8 242.6 L305.65 250.1 311.65 250.0 312.15 246.6 315.25 243.75 316.8 249.95 Q331.55 248.55 344.85 255.25 355.65 260.75 363.6 270.0 L367.75 269.35 364.15 259.05 357.45 254.9 464.55 263.85 415.05 249.95 429.4 252.05 Q450.95 255.15 472.5 251.9 L415.0 241.2 461.8 241.85 463.45 237.85 485.3 236.0 M350.45 328.9 L341.15 327.65 Q264.4 317.7 187.9 329.25 L197.85 330.95 Q231.3 336.95 265.3 336.2 L233.95 337.45 244.85 340.65 Q298.6 355.55 349.65 334.65 L354.55 335.75 351.45 336.4 348.55 339.05 348.25 340.5 Q355.7 337.2 363.8 334.2 L343.6 366.0 394.25 372.15 Q335.3 369.6 276.35 373.7 L263.0 371.95 Q295.65 369.7 323.05 353.35 326.35 351.4 329.8 349.55 294.7 364.75 256.85 368.15 L170.85 355.05 Q139.05 339.2 104.75 347.45 L100.8 348.35 Q56.1 347.15 11.6 353.4 L0.0 355.15 0.0 303.0 Q26.2 307.95 52.6 305.75 139.35 299.55 226.05 301.75 L205.0 309.9 207.55 312.25 225.6 313.35 Q324.55 318.9 423.55 316.3 500.75 313.2 576.8 300.0 L542.35 318.8 549.25 318.75 524.05 327.85 562.45 330.85 493.25 346.4 600.0 351.15 600.0 400.0 498.75 400.0 500.7 395.95 499.1 394.5 558.25 393.75 563.05 389.15 407.4 372.8 441.7 372.65 Q423.5 367.5 407.75 357.05 400.0 351.9 393.2 345.55 429.5 360.4 468.4 364.0 L417.4 347.5 445.6 345.95 447.3 342.05 372.65 320.3 350.45 328.9 M349.4 395.9 Q241.6 401.65 141.5 364.9 L140.4 363.15 133.3 360.05 384.3 393.6 349.4 395.9 M223.15 266.45 L217.75 269.8 Q217.75 268.4 219.35 267.45 220.9 266.45 223.15 266.45 M131.0 222.05 Q130.05 221.6 128.95 221.45 L132.05 222.55 131.0 222.05 M147.5 251.95 Q118.05 247.25 90.55 259.15 L159.85 253.9 147.5 251.95 M72.1 220.0 L67.1 213.25 67.1 206.55 68.2 211.7 79.4 217.4 80.75 219.7 80.0 224.7 72.1 220.0 M303.25 307.95 Q251.9 313.05 231.05 271.0 L245.05 281.65 Q274.25 287.4 306.1 302.95 L303.25 307.95" fill="#cdb174" fill-rule="evenodd" stroke="none"/>
    <path d="M373.45 340.75 Q372.7 340.75 372.15 341.3 371.6 341.85 371.6 342.6 371.6 343.35 372.15 343.9 372.7 344.45 373.45 344.45 374.2 344.45 374.75 343.9 375.3 343.35 375.3 342.6 375.3 341.85 374.75 341.3 374.2 340.75 373.45 340.75 M350.45 328.9 L372.65 320.3 447.3 342.05 445.6 345.95 417.4 347.5 468.4 364.0 Q429.5 360.4 393.2 345.55 400.0 351.9 407.75 357.05 423.5 367.5 441.7 372.65 L407.4 372.8 394.25 372.15 343.6 366.0 363.8 334.2 Q355.7 337.2 348.25 340.5 L348.55 339.05 351.45 336.4 354.55 335.75 349.65 334.65 Q298.6 355.55 244.85 340.65 L233.95 337.45 265.3 336.2 350.45 328.9 M499.1 394.5 L500.7 395.95 498.75 400.0 0.0 400.0 0.0 374.3 100.8 348.35 104.75 347.45 Q139.05 339.2 170.85 355.05 L175.65 356.8 Q215.15 370.5 256.85 368.15 294.7 364.75 329.8 349.55 326.35 351.4 323.05 353.35 295.65 369.7 263.0 371.95 L276.35 373.7 Q293.05 376.8 309.95 378.35 404.45 387.2 499.1 394.5 M562.45 330.85 L524.05 327.85 549.25 318.75 542.35 318.8 576.8 300.0 Q500.75 313.2 423.55 316.3 324.55 318.9 225.6 313.35 L207.55 312.25 205.0 309.9 226.05 301.75 Q139.35 299.55 52.6 305.75 26.2 307.95 0.0 303.0 L0.0 288.65 175.0 289.45 175.45 284.75 205.55 274.4 214.3 271.4 217.75 269.8 223.15 266.45 225.4 265.3 256.75 278.3 Q356.55 307.85 460.55 308.75 523.35 309.3 580.95 284.35 L593.4 279.95 600.0 284.6 600.0 321.95 Q596.25 322.5 598.95 322.75 L600.0 322.7 600.0 330.05 595.45 331.5 591.85 332.3 Q576.9 334.95 562.45 330.85 M381.1 360.9 Q381.1 360.15 380.6 359.65 380.05 359.1 379.3 359.1 378.55 359.1 378.05 359.65 377.5 360.15 377.5 360.9 377.5 361.65 378.05 362.2 378.55 362.7 379.3 362.7 380.05 362.7 380.6 362.2 381.1 361.65 381.1 360.9 M366.4 350.1 Q366.05 349.7 365.55 349.7 365.05 349.7 364.7 350.1 364.35 350.45 364.35 350.95 364.35 351.45 364.7 351.85 365.05 352.2 365.55 352.2 366.05 352.2 366.4 351.85 L366.75 350.95 Q366.75 350.45 366.4 350.1 M403.7 360.5 Q402.7 361.45 402.7 362.85 402.7 364.25 403.7 365.25 404.7 366.2 406.1 366.2 407.5 366.2 408.5 365.25 409.5 364.25 409.5 362.85 409.5 361.45 408.5 360.5 407.5 359.5 406.1 359.5 404.7 359.5 403.7 360.5 M394.4 359.6 Q393.5 359.6 392.9 360.25 392.25 360.9 392.25 361.8 392.25 362.7 392.9 363.35 393.5 364.0 394.4 364.0 395.3 364.0 395.95 363.35 396.55 362.7 396.55 361.8 396.55 360.9 395.95 360.25 395.3 359.6 394.4 359.6 M359.4 355.8 Q358.3 355.8 357.55 356.6 356.75 357.4 356.75 358.5 356.75 359.6 357.55 360.4 358.3 361.2 359.4 361.2 360.5 361.2 361.3 360.4 362.05 359.6 362.05 358.5 362.05 357.4 361.3 356.6 360.5 355.8 359.4 355.8 M349.4 395.9 L384.3 393.6 133.3 360.05 140.4 363.15 141.5 364.9 Q241.6 401.65 349.4 395.9 M593.5 295.6 Q594.15 296.25 595.1 296.25 596.05 296.25 596.7 295.6 597.35 294.95 597.35 294.05 597.35 293.15 596.7 292.5 596.05 291.85 595.1 291.85 594.15 291.85 593.5 292.5 592.85 293.15 592.85 294.05 592.85 294.95 593.5 295.6 M587.1 323.1 Q586.35 323.1 585.85 323.65 585.3 324.2 585.3 324.95 585.3 325.7 585.85 326.25 586.35 326.8 587.1 326.8 587.85 326.8 588.4 326.25 588.9 325.7 588.9 324.95 588.9 324.2 588.4 323.65 587.85 323.1 587.1 323.1 M571.5 318.85 Q570.8 319.55 570.8 320.55 570.8 321.55 571.5 322.25 572.2 322.95 573.15 322.95 574.1 322.95 574.8 322.25 575.5 321.55 575.5 320.55 575.5 319.55 574.8 318.85 574.1 318.15 573.15 318.15 572.2 318.15 571.5 318.85 M594.1 315.5 Q593.75 315.2 593.25 315.2 592.75 315.2 592.4 315.5 592.05 315.75 592.05 316.1 592.05 316.45 592.4 316.75 L593.25 317.0 594.1 316.75 594.45 316.1 Q594.45 315.75 594.1 315.5 M588.4 306.45 Q588.4 305.1 587.45 304.15 586.45 303.15 585.05 303.15 583.65 303.15 582.7 304.15 581.7 305.1 581.7 306.45 581.7 307.8 582.7 308.8 583.65 309.75 585.05 309.75 586.45 309.75 587.45 308.8 588.4 307.8 588.4 306.45 M555.8 322.6 Q554.8 323.55 554.8 324.9 554.8 326.25 555.8 327.25 556.75 328.2 558.1 328.2 559.45 328.2 560.45 327.25 561.4 326.25 561.4 324.9 561.4 323.55 560.45 322.6 559.45 321.6 558.1 321.6 556.75 321.6 555.8 322.6 M25.15 375.5 Q24.1 375.5 23.4 376.25 22.65 376.95 22.65 377.95 22.65 378.95 23.4 379.7 24.1 380.4 25.15 380.4 26.2 380.4 26.95 379.7 27.65 378.95 27.65 377.95 27.65 376.95 26.95 376.25 26.2 375.5 25.15 375.5 M19.9 389.95 Q19.35 390.45 19.35 391.15 19.35 391.85 19.9 392.4 20.4 392.9 21.1 392.9 21.8 392.9 22.35 392.4 22.85 391.85 22.85 391.15 22.85 390.45 22.35 389.95 21.8 389.4 21.1 389.4 20.4 389.4 19.9 389.95 M38.85 368.65 Q37.9 368.65 37.25 369.3 36.6 369.95 36.6 370.85 36.6 371.75 37.25 372.4 37.9 373.05 38.85 373.05 39.8 373.05 40.45 372.4 41.1 371.75 41.1 370.85 41.1 369.95 40.45 369.3 39.8 368.65 38.85 368.65 M152.6 378.8 Q152.6 378.1 152.1 377.6 151.6 377.1 150.9 377.1 150.2 377.1 149.7 377.6 149.2 378.1 149.2 378.8 149.2 379.5 149.7 380.0 150.2 380.5 150.9 380.5 151.6 380.5 152.1 380.0 152.6 379.5 152.6 378.8 M133.95 390.85 Q133.1 391.65 133.1 392.8 133.1 393.95 133.95 394.8 134.75 395.6 135.9 395.6 137.05 395.6 137.9 394.8 138.7 393.95 138.7 392.8 138.7 391.65 137.9 390.85 137.05 390.0 135.9 390.0 134.75 390.0 133.95 390.85 M138.2 368.75 Q137.7 369.25 137.7 369.95 137.7 370.65 138.2 371.2 138.7 371.7 139.4 371.7 140.1 371.7 140.6 371.2 141.1 370.65 141.1 369.95 141.1 369.25 140.6 368.75 140.1 368.2 139.4 368.2 138.7 368.2 138.2 368.75 M119.3 375.95 Q118.35 375.0 117.0 375.0 115.65 375.0 114.7 375.95 113.75 376.9 113.75 378.25 113.75 379.6 114.7 380.55 115.65 381.5 117.0 381.5 118.35 381.5 119.3 380.55 120.25 379.6 120.25 378.25 120.25 376.9 119.3 375.95 M95.4 380.6 Q95.0 380.25 94.5 380.25 94.0 380.25 93.65 380.6 93.25 380.95 93.25 381.45 93.25 381.95 93.65 382.3 94.0 382.65 94.5 382.65 95.0 382.65 95.4 382.3 L95.75 381.45 Q95.75 380.95 95.4 380.6 M106.2 364.25 Q106.2 363.4 105.65 362.85 105.05 362.25 104.2 362.25 103.35 362.25 102.8 362.85 102.2 363.4 102.2 364.25 102.2 365.1 102.8 365.7 103.35 366.25 104.2 366.25 105.05 366.25 105.65 365.7 106.2 365.1 106.2 364.25 M112.15 357.6 Q112.15 356.85 111.6 356.3 111.05 355.75 110.3 355.75 109.55 355.75 109.0 356.3 108.45 356.85 108.45 357.6 108.45 358.35 109.0 358.9 109.55 359.45 110.3 359.45 111.05 359.45 111.6 358.9 112.15 358.35 112.15 357.6 M80.5 393.15 Q79.5 393.15 78.8 393.85 78.1 394.55 78.1 395.55 78.1 396.55 78.8 397.25 79.5 397.95 80.5 397.95 81.5 397.95 82.2 397.25 82.9 396.55 82.9 395.55 82.9 394.55 82.2 393.85 81.5 393.15 80.5 393.15 M64.65 381.1 Q64.15 380.55 63.45 380.55 62.75 380.55 62.25 381.1 61.75 381.6 61.75 382.3 61.75 383.0 62.25 383.55 62.75 384.05 63.45 384.05 64.15 384.05 64.65 383.55 65.15 383.0 65.15 382.3 65.15 381.6 64.65 381.1 M49.85 383.1 Q49.85 381.4 48.7 380.25 47.5 379.05 45.8 379.05 44.1 379.05 42.95 380.25 41.75 381.4 41.75 383.1 41.75 384.8 42.95 386.0 44.1 387.15 45.8 387.15 47.5 387.15 48.7 386.0 49.85 384.8 49.85 383.1 M74.15 367.8 Q73.6 368.35 73.6 369.1 73.6 369.85 74.15 370.4 74.7 370.95 75.5 370.95 76.3 370.95 76.85 370.4 77.4 369.85 77.4 369.1 77.4 368.35 76.85 367.8 76.3 367.25 75.5 367.25 74.7 367.25 74.15 367.8 M222.5 393.7 Q222.5 392.55 221.7 391.75 220.9 390.95 219.75 390.95 218.6 390.95 217.8 391.75 217.0 392.55 217.0 393.7 217.0 394.85 217.8 395.65 218.6 396.45 219.75 396.45 220.9 396.45 221.7 395.65 222.5 394.85 222.5 393.7 M169.95 390.7 Q169.95 391.8 171.0 392.55 172.05 393.3 173.55 393.3 175.05 393.3 176.1 392.55 177.15 391.8 177.15 390.7 177.15 389.6 176.1 388.85 175.05 388.1 173.55 388.1 172.05 388.1 171.0 388.85 169.95 389.6 169.95 390.7 M303.25 307.95 L306.1 302.95 Q274.25 287.4 245.05 281.65 L231.05 271.0 Q251.9 313.05 303.25 307.95" fill="#bd9946" fill-rule="evenodd" stroke="none"/>
    <path d="M373.45 340.75 Q374.2 340.75 374.75 341.3 375.3 341.85 375.3 342.6 375.3 343.35 374.75 343.9 374.2 344.45 373.45 344.45 372.7 344.45 372.15 343.9 371.6 343.35 371.6 342.6 371.6 341.85 372.15 341.3 372.7 340.75 373.45 340.75 M359.4 355.8 Q360.5 355.8 361.3 356.6 362.05 357.4 362.05 358.5 362.05 359.6 361.3 360.4 360.5 361.2 359.4 361.2 358.3 361.2 357.55 360.4 356.75 359.6 356.75 358.5 356.75 357.4 357.55 356.6 358.3 355.8 359.4 355.8 M394.4 359.6 Q395.3 359.6 395.95 360.25 396.55 360.9 396.55 361.8 396.55 362.7 395.95 363.35 395.3 364.0 394.4 364.0 393.5 364.0 392.9 363.35 392.25 362.7 392.25 361.8 392.25 360.9 392.9 360.25 393.5 359.6 394.4 359.6 M403.7 360.5 Q404.7 359.5 406.1 359.5 407.5 359.5 408.5 360.5 409.5 361.45 409.5 362.85 409.5 364.25 408.5 365.25 407.5 366.2 406.1 366.2 404.7 366.2 403.7 365.25 402.7 364.25 402.7 362.85 402.7 361.45 403.7 360.5 M366.4 350.1 Q366.75 350.45 366.75 350.95 L366.4 351.85 Q366.05 352.2 365.55 352.2 365.05 352.2 364.7 351.85 364.35 351.45 364.35 350.95 364.35 350.45 364.7 350.1 365.05 349.7 365.55 349.7 366.05 349.7 366.4 350.1 M381.1 360.9 Q381.1 361.65 380.6 362.2 380.05 362.7 379.3 362.7 378.55 362.7 378.05 362.2 377.5 361.65 377.5 360.9 377.5 360.15 378.05 359.65 378.55 359.1 379.3 359.1 380.05 359.1 380.6 359.65 381.1 360.15 381.1 360.9 M593.5 295.6 Q592.85 294.95 592.85 294.05 592.85 293.15 593.5 292.5 594.15 291.85 595.1 291.85 596.05 291.85 596.7 292.5 597.35 293.15 597.35 294.05 597.35 294.95 596.7 295.6 596.05 296.25 595.1 296.25 594.15 296.25 593.5 295.6 M555.8 322.6 Q556.75 321.6 558.1 321.6 559.45 321.6 560.45 322.6 561.4 323.55 561.4 324.9 561.4 326.25 560.45 327.25 559.45 328.2 558.1 328.2 556.75 328.2 555.8 327.25 554.8 326.25 554.8 324.9 554.8 323.55 555.8 322.6 M588.4 306.45 Q588.4 307.8 587.45 308.8 586.45 309.75 585.05 309.75 583.65 309.75 582.7 308.8 581.7 307.8 581.7 306.45 581.7 305.1 582.7 304.15 583.65 303.15 585.05 303.15 586.45 303.15 587.45 304.15 588.4 305.1 588.4 306.45 M594.1 315.5 Q594.45 315.75 594.45 316.1 L594.1 316.75 593.25 317.0 592.4 316.75 Q592.05 316.45 592.05 316.1 592.05 315.75 592.4 315.5 592.75 315.2 593.25 315.2 593.75 315.2 594.1 315.5 M571.5 318.85 Q572.2 318.15 573.15 318.15 574.1 318.15 574.8 318.85 575.5 319.55 575.5 320.55 575.5 321.55 574.8 322.25 574.1 322.95 573.15 322.95 572.2 322.95 571.5 322.25 570.8 321.55 570.8 320.55 570.8 319.55 571.5 318.85 M587.1 323.1 Q587.85 323.1 588.4 323.65 588.9 324.2 588.9 324.95 588.9 325.7 588.4 326.25 587.85 326.8 587.1 326.8 586.35 326.8 585.85 326.25 585.3 325.7 585.3 324.95 585.3 324.2 585.85 323.65 586.35 323.1 587.1 323.1 M600.0 321.95 L600.0 322.7 598.95 322.75 Q596.25 322.5 600.0 321.95 M38.85 368.65 Q39.8 368.65 40.45 369.3 41.1 369.95 41.1 370.85 41.1 371.75 40.45 372.4 39.8 373.05 38.85 373.05 37.9 373.05 37.25 372.4 36.6 371.75 36.6 370.85 36.6 369.95 37.25 369.3 37.9 368.65 38.85 368.65 M19.9 389.95 Q20.4 389.4 21.1 389.4 21.8 389.4 22.35 389.95 22.85 390.45 22.85 391.15 22.85 391.85 22.35 392.4 21.8 392.9 21.1 392.9 20.4 392.9 19.9 392.4 19.35 391.85 19.35 391.15 19.35 390.45 19.9 389.95 M25.15 375.5 Q26.2 375.5 26.95 376.25 27.65 376.95 27.65 377.95 27.65 378.95 26.95 379.7 26.2 380.4 25.15 380.4 24.1 380.4 23.4 379.7 22.65 378.95 22.65 377.95 22.65 376.95 23.4 376.25 24.1 375.5 25.15 375.5 M74.15 367.8 Q74.7 367.25 75.5 367.25 76.3 367.25 76.85 367.8 77.4 368.35 77.4 369.1 77.4 369.85 76.85 370.4 76.3 370.95 75.5 370.95 74.7 370.95 74.15 370.4 73.6 369.85 73.6 369.1 73.6 368.35 74.15 367.8 M49.85 383.1 Q49.85 384.8 48.7 386.0 47.5 387.15 45.8 387.15 44.1 387.15 42.95 386.0 41.75 384.8 41.75 383.1 41.75 381.4 42.95 380.25 44.1 379.05 45.8 379.05 47.5 379.05 48.7 380.25 49.85 381.4 49.85 383.1 M64.65 381.1 Q65.15 381.6 65.15 382.3 65.15 383.0 64.65 383.55 64.15 384.05 63.45 384.05 62.75 384.05 62.25 383.55 61.75 383.0 61.75 382.3 61.75 381.6 62.25 381.1 62.75 380.55 63.45 380.55 64.15 380.55 64.65 381.1 M80.5 393.15 Q81.5 393.15 82.2 393.85 82.9 394.55 82.9 395.55 82.9 396.55 82.2 397.25 81.5 397.95 80.5 397.95 79.5 397.95 78.8 397.25 78.1 396.55 78.1 395.55 78.1 394.55 78.8 393.85 79.5 393.15 80.5 393.15 M112.15 357.6 Q112.15 358.35 111.6 358.9 111.05 359.45 110.3 359.45 109.55 359.45 109.0 358.9 108.45 358.35 108.45 357.6 108.45 356.85 109.0 356.3 109.55 355.75 110.3 355.75 111.05 355.75 111.6 356.3 112.15 356.85 112.15 357.6 M106.2 364.25 Q106.2 365.1 105.65 365.7 105.05 366.25 104.2 366.25 103.35 366.25 102.8 365.7 102.2 365.1 102.2 364.25 102.2 363.4 102.8 362.85 103.35 362.25 104.2 362.25 105.05 362.25 105.65 362.85 106.2 363.4 106.2 364.25 M95.4 380.6 Q95.75 380.95 95.75 381.45 L95.4 382.3 Q95.0 382.65 94.5 382.65 94.0 382.65 93.65 382.3 93.25 381.95 93.25 381.45 93.25 380.95 93.65 380.6 94.0 380.25 94.5 380.25 95.0 380.25 95.4 380.6 M119.3 375.95 Q120.25 376.9 120.25 378.25 120.25 379.6 119.3 380.55 118.35 381.5 117.0 381.5 115.65 381.5 114.7 380.55 113.75 379.6 113.75 378.25 113.75 376.9 114.7 375.95 115.65 375.0 117.0 375.0 118.35 375.0 119.3 375.95 M138.2 368.75 Q138.7 368.2 139.4 368.2 140.1 368.2 140.6 368.75 141.1 369.25 141.1 369.95 141.1 370.65 140.6 371.2 140.1 371.7 139.4 371.7 138.7 371.7 138.2 371.2 137.7 370.65 137.7 369.95 137.7 369.25 138.2 368.75 M133.95 390.85 Q134.75 390.0 135.9 390.0 137.05 390.0 137.9 390.85 138.7 391.65 138.7 392.8 138.7 393.95 137.9 394.8 137.05 395.6 135.9 395.6 134.75 395.6 133.95 394.8 133.1 393.95 133.1 392.8 133.1 391.65 133.95 390.85 M152.6 378.8 Q152.6 379.5 152.1 380.0 151.6 380.5 150.9 380.5 150.2 380.5 149.7 380.0 149.2 379.5 149.2 378.8 149.2 378.1 149.7 377.6 150.2 377.1 150.9 377.1 151.6 377.1 152.1 377.6 152.6 378.1 152.6 378.8 M169.95 390.7 Q169.95 389.6 171.0 388.85 172.05 388.1 173.55 388.1 175.05 388.1 176.1 388.85 177.15 389.6 177.15 390.7 177.15 391.8 176.1 392.55 175.05 393.3 173.55 393.3 172.05 393.3 171.0 392.55 169.95 391.8 169.95 390.7 M222.5 393.7 Q222.5 394.85 221.7 395.65 220.9 396.45 219.75 396.45 218.6 396.45 217.8 395.65 217.0 394.85 217.0 393.7 217.0 392.55 217.8 391.75 218.6 390.95 219.75 390.95 220.9 390.95 221.7 391.75 222.5 392.55 222.5 393.7" fill="#896832" fill-rule="evenodd" stroke="none"/>
  </g>
</svg>
