<?xml version="1.0" encoding="UTF-8" standalone="no"?>
<svg xmlns:ffdec="https://www.free-decompiler.com/flash" xmlns:xlink="http://www.w3.org/1999/xlink" ffdec:objectType="shape" height="400.0px" width="600.0px" xmlns="http://www.w3.org/2000/svg">
  <g transform="matrix(1.0, 0.0, 0.0, 1.0, 0.0, 0.0)">
    <path d="M582.9 56.7 Q579.05 43.9 576.5 30.7 L578.8 45.05 562.85 0.0 600.0 0.0 600.0 53.4 597.75 46.65 598.3 51.35 Q598.95 55.95 600.0 60.25 L600.0 68.4 587.05 24.7 Q587.75 40.85 591.5 56.3 594.75 69.7 600.0 81.95 L600.0 105.2 582.9 56.7 M435.25 82.65 L435.0 82.65 435.0 82.55 435.25 82.4 435.25 82.65 M49.7 5.9 L50.6 6.15 49.4 6.9 49.7 5.9 M46.35 17.4 L47.2 17.65 46.2 18.05 46.35 17.4 M548.55 0.45 L548.7 0.4 548.7 0.45 548.55 0.45 M600.0 272.35 L600.0 279.7 587.95 281.5 581.05 282.8 Q590.5 284.8 600.0 286.05 L600.0 290.65 Q566.95 293.75 533.7 290.4 L586.65 279.1 Q557.4 280.3 530.4 290.9 L540.05 292.55 Q571.4 298.25 600.0 293.55 L600.0 300.0 Q550.5 303.6 500.85 298.8 L556.7 277.15 Q523.9 280.25 498.35 299.7 L498.55 299.9 Q549.35 308.7 600.0 302.25 L600.0 315.95 Q558.15 319.3 516.7 326.85 L600.0 318.8 600.0 332.55 Q521.6 337.35 444.45 354.5 514.5 341.8 585.45 338.3 L600.0 337.7 600.0 342.3 Q543.7 341.2 486.85 352.2 543.5 344.45 600.0 344.95 L600.0 348.75 Q551.85 352.0 505.45 363.6 L506.45 363.8 Q552.95 359.1 600.0 358.25 L600.0 367.2 484.8 367.55 Q242.8 367.5 0.0 363.65 L0.0 336.7 Q61.6 324.2 121.75 315.4 59.8 321.5 0.0 335.25 L0.0 304.0 Q70.7 287.85 142.8 289.0 69.0 283.4 0.0 302.0 L0.0 299.35 Q35.95 293.5 71.55 284.55 L0.0 297.1 0.0 268.5 447.1 272.9 600.0 272.35 M600.0 352.55 L600.0 355.15 544.45 358.05 Q563.7 354.5 583.1 353.6 L600.0 352.55 M600.0 380.3 L600.0 395.7 Q557.6 384.15 510.7 391.55 558.1 389.5 600.0 399.4 L600.0 400.0 274.05 400.0 259.85 398.4 Q229.75 396.35 200.55 400.0 L148.05 400.0 Q219.9 387.9 292.35 397.2 L295.65 397.7 288.1 395.7 Q224.15 382.9 159.2 395.6 L141.15 400.0 0.0 400.0 0.0 377.3 463.75 380.9 534.15 380.6 514.2 382.4 Q557.1 381.05 599.9 385.3 L579.35 380.4 600.0 380.3 M0.0 82.15 L0.0 0.0 33.25 0.0 0.0 82.15 M365.8 89.8 L365.8 90.1 356.75 89.65 365.8 89.8 M376.35 157.95 L376.35 157.85 376.5 157.85 376.35 157.95 M319.2 220.45 L319.25 220.7 318.9 220.7 Q318.65 220.6 319.2 220.45 M311.85 214.85 L311.75 213.95 348.25 208.7 311.85 214.85 M363.85 206.55 L355.25 207.55 363.8 206.2 363.85 206.55 M404.85 338.0 Q459.2 343.9 510.65 337.45 L510.05 337.0 Q431.45 340.6 353.5 331.2 379.15 335.05 404.85 338.0 M455.8 344.4 Q384.15 343.1 313.3 332.55 L350.25 339.8 Q403.05 350.7 455.8 344.4 M479.3 312.2 L520.2 321.3 515.65 322.45 521.35 321.15 Q501.0 313.2 479.2 311.35 432.8 307.6 386.45 312.25 L479.3 312.2 M413.35 305.8 Q345.5 306.5 277.95 302.5 L281.25 303.45 Q319.45 311.25 358.4 307.65 L413.35 305.8 M495.45 227.25 L495.55 227.3 495.45 227.3 495.45 227.25 M547.75 227.9 L547.6 228.9 501.75 227.0 547.75 227.9 M509.3 330.6 Q441.7 315.95 371.7 324.3 443.55 322.75 509.95 331.2 L509.3 330.6 M136.5 189.4 L136.5 189.7 130.25 190.3 130.25 189.6 136.5 189.4 M318.95 164.95 L318.95 165.15 318.7 165.1 318.95 164.95 M115.6 72.0 L115.4 72.0 115.65 71.8 115.6 72.0 M19.15 18.65 L19.15 18.55 18.95 18.55 16.0 26.3 19.15 18.65 M15.35 357.85 Q54.6 343.4 96.2 339.85 122.75 337.4 149.05 341.65 111.55 332.9 64.05 342.7 39.05 348.05 15.35 357.85 M132.25 313.75 L92.0 315.85 123.4 315.15 132.25 313.75 M136.4 392.75 Q188.1 386.5 240.15 387.1 269.3 387.4 296.95 392.2 292.95 386.9 285.7 386.2 203.3 379.9 121.8 394.55 L136.4 392.75 M147.05 354.95 Q155.4 362.2 165.1 355.55 L165.35 355.35 161.6 352.05 166.4 351.8 167.35 353.7 Q178.9 358.95 178.45 351.35 L170.85 350.95 167.55 348.55 116.2 349.95 Q133.4 350.95 147.05 354.95 M39.4 339.55 Q77.65 331.2 116.55 327.1 78.5 326.15 39.4 339.55 M96.95 307.35 Q147.35 299.55 196.05 310.4 L173.75 311.6 193.25 313.1 Q197.65 313.4 199.7 309.75 L197.7 308.7 Q129.3 294.15 61.1 313.85 78.95 310.35 96.95 307.35 M223.95 332.6 L289.1 339.5 236.15 332.2 223.95 332.6 M233.9 318.05 Q211.95 296.75 178.15 298.05 205.85 304.25 230.05 318.95 L233.9 318.05" fill="#b9ab95" fill-rule="evenodd" stroke="none"/>
    <path d="M578.8 45.05 L582.9 56.7 600.0 105.2 600.0 156.6 592.8 136.65 592.2 135.0 590.55 130.4 589.9 128.6 576.6 91.65 365.8 89.8 356.75 89.65 365.8 90.1 19.0 91.9 4.8 131.2 3.6 134.3 0.0 144.15 0.0 103.6 Q24.9 53.8 41.55 0.0 L51.55 0.0 49.7 5.9 49.4 6.9 49.0 8.3 46.35 17.4 46.2 18.05 45.75 22.05 335.6 26.0 337.4 24.8 557.2 25.9 555.55 22.1 552.65 13.05 552.15 11.45 550.85 7.3 550.2 5.2 548.85 0.95 Q549.8 0.85 549.15 0.5 L548.7 0.45 548.7 0.4 548.55 0.0 562.85 0.0 578.8 45.05 M22.9 81.1 L24.6 85.05 25.5 85.55 94.2 88.25 Q234.3 89.2 374.5 89.0 475.15 88.85 575.85 88.0 L574.7 82.85 566.65 58.65 565.9 56.4 564.4 51.95 563.15 48.25 557.0 29.8 119.8 26.6 42.0 27.4 22.9 81.1 M600.0 172.1 L600.0 178.1 335.2 175.6 0.0 174.65 0.0 170.15 Q19.6 174.6 41.1 173.8 114.95 170.8 188.9 172.4 L207.8 172.5 228.6 172.1 230.4 170.4 381.1 171.65 600.0 172.1 M600.0 267.55 L600.0 272.35 447.1 272.9 0.0 268.5 0.0 264.65 310.05 266.7 568.45 267.75 600.0 267.55 M600.0 376.05 L600.0 380.3 579.35 380.4 534.15 380.6 463.75 380.9 0.0 377.3 0.0 373.95 Q44.4 376.25 89.7 374.95 156.0 373.1 222.3 374.2 340.15 376.15 457.95 377.45 529.05 378.25 600.0 376.05" fill="#574939" fill-rule="evenodd" stroke="none"/>
    <path d="M18.95 18.55 L19.15 18.55 19.15 18.65 18.95 18.55" fill="#7b6753" fill-rule="evenodd" stroke="none"/>
    <path d="M578.8 45.05 L576.5 30.7 Q579.05 43.9 582.9 56.7 L578.8 45.05 M600.0 81.95 Q594.75 69.7 591.5 56.3 587.75 40.85 587.05 24.7 L600.0 68.4 600.0 81.95 M600.0 60.25 Q598.95 55.95 598.3 51.35 L597.75 46.65 600.0 53.4 600.0 60.25 M574.7 82.85 L575.85 88.0 Q475.15 88.85 374.5 89.0 234.3 89.2 94.2 88.25 L25.5 85.55 24.6 85.05 22.9 81.1 Q59.0 75.0 93.9 81.3 94.5 81.35 95.0 81.95 173.9 82.55 252.3 73.2 227.8 69.85 204.95 59.05 243.55 68.65 283.25 73.6 L216.1 81.1 435.0 82.65 435.25 82.65 472.2 82.3 472.05 82.2 Q479.7 72.7 494.25 76.4 L495.85 78.15 499.05 78.85 473.8 82.55 574.7 82.85 M563.15 48.25 L564.4 51.95 512.6 51.8 563.15 48.25 M565.9 56.4 L566.65 58.65 526.85 60.75 565.9 56.4 M50.6 6.15 Q56.3 5.3 54.55 10.55 L49.8 10.5 49.0 8.3 49.4 6.9 50.6 6.15 M47.2 17.65 L49.45 16.2 Q147.35 21.45 245.55 21.95 326.3 22.35 407.05 18.2 L415.5 19.2 418.05 21.55 418.05 22.1 555.55 22.1 557.2 25.9 337.4 24.8 335.6 26.0 45.75 22.05 46.2 18.05 47.2 17.65 M552.65 13.05 L520.9 14.15 552.15 11.45 552.65 13.05 M550.85 7.3 Q520.65 11.0 490.5 7.8 L481.95 6.75 550.2 5.2 550.85 7.3 M548.85 0.95 L524.85 1.1 548.55 0.45 548.7 0.45 549.15 0.5 Q549.8 0.85 548.85 0.95 M516.35 13.0 Q513.8 14.3 511.2 14.2 486.5 15.25 461.75 14.9 L516.35 13.0 M504.85 79.65 L524.65 77.75 Q499.0 71.2 472.65 73.35 504.0 62.05 528.5 79.05 L528.0 79.45 Q516.65 85.5 504.85 79.65 M515.05 117.65 L511.8 118.25 Q506.6 115.95 500.95 114.85 483.2 111.8 466.75 118.9 L471.55 120.5 Q510.15 132.45 548.9 120.55 493.25 106.3 436.45 114.7 495.2 99.8 551.55 121.2 508.05 136.5 465.2 119.6 473.75 113.2 487.05 112.5 501.9 111.0 515.05 117.65 M560.8 115.1 L560.7 114.8 564.05 115.95 Q561.35 119.3 560.8 115.1 M589.9 128.6 L590.55 130.4 566.45 132.75 589.9 128.6 M592.2 135.0 L592.8 136.65 568.9 139.8 592.2 135.0 M600.0 165.4 L600.0 172.1 381.1 171.65 230.4 170.4 228.6 172.1 207.8 172.5 188.9 172.4 Q114.95 170.8 41.1 173.8 19.6 174.6 0.0 170.15 L0.0 163.5 230.8 167.2 279.45 164.7 284.15 164.6 279.65 163.75 230.85 149.9 319.1 164.7 318.95 164.95 318.7 165.1 318.95 165.15 319.1 165.15 600.0 165.4 M600.0 192.7 L600.0 194.45 Q591.35 194.05 583.2 190.7 L582.4 190.05 Q591.15 192.75 600.0 192.7 M600.0 199.75 L600.0 200.9 575.6 197.65 600.0 199.75 M600.0 213.25 L600.0 213.85 Q534.5 202.45 465.25 213.7 L447.7 216.35 Q524.95 197.15 600.0 213.25 M600.0 218.3 L600.0 222.0 Q560.7 214.8 520.35 217.9 535.9 215.6 551.35 214.55 576.85 212.65 600.0 218.3 M600.0 234.25 L600.0 236.55 563.15 230.4 547.75 227.9 501.75 227.0 547.6 228.9 563.0 231.45 600.0 239.8 600.0 240.05 Q526.45 226.6 452.1 233.85 418.05 237.1 385.4 247.35 429.75 231.6 476.8 228.35 L495.45 227.3 495.55 227.3 495.45 227.25 Q546.6 223.2 597.15 233.65 L600.0 234.25 M600.0 243.7 L600.0 248.15 Q549.75 240.5 499.05 236.2 L492.35 236.05 Q546.45 235.4 600.0 243.7 M600.0 261.2 L600.0 267.55 568.45 267.75 310.05 266.7 0.0 264.65 0.0 257.55 Q229.95 261.8 460.75 263.25 517.4 263.6 573.9 261.65 L600.0 261.2 M600.0 279.7 L600.0 286.05 Q590.5 284.8 581.05 282.8 L587.95 281.5 600.0 279.7 M600.0 290.65 L600.0 293.55 Q571.4 298.25 540.05 292.55 L530.4 290.9 Q557.4 280.3 586.65 279.1 L533.7 290.4 Q566.95 293.75 600.0 290.65 M600.0 300.0 L600.0 302.25 Q549.35 308.7 498.55 299.9 L498.35 299.7 Q523.9 280.25 556.7 277.15 L500.85 298.8 Q550.5 303.6 600.0 300.0 M600.0 315.95 L600.0 318.8 516.7 326.85 Q558.15 319.3 600.0 315.95 M600.0 332.55 L600.0 337.7 585.45 338.3 Q514.5 341.8 444.45 354.5 521.6 337.35 600.0 332.55 M600.0 342.3 L600.0 344.95 Q543.5 344.45 486.85 352.2 543.7 341.2 600.0 342.3 M600.0 348.75 L600.0 352.55 583.1 353.6 Q563.7 354.5 544.45 358.05 L600.0 355.15 600.0 358.25 Q552.95 359.1 506.45 363.8 L505.45 363.6 Q551.85 352.0 600.0 348.75 M600.0 367.2 L600.0 376.05 Q529.05 378.25 457.95 377.45 340.15 376.15 222.3 374.2 156.0 373.1 89.7 374.95 44.4 376.25 0.0 373.95 L0.0 363.65 Q242.8 367.5 484.8 367.55 L600.0 367.2 M600.0 395.7 L600.0 399.4 Q558.1 389.5 510.7 391.55 557.6 384.15 600.0 395.7 M274.05 400.0 L200.55 400.0 Q229.75 396.35 259.85 398.4 L274.05 400.0 M148.05 400.0 L141.15 400.0 159.2 395.6 Q224.15 382.9 288.1 395.7 L295.65 397.7 292.35 397.2 Q219.9 387.9 148.05 400.0 M0.0 336.7 L0.0 335.25 Q59.8 321.5 121.75 315.4 61.6 324.2 0.0 336.7 M0.0 304.0 L0.0 302.0 Q69.0 283.4 142.8 289.0 70.7 287.85 0.0 304.0 M0.0 299.35 L0.0 297.1 71.55 284.55 Q35.95 293.5 0.0 299.35 M0.0 207.75 L0.0 206.4 Q91.2 209.6 181.35 194.3 192.55 192.45 201.85 197.4 L197.0 197.85 Q128.6 200.55 59.45 209.15 29.25 210.75 0.0 207.75 M0.0 199.25 L0.0 198.65 Q65.45 201.25 130.25 190.3 L136.5 189.7 146.1 191.15 Q73.3 204.9 0.0 199.25 M0.0 103.6 L0.0 82.15 33.25 0.0 41.55 0.0 Q24.9 53.8 0.0 103.6 M570.05 119.25 Q557.35 130.35 520.45 133.8 499.9 136.1 479.5 132.55 530.0 136.8 570.05 119.25 M4.8 131.2 Q98.75 119.15 190.5 137.0 190.9 137.1 191.3 137.55 97.3 121.95 3.6 134.3 L4.8 131.2 M435.0 82.55 Q436.0 80.45 435.45 81.85 L435.25 82.4 435.0 82.55 M391.85 75.2 L324.7 79.55 439.8 66.45 391.85 75.2 M463.9 56.2 L468.6 54.95 487.75 52.45 463.9 56.2 M361.15 146.7 L351.55 146.25 456.9 141.6 Q409.55 150.45 361.15 146.7 M376.35 157.95 L376.5 157.85 376.35 157.85 341.9 153.2 389.2 157.5 Q316.25 173.0 243.35 142.45 308.95 155.5 376.35 157.95 M405.75 183.85 Q370.1 186.7 335.15 195.0 309.8 201.1 284.0 205.35 344.25 187.35 405.75 183.85 M479.65 183.4 L484.6 182.9 Q500.35 181.05 516.2 182.8 L479.65 183.4 M401.65 78.65 L454.1 63.65 Q496.25 51.85 531.25 72.15 466.35 61.45 401.65 78.65 M365.45 206.6 L376.6 208.0 Q352.35 217.4 325.95 219.7 L319.2 220.45 Q318.65 220.6 318.9 220.7 L319.25 220.7 318.4 225.75 294.6 224.35 373.45 208.9 301.15 216.15 311.85 214.85 348.25 208.7 311.75 213.95 Q275.05 220.1 238.8 216.6 L237.05 216.35 Q310.65 208.75 388.7 202.3 L365.35 206.0 363.8 206.2 355.25 207.55 363.85 206.55 365.45 206.6 M404.85 338.0 Q379.15 335.05 353.5 331.2 431.45 340.6 510.05 337.0 L510.65 337.45 Q459.2 343.9 404.85 338.0 M413.35 305.8 L358.4 307.65 Q319.45 311.25 281.25 303.45 L277.95 302.5 Q345.5 306.5 413.35 305.8 M479.3 312.2 L386.45 312.25 Q432.8 307.6 479.2 311.35 501.0 313.2 521.35 321.15 L515.65 322.45 520.2 321.3 479.3 312.2 M455.8 344.4 Q403.05 350.7 350.25 339.8 L313.3 332.55 Q384.15 343.1 455.8 344.4 M579.35 380.4 L599.9 385.3 Q557.1 381.05 514.2 382.4 L534.15 380.6 579.35 380.4 M509.3 330.6 L509.95 331.2 Q443.55 322.75 371.7 324.3 441.7 315.95 509.3 330.6 M570.7 201.0 Q537.25 199.15 503.7 201.4 465.3 204.4 427.3 211.1 489.6 196.7 553.5 198.25 562.3 198.45 570.7 201.0 M468.05 184.65 L352.9 199.9 Q410.3 190.8 468.05 184.65 M559.2 114.25 Q482.1 97.4 402.4 108.9 486.5 89.7 559.2 114.25 M183.75 10.1 Q177.4 8.7 170.9 8.05 L225.3 10.75 Q207.75 15.3 183.75 10.1 M236.5 63.5 Q231.55 62.0 226.4 61.2 L290.95 68.65 Q263.65 71.9 236.5 63.5 M162.9 68.35 L171.3 72.15 205.2 70.75 162.9 68.35 M185.55 160.75 L200.85 156.35 Q131.95 138.55 59.2 144.1 133.55 134.05 202.3 154.0 203.35 154.3 204.25 155.15 L202.7 159.55 185.55 160.75 M231.8 190.55 L235.0 187.5 138.8 180.5 Q199.9 166.55 253.9 191.8 252.85 193.65 250.8 194.25 239.85 197.85 231.8 190.55 M130.25 189.6 Q75.35 193.6 21.0 189.65 L17.3 189.2 Q100.1 193.3 184.4 185.8 195.05 185.1 205.4 188.15 L202.65 190.1 136.5 189.4 130.25 189.6 M306.25 144.4 L308.1 145.4 211.9 126.6 Q260.9 127.7 306.25 144.4 M112.9 4.8 L116.0 5.85 93.4 8.55 90.85 5.45 Q101.6 1.35 112.9 4.8 M115.65 71.8 L115.4 72.0 115.6 72.0 124.95 72.2 115.65 71.8 M104.0 73.2 L103.55 73.1 Q119.15 64.6 139.5 67.45 L154.6 68.15 156.7 68.0 98.9 64.75 Q158.25 55.65 211.55 71.4 160.1 81.15 104.0 73.2 M18.95 18.55 L19.15 18.65 16.0 26.3 18.95 18.55 M49.45 59.75 L46.65 60.1 Q115.15 50.1 184.15 58.8 117.75 56.55 49.45 59.75 M23.55 121.95 Q23.3 122.35 23.45 121.9 L23.55 121.95 M24.65 121.95 L54.5 120.55 141.85 125.8 24.65 121.95 M55.45 157.55 Q77.55 152.15 100.1 149.65 143.4 144.4 181.0 156.15 121.1 150.7 61.65 157.45 L165.95 159.9 Q107.55 169.8 55.45 157.55 M96.95 307.35 Q78.95 310.35 61.1 313.85 129.3 294.15 197.7 308.7 L199.7 309.75 Q197.65 313.4 193.25 313.1 L173.75 311.6 196.05 310.4 Q147.35 299.55 96.95 307.35 M39.4 339.55 Q78.5 326.15 116.55 327.1 77.65 331.2 39.4 339.55 M147.05 354.95 Q133.4 350.95 116.2 349.95 L167.55 348.55 170.85 350.95 178.45 351.35 Q178.9 358.95 167.35 353.7 L166.4 351.8 161.6 352.05 165.35 355.35 165.1 355.55 Q155.4 362.2 147.05 354.95 M136.4 392.75 L121.8 394.55 Q203.3 379.9 285.7 386.2 292.95 386.9 296.95 392.2 269.3 387.4 240.15 387.1 188.1 386.5 136.4 392.75 M132.25 313.75 L123.4 315.15 92.0 315.85 132.25 313.75 M15.35 357.85 Q39.05 348.05 64.05 342.7 111.55 332.9 149.05 341.65 122.75 337.4 96.2 339.85 54.6 343.4 15.35 357.85 M233.9 318.05 L230.05 318.95 Q205.85 304.25 178.15 298.05 211.95 296.75 233.9 318.05 M223.95 332.6 L236.15 332.2 289.1 339.5 223.95 332.6 M213.7 192.2 Q263.85 205.1 315.9 195.45 L330.35 193.25 Q281.9 203.6 232.95 198.7 220.95 197.3 213.7 192.2" fill="#8a725b" fill-rule="evenodd" stroke="none"/>
    <path d="M560.8 115.1 Q561.35 119.3 564.05 115.95 L560.7 114.8 560.8 115.1 M515.05 117.65 Q501.9 111.0 487.05 112.5 473.75 113.2 465.2 119.6 508.05 136.5 551.55 121.2 495.2 99.8 436.45 114.7 493.25 106.3 548.9 120.55 510.15 132.45 471.55 120.5 L466.75 118.9 Q483.2 111.8 500.95 114.85 506.6 115.95 511.8 118.25 L515.05 117.65 M590.55 130.4 L592.2 135.0 568.9 139.8 592.8 136.65 600.0 156.6 600.0 165.4 319.1 165.15 319.1 164.7 230.85 149.9 279.65 163.75 279.45 164.7 230.8 167.2 0.0 163.5 0.0 144.15 3.6 134.3 Q97.3 121.95 191.3 137.55 190.9 137.1 190.5 137.0 98.75 119.15 4.8 131.2 L19.0 91.9 365.8 90.1 365.8 89.8 576.6 91.65 589.9 128.6 566.45 132.75 590.55 130.4 M570.05 119.25 Q530.0 136.8 479.5 132.55 499.9 136.1 520.45 133.8 557.35 130.35 570.05 119.25 M361.15 146.7 Q409.55 150.45 456.9 141.6 L351.55 146.25 361.15 146.7 M376.35 157.85 L376.35 157.95 Q308.95 155.5 243.35 142.45 316.25 173.0 389.2 157.5 L341.9 153.2 376.35 157.85 M559.2 114.25 Q486.5 89.7 402.4 108.9 482.1 97.4 559.2 114.25 M185.55 160.75 L202.7 159.55 204.25 155.15 Q203.35 154.3 202.3 154.0 133.55 134.05 59.2 144.1 131.95 138.55 200.85 156.35 L185.55 160.75 M306.25 144.4 Q260.9 127.7 211.9 126.6 L308.1 145.4 306.25 144.4 M23.55 121.95 L23.45 121.9 Q23.3 122.35 23.55 121.95 M24.65 121.95 L141.85 125.8 54.5 120.55 24.65 121.95 M55.45 157.55 Q107.55 169.8 165.95 159.9 L61.65 157.45 Q121.1 150.7 181.0 156.15 143.4 144.4 100.1 149.65 77.55 152.15 55.45 157.55" fill="#cec2b5" fill-rule="evenodd" stroke="none"/>
    <path d="M600.0 178.1 L600.0 192.7 Q591.15 192.75 582.4 190.05 L583.2 190.7 Q591.35 194.05 600.0 194.45 L600.0 199.75 575.6 197.65 600.0 200.9 600.0 213.25 Q524.95 197.15 447.7 216.35 L465.25 213.7 Q534.5 202.45 600.0 213.85 L600.0 218.3 Q576.85 212.65 551.35 214.55 535.9 215.6 520.35 217.9 560.7 214.8 600.0 222.0 L600.0 234.25 597.15 233.65 Q546.6 223.2 495.45 227.25 L495.45 227.3 476.8 228.35 Q429.75 231.6 385.4 247.35 418.05 237.1 452.1 233.85 526.45 226.6 600.0 240.05 L600.0 243.7 Q546.45 235.4 492.35 236.05 L499.05 236.2 Q549.75 240.5 600.0 248.15 L600.0 261.2 573.9 261.65 Q517.4 263.6 460.75 263.25 229.95 261.8 0.0 257.55 L0.0 207.75 Q29.25 210.75 59.45 209.15 128.6 200.55 197.0 197.85 L201.85 197.4 Q192.55 192.45 181.35 194.3 91.2 209.6 0.0 206.4 L0.0 199.25 Q73.3 204.9 146.1 191.15 L136.5 189.7 136.5 189.4 202.65 190.1 205.4 188.15 Q195.05 185.1 184.4 185.8 100.1 193.3 17.3 189.2 L21.0 189.65 Q75.35 193.6 130.25 189.6 L130.25 190.3 Q65.45 201.25 0.0 198.65 L0.0 174.65 335.2 175.6 600.0 178.1 M600.0 236.55 L600.0 239.8 563.0 231.45 563.15 230.4 600.0 236.55 M479.65 183.4 L516.2 182.8 Q500.35 181.05 484.6 182.9 L479.65 183.4 M405.75 183.85 Q344.25 187.35 284.0 205.35 309.8 201.1 335.15 195.0 370.1 186.7 405.75 183.85 M319.2 220.45 L325.95 219.7 Q352.35 217.4 376.6 208.0 L365.45 206.6 365.35 206.0 388.7 202.3 Q310.65 208.75 237.05 216.35 L238.8 216.6 Q275.05 220.1 311.75 213.95 L311.85 214.85 301.15 216.15 373.45 208.9 294.6 224.35 318.4 225.75 319.25 220.7 319.2 220.45 M570.7 201.0 Q562.3 198.45 553.5 198.25 489.6 196.7 427.3 211.1 465.3 204.4 503.7 201.4 537.25 199.15 570.7 201.0 M468.05 184.65 Q410.3 190.8 352.9 199.9 L468.05 184.65 M231.8 190.55 Q239.85 197.85 250.8 194.25 252.85 193.65 253.9 191.8 199.9 166.55 138.8 180.5 L235.0 187.5 231.8 190.55 M279.45 164.7 L279.65 163.75 284.15 164.6 279.45 164.7 M319.1 164.7 L319.1 165.15 318.95 165.15 318.95 164.95 319.1 164.7 M213.7 192.2 Q220.95 197.3 232.95 198.7 281.9 203.6 330.35 193.25 L315.9 195.45 Q263.85 205.1 213.7 192.2" fill="#c1b4a4" fill-rule="evenodd" stroke="none"/>
    <path d="M365.35 206.0 L365.45 206.6 363.85 206.55 363.8 206.2 365.35 206.0 M563.0 231.45 L547.6 228.9 547.75 227.9 563.15 230.4 563.0 231.45" fill="#b9a895" fill-rule="evenodd" stroke="none"/>
    <path d="M574.7 82.85 L473.8 82.55 499.05 78.85 495.85 78.15 494.25 76.4 Q479.7 72.7 472.05 82.2 L472.2 82.3 435.25 82.65 435.25 82.4 435.45 81.85 Q436.0 80.45 435.0 82.55 L435.0 82.65 216.1 81.1 283.25 73.6 Q243.55 68.65 204.95 59.05 227.8 69.85 252.3 73.2 173.9 82.55 95.0 81.95 94.5 81.35 93.9 81.3 59.0 75.0 22.9 81.1 L42.0 27.4 119.8 26.6 557.0 29.8 563.15 48.25 512.6 51.8 564.4 51.95 565.9 56.4 526.85 60.75 566.65 58.65 574.7 82.85 M504.85 79.65 Q516.65 85.5 528.0 79.45 L528.5 79.05 Q504.0 62.05 472.65 73.35 499.0 71.2 524.65 77.75 L504.85 79.65 M463.9 56.2 L487.75 52.45 468.6 54.95 463.9 56.2 M391.85 75.2 L439.8 66.45 324.7 79.55 391.85 75.2 M401.65 78.65 Q466.35 61.45 531.25 72.15 496.25 51.85 454.1 63.65 L401.65 78.65 M162.9 68.35 L205.2 70.75 171.3 72.15 162.9 68.35 M236.5 63.5 Q263.65 71.9 290.95 68.65 L226.4 61.2 Q231.55 62.0 236.5 63.5 M115.6 72.0 L115.65 71.8 124.95 72.2 115.6 72.0 M104.0 73.2 Q160.1 81.15 211.55 71.4 158.25 55.65 98.9 64.75 L156.7 68.0 154.6 68.15 139.5 67.45 Q119.15 64.6 103.55 73.1 L104.0 73.2 M49.45 59.75 Q117.75 56.55 184.15 58.8 115.15 50.1 46.65 60.1 L49.45 59.75" fill="#d8cdc5" fill-rule="evenodd" stroke="none"/>
    <path d="M548.55 0.0 L548.7 0.4 548.55 0.45 524.85 1.1 548.85 0.95 550.2 5.2 481.95 6.75 490.5 7.8 Q520.65 11.0 550.85 7.3 L552.15 11.45 520.9 14.15 552.65 13.05 555.55 22.1 418.05 22.1 418.05 21.55 415.5 19.2 407.05 18.2 Q326.3 22.35 245.55 21.95 147.35 21.45 49.45 16.2 L47.2 17.65 46.35 17.4 49.0 8.3 49.8 10.5 54.55 10.55 Q56.3 5.3 50.6 6.15 L49.7 5.9 51.55 0.0 548.55 0.0 M516.35 13.0 L461.75 14.9 Q486.5 15.25 511.2 14.2 513.8 14.3 516.35 13.0 M183.75 10.1 Q207.75 15.3 225.3 10.75 L170.9 8.05 Q177.4 8.7 183.75 10.1 M112.9 4.8 Q101.6 1.35 90.85 5.45 L93.4 8.55 116.0 5.85 112.9 4.8" fill="#e3dcd7" fill-rule="evenodd" stroke="none"/>
  </g>
</svg>
