<?xml version="1.0" encoding="UTF-8" standalone="no"?>
<svg xmlns:ffdec="https://www.free-decompiler.com/flash" xmlns:xlink="http://www.w3.org/1999/xlink" ffdec:objectType="shape" height="400.0px" width="601.65px" xmlns="http://www.w3.org/2000/svg">
  <g transform="matrix(1.0, 0.0, 0.0, 1.0, 0.0, 0.0)">
    <path d="M558.3 0.05 Q558.25 0.45 558.75 0.9 559.2 1.3 559.8 1.45 L561.0 1.55 565.1 1.6 565.2 2.05 565.65 2.5 Q567.55 3.25 569.75 3.25 L576.65 3.5 582.2 3.85 590.95 4.9 595.7 5.3 597.5 5.55 578.0 16.75 589.9 21.95 587.45 25.9 582.4 25.65 578.35 23.45 563.75 16.5 561.95 11.5 562.05 11.45 Q569.95 15.4 573.5 8.25 L573.25 7.5 Q567.2 0.15 560.35 7.05 L557.85 0.0 558.3 0.05 M594.55 50.3 Q596.4 48.55 600.0 48.6 L600.0 51.85 593.4 53.5 594.55 50.3 M550.5 0.0 L549.25 9.1 539.75 9.9 Q543.45 12.15 521.55 10.25 L509.8 0.0 550.5 0.0 M541.85 8.4 L541.85 2.8 536.25 2.8 536.25 8.4 536.85 8.7 539.6 9.8 539.55 9.8 Q539.4 9.5 541.4 8.7 L541.85 8.4 M459.55 8.35 L464.65 10.65 Q462.6 11.65 461.25 11.15 460.05 10.5 459.55 8.35 M347.6 57.9 L355.25 43.95 Q360.35 44.3 364.6 42.55 365.5 42.1 365.5 39.6 L365.6 39.5 Q401.8 20.5 397.2 47.85 396.8 50.15 394.5 52.2 L390.15 51.6 367.4 55.1 371.65 55.1 357.5 60.8 353.85 58.65 347.65 58.15 347.55 58.15 347.6 57.9 M365.9 75.45 Q354.7 94.25 362.0 71.75 L366.1 74.6 365.9 75.45 M323.9 63.75 L301.6 65.35 Q312.8 74.2 301.65 76.1 L295.9 76.6 287.45 76.4 281.35 62.6 321.3 60.35 323.9 63.75 M299.15 44.3 Q293.8 41.2 293.2 38.1 L298.0 38.1 299.15 44.3 M292.3 28.9 L291.3 28.9 291.2 28.65 283.0 16.2 Q287.75 12.1 290.3 6.95 291.35 4.8 290.25 1.55 L289.35 0.0 291.9 0.0 291.8 1.5 Q291.8 6.25 296.3 9.65 300.75 13.0 307.05 13.0 L310.45 10.6 Q311.3 16.45 308.8 24.65 L292.3 28.9 M247.3 15.45 L236.25 25.6 243.7 0.0 249.7 0.0 249.05 2.0 247.3 15.45 M171.6 155.7 L142.0 158.75 123.75 163.85 110.5 152.75 144.95 143.4 Q148.55 144.8 151.5 143.95 152.95 143.45 153.75 140.7 L171.7 155.6 171.6 155.7 M115.85 169.05 L91.75 176.2 150.25 168.7 153.75 165.3 212.25 163.15 221.35 165.65 226.0 167.3 226.5 167.5 238.95 174.05 241.75 174.85 241.85 175.9 202.05 172.3 219.9 177.95 216.35 178.6 215.5 178.4 214.85 178.75 71.2 193.8 93.1 200.15 67.2 195.1 64.4 195.15 43.8 202.9 Q34.9 206.95 33.0 211.1 L39.95 211.25 Q9.75 256.0 27.4 238.55 29.55 236.4 33.55 236.1 33.75 239.05 35.3 240.9 36.8 242.7 38.85 242.5 40.85 242.25 42.2 240.15 43.5 238.0 43.3 235.35 L45.75 235.15 37.7 251.65 182.0 258.8 Q175.15 264.3 171.55 271.45 170.75 273.05 173.15 276.25 L150.55 274.75 178.4 283.3 78.55 282.4 55.15 264.2 48.15 283.85 47.65 285.25 43.55 283.3 28.85 276.15 28.3 281.45 4.45 258.6 Q6.5 257.65 6.75 256.3 6.95 255.35 5.3 254.05 L1.95 251.45 6.15 253.45 41.45 272.15 10.15 247.3 7.85 231.8 20.75 214.65 0.0 234.75 0.0 229.55 15.1 209.65 82.55 169.45 115.85 169.05 M285.95 204.1 L294.8 201.5 Q290.5 206.1 291.2 209.65 295.45 230.6 298.85 204.45 L343.55 214.15 325.05 204.5 360.15 215.25 417.85 225.15 417.95 224.45 418.0 225.2 417.85 225.15 417.85 225.2 382.45 225.1 425.35 247.5 313.9 229.55 303.0 229.55 324.2 217.75 311.55 214.7 292.5 233.75 Q283.9 236.3 280.1 240.95 L284.95 243.0 286.95 274.45 366.35 284.25 388.1 268.65 Q393.65 274.75 400.6 278.0 403.1 279.15 406.95 277.4 L398.0 301.85 376.2 303.1 333.05 299.75 307.7 287.0 290.0 295.15 Q285.85 294.6 282.9 296.2 281.7 296.8 281.7 299.55 L279.4 299.55 274.9 289.65 280.2 277.5 271.5 241.9 270.2 240.65 279.0 211.0 285.95 204.1 M435.65 222.7 L417.95 224.45 Q415.0 221.5 415.55 219.5 421.0 199.8 435.65 222.7 M408.85 340.85 L461.45 302.5 475.25 309.65 462.25 329.25 439.5 325.8 447.0 338.8 419.05 342.7 427.4 354.65 Q419.7 354.65 414.3 350.6 408.85 346.55 408.85 340.85 M455.8 400.0 L469.8 381.6 467.5 394.05 512.7 338.25 504.0 355.45 467.75 400.0 455.8 400.0 M470.5 349.35 L460.1 353.95 461.7 352.35 458.2 350.45 Q457.55 336.65 464.0 343.6 465.95 345.7 470.25 345.7 L470.5 349.35 M551.45 280.6 Q549.5 280.6 548.1 278.6 546.7 276.55 546.7 273.65 L555.8 273.2 554.85 277.95 551.45 280.6 M546.95 273.05 Q546.35 267.65 548.6 264.05 549.05 263.35 552.35 264.4 L546.95 273.05 M592.3 300.35 L600.0 299.8 600.0 305.6 580.8 315.35 557.0 319.75 592.3 300.35 M600.0 289.35 L557.95 300.45 600.0 282.05 600.0 289.35 M600.0 266.9 L585.85 273.3 Q589.25 261.6 595.05 251.3 596.65 248.35 600.0 247.8 L600.0 266.9 M600.0 230.55 L536.7 234.25 558.6 226.1 531.7 200.5 577.05 217.85 570.6 198.7 581.65 203.05 577.7 187.35 555.7 177.55 524.0 173.45 519.8 172.3 510.5 162.35 527.8 163.65 531.5 163.4 Q539.5 162.15 544.15 159.0 L540.8 157.1 542.3 153.1 578.25 152.65 600.0 168.7 600.0 208.75 Q598.05 208.7 596.7 209.45 595.3 210.2 595.3 211.25 595.3 212.3 596.7 213.05 598.05 213.8 600.0 213.8 L600.0 230.55 M493.35 169.6 L493.05 169.5 494.2 168.35 494.25 169.35 493.35 169.6 M493.0 160.05 L487.15 163.3 465.3 162.6 482.45 166.9 476.6 172.05 444.7 170.9 434.2 160.95 478.75 146.65 482.35 148.0 Q490.15 151.55 497.95 155.15 L493.0 160.05 M443.65 132.85 L427.65 134.45 Q428.35 131.9 429.2 131.25 L435.55 131.1 Q439.55 131.45 443.65 132.85 M494.0 35.3 L479.75 27.25 496.5 11.25 512.8 21.05 502.5 32.6 519.45 31.25 499.95 35.0 494.0 35.3 M543.35 70.85 L549.4 52.4 560.9 54.55 Q561.45 54.25 562.0 54.1 562.75 54.45 562.8 54.9 562.85 55.35 562.2 55.9 L561.1 56.8 558.25 58.55 543.5 71.15 543.35 70.85 M447.5 5.35 Q448.05 4.75 448.85 4.75 449.65 4.75 450.25 5.35 450.8 5.9 450.8 6.7 450.8 7.5 450.25 8.1 449.65 8.65 448.85 8.65 448.05 8.65 447.5 8.1 446.9 7.5 446.9 6.7 446.9 5.9 447.5 5.35 M459.65 42.45 Q454.7 39.55 455.1 38.0 455.55 36.2 461.3 35.75 L459.65 42.45 M438.55 0.0 L436.5 9.8 417.95 19.6 438.5 23.15 419.45 25.6 393.3 16.55 390.75 13.65 398.7 0.0 438.55 0.0 M366.1 0.0 L357.75 6.2 355.65 11.9 Q352.95 10.6 352.35 3.6 L349.45 0.0 366.1 0.0 M337.55 4.55 Q340.6 11.7 338.25 15.7 334.55 21.95 325.5 25.0 L318.85 7.8 337.55 4.55 M363.45 38.8 L356.1 42.35 369.45 18.0 364.05 38.25 363.45 38.8 M324.85 126.3 Q356.25 119.95 327.25 130.4 326.85 130.65 324.85 126.35 L324.8 126.35 324.85 126.3 M361.35 101.5 Q357.7 111.4 354.05 97.8 L361.35 101.5 M526.9 254.55 L521.25 282.65 499.15 291.9 478.15 274.45 477.65 256.4 493.45 252.45 493.75 278.45 510.85 261.7 526.9 254.55 M374.9 287.9 Q372.9 285.9 370.05 285.9 367.2 285.9 365.2 287.9 363.2 289.9 363.2 292.75 363.2 295.6 365.2 297.6 367.2 299.6 370.05 299.6 372.9 299.6 374.9 297.6 376.9 295.6 376.9 292.75 376.9 289.9 374.9 287.9 M394.25 400.0 Q392.85 398.25 393.25 397.35 394.45 394.85 397.45 393.2 L398.15 392.65 404.2 400.0 394.25 400.0 M415.35 400.0 L393.95 379.45 424.8 400.0 415.35 400.0 M341.1 333.45 L301.35 327.5 320.75 345.85 368.3 373.15 336.05 369.4 320.75 345.85 321.9 366.85 320.25 365.3 Q319.9 366.15 321.25 368.5 L285.65 400.0 171.05 400.0 107.7 354.2 160.75 338.1 112.05 341.4 92.5 331.75 97.4 330.7 172.55 326.9 165.25 336.75 193.7 328.15 202.85 329.2 256.6 330.75 214.9 313.6 229.6 311.75 258.1 315.7 274.1 318.05 Q277.65 344.6 296.15 327.95 L296.9 326.9 297.45 325.5 341.1 333.45 M599.55 216.95 Q598.35 216.05 599.55 217.05 L599.55 216.95 M495.8 318.75 L494.5 310.0 516.7 308.3 495.8 318.75 M260.55 25.45 L278.05 45.55 262.4 48.5 242.4 35.75 260.55 25.45 M303.35 80.05 L319.85 74.6 330.55 84.4 303.35 80.05 M212.85 27.75 L210.9 17.9 Q211.4 14.65 210.05 12.65 208.3 10.05 204.75 8.7 L213.75 0.0 214.55 0.0 223.45 12.9 Q223.0 20.05 219.45 25.05 217.7 27.5 212.85 27.75 M204.7 0.0 L170.15 7.25 160.35 0.0 204.7 0.0 M87.25 45.1 L82.85 39.1 125.15 19.5 123.3 28.9 115.65 32.3 Q110.1 31.2 105.9 33.05 104.2 33.85 103.85 37.6 L87.25 45.1 M77.9 0.0 L84.65 17.1 75.0 17.3 70.05 0.0 77.9 0.0 M62.55 0.0 L57.55 7.4 54.45 0.05 62.55 0.0 M6.1 0.0 L16.3 18.8 0.0 6.95 Q0.0 3.45 1.7 1.5 3.05 0.0 6.1 0.0 M0.0 10.3 L2.2 32.85 0.0 33.45 0.0 10.3 M6.25 93.05 L13.05 88.15 Q14.0 88.15 14.7 87.7 15.35 87.2 15.35 86.5 L20.85 82.75 59.8 92.05 32.4 96.35 Q43.9 98.5 53.6 104.0 66.9 111.45 55.85 118.65 L20.3 102.55 Q17.95 102.55 16.3 101.45 14.65 100.3 14.65 98.75 L6.25 93.05 M33.25 73.6 L51.45 70.2 52.95 72.6 Q60.35 85.15 33.25 73.6 M140.05 43.25 L156.75 35.75 187.3 45.0 196.0 59.1 Q192.45 56.6 190.75 57.55 182.6 62.0 176.3 69.85 L132.55 74.05 121.5 61.8 128.05 82.45 122.4 80.8 110.35 56.5 140.05 43.25 M188.7 78.55 L186.85 79.15 155.35 82.65 190.55 71.9 188.7 78.55 M115.1 141.25 L113.7 143.6 96.75 148.1 59.5 156.9 59.45 156.7 112.35 129.9 116.8 131.4 115.1 141.25 M203.25 18.4 L203.25 29.95 187.55 29.95 187.55 18.4 203.25 18.4 M166.9 48.45 Q166.9 46.9 165.4 45.85 163.9 44.75 161.8 44.75 159.7 44.75 158.2 45.85 156.7 46.9 156.7 48.45 156.7 50.0 158.2 51.1 159.7 52.15 161.8 52.15 163.9 52.15 165.4 51.1 166.9 50.0 166.9 48.45 M193.6 256.6 L212.4 253.0 178.95 275.6 178.3 275.6 193.6 256.6 M240.3 247.65 L250.2 245.75 Q247.7 252.3 243.25 256.3 L241.3 253.8 240.65 250.75 240.3 247.65 M293.1 157.55 L293.75 158.3 293.15 158.45 293.1 157.55 M133.5 24.3 Q131.8 20.25 129.05 17.65 L148.2 11.4 133.5 24.3 M85.15 82.7 L85.1 82.7 85.15 82.65 85.15 82.7 M117.85 118.45 Q105.8 118.45 97.3 112.2 90.05 106.9 88.95 99.75 L87.85 98.15 86.2 95.0 85.85 94.05 81.25 89.3 Q81.95 89.3 82.5 88.3 83.0 87.25 83.0 85.8 L103.15 87.45 99.55 91.35 Q105.5 96.85 115.05 98.5 L117.85 118.45 M153.6 68.75 L153.6 61.45 139.55 61.45 139.55 68.75 153.6 68.75 M58.7 27.05 L49.4 45.65 40.15 27.05 58.7 27.05 M0.0 63.15 L0.0 47.25 27.55 51.7 0.0 63.15 M0.0 122.55 L16.3 130.8 32.0 155.75 0.0 151.05 0.0 122.55 M0.0 164.45 L21.45 188.65 2.65 205.2 Q5.5 200.1 4.95 195.4 4.2 189.15 0.0 183.35 L0.0 164.45 M94.7 301.5 L127.0 303.3 84.85 313.95 84.25 313.95 94.7 301.5 M59.55 319.65 L55.25 321.95 11.45 336.15 Q16.5 331.25 18.95 326.8 L0.0 330.35 0.0 322.9 1.75 323.75 43.3 303.25 30.0 319.7 47.4 315.55 49.15 315.15 Q49.85 314.7 49.85 314.1 L59.55 319.65 M26.15 337.55 L24.7 338.65 0.0 342.85 0.0 336.8 26.15 337.55 M77.0 335.0 Q82.05 333.4 85.2 332.75 L83.25 333.7 66.3 353.25 99.15 360.35 107.3 374.9 141.75 386.25 124.85 398.2 98.05 389.1 87.1 377.45 69.05 371.0 67.9 370.5 67.0 370.85 65.15 371.75 56.3 379.0 Q53.2 377.75 53.15 376.35 52.9 370.5 55.7 364.5 L34.85 378.0 43.85 400.0 26.0 400.0 17.65 372.9 17.8 400.0 8.65 400.0 0.05 395.45 0.0 395.6 0.0 381.0 43.05 344.0 77.0 335.0 M174.55 306.1 L180.6 304.7 195.3 302.45 206.75 313.75 204.85 318.0 174.55 306.1 M29.3 321.25 Q28.1 320.05 26.45 320.05 24.8 320.05 23.65 321.25 22.45 322.4 22.45 324.1 22.45 325.8 23.65 327.0 24.8 328.15 26.45 328.15 28.1 328.15 29.3 327.0 30.45 325.8 30.45 324.1 30.45 322.4 29.3 321.25 M54.6 394.4 Q56.9 394.4 58.55 391.25 60.2 388.1 60.2 383.65 L78.15 377.05 59.05 400.0 56.95 400.0 54.6 394.4 M215.3 295.45 L202.15 294.6 Q184.45 279.45 207.05 293.0 L247.4 286.25 215.3 295.45 M166.75 348.55 Q143.85 355.5 143.85 365.3 143.85 375.1 166.75 382.05 189.65 389.0 222.0 389.0 254.35 389.0 277.25 382.05 300.15 375.1 300.15 365.3 300.15 355.5 277.25 348.55 254.35 341.6 222.0 341.6 189.65 341.6 166.75 348.55" fill="#999999" fill-rule="evenodd" stroke="none"/>
    <path d="M589.9 21.95 L600.0 23.2 600.0 48.6 Q596.4 48.55 594.55 50.3 L598.85 32.8 587.45 25.9 589.9 21.95 M562.05 11.45 L561.95 11.5 563.75 16.5 539.4 29.65 549.25 9.1 550.5 0.0 557.85 0.0 560.35 7.05 561.9 11.3 562.05 11.45 M502.85 101.7 L493.1 88.55 507.05 50.5 524.8 38.9 562.35 43.35 Q554.9 36.1 561.0 28.2 L579.4 34.4 568.9 44.1 563.35 55.15 562.8 54.9 Q562.75 54.45 562.0 54.1 561.45 54.25 560.9 54.55 L549.4 52.4 543.35 70.85 539.9 57.25 528.55 75.55 525.9 86.6 517.35 90.2 524.3 53.8 502.25 82.45 510.95 94.8 516.65 91.15 515.25 95.55 503.25 101.7 502.9 101.8 503.05 101.55 502.85 101.7 M569.85 58.75 L573.1 56.55 573.2 57.4 576.25 56.1 581.15 60.4 577.5 72.7 589.0 66.7 Q593.6 63.05 600.0 57.3 L600.0 138.9 576.5 136.2 572.75 89.65 567.65 127.05 561.85 130.3 545.1 124.15 542.75 98.75 532.4 126.35 539.1 149.05 527.8 163.65 510.5 162.35 510.45 148.7 497.95 155.15 Q490.15 151.55 482.35 148.0 L502.25 145.75 Q499.0 142.0 499.85 140.3 502.8 134.35 509.8 130.45 L511.65 130.35 Q514.2 130.3 516.05 128.9 517.9 127.45 517.9 125.4 L517.75 123.55 Q517.75 103.5 528.3 89.35 538.8 75.2 553.65 75.2 L548.45 97.4 550.55 98.45 553.5 94.25 563.7 64.55 Q566.7 61.15 569.85 58.75 M509.8 0.0 L521.55 10.25 535.6 29.05 505.05 43.55 510.3 36.3 503.6 37.25 499.95 35.0 519.45 31.25 512.8 21.05 496.5 11.25 479.75 27.25 494.0 35.3 491.95 52.6 Q480.55 30.85 470.2 53.6 469.65 54.75 469.6 56.15 L492.2 55.2 490.85 61.8 478.55 77.1 449.65 88.3 458.4 70.2 416.7 110.45 416.0 111.85 399.2 132.05 429.2 131.25 Q428.35 131.9 427.65 134.45 L443.65 132.85 441.55 135.55 Q440.4 136.6 439.15 136.9 L425.15 144.9 423.95 144.85 384.85 154.45 407.8 152.15 420.15 156.55 422.85 159.6 458.35 141.7 463.5 115.4 491.95 113.05 486.9 140.45 478.75 146.65 434.2 160.95 444.7 170.9 445.8 173.95 434.95 172.2 465.25 202.6 474.45 183.1 453.4 182.95 476.6 172.05 482.45 166.9 487.15 163.3 493.0 160.05 494.2 168.35 493.05 169.5 493.35 169.6 491.25 173.05 489.7 172.9 468.7 197.75 471.3 219.6 Q487.95 228.95 505.8 232.95 520.65 236.25 536.7 234.25 L600.0 230.55 600.0 247.8 Q596.65 248.35 595.05 251.3 589.25 261.6 585.85 273.3 L600.0 266.9 600.0 282.05 557.95 300.45 600.0 289.35 600.0 299.8 592.3 300.35 483.35 344.0 487.9 331.1 Q531.75 301.7 575.55 272.25 576.25 269.9 576.15 267.4 L575.85 262.3 Q574.45 238.7 561.7 257.5 L554.85 277.95 555.8 273.2 552.35 264.4 Q549.05 263.35 548.6 264.05 546.35 267.65 546.95 273.05 L546.7 273.65 Q546.7 276.55 548.1 278.6 549.5 280.6 551.45 280.6 L545.55 283.6 Q541.05 274.35 542.45 262.2 L528.85 286.1 487.85 298.95 457.4 239.25 467.3 271.25 473.3 275.15 469.35 277.9 474.35 294.05 Q444.05 291.65 479.65 310.6 L470.25 345.7 Q465.95 345.7 464.0 343.6 457.55 336.65 458.2 350.45 L452.7 357.35 Q457.4 356.2 460.1 353.95 L470.5 349.35 477.65 352.3 469.8 381.6 455.8 400.0 455.5 400.0 Q455.5 381.15 448.15 367.8 440.75 354.45 430.35 354.45 L443.35 353.7 Q440.7 351.95 440.95 350.9 442.5 344.5 447.0 338.8 L439.5 325.8 462.25 329.25 475.25 309.65 461.45 302.5 408.85 340.85 409.5 324.6 448.3 301.6 383.05 324.05 389.9 329.0 341.85 321.25 351.5 311.95 314.5 298.35 333.05 299.75 376.2 303.1 401.65 311.25 431.25 283.85 431.5 279.1 416.25 260.8 451.65 290.2 451.95 290.1 458.8 276.0 431.45 247.9 425.35 247.5 382.45 225.1 417.85 225.2 417.85 225.15 418.0 225.2 417.95 224.45 435.65 222.7 434.7 227.7 447.85 230.8 460.75 218.6 421.45 171.1 380.15 176.65 368.45 175.65 352.2 185.3 Q363.35 167.9 347.2 185.6 L349.7 187.15 359.2 209.85 360.15 215.25 325.05 204.5 343.55 214.15 298.85 204.45 302.05 201.0 299.95 200.3 294.8 201.5 285.95 204.1 300.4 193.45 344.25 200.4 337.3 188.3 329.25 180.4 332.25 179.55 320.1 158.45 321.25 156.95 322.6 157.75 334.1 163.0 337.8 162.25 343.65 152.9 329.7 155.0 356.75 136.65 351.95 103.2 267.05 140.0 262.85 137.65 243.15 129.85 217.85 135.05 247.8 138.85 253.4 154.6 212.25 163.15 153.75 165.3 150.25 168.7 91.75 176.2 115.85 169.05 123.75 163.85 142.0 158.75 171.6 155.7 157.9 162.45 201.3 143.25 172.85 126.05 157.05 131.15 146.9 133.7 131.8 140.55 133.05 123.45 149.7 109.95 160.65 107.9 163.5 105.85 Q165.05 109.9 163.75 116.0 L235.6 50.45 256.8 48.0 Q244.85 45.85 235.95 34.3 225.0 20.1 225.0 0.0 L243.7 0.0 236.25 25.6 247.3 15.45 278.9 20.85 274.25 2.35 Q261.05 15.0 268.5 3.45 269.55 1.85 270.2 0.0 L289.35 0.0 290.25 1.55 Q291.35 4.8 290.3 6.95 287.75 12.1 283.0 16.2 L291.2 28.65 286.55 24.15 291.3 28.9 292.3 28.9 Q294.65 28.9 296.35 31.6 298.0 34.3 298.0 38.1 L293.2 38.1 Q293.8 41.2 299.15 44.3 287.85 64.95 314.65 57.85 317.45 57.1 321.3 60.35 L281.35 62.6 265.95 76.1 265.75 76.45 265.8 76.15 261.3 60.7 251.0 93.7 229.65 87.2 227.95 86.95 249.1 100.35 272.15 92.3 274.1 87.85 Q269.15 87.9 266.6 85.5 264.6 83.55 265.0 79.2 L265.05 78.85 268.3 84.0 287.45 76.4 295.9 76.6 295.7 77.0 Q301.85 84.5 301.65 76.1 312.8 74.2 301.6 65.35 L323.9 63.75 349.05 87.35 347.65 58.15 353.85 58.65 357.5 60.8 371.65 55.1 383.3 55.2 366.1 74.6 362.0 71.75 Q354.7 94.25 365.9 75.45 L372.1 97.05 372.5 95.0 389.35 83.3 396.2 99.55 409.6 72.05 445.1 66.0 418.3 59.95 406.9 61.35 389.15 77.6 372.0 86.95 371.9 85.2 394.5 52.2 Q396.8 50.15 397.2 47.85 401.8 20.5 365.6 39.5 L365.5 39.6 Q365.5 42.1 364.6 42.55 360.35 44.3 355.25 43.95 L347.6 57.9 344.9 42.7 366.55 16.3 406.0 31.55 Q408.7 41.75 415.2 48.15 417.3 50.25 423.2 48.55 L437.3 47.7 423.7 46.25 459.3 27.8 440.75 27.95 464.65 10.65 459.55 8.35 Q459.15 6.4 458.0 5.6 455.65 3.95 452.55 3.5 451.75 3.5 451.2 2.5 450.65 1.45 450.65 0.0 L469.55 0.0 Q469.55 7.85 472.9 13.4 476.2 18.9 480.9 18.9 485.6 18.9 488.95 13.4 492.25 7.85 492.2 0.0 L509.8 0.0 M536.9 99.85 L534.2 97.35 Q528.2 97.35 524.0 103.7 519.75 110.05 519.75 119.0 526.65 119.0 531.55 115.8 536.2 112.7 536.4 108.35 L536.9 99.85 M546.45 122.0 L562.5 126.05 554.0 113.6 546.45 122.0 M555.7 177.55 L577.7 187.35 581.65 203.05 570.6 198.7 565.25 182.8 Q561.3 182.8 558.5 181.25 555.7 179.7 555.7 177.55 M598.1 108.85 L580.95 103.0 578.55 116.3 579.25 117.55 597.45 114.6 598.15 113.8 598.1 108.85 M600.0 208.75 L600.0 213.8 Q598.05 213.8 596.7 213.05 595.3 212.3 595.3 211.25 595.3 210.2 596.7 209.45 598.05 208.7 600.0 208.75 M486.3 86.8 L494.8 104.6 479.5 100.45 472.85 90.4 486.3 86.8 M461.3 35.75 Q455.55 36.2 455.1 38.0 454.7 39.55 459.65 42.45 L430.65 57.7 456.45 63.05 465.05 76.85 471.05 20.25 461.3 35.75 M379.0 1.3 L375.75 0.0 380.05 0.0 379.0 1.3 M334.35 35.85 Q333.35 36.05 332.55 36.8 331.45 37.85 331.45 39.35 L314.9 37.85 334.35 35.85 M363.45 38.8 L364.05 38.25 369.45 18.0 356.1 42.35 363.45 38.8 M347.65 58.15 L347.55 58.15 347.65 58.15 M397.0 115.75 L372.1 116.5 Q350.45 110.9 377.95 125.4 L397.0 115.75 M373.05 148.4 Q367.9 140.0 364.95 142.2 350.15 153.15 338.05 167.8 L375.65 150.95 373.05 148.4 M324.85 126.3 L324.8 126.35 324.85 126.35 Q326.85 130.65 327.25 130.4 356.25 119.95 324.85 126.3 M348.8 109.05 L349.05 128.5 332.1 140.6 315.1 132.65 348.8 109.05 M336.05 157.2 Q336.05 157.9 335.4 158.45 334.75 158.95 333.85 158.95 332.95 158.95 332.3 158.45 331.65 157.9 331.65 157.2 331.65 156.5 332.3 156.0 332.95 155.45 333.85 155.45 334.75 155.45 335.4 156.0 336.05 156.5 336.05 157.2 M327.6 155.35 L322.95 154.9 Q325.05 152.6 327.2 154.8 L327.6 155.35 M474.8 138.55 L486.3 114.15 Q480.5 114.15 476.4 117.1 472.25 120.0 472.25 124.15 L470.7 132.45 Q472.25 136.55 474.8 138.55 M361.35 101.5 L354.05 97.8 Q357.7 111.4 361.35 101.5 M458.25 233.2 L476.75 237.1 Q471.4 231.6 465.25 230.2 462.15 229.65 458.25 233.2 M510.85 261.7 L493.75 278.45 493.45 252.45 477.65 256.4 478.15 274.45 499.15 291.9 521.25 282.65 526.9 254.55 510.2 256.5 510.85 261.7 M374.9 287.9 Q376.9 289.9 376.9 292.75 376.9 295.6 374.9 297.6 372.9 299.6 370.05 299.6 367.2 299.6 365.2 297.6 363.2 295.6 363.2 292.75 363.2 289.9 365.2 287.9 367.2 285.9 370.05 285.9 372.9 285.9 374.9 287.9 M406.95 277.4 Q403.1 279.15 400.6 278.0 393.65 274.75 388.1 268.65 L406.95 277.4 M284.95 243.0 L280.1 240.95 Q283.9 236.3 292.5 233.75 L303.0 229.55 313.9 229.55 284.95 243.0 M404.2 400.0 L398.15 392.65 397.45 393.2 Q394.45 394.85 393.25 397.35 392.85 398.25 394.25 400.0 L382.5 400.0 321.9 366.85 320.75 345.85 336.05 369.4 368.3 373.15 320.75 345.85 301.35 327.5 341.1 333.45 Q381.45 333.45 410.0 352.95 438.55 372.45 438.55 400.0 L424.8 400.0 393.95 379.45 415.35 400.0 404.2 400.0 M548.0 335.1 Q547.95 338.85 546.65 341.45 545.25 344.15 543.35 344.05 541.45 343.95 540.15 341.15 538.9 338.5 538.85 335.0 538.95 337.1 540.15 338.7 541.45 340.5 543.35 340.55 545.25 340.6 546.65 338.9 547.9 337.35 548.0 335.1 M504.0 355.45 L507.65 352.7 523.3 338.7 499.85 366.6 491.1 400.0 467.75 400.0 504.0 355.45 M504.75 400.0 Q506.65 397.65 508.5 397.65 L508.4 400.0 504.75 400.0 M600.0 311.85 L597.9 312.2 578.45 317.4 580.8 315.35 600.0 305.6 600.0 311.85 M260.55 25.45 L242.4 35.75 262.4 48.5 278.05 45.55 260.55 25.45 M248.05 67.65 L247.4 66.95 Q235.6 66.95 227.3 71.15 218.95 75.35 218.95 81.3 L249.5 78.55 248.05 67.65 M303.35 80.05 L330.55 84.4 319.85 74.6 303.35 80.05 M223.05 0.0 L225.1 35.0 212.85 27.75 Q217.7 27.5 219.45 25.05 223.0 20.05 223.45 12.9 L214.55 0.0 223.05 0.0 M210.9 17.9 L204.75 8.7 Q208.3 10.05 210.05 12.65 211.4 14.65 210.9 17.9 M170.15 7.25 L199.6 8.55 159.2 15.8 Q149.65 3.2 149.25 20.35 149.25 21.0 146.25 21.7 L145.55 21.25 87.25 45.1 103.85 37.6 115.65 32.3 123.3 28.9 133.5 24.3 148.2 11.4 129.05 17.65 125.15 19.5 82.85 39.1 92.3 13.7 Q92.3 12.4 93.25 11.5 94.2 10.6 95.55 10.6 97.1 10.6 98.25 8.7 99.35 6.8 99.35 4.15 L96.55 0.0 115.1 0.0 105.5 13.9 123.2 11.95 127.1 0.0 160.35 0.0 170.15 7.25 M84.65 17.1 L64.7 30.0 75.0 17.3 84.65 17.1 M57.55 7.4 Q52.15 9.2 49.1 7.3 46.2 5.5 45.6 0.0 L54.45 0.05 57.55 7.4 M2.2 32.85 Q24.35 33.3 37.95 39.1 51.55 44.85 50.35 52.55 49.1 60.25 33.8 65.4 18.5 70.5 0.0 70.1 L0.0 63.15 27.55 51.7 0.0 47.25 0.0 33.45 2.2 32.85 M0.0 91.5 L6.25 93.05 14.65 98.75 Q14.65 100.3 16.3 101.45 17.95 102.55 20.3 102.55 L55.85 118.65 79.15 111.1 80.5 105.6 59.8 92.05 20.85 82.75 Q29.4 81.0 35.6 76.45 L33.25 73.6 Q60.35 85.15 52.95 72.6 L68.95 72.35 66.6 74.5 Q66.6 76.0 65.15 77.1 63.65 78.15 61.6 78.15 L86.4 80.4 89.4 79.45 91.0 79.8 113.15 71.65 100.2 54.65 140.05 43.25 110.35 56.5 122.4 80.8 133.95 107.3 128.95 117.75 115.1 141.25 116.8 131.4 112.35 129.9 59.45 156.7 59.5 156.9 58.9 157.05 Q59.2 156.9 59.45 156.7 L94.7 123.45 86.1 105.05 84.8 123.5 54.6 122.4 72.9 127.75 55.3 138.3 21.45 128.8 47.6 146.45 39.55 163.95 15.0 158.1 28.6 168.9 11.0 165.4 26.8 186.05 21.35 198.3 0.0 213.55 0.0 208.75 2.65 205.2 21.45 188.65 0.0 164.45 0.0 151.05 32.0 155.75 41.0 144.1 16.3 130.8 0.0 122.55 0.0 91.5 M187.3 45.0 Q196.5 44.65 203.55 49.4 210.55 54.1 210.95 61.05 211.35 68.0 204.9 73.15 198.45 78.25 188.7 78.55 L190.55 71.9 196.0 59.1 187.3 45.0 M147.05 84.55 L146.5 84.5 148.3 84.1 147.05 84.55 M145.65 140.45 L153.35 138.6 145.15 143.05 145.65 140.45 M171.7 155.6 L171.75 155.65 171.6 155.7 171.7 155.6 M239.25 105.0 L224.1 99.55 187.45 106.4 177.65 115.7 199.0 131.2 239.25 105.0 M226.1 167.05 Q231.4 167.05 235.2 169.1 238.95 171.15 238.95 174.05 L226.5 167.5 226.0 167.3 226.1 167.05 M241.75 174.85 L243.7 174.6 243.85 174.55 249.85 176.7 249.75 177.8 267.4 192.15 Q276.5 204.1 275.6 213.95 L279.0 211.0 270.2 240.65 264.75 226.05 264.25 224.7 263.4 223.7 Q260.2 222.9 260.0 221.65 259.3 216.8 261.6 211.55 L264.7 198.05 Q255.75 195.7 248.85 190.7 247.75 189.8 248.7 186.2 L236.75 181.2 216.35 178.95 216.35 178.6 219.9 177.95 202.05 172.3 241.85 175.9 241.75 174.85 M102.85 202.4 L103.3 202.55 Q104.0 202.85 103.35 203.65 L102.85 202.4 M103.65 204.9 L116.35 202.95 118.1 208.45 78.35 222.1 Q72.0 219.85 68.8 220.95 L72.0 224.3 52.95 230.85 Q52.95 220.1 67.8 212.5 82.65 204.9 103.65 204.9 M120.5 202.35 L138.4 201.45 121.05 207.4 120.5 202.35 M182.0 258.8 Q186.35 255.25 191.25 254.35 192.15 254.15 193.6 256.6 L178.3 275.6 173.15 276.25 Q170.75 273.05 171.55 271.45 175.15 264.3 182.0 258.8 M212.4 253.0 L227.75 250.05 Q227.25 254.1 228.65 260.15 230.05 266.2 232.75 268.05 235.4 269.9 237.9 266.5 240.35 263.05 241.3 253.8 L243.25 256.3 Q247.7 252.3 250.2 245.75 L258.9 239.85 264.35 226.2 261.3 239.95 242.6 276.4 227.35 278.6 216.7 269.7 182.25 291.15 76.7 294.8 60.85 280.95 58.15 285.05 48.15 283.85 55.15 264.2 78.55 282.4 178.4 283.3 Q180.45 283.4 182.15 282.35 183.8 281.3 183.95 279.75 184.1 278.15 182.7 276.95 181.25 275.75 178.95 275.6 L212.4 253.0 M283.1 158.65 L280.7 160.7 274.45 158.9 274.45 157.35 Q274.4 151.2 279.55 149.95 L283.45 158.15 283.1 158.65 M273.65 178.15 L281.15 176.6 281.0 179.35 283.25 184.85 Q279.6 184.25 273.65 178.15 M293.1 157.55 L293.15 158.45 288.2 158.3 Q288.05 153.6 288.6 153.5 290.5 153.25 293.1 157.55 M268.45 109.9 L330.1 97.75 290.55 88.15 268.45 109.9 M85.15 82.7 L85.15 82.65 85.1 82.7 85.15 82.7 M103.15 87.45 L83.0 85.8 Q83.0 87.25 82.5 88.3 81.95 89.3 81.25 89.3 L85.85 94.05 86.2 95.0 87.85 98.15 88.95 99.75 Q90.05 106.9 97.3 112.2 105.8 118.45 117.85 118.45 119.65 121.55 121.85 119.1 L122.4 118.45 127.75 102.0 Q127.75 95.95 120.55 91.7 113.35 87.45 103.15 87.45 M160.95 95.7 L159.1 95.75 156.75 95.5 Q159.45 94.0 166.0 92.9 L160.95 95.7 M15.55 35.45 Q12.65 35.45 10.6 36.85 8.55 38.25 8.55 40.25 8.55 42.25 10.6 43.65 12.65 45.05 15.55 45.05 18.45 45.05 20.5 43.65 22.55 42.25 22.55 40.25 22.55 38.25 20.5 36.85 18.45 35.45 15.55 35.45 M159.1 117.25 L155.0 116.5 140.35 129.2 142.35 130.4 Q149.3 130.4 154.2 126.55 157.8 123.7 158.8 120.0 L159.1 118.0 159.1 117.25 M6.15 253.45 L1.95 251.45 0.0 250.05 0.0 242.45 Q5.7 246.85 8.8 252.35 L6.15 253.45 M28.3 281.45 L28.85 276.15 43.55 283.3 28.3 281.45 M0.0 273.55 L12.5 279.3 0.0 293.05 0.0 273.55 M9.05 291.35 L65.55 305.1 77.6 299.7 94.7 301.5 84.25 313.95 Q50.55 306.05 62.95 314.8 L59.55 319.65 49.85 314.1 Q49.85 314.7 49.15 315.15 L47.4 315.55 30.0 319.7 43.3 303.25 1.75 323.75 0.0 322.9 0.0 316.1 9.05 291.35 M55.25 321.95 L26.15 337.55 0.0 336.8 0.0 330.35 18.95 326.8 Q16.5 331.25 11.45 336.15 L55.25 321.95 M24.7 338.65 L0.0 349.05 0.0 342.85 24.7 338.65 M0.0 351.35 L77.0 335.0 43.05 344.0 0.0 361.45 0.0 351.35 M83.25 333.7 L92.5 331.75 112.05 341.4 160.75 338.1 107.7 354.2 171.05 400.0 133.95 400.0 124.85 398.2 141.75 386.25 107.3 374.9 99.15 360.35 66.3 353.25 83.25 333.7 M97.4 330.7 L153.95 317.85 149.35 305.9 132.35 309.25 Q162.7 285.95 155.5 303.0 L174.55 306.1 204.85 318.0 206.75 313.75 195.3 302.45 180.6 304.7 194.3 297.15 229.6 311.75 214.9 313.6 256.6 330.75 202.85 329.2 168.3 316.2 193.7 328.15 165.25 336.75 172.55 326.9 97.4 330.7 M258.1 315.7 Q270.4 301.15 271.45 313.5 271.65 315.85 274.1 318.05 L258.1 315.7 M29.3 321.25 Q30.45 322.4 30.45 324.1 30.45 325.8 29.3 327.0 28.1 328.15 26.45 328.15 24.8 328.15 23.65 327.0 22.45 325.8 22.45 324.1 22.45 322.4 23.65 321.25 24.8 320.05 26.45 320.05 28.1 320.05 29.3 321.25 M56.3 379.0 L65.15 371.75 67.0 370.85 67.9 370.5 69.05 371.0 60.2 383.65 Q60.2 388.1 58.55 391.25 56.9 394.4 54.6 394.4 L49.35 395.25 Q50.2 387.55 56.3 379.0 M87.1 377.45 L98.05 389.1 95.6 400.0 71.6 400.0 87.1 377.45 M59.05 400.0 L78.15 377.05 Q87.85 386.05 66.4 399.1 66.2 399.2 66.5 400.0 L59.05 400.0 M98.2 340.3 Q95.45 337.55 91.55 337.55 87.65 337.55 84.9 340.3 82.15 343.05 82.15 346.9 82.15 350.75 84.9 353.5 87.65 356.25 91.55 356.25 95.45 356.25 98.2 353.5 100.95 350.75 100.95 346.9 100.95 343.05 98.2 340.3 M285.65 400.0 L321.25 368.5 328.75 400.0 285.65 400.0 M261.7 271.25 Q260.0 271.6 261.25 269.55 L261.7 271.25 M279.4 299.55 Q275.05 298.3 273.85 295.6 272.8 293.35 274.9 289.65 L279.4 299.55 M281.7 299.55 Q281.7 296.8 282.9 296.2 285.85 294.6 290.0 295.15 L325.35 314.75 281.7 299.55 M216.0 241.25 Q217.5 242.75 217.5 244.9 217.5 247.05 216.0 248.6 214.45 250.1 212.3 250.1 210.15 250.1 208.65 248.6 207.1 247.05 207.1 244.9 207.1 242.75 208.65 241.25 210.15 239.7 212.3 239.7 214.45 239.7 216.0 241.25" fill="#666666" fill-rule="evenodd" stroke="none"/>
    <path d="M29.55 0.0 L29.45 1.2 Q28.55 1.2 27.65 0.0 L29.55 0.0" fill="#333333" fill-rule="evenodd" stroke="none"/>
    <path d="M541.85 8.4 L541.4 8.7 Q539.4 9.5 539.55 9.8 L539.6 9.8 536.85 8.7 536.25 8.4 536.25 2.8 541.85 2.8 541.85 8.4 M291.3 28.9 L286.55 24.15 291.2 28.65 291.3 28.9 M511.95 400.0 L512.1 399.75 Q512.4 399.6 512.55 400.0 L511.95 400.0 M264.35 226.2 L264.25 224.7 264.75 226.05 264.35 226.2 M174.85 204.95 L174.1 200.35 Q176.55 203.8 176.9 206.1 L174.85 204.95 M202.85 329.2 L193.7 328.15 168.3 316.2 202.85 329.2" fill="#000000" fill-rule="evenodd" stroke="none"/>
    <path d="M578.35 23.45 L582.4 25.65 Q580.7 25.65 579.55 25.0 578.35 24.35 578.35 23.45 M563.35 55.15 L559.4 63.05 569.85 58.75 Q566.7 61.15 563.7 64.55 L556.65 70.55 Q550.95 73.45 545.2 74.25 544.4 73.75 543.5 71.15 L558.25 58.55 561.1 56.8 562.2 55.9 Q562.85 55.35 562.8 54.9 L563.35 55.15 M491.25 173.05 L493.35 169.6 494.25 169.35 519.8 172.3 524.0 173.45 491.25 173.05 M441.55 135.55 L443.65 132.85 Q439.55 131.45 435.55 131.1 L450.0 130.7 441.55 135.55 M525.9 86.6 L515.25 95.55 516.65 91.15 517.35 90.2 525.9 86.6 M502.9 101.8 L502.85 101.7 503.05 101.55 502.9 101.8 M567.65 127.05 Q567.3 129.5 566.0 130.25 564.4 131.15 561.85 130.3 L567.65 127.05 M542.05 141.9 L541.3 137.9 Q549.25 136.55 557.9 139.05 L542.05 141.9 M531.5 163.4 L540.8 157.1 544.15 159.0 Q539.5 162.15 531.5 163.4 M542.3 153.1 Q553.35 148.25 564.35 143.45 L600.0 165.7 600.0 168.7 578.25 152.65 542.3 153.1 M438.5 23.15 L424.6 33.8 393.3 16.55 419.45 25.6 438.5 23.15 M390.75 13.65 L389.95 0.0 398.7 0.0 390.75 13.65 M383.15 0.0 L379.0 1.3 380.05 0.0 383.15 0.0 M331.45 39.35 Q331.45 37.85 332.55 36.8 333.35 36.05 334.35 35.85 L331.45 39.35 M599.55 216.95 L599.55 217.05 Q598.35 216.05 599.55 216.95 M13.05 88.15 L15.35 86.5 Q15.35 87.2 14.7 87.7 14.0 88.15 13.05 88.15 M186.85 79.15 L147.05 84.55 148.3 84.1 155.35 82.65 186.85 79.15 M15.1 209.65 L73.1 165.85 82.55 169.45 15.1 209.65 M106.15 154.2 L145.65 140.45 145.15 143.05 144.95 143.4 110.5 152.75 106.15 154.2 M153.75 138.5 L171.7 155.6 153.75 140.7 153.75 138.5 M166.9 48.45 Q166.9 50.0 165.4 51.1 163.9 52.15 161.8 52.15 159.7 52.15 158.2 51.1 156.7 50.0 156.7 48.45 156.7 46.9 158.2 45.85 159.7 44.75 161.8 44.75 163.9 44.75 165.4 45.85 166.9 46.9 166.9 48.45 M226.1 167.05 L226.0 167.3 221.35 165.65 226.1 167.05 M216.35 178.95 L214.85 178.75 215.5 178.4 216.35 178.6 216.35 178.95 M238.4 248.0 L240.3 247.65 240.65 250.75 238.4 248.0 M283.1 158.65 L283.45 158.15 283.45 158.65 283.1 158.65 M153.6 68.75 L139.55 68.75 139.55 61.45 153.6 61.45 153.6 68.75 M134.75 91.05 Q135.3 91.85 134.6 90.95 L134.75 91.05 M127.0 303.3 L125.6 315.5 84.85 313.95 127.0 303.3 M17.8 400.0 L17.65 372.9 26.0 400.0 17.8 400.0 M174.1 200.35 L174.85 204.95 150.15 202.25 174.1 200.35" fill="#424242" fill-rule="evenodd" stroke="none"/>
    <path d="M423.7 46.25 L437.3 47.7 423.2 48.55 423.7 46.25 M372.0 86.95 L389.15 77.6 406.9 61.35 418.3 59.95 445.1 66.0 409.6 72.05 396.2 99.55 389.35 83.3 372.5 95.0 372.0 86.95 M383.3 55.2 L371.65 55.1 367.4 55.1 390.15 51.6 383.3 55.2 M287.45 76.4 L268.3 84.0 265.05 78.85 265.75 76.45 265.95 76.1 281.35 62.6 287.45 76.4 M123.75 163.85 L115.85 169.05 82.55 169.45 73.1 165.85 106.15 154.2 110.5 152.75 123.75 163.85 M329.7 155.0 L343.65 152.9 337.8 162.25 334.1 163.0 322.6 157.75 321.25 156.95 322.95 154.9 327.6 155.35 329.7 155.0 M294.8 201.5 L299.95 200.3 302.05 201.0 298.85 204.45 Q295.45 230.6 291.2 209.65 290.5 206.1 294.8 201.5 M360.15 215.25 L359.2 209.85 349.7 187.15 352.2 185.3 368.45 175.65 380.15 176.65 421.45 171.1 460.75 218.6 447.85 230.8 434.7 227.7 435.65 222.7 Q421.0 199.8 415.55 219.5 415.0 221.5 417.95 224.45 L417.85 225.15 360.15 215.25 M425.35 247.5 L431.45 247.9 458.8 276.0 451.95 290.1 451.65 290.2 416.25 260.8 431.5 279.1 431.25 283.85 401.65 311.25 376.2 303.1 398.0 301.85 406.95 277.4 388.1 268.65 366.35 284.25 286.95 274.45 284.95 243.0 313.9 229.55 425.35 247.5 M447.0 338.8 Q442.5 344.5 440.95 350.9 440.7 351.95 443.35 353.7 L430.35 354.45 427.4 354.65 419.05 342.7 447.0 338.8 M469.8 381.6 L477.65 352.3 Q480.0 352.3 481.7 349.9 483.35 347.45 483.35 344.0 L592.3 300.35 557.0 319.75 580.8 315.35 578.45 317.4 597.9 312.2 600.0 311.85 600.0 400.0 512.55 400.0 Q512.4 399.6 512.1 399.75 L511.95 400.0 508.4 400.0 508.5 397.65 Q506.65 397.65 504.75 400.0 L491.1 400.0 499.85 366.6 523.3 338.7 507.65 352.7 504.0 355.45 512.7 338.25 467.5 394.05 469.8 381.6 M460.1 353.95 Q457.4 356.2 452.7 357.35 L458.2 350.45 461.7 352.35 460.1 353.95 M546.7 273.65 L546.95 273.05 552.35 264.4 555.8 273.2 546.7 273.65 M536.7 234.25 Q520.65 236.25 505.8 232.95 487.95 228.95 471.3 219.6 L468.7 197.75 489.7 172.9 491.25 173.05 524.0 173.45 555.7 177.55 Q555.7 179.7 558.5 181.25 561.3 182.8 565.25 182.8 L570.6 198.7 577.05 217.85 531.7 200.5 558.6 226.1 536.7 234.25 M487.15 163.3 L482.45 166.9 465.3 162.6 487.15 163.3 M476.6 172.05 L453.4 182.95 445.8 173.95 444.7 170.9 476.6 172.05 M492.2 55.2 L469.6 56.15 Q469.65 54.75 470.2 53.6 480.55 30.85 491.95 52.6 L492.2 55.2 M516.65 91.15 L510.95 94.8 502.25 82.45 524.3 53.8 517.35 90.2 516.65 91.15 M556.65 70.55 L563.7 64.55 553.5 94.25 550.55 98.45 548.45 97.4 553.65 75.2 556.65 70.55 M536.9 99.85 L536.4 108.35 Q536.2 112.7 531.55 115.8 526.65 119.0 519.75 119.0 519.75 110.05 524.0 103.7 528.2 97.35 534.2 97.35 L536.9 99.85 M546.45 122.0 L554.0 113.6 562.5 126.05 546.45 122.0 M598.1 108.85 L598.15 113.8 597.45 114.6 579.25 117.55 578.55 116.3 580.95 103.0 598.1 108.85 M336.05 157.2 Q336.05 156.5 335.4 156.0 334.75 155.45 333.85 155.45 332.95 155.45 332.3 156.0 331.65 156.5 331.65 157.2 331.65 157.9 332.3 158.45 332.95 158.95 333.85 158.95 334.75 158.95 335.4 158.45 336.05 157.9 336.05 157.2 M474.8 138.55 Q472.25 136.55 470.7 132.45 L472.25 124.15 Q472.25 120.0 476.4 117.1 480.5 114.15 486.3 114.15 L474.8 138.55 M458.25 233.2 Q462.15 229.65 465.25 230.2 471.4 231.6 476.75 237.1 L458.25 233.2 M526.9 254.55 L510.85 261.7 510.2 256.5 526.9 254.55 M292.5 233.75 L311.55 214.7 324.2 217.75 303.0 229.55 292.5 233.75 M321.9 366.85 L382.5 400.0 328.75 400.0 321.25 368.5 Q319.9 366.15 320.25 365.3 L321.9 366.85 M548.0 335.1 Q548.05 332.6 546.75 330.8 545.4 328.95 543.5 328.95 541.6 328.9 540.25 330.7 538.85 332.45 538.85 335.0 538.9 338.5 540.15 341.15 541.45 343.95 543.35 344.05 545.25 344.15 546.65 341.45 547.95 338.85 548.0 335.1 M248.05 67.65 L249.5 78.55 218.95 81.3 Q218.95 75.35 227.3 71.15 235.6 66.95 247.4 66.95 L248.05 67.65 M146.5 84.5 L128.05 82.45 121.5 61.8 132.55 74.05 176.3 69.85 Q182.6 62.0 190.75 57.55 192.45 56.6 196.0 59.1 L190.55 71.9 155.35 82.65 148.3 84.1 146.5 84.5 M153.35 138.6 L153.75 138.5 153.75 140.7 Q152.95 143.45 151.5 143.95 148.55 144.8 144.95 143.4 L145.15 143.05 153.35 138.6 M239.25 105.0 L199.0 131.2 177.65 115.7 187.45 106.4 224.1 99.55 239.25 105.0 M214.85 178.75 L216.35 178.95 236.75 181.2 248.7 186.2 Q247.75 189.8 248.85 190.7 255.75 195.7 264.7 198.05 L261.6 211.55 Q259.3 216.8 260.0 221.65 260.2 222.9 263.4 223.7 L264.25 224.7 264.35 226.2 258.9 239.85 250.2 245.75 240.3 247.65 238.4 248.0 227.75 250.05 212.4 253.0 193.6 256.6 Q192.15 254.15 191.25 254.35 186.35 255.25 182.0 258.8 L37.7 251.65 45.75 235.15 52.95 230.85 72.0 224.3 78.35 222.1 118.1 208.45 121.05 207.4 138.4 201.45 120.5 202.35 116.35 202.95 103.65 204.9 103.35 203.65 Q104.0 202.85 103.3 202.55 L102.85 202.4 93.1 200.15 71.2 193.8 214.85 178.75 M268.45 109.9 L290.55 88.15 330.1 97.75 268.45 109.9 M117.85 118.45 L115.05 98.5 Q105.5 96.85 99.55 91.35 L103.15 87.45 Q113.35 87.45 120.55 91.7 127.75 95.95 127.75 102.0 L122.4 118.45 121.85 119.1 Q119.65 121.55 117.85 118.45 M55.85 118.65 Q66.9 111.45 53.6 104.0 43.9 98.5 32.4 96.35 L59.8 92.05 80.5 105.6 79.15 111.1 55.85 118.65 M32.0 155.75 L16.3 130.8 41.0 144.1 32.0 155.75 M2.65 205.2 L0.0 208.75 0.0 183.35 Q4.2 189.15 4.95 195.4 5.5 200.1 2.65 205.2 M43.8 202.9 L39.95 211.25 33.0 211.1 Q34.9 206.95 43.8 202.9 M159.1 117.25 L159.1 118.0 158.8 120.0 Q157.8 123.7 154.2 126.55 149.3 130.4 142.35 130.4 L140.35 129.2 155.0 116.5 159.1 117.25 M0.0 234.75 L20.75 214.65 7.85 231.8 10.15 247.3 41.45 272.15 6.15 253.45 8.8 252.35 Q5.7 246.85 0.0 242.45 L0.0 234.75 M12.5 279.3 L9.05 291.35 0.0 316.1 0.0 293.05 12.5 279.3 M0.0 361.45 L43.05 344.0 0.0 381.0 0.0 361.45 M0.0 395.6 L0.05 395.45 8.65 400.0 8.0 400.0 0.0 400.0 0.0 396.55 0.1 396.5 0.0 395.6 M43.85 400.0 L34.85 378.0 55.7 364.5 Q52.9 370.5 53.15 376.35 53.2 377.75 56.3 379.0 50.2 387.55 49.35 395.25 L54.6 394.4 56.95 400.0 43.85 400.0 M69.05 371.0 L87.1 377.45 71.6 400.0 66.5 400.0 Q66.2 399.2 66.4 399.1 87.85 386.05 78.15 377.05 L60.2 383.65 69.05 371.0 M98.05 389.1 L124.85 398.2 133.95 400.0 95.6 400.0 98.05 389.1 M216.0 241.25 Q214.45 239.7 212.3 239.7 210.15 239.7 208.65 241.25 207.1 242.75 207.1 244.9 207.1 247.05 208.65 248.6 210.15 250.1 212.3 250.1 214.45 250.1 216.0 248.6 217.5 247.05 217.5 244.9 217.5 242.75 216.0 241.25 M174.85 204.95 L176.9 206.1 Q176.55 203.8 174.1 200.35 L150.15 202.25 174.85 204.95 M166.75 348.55 Q189.65 341.6 222.0 341.6 254.35 341.6 277.25 348.55 300.15 355.5 300.15 365.3 300.15 375.1 277.25 382.05 254.35 389.0 222.0 389.0 189.65 389.0 166.75 382.05 143.85 375.1 143.85 365.3 143.85 355.5 166.75 348.55" fill="#cccccc" fill-rule="evenodd" stroke="none"/>
    <path d="M600.0 23.2 L589.9 21.95 578.0 16.75 597.5 5.55 595.7 5.3 590.95 4.9 582.2 3.85 576.65 3.5 569.75 3.25 Q567.55 3.25 565.65 2.5 L565.2 2.05 565.1 1.6 561.0 1.55 559.8 1.45 Q559.2 1.3 558.75 0.9 558.25 0.45 558.3 0.05 L558.3 0.0 601.6 0.0 601.65 1.15 Q601.45 2.95 601.55 4.75 601.75 6.7 600.0 6.5 L600.0 23.2 M587.45 25.9 L598.85 32.8 594.55 50.3 593.4 53.5 600.0 51.85 600.0 57.3 Q593.6 63.05 589.0 66.7 L577.5 72.7 581.15 60.4 576.25 56.1 573.2 57.4 573.1 56.55 569.85 58.75 559.4 63.05 563.35 55.15 568.9 44.1 579.4 34.4 561.0 28.2 Q554.9 36.1 562.35 43.35 L524.8 38.9 507.05 50.5 493.1 88.55 502.85 101.7 502.9 101.8 503.25 101.7 515.25 95.55 525.9 86.6 528.55 75.55 539.9 57.25 543.35 70.85 543.5 71.15 Q544.4 73.75 545.2 74.25 550.95 73.45 556.65 70.55 L553.65 75.2 Q538.8 75.2 528.3 89.35 517.75 103.5 517.75 123.55 L517.9 125.4 Q517.9 127.45 516.05 128.9 514.2 130.3 511.65 130.35 L509.8 130.45 Q502.8 134.35 499.85 140.3 499.0 142.0 502.25 145.75 L482.35 148.0 478.75 146.65 486.9 140.45 491.95 113.05 463.5 115.4 458.35 141.7 422.85 159.6 420.15 156.55 407.8 152.15 384.85 154.45 423.95 144.85 425.15 144.9 439.15 136.9 Q440.4 136.6 441.55 135.55 L450.0 130.7 435.55 131.1 429.2 131.25 399.2 132.05 416.0 111.85 416.7 110.45 458.4 70.2 449.65 88.3 478.55 77.1 490.85 61.8 492.2 55.2 491.95 52.6 494.0 35.3 499.95 35.0 503.6 37.25 510.3 36.3 505.05 43.55 535.6 29.05 521.55 10.25 Q543.45 12.15 539.75 9.9 L549.25 9.1 539.4 29.65 563.75 16.5 578.35 23.45 Q578.35 24.35 579.55 25.0 580.7 25.65 582.4 25.65 L587.45 25.9 M560.35 7.05 Q567.2 0.15 573.25 7.5 L573.5 8.25 Q569.95 15.4 562.05 11.45 L561.9 11.3 560.35 7.05 M492.2 0.0 Q492.25 7.85 488.95 13.4 485.6 18.9 480.9 18.9 476.2 18.9 472.9 13.4 469.55 7.85 469.55 0.0 L492.2 0.0 M450.65 0.0 Q450.65 1.45 451.2 2.5 451.75 3.5 452.55 3.5 455.65 3.95 458.0 5.6 459.15 6.4 459.55 8.35 460.05 10.5 461.25 11.15 462.6 11.65 464.65 10.65 L440.75 27.95 459.3 27.8 423.7 46.25 423.2 48.55 Q417.3 50.25 415.2 48.15 408.7 41.75 406.0 31.55 L366.55 16.3 344.9 42.7 347.6 57.9 347.55 58.15 347.65 58.15 349.05 87.35 323.9 63.75 321.3 60.35 Q317.45 57.1 314.65 57.85 287.85 64.95 299.15 44.3 L298.0 38.1 Q298.0 34.3 296.35 31.6 294.65 28.9 292.3 28.9 L308.8 24.65 Q311.3 16.45 310.45 10.6 L307.05 13.0 Q300.75 13.0 296.3 9.65 291.8 6.25 291.8 1.5 L291.9 0.0 349.45 0.0 352.35 3.6 Q352.95 10.6 355.65 11.9 L357.75 6.2 366.1 0.0 375.75 0.0 379.0 1.3 383.15 0.0 389.95 0.0 390.75 13.65 393.3 16.55 424.6 33.8 438.5 23.15 417.95 19.6 436.5 9.8 438.55 0.0 450.65 0.0 M394.5 52.2 L371.9 85.2 372.0 86.95 372.5 95.0 372.1 97.05 365.9 75.45 366.1 74.6 383.3 55.2 390.15 51.6 394.5 52.2 M301.65 76.1 Q301.85 84.5 295.7 77.0 L295.9 76.6 301.65 76.1 M265.05 78.85 L265.0 79.2 Q264.6 83.55 266.6 85.5 269.15 87.9 274.1 87.85 L272.15 92.3 249.1 100.35 227.95 86.95 229.65 87.2 251.0 93.7 261.3 60.7 265.8 76.15 265.75 76.45 265.05 78.85 M270.2 0.0 Q269.55 1.85 268.5 3.45 261.05 15.0 274.25 2.35 L278.9 20.85 247.3 15.45 249.05 2.0 249.7 0.0 270.2 0.0 M225.0 0.0 Q225.0 20.1 235.95 34.3 244.85 45.85 256.8 48.0 L235.6 50.45 163.75 116.0 Q165.05 109.9 163.5 105.85 L160.65 107.9 149.7 109.95 133.05 123.45 131.8 140.55 146.9 133.7 157.05 131.15 172.85 126.05 201.3 143.25 157.9 162.45 171.6 155.7 171.75 155.65 171.7 155.6 153.75 138.5 153.35 138.6 145.65 140.45 106.15 154.2 73.1 165.85 15.1 209.65 0.0 229.55 0.0 213.55 21.35 198.3 26.8 186.05 11.0 165.4 28.6 168.9 15.0 158.1 39.55 163.95 47.6 146.45 21.45 128.8 55.3 138.3 72.9 127.75 54.6 122.4 84.8 123.5 86.1 105.05 94.7 123.45 59.45 156.7 Q59.2 156.9 58.9 157.05 L59.5 156.9 96.75 148.1 113.7 143.6 115.1 141.25 128.95 117.75 133.95 107.3 122.4 80.8 128.05 82.45 146.5 84.5 147.05 84.55 186.85 79.15 188.7 78.55 Q198.45 78.25 204.9 73.15 211.35 68.0 210.95 61.05 210.55 54.1 203.55 49.4 196.5 44.65 187.3 45.0 L156.75 35.75 140.05 43.25 100.2 54.65 113.15 71.65 91.0 79.8 89.4 79.45 86.4 80.4 61.6 78.15 Q63.65 78.15 65.15 77.1 66.6 76.0 66.6 74.5 L68.95 72.35 52.95 72.6 51.45 70.2 33.25 73.6 35.6 76.45 Q29.4 81.0 20.85 82.75 L15.35 86.5 13.05 88.15 6.25 93.05 0.0 91.5 0.0 70.1 Q18.5 70.5 33.8 65.4 49.1 60.25 50.35 52.55 51.55 44.85 37.95 39.1 24.35 33.3 2.2 32.85 L0.0 10.3 0.0 6.95 16.3 18.8 6.1 0.0 27.65 0.0 Q28.55 1.2 29.45 1.2 L29.55 0.0 45.6 0.0 Q46.2 5.5 49.1 7.3 52.15 9.2 57.55 7.4 L62.55 0.0 70.05 0.0 75.0 17.3 64.7 30.0 84.65 17.1 77.9 0.0 96.55 0.0 99.35 4.15 Q99.35 6.8 98.25 8.7 97.1 10.6 95.55 10.6 94.2 10.6 93.25 11.5 92.3 12.4 92.3 13.7 L82.85 39.1 87.25 45.1 145.55 21.25 146.25 21.7 Q149.25 21.0 149.25 20.35 149.65 3.2 159.2 15.8 L199.6 8.55 170.15 7.25 204.7 0.0 213.75 0.0 204.75 8.7 210.9 17.9 212.85 27.75 225.1 35.0 223.05 0.0 225.0 0.0 M212.25 163.15 L253.4 154.6 247.8 138.85 217.85 135.05 243.15 129.85 262.85 137.65 267.05 140.0 351.95 103.2 356.75 136.65 329.7 155.0 327.6 155.35 327.2 154.8 Q325.05 152.6 322.95 154.9 L321.25 156.95 320.1 158.45 332.25 179.55 329.25 180.4 337.3 188.3 344.25 200.4 300.4 193.45 285.95 204.1 279.0 211.0 275.6 213.95 Q276.5 204.1 267.4 192.15 L249.75 177.8 249.85 176.7 243.85 174.55 243.7 174.6 241.75 174.85 238.95 174.05 Q238.95 171.15 235.2 169.1 231.4 167.05 226.1 167.05 L221.35 165.65 212.25 163.15 M349.7 187.15 L347.2 185.6 Q363.35 167.9 352.2 185.3 L349.7 187.15 M333.05 299.75 L314.5 298.35 351.5 311.95 341.85 321.25 389.9 329.0 383.05 324.05 448.3 301.6 409.5 324.6 408.85 340.85 Q408.85 346.55 414.3 350.6 419.7 354.65 427.4 354.65 L430.35 354.45 Q440.75 354.45 448.15 367.8 455.5 381.15 455.5 400.0 L438.55 400.0 Q438.55 372.45 410.0 352.95 381.45 333.45 341.1 333.45 L297.45 325.5 296.9 326.9 296.15 327.95 Q277.65 344.6 274.1 318.05 271.65 315.85 271.45 313.5 270.4 301.15 258.1 315.7 L229.6 311.75 194.3 297.15 180.6 304.7 174.55 306.1 155.5 303.0 Q162.7 285.95 132.35 309.25 L149.35 305.9 153.95 317.85 97.4 330.7 92.5 331.75 83.25 333.7 85.2 332.75 Q82.05 333.4 77.0 335.0 L0.0 351.35 0.0 349.05 24.7 338.65 26.15 337.55 55.25 321.95 59.55 319.65 62.95 314.8 Q50.55 306.05 84.25 313.95 L84.85 313.95 125.6 315.5 127.0 303.3 94.7 301.5 77.6 299.7 65.55 305.1 9.05 291.35 12.5 279.3 0.0 273.55 0.0 250.05 1.95 251.45 5.3 254.05 Q6.95 255.35 6.75 256.3 6.5 257.65 4.45 258.6 L28.3 281.45 43.55 283.3 47.65 285.25 48.15 283.85 58.15 285.05 60.85 280.95 76.7 294.8 182.25 291.15 216.7 269.7 227.35 278.6 242.6 276.4 261.3 239.95 264.35 226.2 264.75 226.05 270.2 240.65 271.5 241.9 280.2 277.5 274.9 289.65 Q272.8 293.35 273.85 295.6 275.05 298.3 279.4 299.55 L281.7 299.55 325.35 314.75 290.0 295.15 307.7 287.0 333.05 299.75 M477.65 352.3 L470.5 349.35 470.25 345.7 479.65 310.6 Q444.05 291.65 474.35 294.05 L469.35 277.9 473.3 275.15 467.3 271.25 457.4 239.25 487.85 298.95 528.85 286.1 542.45 262.2 Q541.05 274.35 545.55 283.6 L551.45 280.6 554.85 277.95 561.7 257.5 Q574.45 238.7 575.85 262.3 L576.15 267.4 Q576.25 269.9 575.55 272.25 531.75 301.7 487.9 331.1 L483.35 344.0 Q483.35 347.45 481.7 349.9 480.0 352.3 477.65 352.3 M494.2 168.35 L493.0 160.05 497.95 155.15 510.45 148.7 510.5 162.35 519.8 172.3 494.25 169.35 494.2 168.35 M453.4 182.95 L474.45 183.1 465.25 202.6 434.95 172.2 445.8 173.95 453.4 182.95 M512.8 21.05 L519.45 31.25 502.5 32.6 512.8 21.05 M542.05 141.9 L557.9 139.05 Q549.25 136.55 541.3 137.9 L542.05 141.9 M561.85 130.3 Q564.4 131.15 566.0 130.25 567.3 129.5 567.65 127.05 L572.75 89.65 576.5 136.2 600.0 138.9 600.0 165.7 564.35 143.45 Q553.35 148.25 542.3 153.1 L540.8 157.1 531.5 163.4 527.8 163.65 539.1 149.05 532.4 126.35 542.75 98.75 545.1 124.15 561.85 130.3 M486.3 86.8 L472.85 90.4 479.5 100.45 494.8 104.6 486.3 86.8 M447.5 5.35 Q446.9 5.9 446.9 6.7 446.9 7.5 447.5 8.1 448.05 8.65 448.85 8.65 449.65 8.65 450.25 8.1 450.8 7.5 450.8 6.7 450.8 5.9 450.25 5.35 449.65 4.75 448.85 4.75 448.05 4.75 447.5 5.35 M459.65 42.45 L461.3 35.75 471.05 20.25 465.05 76.85 456.45 63.05 430.65 57.7 459.65 42.45 M337.55 4.55 L318.85 7.8 325.5 25.0 Q334.55 21.95 338.25 15.7 340.6 11.7 337.55 4.55 M331.45 39.35 L334.35 35.85 314.9 37.85 331.45 39.35 M373.05 148.4 L375.65 150.95 338.05 167.8 Q350.15 153.15 364.95 142.2 367.9 140.0 373.05 148.4 M397.0 115.75 L377.95 125.4 Q350.45 110.9 372.1 116.5 L397.0 115.75 M348.8 109.05 L315.1 132.65 332.1 140.6 349.05 128.5 348.8 109.05 M538.85 335.0 Q538.85 332.45 540.25 330.7 541.6 328.9 543.5 328.95 545.4 328.95 546.75 330.8 548.05 332.6 548.0 335.1 547.9 337.35 546.65 338.9 545.25 340.6 543.35 340.55 541.45 340.5 540.15 338.7 538.95 337.1 538.85 335.0 M495.8 318.75 L516.7 308.3 494.5 310.0 495.8 318.75 M203.25 18.4 L187.55 18.4 187.55 29.95 203.25 29.95 203.25 18.4 M93.1 200.15 L102.85 202.4 103.35 203.65 103.65 204.9 Q82.65 204.9 67.8 212.5 52.95 220.1 52.95 230.85 L45.75 235.15 43.3 235.35 Q43.5 238.0 42.2 240.15 40.85 242.25 38.85 242.5 36.8 242.7 35.3 240.9 33.75 239.05 33.55 236.1 29.55 236.4 27.4 238.55 9.75 256.0 39.95 211.25 L43.8 202.9 64.4 195.15 67.2 195.1 93.1 200.15 M116.35 202.95 L120.5 202.35 121.05 207.4 118.1 208.45 116.35 202.95 M78.35 222.1 L72.0 224.3 68.8 220.95 Q72.0 219.85 78.35 222.1 M227.75 250.05 L238.4 248.0 240.65 250.75 241.3 253.8 Q240.35 263.05 237.9 266.5 235.4 269.9 232.75 268.05 230.05 266.2 228.65 260.15 227.25 254.1 227.75 250.05 M283.45 158.15 L279.55 149.95 Q274.4 151.2 274.45 157.35 L274.45 158.9 280.7 160.7 283.1 158.65 283.45 158.65 283.45 158.15 M273.65 178.15 Q279.6 184.25 283.25 184.85 L281.0 179.35 281.15 176.6 273.65 178.15 M293.15 158.45 L293.75 158.3 293.1 157.55 Q290.5 153.25 288.6 153.5 288.05 153.6 288.2 158.3 L293.15 158.45 M129.05 17.65 Q131.8 20.25 133.5 24.3 L123.3 28.9 125.15 19.5 129.05 17.65 M127.1 0.0 L123.2 11.95 105.5 13.9 115.1 0.0 127.1 0.0 M115.65 32.3 L103.85 37.6 Q104.2 33.85 105.9 33.05 110.1 31.2 115.65 32.3 M134.75 91.05 L134.6 90.95 Q135.3 91.85 134.75 91.05 M160.95 95.7 L166.0 92.9 Q159.45 94.0 156.75 95.5 L159.1 95.75 160.95 95.7 M58.7 27.05 L40.15 27.05 49.4 45.65 58.7 27.05 M15.55 35.45 Q18.45 35.45 20.5 36.85 22.55 38.25 22.55 40.25 22.55 42.25 20.5 43.65 18.45 45.05 15.55 45.05 12.65 45.05 10.6 43.65 8.55 42.25 8.55 40.25 8.55 38.25 10.6 36.85 12.65 35.45 15.55 35.45 M178.4 283.3 L150.55 274.75 173.15 276.25 178.3 275.6 178.95 275.6 Q181.25 275.75 182.7 276.95 184.1 278.15 183.95 279.75 183.8 281.3 182.15 282.35 180.45 283.4 178.4 283.3 M98.2 340.3 Q100.95 343.05 100.95 346.9 100.95 350.75 98.2 353.5 95.45 356.25 91.55 356.25 87.65 356.25 84.9 353.5 82.15 350.75 82.15 346.9 82.15 343.05 84.9 340.3 87.65 337.55 91.55 337.55 95.45 337.55 98.2 340.3 M261.7 271.25 L261.25 269.55 Q260.0 271.6 261.7 271.25 M215.3 295.45 L247.4 286.25 207.05 293.0 Q184.45 279.45 202.15 294.6 L215.3 295.45" fill="#3d3d3d" fill-rule="evenodd" stroke="none"/>
  </g>
</svg>
