<?xml version="1.0" encoding="UTF-8" standalone="no"?>
<svg xmlns:ffdec="https://www.free-decompiler.com/flash" xmlns:xlink="http://www.w3.org/1999/xlink" ffdec:objectType="shape" height="400.0px" width="600.0px" xmlns="http://www.w3.org/2000/svg">
  <g transform="matrix(1.0, 0.0, 0.0, 1.0, 0.0, 0.0)">
    <path d="M233.5 89.0 L233.5 88.7 242.65 88.55 233.5 89.0 M163.6 81.5 L163.35 81.5 163.35 81.25 163.6 81.4 163.6 81.5 M465.1 189.6 L465.1 189.3 471.4 189.5 471.4 190.2 465.1 189.6 M563.2 269.6 L563.2 270.05 562.75 269.6 563.2 269.6 M280.55 220.65 L280.7 220.7 280.5 220.9 280.55 220.65 M102.55 227.6 L102.5 227.6 102.55 227.55 102.55 227.6" fill="#b9ab95" fill-rule="evenodd" stroke="none"/>
    <path d="M600.0 21.6 L600.0 25.7 301.25 26.2 300.95 25.25 300.2 24.65 Q299.75 24.45 299.3 24.65 298.8 24.8 298.55 25.25 298.25 25.7 298.25 26.25 L0.0 28.55 0.0 24.25 262.2 23.05 264.0 24.25 600.0 21.6 M600.0 86.55 L600.0 91.25 516.2 90.5 515.75 89.9 Q513.8 87.5 512.05 90.45 L511.95 90.45 372.75 88.9 600.0 86.55 M600.0 169.85 L600.0 174.4 302.95 175.25 302.85 175.25 298.9 173.2 298.2 175.25 0.0 177.85 0.0 171.8 370.25 170.1 372.1 171.85 600.0 169.85 M600.0 265.35 L600.0 269.2 563.2 269.6 562.75 269.6 560.7 268.05 559.05 269.6 151.4 273.65 40.4 273.2 37.1 270.85 31.95 273.2 0.0 273.05 0.0 268.25 28.85 268.45 289.8 267.4 600.0 265.35 M600.0 375.7 L600.0 379.1 303.75 381.4 303.4 377.15 600.0 375.7 M0.0 382.1 L0.0 377.8 295.45 377.25 295.55 381.45 63.5 382.4 17.8 382.2 0.0 382.1 M0.0 90.95 L0.0 87.3 85.25 87.35 84.3 90.0 0.0 90.95" fill="#574939" fill-rule="evenodd" stroke="none"/>
    <path d="M600.0 68.85 L600.0 69.85 547.2 67.05 600.0 68.85 M600.0 81.55 L600.0 86.55 372.75 88.9 233.5 89.0 242.65 88.55 233.5 88.7 87.45 90.0 86.05 102.1 196.55 108.0 85.25 105.75 84.15 110.1 162.15 113.85 83.25 113.1 80.65 125.55 133.1 118.8 80.15 127.55 79.0 131.75 118.65 131.9 78.55 133.25 70.7 164.5 280.65 164.8 280.8 164.8 280.8 164.6 280.65 164.35 369.8 149.4 320.55 163.4 315.95 164.25 320.7 164.35 529.85 163.25 529.35 160.65 435.35 159.5 528.2 155.75 420.15 155.7 527.4 152.95 523.55 142.5 400.1 155.95 415.55 160.35 398.25 159.15 397.6 154.0 523.35 141.4 520.45 128.15 410.15 136.6 519.9 125.65 519.3 123.1 459.7 125.05 518.9 121.5 511.8 94.0 511.95 91.05 512.05 90.45 Q513.8 87.5 515.75 89.9 L516.2 90.5 522.5 114.35 600.0 113.55 600.0 114.25 523.1 116.65 537.25 164.2 600.0 163.2 600.0 169.85 372.1 171.85 370.25 170.1 0.0 171.8 0.0 165.45 64.5 165.0 68.25 150.9 0.0 158.55 0.0 158.35 68.85 148.55 31.7 147.2 48.35 149.4 4.9 153.4 30.0 147.15 0.0 146.1 0.0 144.35 69.95 144.3 84.3 90.0 85.25 87.35 0.0 87.3 0.0 83.65 124.45 81.4 98.9 77.65 102.15 76.95 103.75 75.2 126.2 81.05 126.15 81.15 126.2 81.15 163.35 81.5 163.6 81.5 298.05 80.55 298.25 26.25 Q298.25 25.7 298.55 25.25 298.8 24.8 299.3 24.65 299.75 24.45 300.2 24.65 L300.95 25.25 301.25 26.2 301.65 80.5 384.7 79.9 316.9 72.35 395.95 57.65 348.15 71.95 600.0 81.55 M600.0 106.85 L600.0 106.95 596.95 106.95 600.0 106.85 M600.0 124.05 L600.0 124.2 544.85 129.5 574.55 133.65 539.35 129.5 566.85 121.0 600.0 124.05 M600.0 125.95 L600.0 127.3 584.55 129.4 600.0 132.3 600.0 133.9 566.9 131.65 568.5 128.15 600.0 125.95 M600.0 198.4 L600.0 199.1 455.4 191.05 465.1 189.6 471.4 190.2 600.0 198.4 M600.0 206.35 L600.0 207.65 526.5 203.5 600.0 206.35 M600.0 258.15 L600.0 265.35 289.8 267.4 28.85 268.45 0.0 268.25 0.0 261.8 298.0 262.55 297.35 225.35 281.4 226.0 280.5 220.9 280.7 220.7 280.55 220.65 236.5 211.1 297.15 223.0 296.9 216.1 210.4 202.35 297.2 209.6 297.3 202.05 193.15 183.7 297.2 200.15 297.1 197.9 276.25 194.35 297.1 197.5 298.2 175.25 298.9 173.2 302.85 175.25 302.95 175.45 303.4 238.5 458.05 231.05 303.45 242.7 303.75 261.7 600.0 258.15 M600.0 365.15 L600.0 375.7 303.4 377.15 303.75 381.4 304.9 392.15 392.45 394.8 303.8 394.0 303.65 400.0 294.6 400.0 295.55 381.45 295.45 377.25 0.0 377.8 0.0 368.9 11.35 368.95 19.6 335.2 0.0 344.0 0.0 340.45 20.75 330.5 23.75 318.3 0.0 328.05 0.0 325.0 Q11.8 323.6 20.65 311.5 18.85 312.45 16.3 313.3 9.4 315.55 0.0 315.85 L0.0 311.9 17.9 305.95 19.5 301.85 Q23.45 303.7 24.15 305.95 31.95 291.95 31.95 273.2 L37.1 270.85 40.4 273.2 37.35 283.05 67.25 291.8 32.85 296.9 31.65 302.5 99.45 300.9 30.9 305.9 27.85 320.2 81.1 328.15 27.25 322.9 24.5 335.95 154.05 356.05 23.55 340.35 22.8 343.85 111.25 353.75 22.25 346.6 21.15 352.4 91.95 365.5 20.0 360.5 17.05 369.0 584.45 365.55 583.1 361.2 569.7 356.0 571.05 356.15 499.95 348.0 581.1 354.4 579.6 348.9 516.05 338.65 578.85 346.15 575.1 332.6 480.0 316.55 574.6 330.5 566.25 297.85 458.75 289.9 565.2 293.35 530.7 285.4 564.75 291.4 559.05 269.6 560.7 268.05 562.75 269.6 563.2 270.05 587.95 357.5 596.35 365.05 600.0 365.15 M12.7 400.0 L0.0 400.0 0.0 397.5 87.15 393.5 12.7 400.0 M0.0 387.05 L0.0 386.45 17.8 382.2 63.5 382.4 83.6 384.25 0.0 387.05 M0.0 299.6 L0.0 298.05 Q8.65 298.35 15.2 300.3 L0.0 299.6 M0.0 289.55 L0.0 286.6 24.8 289.35 0.0 289.55 M0.0 248.3 L0.0 243.9 31.75 241.65 0.0 240.55 0.0 239.5 32.2 232.25 102.55 227.55 102.5 227.6 102.55 227.6 139.45 234.3 24.0 237.65 151.85 245.75 52.65 242.4 0.0 248.3 M0.0 236.45 L0.0 234.4 20.35 233.05 0.0 236.45 M0.0 222.1 L0.0 218.45 77.4 218.1 0.0 222.1 M0.0 214.0 L0.0 213.45 25.8 214.2 0.0 214.0 M0.0 200.5 L0.0 199.5 21.6 197.65 0.0 200.5 M0.0 193.7 L0.0 192.25 14.4 190.35 0.0 193.7 M0.0 135.3 L0.0 133.9 69.7 137.35 0.0 135.3 M0.0 118.65 L0.0 118.25 18.35 119.3 0.0 118.65 M0.0 49.25 L0.0 48.25 Q19.5 47.85 39.0 48.25 L85.25 50.35 0.0 49.25 M0.0 45.7 L0.0 43.15 20.9 42.8 0.0 45.7 M0.0 24.25 L0.0 21.4 101.7 20.35 107.95 0.0 113.3 0.0 112.0 4.75 116.2 4.85 111.8 5.35 109.55 12.15 136.6 13.05 109.2 13.0 106.35 20.1 177.65 20.35 492.0 17.2 492.35 16.9 487.7 0.0 490.75 0.0 491.6 2.15 511.2 3.5 508.65 6.65 492.6 4.75 496.25 17.35 600.0 18.55 600.0 21.6 264.0 24.25 262.2 23.05 0.0 24.25 M551.85 4.2 L550.8 8.55 547.8 7.3 551.85 4.2 M527.9 64.85 L525.9 62.95 578.4 64.05 543.2 65.75 527.9 64.85 M430.35 6.15 L417.4 8.2 375.4 8.85 430.35 6.15 M482.2 70.9 L464.0 71.45 389.3 70.15 494.9 63.9 442.1 68.0 482.2 70.9 M448.4 52.7 L490.95 53.05 479.6 53.55 448.4 52.7 M374.3 59.8 L364.1 62.15 309.1 67.35 374.3 59.8 M465.1 189.3 L398.3 190.0 395.5 188.05 585.5 189.1 471.45 189.5 471.4 189.5 465.1 189.3 M412.3 109.65 L419.45 109.35 418.1 112.05 291.25 121.1 417.7 109.55 412.3 109.65 M385.2 307.65 L405.5 305.35 423.05 299.05 370.6 320.15 366.7 319.25 403.95 305.9 385.2 307.65 M354.85 302.25 L241.0 307.05 Q213.25 307.8 185.5 306.85 L356.95 301.85 354.85 302.25 M480.9 313.1 L420.55 311.9 403.3 309.8 480.9 313.1 M439.75 353.6 L434.9 353.35 433.95 355.25 423.65 356.45 422.75 352.85 430.4 352.45 433.75 350.05 485.6 351.45 435.95 356.9 439.75 353.6 M483.35 222.35 L513.65 225.5 336.3 229.8 483.35 222.35 M163.6 81.4 L163.35 81.25 Q162.85 80.05 163.3 80.85 L163.6 81.4 M275.0 78.35 L207.2 73.95 158.75 65.15 275.0 78.35 M84.2 11.2 Q83.8 12.9 83.3 11.2 L84.2 11.2 M94.85 6.95 L25.25 5.35 97.5 4.4 94.85 6.95 M11.05 124.3 L10.75 124.5 10.45 124.3 11.05 124.3 M5.4 136.15 L5.45 136.1 5.45 136.15 5.4 136.15 M34.85 287.9 L34.25 293.0 63.95 291.3 34.85 287.9 M26.55 201.0 L43.95 198.25 171.4 211.2 26.55 201.0 M76.4 322.35 L118.95 312.45 165.8 313.15 77.55 322.5 82.15 323.7 76.4 322.35 M286.55 333.9 L249.2 341.2 142.6 345.85 286.55 333.9" fill="#8a725b" fill-rule="evenodd" stroke="none"/>
    <path d="M511.95 91.05 L511.95 90.45 512.05 90.45 511.95 91.05" fill="#cec2b5" fill-rule="evenodd" stroke="none"/>
    <path d="M280.65 164.8 L280.65 164.35 280.8 164.6 280.8 164.8 280.65 164.8 M320.55 163.4 L320.7 164.35 315.95 164.25 320.55 163.4 M471.45 189.5 L471.4 190.2 471.4 189.5 471.45 189.5 M465.1 189.3 L465.1 189.6 465.1 189.3 M302.85 175.25 L302.95 175.25 302.95 175.45 302.85 175.25" fill="#c1b4a4" fill-rule="evenodd" stroke="none"/>
    <path d="M126.2 81.15 L126.15 81.15 126.2 81.05 126.2 81.15" fill="#d8cdc5" fill-rule="evenodd" stroke="none"/>
    <path d="M0.0 386.45 L0.0 382.1 17.8 382.2 0.0 386.45" fill="#d1a876" fill-rule="evenodd" stroke="none"/>
    <path d="M600.0 269.2 L600.0 365.15 596.35 365.05 587.95 357.5 563.2 270.05 563.2 269.6 600.0 269.2 M600.0 379.1 L600.0 400.0 303.65 400.0 303.8 394.0 392.45 394.8 304.9 392.15 303.75 381.4 600.0 379.1 M294.6 400.0 L12.7 400.0 87.15 393.5 0.0 397.5 0.0 387.05 83.6 384.25 63.5 382.4 295.55 381.45 294.6 400.0 M0.0 368.9 L0.0 344.0 19.6 335.2 11.35 368.95 0.0 368.9 M0.0 340.45 L0.0 328.05 23.75 318.3 20.75 330.5 0.0 340.45 M0.0 325.0 L0.0 315.85 Q9.4 315.55 16.3 313.3 18.85 312.45 20.65 311.5 11.8 323.6 0.0 325.0 M0.0 311.9 L0.0 299.6 15.2 300.3 Q8.65 298.35 0.0 298.05 L0.0 289.55 24.8 289.35 0.0 286.6 0.0 273.05 31.95 273.2 Q31.95 291.95 24.15 305.95 23.45 303.7 19.5 301.85 L17.9 305.95 0.0 311.9 M354.85 302.25 L356.95 301.85 185.5 306.85 Q213.25 307.8 241.0 307.05 L354.85 302.25 M385.2 307.65 L403.95 305.9 366.7 319.25 370.6 320.15 423.05 299.05 405.5 305.35 385.2 307.65 M439.75 353.6 L435.95 356.9 485.6 351.45 433.75 350.05 430.4 352.45 422.75 352.85 423.65 356.45 433.95 355.25 434.9 353.35 439.75 353.6 M480.9 313.1 L403.3 309.8 420.55 311.9 480.9 313.1 M559.05 269.6 L564.75 291.4 530.7 285.4 565.2 293.35 458.75 289.9 566.25 297.85 574.6 330.5 480.0 316.55 575.1 332.6 578.85 346.15 516.05 338.65 579.6 348.9 581.1 354.4 499.95 348.0 571.05 356.15 569.7 356.0 583.1 361.2 584.45 365.55 17.05 369.0 20.0 360.5 91.95 365.5 21.15 352.4 22.25 346.6 111.25 353.75 22.8 343.85 23.55 340.35 154.05 356.05 24.5 335.95 27.25 322.9 81.1 328.15 27.85 320.2 30.9 305.9 99.45 300.9 31.65 302.5 32.85 296.9 67.25 291.8 37.35 283.05 40.4 273.2 151.4 273.65 559.05 269.6 M34.85 287.9 L63.95 291.3 34.25 293.0 34.85 287.9 M76.4 322.35 L82.15 323.7 77.55 322.5 165.8 313.15 118.95 312.45 76.4 322.35 M286.55 333.9 L142.6 345.85 249.2 341.2 286.55 333.9" fill="#dcbc96" fill-rule="evenodd" stroke="none"/>
    <path d="M600.0 174.4 L600.0 198.4 471.4 190.2 471.45 189.5 585.5 189.1 395.5 188.05 398.3 190.0 465.1 189.3 465.1 189.6 455.4 191.05 600.0 199.1 600.0 206.35 526.5 203.5 600.0 207.65 600.0 258.15 303.75 261.7 303.45 242.7 458.05 231.05 303.4 238.5 302.95 175.45 302.95 175.25 600.0 174.4 M0.0 261.8 L0.0 248.3 52.65 242.4 151.85 245.75 24.0 237.65 139.45 234.3 102.55 227.6 102.55 227.55 32.2 232.25 0.0 239.5 0.0 236.45 20.35 233.05 0.0 234.4 0.0 222.1 77.4 218.1 0.0 218.45 0.0 214.0 25.8 214.2 0.0 213.45 0.0 200.5 21.6 197.65 0.0 199.5 0.0 193.7 14.4 190.35 0.0 192.25 0.0 177.85 298.2 175.25 297.1 197.5 276.25 194.35 297.1 197.9 297.2 200.15 193.15 183.7 297.3 202.05 297.2 209.6 210.4 202.35 296.9 216.1 297.15 223.0 236.5 211.1 280.55 220.65 280.5 220.9 281.4 226.0 297.35 225.35 298.0 262.55 0.0 261.8 M0.0 243.9 L0.0 240.55 31.75 241.65 0.0 243.9 M483.35 222.35 L336.3 229.8 513.65 225.5 483.35 222.35 M26.55 201.0 L171.4 211.2 43.95 198.25 26.55 201.0" fill="#e4cdb1" fill-rule="evenodd" stroke="none"/>
    <path d="M600.0 91.25 L600.0 106.85 596.95 106.95 600.0 106.95 600.0 113.55 522.5 114.35 516.2 90.5 600.0 91.25 M600.0 114.25 L600.0 124.05 566.85 121.0 539.35 129.5 574.55 133.65 544.85 129.5 600.0 124.2 600.0 125.95 568.5 128.15 566.9 131.65 600.0 133.9 600.0 163.2 537.25 164.2 523.1 116.65 600.0 114.25 M600.0 127.3 L600.0 132.3 584.55 129.4 600.0 127.3 M0.0 165.45 L0.0 158.55 68.25 150.9 64.5 165.0 0.0 165.45 M0.0 158.35 L0.0 146.1 30.0 147.15 4.9 153.4 48.35 149.4 31.7 147.2 68.85 148.55 0.0 158.35 M0.0 144.35 L0.0 135.3 69.7 137.35 0.0 133.9 0.0 118.65 18.35 119.3 0.0 118.25 0.0 90.95 84.3 90.0 69.95 144.3 0.0 144.35 M511.95 90.45 L511.95 91.05 511.8 94.0 518.9 121.5 459.7 125.05 519.3 123.1 519.9 125.65 410.15 136.6 520.45 128.15 523.35 141.4 397.6 154.0 398.25 159.15 415.55 160.35 400.1 155.95 523.55 142.5 527.4 152.95 420.15 155.7 528.2 155.75 435.35 159.5 529.35 160.65 529.85 163.25 320.7 164.35 320.55 163.4 369.8 149.4 280.65 164.35 280.65 164.8 70.7 164.5 78.55 133.25 118.65 131.9 79.0 131.75 80.15 127.55 133.1 118.8 80.65 125.55 83.25 113.1 162.15 113.85 84.15 110.1 85.25 105.75 196.55 108.0 86.05 102.1 87.45 90.0 233.5 88.7 233.5 89.0 372.75 88.9 511.95 90.45 M412.3 109.65 L417.7 109.55 291.25 121.1 418.1 112.05 419.45 109.35 412.3 109.65 M5.4 136.15 L5.45 136.15 5.45 136.1 5.4 136.15 M11.05 124.3 L10.45 124.3 10.75 124.5 11.05 124.3" fill="#ecdbc8" fill-rule="evenodd" stroke="none"/>
    <path d="M600.0 25.7 L600.0 68.85 547.2 67.05 600.0 69.85 600.0 81.55 348.15 71.95 395.95 57.65 316.9 72.35 384.7 79.9 301.65 80.5 301.25 26.2 600.0 25.7 M0.0 83.65 L0.0 49.25 85.25 50.35 39.0 48.25 Q19.5 47.85 0.0 48.25 L0.0 45.7 20.9 42.8 0.0 43.15 0.0 28.55 298.25 26.25 298.05 80.55 163.6 81.5 163.6 81.4 163.3 80.85 Q162.85 80.05 163.35 81.25 L163.35 81.5 126.2 81.15 126.2 81.05 103.75 75.2 102.15 76.95 98.9 77.65 124.45 81.4 0.0 83.65 M527.9 64.85 L543.2 65.75 578.4 64.05 525.9 62.95 527.9 64.85 M482.2 70.9 L442.1 68.0 494.9 63.9 389.3 70.15 464.0 71.45 482.2 70.9 M448.4 52.7 L479.6 53.55 490.95 53.05 448.4 52.7 M374.3 59.8 L309.1 67.35 364.1 62.15 374.3 59.8 M275.0 78.35 L158.75 65.15 207.2 73.95 275.0 78.35" fill="#f4ebdf" fill-rule="evenodd" stroke="none"/>
    <path d="M0.0 21.4 L0.0 0.0 107.95 0.0 101.7 20.35 0.0 21.4 M113.3 0.0 L487.7 0.0 492.35 16.9 492.0 17.2 177.65 20.35 106.35 20.1 109.2 13.0 136.6 13.05 109.55 12.15 111.8 5.35 116.2 4.85 112.0 4.75 113.3 0.0 M490.75 0.0 L600.0 0.0 600.0 18.55 496.25 17.35 492.6 4.75 508.65 6.65 511.2 3.5 491.6 2.15 490.75 0.0 M551.85 4.2 L547.8 7.3 550.8 8.55 551.85 4.2 M430.35 6.15 L375.4 8.85 417.4 8.2 430.35 6.15 M94.85 6.95 L97.5 4.4 25.25 5.35 94.85 6.95 M84.2 11.2 L83.3 11.2 Q83.8 12.9 84.2 11.2" fill="#f7efe8" fill-rule="evenodd" stroke="none"/>
  </g>
</svg>
