<?xml version="1.0" encoding="UTF-8" standalone="no"?>
<svg xmlns:ffdec="https://www.free-decompiler.com/flash" xmlns:xlink="http://www.w3.org/1999/xlink" ffdec:objectType="shape" height="400.0px" width="601.5px" xmlns="http://www.w3.org/2000/svg">
  <g transform="matrix(1.0, 0.0, 0.0, 1.0, 0.0, 0.0)">
    <path d="M562.75 269.6 L563.2 269.6 563.2 270.05 562.75 269.6 M163.35 81.25 L163.6 81.4 163.6 81.5 163.35 81.5 163.35 81.25 M233.5 89.0 L233.5 88.7 242.65 88.55 233.5 89.0 M102.55 227.55 L102.55 227.6 102.5 227.6 102.55 227.55" fill="#b9ab95" fill-rule="evenodd" stroke="none"/>
    <path d="M600.0 106.85 L600.0 106.95 596.95 106.95 600.0 106.85 M0.0 158.55 L0.0 158.35 0.05 158.55 0.0 158.55 M439.85 75.55 L438.6 75.6 437.4 75.45 437.4 75.35 441.8 75.55 439.85 75.55 M417.7 109.45 L417.7 109.55 412.3 109.65 417.7 109.45 M575.05 332.6 L575.0 332.55 575.1 332.6 575.05 332.6 M163.35 81.25 Q162.85 80.05 163.3 80.85 L163.6 81.4 163.35 81.25 M18.35 119.3 L15.4 119.2 15.4 119.15 18.35 119.3 M77.55 322.5 L82.15 323.7 77.55 322.65 77.55 322.5 M31.85 302.5 L31.85 302.55 31.65 302.5 31.85 302.5" fill="#8a725b" fill-rule="evenodd" stroke="none"/>
    <path d="M302.95 175.45 L302.9 175.25 302.95 175.25 302.95 175.45" fill="#c1b4a4" fill-rule="evenodd" stroke="none"/>
    <path d="M569.7 356.0 L571.05 356.15 569.7 356.0" fill="#dcbc96" fill-rule="evenodd" stroke="none"/>
    <path d="M600.0 28.55 L600.0 32.95 510.05 32.25 545.4 166.2 545.9 167.75 538.75 167.8 536.1 160.3 523.25 117.1 501.0 27.8 600.0 28.55 M600.0 177.85 L600.0 179.15 312.8 179.8 306.15 351.85 306.25 355.9 306.55 361.85 306.8 366.8 306.85 367.2 304.45 367.15 304.45 364.5 304.4 360.85 304.4 360.45 304.4 360.4 304.35 359.95 Q304.2 359.0 304.4 358.1 L302.95 175.45 302.95 175.25 451.5 175.7 600.0 177.85 M600.0 203.7 L600.0 370.4 314.65 367.3 314.6 368.3 314.6 367.3 313.2 367.25 326.0 203.55 600.0 203.7 M600.0 382.9 L600.0 391.95 597.1 382.5 600.0 382.9 M591.0 400.0 L585.35 400.0 581.75 389.6 17.75 390.95 13.25 400.0 9.0 400.0 13.4 383.35 63.5 382.4 179.95 381.25 536.5 382.4 586.6 383.35 591.0 400.0 M0.0 391.95 L0.0 382.9 2.9 382.5 0.0 391.95 M0.0 370.4 L0.0 208.55 277.2 203.45 286.85 367.3 0.0 370.4 M0.0 185.85 L0.0 177.85 148.55 175.7 297.1 175.25 297.05 175.45 295.65 358.1 295.65 359.95 295.6 360.4 295.6 360.45 295.7 360.85 295.6 360.85 295.6 364.5 295.55 367.15 296.05 367.15 296.05 367.2 286.95 367.3 292.0 182.3 0.0 185.85 M0.0 32.95 L0.0 28.55 99.05 27.8 76.75 117.1 63.9 160.3 61.3 167.75 60.25 167.95 60.2 166.1 91.75 33.65 0.0 32.95 M474.8 50.15 L475.3 50.25 475.45 50.45 474.8 50.15 M522.8 158.25 L521.1 152.4 523.0 158.2 522.8 158.25 M508.65 81.7 L511.8 93.95 511.8 94.05 511.6 94.95 Q509.65 95.65 509.05 93.45 L508.2 88.35 508.2 88.15 507.65 87.45 506.2 80.2 Q506.15 79.85 506.4 79.55 506.15 79.0 506.2 78.4 L506.25 78.15 505.35 75.6 505.35 75.35 505.4 75.15 Q503.6 68.55 502.25 61.75 L502.4 61.75 Q503.3 66.3 504.95 70.55 L505.1 70.8 Q505.9 75.2 507.35 79.4 L508.45 81.75 508.65 81.7 M562.75 269.6 L563.2 270.05 563.2 269.6 562.75 269.6 M575.05 332.6 L575.1 332.6 575.0 332.55 575.05 332.6 M569.7 356.0 L571.05 356.15 569.7 356.0 M102.55 227.55 L102.5 227.6 102.55 227.6 102.55 227.55 M77.55 322.5 L77.55 322.65 82.15 323.7 77.55 322.5 M31.85 302.5 L31.65 302.5 31.85 302.55 31.85 302.5" fill="#cfdaeb" fill-rule="evenodd" stroke="none"/>
    <path d="M600.0 22.3 L600.0 28.55 501.0 27.8 523.25 117.1 536.1 160.3 538.75 167.8 539.45 170.8 600.0 170.0 600.0 177.85 451.5 175.7 302.95 175.25 302.9 175.25 302.95 175.45 304.4 358.1 Q304.2 359.0 304.35 359.95 L304.4 360.4 304.4 360.45 304.35 360.85 304.4 360.85 304.45 364.5 304.45 367.15 304.0 367.15 304.25 375.45 600.0 377.05 600.0 382.9 597.1 382.5 600.0 391.95 600.0 400.0 591.0 400.0 586.6 383.35 536.5 382.4 179.95 381.25 63.5 382.4 13.4 383.35 9.0 400.0 0.0 400.0 0.0 391.95 2.9 382.5 0.0 382.9 0.0 377.05 295.75 375.45 296.05 367.2 296.05 367.15 295.55 367.15 295.6 364.5 295.6 360.85 295.7 360.85 295.6 360.45 295.6 360.4 295.65 359.95 295.65 358.1 297.05 175.45 297.1 175.25 148.55 175.7 0.0 177.85 0.0 170.0 60.55 170.8 61.3 167.8 61.3 167.75 63.9 160.3 76.75 117.1 99.05 27.8 0.0 28.55 0.0 22.3 0.1 22.3 0.95 22.3 296.05 22.3 296.15 18.85 296.05 18.95 296.15 14.5 296.5 13.8 296.6 0.0 303.45 0.0 303.5 13.8 303.85 14.5 304.0 18.85 304.05 22.3 600.0 22.3 M508.65 81.7 L495.45 28.0 495.45 27.75 398.35 26.5 301.25 26.2 201.65 26.5 104.6 27.75 104.55 28.0 88.2 94.0 88.2 94.05 71.05 163.1 70.85 163.8 70.6 164.45 70.15 166.65 69.15 171.0 530.85 171.0 529.8 166.25 529.4 164.45 529.2 163.8 528.95 163.1 511.8 94.05 511.8 93.95 508.65 81.7" fill="#314f73" fill-rule="evenodd" stroke="none"/>
    <path d="M600.0 19.1 L600.0 22.3 304.05 22.3 304.0 18.85 304.8 19.6 600.0 19.1 M600.0 167.35 L600.0 170.0 539.45 170.8 538.75 167.8 545.9 167.75 600.0 167.35 M600.0 370.4 L601.5 370.4 601.5 377.05 600.0 377.05 304.25 375.45 304.0 367.15 304.45 367.15 306.85 367.2 313.2 367.25 314.6 367.3 314.6 368.3 314.65 367.3 600.0 370.4 M0.0 377.05 L0.0 370.4 286.85 367.3 286.9 368.3 286.95 367.3 296.05 367.2 295.75 375.45 0.0 377.05 M0.0 170.0 L0.0 168.55 60.25 167.95 61.3 167.75 61.3 167.8 60.55 170.8 0.0 170.0 M0.0 22.3 L0.0 21.6 0.05 21.6 0.1 21.55 0.1 19.1 295.3 19.6 296.05 18.95 296.15 18.85 296.05 22.3 0.95 22.3 0.1 22.3 0.0 22.3 M529.8 166.25 L530.85 171.0 69.15 171.0 70.15 166.65 529.8 166.25 M70.6 164.45 L70.85 163.8 70.7 164.3 70.6 164.45 M153.25 164.75 L152.85 164.75 152.7 164.6 153.05 164.6 153.25 164.75" fill="#4875aa" fill-rule="evenodd" stroke="none"/>
    <path d="M600.0 179.15 L600.0 203.7 326.0 203.55 313.2 367.25 306.85 367.2 306.8 366.8 306.55 361.85 306.25 355.9 306.15 351.85 312.8 179.8 600.0 179.15 M585.35 400.0 L13.25 400.0 17.75 390.95 581.75 389.6 585.35 400.0 M0.0 208.55 L0.0 185.85 292.0 182.3 286.95 367.3 286.9 368.3 286.85 367.3 277.2 203.45 0.0 208.55 M304.4 360.85 L304.35 360.85 304.4 360.45 304.4 360.85" fill="#f7f9fb" fill-rule="evenodd" stroke="none"/>
    <path d="M600.0 54.6 L600.0 106.85 596.95 106.95 600.0 106.95 600.0 167.35 545.9 167.75 545.4 166.2 549.05 161.7 545.4 156.3 524.2 54.5 600.0 54.6 M0.0 168.55 L0.0 158.55 0.05 158.55 0.0 158.35 0.0 57.2 79.8 56.35 58.35 157.3 55.7 165.3 60.2 166.1 60.25 167.95 0.0 168.55 M523.0 158.2 L521.4 149.8 520.85 147.85 493.4 36.5 Q492.7 33.65 491.05 31.85 L472.3 31.2 471.0 31.05 469.55 31.05 462.8 30.8 458.65 30.85 345.45 31.65 Q288.15 32.15 230.75 31.8 L116.25 31.25 111.35 31.15 109.1 32.65 75.75 163.65 80.2 154.45 81.45 153.35 118.4 51.35 120.45 52.1 474.8 50.15 475.45 50.45 522.8 158.25 523.0 158.2 M70.85 163.8 L71.05 163.1 88.2 94.05 88.2 94.0 104.55 28.0 104.6 27.75 201.65 26.5 301.25 26.2 398.35 26.5 495.45 27.75 495.45 28.0 508.65 81.7 508.45 81.75 507.35 79.4 Q505.9 75.2 505.1 70.8 L504.95 70.55 Q503.3 66.3 502.4 61.75 L502.25 61.75 Q503.6 68.55 505.4 75.15 L505.35 75.35 505.35 75.6 506.25 78.15 506.2 78.4 Q506.15 79.0 506.4 79.55 506.15 79.85 506.2 80.2 L507.65 87.45 508.2 88.15 508.2 88.35 509.05 93.45 Q509.65 95.65 511.6 94.95 L511.8 94.05 528.95 163.1 529.2 163.8 529.4 164.45 529.8 166.25 70.15 166.65 70.6 164.45 70.7 164.3 70.85 163.8 M439.85 75.55 L441.8 75.55 437.4 75.35 437.4 75.45 438.6 75.6 439.85 75.55 M417.7 109.45 L412.3 109.65 417.7 109.55 417.7 109.45 M163.6 81.4 L163.3 80.85 Q162.85 80.05 163.35 81.25 L163.35 81.5 163.6 81.5 163.6 81.4 M233.5 89.0 L242.65 88.55 233.5 88.7 233.5 89.0 M18.35 119.3 L15.4 119.15 15.4 119.2 18.35 119.3 M153.25 164.75 L153.05 164.6 152.7 164.6 152.85 164.75 153.25 164.75" fill="#d8e3ef" fill-rule="evenodd" stroke="none"/>
    <path d="M303.45 0.0 L600.0 0.0 600.0 19.1 304.8 19.6 304.0 18.85 303.85 14.5 303.5 13.8 303.45 0.0 M0.0 21.6 L0.0 0.0 296.6 0.0 296.5 13.8 296.15 14.5 296.05 18.95 295.3 19.6 0.1 19.1 0.1 21.55 0.05 21.6 0.0 21.6" fill="#e1eaf2" fill-rule="evenodd" stroke="none"/>
    <path d="M600.0 32.95 L600.0 54.6 524.2 54.5 545.4 156.3 549.05 161.7 545.4 166.2 510.05 32.25 600.0 32.95 M0.0 57.2 L0.0 32.95 91.75 33.65 60.2 166.1 55.7 165.3 58.35 157.3 79.8 56.35 0.0 57.2 M474.8 50.15 L120.45 52.1 118.4 51.35 81.45 153.35 80.2 154.45 75.75 163.65 109.1 32.65 111.35 31.15 116.25 31.25 230.75 31.8 Q288.15 32.15 345.45 31.65 L458.65 30.85 462.8 30.8 469.55 31.05 471.0 31.05 472.3 31.2 491.05 31.85 Q492.7 33.65 493.4 36.5 L520.85 147.85 521.4 149.8 523.0 158.2 521.1 152.4 522.8 158.25 475.45 50.45 475.3 50.25 474.8 50.15" fill="#ffffff" fill-rule="evenodd" stroke="none"/>
  </g>
</svg>
