<?xml version="1.0" encoding="UTF-8" standalone="no"?>
<svg xmlns:ffdec="https://www.free-decompiler.com/flash" xmlns:xlink="http://www.w3.org/1999/xlink" ffdec:objectType="shape" height="400.0px" width="600.0px" xmlns="http://www.w3.org/2000/svg">
  <g transform="matrix(1.0, 0.0, 0.0, 1.0, 0.0, 0.0)">
    <path d="M600.0 377.05 L600.0 382.9 597.1 382.5 600.0 391.95 600.0 400.0 591.0 400.0 586.6 383.35 536.5 382.4 179.95 381.25 63.5 382.4 13.4 383.35 9.0 400.0 0.0 400.0 0.0 391.95 2.9 382.5 0.0 382.9 0.0 377.05 295.75 375.45 296.05 367.2 296.05 367.15 295.55 367.15 295.6 364.5 295.6 360.85 295.7 360.85 295.6 360.45 295.6 360.4 295.65 359.95 295.65 358.1 295.8 339.2 296.25 339.2 297.95 339.2 302.35 339.2 303.3 339.2 304.25 339.2 304.4 358.1 Q304.2 359.0 304.35 359.95 L304.4 360.4 304.4 360.45 304.35 360.85 304.4 360.85 304.45 364.5 304.45 367.15 304.0 367.15 304.25 375.45 600.0 377.05" fill="#314f73" fill-rule="evenodd" stroke="none"/>
    <path d="M600.0 339.2 L600.0 370.4 314.65 367.3 314.6 368.3 314.6 367.3 313.2 367.25 315.4 339.2 317.95 339.2 318.75 339.2 323.1 339.2 324.85 339.2 328.25 339.2 328.8 339.2 332.2 339.2 332.45 339.2 336.4 339.2 337.3 339.2 341.95 339.2 342.5 339.2 346.2 339.2 347.3 339.2 351.95 339.2 352.3 339.2 356.75 339.2 357.85 339.2 362.1 339.2 363.2 339.2 367.1 339.2 368.05 339.2 371.95 339.2 373.75 339.2 377.9 339.2 378.6 339.2 386.8 339.2 388.0 339.2 392.2 339.2 392.55 339.2 396.85 339.2 399.35 339.2 405.8 339.2 406.8 339.2 411.55 339.2 412.05 339.2 416.1 339.2 416.8 339.2 420.35 339.2 421.65 339.2 426.0 339.2 427.4 339.2 431.55 339.2 432.15 339.2 435.55 339.2 436.7 339.2 440.55 339.2 442.25 339.2 447.1 339.2 448.95 339.2 452.85 339.2 454.2 339.2 458.35 339.2 459.1 339.2 463.15 339.2 465.4 339.2 467.85 339.2 470.05 339.2 473.85 339.2 474.9 339.2 479.2 339.2 480.3 339.2 484.45 339.2 485.95 339.2 490.1 339.2 490.7 339.2 494.65 339.2 495.2 339.2 498.75 339.2 500.2 339.2 503.65 339.2 506.15 339.2 517.2 339.2 518.85 339.2 521.45 339.2 523.45 339.2 527.35 339.2 529.2 339.2 533.7 339.2 535.35 339.2 538.2 339.2 539.75 339.2 543.5 339.2 546.25 339.2 557.55 339.2 559.15 339.2 563.9 339.2 564.85 339.2 569.35 339.2 570.65 339.2 575.45 339.2 576.2 339.2 580.75 339.2 581.1 339.2 587.6 339.2 588.75 339.2 592.85 339.2 593.8 339.2 600.0 339.2 M600.0 382.9 L600.0 391.95 597.1 382.5 600.0 382.9 M591.0 400.0 L585.35 400.0 581.75 389.6 17.75 390.95 13.25 400.0 9.0 400.0 13.4 383.35 63.5 382.4 179.95 381.25 536.5 382.4 586.6 383.35 591.0 400.0 M0.0 391.95 L0.0 382.9 2.9 382.5 0.0 391.95 M0.0 370.4 L0.0 339.2 2.15 339.2 4.55 339.2 8.15 339.2 11.0 339.2 13.55 339.2 15.75 339.2 19.2 339.2 22.2 339.2 25.0 339.2 27.7 339.2 30.4 339.2 33.55 339.2 35.6 339.2 37.35 339.2 40.0 339.2 43.3 339.2 45.6 339.2 49.7 339.2 50.5 339.2 53.05 339.2 56.15 339.2 59.45 339.2 62.15 339.2 63.7 339.2 67.35 339.2 69.7 339.2 72.25 339.2 74.45 339.2 77.4 339.2 79.65 339.2 84.25 339.2 85.9 339.2 89.0 339.2 92.45 339.2 94.2 339.2 96.9 339.2 100.15 339.2 103.65 339.2 105.35 339.2 109.45 339.2 111.1 339.2 115.7 339.2 117.8 339.2 121.2 339.2 121.95 339.2 125.65 339.2 126.9 339.2 130.65 339.2 133.0 339.2 136.95 339.2 137.25 339.2 141.05 339.2 143.65 339.2 147.15 339.2 148.45 339.2 152.1 339.2 153.1 339.2 157.25 339.2 159.3 339.2 162.55 339.2 164.65 339.2 168.4 339.2 169.3 339.2 172.9 339.2 174.25 339.2 182.4 339.2 184.15 339.2 188.3 339.2 188.85 339.2 192.65 339.2 192.8 339.2 196.65 339.2 197.55 339.2 201.25 339.2 202.8 339.2 207.05 339.2 208.35 339.2 212.15 339.2 213.5 339.2 218.0 339.2 219.5 339.2 223.65 339.2 225.3 339.2 229.55 339.2 231.2 339.2 235.5 339.2 236.7 339.2 240.85 339.2 241.5 339.2 245.6 339.2 246.7 339.2 249.4 339.2 252.0 339.2 255.85 339.2 257.25 339.2 261.95 339.2 263.4 339.2 270.65 339.2 271.05 339.2 275.0 339.2 275.8 339.2 279.85 339.2 281.05 339.2 285.05 339.2 285.2 339.2 286.85 367.3 0.0 370.4 M537.55 320.3 L537.5 320.15 537.6 320.2 537.55 320.3 M544.65 320.0 L544.6 320.05 544.6 320.0 544.65 320.0 M510.85 327.2 L510.9 327.55 510.8 327.2 510.85 327.2 M569.7 356.0 L571.05 356.15 569.7 356.0 M287.7 339.2 L290.45 339.2 291.75 339.2 295.8 339.2 295.65 358.1 295.65 359.95 295.6 360.4 295.6 360.45 295.7 360.85 295.6 360.85 295.6 364.5 295.55 367.15 296.05 367.15 296.05 367.2 286.95 367.3 287.7 339.2 M304.25 339.2 L306.65 339.2 306.15 351.85 306.25 355.9 306.55 361.85 306.8 366.8 306.85 367.2 304.45 367.15 304.45 364.5 304.4 360.85 304.4 360.45 304.4 360.4 304.35 359.95 Q304.2 359.0 304.4 358.1 L304.25 339.2" fill="#cfdaeb" fill-rule="evenodd" stroke="none"/>
    <path d="M600.0 370.4 L600.0 377.05 304.25 375.45 304.0 367.15 304.45 367.15 306.85 367.2 313.2 367.25 314.6 367.3 314.6 368.3 314.65 367.3 600.0 370.4 M0.0 377.05 L0.0 370.4 286.85 367.3 286.9 368.3 286.95 367.3 296.05 367.2 295.75 375.45 0.0 377.05" fill="#4875aa" fill-rule="evenodd" stroke="none"/>
    <path d="M569.7 356.0 L571.05 356.15 569.7 356.0" fill="#dcbc96" fill-rule="evenodd" stroke="none"/>
    <path d="M585.35 400.0 L13.25 400.0 17.75 390.95 581.75 389.6 585.35 400.0 M315.4 339.2 L313.2 367.25 306.85 367.2 306.8 366.8 306.55 361.85 306.25 355.9 306.15 351.85 306.65 339.2 307.8 339.2 309.15 339.2 312.9 339.2 313.25 339.2 315.4 339.2 M286.7 339.2 L287.7 339.2 286.95 367.3 286.9 368.3 286.85 367.3 285.2 339.2 286.7 339.2 M304.4 360.85 L304.35 360.85 304.4 360.45 304.4 360.85" fill="#f7f9fb" fill-rule="evenodd" stroke="none"/>
    <path d="M0.0 24.2 L0.0 0.0 600.0 0.0 600.0 25.8 0.0 24.2" fill="#ef9b8f" fill-rule="evenodd" stroke="none"/>
    <path d="M600.0 129.1 L600.0 220.9 0.0 227.55 0.0 135.0 600.0 129.1" fill="#be2f1b" fill-rule="evenodd" stroke="none"/>
    <path d="M600.0 67.2 L600.0 129.1 0.0 135.0 0.0 69.35 217.95 66.05 600.0 67.2" fill="#e04029" fill-rule="evenodd" stroke="none"/>
    <path d="M600.0 309.25 L600.0 316.15 596.35 315.7 567.45 316.05 600.0 316.8 600.0 339.2 593.8 339.2 589.2 320.15 592.85 339.2 588.75 339.2 581.6 320.15 587.6 339.2 581.1 339.2 576.65 324.65 580.75 339.2 576.2 339.2 570.75 319.85 568.7 320.2 575.45 339.2 570.65 339.2 564.7 320.2 569.35 339.2 564.85 339.2 559.5 319.9 557.3 320.0 563.9 339.2 559.15 339.2 554.1 320.1 557.55 339.2 546.25 339.2 541.0 320.2 537.6 320.2 537.5 320.15 537.55 320.3 543.5 339.2 539.75 339.2 534.85 320.05 538.2 339.2 535.35 339.2 528.4 320.8 533.7 339.2 529.2 339.2 522.45 320.55 527.35 339.2 523.45 339.2 517.8 320.55 521.45 339.2 518.85 339.2 512.9 320.45 517.2 339.2 506.15 339.2 499.9 320.55 503.65 339.2 500.2 339.2 494.95 320.35 503.15 317.6 479.3 317.75 486.2 320.6 490.1 339.2 485.95 339.2 482.25 320.25 484.45 339.2 480.3 339.2 476.05 320.05 479.2 339.2 474.9 339.2 472.65 320.2 470.0 320.15 473.85 339.2 470.05 339.2 464.85 320.05 467.85 339.2 465.4 339.2 460.4 320.25 460.1 320.0 460.05 319.95 459.95 320.0 459.55 320.25 463.15 339.2 459.1 339.2 455.7 320.0 458.35 339.2 454.2 339.2 450.15 320.05 454.3 318.3 436.7 318.3 448.4 319.95 452.85 339.2 448.95 339.2 443.6 319.8 447.1 339.2 442.25 339.2 439.35 319.75 436.3 319.75 440.55 339.2 436.7 339.2 432.35 319.8 435.55 339.2 432.15 339.2 428.7 320.3 432.15 318.95 405.4 318.25 411.55 339.2 406.8 339.2 403.5 319.75 380.9 318.05 390.45 320.5 392.2 339.2 388.0 339.2 Q386.6 329.75 384.6 320.45 L384.0 320.65 386.8 339.2 378.6 339.2 375.55 320.2 377.9 339.2 373.75 339.2 370.5 320.15 371.95 339.2 368.05 339.2 366.15 319.85 367.1 339.2 363.2 339.2 361.9 319.75 359.0 319.8 362.1 339.2 357.85 339.2 354.9 320.05 356.75 339.2 352.3 339.2 351.05 319.75 352.65 317.8 311.15 318.8 327.0 320.0 330.4 320.25 332.2 339.2 328.8 339.2 327.0 320.0 328.25 339.2 324.85 339.2 322.0 320.05 323.1 339.2 318.75 339.2 316.75 319.8 317.95 339.2 315.4 339.2 313.25 339.2 313.75 319.85 312.9 339.2 309.15 339.2 307.15 320.25 307.8 339.2 306.65 339.2 304.25 339.2 303.3 339.2 302.1 320.05 302.35 339.2 297.95 339.2 296.85 320.0 296.25 339.2 295.8 339.2 291.75 339.2 291.95 320.35 290.45 339.2 287.7 339.2 286.7 339.2 286.8 320.05 288.3 318.5 282.55 318.5 285.5 321.25 285.05 339.2 281.05 339.2 280.2 319.9 279.85 339.2 275.8 339.2 277.2 320.2 281.95 317.9 255.8 319.25 255.85 339.2 252.0 339.2 252.65 318.4 221.5 318.8 224.8 320.55 223.65 339.2 219.5 339.2 219.75 319.75 218.0 339.2 213.5 339.2 218.75 317.75 193.9 320.3 193.4 335.95 194.8 321.6 198.55 320.15 198.1 329.2 199.5 320.15 203.6 319.7 201.25 339.2 197.55 339.2 197.4 335.9 196.65 339.2 192.8 339.2 192.8 339.0 192.65 339.2 188.85 339.2 190.95 319.95 188.3 339.2 184.15 339.2 187.7 320.25 191.05 318.8 163.9 318.6 169.65 320.4 168.4 339.2 164.65 339.2 166.1 320.5 162.55 339.2 159.3 339.2 159.35 333.0 157.25 339.2 153.1 339.2 156.9 320.55 154.65 320.55 152.1 339.2 148.45 339.2 150.45 320.4 147.15 339.2 143.65 339.2 144.75 320.7 141.05 339.2 137.25 339.2 141.05 318.35 112.7 318.8 120.85 320.05 124.2 320.9 121.2 339.2 117.8 339.2 120.85 320.05 115.7 339.2 111.1 339.2 113.85 320.1 109.45 339.2 105.35 339.2 111.65 320.15 111.05 318.05 95.75 319.75 92.45 339.2 89.0 339.2 91.65 321.25 80.0 316.8 64.4 318.5 59.45 339.2 56.15 339.2 59.8 321.6 62.7 319.55 56.6 319.2 57.6 321.2 53.05 339.2 50.5 339.2 54.6 319.2 27.0 319.7 22.2 339.2 19.2 339.2 23.3 322.05 24.8 320.55 22.25 318.7 0.0 318.15 0.0 311.7 Q4.25 315.25 3.15 310.65 L6.95 310.25 214.4 309.9 197.3 312.2 222.45 312.0 217.15 309.9 241.95 309.85 226.2 312.4 255.9 313.0 249.5 309.85 380.65 309.65 376.3 312.05 402.65 312.4 390.1 309.6 500.5 309.4 492.1 311.45 518.5 311.7 500.6 309.4 600.0 309.25 M0.0 338.05 L0.0 323.2 0.8 320.75 5.75 320.5 0.0 338.05 M399.35 339.2 L396.05 320.7 402.6 320.35 405.8 339.2 399.35 339.2 M392.55 339.2 L391.65 320.75 395.4 320.85 396.85 339.2 392.55 339.2 M369.45 313.1 L371.95 313.55 374.45 313.1 Q375.5 312.65 375.5 312.0 375.5 311.35 374.45 310.9 L371.95 310.45 Q370.5 310.45 369.45 310.9 368.4 311.35 368.4 312.0 368.4 312.65 369.45 313.1 M351.95 339.2 L347.3 339.2 346.7 333.65 346.2 339.2 342.5 339.2 341.2 321.0 349.2 319.8 351.95 339.2 M341.95 339.2 L337.3 339.2 335.65 320.5 340.1 319.95 341.95 339.2 M336.4 339.2 L332.45 339.2 330.7 320.3 334.8 320.55 336.4 339.2 M342.6 311.85 L363.15 313.9 365.6 312.3 342.6 311.85 M341.15 313.05 Q342.0 312.6 342.0 312.0 342.0 311.4 341.15 311.0 340.25 310.55 339.05 310.55 337.85 310.55 337.0 311.0 336.1 311.4 336.1 312.0 336.1 312.6 337.0 313.05 L339.05 313.45 341.15 313.05 M455.55 313.25 L457.75 311.7 435.45 311.3 455.55 313.25 M431.55 339.2 L427.4 339.2 423.55 320.45 427.6 320.4 431.55 339.2 M426.0 339.2 L421.65 339.2 418.5 320.05 422.6 320.4 426.0 339.2 M420.35 339.2 L416.8 339.2 413.55 320.05 417.45 320.0 420.35 339.2 M416.1 339.2 L412.05 339.2 408.8 320.7 412.45 320.1 416.1 339.2 M428.65 309.75 Q427.05 309.75 425.95 310.2 424.8 310.6 424.8 311.2 424.8 311.8 425.95 312.25 L428.65 312.65 431.4 312.25 Q432.5 311.8 432.5 311.2 432.5 310.6 431.4 310.2 L428.65 309.75 M461.1 311.15 L468.8 313.0 489.5 311.35 461.1 311.15 M536.1 315.8 Q535.55 315.8 535.15 316.2 534.75 316.6 534.75 317.15 534.75 317.7 535.15 318.1 535.55 318.5 536.1 318.5 536.65 318.5 537.05 318.1 537.45 317.7 537.45 317.15 537.45 316.6 537.05 316.2 L536.1 315.8 M562.6 317.85 L556.2 314.65 539.65 317.1 562.6 317.85 M544.65 320.0 L544.6 320.0 544.6 320.05 545.5 322.75 544.65 320.0 M528.1 313.1 L551.45 312.35 520.65 311.75 528.1 313.1 M495.2 339.2 L494.0 335.35 494.65 339.2 490.7 339.2 486.2 320.6 491.4 322.75 494.95 320.35 498.75 339.2 495.2 339.2 M510.8 327.2 L510.9 327.55 510.85 327.2 509.85 324.7 510.8 327.2 M62.15 339.2 L65.0 320.25 68.65 319.95 63.7 339.2 62.15 339.2 M69.7 311.5 Q68.6 310.95 67.05 310.95 65.5 310.95 64.45 311.5 63.35 312.0 63.35 312.7 63.35 313.4 64.45 313.95 L67.05 314.45 69.7 313.95 Q70.75 313.4 70.75 312.7 70.75 312.0 69.7 311.5 M67.35 339.2 L71.1 320.05 73.7 320.85 69.7 339.2 67.35 339.2 M72.25 339.2 L74.75 321.3 78.05 320.8 74.45 339.2 72.25 339.2 M77.4 339.2 L80.45 323.3 80.45 323.25 80.9 320.85 83.3 321.25 79.65 339.2 77.4 339.2 M84.25 339.2 L88.25 321.4 90.4 321.2 85.9 339.2 84.25 339.2 M60.1 312.6 Q60.1 312.1 59.55 311.75 59.0 311.35 58.25 311.35 57.5 311.35 56.95 311.75 56.4 312.1 56.4 312.6 56.4 313.1 56.95 313.5 L58.25 313.85 59.55 313.5 Q60.1 313.1 60.1 312.6 M40.0 339.2 L44.45 322.35 47.5 321.75 43.3 339.2 40.0 339.2 M54.0 312.75 L43.7 310.7 38.3 312.0 54.0 312.75 M45.6 339.2 L49.35 322.95 53.05 321.2 49.7 339.2 45.6 339.2 M25.0 339.2 L30.5 321.9 33.25 321.05 27.7 339.2 25.0 339.2 M30.4 339.2 L35.1 321.3 37.25 321.2 33.55 339.2 30.4 339.2 M35.6 339.2 L39.65 321.4 42.4 321.65 37.35 339.2 35.6 339.2 M26.2 313.45 Q26.2 312.85 25.5 312.45 24.75 312.0 23.75 312.0 22.75 312.0 22.05 312.45 21.3 312.85 21.3 313.45 21.3 314.05 22.05 314.5 22.75 314.9 23.75 314.9 L25.5 314.5 Q26.2 314.05 26.2 313.45 M29.85 312.7 Q29.05 313.15 29.05 313.75 29.05 314.35 29.85 314.8 L31.7 315.25 Q32.8 315.25 33.6 314.8 34.35 314.35 34.35 313.75 34.35 313.15 33.6 312.7 32.8 312.25 31.7 312.25 30.6 312.25 29.85 312.7 M2.15 339.2 L7.25 321.35 10.75 321.2 4.55 339.2 2.15 339.2 M8.15 339.2 L13.15 320.9 16.25 321.35 11.0 339.2 8.15 339.2 M13.55 339.2 L19.9 321.5 15.75 339.2 13.55 339.2 M144.3 312.0 Q144.3 312.7 146.2 313.2 L150.8 313.65 155.4 313.2 Q157.3 312.7 157.3 312.0 157.3 311.3 155.4 310.85 L150.8 310.35 146.2 310.85 Q144.3 311.3 144.3 312.0 M161.95 319.3 L160.6 317.3 143.65 319.75 161.95 319.3 M121.95 339.2 L124.8 320.45 128.3 321.25 125.65 339.2 121.95 339.2 M126.9 339.2 L129.7 322.1 134.2 320.65 130.65 339.2 126.9 339.2 M133.0 339.2 L135.25 321.0 139.15 320.95 136.95 339.2 133.0 339.2 M103.2 313.15 Q103.95 313.65 105.0 313.65 106.05 313.65 106.8 313.15 107.55 312.65 107.55 311.95 107.55 311.25 106.8 310.75 106.05 310.25 105.0 310.25 103.95 310.25 103.2 310.75 102.45 311.25 102.45 311.95 102.45 312.65 103.2 313.15 M94.2 339.2 L98.3 320.8 102.0 319.9 96.9 339.2 94.2 339.2 M100.15 339.2 L104.9 320.8 107.5 322.0 103.65 339.2 100.15 339.2 M97.0 313.75 L99.95 311.5 94.1 311.5 97.0 313.75 M231.2 339.2 L232.4 320.05 235.5 320.0 235.5 339.2 231.2 339.2 M236.7 339.2 L238.2 320.3 246.5 320.85 245.6 339.2 241.5 339.2 241.1 335.85 240.85 339.2 236.7 339.2 M246.7 339.2 L247.35 322.2 251.4 320.6 249.4 339.2 246.7 339.2 M225.3 339.2 L226.75 320.1 232.35 320.05 229.55 339.2 225.3 339.2 M202.8 339.2 L205.7 319.8 209.3 320.1 207.05 339.2 202.8 339.2 M208.35 339.2 L210.3 319.9 214.35 320.2 212.15 339.2 208.35 339.2 M169.3 339.2 L172.65 320.65 176.55 320.55 175.75 326.85 177.0 320.5 180.8 320.4 179.55 331.55 181.45 321.75 185.2 320.3 182.4 339.2 174.25 339.2 175.4 329.3 172.9 339.2 169.3 339.2 M299.3 312.35 L295.45 311.2 279.45 312.5 299.3 312.35 M304.1 319.55 L304.4 319.6 Q307.35 320.1 306.55 317.35 L289.45 317.6 295.95 318.5 304.1 319.55 M308.9 312.5 Q309.95 312.1 309.95 311.5 309.95 310.9 308.9 310.5 L307.75 310.2 306.3 310.1 304.0 310.4 303.75 310.5 Q302.65 310.9 302.65 311.5 302.65 312.1 303.75 312.5 L304.05 312.6 306.3 312.9 307.65 312.8 308.9 312.5 M263.4 339.2 L265.25 320.65 266.65 336.05 267.75 320.4 271.0 321.3 270.65 339.2 263.4 339.2 M269.15 311.95 Q269.15 312.65 270.3 313.15 271.45 313.65 273.05 313.65 L275.8 313.15 Q276.95 312.65 276.95 311.95 276.95 311.25 275.8 310.75 274.65 310.25 273.05 310.25 271.45 310.25 270.3 310.75 269.15 311.25 269.15 311.95 M266.9 312.0 Q266.9 311.4 265.65 311.0 L262.6 310.55 259.55 311.0 Q258.3 311.4 258.3 312.0 258.3 312.6 259.55 313.05 L262.6 313.45 265.65 313.05 Q266.9 312.6 266.9 312.0 M271.05 339.2 L272.15 320.75 276.1 320.35 275.0 339.2 271.05 339.2 M257.25 339.2 L258.5 320.2 261.7 320.0 261.95 339.2 257.25 339.2" fill="#95a237" fill-rule="evenodd" stroke="none"/>
    <path d="M600.0 316.15 L600.0 316.8 567.45 316.05 596.35 315.7 600.0 316.15 M0.0 339.2 L0.0 338.05 5.75 320.5 0.8 320.75 0.0 323.2 0.0 318.15 22.25 318.7 24.8 320.55 23.3 322.05 19.2 339.2 15.75 339.2 19.9 321.5 13.55 339.2 11.0 339.2 16.25 321.35 13.15 320.9 8.15 339.2 4.55 339.2 10.75 321.2 7.25 321.35 2.15 339.2 0.0 339.2 M0.0 311.7 L0.0 310.95 3.15 310.65 Q4.25 315.25 0.0 311.7 M390.1 309.6 L402.65 312.4 376.3 312.05 380.65 309.65 390.1 309.6 M249.5 309.85 L255.9 313.0 226.2 312.4 241.95 309.85 249.5 309.85 M217.15 309.9 L222.45 312.0 197.3 312.2 214.4 309.9 217.15 309.9 M405.8 339.2 L402.6 320.35 396.05 320.7 399.35 339.2 396.85 339.2 395.4 320.85 391.65 320.75 392.55 339.2 392.2 339.2 390.45 320.5 380.9 318.05 403.5 319.75 406.8 339.2 405.8 339.2 M369.45 313.1 Q368.4 312.65 368.4 312.0 368.4 311.35 369.45 310.9 370.5 310.45 371.95 310.45 L374.45 310.9 Q375.5 311.35 375.5 312.0 375.5 312.65 374.45 313.1 L371.95 313.55 369.45 313.1 M386.8 339.2 L384.0 320.65 384.6 320.45 Q386.6 329.75 388.0 339.2 L386.8 339.2 M378.6 339.2 L377.9 339.2 375.55 320.2 378.6 339.2 M373.75 339.2 L371.95 339.2 370.5 320.15 373.75 339.2 M368.05 339.2 L367.1 339.2 366.15 319.85 368.05 339.2 M363.2 339.2 L362.1 339.2 359.0 319.8 361.9 319.75 363.2 339.2 M357.85 339.2 L356.75 339.2 354.9 320.05 357.85 339.2 M352.3 339.2 L351.95 339.2 349.2 319.8 341.2 321.0 342.5 339.2 341.95 339.2 340.1 319.95 335.65 320.5 337.3 339.2 336.4 339.2 334.8 320.55 330.7 320.3 332.45 339.2 332.2 339.2 330.4 320.25 327.0 320.0 311.15 318.8 352.65 317.8 351.05 319.75 352.3 339.2 M347.3 339.2 L346.2 339.2 346.7 333.65 347.3 339.2 M328.8 339.2 L328.25 339.2 327.0 320.0 328.8 339.2 M324.85 339.2 L323.1 339.2 322.0 320.05 324.85 339.2 M318.75 339.2 L317.95 339.2 316.75 319.8 318.75 339.2 M500.5 309.4 L500.6 309.4 518.5 311.7 492.1 311.45 500.5 309.4 M341.15 313.05 L339.05 313.45 337.0 313.05 Q336.1 312.6 336.1 312.0 336.1 311.4 337.0 311.0 337.85 310.55 339.05 310.55 340.25 310.55 341.15 311.0 342.0 311.4 342.0 312.0 342.0 312.6 341.15 313.05 M342.6 311.85 L365.6 312.3 363.15 313.9 342.6 311.85 M473.85 339.2 L470.0 320.15 472.65 320.2 474.9 339.2 473.85 339.2 M479.2 339.2 L476.05 320.05 480.3 339.2 479.2 339.2 M484.45 339.2 L482.25 320.25 485.95 339.2 484.45 339.2 M490.1 339.2 L486.2 320.6 479.3 317.75 503.15 317.6 494.95 320.35 500.2 339.2 498.75 339.2 494.95 320.35 491.4 322.75 486.2 320.6 490.7 339.2 490.1 339.2 M503.65 339.2 L499.9 320.55 506.15 339.2 503.65 339.2 M517.2 339.2 L512.9 320.45 518.85 339.2 517.2 339.2 M521.45 339.2 L517.8 320.55 523.45 339.2 521.45 339.2 M527.35 339.2 L522.45 320.55 529.2 339.2 527.35 339.2 M533.7 339.2 L528.4 320.8 535.35 339.2 533.7 339.2 M538.2 339.2 L534.85 320.05 539.75 339.2 538.2 339.2 M543.5 339.2 L537.55 320.3 537.6 320.2 541.0 320.2 546.25 339.2 543.5 339.2 M557.55 339.2 L554.1 320.1 559.15 339.2 557.55 339.2 M563.9 339.2 L557.3 320.0 559.5 319.9 564.85 339.2 563.9 339.2 M569.35 339.2 L564.7 320.2 570.65 339.2 569.35 339.2 M575.45 339.2 L568.7 320.2 570.75 319.85 576.2 339.2 575.45 339.2 M580.75 339.2 L576.65 324.65 581.1 339.2 580.75 339.2 M587.6 339.2 L581.6 320.15 588.75 339.2 587.6 339.2 M592.85 339.2 L589.2 320.15 593.8 339.2 592.85 339.2 M452.85 339.2 L448.4 319.95 436.7 318.3 454.3 318.3 450.15 320.05 454.2 339.2 452.85 339.2 M458.35 339.2 L455.7 320.0 459.1 339.2 458.35 339.2 M463.15 339.2 L459.55 320.25 459.95 320.0 460.05 319.95 460.1 320.0 460.4 320.25 465.4 339.2 463.15 339.2 M467.85 339.2 L464.85 320.05 470.05 339.2 467.85 339.2 M455.55 313.25 L435.45 311.3 457.75 311.7 455.55 313.25 M448.95 339.2 L447.1 339.2 443.6 319.8 448.95 339.2 M442.25 339.2 L440.55 339.2 436.3 319.75 439.35 319.75 442.25 339.2 M436.7 339.2 L435.55 339.2 432.35 319.8 436.7 339.2 M432.15 339.2 L431.55 339.2 427.6 320.4 423.55 320.45 427.4 339.2 426.0 339.2 422.6 320.4 418.5 320.05 421.65 339.2 420.35 339.2 417.45 320.0 413.55 320.05 416.8 339.2 416.1 339.2 412.45 320.1 408.8 320.7 412.05 339.2 411.55 339.2 405.4 318.25 432.15 318.95 428.7 320.3 432.15 339.2 M461.1 311.15 L489.5 311.35 468.8 313.0 461.1 311.15 M428.65 309.75 L431.4 310.2 Q432.5 310.6 432.5 311.2 432.5 311.8 431.4 312.25 L428.65 312.65 425.95 312.25 Q424.8 311.8 424.8 311.2 424.8 310.6 425.95 310.2 427.05 309.75 428.65 309.75 M562.6 317.85 L539.65 317.1 556.2 314.65 562.6 317.85 M536.1 315.8 L537.05 316.2 Q537.45 316.6 537.45 317.15 537.45 317.7 537.05 318.1 536.65 318.5 536.1 318.5 535.55 318.5 535.15 318.1 534.75 317.7 534.75 317.15 534.75 316.6 535.15 316.2 535.55 315.8 536.1 315.8 M544.6 320.05 L544.65 320.0 545.5 322.75 544.6 320.05 M528.1 313.1 L520.65 311.75 551.45 312.35 528.1 313.1 M494.65 339.2 L494.0 335.35 495.2 339.2 494.65 339.2 M510.85 327.2 L510.8 327.2 509.85 324.7 510.85 327.2 M69.7 311.5 Q70.75 312.0 70.75 312.7 70.75 313.4 69.7 313.95 L67.05 314.45 64.45 313.95 Q63.35 313.4 63.35 312.7 63.35 312.0 64.45 311.5 65.5 310.95 67.05 310.95 68.6 310.95 69.7 311.5 M63.7 339.2 L68.65 319.95 65.0 320.25 62.15 339.2 59.45 339.2 64.4 318.5 80.0 316.8 91.65 321.25 89.0 339.2 85.9 339.2 90.4 321.2 88.25 321.4 84.25 339.2 79.65 339.2 83.3 321.25 80.9 320.85 80.45 323.25 80.45 323.3 77.4 339.2 74.45 339.2 78.05 320.8 74.75 321.3 72.25 339.2 69.7 339.2 73.7 320.85 71.1 320.05 67.35 339.2 63.7 339.2 M60.1 312.6 Q60.1 313.1 59.55 313.5 L58.25 313.85 56.95 313.5 Q56.4 313.1 56.4 312.6 56.4 312.1 56.95 311.75 57.5 311.35 58.25 311.35 59.0 311.35 59.55 311.75 60.1 312.1 60.1 312.6 M53.05 339.2 L57.6 321.2 56.6 319.2 62.7 319.55 59.8 321.6 56.15 339.2 53.05 339.2 M54.0 312.75 L38.3 312.0 43.7 310.7 54.0 312.75 M43.3 339.2 L47.5 321.75 44.45 322.35 40.0 339.2 37.35 339.2 42.4 321.65 39.65 321.4 35.6 339.2 33.55 339.2 37.25 321.2 35.1 321.3 30.4 339.2 27.7 339.2 33.25 321.05 30.5 321.9 25.0 339.2 22.2 339.2 27.0 319.7 54.6 319.2 50.5 339.2 49.7 339.2 53.05 321.2 49.35 322.95 45.6 339.2 43.3 339.2 M29.85 312.7 Q30.6 312.25 31.7 312.25 32.8 312.25 33.6 312.7 34.35 313.15 34.35 313.75 34.35 314.35 33.6 314.8 32.8 315.25 31.7 315.25 L29.85 314.8 Q29.05 314.35 29.05 313.75 29.05 313.15 29.85 312.7 M26.2 313.45 Q26.2 314.05 25.5 314.5 L23.75 314.9 Q22.75 314.9 22.05 314.5 21.3 314.05 21.3 313.45 21.3 312.85 22.05 312.45 22.75 312.0 23.75 312.0 24.75 312.0 25.5 312.45 26.2 312.85 26.2 313.45 M144.3 312.0 Q144.3 311.3 146.2 310.85 L150.8 310.35 155.4 310.85 Q157.3 311.3 157.3 312.0 157.3 312.7 155.4 313.2 L150.8 313.65 146.2 313.2 Q144.3 312.7 144.3 312.0 M152.1 339.2 L154.65 320.55 156.9 320.55 153.1 339.2 152.1 339.2 M157.25 339.2 L159.35 333.0 159.3 339.2 157.25 339.2 M162.55 339.2 L166.1 320.5 164.65 339.2 162.55 339.2 M168.4 339.2 L169.65 320.4 163.9 318.6 191.05 318.8 187.7 320.25 184.15 339.2 182.4 339.2 185.2 320.3 181.45 321.75 179.55 331.55 180.8 320.4 177.0 320.5 175.75 326.85 176.55 320.55 172.65 320.65 169.3 339.2 168.4 339.2 M188.3 339.2 L190.95 319.95 188.85 339.2 188.3 339.2 M192.65 339.2 L192.8 339.0 192.8 339.2 192.65 339.2 M196.65 339.2 L197.4 335.9 197.55 339.2 196.65 339.2 M201.25 339.2 L203.6 319.7 199.5 320.15 198.1 329.2 198.55 320.15 194.8 321.6 193.4 335.95 193.9 320.3 218.75 317.75 213.5 339.2 212.15 339.2 214.35 320.2 210.3 319.9 208.35 339.2 207.05 339.2 209.3 320.1 205.7 319.8 202.8 339.2 201.25 339.2 M218.0 339.2 L219.75 319.75 219.5 339.2 218.0 339.2 M223.65 339.2 L224.8 320.55 221.5 318.8 252.65 318.4 252.0 339.2 249.4 339.2 251.4 320.6 247.35 322.2 246.7 339.2 245.6 339.2 246.5 320.85 238.2 320.3 236.7 339.2 235.5 339.2 235.5 320.0 232.4 320.05 231.2 339.2 229.55 339.2 232.35 320.05 226.75 320.1 225.3 339.2 223.65 339.2 M255.85 339.2 L255.8 319.25 281.95 317.9 277.2 320.2 275.8 339.2 275.0 339.2 276.1 320.35 272.15 320.75 271.05 339.2 270.65 339.2 271.0 321.3 267.75 320.4 266.65 336.05 265.25 320.65 263.4 339.2 261.95 339.2 261.7 320.0 258.5 320.2 257.25 339.2 255.85 339.2 M279.85 339.2 L280.2 319.9 281.05 339.2 279.85 339.2 M285.05 339.2 L285.5 321.25 282.55 318.5 288.3 318.5 286.8 320.05 286.7 339.2 285.2 339.2 285.05 339.2 M290.45 339.2 L291.95 320.35 291.75 339.2 290.45 339.2 M296.25 339.2 L296.85 320.0 297.95 339.2 296.25 339.2 M302.35 339.2 L302.1 320.05 303.3 339.2 302.35 339.2 M307.8 339.2 L307.15 320.25 309.15 339.2 307.8 339.2 M312.9 339.2 L313.75 319.85 313.25 339.2 312.9 339.2 M161.95 319.3 L143.65 319.75 160.6 317.3 161.95 319.3 M125.65 339.2 L128.3 321.25 124.8 320.45 121.95 339.2 121.2 339.2 124.2 320.9 120.85 320.05 112.7 318.8 141.05 318.35 137.25 339.2 136.95 339.2 139.15 320.95 135.25 321.0 133.0 339.2 130.65 339.2 134.2 320.65 129.7 322.1 126.9 339.2 125.65 339.2 M148.45 339.2 L147.15 339.2 150.45 320.4 148.45 339.2 M143.65 339.2 L141.05 339.2 144.75 320.7 143.65 339.2 M103.2 313.15 Q102.45 312.65 102.45 311.95 102.45 311.25 103.2 310.75 103.95 310.25 105.0 310.25 106.05 310.25 106.8 310.75 107.55 311.25 107.55 311.95 107.55 312.65 106.8 313.15 106.05 313.65 105.0 313.65 103.95 313.65 103.2 313.15 M92.45 339.2 L95.75 319.75 111.05 318.05 111.65 320.15 105.35 339.2 103.65 339.2 107.5 322.0 104.9 320.8 100.15 339.2 96.9 339.2 102.0 319.9 98.3 320.8 94.2 339.2 92.45 339.2 M109.45 339.2 L113.85 320.1 111.1 339.2 109.45 339.2 M115.7 339.2 L120.85 320.05 117.8 339.2 115.7 339.2 M97.0 313.75 L94.1 311.5 99.95 311.5 97.0 313.75 M240.85 339.2 L241.1 335.85 241.5 339.2 240.85 339.2 M172.9 339.2 L175.4 329.3 174.25 339.2 172.9 339.2 M308.9 312.5 L307.65 312.8 306.3 312.9 304.05 312.6 303.75 312.5 Q302.65 312.1 302.65 311.5 302.65 310.9 303.75 310.5 L304.0 310.4 306.3 310.1 307.75 310.2 308.9 310.5 Q309.95 310.9 309.95 311.5 309.95 312.1 308.9 312.5 M304.1 319.55 L295.95 318.5 289.45 317.6 306.55 317.35 Q307.35 320.1 304.4 319.6 L304.1 319.55 M299.3 312.35 L279.45 312.5 295.45 311.2 299.3 312.35 M266.9 312.0 Q266.9 312.6 265.65 313.05 L262.6 313.45 259.55 313.05 Q258.3 312.6 258.3 312.0 258.3 311.4 259.55 311.0 L262.6 310.55 265.65 311.0 Q266.9 311.4 266.9 312.0 M269.15 311.95 Q269.15 311.25 270.3 310.75 271.45 310.25 273.05 310.25 274.65 310.25 275.8 310.75 276.95 311.25 276.95 311.95 276.95 312.65 275.8 313.15 L273.05 313.65 Q271.45 313.65 270.3 313.15 269.15 312.65 269.15 311.95" fill="#636b25" fill-rule="evenodd" stroke="none"/>
    <path d="M600.0 220.9 L600.0 309.25 500.6 309.4 500.5 309.4 390.1 309.6 380.65 309.65 249.5 309.85 241.95 309.85 217.15 309.9 214.4 309.9 6.95 310.25 3.15 310.65 0.0 310.95 0.0 227.55 600.0 220.9" fill="#990000" fill-rule="evenodd" stroke="none"/>
    <path d="M600.0 25.8 L600.0 67.2 217.95 66.05 0.0 69.35 0.0 24.2 600.0 25.8" fill="#e87160" fill-rule="evenodd" stroke="none"/>
  </g>
</svg>
