<?xml version="1.0" encoding="UTF-8" standalone="no"?>
<svg xmlns:ffdec="https://www.free-decompiler.com/flash" xmlns:xlink="http://www.w3.org/1999/xlink" ffdec:objectType="shape" height="420.8px" width="622.7px" xmlns="http://www.w3.org/2000/svg">
  <g transform="matrix(1.0, 0.0, 0.0, 1.0, 11.45, 9.05)">
    <path d="M601.6 183.35 L601.6 208.75 598.95 205.2 Q596.1 200.1 596.65 195.4 597.4 189.15 601.6 183.35 M601.6 234.75 L601.6 242.45 Q595.9 246.85 592.8 252.35 L595.45 253.45 599.7 251.45 596.3 254.05 595.45 253.45 560.15 272.15 591.45 247.3 593.75 231.8 580.85 214.65 601.6 234.75 M601.6 293.05 L601.6 316.1 592.6 291.35 589.15 279.3 601.6 293.05 M601.6 322.9 L601.6 323.55 599.85 323.75 601.6 322.9 M601.6 361.45 L601.6 381.0 558.6 344.0 601.6 361.45 M601.6 395.45 L601.6 395.6 601.55 396.5 601.6 396.55 601.6 400.0 593.65 400.0 593.0 400.0 601.6 395.45 M557.8 400.0 L544.7 400.0 547.0 394.4 552.25 395.25 Q551.4 387.55 545.35 379.0 548.4 377.75 548.45 376.35 548.7 370.5 545.9 364.5 L566.75 378.0 557.8 400.0 M535.15 400.0 L530.0 400.0 514.55 377.45 532.6 371.0 541.4 383.65 523.45 377.05 Q513.75 386.05 535.2 399.1 L535.15 400.0 M506.0 400.0 L467.65 400.0 476.75 398.2 503.6 389.1 506.0 400.0 M272.85 400.0 L219.15 400.0 Q249.4 383.4 279.7 366.85 L281.35 365.3 Q281.7 366.15 280.35 368.5 L272.85 400.0 M202.05 400.0 L197.45 400.0 203.5 392.65 204.15 393.2 202.05 400.0 M110.5 400.0 L96.85 400.0 Q94.95 397.65 93.1 397.65 L93.25 400.0 89.7 400.0 89.5 399.75 Q89.2 399.6 89.1 400.0 L1.6 400.0 1.6 311.85 3.7 312.2 23.15 317.4 20.8 315.35 44.6 319.75 9.35 300.35 118.25 344.0 Q118.25 347.45 119.9 349.9 121.6 352.3 123.95 352.3 L131.8 381.6 134.1 394.05 88.9 338.25 97.65 355.45 93.95 352.7 78.3 338.7 101.75 366.6 110.5 400.0 M1.6 289.35 L1.6 282.05 43.65 300.45 1.6 289.35 M1.6 51.85 L1.6 48.6 Q5.2 48.55 7.05 50.3 L8.2 53.5 1.6 51.85 M241.4 0.0 L252.2 0.0 249.3 3.6 244.75 4.85 241.4 0.0 M309.75 0.0 L312.3 0.0 311.4 1.55 309.8 1.5 309.75 0.0 M351.9 0.0 L357.9 0.0 358.45 2.1 352.55 2.0 351.9 0.0 M581.35 102.55 Q580.5 97.45 582.3 96.25 583.35 95.55 586.95 98.75 586.95 100.3 585.3 101.45 583.65 102.55 581.35 102.55 M541.8 92.05 L569.2 96.35 Q557.7 98.5 548.0 104.0 534.7 111.45 545.8 118.65 L522.5 111.1 521.15 105.6 541.8 92.05 M473.85 102.0 Q473.85 95.95 481.05 91.7 488.25 87.45 498.5 87.45 L502.05 91.35 Q496.1 96.85 486.55 98.5 L483.75 118.45 Q481.95 121.55 479.75 119.1 L479.2 118.45 473.85 102.0 M516.45 82.7 L516.5 82.65 516.5 82.7 516.45 82.7 M491.1 152.75 L495.5 154.2 528.5 165.85 519.1 169.45 485.8 169.05 477.9 163.85 491.1 152.75 M456.45 143.05 L456.65 143.4 Q453.05 144.8 450.1 143.95 448.65 143.45 447.9 140.7 L447.9 138.5 448.25 138.6 456.45 143.05 M508.55 200.15 L498.8 202.4 498.3 202.55 Q497.6 202.85 498.3 203.65 L498.0 204.9 485.25 202.95 481.1 202.35 463.2 201.45 480.55 207.4 483.5 208.45 523.25 222.1 529.65 224.3 548.65 230.85 555.9 235.15 563.9 251.65 419.65 258.8 Q415.25 255.25 410.35 254.35 409.45 254.15 408.0 256.6 L389.25 253.0 373.85 250.05 363.25 248.0 361.35 247.65 351.45 245.75 342.75 239.85 337.3 226.2 337.4 224.7 338.25 223.7 Q341.4 222.9 341.6 221.65 342.3 216.8 340.05 211.55 L336.9 198.05 Q345.85 195.7 352.75 190.7 353.85 189.8 352.9 186.2 L364.9 181.2 386.75 178.75 530.4 193.8 508.55 200.15 M561.7 211.25 L557.85 202.9 Q566.7 206.95 568.6 211.1 L561.7 211.25 M569.65 155.75 L560.6 144.1 585.3 130.8 569.65 155.75 M405.65 59.1 Q409.15 56.6 410.85 57.55 419.0 62.0 425.3 69.85 L469.05 74.05 480.1 61.8 473.55 82.45 455.15 84.5 453.3 84.1 446.3 82.65 411.05 71.9 405.65 59.1 M354.25 66.95 Q366.0 66.95 374.3 71.15 382.65 75.35 382.7 81.3 L352.15 78.55 353.6 67.65 354.25 66.95 M333.35 84.0 L314.15 76.4 320.3 62.6 335.7 76.1 335.9 76.45 336.55 78.85 333.35 84.0 M230.0 55.1 L218.3 55.2 211.5 51.6 Q224.95 53.35 234.2 55.1 L230.0 55.1 M206.7 107.65 L205.85 110.4 Q205.25 109.4 205.45 108.65 205.65 108.05 206.7 107.65 M156.55 66.0 L183.3 59.95 194.7 61.35 212.5 77.6 229.6 86.95 229.1 95.0 212.25 83.3 205.4 99.55 192.0 72.05 156.55 66.0 M178.45 48.55 L164.3 47.7 177.9 46.25 178.45 48.55 M377.55 99.55 L414.15 106.4 424.0 115.7 402.6 131.2 362.35 105.0 377.55 99.55 M271.5 97.75 L311.05 88.15 333.15 109.9 271.5 97.75 M461.25 129.2 L459.25 130.4 Q452.3 130.4 447.4 126.55 443.8 123.7 442.85 120.0 L442.55 118.0 442.5 117.25 446.65 116.5 461.25 129.2 M426.75 204.95 L451.45 202.25 427.55 200.35 Q425.05 203.8 424.7 206.1 L426.75 204.95 M385.6 241.25 Q384.1 242.75 384.1 244.9 384.1 247.05 385.6 248.6 387.15 250.1 389.3 250.1 391.45 250.1 392.95 248.6 394.5 247.05 394.5 244.9 394.5 242.75 392.95 241.25 391.45 239.7 389.3 239.7 387.15 239.7 385.6 241.25 M330.7 241.3 L330.15 241.9 Q329.2 240.05 329.5 239.75 L330.7 241.3 M174.2 354.65 L171.3 354.45 158.25 353.7 Q160.9 351.95 160.65 350.9 159.1 344.5 154.65 338.8 L182.55 342.7 174.2 354.65 M306.85 201.5 Q311.1 206.1 310.4 209.65 306.15 230.6 302.8 204.45 L299.6 201.0 301.65 200.3 306.85 201.5 M241.5 215.25 L183.65 225.2 183.65 224.45 Q186.6 221.5 186.05 219.5 180.6 199.8 166.0 222.7 L166.9 227.7 153.75 230.8 140.85 218.6 180.15 171.1 221.5 176.65 233.15 175.65 249.4 185.3 251.95 187.15 242.45 209.85 241.5 215.25 M176.3 247.5 L287.75 229.55 316.7 243.0 314.65 274.45 235.25 284.25 213.5 268.65 194.7 277.4 203.6 301.85 225.45 303.1 200.0 311.25 170.4 283.85 170.15 279.1 185.35 260.8 167.0 276.05 159.15 282.55 149.95 290.2 149.65 290.1 142.8 276.0 170.2 247.9 176.3 247.5 M298.65 229.55 L277.4 217.75 290.05 214.7 309.15 233.75 298.65 229.55 M379.6 341.6 Q411.95 341.6 434.85 348.55 457.75 355.5 457.75 365.3 457.75 375.1 434.85 382.05 411.95 389.0 379.6 389.0 347.25 389.0 324.35 382.05 301.45 375.1 301.45 365.3 301.45 355.5 324.35 348.55 347.25 341.6 379.6 341.6 M533.7 370.5 L532.2 370.0 Q531.8 369.9 531.55 369.55 530.75 368.1 532.5 367.9 534.75 368.5 536.85 369.5 L537.5 369.7 Q538.1 369.85 538.35 370.4 538.8 371.35 538.15 372.05 L537.25 372.15 536.45 371.75 534.6 370.85 533.7 370.5 M109.45 55.2 Q109.45 53.85 109.7 52.6 121.05 30.85 131.4 53.6 131.95 54.75 132.05 56.15 L109.45 55.2 M115.35 114.15 Q121.1 114.15 125.2 117.1 129.35 120.0 129.4 124.15 L130.95 132.45 Q129.35 136.55 126.8 138.55 L125.8 136.5 115.35 114.15 M156.95 170.9 L155.8 173.95 148.2 182.95 125.0 172.05 156.95 170.9 M119.15 166.9 L114.5 163.3 136.3 162.6 119.15 166.9 M107.4 168.35 L108.55 169.5 108.3 169.6 107.4 169.35 107.4 168.35 M111.9 172.9 L132.9 197.75 130.3 219.6 Q113.65 228.95 95.8 232.95 80.95 236.25 64.95 234.25 L43.0 226.1 69.9 200.5 24.55 217.85 31.0 198.7 36.35 182.8 Q40.3 182.8 43.1 181.25 45.9 179.7 45.9 177.55 L77.6 173.45 110.35 173.05 111.9 172.9 M166.1 131.1 L172.4 131.25 Q173.25 131.9 173.95 134.45 L158.0 132.85 Q162.05 131.45 166.1 131.1 M279.0 157.75 L267.5 163.0 263.85 162.25 257.95 152.9 271.9 155.0 274.05 155.35 278.65 154.9 280.35 156.95 279.0 157.75 M276.8 126.3 L276.8 126.35 276.75 126.35 276.8 126.3 M267.75 158.95 Q268.65 158.95 269.3 158.45 269.95 157.9 269.95 157.2 269.95 156.5 269.3 156.0 268.65 155.45 267.75 155.45 266.85 155.45 266.2 156.0 265.55 156.5 265.55 157.2 265.55 157.9 266.2 158.45 266.85 158.95 267.75 158.95 M308.5 157.55 L308.5 158.45 307.85 158.3 308.5 157.55 M85.0 91.15 L84.25 90.2 77.35 53.8 99.35 82.45 90.65 94.8 85.0 91.15 M20.7 103.0 L23.1 116.3 22.4 117.55 4.15 114.6 3.45 113.8 3.5 108.85 20.7 103.0 M48.15 94.25 L37.95 64.55 44.95 70.55 47.95 75.2 53.2 97.4 Q52.1 97.9 51.05 98.45 L48.15 94.25 M67.4 97.35 Q73.4 97.35 77.6 103.7 81.85 110.05 81.9 119.0 74.95 119.0 70.05 115.8 65.4 112.7 65.25 108.35 L64.75 99.85 67.4 97.35 M47.6 113.6 L55.2 122.0 39.1 126.05 47.6 113.6 M136.35 230.2 Q139.45 229.65 143.35 233.2 L124.85 237.1 Q130.2 231.6 136.35 230.2 M74.7 254.55 L91.4 256.5 90.8 261.7 74.7 254.55 M54.95 341.45 Q56.35 344.15 58.25 344.05 60.15 343.95 61.45 341.15 62.7 338.5 62.75 335.0 62.75 332.45 61.4 330.7 60.0 328.9 58.1 328.95 56.2 328.95 54.9 330.8 53.55 332.6 53.65 335.1 53.65 338.85 54.95 341.45" fill="#999999" fill-rule="evenodd" stroke="none"/>
    <path d="M595.55 0.0 Q598.55 0.0 599.9 1.5 601.6 3.45 601.6 6.95 L585.3 18.8 595.55 0.0 M601.6 10.3 L601.6 33.45 599.4 32.85 601.6 10.3 M601.6 47.25 L601.6 63.15 574.05 51.7 601.6 47.25 M601.6 122.55 L601.6 151.05 569.65 155.75 585.3 130.8 601.6 122.55 M601.6 164.45 L601.6 183.35 Q597.4 189.15 596.65 195.4 596.1 200.1 598.95 205.2 L580.15 188.65 601.6 164.45 M601.6 229.55 L601.6 234.75 580.85 214.65 593.75 231.8 591.45 247.3 560.15 272.15 595.45 253.45 596.3 254.05 Q594.65 255.35 594.85 256.3 595.1 257.65 597.2 258.6 L573.35 281.45 572.75 276.15 Q565.4 279.7 558.05 283.3 L553.95 285.25 553.45 283.85 546.45 264.2 523.05 282.4 423.2 283.3 451.05 274.75 428.5 276.25 Q430.85 273.05 430.05 271.45 426.45 264.3 419.65 258.8 L563.9 251.65 555.9 235.15 558.35 235.35 Q558.1 238.0 559.4 240.15 560.75 242.25 562.75 242.5 564.8 242.7 566.3 240.9 567.85 239.05 568.05 236.1 572.05 236.4 574.2 238.55 591.85 256.0 561.7 211.25 L568.6 211.1 Q566.7 206.95 557.85 202.9 L537.25 195.15 534.4 195.1 508.55 200.15 530.4 193.8 386.75 178.75 386.1 178.4 385.25 178.6 381.7 177.95 399.55 172.3 359.75 175.9 359.85 174.85 362.65 174.05 375.15 167.5 380.3 165.65 389.35 163.15 447.9 165.3 451.35 168.7 509.85 176.2 485.8 169.05 519.1 169.45 586.55 209.65 601.6 229.55 M601.6 242.45 L601.6 250.05 599.7 251.45 595.45 253.45 592.8 252.35 Q595.9 246.85 601.6 242.45 M601.6 273.55 L601.6 293.05 589.15 279.3 601.6 273.55 M601.6 323.55 L601.6 330.35 582.65 326.8 Q585.1 331.25 590.15 336.15 L546.4 321.95 542.1 319.65 551.8 314.1 Q551.75 314.7 552.45 315.15 553.2 315.55 554.25 315.55 L571.6 319.7 558.3 303.25 599.85 323.75 601.6 323.55 M601.6 336.8 L601.6 342.85 576.9 338.65 575.45 337.55 601.6 336.8 M601.6 381.0 L601.6 395.45 593.0 400.0 583.85 400.0 583.95 372.9 575.6 400.0 557.8 400.0 566.75 378.0 545.9 364.5 Q548.7 370.5 548.45 376.35 548.4 377.75 545.35 379.0 L536.45 371.75 537.25 372.15 538.15 372.05 Q538.8 371.35 538.35 370.4 538.1 369.85 537.5 369.7 L536.85 369.5 Q534.75 368.5 532.5 367.9 530.75 368.1 531.55 369.55 531.8 369.9 532.2 370.0 L533.7 370.5 532.6 371.0 514.55 377.45 503.6 389.1 476.75 398.2 459.85 386.25 494.3 374.9 502.45 360.35 535.3 353.25 518.35 333.7 516.4 332.75 Q519.55 333.4 524.65 335.0 L558.6 344.0 601.6 381.0 M544.7 400.0 L542.6 400.0 523.45 377.05 541.4 383.65 Q541.4 388.1 543.05 391.25 544.7 394.4 547.0 394.4 L544.7 400.0 M430.55 400.0 L315.95 400.0 280.35 368.5 Q281.7 366.15 281.35 365.3 L279.7 366.85 280.85 345.85 300.25 327.5 260.5 333.45 304.15 325.5 304.7 326.9 305.45 327.95 Q323.95 344.6 327.5 318.05 L343.5 315.7 372.0 311.75 386.7 313.6 345.0 330.75 398.75 329.2 407.9 328.15 436.35 336.75 429.05 326.9 504.25 330.7 509.15 331.75 489.55 341.4 440.85 338.1 493.9 354.2 430.55 400.0 M207.4 400.0 L202.05 400.0 204.15 393.2 Q207.15 394.85 208.35 397.35 208.75 398.25 207.4 400.0 M186.25 400.0 L176.8 400.0 207.65 379.45 186.25 400.0 M145.8 400.0 L133.9 400.0 97.65 355.45 88.9 338.25 134.1 394.05 131.8 381.6 145.8 400.0 M96.85 400.0 L93.25 400.0 93.1 397.65 Q94.95 397.65 96.85 400.0 M1.6 311.85 L1.6 310.9 3.7 312.2 1.6 311.85 M1.6 305.6 L1.6 299.8 9.35 300.35 44.6 319.75 20.8 315.35 1.6 305.6 M1.6 266.9 L1.6 247.8 Q4.95 248.35 6.55 251.3 12.35 261.6 15.75 273.3 L1.6 266.9 M1.6 230.55 L1.6 213.8 Q3.55 213.8 4.9 213.05 6.3 212.3 6.3 211.25 6.3 210.2 4.9 209.45 3.55 208.7 1.6 208.75 L1.6 168.7 23.35 152.65 59.3 153.1 60.8 157.1 57.45 159.0 Q62.1 162.15 70.1 163.4 L73.8 163.65 91.1 162.35 81.85 172.3 77.6 173.45 45.9 177.55 36.0 182.0 23.9 187.35 19.95 203.05 31.0 198.7 24.55 217.85 69.9 200.5 43.0 226.1 64.95 234.25 1.6 230.55 M1.6 136.8 L1.6 135.5 2.65 133.55 1.6 136.8 M43.3 0.05 L43.8 0.0 41.25 7.05 Q34.4 0.15 28.35 7.5 28.15 7.8 28.1 8.25 31.65 15.4 39.55 11.45 L39.75 11.3 37.85 16.5 23.25 23.45 19.25 25.65 14.2 25.9 11.7 21.95 23.6 16.75 4.1 5.55 5.9 5.3 10.65 4.9 19.4 3.85 24.95 3.5 31.85 3.25 Q34.05 3.25 35.95 2.5 L36.4 2.05 36.5 1.6 40.6 1.55 41.8 1.45 42.85 0.9 Q43.35 0.45 43.3 0.05 M51.15 0.0 L91.8 0.0 80.1 10.25 Q58.15 12.15 61.9 9.9 L52.4 9.1 51.15 0.0 M150.75 0.0 L151.0 0.0 Q150.95 1.45 150.4 2.5 149.85 3.5 149.1 3.5 L150.75 0.0 M163.1 0.0 L202.95 0.0 210.85 13.65 208.35 16.55 182.15 25.6 163.15 23.15 183.65 19.6 165.1 9.8 163.1 0.0 M221.55 0.0 L225.85 0.0 222.6 1.3 221.55 0.0 M235.55 0.0 L241.4 0.0 244.75 4.85 243.85 6.2 235.55 0.0 M387.1 0.0 L387.9 0.0 396.85 8.7 Q393.3 10.05 391.55 12.65 390.2 14.65 390.7 17.9 L388.8 27.75 Q383.9 27.5 382.15 25.05 378.6 20.05 378.15 12.9 L387.1 0.0 M396.9 0.0 L441.3 0.0 431.45 7.25 396.9 0.0 M499.35 0.0 L505.05 0.0 502.3 4.15 499.35 0.0 M523.75 0.0 L531.55 0.0 526.65 17.3 516.95 17.1 523.75 0.0 M539.05 0.0 L547.15 0.05 544.05 7.4 539.05 0.0 M586.95 98.75 Q583.35 95.55 582.3 96.25 580.5 97.45 581.35 102.55 L545.8 118.65 Q534.7 111.45 548.0 104.0 557.7 98.5 569.2 96.35 L541.8 92.05 580.8 82.75 586.25 86.5 Q586.25 87.2 586.9 87.7 L588.55 88.15 595.4 93.05 586.95 98.75 M497.75 37.6 Q497.4 33.85 495.7 33.05 491.5 31.2 485.95 32.3 L478.3 28.9 476.45 19.5 518.8 39.1 514.35 45.1 497.75 37.6 M461.55 43.25 L491.25 56.5 479.25 80.8 473.55 82.45 480.1 61.8 469.05 74.05 425.3 69.85 Q419.0 62.0 410.85 57.55 409.15 56.6 405.65 59.1 L414.3 45.0 444.85 35.75 461.55 43.25 M467.65 107.3 L473.85 102.0 479.2 118.45 472.65 117.75 467.65 107.3 M498.5 87.45 L518.6 85.8 Q518.6 87.25 519.1 88.3 519.65 89.3 520.4 89.3 L515.8 94.05 515.4 95.0 513.75 98.15 512.65 99.75 Q511.55 106.9 504.3 112.2 495.8 118.45 483.75 118.45 L486.55 98.5 Q496.1 96.85 502.05 91.35 L498.5 87.45 M486.55 141.25 L484.8 131.4 489.25 129.9 542.15 156.7 542.7 157.05 504.85 148.1 487.9 143.6 486.55 141.25 M516.5 82.65 L516.45 82.7 512.65 81.8 511.6 81.8 Q507.65 81.35 510.65 79.8 L512.25 79.45 515.2 80.4 516.5 82.65 M548.65 72.6 L550.15 70.2 568.4 73.6 Q541.25 85.15 548.65 72.6 M491.1 152.75 L477.9 163.85 459.65 158.75 430.0 155.7 429.9 155.65 447.9 140.7 Q448.65 143.45 450.1 143.95 453.05 144.8 456.65 143.4 L491.1 152.75 M456.0 140.45 L456.45 143.05 448.25 138.6 456.0 140.45 M498.8 202.4 L498.3 203.65 Q497.6 202.85 498.3 202.55 L498.8 202.4 M498.0 204.9 Q518.95 204.9 533.8 212.5 548.65 220.1 548.65 230.85 L529.65 224.3 532.8 220.95 Q529.6 219.85 523.25 222.1 L483.5 208.45 485.25 202.95 498.0 204.9 M472.55 17.65 Q469.8 20.25 468.1 24.3 L453.4 11.4 472.55 17.65 M436.2 45.85 Q434.7 46.9 434.7 48.45 434.7 50.0 436.2 51.1 437.7 52.15 439.8 52.15 441.9 52.15 443.4 51.1 444.9 50.0 444.9 48.45 444.9 46.9 443.4 45.85 441.9 44.75 439.8 44.75 437.7 44.75 436.2 45.85 M414.75 79.15 L412.95 78.55 411.05 71.9 446.3 82.65 414.75 79.15 M440.65 95.7 L435.6 92.9 Q442.15 94.0 444.85 95.5 L442.55 95.75 440.65 95.7 M453.3 84.1 L455.15 84.5 454.55 84.55 453.3 84.1 M462.05 68.75 L462.05 61.45 448.0 61.45 448.0 68.75 462.05 68.75 M440.95 107.9 L451.9 109.95 461.25 129.2 446.65 116.5 442.3 116.35 440.95 107.9 M454.75 133.7 L444.6 131.15 442.85 120.0 Q443.8 123.7 447.4 126.55 452.3 130.4 459.25 130.4 L454.75 133.7 M428.8 126.05 L400.35 143.25 376.95 143.65 383.75 135.05 358.45 129.85 361.95 101.85 377.55 99.55 362.35 105.0 402.6 131.2 424.0 115.7 428.8 126.05 M354.3 15.45 L352.55 2.0 358.45 2.1 365.35 25.6 354.3 15.45 M339.2 48.5 L323.55 45.55 341.05 25.45 359.2 35.75 339.2 48.5 M353.6 67.65 Q353.55 67.35 353.75 67.15 L354.25 66.95 353.6 67.65 M382.7 81.3 L385.8 82.9 Q381.3 85.7 373.65 86.95 L371.95 87.2 Q362.35 88.1 354.6 84.7 352.4 83.75 352.15 78.55 L382.7 81.3 M329.5 92.3 Q324.95 89.65 324.0 87.4 L327.55 87.85 329.5 92.3 M336.65 79.2 Q336.55 81.85 335.25 83.7 334.9 84.25 333.35 84.0 L336.55 78.85 336.65 79.2 M314.15 76.4 L305.75 76.6 300.0 76.1 Q288.8 74.2 300.0 65.35 L277.7 63.75 280.35 60.35 320.3 62.6 314.15 76.4 M254.0 58.15 L247.8 58.65 244.15 60.8 230.0 55.1 234.2 55.1 Q224.95 53.35 211.5 51.6 L207.1 52.2 Q204.8 50.15 204.4 47.85 199.8 20.5 236.05 39.5 L236.1 39.6 Q236.1 42.1 237.0 42.55 241.25 44.3 246.4 43.95 L254.05 57.9 254.05 58.15 254.0 58.15 M235.55 74.6 L239.6 71.75 Q246.9 94.25 235.75 75.45 L235.55 74.6 M229.5 97.05 L228.5 100.55 Q226.65 100.7 226.2 101.4 L228.05 102.1 206.7 107.65 Q205.65 108.05 205.45 108.65 205.25 109.4 205.85 110.4 L156.55 66.0 192.0 72.05 205.4 99.55 212.25 83.3 229.1 95.0 229.5 97.05 M183.3 59.95 Q185.35 57.6 187.1 57.75 191.05 58.3 194.7 61.35 L183.3 59.95 M212.5 77.6 L229.75 85.2 229.6 86.95 212.5 77.6 M137.0 10.65 L142.05 8.35 Q141.55 10.5 140.35 11.15 139.0 11.65 137.0 10.65 M335.9 76.45 L335.7 76.1 335.8 76.15 335.9 76.45 M333.15 109.9 L325.45 127.9 271.5 97.75 333.15 109.9 M343.7 108.35 Q340.1 98.6 345.65 109.05 343.95 108.95 343.7 108.35 M318.2 158.15 L322.05 149.95 Q327.2 151.2 327.15 157.35 L327.15 158.9 320.9 160.7 318.55 158.65 318.2 158.15 M334.2 192.15 L338.25 188.8 364.9 181.2 352.9 186.2 334.2 192.15 M351.85 177.8 L351.75 176.7 357.8 174.55 357.9 174.6 358.1 176.25 351.85 177.8 M442.4 117.2 L442.5 117.25 442.55 118.0 442.4 117.2 M481.1 202.35 L480.55 207.4 463.2 201.45 481.1 202.35 M408.0 256.6 L423.35 275.6 422.65 275.6 389.25 253.0 408.0 256.6 M360.3 253.8 L358.35 256.3 Q353.9 252.3 351.45 245.75 L361.35 247.65 360.95 250.75 360.3 253.8 M342.75 239.85 L340.3 239.95 337.3 226.2 342.75 239.85 M340.05 211.55 Q342.3 216.8 341.6 221.65 341.4 222.9 338.25 223.7 L340.05 211.55 M331.45 240.65 L330.7 241.3 329.5 239.75 Q329.2 240.05 330.15 241.9 L321.4 277.5 326.75 289.65 322.25 299.55 319.9 299.55 Q319.9 296.8 318.7 296.2 315.75 294.6 311.65 295.15 L293.9 287.0 268.55 299.75 225.45 303.1 203.6 301.85 194.7 277.4 Q198.5 279.15 201.0 278.0 207.95 274.75 213.5 268.65 L235.25 284.25 314.65 274.45 316.7 243.0 321.5 240.95 Q317.7 236.3 309.15 233.75 L290.05 214.7 277.4 217.75 298.65 229.55 287.75 229.55 176.3 247.5 219.15 225.1 183.65 225.2 241.5 215.25 276.55 204.5 258.05 214.15 302.8 204.45 Q306.15 230.6 310.4 209.65 311.1 206.1 306.85 201.5 L315.7 204.1 322.6 211.0 331.45 240.65 M192.8 340.85 Q192.75 346.55 187.3 350.6 181.9 354.65 174.2 354.65 L182.55 342.7 154.65 338.8 162.1 325.8 139.35 329.25 126.35 309.65 140.15 302.5 192.8 340.85 M340.35 269.55 Q341.6 271.6 339.9 271.25 L340.35 269.55 M427.05 306.1 L396.75 318.0 394.85 313.75 406.3 302.45 421.05 304.7 427.05 306.1 M379.6 341.6 Q347.25 341.6 324.35 348.55 301.45 355.5 301.45 365.3 301.45 375.1 324.35 382.05 347.25 389.0 379.6 389.0 411.95 389.0 434.85 382.05 457.75 375.1 457.75 365.3 457.75 355.5 434.85 348.55 411.95 341.6 379.6 341.6 M516.75 313.95 L474.6 303.3 506.9 301.5 517.4 313.95 516.75 313.95 M575.15 320.05 Q573.5 320.05 572.3 321.25 571.15 322.4 571.15 324.1 571.15 325.8 572.3 327.0 573.5 328.15 575.15 328.15 576.8 328.15 577.95 327.0 579.15 325.8 579.15 324.1 579.15 322.4 577.95 321.25 576.8 320.05 575.15 320.05 M294.6 13.0 Q300.85 13.0 305.3 9.65 309.8 6.25 309.8 1.5 L311.4 1.55 Q310.25 4.8 311.3 6.95 313.85 12.1 318.6 16.2 L310.45 28.65 310.35 28.9 309.35 28.9 292.8 24.65 294.6 13.0 M302.5 44.3 L303.65 38.1 308.4 38.1 Q307.8 41.2 302.5 44.3 M270.15 39.35 Q270.15 37.85 269.05 36.8 268.25 36.05 267.3 35.85 L286.7 37.85 270.15 39.35 M281.75 74.6 L298.25 80.05 271.05 84.4 281.75 74.6 M237.6 38.25 L232.15 18.0 245.5 42.35 238.15 38.8 237.6 38.25 M222.0 127.25 Q209.35 130.65 221.05 124.25 L222.0 127.25 M231.6 135.5 Q219.95 122.55 235.8 130.9 L231.6 135.5 M185.65 111.85 L184.95 110.45 187.45 110.6 185.65 111.85 M123.1 77.1 L110.75 61.8 109.45 55.2 132.05 56.15 123.1 77.1 M107.65 35.3 L101.65 35.0 82.15 31.25 99.1 32.6 88.8 21.05 105.1 11.25 121.85 27.25 107.65 35.3 M181.45 156.55 L185.35 157.45 Q184.0 158.95 178.8 159.6 L181.45 156.55 M109.65 113.05 L115.35 114.15 125.8 136.5 Q119.1 136.5 114.35 129.65 112.85 127.45 111.85 124.95 L109.65 113.05 M122.9 146.65 L167.4 160.95 156.95 170.9 125.0 172.05 119.15 166.9 136.3 162.6 114.5 163.3 108.65 160.05 103.65 155.15 119.25 148.0 122.9 146.65 M108.55 169.5 L111.9 172.9 110.35 173.05 108.3 169.6 108.55 169.5 M173.95 134.45 L162.45 136.9 Q161.2 136.6 160.05 135.55 158.95 134.5 158.0 132.85 L173.95 134.45 M221.5 176.65 L216.3 163.7 269.4 179.55 272.35 180.4 264.35 188.3 242.45 209.85 251.95 187.15 254.4 185.6 Q238.25 167.9 249.4 185.3 L233.15 175.65 221.5 176.65 M281.5 158.45 L279.0 157.75 280.35 156.95 281.5 158.45 M267.5 163.0 L269.5 166.1 Q267.65 165.7 263.85 162.25 L267.5 163.0 M257.95 152.9 L244.85 136.65 271.9 155.0 257.95 152.9 M274.05 155.35 L274.4 154.8 Q276.55 152.6 278.65 154.9 L274.05 155.35 M276.8 126.3 L276.75 126.35 Q274.75 130.65 274.35 130.4 245.35 119.95 276.8 126.3 M267.75 158.95 Q266.85 158.95 266.2 158.45 265.55 157.9 265.55 157.2 265.55 156.5 266.2 156.0 266.85 155.45 267.75 155.45 268.65 155.45 269.3 156.0 269.95 156.5 269.95 157.2 269.95 157.9 269.3 158.45 268.65 158.95 267.75 158.95 M308.5 157.55 Q311.1 153.25 313.0 153.5 313.55 153.6 313.4 158.3 L308.5 158.45 308.5 157.55 M320.65 179.35 L320.45 176.6 328.0 178.15 320.65 179.35 M240.25 101.5 L247.55 97.8 Q243.9 111.4 240.25 101.5 M154.7 6.7 Q154.7 7.5 154.1 8.1 153.55 8.65 152.75 8.65 151.95 8.65 151.35 8.1 150.8 7.5 150.8 6.7 150.8 5.9 151.35 5.35 151.95 4.75 152.75 4.75 153.55 4.75 154.1 5.35 154.7 5.9 154.7 6.7 M140.35 35.75 Q146.05 36.2 146.5 38.0 146.9 39.55 142.0 42.45 L140.35 35.75 M86.35 95.55 L85.0 91.15 90.65 94.8 88.15 96.5 Q87.25 96.0 86.35 95.55 M84.25 90.2 L75.75 86.6 73.05 75.55 62.2 47.6 77.35 53.8 84.25 90.2 M98.7 101.8 L98.4 101.7 98.55 101.55 98.7 101.8 M64.75 8.7 L65.35 8.4 65.35 2.8 59.75 2.8 59.75 8.4 60.2 8.7 Q62.3 9.5 62.05 9.8 L64.75 8.7 M12.6 66.7 L20.7 103.0 3.5 108.85 12.6 66.7 M23.1 116.3 Q23.55 117.4 23.2 118.1 L22.4 117.55 23.1 116.3 M4.15 114.6 Q3.85 114.6 3.65 114.4 L3.45 113.8 4.15 114.6 M48.15 94.25 L28.3 58.9 28.45 57.4 28.5 56.55 Q30.15 57.5 31.8 58.75 34.9 61.15 37.95 64.55 L48.15 94.25 M58.1 71.15 L43.35 58.55 40.5 56.8 39.4 55.9 Q38.1 54.75 39.6 54.1 L40.7 54.55 52.2 52.4 58.3 70.85 58.1 71.15 M51.05 98.45 Q52.1 97.9 53.2 97.4 L53.05 100.45 51.05 98.45 M64.75 99.85 Q64.4 96.75 65.75 95.5 L67.4 97.35 64.75 99.85 M81.9 119.0 L83.9 123.55 83.75 125.4 Q76.05 125.4 70.6 120.3 65.35 115.35 65.25 108.35 65.4 112.7 70.05 115.8 74.95 119.0 81.9 119.0 M55.2 122.0 L56.55 124.15 39.75 130.3 34.0 127.05 33.55 123.9 36.9 101.85 47.6 113.6 39.1 126.05 55.2 122.0 M91.85 130.45 L93.05 135.65 75.45 145.35 Q75.45 139.15 79.75 134.75 84.0 130.4 89.95 130.35 L91.85 130.45 M90.8 261.7 L107.85 278.45 108.15 252.45 123.95 256.4 123.45 274.45 102.45 291.9 80.35 282.65 74.7 254.55 90.8 261.7 M132.25 277.9 L128.3 275.15 134.3 271.25 170.2 247.9 142.8 276.0 149.65 290.1 132.25 277.9 M159.15 282.55 Q157.4 287.1 154.1 289.8 152.8 290.9 149.95 290.2 L159.15 282.55 M167.0 276.05 L185.35 260.8 170.15 279.1 167.0 276.05 M170.4 283.85 L200.0 311.25 Q187.7 311.25 179.0 303.25 170.35 295.2 170.4 283.85 M2.05 217.05 Q3.25 216.05 2.05 216.95 L2.05 217.05 M105.8 318.75 L84.9 308.3 107.15 310.0 105.8 318.75 M93.95 352.7 L101.75 366.6 78.3 338.7 93.95 352.7 M299.6 201.0 L297.75 200.0 301.65 200.3 299.6 201.0 M183.65 224.45 L166.0 222.7 Q180.6 199.8 186.05 219.5 186.6 221.5 183.65 224.45 M236.4 287.9 Q234.4 285.9 231.55 285.9 228.7 285.9 226.7 287.9 224.7 289.9 224.7 292.75 224.7 295.6 226.7 297.6 228.7 299.6 231.55 299.6 234.4 299.6 236.4 297.6 238.4 295.6 238.4 292.75 238.4 289.9 236.4 287.9 M280.85 345.85 L265.55 369.4 233.3 373.15 280.85 345.85" fill="#666666" fill-rule="evenodd" stroke="none"/>
    <path d="M601.6 250.05 L601.6 256.3 597.2 258.6 Q595.1 257.65 594.85 256.3 594.65 255.35 596.3 254.05 L599.7 251.45 601.6 250.05 M542.6 400.0 L535.15 400.0 535.2 399.1 Q513.75 386.05 523.45 377.05 L542.6 400.0 M547.15 0.05 L556.0 0.0 Q555.4 5.5 552.5 7.3 549.45 9.2 544.05 7.4 L547.15 0.05 M572.05 0.0 L573.95 0.0 Q573.05 1.2 572.15 1.2 L572.05 0.0" fill="#333333" fill-rule="evenodd" stroke="none"/>
    <path d="M601.6 6.95 L601.6 10.3 599.4 32.85 Q577.25 33.3 563.65 39.1 550.05 44.85 551.25 52.55 552.5 60.25 567.8 65.4 583.1 70.5 601.6 70.1 L601.6 91.5 595.4 93.05 588.55 88.15 586.25 86.5 580.8 82.75 Q572.2 81.0 566.0 76.45 L568.4 73.6 550.15 70.2 548.65 72.6 532.65 72.35 535.05 74.5 Q535.0 76.0 536.45 77.1 537.95 78.15 540.0 78.15 L515.2 80.4 512.25 79.45 510.65 79.8 488.45 71.65 501.4 54.65 461.55 43.25 444.85 35.75 414.3 45.0 Q405.1 44.65 398.05 49.4 391.05 54.1 390.65 61.05 390.25 68.0 396.7 73.15 403.15 78.25 412.95 78.55 L414.75 79.15 454.55 84.55 455.15 84.5 473.55 82.45 479.25 80.8 467.65 107.3 472.65 117.75 486.55 141.25 487.9 143.6 504.85 148.1 542.7 157.05 542.15 156.7 506.9 123.45 515.5 105.05 516.8 123.5 547.0 122.4 528.7 127.75 546.3 138.3 580.15 128.8 554.0 146.45 562.05 163.95 586.6 158.1 573.0 168.9 590.6 165.4 574.8 186.05 580.25 198.3 601.6 213.55 601.6 229.55 586.55 209.65 528.5 165.85 495.5 154.2 456.0 140.45 448.25 138.6 447.9 138.5 429.9 155.65 430.0 155.7 443.7 162.45 400.35 143.25 428.8 126.05 444.6 131.15 454.75 133.7 469.8 140.55 468.55 123.45 451.9 109.95 440.95 107.9 438.1 105.85 Q436.55 109.9 437.85 116.0 L366.0 50.45 344.8 48.0 Q356.75 45.85 365.65 34.3 376.6 20.1 376.6 0.0 L378.55 0.0 376.5 35.0 388.8 27.75 390.7 17.9 396.85 8.7 387.9 0.0 396.9 0.0 431.45 7.25 402.0 8.55 442.4 15.8 Q451.95 3.2 452.35 20.35 452.35 21.0 455.35 21.7 L456.05 21.25 514.35 45.1 518.8 39.1 509.35 13.7 Q509.3 12.4 508.35 11.5 507.4 10.6 506.1 10.6 504.5 10.6 503.35 8.7 502.25 6.8 502.3 4.15 L505.05 0.0 523.75 0.0 516.95 17.1 536.9 30.0 526.65 17.3 531.55 0.0 539.05 0.0 544.05 7.4 Q549.45 9.2 552.5 7.3 555.4 5.5 556.0 0.0 L572.05 0.0 572.15 1.2 Q573.05 1.2 573.95 0.0 L595.55 0.0 585.3 18.8 601.6 6.95 M601.6 256.3 L601.6 273.55 589.15 279.3 592.6 291.35 536.05 305.1 524.0 299.7 506.9 301.5 474.6 303.3 476.0 315.5 516.75 313.95 517.4 313.95 Q551.05 306.05 538.65 314.8 L542.1 319.65 546.4 321.95 575.45 337.55 576.9 338.65 601.6 349.05 601.6 351.35 524.65 335.0 Q519.55 333.4 516.4 332.75 L518.35 333.7 509.15 331.75 504.25 330.7 447.65 317.85 452.25 305.9 469.25 309.25 Q438.9 285.95 446.1 303.0 L427.05 306.1 421.05 304.7 407.3 297.15 372.0 311.75 343.5 315.7 Q331.2 301.15 330.15 313.5 329.95 315.85 327.5 318.05 323.95 344.6 305.45 327.95 L304.7 326.9 304.15 325.5 260.5 333.45 Q220.15 333.45 191.6 352.95 163.05 372.45 163.05 400.0 L146.1 400.0 Q146.1 381.15 153.45 367.8 160.85 354.45 171.3 354.45 L174.2 354.65 Q181.9 354.65 187.3 350.6 192.75 346.55 192.8 340.85 L192.1 324.6 153.3 301.6 218.55 324.05 211.7 329.0 259.75 321.25 250.1 311.95 287.1 298.35 268.55 299.75 293.9 287.0 311.65 295.15 276.25 314.75 319.9 299.55 322.25 299.55 Q326.55 298.3 327.75 295.6 328.8 293.35 326.75 289.65 L321.4 277.5 330.15 241.9 330.7 241.3 331.45 240.65 337.4 224.7 337.3 226.2 340.3 239.95 359.0 276.4 374.25 278.6 384.9 269.7 419.35 291.15 524.9 294.8 540.75 280.95 543.45 285.05 553.45 283.85 553.95 285.25 558.05 283.3 573.35 281.45 597.2 258.6 601.6 256.3 M197.45 400.0 L188.15 400.0 Q199.1 392.3 206.75 388.65 L203.5 392.65 197.45 400.0 M89.7 400.0 L89.1 400.0 Q89.2 399.6 89.5 399.75 L89.7 400.0 M1.6 310.9 L1.6 305.6 20.8 315.35 23.15 317.4 3.7 312.2 1.6 310.9 M1.6 213.8 L1.6 208.75 Q3.55 208.7 4.9 209.45 6.3 210.2 6.3 211.25 6.3 212.3 4.9 213.05 3.55 213.8 1.6 213.8 M1.6 165.7 L1.6 138.9 25.1 136.2 28.85 89.65 33.55 123.9 34.0 127.05 Q34.3 129.5 35.6 130.25 37.2 131.15 39.75 130.3 L56.55 124.15 58.85 98.75 69.2 126.35 62.5 149.05 73.8 163.65 70.1 163.4 60.8 157.1 59.3 153.1 37.25 143.45 1.6 165.7 M1.6 57.3 L1.6 51.85 8.2 53.5 7.05 50.3 2.75 32.8 14.2 25.9 19.25 25.65 Q20.9 25.65 22.05 25.0 23.25 24.35 23.25 23.45 L37.85 16.5 62.2 29.65 52.4 9.1 61.9 9.9 Q58.15 12.15 80.1 10.25 L66.0 29.05 96.55 43.55 91.3 36.3 98.0 37.25 101.65 35.0 107.65 35.3 109.7 52.6 Q109.45 53.85 109.45 55.2 L110.75 61.8 123.1 77.1 151.95 88.3 143.2 70.2 184.95 110.45 185.65 111.85 202.4 132.05 172.4 131.25 166.1 131.1 151.6 130.7 160.05 135.55 Q161.2 136.6 162.45 136.9 L176.45 144.9 177.7 144.85 216.75 154.45 193.8 152.15 181.45 156.55 178.8 159.6 143.25 141.7 138.1 115.4 109.65 113.05 111.85 124.95 114.7 140.45 122.9 146.65 119.25 148.0 99.35 145.75 Q102.6 142.0 101.75 140.3 98.8 134.35 91.85 130.45 L89.95 130.35 Q87.4 130.3 85.55 128.9 83.7 127.45 83.75 125.4 L83.9 123.55 Q83.85 103.5 73.3 89.35 62.8 75.2 47.95 75.2 L44.95 70.55 Q50.65 73.45 56.4 74.25 57.2 73.75 58.1 71.15 L58.3 70.85 61.7 57.25 73.05 75.55 75.75 86.6 86.35 95.55 Q87.25 96.0 88.15 96.5 L98.4 101.7 98.7 101.8 108.5 88.55 94.55 50.5 76.8 38.9 39.25 43.35 Q46.7 36.1 40.6 28.2 L22.2 34.4 32.7 44.1 42.2 63.05 31.8 58.75 Q30.15 57.5 28.5 56.55 L28.45 57.4 25.35 56.1 20.45 60.4 24.1 72.7 12.6 66.7 1.6 57.3 M1.6 23.2 L1.6 6.5 Q-0.15 6.7 0.05 4.75 L-0.05 1.15 0.05 0.0 43.3 0.0 43.3 0.05 Q43.35 0.45 42.85 0.9 L41.8 1.45 40.6 1.55 36.5 1.6 36.4 2.05 35.95 2.5 Q34.05 3.25 31.85 3.25 L24.95 3.5 19.4 3.85 10.65 4.9 5.9 5.3 4.1 5.55 23.6 16.75 11.7 21.95 1.6 23.2 M109.45 0.0 L132.1 0.0 Q132.05 7.85 128.7 13.4 125.4 18.9 120.7 18.9 116.0 18.9 112.65 13.4 109.35 7.85 109.45 0.0 M151.0 0.0 L163.1 0.0 165.1 9.8 183.65 19.6 163.15 23.15 177.0 33.8 208.35 16.55 210.85 13.65 211.7 0.0 218.5 0.0 222.6 1.3 225.85 0.0 235.55 0.0 243.85 6.2 245.95 11.9 Q248.65 10.6 249.3 3.6 L252.2 0.0 309.75 0.0 309.8 1.5 Q309.8 6.25 305.3 9.65 300.85 13.0 294.6 13.0 L291.15 10.6 Q290.3 16.45 292.8 24.65 L309.35 28.9 Q306.95 28.9 305.25 31.6 303.6 34.3 303.65 38.1 L302.5 44.3 Q313.75 64.95 286.95 57.85 284.15 57.1 280.35 60.35 L277.7 63.75 252.55 87.35 254.0 58.15 254.05 58.15 254.05 57.9 256.7 42.7 235.05 16.3 195.6 31.55 Q192.9 41.75 186.4 48.15 184.3 50.25 178.45 48.55 L177.9 46.25 142.3 27.8 160.85 27.95 137.0 10.65 Q139.0 11.65 140.35 11.15 141.55 10.5 142.05 8.35 142.45 6.4 143.6 5.6 145.95 3.95 149.1 3.5 149.85 3.5 150.4 2.5 150.95 1.45 151.0 0.0 M331.4 0.0 L351.9 0.0 352.55 2.0 354.3 15.45 322.7 20.85 327.35 2.35 Q340.55 15.0 333.1 3.45 332.05 1.85 331.4 0.0 M474.5 0.0 L486.55 0.0 496.1 13.9 478.4 11.95 474.5 0.0 M586.05 45.05 Q583.15 45.05 581.1 43.65 579.05 42.25 579.05 40.25 579.05 38.25 581.1 36.85 583.15 35.45 586.05 35.45 588.95 35.45 591.0 36.85 593.05 38.25 593.05 40.25 593.05 42.25 591.0 43.65 588.95 45.05 586.05 45.05 M552.2 45.65 L561.45 27.05 542.9 27.05 552.2 45.65 M485.95 32.3 Q491.5 31.2 495.7 33.05 497.4 33.85 497.75 37.6 L485.95 32.3 M476.45 19.5 L478.3 28.9 468.1 24.3 Q469.8 20.25 472.55 17.65 L476.45 19.5 M518.6 85.8 L523.4 85.15 524.7 85.1 Q524.85 85.7 523.6 86.6 522.85 89.35 521.2 90.7 L520.4 89.3 Q519.65 89.3 519.1 88.3 518.6 87.25 518.6 85.8 M558.35 235.35 L555.55 221.25 568.05 236.1 Q567.85 239.05 566.3 240.9 564.8 242.7 562.75 242.5 560.75 242.25 559.4 240.15 558.1 238.0 558.35 235.35 M414.05 29.95 L414.05 18.4 398.35 18.4 398.35 29.95 414.05 29.95 M440.65 95.7 L442.55 95.75 444.85 95.5 Q442.15 94.0 435.6 92.9 L440.65 95.7 M467.0 90.95 L466.85 91.05 Q466.3 91.85 467.0 90.95 M373.65 86.95 L352.5 100.35 329.5 92.3 327.55 87.85 Q332.45 87.9 335.0 85.5 337.0 83.55 336.65 79.2 L336.55 78.85 335.9 76.45 335.8 76.15 340.3 60.7 350.6 93.7 371.95 87.2 373.65 86.95 M305.75 76.6 L305.9 77.0 Q299.75 84.5 300.0 76.1 L305.75 76.6 M218.3 55.2 L235.55 74.6 235.75 75.45 229.5 97.05 229.1 95.0 229.6 86.95 229.75 85.2 207.1 52.2 211.5 51.6 218.3 55.2 M228.5 100.55 L228.05 102.1 226.2 101.4 Q226.65 100.7 228.5 100.55 M244.85 136.65 L249.65 103.2 334.55 140.0 Q336.65 138.8 338.8 137.65 L358.45 129.85 383.75 135.05 353.8 138.85 348.2 154.6 389.35 163.15 380.3 165.65 375.55 167.05 Q370.2 167.05 366.4 169.1 362.65 171.15 362.65 174.05 L359.85 174.85 357.9 174.6 357.8 174.55 351.75 176.7 351.85 177.8 338.25 188.8 334.2 192.15 Q325.1 204.1 326.0 213.95 L322.6 211.0 315.7 204.1 301.2 193.45 257.35 200.4 264.35 188.3 272.35 180.4 269.4 179.55 281.5 158.45 280.35 156.95 278.65 154.9 Q276.55 152.6 274.4 154.8 L274.05 155.35 271.9 155.0 244.85 136.65 M318.55 158.65 L320.9 160.7 327.15 158.9 327.15 157.35 Q327.2 151.2 322.05 149.95 L318.2 158.15 318.15 158.65 318.55 158.65 M442.5 117.25 L442.4 117.2 441.2 116.5 442.3 116.35 446.65 116.5 442.5 117.25 M483.5 208.45 L480.55 207.4 481.1 202.35 485.25 202.95 483.5 208.45 M427.55 200.35 L426.75 204.95 424.7 206.1 Q425.05 203.8 427.55 200.35 M423.35 275.6 L428.5 276.25 451.05 274.75 423.2 283.3 Q421.15 283.4 419.45 282.35 417.8 281.3 417.65 279.75 417.5 278.15 418.9 276.95 420.35 275.75 422.65 275.6 L423.35 275.6 M373.85 250.05 Q374.35 254.1 372.95 260.15 371.55 266.2 368.85 268.05 366.2 269.9 363.7 266.5 361.25 263.05 360.3 253.8 L360.95 250.75 363.25 248.0 373.85 250.05 M385.6 241.25 Q387.15 239.7 389.3 239.7 391.45 239.7 392.95 241.25 394.5 242.75 394.5 244.9 394.5 247.05 392.95 248.6 391.45 250.1 389.3 250.1 387.15 250.1 385.6 248.6 384.1 247.05 384.1 244.9 384.1 242.75 385.6 241.25 M340.35 269.55 L339.9 271.25 Q341.6 271.6 340.35 269.55 M386.3 295.45 L399.45 294.6 Q417.15 279.45 394.55 293.0 L354.2 286.25 386.3 295.45 M398.75 329.2 L433.3 316.2 407.9 328.15 398.75 329.2 M539.25 207.6 L540.25 203.75 Q549.0 206.6 556.75 213.35 L539.25 207.6 M523.25 222.1 Q529.6 219.85 532.8 220.95 L529.65 224.3 523.25 222.1 M554.25 315.55 Q553.2 315.55 552.45 315.15 551.75 314.7 551.8 314.1 L553.2 311.45 Q554.4 312.15 554.25 315.55 M510.05 337.55 Q513.95 337.55 516.7 340.3 519.45 343.05 519.45 346.9 519.45 350.75 516.7 353.5 513.95 356.25 510.05 356.25 506.15 356.25 503.4 353.5 500.65 350.75 500.65 346.9 500.65 343.05 503.4 340.3 506.15 337.55 510.05 337.55 M310.35 28.9 L310.45 28.65 315.05 24.15 310.35 28.9 M282.75 7.8 L264.05 4.55 Q261.0 11.7 263.35 15.7 267.05 21.95 276.1 25.0 L282.75 7.8 M267.3 35.85 L270.15 39.35 286.7 37.85 267.3 35.85 M223.65 125.4 L204.6 115.75 229.5 116.5 Q251.15 110.9 223.65 125.4 M228.55 148.4 Q233.7 140.0 236.65 142.2 251.45 153.15 263.55 167.8 L225.95 150.95 228.55 148.4 M155.8 173.95 L166.65 172.2 136.35 202.6 127.15 183.1 148.2 182.95 155.8 173.95 M108.65 160.05 L107.4 168.35 107.4 169.35 81.85 172.3 91.1 162.35 91.15 148.7 103.65 155.15 108.65 160.05 M249.4 185.3 Q238.25 167.9 254.4 185.6 L251.95 187.15 249.4 185.3 M252.8 109.05 L252.55 128.5 269.5 140.6 286.5 132.65 252.8 109.05 M308.5 158.45 L313.4 158.3 Q313.55 153.6 313.0 153.5 311.1 153.25 308.5 157.55 L307.85 158.3 308.5 158.45 M320.65 179.35 L318.35 184.85 Q322.0 184.25 328.0 178.15 L320.45 176.6 320.65 179.35 M154.7 6.7 Q154.7 5.9 154.1 5.35 153.55 4.75 152.75 4.75 151.95 4.75 151.35 5.35 150.8 5.9 150.8 6.7 150.8 7.5 151.35 8.1 151.95 8.65 152.75 8.65 153.55 8.65 154.1 8.1 154.7 7.5 154.7 6.7 M142.0 42.45 L170.95 57.7 145.15 63.05 136.55 76.85 130.55 20.25 140.35 35.75 142.0 42.45 M88.8 21.05 L99.1 32.6 82.15 31.25 88.8 21.05 M128.75 90.4 L115.3 86.8 106.8 104.6 122.1 100.45 128.75 90.4 M64.75 8.7 L62.05 9.8 Q62.3 9.5 60.2 8.7 L59.75 8.4 59.75 2.8 65.35 2.8 65.35 8.4 64.75 8.7 M39.75 11.3 L39.55 11.45 Q31.65 15.4 28.1 8.25 28.15 7.8 28.35 7.5 34.4 0.15 41.25 7.05 L39.75 11.3 M59.55 141.9 L60.3 137.9 Q52.35 136.55 43.7 139.05 L59.55 141.9 M36.35 182.8 L36.0 182.0 45.9 177.55 Q45.9 179.7 43.1 181.25 40.3 182.8 36.35 182.8 M134.3 271.25 L128.3 275.15 132.25 277.9 127.25 294.05 Q157.55 291.65 121.95 310.6 L131.35 345.7 131.1 349.35 123.95 352.3 Q121.6 352.3 119.9 349.9 118.25 347.45 118.25 344.0 L113.7 331.1 26.05 272.25 Q25.35 269.9 25.45 267.4 L25.75 262.3 Q27.15 238.7 39.9 257.5 L46.8 277.95 50.2 280.6 56.05 283.6 Q60.55 274.35 59.15 262.2 L72.75 286.1 113.75 298.95 144.2 239.25 134.3 271.25 M105.8 318.75 L107.15 310.0 84.9 308.3 105.8 318.75" fill="#000000" fill-rule="evenodd" stroke="none"/>
    <path d="M601.6 33.45 L601.6 47.25 574.05 51.7 601.6 63.15 601.6 70.1 Q583.1 70.5 567.8 65.4 552.5 60.25 551.25 52.55 550.05 44.85 563.65 39.1 577.25 33.3 599.4 32.85 L601.6 33.45 M601.6 91.5 L601.6 122.55 585.3 130.8 560.6 144.1 569.65 155.75 601.6 151.05 601.6 164.45 580.15 188.65 598.95 205.2 601.6 208.75 601.6 213.55 580.25 198.3 574.8 186.05 590.6 165.4 573.0 168.9 586.6 158.1 562.05 163.95 554.0 146.45 580.15 128.8 546.3 138.3 528.7 127.75 547.0 122.4 516.8 123.5 515.5 105.05 506.9 123.45 542.15 156.7 489.25 129.9 484.8 131.4 486.55 141.25 472.65 117.75 479.2 118.45 479.75 119.1 Q481.95 121.55 483.75 118.45 495.8 118.45 504.3 112.2 511.55 106.9 512.65 99.75 L513.75 98.15 515.4 95.0 515.8 94.05 520.4 89.3 521.2 90.7 Q522.85 89.35 523.6 86.6 524.85 85.7 524.7 85.1 L523.4 85.15 518.6 85.8 498.5 87.45 Q488.25 87.45 481.05 91.7 473.85 95.95 473.85 102.0 L467.65 107.3 479.25 80.8 491.25 56.5 461.55 43.25 501.4 54.65 488.45 71.65 510.65 79.8 Q507.65 81.35 511.6 81.8 L512.65 81.8 516.45 82.7 516.5 82.7 516.5 82.65 515.2 80.4 540.0 78.15 Q537.95 78.15 536.45 77.1 535.0 76.0 535.05 74.5 L532.65 72.35 548.65 72.6 Q541.25 85.15 568.4 73.6 L566.0 76.45 Q572.2 81.0 580.8 82.75 L541.8 92.05 521.15 105.6 522.5 111.1 545.8 118.65 581.35 102.55 Q583.65 102.55 585.3 101.45 586.95 100.3 586.95 98.75 L595.4 93.05 601.6 91.5 M601.6 316.1 L601.6 322.9 599.85 323.75 558.3 303.25 571.6 319.7 554.25 315.55 Q554.4 312.15 553.2 311.45 L551.8 314.1 542.1 319.65 538.65 314.8 Q551.05 306.05 517.4 313.95 L506.9 301.5 524.0 299.7 536.05 305.1 592.6 291.35 601.6 316.1 M601.6 330.35 L601.6 336.8 575.45 337.55 546.4 321.95 590.15 336.15 Q585.1 331.25 582.65 326.8 L601.6 330.35 M601.6 342.85 L601.6 349.05 576.9 338.65 601.6 342.85 M601.6 351.35 L601.6 361.45 558.6 344.0 524.65 335.0 601.6 351.35 M583.85 400.0 L575.6 400.0 583.95 372.9 583.85 400.0 M530.0 400.0 L506.0 400.0 503.6 389.1 514.55 377.45 530.0 400.0 M467.65 400.0 L430.55 400.0 493.9 354.2 440.85 338.1 489.55 341.4 509.15 331.75 518.35 333.7 535.3 353.25 502.45 360.35 494.3 374.9 459.85 386.25 476.75 398.2 467.65 400.0 M315.95 400.0 L272.85 400.0 280.35 368.5 315.95 400.0 M219.15 400.0 L207.4 400.0 Q208.75 398.25 208.35 397.35 207.15 394.85 204.15 393.2 L203.5 392.65 206.75 388.65 Q199.1 392.3 188.15 400.0 L186.25 400.0 207.65 379.45 176.8 400.0 163.05 400.0 Q163.05 372.45 191.6 352.95 220.15 333.45 260.5 333.45 L300.25 327.5 280.85 345.85 279.7 366.85 Q249.4 383.4 219.15 400.0 M146.1 400.0 L145.8 400.0 131.8 381.6 123.95 352.3 131.1 349.35 131.35 345.7 121.95 310.6 Q157.55 291.65 127.25 294.05 L132.25 277.9 149.65 290.1 149.95 290.2 Q152.8 290.9 154.1 289.8 157.4 287.1 159.15 282.55 L167.0 276.05 170.15 279.1 170.4 283.85 Q170.35 295.2 179.0 303.25 187.7 311.25 200.0 311.25 L225.45 303.1 268.55 299.75 287.1 298.35 250.1 311.95 259.75 321.25 211.7 329.0 218.55 324.05 153.3 301.6 192.1 324.6 192.8 340.85 140.15 302.5 126.35 309.65 139.35 329.25 162.1 325.8 154.65 338.8 Q159.1 344.5 160.65 350.9 160.9 351.95 158.25 353.7 L171.3 354.45 Q160.85 354.45 153.45 367.8 146.1 381.15 146.1 400.0 M133.9 400.0 L110.5 400.0 101.75 366.6 93.95 352.7 97.65 355.45 133.9 400.0 M1.6 299.8 L1.6 289.35 43.65 300.45 1.6 282.05 1.6 266.9 15.75 273.3 Q12.35 261.6 6.55 251.3 4.95 248.35 1.6 247.8 L1.6 230.55 64.95 234.25 Q80.95 236.25 95.8 232.95 113.65 228.95 130.3 219.6 L132.9 197.75 111.9 172.9 108.55 169.5 107.4 168.35 108.65 160.05 114.5 163.3 119.15 166.9 125.0 172.05 148.2 182.95 127.15 183.1 136.35 202.6 166.65 172.2 155.8 173.95 156.95 170.9 167.4 160.95 122.9 146.65 114.7 140.45 111.85 124.95 Q112.85 127.45 114.35 129.65 119.1 136.5 125.8 136.5 L126.8 138.55 Q129.35 136.55 130.95 132.45 L129.4 124.15 Q129.35 120.0 125.2 117.1 121.1 114.15 115.35 114.15 L109.65 113.05 138.1 115.4 143.25 141.7 178.8 159.6 Q184.0 158.95 185.35 157.45 L181.45 156.55 193.8 152.15 216.75 154.45 177.7 144.85 176.45 144.9 162.45 136.9 173.95 134.45 Q173.25 131.9 172.4 131.25 L202.4 132.05 185.65 111.85 187.45 110.6 184.95 110.45 143.2 70.2 151.95 88.3 123.1 77.1 132.05 56.15 Q131.95 54.75 131.4 53.6 121.05 30.85 109.7 52.6 L107.65 35.3 121.85 27.25 105.1 11.25 88.8 21.05 82.15 31.25 101.65 35.0 98.0 37.25 91.3 36.3 96.55 43.55 66.0 29.05 80.1 10.25 91.8 0.0 109.45 0.0 Q109.35 7.85 112.65 13.4 116.0 18.9 120.7 18.9 125.4 18.9 128.7 13.4 132.05 7.85 132.1 0.0 L150.75 0.0 149.1 3.5 Q145.95 3.95 143.6 5.6 142.45 6.4 142.05 8.35 L137.0 10.65 160.85 27.95 142.3 27.8 177.9 46.25 164.3 47.7 178.45 48.55 Q184.3 50.25 186.4 48.15 192.9 41.75 195.6 31.55 L235.05 16.3 256.7 42.7 254.05 57.9 246.4 43.95 Q241.25 44.3 237.0 42.55 236.1 42.1 236.1 39.6 L236.05 39.5 Q199.8 20.5 204.4 47.85 204.8 50.15 207.1 52.2 L229.75 85.2 212.5 77.6 194.7 61.35 Q191.05 58.3 187.1 57.75 185.35 57.6 183.3 59.95 L156.55 66.0 205.85 110.4 206.7 107.65 228.05 102.1 228.5 100.55 229.5 97.05 235.75 75.45 Q246.9 94.25 239.6 71.75 L235.55 74.6 218.3 55.2 230.0 55.1 244.15 60.8 247.8 58.65 254.0 58.15 252.55 87.35 277.7 63.75 300.0 65.35 Q288.8 74.2 300.0 76.1 299.75 84.5 305.9 77.0 L305.75 76.6 314.15 76.4 333.35 84.0 Q334.9 84.25 335.25 83.7 336.55 81.85 336.65 79.2 337.0 83.55 335.0 85.5 332.45 87.9 327.55 87.85 L324.0 87.4 Q324.95 89.65 329.5 92.3 L352.5 100.35 373.65 86.95 Q381.3 85.7 385.8 82.9 L382.7 81.3 Q382.65 75.35 374.3 71.15 366.0 66.95 354.25 66.95 L353.75 67.15 Q353.55 67.35 353.6 67.65 L352.15 78.55 Q352.4 83.75 354.6 84.7 362.35 88.1 371.95 87.2 L350.6 93.7 340.3 60.7 335.8 76.15 335.7 76.1 320.3 62.6 280.35 60.35 Q284.15 57.1 286.95 57.85 313.75 64.95 302.5 44.3 307.8 41.2 308.4 38.1 L303.65 38.1 Q303.6 34.3 305.25 31.6 306.95 28.9 309.35 28.9 L310.35 28.9 315.05 24.15 310.45 28.65 318.6 16.2 Q313.85 12.1 311.3 6.95 310.25 4.8 311.4 1.55 L312.3 0.0 331.4 0.0 Q332.05 1.85 333.1 3.45 340.55 15.0 327.35 2.35 L322.7 20.85 354.3 15.45 365.35 25.6 358.45 2.1 357.9 0.0 376.6 0.0 Q376.6 20.1 365.65 34.3 356.75 45.85 344.8 48.0 L366.0 50.45 437.85 116.0 Q436.55 109.9 438.1 105.85 L440.95 107.9 442.3 116.35 441.2 116.5 442.4 117.2 442.55 118.0 442.85 120.0 444.6 131.15 428.8 126.05 424.0 115.7 414.15 106.4 377.55 99.55 361.95 101.85 358.45 129.85 338.8 137.65 Q336.65 138.8 334.55 140.0 L249.65 103.2 244.85 136.65 257.95 152.9 263.85 162.25 Q267.65 165.7 269.5 166.1 L267.5 163.0 279.0 157.75 281.5 158.45 269.4 179.55 216.3 163.7 221.5 176.65 180.15 171.1 140.85 218.6 153.75 230.8 166.9 227.7 166.0 222.7 183.65 224.45 183.65 225.2 219.15 225.1 176.3 247.5 170.2 247.9 134.3 271.25 144.2 239.25 113.75 298.95 72.75 286.1 59.15 262.2 Q60.55 274.35 56.05 283.6 L50.2 280.6 46.8 277.95 39.9 257.5 Q27.15 238.7 25.75 262.3 L25.45 267.4 Q25.35 269.9 26.05 272.25 L113.7 331.1 118.25 344.0 9.35 300.35 1.6 299.8 M1.6 168.7 L1.6 165.7 37.25 143.45 59.3 153.1 23.35 152.65 1.6 168.7 M1.6 138.9 L1.6 136.8 2.65 133.55 1.6 135.5 1.6 57.3 12.6 66.7 24.1 72.7 20.45 60.4 25.35 56.1 28.45 57.4 28.3 58.9 48.15 94.25 51.05 98.45 53.05 100.45 53.2 97.4 47.95 75.2 Q62.8 75.2 73.3 89.35 83.85 103.5 83.9 123.55 L81.9 119.0 Q81.85 110.05 77.6 103.7 73.4 97.35 67.4 97.35 L65.75 95.5 Q64.4 96.75 64.75 99.85 L65.25 108.35 Q65.35 115.35 70.6 120.3 76.05 125.4 83.75 125.4 83.7 127.45 85.55 128.9 87.4 130.3 89.95 130.35 84.0 130.4 79.75 134.75 75.45 139.15 75.45 145.35 L93.05 135.65 91.85 130.45 Q98.8 134.35 101.75 140.3 102.6 142.0 99.35 145.75 L119.25 148.0 103.65 155.15 91.15 148.7 91.1 162.35 73.8 163.65 62.5 149.05 69.2 126.35 58.85 98.75 56.55 124.15 55.2 122.0 47.6 113.6 36.9 101.85 33.55 123.9 28.85 89.65 25.1 136.2 1.6 138.9 M1.6 48.6 L1.6 23.2 11.7 21.95 14.2 25.9 2.75 32.8 7.05 50.3 Q5.2 48.55 1.6 48.6 M43.8 0.0 L51.15 0.0 52.4 9.1 62.2 29.65 37.85 16.5 39.75 11.3 41.25 7.05 43.8 0.0 M202.95 0.0 L211.7 0.0 210.85 13.65 202.95 0.0 M218.5 0.0 L221.55 0.0 222.6 1.3 218.5 0.0 M378.55 0.0 L387.1 0.0 378.15 12.9 Q378.6 20.05 382.15 25.05 383.9 27.5 388.8 27.75 L376.5 35.0 378.55 0.0 M441.3 0.0 L474.5 0.0 478.4 11.95 496.1 13.9 486.55 0.0 499.35 0.0 502.3 4.15 Q502.25 6.8 503.35 8.7 504.5 10.6 506.1 10.6 507.4 10.6 508.35 11.5 509.3 12.4 509.35 13.7 L518.8 39.1 476.45 19.5 472.55 17.65 453.4 11.4 468.1 24.3 478.3 28.9 485.95 32.3 497.75 37.6 514.35 45.1 456.05 21.25 455.35 21.7 Q452.35 21.0 452.35 20.35 451.95 3.2 442.4 15.8 L402.0 8.55 431.45 7.25 441.3 0.0 M586.05 45.05 Q588.95 45.05 591.0 43.65 593.05 42.25 593.05 40.25 593.05 38.25 591.0 36.85 588.95 35.45 586.05 35.45 583.15 35.45 581.1 36.85 579.05 38.25 579.05 40.25 579.05 42.25 581.1 43.65 583.15 45.05 586.05 45.05 M588.55 88.15 L586.9 87.7 Q586.25 87.2 586.25 86.5 L588.55 88.15 M552.2 45.65 L542.9 27.05 561.45 27.05 552.2 45.65 M526.65 17.3 L536.9 30.0 516.95 17.1 526.65 17.3 M495.5 154.2 L491.1 152.75 456.65 143.4 456.45 143.05 456.0 140.45 495.5 154.2 M477.9 163.85 L485.8 169.05 509.85 176.2 451.35 168.7 447.9 165.3 389.35 163.15 348.2 154.6 353.8 138.85 383.75 135.05 376.95 143.65 400.35 143.25 443.7 162.45 430.0 155.7 459.65 158.75 477.9 163.85 M519.1 169.45 L528.5 165.85 586.55 209.65 519.1 169.45 M508.55 200.15 L534.4 195.1 537.25 195.15 557.85 202.9 561.7 211.25 Q591.85 256.0 574.2 238.55 572.05 236.4 568.05 236.1 L555.55 221.25 558.35 235.35 555.9 235.15 548.65 230.85 Q548.65 220.1 533.8 212.5 518.95 204.9 498.0 204.9 L498.3 203.65 498.8 202.4 508.55 200.15 M436.2 45.85 Q437.7 44.75 439.8 44.75 441.9 44.75 443.4 45.85 444.9 46.9 444.9 48.45 444.9 50.0 443.4 51.1 441.9 52.15 439.8 52.15 437.7 52.15 436.2 51.1 434.7 50.0 434.7 48.45 434.7 46.9 436.2 45.85 M414.05 29.95 L398.35 29.95 398.35 18.4 414.05 18.4 414.05 29.95 M414.3 45.0 L405.65 59.1 411.05 71.9 412.95 78.55 Q403.15 78.25 396.7 73.15 390.25 68.0 390.65 61.05 391.05 54.1 398.05 49.4 405.1 44.65 414.3 45.0 M446.3 82.65 L453.3 84.1 454.55 84.55 414.75 79.15 446.3 82.65 M462.05 68.75 L448.0 68.75 448.0 61.45 462.05 61.45 462.05 68.75 M467.0 90.95 Q466.3 91.85 466.85 91.05 L467.0 90.95 M390.7 17.9 Q390.2 14.65 391.55 12.65 393.3 10.05 396.85 8.7 L390.7 17.9 M451.9 109.95 L468.55 123.45 469.8 140.55 454.75 133.7 459.25 130.4 461.25 129.2 451.9 109.95 M429.9 155.65 L447.9 138.5 447.9 140.7 429.9 155.65 M339.2 48.5 L359.2 35.75 341.05 25.45 323.55 45.55 339.2 48.5 M271.5 97.75 L325.45 127.9 333.15 109.9 311.05 88.15 271.5 97.75 M343.7 108.35 Q343.95 108.95 345.65 109.05 340.1 98.6 343.7 108.35 M318.2 158.15 L318.55 158.65 318.15 158.65 318.2 158.15 M334.2 192.15 L352.9 186.2 Q353.85 189.8 352.75 190.7 345.85 195.7 336.9 198.05 L340.05 211.55 338.25 223.7 337.4 224.7 331.45 240.65 322.6 211.0 326.0 213.95 Q325.1 204.1 334.2 192.15 M364.9 181.2 L338.25 188.8 351.85 177.8 358.1 176.25 357.9 174.6 359.85 174.85 359.75 175.9 399.55 172.3 381.7 177.95 385.25 178.6 386.1 178.4 386.75 178.75 364.9 181.2 M362.65 174.05 Q362.65 171.15 366.4 169.1 370.2 167.05 375.55 167.05 L380.3 165.65 375.15 167.5 362.65 174.05 M426.75 204.95 L427.55 200.35 451.45 202.25 426.75 204.95 M408.0 256.6 Q409.45 254.15 410.35 254.35 415.25 255.25 419.65 258.8 426.45 264.3 430.05 271.45 430.85 273.05 428.5 276.25 L423.35 275.6 408.0 256.6 M422.65 275.6 Q420.35 275.75 418.9 276.95 417.5 278.15 417.65 279.75 417.8 281.3 419.45 282.35 421.15 283.4 423.2 283.3 L523.05 282.4 546.45 264.2 553.45 283.85 543.45 285.05 540.75 280.95 524.9 294.8 419.35 291.15 384.9 269.7 374.25 278.6 359.0 276.4 340.3 239.95 342.75 239.85 351.45 245.75 Q353.9 252.3 358.35 256.3 L360.3 253.8 Q361.25 263.05 363.7 266.5 366.2 269.9 368.85 268.05 371.55 266.2 372.95 260.15 374.35 254.1 373.85 250.05 L389.25 253.0 422.65 275.6 M326.75 289.65 Q328.8 293.35 327.75 295.6 326.55 298.3 322.25 299.55 L326.75 289.65 M319.9 299.55 L276.25 314.75 311.65 295.15 Q315.75 294.6 318.7 296.2 319.9 296.8 319.9 299.55 M315.7 204.1 L306.85 201.5 301.65 200.3 297.75 200.0 299.6 201.0 302.8 204.45 258.05 214.15 276.55 204.5 241.5 215.25 242.45 209.85 264.35 188.3 257.35 200.4 301.2 193.45 315.7 204.1 M287.75 229.55 L298.65 229.55 309.15 233.75 Q317.7 236.3 321.5 240.95 L316.7 243.0 287.75 229.55 M213.5 268.65 Q207.95 274.75 201.0 278.0 198.5 279.15 194.7 277.4 L213.5 268.65 M360.95 250.75 L361.35 247.65 363.25 248.0 360.95 250.75 M386.3 295.45 L354.2 286.25 394.55 293.0 Q417.15 279.45 399.45 294.6 L386.3 295.45 M421.05 304.7 L406.3 302.45 394.85 313.75 396.75 318.0 427.05 306.1 446.1 303.0 Q438.9 285.95 469.25 309.25 L452.25 305.9 447.65 317.85 504.25 330.7 429.05 326.9 436.35 336.75 407.9 328.15 433.3 316.2 398.75 329.2 345.0 330.75 386.7 313.6 372.0 311.75 407.3 297.15 421.05 304.7 M343.5 315.7 L327.5 318.05 Q329.95 315.85 330.15 313.5 331.2 301.15 343.5 315.7 M516.75 313.95 L476.0 315.5 474.6 303.3 516.75 313.95 M558.05 283.3 Q565.4 279.7 572.75 276.15 L573.35 281.45 558.05 283.3 M539.25 207.6 L556.75 213.35 Q549.0 206.6 540.25 203.75 L539.25 207.6 M510.05 337.55 Q506.15 337.55 503.4 340.3 500.65 343.05 500.65 346.9 500.65 350.75 503.4 353.5 506.15 356.25 510.05 356.25 513.95 356.25 516.7 353.5 519.45 350.75 519.45 346.9 519.45 343.05 516.7 340.3 513.95 337.55 510.05 337.55 M532.6 371.0 L533.7 370.5 534.6 370.85 536.45 371.75 545.35 379.0 Q551.4 387.55 552.25 395.25 L547.0 394.4 Q544.7 394.4 543.05 391.25 541.4 388.1 541.4 383.65 L532.6 371.0 M575.15 320.05 Q576.8 320.05 577.95 321.25 579.15 322.4 579.15 324.1 579.15 325.8 577.95 327.0 576.8 328.15 575.15 328.15 573.5 328.15 572.3 327.0 571.15 325.8 571.15 324.1 571.15 322.4 572.3 321.25 573.5 320.05 575.15 320.05 M294.6 13.0 L292.8 24.65 Q290.3 16.45 291.15 10.6 L294.6 13.0 M282.75 7.8 L276.1 25.0 Q267.05 21.95 263.35 15.7 261.0 11.7 264.05 4.55 L282.75 7.8 M244.75 4.85 L249.3 3.6 Q248.65 10.6 245.95 11.9 L243.85 6.2 244.75 4.85 M270.15 39.35 L267.3 35.85 Q268.25 36.05 269.05 36.8 270.15 37.85 270.15 39.35 M281.75 74.6 L271.05 84.4 298.25 80.05 281.75 74.6 M237.6 38.25 L238.15 38.8 245.5 42.35 232.15 18.0 237.6 38.25 M163.15 23.15 L182.15 25.6 208.35 16.55 177.0 33.8 163.15 23.15 M231.6 135.5 L235.8 130.9 Q219.95 122.55 231.6 135.5 M222.0 127.25 L221.05 124.25 Q209.35 130.65 222.0 127.25 M228.55 148.4 L225.95 150.95 263.55 167.8 Q251.45 153.15 236.65 142.2 233.7 140.0 228.55 148.4 M223.65 125.4 Q251.15 110.9 229.5 116.5 L204.6 115.75 223.65 125.4 M23.25 23.45 Q23.25 24.35 22.05 25.0 20.9 25.65 19.25 25.65 L23.25 23.45 M160.05 135.55 L151.6 130.7 166.1 131.1 Q162.05 131.45 158.0 132.85 158.95 134.5 160.05 135.55 M276.75 126.35 L276.8 126.35 276.8 126.3 Q245.35 119.95 274.35 130.4 274.75 130.65 276.75 126.35 M252.8 109.05 L286.5 132.65 269.5 140.6 252.55 128.5 252.8 109.05 M328.0 178.15 Q322.0 184.25 318.35 184.85 L320.65 179.35 328.0 178.15 M240.25 101.5 Q243.9 111.4 247.55 97.8 L240.25 101.5 M142.0 42.45 Q146.9 39.55 146.5 38.0 146.05 36.2 140.35 35.75 L130.55 20.25 136.55 76.85 145.15 63.05 170.95 57.7 142.0 42.45 M85.0 91.15 L86.35 95.55 75.75 86.6 84.25 90.2 85.0 91.15 M88.15 96.5 L90.65 94.8 99.35 82.45 77.35 53.8 62.2 47.6 73.05 75.55 61.7 57.25 58.3 70.85 52.2 52.4 40.7 54.55 39.6 54.1 Q38.1 54.75 39.4 55.9 L40.5 56.8 43.35 58.55 58.1 71.15 Q57.2 73.75 56.4 74.25 50.65 73.45 44.95 70.55 L37.95 64.55 Q34.9 61.15 31.8 58.75 L42.2 63.05 32.7 44.1 22.2 34.4 40.6 28.2 Q46.7 36.1 39.25 43.35 L76.8 38.9 94.55 50.5 108.5 88.55 98.7 101.8 98.55 101.55 98.4 101.7 88.15 96.5 M128.75 90.4 L122.1 100.45 106.8 104.6 115.3 86.8 128.75 90.4 M20.7 103.0 L12.6 66.7 3.5 108.85 3.45 113.8 3.65 114.4 Q3.85 114.6 4.15 114.6 L22.4 117.55 23.2 118.1 Q23.55 117.4 23.1 116.3 L20.7 103.0 M59.55 141.9 L43.7 139.05 Q52.35 136.55 60.3 137.9 L59.55 141.9 M39.75 130.3 Q37.2 131.15 35.6 130.25 34.3 129.5 34.0 127.05 L39.75 130.3 M36.0 182.0 L36.35 182.8 31.0 198.7 19.95 203.05 23.9 187.35 36.0 182.0 M60.8 157.1 L70.1 163.4 Q62.1 162.15 57.45 159.0 L60.8 157.1 M77.6 173.45 L81.85 172.3 107.4 169.35 108.3 169.6 110.35 173.05 77.6 173.45 M90.8 261.7 L91.4 256.5 74.7 254.55 80.35 282.65 102.45 291.9 123.45 274.45 123.95 256.4 108.15 252.45 107.85 278.45 90.8 261.7 M136.35 230.2 Q130.2 231.6 124.85 237.1 L143.35 233.2 Q139.45 229.65 136.35 230.2 M2.05 217.05 L2.05 216.95 Q3.25 216.05 2.05 217.05 M54.95 341.45 Q53.65 338.85 53.65 335.1 53.55 332.6 54.9 330.8 56.2 328.95 58.1 328.95 60.0 328.9 61.4 330.7 62.75 332.45 62.75 335.0 62.7 338.5 61.45 341.15 60.15 343.95 58.25 344.05 56.35 344.15 54.95 341.45 M236.4 287.9 Q238.4 289.9 238.4 292.75 238.4 295.6 236.4 297.6 234.4 299.6 231.55 299.6 228.7 299.6 226.7 297.6 224.7 295.6 224.7 292.75 224.7 289.9 226.7 287.9 228.7 285.9 231.55 285.9 234.4 285.9 236.4 287.9 M280.85 345.85 L233.3 373.15 265.55 369.4 280.85 345.85" fill="#424242" fill-rule="evenodd" stroke="none"/>
    <path d="M432.1 117.9 Q426.35 102.2 410.65 93.55 378.6 76.05 372.5 44.5 388.4 26.6 406.45 9.2 410.95 4.9 410.75 -1.75 L410.5 -6.55 420.95 -4.6 Q423.8 21.15 400.45 34.35 397.65 36.0 394.55 37.3 L389.45 39.85 Q378.7 49.8 392.4 62.55 402.45 71.85 413.65 79.8 428.35 90.3 439.85 103.65 466.3 76.5 502.3 59.4 510.1 55.75 512.2 46.95 518.25 22.1 523.4 -2.35 L524.05 -6.55 532.05 -6.55 528.5 45.0 Q554.7 34.25 570.95 7.55 575.1 0.65 581.8 -4.45 582.85 -5.25 582.75 -6.55 L602.3 -6.55 Q575.65 24.45 543.8 49.5 536.15 55.5 526.6 58.55 510.6 79.4 484.0 87.1 476.15 89.35 469.25 93.75 454.95 102.9 448.05 117.6 L447.25 124.6 Q448.4 136.9 466.25 137.8 483.05 139.15 498.9 145.3 510.75 149.95 522.2 155.35 L608.95 96.5 608.95 106.9 559.45 149.9 551.3 154.95 544.65 160.25 608.95 213.25 608.95 229.95 Q578.1 204.4 545.75 180.35 530.2 168.7 512.8 159.95 468.15 137.5 421.55 149.75 380.05 160.55 338.9 171.5 333.1 173.0 327.55 175.4 L321.6 179.35 Q310.25 185.7 318.55 198.6 325.6 209.5 329.75 222.15 340.45 254.55 346.75 287.7 446.2 316.2 549.65 299.65 572.1 296.2 594.3 291.15 L608.95 287.75 608.95 301.15 513.85 311.8 497.05 313.35 477.95 315.35 608.95 356.1 608.95 372.2 Q525.8 334.45 435.1 317.4 389.6 308.7 344.6 302.85 341.05 302.3 337.65 303.65 284.95 323.65 228.9 332.6 L207.05 338.05 Q203.6 339.0 200.75 340.85 163.95 364.65 151.75 409.6 L141.25 409.6 145.15 398.4 Q147.2 392.85 150.7 388.35 163.35 371.95 155.5 357.85 L150.45 352.2 -8.75 253.95 -8.75 245.75 168.15 348.6 168.8 348.15 Q192.65 319.15 231.0 316.25 287.0 312.35 337.05 288.3 L337.15 287.65 Q329.0 234.65 300.55 192.85 299.75 191.7 297.5 192.25 L290.75 193.7 280.1 189.15 290.75 169.7 286.15 166.2 278.6 161.55 Q195.3 137.6 122.9 91.9 113.6 86.05 107.45 77.05 101.1 67.65 97.0 57.0 74.0 42.35 47.25 42.35 30.3 42.35 13.45 39.85 3.1 38.3 -6.05 33.25 L-8.75 20.9 Q47.0 20.8 95.7 42.9 107.2 48.25 113.45 59.3 127.75 84.65 153.4 98.6 183.75 115.15 217.05 126.3 226.4 129.4 235.75 132.65 236.55 132.95 237.2 132.45 238.35 118.6 242.5 104.95 251.25 76.0 268.75 51.55 L269.9 49.9 264.95 43.45 260.0 40.65 Q251.75 37.7 244.6 33.0 L241.35 30.7 Q226.1 19.0 220.25 -1.0 219.85 -2.35 219.7 -3.75 L231.95 -6.55 Q243.95 23.25 273.5 39.4 279.0 42.5 280.45 49.0 259.75 78.7 251.75 113.8 248.5 127.95 253.5 141.45 283.65 151.05 312.65 161.55 316.75 163.0 321.65 162.3 376.7 153.45 428.75 134.5 L432.9 125.3 432.1 117.9" fill="#ff0000" fill-rule="evenodd" stroke="none"/>
    <path d="M231.95 -6.55 L240.7 -8.65 Q244.6 15.6 269.9 25.1 275.15 27.1 278.95 31.65 285.45 39.55 288.05 49.2 268.6 80.5 259.1 115.0 256.3 125.2 259.3 135.0 288.5 146.95 317.55 155.15 L325.0 155.4 Q375.8 145.15 424.8 128.7 429.0 127.25 432.9 125.3 L428.75 134.5 Q376.7 153.45 321.65 162.3 316.75 163.0 312.65 161.55 283.65 151.05 253.5 141.45 248.5 127.95 251.75 113.8 259.75 78.7 280.45 49.0 279.0 42.5 273.5 39.4 243.95 23.25 231.95 -6.55 M372.5 44.5 L370.05 32.55 Q386.85 22.3 398.8 7.65 405.0 0.05 400.0 -8.7 L410.5 -6.55 410.75 -1.75 Q410.95 4.9 406.45 9.2 388.4 26.6 372.5 44.5 M514.1 -8.55 L524.05 -6.55 523.4 -2.35 Q518.25 22.1 512.2 46.95 510.1 55.75 502.3 59.4 466.3 76.5 439.85 103.65 428.35 90.3 413.65 79.8 402.45 71.85 392.4 62.55 378.7 49.8 389.45 39.85 394.35 64.65 418.95 76.3 427.25 80.25 433.9 86.8 437.0 89.9 440.95 90.55 L505.15 51.0 514.1 -8.55 M532.05 -6.55 L539.75 -8.7 536.15 32.4 571.1 -8.25 582.75 -6.55 Q582.85 -5.25 581.8 -4.45 575.1 0.65 570.95 7.55 554.7 34.25 528.5 45.0 L532.05 -6.55 M611.15 86.3 L608.95 96.5 522.2 155.35 Q510.75 149.95 498.9 145.3 483.05 139.15 466.25 137.8 448.4 136.9 447.25 124.6 L522.75 147.25 611.15 86.3 M610.75 201.25 L608.95 213.25 544.65 160.25 551.3 154.95 610.75 201.25 M611.15 278.75 L608.95 287.75 594.3 291.15 Q572.1 296.2 549.65 299.65 446.2 316.2 346.75 287.7 340.45 254.55 329.75 222.15 325.6 209.5 318.55 198.6 310.25 185.7 321.6 179.35 L353.35 281.95 Q449.15 309.65 548.95 291.85 L607.05 280.9 Q609.55 280.45 611.15 278.75 M611.05 347.55 L608.95 356.1 477.95 315.35 497.05 313.35 611.05 347.55 M164.2 411.75 L151.75 409.6 Q163.95 364.65 200.75 340.85 203.6 339.0 207.05 338.05 170.5 366.45 163.9 411.25 L164.2 411.75 M141.25 409.6 L132.1 411.75 155.5 357.85 Q163.35 371.95 150.7 388.35 147.2 392.85 145.15 398.4 L141.25 409.6 M-8.75 245.75 L-10.9 236.45 166.1 337.6 Q176.75 329.25 188.75 323.15 214.9 309.85 244.85 307.65 269.8 305.7 293.9 298.15 312.25 292.4 328.8 283.8 L297.5 192.25 Q299.75 191.7 300.55 192.85 329.0 234.65 337.15 287.65 L337.05 288.3 Q287.0 312.35 231.0 316.25 192.65 319.15 168.8 348.15 L168.15 348.6 -8.75 245.75 M280.1 189.15 L274.35 183.9 286.15 166.2 290.75 169.7 280.1 189.15 M-8.75 20.9 L-10.9 12.9 Q50.6 13.75 105.0 39.4 110.95 42.15 113.6 48.45 126.25 78.3 157.0 93.8 192.15 111.45 230.05 121.45 235.8 94.45 249.45 70.15 L261.85 48.65 264.95 43.45 269.9 49.9 268.75 51.55 Q251.25 76.0 242.5 104.95 238.35 118.6 237.2 132.45 236.55 132.95 235.75 132.65 226.4 129.4 217.05 126.3 183.75 115.15 153.4 98.6 127.75 84.65 113.45 59.3 107.2 48.25 95.7 42.9 47.0 20.8 -8.75 20.9" fill="#ff0000" fill-opacity="0.6627451" fill-rule="evenodd" stroke="none"/>
    <path d="M240.7 -8.65 L255.55 7.4 Q275.85 14.25 288.85 31.55 301.3 48.0 288.2 64.05 264.25 93.4 265.1 129.15 L311.1 149.1 432.1 117.9 432.9 125.3 Q429.0 127.25 424.8 128.7 375.8 145.15 325.0 155.4 L317.55 155.15 Q288.5 146.95 259.3 135.0 256.3 125.2 259.1 115.0 268.6 80.5 288.05 49.2 285.45 39.55 278.95 31.65 275.15 27.1 269.9 25.1 244.6 15.6 240.7 -8.65 M370.05 32.55 L371.6 20.6 393.95 5.25 Q394.25 4.5 394.05 3.9 390.4 -8.9 400.0 -8.7 405.0 0.05 398.8 7.65 386.85 22.3 370.05 32.55 M394.55 37.3 L402.3 53.35 442.55 79.15 498.75 46.7 Q502.25 26.6 503.0 6.05 503.55 -9.0 514.1 -8.55 L505.15 51.0 440.95 90.55 Q437.0 89.9 433.9 86.8 427.25 80.25 418.95 76.3 394.35 64.65 389.45 39.85 L394.55 37.3 M539.75 -8.7 Q542.15 -9.6 542.75 -8.15 546.75 2.2 543.1 15.95 L564.6 -9.0 571.1 -8.25 536.15 32.4 539.75 -8.7 M448.05 117.6 L525.05 138.6 599.2 83.25 Q611.85 73.85 611.15 86.3 L522.75 147.25 447.25 124.6 448.05 117.6 M559.45 149.9 L610.75 201.25 551.3 154.95 559.45 149.9 M327.55 175.4 L359.65 276.45 Q383.85 284.15 408.9 286.2 506.25 293.25 602.35 272.25 612.3 270.0 611.15 278.75 609.55 280.45 607.05 280.9 L548.95 291.85 Q449.15 309.65 353.35 281.95 L321.6 179.35 327.55 175.4 M513.85 311.8 L611.05 340.8 611.05 347.55 497.05 313.35 513.85 311.8 M228.9 332.6 Q183.95 360.2 170.9 411.55 L164.2 411.75 163.9 411.25 Q170.5 366.45 207.05 338.05 L228.9 332.6 M-10.9 236.45 Q-11.8 234.15 -11.2 231.95 L-10.95 231.1 Q79.35 274.4 165.8 329.45 183.95 312.55 208.05 306.35 228.75 301.2 250.1 299.0 286.7 294.7 320.65 279.75 L290.75 193.7 297.5 192.25 328.8 283.8 Q312.25 292.4 293.9 298.15 269.8 305.7 244.85 307.65 214.9 309.85 188.75 323.15 176.75 329.25 166.1 337.6 L-10.9 236.45 M274.35 183.9 L267.8 176.95 278.6 161.55 286.15 166.2 274.35 183.9 M-10.9 12.9 L-11.1 11.65 -11.15 9.55 Q35.5 8.3 83.9 18.15 100.75 21.65 110.6 35.5 120.95 50.1 133.4 62.45 171.45 100.3 224.7 112.1 L225.85 107.2 Q234.15 73.65 255.2 46.55 L260.0 40.65 264.95 43.45 261.85 48.65 249.45 70.15 Q235.8 94.45 230.05 121.45 192.15 111.45 157.0 93.8 126.25 78.3 113.6 48.45 110.95 42.15 105.0 39.4 50.6 13.75 -10.9 12.9" fill="#ff0000" fill-opacity="0.33333334" fill-rule="evenodd" stroke="none"/>
  </g>
</svg>
