<?xml version="1.0" encoding="UTF-8" standalone="no"?>
<svg xmlns:ffdec="https://www.free-decompiler.com/flash" xmlns:xlink="http://www.w3.org/1999/xlink" ffdec:objectType="shape" height="22.45px" width="22.45px" xmlns="http://www.w3.org/2000/svg">
  <g transform="matrix(1.0, 0.0, 0.0, 1.0, 11.25, 11.25)">
    <path d="M11.2 -0.05 Q11.2 4.5 7.95 7.8 L7.8 7.95 Q4.5 11.2 -0.05 11.2 -4.65 11.2 -8.0 7.9 -11.3 4.6 -11.25 -0.05 -11.3 -4.55 -8.1 -7.85 L-7.85 -8.1 Q-4.55 -11.3 -0.05 -11.25 4.6 -11.3 7.9 -8.0 11.2 -4.65 11.2 -0.05 M8.7 -0.05 Q8.7 -3.65 6.1 -6.2 3.55 -8.75 -0.05 -8.75 -3.6 -8.85 -6.15 -6.3 L-6.3 -6.15 Q-8.85 -3.6 -8.75 -0.05 -8.75 3.55 -6.2 6.1 -3.65 8.7 -0.05 8.7 3.55 8.7 6.1 6.15 L6.15 6.1 Q8.7 3.55 8.7 -0.05" fill="#ff0066" fill-opacity="0.32941177" fill-rule="evenodd" stroke="none"/>
    <path d="M6.25 -0.05 Q6.25 -2.6 4.35 -4.5 2.5 -6.3 -0.05 -6.3 -2.6 -6.3 -4.4 -4.5 L-4.5 -4.4 Q-6.3 -2.6 -6.3 -0.05 -6.3 2.5 -4.5 4.35 -2.6 6.25 -0.05 6.25 2.5 6.15 4.3 4.35 L4.35 4.3 Q6.15 2.5 6.25 -0.05 M8.7 -0.05 Q8.7 3.55 6.15 6.1 L6.1 6.15 Q3.55 8.7 -0.05 8.7 -3.65 8.7 -6.2 6.1 -8.75 3.55 -8.75 -0.05 -8.85 -3.6 -6.3 -6.15 L-6.15 -6.3 Q-3.6 -8.85 -0.05 -8.75 3.55 -8.75 6.1 -6.2 8.7 -3.65 8.7 -0.05" fill="#ff0066" fill-opacity="0.6627451" fill-rule="evenodd" stroke="none"/>
    <path d="M6.25 -0.05 Q6.15 2.5 4.35 4.3 L4.3 4.35 Q2.5 6.15 -0.05 6.25 -2.6 6.25 -4.5 4.35 -6.3 2.5 -6.3 -0.05 -6.3 -2.6 -4.5 -4.4 L-4.4 -4.5 Q-2.6 -6.3 -0.05 -6.3 2.5 -6.3 4.35 -4.5 6.25 -2.6 6.25 -0.05" fill="#ff0066" fill-rule="evenodd" stroke="none"/>
  </g>
</svg>
