<?xml version="1.0" encoding="UTF-8" standalone="no"?>
<svg xmlns:ffdec="https://www.free-decompiler.com/flash" xmlns:xlink="http://www.w3.org/1999/xlink" ffdec:objectType="shape" height="50.45px" width="301.0px" xmlns="http://www.w3.org/2000/svg">
  <g transform="matrix(1.0, 0.0, 0.0, 1.0, 145.05, 25.2)">
    <path d="M34.95 -19.75 L14.95 -19.75 14.95 -9.75 34.95 -9.75 34.95 -19.75 34.95 -24.7 14.95 -24.7 14.95 -19.75 -5.05 -19.75 -5.05 -9.75 14.95 -9.75 14.95 0.25 34.95 0.25 34.95 -9.75 54.95 -9.75 54.95 -19.75 34.95 -19.75 M54.95 -9.75 L74.95 -9.75 74.95 -19.75 54.95 -19.75 54.95 -24.7 34.95 -24.7 M74.95 -19.75 L74.95 -24.7 54.95 -24.7 M114.95 -19.75 L94.95 -19.75 94.95 -9.75 114.95 -9.75 114.95 -19.75 114.95 -24.7 94.95 -24.7 94.95 -19.75 74.95 -19.75 M129.5 -9.75 L134.95 -9.75 155.45 -9.75 155.45 0.25 155.45 10.25 155.45 20.25 155.45 24.75 134.95 24.75 129.5 24.75 M134.95 -19.75 L129.5 -19.75 M134.95 -19.75 L155.45 -19.75 155.45 -24.7 134.95 -24.7 129.5 -24.7 M155.45 -19.75 L155.45 -9.75 M134.95 0.25 L155.45 0.25 M114.95 -19.75 L129.2 -19.75 M129.2 -9.75 L114.95 -9.75 114.95 0.25 129.2 0.25 M114.95 -24.7 L129.2 -24.7 M74.95 -9.75 L74.95 0.25 94.95 0.25 94.95 -9.75 74.95 -9.75 M74.95 -24.7 L94.95 -24.7 M134.95 0.25 L129.5 0.25 M134.95 10.25 L129.5 10.25 M134.95 10.25 L155.45 10.25 M129.5 20.25 L134.95 20.25 155.45 20.25 M129.2 10.25 L114.95 10.25 114.95 20.25 129.2 20.25 M114.95 20.25 L114.95 24.75 129.2 24.75 M114.95 0.25 L114.95 10.25 94.95 10.25 94.95 20.25 114.95 20.25 M94.95 20.25 L94.95 24.75 114.95 24.75 M114.95 0.25 L94.95 0.25 94.95 10.25 74.95 10.25 74.95 20.25 94.95 20.25 M74.95 20.25 L54.95 20.25 54.95 24.75 74.95 24.75 74.95 20.25 M74.95 0.25 L54.95 0.25 54.95 10.25 74.95 10.25 74.95 0.25 M54.95 10.25 L34.95 10.25 34.95 20.25 54.95 20.25 54.95 10.25 M34.95 20.25 L14.95 20.25 14.95 24.75 34.95 24.75 34.95 20.25 M14.95 0.25 L14.95 10.25 34.95 10.25 34.95 0.25 54.95 0.25 54.95 -9.75 M14.95 10.25 L-5.05 10.25 -5.05 20.25 14.95 20.25 14.95 10.25 M54.95 24.75 L34.95 24.75 M94.95 24.75 L74.95 24.75 M-125.05 -19.75 L-144.55 -19.75 -144.55 -9.75 -125.05 -9.75 -125.05 -19.75 -125.05 -24.7 -144.55 -24.7 -144.55 -19.75 M-85.05 -19.75 L-105.05 -19.75 -105.05 -9.75 -85.05 -9.75 -85.05 -19.75 -85.05 -24.7 -105.05 -24.7 -105.05 -19.75 -125.05 -19.75 M-125.05 -9.75 L-125.05 0.25 -105.05 0.25 -105.05 -9.75 -125.05 -9.75 M-105.05 -24.7 L-125.05 -24.7 M-45.05 -19.75 L-65.05 -19.75 -65.05 -9.75 -45.05 -9.75 -45.05 -19.75 -45.05 -24.7 -65.05 -24.7 -65.05 -19.75 -85.05 -19.75 M-25.05 -9.75 L-25.05 0.25 -5.05 0.25 -5.05 -9.75 -25.05 -9.75 -25.05 -19.75 -45.05 -19.75 M-5.05 -24.7 L-25.05 -24.7 -25.05 -19.75 -5.05 -19.75 -5.05 -24.7 14.95 -24.7 M-45.05 -24.7 L-25.05 -24.7 M-45.05 -9.75 L-25.05 -9.75 M-85.05 -9.75 L-85.05 0.25 -65.05 0.25 -65.05 -9.75 -85.05 -9.75 M-65.05 -24.7 L-85.05 -24.7 M-25.05 0.25 L-25.05 10.25 -5.05 10.25 -5.05 0.25 14.95 0.25 M-5.05 20.25 L-5.05 24.75 14.95 24.75 M-25.05 10.25 L-45.05 10.25 -45.05 20.25 -25.05 20.25 -25.05 10.25 M-45.05 20.25 L-45.05 24.75 -25.05 24.75 -25.05 20.25 -5.05 20.25 M-5.05 24.75 L-25.05 24.75 M-45.05 0.25 L-65.05 0.25 -65.05 10.25 -45.05 10.25 -45.05 0.25 -45.05 -9.75 M-65.05 10.25 L-85.05 10.25 -85.05 20.25 -65.05 20.25 -65.05 10.25 M-85.05 20.25 L-85.05 24.75 -65.05 24.75 -65.05 20.25 -45.05 20.25 M-45.05 24.75 L-65.05 24.75 M-45.05 0.25 L-25.05 0.25 M-85.05 0.25 L-105.05 0.25 -105.05 10.25 -85.05 10.25 -85.05 0.25 M-105.05 10.25 L-125.05 10.25 -125.05 20.25 -105.05 20.25 -105.05 10.25 M-125.05 20.25 L-125.05 24.75 -105.05 24.75 -105.05 20.25 -85.05 20.25 M-85.05 24.75 L-105.05 24.75 M-125.05 0.25 L-125.05 10.25 -144.55 10.25 -144.55 20.25 -125.05 20.25 M-144.55 10.25 L-144.55 0.25 -144.55 -9.75 M-125.05 24.75 L-144.55 24.75 -144.55 20.25 M-144.55 0.25 L-125.05 0.25" fill="none" stroke="#cccccc" stroke-linecap="round" stroke-linejoin="round" stroke-width="1.0"/>
    <path d="M134.95 -9.75 L134.95 -19.75 134.95 -24.7 M134.95 -9.75 L134.95 0.25 134.95 10.25 134.95 20.25 134.95 24.75" fill="none" stroke="#cccccc" stroke-linecap="round" stroke-linejoin="round" stroke-width="1.0"/>
  </g>
</svg>
