<?xml version="1.0" encoding="UTF-8" standalone="no"?>
<svg xmlns:ffdec="https://www.free-decompiler.com/flash" xmlns:xlink="http://www.w3.org/1999/xlink" ffdec:objectType="shape" height="251.0px" width="250.1px" xmlns="http://www.w3.org/2000/svg">
  <g transform="matrix(1.0, 0.0, 0.0, 1.0, -15.05, -132.75)">
    <path d="M34.3 158.45 L34.3 183.65 M15.55 133.25 L15.55 158.45 15.55 258.45 M75.45 208.45 L75.45 233.65 M34.3 258.45 L34.3 283.65 34.3 308.45 M55.6 308.45 L55.6 333.25 55.6 358.45 M75.45 358.45 L75.45 383.25 M55.6 183.65 L55.6 208.45" fill="none" stroke="#cccccc" stroke-linecap="round" stroke-linejoin="round" stroke-width="1.0"/>
    <path d="M15.55 158.45 L34.3 158.45 264.65 158.45 M34.3 183.65 L55.6 183.65 264.65 183.65 M15.55 258.45 L34.3 258.45 264.65 258.45 M75.45 233.65 L264.65 233.65 M55.6 208.45 L75.45 208.45 264.65 208.45 M34.3 283.65 L264.65 283.65 M55.6 333.25 L264.65 333.25 M75.45 383.25 L264.65 383.25 M55.6 358.45 L75.45 358.45 264.65 358.45 M34.3 308.45 L55.6 308.45 264.65 308.45 M15.55 133.25 L264.65 133.25" fill="none" stroke="#cccccc" stroke-linecap="round" stroke-linejoin="round" stroke-width="1.0"/>
  </g>
</svg>
