<?xml version="1.0" encoding="UTF-8" standalone="no"?>
<svg xmlns:ffdec="https://www.free-decompiler.com/flash" xmlns:xlink="http://www.w3.org/1999/xlink" ffdec:objectType="shape" height="93.0px" width="513.0px" xmlns="http://www.w3.org/2000/svg">
  <g transform="matrix(1.0, 0.0, 0.0, 1.0, 256.5, 46.5)">
    <path d="M250.0 -45.0 Q252.05 -45.0 253.5 -43.55 255.0 -42.05 255.0 -40.0 L255.0 40.0 Q255.0 42.05 253.5 43.5 252.05 45.0 250.0 45.0 L-250.0 45.0 Q-252.05 45.0 -253.55 43.5 -255.0 42.05 -255.0 40.0 L-255.0 -40.0 Q-255.0 -42.05 -253.55 -43.55 -252.05 -45.0 -250.0 -45.0 L250.0 -45.0" fill="#ffffff" fill-rule="evenodd" stroke="none"/>
    <path d="M250.0 -45.0 L-250.0 -45.0 Q-252.05 -45.0 -253.55 -43.55 -255.0 -42.05 -255.0 -40.0 L-255.0 40.0 Q-255.0 42.05 -253.55 43.5 -252.05 45.0 -250.0 45.0 L250.0 45.0 Q252.05 45.0 253.5 43.5 255.0 42.05 255.0 40.0 L255.0 -40.0 Q255.0 -42.05 253.5 -43.55 252.05 -45.0 250.0 -45.0 Z" fill="none" stroke="#333333" stroke-linecap="round" stroke-linejoin="round" stroke-width="3.0"/>
  </g>
</svg>
