<?xml version="1.0" encoding="UTF-8" standalone="no"?>
<svg xmlns:ffdec="https://www.free-decompiler.com/flash" xmlns:xlink="http://www.w3.org/1999/xlink" ffdec:objectType="shape" height="64.9px" width="94.9px" xmlns="http://www.w3.org/2000/svg">
  <g transform="matrix(1.0, 0.0, 0.0, 1.0, 47.45, 32.45)">
    <path d="M47.45 -20.0 L47.45 20.0 Q47.45 25.1 43.85 28.7 L43.8 28.8 43.7 28.85 Q40.1 32.45 35.0 32.45 L-35.0 32.45 Q-40.1 32.5 -43.8 28.8 -47.45 25.15 -47.45 20.0 L-47.45 -20.0 Q-47.45 -25.05 -43.9 -28.7 L-43.7 -28.9 -43.65 -28.95 Q-40.0 -32.45 -35.0 -32.45 L35.0 -32.45 Q40.15 -32.45 43.8 -28.8 47.5 -25.1 47.45 -20.0 M45.8 -20.0 Q45.8 -24.4 42.6 -27.65 39.45 -30.8 35.0 -30.8 L-35.0 -30.8 Q-39.35 -30.8 -42.55 -27.75 L-42.55 -27.7 -42.7 -27.55 Q-45.8 -24.4 -45.8 -20.0 L-45.8 20.0 Q-45.8 24.45 -42.65 27.6 -39.4 30.8 -35.0 30.8 L35.0 30.8 Q39.4 30.8 42.55 27.7 L42.6 27.65 42.65 27.6 42.7 27.55 Q45.8 24.4 45.8 20.0 L45.8 -20.0" fill="#0000ff" fill-rule="evenodd" stroke="none"/>
  </g>
</svg>
